<?xml version="1.0" encoding="UTF-8" standalone="no"?>
<svg
   width="64"
   height="64"
   viewBox="0 0 64.000002 64.000002"
   fill="none"
   version="1.1"
   id="svg849"
   sodipodi:docname="folder-trash.svg"
   inkscape:version="1.1.2 (0a00cf5339, 2022-02-04)"
   xmlns:inkscape="http://www.inkscape.org/namespaces/inkscape"
   xmlns:sodipodi="http://sodipodi.sourceforge.net/DTD/sodipodi-0.dtd"
   xmlns:xlink="http://www.w3.org/1999/xlink"
   xmlns="http://www.w3.org/2000/svg"
   xmlns:svg="http://www.w3.org/2000/svg"
   xmlns:rdf="http://www.w3.org/1999/02/22-rdf-syntax-ns#"
   xmlns:cc="http://creativecommons.org/ns#"
   xmlns:dc="http://purl.org/dc/elements/1.1/">
  <style
     id="style3436" />
  <metadata
     id="metadata2611">
    <rdf:RDF>
      <cc:Work
         rdf:about="">
        <dc:format>image/svg+xml</dc:format>
        <dc:type
           rdf:resource="http://purl.org/dc/dcmitype/StillImage" />
        <dc:title />
      </cc:Work>
    </rdf:RDF>
  </metadata>
  <sodipodi:namedview
     id="namedview849"
     pagecolor="#6e6e6e"
     bordercolor="#000000"
     borderopacity="0.25"
     inkscape:showpageshadow="2"
     inkscape:pageopacity="0"
     inkscape:pagecheckerboard="0"
     inkscape:deskcolor="#767676"
     inkscape:zoom="4.9684849"
     inkscape:cx="31.498536"
     inkscape:cy="29.48585"
     inkscape:window-width="1056"
     inkscape:window-height="545"
     inkscape:window-x="300"
     inkscape:window-y="109"
     inkscape:window-maximized="0"
     inkscape:current-layer="svg849"
     showgrid="true"
     showguides="false"
     inkscape:document-rotation="0"
     inkscape:pageshadow="2">
    <inkscape:grid
       id="grid1"
       units="px"
       originx="0"
       originy="0"
       spacingx="1"
       spacingy="1"
       empcolor="#0099e5"
       empopacity="0.30196078"
       color="#0099e5"
       opacity="0.14901961"
       empspacing="5"
       dotted="false"
       gridanglex="30"
       gridanglez="30"
       visible="true" />
  </sodipodi:namedview>
  <defs
     id="defs849">
    <linearGradient
       inkscape:collect="always"
       id="linearGradient4160">
      <stop
         style="stop-color:#29ff14;stop-opacity:1"
         offset="0"
         id="stop4156" />
      <stop
         style="stop-color:#1cffda;stop-opacity:1"
         offset="1"
         id="stop4158" />
    </linearGradient>
    <radialGradient
       inkscape:collect="always"
       xlink:href="#linearGradient4160"
       id="radialGradient3453"
       cx="330.09338"
       cy="648.19318"
       fx="330.09338"
       fy="648.19318"
       r="68.479294"
       gradientTransform="matrix(0.27745634,0.40888272,-0.41243821,0.27986899,181.75312,-299.37865)"
       gradientUnits="userSpaceOnUse" />
    <linearGradient
       inkscape:collect="always"
       xlink:href="#linearGradient4160"
       id="linearGradient3469"
       x1="16.211023"
       y1="47.432365"
       x2="-6.1164165"
       y2="70.964386"
       gradientUnits="userSpaceOnUse" />
    <linearGradient
       inkscape:collect="always"
       xlink:href="#linearGradient4160"
       id="linearGradient3443"
       x1="35.995998"
       y1="39.578999"
       x2="54.495998"
       y2="39.578999"
       gradientUnits="userSpaceOnUse" />
    <radialGradient
       inkscape:collect="always"
       xlink:href="#linearGradient3460-3"
       id="radialGradient3462-3"
       cx="365.91464"
       cy="652.53467"
       fx="365.91464"
       fy="652.53467"
       r="68.488464"
       gradientTransform="matrix(0.21773607,0.44762471,-0.41069158,0.19977087,203.31767,-269.14985)"
       gradientUnits="userSpaceOnUse" />
    <linearGradient
       inkscape:collect="always"
       id="linearGradient3460-3">
      <stop
         style="stop-color:#6bffcf;stop-opacity:1"
         offset="0"
         id="stop3456-6" />
      <stop
         style="stop-color:#50ff7e;stop-opacity:0.41176471"
         offset="0.50388169"
         id="stop1054" />
      <stop
         style="stop-color:#5dff42;stop-opacity:0.07843138"
         offset="1"
         id="stop3458-7" />
    </linearGradient>
  </defs>
  <path
     fill-rule="evenodd"
     clip-rule="evenodd"
     d="M 0.02158279,15.790491 C -0.3054796,11.586415 3.1258721,8 7.476269,8 h 5.021342 9.833832 c 2.072173,0 4.051368,0.8336604 5.465212,2.301736 l 8.649398,8.981434 c 1.413844,1.468075 3.393039,2.301736 5.465213,2.301736 h 9.833831 4.778382 c 4.438704,0 7.899491,3.725887 7.434595,8.003773 L 61.794323,49.513208 C 61.393905,53.200604 58.185423,56 54.359728,56 H 10.08576 C 6.175028,56 2.9254295,53.079245 2.6310734,49.299925 Z"
     id="path475-6"
     style="fill:url(#radialGradient3462-3);fill-opacity:1;stroke-width:0.459975" />
  <path
     d="M 0.25472684,15.773284 C -0.06252316,11.70053 3.2618368,8.226416 7.4762668,8.226416 h 5.0213402 9.83384 c 2.00722,0 3.92474,0.807396 5.29467,2.229736 l 8.64893,8.981434 c 1.45823,1.514264 3.4991,2.373736 5.63622,2.373736 h 9.83383 4.77838 c 4.29994,0 7.6528,3.609509 7.20238,7.753811 l -2.16375,19.924527 c -0.38827,3.57193 -3.49629,6.28393 -7.20238,6.28393 h -44.27397 c -3.7883102,0 -6.9365202,-2.82974 -7.2215302,-6.49087 z"
     id="path476-6"
     style="stroke:url(#radialGradient3453);stroke-width:1;stroke-opacity:0.8;stroke-miterlimit:4;stroke-dasharray:none" />
  <rect
     x="7.1290693"
     y="13.700616"
     width="17.399538"
     height="4.1239581"
     rx="2.2763124"
     id="rect476-7"
     style="fill:#20ffa1;fill-opacity:1;stroke-width:0.42673"
     ry="2.2763121" />
  <rect
     x="-8.4833755"
     y="45.766735"
     width="26.980455"
     height="26.941265"
     rx="6.0943475"
     shape-rendering="crispEdges"
     id="rect5-5-3"
     ry="6.7048149"
     style="fill:#0cff8d;fill-opacity:0.10222606;stroke:url(#linearGradient3469);stroke-width:1.00018103;stroke-opacity:0.734323;stroke-miterlimit:4;stroke-dasharray:none"
     transform="matrix(0.73510941,-0.67794849,0.69747994,0.71660431,0,0)" />
  <path
     style="color:#232629;fill:url(#linearGradient3443);-inkscape-stroke:none"
     d="m 43.6875,30.078125 -0.0918,0.460937 c -0.325605,-0.145289 -0.656824,-0.283203 -1.03125,-0.283203 -0.906463,0 -1.716775,0.46807 -2.169922,1.253907 l -2.044922,3.515625 4.63086,2.683593 2.40625,-4.140625 0.888672,1.541016 -2.490235,1.40625 6.425781,0.0918 3.142579,-5.613281 -2.464844,1.457031 -0.951172,-1.613281 c -0.284146,-0.479644 -0.826698,-0.757215 -1.396484,-0.757813 h -0.002 z m 1.251953,1 3.599609,0.002 c 0.297657,0 0.425324,0.07888 0.53711,0.267578 l 1.457031,2.472656 0.138672,-0.08203 -1.042969,1.861328 -2.130859,-0.03125 0.148437,-0.08398 -2.361328,-4.09375 h -0.002 c -0.08381,-0.144678 -0.243608,-0.186377 -0.34375,-0.3125 z m -2.375,0.177734 c 0.653816,0 1.075028,0.242718 1.460938,0.894532 l 0.002,0.002 0.519531,0.867187 -1.929688,3.322266 -2.90039,-1.679688 1.542969,-2.652343 0.002,-0.002 c 0.295712,-0.512816 0.711019,-0.751953 1.302734,-0.751953 z m 10.042969,4.205078 -0.429688,0.244141 -4.205078,2.390625 2.417969,4.166016 h -1.787109 v -2.835938 l -0.927735,1.544922 -2.363281,3.933594 3.291016,5.478515 v -2.816406 h 1.808593 c 0.572449,0 1.109754,-0.291968 1.396485,-0.777344 l 0.002,-0.002 2.447265,-4.246093 -0.353515,-0.3125 c 0.637278,-0.481393 1.091797,-1.198371 1.091797,-2.001954 0,-0.437353 -0.125485,-0.865735 -0.341797,-1.248046 l -0.002,-0.002 z m -12.019531,1.078125 -0.300782,0.0059 -6.134765,0.115234 2.482422,1.398438 -0.935547,1.626953 h 0.002 c -0.139518,0.241615 -0.205078,0.492202 -0.205078,0.779297 0,0.287754 0.07642,0.538493 0.205078,0.761718 l 2.466797,4.22461 0.488281,-0.169922 c 0.143133,1.255915 1.145013,2.285156 2.447266,2.285156 h 4.089843 v -5.341797 h -4.84375 l 0.876953,-1.511718 2.466797,1.410156 z m 11.654296,0.279297 1.541016,2.652344 c 0.139488,0.246532 0.212891,0.512115 0.212891,0.755859 0,0.492155 -0.372224,1.109526 -0.828125,1.367188 -0.2029,0.106563 -0.550906,0.197266 -0.88086,0.197266 H 51.273437 L 49.34375,38.464844 Z m -12.236328,0.732422 1.070313,1.923828 -0.214844,-0.123047 -2.363281,4.072266 -0.177735,0.304688 -1.753906,-3.001954 v -0.002 c -0.02925,-0.05174 -0.07031,-0.193875 -0.07031,-0.259765 0,-0.0678 0.05103,-0.245905 0.07031,-0.279297 v -0.002 l 1.435547,-2.5 -0.164062,-0.0918 z m 7.597657,5.484375 v 0.226563 h 4.722656 c 0.166661,0 0.282965,-0.117609 0.441406,-0.140625 l -1.820312,3.160156 c -0.107509,0.18199 -0.279466,0.285156 -0.535157,0.285156 h -2.808593 v 0.207031 l -1.123047,-1.86914 z m -7.292969,0.189453 h 3.882812 v 3.341797 h -3.089843 c -0.849983,0 -1.550782,-0.701711 -1.550782,-1.529297 0,-0.187729 0.134582,-0.717573 0.265625,-0.939453 l 0.002,-0.0039 z"
     id="path17553-6-4-3" />
</svg>
