<?xml version="1.0" encoding="UTF-8" standalone="no"?>
<svg
   width="64"
   height="64"
   viewBox="0 0 64.000002 64.000002"
   fill="none"
   version="1.1"
   id="svg849"
   sodipodi:docname="folder-html.svg"
   inkscape:version="1.1.2 (0a00cf5339, 2022-02-04)"
   xmlns:inkscape="http://www.inkscape.org/namespaces/inkscape"
   xmlns:sodipodi="http://sodipodi.sourceforge.net/DTD/sodipodi-0.dtd"
   xmlns:xlink="http://www.w3.org/1999/xlink"
   xmlns="http://www.w3.org/2000/svg"
   xmlns:svg="http://www.w3.org/2000/svg"
   xmlns:rdf="http://www.w3.org/1999/02/22-rdf-syntax-ns#"
   xmlns:cc="http://creativecommons.org/ns#"
   xmlns:dc="http://purl.org/dc/elements/1.1/">
  <style
     id="style3436" />
  <metadata
     id="metadata2611">
    <rdf:RDF>
      <cc:Work
         rdf:about="">
        <dc:format>image/svg+xml</dc:format>
        <dc:type
           rdf:resource="http://purl.org/dc/dcmitype/StillImage" />
        <dc:title />
      </cc:Work>
    </rdf:RDF>
  </metadata>
  <sodipodi:namedview
     id="namedview849"
     pagecolor="#6c6c6c"
     bordercolor="#000000"
     borderopacity="0.25"
     inkscape:showpageshadow="2"
     inkscape:pageopacity="0"
     inkscape:pagecheckerboard="0"
     inkscape:deskcolor="#767676"
     inkscape:zoom="9.93697"
     inkscape:cx="31.045681"
     inkscape:cy="31.095998"
     inkscape:window-width="1600"
     inkscape:window-height="836"
     inkscape:window-x="0"
     inkscape:window-y="0"
     inkscape:window-maximized="1"
     inkscape:current-layer="svg849"
     showgrid="true"
     showguides="false"
     inkscape:document-rotation="0"
     inkscape:pageshadow="2">
    <inkscape:grid
       id="grid1"
       units="px"
       originx="0"
       originy="0"
       spacingx="1"
       spacingy="1"
       empcolor="#0099e5"
       empopacity="0.30196078"
       color="#0099e5"
       opacity="0.14901961"
       empspacing="5"
       dotted="false"
       gridanglex="30"
       gridanglez="30"
       visible="true" />
  </sodipodi:namedview>
  <defs
     id="defs849">
    <radialGradient
       inkscape:collect="always"
       xlink:href="#linearGradient3447-3"
       id="radialGradient3453"
       cx="330.09338"
       cy="648.19318"
       fx="330.09338"
       fy="648.19318"
       r="68.479294"
       gradientTransform="matrix(0.27745641,0.40888272,-0.41243818,0.27986904,181.75307,-299.37868)"
       gradientUnits="userSpaceOnUse" />
    <linearGradient
       inkscape:collect="always"
       id="linearGradient3447-3">
      <stop
         style="stop-color:#fe9022;stop-opacity:1"
         offset="0"
         id="stop3443-6" />
      <stop
         style="stop-color:#ff4811;stop-opacity:1"
         offset="1"
         id="stop3445-7" />
    </linearGradient>
    <linearGradient
       inkscape:collect="always"
       xlink:href="#linearGradient3447-3"
       id="linearGradient3476"
       x1="16.211023"
       y1="47.432365"
       x2="-6.8332806"
       y2="70.286194"
       gradientUnits="userSpaceOnUse" />
    <linearGradient
       inkscape:collect="always"
       xlink:href="#linearGradient3447-3"
       id="linearGradient3986"
       x1="34.63269"
       y1="39.203518"
       x2="55.422024"
       y2="39.203518"
       gradientUnits="userSpaceOnUse" />
    <radialGradient
       inkscape:collect="always"
       xlink:href="#linearGradient3460-3"
       id="radialGradient3462-3"
       cx="365.91464"
       cy="652.53467"
       fx="365.91464"
       fy="652.53467"
       r="68.488464"
       gradientTransform="matrix(0.21773607,0.44762471,-0.41069158,0.19977087,203.31767,-269.14985)"
       gradientUnits="userSpaceOnUse" />
    <linearGradient
       inkscape:collect="always"
       id="linearGradient3460-3">
      <stop
         style="stop-color:#ff710f;stop-opacity:1"
         offset="0"
         id="stop3456-6" />
      <stop
         style="stop-color:#ff7021;stop-opacity:0.41176471"
         offset="0.50388169"
         id="stop1054" />
      <stop
         style="stop-color:#ff8642;stop-opacity:0.07843138"
         offset="1"
         id="stop3458-7" />
    </linearGradient>
  </defs>
  <path
     fill-rule="evenodd"
     clip-rule="evenodd"
     d="M 0.02158279,15.790491 C -0.3054796,11.586415 3.1258721,8 7.476269,8 h 5.021342 9.833832 c 2.072173,0 4.051368,0.8336604 5.465212,2.301736 l 8.649398,8.981434 c 1.413844,1.468075 3.393039,2.301736 5.465213,2.301736 h 9.833831 4.778382 c 4.438704,0 7.899491,3.725887 7.434595,8.003773 L 61.794323,49.513208 C 61.393905,53.200604 58.185423,56 54.359728,56 H 10.08576 C 6.175028,56 2.9254295,53.079245 2.6310734,49.299925 Z"
     id="path475-6"
     style="fill:url(#radialGradient3462-3);fill-opacity:1;stroke-width:0.459975" />
  <path
     d="M 0.25472682,15.773284 C -0.0625232,11.70053 3.2618368,8.226416 7.4762668,8.226416 h 5.0213392 9.833843 c 2.00722,0 3.92474,0.807396 5.29467,2.229736 l 8.64893,8.981434 c 1.45823,1.514264 3.4991,2.373736 5.63622,2.373736 h 9.83383 4.77838 c 4.29994,0 7.6528,3.609509 7.20238,7.753811 l -2.16375,19.924527 c -0.38827,3.57193 -3.49629,6.28393 -7.20238,6.28393 H 10.085757 c -3.7883102,0 -6.9365202,-2.82974 -7.2215302,-6.49087 z"
     id="path476-6"
     style="stroke:url(#radialGradient3453);stroke-width:1;stroke-opacity:0.8;stroke-miterlimit:4;stroke-dasharray:none" />
  <rect
     x="7.1290727"
     y="13.700625"
     width="17.399538"
     height="4.1239581"
     rx="2.2763124"
     id="rect476-7"
     style="fill:#ff6e23;fill-opacity:0.97436249;stroke-width:0.42673"
     ry="2.2763121" />
  <rect
     x="-8.4833622"
     y="45.766647"
     width="26.980455"
     height="26.941265"
     rx="6.0943475"
     shape-rendering="crispEdges"
     id="rect5-5"
     ry="6.7048149"
     style="fill:#ff8e1c;fill-opacity:0.10085981;stroke:url(#linearGradient3476);stroke-width:1.00018103;stroke-opacity:0.734323;stroke-miterlimit:4;stroke-dasharray:none"
     transform="matrix(0.73510941,-0.67794849,0.69747994,0.71660431,0,0)" />
  <path
     style="color:#000000;fill:url(#linearGradient3986);-inkscape-stroke:none"
     d="m 46.890625,28.966797 c -2.577258,-0.442791 -4.997006,0.05319 -7.238281,1.376953 l -0.0039,0.0039 -0.0039,0.002 C 39.44485,30.47363 39.34467,30.720174 39.333984,30.875 c -0.01069,0.154826 0.01172,0.25866 0.01172,0.259766 0,0.09357 0.0587,0.263028 0.175781,0.345703 0.0075,0.0053 0.01022,-7.34e-4 0.01758,0.0039 -0.209789,0.09855 -0.40316,0.17037 -0.630859,0.384766 -0.164898,0.131111 -0.213018,0.286092 -0.220703,0.429687 -0.004,0.07439 -0.0018,0.151217 0.04492,0.253906 0.04669,0.102689 0.205385,0.259766 0.396484,0.259766 l -0.04297,-0.002 c -0.0047,-5.15e-4 0.01446,0.0045 0.09961,0.05469 0.01427,0.0084 0.06281,0.01096 0.08203,0.02148 -0.01067,0.06932 -0.03566,0.130782 -0.0039,0.216797 0.05006,0.135606 0.161389,0.229206 0.253906,0.27539 l 0.01563,0.0078 0.01563,0.0059 c 0.174192,0.06927 0.404819,0.02732 0.537109,-0.07617 0.132291,-0.103486 0.195108,-0.23359 0.222657,-0.36914 l 0.0039,-0.01758 0.002,-0.01172 c 0.0058,-0.0039 0.02504,-0.01895 0.08398,-0.04102 l 0.01953,-0.0059 0.01758,-0.0098 c 0.04921,-0.02448 0.110568,-0.06045 0.175781,-0.107422 v 0.382813 c 0,0.144872 0.05182,0.20992 0.08008,0.251953 0.01143,0.017 0.01502,0.01706 0.02539,0.0293 -0.01163,0.05635 -0.04812,0.09101 -0.03711,0.15625 0.0011,0.0064 0.0084,0.0074 0.0098,0.01367 -5.3e-4,0.0016 0.02626,-0.01172 0.02344,-0.01172 l 0.01953,0.0039 c -0.01361,0.0061 -0.02334,0.0123 -0.03711,0.01953 0.0094,0.03852 0.03983,0.05459 0.05664,0.08789 l -0.09375,-0.06836 c -0.0454,0.02803 -0.07852,0.02138 -0.121094,0.06641 l -0.01563,-0.01172 0.002,-0.002 c 0.104468,-0.106004 0.09863,-0.06763 0.121094,-0.06055 l -0.166015,-0.121094 c 0.08315,-0.08408 0.13541,-0.0811 0.125,-0.07813 -0.008,0.0023 -0.05682,0.01798 -0.103516,0.03711 -0.417951,0.162953 -0.635348,0.448402 -0.757813,0.521484 l -0.01172,0.0059 -0.01172,0.0078 c -0.187254,0.13035 -0.506669,0.257223 -0.722656,0.615234 l 0.01367,-0.02148 c -0.219272,0.315144 -0.334561,0.521651 -0.5625,0.642578 l 0.0078,-0.0039 c -0.238089,0.118526 -0.190719,0.411541 -0.283203,0.646484 -0.04912,-0.03651 -0.09038,-0.08881 -0.140625,-0.105469 l -0.01367,-0.0059 -0.01367,-0.002 c -0.0461,-0.01154 -0.143016,-0.05843 -0.302734,-0.08398 -0.150807,-0.02413 -0.391966,0.03241 -0.558594,0.175781 0.02561,-0.0057 0.02191,-0.003 0.0039,-0.0059 v -0.002 c -0.194455,-0.03837 -0.427216,0.02616 -0.585937,0.136719 -0.263072,0.163677 -0.433873,0.408088 -0.511719,0.636719 -0.07435,0.218368 -0.08999,0.412579 -0.109375,0.576172 -4.86e-4,0.0019 4.9e-4,0.0059 0,0.0078 -7.34e-4,0.0029 7.4e-4,0.0087 0,0.01172 -2.74e-4,-0.0021 -0.0017,-0.0038 -0.002,-0.0059 -9e-5,-6.58e-4 9.1e-5,-0.0013 0,-0.002 -0.01327,-0.09578 0.0022,-0.175395 -0.03711,-0.279296 l -0.002,-0.002 v -0.0039 c 0.03493,0.08738 0.01756,0.06685 0.01758,-0.04492 2e-5,-0.111768 -0.05191,-0.3545 -0.222657,-0.496093 l -0.542968,-0.449219 -0.09961,0.697265 c -0.01053,0.07252 -0.0058,0.121375 -0.0098,0.185547 l -0.06641,-0.01563 c -0.04753,0.09387 -0.07059,0.162583 -0.06836,0.158203 l -0.02344,0.04492 -0.0098,0.04883 c -0.423157,1.917341 -0.281237,3.822104 0.375,5.664063 v 0.002 c 1.810495,5.075441 7.197696,7.837928 12.279297,6.597656 l 0.478515,-0.117187 -0.03711,-0.07617 c 4.514674,-1.332317 7.686536,-5.475813 7.439453,-10.289063 v -0.0039 c -0.01755,-0.499584 -0.04149,-1.183634 -0.400391,-1.798828 l 0.01563,-0.02539 v -0.361328 l -0.21875,-0.109375 c -0.198085,-0.09853 -0.268653,-0.157391 -0.292968,-0.246093 l -0.0098,-0.03711 -0.01758,-0.03516 c -0.01115,-0.02202 -0.03239,-0.08963 -0.125,-0.181641 -0.0463,-0.04601 -0.122162,-0.10553 -0.240234,-0.128906 -0.118072,-0.02338 -0.257582,0.01427 -0.341797,0.07031 -0.125767,0.08371 -0.230294,0.296948 -0.216797,0.445312 0.0135,0.148364 0.06742,0.223994 0.107422,0.283203 0.130047,0.19394 0.202115,0.268442 0.201172,0.265625 l -0.0059,-0.02539 c 0.03378,0.12762 0.06468,0.228563 0.138672,0.339843 0.03699,0.05564 0.08863,0.119627 0.175781,0.169922 0.03652,0.02108 0.08541,0.01304 0.13086,0.02344 0.0051,0.0072 8.02e-4,0.02456 0.0059,0.03125 l 0.0059,0.0078 0.0059,0.0078 c 0.03296,0.03934 0.03751,0.05727 0.02539,0.140625 v 0.0039 l -0.002,0.002 c -0.02194,0.174526 -0.08209,0.264457 -0.199218,0.371094 -0.04946,0.04503 -0.143449,0.09194 -0.212891,0.136719 -0.05507,-0.211909 -0.08674,-0.451099 -0.173828,-0.607422 -0.142116,-0.255096 -0.276222,-0.449158 -0.34375,-0.628907 -9.84e-4,-0.0026 -0.003,-0.0072 -0.0039,-0.0098 h -0.002 c -0.09428,-0.271446 -0.240906,-0.440656 -0.333984,-0.582031 -0.03503,-0.06917 -0.08585,-0.149924 -0.193359,-0.216797 -9.91e-4,-6.17e-4 -0.0029,6.09e-4 -0.0039,0 l 0.02734,-0.07813 0.0078,-0.01758 c 0.06534,-0.174163 0.155112,-0.441929 0.132812,-0.779297 -0.0028,-0.07492 -0.05101,-0.1161 -0.08398,-0.175782 0.04179,-0.0069 0.07327,0.0078 0.117187,-0.01367 0.116429,-0.05696 0.19869,-0.168217 0.236328,-0.261719 0.06378,-0.15786 0.01935,-0.411787 -0.07422,-0.525391 -0.09357,-0.113603 -0.168788,-0.143169 -0.185547,-0.154297 l 0.02734,0.01953 c -0.08364,-0.06661 -0.121467,-0.100616 -0.173829,-0.144532 l 0.330079,-0.49414 -0.583985,0.146484 c -0.133345,-0.07957 -0.243946,-0.07113 -0.332031,-0.06055 -0.02011,-0.002 -0.03572,-0.0096 -0.117188,0.01758 -3.55e-4,1.19e-4 -0.0016,-1.2e-4 -0.002,0 -0.06427,-0.04779 -0.135639,-0.105573 -0.257812,-0.107422 -0.144707,-0.0022 -0.261063,0.07433 -0.337891,0.144532 -0.132426,0.113785 -0.114718,0.308285 -0.160156,0.478515 -0.06055,-0.0017 -0.125692,-0.02075 -0.177734,-0.0078 l -0.0059,0.002 -0.0059,0.002 c -0.0404,0.01147 -0.08377,0.06066 -0.128906,0.08594 -0.004,-0.0073 -0.0057,-0.0082 -0.0098,-0.01563 -0.11346,-0.205198 -0.311828,-0.459071 -0.636719,-0.578125 l 0.0098,0.0039 c 0.120023,0.04777 0.05715,0.02435 -0.0332,-0.06055 -0.04518,-0.04245 -0.110764,-0.110465 -0.259766,-0.144531 -0.149002,-0.03407 -0.353614,0.03968 -0.447266,0.132812 h -0.002 c -0.01835,0.01826 -0.011,0.0622 -0.02734,0.08789 -0.06944,-0.02868 -0.139337,-0.04994 -0.222657,-0.05664 l -0.164062,-0.164062 -0.03711,0.183593 c -0.131491,0.03108 -0.262226,0.07054 -0.378906,0.15625 -0.03953,0.02571 -0.121233,0.142471 -0.183594,0.179688 0.01109,-0.04859 0.0313,-0.08136 0.03125,-0.142578 -5.6e-5,-0.07641 -0.05195,-0.153787 -0.08398,-0.234375 0.03209,-0.01122 0.05334,-0.0067 0.08789,-0.02539 0.0466,-0.02522 0.0735,-0.08453 0.115234,-0.125 l 0.203125,-0.0332 v -0.113281 c 0.03107,-0.02842 0.111069,-0.05331 0.130859,-0.07227 0.07291,-0.06981 0.06957,-0.05444 0.0332,-0.05078 l -0.03906,0.002 c 0.111524,0 0.269439,0.01459 0.443359,-0.158203 0.0063,-0.0062 0.0038,-0.01859 0.0098,-0.02539 0.0098,-0.0013 0.02423,-3.15e-4 0.0332,-0.002 0.08169,0.06605 0.162529,0.141841 0.253906,0.16211 0.132637,0.02942 0.240995,0.01344 0.31836,0 0.15473,-0.02688 0.204204,-0.02313 0.164062,-0.03516 l -0.01172,-0.0039 c 0.104122,0.03482 0.243523,0.02599 0.339843,-0.01953 0.09632,-0.04552 0.152117,-0.108925 0.189453,-0.160156 0.07467,-0.102464 0.09449,-0.181151 0.113282,-0.25586 l 0.0059,-0.02539 c 0.04081,0.002 0.08396,0.04751 0.128906,0.04102 0.06783,-0.0098 0.151876,-0.03464 0.234375,-0.109375 0.0825,-0.07474 0.140625,-0.20954 0.140625,-0.318359 V 32.052734 L 51.46875,31.935547 c 0,0 -0.03935,-0.0368 -0.08984,-0.07031 -0.0374,-0.02482 -0.120334,-0.04716 -0.207031,-0.06445 0.104627,0.04644 0.300114,0.09846 0.445312,0.02539 l 0.490235,-0.248047 -0.388672,-0.386719 c 0.0011,0.0011 -0.07089,-0.101279 -0.212891,-0.199219 -1.378001,-1.042546 -2.906994,-1.723044 -4.613281,-2.02539 z m 0.632812,1.011719 c 0.126391,0.03294 0.248988,0.07369 0.373047,0.111328 -0.003,0.02116 -0.0059,0.04891 -0.0059,0.04883 8.6e-5,-2.43e-4 -0.04315,0.08816 -0.04297,0.08789 3.56e-4,-5.33e-4 -0.05034,0.05998 -0.06641,0.07422 -0.01607,0.01424 -0.02767,0.02287 -0.03711,0.0293 -0.01888,0.01285 -0.02824,0.01705 -0.03711,0.02148 -0.03548,0.01773 -0.01629,0.03125 -0.138672,0.03125 h 0.958985 l -0.148438,-0.148437 c 0.48093,0.173599 0.945831,0.394201 1.394531,0.642578 -0.08662,0.04848 -0.182232,0.04852 -0.253906,0.126953 l 0.01172,-0.01367 c -0.118268,0.117718 -0.220954,0.178698 -0.363281,0.207032 l -0.0098,0.002 -0.0098,0.002 c -0.14278,0.03558 -0.337544,0.115283 -0.433593,0.330078 -0.09295,0.207872 -0.02752,0.392929 0.03906,0.529297 0.04338,0.114249 0.09009,0.245507 0.248047,0.361328 0.0058,0.0042 0.01545,-0.002 0.02148,0.002 -0.07018,0.03163 -0.128144,0.05546 -0.175781,0.09375 -0.06117,-0.08781 -0.07368,-0.222439 -0.140625,-0.289062 -0.04582,-0.04559 0.0039,-0.09618 0.0039,0.09961 l -0.002,0.04102 c 0.02008,-0.197451 -0.03045,-0.422711 -0.193359,-0.576172 -0.162914,-0.153461 -0.402019,-0.187399 -0.589844,-0.140625 l -0.02148,0.0059 -0.02148,0.0078 c -0.141886,0.05312 -0.204513,0.215021 -0.273437,0.357421 h -0.253906 v 0.136719 c -0.124285,0.07567 -0.294922,0.233226 -0.294922,0.460938 0,-0.153256 0.01006,-0.09013 -0.0293,0.02734 -0.01968,0.05874 -0.05714,0.160656 -0.0098,0.3125 0.04738,0.151845 0.201964,0.268686 0.310547,0.304688 l 0.01367,0.0059 0.01367,0.0039 c 0.06374,0.01611 0.09437,-0.0058 0.142578,-0.0059 l 0.08008,0.04883 v 0.02344 c 0,0.202614 0.07873,0.247275 0.113281,0.285156 0.03287,0.03604 0.05707,0.05504 0.08008,0.07227 -0.214936,0.0098 -0.443545,-0.02283 -0.607422,0.144531 -0.248677,0.253963 -0.245633,0.593665 -0.19336,0.931641 l 0.002,0.0078 0.002,0.0098 c 0.0043,0.02109 -0.0023,0.127687 0.08789,0.289062 0.0298,0.05334 0.09912,0.09969 0.160156,0.148438 -0.17964,0.216423 -0.379052,0.420201 -0.486328,0.761718 l 0.01367,-0.03906 c 0.03539,-0.08191 0.06898,-0.07731 -0.02148,-0.0293 -0.09047,0.04801 -0.27398,0.144619 -0.390625,0.353516 l -0.0098,0.01758 -0.0078,0.01563 c -0.04241,0.09639 -0.167578,0.239433 -0.298828,0.457031 -0.131251,0.217599 -0.238005,0.566379 -0.123047,0.925781 l 0.002,0.0039 v 0.002 c 0.01738,0.0517 -0.002,0.158448 -0.07227,0.390625 l 0.0039,-0.01172 c -0.09909,0.294728 -0.08856,0.753746 0.25,1.052734 l 0.0078,0.0059 0.0078,0.0059 c 0.102781,0.08179 0.19601,0.219791 0.320313,0.402344 0.124303,0.182553 0.285633,0.41416 0.5625,0.576172 h 0.002 l 0.002,0.002 c 0.203112,0.115554 0.46156,0.166444 0.69336,0.138672 0.483535,-0.05128 0.886802,-0.182708 1.220703,-0.201172 h 0.0078 0.0078 c -0.02972,0.0027 0.03667,0.0087 0.15039,0.07617 0.06269,0.03716 0.165039,0.09028 0.25,0.140625 -0.01983,0.06177 -0.04266,0.115577 -0.05859,0.232422 -0.01338,0.09202 -0.02863,0.20083 -0.0039,0.335937 0.02472,0.135108 0.103529,0.282144 0.207032,0.384766 l -0.0098,-0.0098 c 0.238779,0.253374 0.279466,0.593248 0.375,1.068359 l 0.002,0.0039 v 0.0039 c -0.01209,-0.05373 0.02151,-0.101207 -0.02148,-0.03711 -0.04258,0.06348 -0.151265,0.184477 -0.201172,0.40039 -0.07162,0.28544 -0.14435,0.693505 0.0957,1.06836 0.115705,0.180833 0.153558,0.339653 0.123047,0.537109 l -0.002,0.01563 -0.002,0.01367 c -0.02057,0.262907 0.09171,0.478247 0.167968,0.603515 0.07626,0.125269 0.10713,0.184992 0.109375,0.197266 0.02324,0.127182 0.04148,0.228755 0.08008,0.339844 0.0386,0.111089 0.121424,0.262244 0.273438,0.345703 0.152014,0.08346 0.290472,0.0763 0.398437,0.06641 0.107966,-0.0099 0.210004,-0.02866 0.337891,-0.05078 l 0.0039,-0.002 h 0.002 c 0.383382,-0.07338 0.687602,-0.279449 0.902344,-0.517578 0.20923,-0.232017 0.346405,-0.488894 0.470703,-0.72461 l 0.0039,-0.0059 c 0.0592,-0.100204 0.08457,-0.172972 0.08398,-0.171875 -1.95e-4,3.66e-4 -0.02034,0.0151 -0.03125,0.02539 0.311647,-0.174973 0.454128,-0.494803 0.341797,-0.830079 l 0.0098,0.03711 c -0.01414,-0.06077 -0.0071,-0.07017 0.0078,-0.09766 0.0036,-0.0066 0.02283,-0.01903 0.0293,-0.02734 -0.0065,0.02419 -0.01153,0.0733 -0.01953,0.09375 l -0.0039,0.0078 -0.002,0.0078 c -0.02837,0.08397 -0.05423,0.184869 -0.01758,0.330078 0.02134,0.08454 0.128396,0.138893 0.210938,0.210937 -1.283528,2.121905 -3.293102,3.777398 -5.841797,4.402344 -5.97e-4,1.47e-4 -0.0014,-1.46e-4 -0.002,0 -1.650218,0.402405 -3.289105,0.208959 -4.853516,-0.234375 l -0.002,-0.002 -0.675781,-0.671875 c -0.05294,-0.05266 -0.08015,-0.06525 -0.09766,-0.07617 l -0.0098,-0.0078 c -0.145445,-0.128608 -0.215178,-0.149535 -0.271485,-0.175782 l 0.04297,-0.06641 v -0.115234 c 0,-0.143746 -0.02833,-0.160142 -0.04102,-0.191406 -0.01269,-0.03126 -0.02539,-0.05469 -0.02539,-0.05469 l -0.08398,-0.167969 -0.02344,-0.0039 c 0.0053,-0.02805 0.0065,-0.0067 0.01172,-0.04297 l 0.0039,-0.0293 v -0.02734 c 0,0.08727 -0.007,0.111501 0.02148,-0.04492 0.0024,-0.01342 -0.01973,-0.04713 -0.01953,-0.06641 0.01804,-0.03486 0.06526,-0.08394 0.07422,-0.105469 0.0096,-0.02315 8.8e-5,-0.0078 0.0039,-0.01563 0.144869,-0.02203 0.297747,-0.0075 0.414063,-0.173828 0.06935,-0.09917 0.07236,-0.217321 0.07227,-0.324219 0.01359,-0.0068 0.02775,0.0042 0.04102,-0.0039 0.165835,-0.101077 0.243476,-0.263203 0.28125,-0.394532 0.03557,-0.123954 0.07489,-0.206181 0.148437,-0.279296 l 0.01172,-0.01367 0.01172,-0.01367 c 0.143666,-0.17158 0.224706,-0.457729 0.195312,-0.748047 0.02114,-0.0074 0.08231,-0.02686 0.154297,-0.03516 0.302345,-0.0318 0.571338,-0.20602 0.695313,-0.408203 0.123974,-0.202184 0.146559,-0.378318 0.183593,-0.498047 l 0.002,-0.002 c 0.08926,-0.294962 0.08507,-0.578509 0.06055,-0.847657 v -0.002 c -8.43e-4,-0.0091 -0.0077,-0.0019 0.0293,-0.05469 0.03558,-0.05076 0.113685,-0.131869 0.201172,-0.246094 0.117659,-0.14636 0.223934,-0.316408 0.271485,-0.529297 0.04755,-0.212889 0.01076,-0.498915 -0.169922,-0.701172 h -0.002 c -0.193147,-0.216149 -0.501029,-0.54722 -0.990235,-0.582031 H 43 h -0.0039 c -0.266806,-0.01342 -0.555349,-0.224302 -0.953125,-0.404297 -0.0087,-0.04443 -0.01367,-0.100025 -0.04883,-0.205078 l -0.002,-0.0039 -0.002,-0.0039 c -0.151998,-0.423225 -0.546808,-0.694804 -0.949218,-0.751953 l -0.0059,-0.002 h -0.0039 c -0.100605,-0.01185 -0.134433,-0.03587 -0.195313,-0.09961 -0.05949,-0.06228 -0.127885,-0.173821 -0.207031,-0.308594 -0.106992,-0.191552 -0.356246,-0.332005 -0.535156,-0.332031 -0.17891,-2.6e-5 -0.289817,0.05629 -0.267578,0.05078 l -0.0098,0.002 -0.0078,0.0039 c -0.101498,0.0304 -0.137867,0.01355 -0.257813,-0.05469 l -0.0059,-0.0039 -0.0059,-0.0039 c -0.247911,-0.130604 -0.533437,-0.198057 -0.8125,-0.125 -0.223967,0.05863 -0.385779,0.238083 -0.539062,0.421875 -0.04483,-0.01443 -0.08177,-0.05392 -0.125,-0.05664 -0.04886,-0.0031 -0.08066,0.0153 -0.123047,0.02148 0.0052,-0.02448 0.0035,-0.02969 0.01172,-0.0625 l 0.0039,-0.01367 0.002,-0.01367 c 0.01792,-0.10069 0.03261,-0.186284 0.03516,-0.287109 0.0025,-0.100824 -0.006,-0.250342 -0.123046,-0.388672 -0.08066,-0.09531 -0.176244,-0.104356 -0.267579,-0.126953 0.01751,-0.05471 0.04187,-0.08745 0.05273,-0.150391 0.0013,-9.9e-5 0.0026,0.0021 0.0039,0.002 l -0.002,0.01172 c -0.0026,0.01026 0.0073,-0.01859 0.0059,-0.01172 0.03764,-0.0034 0.09403,0.02777 0.119141,0.01953 l 0.0078,-0.002 0.0059,-0.002 c 0.11113,-0.04145 0.120236,-0.03026 0.154297,-0.01563 0.03406,0.01464 0.107385,0.07062 0.208984,0.18164 l 0.0059,0.0078 0.0078,0.0059 c 0.11566,0.114818 0.211511,0.144103 0.337891,0.164063 0.04249,0.0067 0.09803,-0.02505 0.146484,-0.02734 l -0.03711,0.160156 c -0.0057,-0.0019 0.08998,0.05869 0.255859,0.09961 l 0.140625,0.0332 0.130859,-0.06445 c 0.05684,-0.02838 0.191254,-0.05184 0.376953,-0.113281 l 0.271485,-0.08984 v -0.404296 l -0.06641,-0.09961 c -0.09044,-0.134948 -0.229567,-0.233765 -0.351563,-0.28125 -0.110415,-0.04298 -0.199865,-0.05364 -0.277344,-0.06445 -0.02957,-0.0064 -0.06636,0.02527 -0.101562,0.02539 l -0.06641,-0.04102 c -0.07259,-0.04596 -0.29542,-0.107016 -0.419922,-0.195312 0.0011,-9.53e-4 0.0028,-9.92e-4 0.0039,-0.002 0.09393,-0.08507 0.141549,-0.18651 0.166016,-0.273437 0.04893,-0.173854 0.0301,-0.316324 -0.0098,-0.455078 l 0.002,0.0078 c -0.05428,-0.203139 -0.04072,-0.244671 0.134766,-0.332031 l 0.0039,-0.002 0.0039,-0.0039 c 0.451014,-0.239273 0.653823,-0.618509 0.841797,-0.888672 l 0.0078,-0.0098 0.0059,-0.01172 c 0.05559,-0.09214 0.232723,-0.190304 0.498047,-0.375 0.197893,-0.123153 0.290699,-0.201928 0.40039,-0.291015 l 0.05078,0.02344 h 0.0918 c 0.02289,0 0.164386,0.07306 0.373046,-0.138672 l 0.01758,-0.01953 0.01563,-0.01953 c -0.03952,0.05228 -0.05646,0.03612 0.05664,0.01367 l 0.02344,-0.0059 0.02344,-0.0078 c 0.04604,-0.01539 0.103694,-0.03538 0.169922,-0.06836 0.06623,-0.03298 0.155231,-0.0292 0.261719,-0.240235 l 0.02734,-0.05273 c 0.0701,0.02305 0.12613,0.02931 0.166015,0.0293 0.08812,-3.2e-5 0.136036,-0.0112 0.173828,-0.01563 0.07558,-0.0089 0.05984,0.0077 0.01563,-0.02539 l 0.0098,0.0059 0.0098,0.0078 c 0.168403,0.111807 0.329666,0.1129 0.492187,0.03906 0.08126,-0.03692 0.178951,-0.105309 0.234375,-0.242187 0.05542,-0.136878 0.01976,-0.317128 -0.04492,-0.414063 l 0.0098,0.01563 c 0.05735,0.09477 0.04187,0.1906 0.03711,0.208985 -0.0048,0.01839 0.0021,-0.0022 0.02148,-0.05273 0.01937,-0.05052 0.102146,-0.158633 0.002,-0.378906 -0.0212,-0.04662 -0.06723,-0.06015 -0.103516,-0.0957 L 43.050781,32.5625 h -0.304687 c -0.02344,-0.107791 -0.06478,-0.222282 -0.140625,-0.300781 -0.04876,-0.05046 -0.108386,-0.07117 -0.164063,-0.103516 0.0043,-0.04465 0.01374,-0.07328 -0.02344,-0.181641 -0.0042,-0.02748 -0.05806,-0.08777 -0.06445,-0.125 0.0298,-0.01226 0.05334,-0.01697 0.0918,-0.04297 0.04359,-0.02947 0.08022,-0.104289 0.121094,-0.166016 0.04288,-0.0087 0.09702,0.0036 0.13086,-0.01172 0.186909,-0.08451 0.256892,-0.199283 0.300781,-0.257812 l 0.0059,-0.0098 0.0059,-0.0078 c 0.06927,-0.10329 0.117786,-0.329236 0.0332,-0.486328 -0.07,-0.130008 -0.143692,-0.154727 -0.203125,-0.181641 -0.01733,-0.04192 -0.01273,-0.09035 -0.03906,-0.126953 -0.01446,-0.0201 -0.03295,-0.01997 -0.04883,-0.03711 0.128483,0.08314 0.281498,0.137606 0.367188,0.126954 0.106263,-0.01321 0.168099,-0.03896 0.197265,-0.04687 0.02541,0.0037 0.02578,0.0025 0.04492,0.0039 0.0094,0.02925 0.01534,0.05698 0.02734,0.07813 -0.09592,0.09047 -0.236424,0.151685 -0.263672,0.248047 -0.0519,0.183525 -0.03862,0.304983 -0.04492,0.361328 l -0.002,0.02148 v 0.02148 c 0,0.271031 0.18116,0.533986 0.351562,0.636718 0.170403,0.102732 0.305775,0.128648 0.359375,0.152344 l 0.0098,0.0059 0.01172,0.0039 c 0.200028,0.07489 0.474213,0.0015 0.59375,-0.09766 0.119537,-0.09918 0.163748,-0.173503 0.162109,-0.171875 l -0.01953,0.01758 c 0.13004,-0.113208 0.207908,-0.217765 0.259766,-0.267579 0.05186,-0.04981 0.0483,-0.04186 0.06055,-0.04297 h 0.0078 l 0.0098,-0.002 c 0.394807,-0.05376 0.653105,-0.141507 0.939453,-0.222657 l 0.21289,0.107422 c 0.01186,0.03684 0.01266,0.06358 0.04492,0.113281 0.05732,0.08831 0.166907,0.174877 0.275391,0.210938 0.167691,0.05606 0.248597,0.04704 0.279297,0.05469 l 0.08594,0.02148 0.08594,-0.01758 c 0.151921,-0.03058 0.287873,-0.07528 0.361328,-0.08984 l 0.07813,-0.01563 0.06445,-0.04297 c -0.01617,0.01076 -0.01072,0.01143 0.06641,-0.03125 0.03856,-0.02134 0.101377,-0.06068 0.158203,-0.138672 C 47.593935,31.443495 47.625,31.333045 47.625,31.25 v -0.002 c 0,-0.177701 -0.137769,-0.369256 -0.259766,-0.435547 -0.119523,-0.06495 -0.211948,-0.07012 -0.289062,-0.07031 0.01346,-0.0062 0.01994,-0.0081 0.03711,-0.01758 0.04677,-0.02568 0.126081,-0.05819 0.197266,-0.199218 l 0.02148,-0.04102 0.01172,-0.04687 c 0.0132,-0.05671 -0.01187,-0.0098 -0.0078,-0.01172 0.0041,-0.002 0.07352,-0.01953 0.1875,-0.01953 z m -0.927734,0.220703 c 0.0072,7.78e-4 0.01624,-8.14e-4 0.02344,0 -0.0085,0.02476 -0.03902,0.03323 -0.04492,0.05859 z m -0.289062,0.0039 c -0.06414,0.06265 -0.09786,0.151134 -0.121094,0.244141 h -0.337891 l 0.0078,0.0957 c -0.392368,0.08824 -0.786029,0.206322 -1.078125,0.246093 l 0.01758,-0.002 c -0.236737,0.0214 -0.422975,0.153961 -0.535156,0.261719 -0.112181,0.107758 -0.179477,0.195843 -0.230469,0.240234 l -0.01172,0.0078 -0.0078,0.0098 c -0.03303,0.03283 -0.0205,0.0241 -0.03906,0.04492 -0.03418,-0.01251 -0.08583,-0.03346 -0.09961,-0.03906 0.0052,-0.06141 0.0115,-0.118205 0.01172,-0.130859 0.138979,-0.05621 0.298388,-0.149113 0.347657,-0.357422 0.02972,-0.12567 -0.0639,-0.200845 -0.115235,-0.302735 l -0.0059,0.05664 c 0.0054,-0.02853 -0.01121,-0.06252 -0.0078,-0.0918 -0.04071,-0.06963 -0.02959,-0.173318 -0.08203,-0.216797 l 0.02734,0.02539 c -0.01192,-0.01193 -0.01294,-0.01645 0.0039,0.0059 0.01221,0.01617 0.03383,0.08357 0.04883,0.148438 0.0056,-0.07372 0.0047,-0.148497 -0.01953,-0.228516 0.782315,-0.01 1.531295,-0.05367 2.226563,-0.01758 z m -2.679688,0.257812 c -0.04142,0.01034 -0.04698,0.06274 -0.08594,0.08203 0.02311,-0.01825 0.05114,-0.0724 0.05664,-0.07422 z m 3.455078,0.21875 -0.04883,0.06055 h -0.02344 c 7.43e-4,-0.0043 -0.0025,-0.0074 -0.002,-0.01172 0.02686,-0.02315 0.05044,-0.01336 0.07422,-0.04883 z m -7.318359,0.292969 c 3.65e-4,0.02945 -0.03392,0.06341 -0.03125,0.08984 l -0.002,-0.03906 c 0,-0.08851 0.01922,-0.08885 -0.0039,-0.04297 z m 2.736328,0.03711 0.06641,0.201171 -0.0078,0.01953 c -0.0316,-0.06743 -0.01867,-0.167798 -0.05859,-0.220703 z m -1.714844,0.142578 c -1.65e-4,6.25e-4 1.68e-4,0.0013 0,0.002 l -0.0059,0.0039 c 4.3e-4,-0.0013 -4.2e-4,-0.0026 0,-0.0039 0.0012,-7.98e-4 0.0047,-0.0012 0.0059,-0.002 z m 1.238281,0.3125 c 0.0153,0.01739 0.04496,0.02261 0.0625,0.03906 -0.0096,-0.0081 -0.04665,-0.02321 -0.04687,-0.02344 z m 8.171875,0.02734 c -0.01406,0.05521 -0.0332,0.137643 -0.0332,0.138672 l 0.02734,-0.134765 c 0.002,-4.9e-4 0.0037,-0.0035 0.0059,-0.0039 z m -7.886718,0.160157 -0.0039,0.04492 c -0.0012,0.01084 -0.01249,0.01969 -0.01563,0.03125 -0.0024,-0.0042 -0.0012,-0.0075 -0.0039,-0.01172 0.0046,-0.02337 0.02344,-0.04192 0.02344,-0.06445 z m 7.59375,0 c -0.02054,0.0353 -0.01742,0.08417 -0.0293,0.128906 -0.03255,-0.02398 -0.03497,-0.0477 -0.08203,-0.06836 0.03525,-0.02323 0.07847,-0.03499 0.111328,-0.06055 z m -0.63086,0.0957 c -0.0015,7.27e-4 0.02836,0.0058 0.03516,0.0059 -0.01522,0.0071 -0.03902,-0.0019 -0.05273,0.0059 z m 1.8125,0.02148 0.0098,0.0039 0.01758,0.0059 c -0.0091,-0.003 0.007,0.0044 0,0.002 -0.0062,-1.9e-4 -0.0052,-0.0039 -0.01172,-0.0039 h -0.01953 c 0.0012,-0.0032 0.0027,-0.0044 0.0039,-0.0078 z m -11.152343,0.05469 c 0.0032,0.0053 0.04463,0.03308 0.04687,0.04297 -0.0018,-0.0015 -0.0081,-0.0025 -0.0098,-0.0039 -0.06794,-0.05854 -0.05245,-0.06454 -0.03711,-0.03906 z m 9.417968,0.134765 c 0.0016,-4.64e-4 -0.01328,0.01064 -0.0098,0.0098 l -0.01758,0.0039 c 0.01081,-0.0022 0.01666,-0.01128 0.02734,-0.01367 z m -9.197265,0.06836 c 0.006,0.0026 -5.66e-4,0.0032 0.0059,0.0059 0.0079,0.0032 0.01872,-0.0064 0.02734,-0.0039 -0.0139,0.02808 -0.02177,0.05461 -0.0332,0.08594 -0.0016,0.0012 -0.03458,0.02226 -0.06836,0.03906 l 0.03711,-0.01758 c -0.07129,0.02669 -0.149486,0.08463 -0.226563,0.132812 -0.01997,-0.0097 -0.03463,-0.04354 -0.05273,-0.04883 -0.0071,-0.0021 -0.01069,-1.92e-4 -0.01758,-0.002 0.104846,-0.05368 0.199678,-0.12308 0.328125,-0.191406 z m 0.919922,0.02148 c 0.0079,0.0015 0.02793,0.002 0.03906,0.0039 0.0056,0.05239 -0.01897,0.09236 0.0098,0.158203 0.03831,0.08781 0.128896,0.193333 0.240234,0.240235 0.111338,0.0469 0.213147,0.03814 0.28125,0.02344 0.0346,-0.0075 0.03679,-0.01984 0.0625,-0.0293 0.01026,0.04219 0.0063,0.0728 0.0332,0.121094 0.01185,0.02125 0.03913,0.02907 0.05469,0.04883 l -0.0078,0.0059 c -0.06354,0.04867 -0.117131,0.06165 -0.246094,0.06836 -0.112367,0.0058 -0.285795,0.0038 -0.476562,0.0332 -0.04722,0.0017 -0.04608,0.01104 -0.07422,0.01953 h -0.355469 c 0.0023,-0.0018 0.0036,-0.0021 0.0059,-0.0039 0.07763,-0.06061 0.220703,-0.156495 0.220703,-0.410156 0,-0.0034 -0.01236,0.01178 0.0332,-0.04297 0.03368,-0.04048 0.110814,-0.136587 0.179688,-0.236328 z m 1.230468,0.02148 0.01367,0.0059 c 0.0019,8.23e-4 0.0074,0.0066 0.0098,0.0078 -0.0082,-0.0033 -0.01514,-0.0105 -0.02344,-0.01367 z m 6.796875,0.357422 c 0.02106,0.009 0.04381,-0.0025 0.06641,0.0039 -0.02197,0.09627 -0.181398,0.109826 -0.144532,0.210937 -0.0021,-0.01107 -0.0039,-0.0026 -0.0039,-0.02344 3.2e-5,-0.05343 0.03679,-0.136455 0.08203,-0.191407 z m 1.779297,0.132813 c 0.0013,1.83e-4 0.0045,0.0018 0.0059,0.002 l 0.02734,0.0039 h 0.02539 c -0.0089,0.0019 -0.02055,0.01163 -0.02734,0.01172 -0.03997,5.52e-4 -0.03026,-0.0062 0.01367,0.01563 z m -11.300781,0.164062 c -0.01014,0.03732 -0.04456,0.06146 -0.04883,0.09961 l 0.0039,-0.03516 c 0.0032,-0.01586 0.02517,-0.04039 0.04492,-0.06445 z m 10.103516,0.201172 c 0.0059,0.0052 0.01341,0.0067 0.01953,0.01172 h -0.02539 c 0.0028,-0.0033 0.0031,-0.0083 0.0059,-0.01172 z m 0.384765,0.0078 c -0.0065,0.0029 -0.01788,0.01342 -0.02344,0.01563 -0.120007,0.04758 -0.109106,0.02148 -0.09766,0.02148 l -0.05469,-0.0039 c 0.05763,0.0082 0.114553,-0.02646 0.175781,-0.0332 z m -10.453125,0.04102 c 0.02735,2.37e-4 0.03337,0.01929 0.0625,0.01563 0.01338,-0.0017 0.0017,0.0073 -0.05664,-0.0098 -0.0016,-4.57e-4 -0.0042,-0.0053 -0.0059,-0.0059 z m 2.832031,0.191407 c 0.01586,0.0077 0.02956,-0.0076 0.04687,0.0039 l 0.01953,0.01172 c -0.02579,-0.01931 -0.04042,-0.0012 -0.06641,-0.01563 z m -3.802734,0.0059 -0.0332,0.0059 c -0.218443,0.03665 -0.42444,0.115163 -0.587891,0.332032 L 38,33.537109 l -0.01563,0.03125 c -0.0088,0.01747 -0.01895,0.03907 -0.02734,0.06641 -0.0084,0.02733 -0.01754,0.102511 -0.01758,0.103515 -4.2e-5,0.001 0.01926,0.139805 0.01953,0.140625 1.38e-4,4.22e-4 0.01942,0.03538 0.03906,0.07031 l 0.0098,-0.01563 c -0.0046,0.0069 -0.0035,0.01083 -0.0078,0.01758 0.0015,0.0026 4.98e-4,0.0033 0.002,0.0059 -0.0016,0.003 -0.0082,0.0068 -0.0098,0.0098 -0.0725,0.11784 -0.116441,0.224606 -0.144531,0.308594 l -0.173828,0.519531 h 0.548828 c -0.119531,0 -0.133896,-0.02181 -0.0625,-0.0039 0.06902,0.01731 0.289629,-0.01272 0.398438,-0.109375 0.08289,-0.07578 0.105386,-0.131874 0.138672,-0.195313 0.104595,0.0321 0.281849,0.055 0.414062,-0.07617 0.06548,-0.04359 0.167292,-0.110745 0.275391,-0.236328 0.04826,-0.05374 0.02806,-0.149318 0.03906,-0.244141 l 0.566406,-0.351562 h -0.654296 c -0.0052,-0.0034 -0.01492,-0.01836 -0.01953,-0.02148 -0.0668,-0.04529 -0.104569,-0.05324 -0.144531,-0.06641 -0.0029,-0.008 0.0014,-0.01555 -0.002,-0.02344 -0.04497,-0.104355 -0.124199,-0.17676 -0.191406,-0.216797 -0.134414,-0.08007 -0.227091,-0.07813 -0.304688,-0.07813 z m 0.259766,0.269531 0.0957,0.01172 c -0.0029,-7.31e-4 -0.01061,0.0027 -0.01367,0.002 -0.02852,-0.0031 -0.04813,-0.01367 -0.08203,-0.01367 z M 38.5,33.513672 l 0.0957,0.01758 c -0.01307,0.009 -0.02004,-0.0052 -0.0332,0.0059 -0.116624,0.09805 -0.0966,0.176937 -0.103516,0.257813 -0.0033,-0.0064 -0.0088,-0.0068 -0.01172,-0.01367 -0.02022,-0.04691 -0.01257,-0.0843 -0.01172,-0.125 l 0.04883,-0.09375 c -0.02276,0.0046 -0.01992,0.02661 -0.04102,0.0332 0.0071,-0.02171 0.03492,-0.04871 0.05664,-0.08203 z m 2.419922,0.130859 c 0.02806,0.01577 0.05982,0.02848 0.101562,0.0918 0.03354,0.05089 0.02759,0.109699 0.0332,0.169922 l -0.07227,-0.05273 c -0.02983,-0.05789 -0.07617,-0.117039 -0.07617,-0.152344 z m -2.410156,0.115235 c -0.01585,0.01581 -0.01186,0.045 -0.02539,0.06445 -6.06e-4,-8.49e-4 -0.0014,-0.0011 -0.002,-0.002 0.01384,-0.02623 0.001,-0.0363 0.02734,-0.0625 z m 13.458984,0.05664 c -0.0061,0.01217 0.0021,0.04501 -0.0039,0.06055 -0.01175,0.04121 -0.03906,0.08432 -0.03906,0.117188 z m -11.103516,0.07422 c 0.01442,0.01427 0.0096,6.9e-5 0.02344,0.01172 0.0071,0.0058 0.01056,0.02014 0.01758,0.02539 z m 7.847657,0.183594 -0.0078,0.02148 c 0.0015,-0.0039 0.0023,-0.01165 0.0039,-0.01563 6.75e-4,-0.0019 0.0033,-0.0039 0.0039,-0.0059 z m 0.757812,0.273437 c 0.0077,0.007 0.05252,0.04561 0.06641,0.06055 l -0.189453,0.05664 c 0.02712,-0.0438 0.05575,-0.0906 0.123047,-0.117188 z m -1.738281,0.04883 C 47.698723,34.4309 47.749976,34.3794 48,34.408203 l 0.02148,0.0039 h 0.06836 c -0.05184,0 0.0015,0.01538 0.140625,0.01563 -0.01581,0.03154 -0.04324,0.02003 -0.05664,0.05469 l 0.0078,-0.01758 c -0.03356,0.07512 -0.06186,0.109486 -0.07031,0.117187 -0.0085,0.0077 0.0034,0.0074 -0.03906,0.01172 l -0.02734,0.002 -0.0293,0.0078 c 0.02212,-0.0055 -0.02316,-0.01024 -0.148438,0.02539 -0.02036,0.0058 -0.05212,0.03733 -0.07813,0.04883 -0.01294,-0.0045 -0.02217,-0.01598 -0.03516,-0.01953 -0.0042,-0.01555 0.0047,0.01105 -0.002,-0.02148 l 0.0039,0.01758 c -0.03824,-0.247235 0.01026,-0.292228 -0.02344,-0.257813 z m -0.103516,0.191407 c 0.0053,0.002 0.0041,-6.71e-4 0.0098,0.002 0.0041,0.0019 0.0057,0.0056 0.0098,0.0078 -0.0068,-5.97e-4 -0.01287,-0.0094 -0.01953,-0.0098 z m 3.578125,0.189453 c 4.49e-4,0.0029 0.0034,0.0049 0.0039,0.0078 0.0036,0.01125 -0.0037,-0.0086 0,0.0098 z m -0.484375,0.30664 c 0.0088,0.01209 0.0082,0.01909 0.01758,0.03125 l -0.01367,-0.01953 c -0.02831,-0.04198 -0.0076,0.01586 0.06836,0.125 0.02044,0.02939 0.07986,0.06247 0.121094,0.09766 -0.05828,0.02292 -0.09404,0.09031 -0.148438,0.138672 -0.02614,-0.01924 -0.05523,-0.03946 -0.09766,-0.05859 -0.01112,-0.01421 -0.01948,-0.02603 -0.04492,-0.04883 -0.01882,-0.01686 -0.04435,-0.03681 -0.08594,-0.05859 -0.01328,-0.007 -0.03048,-0.01273 -0.04883,-0.01953 0.08263,-0.0516 0.184321,-0.0918 0.214844,-0.152343 l 0.0078,-0.01367 0.0059,-0.01563 c -3.6e-5,8.7e-5 0.0039,-0.0059 0.0039,-0.0059 z m -0.492187,0.05664 c 0.0011,3e-6 0.0028,8e-6 0.0039,0 l -0.0039,0.01172 -0.002,0.002 c 6.64e-4,-0.0021 -0.0026,-0.0038 -0.002,-0.0059 0.0013,-0.0053 0.0019,6.66e-4 0.0039,-0.0078 z m 1.236328,0.09375 c 0.02876,0.03086 0.02661,0.08202 0.06055,0.107422 -0.03549,-0.01779 -0.04984,-0.0073 -0.08984,-0.02734 0.02575,-0.01822 0.0072,-0.05813 0.0293,-0.08008 z m -1.910156,0.103516 c 0.02676,0.153237 -0.01358,0.330088 0.09375,0.433593 0.139978,0.134992 0.292016,0.143482 0.441406,0.175782 0.0055,0.0081 0.0058,0.01084 0.01367,0.02148 0.01308,0.01767 0.02835,0.0405 0.06641,0.07422 0.01903,0.01686 0.04437,0.03711 0.08594,0.05859 0.02078,0.01074 0.07541,0.02909 0.07617,0.0293 2.03e-4,5.7e-5 0.0179,0.0023 0.0293,0.0039 0.02265,0.02182 0.04086,0.0431 0.103516,0.08984 0.04367,0.03259 0.100208,0.07258 0.193359,0.09961 0.09315,0.02703 0.234552,0.02705 0.347656,-0.02734 0.12684,-0.061 0.138928,-0.164214 0.1875,-0.253906 0.264254,0.135092 0.601846,0.286648 1.029297,0.228515 -0.0043,0.0073 -0.0021,0.01402 -0.0059,0.02148 -0.0029,-0.0014 -0.03037,-3.41e-4 -0.0293,0 0.0014,4.37e-4 0.02159,0.0076 0.02734,0.0098 -0.04169,0.08723 -0.07729,0.184146 -0.07031,0.248047 0.01824,0.167034 0.07052,0.211342 0.07031,0.210938 0.261323,0.520159 0.485347,1.073958 0.71289,1.617187 0.10805,0.261826 0.2539,0.329173 0.339844,0.398438 2.38e-4,0.0944 -0.0035,0.194859 0.02539,0.259765 0.0782,0.178168 0.301056,0.331609 0.46289,0.347657 0.01621,0.0016 0.01447,-0.0026 0.0293,-0.002 -0.06567,0.204636 -0.08996,0.431412 -0.246093,0.607422 v 0.002 l -0.002,0.002 c -0.157015,0.180865 -0.288375,0.404355 -0.419921,0.625 0.0046,-0.02978 0.01967,-0.0428 0.01758,-0.08008 -0.0066,-0.117241 -0.08464,-0.253383 -0.15625,-0.3125 -0.143217,-0.118233 -0.19277,-0.103997 -0.144532,-0.08008 l -0.08398,0.357422 c 0.05337,0.04969 0.100391,0.114329 0.111328,0.154297 0.02605,0.0952 0.01172,0.07838 0.01172,0 l -0.01367,0.0957 c 0.0018,-0.0073 -7.01e-4,0.02434 -0.04687,0.07031 -0.04617,0.04597 -0.131976,0.07031 -0.154297,0.07031 v -0.443359 -0.345703 c -0.135451,0 -0.299588,0.05784 -0.402344,0.160156 -0.102755,0.102316 -0.141271,0.212415 -0.162109,0.294922 l -0.01172,0.04883 v 0.04883 c 0,-0.01059 -0.0254,0.05194 0.01758,0.208984 0.02149,0.07852 0.08421,0.189619 0.183594,0.257813 0.09939,0.06819 0.20469,0.08594 0.285156,0.08594 0.106881,0 0.233865,-0.04514 0.316407,-0.113281 0.02595,-0.02142 0.02675,-0.03909 0.04492,-0.06055 -0.106551,0.323024 -0.172912,0.680642 -0.06445,1.076172 l 0.002,0.002 v 0.0039 c 0.04175,0.141283 0.04667,0.263042 0.02148,0.353515 -0.02518,0.09047 -0.06993,0.168711 -0.214844,0.259766 l -0.0039,0.002 -0.0039,0.002 c -0.138193,0.09169 -0.278671,0.215762 -0.376953,0.396484 -0.09828,0.180723 -0.137944,0.420455 -0.08398,0.652344 l 0.002,0.0059 c -0.101267,0.06841 -0.213433,0.144184 -0.25,0.21289 -0.05152,0.09681 -0.06251,0.134182 -0.06641,0.140625 l -0.0059,0.0098 -0.0059,0.0098 c -0.122176,0.231967 -0.240738,0.439433 -0.371093,0.583985 -0.129946,0.144098 -0.257118,0.232081 -0.460938,0.271484 -6.42e-4,1.24e-4 -0.0013,-1.23e-4 -0.002,0 -0.07108,0.01229 -0.103325,0.01599 -0.150391,0.02344 -0.0074,-0.03444 -0.01065,-0.04127 -0.01953,-0.08984 -0.04304,-0.235337 -0.15897,-0.378227 -0.212891,-0.466797 -0.05392,-0.08857 -0.05702,-0.09911 -0.05469,-0.128906 l -0.002,0.0293 c 0.05993,-0.387829 -0.03717,-0.769665 -0.238281,-1.083985 h -0.002 c -0.07582,-0.118397 -0.05834,-0.200412 0.0059,-0.455078 l 0.002,-0.0059 v -0.0039 c -0.0039,0.01737 0.0196,-0.03199 0.08984,-0.136719 0.06979,-0.104058 0.19174,-0.319997 0.136718,-0.574219 -0.08408,-0.420573 -0.139547,-0.971148 -0.566406,-1.433594 7.31e-4,2.15e-4 -0.0023,-0.01248 0.0059,-0.06836 v -0.0039 l 0.002,-0.0039 c 4.44e-4,-0.0035 0.03952,-0.126983 0.07227,-0.277343 0.01637,-0.07518 0.0368,-0.164811 0.01367,-0.294922 -0.02313,-0.130111 -0.144853,-0.314141 -0.300781,-0.38086 l -0.002,-0.002 h -0.002 c -0.0755,-0.03131 -0.201349,-0.114863 -0.353516,-0.205078 -0.151163,-0.08962 -0.345381,-0.205084 -0.621094,-0.18164 -0.474866,0.02803 -0.882406,0.162197 -1.253906,0.201171 h -0.0039 -0.0039 c -0.128155,0.01585 -0.09806,0.02119 -0.207032,-0.04102 -0.106957,-0.06327 -0.194038,-0.168616 -0.30664,-0.333985 -0.113288,-0.166375 -0.243803,-0.387839 -0.480469,-0.576171 l 0.01367,0.01172 c -0.06926,-0.06117 -0.05861,-0.09661 -0.02148,-0.207031 l 0.002,-0.0059 0.002,-0.0059 c 0.06599,-0.21816 0.183288,-0.517726 0.06445,-0.871093 l 0.002,0.0059 c -0.04346,-0.135888 -0.02554,-0.157282 0.04687,-0.277344 0.07242,-0.120062 0.229678,-0.28315 0.345703,-0.546875 l -0.01758,0.0332 c -0.0035,0.0063 -0.0069,0.003 0.07227,-0.03906 0.07921,-0.04204 0.271498,-0.115929 0.375,-0.355469 l 0.0078,-0.01953 0.0078,-0.01953 c 0.07034,-0.223924 0.252848,-0.434978 0.449218,-0.669922 0.10427,0.01136 0.177282,0.002 0.167969,0.002 -0.05399,0 -0.02218,0.0024 0.05078,0.01367 0.07297,0.01126 0.269837,0.03208 0.431641,-0.128907 l -0.03711,0.0332 c 0.116863,-0.09039 0.238857,-0.115911 0.435546,-0.123047 0.149981,-0.0054 0.35719,-0.0053 0.564454,-0.01758 z m -1.978516,0.0098 c 0.01827,-6.85e-4 0.03915,0.0097 0.05664,0.0078 l -0.04297,0.002 c -9.9e-4,0 -0.01178,-0.0096 -0.01367,-0.0098 z m 2.865234,0.0078 c -7.15e-4,0 0.104274,0.01584 0.103516,0.01563 -3.52e-4,-9.9e-5 0.01896,0.0084 0.0332,0.01367 -0.08599,-0.02023 -0.190258,-0.04025 -0.292969,0.0039 z m -2.236328,0.01367 -0.05469,0.0098 c 0.0015,-1.5e-4 0.0024,-0.0018 0.0039,-0.002 0.0241,-0.0039 0.0043,0.0037 0.05078,-0.0078 z m 2.404297,0.234375 c -0.0059,0.01589 -0.02699,0.01227 -0.03125,0.0293 l 0.0059,-0.01953 c -0.0086,0.02795 0.02916,-0.01377 0.02539,-0.0098 z m -0.472656,0.363281 c 0.04985,0.0091 0.100471,0.05252 0.148437,0.05859 -0.01979,-0.0028 -0.04131,-0.0059 -0.04102,-0.0059 7.46e-4,2.13e-4 -0.05305,-0.01923 -0.07227,-0.0293 -0.01753,-0.0092 -0.02365,-0.0153 -0.03516,-0.02344 z m 0.919922,0.04687 c 0.01566,0.0078 0.05004,0.0073 0.06641,0.01563 -0.01185,-1.36e-4 -0.0281,0.0017 -0.03711,-0.002 z m -13.462891,0.439453 c 0.002,5.37e-4 0.0149,0.0031 0.01758,0.0039 0.0039,0.02566 -0.0063,0.0081 0.002,0.04102 0.0049,0.04298 0.0059,0.11514 0.04297,0.236328 0.0045,0.0148 0.02708,0.0379 0.0332,0.05469 -0.101205,0.02856 -0.204654,0.03776 -0.333984,0.166016 l -0.002,0.002 c -7.34e-4,7.3e-4 7.26e-4,0.0012 0,0.002 -0.146767,-0.04297 -0.283024,-0.05258 -0.423828,0 -0.08054,0.03007 -0.121052,0.153475 -0.19336,0.232422 0.01628,-0.121866 0.03153,-0.250591 0.05859,-0.330078 0.03842,-0.112832 0.07367,-0.16839 0.179687,-0.230469 l 0.01758,-0.01172 0.01367,-0.0098 c 0.07612,0.0148 0.180511,0.03181 0.306641,0.0039 0.105918,-0.02343 0.196846,-0.09115 0.28125,-0.160156 z M 53.75,36.484375 c 0.02043,0.07453 0.09522,0.07463 0.128906,0.136719 -0.02408,-0.01511 -0.06507,-0.02803 -0.07617,-0.03906 -0.04736,-0.04706 -0.03518,-0.04663 -0.02344,-0.02344 z m -16.214844,0.466797 c 0.0045,-0.0015 0.02328,0.0073 0.0293,0.0059 -0.01539,0.005 -0.02969,-0.0057 -0.04492,0 z m 15.904297,0.07813 -0.222656,0.04687 c -2.42e-4,-5.51e-4 2.42e-4,-0.0014 0,-0.002 z m -18.484375,0.09375 c 0,0.0876 0.02022,0.103255 0.03516,0.136719 0.0084,0.02116 -0.0043,0.0192 0.0078,0.04297 z m 1.597656,0.292969 c -0.0011,0.0059 -0.0089,0.0057 -0.0098,0.01172 l 0.002,-0.0098 c -0.0025,0.01486 0.0086,-0.0071 0.0078,-0.002 z m -0.992187,0.892578 c 0.134174,0.10767 0.272603,0.201321 0.445312,0.220703 0.103232,0.01217 0.193993,0.05598 0.328125,0.140625 0.134132,0.08465 0.303111,0.212802 0.544922,0.292969 l 0.0078,0.002 0.0078,0.002 -0.01172,-0.04883 c 0.03719,0.238257 0.173766,0.436427 0.308594,0.552734 0.134829,0.116307 0.258109,0.174476 0.326172,0.216797 l 0.01563,0.0098 0.01758,0.0078 c -0.02414,-0.01207 0.0052,0.02871 0.148438,0.06445 0.01948,0.0049 0.0532,-0.0078 0.07813,-0.0059 -0.01768,0.06906 -0.07026,0.168696 -0.152344,0.291015 -0.06207,0.08041 -0.154463,0.183923 -0.220703,0.361329 -0.04136,0.110763 0.02116,0.260574 0.04687,0.404296 3.4e-5,-2.12e-4 0.0019,2.12e-4 0.002,0 -3.79e-4,6.82e-4 -0.0016,0.0013 -0.002,0.002 0.01348,0.07433 -0.0092,0.14039 0.02539,0.208984 -0.0101,-0.03202 -0.04342,-0.07492 -0.04492,-0.0957 -0.04707,0.130882 -0.101545,0.268291 -0.07422,0.390625 0.03783,0.169363 0.1172,0.280993 0.183594,0.373047 0.14705,0.209338 0.268605,0.410869 0.36914,0.630859 l 0.0039,0.0078 0.002,0.0059 c 0.154998,0.30844 0.358533,0.734687 0.851562,0.949219 l 0.0059,0.0039 0.0059,0.002 c 0.0878,0.03495 0.123695,0.07302 0.136719,0.228516 l 0.002,0.002 c 0.06947,0.780624 0.183577,1.554742 0.296875,2.298828 0.09565,0.626357 0.502071,0.974449 0.611328,1.253906 0.0118,0.03091 0.03544,0.04872 0.04883,0.07813 -1.708036,-1.102719 -3.146784,-2.657362 -3.882813,-4.720703 -0.483532,-1.357206 -0.57106,-2.737334 -0.43164,-4.130859 z m 1.333984,0.658203 c -0.0178,-0.0051 -0.01722,-0.0091 -0.0078,0.002 0.0094,0.0111 0.02148,0.04285 0.01172,0.01367 z m 16.400391,-0.394531 0.03516,0.0078 c -0.0139,0.02074 -0.03466,0.02343 -0.04492,0.04687 -0.0052,-0.02324 -0.0078,-0.03793 -0.0098,-0.04687 z m -16.166016,0.222656 c -3.03e-4,0.003 0.0042,0.0048 0.0039,0.0078 -4.85e-4,0.01295 -0.0059,0.01776 -0.0059,0.03125 z m 1.175781,0.01172 c 0.07935,0.01452 0.121811,0.05352 0.13086,0.0625 -0.03505,-0.03488 -0.09124,-0.0352 -0.136719,-0.06055 0.0022,3.4e-4 0.0037,-0.0024 0.0059,-0.002 z m 16.44336,0.24414 -0.0039,0.01953 c 2.61e-4,-0.0013 -0.0022,-0.0046 -0.002,-0.0059 6.87e-4,-0.0045 0.0052,-0.0092 0.0059,-0.01367 z m -15.820313,0.05078 c 0.04342,-0.01137 0.107398,-0.01344 0.244141,0.05859 l -0.01172,-0.0059 c 0.189389,0.107746 0.50591,0.206329 0.841797,0.121094 0.06814,0.117171 0.135748,0.245076 0.261719,0.376953 0.154081,0.161305 0.391674,0.306368 0.675781,0.339843 l -0.0098,-0.002 c 0.231165,0.03283 0.242073,0.03131 0.316407,0.238282 0.0025,0.01085 0.01504,0.09336 0.04883,0.210937 0.03487,0.121368 0.125819,0.347889 0.376953,0.433594 0.0012,4.11e-4 7.41e-4,0.0015 0.002,0.002 0.299337,0.129076 0.682213,0.461948 1.283203,0.492187 h -0.0078 c 0.144479,0.01028 0.288108,0.129319 0.457031,0.31836 3.47e-4,3.88e-4 -0.0027,-0.0384 -0.01172,0.002 -0.009,0.04035 -0.05192,0.130222 -0.115234,0.208984 l -0.0039,0.0039 -0.0039,0.0039 c -0.044,0.05836 -0.131404,0.146346 -0.224609,0.279297 -0.0932,0.132951 -0.191969,0.343518 -0.169922,0.582031 0.02035,0.224828 0.01749,0.392256 -0.0293,0.546875 -0.05244,0.169769 -0.08624,0.286277 -0.103515,0.314453 -0.01747,0.02849 0.0241,0.02369 -0.103516,0.03711 h -0.002 c -0.120818,0.01337 -0.303227,0.02963 -0.501953,0.150391 -0.198727,0.120765 -0.376634,0.449451 -0.316407,0.748047 v 0.0039 0.0039 c 0.01743,0.07795 0.01327,0.07742 -0.05273,0.15625 l 0.02539,-0.02734 c -0.165839,0.164861 -0.236155,0.349745 -0.294922,0.519531 -0.04416,-0.0078 -0.07638,-0.02273 -0.152344,-0.0098 -0.06333,0.01081 -0.157429,0.04077 -0.238281,0.125 -0.08085,0.08423 -0.117045,0.20891 -0.117188,0.289063 -2.15e-4,0.120525 0.02991,0.147125 0.05273,0.183594 -0.108502,0.0421 -0.232749,0.07656 -0.28125,0.142578 -0.01447,0.01969 -0.009,0.02182 -0.01953,0.03906 l -0.310546,-0.08594 v 0.517578 c 0,0.142833 0.02984,0.17855 0.07031,0.246094 0.0021,0.0035 0.0075,0.0081 0.0098,0.01172 -9.7e-4,0.0018 -0.0027,0.01319 -0.0039,0.01563 -0.203537,-0.440746 -0.47434,-0.737308 -0.511718,-0.984375 -0.112924,-0.741626 -0.226216,-1.499865 -0.292969,-2.25 -0.03315,-0.383662 -0.266876,-0.749626 -0.630859,-0.894531 l 0.01172,0.0059 c -0.231102,-0.100559 -0.299176,-0.260134 -0.460937,-0.582031 l 0.0059,0.01367 c -0.125219,-0.274005 -0.274798,-0.522159 -0.443359,-0.761719 l -0.002,-0.002 c -0.04267,-0.05916 -0.04961,-0.08291 -0.04883,-0.07617 0.01954,-0.03857 0.05924,-0.08148 0.07031,-0.125 0.01064,-0.04179 0.02065,-0.08884 0.01563,-0.158203 -0.005,-0.06936 -0.02693,-0.177831 -0.125,-0.27539 l 0.05469,0.06641 c -0.02357,-0.03684 -0.0099,0.03219 -0.0059,0.02148 0.004,-0.0107 0.04882,-0.07927 0.123047,-0.177734 l 0.0078,-0.0098 0.0059,-0.0078 c 0.0992,-0.147826 0.20591,-0.319149 0.261719,-0.53711 0.03367,-0.131482 -0.0209,-0.287821 -0.04492,-0.439453 9e-4,-5.4e-4 0.003,5.43e-4 0.0039,0 0.159805,-0.09788 0.191941,-0.193333 0.208984,-0.21875 0.101877,-0.152028 0.173379,-0.187852 0.216797,-0.199219 z m 15.490235,0.105469 -0.02344,0.01563 c 0.0059,-0.0034 -0.02158,0.0042 -0.03125,0.0078 0.01881,-0.01052 0.03616,-0.01111 0.05469,-0.02344 z m 0.111328,0.365235 c -0.01653,0.633511 -0.09515,1.249263 -0.232422,1.847656 l -0.466797,0.466797 c -0.04171,0.04174 -0.111094,0.09925 -0.177734,0.222656 -0.01089,0.01847 -0.01052,0.02261 -0.01758,0.03711 -0.01218,-0.0818 0.01479,-0.173521 -0.0078,-0.25 l 0.002,0.0078 c -0.07986,-0.291251 -0.04976,-0.497698 0.04102,-0.714844 0.09047,-0.216429 0.257534,-0.439038 0.46289,-0.675781 l 0.002,-0.002 c 0.261073,-0.295077 0.302079,-0.619807 0.394531,-0.939453 z m -2.128906,0.820312 c -0.03146,0.04695 -0.01622,0.03383 -0.0293,0.0625 0.0014,-0.0028 0.003,-0.01779 0.0039,-0.01953 z m 0.169921,0.02734 c 0.0023,0 0.0125,0.0057 0.01563,0.0059 l -0.101562,0.427735 c 0.09344,0.04633 0.101329,0.07252 -0.0078,-0.01758 -0.05457,-0.04505 -0.123795,-0.162708 -0.128906,-0.253906 -0.0022,-0.03892 0.0067,-0.03975 0.01172,-0.0625 0.01,-0.01239 0.0071,-0.01612 0.02539,-0.03125 0.0493,-0.0407 0.135241,-0.06836 0.185546,-0.06836 z m -14.441406,0.753906 c -0.0031,0.01847 -0.0087,0.04503 0,0.03125 l -0.05859,0.07227 c 0.04553,-0.04465 0.04046,-0.07097 0.05859,-0.103516 z m 15.726563,0.914063 0.347656,0.06836 c -0.0096,0.03051 -0.03309,0.0536 -0.04297,0.08398 z m -1.544922,1.615234 c -0.03042,0.01009 -0.03803,0.04076 -0.06641,0.05664 0.0085,-0.006 -0.01035,-0.02316 0.01367,-0.03516 z m 1.011719,0.568359 c 0.0053,0.0016 0.0064,0.0104 0.01172,0.01172 l -0.0293,-0.0098 c 0.0062,0.0021 0.0113,-0.0038 0.01758,-0.002 z m -10.730469,0.126953 0.002,0.0078 c -0.0013,-0.0064 -0.005,0.01252 -0.0078,0.01367 -0.0016,-0.0084 0.0077,-0.01303 0.0059,-0.02148 z m -1.103516,1.583985 c -0.0024,4.7e-4 -0.0075,0.0055 -0.0098,0.0059 -0.08979,0.01532 -0.08946,-0.0013 -0.06836,0.0039 0.02311,0.0057 0.05325,-0.01364 0.07813,-0.0098 z m -0.398437,0.191406 c 0.0045,0.0036 0.01966,0.0045 0.02344,0.0078 0.0027,0.0023 0.0014,0.0036 0.0039,0.0059 -0.0098,-0.0053 -0.01792,-0.0095 -0.02734,-0.01367 z m -0.375,0.650391 c 0.04834,0.02469 0.07906,0.05859 0.15625,0.05859 l -0.06445,-0.0059 c -0.0026,-4.23e-4 -0.05467,-0.03376 -0.0918,-0.05273 z"
     id="path2-2-3-7-3" />
</svg>
