<?xml version="1.0" encoding="UTF-8" standalone="no"?>
<svg
   width="64"
   height="64"
   viewBox="0 0 64.000002 64.000002"
   fill="none"
   version="1.1"
   id="svg849"
   sodipodi:docname="folder-desktop.svg"
   inkscape:version="1.1.2 (0a00cf5339, 2022-02-04)"
   xmlns:inkscape="http://www.inkscape.org/namespaces/inkscape"
   xmlns:sodipodi="http://sodipodi.sourceforge.net/DTD/sodipodi-0.dtd"
   xmlns:xlink="http://www.w3.org/1999/xlink"
   xmlns="http://www.w3.org/2000/svg"
   xmlns:svg="http://www.w3.org/2000/svg"
   xmlns:rdf="http://www.w3.org/1999/02/22-rdf-syntax-ns#"
   xmlns:cc="http://creativecommons.org/ns#"
   xmlns:dc="http://purl.org/dc/elements/1.1/">
  <style
     id="style3458" />
  <metadata
     id="metadata2633">
    <rdf:RDF>
      <cc:Work
         rdf:about="">
        <dc:format>image/svg+xml</dc:format>
        <dc:type
           rdf:resource="http://purl.org/dc/dcmitype/StillImage" />
        <dc:title />
      </cc:Work>
    </rdf:RDF>
  </metadata>
  <sodipodi:namedview
     id="namedview849"
     pagecolor="#888888"
     bordercolor="#000000"
     borderopacity="0.25"
     inkscape:showpageshadow="2"
     inkscape:pageopacity="0"
     inkscape:pagecheckerboard="0"
     inkscape:deskcolor="#767676"
     inkscape:zoom="4.9684851"
     inkscape:cx="32.10234"
     inkscape:cy="31.297266"
     inkscape:window-width="1056"
     inkscape:window-height="545"
     inkscape:window-x="336"
     inkscape:window-y="251"
     inkscape:window-maximized="0"
     inkscape:current-layer="svg849"
     showgrid="true"
     showguides="false"
     inkscape:document-rotation="0"
     inkscape:pageshadow="2"
     inkscape:snap-grids="false"
     inkscape:object-nodes="false"
     inkscape:snap-intersection-paths="true">
    <inkscape:grid
       id="grid1"
       units="px"
       originx="0"
       originy="0"
       spacingx="1"
       spacingy="1"
       empcolor="#0099e5"
       empopacity="0.30196078"
       color="#0099e5"
       opacity="0.14901961"
       empspacing="5"
       dotted="false"
       gridanglex="30"
       gridanglez="30"
       visible="true" />
  </sodipodi:namedview>
  <defs
     id="defs849">
    <radialGradient
       inkscape:collect="always"
       xlink:href="#linearGradient3447-3"
       id="radialGradient3453-3"
       cx="330.09338"
       cy="648.19318"
       fx="330.09338"
       fy="648.19318"
       r="68.479294"
       gradientTransform="matrix(0.35047118,0.4818975,-0.40309779,0.29316225,151.59691,-332.09694)"
       gradientUnits="userSpaceOnUse" />
    <linearGradient
       inkscape:collect="always"
       id="linearGradient3447-3">
      <stop
         style="stop-color:#1821ff;stop-opacity:1"
         offset="0"
         id="stop3443-6" />
      <stop
         style="stop-color:#6500f2;stop-opacity:1"
         offset="1"
         id="stop3445-7" />
    </linearGradient>
    <linearGradient
       inkscape:collect="always"
       xlink:href="#linearGradient3447-3"
       id="linearGradient3501"
       x1="14.815558"
       y1="48.903118"
       x2="-9.6050787"
       y2="74.641266"
       gradientUnits="userSpaceOnUse"
       gradientTransform="translate(-6.1849238e-5,-5.8512902e-5)" />
    <linearGradient
       inkscape:collect="always"
       id="linearGradient3460-7">
      <stop
         style="stop-color:#ca6bff;stop-opacity:1"
         offset="0"
         id="stop3456-5" />
      <stop
         style="stop-color:#9c52ff;stop-opacity:0.44313726"
         offset="0.42240939"
         id="stop3648" />
      <stop
         style="stop-color:#425cff;stop-opacity:0.07843138"
         offset="1"
         id="stop3458-3" />
    </linearGradient>
    <linearGradient
       inkscape:collect="always"
       xlink:href="#linearGradient3447-3"
       id="linearGradient3468"
       x1="401.82742"
       y1="520.79803"
       x2="431.36322"
       y2="520.79803"
       gradientUnits="userSpaceOnUse" />
    <radialGradient
       inkscape:collect="always"
       xlink:href="#linearGradient3460-7"
       id="radialGradient3462-3"
       cx="365.91464"
       cy="652.53467"
       fx="365.91464"
       fy="652.53467"
       r="68.488464"
       gradientTransform="matrix(0.21773607,0.44762471,-0.41069158,0.19977087,203.31767,-269.14985)"
       gradientUnits="userSpaceOnUse" />
  </defs>
  <path
     fill-rule="evenodd"
     clip-rule="evenodd"
     d="M 0.02158279,15.790491 C -0.3054796,11.586415 3.1258721,8 7.476269,8 h 5.021342 9.833832 c 2.072173,0 4.051368,0.8336604 5.465212,2.301736 l 8.649398,8.981434 c 1.413844,1.468075 3.393039,2.301736 5.465213,2.301736 h 9.833831 4.778382 c 4.438704,0 7.899491,3.725887 7.434595,8.003773 L 61.794323,49.513208 C 61.393905,53.200604 58.185423,56 54.359728,56 H 10.08576 C 6.175028,56 2.9254295,53.079245 2.6310734,49.299925 Z"
     id="path475-3"
     style="fill:url(#radialGradient3462-3);fill-opacity:1.0;stroke-width:0.459975" />
  <rect
     x="-8.483449"
     y="45.766613"
     width="26.980455"
     height="26.941265"
     rx="6.0943475"
     shape-rendering="crispEdges"
     id="rect5-5"
     ry="6.7048149"
     style="fill:#2622ff;fill-opacity:0.09630702;stroke:url(#linearGradient3501);stroke-width:1.00018;stroke-miterlimit:4;stroke-dasharray:none;stroke-opacity:0.634323"
     transform="matrix(0.73510941,-0.67794849,0.69747994,0.71660431,0,0)" />
  <g
     id="g843-0-3"
     transform="matrix(0.62635894,0,0,0.6249989,-215.87629,-286.30519)"
     style="mix-blend-mode:normal;fill:url(#linearGradient3468);fill-opacity:1.0;stroke-width:3.69072">
    <path
       fill-rule="evenodd"
       clip-rule="evenodd"
       d="m 427.67127,524.48888 c 0,0.50973 -0.41327,0.923 -0.923,0.923 -0.50972,0 -0.92299,-0.41327 -0.92299,-0.923 0,-0.50972 0.41327,-0.92299 0.92299,-0.92299 0.50973,0 0.923,0.41327 0.923,0.92299 z m 0,8.30694 h -4.61497 c -0.50972,0 -0.92299,-0.41327 -0.92299,-0.92299 0,-0.50972 0.41327,-0.923 0.92299,-0.923 h 4.61497 c 1.01944,0 1.84598,-0.82654 1.84598,-1.84598 v -16.61388 c 0,-1.01944 -0.82654,-1.84598 -1.84598,-1.84598 h -22.15184 c -1.01944,0 -1.84598,0.82654 -1.84598,1.84598 v 7.84544 0.5088 1.79869 c 0,0.50972 0.41327,0.92299 0.92299,0.92299 h 1.79862 0.50886 16.15238 c 0.50972,0 0.923,0.41327 0.923,0.92299 0,0.50973 -0.41328,0.923 -0.923,0.923 h -18.92136 c -1.1159,0 -2.04633,-0.79274 -2.26041,-1.84599 h -0.0471 v -11.07592 c 0,-2.03889 1.65308,-3.69197 3.69197,-3.69197 h 22.15184 c 2.03889,0 3.69197,1.65308 3.69197,3.69197 v 16.61388 c 0,2.03889 -1.65308,3.69197 -3.69197,3.69197 z m -12.92191,-4.61497 c 0,-0.50972 0.41327,-0.92299 0.923,-0.92299 0.50972,0 0.92299,0.41327 0.92299,0.92299 0,0.50973 -0.41327,0.923 -0.92299,0.923 -0.50973,0 -0.923,-0.41327 -0.923,-0.923 z m -11.99891,-0.92299 c 0.50973,0 0.923,0.41327 0.923,0.92299 v 0.923 c 0,1.01944 0.82654,1.84598 1.84598,1.84598 h 12.92191 c 1.01944,0 1.84598,1.84599 1.84598,1.84599 v 0 0 0 0 0 0 0 0 0 0 0 0 0 0 0 0 0 0 c 0,0 0.003,0.005 0,0 v 0 0 h -2.49496 c 0,0 0.34791,0 0,0 h -1.19701 -11.07592 c -2.03889,0 -3.69197,-1.65308 -3.69197,-3.69197 v -0.923 c 0,-0.50972 0.41327,-0.92299 0.92299,-0.92299 z"
       id="path2-4-6"
       sodipodi:nodetypes="sssssssssssssssccssccssssccsssssssssssssssssccccccccccccccccccccccscssss"
       style="fill:url(#linearGradient3468);fill-opacity:1.0;stroke-width:0.212908" />
  </g>
  <path
     d="M 0.25464052,15.773284 C -0.06260945,11.70053 3.2617505,8.226416 7.4761805,8.226416 h 5.0213405 9.83384 c 2.00722,0 3.92474,0.807396 5.29467,2.229736 l 8.64893,8.981434 c 1.45823,1.514264 3.4991,2.373736 5.63622,2.373736 h 9.83383 4.77838 c 4.29994,0 7.6528,3.609509 7.20238,7.753811 l -2.16375,19.924527 c -0.38827,3.57193 -3.49629,6.28393 -7.20238,6.28393 h -44.27397 c -3.7883105,0 -6.9365205,-2.82974 -7.2215305,-6.49087 z"
     id="path476-6-6"
     style="stroke:url(#radialGradient3453-3);stroke-width:1;stroke-miterlimit:4;stroke-dasharray:none;stroke-opacity:0.8" />
  <rect
     x="7.1289964"
     y="13.700633"
     width="17.399538"
     height="4.1239581"
     rx="2.2763124"
     id="rect476-7"
     style="fill:#6f20df;fill-opacity:1;stroke-width:0.42673"
     ry="2.2763121" />
</svg>
