<?xml version="1.0" encoding="UTF-8" standalone="no"?>
<svg
   width="64"
   height="64"
   viewBox="0 0 64.000002 64.000002"
   fill="none"
   version="1.1"
   id="svg849"
   sodipodi:docname="user-home.svg"
   inkscape:version="1.1.2 (0a00cf5339, 2022-02-04)"
   xmlns:inkscape="http://www.inkscape.org/namespaces/inkscape"
   xmlns:sodipodi="http://sodipodi.sourceforge.net/DTD/sodipodi-0.dtd"
   xmlns:xlink="http://www.w3.org/1999/xlink"
   xmlns="http://www.w3.org/2000/svg"
   xmlns:svg="http://www.w3.org/2000/svg"
   xmlns:rdf="http://www.w3.org/1999/02/22-rdf-syntax-ns#"
   xmlns:cc="http://creativecommons.org/ns#"
   xmlns:dc="http://purl.org/dc/elements/1.1/">
  <metadata
     id="metadata2611">
    <rdf:RDF>
      <cc:Work
         rdf:about="">
        <dc:format>image/svg+xml</dc:format>
        <dc:type
           rdf:resource="http://purl.org/dc/dcmitype/StillImage" />
        <dc:title />
      </cc:Work>
    </rdf:RDF>
  </metadata>
  <sodipodi:namedview
     id="namedview849"
     pagecolor="#828282"
     bordercolor="#000000"
     borderopacity="0.25"
     inkscape:showpageshadow="2"
     inkscape:pageopacity="0"
     inkscape:pagecheckerboard="0"
     inkscape:deskcolor="#767676"
     inkscape:zoom="7.0264988"
     inkscape:cx="31.80816"
     inkscape:cy="33.58714"
     inkscape:window-width="1600"
     inkscape:window-height="836"
     inkscape:window-x="0"
     inkscape:window-y="0"
     inkscape:window-maximized="1"
     inkscape:current-layer="svg849"
     showgrid="true"
     showguides="false"
     inkscape:document-rotation="0"
     inkscape:pageshadow="2">
    <inkscape:grid
       id="grid1"
       units="px"
       originx="0"
       originy="0"
       spacingx="1"
       spacingy="1"
       empcolor="#0099e5"
       empopacity="0.30196078"
       color="#0099e5"
       opacity="0.14901961"
       empspacing="5"
       dotted="false"
       gridanglex="30"
       gridanglez="30"
       visible="true" />
  </sodipodi:namedview>
  <defs
     id="defs849">
    <radialGradient
       inkscape:collect="always"
       xlink:href="#linearGradient3447-3"
       id="radialGradient3453"
       cx="330.09338"
       cy="648.19318"
       fx="330.09338"
       fy="648.19318"
       r="68.479294"
       gradientTransform="matrix(0.17584293,0.35168584,-0.64253019,0.32126511,364.43908,-307.33102)"
       gradientUnits="userSpaceOnUse" />
    <linearGradient
       inkscape:collect="always"
       id="linearGradient3447-3">
      <stop
         style="stop-color:#ff6613;stop-opacity:1"
         offset="0"
         id="stop3443-6" />
      <stop
         style="stop-color:#ff0e0a;stop-opacity:1"
         offset="1"
         id="stop3445-7" />
    </linearGradient>
    <linearGradient
       inkscape:collect="always"
       xlink:href="#linearGradient3447-3"
       id="linearGradient3670"
       x1="18.30422"
       y1="45.226242"
       x2="-6.1164165"
       y2="70.964386"
       gradientUnits="userSpaceOnUse" />
    <linearGradient
       inkscape:collect="always"
       xlink:href="#linearGradient3447-3"
       id="linearGradient3475"
       x1="33.81818"
       y1="37.99762"
       x2="56.212074"
       y2="37.99762"
       gradientUnits="userSpaceOnUse" />
    <radialGradient
       inkscape:collect="always"
       xlink:href="#linearGradient3460-3"
       id="radialGradient3462-3"
       cx="365.91464"
       cy="652.53467"
       fx="365.91464"
       fy="652.53467"
       r="68.488464"
       gradientTransform="matrix(0.21773607,0.44762471,-0.41069158,0.19977087,203.31767,-269.14985)"
       gradientUnits="userSpaceOnUse" />
    <linearGradient
       inkscape:collect="always"
       id="linearGradient3460-3">
      <stop
         style="stop-color:#ff4009;stop-opacity:1"
         offset="0"
         id="stop3456-6" />
      <stop
         style="stop-color:#ff4507;stop-opacity:0.41176471"
         offset="0.50388169"
         id="stop1054" />
      <stop
         style="stop-color:#ff7642;stop-opacity:0.07843138"
         offset="1"
         id="stop3458-7" />
    </linearGradient>
  </defs>
  <path
     fill-rule="evenodd"
     clip-rule="evenodd"
     d="M 0.02158279,15.790491 C -0.3054796,11.586415 3.1258721,8 7.476269,8 h 5.021342 9.833832 c 2.072173,0 4.051368,0.8336604 5.465212,2.301736 l 8.649398,8.981434 c 1.413844,1.468075 3.393039,2.301736 5.465213,2.301736 h 9.833831 4.778382 c 4.438704,0 7.899491,3.725887 7.434595,8.003773 L 61.794323,49.513208 C 61.393905,53.200604 58.185423,56 54.359728,56 H 10.08576 C 6.175028,56 2.9254295,53.079245 2.6310734,49.299925 Z"
     id="path475-6"
     style="fill:url(#radialGradient3462-3);fill-opacity:1;stroke-width:0.459975" />
  <path
     d="M 0.25472684,15.773283 C -0.06252316,11.700529 3.2618368,8.226416 7.4762668,8.226416 h 5.0213402 9.83384 c 2.00722,0 3.92474,0.807395 5.29467,2.229735 l 8.64893,8.981434 c 1.45823,1.514264 3.4991,2.373736 5.63622,2.373736 h 9.83383 4.77838 c 4.29994,0 7.6528,3.609509 7.20238,7.753811 l -2.16375,19.924527 c -0.38827,3.57193 -3.49629,6.28393 -7.20238,6.28393 h -44.27397 c -3.7883102,0 -6.9365202,-2.82974 -7.2215302,-6.49087 z"
     id="path476-6"
     style="stroke:url(#radialGradient3453);stroke-width:1;stroke-opacity:0.8;stroke-miterlimit:4;stroke-dasharray:none" />
  <rect
     x="7.129086"
     y="13.700621"
     width="17.399538"
     height="4.1239581"
     rx="2.2763124"
     id="rect476-7"
     style="fill:#ff4c1a;fill-opacity:0.99990296;stroke-width:0.42673"
     ry="2.2763121" />
  <rect
     x="-8.1109629"
     y="45.613781"
     width="26.980455"
     height="26.941265"
     rx="6.0943475"
     shape-rendering="crispEdges"
     id="rect5-5"
     style="fill:#ff5718;fill-opacity:0.0961155;stroke:url(#linearGradient3670);stroke-width:1.00018103;stroke-opacity:1;stroke-miterlimit:4;stroke-dasharray:none"
     ry="6.7048149"
     transform="matrix(0.73510941,-0.67794849,0.69747994,0.71660431,0,0)" />
  <path
     style="color:#f6f6f6;fill:none;fill-opacity:0.87477112;stroke-width:1;stroke:url(#linearGradient3475);stroke-miterlimit:4;stroke-dasharray:none"
     class="ColorScheme-Text"
     d="m 45.00118,28.302008 c 0,0 11.85967,11.000103 11.183,11.000103 v 0 h -3.72766 v 7.005494 c 0,0.754921 -0.66451,1.385628 -1.48421,1.385628 v 0 H 39.03005 c -0.80478,0 -1.48421,-0.620372 -1.48421,-1.385628 v 0 -7.005494 h -3.72766 z m 3.73791,8.777756 c -0.86911,-0.766262 -2.2795,-0.766262 -3.14861,0 v 0 L 45,37.600112 44.40951,37.079764 c -0.86974,-0.766262 -2.2795,-0.766262 -3.14924,0 -0.97839,0.862398 -0.97839,2.259729 0,3.122126 v 0 L 45,43.49767 48.73909,40.20189 c 0.97838,-0.862397 0.97838,-2.259728 0,-3.122126 z"
     id="path1-3" />
</svg>
