<?xml version="1.0" encoding="UTF-8" standalone="no"?>
<!-- Created with Inkscape (http://www.inkscape.org/) -->

<svg
   width="64"
   version="1.1"
   height="64"
   id="svg41"
   sodipodi:docname="audio-headphones.svg"
   inkscape:version="1.1.2 (0a00cf5339, 2022-02-04)"
   xmlns:inkscape="http://www.inkscape.org/namespaces/inkscape"
   xmlns:sodipodi="http://sodipodi.sourceforge.net/DTD/sodipodi-0.dtd"
   xmlns:xlink="http://www.w3.org/1999/xlink"
   xmlns="http://www.w3.org/2000/svg"
   xmlns:svg="http://www.w3.org/2000/svg">
  <sodipodi:namedview
     id="namedview43"
     pagecolor="#ffffff"
     bordercolor="#666666"
     borderopacity="1.0"
     inkscape:pageshadow="2"
     inkscape:pageopacity="0.0"
     inkscape:pagecheckerboard="0"
     showgrid="false"
     inkscape:zoom="7.2257474"
     inkscape:cx="28.855146"
     inkscape:cy="51.413366"
     inkscape:window-width="1056"
     inkscape:window-height="545"
     inkscape:window-x="339"
     inkscape:window-y="233"
     inkscape:window-maximized="0"
     inkscape:current-layer="layer1" />
  <defs
     id="defs5455">
    <linearGradient
       inkscape:collect="always"
       id="linearGradient5097">
      <stop
         style="stop-color:#01f0f0;stop-opacity:1"
         id="stop5093" />
      <stop
         offset="1"
         style="stop-color:#d6d9da;stop-opacity:1"
         id="stop5095" />
    </linearGradient>
    <linearGradient
       inkscape:collect="always"
       id="linearGradient4143">
      <stop
         style="stop-color:#197cf1"
         id="stop4145" />
      <stop
         offset="1"
         style="stop-color:#20bcfa"
         id="stop4147" />
    </linearGradient>
    <linearGradient
       inkscape:collect="always"
       xlink:href="#linearGradient5097"
       id="linearGradient1835"
       x1="12.011719"
       y1="13.766601"
       x2="52.078133"
       y2="13.766601"
       gradientUnits="userSpaceOnUse" />
    <linearGradient
       inkscape:collect="always"
       xlink:href="#linearGradient4143"
       id="linearGradient842"
       x1="382.05859"
       y1="513.02734"
       x2="435.16992"
       y2="513.02734"
       gradientUnits="userSpaceOnUse" />
    <linearGradient
       inkscape:collect="always"
       xlink:href="#linearGradient5097"
       id="linearGradient872"
       x1="380.97266"
       y1="539.97363"
       x2="435.16989"
       y2="539.97363"
       gradientUnits="userSpaceOnUse" />
  </defs>
  <metadata
     id="metadata5458" />
  <g
     inkscape:label="Capa 1"
     inkscape:groupmode="layer"
     id="layer1"
     transform="translate(-376.57144,-491.79797)">
    <path
       style="color:#000000;fill:url(#linearGradient1835);fill-opacity:1;-inkscape-stroke:none"
       d="m 30.857422,7.7011719 c -6.904407,0 -13.089594,2.9947161 -17.332031,7.7558591 l -0.02539,0.02734 -0.01953,0.0293 c -0.730789,1.109878 -1.35743,2.293974 -1.882813,3.533203 -0.01285,0.0303 -0.03416,0.05557 -0.04687,0.08594 l 0.875,0.472657 c 1.589526,-2.363916 3.630329,-4.389612 5.986328,-5.986328 0.282273,0.129602 0.58827,0.258615 0.759766,0.359375 0.404597,0.237718 0.798376,0.360154 1.097656,0.515625 l 0.228516,0.11914 0.230469,-0.117187 c 0.385409,-0.19834 0.705658,-0.411646 1.019531,-0.552735 l 0.128906,-0.05859 c 2.749338,-1.216513 5.773036,-1.925782 8.980469,-1.925782 h 2.371094 c 3.20742,0 6.231108,0.709285 8.980468,1.925782 l 0.128907,0.05859 c 0.313872,0.141089 0.63412,0.354395 1.019531,0.552735 l 0.230469,0.117187 0.228515,-0.11914 c 0.299957,-0.155823 0.691826,-0.278338 1.095703,-0.515625 0.171492,-0.100757 0.477489,-0.22977 0.759766,-0.359375 2.358427,1.598254 4.402086,3.62558 5.992187,5.992187 l 0.875,-0.472656 c -0.01271,-0.03039 -0.03403,-0.05562 -0.04687,-0.08594 -0.526376,-1.24229 -1.156943,-2.427784 -1.888671,-3.539062 l -0.01953,-0.0293 -0.02539,-0.02734 C 46.316214,10.696061 40.132847,7.7011719 33.228516,7.7011719 Z m 0,1 h 2.371094 c 4.606673,0 8.825787,1.4539781 12.361328,3.8359371 l -0.121094,0.08008 c -0.226456,0.149532 -0.627274,0.241189 -1.064453,0.498046 -0.184532,0.108418 -0.451663,0.219596 -0.703125,0.330079 l -0.931641,-0.419922 c -2.908353,-1.310688 -6.130128,-2.066407 -9.541015,-2.066407 h -2.371094 c -3.410895,0 -6.632678,0.755697 -9.541016,2.066407 l -0.93164,0.419922 C 20.132334,13.33462 19.863861,13.223444 19.679687,13.115234 19.242515,12.858381 18.8417,12.766719 18.615234,12.617188 l -0.11914,-0.07813 c 3.536195,-2.382177 7.754364,-3.8378911 12.361328,-3.8378911 z"
       id="path4382"
       transform="translate(376.57144,491.79797)" />
    <path
       style="color:#000000;fill:url(#linearGradient842);-inkscape-stroke:none"
       d="m 408.61523,494.65625 c -14.97181,0 -27.05664,12.0848 -27.05664,27.05664 v 6.51367 1.08594 c 0,1.14425 0.9417,2.08594 2.08594,2.08594 h 2.17188 c 1.14423,0 2.08398,-0.94244 2.08398,-2.08594 v -1.08594 -8.68554 c 0,-11.49265 9.22216,-20.71289 20.71484,-20.7129 11.49271,0 20.7129,9.22019 20.71289,20.7129 v 8.68554 1.08594 c 0,1.1435 0.93974,2.08594 2.08399,2.08594 h 2.17187 c 1.14425,0 2.08594,-0.94169 2.08594,-2.08594 v -1.08594 -6.51367 c 0,-14.97179 -12.08285,-27.05664 -27.05469,-27.05664 z m 0,2 c 13.8984,0 25.05469,11.15821 25.05469,25.05664 v 6.51367 1.08594 c 0,0.0801 -0.006,0.0859 -0.0859,0.0859 h -2.17187 c -0.0801,0 -0.084,-0.004 -0.084,-0.0859 v -1.08594 -8.68554 c 1e-5,-12.56609 -10.1468,-22.7129 -22.71289,-22.7129 -12.56607,0 -22.71484,10.14676 -22.71484,22.7129 v 8.68554 1.08594 c 0,0.082 -0.004,0.0859 -0.084,0.0859 h -2.17188 c -0.0801,0 -0.0859,-0.006 -0.0859,-0.0859 v -1.08594 -6.51367 c 0,-13.89838 11.15827,-25.05664 25.05664,-25.05664 z m -26.05664,32.65625 c 0,0.58612 0.49982,1.08594 1.08594,1.08594 -0.59534,0 -1.08594,-0.49059 -1.08594,-1.08594 z m 4.3418,0 c 0,0.5961 -0.48864,1.08594 -1.08398,1.08594 0.58611,0 1.08398,-0.50178 1.08398,-1.08594 z m 43.42773,0 c 0,0.58417 0.49787,1.08594 1.08399,1.08594 -0.59535,0 -1.08399,-0.48984 -1.08399,-1.08594 z m 4.3418,0 c 0,0.59535 -0.49058,1.08594 -1.08594,1.08594 0.58612,0 1.08594,-0.49983 1.08594,-1.08594 z"
       id="path4954" />
    <path
       style="color:#000000;fill:#8ca5ad;stroke-width:1.1454;-inkscape-stroke:none"
       d="m 383.14371,530.56509 v 0.65598 4.94799 l 0.67382,-0.32799 c 0.94188,-0.45902 1.72416,-1.354 2.375,-2.33947 l 0.12305,-0.18705 v -2.74946 z m 1,1.31195 h 1.17187 v 0.88659 c -0.35471,0.51558 -0.76765,0.8248 -1.17187,1.17358 z"
       id="rect4227" />
    <path
       style="color:#000000;fill:#8ca5ad;stroke-width:1.1454;-inkscape-stroke:none"
       d="m 430.91324,530.56509 v 0.65598 3.53611 l 0.19922,0.1973 c 0.70754,0.6974 1.54251,1.19665 2.47265,1.19665 h 0.5 v -5.58604 z m 1,1.31195 h 1.17187 v 2.71103 c -0.4003,-0.11244 -0.79771,-0.25132 -1.17187,-0.58424 z"
       id="rect4237" />
    <path
       style="color:#000000;fill:url(#linearGradient872);-inkscape-stroke:none"
       d="m 424.2832,526.99023 c -1.47677,0.0835 -2.90776,0.54502 -3.86133,1.21875 -0.63967,0.45197 -0.86523,1.2445 -0.86523,2.01758 v 19.56446 l 0.002,0.0254 c 0.0736,0.76306 0.35393,1.36066 0.76953,1.79882 0.41561,0.43817 0.93394,0.71726 1.48438,0.97852 l 0.041,0.0195 0.041,0.0117 c 1.60544,0.43938 3.53277,0.44754 4.94336,-0.006 l 0.004,-0.002 h 0.002 c 0.49934,-0.16645 1.0504,-0.42736 1.50977,-0.88672 0.38755,-0.38754 0.56819,-0.98921 0.66015,-1.61328 l 0.0723,0.0215 c 0,0 0.50996,-1.26478 1.38281,-2.51172 0.86962,-1.2423 2.06018,-2.28711 3.11523,-2.28711 1.14425,0 2.08594,-0.94169 2.08594,-2.08593 v -6.51368 c 0,-1.14424 -0.94169,-2.08593 -2.08594,-2.08593 -1.05505,0 -2.24561,-1.04482 -3.11523,-2.28711 l -0.0156,-0.0195 -0.0156,-0.0195 c -0.60905,-0.7067 -0.8113,-1.33491 -1.01758,-2.0039 -0.20628,-0.66899 -0.41742,-1.40529 -1.06445,-2.0586 -1.04419,-1.05433 -2.59549,-1.35886 -4.07227,-1.27539 z m -32.58008,0.0254 c -1.4014,0.0374 -2.77108,0.47132 -3.83789,1.18555 l -0.0918,0.0605 -0.0566,0.0937 c -0.85811,1.40159 -1.28447,2.8725 -2.04493,4.01367 -0.86946,1.24126 -2.05887,2.28516 -3.11328,2.28516 -1.14424,0 -2.08593,0.94169 -2.08593,2.08593 v 6.51368 c 0,1.14424 0.9417,2.08593 2.08593,2.08593 1.05507,0 2.24563,1.04481 3.11524,2.28711 0.81484,1.16405 1.2318,2.19346 1.29492,2.34571 0.003,0.0172 -0.0117,0.06 -0.01,0.0742 0.008,0.0611 0.0202,0.10435 0.0332,0.14649 0.0521,0.16854 0.13021,0.33184 0.22265,0.51953 0.18489,0.37538 0.40276,0.76773 0.50391,0.92969 l 0.0508,0.0801 0.0762,0.0566 c 2.38237,1.75553 5.72925,1.43976 7.86328,0.0137 l 0.041,-0.0273 0.0352,-0.0352 c 0.47209,-0.47209 0.80078,-1.16011 0.80078,-1.96289 v -19.54102 c 0,-0.80278 -0.32869,-1.4908 -0.80078,-1.96289 l -0.0274,-0.0273 -0.0293,-0.0215 c -1.1912,-0.87677 -2.62399,-1.23665 -4.0254,-1.19922 z m 32.63672,0.97266 c 1.22295,-0.0691 2.37589,0.21892 3.14063,0.88867 -0.94944,-0.56493 -2.12287,-0.85959 -3.3125,-0.83593 0.0666,-0.006 0.10523,-0.049 0.17187,-0.0527 z m -31.29687,0.20508 c 0.22885,0.0428 0.44888,0.0798 0.66992,0.15039 -0.21424,-0.0804 -0.44309,-0.10476 -0.66992,-0.15039 z m 1.26562,0.43359 c 0.26218,0.12275 0.54398,0.20052 0.78125,0.3711 0.23101,0.23851 0.34122,0.60451 0.40039,0.99414 -0.22927,-0.61342 -0.67297,-1.04842 -1.18164,-1.36524 z m -5.36132,0.2461 c -0.17276,0.11573 -0.40183,0.183 -0.54102,0.32226 0.0333,-0.0596 0.0612,-0.12881 0.0957,-0.1875 0.12227,-0.0789 0.313,-0.0646 0.44532,-0.13476 z m 3.09765,0.0976 c 0.61075,0.007 1.19497,0.12642 1.64258,0.35938 0.43521,0.2265 0.73302,0.54914 0.89844,1.02148 v 19.41602 c 0,0.28372 -0.0636,0.36476 -0.19532,0.50195 -1.50731,0.96567 -3.78589,0.83411 -5.20898,-0.006 -0.12914,-0.13537 -0.19531,-0.21699 -0.19531,-0.49609 v -0.10352 l -0.041,-0.0957 c -0.46638,-1.07176 -1.04223,-2.22349 -1.62695,-3.08203 l -0.002,-0.002 -0.002,-0.004 c -1.02386,-1.46268 -2.58457,-3.14063 -4.75586,-3.14063 -0.0801,0 -0.0859,-0.006 -0.0859,-0.0859 v -6.51368 c 0,-0.0801 0.006,-0.0859 0.0859,-0.0859 2.17129,0 3.732,-1.67797 4.75586,-3.14063 0.54626,-0.78037 0.64575,-1.41162 0.77149,-1.91015 0.12573,-0.49853 0.26245,-0.9227 0.9707,-1.67774 0.44846,-0.47808 1.76678,-0.9684 2.98828,-0.95508 z m 29.00391,0.0391 c -0.27719,0.29067 -0.49219,0.70793 -0.49219,1.21679 0,-0.56255 0.19622,-1.02655 0.44336,-1.20117 0.0107,-0.008 0.0379,-0.008 0.0488,-0.0156 z m 3.34765,0.0293 c 0.92974,0.0164 1.83291,0.27325 2.54102,0.68555 0.49239,1.2895 1.17606,2.75134 1.88867,3.78516 l 0.002,0.002 v 0.002 c 1.02387,1.46266 2.58458,3.14063 4.75586,3.14063 0.0801,0 0.0859,0.006 0.0859,0.0859 v 6.51368 c 0,0.0801 -0.006,0.0859 -0.0859,0.0859 -2.17128,0 -3.73199,1.67796 -4.75586,3.14063 -1.02688,1.46697 -1.60156,2.91601 -1.60156,2.91601 v 0.002 l -0.0703,0.17968 v 0.18946 c 0,0.28916 -0.0629,0.36964 -0.20313,0.51367 -1.2073,0.86952 -3.01478,0.69413 -4.48242,0.42383 -0.33007,-0.0998 -0.49203,-0.22201 -0.61718,-0.38477 -0.11768,-0.15302 -0.20545,-0.38082 -0.29688,-0.65234 v -19.44141 c 0,-0.28276 0.0646,-0.3636 0.19531,-0.5 0.75728,-0.4777 1.70206,-0.70415 2.64453,-0.6875 z m 4.94141,3.27735 c 0.13894,0.22786 0.13393,0.41445 0.33398,0.64843 -0.006,-0.008 -0.0158,-0.0133 -0.0215,-0.0215 0.007,0.009 0.0169,0.0161 0.0234,0.0254 0.004,0.004 0.002,0.008 0.006,0.0117 l -0.0293,-0.0371 -0.002,-0.004 c -0.11106,-0.16127 -0.19724,-0.43513 -0.31055,-0.62304 z m -46.7793,3.33789 c -0.58611,0 -1.08593,0.49982 -1.08593,1.08593 0,-0.59535 0.49058,-1.08593 1.08593,-1.08593 z m 51.02539,0 c 0.59536,0 1.08594,0.49058 1.08594,1.08593 0,-0.58611 -0.49982,-1.08593 -1.08594,-1.08593 z m -52.11132,7.59961 c 0,0.5861 0.49982,1.08593 1.08593,1.08593 -0.59534,0 -1.08593,-0.49058 -1.08593,-1.08593 z m 53.19726,0 c 0,0.59535 -0.49058,1.08593 -1.08594,1.08593 0.58612,0 1.08594,-0.49983 1.08594,-1.08593 z m -46.55078,6.84179 c 0.0632,0.28788 0.1467,0.55915 0.30859,0.75782 -0.002,-0.004 -0.006,-0.008 -0.008,-0.0117 z m 32.90234,0.75196 c 0.0188,0.0268 0.0187,0.0555 0.0391,0.082 0.0484,0.063 0.1624,0.0862 0.2207,0.14453 -0.0612,-0.0512 -0.17482,-0.0919 -0.22656,-0.14649 -0.0179,-0.0189 -0.0161,-0.0607 -0.0332,-0.0801 z m 6.50977,0.24218 c -0.29143,0.25571 -0.63248,0.45376 -0.99805,0.57618 -0.001,3.3e-4 -0.003,-3.4e-4 -0.004,0 -0.3675,0.11778 -0.87347,0.13704 -1.34766,0.17968 0.8145,-0.0698 1.63377,-0.24175 2.34961,-0.75586 z m -38.68359,0.0801 c 0.77433,0.42546 1.68046,0.68086 2.62304,0.74024 -0.9276,-0.029 -1.82736,-0.2685 -2.62304,-0.74024 z m 33.92773,0.56641 c 0.58404,0.098 1.20156,0.18408 1.86328,0.18164 -0.63337,0.0149 -1.24672,-0.0673 -1.86328,-0.18164 z"
       id="rect4215" />
  </g>
</svg>
