<?xml version="1.0" encoding="UTF-8" standalone="no"?>
<svg
   version="1.1"
   viewBox="0 0 64 64"
   id="svg54"
   sodipodi:docname="audio-headset.svg"
   inkscape:version="1.1.2 (0a00cf5339, 2022-02-04)"
   xmlns:inkscape="http://www.inkscape.org/namespaces/inkscape"
   xmlns:sodipodi="http://sodipodi.sourceforge.net/DTD/sodipodi-0.dtd"
   xmlns:xlink="http://www.w3.org/1999/xlink"
   xmlns="http://www.w3.org/2000/svg"
   xmlns:svg="http://www.w3.org/2000/svg">
  <sodipodi:namedview
     id="namedview56"
     pagecolor="#ffffff"
     bordercolor="#666666"
     borderopacity="1.0"
     inkscape:pageshadow="2"
     inkscape:pageopacity="0.0"
     inkscape:pagecheckerboard="0"
     showgrid="false"
     inkscape:zoom="14.451495"
     inkscape:cx="31.934413"
     inkscape:cy="48.57629"
     inkscape:window-width="1600"
     inkscape:window-height="836"
     inkscape:window-x="0"
     inkscape:window-y="0"
     inkscape:window-maximized="1"
     inkscape:current-layer="svg54" />
  <defs
     id="defs52">
    <linearGradient
       inkscape:collect="always"
       id="linearGradient2271">
      <stop
         style="stop-color:#717171;stop-opacity:1;"
         offset="0"
         id="stop2267" />
      <stop
         style="stop-color:#d3d3d3;stop-opacity:1"
         offset="1"
         id="stop2269" />
    </linearGradient>
    <linearGradient
       inkscape:collect="always"
       id="linearGradient5097">
      <stop
         style="stop-color:#01f0f0;stop-opacity:1"
         id="stop5093" />
      <stop
         offset="1"
         style="stop-color:#d6d9da;stop-opacity:1"
         id="stop5095" />
    </linearGradient>
    <linearGradient
       inkscape:collect="always"
       xlink:href="#linearGradient4143"
       id="linearGradient1865"
       x1="382.55872"
       y1="513.0271"
       x2="434.66983"
       y2="513.0271"
       gradientUnits="userSpaceOnUse"
       gradientTransform="translate(-376.91324,-492.09289)" />
    <linearGradient
       inkscape:collect="always"
       id="linearGradient4143">
      <stop
         style="stop-color:#197cf1"
         id="stop4145" />
      <stop
         offset="1"
         style="stop-color:#20bcfa"
         id="stop4147" />
    </linearGradient>
    <linearGradient
       inkscape:collect="always"
       xlink:href="#linearGradient5097"
       id="linearGradient1835"
       x1="12.011719"
       y1="13.766601"
       x2="52.078133"
       y2="13.766601"
       gradientUnits="userSpaceOnUse"
       gradientTransform="translate(-0.341797,-0.294922)" />
    <linearGradient
       inkscape:collect="always"
       xlink:href="#linearGradient2271"
       id="linearGradient2273"
       x1="38.4996"
       y1="49.500005"
       x2="59.500004"
       y2="49.500005"
       gradientUnits="userSpaceOnUse"
       gradientTransform="translate(2.0495903,1.4211995)" />
    <linearGradient
       inkscape:collect="always"
       xlink:href="#linearGradient2271"
       id="linearGradient2530"
       x1="33"
       y1="54"
       x2="41"
       y2="54"
       gradientUnits="userSpaceOnUse"
       gradientTransform="translate(1.9702518,1.3589519)" />
    <linearGradient
       inkscape:collect="always"
       xlink:href="#linearGradient5097"
       id="linearGradient872"
       x1="380.97266"
       y1="539.97363"
       x2="435.16989"
       y2="539.97363"
       gradientUnits="userSpaceOnUse"
       gradientTransform="translate(-376.12033,-491.81903)" />
    <linearGradient
       inkscape:collect="always"
       xlink:href="#linearGradient4143"
       id="linearGradient842"
       x1="382.05859"
       y1="513.02734"
       x2="435.16992"
       y2="513.02734"
       gradientUnits="userSpaceOnUse"
       gradientTransform="translate(-376.12033,-491.81903)" />
    <linearGradient
       inkscape:collect="always"
       xlink:href="#linearGradient5097"
       id="linearGradient1835-3"
       x1="12.011719"
       y1="13.766601"
       x2="52.078133"
       y2="13.766601"
       gradientUnits="userSpaceOnUse"
       gradientTransform="translate(0.45111,-0.02106)" />
  </defs>
  <path
     style="color:#000000;fill:url(#linearGradient1835-3);fill-opacity:1;-inkscape-stroke:none"
     d="m 31.308532,7.6801119 c -6.904407,0 -13.089594,2.9947161 -17.332031,7.7558591 l -0.02539,0.02734 -0.01953,0.0293 c -0.730789,1.109878 -1.35743,2.293974 -1.882813,3.533203 -0.01285,0.0303 -0.03416,0.05557 -0.04687,0.08594 l 0.875,0.472657 c 1.589526,-2.363916 3.630329,-4.389612 5.986328,-5.986328 0.282273,0.129602 0.58827,0.258615 0.759766,0.359375 0.404597,0.237718 0.798376,0.360154 1.097656,0.515625 l 0.228516,0.11914 0.230469,-0.117187 c 0.385409,-0.19834 0.705658,-0.411646 1.019531,-0.552735 l 0.128906,-0.05859 c 2.749338,-1.216513 5.773036,-1.925782 8.980469,-1.925782 h 2.371094 c 3.20742,0 6.231108,0.709285 8.980468,1.925782 l 0.128907,0.05859 c 0.313872,0.141089 0.63412,0.354395 1.019531,0.552735 l 0.230469,0.117187 0.228515,-0.11914 c 0.299957,-0.155823 0.691826,-0.278338 1.095703,-0.515625 0.171492,-0.100757 0.477489,-0.22977 0.759766,-0.359375 2.358427,1.598254 4.402086,3.62558 5.992187,5.992187 l 0.875,-0.472656 c -0.01271,-0.03039 -0.03403,-0.05562 -0.04687,-0.08594 -0.526376,-1.24229 -1.156943,-2.427784 -1.888671,-3.539062 l -0.01953,-0.0293 -0.02539,-0.02734 C 46.767324,10.675001 40.583957,7.6801119 33.679626,7.6801119 Z m 0,1 h 2.371094 c 4.606673,0 8.825787,1.4539781 12.361328,3.8359371 l -0.121094,0.08008 c -0.226456,0.149532 -0.627274,0.241189 -1.064453,0.498046 -0.184532,0.108418 -0.451663,0.219596 -0.703125,0.330079 l -0.931641,-0.419922 c -2.908353,-1.310688 -6.130128,-2.066407 -9.541015,-2.066407 h -2.371094 c -3.410895,0 -6.632678,0.755697 -9.541016,2.066407 l -0.93164,0.419922 c -0.252432,-0.110694 -0.520905,-0.22187 -0.705079,-0.33008 -0.437172,-0.256853 -0.837987,-0.348515 -1.064453,-0.498046 l -0.11914,-0.07813 c 3.536195,-2.382177 7.754364,-3.8378911 12.361328,-3.8378911 z"
     id="path4382-5" />
  <path
     style="color:#000000;fill:url(#linearGradient842);-inkscape-stroke:none"
     d="m 32.4949,2.83722 c -14.97181,0 -27.05664,12.0848 -27.05664,27.05664 v 6.51367 1.08594 c 0,1.14425 0.9417,2.08594 2.08594,2.08594 h 2.17188 c 1.14423,0 2.08398,-0.94244 2.08398,-2.08594 v -1.08594 -8.68554 c 0,-11.49265 9.22216,-20.71289 20.71484,-20.7129 11.49271,0 20.7129,9.22019 20.71289,20.7129 v 8.68554 1.08594 c 0,1.1435 0.93974,2.08594 2.08399,2.08594 h 2.17187 c 1.14425,0 2.08594,-0.94169 2.08594,-2.08594 V 36.40753 29.89386 C 59.54959,14.92207 47.46674,2.83722 32.4949,2.83722 Z m 0,2 c 13.8984,0 25.05469,11.15821 25.05469,25.05664 v 6.51367 1.08594 c 0,0.0801 -0.006,0.0859 -0.0859,0.0859 h -2.17187 c -0.0801,0 -0.084,-0.004 -0.084,-0.0859 v -1.08594 -8.68554 c 1e-5,-12.56609 -10.1468,-22.7129 -22.71289,-22.7129 -12.56607,0 -22.71484,10.14676 -22.71484,22.7129 v 8.68554 1.08594 c 0,0.082 -0.004,0.0859 -0.084,0.0859 H 7.52421 c -0.0801,0 -0.0859,-0.006 -0.0859,-0.0859 v -1.08594 -6.51367 c 0,-13.89838 11.15827,-25.05664 25.05664,-25.05664 z M 6.43826,37.49347 c 0,0.58612 0.49982,1.08594 1.08594,1.08594 -0.59534,0 -1.08594,-0.49059 -1.08594,-1.08594 z m 4.3418,0 c 0,0.5961 -0.48864,1.08594 -1.08398,1.08594 0.58611,0 1.08398,-0.50178 1.08398,-1.08594 z m 43.42773,0 c 0,0.58417 0.49787,1.08594 1.08399,1.08594 -0.59535,0 -1.08399,-0.48984 -1.08399,-1.08594 z m 4.3418,0 c 0,0.59535 -0.49058,1.08594 -1.08594,1.08594 0.58612,0 1.08594,-0.49983 1.08594,-1.08594 z"
     id="path4954-6" />
  <path
     style="color:#000000;fill:#8ca5ad;stroke-width:1.1454;-inkscape-stroke:none"
     d="m 7.02338,38.74606 v 0.65598 4.94799 L 7.6972,44.02204 c 0.94188,-0.45902 1.72416,-1.354 2.375,-2.33947 l 0.12305,-0.18705 v -2.74946 z m 1,1.31195 H 9.19525 V 40.9446 C 8.84054,41.46018 8.4276,41.7694 8.02338,42.11818 Z"
     id="rect4227-2" />
  <path
     style="color:#000000;fill:#8ca5ad;stroke-width:1.1454;-inkscape-stroke:none"
     d="m 54.79291,38.74606 v 0.65598 3.53611 l 0.19922,0.1973 c 0.70754,0.6974 1.54251,1.19665 2.47265,1.19665 h 0.5 v -5.58604 z m 1,1.31195 h 1.17187 v 2.71103 C 56.56448,42.6566 56.16707,42.51772 55.79291,42.1848 Z"
     id="rect4237-9" />
  <path
     id="rect4215-1"
     style="color:#000000;fill:url(#linearGradient872);-inkscape-stroke:none"
     d="M 48.71875 35.158203 C 48.53296 35.155805 48.34866 35.161441 48.164062 35.171875 L 48.162109 35.171875 C 46.685339 35.255375 45.254351 35.716895 44.300781 36.390625 C 43.661111 36.842595 43.435547 37.635123 43.435547 38.408203 L 43.435547 54.908203 L 45.435547 54.851562 L 45.435547 38.408203 C 45.435547 38.125443 45.500149 38.044603 45.630859 37.908203 C 46.388139 37.430503 47.332921 37.204053 48.275391 37.220703 C 49.205131 37.237103 50.108296 37.49395 50.816406 37.90625 C 51.308796 39.19575 51.992468 40.657586 52.705078 41.691406 L 52.707031 41.693359 L 52.707031 41.695312 C 53.730901 43.157972 55.291611 44.835938 57.462891 44.835938 C 57.542991 44.835938 57.548828 44.841975 57.548828 44.921875 L 57.548828 51.435547 C 57.548828 51.515647 57.542791 51.521484 57.462891 51.521484 C 55.300369 51.521484 53.744758 53.186062 52.720703 54.644531 L 55.408203 54.568359 C 56.07016 53.943513 56.793443 53.521484 57.462891 53.521484 C 58.607141 53.521484 59.548828 52.579787 59.548828 51.435547 L 59.548828 44.921875 C 59.548828 43.777635 58.607141 42.835937 57.462891 42.835938 C 56.407841 42.835938 55.217276 41.791118 54.347656 40.548828 L 54.333984 40.529297 L 54.318359 40.509766 C 53.709309 39.803066 53.507061 39.174849 53.300781 38.505859 C 53.094501 37.836869 52.883358 37.100576 52.236328 36.447266 C 51.322662 35.524727 50.019282 35.174988 48.71875 35.158203 z M 15.582031 35.197266 C 14.180631 35.234666 12.810951 35.668583 11.744141 36.382812 L 11.652344 36.443359 L 11.595703 36.537109 C 10.737593 37.938699 10.311241 39.409611 9.5507812 40.550781 C 8.6813212 41.792041 7.49191 42.835937 6.4375 42.835938 C 5.29326 42.835938 4.3515625 43.777635 4.3515625 44.921875 L 4.3515625 51.435547 C 4.3515625 52.579787 5.29327 53.521484 6.4375 53.521484 C 7.49257 53.521484 8.6831244 54.566294 9.5527344 55.808594 C 10.367574 56.972644 10.784536 58.002047 10.847656 58.154297 C 10.850656 58.171497 10.836191 58.214316 10.837891 58.228516 C 10.845891 58.289616 10.858094 58.33286 10.871094 58.375 C 10.923194 58.54354 11.00131 58.706841 11.09375 58.894531 C 11.27864 59.269911 11.496506 59.662259 11.597656 59.824219 L 11.648438 59.904297 L 11.724609 59.960938 C 14.106979 61.716468 17.453861 61.400669 19.587891 59.974609 L 19.628906 59.947266 L 19.664062 59.912109 C 20.136153 59.440019 20.464844 58.751999 20.464844 57.949219 L 20.464844 38.408203 C 20.464844 37.605423 20.136153 36.917403 19.664062 36.445312 L 19.636719 36.417969 L 19.607422 36.396484 C 18.416222 35.519714 16.983441 35.159836 15.582031 35.197266 z M 48.673828 36.160156 C 49.724244 36.17815 50.690228 36.472563 51.359375 37.058594 C 50.409935 36.493664 49.236505 36.198996 48.046875 36.222656 C 48.113475 36.216656 48.15211 36.173622 48.21875 36.169922 C 48.371619 36.161284 48.523769 36.157586 48.673828 36.160156 z M 18.1875 36.808594 C 18.44968 36.931344 18.73148 37.009107 18.96875 37.179688 C 19.19976 37.418197 19.309971 37.784198 19.369141 38.173828 C 19.139871 37.560408 18.69617 37.125414 18.1875 36.808594 z M 12.826172 37.054688 C 12.653412 37.170417 12.424346 37.237693 12.285156 37.376953 C 12.318456 37.317353 12.346359 37.248143 12.380859 37.189453 C 12.503129 37.110553 12.693852 37.124848 12.826172 37.054688 z M 15.923828 37.152344 C 16.534578 37.159344 17.118796 37.278759 17.566406 37.511719 C 18.001616 37.738219 18.299424 38.060863 18.464844 38.533203 L 18.464844 57.949219 C 18.464844 58.232939 18.401251 58.313982 18.269531 58.451172 C 16.762221 59.416842 14.483637 59.285423 13.060547 58.445312 C 12.931407 58.309942 12.865234 58.228319 12.865234 57.949219 L 12.865234 57.845703 L 12.824219 57.75 C 12.357839 56.67824 11.781986 55.526509 11.197266 54.667969 L 11.195312 54.666016 L 11.193359 54.660156 C 10.169499 53.197476 8.60879 51.519531 6.4375 51.519531 C 6.3574 51.519531 6.3515625 51.515447 6.3515625 51.435547 L 6.3515625 44.921875 C 6.3515625 44.841775 6.3576 44.835937 6.4375 44.835938 C 8.60879 44.835938 10.169499 43.157973 11.193359 41.695312 C 11.739619 40.914943 11.839104 40.283686 11.964844 39.785156 C 12.090574 39.286626 12.227297 38.862462 12.935547 38.107422 C 13.384007 37.629342 14.702328 37.139024 15.923828 37.152344 z M 44.927734 37.191406 C 44.650544 37.482076 44.435547 37.899343 44.435547 38.408203 C 44.435547 37.845653 44.631766 37.381651 44.878906 37.207031 C 44.889606 37.199031 44.916834 37.199006 44.927734 37.191406 z M 53.511719 41.089844 C 53.525834 41.108879 53.53398 41.126834 53.550781 41.146484 C 53.551659 41.147556 53.551945 41.149262 53.552734 41.150391 C 53.556734 41.154391 53.554594 41.158409 53.558594 41.162109 L 53.529297 41.125 L 53.527344 41.121094 C 53.521634 41.112803 53.517304 41.098703 53.511719 41.089844 z M 6.0175781 43.921875 C 6.0187113 43.921392 6.0203493 43.922354 6.0214844 43.921875 C 5.6994141 44.061426 5.4500176 44.355923 5.375 44.703125 C 5.4478854 44.351169 5.6932957 44.060111 6.0175781 43.921875 z M 57.880859 43.921875 C 58.142997 44.03256 58.352205 44.241772 58.462891 44.503906 C 58.350858 44.245347 58.139422 44.033907 57.880859 43.921875 z M 5.375 51.652344 C 5.4643466 52.069441 5.803602 52.408699 6.2207031 52.498047 C 5.7983603 52.410584 5.4624641 52.074691 5.375 51.652344 z M 58.462891 51.851562 C 58.325253 52.177528 58.034831 52.424907 57.681641 52.498047 C 58.028848 52.423028 58.323339 52.173632 58.462891 51.851562 z M 43.435547 55.933594 L 43.435547 57.972656 L 43.4375 57.998047 C 43.5111 58.761107 43.791431 59.358715 44.207031 59.796875 C 44.622641 60.235045 45.140966 60.514131 45.691406 60.775391 L 45.732422 60.794922 L 45.773438 60.806641 C 47.378878 61.246021 49.306207 61.254321 50.716797 60.800781 L 50.720703 60.798828 L 50.722656 60.798828 C 51.221996 60.632378 51.773052 60.371469 52.232422 59.912109 C 52.619972 59.524569 52.800618 58.922898 52.892578 58.298828 L 52.964844 58.320312 C 52.964844 58.320312 53.387445 57.308576 54.09375 56.207031 L 51.802734 56.148438 C 51.364405 56.95983 51.105469 57.578125 51.105469 57.578125 L 51.105469 57.580078 L 51.035156 57.759766 L 51.035156 57.949219 C 51.035156 58.238379 50.972261 58.318861 50.832031 58.462891 C 49.624731 59.332411 47.817249 59.157019 46.349609 58.886719 C 46.019539 58.786919 45.857572 58.664713 45.732422 58.501953 C 45.614742 58.348933 45.526977 58.121129 45.435547 57.849609 L 45.435547 55.984375 L 43.435547 55.933594 z M 44.900391 59.029297 C 44.919191 59.056097 44.919053 59.084828 44.939453 59.111328 C 44.948794 59.123487 44.967113 59.130892 44.980469 59.140625 C 44.965311 59.130216 44.944397 59.120773 44.933594 59.109375 C 44.915694 59.090475 44.917491 59.048697 44.900391 59.029297 z M 51.410156 59.271484 C 51.118726 59.527194 50.777679 59.725236 50.412109 59.847656 C 50.411109 59.847986 50.409203 59.847316 50.408203 59.847656 C 50.040703 59.965436 49.534737 59.984704 49.060547 60.027344 C 49.875047 59.957544 50.694316 59.785594 51.410156 59.271484 z M 12.726562 59.351562 C 13.500892 59.777023 14.407029 60.032417 15.349609 60.091797 C 14.422009 60.062797 13.522243 59.823302 12.726562 59.351562 z M 46.654297 59.917969 C 47.238337 60.015969 47.855858 60.102049 48.517578 60.099609 C 47.884208 60.114509 47.270857 60.032309 46.654297 59.917969 z " />
  <path
     style="color:#000000;fill:url(#linearGradient1835);fill-opacity:1;-inkscape-stroke:none"
     d="m 30.515625,7.4062499 c -6.904407,0 -13.089594,2.9947161 -17.332031,7.7558591 l -0.02539,0.02734 -0.01953,0.0293 c -0.730789,1.109878 -1.35743,2.293974 -1.882813,3.533203 -0.01285,0.0303 -0.03416,0.05557 -0.04687,0.08594 l 0.875,0.472657 c 1.589526,-2.363916 3.630329,-4.389612 5.986328,-5.986328 0.282273,0.129602 0.58827,0.258615 0.759766,0.359375 0.404597,0.237718 0.798376,0.360154 1.097656,0.515625 l 0.228516,0.11914 0.230469,-0.117187 c 0.385409,-0.19834 0.705658,-0.411646 1.019531,-0.552735 l 0.128906,-0.05859 c 2.749338,-1.216513 5.773036,-1.925782 8.980469,-1.925782 h 2.371094 c 3.20742,0 6.231108,0.709285 8.980468,1.925782 l 0.128907,0.05859 c 0.313872,0.141089 0.63412,0.354395 1.019531,0.552735 l 0.230469,0.117187 0.228515,-0.11914 c 0.299957,-0.155823 0.691826,-0.278338 1.095703,-0.515625 0.171492,-0.100757 0.477489,-0.22977 0.759766,-0.359375 2.358427,1.598254 4.402086,3.62558 5.992187,5.992187 l 0.875,-0.472656 c -0.01271,-0.03039 -0.03403,-0.05562 -0.04687,-0.08594 -0.526376,-1.24229 -1.156943,-2.427784 -1.888671,-3.539062 l -0.01953,-0.0293 -0.02539,-0.02734 C 45.974417,10.401139 39.79105,7.4062499 32.886719,7.4062499 Z m 0,1 h 2.371094 c 4.606673,0 8.825787,1.4539781 12.361328,3.8359371 l -0.121094,0.08008 c -0.226456,0.149532 -0.627274,0.241189 -1.064453,0.498046 -0.184532,0.108418 -0.451663,0.219596 -0.703125,0.330079 L 42.427734,12.73047 c -2.908353,-1.310688 -6.130128,-2.066407 -9.541015,-2.066407 h -2.371094 c -3.410895,0 -6.632678,0.755697 -9.541016,2.066407 l -0.93164,0.419922 c -0.252432,-0.110694 -0.520905,-0.22187 -0.705079,-0.33008 -0.437172,-0.256853 -0.837987,-0.348515 -1.064453,-0.498046 l -0.11914,-0.07813 C 21.690492,9.861959 25.908661,8.4062449 30.515625,8.4062449 Z"
     id="path4382" />
  <path
     style="color:#000000;fill:url(#linearGradient1865);-inkscape-stroke:none"
     d="m 31.701993,3.063358 c -14.7031,0 -26.55664,11.85352 -26.55664,26.55664 v 6.51367 1.08594 c 0,0.8698 0.71615,1.58594 1.58594,1.58594 h 2.17188 c 0.86979,0 1.58398,-0.71614 1.58398,-1.58594 v -1.08594 -8.68554 c 0,-11.76062 9.45424,-21.21289 21.21484,-21.2129 11.76062,0 21.2129,9.45228 21.21289,21.2129 v 8.68554 1.08594 c 0,0.8698 0.71419,1.58594 1.58399,1.58594 h 2.17187 c 0.8698,0 1.58594,-0.71614 1.58594,-1.58594 v -1.08594 -6.51367 c 0,-14.70312 -11.85157,-26.55664 -26.55469,-26.55664 z m 0,1 c 14.16642,0 25.55469,11.39023 25.55469,25.55664 v 6.51367 1.08594 c 0,0.3331 -0.25283,0.58594 -0.58594,0.58594 h -2.17187 c -0.3331,0 -0.58399,-0.25284 -0.58399,-0.58594 v -1.08594 -8.68554 c 0,-12.29732 -9.91557,-22.2129 -22.21289,-22.2129 -12.29731,0 -22.21484,9.91558 -22.21484,22.2129 v 8.68554 1.08594 c 0,0.3331 -0.25088,0.58594 -0.58398,0.58594 h -2.17188 c -0.3331,0 -0.58594,-0.25284 -0.58594,-0.58594 v -1.08594 -6.51367 c 0,-14.16641 11.39024,-25.55664 25.55664,-25.55664 z"
     id="path4954" />
  <path
     id="microphone_body"
     style="color:#000000;fill:url(#linearGradient2273);-inkscape-stroke:none"
     d="m 58.54959,44.9212 v 6 c 0,0.837121 -0.290181,1.525393 -1.042969,2.070312 -0.752787,0.54492 -2.022328,0.929688 -3.957031,0.929688 H 42.375762 c 0.29386,0.259992 0.510732,0.607203 0.611328,1 h 10.5625 c 2.065293,0 3.545758,-0.399244 4.542969,-1.121094 0.99721,-0.721849 1.457031,-1.783109 1.457031,-2.878906 v -4.847656 c 0.190958,0.05344 0.419255,0.05706 0.554688,0.169922 0.257457,0.214548 0.445312,0.538846 0.445312,1.177734 v 2 c 0,0.374105 -0.0022,0.854533 -0.05859,1.277344 -0.05639,0.42281 -0.192306,0.766606 -0.294922,0.86914 l -0.146484,0.146485 V 51.9212 c 0,1.666665 -1.68519,4 -6,4 h -11.0625 c -0.100596,0.392797 -0.317468,0.740008 -0.611328,1 h 11.673828 c 4.557057,0 6.870958,-2.523521 6.994141,-4.808594 0.284983,-0.37366 0.379706,-0.833297 0.439453,-1.28125 0.06871,-0.515136 0.06641,-1.036051 0.06641,-1.410156 v -2 c 0,-0.86111 -0.312145,-1.536814 -0.804688,-1.947266 C 60.252369,45.063483 59.632931,44.9212 59.049598,44.9212 Z" />
  <path
     style="color:#000000;fill:url(#linearGradient2530);-inkscape-stroke:none"
     d="m 36.970252,52.858952 c -1.37635,0 -2.5,1.12365 -2.5,2.5 0,1.37635 1.12365,2.5 2.5,2.5 h 4 c 1.37635,0 2.5,-1.12365 2.5,-2.5 0,-1.37635 -1.12365,-2.5 -2.5,-2.5 z m 0,1 h 4 c 0.839648,0 1.5,0.660352 1.5,1.5 0,0.839648 -0.660352,1.5 -1.5,1.5 h -4 c -0.839648,0 -1.5,-0.660352 -1.5,-1.5 0,-0.839648 0.660352,-1.5 1.5,-1.5 z"
     id="microphone_filter" />
</svg>
