<?xml version="1.0" encoding="UTF-8" standalone="no"?>
<svg
   width="47.285591"
   height="47.28569"
   version="1.1"
   id="svg63"
   sodipodi:docname="cpu.svg"
   inkscape:version="1.2.2 (b0a8486541, 2022-12-01)"
   xmlns:inkscape="http://www.inkscape.org/namespaces/inkscape"
   xmlns:sodipodi="http://sodipodi.sourceforge.net/DTD/sodipodi-0.dtd"
   xmlns:xlink="http://www.w3.org/1999/xlink"
   xmlns="http://www.w3.org/2000/svg"
   xmlns:svg="http://www.w3.org/2000/svg"
   xmlns:rdf="http://www.w3.org/1999/02/22-rdf-syntax-ns#"
   xmlns:cc="http://creativecommons.org/ns#"
   xmlns:dc="http://purl.org/dc/elements/1.1/">
  <style
     id="style1006" />
  <metadata
     id="metadata181">
    <rdf:RDF>
      <cc:Work
         rdf:about="">
        <dc:format>image/svg+xml</dc:format>
        <dc:type
           rdf:resource="http://purl.org/dc/dcmitype/StillImage" />
      </cc:Work>
    </rdf:RDF>
  </metadata>
  <sodipodi:namedview
     id="namedview65"
     pagecolor="#000000"
     bordercolor="#666666"
     borderopacity="1.0"
     inkscape:showpageshadow="2"
     inkscape:pageopacity="0.0"
     inkscape:pagecheckerboard="0"
     inkscape:deskcolor="#d1d1d1"
     showgrid="false"
     inkscape:zoom="11.351224"
     inkscape:cx="4.272667"
     inkscape:cy="20.08594"
     inkscape:window-width="1600"
     inkscape:window-height="836"
     inkscape:window-x="0"
     inkscape:window-y="0"
     inkscape:window-maximized="1"
     inkscape:current-layer="svg63"
     inkscape:document-rotation="0"
     inkscape:pageshadow="2">
    <inkscape:grid
       type="xygrid"
       id="grid468"
       originx="30.400758"
       originy="-11.147109"
       spacingy="1"
       spacingx="1"
       units="px"
       visible="false" />
  </sodipodi:namedview>
  <defs
     id="defs27">
    <linearGradient
       inkscape:collect="always"
       id="linearGradient882">
      <stop
         style="stop-color:#a8a8a8;stop-opacity:1;"
         offset="0"
         id="stop878" />
      <stop
         style="stop-color:#3a3a3a;stop-opacity:1;"
         offset="1"
         id="stop880" />
    </linearGradient>
    <linearGradient
       inkscape:collect="always"
       xlink:href="#linearGradient9400"
       id="linearGradient9402"
       x1="11.466797"
       y1="23.849609"
       x2="35.951172"
       y2="23.849609"
       gradientUnits="userSpaceOnUse"
       gradientTransform="translate(-0.06520954,-0.36202975)" />
    <linearGradient
       inkscape:collect="always"
       id="linearGradient9400">
      <stop
         style="stop-color:#19ffc7;stop-opacity:1"
         offset="0"
         id="stop9396" />
      <stop
         style="stop-color:#06ff1f;stop-opacity:1"
         offset="1"
         id="stop9398" />
    </linearGradient>
    <linearGradient
       inkscape:collect="always"
       xlink:href="#linearGradient9090"
       id="linearGradient9092"
       x1="5.1621094"
       y1="23.736328"
       x2="42.072266"
       y2="23.736328"
       gradientUnits="userSpaceOnUse"
       gradientTransform="translate(-0.06520954,-0.36202975)" />
    <linearGradient
       inkscape:collect="always"
       id="linearGradient9090">
      <stop
         style="stop-color:#008080;stop-opacity:1;"
         offset="0"
         id="stop9086" />
      <stop
         style="stop-color:#01ff99;stop-opacity:1"
         offset="1"
         id="stop9088" />
    </linearGradient>
    <linearGradient
       inkscape:collect="always"
       xlink:href="#linearGradient882"
       id="linearGradient884"
       x1="13"
       y1="23.813477"
       x2="34.654297"
       y2="23.813477"
       gradientUnits="userSpaceOnUse" />
  </defs>
  <path
     id="path1546"
     style="color:#000000;fill:#f8c44e;-inkscape-stroke:none;paint-order:stroke fill markers"
     d="m 23.079321,1.915314 0.0039,0.037109 c -0.117256,0.00465 -0.234393,0.00517 -0.351563,0.011719 l -0.472656,0.025391 v 3.4804687 c 0.331012,-0.023576 0.664267,-0.03758 1,-0.042969 V 2.9465641 c 0.130231,-0.00431 0.260329,-0.011825 0.390625,-0.013672 0.0039,1.212e-4 0.0078,-1.234e-4 0.01172,0 0.121865,0.00386 0.243463,0.013524 0.365235,0.019531 v 2.4785157 c 0.3357,0.00873 0.66913,0.025817 1,0.052734 V 2.0110171 l -0.462891,-0.033203 c -0.3013,-0.021657 -0.604307,-0.035852 -0.90625,-0.044922 h -0.02148 z m -1.58789,0.1386719 -0.5625,0.072266 c -0.607377,0.076957 -1.21184,0.1786636 -1.810547,0.3066407 l -0.396485,0.085937 v 3.5625 c 0.329963,-0.091986 0.66267,-0.1747302 1,-0.248047 V 3.3450014 c 0.255538,-0.049481 0.512321,-0.091043 0.769532,-0.1308593 v 2.4707032 c 0.330446,-0.056775 0.663643,-0.1060823 1,-0.1445313 z m 4.304687,0.00195 v 3.5078124 c 0.33629,0.041957 0.669753,0.094005 1,0.1542969 V 3.2063296 c 0.256513,0.037696 0.512651,0.077702 0.767578,0.125 v 2.5429687 c 0.337001,0.076948 0.670517,0.162196 1,0.2578125 V 2.4973453 L 28.165259,2.4153141 C 27.566348,2.2920773 26.961884,2.194627 26.354712,2.1223453 Z m 3.535156,0.6230468 v 3.6953124 c 0.338211,0.1149431 0.671193,0.2388286 1,0.373047 V 4.0676578 c 0.257648,0.08937 0.515591,0.1778635 0.769532,0.2773437 v 2.7363282 c 0.338601,0.1571491 0.673236,0.3208091 1,0.4980468 V 3.6575015 L 31.790259,3.5305484 C 31.196849,3.2871112 30.59233,3.0701449 29.979712,2.8801578 Z M 17.954321,2.7004703 17.30979,2.8957828 c -0.612388,0.1853373 -1.216903,0.398063 -1.810547,0.6367186 l -0.3125,0.1269533 v 3.8261718 c 0.327178,-0.1726198 0.661259,-0.3337169 1,-0.4863281 V 4.3489078 c 0.253273,-0.097112 0.510709,-0.1824454 0.767578,-0.2695313 v 2.5957032 c 0.328959,-0.130088 0.661853,-0.2504479 1,-0.3613282 z M 3.6496343,15.194611 3.5226811,15.505158 c -0.2434372,0.593407 -0.4604034,1.195976 -0.6503906,1.808593 l -0.2011719,0.648438 h 3.7578125 c 0.1068185,-0.338296 0.2255788,-0.670691 0.3515625,-1 H 4.0597905 c 0.089192,-0.257061 0.1780871,-0.514209 0.2773438,-0.767578 h 2.7558593 c 0.1481531,-0.339114 0.3084511,-0.672195 0.4765625,-1 z m 35.8847647,0 c 0.168112,0.327805 0.32841,0.660886 0.476563,1 h 2.933594 c 0.09712,0.253275 0.182437,0.510705 0.269531,0.767578 h -2.890625 c 0.125984,0.329309 0.244744,0.661704 0.351562,1 h 3.917969 L 44.397681,17.317658 C 44.212324,16.70526 43.999639,16.100762 43.760962,15.507111 l -0.125,-0.3125 z M 2.489478,18.729767 2.4074467,19.130158 C 2.2842104,19.72907 2.1867591,20.331579 2.114478,20.938751 l -0.066406,0.560547 h 3.6464844 c 0.034907,-0.336411 0.081541,-0.669368 0.1347656,-1 H 3.1984624 c 0.037765,-0.257153 0.077585,-0.513972 0.125,-0.769531 h 2.6445312 c 0.069603,-0.337643 0.1500087,-0.669574 0.2382813,-1 z m 38.408203,0 c 0.08827,0.330426 0.168678,0.662357 0.238281,1 h 2.814453 c 0.04948,0.255539 0.09104,0.512317 0.130859,0.769531 h -2.80664 c 0.05322,0.330632 0.09986,0.663589 0.134765,1 h 3.830079 l -0.07031,-0.5625 c -0.07697,-0.607378 -0.180606,-1.211832 -0.308594,-1.810547 l -0.08398,-0.396484 z M 2.0031499,22.266876 1.9699467,22.73172 c -0.021651,0.301302 -0.035857,0.602354 -0.044922,0.904297 l -0.00195,0.01172 v 0.0098 c 0.00428,0.301848 0.016345,0.60485 0.033203,0.90625 l 0.025391,0.470703 h 3.6933594 c -0.030327,-0.330679 -0.048399,-0.664376 -0.060547,-1 H 2.9367436 c -0.00407,-0.123068 -0.011799,-0.246014 -0.013672,-0.36914 v -0.0098 c 0.00395,-0.129703 0.015094,-0.259073 0.021484,-0.388672 h 2.6542969 c 0.00197,-0.335768 0.014992,-0.66884 0.035156,-1 z m 39.4667961,0 c 0.02016,0.33116 0.03318,0.664232 0.03516,1 h 2.84375 c 0.0042,0.126041 0.01179,0.252788 0.01367,0.378906 -0.004,0.130332 -0.01309,0.260398 -0.01953,0.390626 h -2.853515 c -0.01218,0.335619 -0.03018,0.669325 -0.06055,1 h 3.853515 l 0.0332,-0.464844 c 0.02166,-0.301298 0.03782,-0.602347 0.04687,-0.904297 v -0.01172 -0.01172 c -0.0043,-0.301788 -0.01439,-0.602861 -0.03125,-0.904297 l -0.02734,-0.472656 z m -39.4238274,3.53711 0.072266,0.5625 c 0.07696,0.607376 0.1786618,1.211839 0.3066406,1.810546 l 0.083984,0.394532 h 3.8535156 c -0.099329,-0.328962 -0.1869159,-0.663367 -0.2675782,-1 H 3.3371343 c -0.049336,-0.254912 -0.09114,-0.511002 -0.1308594,-0.767578 h 2.7226562 c -0.063845,-0.330011 -0.1185599,-0.663813 -0.1640625,-1 z m 39.2929684,0 c -0.0455,0.336187 -0.100218,0.669989 -0.164063,1 h 2.914063 c -0.03768,0.256565 -0.07772,0.512599 -0.125,0.767578 h -2.955078 c -0.08066,0.336633 -0.16825,0.671038 -0.267578,1 h 4.054687 l 0.08203,-0.398438 c 0.12324,-0.598917 0.222638,-1.203369 0.294922,-1.810547 l 0.06641,-0.558593 z m -38.646484,3.537109 0.1953125,0.644531 c 0.1853388,0.612388 0.3980615,1.21495 0.6367188,1.808594 l 0.125,0.314453 H 7.864478 c -0.1829801,-0.327925 -0.3588804,-0.659826 -0.5214844,-1 h -3 C 4.245773,30.85521 4.1586879,30.598161 4.0715093,30.341095 h 2.9277343 c -0.1383928,-0.328376 -0.2637355,-0.662011 -0.3828125,-1 z m 37.794921,0 c -0.119077,0.337989 -0.244419,0.671624 -0.382812,1 h 3.121094 c -0.08915,0.256946 -0.176184,0.51432 -0.275391,0.767578 h -3.189453 c -0.162604,0.340174 -0.338504,0.672075 -0.521484,1 h 4.396484 l 0.126953,-0.310547 c 0.24343,-0.593414 0.460412,-1.197924 0.650391,-1.810547 l 0.201172,-0.646484 z m -8.386718,9.828125 c -0.326764,0.177238 -0.661399,0.340898 -1,0.498047 v 3.285156 c -0.253928,0.0974 -0.511989,0.182213 -0.769532,0.269531 v -3.220703 c -0.328807,0.134219 -0.661789,0.258104 -1,0.373047 v 4.226563 l 0.644532,-0.195313 c 0.612392,-0.185341 1.216899,-0.396104 1.810546,-0.634766 l 0.314454,-0.126953 z m -16.914063,0.09375 v 4.380859 l 0.308594,0.128907 c 0.593413,0.243431 1.197925,0.460409 1.810547,0.65039 l 0.648437,0.201172 v -4.189453 c -0.338147,-0.11088 -0.671041,-0.23124 -1,-0.361328 v 3.162109 c -0.257062,-0.08919 -0.514206,-0.178089 -0.767578,-0.277344 v -3.208984 c -0.338741,-0.152611 -0.672822,-0.313708 -1,-0.486328 z m 13.376953,1.353516 c -0.329483,0.09562 -0.662999,0.180864 -1,0.257812 v 3.083984 c -0.254908,0.04936 -0.511005,0.09112 -0.767578,0.13086 v -3.058594 c -0.330247,0.06029 -0.66371,0.11234 -1,0.154297 v 4.0625 l 0.5625,-0.07031 c 0.607378,-0.07696 1.209884,-0.180613 1.808594,-0.308593 l 0.396484,-0.08398 z m -9.841797,0.05078 v 4.136719 l 0.400391,0.08203 c 0.598911,0.123237 1.201423,0.22264 1.808594,0.294922 l 0.560547,0.06641 v -4.039063 c -0.336357,-0.03845 -0.669554,-0.08776 -1,-0.144531 v 3.033203 c -0.257199,-0.03777 -0.513927,-0.07758 -0.769532,-0.125 v -3.05664 c -0.33733,-0.07332 -0.670037,-0.156061 -1,-0.248047 z m 6.304688,0.597656 c -0.33087,0.02692 -0.6643,0.044 -1,0.05273 v 3.039062 c -0.123083,0.0041 -0.245983,0.01179 -0.369141,0.01367 -0.0026,-7.8e-5 -0.0052,7.9e-5 -0.0078,0 -0.130331,-0.004 -0.260397,-0.01311 -0.390625,-0.01953 v -3.029297 c -0.335733,-0.0054 -0.668988,-0.01939 -1,-0.04297 v 4.011719 l 0.464843,0.0332 c 0.301298,0.02166 0.602348,0.03782 0.904297,0.04687 h 0.01172 0.0098 c 0.301787,-0.0043 0.604817,-0.01439 0.90625,-0.03125 l 0.470703,-0.02734 z"
     sodipodi:nodetypes="cccccccccccccccccccccccccccccccccccccccccccccccccccccccccccccccccccccccccccccccccccccccccccccccccccccccccccccccccccccccccccccccccccccccccccccccccccccccccccccccccccccccccccccccccccccccccccccccccccccccccccccccccccccccccccccccccccccccccccccccc" />
  <path
     style="color:#000000;fill:url(#linearGradient9092);fill-opacity:1;-inkscape-stroke:none;paint-order:stroke fill markers"
     d="M 23.551977,4.9192203 C 13.365369,4.9190316 5.0967115,13.18769 5.0968999,23.374298 5.0967115,33.560907 13.365369,41.829565 23.551977,41.829376 33.738586,41.829564 42.007244,33.560906 42.007056,23.374298 42.007244,13.18769 33.738586,4.9190319 23.551977,4.9192203 Z m 0,1 C 33.198133,5.9190418 41.007234,13.728142 41.007056,23.374298 41.007234,33.020454 33.198133,40.829554 23.551977,40.829376 13.905822,40.829555 6.0967215,33.020454 6.0968999,23.374298 6.0967215,13.728142 13.905822,5.9190415 23.551977,5.9192203 Z M 13.360571,10.745392 c -1.353556,0 -2.458984,1.105427 -2.458984,2.458984 v 20.566406 c 0,1.353557 1.105427,2.458985 2.458984,2.458985 h 20.566406 c 1.353557,0 2.458985,-1.105427 2.458985,-2.458985 V 13.204376 c 0,-1.353558 -1.105429,-2.458984 -2.458985,-2.458984 -7.185669,-0.174124 -13.449916,0 -20.566406,0 z m -5e-6,1 c 6.855469,0 13.710937,0 20.566406,0 0.816679,0 1.458985,0.642304 1.458985,1.458984 v 20.566406 c 0,0.816679 -0.642307,1.458985 -1.458985,1.458985 H 13.360571 c -0.816679,0 -1.458984,-0.642305 -1.458984,-1.458985 V 13.204376 c 0,-0.81668 0.642305,-1.458984 1.458984,-1.458984 z"
     id="circle2-3"
     sodipodi:nodetypes="cccccccccccssssssccccsssssscc" />
  <path
     id="path9630"
     style="color:#000000;fill:url(#linearGradient9402);-inkscape-stroke:none"
     d="m 13.361328,10.746094 c -1.353556,0 -2.458984,1.105427 -2.458984,2.458984 v 20.566406 c 0,1.353557 1.105427,2.458985 2.458984,2.458985 6.855469,0 13.710937,0 20.566406,0 1.353557,0 2.458985,-1.105427 2.458985,-2.458985 V 13.205078 c 0,-1.353558 -1.105429,-2.458984 -2.458985,-2.458984 z m 0,1 h 20.566406 c 0.816679,0 1.458985,0.642304 1.458985,1.458984 v 20.566406 c 0,0.816679 -0.642307,1.458985 -1.458985,1.458985 -6.855469,0 -13.710937,0 -20.566406,0 -0.816679,0 -1.458984,-0.642305 -1.458984,-1.458985 V 13.205078 c 0,-0.81668 0.642305,-1.458984 1.458984,-1.458984 z"
     sodipodi:nodetypes="cssccssccccssccssc" />
  <path
     style="color:#000000;fill:url(#linearGradient884);-inkscape-stroke:none;fill-opacity:1"
     d="m 26.644531,12.986328 -0.353515,0.353516 -3.273438,3.273437 4.380859,4.382813 -4.380859,4.380859 3.626953,3.628906 4.736328,-4.734375 3.273438,-3.27539 -3.273438,-3.275391 z m -8.033203,0.207031 c -0.976353,0 -1.777344,0.800991 -1.777344,1.777344 0,0.976354 0.800991,1.779297 1.777344,1.779297 0.976353,0 1.779297,-0.802943 1.779297,-1.779297 0,-0.976353 -0.802944,-1.777344 -1.779297,-1.777344 z m 0,1 c 0.439656,0 0.779297,0.337688 0.779297,0.777344 0,0.439657 -0.339641,0.779297 -0.779297,0.779297 -0.439657,0 -0.777344,-0.33964 -0.777344,-0.779297 0,-0.439655 0.337687,-0.777344 0.777344,-0.777344 z m 8.033203,0.207032 4.029297,4.027343 2.566406,2.56836 -2.566406,2.566406 -4.029297,4.029297 -2.21289,-2.214844 4.380859,-4.380859 -4.380859,-4.382813 z M 15.417969,20.861328 C 14.087621,20.861328 13,21.946993 13,23.277344 c 0,1.33035 1.087614,2.417968 2.417969,2.417968 1.330366,0 2.416015,-1.087616 2.416015,-2.417968 0,-1.330352 -1.085656,-2.416016 -2.416015,-2.416016 z m 0,1 c 0.793666,0 1.416015,0.622368 1.416015,1.416016 0,0.793648 -0.622356,1.417969 -1.416015,1.417968 C 14.624328,24.695312 14,24.070993 14,23.277344 c 0,-0.79365 0.624321,-1.416016 1.417969,-1.416016 z m 5.75,6.667969 c -1.684364,0 -3.056641,1.370345 -3.056641,3.054687 0,1.684359 1.372277,3.056641 3.056641,3.056641 1.68436,0 3.05664,-1.372281 3.05664,-3.056641 0,-1.684342 -1.372279,-3.054687 -3.05664,-3.054687 z m 0,1 c 1.147652,0 2.05664,0.907051 2.05664,2.054687 0,1.147662 -0.908987,2.056641 -2.05664,2.056641 -1.147658,0 -2.056641,-0.908978 -2.056641,-2.056641 0,-1.147637 0.908984,-2.054687 2.056641,-2.054687 z"
     id="path4783-6-6" />
</svg>
