<?xml version="1.0" encoding="UTF-8" standalone="no"?>
<svg
   width="64"
   height="64"
   version="1.1"
   id="svg56"
   sodipodi:docname="drive-removable-media.svg"
   inkscape:version="1.1.2 (0a00cf5339, 2022-02-04)"
   xmlns:inkscape="http://www.inkscape.org/namespaces/inkscape"
   xmlns:sodipodi="http://sodipodi.sourceforge.net/DTD/sodipodi-0.dtd"
   xmlns:xlink="http://www.w3.org/1999/xlink"
   xmlns="http://www.w3.org/2000/svg"
   xmlns:svg="http://www.w3.org/2000/svg"
   xmlns:rdf="http://www.w3.org/1999/02/22-rdf-syntax-ns#"
   xmlns:cc="http://creativecommons.org/ns#"
   xmlns:dc="http://purl.org/dc/elements/1.1/">
  <metadata
     id="metadata60">
    <rdf:RDF>
      <cc:Work
         rdf:about="">
        <dc:format>image/svg+xml</dc:format>
        <dc:type
           rdf:resource="http://purl.org/dc/dcmitype/StillImage" />
        <dc:title />
      </cc:Work>
    </rdf:RDF>
  </metadata>
  <sodipodi:namedview
     pagecolor="#ffffff"
     bordercolor="#666666"
     borderopacity="1"
     objecttolerance="10"
     gridtolerance="10"
     guidetolerance="10"
     inkscape:pageopacity="0"
     inkscape:pageshadow="2"
     inkscape:window-width="937"
     inkscape:window-height="480"
     id="namedview58"
     showgrid="false"
     inkscape:zoom="3.6875"
     inkscape:cx="26.576271"
     inkscape:cy="32"
     inkscape:window-x="0"
     inkscape:window-y="0"
     inkscape:window-maximized="0"
     inkscape:current-layer="svg56"
     inkscape:pagecheckerboard="0" />
  <defs
     id="defs34">
    <linearGradient
       inkscape:collect="always"
       id="linearGradient1141">
      <stop
         style="stop-color:#9c33c4;stop-opacity:1;"
         offset="0"
         id="stop1137" />
      <stop
         style="stop-color:#ff0a4c;stop-opacity:1"
         offset="0.52936059"
         id="stop1356" />
      <stop
         style="stop-color:#f79a00;stop-opacity:1"
         offset="1"
         id="stop1139" />
    </linearGradient>
    <linearGradient
       id="_lgradient_15"
       x1="0.34027779"
       y1="0.036585364"
       x2="1.0087188"
       y2="1.0127324"
       gradientTransform="matrix(32,0,0,44,8,2)"
       gradientUnits="userSpaceOnUse">
      <stop
         offset="0%"
         stop-opacity="1"
         style="stop-color:rgb(156,51,196)"
         id="stop2-3" />
      <stop
         offset="51.30434782608696%"
         stop-opacity="1"
         style="stop-color:rgb(255,25,80)"
         id="stop4-6" />
      <stop
         offset="98.69565217391305%"
         stop-opacity="1"
         style="stop-color:rgb(255,135,36)"
         id="stop6" />
    </linearGradient>
    <linearGradient
       inkscape:collect="always"
       xlink:href="#linearGradient1141"
       id="linearGradient1143"
       x1="9.6660156"
       y1="32"
       x2="54.333984"
       y2="32"
       gradientUnits="userSpaceOnUse" />
  </defs>
  <path
     style="color:#000000;isolation:isolate;fill:url(#linearGradient1143);fill-rule:evenodd;-inkscape-stroke:none;fill-opacity:1"
     d="M 22.666016,1.6660156 C 18.444124,1.6660156 15,5.1120934 15,9.3339844 v 6.1503906 c -3.063783,1.000434 -5.3339844,3.789408 -5.3339844,7.181641 v 12 c 0,2.014954 1.6530134,3.667968 3.6679684,3.667968 C 15.348939,38.333984 17,36.68097 17,34.666016 v -9.332032 c 0,-1.668637 1.331362,-3 3,-3 h 24 c 1.668638,0 3,1.331363 3,3 v 1.332032 c 0,2.014954 1.651061,3.667968 3.666016,3.667968 2.014955,0 3.667968,-1.653014 3.667968,-3.667968 v -4 c 0,-3.392233 -2.270202,-6.181207 -5.333984,-7.181641 V 9.3339844 C 49,5.1120933 45.555876,1.6660156 41.333984,1.6660156 Z m 0,2 H 41.333984 C 44.473884,3.6660156 47,6.1940858 47,9.3339844 V 16 16.951172 l 0.802734,0.162109 c 2.581588,0.526028 4.53125,2.804542 4.53125,5.552735 v 4 c 0,0.933683 -0.734285,1.667968 -1.667968,1.667968 C 49.732332,28.333984 49,27.5997 49,26.666016 v -1.332032 c 0,-2.750391 -2.24961,-5 -5,-5 H 20 c -2.750391,0 -5,2.249609 -5,5 v 9.332032 c 0,0.933683 -0.732332,1.667968 -1.666016,1.667968 -0.933683,0 -1.667968,-0.734285 -1.667968,-1.667968 v -12 c 0,-2.748193 1.949662,-5.026703 4.53125,-5.552735 L 17,16.951172 V 16.132812 16 9.3339844 C 17,6.1940858 19.526117,3.6660156 22.666016,3.6660156 Z M 24,7 c -2.014954,0 -3.666016,1.6510613 -3.666016,3.666016 V 17 h 1 22.332032 V 10.666016 C 43.666016,8.6510611 42.014954,7 40,7 Z m 0,1 C 23.265375,8 22.598244,8.3001933 22.115234,8.7832031 22.598239,8.2995476 23.2643,8 24,8 Z m 16,0 c 0.7357,0 1.40176,0.2995475 1.884766,0.7832031 C 41.401756,8.3001934 40.734625,8 40,8 Z M 24,9 h 2.333984 V 9.3339844 15 h -4 V 10.666016 C 22.333984,9.7323329 23.066316,9 24,9 Z m 7,0 h 2 V 9.3339844 15 h -2 z m 6.666016,0 H 40 c 0.933684,0 1.666016,0.7323331 1.666016,1.666016 V 15 h -4 z m -9.332032,1.333984 H 29 v 3.332032 h -0.666016 z m 6.666016,0 h 0.666016 v 3.332032 H 35 Z m -22.904297,8.257813 c -0.09518,0.122229 -0.14382,0.27549 -0.230469,0.404297 0.08815,-0.127892 0.133674,-0.283085 0.230469,-0.404297 z m 39.808594,0 c 0.0968,0.121212 0.142321,0.276405 0.230469,0.404297 -0.08665,-0.128807 -0.135288,-0.282068 -0.230469,-0.404297 z m -40.845703,1.853515 c -0.246755,0.696189 -0.392578,1.44056 -0.392578,2.220704 0,-0.782974 0.141491,-1.527555 0.392578,-2.220704 z m 41.882812,0 c 0.251087,0.693149 0.392578,1.43773 0.392578,2.220704 0,-0.780144 -0.145823,-1.524515 -0.392578,-2.220704 z M 32,24.78125 l -0.423828,0.677734 -0.423828,0.677735 -4.083985,6.535156 C 26.367706,32.070277 25.488137,31.666016 24.5,31.666016 c -2.195455,0 -4,1.80312 -4,4 0,1.192008 0.623668,2.217 1.5,2.953125 v 1.546875 c 0,1.84802 1.041283,3.015758 2.052734,3.521484 0.986719,0.493361 1.943638,0.478568 1.947266,0.478516 h 3.5 v 0.550781 c -0.875646,0.735364 -1.5,1.757371 -1.5,2.949219 0,2.196456 1.803545,4 4,4 2.196456,0 4,-1.803544 4,-4 0,-1.191848 -0.624353,-2.213855 -1.5,-2.949219 V 44.166016 H 38 c 0.0036,5.2e-5 0.960526,0.01492 1.947266,-0.478516 C 40.958717,43.181774 42,42.014036 42,40.166016 v -0.953125 c 0.810443,-0.375214 1.5,-1.054047 1.5,-2.046875 v -3 c 0,-1.372394 -1.127607,-2.5 -2.5,-2.5 h -3 c -0.543121,0 -0.983059,0.232474 -1.367188,0.527343 z m 16,1.884766 c 0,0.734624 0.300194,1.401755 0.783203,1.884765 C 48.299548,28.067776 48,27.401715 48,26.666016 Z m -16,0.002 -0.423828,0.679687 -3.324219,5.31836 z m 0,1.886718 1.943359,3.111329 H 32.5 v 9.5 H 39 v -3.5 h -1 c -0.302363,0 -0.5,-0.197637 -0.5,-0.5 v -3 c 0,-0.302365 0.197636,-0.5 0.5,-0.5 h 3 c 0.302364,0 0.5,0.197635 0.5,0.5 v 3 c 0,0.302363 -0.197637,0.5 -0.5,0.5 h -1 v 2.5 c 0,0.592513 -0.126096,0.945869 -0.291016,1.191406 -0.164919,0.245536 -0.384701,0.403289 -0.65625,0.539062 -0.511585,0.255794 -1.058593,0.269532 -1.058593,0.269532 H 32.5 v 3.480468 L 32.998047,45.9375 C 33.622792,46.300516 34,46.957099 34,47.666016 c 0,1.106854 -0.893146,2 -2,2 -1.106853,0 -2,-0.893146 -2,-2 0,-0.708917 0.377208,-1.3655 1.001953,-1.728516 L 31.5,45.646484 v -3.480468 h -5.494141 c 0,0 -0.546977,-0.01377 -1.058593,-0.269532 -0.271549,-0.135773 -0.491331,-0.293526 -0.65625,-0.539062 C 24.126096,41.111885 24,40.758529 24,40.166016 V 37.683594 L 23.501953,37.398437 C 22.878301,37.036058 22.5,36.374816 22.5,35.666016 c 0,-1.106157 0.895071,-2 2,-2 1.106854,0 2,0.893145 2,2 0,0.7088 -0.378301,1.370042 -1.001953,1.732421 L 25,37.683594 v 3.482422 h 6.5 v -9.5 H 30.056641 Z M 50.666016,31 C 48.651061,31 47,32.651061 47,34.666016 c 0,2.014954 1.651061,3.667968 3.666016,3.667968 2.014955,0 3.667968,-1.653014 3.667968,-3.667968 C 54.333984,32.651061 52.680971,31 50.666016,31 Z m 0,1 c 0.7357,0 1.40176,0.299548 1.884765,0.783203 C 52.067771,32.300193 51.400641,32 50.666016,32 Z m 0,0 C 49.196766,32 48,33.196766 48,34.666016 c 0,0.734624 0.300193,1.401756 0.783203,1.884765 C 48.299548,36.067776 48,35.401715 48,34.666016 48,33.195915 49.195916,32 50.666016,32 Z M 41,32.666016 c 0.826122,0 1.5,0.673877 1.5,1.5 0,-0.821783 -0.678219,-1.5 -1.5,-1.5 z M 50.666016,33 c 0.933683,0 1.667968,0.732332 1.667968,1.666016 0,0.933683 -0.734284,1.667968 -1.667968,1.667968 C 49.732332,36.333984 49,35.5997 49,34.666016 49,33.732332 49.732332,33 50.666016,33 Z m -28.285157,0.548828 c 4.28e-4,-4.27e-4 0.0015,4.27e-4 0.002,0 C 21.838854,34.092619 21.5,34.841181 21.5,35.666016 21.5,36.140742 21.649602,36.587898 21.857422,37 21.629441,36.594108 21.5,36.142172 21.5,35.666016 c 0,-0.824975 0.336936,-1.573432 0.880859,-2.117188 z m 5.5,0.117188 H 29.5 v 5.5 H 27 v -0.546875 c 0.876333,-0.736125 1.5,-1.761118 1.5,-2.953125 0,-0.74294 -0.261045,-1.401556 -0.619141,-2 z m 6.619141,0 h 1.195312 C 35.625184,33.842997 35.5,33.937144 35.5,34.166016 v 3 c 0,0.959238 0.651974,1.612974 1.423828,2 H 34.5 Z m -18.5,1 c 0,0.735699 -0.299548,1.40176 -0.783203,1.884765 C 15.699807,36.067772 16,35.400641 16,34.666016 Z m 11.5,1 C 27.5,36.142173 27.370559,36.594108 27.142578,37 27.350398,36.587898 27.5,36.140742 27.5,35.666016 Z m 9,1.5 c 0,0.32967 0.169737,0.600665 0.353516,0.849609 C 36.635811,37.790118 36.5,37.508782 36.5,37.166016 Z m 6,0 c 0,0.342766 -0.135811,0.624102 -0.353516,0.849609 C 42.330263,37.766681 42.5,37.495686 42.5,37.166016 Z M 13.333984,39 c -2.014955,0 -3.6679684,1.651061 -3.6679684,3.666016 0,2.014954 1.6530134,3.667968 3.6679684,3.667968 C 15.348939,46.333984 17,44.68097 17,42.666016 17,40.65106 15.348939,39 13.333984,39 Z m 37.332032,0 C 48.651061,39 47,40.651061 47,42.666016 V 52 c 0,1.668637 -1.331362,3 -3,3 H 20 c -1.668638,0 -3,-1.331363 -3,-3 V 50.666016 C 17,48.651061 15.348939,47 13.333984,47 11.319029,47 9.6660156,48.651061 9.6660156,50.666016 v 4 c 0,4.221891 3.4460774,7.667968 7.6679684,7.667968 h 29.332032 c 4.221891,0 7.667968,-3.446077 7.667968,-7.667968 v -12 C 54.333984,40.651061 52.680971,39 50.666016,39 Z M 13.333984,40 C 14.804085,40 16,41.195914 16,42.666016 c 0,0.735699 -0.299548,1.40176 -0.783203,1.884765 C 15.699807,44.067772 16,43.400641 16,42.666016 16,41.196766 14.803234,40 13.333984,40 Z m 0,0 C 12.59936,40 11.932229,40.300193 11.449219,40.783203 11.932224,40.299548 12.598284,40 13.333984,40 Z m 37.332032,0 c 0.7357,0 1.40176,0.299548 1.884765,0.783203 C 52.067771,40.300193 51.400641,40 50.666016,40 Z m 0,0 C 49.196766,40 48,41.196766 48,42.666016 48,41.195914 49.195915,40 50.666016,40 Z M 13.333984,41 C 14.267668,41 15,41.732332 15,42.666016 c 0,0.933683 -0.732332,1.667968 -1.666016,1.667968 -0.933683,0 -1.667968,-0.734285 -1.667968,-1.667968 C 11.666016,41.732332 12.400302,41 13.333984,41 Z m 37.332032,0 c 0.933683,0 1.667968,0.732332 1.667968,1.666016 v 12 c 0,3.139899 -2.528069,5.667968 -5.667968,5.667968 H 17.333984 c -3.139898,0 -5.667968,-2.528069 -5.667968,-5.667968 v -4 C 11.666016,49.732332 12.400301,49 13.333984,49 14.267668,49 15,49.732332 15,50.666016 V 52 c 0,2.75039 2.249609,5 5,5 h 24 c 2.750391,0 5,-2.249609 5,-5 V 42.666016 C 49,41.732332 49.732332,41 50.666016,41 Z m -26.230469,1.736328 c 0.02257,0.01185 0.0421,0.04351 0.06445,0.05469 0.599988,0.299942 0.980974,0.288597 1.195312,0.300781 -0.215608,-0.01193 -0.596064,7.97e-4 -1.195312,-0.298828 -0.02297,-0.01149 -0.04142,-0.04432 -0.06445,-0.05664 z m 15.128906,0 c -0.02303,0.01232 -0.04148,0.04516 -0.06445,0.05664 -0.599232,0.299654 -0.979713,0.286909 -1.195313,0.298828 0.214352,-0.01217 0.595303,-7.75e-4 1.195313,-0.300781 0.02235,-0.01118 0.04189,-0.04283 0.06445,-0.05469 z M 29.357422,46.332031 C 29.148569,46.744374 29,47.190182 29,47.666016 c 0,-0.476521 0.129011,-0.9284 0.357422,-1.333985 z m 5.285156,0 C 34.870989,46.737616 35,47.189495 35,47.666016 35,47.190182 34.851431,46.744374 34.642578,46.332031 Z M 13.333984,48 C 14.804085,48 16,49.195916 16,50.666016 16,49.196766 14.803234,48 13.333984,48 Z m 0,0 C 12.59936,48 11.932229,48.300194 11.449219,48.783203 11.932224,48.299548 12.598284,48 13.333984,48 Z"
     id="path9" />
</svg>
