<?xml version="1.0" encoding="UTF-8" standalone="no"?>
<svg
   width="64"
   height="64"
   version="1.1"
   id="svg358"
   sodipodi:docname="drive-multidisk.svg"
   inkscape:version="1.1.2 (0a00cf5339, 2022-02-04)"
   xmlns:inkscape="http://www.inkscape.org/namespaces/inkscape"
   xmlns:sodipodi="http://sodipodi.sourceforge.net/DTD/sodipodi-0.dtd"
   xmlns:xlink="http://www.w3.org/1999/xlink"
   xmlns="http://www.w3.org/2000/svg"
   xmlns:svg="http://www.w3.org/2000/svg">
  <sodipodi:namedview
     id="namedview360"
     pagecolor="#ffffff"
     bordercolor="#666666"
     borderopacity="1.0"
     inkscape:pageshadow="2"
     inkscape:pageopacity="0.0"
     inkscape:pagecheckerboard="0"
     showgrid="false"
     inkscape:zoom="10.21875"
     inkscape:cx="31.95107"
     inkscape:cy="32"
     inkscape:window-width="1600"
     inkscape:window-height="836"
     inkscape:window-x="0"
     inkscape:window-y="0"
     inkscape:window-maximized="1"
     inkscape:current-layer="svg358" />
  <defs
     id="defs114">
    <linearGradient
       inkscape:collect="always"
       id="linearGradient847">
      <stop
         style="stop-color:#1a6cff;stop-opacity:1;"
         offset="0"
         id="stop843" />
      <stop
         style="stop-color:#e01aff;stop-opacity:1"
         offset="1"
         id="stop845" />
    </linearGradient>
    <linearGradient
       id="_lgradient_19"
       x1="0.67180997"
       y1="0.020570019"
       x2="0.42214948"
       y2="0.96016449"
       gradientTransform="matrix(37,0,0,46,5.5,1)"
       gradientUnits="userSpaceOnUse">
      <stop
         offset="0%"
         stop-opacity="1"
         style="stop-color:rgb(26,108,255)"
         id="stop2" />
      <stop
         offset="100%"
         stop-opacity="1"
         style="stop-color:rgb(197,34,255)"
         id="stop4" />
    </linearGradient>
    <linearGradient
       inkscape:collect="always"
       xlink:href="#linearGradient847"
       id="linearGradient849"
       x1="6.3339844"
       y1="32.000025"
       x2="57.666016"
       y2="32.000025"
       gradientUnits="userSpaceOnUse" />
  </defs>
  <path
     style="color:#000000;isolation:isolate;fill:url(#linearGradient849);fill-rule:evenodd;-inkscape-stroke:none;fill-opacity:1"
     d="m 15.181641,0.33398438 c -4.872869,0 -8.8476566,3.97478792 -8.8476566,8.84765622 v 2.2421874 c 0,1.780906 1.4612817,3.242188 3.2421875,3.242188 1.7809061,0 3.2421871,-1.461282 3.2421871,-3.242188 0,-2.5528991 2.052571,-4.6054685 4.605469,-4.6054686 h 9.960938 c -1.941353,0.6328397 -3.792633,1.5259118 -5.353516,2.9160156 -0.874487,0.772048 -0.959243,2.128964 -0.183594,3 0.773606,0.868744 2.125993,0.946006 2.992188,0.169922 l 0.002,-0.002 c 1.397578,-1.241575 3.085786,-2.028788 4.867187,-2.417969 -0.377542,0.369183 -0.634835,0.867242 -0.654297,1.431641 -0.04001,1.16279 0.884643,2.155225 2.048829,2.191406 1.536189,0.04885 3.003295,0.613229 4.179687,1.59375 0.250968,0.211072 0.415646,0.498292 0.632813,0.742187 C 34.8215,15.489435 33.450503,14.908203 32,14.908203 c -0.05396,0 -0.102422,0.02981 -0.15625,0.03125 -1.537715,0.04103 -3.021485,0.637506 -4.115234,1.742188 -3.1e-4,3.13e-4 -0.0021,0.0021 -0.002,0.002 l -0.002,0.002 c -1.142397,1.13215 -1.769531,2.675642 -1.769531,4.269531 0,1.595627 0.628958,3.139295 1.773438,4.271484 6.49e-4,6.57e-4 0.0013,0.0013 0.002,0.002 6.57e-4,6.49e-4 0.0013,0.0013 0.002,0.002 C 28.864206,26.372053 30.406139,27 32,27 c 1.59386,0 3.135795,-0.627947 4.267578,-1.769531 l 0.002,-0.002 c 1.145731,-1.132367 1.775391,-2.676896 1.775391,-4.273438 0,-0.367033 -0.145867,-0.705179 -0.210938,-1.0625 0.406769,0.876902 1.281518,1.475932 2.263672,1.265625 h 0.0039 c 1.134621,-0.246021 1.863788,-1.38143 1.621094,-2.517578 C 41.215624,16.221476 39.89684,14.040906 38,12.453125 c -0.754642,-0.631992 -1.629112,-1.069994 -2.511719,-1.478516 2.134183,0.75099 4.078752,1.983417 5.371094,3.867188 l 0.0039,0.0039 0.002,0.0059 c 1.620345,2.338583 2.242752,5.249295 1.728516,8.050781 -0.513352,2.804541 -2.130195,5.30302 -4.478516,6.914062 l -0.0078,0.0059 c -2.339063,1.621274 -5.248781,2.244798 -8.050781,1.730468 -2.74478,-0.50382 -5.192869,-2.056732 -6.822266,-4.328125 -1.625366,-2.266252 -2.29727,-5.093637 -1.884766,-7.855468 v -0.0059 c 0.165307,-1.152082 -0.645722,-2.234046 -1.794922,-2.404297 -1.150909,-0.170133 -2.234135,0.638027 -2.402343,1.78711 -0.583194,3.852223 0.36974,7.775416 2.630859,10.947265 v 0.002 c 2.265729,3.164305 5.677717,5.328472 9.505859,6.03125 3.912085,0.717264 7.967625,-0.150244 11.240235,-2.408203 3.274227,-2.258086 5.51967,-5.740166 6.238281,-9.65039 C 47.484841,19.755885 46.617334,15.702297 44.359375,12.429688 42.535686,9.7870108 39.89828,7.8596358 36.898437,6.8183594 h 9.677735 c 2.552898,0 4.605469,2.0525696 4.605469,4.6054686 V 34.96875 c 0,1.780907 1.461282,3.242188 3.242187,3.242187 1.780907,0 3.242188,-1.46128 3.242188,-3.242187 V 9.1816406 c 0,-4.8728682 -3.974788,-8.84765622 -8.847657,-8.84765622 z m 6.167968,19.02929662 0.0039,-0.03125 v -0.04102 z m 18.748047,1.794922 -0.105469,0.01172 h 0.05664 z M 15.181641,2.3339844 h 33.636718 c 3.789889,0 6.847657,3.0577677 6.847657,6.8476562 V 34.96875 c 0,0.698975 -0.543213,1.242187 -1.242188,1.242187 -0.698972,0 -1.242187,-0.543212 -1.242187,-1.242187 V 11.423828 c 0,-3.6357891 -2.969681,-6.6054686 -6.605469,-6.6054686 H 17.423828 c -3.635788,0 -6.605469,2.9696795 -6.605469,6.6054686 0,0.698973 -0.543213,1.242188 -1.2421871,1.242188 -0.6989734,0 -1.2421875,-0.543215 -1.2421875,-1.242188 V 9.1816406 c 0,-3.7898885 3.0577666,-6.8476562 6.8476566,-6.8476562 z m 16.15625,4.6230468 c 1.057354,-0.050236 2.128142,0.020181 3.189453,0.2148438 -1.06137,-0.1946725 -2.12832,-0.2631497 -3.185547,-0.2128906 -3.092987,0.1470354 -6.064783,1.3506401 -8.447266,3.4003906 2.382606,-2.0507718 5.349408,-3.2553463 8.44336,-3.4023438 z m 0.05078,1 c 0.982,-0.046683 1.973492,0.018463 2.958984,0.1992188 3.389514,0.62269 6.408527,2.572772 8.365235,5.408203 1.955407,2.834102 2.711196,6.351258 2.089843,9.740234 -0.622671,3.388178 -2.575223,6.412062 -5.410156,8.367188 -2.833824,1.955215 -6.353019,2.707326 -9.742187,2.085937 -3.317904,-0.609107 -6.27464,-2.484975 -8.238282,-5.226562 -1.962112,-2.753208 -2.787918,-6.154442 -2.283203,-9.488281 l 0.002,-0.0059 c 0.01303,-0.09083 0.04534,-0.113679 0.13086,-0.101562 0.08218,0.01217 0.119495,0.06038 0.107422,0.144531 -0.487357,3.271254 0.309328,6.61828 2.240234,9.310547 1.930602,2.691273 4.830731,4.531396 8.085937,5.128906 3.326008,0.610517 6.773231,-0.12759 9.552735,-2.054687 l 0.0059,-0.0039 c 2.785905,-1.914331 4.699853,-4.873548 5.308594,-8.199218 0.610561,-3.326254 -0.129075,-6.773041 -2.056641,-9.552735 l -0.002,-0.002 C 40.589782,10.919538 37.629705,9.0058713 34.304687,8.3964844 h -0.002 C 30.438107,7.6869466 26.452143,8.7966067 23.511719,11.410156 l -0.0039,0.0039 c -7.07e-4,6.35e-4 -0.0013,-6.21e-4 -0.002,0 -0.05936,0.05238 -0.105183,0.0544 -0.164062,-0.01172 -0.01542,-0.01731 0.01123,-0.02879 0.0039,-0.04297 h 0.179688 V 11.126953 C 25.739843,9.2144563 28.508229,8.0939627 31.388672,7.9570312 Z M 33.5625,10.335938 c 0.126976,0.01866 0.254138,0.0021 0.380859,0.02539 0.09533,0.01746 0.171022,0.08547 0.265625,0.105469 -0.209679,-0.06672 -0.432937,-0.07663 -0.646484,-0.130859 z m -11.037109,0.492187 v 0.0059 c -0.207621,0.401449 -0.241908,0.881805 0.07031,1.232422 0.404481,0.454216 1.125616,0.498214 1.578125,0.09375 -0.455744,0.409377 -1.168974,0.367672 -1.578125,-0.0918 -4.4e-4,-4.94e-4 4.39e-4,-0.0015 0,-0.002 -0.316668,-0.35689 -0.283869,-0.836242 -0.07031,-1.238281 z m 7.986328,0.302734 0.002,0.0039 c -0.256575,0.198801 -0.446531,0.47121 -0.458985,0.814453 0.01196,-0.34694 0.199943,-0.620328 0.457032,-0.81836 z M 7.3339844,11.423828 c 0,1.234023 1.0081646,2.242188 2.2421875,2.242188 0.6170111,0 1.1776911,-0.25191 1.5839841,-0.658203 -0.40622,0.406869 -0.965624,0.658203 -1.5839841,0.658203 -1.2354214,0 -2.2421875,-1.006767 -2.2421875,-2.242188 z m 23.8496096,0.441406 c 2.030964,0.07173 3.980627,0.816697 5.535156,2.119141 1.548604,1.296282 2.619608,3.077113 3.037109,5.041016 v 0.05469 c 0.0034,0.06164 -0.01107,0.107587 -0.07813,0.123047 -0.08154,0.01713 -0.122842,-0.006 -0.142578,-0.09766 -0.416102,-1.93163 -1.462476,-3.673941 -2.96875,-4.939453 h -0.002 c -1.51439,-1.262242 -3.411818,-1.995431 -5.398437,-2.058594 -0.091,-0.0027 -0.114588,-0.02637 -0.111329,-0.121094 0.0029,-0.08408 0.04403,-0.123366 0.128907,-0.121094 z m -1.087891,0.195313 c 0.04454,0.553005 0.475885,1.028895 1.039063,1.046875 -0.570839,-0.01722 -0.994884,-0.48783 -1.039063,-1.046875 z M 32,16.908203 c 1.07172,0 2.10359,0.424107 2.853516,1.183594 l 0.0039,0.0039 0.0039,0.0039 0.002,0.002 c 0.759122,0.749566 1.181641,1.781797 1.181641,2.853516 0,1.07172 -0.422153,2.103588 -1.181641,2.853516 l -0.002,0.002 -0.0039,0.002 -0.0039,0.0039 v 0.002 C 34.103586,24.577628 33.07172,25 32,25 30.928281,25 29.896411,24.577847 29.146484,23.818359 v -0.002 l -0.0039,-0.0039 -0.0039,-0.0039 h -0.002 c -0.759488,-0.749928 -1.181641,-1.781796 -1.181641,-2.853516 0,-1.071719 0.422519,-2.105903 1.181641,-2.855469 h 0.002 l 0.0039,-0.0039 0.0039,-0.0039 v -0.002 C 29.896415,17.330574 30.928281,16.908203 32,16.908203 Z m -3.568359,0.484375 c -0.47496,0.470038 -0.843799,1.027334 -1.09375,1.632813 -0.250641,0.607148 -0.382813,1.262418 -0.382813,1.929687 0,-0.667271 0.132369,-1.322836 0.382813,-1.929687 0.249754,-0.605181 0.617352,-1.161111 1.091796,-1.63086 z m 7.136718,0.002 h 0.002 c 0.474445,0.469749 0.842043,1.025679 1.091797,1.63086 0.250444,0.606851 0.382813,1.262416 0.382813,1.929687 0,-0.667269 -0.132172,-1.322539 -0.382813,-1.929687 -0.249745,-0.604979 -0.619358,-1.161067 -1.09375,-1.63086 z m -16.435547,0.623047 c -0.484922,0.06342 -0.919645,0.375201 -0.992187,0.875 0.0735,-0.506903 0.505248,-0.814602 0.992187,-0.875 z m 0.728516,0.201172 c 0.09026,0.06669 0.216648,0.08254 0.283203,0.171875 -0.06658,-0.08953 -0.193267,-0.104889 -0.283203,-0.171875 z m -10.2851561,0.05469 c -1.7806116,0 -3.2421875,1.461202 -3.2421875,3.242188 v 12 9.302734 12 c 0,4.872869 3.9747876,8.847657 8.8476566,8.847657 h 33.636718 c 4.872869,0 8.847657,-3.974788 8.847657,-8.847657 v -1.121093 c 0,-1.780905 -1.461281,-3.242188 -3.242188,-3.242188 h -1.414062 c 2.753547,-1.465963 4.65625,-4.29622 4.65625,-7.636719 v -1.121093 c 0,-1.780905 -1.461281,-3.242188 -3.242188,-3.242188 H 20.789062 c -1.780905,0 -3.24414,1.460707 -3.24414,3.242188 0,1.781481 1.463235,3.242187 3.24414,3.242187 h 13.013672 v 0.242188 H 17.423828 c -2.552898,0 -4.605469,-2.052571 -4.605469,-4.605469 v -7.060547 -12 c 0,-1.780986 -1.461575,-3.242188 -3.2421871,-3.242188 z m 22.4238281,0 c -0.713541,0 -1.39461,0.285763 -1.894531,0.78711 -0.500824,0.499845 -0.78711,1.180378 -0.78711,1.894531 0,0.713264 0.286241,1.39366 0.785157,1.892578 4.39e-4,4.41e-4 0.0015,-4.41e-4 0.002,0 4.39e-4,4.39e-4 -4.4e-4,0.0015 0,0.002 0.499871,0.501009 1.181252,0.785157 1.894531,0.785157 0.714167,0 1.396442,-0.284939 1.896484,-0.78711 0.498914,-0.498918 0.785157,-1.179314 0.785157,-1.892578 0,-0.714152 -0.286286,-1.394686 -0.78711,-1.894531 C 33.39461,18.5592 32.713541,18.273437 32,18.273437 Z m 8.714844,0.429688 0.04102,0.04102 v 0.152343 l -0.0098,-0.04492 c 0.06381,0.301415 -0.0026,0.598935 -0.158203,0.839844 0.156139,-0.241264 0.221321,-0.541368 0.158203,-0.839844 v -0.002 l -0.002,-0.002 h 0.002 z m -2.15625,0.613281 c 0.104253,0.484031 0.541155,0.757392 1.013672,0.804688 -0.474049,-0.04453 -0.908173,-0.314875 -1.013672,-0.804688 z M 9.5761719,20.273437 c 0.6994321,0 1.2421871,0.54309 1.2421871,1.242188 v 12 7.060547 c 0,3.635789 2.969681,6.605469 6.605469,6.605469 H 35.802734 V 42.939453 H 20.789062 c -0.698972,0 -1.24414,-0.544112 -1.24414,-1.242187 0,-0.698075 0.545168,-1.242188 1.24414,-1.242188 h 33.634766 c 0.698975,0 1.242188,0.543214 1.242188,1.242188 v 1.121093 c 0,3.789889 -3.057768,6.847657 -6.847657,6.847657 H 15.181641 c -1.051786,0 -2.045015,-0.237964 -2.933594,-0.660157 l -1.429688,-0.675781 v 4.246094 c 0,3.635789 2.969681,6.605469 6.605469,6.605469 h 18.378906 v -1 -3.242188 H 20.789062 c -0.698972,0 -1.24414,-0.544112 -1.24414,-1.242187 0,-0.698075 0.545168,-1.242188 1.24414,-1.242188 h 33.634766 c 0.698975,0 1.242188,0.543214 1.242188,1.242188 v 1.121093 c 0,3.789889 -3.057768,6.847657 -6.847657,6.847657 H 15.181641 c -3.78989,0 -6.8476566,-3.057768 -6.8476566,-6.847657 v -12 -9.302734 -12 c 0,-0.699098 0.5427557,-1.242187 1.2421875,-1.242188 z m 22.4238281,0 c 0.182335,0 0.351235,0.0714 0.478516,0.199219 l 0.0039,0.002 0.002,0.0039 c 0.124468,0.125616 0.197266,0.295748 0.197266,0.476562 0,0.180174 -0.07229,0.347854 -0.197266,0.474609 l -0.0059,0.0059 C 32.351239,21.563365 32.182342,21.634766 32,21.634766 c -0.182347,0 -0.351243,-0.0714 -0.478516,-0.199219 l -0.0059,-0.0059 c -0.124981,-0.126752 -0.197266,-0.29443 -0.197266,-0.474609 0,-0.180809 0.0728,-0.350943 0.197266,-0.476562 0.0011,-0.0011 8.94e-4,-0.0029 0.002,-0.0039 l 0.0039,-0.002 C 31.648762,20.344838 31.817661,20.273437 32,20.273437 Z m -1.929688,5.34375 C 30.676855,25.867874 31.332731,26 32,26 32.66727,26 33.323157,25.867833 33.929687,25.617187 33.322919,25.868146 32.667318,26 32,26 31.332682,26 30.677081,25.868146 30.070312,25.617187 Z m 10.234375,3.355469 c -0.538598,0.557902 -0.966205,1.215022 -1.613281,1.660156 l -0.0078,0.0078 h -0.002 c 0.651434,-0.44691 1.081462,-1.106992 1.623046,-1.667969 z m -19.708984,0.140625 h 0.002 0.002 c 0.528655,0.738095 1.12374,1.418453 1.775391,2.033203 -0.652326,-0.615283 -1.250325,-1.294443 -1.779297,-2.033203 z m 18.724609,2.292969 -0.06055,0.05078 0.02539,-0.01758 z m -14.832031,1.382812 c 1.339624,0.849839 2.836263,1.430843 4.404297,1.789063 -1.567226,-0.358247 -3.064911,-0.939585 -4.404297,-1.789063 z m 10.451172,1.871094 c -1.784607,0.382302 -3.64339,0.416703 -5.46875,0.08203 1.825333,0.334667 3.683952,0.300014 5.46875,-0.08203 z m 21.726563,0.308594 c 0,0.61836 -0.251334,1.177764 -0.658204,1.583984 0.406294,-0.406293 0.658204,-0.966972 0.658204,-1.583984 z m -0.658204,5.144531 c 0.406871,0.406221 0.658204,0.965626 0.658204,1.583985 0,-0.617012 -0.25191,-1.177691 -0.658204,-1.583985 z m 0.658204,2.705078 c 0,1.029517 -0.215777,1.994883 -0.582032,2.882813 0.356598,-0.896164 0.582032,-1.86063 0.582032,-2.882813 z m -19.5,0.121094 v 0.5 3.742188 h 4.242187 v -4.242188 h -1 z m 5.607421,0 v 0.5 3.742188 h 4.242188 v -4.242188 h -1 z m 5.603516,0 v 0.5 0.5 3.201172 l 1.228516,-0.287109 c 0.92046,-0.213261 1.723413,-0.515333 2.363281,-0.949219 0.644983,-0.437354 1.212891,-1.101231 1.212891,-1.964844 v -1 z m -9.210937,2 h 0.242187 v 0.242188 h -0.242187 z m 5.607421,0 h 0.242188 v 0.242188 h -0.242188 z m 5.154297,0.722656 c -0.204921,0.06405 -0.321478,0.166076 -0.548828,0.21875 h -0.002 v -0.0332 z m 5.097657,1.72461 c -0.147235,0.191214 -0.237859,0.419149 -0.402344,0.595703 0.159573,-0.179404 0.259531,-0.402174 0.402344,-0.595703 z m -5.228516,3.082031 0.06445,0.986328 H 20.789062 c -0.157964,0 -0.257253,0.136594 -0.40625,0.167969 L 20.28125,50.666016 h 28.537109 c 0.346941,0 0.643382,-0.153475 0.978516,-0.197266 z m -36.978516,0.673828 c 0.743892,0.250489 1.49043,0.523438 2.363282,0.523438 h 3.236328 c -0.52155,0.530065 -0.873047,1.210305 -0.873047,2.03125 0,1.781481 1.463235,3.242187 3.24414,3.242187 h 13.013672 v 0.242188 H 17.423828 c -2.552898,0 -4.605469,-2.052571 -4.605469,-4.605469 z m 43.189453,0.970703 c 0.406871,0.406221 0.658204,0.965626 0.658204,1.583985 0,-0.617012 -0.25191,-1.177691 -0.658204,-1.583985 z m -36.902343,0.234375 c -0.305963,0.383172 -0.560547,0.823548 -0.560547,1.34961 0,-0.540958 0.215869,-0.99577 0.560547,-1.34961 z m 18.060547,2.591797 v 0.5 3.742188 h 4.242187 v -1 -3.242188 z m 5.607421,0 v 0.5 3.742188 h 4.242188 v -1 -3.242188 z m 5.603516,0 v 0.5 3.701172 l 1.228516,-0.287109 c 0.92046,-0.213261 1.723413,-0.515332 2.363281,-0.949219 0.644983,-0.437353 1.212891,-1.101232 1.212891,-1.964844 v -1 z m -9.210937,2 h 0.242187 v 0.242188 h -0.242187 z m 5.607421,0 h 0.242188 v 0.242188 h -0.242188 z m 5.154297,0.722656 c -0.204921,0.06405 -0.321478,0.166076 -0.548828,0.21875 h -0.002 v -0.0332 z"
     id="path7" />
</svg>
