<?xml version="1.0" encoding="UTF-8" standalone="no"?>
<svg
   width="47.285591"
   height="47.28569"
   version="1.1"
   id="svg63"
   sodipodi:docname="input-mouse.svg"
   inkscape:version="1.1.2 (0a00cf5339, 2022-02-04)"
   xmlns:inkscape="http://www.inkscape.org/namespaces/inkscape"
   xmlns:sodipodi="http://sodipodi.sourceforge.net/DTD/sodipodi-0.dtd"
   xmlns:xlink="http://www.w3.org/1999/xlink"
   xmlns="http://www.w3.org/2000/svg"
   xmlns:svg="http://www.w3.org/2000/svg"
   xmlns:rdf="http://www.w3.org/1999/02/22-rdf-syntax-ns#"
   xmlns:cc="http://creativecommons.org/ns#"
   xmlns:dc="http://purl.org/dc/elements/1.1/">
  <style
     id="style1006" />
  <metadata
     id="metadata181">
    <rdf:RDF>
      <cc:Work
         rdf:about="">
        <dc:format>image/svg+xml</dc:format>
        <dc:type
           rdf:resource="http://purl.org/dc/dcmitype/StillImage" />
      </cc:Work>
    </rdf:RDF>
  </metadata>
  <sodipodi:namedview
     id="namedview65"
     pagecolor="#000000"
     bordercolor="#666666"
     borderopacity="1.0"
     inkscape:showpageshadow="2"
     inkscape:pageopacity="0.0"
     inkscape:pagecheckerboard="0"
     inkscape:deskcolor="#d1d1d1"
     showgrid="false"
     inkscape:zoom="8.0265275"
     inkscape:cx="21.615823"
     inkscape:cy="26.038658"
     inkscape:window-width="1600"
     inkscape:window-height="836"
     inkscape:window-x="0"
     inkscape:window-y="0"
     inkscape:window-maximized="1"
     inkscape:current-layer="svg63"
     inkscape:document-rotation="0"
     inkscape:pageshadow="2">
    <inkscape:grid
       type="xygrid"
       id="grid468"
       originx="30.400758"
       originy="-11.147109"
       spacingy="1"
       spacingx="1"
       units="px"
       visible="false" />
  </sodipodi:namedview>
  <defs
     id="defs27">
    <linearGradient
       id="linearGradient1"
       inkscape:collect="always">
      <stop
         style="stop-color:#ff46ff;stop-opacity:1;"
         offset="0"
         id="stop1-6" />
      <stop
         style="stop-color:#ffdd55;stop-opacity:1"
         offset="1"
         id="stop2-7" />
    </linearGradient>
    <linearGradient
       inkscape:collect="always"
       xlink:href="#linearGradient1"
       id="linearGradient1127"
       x1="8.9598475"
       y1="24.25"
       x2="39.040154"
       y2="24.25"
       gradientUnits="userSpaceOnUse" />
    <linearGradient
       inkscape:collect="always"
       xlink:href="#linearGradient1"
       id="linearGradient1387"
       gradientUnits="userSpaceOnUse"
       x1="8.9598475"
       y1="24.25"
       x2="39.040154"
       y2="24.25" />
  </defs>
  <g
     id="g842"
     transform="matrix(0.9730476,0,0,0.9730476,0.2896533,0.04644043)"
     style="fill:none;stroke:url(#linearGradient1127);stroke-width:1.0277">
    <path
       style="color:#000000;isolation:isolate;fill:url(#linearGradient1387);fill-rule:evenodd;stroke:none;-inkscape-stroke:none"
       d="m 23.998047,1.9863281 c -4.165348,0.019658 -8.158222,1.7320785 -11.03125,4.75 C 10.05273,9.7928463 8.4267266,13.855919 8.4453125,18.080078 v 12.34375 c -0.017562,4.22275 1.6083205,8.284273 4.5214845,11.339844 2.872646,3.01752 6.857206,4.730345 11.03125,4.75 H 24 24.002 c 3.919065,-0.0093 7.694847,-1.55108 10.494141,-4.302735 v -0.002 h 0.002 c 2.787927,-2.769354 4.5064,-6.446797 4.8125,-10.365234 0.104394,-1.29347 -0.870676,-2.438581 -2.164063,-2.542969 v -0.002 c -1.293951,-0.103058 -2.439829,0.872314 -2.542968,2.166016 -0.231302,2.793144 -1.445494,5.407106 -3.429688,7.375 -3.95e-4,3.87e-4 -0.0016,-3.87e-4 -0.002,0 -3.84e-4,3.81e-4 3.84e-4,0.0016 0,0.002 -1.911356,1.874194 -4.49117,2.931319 -7.167969,2.941406 -6.5e-4,-4e-6 -0.0013,4e-6 -0.002,0 C 21.124385,41.764555 18.369589,40.582063 16.384766,38.5 14.318842,36.327764 13.167161,33.438277 13.175781,30.433594 v -0.0098 -12.347656 -0.0098 C 13.167161,15.061723 14.318842,12.172236 16.384766,10 18.369141,7.9184075 21.123137,6.7359664 24,6.7167969 26.876863,6.7359664 29.630859,7.9184075 31.615234,10 c 2.065924,2.172236 3.217605,5.061723 3.208985,8.066406 v 0.0098 2.882812 H 16.744141 c -1.361545,0 -2.513672,1.04361 -2.513672,2.365235 0,1.322331 1.152127,2.365234 2.513672,2.365234 H 37 h 0.0059 0.464844 v -0.162109 c 1.066289,-0.174241 1.969029,-0.939415 2.037109,-2.060547 0.02737,-0.451078 0.04687,-0.904622 0.04687,-1.363281 v -0.0098 -0.101563 -3.912109 -0.0039 c 0.01756,-4.22275 -1.60832,-8.2842728 -4.521484,-11.3398439 -2.873028,-3.0179215 -6.865902,-4.7303423 -11.03125,-4.75 H 24 Z m 0,1.0273438 c 3.886644,0.018342 7.612049,1.6175679 10.291015,4.4316406 h 0.002 c 2.731928,2.8654755 4.251789,6.6710735 4.234375,10.6289065 v 0.002 3.916015 0.101563 0.0098 c 0,0.42934 -0.01829,0.86186 -0.04492,1.300781 -0.04519,0.744172 -0.673435,1.302148 -1.414063,1.257812 -0.02028,-0.0016 -0.03932,-0.0024 -0.05273,-0.0039 l -0.570313,-0.0625 v 0.06641 h -19.69927 c -0.846454,0 -1.484375,-0.616223 -1.484375,-1.33789 0,-0.720373 0.637921,-1.337891 1.484375,-1.337891 h 19.107421 v -3.910156 -0.0078 -0.002 C 35.860437,14.797797 34.606999,11.654304 32.359375,9.2910156 30.180651,7.0055527 27.159626,5.7073736 24.003906,5.6875 H 24 23.9961 c -3.15572,0.019874 -6.176745,1.3180527 -8.355469,3.6035156 -2.248072,2.3637594 -3.501567,5.5080334 -3.492187,8.7773434 v 0.0078 12.347656 0.0098 c -0.0089,3.268609 1.244563,6.412102 3.492187,8.77539 2.178724,2.285463 5.199749,3.583642 8.355469,3.603516 H 24 24.002 c 2.948189,-0.0094 5.787527,-1.173046 7.892578,-3.238281 v -0.002 h 0.002 c 2.160187,-2.14143 3.481405,-4.986229 3.732422,-8.023438 v -0.002 c 0.05886,-0.738296 0.695501,-1.281598 1.435547,-1.222656 0.738611,0.05961 1.282262,0.697019 1.222656,1.435547 v 0.002 c -0.286315,3.67083 -1.898062,7.118612 -4.513672,9.716797 -2.605658,2.560749 -6.122469,3.998113 -9.771484,4.007812 -3.895948,-0.01835 -7.611667,-1.617166 -10.291015,-4.431641 h -0.002 C 10.977056,38.189212 9.4571953,34.383614 9.4746094,30.425781 v -0.002 -12.347656 -0.002 C 9.4571953,14.116386 10.977056,10.310788 13.708984,7.4453125 h 0.002 C 16.389003,4.6321863 20.112818,3.033071 23.998047,3.0136719 Z M 24,9.5546875 c -1.309929,0 -2.365234,1.1040155 -2.365234,2.4296875 v 4.099609 c 0,1.326418 1.05564,2.429688 2.365234,2.429688 1.309594,0 2.365234,-1.10327 2.365234,-2.429688 V 11.984375 C 26.365234,10.658703 25.309929,9.5546875 24,9.5546875 Z m 0,1.0273435 c 0.734069,0 1.337891,0.614018 1.337891,1.402344 v 4.099609 c 0,0.78958 -0.603487,1.402344 -1.337891,1.402344 -0.734404,0 -1.337891,-0.612764 -1.337891,-1.402344 v -4.099609 c 0,-0.788326 0.603822,-1.402344 1.337891,-1.402344 z"
       id="path9" />
  </g>
</svg>
