<?xml version="1.0" encoding="UTF-8" standalone="no"?>
<svg
   width="47.285591"
   height="47.28569"
   version="1.1"
   id="svg63"
   sodipodi:docname="input-keyboard.svg"
   inkscape:version="1.1.2 (0a00cf5339, 2022-02-04)"
   xmlns:inkscape="http://www.inkscape.org/namespaces/inkscape"
   xmlns:sodipodi="http://sodipodi.sourceforge.net/DTD/sodipodi-0.dtd"
   xmlns:xlink="http://www.w3.org/1999/xlink"
   xmlns="http://www.w3.org/2000/svg"
   xmlns:svg="http://www.w3.org/2000/svg"
   xmlns:rdf="http://www.w3.org/1999/02/22-rdf-syntax-ns#"
   xmlns:cc="http://creativecommons.org/ns#"
   xmlns:dc="http://purl.org/dc/elements/1.1/">
  <path
     style="color:#d5c289;fill:url(#linearGradient1173);fill-rule:evenodd;-inkscape-stroke:none"
     d="m 9.6679688,15.683594 v 0.5 3.535156 h 3.9667972 v -4.035156 z m 5.9355472,0 v 0.5 3.535156 h 3.966796 v -4.035156 z m 5.935546,0 v 0.5 3.535156 h 3.966797 v -4.035156 z m 5.935547,0 v 0.5 3.535156 h 3.966797 v -4.035156 z m 5.935547,0 v 0.5 3.535156 h 3.966797 v -4.035156 z m -22.742187,1 h 1.966797 v 2.035156 h -1.966797 z m 5.935547,0 h 1.966796 v 2.035156 h -1.966796 z m 5.935546,0 h 1.966797 v 2.035156 h -1.966797 z m 5.935547,0 h 1.966797 v 2.035156 h -1.966797 z m 5.935547,0 h 1.966797 v 2.035156 h -1.966797 z m -21.783203,5.070312 0.002,0.501953 0.01563,3.533203 h 3.958985 v -4.035156 z m 5.943359,0 v 0.5 3.535156 h 3.96875 v -4.035156 z m 5.935547,0 v 0.5 3.535156 h 3.96875 v -4.035156 z m 5.935547,0 v 0.5 3.535156 h 3.96875 v -4.035156 z m -16.810547,1 h 1.972657 v 2.035156 h -1.962891 z m 5.939453,0 h 1.96875 v 2.035156 h -1.96875 z m 5.935547,0 h 1.96875 v 2.035156 h -1.96875 z m 5.935547,0 h 1.96875 v 2.035156 h -1.96875 z M 9.6679688,27.824219 v 0.5 3.535156 h 3.9667972 v -4.035156 z m 5.9355472,0 v 0.5 3.535156 h 15.83789 v -4.035156 z m 17.800781,0 0.0059,0.505859 0.04102,3.529297 h 3.949219 l -0.04687,-4.035156 z m -22.736328,1 h 1.966797 v 2.035156 h -1.966797 z m 5.935547,0 h 13.83789 v 2.035156 h -13.83789 z m 17.8125,0 h 1.949218 l 0.02344,2.035156 h -1.949219 z"
     id="path23" />
  <style
     id="style1006" />
  <metadata
     id="metadata181">
    <rdf:RDF>
      <cc:Work
         rdf:about="">
        <dc:format>image/svg+xml</dc:format>
        <dc:type
           rdf:resource="http://purl.org/dc/dcmitype/StillImage" />
      </cc:Work>
    </rdf:RDF>
  </metadata>
  <sodipodi:namedview
     id="namedview65"
     pagecolor="#000000"
     bordercolor="#666666"
     borderopacity="1.0"
     inkscape:showpageshadow="2"
     inkscape:pageopacity="0.0"
     inkscape:pagecheckerboard="0"
     inkscape:deskcolor="#d1d1d1"
     showgrid="false"
     inkscape:zoom="11.313709"
     inkscape:cx="22.848388"
     inkscape:cy="22.362252"
     inkscape:window-width="1600"
     inkscape:window-height="836"
     inkscape:window-x="0"
     inkscape:window-y="0"
     inkscape:window-maximized="1"
     inkscape:current-layer="svg63"
     inkscape:document-rotation="0"
     inkscape:pageshadow="2">
    <inkscape:grid
       type="xygrid"
       id="grid468"
       originx="30.400758"
       originy="-11.147109"
       spacingy="1"
       spacingx="1"
       units="px"
       visible="false" />
  </sodipodi:namedview>
  <defs
     id="defs27">
    <linearGradient
       id="linearGradient5"
       inkscape:collect="always">
      <stop
         style="stop-color:#ffe88f;stop-opacity:1;"
         offset="0"
         id="stop3-7" />
      <stop
         style="stop-color:#7cffe5;stop-opacity:1;"
         offset="1"
         id="stop4-5" />
    </linearGradient>
    <linearGradient
       inkscape:collect="always"
       xlink:href="#linearGradient5"
       id="linearGradient1173"
       x1="10.167211"
       y1="23.771999"
       x2="36.895016"
       y2="23.771999"
       gradientUnits="userSpaceOnUse" />
    <linearGradient
       inkscape:collect="always"
       xlink:href="#linearGradient5"
       id="linearGradient1175"
       x1="1.2638367"
       y1="23.771999"
       x2="45.78083"
       y2="23.771999"
       gradientUnits="userSpaceOnUse" />
  </defs>
  <path
     style="color:#d5c289;fill:url(#linearGradient1175);-inkscape-stroke:none"
     d="M 13.111328,6.578125 C 9.3929899,6.6233285 6.5700625,6.457642 4.1699219,7.8105469 l -0.00391,0.00195 -0.00195,0.00195 c -1.2559116,0.734001 -2.212949,1.9021496 -2.7011719,3.2890629 -1.964e-4,5.33e-4 1.964e-4,0.0014 0,0.002 -0.52017257,1.413092 -0.69921873,3.054987 -0.69921873,5.078125 v 15.175781 c 0,2.026915 0.17873189,3.668805 0.69921873,5.082031 0.5241064,1.433762 1.4799697,2.596823 2.7070313,3.291016 2.4005238,1.356302 5.2233578,1.189012 8.9414061,1.234375 h 0.002 20.816406 0.0039 c 3.718341,-0.04521 6.541251,0.118504 8.941406,-1.234375 l 0.002,-0.002 0.0039,-0.002 c 1.257893,-0.733853 2.216326,-1.900504 2.705078,-3.289063 v -0.0039 c 0.516355,-1.412199 0.695313,-3.053782 0.695313,-5.076172 V 16.183594 c 0,-2.023751 -0.178601,-3.660544 -0.697266,-5.072266 -2.98e-4,-8.51e-4 -0.0017,-0.0011 -0.002,-0.002 -0.48759,-1.3894693 -1.443508,-2.5598915 -2.701172,-3.2949219 l -0.002,-0.00195 -0.0039,-0.00195 C 40.474461,6.4542456 37.651647,6.6234698 33.933594,6.578125 h -0.0039 -20.800781 -0.01563 z m 0.0059,1 h 0.0059 0.0059 20.798828 c 3.744391,0.045494 6.385594,-0.063827 8.453125,1.1035156 5.23e-4,2.953e-4 0.0014,-2.954e-4 0.002,0 1.047569,0.6142086 1.848672,1.5922454 2.257813,2.7597654 l 0.002,0.0039 0.002,0.0039 c 0.458825,1.245657 0.636719,2.7669 0.636719,4.734375 v 15.175781 c 0,1.96438 -0.17861,3.490311 -0.634766,4.736328 l -0.002,0.0039 v 0.0039 c -0.409987,1.168441 -1.214463,2.144156 -2.263672,2.757812 -2.067914,1.1648 -4.709021,1.060118 -8.453125,1.105469 h -20.804687 -0.0059 C 9.3718471,39.921273 6.7298503,40.029607 4.6621094,38.861328 3.6578079,38.293159 2.8498078,37.3261 2.4003906,36.095703 1.9416001,34.849994 1.7636719,33.326836 1.7636719,31.359375 V 16.183594 c 0,-1.964371 0.1779824,-3.488952 0.6367187,-4.734375 l 0.00195,-0.0039 0.00195,-0.0039 C 2.8136089,10.273403 3.6158564,9.2958007 4.6640625,8.6816406 6.7319537,7.5168247 9.3730834,7.6234738 13.117188,7.578125 Z m 0.01172,2.0351563 c -1.872979,0.02284 -3.4289328,0.068369 -4.6738279,0.1875 -1.2440857,0.119053 -2.1740283,0.2943087 -2.84375,0.6718747 -0.6116408,0.343357 -1.0581268,0.840752 -1.3730469,1.695313 v 0.002 c -0.3225263,0.88423 -0.5058593,2.182118 -0.5058593,4.013672 v 15.175781 c 0,1.831555 0.1834045,3.131437 0.5058593,4.015625 0.3118231,0.854818 0.7608592,1.354395 1.3730469,1.695312 7.709e-4,4.3e-4 0.00118,0.0015 0.00195,0.002 0.6695799,0.376907 1.598707,0.552896 2.8417969,0.671875 1.2448997,0.119152 2.8008399,0.162785 4.6738279,0.185546 h 0.0039 20.781249 0.002 c 1.87298,-0.02284 3.430876,-0.06642 4.675781,-0.185546 1.244904,-0.119131 2.1739,-0.295787 2.84375,-0.673829 0.610956,-0.343347 1.058326,-0.841337 1.373047,-1.695312 0.322542,-0.884234 0.505859,-2.184079 0.505859,-4.015625 V 16.183594 c 0,-1.831564 -0.183393,-3.129479 -0.505859,-4.013672 -0.311841,-0.8548 -0.760865,-1.356362 -1.373047,-1.697266 -0.669805,-0.378032 -1.598846,-0.5527165 -2.84375,-0.6718747 -1.244904,-0.1191583 -2.802788,-0.1647471 -4.675781,-0.1875 h -0.002 -20.777343 -0.002 v 0.7499997 z m 0.0059,0.9999997 h 0.002 0.0059 20.767578 c 1.860257,0.02267 3.398018,0.06794 4.585938,0.181641 1.189435,0.113849 2.032789,0.313799 2.449218,0.548828 v 0.002 h 0.002 c 0.478757,0.26611 0.658334,0.443615 0.921875,1.166016 0.253176,0.694203 0.445312,1.9097 0.445312,3.671875 v 15.175781 c 0,1.761253 -0.192302,2.975583 -0.445312,3.669922 -0.266722,0.723733 -0.443319,0.900154 -0.923829,1.169922 -0.416454,0.235033 -1.259767,0.435004 -2.449218,0.548828 -1.189451,0.113823 -2.728327,0.160869 -4.591797,0.183594 l 0.0059,-0.002 H 13.136719 l 0.0059,0.002 C 11.279124,36.908995 9.7382599,36.86189 8.5488281,36.748047 7.3593964,36.634204 6.5179675,36.434244 6.1015625,36.199219 h -0.00195 C 5.6208241,35.933086 5.4412563,35.753658 5.1777344,35.03125 4.9245654,34.337048 4.7324219,33.121542 4.7324219,31.359375 V 16.183594 c 0,-1.762185 0.1921128,-2.977709 0.4453125,-3.671875 C 5.4436168,11.791344 5.6199791,11.613 6.0996094,11.34375 h 0.00195 c 0.4163847,-0.235025 1.2578272,-0.435005 2.4472656,-0.548828 1.1874187,-0.11363 2.7267299,-0.158876 4.5859379,-0.181641 z"
     id="path22" />
</svg>
