<?xml version="1.0" encoding="UTF-8" standalone="no"?>
<svg
   width="64"
   height="64"
   version="1.1"
   id="svg39"
   sodipodi:docname="media-write-cd.svg"
   inkscape:version="1.1.2 (0a00cf5339, 2022-02-04)"
   xmlns:inkscape="http://www.inkscape.org/namespaces/inkscape"
   xmlns:sodipodi="http://sodipodi.sourceforge.net/DTD/sodipodi-0.dtd"
   xmlns:xlink="http://www.w3.org/1999/xlink"
   xmlns="http://www.w3.org/2000/svg"
   xmlns:svg="http://www.w3.org/2000/svg">
  <sodipodi:namedview
     id="namedview41"
     pagecolor="#ffffff"
     bordercolor="#666666"
     borderopacity="1.0"
     inkscape:pageshadow="2"
     inkscape:pageopacity="0.0"
     inkscape:pagecheckerboard="0"
     showgrid="false"
     inkscape:zoom="10.21875"
     inkscape:cx="31.95107"
     inkscape:cy="32"
     inkscape:window-width="1600"
     inkscape:window-height="836"
     inkscape:window-x="0"
     inkscape:window-y="0"
     inkscape:window-maximized="1"
     inkscape:current-layer="svg39" />
  <defs
     id="defs21">
    <linearGradient
       id="E"
       gradientUnits="userSpaceOnUse">
      <stop
         stop-color="#bdc3c7"
         id="stop10" />
      <stop
         offset="1"
         stop-color="#dadfe1"
         id="stop12" />
    </linearGradient>
    <linearGradient
       id="F"
       gradientUnits="userSpaceOnUse">
      <stop
         stop-color="#566472"
         id="stop15" />
      <stop
         offset="1"
         stop-color="#6c7a89"
         id="stop17" />
    </linearGradient>
    <linearGradient
       inkscape:collect="always"
       xlink:href="#F"
       id="linearGradient1201"
       x1="38"
       y1="16"
       x2="58"
       y2="16"
       gradientUnits="userSpaceOnUse" />
    <linearGradient
       inkscape:collect="always"
       xlink:href="#F"
       id="linearGradient1231"
       x1="22.999977"
       y1="32"
       x2="41.000023"
       y2="32"
       gradientUnits="userSpaceOnUse" />
    <linearGradient
       inkscape:collect="always"
       xlink:href="#E"
       id="linearGradient1261"
       x1="6.0019531"
       y1="32"
       x2="57.998047"
       y2="32"
       gradientUnits="userSpaceOnUse" />
  </defs>
  <path
     style="color:#000000;fill:url(#linearGradient1261);-inkscape-stroke:none"
     d="M 32,5 C 17.060275,5 5.0019531,17.059356 5.0019531,32 5.0019531,46.940644 17.060275,59 32,59 46.939725,59 58.998047,46.940644 58.998047,32 c 0,-3.697408 -0.74004,-7.21995 -2.076172,-10.425781 l -0.677734,-1.625 -1.048829,1.414062 C 53.503987,23.64262 50.83813,24.989524 48,25 43.018931,25 39.002149,20.984459 39,16.003906 v -0.002 c 0,-6.66e-4 0,-0.0013 0,-0.002 0.01034,-2.839062 1.358174,-5.505939 3.638672,-7.1972656 l 1.414062,-1.0488282 -1.625,-0.6777343 C 39.22144,5.7393762 35.697689,5 32,5 Z m 0,2 c 2.861878,0 5.559736,0.5747695 8.113281,1.4511719 C 38.170047,10.474207 37.009147,13.145257 37,15.996094 v 0.002 V 16 c 0,6.063282 4.936718,11 11,11 h 0.002 0.002 c 2.850385,-0.0093 5.520098,-1.170438 7.542969,-3.113281 C 56.423397,26.44029 56.998047,29.138111 56.998047,32 56.998047,45.867327 45.866246,57 32,57 18.133754,57 7.0019531,45.867327 7.0019531,32 7.0019531,18.132673 18.133754,7 32,7 Z m -0.002,15 C 26.48404,21.989878 21.989878,26.48404 22,31.998047 V 32 c 1e-6,6.65e-4 -1e-6,0.0013 0,0.002 C 21.989876,37.517291 26.486124,42.012298 32.001953,42 37.51596,42.010122 42.010122,37.51596 42,32.001953 V 32 c -10e-7,-6.65e-4 10e-7,-0.0013 0,-0.002 C 42.010122,26.48404 37.51596,21.989878 32.001953,22 Z M 32,26 c 3.325553,0 6,2.674449 6,6 0,3.325551 -2.674447,6 -6,6 -3.325553,0 -6,-2.674449 -6,-6 0,-3.325551 2.674447,-6 6,-6 z"
     id="path23" />
  <path
     style="color:#000000;fill:url(#linearGradient1231);-inkscape-stroke:none"
     d="m 31.998047,22.5 c -5.242995,-0.0095 -9.507569,4.255052 -9.498047,9.498047 -1e-6,6.65e-4 1e-6,0.0013 0,0.002 1e-6,6.65e-4 -1e-6,0.0013 0,0.002 -0.0095,5.244325 4.257131,9.509741 9.501953,9.498047 5.244325,0.0095 9.509741,-4.257131 9.498047,-9.501953 0.0095,-5.242995 -4.255052,-9.507569 -9.498047,-9.498047 z m 0,1 C 27.31113,23.501081 23.501081,27.311133 23.5,31.998047 23.489511,27.293909 27.293909,23.489511 31.998047,23.5 Z m 0.0039,0 C 36.706091,23.489511 40.510489,27.293909 40.5,31.998047 40.498919,27.311133 36.68887,23.501081 32.001953,23.5 Z M 32,24.5 c 4.148057,0 7.5,3.351946 7.5,7.5 0,4.148054 -3.351943,7.5 -7.5,7.5 -4.148057,0 -7.5,-3.351946 -7.5,-7.5 0,-4.148054 3.351943,-7.5 7.5,-7.5 z m 0,0 c -4.136212,0 -7.5,3.363791 -7.5,7.5 0,4.136209 3.363788,7.5 7.5,7.5 4.136212,0 7.5,-3.363791 7.5,-7.5 0,-4.136209 -3.363788,-7.5 -7.5,-7.5 z m 0,1 c 3.595772,0 6.5,2.90423 6.5,6.5 0,3.59577 -2.904228,6.5 -6.5,6.5 -3.595772,0 -6.5,-2.90423 -6.5,-6.5 0,-3.59577 2.904228,-6.5 6.5,-6.5 z m 0,3 c -1.930349,0 -3.5,1.569651 -3.5,3.5 0,1.930349 1.569651,3.5 3.5,3.5 1.930349,0 3.5,-1.569651 3.5,-3.5 0,-1.930349 -1.569651,-3.5 -3.5,-3.5 z m 0,1 c 1.393647,0 2.5,1.106353 2.5,2.5 0,1.393647 -1.106353,2.5 -2.5,2.5 -1.393647,0 -2.5,-1.106353 -2.5,-2.5 0,-1.393647 1.106353,-2.5 2.5,-2.5 z m -8.5,2.501953 c 0.0011,4.686914 3.81113,8.496966 8.498047,8.498047 C 27.293909,40.510489 23.489511,36.706091 23.5,32.001953 Z m 17,0 C 40.510489,36.706091 36.706091,40.510489 32.001953,40.5 36.68887,40.498919 40.498919,36.688867 40.5,32.001953 Z"
     id="path27" />
  <path
     style="color:#000000;fill:url(#linearGradient1201);-inkscape-stroke:none"
     d="m 48,5.5 c -5.793062,0 -10.5,4.706938 -10.5,10.5 0,5.793062 4.706938,10.5 10.5,10.5 5.793062,0 10.5,-4.706938 10.5,-10.5 C 58.5,10.206938 53.793062,5.5 48,5.5 Z m 0,1 c 5.252622,0 9.5,4.247378 9.5,9.5 0,5.252622 -4.247378,9.5 -9.5,9.5 -5.252622,0 -9.5,-4.247378 -9.5,-9.5 0,-5.252622 4.247378,-9.5 9.5,-9.5 z m -3.142578,3.0019531 -0.150391,0.9882809 c 1.635999,0.341981 2.799415,1.781787 2.791016,3.453125 v 0.002 c 9.75e-4,0.706736 -0.272847,1.351304 -0.660156,1.927734 -0.130181,-0.306103 -0.338878,-0.584114 -0.339844,-0.921875 v -0.002 c 1.97e-4,-0.108632 0.02108,-0.236473 0.04687,-0.398438 l 0.162109,-1.017578 -0.90039,0.503906 C 44.382624,14.834515 43.499509,16.340578 43.5,17.972656 43.5,20.470932 45.513067,22.5 48,22.5 c 2.486271,0 4.498928,-2.02803 4.5,-4.525391 v -0.002 c 0.01322,-4.319468 -3.239005,-7.937024 -7.515625,-8.4335935 -0.02662,-0.00607 -0.0474,-0.023691 -0.07422,-0.029297 l -0.002,0.00781 c -0.01823,-0.00194 -0.03251,-0.013798 -0.05078,-0.015625 z m 2.875,2.0136719 c 2.252362,1.305579 3.776661,3.695124 3.767578,6.455078 v 0.002 C 51.5,19.938376 49.947062,21.5 48,21.5 c -1.947062,0 -3.5,-1.561624 -3.5,-3.527344 -2.95e-4,-0.982646 0.499219,-1.823378 1.197266,-2.478515 0.106081,0.616026 0.227255,1.243008 0.636718,1.724609 l 0.337891,0.398437 0.382812,-0.355468 c 0.921047,-0.85569 1.444551,-2.05732 1.44336,-3.314453 v -0.002 c 0.0041,-0.897365 -0.305695,-1.715474 -0.765625,-2.429688 z"
     id="circle33" />
</svg>
