<?xml version="1.0" encoding="UTF-8" standalone="no"?>
<!-- Created with Inkscape (http://www.inkscape.org/) -->

<svg
   width="64"
   version="1.1"
   height="64"
   id="svg28"
   sodipodi:docname="media-optical-audio.svg"
   inkscape:version="1.1.2 (0a00cf5339, 2022-02-04)"
   xmlns:inkscape="http://www.inkscape.org/namespaces/inkscape"
   xmlns:sodipodi="http://sodipodi.sourceforge.net/DTD/sodipodi-0.dtd"
   xmlns:xlink="http://www.w3.org/1999/xlink"
   xmlns="http://www.w3.org/2000/svg"
   xmlns:svg="http://www.w3.org/2000/svg">
  <sodipodi:namedview
     id="namedview30"
     pagecolor="#ffffff"
     bordercolor="#666666"
     borderopacity="1.0"
     inkscape:pageshadow="2"
     inkscape:pageopacity="0.0"
     inkscape:pagecheckerboard="0"
     showgrid="false"
     inkscape:zoom="10.21875"
     inkscape:cx="31.95107"
     inkscape:cy="32"
     inkscape:window-width="1600"
     inkscape:window-height="836"
     inkscape:window-x="0"
     inkscape:window-y="0"
     inkscape:window-maximized="1"
     inkscape:current-layer="layer1" />
  <defs
     id="defs5455">
    <linearGradient
       inkscape:collect="always"
       id="linearGradient1328">
      <stop
         style="stop-color:#0bff7f;stop-opacity:1"
         id="stop1324" />
      <stop
         offset="1"
         style="stop-color:#24f9c8;stop-opacity:1"
         id="stop1326" />
    </linearGradient>
    <linearGradient
       inkscape:collect="always"
       id="linearGradient4300">
      <stop
         style="stop-color:#26c281"
         id="stop4302" />
      <stop
         offset="1"
         style="stop-color:#3fc380"
         id="stop4304" />
    </linearGradient>
    <linearGradient
       inkscape:collect="always"
       xlink:href="#linearGradient1328"
       id="linearGradient1210"
       x1="38"
       y1="16"
       x2="58"
       y2="16"
       gradientUnits="userSpaceOnUse" />
    <linearGradient
       inkscape:collect="always"
       xlink:href="#linearGradient1328"
       id="linearGradient1548"
       x1="23"
       y1="32"
       x2="41"
       y2="32"
       gradientUnits="userSpaceOnUse" />
    <linearGradient
       inkscape:collect="always"
       xlink:href="#linearGradient4300"
       id="linearGradient840"
       x1="5.5019531"
       y1="32"
       x2="58.498047"
       y2="32"
       gradientUnits="userSpaceOnUse" />
  </defs>
  <metadata
     id="metadata5458" />
  <g
     inkscape:label="Capa 1"
     inkscape:groupmode="layer"
     id="layer1"
     transform="translate(-376.57144,-491.79797)">
    <path
       style="color:#000000;fill:url(#linearGradient840);-inkscape-stroke:none"
       d="M 32,5 C 17.060175,5 5.0019531,17.059023 5.0019531,32 5.0019531,46.940977 17.060175,59 32,59 46.939825,59 58.998047,46.940977 58.998047,32 c 0,-3.697484 -0.741991,-7.218041 -2.078125,-10.423828 l -0.673828,-1.625 -1.050782,1.410156 h -0.002 C 53.501921,23.640818 50.838123,24.989549 48,25 c -4.982445,-5e-6 -8.998978,-4.01586 -9,-8.998047 V 16 c 0.0103,-2.839259 1.356172,-5.50395 3.636719,-7.1953125 h 0.002 L 44.050781,7.7539062 42.429687,7.078125 C 39.223381,5.7413175 35.697709,5 32,5 Z m 4.818359,1.4804687 c 1.504523,0.2811432 2.941847,0.7216527 4.341797,1.2480469 C 39.763851,7.20269 38.315774,6.7761205 36.818359,6.4804687 Z M 32,7 c 2.91163,0 5.660656,0.5875131 8.257812,1.5058594 C 38.292346,10.521583 37.009209,13.125834 37,15.996094 v 0.002 V 16 c 0,6.06389 4.936106,10.999994 11,11 h 0.002 0.002 c 2.868895,-0.0094 5.472723,-1.289948 7.488281,-3.253906 0.917642,2.596164 1.50586,5.343961 1.50586,8.253906 C 56.998001,45.867649 45.866339,57 32,57 18.133661,57 7.0019531,45.867648 7.0019531,32 7.0019531,18.132352 18.133661,7 32,7 Z m 9.28125,0.7675781 C 41.527732,7.8616331 41.800197,7.8987811 42.042969,8 l -0.002,0.00195 C 42.026009,8.0130891 42.014934,8.0278506 42,8.0390625 Z m -2.349609,4.1425779 c -0.01382,0.03041 -0.02164,0.0632 -0.03516,0.09375 0.01416,-0.03093 0.02068,-0.06296 0.03516,-0.09375 z m -0.798829,4.744141 c 0.13238,1.939476 0.851424,3.657338 1.933594,5.136719 -1.082297,-1.47948 -1.801255,-3.197037 -1.933594,-5.136719 z m 17.865235,5.304687 c 0.102511,0.245956 0.141159,0.521759 0.236328,0.771485 l -0.277344,-0.728516 c 0.01205,-0.01604 0.02905,-0.02685 0.04102,-0.04297 z M 32,22 c -5.523683,0 -10,4.476317 -10,10 0,5.523683 4.476317,10 10,10 5.523683,0 10,-4.476317 10,-10 0,-5.523683 -4.476317,-10 -10,-10 z m 24.259766,0.8125 c 0.531489,1.40853 0.976629,2.856971 1.259765,4.371094 -0.297925,-1.5078 -0.72913,-2.965941 -1.259765,-4.371094 z m -4.167969,2.253906 c -0.03508,0.01649 -0.07215,0.02298 -0.107422,0.03906 0.03487,-0.01539 0.07274,-0.02328 0.107422,-0.03906 z M 32,26 c 3.32654,0 6,2.67346 6,6 0,3.32654 -2.67346,6 -6,6 -3.32654,0 -6,-2.67346 -6,-6 0,-3.32654 2.67346,-6 6,-6 z m 0,2 c -0.273921,0 -0.543095,0.02682 -0.804688,0.08008 -0.259316,0.05279 -0.510502,0.130637 -0.751953,0.232422 -0.244191,0.102942 -0.472285,0.229888 -0.68164,0.371094 -0.211528,0.142671 -0.410167,0.3047 -0.591797,0.486328 -0.181628,0.18163 -0.343657,0.380269 -0.486328,0.591797 -0.141206,0.209355 -0.268152,0.437449 -0.371094,0.68164 -0.101781,0.241449 -0.179627,0.492644 -0.232422,0.751953 C 28.026822,31.456898 28,31.726074 28,32 c 0,0.273921 0.02682,0.543095 0.08008,0.804687 0.05279,0.259317 0.130637,0.510503 0.232422,0.751954 0.102942,0.244191 0.229888,0.472285 0.371094,0.68164 0.142671,0.211528 0.304699,0.410167 0.486328,0.591797 0.18163,0.18163 0.380269,0.343657 0.591797,0.486328 0.209355,0.141206 0.437448,0.268153 0.68164,0.371094 0.241448,0.101781 0.492641,0.179628 0.751953,0.232422 C 31.456899,35.973179 31.726074,36 32,36 c 0.273921,0 0.543095,-0.02682 0.804687,-0.08008 0.259316,-0.05279 0.510501,-0.130634 0.751954,-0.232422 0.24419,-0.102941 0.472284,-0.229887 0.68164,-0.371094 0.211528,-0.142671 0.410167,-0.304698 0.591797,-0.486328 0.18163,-0.18163 0.343657,-0.380269 0.486328,-0.591797 0.141206,-0.209355 0.268153,-0.437448 0.371094,-0.68164 C 35.789281,33.315193 35.867128,33.064 35.919922,32.804687 35.973179,32.543101 36,32.273926 36,32 c 0,-0.273921 -0.02682,-0.543095 -0.08008,-0.804688 -0.05279,-0.259315 -0.130634,-0.5105 -0.232422,-0.751953 -0.102941,-0.24419 -0.229887,-0.472284 -0.371094,-0.68164 -0.142671,-0.211528 -0.304698,-0.410167 -0.486328,-0.591797 -0.18163,-0.181629 -0.380269,-0.343657 -0.591797,-0.486328 C 34.028926,28.542388 33.800832,28.415442 33.556641,28.3125 33.315192,28.210719 33.063997,28.132873 32.804687,28.080078 32.543102,28.026822 32.273926,28 32,28 Z m 0,2 c 0.140857,0 0.275444,0.01439 0.40625,0.04102 0.132664,0.02701 0.260489,0.06614 0.376953,0.115234 0.116048,0.04892 0.228972,0.110131 0.337891,0.183594 0.106202,0.07163 0.204133,0.153352 0.294922,0.24414 0.09079,0.09079 0.172505,0.188714 0.24414,0.294922 0.07347,0.108923 0.134679,0.221856 0.183594,0.337891 0.0491,0.116469 0.08822,0.244289 0.115234,0.376953 C 33.985612,31.724541 34,31.859135 34,32 c 0,0.140857 -0.01439,0.275444 -0.04102,0.40625 -0.02701,0.132664 -0.06614,0.260491 -0.115234,0.376953 -0.04892,0.11605 -0.110132,0.228974 -0.183594,0.337891 -0.07163,0.106202 -0.153352,0.204133 -0.24414,0.294922 -0.09079,0.09079 -0.188714,0.172505 -0.294922,0.24414 -0.108923,0.07347 -0.221856,0.134679 -0.337891,0.183594 -0.116467,0.0491 -0.244289,0.08822 -0.376953,0.115234 C 32.275459,33.985612 32.140865,34 32,34 c -0.140857,0 -0.275444,-0.01439 -0.40625,-0.04102 -0.132664,-0.02701 -0.260489,-0.06614 -0.376953,-0.115234 -0.11605,-0.04892 -0.228974,-0.110132 -0.337891,-0.183594 -0.106202,-0.07163 -0.204133,-0.153352 -0.294922,-0.24414 -0.09079,-0.09079 -0.172505,-0.188714 -0.24414,-0.294922 -0.07347,-0.108919 -0.134677,-0.22185 -0.183594,-0.337887 -0.0491,-0.116461 -0.08822,-0.244283 -0.115234,-0.376953 C 30.014388,32.275461 30,32.140865 30,32 c 0,-0.140857 0.01439,-0.275444 0.04102,-0.40625 0.02701,-0.132664 0.06614,-0.260487 0.115234,-0.376953 0.04892,-0.116048 0.110131,-0.228972 0.183594,-0.337891 0.07163,-0.106202 0.153352,-0.204133 0.24414,-0.294922 0.09079,-0.09079 0.188714,-0.172505 0.294922,-0.24414 0.108923,-0.07347 0.221854,-0.134677 0.337891,-0.183594 0.116468,-0.0491 0.244287,-0.08822 0.376953,-0.115234 C 31.724541,30.014388 31.859135,30 32,30 Z"
       id="rect4146"
       transform="translate(376.57144,491.79797)" />
    <path
       style="color:#000000;fill:url(#linearGradient1548);-inkscape-stroke:none"
       d="m 32,22.5 c -5.254346,0 -9.5,4.245654 -9.5,9.5 0,5.254346 4.245654,9.5 9.5,9.5 5.254346,0 9.5,-4.245654 9.5,-9.5 0,-5.254346 -4.245654,-9.5 -9.5,-9.5 z m 0,1 c 4.717644,0 8.5,3.782356 8.5,8.5 0,4.717644 -3.782356,8.5 -8.5,8.5 -4.717644,0 -8.5,-3.782356 -8.5,-8.5 0,-4.717644 3.782356,-8.5 8.5,-8.5 z m 0,0 c -4.688493,0 -8.5,3.811507 -8.5,8.5 0,4.688493 3.811507,8.5 8.5,8.5 4.688493,0 8.5,-3.811507 8.5,-8.5 0,-4.688493 -3.811507,-8.5 -8.5,-8.5 z m 0,1 c 4.148054,0 7.5,3.351946 7.5,7.5 0,4.148054 -3.351946,7.5 -7.5,7.5 -4.148054,0 -7.5,-3.351946 -7.5,-7.5 0,-4.148054 3.351946,-7.5 7.5,-7.5 z m 0,0 c -4.136209,0 -7.5,3.363791 -7.5,7.5 0,4.136209 3.363791,7.5 7.5,7.5 4.136209,0 7.5,-3.363791 7.5,-7.5 0,-4.136209 -3.363791,-7.5 -7.5,-7.5 z m 0,1 c 3.59577,0 6.5,2.90423 6.5,6.5 0,3.59577 -2.90423,6.5 -6.5,6.5 -3.59577,0 -6.5,-2.90423 -6.5,-6.5 0,-3.59577 2.90423,-6.5 6.5,-6.5 z m 0,3 c -1.930349,0 -3.5,1.569651 -3.5,3.5 0,1.930349 1.569651,3.5 3.5,3.5 1.930349,0 3.5,-1.569651 3.5,-3.5 0,-1.930349 -1.569651,-3.5 -3.5,-3.5 z m 0,1 c 1.393647,0 2.5,1.106353 2.5,2.5 0,1.393647 -1.106353,2.5 -2.5,2.5 -1.393647,0 -2.5,-1.106353 -2.5,-2.5 0,-1.393647 1.106353,-2.5 2.5,-2.5 z"
       id="rect4270"
       transform="translate(376.57144,491.79797)" />
    <path
       style="color:#000000;fill:url(#linearGradient1210);stroke-linecap:round;-inkscape-stroke:none"
       d="m 48,5.5 c -5.793063,5.8e-6 -10.5,4.706942 -10.5,10.5 0,5.793058 4.706937,10.499994 10.5,10.5 5.793063,-6e-6 10.5,-4.706942 10.5,-10.5 C 58.5,10.206942 53.793063,5.5000058 48,5.5 Z m 0,1 c 5.252624,5.3e-6 9.5,4.247382 9.5,9.5 0,5.252618 -4.247376,9.499995 -9.5,9.5 -5.252624,-5e-6 -9.5,-4.247382 -9.5,-9.5 0,-5.252618 4.247376,-9.4999947 9.5,-9.5 z m -3.5,3 v 0.5 1 6.640625 C 44.328004,17.600229 44.186428,17.5 44,17.5 c -1.374789,0 -2.5,1.125215 -2.5,2.5 0,1.374785 1.125211,2.5 2.5,2.5 1.374789,0 2.5,-1.125215 2.5,-2.5 v -6.5 h 6 v 3.140625 C 52.328004,16.600229 52.186428,16.5 52,16.5 c -1.374789,0 -2.5,1.125215 -2.5,2.5 0,1.374785 1.125211,2.5 2.5,2.5 1.374789,0 2.5,-1.125215 2.5,-2.5 V 11 9.5 Z m 7.5,8 c 0.264049,0 0.519137,0.07905 0.75,0.212891 l 0.75,0.435546 V 19 c 0,0.834343 -0.665653,1.5 -1.5,1.5 -0.834347,0 -1.5,-0.665657 -1.5,-1.5 0,-0.834343 0.665653,-1.5 1.5,-1.5 z m -8,1 c 0.264048,0 0.519136,0.07905 0.75,0.212891 l 0.75,0.435546 V 20 c 0,0.834343 -0.665653,1.5 -1.5,1.5 -0.834347,0 -1.5,-0.665657 -1.5,-1.5 0,-0.834343 0.665653,-1.5 1.5,-1.5 z"
       id="path4207-6"
       transform="translate(376.57144,491.79797)" />
  </g>
</svg>
