<?xml version="1.0" encoding="UTF-8" standalone="no"?>
<!-- Created with Inkscape (http://www.inkscape.org/) -->

<svg
   width="64"
   version="1.1"
   height="64"
   id="svg2"
   inkscape:version="1.1.2 (0a00cf5339, 2022-02-04)"
   sodipodi:docname="media-optical-video.svg"
   xmlns:inkscape="http://www.inkscape.org/namespaces/inkscape"
   xmlns:sodipodi="http://sodipodi.sourceforge.net/DTD/sodipodi-0.dtd"
   xmlns:xlink="http://www.w3.org/1999/xlink"
   xmlns="http://www.w3.org/2000/svg"
   xmlns:svg="http://www.w3.org/2000/svg"
   xmlns:rdf="http://www.w3.org/1999/02/22-rdf-syntax-ns#"
   xmlns:cc="http://creativecommons.org/ns#"
   xmlns:dc="http://purl.org/dc/elements/1.1/">
  <sodipodi:namedview
     pagecolor="#ffffff"
     bordercolor="#666666"
     borderopacity="1"
     objecttolerance="10"
     gridtolerance="10"
     guidetolerance="10"
     inkscape:pageopacity="0"
     inkscape:pageshadow="2"
     inkscape:window-width="1126"
     inkscape:window-height="580"
     id="namedview30"
     showgrid="false"
     inkscape:zoom="7.375"
     inkscape:cx="31.932203"
     inkscape:cy="32"
     inkscape:window-x="75"
     inkscape:window-y="34"
     inkscape:window-maximized="0"
     inkscape:current-layer="layer1"
     inkscape:pagecheckerboard="0" />
  <defs
     id="defs5455">
    <linearGradient
       inkscape:collect="always"
       id="linearGradient4300">
      <stop
         style="stop-color:#e00a5e"
         id="stop4302" />
      <stop
         offset="1"
         style="stop-color:#f62870"
         id="stop4304" />
    </linearGradient>
    <linearGradient
       inkscape:collect="always"
       id="linearGradient4351">
      <stop
         style="stop-color:#f78fb9"
         id="stop4353" />
      <stop
         offset="1"
         style="stop-color:#f7a5c4"
         id="stop4355" />
    </linearGradient>
    <linearGradient
       inkscape:collect="always"
       xlink:href="#linearGradient4300"
       id="linearGradient1128"
       x1="5.5019531"
       y1="32"
       x2="58.498047"
       y2="32"
       gradientUnits="userSpaceOnUse" />
    <linearGradient
       inkscape:collect="always"
       xlink:href="#linearGradient4351"
       id="linearGradient1238"
       x1="38"
       y1="16"
       x2="58"
       y2="16"
       gradientUnits="userSpaceOnUse" />
    <linearGradient
       inkscape:collect="always"
       xlink:href="#linearGradient4351"
       id="linearGradient1268"
       x1="23"
       y1="32"
       x2="41"
       y2="32"
       gradientUnits="userSpaceOnUse" />
  </defs>
  <metadata
     id="metadata5458">
    <rdf:RDF>
      <cc:Work
         rdf:about="">
        <dc:format>image/svg+xml</dc:format>
        <dc:type
           rdf:resource="http://purl.org/dc/dcmitype/StillImage" />
      </cc:Work>
    </rdf:RDF>
  </metadata>
  <g
     inkscape:label="Capa 1"
     inkscape:groupmode="layer"
     id="layer1"
     transform="translate(-376.57144,-491.79797)">
    <path
       style="color:#000000;fill:url(#linearGradient1128);-inkscape-stroke:none"
       d="M 32,5 C 17.060175,5 5.0019531,17.059023 5.0019531,32 5.0019531,46.940977 17.060175,59 32,59 46.939825,59 58.998047,46.940977 58.998047,32 c 0,-3.697484 -0.741991,-7.218041 -2.078125,-10.423828 l -0.673828,-1.625 -1.050782,1.410156 h -0.002 C 53.501921,23.64082 50.838123,24.989551 48,25 43.017558,25 39.001022,20.984144 39,16.001953 V 16 c 0.01031,-2.839262 1.356175,-5.503952 3.636719,-7.1953125 h 0.002 L 44.050781,7.7539062 42.429687,7.078125 C 39.223381,5.7413175 35.697709,5 32,5 Z m 4.818359,1.4804687 c 1.504523,0.2811432 2.941847,0.7216527 4.341797,1.2480469 C 39.763851,7.20269 38.315774,6.7761205 36.818359,6.4804687 Z M 32,7 c 2.91163,0 5.660656,0.5875131 8.257812,1.5058594 C 38.292346,10.521583 37.00921,13.125834 37,15.996094 v 0.002 V 16 c 0,6.063894 4.936106,11 11,11 h 0.002 0.002 c 2.868895,-0.0094 5.472723,-1.289947 7.488281,-3.253906 0.917642,2.596164 1.50586,5.343961 1.50586,8.253906 C 56.998001,45.867649 45.866339,57 32,57 18.133661,57 7.0019531,45.867648 7.0019531,32 7.0019531,18.132352 18.133661,7 32,7 Z m 9.28125,0.7675781 C 41.527732,7.8616331 41.800197,7.8987811 42.042969,8 l -0.002,0.00195 C 42.026009,8.0130891 42.014934,8.0278506 42,8.0390625 Z m -2.349609,4.1425779 c -0.01382,0.03041 -0.02164,0.0632 -0.03516,0.09375 0.01416,-0.03093 0.02068,-0.06296 0.03516,-0.09375 z m -0.798829,4.744141 c 0.13238,1.939477 0.851423,3.657337 1.933594,5.136719 -1.082297,-1.47948 -1.801255,-3.197036 -1.933594,-5.136719 z m 17.865235,5.304687 c 0.102511,0.245956 0.141159,0.521759 0.236328,0.771485 l -0.277344,-0.728516 c 0.01205,-0.01604 0.02905,-0.02685 0.04102,-0.04297 z M 32,22 c -5.523683,0 -10,4.476317 -10,10 0,5.523683 4.476317,10 10,10 5.523683,0 10,-4.476317 10,-10 0,-5.523683 -4.476317,-10 -10,-10 z m 24.259766,0.8125 c 0.531489,1.40853 0.976629,2.856971 1.259765,4.371094 -0.297925,-1.5078 -0.72913,-2.965941 -1.259765,-4.371094 z m -4.167969,2.253906 c -0.03508,0.01649 -0.07215,0.02298 -0.107422,0.03906 0.03487,-0.01539 0.07274,-0.02328 0.107422,-0.03906 z M 32,26 c 3.32654,0 6,2.67346 6,6 0,3.32654 -2.67346,6 -6,6 -3.32654,0 -6,-2.67346 -6,-6 0,-3.32654 2.67346,-6 6,-6 z m 0,2 c -0.273921,0 -0.543094,0.02682 -0.804688,0.08008 -0.25933,0.05279 -0.51052,0.130648 -0.751953,0.232422 -0.244209,0.102945 -0.472293,0.229893 -0.68164,0.371094 -0.211528,0.142671 -0.410167,0.3047 -0.591797,0.486328 -0.181628,0.18163 -0.343657,0.380269 -0.486328,0.591797 -0.141206,0.209355 -0.268152,0.437449 -0.371094,0.68164 -0.101785,0.241449 -0.179627,0.492642 -0.232422,0.751953 C 28.026802,31.456946 28,31.726104 28,32 c 0,0.2739 0.0268,0.54306 0.08008,0.804687 0.05279,0.259304 0.130619,0.510478 0.232422,0.751954 0.102942,0.244191 0.229888,0.472285 0.371094,0.68164 0.142671,0.211528 0.304699,0.410167 0.486328,0.591797 0.18163,0.18163 0.380269,0.343657 0.591797,0.486328 0.209355,0.141206 0.437448,0.268153 0.68164,0.371094 0.241419,0.101765 0.492611,0.179625 0.751953,0.232422 C 31.456885,35.973174 31.726066,36 32,36 c 0.273921,0 0.543094,-0.02682 0.804687,-0.08008 0.25933,-0.05279 0.510519,-0.130646 0.751954,-0.232422 0.24419,-0.102941 0.472284,-0.229887 0.68164,-0.371094 0.211528,-0.142671 0.410167,-0.304698 0.591797,-0.486328 0.18163,-0.18163 0.343657,-0.380269 0.486328,-0.591797 0.141206,-0.209355 0.268153,-0.437448 0.371094,-0.68164 C 35.789285,33.315191 35.867127,33.064 35.919922,32.804685 35.973174,32.543115 36,32.273934 36,32 36,31.726059 35.973166,31.456872 35.919922,31.195312 35.867127,30.935963 35.789266,30.684776 35.6875,30.443359 35.584556,30.199152 35.457608,29.971067 35.316406,29.761719 35.173735,29.550191 35.011708,29.351552 34.830078,29.169922 34.648448,28.988293 34.449809,28.826265 34.238281,28.683594 34.028934,28.542393 33.80085,28.415445 33.556641,28.3125 33.315192,28.210715 33.063999,28.132873 32.804687,28.080078 32.543058,28.026803 32.273901,28 32,28 Z m 0,2 c 0.140876,0 0.275489,0.01439 0.40625,0.04102 0.132669,0.02701 0.260517,0.06615 0.376953,0.115234 0.116017,0.04891 0.228966,0.110126 0.337891,0.183594 0.106202,0.07163 0.204133,0.153352 0.294922,0.24414 0.09079,0.09079 0.172505,0.188714 0.24414,0.294922 0.07347,0.108932 0.134689,0.221877 0.183594,0.337891 0.0491,0.116491 0.08823,0.244298 0.115234,0.376953 C 33.985614,31.724556 34,31.859143 34,32 c 0,0.140857 -0.01439,0.275451 -0.04102,0.40625 -0.02701,0.132652 -0.06613,0.260457 -0.115234,0.376953 -0.04891,0.116019 -0.110127,0.228967 -0.183594,0.337891 -0.07163,0.106202 -0.153352,0.204133 -0.24414,0.294922 -0.09079,0.09079 -0.188714,0.172505 -0.294922,0.24414 -0.108932,0.07347 -0.221877,0.13469 -0.337891,0.183594 -0.116476,0.0491 -0.244301,0.08823 -0.376953,0.115234 C 32.275444,33.985614 32.140857,34 32,34 c -0.140867,0 -0.275463,-0.01439 -0.40625,-0.04102 -0.132652,-0.02701 -0.260455,-0.06613 -0.376953,-0.115234 -0.11605,-0.04892 -0.228974,-0.110132 -0.337891,-0.183594 -0.106202,-0.07163 -0.204133,-0.153352 -0.294922,-0.24414 -0.09079,-0.09079 -0.172505,-0.188714 -0.24414,-0.294922 -0.07347,-0.108932 -0.134688,-0.221875 -0.183594,-0.337891 -0.0491,-0.116488 -0.08823,-0.244296 -0.115234,-0.376953 C 30.014392,32.275507 30,32.14088 30,32 c 0,-0.140857 0.01439,-0.275451 0.04102,-0.40625 0.02701,-0.132659 0.06613,-0.260467 0.115234,-0.376953 0.04891,-0.116017 0.110126,-0.228966 0.183594,-0.337891 0.07163,-0.106202 0.153352,-0.204133 0.24414,-0.294922 0.09079,-0.09079 0.188714,-0.172505 0.294922,-0.24414 0.108923,-0.07347 0.221854,-0.134677 0.337891,-0.183594 0.116489,-0.0491 0.244296,-0.08823 0.376953,-0.115234 C 31.724493,30.014392 31.85912,30 32,30 Z"
       id="rect4146"
       transform="translate(376.57144,491.79797)" />
    <path
       style="color:#000000;fill:url(#linearGradient1268);-inkscape-stroke:none"
       d="m 32,22.5 c -5.254346,0 -9.5,4.245654 -9.5,9.5 0,5.254346 4.245654,9.5 9.5,9.5 5.254346,0 9.5,-4.245654 9.5,-9.5 0,-5.254346 -4.245654,-9.5 -9.5,-9.5 z m 0,1 c 4.717644,0 8.5,3.782356 8.5,8.5 0,4.717644 -3.782356,8.5 -8.5,8.5 -4.717644,0 -8.5,-3.782356 -8.5,-8.5 0,-4.717644 3.782356,-8.5 8.5,-8.5 z m 0,0 c -4.688493,0 -8.5,3.811507 -8.5,8.5 0,4.688493 3.811507,8.5 8.5,8.5 4.688493,0 8.5,-3.811507 8.5,-8.5 0,-4.688493 -3.811507,-8.5 -8.5,-8.5 z m 0,1 c 4.148054,0 7.5,3.351946 7.5,7.5 0,4.148054 -3.351946,7.5 -7.5,7.5 -4.148054,0 -7.5,-3.351946 -7.5,-7.5 0,-4.148054 3.351946,-7.5 7.5,-7.5 z m 0,0 c -4.136209,0 -7.5,3.363791 -7.5,7.5 0,4.136209 3.363791,7.5 7.5,7.5 4.136209,0 7.5,-3.363791 7.5,-7.5 0,-4.136209 -3.363791,-7.5 -7.5,-7.5 z m 0,1 c 3.59577,0 6.5,2.90423 6.5,6.5 0,3.59577 -2.90423,6.5 -6.5,6.5 -3.59577,0 -6.5,-2.90423 -6.5,-6.5 0,-3.59577 2.90423,-6.5 6.5,-6.5 z m 0,3 c -1.930349,0 -3.5,1.569651 -3.5,3.5 0,1.930349 1.569651,3.5 3.5,3.5 1.930349,0 3.5,-1.569651 3.5,-3.5 0,-1.930349 -1.569651,-3.5 -3.5,-3.5 z m 0,1 c 1.393647,0 2.5,1.106353 2.5,2.5 0,1.393647 -1.106353,2.5 -2.5,2.5 -1.393647,0 -2.5,-1.106353 -2.5,-2.5 0,-1.393647 1.106353,-2.5 2.5,-2.5 z"
       id="rect4270"
       transform="translate(376.57144,491.79797)" />
    <path
       style="color:#000000;fill:url(#linearGradient1238);stroke-linecap:round;-inkscape-stroke:none"
       d="m 48,5.5 c -5.793062,0 -10.5,4.706938 -10.5,10.5 0,5.793062 4.706938,10.5 10.5,10.5 5.793062,0 10.5,-4.706938 10.5,-10.5 C 58.5,10.206938 53.793062,5.5 48,5.5 Z m 0,1 c 5.252622,0 9.5,4.247378 9.5,9.5 0,5.252622 -4.247378,9.5 -9.5,9.5 -5.252622,0 -9.5,-4.247378 -9.5,-9.5 0,-5.252622 4.247378,-9.5 9.5,-9.5 z m -6.5,3 V 10 22.5 h 13 v -13 z m 1,1 h 2 v 0.5 0.5 h -2 z m 9,0 h 2 v 1 h -2 z m -6,1 h 5 v 3 h -5 z m -3,2 h 2 V 15 h -2 z m 9,0 h 2 V 15 h -2 z m -7,2 h 7 v 1 h -7 z m -2,1.5 h 2 v 1.5 h -2 z m 9,0 h 2 v 1.5 h -2 z m -6,0.5 h 5 v 3 h -5 z m -3,3 h 2 v 1 h -2 z m 9,0 h 2 v 1 h -2 z"
       id="path4207-6"
       transform="translate(376.57144,491.79797)" />
  </g>
</svg>
