<?xml version="1.0" encoding="UTF-8" standalone="no"?>
<!-- Created with Inkscape (http://www.inkscape.org/) -->

<svg
   width="64"
   version="1.1"
   height="64"
   id="svg584"
   sodipodi:docname="multimedia-player.svg"
   inkscape:version="1.1.2 (0a00cf5339, 2022-02-04)"
   xmlns:inkscape="http://www.inkscape.org/namespaces/inkscape"
   xmlns:sodipodi="http://sodipodi.sourceforge.net/DTD/sodipodi-0.dtd"
   xmlns:xlink="http://www.w3.org/1999/xlink"
   xmlns="http://www.w3.org/2000/svg"
   xmlns:svg="http://www.w3.org/2000/svg">
  <sodipodi:namedview
     id="namedview586"
     pagecolor="#ffffff"
     bordercolor="#000000"
     borderopacity="0.25"
     inkscape:showpageshadow="2"
     inkscape:pageopacity="0.0"
     inkscape:pagecheckerboard="0"
     inkscape:deskcolor="#d1d1d1"
     showgrid="true"
     inkscape:zoom="10.429825"
     inkscape:cx="29.674515"
     inkscape:cy="29.722455"
     inkscape:window-width="1600"
     inkscape:window-height="836"
     inkscape:window-x="0"
     inkscape:window-y="0"
     inkscape:window-maximized="1"
     inkscape:current-layer="layer1"
     inkscape:pageshadow="2">
    <inkscape:grid
       type="xygrid"
       id="grid734" />
  </sodipodi:namedview>
  <defs
     id="defs5455">
    <inkscape:perspective
       sodipodi:type="inkscape:persp3d"
       inkscape:vp_x="0 : 32 : 1"
       inkscape:vp_y="0 : 1000 : 0"
       inkscape:vp_z="64 : 32 : 1"
       inkscape:persp3d-origin="32 : 21.333333 : 1"
       id="perspective1242" />
    <linearGradient
       inkscape:collect="always"
       id="linearGradient2851">
      <stop
         style="stop-color:#c6d1d4;stop-opacity:1"
         offset="0"
         id="stop2847" />
      <stop
         style="stop-color:#eef0f0;stop-opacity:1"
         offset="1"
         id="stop2849" />
    </linearGradient>
    <linearGradient
       inkscape:collect="always"
       id="linearGradient1834">
      <stop
         style="stop-color:#ffc005;stop-opacity:1"
         offset="0"
         id="stop1830" />
      <stop
         style="stop-color:#ffef0a;stop-opacity:1"
         offset="1"
         id="stop1832" />
    </linearGradient>
    <linearGradient
       inkscape:collect="always"
       id="linearGradient4391">
      <stop
         stop-color="#21c9fb"
         id="stop554"
         style="stop-color:#21c9fb;stop-opacity:1" />
      <stop
         offset="1"
         stop-color="#197cf1"
         id="stop556"
         style="stop-color:#197cf1;stop-opacity:1" />
    </linearGradient>
    <linearGradient
       inkscape:collect="always"
       xlink:href="#linearGradient1834"
       id="linearGradient1836"
       x1="393.57144"
       y1="523.79795"
       x2="423.57144"
       y2="523.79795"
       gradientUnits="userSpaceOnUse" />
    <linearGradient
       inkscape:collect="always"
       xlink:href="#linearGradient2851"
       id="linearGradient2853"
       x1="21.166016"
       y1="30.400391"
       x2="42.833984"
       y2="30.400391"
       gradientUnits="userSpaceOnUse" />
    <linearGradient
       inkscape:collect="always"
       xlink:href="#linearGradient4391"
       id="linearGradient944"
       x1="417.77826"
       y1="521.57245"
       x2="445.07144"
       y2="521.57245"
       gradientUnits="userSpaceOnUse"
       gradientTransform="matrix(0.98884967,0,0,0.98884967,-18.042883,8.0412225)" />
  </defs>
  <metadata
     id="metadata5458" />
  <g
     inkscape:label="Capa 1"
     inkscape:groupmode="layer"
     id="layer1"
     transform="translate(-376.57144,-491.79797)">
    <rect
       style="fill:none;stroke:url(#linearGradient944);stroke-width:1.9777;stroke-miterlimit:4;stroke-dasharray:none;paint-order:fill markers stroke"
       id="rect914"
       width="26.000004"
       height="40.000008"
       x="395.57141"
       y="503.79797"
       rx="0"
       ry="0" />
    <path
       style="color:#000000;fill:url(#linearGradient1836);-inkscape-stroke:none"
       d="m 398.57227,496.79883 c -3.3067,0 -6,2.6933 -6,6 v 42 c 0,3.3067 2.6933,6 6,6 h 20 c 3.3067,0 6,-2.6933 6,-6 v -42 c 0,-3.3067 -2.6933,-6 -6,-6 z m 0,2 h 20 c 2.23329,0 4,1.76671 4,4 v 42 c 0,2.23329 -1.76671,4 -4,4 h -20 c -2.2333,0 -4,-1.76671 -4,-4 v -42 c 0,-2.23329 1.7667,-4 4,-4 z"
       id="rect4232" />
    <path
       style="color:#000000;opacity:0.8;fill:url(#linearGradient2853);-inkscape-stroke:none"
       d="m 32,18.900391 c -6.274137,0 -11.333984,5.141687 -11.333984,11.5 0,6.358312 5.059847,11.5 11.333984,11.5 6.274137,0 11.333984,-5.141688 11.333984,-11.5 0,-6.358313 -5.059847,-11.5 -11.333984,-11.5 z m 0,1 c 5.729177,0 10.333984,4.670329 10.333984,10.5 0,5.829669 -4.604807,10.5 -10.333984,10.5 -5.729177,0 -10.333984,-4.670331 -10.333984,-10.5 0,-5.829671 4.604807,-10.5 10.333984,-10.5 z m -4.833984,3.009765 v 0.890625 14.089844 l 12.294921,-7.490234 z m 1,1.78125 9.371093,5.708985 -9.371093,5.708984 z"
       id="rect4190"
       transform="translate(376.57144,491.79797)" />
  </g>
</svg>
