<?xml version="1.0" encoding="UTF-8" standalone="no"?>
<svg
   width="47.285591"
   height="47.28569"
   version="1.1"
   viewBox="0 0 12.510734 12.51076"
   id="svg12"
   sodipodi:docname="network-rj11-female.svg"
   inkscape:version="1.1.2 (0a00cf5339, 2022-02-04)"
   xmlns:inkscape="http://www.inkscape.org/namespaces/inkscape"
   xmlns:sodipodi="http://sodipodi.sourceforge.net/DTD/sodipodi-0.dtd"
   xmlns:xlink="http://www.w3.org/1999/xlink"
   xmlns="http://www.w3.org/2000/svg"
   xmlns:svg="http://www.w3.org/2000/svg"
   xmlns:rdf="http://www.w3.org/1999/02/22-rdf-syntax-ns#"
   xmlns:cc="http://creativecommons.org/ns#"
   xmlns:dc="http://purl.org/dc/elements/1.1/">
  <style
     id="style856" />
  <metadata
     id="metadata31">
    <rdf:RDF>
      <cc:Work
         rdf:about="">
        <dc:format>image/svg+xml</dc:format>
        <dc:type
           rdf:resource="http://purl.org/dc/dcmitype/StillImage" />
      </cc:Work>
    </rdf:RDF>
  </metadata>
  <defs
     id="defs16">
    <linearGradient
       id="_lgradient_26"
       x1="0.39980158"
       y1="0.20242152"
       x2="0.36506835"
       y2="1.1185315"
       gradientTransform="matrix(41.005584,0,0,-41.005584,3.497208,45.502792)"
       gradientUnits="userSpaceOnUse">
      <stop
         offset="0%"
         stop-opacity="1"
         style="stop-color:rgb(67,233,123)"
         id="stop2" />
      <stop
         offset="97.82608695652173%"
         stop-opacity="1"
         style="stop-color:rgb(56,249,215)"
         id="stop4" />
    </linearGradient>
    <linearGradient
       inkscape:collect="always"
       xlink:href="#_lgradient_26"
       id="linearGradient1279"
       x1="7.9076924"
       y1="25"
       x2="40.092308"
       y2="25"
       gradientUnits="userSpaceOnUse" />
  </defs>
  <sodipodi:namedview
     id="namedview14"
     pagecolor="#000000"
     bordercolor="#666666"
     borderopacity="1.0"
     inkscape:showpageshadow="2"
     inkscape:pageopacity="0.0"
     inkscape:pagecheckerboard="0"
     inkscape:deskcolor="#d1d1d1"
     showgrid="false"
     inkscape:zoom="6.2611141"
     inkscape:cx="3.9130416"
     inkscape:cy="28.748877"
     inkscape:window-width="1600"
     inkscape:window-height="836"
     inkscape:window-x="0"
     inkscape:window-y="0"
     inkscape:window-maximized="1"
     inkscape:current-layer="svg12"
     inkscape:document-rotation="0"
     inkscape:pageshadow="2">
    <inkscape:grid
       type="xygrid"
       id="grid244"
       originx="9.9594769"
       originy="-31.57929"
       spacingy="1"
       spacingx="1"
       units="px"
       visible="false" />
  </sodipodi:namedview>
  <g
     id="g839"
     transform="matrix(0.35277085,0,0,0.35277085,-2.2111335,-2.5638912)">
    <path
       style="color:#000000;isolation:isolate;fill:url(#linearGradient1279);fill-rule:evenodd;-inkscape-stroke:none"
       d="m 15.175781,10.089844 c -1.349242,0 -2.451172,1.102921 -2.451172,2.451172 v 3.777343 H 9.984375 c -1.3484583,0 -2.4511719,1.103883 -2.4511719,2.453125 v 18.6875 c 0,1.348459 1.1027138,2.451172 2.4511719,2.451172 h 28.03125 c 1.348458,0 2.451172,-1.102713 2.451172,-2.451172 v -18.6875 c 0,-1.349242 -1.102714,-2.453125 -2.451172,-2.453125 h -2.740234 v -3.777343 c 0,-1.348251 -1.10193,-2.451172 -2.451172,-2.451172 z m 0,0.75 h 17.648438 c 0.943253,0 1.701172,0.758832 1.701172,1.701172 v 4.527343 h 3.490234 c 0.94213,0 1.701172,0.759872 1.701172,1.703125 v 18.6875 c 0,0.942131 -0.759042,1.701172 -1.701172,1.701172 H 9.984375 c -0.9421306,0 -1.7011719,-0.759041 -1.7011719,-1.701172 v -18.6875 c 0,-0.943253 0.7590415,-1.703125 1.7011719,-1.703125 h 3.490234 v -4.527343 c 0,-0.94234 0.757919,-1.701172 1.701172,-1.701172 z m 0.66211,2.365234 v 6.228516 h -5.191407 v 17.361328 h 1.789063 v -3.632813 h 2.365234 v 3.632813 h 2.826172 v -3.632813 h 2.365234 v 3.632813 h 2.826172 v -3.632813 h 2.363282 v 3.632813 h 2.826171 v -3.632813 h 2.365235 v 3.632813 h 2.826172 v -0.375 -3.257813 h 2.365234 v 3.632813 h 1.789063 V 19.433594 h -5.191407 v -6.228516 z m 0.75,0.75 h 14.824218 v 6.228516 h 5.191407 v 15.861328 h -0.289063 v -3.632813 h -3.865234 v 3.632813 h -1.326172 v -3.632813 h -3.865235 v 3.632813 h -1.326171 v -3.632813 h -3.863282 v 3.632813 h -1.326172 v -3.632813 h -3.865234 v 3.632813 h -1.326172 v -3.632813 h -3.865234 v 3.632813 H 11.396484 V 20.183594 h 5.191407 z"
       id="path7" />
  </g>
</svg>
