<?xml version="1.0" encoding="UTF-8" standalone="no"?>
<!-- Generator: Gravit.io -->

<svg
   style="isolation:isolate"
   viewBox="0 0 48 48"
   width="48pt"
   height="48pt"
   version="1.1"
   id="svg11"
   sodipodi:docname="4kvideodownloader.svg"
   inkscape:version="1.1.2 (0a00cf5339, 2022-02-04)"
   xmlns:inkscape="http://www.inkscape.org/namespaces/inkscape"
   xmlns:sodipodi="http://sodipodi.sourceforge.net/DTD/sodipodi-0.dtd"
   xmlns:xlink="http://www.w3.org/1999/xlink"
   xmlns="http://www.w3.org/2000/svg"
   xmlns:svg="http://www.w3.org/2000/svg">
  <defs
     id="defs15">
    <linearGradient
       inkscape:collect="always"
       xlink:href="#_lgradient_0"
       id="linearGradient872"
       x1="-12.025727"
       y1="6.1170783"
       x2="-0.085100174"
       y2="6.1170783"
       gradientUnits="userSpaceOnUse"
       gradientTransform="scale(3.8358211,3.8371386)" />
    <linearGradient
       inkscape:collect="always"
       xlink:href="#_lgradient_0"
       id="linearGradient2493"
       x1="9.999999"
       y1="23.288969"
       x2="38.000004"
       y2="23.288969"
       gradientUnits="userSpaceOnUse"
       gradientTransform="matrix(0.99849812,0,0,0.99849812,0.03602026,0.38545809)" />
    <linearGradient
       inkscape:collect="always"
       xlink:href="#_lgradient_0"
       id="linearGradient15-3"
       x1="-9.6850061"
       y1="45.161198"
       x2="11.98815"
       y2="21.735205"
       gradientUnits="userSpaceOnUse"
       gradientTransform="matrix(1.1147442,0,0,1.1150348,-0.00667546,-3.3298623)" />
    <linearGradient
       id="_lgradient_32"
       x1="0.51808703"
       y1="0.033331186"
       x2="0.50732738"
       y2="0.96818912"
       gradientTransform="matrix(-47,0,0,-44,47.5,46)"
       gradientUnits="userSpaceOnUse">
      <stop
         offset="0%"
         stop-opacity="1"
         style="stop-color:rgb(244,97,51)"
         id="stop4-6" />
      <stop
         offset="98.75%"
         stop-opacity="1"
         style="stop-color:rgb(240,80,129)"
         id="stop6-7" />
    </linearGradient>
  </defs>
  <sodipodi:namedview
     id="namedview13"
     pagecolor="#ffffff"
     bordercolor="#666666"
     borderopacity="1.0"
     inkscape:pageshadow="2"
     inkscape:pageopacity="0.0"
     inkscape:pagecheckerboard="0"
     inkscape:document-units="pt"
     showgrid="false"
     inkscape:zoom="5.109375"
     inkscape:cx="20.061162"
     inkscape:cy="32"
     inkscape:window-width="1330"
     inkscape:window-height="545"
     inkscape:window-x="147"
     inkscape:window-y="179"
     inkscape:window-maximized="0"
     inkscape:current-layer="svg11" />
  <linearGradient
     id="_lgradient_0"
     x1="0.05097071143265408"
     y1="0.9093686270790043"
     x2="0.9536247734808043"
     y2="0.1958093215343868"
     gradientTransform="matrix(27.999753,0,0,19.909611,10.000124,13.33415)"
     gradientUnits="userSpaceOnUse">
    <stop
       offset="0%"
       stop-opacity="1"
       style="stop-color:rgb(126,235,218)"
       id="stop2" />
    <stop
       offset="49.56869043334445%"
       stop-opacity="1"
       style="stop-color:rgb(115,255,68)"
       id="stop4" />
    <stop
       offset="98.69565217391305%"
       stop-opacity="1"
       style="stop-color:rgb(255,205,62)"
       id="stop6" />
  </linearGradient>
  <rect
     x="-46.777744"
     y="1.2280574"
     width="45.802109"
     height="45.80014"
     rx="6.1837621"
     shape-rendering="crispEdges"
     id="rect5-6-7-3"
     ry="6.8055277"
     transform="matrix(0.00524063,-0.99998627,0.99998801,0.00489691,0,0)"
     style="fill:#00ffd2;fill-opacity:0.13607304;stroke:url(#linearGradient872);stroke-width:2.0301;stroke-miterlimit:4;stroke-dasharray:none;stroke-opacity:1" />
  <rect
     x="-15.681107"
     y="17.258018"
     width="33.338203"
     height="33.345856"
     rx="6.7920032"
     shape-rendering="crispEdges"
     id="rect5-6-6-6-6-5"
     style="isolation:isolate;fill:#00ffd2;fill-opacity:0.13333334;stroke:url(#linearGradient15-3);stroke-width:1.67233;stroke-miterlimit:4;stroke-dasharray:none;stroke-opacity:1"
     ry="7.4743071"
     transform="matrix(0.72446484,-0.68931175,0.68622417,0.72739012,0,0)" />
  <path
     style="color:#000000;fill:url(#linearGradient2493);stroke-width:1.07246;-inkscape-stroke:none"
     d="m 24.004177,13.163242 c -2.419959,0.0064 -4.763243,0.885967 -6.587676,2.486349 -1.631943,1.425271 -2.728887,3.339878 -3.23414,5.431429 -0.36819,0.10792 -0.734986,0.222814 -1.082934,0.383321 -8.99e-4,3.95e-4 -0.0012,0.0017 -0.0022,0.0022 -0.407273,0.17915 -0.780115,0.404298 -1.124827,0.649342 l -0.0022,0.0022 -0.0042,0.0022 c -0.379752,0.278484 -0.730716,0.598662 -1.034759,0.965634 -0.300873,0.355899 -0.558963,0.752232 -0.764546,1.177193 -0.214994,0.444148 -0.3844728,0.917819 -0.4880544,1.411795 -0.1190796,0.54856 -0.1855764,1.107909 -0.1927073,1.667342 -0.00632,0.512007 0.02664,1.021036 0.092167,1.522812 v 0.0022 0.0022 c 0.061131,0.448745 0.1696419,0.881495 0.3162924,1.302873 0.1421153,0.411116 0.3251923,0.812712 0.5592723,1.191856 l 0.0021,0.0022 0.0021,0.0042 c 0.227406,0.358956 0.495556,0.687615 0.793872,0.98658 l 0.0022,0.0022 0.0022,0.0022 c 0.28194,0.274694 0.598394,0.522288 0.944686,0.731033 0.354668,0.218157 0.733611,0.400038 1.120639,0.542514 l 0.0022,0.0022 h 0.0022 c 0.427176,0.153248 0.862865,0.267677 1.31125,0.341429 0.51844,0.08547 1.048974,0.131916 1.573083,0.138246 h 0.0022 0.02304 4.348494 5.590623 1.242128 4.348494 0.02304 0.0022 c 0.506253,-0.0064 1.010493,-0.05322 1.506054,-0.131963 0.425353,-0.06613 0.851768,-0.165786 1.265168,-0.307913 0.417467,-0.143523 0.816426,-0.333677 1.191857,-0.555083 h 0.0022 c 0.359939,-0.214109 0.691598,-0.47056 0.988675,-0.760358 0.290583,-0.284614 0.547528,-0.602959 0.762454,-0.942593 0.222376,-0.35102 0.406892,-0.717896 0.550893,-1.105975 l 0.0022,-0.0042 c 0.170115,-0.443612 0.282386,-0.903466 0.349807,-1.359428 0.07886,-0.533722 0.111044,-1.071435 0.104737,-1.606597 -0.007,-0.565709 -0.0733,-1.123672 -0.192708,-1.667343 -0.103578,-0.493988 -0.272218,-0.965928 -0.485959,-1.413888 l -0.0022,-0.0022 v -0.0022 C 37.626084,23.827644 37.364257,23.438116 37.06695,23.080054 l -0.0022,-0.0022 v -0.0022 c -0.307459,-0.361787 -0.656182,-0.682966 -1.036854,-0.961477 l -0.0022,-0.0022 C 35.67525,21.857381 35.30533,21.649342 34.92803,21.47082 l -0.0064,-0.0022 -0.0064,-0.0022 c -0.35083,-0.156555 -0.715444,-0.273748 -1.082934,-0.383321 -0.492438,-2.053916 -1.555867,-3.936142 -3.137788,-5.353927 -1.83762,-1.646631 -4.212601,-2.559604 -6.679839,-2.565946 h -0.0022 -0.0064 z m 0.0022,1.072461 h 0.0064 c 2.203918,0.0062 4.323864,0.820474 5.965565,2.291547 1.273275,1.141164 2.114544,2.642381 2.612029,4.26052 l 0.488053,1.124827 1.401321,0.534136 c 0.327524,0.155618 0.634869,0.330474 0.915363,0.534136 v -0.0022 c 0.315292,0.230678 0.598732,0.493538 0.850429,0.789684 0.24829,0.299666 0.458083,0.615576 0.622111,0.955161 0.182524,0.382857 0.323194,0.77674 0.406362,1.175098 v 0.0022 0.0042 c 0.104253,0.474705 0.161492,0.95876 0.167571,1.449499 0.0057,0.483209 -0.02232,0.964178 -0.09217,1.43693 -0.05726,0.38723 -0.153782,0.772467 -0.293252,1.135301 l -0.0022,0.0042 v 0.0022 c -0.117401,0.317514 -0.268846,0.618058 -0.45454,0.911174 -0.170247,0.269032 -0.375332,0.522312 -0.605354,0.747789 -0.237094,0.231285 -0.501528,0.437288 -0.787588,0.607449 -0.319794,0.1884 -0.653361,0.346198 -0.992865,0.462918 -0.34443,0.118414 -0.712387,0.204226 -1.082934,0.261831 v 0.0022 h -0.0022 c -0.447863,0.07117 -0.90079,0.1117 -1.35105,0.1173 h -0.01257 -4.348494 -1.242127 -5.590623 -4.348494 -0.01257 -0.0064 c -0.46845,-0.006 -0.942406,-0.04759 -1.403415,-0.123584 h -0.0022 c -0.381699,-0.06278 -0.751252,-0.159675 -1.118544,-0.291157 l -0.0042,-0.0022 c -0.319359,-0.117891 -0.63582,-0.269866 -0.925836,-0.448255 l -0.0022,-0.0022 h -0.0022 c -0.272783,-0.164285 -0.525436,-0.364025 -0.7516,-0.584376 -0.244088,-0.245334 -0.458988,-0.508691 -0.638869,-0.791778 -0.187921,-0.30438 -0.339199,-0.634203 -0.458728,-0.980295 h -0.0022 v -0.0022 c -0.125215,-0.360131 -0.215101,-0.720587 -0.2659,-1.091311 v -0.0042 c -0.05902,-0.453375 -0.0873,-0.911609 -0.08169,-1.367806 0.0062,-0.483928 0.06301,-0.969885 0.167572,-1.451593 v -0.0022 -0.0022 c 0.08331,-0.398971 0.224668,-0.793422 0.406362,-1.168776 0.165939,-0.343012 0.377313,-0.666192 0.622111,-0.955161 l 0.0022,-0.0022 0.0022,-0.0022 c 0.240456,-0.290226 0.52201,-0.550528 0.835765,-0.781305 l 0.0042,-0.0022 c 8.12e-4,-5.96e-4 0.0013,-0.0015 0.0022,-0.0022 0.298571,-0.211758 0.606581,-0.396263 0.930024,-0.538325 l 0.0042,-0.0022 0.0042,-0.0022 c 0.370089,-0.171398 0.76192,-0.308681 1.164625,-0.412645 0.0022,-5.58e-4 0.0041,-0.0015 0.0064,-0.0022 l 0.326764,-0.05865 0.07331,-0.353996 c 0.412901,-1.994184 1.470752,-3.810877 3.012107,-5.157031 v -0.0022 c 1.628394,-1.42926 3.721677,-2.214216 5.883873,-2.220329 z m -0.0022,1.411794 c -1.817195,0.0071 -3.582346,0.669256 -4.953847,1.872618 -1.379861,1.20626 -2.29975,2.857863 -2.605747,4.668975 l -0.119395,0.822772 -0.490238,0.16186 c -0.314387,0.08896 -0.62815,0.183262 -0.768737,0.222032 l 0.01257,-0.0022 c -0.333534,0.08321 -0.653693,0.198061 -0.957256,0.333049 -0.245488,0.108724 -0.473499,0.246146 -0.68495,0.400078 -0.229773,0.160767 -0.428669,0.3517 -0.596976,0.555083 -3.78e-4,4.41e-4 3.77e-4,0.0016 0,0.0022 -0.171591,0.201005 -0.32099,0.423453 -0.439877,0.659816 l -0.0022,0.0042 -0.0022,0.0064 c -0.130007,0.274536 -0.22535,0.558249 -0.289063,0.848334 v 0.0022 c -0.08191,0.38022 -0.129397,0.774116 -0.136152,1.170909 -0.0071,0.388242 0.02064,0.769923 0.07331,1.145774 0.03483,0.279887 0.09787,0.556557 0.196896,0.829482 2.92e-4,8.74e-4 0.0018,0.0012 0.0022,0.0022 0.08052,0.240884 0.188915,0.475646 0.326766,0.695423 10e-4,0.0017 0.0032,0.0026 0.0042,0.0042 0.114155,0.188863 0.252992,0.3663 0.416836,0.523662 0.154299,0.153398 0.323904,0.285612 0.500622,0.395889 l 0.0042,0.0022 0.0042,0.0022 c 0.212933,0.12749 0.436892,0.237845 0.676573,0.324671 h 0.0022 l 0.0022,0.0022 c 0.274864,0.09666 0.558699,0.17251 0.852523,0.222032 h 0.0022 c 0.400941,0.06659 0.8003,0.09989 1.20233,0.106828 h 0.0042 4.34221 1.242128 5.590623 4.34221 0.0042 c 0.383274,-0.007 0.767048,-0.04133 1.149963,-0.100543 0.286761,-0.04221 0.568256,-0.111717 0.84205,-0.209466 l 0.0064,-0.0022 c 0.241593,-0.08354 0.482868,-0.189542 0.714276,-0.330955 0.18815,-0.112458 0.373382,-0.249033 0.54042,-0.416835 0.14459,-0.144591 0.276872,-0.306237 0.3917,-0.48177 l 0.0022,-0.0022 v -0.0022 c 0.132392,-0.20633 0.236101,-0.419597 0.316293,-0.636774 0.110206,-0.285702 0.181757,-0.579479 0.224127,-0.867185 l -0.0022,0.0022 c 0.06051,-0.397166 0.08863,-0.804477 0.08169,-1.206518 -0.0065,-0.397635 -0.05462,-0.792149 -0.136152,-1.177193 v -0.0042 l -0.0022,-0.0022 C 35.828737,25.915225 35.735518,25.624 35.59198,25.343956 35.477024,25.102878 35.330682,24.882745 35.166766,24.684141 l -0.0022,-0.0042 -0.0042,-0.0042 c -0.175334,-0.204933 -0.374387,-0.388188 -0.595,-0.549078 -0.21211,-0.154521 -0.438109,-0.282597 -0.668192,-0.387511 l -0.0022,-0.0022 c -0.306511,-0.146373 -0.621718,-0.25362 -0.940497,-0.335144 -0.347297,-0.09338 -0.69332,-0.161198 -1.036852,-0.207371 l -0.02095,-0.0022 -0.02304,-0.0022 c -0.08773,-0.0046 -0.08746,-0.0051 -0.150815,-0.0083 l -0.115162,-0.797924 v -0.0022 c -0.267016,-1.851665 -1.181527,-3.550341 -2.572231,-4.80089 -1.376883,-1.2367 -3.165891,-1.925306 -5.022971,-1.933362 h -0.0042 -0.0022 z m 0,1.072461 c 6.99e-4,2e-6 0.0014,-3e-6 0.0022,0 6.99e-4,3e-6 0.0014,-3e-6 0.0022,0 1.59478,0.0071 3.130728,0.599043 4.310792,1.658963 1.205888,1.08436 1.995969,2.553424 2.226613,4.155787 v 0.0022 c 0,0 0.08107,0.527266 0.115205,0.791777 0.05773,0.447341 0.15693,1.006619 0.15693,1.006619 0,0 0.800675,-0.09274 0.970097,-0.07467 0.299253,0.03192 0.593573,0.09675 0.888132,0.17595 l 0.0042,0.0022 h 0.0022 c 0.262354,0.06678 0.516136,0.154318 0.754074,0.268116 l 0.0042,0.0022 0.0042,0.0022 c 0.176316,0.07996 0.345542,0.175339 0.490148,0.280683 0.150916,0.110062 0.283304,0.23661 0.404267,0.377036 0.119105,0.144518 0.218428,0.293805 0.289062,0.444067 l 0.0042,0.0083 0.0042,0.0083 c 0.09043,0.175414 0.158883,0.379183 0.20737,0.592785 0.06835,0.32282 0.107777,0.648597 0.113111,0.971918 0.006,0.342027 -0.01789,0.692286 -0.06912,1.028473 v 0.0022 0.0022 c -0.03278,0.221268 -0.08698,0.435971 -0.163545,0.634471 v 0.0042 l -0.0022,0.0042 c -0.05619,0.153436 -0.12622,0.296157 -0.215749,0.435688 -0.07142,0.108396 -0.159628,0.218277 -0.249264,0.307913 l -0.0022,0.0022 c -0.0935,0.09393 -0.206503,0.180318 -0.32886,0.253453 l -0.0042,0.0022 h -0.002 c -0.150376,0.09236 -0.32547,0.17135 -0.515284,0.236696 l -0.0042,0.0022 h -0.0022 c -0.208444,0.07477 -0.422817,0.128869 -0.643059,0.161288 h -0.0022 -0.0022 c -0.33665,0.05222 -0.671235,0.08187 -1.007526,0.08797 h -4.327548 -5.590623 -1.242128 -4.327547 -0.0083 c -0.352814,-0.0065 -0.695778,-0.03551 -1.036851,-0.09217 -0.227125,-0.03828 -0.449131,-0.0984 -0.670288,-0.17595 -0.167819,-0.0608 -0.32393,-0.136529 -0.48177,-0.230412 -0.118619,-0.07402 -0.223423,-0.154299 -0.316292,-0.247169 l -0.0042,-0.0042 -0.0042,-0.0042 c -0.09283,-0.08859 -0.174302,-0.192359 -0.245074,-0.31001 l -0.0042,-0.0064 -0.0022,-0.0042 c -0.09411,-0.148764 -0.169189,-0.308573 -0.224127,-0.47339 l -0.0042,-0.0083 -0.0022,-0.0064 c -0.07166,-0.194578 -0.11816,-0.397017 -0.144584,-0.609417 v -0.0042 l -0.0022,-0.0042 c -0.04649,-0.329347 -0.06881,-0.653697 -0.06283,-0.982391 v -0.0022 c 0.0053,-0.322752 0.04552,-0.646996 0.113111,-0.961444 v -0.0022 c 0.04711,-0.213889 0.112753,-0.412034 0.203181,-0.605354 0.08071,-0.16047 0.18071,-0.31202 0.295346,-0.446159 l 0.0022,-0.0042 0.0042,-0.0042 c 0.11565,-0.140707 0.250345,-0.269126 0.389606,-0.366564 l 0.0042,-0.0042 0.0064,-0.0022 c 0.1589,-0.116392 0.324,-0.214898 0.496433,-0.291157 0.25559,-0.113656 0.518805,-0.208905 0.781304,-0.2744 h 0.0064 l 0.0064,-0.0022 c 0.176468,-0.04867 0.474487,-0.141185 0.775021,-0.226222 0.277988,-0.07865 0.547948,-0.140688 0.645153,-0.157099 l 0.429403,-0.09408 0.301629,-1.583727 c 0.265054,-1.568791 1.0616,-2.998333 2.253844,-4.040581 v -0.0022 c 1.174343,-1.030977 2.688958,-1.599419 4.248033,-1.606462 z m -5.299465,3.407996 v 1.725992 2.379523 1.189762 4.105515 h 2.915753 4.759047 2.915753 v -1.725992 -2.379523 -1.189762 -2.379523 -1.725992 h -2.915753 -4.759047 z m 1.072461,1.072461 h 1.843292 4.759047 1.843292 v 0.653531 2.379523 1.189762 2.379523 0.653531 h -1.843292 -4.759047 -1.843292 v -3.033054 -1.189762 -2.379523 z m 1.307062,0.117301 V 24.7697 h 5.831507 v -0.536231 -2.915753 z m 1.072461,1.072461 h 3.686585 v 1.307061 H 22.156696 Z M 21.084235,24.887 v 3.451984 h 5.831507 V 24.887 h -0.53623 z m 1.072461,1.072462 h 3.686585 v 1.307061 h -3.686585 z"
     id="path9"
     sodipodi:nodetypes="cccccccccccccccccccscccccccccccccccccscccccccccccccccccccccccccccccccccccccccccccccccsccccccccccccccccccccccccccccccccccccccccccccccccccccccccccccccccccccccccccccccccccccccccccccccccccccccccccccccccccccccccsccccscsccccccccccccccccccccssccccccccccccccccccscccccccccccccccccccccccccccccccccccccccccccccccccccccccccccccccccccccccccccccccccccccccc" />
</svg>
