<?xml version="1.0" encoding="UTF-8" standalone="no"?>
<!-- Generator: Gravit.io -->

<svg
   style="isolation:isolate"
   viewBox="0 0 48 48"
   width="48"
   height="48"
   version="1.1"
   id="svg25"
   sodipodi:docname="accessories-character-map.svg"
   inkscape:version="1.1.2 (0a00cf5339, 2022-02-04)"
   xmlns:inkscape="http://www.inkscape.org/namespaces/inkscape"
   xmlns:sodipodi="http://sodipodi.sourceforge.net/DTD/sodipodi-0.dtd"
   xmlns:xlink="http://www.w3.org/1999/xlink"
   xmlns="http://www.w3.org/2000/svg"
   xmlns:svg="http://www.w3.org/2000/svg">
  <rect
     x="-46.655479"
     y="1.2277555"
     width="45.68222"
     height="45.795296"
     rx="6.1675758"
     shape-rendering="crispEdges"
     id="rect5-6-7-3"
     ry="6.8048081"
     transform="matrix(0.00525383,-0.9999862,0.99998807,0.00488461,0,0)"
     style="isolation:isolate;fill:#ffad00;fill-opacity:0.13607298;stroke:url(#linearGradient872);stroke-width:2.02733;stroke-miterlimit:4;stroke-dasharray:none;stroke-opacity:1" />
  <rect
     x="-15.665761"
     y="17.273371"
     width="33.307507"
     height="33.315151"
     rx="6.785749"
     shape-rendering="crispEdges"
     id="rect5-6-6-6-6-3"
     style="isolation:isolate;fill:#ffad00;fill-opacity:0.13333334;stroke:url(#linearGradient15-3);stroke-width:1.67100755;stroke-miterlimit:4;stroke-dasharray:none;stroke-opacity:1"
     ry="7.4674249"
     transform="matrix(0.72446485,-0.68931175,0.68622417,0.72739012,0,0)" />
  <path
     style="color:#000000;fill:url(#linearGradient1610);stroke-width:1.09275;-inkscape-stroke:none"
     d="m 17.306434,12.212309 c -0.227076,0.01082 -0.441981,0.07589 -0.627476,0.213428 -0.185495,0.137535 -0.354288,0.381361 -0.354289,0.674429 v 5.457331 c -0.310179,-0.06705 -0.589341,-0.179279 -0.936944,-0.179279 -0.76386,0 -1.461829,0.166511 -2.012618,0.471674 -0.55079,0.305162 -1.007376,0.801589 -1.007376,1.447036 0,0.645446 0.456586,1.139738 1.007376,1.4449 0.550789,0.305163 1.248758,0.471675 2.012618,0.471675 0.763858,0 1.461827,-0.166512 2.012616,-0.471675 0.55079,-0.305162 1.007376,-0.799454 1.007376,-1.4449 v -3.167259 c 0.473138,0.220041 0.888282,0.542078 1.105552,1.043659 -0.101505,0.15103 -0.232957,0.290946 -0.21556,0.48021 0.02629,0.286049 0.209633,0.519671 0.424719,0.650954 0.432454,0.266558 0.915123,0.251976 1.321114,-0.06617 0.14622,-0.114896 0.25999,-0.238585 0.369228,-0.358557 0.03249,-0.02625 0.06763,-0.05963 0.102445,-0.100315 0.470523,-0.545369 0.78411,-1.225723 0.847306,-1.937918 0.04572,-0.521155 -0.125147,-1.040125 -0.443928,-1.491855 -0.520872,-0.73918 -1.322887,-1.082596 -1.997678,-1.395813 C 19.417189,13.7201 18.990841,13.508032 18.7492,13.281569 l -0.06189,-0.05762 c -0.09918,-0.09228 -0.193425,-0.183006 -0.251844,-0.24971 -0.05521,-0.06304 -0.05742,-0.09774 -0.04268,-0.02774 l -0.0022,-0.0022 c -0.05879,-0.287762 -0.254588,-0.47925 -0.448197,-0.586924 -0.194393,-0.108106 -0.407168,-0.154175 -0.631744,-0.145131 h -0.0022 z m 13.324252,0.153668 c -0.60729,10e-7 -1.166034,0.162002 -1.604972,0.461002 -0.438937,0.299001 -0.776874,0.774142 -0.776874,1.336055 0,0.500693 0.322613,0.891352 0.691503,1.190922 -0.144896,0.06117 -0.346232,0.07704 -0.452464,0.149399 l -2.44801,1.666866 -0.0022,0.0022 c -0.244681,0.170042 -0.443532,0.488608 -0.414048,0.808888 0.02948,0.32028 0.223185,0.536466 0.422585,0.672295 0.398799,0.271659 0.96737,0.33665 1.461975,0.0064 l 0.0022,-0.0022 0.616804,-0.420451 v 0.09604 l -0.979631,0.665893 c -8.46e-4,5.65e-4 -0.0013,0.0015 -0.0022,0.0022 -0.31924,0.214116 -0.550641,0.567201 -0.550641,0.954019 0,0.386816 0.231403,0.737768 0.550641,0.951884 8.47e-4,5.69e-4 0.0013,0.0015 0.0022,0.0022 l 1.833339,1.248548 h 0.0022 c 0.49459,0.330133 1.063207,0.267368 1.461974,-0.0043 0.08768,-0.05973 0.113538,-0.203674 0.185682,-0.296663 0.07214,0.09299 0.098,0.236937 0.185682,0.296663 0.39878,0.271646 0.969514,0.33445 1.46411,0.0043 h 0.0022 l 1.833339,-1.248548 0.0022,-0.0022 c 0.319237,-0.214116 0.548508,-0.565069 0.548508,-0.951884 0,-0.386818 -0.229269,-0.739902 -0.548508,-0.954019 l -0.983899,-0.670161 v -0.09391 l 0.616804,0.420452 0.0022,0.0022 c 0.494613,0.330294 1.063163,0.265264 1.461976,-0.0064 0.199407,-0.135833 0.395246,-0.354133 0.42472,-0.674429 0.02947,-0.320296 -0.171481,-0.63672 -0.416183,-0.806754 l -0.0022,-0.0022 -2.448008,-1.666866 c -0.106237,-0.07236 -0.30757,-0.08823 -0.452466,-0.149399 0.368892,-0.299571 0.691505,-0.690229 0.691505,-1.190922 -2e-6,-0.561912 -0.337937,-1.037054 -0.776876,-1.336055 -0.438937,-0.299 -0.997679,-0.461002 -1.604971,-0.461002 z M 17.31924,13.159926 h 0.0022 c 0.0036,0.01786 0.01496,0.01953 0.01921,0.03628 -0.0086,-0.01872 -0.01605,-0.0098 -0.02134,-0.03628 z m 0.09817,0.17501 c 0.06197,0.13157 0.120645,0.274248 0.196353,0.360692 0.112511,0.128464 0.228971,0.235902 0.328678,0.328677 l 0.05976,0.05549 v -0.0022 c 0.431194,0.40411 0.956294,0.632834 1.459841,0.866513 0.674834,0.313237 1.269824,0.620083 1.562287,1.035122 0.199724,0.283019 0.26929,0.543015 0.249709,0.766204 -0.03939,0.443946 -0.258074,0.930448 -0.582656,1.310441 l -0.01071,-0.03628 c -0.4193,-1.46686 -1.858243,-2.02968 -2.680644,-2.247387 l -0.582657,-0.153667 z m 13.213271,0.123787 c 0.406147,0 0.765103,0.11765 0.990301,0.271053 0.225199,0.153403 0.298799,0.304824 0.298799,0.433258 0,0.128432 -0.0736,0.279853 -0.298799,0.433256 -0.225198,0.153403 -0.584154,0.271053 -0.990301,0.271053 -0.406147,0 -0.765103,-0.11765 -0.990302,-0.271053 -0.225198,-0.153403 -0.298797,-0.304824 -0.298797,-0.433256 0,-0.128434 0.0736,-0.279855 0.298797,-0.433258 0.225199,-0.153403 0.584155,-0.271053 0.990302,-0.271053 z m -1.101284,2.791627 h 2.202568 c 0.206145,0 0.230255,0.05289 0.309469,0.113116 v 1.212266 H 29.21993 v -1.212266 c 0.08025,-0.06108 0.102413,-0.113116 0.309469,-0.113116 z m 0.183548,2.418128 h 1.835472 l -0.917733,0.625342 -0.181412,-0.123787 z m -1.03939,0.61467 0.497285,0.33935 -0.986033,0.672296 -0.428989,-0.292396 -0.0022,-0.0022 c -0.09068,-0.06052 -0.06617,-0.0699 -0.06617,-0.04482 0,0.02509 -0.02451,0.01356 0.06617,-0.04696 h 0.0022 z m 3.914252,0 0.917737,0.625342 h 0.0022 c 0.09068,0.06052 0.06617,0.07204 0.06617,0.04696 0,-0.02509 0.02451,-0.0157 -0.06617,0.04482 l -0.0022,0.0022 -0.426854,0.292396 -0.988168,-0.672296 z m -17.200088,0.187816 c 0.489376,0 0.931453,0.09603 1.272025,0.239039 l 0.655221,0.27532 v 0.311605 c 0,0.11055 -0.09876,0.299643 -0.443928,0.490881 -0.345166,0.19124 -0.883702,0.332947 -1.483318,0.332947 -0.599616,0 -1.138151,-0.141707 -1.483318,-0.332947 -0.345167,-0.191238 -0.443928,-0.380331 -0.443928,-0.490881 0,-0.11055 0.09876,-0.299645 0.443928,-0.490883 0.345167,-0.191238 0.883702,-0.335081 1.483318,-0.335081 z m 15.242962,0.478077 0.181413,0.123788 0.437526,0.298798 -0.43966,0.298798 -0.0022,0.0022 c -0.104816,0.07285 -0.103352,0.230205 -0.177145,0.345751 -0.07378,-0.115546 -0.07234,-0.272893 -0.177144,-0.345751 l -0.0022,-0.0022 -0.43966,-0.298798 z m -13.027589,5.739054 v 0.0022 c -0.147176,-0.05135 -0.309501,-0.05139 -0.456733,0 -0.07362,0.02547 -0.483169,0.17045 -0.919871,0.533568 -0.437901,0.364113 -0.904931,0.992274 -0.904931,1.85895 v 0.0043 0.0022 c 2.34e-4,0.02108 0.01005,0.04084 0.01071,0.06189 -0.01323,-0.0049 -0.02299,-0.01663 -0.03628,-0.02134 l -0.0043,-0.0022 h -0.0043 c -0.809445,-0.273839 -1.546676,0.0012 -2.014752,0.322275 -0.234037,0.160512 -0.413471,0.330976 -0.542105,0.469541 -0.123221,0.132733 -0.17805,0.205048 -0.221964,0.268917 -9.55e-4,0.0013 -0.0012,0.0029 -0.0022,0.0043 -0.08621,0.120987 -0.132325,0.263765 -0.132325,0.40978 0,0.104838 0.0054,0.523668 0.200621,1.062866 0.195219,0.539199 0.623939,1.202017 1.43423,1.474781 h 0.0022 0.0022 c 0.02613,0.0085 0.05481,0.0027 0.0811,0.01071 -0.01961,0.02591 -0.04932,0.04185 -0.0683,0.0683 l -0.0022,0.0022 -0.0022,0.0043 c -0.982012,1.40699 0.100183,2.994499 0.113116,3.013591 5.49e-4,8.5e-4 0.0015,0.0013 0.0022,0.0022 0.08706,0.133669 0.219503,0.234823 0.377766,0.281723 0.292952,0.08704 0.597616,0.131676 0.902796,0.130191 0.647756,-5.05e-4 1.222173,-0.222101 1.63912,-0.612536 0.157925,-0.147882 0.204034,-0.387208 0.320141,-0.56985 0.116769,0.183501 0.163725,0.42373 0.322275,0.571984 0.417026,0.389946 0.991176,0.610402 1.636986,0.610402 0.30375,6.06e-4 0.604662,-0.04521 0.896393,-0.132325 h 0.0022 c 0.158085,-0.04681 0.287078,-0.148807 0.373498,-0.279589 0.07606,-0.10781 0.292163,-0.426817 0.437526,-0.973227 0.147576,-0.554732 0.175502,-1.339574 -0.318007,-2.044632 l -0.0022,-0.0043 -0.0022,-0.0022 c -0.01782,-0.02472 -0.04565,-0.03977 -0.06402,-0.06402 0.02497,-0.0075 0.052,-0.0026 0.07683,-0.01071 l 0.0022,-0.0022 h 0.0043 c 0.810287,-0.272765 1.239011,-0.935583 1.43423,-1.47478 0.19522,-0.539198 0.200622,-0.958004 0.200622,-1.062867 0,-0.146248 -0.04626,-0.288919 -0.132325,-0.40978 -0.0449,-0.06551 -0.09906,-0.138694 -0.224098,-0.273187 -0.12882,-0.138551 -0.309927,-0.311213 -0.544239,-0.471674 -0.468623,-0.320922 -1.206831,-0.595986 -2.016886,-0.322275 l -0.0022,0.0022 h -0.0022 c -0.01389,0.0048 -0.0246,0.01631 -0.03842,0.02134 6.5e-4,-0.02332 0.01257,-0.04496 0.01281,-0.0683 v -0.0022 -0.0022 c 0,-0.863853 -0.46717,-1.491882 -0.904931,-1.85468 -0.43776,-0.3628 -0.850432,-0.508808 -0.922005,-0.533569 z m 13.019052,0.09177 c -0.704525,0 -1.385676,0.07497 -2.042497,0.228366 -0.643786,0.140259 -1.211422,0.314569 -1.703149,0.5293 l -0.531433,0.232635 1.007376,1.980604 0.463136,-0.17928 c 0.400905,-0.156361 0.835419,-0.295004 1.30404,-0.414048 l 0.0043,-0.0022 h 0.0064 c 0.438555,-0.12069 0.901567,-0.183548 1.395814,-0.183548 0.609046,0 1.016858,0.124601 1.261354,0.300933 0.184965,0.133398 0.30825,0.412756 0.318007,0.962555 l -1.207998,0.03202 c -1.727189,0.04242 -3.042924,0.282366 -3.986818,0.811023 -4.92e-4,2.7e-4 -0.0016,-2.71e-4 -0.0022,0 -0.933809,0.513294 -1.496123,1.381567 -1.496123,2.386114 0,0.979981 0.408244,1.833759 1.171714,2.332759 l 0.0043,0.0022 0.0022,0.0022 c 0.722532,0.460132 1.611025,0.67443 2.625153,0.67443 0.918029,0 1.663857,-0.107865 2.262327,-0.373498 h 0.0022 c 0.340699,-0.148002 0.636204,-0.430617 0.947616,-0.668026 l 0.245441,0.885722 h 2.196165 V 29.1158 c 0,-1.084672 -0.372123,-2.006205 -1.12903,-2.563259 -0.749838,-0.551852 -1.794834,-0.772606 -3.118169,-0.772606 z M 17.37473,26.797916 c 0.0904,0.03806 0.236956,0.08604 0.452465,0.26465 0.277196,0.229729 0.509312,0.527524 0.510091,1.011644 2e-6,8.15e-4 0,0.0013 0,0.0022 -0.0039,0.311951 -0.05904,0.621207 -0.162204,0.913469 l -0.642416,1.822667 1.502527,-1.216535 c 0.233921,-0.18933 0.495717,-0.334788 0.774741,-0.433256 h 0.0022 c 0.425708,-0.142898 0.753061,-0.01412 1.047927,0.187816 0.147724,0.101166 0.273507,0.219966 0.360691,0.313737 0.02859,0.03074 0.02088,0.02244 0.04268,0.04909 -0.0046,0.06983 -0.0087,0.286328 -0.115251,0.580522 -0.126853,0.35037 -0.328819,0.665245 -0.755531,0.808889 -0.281101,0.09032 -0.573099,0.130991 -0.866515,0.119519 l -1.854681,-0.07257 1.5196,1.067136 c 0.24567,0.172329 0.460865,0.386114 0.640282,0.633878 0.269769,0.386923 0.255947,0.777174 0.16007,1.137567 -0.07705,0.289631 -0.185383,0.441404 -0.226232,0.51009 -0.141023,0.03032 -0.282575,0.06218 -0.426854,0.06189 h -0.0022 c -0.420726,0 -0.670415,-0.110554 -0.889991,-0.315872 -0.219576,-0.205317 -0.409116,-0.542005 -0.546373,-1.013779 l -0.529299,-1.818398 -0.520763,1.822666 c -0.133423,0.467295 -0.320038,0.801429 -0.53997,1.007376 -0.219932,0.205948 -0.471861,0.318007 -0.89426,0.318007 h -0.0022 -0.0022 c -0.14436,7.03e-4 -0.285541,-0.0297 -0.426854,-0.05976 -0.14735,-0.236677 -0.552164,-0.953467 -0.06617,-1.649792 0.178598,-0.247644 0.394511,-0.460811 0.640282,-0.631744 l 1.53454,-1.067136 -1.867487,0.07257 c -0.293899,0.01133 -0.587373,-0.03028 -0.868648,-0.121653 -0.426717,-0.143644 -0.628679,-0.458519 -0.755532,-0.80889 -0.106499,-0.294159 -0.108575,-0.510636 -0.113116,-0.580521 0.02171,-0.02654 0.01415,-0.01835 0.04268,-0.04909 0.08704,-0.09376 0.213258,-0.212623 0.360692,-0.313738 0.294866,-0.202229 0.619748,-0.331949 1.045792,-0.187816 0.280038,0.100304 0.542737,0.247993 0.776875,0.43966 l 1.508929,1.235743 -0.646684,-1.839742 c -0.103221,-0.293398 -0.158268,-0.602688 -0.162204,-0.915601 v -0.0022 c 7.79e-4,-0.48911 0.233033,-0.787675 0.510091,-1.018047 0.215231,-0.178965 0.360003,-0.226575 0.450331,-0.264651 z m 13.247419,0.0747 c 1.19477,0 2.013664,0.222238 2.471486,0.559179 0.450754,0.331737 0.682967,0.825671 0.682967,1.683939 v 5.111579 h -0.273187 l -0.326544,-1.178117 h -0.52503 c 0.318532,-0.455167 0.53997,-0.97683 0.53997,-1.592167 V 30.29812 h 0.01921 v -1.026584 c 0,-0.790425 -0.232241,-1.48561 -0.785411,-1.884561 -0.497891,-0.359083 -1.141371,-0.504225 -1.888829,-0.505823 0.02962,-3.03e-4 0.05562,-0.0085 0.08538,-0.0085 z m -0.326543,0.03628 c -0.496247,0.01716 -0.983707,0.06393 -1.444902,0.18995 -0.338983,0.08611 -0.644234,0.196868 -0.956153,0.303067 l -0.01921,-0.03628 c 0.297984,-0.100686 0.568181,-0.20992 0.936945,-0.290261 h 0.0043 0.0043 c 0.469932,-0.110257 0.968587,-0.146346 1.474782,-0.166474 z m -2.202567,3.999623 c -0.537186,0.372761 -0.926275,0.925809 -0.926275,1.570824 0,0.600908 0.28123,1.177481 0.776875,1.487586 l 0.0022,0.0022 0.0043,0.0022 c 0.42951,0.259131 0.957534,0.353535 1.52387,0.371363 -0.108892,0.0043 -0.140678,0.04055 -0.258248,0.04055 -0.860752,0 -1.525467,-0.178988 -2.036094,-0.503688 -0.466874,-0.306724 -0.674429,-0.702269 -0.674429,-1.415022 0,-0.648491 0.246453,-1.052228 0.930541,-1.427826 l 0.0022,-0.0022 h 0.0022 c 0.126388,-0.07101 0.491892,-0.06421 0.653088,-0.125922 z m 4.006025,0.367095 v 0.181413 c 0,0.674207 -0.192688,1.049763 -0.62534,1.344591 -0.47204,0.311094 -1.079757,0.48021 -1.871756,0.48021 -0.479097,0 -0.828495,-0.09546 -1.082075,-0.247574 -0.193146,-0.122274 -0.260382,-0.22925 -0.260382,-0.554911 0,-0.357645 0.10192,-0.536662 0.463138,-0.751264 0.336826,-0.193516 1.174189,-0.382563 2.418128,-0.422586 z m -0.80462,2.646496 c -0.08567,0.04627 -0.167485,0.141815 -0.253978,0.179278 l -0.0022,0.0022 h -0.0022 c -0.205417,0.09132 -0.648375,0.102707 -0.990302,0.151533 0.459355,-0.03874 0.855962,-0.180448 1.248549,-0.332945 z"
     id="legRight" />
  <sodipodi:namedview
     id="namedview27"
     pagecolor="#ffffff"
     bordercolor="#666666"
     borderopacity="1.0"
     inkscape:pageshadow="2"
     inkscape:pageopacity="0.0"
     inkscape:pagecheckerboard="0"
     showgrid="false"
     width="48px"
     inkscape:zoom="10.276619"
     inkscape:cx="16.201827"
     inkscape:cy="28.705939"
     inkscape:window-width="1600"
     inkscape:window-height="836"
     inkscape:window-x="0"
     inkscape:window-y="0"
     inkscape:window-maximized="1"
     inkscape:current-layer="svg25" />
  <defs
     id="defs12">
    <linearGradient
       id="gradMain">
      <stop
         offset="0"
         style="stop-color:#ffd42a;stop-opacity:1"
         id="stop2" />
      <stop
         offset="1"
         style="stop-color:#ff2a7f;stop-opacity:1"
         id="stop4" />
    </linearGradient>
    <linearGradient
       xlink:href="#gradMain"
       id="gradFrame"
       x1="-371"
       y1="-30.999998"
       x2="-44"
       y2="-31"
       gradientUnits="userSpaceOnUse"
       gradientTransform="translate(384,208)" />
    <linearGradient
       xlink:href="#gradMain"
       id="gradNote"
       x1="-371"
       y1="-30.999998"
       x2="-44"
       y2="-31"
       gradientUnits="userSpaceOnUse"
       gradientTransform="translate(384,208)" />
    <linearGradient
       xlink:href="#gradMain"
       id="gradFlower"
       x1="-24.341501"
       y1="-16.319315"
       x2="168.7847"
       y2="-16.319315"
       gradientUnits="userSpaceOnUse" />
    <linearGradient
       xlink:href="#gradMain"
       id="gradLetter"
       x1="-332.74829"
       y1="-34.563663"
       x2="-39.463409"
       y2="-34.563663"
       gradientUnits="userSpaceOnUse"
       gradientTransform="translate(384,208)" />
    <linearGradient
       xlink:href="#gradMain"
       id="gradNursery"
       x1="-37.273201"
       y1="73.108772"
       x2="20.396704"
       y2="71.840492"
       gradientUnits="userSpaceOnUse" />
    <linearGradient
       id="_lgradient_0"
       x1="0.050970711"
       y1="0.90936863"
       x2="0.95362478"
       y2="0.19580932"
       gradientTransform="matrix(27.999753,0,0,19.909611,10.000124,13.33415)"
       gradientUnits="userSpaceOnUse">
      <stop
         offset="0%"
         stop-opacity="1"
         style="stop-color:rgb(126,235,218)"
         id="stop2-3" />
      <stop
         offset="49.56869043334445%"
         stop-opacity="1"
         style="stop-color:rgb(115,255,68)"
         id="stop4-6" />
      <stop
         offset="98.69565217391305%"
         stop-opacity="1"
         style="stop-color:rgb(255,205,62)"
         id="stop6" />
    </linearGradient>
    <linearGradient
       inkscape:collect="always"
       xlink:href="#gradMain"
       id="linearGradient872"
       x1="-12.025727"
       y1="6.1170783"
       x2="-0.085100174"
       y2="6.1170783"
       gradientUnits="userSpaceOnUse"
       gradientTransform="matrix(3.8257807,0,0,3.8367329,-1.7769524e-4,-1.7194997e-4)" />
    <linearGradient
       inkscape:collect="always"
       xlink:href="#gradMain"
       id="linearGradient1610"
       x1="23.879343"
       y1="34.670967"
       x2="24.019764"
       y2="12.737816"
       gradientUnits="userSpaceOnUse"
       gradientTransform="matrix(1.0407733,0,0,1.0407733,-0.97880117,-0.9758099)" />
    <linearGradient
       inkscape:collect="always"
       xlink:href="#gradMain"
       id="linearGradient15-3"
       x1="-9.6850061"
       y1="45.161198"
       x2="11.98815"
       y2="21.735205"
       gradientUnits="userSpaceOnUse"
       gradientTransform="matrix(1.1137177,0,0,1.1140081,-0.00576297,-3.2955533)" />
    <linearGradient
       id="_lgradient_32"
       x1="0.51808703"
       y1="0.033331186"
       x2="0.50732738"
       y2="0.96818912"
       gradientTransform="matrix(-47,0,0,-44,47.5,46)"
       gradientUnits="userSpaceOnUse">
      <stop
         offset="0%"
         stop-opacity="1"
         style="stop-color:rgb(244,97,51)"
         id="stop4-67" />
      <stop
         offset="98.75%"
         stop-opacity="1"
         style="stop-color:rgb(240,80,129)"
         id="stop6-5" />
    </linearGradient>
  </defs>
</svg>
