<?xml version="1.0" encoding="UTF-8" standalone="no"?>
<!-- Generator: Gravit.io -->

<svg
   style="isolation:isolate"
   viewBox="0 0 48 48"
   width="48pt"
   height="48pt"
   version="1.1"
   id="svg16"
   sodipodi:docname="androidstudio.svg"
   inkscape:version="1.1.2 (0a00cf5339, 2022-02-04)"
   xmlns:inkscape="http://www.inkscape.org/namespaces/inkscape"
   xmlns:sodipodi="http://sodipodi.sourceforge.net/DTD/sodipodi-0.dtd"
   xmlns:xlink="http://www.w3.org/1999/xlink"
   xmlns="http://www.w3.org/2000/svg"
   xmlns:svg="http://www.w3.org/2000/svg">
  <defs
     id="defs20">
    <linearGradient
       inkscape:collect="always"
       xlink:href="#_lgradient_6"
       id="linearGradient15"
       x1="-9.6850061"
       y1="45.161198"
       x2="11.98815"
       y2="21.735205"
       gradientUnits="userSpaceOnUse"
       gradientTransform="matrix(1.1147442,0,0,1.1150348,-0.01240999,-3.3277564)" />
    <linearGradient
       id="_lgradient_32"
       x1="0.51808703"
       y1="0.033331186"
       x2="0.50732738"
       y2="0.96818912"
       gradientTransform="matrix(-47,0,0,-44,47.5,46)"
       gradientUnits="userSpaceOnUse">
      <stop
         offset="0%"
         stop-opacity="1"
         style="stop-color:rgb(244,97,51)"
         id="stop4-3" />
      <stop
         offset="98.75%"
         stop-opacity="1"
         style="stop-color:rgb(240,80,129)"
         id="stop6" />
    </linearGradient>
    <linearGradient
       inkscape:collect="always"
       xlink:href="#_lgradient_6"
       id="linearGradient872"
       x1="-12.025727"
       y1="6.1170783"
       x2="-0.085100174"
       y2="6.1170783"
       gradientUnits="userSpaceOnUse"
       gradientTransform="matrix(3.8358211,0,0,3.8371386,-0.00549785,-0.0026806)" />
    <linearGradient
       inkscape:collect="always"
       xlink:href="#_lgradient_6"
       id="linearGradient1039"
       x1="9.9926443"
       y1="23.708336"
       x2="38.007355"
       y2="23.708336"
       gradientUnits="userSpaceOnUse"
       gradientTransform="translate(0,-0.77473344)" />
  </defs>
  <sodipodi:namedview
     id="namedview18"
     pagecolor="#ffffff"
     bordercolor="#666666"
     borderopacity="1.0"
     inkscape:pageshadow="2"
     inkscape:pageopacity="0.0"
     inkscape:pagecheckerboard="0"
     inkscape:document-units="pt"
     showgrid="false"
     inkscape:zoom="7.2257474"
     inkscape:cx="31.899814"
     inkscape:cy="31.553829"
     inkscape:window-width="1600"
     inkscape:window-height="836"
     inkscape:window-x="0"
     inkscape:window-y="0"
     inkscape:window-maximized="1"
     inkscape:current-layer="svg16" />
  <linearGradient
     id="_lgradient_5"
     x1="0"
     y1="0.5"
     x2="1"
     y2="0.5"
     gradientTransform="matrix(33.608,0,0,36.97,6.755,9.03)"
     gradientUnits="userSpaceOnUse">
    <stop
       offset="0%"
       stop-opacity="1"
       style="stop-color:rgb(17,153,142)"
       id="stop2" />
    <stop
       offset="99.1304347826087%"
       stop-opacity="1"
       style="stop-color:rgb(56,239,125)"
       id="stop4" />
  </linearGradient>
  <rect
     x="-46.783241"
     y="1.2253767"
     width="45.802109"
     height="45.80014"
     rx="6.1837621"
     shape-rendering="crispEdges"
     id="rect5-6-7-3"
     ry="6.8055277"
     transform="matrix(0.00524063,-0.99998627,0.99998801,0.00489691,0,0)"
     style="isolation:isolate;fill:#00ffa6;fill-opacity:0.13607298;stroke:url(#linearGradient872);stroke-width:2.0301;stroke-miterlimit:4;stroke-dasharray:none;stroke-opacity:1" />
  <rect
     x="-15.686841"
     y="17.260124"
     width="33.338203"
     height="33.345856"
     rx="6.7920032"
     shape-rendering="crispEdges"
     id="rect5-6-6-6-6"
     style="isolation:isolate;fill:#00ffa6;fill-opacity:0.13607298;stroke:url(#linearGradient15);stroke-width:1.67233;stroke-miterlimit:4;stroke-dasharray:none;stroke-opacity:1"
     ry="7.4743071"
     transform="matrix(0.72446484,-0.68931175,0.68622417,0.72739012,0,0)" />
  <linearGradient
     id="_lgradient_6"
     x1="0"
     y1="0.5"
     x2="1"
     y2="0.5"
     gradientTransform="matrix(48,0,0,48,0,0)"
     gradientUnits="userSpaceOnUse">
    <stop
       offset="0%"
       stop-opacity="1"
       style="stop-color:rgb(17,153,142)"
       id="stop9" />
    <stop
       offset="99.1304347826087%"
       stop-opacity="1"
       style="stop-color:rgb(56,239,125)"
       id="stop11" />
  </linearGradient>
  <path
     style="color:#000000;fill:url(#linearGradient1039);-inkscape-stroke:none"
     d="m 24,8.7115947 c -3.768791,0 -7.390107,1.4994823 -10.056641,4.1660163 -2.666533,2.666533 -4.1640621,6.28785 -4.1640621,10.05664 0,2.399451 0.6035251,4.762435 1.7656251,6.861328 0.436,0.791331 1.444355,1.085975 2.234375,0.648438 0.789236,-0.437102 1.077524,-1.447461 0.640625,-2.236328 -0.889898,-1.611451 -1.355469,-3.425678 -1.355469,-5.273438 0,-2.897455 1.15475,-5.680139 3.205078,-7.730468 2.05033,-2.050328 4.833013,-3.205078 7.730469,-3.205078 2.897456,0 5.680139,1.15475 7.730469,3.205078 2.050328,2.050329 3.205078,4.833013 3.205078,7.730468 0,1.84776 -0.465571,3.661987 -1.355469,5.273438 -0.436899,0.788867 -0.148611,1.799226 0.640625,2.236328 0.790022,0.437538 1.798374,0.142888 2.234375,-0.648438 1.1621,-2.098893 1.765625,-4.461877 1.765625,-6.861328 0,-3.76879 -1.497529,-7.390107 -4.164062,-10.05664 C 31.390107,10.211077 27.768791,8.7115947 24,8.7115947 Z m 0,0.9999999 c 3.503592,0 6.87059,1.3940284 9.349609,3.8730474 2.47902,2.479019 3.871094,5.846017 3.871094,9.349609 0,2.23155 -0.561549,4.428013 -1.640625,6.376953 v 0.002 c -0.175746,0.318973 -0.560443,0.43007 -0.875,0.255859 -0.315342,-0.174646 -0.426804,-0.561241 -0.251953,-0.876953 h 0.002 c 0.973131,-1.761188 1.480469,-3.741545 1.480469,-5.757813 0,-3.162864 -1.260415,-6.199866 -3.498047,-8.4375 C 30.199866,12.259119 27.162864,10.998704 24,10.998705 c -3.162864,0 -6.199866,1.260414 -8.4375,3.498046 -2.237632,2.237634 -3.498047,5.274636 -3.498047,8.4375 0,2.016268 0.507338,3.996625 1.480469,5.757813 h 0.002 c 0.174851,0.315712 0.06339,0.702307 -0.251953,0.876953 -0.314559,0.174212 -0.699253,0.06312 -0.875,-0.255859 v -0.002 c -1.079076,-1.94894 -1.640625,-4.145403 -1.640625,-6.376953 0,-3.503592 1.392074,-6.87059 3.871094,-9.349609 C 17.12941,11.105623 20.496408,9.7115946 24,9.7115946 Z m -2.117188,4.1640634 v 0.509765 1.697266 h -0.197265 c -0.950401,0 -1.732422,0.782359 -1.732422,1.732422 v 3.296875 h 0.253906 c 0.04749,0.06231 0.04351,0.164607 0.0957,0.216797 l 0.16211,0.162109 -6.511719,11.271484 v 0.002 c -0.08218,0.146887 -0.140475,0.318674 -0.158203,0.494141 l -0.002,0.0078 -0.146485,1.964843 c -0.04341,0.299247 0.145989,0.55422 0.316407,0.667969 0.244344,0.16222 0.574099,0.112817 0.755859,-0.0078 l 0.002,-0.002 1.662109,-1.123046 0.0078,-0.0059 c 0.123696,-0.09236 0.244658,-0.209428 0.339844,-0.361328 l 0.0039,-0.0078 3.099609,-5.365235 c 1.189456,0.583898 2.507607,0.957031 3.919922,0.957031 1.410683,0 2.727663,-0.374135 3.916016,-0.957031 l 3.083984,5.330078 c 0.09559,0.171855 0.23226,0.307242 0.382813,0.402344 0.0011,7.16e-4 8.18e-4,0.0032 0.002,0.0039 l 1.636719,1.115235 0.0039,0.002 c 0.21296,0.141347 0.499582,0.142803 0.703125,0.04102 l 0.02734,-0.01367 0.02539,-0.01563 c 0.193991,-0.128764 0.320313,-0.3822 0.320313,-0.59961 v -0.01953 l -0.16211,-2.007813 -0.002,-0.0059 c -0.01773,-0.175467 -0.07407,-0.347254 -0.15625,-0.494141 l -0.002,-0.002 -3.275391,-5.679687 c 1.504955,-1.608258 2.494141,-3.73105 2.494141,-6.107422 v -0.498047 l -3.197266,-0.01563 v 0.503906 c 0,1.16684 -0.417861,2.207671 -1.017578,3.125 l -1.505859,-2.599609 0.162109,-0.162109 c 0.06132,-0.06132 0.05624,-0.149334 0.103516,-0.216797 h 0.246094 v -3.291016 c 0,-0.906593 -0.929507,-1.713213 -1.742188,-1.738275 h -0.185547 v -1.697266 -0.509765 h -1.871093 z m 1,1 h 0.861329 0.871093 v 2.207031 h 1.185547 c 0.414443,0 0.735469,0.32588 0.742188,0.75 -0.0023,0.917075 -0.0255,2.769577 -0.0098,2.779297 0,-0.01846 -0.01109,0.01121 -0.0098,0.002 l -0.0059,-0.01172 -0.01563,0.01563 c -0.0068,0.0114 0.0097,-0.02143 -0.01563,0.0039 -0.841018,0.847546 -2.633877,2.669286 -2.633877,2.669286 0,0 -1.945289,-1.771971 -2.842611,-2.669293 -0.01047,-0.01047 0.0011,0.01187 -0.0059,0.0039 l -0.02539,-0.02539 -0.01367,0.02344 c 0,0 -0.01538,-1.913328 -0.01172,-2.808593 0,-0.399216 0.332402,-0.732422 0.732422,-0.732422 h 1.197265 z m 0.861329,2.289062 c -1.173725,0 -2.140625,0.96907 -2.140625,2.150391 0,1.181322 0.9669,2.15039 2.140625,2.15039 h 0.01367 0.002 c 1.166728,-0.01334 2.133169,-0.969068 2.132812,-2.15039 -3.72e-4,-1.230947 -0.927542,-2.150391 -2.148482,-2.150391 z m 0,1 h 0.0039 c 0.633461,0.0076 1.144531,0.510187 1.144531,1.150391 0,0.640206 -0.51146,1.143151 -1.144531,1.15039 h -0.0039 c -0.626076,0 -1.140625,-0.510185 -1.140625,-1.15039 0,-0.640203 0.514549,-1.150391 1.140625,-1.150391 z m 6.71875,3.302734 1.185546,0.0059 c -0.133524,2.038482 -0.950651,3.899437 -2.324218,5.238281 l -0.277344,0.269531 0.193359,0.337891 3.423828,5.939453 c 0.0211,0.03878 0.02745,0.06301 0.03125,0.09766 l 0.109375,1.330078 -1.125,-0.767578 -0.0098,-0.0039 c -0.01962,-0.01229 -0.03179,-0.02483 -0.04297,-0.04492 l -0.0019,-0.004 -3.552734,-6.140625 -0.429688,0.242187 c -1.148841,0.644105 -2.478306,1.015625 -3.888672,1.015625 -1.412054,0 -2.740653,-0.372366 -3.890625,-1.017578 l -0.43164,-0.242187 -3.552735,6.15039 c -0.01292,0.0195 -0.04006,0.04875 -0.08398,0.08203 -10e-4,7.83e-4 -9.02e-4,0.0012 -0.002,0.002 l -1.105469,0.746094 0.101563,-1.34375 c 1.52e-4,-0.0015 0.0018,-0.0024 0.002,-0.0039 0.004,-0.03673 0.0089,-0.06003 0.0332,-0.103515 l 6.36914,-11.023438 0.886719,0.886719 -2.056641,3.570312 0.445313,0.246094 c 0.961466,0.532637 2.084563,0.84375 3.275391,0.84375 1.188246,0 2.312794,-0.300978 3.287109,-0.845703 l 0.441406,-0.246094 -2.054687,-3.568359 0.886718,-0.886719 2.144532,3.705078 0.458984,-0.537109 c 0.915883,-1.072939 1.440122,-2.449216 1.554688,-3.929688 z m -5.792969,2.351563 1.363281,2.369141 c -0.711737,0.315114 -1.455026,0.58789 -2.289062,0.58789 -0.829839,0 -1.572083,-0.275929 -2.279297,-0.58789 l 1.359375,-2.363282 c 0.165548,0.153631 0.37783,0.184928 0.582031,0.242188 l 0.140625,0.140625 h 0.197266 0.0098 0.490235 v -0.207031 c 0.145685,-0.0602 0.305836,-0.0669 0.425781,-0.181641 z m 3.011719,9.326172 c -1.25299,0.476028 -2.582364,0.722656 -3.921875,0.722656 -1.318391,0 -2.629369,-0.235536 -3.863282,-0.705078 h -0.002 -0.002 c -0.843647,-0.31555 -1.79742,0.117792 -2.115234,0.960937 -0.317938,0.843479 0.114288,1.799031 0.957031,2.119141 h 0.002 c 1.606252,0.604567 3.311167,0.91211 5.023438,0.912109 1.742105,0 3.471818,-0.319114 5.095703,-0.941406 0.842041,-0.323928 1.272482,-1.282883 0.949218,-2.125 -0.323073,-0.841632 -1.283282,-1.265205 -2.125,-0.941406 z m 0.355468,0.935547 h 0.002 c 0.338332,-0.130153 0.703442,0.0322 0.832032,0.367187 0.128404,0.3345 -0.03505,0.702008 -0.373047,0.832031 -1.509186,0.578338 -3.118624,0.875001 -4.738281,0.875 -1.591672,0 -3.177934,-0.286348 -4.669922,-0.847656 -0.337352,-0.128123 -0.503866,-0.495461 -0.377,-0.832031 0.126743,-0.336244 0.492268,-0.501396 0.828125,-0.376953 1.349767,0.51337 2.782054,0.769531 4.21875,0.769531 1.461959,0 2.91182,-0.268328 4.277343,-0.787109 z"
     id="path2891"
     sodipodi:nodetypes="ssscscssssscscssssssccsccsssssccsccssscccssccsccccccccccccccsccccccsccsccccccsccsccsccsccccccccccsccccccccccccsccsssccssscscsssccccccccccccccssccccccccccccsccccccscccscccccccccccscccsccscsccccscscscsc" />
</svg>
