<?xml version="1.0" encoding="UTF-8" standalone="no"?>
<!-- Generator: Gravit.io -->

<svg
   style="isolation:isolate"
   viewBox="0 0 48 48"
   width="48pt"
   height="48pt"
   version="1.1"
   id="svg16"
   sodipodi:docname="anjuta.svg"
   inkscape:version="1.1.2 (0a00cf5339, 2022-02-04)"
   xmlns:inkscape="http://www.inkscape.org/namespaces/inkscape"
   xmlns:sodipodi="http://sodipodi.sourceforge.net/DTD/sodipodi-0.dtd"
   xmlns:xlink="http://www.w3.org/1999/xlink"
   xmlns="http://www.w3.org/2000/svg"
   xmlns:svg="http://www.w3.org/2000/svg">
  <defs
     id="defs20">
    <linearGradient
       inkscape:collect="always"
       xlink:href="#_lgradient_5"
       id="linearGradient15"
       x1="-9.6850061"
       y1="45.161198"
       x2="11.98815"
       y2="21.735205"
       gradientUnits="userSpaceOnUse"
       gradientTransform="matrix(1.1147442,0,0,1.1150348,-0.01240999,-3.3277564)" />
    <linearGradient
       id="_lgradient_32"
       x1="0.51808703"
       y1="0.033331186"
       x2="0.50732738"
       y2="0.96818912"
       gradientTransform="matrix(-47,0,0,-44,47.5,46)"
       gradientUnits="userSpaceOnUse">
      <stop
         offset="0%"
         stop-opacity="1"
         style="stop-color:rgb(244,97,51)"
         id="stop4-3" />
      <stop
         offset="98.75%"
         stop-opacity="1"
         style="stop-color:rgb(240,80,129)"
         id="stop6" />
    </linearGradient>
    <linearGradient
       inkscape:collect="always"
       xlink:href="#_lgradient_5"
       id="linearGradient872"
       x1="-12.025727"
       y1="6.1170783"
       x2="-0.085100174"
       y2="6.1170783"
       gradientUnits="userSpaceOnUse"
       gradientTransform="matrix(3.8358211,0,0,3.8371386,-0.00549785,-0.0026806)" />
    <linearGradient
       inkscape:collect="always"
       xlink:href="#_lgradient_5"
       id="linearGradient1100"
       x1="12.565238"
       y1="23.432758"
       x2="38.018692"
       y2="23.432758"
       gradientUnits="userSpaceOnUse" />
  </defs>
  <sodipodi:namedview
     id="namedview18"
     pagecolor="#ffffff"
     bordercolor="#666666"
     borderopacity="1.0"
     inkscape:pageshadow="2"
     inkscape:pageopacity="0.0"
     inkscape:pagecheckerboard="0"
     inkscape:document-units="pt"
     showgrid="false"
     inkscape:zoom="7.2257474"
     inkscape:cx="32.038208"
     inkscape:cy="19.651946"
     inkscape:window-width="1600"
     inkscape:window-height="836"
     inkscape:window-x="0"
     inkscape:window-y="0"
     inkscape:window-maximized="1"
     inkscape:current-layer="svg16" />
  <linearGradient
     id="_lgradient_4"
     x1="0"
     y1="0.5"
     x2="0.9074880558539661"
     y2="0.9200778838291643"
     gradientTransform="matrix(47,0,0,46.826,0.5,0.674)"
     gradientUnits="userSpaceOnUse">
    <stop
       offset="0%"
       stop-opacity="1"
       style="stop-color:rgb(69,104,220)"
       id="stop2" />
    <stop
       offset="98.69565217391305%"
       stop-opacity="1"
       style="stop-color:rgb(176,106,179)"
       id="stop4" />
  </linearGradient>
  <linearGradient
     id="_lgradient_5"
     x1="0"
     y1="0.5"
     x2="0.9074880558539661"
     y2="0.9200778838291643"
     gradientTransform="matrix(25.453448,0,0,31.122208,12.565293,7.8719168)"
     gradientUnits="userSpaceOnUse">
    <stop
       offset="0%"
       stop-opacity="1"
       style="stop-color:rgb(69,104,220)"
       id="stop9" />
    <stop
       offset="98.69565217391305%"
       stop-opacity="1"
       style="stop-color:rgb(176,106,179)"
       id="stop11" />
  </linearGradient>
  <rect
     x="-46.783241"
     y="1.2253767"
     width="45.802109"
     height="45.80014"
     rx="6.1837621"
     shape-rendering="crispEdges"
     id="rect5-6-7-3"
     ry="6.8055277"
     transform="matrix(0.00524063,-0.99998627,0.99998801,0.00489691,0,0)"
     style="isolation:isolate;fill:#ea00ff;fill-opacity:0.13607298;stroke:url(#linearGradient872);stroke-width:2.0301;stroke-miterlimit:4;stroke-dasharray:none;stroke-opacity:1" />
  <rect
     x="-15.686841"
     y="17.260124"
     width="33.338203"
     height="33.345856"
     rx="6.7920032"
     shape-rendering="crispEdges"
     id="rect5-6-6-6-6"
     style="isolation:isolate;fill:#ea00ff;fill-opacity:0.13607298;stroke:url(#linearGradient15);stroke-width:1.67233;stroke-miterlimit:4;stroke-dasharray:none;stroke-opacity:1"
     ry="7.4743071"
     transform="matrix(0.72446484,-0.68931175,0.68622417,0.72739012,0,0)" />
  <path
     style="color:#000000;fill:url(#linearGradient1100);fill-rule:evenodd;-inkscape-stroke:none"
     d="m 24.164062,7.3769531 c -0.426874,-0.034612 -0.852863,0.1126287 -1.162109,0.4199219 -0.304822,0.2952542 -0.479122,0.7081583 -0.457031,1.1425781 1.16e-4,0.041755 -0.0022,0.1041318 0.01367,0.1835938 l 0.0078,0.039063 -0.0098,-0.097656 c 0,0.1339831 0.03506,0.2029114 0.04297,0.2265625 l -0.01563,-0.054687 c 0.04517,0.2129232 0.06523,0.4455844 0.05859,0.6777344 v 0.00391 0.00391 c -0.0074,0.6047222 -0.05185,1.2116852 -0.126953,1.8125002 v 0.002 c -0.05102,0.425166 -0.113649,0.839737 -0.175781,1.253906 -0.0812,-0.0031 -0.156367,-0.0098 -0.240235,-0.0098 h -0.0059 -0.0078 c -0.161397,0.0047 -0.330311,0.02478 -0.496093,0.03906 -0.119604,-0.18902 -0.242395,-0.376478 -0.341797,-0.570312 l -0.002,-0.0059 -0.0039,-0.0059 C 20.970754,11.940037 20.720965,11.431663 20.476438,10.912047 20.292277,10.520702 20.09679,10.123037 19.876829,9.7284534 l -0.0039,-0.00586 C 19.779639,9.5372664 19.666983,9.3749435 19.552734,9.2265625 19.289591,8.8450513 18.880668,8.5927419 18.429687,8.5175781 l -0.002,-0.00195 h -0.0039 c -0.153682,-0.023644 -0.307255,-0.023644 -0.460937,0 l 0.07617,-0.00586 h -0.05078 l -0.02734,0.00391 C 17.821192,8.5291589 17.720687,8.5659366 17.646484,8.59375 17.336579,8.7044312 17.069959,8.9060713 16.875,9.1660156 l -0.002,0.00195 -0.002,0.00195 c -0.09924,0.1353335 -0.195704,0.2900898 -0.275391,0.46875 -3.92e-4,8.788e-4 -0.0016,0.00107 -0.002,0.00195 -0.131889,0.283583 -0.224556,0.5846254 -0.285156,0.8847664 -1.38e-4,6.34e-4 1.37e-4,0.0013 0,0.002 -0.145765,0.672788 -0.220581,1.356133 -0.212891,2.048828 -0.0078,0.591004 0.05019,1.188638 0.173828,1.765625 l 0.002,0.0098 0.002,0.01172 c 0.09482,0.362043 0.23205,0.711793 0.404297,1.039063 0.123063,0.279485 0.254656,0.546936 0.384766,0.814453 -0.04341,0.03591 -0.09073,0.08172 -0.132813,0.113281 h -0.002 c -0.338256,0.255754 -0.652134,0.537949 -0.941406,0.84375 h -0.002 v 0.002 c -0.375474,0.40167 -0.66924,0.867794 -0.882812,1.363281 l -0.002,0.0078 -0.0039,0.0078 c -0.146725,0.374964 -0.270175,0.760448 -0.361328,1.158204 -0.09569,0.414666 -0.174687,0.836495 -0.238281,1.257812 l -0.002,0.0039 v 0.0039 c -0.124242,0.931804 -0.232428,1.867254 -0.310547,2.8125 -0.06911,0.759983 -0.146644,1.525243 -0.238281,2.28125 v 0.002 0.002 c -0.08342,0.743202 -0.197614,1.486787 -0.341797,2.230469 -0.134448,0.671799 -0.312801,1.328017 -0.53711,1.978515 -0.187671,0.541359 -0.439442,1.057603 -0.753906,1.529297 l -0.002,0.0039 -0.0039,0.0039 c -0.203706,0.316876 -0.285856,0.706117 -0.216797,1.085937 l 0.002,0.0078 0.002,0.0098 c 0.08093,0.369946 0.299668,0.706455 0.634766,0.921875 0.316877,0.203707 0.704167,0.287807 1.083984,0.21875 l 0.0098,-0.002 0.0078,-0.002 c 0.369946,-0.08093 0.708408,-0.299667 0.923828,-0.634766 0.454366,-0.682945 0.81124,-1.413333 1.078125,-2.18164 l 0.002,-0.002 c 0.270135,-0.778623 0.483704,-1.572551 0.642578,-2.382813 0.156893,-0.807995 0.283206,-1.623072 0.384766,-2.443359 v -0.0039 -0.0039 c 0.08488,-0.787088 0.17016,-1.569101 0.240234,-2.363281 v -0.002 c 0.07646,-0.894538 0.17654,-1.781203 0.298829,-2.660156 l -0.002,0.0039 c 0.05271,-0.35393 0.112842,-0.684771 0.19336,-1.021485 l 0.002,-0.0078 0.002,-0.0078 c 0.04567,-0.22182 0.12007,-0.447334 0.212891,-0.683593 0.07766,-0.176208 0.185411,-0.344358 0.318359,-0.496094 9.8e-4,-0.0011 9.71e-4,-0.0028 0.002,-0.0039 0.173237,-0.178025 0.371913,-0.349367 0.576172,-0.511719 l 0.0078,-0.0059 c 0.615236,-0.470493 1.172772,-1.011673 1.664062,-1.59961 l 0.201172,-0.242187 -0.130859,-0.28711 c -0.07307,-0.160196 -0.153302,-0.318437 -0.228516,-0.478515 l 0.201172,0.220703 0.30664,-0.101563 c 0.443802,-0.145622 0.912246,-0.225521 1.386719,-0.248046 0.396169,0.01323 0.784149,0.09265 1.173828,0.156249 -0.08765,0.315499 -0.119538,0.652955 0.01367,0.962891 0.153123,0.363095 0.446478,0.646114 0.808594,0.787109 0.586603,0.231337 1.197876,0.388233 1.816406,0.470704 h 0.002 0.0039 c 0.47695,0.05659 0.945543,0.08203 1.417968,0.08203 0.251151,0 0.493509,0.0141 0.746094,0.04297 h 0.01172 l 0.0098,0.002 c 0.01713,0.0012 0.04259,0.01173 0.06641,0.01758 0.199207,0.204718 0.380698,0.426167 0.519531,0.679687 l 0.002,0.0059 0.002,0.0039 c 0.262886,0.458173 0.501838,0.921688 0.71875,1.400391 0.222503,0.492683 0.467782,0.974772 0.726563,1.453125 0.279473,0.525384 0.616413,1.019702 1.011718,1.472656 l 0.0039,0.0039 0.0039,0.0039 c 0.427206,0.469088 0.920353,0.869791 1.462891,1.195313 0.470975,0.290327 0.951,0.56427 1.447265,0.824219 v 0.002 c 0.363188,0.18916 0.712487,0.382031 1.041016,0.59375 0.0636,0.04088 0.119928,0.08784 0.175781,0.134765 0.178227,0.368812 0.282174,0.781359 0.289063,1.201172 -5e-4,0.336037 -0.06405,0.670905 -0.191407,0.976563 l -0.0039,0.0078 -0.002,0.0078 c -0.100022,0.262557 -0.247881,0.493976 -0.443359,0.689453 l -0.0039,0.0039 -0.0039,0.0039 c -0.101023,0.105835 -0.235735,0.191701 -0.40625,0.263672 -0.167339,0.06002 -0.353418,0.08984 -0.544922,0.08984 -0.269775,-0.0077 -0.523488,-0.0418 -0.763672,-0.111328 h -0.0059 l -0.0039,-0.002 c -0.310423,-0.08278 -0.609521,-0.200268 -0.908203,-0.34961 l -0.0039,-0.002 -0.002,-0.002 c -0.498508,-0.241923 -0.978237,-0.521184 -1.445312,-0.832031 -0.329117,-0.23957 -0.646254,-0.483424 -0.94336,-0.744141 -6.78e-4,-5.95e-4 -0.0013,-0.0014 -0.002,-0.002 l -0.002,-0.002 -0.138672,-0.121094 h -0.0059 l -0.154297,-0.130859 h -0.08008 c -0.480178,-0.3594 -1.004473,-0.669572 -1.585938,-0.837891 -0.644685,-0.189729 -1.307233,-0.288611 -1.976562,-0.296875 h -0.0039 -0.15625 -0.03711 -0.0039 c -0.436743,0.0079 -0.875916,0.03181 -1.318359,0.08008 h -0.0059 -0.0059 c -0.333922,0.04356 -0.666622,0.06641 -1,0.06641 h -0.0078 -0.0078 c -0.184757,0.0059 -0.364683,-0.01803 -0.554688,-0.06836 -0.07766,-0.02118 -0.164357,-0.07068 -0.246093,-0.140625 -0.157241,-0.154961 -0.269343,-0.350678 -0.324219,-0.572265 -0.07569,-0.399401 -0.109534,-0.802048 -0.0957,-1.203125 v -0.0098 -0.03906 -0.222656 l 0.0078,-0.208984 v -0.0039 c 0.0163,-0.660256 -0.04177,-1.31246 -0.171875,-1.957032 -0.07075,-0.377337 -0.293552,-0.711974 -0.623047,-0.927734 -0.327502,-0.225955 -0.723765,-0.295431 -1.091797,-0.228516 l -0.0098,0.002 -0.0078,0.002 c -0.368502,0.08061 -0.699561,0.294718 -0.916015,0.617187 -0.224814,0.331306 -0.293879,0.728222 -0.22461,1.097656 v 0.002 0.002 c 0.08635,0.438928 0.129289,0.880713 0.115235,1.316406 v 0.0078 0.02344 l -0.0078,0.240234 v 0.222656 c -0.01545,0.62543 0.03234,1.261034 0.164063,1.886719 v 0.0039 l 0.002,0.002 c 0.175496,0.789734 0.579574,1.521124 1.179687,2.085937 0.415427,0.388333 0.916699,0.664463 1.449219,0.824219 l 0.0039,0.002 h 0.0039 c 0.371071,0.10502 0.751058,0.125992 1.130859,0.138672 0.04116,0.825772 0.113811,1.655595 0.310547,2.46289 0.237467,1.027501 0.56188,2.039328 0.964844,3.011719 0.391983,0.967961 0.886974,1.88823 1.488281,2.746094 0.276418,0.398217 0.594366,0.780914 0.947265,1.126953 l 0.0039,0.0039 c 0.341083,0.348839 0.732778,0.645084 1.15625,0.882813 0.340671,0.198399 0.738853,0.245463 1.103515,0.154297 l 0.0059,-0.002 0.0078,-0.002 c 0.371616,-0.104517 0.688023,-0.353259 0.882813,-0.685546 l 0.002,-0.002 v -0.002 c 0.190306,-0.333036 0.248898,-0.732213 0.140625,-1.117187 -0.104518,-0.371617 -0.35251,-0.691727 -0.695313,-0.88086 l 0.01563,0.0078 C 29.34194,36.648523 29.156903,36.504558 28.992187,36.339844 l -0.002,-0.002 -0.0039,-0.0039 C 28.757635,36.11222 28.554352,35.868899 28.369141,35.605469 v -0.002 C 27.896228,34.923484 27.497057,34.192302 27.1875,33.425781 v -0.002 l -0.002,-0.002 c -0.34466,-0.83168 -0.620476,-1.691551 -0.814453,-2.564453 l -0.002,-0.0059 v -0.0059 C 26.22251,30.253292 26.170979,29.637499 26.132812,29.021484 l 0.150391,-0.01758 c 0.281165,0.0276 0.5642,0.04784 0.835938,0.125 7.14e-4,2.03e-4 0.0012,0.0017 0.002,0.002 0.272499,0.08273 0.531015,0.214036 0.74414,0.390625 L 28.002,29.634811 c 0.377961,0.322677 0.765887,0.631964 1.173828,0.919921 l 0.0039,0.002 0.002,0.002 c 0.582815,0.399188 1.196401,0.750151 1.824218,1.052734 0.456341,0.232319 0.933702,0.413757 1.423828,0.552734 0.50348,0.145071 1.018814,0.212375 1.535157,0.220704 h 0.0039 0.0039 c 0.543912,0 1.082496,-0.09672 1.59375,-0.28711 h 0.002 c 0.557248,-0.204171 1.051482,-0.53195 1.460938,-0.941406 l 0.002,-0.002 c 0.473009,-0.48161 0.842111,-1.056082 1.089844,-1.679688 0.262473,-0.660415 0.398437,-1.364204 0.398437,-2.076172 v -0.002 -0.002 c -0.0084,-0.893821 -0.219084,-1.78061 -0.625,-2.583984 l -0.0039,-0.0039 -0.002,-0.0059 c -0.152525,-0.286057 -0.354426,-0.535018 -0.589844,-0.742187 l -0.002,-0.002 h -0.002 C 37.113541,23.89988 36.917419,23.745219 36.699253,23.605385 l -0.002,-0.002 c -0.411387,-0.266047 -0.839692,-0.502759 -1.263672,-0.722657 l -0.002,-0.002 C 35.002653,22.653053 34.580091,22.412224 34.166016,22.15625 33.860832,21.968979 33.583595,21.750623 33.351562,21.5 c -0.236003,-0.279007 -0.44523,-0.58711 -0.61914,-0.914063 l -0.002,-0.002 -0.002,-0.002 C 32.5015,20.165914 32.284442,19.735324 32.08975,19.3085 c -0.2527,-0.552781 -0.530996,-1.098133 -0.832032,-1.628907 -0.3453,-0.621853 -0.797717,-1.175054 -1.332031,-1.642578 l -0.03516,-0.03125 -0.03906,-0.02344 C 29.412763,15.722724 28.926918,15.562022 28.421875,15.5 l -0.04883,-0.0059 -0.04883,0.0039 c -0.149222,0.01088 -0.157485,-0.0147 -0.15625,-0.01367 0.0012,10e-4 -0.02438,-0.02219 -0.04687,-0.126953 -0.04499,-0.209537 -0.01917,-0.640807 -0.0332,-1.076172 l 0.002,0.01758 c 0,-0.276012 0.006,-0.556887 0.01367,-0.841797 v -0.002 c 0.0077,-0.24674 0.01563,-0.506847 0.01563,-0.763672 0,-0.265342 -0.0065,-0.546533 -0.03906,-0.826172 -1.16e-4,-0.0014 -0.0018,-0.0025 -0.002,-0.0039 -0.02791,-0.338351 -0.108403,-0.666515 -0.232422,-0.976562 l -0.0078,-0.01367 -0.0059,-0.01563 C 27.644875,10.46414 27.406355,10.088974 27.115234,9.7460938 26.85186,9.4119428 26.574547,9.104162 26.285156,8.8066406 l -0.0039,-0.00391 C 26.014487,8.5201161 25.732327,8.252316 25.433594,8.0019531 h -0.002 C 25.313808,7.9023485 25.192315,7.8141943 25.078125,7.7304687 24.818179,7.5355098 24.507649,7.4094475 24.171875,7.3769531 h -0.0039 z M 24.078125,8.375 c 0.141583,0.014607 0.290888,0.07217 0.400391,0.1542969 l 0.002,0.00195 0.002,0.00195 c 0.115799,0.084919 0.22363,0.1638353 0.304687,0.2324219 l 0.002,0.00195 c 0.270725,0.2268239 0.528214,0.4686653 0.769532,0.7246094 l 0.002,0.00195 0.002,0.00391 c 0.276297,0.2837635 0.535796,0.5714808 0.777344,0.8789058 l 0.0059,0.0078 0.0059,0.0059 c 0.229002,0.269412 0.417457,0.568756 0.56836,0.880859 0.08796,0.223791 0.143774,0.447695 0.162109,0.673829 l 0.002,0.0098 0.002,0.0098 c 0.02701,0.222662 0.0332,0.473862 0.0332,0.726562 0,0.236594 -0.006,0.487608 -0.01367,0.734375 v 0.002 c -0.0077,0.285685 -0.01563,0.576471 -0.01563,0.871094 v 0.0078 0.0078 c 0.0109,0.33812 -0.04678,0.790468 0.05273,1.253906 0.04976,0.23172 0.154454,0.491405 0.384766,0.683594 0.230311,0.192189 0.547838,0.265613 0.86914,0.242188 l -0.0957,-0.002 c 0.360274,0.04424 0.692415,0.162619 1,0.337891 0.434785,0.388076 0.807078,0.834582 1.085938,1.337891 v 0.002 l 0.002,0.0039 c 0.28568,0.5037 0.549638,1.022769 0.791015,1.550781 0.206746,0.453249 0.4356,0.902766 0.671875,1.335938 0.209707,0.393574 0.459408,0.760723 0.744141,1.095703 l 0.0078,0.0078 0.0059,0.0078 c 0.307257,0.333593 0.661436,0.607808 1.033203,0.835937 0.433634,0.267994 0.876683,0.521239 1.326172,0.757813 h 0.002 c 0.408239,0.211679 0.810943,0.437296 1.185547,0.679687 h 0.002 c 0.165689,0.106041 0.323969,0.230265 0.480469,0.365235 0.149876,0.131891 0.270996,0.282963 0.365234,0.458984 0.332524,0.660942 0.508379,1.393374 0.515625,2.132813 7e-6,6.4e-4 -6e-6,0.0013 0,0.002 -7.34e-4,0.583 -0.112676,1.159077 -0.328125,1.701172 -0.199686,0.50266 -0.495809,0.963061 -0.871094,1.345703 -0.314772,0.31425 -0.684759,0.558244 -1.097656,0.708984 h -0.002 -0.002 c -0.397944,0.148386 -0.815391,0.224159 -1.242188,0.22461 -0.438812,-0.0075 -0.863891,-0.06476 -1.269531,-0.181641 h -0.002 c -0.435653,-0.123435 -0.853783,-0.2827 -1.246094,-0.482422 l -0.0039,-0.002 -0.0059,-0.0039 c -0.586668,-0.28209 -1.156277,-0.607638 -1.695709,-0.976649 l -0.002,-0.002 c -0.0012,-8.22e-4 -0.0027,-0.0011 -0.0039,-0.002 -0.375991,-0.26573 -0.741524,-0.555749 -1.101563,-0.863281 l -0.002,-0.002 -0.140625,-0.117188 -0.002,-0.002 C 28.175217,28.4792 27.80048,28.28778 27.410021,28.169734 h -0.0039 l -0.0039,-0.002 C 26.929978,28.033008 26.43828,27.957685 25.9375,27.949219 h -0.0039 -0.142578 c -0.07284,0 -0.151369,-8.11e-4 -0.236329,0.0039 l -0.267578,0.01563 -0.08984,0.152344 -0.132813,0.01563 0.0098,0.429687 v 0.02539 c 8e-5,0.004 0.0019,0.0077 0.002,0.01172 l 0.002,0.0625 0.0078,0.01953 c 0.02264,0.809558 0.118367,1.616061 0.3125,2.40039 0.207042,0.92817 0.499943,1.837563 0.863282,2.714844 0.338704,0.838697 0.772301,1.634962 1.287109,2.375 l 0.002,0.002 c 0.214439,0.305162 0.456453,0.598804 0.734375,0.869141 l 0.002,0.002 0.0039,0.0039 c 0.2198,0.218881 0.466745,0.412859 0.732421,0.572266 l 0.0078,0.0039 0.0078,0.0039 c 0.104954,0.05791 0.180402,0.154883 0.214844,0.277344 0.03035,0.107902 0.01037,0.246603 -0.04492,0.345703 -0.06616,0.111495 -0.16532,0.185443 -0.283203,0.220703 -0.124444,0.02858 -0.246215,0.01569 -0.349609,-0.04492 l -0.0059,-0.002 -0.0039,-0.0039 c -0.345082,-0.193246 -0.661229,-0.433668 -0.935547,-0.714844 l -0.0039,-0.0039 -0.0059,-0.0039 c -0.30668,-0.299547 -0.588228,-0.639963 -0.833985,-0.994141 v -0.002 c -0.556686,-0.794204 -1.018242,-1.648563 -1.382812,-2.548828 v -0.002 l -0.002,-0.002 C 25.01932,33.230534 24.711652,32.269373 24.486328,31.292969 v -0.0039 l -0.002,-0.002 C 24.270435,30.409373 24.15985,29.499493 24.144484,28.595663 v -0.0078 -0.550782 l -0.478515,0.05273 -0.0059,-0.002 -0.08594,0.0039 c -0.0294,0.0017 -0.06657,0.0031 -0.109375,0.0039 -0.390105,0.007 -0.764124,-0.03646 -1.119141,-0.136719 h -0.002 c -0.389743,-0.118258 -0.75063,-0.319123 -1.042969,-0.591797 l -0.002,-0.002 c -0.448529,-0.422952 -0.75343,-0.973153 -0.886535,-1.572126 -0.113612,-0.542129 -0.157065,-1.104335 -0.142578,-1.66211 V 24.125 23.910156 l 0.0078,-0.240234 v -0.03125 l -0.002,0.01758 c 0.01678,-0.520267 -0.03242,-1.035403 -0.13086,-1.537109 v -0.002 c -1.24e-4,-6.32e-4 1.25e-4,-0.0013 0,-0.002 -0.02213,-0.123364 5.46e-4,-0.249673 0.06836,-0.349609 l 0.002,-0.002 v -0.002 c 0.05985,-0.08978 0.172712,-0.162302 0.292968,-0.191407 0.132929,-0.02148 0.254902,7.73e-4 0.339844,0.06055 l 0.0078,0.0078 0.0098,0.0039 c 0.09722,0.0625 0.166332,0.170305 0.1875,0.283203 v 0.002 l 0.002,0.0039 c 0.116115,0.573318 0.166873,1.153774 0.152344,1.742187 l -0.0078,0.21875 v 0.240234 0.01367 c -0.01683,0.487915 0.02565,0.972944 0.117187,1.447266 l 0.002,0.01172 0.002,0.01367 c 0.09897,0.405797 0.308809,0.77586 0.609375,1.066406 l 0.0078,0.0078 0.0098,0.0078 c 0.177922,0.156991 0.395404,0.290721 0.654296,0.361328 h 0.002 v 0.002 c 0.269865,0.07196 0.551322,0.110265 0.841796,0.101563 0.002,-6e-5 0.0039,6.4e-5 0.0059,0 0.371672,-6.68e-4 0.744098,-0.02581 1.115234,-0.07422 l -0.01172,0.002 c 0.404173,-0.04409 0.810905,-0.0666 1.220704,-0.07422 h 0.03125 0.146484 c 0.580008,0.0072 1.152489,0.09119 1.710937,0.25586 v 0.002 h 0.002 c 0.518894,0.150206 1.007871,0.411709 1.427734,0.755859 l 0.138672,0.113281 h 0.0039 l 0.01367,0.01367 c 3.91e-4,3.44e-4 0.0016,-3.43e-4 0.002,0 l -0.0059,-0.01367 h 0.01172 c 0.01652,0.01458 0.01881,0.01662 0.0332,0.0293 l -0.03906,-0.01563 c 0.332561,0.291914 0.677246,0.556818 1.023438,0.808594 l 0.0078,0.0059 0.0078,0.0059 c 0.501403,0.334269 1.021802,0.638807 1.568359,0.904297 5.42e-4,2.71e-4 0.0014,-2.71e-4 0.002,0 8.06e-4,3.91e-4 0.0011,0.0016 0.002,0.002 0.345477,0.172463 0.704829,0.31407 1.083985,0.416015 0.342235,0.09907 0.686946,0.141854 1.029296,0.150391 h 0.0059 0.0059 c 0.29912,0 0.604921,-0.04472 0.898438,-0.152344 l 0.0098,-0.0039 0.0098,-0.0039 c 0.270599,-0.111973 0.533463,-0.271716 0.753906,-0.501953 0.292998,-0.295038 0.514264,-0.645635 0.660156,-1.025391 0.179347,-0.432644 0.267579,-0.895884 0.267579,-1.359375 v -0.0039 -0.0039 c -0.0088,-0.57878 -0.138221,-1.160742 -0.40625,-1.689453 l -0.002,-0.002 C 36.113606,25.576622 36.064078,25.5465 36.048828,25.53125 l -0.0078,-0.0078 -0.0078,-0.0059 c -0.113965,-0.104467 -0.237782,-0.198757 -0.369141,-0.283203 -0.366266,-0.236038 -0.741215,-0.443789 -1.11914,-0.640625 -0.475148,-0.248888 -0.936393,-0.512859 -1.390625,-0.792969 l -0.002,-0.002 -0.002,-0.002 c -0.46062,-0.276372 -0.876332,-0.616653 -1.236329,-1.011719 -2.43e-4,-2.8e-4 -0.0017,2.8e-4 -0.002,0 -0.342074,-0.393121 -0.635347,-0.820835 -0.878906,-1.279297 v -0.002 l -0.002,-0.002 C 30.780352,21.038257 30.547543,20.577655 30.337728,20.113065 30.108452,19.607079 29.855227,19.117 29.579915,18.636503 l -0.002,-0.0039 c -0.201247,-0.366595 -0.456762,-0.699876 -0.753906,-0.988281 l -0.06055,-0.05859 -0.07813,-0.03711 c -0.155263,-0.07166 -0.318228,-0.11589 -0.494141,-0.128906 h -0.0039 c -0.280354,-0.03128 -0.555889,-0.04687 -0.837891,-0.04687 -0.436555,0 -0.860977,-0.02322 -1.292968,-0.07422 C 25.51718,17.2269 24.98619,17.091604 24.476562,16.890625 l -0.002,-0.002 h -0.002 C 24.358241,16.844382 24.268245,16.7579 24.220703,16.644531 v -0.002 l -0.002,-0.0039 c -0.04556,-0.105149 -0.04821,-0.228977 0,-0.353516 0.127948,-0.243419 0.381668,-0.237264 0.597656,-0.2578 0.282109,-0.02682 0.567002,0.136467 0.830088,0.183575 0.137266,-0.0045 0.346074,-0.0584 0.484375,-0.220703 0.138302,-0.162302 0.152239,-0.334974 0.152344,-0.447265 2.1e-4,-0.224583 -0.0465,-0.367213 -0.07813,-0.5625 -0.03162,-0.195287 -0.05794,-0.42206 -0.04687,-0.69336 v -0.0039 -0.002 c 0.008,-0.301474 0.0082,-0.594881 0.01563,-0.878906 v -0.002 c 0.0077,-0.238756 0.01563,-0.48063 0.01563,-0.722657 0,-0.195232 -0.01017,-0.397934 -0.03125,-0.603515 0,-0.143867 -0.03408,-0.288316 -0.08203,-0.408203 l -0.0078,-0.01953 -0.0078,-0.01953 c -0.118299,-0.236599 -0.264696,-0.453875 -0.431641,-0.65625 l -0.002,-0.002 c -0.06894,-0.08426 -0.138478,-0.16969 -0.216797,-0.263672 L 24.61128,9.7459148 24.5273,10.990055 c -0.02265,0.332154 -0.05358,0.660718 -0.09766,0.976563 v 0.0059 0.0039 c -0.125846,1.067261 -0.304653,2.121123 -0.511718,3.175781 C 23.325355,15.026586 22.727623,14.928794 22.123,14.910011 h -0.01758 -0.01953 c -0.439393,0.01938 -0.865564,0.124732 -1.289062,0.234375 -0.477891,-0.552082 -0.914843,-1.143915 -1.257813,-1.796875 v -0.0039 l -0.002,-0.002 c -0.195509,-0.360931 -0.37908,-0.726913 -0.564359,-1.09747 l -0.947265,0.224609 v 0.09766 0.0098 c -0.0076,0.443328 0.03476,0.878028 0.117187,1.306641 l 0.0039,0.02344 0.0078,0.02148 c 0.06419,0.220065 0.151629,0.419229 0.242187,0.601563 0.170935,0.372949 0.341411,0.739445 0.521485,1.107422 l 0.002,0.002 v 0.002 c 0.161279,0.32256 0.313662,0.653199 0.466797,0.982422 -0.396864,0.445956 -0.813655,0.876961 -1.28711,1.238281 l -0.0039,0.002 -0.0039,0.0039 c -0.234936,0.186329 -0.474661,0.391882 -0.697266,0.623047 l -0.0078,0.0078 -0.0078,0.0098 c -0.202801,0.230456 -0.370008,0.489532 -0.492187,0.771485 l -0.0039,0.0078 -0.0039,0.0078 c -0.105071,0.266717 -0.197706,0.54401 -0.259765,0.839844 -1.52e-4,6.36e-4 1.52e-4,0.0013 0,0.002 -0.08908,0.372849 -0.153713,0.734358 -0.208985,1.105468 v 0.002 0.002 c -0.124749,0.896635 -0.226744,1.800963 -0.304687,2.71289 -0.06866,0.778114 -0.153608,1.550831 -0.238281,2.335938 -0.09916,0.800901 -0.219189,1.592686 -0.371094,2.375 -0.149923,0.764606 -0.3526,1.513561 -0.607422,2.248047 -0.241672,0.695723 -0.562769,1.35099 -0.970703,1.96289 l -0.002,0.0039 -0.002,0.002 c -0.06079,0.09457 -0.169119,0.164455 -0.289063,0.193359 -0.12577,0.02044 -0.243113,-3.7e-5 -0.355469,-0.07227 -0.09457,-0.06079 -0.164455,-0.169118 -0.193359,-0.289062 -0.02044,-0.125768 3.7e-5,-0.243112 0.07227,-0.355469 0.363048,-0.545717 0.650276,-1.137517 0.863281,-1.751953 0.23868,-0.692174 0.428837,-1.394184 0.572265,-2.111328 l 0.002,-0.002 c 0.148786,-0.767423 0.265205,-1.536787 0.351562,-2.304688 0.09349,-0.771263 0.172433,-1.549109 0.242188,-2.316406 v -0.002 -0.002 c 0.07606,-0.92033 0.182332,-1.835586 0.304687,-2.753906 l 0.002,-0.0078 c 0.05972,-0.394339 0.133668,-0.788216 0.222656,-1.173828 0.07746,-0.337994 0.184071,-0.671795 0.3125,-1.001953 l 0.002,-0.002 c 0.171951,-0.398203 0.402463,-0.764754 0.689454,-1.072266 l 0.002,-0.002 c 0.250267,-0.264347 0.520863,-0.508387 0.814453,-0.730469 0.177867,-0.1334 0.333791,-0.273059 0.480469,-0.404297 L 18.23455,16.52356 18.16228,16.230592 c -0.02674,-0.10697 -0.06354,-0.176359 -0.107422,-0.242188 l 0.0332,0.05859 c -0.177559,-0.362838 -0.353342,-0.718631 -0.509766,-1.076172 l -0.0059,-0.01758 -0.0098,-0.01563 C 17.426899,14.679857 17.319121,14.399616 17.244141,14.115234 17.138818,13.6179 17.088589,13.097499 17.095703,12.583984 v -0.0078 -0.0059 c -0.0073,-0.617034 0.05799,-1.227779 0.189453,-1.833985 v -0.0039 l 0.002,-0.0039 c 0.04686,-0.234281 0.120595,-0.466644 0.216797,-0.671875 l 0.002,-0.0059 0.002,-0.0039 c 0.04304,-0.09685 0.09914,-0.1869973 0.167969,-0.28125 0.08296,-0.1106113 0.186182,-0.1867501 0.308594,-0.2304687 l 0.0039,-0.00195 0.002,-0.00195 c 0.04197,-0.015739 0.0643,-0.019871 0.07031,-0.021484 h 0.01758 l 0.03711,-0.00586 c 0.04527,-0.00697 0.104033,-0.00644 0.150391,0 0.19602,0.03267 0.357334,0.1342308 0.464844,0.2910156 l 0.0098,0.011719 0.0078,0.011719 c 0.09549,0.1227669 0.178044,0.2447611 0.234375,0.3574211 l 0.0039,0.0098 0.0059,0.0098 c 0.207332,0.370233 0.395127,0.753703 0.578125,1.142578 0.249552,0.530294 0.510396,1.056493 0.794922,1.578125 0.165178,0.320408 0.350383,0.619324 0.539063,0.902343 l 0.175781,0.263672 0.3125,-0.04687 c 0.230307,-0.03387 0.460934,-0.04713 0.707031,-0.05469 0.200891,0 0.414793,0.01386 0.638672,0.0293 l 0.453125,0.03125 0.07422,-0.449219 c 0.09399,-0.571787 0.172242,-1.149867 0.242187,-1.732422 v -0.0039 c 0.07869,-0.63057 0.126541,-1.270134 0.134766,-1.9121091 v -0.00391 c 0.0085,-0.3069408 -0.01743,-0.6148218 -0.08008,-0.9101562 l -0.0059,-0.027344 -0.0039,-0.011719 -0.01172,-0.0625 c 0.0023,0.011574 0.002,0.028834 0.002,-0.00977 v -0.013672 l -0.002,-0.013672 c -0.0072,-0.1336385 0.04727,-0.2720108 0.15625,-0.3769531 l 0.0039,-0.00391 0.0039,-0.00391 C 23.796015,8.4149226 23.936771,8.3649161 24.078125,8.375 Z m 1.091797,5.289063 c -0.0029,0.19579 -0.0049,0.393892 -0.0098,0.582031 -3.2e-5,7.82e-4 3.2e-5,0.0012 0,0.002 -4.9e-5,0.0019 5e-5,0.004 0,0.0059 -0.01311,0.3409 0.0214,0.625287 0.05664,0.84961 -0.03502,-0.01026 -0.01979,-0.003 -0.05859,-0.01563 l 0.03125,0.01172 c -0.08017,-0.03207 -0.168267,0.02146 -0.251953,0.0039 0.09103,-0.477723 0.157636,-0.959853 0.232422,-1.439453 z m 4.236328,14.482421 c 0.0016,1.4e-4 0.0023,-1.17e-4 0.0039,0 0.0077,5.67e-4 0.008,0.0078 0.01563,0.0078 z"
     id="path14"
     sodipodi:nodetypes="cccsccccccccccsccccccsccccccccccccccscccccccccccccccccccccccccccccccccscccccccccccccccccccccccccccccccccccscccccccccccccccccccccscccccccccccscccccccccccccccscccccccccccccccccccccccccccccccccccccccccccccsccsccccccccccccscsccccccccsccsccscccccccccccccccccccccccccscccccsccccccccccccccccccccccccccccccsccsccssccccccccccccccccccsccccccccccccccccccccccccscccccccccccccccccccsccccccccccccccccccccccccccccccccccccccccccccccccccccccccccccscccccccccccccccccccccscccccscccccsccccsccccccccccccccccccccsccccccccacssccccccsccccccccccccccccccccccccccccccccccccccccccccccccccccccccccccccccccccccccccccccccccccccccccccccccccccccccscscccsccccccccccsccccsccccccccccccscc" />
</svg>
