<?xml version="1.0" encoding="UTF-8" standalone="no"?>
<!-- Generator: Gravit.io -->

<svg
   style="isolation:isolate"
   viewBox="0 0 48 48"
   width="48pt"
   height="48pt"
   version="1.1"
   id="svg9"
   sodipodi:docname="apachedirectorystudio.svg"
   inkscape:version="1.1.2 (0a00cf5339, 2022-02-04)"
   xmlns:inkscape="http://www.inkscape.org/namespaces/inkscape"
   xmlns:sodipodi="http://sodipodi.sourceforge.net/DTD/sodipodi-0.dtd"
   xmlns:xlink="http://www.w3.org/1999/xlink"
   xmlns="http://www.w3.org/2000/svg"
   xmlns:svg="http://www.w3.org/2000/svg">
  <defs
     id="defs13">
    <linearGradient
       inkscape:collect="always"
       xlink:href="#_lgradient_0"
       id="linearGradient15"
       x1="-9.6850061"
       y1="45.161198"
       x2="11.98815"
       y2="21.735205"
       gradientUnits="userSpaceOnUse"
       gradientTransform="matrix(1.1147442,0,0,1.1150348,-0.01240999,-3.3277564)" />
    <linearGradient
       id="_lgradient_32"
       x1="0.51808703"
       y1="0.033331186"
       x2="0.50732738"
       y2="0.96818912"
       gradientTransform="matrix(-47,0,0,-44,47.5,46)"
       gradientUnits="userSpaceOnUse">
      <stop
         offset="0%"
         stop-opacity="1"
         style="stop-color:rgb(244,97,51)"
         id="stop4-3" />
      <stop
         offset="98.75%"
         stop-opacity="1"
         style="stop-color:rgb(240,80,129)"
         id="stop6" />
    </linearGradient>
    <linearGradient
       inkscape:collect="always"
       xlink:href="#_lgradient_0"
       id="linearGradient872"
       x1="-12.025727"
       y1="6.1170783"
       x2="-0.085100174"
       y2="6.1170783"
       gradientUnits="userSpaceOnUse"
       gradientTransform="matrix(3.8358211,0,0,3.8371386,-0.00549785,-0.0026806)" />
    <linearGradient
       inkscape:collect="always"
       xlink:href="#_lgradient_0"
       id="linearGradient1123"
       x1="8.9640694"
       y1="24.545258"
       x2="38.456398"
       y2="24.545258"
       gradientUnits="userSpaceOnUse" />
  </defs>
  <sodipodi:namedview
     id="namedview11"
     pagecolor="#ffffff"
     bordercolor="#666666"
     borderopacity="1.0"
     inkscape:pageshadow="2"
     inkscape:pageopacity="0.0"
     inkscape:pagecheckerboard="0"
     inkscape:document-units="pt"
     showgrid="false"
     inkscape:zoom="7.2257474"
     inkscape:cx="20.136325"
     inkscape:cy="44.839652"
     inkscape:window-width="1600"
     inkscape:window-height="836"
     inkscape:window-x="0"
     inkscape:window-y="0"
     inkscape:window-maximized="1"
     inkscape:current-layer="svg9" />
  <linearGradient
     id="_lgradient_0"
     x1="0.17337747"
     y1="0.5"
     x2="0.82360858"
     y2="0.5"
     gradientTransform="matrix(47,0,0,46.733,0.5,0.633)"
     gradientUnits="userSpaceOnUse">
    <stop
       offset="0%"
       stop-opacity="1"
       style="stop-color:rgb(71,118,230)"
       id="stop2" />
    <stop
       offset="98.26086956521739%"
       stop-opacity="1"
       style="stop-color:rgb(142,84,233)"
       id="stop4" />
  </linearGradient>
  <rect
     x="-46.783241"
     y="1.2253767"
     width="45.802109"
     height="45.80014"
     rx="6.1837621"
     shape-rendering="crispEdges"
     id="rect5-6-7-3"
     ry="6.8055277"
     transform="matrix(0.00524063,-0.99998627,0.99998801,0.00489691,0,0)"
     style="isolation:isolate;fill:#7f00ff;fill-opacity:0.13607298;stroke:url(#linearGradient872);stroke-width:2.0301;stroke-miterlimit:4;stroke-dasharray:none;stroke-opacity:1" />
  <rect
     x="-15.686841"
     y="17.260124"
     width="33.338203"
     height="33.345856"
     rx="6.7920032"
     shape-rendering="crispEdges"
     id="rect5-6-6-6-6"
     style="isolation:isolate;fill:#7f00ff;fill-opacity:0.13607298;stroke:url(#linearGradient15);stroke-width:1.67233;stroke-miterlimit:4;stroke-dasharray:none;stroke-opacity:1"
     ry="7.4743071"
     transform="matrix(0.72446484,-0.68931175,0.68622417,0.72739012,0,0)" />
  <path
     style="color:#000000;fill:url(#linearGradient1123);fill-rule:evenodd;-inkscape-stroke:none"
     d="m 20.960937,7.578125 0.232422,1.2558594 c -0.129589,0.00281 -0.188707,0.1184303 -0.283203,0.1777347 -5.3e-4,7.039e-4 -0.04601,0.07138 -0.05859,0.099609 -0.0091,0.020484 -0.01253,0.036781 -0.01758,0.052734 C 20.727087,9.0458785 20.722478,8.8856761 20.570312,8.796875 L 20.234375,8.6015625 20.09375,8.7441406 c -0.03556,-0.043705 -0.02984,-0.07894 -0.115234,-0.1210937 -0.847125,0.012716 -0.631848,0.667343 -1.390618,0.8632807 0.0043,0.039956 0.03517,0.05674 0.04102,0.095703 l -0.01953,0.00391 c 0.03899,0.1206402 0.09901,0.204296 0.146484,0.2988281 0.03632,0.1297413 0.09542,0.2264683 0.144532,0.3457033 -0.112488,-0.039 -0.235408,-0.09171 -0.423829,0 -0.161517,0.07862 -0.179308,0.250247 -0.21875,0.40039 -0.455404,-0.05486 -0.581753,0.181152 -0.894531,0.455066 -9.13e-4,0.0027 8.78e-4,0.0032 0,0.0059 -0.146449,-0.05449 -0.23443,-0.201197 -0.40039,-0.175781 l -0.677735,0.103515 0.128906,0.261719 c -0.03101,-0.0074 -0.06223,-0.01559 -0.0625,-0.01563 -0.001,-1.19e-4 -0.284297,0.0484 -0.285156,0.04883 -8.48e-4,4.22e-4 -0.17295,0.146037 -0.177734,0.150391 -0.02138,-0.0076 -0.01116,-0.01858 -0.03711,-0.02539 -0.109899,-0.02883 -0.289888,-0.01716 -0.417969,0.0625 -0.0986,0.06133 -0.130873,0.133931 -0.166016,0.199219 -0.663071,0.166699 -0.595287,0.285444 -0.615276,0.781298 -0.04352,-0.02175 -0.06422,-0.04998 -0.140625,-0.06836 -0.04578,-0.01101 -0.106194,-0.02373 -0.201172,-0.01172 -0.08724,0.01103 -0.215889,0.07285 -0.310547,0.171875 -0.0065,-0.0069 -0.0091,-0.01655 -0.01563,-0.02344 l -0.328125,0.220703 c -0.116188,-0.09834 -0.210389,-0.178518 -0.324219,-0.240234 -1.457271,-0.05768 -0.29672,1.121461 -0.343751,1.980466 0.0095,0.03269 0.03119,0.05357 0.04297,0.08398 -0.05766,-0.04198 -0.116567,-0.08652 -0.164062,-0.117187 -1.01392,-0.296932 -1.018657,0.43938 -0.457034,1.136722 -0.08118,0.109755 -0.172524,0.231011 -0.171875,0.316407 9.27e-4,0.121882 0.02949,0.185557 0.05274,0.238281 0.09299,0.210895 0.198985,0.304081 0.347656,0.441406 0.148671,0.137325 0.335283,0.277028 0.556641,0.398438 v 0.002 h 0.002 c 0.03569,0.01928 0.06236,0.05428 0.09766,0.07422 -0.101853,-0.02837 -0.183984,-0.08784 -0.324219,-0.01563 -0.04712,0.02427 -0.02659,0.04975 -0.05859,0.07813 l -0.935546,-1.046875 0.277343,1.691407 c 0.01666,0.101618 0.09669,0.158039 0.132813,0.246093 l -0.01172,0.0059 c 0.01246,0.01391 0.02118,0.02004 0.0332,0.0332 0.09173,0.204257 0.171416,0.417123 0.316406,0.582031 0.08556,0.09731 0.192042,0.185912 0.28711,0.279297 -0.185084,-0.03594 -0.251044,0.165985 -0.357422,0.23632 -0.01698,0.0313 -0.01927,0.05184 -0.02734,0.07617 -0.258022,-0.316811 -0.514707,-0.659686 -0.771484,-0.878906 -1.150222,-1.189571 -1.776655,0.261509 -1.359343,0.855463 -0.0046,0.238421 0.06999,0.281967 0.105469,0.333984 0.07096,0.104033 0.13148,0.159136 0.207031,0.230469 0.101006,0.09537 0.255699,0.185298 0.386719,0.291015 l 0.01367,0.447266 c 0.0066,0.221737 0.120043,0.388489 0.220704,0.492187 0.10066,0.103699 0.203905,0.170836 0.310546,0.234375 0.213282,0.127079 0.449836,0.232002 0.685547,0.345704 0.135968,0.06559 0.156093,0.125648 0.275391,0.197265 -0.05173,-0.01543 -0.07112,-0.009 -0.125,-0.02734 -0.653036,-0.221858 -1.40144,-0.605332 -1.945313,-0.765625 -0.8324539,-0.296822 -0.7562089,-0.102921 -1.4121093,-0.189418 -0.1793761,0.07428 -0.2927983,0.272097 -0.3164062,0.386719 -0.2512788,0.70689 -0.4386595,1.06237 0.3789088,1.576175 0.00305,0.0019 0.0067,0.0039 0.00977,0.0059 -0.4860066,0.356053 -0.2553837,0.648713 -0.00983,1.003684 -0.066482,0.06396 -0.3164063,0.30664 -0.3164062,0.30664 -0.4972974,0.129893 -0.6080814,-0.307641 -0.3457069,0.570306 0.080794,0.145452 0.2170784,0.311808 0.4277344,0.412109 0.210656,0.100301 0.4726393,0.114781 0.7246094,0.05273 l -0.171875,0.01172 c 0.309666,0.03236 0.936864,0.137871 1.478515,0.259766 -0.16807,0.01624 -0.24442,0.02616 -0.408203,0.04492 -0.326019,0.03734 -0.630128,0.08032 -0.9062495,0.179687 -0.1380609,0.04968 -0.2786283,0.107502 -0.4160156,0.251953 -0.1373874,0.144452 -0.2264947,0.442143 -0.1621094,0.660157 l 0.1210937,0.408203 0.421875,-0.05273 c 0.3916148,-0.04892 0.7418278,-0.05747 1.1269528,-0.115234 1.13278,-0.169909 2.267391,-0.381181 3.314453,-0.341797 1.144645,0.595198 2.267532,1.09194 3.173828,1.777344 -0.141757,0.02571 -0.260514,0.05789 -0.431641,0.07227 -0.583471,0.04902 -1.249397,0.03219 -1.740234,0.06641 0.06216,3.33e-4 0.03244,0.005 -0.03516,-0.03125 -0.07156,-0.03838 -0.176577,-0.106553 -0.289063,-0.191407 -0.22497,-0.169707 -0.486811,-0.402427 -0.71289,-0.609375 -0.22608,-0.206947 -0.37985,-0.363355 -0.546875,-0.486328 -0.02088,-0.01537 -0.04303,-0.03199 -0.08008,-0.05273 -0.497639,-0.138178 -0.545596,0.07879 -0.751953,0.496087 -0.03126,-0.01243 -0.213405,-0.08261 -0.429687,-0.175782 -0.23504,-0.101255 -0.509033,-0.222447 -0.744141,-0.320312 -0.117554,-0.04893 -0.22486,-0.09258 -0.318359,-0.126953 -0.0935,-0.03437 -0.112702,-0.06703 -0.310547,-0.08008 -0.02473,-0.0016 -0.05299,-0.0013 -0.09766,0.0039 -0.02233,0.0026 -0.05027,0.0068 -0.08203,0.01563 -0.464073,0.24533 -0.277923,0.449475 -0.24219,0.791014 -0.219928,0.0084 -0.439131,0.01069 -0.6679681,0.0918 l -0.9863282,0.34961 0.8925782,0.546875 c 0.6263381,0.384667 1.3579591,0.291409 2.1191401,0.314453 0.660743,0.02 1.243243,0.135365 1.683594,0.332031 -0.09171,0.02812 -0.182018,0.06587 -0.261719,0.08594 -0.0925,0.02329 -0.16832,0.04019 -0.214844,0.04883 -0.457256,0.102673 -0.361522,0.215419 -0.498095,0.617163 6e-6,2.4e-5 0.01308,0.02441 0.01758,0.0332 -1.256501,0.329631 -0.673993,1.33297 0.207071,1.568363 0.110729,-0.02798 0.172655,-0.06064 0.246093,-0.09766 1.152718,-0.744587 2.408773,-1.390452 3.646484,-1.09375 -0.159715,0.05775 -0.310399,0.117599 -0.53125,0.160156 -0.639917,0.123307 -1.46063,0.160005 -2.113281,0.671875 l -0.273438,0.216797 0.03516,0.109375 c -0.02735,0.0205 -0.03078,0.0268 -0.06836,0.05078 -0.192015,0.122563 -0.489145,0.272503 -0.755859,0.408203 -0.133358,0.06785 -0.260221,0.132105 -0.373047,0.197266 -1.000288,0.749891 0.04841,1.495119 0.894539,1.249998 0.103165,-0.08219 0.215142,-0.177224 0.330078,-0.273438 0.0147,-0.01231 0.02419,-0.01694 0.03906,-0.0293 l 0.570312,0.792969 c 0.217581,-0.142718 0.311193,-0.107894 0.632813,-0.113281 0.0658,-0.0011 0.174358,-0.108156 0.253906,-0.121094 -0.04525,0.09051 -0.06509,0.159611 -0.121094,0.253906 -0.281405,0.473843 -0.636094,0.919782 -0.712891,1.017578 0.799001,1.254917 1.246539,0.270402 2.05078,-0.734376 0.216794,-0.449417 0.367743,-0.868865 0.539062,-1.271484 0.17203,-0.03693 0.365284,-0.06587 0.443359,-0.152344 0.231035,-0.255885 0.29938,-0.509008 0.41211,-0.785156 0.11273,-0.276147 0.233303,-0.560942 0.351562,-0.748047 0.11826,-0.187105 0.199233,-0.223475 0.208985,-0.224609 l 0.292968,-0.0332 0.111329,-0.275391 c -0.04527,-0.344133 0.29362,-0.150348 0.324218,-0.166016 0.468634,0.404778 0.731707,0.891572 1.115236,1.361322 0.02568,0.06033 0.01503,0.05047 0.01367,0.05469 -0.0027,0.0084 -0.125999,0.158297 -0.410157,0.302734 -0.284157,0.144438 -0.675595,0.287771 -1.054687,0.439454 -0.379092,0.151682 -0.746579,0.295234 -1.048828,0.576171 l -0.753907,0.699219 0.746094,0.117188 c -0.08045,0.0443 -0.103607,0.102924 -0.220703,0.101562 h -0.0625 l -0.06055,0.01367 c -1.020523,0.300197 -1.305427,0.824958 -0.486328,1.302738 0.08774,4.06e-4 0.173428,-0.0083 0.267578,-0.02344 0.07241,-0.01165 0.174962,-0.04816 0.257813,-0.06836 -0.0043,0.01395 -0.0095,0.02042 -0.01367,0.03516 -0.01336,0.04714 -0.07154,0.06287 -0.0098,0.302734 0.188763,0.426763 0.405888,0.375837 0.75,0.314455 0.228894,-0.04083 0.194829,-0.155063 0.275391,-0.25 l 0.002,-0.002 c 0.488575,-0.54287 0.838332,-1.166314 1.216797,-1.636719 0.345752,-0.429744 0.696242,-0.662821 1.15625,-0.755859 0.184651,0.09774 0.341935,0.195608 0.425781,0.359375 0.106991,0.208973 0.16377,0.505622 0.175781,0.857422 0.283771,1.791633 -0.323197,3.250862 -0.595715,4.779304 0.01185,0.189561 0.08414,0.409739 0.234375,0.578125 0.150231,0.168386 0.352671,0.269733 0.56836,0.326172 0.704927,0.187342 1.405543,0.125333 2.123046,0.175781 0.740304,0.0208 1.524823,-0.03963 2.132813,-0.533203 l 0.351562,-0.28711 -0.25,-0.376953 c -0.469201,-0.709982 -0.560303,-1.518446 -0.460937,-2.40625 0.09864,-0.881312 0.392969,-1.813841 0.658203,-2.685547 l 0.002,-0.0039 c 0.03943,-0.111521 0.06245,-0.136135 0.0957,-0.203125 0.011,0.01772 0.0161,0.01943 0.02734,0.03906 0.132929,0.231987 0.280217,0.582633 0.416016,0.919922 0.134953,0.335189 0.249434,0.645466 0.396484,0.898437 9.21e-4,0.0016 0.001,0.0043 0.002,0.0059 0.178434,0.328923 0.236752,0.481322 0.457031,0.669922 0.05614,0.04806 0.132534,0.142278 0.369141,0.138672 0.118304,-0.0018 0.267501,-0.06429 0.353516,-0.148437 0.08601,-0.08415 0.118823,-0.16704 0.136718,-0.226563 0.07158,-0.238091 0.02025,-0.282516 0.002,-0.371094 -0.05402,-0.261545 -0.215959,-0.572635 -0.371094,-0.86914 0.20552,0.09683 0.356772,0.163192 0.480469,0.207031 0.06391,0.02265 0.114181,0.04345 0.214843,0.05469 0.861206,-0.30124 0.562208,-0.771141 0.05457,-1.244119 C 28.72019,33.944125 28.454543,33.728914 28.242185,33.53125 28.02983,33.333586 27.8798,33.089409 27.90625,33.167969 l -0.06641,-0.197266 -0.185547,-0.0918 c -0.20766,-0.102417 -0.187992,-0.121296 -0.164063,-0.292969 0.02393,-0.171672 0.174278,-0.46014 0.394532,-0.6875 0.220254,-0.227359 0.504928,-0.387858 0.677734,-0.417968 0.1617,-0.02818 0.190515,-0.01902 0.283203,0.144531 0.204486,0.590731 0.24493,1.298077 0.414063,2.033203 0.173847,0.755618 0.56345,1.565885 1.478515,2.050781 l 0.257813,0.136719 0.24414,-0.15625 c 0.139313,-0.0883 0.233923,-0.263974 0.253907,-0.388672 0.01998,-0.124697 0.002,-0.209808 -0.01563,-0.279297 -0.02131,-0.08412 -0.05536,-0.142355 -0.08594,-0.207031 0.140792,0.168296 0.260426,0.343463 0.435547,0.480469 0.08178,0.06398 0.111395,0.171265 0.203125,0.224609 l 1.365234,0.792969 -0.638672,-1.386719 c 0.0506,0.03121 0.09575,0.0566 0.142579,0.08008 0.806087,0.131709 0.900499,-0.388039 0.460975,-0.998045 -0.254758,-0.23239 -0.659167,-0.499193 -1.076172,-0.693359 0.0044,6.89e-4 0.0073,-7.31e-4 0.01172,0 0.203695,0.03363 0.383944,0.116561 0.447266,0.171875 l 0.759765,-0.632812 c -0.05574,-0.09371 -0.0425,0.02932 0.03125,-0.160157 0.01844,-0.04737 0.05758,-0.110304 0.05469,-0.269531 -0.0029,-0.159227 -0.160766,-0.413923 -0.306641,-0.488281 -0.79492,-0.127805 -1.699563,0.08112 -2.443356,-0.13277 -0.411617,-0.249634 -0.746289,-0.744139 -1.017578,-1.300781 0.02763,-0.02703 0.02057,-0.06596 0.09375,-0.09766 0.153833,-0.06663 0.42925,-0.111072 0.746093,-0.107422 0.633688,0.0073 1.422229,0.185472 1.845703,0.322266 1.248317,0.579176 2.318383,1.110322 3.414062,1.371092 0.884733,0.210565 1.018267,-0.05058 1.107424,-0.70314 -0.0038,-0.0061 -0.0061,-0.0062 -0.0098,-0.01172 0.01645,0.0059 0.0178,0.0074 0.03516,0.01367 l 0.01367,0.0059 0.01563,0.0039 c 0.117698,0.03603 0.236979,0.06641 0.355469,0.09961 l 0.01367,0.0039 c 0.259773,0.05705 0.410417,0.08713 0.533203,0.101562 0.0307,0.0036 0.05785,0.0082 0.105469,0.0078 0.569217,-0.1958 0.337226,-0.618251 0.195326,-0.980466 C 38.075,30.431649 37.824596,30.3641 37.517597,30.27543 c -0.1535,-0.04434 -0.306449,-0.08603 -0.4375,-0.119141 -0.642506,-0.157905 -0.700287,-0.01347 -0.908216,0.539101 8e-5,3.65e-4 0.04081,0.116784 0.04102,0.117188 4.3e-5,8.6e-5 0.0074,0.01157 0.0098,0.01563 -0.129315,-0.05295 -0.256648,-0.108979 -0.386719,-0.167969 0.0051,-0.01101 0.01073,-0.0055 0.01563,-0.01758 0.07953,-0.19649 -0.0277,-0.484951 -0.123046,-0.578125 -0.09535,-0.09317 -0.159786,-0.11257 -0.214844,-0.134766 -0.110117,-0.04439 -0.197046,-0.06261 -0.296875,-0.08203 -0.137333,-0.02672 -0.292426,-0.0467 -0.44336,-0.06836 L 34.9063,29.232503 c -0.06337,-0.03004 -0.138683,0.0061 -0.203125,-0.01563 l 0.0078,-0.0332 c -0.05907,-0.0022 -0.131606,0.01791 -0.195312,0.01758 -0.461621,-0.106001 -0.929939,-0.141453 -1.433594,-0.115235 -0.640885,0.03336 -1.291859,0.0483 -1.683594,-0.06836 l -0.115234,-0.0332 -0.117187,0.02148 c -0.218257,0.04007 -0.352732,0.03098 -0.419922,0.01953 0.02186,0.0214 -2.46e-4,-0.03052 0.105468,-0.214844 0.123076,-0.214594 0.353413,-0.470684 0.583985,-0.632813 0.230572,-0.162128 0.443613,-0.204013 0.503906,-0.191406 2.455416,0.359632 4.258002,0.514615 5.857422,0.861323 0.173652,-0.02758 0.372354,-0.137303 0.478516,-0.310547 0.106161,-0.173243 0.114044,-0.367273 0.07813,-0.519531 -0.05012,-0.212472 -0.231096,-0.327389 -0.392579,-0.455078 0.01843,-0.0034 0.02342,0.0053 0.04297,0 0.317539,-0.121939 0.459765,-0.158157 0.632813,-0.316406 0.06667,-0.03907 0.140582,-0.06282 0.238281,-0.21875 0.04885,-0.07797 0.10291,-0.222205 0.07227,-0.38086 -0.0255,-0.132028 -0.105989,-0.210324 -0.173829,-0.271484 0.0177,-0.01488 0.03484,-0.02988 0.05469,-0.05273 0.219391,-0.602015 -0.02265,-0.689155 -0.525395,-0.888669 -0.0044,-0.01136 0.0029,-0.03302 -0.002,-0.04297 -0.103692,-0.210536 -0.213033,-0.24839 -0.308594,-0.298828 -0.19112,-0.100876 -0.398773,-0.149669 -0.65039,-0.144531 -0.251618,0.0051 -0.555827,0.08383 -0.798828,0.314453 l -0.140625,0.132812 c -0.03451,0.0023 -0.07855,0.006 -0.111328,0.0078 -0.768461,-0.182157 0.273746,0.928082 -0.736367,-0.355442 -0.0878,0.06593 -0.547284,0.222886 -1.046875,0.267578 -0.622562,-0.05846 -1.318427,-0.02003 -1.86914,-0.06055 0.105562,-0.161863 0.274753,-0.400826 0.478515,-0.478515 1.336881,-0.182377 2.437008,-0.695989 3.50586,-0.351563 l -0.158203,-0.08594 c 0.499537,0.396469 1.116799,0.474939 1.484375,0.02734 0.09189,-0.111899 0.160882,-0.273868 0.152343,-0.449218 -0.0044,-0.08939 -0.06692,-0.150826 -0.105468,-0.228516 0.17697,-0.03847 0.354047,-0.06469 0.52539,-0.152344 l 0.244141,-0.125 0.02539,-0.271484 c 0.01675,-0.169332 -0.0037,-0.390301 -0.15625,-0.570313 -0.152576,-0.180011 -0.372261,-0.234222 -0.523438,-0.240234 -0.302353,-0.01203 -0.516694,0.07854 -0.759766,0.162109 -0.615656,0.225018 -1.332984,0.306896 -1.900392,0.439486 0.407356,-0.379438 0.805435,-0.777393 1.15039,-1.123046 0.469128,-0.470077 0.914781,-0.816206 1.488282,-0.941407 l 0.234375,-0.05273 0.105468,-0.212891 c 0.08258,-0.165504 0.192672,-0.317349 0.08984,-0.626953 -0.05141,-0.154802 -0.209369,-0.304912 -0.34375,-0.355469 -0.03189,-0.012 -0.04608,-0.0015 -0.07422,-0.0078 0.05181,-0.473959 -0.162775,-0.477762 -0.566411,-0.6445 -0.01983,0.0036 -0.01362,0.0078 -0.0293,0.01172 -0.0209,-0.266893 0.07615,-0.511912 0.160159,-0.802781 0.02986,-0.129343 0.05386,-0.214173 0.04102,-0.373047 -0.0064,-0.07944 -5.02e-4,-0.21837 -0.18164,-0.376953 -0.09057,-0.07929 -0.234284,-0.129755 -0.345704,-0.128906 -0.111419,8.49e-4 -0.187402,0.03357 -0.240234,0.06055 -0.211326,0.107887 -0.219848,0.179569 -0.275391,0.257812 -0.222168,0.312973 -0.443202,0.78255 -0.546875,1.253906 l 0.0332,-0.09961 c -0.07163,0.156737 -0.308718,0.201378 -0.451172,0.294922 0.04638,-0.08181 0.09832,-0.145328 0.101562,-0.330078 0.0021,-0.120799 -0.06536,-0.370102 -0.267578,-0.488281 -0.05011,-0.02928 -0.06879,5.95e-4 -0.113281,-0.01172 -0.08373,-0.08813 -0.138156,-0.186986 -0.347656,-0.226563 -0.07548,-0.01426 -0.154566,0.03944 -0.242188,0.0625 0.1005,-0.114317 0.144998,-0.246496 0.253906,-0.363281 0.46717,-0.500956 0.998454,-1.04514 1.302735,-1.830078 l 0.695312,-1.794922 -1.480469,1.228516 c -0.332951,0.27635 -0.688678,0.421365 -1.109375,0.625 -0.30129,0.145837 -0.626951,0.434954 -0.945312,0.720703 0.215347,-0.22418 0.304497,-0.49299 0.519531,-0.683594 l 0.216797,-0.191406 -0.05859,-0.283203 c -0.03985,-0.194273 -0.08157,-0.347548 -0.175781,-0.50586 -0.09421,-0.158311 -0.345965,-0.362298 -0.613281,-0.33789 -0.267316,0.02441 -0.390404,0.162764 -0.484375,0.265625 -0.05933,0.06494 -0.101999,0.134398 -0.148438,0.203125 -0.04275,-0.05491 -0.07426,-0.103817 -0.146484,-0.142578 0.268771,-0.36325 0.548089,-0.779456 0.716797,-1.121094 0.27434,-0.420648 0.115714,-0.532472 0.0098,-0.90625 0.0037,-0.0048 0.01424,-0.005 0.01758,-0.0098 0.149173,-0.214089 0.125223,-0.358483 0.08789,-0.509765 -0.01867,-0.07564 -0.04057,-0.160661 -0.146484,-0.269532 -0.441707,-0.220895 -0.745893,-0.0279 -1.085938,0.167968 -0.125118,0.076 -0.185522,0.189551 -0.263672,0.289063 l -0.332031,-0.0332 c -0.01045,-0.0088 -0.0072,-0.0066 -0.02148,-0.01758 -0.03411,-0.02639 -0.07939,-0.06464 -0.183594,-0.09766 -0.104206,-0.03301 -0.306557,-0.03319 -0.447266,0.05859 -0.281416,0.183565 -0.243515,0.349355 -0.255859,0.449219 -0.01234,0.09986 -0.0128,0.193949 -0.0098,0.322265 v 0.01953 l 0.002,0.01758 c 0.04851,0.494653 -0.190337,0.95261 -0.28711,1.427734 -0.0458,0.02484 -0.133091,0.05086 -0.15625,0.06836 -0.04824,0.03646 -0.08699,0.07716 -0.126953,0.115235 0.01486,-0.04084 0.0198,-0.07204 0.03516,-0.113281 0.126563,-0.340038 0.266107,-0.69091 0.367188,-1.03125 0.06902,-0.232401 0.0612,-0.471458 0.06445,-0.710938 0.0015,-0.111228 0.06029,-0.211577 0.03125,-0.330078 l -0.337891,-1.380859 -0.261718,0.5625 -0.56836,-0.169922 c -0.01757,0.03991 -0.0125,0.08109 -0.0293,0.121093 l -0.0059,-0.002 c -0.0025,0.01467 -0.007,0.04481 -0.0098,0.06055 -0.0013,0.0032 -6.46e-4,0.0066 -0.002,0.0098 -0.05208,-0.07893 -0.110294,-0.175385 -0.267578,-0.222656 -0.133293,-0.04006 -0.233287,0.02018 -0.335937,0.0625 -0.0099,-0.06364 -0.0045,-0.113474 -0.0625,-0.228516 -0.02379,-0.04723 -0.049,-0.117306 -0.179688,-0.207031 -0.130691,-0.08973 -0.448554,-0.09251 -0.583984,0.002 -0.09135,0.06372 -0.09919,0.103856 -0.123047,0.148437 0.01454,-0.08884 0.04555,-0.183279 0.06055,-0.271484 0.04115,-0.203113 0.0662,-0.3594 0.07617,-0.494141 0.01,-0.134741 0.07789,-0.217972 -0.08984,-0.486328 -0.71098,-0.4451487 -0.913302,-0.04608 -1.175781,0.560547 0.0013,-0.0075 0.0026,-0.01 0.0039,-0.01758 l -0.01758,0.002 c -0.01646,-0.07741 0.02607,-0.164017 0.002,-0.240234 l -0.328125,0.02344 c -0.01327,-0.09965 -0.02313,-0.175862 -0.03906,-0.279297 -0.04033,-0.261779 -0.0599,-0.4896114 -0.205078,-0.7558591 l -0.833984,-1.53125 -0.05664,0.9667969 -0.496094,0.2480468 c -0.04756,0.02394 -0.05311,0.071362 -0.0918,0.1035157 l -0.03125,-0.1738282 -0.53125,0.6914063 C 23.269021,9.7402308 23.340135,10.127877 22.880859,9.2792969 22.834218,9.2240918 22.791243,9.1765613 22.71875,9.1210938 22.6523,9.0702478 22.505616,8.9820806 22.269531,9.0253908 c -0.01026,-0.02034 -0.02163,-0.042367 -0.0332,-0.0625 -7.45e-4,-0.00398 -0.0012,-0.011712 -0.002,-0.015625 l -0.0039,0.00195 c -0.05061,-0.085583 -0.052,-0.1830301 -0.138672,-0.2675782 z m 6.746094,4.820313 0.0332,0.08789 c 0.155028,0.440486 0.06837,0.897173 -0.02539,1.34961 -0.0142,-0.008 -0.133941,-0.07588 -0.134766,-0.07617 -0.449629,-0.100779 0.06414,-1.078083 0.126952,-1.361284 z m -2.433594,1.617187 c 0.0097,0.354747 -0.0036,0.717643 0.0039,1.070313 l -0.0957,0.04492 c 0.07005,-0.317678 0.06806,-0.724544 0.0918,-1.115233 z m 3.433594,0.980463 C 28.612117,15.60063 28.37966,16.12749 28.25,16.695312 l -0.742188,1.142579 c 0.0016,-0.07903 -5.57e-4,-0.127266 0,-0.201172 0.307306,-0.860899 0.767874,-1.750853 1.199219,-2.640625 z m -5.576172,0.347661 c -0.0067,0.05718 -0.01148,0.100883 -0.01758,0.158203 -0.03085,0.290023 0.0827,0.566042 0.08398,0.857422 -0.07644,-0.177427 -0.122178,-0.365352 -0.207032,-0.539062 z m -6.392578,0.234375 c 0.18773,0.325071 0.311138,0.692823 0.513672,1.005859 l -0.189453,0.0098 c -0.122039,-0.286695 -0.223925,-0.667412 -0.324219,-1.015625 z m 8.47461,0.679687 c 0.0011,1.534566 -0.005,3.061766 -0.341797,4.53711 -0.09596,0.363839 -0.122051,0.719619 -0.181641,1.083984 -0.0037,-0.698458 -0.04918,-1.381617 -0.05469,-2.083984 l -0.002,-0.0293 -0.002,-0.0293 c -0.132879,-1.07469 0.395641,-2.163809 0.582032,-3.478516 z m 1.019531,0.125 c -7.72e-4,0.01842 -0.0081,0.02642 -0.0078,0.04687 0.0011,0.07498 0.0032,0.176636 0.08594,0.310547 0.07579,0.122642 0.257637,0.213813 0.402344,0.236328 -0.05449,0.138405 -0.128482,0.253114 -0.177735,0.394532 l -0.0293,0.08203 0.002,0.08594 c 0.0017,0.293992 -0.06786,0.857088 0.01367,1.330079 0.02038,0.118247 0.04164,0.241673 0.150391,0.394531 0.01385,0.01947 0.06209,0.01243 0.08203,0.03125 -0.146046,0.263011 -0.190763,0.525652 -0.412109,0.808594 -0.205272,0.262394 -0.311347,0.655334 -0.50586,0.964843 0.0027,-0.01024 0.0031,-0.02299 0.0059,-0.0332 l 0.002,-0.0098 0.002,-0.0078 c 0.352637,-1.544585 0.359687,-3.085852 0.365234,-4.621094 z m -3.980469,0.273439 c 0.194981,0.441749 0.385988,0.882819 0.519531,1.34375 -0.02492,-0.0053 -0.03479,-0.03242 -0.06055,-0.03516 l -0.21875,-0.02344 c -0.05469,-0.151892 -0.111079,-0.286121 -0.154296,-0.40039 l -0.01172,-0.0332 -0.01758,-0.03125 c -0.126799,-0.231804 -0.0188,-0.556206 -0.05664,-0.820312 z m -2.394531,0.767578 c 0.159955,0.09295 0.31914,0.165735 0.46289,0.292969 0.237737,0.210422 0.392643,0.455772 0.414063,0.550781 l 0.0078,0.03711 0.01367,0.03516 c 0.307305,0.788711 0.786928,1.493764 1.115235,2.173828 0.165328,0.342465 0.106494,0.658653 0.169922,0.980469 -0.715442,-1.362107 -1.433818,-2.723088 -2.177735,-4.060547 z m -7.03125,0.273439 c 0.0067,0.04292 0.04899,0.06189 0.05859,0.103515 l -0.02149,0.0098 -0.04492,-0.103516 c 0.0028,-0.0037 0.0048,-0.0061 0.0078,-0.0098 z m 20.224609,0.361328 c 0.0761,0.106933 0.174055,0.224079 0.277344,0.25 0.111835,0.02807 0.109145,-0.0095 0.164062,-0.01953 -0.137988,0.223101 -0.330356,0.356036 -0.427734,0.626954 -0.002,0.0036 -0.0019,0.0081 -0.0039,0.01172 -1.95e-4,-6.2e-4 -0.0018,-0.0013 -0.002,-0.002 -0.01874,-0.05922 -0.0528,-0.138116 -0.132813,-0.216797 -0.08138,-0.08003 -0.217141,-0.141302 -0.330078,-0.148437 -0.4147,0.04147 0.319571,-0.404932 0.455077,-0.501951 z m -0.06836,1.398424 c 0.0118,0.114814 0.0093,0.225027 0.08984,0.324219 -0.07287,0.153461 -0.146835,0.314238 -0.207032,0.474609 -0.241874,0.438888 -0.04492,0.722358 0.04492,1.048828 -0.328511,0.610155 -0.880438,0.751969 -1.048828,0.833985 l -0.28125,-0.07813 -0.205078,0.205078 c -0.16669,0.16506 -0.331095,0.40776 -0.503906,0.609375 -0.01225,-0.042 -0.003,-0.08257 -0.02148,-0.125 -0.05379,-0.123366 -0.192657,-0.212922 -0.316406,-0.306641 0.353322,-0.409471 0.693157,-0.831949 0.943359,-1.335937 0.06743,0.03962 0.107013,0.109327 0.175782,0.113281 0.166213,0.0096 0.248658,-0.04442 0.300781,-0.07617 0.208491,-0.127009 0.192054,-0.175325 0.255859,-0.265625 0.297052,-0.421039 0.547997,-0.911557 0.773433,-1.421916 z m -10.304688,0.140625 c 0.02373,0.147578 0.05163,0.269227 0.07031,0.4375 -0.06944,-0.141797 -0.127822,-0.251889 -0.201172,-0.388672 0.05,-0.0047 0.08245,-0.03177 0.130859,-0.04883 z m -3.673828,0.960938 c 0.286144,0.309199 0.541483,0.54012 0.826172,0.898437 -0.301088,-0.100383 -0.554225,-0.269197 -0.748047,-0.515625 -0.07442,-0.09462 -0.02156,-0.270208 -0.07813,-0.382812 z m 11.460938,0.277343 c -0.311934,0.565746 -0.695203,1.090314 -1.179688,1.552735 0.344426,-0.440353 0.695979,-0.887001 0.972656,-1.31836 0.06223,-0.09702 0.144511,-0.141879 0.207032,-0.234375 z m 4.671875,0.04102 c -0.09378,0.271594 -0.05759,0.447815 -0.300782,0.769531 -0.309337,0.409229 -0.703302,0.663387 -1.080078,0.951172 -0.06522,-0.03921 -0.09772,-0.120597 -0.162109,-0.126953 -0.371435,-0.03666 -0.454757,0.122211 -0.576172,0.232422 -0.02063,0.02778 -0.05209,0.04557 -0.07813,0.06835 l 0.01563,-0.04492 c 0.205738,-0.619286 0.614283,-1.051124 1.167969,-1.40625 0.291828,-0.187173 0.667726,-0.300642 1.013672,-0.443359 z M 31.615234,20.912109 31.564453,21 c 0.01017,-0.01417 0.02455,-0.04923 0.03516,-0.06445 0.004,-0.0089 0.01165,-0.01448 0.01563,-0.02344 z m -8.421875,0.992188 c 0.09211,0.132862 0.178418,0.285517 0.392578,0.328125 l 0.113282,0.02344 c 0.0095,1.236234 -0.01574,2.466076 0.09766,3.710938 l 0.162109,1.78125 0.785157,-1.607422 c 0.606729,-1.242975 0.72332,-2.56366 0.892578,-3.808594 l 0.519531,0.201172 c 0.04934,-0.06951 0.08027,-0.108505 0.134766,-0.185547 -0.0646,0.295891 -0.124761,0.604377 0.01367,0.910156 l 0.13086,0.28711 c -0.790759,0.857743 -1.430238,1.928536 -1.455078,3.132812 l -0.02344,1.09375 1.09375,-0.908203 0.03125,-0.03906 c 0.325987,-0.40712 0.769543,-0.915661 1.111328,-1.494141 0.146211,-0.247466 0.09133,-0.569854 0.179688,-0.851562 0.113427,0.118382 0.279223,0.170031 0.396484,0.175781 0.159884,0.0078 0.244437,-0.04823 0.34375,-0.09375 -0.07639,0.173358 -0.24483,0.327464 -0.269531,0.513672 l -0.08789,0.658203 0.658203,-0.09766 c 0.160154,-0.0241 0.343766,-0.0273 0.550782,-0.0293 l -0.103516,-0.0098 c 0.261,0.05271 0.451773,-0.111969 0.671875,-0.208984 l -0.01758,0.195312 c -0.522972,0.193722 -1.027883,0.447911 -1.34375,0.765625 l -0.07813,0.08008 -0.03906,0.105469 c 0.04279,-0.121566 0.01256,-0.0283 -0.04492,0.04297 -0.05748,0.07127 -0.144459,0.169895 -0.242188,0.279297 -0.195457,0.218803 -0.4396,0.483084 -0.646484,0.730468 -0.01074,0.01284 -0.01877,0.02437 -0.0293,0.03711 0.0053,-0.208913 0.102179,-0.40868 0.08203,-0.615235 l -0.06445,-0.658203 -0.617188,0.242188 c -0.298994,0.117529 -0.507684,0.320932 -0.724609,0.566406 -0.216925,0.245474 -0.426031,0.542102 -0.619141,0.863281 -0.373504,0.621214 -0.671689,1.320613 -0.783203,1.958985 -0.083,3.064567 1.777159,0.378927 2.535209,-0.898396 0.02241,-0.05292 0.0018,-0.114175 0.02148,-0.167969 0.120978,0.06982 0.249295,0.123358 0.332031,0.121094 0.0054,-1.48e-4 0.0083,-0.0037 0.01367,-0.0039 -0.346726,0.448201 -0.715522,0.893791 -0.796875,1.490234 l -0.0293,0.21875 0.140625,0.167969 c 0.06796,0.08166 0.190754,0.172888 0.335938,0.201172 0.145184,0.02828 0.275682,-0.008 0.357422,-0.04687 0.03285,-0.01561 0.02649,-0.02399 0.05078,-0.03906 l 0.05078,0.03711 0.302734,-0.28125 c 0.311255,-0.288522 0.948179,-0.759973 1.492188,-1.232422 0.272004,-0.236225 0.524484,-0.473119 0.720703,-0.724609 0.04338,-0.0556 0.02551,-0.152251 0.06641,-0.212891 -0.109283,0.258567 -0.178609,0.52719 -0.06836,0.816406 -0.122613,0.0283 -0.256087,0.0099 -0.373047,0.06055 -0.362604,0.157057 -0.702586,0.498287 -0.783203,0.947266 l -0.01953,0.107422 c -0.109757,-0.01073 -0.220606,-0.06298 -0.324219,-0.04492 -0.480725,0.08376 -0.890739,0.360438 -1.224609,0.705078 -0.333871,0.34464 -0.598664,0.762892 -0.666016,1.246094 -0.02427,0.174103 0.03921,0.358636 0.0957,0.539062 -0.08963,-0.03608 -0.141421,-0.112655 -0.253906,-0.109375 -1.327938,0.538083 -1.541261,2.721944 -1.6953,3.955113 -0.09226,0.82433 0.03885,1.671519 0.388672,2.47461 -0.305064,0.133712 -0.639392,0.256268 -1.140625,0.242187 -0.625183,-0.01756 -1.312189,-0.124817 -1.93164,-0.15625 -0.0208,-0.166967 0.09499,-0.397702 0.132811,-0.529338 0.397302,-0.698315 0.406054,-1.423362 0.335939,-2.076172 l 0.04102,0.150391 c -0.05684,-0.537179 0.09393,-1.419804 0.06445,-2.283203 -0.01474,-0.431699 -0.07709,-0.872895 -0.285156,-1.279297 -0.203275,-0.397034 -0.574298,-0.733292 -1.066406,-0.921875 0.03675,-0.06561 0.125293,-0.06849 0.15039,-0.146484 0.0592,-0.183982 0.0154,-0.388412 -0.03516,-0.583985 1.338202,0.273276 0.91095,-1.09893 0.697262,-1.708985 -0.09754,-0.118083 -0.232964,-0.132217 -0.34961,-0.205078 l 0.04492,-0.179688 c 0.01865,-0.07198 -0.03563,-0.131754 -0.0293,-0.203125 2.39e-4,-0.0027 -2.22e-4,-0.0051 0,-0.0078 0.04551,0.07132 0.09242,0.14049 0.177735,0.208984 0.09349,0.07505 0.262247,0.156703 0.451172,0.128906 1.139731,-0.731371 0.156365,-2.093201 -0.294954,-2.982422 0.01499,0.01007 0.02303,0.02351 0.03906,0.0332 0.118802,0.07184 0.291967,0.146919 0.509766,0.107421 l 0.443359,-0.08008 -0.04883,-0.646484 -0.02344,-0.236328 0.002,0.0625 c 0.02078,-0.765379 -0.16743,-1.563827 -0.509766,-2.285156 0.58585,0.0063 0.629514,-0.38097 0.730473,-0.902347 4.89e-4,-0.0034 0.0015,-0.0026 0.002,-0.0059 l 0.0078,-0.01172 0.02539,-0.09961 c 0.07212,-0.280702 0.02357,-0.538361 0.01758,-0.804687 z m -3.046875,0.01758 0.06641,0.01563 c -0.01271,-0.0037 -0.02467,-3.51e-4 -0.03711,-0.0039 -0.01124,-0.0018 -0.01799,-0.01006 -0.0293,-0.01172 z m 1.208985,0.410144 c 0.01969,0.03792 0.04091,0.07533 0.06055,0.113281 -0.03715,-0.02639 -0.09226,-0.0299 -0.13086,-0.05469 z m -10.25,0.132811 c 0.158871,0.0749 0.294402,0.150162 0.472656,0.222656 0.105729,0.043 0.207968,0.04685 0.316406,0.08789 l -0.24414,0.410156 C 11.471349,22.956566 11.281358,22.7114 11.105469,22.464832 Z m 5.798828,0.123047 c 0.159743,0.155817 0.354419,0.3049 0.521484,0.46875 -0.0827,-0.03213 -0.177146,-0.06237 -0.328125,-0.0078 -0.07016,-0.149591 -0.126943,-0.308335 -0.193359,-0.460937 z m -3.8125,0.519531 c 0.193706,0.04131 0.416348,0.152567 0.589844,0.164062 l -0.111328,-0.01953 c 0.163007,0.04874 0.310803,0.203921 0.470703,0.279297 -0.06258,0.0118 -0.134851,0.01872 -0.240235,0.119141 -9.86e-4,9.4e-4 -9.75e-4,0.0029 -0.002,0.0039 -0.184288,-0.216232 -0.480687,-0.350988 -0.707031,-0.546875 z m 7.673828,0.351562 c 0.229667,0.177895 0.564199,0.236009 0.716797,0.509766 0.123697,0.22191 0.100583,0.526361 0.171875,0.791016 -0.156343,-0.234896 -0.309569,-0.486799 -0.46875,-0.669922 l 0.08984,0.148437 c -0.107853,-0.283388 -0.267998,-0.459722 -0.455079,-0.707031 -0.01856,-0.02454 -0.03579,-0.04741 -0.05469,-0.07227 z m -1.21875,0.0293 c 0.145918,0.205532 0.300019,0.411619 0.441406,0.597656 -0.191433,-0.170218 -0.351461,-0.372366 -0.552734,-0.527343 0.03837,-0.02905 0.08177,-0.03096 0.111328,-0.07031 z m -1.248047,0.353516 c 0.03259,0.02363 0.05472,0.05732 0.08789,0.08008 h 0.002 c 1.254711,0.853121 2.182513,2.07785 2.794922,3.427734 -0.740988,-0.792855 -1.513989,-1.599544 -2.103516,-2.423828 l 0.03125,0.05078 c -0.141282,-0.258251 -0.48655,-0.720791 -0.8125,-1.134765 z m 11.478516,0.01367 c -0.007,0.01607 -0.0043,0.02702 -0.01172,0.04297 -0.110988,0.237877 -0.271548,0.46189 -0.416016,0.587891 -0.07066,0.06163 -0.09643,0.04394 -0.142578,0.0625 0.08281,-0.133784 0.08176,-0.20027 0.19336,-0.337891 0.113576,-0.140054 0.24805,-0.224018 0.376953,-0.355468 z m 1.421875,0.18164 c -0.135598,0.350757 -0.262891,0.698326 -0.365235,1.035157 -0.02018,-0.0013 -0.0025,0.0075 -0.07813,-0.01172 -0.01442,-0.0037 -0.04513,-0.01292 -0.06055,-0.01758 0.08602,-0.260795 0.15346,-0.519856 0.361329,-0.833985 0.04174,-0.06308 0.09782,-0.109209 0.142578,-0.171875 z m -13.039063,2.306652 0.398438,0.119141 -0.02148,0.02148 c -0.100152,0.107828 -0.03663,0.244871 -0.07617,0.373047 -0.07518,-0.19719 -0.190253,-0.352114 -0.300781,-0.513672 z m 16.076179,0.26953 c -0.02393,0.03554 -0.04362,0.02058 -0.06836,0.08789 -4.89e-4,0.0013 4.77e-4,0.0045 0,0.0059 -0.007,6.49e-4 -0.01603,0.0013 -0.02344,0.002 -0.05918,0.0056 -0.130931,0.014 -0.216797,0.02344 -0.590115,0.107697 -1.146247,0.02298 -1.732422,-0.09962 l -0.03906,-0.02148 c 0.655738,-0.348809 1.374883,-0.02737 2.080079,0.0019 z m -4.492194,-0.03906 c -0.177162,0.103687 -0.232777,0.238092 -0.453125,0.33789 -0.157709,0.07143 -0.327326,0.205203 -0.496094,0.279297 0.03149,-0.03798 0.05794,-0.102106 0.08594,-0.138672 1.77e-4,-2.3e-4 0.0018,2.32e-4 0.002,0 0.120731,-0.121026 0.51137,-0.320591 0.861329,-0.478515 z m 1.390625,0.224609 c 0.02373,0.09567 -0.0034,0.20041 0.04883,0.277344 0.04403,0.0649 0.121073,0.09457 0.175781,0.146484 -0.160971,0.06792 -0.357845,0.03814 -0.498047,0.136719 -0.319155,0.224416 -0.571218,0.526672 -0.775391,0.841797 0.02729,-0.120779 0.143489,-0.193525 0.107422,-0.341797 l -0.06641,-0.265625 c 0.382226,-0.194082 0.714168,-0.462627 1.007813,-0.794922 z m -11.484375,1.173828 c 0.174055,0.134317 0.34719,0.210782 0.496093,0.357422 1.075227,1.340358 -0.07803,0.180209 -0.496105,-0.357464 z"
     id="path7"
     sodipodi:nodetypes="ccccccccccccccccccccccscccccssccccccccscscccccccccccscccccssccsssccccccccccscccsssccccccccssssccssscscccccscsccccccsccccsccsccscccccssscccccssscccccccscccsccscsccscccccsccccsscssssccsccscccssscscccsccscccccccccsccccsscscccccccsccsccscccssscccccsccccssccsscccssccccsccccccccccsccccccsccscccsscccccsscsccccscscscccsccccssscccccsccccccssccccsccscccccccccsccscccccccccccccccccccsccccccccccccsccssccccsccccccccccccccccccccscccccsscsccccccscccccccccscccsccccccccccsccccscccsccccccccccccccssccscscscsccscsscscccsccccccccccccccccccccccscccccccccccccsssccccsccscsccccsccccssccccccssccsccccccsscccsccscccccccccccscccccccccccccccsccscccscscccscccsscccscssccsccccccccsscscsscccccsccccccccccccccccsscsccscccccccscsccs" />
</svg>
