<?xml version="1.0" encoding="UTF-8" standalone="no"?>
<!-- Generator: Gravit.io -->

<svg
   style="isolation:isolate"
   viewBox="0 0 48 48"
   width="48pt"
   height="48pt"
   version="1.1"
   id="svg11"
   sodipodi:docname="applications-education.svg"
   inkscape:version="1.1.2 (0a00cf5339, 2022-02-04)"
   xmlns:inkscape="http://www.inkscape.org/namespaces/inkscape"
   xmlns:sodipodi="http://sodipodi.sourceforge.net/DTD/sodipodi-0.dtd"
   xmlns:xlink="http://www.w3.org/1999/xlink"
   xmlns="http://www.w3.org/2000/svg"
   xmlns:svg="http://www.w3.org/2000/svg">
  <defs
     id="defs15">
    <linearGradient
       inkscape:collect="always"
       xlink:href="#_lgradient_1"
       id="linearGradient15"
       x1="-9.6850061"
       y1="45.161198"
       x2="11.98815"
       y2="21.735205"
       gradientUnits="userSpaceOnUse"
       gradientTransform="matrix(1.1147442,0,0,1.1150348,-0.01240999,-3.3277564)" />
    <linearGradient
       id="_lgradient_32"
       x1="0.51808703"
       y1="0.033331186"
       x2="0.50732738"
       y2="0.96818912"
       gradientTransform="matrix(-47,0,0,-44,47.5,46)"
       gradientUnits="userSpaceOnUse">
      <stop
         offset="0%"
         stop-opacity="1"
         style="stop-color:rgb(244,97,51)"
         id="stop4-3" />
      <stop
         offset="98.75%"
         stop-opacity="1"
         style="stop-color:rgb(240,80,129)"
         id="stop6-6" />
    </linearGradient>
    <linearGradient
       inkscape:collect="always"
       xlink:href="#_lgradient_1"
       id="linearGradient872"
       x1="-12.025727"
       y1="6.1170783"
       x2="-0.085100174"
       y2="6.1170783"
       gradientUnits="userSpaceOnUse"
       gradientTransform="matrix(3.8358211,0,0,3.8371386,-0.00549785,-0.0026806)" />
    <linearGradient
       inkscape:collect="always"
       xlink:href="#_lgradient_1"
       id="linearGradient934"
       x1="10.672809"
       y1="24.000134"
       x2="37.327194"
       y2="24.000134"
       gradientUnits="userSpaceOnUse" />
  </defs>
  <sodipodi:namedview
     id="namedview13"
     pagecolor="#ffffff"
     bordercolor="#666666"
     borderopacity="1.0"
     inkscape:pageshadow="2"
     inkscape:pageopacity="0.0"
     inkscape:pagecheckerboard="0"
     inkscape:document-units="pt"
     showgrid="false"
     inkscape:zoom="10.21875"
     inkscape:cx="31.95107"
     inkscape:cy="32"
     inkscape:window-width="1600"
     inkscape:window-height="836"
     inkscape:window-x="0"
     inkscape:window-y="0"
     inkscape:window-maximized="1"
     inkscape:current-layer="svg11" />
  <linearGradient
     id="_lgradient_1"
     x1="0.038784067085954"
     y1="0.9475307481441311"
     x2="0.9299924171461704"
     y2="0.17268607492411203"
     gradientTransform="matrix(26.654383,0,0,19.977935,10.672809,14.011082)"
     gradientUnits="userSpaceOnUse">
    <stop
       offset="0%"
       stop-opacity="1"
       style="stop-color:rgb(220,80,141)"
       id="stop2" />
    <stop
       offset="50.416666666666664%"
       stop-opacity="1"
       style="stop-color:rgb(245,139,123)"
       id="stop4" />
    <stop
       offset="97.91666666666666%"
       stop-opacity="1"
       style="stop-color:rgb(56,249,215)"
       id="stop6" />
  </linearGradient>
  <rect
     x="-46.783241"
     y="1.2253767"
     width="45.802109"
     height="45.80014"
     rx="6.1837621"
     shape-rendering="crispEdges"
     id="rect5-6-7-3"
     ry="6.8055277"
     transform="matrix(0.00524063,-0.99998627,0.99998801,0.00489691,0,0)"
     style="isolation:isolate;fill:#ff00db;fill-opacity:0.13607298;stroke:url(#linearGradient872);stroke-width:2.0301;stroke-miterlimit:4;stroke-dasharray:none;stroke-opacity:1" />
  <rect
     x="-15.686841"
     y="17.260124"
     width="33.338203"
     height="33.345856"
     rx="6.7920032"
     shape-rendering="crispEdges"
     id="rect5-6-6-6-6"
     style="isolation:isolate;fill:#ff00db;fill-opacity:0.13607298;stroke:url(#linearGradient15);stroke-width:1.67233;stroke-miterlimit:4;stroke-dasharray:none;stroke-opacity:1"
     ry="7.4743071"
     transform="matrix(0.72446484,-0.68931175,0.68622417,0.72739012,0,0)" />
  <path
     style="color:#000000;fill:url(#linearGradient934);fill-rule:evenodd;-inkscape-stroke:none"
     d="m 23.6875,13.513672 c -0.332107,-0.0051 -0.655949,0.0737 -0.970703,0.181641 -8.27e-4,5.7e-5 -0.0011,-6.2e-5 -0.002,0 h -0.0039 -0.09766 l -0.07813,0.03516 c -0.01311,0.0054 -0.01324,0.0053 0.01172,-0.0039 3.65e-4,-1.35e-4 0.0016,1.38e-4 0.002,0 0.01249,-0.0046 0.03154,-0.01332 0.05859,-0.01953 0.02388,-0.0055 0.07634,-0.0084 0.09375,-0.0098 -0.02677,0.0029 -0.04031,0.0064 -0.0625,0.01172 l -0.08984,0.01758 c -0.0023,8.93e-4 -0.01189,0.0032 -0.01367,0.0039 L 11.292969,18.59375 c -0.0013,5.32e-4 -0.0026,0.0014 -0.0039,0.002 -0.230903,0.0935 -0.447542,0.23261 -0.63086,0.419922 -0.309052,0.295528 -0.486328,0.706031 -0.486328,1.132812 0,0.425585 0.175732,0.835918 0.482422,1.134766 0.182305,0.181194 0.399543,0.319537 0.634766,0.414063 0.0013,5.41e-4 0.0026,0.0014 0.0039,0.002 L 14.589844,23.125 v 0.486328 3.558594 c 0,0.983739 0.313519,1.940385 0.890625,2.736328 l 0.002,0.002 c 0.583583,0.796022 1.400441,1.387967 2.33789,1.6875 h 0.0039 l 0.0039,0.002 c 0.849827,0.256388 1.727265,0.440568 2.619141,0.533203 1.00263,0.11495 2.012829,0.176159 3.019531,0.169922 1.055403,-1.48e-4 2.110927,-0.06114 3.160156,-0.18164 l -0.0039,0.002 c 0.984032,-0.104219 1.949089,-0.293644 2.896484,-0.56836 l 0.0059,-0.002 0.0059,-0.002 c 0.932718,-0.293121 1.740449,-0.885079 2.3125,-1.673828 0.58989,-0.770608 0.923306,-1.706949 0.943359,-2.677734 v -0.0039 -0.02344 V 23.611328 23.125 l 1.074219,-0.464844 v 3.324219 0.636719 c -0.147259,0.09658 -0.304098,0.177003 -0.429687,0.304687 -0.482515,0.484199 -0.75586,1.137907 -0.75586,1.820313 0,0.678379 0.272062,1.332309 0.75586,1.816406 0.125627,0.127722 0.282166,0.209371 0.429687,0.306641 v 2.230468 c 0,0.76156 0.629064,1.388672 1.390625,1.388672 0.76131,0 1.388672,-0.626732 1.388672,-1.388672 v -2.228515 c 0.147337,-0.09698 0.303829,-0.179386 0.429687,-0.306641 0.484088,-0.484088 0.757813,-1.138758 0.757813,-1.818359 0,-0.683367 -0.273402,-1.33618 -0.755859,-1.820313 l -0.002,-0.002 c -0.125821,-0.127212 -0.282611,-0.208405 -0.429687,-0.304687 v -0.634766 -4.150391 -0.486328 c 0.02569,-0.0226 0.0555,-0.03816 0.08008,-0.0625 v -0.002 c 0.307044,-0.298896 0.484375,-0.708917 0.484375,-1.134766 0,-0.426779 -0.175325,-0.837284 -0.484375,-1.132812 -0.18332,-0.187313 -0.399969,-0.326419 -0.630859,-0.419922 L 24.841797,13.730469 c -0.01325,-0.0055 -0.06666,-0.01258 -0.103516,-0.02149 -0.02011,-0.0075 -0.04226,-0.0047 -0.0625,-0.01172 0.0172,0.0014 0.07177,0.0043 0.0957,0.0098 0.02784,0.0064 0.04614,0.01297 0.05859,0.01758 l -0.06641,-0.0293 h -0.09766 c -0.0012,-4.23e-4 -0.0027,4.2e-4 -0.0039,0 -6.11e-4,-2.11e-4 -0.0013,2.09e-4 -0.002,0 -0.31538,-0.108138 -0.63997,-0.186937 -0.972656,-0.181641 z m -0.0078,0.998047 h 0.0098 0.0078 c 0.259795,-0.0049 0.511118,0.04216 0.75,0.140625 l 0.0918,0.03711 h 0.0059 l 11.160156,4.830078 0.0059,0.002 c 0.117918,0.04747 0.226094,0.119387 0.300782,0.197266 l 0.0078,0.0078 0.0098,0.0098 c 0.113739,0.107487 0.175781,0.248474 0.175781,0.412109 0,0.154675 -0.06065,0.302357 -0.179687,0.417969 l -0.0039,0.0039 -0.002,0.002 c -0.03999,0.03998 -0.08996,0.0793 -0.146484,0.115234 l -0.232422,0.146484 v 1 4.150391 1.201172 l 0.287109,0.134765 c 0.159654,0.0754 0.307093,0.178459 0.433594,0.306641 v 0.002 h 0.002 c 0.298681,0.299108 0.464844,0.698387 0.464844,1.117188 0,0.411159 -0.166624,0.813109 -0.464844,1.111328 l -0.002,0.002 v 0.002 c -0.127269,0.128961 -0.275678,0.232245 -0.435547,0.308594 l -0.285156,0.136719 v 0.419921 2.373047 c 0,0.220415 -0.168744,0.388672 -0.388672,0.388672 -0.220796,0 -0.390625,-0.167876 -0.390625,-0.388672 v -2.373047 -0.421875 l -0.283203,-0.134765 c -0.160206,-0.07631 -0.307266,-0.18016 -0.433594,-0.308594 l -0.002,-0.002 -0.002,-0.002 c -0.29845,-0.298023 -0.464844,-0.699827 -0.464844,-1.111328 0,-0.419139 0.165932,-0.818277 0.464844,-1.117188 h 0.002 l 0.002,-0.002 c 0.125561,-0.127654 0.271647,-0.231275 0.431641,-0.306641 l 0.285156,-0.134765 v -1.201172 -4.847656 l -3.074219,1.332031 v 1.142578 3.558594 0.0078 c -0.01566,0.758239 -0.274463,1.491514 -0.738281,2.095703 l -0.0059,0.0059 -0.0039,0.0059 c -0.448068,0.619837 -1.082883,1.080528 -1.808593,1.308594 -0.887356,0.256582 -1.790936,0.433606 -2.712891,0.53125 l -0.002,0.002 h -0.002 c -1.012539,0.116283 -2.032133,0.173828 -3.050781,0.173828 h -0.002 c -0.96248,0.006 -1.933841,-0.0513 -2.90039,-0.162109 h -0.002 l -0.0039,-0.002 C 19.732501,31.051718 18.919214,30.881704 18.125,30.642578 17.390545,30.407906 16.749302,29.944184 16.289062,29.316406 15.835357,28.689978 15.589844,27.941272 15.589844,27.169922 V 23.611328 22.46875 l -3.917969,-1.697266 -0.0078,-0.002 c -0.116935,-0.0467 -0.229274,-0.119898 -0.306641,-0.197265 l -0.002,-0.002 -0.002,-0.0039 c -0.119041,-0.115612 -0.181641,-0.263294 -0.181641,-0.417969 0,-0.163635 0.06204,-0.304622 0.175781,-0.412109 l 0.0098,-0.0098 0.0078,-0.0078 c 0.07469,-0.07788 0.182877,-0.149807 0.300782,-0.197266 l 0.0059,-0.002 11.160156,-4.830078 h 0.0078 l 0.08984,-0.03711 c 0.238914,-0.09848 0.490293,-0.145517 0.75,-0.140625 z m 0.0098,0.785156 c -0.165223,-0.0049 -0.323399,0.02091 -0.462891,0.07617 l -0.0078,0.002 -11.035156,4.773437 11.046875,4.779297 0.02148,0.0059 c 0.123723,0.04123 0.27245,0.06746 0.435547,0.0625 0.16414,0.0053 0.314135,-0.02163 0.4375,-0.0625 l 0.02148,-0.0059 11.048828,-4.779297 -1.060546,-0.458984 -9.976563,-4.314453 -0.0078,-0.002 c -0.138521,-0.05455 -0.295811,-0.08105 -0.460938,-0.07617 z m -0.0293,0.992187 0.0293,0.002 0.0293,-0.002 c 0.01236,-7.28e-4 0.03387,0.0031 0.0625,0.01367 0.0017,6.34e-4 0.0021,-6.98e-4 0.0039,0 l 8.890625,3.845703 -8.865234,3.835938 c -0.04666,0.01546 -0.07852,0.01831 -0.08984,0.01758 L 23.689453,24 l -0.0332,0.002 c -0.01046,6.72e-4 -0.04154,-0.0021 -0.08008,-0.01367 l -8.875,-3.839844 8.892578,-3.845703 c 0.0017,-6.55e-4 0.0023,5.98e-4 0.0039,0 0.02698,-0.01 0.0502,-0.0144 0.0625,-0.01367 z m -7.291015,6.515625 v 0.806641 3.558594 c 0,0.605692 0.194376,1.192883 0.542968,1.683594 l 0.002,0.002 0.0039,0.0039 c 0.358996,0.489048 0.860248,0.845273 1.427734,1.037109 l 0.0098,0.0039 0.0078,0.002 c 0.743895,0.221314 1.509247,0.382201 2.285156,0.46289 0.935823,0.108499 1.873838,0.161954 2.81836,0.15625 0.98939,-1.43e-4 1.981145,-0.05483 2.966797,-0.169922 0.870497,-0.09222 1.727258,-0.262147 2.568359,-0.5 l 0.0098,-0.0039 0.0098,-0.0039 c 0.561527,-0.184942 1.04904,-0.544825 1.390625,-1.03125 0.370737,-0.470299 0.581513,-1.047275 0.595703,-1.642578 v -0.0059 -3.552734 -0.806641 l -0.699218,0.302735 -5.841797,2.529297 -0.01758,0.0078 c -0.241596,0.09384 -0.493759,0.14114 -0.751953,0.136719 h -0.0078 -0.0098 c -0.256877,0.0044 -0.507556,-0.04382 -0.748046,-0.136719 z m 1,1.523438 5.148437,2.226562 -0.15625,-0.105468 c 0.06739,0.06787 0.158244,0.108695 0.179688,0.117187 l 0.01563,0.0078 c 0.358149,0.140352 0.74191,0.210419 1.130859,0.205078 0.3896,0.0056 0.77406,-0.0645 1.132812,-0.205078 l 0.02539,-0.0098 0.02344,-0.01367 5.138671,-2.222656 v 2.818359 c -0.0091,0.383601 -0.144489,0.758197 -0.382812,1.056641 l -0.0098,0.01367 -0.0098,0.01367 c -0.214821,0.310822 -0.525768,0.540321 -0.892578,0.662109 -0.787989,0.221963 -1.584353,0.379774 -2.390625,0.464844 l -0.002,0.002 h -0.0039 c -0.946472,0.110517 -1.899608,0.162109 -2.853515,0.162109 h -0.002 c -0.904238,0.0055 -1.803572,-0.04588 -2.703125,-0.15039 h -0.002 -0.0039 c -0.702582,-0.07306 -1.40302,-0.222242 -2.089844,-0.425782 -0.37638,-0.128386 -0.701688,-0.358897 -0.933593,-0.671875 v -0.002 c -0.231839,-0.327022 -0.359375,-0.710995 -0.359375,-1.101562 z m 5.171875,2.238281 c 0.02144,0.0085 -0.0054,-2.19e-4 -0.03125,-0.01367 l 0.02344,0.01172 z m 2.472656,-0.117187 -0.154297,0.105468 c -0.01647,0.0075 -0.03834,0.01762 -0.02344,0.01172 0.02088,-0.0083 0.110327,-0.04978 0.177735,-0.117187 z m 10.238281,0.908203 c -0.362192,0 -0.719592,0.13863 -0.982422,0.402344 l -0.0039,0.002 -0.002,0.0039 c -0.252092,0.260573 -0.402344,0.6099 -0.402344,0.980469 0,0.368214 0.151286,0.716206 0.402344,0.976562 l 0.002,0.0039 0.0039,0.002 c 0.258421,0.258426 0.611609,0.408203 0.982422,0.408203 0.370574,0 0.723608,-0.149389 0.982422,-0.408203 l 0.002,-0.002 0.0039,-0.0039 c 0.251046,-0.260351 0.400391,-0.608339 0.400391,-0.976562 0,-0.370576 -0.148309,-0.7199 -0.400391,-0.980469 l -0.0039,-0.0039 -0.002,-0.002 C 35.971151,27.49566 35.613883,27.357422 35.251953,27.357422 Z m 0,1 c 0.110959,0 0.202947,0.03764 0.271484,0.105469 0.07854,0.08214 0.117188,0.180777 0.117188,0.283203 0,0.09256 -0.03955,0.194409 -0.117188,0.277343 -0.07277,0.07113 -0.169712,0.113282 -0.271484,0.113282 -0.10264,0 -0.19837,-0.04179 -0.271484,-0.113282 -0.07765,-0.08293 -0.119141,-0.184766 -0.119141,-0.277343 0,-0.102688 0.04217,-0.200948 0.121094,-0.283203 0.06861,-0.06664 0.159104,-0.105469 0.269531,-0.105469 z"
     id="path9" />
</svg>
