<?xml version="1.0" encoding="UTF-8" standalone="no"?>
<!-- Generator: Gravit.io -->

<svg
   style="isolation:isolate"
   viewBox="0 0 48 48"
   width="48pt"
   height="48pt"
   version="1.1"
   id="svg9"
   sodipodi:docname="applications-science.svg"
   inkscape:version="1.1.2 (0a00cf5339, 2022-02-04)"
   xmlns:inkscape="http://www.inkscape.org/namespaces/inkscape"
   xmlns:sodipodi="http://sodipodi.sourceforge.net/DTD/sodipodi-0.dtd"
   xmlns:xlink="http://www.w3.org/1999/xlink"
   xmlns="http://www.w3.org/2000/svg"
   xmlns:svg="http://www.w3.org/2000/svg">
  <defs
     id="defs13">
    <linearGradient
       inkscape:collect="always"
       xlink:href="#_lgradient_2"
       id="linearGradient15"
       x1="-9.6850061"
       y1="45.161198"
       x2="11.98815"
       y2="21.735205"
       gradientUnits="userSpaceOnUse"
       gradientTransform="matrix(1.1147442,0,0,1.1150348,-0.01240999,-3.3277564)" />
    <linearGradient
       id="_lgradient_32"
       x1="0.51808703"
       y1="0.033331186"
       x2="0.50732738"
       y2="0.96818912"
       gradientTransform="matrix(-47,0,0,-44,47.5,46)"
       gradientUnits="userSpaceOnUse">
      <stop
         offset="0%"
         stop-opacity="1"
         style="stop-color:rgb(244,97,51)"
         id="stop4-3" />
      <stop
         offset="98.75%"
         stop-opacity="1"
         style="stop-color:rgb(240,80,129)"
         id="stop6" />
    </linearGradient>
    <linearGradient
       inkscape:collect="always"
       xlink:href="#_lgradient_2"
       id="linearGradient872"
       x1="-12.025727"
       y1="6.1170783"
       x2="-0.085100174"
       y2="6.1170783"
       gradientUnits="userSpaceOnUse"
       gradientTransform="matrix(3.8358211,0,0,3.8371386,-0.00549785,-0.0026806)" />
    <linearGradient
       inkscape:collect="always"
       xlink:href="#_lgradient_2"
       id="linearGradient1022"
       x1="11.54544"
       y1="21.657642"
       x2="36.662151"
       y2="21.657642"
       gradientUnits="userSpaceOnUse"
       gradientTransform="matrix(0.94489985,0,0,0.94489985,1.3281229,1.1933394)" />
  </defs>
  <sodipodi:namedview
     id="namedview11"
     pagecolor="#ffffff"
     bordercolor="#666666"
     borderopacity="1.0"
     inkscape:pageshadow="2"
     inkscape:pageopacity="0.0"
     inkscape:pagecheckerboard="0"
     inkscape:document-units="pt"
     showgrid="false"
     inkscape:zoom="7.2257474"
     inkscape:cx="31.899814"
     inkscape:cy="31.969011"
     inkscape:window-width="1600"
     inkscape:window-height="836"
     inkscape:window-x="0"
     inkscape:window-y="0"
     inkscape:window-maximized="1"
     inkscape:current-layer="svg9" />
  <linearGradient
     id="_lgradient_2"
     x1="0.5421348314606742"
     y1="0.057582930685848105"
     x2="0.42214949183450867"
     y2="0.9601645064179161"
     gradientTransform="matrix(25.117197,0,0,26.791865,11.545195,8.2621052)"
     gradientUnits="userSpaceOnUse">
    <stop
       offset="0%"
       stop-opacity="1"
       style="stop-color:rgb(26,108,255)"
       id="stop2" />
    <stop
       offset="100%"
       stop-opacity="1"
       style="stop-color:rgb(197,34,255)"
       id="stop4" />
  </linearGradient>
  <rect
     x="-46.783241"
     y="1.2253767"
     width="45.802109"
     height="45.80014"
     rx="6.1837621"
     shape-rendering="crispEdges"
     id="rect5-6-7-3"
     ry="6.8055277"
     transform="matrix(0.00524063,-0.99998627,0.99998801,0.00489691,0,0)"
     style="isolation:isolate;fill:#b200ff;fill-opacity:0.13607298;stroke:url(#linearGradient872);stroke-width:2.0301;stroke-miterlimit:4;stroke-dasharray:none;stroke-opacity:1" />
  <rect
     x="-15.686841"
     y="17.260124"
     width="33.338203"
     height="33.345856"
     rx="6.7920032"
     shape-rendering="crispEdges"
     id="rect5-6-6-6-6"
     style="isolation:isolate;fill:#b200ff;fill-opacity:0.13607298;stroke:url(#linearGradient15);stroke-width:1.67233;stroke-miterlimit:4;stroke-dasharray:none;stroke-opacity:1"
     ry="7.4743071"
     transform="matrix(0.72446484,-0.68931175,0.68622417,0.72739012,0,0)" />
  <path
     style="color:#000000;fill:url(#linearGradient1022);fill-rule:evenodd;-inkscape-stroke:none"
     d="m 19.583984,8.5273438 c -0.815566,-0.00736 -1.60623,0.2632969 -2.242187,0.7753906 l -0.002,0.00195 c -0.671627,0.5431518 -1.070647,1.3560795 -1.085938,2.2187505 v 0.0078 0.0098 c 0.0153,0.862229 0.41431,1.675596 1.085938,2.21875 h 0.002 c 0.588937,0.474231 1.324806,0.687684 2.076172,0.71875 v 3.923828 l -6.875,10.43164 -0.0039,0.0039 c -0.235124,0.379457 -0.420975,0.781556 -0.564454,1.205078 l -0.002,0.002 c -0.137866,0.412981 -0.200472,0.841547 -0.207031,1.263672 -0.0075,0.504458 0.104018,0.999334 0.316406,1.453125 v 0.002 c 0.216584,0.455835 0.542569,0.854201 0.941407,1.164062 l 0.002,0.002 c 0.396032,0.303098 0.849784,0.526449 1.332031,0.65625 0.495455,0.13808 1.006795,0.207594 1.525391,0.201172 h 16.441406 c 0.518599,0.0064 1.029938,-0.0631 1.52539,-0.201172 0.482247,-0.129801 0.935999,-0.353151 1.332032,-0.65625 h 0.002 v -0.002 C 35.58243,33.617873 35.908416,33.219507 36.125,32.763672 v -0.002 c 0.212373,-0.453782 0.323908,-0.948661 0.316406,-1.453125 -0.0065,-0.422186 -0.06918,-0.850721 -0.207031,-1.263672 v -0.002 c -0.143479,-0.423522 -0.32933,-0.825621 -0.564453,-1.205078 l -0.0039,-0.0039 -6.876954,-10.43164 v -3.923828 c 0.751417,-0.03104 1.489152,-0.24449 2.078125,-0.71875 0.671625,-0.543153 1.070644,-1.356514 1.085938,-2.21875 v -0.0098 -0.0078 c -0.0153,-0.862664 -0.41431,-1.6755973 -1.085938,-2.2187505 v -0.00195 C 30.23123,8.7906411 29.438614,8.5199797 28.623047,8.5273438 Z m -0.0078,0.9453125 h 0.002 9.050781 0.002 c 0.602026,-0.00544 1.177741,0.1921041 1.642578,0.5664067 0.451917,0.36547 0.718944,0.915639 0.732422,1.492187 -0.01293,0.575977 -0.280886,1.126328 -0.732422,1.492188 -0.464837,0.374301 -1.040552,0.571842 -1.642578,0.566406 h -0.002 -0.785156 v 0.472656 0.316406 4.306641 l 7.021484,10.65039 c 0.195351,0.31527 0.350668,0.648305 0.472657,1.007813 0.103211,0.309178 0.154947,0.64124 0.160156,0.978516 0.0053,0.356331 -0.07397,0.708849 -0.228516,1.039062 -0.150377,0.315448 -0.381863,0.599551 -0.666015,0.820313 -0.297455,0.226925 -0.639214,0.396953 -1.001954,0.49414 h -0.002 -0.0039 c -0.413608,0.115268 -0.836903,0.171797 -1.265625,0.166016 h -0.002 -16.449219 -0.002 c -0.428723,0.0058 -0.85202,-0.05075 -1.265625,-0.166016 h -0.002 -0.0039 c -0.36274,-0.09719 -0.704499,-0.267215 -1.001953,-0.49414 -0.284154,-0.220762 -0.51564,-0.504866 -0.666016,-0.820313 -0.154546,-0.330204 -0.231861,-0.682726 -0.226562,-1.039062 0.0052,-0.336681 0.0554,-0.667929 0.158203,-0.976563 v -0.002 c 0.12203,-0.359816 0.27716,-0.692308 0.472656,-1.007813 l 7.021484,-10.65039 v -4.306641 -0.789062 h -0.785156 -0.002 c -0.601164,0.0054 -1.176138,-0.191191 -1.640625,-0.564453 l -0.002,-0.002 c -0.451114,-0.365859 -0.717542,-0.916501 -0.730469,-1.492188 0.01347,-0.576541 0.280503,-1.126716 0.732422,-1.492187 0.464577,-0.3735292 1.039241,-0.5718371 1.640625,-0.5664067 z m -0.0039,0.9531247 c -0.384172,-0.0093 -0.748939,0.122205 -1.039063,0.357422 -0.226325,0.1793 -0.35545,0.440219 -0.378906,0.707031 l -0.0039,0.04102 0.0039,0.04297 c 0.02347,0.265943 0.152828,0.525292 0.378906,0.705078 0.289962,0.234339 0.654899,0.366679 1.039063,0.357422 h 0.002 1.998047 c 0.268574,0 0.476562,0.208461 0.476562,0.476562 0,0.230651 -0.157704,0.415867 -0.367187,0.464844 l -0.365235,0.08594 v 0.714843 4.554688 l -2.988281,4.546875 0.857422,0.01563 c 0.03495,6.35e-4 0.06637,0.002 0.0957,0.002 l -0.0078,-0.002 c 0.741761,0.01377 1.488184,-0.09406 2.201172,-0.31836 0.645886,-0.203652 1.234531,-0.540617 1.742188,-0.978515 l -0.05664,0.04102 c 0.757418,-0.478745 1.575784,-0.860258 2.429688,-1.132812 0.542704,-0.173867 1.103992,-0.28659 1.673828,-0.337891 l 0.787109,-0.07227 -0.433594,-0.658204 -0.726562,-1.105468 v -4.554688 -0.714843 l -0.365234,-0.08594 c -0.20948,-0.04898 -0.367188,-0.234192 -0.367188,-0.464844 0,-0.268101 0.207988,-0.476562 0.476563,-0.476562 h 1.998046 0.002 c 0.384172,0.0093 0.749108,-0.123099 1.039062,-0.357422 0.226078,-0.179787 0.35544,-0.439129 0.378906,-0.705078 l 0.0039,-0.04297 -0.0039,-0.04102 c -0.02346,-0.266806 -0.152584,-0.527731 -0.378906,-0.707031 -0.29013,-0.235231 -0.654898,-0.366679 -1.039062,-0.357422 h -0.002 -9.058593 z m -0.02148,0.945313 h 0.0059 0.01758 9.058593 0.01953 0.0059 c 0.145519,-0.0035 0.310234,0.05387 0.423828,0.146484 l 0.002,0.0039 0.0039,0.002 c 0.0021,0.0016 0.002,0.0059 0.0039,0.0078 -0.0021,0.0024 -0.0015,0.0079 -0.0039,0.0098 l -0.0039,0.002 -0.002,0.002 c -0.113768,0.09245 -0.278316,0.149991 -0.423828,0.146484 h -0.0059 -0.01953 -1.998046 c -0.779955,0 -1.421875,0.642516 -1.421875,1.421875 0,0.513106 0.319642,0.90426 0.732421,1.154297 v 0.111328 4.837891 l 0.5,0.759765 c -0.383873,0.06811 -0.773405,0.111571 -1.144531,0.230469 -0.930008,0.297005 -1.821475,0.712907 -2.646484,1.234375 l -0.0293,0.01953 -0.02539,0.02344 c -0.41607,0.358897 -0.892312,0.629689 -1.410156,0.792969 -0.337176,0.106074 -0.690104,0.10512 -1.039062,0.15039 l 2.111328,-3.210937 v -4.837891 -0.111328 c 0.412778,-0.250037 0.732422,-0.641191 0.732422,-1.154297 0,-0.77936 -0.641921,-1.421875 -1.421875,-1.421875 h -1.998047 -0.01758 -0.0059 c -0.14552,0.0035 -0.31202,-0.05404 -0.425781,-0.146484 l -0.002,-0.002 -0.0039,-0.002 c -0.0024,-0.0019 -0.0018,-0.0074 -0.0039,-0.0098 0.0019,-0.0019 0.0018,-0.0062 0.0039,-0.0078 l 0.0039,-0.002 0.0039,-0.0039 c 0.113601,-0.09262 0.278316,-0.149991 0.423828,-0.146484 z m 8.351563,10.320312 c -0.686219,0.0069 -1.370974,0.114736 -2.025391,0.326172 -0.739145,0.232889 -1.437396,0.553571 -2.095703,0.958984 l -0.0293,0.01758 -0.02539,0.02148 c -0.579584,0.479946 -1.247942,0.841572 -1.96875,1.070312 -0.806801,0.250384 -1.6485,0.376774 -2.488281,0.365235 h -0.0039 -0.0039 c -0.40657,0 -0.813867,-0.02372 -1.222657,-0.06641 l -0.285156,-0.0293 -3.453125,5.253906 h -0.01367 l -0.138671,0.228516 c -0.0022,0.0037 -0.0036,0.008 -0.0059,0.01172 l -0.05469,0.08398 v 0.03516 c -0.119434,0.214297 -0.231615,0.434555 -0.310547,0.671875 l -0.002,0.002 v 0.002 c -0.07048,0.21868 -0.111328,0.451052 -0.111328,0.689453 0,0.195948 0.03477,0.409606 0.138671,0.619141 0.08785,0.183376 0.216275,0.343864 0.376954,0.464844 0.201823,0.154092 0.431983,0.270307 0.679687,0.33789 6.25e-4,1.81e-4 0.0013,-1.8e-4 0.002,0 0.329417,0.0948 0.668577,0.139616 1.011719,0.132813 h 0.0039 16.453125 0.0039 c 0.343727,0.0068 0.683643,-0.03764 1.013672,-0.132813 0.247803,-0.06736 0.477741,-0.183977 0.679688,-0.33789 0.160699,-0.120985 0.289107,-0.281461 0.376953,-0.464844 0.103899,-0.209536 0.140625,-0.423192 0.140625,-0.619141 0,-0.238418 -0.04282,-0.470802 -0.113281,-0.689453 v -0.002 -0.002 c -0.07895,-0.237357 -0.19304,-0.457545 -0.3125,-0.671875 v -0.03516 l -0.05469,-0.08398 c -0.0022,-0.0037 -0.0036,-0.008 -0.0059,-0.01172 l -0.138672,-0.228516 h -0.01367 l -5.166016,-7.861328 -0.222656,-0.02344 c -0.202312,-0.02145 -0.405618,-0.0332 -0.609375,-0.0332 h -0.0039 z m 0.0059,0.945313 c 0.0981,0 0.196444,0.0095 0.294922,0.01563 L 33.25,30.330078 c 0.114356,0.190652 0.213961,0.398399 0.283203,0.605469 0.04366,0.135481 0.06641,0.269926 0.06641,0.398437 0,0.08127 -0.0175,0.15805 -0.03906,0.201172 l -0.002,0.0039 -0.0039,0.0059 c -0.02455,0.05212 -0.05755,0.09062 -0.0957,0.11914 l -0.002,0.002 -0.002,0.002 c -0.111127,0.08485 -0.231283,0.143553 -0.359375,0.177734 l -0.0039,0.002 h -0.0059 c -0.239565,0.06909 -0.480951,0.10066 -0.732421,0.0957 h -0.0059 -0.01758 -16.453125 -0.01758 -0.0059 c -0.251404,0.005 -0.492831,-0.02661 -0.732422,-0.0957 h -0.0039 l -0.0059,-0.002 c -0.128107,-0.03419 -0.248254,-0.09289 -0.359375,-0.177734 l -0.002,-0.002 -0.002,-0.002 c -0.03818,-0.02853 -0.07115,-0.06702 -0.0957,-0.11914 l -0.002,-0.0059 -0.002,-0.0039 c -0.02156,-0.04312 -0.04102,-0.119897 -0.04102,-0.201172 0,-0.127302 0.02356,-0.260379 0.06641,-0.394531 0.06887,-0.207058 0.167118,-0.414605 0.28125,-0.605469 l 0.002,-0.0039 3.279297,-4.988281 c 0.341516,0.02806 0.682568,0.05469 1.025391,0.05469 0.941504,0.01231 1.880294,-0.128737 2.779297,-0.408203 h 0.002 0.002 c 0.835453,-0.265122 1.611414,-0.688176 2.285156,-1.246094 l -0.05469,0.03906 c 0.593446,-0.365469 1.222588,-0.653551 1.888671,-0.863281 h 0.002 c 0.559289,-0.180701 1.150772,-0.274947 1.742187,-0.28125 z m -0.957031,1.396484 c -1.303655,0 -2.371094,1.067842 -2.371094,2.371094 0,1.303654 1.067439,2.371094 2.371094,2.371094 1.303654,0 2.371094,-1.067439 2.371094,-2.371094 0,-1.303252 -1.06744,-2.371094 -2.371094,-2.371094 z m 0,0.945313 c 0.792334,0 1.427734,0.634109 1.427734,1.425781 0,0.792335 -0.6354,1.425781 -1.427734,1.425781 -0.792335,0 -1.425781,-0.633446 -1.425781,-1.425781 0,-0.791672 0.633446,-1.425781 1.425781,-1.425781 z m 0,0.320312 c -0.298756,0 -0.572719,0.122438 -0.773438,0.3125 l -0.0098,0.0098 -0.0098,0.0098 c -0.1898,0.2005 -0.3125,0.473826 -0.3125,0.773438 0,0.299736 0.12269,0.572933 0.3125,0.773437 l 0.0098,0.0098 0.0098,0.0098 c 0.200709,0.19004 0.474669,0.3125 0.773438,0.3125 0.298621,0 0.574186,-0.123085 0.77539,-0.314454 l 0.0078,-0.0078 0.0098,-0.0078 c 0.190853,-0.200668 0.3125,-0.475647 0.3125,-0.77539 0,-0.299604 -0.121634,-0.574716 -0.3125,-0.775391 l -0.0098,-0.0078 -0.0078,-0.0078 c -0.201195,-0.19135 -0.476756,-0.314453 -0.77539,-0.314453 z m -6.011719,0.632813 c -1.653026,0 -3.003906,1.350879 -3.003906,3.003906 0,1.653025 1.35088,3.003906 3.003906,3.003906 1.653025,0 3.003906,-1.351001 3.003906,-3.003906 0,-1.652907 -1.350881,-3.003906 -3.003906,-3.003906 z m 6.011719,0.3125 c 0.03802,0 0.07619,0.01797 0.111328,0.04687 0.0315,0.03668 0.05078,0.07481 0.05078,0.113281 0,0.03933 -0.01928,0.07665 -0.05078,0.113281 -0.03513,0.0289 -0.0733,0.04687 -0.111328,0.04687 -0.03888,0 -0.07526,-0.01905 -0.111328,-0.04883 -0.02934,-0.03577 -0.04883,-0.07332 -0.04883,-0.111328 0,-0.03717 0.01949,-0.0755 0.04883,-0.111328 0.03606,-0.02977 0.07244,-0.04883 0.111328,-0.04883 z m -6.011719,0.632812 c 1.141625,0 2.058594,0.916846 2.058594,2.058594 0,1.141744 -0.916969,2.058594 -2.058594,2.058594 -1.141627,0 -2.058594,-0.91697 -2.058594,-2.058594 0,-1.141628 0.916967,-2.058594 2.058594,-2.058594 z m 0,0.320313 c -0.458026,0 -0.900165,0.182889 -1.224609,0.513671 -0.330785,0.324446 -0.513672,0.766585 -0.513672,1.22461 0,0.458024 0.182888,0.900164 0.513672,1.224609 0.324444,0.330783 0.766583,0.513672 1.224609,0.513672 0.458026,0 0.900165,-0.18289 1.224609,-0.513672 0.330784,-0.324445 0.513672,-0.766585 0.513672,-1.224609 0,-0.458025 -0.182886,-0.900164 -0.513672,-1.22461 -0.324444,-0.330781 -0.766583,-0.513671 -1.224609,-0.513671 z m 0,0.945312 c 0.21078,0 0.411256,0.08312 0.554688,0.230469 l 0.0039,0.0039 0.0039,0.0059 c 0.14735,0.143429 0.230469,0.341953 0.230469,0.552735 0,0.210779 -0.08312,0.411257 -0.230469,0.554687 l -0.0039,0.0039 -0.0039,0.0039 c -0.143432,0.147351 -0.343908,0.230469 -0.554688,0.230469 -0.210781,0 -0.409305,-0.08312 -0.552734,-0.230469 l -0.0059,-0.0039 -0.0039,-0.0039 c -0.147351,-0.14343 -0.230469,-0.343908 -0.230469,-0.554687 0,-0.210782 0.08312,-0.409306 0.230469,-0.552735 l 0.0039,-0.0059 0.0059,-0.0039 c 0.143429,-0.14735 0.341953,-0.230469 0.552734,-0.230469 z m 4.113281,0.320313 c -0.60515,0 -1.105468,0.500317 -1.105468,1.105468 0,0.605152 0.500797,1.105469 1.105468,1.105469 0.604671,0 1.105469,-0.500317 1.105469,-1.105469 0,-0.605151 -0.500318,-1.105468 -1.105469,-1.105468 z m 4.113282,0 c -0.605151,0 -1.105469,0.500316 -1.105469,1.105468 0,0.605152 0.500798,1.105469 1.105469,1.105469 0.604671,0 1.105468,-0.500317 1.105468,-1.105469 0,-0.605151 -0.500318,-1.105468 -1.105468,-1.105468 z m -4.113282,0.945312 c 0.09351,0 0.160157,0.06664 0.160157,0.160156 0,0.09351 -0.06616,0.160157 -0.160157,0.160157 -0.09399,0 -0.160156,-0.06665 -0.160156,-0.160157 0,-0.09351 0.06664,-0.160156 0.160156,-0.160156 z m 4.113282,0 c 0.09351,0 0.162109,0.06664 0.162109,0.160156 0,0.09351 -0.06811,0.160157 -0.162109,0.160157 -0.09399,0 -0.160157,-0.06665 -0.160157,-0.160157 0,-0.09351 0.06665,-0.160156 0.160157,-0.160156 z m -1.898438,0.320313 c -0.605151,0 -1.105469,0.500798 -1.105469,1.105468 0,0.604671 0.500318,1.105469 1.105469,1.105469 0.605152,0 1.105469,-0.500318 1.105469,-1.105469 0,-0.60515 -0.500317,-1.105468 -1.105469,-1.105468 z m -12.30664,0.583984 -0.002,0.01172 h -0.002 l -0.01367,0.0078 c 0.0063,-0.0071 0.01364,-0.01504 0.01758,-0.01953 z m 18.285156,0 c 0.0041,0.0047 0.01089,0.01389 0.01758,0.02148 L 33.25,30.324219 h -0.002 z m -5.978516,0.361328 c 0.09351,0 0.160156,0.06664 0.160156,0.160156 0,0.09351 -0.06664,0.160157 -0.160156,0.160157 -0.09351,0 -0.160156,-0.06616 -0.160156,-0.160157 0,-0.09399 0.06665,-0.160156 0.160156,-0.160156 z"
     id="path7" />
</svg>
