<?xml version="1.0" encoding="UTF-8" standalone="no"?>
<!-- Generator: Gravit.io -->

<svg
   style="isolation:isolate"
   viewBox="0 0 48 48"
   width="48pt"
   height="48pt"
   version="1.1"
   id="svg9"
   sodipodi:docname="avidemux.svg"
   inkscape:version="1.1.2 (0a00cf5339, 2022-02-04)"
   xmlns:inkscape="http://www.inkscape.org/namespaces/inkscape"
   xmlns:sodipodi="http://sodipodi.sourceforge.net/DTD/sodipodi-0.dtd"
   xmlns:xlink="http://www.w3.org/1999/xlink"
   xmlns="http://www.w3.org/2000/svg"
   xmlns:svg="http://www.w3.org/2000/svg">
  <defs
     id="defs13">
    <linearGradient
       inkscape:collect="always"
       xlink:href="#_lgradient_66"
       id="linearGradient872"
       x1="-12.025727"
       y1="6.1170783"
       x2="-0.085100174"
       y2="6.1170783"
       gradientUnits="userSpaceOnUse"
       gradientTransform="matrix(3.8358211,0,0,3.8371386,-0.00549785,-0.0026806)" />
    <linearGradient
       id="_lgradient_16"
       x1="0.06818182"
       y1="0.23295455"
       x2="0.93843019"
       y2="0.77938956"
       gradientTransform="matrix(26.660207,0,0,31.371179,10.669896,8.3144105)"
       gradientUnits="userSpaceOnUse">
      <stop
         offset="0%"
         stop-opacity="1"
         style="stop-color:rgb(48,207,208)"
         id="stop2-3" />
      <stop
         offset="98.26086956521739%"
         stop-opacity="1"
         style="stop-color:rgb(51,8,103)"
         id="stop4-6" />
    </linearGradient>
    <linearGradient
       inkscape:collect="always"
       xlink:href="#_lgradient_66"
       id="linearGradient15"
       x1="-9.6850061"
       y1="45.161198"
       x2="11.98815"
       y2="21.735205"
       gradientUnits="userSpaceOnUse"
       gradientTransform="matrix(1.1147442,0,0,1.1150348,-0.01240999,-3.3277564)" />
    <linearGradient
       inkscape:collect="always"
       xlink:href="#_lgradient_66"
       id="linearGradient1022"
       x1="11.995166"
       y1="24"
       x2="36.004833"
       y2="24"
       gradientUnits="userSpaceOnUse" />
  </defs>
  <sodipodi:namedview
     id="namedview11"
     pagecolor="#ffffff"
     bordercolor="#666666"
     borderopacity="1.0"
     inkscape:pageshadow="2"
     inkscape:pageopacity="0.0"
     inkscape:pagecheckerboard="0"
     inkscape:document-units="pt"
     showgrid="false"
     inkscape:zoom="5.109375"
     inkscape:cx="32"
     inkscape:cy="32"
     inkscape:window-width="1056"
     inkscape:window-height="545"
     inkscape:window-x="300"
     inkscape:window-y="90"
     inkscape:window-maximized="0"
     inkscape:current-layer="svg9" />
  <linearGradient
     id="_lgradient_66"
     x1="0.22078557924020603"
     y1="0.04723996636961164"
     x2="0.9022490870014594"
     y2="0.9061460265379022"
     gradientTransform="matrix(24.009667,0,0,22.202488,11.995167,12.898756)"
     gradientUnits="userSpaceOnUse">
    <stop
       offset="2.608695652173913%"
       stop-opacity="1"
       style="stop-color:rgb(237,184,212)"
       id="stop2" />
    <stop
       offset="98.69565217391305%"
       stop-opacity="1"
       style="stop-color:rgb(162,110,245)"
       id="stop4" />
  </linearGradient>
  <rect
     x="-46.783241"
     y="1.2253767"
     width="45.802109"
     height="45.80014"
     rx="6.1837621"
     shape-rendering="crispEdges"
     id="rect5-6-7-3"
     ry="6.8055277"
     transform="matrix(0.00524063,-0.99998627,0.99998801,0.00489691,0,0)"
     style="isolation:isolate;fill:#ca00ff;fill-opacity:0.13470298;stroke:url(#linearGradient872);stroke-width:2.0301;stroke-miterlimit:4;stroke-dasharray:none;stroke-opacity:1" />
  <rect
     x="-15.686841"
     y="17.260124"
     width="33.338203"
     height="33.345856"
     rx="6.7920032"
     shape-rendering="crispEdges"
     id="rect5-6-6-6-6"
     style="isolation:isolate;fill:#ca00ff;fill-opacity:0.13470298;stroke:url(#linearGradient15);stroke-width:1.67233;stroke-miterlimit:4;stroke-dasharray:none;stroke-opacity:1"
     ry="7.4743071"
     transform="matrix(0.72446484,-0.68931175,0.68622417,0.72739012,0,0)" />
  <path
     style="color:#000000;fill:url(#linearGradient1022);fill-rule:evenodd;-inkscape-stroke:none"
     d="m 15.353516,12.398438 c -2.123773,0 -3.857422,1.733649 -3.857422,3.857421 v 15.488282 c 0,2.123772 1.733649,3.857422 3.857422,3.857421 h 4.652343 c 0.387268,0 0.762704,-0.132809 1.054688,-0.390625 0.289968,-0.255107 0.466797,-0.620954 0.466797,-1.009765 0,-0.38862 -0.177457,-0.756373 -0.466797,-1.011719 -0.29187,-0.256939 -0.66742,-0.390625 -1.054688,-0.390625 H 16.4375 c -1.052595,0 -1.898437,-0.845843 -1.898437,-1.898437 V 19.853516 h 18.921874 v 11.046875 c 0,1.052594 -0.845842,1.898437 -1.898437,1.898437 h -3.568359 c -0.387268,0 -0.762818,0.133686 -1.054688,0.390625 -0.28934,0.255346 -0.466797,0.623099 -0.466797,1.011719 0,0.388811 0.176829,0.754658 0.466797,1.009765 0.291984,0.257816 0.66742,0.390626 1.054688,0.390625 h 4.652343 c 2.123773,0 3.857422,-1.733649 3.857422,-3.857421 V 16.255859 c 0,-2.123772 -1.733649,-3.857422 -3.857422,-3.857421 z m 0,1 h 17.292968 c 1.58249,0 2.857422,1.274932 2.857422,2.857421 v 15.488282 c 0,1.582489 -1.274932,2.857422 -2.857422,2.857421 h -4.652343 c -0.154886,0 -0.29823,-0.05559 -0.394532,-0.140625 v -0.002 c -0.08799,-0.07741 -0.126953,-0.168496 -0.126953,-0.257812 0,-0.08794 0.03947,-0.181849 0.126953,-0.259766 0.09642,-0.08488 0.239646,-0.142578 0.394532,-0.142578 H 31.5625 c 1.594147,0 2.898438,-1.304291 2.898437,-2.898437 V 18.853516 h -0.5 -20.421874 v 12.046875 c 0,1.594146 1.30429,2.898437 2.898437,2.898437 h 3.568359 c 0.154886,0 0.298116,0.0577 0.394532,0.142578 0.08748,0.07792 0.126953,0.171824 0.126953,0.259766 0,0.08932 -0.03896,0.180401 -0.126953,0.257812 v 0.002 c -0.0963,0.08503 -0.239646,0.140625 -0.394532,0.140625 h -4.652343 c -1.58249,0 -2.857422,-1.274932 -2.857422,-2.857421 V 16.255859 c 0,-1.582489 1.274932,-2.857422 2.857422,-2.857421 z m 1.083984,0.802734 c -1.594147,0 -2.898438,1.304291 -2.898437,2.898437 v 1.205078 h 0.5 3.755859 l 2.054687,-2.048828 -2.060547,-2.054687 z m 1.404297,0 2.048828,2.054687 -2.044922,2.048828 h 1.205078 4.423828 l 2.054688,-2.048828 -2.060547,-2.054687 z m 5.679687,0 2.048828,2.054687 -2.044921,2.048828 h 1.205078 3.90625 l 2.05664,-2.048828 -2.0625,-2.054687 z m 5.16211,0 2.050781,2.054687 -2.044922,2.048828 h 5.771484 v -0.5 -0.705078 c 0,-1.594146 -1.30429,-2.898437 -2.898437,-2.898437 z m -12.246094,1 h 0.9375 l 1.058594,1.054687 -1.052735,1.048828 h -2.841796 v -0.205078 c 0,-1.052594 0.845842,-1.898437 1.898437,-1.898437 z m 3.814453,0 h 2.802734 l 1.058594,1.054687 -1.052734,1.048828 h -2.804688 l 1.046875,-1.048828 z m 5.679688,0 h 2.287109 l 1.056641,1.054687 -1.050782,1.048828 h -2.289062 l 1.046875,-1.048828 z m 5.164062,0 H 31.5625 c 1.052595,0 1.898437,0.845843 1.898437,1.898437 v 0.205078 h -2.361328 l 1.046875,-1.048828 z m -13.435547,6.234375 c -0.638972,0 -1.167969,0.527181 -1.167969,1.166015 0,0.638972 0.528997,1.167969 1.167969,1.167969 h 7.992188 v 4.591797 h -6.824219 v -3.414062 c 0,-0.638836 -0.529134,-1.166016 -1.167969,-1.166016 -0.638972,0 -1.167968,0.527181 -1.167969,1.166016 v 4.248046 c 0,0.823196 0.678758,1.501954 1.501954,1.501954 h 8.492187 c 0.801198,0 1.441666,-0.652038 1.476563,-1.445313 l 0.730468,0.728516 c 0.26574,0.265739 0.547069,0.382812 0.921875,0.382812 h 1.058594 c 0.454414,0 0.833984,-0.378878 0.833984,-0.833984 v -6.927735 c 0,-0.455349 -0.378632,-0.833984 -0.833984,-0.833984 h -1.058594 c -0.375741,0 -0.656604,0.117542 -0.921875,0.382813 l -0.730468,0.728515 c -0.0349,-0.793274 -0.675365,-1.443359 -1.476563,-1.443359 z m 0,1 h 8.826172 c 0.281763,0 0.5,0.218236 0.5,0.5 v 2.335937 l 0.853516,-0.853515 1.560547,-1.560547 c -0.005,0.005 0.221921,-0.08984 0.214843,-0.08984 h 0.345703 l -2.634765,2.634766 -0.339844,0.339843 v 0.207032 0.441406 l 0.339844,0.337891 2.634765,2.634765 h -0.345703 c 0.0061,0 -0.220349,-0.09535 -0.214843,-0.08984 l -2.414063,-2.412109 v 2.333984 c 0,0.281765 -0.218236,0.501954 -0.5,0.501954 h -8.492187 c -0.281765,0 -0.501954,-0.220189 -0.501954,-0.501954 v -4.248046 c 0,-0.09746 0.06961,-0.166016 0.167969,-0.166016 0.09746,0 0.167969,0.06856 0.167969,0.166016 v 3.580078 c 0,0.45535 0.37668,0.833984 0.832031,0.833984 h 7.158203 c 0.455108,0 0.833985,-0.37957 0.833985,-0.833984 v -4.923828 c 0,-0.454173 -0.37981,-0.833985 -0.833985,-0.833985 h -8.158203 c -0.09836,0 -0.167969,-0.06961 -0.167969,-0.167969 0,-0.09746 0.06961,-0.166015 0.167969,-0.166015 z m 12.511719,0.332031 h 0.335937 v 6.595703 h -0.335937 z m -1,2.203125 v 2.189453 l -1.09375,-1.09375 z"
     id="path7" />
</svg>
