<?xml version="1.0" encoding="UTF-8" standalone="no"?>
<!-- Generator: Gravit.io -->

<svg
   style="isolation:isolate"
   viewBox="0 0 48 48"
   width="48pt"
   height="48pt"
   version="1.1"
   id="svg51"
   sodipodi:docname="barrier.svg"
   inkscape:version="1.1.2 (0a00cf5339, 2022-02-04)"
   xmlns:inkscape="http://www.inkscape.org/namespaces/inkscape"
   xmlns:sodipodi="http://sodipodi.sourceforge.net/DTD/sodipodi-0.dtd"
   xmlns:xlink="http://www.w3.org/1999/xlink"
   xmlns="http://www.w3.org/2000/svg"
   xmlns:svg="http://www.w3.org/2000/svg">
  <defs
     id="defs55">
    <linearGradient
       inkscape:collect="always"
       xlink:href="#_lgradient_10"
       id="linearGradient872"
       x1="-12.025727"
       y1="6.1170783"
       x2="-0.085100174"
       y2="6.1170783"
       gradientUnits="userSpaceOnUse"
       gradientTransform="matrix(3.8358211,0,0,3.8371386,-0.00549785,-0.0026806)" />
    <linearGradient
       id="_lgradient_10"
       x1="0"
       y1="0.5"
       x2="1"
       y2="0.5"
       gradientTransform="matrix(42.503,0,0,42.495,2.98,0.315)"
       gradientUnits="userSpaceOnUse">
      <stop
         offset="0%"
         stop-opacity="1"
         style="stop-color:rgb(84,51,255)"
         id="stop2-3" />
      <stop
         offset="51.73913043478261%"
         stop-opacity="1"
         style="stop-color:rgb(32,189,255)"
         id="stop4-6" />
      <stop
         offset="98.26086956521739%"
         stop-opacity="1"
         style="stop-color:rgb(165,254,203)"
         id="stop6" />
    </linearGradient>
    <linearGradient
       inkscape:collect="always"
       xlink:href="#_lgradient_10"
       id="linearGradient15"
       x1="-9.6850061"
       y1="45.161198"
       x2="11.98815"
       y2="21.735205"
       gradientUnits="userSpaceOnUse"
       gradientTransform="matrix(1.1147442,0,0,1.1150348,-0.01240999,-3.3277564)" />
    <linearGradient
       inkscape:collect="always"
       xlink:href="#_lgradient_25"
       id="linearGradient903"
       x1="27.150816"
       y1="24.106136"
       x2="37.094456"
       y2="24.106136"
       gradientUnits="userSpaceOnUse" />
    <linearGradient
       inkscape:collect="always"
       xlink:href="#_lgradient_24"
       id="linearGradient929"
       x1="24.739202"
       y1="22.023722"
       x2="36.220947"
       y2="22.023722"
       gradientUnits="userSpaceOnUse" />
    <linearGradient
       inkscape:collect="always"
       xlink:href="#_lgradient_22"
       id="linearGradient955"
       x1="10.509301"
       y1="25.196711"
       x2="23.709391"
       y2="25.196711"
       gradientUnits="userSpaceOnUse" />
    <linearGradient
       inkscape:collect="always"
       xlink:href="#_lgradient_23"
       id="linearGradient981"
       x1="11.5055"
       y1="23.279108"
       x2="24.20735"
       y2="23.279108"
       gradientUnits="userSpaceOnUse" />
    <linearGradient
       inkscape:collect="always"
       xlink:href="#_lgradient_26"
       id="linearGradient1007"
       x1="26.078812"
       y1="34.939159"
       x2="33.308022"
       y2="34.939159"
       gradientUnits="userSpaceOnUse" />
    <linearGradient
       inkscape:collect="always"
       xlink:href="#_lgradient_27"
       id="linearGradient1033"
       x1="18.550119"
       y1="16.031521"
       x2="24.333426"
       y2="16.031521"
       gradientUnits="userSpaceOnUse" />
    <linearGradient
       inkscape:collect="always"
       xlink:href="#_lgradient_21"
       id="linearGradient1077"
       x1="10.102833"
       y1="15.543813"
       x2="15.152091"
       y2="15.543813"
       gradientUnits="userSpaceOnUse" />
  </defs>
  <sodipodi:namedview
     id="namedview53"
     pagecolor="#ffffff"
     bordercolor="#666666"
     borderopacity="1.0"
     inkscape:pageshadow="2"
     inkscape:pageopacity="0.0"
     inkscape:pagecheckerboard="0"
     inkscape:document-units="pt"
     showgrid="false"
     inkscape:zoom="10.21875"
     inkscape:cx="31.95107"
     inkscape:cy="31.853211"
     inkscape:window-width="1600"
     inkscape:window-height="836"
     inkscape:window-x="0"
     inkscape:window-y="0"
     inkscape:window-maximized="1"
     inkscape:current-layer="svg51" />
  <linearGradient
     id="_lgradient_21"
     x1="0"
     y1="0.5"
     x2="1"
     y2="0.5"
     gradientTransform="matrix(4.0473226,0,0,-3.6662755,10.603704,17.377215)"
     gradientUnits="userSpaceOnUse">
    <stop
       offset="0%"
       stop-opacity="1"
       style="stop-color:rgb(132,250,176)"
       id="stop2" />
    <stop
       offset="98.26086956521739%"
       stop-opacity="1"
       style="stop-color:rgb(143,211,244)"
       id="stop4" />
  </linearGradient>
  <g
     id="g861"
     transform="translate(3.4343704e-7,-5.4441829e-5)">
    <rect
       x="-46.783241"
       y="1.2253767"
       width="45.801998"
       height="45.80014"
       rx="6.1837621"
       shape-rendering="crispEdges"
       id="rect5-6-7-3"
       ry="6.8055277"
       transform="matrix(0.00524063,-0.99998627,0.99998801,0.00489691,0,0)"
       style="isolation:isolate;fill:#00d3ff;fill-opacity:0.136073;stroke:url(#linearGradient872);stroke-width:2.0301;stroke-miterlimit:4;stroke-dasharray:none;stroke-opacity:1" />
    <rect
       x="-15.686841"
       y="17.260124"
       width="33.338203"
       height="33.345856"
       rx="6.7920032"
       shape-rendering="crispEdges"
       id="rect5-6-6-6-6"
       style="isolation:isolate;fill:#00d2ff;fill-opacity:0.133333;stroke:url(#linearGradient15);stroke-width:1.67233;stroke-miterlimit:4;stroke-dasharray:none;stroke-opacity:1"
       ry="7.4743071"
       transform="matrix(0.72446484,-0.68931175,0.68622417,0.72739012,0,0)" />
  </g>
  <path
     style="color:#000000;fill:url(#linearGradient1077);fill-rule:evenodd;-inkscape-stroke:none"
     d="m 12.753906,13.253906 c -0.536605,-0.110771 -1.117002,-0.01775 -1.603515,0.289063 -1.090205,0.688471 -1.3529838,2.156102 -0.675782,3.21289 0.75154,1.172227 2.339976,1.453923 3.480469,0.712891 1.254458,-0.814321 1.553783,-2.525829 0.75,-3.75 l -0.658203,0.431641 c -0.313413,-0.473256 -0.775773,-0.78972 -1.292969,-0.896485 z m -0.640625,1.765625 c 0.03364,-0.01869 0.05874,0.02955 0.0957,0.02149 l 0.371094,0.507812 c -0.03277,0.05292 -0.124699,0.141887 -0.222656,0.148438 -0.213995,0.01476 -0.186161,-0.01275 -0.265625,-0.08984 -0.02357,-0.02287 -0.04515,-0.105987 -0.07227,-0.166016 0.02144,-0.158795 -0.04462,-0.344934 0.09375,-0.421875 z"
     id="path7" />
  <linearGradient
     id="_lgradient_22"
     x1="0"
     y1="0.5"
     x2="1"
     y2="0.5"
     gradientTransform="matrix(-13.62504,0,0,12.843257,23.817005,18.820909)"
     gradientUnits="userSpaceOnUse">
    <stop
       offset="0%"
       stop-opacity="1"
       style="stop-color:rgb(17,153,142)"
       id="stop9" />
    <stop
       offset="99.1304347826087%"
       stop-opacity="1"
       style="stop-color:rgb(56,239,125)"
       id="stop11" />
  </linearGradient>
  <path
     style="color:#000000;fill:url(#linearGradient955);-inkscape-stroke:none"
     d="m 23.929687,18.667969 c -0.296645,-0.218531 -0.635838,-0.126191 -0.863281,0.002 -0.207888,0.117155 -1.189736,0.548129 -1.71875,0.380859 -0.562157,-0.17741 -1.180638,0.157453 -1.33789,0.726563 l -0.01172,0.04102 c -0.332039,1.107676 -0.781377,2.188548 -1.333985,3.212891 -0.448926,0.822629 -1.012225,1.572904 -1.683593,2.234375 -0.651115,0.627957 -1.405291,1.154515 -2.234375,1.572266 -5.51e-4,2.69e-4 -0.0014,-2.7e-4 -0.002,0 -8.26e-4,4.16e-4 -0.0011,0.0015 -0.002,0.002 -1.01528,0.49608 -2.078923,0.878533 -3.189454,1.140625 -1.069904,0.250355 -1.7526524,1.323306 -1.484375,2.380859 0.267972,1.058646 1.371023,1.691734 2.44336,1.4375 1.405758,-0.331221 2.7711,-0.819561 4.066406,-1.451172 l 0.002,-0.002 0.002,-0.002 c 1.200077,-0.602143 2.298323,-1.377528 3.261719,-2.298828 l 0.002,-0.0039 0.0039,-0.002 c 0.94775,-0.936925 1.752157,-2.009811 2.390625,-3.173828 v -0.002 l 0.002,-0.002 c 0.67721,-1.260215 1.230906,-2.582307 1.636719,-3.958984 l 0.0039,-0.01758 0.300782,-1.392579 c 0.05483,-0.255247 0.04274,-0.605688 -0.253907,-0.824218 z m -0.824218,1.078125 -0.189453,0.884765 c -0.384919,1.302627 -0.910032,2.558177 -1.554688,3.757813 -0.591672,1.07785 -1.337673,2.069728 -2.212891,2.935547 -0.889967,0.85049 -1.902452,1.566833 -3.009765,2.123047 -1.229562,0.599552 -2.525203,1.065012 -3.857422,1.378906 -0.564193,0.133761 -1.113693,-0.195593 -1.244141,-0.710938 -0.131301,-0.517593 0.185621,-1.031417 0.744141,-1.162109 1.184752,-0.279608 2.322095,-0.687642 3.404297,-1.216797 l 0.0039,-0.002 0.002,-0.002 c 0.916592,-0.461331 1.756472,-1.045206 2.486328,-1.75 l 0.002,-0.002 0.002,-0.002 c 0.742414,-0.731471 1.366448,-1.563524 1.861328,-2.470704 v -0.002 c 0.585794,-1.085861 1.063778,-2.231099 1.416015,-3.408203 v -0.0059 l 0.01367,-0.04687 v -0.002 c 0.013,-0.04706 0.02717,-0.05391 0.07422,-0.03906 0.862208,0.272623 1.582971,-0.02068 2.058594,-0.257812 z"
     id="path14" />
  <linearGradient
     id="_lgradient_23"
     x1="0.10075293967265184"
     y1="0.10455894555851192"
     x2="0.9640879692656711"
     y2="0.9541976643783026"
     gradientTransform="matrix(13.140913,0,0,12.312223,11.372747,17.178005)"
     gradientUnits="userSpaceOnUse">
    <stop
       offset="0%"
       stop-opacity="1"
       style="stop-color:rgb(178,254,250)"
       id="stop16" />
    <stop
       offset="98.26086956521739%"
       stop-opacity="1"
       style="stop-color:rgb(14,210,247)"
       id="stop18" />
  </linearGradient>
  <path
     style="color:#000000;fill:url(#linearGradient981);-inkscape-stroke:none"
     d="m 11.796875,16.945312 c -0.137695,-0.03577 -0.348585,-0.0394 -0.527344,0.08594 -0.178758,0.12534 -0.246447,0.325201 -0.259765,0.466797 -0.01332,0.141595 0.0075,0.258164 0.04101,0.375 l 0.244141,0.849609 c 0.391289,1.376339 0.924177,2.696864 1.576172,3.957031 l 0.002,0.002 v 0.0039 c 0.615951,1.162863 1.392662,2.23443 2.306641,3.171875 l 0.002,0.0039 0.0039,0.002 c 0.929715,0.921892 1.989919,1.699893 3.15039,2.302735 l 0.002,0.002 h 0.002 c 1.250907,0.633191 2.570241,1.123299 3.927734,1.455078 1.051481,0.259206 2.126133,-0.390718 2.382813,-1.441406 0.256306,-1.049157 -0.392055,-2.121175 -1.441407,-2.375 -1.070081,-0.262483 -2.095581,-0.644028 -3.074218,-1.140625 -0.796896,-0.416561 -1.523086,-0.941872 -2.150391,-1.56836 l -0.002,-0.002 c -6.43e-4,-6.42e-4 -0.0013,-0.0013 -0.002,-0.002 -0.644581,-0.659594 -1.185552,-1.409543 -1.617188,-2.230469 l -0.002,-0.002 c -0.533575,-1.024267 -0.966729,-2.107201 -1.287109,-3.216797 l -0.002,-0.0039 -0.0078,-0.03125 c -0.0753,-0.282669 -0.27341,-0.528986 -0.535156,-0.648438 -0.261747,-0.119451 -0.574856,-0.107381 -0.837891,0.02148 -0.261062,0.127411 -0.64002,0.20375 -0.966797,0.210937 -0.326777,0.0072 -0.621624,-0.10316 -0.589843,-0.08008 -0.09848,-0.07138 -0.200196,-0.132201 -0.337891,-0.167969 z m 2.306641,0.941407 0.0078,0.0293 v 0.002 c 0.33944,1.176725 0.79973,2.321076 1.365235,3.40625 v 0.002 c 0.476485,0.906839 1.076675,1.738587 1.792968,2.470703 l 0.002,0.002 0.002,0.002 c 0.704769,0.704769 1.516469,1.291499 2.402344,1.753906 l 0.0039,0.002 0.002,0.002 c 1.04589,0.530723 2.146624,0.939992 3.291015,1.220703 0.521163,0.126063 0.835247,0.641182 0.707031,1.166015 -0.12784,0.5233 -0.646688,0.83698 -1.173828,0.707032 -1.280632,-0.312994 -2.52652,-0.77487 -3.708984,-1.373047 l -0.0039,-0.002 c -1.067564,-0.555079 -2.043673,-1.273555 -2.902344,-2.125 -0.841385,-0.864357 -1.560366,-1.855458 -2.130859,-2.931641 l -0.002,-0.002 c -2.49e-4,-4.69e-4 2.48e-4,-0.0015 0,-0.002 -0.622265,-1.2033 -1.130389,-2.46062 -1.501954,-3.767578 l -0.113281,-0.392578 c 0.199961,0.03697 0.378681,0.141707 0.605469,0.136718 0.441064,-0.0097 0.920889,-0.100435 1.355469,-0.30664 z"
     id="path21" />
  <linearGradient
     id="_lgradient_24"
     x1="0.20366897880896492"
     y1="0.340016434883778"
     x2="0.8683714006363232"
     y2="0.9508043203917516"
     gradientTransform="matrix(-1.0875478,13.581608,12.734386,1.0197933,24.730823,14.845974)"
     gradientUnits="userSpaceOnUse">
    <stop
       offset="0%"
       stop-opacity="1"
       style="stop-color:rgb(78,84,200)"
       id="stop23" />
    <stop
       offset="83.88839793817618%"
       stop-opacity="1"
       style="stop-color:rgb(0,114,255)"
       id="stop25" />
  </linearGradient>
  <path
     style="color:#000000;fill:url(#linearGradient929);-inkscape-stroke:none"
     d="m 25.912109,14.625 c -0.25352,-0.09796 -0.596329,-0.113946 -0.851562,0.107422 -0.255233,0.221368 -0.287597,0.561359 -0.226563,0.826172 v 0.002 c 0.137183,0.593777 -0.283037,1.314981 -0.388672,1.455078 -0.175494,0.233113 -0.24775,0.539933 -0.177734,0.820312 0.07002,0.28038 0.278181,0.517481 0.542969,0.640625 l 0.517578,0.242188 0.01563,0.0059 c 1.080428,0.419355 2.124802,0.955566 3.103516,1.589844 0.782105,0.51165 1.485687,1.131935 2.089843,1.851563 0.576595,0.701869 1.043454,1.498239 1.394532,2.361328 0.41328,1.050936 0.709813,2.141963 0.882812,3.269531 h -0.002 c 0.163707,1.086561 1.180601,1.852762 2.255859,1.669922 1.076399,-0.183034 1.797384,-1.232472 1.628907,-2.322266 -0.217633,-1.427099 -0.597821,-2.826545 -1.125,-4.167969 v -0.002 l -0.002,-0.002 c -0.504099,-1.244609 -1.189213,-2.401645 -2.03125,-3.435547 l -0.0039,-0.0039 -0.002,-0.0039 C 32.675096,18.510633 31.671177,17.624241 30.5625,16.894531 l -0.002,-0.002 -0.0039,-0.002 c -1.201591,-0.774608 -2.47526,-1.430879 -3.814454,-1.945312 h -0.002 z m -0.126953,1.023438 0.597656,0.230468 c 1.271943,0.488471 2.484912,1.113519 3.632813,1.853516 1.027525,0.676925 1.958504,1.499498 2.751953,2.441406 0.777406,0.955649 1.411372,2.024321 1.876953,3.173828 0.498965,1.270878 0.856544,2.598683 1.0625,3.949219 h 0.002 c 0.08864,0.573378 -0.284363,1.094452 -0.808593,1.183594 -0.52537,0.08934 -1.012352,-0.267799 -1.097657,-0.833985 -0.18457,-1.202987 -0.501914,-2.370951 -0.943359,-3.492187 v -0.002 l -0.002,-0.002 C 32.470728,23.199743 31.954693,22.315347 31.310547,21.53125 l -0.002,-0.002 -0.002,-0.002 C 30.63702,20.728787 29.856879,20.039938 28.992187,19.474609 h -0.002 c -1.035392,-0.67101 -2.13953,-1.238933 -3.285156,-1.683593 l -0.443359,-0.207032 c 0.205121,-0.275722 0.595932,-1.020242 0.523437,-1.935546 z"
     id="path28" />
  <linearGradient
     id="_lgradient_25"
     x1="0"
     y1="0.5"
     x2="1"
     y2="0.5"
     gradientTransform="matrix(13.099218,-3.7485075,-3.3877289,-11.836783,27.145086,31.664745)"
     gradientUnits="userSpaceOnUse">
    <stop
       offset="0%"
       stop-opacity="1"
       style="stop-color:rgb(132,250,176)"
       id="stop30" />
    <stop
       offset="98.26086956521739%"
       stop-opacity="1"
       style="stop-color:rgb(143,211,244)"
       id="stop32" />
  </linearGradient>
  <path
     style="color:#000000;fill:url(#linearGradient903);-inkscape-stroke:none"
     d="m 36.115234,16.386719 c -0.497608,-0.126962 -1.046649,-0.06896 -1.527343,0.201172 -1.258686,0.704953 -2.436675,1.550062 -3.507813,2.513671 l -0.002,0.002 -0.002,0.002 c -0.988465,0.90905 -1.829614,1.95834 -2.501953,3.109375 l -0.002,0.0039 -0.002,0.0039 c -0.653765,1.161382 -1.132091,2.412754 -1.425781,3.707031 l -0.002,0.0039 v 0.002 c -0.30391,1.398101 -0.471132,2.820884 -0.482422,4.255859 l -0.0098,0.888672 c -0.0014,0.129007 0.01308,0.258779 0.07031,0.394531 0.05723,0.135753 0.174559,0.285043 0.347656,0.361328 0.173098,0.07629 0.365176,0.06283 0.503907,0.01367 0.13873,-0.04915 0.24343,-0.124976 0.33789,-0.21289 0.03824,-0.0356 0.340227,-0.201196 0.677735,-0.291016 0.337508,-0.08982 0.728237,-0.133471 0.982421,-0.109375 0.586286,0.05553 1.124479,-0.437982 1.119141,-1.027344 v -0.002 l -0.002,-0.0332 v -0.0039 c 0.0143,-1.156859 0.150502,-2.319848 0.400391,-3.457031 v -0.002 c 0.204543,-0.912497 0.538113,-1.788141 1,-2.607421 0.454421,-0.784314 1.033688,-1.500337 1.716796,-2.13086 l 0.002,-0.002 c 6.85e-4,-6.33e-4 0.0013,-0.0013 0.002,-0.002 0.838843,-0.75543 1.757614,-1.41715 2.751953,-1.974609 0.960052,-0.534462 1.321863,-1.754439 0.773437,-2.697266 -0.274561,-0.472012 -0.721141,-0.783195 -1.21875,-0.910156 z m -0.251953,0.964843 c 0.251166,0.06327 0.471766,0.219364 0.605469,0.449219 0.268102,0.460908 0.105903,1.041721 -0.394531,1.320313 -1.06164,0.595044 -2.042849,1.303115 -2.9375,2.109375 l -0.0039,0.002 -0.002,0.002 c -0.754745,0.695848 -1.399916,1.489905 -1.908203,2.367187 l -0.002,0.002 -0.002,0.002 c -0.512581,0.90781 -0.881533,1.880066 -1.107422,2.888672 v 0.002 c -0.264963,1.205134 -0.408926,2.43775 -0.423828,3.666015 v 0.0059 l 0.002,0.04883 c 4.53e-4,0.04996 0.02417,0.02813 -0.02539,0.02344 -0.4361,-0.04134 -0.901944,0.02421 -1.332031,0.138672 -0.26408,0.07028 -0.460165,0.208772 -0.677734,0.322266 l 0.0059,-0.501953 c 0.01071,-1.361422 0.170954,-2.716156 0.460938,-4.050782 1.38e-4,-6.35e-4 -1.38e-4,-0.0013 0,-0.002 0.272648,-1.198898 0.716591,-2.35879 1.320312,-3.43164 3e-4,-5.32e-4 -2.99e-4,-0.0014 0,-0.002 0.621009,-1.061784 1.395687,-2.028667 2.306641,-2.867188 l 0.002,-0.002 c 6.8e-4,-6.26e-4 0.0013,-0.0013 0.002,-0.002 1.015613,-0.913117 2.133909,-1.713237 3.326172,-2.38086 v -0.002 c 0.253024,-0.142188 0.53399,-0.170694 0.785156,-0.107422 z"
     id="path35" />
  <linearGradient
     id="_lgradient_26"
     x1="0"
     y1="0.5"
     x2="0.9074880558539661"
     y2="0.9200778838291643"
     gradientTransform="matrix(7.2294713,0,0,6.5496091,26.078965,31.664745)"
     gradientUnits="userSpaceOnUse">
    <stop
       offset="0%"
       stop-opacity="1"
       style="stop-color:rgb(78,84,200)"
       id="stop37" />
    <stop
       offset="83.88839793817618%"
       stop-opacity="1"
       style="stop-color:rgb(0,114,255)"
       id="stop39" />
  </linearGradient>
  <path
     style="color:#000000;fill:url(#linearGradient1007);fill-rule:evenodd;-inkscape-stroke:none"
     d="m 30.351562,31.234375 c -1.571083,-0.290646 -3.258893,0.324297 -4.173828,1.751953 -1.094666,1.708161 -0.667707,4.087045 1.087891,5.195313 1.558497,0.983135 3.721142,0.589256 4.716797,-1.019532 0.87213,-1.408133 0.50767,-3.3556 -0.955078,-4.238281 -1.257714,-0.759588 -2.989371,-0.42989 -3.757813,0.888672 -0.646547,1.108052 -0.345527,2.628632 0.830078,3.28125 0.958421,0.531481 2.26685,0.260328 2.800782,-0.775391 0.417226,-0.80914 0.170789,-1.912987 -0.734375,-2.322265 -0.330872,-0.149279 -0.696846,-0.166846 -1.03711,-0.05664 -0.340263,0.110205 -0.667175,0.380403 -0.800781,0.775391 -0.0886,0.26348 -0.07769,0.52808 0.0332,0.787109 0.110893,0.259029 0.396105,0.526452 0.755859,0.550781 0.307038,0.02076 0.42226,-0.06567 0.589844,-0.228515 0.07831,-0.0761 0.165595,-0.206256 0.1875,-0.394532 0.02939,0.163513 0.196102,0.276647 0.117188,0.429688 -0.25447,0.49362 -0.933937,0.633838 -1.427735,0.359375 -0.652029,-0.361963 -0.828471,-1.255728 -0.451172,-1.902344 0.470828,-0.807888 1.58082,-1.019108 2.378907,-0.537109 0.961357,0.580122 1.207497,1.905514 0.61914,2.855469 -0.689521,1.114133 -2.23015,1.396263 -3.332031,0.701171 -1.266137,-0.799282 -1.581756,-2.558357 -0.779297,-3.810546 0.908853,-1.418167 2.884052,-1.768214 4.28711,-0.857422 1.569402,1.019157 1.952928,3.212376 0.933593,4.765625 l 0.835938,0.546875 c 1.317905,-2.008206 0.826513,-4.818408 -1.22461,-6.150391 -0.464605,-0.301598 -0.976305,-0.498821 -1.5,-0.595703 z m -0.914062,3.65625 c 0.05636,-0.01826 0.124332,0.0019 0.191406,0.0098 l -0.570312,0.78125 c -0.04909,-0.03592 -0.156676,-0.187975 -0.148438,-0.335938 0.0082,-0.147963 0.07409,-0.211583 0.101563,-0.238281 0.05495,-0.0534 -0.01333,-0.06344 0.173828,-0.05078 0.0343,0.0023 0.09991,0.0606 0.0957,0.05078 -0.0042,-0.0098 -0.0039,-0.07421 -0.0039,-0.07422 0.02573,-0.07389 0.06758,-0.112593 0.160156,-0.142578 z m 0.224609,0.01172 c 0.03131,0.0059 0.06564,-0.0058 0.0918,0.0059 0.139394,0.06303 0.05528,0.25997 0.109375,0.402344 -0.02776,-0.162874 -0.09862,-0.323842 -0.201172,-0.408203 z"
     id="path42" />
  <linearGradient
     id="_lgradient_27"
     x1="0"
     y1="0.5"
     x2="1"
     y2="0.5"
     gradientTransform="matrix(-5.7834612,0,0,-5.2396873,24.333561,18.651233)"
     gradientUnits="userSpaceOnUse">
    <stop
       offset="0%"
       stop-opacity="1"
       style="stop-color:rgb(178,254,250)"
       id="stop44" />
    <stop
       offset="98.26086956521739%"
       stop-opacity="1"
       style="stop-color:rgb(14,210,247)"
       id="stop46" />
  </linearGradient>
  <path
     style="color:#000000;fill:url(#linearGradient1033);fill-rule:evenodd;-inkscape-stroke:none"
     d="m 21.306641,12.970703 c -0.712986,0.146817 -1.36764,0.562438 -1.78125,1.230469 -0.725441,1.172365 -0.423398,2.793051 0.796875,3.529297 1.052652,0.635592 2.499983,0.357324 3.144531,-0.748047 0.544086,-0.932719 0.291458,-2.210346 -0.701172,-2.761719 -0.813091,-0.451537 -1.921587,-0.221884 -2.376953,0.66211 -0.358081,0.694273 -0.149106,1.641223 0.632812,1.99414 0.288706,0.130463 0.605315,0.144948 0.902344,0.04883 0.297029,-0.09612 0.587497,-0.333706 0.705078,-0.68164 0.08028,-0.237572 0.07007,-0.468992 -0.0293,-0.701172 -0.0777,-0.181553 -0.308662,-0.307426 -0.539062,-0.392578 0.08471,0.01483 0.144023,-0.09727 0.220703,-0.05469 0.469015,0.260522 0.597025,0.911797 0.322266,1.382813 -0.346867,0.594861 -1.172482,0.752671 -1.765625,0.394531 -0.717972,-0.433185 -0.901594,-1.430313 -0.460938,-2.144531 0.52092,-0.841349 1.692028,-1.056314 2.527344,-0.529297 0.96404,0.608819 1.20482,1.953915 0.591797,2.910156 -0.696363,1.085966 -2.213969,1.353684 -3.291016,0.654297 -1.207193,-0.783397 -1.502217,-2.474766 -0.716797,-3.671875 l -0.835937,-0.548828 c -1.08391,1.652056 -0.681643,3.964191 1.007812,5.060547 1.532371,0.995055 3.670389,0.615859 4.677735,-0.955079 0.905373,-1.412272 0.552727,-3.377236 -0.900391,-4.294921 -0.646145,-0.407666 -1.417874,-0.529629 -2.130859,-0.382813 z m 0.01758,2.359375 c -0.01408,0.0162 -0.01962,0.04888 -0.0332,0.06836 0.0075,-0.02146 -0.02416,-0.03631 -0.01367,-0.05664 0.0082,-0.01596 0.03737,0.0032 0.04687,-0.01172 z m 0.685547,0.02734 c 0.05757,0.04224 0.167035,0.201332 0.158203,0.355469 -0.0088,0.154136 -0.07831,0.223794 -0.111328,0.255859 -0.06604,0.06413 -0.01485,0.08148 -0.212891,0.06836 h -0.002 c -0.0675,-0.0045 -0.154815,-0.08452 -0.16211,-0.101562 -0.0073,-0.01704 -0.0071,0.01506 0.002,-0.01172 -0.0098,0.02906 -0.01627,0.03456 -0.06641,0.05078 -0.01565,0.0051 -0.03657,-0.0051 -0.05664,-0.0039 z"
     id="path49" />
</svg>
