<?xml version="1.0" encoding="UTF-8" standalone="no"?>
<!-- Generator: Gravit.io -->

<svg
   style="isolation:isolate"
   viewBox="0 0 48 48"
   width="48pt"
   height="48pt"
   version="1.1"
   id="svg27"
   sodipodi:docname="bcompare.svg"
   inkscape:version="1.1.2 (0a00cf5339, 2022-02-04)"
   xmlns:inkscape="http://www.inkscape.org/namespaces/inkscape"
   xmlns:sodipodi="http://sodipodi.sourceforge.net/DTD/sodipodi-0.dtd"
   xmlns:xlink="http://www.w3.org/1999/xlink"
   xmlns="http://www.w3.org/2000/svg"
   xmlns:svg="http://www.w3.org/2000/svg">
  <defs
     id="defs31">
    <linearGradient
       inkscape:collect="always"
       xlink:href="#_lgradient_4"
       id="linearGradient872"
       x1="-12.025727"
       y1="6.1170783"
       x2="-0.085100174"
       y2="6.1170783"
       gradientUnits="userSpaceOnUse"
       gradientTransform="matrix(3.8358211,0,0,3.8371386,0.01768414,-0.02604367)" />
    <linearGradient
       id="_lgradient_10"
       x1="0"
       y1="0.5"
       x2="1"
       y2="0.5"
       gradientTransform="matrix(42.503,0,0,42.495,2.98,0.315)"
       gradientUnits="userSpaceOnUse">
      <stop
         offset="0%"
         stop-opacity="1"
         style="stop-color:rgb(84,51,255)"
         id="stop2-3" />
      <stop
         offset="51.73913043478261%"
         stop-opacity="1"
         style="stop-color:rgb(32,189,255)"
         id="stop4-6" />
      <stop
         offset="98.26086956521739%"
         stop-opacity="1"
         style="stop-color:rgb(165,254,203)"
         id="stop6-7" />
    </linearGradient>
    <linearGradient
       inkscape:collect="always"
       xlink:href="#_lgradient_4"
       id="linearGradient15"
       x1="-9.6850061"
       y1="45.161198"
       x2="11.98815"
       y2="21.735205"
       gradientUnits="userSpaceOnUse"
       gradientTransform="matrix(1.1147442,0,0,1.1150348,-0.01332916,-3.3606544)" />
    <linearGradient
       inkscape:collect="always"
       xlink:href="#_lgradient_4"
       id="linearGradient882"
       x1="10.453081"
       y1="24.427023"
       x2="37.546921"
       y2="24.427023"
       gradientUnits="userSpaceOnUse" />
    <linearGradient
       inkscape:collect="always"
       xlink:href="#_lgradient_2"
       id="linearGradient908"
       x1="14.023296"
       y1="13.69325"
       x2="31.162666"
       y2="13.69325"
       gradientUnits="userSpaceOnUse" />
    <linearGradient
       inkscape:collect="always"
       xlink:href="#_lgradient_3"
       id="linearGradient934"
       x1="17.271406"
       y1="34.307549"
       x2="32.78231"
       y2="34.307549"
       gradientUnits="userSpaceOnUse" />
  </defs>
  <sodipodi:namedview
     id="namedview29"
     pagecolor="#ffffff"
     bordercolor="#666666"
     borderopacity="1.0"
     inkscape:pageshadow="2"
     inkscape:pageopacity="0.0"
     inkscape:pagecheckerboard="0"
     inkscape:document-units="pt"
     showgrid="false"
     inkscape:zoom="5.109375"
     inkscape:cx="32"
     inkscape:cy="31.706422"
     inkscape:window-width="1056"
     inkscape:window-height="545"
     inkscape:window-x="276"
     inkscape:window-y="100"
     inkscape:window-maximized="0"
     inkscape:current-layer="svg27" />
  <linearGradient
     id="_lgradient_2"
     x1="0.07200000000000006"
     y1="1.0040000000000002"
     x2="1.1629734513274335"
     y2="0.0880707964601769"
     gradientTransform="matrix(17.139209,0,0,6.4801395,14.023577,10.453081)"
     gradientUnits="userSpaceOnUse">
    <stop
       offset="0%"
       stop-opacity="1"
       style="stop-color:rgb(138,35,135)"
       id="stop2" />
    <stop
       offset="48.26086956521739%"
       stop-opacity="1"
       style="stop-color:rgb(233,64,87)"
       id="stop4" />
    <stop
       offset="98.26086956521739%"
       stop-opacity="1"
       style="stop-color:rgb(247,121,125)"
       id="stop6" />
  </linearGradient>
  <rect
     x="-46.760059"
     y="1.2020136"
     width="45.801998"
     height="45.80014"
     rx="6.1837621"
     shape-rendering="crispEdges"
     id="rect5-6-7-3"
     ry="6.8055277"
     transform="matrix(0.00524063,-0.99998627,0.99998801,0.00489691,0,0)"
     style="isolation:isolate;fill:#00d3ff;fill-opacity:0.136073;stroke:url(#linearGradient872);stroke-width:2.0301;stroke-miterlimit:4;stroke-dasharray:none;stroke-opacity:1" />
  <rect
     x="-15.68776"
     y="17.227226"
     width="33.338203"
     height="33.345856"
     rx="6.7920032"
     shape-rendering="crispEdges"
     id="rect5-6-6-6-6"
     style="isolation:isolate;fill:#00d2ff;fill-opacity:0.133333;stroke:url(#linearGradient15);stroke-width:1.67233;stroke-miterlimit:4;stroke-dasharray:none;stroke-opacity:1"
     ry="7.4743071"
     transform="matrix(0.72446484,-0.68931175,0.68622417,0.72739012,0,0)" />
  <path
     style="color:#000000;fill:url(#linearGradient908);fill-rule:evenodd;-inkscape-stroke:none"
     d="m 24,9.953125 c -2.336391,0 -4.597642,0.668085 -6.648438,1.777344 0.03864,-0.813127 -0.448835,-1.581063 -1.269531,-1.7441409 -0.902469,-0.1793255 -1.793268,0.4155799 -1.972656,1.3183599 l -0.552734,2.748046 c -0.180171,0.898364 0.31707,1.815892 1.167968,2.15625 l 2.763672,1.105469 c 0.853308,0.340988 1.835122,-0.08193 2.177735,-0.935547 0.269683,-0.671912 -0.0266,-1.340293 -0.541016,-1.798828 1.512572,-0.784767 3.160654,-1.271484 4.875,-1.271484 1.812716,0 3.589707,0.456712 5.169922,1.333984 0.805547,0.446137 1.836862,0.15162 2.283203,-0.654297 0.446136,-0.805547 0.149666,-1.834909 -0.65625,-2.28125 v -0.002 C 28.714769,10.557172 26.376026,9.953125 24,9.953125 Z m 0,1 c 2.205752,0 4.378056,0.56276 6.3125,1.628906 0.330535,0.184391 0.449355,0.590131 0.265625,0.921875 C 30.3946,13.835281 29.988279,13.950135 29.65625,13.767578 27.926308,12.807184 25.980418,12.308594 24,12.308594 c -2.174699,0 -4.302941,0.604219 -6.150391,1.751953 l -0.839843,0.523437 1.349609,0.539063 c 0.354793,0.143022 0.51996,0.531379 0.378906,0.882812 -0.141543,0.352652 -0.529485,0.518538 -0.878906,0.378907 L 15.095703,15.279297 C 14.73916,15.13668 14.461656,14.626223 14.537109,14.25 l 0.552735,-2.75 v -0.002 c 0.07388,-0.371807 0.424755,-0.605192 0.796875,-0.53125 0.371807,0.07388 0.605192,0.424756 0.53125,0.796875 l -0.361328,1.814453 0.980468,-0.613281 0.07031,-0.04297 0.002,-0.002 C 19.179388,11.633121 21.567313,10.953125 24,10.953125 Z"
     id="path9" />
  <linearGradient
     id="_lgradient_3"
     x1="0"
     y1="0.5"
     x2="1.0453089597994198"
     y2="0.5346835454733667"
     gradientTransform="matrix(15.510634,0,0,6.4789615,17.271304,31.067958)"
     gradientUnits="userSpaceOnUse">
    <stop
       offset="0%"
       stop-opacity="1"
       style="stop-color:rgb(84,51,255)"
       id="stop11" />
    <stop
       offset="51.73913043478261%"
       stop-opacity="1"
       style="stop-color:rgb(32,189,255)"
       id="stop13" />
    <stop
       offset="98.26086956521739%"
       stop-opacity="1"
       style="stop-color:rgb(165,254,203)"
       id="stop15" />
  </linearGradient>
  <path
     style="color:#000000;fill:url(#linearGradient934);fill-rule:evenodd;-inkscape-stroke:none"
     d="m 28.771484,30.658203 c -0.407361,0.136222 -0.762786,0.42526 -0.96875,0.835938 -0.393129,0.783869 -0.06954,1.713237 0.669922,2.160156 -1.40517,0.65281 -2.918817,1.037109 -4.472656,1.037109 -1.665726,0 -3.308264,-0.388743 -4.792969,-1.136719 -0.823701,-0.414352 -1.841612,-0.07739 -2.255859,0.746094 -0.414351,0.823701 -0.07739,1.841614 0.746094,2.25586 1.955409,0.983814 4.116848,1.490234 6.302734,1.490234 1.930989,0 3.818068,-0.449005 5.580078,-1.214844 0.178315,0.56601 0.54187,1.058806 1.160156,1.181641 0.901899,0.179212 1.792485,-0.414588 1.972657,-1.316406 v -0.002 l 0.535156,-2.671875 c 0.178339,-0.893347 -0.27623,-1.819604 -1.091797,-2.226562 l -2.107422,-1.052734 c -0.4107,-0.205351 -0.869982,-0.22216 -1.277344,-0.08594 z m 0.830078,0.980469 2.109375,1.052734 c 0.348289,0.173792 0.632748,0.755479 0.556641,1.136719 L 31.732422,36.5 v 0.002 c -0.07388,0.371807 -0.424755,0.605192 -0.796875,0.53125 -0.361266,-0.07177 -0.591389,-0.405814 -0.535156,-0.763672 l 0.148437,-0.945312 -0.859375,0.417968 C 27.919196,36.600373 25.974227,37.046875 24,37.046875 c -2.031324,0 -4.039351,-0.470061 -5.853516,-1.382813 C 17.806121,35.492847 17.672639,35.090156 17.84375,34.75 c 0.170887,-0.339709 0.572373,-0.472348 0.912109,-0.302734 1.625195,0.818752 3.42301,1.24414 5.244141,1.24414 1.887719,0 3.746396,-0.454619 5.419922,-1.333984 l 0.002,-0.002 1.263672,-0.65625 -0.875,-0.439453 -0.808594,-0.40625 c -0.341092,-0.171582 -0.473908,-0.572744 -0.304687,-0.910157 0.169999,-0.338967 0.56891,-0.47238 0.904296,-0.304687 z"
     id="path18" />
  <linearGradient
     id="_lgradient_4"
     x1="0"
     y1="0.5"
     x2="1"
     y2="0.5"
     gradientTransform="matrix(27.093839,0,0,19.301415,10.453081,14.776315)"
     gradientUnits="userSpaceOnUse">
    <stop
       offset="0%"
       stop-opacity="1"
       style="stop-color:rgb(88,0,226)"
       id="stop20" />
    <stop
       offset="99.16666666666667%"
       stop-opacity="1"
       style="stop-color:rgb(240,91,105)"
       id="stop22" />
  </linearGradient>
  <path
     style="color:#000000;fill:url(#linearGradient882);fill-rule:evenodd;-inkscape-stroke:none"
     d="m 33.169922,14.275391 c -0.920783,0 -1.677734,0.758905 -1.677735,1.679687 0,0.920783 0.756952,1.677734 1.677735,1.677734 0.920783,0 1.679687,-0.756952 1.679687,-1.677734 0,-0.920782 -0.758904,-1.679687 -1.679687,-1.679687 z m 0,1 c 0.379721,0 0.679687,0.299967 0.679687,0.679687 0,0.379721 -0.299966,0.677734 -0.679687,0.677734 -0.37972,0 -0.677734,-0.298014 -0.677735,-0.677734 0,-0.37972 0.298015,-0.679687 0.677735,-0.679687 z M 24,16.431641 c -2.006131,0 -3.934608,0.800289 -5.353516,2.21289 v 0.002 h -0.002 C 17.23193,20.065392 16.431641,21.993869 16.431641,24 c 0,2.006131 0.800289,3.934608 2.21289,5.353516 h 0.002 v 0.002 c 1.418908,1.412601 3.347385,2.21289 5.353516,2.21289 2.006131,0 3.934608,-0.800289 5.353516,-2.21289 v -0.002 h 0.002 C 30.76807,27.934608 31.568359,26.006131 31.568359,24 c 0,-2.006131 -0.800289,-3.934608 -2.21289,-5.353516 h -0.002 v -0.002 C 27.934608,17.23193 26.006131,16.431641 24,16.431641 Z m 0,1 c 1.739884,0 3.416864,0.695775 4.648437,1.921875 1.224893,1.231392 1.919922,2.907519 1.919922,4.646484 0,1.738965 -0.695029,3.415092 -1.919922,4.646484 -3.9e-4,3.89e-4 -0.0016,-3.88e-4 -0.002,0 -3.88e-4,3.91e-4 3.89e-4,0.0016 0,0.002 C 27.415092,29.87333 25.738965,30.568359 24,30.568359 c -1.738965,0 -3.415092,-0.695029 -4.646484,-1.919922 l -0.002,-0.002 C 18.12667,27.415092 17.431641,25.738965 17.431641,24 c 0,-1.739884 0.695775,-3.416864 1.921875,-4.648438 C 20.584908,18.12667 22.261035,17.431641 24,17.431641 Z m -10.871094,0.43164 c -0.855995,-0.340064 -1.839402,0.0829 -2.179687,0.939453 C 10.28915,20.452905 9.953125,22.217346 9.953125,24 c 0,2.337685 0.579825,4.640765 1.697266,6.693359 0.437444,0.810603 1.46565,1.11526 2.27539,0.675782 0.80953,-0.439363 1.11225,-1.466196 0.671875,-2.275391 C 13.753324,27.528922 13.308594,25.777894 13.308594,24 c 0,-1.35724 0.254423,-2.701001 0.759765,-3.953125 v -0.002 c 0.340064,-0.855995 -0.0829,-1.841355 -0.939453,-2.181641 z m 21.878906,0.244141 c -0.86282,0.321787 -1.308668,1.29445 -0.986328,2.15625 0.444698,1.198995 0.669922,2.458044 0.669922,3.736328 0,1.683061 -0.395232,3.342024 -1.160156,4.84375 h 0.002 c -0.419214,0.820054 -0.08857,1.839398 0.732422,2.257812 0.819366,0.417588 1.837617,0.08845 2.253906,-0.730468 C 37.527816,28.3973 38.046875,26.210434 38.046875,24 c 0,-1.673459 -0.298967,-3.333455 -0.878906,-4.902344 v -0.002 C 36.846449,18.231099 35.87131,17.785384 35.007812,18.107422 Z M 24,18.787109 c -1.380747,0 -2.709725,0.547616 -3.6875,1.525391 -0.977775,0.977775 -1.525391,2.306753 -1.525391,3.6875 0,1.380747 0.547616,2.709725 1.525391,3.6875 0.977775,0.977775 2.306753,1.525391 3.6875,1.525391 1.380747,0 2.709725,-0.547616 3.6875,-1.525391 0.977775,-0.977775 1.525391,-2.306753 1.525391,-3.6875 0,-1.380747 -0.547616,-2.709725 -1.525391,-3.6875 C 26.709725,19.334725 25.380747,18.787109 24,18.787109 Z m -11.240234,0.0059 c 0.353243,0.140334 0.519462,0.527056 0.378906,0.880859 l 0.002,-0.002 C 12.585774,21.046672 12.308594,22.518279 12.308594,24 c 0,1.94456 0.4875,3.858371 1.410156,5.568359 v 0.002 c 0.1825,0.334355 0.0622,0.738817 -0.271484,0.919922 -0.334089,0.181324 -0.736193,0.06174 -0.916016,-0.271484 l -0.002,-0.002 C 11.49181,28.311902 10.953125,26.173174 10.953125,24 c 0,-1.657083 0.311666,-3.295766 0.923828,-4.826172 v -0.002 c 0.140334,-0.353245 0.529009,-0.519463 0.882813,-0.378906 z m 22.597656,0.25 c 0.355723,-0.132666 0.739863,0.0442 0.873047,0.402343 0.538712,1.458016 0.816406,3.001096 0.816406,4.554688 0,2.053896 -0.482568,4.084897 -1.417969,5.916016 v 0.002 c -0.17002,0.335935 -0.568129,0.466286 -0.908203,0.292968 -0.339329,-0.172936 -0.470967,-0.575376 -0.298828,-0.912109 h 0.002 C 35.260973,27.655315 35.691406,25.839136 35.691406,24 c 0,-1.395758 -0.246506,-2.773856 -0.732422,-4.083984 v -0.002 c -0.132365,-0.353887 0.04204,-0.738175 0.398438,-0.871093 z M 24,19.787109 c 1.116596,0 2.191255,0.443209 2.980469,1.232422 0.789213,0.789214 1.232422,1.863873 1.232422,2.980469 0,1.116596 -0.443209,2.191255 -1.232422,2.980469 -0.789214,0.789213 -1.863873,1.232422 -2.980469,1.232422 -1.116596,0 -2.191255,-0.443209 -2.980469,-1.232422 C 20.230318,26.191255 19.787109,25.116596 19.787109,24 c 0,-1.116596 0.443209,-2.191255 1.232422,-2.980469 C 21.808745,20.230318 22.883404,19.787109 24,19.787109 Z m 0,2.240235 c -1.083345,0 -1.972656,0.889311 -1.972656,1.972656 0,1.083345 0.889311,1.972656 1.972656,1.972656 1.083345,0 1.972656,-0.889311 1.972656,-1.972656 0,-1.083345 -0.889311,-1.972656 -1.972656,-1.972656 z m 0,1 c 0.542283,0 0.972656,0.430373 0.972656,0.972656 0,0.542283 -0.430373,0.972656 -0.972656,0.972656 -0.542283,0 -0.972656,-0.430373 -0.972656,-0.972656 0,-0.542283 0.430373,-0.972656 0.972656,-0.972656 z m -8.664062,8.195312 c -0.920784,0 -1.677735,0.756953 -1.677735,1.677735 0,0.920782 0.756951,1.677734 1.677735,1.677734 0.920782,0 1.677734,-0.756952 1.677734,-1.677734 0,-0.920783 -0.756952,-1.677735 -1.677734,-1.677735 z m 0,1 c 0.37972,0 0.677734,0.298015 0.677734,0.677735 0,0.37972 -0.298014,0.677734 -0.677734,0.677734 -0.379722,0 -0.677735,-0.298014 -0.677735,-0.677734 0,-0.379721 0.298013,-0.677735 0.677735,-0.677735 z"
     id="path25" />
</svg>
