<?xml version="1.0" encoding="UTF-8" standalone="no"?>
<!-- Generator: Gravit.io -->

<svg
   style="isolation:isolate"
   viewBox="0 0 48 48"
   width="48pt"
   height="48pt"
   version="1.1"
   id="svg9"
   sodipodi:docname="bitwig-studio.svg"
   inkscape:version="1.1.2 (0a00cf5339, 2022-02-04)"
   xmlns:inkscape="http://www.inkscape.org/namespaces/inkscape"
   xmlns:sodipodi="http://sodipodi.sourceforge.net/DTD/sodipodi-0.dtd"
   xmlns:xlink="http://www.w3.org/1999/xlink"
   xmlns="http://www.w3.org/2000/svg"
   xmlns:svg="http://www.w3.org/2000/svg">
  <defs
     id="defs13">
    <linearGradient
       inkscape:collect="always"
       xlink:href="#_lgradient_1"
       id="linearGradient872"
       x1="-12.025727"
       y1="6.1170783"
       x2="-0.085100174"
       y2="6.1170783"
       gradientUnits="userSpaceOnUse"
       gradientTransform="matrix(3.8358211,0,0,3.8371386,-0.00549785,-0.0026806)" />
    <linearGradient
       id="_lgradient_10"
       x1="0"
       y1="0.5"
       x2="1"
       y2="0.5"
       gradientTransform="matrix(42.503,0,0,42.495,2.98,0.315)"
       gradientUnits="userSpaceOnUse">
      <stop
         offset="0%"
         stop-opacity="1"
         style="stop-color:rgb(84,51,255)"
         id="stop2-3" />
      <stop
         offset="51.73913043478261%"
         stop-opacity="1"
         style="stop-color:rgb(32,189,255)"
         id="stop4-6" />
      <stop
         offset="98.26086956521739%"
         stop-opacity="1"
         style="stop-color:rgb(165,254,203)"
         id="stop6" />
    </linearGradient>
    <linearGradient
       inkscape:collect="always"
       xlink:href="#_lgradient_1"
       id="linearGradient15"
       x1="-9.6850061"
       y1="45.161198"
       x2="11.98815"
       y2="21.735205"
       gradientUnits="userSpaceOnUse"
       gradientTransform="matrix(1.1147442,0,0,1.1150348,-0.01240999,-3.3277564)" />
    <linearGradient
       inkscape:collect="always"
       xlink:href="#_lgradient_1"
       id="linearGradient1701"
       x1="9"
       y1="24"
       x2="38"
       y2="24"
       gradientUnits="userSpaceOnUse" />
  </defs>
  <sodipodi:namedview
     id="namedview11"
     pagecolor="#ffffff"
     bordercolor="#666666"
     borderopacity="1.0"
     inkscape:pageshadow="2"
     inkscape:pageopacity="0.0"
     inkscape:pagecheckerboard="0"
     inkscape:document-units="pt"
     showgrid="false"
     inkscape:zoom="10.21875"
     inkscape:cx="31.95107"
     inkscape:cy="32"
     inkscape:window-width="1600"
     inkscape:window-height="836"
     inkscape:window-x="0"
     inkscape:window-y="0"
     inkscape:window-maximized="1"
     inkscape:current-layer="svg9" />
  <linearGradient
     id="_lgradient_1"
     x1="0"
     y1="0.5"
     x2="1"
     y2="0.5"
     gradientTransform="matrix(48,0,0,46.985,0.495,0.559)"
     gradientUnits="userSpaceOnUse">
    <stop
       offset="0%"
       stop-opacity="1"
       style="stop-color:rgb(255,229,59)"
       id="stop2" />
    <stop
       offset="98.69565217391305%"
       stop-opacity="1"
       style="stop-color:rgb(255,0,91)"
       id="stop4" />
  </linearGradient>
  <g
     id="g861"
     transform="translate(3.4343704e-7,-5.4441829e-5)">
    <rect
       x="-46.783241"
       y="1.2253767"
       width="45.801998"
       height="45.80014"
       rx="6.1837621"
       shape-rendering="crispEdges"
       id="rect5-6-7-3"
       ry="6.8055277"
       transform="matrix(0.00524063,-0.99998627,0.99998801,0.00489691,0,0)"
       style="isolation:isolate;fill:#ff0045;fill-opacity:0.134703;stroke:url(#linearGradient872);stroke-width:2.0301;stroke-miterlimit:4;stroke-dasharray:none;stroke-opacity:1" />
    <rect
       x="-15.686841"
       y="17.260124"
       width="33.338203"
       height="33.345856"
       rx="6.7920032"
       shape-rendering="crispEdges"
       id="rect5-6-6-6-6"
       style="isolation:isolate;fill:#ff0045;fill-opacity:0.134703;stroke:url(#linearGradient15);stroke-width:1.67233;stroke-miterlimit:4;stroke-dasharray:none;stroke-opacity:1"
       ry="7.4743071"
       transform="matrix(0.72446484,-0.68931175,0.68622417,0.72739012,0,0)" />
  </g>
  <path
     style="color:#000000;fill:url(#linearGradient1701);fill-rule:evenodd;-inkscape-stroke:none"
     d="m 16,16.5 c -1.37453,0 -2.5,1.12547 -2.5,2.5 0,1.37453 1.12547,2.5 2.5,2.5 1.37453,0 2.5,-1.12547 2.5,-2.5 0,-1.37453 -1.12547,-2.5 -2.5,-2.5 z m 2.5,2.5 c 0,1.37453 1.12547,2.5 2.5,2.5 1.37453,0 2.5,-1.12547 2.5,-2.5 0,-1.37453 -1.12547,-2.5 -2.5,-2.5 -1.37453,0 -2.5,1.12547 -2.5,2.5 z m 5,0 c 0,1.37453 1.12547,2.5 2.5,2.5 1.37453,0 2.5,-1.12547 2.5,-2.5 0,-1.37453 -1.12547,-2.5 -2.5,-2.5 -1.37453,0 -2.5,1.12547 -2.5,2.5 z m 5,0 c 0,1.37453 1.12547,2.5 2.5,2.5 1.37453,0 2.5,-1.12547 2.5,-2.5 0,-1.37453 -1.12547,-2.5 -2.5,-2.5 -1.37453,0 -2.5,1.12547 -2.5,2.5 z m 2.5,2.5 c -1.37453,0 -2.5,1.12547 -2.5,2.5 0,1.37453 1.12547,2.5 2.5,2.5 1.37453,0 2.5,-1.12547 2.5,-2.5 0,-1.37453 -1.12547,-2.5 -2.5,-2.5 z m 2.5,2.5 c 0,1.37453 1.12547,2.5 2.5,2.5 1.37453,0 2.5,-1.12547 2.5,-2.5 0,-1.37453 -1.12547,-2.5 -2.5,-2.5 -1.37453,0 -2.5,1.12547 -2.5,2.5 z m 2.5,2.5 c -1.37453,0 -2.5,1.12547 -2.5,2.5 0,1.37453 1.12547,2.5 2.5,2.5 1.37453,0 2.5,-1.12547 2.5,-2.5 0,-1.37453 -1.12547,-2.5 -2.5,-2.5 z M 33.5,29 c 0,-1.37453 -1.12547,-2.5 -2.5,-2.5 -1.37453,0 -2.5,1.12547 -2.5,2.5 0,1.37453 1.12547,2.5 2.5,2.5 1.37453,0 2.5,-1.12547 2.5,-2.5 z m -5,-5 c 0,-1.37453 -1.12547,-2.5 -2.5,-2.5 -1.37453,0 -2.5,1.12547 -2.5,2.5 0,1.37453 1.12547,2.5 2.5,2.5 1.37453,0 2.5,-1.12547 2.5,-2.5 z m -5,0 c 0,-1.37453 -1.12547,-2.5 -2.5,-2.5 -1.37453,0 -2.5,1.12547 -2.5,2.5 0,1.37453 1.12547,2.5 2.5,2.5 1.37453,0 2.5,-1.12547 2.5,-2.5 z m -5,0 c 0,-1.37453 -1.12547,-2.5 -2.5,-2.5 -1.37453,0 -2.5,1.12547 -2.5,2.5 0,1.37453 1.12547,2.5 2.5,2.5 1.37453,0 2.5,-1.12547 2.5,-2.5 z M 16,26.5 c -1.37453,0 -2.5,1.12547 -2.5,2.5 0,1.37453 1.12547,2.5 2.5,2.5 1.37453,0 2.5,-1.12547 2.5,-2.5 0,-1.37453 -1.12547,-2.5 -2.5,-2.5 z M 13.5,29 c 0,-1.37453 -1.12547,-2.5 -2.5,-2.5 -1.37453,0 -2.5,1.12547 -2.5,2.5 0,1.37453 1.12547,2.5 2.5,2.5 1.37453,0 2.5,-1.12547 2.5,-2.5 z M 11,26.5 c 1.37453,0 2.5,-1.12547 2.5,-2.5 0,-1.37453 -1.12547,-2.5 -2.5,-2.5 -1.37453,0 -2.5,1.12547 -2.5,2.5 0,1.37453 1.12547,2.5 2.5,2.5 z m 5,-9 c 0.833468,0 1.5,0.666532 1.5,1.5 0,0.833468 -0.666532,1.5 -1.5,1.5 -0.833468,0 -1.5,-0.666532 -1.5,-1.5 0,-0.833468 0.666532,-1.5 1.5,-1.5 z m 5,0 c 0.833468,0 1.5,0.666532 1.5,1.5 0,0.833468 -0.666532,1.5 -1.5,1.5 -0.833468,0 -1.5,-0.666532 -1.5,-1.5 0,-0.833468 0.666532,-1.5 1.5,-1.5 z m 5,0 c 0.833468,0 1.5,0.666532 1.5,1.5 0,0.833468 -0.666532,1.5 -1.5,1.5 -0.833468,0 -1.5,-0.666532 -1.5,-1.5 0,-0.833468 0.666532,-1.5 1.5,-1.5 z m 5,0 c 0.833468,0 1.5,0.666532 1.5,1.5 0,0.833468 -0.666532,1.5 -1.5,1.5 -0.833468,0 -1.5,-0.666532 -1.5,-1.5 0,-0.833468 0.666532,-1.5 1.5,-1.5 z m -20,5 c 0.833468,0 1.5,0.666532 1.5,1.5 0,0.833468 -0.666532,1.5 -1.5,1.5 -0.833468,0 -1.5,-0.666532 -1.5,-1.5 0,-0.833468 0.666532,-1.5 1.5,-1.5 z m 5,0 c 0.833468,0 1.5,0.666532 1.5,1.5 0,0.833468 -0.666532,1.5 -1.5,1.5 -0.833468,0 -1.5,-0.666532 -1.5,-1.5 0,-0.833468 0.666532,-1.5 1.5,-1.5 z m 5,0 c 0.833468,0 1.5,0.666532 1.5,1.5 0,0.833468 -0.666532,1.5 -1.5,1.5 -0.833468,0 -1.5,-0.666532 -1.5,-1.5 0,-0.833468 0.666532,-1.5 1.5,-1.5 z m 5,0 c 0.833468,0 1.5,0.666532 1.5,1.5 0,0.833468 -0.666532,1.5 -1.5,1.5 -0.833468,0 -1.5,-0.666532 -1.5,-1.5 0,-0.833468 0.666532,-1.5 1.5,-1.5 z m 5,0 c 0.833468,0 1.5,0.666532 1.5,1.5 0,0.833468 -0.666532,1.5 -1.5,1.5 -0.833468,0 -1.5,-0.666532 -1.5,-1.5 0,-0.833468 0.666532,-1.5 1.5,-1.5 z m 5,0 c 0.833468,0 1.5,0.666532 1.5,1.5 0,0.833468 -0.666532,1.5 -1.5,1.5 -0.833468,0 -1.5,-0.666532 -1.5,-1.5 0,-0.833468 0.666532,-1.5 1.5,-1.5 z m -25,5 c 0.833468,0 1.5,0.666532 1.5,1.5 0,0.833468 -0.666532,1.5 -1.5,1.5 -0.833468,0 -1.5,-0.666532 -1.5,-1.5 0,-0.833468 0.666532,-1.5 1.5,-1.5 z m 5,0 c 0.833468,0 1.5,0.666532 1.5,1.5 0,0.833468 -0.666532,1.5 -1.5,1.5 -0.833468,0 -1.5,-0.666532 -1.5,-1.5 0,-0.833468 0.666532,-1.5 1.5,-1.5 z m 15,0 c 0.833468,0 1.5,0.666532 1.5,1.5 0,0.833468 -0.666532,1.5 -1.5,1.5 -0.833468,0 -1.5,-0.666532 -1.5,-1.5 0,-0.833468 0.666532,-1.5 1.5,-1.5 z m 5,0 c 0.833468,0 1.5,0.666532 1.5,1.5 0,0.833468 -0.666532,1.5 -1.5,1.5 -0.833468,0 -1.5,-0.666532 -1.5,-1.5 0,-0.833468 0.666532,-1.5 1.5,-1.5 z"
     id="path7" />
</svg>
