<?xml version="1.0" encoding="UTF-8" standalone="no"?>
<!-- Generator: Gravit.io -->

<svg
   style="isolation:isolate"
   viewBox="0 0 48 48"
   width="48pt"
   height="48pt"
   version="1.1"
   id="svg9"
   sodipodi:docname="bitwarden.svg"
   inkscape:version="1.1.2 (0a00cf5339, 2022-02-04)"
   xmlns:inkscape="http://www.inkscape.org/namespaces/inkscape"
   xmlns:sodipodi="http://sodipodi.sourceforge.net/DTD/sodipodi-0.dtd"
   xmlns:xlink="http://www.w3.org/1999/xlink"
   xmlns="http://www.w3.org/2000/svg"
   xmlns:svg="http://www.w3.org/2000/svg">
  <defs
     id="defs13">
    <linearGradient
       inkscape:collect="always"
       xlink:href="#_lgradient_0"
       id="linearGradient872"
       x1="-12.025727"
       y1="6.1170783"
       x2="-0.085100174"
       y2="6.1170783"
       gradientUnits="userSpaceOnUse"
       gradientTransform="matrix(3.8358211,0,0,3.8371386,-0.00544341,-0.00268054)" />
    <linearGradient
       id="_lgradient_10"
       x1="0"
       y1="0.5"
       x2="1"
       y2="0.5"
       gradientTransform="matrix(42.503,0,0,42.495,2.98,0.315)"
       gradientUnits="userSpaceOnUse">
      <stop
         offset="0%"
         stop-opacity="1"
         style="stop-color:rgb(84,51,255)"
         id="stop2-3" />
      <stop
         offset="51.73913043478261%"
         stop-opacity="1"
         style="stop-color:rgb(32,189,255)"
         id="stop4-6" />
      <stop
         offset="98.26086956521739%"
         stop-opacity="1"
         style="stop-color:rgb(165,254,203)"
         id="stop6" />
    </linearGradient>
    <linearGradient
       inkscape:collect="always"
       xlink:href="#_lgradient_0"
       id="linearGradient15"
       x1="-9.6850061"
       y1="45.161198"
       x2="11.98815"
       y2="21.735205"
       gradientUnits="userSpaceOnUse"
       gradientTransform="matrix(1.1147442,0,0,1.1150348,-0.01237238,-3.3277956)" />
    <linearGradient
       inkscape:collect="always"
       xlink:href="#_lgradient_0"
       id="linearGradient863"
       x1="11.702529"
       y1="27.161917"
       x2="36.297462"
       y2="27.161917"
       gradientUnits="userSpaceOnUse"
       gradientTransform="translate(4e-6,0.60394922)" />
  </defs>
  <sodipodi:namedview
     id="namedview11"
     pagecolor="#ffffff"
     bordercolor="#666666"
     borderopacity="1.0"
     inkscape:pageshadow="2"
     inkscape:pageopacity="0.0"
     inkscape:pagecheckerboard="0"
     inkscape:document-units="pt"
     showgrid="false"
     inkscape:zoom="10.21875"
     inkscape:cx="31.95107"
     inkscape:cy="32"
     inkscape:window-width="1600"
     inkscape:window-height="836"
     inkscape:window-x="0"
     inkscape:window-y="0"
     inkscape:window-maximized="1"
     inkscape:current-layer="svg9" />
  <linearGradient
     id="_lgradient_0"
     x1="0"
     y1="0.5"
     x2="0.9074880558539661"
     y2="0.9200778838291643"
     gradientTransform="matrix(24.594934,0,0,27.337269,11.702533,13.493349)"
     gradientUnits="userSpaceOnUse">
    <stop
       offset="0%"
       stop-opacity="1"
       style="stop-color:rgb(0,196,255)"
       id="stop2" />
    <stop
       offset="83.88839793817618%"
       stop-opacity="1"
       style="stop-color:rgb(0,114,255)"
       id="stop4" />
  </linearGradient>
  <rect
     x="-46.783188"
     y="1.2253767"
     width="45.801998"
     height="45.80014"
     rx="6.1837621"
     shape-rendering="crispEdges"
     id="rect5-6-7-3"
     ry="6.8055277"
     transform="matrix(0.00524063,-0.99998627,0.99998801,0.00489691,0,0)"
     style="isolation:isolate;fill:#00d3ff;fill-opacity:0.136073;stroke:url(#linearGradient872);stroke-width:2.0301;stroke-miterlimit:4;stroke-dasharray:none;stroke-opacity:1" />
  <rect
     x="-15.686804"
     y="17.260084"
     width="33.338203"
     height="33.345856"
     rx="6.7920032"
     shape-rendering="crispEdges"
     id="rect5-6-6-6-6"
     style="isolation:isolate;fill:#00d2ff;fill-opacity:0.133333;stroke:url(#linearGradient15);stroke-width:1.67233;stroke-miterlimit:4;stroke-dasharray:none;stroke-opacity:1"
     ry="7.4743071"
     transform="matrix(0.72446484,-0.68931175,0.68622417,0.72739012,0,0)" />
  <path
     style="color:#000000;fill:url(#linearGradient863);fill-rule:evenodd;-inkscape-stroke:none"
     d="m 16.390625,13.597656 c -0.947418,2.13e-4 -1.750161,2.97e-4 -2.337891,0.002 -0.587729,0.0017 -0.931146,0.0026 -1.064453,0.0078 h -0.0059 -0.0039 c -0.472726,0.02781 -0.922806,0.229905 -1.257813,0.574219 l -0.0039,0.0039 -0.002,0.002 c -0.328308,0.347067 -0.511719,0.807963 -0.511719,1.287109 v 4.78125 c 0,1.024775 0.84046,1.867188 1.865234,1.867188 1.024776,0 1.867188,-0.842413 1.867188,-1.867188 v -3.042968 c 0.117632,-0.0013 0.218175,-0.003 0.376953,-0.0039 0.50677,-0.0029 1.211649,-0.005 2.050781,-0.0039 1.678265,0.0022 3.895874,0.01326 6.152344,0.02734 4.298413,0.02684 8.450211,0.07057 9.548828,0.107422 v 7.691406 c -0.01354,1.343916 -0.249307,2.673585 -0.695312,3.939453 v 0.002 c -0.476878,1.371026 -1.139232,2.670396 -1.966797,3.855469 h -0.002 v 0.002 c -0.821224,1.192099 -1.800815,2.264334 -2.919922,3.191406 l -0.002,0.002 -0.0039,0.002 c -1.010097,0.854697 -2.165601,1.528879 -3.402343,2.013671 -0.174189,-0.09052 -0.350742,-0.180287 -0.517579,-0.285156 v -0.002 c -0.441389,-0.276692 -0.867626,-0.578165 -1.265625,-0.904297 h -0.002 c -0.930751,-0.764662 -1.788698,-1.623773 -2.552734,-2.560547 l -0.002,-0.002 v -0.002 c -0.835379,-1.002455 -1.58481,-2.077882 -2.240235,-3.214844 l -0.002,-0.002 v -0.002 C 16.858911,29.98788 16.34116,28.844576 15.949219,27.662109 l -0.423828,-1.277343 c -0.322859,-0.973216 -1.387942,-1.508463 -2.361328,-1.185547 -0.973216,0.322859 -1.508463,1.387942 -1.185547,2.361328 l 0.398437,1.201172 v 0.0078 l 0.02734,0.07813 c 0.482069,1.425249 1.104304,2.794484 1.859375,4.087891 0.751962,1.31542 1.620452,2.56815 2.58789,3.730469 0.921231,1.116509 1.949159,2.149395 3.076172,3.066406 0.521746,0.42984 1.070809,0.82629 1.648438,1.185547 0.544274,0.343554 1.123114,0.634808 1.720703,0.876953 0.431433,0.1782 0.91747,0.186823 1.359375,0.01758 l 0.609375,-0.226563 h 0.01758 l 0.08594,-0.0332 c 1.636475,-0.63484 3.159341,-1.538042 4.505859,-2.666015 1.373406,-1.142343 2.579051,-2.46591 3.587891,-3.929688 l 0.002,-0.002 c 1.022804,-1.464579 1.833556,-3.061991 2.421875,-4.742187 0.585208,-1.656918 0.89604,-3.398861 0.910156,-5.15625 v -0.002 -0.01563 -8.240234 c 0,-0.859769 -0.267534,-1.642008 -0.732422,-2.224609 -0.464887,-0.582602 -1.150601,-0.967424 -1.912109,-0.945313 -0.808751,-0.007 -5.890321,-0.02052 -10.888672,-0.02734 -2.50321,-0.0034 -4.97821,-0.0043 -6.873047,-0.0039 z m 0,1 c 1.893889,-4.26e-4 4.370168,4.9e-4 6.873047,0.0039 5.005757,0.0068 10.130112,0.02063 10.898437,0.02734 h 0.0098 l 0.0078,-0.002 c 0.414949,-0.01205 0.794785,0.185856 1.101563,0.570313 0.306778,0.384456 0.515625,0.952844 0.515625,1.601562 v 8.240234 0.01367 c -0.01364,1.643598 -0.303104,3.273306 -0.851563,4.826172 v 0.002 h -0.002 c -0.559084,1.597384 -1.329882,3.114058 -2.300781,4.503907 l -0.002,0.002 v 0.002 c -0.95816,1.390662 -2.10272,2.646411 -3.40625,3.730469 v 0.002 h -0.002 c -1.255172,1.051454 -2.674908,1.890079 -4.197266,2.484375 l -0.734375,0.273437 h -0.002 c -0.200296,0.07671 -0.423991,0.0736 -0.621094,-0.0078 v -0.002 h -0.002 c -0.54792,-0.221778 -1.07606,-0.487903 -1.568359,-0.798829 v -0.002 h -0.002 c -0.54158,-0.336836 -1.056532,-0.706782 -1.544922,-1.109375 l -0.002,-0.002 c -1.072506,-0.87266 -2.053377,-1.86039 -2.935547,-2.929687 h -0.002 v -0.002 c -0.930915,-1.118437 -1.768947,-2.324172 -2.492188,-3.589844 l -0.002,-0.002 v -0.002 c -0.718424,-1.230634 -1.30939,-2.534891 -1.769531,-3.892579 l -0.429688,-1.294921 c -0.152586,-0.459951 0.09066,-0.943061 0.550782,-1.095704 0.459949,-0.152585 0.945013,0.09066 1.097656,0.550782 L 15,27.976562 c 0.414226,1.249698 0.960212,2.456782 1.626953,3.59375 0.683117,1.184508 1.46426,2.307501 2.335938,3.353516 0.80635,0.98821 1.710697,1.889731 2.691406,2.695313 v 0.002 c 0.435147,0.356679 0.895504,0.681609 1.36914,0.978515 0.252162,0.158502 0.520629,0.311684 0.802735,0.445313 l 0.189453,0.08984 L 24.386719,39 l 0.0059,-0.002 c 1.354524,-0.524789 2.616273,-1.26986 3.724609,-2.207031 1.189367,-0.985275 2.230746,-2.124147 3.103516,-3.390625 l 0.002,-0.002 c 0.879379,-1.259694 1.583259,-2.637804 2.089844,-4.09375 v -0.002 c 0.482291,-1.369491 0.73776,-2.810417 0.751953,-4.265625 v -0.002 -8.664062 l -0.476562,-0.02344 c -0.926132,-0.04428 -5.550966,-0.08704 -10.066407,-0.115234 -2.25772,-0.0141 -4.475345,-0.0251 -6.15625,-0.02734 -0.840452,-0.0011 -1.545508,9.71e-4 -2.05664,0.0039 -0.255566,0.0015 -0.463198,0.0032 -0.615235,0.0059 -0.152036,0.0027 -0.182472,-0.0071 -0.328125,0.01367 l -0.429687,0.0625 v 3.964843 c 0,0.483713 -0.383475,0.867188 -0.867188,0.867188 -0.483711,0 -0.865234,-0.383476 -0.865234,-0.867188 v -4.78125 c 0,-0.216853 0.08747,-0.43928 0.236328,-0.597656 0.156761,-0.160126 0.374407,-0.256396 0.597656,-0.269531 0.04892,-0.0017 0.438959,-0.0062 1.019532,-0.0078 0.586132,-0.0017 1.387039,-0.0017 2.333984,-0.002 z m 7.951172,3.333985 c -0.647662,0 -1.183594,0.535944 -1.183594,1.183593 v 8.826172 7.228516 c 0,0.547936 0.294274,1.055104 0.769531,1.328125 l 0.0059,0.0039 0.0059,0.0039 c 0.48036,0.260189 1.066253,0.251331 1.535156,-0.0332 1.73786,-1.054598 3.155796,-3.02599 4.3125,-4.466797 l 0.002,-0.002 0.002,-0.002 c 0.577166,-0.736507 1.071817,-1.517729 1.441406,-2.173828 0.369588,-0.656099 0.604048,-1.1319 0.699219,-1.472656 v -0.002 c 0.101043,-0.363209 0.194509,-0.701141 0.265625,-0.955079 0.07112,-0.253937 0.130015,-0.460305 0.123046,-0.4375 l 0.01172,-0.03516 0.02539,-0.162109 v -1.5 -6.148438 c 0,-0.647652 -0.53594,-1.183593 -1.183594,-1.183593 z m 0,1 h 6.832031 c 0.106591,0 0.183594,0.077 0.183594,0.183593 v 6.148438 1.423828 l -0.002,0.01758 c -0.0225,0.07559 -0.05548,0.189523 -0.121094,0.423828 -0.07133,0.254699 -0.164443,0.593324 -0.265625,0.957031 -0.0237,0.08487 -0.258976,0.633387 -0.607422,1.251954 -0.348446,0.618566 -0.820986,1.362343 -1.357422,2.046875 -1.179161,1.469003 -2.588722,3.34756 -4.046875,4.232421 -0.15761,0.09594 -0.361496,0.09937 -0.535156,0.0078 -0.163027,-0.0967 -0.263672,-0.267671 -0.263672,-0.455078 v -7.228516 -8.826172 c 0,-0.10659 0.077,-0.183593 0.183594,-0.183593 z m 0.865234,1.050781 v 0.5 7.458984 6.304688 l 0.816406,-0.66211 c 0.46559,-0.378292 0.843085,-0.910903 1.199219,-1.443359 0.356135,-0.532456 0.686494,-1.069483 0.960938,-1.414063 v -0.002 h 0.002 c 0.954814,-1.218456 1.651899,-2.55707 1.910156,-3.441406 0.12611,-0.434005 0.210938,-1.025309 0.210938,-1.478516 v -5.822265 z m 1,1 h 3.09961 v 4.822265 c 0,0.301037 -0.08756,0.909041 -0.171875,1.199219 -0.193216,0.660181 -0.860843,1.986292 -1.736329,3.103516 -0.33955,0.426953 -0.667913,0.968381 -1.007812,1.476562 -0.06257,0.09354 -0.120352,0.134827 -0.183594,0.22461 v -3.867188 z"
     id="path7" />
</svg>
