<?xml version="1.0" encoding="UTF-8" standalone="no"?>
<!-- Generator: Gravit.io -->

<svg
   style="isolation:isolate"
   viewBox="0 0 48 48"
   width="48pt"
   height="48pt"
   version="1.1"
   id="svg16"
   sodipodi:docname="blender.svg"
   inkscape:version="1.1.2 (0a00cf5339, 2022-02-04)"
   xmlns:inkscape="http://www.inkscape.org/namespaces/inkscape"
   xmlns:sodipodi="http://sodipodi.sourceforge.net/DTD/sodipodi-0.dtd"
   xmlns:xlink="http://www.w3.org/1999/xlink"
   xmlns="http://www.w3.org/2000/svg"
   xmlns:svg="http://www.w3.org/2000/svg">
  <defs
     id="defs20">
    <linearGradient
       inkscape:collect="always"
       xlink:href="#_lgradient_26"
       id="linearGradient15"
       x1="-9.6850061"
       y1="45.161198"
       x2="11.98815"
       y2="21.735205"
       gradientUnits="userSpaceOnUse"
       gradientTransform="matrix(1.1147442,0,0,1.1150348,-0.01237238,-3.3277956)" />
    <linearGradient
       id="_lgradient_1"
       x1="0"
       y1="0.5"
       x2="1"
       y2="0.5"
       gradientTransform="matrix(48,0,0,46.985,0.495,0.559)"
       gradientUnits="userSpaceOnUse">
      <stop
         offset="0%"
         stop-opacity="1"
         style="stop-color:rgb(255,229,59)"
         id="stop2-3" />
      <stop
         offset="98.69565217391305%"
         stop-opacity="1"
         style="stop-color:rgb(255,0,91)"
         id="stop4-6" />
    </linearGradient>
    <linearGradient
       inkscape:collect="always"
       xlink:href="#_lgradient_26"
       id="linearGradient872"
       x1="-12.025727"
       y1="6.1170783"
       x2="-0.085100174"
       y2="6.1170783"
       gradientUnits="userSpaceOnUse"
       gradientTransform="matrix(3.8358211,0,0,3.8371386,-0.00544341,-0.00268054)" />
    <linearGradient
       inkscape:collect="always"
       xlink:href="#_lgradient_26"
       id="linearGradient867"
       x1="8.4840965"
       y1="23.655022"
       x2="37.960274"
       y2="23.655022"
       gradientUnits="userSpaceOnUse" />
    <linearGradient
       inkscape:collect="always"
       xlink:href="#_lgradient_27"
       id="linearGradient1756"
       x1="24.805046"
       y1="26.788473"
       x2="29.42765"
       y2="26.788473"
       gradientUnits="userSpaceOnUse" />
  </defs>
  <sodipodi:namedview
     id="namedview18"
     pagecolor="#ffffff"
     bordercolor="#666666"
     borderopacity="1.0"
     inkscape:pageshadow="2"
     inkscape:pageopacity="0.0"
     inkscape:pagecheckerboard="0"
     inkscape:document-units="pt"
     showgrid="false"
     inkscape:zoom="5.109375"
     inkscape:cx="21.626911"
     inkscape:cy="20.844037"
     inkscape:window-width="1056"
     inkscape:window-height="545"
     inkscape:window-x="272"
     inkscape:window-y="140"
     inkscape:window-maximized="0"
     inkscape:current-layer="svg16" />
  <linearGradient
     id="_lgradient_26"
     x1="0"
     y1="0.5"
     x2="1"
     y2="0.5"
     gradientTransform="matrix(29.476363,0,0,27.92713,8.4838725,9.6914423)"
     gradientUnits="userSpaceOnUse">
    <stop
       offset="0%"
       stop-opacity="1"
       style="stop-color:rgb(255,224,49)"
       id="stop2" />
    <stop
       offset="98.69565217391305%"
       stop-opacity="1"
       style="stop-color:rgb(252,82,82)"
       id="stop4" />
  </linearGradient>
  <rect
     x="-46.783188"
     y="1.2253767"
     height="45.80014"
     rx="6.1837621"
     shape-rendering="crispEdges"
     id="rect5-6-7-3"
     ry="6.8055277"
     transform="matrix(0.00524063,-0.99998627,0.99998801,0.00489691,0,0)"
     style="isolation:isolate;fill:#ff0045;fill-opacity:0.134703;stroke:url(#linearGradient872);stroke-width:2.0301;stroke-miterlimit:4;stroke-dasharray:none;stroke-opacity:1"
     width="45.801998" />
  <rect
     x="-15.686804"
     y="17.260084"
     height="33.345856"
     rx="6.7920032"
     shape-rendering="crispEdges"
     id="rect5-6-6-6-6"
     style="isolation:isolate;fill:#ff0045;fill-opacity:0.134703;stroke:url(#linearGradient15);stroke-width:1.67233;stroke-miterlimit:4;stroke-dasharray:none;stroke-opacity:1"
     ry="7.4743071"
     transform="matrix(0.72446484,-0.68931175,0.68622417,0.72739012,0,0)"
     width="33.338203" />
  <linearGradient
     id="_lgradient_27"
     x1="-0.000038208333333289435"
     y1="0.5000000833333331"
     x2="0.9999618333333335"
     y2="0.5000000833333331"
     gradientTransform="matrix(4.6226037,0,0,4.6226037,24.804965,24.477171)"
     gradientUnits="userSpaceOnUse">
    <stop
       offset="0%"
       stop-opacity="1"
       style="stop-color:rgb(0,198,255)"
       id="stop9" />
    <stop
       offset="98.69565217391305%"
       stop-opacity="1"
       style="stop-color:rgb(0,114,255)"
       id="stop11" />
  </linearGradient>
  <path
     style="color:#000000;vector-effect:non-scaling-stroke;fill:url(#linearGradient1756);-inkscape-stroke:none"
     d="m 27.117187,23.976562 c -1.546715,0 -2.8125,1.265785 -2.8125,2.8125 0,1.546716 1.265785,2.810547 2.8125,2.810547 1.546716,0 2.810547,-1.263831 2.810547,-2.810547 0,-1.546715 -1.263831,-2.8125 -2.810547,-2.8125 z m 0,1 c 1.006276,0 1.810547,0.806225 1.810547,1.8125 0,1.006276 -0.804271,1.810547 -1.810547,1.810547 -1.006275,0 -1.8125,-0.804271 -1.8125,-1.810547 0,-1.006275 0.806225,-1.8125 1.8125,-1.8125 z"
     id="circle14" />
  <path
     style="color:#000000;fill:url(#linearGradient867);fill-rule:evenodd;-inkscape-stroke:none"
     d="m 21.431641,9.2089844 c -0.484583,0.062024 -0.9458,0.3088435 -1.265625,0.7226562 l -0.09375,0.1210934 c -0.63958,0.827536 -0.486196,2.032833 0.341796,2.671875 l 2.490235,1.923829 -11.083984,0.07226 c -0.995676,0.0063 -1.806927,0.830853 -1.798829,1.826172 l 0.002,0.265625 c 0.0082,0.995779 0.832662,1.807097 1.828125,1.800781 l 7.171874,-0.04492 -10.2011714,8.240235 c -0.8880239,0.718278 -1.1285413,1.999404 -0.4335937,2.859375 0.6947576,0.859785 1.9957321,0.897891 2.8886721,0.185547 l 4.568359,-3.648438 c -0.01016,0.195597 -0.04492,0.38726 -0.04492,0.583984 0,1.333238 0.232422,2.623047 0.232422,2.623047 l 0.0059,0.04297 0.01563,0.04102 c 0.33669,0.924036 1.390507,1.378397 2.320313,1.037109 0.435208,-0.159743 0.791321,-0.430796 1.023437,-0.777344 0.232117,-0.346548 0.338433,-0.800484 0.183594,-1.224609 l 0.02344,0.08398 c 0,0 -0.164063,-0.92139 -0.164063,-1.826172 0,-2.039896 0.812473,-3.993767 2.251953,-5.439453 1.445491,-1.438265 3.398524,-2.25 5.4375,-2.25 2.039897,0 3.991816,0.812473 5.4375,2.251953 1.438265,1.445492 2.25,3.398525 2.25,5.4375 0,2.039896 -0.812472,3.991815 -2.251953,5.4375 -1.445568,1.438751 -3.396203,2.25 -5.435547,2.25 -1.013957,0 -2.026839,-0.202722 -2.84375,-0.474609 -0.81691,-0.271886 -1.455268,-0.647461 -1.632812,-0.824219 -0.708015,-0.705357 -1.869838,-0.702771 -2.572266,0.0078 -0.702212,0.710333 -0.698238,1.870885 0.0098,2.576172 1.260618,1.256783 4.054314,2.357422 7.039062,2.357422 3.005182,0 5.884478,-1.196072 8.011719,-3.316407 h 0.002 c 2.120335,-2.12724 3.316406,-5.00849 3.316406,-8.013672 0,-3.005182 -1.196071,-5.886431 -3.316406,-8.013671 v -0.002 c -1.031292,-1.028529 -2.240915,-1.838134 -3.554687,-2.40039 L 31.699219,16.4375 22.837891,9.5898438 C 22.424123,9.2700535 21.916223,9.1469609 21.431641,9.2089844 Z m 0.125,0.9863286 c 0.228783,-0.02927 0.470204,0.03119 0.669921,0.185546 l 8.910157,6.886719 0.05859,0.02539 c 1.198281,0.512829 2.301612,1.251396 3.242188,2.189453 1.933128,1.940454 3.023438,4.567511 3.023437,7.30664 0,2.739128 -1.090309,5.364234 -3.023437,7.304688 -3.91e-4,3.9e-4 -0.0016,-3.9e-4 -0.002,0 -3.9e-4,3.91e-4 3.9e-4,0.0016 0,0.002 -1.940455,1.933128 -4.56556,3.023438 -7.304688,3.023438 -2.720859,0 -5.422669,-1.159812 -6.332031,-2.066407 -0.324817,-0.32357 -0.327272,-0.838932 -0.0059,-1.164062 0.321149,-0.324879 0.82949,-0.325541 1.154297,-0.002 0.418771,0.416915 1.114632,0.761982 2.023437,1.064453 0.908805,0.302471 2.0147,0.52539 3.160156,0.52539 2.305347,0 4.512887,-0.918326 6.144532,-2.542968 1.624642,-1.631645 2.542968,-3.839185 2.542968,-6.144532 0,-2.305347 -0.918326,-4.512886 -2.542968,-6.144531 v -0.002 c -1.631645,-1.624642 -3.839185,-2.542969 -6.144532,-2.542969 -2.305347,0 -4.512886,0.918327 -6.144531,2.542969 h -0.002 v 0.002 c -1.624642,1.631645 -2.542969,3.839184 -2.542969,6.144531 0,1.023503 0.179688,2.003907 0.179688,2.003907 l 0.0078,0.04102 0.01563,0.04102 c 0.02742,0.07512 0.02157,0.178295 -0.07617,0.324219 -0.09774,0.145924 -0.288805,0.302674 -0.539062,0.394531 -0.433585,0.159148 -0.865787,-0.05133 -1.017578,-0.433594 -0.01266,-0.07309 -0.210938,-1.193103 -0.210938,-2.371094 0,-0.543638 0.04123,-1.08491 0.125,-1.615234 l 0.201172,-1.271484 -6.472656,5.169922 C 10.136682,29.485194 9.4776638,29.424738 9.1660156,29.039062 8.8544314,28.653489 8.9365672,28.002176 9.4511719,27.585937 L 21.875,17.548828 l -1.429688,0.0098 -8.601562,0.05469 c -0.454712,0.0029 -0.816588,-0.354198 -0.820312,-0.808594 l -0.0039,-0.267578 c -0.0037,-0.454855 0.352141,-0.813508 0.806641,-0.816406 l 14.086495,-0.137721 -4.887276,-3.649385 c -0.398979,-0.307931 -0.470823,-0.870096 -0.16211,-1.269531 l 0.0957,-0.123047 c 0.154211,-0.198275 0.369754,-0.316543 0.597657,-0.345703 z m 5.574218,9.820312 c -1.79641,0 -3.521538,0.712945 -4.791015,1.982422 -1.269477,1.269477 -1.982422,2.994604 -1.982422,4.791015 0,1.796411 0.712945,3.521539 1.982422,4.791016 1.269477,1.269477 2.994605,1.982422 4.791015,1.982422 1.796412,0 3.521539,-0.712945 4.791016,-1.982422 1.269477,-1.269477 1.982422,-2.994605 1.982422,-4.791016 0,-1.796411 -0.712945,-3.521538 -1.982422,-4.791015 -1.269477,-1.269477 -2.994604,-1.982422 -4.791016,-1.982422 z m 0,1 c 1.531862,0 3.00254,0.608008 4.083985,1.689453 1.081445,1.081445 1.689453,2.552123 1.689453,4.083984 0,1.531861 -0.608008,3.00254 -1.689453,4.083985 -1.081445,1.081445 -2.552123,1.689453 -4.083985,1.689453 -1.53186,0 -3.002539,-0.608008 -4.083984,-1.689453 -1.081445,-1.081445 -1.689453,-2.552124 -1.689453,-4.083985 0,-1.531861 0.608008,-3.002539 1.689453,-4.083984 1.081445,-1.081445 2.552124,-1.689453 4.083984,-1.689453 z m 0,0.980469 c -1.269559,0 -2.491442,0.508577 -3.390625,1.40039 h -0.002 v 0.002 c -0.891812,0.899183 -1.40039,2.121066 -1.40039,3.390625 0,1.269559 0.508578,2.489489 1.40039,3.388672 v 0.002 l 0.002,0.002 c 0.899183,0.891812 2.121066,1.398437 3.390625,1.398437 1.26956,0 2.489489,-0.506625 3.388672,-1.398437 l 0.002,-0.002 0.002,-0.002 c 0.891813,-0.899183 1.398438,-2.119113 1.398438,-3.388672 0,-1.269559 -0.506625,-2.491442 -1.398438,-3.390625 l -0.002,-0.002 h -0.002 c -0.899183,-0.891813 -2.119112,-1.40039 -3.388672,-1.40039 z m 0,1 c 1.000653,0 1.969802,0.403052 2.681641,1.107422 0.706286,0.712122 1.109375,1.683429 1.109375,2.685546 0,1.002117 -0.403089,1.973424 -1.109375,2.685547 -0.711767,0.703891 -1.681353,1.105469 -2.681641,1.105469 -1.002118,0 -1.973423,-0.403089 -2.685547,-1.109375 -0.704368,-0.711839 -1.107421,-1.680989 -1.107421,-2.681641 0,-1.002117 0.403089,-1.973424 1.109375,-2.685546 0.711945,-0.705088 1.682392,-1.107422 2.683593,-1.107422 z"
     id="path7"
     sodipodi:nodetypes="scccccccccccccscccssccscscscsscccsccscccccscccccssscscccsscsccscccscccsscsccccccccccccccsccssssssssssssssssssscccscccscccscccsscscscscs" />
</svg>
