<?xml version="1.0" encoding="UTF-8" standalone="no"?>
<!-- Generator: Gravit.io -->

<svg
   style="isolation:isolate"
   viewBox="0 0 48 48"
   width="48pt"
   height="48pt"
   version="1.1"
   id="svg9"
   sodipodi:docname="blockbench.svg"
   inkscape:version="1.1.2 (0a00cf5339, 2022-02-04)"
   xmlns:inkscape="http://www.inkscape.org/namespaces/inkscape"
   xmlns:sodipodi="http://sodipodi.sourceforge.net/DTD/sodipodi-0.dtd"
   xmlns:xlink="http://www.w3.org/1999/xlink"
   xmlns="http://www.w3.org/2000/svg"
   xmlns:svg="http://www.w3.org/2000/svg">
  <defs
     id="defs13">
    <linearGradient
       inkscape:collect="always"
       xlink:href="#_lgradient_0"
       id="linearGradient15"
       x1="-9.6850061"
       y1="45.161198"
       x2="11.98815"
       y2="21.735205"
       gradientUnits="userSpaceOnUse"
       gradientTransform="matrix(1.1147442,0,0,1.1150348,-0.01237237,-3.3277956)" />
    <linearGradient
       id="_lgradient_1"
       x1="0"
       y1="0.5"
       x2="1"
       y2="0.5"
       gradientTransform="matrix(48,0,0,46.985,0.495,0.559)"
       gradientUnits="userSpaceOnUse">
      <stop
         offset="0%"
         stop-opacity="1"
         style="stop-color:rgb(255,229,59)"
         id="stop2-3" />
      <stop
         offset="98.69565217391305%"
         stop-opacity="1"
         style="stop-color:rgb(255,0,91)"
         id="stop4-6" />
    </linearGradient>
    <linearGradient
       inkscape:collect="always"
       xlink:href="#_lgradient_0"
       id="linearGradient872"
       x1="-12.025727"
       y1="6.1170783"
       x2="-0.085100174"
       y2="6.1170783"
       gradientUnits="userSpaceOnUse"
       gradientTransform="matrix(3.8358211,0,0,3.8371386,-0.00544339,-0.00268054)" />
    <linearGradient
       inkscape:collect="always"
       xlink:href="#_lgradient_0"
       id="linearGradient1040"
       x1="9.7601795"
       y1="24"
       x2="38.239819"
       y2="24"
       gradientUnits="userSpaceOnUse" />
  </defs>
  <sodipodi:namedview
     id="namedview11"
     pagecolor="#ffffff"
     bordercolor="#666666"
     borderopacity="1.0"
     inkscape:pageshadow="2"
     inkscape:pageopacity="0.0"
     inkscape:pagecheckerboard="0"
     inkscape:document-units="pt"
     showgrid="false"
     inkscape:zoom="5.109375"
     inkscape:cx="32"
     inkscape:cy="32"
     inkscape:window-width="1056"
     inkscape:window-height="545"
     inkscape:window-x="260"
     inkscape:window-y="172"
     inkscape:window-maximized="0"
     inkscape:current-layer="svg9" />
  <linearGradient
     id="_lgradient_0"
     x1="0"
     y1="0.5"
     x2="1"
     y2="0.5"
     gradientTransform="matrix(28.479644,0,0,29.609303,9.7601798,9.1953481)"
     gradientUnits="userSpaceOnUse">
    <stop
       offset="0%"
       stop-opacity="1"
       style="stop-color:rgb(178,254,250)"
       id="stop2" />
    <stop
       offset="98.26086956521739%"
       stop-opacity="1"
       style="stop-color:rgb(14,210,247)"
       id="stop4" />
  </linearGradient>
  <rect
     x="-46.783188"
     y="1.2253767"
     height="45.80014"
     rx="6.1837621"
     shape-rendering="crispEdges"
     id="rect5-6-7-3"
     ry="6.8055277"
     transform="matrix(0.00524063,-0.99998627,0.99998801,0.00489691,0,0)"
     style="isolation:isolate;fill:#00ffc5;fill-opacity:0.13470298;stroke:url(#linearGradient872);stroke-width:2.0301;stroke-miterlimit:4;stroke-dasharray:none;stroke-opacity:1"
     width="45.801998" />
  <rect
     x="-15.686803"
     y="17.260084"
     height="33.345856"
     rx="6.7920032"
     shape-rendering="crispEdges"
     id="rect5-6-6-6-6"
     style="isolation:isolate;fill:#00ffc5;fill-opacity:0.13470298;stroke:url(#linearGradient15);stroke-width:1.67233;stroke-miterlimit:4;stroke-dasharray:none;stroke-opacity:1"
     ry="7.4743071"
     transform="matrix(0.72446484,-0.68931175,0.68622417,0.72739012,0,0)"
     width="33.338203" />
  <path
     style="color:#000000;fill:url(#linearGradient1040);fill-rule:evenodd;-inkscape-stroke:none"
     d="m 24.564453,8.6953125 c -4.058179,0 -7.950369,1.6103045 -10.818359,4.4843755 C 10.871346,16.04778 9.2597656,19.941313 9.2597656,24 c 0,4.058687 1.6115804,7.95222 4.4863284,10.820312 2.86799,2.874071 6.76018,4.484375 10.818359,4.484375 2.987522,0 5.914979,-0.878413 8.410156,-2.521484 2.500721,-1.642761 4.458202,-3.978749 5.642578,-6.724609 0.322087,-0.735643 -0.02351,-1.608021 -0.761718,-1.925782 -0.73817,-0.317742 -1.609503,0.0283 -1.925782,0.767579 -0.959291,2.214834 -2.543917,4.107729 -4.566406,5.4375 -2.01697,1.323609 -4.380677,2.035156 -6.798828,2.035156 -3.278799,0 -6.427899,-1.304853 -8.748047,-3.625 -1.641482,-1.641482 -2.549569,-3.754798 -3.072265,-5.978516 0.08319,0.126392 0.07704,0.299726 0.216797,0.369141 0.129064,0.06387 0.250838,0.102803 0.382812,0.140625 0.09703,0.02781 0.215846,0.0637 0.25,0.07422 h 0.002 c 0.05442,0.01649 0.139378,0.04093 0.212891,0.06055 0.183709,0.04931 0.686958,0.189311 0.871094,0.242188 0.05814,0.01661 0.156488,0.04369 0.224609,0.0625 0.06593,0.01839 0.161541,0.04662 0.210937,0.06055 0.157824,0.04509 0.751835,0.21008 0.876954,0.24414 l -0.002,-0.002 c 0.04927,0.01353 0.194284,0.05526 0.304688,0.08789 h 0.002 v 0.002 c 0.111198,0.03222 0.297526,0.08586 0.410156,0.119141 0.113903,0.03365 0.252306,0.07411 0.332031,0.0957 -0.002,0.0032 -0.0059,0.0086 -0.0078,0.01172 -0.02105,0.03391 -0.03817,0.06383 -0.05859,0.101562 -0.04084,0.07547 -0.08887,0.173526 -0.146484,0.289063 -0.115223,0.231074 -0.261891,0.533562 -0.40625,0.839843 -0.14436,0.306282 -0.286522,0.614873 -0.394531,0.857422 -0.054,0.121275 -0.09866,0.225191 -0.132813,0.308594 -0.01708,0.0417 -0.03203,0.07692 -0.04492,0.113281 -0.0064,0.01818 -0.01251,0.03741 -0.01953,0.0625 -0.007,0.02509 -0.02148,0.03611 -0.02148,0.150391 0,0.364124 0.151194,0.60934 0.49414,0.757812 v 0.002 c 0.07253,0.03136 0.181398,0.07882 0.332031,0.08008 0.150634,0.0013 0.245542,-0.03791 0.324219,-0.06641 l 0.002,-0.002 c 0.02072,-0.0076 0.235167,-0.07704 0.40625,-0.128906 0.180226,-0.05374 0.431098,-0.130284 0.564453,-0.171875 0.22543,-0.07025 0.37372,-0.11608 0.978516,-0.296875 h 0.002 c 0.253941,-0.07605 0.460296,-0.140773 0.621094,-0.195313 0.160798,-0.05454 0.240684,-0.07116 0.384766,-0.15625 0.220608,-0.129767 0.328261,-0.300834 0.4375,-0.498046 0.109239,-0.197213 0.207377,-0.433283 0.30664,-0.71875 0.02845,-0.08162 0.06552,-0.117555 0.07031,-0.296875 3e-5,-0.0011 -0.002,-0.0028 -0.002,-0.0039 0.751916,0.211804 1.594547,0.446204 1.755859,0.496094 0.162287,0.04973 0.343802,0.104647 0.421875,0.126953 h 0.002 0.002 c 0.05686,0.01586 0.174979,0.05234 0.246094,0.07422 0.09764,0.03094 0.232607,0.06824 0.345703,0.0957 0.09634,0.02393 0.226759,0.05799 0.255859,0.06641 0.0576,0.01698 0.145734,0.04176 0.207032,0.05859 0.04261,0.01171 0.243264,0.069 0.417968,0.121094 0.461955,0.13781 0.67888,0.19957 0.894532,0.251953 h 0.002 c 0.04196,0.01 0.192243,0.05187 0.294922,0.08203 0.116835,0.03456 0.356408,0.100342 0.542968,0.152344 0.179728,0.04992 0.40171,0.115943 0.447266,0.130859 0.106755,0.03496 0.268096,0.07843 0.416016,0.115235 v 0.002 c 0.08608,0.02132 0.386864,0.105417 0.654297,0.18164 -0.0091,0.0082 -0.02781,0.01161 -0.03516,0.01953 -0.200836,0.215443 -0.183375,0.309607 -0.339843,0.738281 -0.03012,0.08225 -0.08549,0.226427 -0.115235,0.298828 -0.0426,0.101901 -0.07951,0.197229 -0.107422,0.294922 v 0.002 c 0.0038,-0.0136 -0.0589,0.172861 -0.109375,0.306641 -0.05365,0.143295 -0.103236,0.277584 -0.126953,0.347656 v 0.002 l -0.002,0.002 c -5.24e-4,0.0016 -0.06119,0.174684 -0.113281,0.314453 -0.05584,0.14901 -0.117453,0.348042 -0.169922,0.533203 -0.02632,0.09289 -0.05027,0.179051 -0.06836,0.253907 -0.009,0.03743 -0.01679,0.07264 -0.02344,0.107422 -0.0065,0.03393 -0.01732,0.0438 -0.01367,0.154296 0.0055,0.19446 0.07101,0.266263 0.115235,0.330079 0.04422,0.06381 0.08654,0.109366 0.132812,0.152343 0.09254,0.08595 0.183871,0.159829 0.34375,0.216797 h 0.002 0.002 c 0.08194,0.02854 0.197976,0.07403 0.351563,0.06836 0.152764,-0.0056 0.239606,-0.04494 0.34375,-0.08008 0.145502,-0.04862 0.278585,-0.113641 0.490234,-0.214843 0.211649,-0.101203 0.46913,-0.229949 0.732422,-0.363282 0.526584,-0.266664 1.060897,-0.545592 1.330078,-0.708984 0.215397,-0.130951 0.551282,-0.323118 0.714844,-0.410156 0.09306,-0.04952 0.185142,-0.09901 0.259766,-0.140625 0.07462,-0.04162 0.106133,-0.05556 0.179687,-0.105469 l 0.002,-0.002 0.002,-0.002 c 0.291278,-0.202226 0.403596,-0.505817 0.478516,-0.841797 v -0.002 c 0.03371,-0.152031 0.083,-0.364689 0.107422,-0.472656 0.02549,-0.112709 0.05766,-0.261764 0.07422,-0.341797 0.0107,-0.0517 0.07358,-0.332386 0.132812,-0.583985 0.03108,-0.131998 0.059,-0.26105 0.08008,-0.365234 0.01054,-0.05209 0.02043,-0.0961 0.02734,-0.136719 0.0069,-0.04062 0.01563,-0.04113 0.01563,-0.15039 0,-0.107244 -0.04256,-0.253488 -0.144531,-0.38086 0.107634,-0.05352 0.176994,-0.08573 0.287109,-0.140625 1.69675,-0.845961 2.5072,-1.246163 2.935547,-1.490234 0.214174,-0.122036 0.344015,-0.187622 0.478516,-0.361328 0.06725,-0.08685 0.119687,-0.219406 0.132812,-0.314453 0.01313,-0.09505 0.0059,-0.13833 0.0059,-0.148438 0,0.01321 0.0027,0.0094 0.0039,-0.04297 0.0012,-0.05238 -0.0049,-0.17963 -0.07813,-0.304687 -0.09094,-0.155359 -0.186516,-0.14879 -0.283203,-0.183594 0.109238,0.01252 0.295972,0.04 0.375,0.04297 0.09366,0.0035 0.192302,0.0094 0.33789,-0.05078 0.144504,-0.0597 0.255418,-0.201267 0.279297,-0.238282 0.128142,-0.198882 0.112744,-0.265509 0.152344,-0.441406 0.0395,-0.175469 0.08714,-0.420025 0.152344,-0.771484 v -0.002 c 0.0372,-0.198174 0.09868,-0.522845 0.136718,-0.71875 v -0.002 c 0.03862,-0.199537 0.100175,-0.517123 0.136719,-0.710937 0.03567,-0.185842 0.09222,-0.458814 0.121094,-0.587891 v -0.002 c 0.03211,-0.146474 0.06575,-0.303769 0.08203,-0.402344 v -0.002 c 0.01637,-0.101344 0.06941,-0.377064 0.207031,-1.070312 0.04349,-0.218067 0.105794,-0.540074 0.140625,-0.71875 v -0.002 c 0.03376,-0.176467 0.09054,-0.465765 0.125,-0.646485 v -0.002 c 0.03471,-0.178057 0.0957,-0.487032 0.134766,-0.685547 0.03934,-0.199965 0.09913,-0.511306 0.134766,-0.695312 0.05837,-0.300831 0.100972,-0.512096 0.277343,-1.400391 0.06635,-0.334005 0.104702,-0.518375 0.119141,-0.6875 0.01444,-0.169124 -0.04637,-0.411128 -0.107422,-0.513672 -0.09324,-0.158535 -0.169005,-0.22669 -0.318359,-0.316406 -0.0297,-0.02518 -0.04617,-0.04612 -0.09766,-0.07031 -0.166958,-0.07846 -0.241447,-0.05979 -0.33789,-0.05859 -0.0011,1.3e-5 -0.0028,-9e-6 -0.0039,0 -0.322949,0.0032 -1.084462,0.05932 -3.658204,0.234375 -0.966281,0.06567 -2.457428,0.168656 -3.314453,0.226562 h -0.002 c -0.856428,0.05856 -2.250359,0.15299 -3.099609,0.210938 -0.848477,0.0573 -2.265335,0.152408 -3.146485,0.210937 -1.507583,0.101042 -2.210685,0.147609 -2.574218,0.179688 -0.181767,0.01604 -0.277737,0.02541 -0.386719,0.05273 -0.108982,0.02733 -0.214991,0.08886 -0.216797,0.08984 v 0.002 c -0.341644,0.187028 -0.525469,0.554346 -0.59375,0.933594 -0.0105,0.05815 -0.02408,0.119294 -0.03516,0.167969 -0.01107,0.04867 -0.03173,0.108684 -0.01172,0.05664 -0.07103,0.182661 -0.06447,0.245122 -0.08008,0.369141 -0.0072,0.05794 -0.04469,0.203538 -0.03906,0.1875 -0.05147,0.143914 -0.06886,0.257774 -0.08594,0.392578 -0.0072,0.05736 -0.05261,0.206937 -0.02734,0.144531 -0.06848,0.167599 -0.07719,0.257629 -0.09375,0.396485 -0.0085,0.06186 -0.04256,0.202738 -0.03516,0.18164 -0.04829,0.13531 -0.06821,0.244258 -0.08594,0.369141 v 0.002 0.002 c -0.0068,0.05072 -0.04445,0.188204 -0.03711,0.167969 v 0.0039 l -0.002,0.002 c -0.04475,0.128641 -0.06584,0.2373 -0.08398,0.365235 v 0.002 0.002 c -0.0068,0.05072 -0.04312,0.186685 -0.03711,0.169922 v 0.002 0.002 c -0.04635,0.131794 -0.06589,0.239577 -0.08398,0.367187 v 0.002 l -0.002,0.002 c -0.0068,0.05072 -0.04249,0.188196 -0.03516,0.167968 v 0.002 l -0.002,0.002 c -0.04635,0.131793 -0.06636,0.240293 -0.08398,0.371093 -0.0086,0.05611 -0.04216,0.18623 -0.03711,0.171875 l 0.002,-0.002 c -0.04849,0.135193 -0.06831,0.242249 -0.08594,0.373047 -0.0086,0.05563 -0.04291,0.184876 -0.03906,0.173828 -0.04843,0.135286 -0.06668,0.242679 -0.08398,0.371094 -0.01076,0.066 -0.05568,0.207563 -0.02344,0.125 v 0.002 c -0.03529,0.09177 -0.03945,0.127004 -0.05469,0.19336 -0.01524,0.06636 -0.02948,0.141347 -0.04297,0.216796 -0.02073,0.114339 -0.04237,0.183946 -0.03711,0.322266 0.0046,0.121251 0.07606,0.255788 0.121094,0.330078 -0.102239,-0.011 -0.218818,-0.03981 -0.316406,-0.04102 h -0.002 c -0.15269,-0.0016 -0.30075,0.01081 -0.447266,0.0332 -0.137557,0.02108 -1.475695,0.210676 -2.912109,0.412109 -0.719852,0.100624 -1.388683,0.196199 -1.888672,0.271484 -0.249995,0.03764 -0.457196,0.07081 -0.609375,0.0957 -0.07609,0.01245 -0.138258,0.0222 -0.1875,0.03125 -0.04868,0.0089 -0.02945,-0.0074 -0.158203,0.03906 -0.245383,0.08793 -0.349475,0.333222 -0.4375,0.564453 C 12.488588,25.423333 12.191406,24.742627 12.191406,24 c 0,-3.278799 1.304853,-6.4279 3.625,-8.748047 2.320148,-2.320147 5.469248,-3.625 8.748047,-3.625 2.821145,0 5.562011,0.965036 7.757813,2.740235 h 0.002 c 0.626598,0.503412 1.557128,0.401997 2.060547,-0.22461 0.502626,-0.625621 0.406189,-1.553392 -0.216797,-2.058594 v -0.002 h -0.002 C 31.444903,9.8931649 28.058057,8.6953125 24.564453,8.6953125 Z m 0,1 c 3.265033,0 6.430422,1.1194685 8.974609,3.1660155 0.199342,0.163188 0.231434,0.450841 0.06641,0.65625 -0.164721,0.205029 -0.451214,0.23504 -0.65625,0.07031 -2.373973,-1.918445 -5.336449,-2.960938 -8.384766,-2.960938 -3.544208,0 -6.947626,1.410517 -9.455078,3.917969 -2.507452,2.507452 -3.917969,5.91087 -3.917969,9.455078 0,3.544208 1.410517,6.947626 3.917969,9.455078 2.507452,2.507452 5.91087,3.917969 9.455078,3.917969 2.614827,0 5.170115,-0.768507 7.349609,-2.199219 2.186711,-1.437745 3.89741,-3.483703 4.933594,-5.876953 v -0.002 h 0.002 c 0.103399,-0.241688 0.366578,-0.346699 0.609375,-0.242188 0.242759,0.104495 0.346217,0.365914 0.242188,0.603516 v 0.002 l -0.002,0.002 c -1.1073,2.569185 -2.934912,4.750897 -5.273438,6.28711 -2.332096,1.536073 -5.069201,2.357421 -7.861328,2.357421 -3.794207,0 -7.4309,-1.504759 -10.111328,-4.191406 h -0.002 v -0.002 C 11.764525,31.430901 10.259766,27.794207 10.259766,24 c 0,-3.794207 1.504759,-7.430901 4.191406,-10.111328 v -0.002 h 0.002 c 2.680428,-2.686647 6.317121,-4.1914065 10.111328,-4.1914065 z m 12.992188,7.7363285 c -0.0139,0.09229 -0.02807,0.187485 -0.07813,0.439453 -0.176365,0.888261 -0.218559,1.103309 -0.277344,1.40625 -0.03517,0.181603 -0.09754,0.494243 -0.136719,0.693359 -0.03937,0.200023 -0.09991,0.50873 -0.134766,0.6875 v 0.002 c -0.0338,0.177286 -0.09064,0.468821 -0.125,0.648438 -0.03474,0.178213 -0.09796,0.49897 -0.140625,0.71289 -0.137876,0.694527 -0.189338,0.959639 -0.21289,1.105469 -0.0059,0.03541 -0.04078,0.214875 -0.07031,0.349609 -0.03422,0.153094 -0.08935,0.421279 -0.126953,0.617188 v 0.002 c -0.03555,0.188532 -0.0981,0.507487 -0.136719,0.707031 -0.0391,0.201377 -0.09922,0.526791 -0.136718,0.726563 l -0.002,0.002 c -0.05772,0.311165 -0.09626,0.507538 -0.128907,0.658203 -0.127705,-0.01333 -0.23008,-0.02201 -0.564453,-0.06641 h -0.002 c -0.41134,-0.05407 -1.125487,-0.148443 -1.587891,-0.208985 -0.799908,-0.104251 -1.168006,-0.153893 -2.193359,-0.289062 -0.626953,-0.08265 -2.18596,-0.284504 -3.154297,-0.408203 -0.445093,-0.05724 -1.23328,-0.15769 -1.75,-0.22461 C 26.081436,24.925246 25.24319,24.8157 24.734375,24.75 c -0.508695,-0.06632 -1.29528,-0.167393 -1.748047,-0.226563 -0.454267,-0.05928 -1.233822,-0.160754 -1.734375,-0.224609 -0.421232,-0.05422 -0.628627,-0.08939 -0.757812,-0.117187 0.0062,-0.03076 0.01168,-0.06418 0.01758,-0.08984 0.01115,-0.04854 0.03287,-0.106572 0.01367,-0.05664 l -0.002,0.002 c 0.0654,-0.16745 0.06524,-0.23316 0.08203,-0.351562 v -0.002 -0.002 c 0.0069,-0.05103 0.04483,-0.189267 0.03711,-0.167969 v -0.0039 l 0.002,-0.002 c 0.04513,-0.129719 0.06588,-0.238476 0.08398,-0.365234 v -0.002 -0.002 c 0.0068,-0.05072 0.04116,-0.188628 0.03516,-0.171875 h 0.002 v -0.002 c 0.04636,-0.131816 0.06589,-0.239577 0.08398,-0.367188 v -0.002 l 0.002,-0.002 c 0.0067,-0.0495 0.03638,-0.175292 0.0332,-0.167969 l 0.002,-0.0039 c 0.04811,-0.133859 0.06865,-0.239575 0.08594,-0.367188 v -0.0039 c 0.0086,-0.0561 0.04215,-0.186198 0.03711,-0.171875 l -0.002,0.002 c 0.04825,-0.134526 0.06838,-0.241166 0.08594,-0.371093 v -0.002 c 0.0077,-0.05222 0.03742,-0.165953 0.03711,-0.167968 l 0.002,-0.0078 c 0.04706,-0.13197 0.06687,-0.238895 0.08398,-0.365234 v -0.0039 c 0.0087,-0.05681 0.04327,-0.188909 0.03711,-0.171875 v -0.002 l 0.002,-0.002 c 0.05006,-0.14259 0.06892,-0.25448 0.08594,-0.390625 v -0.002 -0.002 c 0.0065,-0.05489 0.05357,-0.205408 0.02539,-0.136719 v -0.002 c 0.06645,-0.164108 0.07651,-0.257487 0.09375,-0.394531 0.0072,-0.05688 0.04476,-0.202851 0.03711,-0.181641 v -0.002 -0.002 c 0.0494,-0.140912 0.07067,-0.256793 0.08789,-0.394531 0.0088,-0.06975 0.05953,-0.235224 0.01953,-0.132813 l 0.002,-0.002 c 0.0361,-0.09388 0.03969,-0.127459 0.05469,-0.193359 0.01499,-0.0659 0.02965,-0.141041 0.04297,-0.214844 0.03857,-0.214224 0.0768,-0.22635 0.08789,-0.232422 0.069,-0.03764 -0.0079,-0.0024 -0.01758,0 -0.0097,0.0024 0.06392,-0.01069 0.230468,-0.02539 0.33309,-0.02939 1.044678,-0.07666 2.552735,-0.177735 0.882533,-0.05862 2.298223,-0.153655 3.146484,-0.210937 0.848778,-0.05792 2.244515,-0.152337 3.101563,-0.210938 0.85774,-0.05795 2.348406,-0.16091 3.314453,-0.226562 2.455694,-0.167028 3.188675,-0.213924 3.435547,-0.220703 z m -18.308594,8.265625 h 0.002 c 0.164305,0.0022 0.355676,0.02693 0.617187,0.08398 0.256391,0.05594 0.863354,0.141834 2.966797,0.441406 0.344294,0.04955 0.95786,0.138256 1.359375,0.197266 0.952049,0.139874 2.64363,0.38399 3.439453,0.498047 0.34292,0.04871 1.002888,0.144027 1.464844,0.210937 0.461964,0.06627 1.219281,0.17586 1.681641,0.242188 0.461672,0.06623 0.980984,0.141547 1.140625,0.166015 0.17284,0.02649 0.493886,0.0726 0.720703,0.105469 h 0.002 c 0.22494,0.03186 0.782594,0.112093 1.236328,0.177734 0.340592,0.04917 0.340996,0.05279 0.550781,0.08398 -0.440133,0.234154 -0.990427,0.515779 -2.404296,1.220703 -0.861988,0.429708 -1.657274,0.820671 -2.242188,1.105469 -0.292457,0.142398 -0.533083,0.258459 -0.701172,0.33789 -0.0706,0.03336 -0.119838,0.05693 -0.162109,0.07617 0.0021,-0.0016 0.02785,0.0047 -0.02344,-0.0078 -0.114251,-0.02798 -0.351225,-0.09536 -0.794922,-0.22461 -0.34012,-0.09904 -0.716137,-0.20335 -0.880859,-0.24414 -0.126288,-0.03142 -0.306978,-0.08302 -0.345703,-0.0957 -0.09992,-0.03272 -0.299202,-0.09147 -0.490234,-0.144532 -0.182914,-0.05099 -0.424663,-0.11864 -0.525391,-0.148437 v -0.002 h -0.002 c -0.115515,-0.03397 -0.250818,-0.07157 -0.34375,-0.09375 h -0.002 c -0.192045,-0.04668 -0.387508,-0.102175 -0.84375,-0.238282 -0.179319,-0.05347 -0.362973,-0.106479 -0.4375,-0.126953 -0.05585,-0.01534 -0.146638,-0.04207 -0.189453,-0.05469 h -0.002 c -0.07387,-0.0215 -0.189839,-0.05007 -0.294921,-0.07617 l -0.002,-0.002 h -0.002 c -0.08638,-0.02091 -0.234803,-0.06206 -0.285156,-0.07813 h -0.0039 l -0.002,-0.002 c -0.0783,-0.02409 -0.190611,-0.05659 -0.267578,-0.07813 l -0.0039,-0.002 c -0.0589,-0.01688 -0.243475,-0.07167 -0.398437,-0.119141 h -0.002 c -0.365499,-0.112972 -2.398218,-0.687808 -2.875,-0.814453 -0.135876,-0.03585 -0.596532,-0.165983 -0.998047,-0.28125 v 0.002 C 18.210314,27.612746 17.99279,27.551415 17.703125,27.474609 h -0.002 l -0.002,-0.002 c -0.05845,-0.01517 -0.150716,-0.04112 -0.175782,-0.04883 h -0.002 c -0.05493,-0.01664 -0.140855,-0.04119 -0.210937,-0.06055 h -0.002 -0.002 c -0.05526,-0.01488 -0.206387,-0.05929 -0.316407,-0.0918 -0.113448,-0.03352 -0.296626,-0.08762 -0.412109,-0.121093 h -0.002 c -0.115761,-0.0342 -0.252819,-0.07326 -0.320313,-0.0918 -0.106605,-0.02902 -0.725678,-0.202317 -0.865234,-0.242188 h -0.002 c -0.0514,-0.0145 -0.147458,-0.04175 -0.214844,-0.06055 h -0.002 c -0.06699,-0.0185 -0.167265,-0.04639 -0.216797,-0.06055 -0.196924,-0.05655 -0.686794,-0.192427 -0.886719,-0.246093 v -0.002 c -0.02208,-0.0059 -0.04077,-0.01043 -0.06641,-0.01758 0.05943,-0.0091 0.09241,-0.01548 0.158203,-0.02539 0.494979,-0.07453 1.162066,-0.171281 1.878906,-0.271485 1.436032,-0.201379 2.72409,-0.383468 2.923829,-0.414062 0.09742,-0.01489 0.18759,-0.02239 0.285156,-0.02148 z m -1.511719,3.445312 c 0.132134,0.03332 0.275054,0.07096 0.445313,0.117188 0.638739,0.173047 1.082687,0.288651 1.410156,0.373046 -0.0377,0.08785 -0.07998,0.210979 -0.111328,0.267579 -0.066,0.119156 -0.128737,0.154311 -0.07227,0.121093 0.06233,-0.03681 -0.05537,0.02219 -0.197266,0.07031 -0.141892,0.04813 -0.341049,0.111621 -0.58789,0.185547 -0.605323,0.180952 -0.76318,0.22746 -0.992188,0.298828 -0.12669,0.03951 -0.376983,0.116147 -0.550781,0.167969 l -0.002,0.002 c -0.04584,0.01389 -0.07302,0.02351 -0.117188,0.03711 0.101301,-0.226313 0.229498,-0.50522 0.363282,-0.789062 0.141998,-0.301272 0.286681,-0.600107 0.396484,-0.820313 0.0066,-0.01326 0.0093,-0.01856 0.01563,-0.03125 z m 13.988281,0.804688 h 0.0078 c -0.0018,3.6e-5 -0.0021,0.0019 -0.0039,0.002 -0.0012,3.3e-5 -0.0027,-0.002 -0.0039,-0.002 z m -15.107422,0.945312 c -0.0046,0.0017 0.0057,-0.0013 0.002,0 -9.47e-4,3.46e-4 -0.003,0.0016 -0.0039,0.002 z m 14.53125,0.439453 c -0.01802,0.07966 -0.04857,0.20513 -0.05664,0.244141 -0.01434,0.0693 -0.04493,0.218699 -0.06836,0.322265 -0.0245,0.108309 -0.07291,0.322867 -0.107421,0.478516 -0.04944,0.218077 -0.114813,0.264522 -0.07422,0.236328 0.02842,-0.01953 -0.03444,0.02225 -0.09961,0.05859 -0.06763,0.03772 -0.155016,0.08447 -0.242187,0.130859 -0.196897,0.104778 -0.527873,0.292958 -0.765625,0.4375 -0.19105,0.115967 -0.745702,0.412515 -1.261719,0.673828 -0.258008,0.130657 -0.511397,0.255216 -0.71289,0.351563 -0.139472,0.06669 -0.195545,0.08933 -0.259766,0.117187 0.04327,-0.147262 0.0921,-0.30946 0.121094,-0.386718 h 0.002 c 0.05285,-0.141784 0.09831,-0.266744 0.125,-0.347657 l 0.002,-0.0039 c 0.0059,-0.01724 0.06399,-0.175647 0.115234,-0.3125 h -0.002 C 27.919664,33.182593 27.967844,33.059333 28,32.945312 c 1.87e-4,-6.54e-4 0.04189,-0.122313 0.06836,-0.185546 l 0.002,-0.002 c 0.03848,-0.09367 0.09208,-0.235384 0.128907,-0.335937 0.07695,-0.210808 0.0366,-0.13448 0.06641,-0.199219 0.09634,0.02558 0.19156,0.04938 0.265625,0.07031 0.07739,0.02187 0.169249,0.05511 0.117187,0.03516 l -0.002,-0.002 c 0.187417,0.07285 0.443849,0.07768 0.648438,0.01367 0.204589,-0.06401 0.386311,-0.165954 0.625,-0.3125 0.07411,-0.0456 0.224292,-0.128748 0.283203,-0.158203 v -0.002 c 0.09665,-0.0487 0.210389,-0.108839 0.292969,-0.158203 h 0.002 c 0.197807,-0.119338 0.424986,-0.247944 0.65039,-0.376953 z m -3.808593,3.113281 c -0.0031,-0.0029 6.71e-4,0.0037 0.0039,0.0078 -3.48e-4,7.59e-4 -0.0449,0.01056 -0.02344,0.0098 0.05768,-0.0021 0.08879,0.01445 0.01367,-0.01172 l 0.0039,0.002 c 0.04788,0.01706 0.01128,8.55e-4 0.002,-0.0078 z"
     id="path7" />
</svg>
