<?xml version="1.0" encoding="UTF-8" standalone="no"?>
<!-- Generator: Gravit.io -->

<svg
   style="isolation:isolate"
   viewBox="0 0 48 48"
   width="48pt"
   height="48pt"
   version="1.1"
   id="svg20"
   sodipodi:docname="bluemail.svg"
   inkscape:version="1.1.2 (0a00cf5339, 2022-02-04)"
   xmlns:inkscape="http://www.inkscape.org/namespaces/inkscape"
   xmlns:sodipodi="http://sodipodi.sourceforge.net/DTD/sodipodi-0.dtd"
   xmlns:xlink="http://www.w3.org/1999/xlink"
   xmlns="http://www.w3.org/2000/svg"
   xmlns:svg="http://www.w3.org/2000/svg">
  <defs
     id="defs24">
    <linearGradient
       inkscape:collect="always"
       xlink:href="#_lgradient_5"
       id="linearGradient15"
       x1="-9.6850061"
       y1="45.161198"
       x2="11.98815"
       y2="21.735205"
       gradientUnits="userSpaceOnUse"
       gradientTransform="matrix(1.1147442,0,0,1.1150348,-0.01237238,-3.3277956)" />
    <linearGradient
       id="_lgradient_1"
       x1="0"
       y1="0.5"
       x2="1"
       y2="0.5"
       gradientTransform="matrix(48,0,0,46.985,0.495,0.559)"
       gradientUnits="userSpaceOnUse">
      <stop
         offset="0%"
         stop-opacity="1"
         style="stop-color:rgb(255,229,59)"
         id="stop2-3" />
      <stop
         offset="98.69565217391305%"
         stop-opacity="1"
         style="stop-color:rgb(255,0,91)"
         id="stop4-6" />
    </linearGradient>
    <linearGradient
       inkscape:collect="always"
       xlink:href="#_lgradient_5"
       id="linearGradient872"
       x1="-12.025727"
       y1="6.1170783"
       x2="-0.085100174"
       y2="6.1170783"
       gradientUnits="userSpaceOnUse"
       gradientTransform="matrix(3.8358211,0,0,3.8371386,-0.00544341,-0.00268054)" />
    <linearGradient
       inkscape:collect="always"
       xlink:href="#_lgradient_5"
       id="linearGradient1300"
       x1="11.148925"
       y1="21.483057"
       x2="36.851074"
       y2="21.483057"
       gradientUnits="userSpaceOnUse"
       gradientTransform="scale(1.3333333)" />
  </defs>
  <sodipodi:namedview
     id="namedview22"
     pagecolor="#ffffff"
     bordercolor="#666666"
     borderopacity="1.0"
     inkscape:pageshadow="2"
     inkscape:pageopacity="0.0"
     inkscape:pagecheckerboard="0"
     inkscape:document-units="pt"
     showgrid="false"
     inkscape:zoom="7.2257474"
     inkscape:cx="36.190028"
     inkscape:cy="34.114118"
     inkscape:window-width="1056"
     inkscape:window-height="545"
     inkscape:window-x="210"
     inkscape:window-y="102"
     inkscape:window-maximized="0"
     inkscape:current-layer="svg20" />
  <linearGradient
     id="_lgradient_4"
     x1="0"
     y1="0.5"
     x2="1"
     y2="0.5"
     gradientTransform="matrix(25.700742,0,0,9.8428372,11.149629,8.1193046)"
     gradientUnits="userSpaceOnUse">
    <stop
       offset="0%"
       stop-opacity="1"
       style="stop-color:rgb(84,51,255)"
       id="stop2" />
    <stop
       offset="51.73913043478261%"
       stop-opacity="1"
       style="stop-color:rgb(32,189,255)"
       id="stop4" />
    <stop
       offset="98.26086956521739%"
       stop-opacity="1"
       style="stop-color:rgb(165,254,203)"
       id="stop6" />
  </linearGradient>
  <rect
     x="-46.783188"
     y="1.2253767"
     height="45.80014"
     rx="6.1837621"
     shape-rendering="crispEdges"
     id="rect5-6-7-3"
     ry="6.8055277"
     transform="matrix(0.00524063,-0.99998627,0.99998801,0.00489691,0,0)"
     style="isolation:isolate;fill:#00ffd5;fill-opacity:0.13470298;stroke:url(#linearGradient872);stroke-width:2.0301;stroke-miterlimit:4;stroke-dasharray:none;stroke-opacity:1"
     width="45.801998" />
  <rect
     x="-15.686804"
     y="17.260084"
     height="33.345856"
     rx="6.7920032"
     shape-rendering="crispEdges"
     id="rect5-6-6-6-6"
     style="isolation:isolate;fill:#00ffd5;fill-opacity:0.13470298;stroke:url(#linearGradient15);stroke-width:1.67233;stroke-miterlimit:4;stroke-dasharray:none;stroke-opacity:1"
     ry="7.4743071"
     transform="matrix(0.72446484,-0.68931175,0.68622417,0.72739012,0,0)"
     width="33.338203" />
  <linearGradient
     id="_lgradient_5"
     x1="0"
     y1="0.5"
     x2="1"
     y2="0.5"
     gradientTransform="matrix(25.700742,0,0,19.022923,11.149629,15.140529)"
     gradientUnits="userSpaceOnUse">
    <stop
       offset="0%"
       stop-opacity="1"
       style="stop-color:rgb(84,51,255)"
       id="stop11" />
    <stop
       offset="51.73913043478261%"
       stop-opacity="1"
       style="stop-color:rgb(32,189,255)"
       id="stop13" />
    <stop
       offset="98.26086956521739%"
       stop-opacity="1"
       style="stop-color:rgb(165,254,203)"
       id="stop15" />
  </linearGradient>
  <path
     id="path1229"
     style="color:#000000;fill:url(#linearGradient1300);stroke-width:1.33333;-inkscape-stroke:none"
     d="m 31.958984,11.041016 c -1.00215,0.0071 -2.003494,0.272864 -2.818359,0.794922 l -0.474609,0.304687 -12.902344,7.685547 c 0,0 -1.176873,0.948461 -1.566406,1.539062 v 3.785157 c 0,1.164226 0.556965,2.415446 1.425781,3.175781 l 12.953125,11.332031 c 1.917509,1.678351 4.930147,1.678351 6.847656,0 L 48.376953,28.326172 c 0.868817,-0.760335 1.425781,-2.011555 1.425781,-3.175781 v -3.699219 c 0,0 -0.14534,-0.66142 -0.851562,-0.990234 L 48.173828,20.101562 34.787109,11.796875 c -0.822186,-0.51014 -1.825974,-0.762915 -2.828125,-0.755859 z m 0.0098,1.390625 c 0.784323,-0.0055 1.569633,0.159518 2.115234,0.498047 l 13.457032,8.349609 c 0.515339,0.162836 0.648031,0.437836 0.927734,0.878906 v 2.992188 c 0,0.635188 -0.517898,1.777317 -0.96875,2.171875 L 34.546875,38.654297 c -1.379473,1.207421 -3.714277,1.207421 -5.09375,0 L 16.5,27.322266 c -0.450852,-0.394558 -0.968751,-1.536687 -0.96875,-2.171875 v -1.423829 l 0.220703,-2.257812 0.740235,-0.525391 12.875,-7.669921 0.492187,-0.3125 c 0.540529,-0.3463 1.325054,-0.523775 2.109375,-0.529297 z m 0.07422,2.003906 c -1.005356,-0.0093 -2.013861,0.234049 -2.841797,0.730469 l -11.929688,7.154296 -0.539062,0.320313 -0.02344,1.779297 c 0.316588,0.34841 0.39917,0.638658 0.660157,0.916016 0.366328,0.389309 0.598629,0.634735 0.753906,0.77539 l 4.791015,4.34375 L 23.1875,22.375 c 0.02863,-0.84612 0.67488,-1.521484 1.521484,-1.521484 h 14.582032 c 0.846604,0 1.521484,0.67488 1.521484,1.521484 v 8.330078 c 2.050233,-2.191647 6.141472,-6.203125 6.141472,-6.203125 l 0.03822,-1.710937 C 42.939406,20.287005 38.907901,17.746048 34.869141,15.21875 34.050531,14.706675 33.048324,14.444816 32.042969,14.435547 Z m -0.01367,1.390625 c 0.794577,0.0076 1.586558,0.183689 2.132812,0.52539 v -0.002 l 5.070313,3.171875 H 24.708984 c -0.223901,0 -0.366695,0.188771 -0.576172,0.238282 l 5.751954,-3.449219 c 0.552248,-0.331117 1.349955,-0.491934 2.144531,-0.484375 z m -9.482422,4.884766 c -0.367711,0.480578 -0.693359,1.016678 -0.693359,1.664062 v 5.322266 L 19.017578,25.125 c -0.0073,-0.0067 -0.320829,-0.319801 -0.679687,-0.701172 -0.202758,-0.215476 -0.460823,-0.502978 -0.703125,-0.767578 l 0.320312,-0.189453 0.0039,-0.0039 z m 19.017578,0.271484 4.492188,2.808594 0.0625,0.03711 c -0.02579,0.03024 -0.08052,0.0958 -0.105469,0.125 l -3.867188,3.744141 V 22.375 c 0,-0.542125 -0.31612,-0.959374 -0.582031,-1.392578 z M 25.4375,21.708984 c -0.762527,0 -1.396484,0.631998 -1.396484,1.394532 v 8.537109 l 5.746093,5.046875 c 1.240658,1.124665 3.185124,1.124665 4.425782,0 l 5.746093,-5.208984 v -0.71875 -7.65625 c 0,-0.762527 -0.633957,-1.394532 -1.396484,-1.394532 z m 0,1.332032 h 2.380859 c -0.211541,0.144382 -0.49586,0.268415 -0.654297,0.419922 l -0.205078,0.195312 v 6.625 c 0,1.188645 0.47507,2.237904 1.167969,3.101562 L 25.375,30.888672 v -0.859375 -6.925781 c 0,-0.0424 0.02011,-0.0625 0.0625,-0.0625 z m 6.134766,0 H 38.5625 c 0.0424,0 0.0625,0.02011 0.0625,0.0625 v 7.65625 0.128906 l -2.751953,2.496094 c 0.693712,-0.86392 1.167969,-1.914096 1.167969,-3.103516 0,-2.776452 -2.264561,-5.041016 -5.041016,-5.041016 h -0.002 c -0.148384,5.54e-4 -0.286188,0.01758 -0.425781,0.03125 z m -1.332032,0.566406 v 2.558594 4.115234 c 2e-6,0.964401 0.795365,1.759766 1.759766,1.759766 0.964401,0 1.759767,-0.795365 1.759766,-1.759766 0,-0.918247 -0.739901,-1.639395 -1.640625,-1.710938 v -1.947265 c 1.990433,0.07304 3.589843,1.649114 3.589843,3.658203 0,2.055172 -1.653108,3.708984 -3.708984,3.708984 -2.055876,0 -3.708984,-1.653812 -3.708984,-3.708984 v -5.935547 c 0.361196,-0.305967 1.133901,-0.544612 1.949218,-0.738281 z M 32,29.853516 c 0.243523,0 0.427734,0.183585 0.427734,0.427734 0,0.242988 -0.184747,0.427734 -0.427734,0.427734 -0.242987,0 -0.427733,-0.184746 -0.427734,-0.427734 v -0.212891 l 0.238281,-0.148437 C 31.912827,29.855295 31.919309,29.853516 32,29.853516 Z M 16.423828,29.9375 c -1.220364,0 -2.222656,1.005775 -2.222656,2.226562 v 9.492188 c 0,2.510155 2.04844,4.5625 4.558594,4.5625 h 26.480468 c 2.510154,0 4.558594,-2.052345 4.558594,-4.5625 v -9.492188 c 0,-1.220787 -1.002292,-2.226562 -2.222656,-2.226562 -1.220365,0 -2.224607,1.005398 -2.22461,2.226562 v 7.935547 c 0,0.928994 -0.741611,1.667969 -1.669921,1.667969 H 20.318359 c -0.92831,0 -1.669923,-0.738975 -1.669921,-1.667969 v -7.935547 c 0,-1.221164 -1.004245,-2.226562 -2.22461,-2.226562 z m 0,1.333984 c 0.498851,0 0.890625,0.393071 0.890625,0.892578 v 7.935547 c 0,1.650556 1.354128,3.001956 3.003906,3.001953 h 23.363282 c 1.649778,0 3.003906,-1.351397 3.003906,-3.001953 v -7.935547 c 0,-0.499507 0.391774,-0.892578 0.890625,-0.892578 0.498849,0 0.890625,0.392695 0.890625,0.892578 v 9.492188 c 0,1.788611 -1.437952,3.228517 -3.226563,3.228516 H 18.759766 c -1.788611,0 -3.226563,-1.439905 -3.226563,-3.228516 v -9.492188 c 0,-0.499884 0.391776,-0.892578 0.890625,-0.892578 z m 18.373047,3.087891 -1.478516,1.341797 c -0.70895,0.642668 -1.927768,0.642668 -2.636718,0 l -1.476563,-1.339844 c 0.811365,0.558564 1.739187,0.960938 2.794922,0.960938 1.057032,0 1.984932,-0.403072 2.796875,-0.962891 z"
     transform="scale(0.75)"
     sodipodi:nodetypes="cccccsccccsccccccccccccccsccccccsccccscccsssccccsccccsccccsccscccccccccscsscccccsssscccscccsscsscccssscccccssccsssccssssccssssssssscssscssssscsssssscssssccccsc" />
</svg>
