<?xml version="1.0" encoding="UTF-8" standalone="no"?>
<!-- Generator: Gravit.io -->

<svg
   style="isolation:isolate"
   viewBox="0 0 48 48"
   width="48pt"
   height="48pt"
   version="1.1"
   id="svg18"
   sodipodi:docname="boinc.svg"
   inkscape:version="1.1.2 (0a00cf5339, 2022-02-04)"
   xmlns:inkscape="http://www.inkscape.org/namespaces/inkscape"
   xmlns:sodipodi="http://sodipodi.sourceforge.net/DTD/sodipodi-0.dtd"
   xmlns:xlink="http://www.w3.org/1999/xlink"
   xmlns="http://www.w3.org/2000/svg"
   xmlns:svg="http://www.w3.org/2000/svg">
  <defs
     id="defs22">
    <linearGradient
       inkscape:collect="always"
       xlink:href="#_lgradient_0"
       id="linearGradient15"
       x1="-9.6850061"
       y1="45.161198"
       x2="11.98815"
       y2="21.735205"
       gradientUnits="userSpaceOnUse"
       gradientTransform="matrix(1.1147442,0,0,1.1150348,-0.01237238,-3.3277956)" />
    <linearGradient
       id="_lgradient_1-3"
       x1="0"
       y1="0.5"
       x2="1"
       y2="0.5"
       gradientTransform="matrix(48,0,0,46.985,0.495,0.559)"
       gradientUnits="userSpaceOnUse">
      <stop
         offset="0%"
         stop-opacity="1"
         style="stop-color:rgb(255,229,59)"
         id="stop2-6" />
      <stop
         offset="98.69565217391305%"
         stop-opacity="1"
         style="stop-color:rgb(255,0,91)"
         id="stop4-7" />
    </linearGradient>
    <linearGradient
       inkscape:collect="always"
       xlink:href="#_lgradient_0"
       id="linearGradient872"
       x1="-12.025727"
       y1="6.1170783"
       x2="-0.085100174"
       y2="6.1170783"
       gradientUnits="userSpaceOnUse"
       gradientTransform="matrix(3.8358211,0,0,3.8371386,-0.00544341,-0.00268054)" />
    <linearGradient
       inkscape:collect="always"
       xlink:href="#_lgradient_0"
       id="linearGradient959"
       x1="11.475631"
       y1="24"
       x2="36.524368"
       y2="24"
       gradientUnits="userSpaceOnUse"
       gradientTransform="matrix(0.94310124,0,0,0.94310124,1.3655702,1.3655702)" />
    <linearGradient
       inkscape:collect="always"
       xlink:href="#_lgradient_1"
       id="linearGradient1027"
       x1="19.634083"
       y1="24"
       x2="28.365917"
       y2="24"
       gradientUnits="userSpaceOnUse" />
  </defs>
  <sodipodi:namedview
     id="namedview20"
     pagecolor="#ffffff"
     bordercolor="#666666"
     borderopacity="1.0"
     inkscape:pageshadow="2"
     inkscape:pageopacity="0.0"
     inkscape:pagecheckerboard="0"
     inkscape:document-units="pt"
     showgrid="false"
     inkscape:zoom="5.109375"
     inkscape:cx="32"
     inkscape:cy="32"
     inkscape:window-width="1056"
     inkscape:window-height="545"
     inkscape:window-x="232"
     inkscape:window-y="167"
     inkscape:window-maximized="0"
     inkscape:current-layer="svg18" />
  <linearGradient
     id="_lgradient_0"
     x1="-0.08011509457942943"
     y1="0.09147202114265875"
     x2="0.8188810622852379"
     y2="0.8559726899724547"
     gradientTransform="matrix(25.048739,0,0,25.048739,11.475631,11.475631)"
     gradientUnits="userSpaceOnUse">
    <stop
       offset="1.3043478260869565%"
       stop-opacity="1"
       style="stop-color:rgb(223,87,255)"
       id="stop2" />
    <stop
       offset="52.083333333333336%"
       stop-opacity="1"
       style="stop-color:rgb(36,30,252)"
       id="stop4" />
    <stop
       offset="97.91666666666666%"
       stop-opacity="1"
       style="stop-color:rgb(14,175,254)"
       id="stop6" />
  </linearGradient>
  <rect
     x="-46.783188"
     y="1.2253767"
     height="45.80014"
     rx="6.1837621"
     shape-rendering="crispEdges"
     id="rect5-6-7-3"
     ry="6.8055277"
     transform="matrix(0.00524063,-0.99998627,0.99998801,0.00489691,0,0)"
     style="isolation:isolate;fill:#8000ff;fill-opacity:0.13470298;stroke:url(#linearGradient872);stroke-width:2.0301;stroke-miterlimit:4;stroke-dasharray:none;stroke-opacity:1"
     width="45.801998" />
  <rect
     x="-15.686804"
     y="17.260084"
     height="33.345856"
     rx="6.7920032"
     shape-rendering="crispEdges"
     id="rect5-6-6-6-6"
     style="isolation:isolate;fill:#8000ff;fill-opacity:0.13470298;stroke:url(#linearGradient15);stroke-width:1.67233;stroke-miterlimit:4;stroke-dasharray:none;stroke-opacity:1"
     ry="7.4743071"
     transform="matrix(0.72446484,-0.68931175,0.68622417,0.72739012,0,0)"
     width="33.338203" />
  <path
     style="color:#000000;fill:url(#linearGradient959);-inkscape-stroke:none"
     d="m 32.34375,11.458984 -0.275391,0.478516 -2.199218,3.808594 -1.683594,2.917968 0.304687,0.269532 c 1.451735,1.28442 2.284818,3.12829 2.28711,5.066406 -0.0025,0.72823 -0.122918,1.451214 -0.355469,2.140625 L 30.291016,26.529297 33.705078,28.5 33.919922,27.964844 C 34.425395,26.704516 34.68595,25.358466 34.6875,24 34.686564,21.947778 34.05149,19.961675 32.943359,18.240234 l 2.394532,-4.144531 -0.248047,-0.269531 c -0.693793,-0.756357 -1.460929,-1.441354 -2.296875,-2.042969 z m -18.248047,1.203125 -0.269531,0.248047 c -0.756357,0.693793 -1.441354,1.460929 -2.042969,2.296875 l -0.324219,0.449219 4.28711,2.474609 2.917968,1.683594 0.269532,-0.304687 c 1.283989,-1.451247 3.127051,-2.284261 5.064453,-2.28711 0.728885,0.0023 1.452554,0.122711 2.142578,0.355469 L 26.529297,17.708984 28.5,14.294922 27.964844,14.080078 C 26.704516,13.574605 25.358466,13.31405 24,13.3125 c -2.052222,9.36e-4 -4.038325,0.63601 -5.759766,1.744141 z m 18.533203,0.304688 c 0.512739,0.401739 1.004716,0.827865 1.457031,1.296875 L 31.791016,18.240234 31.970703,18.5 c 1.116684,1.616994 1.7159,3.534828 1.716797,5.5 -0.0012,1.028348 -0.25878,2.026118 -0.580078,3 l -1.667969,-0.962891 c 0.18399,-0.665874 0.33568,-1.343106 0.337891,-2.035156 V 24 c -0.0025,-2.074491 -0.899272,-4.00983 -2.363282,-5.462891 l 1.320313,-2.291015 z M 14.263672,13.914063 18.240234,16.208984 18.5,16.029297 c 1.616994,-1.116684 3.534828,-1.7159 5.5,-1.716797 1.028348,0.0012 2.026118,0.25878 3,0.580078 l -0.962891,1.667969 c -0.665874,-0.18399 -1.343106,-0.33568 -2.035156,-0.337891 H 24 c -2.074491,0.0025 -4.00983,0.899272 -5.462891,2.363281 l -2.291015,-1.320312 -3.279297,-1.894531 c 0.401739,-0.512739 0.827865,-1.004716 1.296875,-1.457031 z M 14.294922,19.5 14.080078,20.035156 C 13.574605,21.295484 13.31405,22.641534 13.3125,24 c 9.36e-4,2.052222 0.63601,4.038325 1.744141,5.759766 l -2.394532,4.144531 0.248047,0.269531 c 0.693793,0.756357 1.460929,1.441354 2.296875,2.042969 l 0.449219,0.324219 2.474609,-4.28711 1.683594,-2.917969 -0.304687,-0.269531 c -1.451247,-1.283989 -2.284261,-3.127051 -2.28711,-5.064453 V 24 c 0.0025,-0.72823 0.122918,-1.451214 0.355469,-2.140625 l 0.130859,-0.388672 z m 0.597656,1.5 1.667969,0.962891 c -0.18399,0.665874 -0.33568,1.343106 -0.337891,2.035156 V 24 c 0.0025,2.074491 0.899272,4.00983 2.363281,5.462891 l -1.320312,2.291015 -1.894531,3.279297 C 14.858355,34.631464 14.366378,34.205338 13.914063,33.736328 L 16.208984,29.759766 16.029297,29.5 c -1.116684,-1.616994 -1.7159,-3.534828 -1.716797,-5.5 0.0012,-1.028348 0.25878,-2.026118 0.580078,-3 z m 14.443359,7.185547 -0.269531,0.304687 c -1.283989,1.451247 -3.127051,2.284261 -5.064453,2.28711 -0.728845,-0.0023 -1.452536,-0.122705 -2.142578,-0.355469 L 21.470703,30.291016 19.5,33.705078 20.035156,33.919922 C 21.295484,34.425395 22.641534,34.68595 24,34.6875 c 2.052222,-9.36e-4 4.038325,-0.63601 5.759766,-1.744141 l 4.144531,2.394532 0.269531,-0.248047 c 0.756357,-0.693793 1.441354,-1.460929 2.042969,-2.296875 l 0.324219,-0.449219 -4.28711,-2.474609 z m 0.126954,1.228515 2.291015,1.320313 3.279297,1.894531 c -0.401739,0.512739 -0.827865,1.004716 -1.296875,1.457031 L 29.759766,31.791016 29.5,31.970703 c -1.616994,1.116684 -3.534828,1.7159 -5.5,1.716797 -1.028348,-0.0012 -2.026118,-0.25878 -3,-0.580078 l 0.962891,-1.667969 c 0.665867,0.183999 1.343072,0.335722 2.035156,0.337891 H 24 c 2.074491,-0.0025 4.00983,-0.899272 5.462891,-2.363282 z"
     id="path9" />
  <linearGradient
     id="_lgradient_1"
     x1="0"
     y1="0.5"
     x2="1.0000000000000002"
     y2="0.5"
     gradientTransform="matrix(8.7318349,0,0,8.7318349,19.634083,19.634083)"
     gradientUnits="userSpaceOnUse">
    <stop
       offset="0%"
       stop-opacity="1"
       style="stop-color:rgb(247,242,6)"
       id="stop11" />
    <stop
       offset="98.26086956521739%"
       stop-opacity="1"
       style="stop-color:rgb(255,187,36)"
       id="stop13" />
  </linearGradient>
  <path
     style="color:#000000;fill:url(#linearGradient1027);-inkscape-stroke:none"
     d="m 24,19.134766 c -2.680223,0 -4.865234,2.185011 -4.865234,4.865234 0,2.680223 2.185011,4.865234 4.865234,4.865234 2.680223,0 4.865234,-2.185011 4.865234,-4.865234 0,-2.680223 -2.185011,-4.865234 -4.865234,-4.865234 z m 0,1 c 2.138965,0 3.865234,1.726269 3.865234,3.865234 0,2.138965 -1.726269,3.865234 -3.865234,3.865234 -2.138965,0 -3.865234,-1.726269 -3.865234,-3.865234 0,-2.138965 1.726269,-3.865234 3.865234,-3.865234 z"
     id="path16" />
</svg>
