<?xml version="1.0" encoding="UTF-8" standalone="no"?>
<!-- Generator: Gravit.io -->

<svg
   style="isolation:isolate"
   viewBox="0 0 48 48"
   width="48pt"
   height="48pt"
   version="1.1"
   id="svg9"
   sodipodi:docname="brave-browser-nightly.svg"
   inkscape:version="1.1.2 (0a00cf5339, 2022-02-04)"
   xmlns:inkscape="http://www.inkscape.org/namespaces/inkscape"
   xmlns:sodipodi="http://sodipodi.sourceforge.net/DTD/sodipodi-0.dtd"
   xmlns:xlink="http://www.w3.org/1999/xlink"
   xmlns="http://www.w3.org/2000/svg"
   xmlns:svg="http://www.w3.org/2000/svg">
  <defs
     id="defs13">
    <linearGradient
       inkscape:collect="always"
       xlink:href="#_lgradient_1"
       id="linearGradient1067"
       x1="10.505"
       y1="24"
       x2="37.494999"
       y2="24"
       gradientUnits="userSpaceOnUse"
       gradientTransform="translate(0,2.265656)" />
    <linearGradient
       inkscape:collect="always"
       xlink:href="#_lgradient_1"
       id="linearGradient15"
       x1="-9.6850061"
       y1="45.161198"
       x2="11.98815"
       y2="21.735205"
       gradientUnits="userSpaceOnUse"
       gradientTransform="matrix(1.1147442,0,0,1.1150348,-0.01237238,-3.3277956)" />
    <linearGradient
       id="_lgradient_1-3"
       x1="0"
       y1="0.5"
       x2="1"
       y2="0.5"
       gradientTransform="matrix(48,0,0,46.985,0.495,0.559)"
       gradientUnits="userSpaceOnUse">
      <stop
         offset="0%"
         stop-opacity="1"
         style="stop-color:rgb(255,229,59)"
         id="stop2-6" />
      <stop
         offset="98.69565217391305%"
         stop-opacity="1"
         style="stop-color:rgb(255,0,91)"
         id="stop4-7" />
    </linearGradient>
    <linearGradient
       inkscape:collect="always"
       xlink:href="#_lgradient_1"
       id="linearGradient872"
       x1="-12.025727"
       y1="6.1170783"
       x2="-0.085100174"
       y2="6.1170783"
       gradientUnits="userSpaceOnUse"
       gradientTransform="matrix(3.8358211,0,0,3.8371386,-0.00544341,-0.00268054)" />
  </defs>
  <sodipodi:namedview
     id="namedview11"
     pagecolor="#ffffff"
     bordercolor="#666666"
     borderopacity="1.0"
     inkscape:pageshadow="2"
     inkscape:pageopacity="0.0"
     inkscape:pagecheckerboard="0"
     inkscape:document-units="pt"
     showgrid="false"
     inkscape:zoom="5.109375"
     inkscape:cx="32"
     inkscape:cy="32"
     inkscape:window-width="1340"
     inkscape:window-height="545"
     inkscape:window-x="214"
     inkscape:window-y="207"
     inkscape:window-maximized="0"
     inkscape:current-layer="svg9" />
  <linearGradient
     id="_lgradient_1"
     x1="0.3906059930752183"
     y1="0.6402966985307723"
     x2="0.9712616817307094"
     y2="0.034928747708064534"
     gradientTransform="scale(48)"
     gradientUnits="userSpaceOnUse">
    <stop
       offset="0%"
       stop-opacity="1"
       style="stop-color:rgb(211,0,220)"
       id="stop2" />
    <stop
       offset="100%"
       stop-opacity="1"
       style="stop-color:rgb(135,0,255)"
       id="stop4" />
  </linearGradient>
  <rect
     x="-46.783188"
     y="1.2253767"
     height="45.80014"
     rx="6.1837621"
     shape-rendering="crispEdges"
     id="rect5-6-7-3"
     ry="6.8055277"
     transform="matrix(0.00524063,-0.99998627,0.99998801,0.00489691,0,0)"
     style="isolation:isolate;fill:#dc00ff;fill-opacity:0.13470298;stroke:url(#linearGradient872);stroke-width:2.0301;stroke-miterlimit:4;stroke-dasharray:none;stroke-opacity:1"
     width="45.801998" />
  <rect
     x="-15.686804"
     y="17.260084"
     height="33.345856"
     rx="6.7920032"
     shape-rendering="crispEdges"
     id="rect5-6-6-6-6"
     style="isolation:isolate;fill:#dc00ff;fill-opacity:0.13470298;stroke:url(#linearGradient15);stroke-width:1.67233;stroke-miterlimit:4;stroke-dasharray:none;stroke-opacity:1"
     ry="7.4743071"
     transform="matrix(0.72446484,-0.68931175,0.68622417,0.72739012,0,0)"
     width="33.338203" />
  <path
     style="color:#000000;fill:url(#linearGradient1067);fill-rule:evenodd;-inkscape-stroke:none"
     d="m 23.998047,12.541047 c 0,0 -0.793819,0.0081 -1.90625,0.378906 -0.533131,0.17771 -1.079417,0.374298 -1.546875,0.523437 -0.467458,0.14914 -0.884678,0.240235 -1.007813,0.240235 -0.013,0 -0.39887,-0.0424 -0.832031,-0.111328 -0.43316,-0.06893 -0.966612,-0.161104 -1.484375,-0.253907 -1.035525,-0.185604 -2.007812,-0.371093 -2.007812,-0.371093 l -0.291016,-0.05664 -0.1875,0.228516 c 0,0 -1.159544,1.403207 -2.322266,2.960937 -0.581361,0.778865 -1.163952,1.59668 -1.609375,2.308594 -0.222711,0.355957 -0.411161,0.685116 -0.550781,0.980469 -0.139619,0.295352 -0.246094,0.53543 -0.246094,0.845703 0,0.677959 0.184922,1.191721 0.455079,1.570312 0.270156,0.378591 0.579417,0.621718 0.84375,0.902344 0.583895,0.62089 3.130762,3.32938 3.460937,3.679687 0.195036,0.207348 0.3965,0.391486 0.501953,0.583985 0.10583,0.193187 0.155477,0.352792 0.0078,0.703125 -0.195829,0.463932 -0.462654,1.03335 -0.59375,1.683594 -0.131097,0.650243 -0.111099,1.402952 0.279297,2.130859 0.363287,0.676884 0.849008,1.238378 1.36914,1.628906 0.520132,0.390529 1.083423,0.64482 1.669922,0.535156 0.485982,-0.09087 1.077319,-0.357118 1.685547,-0.654296 0.608227,-0.297179 1.189561,-0.619446 1.535156,-0.84375 v -0.002 h 0.002 c 0.365502,-0.238192 1.006984,-0.744805 1.601563,-1.302734 0.297289,-0.278965 0.576464,-0.566334 0.796875,-0.845703 0.195422,-0.247696 0.339759,-0.488898 0.378906,-0.826172 0.03915,0.337274 0.183484,0.578476 0.378906,0.826172 0.220411,0.279369 0.499586,0.566738 0.796875,0.845703 0.594579,0.557929 1.236061,1.064542 1.601563,1.302734 h 0.002 v 0.002 c 0.345595,0.224304 0.926929,0.546571 1.535156,0.84375 0.608228,0.297178 1.199565,0.563427 1.685547,0.654296 0.586499,0.109664 1.14979,-0.144627 1.669922,-0.535156 0.520132,-0.390528 1.005853,-0.952022 1.36914,-1.628906 0.390396,-0.727907 0.410394,-1.480616 0.279297,-2.130859 -0.131096,-0.650244 -0.397921,-1.219662 -0.59375,-1.683594 h -0.002 c -0.148002,-0.35026 -0.09611,-0.510004 0.0098,-0.703125 0.105499,-0.192433 0.306743,-0.376453 0.501953,-0.583985 l 0.002,-0.002 c 0.332415,-0.352691 2.875408,-3.057183 3.458984,-3.677734 0.264333,-0.280626 0.573594,-0.523753 0.84375,-0.902344 0.270157,-0.378591 0.455079,-0.892353 0.455079,-1.570312 0,-0.310273 -0.106475,-0.550351 -0.246094,-0.845703 -0.13962,-0.295353 -0.32807,-0.624512 -0.550781,-0.980469 -0.445423,-0.711914 -1.028014,-1.529729 -1.609375,-2.308594 -1.162722,-1.55773 -2.322266,-2.960937 -2.322266,-2.960937 l -0.1875,-0.228516 -0.291016,0.05664 c 0,0 -0.972287,0.185489 -2.007812,0.371093 -0.517763,0.0928 -1.051215,0.184975 -1.484375,0.253907 -0.433161,0.06893 -0.819035,0.111328 -0.832031,0.111328 -0.123135,0 -0.540355,-0.09109 -1.007813,-0.240235 C 26.987735,13.294204 26.441449,13.097616 25.908318,12.919906 24.795887,12.549095 24.002068,12.541 24.002068,12.541 H 24 Z m 0,1 c 0,0 0.606183,-0.003 1.59375,0.326172 0.516868,0.172289 1.063803,0.371436 1.558594,0.529296 0.49479,0.15786 0.910635,0.28711 1.3125,0.28711 0.249503,0 0.545614,-0.05229 0.990234,-0.123047 0.44462,-0.07076 0.982545,-0.164365 1.503906,-0.257813 0.888335,-0.159222 1.489584,-0.274748 1.71875,-0.318359 0.159115,0.193467 1.056642,1.280367 2.111328,2.693359 0.572138,0.766509 1.142799,1.569431 1.5625,2.240235 0.209851,0.335401 0.381433,0.638528 0.494141,0.876953 0.112708,0.238424 0.150391,0.431945 0.150391,0.419922 0,0.516039 -0.103689,0.757826 -0.269532,0.990234 -0.165842,0.232408 -0.438145,0.457503 -0.757812,0.796875 -0.584103,0.621111 -3.13316,3.333996 -3.458985,3.679688 h -0.002 c -0.131127,0.139549 -0.433767,0.393934 -0.65039,0.789062 -0.216624,0.395128 -0.305732,0.973526 -0.05273,1.572266 0.205172,0.486067 0.434753,0.996135 0.535157,1.49414 0.100403,0.498006 0.08691,0.961893 -0.179688,1.458985 -0.294712,0.549114 -0.701976,1.00956 -1.089844,1.300781 -0.387867,0.291221 -0.749265,0.378851 -0.884765,0.353516 -0.236018,-0.04413 -0.853916,-0.288992 -1.429688,-0.570313 -0.575167,-0.281025 -1.15095,-0.604353 -1.429687,-0.785156 h -0.002 c -0.257932,-0.168224 -0.914161,-0.678453 -1.462891,-1.19336 -0.274585,-0.257659 -0.527708,-0.521415 -0.697266,-0.736328 -0.169557,-0.214912 -0.210937,-0.419716 -0.210937,-0.3125 0,0.116837 0.01811,-0.02447 0.179687,-0.185547 0.161577,-0.161078 0.40987,-0.357074 0.675782,-0.542968 0.531823,-0.371788 1.092786,-0.685069 1.345703,-0.855469 0.143509,-0.09707 0.695626,-0.427057 1.195312,-0.765625 0.249843,-0.169284 0.490981,-0.344171 0.691406,-0.519531 0.100213,-0.08768 0.190577,-0.173596 0.271485,-0.275391 0.08091,-0.101795 0.17275,-0.213997 0.193359,-0.435547 v -0.002 c 0.01844,-0.203842 0.02304,-0.448304 -0.06055,-0.710937 -0.08359,-0.262633 -0.22596,-0.539854 -0.482422,-1.023438 v -0.002 c -0.26915,-0.506511 -0.620331,-1.057112 -0.876953,-1.568359 -0.256621,-0.511248 -0.381425,-0.977062 -0.34375,-1.1875 0.02917,-0.162925 0.270354,-0.416545 0.738282,-0.65625 0.467927,-0.239706 1.085734,-0.447586 1.626953,-0.652344 0.524667,-0.198308 1.295761,-0.487469 1.966797,-0.740235 0.671036,-0.252765 1.182576,-0.440288 1.40039,-0.541015 0.09799,-0.04532 0.205473,-0.06352 0.337891,-0.275391 0.06621,-0.105934 0.110488,-0.315266 0.05078,-0.478515 C 33.801621,17.471547 33.699,17.393076 33.625,17.345734 33.329001,17.156368 33.136438,17.175389 32.730469,17.13675 c -0.365963,-0.03483 -1.116123,-0.127448 -1.898438,-0.175781 -0.782315,-0.04833 -1.582321,-0.07152 -2.208984,0.103515 -0.482546,0.134779 -1.148836,0.306832 -1.720703,0.476563 -0.285934,0.08486 -0.548209,0.168364 -0.763672,0.251953 -0.107732,0.04179 -0.203165,0.08291 -0.294922,0.132812 -0.09176,0.0499 -0.185844,0.07641 -0.304688,0.269532 h -0.002 c -0.03454,0.05655 -0.162009,0.190997 -0.220703,0.439453 -0.05869,0.248455 -0.03505,0.496051 0.03906,0.902343 0.07176,0.390595 0.286903,1.491138 0.492187,2.580078 0.205284,1.088941 0.404015,2.21128 0.429688,2.453125 0.03721,0.345029 0.06007,0.592955 0.05078,0.640625 -0.0046,0.0034 -0.04046,0.02969 -0.158203,0.05664 -0.351979,0.08045 -0.816813,0.189697 -1.240235,0.277344 -0.423421,0.08765 -0.84159,0.148437 -0.929687,0.148437 -0.0881,0 -0.506266,-0.06079 -0.929688,-0.148437 -0.423421,-0.08765 -0.888255,-0.196892 -1.240234,-0.277344 -0.116813,-0.0267 -0.15291,-0.05279 -0.158203,-0.05664 -0.0092,-0.04748 0.01354,-0.295345 0.05078,-0.640625 0.02567,-0.241845 0.224404,-1.364184 0.429688,-2.453125 0.205284,-1.08894 0.420424,-2.189483 0.492187,-2.580078 0.07411,-0.406292 0.09776,-0.653888 0.03906,-0.902343 -0.05869,-0.248456 -0.18616,-0.382905 -0.220703,-0.439453 h -0.002 c -0.118843,-0.193121 -0.21293,-0.219628 -0.304687,-0.269532 -0.09176,-0.0499 -0.18719,-0.09102 -0.294922,-0.132812 -0.215463,-0.08359 -0.477738,-0.167088 -0.763672,-0.251953 -0.571867,-0.169731 -1.238157,-0.341784 -1.720703,-0.476563 -0.626663,-0.175031 -1.426669,-0.151849 -2.208984,-0.103515 -0.782315,0.04833 -1.532475,0.14095 -1.898438,0.175781 -0.405967,0.03864 -0.598535,0.01962 -0.894531,0.208984 -0.074,0.04734 -0.176619,0.125811 -0.236328,0.289063 -0.05971,0.163252 -0.01543,0.372581 0.05078,0.478515 0.132421,0.211868 0.239902,0.230076 0.337891,0.275391 0.217814,0.100727 0.729354,0.28825 1.40039,0.541015 0.671036,0.252766 1.44213,0.541927 1.966797,0.740235 0.541219,0.204758 1.159026,0.412638 1.626953,0.652344 0.467928,0.239705 0.709113,0.493325 0.738282,0.65625 0.03768,0.210438 -0.08713,0.676252 -0.34375,1.1875 -0.256622,0.511247 -0.607803,1.061848 -0.876954,1.568359 v 0.002 c -0.256461,0.483584 -0.398834,0.760805 -0.482421,1.023438 -0.08359,0.262633 -0.07898,0.507095 -0.06055,0.710937 v 0.002 c 0.02061,0.22155 0.112452,0.333752 0.193359,0.435547 0.08091,0.101795 0.171272,0.18771 0.271484,0.275391 0.200426,0.17536 0.441564,0.350247 0.691407,0.519531 0.499686,0.338568 1.051803,0.668556 1.195312,0.765625 0.252917,0.1704 0.81388,0.483681 1.345703,0.855469 0.265912,0.185894 0.514205,0.38189 0.675782,0.542968 0.161577,0.161079 0.179687,0.302384 0.179687,0.185547 0,-0.107216 -0.04138,0.09759 -0.210937,0.3125 -0.169558,0.214913 -0.422681,0.478669 -0.697266,0.736328 -0.54917,0.51532 -1.207346,1.025552 -1.464844,1.19336 -0.278737,0.180803 -0.85452,0.504131 -1.429687,0.785156 -0.575772,0.281321 -1.19367,0.526182 -1.429688,0.570313 -0.1355,0.02534 -0.496898,-0.06229 -0.884765,-0.353516 -0.387868,-0.291221 -0.795132,-0.751667 -1.089844,-1.300781 -0.266603,-0.497092 -0.280091,-0.960979 -0.179688,-1.458985 0.100404,-0.498005 0.329985,-1.008073 0.535157,-1.49414 0.252335,-0.598666 0.163685,-1.177204 -0.05273,-1.572266 -0.216419,-0.395062 -0.519088,-0.649328 -0.65039,-0.789062 h -0.002 c -0.325825,-0.345692 -2.874882,-3.058577 -3.458985,-3.679688 -0.319667,-0.339372 -0.59197,-0.564467 -0.757812,-0.796875 -0.165843,-0.232408 -0.269532,-0.474195 -0.269532,-0.990234 0,0.01202 0.03768,-0.181498 0.150391,-0.419922 0.112708,-0.238425 0.28429,-0.541552 0.494141,-0.876953 0.419701,-0.670804 0.990362,-1.473726 1.5625,-2.240235 1.054686,-1.412992 1.952213,-2.499892 2.111328,-2.693359 0.229166,0.04361 0.830415,0.159137 1.71875,0.318359 0.521361,0.09345 1.059286,0.187057 1.503906,0.257813 0.44462,0.07076 0.740731,0.123047 0.990234,0.123047 0.401865,0 0.81771,-0.12925 1.3125,-0.28711 0.494791,-0.15786 1.041726,-0.357007 1.558594,-0.529296 0.985244,-0.328415 1.586998,-0.326179 1.589844,-0.326172 z m -6.767578,4.417968 c 0.743183,-0.04592 1.522617,-0.03061 1.876953,0.06836 0.498453,0.139222 1.161149,0.310637 1.707031,0.472656 0.272941,0.08101 0.517667,0.161433 0.685547,0.226562 0.0794,0.0308 0.136177,0.0575 0.167969,0.07422 0.0078,0.0089 0.04284,0.06195 0.04297,0.0625 3.06e-4,0.0013 0.0141,0.138434 -0.05078,0.494141 -0.06824,0.371404 -0.284268,1.481661 -0.490234,2.574219 -0.205966,1.092557 -0.398079,2.123097 -0.441406,2.53125 -0.03253,0.301628 -0.114498,0.588969 -0.03516,0.960937 0.03967,0.185984 0.147998,0.395621 0.316407,0.541016 0.168408,0.145395 0.371777,0.225714 0.597656,0.277343 0.348021,0.07955 0.820391,0.189897 1.261719,0.28125 0.441327,0.09135 0.813956,0.169922 1.130859,0.169922 0.316903,0 0.689532,-0.07857 1.130859,-0.169922 0.441328,-0.09135 0.913698,-0.201702 1.261719,-0.28125 h 0.002 c 0.225671,-0.05166 0.427439,-0.131992 0.595703,-0.277343 0.168264,-0.145352 0.276645,-0.355128 0.316407,-0.541016 0.07952,-0.371776 -0.0026,-0.659057 -0.03516,-0.960937 -0.04333,-0.408153 -0.23544,-1.438693 -0.441406,-2.53125 -0.205966,-1.092558 -0.421997,-2.202815 -0.490234,-2.574219 -0.06489,-0.355707 -0.05109,-0.492847 -0.05078,-0.494141 1.31e-4,-5.5e-4 0.03517,-0.05356 0.04297,-0.0625 0.03179,-0.01672 0.08857,-0.04342 0.167969,-0.07422 0.16788,-0.06513 0.412606,-0.145553 0.685547,-0.226562 0.545882,-0.162019 1.208578,-0.333434 1.707031,-0.472656 0.354336,-0.09897 1.13377,-0.114276 1.876953,-0.06836 0.333883,0.02063 0.539857,0.04868 0.837891,0.07813 -0.640731,0.241095 -1.357138,0.508913 -1.855469,0.697266 -0.51078,0.193242 -1.157444,0.404722 -1.728516,0.697266 -0.571071,0.292543 -1.144747,0.683064 -1.267578,1.36914 -0.114324,0.63856 0.143716,1.234998 0.433594,1.8125 0.289878,0.577502 0.649823,1.142309 0.888672,1.591797 0.249592,0.470747 0.370774,0.727546 0.412109,0.857422 0.03201,0.100583 0.02147,0.154902 0.01367,0.246094 -0.02635,0.03001 -0.0625,0.07007 -0.123047,0.123047 -0.144168,0.126139 -0.361718,0.286143 -0.59375,0.443359 -0.464063,0.314431 -0.961822,0.605741 -1.195312,0.763672 -0.124083,0.0836 -0.773497,0.457023 -1.357422,0.865234 -0.291963,0.204106 -0.57728,0.421751 -0.810547,0.654297 C 24.214534,28.366882 24.041729,28.610535 24,28.960968 23.958271,28.610535 23.785466,28.366882 23.576172,28.158234 23.342905,27.925688 23.057588,27.708043 22.765625,27.503937 22.1817,27.095726 21.532286,26.722302 21.408203,26.638703 c -0.23349,-0.157931 -0.731249,-0.449241 -1.195312,-0.763672 -0.232032,-0.157216 -0.449582,-0.31722 -0.59375,-0.443359 -0.06055,-0.05298 -0.0967,-0.09304 -0.123047,-0.123047 -0.0078,-0.09119 -0.01834,-0.145511 0.01367,-0.246094 0.04134,-0.129876 0.162517,-0.386675 0.412109,-0.857422 v -0.002 c 0.238852,-0.449281 0.599065,-1.012882 0.888672,-1.589844 0.289878,-0.577502 0.547918,-1.17394 0.433594,-1.8125 -0.122831,-0.686076 -0.696507,-1.076597 -1.267579,-1.36914 -0.571071,-0.292544 -1.217735,-0.504024 -1.728515,-0.697266 -0.498331,-0.188353 -1.214738,-0.456171 -1.855469,-0.697266 0.298034,-0.02945 0.504008,-0.0575 0.837891,-0.07813 z M 24,31.847687 c -0.248541,0 -0.333604,0.0519 -0.544922,0.117188 -0.211317,0.06528 -0.473632,0.15678 -0.765625,0.267578 -0.583985,0.221596 -1.28768,0.521539 -1.927734,0.853515 -1.232028,0.637979 -2.087331,1.064521 -2.449219,1.291016 -0.150672,0.09463 -0.285386,0.248836 -0.34375,0.425781 -0.05836,0.176945 -0.04183,0.353295 0.002,0.494141 0.08757,0.281692 0.261888,0.468268 0.466797,0.613281 0.0953,0.06744 3.870552,2.997748 4.054687,3.160156 0.158473,0.140242 0.376043,0.347147 0.615235,0.53125 0.239192,0.184104 0.479716,0.388672 0.892578,0.388672 0.412862,0 0.653386,-0.204568 0.892578,-0.388672 0.239192,-0.184103 0.456762,-0.391008 0.615234,-0.53125 0.184136,-0.162408 3.959386,-3.092711 4.054688,-3.160156 0.204909,-0.145013 0.379226,-0.331589 0.466797,-0.613281 0.04378,-0.140846 0.06032,-0.317196 0.002,-0.494141 C 29.972886,34.62582 29.838172,34.471617 29.6875,34.376984 29.325168,34.150211 28.469139,33.723858 27.238281,33.085968 26.597844,32.754063 25.892428,32.45404 25.308594,32.232453 25.016677,32.121659 24.756162,32.030162 24.544922,31.964875 24.333681,31.899588 24.248541,31.847687 24,31.847687 Z m 0,1 c -0.128542,0 0.06721,0.01772 0.25,0.07422 0.18279,0.05649 0.428871,0.141263 0.705078,0.246094 0.552415,0.209662 1.231657,0.499546 1.824219,0.80664 1.12946,0.585341 1.871734,0.969473 2.173828,1.142578 -0.462521,0.330447 -3.617234,2.770777 -4.107422,3.203125 -0.180527,0.159759 -0.382692,0.349885 -0.5625,0.488282 -0.179808,0.138396 -0.357066,0.18164 -0.283203,0.18164 0.07386,0 -0.103395,-0.04324 -0.283203,-0.18164 -0.179808,-0.138397 -0.381973,-0.328523 -0.5625,-0.488282 -0.490188,-0.432348 -3.644901,-2.872678 -4.107422,-3.203125 0.302236,-0.173279 1.043608,-0.557318 2.173828,-1.142578 0.591945,-0.307023 1.271705,-0.596986 1.824219,-0.80664 0.276257,-0.104827 0.522208,-0.189598 0.705078,-0.246094 0.18287,-0.0565 0.378542,-0.07422 0.25,-0.07422 z"
     id="path7" />
</svg>
