<?xml version="1.0" encoding="UTF-8" standalone="no"?>
<!-- Generator: Gravit.io -->

<svg
   style="isolation:isolate"
   viewBox="0 0 48 48"
   width="48pt"
   height="48pt"
   version="1.1"
   id="svg21"
   sodipodi:docname="calibre-ebook-edit.svg"
   inkscape:version="1.1.2 (0a00cf5339, 2022-02-04)"
   xmlns:inkscape="http://www.inkscape.org/namespaces/inkscape"
   xmlns:sodipodi="http://sodipodi.sourceforge.net/DTD/sodipodi-0.dtd"
   xmlns:xlink="http://www.w3.org/1999/xlink"
   xmlns="http://www.w3.org/2000/svg"
   xmlns:svg="http://www.w3.org/2000/svg">
  <defs
     id="defs25">
    <linearGradient
       inkscape:collect="always"
       xlink:href="#_lgradient_48"
       id="linearGradient15"
       x1="-9.6850061"
       y1="45.161198"
       x2="11.98815"
       y2="21.735205"
       gradientUnits="userSpaceOnUse"
       gradientTransform="matrix(1.1147442,0,0,1.1150348,-0.01237238,-3.3277956)" />
    <linearGradient
       id="_lgradient_1"
       x1="0"
       y1="0.5"
       x2="1"
       y2="0.5"
       gradientTransform="matrix(48,0,0,46.985,0.495,0.559)"
       gradientUnits="userSpaceOnUse">
      <stop
         offset="0%"
         stop-opacity="1"
         style="stop-color:rgb(255,229,59)"
         id="stop2-3" />
      <stop
         offset="98.69565217391305%"
         stop-opacity="1"
         style="stop-color:rgb(255,0,91)"
         id="stop4-6" />
    </linearGradient>
    <linearGradient
       inkscape:collect="always"
       xlink:href="#_lgradient_48"
       id="linearGradient872"
       x1="-12.025727"
       y1="6.1170783"
       x2="-0.085100174"
       y2="6.1170783"
       gradientUnits="userSpaceOnUse"
       gradientTransform="matrix(3.8358211,0,0,3.8371386,-0.00544341,-0.00268054)" />
    <linearGradient
       inkscape:collect="always"
       xlink:href="#_lgradient_47"
       id="linearGradient888"
       x1="13.861724"
       y1="24.145006"
       x2="34.454517"
       y2="24.145006"
       gradientUnits="userSpaceOnUse" />
  </defs>
  <sodipodi:namedview
     id="namedview23"
     pagecolor="#ffffff"
     bordercolor="#666666"
     borderopacity="1.0"
     inkscape:pageshadow="2"
     inkscape:pageopacity="0.0"
     inkscape:pagecheckerboard="0"
     inkscape:document-units="pt"
     showgrid="false"
     inkscape:zoom="5.109375"
     inkscape:cx="32"
     inkscape:cy="32"
     inkscape:window-width="1056"
     inkscape:window-height="545"
     inkscape:window-x="257"
     inkscape:window-y="80"
     inkscape:window-maximized="0"
     inkscape:current-layer="svg21" />
  <linearGradient
     id="_lgradient_47"
     x1="0.0681818181817685"
     y1="0.23295454545454564"
     x2="0.9384302091713562"
     y2="0.779389581657281"
     gradientTransform="matrix(20.592793,0,0,24.928118,13.861724,11.680947)"
     gradientUnits="userSpaceOnUse">
    <stop
       offset="1.3043478260869565%"
       stop-opacity="1"
       style="stop-color:rgb(55,236,186)"
       id="stop2" />
    <stop
       offset="97.82608695652173%"
       stop-opacity="1"
       style="stop-color:rgb(114,175,211)"
       id="stop4" />
  </linearGradient>
  <rect
     x="-46.783188"
     y="1.2253767"
     height="45.80014"
     rx="6.1837621"
     shape-rendering="crispEdges"
     id="rect5-6-7-3"
     ry="6.8055277"
     transform="matrix(0.00524063,-0.99998627,0.99998801,0.00489691,0,0)"
     style="isolation:isolate;fill:#00ff9b;fill-opacity:0.13470298;stroke:url(#linearGradient872);stroke-width:2.0301;stroke-miterlimit:4;stroke-dasharray:none;stroke-opacity:1"
     width="45.801998" />
  <rect
     x="-15.686804"
     y="17.260084"
     height="33.345856"
     rx="6.7920032"
     shape-rendering="crispEdges"
     id="rect5-6-6-6-6"
     style="isolation:isolate;fill:#00ff9b;fill-opacity:0.13470298;stroke:url(#linearGradient15);stroke-width:1.67233;stroke-miterlimit:4;stroke-dasharray:none;stroke-opacity:1"
     ry="7.4743071"
     transform="matrix(0.72446484,-0.68931175,0.68622417,0.72739012,0,0)"
     width="33.338203" />
  <path
     style="color:#000000;fill:url(#linearGradient888);fill-rule:evenodd;-inkscape-stroke:none"
     d="m 16.572266,11.181641 c -1.766217,0 -3.210938,1.442767 -3.210938,3.208984 v 17.882812 0.542969 0.541016 0.542969 c 0,1.766216 1.444721,3.208984 3.210938,3.208984 h 8.669921 c 0.868509,0 1.583985,-0.714877 1.583985,-1.583984 0,-0.869108 -0.715475,-1.583985 -1.583985,-1.583985 h -8.128906 c -0.327743,0 -0.583984,-0.256241 -0.583984,-0.583984 0,-0.327742 0.256241,-0.583985 0.583984,-0.583985 h 5.960938 c 0.868509,0 1.583984,-0.714877 1.583984,-1.583984 0,-0.869107 -0.715475,-1.583984 -1.583984,-1.583984 H 20.59375 v -2.208985 c 0,-0.719236 -0.593262,-1.3125 -1.3125,-1.3125 -0.719237,0 -1.3125,0.593264 -1.3125,1.3125 v 2.208985 h -1.396484 c -0.01463,0 -0.02838,0.0037 -0.04297,0.0039 V 15.474609 c 0,-0.62688 0.498119,-1.126953 1.125,-1.126953 h 0.314453 v 9.048828 c 0,0.272159 0.03388,0.515721 0.128906,0.738282 0.09503,0.222561 0.269907,0.435333 0.515625,0.537109 0.245719,0.101776 0.517642,0.07447 0.742188,-0.01563 0.224545,-0.0901 0.422775,-0.237393 0.615234,-0.429688 L 21.449219,22.75 l 1.476562,1.476562 c 0.192484,0.19232 0.39064,0.339601 0.615235,0.429688 0.224594,0.09009 0.496466,0.117336 0.742187,0.01563 0.245721,-0.101711 0.4205,-0.312566 0.515625,-0.535156 0.09512,-0.222591 0.13086,-0.468025 0.130859,-0.740235 v -9.048828 h 5.730469 c 0.626176,0 1.126953,0.500275 1.126953,1.126953 v 6.501953 c 0,0.868806 0.715179,1.583985 1.583985,1.583985 0.868509,0 1.583984,-0.714877 1.583984,-1.583985 v -7.585937 c 0,-1.766337 -1.445165,-3.208984 -3.210937,-3.208984 z m 0,1 h 15.171875 c 1.224514,0 2.210937,0.98395 2.210937,2.208984 v 7.585937 c 0,0.327442 -0.257029,0.583985 -0.583984,0.583985 -0.327742,0 -0.583985,-0.256241 -0.583985,-0.583985 v -6.501953 c 0,-1.168143 -0.959388,-2.126953 -2.126953,-2.126953 h -6.730469 v 10.048828 c 10e-7,0.158497 -0.02472,0.253124 -0.04492,0.310547 -0.05492,-0.02623 -0.139585,-0.07523 -0.251954,-0.1875 l -2.183593,-2.183594 -2.185547,2.183594 c -0.112392,0.112296 -0.197076,0.161275 -0.251953,0.1875 -0.02019,-0.05746 -0.04297,-0.152017 -0.04297,-0.310547 V 13.347656 h -1.314453 c -1.167943,0 -2.125,0.959011 -2.125,2.126953 v 15.298828 l 0.599609,-0.123046 c 0.141818,-0.02897 0.290533,-0.04492 0.44336,-0.04492 h 2.396484 v -0.5 -2.708985 c 0,-0.178174 0.134326,-0.3125 0.3125,-0.3125 0.178175,0 0.3125,0.134326 0.3125,0.3125 v 3.208985 h 3.480469 c 0.326957,0 0.583984,0.256543 0.583984,0.583984 0,0.32744 -0.257027,0.583985 -0.583984,0.583984 h -5.960938 c -0.868806,0 -1.583984,0.71518 -1.583984,1.583985 0,0.868805 0.715179,1.583984 1.583984,1.583984 h 8.128906 c 0.326956,0 0.583985,0.256543 0.583985,0.583985 0,0.327441 -0.257028,0.583984 -0.583985,0.583984 h -8.669921 c -1.225155,0 -2.210938,-0.98383 -2.210938,-2.208984 V 33.357422 32.816406 32.273437 14.390625 c 0,-1.225154 0.985783,-2.208984 2.210938,-2.208984 z m 3.021484,1.166015 v 0.5 8.458985 l 1.826172,-1.826172 c 0.02007,-0.02007 0.03774,-0.01885 0.05859,0.002 l 1.824218,1.824219 v -8.958985 z m 1,1 h 1.708984 v 5.542969 l -0.117187,-0.117188 c -0.402924,-0.401893 -1.071981,-0.402626 -1.47461,0 l -0.117187,0.117188 z"
     id="path7" />
  <linearGradient
     id="_lgradient_48"
     x1="0.04062500000000003"
     y1="0.054347826086956486"
     x2="0.9683507709251103"
     y2="0.9739513503160315"
     gradientTransform="matrix(10.838312,0,0,10.838312,26.052657,24.686921)"
     gradientUnits="userSpaceOnUse">
    <stop
       offset="0%"
       stop-opacity="1"
       style="stop-color:rgb(240,107,169)"
       id="stop9" />
    <stop
       offset="98.69565217391305%"
       stop-opacity="1"
       style="stop-color:rgb(66,216,246)"
       id="stop11" />
  </linearGradient>
  <linearGradient
     id="_lgradient_49"
     x1="25.601788"
     y1="25.641047"
     x2="45.083832"
     y2="44.952526"
     gradientTransform="matrix(0.54191016,0,0,0.54192109,12.370372,11.139031)"
     gradientUnits="userSpaceOnUse"
     xlink:href="#_lgradient_48">
    <stop
       offset="0%"
       stop-opacity="1"
       style="stop-color:rgb(240,107,169)"
       id="stop14" />
    <stop
       offset="98.69565217391305%"
       stop-opacity="1"
       style="stop-color:rgb(66,216,246)"
       id="stop16" />
  </linearGradient>
  <path
     style="color:#000000;vector-effect:non-scaling-stroke;fill:url(#_lgradient_49);fill-rule:evenodd;stroke-linecap:square;stroke-miterlimit:3;-inkscape-stroke:none"
     d="m 31.464844,24.4375 c -1.431889,0 -2.811514,0.540697 -3.861328,1.511719 -1.049868,0.973906 -1.692805,2.309025 -1.798829,3.734375 -0.03085,0.406772 0.279039,0.766855 0.685547,0.796875 h 0.002 c 0.405986,0.02917 0.764036,-0.279911 0.794922,-0.685547 0.0793,-1.053364 0.551111,-2.039501 1.326172,-2.757813 0.774504,-0.718269 1.794647,-1.115234 2.851563,-1.115234 1.110169,0 2.177502,0.442803 2.964843,1.226562 0.782964,0.785524 1.22461,1.849576 1.22461,2.957032 0,1.108374 -0.442384,2.173271 -1.226563,2.958984 -0.787226,0.783031 -1.853273,1.224609 -2.96289,1.224609 -0.407168,0 -0.742188,0.336642 -0.742188,0.744141 0,0.4075 0.33502,0.742188 0.742188,0.742188 1.503977,0 2.948599,-0.599051 4.013672,-1.660157 1.063324,-1.064457 1.662109,-2.507339 1.662109,-4.009765 0,-1.502428 -0.598785,-2.945309 -1.662109,-4.009766 C 34.413443,25.034598 32.968822,24.4375 31.464844,24.4375 Z m 0,0.5 c 1.371423,0 2.690666,0.545847 3.662109,1.513672 0.968723,0.970786 1.513672,2.285492 1.513672,3.654297 0,1.369722 -0.545683,2.685275 -1.515625,3.65625 -0.971331,0.967095 -2.289285,1.513672 -3.660156,1.513672 -0.136914,0 -0.242188,-0.105604 -0.242188,-0.242188 0,-0.136582 0.105274,-0.244141 0.242188,-0.244141 1.242826,0 2.435733,-0.494425 3.316406,-1.371093 0.877333,-0.87905 1.373047,-2.071131 1.373047,-3.3125 0,-1.241369 -0.495714,-2.431498 -1.373047,-3.310547 v -0.002 c -0.880673,-0.876667 -2.073579,-1.371094 -3.316406,-1.371094 -1.182278,0 -2.323908,0.445487 -3.191407,1.25 -0.868024,0.804469 -1.395677,1.907696 -1.484375,3.085937 -0.01029,0.135196 -0.124706,0.232502 -0.261718,0.222657 -0.136492,-0.01008 -0.234942,-0.123539 -0.22461,-0.259766 0.09665,-1.299398 0.683239,-2.516181 1.640625,-3.404297 0.95744,-0.885579 2.215618,-1.378906 3.521485,-1.378906 z m -0.25,2.107422 c -0.289751,0 -0.541919,0.212336 -0.589844,0.498047 l -0.04492,0.265625 c -0.04217,0.01639 -0.08384,0.03403 -0.125,0.05273 l -0.210937,-0.152344 c -0.101851,-0.07288 -0.224042,-0.111328 -0.347657,-0.111328 -0.157973,0 -0.311668,0.06369 -0.423828,0.177735 l -0.349609,0.347656 c -0.204819,0.204818 -0.232777,0.532774 -0.06445,0.769531 l 0.15625,0.21875 c -0.01846,0.04197 -0.03478,0.08417 -0.05078,0.126953 l -0.253906,0.04297 c -0.285366,0.04802 -0.5,0.299726 -0.5,0.589844 v 0.49414 c 0,0.290118 0.214116,0.541734 0.5,0.589844 L 29.173828,31 c 0.01641,0.04216 0.03403,0.08384 0.05273,0.125 l -0.15039,0.208984 c -0.168333,0.235847 -0.141243,0.566619 0.06641,0.771485 l 0.347656,0.347656 v 0.002 c 0.11046,0.109557 0.26293,0.173828 0.421875,0.173828 0.124373,0 0.245985,-0.0398 0.345703,-0.111328 l 0.21875,-0.15625 c 0.03838,0.01689 0.07627,0.03398 0.115235,0.04883 l 0.04297,0.257813 c 0.04801,0.286225 0.298302,0.498047 0.58789,0.498047 h 0.496094 c 0.289588,0 0.541919,-0.212336 0.589844,-0.498047 l 0.04297,-0.259766 c 0.04264,-0.01632 0.08535,-0.03217 0.126954,-0.05078 l 0.21289,0.152344 c 0.102006,0.07367 0.224042,0.111328 0.347656,0.111328 0.158135,0 0.311015,-0.06492 0.421875,-0.175782 l 0.34961,-0.349609 c 0.204552,-0.204552 0.234981,-0.532422 0.06641,-0.769531 l -0.154297,-0.214844 c 0.01847,-0.04117 0.03656,-0.08283 0.05273,-0.125 l 0.257812,-0.04297 c 0.286225,-0.04801 0.5,-0.300255 0.5,-0.589843 v -0.490235 c 0.0046,-0.292311 -0.210206,-0.54564 -0.496094,-0.59375 l -0.259765,-0.04297 c -0.01626,-0.0427 -0.03217,-0.08525 -0.05078,-0.126953 l 0.152344,-0.21289 c 0.167819,-0.23605 0.140484,-0.566455 -0.06641,-0.771485 l -0.349609,-0.349609 c -0.110948,-0.110041 -0.263903,-0.173828 -0.421875,-0.173828 -0.12378,0 -0.245618,0.03971 -0.345704,0.111328 l -0.214843,0.152344 c -0.04552,-0.02047 -0.09175,-0.03898 -0.138672,-0.05664 l -0.04297,-0.255859 c -0.04801,-0.286225 -0.300256,-0.498047 -0.589844,-0.498047 z m 0.1875,0.816406 h 0.123047 l 0.05078,0.306641 0.002,0.002 c 0.02719,0.156315 0.144134,0.288824 0.302734,0.328125 0.153645,0.03925 0.300854,0.09939 0.4375,0.179687 h 0.002 c 0.135477,0.07858 0.310704,0.07253 0.441407,-0.01953 l 0.255859,-0.183594 0.08789,0.08789 -0.183594,0.255859 c -0.0937,0.131456 -0.09916,0.307247 -0.01758,0.445313 0.07885,0.132507 0.137141,0.276415 0.175781,0.425781 0.03917,0.15811 0.169315,0.276807 0.328125,0.302734 l 0.310547,0.05078 v 0.125 l -0.310547,0.05078 h -0.002 c -0.156797,0.02727 -0.286893,0.147026 -0.326172,0.302734 -0.03939,0.150262 -0.09911,0.293658 -0.177734,0.425782 -0.08008,0.13573 -0.07393,0.314559 0.01953,0.445312 l 0.181641,0.257813 -0.08789,0.08789 -0.255859,-0.183594 v 0.002 c -0.133454,-0.09614 -0.305987,-0.101284 -0.44336,-0.02148 l -0.002,0.002 h -0.002 c -0.13324,0.07928 -0.275507,0.139106 -0.425781,0.177735 -0.1565,0.04054 -0.276096,0.167427 -0.300782,0.330078 l -0.05273,0.30664 h -0.123047 l -0.05078,-0.310546 c -0.02663,-0.159746 -0.145262,-0.285685 -0.298828,-0.326172 h -0.002 c -0.145615,-0.03758 -0.287157,-0.09553 -0.419922,-0.171875 v -0.002 h -0.002 c -0.06409,-0.03622 -0.130366,-0.05273 -0.201172,-0.05273 -0.08306,0 -0.166137,0.02379 -0.240235,0.07813 l 0.002,-0.0039 -0.259766,0.185547 -0.08789,-0.08789 0.181641,-0.253906 v -0.002 c 0.09295,-0.131782 0.100624,-0.306171 0.01758,-0.445313 -0.07965,-0.132913 -0.14152,-0.275815 -0.179687,-0.423828 v -0.0039 -0.002 c -0.0421,-0.150745 -0.167335,-0.266909 -0.324219,-0.294922 h -0.002 l -0.314453,-0.05469 v -0.123046 l 0.30664,-0.05273 c 0.159227,-0.02632 0.288577,-0.144547 0.328125,-0.302734 0.03776,-0.150572 0.09791,-0.295298 0.175781,-0.427735 0.08125,-0.138693 0.07185,-0.315098 -0.02344,-0.445312 l -0.181641,-0.257813 0.08789,-0.08789 0.253906,0.18164 0.002,0.002 c 0.131698,0.09191 0.304664,0.09701 0.441407,0.01758 h 0.002 l 0.002,-0.002 c 0.133138,-0.07978 0.276897,-0.14095 0.425781,-0.179688 h 0.002 c 0.152389,-0.04119 0.269114,-0.167361 0.296875,-0.324219 v -0.002 z m 0.07031,0.78125 c -0.804757,0 -1.46289,0.658268 -1.46289,1.462891 0,0.804622 0.658133,1.46289 1.46289,1.46289 0.805189,0 1.462891,-0.658267 1.462891,-1.46289 0,-0.804623 -0.657702,-1.462891 -1.462891,-1.462891 z m 0,0.816406 c 0.359318,0 0.646485,0.287675 0.646485,0.646485 0,0.35881 -0.286984,0.646484 -0.646485,0.646484 -0.35881,0 -0.646484,-0.287674 -0.646484,-0.646484 0,-0.35881 0.287857,-0.646485 0.646484,-0.646485 z m 2.496094,0.644532 h 0.06445 v 0.210937 l -0.314453,0.03906 z m -1.972656,2.509765 h 0.002 l -0.002,0.0059 z"
     id="path19" />
</svg>
