<?xml version="1.0" encoding="UTF-8" standalone="no"?>
<!-- Generator: Gravit.io -->

<svg
   style="isolation:isolate"
   viewBox="0 0 48 48"
   width="48pt"
   height="48pt"
   version="1.1"
   id="svg34"
   sodipodi:docname="charles-proxy.svg"
   inkscape:version="1.1.2 (0a00cf5339, 2022-02-04)"
   xmlns:inkscape="http://www.inkscape.org/namespaces/inkscape"
   xmlns:sodipodi="http://sodipodi.sourceforge.net/DTD/sodipodi-0.dtd"
   xmlns:xlink="http://www.w3.org/1999/xlink"
   xmlns="http://www.w3.org/2000/svg"
   xmlns:svg="http://www.w3.org/2000/svg">
  <defs
     id="defs38">
    <linearGradient
       inkscape:collect="always"
       xlink:href="#_lgradient_3"
       id="linearGradient15"
       x1="-9.6850061"
       y1="45.161198"
       x2="11.98815"
       y2="21.735205"
       gradientUnits="userSpaceOnUse"
       gradientTransform="matrix(1.1147442,0,0,1.1150348,-0.01237238,-3.3277956)" />
    <linearGradient
       id="_lgradient_1"
       x1="0"
       y1="0.5"
       x2="1"
       y2="0.5"
       gradientTransform="matrix(48,0,0,46.985,0.495,0.559)"
       gradientUnits="userSpaceOnUse">
      <stop
         offset="0%"
         stop-opacity="1"
         style="stop-color:rgb(255,229,59)"
         id="stop2-3" />
      <stop
         offset="98.69565217391305%"
         stop-opacity="1"
         style="stop-color:rgb(255,0,91)"
         id="stop4-6" />
    </linearGradient>
    <linearGradient
       inkscape:collect="always"
       xlink:href="#_lgradient_3"
       id="linearGradient872"
       x1="-12.025727"
       y1="6.1170783"
       x2="-0.085100174"
       y2="6.1170783"
       gradientUnits="userSpaceOnUse"
       gradientTransform="matrix(3.8358211,0,0,3.8371386,-0.00544341,-0.00268054)" />
    <linearGradient
       inkscape:collect="always"
       xlink:href="#_lgradient_3"
       id="linearGradient1177"
       x1="18.25135"
       y1="28.028666"
       x2="28.605459"
       y2="28.028666"
       gradientUnits="userSpaceOnUse" />
    <linearGradient
       inkscape:collect="always"
       xlink:href="#_lgradient_6"
       id="linearGradient1550"
       x1="21.227165"
       y1="28.24184"
       x2="25.629519"
       y2="28.24184"
       gradientUnits="userSpaceOnUse" />
  </defs>
  <sodipodi:namedview
     id="namedview36"
     pagecolor="#ffffff"
     bordercolor="#666666"
     borderopacity="1.0"
     inkscape:pageshadow="2"
     inkscape:pageopacity="0.0"
     inkscape:pagecheckerboard="0"
     inkscape:document-units="pt"
     showgrid="false"
     inkscape:zoom="7.2257474"
     inkscape:cx="32.038208"
     inkscape:cy="37.850756"
     inkscape:window-width="1600"
     inkscape:window-height="836"
     inkscape:window-x="0"
     inkscape:window-y="0"
     inkscape:window-maximized="1"
     inkscape:current-layer="svg34" />
  <linearGradient
     id="_lgradient_3"
     x1="0"
     y1="0.5"
     x2="1"
     y2="0.5"
     gradientTransform="matrix(26.23074,0,0,26.517404,14.43379,11.44922)"
     gradientUnits="userSpaceOnUse">
    <stop
       offset="0%"
       stop-opacity="1"
       style="stop-color:rgb(34,216,143)"
       id="stop2" />
    <stop
       offset="51.73913043478261%"
       stop-opacity="1"
       style="stop-color:rgb(147,135,218)"
       id="stop4" />
    <stop
       offset="98.69565217391305%"
       stop-opacity="1"
       style="stop-color:rgb(255,89,230)"
       id="stop6" />
  </linearGradient>
  <linearGradient
     id="_lgradient_4"
     x1="2.5132732"
     y1="23.873182"
     x2="45.741637"
     y2="23.873182"
     gradientTransform="matrix(0.57447919,0,0,0.58059887,12.450922,10.846898)"
     gradientUnits="userSpaceOnUse">
    <stop
       offset="0%"
       stop-opacity="1"
       style="stop-color:rgb(34,216,143)"
       id="stop9" />
    <stop
       offset="51.73913043478261%"
       stop-opacity="1"
       style="stop-color:rgb(147,135,218)"
       id="stop11" />
    <stop
       offset="98.69565217391305%"
       stop-opacity="1"
       style="stop-color:rgb(255,89,230)"
       id="stop13" />
  </linearGradient>
  <rect
     x="-46.783188"
     y="1.2253767"
     height="45.80014"
     rx="6.1837621"
     shape-rendering="crispEdges"
     id="rect5-6-7-3"
     ry="6.8055277"
     transform="matrix(0.00524063,-0.99998627,0.99998801,0.00489691,0,0)"
     style="isolation:isolate;fill:#fe00ff;fill-opacity:0.13470298;stroke:url(#linearGradient872);stroke-width:2.0301;stroke-miterlimit:4;stroke-dasharray:none;stroke-opacity:1"
     width="45.801998" />
  <rect
     x="-15.686804"
     y="17.260084"
     height="33.345856"
     rx="6.7920032"
     shape-rendering="crispEdges"
     id="rect5-6-6-6-6"
     style="isolation:isolate;fill:#fe00ff;fill-opacity:0.13470298;stroke:url(#linearGradient15);stroke-width:1.67233;stroke-miterlimit:4;stroke-dasharray:none;stroke-opacity:1"
     ry="7.4743071"
     transform="matrix(0.72446484,-0.68931175,0.68622417,0.72739012,0,0)"
     width="33.338203" />
  <path
     style="color:#000000;vector-effect:non-scaling-stroke;fill:url(#_lgradient_4);stroke-width:0.924728;-inkscape-stroke:none"
     d="m 13.972018,11.984871 v 2.19081 l 0.462364,0.684516 c 1.134401,1.674801 1.732059,3.626524 1.732059,5.64951 0,1.346917 -0.365418,2.667982 -1.056573,3.823533 -1.615158,2.699812 -1.835921,6.033201 -0.590598,8.92218 l 1.802497,4.175725 h 14.524731 l 1.800691,-4.175725 c 0.411691,-0.955122 0.630384,-1.96252 0.72425,-2.974662 l 4.040266,-4.278673 c 0.979874,-1.037811 1.510823,-2.403712 1.49004,-3.830757 -0.02078,-1.427378 -0.590741,-2.776135 -1.600212,-3.785606 -1.043784,-1.043783 -2.442789,-1.615947 -3.919258,-1.600213 -0.850657,0.0085 -1.643563,0.267361 -2.382258,0.641169 V 13.93005 h -2.394901 c -1.914785,0 -3.804385,-0.306863 -5.620612,-0.912085 -2.05672,-0.685574 -4.199983,-1.033094 -6.368342,-1.033094 z m 0.924728,0.924728 h 1.719416 c 2.06956,0 4.112861,0.331838 6.075753,0.986135 1.909998,0.636469 3.899626,0.959044 5.913201,0.959044 h 1.470173 v 4.217266 l 0.731474,-0.523772 c 0.75004,-0.536191 1.638581,-0.828571 2.584543,-0.838035 h 0.0018 c 1.233303,-0.01314 2.382146,0.456834 3.254609,1.329297 0.842092,0.842091 1.311958,1.955098 1.329296,3.146242 0.01734,1.190322 -0.42159,2.314828 -1.23899,3.180559 l -4.228102,4.480957 -0.01264,0.164355 c -0.07031,0.98097 -0.301216,1.954358 -0.698964,2.877132 l -1.560479,3.617638 H 16.92862 l -1.558673,-3.617638 c -1.127171,-2.614882 -0.927315,-5.636858 0.534609,-8.080532 0.776927,-1.298954 1.186613,-2.784373 1.186613,-4.29854 0,-2.205692 -0.654056,-4.341675 -1.890996,-6.167863 l -0.303427,-0.449722 z m 0.307039,0.511129 0.476813,0.718831 c 1.258874,1.894977 1.923507,4.093464 1.923506,6.370148 0,1.606209 -0.436148,3.183831 -1.260664,4.562231 -1.378991,2.304231 -1.567355,5.148868 -0.503905,7.614557 l 1.426827,3.306986 h 0.303426 12.330308 l 1.426827,-3.306986 c 1.063452,-2.465689 0.876269,-5.310345 -0.502099,-7.614557 h -0.0018 c -0.825082,-1.378349 -1.260713,-2.956022 -1.260713,-4.562231 v -5.141993 h -0.957238 c -2.06956,0 -4.11286,-0.331839 -6.075752,-0.986136 -1.909917,-0.636442 -3.899535,-0.96085 -5.913202,-0.96085 z m 1.600213,0.955431 c 1.849087,0.01985 3.677178,0.296364 5.432777,0.881382 2.056719,0.685573 4.199983,1.034901 6.368341,1.034901 h 0.03251 v 4.217265 c 0,1.773498 0.481487,3.51523 1.39251,5.037238 1.225138,2.048058 1.393115,4.581396 0.447915,6.77291 l -1.184808,2.748898 H 17.873215 l -1.184808,-2.748898 c -0.945199,-2.191514 -0.777756,-4.724871 0.447915,-6.77291 0.910387,-1.521957 1.392511,-3.26374 1.39251,-5.037238 0,-2.177193 -0.650867,-4.256773 -1.724834,-6.133548 z m 16.592726,3.847013 c -1.087625,0.0104 -2.111241,0.452236 -2.864489,1.235379 l -0.456946,0.476813 v 0.574343 c 0,1.514167 0.409687,2.999586 1.186614,4.29854 h 0.0018 c 0.609636,1.018988 0.999103,2.138887 1.16494,3.287119 l 0.135458,0.946401 0.657424,-0.695352 3.144436,-3.330465 c 0.72184,-0.764148 1.114882,-1.771462 1.099921,-2.82295 v -0.0018 c -0.01562,-1.050897 -0.436157,-2.045402 -1.17939,-2.788633 -0.768798,-0.768799 -1.802647,-1.191754 -2.889775,-1.17939 z m 0.0091,0.924728 h 0.0018 c 0.842981,-0.0096 1.62749,0.310835 2.225127,0.908473 0.575849,0.575848 0.896369,1.334745 0.908473,2.14927 0.0116,0.815091 -0.287942,1.582662 -0.847065,2.174556 l -2.633308,2.788633 C 32.833533,26.192315 32.583056,25.213084 32.056666,24.33324 31.365511,23.177689 31.000092,21.856624 31.000092,20.509707 V 20.307423 L 31.20057,20.09972 c 0.585271,-0.608008 1.360905,-0.943745 2.205185,-0.95182 z"
     id="path16" />
  <linearGradient
     id="_lgradient_5"
     x1="0.15503653617450078"
     y1="0.21244894885155888"
     x2="0.7977502304728985"
     y2="0.8551626079381862"
     gradientTransform="matrix(10.353975,0,0,10.353975,18.251643,22.851456)"
     gradientUnits="userSpaceOnUse">
    <stop
       offset="1.3043478260869565%"
       stop-opacity="1"
       style="stop-color:rgb(254,172,94)"
       id="stop18" />
    <stop
       offset="53.04347826086957%"
       stop-opacity="1"
       style="stop-color:rgb(199,121,208)"
       id="stop20" />
    <stop
       offset="99.56521739130434%"
       stop-opacity="1"
       style="stop-color:rgb(75,192,200)"
       id="stop22" />
  </linearGradient>
  <path
     style="color:#000000;fill:url(#linearGradient1177);fill-rule:evenodd;-inkscape-stroke:none"
     d="m 21.916016,22.384766 c -0.503747,0.134558 -0.765045,0.514609 -0.992188,0.984375 -0.163206,0.337534 -0.147758,0.784479 -0.136719,1.216796 -0.414565,-0.122492 -0.842782,-0.251916 -1.210937,-0.18164 -0.512497,0.09783 -0.948618,0.251373 -1.208985,0.703125 -0.260796,0.451325 -0.175415,0.905671 -0.0039,1.398437 0.123244,0.354093 0.450175,0.659245 0.763672,0.957032 -0.380311,0.206472 -0.775518,0.416293 -0.986328,0.726562 -0.293223,0.431565 -0.491803,0.848475 -0.357422,1.351563 0.135074,0.50315 0.516607,0.765065 0.986328,0.992187 0.336968,0.162932 0.783404,0.147354 1.214844,0.136719 -0.122446,0.414613 -0.251967,0.842788 -0.181641,1.210937 0.0979,0.512489 0.252408,0.948151 0.703125,1.208985 0.451334,0.260125 0.905694,0.175464 1.398438,0.0039 0.354077,-0.123279 0.65912,-0.450244 0.957031,-0.763672 0.206634,0.380751 0.41799,0.775344 0.728516,0.986328 0.431512,0.293188 0.848319,0.492026 1.351562,0.357422 0.503151,-0.135074 0.765003,-0.516659 0.992188,-0.986328 0.162977,-0.33693 0.147159,-0.783453 0.136718,-1.214844 0.414572,0.122491 0.84275,0.251911 1.210938,0.181641 0.512542,-0.09782 0.948323,-0.252032 1.208984,-0.703125 0.260033,-0.451174 0.175401,-0.905627 0.0039,-1.398438 -0.123276,-0.354249 -0.449913,-0.660992 -0.763672,-0.958984 0.380104,-0.206614 0.775543,-0.416331 0.986328,-0.726563 0.292791,-0.430929 0.489775,-0.846869 0.355469,-1.349609 -0.134557,-0.503748 -0.514662,-0.766934 -0.984375,-0.994141 -0.337497,-0.163251 -0.784529,-0.147564 -1.216797,-0.136718 0.122516,-0.414598 0.253868,-0.842725 0.183593,-1.210938 -0.09782,-0.512542 -0.253985,-0.948323 -0.705078,-1.208984 -0.451173,-0.260034 -0.905671,-0.175416 -1.398437,-0.0039 -0.354093,0.123243 -0.659226,0.450028 -0.957031,0.763671 -0.206625,-0.38011 -0.416262,-0.775539 -0.726563,-0.986328 -0.431608,-0.293193 -0.848064,-0.490635 -1.351562,-0.355468 z m 0.257812,0.964843 h 0.002 c -0.07324,0.01966 0.258271,0.03331 0.53125,0.21875 0.272979,0.185436 0.519149,0.473462 0.607422,0.802735 0.01633,0.06238 0.03981,0.207443 0.06055,0.363281 l 0.280599,1.28913 0.676432,-1.162177 c 0.06077,-0.145177 0.122511,-0.280946 0.154297,-0.335937 0.170327,-0.295418 0.483333,-0.508738 0.794922,-0.617188 0.31054,-0.108085 0.630915,-0.0374 0.568359,-0.07422 -0.0653,-0.03773 0.16079,0.205142 0.222657,0.529297 0.06187,0.324155 0.03187,0.702797 -0.138672,0.998047 -0.03267,0.05663 -0.831531,1.331952 -0.932908,1.466161 v 0 c 0.155274,-0.07557 1.594277,-0.513109 1.651658,-0.528661 0.329665,-0.08812 0.702897,-0.01871 1,0.125 0.297103,0.143713 0.474708,0.425052 0.455078,0.351563 -0.01988,-0.07397 -0.03331,0.258319 -0.21875,0.53125 -0.185441,0.27293 -0.473461,0.519148 -0.802735,0.607421 -0.05941,0.01601 -0.206451,0.03967 -0.363281,0.06055 l -1.167563,0.367154 1.04061,0.589878 c 0.144673,0.06033 0.279027,0.121879 0.335938,0.154296 0.295554,0.170606 0.508722,0.483233 0.617187,0.794922 0.108465,0.31169 0.03654,0.635697 0.07422,0.570313 0.03773,-0.0653 -0.205142,0.158837 -0.529297,0.220703 -0.324155,0.06187 -0.702796,0.03187 -0.998047,-0.138672 -0.05037,-0.02895 -1.088182,-0.6913 -1.088182,-0.6913 v 0 c -0.498024,-0.547086 0.03898,1.229756 0.150682,1.412003 0.08807,0.329281 0.01873,0.7009 -0.125,0.998047 -0.143734,0.297147 -0.424453,0.474646 -0.351562,0.455078 0.07356,-0.01967 -0.25832,-0.03331 -0.53125,-0.21875 -0.272931,-0.18544 -0.519117,-0.47314 -0.607422,-0.802734 -0.01613,-0.05985 -0.04092,-0.207898 -0.0625,-0.365235 l -0.368349,-0.912671 -0.588683,0.789625 c -0.06057,0.145254 -0.120232,0.277605 -0.152343,0.333984 -0.170574,0.295301 -0.483167,0.510597 -0.794922,0.619141 -0.311756,0.108543 -0.635856,0.03449 -0.570313,0.07227 0.06349,0.03603 -0.158965,-0.206105 -0.220703,-0.529297 -0.06193,-0.324208 -0.03183,-0.70287 0.138672,-0.998047 0.03132,-0.05419 0.116673,-0.174566 0.212891,-0.300781 l 0.527159,-1.04052 -1.113097,0.274895 c -0.147397,0.06033 -0.287961,0.11365 -0.345703,0.128906 h -0.002 c -0.329251,0.08827 -0.700952,0.01865 -0.998047,-0.125 C 18.907984,29.48916 18.730432,29.20836 18.75,29.28125 c 0.01936,0.07007 0.03393,-0.257277 0.21875,-0.529297 0.185405,-0.272878 0.473258,-0.519347 0.802734,-0.607422 v -0.002 h 0.002 c 0.05845,-0.01583 0.204655,-0.03969 0.361329,-0.06055 L 21.20085,27.751128 20.261719,27.125 c -0.145431,-0.06111 -0.28167,-0.122929 -0.335938,-0.154297 -0.295162,-0.170294 -0.51069,-0.483333 -0.61914,-0.794922 -0.10845,-0.311589 -0.0344,-0.633895 -0.07227,-0.568359 -0.03802,0.06596 0.205241,-0.160798 0.529297,-0.222656 0.324056,-0.06186 0.702796,-0.03187 0.998047,0.138671 0.05491,0.03174 0.175557,0.117565 0.300781,0.212891 l 1.173601,0.782353 -0.407976,-1.36829 c -0.06033,-0.147406 -0.113644,-0.288237 -0.128906,-0.345704 -0.08832,-0.329635 -0.01863,-0.702949 0.125,-1 0.143631,-0.29705 0.423095,-0.474707 0.349609,-0.455078 z"
     id="path25"
     sodipodi:nodetypes="sscscscscscscscscscscscscscscscsssccscccccscsccccscscccccscsccccscscccccscsccccccscscccccccscscccccssc" />
  <linearGradient
     id="_lgradient_6"
     x1="0"
     y1="0.5"
     x2="0.9074880558539661"
     y2="0.9200778838291643"
     gradientTransform="matrix(3.8122815,2.2009704,-2.2009704,3.8122815,22.622974,25.234925)"
     gradientUnits="userSpaceOnUse">
    <stop
       offset="0%"
       stop-opacity="1"
       style="stop-color:rgb(247,241,7)"
       id="stop27" />
    <stop
       offset="83.88839793817618%"
       stop-opacity="1"
       style="stop-color:rgb(255,187,36)"
       id="stop29" />
  </linearGradient>
  <path
     style="color:#000000;fill:url(#linearGradient1550);-inkscape-stroke:none"
     d="m 22.785156,25.837891 c -0.616188,0.165099 -1.17082,0.564404 -1.513672,1.158203 -0.685676,1.18755 -0.275418,2.716681 0.91211,3.402343 1.187589,0.685701 2.71527,0.275607 3.40039,-0.912109 0.685678,-1.187551 0.277371,-2.714727 -0.910156,-3.400391 -0.593541,-0.34289 -1.272483,-0.413146 -1.888672,-0.248046 z m 0.148438,0.554687 c 0.472312,-0.126553 0.99303,-0.07131 1.451172,0.193359 0.916993,0.529461 1.228666,1.694358 0.699218,2.611329 -0.528848,0.916804 -1.694397,1.230596 -2.611328,0.701171 -0.916994,-0.529459 -1.230618,-1.696311 -0.701172,-2.613281 0.264711,-0.458462 0.689798,-0.766024 1.16211,-0.892578 z"
     id="path32" />
</svg>
