<?xml version="1.0" encoding="UTF-8" standalone="no"?>
<!-- Generator: Gravit.io -->

<svg
   style="isolation:isolate"
   viewBox="0 0 48 48"
   width="48pt"
   height="48pt"
   version="1.1"
   id="svg18"
   sodipodi:docname="childichat-desktop.svg"
   inkscape:version="1.1.2 (0a00cf5339, 2022-02-04)"
   xmlns:inkscape="http://www.inkscape.org/namespaces/inkscape"
   xmlns:sodipodi="http://sodipodi.sourceforge.net/DTD/sodipodi-0.dtd"
   xmlns:xlink="http://www.w3.org/1999/xlink"
   xmlns="http://www.w3.org/2000/svg"
   xmlns:svg="http://www.w3.org/2000/svg">
  <defs
     id="defs22">
    <linearGradient
       inkscape:collect="always"
       xlink:href="#_lgradient_10"
       id="linearGradient15"
       x1="-9.6850061"
       y1="45.161198"
       x2="11.98815"
       y2="21.735205"
       gradientUnits="userSpaceOnUse"
       gradientTransform="matrix(1.1147442,0,0,1.1150348,-0.01237238,-3.3277956)" />
    <linearGradient
       id="_lgradient_1"
       x1="0"
       y1="0.5"
       x2="1"
       y2="0.5"
       gradientTransform="matrix(48,0,0,46.985,0.495,0.559)"
       gradientUnits="userSpaceOnUse">
      <stop
         offset="0%"
         stop-opacity="1"
         style="stop-color:rgb(255,229,59)"
         id="stop2-3" />
      <stop
         offset="98.69565217391305%"
         stop-opacity="1"
         style="stop-color:rgb(255,0,91)"
         id="stop4-6" />
    </linearGradient>
    <linearGradient
       inkscape:collect="always"
       xlink:href="#_lgradient_10"
       id="linearGradient872"
       x1="-12.025727"
       y1="6.1170783"
       x2="-0.085100174"
       y2="6.1170783"
       gradientUnits="userSpaceOnUse"
       gradientTransform="matrix(3.8358211,0,0,3.8371386,-0.00544341,-0.00268054)" />
    <linearGradient
       inkscape:collect="always"
       xlink:href="#_lgradient_10"
       id="linearGradient945"
       x1="10.503069"
       y1="23.874496"
       x2="39.039776"
       y2="23.874496"
       gradientUnits="userSpaceOnUse"
       gradientTransform="matrix(1.2401837,0,0,1.2401837,2.3074489,2.2239008)" />
  </defs>
  <sodipodi:namedview
     id="namedview20"
     pagecolor="#ffffff"
     bordercolor="#666666"
     borderopacity="1.0"
     inkscape:pageshadow="2"
     inkscape:pageopacity="0.0"
     inkscape:pagecheckerboard="0"
     inkscape:document-units="pt"
     showgrid="false"
     inkscape:zoom="10.21875"
     inkscape:cx="15.412844"
     inkscape:cy="30.629969"
     inkscape:window-width="1600"
     inkscape:window-height="836"
     inkscape:window-x="0"
     inkscape:window-y="0"
     inkscape:window-maximized="1"
     inkscape:current-layer="svg18" />
  <linearGradient
     id="_lgradient_9"
     x1="0"
     y1="0.5"
     x2="1.0000000000000002"
     y2="0.5"
     gradientTransform="matrix(31.32,0,0,21.781,1.75,7.249)"
     gradientUnits="userSpaceOnUse">
    <stop
       offset="0%"
       stop-opacity="1"
       style="stop-color:rgb(247,242,6)"
       id="stop2" />
    <stop
       offset="98.26086956521739%"
       stop-opacity="1"
       style="stop-color:rgb(255,187,36)"
       id="stop4" />
  </linearGradient>
  <rect
     x="-46.783188"
     y="1.2253767"
     height="45.80014"
     rx="6.1837621"
     shape-rendering="crispEdges"
     id="rect5-6-7-3"
     ry="6.8055277"
     transform="matrix(0.00524063,-0.99998627,0.99998801,0.00489691,0,0)"
     style="isolation:isolate;fill:#00ff85;fill-opacity:0.13470298;stroke:url(#linearGradient872);stroke-width:2.0301;stroke-miterlimit:4;stroke-dasharray:none;stroke-opacity:1"
     width="45.801998" />
  <rect
     x="-15.686804"
     y="17.260084"
     height="33.345856"
     rx="6.7920032"
     shape-rendering="crispEdges"
     id="rect5-6-6-6-6"
     style="isolation:isolate;fill:#00ff85;fill-opacity:0.13470298;stroke:url(#linearGradient15);stroke-width:1.67233;stroke-miterlimit:4;stroke-dasharray:none;stroke-opacity:1"
     ry="7.4743071"
     transform="matrix(0.72446484,-0.68931175,0.68622417,0.72739012,0,0)"
     width="33.338203" />
  <linearGradient
     id="_lgradient_10"
     x1="0.4749868335249129"
     y1="1.1035593740411163"
     x2="0.21228241502472694"
     y2="0.578919373392286"
     gradientTransform="matrix(49.175,0,0,32.59,-0.67,7.91)"
     gradientUnits="userSpaceOnUse">
    <stop
       offset="0%"
       stop-opacity="1"
       style="stop-color:rgb(126,235,218)"
       id="stop9" />
    <stop
       offset="49.56869043334445%"
       stop-opacity="1"
       style="stop-color:rgb(115,255,68)"
       id="stop11" />
    <stop
       offset="98.69565217391305%"
       stop-opacity="1"
       style="stop-color:rgb(255,205,62)"
       id="stop13" />
  </linearGradient>
  <path
     id="path16"
     style="color:#000000;fill:url(#linearGradient945);stroke-width:1.33333;-inkscape-stroke:none"
     d="m 30.564453,19.248047 c -1.854924,5.99e-4 -3.690723,0.323833 -5.423828,0.976562 -1.645261,0.608986 -3.165999,1.509518 -4.482422,2.667969 -1.277724,1.126513 -2.320945,2.49517 -3.0625,4.03125 v 0.0039 h -0.002 c -0.744307,1.556963 -1.138672,3.258922 -1.138672,4.994141 0,0.955832 0.125825,1.906773 0.365234,2.837891 -0.478908,0.680229 -1.04613,1.304693 -1.33789,2.085937 -3.08e-4,8.04e-4 3.08e-4,0.003 0,0.0039 -0.509057,1.330519 -0.769531,2.744064 -0.769531,4.164063 0,0.377456 0.01502,0.764116 0.06055,1.158203 0.05787,0.617124 0.34889,1.185535 0.802734,1.601563 l 0.002,0.002 0.002,0.0039 c 0.4576,0.409931 1.055692,0.640625 1.675781,0.640625 h 1.439453 c 0.597534,0 1.172954,-0.208948 1.634766,-0.585938 l 0.0039,-0.0039 0.002,-0.002 c 0.453292,-0.377747 0.76321,-0.898789 0.884765,-1.478516 l 0.0039,-0.0039 v -0.0039 c 0.06115,-0.312903 0.162453,-0.61288 0.246094,-0.917969 l 0.171875,0.859375 v 0.03125 l 0.01563,0.06836 c 0.130627,0.559841 0.442571,1.069562 0.896485,1.439454 0.450956,0.374048 1.015168,0.588229 1.599609,0.597656 h 0.0039 0.02734 1.439453 c 0.627093,0 1.235564,-0.244954 1.695312,-0.685547 0.14782,-0.141529 0.135472,-0.372917 0.242188,-0.544922 0.09936,0.164627 0.07411,0.382701 0.212891,0.521485 0.4569,0.456896 1.077301,0.708984 1.714843,0.708984 h 2.158204 c 0.595545,0 1.173482,-0.210517 1.630859,-0.589844 0.468892,-0.376267 0.777777,-0.905014 0.898437,-1.480469 v -0.0039 l 0.359375,-1.796875 c 0.224282,-0.04725 0.446996,-0.09455 0.673829,-0.140625 l 0.384765,1.9375 v 0.0039 c 0.120653,0.57546 0.429547,1.104204 0.898438,1.480469 0.457852,0.379719 1.035312,0.589844 1.630859,0.589844 h 1.439453 c 0.630709,0 1.243892,-0.24318 1.699219,-0.6875 0.453104,-0.4351 0.721293,-1.030579 0.75,-1.66211 v -0.01562 -0.02539 l 0.0078,-0.28125 v -0.03906 -0.0059 c -0.01013,-1.53154 -0.293777,-3.033493 -0.583984,-4.419922 1.303413,-1.238183 2.487928,-2.662419 3.513672,-3.96875 0.863607,-0.352755 1.697763,-0.762622 2.486328,-1.244141 h 0.0039 c 0.714699,-0.43804 1.365223,-0.969717 1.941406,-1.576171 l 0.0039,-0.002 c 0.334564,-0.350482 0.632903,-0.73425 0.890625,-1.146485 0.256152,-0.392231 0.46198,-0.804298 0.626953,-1.228515 v -0.0059 l 0.002,-0.0039 c 0.157463,-0.425149 0.276088,-0.865228 0.347656,-1.310547 l 0.002,-0.002 v -0.0059 c 0.06979,-0.465271 0.101681,-0.93327 0.08594,-1.40625 V 25.375 l -0.002,-0.0059 c -0.04951,-0.940451 -0.370157,-1.845502 -0.945313,-2.595703 -0.534594,-0.702156 -1.211541,-1.2803 -1.972656,-1.708985 -0.763071,-0.446111 -1.584394,-0.774742 -2.431641,-0.996094 v -0.0039 h -0.002 c -0.86679,-0.2205 -1.766668,-0.339844 -2.671875,-0.339844 -0.02028,0 -0.04028,0.0077 -0.06055,0.0078 -0.686562,0.0043 -1.367335,0.07106 -2.033203,0.220703 -0.700513,0.157417 -1.370723,0.419439 -1.992187,0.773437 -0.344074,0.193467 -0.592748,0.502001 -0.886719,0.757813 -2.358424,-1.408644 -5.013491,-2.255468 -7.773438,-2.236328 z m 0.0059,1.238281 h 0.002 c 2.424909,-0.01765 4.751518,0.725197 6.849609,1.91211 -0.121293,0.167677 -0.170078,0.369846 -0.271484,0.548828 -1.227354,-0.697339 -2.483537,-1.363052 -3.861329,-1.640625 l -0.429687,-0.08594 -0.404297,0.675781 -2.132812,3.550782 2.109375,4.216796 h 2.474609 c -0.03109,0.06552 -0.04521,0.136195 -0.07813,0.201172 h -2.396484 l -0.751953,1.501954 c -0.08169,0.01368 -0.162454,0.0259 -0.244141,0.03906 l 0.820312,-1.642578 -2.109375,-4.216797 h -4.912109 l -2.109375,4.216797 1.15625,2.322266 c -0.07119,0.0047 -0.141701,0.009 -0.212891,0.01367 L 22.951254,29.865229 H 18.46102 l -0.08398,0.519532 c -0.08136,0.505902 -0.125,1.019538 -0.125,1.537109 0,0.390779 0.1016,0.768806 0.148438,1.154297 -0.166195,0.10488 -0.379389,0.10184 -0.527344,0.234375 -0.06316,-0.462601 -0.177735,-0.918676 -0.177735,-1.388672 0,-1.545795 0.351972,-3.065778 1.017579,-4.458984 v -0.002 c 0.669016,-1.385173 1.611258,-2.620916 2.765625,-3.638672 1.201654,-1.057455 2.587987,-1.880574 4.09375,-2.4375 h 0.0039 v -0.002 c 1.590329,-0.598956 3.281077,-0.896484 4.99414,-0.896484 z m 12.744141,0.476563 c 0.793304,0 1.591091,0.107759 2.365235,0.304687 0.746656,0.195373 1.464096,0.485042 2.123046,0.871094 l 0.0039,0.002 0.0059,0.002 c 0.619411,0.348419 1.164691,0.81927 1.59375,1.382813 h 0.002 c 0.417539,0.544614 0.65605,1.206702 0.693359,1.90625 4.6e-5,8.44e-4 -4.4e-5,0.003 0,0.0039 0.012,0.383901 -0.01398,0.772718 -0.07227,1.164062 -0.05741,0.357284 -0.152722,0.717427 -0.28125,1.066407 -0.137304,0.353066 -0.307255,0.690823 -0.511719,1.003906 l -0.002,0.0039 -0.0059,0.0059 c -0.21505,0.345379 -0.461835,0.665591 -0.742188,0.958984 v 0.002 c -0.502759,0.529575 -1.0724,0.991262 -1.695312,1.373047 -0.784479,0.479019 -1.607192,0.891557 -2.464844,1.230469 l -0.160156,0.0625 -0.101563,0.132812 c -1.262815,1.631269 -2.608983,3.144714 -3.986328,4.441406 l 0.115234,0.484375 c 0.36952,1.493498 0.511014,2.895819 0.587891,4.351563 v 0.01563 l -0.0078,0.28125 c -0.01443,0.317293 -0.147277,0.61375 -0.369141,0.826172 l -0.0039,0.002 -0.002,0.002 C 40.1775,43.059451 39.88259,43.177736 39.564453,43.177734 H 38.125 c -0.3093,0 -0.609454,-0.109118 -0.841797,-0.302734 l -0.0039,-0.002 -0.0059,-0.0059 C 37.043422,42.684173 36.879463,42.411912 36.8125,42.101562 v -0.0039 c -2.64e-4,-0.0012 -0.0017,-0.0026 -0.002,-0.0039 l -0.623,-3.132824 c -0.910971,0.197572 -1.68765,0.326637 -2.533203,0.4375 l -0.130859,0.265624 -0.09375,0.09375 -0.46875,2.34375 c -0.06696,0.310353 -0.23089,0.582526 -0.460938,0.765626 l -0.0059,0.0059 -0.0039,0.002 c -0.232821,0.194017 -0.532499,0.302734 -0.841796,0.302734 H 29.4902 c -0.312472,0 -0.616309,-0.122171 -0.835937,-0.341796 -0.219624,-0.219626 -0.34375,-0.525418 -0.34375,-0.837891 v -3.037109 c -0.564229,0.08556 -1.201847,0.162945 -1.699219,0.222656 l 0.07617,0.617187 c 0.08449,0.685668 0.135391,1.377885 0.146484,2.064453 v 0.01758 0.08984 c -0.0028,0.02993 -0.0078,0.06987 -0.0078,0.07031 v -0.01953 c -0.0095,0.311306 -0.143451,0.60406 -0.365234,0.816406 -0.964857,0.635866 -2.197751,0.289577 -3.117188,0.02734 h -0.002 l -0.0039,-0.002 c -0.23297,-0.189293 -0.393033,-0.457132 -0.464844,-0.755859 L 22.28125,39.132812 c -0.412557,-0.06549 -0.8699,-0.148058 -1.224609,-0.210937 l -0.199219,0.4375 c -0.119573,0.261556 -0.236085,0.537693 -0.332031,0.824219 -5.52e-4,0.0016 5.52e-4,0.0023 0,0.0039 -0.258179,0.993675 -0.489269,1.913724 -0.984375,2.6875 -0.242664,0.196347 -0.53838,0.302734 -0.845704,0.302734 h -1.439453 c -0.314684,0 -0.610718,-0.114323 -0.84375,-0.322265 -0.234306,-0.216735 -0.375968,-0.494741 -0.404297,-0.796875 v -0.0078 l -0.0039,-0.0098 c -0.133588,-1.994479 0.35516,-4.369114 1.279297,-5.759766 0.603571,-1.171166 1.248679,-2.138218 2.445313,-2.525391 1.788355,-0.578626 3.739123,-0.172427 5.541015,-0.40039 3.791755,-0.479707 7.159729,-0.168187 10.134766,-2.251953 1.431807,-2.518399 1.658445,-4.075037 2.277344,-6.486328 v -0.002 l 0.0039,-0.0059 c 0.0045,-0.01791 0.01874,-0.03099 0.02344,-0.04883 0,0 0.666899,-1.6545 1.789063,-2.460938 1.133406,-0.895127 2.535177,-1.052201 3.816406,-1.136718 z m -12.75,0.08398 c -1.63528,-0.0065 -3.261844,0.287502 -4.796875,0.859375 -0.513349,0.19156 -1.013134,0.416961 -1.49414,0.669922 l -0.591797,0.3125 1.544921,2.457031 h 4.927735 l 2.509765,-4.183594 -1,-0.07813 c -0.363651,-0.02788 -0.727727,-0.03982 -1.091796,-0.03711 z m 12.742188,0.835937 c -0.01307,0 -0.02604,0.0039 -0.03906,0.0039 -1.099805,-0.02305 -2.028753,0.294476 -2.980469,0.716797 -0.0089,0.0052 -0.01448,0.01623 -0.02344,0.02148 0,0 -1.047208,0.436219 -1.761719,2.482422 -0.32326,1.300179 -0.68118,2.65264 -1.023437,3.884766 v 0.0059 c -0.420842,1.283609 -1.06141,2.37181 -1.884766,3.265625 -4.745261,2.411813 -8.834963,1.93904 -15.60184,2.706578 -1.036039,0.381451 -1.037025,0.396683 -1.693082,1.320766 -1.246101,1.738832 -1.472891,4.05438 -1.363281,5.96875 h 2.097656 l 0.101563,-0.494141 c 0.253721,-1.453751 0.885227,-2.732104 1.59375,-3.929687 1.273004,0.310285 2.571727,0.530061 3.882812,0.523437 1.371877,-0.0075 2.730424,-0.149486 4.06836,-0.408203 h 0.002 0.0039 c 0.12608,-0.02579 0.271212,0.01254 0.371094,0.09375 6.57e-4,5.35e-4 0.0032,-5.37e-4 0.0039,0 0.112387,0.09441 0.167969,0.215933 0.167969,0.355469 v 3.859375 h 2.763672 l 0.501953,-2.523438 -0.05078,0.15625 c 0.04572,-0.09199 0.07031,-0.286999 0.07031,-0.304687 l -0.01563,0.138671 c 0.06789,-0.292473 0.210445,-0.552239 0.423828,-0.765624 l 0.002,-0.002 0.0039,-0.0039 c 0.214515,-0.219744 0.472687,-0.364387 0.765625,-0.43164 0.401772,-0.09005 0.813298,-0.16882 1.234375,-0.25586 l 0.0078,-0.002 c 0.551923,-0.10752 1.102496,-0.213237 1.648437,-0.3125 l 0.0078,-0.002 0.0098,-0.0039 c 0.441559,-0.09524 0.857395,-0.272936 1.226563,-0.511719 0.581768,-0.352945 1.116317,-0.763922 1.607422,-1.216797 0.670799,-0.611825 1.307719,-1.255734 1.90625,-1.935547 h -0.0039 c 0.787298,-0.891807 1.547339,-1.817972 2.271484,-2.773437 0.942793,-0.343924 1.850681,-0.764193 2.703125,-1.28125 h 0.002 0.0039 c 0.548951,-0.337212 1.048734,-0.746696 1.494141,-1.214844 0.253484,-0.261932 0.461944,-0.543502 0.646484,-0.820313 l 0.0039,-0.0078 0.0059,-0.0078 c 0.163143,-0.261026 0.304541,-0.540356 0.414062,-0.833984 l 0.0039,-0.0059 c 0.10692,-0.280628 0.186123,-0.575751 0.236328,-0.876953 l 0.002,-0.0059 v -0.002 c 0.04949,-0.32924 0.06653,-0.653178 0.05859,-0.970703 v -0.01172 l -0.0039,-0.0098 c -0.02849,-0.493836 -0.199524,-0.969981 -0.494141,-1.369141 l -0.0039,-0.0059 -0.002,-0.002 c -0.360375,-0.46932 -0.813654,-0.856071 -1.326172,-1.146484 -0.591938,-0.3427 -1.230354,-0.609027 -1.910157,-0.775391 -9.45e-4,-2.5e-4 -0.0028,-0.0036 -0.0039,-0.0039 -0.696584,-0.184556 -1.414415,-0.275391 -2.132812,-0.275391 z m -12.767579,0.408204 -1.08789,1.8125 H 25.91215 L 25.466838,23.39648 c 0.244257,-0.1112 0.482648,-0.234191 0.734375,-0.328125 1.389773,-0.517758 2.862062,-0.780575 4.33789,-0.777343 z m 2.888672,0.394531 c 1.128023,0.268377 2.177576,0.7712 3.1875,1.353515 -0.02973,0.09668 -0.108239,0.173206 -0.132812,0.271485 v -0.0078 c -0.129507,0.496462 -0.258793,0.997144 -0.382813,1.507813 -0.214204,0.871092 -0.443708,1.731049 -0.699218,2.589844 l -0.002,0.0078 -0.002,0.0078 c -7.09e-4,0.0027 -0.0031,0.0051 -0.0039,0.0078 H 33.19722 l -1.460938,-2.921875 z m -9.919922,0.308594 -0.533203,0.371093 c -0.393496,0.271954 -0.770398,0.567417 -1.128906,0.882813 -1.097864,0.968255 -1.988757,2.142345 -2.628906,3.453125 v 0.002 l -0.0039,0.002 c -0.177876,0.37262 -0.331714,0.754537 -0.460938,1.144531 l -0.269531,0.814453 h 4.464844 l 2.107422,-4.21289 z m 19.798829,0.128906 c 0.615833,0 1.233262,0.0777 1.828125,0.236328 l 0.0059,0.002 0.0078,0.0039 c 0.55684,0.135974 1.082939,0.354453 1.583984,0.644532 h 0.002 l 0.0059,0.0039 c 0.375064,0.211729 0.692891,0.488148 0.949219,0.820312 0.148956,0.20372 0.238904,0.443526 0.253906,0.695313 v 0.002 c 0.0053,0.250783 -0.0089,0.496553 -0.04492,0.736328 -0.03608,0.211831 -0.09587,0.428949 -0.173829,0.632813 v 0.0039 l -0.0039,0.002 c -0.07665,0.206381 -0.178441,0.41294 -0.300781,0.609375 -10e-4,0.0017 -0.0028,0.0041 -0.0039,0.0059 -0.157475,0.234942 -0.319872,0.450782 -0.494141,0.63086 l -0.002,0.002 -0.0039,0.002 c -0.374078,0.393767 -0.792979,0.734884 -1.25,1.015625 -0.842079,0.510325 -1.730462,0.935503 -2.65625,1.257813 l -0.175782,0.0625 -0.115234,0.152343 c -0.729912,0.970856 -1.506235,1.909234 -2.310547,2.820313 -0.567393,0.644446 -1.167569,1.255004 -1.806641,1.83789 h -0.002 v 0.002 c -0.441074,0.407142 -0.912555,0.769081 -1.419921,1.076171 l -0.0098,0.0059 -0.0078,0.0039 c -0.245101,0.159601 -0.52654,0.280981 -0.8125,0.34375 -0.556181,0.101227 -1.109936,0.209222 -1.660156,0.316406 l -0.002,0.002 h -0.0059 c -0.410927,0.08503 -0.831234,0.163278 -1.261719,0.259766 v 0.0039 c -0.525403,0.119827 -1.0042,0.386657 -1.378906,0.769532 -0.36105,0.361978 -0.597985,0.820757 -0.722657,1.310546 0.0063,-0.02225 0.0047,-0.04069 0.01172,-0.05469 l -0.03516,0.07227 -0.0059,0.03516 -0.0098,0.04883 -0.0059,0.01758 v 0.0039 l -0.298829,1.5 H 30.46875 v -2.617187 c 0,-0.506972 -0.229725,-0.989842 -0.619141,-1.3125 v -0.0039 c -0.38948,-0.320752 -0.905676,-0.455148 -1.412109,-0.351563 -2.821415,0.561176 -5.741588,0.413052 -8.296875,-0.275391 l -0.251953,0.341797 c -0.870311,1.220314 -1.329788,2.386298 -1.679688,3.6875 0.05291,-0.828392 0.147831,-1.657038 0.449219,-2.429687 l 0.0039,-0.0059 0.002,-0.0078 c 0.30622,-0.840477 0.79778,-1.610253 1.427735,-2.242188 0.04157,-0.03692 0.08769,-0.05569 0.113281,-0.05664 h 0.0039 0.002 c 3.916665,-0.227943 7.307792,-0.35513 10.978515,-0.855469 0.661049,-0.08813 1.323547,-0.197911 1.984375,-0.330078 0.381155,-0.07624 0.763468,-0.174606 1.138672,-0.296875 0.726559,-0.214925 1.410561,-0.556559 2.025391,-1.00586 l 0.01172,-0.0039 0.0078,-0.0078 c 0.614684,-0.485276 1.112277,-1.085377 1.46875,-1.757813 v -0.0039 c 0.357236,-0.684073 0.640006,-1.400109 0.845703,-2.144531 v -0.0039 c 0.917117,-2.113361 0.538524,-4.328429 2.232422,-5.65625 0.331905,-0.19054 0.686951,-0.325729 1.058594,-0.40625 h 0.0059 l 0.0078,-0.002 c 0.428289,-0.102266 0.875413,-0.148437 1.330079,-0.148437 z m 0.576171,0.322265 c -0.970371,0 -1.771484,0.800645 -1.771484,1.771485 v 1.898437 c 0,0.970842 0.801116,1.769533 1.771484,1.769532 0.970374,0 1.771485,-0.798689 1.771485,-1.769532 v -1.898437 c 0,-0.970841 -0.801111,-1.771483 -1.771485,-1.771485 z m 0,1.240235 c 0.299192,0 0.531252,0.232526 0.53125,0.53125 v 1.898437 c 0,0.298723 -0.232056,0.53125 -0.53125,0.53125 -0.29919,0 -0.529296,-0.232526 -0.529296,-0.53125 v -1.898437 c 0,-0.298725 0.230106,-0.53125 0.529296,-0.53125 z m -20.716796,0.09766 0.466796,0.738281 -1.451171,2.902344 h -1.923829 c 0.02663,-0.05921 0.04424,-0.120881 0.07227,-0.179687 v -0.002 c 4.89e-4,-0.001 0.0034,-7.95e-4 0.0039,-0.002 0.568779,-1.162921 1.358581,-2.20397 2.332032,-3.0625 0.159992,-0.140752 0.333022,-0.263588 0.5,-0.394531 z M 26,26.787109 h 3.380859 l 1.488282,2.976563 -0.921875,1.845703 c -0.929148,0.115613 -1.855823,0.226485 -2.785157,0.298828 -0.510673,0.03869 -1.020655,0.05784 -1.53125,0.09375 l -1.121093,-2.238281 z m -6.439453,4.316407 h 2.625 l 0.539062,1.078125 c -0.889693,0.05193 -1.780729,0.123639 -2.669921,0.164062 h -0.002 c -0.18012,0.0088 -0.305538,0.17588 -0.480468,0.210938 -0.01637,-0.21339 -0.08008,-0.420015 -0.08008,-0.634766 0,-0.274753 0.0414,-0.545649 0.06836,-0.818359 z m 19.759765,6.445312 c -0.683329,0.536369 -1.544126,0.949604 -2.228515,1.253906 l 0.691406,3.457032 h 2.09375 l -0.01563,-0.636719 c -0.01496,-0.575577 -0.05983,-1.157072 -0.134766,-1.726563 -0.06347,-0.478161 -0.138483,-0.952504 -0.228515,-1.421875 z m -16.080078,1.699219 0.601563,3.011719 h 2.078125 L 25.90625,41.625 C 25.89412,41.042196 25.84247,40.463669 25.767578,39.888672 V 39.869141 39.25 c -0.848497,0.03907 -1.743488,0.01863 -2.527344,-0.002 z"
     transform="scale(0.75)"
     sodipodi:nodetypes="scccccscscsccccssccccccccccccccsccsssccccccccssccccccccccccccccccccccccccccscccccscccccccccccccccccccccccsccsccccccscccccccsccccccccccccccccccccssccccccccccccccsssscccccccccccccccccccsscccccsscccccccccccccccccsccccccccsccccccccscsccccccsccccccccccccccccccccccccccccccccccscccccccccccccccccccccccccccccsccsccccccccccccccccccccccccccccccccccccccccccsccccccccccccccsccccccccccccssssssssscsscsscccccccccccccccccccccccscccccccccccccccccccccccc" />
</svg>
