<?xml version="1.0" encoding="UTF-8" standalone="no"?>
<!-- Generator: Gravit.io -->

<svg
   style="isolation:isolate"
   viewBox="0 0 48 48"
   width="48pt"
   height="48pt"
   version="1.1"
   id="svg18"
   sodipodi:docname="choqok.svg"
   inkscape:version="1.1.2 (0a00cf5339, 2022-02-04)"
   xmlns:inkscape="http://www.inkscape.org/namespaces/inkscape"
   xmlns:sodipodi="http://sodipodi.sourceforge.net/DTD/sodipodi-0.dtd"
   xmlns:xlink="http://www.w3.org/1999/xlink"
   xmlns="http://www.w3.org/2000/svg"
   xmlns:svg="http://www.w3.org/2000/svg">
  <defs
     id="defs22">
    <linearGradient
       inkscape:collect="always"
       xlink:href="#_lgradient_27"
       id="linearGradient15"
       x1="-9.6850061"
       y1="45.161198"
       x2="11.98815"
       y2="21.735205"
       gradientUnits="userSpaceOnUse"
       gradientTransform="matrix(1.1147442,0,0,1.1150348,-0.01237238,-3.3277956)" />
    <linearGradient
       id="_lgradient_1"
       x1="0"
       y1="0.5"
       x2="1"
       y2="0.5"
       gradientTransform="matrix(48,0,0,46.985,0.495,0.559)"
       gradientUnits="userSpaceOnUse">
      <stop
         offset="0%"
         stop-opacity="1"
         style="stop-color:rgb(255,229,59)"
         id="stop2" />
      <stop
         offset="98.69565217391305%"
         stop-opacity="1"
         style="stop-color:rgb(255,0,91)"
         id="stop4-3" />
    </linearGradient>
    <linearGradient
       inkscape:collect="always"
       xlink:href="#_lgradient_27"
       id="linearGradient872"
       x1="-12.025727"
       y1="6.1170783"
       x2="-0.085100174"
       y2="6.1170783"
       gradientUnits="userSpaceOnUse"
       gradientTransform="matrix(3.8358211,0,0,3.8371386,-0.00544341,-0.00268054)" />
    <linearGradient
       inkscape:collect="always"
       xlink:href="#_lgradient_27"
       id="linearGradient1006"
       x1="10.862344"
       y1="26.235743"
       x2="37.137657"
       y2="26.235743"
       gradientUnits="userSpaceOnUse" />
    <linearGradient
       inkscape:collect="always"
       xlink:href="#_lgradient_28"
       id="linearGradient1018"
       x1="20.482416"
       y1="25.903172"
       x2="27.191097"
       y2="25.903172"
       gradientUnits="userSpaceOnUse" />
  </defs>
  <sodipodi:namedview
     id="namedview20"
     pagecolor="#ffffff"
     bordercolor="#666666"
     borderopacity="1.0"
     inkscape:pageshadow="2"
     inkscape:pageopacity="0.0"
     inkscape:pagecheckerboard="0"
     inkscape:document-units="pt"
     showgrid="false"
     inkscape:zoom="5.109375"
     inkscape:cx="32"
     inkscape:cy="31.902141"
     inkscape:window-width="1600"
     inkscape:window-height="836"
     inkscape:window-x="0"
     inkscape:window-y="0"
     inkscape:window-maximized="1"
     inkscape:current-layer="svg18" />
  <rect
     x="-46.783188"
     y="1.2253767"
     height="45.80014"
     rx="6.1837621"
     shape-rendering="crispEdges"
     id="rect5-6-7-3"
     ry="6.8055277"
     transform="matrix(0.00524063,-0.99998627,0.99998801,0.00489691,0,0)"
     style="isolation:isolate;fill:#00ff33;fill-opacity:0.13470298;stroke:url(#linearGradient872);stroke-width:2.0301;stroke-miterlimit:4;stroke-dasharray:none;stroke-opacity:1"
     width="45.801998" />
  <rect
     x="-15.686804"
     y="17.260084"
     height="33.345856"
     rx="6.7920032"
     shape-rendering="crispEdges"
     id="rect5-6-6-6-6"
     style="isolation:isolate;fill:#00ff33;fill-opacity:0.13470298;stroke:url(#linearGradient15);stroke-width:1.67233;stroke-miterlimit:4;stroke-dasharray:none;stroke-opacity:1"
     ry="7.4743071"
     transform="matrix(0.72446484,-0.68931175,0.68622417,0.72739012,0,0)"
     width="33.338203" />
  <linearGradient
     id="_lgradient_27"
     x1="0"
     y1="0.5"
     x2="0.9877902644462152"
     y2="0.3442104192659979"
     gradientTransform="matrix(47,0,0,42.614,0.5,2.693)"
     gradientUnits="userSpaceOnUse">
    <stop
       offset="100%"
       stop-opacity="1"
       style="stop-color:rgb(34,216,143)"
       id="stop4" />
    <stop
       offset="100%"
       stop-opacity="1"
       style="stop-color:rgb(33,214,145)"
       id="stop6" />
  </linearGradient>
  <path
     style="color:#000000;fill:url(#linearGradient1006);-inkscape-stroke:none"
     d="m 13.197266,13.824219 c -1.559765,0 -2.833985,1.276173 -2.833985,2.835937 v 14.013672 c 0,1.559764 1.274221,2.833985 2.833985,2.833984 h 4.08789 c 0.915182,0 1.667969,-0.750834 1.667969,-1.666015 0,-0.915182 -0.752788,-1.667969 -1.667969,-1.667969 h -2.919922 c -0.373984,0 -0.667968,-0.294777 -0.667968,-0.667969 V 17.828125 c 0,-0.373987 0.293983,-0.667969 0.667968,-0.667969 h 2.919922 c 0.915182,0 1.667969,-0.752788 1.667969,-1.667968 0,-0.915182 -0.752787,-1.667969 -1.667969,-1.667969 z m 8.759765,0 c -0.914857,0 -1.667969,0.752787 -1.667969,1.667969 0,0.915181 0.753112,1.667968 1.667969,1.667968 h 11.677735 c 0.373985,0 0.667968,0.293982 0.667968,0.667969 v 11.677734 c 0,0.373192 -0.293984,0.667969 -0.667968,0.667969 h -4.53711 L 27.511719,33.353516 25.125,30.173828 h -3.167969 c -0.914856,0 -1.667968,0.752787 -1.667969,1.667969 0,0.915181 0.753112,1.666015 1.667969,1.666015 h 1.501953 l 3.433594,4.583985 c 0.266037,0.35446 0.667698,0.58911 1.09375,0.550781 0.426052,-0.03833 0.778176,-0.341891 0.976563,-0.738281 l 2.201171,-4.396485 h 3.638672 c 1.559764,10e-7 2.833985,-1.27422 2.833985,-2.833984 V 16.660156 c 0,-1.559764 -1.27422,-2.835937 -2.833985,-2.835937 z m -8.759765,1 h 4.08789 c 0.373985,0 0.667969,0.293983 0.667969,0.667969 0,0.373983 -0.293984,0.667968 -0.667969,0.667968 h -2.919922 c -0.91518,0 -1.667968,0.752787 -1.667968,1.667969 v 11.677734 c 0,0.914858 0.752786,1.667969 1.667968,1.667969 h 2.919922 c 0.373986,0 0.667969,0.293984 0.667969,0.667969 0,0.373984 -0.293984,0.666016 -0.667969,0.666015 h -4.08789 c -1.018568,0 -1.833985,-0.815416 -1.833985,-1.833984 V 16.660156 c 0,-1.018568 0.815417,-1.835937 1.833985,-1.835937 z m 8.759765,0 h 12.845703 c 1.018568,0 1.833985,0.817369 1.833985,1.835937 v 14.013672 c 0,1.018568 -0.815417,1.833985 -1.833985,1.833984 h -4.255859 l -2.476563,4.949219 c -0.09008,0.17999 -0.157113,0.18795 -0.173828,0.189453 -0.01671,0.0015 -0.0823,0.0047 -0.203125,-0.15625 l -3.734375,-4.982422 h -2.001953 c -0.373189,0 -0.667968,-0.292032 -0.667969,-0.666015 0,-0.373985 0.294779,-0.667969 0.667969,-0.667969 h 2.669922 l 3.056641,4.072266 2.033203,-4.072266 h 3.917969 c 0.915182,0 1.667968,-0.753111 1.667968,-1.667969 V 17.828125 c 0,-0.915182 -0.752788,-1.667969 -1.667968,-1.667969 H 21.957031 c -0.373189,0 -0.667969,-0.293985 -0.667969,-0.667968 0,-0.373985 0.29478,-0.667969 0.667969,-0.667969 z m 7.470703,3.86914 c -1.505205,0 -2.736328,1.231566 -2.736328,2.736328 0,1.504763 1.231344,2.736329 2.736328,2.736329 1.504985,0 2.736329,-1.231344 2.736328,-2.736329 0,-1.504984 -1.231122,-2.736328 -2.736328,-2.736328 z m 0,1 c 0.963555,0 1.736329,0.772553 1.736328,1.736328 0,0.963776 -0.772553,1.736329 -1.736328,1.736329 -0.963774,0 -1.736328,-0.772334 -1.736328,-1.736329 0,-0.963994 0.772774,-1.736328 1.736328,-1.736328 z M 18.572266,19.8125 c -1.505196,0 -2.736328,1.231132 -2.736328,2.736328 v 0.002 c 6.85e-4,0.231368 0.03096,0.461602 0.08984,0.685547 l 0.488281,1.857422 0.480469,-1.859375 c 0.197946,-0.767855 0.884915,-1.30099 1.677735,-1.302734 0.793502,8.57e-4 1.481172,0.532843 1.679687,1.300781 l 0.478516,1.853515 0.488281,-1.851562 c 0.05888,-0.223234 0.08917,-0.45262 0.08984,-0.683594 v -0.002 c 0,-1.505196 -1.231132,-2.736328 -2.736328,-2.736328 z m 10.853515,0 c -0.428419,0 -0.839994,0.16812 -1.142578,0.470703 -0.305654,0.305654 -0.474609,0.718826 -0.474609,1.146484 0,0.424925 0.170751,0.837769 0.478515,1.140625 0.302412,0.307325 0.712838,0.478516 1.138672,0.478516 0.42858,0 0.841285,-0.171361 1.146485,-0.476562 0.302584,-0.302583 0.472656,-0.714158 0.472656,-1.142579 0,-0.42842 -0.170123,-0.837886 -0.466797,-1.142578 l -0.0039,-0.0039 -0.0059,-0.0039 C 30.263669,19.982624 29.854202,19.8125 29.425781,19.8125 Z m -10.853515,1 c 0.498517,0 0.932513,0.214623 1.248046,0.546875 -0.388685,-0.209772 -0.78265,-0.427234 -1.246093,-0.427734 h -0.002 c -0.463321,5.08e-4 -0.857629,0.217998 -1.246094,0.427734 0.315532,-0.332242 0.747586,-0.546875 1.246094,-0.546875 z m 10.853515,0 c 0.1612,0 0.318075,0.06467 0.4375,0.177734 0.115034,0.119815 0.181641,0.276773 0.181641,0.439453 0,0.164173 -0.06857,0.324435 -0.179688,0.435547 -0.119675,0.119676 -0.275439,0.183594 -0.439453,0.183594 -0.164011,0 -0.318916,-0.06397 -0.429687,-0.177734 l -0.0059,-0.0059 -0.0039,-0.0039 c -0.113306,-0.110324 -0.177734,-0.266706 -0.177734,-0.431641 0,-0.164932 0.06242,-0.320229 0.18164,-0.439453 0.111112,-0.111112 0.271377,-0.177734 0.435547,-0.177734 z"
     id="path9" />
  <linearGradient
     id="_lgradient_28"
     x1="0"
     y1="0.5"
     x2="1"
     y2="0.5"
     gradientTransform="matrix(6.7085906,0,0,4.4723937,20.482463,23.666975)"
     gradientUnits="userSpaceOnUse">
    <stop
       offset="0%"
       stop-opacity="1"
       style="stop-color:rgb(247,242,6)"
       id="stop11" />
    <stop
       offset="97.82608695652173%"
       stop-opacity="1"
       style="stop-color:rgb(255,187,36)"
       id="stop13" />
  </linearGradient>
  <path
     style="color:#000000;fill:url(#linearGradient1018);-inkscape-stroke:none"
     d="m 23.835937,23.166016 c -0.263359,0 -0.516328,0.107463 -0.701171,0.296875 l -2.841797,2.580078 -0.01172,0.01172 c -0.355165,0.364274 -0.343643,0.800923 -0.263672,1.1875 0.03999,0.193289 0.108786,0.38196 0.244141,0.556641 0.135355,0.174682 0.379454,0.34375 0.666015,0.34375 l -0.08398,-0.0078 2.992187,0.511718 2.994141,-0.511718 -0.08398,0.0078 c 0.286561,0 0.53066,-0.169068 0.666015,-0.34375 0.135356,-0.174681 0.204155,-0.363352 0.244141,-0.556641 0.07997,-0.386577 0.08954,-0.823227 -0.265625,-1.1875 l -0.0098,-0.01172 c 0,0 -2.271046,-2.13728 -2.871015,-2.626882 -0.638968,-0.419964 -0.67388,-0.250071 -0.67388,-0.250071 l 0.0078,1.015625 2.832031,2.572265 c -0.0478,-0.0477 0.03176,0.131627 0,0.285156 -0.01243,0.06009 -0.03033,0.09162 -0.04297,0.115235 l -2.796875,0.478515 -2.794921,-0.478515 c -0.01263,-0.02358 -0.03247,-0.05507 -0.04492,-0.115235 -0.03176,-0.15353 0.04975,-0.332859 0.002,-0.285156 l 2.84375,-2.582031 0.0098,-0.01172 c -0.0037,0.0038 -0.0094,0.0059 -0.01563,0.0059 z"
     id="path16"
     sodipodi:nodetypes="ccccsscccccssccccccsccccccccc" />
</svg>
