<?xml version="1.0" encoding="UTF-8" standalone="no"?>
<!-- Generator: Gravit.io -->

<svg
   style="isolation:isolate"
   viewBox="0 0 48 48"
   width="48pt"
   height="48pt"
   version="1.1"
   id="svg15"
   sodipodi:docname="ckb-next.svg"
   inkscape:version="1.1.2 (0a00cf5339, 2022-02-04)"
   xmlns:inkscape="http://www.inkscape.org/namespaces/inkscape"
   xmlns:sodipodi="http://sodipodi.sourceforge.net/DTD/sodipodi-0.dtd"
   xmlns:xlink="http://www.w3.org/1999/xlink"
   xmlns="http://www.w3.org/2000/svg"
   xmlns:svg="http://www.w3.org/2000/svg">
  <defs
     id="defs19">
    <linearGradient
       inkscape:collect="always"
       xlink:href="#_lgradient_25"
       id="linearGradient15"
       x1="-9.6850061"
       y1="45.161198"
       x2="11.98815"
       y2="21.735205"
       gradientUnits="userSpaceOnUse"
       gradientTransform="matrix(1.1147442,0,0,1.1150348,-0.01332916,-3.3606544)" />
    <linearGradient
       id="_lgradient_1"
       x1="0"
       y1="0.5"
       x2="1"
       y2="0.5"
       gradientTransform="matrix(48,0,0,46.985,0.495,0.559)"
       gradientUnits="userSpaceOnUse">
      <stop
         offset="0%"
         stop-opacity="1"
         style="stop-color:rgb(255,229,59)"
         id="stop2-3" />
      <stop
         offset="98.69565217391305%"
         stop-opacity="1"
         style="stop-color:rgb(255,0,91)"
         id="stop4-6" />
    </linearGradient>
    <linearGradient
       inkscape:collect="always"
       xlink:href="#_lgradient_25"
       id="linearGradient872"
       x1="-12.025727"
       y1="6.1170783"
       x2="-0.085100174"
       y2="6.1170783"
       gradientUnits="userSpaceOnUse"
       gradientTransform="matrix(3.8358211,0,0,3.8371386,0.01768414,-0.02604367)" />
    <linearGradient
       inkscape:collect="always"
       xlink:href="#_lgradient_25"
       id="linearGradient866"
       x1="10.423477"
       y1="24"
       x2="37.576523"
       y2="24"
       gradientUnits="userSpaceOnUse" />
  </defs>
  <sodipodi:namedview
     id="namedview17"
     pagecolor="#ffffff"
     bordercolor="#666666"
     borderopacity="1.0"
     inkscape:pageshadow="2"
     inkscape:pageopacity="0.0"
     inkscape:pagecheckerboard="0"
     inkscape:document-units="pt"
     showgrid="false"
     inkscape:zoom="5.109375"
     inkscape:cx="32"
     inkscape:cy="32"
     inkscape:window-width="1056"
     inkscape:window-height="545"
     inkscape:window-x="243"
     inkscape:window-y="212"
     inkscape:window-maximized="0"
     inkscape:current-layer="svg15" />
  <linearGradient
     id="_lgradient_25"
     x1="0"
     y1="0.5"
     x2="1.0126582278481011"
     y2="0.4999999999999998"
     gradientTransform="matrix(27.153046,0,0,16.808891,10.423477,15.595266)"
     gradientUnits="userSpaceOnUse">
    <stop
       offset="0%"
       stop-opacity="1"
       style="stop-color:rgb(34,216,143)"
       id="stop2" />
    <stop
       offset="23.138297872340427%"
       stop-opacity="1"
       style="stop-color:rgb(147,135,218)"
       id="stop4" />
    <stop
       offset="46.460453283996294%"
       stop-opacity="1"
       style="stop-color:rgb(255,89,230)"
       id="stop6" />
    <stop
       offset="71.13436632747455%"
       stop-opacity="1"
       style="stop-color:rgb(238,9,121)"
       id="stop8" />
    <stop
       offset="98.75%"
       stop-opacity="1"
       style="stop-color:rgb(255,106,0)"
       id="stop10" />
  </linearGradient>
  <rect
     x="-46.760059"
     y="1.2020136"
     height="45.80014"
     rx="6.1837621"
     shape-rendering="crispEdges"
     id="rect5-6-7-3"
     ry="6.8055277"
     transform="matrix(0.00524063,-0.99998627,0.99998801,0.00489691,0,0)"
     style="isolation:isolate;fill:#ff0045;fill-opacity:0.134703;stroke:url(#linearGradient872);stroke-width:2.0301;stroke-miterlimit:4;stroke-dasharray:none;stroke-opacity:1"
     width="45.801998" />
  <rect
     x="-15.68776"
     y="17.227226"
     height="33.345856"
     rx="6.7920032"
     shape-rendering="crispEdges"
     id="rect5-6-6-6-6"
     style="isolation:isolate;fill:#ff0045;fill-opacity:0.134703;stroke:url(#linearGradient15);stroke-width:1.67233;stroke-miterlimit:4;stroke-dasharray:none;stroke-opacity:1"
     ry="7.4743071"
     transform="matrix(0.72446484,-0.68931175,0.68622417,0.72739012,0,0)"
     width="33.338203" />
  <path
     style="color:#000000;fill:url(#linearGradient866);fill-rule:evenodd;-inkscape-stroke:none"
     d="m 12.734375,15.095703 c -1.546296,0 -2.8105469,1.264857 -2.8105469,2.810547 v 12.1875 c 0,1.54569 1.2642509,2.810547 2.8105469,2.810547 h 22.53125 c 1.546296,0 2.810547,-1.264857 2.810547,-2.810547 v -12.1875 c 0,-1.54569 -1.264251,-2.810547 -2.810547,-2.810547 z m 0,1 h 22.53125 c 1.004931,0 1.810547,0.806165 1.810547,1.810547 v 12.1875 c 0,1.004382 -0.805616,1.810547 -1.810547,1.810547 h -22.53125 c -1.004931,0 -1.810547,-0.806165 -1.810547,-1.810547 v -12.1875 c 0,-1.004382 0.805616,-1.810547 1.810547,-1.810547 z m 0,0.732422 c -0.291788,0 -0.567067,0.121753 -0.763672,0.318359 -0.202202,0.2022 -0.314453,0.466579 -0.314453,0.757813 v 12.191406 c 0,0.291234 0.112251,0.555613 0.314453,0.757813 0.196605,0.196606 0.471884,0.318359 0.763672,0.318359 h 22.53125 c 0.291788,0 0.567067,-0.121753 0.763672,-0.318359 0.202202,-0.2022 0.314453,-0.466579 0.314453,-0.757813 V 17.904297 c 0,-0.291234 -0.112251,-0.555613 -0.314453,-0.757813 -0.196605,-0.196606 -0.471884,-0.318359 -0.763672,-0.318359 z m 0,1 h 22.53125 c 0.02018,0 0.03371,0.0025 0.05664,0.02539 0.0058,0.0058 0.02148,0.0416 0.02148,0.05078 v 12.191406 c 0,0.0092 -0.0157,0.045 -0.02148,0.05078 -0.02293,0.02293 -0.03646,0.02539 -0.05664,0.02539 h -22.53125 c -0.02018,0 -0.03371,-0.0025 -0.05664,-0.02539 -0.0058,-0.0058 -0.02148,-0.0416 -0.02148,-0.05078 V 17.904297 c 0,-0.0092 0.01571,-0.045 0.02148,-0.05078 0.02293,-0.02293 0.03646,-0.02539 0.05664,-0.02539 z m 4.974609,1.431641 c -0.882638,0 -1.682886,0.1915 -2.367187,0.585937 -0.682074,0.393386 -1.21667,0.970022 -1.574219,1.689453 -0.357504,0.718471 -0.53125,1.54463 -0.53125,2.457031 0,1.439054 0.357201,2.623764 1.119141,3.47461 0.761824,0.850719 1.867691,1.273437 3.183593,1.273437 0.881479,0 1.646067,-0.110709 2.292969,-0.353515 l 0.324219,-0.123047 v -1.845703 l -0.636719,0.177734 c -0.704597,0.197686 -1.316525,0.292969 -1.832031,0.292969 -0.83154,0 -1.37846,-0.236053 -1.785156,-0.708985 -0.407207,-0.473885 -0.638672,-1.176232 -0.638672,-2.177734 0,-0.96623 0.235582,-1.655171 0.666016,-2.150391 0.43101,-0.495883 0.971882,-0.734375 1.767578,-0.734375 0.546083,0 1.095818,0.126726 1.662109,0.392579 l 0.443359,0.208984 0.845703,-1.714844 -0.451171,-0.21875 c -0.725982,-0.354348 -1.562388,-0.52539 -2.488282,-0.52539 z m 3.246094,0.11914 v 9.248047 h 1.958984 v -3.507812 l 0.291016,-0.257813 2.830078,3.765625 h 2.011719 0.355469 0.144531 2.878906 c 0.972181,0 1.796649,-0.228275 2.408203,-0.736328 0.610704,-0.506875 0.929688,-1.261474 0.929688,-2.111328 0,-0.645678 -0.200207,-1.234008 -0.609375,-1.664063 -0.184386,-0.193798 -0.510689,-0.235385 -0.759766,-0.361328 0.178211,-0.112892 0.42621,-0.138061 0.5625,-0.296875 0.355261,-0.41397 0.529297,-0.955057 0.529297,-1.537109 0,-0.82233 -0.327876,-1.54718 -0.955078,-1.966797 -0.632409,-0.423266 -1.509855,-0.574219 -2.654297,-0.574219 h -2.443359 -0.386719 -2.111328 l -3.021485,3.302735 v -3.302735 z m 7.091797,0.417969 v 8.347656 l -3.427734,-4.648437 z m 4.800781,0.962891 c 0.0236,0.01359 0.105996,0.01136 0.126953,0.02539 0.350307,0.234366 0.511719,0.542828 0.511719,1.134766 0,0.02366 -0.01688,0.02998 -0.01758,0.05273 -0.01385,-0.492195 -0.262622,-0.914207 -0.621094,-1.21289 z m -2.841797,0.449218 h 0.91211 c 0.674866,0 1.122054,0.113265 1.314453,0.232422 0.187658,0.116222 0.259765,0.232815 0.259765,0.576172 0,0.405995 -0.09149,0.564269 -0.236328,0.667969 -0.151882,0.107875 -0.546485,0.224609 -1.169922,0.224609 h -1.080078 z m -15.15039,0.5625 c -0.08268,0.145196 -0.179152,0.280263 -0.242188,0.439453 0.02843,-0.06693 0.01689,-0.166284 0.04883,-0.230468 0.04574,-0.09203 0.141806,-0.124891 0.19336,-0.208985 z m 18.492187,0.574219 c -0.04831,0.151132 -0.05174,0.344033 -0.15039,0.458984 -0.01399,0.0163 -0.05332,0.0176 -0.06836,0.0332 0.07966,-0.164411 0.187856,-0.301446 0.21875,-0.492188 z m -19.023437,1.230469 c -0.01092,0.148002 -0.06055,0.271249 -0.06055,0.425781 0,1.157644 0.276664,2.124994 0.880859,2.828125 0.02493,0.02899 0.06589,0.03665 0.0918,0.06445 -0.03951,-0.03916 -0.09915,-0.0518 -0.136719,-0.09375 -0.558352,-0.623503 -0.863281,-1.531574 -0.863281,-2.808594 0,-0.162869 0.07552,-0.263581 0.08789,-0.416015 z m 17.560547,0.146484 v 0.179688 c -0.131171,-0.02205 -0.23235,-0.08172 -0.375,-0.0918 0.140674,-0.01141 0.247599,-0.06374 0.375,-0.08789 z m -1.878907,1 h 1.142578 c 0.646237,0 1.071848,0.12236 1.285157,0.271485 0.207641,0.145326 0.302734,0.319344 0.302734,0.71875 0,0.447072 -0.110083,0.659056 -0.310547,0.8125 -0.210327,0.160994 -0.598206,0.283203 -1.199219,0.283203 h -1.220703 z m 3.265625,0.0098 c 0.03656,0.03038 0.129412,0.03995 0.160157,0.07227 0.217084,0.228166 0.332031,0.518376 0.332031,0.97461 0,0.624497 -0.182297,1.021371 -0.56836,1.341797 -0.01825,0.01516 -0.06491,0.0089 -0.08398,0.02344 0.373714,-0.365687 0.625,-0.851424 0.625,-1.43164 0,-0.397158 -0.267415,-0.670922 -0.464844,-0.980469 z"
     id="path13" />
</svg>
