<?xml version="1.0" encoding="UTF-8" standalone="no"?>
<!-- Generator: Gravit.io -->

<svg
   style="isolation:isolate"
   viewBox="0 0 48 48"
   width="48pt"
   height="48pt"
   version="1.1"
   id="svg21"
   sodipodi:docname="clementine.svg"
   inkscape:version="1.1.2 (0a00cf5339, 2022-02-04)"
   xmlns:inkscape="http://www.inkscape.org/namespaces/inkscape"
   xmlns:sodipodi="http://sodipodi.sourceforge.net/DTD/sodipodi-0.dtd"
   xmlns:xlink="http://www.w3.org/1999/xlink"
   xmlns="http://www.w3.org/2000/svg"
   xmlns:svg="http://www.w3.org/2000/svg">
  <defs
     id="defs25">
    <linearGradient
       inkscape:collect="always"
       id="linearGradient861">
      <stop
         style="stop-color:#ffe53b;stop-opacity:1;"
         offset="0"
         id="stop857" />
      <stop
         style="stop-color:#ff025b;stop-opacity:1"
         offset="1"
         id="stop859" />
    </linearGradient>
    <linearGradient
       inkscape:collect="always"
       xlink:href="#_lgradient_1"
       id="linearGradient15"
       x1="-9.6850061"
       y1="45.161198"
       x2="11.98815"
       y2="21.735205"
       gradientUnits="userSpaceOnUse"
       gradientTransform="matrix(1.1147442,0,0,1.1150348,-0.01240999,-3.3277564)" />
    <linearGradient
       id="_lgradient_1"
       x1="0"
       y1="0.5"
       x2="1"
       y2="0.5"
       gradientTransform="matrix(48,0,0,46.985,0.495,0.559)"
       gradientUnits="userSpaceOnUse">
      <stop
         offset="0%"
         stop-opacity="1"
         style="stop-color:rgb(255,229,59)"
         id="stop2-3" />
      <stop
         offset="98.69565217391305%"
         stop-opacity="1"
         style="stop-color:rgb(255,0,91)"
         id="stop4-6" />
    </linearGradient>
    <linearGradient
       inkscape:collect="always"
       xlink:href="#_lgradient_1"
       id="linearGradient872"
       x1="-12.025727"
       y1="6.1170783"
       x2="-0.085100174"
       y2="6.1170783"
       gradientUnits="userSpaceOnUse"
       gradientTransform="matrix(3.8358211,0,0,3.8371386,-0.00549785,-0.0026806)" />
    <linearGradient
       inkscape:collect="always"
       xlink:href="#linearGradient861"
       id="linearGradient863"
       x1="9.5660121"
       y1="25.246736"
       x2="38.431702"
       y2="25.246736"
       gradientUnits="userSpaceOnUse" />
  </defs>
  <sodipodi:namedview
     id="namedview23"
     pagecolor="#ffffff"
     bordercolor="#666666"
     borderopacity="1.0"
     inkscape:pageshadow="2"
     inkscape:pageopacity="0.0"
     inkscape:pagecheckerboard="0"
     inkscape:document-units="pt"
     showgrid="false"
     inkscape:zoom="3.6128737"
     inkscape:cx="31.969011"
     inkscape:cy="31.969011"
     inkscape:window-width="1056"
     inkscape:window-height="545"
     inkscape:window-x="304"
     inkscape:window-y="102"
     inkscape:window-maximized="0"
     inkscape:current-layer="svg21" />
  <linearGradient
     id="_lgradient_9"
     x1="0"
     y1="0.5"
     x2="1"
     y2="0.5"
     gradientTransform="matrix(44.468,0,0,40.324,1.532,4)"
     gradientUnits="userSpaceOnUse">
    <stop
       offset="0%"
       stop-opacity="1"
       style="stop-color:rgb(255,224,49)"
       id="stop2" />
    <stop
       offset="98.69565217391305%"
       stop-opacity="1"
       style="stop-color:rgb(252,82,82)"
       id="stop4" />
  </linearGradient>
  <g
     id="g953"
     transform="translate(3.4343704e-7,-5.4441829e-5)">
    <rect
       x="-46.783241"
       y="1.2253767"
       height="45.80014"
       rx="6.1837621"
       shape-rendering="crispEdges"
       id="rect5-6-7-3"
       ry="6.8055277"
       transform="matrix(0.00524063,-0.99998627,0.99998801,0.00489691,0,0)"
       style="isolation:isolate;fill:#ff0045;fill-opacity:0.134703;stroke:url(#linearGradient872);stroke-width:2.0301;stroke-miterlimit:4;stroke-dasharray:none;stroke-opacity:1"
       width="45.801998" />
    <rect
       x="-15.686841"
       y="17.260124"
       height="33.345856"
       rx="6.7920032"
       shape-rendering="crispEdges"
       id="rect5-6-6-6-6"
       style="isolation:isolate;fill:#ff0045;fill-opacity:0.134703;stroke:url(#linearGradient15);stroke-width:1.67233;stroke-miterlimit:4;stroke-dasharray:none;stroke-opacity:1"
       ry="7.4743071"
       transform="matrix(0.72446484,-0.68931175,0.68622417,0.72739012,0,0)"
       width="33.338203" />
  </g>
  <linearGradient
     id="_lgradient_10"
     x1="-0.3588980017329373"
     y1="-1.0453650350369346"
     x2="2.014286863447345"
     y2="0.9443381084014528"
     gradientTransform="matrix(16.064,0,0,13.017,13.953,18.92)"
     gradientUnits="userSpaceOnUse">
    <stop
       offset="0%"
       stop-opacity="1"
       style="stop-color:rgb(255,224,49)"
       id="stop9" />
    <stop
       offset="98.69565217391305%"
       stop-opacity="1"
       style="stop-color:rgb(252,82,82)"
       id="stop11" />
  </linearGradient>
  <linearGradient
     id="_lgradient_11"
     x1="-0.37057024565311486"
     y1="-1.0645704188388063"
     x2="2.010498954627434"
     y2="0.9008087252910435">
    <stop
       offset="0%"
       stop-opacity="1"
       style="stop-color:rgb(255,224,49)"
       id="stop14" />
    <stop
       offset="98.69565217391305%"
       stop-opacity="1"
       style="stop-color:rgb(252,82,82)"
       id="stop16" />
  </linearGradient>
  <path
     style="color:#000000;fill:url(#linearGradient863);-inkscape-stroke:none;fill-opacity:1"
     d="m 14.833984,12.138672 c -0.443247,0.07806 -0.858497,0.324392 -1.134765,0.71875 l -0.472656,0.675781 h -0.002 l -0.96289,1.375 c -2.2689639,3.240357 -3.153348,7.251593 -2.4707034,11.148438 0.6861374,3.893082 2.8976774,7.357998 6.1328124,9.623046 3.228771,2.260789 7.218733,3.154856 11.099609,2.484375 h 0.002 c 3.874561,-0.674174 7.339525,-2.854855 9.617187,-6.072265 l 0.002,-0.002 1.376953,-1.9375 -0.01172,-0.0078 0.09961,-0.142578 c 0.565659,-0.808332 0.36699,-1.938202 -0.441406,-2.503906 L 27.136719,20.125 c -0.800773,-0.560369 -1.919135,-0.389823 -2.476563,0.40625 -0.556844,0.796008 -0.334327,1.90678 0.466797,2.466797 l 5.732422,4.013672 -0.458984,0.652343 c -0.538225,0.751736 -1.270726,1.317563 -2.042969,1.816407 0.05835,-0.32307 0.07171,-0.673662 0.03125,-1.082032 -0.08823,-0.890432 -0.373934,-1.995642 -0.833985,-3.160156 -0.102433,-0.258644 -0.323228,-0.535542 -0.675781,-0.566406 -0.352552,-0.03086 -0.618067,0.202592 -0.763672,0.439453 -0.655658,1.067222 -1.129602,2.107186 -1.371093,2.96875 -0.120746,0.430782 -0.186544,0.815524 -0.171875,1.167969 0.01467,0.352445 0.123155,0.740172 0.472656,0.955078 0.69716,0.428224 1.613009,0.496351 2.408203,0.271484 -0.286458,0.445997 -0.379861,0.936356 -0.201172,1.453125 -0.09382,-0.284591 -0.214858,-0.570558 -0.476562,-0.753906 -0.646768,-0.453118 -1.552751,-0.293239 -2.00586,0.353516 h -0.002 c -0.452763,0.64721 -0.290826,1.553072 0.355469,2.005859 0.646578,0.452986 1.553139,0.293637 2.005859,-0.353516 0.196819,-0.280932 0.227316,-0.61314 0.203125,-0.933593 0.479428,0.797592 1.504811,1.105447 2.326172,0.654297 1.430099,-0.780832 2.657407,-1.879738 3.597656,-3.210938 l 0.47461,-0.667969 0.529297,0.371094 -0.478516,0.671875 c -1.743853,2.45905 -4.383173,4.127407 -7.353516,4.642578 -2.96978,0.515074 -6.022887,-0.17152 -8.492187,-1.90039 -2.473419,-1.731995 -4.164808,-4.383184 -4.689453,-7.359375 -0.524732,-2.976686 0.153683,-6.048532 1.888672,-8.527344 l 0.43164,-0.617188 0.529297,0.371094 -0.429687,0.621094 c -1.634779,2.336426 -2.280679,5.228915 -1.785157,8.039062 0.49563,2.810101 2.092265,5.308123 4.423828,6.949219 1.24371,0.870992 2.657126,1.466918 4.146485,1.755859 0.944646,0.17985 1.868556,-0.448317 2.050781,-1.392578 0.182286,-0.944571 -0.445159,-1.870841 -1.390625,-2.052734 h -0.002 c -1.001227,-0.194065 -1.957052,-0.59802 -2.791016,-1.181641 l -0.002,-0.002 c -1.572393,-1.108964 -2.648442,-2.792409 -2.982422,-4.685547 -0.0867,-0.491462 0.01818,-0.977123 0.0332,-1.46875 -0.0023,0.950056 0.463271,1.961745 1.205079,2.550782 0.333625,0.264563 0.754149,0.235111 1.113281,0.121093 0.359132,-0.114017 0.723553,-0.323087 1.117187,-0.605468 0.787269,-0.564764 1.67362,-1.435776 2.519532,-2.501954 h 0.002 c 0.182197,-0.229857 0.311466,-0.569679 0.158203,-0.898437 -0.153263,-0.328758 -0.497626,-0.447135 -0.791016,-0.455078 -1.360272,-0.03709 -2.596574,0.08217 -3.535156,0.322265 -0.469291,0.120048 -0.863479,0.266899 -1.181641,0.46875 -0.309383,0.196283 -0.579185,0.497038 -0.605468,0.904297 0.05968,-1.370181 0.370427,-2.717431 1.166015,-3.861328 h -0.002 l 0.431641,-0.617187 0.888672,0.621093 c 0.788738,0.552553 1.889315,0.358766 2.441406,-0.429687 0.55218,-0.788579 0.356931,-1.890921 -0.431641,-2.443359 l -5.71875,-4.003907 h -0.002 c -0.394031,-0.275353 -0.865976,-0.367015 -1.308594,-0.289062 z m 0.736329,1.107422 5.720703,4.005859 c 0.34575,0.242217 0.426767,0.706289 0.185546,1.050781 -0.241308,0.344619 -0.705194,0.425695 -1.050781,0.183594 l -1.705078,-1.193359 -1.005859,1.435547 h -0.002 c -1.248651,1.79531 -1.743598,4.014134 -1.363282,6.169921 0.380294,2.155665 1.604614,4.070104 3.392578,5.330079 v 0.002 c 0.951134,0.666127 2.037149,1.124922 3.177735,1.345703 h 0.002 c 0.41602,0.07961 0.679173,0.468575 0.599609,0.880859 -0.07961,0.412543 -0.470015,0.676803 -0.880859,0.59961 -1.353346,-0.262555 -2.634001,-0.802037 -3.761719,-1.591797 -2.116742,-1.489891 -3.56424,-3.756516 -4.013672,-6.304688 -0.449435,-2.54878 0.136937,-5.172573 1.621094,-7.292969 v -0.002 l 0.998047,-1.439453 -0.408203,-0.285156 -1.755859,-1.228516 -1.00586,1.433594 c -1.88733,2.696465 -2.623471,6.037732 -2.052734,9.275391 0.570824,3.238152 2.409031,6.119848 5.099609,8.003906 v 0.002 c 2.684668,1.87966 6.005553,2.624794 9.236328,2.064453 3.230215,-0.560243 6.103989,-2.375217 8,-5.048828 l 1.058594,-1.492187 -2.166016,-1.517579 -1.050781,1.478516 c -0.85336,1.208183 -1.964979,2.205159 -3.259766,2.912109 h -0.002 c -0.366131,0.201677 -0.816491,0.07169 -1.019531,-0.298828 -0.203369,-0.370039 -0.07213,-0.821463 0.294922,-1.023437 1.096556,-0.60067 2.034624,-1.442277 2.759766,-2.455078 h 0.002 l 1.041015,-1.476563 -6.55664,-4.591797 c -0.372742,-0.260561 -0.457012,-0.737273 -0.220703,-1.074218 0.235973,-0.336999 0.713529,-0.420763 1.085937,-0.160157 l 10.529297,7.375 c 0.364785,0.255272 0.450629,0.744527 0.195312,1.109375 h 0.002 l -0.667969,0.953125 0.0059,0.0039 -0.800781,1.128906 c -2.124293,3.001954 -5.358527,5.034863 -8.974609,5.664062 -3.620708,0.625533 -7.34232,-0.206597 -10.355469,-2.316406 -3.018063,-2.113067 -5.082699,-5.347453 -5.722656,-8.978516 -0.637183,-3.637326 0.189966,-7.377521 2.30664,-10.40039 l 0.47461,-0.679688 0.002,0.002 0.960937,-1.373047 c 0.242117,-0.345609 0.705195,-0.427648 1.050782,-0.185547 z m 6.662109,9.259765 c -0.699315,0.826917 -1.42318,1.581706 -2.011719,2.003907 -0.339211,0.24334 -0.639437,0.401838 -0.837891,0.464843 -0.198453,0.06301 -0.227903,0.01834 -0.189453,0.04883 -0.420905,-0.334222 -0.856534,-1.271767 -0.841797,-1.808593 -0.0013,0.04898 -0.01757,-0.0018 0.158204,-0.113282 0.175774,-0.111516 0.490125,-0.2403 0.894531,-0.34375 0.701701,-0.179499 1.745188,-0.247635 2.828125,-0.251953 z m 1.755859,1.181641 c -1.162259,0.629383 -2.144458,1.329729 -2.818359,1.988281 -0.336951,0.329277 -0.598879,0.646353 -0.769531,0.972656 -0.170653,0.326304 -0.272334,0.728108 -0.07227,1.097657 0.451497,0.833159 1.370622,1.476366 2.308594,1.615234 0.415691,0.0619 0.757557,-0.171453 1.005859,-0.443359 0.248302,-0.271907 0.456207,-0.625459 0.650391,-1.054688 0.388368,-0.858458 0.710633,-2.020577 0.904297,-3.328125 0.04218,-0.284765 -0.01227,-0.641433 -0.306641,-0.847656 -0.294374,-0.206223 -0.649162,-0.13714 -0.902344,0 z m 0.101563,1.142578 c -0.186022,1.016136 -0.423873,1.990877 -0.708985,2.621094 -0.166559,0.368166 -0.342089,0.645712 -0.476562,0.792969 -0.134474,0.147256 -0.174866,0.118945 -0.121094,0.126953 -0.509703,-0.07546 -1.33078,-0.648735 -1.576172,-1.101563 0.02585,0.04774 -0.01239,0.0186 0.08008,-0.158203 0.09246,-0.176798 0.292989,-0.43629 0.582032,-0.71875 0.494586,-0.483322 1.329984,-1.040178 2.220703,-1.5625 z m 2.664062,1.261719 c 0.311242,0.889486 0.578211,1.776362 0.640625,2.40625 0.03751,0.378579 0.02388,0.687333 -0.01563,0.867187 -0.0395,0.179855 -0.08127,0.166214 -0.02148,0.142578 -0.442268,0.174841 -1.383635,0.09278 -1.789063,-0.15625 0.05495,0.03379 0.01156,0.03946 0.0039,-0.144531 -0.0077,-0.183989 0.03209,-0.491121 0.134765,-0.857422 0.170752,-0.609187 0.586038,-1.436152 1.046875,-2.257812 z m -0.552734,5.902344 c 0.203319,0.142443 0.249799,0.408103 0.107422,0.611328 -0.142643,0.203904 -0.408103,0.251752 -0.611328,0.109375 -0.203509,-0.142576 -0.251978,-0.409436 -0.109375,-0.613282 0.142254,-0.203049 0.410245,-0.249666 0.613281,-0.107421 z"
     id="path19" />
</svg>
