<?xml version="1.0" encoding="UTF-8" standalone="no"?>
<!-- Generator: Gravit.io -->

<svg
   style="isolation:isolate"
   viewBox="0 0 48 48"
   width="48pt"
   height="48pt"
   version="1.1"
   id="svg30"
   sodipodi:docname="codeblocks.svg"
   inkscape:version="1.1.2 (0a00cf5339, 2022-02-04)"
   xmlns:inkscape="http://www.inkscape.org/namespaces/inkscape"
   xmlns:sodipodi="http://sodipodi.sourceforge.net/DTD/sodipodi-0.dtd"
   xmlns:xlink="http://www.w3.org/1999/xlink"
   xmlns="http://www.w3.org/2000/svg"
   xmlns:svg="http://www.w3.org/2000/svg">
  <defs
     id="defs34">
    <linearGradient
       inkscape:collect="always"
       xlink:href="#_lgradient_38"
       id="linearGradient15"
       x1="-9.6850061"
       y1="45.161198"
       x2="11.98815"
       y2="21.735205"
       gradientUnits="userSpaceOnUse"
       gradientTransform="matrix(1.1147442,0,0,1.1150348,-0.01237238,-3.3277956)" />
    <linearGradient
       id="_lgradient_1"
       x1="0"
       y1="0.5"
       x2="1"
       y2="0.5"
       gradientTransform="matrix(48,0,0,46.985,0.495,0.559)"
       gradientUnits="userSpaceOnUse">
      <stop
         offset="0%"
         stop-opacity="1"
         style="stop-color:rgb(255,229,59)"
         id="stop2-3" />
      <stop
         offset="98.69565217391305%"
         stop-opacity="1"
         style="stop-color:rgb(255,0,91)"
         id="stop4-6" />
    </linearGradient>
    <linearGradient
       inkscape:collect="always"
       xlink:href="#_lgradient_38"
       id="linearGradient872"
       x1="-12.025727"
       y1="6.1170783"
       x2="-0.085100174"
       y2="6.1170783"
       gradientUnits="userSpaceOnUse"
       gradientTransform="matrix(3.8358211,0,0,3.8371386,-0.00544341,-0.00268054)" />
    <linearGradient
       inkscape:collect="always"
       xlink:href="#_lgradient_36"
       id="linearGradient1097"
       x1="12.482789"
       y1="19.526659"
       x2="22.952982"
       y2="19.526659"
       gradientUnits="userSpaceOnUse" />
    <linearGradient
       inkscape:collect="always"
       xlink:href="#_lgradient_35"
       id="linearGradient1123"
       x1="23.47649"
       y1="19.003149"
       x2="35.517212"
       y2="19.003149"
       gradientUnits="userSpaceOnUse" />
    <linearGradient
       inkscape:collect="always"
       xlink:href="#_lgradient_38"
       id="linearGradient1149"
       x1="25.047018"
       y1="29.473341"
       x2="35.517212"
       y2="29.473341"
       gradientUnits="userSpaceOnUse" />
    <linearGradient
       inkscape:collect="always"
       xlink:href="#_lgradient_37"
       id="linearGradient1175"
       x1="12.482789"
       y1="29.996851"
       x2="24.52351"
       y2="29.996851"
       gradientUnits="userSpaceOnUse" />
  </defs>
  <sodipodi:namedview
     id="namedview32"
     pagecolor="#ffffff"
     bordercolor="#666666"
     borderopacity="1.0"
     inkscape:pageshadow="2"
     inkscape:pageopacity="0.0"
     inkscape:pagecheckerboard="0"
     inkscape:document-units="pt"
     showgrid="false"
     inkscape:zoom="5.109375"
     inkscape:cx="32"
     inkscape:cy="32"
     inkscape:window-width="1056"
     inkscape:window-height="545"
     inkscape:window-x="249"
     inkscape:window-y="118"
     inkscape:window-maximized="0"
     inkscape:current-layer="svg30" />
  <linearGradient
     id="_lgradient_35"
     x1="0.9293478260869564"
     y1="0.09722222222222227"
     x2="0.034903381642512166"
     y2="0.9277777777777778"
     gradientTransform="matrix(12.04072,0,0,9.4231724,23.47649,14.291563)"
     gradientUnits="userSpaceOnUse">
    <stop
       offset="0%"
       stop-opacity="1"
       style="stop-color:rgb(67,233,123)"
       id="stop2" />
    <stop
       offset="97.82608695652173%"
       stop-opacity="1"
       style="stop-color:rgb(56,249,215)"
       id="stop4" />
  </linearGradient>
  <rect
     x="-46.783188"
     y="1.2253767"
     height="45.80014"
     rx="6.1837621"
     shape-rendering="crispEdges"
     id="rect5-6-7-3"
     ry="6.8055277"
     transform="matrix(0.00524063,-0.99998627,0.99998801,0.00489691,0,0)"
     style="isolation:isolate;fill:#00ebff;fill-opacity:0.13470298;stroke:url(#linearGradient872);stroke-width:2.0301;stroke-miterlimit:4;stroke-dasharray:none;stroke-opacity:1"
     width="45.801998" />
  <rect
     x="-15.686804"
     y="17.260084"
     height="33.345856"
     rx="6.7920032"
     shape-rendering="crispEdges"
     id="rect5-6-6-6-6"
     style="isolation:isolate;fill:#00ebff;fill-opacity:0.13470298;stroke:url(#linearGradient15);stroke-width:1.67233;stroke-miterlimit:4;stroke-dasharray:none;stroke-opacity:1"
     ry="7.4743071"
     transform="matrix(0.72446484,-0.68931175,0.68622417,0.72739012,0,0)"
     width="33.338203" />
  <path
     style="color:#000000;fill:url(#linearGradient1123);-inkscape-stroke:none"
     d="m 26.617187,13.791016 c -1.137462,0 -2.070312,0.93285 -2.070312,2.070312 v 4.189453 c 0,0.415783 0.174389,0.791098 0.445312,1.070313 h -0.46875 c -0.848485,0 -1.546875,0.69839 -1.546875,1.546875 0,0.848485 0.69839,1.546875 1.546875,1.546875 h 9.423829 c 1.137462,0 2.070312,-0.93285 2.070312,-2.070313 v -6.283203 c 0,-1.137462 -0.93285,-2.070312 -2.070312,-2.070312 z m 0,1 h 7.330079 c 0.5964,0 1.070312,0.473912 1.070312,1.070312 v 6.283203 c 0,0.5964 -0.473912,1.070313 -1.070312,1.070313 h -9.423829 c -0.307423,0 -0.546875,-0.239452 -0.546875,-0.546875 0,-0.307422 0.239452,-0.546875 0.546875,-0.546875 h 9.400391 v -6.236328 h -7.283203 v 4.166015 c 0,0.307423 -0.239452,0.546875 -0.546875,0.546875 -0.307422,0 -0.546875,-0.239453 -0.546875,-0.546875 v -4.189453 c 0,-0.5964 0.473913,-1.070312 1.070312,-1.070312 z m 1.023438,2.09375 h 5.283203 v 4.236328 h -5.728516 c 0.270924,-0.279216 0.445313,-0.654531 0.445313,-1.070313 z"
     id="path7" />
  <linearGradient
     id="_lgradient_36"
     x1="0.96875"
     y1="0.9500000000000001"
     x2="-0.09826030927835139"
     y2="-0.10219072164948428"
     gradientTransform="matrix(10.470192,0,0,10.470192,12.482789,14.291563)"
     gradientUnits="userSpaceOnUse">
    <stop
       offset="0%"
       stop-opacity="1"
       style="stop-color:rgb(255,65,108)"
       id="stop9" />
    <stop
       offset="84.34782608695653%"
       stop-opacity="1"
       style="stop-color:rgb(255,75,43)"
       id="stop11" />
  </linearGradient>
  <path
     style="color:#000000;fill:url(#linearGradient1097);-inkscape-stroke:none"
     d="m 14.052734,13.791016 c -1.137462,0 -2.070312,0.93285 -2.070312,2.070312 v 6.283203 c 0,1.137463 0.93285,2.070313 2.070312,2.070313 h 4.712891 c 0.848486,0 1.546875,-0.69839 1.546875,-1.546875 0,-0.848485 -0.698389,-1.546875 -1.546875,-1.546875 h -3.689453 v -4.236328 h 5.283203 v 6.830078 c 0,0.848484 0.698389,1.546875 1.546875,1.546875 0.848485,0 1.546875,-0.69839 1.546875,-1.546875 v -7.853516 c 0,-1.137462 -0.93285,-2.070312 -2.070313,-2.070312 z m 0,1 h 7.330078 c 0.5964,0 1.070313,0.473912 1.070313,1.070312 v 7.853516 c 0,0.307422 -0.239453,0.546875 -0.546875,0.546875 -0.307423,0 -0.546875,-0.239453 -0.546875,-0.546875 v -7.830078 h -7.283203 v 6.236328 h 4.689453 c 0.307423,0 0.546875,0.239452 0.546875,0.546875 0,0.307424 -0.239452,0.546875 -0.546875,0.546875 h -4.712891 c -0.5964,0 -1.070312,-0.473913 -1.070312,-1.070313 v -6.283203 c 0,-0.5964 0.473912,-1.070312 1.070312,-1.070312 z"
     id="path14" />
  <linearGradient
     id="_lgradient_37"
     x1="0.043478260869565244"
     y1="0.9444444444444442"
     x2="0.98792270531401"
     y2="-0.0706790123456793"
     gradientTransform="matrix(12.04072,0,0,9.4231724,12.482789,25.285264)"
     gradientUnits="userSpaceOnUse">
    <stop
       offset="0%"
       stop-opacity="1"
       style="stop-color:rgb(247,242,6)"
       id="stop16" />
    <stop
       offset="97.82608695652173%"
       stop-opacity="1"
       style="stop-color:rgb(255,187,36)"
       id="stop18" />
  </linearGradient>
  <path
     style="color:#000000;fill:url(#linearGradient1175);-inkscape-stroke:none"
     d="m 14.052734,24.785156 c -1.137462,0 -2.070312,0.93285 -2.070312,2.070313 v 6.283203 c 0,1.137462 0.93285,2.070312 2.070312,2.070312 h 7.330078 c 1.137463,0 2.070313,-0.93285 2.070313,-2.070312 v -3.666016 c 0,-0.848485 -0.698391,-1.546875 -1.546875,-1.546875 -0.848485,0 -1.546875,0.69839 -1.546875,1.546875 v 2.642578 h -5.283203 v -4.236328 h 8.40039 c 0.848486,0 1.546876,-0.69839 1.546875,-1.546875 10e-7,-0.848485 -0.698389,-1.546875 -1.546875,-1.546875 z m 0,1 h 9.423828 c 0.307424,0 0.546875,0.239452 0.546875,0.546875 0,0.307422 -0.239451,0.546875 -0.546875,0.546875 h -9.40039 v 6.236328 h 7.283203 v -3.642578 c 0,-0.307424 0.239451,-0.546875 0.546875,-0.546875 0.307422,0 0.546875,0.239452 0.546875,0.546875 v 3.666016 c 0,0.5964 -0.473913,1.070312 -1.070313,1.070312 h -7.330078 c -0.5964,0 -1.070312,-0.473912 -1.070312,-1.070312 v -6.283203 c 0,-0.5964 0.473912,-1.070313 1.070312,-1.070313 z"
     id="path21" />
  <linearGradient
     id="_lgradient_38"
     x1="0.9312500000000004"
     y1="0.9624999999999997"
     x2="-0.0629680616740087"
     y2="0.012610132158589749"
     gradientTransform="matrix(10.470192,0,0,10.470192,25.047019,24.238245)"
     gradientUnits="userSpaceOnUse">
    <stop
       offset="0%"
       stop-opacity="1"
       style="stop-color:rgb(0,198,255)"
       id="stop23" />
    <stop
       offset="98.69565217391305%"
       stop-opacity="1"
       style="stop-color:rgb(0,114,255)"
       id="stop25" />
  </linearGradient>
  <path
     style="color:#000000;fill:url(#linearGradient1149);-inkscape-stroke:none"
     d="m 26.09375,23.738281 c -0.848485,0 -1.546875,0.69839 -1.546875,1.546875 v 7.853516 c 0,1.137462 0.93285,2.070312 2.070312,2.070312 h 7.330079 c 1.137462,0 2.070312,-0.93285 2.070312,-2.070312 v -6.283203 c 0,-1.137463 -0.93285,-2.070313 -2.070312,-2.070313 h -4.712891 c -0.848486,0 -1.546875,0.69839 -1.546875,1.546875 0,0.848485 0.698389,1.546875 1.546875,1.546875 h 3.689453 v 4.236328 h -5.283203 v -6.830078 c 0,-0.848484 -0.698389,-1.546875 -1.546875,-1.546875 z m 0,1 c 0.307423,0 0.546875,0.239453 0.546875,0.546875 v 7.830078 h 7.283203 v -6.236328 h -4.689453 c -0.307423,0 -0.546875,-0.239452 -0.546875,-0.546875 0,-0.307424 0.239452,-0.546875 0.546875,-0.546875 h 4.712891 c 0.5964,0 1.070312,0.473913 1.070312,1.070313 v 6.283203 c 0,0.5964 -0.473912,1.070312 -1.070312,1.070312 h -7.330079 c -0.596399,0 -1.070312,-0.473912 -1.070312,-1.070312 v -7.853516 c 0,-0.307422 0.239453,-0.546875 0.546875,-0.546875 z"
     id="path28" />
</svg>
