<?xml version="1.0" encoding="UTF-8" standalone="no"?>
<!-- Generator: Gravit.io -->

<svg
   style="isolation:isolate"
   viewBox="0 0 48 48"
   width="48pt"
   height="48pt"
   version="1.1"
   id="svg13"
   sodipodi:docname="com.leinardi.gwe.svg"
   inkscape:version="1.1.2 (0a00cf5339, 2022-02-04)"
   xmlns:inkscape="http://www.inkscape.org/namespaces/inkscape"
   xmlns:sodipodi="http://sodipodi.sourceforge.net/DTD/sodipodi-0.dtd"
   xmlns:xlink="http://www.w3.org/1999/xlink"
   xmlns="http://www.w3.org/2000/svg"
   xmlns:svg="http://www.w3.org/2000/svg">
  <defs
     id="defs17">
    <linearGradient
       inkscape:collect="always"
       xlink:href="#_lgradient_21"
       id="linearGradient15"
       x1="-9.6850061"
       y1="45.161198"
       x2="11.98815"
       y2="21.735205"
       gradientUnits="userSpaceOnUse"
       gradientTransform="matrix(1.1147442,0,0,1.1150348,-0.01237238,-3.3277956)" />
    <linearGradient
       id="_lgradient_1"
       x1="0"
       y1="0.5"
       x2="1"
       y2="0.5"
       gradientTransform="matrix(48,0,0,46.985,0.495,0.559)"
       gradientUnits="userSpaceOnUse">
      <stop
         offset="0%"
         stop-opacity="1"
         style="stop-color:rgb(255,229,59)"
         id="stop2-3" />
      <stop
         offset="98.69565217391305%"
         stop-opacity="1"
         style="stop-color:rgb(255,0,91)"
         id="stop4-6" />
    </linearGradient>
    <linearGradient
       inkscape:collect="always"
       xlink:href="#_lgradient_21"
       id="linearGradient872"
       x1="-12.025727"
       y1="6.1170783"
       x2="-0.085100174"
       y2="6.1170783"
       gradientUnits="userSpaceOnUse"
       gradientTransform="matrix(3.8358211,0,0,3.8371386,-0.00544341,-0.00268054)" />
    <linearGradient
       inkscape:collect="always"
       xlink:href="#_lgradient_21"
       id="linearGradient936"
       x1="12.835775"
       y1="24.000004"
       x2="35.164227"
       y2="24.000004"
       gradientUnits="userSpaceOnUse" />
  </defs>
  <sodipodi:namedview
     id="namedview15"
     pagecolor="#ffffff"
     bordercolor="#666666"
     borderopacity="1.0"
     inkscape:pageshadow="2"
     inkscape:pageopacity="0.0"
     inkscape:pagecheckerboard="0"
     inkscape:document-units="pt"
     showgrid="false"
     inkscape:zoom="7.2257474"
     inkscape:cx="32.038208"
     inkscape:cy="31.969011"
     inkscape:window-width="1600"
     inkscape:window-height="836"
     inkscape:window-x="0"
     inkscape:window-y="0"
     inkscape:window-maximized="1"
     inkscape:current-layer="svg13" />
  <linearGradient
     id="_lgradient_21"
     x1="1.5627141899860746"
     y1="0.543163345093069"
     x2="-0.052491476226457445"
     y2="0.5389581965419142"
     gradientTransform="matrix(22.32845,0,0,21.809195,12.835775,13.09564)"
     gradientUnits="userSpaceOnUse">
    <stop
       offset="34.94098066785295%"
       stop-opacity="1"
       style="stop-color:rgb(178,229,107)"
       id="stop2" />
    <stop
       offset="53.84922244785295%"
       stop-opacity="1"
       style="stop-color:rgb(194,233,100)"
       id="stop4" />
    <stop
       offset="90.40515655585295%"
       stop-opacity="1"
       style="stop-color:rgb(236,244,81)"
       id="stop6" />
    <stop
       offset="100%"
       stop-opacity="1"
       style="stop-color:rgb(250,247,75)"
       id="stop8" />
  </linearGradient>
  <rect
     x="-46.783188"
     y="1.2253767"
     height="45.80014"
     rx="6.1837621"
     shape-rendering="crispEdges"
     id="rect5-6-7-3"
     ry="6.8055277"
     transform="matrix(0.00524063,-0.99998627,0.99998801,0.00489691,0,0)"
     style="isolation:isolate;fill:#c5ff00;fill-opacity:0.13470298;stroke:url(#linearGradient872);stroke-width:2.0301;stroke-miterlimit:4;stroke-dasharray:none;stroke-opacity:1"
     width="45.801998" />
  <rect
     x="-15.686804"
     y="17.260084"
     height="33.345856"
     rx="6.7920032"
     shape-rendering="crispEdges"
     id="rect5-6-6-6-6"
     style="isolation:isolate;fill:#c5ff00;fill-opacity:0.13470298;stroke:url(#linearGradient15);stroke-width:1.67233;stroke-miterlimit:4;stroke-dasharray:none;stroke-opacity:1"
     ry="7.4743071"
     transform="matrix(0.72446484,-0.68931175,0.68622417,0.72739012,0,0)"
     width="33.338203" />
  <path
     style="color:#000000;fill:url(#linearGradient936);fill-rule:evenodd;-inkscape-stroke:none"
     d="m 14.392578,12.595703 c -1.130416,0 -2.056641,0.928178 -2.05664,2.058594 v 10.125 c -1e-6,0.700484 0.578638,1.279297 1.279296,1.279297 0.700484,0 1.277344,-0.578813 1.277344,-1.279297 v -9.607422 c 0,-0.01652 0.0034,-0.01758 0.01953,-0.01758 h 18.175782 c 0.01615,0 0.01953,0.0011 0.01953,0.01758 V 17.0625 c -0.988902,0.08622 -2.00854,0.207891 -2.941406,0.4375 -6.273192,1.534397 -9.353516,5.228516 -9.353516,5.228516 l -0.193359,0.230468 0.115234,0.277344 c 0,0 1.871574,4.640918 5.482422,7.384766 l 0.002,0.002 c 0.43496,0.329719 0.898183,0.617046 1.347656,0.925781 h -1.697265 c -2.0924,-1.49124 -4.527344,-4.279297 -4.527344,-4.279297 l -0.304688,-0.353515 -0.373047,0.279296 c -0.598324,0.448555 -1.391442,0.433573 -2.269531,0.839844 -0.749355,0.346004 -1.248047,0.609375 -1.248047,0.609375 l -0.515625,0.269531 0.345703,0.46875 c 0,0 0.211147,0.2798 0.748047,0.78125 0.3248,0.303355 1.09676,0.890993 1.716797,1.384766 h -4.548828 v -2.615234 c 0,-0.700659 -0.57686,-1.279297 -1.277344,-1.279297 -0.700658,0 -1.279297,0.578638 -1.279296,1.279297 v 4.412109 c 0,1.130416 0.926224,2.058594 2.05664,2.058594 h 19.214844 c 1.130416,0 2.05664,-0.928178 2.05664,-2.058594 v -9.605469 -1.298828 c 0,-0.494437 -0.09387,-0.943289 -0.283203,-1.310547 -0.18825,-0.365157 -0.530382,-0.707852 -1.005859,-0.697265 -0.02215,1.65e-4 -0.04434,-0.0023 -0.0625,0 l -0.339844,0.04102 -0.01953,0.07617 c -0.05614,0.01924 -0.09571,0.0262 -0.158203,0.05469 -3.839581,1.745328 -5.466797,4.351562 -5.466797,4.351562 l -0.119141,0.195313 0.06641,0.216797 c 0,0 0.777601,2.476306 3.388671,5.105468 l 1.066407,1.074219 h -0.38086 c -1.036867,-0.63102 -2.750105,-1.82194 -4.261718,-3.740234 -1.159222,-1.470735 -1.727906,-2.445995 -2,-3.029297 -0.115313,-0.247201 -0.156197,-0.387939 -0.189454,-0.501953 0.29448,-0.286087 2.386014,-2.294332 4.558594,-3.181641 1.236372,-0.504275 2.772499,-0.901389 3.869141,-1.167969 0.238398,0.02129 0.472656,0.0332 0.472656,0.0332 h 0.08594 l 0.08203,-0.0293 c 0.338152,-0.123753 0.4576,-0.370293 0.552734,-0.605469 0.09513,-0.235177 0.144531,-0.500054 0.144531,-0.779297 v -3.892578 c 0,-1.130416 -0.926224,-2.058594 -2.05664,-2.058594 z m 0,1 h 19.214844 c 0.589348,0 1.05664,0.469246 1.05664,1.058594 v 3.892578 c 0,0.149288 -0.03402,0.304455 -0.07227,0.400391 -0.07923,-0.0032 -0.09993,4.19e-4 -0.259766,-0.01953 l -0.0918,-0.0098 -0.08789,0.02148 c -1.111682,0.26944 -2.720777,0.678445 -4.074219,1.230469 -2.639936,1.078183 -5.091797,3.582031 -5.091797,3.582031 l -0.144531,0.144531 v 0.207032 c 0,0 0.007,0.153911 0.05273,0.332031 0.04575,0.17812 0.129027,0.428689 0.28711,0.767578 0.316165,0.677779 0.927278,1.709986 2.121093,3.224609 1.578564,2.003257 3.329101,3.229458 4.435547,3.910157 -0.257322,0.207676 -0.519887,0.410983 -0.810547,0.572265 l -1.689453,0.935547 h 3.84961 c 0.556784,0 1.019531,-0.460216 1.019531,-1.017578 v -9.021484 l 0.371094,-1.365235 -1.128907,0.783203 c -0.904087,0.627578 -1.751175,1.381799 -2.423828,2.257813 l -0.113281,0.146484 0.0098,0.185547 c 0.04049,0.731374 0.208336,1.441128 0.388671,2.427734 -1.16106,-1.545183 -1.794907,-2.704787 -1.875,-2.941406 0.181994,-0.27904 1.515587,-2.258579 4.875,-3.785156 0.01742,-0.0079 0.119507,-0.03973 0.201172,-0.06641 -0.02267,-3.45e-4 -0.001,-0.01667 0.08008,0.140625 0.0925,0.179432 0.171875,0.493244 0.171875,0.851562 v 1.298828 9.605469 c 0,0.589348 -0.467292,1.058594 -1.05664,1.058594 H 14.392578 c -0.589348,0 -1.05664,-0.469246 -1.05664,-1.058594 v -4.412109 c 0,-0.159223 0.120074,-0.279297 0.279296,-0.279297 0.15845,0 0.277344,0.120074 0.277344,0.279297 v 3.894531 c 0,0.557362 0.462747,1.017578 1.019531,1.017578 h 3.841797 l -1.693359,-0.9375 C 16.872933,32.804389 16.70514,32.672625 16.53125,32.548828 h 5.859375 L 21.152344,31.644531 C 19.762955,30.63043 18.907265,29.901529 18.40625,29.433594 18.25208,29.289603 18.30509,29.32651 18.214844,29.234375 18.424161,29.130091 18.45034,29.110581 18.8125,28.943359 h 0.002 c 0.488255,-0.225904 1.259241,-0.400394 1.998047,-0.773437 0.329379,0.379073 2.432568,2.780459 4.5625,4.269531 v -0.002 c 0.03325,0.02345 0.04266,0.03084 0.0293,0.02148 l 0.128906,0.08984 h 5.388672 L 29.439453,31.625 c -0.899345,-0.560509 -1.773792,-1.159496 -2.617187,-1.798828 -3.11082,-2.363881 -4.798688,-6.193469 -5.003907,-6.667969 0.294259,-0.339966 2.92383,-3.300619 8.585938,-4.685547 v -0.002 c 1.00756,-0.247994 2.153992,-0.407046 3.234375,-0.478516 l 0.46875,-0.03125 v -2.789062 c 0,-0.557362 -0.462747,-1.017578 -1.019531,-1.017578 H 14.912109 c -0.556784,0 -1.019531,0.460216 -1.019531,1.017578 v 9.607422 c 0,0.158449 -0.118894,0.279297 -0.277344,0.279297 -0.159222,0 -0.279297,-0.120848 -0.279296,-0.279297 v -10.125 c 0,-0.589348 0.467292,-1.058594 1.05664,-1.058594 z m 18.714844,11.205078 v 6.748047 h -0.292969 l -0.306641,-1.525391 c 0,0 -0.546293,-2.853001 -0.652343,-4.058593 0.35023,-0.434248 0.812152,-0.789415 1.251953,-1.164063 z m -18.214844,7.648438 0.002,0.002 c 0.03754,0.0407 0.08752,0.102479 0.16211,0.177734 0.07388,0.07459 0.156506,0.144491 0.234375,0.216797 h -0.378907 c -0.01615,0 -0.01953,-0.0011 -0.01953,-0.01758 z m 18.214844,0 v 0.378906 c 0,0.01653 -0.0034,0.01758 -0.01953,0.01758 h -0.371094 c 0.02452,-0.02162 0.04705,-0.03853 0.07227,-0.0625 0.05137,-0.04892 0.06821,-0.06982 0.06055,-0.0625 v -0.002 c 0.08885,-0.08617 0.16637,-0.170459 0.238282,-0.248047 0.0083,-0.0089 0.01223,-0.01349 0.01953,-0.02148 z"
     id="path11" />
</svg>
