<?xml version="1.0" encoding="UTF-8" standalone="no"?>
<!-- Generator: Gravit.io -->

<svg
   style="isolation:isolate"
   viewBox="0 0 48 48"
   width="48pt"
   height="48pt"
   version="1.1"
   id="svg11"
   sodipodi:docname="com.mitchellh.ghostty.svg"
   inkscape:version="1.1.2 (0a00cf5339, 2022-02-04)"
   xmlns:inkscape="http://www.inkscape.org/namespaces/inkscape"
   xmlns:sodipodi="http://sodipodi.sourceforge.net/DTD/sodipodi-0.dtd"
   xmlns:xlink="http://www.w3.org/1999/xlink"
   xmlns="http://www.w3.org/2000/svg"
   xmlns:svg="http://www.w3.org/2000/svg">
  <defs
     id="defs15">
    <linearGradient
       inkscape:collect="always"
       xlink:href="#_lgradient_13"
       id="linearGradient15"
       x1="-9.6850061"
       y1="45.161198"
       x2="11.98815"
       y2="21.735205"
       gradientUnits="userSpaceOnUse"
       gradientTransform="matrix(1.1147442,0,0,1.1150348,-0.01237238,-3.3277956)" />
    <linearGradient
       id="_lgradient_1"
       x1="0"
       y1="0.5"
       x2="1"
       y2="0.5"
       gradientTransform="matrix(48,0,0,46.985,0.495,0.559)"
       gradientUnits="userSpaceOnUse">
      <stop
         offset="0%"
         stop-opacity="1"
         style="stop-color:rgb(255,229,59)"
         id="stop2-3" />
      <stop
         offset="98.69565217391305%"
         stop-opacity="1"
         style="stop-color:rgb(255,0,91)"
         id="stop4-6" />
    </linearGradient>
    <linearGradient
       inkscape:collect="always"
       xlink:href="#_lgradient_13"
       id="linearGradient872"
       x1="-12.025727"
       y1="6.1170783"
       x2="-0.085100174"
       y2="6.1170783"
       gradientUnits="userSpaceOnUse"
       gradientTransform="matrix(3.8358211,0,0,3.8371386,-0.00544341,-0.00268054)" />
    <linearGradient
       inkscape:collect="always"
       xlink:href="#_lgradient_13"
       id="linearGradient1024"
       x1="11.908407"
       y1="21.729774"
       x2="35.798016"
       y2="21.729774"
       gradientUnits="userSpaceOnUse" />
  </defs>
  <sodipodi:namedview
     id="namedview13"
     pagecolor="#ffffff"
     bordercolor="#666666"
     borderopacity="1.0"
     inkscape:pageshadow="2"
     inkscape:pageopacity="0.0"
     inkscape:pagecheckerboard="0"
     inkscape:document-units="pt"
     showgrid="false"
     inkscape:zoom="5.109375"
     inkscape:cx="32"
     inkscape:cy="32.097859"
     inkscape:window-width="1600"
     inkscape:window-height="836"
     inkscape:window-x="0"
     inkscape:window-y="0"
     inkscape:window-maximized="1"
     inkscape:current-layer="svg11" />
  <linearGradient
     id="_lgradient_13"
     x1="0.027679896974229297"
     y1="0.20566739522782673"
     x2="0.9136912032182217"
     y2="0.9091879277611098"
     gradientTransform="matrix(23.889608,0,0,25.048082,11.908407,9.2057334)"
     gradientUnits="userSpaceOnUse">
    <stop
       offset="1.3043478260869565%"
       stop-opacity="1"
       style="stop-color:rgb(223,87,255)"
       id="stop2" />
    <stop
       offset="52.083333333333336%"
       stop-opacity="1"
       style="stop-color:rgb(36,30,252)"
       id="stop4" />
    <stop
       offset="97.91666666666666%"
       stop-opacity="1"
       style="stop-color:rgb(14,175,254)"
       id="stop6" />
  </linearGradient>
  <rect
     x="-46.783188"
     y="1.2253767"
     height="45.80014"
     rx="6.1837621"
     shape-rendering="crispEdges"
     id="rect5-6-7-3"
     ry="6.8055277"
     transform="matrix(0.00524063,-0.99998627,0.99998801,0.00489691,0,0)"
     style="isolation:isolate;fill:#ed00ff;fill-opacity:0.13470298;stroke:url(#linearGradient872);stroke-width:2.0301;stroke-miterlimit:4;stroke-dasharray:none;stroke-opacity:1"
     width="45.801998" />
  <rect
     x="-15.686804"
     y="17.260084"
     height="33.345856"
     rx="6.7920032"
     shape-rendering="crispEdges"
     id="rect5-6-6-6-6"
     style="isolation:isolate;fill:#ed00ff;fill-opacity:0.13470298;stroke:url(#linearGradient15);stroke-width:1.67233;stroke-miterlimit:4;stroke-dasharray:none;stroke-opacity:1"
     ry="7.4743071"
     transform="matrix(0.72446484,-0.68931175,0.68622417,0.72739012,0,0)"
     width="33.338203" />
  <path
     style="color:#000000;fill:url(#linearGradient1024);fill-rule:evenodd;-inkscape-stroke:none"
     d="m 22.761719,8.7050781 c -3.007795,0 -5.900164,1.1950852 -8.029297,3.3242189 v 0.002 c -2.123019,2.128477 -3.324219,5.01592 -3.324219,8.029297 v 11.464844 c 0,0.8003 0.365888,1.557521 0.992188,2.054687 0.886287,0.711725 1.990032,1.105622 3.128906,1.117188 h 0.0059 0.0039 c 0.670393,-0.0057 1.337552,-0.133396 1.964843,-0.38086 0.288005,-0.112807 0.56031,-0.260383 0.832031,-0.408203 0.239628,0.149108 0.478746,0.30057 0.734375,0.416016 h 0.002 c 0.62233,0.279176 1.29565,0.423905 1.974609,0.429687 h 0.0039 0.0039 c 0.683602,-0.0058 1.354382,-0.151795 1.980469,-0.416015 h 0.0039 l 0.002,-0.002 c 0.257549,-0.112677 0.505366,-0.257182 0.753906,-0.40039 0.215548,0.136397 0.429953,0.276693 0.662109,0.384765 v 0.002 c 0.620461,0.286816 1.297442,0.43164 1.97461,0.43164 h 0.002 0.002 c 0.68545,-0.0058 1.360747,-0.144501 1.990234,-0.410156 h 0.002 l 0.002,-0.002 c 0.30779,-0.132521 0.603106,-0.300107 0.896485,-0.470703 0.282956,0.151231 0.566413,0.300755 0.865234,0.416015 l 0.002,0.002 h 0.0039 c 0.617594,0.22874 1.270661,0.34961 1.93164,0.34961 h 0.002 0.002 c 1.129986,-0.0058 2.224698,-0.374991 3.128907,-1.048828 l 0.0039,-0.002 0.002,-0.002 c 0.311632,-0.240216 0.562256,-0.550655 0.736328,-0.904296 0.176513,-0.342906 0.280025,-0.721173 0.292969,-1.109375 l 0.002,-0.0078 v -0.03906 -11.464844 c 0,-3.013377 -1.201199,-5.90082 -3.324219,-8.029297 l -0.002,-0.002 C 30.843523,9.9001633 27.951154,8.7050781 24.943359,8.7050781 Z m 0,1 h 2.18164 c 2.742822,0 5.38109,1.0900739 7.322266,3.0312499 1.936853,1.941831 3.033203,4.576542 3.033203,7.324219 v 11.464844 0.01367 c -0.0078,0.235275 -0.07211,0.470688 -0.185547,0.689454 l -0.002,0.0059 -0.002,0.0039 c -0.107262,0.218496 -0.261606,0.407575 -0.449219,0.552735 -0.73315,0.545191 -1.617798,0.842589 -2.53125,0.847656 -0.537193,0 -1.070293,-0.09783 -1.578125,-0.285156 l -0.0059,-0.002 c -0.339364,-0.131232 -0.662799,-0.285319 -0.976563,-0.46875 l -0.261718,-0.154296 -0.257813,0.164062 c -0.318493,0.202678 -0.660929,0.378534 -1.015625,0.53125 -0.505814,0.212859 -1.047822,0.324927 -1.601562,0.330078 -0.53285,0 -1.067372,-0.115793 -1.552735,-0.339844 h -0.002 c -0.274704,-0.127992 -0.535095,-0.279929 -0.78125,-0.455078 l -0.275391,-0.195312 -0.285156,0.183594 c -0.279558,0.180055 -0.576297,0.333751 -0.888672,0.470703 -0.0012,5.05e-4 -0.0027,-5.04e-4 -0.0039,0 -8.2e-4,3.59e-4 -0.0011,0.0016 -0.002,0.002 -0.50861,0.213806 -1.045291,0.328852 -1.589844,0.333984 -0.540183,-0.0051 -1.07562,-0.12105 -1.568359,-0.341797 h -0.002 C 19.183376,33.277832 18.903824,33.120207 18.638672,32.935547 L 18.373047,32.75 18.095703,32.917969 c -0.302812,0.182648 -0.623004,0.337279 -0.958984,0.46875 -0.508397,0.20056 -1.05102,0.303167 -1.59961,0.308593 -0.914677,-0.01029 -1.8027,-0.326489 -2.511718,-0.896484 h -0.002 v -0.002 c -0.38606,-0.306459 -0.615235,-0.777636 -0.615235,-1.271484 V 20.060547 c 0,-2.747677 1.094398,-5.382388 3.03125,-7.324219 1.941176,-1.941176 4.579444,-3.0312499 7.322266,-3.0312499 z m 0,1.0878909 c -2.454748,0 -4.81505,0.977157 -6.552735,2.714844 -1.737312,1.73731 -2.71289,4.093065 -2.71289,6.552734 v 11.464844 c 0,0.118125 0.107414,0.337503 0.273437,0.445312 0.509177,0.38924 1.118657,0.626646 1.75586,0.638672 h 0.0078 0.0098 c 0.413796,-0.0061 0.817059,-0.086 1.195312,-0.232422 0.671941,-0.26131 1.21631,-0.734554 1.726563,-1.234375 0.417448,0.507652 0.863546,1.002677 1.46289,1.279297 l 0.0039,0.002 0.0039,0.002 c 0.346144,0.15384 0.72178,0.233927 1.101562,0.240235 h 0.0078 0.0078 c 0.401738,-0.0063 0.794335,-0.09387 1.158203,-0.248047 h 0.002 c 0.678709,-0.290876 1.213548,-0.801607 1.714843,-1.335938 0.389249,0.530949 0.80134,1.059306 1.402344,1.34375 l 0.0039,0.002 0.0039,0.002 c 0.337479,0.15282 0.70656,0.236329 1.08789,0.236329 h 0.0039 0.0039 c 0.41012,-0.0062 0.811371,-0.09182 1.18164,-0.246094 v -0.002 h 0.002 c 0.640686,-0.27124 1.180817,-0.716358 1.685547,-1.19336 0.485987,0.448668 1.002075,0.872946 1.621094,1.107422 h 0.0039 l 0.002,0.002 c 0.377414,0.137785 0.781006,0.216797 1.195313,0.216797 h 0.002 0.002 c 0.680177,-0.0062 1.336314,-0.228128 1.878906,-0.628906 l 0.203125,-0.150391 V 31.519531 20.060547 c 0,-2.459669 -0.977531,-4.815424 -2.714843,-6.552734 -1.737685,-1.737687 -4.097987,-2.714844 -6.552735,-2.714844 z m 0,1 h 2.18164 c 2.18958,0 4.295832,0.872002 5.845703,2.421875 1.550247,1.550245 2.421876,3.650608 2.421875,5.845703 v 11.125 c -0.334803,0.200155 -0.696085,0.361316 -1.089843,0.365234 -0.281685,-4.85e-4 -0.564834,-0.05387 -0.841797,-0.154297 l -0.002,-0.002 c -0.613612,-0.232893 -1.169739,-0.609584 -1.611328,-1.097656 l -0.371094,-0.410156 -0.371094,0.410156 c -0.464934,0.516594 -1.043943,0.923861 -1.693359,1.199219 -0.254754,0.106146 -0.53119,0.165211 -0.808594,0.169922 -0.231611,-5.55e-4 -0.454694,-0.05053 -0.667969,-0.146485 -0.585312,-0.27803 -1.061226,-0.733136 -1.359375,-1.302734 l -0.363281,-0.695313 -0.476563,0.625 c -0.454476,0.595037 -1.04576,1.056442 -1.734375,1.351563 -0.248765,0.105408 -0.510563,0.160579 -0.773437,0.166015 -0.241056,-0.0051 -0.485886,-0.05679 -0.699219,-0.15039 -0.593495,-0.273921 -1.091837,-0.704731 -1.435547,-1.251953 l -0.363281,-0.578125 -0.441406,0.521484 c -0.469877,0.554454 -1.057735,0.978615 -1.730469,1.240234 -0.265133,0.102632 -0.546352,0.156415 -0.83789,0.16211 -0.378915,-0.0083 -0.728082,-0.170135 -1.042969,-0.378906 V 20.060547 c 0,-2.195095 0.869675,-4.295458 2.419922,-5.845703 1.549871,-1.549873 3.656123,-2.421875 5.845703,-2.421875 z m -5.388672,3.193359 c -0.392123,0.056 -0.763613,0.26086 -1.017578,0.59961 -0.5078,0.677321 -0.366951,1.652225 0.310547,2.160156 l 2.529296,1.896484 -2.529296,1.896484 c -0.677498,0.507931 -0.818347,1.482835 -0.310547,2.160157 0.50793,0.677497 1.484787,0.816393 2.162109,0.308593 l 3.742188,-2.802734 v -0.002 c 0.494137,-0.362604 0.79769,-0.936742 0.804687,-1.554688 v -0.0059 -0.0059 c -0.007,-0.617921 -0.310542,-1.19208 -0.804687,-1.554688 l -3.742188,-2.80664 v 0.002 c -0.338661,-0.2539 -0.752408,-0.347019 -1.144531,-0.291016 z m 0.544922,1.089844 3.748047,2.808594 0.002,0.002 c 0.243984,0.178692 0.386892,0.458723 0.392578,0.755859 -0.0057,0.297111 -0.148587,0.577161 -0.392578,0.755859 h -0.002 l -3.748047,2.810547 c -0.244239,0.18311 -0.578742,0.134687 -0.761719,-0.109375 -0.183109,-0.244237 -0.134688,-0.57874 0.109375,-0.761718 l 3.595703,-2.695313 -3.595703,-2.697266 c -0.242466,-0.183273 -0.292024,-0.516141 -0.109375,-0.759765 0.182977,-0.244063 0.51748,-0.292485 0.761719,-0.109375 z m 8.023437,2.023437 c -0.846636,0 -1.544922,0.696333 -1.544922,1.542969 0,0.846637 0.698286,1.542969 1.544922,1.542969 h 4.173828 c 0.846637,0 1.542969,-0.696332 1.542969,-1.542969 0,-0.846637 -0.696332,-1.542969 -1.542969,-1.542969 z m 0,1 h 4.173828 c 0.305575,0 0.542969,0.237395 0.542969,0.542969 0,0.305574 -0.237394,0.542969 -0.542969,0.542969 h -4.173828 c -0.305574,0 -0.544922,-0.237394 -0.544922,-0.542969 0,-0.305574 0.239348,-0.542969 0.544922,-0.542969 z"
     id="path9" />
</svg>
