<?xml version="1.0" encoding="UTF-8" standalone="no"?>
<!-- Generator: Gravit.io -->

<svg
   style="isolation:isolate"
   viewBox="0 0 48 48"
   width="48pt"
   height="48pt"
   version="1.1"
   id="svg9"
   sodipodi:docname="com.github.muriloventuroso.easyssh.svg"
   inkscape:version="1.1.2 (0a00cf5339, 2022-02-04)"
   xmlns:inkscape="http://www.inkscape.org/namespaces/inkscape"
   xmlns:sodipodi="http://sodipodi.sourceforge.net/DTD/sodipodi-0.dtd"
   xmlns:xlink="http://www.w3.org/1999/xlink"
   xmlns="http://www.w3.org/2000/svg"
   xmlns:svg="http://www.w3.org/2000/svg">
  <defs
     id="defs13">
    <linearGradient
       inkscape:collect="always"
       xlink:href="#_lgradient_3"
       id="linearGradient15"
       x1="-9.6850061"
       y1="45.161198"
       x2="11.98815"
       y2="21.735205"
       gradientUnits="userSpaceOnUse"
       gradientTransform="matrix(1.1147442,0,0,1.1150348,-0.01237238,-3.3277956)" />
    <linearGradient
       id="_lgradient_1"
       x1="0"
       y1="0.5"
       x2="1"
       y2="0.5"
       gradientTransform="matrix(48,0,0,46.985,0.495,0.559)"
       gradientUnits="userSpaceOnUse">
      <stop
         offset="0%"
         stop-opacity="1"
         style="stop-color:rgb(255,229,59)"
         id="stop2-3" />
      <stop
         offset="98.69565217391305%"
         stop-opacity="1"
         style="stop-color:rgb(255,0,91)"
         id="stop4-6" />
    </linearGradient>
    <linearGradient
       inkscape:collect="always"
       xlink:href="#_lgradient_3"
       id="linearGradient872"
       x1="-12.025727"
       y1="6.1170783"
       x2="-0.085100174"
       y2="6.1170783"
       gradientUnits="userSpaceOnUse"
       gradientTransform="matrix(3.8358211,0,0,3.8371386,-0.00544341,-0.00268054)" />
    <linearGradient
       inkscape:collect="always"
       xlink:href="#_lgradient_3"
       id="linearGradient968"
       x1="9.9400558"
       y1="24"
       x2="38.059944"
       y2="24"
       gradientUnits="userSpaceOnUse" />
  </defs>
  <sodipodi:namedview
     id="namedview11"
     pagecolor="#ffffff"
     bordercolor="#666666"
     borderopacity="1.0"
     inkscape:pageshadow="2"
     inkscape:pageopacity="0.0"
     inkscape:pagecheckerboard="0"
     inkscape:document-units="pt"
     showgrid="false"
     inkscape:zoom="3.6128737"
     inkscape:cx="31.969011"
     inkscape:cy="31.969011"
     inkscape:window-width="1056"
     inkscape:window-height="545"
     inkscape:window-x="332"
     inkscape:window-y="141"
     inkscape:window-maximized="0"
     inkscape:current-layer="svg9" />
  <linearGradient
     id="_lgradient_3"
     x1="0.22078557924020603"
     y1="0.04723996636961164"
     x2="0.9022490870014594"
     y2="0.9061460265379022"
     gradientTransform="matrix(28.119889,0,0,28.119889,9.9400555,9.9400555)"
     gradientUnits="userSpaceOnUse">
    <stop
       offset="2.608695652173913%"
       stop-opacity="1"
       style="stop-color:rgb(237,184,212)"
       id="stop2" />
    <stop
       offset="98.69565217391305%"
       stop-opacity="1"
       style="stop-color:rgb(162,110,245)"
       id="stop4" />
  </linearGradient>
  <rect
     x="-46.783188"
     y="1.2253767"
     height="45.80014"
     rx="6.1837621"
     shape-rendering="crispEdges"
     id="rect5-6-7-3"
     ry="6.8055277"
     transform="matrix(0.00524063,-0.99998627,0.99998801,0.00489691,0,0)"
     style="isolation:isolate;fill:#c400ff;fill-opacity:0.13470298;stroke:url(#linearGradient872);stroke-width:2.0301;stroke-miterlimit:4;stroke-dasharray:none;stroke-opacity:1"
     width="45.801998" />
  <rect
     x="-15.686804"
     y="17.260084"
     height="33.345856"
     rx="6.7920032"
     shape-rendering="crispEdges"
     id="rect5-6-6-6-6"
     style="isolation:isolate;fill:#c400ff;fill-opacity:0.13470298;stroke:url(#linearGradient15);stroke-width:1.67233;stroke-miterlimit:4;stroke-dasharray:none;stroke-opacity:1"
     ry="7.4743071"
     transform="matrix(0.72446484,-0.68931175,0.68622417,0.72739012,0,0)"
     width="33.338203" />
  <path
     style="color:#000000;fill:url(#linearGradient968);fill-rule:evenodd;-inkscape-stroke:none"
     d="M 24,9.4394531 C 15.969491,9.4394531 9.4394531,15.969491 9.4394531,24 9.4394531,32.030509 15.969491,38.560547 24,38.560547 32.030509,38.560547 38.560547,32.030509 38.560547,24 38.560547,15.969491 32.030509,9.4394531 24,9.4394531 Z m 0,0.9999999 c 7.489261,0 13.560547,6.071286 13.560547,13.560547 0,7.489261 -6.071286,13.560547 -13.560547,13.560547 -7.489261,0 -13.560547,-6.071286 -13.560547,-13.560547 0,-7.489261 6.071286,-13.560547 13.560547,-13.560547 z m 0,1.394531 c -3.226002,0 -6.320432,1.283701 -8.603516,3.560547 v 0.002 h -0.002 C 13.117685,17.679568 11.833984,20.773998 11.833984,24 c 0,2.465357 0.750475,4.855078 2.121094,6.863281 l 0.146485,0.214844 0.333984,0.0039 0.730469,0.0059 h 0.002 c 3.624065,0.01212 7.235102,-0.478705 10.720703,-1.466797 l 0.002,-0.002 h 0.002 c 3.426638,-0.994634 6.695093,-2.479535 9.697266,-4.408204 l 0.630859,-0.40625 -0.06641,-0.279296 c 0.0076,-0.174354 0.01172,-0.349943 0.01172,-0.525391 0,-3.226002 -1.283701,-6.320432 -3.560547,-8.603516 h -0.002 v -0.002 C 30.320432,13.117685 27.226002,11.833984 24,11.833984 Z m 0,1 c 2.960367,0 5.80005,1.178824 7.896484,3.269532 2.090708,2.096434 3.269532,4.936117 3.269532,7.896484 0,0.184415 -0.0045,0.368451 -0.01367,0.550781 l -0.002,0.07031 -0.06641,-0.275391 -0.03516,0.02344 c -2.920947,1.876487 -6.101451,3.323243 -9.435547,4.291015 -3.392282,0.961224 -6.910633,1.43918 -10.439453,1.427735 l -0.496094,-0.0039 C 13.504144,28.282708 12.833984,26.181188 12.833984,24 c 0,-2.960367 1.178824,-5.80005 3.269532,-7.896484 C 18.19995,14.012808 21.039633,12.833984 24,12.833984 Z m -6.482422,2.888672 v 0.5 0.695313 h -0.09961 c -1.262718,0 -2.294922,1.032205 -2.294922,2.294922 0,1.262717 1.032205,2.294921 2.294922,2.294921 h 0.09961 v 0.197266 h -2.490234 l 0.234375,0.666016 c 0.314437,0.888359 1.160633,1.53125 2.15625,1.53125 h 0.09961 v 1.195312 h 2.195313 v -1.195312 h 0.09961 c 1.262718,0 2.294922,-1.032205 2.294922,-2.294922 0,-1.262717 -1.032204,-2.294922 -2.294922,-2.294922 h -0.09961 v -0.197266 h 2.492187 L 21.96875,18.449219 c -0.314437,-0.88836 -1.160632,-1.53125 -2.15625,-1.53125 h -0.09961 v -1.195313 z m 1,1 h 0.195313 v 1.195313 H 19.8125 c 0.130199,0 0.160214,0.162296 0.277344,0.197265 H 18.712891 V 20.3125 H 19.8125 c 0.726016,0 1.294922,0.568907 1.294922,1.294922 0,0.726015 -0.568906,1.294922 -1.294922,1.294922 h -1.099609 v 1.195312 h -0.195313 v -1.195312 h -1.099609 c -0.130199,0 -0.160214,-0.162296 -0.277344,-0.197266 h 1.376953 v -2.197266 h -1.099609 c -0.726015,0 -1.294922,-0.568906 -1.294922,-1.294921 0,-0.726015 0.568907,-1.294922 1.294922,-1.294922 h 1.099609 z m 10.867188,1.207031 -3.980469,2.392579 1.121094,1.888671 0.429687,-0.259765 2.429688,-1.455078 2.859375,1.714843 1.121093,-1.888671 z m -11.966797,0.185547 c -0.599807,0 -1.097657,0.49785 -1.097657,1.097657 0,0.599806 0.497851,1.099609 1.097657,1.099609 h 1.099609 v -2.197266 z m 11.966797,0.982422 2.613281,1.56836 -0.101563,0.169921 -2.511718,-1.505859 -2.511719,1.505859 -0.101563,-0.169921 z m -11.966797,0.01758 h 0.09961 V 19.3125 h -0.09961 c -0.0631,0 -0.09766,-0.0365 -0.09766,-0.09961 0,-0.06311 0.03455,-0.09766 0.09766,-0.09766 z m 1.294922,1.392578 v 0.5 1.697266 h 1.076171 c 0.627067,0.02943 1.121094,-0.497849 1.121094,-1.097656 0,-0.599807 -0.497849,-1.09961 -1.097656,-1.09961 z m 1,1 h 0.09961 c 0.06311,0 0.09766,0.0365 0.09766,0.09961 0,0.0631 -0.03837,0.09934 -0.07422,0.09766 h -0.01172 -0.111328 z m 1.394531,3.189454 v 0.5 1.695312 h 5.785156 v -2.195312 z m 1,1 h 3.785156 v 0.195312 h -3.785156 z m 13.835937,0.955078 -1.152343,0.669922 c -2.678942,1.555876 -5.537697,2.774934 -8.517579,3.634765 v -0.002 c -3.173288,0.902348 -6.44125,1.409834 -9.734375,1.515625 l -1.312499,0.04102 1.007812,0.841797 c 2.17049,1.810406 4.91714,2.8125 7.765625,2.8125 3.226002,0 6.320432,-1.283701 8.603516,-3.560547 v -0.002 h 0.002 c 1.328038,-1.331781 2.317898,-2.939513 2.910156,-4.689454 z m -1.964843,2.193359 C 33.441221,29.95514 32.783392,31.007077 31.896484,31.896484 29.80005,33.987192 26.960367,35.166016 24,35.166016 c -2.110885,0 -4.084447,-0.738252 -5.84375,-1.84375 2.834968,-0.200189 5.652393,-0.625105 8.392578,-1.404297 2.585733,-0.746101 5.057316,-1.812571 7.429688,-3.072266 z"
     id="path7" />
</svg>
