<?xml version="1.0" encoding="UTF-8" standalone="no"?>
<!-- Generator: Gravit.io -->

<svg
   style="isolation:isolate"
   viewBox="0 0 48 48"
   width="48pt"
   height="48pt"
   version="1.1"
   id="svg34"
   sodipodi:docname="com.github.hugolabe.Wike.svg"
   inkscape:version="1.1.2 (0a00cf5339, 2022-02-04)"
   xmlns:inkscape="http://www.inkscape.org/namespaces/inkscape"
   xmlns:sodipodi="http://sodipodi.sourceforge.net/DTD/sodipodi-0.dtd"
   xmlns:xlink="http://www.w3.org/1999/xlink"
   xmlns="http://www.w3.org/2000/svg"
   xmlns:svg="http://www.w3.org/2000/svg">
  <defs
     id="defs38">
    <linearGradient
       inkscape:collect="always"
       xlink:href="#_lgradient_11"
       id="linearGradient15"
       x1="-9.6850061"
       y1="45.161198"
       x2="11.98815"
       y2="21.735205"
       gradientUnits="userSpaceOnUse"
       gradientTransform="matrix(1.1147442,0,0,1.1150348,-0.01237238,-3.3277956)" />
    <linearGradient
       id="_lgradient_1"
       x1="0"
       y1="0.5"
       x2="1"
       y2="0.5"
       gradientTransform="matrix(48,0,0,46.985,0.495,0.559)"
       gradientUnits="userSpaceOnUse">
      <stop
         offset="0%"
         stop-opacity="1"
         style="stop-color:rgb(255,229,59)"
         id="stop2-7" />
      <stop
         offset="98.69565217391305%"
         stop-opacity="1"
         style="stop-color:rgb(255,0,91)"
         id="stop4-5" />
    </linearGradient>
    <linearGradient
       inkscape:collect="always"
       xlink:href="#_lgradient_11"
       id="linearGradient872"
       x1="-12.025727"
       y1="6.1170783"
       x2="-0.085100174"
       y2="6.1170783"
       gradientUnits="userSpaceOnUse"
       gradientTransform="matrix(3.8358211,0,0,3.8371386,-0.00544341,-0.00268054)" />
    <linearGradient
       inkscape:collect="always"
       xlink:href="#_lgradient_13"
       id="linearGradient851"
       x1="17.086609"
       y1="17.28301"
       x2="30.913391"
       y2="17.28301"
       gradientUnits="userSpaceOnUse"
       gradientTransform="matrix(0.91319733,0,0,0.91319733,2.083264,1.5002114)" />
  </defs>
  <sodipodi:namedview
     id="namedview36"
     pagecolor="#ffffff"
     bordercolor="#666666"
     borderopacity="1.0"
     inkscape:pageshadow="2"
     inkscape:pageopacity="0.0"
     inkscape:pagecheckerboard="0"
     inkscape:document-units="pt"
     showgrid="false"
     height="48pt"
     inkscape:zoom="5.4193106"
     inkscape:cx="35.428861"
     inkscape:cy="22.235301"
     inkscape:window-width="1085"
     inkscape:window-height="545"
     inkscape:window-x="323"
     inkscape:window-y="64"
     inkscape:window-maximized="0"
     inkscape:current-layer="svg34" />
  <linearGradient
     id="_lgradient_11"
     x1="0.75809151"
     y1="-0.055020079"
     x2="0.53627235"
     y2="0.94377512"
     gradientTransform="matrix(25.809995,0,0,17.931725,11.095002,15.164746)"
     gradientUnits="userSpaceOnUse">
    <stop
       offset="0%"
       stop-opacity="1"
       style="stop-color:rgb(0,2,255)"
       id="stop2" />
    <stop
       offset="100%"
       stop-opacity="1"
       style="stop-color:rgb(255,0,44)"
       id="stop4" />
  </linearGradient>
  <rect
     x="-46.783188"
     y="1.2253767"
     height="45.80014"
     rx="6.1837621"
     shape-rendering="crispEdges"
     id="rect5-6-7-3"
     ry="6.8055277"
     transform="matrix(0.00524063,-0.99998627,0.99998801,0.00489691,0,0)"
     style="isolation:isolate;fill:#ff00c8;fill-opacity:0.13470298;stroke:url(#linearGradient872);stroke-width:2.0301;stroke-miterlimit:4;stroke-dasharray:none;stroke-opacity:1"
     width="45.801998" />
  <rect
     x="-15.686804"
     y="17.260084"
     height="33.345856"
     rx="6.7920032"
     shape-rendering="crispEdges"
     id="rect5-6-6-6-6"
     style="isolation:isolate;fill:#ff00c8;fill-opacity:0.13470298;stroke:url(#linearGradient15);stroke-width:1.67233;stroke-miterlimit:4;stroke-dasharray:none;stroke-opacity:1"
     ry="7.4743071"
     transform="matrix(0.72446484,-0.68931175,0.68622417,0.72739012,0,0)"
     width="33.338203" />
  <path
     d="m 30.358937,25.76528 0.02166,0.921786 H 29.72452 c -1.592154,0.0424 -3.080607,0.298889 -4.36719,0.756095 v -0.818315 c 1.2852,-0.538092 2.775036,-0.859566 4.36719,-0.859566 h 0.634419 v 0 0 z m 3.780703,-5.530712 v 0.921785 h -4.148035 q -0.272617,0.01153 -0.801953,0.08111 l 0.371249,-0.983315 q 0.285754,-0.01959 0.430704,-0.01959 z m 0,-1.843572 v 0.921786 h -4.148035 c -1.008202,0.04239 -1.008202,-0.921786 0,-0.921786 z m 0,3.687143 v 0.921785 h -4.148035 c -1.008202,0.0424 -1.950729,0.298889 -2.765356,0.756094 v -0.818314 c 0.549845,-0.363645 1.158915,-0.628197 1.807161,-0.761625 0.311102,-0.06407 0.631191,-0.09794 0.958195,-0.09794 z m -3.74844,1.84357 0.01083,0.921787 h -1.531776 c -1.280822,0.04239 -2.477991,0.298888 -3.512926,0.756094 v -0.818315 c 1.033783,-0.538093 2.232104,-0.859566 3.512926,-0.859566 z m 0.983084,0 h 2.765356 v 2.765357 H 31.374284 Z M 13.86036,25.995727 v 0.921786 h 5.810244 c 1.038391,0.03411 2.020092,0.214315 2.905236,0.528414 v -0.860488 c -0.885144,-0.372862 -1.866845,-0.589712 -2.905236,-0.589712 z m 0,-5.761159 v 0.921785 h 4.608926 c 0.823616,0.03411 1.602293,0.214315 2.304464,0.528414 V 20.82428 c -0.702171,-0.372863 -1.480848,-0.589712 -2.304464,-0.589712 z m 0,1.843571 v 0.921785 h 4.608926 c 0.823616,0.03411 1.602293,0.214315 2.304464,0.528413 Q 20.161685,22.37841 19.837216,22.280931 c -0.437156,-0.131354 -0.895054,-0.202792 -1.36793,-0.202792 z m 0,1.84357 v 0.921787 h 5.588554 c 0.998755,0.03411 1.942893,0.214314 2.794162,0.528413 V 24.511421 C 21.391807,24.13856 20.447669,23.921709 19.448914,23.921709 Z m 0,-5.530713 v 0.921786 h 4.608926 c 0.823616,0.03411 0.823616,-0.921786 0,-0.921786 z M 12.016788,29.193862 V 17.699658 c 0,-0.428631 0.170531,-0.838825 0.472414,-1.140711 0.301887,-0.301884 0.71208,-0.472415 1.14071,-0.472415 h 3.456696 0.460892 v -0.921785 h -0.460892 -3.456696 c -0.672903,0 -1.318152,0.267318 -1.792872,0.742037 -0.474719,0.47472 -0.742037,1.11997 -0.742037,1.792874 v 13.938319 0.378162 l 0.921785,1.080333 v -0.648246 0 -2.176796 c 0.04379,0.01729 0.08918,0.03111 0.135963,0.04056 0.182052,0.04148 0.368714,0.06222 0.555375,0.06222 h 5.530714 c 0.571507,0 1.138405,0.07605 1.689172,0.225838 0.573811,0.156703 1.129187,0.373323 1.656909,0.645249 0.352584,0.177443 0.68673,0.389455 0.997833,0.633727 0.297276,0.228143 0.553072,0.506984 0.758169,0.82039 0.08526,0.131354 0.230446,0.209706 0.38715,0.209706 h 0.502373 c 0.182052,0 0.347974,-0.108309 0.421717,-0.276535 0.07374,-0.165922 0.168226,-0.320321 0.283449,-0.460894 0.126746,-0.154398 0.267318,-0.292667 0.421716,-0.417107 0.334148,-0.269623 0.702861,-0.495461 1.094621,-0.670599 0.357192,-0.165922 0.723602,-0.304189 1.099229,-0.414804 0.140573,-0.04379 0.281145,-0.08066 0.421717,-0.115222 0.08527,-0.01843 0.168226,-0.03688 0.253491,-0.0507 0.292667,-0.04148 0.585334,-0.07144 0.880306,-0.08988 0.294971,-0.02535 0.589943,-0.03687 0.887218,-0.03917 h 4.837069 c 0.177445,0 0.354888,-0.01382 0.532331,-0.04148 0.149792,-0.02535 0.297276,-0.06453 0.440153,-0.119833 0.06084,-0.02281 0.120755,-0.04747 0.179749,-0.07374 v 2.309073 0.359727 L 36.904997,32.21916 V 32.038264 17.69966 c 0,-0.672904 -0.267318,-1.318154 -0.742037,-1.792874 -0.47472,-0.474719 -1.11997,-0.742037 -1.792873,-0.742037 h -3.456696 -0.460893 v 0.921785 h 0.460893 v 0 h 3.456696 c 0.42863,0 0.838824,0.170531 1.14071,0.472415 0.301884,0.301886 0.472415,0.71208 0.472415,1.140711 v 11.392808 c -0.056,0.03526 -0.112689,0.06914 -0.170531,0.101852 -0.10831,0.05991 -0.221228,0.112918 -0.338756,0.156704 -0.08296,0.03226 -0.170531,0.05761 -0.2581,0.07144 -0.126746,0.02074 -0.255795,0.02996 -0.384846,0.02996 h -4.839374 c 0,0 -0.0023,0 -0.0023,0 -0.318017,0.0023 -0.633729,0.01613 -0.949439,0.04148 -0.318017,0.02074 -0.636033,0.053 -0.94944,0.09909 -0.112919,0.01613 -0.223533,0.03917 -0.331842,0.06682 -0.159009,0.03688 -0.315712,0.07835 -0.470112,0.12444 -0.417107,0.124441 -0.824998,0.278841 -1.219061,0.460893 -0.463197,0.209707 -0.896437,0.47472 -1.2905,0.790432 -0.202792,0.163617 -0.389455,0.347973 -0.555376,0.550766 -0.09909,0.122137 -0.188966,0.248882 -0.267317,0.384845 -0.230447,-0.308798 -0.502373,-0.585333 -0.808867,-0.820388 -0.357192,-0.281145 -0.739733,-0.523114 -1.145319,-0.72821 -0.583029,-0.299581 -1.19832,-0.539246 -1.829744,-0.71208 -0.631423,-0.17053 -1.281282,-0.258101 -1.933445,-0.258101 H 12.70815 c -0.119832,0 -0.23736,-0.01382 -0.354887,-0.03917 -0.0023,0 -0.0046,-0.0023 -0.0092,-0.0023 -0.02305,-0.01153 -0.0484,-0.02305 -0.07144,-0.03687 -0.02074,-0.01153 -0.04379,-0.02535 -0.06222,-0.03917 -0.03227,-0.02074 -0.06222,-0.04148 -0.09218,-0.06222 -0.03433,-0.02558 -0.06821,-0.05185 -0.101394,-0.07882 z"
     fill-rule="evenodd"
     fill="url(#_lgradient_11)"
     id="path7"
     style="fill:url(#_lgradient_11);stroke-width:0.230446" />
  <linearGradient
     id="_lgradient_12"
     x1="-0.069791667"
     y1="0.16197917"
     x2="1.0520834"
     y2="0.78697914"
     gradientTransform="matrix(13.826783,0,0,13.826783,17.086608,10.555819)"
     gradientUnits="userSpaceOnUse">
    <stop
       offset="0%"
       stop-opacity="1"
       style="stop-color:rgb(198,42,255)"
       id="stop9" />
    <stop
       offset="48.333333333333336%"
       stop-opacity="1"
       style="stop-color:rgb(14,207,252)"
       id="stop11" />
    <stop
       offset="99.58333333333333%"
       stop-opacity="1"
       style="stop-color:rgb(64,255,196)"
       id="stop13" />
    <stop
       offset="100%"
       stop-opacity="1"
       style="stop-color:rgb(0,0,0)"
       id="stop15" />
  </linearGradient>
  <path
     d="m 17.086608,17.469211 c 0,-3.815501 3.097891,-6.913391 6.913392,-6.913391 3.8155,0 6.913391,3.09789 6.913391,6.913391 0,3.815501 -3.097891,6.913391 -6.913391,6.913391 -3.815501,0 -6.913392,-3.09789 -6.913392,-6.913391 z m 0.921786,0 c 0,-1.587776 0.631423,-3.113331 1.756001,-4.235604 1.122273,-1.124578 2.647828,-1.756002 4.235606,-1.756002 1.587774,0 3.11333,0.631424 4.235604,1.756002 1.124577,1.122273 1.756002,2.647828 1.756002,4.235604 0,1.587775 -0.631425,3.11333 -1.756002,4.235605 -1.122274,1.124577 -2.64783,1.756 -4.235604,1.756 -1.587778,0 -3.113332,-0.631423 -4.235606,-1.756 -1.124578,-1.122275 -1.756001,-2.64783 -1.756001,-4.235605 z"
     fill-rule="evenodd"
     fill="url(#_lgradient_12)"
     id="path18"
     style="fill:url(#_lgradient_12);stroke-width:0.230446" />
  <linearGradient
     id="_lgradient_13"
     x1="0.031182563"
     y1="0.10866628"
     x2="0.95837951"
     y2="0.97519469"
     gradientTransform="matrix(13.826783,0,0,9.5367933,17.086608,12.514613)"
     gradientUnits="userSpaceOnUse">
    <stop
       offset="0%"
       stop-opacity="1"
       style="stop-color:rgb(165,248,106)"
       id="stop20" />
    <stop
       offset="97.91666666666666%"
       stop-opacity="1"
       style="stop-color:rgb(47,206,146)"
       id="stop22" />
  </linearGradient>
  <path
     style="color:#000000;fill:url(#linearGradient851);fill-rule:evenodd;-inkscape-stroke:none"
     d="m 19.384766,12.427734 -0.146485,0.142579 c -1.265394,1.236565 -2.050781,2.966006 -2.050781,4.873046 0,1.734963 0.651313,3.324705 1.720703,4.527344 l 0.148438,0.166016 h 3.339843 c 0.751214,0 1.371094,-0.619879 1.371094,-1.371094 0,-0.751214 -0.620025,-1.369141 -1.371094,-1.369141 h -2.037109 c -0.211352,0 -0.371094,-0.159925 -0.371094,-0.371093 0,-0.211497 0.159743,-0.371094 0.371094,-0.371094 h 2.037109 c 0.751651,0 1.371094,-0.620248 1.371094,-1.371094 0,-0.751214 -0.61988,-1.371094 -1.371094,-1.371094 h -1.632812 c -0.210915,0 -0.371094,-0.16091 -0.371094,-0.371093 0,-0.211497 0.159595,-0.371094 0.371094,-0.371094 h 2.441406 c 0.751651,0 1.371094,-0.620303 1.371094,-1.371094 0,-0.750976 -0.619881,-1.371094 -1.371094,-1.371094 z m 0.455078,1 h 3.365234 c 0.211354,0 0.371094,0.159923 0.371094,0.371094 0,0.21051 -0.16018,0.371094 -0.371094,0.371094 h -2.441406 c -0.751069,0 -1.371094,0.620026 -1.371094,1.371094 0,0.750699 0.619442,1.371093 1.371094,1.371093 h 1.632812 c 0.21135,0 0.371094,0.159746 0.371094,0.371094 0,0.210037 -0.160179,0.371094 -0.371094,0.371094 h -2.037109 c -0.751214,0 -1.371094,0.620025 -1.371094,1.371094 0,0.750976 0.61988,1.371093 1.371094,1.371093 h 2.037109 c 0.211497,0 0.371094,0.157792 0.371094,0.369141 0,0.211352 -0.159742,0.371094 -0.371094,0.371094 h -2.845703 c -0.836565,-1.00699 -1.363281,-2.279214 -1.363281,-3.69336 0,-1.570221 0.643171,-2.96964 1.652344,-4.015625 z m 6.017578,0.333985 c -0.751651,0 -1.371094,0.619972 -1.371094,1.371094 0,0.750938 0.619444,1.371093 1.371094,1.371093 h 2.037109 c 0.21051,0 0.369141,0.160179 0.369141,0.371094 0,0.209928 -0.159069,0.371094 -0.369141,0.371094 h -2.037109 c -0.751213,0 -1.371094,0.619878 -1.371094,1.371093 0,0.750845 0.619443,1.371094 1.371094,1.371094 h 4.474609 l 0.115235,-0.33789 c 0.237272,-0.692504 0.365234,-1.435841 0.365234,-2.207032 0,-1.249872 -0.337242,-2.425445 -0.925781,-3.433593 l -0.144532,-0.248047 z m 0,1 h 3.230469 c 0.426249,0.808758 0.724609,1.702523 0.724609,2.68164 0,0.541704 -0.115757,1.048774 -0.253906,1.544922 h -3.701172 c -0.210912,0 -0.371094,-0.161059 -0.371094,-0.371094 0,-0.211353 0.159743,-0.371093 0.371094,-0.371093 h 2.037109 c 0.751229,0 1.369141,-0.619719 1.369141,-1.371094 0,-0.751652 -0.61835,-1.371094 -1.369141,-1.371094 h -2.037109 c -0.210913,0 -0.371094,-0.160726 -0.371094,-0.371093 0,-0.211022 0.160182,-0.371094 0.371094,-0.371094 z"
     id="path25" />
  <linearGradient
     id="_lgradient_14"
     x1="0.93643749"
     y1="1.025815"
     x2="0.020874999"
     y2="0.11025252"
     gradientTransform="matrix(25.870833,0,0,4.6089277,11.064592,31.987333)"
     gradientUnits="userSpaceOnUse">
    <stop
       offset="19%"
       stop-opacity="1"
       style="stop-color:rgb(255,171,0)"
       id="stop27" />
    <stop
       offset="83%"
       stop-opacity="1"
       style="stop-color:rgb(255,0,76)"
       id="stop29" />
  </linearGradient>
  <path
     d="m 36.587682,32.314567 0.315712,-0.327233 c 0.08228,0.567819 0.0099,1.062357 -0.261327,1.458494 -0.135502,0.09079 -0.275844,0.173987 -0.420794,0.249112 -0.341062,0.177444 -0.709776,0.299581 -1.087708,0.359497 -0.02535,0.0046 -0.04839,0.007 -0.07374,0.007 h -5.957039 c -0.331843,0.0507 -0.656772,0.126746 -0.974787,0.232752 -0.329539,0.108309 -0.642947,0.253491 -0.937917,0.433238 -0.294972,0.182054 -0.56229,0.403282 -0.795041,0.659078 -0.244272,0.276535 -0.444761,0.589942 -0.589943,0.931002 -0.07374,0.168227 -0.239664,0.278841 -0.424021,0.278841 H 22.57424 c -0.159008,0 -0.308798,-0.08296 -0.391759,-0.218924 -0.193579,-0.308833 -0.410198,-0.6015 -0.649863,-0.875732 -0.21201,-0.237358 -0.447066,-0.451674 -0.700556,-0.638335 C 20.578571,34.679 20.308947,34.522296 20.023195,34.393246 19.723614,34.259587 19.414817,34.148973 19.0968,34.061403 h -6.620725 c -0.03456,0 -0.06683,-0.0046 -0.101395,-0.01153 -0.138268,-0.02996 -0.269622,-0.07836 -0.396367,-0.140581 -0.159008,-0.07835 -0.311103,-0.168226 -0.45398,-0.269621 -0.393833,-0.440384 -0.532792,-0.98585 -0.424021,-1.643083 l 0.322624,0.329538 c 0.115223,0.119832 0.23736,0.235055 0.361801,0.343366 0.08757,0.07835 0.179748,0.152094 0.276536,0.218923 0.101394,0.07374 0.209707,0.138267 0.322625,0.193575 0.0484,0.02535 0.09678,0.04379 0.14979,0.05761 h 6.625335 c 0.03917,0 0.08065,0.0046 0.117527,0.01613 0.384845,0.101394 0.760473,0.235056 1.124578,0.396368 0.343365,0.154399 0.670599,0.345669 0.974788,0.566898 0.308798,0.228142 0.592247,0.486242 0.845738,0.7743 0.218924,0.246578 0.419413,0.506982 0.60377,0.781214 h 2.262983 c 0.168227,-0.32493 0.375628,-0.629119 0.619901,-0.90335 0.292667,-0.322626 0.629119,-0.601465 1.000138,-0.829608 0.354887,-0.21662 0.735123,-0.391758 1.129187,-0.523113 0.380237,-0.124441 0.76969,-0.21662 1.163754,-0.274231 0.02305,-0.0023 0.04379,-0.0046 0.06682,-0.0046 h 5.95243 c 0.269623,-0.04609 0.532332,-0.133659 0.7743,-0.260404 0.288058,-0.152095 0.555376,-0.341061 0.792737,-0.564594 z"
     fill="url(#_lgradient_14)"
     id="path32"
     style="fill:url(#_lgradient_14);stroke-width:0.230446" />
</svg>
