<?xml version="1.0" encoding="UTF-8" standalone="no"?>
<!-- Generator: Gravit.io -->

<svg
   style="isolation:isolate"
   viewBox="0 0 48 48"
   width="48"
   height="48"
   version="1.1"
   id="svg34"
   sodipodi:docname="com.gexperts.Terminix.svg"
   inkscape:version="1.1.2 (0a00cf5339, 2022-02-04)"
   xmlns:inkscape="http://www.inkscape.org/namespaces/inkscape"
   xmlns:sodipodi="http://sodipodi.sourceforge.net/DTD/sodipodi-0.dtd"
   xmlns:xlink="http://www.w3.org/1999/xlink"
   xmlns="http://www.w3.org/2000/svg"
   xmlns:svg="http://www.w3.org/2000/svg">
  <sodipodi:namedview
     id="namedview36"
     pagecolor="#ffffff"
     bordercolor="#666666"
     borderopacity="1.0"
     inkscape:pageshadow="2"
     inkscape:pageopacity="0.0"
     inkscape:pagecheckerboard="0"
     showgrid="false"
     inkscape:zoom="6.8125"
     inkscape:cx="24.073394"
     inkscape:cy="24"
     inkscape:window-width="1225"
     inkscape:window-height="545"
     inkscape:window-x="206"
     inkscape:window-y="67"
     inkscape:window-maximized="0"
     inkscape:current-layer="svg34" />
  <defs
     id="defs5">
    <clipPath
       id="_clipPath_sWJf5PPI9nMkaTYBsuLtZbgui8RQyleM">
      <rect
         width="48"
         height="48"
         id="rect2" />
    </clipPath>
    <linearGradient
       inkscape:collect="always"
       xlink:href="#_lgradient_5"
       id="linearGradient15"
       x1="-9.6850061"
       y1="45.161198"
       x2="11.98815"
       y2="21.735205"
       gradientUnits="userSpaceOnUse"
       gradientTransform="matrix(1.1186139,0,0,1.1193575,0.11096372,-3.4672936)" />
    <linearGradient
       id="_lgradient_1"
       x1="0"
       y1="0.5"
       x2="1"
       y2="0.5"
       gradientTransform="matrix(48,0,0,46.985,0.495,0.559)"
       gradientUnits="userSpaceOnUse">
      <stop
         offset="0%"
         stop-opacity="1"
         style="stop-color:rgb(255,229,59)"
         id="stop2" />
      <stop
         offset="98.69565217391305%"
         stop-opacity="1"
         style="stop-color:rgb(255,0,91)"
         id="stop4" />
    </linearGradient>
    <linearGradient
       inkscape:collect="always"
       xlink:href="#_lgradient_5"
       id="linearGradient872"
       x1="-12.025727"
       y1="6.1170783"
       x2="-0.085100174"
       y2="6.1170783"
       gradientUnits="userSpaceOnUse"
       gradientTransform="matrix(3.8642358,0,0,3.8367339,0.17231623,-0.00106924)" />
    <linearGradient
       inkscape:collect="always"
       xlink:href="#_lgradient_5"
       id="linearGradient903"
       x1="6.1839199"
       y1="27.456914"
       x2="34.482739"
       y2="27.456914"
       gradientTransform="matrix(0.7252642,0,0,0.49528998,9.5916476,9.803994)"
       gradientUnits="userSpaceOnUse" />
    <linearGradient
       id="_lgradient_3"
       x1="0.45249999"
       y1="-0.076875001"
       x2="0.43687499"
       y2="1.016875"
       gradientTransform="matrix(0,-28.768626,28.768626,0,9.5556868,38.854313)"
       gradientUnits="userSpaceOnUse">
      <stop
         offset="0%"
         stop-opacity="1"
         style="stop-color:rgb(198,255,221)"
         id="stop7" />
      <stop
         offset="50%"
         stop-opacity="1"
         style="stop-color:rgb(251,215,134)"
         id="stop9" />
      <stop
         offset="100%"
         stop-opacity="1"
         style="stop-color:rgb(247,121,125)"
         id="stop11" />
    </linearGradient>
    <linearGradient
       id="_lgradient_4"
       x1="9.5045692e-07"
       y1="0.5"
       x2="1"
       y2="0.5"
       gradientTransform="matrix(12.567095,0,0,8.2020552,17.656452,20.668346)"
       gradientUnits="userSpaceOnUse">
      <stop
         offset="0%"
         stop-opacity="1"
         style="stop-color:rgb(198,255,221)"
         id="stop16" />
      <stop
         offset="50%"
         stop-opacity="1"
         style="stop-color:rgb(251,215,134)"
         id="stop18" />
      <stop
         offset="100%"
         stop-opacity="1"
         style="stop-color:rgb(247,121,125)"
         id="stop20" />
    </linearGradient>
    <linearGradient
       id="_lgradient_5"
       x1="-0.21651411"
       y1="0.35467064"
       x2="1.2744377"
       y2="0.35467064">
      <stop
         offset="0%"
         stop-opacity="1"
         style="stop-color:rgb(198,255,221)"
         id="stop23" />
      <stop
         offset="50%"
         stop-opacity="1"
         style="stop-color:rgb(251,215,134)"
         id="stop25" />
      <stop
         offset="100%"
         stop-opacity="1"
         style="stop-color:rgb(247,121,125)"
         id="stop27" />
    </linearGradient>
    <linearGradient
       inkscape:collect="always"
       xlink:href="#_lgradient_5"
       id="linearGradient925"
       x1="9.555687"
       y1="24.469999"
       x2="38.324314"
       y2="24.469999"
       gradientUnits="userSpaceOnUse" />
  </defs>
  <rect
     x="-46.951942"
     y="1.2268585"
     height="45.795311"
     rx="6.2295699"
     shape-rendering="crispEdges"
     id="rect5-6-7-3"
     ry="6.80481"
     transform="matrix(0.00520155,-0.99998647,0.99998783,0.00493371,0,0)"
     style="isolation:isolate;fill:#ffcf00;fill-opacity:0.13470298;stroke:url(#linearGradient872);stroke-width:2.0375;stroke-miterlimit:4;stroke-dasharray:none;stroke-opacity:1"
     width="46.141289" />
  <rect
     x="-15.61788"
     y="17.200401"
     height="33.475128"
     rx="6.8155808"
     shape-rendering="crispEdges"
     id="rect5-6-6-6-6"
     style="isolation:isolate;fill:#ffcf00;fill-opacity:0.13470298;stroke:url(#linearGradient15);stroke-width:1.67847;stroke-miterlimit:4;stroke-dasharray:none;stroke-opacity:1"
     ry="7.503283"
     transform="matrix(0.72188233,-0.69201582,0.6835019,0.72994873,0,0)"
     width="33.453934" />
  <path
     style="color:#000000;fill:url(#linearGradient925);-inkscape-stroke:none"
     d="m 23.939453,9.5859375 c -3.944438,0 -7.732624,1.5685615 -10.523437,4.3593755 -2.790814,2.790813 -4.3593754,6.580952 -4.3593754,10.52539 0,3.950224 1.5681004,7.738367 4.3593754,10.523438 2.790813,2.790813 6.578999,4.359375 10.523437,4.359375 3.944439,0 7.734577,-1.568562 10.525391,-4.359375 2.791274,-2.785071 4.359375,-6.573214 4.359375,-10.523438 0,-2.883732 -0.836931,-5.706418 -2.41211,-8.125 v -0.002 h -0.002 c -0.512592,-0.7786 -1.572573,-1.000982 -2.353515,-0.492187 -0.781458,0.50913 -1.001641,1.572504 -0.490235,2.353515 1.211715,1.867017 1.861328,4.044083 1.861328,6.265625 0,3.050072 -1.213293,5.973059 -3.367187,8.126953 -2.15358,2.153581 -5.076636,3.359375 -8.121094,3.359375 -3.044457,0 -5.967513,-1.205794 -8.121094,-3.359375 -2.153894,-2.153894 -3.365234,-5.076881 -3.365234,-8.126953 0,-3.043828 1.21134,-5.967199 3.365234,-8.121094 2.153895,-2.153894 5.077266,-3.367187 8.121094,-3.367187 1.63679,0 3.256545,0.351499 4.75,1.029297 0.848029,0.38685 1.86338,0.0051 2.248047,-0.84375 0.38462,-0.848702 0.0042,-1.861252 -0.84375,-2.248047 h -0.002 C 28.156723,10.039215 26.060366,9.5859375 23.939453,9.5859375 Z m 0,1.0000005 c 1.978613,0 3.933437,0.422704 5.738281,1.24414 0.355577,0.162205 0.510393,0.570998 0.34961,0.925781 -0.160739,0.354685 -0.568372,0.507854 -0.923828,0.345704 -1.623144,-0.736657 -3.384582,-1.119141 -5.164063,-1.119141 -3.309237,0 -6.486926,1.318957 -8.828125,3.660156 -2.341199,2.341199 -3.658203,5.518888 -3.658203,8.828125 0,3.31498 1.317004,6.492785 3.658203,8.833984 2.341513,2.341514 5.519517,3.652344 8.828125,3.652344 3.308608,0 6.486612,-1.31083 8.828125,-3.652344 2.341199,-2.341199 3.660156,-5.519004 3.660156,-8.833984 0,-2.416798 -0.70654,-4.784104 -2.023437,-6.8125 -0.216199,-0.330176 -0.126917,-0.756268 0.199219,-0.96875 0.32602,-0.212407 0.755275,-0.12193 0.970703,0.203125 4.15e-4,6.27e-4 0.0015,-6.28e-4 0.002,0 1.468575,2.255828 2.248047,4.888814 2.248047,7.578125 0,3.685441 -1.463568,7.219353 -4.066407,9.816406 -2.603299,2.6033 -6.139119,4.066407 -9.818359,4.066407 -3.67924,0 -7.213107,-1.463107 -9.816406,-4.066407 -2.602839,-2.597053 -4.066406,-6.130965 -4.066406,-9.816406 0,-3.67924 1.463107,-7.21506 4.066406,-9.818359 2.603299,-2.6033 6.137166,-4.066407 9.816406,-4.066406 z"
     id="path14" />
  <path
     style="color:#000000;vector-effect:non-scaling-stroke;fill:url(#linearGradient903);fill-rule:evenodd;stroke-linecap:round;stroke-linejoin:round;-inkscape-stroke:none"
     d="m 18.787109,20.167969 c -0.440754,0.0069 -0.832513,0.295672 -0.970703,0.714843 -0.138174,0.419138 0.0055,0.882183 0.355469,1.150391 l -0.0078,-0.0039 3.089844,2.445312 -3.673828,3.019532 c -0.305516,0.224813 -0.464709,0.601316 -0.414062,0.976562 0.05065,0.376452 0.303633,0.696902 0.658203,0.832031 0.354629,0.13586 0.756464,0.0651 1.044922,-0.179687 l 4.695312,-3.839844 c 0.250647,-0.197266 0.394531,-0.498858 0.394531,-0.816406 0,-0.317552 -0.145887,-0.619559 -0.394531,-0.816406 l -4.103516,-3.248047 c -4.91e-4,-4e-4 -0.0015,3.98e-4 -0.002,0 -0.189466,-0.153299 -0.425712,-0.237831 -0.669922,-0.234375 a 0.50005,0.50005 0 0 0 -0.002,0 z m 0.01563,1 c 0.0093,-1.32e-4 0.01928,0.0032 0.02734,0.0098 a 0.50005,0.50005 0 0 0 0.0039,0.0039 l 4.111328,3.253906 c 0.01027,0.0081 0.01367,0.01916 0.01367,0.03125 0,0.01209 -0.0054,0.02279 -0.01367,0.0293 a 0.50005,0.50005 0 0 0 -0.0078,0.0059 l -4.708984,3.853516 a 0.50005,0.50005 0 0 0 -0.0059,0.0059 c -0.01241,0.01054 -0.02645,0.01144 -0.04102,0.0059 -0.01343,-0.0051 -0.0233,-0.01573 -0.02539,-0.03125 -0.0021,-0.01553 0.0035,-0.02818 0.01563,-0.03711 a 0.50005,0.50005 0 0 0 0.02148,-0.01563 l 4.173828,-3.429687 a 0.50005,0.50005 0 0 0 -0.0059,-0.779297 l -3.576172,-2.830078 a 0.50005,0.50005 0 0 0 -0.0059,-0.0039 c -0.01447,-0.01109 -0.01934,-0.02773 -0.01367,-0.04492 0.0057,-0.01715 0.01757,-0.02704 0.03711,-0.02734 z m 5.916016,5.523437 c -0.568164,0 -1.041016,0.472854 -1.041016,1.041016 0,0.568219 0.472854,1.039062 1.041016,1.039062 h 4.964844 c 0.568162,0 1.039062,-0.470843 1.039062,-1.039062 0,-0.568162 -0.470899,-1.041016 -1.039062,-1.041016 z m 0,1 h 4.964844 c 0.02759,0 0.03906,0.01343 0.03906,0.04102 0,0.02873 -0.01148,0.03906 -0.03906,0.03906 H 24.71875 c -0.02759,0 -0.04102,-0.01033 -0.04102,-0.03906 0,-0.02759 0.01343,-0.04102 0.04102,-0.04102 z"
     id="path30" />
</svg>
