<?xml version="1.0" encoding="UTF-8" standalone="no"?>
<!-- Generator: Gravit.io -->

<svg
   style="isolation:isolate"
   viewBox="0 0 48 48"
   width="48pt"
   height="48pt"
   version="1.1"
   id="svg11"
   sodipodi:docname="computerjanitor.svg"
   inkscape:version="1.1.2 (0a00cf5339, 2022-02-04)"
   xmlns:inkscape="http://www.inkscape.org/namespaces/inkscape"
   xmlns:sodipodi="http://sodipodi.sourceforge.net/DTD/sodipodi-0.dtd"
   xmlns:xlink="http://www.w3.org/1999/xlink"
   xmlns="http://www.w3.org/2000/svg"
   xmlns:svg="http://www.w3.org/2000/svg">
  <defs
     id="defs15">
    <linearGradient
       inkscape:collect="always"
       xlink:href="#_lgradient_11"
       id="linearGradient15"
       x1="-9.6850061"
       y1="45.161198"
       x2="11.98815"
       y2="21.735205"
       gradientUnits="userSpaceOnUse"
       gradientTransform="matrix(1.1147442,0,0,1.1150348,-0.01237238,-3.3277956)" />
    <linearGradient
       id="_lgradient_79"
       x1="0"
       y1="0.5"
       x2="1"
       y2="0.5"
       gradientTransform="matrix(28.821737,0,0,21.900217,9.5891307,15.236125)"
       gradientUnits="userSpaceOnUse">
      <stop
         offset="0%"
         stop-opacity="1"
         style="stop-color:rgb(84,51,255)"
         id="stop2-3" />
      <stop
         offset="51.73913043478261%"
         stop-opacity="1"
         style="stop-color:rgb(32,189,255)"
         id="stop4-6" />
      <stop
         offset="98.26086956521739%"
         stop-opacity="1"
         style="stop-color:rgb(165,254,203)"
         id="stop6-7" />
    </linearGradient>
    <linearGradient
       inkscape:collect="always"
       xlink:href="#_lgradient_11"
       id="linearGradient872"
       x1="-12.025727"
       y1="6.1170783"
       x2="-0.085100174"
       y2="6.1170783"
       gradientUnits="userSpaceOnUse"
       gradientTransform="matrix(3.8358211,0,0,3.8371386,-0.00544341,-0.00268054)" />
    <linearGradient
       inkscape:collect="always"
       xlink:href="#_lgradient_11"
       id="linearGradient937"
       x1="8.6301918"
       y1="26.245522"
       x2="34.7896"
       y2="26.245522"
       gradientUnits="userSpaceOnUse"
       gradientTransform="matrix(0.93586738,0,0,0.93586738,1.3922297,1.6832135)" />
  </defs>
  <sodipodi:namedview
     id="namedview13"
     pagecolor="#ffffff"
     bordercolor="#666666"
     borderopacity="1.0"
     inkscape:pageshadow="2"
     inkscape:pageopacity="0.0"
     inkscape:pagecheckerboard="0"
     inkscape:document-units="pt"
     showgrid="false"
     inkscape:zoom="20.4375"
     inkscape:cx="32.024465"
     inkscape:cy="41.712538"
     inkscape:window-width="1056"
     inkscape:window-height="545"
     inkscape:window-x="294"
     inkscape:window-y="95"
     inkscape:window-maximized="0"
     inkscape:current-layer="svg11" />
  <linearGradient
     id="_lgradient_11"
     x1="0.2893015651461575"
     y1="0.8690220826283802"
     x2="0.6838606973409057"
     y2="-0.15859796534918902"
     gradientTransform="matrix(31.295356,22.382012,-22.840886,31.936752,17.482278,-0.9142603)"
     gradientUnits="userSpaceOnUse">
    <stop
       offset="0%"
       stop-opacity="1"
       style="stop-color:rgb(249,212,35)"
       id="stop2" />
    <stop
       offset="51.56237565086822%"
       stop-opacity="1"
       style="stop-color:rgb(255,78,80)"
       id="stop4" />
    <stop
       offset="99.1304347826087%"
       stop-opacity="1"
       style="stop-color:rgb(138,35,135)"
       id="stop6" />
  </linearGradient>
  <rect
     x="-46.783188"
     y="1.2253767"
     height="45.80014"
     rx="6.1837621"
     shape-rendering="crispEdges"
     id="rect5-6-7-3"
     ry="6.8055277"
     transform="matrix(0.00524063,-0.99998627,0.99998801,0.00489691,0,0)"
     style="isolation:isolate;fill:#ffb400;fill-opacity:0.13470298;stroke:url(#linearGradient872);stroke-width:2.0301;stroke-miterlimit:4;stroke-dasharray:none;stroke-opacity:1"
     width="45.801998" />
  <rect
     x="-15.686804"
     y="17.260084"
     height="33.345856"
     rx="6.7920032"
     shape-rendering="crispEdges"
     id="rect5-6-6-6-6"
     style="isolation:isolate;fill:#ffb400;fill-opacity:0.13470298;stroke:url(#linearGradient15);stroke-width:1.67233;stroke-miterlimit:4;stroke-dasharray:none;stroke-opacity:1"
     ry="7.4743071"
     transform="matrix(0.72446484,-0.68931175,0.68622417,0.72739012,0,0)"
     width="33.338203" />
  <path
     style="color:#000000;fill:url(#linearGradient937);fill-rule:evenodd;-inkscape-stroke:none"
     d="m 30.945312,11.955078 c -0.761698,0.126522 -1.474753,0.542974 -1.957031,1.216797 l -1.279297,1.787109 v 0.002 c -0.443819,0.62117 -0.293988,1.474268 0.294922,1.947265 -0.637904,-0.404868 -1.495057,-0.269531 -1.939453,0.351563 -0.44382,0.62117 -0.293988,1.474268 0.294922,1.947265 -0.637901,-0.404848 -1.495063,-0.269523 -1.939453,0.351563 l -3.181641,4.449218 -0.855469,-0.613281 C 19.619118,22.849079 18.547279,22.79253 17.730469,23.255905 l -7.560547,4.289063 c -0.7096905,0.402806 -1.1631674,1.025269 -1.1992189,1.71289 -0.036051,0.687622 0.3497059,1.35511 1.0136719,1.830079 l 12.580078,8.998046 c 0.664036,0.474665 1.41958,0.623639 2.058594,0.367188 0.639013,-0.256451 1.082521,-0.885755 1.234375,-1.6875 l 1.615234,-8.542969 c 0.175253,-0.922729 -0.224701,-1.918849 -0.988281,-2.464844 l -0.34375,-0.246093 c 2.581025,-3.61251 5.165103,-7.222845 7.748047,-10.833985 0.963875,-1.348418 0.650381,-3.238569 -0.697266,-4.203125 v -0.002 c -0.674209,-0.481937 -1.484395,-0.644099 -2.246094,-0.517578 z m 0.16211,0.980469 c 0.507389,-0.08429 1.047816,0.02694 1.501953,0.351562 0.907843,0.649774 1.116049,1.900319 0.466797,2.808594 -3.036642,4.11202 -8.30659,11.568112 -8.30659,11.568112 l 0.789012,0.662357 0.34375,0.246094 c 0.363563,0.259964 0.671266,1.02586 0.58789,1.464843 L 24.875,38.578125 c -0.106175,0.56057 -0.355052,0.838929 -0.625,0.947266 -0.269948,0.108336 -0.639205,0.07799 -1.103516,-0.253907 v 0.002 L 10.566406,30.275391 C 10.102026,29.943195 9.9554799,29.600905 9.9707031,29.310547 9.9859264,29.020189 10.167818,28.695721 10.664063,28.414062 L 18.224609,24.125 c 0.389244,-0.220817 1.210843,-0.177577 1.576172,0.08203 l 1.669922,1.195313 c 1.250835,-1.756096 2.507284,-3.508192 3.761719,-5.261719 0.145164,-0.202884 0.414584,-0.248479 0.617187,-0.103516 0.203001,0.145042 0.248531,0.414514 0.103516,0.617188 -1.254941,1.753631 -2.507353,3.509074 -3.763672,5.261719 0.611448,0.438242 1.223839,0.875167 1.835938,1.3125 2.657555,-3.710373 5.310323,-7.424174 7.964843,-11.136719 0.241253,-0.336892 0.399296,-0.691436 0.455078,-1.042969 0.05578,-0.351533 0.0099,-0.784781 -0.351562,-1.042969 -0.361188,-0.257991 -0.785027,-0.160374 -1.099609,0.0059 -0.314583,0.166233 -0.598703,0.43084 -0.839844,0.767578 l -0.914063,1.277344 c -0.145475,0.201247 -0.413255,0.24604 -0.615234,0.101523 -0.203257,-0.145225 -0.249063,-0.413479 -0.103516,-0.617187 l 1.279297,-1.78711 c 0.324887,-0.453921 0.799251,-0.734068 1.306641,-0.818359 z m 0.34375,1.970703 c -0.02638,0.151132 -0.114672,0.381811 -0.273438,0.603516 -2.462884,3.440478 -4.920558,6.884688 -7.384765,10.324218 l -0.208985,-0.148437 3.181641,-4.449219 c 0.444334,-0.621006 0.294223,-1.474088 -0.294922,-1.947266 0.637902,0.404848 1.495063,0.269523 1.939453,-0.351562 0.444334,-0.621007 0.294224,-1.474088 -0.294922,-1.947266 0.637902,0.404849 1.495063,0.269524 1.939453,-0.351562 l 0.914063,-1.277344 c 0.159129,-0.222213 0.347758,-0.381427 0.482422,-0.455078 z m -3.957031,2.832031 c 0.203,0.145042 0.248531,0.414512 0.103515,0.617188 -0.145164,0.202883 -0.414584,0.248478 -0.617187,0.103515 -0.202633,-0.144779 -0.247454,-0.41371 -0.103516,-0.617187 0.145165,-0.202884 0.414584,-0.248479 0.617188,-0.103516 z m -8.496094,6.982422 -6.457031,3.605469 c -0.409593,0.228591 -0.705652,0.613351 -0.730469,1.05664 -0.02482,0.44329 0.227863,0.857945 0.609375,1.13086 l 1.525391,1.091797 0.472656,-0.664063 1.828125,-2.554687 c 0.144983,-0.20263 0.414768,-0.246395 0.617187,-0.101563 0.20263,0.144983 0.246395,0.414768 0.101563,0.617188 l -1.826172,2.554687 -0.474609,0.66211 2.347656,1.677734 0.472656,-0.662109 0.730469,-1.021485 c 0.145164,-0.202883 0.414586,-0.248478 0.617187,-0.103515 0.203002,0.145041 0.246577,0.414513 0.101563,0.617187 l -0.730469,1.021484 -0.472656,0.66211 0.40625,0.291015 1.939453,1.388672 0.474609,-0.662109 1.826172,-2.556641 c 0.145165,-0.202884 0.414586,-0.246525 0.617188,-0.101562 0.203002,0.145043 0.24853,0.414513 0.103515,0.617187 h -0.002 l -1.826172,2.554688 -0.472656,0.662109 1.525391,1.091797 c 0.381654,0.273017 0.85613,0.377737 1.267578,0.210938 0.411448,-0.1668 0.677886,-0.571713 0.761718,-1.033204 l 1.324219,-7.27539 z m -0.06641,1.181641 5.648437,4.039062 -0.498047,2.732422 c -0.08338,-0.311324 -0.226149,-0.616031 -0.505859,-0.816406 -0.643056,-0.460111 -1.551812,-0.30879 -2.011719,0.333984 L 19.845703,34.59375 19.125,34.080078 19.748047,33.208984 c 0.460059,-0.642983 0.309875,-1.551689 -0.333985,-2.011718 -0.643055,-0.460111 -1.551811,-0.30879 -2.011718,0.333984 l -0.623047,0.871094 -0.71875,-0.515625 1.71875,-2.402344 c 0.460239,-0.643238 0.309044,-1.553581 -0.333985,-2.013672 -0.280206,-0.200489 -0.615497,-0.236531 -0.9375,-0.214844 z m -3.5625,1.990234 L 13.71484,30.208984 13,29.699219 C 12.817336,29.56855 12.806195,29.480343 12.808594,29.4375 c 0.0024,-0.04284 0.02462,-0.12885 0.220703,-0.238281 z m 8.478515,6.0625 -0.480469,2.638672 c -0.04007,0.22057 -0.114346,0.26896 -0.154296,0.285156 -0.03995,0.0162 -0.126077,0.03291 -0.308594,-0.09766 L 22.191402,36.27148 Z"
     id="path9"
     sodipodi:nodetypes="scccccccccccsccscccccccssscccccccscccsccccccccccssccccccsccccccscccccscccccsccccsccccccccccccccccccccsccccccccccccccccscccccsccccsccc" />
</svg>
