<?xml version="1.0" encoding="UTF-8" standalone="no"?>
<!-- Generator: Gravit.io -->

<svg
   style="isolation:isolate"
   viewBox="0 0 48 48"
   width="48pt"
   height="48pt"
   version="1.1"
   id="svg9"
   sodipodi:docname="conky.svg"
   inkscape:version="1.1.2 (0a00cf5339, 2022-02-04)"
   xmlns:inkscape="http://www.inkscape.org/namespaces/inkscape"
   xmlns:sodipodi="http://sodipodi.sourceforge.net/DTD/sodipodi-0.dtd"
   xmlns:xlink="http://www.w3.org/1999/xlink"
   xmlns="http://www.w3.org/2000/svg"
   xmlns:svg="http://www.w3.org/2000/svg">
  <defs
     id="defs13">
    <linearGradient
       inkscape:collect="always"
       xlink:href="#_lgradient_9"
       id="linearGradient15"
       x1="-9.6850061"
       y1="45.161198"
       x2="11.98815"
       y2="21.735205"
       gradientUnits="userSpaceOnUse"
       gradientTransform="matrix(1.1147442,0,0,1.1150348,-0.01237238,-3.3277956)" />
    <linearGradient
       id="_lgradient_79"
       x1="0"
       y1="0.5"
       x2="1"
       y2="0.5"
       gradientTransform="matrix(28.821737,0,0,21.900217,9.5891307,15.236125)"
       gradientUnits="userSpaceOnUse">
      <stop
         offset="0%"
         stop-opacity="1"
         style="stop-color:rgb(84,51,255)"
         id="stop2-3" />
      <stop
         offset="51.73913043478261%"
         stop-opacity="1"
         style="stop-color:rgb(32,189,255)"
         id="stop4-6" />
      <stop
         offset="98.26086956521739%"
         stop-opacity="1"
         style="stop-color:rgb(165,254,203)"
         id="stop6" />
    </linearGradient>
    <linearGradient
       inkscape:collect="always"
       xlink:href="#_lgradient_9"
       id="linearGradient872"
       x1="-12.025727"
       y1="6.1170783"
       x2="-0.085100174"
       y2="6.1170783"
       gradientUnits="userSpaceOnUse"
       gradientTransform="matrix(3.8358211,0,0,3.8371386,-0.00544341,-0.00268054)" />
    <linearGradient
       inkscape:collect="always"
       xlink:href="#_lgradient_9"
       id="linearGradient1061"
       x1="10.589725"
       y1="26.309977"
       x2="37.410229"
       y2="26.309977"
       gradientUnits="userSpaceOnUse" />
  </defs>
  <sodipodi:namedview
     id="namedview11"
     pagecolor="#ffffff"
     bordercolor="#666666"
     borderopacity="1.0"
     inkscape:pageshadow="2"
     inkscape:pageopacity="0.0"
     inkscape:pagecheckerboard="0"
     inkscape:document-units="pt"
     showgrid="false"
     inkscape:zoom="3.6128737"
     inkscape:cx="31.969011"
     inkscape:cy="31.969011"
     inkscape:window-width="1056"
     inkscape:window-height="545"
     inkscape:window-x="240"
     inkscape:window-y="116"
     inkscape:window-maximized="0"
     inkscape:current-layer="svg9" />
  <linearGradient
     id="_lgradient_9"
     x1="-0.000038208333333289435"
     y1="0.5000000833333331"
     x2="0.9999618333333335"
     y2="0.5000000833333331"
     gradientTransform="matrix(26.820551,0,0,25.543436,10.589725,13.538167)"
     gradientUnits="userSpaceOnUse">
    <stop
       offset="0%"
       stop-opacity="1"
       style="stop-color:rgb(211,0,220)"
       id="stop2" />
    <stop
       offset="100%"
       stop-opacity="1"
       style="stop-color:rgb(135,0,255)"
       id="stop4" />
  </linearGradient>
  <rect
     x="-46.783188"
     y="1.2253767"
     height="45.80014"
     rx="6.1837621"
     shape-rendering="crispEdges"
     id="rect5-6-7-3"
     ry="6.8055277"
     transform="matrix(0.00524063,-0.99998627,0.99998801,0.00489691,0,0)"
     style="isolation:isolate;fill:#fe00ff;fill-opacity:0.13470298;stroke:url(#linearGradient872);stroke-width:2.0301;stroke-miterlimit:4;stroke-dasharray:none;stroke-opacity:1"
     width="45.801998" />
  <rect
     x="-15.686804"
     y="17.260084"
     height="33.345856"
     rx="6.7920032"
     shape-rendering="crispEdges"
     id="rect5-6-6-6-6"
     style="isolation:isolate;fill:#fe00ff;fill-opacity:0.13470298;stroke:url(#linearGradient15);stroke-width:1.67233;stroke-miterlimit:4;stroke-dasharray:none;stroke-opacity:1"
     ry="7.4743071"
     transform="matrix(0.72446484,-0.68931175,0.68622417,0.72739012,0,0)"
     width="33.338203" />
  <path
     style="color:#000000;fill:url(#linearGradient1061);fill-rule:evenodd;-inkscape-stroke:none"
     d="m 16.923828,13.039063 c -1.766683,0 -3.451143,0.653684 -4.74414,1.871093 h -0.002 c -1.377633,1.302647 -2.08789,3.144988 -2.08789,5.007813 v 0.287109 2.615234 3.195313 0.498047 c 0.0034,0.845468 0.02538,1.736462 0.330078,2.630859 0.326063,0.971382 0.86522,1.857483 1.5625,2.59375 0.211284,0.224296 0.439089,0.435755 0.675781,0.626953 0.74045,0.59865 1.611956,1.042908 2.56836,1.267578 0.806907,0.190044 1.574496,0.195313 2.324218,0.195313 h 4.033203 v 0.173828 c -1.22073,0.368024 -2.275062,0.99665 -3.1875,1.878906 -0.852023,0.824565 -0.899875,2.274902 0.01367,3.095703 h 0.002 v 0.002 c 0.469686,0.417977 1.072332,0.629447 1.671875,0.601562 0.50928,-0.02355 1.021595,-0.226189 1.423828,-0.615234 l 0.002,-0.002 c 0.109277,-0.106747 0.222956,-0.206904 0.33789,-0.300782 0.05186,-0.03488 0.101017,-0.06976 0.134766,-0.0918 0.193077,-0.125598 0.393659,-0.233778 0.609375,-0.335937 0.288531,-0.104971 0.588761,-0.183395 0.890625,-0.236328 0.178032,-0.01557 0.332446,-0.0245 0.509765,-0.02148 H 24 h 0.0078 c 0.17738,-0.003 0.331762,0.0059 0.509766,0.02148 0.30187,0.05294 0.602096,0.131358 0.890625,0.236328 0.215716,0.102159 0.416298,0.210339 0.609375,0.335937 0.03376,0.02205 0.08289,0.05691 0.134766,0.0918 0.114934,0.09388 0.228613,0.194035 0.33789,0.300782 l 0.002,0.002 c 0.402235,0.389045 0.914551,0.591683 1.423829,0.615234 0.599538,0.02788 1.202187,-0.183584 1.671875,-0.601562 v -0.002 h 0.002 c 0.913547,-0.820801 0.865695,-2.271138 0.01367,-3.095703 -0.912438,-0.882256 -1.96677,-1.510882 -3.1875,-1.878906 v -0.173828 h 3.667968 c 0.219843,0 0.45471,0.0059 0.699219,0.0059 h 0.166016 c 0.156819,0 0.309769,-0.0039 0.464843,-0.01172 1.430805,-0.07015 2.804336,-0.584455 3.914063,-1.453125 0.230855,-0.177361 0.449555,-0.372575 0.654297,-0.582032 0.411439,-0.418204 0.774325,-0.895896 1.064453,-1.427734 0.510065,-0.922861 0.81648,-1.767008 0.851562,-2.861328 0.0035,-0.0687 0.0039,-0.131974 0.0039,-0.181641 0.01,-1.102104 -0.853551,-2.086844 -1.980469,-2.169922 l -0.01758,-0.002 h -0.01953 c -0.02343,0 -0.08308,-0.0051 -0.179688,0.002 -0.03246,0.0012 -0.07678,0.002 -0.03906,0.002 h -0.01953 l -0.01953,0.002 c -0.532052,0.04178 -1.018382,0.267275 -1.382812,0.61914 l -0.002,0.002 c -0.351959,0.342498 -0.493122,0.778637 -0.583984,1.138672 h 0.002 c -0.0422,0.165071 -0.06641,0.339313 -0.06641,0.521485 0,0.107637 -0.007,0.216718 -0.01563,0.330078 -0.0072,0.03886 -0.0079,0.04669 -0.02539,0.07813 -0.01889,0.03397 -0.07971,0.144224 -0.132812,0.273437 -0.08223,0.171741 -0.173652,0.335662 -0.273438,0.486328 l -0.002,0.002 -0.002,0.0039 c -0.01472,0.0229 -0.03081,0.04505 -0.04687,0.06836 -0.07534,0.08856 -0.146552,0.16999 -0.21875,0.242188 -0.07385,0.07128 -0.154943,0.142777 -0.240234,0.21875 -0.02424,0.01714 -0.04823,0.03528 -0.06641,0.04687 l -0.0039,0.002 -0.002,0.002 c -0.1483,0.09759 -0.306881,0.183561 -0.470703,0.263672 -0.203698,0.07179 -0.411302,0.129705 -0.623047,0.169922 -0.189904,0.01456 -0.381012,0.02148 -0.578125,0.02148 H 30.71875 c -0.276091,0 -0.556967,-0.0078 -0.84375,-0.0078 H 18.417969 c -0.36395,0 -0.717168,0.01563 -1.060547,0.01563 h -0.144531 -0.02148 c -0.23178,0 -0.459615,-0.0073 -0.679687,-0.02539 -0.214954,-0.0407 -0.425728,-0.100376 -0.634766,-0.173828 -0.160206,-0.07823 -0.315422,-0.163198 -0.46289,-0.259766 -0.02467,-0.01753 -0.04804,-0.03304 -0.07031,-0.04883 -0.08945,-0.07934 -0.172394,-0.153042 -0.238281,-0.21875 l -0.002,-0.002 c -0.06909,-0.06966 -0.138722,-0.148146 -0.212891,-0.232422 -0.01781,-0.02555 -0.03544,-0.04902 -0.04883,-0.07031 l -0.002,-0.0059 -0.0039,-0.0039 c -0.09332,-0.140908 -0.176086,-0.295448 -0.25586,-0.457031 -0.07491,-0.211305 -0.134013,-0.425753 -0.177734,-0.648438 -0.02516,-0.259917 -0.03575,-0.527966 -0.03906,-0.806641 v -0.0059 -0.002 -0.002 c -0.0071,-0.589741 0.02539,-1.330291 0.02539,-1.949219 v -4.183594 -0.43164 -0.02539 -0.0059 c -0.0032,-0.133552 -0.0032,-0.264886 0,-0.398438 v -0.0078 -0.01367 -0.01367 c 0.0029,-0.104147 0.0067,-0.201507 0.01367,-0.292969 0.04412,-0.222112 0.103589,-0.434486 0.179687,-0.644531 0.0766,-0.157276 0.161607,-0.307813 0.257813,-0.457031 0.01652,-0.02394 0.03363,-0.0478 0.05078,-0.07227 0.08119,-0.08973 0.155016,-0.174144 0.21875,-0.238281 l 0.002,-0.0039 0.0039,-0.002 c 0.06853,-0.07157 0.146344,-0.142894 0.234375,-0.21875 0.02214,-0.01559 0.04591,-0.03013 0.07227,-0.04883 0.143444,-0.0961 0.295069,-0.180321 0.453125,-0.257812 0.207236,-0.07557 0.418982,-0.13537 0.634766,-0.175781 0.204422,-0.0152 0.414237,-0.02148 0.626953,-0.02148 h 0.126953 0.0039 c 0.272563,0 0.555567,0.0059 0.841797,0.0059 h 11.466797 c 0.363406,0 0.716874,-0.01367 1.05664,-0.01367 h 0.166016 c 0.234032,0.0032 0.461523,0.01121 0.683594,0.0293 0.216878,0.04058 0.433424,0.100833 0.638672,0.175781 0.15822,0.07886 0.313579,0.164321 0.453125,0.257812 l 0.0039,0.002 0.0039,0.002 c 0.02387,0.01534 0.04725,0.03312 0.07227,0.05078 0.08872,0.07867 0.171592,0.149698 0.236328,0.214844 l 0.0059,0.0039 0.0039,0.0039 c 0.06559,0.06311 0.133851,0.140743 0.207031,0.226563 0.02116,0.03183 0.04171,0.06483 0.06055,0.0918 0.09226,0.140668 0.17351,0.292711 0.251953,0.455079 0.07655,0.206009 0.134642,0.42395 0.179687,0.654296 4.76e-4,0.0093 0.0055,0.02764 0.0078,0.04102 v 0.0039 0.002 c 1.6e-5,0.002 0.0019,0.0038 0.002,0.0059 0.0035,0.01691 -0.0012,0.01502 0.0078,0.04492 0.0074,0.02469 0.05035,0.114497 0.05078,0.115234 2e-5,3.4e-5 0.0065,0.0081 0.0078,0.0098 0.0413,0.523643 0.181215,1.071803 0.570313,1.472656 0.339106,0.350876 0.802332,0.596796 1.324218,0.632812 0.04517,0.004 0.08957,0.0059 0.109375,0.0059 h 0.07813 0.0293 0.01367 c 1.072653,-0.05951 2.025805,-0.873203 2.103516,-1.998047 0.0055,-0.06807 0.0059,-0.123098 0.0059,-0.162109 v -0.002 -0.002 c -0.01969,-2.35596 -1.275,-4.315974 -3.248047,-5.535156 C 33.4991,13.302937 32.185501,13.039063 30.884766,13.039063 H 18.611328 Z m 0,1 h 1.6875 12.273438 c 1.164986,0 2.281193,0.234054 3.251953,0.830078 1.733891,1.071403 2.756611,2.680426 2.773437,4.693359 -1.01e-4,0.03591 -0.0012,0.06739 -0.002,0.07617 v 0.0039 0.0039 c -0.03992,0.597201 -0.549429,1.036324 -1.162109,1.070313 h -0.06641 c -0.02511,0 -0.01867,2.18e-4 -0.0059,0.002 l -0.01563,-0.0039 h -0.01758 C 35.3929,20.698353 35.150866,20.575292 34.964844,20.382812 34.795319,20.208499 34.609722,19.718754 34.607422,19.421875 v -0.0332 -0.0078 c -0.0012,-0.03602 0.003,-0.04133 -0.0078,-0.111328 -0.0016,-0.01054 -0.0081,-0.031 -0.01367,-0.05273 l -0.0059,-0.02539 c -6.14e-4,-0.0031 -0.0013,-0.0066 -0.002,-0.0098 -5e-6,-1.7e-5 -0.0018,-0.0036 -0.002,-0.0039 -0.0536,-0.271379 -0.123515,-0.549595 -0.228516,-0.826172 l -0.0078,-0.01953 -0.0078,-0.01758 c -0.09698,-0.20256 -0.206282,-0.404799 -0.33789,-0.603516 l -0.002,-0.0059 -0.0039,-0.0059 c -0.02368,-0.03391 -0.04595,-0.06387 -0.06641,-0.0957 l -0.01758,-0.02734 -0.02148,-0.02539 c -0.08425,-0.09936 -0.174633,-0.205163 -0.28125,-0.308594 l -0.0039,-0.0039 c -0.107871,-0.108113 -0.213657,-0.195874 -0.300781,-0.273437 l -0.01953,-0.01758 -0.02148,-0.01563 c -0.0388,-0.02772 -0.08292,-0.05777 -0.132812,-0.08984 -0.194783,-0.129882 -0.393989,-0.239838 -0.589844,-0.335938 l -0.02344,-0.01172 -0.02344,-0.0098 c -0.273895,-0.101513 -0.558005,-0.176691 -0.841797,-0.228516 l -0.02344,-0.0039 -0.02344,-0.002 c -0.270853,-0.02329 -0.535404,-0.03168 -0.792969,-0.03516 h -0.0039 -0.167969 c -0.366698,0 -0.720429,0.01367 -1.05664,0.01367 H 18.109375 c -0.268442,0 -0.551698,-0.0059 -0.841797,-0.0059 h -0.0039 -0.126953 c -0.245083,0 -0.491759,0.0078 -0.738282,0.02734 l -0.02539,0.002 -0.02539,0.0039 c -0.284692,0.05199 -0.565374,0.127752 -0.83789,0.228516 l -0.02149,0.0098 -0.02148,0.0098 c -0.206331,0.09939 -0.407392,0.211709 -0.601563,0.341797 l -0.0059,0.0039 -0.0059,0.0059 c -0.03109,0.0222 -0.06854,0.04701 -0.109375,0.07617 l -0.01758,0.01172 -0.01758,0.01563 c -0.100677,0.08647 -0.20787,0.181571 -0.316406,0.294922 -0.105063,0.106449 -0.191805,0.206264 -0.267578,0.289063 l -0.02148,0.02539 -0.01758,0.02539 c -0.02627,0.03736 -0.05359,0.07476 -0.08008,0.113281 l -0.0039,0.0059 -0.0039,0.0059 c -0.121714,0.18878 -0.233736,0.385682 -0.333984,0.595703 l -0.0098,0.02148 -0.0078,0.02148 c -0.09968,0.271921 -0.17554,0.548588 -0.230468,0.830078 l -0.0039,0.02539 -0.0039,0.02734 c -0.01255,0.142404 -0.01609,0.277718 -0.01953,0.402344 v 0.0078 0.02734 c -0.0033,0.145568 -0.0035,0.29191 0,0.4375 v 0.0059 0.43164 4.183594 c 0,0.582859 -0.03306,1.326064 -0.02539,1.960938 v 0.0039 c 0.0035,0.305665 0.01566,0.612866 0.04687,0.923828 l -0.0039,-0.05078 v 0.05273 l 0.0098,0.04687 c 0.05478,0.284486 0.129097,0.564235 0.228515,0.839844 l 0.0098,0.02539 0.01172,0.02344 c 0.09454,0.19387 0.201436,0.39046 0.330078,0.585937 8.86e-4,0.0014 0.0011,0.0025 0.002,0.0039 0.0013,0.002 0.0026,0.0038 0.0039,0.0059 0.03048,0.04784 0.05956,0.09026 0.08399,0.125 l 0.01563,0.02148 0.01758,0.02148 c 0.08274,0.09416 0.173083,0.195862 0.277343,0.300781 v 0.002 c 0.108812,0.108811 0.214427,0.196774 0.302735,0.275391 l 0.01953,0.01758 0.02148,0.01563 c 0.03879,0.02771 0.07627,0.05253 0.109375,0.07617 l 0.0078,0.0059 0.0078,0.0059 c 0.197586,0.129386 0.400381,0.241354 0.605469,0.339843 l 0.02539,0.01172 0.02344,0.0098 c 0.267851,0.09553 0.544079,0.170153 0.828125,0.222656 l 0.02344,0.0059 0.02344,0.002 c 0.268141,0.02339 0.534869,0.03125 0.796875,0.03125 h 0.02148 0.144531 c 0.371074,0 0.724879,-0.01563 1.060547,-0.01563 H 29.875 c 0.269031,0 0.550334,0.0078 0.84375,0.0078 h 0.173828 c 0.230959,0 0.461341,-0.0084 0.693359,-0.02734 l 0.02539,-0.002 0.02344,-0.0039 c 0.2841,-0.05263 0.559403,-0.12945 0.824218,-0.22461 l 0.02539,-0.0098 0.02344,-0.01172 c 0.203557,-0.09838 0.406694,-0.209036 0.605469,-0.339844 0.05027,-0.03234 0.09259,-0.0625 0.13086,-0.08984 l 0.02148,-0.01563 0.02148,-0.01758 c 0.09358,-0.08331 0.192781,-0.17251 0.292969,-0.269531 l 0.002,-0.002 0.002,-0.0039 c 0.105077,-0.105077 0.198566,-0.210379 0.285157,-0.3125 l 0.01563,-0.01758 0.01367,-0.01953 c 0.02534,-0.03628 0.05274,-0.0758 0.08203,-0.121093 0.130756,-0.197429 0.241749,-0.402534 0.339843,-0.607422 l 0.01172,-0.02148 0.0078,-0.02344 c 0.03063,-0.08374 0.03928,-0.08995 0.08594,-0.173828 0.04665,-0.08388 0.109435,-0.234692 0.140625,-0.40625 l 0.0059,-0.02344 0.002,-0.02539 c 0.01164,-0.143371 0.01953,-0.288448 0.01953,-0.439453 0,-0.09402 0.01229,-0.183998 0.03516,-0.273438 v -0.002 c 0.06093,-0.24143 0.237943,-0.597317 0.310547,-0.667969 0.198069,-0.190419 0.470004,-0.318585 0.765625,-0.341797 -0.0026,-5.33e-4 0.03553,-0.002 0.01758,-0.002 h 0.03711 l 0.01758,-0.002 c -0.0021,1.52e-4 0.03913,0.0016 0.07422,0.002 0.544118,0.04186 1.055615,0.6273 1.050782,1.16211 v 0.002 0.002 c 0,0.05421 2.82e-4,0.102736 -0.002,0.140625 v 0.0078 0.0059 c -0.02997,0.934909 -0.257064,1.557157 -0.728516,2.410156 v 0.002 l -0.002,0.002 c -0.24264,0.445273 -0.548932,0.849794 -0.900391,1.207031 h -0.002 c -0.175741,0.179938 -0.360235,0.344589 -0.552734,0.492188 l -0.002,0.002 -0.002,0.002 c -0.94461,0.73942 -2.122987,1.182239 -3.345703,1.242188 -0.140521,0.007 -0.277239,0.0098 -0.416015,0.0098 h -0.166016 c -0.223424,0 -0.457977,-0.0059 -0.699219,-0.0059 h -4.667968 v 1.902344 l 0.384765,0.0918 c 1.213397,0.287744 2.188592,0.888905 3.107422,1.777343 0.422364,0.408752 0.447717,1.239089 0.01367,1.63086 -0.276722,0.246257 -0.626081,0.36509 -0.958984,0.349609 -0.280502,-0.01297 -0.551052,-0.117001 -0.775391,-0.333984 -0.133914,-0.130813 -0.271343,-0.253221 -0.414063,-0.369141 l -0.01953,-0.01563 -0.02148,-0.01563 c -0.04194,-0.02739 -0.09807,-0.06763 -0.167969,-0.113281 h -0.002 c -0.246311,-0.160228 -0.496846,-0.294737 -0.755859,-0.416016 l -0.01953,-0.0098 -0.01953,-0.0078 c -0.357242,-0.131092 -0.72699,-0.229106 -1.099609,-0.292969 l -0.01953,-0.002 -0.01953,-0.002 c -0.210768,-0.01911 -0.40852,-0.02842 -0.621094,-0.02539 h -0.01563 c -0.212632,-0.003 -0.410357,0.0063 -0.621093,0.02539 l -0.01953,0.002 -0.01953,0.002 c -0.372624,0.06386 -0.742369,0.161878 -1.099609,0.292969 l -0.01953,0.0078 -0.01953,0.0098 c -0.259013,0.121279 -0.509548,0.255788 -0.755859,0.416016 h -0.002 c -0.06992,0.04566 -0.126028,0.08589 -0.167969,0.113281 l -0.02148,0.01563 -0.01953,0.01563 c -0.142719,0.11592 -0.280148,0.238328 -0.414062,0.369141 -0.22434,0.216984 -0.494891,0.321014 -0.775391,0.333984 -0.332897,0.01548 -0.682261,-0.103351 -0.958984,-0.349609 -0.434045,-0.391771 -0.408692,-1.222108 0.01367,-1.63086 0.91883,-0.888438 1.894025,-1.489599 3.107422,-1.777343 l 0.384765,-0.0918 v -1.902344 h -0.5 -4.533203 c -0.743096,0 -1.422675,-0.01187 -2.09375,-0.169922 h -0.002 C 14.652742,32.469724 13.91736,32.097444 13.287109,31.587891 13.084402,31.424145 12.886882,31.241588 12.708984,31.052734 12.109786,30.420335 11.64592,29.655685 11.367188,28.824219 v -0.002 h -0.002 c -0.242932,-0.713099 -0.271985,-1.483657 -0.27539,-2.310547 v -0.002 -0.494141 -3.195313 -2.615234 -0.287109 c 0,-1.607866 0.615916,-3.184888 1.77539,-4.28125 1.108296,-1.043505 2.537196,-1.597656 4.058594,-1.597656 z m 5.435547,4.353515 v 0.5 9.951172 h 3.28125 V 18.392578 Z m 11.638672,0.460938 c -9e-6,1e-6 0.01071,-5.8e-5 0.01172,0 -0.0401,0.01463 -0.16694,0.0619 -0.173829,0.06445 -1.83e-4,1.14e-4 0.162302,-0.06449 0.16211,-0.06445 z m 0.248047,0.01367 c 4.55e-4,2.4e-5 0.0078,2e-6 0.0078,0 -1.2e-5,-4e-6 0.01031,0.007 0.01172,0.0078 -0.0089,-0.0036 -0.01254,-0.005 -0.01953,-0.0078 z m 0.171875,0.09961 c 0.0065,0.0039 0.02737,0.01565 0.02734,0.01563 -1.25e-4,-1.21e-4 0.02498,0.03238 0.04883,0.0625 -0.02674,-0.0272 -0.04388,-0.04532 -0.07617,-0.07813 z m -11.058594,0.425781 h 1.28125 v 8.451172 h -1.28125 z m 10.263672,0.07813 c 8.05e-4,0.03319 0.03503,0.06037 0.03711,0.09375 -0.01346,-0.02897 -0.02938,-0.06276 -0.0293,-0.0625 1.08e-4,3.19e-4 -0.0044,-0.01814 -0.0078,-0.03125 z m 0.189453,0.267578 c 0.03156,0.01898 0.04137,0.02636 0.07227,0.04492 -0.01954,-0.008 -0.0469,-0.01955 -0.04687,-0.01953 2.2e-5,1.4e-5 -0.01878,-0.01867 -0.02539,-0.02539 z m 0.166016,0.08203 c 0.04782,0.0027 0.174572,0.0082 0.203125,0.0098 -0.0018,6.45e-4 -0.01368,0.0059 -0.01367,0.0059 7.6e-5,-9e-6 -0.169997,-0.0078 -0.169922,-0.0078 9e-6,2e-6 -0.01536,-0.0061 -0.01953,-0.0078 z m -16.347657,1.78711 v 0.5 6.736328 h 3.283203 v -7.236328 z m 1,1 h 1.283203 v 5.236328 h -1.283203 z m 8.455078,1.28125 v 0.5 4.455078 h 3.283204 v -4.955078 z m 1,1 h 1.283204 v 2.955078 h -1.283204 z"
     id="path7" />
</svg>
