<?xml version="1.0" encoding="UTF-8" standalone="no"?>
<!-- Generator: Gravit.io -->

<svg
   style="isolation:isolate"
   viewBox="0 0 48 48"
   width="48pt"
   height="48pt"
   version="1.1"
   id="svg9"
   sodipodi:docname="copyq.svg"
   inkscape:version="1.1.2 (0a00cf5339, 2022-02-04)"
   xmlns:inkscape="http://www.inkscape.org/namespaces/inkscape"
   xmlns:sodipodi="http://sodipodi.sourceforge.net/DTD/sodipodi-0.dtd"
   xmlns:xlink="http://www.w3.org/1999/xlink"
   xmlns="http://www.w3.org/2000/svg"
   xmlns:svg="http://www.w3.org/2000/svg">
  <defs
     id="defs13">
    <linearGradient
       inkscape:collect="always"
       xlink:href="#_lgradient_73"
       id="linearGradient15"
       x1="-9.6850061"
       y1="45.161198"
       x2="11.98815"
       y2="21.735205"
       gradientUnits="userSpaceOnUse"
       gradientTransform="matrix(1.1147442,0,0,1.1150348,-0.01237238,-3.3277956)" />
    <linearGradient
       id="_lgradient_79"
       x1="0"
       y1="0.5"
       x2="1"
       y2="0.5"
       gradientTransform="matrix(28.821737,0,0,21.900217,9.5891307,15.236125)"
       gradientUnits="userSpaceOnUse">
      <stop
         offset="0%"
         stop-opacity="1"
         style="stop-color:rgb(84,51,255)"
         id="stop2-3" />
      <stop
         offset="51.73913043478261%"
         stop-opacity="1"
         style="stop-color:rgb(32,189,255)"
         id="stop4-6" />
      <stop
         offset="98.26086956521739%"
         stop-opacity="1"
         style="stop-color:rgb(165,254,203)"
         id="stop6" />
    </linearGradient>
    <linearGradient
       inkscape:collect="always"
       xlink:href="#_lgradient_73"
       id="linearGradient872"
       x1="-12.025727"
       y1="6.1170783"
       x2="-0.085100174"
       y2="6.1170783"
       gradientUnits="userSpaceOnUse"
       gradientTransform="matrix(3.8358211,0,0,3.8371386,-0.00544341,-0.00268054)" />
    <linearGradient
       inkscape:collect="always"
       xlink:href="#_lgradient_73"
       id="linearGradient917"
       x1="11.499993"
       y1="23.135376"
       x2="36.500008"
       y2="23.135376"
       gradientUnits="userSpaceOnUse" />
  </defs>
  <sodipodi:namedview
     id="namedview11"
     pagecolor="#ffffff"
     bordercolor="#666666"
     borderopacity="1.0"
     inkscape:pageshadow="2"
     inkscape:pageopacity="0.0"
     inkscape:pagecheckerboard="0"
     inkscape:document-units="pt"
     showgrid="false"
     inkscape:zoom="5.109375"
     inkscape:cx="32"
     inkscape:cy="20.256881"
     inkscape:window-width="1056"
     inkscape:window-height="545"
     inkscape:window-x="318"
     inkscape:window-y="71"
     inkscape:window-maximized="0"
     inkscape:current-layer="svg9" />
  <linearGradient
     id="_lgradient_73"
     x1="0.6718099850460906"
     y1="0.020570018975650584"
     x2="0.4221494918345081"
     y2="0.9601645064179158"
     gradientTransform="matrix(25.000019,0,0,25.482162,11.499993,10.394428)"
     gradientUnits="userSpaceOnUse">
    <stop
       offset="0%"
       stop-opacity="1"
       style="stop-color:rgb(26,108,255)"
       id="stop2" />
    <stop
       offset="100%"
       stop-opacity="1"
       style="stop-color:rgb(197,34,255)"
       id="stop4" />
  </linearGradient>
  <rect
     x="-46.783188"
     y="1.2253767"
     height="45.80014"
     rx="6.1837621"
     shape-rendering="crispEdges"
     id="rect5-6-7-3"
     ry="6.8055277"
     transform="matrix(0.00524063,-0.99998627,0.99998801,0.00489691,0,0)"
     style="isolation:isolate;fill:#00a9ff;fill-opacity:0.13470298;stroke:url(#linearGradient872);stroke-width:2.0301;stroke-miterlimit:4;stroke-dasharray:none;stroke-opacity:1"
     width="45.801998" />
  <rect
     x="-15.686804"
     y="17.260084"
     height="33.345856"
     rx="6.7920032"
     shape-rendering="crispEdges"
     id="rect5-6-6-6-6"
     style="isolation:isolate;fill:#00a9ff;fill-opacity:0.13470298;stroke:url(#linearGradient15);stroke-width:1.67233;stroke-miterlimit:4;stroke-dasharray:none;stroke-opacity:1"
     ry="7.4743071"
     transform="matrix(0.72446484,-0.68931175,0.68622417,0.72739012,0,0)"
     width="33.338203" />
  <path
     style="color:#000000;fill:url(#linearGradient917);fill-rule:evenodd;-inkscape-stroke:none"
     d="m 30.011719,9.8945313 c -0.678314,0.0072 -1.342905,0.2001017 -1.923828,0.5546877 -0.593889,0.357683 -1.093353,0.856164 -1.451172,1.457031 l -0.0059,0.0078 -0.996093,1.798828 -0.8125,-1.623047 v -0.002 c -0.311384,-0.628965 -0.778854,-1.170708 -1.361329,-1.570313 -0.575204,-0.39502 -1.25269,-0.609807 -1.947265,-0.6171874 h -0.002 c -0.492077,-0.00681 -0.975786,0.1073804 -1.410157,0.3281254 -0.578311,0.28982 -1.046604,0.751986 -1.349609,1.320312 -0.291323,0.534803 -0.436308,1.136335 -0.429687,1.742188 6.32e-4,0.639722 0.157368,1.262005 0.439453,1.826172 l 3.294922,6.589843 c 0.197755,0.395915 0.543903,0.713469 0.982421,0.730469 0.438519,0.017 0.810949,-0.272688 1.039063,-0.652344 l 2.914062,-4.853515 2.039063,-3.597657 0.0039,-0.0039 0.002,-0.0039 c 0.124004,-0.205033 0.292019,-0.373355 0.498047,-0.496094 l 0.0059,-0.0039 0.0059,-0.0039 c 0.147777,-0.09334 0.316718,-0.142578 0.488281,-0.142578 h 0.01172 0.0098 c 0.04179,-0.0017 0.103327,0.01294 0.160156,0.03711 0.0637,0.03662 0.116678,0.08867 0.152344,0.150391 0.06708,0.128867 0.09933,0.257948 0.0957,0.394531 v 0.0078 0.0059 c 0,0.201749 -0.04813,0.403297 -0.142578,0.58789 l -0.05469,0.107422 v 0.0078 l -1.261719,2.52539 c -0.341106,0.682213 -0.06112,1.526082 0.621094,1.867188 0.682214,0.341108 1.52608,0.05916 1.867188,-0.623047 l 1.316406,-2.630859 c 0.282083,-0.564167 0.438821,-1.186449 0.439453,-1.826172 0.0066,-0.604992 -0.13717,-1.203987 -0.427734,-1.738282 l -0.002,-0.002 c -0.304917,-0.573113 -0.777444,-1.032649 -1.349609,-1.322265 l -0.002,-0.002 h -0.002 c -0.451087,-0.225473 -0.94653,-0.3387015 -1.45305,-0.3319177 z m 0.01172,0.9999997 h 0.002 c 0.349296,-0.0049 0.682503,0.07206 0.992187,0.226563 0.391284,0.198058 0.714837,0.510389 0.921875,0.90039 l 0.002,0.002 v 0.0039 c 0.207736,0.380849 0.3136,0.813371 0.308594,1.253906 v 0.0039 0.002 c 0,0.477965 -0.116638,0.948119 -0.333984,1.382813 l -1.316407,2.632812 c -0.09937,0.19874 -0.326653,0.273198 -0.52539,0.173828 -0.198739,-0.09937 -0.273198,-0.326651 -0.173828,-0.52539 l 1.367187,-2.736328 v -0.123047 -0.002 c 0.101428,-0.263061 0.194567,-0.531216 0.195313,-0.808594 0.0068,-0.310888 -0.06716,-0.617083 -0.210938,-0.888672 l -0.0039,-0.0059 -0.002,-0.0039 c -0.129157,-0.230619 -0.322917,-0.423729 -0.5625,-0.552735 l -0.01172,-0.0059 -0.0098,-0.0059 c -0.185052,-0.08813 -0.399999,-0.144169 -0.634765,-0.136718 -0.360607,0.0016 -0.709783,0.106588 -1.011719,0.296875 -0.346388,0.208507 -0.636763,0.496308 -0.84375,0.84375 l -0.0039,0.0059 -2.041016,3.599609 -2.90625,4.84375 c -0.110577,0.184036 -0.166513,0.165088 -0.142578,0.166016 0.02394,9.28e-4 -0.03126,0.01581 -0.126953,-0.175781 L 19.65625,14.669922 C 19.438903,14.23523 19.322266,13.765074 19.322266,13.287109 v -0.002 -0.0039 c -0.005,-0.440475 0.09889,-0.873035 0.30664,-1.253906 l 0.002,-0.0039 0.002,-0.002 c 0.208544,-0.392836 0.522952,-0.702881 0.917969,-0.90039 h 0.002 l 0.002,-0.002 c 0.291251,-0.148012 0.614677,-0.223514 0.94336,-0.21875 H 21.5 c 0.49524,0.005 0.984118,0.158215 1.396484,0.441406 0.440919,0.30249 0.795016,0.713801 1.03125,1.191406 l 1.686648,3.232011 c 0.66089,-1.099029 1.264461,-2.231263 1.885618,-3.352977 0.272825,-0.455425 0.65218,-0.835594 1.103516,-1.107421 h 0.002 v -0.002 c 0.429663,-0.262852 0.919646,-0.403169 1.417968,-0.408203 z m -8.535156,0.791016 c -0.20436,0 -0.400946,0.04887 -0.578125,0.132812 l -0.0039,0.002 -0.0059,0.002 c -0.251087,0.125541 -0.449122,0.326828 -0.578125,0.566406 l -0.002,0.002 v 0.002 c -0.143812,0.271646 -0.217659,0.577923 -0.210937,0.888672 9.56e-4,0.35572 0.08349,0.711667 0.25,1.037109 l -0.05664,-0.228515 v 0.125 l 2.835938,5.669922 c 0.649022,-1.059769 1.25525,-2.146108 1.935499,-3.186175 l -1.882765,-3.886093 -0.06445,-0.0625 0.0957,0.132813 C 23.05021,12.530421 22.786467,12.222192 22.451172,11.998047 22.165363,11.793225 21.830134,11.6936 21.5,11.685547 h -0.0059 z m -0.0059,1.001953 c 0.151692,0.0049 0.287077,0.04774 0.390625,0.123047 l 0.0098,0.0078 0.0078,0.0059 c 0.182831,0.120502 0.334255,0.295049 0.433594,0.498047 l 0.03711,0.07422 0.0078,0.0078 1.583984,3.175781 -0.734375,1.228516 -1.916016,-3.830078 v -0.0078 l -0.05469,-0.107422 c -0.09444,-0.184584 -0.140625,-0.386134 -0.140625,-0.58789 v -0.0059 -0.0078 c -0.0037,-0.138796 0.0265,-0.26967 0.0957,-0.400391 0.03699,-0.06751 0.08591,-0.113656 0.142578,-0.142578 0.04543,-0.02051 0.09413,-0.03036 0.136719,-0.03125 z m 6.707031,6.052734 c -0.349963,0.07065 -0.673585,0.274509 -0.884766,0.591797 l -5.501949,8.251953 c -0.247371,-0.415733 -0.456336,-0.856497 -0.804687,-1.203125 -1.094113,-1.100624 -2.585511,-1.71875 -4.140625,-1.71875 -1.554191,0 -3.044739,0.617398 -4.138672,1.716797 C 11.618125,27.473018 11,28.964415 11,30.519531 c 0,1.554193 0.617396,3.044738 1.716797,4.138672 3.89e-4,3.91e-4 0.0016,-3.91e-4 0.002,0 3.91e-4,3.89e-4 -3.91e-4,0.0016 0,0.002 1.093933,1.0994 2.584481,1.716797 4.138672,1.716797 1.554192,0 3.044737,-0.617397 4.138672,-1.716797 l 0.002,-0.002 c 0.892144,-0.888037 1.438446,-2.046465 1.623047,-3.279297 l 1.78125,-2.669922 0.941406,2.507813 -0.0293,-0.126953 c 0.131422,1.3448 0.724968,2.609196 1.689453,3.568359 v 0.002 c 1.093934,1.0994 2.584479,1.716797 4.138672,1.716797 1.554191,0 3.044739,-0.617397 4.138672,-1.716797 l 0.002,-0.002 C 36.382604,33.564269 37,32.073724 37,30.519531 c 0,-1.554194 -0.617396,-3.044738 -1.716797,-4.138672 -1.094111,-1.100624 -2.58551,-1.71875 -4.140625,-1.71875 -1.554193,0 -3.044738,0.617397 -4.138672,1.716797 -0.13296,0.132244 -0.221126,0.296209 -0.339844,0.439453 L 26.302734,25.855469 29.625,20.873047 c 0.422212,-0.636084 0.245621,-1.509321 -0.390625,-1.931641 -0.318042,-0.211105 -0.694425,-0.271935 -1.044922,-0.201172 z m 0.492188,1.035157 c 0.185182,0.122918 0.2324,0.359578 0.109375,0.544921 h 0.002 l -3.605469,5.40625 1.224609,3.265625 0.529297,-0.910156 c 0.209805,-0.360281 0.467081,-0.695261 0.767578,-0.99414 h 0.002 v -0.002 c 0.905888,-0.911279 2.141519,-1.423828 3.431641,-1.423828 1.290122,0 2.525754,0.512549 3.431641,1.423828 v 0.002 h 0.002 C 35.487452,27.993778 36,29.229408 36,30.519531 c 0,1.290122 -0.512548,2.525753 -1.423828,3.431641 h -0.002 v 0.002 c -0.905887,0.911279 -2.14152,1.423828 -3.431641,1.423828 -1.290122,0 -2.525753,-0.512549 -3.431641,-1.423828 v -0.002 h -0.002 C 26.90977,33.156904 26.417501,32.10952 26.3085,30.994141 l -0.0059,-0.06641 -1.65039,-4.398437 -0.541016,0.8125 -2.416016,3.623047 -0.01367,0.11914 c -0.126252,1.081237 -0.613544,2.094419 -1.390625,2.867188 h -0.002 v 0.002 c -0.905888,0.91128 -2.141519,1.423828 -3.43164,1.423828 -1.290121,0 -2.525754,-0.512549 -3.431641,-1.423828 v -0.002 h -0.002 C 12.512548,33.045284 12,31.809653 12,30.519531 c 0,-1.290123 0.512548,-2.525753 1.423828,-3.43164 h 0.002 v -0.002 c 0.905887,-0.911279 2.14152,-1.423828 3.431641,-1.423828 1.290121,0 2.525753,0.512549 3.43164,1.423828 v 0.002 h 0.002 c 0.457243,0.454548 0.814397,0.992208 1.05664,1.578125 l 0.357422,0.867187 c 2.149561,-3.224483 4.518819,-6.779275 6.431641,-9.648437 0.122918,-0.185184 0.359576,-0.232402 0.544922,-0.109375 z m -11.824219,6.671875 c -1.078503,0 -2.11738,0.428937 -2.878906,1.197265 -0.76635,0.761243 -1.19336,1.797966 -1.19336,2.875 0,1.077034 0.42701,2.113757 1.19336,2.875 0.761526,0.768327 1.800402,1.197266 2.878906,1.197266 1.076667,0 2.113828,-0.427503 2.875,-1.19336 l 0.002,-0.002 c 0.767089,-0.761349 1.193359,-1.799368 1.193359,-2.876953 0,-1.076665 -0.42555,-2.113828 -1.191406,-2.875 l -0.002,-0.002 c -0.76135,-0.767092 -1.799368,-1.195312 -2.876953,-1.195312 z m 14.285156,0 c -1.076666,0 -2.113828,0.427501 -2.875,1.193359 -6.55e-4,6.49e-4 -0.0013,0.0013 -0.002,0.002 -6.49e-4,6.54e-4 -0.0013,0.0013 -0.002,0.002 -0.765854,0.761172 -1.191406,1.798334 -1.191406,2.875 0,1.076666 0.42555,2.113829 1.191406,2.875 6.49e-4,6.55e-4 0.0013,0.0013 0.002,0.002 6.54e-4,6.5e-4 0.0013,0.0013 0.002,0.002 0.761172,0.765857 1.798333,1.19336 2.875,1.19336 1.078504,0 2.11738,-0.428939 2.878906,-1.197266 0.766351,-0.761243 1.19336,-1.797966 1.19336,-2.875 0,-1.077033 -0.427009,-2.113756 -1.19336,-2.875 -0.761526,-0.768328 -1.800403,-1.197265 -2.878906,-1.197265 z m -14.285156,1 c 0.814354,0 1.596163,0.323478 2.167969,0.90039 l 0.002,0.002 0.002,0.002 c 0.576911,0.571807 0.898437,1.353616 0.898437,2.167969 0,0.814353 -0.321527,1.596163 -0.898437,2.167969 l -0.002,0.002 -0.002,0.002 c -0.571807,0.576912 -1.353616,0.900391 -2.167969,0.900391 -0.814353,0 -1.598116,-0.323479 -2.169922,-0.900391 v -0.002 l -0.002,-0.002 C 14.10855,32.115788 13.78507,31.333978 13.78507,30.519625 c 0,-0.814352 0.32348,-1.596162 0.900391,-2.167969 l 0.002,-0.002 v -0.002 c 0.571806,-0.576912 1.355569,-0.90039 2.169922,-0.90039 z m 14.285156,0 c 0.814353,0 1.598117,0.323478 2.169922,0.90039 v 0.002 l 0.002,0.002 c 0.576912,0.571807 0.900391,1.353616 0.900391,2.167969 0,0.814353 -0.323479,1.596163 -0.900391,2.167969 l -0.002,0.002 v 0.002 c -0.571806,0.576912 -1.355569,0.900391 -2.169922,0.900391 -0.814353,0 -1.596162,-0.323479 -2.167969,-0.900391 l -0.002,-0.002 -0.002,-0.002 c -0.576911,-0.571806 -0.898437,-1.353616 -0.898437,-2.167969 0,-0.814352 0.321526,-1.596162 0.898437,-2.167969 l 0.002,-0.002 0.002,-0.002 c 0.571806,-0.576912 1.353615,-0.90039 2.167969,-0.90039 z"
     id="path7"
     sodipodi:nodetypes="cccccccccccccccsccccccccsccccccsccccsccccccccccccccccccsssscccccccccccccccccsccscccccccccccccccccccsccccccccccccccccccsccccccccccccsccccccccccscssscsssccccccsssscsccccscccccccccccscccscccsccccccccccccscccscccsccccccccccscsccscccccsscssscscscccscccscccscccscccsscccscccscccscccs" />
</svg>
