<?xml version="1.0" encoding="UTF-8" standalone="no"?>
<!-- Generator: Gravit.io -->

<svg
   style="isolation:isolate"
   viewBox="0 0 48 48"
   width="48pt"
   height="48pt"
   version="1.1"
   id="svg9"
   sodipodi:docname="cura-icon.svg"
   inkscape:version="1.1.2 (0a00cf5339, 2022-02-04)"
   xmlns:inkscape="http://www.inkscape.org/namespaces/inkscape"
   xmlns:sodipodi="http://sodipodi.sourceforge.net/DTD/sodipodi-0.dtd"
   xmlns:xlink="http://www.w3.org/1999/xlink"
   xmlns="http://www.w3.org/2000/svg"
   xmlns:svg="http://www.w3.org/2000/svg">
  <defs
     id="defs13">
    <linearGradient
       inkscape:collect="always"
       xlink:href="#_lgradient_18"
       id="linearGradient15"
       x1="-9.6850061"
       y1="45.161198"
       x2="11.98815"
       y2="21.735205"
       gradientUnits="userSpaceOnUse"
       gradientTransform="matrix(1.1147442,0,0,1.1150348,-0.01237238,-3.3277956)" />
    <linearGradient
       id="_lgradient_79"
       x1="0"
       y1="0.5"
       x2="1"
       y2="0.5"
       gradientTransform="matrix(28.821737,0,0,21.900217,9.5891307,15.236125)"
       gradientUnits="userSpaceOnUse">
      <stop
         offset="0%"
         stop-opacity="1"
         style="stop-color:rgb(84,51,255)"
         id="stop2-3" />
      <stop
         offset="51.73913043478261%"
         stop-opacity="1"
         style="stop-color:rgb(32,189,255)"
         id="stop4-6" />
      <stop
         offset="98.26086956521739%"
         stop-opacity="1"
         style="stop-color:rgb(165,254,203)"
         id="stop6" />
    </linearGradient>
    <linearGradient
       inkscape:collect="always"
       xlink:href="#_lgradient_18"
       id="linearGradient872"
       x1="-12.025727"
       y1="6.1170783"
       x2="-0.085100174"
       y2="6.1170783"
       gradientUnits="userSpaceOnUse"
       gradientTransform="matrix(3.8358211,0,0,3.8371386,-0.00544341,-0.00268054)" />
    <linearGradient
       inkscape:collect="always"
       xlink:href="#_lgradient_18"
       id="linearGradient863"
       x1="13.276988"
       y1="24"
       x2="34.723011"
       y2="24"
       gradientUnits="userSpaceOnUse" />
  </defs>
  <sodipodi:namedview
     id="namedview11"
     pagecolor="#ffffff"
     bordercolor="#666666"
     borderopacity="1.0"
     inkscape:pageshadow="2"
     inkscape:pageopacity="0.0"
     inkscape:pagecheckerboard="0"
     inkscape:document-units="pt"
     showgrid="false"
     inkscape:zoom="10.21875"
     inkscape:cx="31.95107"
     inkscape:cy="32"
     inkscape:window-width="1600"
     inkscape:window-height="836"
     inkscape:window-x="0"
     inkscape:window-y="0"
     inkscape:window-maximized="1"
     inkscape:current-layer="svg9" />
  <linearGradient
     id="_lgradient_18"
     x1="0.41703096539162116"
     y1="0.019248826291079567"
     x2="0.679538131811658"
     y2="0.9641320015277046"
     gradientTransform="matrix(21.446025,0,0,21.446025,13.276987,13.276987)"
     gradientUnits="userSpaceOnUse">
    <stop
       offset="28.000000000000004%"
       stop-opacity="1"
       style="stop-color:rgb(0,205,215)"
       id="stop2" />
    <stop
       offset="94%"
       stop-opacity="1"
       style="stop-color:rgb(32,134,215)"
       id="stop4" />
  </linearGradient>
  <rect
     x="-46.783188"
     y="1.2253767"
     height="45.80014"
     rx="6.1837621"
     shape-rendering="crispEdges"
     id="rect5-6-7-3"
     ry="6.8055277"
     transform="matrix(0.00524063,-0.99998627,0.99998801,0.00489691,0,0)"
     style="isolation:isolate;fill:#00dbff;fill-opacity:0.134703;stroke:url(#linearGradient872);stroke-width:2.0301;stroke-miterlimit:4;stroke-dasharray:none;stroke-opacity:1"
     width="45.801998" />
  <rect
     x="-15.686804"
     y="17.260084"
     height="33.345856"
     rx="6.7920032"
     shape-rendering="crispEdges"
     id="rect5-6-6-6-6"
     style="isolation:isolate;fill:#00dbff;fill-opacity:0.134703;stroke:url(#linearGradient15);stroke-width:1.67233;stroke-miterlimit:4;stroke-dasharray:none;stroke-opacity:1"
     ry="7.4743071"
     transform="matrix(0.72446484,-0.68931175,0.68622417,0.72739012,0,0)"
     width="33.338203" />
  <path
     style="color:#000000;fill:url(#linearGradient863);fill-rule:evenodd;-inkscape-stroke:none"
     d="m 25.601562,12.777344 c -0.648345,0 -1.183593,0.535248 -1.183593,1.183594 0,0.648345 0.535247,1.185546 1.183593,1.185546 h 7.251954 v 11.339844 l -6.941407,6.175781 c -0.488571,0.4275 -0.535858,1.189792 -0.103515,1.673828 0.431388,0.482969 1.186178,0.528722 1.671875,0.09961 l 7.234375,-6.431641 c 0.339586,-0.30167 0.507812,-0.680594 0.507812,-1.134765 V 13.732422 c 0,-0.522407 -0.432671,-0.955078 -0.955078,-0.955078 z m -4.224609,0.49414 c -0.303191,-0.0185 -0.614573,0.07841 -0.857422,0.292969 l -6.892578,6.128906 c -0.527229,0.469074 -0.849609,1.186531 -0.849609,1.892578 v 12.22461 c 0,0.774283 0.637826,1.412109 1.412109,1.412109 h 8.666016 c 0.648345,0 1.183593,-0.535247 1.183593,-1.183594 10e-7,-0.648346 -0.535247,-1.185546 -1.183593,-1.185546 H 15.146484 V 21.513672 l 6.941407,-6.175781 c 0.488571,-0.4275 0.535858,-1.189792 0.103515,-1.673828 -0.215694,-0.241485 -0.511262,-0.374074 -0.814453,-0.392579 z m 4.224609,0.50586 h 8.621094 v 13.091797 c 0,0.04958 -0.135471,0.354379 -0.171875,0.386718 L 26.818359,33.6875 c -0.07829,0.06917 -0.191307,0.06344 -0.263672,-0.01758 -0.07141,-0.07995 -0.06526,-0.183128 0.01563,-0.253906 v -0.002 l 7.283204,-6.478515 V 14.146484 h -8.251954 c -0.107283,0 -0.183593,-0.07826 -0.183593,-0.185546 0,-0.107284 0.07631,-0.183594 0.183593,-0.183594 z M 21.181641,14.3125 c 0.07829,-0.06917 0.191307,-0.06344 0.263671,0.01758 0.07141,0.07995 0.06527,0.183128 -0.01563,0.253906 v 0.002 l -7.283203,6.478515 v 12.789063 h 8.708985 c 0.107283,0 0.183593,0.07826 0.183593,0.185546 0,0.107284 -0.07631,0.183594 -0.183593,0.183594 h -8.666016 c -0.233221,0 -0.412109,-0.178888 -0.412109,-0.412109 v -12.22461 c 0,-0.301457 0.288009,-0.943759 0.513672,-1.144531 z m 2.361328,3.712891 c -2.796243,0 -5.0625,2.266258 -5.0625,5.0625 V 24 c 0,2.796241 2.266257,5.0625 5.0625,5.0625 h 5.064453 V 25.324219 H 23.542969 C 22.725736,25.324219 22.21875,24.817232 22.21875,24 v -0.912109 c 0,-0.817232 0.506986,-1.326172 1.324219,-1.326172 h 5.064453 v -3.736328 z m 0,1 h 4.064453 v 1.736328 h -4.064453 c -1.299991,0 -2.324219,1.026182 -2.324219,2.326172 V 24 c 0,1.29999 1.024228,2.324219 2.324219,2.324219 h 4.064453 V 28.0625 h -4.064453 c -2.259541,0 -4.0625,-1.802961 -4.0625,-4.0625 v -0.912109 c 0,-2.25954 1.802959,-4.0625 4.0625,-4.0625 z"
     id="path7" />
</svg>
