<?xml version="1.0" encoding="UTF-8" standalone="no"?>
<!-- Generator: Gravit.io -->

<svg
   style="isolation:isolate"
   viewBox="0 0 48 48"
   width="48pt"
   height="48pt"
   version="1.1"
   id="svg9"
   sodipodi:docname="cypress.svg"
   inkscape:version="1.1.2 (0a00cf5339, 2022-02-04)"
   xmlns:inkscape="http://www.inkscape.org/namespaces/inkscape"
   xmlns:sodipodi="http://sodipodi.sourceforge.net/DTD/sodipodi-0.dtd"
   xmlns:xlink="http://www.w3.org/1999/xlink"
   xmlns="http://www.w3.org/2000/svg"
   xmlns:svg="http://www.w3.org/2000/svg">
  <defs
     id="defs13">
    <linearGradient
       inkscape:collect="always"
       xlink:href="#_lgradient_4"
       id="linearGradient15"
       x1="-9.6850061"
       y1="45.161198"
       x2="11.98815"
       y2="21.735205"
       gradientUnits="userSpaceOnUse"
       gradientTransform="matrix(1.1147442,0,0,1.1150348,-0.01237238,-3.3277956)" />
    <linearGradient
       id="_lgradient_79"
       x1="0"
       y1="0.5"
       x2="1"
       y2="0.5"
       gradientTransform="matrix(28.821737,0,0,21.900217,9.5891307,15.236125)"
       gradientUnits="userSpaceOnUse">
      <stop
         offset="0%"
         stop-opacity="1"
         style="stop-color:rgb(84,51,255)"
         id="stop2-3" />
      <stop
         offset="51.73913043478261%"
         stop-opacity="1"
         style="stop-color:rgb(32,189,255)"
         id="stop4-6" />
      <stop
         offset="98.26086956521739%"
         stop-opacity="1"
         style="stop-color:rgb(165,254,203)"
         id="stop6" />
    </linearGradient>
    <linearGradient
       inkscape:collect="always"
       xlink:href="#_lgradient_4"
       id="linearGradient872"
       x1="-12.025727"
       y1="6.1170783"
       x2="-0.085100174"
       y2="6.1170783"
       gradientUnits="userSpaceOnUse"
       gradientTransform="matrix(3.8358211,0,0,3.8371386,-0.00544341,-0.00268054)" />
    <linearGradient
       inkscape:collect="always"
       xlink:href="#_lgradient_4"
       id="linearGradient917"
       x1="9.0428028"
       y1="24.051346"
       x2="39.005192"
       y2="24.051346"
       gradientUnits="userSpaceOnUse" />
  </defs>
  <sodipodi:namedview
     id="namedview11"
     pagecolor="#ffffff"
     bordercolor="#666666"
     borderopacity="1.0"
     inkscape:pageshadow="2"
     inkscape:pageopacity="0.0"
     inkscape:pagecheckerboard="0"
     inkscape:document-units="pt"
     showgrid="false"
     inkscape:zoom="7.2257474"
     inkscape:cx="32.038208"
     inkscape:cy="31.969011"
     inkscape:window-width="1600"
     inkscape:window-height="836"
     inkscape:window-x="0"
     inkscape:window-y="0"
     inkscape:window-maximized="1"
     inkscape:current-layer="svg9" />
  <linearGradient
     id="_lgradient_4"
     x1="0.9941176470588236"
     y1="0.4801559760374085"
     x2="0.00018059855521146417"
     y2="0.45213064394988733"
     gradientTransform="matrix(29.962415,0,0,29.915935,9.0427908,9.0934759)"
     gradientUnits="userSpaceOnUse">
    <stop
       offset="0%"
       stop-opacity="1"
       style="stop-color:rgb(17,153,142)"
       id="stop2" />
    <stop
       offset="99.1304347826087%"
       stop-opacity="1"
       style="stop-color:rgb(56,239,125)"
       id="stop4" />
  </linearGradient>
  <rect
     x="-46.783188"
     y="1.2253767"
     height="45.80014"
     rx="6.1837621"
     shape-rendering="crispEdges"
     id="rect5-6-7-3"
     ry="6.8055277"
     transform="matrix(0.00524063,-0.99998627,0.99998801,0.00489691,0,0)"
     style="isolation:isolate;fill:#00ffa4;fill-opacity:0.13470298;stroke:url(#linearGradient872);stroke-width:2.0301;stroke-miterlimit:4;stroke-dasharray:none;stroke-opacity:1"
     width="45.801998" />
  <rect
     x="-15.686804"
     y="17.260084"
     height="33.345856"
     rx="6.7920032"
     shape-rendering="crispEdges"
     id="rect5-6-6-6-6"
     style="isolation:isolate;fill:#00ffa4;fill-opacity:0.13470298;stroke:url(#linearGradient15);stroke-width:1.67233;stroke-miterlimit:4;stroke-dasharray:none;stroke-opacity:1"
     ry="7.4743071"
     transform="matrix(0.72446484,-0.68931175,0.68622417,0.72739012,0,0)"
     width="33.338203" />
  <path
     style="color:#000000;fill:url(#linearGradient917);fill-rule:evenodd;-inkscape-stroke:none"
     d="m 23.884766,8.59375 c -4.102596,0.036848 -8.028647,1.705909 -10.908203,4.630859 -2.873061,2.931615 -4.4710997,6.887664 -4.4335942,10.990235 0.00867,1.02246 0.8567111,1.853279 1.8789062,1.84375 1.022565,-0.0087 1.854359,-0.854863 1.845703,-1.876953 -0.02871,-3.115015 1.185159,-6.119813 3.367188,-8.347657 2.187992,-2.22055 5.168363,-3.487542 8.283203,-3.515625 3.115141,-0.02809 6.117893,1.185192 8.345703,3.367188 2.221011,2.188033 3.489491,5.168651 3.517578,8.283203 0.02687,2.965705 -1.063887,5.836501 -3.0625,8.029297 -1.997942,2.192728 -4.755344,3.543706 -7.712891,3.792969 -1.017815,0.08582 -1.78424,0.993262 -1.701172,2.011718 0.08322,1.019472 0.993469,1.784812 2.013672,1.699219 3.888045,-0.324166 7.517092,-2.108872 10.150391,-4.996094 2.626678,-2.887175 4.070184,-6.665367 4.035156,-10.570312 C 39.467054,19.832952 37.79995,15.9069 34.875,13.027344 h -0.002 C 31.940822,10.154329 27.987232,8.5569035 23.884766,8.59375 Z m 0.0078,1 c 3.836818,-0.034461 7.535984,1.459136 10.279297,4.146484 2.736692,2.69422 4.297563,6.365925 4.332031,10.203125 0.03323,3.653401 -1.315774,7.187274 -3.773437,9.888672 -2.46378,2.701357 -5.858934,4.371039 -9.496094,4.673828 -0.482435,0.04048 -0.892617,-0.307081 -0.931641,-0.785156 -0.03918,-0.480364 0.309927,-0.893357 0.78711,-0.933594 3.207099,-0.270295 6.198485,-1.735097 8.367187,-4.115234 2.169301,-2.380067 3.353366,-5.496123 3.324219,-8.712891 -0.03049,-3.380635 -1.4067,-6.613063 -3.816406,-8.986328 v -0.002 h -0.002 c -2.416366,-2.366673 -5.674096,-3.682831 -9.054688,-3.652344 -3.381246,0.03049 -6.613096,1.406734 -8.986328,3.816407 h -0.002 c -2.366641,2.416331 -3.683498,5.673966 -3.652344,9.054687 0.0041,0.481822 -0.372168,0.865044 -0.853515,0.869141 h -0.002 c -0.4804444,0.0045 -0.8650691,-0.371383 -0.8691402,-0.851563 v -0.002 c -0.03508,-3.837225 1.4585042,-7.536535 4.1464842,-10.279297 2.69422,-2.736692 6.365925,-4.297567 10.203125,-4.332031 z m -4.28125,8.402344 c -1.304187,0 -2.415014,0.398573 -3.222656,1.205078 -0.931288,0.918691 -1.373047,2.258987 -1.373047,3.912109 0,1.372723 0.335108,2.527776 1.041016,3.396485 0.805905,1.003753 2.028129,1.509765 3.505859,1.509765 1.068906,0 2.018554,-0.303009 2.775391,-0.910156 h 0.002 c 0.865355,-0.682164 1.370725,-1.677768 1.490234,-2.869141 l 0.05469,-0.548828 h -3.078125 l -0.09766,0.373047 c -0.128081,0.492707 -0.300037,0.798276 -0.439453,0.931641 -0.135261,0.129166 -0.33266,0.210937 -0.691406,0.210937 -0.425886,0 -0.671658,-0.12984 -0.916016,-0.490234 -0.246014,-0.362839 -0.394531,-0.902061 -0.394531,-1.652344 0,-0.742242 0.131323,-1.336205 0.367188,-1.802734 0.174092,-0.316652 0.40693,-0.455078 0.960937,-0.455078 0.360807,0 0.559725,0.08417 0.693359,0.208984 0.126741,0.118174 0.299744,0.424547 0.417969,0.9375 l 0.08984,0.386719 h 3.076172 l -0.04297,-0.539063 c -0.08339,-1.06836 -0.455163,-1.981477 -1.121094,-2.660156 l -0.002,-0.0039 -0.0039,-0.002 c -0.776022,-0.763325 -1.843011,-1.138672 -3.091797,-1.138672 z m 3.712891,0.179687 3.423828,9.59375 v 0.0918 c 0,0.217785 -0.06049,0.363037 -0.25,0.541016 h -0.002 c -0.186748,0.17566 -0.365867,0.248047 -0.634766,0.248047 -0.19845,0 -0.491003,-0.04111 -0.857422,-0.132813 l -0.498047,-0.123047 -0.529297,2.351563 0.285157,0.191406 c 0.457251,0.304615 1.049821,0.376953 1.84375,0.376953 0.872465,0 1.583257,-0.138108 2.123047,-0.5 0.54173,-0.363749 0.916487,-0.971711 1.1875,-1.759766 v -0.002 l 3.789062,-10.876953 h -3.382812 l -1.419922,5.025391 -1.535157,-5.025391 z m -3.712891,0.820313 c 1.055041,0 1.814121,0.288048 2.386719,0.849609 0.35645,0.364336 0.480426,0.92984 0.613281,1.494141 h -1.121094 c -0.133157,-0.398755 -0.252843,-0.807373 -0.517578,-1.054688 -0.355361,-0.331916 -0.845515,-0.478515 -1.376953,-0.478515 -0.792699,0 -1.495963,0.341188 -1.84375,0.978515 l -0.002,0.0059 -0.0039,0.0059 c -0.327105,0.641931 -0.478516,1.40423 -0.478516,2.267578 0,0.881397 0.172569,1.631104 0.568359,2.214844 0.397449,0.586183 1.037274,0.927734 1.742188,0.927734 0.5335,0 1.02823,-0.149676 1.382812,-0.488281 0.256126,-0.245009 0.385181,-0.640213 0.525391,-1.027344 h 1.195313 c -0.168319,0.673261 -0.452216,1.231864 -0.964844,1.634766 l -0.002,0.002 -0.002,0.002 c -0.56985,0.457557 -1.262258,0.689453 -2.150391,0.689453 -1.263526,0 -2.118118,-0.376949 -2.726563,-1.134765 l -0.002,-0.002 v -0.002 c -0.532546,-0.653927 -0.818359,-1.552766 -0.818359,-2.767578 0,-1.4795 0.373827,-2.510255 1.074219,-3.201172 h 0.002 l 0.002,-0.002 c 0.606549,-0.606548 1.407546,-0.914062 2.517578,-0.914062 z m 5.130859,0.179687 h 1.384766 l 2.314453,7.570313 0.462891,-1.636719 1.675781,-5.933594 h 1.21875 l -3.326172,9.550781 h -0.002 c -0.228889,0.66724 -0.51674,1.067091 -0.800781,1.257813 -0.287298,0.192114 -0.806145,0.330078 -1.564453,0.330078 -0.532475,0 -0.756079,-0.08673 -0.970703,-0.158203 l 0.132812,-0.59375 c 0.198816,0.0318 0.419277,0.08789 0.59375,0.08789 0.492608,0 0.963733,-0.184124 1.320313,-0.519532 0.354667,-0.333087 0.566406,-0.791177 0.566406,-1.269531 v -0.265625 z m -12.183593,9.560547 c -0.457129,-0.137796 -0.967702,-0.10096 -1.417969,0.140625 -0.900235,0.483877 -1.2418416,1.619011 -0.757812,2.519531 v 0.002 c 1.566976,2.912918 4.028839,5.254442 7.017578,6.669922 0.923464,0.441395 2.043365,0.04315 2.482421,-0.880859 C 20.32192,36.263384 19.923158,35.144373 19,34.703125 l -0.002,-0.002 c -2.276173,-1.076709 -4.13945,-2.847556 -5.335938,-5.064453 -0.241938,-0.450118 -0.646386,-0.762595 -1.103515,-0.900391 z m -0.28711,0.953125 c 0.210305,0.0634 0.395782,0.207859 0.509766,0.419922 1.296646,2.403232 3.32033,4.327912 5.789062,5.496094 0.435587,0.2082 0.616676,0.717717 0.410157,1.152343 -0.206569,0.43473 -0.71316,0.616256 -1.148438,0.408204 l -0.002,-0.002 c -2.795761,-1.323724 -5.100345,-3.514911 -6.566406,-6.240234 -0.227814,-0.423841 -0.07256,-0.938048 0.351562,-1.166016 0.211425,-0.112805 0.446564,-0.131578 0.65625,-0.06836 z"
     id="path7" />
</svg>
