<?xml version="1.0" encoding="UTF-8" standalone="no"?>
<!-- Generator: Gravit.io -->

<svg
   style="isolation:isolate"
   viewBox="0 0 48 48"
   width="48pt"
   height="48pt"
   version="1.1"
   id="svg29"
   sodipodi:docname="dataspell.svg"
   inkscape:version="1.1.2 (0a00cf5339, 2022-02-04)"
   xmlns:inkscape="http://www.inkscape.org/namespaces/inkscape"
   xmlns:sodipodi="http://sodipodi.sourceforge.net/DTD/sodipodi-0.dtd"
   xmlns:xlink="http://www.w3.org/1999/xlink"
   xmlns="http://www.w3.org/2000/svg"
   xmlns:svg="http://www.w3.org/2000/svg">
  <defs
     id="defs33">
    <linearGradient
       inkscape:collect="always"
       id="linearGradient873">
      <stop
         style="stop-color:#5433ff;stop-opacity:1;"
         offset="0"
         id="stop868" />
      <stop
         style="stop-color:#63deff;stop-opacity:1"
         offset="1"
         id="stop870" />
    </linearGradient>
    <linearGradient
       id="linearGradient1478"
       x1="0.30246820109024836"
       y1="0.07755249073692883"
       x2="0.8610931695995456"
       y2="1.1276177056729706"
       gradientTransform="matrix(18.515281,0,0,27.240229,10.393662,10.589886)"
       gradientUnits="userSpaceOnUse">
      <stop
         offset="0%"
         stop-opacity="1"
         style="stop-color:rgb(84,51,255)"
         id="stop1472" />
      <stop
         offset="51.73913043478261%"
         stop-opacity="1"
         style="stop-color:rgb(32,189,255)"
         id="stop1474" />
      <stop
         offset="0.98142439"
         stop-opacity="1"
         style="stop-color:rgb(165,254,203)"
         id="stop1476" />
    </linearGradient>
    <linearGradient
       inkscape:collect="always"
       xlink:href="#_lgradient_19"
       id="linearGradient15"
       x1="-9.6850061"
       y1="45.161198"
       x2="11.98815"
       y2="21.735205"
       gradientUnits="userSpaceOnUse"
       gradientTransform="matrix(1.1147442,0,0,1.1150348,-0.01237238,-3.3277956)" />
    <linearGradient
       id="_lgradient_79"
       x1="0"
       y1="0.5"
       x2="1"
       y2="0.5"
       gradientTransform="matrix(28.821737,0,0,21.900217,9.5891307,15.236125)"
       gradientUnits="userSpaceOnUse">
      <stop
         offset="0%"
         stop-opacity="1"
         style="stop-color:rgb(84,51,255)"
         id="stop2-3" />
      <stop
         offset="51.73913043478261%"
         stop-opacity="1"
         style="stop-color:rgb(32,189,255)"
         id="stop4-6" />
      <stop
         offset="98.26086956521739%"
         stop-opacity="1"
         style="stop-color:rgb(165,254,203)"
         id="stop6-7" />
    </linearGradient>
    <linearGradient
       inkscape:collect="always"
       xlink:href="#_lgradient_19"
       id="linearGradient872"
       x1="-12.025727"
       y1="6.1170783"
       x2="-0.085100174"
       y2="6.1170783"
       gradientUnits="userSpaceOnUse"
       gradientTransform="matrix(3.8358211,0,0,3.8371386,-0.00544341,-0.00268054)" />
    <linearGradient
       inkscape:collect="always"
       xlink:href="#_lgradient_19"
       id="linearGradient883"
       x1="3.1657476"
       y1="8.2106619"
       x2="30.14175"
       y2="30.160479"
       gradientUnits="userSpaceOnUse" />
    <linearGradient
       inkscape:collect="always"
       xlink:href="#_lgradient_17"
       id="linearGradient2117"
       x1="35.093788"
       y1="25.879572"
       x2="9.4919872"
       y2="19.168419"
       gradientUnits="userSpaceOnUse" />
    <linearGradient
       inkscape:collect="always"
       xlink:href="#linearGradient873"
       id="linearGradient875"
       x1="15.824219"
       y1="11.28125"
       x2="26.428934"
       y2="36.886299"
       gradientUnits="userSpaceOnUse" />
  </defs>
  <sodipodi:namedview
     id="namedview31"
     pagecolor="#ffffff"
     bordercolor="#666666"
     borderopacity="1.0"
     inkscape:pageshadow="2"
     inkscape:pageopacity="0.0"
     inkscape:pagecheckerboard="0"
     inkscape:document-units="pt"
     showgrid="false"
     inkscape:zoom="14.451495"
     inkscape:cx="40.099658"
     inkscape:cy="34.183315"
     inkscape:window-width="1600"
     inkscape:window-height="836"
     inkscape:window-x="0"
     inkscape:window-y="0"
     inkscape:window-maximized="1"
     inkscape:current-layer="svg29" />
  <linearGradient
     id="_lgradient_17"
     x1="0.9261291684254959"
     y1="0.8932014627659575"
     x2="-0.03752721923970215"
     y2="0.49530876546536684"
     gradientTransform="matrix(26.567354,0,0,16.866737,10.488986,10.814177)"
     gradientUnits="userSpaceOnUse">
    <stop
       offset="0%"
       stop-opacity="1"
       style="stop-color:rgb(126,235,218)"
       id="stop2" />
    <stop
       offset="49.56869043334445%"
       stop-opacity="1"
       style="stop-color:rgb(115,255,68)"
       id="stop4" />
    <stop
       offset="98.69565217391305%"
       stop-opacity="1"
       style="stop-color:rgb(255,205,62)"
       id="stop6" />
  </linearGradient>
  <rect
     x="-46.783188"
     y="1.2253767"
     height="45.80014"
     rx="6.1837621"
     shape-rendering="crispEdges"
     id="rect5-6-7-3"
     ry="6.8055277"
     transform="matrix(0.00524063,-0.99998627,0.99998801,0.00489691,0,0)"
     style="isolation:isolate;fill:#00dbff;fill-opacity:0.134703;stroke:url(#linearGradient872);stroke-width:2.0301;stroke-miterlimit:4;stroke-dasharray:none;stroke-opacity:1"
     width="45.801998" />
  <rect
     x="-15.686804"
     y="17.260084"
     height="33.345856"
     rx="6.7920032"
     shape-rendering="crispEdges"
     id="rect5-6-6-6-6"
     style="isolation:isolate;fill:#00dbff;fill-opacity:0.134703;stroke:url(#linearGradient15);stroke-width:1.67233;stroke-miterlimit:4;stroke-dasharray:none;stroke-opacity:1"
     ry="7.4743071"
     transform="matrix(0.72446484,-0.68931175,0.68622417,0.72739012,0,0)"
     width="33.338203" />
  <path
     style="color:#000000;fill:url(#linearGradient2117);fill-rule:evenodd;-inkscape-stroke:none"
     d="m 29.507812,10.253906 -7.664482,2.798149 3.180668,1.795774 v 0 c 2.222311,-0.852605 2.221852,-0.856532 4.128346,-1.588068 L 34.875,17.162109 v 6.791016 l -3.003883,1.3058 0.07766,2.880297 L 37.55664,25.8125 V 15.748047 Z m -0.130859,1.121094 7.179688,4.900391 v 8.84375 l -4.471077,1.760578 -0.02933,-0.79015 3.818768,-1.443085 v -8.011718 l -6.591797,-4.498047 -0.244141,0.09375 c -1.903047,0.730218 -2.897274,1.086709 -5.119173,1.939159 l -0.804083,-0.513511 z m -15.064453,4.242188 -1.201172,0.591796 -3.2128905,1.576172 1.6484375,6.132813 0.341797,1.298828 0.624997,-1.554688 c 0,0 1.091592,-2.696522 0.548831,-4.443359 0.809824,-0.398585 0.281867,-1.253975 1.091797,-1.652344 z m -0.158203,1.949218 -0.302734,0.150391 -1.966797,0.966797 0.906562,3.130877 v 0 c -0.02335,0.622357 -0.1329,1.2419 -0.277659,1.847638 l -1.435547,-5.341797 2.474609,-1.214843 z"
     id="path9"
     sodipodi:nodetypes="cccccccccccccccccccccccccccccccccccccccccc" />
  <linearGradient
     id="_lgradient_18"
     x1="0.30246820109024836"
     y1="0.07755249073692883"
     x2="0.8610931695995456"
     y2="1.1276177056729706"
     gradientTransform="matrix(18.515281,0,0,27.240229,10.393662,10.589886)"
     gradientUnits="userSpaceOnUse">
    <stop
       offset="0%"
       stop-opacity="1"
       style="stop-color:rgb(84,51,255)"
       id="stop11" />
    <stop
       offset="51.73913043478261%"
       stop-opacity="1"
       style="stop-color:rgb(32,189,255)"
       id="stop13" />
    <stop
       offset="98.26086956521739%"
       stop-opacity="1"
       style="stop-color:rgb(165,254,203)"
       id="stop15" />
  </linearGradient>
  <path
     style="color:#000000;fill:url(#linearGradient875);-inkscape-stroke:none;fill-opacity:1"
     d="M 15.134766,9.8984375 9.84375,31.380859 l 6.517578,6.949219 h 8.880859 l 0.865235,-5.921875 v 0 l -2.65625,-0.386719 v 0 l -0.525391,3.626953 h -5.408203 l -4.722656,-5.039062 4.183594,-16.994141 5.993034,2.481249 6.140586,-0.257388 -0.780105,-0.268782 z m 0.689453,1.3828125 10.889801,4.663354 -1.608604,0.104321 -8.8144,-3.818456 -4.597657,18.667968 5.392578,5.75 h 6.705079 l 0.65039,-4.480468 0.675782,0.09375 -0.740234,5.068359 H 16.794923 L 10.94336,31.091801 Z"
     id="path18"
     sodipodi:nodetypes="ccccccccccccccccccccccccccccc" />
  <linearGradient
     id="_lgradient_19"
     x1="-0.7732134902245481"
     y1="-0.4766582259451563"
     x2="0.88445247067667"
     y2="0.8731735792754284"
     gradientTransform="matrix(16.273485,0,0,16.261149,15.748626,15.961672)"
     gradientUnits="userSpaceOnUse">
    <stop
       offset="1.3043478260869565%"
       stop-opacity="1"
       style="stop-color:rgb(223,87,255)"
       id="stop20" />
    <stop
       offset="52.083333333333336%"
       stop-opacity="1"
       style="stop-color:rgb(36,30,252)"
       id="stop22" />
    <stop
       offset="97.91666666666666%"
       stop-opacity="1"
       style="stop-color:rgb(14,175,254)"
       id="stop24" />
  </linearGradient>
  <path
     style="color:#000000;fill:url(#linearGradient883);fill-rule:evenodd;-inkscape-stroke:none"
     d="m 17.515625,15.681641 c -1.127344,0 -2.046875,0.919531 -2.046875,2.046875 v 2.316406 c 0,0.541654 0.444332,0.986328 0.986328,0.986328 0.541997,0 0.988281,-0.444674 0.988281,-0.986328 v -1.609375 c 0,-0.43376 0.345537,-0.779297 0.779297,-0.779297 h 11.3125 c 0.43376,0 0.779297,0.345537 0.779297,0.779297 v 6.300781 1.828125 1.574219 1.609375 c 0,0.433761 -0.345536,0.779297 -0.779297,0.779297 h -11.3125 c -0.43376,0 -0.779297,-0.345536 -0.779297,-0.779297 v -6.009766 c 0,-0.541996 -0.446284,-0.986328 -0.988281,-0.986328 -0.541996,0 -0.986328,0.444332 -0.986328,0.986328 v 6.716797 c 0,1.127344 0.919531,2.048828 2.046875,2.048828 h 12.726562 c 1.127345,0 2.048829,-0.921484 2.048829,-2.048828 v -2.314453 l 0.01367,-1.857422 h -0.01367 v -1.546875 -7.007812 c 0,-1.127344 -0.921484,-2.046875 -2.048829,-2.046875 z m 0,0.560546 h 12.726562 c 0.823993,0 1.486329,0.662336 1.486329,1.486329 v 7.007812 2.107422 h 0.01172 l -0.01172,1.294922 v 2.316406 c 0,0.823992 -0.662336,1.488281 -1.486329,1.488281 H 17.515625 c -0.823992,0 -1.486328,-0.664289 -1.486328,-1.488281 v -6.716797 c 0,-0.238536 0.187244,-0.425781 0.425781,-0.425781 0.238538,0 0.427735,0.187245 0.427734,0.425781 v 6.009766 c 0,0.737041 0.602804,1.341797 1.339844,1.341797 h 11.3125 c 0.737041,0 1.341797,-0.604756 1.341797,-1.341797 v -1.609375 -1.574219 -1.828125 -6.300781 c 0,-0.737041 -0.604756,-1.339844 -1.341797,-1.339844 h -11.3125 c -0.737041,0 -1.339844,0.602803 -1.339844,1.339844 v 1.609375 c 0,0.237759 -0.189196,0.425781 -0.427734,0.425781 -0.238537,0 -0.425781,-0.188022 -0.425781,-0.425781 v -2.316406 c 0,-0.823992 0.662336,-1.486329 1.486328,-1.486329 z m 8.992187,1.884766 c -0.657572,0 -1.23924,0.201488 -1.660156,0.566406 -0.420916,0.364919 -0.671875,0.895384 -0.671875,1.494141 0,0.643203 0.241962,1.125979 0.640625,1.433594 0.398663,0.307615 0.915459,0.462372 1.503906,0.61914 h 0.002 l 0.0039,0.002 c 0.471086,0.11293 0.739509,0.22001 0.851562,0.296875 0.112054,0.07687 0.0957,0.06966 0.0957,0.166016 0,0.0913 -0.01368,0.1146 -0.0918,0.164063 -0.07812,0.04946 -0.243014,0.09766 -0.480469,0.09766 -0.582025,0 -1.052083,-0.230958 -1.56836,-0.636719 l -0.214843,-0.167969 -1.123047,1.345703 0.203125,0.181641 c 0.748928,0.665781 1.717655,0.998055 2.785156,0.958984 0.667297,-8.51e-4 1.264387,-0.175106 1.703125,-0.535156 0.439799,-0.360919 0.703125,-0.90996 0.703125,-1.5625 0,-0.564623 -0.205626,-1.0265 -0.576172,-1.345703 -0.370545,-0.319202 -0.87387,-0.510216 -1.492187,-0.669922 -0.518344,-0.134241 -0.828242,-0.235403 -0.958985,-0.3125 -0.130743,-0.0771 -0.109375,-0.05171 -0.109375,-0.189453 0,-0.05531 0.01105,-0.08726 0.06836,-0.130859 0.05731,-0.0436 0.178141,-0.0918 0.386718,-0.0918 0.371278,0 0.877411,0.203357 1.351563,0.53125 l 0.232422,0.160156 0.96289,-1.416016 -0.203125,-0.162109 C 28.222054,18.4201 27.419637,18.126953 26.507812,18.126953 Z m -8.412109,0.07617 v 0.28125 6.050781 h 2.525391 C 22.572447,24.535156 24,23.123118 24,21.349609 24,19.576611 22.568474,18.203125 20.621094,18.203125 Z m 8.412109,0.484375 c 0.691833,0 1.245582,0.256562 1.740235,0.587891 L 27.90625,19.777344 C 27.44905,19.501243 26.975336,19.25 26.507812,19.25 c -0.294955,0 -0.541922,0.06657 -0.726562,0.207031 -0.18464,0.140459 -0.289063,0.360652 -0.289063,0.576172 0,0.249724 0.137999,0.526362 0.384766,0.671875 0.246768,0.145513 0.5761,0.236456 1.103516,0.373047 0.582202,0.150377 1.006893,0.329853 1.265625,0.552734 0.258732,0.222882 0.382812,0.477477 0.382812,0.919922 0,0.509291 -0.182824,0.87022 -0.498047,1.128906 -0.315222,0.258687 -0.781602,0.410157 -1.351562,0.410157 h -0.0059 -0.0059 c -0.840726,0.0323 -1.554823,-0.228073 -2.160156,-0.681641 l 0.445312,-0.53125 c 0.500732,0.348551 1.015479,0.650391 1.648438,0.650391 0.304208,0 0.566955,-0.04914 0.779297,-0.183594 0.212342,-0.134456 0.353515,-0.381198 0.353515,-0.638672 0,-0.21317 -0.113076,-0.47335 -0.339843,-0.628906 -0.225123,-0.154428 -0.538258,-0.2588 -1.029297,-0.376953 l -0.0078,-0.002 C 25.88827,21.54536 25.437551,21.389824 25.160156,21.175781 24.881178,20.960517 24.736328,20.706127 24.736328,20.1875 c 0,-0.446442 0.173428,-0.805813 0.478516,-1.070313 0.305087,-0.264499 0.750021,-0.429687 1.292968,-0.429687 z m -7.851562,0.07813 h 1.964844 c 1.69287,0 2.818359,1.104756 2.818359,2.583984 0,1.47984 -1.129462,2.625 -2.818359,2.625 H 18.65625 Z m 0.716797,0.599609 v 0.28125 3.765625 h 1.248047 c 0.585166,0 1.101273,-0.200882 1.46289,-0.5625 0.361618,-0.361617 0.560547,-0.875771 0.560547,-1.460937 0,-0.585166 -0.198929,-1.101274 -0.560547,-1.462891 -0.361617,-0.361617 -0.877724,-0.560547 -1.46289,-0.560547 z m 0.560547,0.560547 h 0.6875 c 0.460593,0 0.81809,0.148169 1.066406,0.396485 0.248316,0.248315 0.396484,0.605813 0.396484,1.066406 0,0.460593 -0.148168,0.816137 -0.396484,1.064453 -0.248316,0.248316 -0.605813,0.398438 -1.066406,0.398437 h -0.6875 z m -1.837891,8.84375 v 1.523438 h 6.333984 v -1.523438 h -0.279296 z m 0.560547,0.5625 h 5.212891 v 0.400391 H 18.65625 Z"
     id="path27" />
</svg>
