<?xml version="1.0" encoding="UTF-8" standalone="no"?>
<!-- Generator: Gravit.io -->

<svg
   style="isolation:isolate"
   viewBox="0 0 48 48"
   width="48pt"
   height="48pt"
   version="1.1"
   id="svg18"
   sodipodi:docname="dbeaver.svg"
   inkscape:version="1.1.2 (0a00cf5339, 2022-02-04)"
   xmlns:inkscape="http://www.inkscape.org/namespaces/inkscape"
   xmlns:sodipodi="http://sodipodi.sourceforge.net/DTD/sodipodi-0.dtd"
   xmlns:xlink="http://www.w3.org/1999/xlink"
   xmlns="http://www.w3.org/2000/svg"
   xmlns:svg="http://www.w3.org/2000/svg">
  <defs
     id="defs22">
    <linearGradient
       inkscape:collect="always"
       xlink:href="#_lgradient_3"
       id="linearGradient15"
       x1="-9.6850061"
       y1="45.161198"
       x2="11.98815"
       y2="21.735205"
       gradientUnits="userSpaceOnUse"
       gradientTransform="matrix(1.1147442,0,0,1.1150348,-0.01237238,-3.3277956)" />
    <linearGradient
       id="_lgradient_79"
       x1="0"
       y1="0.5"
       x2="1"
       y2="0.5"
       gradientTransform="matrix(28.821737,0,0,21.900217,9.5891307,15.236125)"
       gradientUnits="userSpaceOnUse">
      <stop
         offset="0%"
         stop-opacity="1"
         style="stop-color:rgb(84,51,255)"
         id="stop2-3" />
      <stop
         offset="51.73913043478261%"
         stop-opacity="1"
         style="stop-color:rgb(32,189,255)"
         id="stop4-6" />
      <stop
         offset="98.26086956521739%"
         stop-opacity="1"
         style="stop-color:rgb(165,254,203)"
         id="stop6-7" />
    </linearGradient>
    <linearGradient
       inkscape:collect="always"
       xlink:href="#_lgradient_3"
       id="linearGradient872"
       x1="-12.025727"
       y1="6.1170783"
       x2="-0.085100174"
       y2="6.1170783"
       gradientUnits="userSpaceOnUse"
       gradientTransform="matrix(3.8358211,0,0,3.8371386,-0.00544341,-0.00268054)" />
    <linearGradient
       inkscape:collect="always"
       xlink:href="#_lgradient_3"
       id="linearGradient1124"
       x1="10.914762"
       y1="12.639161"
       x2="37.344078"
       y2="35.912468"
       gradientUnits="userSpaceOnUse" />
    <linearGradient
       inkscape:collect="always"
       xlink:href="#_lgradient_4"
       id="linearGradient1461"
       x1="24.320292"
       y1="24.140652"
       x2="24.20344"
       y2="28.08638"
       gradientUnits="userSpaceOnUse" />
  </defs>
  <sodipodi:namedview
     id="namedview20"
     pagecolor="#ffffff"
     bordercolor="#666666"
     borderopacity="1.0"
     inkscape:pageshadow="2"
     inkscape:pageopacity="0.0"
     inkscape:pagecheckerboard="0"
     inkscape:document-units="pt"
     showgrid="false"
     inkscape:zoom="28.90299"
     inkscape:cx="32.055508"
     inkscape:cy="31.969011"
     inkscape:window-width="1600"
     inkscape:window-height="836"
     inkscape:window-x="0"
     inkscape:window-y="0"
     inkscape:window-maximized="1"
     inkscape:current-layer="svg18" />
  <linearGradient
     id="_lgradient_3"
     x1="-0.014458464773922156"
     y1="0.009839246119734024"
     x2="1.0164565923220248"
     y2="1.0722930524759795"
     gradientTransform="matrix(25.636755,0,0,21.905243,11.28543,12.42363)"
     gradientUnits="userSpaceOnUse">
    <stop
       offset="1.3043478260869565%"
       stop-opacity="1"
       style="stop-color:rgb(254,172,94)"
       id="stop2" />
    <stop
       offset="53.04347826086957%"
       stop-opacity="1"
       style="stop-color:rgb(199,121,208)"
       id="stop4" />
    <stop
       offset="99.56521739130434%"
       stop-opacity="1"
       style="stop-color:rgb(75,192,200)"
       id="stop6" />
  </linearGradient>
  <rect
     x="-46.783188"
     y="1.2253767"
     height="45.80014"
     rx="6.1837621"
     shape-rendering="crispEdges"
     id="rect5-6-7-3"
     ry="6.8055277"
     transform="matrix(0.00524063,-0.99998627,0.99998801,0.00489691,0,0)"
     style="isolation:isolate;fill:#ba00ff;fill-opacity:0.13470298;stroke:url(#linearGradient872);stroke-width:2.0301;stroke-miterlimit:4;stroke-dasharray:none;stroke-opacity:1"
     width="45.801998" />
  <rect
     x="-15.686804"
     y="17.260084"
     height="33.345856"
     rx="6.7920032"
     shape-rendering="crispEdges"
     id="rect5-6-6-6-6"
     style="isolation:isolate;fill:#ba00ff;fill-opacity:0.13470298;stroke:url(#linearGradient15);stroke-width:1.67233;stroke-miterlimit:4;stroke-dasharray:none;stroke-opacity:1"
     ry="7.4743071"
     transform="matrix(0.72446484,-0.68931175,0.68622417,0.72739012,0,0)"
     width="33.338203" />
  <path
     style="color:#000000;fill:url(#linearGradient1124);fill-rule:evenodd;-inkscape-stroke:none"
     d="m 16.960937,11.925781 c -0.900417,-0.0059 -1.786354,0.262892 -2.535156,0.775391 L 13.875,13.074219 h -0.002 l -0.128906,0.08984 -0.207032,0.138671 v 0.09961 c -1.086435,0.880886 -1.770494,2.173202 -1.759765,3.582031 v 0.002 c 5e-6,6.52e-4 -6e-6,0.0013 0,0.002 5.69e-4,0.674908 0.206457,1.323904 0.498047,1.929688 v 0.132812 l 0.0957,0.179688 0.105469,0.189453 c -1.075139,1.802995 -1.691407,3.858854 -1.691407,5.992187 v 7.166016 c 0,0.75416 0.622793,1.375 1.376953,1.375 0.754159,0 1.375,-0.62084 1.375,-1.375 v -7.166016 c 0,-2.378169 0.946257,-4.670865 2.626953,-6.351562 1.681669,-1.68167 3.967535,-2.626953 6.345704,-2.626953 h 3.1875 c 2.378169,0 4.664034,0.945283 6.345703,2.626953 1.680697,1.680697 2.626953,3.973393 2.626953,6.351562 v 7.166016 c 0,0.75416 0.622794,1.375 1.376953,1.375 0.75416,0 1.375,-0.62084 1.375,-1.375 v -7.166016 c 0,-2.258785 -0.689369,-4.430641 -1.888672,-6.304687 0.344721,-0.651126 0.540389,-1.376587 0.541016,-2.119141 v -0.002 c 0.01132,-1.409545 -0.672828,-2.702691 -1.759766,-3.583984 v -0.09766 l -0.207031,-0.140625 -0.0918,-0.06445 -0.03711,-0.02539 -0.673829,-0.460938 h -0.160156 l 0.28125,0.08789 c -0.747647,-0.511709 -1.629576,-0.781238 -2.535156,-0.775391 -1.271604,-0.01128 -2.452008,0.556007 -3.316406,1.47461 h -0.08984 l -0.220703,0.27539 -0.02344,0.0293 -0.0098,0.01172 -0.06055,0.07617 c -0.486955,-0.062 -0.977019,-0.111328 -1.472656,-0.111328 h -3.1875 c -0.603031,0 -1.198067,0.071 -1.78711,0.162109 l -0.101562,-0.126953 -0.0332,-0.04102 -0.220704,-0.27539 h -0.0918 c -0.864605,-0.917818 -2.043305,-1.485888 -3.314454,-1.47461 z m -0.0039,0.998047 h 0.0059 0.0039 c 1.069302,-0.01051 2.086527,0.466486 2.767578,1.291016 l -0.0039,-0.0098 c 0.0028,0.0023 0.01521,0.01243 0.02148,0.01758 l -0.01563,-0.0078 0.07031,0.08789 0.488281,0.605469 0.292969,-0.05273 c 0.630437,-0.11472 1.273866,-0.173828 1.921875,-0.173828 h 3.1875 c 0.545313,0 1.089207,0.04315 1.623046,0.125 l 0.285157,0.04297 0.439453,-0.546875 0.07031,-0.08789 -0.01367,0.0078 c 0.01,-0.01451 0.01233,-0.02003 0.02539,-0.03906 l -0.01172,0.03125 c 0.680375,-0.824291 1.700232,-1.301527 2.769532,-1.291016 h 0.0039 0.0059 c 0.704171,-0.0052 1.384731,0.203182 1.966797,0.601563 l 0.126953,0.08789 h 0.0059 l 0.539062,0.367188 -0.01367,-0.02344 c 0.01908,0.01682 0.02946,0.025 0.04102,0.03516 l -0.02539,-0.0078 c 0.97392,0.681839 1.549135,1.804704 1.539063,2.996094 v 0.002 0.002 c 0,0.588527 -0.150189,1.167366 -0.425782,1.679687 l -0.04492,0.08203 -0.208985,0.376953 0.171875,0.255859 c 1.201226,1.767185 1.855469,3.8657 1.855469,6.033203 v 7.166016 c 0,0.212401 -0.162599,0.375 -0.375,0.375 -0.212398,0 -0.376953,-0.162599 -0.376953,-0.375 v -7.166016 c 0,-2.643358 -1.05075,-5.189422 -2.919922,-7.058593 -1.86929,-1.869291 -4.409376,-2.919922 -7.052734,-2.919922 h -3.1875 c -2.643358,0 -5.183445,1.050631 -7.052735,2.919922 -1.869171,1.869171 -2.919922,4.415235 -2.919922,7.058593 v 7.166016 c 0,0.212401 -0.162602,0.375 -0.375,0.375 -0.212401,0 -0.376953,-0.162599 -0.376953,-0.375 v -7.166016 c 0,-2.05386 0.587894,-4.046637 1.671875,-5.753906 l 0.486328,-0.767578 H 13.32824 l -0.05273,-0.09375 v -0.002 -0.0059 L 13.21106,18.675776 C 12.926129,18.161569 12.777466,17.578367 12.777466,16.98437 v -0.002 -0.002 c -0.01008,-1.191387 0.565143,-2.314255 1.539062,-2.996094 l -0.0293,0.0098 c 0.01169,-0.01027 0.02252,-0.02103 0.04297,-0.03906 l -0.01367,0.02734 0.671875,-0.457031 h 0.002 c 0.580911,-0.39759 1.269426,-0.606796 1.966797,-0.601563 z m -3.291015,0.330078 c -0.02207,0.01634 -0.03101,0.04385 -0.05274,0.06055 7.58e-4,-0.0026 0.0059,-0.01959 0.0059,-0.01953 -1.38e-4,2.06e-4 0.02964,-0.02584 0.04687,-0.04102 z m 20.519531,0 c 0.01723,0.01518 0.04701,0.04122 0.04687,0.04102 -4e-5,-6e-5 0.0051,0.01697 0.0059,0.01953 -0.02172,-0.0167 -0.03067,-0.04421 -0.05273,-0.06055 z m -6.736328,0.244141 c -0.02059,0.02351 -0.05212,0.03266 -0.07227,0.05664 0.0035,-0.0051 0.01565,-0.02346 0.01563,-0.02344 -5.9e-5,5.4e-5 0.03207,-0.0188 0.05664,-0.0332 z M 16.96485,13.677734 c -0.554388,-0.0052 -1.098424,0.15698 -1.554688,0.470704 L 14.75,14.599609 l -0.002,0.002 c -0.776197,0.543402 -1.231954,1.435477 -1.21875,2.380859 4.94e-4,0.36208 0.07191,0.72206 0.205078,1.058594 l 0.289063,0.730468 0.539062,-0.570312 c 0.122291,-0.129325 0.24171,-0.255901 0.363281,-0.376953 h 0.002 c 1.108908,-1.108907 2.43923,-1.952188 3.886719,-2.484375 L 19.537109,15.074219 19,14.521484 c -0.530656,-0.545196 -1.265296,-0.855229 -2.035156,-0.84375 z m 13.919922,0 c -0.716203,-0.01043 -1.40175,0.257813 -1.919922,0.736329 l -0.619141,0.572265 0.798828,0.269531 c 1.544141,0.520965 2.964217,1.395857 4.136719,2.56836 l 0.002,0.002 c 0.02869,0.02824 0.05689,0.05691 0.08594,0.08789 l 0.576171,0.615235 0.263672,-0.800781 c 0.08155,-0.247476 0.11236,-0.500833 0.109375,-0.748047 0.01174,-0.944036 -0.437463,-1.833574 -1.207031,-2.376953 l -0.0039,-0.0039 -0.667969,-0.451171 c -0.456787,-0.314083 -0.999637,-0.47633 -1.554687,-0.470704 z m -13.923829,0.998047 h 0.0078 0.0078 c 0.191892,-0.0033 0.33068,0.154431 0.509766,0.210938 -1.038287,0.495927 -2.00718,1.120859 -2.867187,1.908203 0.05159,-0.53804 0.251941,-1.058549 0.701172,-1.373047 l 0.65625,-0.447266 0.002,-0.002 c 0.288234,-0.198187 0.629419,-0.301525 0.982421,-0.296875 z m 13.914063,0 h 0.0078 0.0078 c 0.353003,-0.0046 0.694187,0.09869 0.982422,0.296875 l 0.002,0.002 0.658203,0.445313 c 0.293589,0.207298 0.328564,0.584106 0.460938,0.908203 -0.763134,-0.612462 -1.58367,-1.118418 -2.466825,-1.519578 0.124153,-0.02534 0.218556,-0.135086 0.347656,-0.132813 z M 18.847656,18.9375 c -0.825644,0 -1.625098,0.325991 -2.210937,0.917969 -0.592109,0.585969 -0.916016,1.385293 -0.916016,2.210937 0,0.825645 0.32404,1.623145 0.916016,2.208985 0.585839,0.591977 1.385293,0.917968 2.210937,0.917968 0.825645,0 1.624968,-0.32586 2.210938,-0.917968 0.591976,-0.58584 0.917969,-1.383341 0.917968,-2.208985 0,-0.825644 -0.325859,-1.624967 -0.917968,-2.210937 C 20.472624,19.26336 19.673301,18.9375 18.847656,18.9375 Z m 10.511719,0 c -0.825645,0 -1.624967,0.32586 -2.210938,0.917969 -0.592109,0.58597 -0.916015,1.385293 -0.916015,2.210937 0,0.825644 0.324039,1.623145 0.916015,2.208985 0.585971,0.592108 1.385293,0.917968 2.210938,0.917968 0.825644,0 1.625099,-0.325991 2.210937,-0.917968 0.591977,-0.58584 0.917969,-1.38334 0.917969,-2.208985 0,-0.825644 -0.325859,-1.624968 -0.917969,-2.210937 C 30.984474,19.263491 30.185019,18.9375 29.359375,18.9375 Z m -10.511719,1 c 0.563313,0 1.107349,0.223615 1.501953,0.623047 l 0.002,0.002 0.002,0.002 c 0.39943,0.394602 0.623046,0.938641 0.623046,1.501953 0,0.563314 -0.223483,1.105266 -0.623046,1.5 l -0.002,0.002 -0.002,0.002 c -0.394604,0.399432 -0.93864,0.623047 -1.501953,0.623047 -0.563311,0 -1.10722,-0.223484 -1.501953,-0.623047 l -0.002,-0.002 -0.002,-0.002 c -0.399564,-0.394734 -0.621094,-0.936687 -0.621094,-1.5 0,-0.563311 0.221663,-1.10735 0.621094,-1.501953 l 0.002,-0.002 0.002,-0.002 C 17.740436,20.160984 18.284345,19.9375 18.847656,19.9375 Z m 10.511719,0 c 0.563312,0 1.10722,0.223484 1.501953,0.623047 l 0.002,0.002 0.002,0.002 c 0.399431,0.394603 0.623047,0.938642 0.623047,1.501953 0,0.563313 -0.223483,1.105266 -0.623047,1.5 l -0.002,0.002 -0.002,0.002 c -0.394733,0.399563 -0.938641,0.623047 -1.501953,0.623047 -0.563313,0 -1.107349,-0.223615 -1.501953,-0.623047 l -0.002,-0.002 -0.002,-0.002 c -0.399564,-0.394734 -0.621094,-0.936686 -0.621094,-1.5 0,-0.563312 0.221663,-1.107351 0.621094,-1.501953 l 0.002,-0.002 0.002,-0.002 c 0.394604,-0.399432 0.93864,-0.623047 1.501953,-0.623047 z m -10.511719,0.751953 c -0.366635,0 -0.716474,0.147258 -0.972656,0.404297 -0.255965,0.255959 -0.402344,0.605792 -0.402344,0.972656 0,0.365747 0.146464,0.714691 0.402344,0.970703 4.38e-4,4.4e-4 0.0015,-4.38e-4 0.002,0 4.4e-4,4.4e-4 -4.4e-4,0.0015 0,0.002 0.255622,0.255497 0.604179,0.402344 0.970703,0.402344 0.36765,0 0.716869,-0.147656 0.972656,-0.404297 0.256231,-0.256066 0.404297,-0.604701 0.404297,-0.970703 0,-0.36687 -0.14834,-0.716701 -0.404297,-0.972656 C 19.564175,20.83675 19.214568,20.6895 18.847703,20.6895 Z m 10.511719,0 c -0.36687,0 -0.716475,0.14726 -0.972656,0.404297 -0.255967,0.255959 -0.402344,0.605792 -0.402344,0.972656 0,0.365747 0.146462,0.714691 0.402344,0.970703 4.38e-4,4.4e-4 0.0015,-4.38e-4 0.002,0 4.39e-4,4.4e-4 -4.4e-4,0.0015 0,0.002 0.255623,0.255495 0.603946,0.402344 0.970703,0.402344 0.367416,0 0.716868,-0.147654 0.972656,-0.404297 0.256229,-0.256065 0.404297,-0.604701 0.404297,-0.970703 0,-0.36687 -0.148342,-0.716701 -0.404297,-0.972656 C 30.075893,20.836748 29.726051,20.6895 29.359422,20.6895 Z m -10.511719,1 c 0.101143,0 0.195622,0.03914 0.265625,0.109375 v 0.002 c 0.07132,0.07132 0.111328,0.164488 0.111328,0.265625 0,0.100286 -0.04109,0.193669 -0.111328,0.263672 v 0.002 c -0.0704,0.07063 -0.165267,0.109375 -0.265625,0.109375 -0.0995,0 -0.193275,-0.03874 -0.263672,-0.109375 l -0.002,-0.002 c -0.07024,-0.07001 -0.109375,-0.163391 -0.109375,-0.263672 0,-0.101143 0.03806,-0.194308 0.109375,-0.265625 h 0.002 v -0.002 c 0.07,-0.07024 0.163392,-0.109375 0.263672,-0.109375 z m 10.511719,0 c 0.100286,0 0.195624,0.03914 0.265625,0.109375 v 0.002 c 0.07132,0.07132 0.111328,0.164488 0.111328,0.265625 0,0.100286 -0.04109,0.193669 -0.111328,0.263672 v 0.002 c -0.0704,0.07063 -0.166126,0.109375 -0.265625,0.109375 -0.100359,0 -0.193273,-0.03874 -0.263672,-0.109375 l -0.002,-0.002 c -0.07024,-0.07001 -0.109375,-0.163391 -0.109375,-0.263672 0,-0.101143 0.03806,-0.194308 0.109375,-0.265625 l 0.002,-0.002 c 0.07001,-0.07024 0.162535,-0.109375 0.263672,-0.109375 z m -7.722656,3.097656 c -0.436154,-0.01328 -0.831801,0.169754 -1.126953,0.431641 -0.295153,0.261887 -0.512307,0.597563 -0.683594,0.958984 -0.342574,0.722842 -0.503906,1.555917 -0.503906,2.234375 0,0.710592 0.317674,1.328998 0.777343,1.804688 v 0.02344 4.589844 h 3.419922 1.167969 3.419922 v -4.589844 -0.02344 c 0.459798,-0.47571 0.779297,-1.093983 0.779297,-1.804688 0,-0.673077 -0.153426,-1.458702 -0.490235,-2.138672 -0.336808,-0.679969 -0.922011,-1.31087 -1.757812,-1.335937 z m -0.0293,0.998047 3.059887,-0.780007 1.942066,0.932351 c 0.346215,0.01038 0.641743,0.276839 0.890625,0.779297 0.248882,0.502458 0.386719,1.185827 0.386719,1.695312 0,0.513156 -0.232566,0.964175 -0.597657,1.265625 l -0.18164,0.150391 v 0.234375 0.177734 3.589844 H 24.6875 23.519531 21.099609 v -3.589844 -0.412109 l -0.18164,-0.150391 c -0.365091,-0.30145 -0.595703,-0.752469 -0.595703,-1.265625 0,-0.504104 0.145995,-1.253373 0.408203,-1.80664 0.131104,-0.276634 0.290091,-0.502678 0.443359,-0.638672 0.153269,-0.135994 0.278739,-0.186357 0.433594,-0.181641 z m 2.287109,3.316406 -0.142578,0.13086 c 0,0 -0.989661,0.820312 -1.789062,0.820312 -0.04916,0 -0.100889,-0.0014 -0.152344,-0.0059 L 21.267578,30 v 3.660156 h 2.751953 v -2.251953 -0.08203 H 24.1875 v 0.08203 2.251953 h 2.751953 V 30 l -0.542969,0.04687 c -0.05249,0.0044 -0.101734,0.0059 -0.15039,0.0059 -0.799688,-0.0012 -1.789063,-0.820312 -1.789063,-0.820312 l -0.142578,-0.13086 z m 0.208985,1.113282 c 0.04652,0.03918 0.08335,0.0618 0.148437,0.111328 h -0.294922 c 0.06441,-0.04904 0.100254,-0.0724 0.146485,-0.111328 z m 1.083984,0.509765 c 0.242827,0.09834 0.467464,0.197016 0.751953,0.234375 v 1.701172 H 25.1875 v -1.251953 z m -2.167969,0.002 v 0.681641 1.251953 h -0.751953 v -1.701172 c 0.284375,-0.03699 0.509144,-0.134311 0.751953,-0.232422 z"
     id="path9"
     sodipodi:nodetypes="ccccccccccccccsssssssssssssscsccccccccccccccccsscccccccccccccccccsscccccccccccccccccccsccccsssssssssssssscccccccsccccccccccccccccscccccsccccccccccccccccccccsccccccccccccccccccccccccccccscscscscscsscscscscsscccscccscccscccsscccscccscccscccsccssccscscccccssccscscccsccsccsssscccssccsccssssssscsssccccccccsscccccsscccccccccccsssscccscccccccccccccccccccccccccccccccc" />
  <linearGradient
     id="_lgradient_4"
     x1="0.54298682191"
     y1="-0.2655597284837264"
     x2="0.5197544986776772"
     y2="0.9833570139497876"
     gradientTransform="matrix(5.029713,0,0,3.1593209,21.589223,24.97964)"
     gradientUnits="userSpaceOnUse">
    <stop
       offset="3.0434782608695654%"
       stop-opacity="1"
       style="stop-color:rgb(166,124,243)"
       id="stop11" />
    <stop
       offset="98.69565217391305%"
       stop-opacity="1"
       style="stop-color:rgb(88,78,123)"
       id="stop13" />
  </linearGradient>
  <path
     style="color:#000000;fill:url(#linearGradient1461);-inkscape-stroke:none"
     d="m 24.130859,24.480469 c -0.523299,0 -1.123946,-0.02052 -1.68164,0.08984 -0.278847,0.05518 -0.55518,0.14295 -0.800782,0.31836 -0.245601,0.17541 -0.447286,0.45597 -0.521484,0.785156 -0.188408,0.834032 0.32199,1.572573 0.927734,2.087891 0.605745,0.515317 1.350669,0.876953 2.076172,0.876953 0.727726,0 1.462533,-0.367984 2.054688,-0.886719 0.592155,-0.518735 1.082376,-1.256485 0.894531,-2.080078 -0.07344,-0.321933 -0.268555,-0.596363 -0.507812,-0.771484 -0.239258,-0.175122 -0.508306,-0.267374 -0.78125,-0.324219 -0.545889,-0.11369 -1.134124,-0.0957 -1.660157,-0.0957 z m 0,1 c 0.538164,0 1.083637,-0.0012 1.455078,0.07617 0.185721,0.03868 0.320302,0.09606 0.394532,0.15039 0.07423,0.05433 0.10244,0.08861 0.125,0.1875 0.06471,0.283696 -0.143901,0.723373 -0.580078,1.105469 -0.436178,0.382096 -1.057516,0.638672 -1.394532,0.638672 -0.338693,0 -0.978418,-0.256431 -1.427734,-0.638672 -0.449316,-0.382241 -0.666248,-0.819121 -0.601563,-1.105469 0.02262,-0.100365 0.05095,-0.135727 0.128907,-0.191406 0.07796,-0.05568 0.219268,-0.114182 0.412109,-0.152344 0.385683,-0.07632 0.947384,-0.07031 1.488281,-0.07031 z"
     id="path16" />
</svg>
