<?xml version="1.0" encoding="UTF-8" standalone="no"?>
<!-- Generator: Gravit.io -->

<svg
   style="isolation:isolate"
   viewBox="0 0 48 48"
   width="48pt"
   height="48pt"
   version="1.1"
   id="svg11"
   sodipodi:docname="deepin-calculator.svg"
   inkscape:version="1.1.2 (0a00cf5339, 2022-02-04)"
   xmlns:inkscape="http://www.inkscape.org/namespaces/inkscape"
   xmlns:sodipodi="http://sodipodi.sourceforge.net/DTD/sodipodi-0.dtd"
   xmlns:xlink="http://www.w3.org/1999/xlink"
   xmlns="http://www.w3.org/2000/svg"
   xmlns:svg="http://www.w3.org/2000/svg">
  <defs
     id="defs15">
    <linearGradient
       inkscape:collect="always"
       xlink:href="#_lgradient_48"
       id="linearGradient15"
       x1="-9.6850061"
       y1="45.161198"
       x2="11.98815"
       y2="21.735205"
       gradientUnits="userSpaceOnUse"
       gradientTransform="matrix(1.1147442,0,0,1.1150348,-0.01237238,-3.3277956)" />
    <linearGradient
       id="_lgradient_79"
       x1="0"
       y1="0.5"
       x2="1"
       y2="0.5"
       gradientTransform="matrix(28.821737,0,0,21.900217,9.5891307,15.236125)"
       gradientUnits="userSpaceOnUse">
      <stop
         offset="0%"
         stop-opacity="1"
         style="stop-color:rgb(84,51,255)"
         id="stop2-3" />
      <stop
         offset="51.73913043478261%"
         stop-opacity="1"
         style="stop-color:rgb(32,189,255)"
         id="stop4-6" />
      <stop
         offset="98.26086956521739%"
         stop-opacity="1"
         style="stop-color:rgb(165,254,203)"
         id="stop6-7" />
    </linearGradient>
    <linearGradient
       inkscape:collect="always"
       xlink:href="#_lgradient_48"
       id="linearGradient872"
       x1="-12.025727"
       y1="6.1170783"
       x2="-0.085100174"
       y2="6.1170783"
       gradientUnits="userSpaceOnUse"
       gradientTransform="matrix(3.8358211,0,0,3.8371386,-0.00544341,-0.00268054)" />
    <linearGradient
       inkscape:collect="always"
       xlink:href="#_lgradient_79"
       id="linearGradient1113"
       x1="9.0740004"
       y1="22.962999"
       x2="38.662998"
       y2="22.962999"
       gradientUnits="userSpaceOnUse"
       gradientTransform="matrix(0.78848194,0,0,0.78001407,5.1803829,6.0881225)" />
  </defs>
  <sodipodi:namedview
     id="namedview13"
     pagecolor="#ffffff"
     bordercolor="#666666"
     borderopacity="1.0"
     inkscape:pageshadow="2"
     inkscape:pageopacity="0.0"
     inkscape:pagecheckerboard="0"
     inkscape:document-units="pt"
     showgrid="false"
     inkscape:zoom="5.109375"
     inkscape:cx="31.902141"
     inkscape:cy="30.825688"
     inkscape:window-width="1305"
     inkscape:window-height="545"
     inkscape:window-x="285"
     inkscape:window-y="322"
     inkscape:window-maximized="0"
     inkscape:current-layer="svg11" />
  <linearGradient
     id="_lgradient_48"
     x1="0.042613636363636354"
     y1="0.9801136363636365"
     x2="0.9992457763475459"
     y2="0.49150241351568724"
     gradientTransform="matrix(44,0,0,44,2,2)"
     gradientUnits="userSpaceOnUse">
    <stop
       offset="0%"
       stop-opacity="1"
       style="stop-color:rgb(84,51,255)"
       id="stop2" />
    <stop
       offset="51.73913043478261%"
       stop-opacity="1"
       style="stop-color:rgb(32,189,255)"
       id="stop4" />
    <stop
       offset="98.26086956521739%"
       stop-opacity="1"
       style="stop-color:rgb(165,254,203)"
       id="stop6" />
  </linearGradient>
  <rect
     x="-46.783188"
     y="1.2253767"
     height="45.80014"
     rx="6.1837621"
     shape-rendering="crispEdges"
     id="rect5-6-7-3"
     ry="6.8055277"
     transform="matrix(0.00524063,-0.99998627,0.99998801,0.00489691,0,0)"
     style="isolation:isolate;fill:#00dbff;fill-opacity:0.134703;stroke:url(#linearGradient872);stroke-width:2.0301;stroke-miterlimit:4;stroke-dasharray:none;stroke-opacity:1"
     width="45.801998" />
  <rect
     x="-15.686804"
     y="17.260084"
     height="33.345856"
     rx="6.7920032"
     shape-rendering="crispEdges"
     id="rect5-6-6-6-6"
     style="isolation:isolate;fill:#00dbff;fill-opacity:0.134703;stroke:url(#linearGradient15);stroke-width:1.67233;stroke-miterlimit:4;stroke-dasharray:none;stroke-opacity:1"
     ry="7.4743071"
     transform="matrix(0.72446484,-0.68931175,0.68622417,0.72739012,0,0)"
     width="33.338203" />
  <path
     style="color:#000000;fill:url(#linearGradient1113);fill-rule:evenodd;stroke-width:0.784234;-inkscape-stroke:none"
     d="m 16.848992,13.157 c -0.64855,0 -1.182723,0.528436 -1.182723,1.170021 v 2.542664 h -2.542546 c -0.648551,0 -1.182723,0.528434 -1.182723,1.170021 V 18.5653 c 0,0.641586 0.534172,1.170022 1.182723,1.170022 h 2.542546 v 2.495435 c 0,0.641586 0.534173,1.170021 1.182723,1.170021 h 0.531301 c 0.648551,0 1.182723,-0.528435 1.182723,-1.170021 v -2.495435 h 2.541007 c 0.64855,0 1.182722,-0.528436 1.182722,-1.170022 v -0.525594 c 0,-0.641587 -0.534172,-1.170021 -1.182722,-1.170021 h -2.541007 v -2.542664 c 0,-0.641585 -0.534172,-1.170021 -1.182723,-1.170021 z m 11.82877,0.543877 c -0.329847,0 -0.650409,0.136992 -0.890123,0.367156 -0.244417,0.23468 -0.388081,0.562028 -0.388081,0.897319 1e-6,0.340947 0.150259,0.668146 0.398862,0.914079 l 1.920385,2.06582 -2.057445,2.215118 0.01232,-0.01066 c -0.248604,0.245933 -0.400402,0.573134 -0.400402,0.914079 0,0.329259 0.144612,0.648849 0.383461,0.885133 0.23885,0.236284 0.561909,0.379342 0.894743,0.379342 0.361825,0 0.707203,-0.166733 0.964042,-0.434187 l 0.0031,-0.003 1.934245,-2.117616 1.923466,2.106951 c 3.16e-4,3.67e-4 0.0012,-3.66e-4 0.0016,0 0.247886,0.285499 0.603626,0.463134 0.976362,0.463134 0.341789,0 0.672584,-0.146475 0.913222,-0.391531 0.236256,-0.240592 0.380381,-0.55892 0.380381,-0.888179 0,-0.340946 -0.151798,-0.668147 -0.400402,-0.91408 l -2.060524,-2.205977 1.931165,-2.074959 -0.01232,0.01066 c 0.248604,-0.245934 0.400402,-0.573134 0.400401,-0.914079 0,-0.332467 -0.13753,-0.657079 -0.37576,-0.89275 -0.23823,-0.235673 -0.566367,-0.371726 -0.902442,-0.371726 -0.361826,0 -0.707205,0.166733 -0.964043,0.434187 l -0.0031,0.003 -1.807964,1.963746 -1.809504,-1.963746 -0.0016,-0.003 c -0.256838,-0.2675 -0.602217,-0.434234 -0.964042,-0.434234 z m -11.82877,0.236137 h 0.531301 c 0.221934,0 0.394241,0.170458 0.394241,0.390007 v 3.322677 h 3.329489 c 0.221933,0 0.39424,0.170458 0.39424,0.390008 V 18.5653 c 0,0.21955 -0.172307,0.390008 -0.39424,0.390008 h -3.329489 v 3.275449 c 0,0.21955 -0.172307,0.390006 -0.394241,0.390006 h -0.531301 c -0.221933,0 -0.394241,-0.170456 -0.394241,-0.390006 v -3.275449 h -3.331028 c -0.221933,0 -0.394241,-0.170458 -0.394241,-0.390008 v -0.525594 c 0,-0.21955 0.172308,-0.390008 0.394241,-0.390008 h 3.331028 v -3.322677 c 0,-0.219549 0.172308,-0.390007 0.394241,-0.390007 z m 11.82877,0.543877 c 0.142803,0 0.248502,0.04187 0.39116,0.190433 l 2.383927,2.588368 2.383926,-2.588368 c 0.141981,-0.147414 0.248809,-0.190433 0.391161,-0.190433 0.147525,0 0.236259,0.03568 0.344961,0.143205 0.108701,0.107535 0.14476,0.195315 0.14476,0.341256 0,0.137465 -0.03954,0.234112 -0.1694,0.362586 l -0.0061,0.0061 -2.427047,2.611219 2.570267,2.749854 0.0047,0.0061 c 0.129867,0.128473 0.169401,0.225121 0.169401,0.362584 0,0.128348 -0.03589,0.222413 -0.157081,0.345827 -0.116807,0.11895 -0.206228,0.15387 -0.348041,0.15387 -0.152439,0 -0.248298,-0.04129 -0.378841,-0.191957 l -0.003,-0.003 -2.519447,-2.757473 -2.510205,2.746808 c -4.53e-4,4.71e-4 -0.0011,-4.69e-4 -0.0016,0 -0.141981,0.147412 -0.247271,0.190432 -0.389622,0.190432 -0.12974,0 -0.218665,-0.03351 -0.33726,-0.150822 -0.118597,-0.117322 -0.152461,-0.205292 -0.152461,-0.333638 0,-0.137464 0.03954,-0.234112 0.1694,-0.362585 l 0.0047,-0.0061 2.553327,-2.751378 -2.427046,-2.609696 -0.0061,-0.0061 c -0.129867,-0.128473 -0.167859,-0.22512 -0.16786,-0.362585 0,-0.143116 0.03635,-0.228161 0.149381,-0.336685 0.117732,-0.113043 0.207614,-0.147776 0.340341,-0.147776 z m -1.335184,14.081386 c -0.64855,0 -1.182723,0.528436 -1.182723,1.170021 v 0.819625 c 0,0.623222 0.51169,1.121162 1.134983,1.150216 -0.623293,0.02905 -1.134983,0.526994 -1.134983,1.150216 v 0.819624 c 0,0.641585 0.534173,1.170021 1.182723,1.170021 h 7.533699 c 0.648551,0 1.182723,-0.528436 1.182723,-1.170021 v -0.819624 c 0,-0.623222 -0.511689,-1.121163 -1.134982,-1.150216 0.623293,-0.02905 1.134982,-0.526994 1.134982,-1.150216 v -0.819625 c 0,-0.641585 -0.534172,-1.170021 -1.182723,-1.170021 z m 0,0.780015 h 7.533699 c 0.221933,0 0.394241,0.170458 0.394241,0.390006 v 0.819625 c 0,0.21955 -0.172308,0.390007 -0.394241,0.390007 h -7.533699 c -0.221932,0 -0.394241,-0.170457 -0.394241,-0.390007 v -0.819625 c 0,-0.219548 0.172309,-0.390006 0.394241,-0.390006 z m -14.192675,2.340042 c -0.64855,0 -1.182723,0.528435 -1.182723,1.170021 v 0.819624 c 0,0.641585 0.534173,1.170021 1.182723,1.170021 h 7.533698 c 0.648551,0 1.182724,-0.528436 1.182724,-1.170021 v -0.819624 c 0,-0.641586 -0.534173,-1.170021 -1.182724,-1.170021 z m 0,0.780014 h 7.533698 c 0.221933,0 0.394242,0.170458 0.394242,0.390007 v 0.819624 c 0,0.219549 -0.172309,0.390007 -0.394242,0.390007 h -7.533698 c -0.221933,0 -0.394241,-0.170458 -0.394241,-0.390007 v -0.819624 c 0,-0.219549 0.172308,-0.390007 0.394241,-0.390007 z m 14.192675,0 h 7.533699 c 0.221933,0 0.394241,0.170458 0.394241,0.390007 v 0.819624 c 0,0.219549 -0.172308,0.390007 -0.394241,0.390007 h -7.533699 c -0.221932,0 -0.394241,-0.170458 -0.394241,-0.390007 v -0.819624 c 0,-0.219549 0.172309,-0.390007 0.394241,-0.390007 z"
     id="path9" />
</svg>
