<?xml version="1.0" encoding="UTF-8" standalone="no"?>
<!-- Generator: Gravit.io -->

<svg
   style="isolation:isolate"
   viewBox="0 0 48 48"
   width="48pt"
   height="48pt"
   version="1.1"
   id="svg9"
   sodipodi:docname="diodon.svg"
   inkscape:version="1.1.2 (0a00cf5339, 2022-02-04)"
   xmlns:inkscape="http://www.inkscape.org/namespaces/inkscape"
   xmlns:sodipodi="http://sodipodi.sourceforge.net/DTD/sodipodi-0.dtd"
   xmlns:xlink="http://www.w3.org/1999/xlink"
   xmlns="http://www.w3.org/2000/svg"
   xmlns:svg="http://www.w3.org/2000/svg">
  <defs
     id="defs13">
    <linearGradient
       inkscape:collect="always"
       xlink:href="#_lgradient_14"
       id="linearGradient15"
       x1="-9.6850061"
       y1="45.161198"
       x2="11.98815"
       y2="21.735205"
       gradientUnits="userSpaceOnUse"
       gradientTransform="matrix(1.1147442,0,0,1.1150348,-0.01237238,-3.3277956)" />
    <linearGradient
       id="_lgradient_8"
       x1="0.48629385"
       y1="1.027172"
       x2="0.50721693"
       y2="-0.034772921"
       gradientTransform="matrix(25.500238,0,0,32.154906,11.249881,6.4225604)"
       gradientUnits="userSpaceOnUse">
      <stop
         offset="0%"
         stop-opacity="1"
         style="stop-color:rgb(84,51,255)"
         id="stop2-3" />
      <stop
         offset="51.73913043478261%"
         stop-opacity="1"
         style="stop-color:rgb(32,189,255)"
         id="stop4-6" />
      <stop
         offset="98.26086956521739%"
         stop-opacity="1"
         style="stop-color:rgb(165,254,203)"
         id="stop6" />
    </linearGradient>
    <linearGradient
       inkscape:collect="always"
       xlink:href="#_lgradient_14"
       id="linearGradient872"
       x1="-12.025727"
       y1="6.1170783"
       x2="-0.085100174"
       y2="6.1170783"
       gradientUnits="userSpaceOnUse"
       gradientTransform="matrix(3.8358211,0,0,3.8371386,-0.00544341,-0.00268054)" />
    <linearGradient
       inkscape:collect="always"
       xlink:href="#_lgradient_14"
       id="linearGradient1169"
       x1="13.708797"
       y1="14.048333"
       x2="35.520264"
       y2="34.236092"
       gradientUnits="userSpaceOnUse" />
  </defs>
  <sodipodi:namedview
     id="namedview11"
     pagecolor="#ffffff"
     bordercolor="#666666"
     borderopacity="1.0"
     inkscape:pageshadow="2"
     inkscape:pageopacity="0.0"
     inkscape:pagecheckerboard="0"
     inkscape:document-units="pt"
     showgrid="false"
     inkscape:zoom="5.109375"
     inkscape:cx="32"
     inkscape:cy="32.097859"
     inkscape:window-width="1600"
     inkscape:window-height="836"
     inkscape:window-x="0"
     inkscape:window-y="0"
     inkscape:window-maximized="1"
     inkscape:current-layer="svg9" />
  <linearGradient
     id="_lgradient_14"
     x1="0.061897106109324806"
     y1="0.14716151924516707"
     x2="0.9904248356713994"
     y2="0.9865808764728623"
     gradientTransform="matrix(23.490377,0,0,24.049671,12.254811,10.509147)"
     gradientUnits="userSpaceOnUse">
    <stop
       offset="0%"
       stop-opacity="1"
       style="stop-color:rgb(22,181,228)"
       id="stop2" />
    <stop
       offset="98.26086956521739%"
       stop-opacity="1"
       style="stop-color:rgb(245,32,250)"
       id="stop4" />
  </linearGradient>
  <rect
     x="-46.783188"
     y="1.2253767"
     height="45.80014"
     rx="6.1837621"
     shape-rendering="crispEdges"
     id="rect5-6-7-3"
     ry="6.8055277"
     transform="matrix(0.00524063,-0.99998627,0.99998801,0.00489691,0,0)"
     style="isolation:isolate;fill:#ab00ff;fill-opacity:0.13470298;stroke:url(#linearGradient872);stroke-width:2.0301;stroke-miterlimit:4;stroke-dasharray:none;stroke-opacity:1"
     width="45.801998" />
  <rect
     x="-15.686804"
     y="17.260084"
     height="33.345856"
     rx="6.7920032"
     shape-rendering="crispEdges"
     id="rect5-6-6-6-6"
     style="isolation:isolate;fill:#ab00ff;fill-opacity:0.13470298;stroke:url(#linearGradient15);stroke-width:1.67233;stroke-miterlimit:4;stroke-dasharray:none;stroke-opacity:1"
     ry="7.4743071"
     transform="matrix(0.72446484,-0.68931175,0.68622417,0.72739012,0,0)"
     width="33.338203" />
  <path
     style="color:#000000;fill:url(#linearGradient1169);fill-rule:evenodd;-inkscape-stroke:none"
     d="m 23.888672,10.009766 c -0.529873,0 -1.054868,0.07276 -1.5625,0.21875 -8.64e-4,2.34e-4 -0.0011,0.0017 -0.002,0.002 -0.456811,0.124378 -0.874876,0.339328 -1.240235,0.621094 -0.36868,0.283093 -0.67014,0.636078 -0.892578,1.035156 l -0.002,0.002 v 0.002 c -0.04917,0.08967 -0.08709,0.184963 -0.130859,0.277344 h -1.976563 c -0.887991,0 -1.617187,0.731148 -1.617187,1.61914 v 0.425782 c -0.208997,-0.469805 -0.591769,-0.847657 -1.134766,-0.847657 h -0.83789 c -1.505453,0 -2.738282,1.230876 -2.738282,2.736328 v 16.220704 c 0,1.505452 1.232829,2.736328 2.738282,2.736328 h 19.015624 c 1.505453,0 2.738282,-1.230876 2.738282,-2.736328 V 16.101562 c 0,-1.505452 -1.232829,-2.736328 -2.738282,-2.736328 h -1.398437 c -0.542997,0 -0.923816,0.377852 -1.132813,0.847657 v -0.425782 c 0,-0.887992 -0.731148,-1.61914 -1.61914,-1.61914 h -1.644531 c -0.04268,-0.08941 -0.07851,-0.186716 -0.125,-0.271485 l -0.002,-0.002 v -0.002 c -0.221538,-0.397465 -0.518491,-0.745566 -0.878906,-1.027344 -0.369794,-0.291645 -0.790803,-0.505566 -1.242187,-0.634765 -0.511063,-0.147783 -1.043613,-0.220703 -1.576172,-0.220703 z m 0,1 c 0.440612,0 0.881462,0.06095 1.298828,0.18164 0.330427,0.09441 0.635335,0.248189 0.902344,0.458985 v 0.002 h 0.002 c 0.25481,0.199214 0.462312,0.443644 0.621094,0.728515 0.08612,0.157369 0.157616,0.306981 0.21289,0.458985 l 0.119141,0.328125 h 2.3125 c 0.34693,0 0.61914,0.27221 0.61914,0.61914 v 2.314453 c 0,0.34693 -0.27221,0.619141 -0.61914,0.619141 h -6.191406 -5.083985 c -0.346928,0 -0.617187,-0.272211 -0.617187,-0.619141 v -2.314453 c 0,-0.34693 0.270258,-0.61914 0.617187,-0.61914 h 2.634766 l 0.125,-0.316406 c 0.06504,-0.165096 0.139659,-0.32556 0.224609,-0.480469 0.157669,-0.281718 0.370357,-0.529534 0.626953,-0.726563 v -0.002 c 0.271216,-0.20936 0.56992,-0.36111 0.894532,-0.449219 l 0.0039,-0.002 h 0.0039 c 0.418401,-0.120983 0.85236,-0.18164 1.292969,-0.18164 z m 0,0.677734 c -0.375188,0 -0.751766,0.05033 -1.115235,0.152344 -0.236617,0.06655 -0.461034,0.180972 -0.660156,0.339844 -0.185812,0.140569 -0.343993,0.320945 -0.457031,0.535156 -0.146045,0.260582 -0.255119,0.546169 -0.310547,0.845703 -0.01796,0.08979 -0.06013,0.154679 -0.117187,0.201172 -0.06644,0.05413 -0.148763,0.08398 -0.220704,0.08398 h -2.865234 v 2.197266 h 5.023438 6.132812 v -2.197266 h -2.535156 c -0.07194,0 -0.156224,-0.02985 -0.222656,-0.08398 -0.05706,-0.04649 -0.09369,-0.107419 -0.107422,-0.1875 l -0.002,-0.0078 -0.002,-0.0078 c -0.05938,-0.290292 -0.158015,-0.581165 -0.310546,-0.851563 l -0.002,-0.002 v -0.002 c -0.110118,-0.190872 -0.26009,-0.373073 -0.453125,-0.519531 -0.198252,-0.158015 -0.424729,-0.269381 -0.660156,-0.335938 -7.18e-4,-2.13e-4 -0.0012,-0.0017 -0.002,-0.002 C 24.636243,11.737508 24.261206,11.6875 23.888672,11.6875 Z m 0,1 c 0.284779,0 0.566515,0.03879 0.835937,0.119141 h 0.0039 l 0.0039,0.002 c 0.118003,0.03319 0.222804,0.08576 0.3125,0.158203 l 0.0078,0.0059 0.0059,0.0059 c 0.072,0.054 0.135058,0.126939 0.191406,0.224609 0.0925,0.165014 0.160179,0.354273 0.201172,0.554688 l -0.0039,-0.01563 c 0.05339,0.311425 0.217929,0.595325 0.46289,0.794921 0.235586,0.19196 0.533954,0.308594 0.853516,0.308594 h 1.535156 v 0.197266 h -5.132812 -4.023438 v -0.197266 h 1.865234 c 0.319566,0 0.617935,-0.116642 0.853516,-0.308594 0.24496,-0.199594 0.404501,-0.479537 0.464844,-0.78125 v -0.0039 l 0.002,-0.0039 c 0.03402,-0.187074 0.102479,-0.377334 0.199219,-0.548828 l 0.0059,-0.0078 0.0039,-0.0078 c 0.04214,-0.08127 0.102345,-0.152931 0.179688,-0.210938 l 0.0078,-0.0059 0.0059,-0.0059 c 0.0897,-0.07245 0.19646,-0.125018 0.314453,-0.158204 0.274127,-0.07694 0.55897,-0.115234 0.84375,-0.115234 z m -9.396484,1.677734 h 0.83789 c 0.192564,0 0.339844,0.145327 0.339844,0.337891 0,0.192564 -0.147282,0.339844 -0.339844,0.339844 h -0.279297 c -0.887992,0 -1.617187,0.731149 -1.617187,1.61914 v 15.09961 c 0,0.887992 0.729195,1.61914 1.617187,1.61914 h 17.898438 c 0.887992,0 1.617187,-0.731148 1.617187,-1.61914 v -15.09961 c 0,-0.887991 -0.729195,-1.61914 -1.617187,-1.61914 h -0.839844 c -0.192564,0 -0.337891,-0.14728 -0.337891,-0.339844 0,-0.192564 0.145326,-0.337891 0.337891,-0.337891 h 1.398437 c 0.964391,0 1.738282,0.771938 1.738282,1.736328 v 16.220704 c 0,0.96439 -0.773891,1.736328 -1.738282,1.736328 H 14.492188 c -0.964391,0 -1.738282,-0.771938 -1.738282,-1.736328 V 16.101562 c 0,-0.96439 0.773891,-1.736328 1.738282,-1.736328 z m 1.972656,0.830079 v 0.906249 c 0,0.887992 0.729195,1.619141 1.617187,1.619141 h 5.083985 6.191406 c 0.887993,0 1.61914,-0.731149 1.61914,-1.619141 v -0.906249 c 0.209178,0.469378 0.590125,0.847656 1.132813,0.847656 h 0.839844 c 0.34693,0 0.617187,0.272211 0.617187,0.61914 v 15.09961 c 0,0.34693 -0.270257,0.61914 -0.617187,0.61914 H 15.050781 c -0.34693,0 -0.617187,-0.27221 -0.617187,-0.61914 v -15.09961 c 0,-0.346929 0.270257,-0.61914 0.617187,-0.61914 h 0.279297 c 0.542688,0 0.925588,-0.378278 1.134766,-0.847656 z m 0.04492,3.203124 v 0.5 13.363282 H 31.490234 V 18.398437 Z m 1,1 H 30.490234 V 31.261719 H 17.509766 Z m 0.677734,0.677735 v 0.5 10.007812 h 11.625 V 20.076172 Z m 1,1 h 9.625 v 8.507812 h -9.625 z m 1.736328,0.957031 c -0.887992,0 -1.619141,0.731149 -1.619141,1.619141 10e-7,0.887992 0.731149,1.61914 1.619141,1.61914 0.887991,0 1.619141,-0.731148 1.619141,-1.61914 0,-0.887992 -0.73115,-1.619141 -1.619141,-1.619141 z m 3.355469,0 c -0.579262,0 -1.058594,0.481285 -1.058594,1.060547 v 1.117187 c 0,0.579262 0.479331,1.060547 1.058594,1.060547 h 3.355469 c 0.579262,0 1.060547,-0.481285 1.060546,-1.060547 V 23.09375 c 10e-7,-0.579262 -0.481285,-1.060547 -1.060546,-1.060547 z m -3.355469,1 c 0.346928,0 0.619141,0.272212 0.619141,0.619141 0,0.34693 -0.272213,0.61914 -0.619141,0.61914 -0.34693,0 -0.619141,-0.27221 -0.619141,-0.61914 0,-0.346929 0.272211,-0.619141 0.619141,-0.619141 z m 3.355469,0 h 3.355469 c 0.0382,0 0.06055,0.02235 0.06055,0.06055 v 1.117187 c 0,0.0382 -0.02235,0.06055 -0.06055,0.06055 h -3.355469 c -0.0382,0 -0.05859,-0.02235 -0.05859,-0.06055 V 23.09375 c 0,-0.0382 0.0204,-0.06055 0.05859,-0.06055 z m -3.355469,2.916016 c -0.887992,0 -1.619141,0.731149 -1.619141,1.61914 10e-7,0.887993 0.731149,1.617188 1.619141,1.617188 0.887991,0 1.619141,-0.729195 1.619141,-1.617188 0,-0.887992 -0.73115,-1.61914 -1.619141,-1.61914 z m 3.355469,0 c -0.579262,0 -1.058594,0.479332 -1.058594,1.058593 v 1.119141 c 0,0.579262 0.479331,1.058594 1.058594,1.058594 h 3.355469 c 0.579262,0 1.060547,-0.479332 1.060546,-1.058594 v -1.119141 c 10e-7,-0.579261 -0.481285,-1.058593 -1.060546,-1.058593 z m -3.355469,1 c 0.346928,0 0.619141,0.272212 0.619141,0.61914 0,0.34693 -0.272213,0.617188 -0.619141,0.617188 -0.34693,0 -0.619141,-0.270257 -0.619141,-0.617188 0,-0.346929 0.272211,-0.61914 0.619141,-0.61914 z m 3.355469,0 h 3.355469 c 0.0382,0 0.06055,0.02039 0.06055,0.05859 v 1.119141 c 0,0.0382 -0.02235,0.05859 -0.06055,0.05859 h -3.355469 c -0.0382,0 -0.05859,-0.0204 -0.05859,-0.05859 v -1.119141 c 0,-0.0382 0.0204,-0.05859 0.05859,-0.05859 z"
     id="path7" />
</svg>
