<?xml version="1.0" encoding="UTF-8" standalone="no"?>
<svg
   width="48pt"
   height="48pt"
   style="isolation:isolate"
   version="1.1"
   viewBox="0 0 48 48"
   id="svg17"
   sodipodi:docname="discord-canary.svg"
   inkscape:version="1.1.2 (0a00cf5339, 2022-02-04)"
   xmlns:inkscape="http://www.inkscape.org/namespaces/inkscape"
   xmlns:sodipodi="http://sodipodi.sourceforge.net/DTD/sodipodi-0.dtd"
   xmlns:xlink="http://www.w3.org/1999/xlink"
   xmlns="http://www.w3.org/2000/svg"
   xmlns:svg="http://www.w3.org/2000/svg"
   xmlns:rdf="http://www.w3.org/1999/02/22-rdf-syntax-ns#"
   xmlns:cc="http://creativecommons.org/ns#"
   xmlns:dc="http://purl.org/dc/elements/1.1/">
  <sodipodi:namedview
     id="namedview19"
     pagecolor="#ffffff"
     bordercolor="#666666"
     borderopacity="1.0"
     inkscape:pageshadow="2"
     inkscape:pageopacity="0.0"
     inkscape:pagecheckerboard="0"
     inkscape:document-units="pt"
     showgrid="false"
     inkscape:zoom="7.2257474"
     inkscape:cx="30.100692"
     inkscape:cy="31.969011"
     inkscape:window-width="1600"
     inkscape:window-height="836"
     inkscape:window-x="0"
     inkscape:window-y="0"
     inkscape:window-maximized="1"
     inkscape:current-layer="svg17" />
  <metadata
     id="metadata2">
    <rdf:RDF>
      <cc:Work
         rdf:about="">
        <dc:format>image/svg+xml</dc:format>
        <dc:type
           rdf:resource="http://purl.org/dc/dcmitype/StillImage" />
        <dc:title />
      </cc:Work>
    </rdf:RDF>
  </metadata>
  <defs
     id="defs6">
    <linearGradient
       id="linearGradient847"
       x2=".90749"
       y1=".5"
       y2=".92008"
       gradientTransform="matrix(45.953 0 0 32.341 1.048 7.0376)"
       gradientUnits="userSpaceOnUse"
       xlink:href="#_lgradient_1" />
    <linearGradient
       id="linearGradient849"
       x2=".90749"
       y1=".5"
       y2=".92008"
       gradientTransform="matrix(45.953 0 0 38.048 1.0478 5.1258)"
       gradientUnits="userSpaceOnUse"
       xlink:href="#_lgradient_1" />
    <linearGradient
       inkscape:collect="always"
       xlink:href="#_lgradient_1"
       id="linearGradient872"
       x1="-12.025727"
       y1="6.1170783"
       x2="-0.085100174"
       y2="6.1170783"
       gradientUnits="userSpaceOnUse"
       gradientTransform="matrix(3.8358211,0,0,3.8371386,-0.00544341,-0.00268054)" />
    <linearGradient
       id="_lgradient_1-3"
       x1="0.18336116"
       y1="0.24917752"
       x2="0.9027437"
       y2="0.90347725"
       gradientTransform="matrix(24.617266,0,0,24.816118,10.841288,10.089605)"
       gradientUnits="userSpaceOnUse">
      <stop
         offset="2.608695652173913%"
         stop-opacity="1"
         style="stop-color:rgb(179,255,171)"
         id="stop2" />
      <stop
         offset="98.69565217391305%"
         stop-opacity="1"
         style="stop-color:rgb(18,255,247)"
         id="stop4" />
    </linearGradient>
    <linearGradient
       inkscape:collect="always"
       xlink:href="#_lgradient_1"
       id="linearGradient15"
       x1="-9.6850061"
       y1="45.161198"
       x2="11.98815"
       y2="21.735205"
       gradientUnits="userSpaceOnUse"
       gradientTransform="matrix(1.1147442,0,0,1.1150348,-0.01237238,-3.3277956)" />
    <linearGradient
       inkscape:collect="always"
       xlink:href="#_lgradient_1"
       id="linearGradient1093"
       x1="8.7685957"
       y1="22.293541"
       x2="39.28117"
       y2="22.293541"
       gradientUnits="userSpaceOnUse" />
  </defs>
  <linearGradient
     id="_lgradient_1"
     x2=".90749"
     y1=".5"
     y2=".92008"
     gradientTransform="matrix(45.953,0,0,38.048,1.048,4.184)"
     gradientUnits="userSpaceOnUse">
    <stop
       stop-color="#f3eb24"
       offset="0"
       id="stop8" />
    <stop
       stop-color="#f3a324"
       offset=".83888"
       id="stop10" />
  </linearGradient>
  <rect
     x="-46.783188"
     y="1.2253767"
     height="45.80014"
     rx="6.1837621"
     shape-rendering="crispEdges"
     id="rect5-6-7-3"
     ry="6.8055277"
     transform="matrix(0.00524063,-0.99998627,0.99998801,0.00489691,0,0)"
     style="isolation:isolate;fill:#ffc400;fill-opacity:0.13470298;stroke:url(#linearGradient872);stroke-width:2.0301;stroke-miterlimit:4;stroke-dasharray:none;stroke-opacity:1"
     width="45.801998" />
  <rect
     x="-15.686804"
     y="17.260084"
     height="33.345856"
     rx="6.7920032"
     shape-rendering="crispEdges"
     id="rect5-6-6-6-6"
     style="isolation:isolate;fill:#ffc400;fill-opacity:0.13470298;stroke:url(#linearGradient15);stroke-width:1.67233;stroke-miterlimit:4;stroke-dasharray:none;stroke-opacity:1"
     ry="7.4743071"
     transform="matrix(0.72446484,-0.68931175,0.68622417,0.72739012,0,0)"
     width="33.338203" />
  <path
     style="color:#000000;fill:url(#linearGradient1093);-inkscape-stroke:none"
     d="m 18.882812,11.058594 c -0.107349,-0.0058 -0.210028,-0.0012 -0.308593,0.0098 -0.858244,0.09272 -1.710191,0.243545 -2.539063,0.458985 -0.662489,0.167888 -1.297927,0.412843 -1.886718,0.732422 l -0.002,0.002 h -0.002 c -0.501167,0.27782 -0.951742,0.624002 -1.332031,1.015625 l -0.002,0.0039 -0.0039,0.002 c -0.292463,0.312188 -0.566243,0.634434 -0.822266,0.97461 -0.165852,0.208642 -0.331222,0.414983 -0.5,0.61914 l -0.0098,0.01172 -0.0098,0.01367 c -1.094079,1.522821 -1.9101964,3.183783 -2.417969,4.921875 -0.5375025,1.862208 -0.7971976,3.778596 -0.7773437,5.693359 0,0.0013 -2e-7,0.0026 0,0.0039 6.8e-6,6.45e-4 -6.9e-6,0.0013 0,0.002 3.364e-4,1.482963 0.1281186,2.958961 0.3710937,4.421875 l 0.025391,0.154297 0.109375,0.111328 c 0.4805609,0.494775 0.9885174,0.980174 1.5175784,1.441407 h 0.002 c 0.419173,0.362234 0.876295,0.697504 1.378906,0.986328 l 0.002,0.002 c 0.524711,0.299373 1.098556,0.53091 1.703125,0.677734 h 0.002 0.002 c 0.643246,0.150208 1.302785,0.223004 1.96289,0.210938 0.600478,-5.11e-4 1.197006,-0.04787 1.775391,-0.123047 0.701269,-0.0917 1.388935,-0.206345 2.076172,-0.34375 h 0.002 c 0.513739,-0.09912 0.957503,-0.396796 1.214843,-0.826172 v -0.002 l 1.230469,-2.089844 0.117188,-0.201172 c 0.608763,0.04167 1.219429,0.07276 1.832031,0.07031 0.88699,-0.0036 1.770807,-0.05954 2.652344,-0.138672 l 0.160156,0.271484 1.226562,2.083985 c 0.255524,0.442744 0.703753,0.733331 1.212891,0.832031 0.687865,0.137528 1.382261,0.252126 2.076172,0.34375 h 0.002 c 0.587523,0.07549 1.185245,0.123047 1.789063,0.123047 0.657486,0.01136 1.312011,-0.06095 1.947265,-0.210938 h 0.002 c 0.611553,-0.146772 1.188138,-0.378336 1.712891,-0.677734 l 0.002,-0.002 0.002,-0.002 c 0.492652,-0.287146 0.955701,-0.620345 1.376953,-0.984375 0.529059,-0.461233 1.037017,-0.946632 1.517578,-1.441407 l 0.109375,-0.111328 0.02539,-0.154297 c 0.243327,-1.46503 0.364142,-2.941284 0.371094,-4.421875 v -0.002 c 0.02025,-1.917233 -0.244922,-3.83391 -0.775391,-5.695312 v -0.002 c -0.507772,-1.738092 -1.32389,-3.399054 -2.417969,-4.921875 l -0.0098,-0.01367 -0.01172,-0.01172 c -0.172185,-0.208277 -0.339554,-0.412039 -0.490234,-0.609375 l -0.002,-0.002 C 35.81436,13.922177 35.537178,13.598087 35.242187,13.283203 l -0.0039,-0.0039 -0.0059,-0.0059 c -0.384647,-0.388639 -0.83115,-0.732415 -1.324219,-1.009766 l -0.0039,-0.002 -0.002,-0.002 c -0.588792,-0.319579 -1.226182,-0.564534 -1.888672,-0.732422 h -0.002 C 31.113462,11.296075 29.643369,11.158013 28.8125,11.068359 h -0.002 c -0.188063,-0.02092 -0.386813,-0.0056 -0.583985,0.04102 -0.374748,-0.02119 -0.740495,-0.0023 -1.060546,0.113281 -0.35895,0.129579 -0.689215,0.363229 -0.861329,0.726563 v 0.002 l -0.910156,1.935547 c -0.599802,-0.03641 -1.199388,-0.06637 -1.800781,-0.06641 h -0.002 c -0.548312,-0.0024 -1.09396,0.02368 -1.638672,0.05664 l -0.90625,-1.925781 v -0.002 C 20.706249,11.231643 19.86445,11.019581 19.025391,11.09375 l 0.175781,0.01563 c -0.107461,-0.02913 -0.214596,-0.04523 -0.31836,-0.05078 z m -0.05273,0.998047 c 0.04378,0.0023 0.07934,0.0094 0.109375,0.01758 l 0.08594,0.02344 0.08789,-0.0078 c 0.590163,-0.05217 0.969176,0.164449 1.029297,0.289062 1.06e-4,2.19e-4 0.0018,-2.18e-4 0.002,0 l 1.191406,2.533203 0.34375,-0.02539 c 0.63384,-0.04701 1.269394,-0.06925 1.908204,-0.06641 h 0.002 0.002 c 0.693531,-1e-6 1.38598,0.02426 2.078125,0.07422 l 0.34375,0.02539 1.195312,-2.541016 c 0.02974,-0.06279 0.113004,-0.148467 0.296875,-0.214843 0.183872,-0.06638 0.451089,-0.101281 0.751953,-0.07227 l 0.09375,0.0098 0.08984,-0.02539 c 0.06385,-0.01775 0.151971,-0.02554 0.257813,-0.01367 h 0.002 0.002 c 0.842193,0.0909 2.340978,0.247595 3.0625,0.433594 h 0.002 c 0.584591,0.148013 1.141804,0.36459 1.654297,0.642578 5.26e-4,2.85e-4 0.0014,-2.85e-4 0.002,0 0.407555,0.230029 0.782028,0.518967 1.099609,0.839844 0.271298,0.29026 0.521977,0.584196 0.751954,0.890625 v 0.002 h 0.002 c 0.162545,0.213002 0.332502,0.420455 0.5,0.623047 1.028075,1.432622 1.79148,2.986391 2.265625,4.609375 0.504837,1.772124 0.755711,3.590387 0.736328,5.408203 v 0.002 0.002 c -0.0063,1.380009 -0.127415,2.752084 -0.345703,4.115234 -0.427426,0.434281 -0.869732,0.862844 -1.333985,1.267578 -0.37501,0.323855 -0.788448,0.620781 -1.224609,0.875 -0.443687,0.252692 -0.929504,0.448473 -1.445313,0.572266 -0.556841,0.131312 -1.132741,0.194093 -1.707031,0.183594 h -0.0039 -0.0059 c -0.551546,0 -1.10755,-0.04398 -1.66211,-0.115235 l 0.002,0.002 c -0.673298,-0.0889 -1.347589,-0.200768 -2.013672,-0.333985 h -0.002 c -0.247823,-0.04804 -0.449306,-0.196043 -0.539062,-0.351562 v -0.002 l -1.230469,-2.091797 -0.476562,-0.804688 -0.31836,0.03125 c -0.956841,0.09604 -1.918757,0.146456 -2.882812,0.150391 -0.691967,0.0028 -1.383749,-0.02427 -2.06836,-0.08008 l -0.3125,-0.02539 -0.427734,0.730469 -1.226563,2.083984 c -0.100463,0.167625 -0.292302,0.310876 -0.546875,0.359375 h -0.002 -0.002 c -0.666701,0.133341 -1.334458,0.245169 -2.013672,0.333985 l 0.002,-0.002 c -0.547251,0.07113 -1.104707,0.115235 -1.656249,0.115235 h -0.0039 -0.0059 c -0.573645,0.01049 -1.146923,-0.05221 -1.710938,-0.183594 -0.510357,-0.123944 -0.999042,-0.320905 -1.443359,-0.574219 h -0.002 c -0.438936,-0.252366 -0.8421,-0.547756 -1.21875,-0.873047 l -0.002,-0.002 C 10.48568,30.492274 10.042044,30.064518 9.6152344,29.630859 9.3963296,28.266457 9.2695313,26.894636 9.2695313,25.517578 v -0.002 -0.0039 c -0.019396,-1.819001 0.2256198,-3.638138 0.7363277,-5.408203 v -0.002 c 0.474825,-1.62459 1.241641,-3.179531 2.271485,-4.613281 3.51e-4,-4.88e-4 -3.51e-4,-0.0015 0,-0.002 0.168309,-0.204218 0.331171,-0.40732 0.490234,-0.607422 l 0.0039,-0.0039 0.0039,-0.0059 c 0.23106,-0.307876 0.483075,-0.602921 0.755859,-0.894532 0.309311,-0.318529 0.680144,-0.606157 1.09375,-0.835937 l 0.0039,-0.002 c 0.511894,-0.277418 1.070537,-0.492823 1.654297,-0.640625 h 0.002 c 0.777393,-0.20206 1.584043,-0.345695 2.398438,-0.433594 h 0.002 c 0.05416,-0.006 0.1043,-0.008 0.144531,-0.0059 z m -0.0039,1.255859 -0.365235,0.05078 c -0.562986,0.07713 -1.118396,0.186149 -1.666015,0.324219 h -0.002 c -0.417819,0.105921 -0.818732,0.263089 -1.19336,0.462891 l -0.0078,0.0039 -0.0078,0.0039 c -0.263374,0.15144 -0.503133,0.335548 -0.714843,0.548828 l -0.0039,0.0039 -0.0059,0.0039 c -0.231214,0.244175 -0.455014,0.508299 -0.65625,0.783203 -0.166589,0.21218 -0.333719,0.418004 -0.5,0.61914 l -0.01172,0.01367 -0.01172,0.01563 c -0.92707,1.307511 -1.622689,2.729984 -2.050782,4.214844 -0.483727,1.685211 -0.72303,3.408971 -0.703125,5.144531 0,0.0013 0,0.0026 0,0.0039 v 0.002 c 2.74e-4,1.161485 0.08181,2.316923 0.244141,3.466797 l 0.02344,0.169921 0.123047,0.119141 c 0.284169,0.276049 0.578648,0.550932 0.888672,0.814453 0.291793,0.253564 0.608182,0.4864 0.962891,0.689453 0.288908,0.165928 0.602406,0.287495 0.927734,0.371094 l 0.0078,0.002 0.0078,0.002 c 0.389386,0.08743 0.794763,0.13132 1.207031,0.125 0.473897,-3.93e-4 0.937811,-0.03568 1.402344,-0.09375 h 0.002 0.0039 c 0.41588,-0.05701 0.833257,-0.120344 1.253907,-0.195312 l 0.226562,-0.04102 1.316406,-2.24414 -0.689453,-0.136719 c -0.897413,-0.177009 -1.781492,-0.402936 -2.646484,-0.679688 -0.458801,-0.147988 -0.603174,-0.472165 -0.466797,-0.777343 0.1359,-0.304894 0.644186,-0.530972 1.103516,-0.382813 2.156475,0.693882 4.452196,1.046711 6.755859,1.035156 1.245716,-9.6e-5 2.488735,-0.09148 3.716797,-0.257812 h 0.002 l 0.002,-0.002 c 1.333313,-0.188886 2.651488,-0.451117 3.945313,-0.789063 h 0.002 c 0.471601,-0.123985 0.951347,0.126177 1.0625,0.431641 0.110811,0.305464 -0.06141,0.633775 -0.533203,0.757812 -0.855161,0.225797 -1.725459,0.419231 -2.603516,0.580078 l -0.701172,0.128907 1.369141,2.335937 0.226562,0.04102 c 0.420653,0.07497 0.839981,0.138297 1.25586,0.195312 h 0.002 0.002 c 0.46193,0.05861 0.935481,0.09375 1.412109,0.09375 0.403881,0.0056 0.81097,-0.03782 1.199219,-0.125 l 0.0078,-0.002 0.0059,-0.002 c 0.325321,-0.0836 0.638825,-0.205166 0.927734,-0.371094 l 0.002,-0.002 h 0.002 c 0.345389,-0.201836 0.668585,-0.433446 0.964843,-0.691406 0.300677,-0.261384 0.592857,-0.534567 0.876953,-0.810547 l 0.123047,-0.119141 0.02344,-0.169921 c 0.162602,-1.15175 0.245229,-2.307155 0.251953,-3.46875 0.01365,-1.734728 -0.218462,-3.459971 -0.703125,-5.148438 l -0.002,-0.002 c -0.434206,-1.482162 -1.123135,-2.904569 -2.050781,-4.212891 l -0.01367,-0.01953 -0.01367,-0.01758 C 34.169417,15.908582 34.003474,15.70398 33.84375,15.492188 l -0.002,-0.002 c -0.200221,-0.264084 -0.41703,-0.527706 -0.660156,-0.777343 l -0.002,-0.002 c -0.208955,-0.218183 -0.452175,-0.401701 -0.714843,-0.552735 l -0.0078,-0.0039 -0.0059,-0.0039 C 32.077012,13.950839 31.674468,13.793411 31.25,13.6875 h -0.002 c -0.632949,-0.160891 -1.638175,-0.260741 -2.369141,-0.335937 l -0.351562,-0.03711 -0.152344,0.320313 -0.691406,1.470703 0.654297,0.105469 c 1.163682,0.187688 2.313862,0.429021 3.439453,0.726562 0.47222,0.124148 0.644074,0.450229 0.533203,0.755859 -0.111153,0.305465 -0.590897,0.557581 -1.0625,0.433594 h -0.002 c -1.23526,-0.322495 -2.494267,-0.579029 -3.765625,-0.765625 l -0.03516,-0.0039 -0.0059,-0.002 -0.03516,-0.0039 c -0.03241,-0.0051 -0.06854,-0.01041 -0.105469,-0.01563 -1.231059,-0.172477 -2.474568,-0.259675 -3.71875,-0.259765 h -0.002 c -1.237788,-0.0063 -2.471872,0.09468 -3.683594,0.294922 l -0.02539,0.0039 c -1.035659,0.172134 -2.055553,0.417607 -3.044922,0.736328 -0.459326,0.148159 -0.967617,-0.07793 -1.103516,-0.382812 -0.136463,-0.305372 0.0076,-0.62727 0.466797,-0.775391 0.929929,-0.299937 1.881529,-0.541362 2.847656,-0.722656 l 0.636719,-0.119141 z m 10.83789,1.15625 c 0.500708,0.06151 1.058969,0.115992 1.339844,0.1875 v 0.002 h 0.002 c 0.197088,0.0491 0.372468,0.138301 0.556641,0.212891 -0.625343,-0.156245 -1.262212,-0.27897 -1.898438,-0.402344 z m -11.769531,0.02148 c -0.41765,0.09604 -0.833039,0.19863 -1.24414,0.316407 0.131622,-0.04734 0.252613,-0.115899 0.388671,-0.150391 v 0.002 c 0.281869,-0.07107 0.56992,-0.113813 0.855469,-0.167969 z m 15.267578,1.75 c 0.129174,0.166475 0.259675,0.331927 0.396485,0.492188 0.862525,1.218153 1.500716,2.537247 1.902343,3.908203 0.457485,1.595143 0.676962,3.222226 0.664063,4.861328 v 0.002 c -0.0062,1.06358 -0.08926,2.119834 -0.230469,3.171875 -0.23093,0.221057 -0.463361,0.439751 -0.701172,0.646485 -0.248223,0.216135 -0.520446,0.413315 -0.8125,0.583984 -0.199525,0.114314 -0.426388,0.202779 -0.667968,0.265625 -0.310948,0.06919 -0.643464,0.104576 -0.964844,0.09961 h -0.0039 -0.0039 c -0.425122,0 -0.854693,-0.03195 -1.28125,-0.08594 h -0.0039 c -0.33083,-0.04538 -0.658605,-0.09718 -0.986328,-0.152344 l -0.425781,-0.726562 c 0.667304,-0.135717 1.33393,-0.270585 1.988281,-0.44336 0.927914,-0.243952 1.53954,-1.182111 1.21875,-2.066406 -0.321777,-0.884293 -1.327746,-1.300645 -2.255859,-1.056641 v -0.002 c -1.255945,0.328052 -2.53785,0.585913 -3.833985,0.769531 l 0.002,-0.002 c -1.188263,0.16094 -2.386826,0.25 -3.583984,0.25 h -0.002 -0.002 c -2.198273,0.01103 -4.390061,-0.325645 -6.44336,-0.986328 -0.912,-0.29417 -1.938424,0.06675 -2.322265,0.925781 -0.384201,0.859745 0.159235,1.842216 1.072265,2.136719 l 0.002,0.002 c 0.68332,0.218627 1.385804,0.376654 2.08789,0.535157 l -0.390625,0.664062 c -0.328993,0.05537 -0.658114,0.106812 -0.990234,0.152344 -0.433844,0.05404 -0.854825,0.08594 -1.279297,0.08594 h -0.0039 -0.0039 c -0.328778,0.005 -0.652701,-0.03012 -0.964843,-0.09961 -0.242438,-0.06306 -0.47183,-0.152687 -0.671875,-0.267578 v -0.002 c -0.293905,-0.168246 -0.559289,-0.361299 -0.810547,-0.580078 l -0.002,-0.002 -0.002,-0.002 c -0.241394,-0.205184 -0.472173,-0.423608 -0.703125,-0.644531 -0.14097,-1.051221 -0.222657,-2.10685 -0.222657,-3.167969 v -0.002 V 25.5 c -0.01932,-1.636949 0.205812,-3.264211 0.664063,-4.861328 v -0.002 c 0.395312,-1.370422 1.040863,-2.691595 1.90625,-3.91211 0.114451,-0.138781 0.229544,-0.282404 0.34375,-0.425781 -0.05374,0.279292 -0.157036,0.556412 -0.03125,0.837891 0.383841,0.85903 1.410261,1.219954 2.322265,0.925781 0.809052,-0.260632 1.649086,-0.443382 2.494141,-0.601563 l 0.01172,0.03516 0.443359,-0.140625 c 1.149682,-0.188658 2.320761,-0.28534 3.494141,-0.279297 h 0.002 0.002 c 1.198696,0 2.396767,0.08394 3.582031,0.25 0.01607,0.0023 0.03465,0.005 0.05273,0.0078 l 0.4375,0.148438 0.03125,-0.06055 c 1.116972,0.175561 2.226844,0.388438 3.3125,0.671875 0.928113,0.244005 1.934082,-0.1743 2.255859,-1.058594 0.100259,-0.276374 -0.02465,-0.531075 -0.08789,-0.794922 z m -12.25,3.744141 c -1.553384,0 -2.824218,1.268883 -2.824218,2.822266 0,1.553383 1.270834,2.824218 2.824218,2.824218 1.553383,0 2.824219,-1.270836 2.824219,-2.824218 0,-1.553383 -1.270836,-2.822266 -2.824219,-2.822266 z m 6.191407,0 c -1.553383,0 -2.824219,1.268883 -2.824219,2.822266 0,1.553383 1.270836,2.824218 2.824219,2.824218 1.553383,0 2.824218,-1.270835 2.824218,-2.824218 0,-1.553383 -1.270835,-2.822266 -2.824218,-2.822266 z m -6.191407,1 c 1.012321,0 1.824219,0.809945 1.824219,1.822266 0,1.01232 -0.811898,1.824218 -1.824219,1.824218 -1.012321,0 -1.824218,-0.811898 -1.824218,-1.824218 0,-1.012321 0.811897,-1.822266 1.824218,-1.822266 z m 6.191407,0 c 1.01232,0 1.824218,0.809945 1.824218,1.822266 0,1.01232 -0.811898,1.824218 -1.824218,1.824218 -1.012321,0 -1.824219,-0.811898 -1.824219,-1.824218 0,-1.012321 0.811898,-1.822266 1.824219,-1.822266 z"
     id="path15" />
</svg>
