<?xml version="1.0" encoding="UTF-8" standalone="no"?>
<svg
   width="48pt"
   height="48pt"
   style="isolation:isolate"
   version="1.1"
   viewBox="0 0 48 48"
   id="svg22"
   sodipodi:docname="discord.svg"
   inkscape:version="1.1.2 (0a00cf5339, 2022-02-04)"
   xmlns:inkscape="http://www.inkscape.org/namespaces/inkscape"
   xmlns:sodipodi="http://sodipodi.sourceforge.net/DTD/sodipodi-0.dtd"
   xmlns:xlink="http://www.w3.org/1999/xlink"
   xmlns="http://www.w3.org/2000/svg"
   xmlns:svg="http://www.w3.org/2000/svg"
   xmlns:rdf="http://www.w3.org/1999/02/22-rdf-syntax-ns#"
   xmlns:cc="http://creativecommons.org/ns#"
   xmlns:dc="http://purl.org/dc/elements/1.1/">
  <sodipodi:namedview
     id="namedview24"
     pagecolor="#ffffff"
     bordercolor="#666666"
     borderopacity="1.0"
     inkscape:pageshadow="2"
     inkscape:pageopacity="0.0"
     inkscape:pagecheckerboard="0"
     inkscape:document-units="pt"
     showgrid="false"
     inkscape:zoom="7.2257474"
     inkscape:cx="30.585071"
     inkscape:cy="32.038208"
     inkscape:window-width="1387"
     inkscape:window-height="545"
     inkscape:window-x="140"
     inkscape:window-y="325"
     inkscape:window-maximized="0"
     inkscape:current-layer="svg22" />
  <metadata
     id="metadata2">
    <rdf:RDF>
      <cc:Work
         rdf:about="">
        <dc:format>image/svg+xml</dc:format>
        <dc:type
           rdf:resource="http://purl.org/dc/dcmitype/StillImage" />
        <dc:title />
      </cc:Work>
    </rdf:RDF>
  </metadata>
  <defs
     id="defs14">
    <linearGradient
       id="linearGradient967"
       x2=".90749"
       y1=".5"
       y2=".92008"
       gradientTransform="matrix(45.953,0,0,32.341,1.02299,7.8296)"
       gradientUnits="userSpaceOnUse">
      <stop
         stop-color="#00c4ff"
         offset="0"
         id="stop4" />
      <stop
         stop-color="#0072ff"
         offset=".83888"
         id="stop6" />
    </linearGradient>
    <linearGradient
       id="linearGradient969"
       x2=".90749"
       y1=".5"
       y2=".92008"
       gradientTransform="matrix(45.953 0 0 38.048 1.3928 2.6838)"
       gradientUnits="userSpaceOnUse">
      <stop
         stop-color="#00c4ff"
         offset="0"
         id="stop9" />
      <stop
         stop-color="#0072ff"
         offset=".83888"
         id="stop11" />
    </linearGradient>
    <linearGradient
       inkscape:collect="always"
       xlink:href="#linearGradient969"
       id="linearGradient872"
       x1="-12.025727"
       y1="6.1170783"
       x2="-0.085100174"
       y2="6.1170783"
       gradientUnits="userSpaceOnUse"
       gradientTransform="matrix(3.8358211,0,0,3.8371386,-0.00544341,-0.00268054)" />
    <linearGradient
       id="_lgradient_1"
       x1="0.18336116"
       y1="0.24917752"
       x2="0.9027437"
       y2="0.90347725"
       gradientTransform="matrix(24.617266,0,0,24.816118,10.841288,10.089605)"
       gradientUnits="userSpaceOnUse">
      <stop
         offset="2.608695652173913%"
         stop-opacity="1"
         style="stop-color:rgb(179,255,171)"
         id="stop2" />
      <stop
         offset="98.69565217391305%"
         stop-opacity="1"
         style="stop-color:rgb(18,255,247)"
         id="stop4-3" />
    </linearGradient>
    <linearGradient
       inkscape:collect="always"
       xlink:href="#linearGradient969"
       id="linearGradient15"
       x1="-9.6850061"
       y1="45.161198"
       x2="11.98815"
       y2="21.735205"
       gradientUnits="userSpaceOnUse"
       gradientTransform="matrix(1.1147442,0,0,1.1150348,-0.01237238,-3.3277956)" />
    <linearGradient
       inkscape:collect="always"
       xlink:href="#linearGradient969"
       id="linearGradient1093"
       x1="8.7685957"
       y1="22.293541"
       x2="39.28117"
       y2="22.293541"
       gradientUnits="userSpaceOnUse"
       gradientTransform="matrix(1,0,0,1.000008,-2.7078644e-4,-1.6145859e-4)" />
    <linearGradient
       id="_lgradient_1-6"
       x2="0.90749002"
       y1="0.5"
       y2="0.92008001"
       gradientTransform="matrix(45.953,0,0,38.048,1.048,4.184)"
       gradientUnits="userSpaceOnUse">
      <stop
         stop-color="#f3eb24"
         offset="0"
         id="stop8" />
      <stop
         stop-color="#f3a324"
         offset=".83888"
         id="stop10" />
    </linearGradient>
  </defs>
  <rect
     x="-46.783188"
     y="1.2253767"
     height="45.80014"
     rx="6.1837621"
     shape-rendering="crispEdges"
     id="rect5-6-7-3"
     ry="6.8055277"
     transform="matrix(0.00524063,-0.99998627,0.99998801,0.00489691,0,0)"
     style="isolation:isolate;fill:#00daff;fill-opacity:0.13470298;stroke:url(#linearGradient872);stroke-width:2.0301;stroke-miterlimit:4;stroke-dasharray:none;stroke-opacity:1"
     width="45.801998" />
  <rect
     x="-15.686804"
     y="17.260084"
     height="33.345856"
     rx="6.7920032"
     shape-rendering="crispEdges"
     id="rect5-6-6-6-6"
     style="isolation:isolate;fill:#00daff;fill-opacity:0.13470298;stroke:url(#linearGradient15);stroke-width:1.67233;stroke-miterlimit:4;stroke-dasharray:none;stroke-opacity:1"
     ry="7.4743071"
     transform="matrix(0.72446484,-0.68931175,0.68622417,0.72739012,0,0)"
     width="33.338203" />
  <path
     style="color:#000000;isolation:isolate;fill:url(#linearGradient1093);stroke-width:1;-inkscape-stroke:none;fill-opacity:1.0"
     d="m 18.882541,11.058521 c -0.107349,-0.0058 -0.210028,-0.0012 -0.308593,0.0098 -0.858244,0.09272 -1.710191,0.243547 -2.539063,0.458988 -0.662489,0.16789 -1.297927,0.412846 -1.886718,0.732428 l -0.002,0.0021 h -0.002 C 13.643,12.539659 13.192425,12.885845 12.812136,13.27747 l -0.002,0.0039 -0.0039,0.0021 c -0.292463,0.312191 -0.566243,0.634439 -0.822266,0.974617 -0.165852,0.208644 -0.331222,0.414987 -0.5,0.619145 l -0.0098,0.0117 -0.0098,0.01367 c -1.094079,1.522834 -1.9101961,3.183808 -2.4179687,4.921915 -0.5375025,1.862222 -0.7971976,3.778625 -0.7773437,5.693403 0,0.0013 -2e-7,0.0026 0,0.0039 6.8e-6,6.44e-4 -6.9e-6,0.0013 0,0.0021 3.364e-4,1.482974 0.1281186,2.958984 0.3710937,4.421909 l 0.025391,0.154298 0.109375,0.111326 c 0.4805609,0.49478 0.9885174,0.980183 1.5175777,1.441419 h 0.002 c 0.419173,0.362238 0.876295,0.697509 1.378906,0.986336 l 0.002,0.0021 c 0.524711,0.299375 1.098556,0.530915 1.703125,0.677739 h 0.002 0.002 c 0.643246,0.15021 1.302785,0.223006 1.96289,0.21094 0.600478,-5.11e-4 1.197006,-0.04787 1.775391,-0.123043 0.701269,-0.0917 1.388935,-0.206347 2.076172,-0.343752 h 0.002 c 0.513739,-0.09912 0.957503,-0.396799 1.214843,-0.826179 v -0.0021 l 1.230469,-2.089861 0.117188,-0.201174 c 0.608763,0.04167 1.219429,0.07276 1.832031,0.07031 0.88699,-0.0036 1.770807,-0.05953 2.652344,-0.138673 l 0.160156,0.271487 1.226562,2.084001 c 0.255524,0.442748 0.703753,0.733337 1.212891,0.832039 0.687865,0.137528 1.382261,0.252127 2.076172,0.343752 h 0.002 c 0.587523,0.0755 1.185245,0.123043 1.789063,0.123043 0.657486,0.01132 1.312011,-0.06095 1.947265,-0.21094 h 0.002 c 0.611553,-0.146999 1.188138,-0.378565 1.712891,-0.677965 l 0.002,-0.0021 0.002,-0.0021 c 0.492652,-0.287149 0.955701,-0.62035 1.376953,-0.984383 0.529059,-0.461237 1.037017,-0.94664 1.517578,-1.441418 l 0.109375,-0.111326 0.02539,-0.154299 c 0.243327,-1.465042 0.364142,-2.941308 0.371094,-4.42191 v -0.0021 c 0.02025,-1.917249 -0.244922,-3.833941 -0.775391,-5.695358 v -0.0021 c -0.507772,-1.738106 -1.32389,-3.399081 -2.417969,-4.921914 l -0.0098,-0.01367 -0.01172,-0.0117 C 36.392179,14.668605 36.22481,14.464842 36.07413,14.267504 l -0.002,-0.0021 C 35.814089,13.922069 35.536907,13.597977 35.241916,13.28309 l -0.0039,-0.0039 -0.0059,-0.0059 c -0.384647,-0.388616 -0.83115,-0.732395 -1.324219,-1.009748 l -0.0039,-0.0021 -0.002,-0.0021 c -0.588792,-0.319581 -1.226182,-0.564538 -1.888672,-0.732427 h -0.002 c -0.898134,-0.230911 -2.368227,-0.368973 -3.199096,-0.458628 h -0.002 c -0.188063,-0.02093 -0.386813,-0.0057 -0.583985,0.04103 -0.374748,-0.0212 -0.740495,-0.0023 -1.060546,0.113281 -0.35895,0.12958 -0.689215,0.363232 -0.861329,0.726569 v 0.0021 l -0.910156,1.935563 c -0.599802,-0.03641 -1.199388,-0.06638 -1.800781,-0.06642 h -0.002 c -0.548312,-0.0024 -1.09396,0.02368 -1.638672,0.05664 l -0.90625,-1.925796 v -0.0021 c -0.340532,-0.717581 -1.182331,-0.929645 -2.02139,-0.855476 l 0.175781,0.01563 c -0.107461,-0.02913 -0.214596,-0.04523 -0.31836,-0.05078 z m -0.05273,0.998056 c 0.04378,0.0023 0.07934,0.0094 0.109375,0.01758 l 0.08594,0.02345 0.08789,-0.0078 c 0.590163,-0.05217 0.969176,0.164451 1.029297,0.289064 1.06e-4,2.19e-4 0.0018,-2.17e-4 0.002,0 l 1.191406,2.533223 0.34375,-0.02539 c 0.63384,-0.04701 1.269394,-0.06924 1.908204,-0.06642 h 0.002 0.002 c 0.693531,-10e-7 1.38598,0.02426 2.078125,0.07422 l 0.34375,0.02539 1.195312,-2.541036 c 0.02974,-0.06279 0.113004,-0.148468 0.296875,-0.214845 0.183872,-0.06638 0.451089,-0.101282 0.751953,-0.07227 l 0.09375,0.0098 0.08984,-0.02539 c 0.06385,-0.01775 0.151971,-0.02554 0.257813,-0.01367 h 0.002 0.002 c 0.842193,0.0909 2.340978,0.247597 3.0625,0.433598 h 0.002 c 0.584591,0.148014 1.141804,0.364593 1.654297,0.642583 5.26e-4,2.85e-4 0.0014,-2.86e-4 0.002,0 0.407555,0.230031 0.782028,0.518971 1.099609,0.83985 0.271298,0.290263 0.521977,0.584201 0.751954,0.890633 v 0.0021 h 0.002 c 0.162545,0.213004 0.332502,0.420459 0.5,0.623052 1.028075,1.432635 1.79148,2.986415 2.265625,4.609413 0.504837,1.772137 0.755711,3.590415 0.736328,5.408246 v 0.0021 0.0021 c -0.0063,1.38002 -0.127415,2.752106 -0.345703,4.115267 -0.427426,0.434285 -0.869732,0.862851 -1.333985,1.267587 -0.37501,0.323859 -0.788448,0.620787 -1.224609,0.875008 -0.443687,0.252693 -0.929504,0.448476 -1.445313,0.57227 -0.556841,0.131313 -1.132741,0.194095 -1.707031,0.183596 h -0.0039 -0.0059 c -0.551546,0 -1.10755,-0.04398 -1.66211,-0.115236 l 0.002,0.0021 c -0.673298,-0.0889 -1.347589,-0.20077 -2.013672,-0.333988 h -0.002 c -0.247823,-0.04804 -0.449306,-0.196044 -0.539062,-0.351564 v -0.0021 l -1.230469,-2.091813 -0.476562,-0.804694 -0.31836,0.03125 c -0.956841,0.09604 -1.918757,0.146458 -2.882812,0.150392 -0.691967,0.0028 -1.383749,-0.02427 -2.06836,-0.08009 l -0.3125,-0.02539 -0.427734,0.730475 -1.226563,2.084 c -0.100463,0.167626 -0.292302,0.310879 -0.546875,0.359378 h -0.002 -0.002 c -0.666701,0.133342 -1.334458,0.245172 -2.013672,0.333988 l 0.002,-0.0021 c -0.547251,0.07114 -1.104707,0.115236 -1.656249,0.115236 h -0.0039 -0.0059 c -0.573645,0.01055 -1.146923,-0.0522 -1.710938,-0.183595 -0.510357,-0.123943 -0.999042,-0.320908 -1.443359,-0.574224 h -0.002 c -0.438936,-0.252367 -0.8421,-0.54776 -1.21875,-0.873054 l -0.002,-0.0021 C 10.485409,30.492356 10.041773,30.064597 9.6149637,29.630933 9.3960589,28.266521 9.2692606,26.894689 9.2692606,25.51762 v -0.0021 -0.0039 c -0.019396,-1.819 0.2256198,-3.638151 0.7363274,-5.408229 v -0.0021 c 0.474825,-1.624603 1.241641,-3.179557 2.271485,-4.613318 3.51e-4,-4.88e-4 -3.51e-4,-0.0015 0,-0.0021 0.168309,-0.20422 0.331171,-0.407323 0.490234,-0.607427 l 0.0039,-0.0039 0.0039,-0.0059 c 0.23106,-0.307878 0.483075,-0.602925 0.755859,-0.894538 0.309311,-0.318531 0.680144,-0.606163 1.09375,-0.835944 l 0.0039,-0.0021 c 0.511894,-0.277421 1.070537,-0.492827 1.654297,-0.64063 h 0.002 c 0.777393,-0.202061 1.584043,-0.345697 2.398438,-0.433597 h 0.002 c 0.05416,-0.006 0.1043,-0.008 0.144531,-0.0059 z m -0.0039,1.255869 -0.365235,0.05078 c -0.562986,0.07713 -1.118396,0.186151 -1.666015,0.324222 h -0.002 c -0.417819,0.105925 -0.818732,0.263091 -1.19336,0.462894 l -0.0078,0.0039 -0.0078,0.0039 c -0.263374,0.15144 -0.503133,0.335551 -0.714843,0.548833 l -0.0039,0.0039 -0.0059,0.0039 c -0.231214,0.244177 -0.455014,0.508304 -0.65625,0.78321 -0.166589,0.212182 -0.333719,0.418007 -0.5,0.619144 l -0.01172,0.01367 -0.01172,0.01563 c -0.92707,1.307522 -1.622689,2.730007 -2.050782,4.214878 -0.483727,1.685224 -0.72303,3.408999 -0.703125,5.144571 0,0.0013 0,0.0026 0,0.0039 v 0.0021 c 2.74e-4,1.161494 0.08181,2.316941 0.244141,3.466824 l 0.02344,0.169922 0.123047,0.119146 c 0.284169,0.276051 0.578648,0.550937 0.888672,0.81446 0.291793,0.253565 0.608182,0.486404 0.962891,0.689458 0.288908,0.165929 0.602406,0.287497 0.927734,0.371097 l 0.0078,0.0021 0.0078,0.0021 c 0.389386,0.08743 0.794763,0.131321 1.207031,0.124997 0.473897,-3.93e-4 0.937811,-0.03568 1.402344,-0.09374 h 0.002 0.0039 c 0.41588,-0.05701 0.833257,-0.120342 1.253907,-0.195313 l 0.226562,-0.04102 1.316406,-2.244157 -0.689453,-0.136721 c -0.897413,-0.177011 -1.781492,-0.402939 -2.646484,-0.679694 -0.458801,-0.147988 -0.603174,-0.472168 -0.466797,-0.777349 0.1359,-0.304896 0.644186,-0.530976 1.103516,-0.382816 2.156475,0.693888 4.452196,1.046719 6.755859,1.035165 1.245716,-9.7e-5 2.488735,-0.09148 3.716797,-0.257814 h 0.002 l 0.002,-0.0021 c 1.333313,-0.188888 2.651488,-0.451121 3.945313,-0.78907 h 0.002 c 0.471601,-0.123982 0.951347,0.126181 1.0625,0.431645 0.110811,0.305466 -0.06141,0.63378 -0.533203,0.757818 -0.855161,0.225798 -1.725459,0.419234 -2.603516,0.580083 l -0.701172,0.128907 1.369141,2.335956 0.226562,0.04101 c 0.420653,0.07497 0.839981,0.138298 1.25586,0.195314 h 0.002 0.002 c 0.46193,0.05861 0.935481,0.09375 1.412109,0.09375 0.403881,0.0057 0.81097,-0.03783 1.199219,-0.124998 l 0.0078,-0.0021 0.0059,-0.0021 c 0.325321,-0.0836 0.638825,-0.205167 0.927734,-0.371097 l 0.002,-0.0021 h 0.002 c 0.345389,-0.201839 0.668585,-0.43345 0.964843,-0.691412 0.300677,-0.261387 0.592857,-0.534571 0.876953,-0.810554 l 0.123047,-0.119146 0.02344,-0.169921 c 0.162602,-1.15176 0.245229,-2.307174 0.251953,-3.468779 0.01365,-1.73474 -0.218462,-3.459998 -0.703125,-5.148478 l -0.002,-0.0021 c -0.434206,-1.482174 -1.123135,-2.904592 -2.050781,-4.212924 l -0.01367,-0.01954 -0.01367,-0.01758 c -0.172665,-0.200796 -0.338608,-0.405399 -0.498332,-0.617193 l -0.002,-0.0021 c -0.200221,-0.263691 -0.41703,-0.527316 -0.660156,-0.776955 l -0.002,-0.0021 C 32.970368,14.492475 32.727148,14.308956 32.46448,14.157921 l -0.0078,-0.0039 -0.0059,-0.0039 C 32.076741,13.95079 31.674197,13.79336 31.249729,13.687448 h -0.002 C 30.61478,13.526556 29.609554,13.426706 28.878588,13.351509 l -0.351562,-0.03712 -0.152344,0.320316 -0.691406,1.470714 0.654297,0.105475 c 1.163682,0.187689 2.313862,0.429024 3.439453,0.726567 0.47222,0.124149 0.644074,0.450232 0.533203,0.755864 -0.111153,0.305468 -0.590897,0.557586 -1.0625,0.433598 h -0.002 c -1.23526,-0.322498 -2.494267,-0.579033 -3.765625,-0.765631 l -0.03516,-0.0039 -0.0059,-0.0021 -0.03516,-0.0039 c -0.03241,-0.0051 -0.06854,-0.01042 -0.105469,-0.01563 -1.231059,-0.172478 -2.474568,-0.259677 -3.71875,-0.259767 h -0.002 c -1.237788,-0.0063 -2.471872,0.09468 -3.683594,0.294925 l -0.02539,0.0039 c -1.035659,0.172135 -2.055553,0.41761 -3.044922,0.736333 -0.459326,0.148161 -0.967617,-0.07793 -1.103516,-0.382815 -0.136463,-0.305375 0.0076,-0.627275 0.466797,-0.775397 0.929929,-0.299939 1.881529,-0.541366 2.847656,-0.722661 l 0.636719,-0.119146 z m 10.83789,1.156259 c 0.500708,0.06151 1.058969,0.115995 1.339844,0.187501 v 0.0021 h 0.002 c 0.197088,0.0491 0.372468,0.138303 0.556641,0.212894 -0.625343,-0.156247 -1.262212,-0.278973 -1.898438,-0.402348 z m -11.769531,0.02148 c -0.41765,0.09605 -0.833039,0.198632 -1.24414,0.31641 0.131622,-0.04734 0.252613,-0.115905 0.388671,-0.150393 v 0.0021 c 0.281869,-0.07107 0.56992,-0.113808 0.855469,-0.167969 z m 15.267578,1.750014 c 0.129174,0.166476 0.259675,0.33193 0.396485,0.492192 0.862525,1.218163 1.500716,2.537268 1.902343,3.908234 0.457485,1.595156 0.676962,3.222251 0.664063,4.861367 v 0.0021 c -0.0062,1.063588 -0.08926,2.11985 -0.230469,3.1719 -0.23093,0.221059 -0.463361,0.439754 -0.701172,0.64649 -0.248223,0.216137 -0.520446,0.413318 -0.8125,0.583988 -0.199525,0.11431 -0.426388,0.202781 -0.667968,0.265629 -0.310948,0.06919 -0.643464,0.104574 -0.964844,0.09961 h -0.0039 -0.0039 c -0.425122,0 -0.854693,-0.03195 -1.28125,-0.08594 h -0.0039 c -0.33083,-0.04539 -0.658605,-0.09718 -0.986328,-0.152346 l -0.425781,-0.726567 c 0.667304,-0.135719 1.33393,-0.270588 1.988281,-0.443364 0.927914,-0.243954 1.53954,-1.18212 1.21875,-2.066422 -0.321777,-0.8843 -1.327746,-1.300656 -2.255859,-1.05665 v -0.0021 c -1.255945,0.328055 -2.53785,0.585918 -3.833985,0.769537 l 0.002,-0.0021 c -1.188263,0.160942 -2.386826,0.250002 -3.583984,0.250002 h -0.002 -0.002 c -2.198273,0.01106 -4.390061,-0.325647 -6.44336,-0.986335 -0.912,-0.294172 -1.938424,0.06675 -2.322265,0.925788 -0.384201,0.859752 0.159235,1.84223 1.072265,2.136735 l 0.002,0.0021 c 0.68332,0.21863 1.385804,0.376658 2.08789,0.535163 l -0.390625,0.664066 c -0.328993,0.05537 -0.658114,0.106812 -0.990234,0.152345 -0.433844,0.05404 -0.854825,0.08594 -1.279297,0.08594 h -0.0039 -0.0039 c -0.328778,0.005 -0.652701,-0.03012 -0.964843,-0.09961 -0.242438,-0.06306 -0.47183,-0.152688 -0.671875,-0.267581 v -0.0021 c -0.293905,-0.168147 -0.559289,-0.361201 -0.810547,-0.579983 l -0.002,-0.0021 -0.002,-0.0021 c -0.241394,-0.205186 -0.472173,-0.423611 -0.703125,-0.644537 -0.14097,-1.051228 -0.222657,-2.106866 -0.222657,-3.167994 v -0.0021 -0.0037 c -0.01932,-1.636963 0.205812,-3.264238 0.664063,-4.861367 v -0.0021 c 0.395312,-1.370433 1.040863,-2.691617 1.90625,-3.912141 0.114451,-0.138783 0.229544,-0.282406 0.34375,-0.425785 -0.05374,0.279295 -0.157036,0.556417 -0.03125,0.837898 0.383841,0.859036 1.410261,1.219963 2.322265,0.925788 0.809052,-0.260634 1.649086,-0.443385 2.494141,-0.601567 l 0.01172,0.03516 0.443359,-0.140626 c 1.149682,-0.18866 2.320761,-0.285342 3.494141,-0.279299 h 0.002 0.002 c 1.198696,0 2.396767,0.08394 3.582031,0.250002 0.01607,0.0023 0.03465,0.005 0.05273,0.0078 l 0.4375,0.148438 0.03125,-0.06055 c 1.116972,0.175562 2.226844,0.388441 3.3125,0.67188 0.928113,0.244008 1.934082,-0.174301 2.255859,-1.058603 0.100259,-0.276375 -0.02465,-0.531079 -0.08789,-0.794927 z m -12.25,3.744172 c -1.553384,0 -2.824218,1.268892 -2.824218,2.822288 0,1.553394 1.270834,2.82424 2.824218,2.82424 1.553383,0 2.824219,-1.270846 2.824219,-2.82424 0,-1.553396 -1.270836,-2.822288 -2.824219,-2.822288 z m 6.191407,0 c -1.553383,0 -2.824219,1.268892 -2.824219,2.822288 0,1.553394 1.270836,2.82424 2.824219,2.82424 1.553383,0 2.824218,-1.270846 2.824218,-2.82424 0,-1.553396 -1.270835,-2.822288 -2.824218,-2.822288 z m -6.191407,1.000008 c 1.012321,0 1.824219,0.80995 1.824219,1.82228 0,1.012327 -0.811898,1.824231 -1.824219,1.824231 -1.012321,0 -1.824218,-0.811904 -1.824218,-1.824231 0,-1.01233 0.811897,-1.82228 1.824218,-1.82228 z m 6.191407,0 c 1.01232,0 1.824218,0.80995 1.824218,1.82228 0,1.012327 -0.811898,1.824231 -1.824218,1.824231 -1.012321,0 -1.824219,-0.811904 -1.824219,-1.824231 0,-1.01233 0.811898,-1.82228 1.824219,-1.82228 z"
     id="path15" />
</svg>
