<?xml version="1.0" encoding="UTF-8" standalone="no"?>
<!-- Generator: Gravit.io -->

<svg
   style="isolation:isolate"
   viewBox="0 0 48 48"
   width="48pt"
   height="48pt"
   version="1.1"
   id="svg16"
   sodipodi:docname="disk-burner.svg"
   inkscape:version="1.1.2 (0a00cf5339, 2022-02-04)"
   xmlns:inkscape="http://www.inkscape.org/namespaces/inkscape"
   xmlns:sodipodi="http://sodipodi.sourceforge.net/DTD/sodipodi-0.dtd"
   xmlns:xlink="http://www.w3.org/1999/xlink"
   xmlns="http://www.w3.org/2000/svg"
   xmlns:svg="http://www.w3.org/2000/svg">
  <defs
     id="defs20">
    <linearGradient
       inkscape:collect="always"
       xlink:href="#_lgradient_15"
       id="linearGradient872"
       x1="-12.025727"
       y1="6.1170783"
       x2="-0.085100174"
       y2="6.1170783"
       gradientUnits="userSpaceOnUse"
       gradientTransform="matrix(3.8358211,0,0,3.8371386,-0.00544341,-0.00268054)" />
    <linearGradient
       id="_lgradient_1"
       x1="0.18336116"
       y1="0.24917752"
       x2="0.9027437"
       y2="0.90347725"
       gradientTransform="matrix(24.617266,0,0,24.816118,10.841288,10.089605)"
       gradientUnits="userSpaceOnUse">
      <stop
         offset="2.608695652173913%"
         stop-opacity="1"
         style="stop-color:rgb(179,255,171)"
         id="stop2-3" />
      <stop
         offset="98.69565217391305%"
         stop-opacity="1"
         style="stop-color:rgb(18,255,247)"
         id="stop4-6" />
    </linearGradient>
    <linearGradient
       inkscape:collect="always"
       xlink:href="#_lgradient_15"
       id="linearGradient15"
       x1="-9.6850061"
       y1="45.161198"
       x2="11.98815"
       y2="21.735205"
       gradientUnits="userSpaceOnUse"
       gradientTransform="matrix(1.1147442,0,0,1.1150348,-0.01237238,-3.3277956)" />
    <linearGradient
       inkscape:collect="always"
       xlink:href="#_lgradient_15"
       id="linearGradient900"
       x1="9.8076191"
       y1="22.774147"
       x2="37.14439"
       y2="22.774147"
       gradientUnits="userSpaceOnUse" />
    <linearGradient
       inkscape:collect="always"
       xlink:href="#_lgradient_14"
       id="linearGradient1909"
       x1="32.491024"
       y1="25.318722"
       x2="31.400471"
       y2="35.20649"
       gradientUnits="userSpaceOnUse" />
  </defs>
  <sodipodi:namedview
     id="namedview18"
     pagecolor="#ffffff"
     bordercolor="#666666"
     borderopacity="1.0"
     inkscape:pageshadow="2"
     inkscape:pageopacity="0.0"
     inkscape:pagecheckerboard="0"
     inkscape:document-units="pt"
     showgrid="false"
     inkscape:zoom="10.21875"
     inkscape:cx="30.091743"
     inkscape:cy="32"
     inkscape:window-width="1600"
     inkscape:window-height="836"
     inkscape:window-x="0"
     inkscape:window-y="0"
     inkscape:window-maximized="1"
     inkscape:current-layer="svg16" />
  <linearGradient
     id="_lgradient_14"
     x1="0.6209925156173352"
     y1="0.04361480303477505"
     x2="0.48832528358078464"
     y2="0.9625337219536944"
     gradientTransform="matrix(8.2202258,0,0,10.760219,27.386327,24.849416)"
     gradientUnits="userSpaceOnUse">
    <stop
       offset="0%"
       stop-opacity="1"
       style="stop-color:rgb(255,224,49)"
       id="stop2" />
    <stop
       offset="100%"
       stop-opacity="1"
       style="stop-color:rgb(250,0,117)"
       id="stop4" />
  </linearGradient>
  <rect
     x="-46.783188"
     y="1.2253767"
     height="45.80014"
     rx="6.1837621"
     shape-rendering="crispEdges"
     id="rect5-6-7-3"
     ry="6.8055277"
     transform="matrix(0.00524063,-0.99998627,0.99998801,0.00489691,0,0)"
     style="isolation:isolate;fill:#b600ff;fill-opacity:0.13470298;stroke:url(#linearGradient872);stroke-width:2.0301;stroke-miterlimit:4;stroke-dasharray:none;stroke-opacity:1"
     width="45.801998" />
  <rect
     x="-15.686804"
     y="17.260084"
     height="33.345856"
     rx="6.7920032"
     shape-rendering="crispEdges"
     id="rect5-6-6-6-6"
     style="isolation:isolate;fill:#b600ff;fill-opacity:0.13470298;stroke:url(#linearGradient15);stroke-width:1.67233;stroke-miterlimit:4;stroke-dasharray:none;stroke-opacity:1"
     ry="7.4743071"
     transform="matrix(0.72446484,-0.68931175,0.68622417,0.72739012,0,0)"
     width="33.338203" />
  <path
     style="color:#000000;fill:url(#linearGradient1909);-inkscape-stroke:none"
     d="m 32.265625,24.568359 c -2.79751,1.334464 -5.378906,4.56113 -5.378906,7.007813 0,2.469274 1.988162,4.482332 4.447265,4.529297 l 0.01953,-1 c -0.830168,-0.0163 -1.488282,-0.679764 -1.488282,-1.513672 0,-0.692347 0.745776,-1.7896 1.861328,-2.494141 0.175155,0.78053 0.47511,1.413229 0.769532,1.822266 0.200786,0.27895 0.356534,0.497479 0.425781,0.667969 0.06925,0.170489 0.08622,0.281353 0.0059,0.515625 -0.10207,0.297783 -0.25087,0.546669 -0.490234,0.722656 -0.08969,0.02154 -0.164504,0.05595 -0.259766,0.07227 -0.216196,0.103215 -0.429085,0.208655 -0.777343,0.210938 -8.15e-4,5e-6 -0.0011,-5e-6 -0.002,0 l 0.002,1 c -0.0043,0 0.0061,-3.1e-5 0.0039,0 -0.0097,1.41e-4 -0.01083,0 0.01758,0 2.401906,0 3.927254,-1.335226 4.507812,-3.027344 0.26488,-0.771547 0.203297,-1.478745 -0.04102,-2.080078 -0.244312,-0.601333 -0.635532,-1.10895 -1.025391,-1.650391 -0.733663,-1.01892 -1.541857,-2.170845 -1.629796,-4.153674 l -0.112391,-0.701794 c -0.285166,0.02409 -0.5972,-0.05095 -0.855499,0.07226 z m 0.150391,1.058594 c 0.20262,1.957312 0.940276,3.344079 1.634765,4.308594 0.397745,0.552392 0.736402,1.013739 0.910156,1.441406 0.173755,0.427667 0.218921,0.811452 0.02344,1.380859 -0.219706,0.640363 -0.597195,1.171065 -1.113281,1.582032 0.114366,-0.404202 0.10621,-0.807756 -0.02344,-1.126953 -0.139758,-0.344092 -0.348109,-0.608951 -0.541015,-0.876954 -0.385813,-0.536005 -0.75,-1.056324 -0.75,-2.105468 v -0.738282 l -0.685547,0.273438 c -1.867638,0.746798 -3.00586,2.410517 -3.00586,3.826172 0,0.237674 0.189614,0.39313 0.251953,0.611328 -0.73923,-0.646073 -1.230468,-1.563492 -1.230468,-2.626953 0,-1.805818 1.706218,-4.557781 4.529297,-5.949219 z"
     id="path7"
     sodipodi:nodetypes="ssccscsscccsccsscssccscssccsssccscsc" />
  <linearGradient
     id="_lgradient_15"
     x1="0.061897106109324806"
     y1="0.14716151924516707"
     x2="0.9904248356713994"
     y2="0.9865808764728623"
     gradientTransform="matrix(27.336773,0,0,27.336773,9.8076191,9.105761)"
     gradientUnits="userSpaceOnUse">
    <stop
       offset="0%"
       stop-opacity="1"
       style="stop-color:rgb(22,181,228)"
       id="stop9" />
    <stop
       offset="98.26086956521739%"
       stop-opacity="1"
       style="stop-color:rgb(245,32,250)"
       id="stop11" />
  </linearGradient>
  <path
     id="path14"
     style="color:#000000;fill:url(#linearGradient900);-inkscape-stroke:none"
     d="m 23.476562,8.6054688 c -3.756263,0 -7.361043,1.4959772 -10.019531,4.1484372 h -0.002 c -2.65246,2.658488 -4.1464842,6.263268 -4.1464842,10.019531 0,3.756264 1.4940242,7.362997 4.1464842,10.021485 h 0.002 c 2.658488,2.65246 6.263268,4.148437 10.019531,4.148437 0.700555,0 1.403546,-0.05588 2.095704,-0.158203 0.90352,-0.132263 1.537053,-0.985412 1.402343,-1.888672 C 26.840005,33.993888 25.986494,33.364065 25.083984,33.5 h -0.002 c -0.534163,0.07781 -1.06599,0.115234 -1.605469,0.115234 -2.874224,0 -5.632517,-1.143937 -7.667968,-3.173828 -2.029891,-2.035451 -3.173828,-4.793744 -3.173828,-7.667969 0,-2.874224 1.143937,-5.630564 3.173828,-7.666015 2.035451,-2.029891 4.793744,-3.175781 7.667968,-3.175781 2.873673,0 5.630678,1.146619 7.666016,3.175781 2.029891,2.035451 3.175781,4.791791 3.175781,7.666015 0,0.790708 -0.08396,1.574599 -0.255859,2.339844 v 0.002 0.002 c -0.192095,0.890924 0.379423,1.782459 1.269531,1.978516 0.889585,0.19594 1.78359,-0.374206 1.980469,-1.263672 v -0.002 c 0.223011,-1.007241 0.332031,-2.033217 0.332031,-3.056641 0,-3.756263 -1.495977,-7.361043 -4.148437,-10.019531 -2.658488,-2.65246 -6.263268,-4.1484372 -10.019532,-4.1484372 z m 0,1 c 3.490882,0 6.840988,1.3895602 9.3125,3.8554692 2.465909,2.471512 3.855469,5.821618 3.855469,9.312499 0,0.953482 -0.101483,1.906999 -0.308594,2.841797 -0.07957,0.361246 -0.427531,0.583537 -0.789062,0.503907 -0.361564,-0.07964 -0.585595,-0.430265 -0.507813,-0.791016 0.188132,-0.838845 0.279297,-1.694856 0.279297,-2.554688 0,-3.139859 -1.250766,-6.150946 -3.466797,-8.373046 h -0.002 v -0.002 c -2.2221,-2.216031 -5.233187,-3.466797 -8.373047,-3.466797 -3.139859,0 -6.152899,1.250766 -8.374999,3.466797 v 0.002 c -2.216031,2.2221 -3.466797,5.233187 -3.466797,8.373046 0,3.13986 1.250766,6.1529 3.466797,8.375 2.2221,2.216031 5.23514,3.466797 8.374999,3.466797 0.588236,0 1.170031,-0.04209 1.751954,-0.126953 h 0.002 0.002 c 0.368194,-0.05592 0.698999,0.188459 0.753906,0.556641 0.05491,0.368189 -0.190663,0.698093 -0.558594,0.751953 -0.645596,0.09544 -1.302338,0.146484 -1.951172,0.146484 -3.490372,0 -6.841091,-1.390232 -9.312499,-3.855468 -2.465909,-2.471513 -3.855469,-5.823572 -3.855469,-9.314454 0,-3.490881 1.38956,-6.840987 3.855469,-9.312499 2.471408,-2.465236 5.822127,-3.8554692 9.312499,-3.8554692 z m -9.146484,8.2421872 c -0.259044,0.09965 -0.480537,0.295934 -0.599609,0.566406 -0.615459,1.372409 -0.933594,2.859383 -0.933594,4.359375 0,2.323925 0.75747,4.582884 2.160156,6.4375 1.397819,1.855622 3.368041,3.205182 5.601563,3.839844 h 0.002 c 0.568882,0.15993 1.171178,-0.178423 1.333984,-0.746094 0.163094,-0.568675 -0.171309,-1.172083 -0.738281,-1.33789 l -0.002,-0.002 h -0.002 C 19.366644,30.459319 17.796224,29.388563 16.681594,27.912062 15.565628,26.427773 14.96089,24.62469 14.960891,22.77339 c 0,-1.197623 0.253372,-2.383591 0.742187,-3.476562 v -0.002 c 0.240507,-0.540605 -0.0067,-1.189205 -0.548828,-1.429688 -0.269947,-0.119738 -0.565174,-0.117224 -0.824219,-0.01758 z M 14.75,18.779297 c 0.04529,0.02009 0.06146,0.05904 0.03906,0.109375 -0.54649,1.221928 -0.828125,2.546469 -0.828125,3.884765 0,2.068907 0.674458,4.083707 1.919921,5.740235 h 0.002 c 1.24586,1.650918 2.999447,2.847015 4.992187,3.412109 0.04956,0.01449 0.07232,0.05566 0.05859,0.103516 -0.01401,0.04886 -0.05391,0.07199 -0.101563,0.05859 -2.024029,-0.575135 -3.810113,-1.797809 -5.076172,-3.478516 -1.272148,-1.681449 -1.958984,-3.728402 -1.958984,-5.835938 0,-1.360355 0.287303,-2.709164 0.845703,-3.953125 l 0.002,-0.002 v -0.002 c 0.01894,-0.04301 0.05791,-0.0582 0.105469,-0.03711 z m 9.890625,-6.623047 c -0.588138,-0.06388 -1.131105,0.369807 -1.193359,0.958984 -0.06208,0.587609 0.36941,1.127711 0.957031,1.19336 2.082538,0.230782 4.011164,1.219028 5.412109,2.779297 1.400928,1.560248 2.175781,3.580886 2.175781,5.679687 l -0.0059,0.371094 c -0.01069,0.590621 0.471348,1.089002 1.0625,1.097656 0.59128,0.0086 1.087818,-0.470945 1.099609,-1.0625 v -0.002 l 0.0059,-0.382813 v -0.01563 c 0,-2.629807 -0.969152,-5.168171 -2.726563,-7.126953 -1.751413,-1.958897 -4.173789,-3.203001 -6.785156,-3.490234 z m -0.109375,0.994141 h 0.002 c 2.366689,0.259892 4.5617,1.389349 6.148438,3.164062 1.592793,1.775302 2.472656,4.075117 2.472656,6.458984 v 0.0078 l -0.0059,0.373047 c -10e-4,0.05057 -0.03509,0.08277 -0.08594,0.08203 -0.05032,-7.36e-4 -0.07718,-0.02943 -0.07617,-0.08008 v -0.002 l 0.0059,-0.382813 v -0.0039 c 0,-2.344874 -0.866239,-4.60423 -2.43164,-6.347656 -1.565382,-1.743406 -3.720638,-2.84768 -6.046875,-3.105469 -0.04752,-0.0053 -0.07766,-0.04273 -0.07227,-0.09375 0.0052,-0.04879 0.03663,-0.07619 0.08984,-0.07031 z m -1.054688,6.505859 c -0.822915,0 -1.619121,0.324135 -2.203125,0.914062 -0.589927,0.584004 -0.914062,1.38021 -0.914062,2.203125 0,0.822916 0.324135,1.619122 0.914062,2.203125 0.584004,0.589928 1.38021,0.914063 2.203125,0.914063 0.822916,0 1.619122,-0.324135 2.203125,-0.914063 0.589928,-0.584003 0.914063,-1.380209 0.914063,-2.203125 0,-0.822915 -0.324135,-1.619121 -0.914063,-2.203125 -0.584003,-0.589927 -1.380209,-0.914062 -2.203125,-0.914062 z m 0,1 c 0.560491,0 1.101171,0.221492 1.494141,0.619141 l 0.002,0.002 0.002,0.002 c 0.397649,0.39297 0.619141,0.93365 0.619141,1.49414 0,0.560491 -0.221492,1.101171 -0.619141,1.494141 l -0.002,0.002 -0.002,0.002 c -0.39297,0.397649 -0.93365,0.619141 -1.494141,0.619141 -0.56049,0 -1.10117,-0.221492 -1.49414,-0.619141 l -0.002,-0.002 -0.002,-0.002 c -0.397649,-0.39297 -0.619141,-0.93365 -0.619141,-1.494141 0,-0.56049 0.221492,-1.10117 0.619141,-1.49414 l 0.002,-0.002 0.002,-0.002 c 0.39297,-0.397649 0.93365,-0.619141 1.49414,-0.619141 z m 0,-3.326172 c -1.442006,0 -2.83068,0.576775 -3.849609,1.595703 -1.018929,1.018929 -1.595703,2.40565 -1.595703,3.847656 0,1.442007 0.576774,2.830681 1.595703,3.84961 1.018929,1.018929 2.407603,1.595703 3.849609,1.595703 1.442007,0 2.828728,-0.576774 3.847657,-1.595703 1.018928,-1.018929 1.595703,-2.407603 1.595703,-3.84961 0,-1.442006 -0.576775,-2.828727 -1.595703,-3.847656 -1.018929,-1.018928 -2.40565,-1.595703 -3.847657,-1.595703 z m 0,1 c 1.175341,0 2.309962,0.472071 3.140625,1.302734 0.830664,0.830664 1.302735,1.965285 1.302735,3.140625 0,1.175341 -0.472071,2.311915 -1.302735,3.142579 -0.830663,0.830663 -1.965284,1.302734 -3.140625,1.302734 -1.17534,0 -2.311914,-0.472071 -3.142578,-1.302734 -0.830663,-0.830664 -1.302734,-1.967238 -1.302734,-3.142579 0,-1.17534 0.472071,-2.309961 1.302734,-3.140625 0.830664,-0.830663 1.967238,-1.302734 3.142578,-1.302734 z" />
</svg>
