<?xml version="1.0" encoding="UTF-8" standalone="no"?>
<!-- Generator: Gravit.io -->

<svg
   style="isolation:isolate"
   viewBox="0 0 48 48"
   width="48pt"
   height="48pt"
   version="1.1"
   id="svg28"
   sodipodi:docname="disk-utility.svg"
   inkscape:version="1.1.2 (0a00cf5339, 2022-02-04)"
   xmlns:inkscape="http://www.inkscape.org/namespaces/inkscape"
   xmlns:sodipodi="http://sodipodi.sourceforge.net/DTD/sodipodi-0.dtd"
   xmlns:xlink="http://www.w3.org/1999/xlink"
   xmlns="http://www.w3.org/2000/svg"
   xmlns:svg="http://www.w3.org/2000/svg">
  <defs
     id="defs32">
    <linearGradient
       inkscape:collect="always"
       xlink:href="#_lgradient_7"
       id="linearGradient872"
       x1="-12.025727"
       y1="6.1170783"
       x2="-0.085100174"
       y2="6.1170783"
       gradientUnits="userSpaceOnUse"
       gradientTransform="matrix(3.8358211,0,0,3.8371386,-0.00562311,-0.03937722)" />
    <linearGradient
       id="_lgradient_1"
       x1="0.18336116"
       y1="0.24917752"
       x2="0.9027437"
       y2="0.90347725"
       gradientTransform="matrix(24.617266,0,0,24.816118,10.841288,10.089605)"
       gradientUnits="userSpaceOnUse">
      <stop
         offset="2.608695652173913%"
         stop-opacity="1"
         style="stop-color:rgb(179,255,171)"
         id="stop2-3" />
      <stop
         offset="98.69565217391305%"
         stop-opacity="1"
         style="stop-color:rgb(18,255,247)"
         id="stop4-6" />
    </linearGradient>
    <linearGradient
       inkscape:collect="always"
       xlink:href="#_lgradient_7"
       id="linearGradient15"
       x1="-9.6850061"
       y1="45.161198"
       x2="11.98815"
       y2="21.735205"
       gradientUnits="userSpaceOnUse"
       gradientTransform="matrix(1.1147442,0,0,1.1150348,-0.03906579,-3.3530916)" />
    <linearGradient
       inkscape:collect="always"
       xlink:href="#_lgradient_7"
       id="linearGradient1306"
       x1="8.8018351"
       y1="3.2423666"
       x2="39.991295"
       y2="38.796219"
       gradientUnits="userSpaceOnUse" />
  </defs>
  <sodipodi:namedview
     id="namedview30"
     pagecolor="#ffffff"
     bordercolor="#666666"
     borderopacity="1.0"
     inkscape:pageshadow="2"
     inkscape:pageopacity="0.0"
     inkscape:pagecheckerboard="0"
     inkscape:document-units="pt"
     showgrid="false"
     inkscape:zoom="5.109375"
     inkscape:cx="29.259939"
     inkscape:cy="32"
     inkscape:window-width="1056"
     inkscape:window-height="545"
     inkscape:window-x="343"
     inkscape:window-y="112"
     inkscape:window-maximized="0"
     inkscape:current-layer="svg28" />
  <linearGradient
     id="_lgradient_4"
     x1="19.865625"
     y1="15.48913"
     x2="28.215157"
     y2="23.765562"
     gradientUnits="userSpaceOnUse"
     gradientTransform="matrix(0.84048163,0,0,0.84048163,4.0741255,2.0084703)">
    <stop
       offset="0%"
       stop-opacity="1"
       style="stop-color:rgb(240,107,169)"
       id="stop2" />
    <stop
       offset="98.69565217391305%"
       stop-opacity="1"
       style="stop-color:rgb(66,216,246)"
       id="stop4" />
  </linearGradient>
  <rect
     x="-46.783367"
     y="1.1886801"
     height="45.80014"
     rx="6.1837621"
     shape-rendering="crispEdges"
     id="rect5-6-7-3"
     ry="6.8055277"
     transform="matrix(0.00524063,-0.99998627,0.99998801,0.00489691,0,0)"
     style="isolation:isolate;fill:#00aeff;fill-opacity:0.13470298;stroke:url(#linearGradient872);stroke-width:2.0301;stroke-miterlimit:4;stroke-dasharray:none;stroke-opacity:1"
     width="45.801998" />
  <rect
     x="-15.713497"
     y="17.234789"
     height="33.345856"
     rx="6.7920032"
     shape-rendering="crispEdges"
     id="rect5-6-6-6-6"
     style="isolation:isolate;fill:#00aeff;fill-opacity:0.13470298;stroke:url(#linearGradient15);stroke-width:1.67233;stroke-miterlimit:4;stroke-dasharray:none;stroke-opacity:1"
     ry="7.4743071"
     transform="matrix(0.72446484,-0.68931175,0.68622417,0.72739012,0,0)"
     width="33.338203" />
  <path
     style="color:#000000;vector-effect:non-scaling-stroke;fill:url(#_lgradient_4);stroke-linecap:square;stroke-miterlimit:3;-inkscape-stroke:none"
     d="m 24.246094,15.376953 c -1.662368,0 -3.021485,1.359118 -3.021485,3.021484 0,1.662368 1.359117,3.021485 3.021485,3.021485 1.662367,0 3.021484,-1.359117 3.021484,-3.021485 0,-1.662367 -1.359117,-3.021484 -3.021484,-3.021484 z m 0,1 c 1.121304,0 2.021484,0.90018 2.021484,2.021484 0,1.121306 -0.90018,2.021485 -2.021484,2.021485 -1.121306,0 -2.021485,-0.900179 -2.021485,-2.021485 0,-1.121304 0.900179,-2.021484 2.021485,-2.021484 z"
     id="path7" />
  <linearGradient
     id="_lgradient_5"
     x1="0.04062500000000003"
     y1="0.054347826086956486"
     x2="0.9683507709251103"
     y2="0.9739513503160315"
     gradientTransform="matrix(21.838234,0,0,26.563423,12.91263,7.8943633)"
     gradientUnits="userSpaceOnUse">
    <stop
       offset="0%"
       stop-opacity="1"
       style="stop-color:rgb(240,107,169)"
       id="stop9" />
    <stop
       offset="98.69565217391305%"
       stop-opacity="1"
       style="stop-color:rgb(66,216,246)"
       id="stop11" />
  </linearGradient>
  <linearGradient
     id="_lgradient_6"
     x1="12.20773"
     y1="7.52855"
     x2="39.730383"
     y2="34.810242"
     gradientTransform="matrix(0.76464045,0,0,0.92384513,4.0741255,2.0084703)"
     gradientUnits="userSpaceOnUse">
    <stop
       offset="0%"
       stop-opacity="1"
       style="stop-color:rgb(240,107,169)"
       id="stop14" />
    <stop
       offset="98.69565217391305%"
       stop-opacity="1"
       style="stop-color:rgb(66,216,246)"
       id="stop16" />
  </linearGradient>
  <path
     style="color:#000000;vector-effect:non-scaling-stroke;fill:url(#_lgradient_6);fill-rule:evenodd;stroke-linecap:square;stroke-miterlimit:3;-inkscape-stroke:none"
     d="m 23.726562,7.40625 c -2.490627,0.1181548 -4.894963,1.0826468 -6.789062,2.769531 -0.550879,0.487163 -0.60377,1.343445 -0.113281,1.892578 0.487522,0.547059 1.342616,0.597526 1.888672,0.109375 l 0.002,-0.002 c 1.916988,-1.702605 4.51519,-2.4269153 7.033203,-1.964843 2.167896,0.397909 4.097435,1.647692 5.34375,3.46289 l 0.002,0.002 c 1.25501,1.809625 1.737722,4.059627 1.339844,6.226563 -0.397072,2.167651 -1.647636,4.099348 -3.462891,5.345703 h -0.002 c -1.808713,1.254928 -4.056767,1.737743 -6.224609,1.339844 -0.237373,-0.04362 -0.464064,-0.121982 -0.695313,-0.185547 l 1.779297,-3.03125 c 0.129621,-0.221147 0.220486,-0.406568 0.275391,-0.595703 0.02745,-0.09457 0.04775,-0.189178 0.04102,-0.314454 -0.0067,-0.125275 -0.05751,-0.309831 -0.207031,-0.439453 -0.149521,-0.129622 -0.336015,-0.153627 -0.460938,-0.142578 -0.124922,0.01105 -0.218848,0.04735 -0.308593,0.08789 -0.17949,0.08107 -0.348137,0.195891 -0.548828,0.355469 l -3.365235,2.673828 c -0.663684,-0.502322 -1.288034,-1.064506 -1.78125,-1.751953 -1.257253,-1.753184 -1.775869,-3.937166 -1.457031,-6.072266 v -0.002 c 0.103786,-0.72792 -0.408498,-1.413743 -1.134766,-1.521484 h -0.002 c -0.726366,-0.10643 -1.41382,0.407124 -1.517578,1.134765 -0.426247,2.821357 0.272827,5.697129 1.929688,8.021484 0.517444,0.722429 1.1661,1.317139 1.830078,1.886719 l -3.710938,2.947266 h -0.002 c -0.767447,0.610165 -1.151249,1.675957 -0.949219,2.634765 l 0.125,0.582032 c 0.203693,0.966694 1.014086,1.760922 1.984375,1.945312 h 0.002 l 0.640625,0.121094 c 0.975699,0.185416 2.01164,-0.285506 2.513671,-1.142578 l 2.935547,-5.007813 c 0.52272,0.180681 1.049893,0.353796 1.59961,0.455078 2.867345,0.525739 5.837261,-0.11076 8.236328,-1.765625 h 0.002 c 2.398132,-1.655706 4.045658,-4.206936 4.572265,-7.074218 C 35.596047,17.519392 34.96147,14.547458 33.306641,12.148438 31.65094,9.7494347 29.097859,8.0999649 26.230469,7.5742187 25.396847,7.4212303 24.556948,7.3668567 23.726562,7.40625 Z m 0.04883,1 c 0.754892,-0.03583 1.517562,0.013265 2.27539,0.1523438 2.605823,0.4777868 4.927131,1.9782662 6.431641,4.1582032 1.503695,2.179921 2.083267,4.882397 1.605469,7.488281 -0.478608,2.605931 -1.979076,4.927138 -4.158204,6.431641 -2.179872,1.503664 -4.884367,2.083263 -7.490234,1.605468 -0.630162,-0.116103 -1.242768,-0.291705 -1.832031,-0.521484 l -0.398438,-0.154297 -0.214843,0.367188 -3.13086,5.339843 c -0.244316,0.417099 -0.99183,0.756276 -1.466797,0.666016 L 14.755859,33.818359 C 14.275479,33.72707 13.663061,33.125688 13.5625,32.648437 h -0.002 L 13.4375,32.066406 c -0.102223,-0.485138 0.204694,-1.337162 0.59375,-1.646484 l 4.640625,-3.685547 -0.509766,-0.388672 C 17.382433,25.749951 16.68712,25.0362 16.105469,24.224609 l -0.002,-0.002 c -1.507814,-2.116428 -2.140658,-4.731554 -1.751953,-7.294922 v -0.002 -0.002 c 0.02736,-0.191843 0.191373,-0.31516 0.382812,-0.287109 0.191537,0.02841 0.318329,0.199057 0.291016,0.390625 -0.356299,2.389423 0.222766,4.83258 1.632812,6.798828 h 0.002 c 0.631333,0.879956 1.403782,1.636611 2.279297,2.242187 l 0.306641,0.210938 3.214843,-2.554688 -1.910156,3.257813 0.570313,0.203125 c 0.467025,0.166035 0.948523,0.296145 1.441406,0.386719 2.428731,0.445784 4.946058,-0.09339 6.974609,-1.5 l 0.002,-0.002 c 2.034571,-1.397848 3.433987,-3.559425 3.878907,-5.988281 0.445805,-2.427956 -0.09348,-4.945289 -1.5,-6.974609 l -0.002,-0.002 C 30.51813,11.070843 28.356346,9.674279 25.927734,9.2285156 23.106223,8.7107498 20.194257,9.5211997 18.046875,11.429688 v 0.002 c -0.142758,0.128136 -0.347549,0.117839 -0.476563,-0.02734 v -0.002 c -0.128106,-0.143424 -0.117423,-0.348766 0.0293,-0.478516 h 0.002 v -0.002 C 19.323026,9.3882838 21.510713,8.5137393 23.775391,8.40625 Z m -0.103516,1.927734 c -0.734869,-0.02263 -1.359479,0.56226 -1.384766,1.296875 -0.02524,0.73328 0.561894,1.359197 1.294922,1.382813 h 0.002 c 1.206023,0.03885 2.359501,0.486106 3.283203,1.255859 0.913253,0.768252 1.552844,1.82917 1.806641,3.00586 0.153935,0.717936 0.871738,1.186073 1.589844,1.03125 0.717181,-0.154634 1.180005,-0.874389 1.027344,-1.591797 -0.367943,-1.758942 -1.327497,-3.344417 -2.707032,-4.5 -1.379823,-1.155827 -3.109418,-1.818151 -4.910156,-1.88086 z m -0.03125,1 c 1.577994,0.05495 3.091925,0.635825 4.300781,1.648438 1.209149,1.012857 2.049841,2.401757 2.371094,3.9375 v 0.002 c 0.04102,0.191323 -0.07326,0.36799 -0.259766,0.408203 -0.186251,0.04016 -0.359338,-0.07221 -0.40039,-0.263672 h -0.002 v -0.002 c -0.300726,-1.394269 -1.054666,-2.649931 -2.140625,-3.5625 h -0.002 V 13.5 c -1.092955,-0.910798 -2.460195,-1.438757 -3.892578,-1.484375 h -0.002 c -0.193971,-0.006 -0.332848,-0.155638 -0.326172,-0.349609 0.0066,-0.192711 0.161283,-0.337074 0.353516,-0.332032 z m -4.652344,15.583985 -4.621093,3.669922 c -0.478542,0.379771 -0.691724,0.965704 -0.566407,1.564453 l 0.04492,0.210937 c 0.126793,0.605735 0.581457,1.052561 1.189453,1.167969 v -0.002 l 0.154297,0.03125 c 0.613764,0.116773 1.206068,-0.152928 1.521484,-0.691406 l 3.189454,-5.441407 -0.453125,-0.248047 c -0.05565,-0.03021 -0.111088,-0.06108 -0.164063,-0.0918 z m -1.302734,2.310547 -1.837891,3.134765 c -0.05776,0.0986 -0.359973,0.235911 -0.470703,0.214844 l -0.154297,-0.03125 c -0.118179,-0.02243 -0.37393,-0.271594 -0.398437,-0.388672 v -0.002 l -0.04492,-0.210938 c -0.02493,-0.125177 0.109573,-0.495326 0.208984,-0.574218 z"
     id="path19" />
  <linearGradient
     id="_lgradient_7"
     x1="0.04062500000000003"
     y1="0.054347826086956486"
     x2="0.9683507709251103"
     y2="0.9739513503160315"
     gradientTransform="matrix(33.619266,0,0,38.662154,7.436052,1.1411626)"
     gradientUnits="userSpaceOnUse">
    <stop
       offset="0%"
       stop-opacity="1"
       style="stop-color:rgb(240,107,169)"
       id="stop21" />
    <stop
       offset="98.69565217391305%"
       stop-opacity="1"
       style="stop-color:rgb(66,216,246)"
       id="stop23" />
  </linearGradient>
  <path
     style="color:#000000;fill:url(#linearGradient1306);fill-rule:evenodd;-inkscape-stroke:none"
     d="m 33.490234,30.898437 c -1.198421,0 -2.179687,0.98322 -2.179687,2.181641 0,1.198423 0.981267,2.179688 2.179687,2.179688 1.198422,0 2.181641,-0.981265 2.181641,-2.179688 0,-1.198421 -0.983218,-2.18164 -2.181641,-2.181641 z m 0,1 c 0.65736,0 1.181641,0.524283 1.181641,1.181641 0,0.657361 -0.52428,1.179688 -1.181641,1.179688 -0.657359,0 -1.179687,-0.522327 -1.179687,-1.179688 0,-0.657358 0.522329,-1.181641 1.179687,-1.181641 z"
     id="path26" />
</svg>
