<?xml version="1.0" encoding="UTF-8" standalone="no"?>
<!-- Generator: Gravit.io -->

<svg
   style="isolation:isolate"
   viewBox="0 0 48 48"
   width="48pt"
   height="48pt"
   version="1.1"
   id="svg21"
   sodipodi:docname="disk-usage-analyzer.svg"
   inkscape:version="1.1.2 (0a00cf5339, 2022-02-04)"
   xmlns:inkscape="http://www.inkscape.org/namespaces/inkscape"
   xmlns:sodipodi="http://sodipodi.sourceforge.net/DTD/sodipodi-0.dtd"
   xmlns:xlink="http://www.w3.org/1999/xlink"
   xmlns="http://www.w3.org/2000/svg"
   xmlns:svg="http://www.w3.org/2000/svg">
  <defs
     id="defs25">
    <linearGradient
       inkscape:collect="always"
       xlink:href="#_lgradient_2"
       id="linearGradient872"
       x1="-12.025727"
       y1="6.1170783"
       x2="-0.085100174"
       y2="6.1170783"
       gradientUnits="userSpaceOnUse"
       gradientTransform="matrix(3.8358211,0,0,3.8371386,-0.00544341,-0.00268054)" />
    <linearGradient
       id="_lgradient_1"
       x1="0.18336116"
       y1="0.24917752"
       x2="0.9027437"
       y2="0.90347725"
       gradientTransform="matrix(24.617266,0,0,24.816118,10.841288,10.089605)"
       gradientUnits="userSpaceOnUse">
      <stop
         offset="2.608695652173913%"
         stop-opacity="1"
         style="stop-color:rgb(179,255,171)"
         id="stop2-7" />
      <stop
         offset="98.69565217391305%"
         stop-opacity="1"
         style="stop-color:rgb(18,255,247)"
         id="stop4-5" />
    </linearGradient>
    <linearGradient
       inkscape:collect="always"
       xlink:href="#_lgradient_2"
       id="linearGradient15"
       x1="-9.6850061"
       y1="45.161198"
       x2="11.98815"
       y2="21.735205"
       gradientUnits="userSpaceOnUse"
       gradientTransform="matrix(1.1147442,0,0,1.1150348,-0.01237238,-3.3277956)" />
    <linearGradient
       inkscape:collect="always"
       xlink:href="#_lgradient_2"
       id="linearGradient977"
       x1="14.091164"
       y1="24"
       x2="34.966114"
       y2="24"
       gradientUnits="userSpaceOnUse" />
  </defs>
  <sodipodi:namedview
     id="namedview23"
     pagecolor="#ffffff"
     bordercolor="#666666"
     borderopacity="1.0"
     inkscape:pageshadow="2"
     inkscape:pageopacity="0.0"
     inkscape:pagecheckerboard="0"
     inkscape:document-units="pt"
     showgrid="false"
     inkscape:zoom="10.21875"
     inkscape:cx="30.091743"
     inkscape:cy="32"
     inkscape:window-width="1600"
     inkscape:window-height="836"
     inkscape:window-x="0"
     inkscape:window-y="0"
     inkscape:window-maximized="1"
     inkscape:current-layer="svg21" />
  <linearGradient
     id="_lgradient_2"
     x1="0.06835937499987493"
     y1="0.9656929347826084"
     x2="0.8876866703538573"
     y2="0.13189868699499785"
     gradientTransform="matrix(20.874949,0,0,24.006266,14.091164,11.996867)"
     gradientUnits="userSpaceOnUse">
    <stop
       offset="0%"
       stop-opacity="1"
       style="stop-color:rgb(59,228,234)"
       id="stop2" />
    <stop
       offset="98.26086956521739%"
       stop-opacity="1"
       style="stop-color:rgb(26,147,237)"
       id="stop4" />
  </linearGradient>
  <rect
     x="-46.783188"
     y="1.2253767"
     height="45.80014"
     rx="6.1837621"
     shape-rendering="crispEdges"
     id="rect5-6-7-3"
     ry="6.8055277"
     transform="matrix(0.00524063,-0.99998627,0.99998801,0.00489691,0,0)"
     style="isolation:isolate;fill:#00dbff;fill-opacity:0.13470298;stroke:url(#linearGradient872);stroke-width:2.0301;stroke-miterlimit:4;stroke-dasharray:none;stroke-opacity:1"
     width="45.801998" />
  <rect
     x="-15.686804"
     y="17.260084"
     height="33.345856"
     rx="6.7920032"
     shape-rendering="crispEdges"
     id="rect5-6-6-6-6"
     style="isolation:isolate;fill:#00dbff;fill-opacity:0.13470298;stroke:url(#linearGradient15);stroke-width:1.67233;stroke-miterlimit:4;stroke-dasharray:none;stroke-opacity:1"
     ry="7.4743071"
     transform="matrix(0.72446484,-0.68931175,0.68622417,0.72739012,0,0)"
     width="33.338203" />
  <path
     style="color:#000000;fill:url(#linearGradient977);fill-rule:evenodd;-inkscape-stroke:none"
     d="m 16.701172,11.496094 c -1.71057,0 -3.109375,1.398804 -3.109375,3.109375 v 18.789062 c 0,1.710571 1.398805,3.109375 3.109375,3.109375 h 6.783203 c 0.846693,0 1.544922,-0.698228 1.544922,-1.544922 0,-0.846693 -0.698229,-1.542968 -1.544922,-1.542968 h -5.740234 c -0.592928,0 -1.066407,-0.47348 -1.066407,-1.066407 V 15.650391 c 0,-0.592927 0.473479,-1.066407 1.066407,-1.066407 H 31.3125 c 0.593585,0 1.066406,0.473286 1.066406,1.066407 v 6.523437 c 0,0.846694 0.696276,1.542969 1.542969,1.542969 0.846694,0 1.544922,-0.696275 1.544922,-1.542969 v -7.568359 c 0,-1.710571 -1.398806,-3.109375 -3.109375,-3.109375 z m 0,1 h 15.65625 c 1.169178,0 2.109375,0.940196 2.109375,2.109375 v 7.568359 c 0,0.305607 -0.239315,0.542969 -0.544922,0.542969 -0.305606,0 -0.542969,-0.237362 -0.542969,-0.542969 v -6.523437 c 0,-1.134329 -0.931541,-2.066407 -2.066406,-2.066407 H 17.744141 c -1.134521,0 -2.066407,0.931885 -2.066407,2.066407 v 16.699218 c 0,1.134522 0.931886,2.066407 2.066407,2.066407 h 5.740234 c 0.305606,0 0.544922,0.237361 0.544922,0.542968 0,0.305606 -0.239316,0.544922 -0.544922,0.544922 h -6.783203 c -1.169179,0 -2.109375,-0.940196 -2.109375,-2.109375 V 14.605469 c 0,-1.169179 0.940196,-2.109375 2.109375,-2.109375 z m 7.828125,2.132812 c -1.932783,0 -3.787875,0.766341 -5.150391,2.134766 -1.367182,1.361899 -2.134765,3.216114 -2.134765,5.148437 0,1.932876 0.766931,3.787929 2.134765,5.150391 1.362508,1.36788 3.217608,2.134766 5.150391,2.134766 0.379043,0 0.761385,-0.0277 1.144531,-0.08984 v 0 L 25.763672,26.5 25.273437,26.57422 c -0.247325,0.03781 -0.492871,0.05664 -0.74414,0.05664 -1.25128,0 -2.454203,-0.494607 -3.335938,-1.380859 v -0.002 h -0.002 C 20.305717,24.366875 19.8105,23.162795 19.8105,21.912063 c 0,-1.250732 0.495217,-2.452858 1.380859,-3.333984 l 0.002,-0.002 c 0.5991,-0.602168 1.367786,-0.943734 2.177735,-1.152344 -0.119635,0.16106 -0.240654,0.328028 -0.248047,0.541016 -0.01871,0.538903 0.408118,0.98481 0.939453,1.03125 -0.562017,0.103252 -1.136592,0.228405 -1.546875,0.642578 -0.539104,0.534042 -0.835938,1.262276 -0.835938,2.013672 0,0.751788 0.296835,1.477677 0.835938,2.011718 0.534042,0.539105 1.261883,0.835938 2.013672,0.835938 0.751395,0 1.477677,-0.296834 2.011719,-0.835938 0.492963,-0.488335 0.717676,-1.157293 0.763671,-1.839843 0.227473,0.333887 0.584406,0.568 1,0.478515 h 0.002 c 0.543366,-0.117197 0.889701,-0.662659 0.779296,-1.205078 0.04914,0.273954 0.16211,0.532498 0.16211,0.814453 0,0.80647 -0.20811,1.60475 -0.603516,2.306641 l -0.246094,0.4375 2.650078,0.277284 0.124931,-0.507047 c 0.397083,-0.742639 0.602541,-1.518109 0.639054,-2.514378 0.07076,-1.930658 -0.766121,-3.78661 -2.132813,-5.148437 -1.362059,-1.368507 -3.217607,-2.134766 -5.15039,-2.134766 z m 0,1 c 1.668153,0 3.267806,0.660689 4.441406,1.839844 v 0.002 h 0.002 c 1.178746,1.173653 1.839844,2.773346 1.839844,4.441406 0,0.903097 -0.297963,1.758447 -0.669922,2.574219 l -0.496094,-0.277344 c 0.326468,-0.730947 0.601563,-1.494235 0.601563,-2.296875 0,-1.513947 -0.600527,-2.970743 -1.675781,-4.041015 -1.070391,-1.076426 -2.527982,-1.677735 -4.042969,-1.677735 -1.51452,0 -2.972376,0.600753 -4.042969,1.675782 -1.075868,1.070382 -1.675781,2.527981 -1.675781,4.042968 0,1.514068 0.599189,2.972766 1.673828,4.042969 3.89e-4,3.91e-4 0.0016,-3.91e-4 0.002,0 3.91e-4,3.89e-4 -3.91e-4,0.0016 0,0.002 1.070593,1.075029 2.528449,1.673828 4.042969,1.673828 0.133828,0 0.264234,-0.02227 0.396484,-0.03125 l 0.08984,0.558594 c -0.162106,0.01235 -0.32321,0.03906 -0.486328,0.03906 -1.668154,0 -3.269208,-0.663016 -4.44336,-1.841797 v -0.002 c -1.178827,-1.174198 -1.841796,-2.773346 -1.841796,-4.441407 0,-1.66806 0.663051,-3.267753 1.841796,-4.441406 l 0.002,-0.002 c 1.174144,-1.179237 2.773252,-1.839844 4.441406,-1.839844 z m 1.697265,1.902344 c 0.229462,0.08876 0.415833,0.247364 0.628907,0.371094 -0.203894,-0.135764 -0.409007,-0.265802 -0.628907,-0.371094 z m -2.080078,0.445312 c 0.937953,0.03264 1.837066,0.377072 2.554688,0.978516 0.718534,0.601834 1.217514,1.428724 1.408203,2.339844 v 0.002 h 0.002 c 0.0039,0.01829 -0.0013,0.02426 -0.01563,0.02734 -0.01548,0.0033 -0.02121,0.0019 -0.02539,-0.01758 -0.19541,-0.906611 -0.685696,-1.724169 -1.392578,-2.31836 h -0.002 v -0.002 c -0.710641,-0.592012 -1.60136,-0.936647 -2.533203,-0.966797 h -0.002 c -0.01777,-5.24e-4 -0.0182,-0.0016 -0.01758,-0.01953 5.85e-4,-0.01686 0.0079,-0.02337 0.02344,-0.02344 z m 3.275391,0.304688 c 0.13967,0.111258 0.31431,0.167109 0.441406,0.294922 h 0.002 v 0.002 c 0.680041,0.676229 1.04239,1.562533 1.214844,2.494141 -0.231854,-1.087031 -0.823828,-2.058334 -1.658203,-2.791016 z m -2.892578,1.521484 c 0.489047,0 0.95972,0.19409 1.302734,0.541016 l 0.002,0.002 0.002,0.002 c 0.346926,0.343014 0.541016,0.815641 0.541016,1.304688 0,0.489653 -0.19409,0.95972 -0.541016,1.302734 l -0.002,0.002 -0.002,0.002 C 25.489017,23.30591 25.018344,23.5 24.529297,23.5 c -0.489653,0 -0.961673,-0.19409 -1.304688,-0.541016 l -0.002,-0.002 -0.002,-0.002 c -0.346926,-0.343014 -0.541016,-0.813081 -0.541016,-1.302734 0,-0.489047 0.19409,-0.961674 0.541016,-1.304688 l 0.002,-0.002 0.002,-0.002 c 0.343015,-0.346926 0.815035,-0.541016 1.304688,-0.541016 z m 0,0.566407 c -0.342227,0 -0.667787,0.136535 -0.90625,0.375 -0.239759,0.238937 -0.376953,0.566158 -0.376953,0.908203 0,0.341336 0.136797,0.665927 0.375,0.904297 4.37e-4,4.38e-4 0.0015,-4.38e-4 0.002,0 4.39e-4,4.38e-4 -4.4e-4,0.0015 0,0.002 0.238371,0.238207 0.564913,0.376953 0.90625,0.376953 0.342046,0 0.667313,-0.139152 0.90625,-0.378906 0.237657,-0.238347 0.376953,-0.562701 0.376953,-0.904297 0,-0.342046 -0.138087,-0.669338 -0.376953,-0.908203 -0.238867,-0.238869 -0.564206,-0.375 -0.90625,-0.375 z m 0,1 c 0.07506,0 0.146008,0.02882 0.199219,0.08203 0.05321,0.05321 0.08398,0.126108 0.08398,0.201172 0,0.07588 -0.03037,0.145607 -0.08398,0.199218 -0.05314,0.05332 -0.124156,0.08398 -0.199219,0.08398 -0.07588,0 -0.145678,-0.03026 -0.199219,-0.08398 l -0.002,-0.002 c -0.05373,-0.05354 -0.08203,-0.121384 -0.08203,-0.197265 0,-0.07506 0.02871,-0.14608 0.08203,-0.199219 v -0.002 h 0.002 c 0.05361,-0.05361 0.123338,-0.08203 0.199219,-0.08203 z"
     id="path7"
     sodipodi:nodetypes="ssssssssssssssssssssssssssssssssssssssccscsccccscccscccsccscscccccsccccscccccccsccscscssscsccsccscccccccscccccccccccscscccccscccccscccscccscccccccssccscsscccsscssssccccc" />
  <linearGradient
     id="_lgradient_3"
     x1="0"
     y1="0.5"
     x2="1"
     y2="0.5"
     gradientTransform="matrix(11.481497,0,0,11.481497,24.789457,24)"
     gradientUnits="userSpaceOnUse">
    <stop
       offset="0%"
       stop-opacity="1"
       style="stop-color:rgb(178,254,250)"
       id="stop9" />
    <stop
       offset="98.26086956521739%"
       stop-opacity="1"
       style="stop-color:rgb(14,210,247)"
       id="stop11" />
  </linearGradient>
  <linearGradient
     id="_lgradient_4"
     x1="22.717175"
     y1="35.478412"
     x2="46.674116"
     y2="35.478412"
     gradientTransform="matrix(0.50012931,0,0,0.50012931,13.177926,11.996867)"
     gradientUnits="userSpaceOnUse">
    <stop
       offset="0%"
       stop-opacity="1"
       style="stop-color:rgb(178,254,250)"
       id="stop14" />
    <stop
       offset="98.26086956521739%"
       stop-opacity="1"
       style="stop-color:rgb(14,210,247)"
       id="stop16" />
  </linearGradient>
  <path
     style="color:#000000;vector-effect:non-scaling-stroke;fill:url(#_lgradient_4);fill-rule:evenodd;stroke-linecap:square;stroke-miterlimit:3;-inkscape-stroke:none"
     d="m 30.523437,23.5 c -1.575897,0 -3.096288,0.594827 -4.251953,1.664062 v 0.002 c -1.155724,1.072007 -1.861612,2.540148 -1.978515,4.109375 -0.04162,0.557463 0.385816,1.054969 0.943359,1.095703 h 0.002 c 0.556129,0.03965 1.050975,-0.384459 1.09375,-0.941407 v -0.002 c 0.07914,-1.056577 0.55331,-2.045584 1.330078,-2.765625 0.711237,-0.658914 1.636676,-1.008715 2.59961,-1.070312 -0.252385,0.05337 -0.514733,0.09705 -0.708985,0.291015 v 0.002 c -0.53518,0.535958 -0.535597,1.41948 0,1.955078 0.135194,0.135194 0.325816,0.134191 0.494141,0.201172 -0.38706,0.0988 -0.703125,0.401212 -0.703125,0.816406 v 4.248047 c 0,0.489986 0.4065,0.896484 0.896484,0.896484 h 0.128907 C 29.892438,34.086673 29.5,34.459912 29.5,34.958984 c 0,0.558909 0.46453,1.023438 1.023437,1.023438 1.655919,0 3.245168,-0.658261 4.417969,-1.826172 v -0.002 c 1.169638,-1.171268 1.830078,-2.759859 1.830078,-4.414063 0,-1.653746 -0.66044,-3.242794 -1.830078,-4.414062 C 33.76854,24.157654 32.179247,23.5 30.523437,23.5 Z m 0,1 c 1.390982,0 2.727195,0.553114 3.712891,1.535156 0.981704,0.984104 1.535156,2.317952 1.535156,3.705078 0,1.38859 -0.554187,2.722739 -1.537109,3.707032 -0.985647,0.980919 -2.320618,1.535156 -3.710938,1.535156 -0.01724,0 -0.02344,-0.0062 -0.02344,-0.02344 0,-0.01724 0.0056,-0.02148 0.02344,-0.02148 1.379016,0 2.701539,-0.54916 3.677735,-1.521484 h 0.002 c 0.974053,-0.97516 1.523438,-2.298107 1.523437,-3.675782 0,-1.377227 -0.549384,-2.698668 -1.523437,-3.673828 v -0.002 h -0.002 c -0.976275,-0.972956 -2.298853,-1.521484 -3.677735,-1.521484 -1.311212,0 -2.577945,0.494497 -3.541015,1.386718 -0.962684,0.89238 -1.548581,2.116792 -1.646485,3.423829 -0.0012,0.0162 -0.0083,0.02089 -0.02734,0.01953 -0.01761,-0.0013 -0.02093,-0.0048 -0.01953,-0.02344 0.09815,-1.317524 0.691281,-2.550667 1.66211,-3.451172 C 27.922059,25.000161 29.19958,24.5 30.523437,24.5 Z m 0.298829,1.103516 c 1.000376,0.07392 1.956234,0.457273 2.671875,1.169921 0.787405,0.788301 1.232422,1.855379 1.232421,2.966797 0,1.111973 -0.445016,2.18045 -1.232421,2.96875 -0.578617,0.57587 -1.326526,0.890521 -2.113282,1.058594 0.196661,-0.165596 0.335938,-0.389437 0.335938,-0.662109 v -4.248047 c 0,-0.414548 -0.316175,-0.717451 -0.703125,-0.816406 0.168736,-0.06701 0.358714,-0.0675 0.49414,-0.203125 0.534864,-0.535595 0.535363,-1.417763 0,-1.953125 -0.187879,-0.18788 -0.442128,-0.225189 -0.685546,-0.28125 z m -0.5625,0.988281 c 0.153221,-0.152999 0.388433,-0.152582 0.541015,0 0.15336,0.15336 0.152943,0.386341 0,0.539062 v 0.002 c -0.152721,0.152944 -0.387656,0.15336 -0.541015,0 -0.152582,-0.152581 -0.152999,-0.387794 0,-0.541015 z m 0.08398,2.36914 h 0.373047 v 4.041016 H 30.34375 Z m -4.191406,2.089844 c -0.248336,-0.08564 -0.52785,-0.07717 -0.779297,0.04492 -0.502963,0.244216 -0.717361,0.865204 -0.472656,1.367188 0.582491,1.199541 1.536182,2.18173 2.716796,2.802734 v 0.002 c 0.494993,0.259605 1.120918,0.06303 1.38086,-0.431641 0.259001,-0.494383 0.06391,-1.119524 -0.429688,-1.378906 h 0.002 c -0.797196,-0.420307 -1.43805,-1.079585 -1.830078,-1.888672 v -0.002 C 26.61735,31.315319 26.400679,31.13642 26.152344,31.050781 Z m -0.34375,0.94336 c 0.01624,-0.0079 0.02491,-0.0052 0.0332,0.01172 0.485265,1.000719 1.277931,1.817254 2.261719,2.335938 0.01592,0.0084 0.01738,0.01484 0.0098,0.0293 -0.0077,0.01459 -0.01507,0.01658 -0.0293,0.0098 -0.992473,-0.522041 -1.794351,-1.348096 -2.283203,-2.355468 h -0.002 v -0.002 c -0.0084,-0.01715 -0.0064,-0.02145 0.0098,-0.0293 z"
     id="path19" />
</svg>
