<?xml version="1.0" encoding="UTF-8" standalone="no"?>
<!-- Generator: Gravit.io -->

<svg
   style="isolation:isolate"
   viewBox="0 0 48 48"
   width="48pt"
   height="48pt"
   version="1.1"
   id="svg9"
   sodipodi:docname="distributor-logo-antix.svg"
   inkscape:version="1.1.2 (0a00cf5339, 2022-02-04)"
   xmlns:inkscape="http://www.inkscape.org/namespaces/inkscape"
   xmlns:sodipodi="http://sodipodi.sourceforge.net/DTD/sodipodi-0.dtd"
   xmlns:xlink="http://www.w3.org/1999/xlink"
   xmlns="http://www.w3.org/2000/svg"
   xmlns:svg="http://www.w3.org/2000/svg">
  <defs
     id="defs13">
    <linearGradient
       id="_lgradient_1"
       x1="0.18336116"
       y1="0.24917752"
       x2="0.9027437"
       y2="0.90347725"
       gradientTransform="matrix(24.617266,0,0,24.816118,10.841288,10.089605)"
       gradientUnits="userSpaceOnUse">
      <stop
         offset="2.608695652173913%"
         stop-opacity="1"
         style="stop-color:rgb(179,255,171)"
         id="stop2-3" />
      <stop
         offset="98.69565217391305%"
         stop-opacity="1"
         style="stop-color:rgb(18,255,247)"
         id="stop4-6" />
    </linearGradient>
    <linearGradient
       inkscape:collect="always"
       xlink:href="#_lgradient_15"
       id="linearGradient860"
       gradientUnits="userSpaceOnUse"
       x1="-0.0025362533"
       y1="24.000002"
       x2="48.002537"
       y2="24.000002" />
    <linearGradient
       inkscape:collect="always"
       xlink:href="#_lgradient_15"
       id="linearGradient862"
       gradientUnits="userSpaceOnUse"
       x1="-0.0025362533"
       y1="24.000002"
       x2="48.002537"
       y2="24.000002" />
    <linearGradient
       inkscape:collect="always"
       xlink:href="#_lgradient_15"
       id="linearGradient4230"
       x1="11.792886"
       y1="22.304518"
       x2="36.207191"
       y2="22.304518"
       gradientUnits="userSpaceOnUse" />
  </defs>
  <sodipodi:namedview
     id="namedview11"
     pagecolor="#ffffff"
     bordercolor="#666666"
     borderopacity="1.0"
     inkscape:pageshadow="2"
     inkscape:pageopacity="0.0"
     inkscape:pagecheckerboard="0"
     inkscape:document-units="pt"
     showgrid="false"
     inkscape:zoom="7.2257474"
     inkscape:cx="30.100692"
     inkscape:cy="31.969011"
     inkscape:window-width="1600"
     inkscape:window-height="836"
     inkscape:window-x="0"
     inkscape:window-y="0"
     inkscape:window-maximized="1"
     inkscape:current-layer="svg9" />
  <linearGradient
     id="_lgradient_15"
     x1="0"
     y1="0.5"
     x2="1"
     y2="0.5"
     gradientTransform="matrix(44,0,0,44,2,2)"
     gradientUnits="userSpaceOnUse">
    <stop
       offset="0%"
       stop-opacity="1"
       style="stop-color:rgb(117,127,154)"
       id="stop2" />
    <stop
       offset="98.69565217391305%"
       stop-opacity="1"
       style="stop-color:rgb(215,221,232)"
       id="stop4" />
  </linearGradient>
  <rect
     x="-46.783188"
     y="1.2253767"
     height="45.80014"
     rx="6.1837621"
     shape-rendering="crispEdges"
     id="rect5-6-7-3"
     ry="6.8055277"
     transform="matrix(0.00524063,-0.99998627,0.99998801,0.00489691,0,0)"
     style="isolation:isolate;fill:#757f9a;fill-opacity:0.12537232;stroke:url(#linearGradient860);stroke-width:2.0301;stroke-miterlimit:4;stroke-dasharray:none;stroke-opacity:1"
     width="45.801998" />
  <rect
     x="-15.686804"
     y="17.260084"
     height="33.345856"
     rx="6.7920032"
     shape-rendering="crispEdges"
     id="rect5-6-6-6-6"
     style="isolation:isolate;fill:#757f9a;fill-opacity:0.12537232;stroke:url(#linearGradient862);stroke-width:1.67233;stroke-miterlimit:4;stroke-dasharray:none;stroke-opacity:1"
     ry="7.4743071"
     transform="matrix(0.72446484,-0.68931175,0.68622417,0.72739012,0,0)"
     width="33.338203" />
  <path
     style="color:#000000;fill:url(#linearGradient4230);fill-rule:evenodd;-inkscape-stroke:none"
     d="m 24,9.5976563 c -1.854897,0 -3.667987,0.4069397 -5.322266,1.1699217 -0.0019,8.64e-4 -0.004,0.0011 -0.0059,0.002 -1.099703,0.08203 -2.283485,0.470712 -4.9375,2.240235 l 0.398438,0.902343 c 0.185647,-0.04645 0.349564,-0.03815 0.529296,-0.07031 -2.103662,2.332005 -3.36914,5.309097 -3.36914,8.46289 0,3.121166 1.221101,6.082444 3.285156,8.404297 -1.164711,1.336494 -2.054687,2.367188 -2.054687,2.367188 l -0.708985,0.826172 h 6.886719 l 0.05273,-0.07031 c 1.637747,0.744397 3.414306,1.179688 5.246094,1.179688 2.188454,0 4.281241,-0.65126 6.158203,-1.707032 8.4e-5,0.03287 0,0.06464 0,0.09766 v 0.5 h 4.330078 v -0.5 c 0,-1.110928 -0.179176,-2.240111 -0.458984,-3.373047 1.705768,-2.206672 2.677734,-4.909177 2.677734,-7.72461 0,-2.350206 -0.696162,-4.614016 -1.90625,-6.58789 0.25943,-0.425839 0.597656,-0.78125 0.597656,-0.78125 l 1.197266,-0.898438 h -2.955078 c -0.210039,-0.245583 -0.422613,-0.488558 -0.652344,-0.71875 v -0.002 h -0.002 C 30.601174,10.937028 27.367529,9.5976563 24,9.5976563 Z m 0,0.9999997 c 3.102235,0 6.083193,1.235 8.28125,3.427735 0.264266,0.264922 0.514424,0.541613 0.75,0.828125 l 0.150391,0.183593 h 0.916015 c -0.143856,0.189141 -0.201278,0.150172 -0.322265,0.416016 l -0.113282,0.25 0.150391,0.230469 c 1.229297,1.880382 1.894531,4.092032 1.894531,6.371093 0,2.67283 -0.917117,5.254821 -2.580078,7.31836 l -0.158203,0.195312 0.06445,0.244141 c 0.252475,0.965535 0.346999,1.908573 0.386719,2.839844 h -2.265625 c -0.0014,-0.126314 -0.0017,-0.256007 -0.0039,-0.38086 l -0.01563,-0.90625 -0.757813,0.498047 C 28.496207,33.345127 26.280639,34.011719 24,34.011719 c -1.82141,0 -3.600882,-0.425524 -5.205078,-1.220703 l -0.373047,-0.185547 -0.220703,0.296875 h -4.205078 c 0.352869,-0.409339 0.600718,-0.697969 1.574219,-1.8125 l 0.300781,-0.345703 -0.316406,-0.330079 c -2.089944,-2.179885 -3.261719,-5.08643 -3.261719,-8.109375 0,-3.102234 1.234998,-6.083192 3.427734,-8.281249 0.161893,-0.161893 0.327434,-0.317803 0.498047,-0.46875 l -0.328125,0.125 -0.002,-0.769532 c 1.375299,-0.784689 2.299173,-1.154627 3.015625,-1.1875 l 0.09766,-0.0039 0.08789,-0.04102 C 20.615669,10.973098 22.289192,10.597656 24,10.597656 Z m 0,1.21875 c -0.528099,0 -1.052061,0.04101 -1.566406,0.115235 l -1.205078,0.173828 0.980468,0.722656 c 1.415333,1.04421 2.977058,2.798514 4.519532,4.914062 l 0.351562,0.482422 0.414063,-0.433593 c 1.58677,-1.661916 2.73829,-2.543882 3.09375,-2.707032 l 0.720703,-0.330078 -0.607422,-0.507812 C 28.828099,12.681899 26.456655,11.816406 24,11.816406 Z m 0,1 c 2.01956,0 3.931901,0.720737 5.542969,1.900391 -0.586019,0.376708 -1.319112,0.981694 -2.34375,2.017578 -1.171507,-1.566248 -2.347157,-2.864353 -3.513672,-3.894531 0.105349,-0.0035 0.208889,-0.02344 0.314453,-0.02344 z m -5.236328,0.396485 -0.216797,0.132812 c -0.706835,0.430856 -1.366949,0.94682 -1.962891,1.541016 h -0.002 v 0.002 c -1.963016,1.968839 -3.070312,4.636519 -3.070312,7.416015 0,2.640203 0.999967,5.17959 2.78125,7.115235 l 0.376953,0.410156 0.367187,-0.421875 c 2.375159,-2.732124 5.864879,-6.682855 8.78125,-9.830078 l 0.316407,-0.339844 -0.316407,-0.339844 C 23.461149,16.358446 21.369775,14.309404 19,13.3125 Z m 0.07422,1.167968 c 1.925069,0.879907 3.811878,2.624983 5.925781,4.878907 -2.710772,2.937583 -5.767561,6.391029 -8.039063,8.998046 -1.374212,-1.688384 -2.21289,-3.759199 -2.21289,-5.953125 0,-2.513029 1.001761,-4.927104 2.777343,-6.708984 l 0.002,-0.002 c 0.469387,-0.467739 0.999511,-0.856228 1.546875,-1.212891 z m 13.296875,1.298829 -0.326172,0.08789 c -0.710296,0.194801 -1.19336,0.603516 -1.19336,0.603516 l -0.04492,0.03906 -2.488281,3.31836 0.185547,0.291015 c 1.523091,2.409353 2.957523,4.932209 3.933594,7.423828 l 0.380859,0.96875 0.517578,-0.902343 c 0.902144,-1.571174 1.388672,-3.364352 1.388672,-5.205079 0,-2.308685 -0.763627,-4.540331 -2.148437,-6.357421 z m -0.404297,1.224609 c 1.10298,1.581739 1.757812,3.447823 1.757812,5.40039 0,1.32706 -0.350677,2.597033 -0.876953,3.789063 -0.932294,-2.13951 -2.061199,-4.266773 -3.332031,-6.294922 l 2.003906,-2.671875 c 0.01223,-0.0098 0.269232,-0.12508 0.447266,-0.222656 z m -4.402344,3.832031 -8.169922,10.890625 0.572266,0.255859 c 1.331728,0.593627 2.784822,0.910157 4.269531,0.910157 2.492258,0 4.894971,-0.890688 6.78125,-2.496094 l 0.205078,-0.173828 -0.03125,-0.265625 c -0.423925,-3.604504 -1.571294,-6.137423 -3.232422,-8.548828 z m -0.08203,1.775391 c 1.321272,2.048584 2.247714,4.195336 2.642578,7.166015 C 28.218173,31.013961 26.15736,31.792969 24,31.792969 c -1.11344,0 -2.174889,-0.310291 -3.203125,-0.683594 z"
     id="path7" />
</svg>
