<?xml version="1.0" encoding="UTF-8" standalone="no"?>
<!-- Generator: Gravit.io -->

<svg
   style="isolation:isolate"
   viewBox="0 0 48 48"
   width="48pt"
   height="48pt"
   version="1.1"
   id="svg9"
   sodipodi:docname="distributor-logo-archbang.svg"
   inkscape:version="1.1.2 (0a00cf5339, 2022-02-04)"
   xmlns:inkscape="http://www.inkscape.org/namespaces/inkscape"
   xmlns:sodipodi="http://sodipodi.sourceforge.net/DTD/sodipodi-0.dtd"
   xmlns:xlink="http://www.w3.org/1999/xlink"
   xmlns="http://www.w3.org/2000/svg"
   xmlns:svg="http://www.w3.org/2000/svg">
  <defs
     id="defs13">
    <linearGradient
       inkscape:collect="always"
       xlink:href="#_lgradient_16"
       id="linearGradient872"
       x1="-12.025727"
       y1="6.1170783"
       x2="-0.085100174"
       y2="6.1170783"
       gradientUnits="userSpaceOnUse"
       gradientTransform="matrix(3.8358211,0,0,3.8371386,-0.00544341,-0.00268054)" />
    <linearGradient
       id="_lgradient_1"
       x1="0.18336116"
       y1="0.24917752"
       x2="0.9027437"
       y2="0.90347725"
       gradientTransform="matrix(24.617266,0,0,24.816118,10.841288,10.089605)"
       gradientUnits="userSpaceOnUse">
      <stop
         offset="2.608695652173913%"
         stop-opacity="1"
         style="stop-color:rgb(179,255,171)"
         id="stop2-3" />
      <stop
         offset="98.69565217391305%"
         stop-opacity="1"
         style="stop-color:rgb(18,255,247)"
         id="stop4-6" />
    </linearGradient>
    <linearGradient
       inkscape:collect="always"
       xlink:href="#_lgradient_16"
       id="linearGradient15"
       x1="-9.6850061"
       y1="45.161198"
       x2="11.98815"
       y2="21.735205"
       gradientUnits="userSpaceOnUse"
       gradientTransform="matrix(1.1147442,0,0,1.1150348,-0.01237238,-3.3277956)" />
    <linearGradient
       inkscape:collect="always"
       xlink:href="#_lgradient_16"
       id="linearGradient950"
       x1="12.342295"
       y1="20.554316"
       x2="35.657703"
       y2="20.554316"
       gradientUnits="userSpaceOnUse" />
  </defs>
  <sodipodi:namedview
     id="namedview11"
     pagecolor="#ffffff"
     bordercolor="#666666"
     borderopacity="1.0"
     inkscape:pageshadow="2"
     inkscape:pageopacity="0.0"
     inkscape:pagecheckerboard="0"
     inkscape:document-units="pt"
     showgrid="false"
     inkscape:zoom="5.109375"
     inkscape:cx="32"
     inkscape:cy="32.097859"
     inkscape:window-width="1600"
     inkscape:window-height="836"
     inkscape:window-x="0"
     inkscape:window-y="0"
     inkscape:window-maximized="1"
     inkscape:current-layer="svg9" />
  <linearGradient
     id="_lgradient_16"
     x1="0"
     y1="0.5"
     x2="1"
     y2="0.5"
     gradientTransform="matrix(23.315611,0,0,27.251286,12.342196,6.9286174)"
     gradientUnits="userSpaceOnUse">
    <stop
       offset="0%"
       stop-opacity="1"
       style="stop-color:rgb(178,254,250)"
       id="stop2" />
    <stop
       offset="98.26086956521739%"
       stop-opacity="1"
       style="stop-color:rgb(14,210,247)"
       id="stop4" />
  </linearGradient>
  <rect
     x="-46.783188"
     y="1.2253767"
     height="45.80014"
     rx="6.1837621"
     shape-rendering="crispEdges"
     id="rect5-6-7-3"
     ry="6.8055277"
     transform="matrix(0.00524063,-0.99998627,0.99998801,0.00489691,0,0)"
     style="isolation:isolate;fill:#00e7ff;fill-opacity:0.13470298;stroke:url(#linearGradient872);stroke-width:2.0301;stroke-miterlimit:4;stroke-dasharray:none;stroke-opacity:1"
     width="45.801998" />
  <rect
     x="-15.686804"
     y="17.260084"
     height="33.345856"
     rx="6.7920032"
     shape-rendering="crispEdges"
     id="rect5-6-6-6-6"
     style="isolation:isolate;fill:#00e7ff;fill-opacity:0.13470298;stroke:url(#linearGradient15);stroke-width:1.67233;stroke-miterlimit:4;stroke-dasharray:none;stroke-opacity:1"
     ry="7.4743071"
     transform="matrix(0.72446484,-0.68931175,0.68622417,0.72739012,0,0)"
     width="33.338203" />
  <path
     style="color:#000000;fill:url(#linearGradient950);fill-rule:evenodd;-inkscape-stroke:none"
     d="m 24,5.7011719 -0.457031,1.0234375 c -1.179882,2.646715 -2.346265,5.3000276 -3.5,7.9667966 v 0.002 C 19.57831,15.775434 19.099042,16.852403 18.613281,17.9375 18.183316,18.896387 17.726345,19.855037 17.25,20.800781 h 0.002 c -0.623346,1.22754 -1.267737,2.441658 -1.93164,3.650391 -1.004259,1.842113 -2.029955,3.672867 -3.06836,5.503906 -0.340709,0.601078 -0.475667,1.298485 -0.380859,1.986328 0.09463,0.687293 0.410844,1.327553 0.902344,1.81836 h 0.002 v 0.002 c 0.490448,0.48284 1.12906,0.797945 1.816406,0.892578 h 0.002 0.002 c 0.684994,0.08683 1.383633,-0.04832 1.986328,-0.396485 0.914255,-0.529125 1.861519,-1.000495 2.837891,-1.419921 h 0.0039 l 0.0039,-0.002 c 0.823744,-0.369576 1.67655,-0.682907 2.548828,-0.943359 0.39015,-0.115309 0.777467,-0.20961 1.16211,-0.279297 0.290976,-0.04985 0.583693,-0.08008 0.861328,-0.08008 0.277632,0 0.570345,0.03022 0.861328,0.08008 0.384649,0.06969 0.771962,0.163988 1.162109,0.279297 0.872279,0.260452 1.725086,0.573783 2.548829,0.943359 l 0.0039,0.002 h 0.0039 c 0.976372,0.419426 1.923636,0.890796 2.837891,1.419921 0.602696,0.348162 1.301339,0.483309 1.986328,0.396485 h 0.002 0.002 c 0.687341,-0.09464 1.325957,-0.409737 1.816406,-0.892578 v -0.002 h 0.002 c 0.491501,-0.490808 0.807708,-1.131071 0.902344,-1.81836 0.0948,-0.687841 -0.04016,-1.385252 -0.380859,-1.986328 -1.038405,-1.831039 -2.064101,-3.661793 -3.06836,-5.503906 -0.663903,-1.208733 -1.308294,-2.422851 -1.93164,-3.650391 H 30.75 C 30.273656,19.855037 29.816684,18.896387 29.386719,17.9375 28.900959,16.852402 28.421691,15.775434 27.957031,14.693359 v -0.002 c -1.153735,-2.666772 -2.320118,-5.3200816 -3.5,-7.9667966 z m 0,2.4707031 c 1.021492,2.29978 2.037399,4.600746 3.039062,6.916016 0.467965,1.089771 0.949048,2.171062 1.435547,3.257812 0.436209,0.972811 0.897769,1.947111 1.38086,2.90625 h 0.002 c 0.6287,1.238084 1.276729,2.462435 1.945312,3.679688 1.007614,1.848238 2.034319,3.681949 3.074219,5.515625 0.232862,0.410821 0.324674,0.886478 0.259766,1.357421 -0.06496,0.471771 -0.281269,0.909811 -0.615235,1.244141 -4.23e-4,4.17e-4 -0.0015,-4.17e-4 -0.002,0 -4.21e-4,4.22e-4 4.22e-4,0.0015 0,0.002 -0.335425,0.329412 -0.773092,0.546076 -1.24414,0.611328 -0.47249,0.05947 -0.946059,-0.03353 -1.355469,-0.269531 h -0.002 c -0.947999,-0.54857 -1.928786,-1.03592 -2.935547,-1.46875 l -0.0078,-0.0039 C 28.10984,31.532385 27.217731,31.204969 26.308594,30.933594 h -0.002 c -0.42116,-0.124475 -0.844784,-0.227551 -1.271485,-0.304688 l -0.002,-0.002 h -0.002 C 24.69621,30.56955 24.348394,30.533203 24,30.533203 c -0.348388,0 -0.696205,0.03635 -1.03125,0.09375 h -0.002 l -0.002,0.002 c -0.426707,0.07713 -0.850327,0.180214 -1.271485,0.304688 h -0.002 c -0.911914,0.272204 -1.806578,0.601139 -2.673828,0.990234 -1.007297,0.43306 -1.989031,0.919823 -2.9375,1.46875 -0.408844,0.235679 -0.881682,0.3285 -1.353515,0.269531 -5.96e-4,-8.2e-5 -0.0014,8.3e-5 -0.002,0 -0.471041,-0.06525 -0.908714,-0.281915 -1.24414,-0.611328 l -0.002,-0.002 c -0.333967,-0.334331 -0.550277,-0.772374 -0.615235,-1.244141 -0.06491,-0.470941 0.0269,-0.946602 0.259766,-1.357421 1.0399,-1.833676 2.066605,-3.667387 3.074219,-5.515625 v -0.002 c 0.668289,-1.216752 1.316873,-2.440164 1.945312,-3.677734 h 0.002 c 0.483092,-0.95914 0.944651,-1.933439 1.38086,-2.90625 0.4865,-1.08675 0.967582,-2.168041 1.435546,-3.257812 C 21.962601,12.772623 22.978508,10.471655 24,8.171875 Z m 0,4.105469 -0.457031,1.046875 c -0.190414,0.434564 -0.369249,0.844315 -0.523438,1.201172 l -0.05469,0.126953 -0.002,0.0059 c -2.595518,5.970147 -2.94062,6.9645 -8.392578,16.609375 l -0.910157,1.609375 1.597657,-0.931641 c 0,0 1.324793,-0.774046 3.095703,-1.548828 1.77091,-0.774782 3.993533,-1.53125 5.646484,-1.53125 1.652951,0 3.875574,0.756468 5.646484,1.53125 1.77091,0.774782 3.095703,1.548828 3.095703,1.548828 l 1.597657,0.931641 -0.910157,-1.609375 C 29.332371,24.019063 28.121573,21.65767 26.675781,18.410156 l -0.621094,-1.396484 -1.333984,6.15039 -0.703125,0.46875 C 24.161787,22.711528 24.5,20.776839 24.5,18.804687 c 0,-1.432123 -0.141121,-2.22128 -0.291016,-2.767578 -0.105929,-0.386063 -0.153244,-0.599104 -0.203125,-0.851562 0.188407,-0.01272 0.39389,-0.01335 0.560547,-0.03906 l 0.638672,-0.09766 -0.255859,-0.59375 c -0.144597,-0.33544 -0.311739,-0.722534 -0.490235,-1.130859 z m -0.742188,4.154297 C 23.379562,16.897532 23.5,17.507122 23.5,18.804687 c 0,2.248226 -0.576172,5.748047 -0.576172,5.748047 l -0.189453,1.138672 2.876953,-1.917969 0.804688,-3.710937 c 1.149844,2.517405 2.60737,5.304832 5.414062,10.310547 -0.57703,-0.307565 -0.764896,-0.447064 -1.783203,-0.892578 -1.419368,-0.620981 -3.082484,-1.13781 -4.677734,-1.388672 0.133711,-0.26851 0.296344,-0.530276 0.296875,-0.833985 0,-1.075064 -0.881967,-1.957032 -1.957032,-1.957031 -1.075064,0 -1.957031,0.881967 -1.957031,1.957031 5.45e-4,0.340744 0.193321,0.628093 0.359375,0.919922 -1.435929,0.2933 -2.893504,0.749422 -4.158203,1.302735 -0.998236,0.436733 -1.170851,0.568199 -1.748047,0.875 3.950248,-7.038352 5.205263,-9.669416 7.052734,-13.923828 z m 0.451172,9.86914 c 0.534875,0 0.957032,0.422156 0.957032,0.957031 -5.4e-4,0.1459 -0.07955,0.271459 -0.142579,0.400391 -0.175143,-0.01045 -0.350979,-0.02734 -0.523437,-0.02734 -0.349765,0 -0.70984,0.04478 -1.068359,0.08594 -0.08511,-0.145336 -0.179415,-0.290559 -0.179688,-0.460938 0.001,-0.53394 0.422813,-0.955078 0.957031,-0.955078 z"
     id="path7" />
</svg>
