<?xml version="1.0" encoding="UTF-8" standalone="no"?>
<!-- Generator: Gravit.io -->

<svg
   style="isolation:isolate"
   viewBox="0 0 48 48"
   width="48pt"
   height="48pt"
   version="1.1"
   id="svg9"
   sodipodi:docname="distributor-logo-kali-linux.svg"
   inkscape:version="1.1.2 (0a00cf5339, 2022-02-04)"
   xmlns:inkscape="http://www.inkscape.org/namespaces/inkscape"
   xmlns:sodipodi="http://sodipodi.sourceforge.net/DTD/sodipodi-0.dtd"
   xmlns:xlink="http://www.w3.org/1999/xlink"
   xmlns="http://www.w3.org/2000/svg"
   xmlns:svg="http://www.w3.org/2000/svg">
  <defs
     id="defs13">
    <linearGradient
       inkscape:collect="always"
       xlink:href="#_lgradient_28"
       id="linearGradient872"
       x1="-12.025727"
       y1="6.1170783"
       x2="-0.085100174"
       y2="6.1170783"
       gradientUnits="userSpaceOnUse"
       gradientTransform="matrix(3.8358211,0,0,3.8371386,-0.00544341,-0.00268054)" />
    <linearGradient
       id="_lgradient_1"
       x1="0.18336116"
       y1="0.24917752"
       x2="0.9027437"
       y2="0.90347725"
       gradientTransform="matrix(24.617266,0,0,24.816118,10.841288,10.089605)"
       gradientUnits="userSpaceOnUse">
      <stop
         offset="2.608695652173913%"
         stop-opacity="1"
         style="stop-color:rgb(179,255,171)"
         id="stop2-3" />
      <stop
         offset="98.69565217391305%"
         stop-opacity="1"
         style="stop-color:rgb(18,255,247)"
         id="stop4-6" />
    </linearGradient>
    <linearGradient
       inkscape:collect="always"
       xlink:href="#_lgradient_28"
       id="linearGradient15"
       x1="-9.6850061"
       y1="45.161198"
       x2="11.98815"
       y2="21.735205"
       gradientUnits="userSpaceOnUse"
       gradientTransform="matrix(1.1147442,0,0,1.1150348,-0.01237238,-3.3277956)" />
    <linearGradient
       inkscape:collect="always"
       xlink:href="#_lgradient_28"
       id="linearGradient1771"
       x1="2"
       y1="25.052504"
       x2="45.93"
       y2="25.052504"
       gradientUnits="userSpaceOnUse" />
  </defs>
  <sodipodi:namedview
     id="namedview11"
     pagecolor="#ffffff"
     bordercolor="#666666"
     borderopacity="1.0"
     inkscape:pageshadow="2"
     inkscape:pageopacity="0.0"
     inkscape:pagecheckerboard="0"
     inkscape:document-units="pt"
     showgrid="false"
     inkscape:zoom="5.109375"
     inkscape:cx="27.107034"
     inkscape:cy="26.715596"
     inkscape:window-width="1056"
     inkscape:window-height="545"
     inkscape:window-x="337"
     inkscape:window-y="60"
     inkscape:window-maximized="0"
     inkscape:current-layer="svg9" />
  <linearGradient
     id="_lgradient_28"
     x1="0"
     y1="0.5"
     x2="1"
     y2="0.5"
     gradientTransform="matrix(43.93,0,0,43,2,2.5)"
     gradientUnits="userSpaceOnUse">
    <stop
       offset="0%"
       stop-opacity="1"
       style="stop-color:rgb(88,0,226)"
       id="stop2" />
    <stop
       offset="100%"
       stop-opacity="1"
       style="stop-color:rgb(255,0,230)"
       id="stop4" />
  </linearGradient>
  <rect
     x="-46.783188"
     y="1.2253767"
     height="45.80014"
     rx="6.1837621"
     shape-rendering="crispEdges"
     id="rect5-6-7-3"
     ry="6.8055277"
     transform="matrix(0.00524063,-0.99998627,0.99998801,0.00489691,0,0)"
     style="isolation:isolate;fill:#b600ff;fill-opacity:0.13470298;stroke:url(#linearGradient872);stroke-width:2.0301;stroke-miterlimit:4;stroke-dasharray:none;stroke-opacity:1"
     width="45.801998" />
  <rect
     x="-15.686804"
     y="17.260084"
     height="33.345856"
     rx="6.7920032"
     shape-rendering="crispEdges"
     id="rect5-6-6-6-6"
     style="isolation:isolate;fill:#b600ff;fill-opacity:0.13470298;stroke:url(#linearGradient15);stroke-width:1.67233;stroke-miterlimit:4;stroke-dasharray:none;stroke-opacity:1"
     ry="7.4743071"
     transform="matrix(0.72446484,-0.68931175,0.68622417,0.72739012,0,0)"
     width="33.338203" />
  <path
     style="color:#000000;fill:url(#linearGradient1771);fill-rule:evenodd;-inkscape-stroke:none"
     d="m 3.2402344,9.1074219 c -0.42562,0.00307 -0.8603698,0.016568 -1.3027344,0.072266 l 0.052734,0.9960935 c 4.555756,0.08261 9.1132696,0.457258 13.5527346,1.41211 l 0.01953,0.0039 0.02148,0.002 c 0.810163,0.105714 1.628187,0.357072 2.488282,0.576172 h 0.0039 l 0.0039,0.002 c 0.339562,0.0797 0.718452,0.259852 1.1875,0.380859 h 0.002 c 0.649035,0.164652 1.30282,0.387484 1.984375,0.589844 0.0026,7.87e-4 0.0052,0.0012 0.0078,0.002 0.455461,0.188262 0.880344,0.277042 1.197265,0.421875 l 0.0059,0.002 0.0059,0.002 c 0.234299,0.09964 0.464821,0.221546 0.697266,0.330078 -5.136085,0.0014 -10.289413,0.245959 -15.3808596,1.068359 h -0.00195 c -1.4055628,0.236056 -2.8415027,0.460802 -4.2597656,0.847656 -0.00385,5.42e-4 -0.00787,-5.41e-4 -0.011719,0 v 0.002 c -0.020762,0.0057 -0.041746,0.006 -0.0625,0.01172 l 0.203125,0.976563 c 4.678899,-0.657877 9.3884501,-1.102563 14.1054691,-1.207032 l -0.0078,0.002 c 1.49051,-0.0097 2.973795,0.102651 4.458984,0.185546 -2.275638,0.38472 -4.523147,0.903236 -6.703124,1.625 l -0.0039,0.002 h -0.002 c -2.070102,0.710211 -4.106586,1.543022 -6.0703124,2.525391 -0.6606454,0.33272 -1.3472857,0.668314 -2.0117187,1.080078 -0.023135,0.01434 -0.047233,0.02257 -0.070312,0.03711 l 0.4648437,0.882812 c 0.7559416,-0.323682 1.4699047,-0.681292 2.1894529,-0.966797 h 0.0039 l 0.002,-0.002 c 4.813031,-1.978745 9.900147,-3.358411 15.083984,-3.625 0.245131,0.681382 0.489042,1.362599 0.837891,2.007813 -0.559547,0.335697 -1.098975,0.705698 -1.527344,1.160156 l -0.0039,0.0039 -0.002,0.002 c -0.771008,0.848534 -1.377975,1.881224 -1.644531,3.033203 -0.317528,1.174918 -0.249233,2.318009 0.01758,3.451172 l 0.002,0.01172 0.0039,0.01172 c 0.302247,1.05732 0.855058,1.844436 1.548828,2.621093 3.54e-4,4.03e-4 0.0016,-4.02e-4 0.002,0 3.83e-4,4.29e-4 -3.83e-4,0.0015 0,0.002 1.454691,1.655161 3.696157,2.608318 5.919922,2.351562 l -0.01758,0.002 c 2.383303,-0.191515 4.851166,0.19483 6.908203,1.371094 1.099503,0.636162 2.119051,1.408659 2.875,2.380859 l 0.0098,0.01172 0.0098,0.01172 c 1.048053,1.190581 1.856435,2.715926 2.476563,4.224609 0.08665,0.219043 0.177875,0.479975 0.33789,0.75 l 0.929688,1.570313 V 40.5 c 0,-0.41126 -0.140233,-0.73793 -0.234375,-0.996094 v -0.002 -0.0039 c -0.29517,-0.786451 -0.633805,-1.678223 -1.078125,-2.457031 -0.498385,-0.89019 -1.055926,-1.779056 -1.773438,-2.566407 -0.431875,-0.518953 -0.925723,-0.986857 -1.435547,-1.433593 0.130797,0.04358 0.264009,0.05597 0.394532,0.101562 1.030495,0.369004 2.012071,0.855332 2.888671,1.484375 0.867118,0.704656 1.624877,1.541984 2.179688,2.494141 0.05906,0.124907 0.121795,0.238032 0.173828,0.365234 0.186721,0.388622 0.354154,0.827341 0.59375,1.285156 l 0.933594,-0.330078 c -0.0093,-0.04668 -0.05029,-0.08232 -0.06055,-0.128906 l 0.01367,-0.0059 c -0.232393,-0.444052 -0.42651,-1.101745 -0.783203,-1.679688 -9.38e-4,-0.0016 -0.003,-0.0023 -0.0039,-0.0039 -0.01533,-0.02635 -0.04301,-0.04219 -0.05859,-0.06836 -0.276681,-0.554667 -0.411609,-1.183473 -0.78125,-1.652343 l -0.002,-0.002 c -0.488048,-0.63309 -1.079949,-1.113616 -1.626954,-1.572266 l -0.0059,-0.0039 -0.0059,-0.0059 c -1.329887,-1.048644 -2.861887,-1.780311 -4.431641,-2.30664 h -0.002 l -0.002,-0.002 C 35.797565,30.06697 32.773181,29.709924 29.785156,29.710937 h -0.002 -0.002 c -0.666571,0.0037 -1.323594,-0.0834 -1.921875,-0.30664 l -0.0039,-0.002 h -0.002 c -1.417114,-0.508989 -2.492998,-1.549464 -2.830079,-2.96875 l -0.002,-0.0098 -0.0039,-0.0098 c -0.438246,-1.553538 0.04971,-3.243231 1.203125,-4.386718 l 0.0039,-0.002 0.002,-0.002 c 0.934497,-0.954302 2.311085,-1.501827 3.63086,-1.373046 l 0.0059,0.002 h 0.0078 c 1.442257,0.103286 2.857164,0.617636 4.291015,1.142578 6.1e-4,2.23e-4 0.0013,-2.23e-4 0.002,0 1.096903,0.428252 2.178557,0.858856 3.21875,1.353515 0.0265,0.253775 0.03718,0.50751 0.148438,0.794922 l 0.0098,0.02344 0.01172,0.02148 c 0.262747,0.517335 0.747808,0.700085 1.048828,0.839844 l 0.0039,0.002 h 0.0039 c 0.591308,0.264825 1.095477,0.483493 1.525391,0.833984 h 0.002 v 0.002 c 0.319709,0.258193 0.621228,0.611611 1.005859,0.958984 l 0.441406,0.400391 0.316407,-0.50586 c 0.09064,-0.144873 0.112182,-0.190562 0.140625,-0.246094 0.09496,-0.09977 0.30369,-0.169815 0.632812,-0.300781 l 0.320313,-0.126953 -0.0059,-0.345703 -0.0078,-0.509766 -0.365235,-0.09766 c -0.643518,-0.171763 -1.13628,-0.479202 -1.560547,-0.867187 -0.0029,-0.08997 -0.0059,-0.184701 -0.03125,-0.242188 -0.06552,-0.169262 -0.136121,-0.299561 -0.207031,-0.419922 l -0.0078,-0.01367 -0.0098,-0.01367 C 40.477106,22.85991 40.156823,22.400607 39.884766,21.931641 L 39.744141,21.6875 h -0.06836 l -0.04883,-0.0918 c -0.236054,-0.434519 -0.57766,-0.639761 -0.744141,-0.814453 l -0.0059,-0.0059 -0.0059,-0.0059 C 37.70776,19.627875 36.373083,18.667239 34.931641,17.914062 v -0.002 c -1.036354,-0.537954 -2.151795,-0.963416 -3.298829,-1.296875 -0.139349,-0.05435 -0.300688,-0.116841 -0.43164,-0.175781 l -0.002,0.0039 c -0.03022,-0.0076 -0.05563,-0.02585 -0.08594,-0.0332 l -0.322265,0.941406 c 0.590933,0.265974 1.167811,0.438955 1.669921,0.675782 l 0.0059,0.0039 0.0078,0.002 c 0.46577,0.2036 0.847937,0.542433 1.298828,0.775391 l -0.03125,0.582031 c -0.134234,-0.05523 -0.2605,-0.107907 -0.40039,-0.162109 h -0.002 l -0.002,-0.002 c -0.866589,-0.325829 -1.768268,-0.723469 -2.777344,-0.90625 l -0.03125,-0.0059 -0.0332,-0.002 c -1.090642,-0.05517 -2.103304,0.05848 -2.914063,-0.291016 l -0.0078,-0.0039 -0.0078,-0.0039 c -0.544948,-0.211969 -1.007425,-0.651569 -1.27539,-1.1875 l -0.0039,-0.0059 -0.002,-0.0059 c -0.499209,-0.931972 -0.44712,-2.11625 -0.28125,-3.27539 l 0.04297,-0.314454 -0.261719,-0.173828 c -0.783983,-0.519507 -1.625098,-0.926622 -2.478515,-1.267578 l -0.0078,-0.0039 -0.0098,-0.002 c -0.333635,-0.119524 -0.715135,-0.335926 -1.210937,-0.445313 -1.467682,-0.482212 -2.96717,-0.856119 -4.480469,-1.136718 l -0.0078,-0.002 C 16.89691,10.041295 16.227374,9.9728365 15.611328,9.8359375 l -0.0078,-0.00195 -0.0078,-0.00195 C 14.937829,9.7054768 14.29045,9.6397713 13.660156,9.5644531 h -0.002 -0.002 C 10.610608,9.2137305 7.5467085,9.0822203 4.4882812,9.109375 4.0821279,9.112311 3.6650531,9.1043583 3.2402344,9.1074219 Z M 24.955078,13.744141 c 0.01106,0.0068 0.02412,0.01069 0.03516,0.01758 -0.0011,0.0089 -8.66e-4,0.01846 -0.002,0.02734 -0.01306,-0.01407 -0.02016,-0.03269 -0.0332,-0.04492 z m 0.210938,0.277343 0.0039,0.01367 c -2.38e-4,-0.0011 -0.0017,-8.21e-4 -0.002,-0.002 -9.72e-4,-0.0041 -9.76e-4,-0.0076 -0.002,-0.01172 z m -0.716797,2.414063 c 2.1e-4,7.73e-4 0.0017,0.0012 0.002,0.002 -0.07057,0.0048 -0.138466,0.02609 -0.208985,0.03125 0.06946,-0.0079 0.137522,-0.02577 0.207032,-0.0332 z m 2.154297,1.953125 c 0.22409,0.162905 0.332807,0.449932 0.595703,0.552734 1.114689,0.476024 2.2507,0.326479 3.205078,0.369141 0.849633,0.157387 1.690118,0.516211 2.582031,0.851562 0.335293,0.13011 0.677282,0.281978 1.041016,0.421875 l 0.648437,0.248047 0.0059,-0.15039 c 0.284246,0.193059 0.528638,0.457438 0.839843,0.582031 l 0.822266,0.330078 -0.0078,-0.04687 c 0.106996,0.07598 0.212749,0.146444 0.320313,0.212891 -0.714687,-0.302138 -1.427689,-0.622786 -2.138672,-0.900391 l -0.0039,-0.002 -0.0059,-0.002 c -1.430502,-0.52372 -2.931471,-1.080936 -4.55664,-1.199219 -1.648508,-0.159553 -3.293186,0.500489 -4.433594,1.662109 -1.400207,1.388155 -1.997911,3.439758 -1.460937,5.357422 0.425868,1.773781 1.783008,3.063922 3.457031,3.666016 8.67e-4,3.12e-4 0.0011,0.0016 0.002,0.002 0.739336,0.274857 1.514702,0.371257 2.269531,0.367187 2.347361,-7.96e-4 4.678539,0.317278 6.94336,0.878907 l -0.164063,0.529297 c -2.027986,-0.889485 -4.243525,-1.2877 -6.414062,-1.113282 l -0.0078,0.002 h -0.0098 c -1.863305,0.215138 -3.815283,-0.605968 -5.05664,-2.019531 v -0.002 l -0.002,-0.002 C 24.42769,28.260878 23.99612,27.635409 23.744141,26.761719 23.504429,25.736923 23.451995,24.790323 23.71875,23.808594 l 0.002,-0.0098 0.002,-0.0098 c 0.218846,-0.955868 0.736894,-1.847913 1.414063,-2.59375 6.07e-4,-6.69e-4 0.0013,-0.0013 0.002,-0.002 0.479516,-0.507695 1.013427,-0.946642 1.609375,-1.230468 l 0.49414,-0.236329 -0.279296,-0.470703 c -0.157712,-0.266838 -0.223427,-0.586665 -0.359375,-0.867187 z m 7.751953,0.767578 c 0.209052,0.116737 0.409037,0.24314 0.613281,0.367187 l 0.03711,0.201172 c -0.125394,-0.103424 -0.29913,-0.156362 -0.402343,-0.277343 z m 3.376953,2.960937 c 0.04608,0.05014 0.09562,0.10404 0.140625,0.154297 -0.04633,-0.02219 -0.0942,-0.03673 -0.140625,-0.05859 z m 0.580078,0.546875 0.132812,0.002 c 0.245784,0.0044 0.49009,0.0098 0.734375,0.01367 0.253744,0.413222 0.519994,0.813925 0.779297,1.197266 0.0051,0.0087 0.0051,0.0116 0.0098,0.01953 -0.04412,0.05632 -0.102008,0.05452 -0.119141,0.142578 -0.04172,0.214413 0.049,0.325455 0.105469,0.398438 -0.312899,-0.166388 -0.623629,-0.377754 -0.931641,-0.515625 l -0.0059,-0.0039 c -0.301321,-0.140421 -0.494075,-0.258411 -0.558594,-0.371094 -0.07703,-0.215667 -0.10951,-0.484876 -0.138672,-0.802734 z m 1.652344,1.814454 c 3.36e-4,4.2e-4 0.0016,-4.2e-4 0.002,0 4.5e-4,5.55e-4 -4.43e-4,0.0034 0,0.0039 z m 1.46289,1.033203 c 0.0038,0.0016 0.0079,0.0023 0.01172,0.0039 -0.003,0.0025 -0.0048,0.0033 -0.0078,0.0059 -0.0025,-0.0025 -0.0053,-0.0053 -0.0078,-0.0078 0.0015,-8.6e-4 0.0024,-0.0011 0.0039,-0.002 z m 0.544922,0.818359 c -0.0099,0.0091 -0.0077,0.01091 -0.03125,0.02734 -0.04952,0.03454 -0.157098,0.07618 -0.109375,0.05859 0.04098,-0.0151 0.102972,-0.05762 0.140625,-0.08594 z m -1.189453,8.789063 0.01953,0.02344 c -0.0032,-0.0041 -0.0085,-0.0057 -0.01172,-0.0098 -0.0035,-0.004 -0.0043,-0.0097 -0.0078,-0.01367 z"
     id="path7" />
</svg>
