<?xml version="1.0" encoding="UTF-8" standalone="no"?>
<!-- Generator: Gravit.io -->

<svg
   style="isolation:isolate"
   viewBox="0 0 48 48"
   width="48pt"
   height="48pt"
   version="1.1"
   id="svg9"
   sodipodi:docname="distributor-logo-opensuse.svg"
   inkscape:version="1.1.2 (0a00cf5339, 2022-02-04)"
   xmlns:inkscape="http://www.inkscape.org/namespaces/inkscape"
   xmlns:sodipodi="http://sodipodi.sourceforge.net/DTD/sodipodi-0.dtd"
   xmlns:xlink="http://www.w3.org/1999/xlink"
   xmlns="http://www.w3.org/2000/svg"
   xmlns:svg="http://www.w3.org/2000/svg">
  <defs
     id="defs13">
    <linearGradient
       inkscape:collect="always"
       xlink:href="#_lgradient_31"
       id="linearGradient872"
       x1="-12.025727"
       y1="6.1170783"
       x2="-0.085100174"
       y2="6.1170783"
       gradientUnits="userSpaceOnUse"
       gradientTransform="matrix(3.8358211,0,0,3.8371386,-0.00544341,-0.00268054)" />
    <linearGradient
       id="_lgradient_1"
       x1="0.18336116"
       y1="0.24917752"
       x2="0.9027437"
       y2="0.90347725"
       gradientTransform="matrix(24.617266,0,0,24.816118,10.841288,10.089605)"
       gradientUnits="userSpaceOnUse">
      <stop
         offset="2.608695652173913%"
         stop-opacity="1"
         style="stop-color:rgb(179,255,171)"
         id="stop2-3" />
      <stop
         offset="98.69565217391305%"
         stop-opacity="1"
         style="stop-color:rgb(18,255,247)"
         id="stop4-6" />
    </linearGradient>
    <linearGradient
       inkscape:collect="always"
       xlink:href="#_lgradient_31"
       id="linearGradient15"
       x1="-9.6850061"
       y1="45.161198"
       x2="11.98815"
       y2="21.735205"
       gradientUnits="userSpaceOnUse"
       gradientTransform="matrix(1.1147442,0,0,1.1150348,-0.01237238,-3.3277956)" />
    <linearGradient
       inkscape:collect="always"
       xlink:href="#_lgradient_31"
       id="linearGradient875"
       x1="12.867197"
       y1="24"
       x2="38.578762"
       y2="24"
       gradientUnits="userSpaceOnUse" />
  </defs>
  <sodipodi:namedview
     id="namedview11"
     pagecolor="#ffffff"
     bordercolor="#666666"
     borderopacity="1.0"
     inkscape:pageshadow="2"
     inkscape:pageopacity="0.0"
     inkscape:pagecheckerboard="0"
     inkscape:document-units="pt"
     showgrid="false"
     inkscape:zoom="10.21875"
     inkscape:cx="31.95107"
     inkscape:cy="32"
     inkscape:window-width="1600"
     inkscape:window-height="836"
     inkscape:window-x="0"
     inkscape:window-y="0"
     inkscape:window-maximized="1"
     inkscape:current-layer="svg9" />
  <linearGradient
     id="_lgradient_31"
     x1="0"
     y1="0.5"
     x2="1"
     y2="0.5"
     gradientTransform="matrix(25.711564,0,0,29.392397,12.867202,9.3038058)"
     gradientUnits="userSpaceOnUse">
    <stop
       offset="0%"
       stop-opacity="1"
       style="stop-color:rgb(67,233,123)"
       id="stop2" />
    <stop
       offset="97.82608695652173%"
       stop-opacity="1"
       style="stop-color:rgb(56,249,215)"
       id="stop4" />
  </linearGradient>
  <rect
     x="-46.783188"
     y="1.2253767"
     height="45.80014"
     rx="6.1837621"
     shape-rendering="crispEdges"
     id="rect5-6-7-3"
     ry="6.8055277"
     transform="matrix(0.00524063,-0.99998627,0.99998801,0.00489691,0,0)"
     style="isolation:isolate;fill:#00ffc3;fill-opacity:0.134703;stroke:url(#linearGradient872);stroke-width:2.0301;stroke-miterlimit:4;stroke-dasharray:none;stroke-opacity:1"
     width="45.801998" />
  <rect
     x="-15.686804"
     y="17.260084"
     height="33.345856"
     rx="6.7920032"
     shape-rendering="crispEdges"
     id="rect5-6-6-6-6"
     style="isolation:isolate;fill:#00ffc3;fill-opacity:0.134703;stroke:url(#linearGradient15);stroke-width:1.67233;stroke-miterlimit:4;stroke-dasharray:none;stroke-opacity:1"
     ry="7.4743071"
     transform="matrix(0.72446484,-0.68931175,0.68622417,0.72739012,0,0)"
     width="33.338203" />
  <path
     style="color:#000000;fill:url(#linearGradient875);-inkscape-stroke:none"
     d="m 23.875,8.8046875 c -5.772694,0 -9.179583,2.4100225 -11.347656,5.0917965 l -0.480469,0.595704 0.736328,0.201171 c 1.599438,0.438835 2.714259,0.803171 3.074219,0.921875 l 0.644531,0.212891 0.01172,-0.677734 c 0.0037,-0.197658 0.02719,-1.401939 0.03711,-1.962891 0.548141,0.08156 2.779234,0.410688 5.785156,1.078125 3.240339,0.719487 6.981602,1.77178 9.095704,3.003906 0.4799,0.28301 0.695886,0.558781 1.05664,0.927735 0.450876,0.467105 1.226798,2.119749 1.802735,3.716796 0.537372,1.490111 0.914367,2.875136 1.02539,3.423829 -0.0649,0.04365 -0.130345,0.08819 -0.207031,0.140625 l -0.002,0.002 -0.002,0.002 c -1.0396,0.726039 -3.338514,2.317661 -6.248047,2.058594 -2.648358,-0.235926 -6.255263,-1.797869 -10.625,-4.675782 l -1.382813,-0.910156 0.646485,1.523438 c 0.192031,0.451687 1.109479,2.630047 1.263672,2.996093 l 0.0293,0.07031 0.175782,0.208984 0.08789,0.04687 c 0.326478,0.168697 2.026761,1.036666 4.039063,1.859375 2.012302,0.82271 4.299472,1.617761 5.996094,1.582031 2.359756,-0.04666 4.603357,-1.027841 5.865234,-1.716796 -0.05875,0.216524 -0.114373,0.455724 -0.152344,0.552734 l -0.08398,0.216797 v 0.0039 c -0.11723,0.313893 -0.228245,0.52749 -0.306641,0.591797 l -0.0098,0.0078 -0.0098,0.0098 c -0.518335,0.471708 -1.470994,0.918231 -3.011719,1.59375 -2.272951,0.992761 -6.106223,1.65406 -9.634765,1.634766 -1.256813,-0.02841 -2.485295,-0.16636 -3.578125,-0.291016 -1.140694,-0.130189 -2.190047,-0.252586 -3.13086,-0.228516 -0.940812,0.02407 -1.798761,0.196271 -2.474609,0.720704 l -0.421875,0.326171 0.353516,0.400391 c 2.783403,3.146021 6.855068,5.130859 11.384765,5.130859 8.386385,0 15.201172,-6.808011 15.201172,-15.195312 0,-8.347243 -6.754868,-15.12097 -15.087891,-15.1835937 l -0.03516,-0.011719 h -0.07813 z m 0,1 h 0.002 c 7.845926,0 14.201172,6.3503195 14.201172,14.1953125 0,7.846328 -6.355219,14.195313 -14.201172,14.195312 -3.946616,0 -7.46874,-1.651787 -10.041015,-4.248046 0.368595,-0.138738 0.684086,-0.316249 1.224609,-0.330079 0.832904,-0.02131 1.851905,0.09251 2.992187,0.222657 1.093187,0.124696 2.354417,0.267141 3.669922,0.296875 h 0.0039 0.0039 c 3.656558,0.02103 7.552193,-0.62829 10.048828,-1.71875 1.537987,-0.674319 2.553195,-1.11588 3.269531,-1.763672 0.359168,-0.3002 0.48546,-0.689756 0.603516,-1.00586 v 0.0039 l 0.08008,-0.210938 c 0.129069,-0.32975 0.259997,-0.851167 0.330078,-1.179687 0.01903,-0.08585 0.04193,-0.193256 0.03125,-0.339844 -0.01068,-0.146588 -0.07941,-0.366582 -0.257813,-0.507813 l -0.179687,-0.140625 -0.644531,0.123047 -0.07617,0.04492 c -0.971304,0.582782 -3.572499,1.755407 -5.867188,1.800781 -1.340159,0.02822 -3.631007,-0.703767 -5.597656,-1.507812 -1.908294,-0.780187 -3.462029,-1.572126 -3.841797,-1.767578 -0.108418,-0.257517 -0.368391,-0.876691 -0.646484,-1.53711 3.825436,2.368797 7.151728,3.872653 9.787109,4.107422 3.315189,0.295188 5.870312,-1.511482 6.908203,-2.236328 0.100002,-0.06839 0.188931,-0.128448 0.251953,-0.169922 0.06415,-0.04221 0.134975,-0.06956 0.05859,-0.04102 l 0.158203,-0.06055 0.259766,-0.414063 -0.0293,-0.185547 C 36.271893,24.76561 35.824064,23.214814 35.232422,21.574219 34.64078,19.933623 33.984287,18.305401 33.205078,17.5 l -0.002,-0.002 c -0.3207,-0.327989 -0.645456,-0.72682 -1.265625,-1.091797 h -0.002 C 29.59945,15.044742 25.832172,14.017231 22.552734,13.289063 19.273297,12.560894 16.50183,12.152758 16.242187,12.115234 l -0.109375,-0.01758 -0.281249,0.08594 C 17.755165,10.806942 20.245278,9.8046875 23.875,9.8046875 Z m -8.177734,2.4804685 -0.136719,0.308594 -0.002,0.101563 c 0,0 -0.0203,1.051889 -0.0332,1.777343 -0.361929,-0.116722 -0.95128,-0.292542 -1.681641,-0.505859 0.539752,-0.603183 1.158194,-1.161927 1.853516,-1.681641 z m 12.048828,4.296875 c -1.241316,0.01926 -2.423209,0.489126 -3.337891,1.345703 -0.981754,0.909376 -1.548494,2.161926 -1.595703,3.498047 v 0.002 c -0.09026,2.758906 2.085837,5.092167 4.845703,5.195313 h 0.002 0.002 c 1.340622,0.0436 2.622742,-0.438149 3.59961,-1.353516 0.974091,-0.911154 1.54051,-2.154116 1.589843,-3.488281 v -0.002 c 0.09455,-2.762652 -2.083446,-5.097726 -4.847656,-5.197266 h -0.002 c -0.08782,-0.003 -0.171094,-0.0019 -0.25,0 z m 0.01953,1 h 0.002 0.0039 c 0.06938,-0.0018 0.13729,-0.0021 0.197266,0 2.221854,0.08108 3.958782,1.944237 3.882812,4.164063 -0.04028,1.075888 -0.488338,2.058596 -1.273437,2.792968 v 0.002 c -0.787001,0.737453 -1.799242,1.118145 -2.880859,1.083984 -2.218103,-0.0829 -3.959236,-1.949536 -3.886719,-4.166016 0.03854,-1.076526 0.489573,-2.06718 1.277344,-2.796875 l 0.002,-0.002 c 0.737326,-0.691243 1.672118,-1.063704 2.675781,-1.078125 z m -0.15625,0.332031 -0.002,0.002 c -0.84079,0.05166 -1.637602,0.394462 -2.257813,0.976562 -0.704163,0.660119 -1.127533,1.566482 -1.158203,2.541016 -0.06641,2.009383 1.515461,3.708555 3.523438,3.783203 h 0.002 0.002 c 0.970364,0.0297 1.905884,-0.314807 2.617187,-0.97461 l 0.002,-0.002 c 0.709234,-0.66528 1.126576,-1.578358 1.15625,-2.548828 v -0.002 c 0.0668,-2.011273 -1.521923,-3.704523 -3.529297,-3.775391 h -0.002 c -0.106634,-0.0032 -0.22194,-0.0073 -0.351563,0 z m 0.05859,1 h 0.002 c 0.07662,-0.0042 0.158532,-0.0031 0.261719,0 0.924128,0.03327 1.584729,0.604016 2.035156,1.333985 -0.0992,-0.12313 -0.103464,-0.309768 -0.232422,-0.396485 -0.349753,-0.235186 -0.788746,-0.359375 -1.265625,-0.359375 -0.477622,0 -0.918585,0.124666 -1.269531,0.359375 -0.350946,0.23471 -0.63086,0.616043 -0.63086,1.076172 0,0.459925 0.280235,0.840895 0.63086,1.076172 0.350624,0.235277 0.791214,0.361328 1.269531,0.361328 0.477297,0 0.916033,-0.125689 1.265625,-0.361328 0.30121,-0.203027 0.478074,-0.552068 0.541016,-0.927734 0.04517,0.20993 0.226341,0.357122 0.21875,0.582031 v 0.002 c -0.02118,0.70489 -0.318864,1.361789 -0.837891,1.84961 -4.68e-4,4.34e-4 -0.0015,-4.34e-4 -0.002,0 -4.55e-4,4.27e-4 4.55e-4,0.0015 0,0.002 -0.5192,0.48069 -1.185726,0.726529 -1.902344,0.705078 -1.46743,-0.05455 -2.609125,-1.280101 -2.560547,-2.75 v -0.002 c 0.02229,-0.708362 0.323169,-1.357981 0.841797,-1.84375 0.451672,-0.423918 1.025359,-0.669164 1.634766,-0.707032 z m 0.800781,1.578125 c 0.29572,0 0.552916,0.08582 0.707031,0.189454 0.154116,0.103633 0.1875,0.189264 0.1875,0.246093 0,0.05626 -0.03322,0.142105 -0.1875,0.246094 -0.154277,0.103989 -0.411729,0.191406 -0.707031,0.191406 -0.296221,0 -0.5569,-0.08673 -0.712891,-0.191406 -0.15599,-0.104673 -0.1875,-0.192458 -0.1875,-0.246094 0,-0.05537 0.03183,-0.141983 0.1875,-0.246093 0.155669,-0.104111 0.415976,-0.189454 0.712891,-0.189454 z"
     id="path7" />
</svg>
