<?xml version="1.0" encoding="UTF-8" standalone="no"?>
<!-- Generator: Gravit.io -->

<svg
   style="isolation:isolate"
   viewBox="0 0 48 48"
   width="48pt"
   height="48pt"
   version="1.1"
   id="svg9"
   sodipodi:docname="distributor-logo-bunsenlabs.svg"
   inkscape:version="1.1.2 (0a00cf5339, 2022-02-04)"
   xmlns:inkscape="http://www.inkscape.org/namespaces/inkscape"
   xmlns:sodipodi="http://sodipodi.sourceforge.net/DTD/sodipodi-0.dtd"
   xmlns:xlink="http://www.w3.org/1999/xlink"
   xmlns="http://www.w3.org/2000/svg"
   xmlns:svg="http://www.w3.org/2000/svg">
  <defs
     id="defs13">
    <linearGradient
       inkscape:collect="always"
       xlink:href="#_lgradient_21"
       id="linearGradient872"
       x1="-12.025727"
       y1="6.1170783"
       x2="-0.085100174"
       y2="6.1170783"
       gradientUnits="userSpaceOnUse"
       gradientTransform="matrix(3.8358211,0,0,3.8371386,-0.00544341,-0.00268054)" />
    <linearGradient
       id="_lgradient_1"
       x1="0.18336116"
       y1="0.24917752"
       x2="0.9027437"
       y2="0.90347725"
       gradientTransform="matrix(24.617266,0,0,24.816118,10.841288,10.089605)"
       gradientUnits="userSpaceOnUse">
      <stop
         offset="2.608695652173913%"
         stop-opacity="1"
         style="stop-color:rgb(179,255,171)"
         id="stop2-3" />
      <stop
         offset="98.69565217391305%"
         stop-opacity="1"
         style="stop-color:rgb(18,255,247)"
         id="stop4-6" />
    </linearGradient>
    <linearGradient
       inkscape:collect="always"
       xlink:href="#_lgradient_21"
       id="linearGradient15"
       x1="-9.6850061"
       y1="45.161198"
       x2="11.98815"
       y2="21.735205"
       gradientUnits="userSpaceOnUse"
       gradientTransform="matrix(1.1147442,0,0,1.1150348,-0.01237238,-3.3277956)" />
    <linearGradient
       inkscape:collect="always"
       xlink:href="#_lgradient_21"
       id="linearGradient1177"
       x1="0.56400001"
       y1="24"
       x2="47.372002"
       y2="24"
       gradientUnits="userSpaceOnUse" />
  </defs>
  <sodipodi:namedview
     id="namedview11"
     pagecolor="#ffffff"
     bordercolor="#666666"
     borderopacity="1.0"
     inkscape:pageshadow="2"
     inkscape:pageopacity="0.0"
     inkscape:pagecheckerboard="0"
     inkscape:document-units="pt"
     showgrid="false"
     inkscape:zoom="10.21875"
     inkscape:cx="31.95107"
     inkscape:cy="25.345566"
     inkscape:window-width="1600"
     inkscape:window-height="836"
     inkscape:window-x="0"
     inkscape:window-y="0"
     inkscape:window-maximized="1"
     inkscape:current-layer="svg9" />
  <linearGradient
     id="_lgradient_21"
     x1="0"
     y1="0.5"
     x2="1"
     y2="0.5"
     gradientTransform="matrix(46.808,0,0,47,0.564,0.5)"
     gradientUnits="userSpaceOnUse">
    <stop
       offset="0%"
       stop-opacity="1"
       style="stop-color:rgb(255,229,59)"
       id="stop2" />
    <stop
       offset="98.69565217391305%"
       stop-opacity="1"
       style="stop-color:rgb(255,0,91)"
       id="stop4" />
  </linearGradient>
  <rect
     x="-46.783188"
     y="1.2253767"
     height="45.80014"
     rx="6.1837621"
     shape-rendering="crispEdges"
     id="rect5-6-7-3"
     ry="6.8055277"
     transform="matrix(0.00524063,-0.99998627,0.99998801,0.00489691,0,0)"
     style="isolation:isolate;fill:#ff3700;fill-opacity:0.13470298;stroke:url(#linearGradient872);stroke-width:2.0301;stroke-miterlimit:4;stroke-dasharray:none;stroke-opacity:1"
     width="45.801998" />
  <rect
     x="-15.686804"
     y="17.260084"
     height="33.345856"
     rx="6.7920032"
     shape-rendering="crispEdges"
     id="rect5-6-6-6-6"
     style="isolation:isolate;fill:#ff3700;fill-opacity:0.13470298;stroke:url(#linearGradient15);stroke-width:1.67233;stroke-miterlimit:4;stroke-dasharray:none;stroke-opacity:1"
     ry="7.4743071"
     transform="matrix(0.72446484,-0.68931175,0.68622417,0.72739012,0,0)"
     width="33.338203" />
  <path
     style="color:#000000;fill:url(#linearGradient1177);fill-rule:evenodd;-inkscape-stroke:none"
     d="m 25.5,7 -0.800781,0.5996094 c 0,0 -2.043058,1.5318443 -4.082032,3.9531246 C 18.578214,13.974015 16.5,17.309527 16.5,21 c 0,2.586177 0.89521,5.82448 2.03125,8.976562 l 0.970703,-0.169921 c 9.98e-4,-1.931177 0.03513,-3.763609 0.945313,-5.583985 0.791791,-1.583582 2.098385,-2.995264 2.558593,-3.480469 C 23.484532,21.132176 25.5,22.898143 25.5,27 v 6 c 0,1.388888 -0.484875,3.374183 -0.978516,4.978516 -0.493641,1.604333 -0.986328,2.835937 -0.986328,2.835937 l 0.841797,0.515625 c 0,0 1.777356,-2.031827 3.550781,-4.945312 C 29.70116,33.471281 31.5,29.666663 31.5,26 31.5,22.833337 29.962171,19.057155 28.447266,16.027344 26.974227,13.081267 25.580367,10.990228 25.5,10.869141 Z m -1,2.1757813 v 1.9765627 l 0.08398,0.125 c 0,0 1.483659,2.225129 2.96875,5.195312 C 29.037826,19.442839 30.5,23.166669 30.5,26 c 0,3.33333 -1.701164,7.028725 -3.427734,9.865234 -0.772948,1.269843 -0.927761,1.327055 -1.544922,2.150391 C 26.00883,36.417406 26.5,34.532955 26.5,33 v -6 c 0,-5.012155 -3.205078,-7.404297 -3.205078,-7.404297 l -0.345703,-0.251953 -0.302735,0.302734 c 0,0 -2.034122,2.011605 -3.09375,4.13086 -0.52605,1.0521 -0.782926,2.099169 -0.914062,3.132812 C 17.998524,24.74955 17.5,22.653327 17.5,21 c 0,-3.309521 1.92179,-6.47402 3.882812,-8.802734 C 22.943188,10.344319 23.928711,9.6329915 24.5,9.1757813 Z"
     id="path7" />
</svg>
