<?xml version="1.0" encoding="UTF-8" standalone="no"?>
<!-- Generator: Gravit.io -->

<svg
   style="isolation:isolate"
   viewBox="0 0 48 48"
   width="48pt"
   height="48pt"
   version="1.1"
   id="svg9"
   sodipodi:docname="distributor-logo-ubuntu.svg"
   inkscape:version="1.1.2 (0a00cf5339, 2022-02-04)"
   xmlns:inkscape="http://www.inkscape.org/namespaces/inkscape"
   xmlns:sodipodi="http://sodipodi.sourceforge.net/DTD/sodipodi-0.dtd"
   xmlns:xlink="http://www.w3.org/1999/xlink"
   xmlns="http://www.w3.org/2000/svg"
   xmlns:svg="http://www.w3.org/2000/svg">
  <defs
     id="defs13">
    <linearGradient
       inkscape:collect="always"
       xlink:href="#_lgradient_33"
       id="linearGradient872"
       x1="-12.025727"
       y1="6.1170783"
       x2="-0.085100174"
       y2="6.1170783"
       gradientUnits="userSpaceOnUse"
       gradientTransform="matrix(3.8358211,0,0,3.8371386,-0.00544341,-0.00268054)" />
    <linearGradient
       id="_lgradient_1"
       x1="0.18336116"
       y1="0.24917752"
       x2="0.9027437"
       y2="0.90347725"
       gradientTransform="matrix(24.617266,0,0,24.816118,10.841288,10.089605)"
       gradientUnits="userSpaceOnUse">
      <stop
         offset="2.608695652173913%"
         stop-opacity="1"
         style="stop-color:rgb(179,255,171)"
         id="stop2-3" />
      <stop
         offset="98.69565217391305%"
         stop-opacity="1"
         style="stop-color:rgb(18,255,247)"
         id="stop4-6" />
    </linearGradient>
    <linearGradient
       inkscape:collect="always"
       xlink:href="#_lgradient_33"
       id="linearGradient15"
       x1="-9.6850061"
       y1="45.161198"
       x2="11.98815"
       y2="21.735205"
       gradientUnits="userSpaceOnUse"
       gradientTransform="matrix(1.1147442,0,0,1.1150348,-0.01237238,-3.3277956)" />
    <linearGradient
       inkscape:collect="always"
       xlink:href="#_lgradient_33"
       id="linearGradient1419"
       x1="8.8659601"
       y1="24.000017"
       x2="33.534088"
       y2="24.000017"
       gradientUnits="userSpaceOnUse" />
  </defs>
  <sodipodi:namedview
     id="namedview11"
     pagecolor="#ffffff"
     bordercolor="#666666"
     borderopacity="1.0"
     inkscape:pageshadow="2"
     inkscape:pageopacity="0.0"
     inkscape:pagecheckerboard="0"
     inkscape:document-units="pt"
     showgrid="false"
     inkscape:zoom="5.109375"
     inkscape:cx="32"
     inkscape:cy="32"
     inkscape:window-width="1056"
     inkscape:window-height="545"
     inkscape:window-x="308"
     inkscape:window-y="75"
     inkscape:window-maximized="0"
     inkscape:current-layer="svg9" />
  <linearGradient
     id="_lgradient_33"
     x1="0"
     y1="0.5"
     x2="1"
     y2="0.5"
     gradientTransform="matrix(40.254702,0,0,40.419821,3.3645651,3.7931587)"
     gradientUnits="userSpaceOnUse">
    <stop
       offset="0%"
       stop-opacity="1"
       style="stop-color:rgb(255,95,109)"
       id="stop2" />
    <stop
       offset="98.26086956521739%"
       stop-opacity="1"
       style="stop-color:rgb(255,195,113)"
       id="stop4" />
  </linearGradient>
  <rect
     x="-46.783188"
     y="1.2253767"
     height="45.80014"
     rx="6.1837621"
     shape-rendering="crispEdges"
     id="rect5-6-7-3"
     ry="6.8055277"
     transform="matrix(0.00524063,-0.99998627,0.99998801,0.00489691,0,0)"
     style="isolation:isolate;fill:#ff0039;fill-opacity:0.13470298;stroke:url(#linearGradient872);stroke-width:2.0301;stroke-miterlimit:4;stroke-dasharray:none;stroke-opacity:1"
     width="45.801998" />
  <rect
     x="-15.686804"
     y="17.260084"
     height="33.345856"
     rx="6.7920032"
     shape-rendering="crispEdges"
     id="rect5-6-6-6-6"
     style="isolation:isolate;fill:#ff0039;fill-opacity:0.13470298;stroke:url(#linearGradient15);stroke-width:1.67233;stroke-miterlimit:4;stroke-dasharray:none;stroke-opacity:1"
     ry="7.4743071"
     transform="matrix(0.72446484,-0.68931175,0.68622417,0.72739012,0,0)"
     width="33.338203" />
  <path
     style="color:#000000;fill:url(#linearGradient1419);fill-rule:evenodd;-inkscape-stroke:none"
     d="m 28.978516,10.671875 v 0.07617 c -0.87085,0.101222 -1.679415,0.581366 -2.146485,1.390625 -0.362802,0.629401 -0.395686,1.338303 -0.257812,2 -0.0087,-0.04157 -0.04002,-0.07517 -0.04687,-0.117188 l -0.05078,-0.318359 -0.310546,-0.08398 c -0.911872,-0.249915 -1.888983,-0.408205 -2.892579,-0.408203 -1.713581,0 -3.32185,0.406564 -4.757812,1.11914 l -0.46875,0.232422 2.123047,3.833984 0.421875,-0.199218 c 0.826217,-0.38621 1.721782,-0.609375 2.68164,-0.609375 3.358664,0 6.120168,2.563655 6.408204,5.84375 l 0.04102,0.46289 4.34375,-0.05469 -0.0332,-0.525391 c -0.175792,-2.730644 -1.370479,-5.190194 -3.205078,-6.994141 l -0.228516,-0.224609 -0.298828,0.111328 c -0.0345,0.01294 -0.07258,0.004 -0.107422,0.01563 0.639615,-0.212304 1.235441,-0.595807 1.597657,-1.224609 0.78938,-1.361681 0.334868,-3.136063 -1.035157,-3.925781 -0.395562,-0.228378 -0.827741,-0.338701 -1.24414,-0.365235 h -0.0039 z m 0.189453,1.033203 c 0.09306,-0.0063 0.185558,-0.0056 0.28125,0 0.284116,0.01836 0.566804,0.09371 0.80664,0.232422 h 0.002 c 0.891762,0.514035 1.185781,1.665369 0.667969,2.558594 v 0.002 c -0.517409,0.900347 -1.639925,1.19602 -2.539062,0.677734 -0.900285,-0.519526 -1.203249,-1.640134 -0.6875,-2.537109 0.327346,-0.567169 0.872802,-0.891654 1.46875,-0.933594 z m -5.894532,2.50586 c 0.825978,-1e-6 1.637321,0.145831 2.416016,0.34375 0.258006,0.939203 0.81213,1.796099 1.714844,2.318359 0.899623,0.522195 1.908191,0.56992 2.841797,0.330078 1.459539,1.496914 2.388582,3.466983 2.654297,5.650391 l -2.353516,0.03125 c -0.552038,-3.55477 -3.571994,-6.296875 -7.273438,-6.296875 -0.945587,0 -1.805979,0.269815 -2.630859,0.595703 l -1.183594,-2.138672 c 1.178173,-0.508675 2.446438,-0.833984 3.814453,-0.833984 z m 3.462891,0.335937 c 0.200413,0.51775 0.529005,0.979538 1.009766,1.314453 -0.489392,-0.335766 -0.812261,-0.79417 -1.009766,-1.314453 z m -8.998047,0.191406 -0.4375,0.291016 c -2.173047,1.451104 -3.770955,3.676658 -4.443359,6.273437 l -0.08203,0.310547 0.25,0.203125 c 0.03017,0.0245 0.04131,0.06427 0.07031,0.08984 -0.507842,-0.448281 -1.141837,-0.773438 -1.86914,-0.773438 -1.5760776,0 -2.8613286,1.283297 -2.8613286,2.859375 0,1.572662 1.2841552,2.861329 2.8613286,2.861329 0.741393,0 1.393179,-0.325313 1.904296,-0.789063 -0.04232,0.03939 -0.06061,0.100121 -0.105468,0.136719 l -0.25,0.203125 0.08203,0.308594 c 0.672495,2.59623 2.271187,4.813152 4.443359,6.263671 l 0.4375,0.292969 2.240235,-3.765625 -0.378907,-0.265625 c -1.649002,-1.159168 -2.722656,-3.072656 -2.722656,-5.246094 0,-2.176201 1.073389,-4.084787 2.722656,-5.24414 l 0.378907,-0.267578 z m 10.375,1.333985 c 0.528005,0.247432 1.090077,0.299031 1.636719,0.214843 -0.54733,0.09067 -1.102142,0.04246 -1.636719,-0.214843 z m -10.642578,0.164062 1.232422,2.058594 c -1.682564,1.35759 -2.826172,3.367644 -2.826172,5.697265 0,2.327921 1.142766,4.341242 2.826172,5.699219 l -1.236328,2.076172 c -1.688514,-1.270058 -2.967631,-3.028875 -3.556641,-5.119141 0.682512,-0.700981 1.13086,-1.621768 1.13086,-2.65625 0,-1.038709 -0.451035,-1.937325 -1.128907,-2.626953 0.589826,-2.09228 1.869413,-3.858385 3.558594,-5.128906 z m -6.24414,5.896484 c 1.0421,0 1.871093,0.821977 1.871093,1.859375 0,1.032206 -0.830087,1.861329 -1.871093,1.861329 -1.038931,0 -1.8613286,-0.826485 -1.8613286,-1.861329 0,-1.040028 0.8213016,-1.859375 1.8613286,-1.859375 z m 2.146484,0.123047 c 0.333334,0.407326 0.549563,0.887996 0.605469,1.453125 -0.06345,-0.550537 -0.272996,-1.042878 -0.605469,-1.453125 z m 16.349609,1.857422 -0.04102,0.462891 c -0.287968,3.273737 -3.050095,5.84375 -6.408204,5.84375 -0.964095,0 -1.858201,-0.214698 -2.68164,-0.59961 l -0.421875,-0.197265 -2.123047,3.808594 0.46875,0.234375 c 1.438567,0.716576 3.046861,1.107421 4.757812,1.107421 0.995458,0 1.973891,-0.131688 2.894532,-0.386718 l 0.308593,-0.08594 0.05078,-0.314453 c 0.0069,-0.04199 0.03816,-0.07565 0.04687,-0.117187 -0.138421,0.660486 -0.104645,1.369626 0.257812,1.998046 0.789836,1.370781 2.558497,1.832253 3.923828,1.046875 1.367102,-0.787873 1.821913,-2.544954 1.035157,-3.90625 -0.372514,-0.645427 -0.984121,-1.016338 -1.646485,-1.224609 0.05024,0.01604 0.104728,0.0046 0.154297,0.02344 l 0.300781,0.115234 0.228516,-0.226563 c 1.834041,-1.805201 3.029303,-4.260152 3.205078,-6.99414 l 0.0332,-0.523438 z m -15.74414,0.16211 c -0.05725,0.579779 -0.281752,1.082887 -0.626953,1.503906 0.351988,-0.418049 0.56133,-0.935017 0.626953,-1.503906 z m 16.568359,0.849609 2.355469,0.03516 c -0.265208,2.186479 -1.195687,4.153273 -2.65625,5.652344 -0.933096,-0.242912 -1.941542,-0.199528 -2.841797,0.320312 v 0.002 c -0.902466,0.523344 -1.456773,1.379058 -1.714844,2.316406 -0.772336,0.195352 -1.58195,0.322265 -2.416016,0.322265 -1.370449,0 -2.638062,-0.316876 -3.814453,-0.824218 l 1.181641,-2.117188 c 0.826976,0.324584 1.688653,0.587891 2.632812,0.587891 3.701202,0 6.720444,-2.745774 7.273438,-6.294922 z m -2.775391,7 c -0.498976,0.335583 -0.832267,0.811975 -1.037109,1.341797 0.200713,-0.531414 0.530291,-1.002396 1.037109,-1.341797 z m 1.41211,0.453125 c 0.08801,-0.0073 0.169107,-0.0073 0.255859,0 h 0.0039 0.002 c 0.596991,0.04201 1.154968,0.365715 1.480469,0.929687 0.520436,0.900491 0.230156,2.023419 -0.667969,2.541016 -0.898176,0.516657 -2.041236,0.2182 -2.558593,-0.679687 v -0.002 c -0.516786,-0.894488 -0.214418,-2.011417 0.685547,-2.527343 h 0.002 c 0.260042,-0.150403 0.537197,-0.24018 0.796875,-0.261719 z"
     id="path7" />
</svg>
