<?xml version="1.0" encoding="UTF-8" standalone="no"?>
<!-- Generator: Gravit.io -->

<svg
   style="isolation:isolate"
   viewBox="0 0 48 48"
   width="48pt"
   height="48pt"
   version="1.1"
   id="svg9"
   sodipodi:docname="distributor-logo-antergos.svg"
   inkscape:version="1.1.2 (0a00cf5339, 2022-02-04)"
   xmlns:inkscape="http://www.inkscape.org/namespaces/inkscape"
   xmlns:sodipodi="http://sodipodi.sourceforge.net/DTD/sodipodi-0.dtd"
   xmlns:xlink="http://www.w3.org/1999/xlink"
   xmlns="http://www.w3.org/2000/svg"
   xmlns:svg="http://www.w3.org/2000/svg">
  <defs
     id="defs13">
    <linearGradient
       inkscape:collect="always"
       xlink:href="#_lgradient_14"
       id="linearGradient872"
       x1="-12.025727"
       y1="6.1170783"
       x2="-0.085100174"
       y2="6.1170783"
       gradientUnits="userSpaceOnUse"
       gradientTransform="matrix(3.8358211,0,0,3.8371386,-0.00544341,-0.00268054)" />
    <linearGradient
       id="_lgradient_1"
       x1="0.18336116"
       y1="0.24917752"
       x2="0.9027437"
       y2="0.90347725"
       gradientTransform="matrix(24.617266,0,0,24.816118,10.841288,10.089605)"
       gradientUnits="userSpaceOnUse">
      <stop
         offset="2.608695652173913%"
         stop-opacity="1"
         style="stop-color:rgb(179,255,171)"
         id="stop2-3" />
      <stop
         offset="98.69565217391305%"
         stop-opacity="1"
         style="stop-color:rgb(18,255,247)"
         id="stop4-6" />
    </linearGradient>
    <linearGradient
       inkscape:collect="always"
       xlink:href="#_lgradient_14"
       id="linearGradient15"
       x1="-9.6850061"
       y1="45.161198"
       x2="11.98815"
       y2="21.735205"
       gradientUnits="userSpaceOnUse"
       gradientTransform="matrix(1.1147442,0,0,1.1150348,-0.01237238,-3.3277956)" />
    <linearGradient
       inkscape:collect="always"
       xlink:href="#_lgradient_14"
       id="linearGradient1328"
       x1="9.9384804"
       y1="21.739237"
       x2="38.06152"
       y2="21.739237"
       gradientUnits="userSpaceOnUse" />
  </defs>
  <sodipodi:namedview
     id="namedview11"
     pagecolor="#ffffff"
     bordercolor="#666666"
     borderopacity="1.0"
     inkscape:pageshadow="2"
     inkscape:pageopacity="0.0"
     inkscape:pagecheckerboard="0"
     inkscape:document-units="pt"
     showgrid="false"
     inkscape:zoom="7.2257474"
     inkscape:cx="30.100692"
     inkscape:cy="31.969011"
     inkscape:window-width="1600"
     inkscape:window-height="836"
     inkscape:window-x="0"
     inkscape:window-y="0"
     inkscape:window-maximized="1"
     inkscape:current-layer="svg9" />
  <linearGradient
     id="_lgradient_14"
     x1="-0.000038208333333289435"
     y1="0.5000000833333331"
     x2="0.9999618333333335"
     y2="0.5000000833333331"
     gradientTransform="matrix(28.122837,0,0,28.124145,9.9385817,7.6772516)"
     gradientUnits="userSpaceOnUse">
    <stop
       offset="0%"
       stop-opacity="1"
       style="stop-color:rgb(0,198,255)"
       id="stop2" />
    <stop
       offset="98.69565217391305%"
       stop-opacity="1"
       style="stop-color:rgb(0,114,255)"
       id="stop4" />
  </linearGradient>
  <rect
     x="-46.783188"
     y="1.2253767"
     height="45.80014"
     rx="6.1837621"
     shape-rendering="crispEdges"
     id="rect5-6-7-3"
     ry="6.8055277"
     transform="matrix(0.00524063,-0.99998627,0.99998801,0.00489691,0,0)"
     style="isolation:isolate;fill:#00bfff;fill-opacity:0.13470298;stroke:url(#linearGradient872);stroke-width:2.0301;stroke-miterlimit:4;stroke-dasharray:none;stroke-opacity:1"
     width="45.801998" />
  <rect
     x="-15.686804"
     y="17.260084"
     height="33.345856"
     rx="6.7920032"
     shape-rendering="crispEdges"
     id="rect5-6-6-6-6"
     style="isolation:isolate;fill:#00bfff;fill-opacity:0.13470298;stroke:url(#linearGradient15);stroke-width:1.67233;stroke-miterlimit:4;stroke-dasharray:none;stroke-opacity:1"
     ry="7.4743071"
     transform="matrix(0.72446484,-0.68931175,0.68622417,0.72739012,0,0)"
     width="33.338203" />
  <path
     style="color:#000000;fill:url(#linearGradient1328);fill-rule:evenodd;-inkscape-stroke:none"
     d="M 23.988281,7.1777344 C 23.039741,7.1989703 22.106692,7.4254234 21.255859,7.84375 20.356058,8.2802691 19.516755,8.8245945 18.753906,9.4648438 17.910935,10.160909 17.120264,10.924728 16.402344,11.75 c -0.777116,0.877078 -1.50095,1.802441 -2.166016,2.773438 -1.360467,1.951678 -2.502631,4.056536 -3.392578,6.267578 -0.421586,1.030543 -0.762887,2.08693 -1.0175781,3.166015 -0.2440316,0.978007 -0.3731542,1.98164 -0.3867188,2.992188 v 0.002 c -0.013829,1.051007 0.1529875,2.086747 0.4765625,3.078125 v 0.002 l 0.00195,0.0039 c 0.3011672,0.882492 0.7621392,1.700947 1.3554692,2.419922 l 0.002,0.002 0.002,0.002 c 0.563492,0.667844 1.223755,1.238266 1.960937,1.697266 0.712153,0.445095 1.473203,0.808108 2.267578,1.082031 0.766558,0.262244 1.555677,0.470698 2.357422,0.619141 0.771313,0.147556 1.541374,0.247807 2.314453,0.314453 l 0.002,0.002 h 0.002 c 1.277468,0.09929 2.548224,0.138223 3.824218,0.125 1.272055,0.01286 2.538941,-0.02602 3.8125,-0.125 h 0.002 l 0.002,-0.002 c 0.77308,-0.06665 1.54314,-0.166897 2.314453,-0.314453 0.801745,-0.148443 1.590864,-0.356897 2.357422,-0.619141 0.794375,-0.273923 1.555425,-0.636936 2.267578,-1.082031 0.737182,-0.459 1.397445,-1.029422 1.960937,-1.697266 l 0.002,-0.002 0.002,-0.002 c 0.59333,-0.718975 1.054302,-1.53743 1.355469,-2.419922 l 0.002,-0.0039 v -0.002 c 0.323575,-0.991378 0.490392,-2.027118 0.476563,-3.078125 v -0.002 c -0.01356,-1.010547 -0.142687,-2.01418 -0.386719,-2.992188 -0.254691,-1.079085 -0.595992,-2.135472 -1.017578,-3.166015 -0.889947,-2.211042 -2.032111,-4.3159 -3.392578,-6.267578 l -0.002,-0.0039 C 33.096283,13.548321 32.37162,12.62432 31.601562,11.748047 30.878098,10.924102 30.089063,10.160908 29.246094,9.4648438 l -0.0039,-0.00195 C 28.481348,8.8247878 27.645765,8.2811435 26.753906,7.8515625 25.900547,7.4248823 24.960203,7.1989695 24.011719,7.1777344 H 24 Z M 24,8.1796875 c 0.80015,0.019639 1.593982,0.2100765 2.306641,0.5664063 l 0.0039,0.00195 0.0039,0.00195 c 0.817898,0.3933406 1.58767,0.8937524 2.289063,1.482422 h 0.002 v 0.002 c 0.803877,0.663516 1.557861,1.390009 2.246093,2.173828 0.746257,0.849189 1.446017,1.742551 2.087891,2.679688 l 0.002,0.002 v 0.002 c 1.31928,1.892039 2.42701,3.931954 3.289063,6.074219 v 0.002 c 0.402439,0.98374 0.728363,1.992775 0.970703,3.019531 v 0.0039 l 0.002,0.002 c 0.225925,0.9037 0.344853,1.833139 0.357422,2.769532 0.01233,0.937117 -0.134607,1.863751 -0.425781,2.755859 -0.261124,0.762828 -0.663069,1.471318 -1.179688,2.097656 -3.65e-4,4.44e-4 3.66e-4,0.0015 0,0.002 -0.495181,0.585982 -1.07495,1.086947 -1.722656,1.490235 -0.648144,0.40509 -1.341575,0.735106 -2.064453,0.984375 -0.722625,0.24712 -1.464126,0.442881 -2.216797,0.582031 l -0.002,0.002 c -0.732862,0.1402 -1.468719,0.234675 -2.212891,0.298828 -1.244953,0.09658 -2.484022,0.135963 -3.730469,0.123047 H 24 h -0.0059 c -1.246445,0.01292 -2.485515,-0.02647 -3.730469,-0.123047 h -0.0059 c -0.742189,-0.06415 -1.476075,-0.158993 -2.207031,-0.298828 l -0.002,-0.002 c -0.752671,-0.13915 -1.494172,-0.334911 -2.216797,-0.582031 h -0.002 c -0.722273,-0.249201 -1.414856,-0.579598 -2.0625,-0.984375 -0.647706,-0.403288 -1.227475,-0.904253 -1.722656,-1.490235 v -0.002 C 11.528303,31.190068 11.126358,30.481578 10.865234,29.71875 v -0.0039 c -2.88e-4,-8.43e-4 -0.0017,-0.0011 -0.002,-0.002 -0.289913,-0.890307 -0.436131,-1.81493 -0.423828,-2.75 0.01257,-0.936393 0.131497,-1.865832 0.357422,-2.769532 l 0.002,-0.002 v -0.0039 c 0.24234,-1.026756 0.568264,-2.035791 0.970703,-3.019531 v -0.002 c 0.862053,-2.142265 1.969783,-4.18218 3.289063,-6.074219 v -0.002 l 0.002,-0.002 c 0.641874,-0.937137 1.341908,-1.829502 2.09375,-2.677735 l 0.002,-0.002 v -0.002 c 0.680703,-0.78249 1.434404,-1.508359 2.238281,-2.171875 v -0.002 h 0.002 c 0.701393,-0.5886696 1.471075,-1.0898464 2.296875,-1.4902345 h 0.002 v -0.00195 C 22.410479,8.3886102 23.19997,8.199324 24,8.1796875 Z m -0.01758,0.9589844 c -0.653468,0.022027 -1.285655,0.1843018 -1.869141,0.46875 -0.755109,0.3639721 -1.463573,0.8180141 -2.105469,1.3632811 -0.764726,0.631054 -1.4819,1.329361 -2.132812,2.074219 -0.724754,0.824577 -1.403697,1.690221 -2.023437,2.589844 -1.28236,1.841055 -2.353744,3.815624 -3.191407,5.896484 -0.380871,0.935709 -0.694723,1.900884 -0.929687,2.886719 -0.205415,0.835353 -0.316411,1.695592 -0.330078,2.55664 v 0.002 0.002 c -0.007,0.825349 0.118982,1.646009 0.378906,2.425781 l 0.002,0.002 c 0.221649,0.650646 0.558227,1.260424 0.998047,1.787109 0.429416,0.5153 0.940162,0.948927 1.496094,1.300782 h 0.002 l 0.002,0.002 c 0.585581,0.365127 1.208223,0.662937 1.865234,0.884765 0.678163,0.237357 1.374272,0.420045 2.078125,0.548828 0.699527,0.134525 1.40921,0.226927 2.111328,0.28711 h 0.002 0.0039 c 1.224034,0.09263 2.441744,0.132376 3.666015,0.11914 1.220322,0.01286 2.434172,-0.02681 3.654297,-0.11914 h 0.0039 0.002 c 0.702119,-0.06018 1.411801,-0.152585 2.111328,-0.28711 0.701835,-0.128413 1.395938,-0.31051 2.072265,-0.546875 0.65917,-0.222035 1.283774,-0.520506 1.871094,-0.886718 l 0.002,-0.002 h 0.002 c 0.555932,-0.351855 1.066678,-0.785482 1.496094,-1.300782 0.43982,-0.526685 0.776398,-1.136463 0.998047,-1.787109 l 0.002,-0.002 c 0.259929,-0.779787 0.385858,-1.600466 0.378906,-2.425781 v -0.002 -0.002 c -0.01367,-0.861048 -0.124663,-1.721287 -0.330078,-2.55664 -0.234964,-0.985835 -0.548816,-1.95101 -0.929687,-2.886719 v -0.002 c -0.837568,-2.080273 -1.909376,-4.053948 -3.191407,-5.894531 l -0.002,-0.0039 C 31.527398,14.732498 30.84881,13.868425 30.125,13.044922 29.474088,12.300064 28.756914,11.601757 27.992187,10.970703 l -0.0059,-0.0039 C 27.345849,10.423561 26.639251,9.9706196 25.878906,9.6074219 25.29956,9.3220955 24.663625,9.1606966 24.017578,9.1386719 H 24 Z M 24,10.142578 c 0.497423,0.01954 0.991958,0.142367 1.439453,0.363281 l 0.0039,0.002 0.002,0.002 c 0.688809,0.32889 1.326289,0.73693 1.900391,1.224609 l 0.002,0.002 0.0039,0.002 c 0.724367,0.597284 1.40322,1.259581 2.019532,1.964844 h 0.002 c 0.700558,0.796965 1.354784,1.632323 1.951172,2.498047 l 0.002,0.002 c 1.240925,1.781017 2.276094,3.689419 3.085937,5.701172 v 0.002 c 0.363817,0.893586 0.664143,1.811273 0.886719,2.746094 v 0.002 0.002 c 0.186979,0.760377 0.288289,1.546982 0.300781,2.333984 0.0056,0.715465 -0.105329,1.423984 -0.328125,2.09375 -0.18364,0.539071 -0.460851,1.040914 -0.818359,1.46875 v 0.002 c -0.354784,0.425741 -0.785289,0.789953 -1.261719,1.091797 -0.524458,0.327016 -1.076747,0.590594 -1.660156,0.78711 l -0.002,0.002 h -0.0039 c -0.628623,0.220018 -1.27646,0.390069 -1.931641,0.509765 l -0.002,0.002 h -0.0039 c -0.66077,0.127071 -1.336555,0.215901 -2.007813,0.273437 -1.193744,0.09017 -2.380687,0.128137 -3.574219,0.115234 H 24 h -0.0059 c -1.193532,0.0129 -2.380475,-0.02506 -3.574219,-0.115234 h -0.0059 c -0.669363,-0.05756 -1.343076,-0.14673 -2.001953,-0.273437 h -0.0039 l -0.002,-0.002 c -0.655181,-0.119696 -1.303018,-0.289747 -1.931641,-0.509765 h -0.0039 l -0.002,-0.002 c -0.582583,-0.196238 -1.134407,-0.458782 -1.658203,-0.785157 l -0.002,-0.002 c -0.47643,-0.301844 -0.906935,-0.666056 -1.261719,-1.091797 v -0.002 c -0.357508,-0.427836 -0.634719,-0.929679 -0.818359,-1.46875 -0.222801,-0.669782 -0.33377,-1.378319 -0.328125,-2.09375 v -0.002 c 5e-6,-6.51e-4 -6e-6,-0.0013 0,-0.002 0.01276,-0.785707 0.11411,-1.570953 0.300781,-2.330078 v -0.002 -0.002 c 0.222576,-0.934821 0.522902,-1.852508 0.886719,-2.746094 v -0.002 c 0.809843,-2.011753 1.845012,-3.920155 3.085937,-5.701172 l 0.002,-0.002 c 0.596388,-0.865724 1.250614,-1.701082 1.951172,-2.498047 h 0.002 c 0.616312,-0.705263 1.295165,-1.36756 2.019531,-1.964844 l 0.0039,-0.002 0.002,-0.002 c 0.574102,-0.487679 1.211419,-0.897427 1.894531,-1.226562 h 0.002 C 23.008168,10.284837 23.495888,10.162129 24,10.142578 Z m 0.04297,3.902344 v 1 l -0.04883,-0.998047 c -0.142581,0.01383 -0.278952,0.08174 -0.375,0.177734 l 0.0078,-0.0078 c -2.068093,1.993642 -4.476064,3.359773 -6.820312,4.105469 h -0.0039 l -0.0039,0.002 c -0.133626,0.04475 -0.258856,0.141731 -0.337891,0.279297 -0.440767,0.756738 -0.677688,1.772299 -0.769531,2.833984 -0.09201,1.063026 -0.03248,2.165683 0.240235,3.078125 0.05959,0.199771 0.212824,0.351041 0.40625,0.412109 l 0.0039,0.002 h 0.0039 c 0.193979,0.05786 0.402964,0.01682 0.560547,-0.107421 l 0.0039,-0.002 0.002,-0.002 c 1.602957,-1.300853 5.777713,-3.212982 8.423828,-9.929687 0.07382,-0.187855 0.04977,-0.404274 -0.06641,-0.574219 -0.115352,-0.168515 -0.308007,-0.269531 -0.509765,-0.269531 h -0.705079 -0.0098 z m 2.625,0.208984 -0.525391,0.02539 c -0.001,5e-5 -9.38e-4,0.0019 -0.002,0.002 -0.273672,0.01496 -0.506777,0.209738 -0.568359,0.476563 -1.267589,5.385003 -2.75789,10.457231 -6.171875,13.609374 -0.127412,0.117093 -0.197868,0.27714 -0.201172,0.44336 v 0.0059 0.0059 c 0,0.166033 0.07067,0.33132 0.195312,0.449218 v 0.002 h 0.002 c 1.553647,1.451721 3.771423,1.649998 6.150391,1.339844 0.220454,-0.02848 0.406637,-0.173784 0.490234,-0.371094 2.60828,-6.162967 2.429085,-11.720659 0.701172,-15.595703 h -0.002 c -0.01174,-0.02612 -0.05323,-0.0171 -0.06836,-0.04101 z m -2.566407,0.851563 c -2.334213,5.428116 -5.368895,7.131001 -7.257812,8.507812 -0.115996,-0.650869 -0.220561,-1.346871 -0.15625,-2.089844 0.08036,-0.928919 0.316287,-1.787356 0.615234,-2.333984 2.350438,-0.778724 4.720584,-2.139704 6.798828,-4.083984 z m 4.207032,0.125 c -0.02426,-0.0015 -0.05042,-8.79e-4 -0.07813,0.002 -0.20494,0.02057 -0.388063,0.143613 -0.482422,0.322266 -0.09976,0.188257 -0.09598,0.40499 0.002,0.583984 l -0.0039,-0.0078 c 1.840193,3.48198 2.145774,7.224338 2.28125,10.824219 0.01034,0.297448 0.241987,0.549677 0.533203,0.589844 h 0.002 0.0039 c 0.290262,0.03673 0.576519,-0.145374 0.666016,-0.423828 l 0.002,-0.002 v -0.002 c 0.524753,-1.67002 1.215144,-3.482981 1.101562,-5.480468 -0.113615,-1.998781 -1.087886,-4.116187 -3.644531,-6.263672 -0.108139,-0.0932 -0.244294,-0.138324 -0.382812,-0.142578 z m -2.128907,0.980468 c 1.168632,3.46425 1.185915,8.13458 -0.990234,13.41211 -1.972617,0.226117 -3.599156,-0.01206 -4.779297,-0.921875 3.144952,-3.140463 4.597359,-7.714429 5.769531,-12.490235 z m 3.378907,1.666016 c 1.059065,1.331932 1.708723,2.611147 1.777343,3.818359 0.06209,1.091916 -0.18165,2.167878 -0.490234,3.242188 -0.151514,-2.328092 -0.433102,-4.699633 -1.287109,-7.060547 z"
     id="path7" />
</svg>
