<?xml version="1.0" encoding="UTF-8" standalone="no"?>
<!-- Generator: Gravit.io -->

<svg
   style="isolation:isolate"
   viewBox="0 0 48 48"
   width="48pt"
   height="48pt"
   version="1.1"
   id="svg16"
   sodipodi:docname="distributor-logo-ubuntu-studio.svg"
   inkscape:version="1.1.2 (0a00cf5339, 2022-02-04)"
   xmlns:inkscape="http://www.inkscape.org/namespaces/inkscape"
   xmlns:sodipodi="http://sodipodi.sourceforge.net/DTD/sodipodi-0.dtd"
   xmlns:xlink="http://www.w3.org/1999/xlink"
   xmlns="http://www.w3.org/2000/svg"
   xmlns:svg="http://www.w3.org/2000/svg">
  <defs
     id="defs20">
    <linearGradient
       inkscape:collect="always"
       xlink:href="#_lgradient_37"
       id="linearGradient872"
       x1="-12.025727"
       y1="6.1170783"
       x2="-0.085100174"
       y2="6.1170783"
       gradientUnits="userSpaceOnUse"
       gradientTransform="matrix(3.8358211,0,0,3.8371386,-0.00544341,-0.00268054)" />
    <linearGradient
       id="_lgradient_1"
       x1="0.18336116"
       y1="0.24917752"
       x2="0.9027437"
       y2="0.90347725"
       gradientTransform="matrix(24.617266,0,0,24.816118,10.841288,10.089605)"
       gradientUnits="userSpaceOnUse">
      <stop
         offset="2.608695652173913%"
         stop-opacity="1"
         style="stop-color:rgb(179,255,171)"
         id="stop2-3" />
      <stop
         offset="98.69565217391305%"
         stop-opacity="1"
         style="stop-color:rgb(18,255,247)"
         id="stop4-6" />
    </linearGradient>
    <linearGradient
       inkscape:collect="always"
       xlink:href="#_lgradient_37"
       id="linearGradient15"
       x1="-9.6850061"
       y1="45.161198"
       x2="11.98815"
       y2="21.735205"
       gradientUnits="userSpaceOnUse"
       gradientTransform="matrix(1.1147442,0,0,1.1150348,-0.01237238,-3.3277956)" />
    <linearGradient
       inkscape:collect="always"
       xlink:href="#_lgradient_36"
       id="linearGradient1339"
       x1="9.5013113"
       y1="23.998243"
       x2="34.490574"
       y2="23.998243"
       gradientUnits="userSpaceOnUse" />
  </defs>
  <sodipodi:namedview
     id="namedview18"
     pagecolor="#ffffff"
     bordercolor="#666666"
     borderopacity="1.0"
     inkscape:pageshadow="2"
     inkscape:pageopacity="0.0"
     inkscape:pagecheckerboard="0"
     inkscape:document-units="pt"
     showgrid="false"
     inkscape:zoom="5.109375"
     inkscape:cx="32"
     inkscape:cy="32"
     inkscape:window-width="1056"
     inkscape:window-height="545"
     inkscape:window-x="224"
     inkscape:window-y="77"
     inkscape:window-maximized="0"
     inkscape:current-layer="svg16" />
  <linearGradient
     id="_lgradient_36"
     x1="16.515033"
     y1="22.42064"
     x2="37.999881"
     y2="22.42064"
     gradientTransform="matrix(0.77837065,0,0,0.89189344,3.668905,4.002887)"
     gradientUnits="userSpaceOnUse">
    <stop
       offset="0%"
       stop-opacity="1"
       style="stop-color:rgb(0,198,255)"
       id="stop2" />
    <stop
       offset="98.69565217391305%"
       stop-opacity="1"
       style="stop-color:rgb(0,114,255)"
       id="stop4" />
  </linearGradient>
  <rect
     x="-46.783188"
     y="1.2253767"
     height="45.80014"
     rx="6.1837621"
     shape-rendering="crispEdges"
     id="rect5-6-7-3"
     ry="6.8055277"
     transform="matrix(0.00524063,-0.99998627,0.99998801,0.00489691,0,0)"
     style="isolation:isolate;fill:#00cfff;fill-opacity:0.13470298;stroke:url(#linearGradient872);stroke-width:2.0301;stroke-miterlimit:4;stroke-dasharray:none;stroke-opacity:1"
     width="45.801998" />
  <rect
     x="-15.686804"
     y="17.260084"
     height="33.345856"
     rx="6.7920032"
     shape-rendering="crispEdges"
     id="rect5-6-6-6-6"
     style="isolation:isolate;fill:#00cfff;fill-opacity:0.13470298;stroke:url(#linearGradient15);stroke-width:1.67233;stroke-miterlimit:4;stroke-dasharray:none;stroke-opacity:1"
     ry="7.4743071"
     transform="matrix(0.72446484,-0.68931175,0.68622417,0.72739012,0,0)"
     width="33.338203" />
  <linearGradient
     id="_lgradient_37"
     x1="-0.000038208333333289435"
     y1="0.5000000833333331"
     x2="0.9999618333333335"
     y2="0.5000000833333331"
     gradientTransform="matrix(37.132966,0,0,37.075363,5.0297779,5.5025861)"
     gradientUnits="userSpaceOnUse">
    <stop
       offset="0%"
       stop-opacity="1"
       style="stop-color:rgb(0,198,255)"
       id="stop9" />
    <stop
       offset="98.69565217391305%"
       stop-opacity="1"
       style="stop-color:rgb(0,114,255)"
       id="stop11" />
  </linearGradient>
  <path
     style="color:#000000;fill:url(#linearGradient1339);-inkscape-stroke:none"
     d="m 26.994141,9.7148438 c -0.453286,-0.1046043 -0.926214,-0.020298 -1.316407,0.2207031 -0.399073,0.2464871 -0.675733,0.6384811 -0.78125,1.0839841 l -0.002,0.002 v 0.002 c -0.105025,0.455108 -0.0226,0.930296 0.220703,1.324218 l 0.002,0.002 0.002,0.0039 c 0.240941,0.378621 0.621578,0.670632 1.083984,0.777343 2.20778,0.510101 4.209204,1.690329 5.732422,3.373047 l 0.002,0.002 0.002,0.002 c 0.309888,0.332843 0.741619,0.544997 1.208984,0.56836 0.463564,0.02318 0.918116,-0.141345 1.259766,-0.457031 0.346877,-0.313871 0.549393,-0.751414 0.572266,-1.208985 0.02365,-0.46116 -0.141513,-0.913528 -0.453125,-1.259765 l -0.002,-0.002 C 32.524299,11.940337 29.902324,10.396127 26.996094,9.7148438 Z m -0.226563,0.9746092 c 2.709538,0.635174 5.15262,2.072976 7.017578,4.13086 0.13711,0.153392 0.204949,0.351146 0.195313,0.539062 -0.01037,0.207493 -0.09124,0.383676 -0.242188,0.519531 l -0.0039,0.0039 -0.002,0.002 c -0.141091,0.131359 -0.334294,0.201449 -0.535156,0.191406 -0.199192,-0.01 -0.385349,-0.09958 -0.525391,-0.25 l 0.0039,0.0059 c -1.659605,-1.833386 -3.839899,-3.119386 -6.248047,-3.675781 -0.186089,-0.04294 -0.351862,-0.168572 -0.460937,-0.337891 -0.104991,-0.171965 -0.14231,-0.376812 -0.09766,-0.570312 0.04477,-0.187129 0.166944,-0.359719 0.333984,-0.462891 0.175791,-0.108577 0.368524,-0.140399 0.564453,-0.0957 z m -2.144531,3.273438 c -2.944647,-0.279726 -5.925974,0.748238 -8.085938,2.908203 -0.679237,0.679165 -0.679237,1.795444 0,2.474609 0.679165,0.679237 1.795445,0.679237 2.47461,0 1.886563,-1.886563 4.708828,-2.446872 7.173828,-1.425781 2.465184,1.021168 4.0625,3.411554 4.0625,6.080078 0,2.668527 -1.597316,5.05891 -4.0625,6.080078 -2.465,1.021091 -5.287265,0.460783 -7.173828,-1.425781 -0.679165,-0.679237 -1.795445,-0.679237 -2.47461,0 -0.679238,0.679165 -0.679238,1.795444 0,2.474609 2.880092,2.880093 7.223066,3.744425 10.986328,2.185547 3.763098,-1.558811 6.22461,-5.241055 6.22461,-9.314453 0,-4.073396 -2.461368,-7.757535 -6.22461,-9.316406 -0.940861,-0.389738 -1.918887,-0.627466 -2.90039,-0.720703 z m -0.09375,0.996093 c 0.884021,0.08398 1.763488,0.299186 2.611328,0.650391 3.391319,1.404808 5.607422,4.719896 5.607422,8.390625 0,3.670731 -2.215959,6.983806 -5.607422,8.388672 -3.391548,1.404901 -7.301008,0.628681 -9.896484,-1.966797 -0.297042,-0.29701 -0.297042,-0.763537 0,-1.060547 0.29701,-0.297042 0.763536,-0.297042 1.060546,0 2.169665,2.169666 5.428822,2.818828 8.263672,1.644531 C 29.403274,29.831536 31.248047,27.06851 31.248047,24 c 0,-3.068508 -1.844773,-5.831536 -4.679688,-7.005859 -2.83485,-1.174297 -6.094007,-0.525134 -8.263672,1.644531 -0.29701,0.297042 -0.763536,0.297042 -1.060546,0 -0.297042,-0.29701 -0.297042,-0.763537 0,-1.060547 1.946711,-1.946713 4.633233,-2.871059 7.285156,-2.619141 z M 23.666016,18.5 c -1.454995,0 -2.857003,0.576505 -3.884766,1.611328 -6.54e-4,6.49e-4 -0.0013,0.0013 -0.002,0.002 -6.49e-4,6.54e-4 -0.0013,0.0013 -0.002,0.002 -1.034823,1.027763 -1.611328,2.429773 -1.611328,3.884766 0,1.454995 0.576505,2.857004 1.611328,3.884766 6.48e-4,6.54e-4 0.0013,0.0013 0.002,0.002 6.54e-4,6.49e-4 0.0013,0.0013 0.002,0.002 1.027763,1.034824 2.429771,1.611328 3.884766,1.611328 1.454993,0 2.857002,-0.576504 3.884765,-1.611328 l 0.002,-0.002 C 28.588793,26.85878 29.166016,25.455914 29.166016,24 c 0,-1.454993 -0.576504,-2.857003 -1.611329,-3.884766 l -0.002,-0.002 C 26.524795,19.077223 25.121928,18.5 23.666016,18.5 Z m -11.863282,0.08594 c -0.443547,-0.125108 -0.922381,-0.0798 -1.332031,0.142579 -0.406787,0.220826 -0.7122284,0.592993 -0.8417967,1.039062 -1.472e-4,5.07e-4 1.466e-4,0.0014 0,0.002 C 9.2069279,21.141653 9.0019531,22.571373 9.0019531,24 c 0,1.428629 0.2049748,2.858347 0.6269532,4.230469 1.466e-4,5.07e-4 -1.472e-4,0.0014 0,0.002 0.1295699,0.446065 0.4350087,0.818232 0.8417967,1.039062 0.409657,0.222388 0.888149,0.267985 1.328125,0.140625 h 0.0039 l 0.0039,-0.002 c 0.443181,-0.136363 0.818464,-0.440453 1.033203,-0.853515 0.219884,-0.40846 0.267428,-0.884209 0.140625,-1.322266 v -0.002 l -0.002,-0.0039 C 12.659463,26.175643 12.5,25.092822 12.5,24 c 0,-1.092821 0.159463,-2.177597 0.478516,-3.230469 l 0.002,-0.002 v -0.0039 c 0.126814,-0.438066 0.07925,-0.911861 -0.140625,-1.320313 -0.214702,-0.413017 -0.58625,-0.716078 -1.021485,-0.853515 l -0.0078,-0.002 z M 23.666016,19.5 c 1.192744,0 2.339479,0.472621 3.177734,1.318359 l 0.002,0.002 0.002,0.002 c 0.845739,0.838255 1.31836,1.98499 1.31836,3.177734 0,1.192746 -0.472621,2.33948 -1.31836,3.177734 l -0.002,0.002 -0.002,0.002 C 26.005495,28.027379 24.858759,28.5 23.666016,28.5 c -1.192745,0 -2.339479,-0.472621 -3.177735,-1.318359 l -0.002,-0.002 -0.002,-0.002 C 19.638637,26.33948 19.166016,25.192746 19.166016,24 c 0,-1.192744 0.472621,-2.339479 1.318359,-3.177734 l 0.002,-0.002 0.002,-0.002 C 21.326537,19.972621 22.473271,19.5 23.666016,19.5 Z m -12.142578,0.04883 c 0.192357,0.06273 0.348845,0.19068 0.433593,0.355469 l 0.002,0.0039 0.002,0.0059 c 0.09423,0.17359 0.116488,0.379023 0.06055,0.572266 C 11.675106,21.631353 11.5,22.811794 11.5,24 c 0,1.190147 0.173976,2.372755 0.521484,3.519531 0.05384,0.191538 0.03273,0.394582 -0.06055,0.566406 l -0.002,0.0039 -0.002,0.0059 c -0.08476,0.164803 -0.238787,0.291745 -0.439453,0.355469 -0.192682,0.05523 -0.397316,0.03532 -0.570312,-0.05859 -0.175998,-0.09554 -0.303437,-0.254911 -0.357422,-0.441406 l -0.002,-0.0039 v -0.0039 C 10.194936,26.668261 10.001953,25.334921 10.001953,24 c 0,-1.334919 0.192983,-2.668261 0.585938,-3.943359 v -0.0039 l 0.002,-0.0059 c 0.05398,-0.186491 0.18143,-0.343915 0.357422,-0.439453 0.17129,-0.09299 0.372624,-0.113927 0.576172,-0.05859 z m 4.503906,0.693359 c -0.449819,-0.118373 -0.925236,-0.048 -1.322266,0.185547 h -0.002 l -0.002,0.002 c -0.40331,0.241986 -0.685485,0.630233 -0.800781,1.06836 V 21.5 c -0.210701,0.816444 -0.316407,1.658464 -0.316407,2.5 0,0.84154 0.105711,1.683559 0.316407,2.5 v 0.002 c 0.115296,0.438127 0.397471,0.826374 0.800781,1.068359 h 0.002 l 0.002,0.002 c 0.397022,0.233531 0.87244,0.303921 1.322266,0.185546 0.45274,-0.116535 0.836387,-0.407011 1.070312,-0.804687 0.23288,-0.395889 0.30231,-0.872164 0.1875,-1.324219 C 17.153304,25.101492 17.083984,24.549319 17.083984,24 c 0,-0.54802 0.06992,-1.098718 0.201172,-1.625 v -0.002 c 0.11551,-0.452642 0.04571,-0.929713 -0.1875,-1.326172 -0.233721,-0.397328 -0.618086,-0.687949 -1.070312,-0.804688 z M 23.666016,21 c -0.800229,0 -1.56202,0.319834 -2.121094,0.878906 -0.559075,0.559075 -0.878906,1.320866 -0.878906,2.121094 0,0.800229 0.319831,1.562019 0.878906,2.121094 0.559444,0.559442 1.321597,0.876953 2.121094,0.876953 0.799495,0 1.561649,-0.31751 2.121093,-0.876953 C 26.346554,25.561649 26.664063,24.799497 26.664062,24 26.664063,23.200505 26.346555,22.438351 25.787109,21.878906 25.228035,21.319833 24.466244,21 23.666016,21 Z m -7.892578,0.208984 h 0.002 c 0.196469,0.05038 0.361858,0.175315 0.460937,0.34375 0.09973,0.169545 0.130506,0.375597 0.08008,0.572266 v 0.002 l -0.002,0.002 C 16.163019,22.734646 16.083984,23.366175 16.083984,24 c 0,0.633828 0.07904,1.265355 0.230469,1.871094 l 0.002,0.002 c 0.05043,0.196671 0.01965,0.402724 -0.08008,0.572265 -0.09908,0.168436 -0.264468,0.293374 -0.460937,0.34375 v 0.002 h -0.002 c -0.182782,0.0481 -0.389358,0.01688 -0.558594,-0.08203 h -0.002 C 15.036299,26.60133 14.91826,26.442572 14.867188,26.25 v -0.002 C 14.678268,25.515321 14.583984,24.757559 14.583984,24 c 0,-0.757558 0.09428,-1.515324 0.283204,-2.248047 V 21.75 c 0.05131,-0.193489 0.169639,-0.353273 0.347656,-0.460938 0.169228,-0.09891 0.375805,-0.12818 0.558594,-0.08008 z M 23.666016,22 c 0.53289,0 1.038,0.213782 1.412109,0.587891 0.37374,0.37374 0.585937,0.878485 0.585937,1.412109 10e-7,0.533626 -0.212197,1.038369 -0.585937,1.412109 -0.373739,0.373739 -0.878486,0.585938 -1.412109,0.585938 -0.533625,0 -1.038369,-0.212199 -1.41211,-0.585938 -0.37411,-0.37411 -0.58789,-0.879216 -0.58789,-1.412109 0,-0.532891 0.21378,-1.037999 0.58789,-1.412109 C 22.628017,22.213782 23.133124,22 23.666016,22 Z m 9.490234,8.916016 c -0.467362,0.02337 -0.897143,0.233565 -1.207031,0.566406 l -0.0039,0.0039 -0.002,0.002 c -1.52306,1.69052 -3.524049,2.870659 -5.740234,3.38086 h -0.002 -0.002 c -0.445511,0.105515 -0.8375,0.384132 -1.083985,0.783203 -0.242597,0.392791 -0.325702,0.872228 -0.208984,1.332031 0.106265,0.443688 0.378345,0.829719 0.765625,1.076172 l 0.002,0.002 0.0039,0.002 c 0.392792,0.242598 0.872229,0.325703 1.332032,0.208984 2.90554,-0.673813 5.53346,-2.225029 7.533203,-4.43164 l 0.0039,-0.0039 0.0039,-0.0039 c 0.298922,-0.344906 0.460779,-0.794078 0.4375,-1.259765 v -0.002 c -0.02304,-0.44926 -0.218532,-0.888317 -0.574219,-1.201172 -0.34144,-0.314531 -0.795125,-0.478207 -1.257812,-0.455078 z m 0.04883,0.998046 c 0.200873,-0.01004 0.39407,0.06005 0.535156,0.191407 l 0.0059,0.0059 0.0078,0.0059 c 0.138397,0.119945 0.226236,0.309051 0.236328,0.50586 0.01,0.199396 -0.06092,0.398205 -0.193359,0.552734 -1.86422,2.054556 -4.314422,3.500845 -7.019531,4.126953 h -0.0059 l -0.0059,0.002 c -0.187617,0.04811 -0.386718,0.01313 -0.558594,-0.0918 C 26.047413,37.109856 25.921079,36.936308 25.876953,36.75 l -0.002,-0.0059 v -0.0039 c -0.04844,-0.188896 -0.01484,-0.389839 0.0918,-0.5625 0.103171,-0.167039 0.273815,-0.289215 0.460937,-0.333984 2.413693,-0.55567 4.592883,-1.840749 6.251953,-3.679688 0.14004,-0.150412 0.326193,-0.24004 0.525391,-0.25 z"
     id="path1279" />
</svg>
