<?xml version="1.0" encoding="UTF-8" standalone="no"?>
<!-- Generator: Gravit.io -->

<svg
   style="isolation:isolate"
   viewBox="0 0 48 48"
   width="48pt"
   height="48pt"
   version="1.1"
   id="svg9"
   sodipodi:docname="distributor-logo-debian.svg"
   inkscape:version="1.1.2 (0a00cf5339, 2022-02-04)"
   xmlns:inkscape="http://www.inkscape.org/namespaces/inkscape"
   xmlns:sodipodi="http://sodipodi.sourceforge.net/DTD/sodipodi-0.dtd"
   xmlns:xlink="http://www.w3.org/1999/xlink"
   xmlns="http://www.w3.org/2000/svg"
   xmlns:svg="http://www.w3.org/2000/svg">
  <defs
     id="defs13">
    <linearGradient
       inkscape:collect="always"
       xlink:href="#_lgradient_22"
       id="linearGradient872"
       x1="-12.025727"
       y1="6.1170783"
       x2="-0.085100174"
       y2="6.1170783"
       gradientUnits="userSpaceOnUse"
       gradientTransform="matrix(3.8358211,0,0,3.8371386,-0.00544341,-0.00268054)" />
    <linearGradient
       id="_lgradient_1"
       x1="0.18336116"
       y1="0.24917752"
       x2="0.9027437"
       y2="0.90347725"
       gradientTransform="matrix(24.617266,0,0,24.816118,10.841288,10.089605)"
       gradientUnits="userSpaceOnUse">
      <stop
         offset="2.608695652173913%"
         stop-opacity="1"
         style="stop-color:rgb(179,255,171)"
         id="stop2-3" />
      <stop
         offset="98.69565217391305%"
         stop-opacity="1"
         style="stop-color:rgb(18,255,247)"
         id="stop4-6" />
    </linearGradient>
    <linearGradient
       inkscape:collect="always"
       xlink:href="#_lgradient_22"
       id="linearGradient15"
       x1="-9.6850061"
       y1="45.161198"
       x2="11.98815"
       y2="21.735205"
       gradientUnits="userSpaceOnUse"
       gradientTransform="matrix(1.1147442,0,0,1.1150348,-0.01237238,-3.3277956)" />
    <linearGradient
       inkscape:collect="always"
       xlink:href="#_lgradient_22"
       id="linearGradient858"
       x1="12.054991"
       y1="24.000002"
       x2="35.945004"
       y2="24.000002"
       gradientUnits="userSpaceOnUse" />
  </defs>
  <sodipodi:namedview
     id="namedview11"
     pagecolor="#ffffff"
     bordercolor="#666666"
     borderopacity="1.0"
     inkscape:pageshadow="2"
     inkscape:pageopacity="0.0"
     inkscape:pagecheckerboard="0"
     inkscape:document-units="pt"
     showgrid="false"
     inkscape:zoom="5.109375"
     inkscape:cx="32"
     inkscape:cy="32.097859"
     inkscape:window-width="1600"
     inkscape:window-height="836"
     inkscape:window-x="0"
     inkscape:window-y="0"
     inkscape:window-maximized="1"
     inkscape:current-layer="svg9" />
  <linearGradient
     id="_lgradient_22"
     x1="0"
     y1="0.5"
     x2="1"
     y2="0.5"
     gradientTransform="matrix(23.890014,0,0,31.057721,12.054993,8.4714906)"
     gradientUnits="userSpaceOnUse">
    <stop
       offset="0%"
       stop-opacity="1"
       style="stop-color:rgb(242,55,239)"
       id="stop2" />
    <stop
       offset="98.69565217391305%"
       stop-opacity="1"
       style="stop-color:rgb(252,82,82)"
       id="stop4" />
  </linearGradient>
  <rect
     x="-46.783188"
     y="1.2253767"
     height="45.80014"
     rx="6.1837621"
     shape-rendering="crispEdges"
     id="rect5-6-7-3"
     ry="6.8055277"
     transform="matrix(0.00524063,-0.99998627,0.99998801,0.00489691,0,0)"
     style="isolation:isolate;fill:#ff004c;fill-opacity:0.13470298;stroke:url(#linearGradient872);stroke-width:2.0301;stroke-miterlimit:4;stroke-dasharray:none;stroke-opacity:1"
     width="45.801998" />
  <rect
     x="-15.686804"
     y="17.260084"
     height="33.345856"
     rx="6.7920032"
     shape-rendering="crispEdges"
     id="rect5-6-6-6-6"
     style="isolation:isolate;fill:#ff004c;fill-opacity:0.13470298;stroke:url(#linearGradient15);stroke-width:1.67233;stroke-miterlimit:4;stroke-dasharray:none;stroke-opacity:1"
     ry="7.4743071"
     transform="matrix(0.72446484,-0.68931175,0.68622417,0.72739012,0,0)"
     width="33.338203" />
  <path
     style="color:#000000;fill:url(#linearGradient858);-inkscape-stroke:none"
     d="m 23.603516,7.9726562 c -0.452854,0.028672 -0.919575,0.1522941 -1.208985,0.2089844 -0.144705,0.028345 -0.294793,0.00486 -0.148437,0.035156 0.03659,0.00757 0.107676,0.022118 0.197265,0.1035156 0.08959,0.081398 0.15605,0.248435 0.152344,0.3574219 -0.0074,0.2179736 -0.07208,0.2184114 -0.06055,0.2050781 L 21.945312,8.1035156 c -1.009648,0.4705156 -2.705119,1.1869578 -4.046875,2.1875004 l -0.0918,-0.6386722 -0.722657,0.9023442 c -0.211494,0.264896 -0.836297,0.818356 -1.414062,1.386718 -0.460661,0.453164 -0.794503,0.946079 -1.027344,1.484375 l -0.248047,0.06055 -0.105468,0.1875 c -0.320255,0.566604 -0.511494,1.155779 -0.72461,1.650391 -0.04963,0.08431 -0.0723,0.10916 -0.08984,0.128906 -3.52e-4,-0.008 -0.002,-0.04687 -0.002,-0.04687 0,0 -0.292968,0.111328 -0.292968,0.111328 0,0 -0.132813,0.166016 -0.132813,0.166016 0,0 -0.0058,0.04157 -0.0078,0.05859 -0.759607,1.617077 -1.144313,2.986741 -1.462891,4.072265 l -0.06445,0.21875 0.123047,0.191406 c -0.06482,-0.101288 0.0083,0.05256 0.01953,0.267578 0.01124,0.215018 0.0082,0.511417 0,0.845704 -0.01594,0.652323 -0.04645,1.451472 -0.0059,2.195312 -3.5e-5,6.57e-4 3.4e-5,0.0013 0,0.002 -0.389392,7.373094 4.850506,14.444126 10.773437,16.134766 0.98161,0.362671 2.222867,0.327781 3.25,0.357422 l 0.158203,-0.978516 c -0.643627,-0.192319 -1.035115,-0.248777 -1.371094,-0.304687 -0.32661,-0.05435 -0.622286,-0.113254 -1.166015,-0.308594 -0.363705,-0.182275 -0.568191,-0.356416 -0.773438,-0.572266 -0.209748,-0.220584 -0.425423,-0.500457 -0.767578,-0.810547 l -0.238281,0.1875 c -0.150478,-0.07537 -0.377225,-0.168178 -0.458985,-0.236328 -0.05042,-0.04202 -0.245975,-0.118051 -0.333984,-0.175781 l 0.451172,-0.615234 -0.894531,-0.07031 c 0.06048,0.0048 -0.192749,-0.09099 -0.386719,-0.269531 -0.19397,-0.178546 -0.378603,-0.428634 -0.414063,-0.501953 l -0.142578,-0.294922 -0.455078,0.01953 C 18.559497,34.630767 18.327433,34.208563 18.332031,34.125 l -0.240234,-0.06836 c -0.08865,-0.14733 -0.186969,-0.277028 -0.339844,-0.490235 -0.169812,-0.236827 -0.369187,-0.519427 -0.53125,-0.767578 -0.162063,-0.24815 -0.287563,-0.509846 -0.283203,-0.494141 0.0011,0.0039 0.02036,0.02994 0.002,0.134766 -0.01841,0.104832 -0.168546,0.30736 -0.314453,0.351563 -0.101206,0.03066 -0.119299,0.0107 -0.150391,0.002 l 0.572266,-0.769532 c -0.152336,-0.144656 -0.23054,-0.256913 -0.322266,-0.355468 L 16.892578,31.46875 16.65625,31.152344 c -0.02521,-0.03395 -0.04158,-0.07204 -0.06641,-0.107422 l 0.304687,0.107422 -0.390625,-1.013672 c -0.283244,-0.734067 -0.4992,-1.141562 -0.75,-1.417969 -0.250799,-0.276406 -0.623861,-0.367271 -0.757812,-0.380859 -0.133952,-0.01359 0.01574,0.0629 -0.04297,-0.01172 -0.02543,-0.03232 -0.123026,-0.320363 -0.181641,-0.449219 l 0.320313,-0.02539 -0.439453,-0.699219 c -0.07699,-0.122376 -0.149993,-0.303182 -0.234375,-0.490235 L 14.5,25.802734 14.367188,25.642578 c -0.185002,-0.223027 -0.331147,-1.169627 -0.275391,-2.240234 0.05531,-1.061962 0.221071,-2.23462 0.28125,-3.115235 0.05238,-0.453777 0.599748,-1.230855 1.066406,-2.451172 l 0.216797,-0.564453 -0.03516,-0.0059 c 0.330776,-0.456717 0.67151,-0.95202 1.230468,-1.507812 0.387723,-0.385527 0.791597,-0.733972 1.138672,-0.962891 0.347076,-0.228919 0.639506,-0.299693 0.691407,-0.292969 l 0.287109,0.03711 0.173828,-0.228516 c 0.0701,-0.09195 0.122339,-0.162314 0.164063,-0.222656 0.04172,-0.06034 0.07142,-0.08505 0.117187,-0.207032 0.0108,-0.0288 0.02415,-0.06894 0.03125,-0.132812 0.169571,-0.117451 0.421298,-0.371539 0.539063,-0.404297 0.239419,-0.0666 0.550696,-0.03397 1.041015,-0.175781 l 0.06641,-0.01953 0.05859,-0.03711 c 0.115424,-0.07151 0.191481,-0.120388 0.265625,-0.179687 0.03707,-0.02965 0.07181,-0.04791 0.138672,-0.146485 0.01672,-0.02464 0.03611,-0.05649 0.05469,-0.103515 0.0093,-0.02352 0.01851,-0.05101 0.02539,-0.08399 0.0048,-0.0229 0.0062,-0.05378 0.0078,-0.08008 0.13572,-0.08187 0.412926,-0.178165 0.511718,-0.240234 0.173773,-0.109177 0.583001,-0.171061 0.894532,-0.248047 l 0.0957,0.136719 c 0.47848,-0.244911 1.407023,-0.383085 2.398437,-0.324219 0.990772,0.05883 2.05228,0.298501 2.847657,0.681641 0.907875,0.443264 1.946295,1.374541 2.740234,2.515625 0.793939,1.141083 1.34378,2.487013 1.384766,3.734374 l 0.01172,0.365235 0.07031,0.01953 c -0.0077,1.045739 0.119194,2.111847 -0.164063,3.005859 l 0.119141,0.04492 c -0.05208,0.376544 -0.133304,0.730466 -0.294922,1.179688 l -0.376953,0.195312 -0.07422,0.148438 c -0.09837,0.199902 -0.156989,0.350637 -0.1875,0.501953 -0.03051,0.151316 -0.01268,0.316307 0.0039,0.390625 0.01658,0.07432 0.0066,0.03051 0.0078,0.01367 3.94e-4,-0.0056 -0.01391,0.03614 -0.01563,0.04297 -0.04855,0.04527 -0.11976,0.109454 -0.173828,0.160156 l 0.0625,-0.134766 -1.541016,1.103516 c -0.411595,0.294898 -0.601665,0.533787 -0.748047,0.662109 -0.07498,0.06573 -0.289952,0.131214 -0.414062,0.191406 l -0.03906,-0.09375 -0.472656,0.230469 c -1.183584,0.581721 -2.634677,0.306901 -3.816406,-0.568359 -1.181729,-0.87526 -2.044359,-2.322483 -2.021485,-3.984375 l -0.09766,-0.0078 c -0.03018,-1.612832 0.784769,-3.202651 2.152344,-3.845703 l 0.0098,-0.0039 0.0078,-0.0039 c 1.424468,-0.73547 3.088525,-0.423136 4.085938,0.548828 l 0.753906,-0.654297 c -0.01506,-0.02061 -0.04882,-0.03601 -0.06445,-0.05664 l 0.0078,-0.0059 c -0.0085,-0.0083 -0.02271,-0.0074 -0.03125,-0.01563 -0.737211,-0.959338 -2.071261,-1.919763 -3.736328,-1.828125 -1.587323,0.03223 -2.960116,0.987318 -3.582031,2.175781 -0.517946,0.364325 -0.75051,0.924034 -0.91211,1.384766 -0.08312,0.236988 -0.148179,0.453372 -0.205078,0.605469 -0.0569,0.152096 -0.139989,0.227929 -0.05664,0.162109 l -0.160157,0.125 -0.02539,0.201172 c -0.229777,1.762841 -0.01364,3.103719 0.570312,4.207031 0.05504,0.103999 0.183337,0.166064 0.244141,0.265625 l -0.908203,-0.207031 0.517578,0.966797 c 0.655661,1.22599 1.907613,2.217646 3.253906,2.833984 1.254466,0.574299 2.58706,0.785939 3.695313,0.414063 0.02245,-7.95e-4 0.05602,0.01061 0.07813,0.0098 L 28.054687,29.5 c 0.05738,-0.02085 0.129591,0.003 0.185547,-0.02148 l -0.130859,-0.564454 c 1.344952,-0.17538 2.646877,-0.725634 3.816406,-1.703125 0.317703,-0.258558 0.617985,-0.57606 0.859375,-0.824218 0.06035,-0.06204 0.0979,-0.09636 0.148438,-0.146485 l 0.294922,0.169922 c 0.0029,-0.0048 0.003,-0.0069 0.0059,-0.01172 0.0036,-0.0061 0.0023,-0.0096 0.0059,-0.01563 0.142394,-0.243889 0.228609,-0.428949 0.259766,-0.621093 0.0072,-0.04439 -0.0061,-0.04854 -0.0059,-0.08984 l 0.410156,-0.642578 -0.07617,0.0039 0.339844,-0.132812 c -0.02102,-0.145564 0.124887,-0.521245 0.363281,-1.021485 0.06555,-0.137549 0.06247,-0.365238 0.126953,-0.523437 l 0.318359,0.105468 c 0.0053,-0.01443 8.17e-4,-0.01899 0.0059,-0.0332 l 0.0039,0.002 c 0.01927,-0.06609 0.01091,-0.109487 0.02734,-0.173828 0.118425,-0.396595 0.190835,-0.752259 0.18164,-1.001953 -0.0012,-0.03318 -2.36e-4,-0.05931 -0.002,-0.08984 l 0.273438,-0.06445 c -5.34e-4,-0.0023 -0.0014,-0.0036 -0.002,-0.0059 -0.178308,-0.724204 0.196015,-1.149483 0.351562,-1.876953 l 0.08398,-0.392578 -0.365235,-0.167969 c -0.03626,-0.01656 -0.05154,0.0039 -0.08594,-0.0039 -0.01058,-0.07405 -0.02017,-0.107689 -0.02734,-0.242188 0.0024,-0.03787 0.0013,-0.054 0.002,-0.06055 0.0465,-0.04708 0.116916,-0.06352 0.134766,-0.109375 l 0.128906,-0.332031 0.75,-0.166016 c -0.0027,-0.01618 -0.0089,-0.03072 -0.01172,-0.04687 h 0.002 c -0.0012,-0.0044 -0.0085,-0.01892 -0.0098,-0.02344 -0.125738,-0.717092 -0.32278,-1.404942 -0.550782,-2.074219 5.52e-4,-0.0035 0.0072,-0.01227 0.0078,-0.01563 0.0227,-0.133962 0.0094,-0.203571 0.002,-0.285156 -0.0091,-0.100263 -0.02193,-0.185557 -0.03516,-0.277344 l 0.240234,-0.09375 c -0.0093,-0.03563 -0.04291,-0.06214 -0.05273,-0.09766 l 0.01367,-0.0059 c -0.07835,-0.150516 -0.139344,-0.258516 -0.203125,-0.351563 -4.75e-4,-6.93e-4 -0.0015,-0.0013 -0.002,-0.002 -0.772695,-2.30884 -2.556345,-4.32759 -4.388672,-5.414062 -0.0261,-0.02501 -0.05352,-0.056517 -0.07813,-0.080079 l -0.0059,0.00781 c -0.03384,-0.01952 -0.06386,-0.063165 -0.09766,-0.082031 l -0.115234,0.1562504 c -0.007,-0.0068 -0.07568,-0.05361 -0.07813,-0.05664 -0.0098,-0.012207 0.0027,0.01219 -0.0078,-0.015625 -0.01047,-0.027818 -0.03826,-0.117342 -0.0957,-0.2226562 L 30.888672,9.609375 30.728516,9.5410156 C 30.282145,9.3514108 29.900913,9.3395 29.648437,9.4042969 29.418727,9.4632511 29.379952,9.4910548 29.271484,9.4921875 27.992191,8.8100096 27.548708,8.7766214 26.332031,8.3183594 l -0.847656,-0.3203125 0.113281,0.5527344 c -0.165333,0.00323 -0.397418,-0.064167 -0.523437,-0.039063 -0.130007,0.025898 -0.276705,0.013462 -0.390625,0.03125 L 24.65625,8.3515625 c -0.0032,4.391e-4 -0.0027,-4.28e-4 -0.0059,0 -0.400253,0.054533 -0.512565,0.02034 -0.746094,-0.017578 -0.04058,-0.00659 -0.14003,0.016812 -0.1875,0.011719 z m -0.669922,1.1289063 0.125,0.265625 c 0.361077,-0.089919 0.45179,-0.069304 0.615234,-0.042969 0.03202,0.047515 0.0477,0.1202925 0.08008,0.1464843 l 0.111328,0.089844 0.142578,0.017578 c 0.592506,0.071648 0.999602,-0.031769 1.261719,-0.083984 0.262117,-0.052216 0.380482,-0.081663 0.783203,0.058594 l 0.830078,0.2890625 -0.05078,-0.25 c 0.643214,0.2017163 1.128449,0.2901669 2.134766,0.8476561 l 0.101562,0.05664 0.115235,0.0059 c 0.369332,0.01898 0.623725,-0.105521 0.714843,-0.128906 0.0595,-0.01527 0.18251,0.02795 0.28711,0.05664 0.0304,0.06379 0.05504,0.127493 0.111328,0.197265 0.166506,0.206405 0.395906,0.373464 0.882812,0.675781 l 0.21875,0.136719 0.107422,-0.04492 c 1.123265,0.812476 2.076942,1.949549 2.798828,3.292969 L 34.25,15.347656 c -0.08525,0.0022 -0.164155,-0.01196 -0.28125,0.0625 -0.172371,0.109607 -0.262272,0.315032 -0.28125,0.457032 -0.03795,0.283998 0.02781,0.496421 0.144531,0.876953 l 0.02148,0.07031 0.03906,0.05859 c 0.05454,0.08268 0.100371,0.150215 0.1875,0.226562 0.04357,0.03817 0.100924,0.08136 0.195313,0.115235 0.0137,0.0049 0.03706,-0.0039 0.05273,0 0.01242,0.124057 0.04117,0.240611 0.06445,0.357422 -0.06036,0.0465 -0.165606,0.06394 -0.191406,0.105468 l -0.105469,0.167969 0.04102,0.195313 c 0.07864,0.385845 0.183536,0.688779 0.291015,0.916015 0.01485,0.03139 0.03,0.05146 0.04492,0.08008 -0.0015,0.0049 -0.01044,0.01097 -0.01172,0.01563 -0.03302,0.120396 -0.03854,0.222861 -0.04102,0.363282 v 0.01758 0.01758 c 0.0147,0.293713 0.03881,0.495228 0.08984,0.673828 0.02418,0.08463 0.142709,0.151398 0.203125,0.240234 -0.09347,0.237078 -0.127071,0.53086 -0.191407,0.921875 l -0.330078,0.03906 c -0.01601,0.142073 0.0029,0.18903 0.002,0.302734 -0.03496,0.04082 -0.09838,0.08217 -0.123047,0.121094 l -0.08984,0.142578 0.01367,0.167969 c 0.0401,0.464783 -0.139355,0.914692 -0.365235,1.388672 -0.05868,0.123139 -0.05503,0.286862 -0.117187,0.414062 l -0.150391,-0.216797 -0.222656,0.337891 0.03125,-0.09766 c 0.193766,-0.585298 0.395936,-1.128899 0.435547,-1.875 l 0.01953,-0.04102 -0.0078,-0.0039 c 0.0034,-0.08935 0.05422,-0.122934 0.05078,-0.220703 l -0.226563,0.0078 c 0.160129,-1.053298 0.146837,-2.128639 0.185547,-2.945312 l 0.01953,-0.396485 -0.203125,-0.05664 C 33.307835,16.978081 32.763665,15.620512 31.960937,14.466797 31.082402,13.204127 29.962069,12.173873 28.837891,11.625 l -0.002,-0.002 c -0.956152,-0.461009 -2.118447,-0.713618 -3.224609,-0.779297 -0.640568,-0.03803 -1.131133,0.150426 -1.6875,0.25 -0.04044,-0.03548 -0.06481,-0.133204 -0.09375,-0.150391 l -0.142578,-0.08398 -0.164063,0.01758 C 22.501647,10.98296 21.992576,11.20561 21.632812,11.431641 21.273049,11.657671 21.120401,11.8172 20.435547,12 l -0.13086,0.03516 -0.0957,0.0957 c -0.04114,0.04156 -0.08064,0.08298 -0.123047,0.150391 -0.0043,0.0069 -0.003,0.03129 -0.0078,0.03906 -0.120819,0.0157 -0.201226,0.01623 -0.353516,0.05859 -0.445133,0.12382 -0.929829,0.42812 -1.558593,1.107422 l -0.253907,0.273438 0.02344,0.03906 c -0.159643,0.0772 -0.33868,0.05828 -0.496094,0.16211 -0.435168,0.287021 -0.874316,0.671609 -1.292969,1.08789 -0.837304,0.832562 -1.56559,1.74803 -1.878906,2.318359 l -0.333984,0.609375 0.33789,0.06055 c -0.367451,0.749345 -0.808236,1.404061 -0.892578,2.134766 v 0.01172 l -0.002,0.01172 c -0.05422,0.812576 -0.224076,2.018945 -0.283203,3.154297 -0.05221,1.0025 -0.01975,1.916764 0.386719,2.625 l -0.08594,0.871094 0.06055,0.125 c 0.0013,0.0028 0.0045,0.0069 0.0059,0.0098 l -0.06445,0.0059 0.179688,0.59375 c 0.213846,0.70513 0.372172,1.088048 0.591797,1.367188 0.219625,0.27914 0.607055,0.374397 0.728515,0.386718 0.121461,0.01232 0.0213,-0.04493 0.115235,0.05859 0.0038,0.0042 0.01736,0.04005 0.02148,0.04492 l -0.04297,0.382812 c -0.0237,0.209747 0.02098,0.332516 0.06836,0.478516 0.04738,0.146 0.113051,0.298434 0.191406,0.458984 0.102209,0.209428 0.252169,0.428799 0.392578,0.646485 l -0.167969,0.201172 0.15625,0.296875 c 0.126884,0.241524 0.196884,0.246197 0.322266,0.376953 -0.02121,0.137322 0.0019,0.222514 0.02148,0.292969 0.08134,0.293031 0.229658,0.500048 0.408203,0.773437 0.178546,0.273389 0.385274,0.563738 0.556641,0.802734 0.171367,0.238997 0.333974,0.478986 0.318359,0.451172 l 0.445313,0.792969 0.134766,-0.251953 c 0.149039,0.249869 0.142307,0.486074 0.365234,0.773437 l 0.158203,0.203125 0.447266,-0.01758 c 0.125428,0.17258 0.232874,0.351975 0.404297,0.509766 0.08402,0.07734 0.217931,0.09527 0.30664,0.166016 l -0.140625,0.191406 c -3.925702,-2.770305 -7.017975,-7.987794 -6.732422,-13.38086 l 0.002,-0.0293 -0.002,-0.02734 c -0.04094,-0.683094 -0.0089,-1.483048 0.0078,-2.166016 0.0083,-0.341484 0.01406,-0.6529 0,-0.921875 -0.0076,-0.145896 -0.06985,-0.279503 -0.0957,-0.410156 0.303521,-1.03582 0.674113,-2.26597 1.324219,-3.691406 0.06595,-0.03096 0.146281,-0.02606 0.199218,-0.07031 0.139457,-0.11657 0.248912,-0.265029 0.363282,-0.46875 l 0.01367,-0.02148 0.0098,-0.02344 c 0.217673,-0.499328 0.395455,-0.982219 0.611328,-1.408203 l 0.234375,-0.05664 0.05274,-0.326172 c 0.02733,-0.166041 0.459193,-0.7747 1.003906,-1.310547 0.273431,-0.268981 0.4873,-0.492597 0.75,-0.740234 l 0.03906,0.269531 0.703125,-0.691406 c 1.007497,-0.98729 2.851209,-1.7349076 4.138672,-2.3144536 0.01147,0.00281 0.03073,0.017402 0.04102,0.019531 0.275335,0.056998 0.373963,-0.00167 0.544922,-0.035156 0.109591,-0.021467 0.224416,-0.035229 0.345703,-0.060547 z m -9.304688,6.3554685 c 0.05035,0.0037 0.06807,0.02577 0.103516,0.04297 -0.02679,0.04533 -0.238281,0.40625 -0.238281,0.40625 0,0 -0.0123,-0.292805 -0.01758,-0.412109 0.02393,-0.0129 0.06792,-0.04327 0.152343,-0.03711 z m 10.460938,2.033203 c -0.0026,0.0012 -0.0033,0.0046 -0.0059,0.0059 -0.0032,0.0016 -0.0066,3.21e-4 -0.0098,0.002 z m 11.232422,1.941407 c -0.03603,0.05066 -0.04052,0.09189 -0.113282,0.126953 -0.139004,0.06698 -0.201872,0.053 -0.08594,0.03516 0.05308,-0.0082 0.118672,-0.103048 0.199219,-0.162109 z m 0.117187,1.15625 c 0.02487,-0.01194 0.03143,-0.01098 -0.0098,0.002 -7.72e-4,2.42e-4 -0.005,-2.54e-4 -0.0059,0 0.0018,-9.16e-4 0.01407,-0.0012 0.01563,-0.002 z m -13.833984,0.589843 c -0.0028,0.01514 -0.0051,0.02975 -0.0078,0.04492 0.0015,-0.01208 -0.0015,-0.01911 0,-0.03125 0.0024,-0.0045 0.0055,-0.0092 0.0078,-0.01367 z m 0.162109,2.31836 c 0.09899,0.437587 0.126381,0.903319 0.316406,1.294922 -0.0043,-0.008 -0.01724,-0.01346 -0.02148,-0.02148 -0.18052,-0.341074 -0.275535,-0.746932 -0.369141,-1.158203 z m 11.292969,0.607422 -0.105469,0.158203 c -0.207336,0.313858 -0.320985,0.525365 -0.394531,0.722656 0.02991,-0.09165 0.07187,-0.186786 0.07813,-0.275391 0.0099,-0.139921 -0.01951,-0.249033 -0.02734,-0.28125 0.0019,-0.009 0.03368,-0.07938 0.04687,-0.115234 z m -0.519531,0.945312 c -0.02439,0.08015 -0.0114,0.135668 -0.01758,0.212891 -0.03588,0.02782 -0.07373,0.05586 -0.107421,0.08594 -0.111018,0.09911 -0.224006,0.21468 -0.347657,0.341797 -0.2473,0.254234 -0.532536,0.55004 -0.773437,0.746094 l -0.002,0.002 -0.002,0.0039 c -0.146398,0.122577 -0.30551,0.181585 -0.455079,0.289063 0.149436,-0.118516 0.301784,-0.244079 0.462891,-0.386719 0.402233,-0.356127 0.821493,-0.757094 1.089844,-1.005859 l 0.07617,-0.07031 0.04102,-0.09375 c 0.02051,-0.04618 0.01918,-0.08219 0.03516,-0.125 z m -0.179688,0.863281 0.02148,0.01172 c 0.0095,0.0594 0.0026,0.144975 0.01172,0.166016 0.02284,0.0525 -0.02902,-0.08914 -0.02148,-0.167969 0.0075,-0.07883 0.02314,-0.07262 -0.01172,-0.0098 z m -1.992187,1.113282 c -0.440559,0.266427 -0.890038,0.476211 -1.351563,0.623046 0.344083,-0.134097 0.689073,-0.267688 0.867188,-0.423828 0.03162,-0.02772 0.05823,-0.05209 0.08594,-0.07813 0.0129,4.25e-4 0.03708,0.01537 0.04883,0.01563 l 0.07422,0.002 0.07031,-0.02148 c 0.09251,-0.02573 0.137722,-0.08102 0.205079,-0.117187 z m -6.00586,0.214843 c 0.213409,0.129934 0.447735,0.189429 0.673828,0.289063 -0.152255,-0.04707 -0.29865,-0.006 -0.451172,-0.0625 -0.06695,-0.07921 -0.133044,-0.153915 -0.216796,-0.212891 l 0.02539,0.01953 c -0.0141,-0.01129 -0.01724,-0.02195 -0.03125,-0.0332 z m 3.837891,0.535157 0.04102,0.0957 c -0.24046,0.04229 -0.488315,-0.01124 -0.732421,0.002 0.232418,-0.0321 0.464569,-0.02393 0.691406,-0.09766 z"
     id="path7" />
</svg>
