<?xml version="1.0" encoding="UTF-8" standalone="no"?>
<!-- Generator: Gravit.io -->

<svg
   style="isolation:isolate"
   viewBox="0 0 48 48"
   width="48pt"
   height="48pt"
   version="1.1"
   id="svg14"
   sodipodi:docname="distributor-logo-elementary.svg"
   inkscape:version="1.1.2 (0a00cf5339, 2022-02-04)"
   xmlns:inkscape="http://www.inkscape.org/namespaces/inkscape"
   xmlns:sodipodi="http://sodipodi.sourceforge.net/DTD/sodipodi-0.dtd"
   xmlns:xlink="http://www.w3.org/1999/xlink"
   xmlns="http://www.w3.org/2000/svg"
   xmlns:svg="http://www.w3.org/2000/svg">
  <defs
     id="defs18">
    <linearGradient
       inkscape:collect="always"
       xlink:href="#_lgradient_25"
       id="linearGradient872"
       x1="-12.025727"
       y1="6.1170783"
       x2="-0.085100174"
       y2="6.1170783"
       gradientUnits="userSpaceOnUse"
       gradientTransform="matrix(3.8358211,0,0,3.8371386,-0.00544341,-0.00268054)" />
    <linearGradient
       id="_lgradient_1"
       x1="0.18336116"
       y1="0.24917752"
       x2="0.9027437"
       y2="0.90347725"
       gradientTransform="matrix(24.617266,0,0,24.816118,10.841288,10.089605)"
       gradientUnits="userSpaceOnUse">
      <stop
         offset="2.608695652173913%"
         stop-opacity="1"
         style="stop-color:rgb(179,255,171)"
         id="stop2-3" />
      <stop
         offset="98.69565217391305%"
         stop-opacity="1"
         style="stop-color:rgb(18,255,247)"
         id="stop4-6" />
    </linearGradient>
    <linearGradient
       inkscape:collect="always"
       xlink:href="#_lgradient_25"
       id="linearGradient15"
       x1="-9.6850061"
       y1="45.161198"
       x2="11.98815"
       y2="21.735205"
       gradientUnits="userSpaceOnUse"
       gradientTransform="matrix(1.1147442,0,0,1.1150348,-0.01237238,-3.3277956)" />
  </defs>
  <sodipodi:namedview
     id="namedview16"
     pagecolor="#ffffff"
     bordercolor="#666666"
     borderopacity="1.0"
     inkscape:pageshadow="2"
     inkscape:pageopacity="0.0"
     inkscape:pagecheckerboard="0"
     inkscape:document-units="pt"
     showgrid="false"
     showguides="false"
     inkscape:zoom="5.109375"
     inkscape:cx="32"
     inkscape:cy="31.804281"
     inkscape:window-width="1056"
     inkscape:window-height="545"
     inkscape:window-x="249"
     inkscape:window-y="70"
     inkscape:window-maximized="0"
     inkscape:current-layer="svg14" />
  <linearGradient
     id="_lgradient_24"
     x1="0"
     y1="0.5"
     x2="1"
     y2="0.5"
     gradientTransform="matrix(27.979633,0,0,27.979633,10.010183,10.010183)"
     gradientUnits="userSpaceOnUse">
    <stop
       offset="0%"
       stop-opacity="1"
       style="stop-color:rgb(117,127,154)"
       id="stop2" />
    <stop
       offset="98.69565217391305%"
       stop-opacity="1"
       style="stop-color:rgb(215,221,232)"
       id="stop4" />
  </linearGradient>
  <linearGradient
     id="_lgradient_25"
     x1="0.5"
     y1="24"
     x2="47.5"
     y2="24"
     gradientUnits="userSpaceOnUse"
     gradientTransform="matrix(0.62176962,0,0,0.62176962,9.077529,9.077529)">
    <stop
       offset="0%"
       stop-opacity="1"
       style="stop-color:rgb(117,127,154)"
       id="stop7" />
    <stop
       offset="98.69565217391305%"
       stop-opacity="1"
       style="stop-color:rgb(215,221,232)"
       id="stop9" />
  </linearGradient>
  <rect
     x="-46.783188"
     y="1.2253767"
     height="45.80014"
     rx="6.1837621"
     shape-rendering="crispEdges"
     id="rect5-6-7-3"
     ry="6.8055277"
     transform="matrix(0.00524063,-0.99998627,0.99998801,0.00489691,0,0)"
     style="isolation:isolate;fill:#7f6b94;fill-opacity:0.13470298;stroke:url(#linearGradient872);stroke-width:2.0301;stroke-miterlimit:4;stroke-dasharray:none;stroke-opacity:1"
     width="45.801998" />
  <rect
     x="-15.686804"
     y="17.260084"
     height="33.345856"
     rx="6.7920032"
     shape-rendering="crispEdges"
     id="rect5-6-6-6-6"
     style="isolation:isolate;fill:#7f6b94;fill-opacity:0.13470298;stroke:url(#linearGradient15);stroke-width:1.67233;stroke-miterlimit:4;stroke-dasharray:none;stroke-opacity:1"
     ry="7.4743071"
     transform="matrix(0.72446484,-0.68931175,0.68622417,0.72739012,0,0)"
     width="33.338203" />
  <path
     style="color:#000000;vector-effect:non-scaling-stroke;fill:url(#_lgradient_25);-inkscape-stroke:none"
     d="M 24,9.5097656 C 16.003086,9.5097656 9.5097656,16.003086 9.5097656,24 9.5097656,31.996914 16.003086,38.490234 24,38.490234 31.996914,38.490234 38.490234,31.996914 38.490234,24 38.490234,16.003086 31.996914,9.5097656 24,9.5097656 Z m 0,1.0000004 c 7.456532,0 13.490234,6.033702 13.490234,13.490234 0,7.456532 -6.033702,13.490234 -13.490234,13.490234 -7.456532,0 -13.490234,-6.033702 -13.490234,-13.490234 0,-7.456532 6.033702,-13.490234 13.490234,-13.490234 z m 0,0.166015 c -7.352784,0 -13.324219,5.971435 -13.324219,13.324219 0,2.566553 0.727313,4.967768 1.986328,7.001953 l 0.171875,0.275391 0.320313,-0.04297 c 1.445613,-0.192961 2.870512,-0.535711 4.246094,-1.017578 l 0.71289,-0.25 -0.507812,-0.558594 c -0.228727,-0.251659 -0.442471,-0.517017 -0.634766,-0.792969 -0.8679,-1.242782 -1.380028,-2.737764 -1.501953,-4.259765 -0.243728,-3.042478 1.095816,-6.143572 3.273437,-8.337891 0.625903,-0.630735 1.329043,-1.190827 2.083985,-1.632812 -1.446508,0.96049 -2.536899,2.349518 -3.306641,3.839843 -0.734739,1.422119 -1.289446,2.972816 -1.445312,4.603516 -0.156903,1.634024 0.105417,3.341984 0.929687,4.802734 0.395269,0.699271 0.910508,1.3238 1.511719,1.84961 l 0.242187,0.210937 0.291016,-0.130859 c 0.274116,-0.122182 0.548245,-0.248732 0.820313,-0.384766 2.637222,-1.313515 5.011696,-3.190574 6.804687,-5.546875 1.014394,-1.333717 1.881116,-2.888405 2.082031,-4.632812 0.100314,-0.873877 0.02817,-1.781228 -0.273437,-2.628907 h -0.002 c -0.273256,-0.767363 -0.789165,-1.431398 -1.417969,-1.970703 0.223991,0.160317 0.517822,0.217056 0.705078,0.416016 0.570385,0.606898 0.956538,1.398734 1.130859,2.232422 0.174779,0.836447 0.144603,1.721854 -0.04687,2.574219 -0.382497,1.708447 -1.394372,3.263126 -2.582031,4.654296 -1.810268,2.120895 -4.023813,3.892748 -6.478515,5.222657 l -0.802735,0.435547 0.798828,0.441406 c 1.014828,0.562756 2.152483,0.884761 3.306641,0.951172 1.534606,0.08758 3.055868,-0.269413 4.429687,-0.888672 1.371933,-0.617759 2.599148,-1.488221 3.712891,-2.453125 2.318235,-2.007866 4.220569,-4.49064 5.558594,-7.25 l 0.08203,-0.169922 -0.05078,-0.183594 C 35.248142,14.778902 30.098612,10.675781 24,10.675781 Z m 0,1 c 5.582651,0 10.264319,3.721232 11.783203,8.802735 -1.272924,2.559878 -3.040465,4.876619 -5.201172,6.748046 -1.063692,0.921543 -2.214329,1.73203 -3.46875,2.296875 -1.251928,0.564316 -2.619861,0.878891 -3.960937,0.802735 -0.686163,-0.03948 -1.321132,-0.321329 -1.962891,-0.5625 2.177687,-1.312196 4.189106,-2.905519 5.841797,-4.841797 1.243459,-1.456532 2.35917,-3.137673 2.794922,-5.083984 0.21889,-0.974394 0.259009,-2.00152 0.05078,-2.998047 C 29.668265,15.8418 29.207797,14.886169 28.496094,14.128906 27.800618,13.389962 26.898097,12.874054 25.933594,12.607422 24.970613,12.341889 23.958848,12.323639 22.992187,12.5 c -1.931428,0.353172 -3.618843,1.462011 -4.958984,2.8125 -2.363777,2.381902 -3.831644,5.738919 -3.560547,9.123047 0.135487,1.691299 0.700225,3.352216 1.677735,4.751953 0.06289,0.09025 0.138863,0.168425 0.205078,0.255859 -0.97797,0.303704 -1.970325,0.561217 -2.982422,0.714844 C 12.317662,28.341689 11.675781,26.254445 11.675781,24 11.675781,17.187642 17.187642,11.675781 24,11.675781 Z m -0.828125,1.808594 c 0.02998,-0.0055 0.05979,0.0089 0.08984,0.0039 -0.111868,0.01812 -0.213885,0.06117 -0.324219,0.08594 0.08149,-0.01828 0.152184,-0.07481 0.234375,-0.08984 z m 0.908203,0.783203 c 0.801077,0.0011 1.606287,0.246764 2.228516,0.716797 0.560445,0.423292 0.988213,1.038442 1.230468,1.71875 0.243059,0.683116 0.309582,1.437499 0.22461,2.177734 -0.170902,1.483818 -0.931884,2.889736 -1.884766,4.142578 -1.69016,2.221163 -3.946005,4.007152 -6.457031,5.257813 -0.145195,0.0726 -0.29496,0.13995 -0.443359,0.208984 C 18.557393,28.083661 18.161458,27.647088 17.875,27.140625 v -0.002 c -0.703342,-1.247366 -0.946883,-2.754328 -0.806641,-4.214844 v -0.002 c 0.140096,-1.465711 0.647003,-2.897259 1.339844,-4.238281 0.801627,-1.55206 1.880292,-2.980763 3.332031,-3.78125 0.723623,-0.399731 1.535746,-0.635875 2.339844,-0.634766 z m 12.917969,6.40625 -0.730469,1.375 c -1.1777,2.21853 -2.726007,4.241711 -4.560547,5.957031 -1.540105,1.439174 -3.2904,2.659513 -5.238281,3.333985 -1.941761,0.672353 -4.111728,0.77001 -5.990234,0.05078 h -0.002 C 19.8248,31.140523 19.208645,30.79244 18.650391,30.367187 L 18.416016,30.1875 18.144531,30.308594 c -1.332106,0.58968 -2.721072,1.052789 -4.140625,1.375 l -0.792968,0.179687 0.519531,0.626953 C 16.174472,35.44319 19.870806,37.324219 24,37.324219 c 7.352784,0 13.324219,-5.971435 13.324219,-13.324219 0,-0.60477 -0.04104,-1.200349 -0.119141,-1.783203 z M 36.3125,23.822266 c 8.82e-4,0.06002 0.01172,0.117521 0.01172,0.177734 0,6.812358 -5.511861,12.324219 -12.324219,12.324219 -3.549887,0 -6.70225,-1.540417 -8.951172,-3.939453 1.105685,-0.295014 2.201436,-0.628768 3.251953,-1.080079 0.567783,0.402896 1.164802,0.768923 1.81836,1.019532 2.145168,0.822005 4.545575,0.698541 6.675781,-0.03906 2.124705,-0.735699 3.985926,-2.044549 5.595703,-3.548828 1.537955,-1.438008 2.815456,-3.123484 3.921875,-4.914062 z"
     id="path12" />
</svg>
