<?xml version="1.0" encoding="UTF-8" standalone="no"?>
<!-- Generator: Gravit.io -->

<svg
   style="isolation:isolate"
   viewBox="0 0 48 48"
   width="48pt"
   height="48pt"
   version="1.1"
   id="svg9"
   sodipodi:docname="dnfdragora.svg"
   inkscape:version="1.1.2 (0a00cf5339, 2022-02-04)"
   xmlns:inkscape="http://www.inkscape.org/namespaces/inkscape"
   xmlns:sodipodi="http://sodipodi.sourceforge.net/DTD/sodipodi-0.dtd"
   xmlns:xlink="http://www.w3.org/1999/xlink"
   xmlns="http://www.w3.org/2000/svg"
   xmlns:svg="http://www.w3.org/2000/svg">
  <defs
     id="defs13">
    <linearGradient
       inkscape:collect="always"
       xlink:href="#_lgradient_14"
       id="linearGradient872"
       x1="-12.025727"
       y1="6.1170783"
       x2="-0.085100174"
       y2="6.1170783"
       gradientUnits="userSpaceOnUse"
       gradientTransform="matrix(3.8358211,0,0,3.8371386,-0.00544341,-0.00268054)" />
    <linearGradient
       id="_lgradient_1"
       x1="0.18336116"
       y1="0.24917752"
       x2="0.9027437"
       y2="0.90347725"
       gradientTransform="matrix(24.617266,0,0,24.816118,10.841288,10.089605)"
       gradientUnits="userSpaceOnUse">
      <stop
         offset="2.608695652173913%"
         stop-opacity="1"
         style="stop-color:rgb(179,255,171)"
         id="stop2-3" />
      <stop
         offset="98.69565217391305%"
         stop-opacity="1"
         style="stop-color:rgb(18,255,247)"
         id="stop4-6" />
    </linearGradient>
    <linearGradient
       inkscape:collect="always"
       xlink:href="#_lgradient_14"
       id="linearGradient15"
       x1="-9.6850061"
       y1="45.161198"
       x2="11.98815"
       y2="21.735205"
       gradientUnits="userSpaceOnUse"
       gradientTransform="matrix(1.1147442,0,0,1.1150348,-0.01237238,-3.3277956)" />
    <linearGradient
       inkscape:collect="always"
       xlink:href="#_lgradient_14"
       id="linearGradient995"
       x1="11.505896"
       y1="24.000023"
       x2="36.494102"
       y2="24.000023"
       gradientUnits="userSpaceOnUse" />
  </defs>
  <sodipodi:namedview
     id="namedview11"
     pagecolor="#ffffff"
     bordercolor="#666666"
     borderopacity="1.0"
     inkscape:pageshadow="2"
     inkscape:pageopacity="0.0"
     inkscape:pagecheckerboard="0"
     inkscape:document-units="pt"
     showgrid="false"
     inkscape:zoom="7.2257474"
     inkscape:cx="32.038208"
     inkscape:cy="31.969011"
     inkscape:window-width="1600"
     inkscape:window-height="836"
     inkscape:window-x="0"
     inkscape:window-y="0"
     inkscape:window-maximized="1"
     inkscape:current-layer="svg9" />
  <linearGradient
     id="_lgradient_14"
     x1="0"
     y1="0.5"
     x2="1"
     y2="0.5"
     gradientTransform="matrix(55.776151,0,0,57.479588,-3.4078943,-7.5726022)"
     gradientUnits="userSpaceOnUse">
    <stop
       offset="0%"
       stop-opacity="1"
       style="stop-color:rgb(255,229,59)"
       id="stop2" />
    <stop
       offset="98.69565217391305%"
       stop-opacity="1"
       style="stop-color:rgb(255,0,91)"
       id="stop4" />
  </linearGradient>
  <rect
     x="-46.783188"
     y="1.2253767"
     height="45.80014"
     rx="6.1837621"
     shape-rendering="crispEdges"
     id="rect5-6-7-3"
     ry="6.8055277"
     transform="matrix(0.00524063,-0.99998627,0.99998801,0.00489691,0,0)"
     style="isolation:isolate;fill:#ff4a00;fill-opacity:0.13470298;stroke:url(#linearGradient872);stroke-width:2.0301;stroke-miterlimit:4;stroke-dasharray:none;stroke-opacity:1"
     width="45.801998" />
  <rect
     x="-15.686804"
     y="17.260084"
     height="33.345856"
     rx="6.7920032"
     shape-rendering="crispEdges"
     id="rect5-6-6-6-6"
     style="isolation:isolate;fill:#ff4a00;fill-opacity:0.13470298;stroke:url(#linearGradient15);stroke-width:1.67233;stroke-miterlimit:4;stroke-dasharray:none;stroke-opacity:1"
     ry="7.4743071"
     transform="matrix(0.72446484,-0.68931175,0.68622417,0.72739012,0,0)"
     width="33.338203" />
  <path
     style="color:#000000;fill:url(#linearGradient995);fill-rule:evenodd;-inkscape-stroke:none"
     d="m 24.074219,9.5742188 c -0.453943,-0.00161 -0.909476,0.1103931 -1.300782,0.3359375 L 12.304688,15.953125 c -0.782796,0.451195 -1.298829,1.348851 -1.298829,2.251953 v 10.943359 c 0,0.901562 0.513393,1.798098 1.292969,2.253907 l 11.613281,6.789062 h 0.002 c 0.389671,0.226932 0.858837,0.298985 1.240235,0.08008 0.381397,-0.218906 0.556641,-0.66011 0.55664,-1.111328 v -7.322265 c 0,-0.939046 -0.771892,-1.710938 -1.710937,-1.710938 -0.939045,0 -1.710938,0.771892 -1.710938,1.710938 v 2.945312 l -7.861328,-4.566406 v -9.535156 l 4.058594,-2.34375 0.644531,0.378906 7.914063,4.732422 -2.703125,1.560547 c -0.08892,0.05143 -0.472849,0.05367 -0.5625,0.0039 l -6.210938,-3.435547 0.04492,0.02734 c -0.769176,-0.53974 -1.845581,-0.355452 -2.388672,0.410156 -0.542991,0.767353 -0.354147,1.843859 0.414063,2.386719 l 0.01758,0.01367 6.978516,4.027343 c 0.782186,0.450845 1.816221,0.451455 2.597656,0 l 8.339844,-4.810547 v 8.095704 l -6.541016,3.58789 -0.0098,0.0059 c -0.801266,0.489034 -1.06295,1.548032 -0.580078,2.351562 0.484213,0.802625 1.542354,1.066681 2.345703,0.582031 l 6.892578,-3.841797 c 0.790787,-0.440734 1.314454,-1.333174 1.314454,-2.238281 V 17.78125 c 0,-0.451551 -0.176148,-0.893455 -0.556641,-1.113281 -0.380493,-0.219826 -0.851173,-0.153112 -1.242188,0.07227 l -4.851562,2.802735 -0.04492,0.02539 -0.357422,-0.210937 -8.201172,-4.896484 2.191407,-1.265625 6.490234,3.652343 -0.04492,-0.03125 c 0.763918,0.548069 1.841271,0.374114 2.388672,-0.388672 0.548897,-0.763929 0.369316,-1.843087 -0.396484,-2.390625 l -0.01758,-0.01367 -6.980468,-4.1035161 C 24.98115,9.6904537 24.528161,9.5758301 24.074219,9.5742188 Z m -0.800782,1.2011722 c 0.376261,-0.216873 1.216226,-0.214002 1.589844,0.0059 l 6.923828,4.072266 c 0.32283,0.233761 0.398814,0.668955 0.167969,0.990234 h -0.002 v 0.002 c -0.230873,0.322427 -0.666736,0.393098 -0.994141,0.158203 l -0.02148,-0.01563 -7.013672,-3.943359 -4.160156,2.400391 9.667969,5.773437 0.863281,0.507812 0.548828,-0.318359 4.851562,-2.800781 c 0.188421,-0.108604 0.243097,-0.07369 0.242188,-0.07422 -9.09e-4,-5.25e-4 0.05664,0.0303 0.05664,0.248047 v 12.394531 c 0,0.433498 -0.421965,1.154106 -0.800782,1.365235 l -6.914062,3.853515 -0.0078,0.0039 c -0.339428,0.204773 -0.767446,0.09992 -0.972656,-0.240234 -0.203483,-0.338609 -0.09585,-0.771584 0.244141,-0.980469 6.38e-4,-3.91e-4 -6.4e-4,-0.0016 0,-0.002 l 7.029297,-3.855469 V 19.900391 l -9.839844,5.677734 c -0.374299,0.216242 -1.220287,0.216321 -1.597656,0 h -0.002 l -6.917968,-3.992188 c -6.29e-4,-4.43e-4 6.26e-4,-0.0015 0,-0.002 -0.327365,-0.232794 -0.402979,-0.666399 -0.173828,-0.990234 0.22949,-0.323517 0.67005,-0.400081 0.998046,-0.169922 l 0.02148,0.01563 6.234375,3.449219 c 0.49515,0.274829 1.056364,0.270038 1.546875,-0.01367 l 4.177734,-2.412109 -9.378906,-5.605469 -1.150391,-0.677734 -0.251953,0.146484 -4.810547,2.777344 v 10.689453 l 8.585938,4.988281 c 0.245231,0.142576 0.584835,0.203215 0.871094,0.03906 0.286258,-0.164152 0.404296,-0.487357 0.404296,-0.771484 v -3.210937 c 0,-0.396878 0.314061,-0.710938 0.710938,-0.710938 0.396877,0 0.710938,0.31406 0.710937,0.710938 v 7.322265 c 0,0.218086 -0.05751,0.245759 -0.05469,0.244141 0.0028,-0.0016 -0.05322,0.03062 -0.238281,-0.07617 h -0.002 L 12.804688,30.539062 c -0.376613,-0.2202 -0.798829,-0.956265 -0.798829,-1.390625 V 18.205078 c 0,-0.4355 0.422753,-1.168 0.798829,-1.384766 z"
     id="path7" />
</svg>
