<?xml version="1.0" encoding="UTF-8" standalone="no"?>
<!-- Generator: Gravit.io -->

<svg
   style="isolation:isolate"
   viewBox="0 0 48 48"
   width="48pt"
   height="48pt"
   version="1.1"
   id="svg11"
   sodipodi:docname="docker-desktop.svg"
   inkscape:version="1.1.2 (0a00cf5339, 2022-02-04)"
   xmlns:inkscape="http://www.inkscape.org/namespaces/inkscape"
   xmlns:sodipodi="http://sodipodi.sourceforge.net/DTD/sodipodi-0.dtd"
   xmlns:xlink="http://www.w3.org/1999/xlink"
   xmlns="http://www.w3.org/2000/svg"
   xmlns:svg="http://www.w3.org/2000/svg">
  <defs
     id="defs15">
    <linearGradient
       inkscape:collect="always"
       xlink:href="#_lgradient_8"
       id="linearGradient872"
       x1="-12.025727"
       y1="6.1170783"
       x2="-0.085100174"
       y2="6.1170783"
       gradientUnits="userSpaceOnUse"
       gradientTransform="matrix(3.8358211,0,0,3.8371386,-0.00544341,-0.00268054)" />
    <linearGradient
       id="_lgradient_1"
       x1="0.18336116"
       y1="0.24917752"
       x2="0.9027437"
       y2="0.90347725"
       gradientTransform="matrix(24.617266,0,0,24.816118,10.841288,10.089605)"
       gradientUnits="userSpaceOnUse">
      <stop
         offset="2.608695652173913%"
         stop-opacity="1"
         style="stop-color:rgb(179,255,171)"
         id="stop2-3" />
      <stop
         offset="98.69565217391305%"
         stop-opacity="1"
         style="stop-color:rgb(18,255,247)"
         id="stop4-6" />
    </linearGradient>
    <linearGradient
       inkscape:collect="always"
       xlink:href="#_lgradient_8"
       id="linearGradient15"
       x1="-9.6850061"
       y1="45.161198"
       x2="11.98815"
       y2="21.735205"
       gradientUnits="userSpaceOnUse"
       gradientTransform="matrix(1.1147442,0,0,1.1150348,-0.01237238,-3.3277956)" />
    <linearGradient
       inkscape:collect="always"
       xlink:href="#_lgradient_8"
       id="linearGradient1089"
       x1="11.000105"
       y1="23.500031"
       x2="41.022999"
       y2="23.500031"
       gradientUnits="userSpaceOnUse" />
  </defs>
  <sodipodi:namedview
     id="namedview13"
     pagecolor="#ffffff"
     bordercolor="#666666"
     borderopacity="1.0"
     inkscape:pageshadow="2"
     inkscape:pageopacity="0.0"
     inkscape:pagecheckerboard="0"
     inkscape:document-units="pt"
     showgrid="false"
     inkscape:zoom="7.2257474"
     inkscape:cx="31.899814"
     inkscape:cy="30.169889"
     inkscape:window-width="1600"
     inkscape:window-height="836"
     inkscape:window-x="0"
     inkscape:window-y="0"
     inkscape:window-maximized="1"
     inkscape:current-layer="svg11" />
  <linearGradient
     id="_lgradient_8"
     x1="0.5078124999028886"
     y1="0.03176281149961452"
     x2="0.5290145645359572"
     y2="1.1851688787076098"
     gradientTransform="matrix(48,0,0,46.985,0,0.508)"
     gradientUnits="userSpaceOnUse">
    <stop
       offset="0%"
       stop-opacity="1"
       style="stop-color:rgb(84,51,255)"
       id="stop2" />
    <stop
       offset="51.73913043478261%"
       stop-opacity="1"
       style="stop-color:rgb(32,189,255)"
       id="stop4" />
    <stop
       offset="98.26086956521739%"
       stop-opacity="1"
       style="stop-color:rgb(165,254,203)"
       id="stop6" />
  </linearGradient>
  <rect
     x="-46.783188"
     y="1.2253767"
     height="45.80014"
     rx="6.1837621"
     shape-rendering="crispEdges"
     id="rect5-6-7-3"
     ry="6.8055277"
     transform="matrix(0.00524063,-0.99998627,0.99998801,0.00489691,0,0)"
     style="isolation:isolate;fill:#00ffc3;fill-opacity:0.134703;stroke:url(#linearGradient872);stroke-width:2.0301;stroke-miterlimit:4;stroke-dasharray:none;stroke-opacity:1"
     width="45.801998" />
  <rect
     x="-15.686804"
     y="17.260084"
     height="33.345856"
     rx="6.7920032"
     shape-rendering="crispEdges"
     id="rect5-6-6-6-6"
     style="isolation:isolate;fill:#00ffc3;fill-opacity:0.134703;stroke:url(#linearGradient15);stroke-width:1.67233;stroke-miterlimit:4;stroke-dasharray:none;stroke-opacity:1"
     ry="7.4743071"
     transform="matrix(0.72446484,-0.68931175,0.68622417,0.72739012,0,0)"
     width="33.338203" />
  <path
     style="color:#000000;fill:url(#linearGradient1089);fill-rule:evenodd;-inkscape-stroke:none"
     d="M 25.599609,11.5 C 24.997714,11.5 24.5,11.997714 24.5,12.599609 v 1.800782 C 24.5,15.002286 24.997714,15.5 25.599609,15.5 24.997714,15.5 24.5,15.997714 24.5,16.599609 24.5,15.997714 24.002286,15.5 23.400391,15.5 H 21.599609 C 20.997714,15.5 20.5,15.997714 20.5,16.599609 20.5,15.997714 20.002286,15.5 19.400391,15.5 H 17.599609 C 16.997714,15.5 16.5,15.997714 16.5,16.599609 v 1.800782 C 16.5,19.002286 16.997714,19.5 17.599609,19.5 16.997714,19.5 16.5,19.997714 16.5,20.599609 16.5,19.997714 16.002286,19.5 15.400391,19.5 H 13.599609 C 12.997714,19.5 12.5,19.997714 12.5,20.599609 v 1.800782 c 0,0.547344 0.431694,0.961855 0.958984,1.041015 -0.08123,3.92e-4 -0.429036,-4.39e-4 -0.501953,0 -0.634258,0.0038 -0.959749,0.01025 -1.154297,0.01953 -0.09727,0.0046 -0.161781,0.0092 -0.232421,0.02148 -0.07064,0.01227 -0.163239,0.04652 -0.181641,0.05469 -0.408895,0.180355 -0.726882,0.544813 -0.839844,0.972657 v 0.002 c -0.05166,0.199399 -0.05258,0.380841 -0.04883,0.644531 0.0038,0.26369 0.0222,0.594577 0.05469,1.007812 0.189365,2.392422 0.937584,4.584213 2.134765,6.134766 0.955893,1.238532 2.092082,2.004359 3.734375,2.525391 1.145106,0.36331 2.325019,0.555617 4.017578,0.664062 0.424846,0.02851 1.852919,0.01589 2.306641,-0.01172 3.39286,-0.205658 6.361725,-1.173624 8.697265,-2.861328 2.277773,-1.645624 3.952308,-3.944846 5.263672,-7.101562 h -0.02539 c 0.01043,-1.6e-5 0.01888,-0.0058 0.0293,-0.0059 0.02138,-0.05152 0.05303,-0.08278 0.07422,-0.134765 l -0.05273,0.132812 c 1.420305,-0.01381 2.715906,-0.482296 3.636719,-1.373047 0.348864,-0.338096 0.596981,-0.658781 0.80664,-1.046875 0.07341,-0.13678 0.146859,-0.300623 0.208985,-0.453125 0.03106,-0.07625 0.05951,-0.148376 0.08203,-0.214843 0.02252,-0.06647 0.05469,-0.05203 0.05469,-0.269532 0,-3.74e-4 -0.03106,-0.173318 -0.03125,-0.173828 -1.87e-4,-5.09e-4 -0.0264,-0.05957 -0.03711,-0.07813 -0.02142,-0.0371 -0.03696,-0.05567 -0.04883,-0.07031 -0.02373,-0.02928 -0.03736,-0.04154 -0.05078,-0.05469 -0.02684,-0.0263 -0.04867,-0.04688 -0.07422,-0.06836 -0.05048,-0.04244 -0.110815,-0.08758 -0.177734,-0.136719 l -0.002,-0.002 c -0.527185,-0.390955 -1.173384,-0.618989 -1.96875,-0.730469 -0.48202,-0.06783 -1.176379,-0.02135 -1.742187,0.04492 -0.259479,-1.071827 -0.941094,-2.117614 -1.882813,-2.800781 -0.135655,-0.09811 -0.315873,-0.211869 -0.480468,-0.310547 -0.0823,-0.04934 -0.159495,-0.09488 -0.226563,-0.130859 -0.03353,-0.01799 -0.06434,-0.03279 -0.09961,-0.04883 -0.01764,-0.008 -0.03591,-0.01733 -0.06445,-0.02734 -0.02854,-0.01001 -0.04776,-0.03125 -0.179688,-0.03125 -7.5e-4,0 -0.114521,0.01148 -0.152344,0.02344 -0.03782,0.01196 -0.06418,0.02557 -0.08594,0.03711 -0.04352,0.02309 -0.0668,0.04127 -0.08594,0.05664 -0.03827,0.03074 -0.05838,0.05103 -0.07617,0.07031 -0.03558,0.03857 -0.06108,0.07332 -0.08984,0.111328 -0.05752,0.07601 -0.120785,0.166341 -0.1875,0.267578 -0.133431,0.202475 -0.27468,0.435792 -0.373047,0.628906 -0.422977,0.829893 -0.634458,1.641482 -0.634766,2.503907 -0.002,0.700966 0.180295,1.315916 0.462891,1.910156 -0.09249,0.03146 -0.179847,0.06534 -0.269531,0.08984 l 0.002,-0.002 c -0.192645,0.05213 -0.747086,0.149502 -1.048828,0.177735 l -0.002,0.002 h -0.002 c 0.04304,-0.0042 -0.06328,0.0018 -0.189453,0.0039 -0.02615,4.45e-4 -0.08063,0.0015 -0.111328,0.002 C 32.10177,23.3007 32.5,22.919814 32.5,22.400391 V 20.599609 C 32.5,19.997714 32.002286,19.5 31.400391,19.5 H 29.599609 C 28.997714,19.5 28.5,19.997714 28.5,20.599609 28.5,19.997714 28.002286,19.5 27.400391,19.5 28.002286,19.5 28.5,19.002286 28.5,18.400391 V 16.599609 C 28.5,15.997714 28.002286,15.5 27.400391,15.5 28.002286,15.5 28.5,15.002286 28.5,14.400391 V 12.599609 C 28.5,11.997714 28.002286,11.5 27.400391,11.5 Z m 0,1 h 1.800782 c 0.0601,0 0.09961,0.03951 0.09961,0.09961 v 1.800782 c 0,0.0601 -0.03951,0.09961 -0.09961,0.09961 H 25.599609 C 25.539506,14.5 25.5,14.460494 25.5,14.400391 v -1.800782 c 0,-0.0601 0.03951,-0.09961 0.09961,-0.09961 z m -8,4 h 1.800782 c 0.0601,0 0.09961,0.03951 0.09961,0.09961 v 1.800782 c 0,0.0601 -0.03951,0.09961 -0.09961,0.09961 H 17.599609 C 17.539506,18.5 17.5,18.460494 17.5,18.400391 v -1.800782 c 0,-0.0601 0.03951,-0.09961 0.09961,-0.09961 z m 4,0 h 1.800782 c 0.0601,0 0.09961,0.03951 0.09961,0.09961 v 1.800782 c 0,0.0601 -0.03951,0.09961 -0.09961,0.09961 H 21.599609 C 21.539506,18.5 21.5,18.460494 21.5,18.400391 v -1.800782 c 0,-0.0601 0.03951,-0.09961 0.09961,-0.09961 z m 4,0 h 1.800782 c 0.0601,0 0.09961,0.03951 0.09961,0.09961 v 1.800782 c 0,0.0601 -0.03951,0.09961 -0.09961,0.09961 H 25.599609 C 25.539506,18.5 25.5,18.460494 25.5,18.400391 v -1.800782 c 0,-0.0601 0.03951,-0.09961 0.09961,-0.09961 z M 20.5,18.400391 C 20.5,19.002286 20.997714,19.5 21.599609,19.5 20.997714,19.5 20.5,19.997714 20.5,20.599609 20.5,19.997714 20.002286,19.5 19.400391,19.5 20.002286,19.5 20.5,19.002286 20.5,18.400391 Z m 4,0 C 24.5,19.002286 24.997714,19.5 25.599609,19.5 24.997714,19.5 24.5,19.997714 24.5,20.599609 24.5,19.997714 24.002286,19.5 23.400391,19.5 24.002286,19.5 24.5,19.002286 24.5,18.400391 Z m 10.095703,0.279296 c 0.120754,0.07476 0.253872,0.158183 0.324219,0.208985 0.786373,0.570471 1.424798,1.55863 1.574219,2.380859 0.01814,0.103749 -0.01264,0.142931 0.103515,0.34375 0.05838,0.100933 0.246715,0.242959 0.386719,0.263672 0.140004,0.02071 0.189179,-0.0027 0.214844,-0.0078 h 0.002 v -0.002 c 0.310111,-0.06244 1.443984,-0.09208 1.792969,-0.04297 0.648594,0.09091 1.071748,0.267253 1.427734,0.513672 -0.04378,0.101211 -0.09163,0.213213 -0.125,0.27539 -0.165846,0.306523 -0.322765,0.51166 -0.621094,0.800781 -0.72158,0.698023 -1.771557,1.097774 -2.99414,1.09961 l -0.623047,0.002 -0.197266,0.478516 c -1.271122,3.119937 -2.850997,5.256543 -5.001953,6.810546 -2.156455,1.558293 -4.932741,2.477488 -8.171875,2.673829 -0.302277,0.01839 -2.008534,0.02321 -2.179688,0.01172 h -0.002 c -1.647437,-0.105554 -2.724404,-0.284452 -3.779297,-0.61914 -1.509704,-0.478967 -2.395987,-1.080175 -3.246093,-2.181641 v -0.002 c -1.038817,-1.345444 -1.751101,-3.369988 -1.927735,-5.601563 -0.03151,-0.400763 -0.04949,-0.717253 -0.05273,-0.945312 -0.0032,-0.228059 0.01924,-0.383352 0.01758,-0.376953 0.04484,-0.168409 0.09748,-0.224723 0.263672,-0.300781 0.0162,-0.0016 0.01927,-0.0016 0.06836,-0.0039 0.157233,-0.0075 0.482916,-0.01378 1.113282,-0.01758 1.26073,-0.0076 3.753584,-0.0078 8.726562,-0.0078 3.269238,-5e-4 5.786636,-0.0027 7.513672,-0.0078 0.863518,-0.0026 1.530492,-0.006 1.994141,-0.0098 0.231824,-0.0019 0.41148,-0.0036 0.542968,-0.0059 0.129613,-0.0022 0.178374,-9.73e-4 0.269532,-0.0098 0.382257,-0.03577 0.901395,-0.121159 1.21875,-0.207032 v -0.002 c 0.198441,-0.05422 0.403559,-0.121509 0.572265,-0.1875 0.08435,-0.03299 0.158235,-0.06395 0.228516,-0.09961 0.03514,-0.01783 0.06665,-0.03568 0.115234,-0.07031 0.02429,-0.01732 0.05478,-0.03622 0.09766,-0.08398 0.02144,-0.02388 0.04695,-0.0553 0.07422,-0.107422 0.01364,-0.02606 0.03886,-0.09694 0.03906,-0.09766 2.04e-4,-7.16e-4 0.01758,-0.138016 0.01758,-0.138672 0,-3.44e-4 -0.0071,-0.08861 -0.01172,-0.109375 -0.0046,-0.02076 -0.0085,-0.03267 -0.01172,-0.04297 -0.0065,-0.0206 -0.0099,-0.03143 -0.01367,-0.04102 -0.0076,-0.01918 -0.01366,-0.03213 -0.01953,-0.04492 -0.01174,-0.02559 -0.02405,-0.05019 -0.03906,-0.08008 -0.02981,-0.05934 -0.06839,-0.133787 -0.111328,-0.212891 v -0.002 c -0.276928,-0.515642 -0.39634,-0.999648 -0.394532,-1.642578 0,-0.706868 0.158679,-1.333237 0.525391,-2.052735 0.06061,-0.118994 0.186884,-0.325878 0.298828,-0.498047 z M 13.599609,20.5 h 1.800782 c 0.0601,0 0.09961,0.03951 0.09961,0.09961 v 1.800782 c 0,0.0601 -0.03951,0.09961 -0.09961,0.09961 H 13.599609 C 13.539506,22.5 13.5,22.460494 13.5,22.400391 v -1.800782 c 0,-0.0601 0.03951,-0.09961 0.09961,-0.09961 z m 4,0 h 1.800782 c 0.0601,0 0.09961,0.03951 0.09961,0.09961 v 1.800782 c 0,0.0601 -0.03951,0.09961 -0.09961,0.09961 H 17.599609 C 17.539506,22.5 17.5,22.460494 17.5,22.400391 v -1.800782 c 0,-0.0601 0.03951,-0.09961 0.09961,-0.09961 z m 4,0 h 1.800782 c 0.0601,0 0.09961,0.03951 0.09961,0.09961 v 1.800782 c 0,0.0601 -0.03951,0.09961 -0.09961,0.09961 H 21.599609 C 21.539506,22.5 21.5,22.460494 21.5,22.400391 v -1.800782 c 0,-0.0601 0.03951,-0.09961 0.09961,-0.09961 z m 4,0 h 1.800782 c 0.0601,0 0.09961,0.03951 0.09961,0.09961 v 1.800782 c 0,0.0601 -0.03951,0.09961 -0.09961,0.09961 H 25.599609 C 25.539506,22.5 25.5,22.460494 25.5,22.400391 v -1.800782 c 0,-0.0601 0.03951,-0.09961 0.09961,-0.09961 z m 4,0 h 1.800782 c 0.0601,0 0.09961,0.03951 0.09961,0.09961 v 1.800782 c 0,0.0601 -0.03951,0.09961 -0.09961,0.09961 H 29.599609 C 29.539506,22.5 29.5,22.460494 29.5,22.400391 v -1.800782 c 0,-0.0601 0.03951,-0.09961 0.09961,-0.09961 z M 16.5,22.400391 c 0,0.543578 0.427147,0.953282 0.949219,1.037109 -0.622886,4.19e-4 -1.443957,0.0011 -1.902344,0.002 C 16.071109,23.357548 16.5,22.945529 16.5,22.400391 Z m 4,0 c 0,0.540458 0.423664,0.945585 0.941406,1.033203 -1.044211,4e-6 -1.058236,0.0018 -1.886719,0.002 C 20.074595,23.349816 20.5,22.942409 20.5,22.400391 Z m 4,0 c 0,0.536692 0.419126,0.937194 0.931641,1.029296 -0.623954,6.9e-4 -1.14851,0.0015 -1.867188,0.002 C 24.079134,23.341384 24.5,22.938643 24.5,22.400391 Z m 4,0 c 0,0.532011 0.413913,0.925899 0.919922,1.023437 -0.09019,2.97e-4 -0.123751,0.0017 -0.21875,0.002 -0.373661,0.0011 -1.179358,0.0011 -1.626953,0.002 C 28.083669,23.333052 28.5,22.934877 28.5,22.400391 Z"
     id="path9" />
</svg>
