<?xml version="1.0" encoding="UTF-8" standalone="no"?>
<!-- Generator: Gravit.io -->

<svg
   style="isolation:isolate"
   viewBox="0 0 48 48"
   width="48pt"
   height="48pt"
   version="1.1"
   id="svg9"
   sodipodi:docname="dockbarx.svg"
   inkscape:version="1.1.2 (0a00cf5339, 2022-02-04)"
   xmlns:inkscape="http://www.inkscape.org/namespaces/inkscape"
   xmlns:sodipodi="http://sodipodi.sourceforge.net/DTD/sodipodi-0.dtd"
   xmlns:xlink="http://www.w3.org/1999/xlink"
   xmlns="http://www.w3.org/2000/svg"
   xmlns:svg="http://www.w3.org/2000/svg">
  <defs
     id="defs13">
    <linearGradient
       inkscape:collect="always"
       xlink:href="#_lgradient_0"
       id="linearGradient872"
       x1="-12.025727"
       y1="6.1170783"
       x2="-0.085100174"
       y2="6.1170783"
       gradientUnits="userSpaceOnUse"
       gradientTransform="matrix(3.8358211,0,0,3.8371386,-0.00544341,-0.00268054)" />
    <linearGradient
       id="_lgradient_1"
       x1="0.18336116"
       y1="0.24917752"
       x2="0.9027437"
       y2="0.90347725"
       gradientTransform="matrix(24.617266,0,0,24.816118,10.841288,10.089605)"
       gradientUnits="userSpaceOnUse">
      <stop
         offset="2.608695652173913%"
         stop-opacity="1"
         style="stop-color:rgb(179,255,171)"
         id="stop2-3" />
      <stop
         offset="98.69565217391305%"
         stop-opacity="1"
         style="stop-color:rgb(18,255,247)"
         id="stop4-6" />
    </linearGradient>
    <linearGradient
       inkscape:collect="always"
       xlink:href="#_lgradient_0"
       id="linearGradient15"
       x1="-9.6850061"
       y1="45.161198"
       x2="11.98815"
       y2="21.735205"
       gradientUnits="userSpaceOnUse"
       gradientTransform="matrix(1.1147442,0,0,1.1150348,-0.01237238,-3.3277956)" />
    <linearGradient
       inkscape:collect="always"
       xlink:href="#_lgradient_0"
       id="linearGradient878"
       x1="12.551498"
       y1="24"
       x2="35.448502"
       y2="24"
       gradientUnits="userSpaceOnUse" />
  </defs>
  <sodipodi:namedview
     id="namedview11"
     pagecolor="#ffffff"
     bordercolor="#666666"
     borderopacity="1.0"
     inkscape:pageshadow="2"
     inkscape:pageopacity="0.0"
     inkscape:pagecheckerboard="0"
     inkscape:document-units="pt"
     showgrid="false"
     inkscape:zoom="7.2257474"
     inkscape:cx="32.038208"
     inkscape:cy="31.969011"
     inkscape:window-width="1600"
     inkscape:window-height="836"
     inkscape:window-x="0"
     inkscape:window-y="0"
     inkscape:window-maximized="1"
     inkscape:current-layer="svg9" />
  <linearGradient
     id="_lgradient_0"
     x1="-0.000038208333333289435"
     y1="0.5000000833333331"
     x2="0.9999618333333335"
     y2="0.5000000833333331"
     gradientTransform="matrix(22.897003,0,0,22.897003,12.551498,12.551498)"
     gradientUnits="userSpaceOnUse">
    <stop
       offset="0%"
       stop-opacity="1"
       style="stop-color:rgb(211,0,220)"
       id="stop2" />
    <stop
       offset="100%"
       stop-opacity="1"
       style="stop-color:rgb(135,0,255)"
       id="stop4" />
  </linearGradient>
  <rect
     x="-46.783188"
     y="1.2253767"
     height="45.80014"
     rx="6.1837621"
     shape-rendering="crispEdges"
     id="rect5-6-7-3"
     ry="6.8055277"
     transform="matrix(0.00524063,-0.99998627,0.99998801,0.00489691,0,0)"
     style="isolation:isolate;fill:#b800ff;fill-opacity:0.13470298;stroke:url(#linearGradient872);stroke-width:2.0301;stroke-miterlimit:4;stroke-dasharray:none;stroke-opacity:1"
     width="45.801998" />
  <rect
     x="-15.686804"
     y="17.260084"
     height="33.345856"
     rx="6.7920032"
     shape-rendering="crispEdges"
     id="rect5-6-6-6-6"
     style="isolation:isolate;fill:#b800ff;fill-opacity:0.13470298;stroke:url(#linearGradient15);stroke-width:1.67233;stroke-miterlimit:4;stroke-dasharray:none;stroke-opacity:1"
     ry="7.4743071"
     transform="matrix(0.72446484,-0.68931175,0.68622417,0.72739012,0,0)"
     width="33.338203" />
  <path
     style="color:#000000;fill:url(#linearGradient878);fill-rule:evenodd;-inkscape-stroke:none"
     d="m 16.193359,12.050781 c -2.280937,0 -4.142578,1.861641 -4.142578,4.142578 v 1.041016 c 0,0.845038 0.695979,1.541016 1.541016,1.541016 0.845037,0 1.541016,-0.695979 1.541016,-1.541016 0,-1.165733 0.935829,-2.101563 2.101562,-2.101562 h 13.53125 c 1.165733,0 2.101562,0.935829 2.101562,2.101562 v 7.285156 c 0,0.845037 0.695979,1.541016 1.541016,1.541016 0.845037,0 1.541016,-0.695978 1.541016,-1.541016 v -8.326172 c 0,-2.280937 -1.861641,-4.142578 -4.142578,-4.142578 z m 0,1 h 15.613282 c 1.739562,0 3.142578,1.403016 3.142578,3.142578 v 8.326172 c 0,0.303975 -0.237042,0.541016 -0.541016,0.541016 -0.303975,0 -0.541016,-0.23704 -0.541016,-0.541016 v -7.285156 c 0,-1.706796 -1.394766,-3.101563 -3.101562,-3.101562 h -13.53125 c -1.706796,-1e-6 -3.101563,1.394766 -3.101562,3.101562 0,0.303976 -0.237041,0.541016 -0.541016,0.541016 -0.303974,0 -0.541016,-0.237041 -0.541016,-0.541016 v -1.041016 c 0,-1.739562 1.403016,-3.142578 3.142578,-3.142578 z m 3.513672,4.214844 v 1.644531 c -0.191381,-0.0657 -0.310477,-0.267578 -0.519531,-0.267578 -0.569648,0 -1.107337,0.256844 -1.443359,0.707031 -0.33766,0.452845 -0.476563,1.040026 -0.476563,1.714844 0,0.666202 0.137526,1.24682 0.46875,1.697266 0.330267,0.449145 0.860463,0.708984 1.423828,0.708984 0.326381,0 0.533092,-0.266606 0.802735,-0.423828 l 0.146484,0.357422 h 1.609375 v -6.138672 z m 2.064453,0 v 6.138672 H 23.375 l 0.128906,-0.308594 c 0.265114,0.142283 0.484012,0.375 0.796875,0.375 0.438807,0 0.791404,-0.266349 1.115235,-0.542969 l -0.306641,0.476563 h 2.291016 l 0.84375,-1.371094 0.84375,1.371094 h 2.386718 l -1.972656,-2.941406 1.828125,-2.886719 H 29.03125 l -0.738281,1.257812 -0.751953,-1.257812 h -2.328125 l 1.820312,2.83789 -1.123047,1.746094 c 0.133328,-0.350098 0.310547,-0.67141 0.310547,-1.109375 0,-0.661925 -0.137101,-1.239666 -0.464844,-1.691406 -0.328827,-0.453699 -0.863533,-0.716797 -1.429687,-0.716797 -0.221424,0 -0.346342,0.213696 -0.546875,0.289063 v -1.666016 z m -1.064453,1 h 0.01172 v 0.792969 c -0.0013,-0.03278 -0.01172,-0.08091 -0.01172,-0.111328 z m 2.064453,0 h 0.0078 v 0.695312 c 0,0.02607 -0.0067,0.110262 -0.0078,0.146485 z m -2.498047,0.929687 0.390625,0.208985 c -0.08726,-0.129026 -0.278115,-0.104692 -0.394531,-0.203125 z m 2.980469,0.0098 0.002,0.0039 c -0.116753,0.101293 -0.310931,0.07814 -0.396484,0.210938 z m -4.259765,0.529297 c -0.15076,0.08848 -0.346367,0.09593 -0.439454,0.238281 -0.204303,0.31243 -0.267578,0.6848 -0.267578,1.105469 0,0.420855 0.06324,0.791643 0.277344,1.101562 0.01243,0.01796 0.04303,0.01216 0.05664,0.0293 -0.02124,-0.02427 -0.0587,-0.01 -0.08008,-0.03906 -0.164184,-0.223281 -0.273438,-0.577559 -0.273438,-1.105469 0,-0.535945 0.112529,-0.893531 0.279297,-1.117187 0.117264,-0.156652 0.283203,-0.175116 0.447266,-0.212891 z m 5.802734,0.138672 c 0.03998,0.03816 0.109032,0.0179 0.148437,0.07227 v 0.002 c 0.165584,0.22823 0.275391,0.580349 0.275391,1.103515 0,0.540401 -0.113464,0.896914 -0.279297,1.115235 -0.09876,0.130024 -0.248397,0.130145 -0.371094,0.175781 0.118332,-0.0841 0.285614,-0.08537 0.361329,-0.203125 0.200069,-0.312041 0.261718,-0.680347 0.261718,-1.09961 0,-0.420032 -0.06117,-0.789764 -0.271484,-1.099609 -0.02704,-0.03981 -0.09225,-0.03033 -0.125,-0.06641 z M 20.5625,20.183594 h 0.15625 v 0.644531 c -0.01492,-0.235985 -0.0691,-0.449499 -0.15625,-0.644531 z m 2.208984,0.0078 h 0.203125 c -0.09226,0.230601 -0.191666,0.453345 -0.195312,0.738281 v 0.0039 0.111328 c 0,0.374664 0.08235,0.670588 0.222656,0.953125 h -0.125 l -0.105469,0.255859 z m -9.179687,0.185547 c -0.845037,0 -1.541016,0.695978 -1.541016,1.541016 v 9.888672 c 0,2.280937 1.861641,4.142578 4.142578,4.142578 h 15.613282 c 2.280937,0 4.142578,-1.861641 4.142578,-4.142578 v -3.123047 c 0,-0.845038 -0.695979,-1.541016 -1.541016,-1.541016 H 16.714844 c -0.845037,0 -1.541016,0.695979 -1.541016,1.541016 0,0.845037 0.695979,1.541015 1.541016,1.541015 h 16.152343 v 0.541016 c 0,0.234693 -0.175967,0.38929 -0.246093,0.599609 -0.09963,-0.605737 -0.573389,-1.099609 -1.205078,-1.099609 h -2.732422 c -0.70141,0 -1.28125,0.577886 -1.28125,1.279297 0,0.701411 0.579839,1.28125 1.28125,1.28125 h 2.18164 c -0.03847,0.0021 -0.0606,0.04102 -0.09961,0.04102 h -13.53125 c -0.03901,0 -0.06114,-0.03894 -0.09961,-0.04102 h 2.3125 c 0.701411,0 1.279296,-0.57984 1.279296,-1.28125 10e-7,-0.70141 -0.577886,-1.279297 -1.279296,-1.279297 h -2.732422 c -0.691658,0 -1.255691,0.565686 -1.271485,1.253906 -0.108623,-0.254314 -0.310547,-0.458664 -0.310546,-0.753906 v -8.847656 c -1e-6,-0.845037 -0.695978,-1.541016 -1.541016,-1.541016 z m 10.412109,0.07227 c 0.07193,0 0.04362,-0.01817 0.0918,0.05273 0.036,0.05304 0.09766,0.22999 0.09766,0.537109 0,0.306161 -0.05939,0.489166 -0.103515,0.558594 -0.05323,0.08279 -0.01902,0.05664 -0.07227,0.05664 -0.143742,0 -0.126277,-0.0067 -0.148437,-0.03906 v -0.002 c -0.01627,-0.02368 -0.08984,-0.221402 -0.08984,-0.568359 v -0.103516 -0.0059 c 0.0053,-0.292191 0.07413,-0.451041 0.08008,-0.458985 0.01041,-0.01391 -0.0017,-0.02734 0.144531,-0.02734 z m -4.505859,0.01172 c 0.171553,0 0.16828,0.01985 0.1875,0.04687 0.01678,0.0236 0.0918,0.217293 0.0918,0.5625 v 0.0957 c -0.0095,0.305342 -0.08488,0.46108 -0.08789,0.464843 -0.01045,0.01336 -0.01639,0.03711 -0.175781,0.03711 -0.10396,0 -0.08389,0.0056 -0.126953,-0.05664 -0.03707,-0.05366 -0.09961,-0.227598 -0.09961,-0.533203 0,-0.306483 0.06068,-0.488148 0.105469,-0.556641 0.04925,-0.07531 0.02243,-0.06055 0.105469,-0.06055 z m -5.90625,0.916016 c 0.303975,0 0.541015,0.237042 0.541016,0.541016 v 8.847656 c -1e-6,1.706796 1.394766,3.101562 3.101562,3.101562 h 13.53125 c 1.706796,0 3.101562,-1.394766 3.101562,-3.101562 V 29.224609 H 16.714844 c -0.303976,0 -0.541016,-0.23704 -0.541016,-0.541015 0,-0.303976 0.23704,-0.541016 0.541016,-0.541016 h 17.693359 c 0.303974,0 0.541016,0.237041 0.541016,0.541016 v 3.123047 c 0,1.739562 -1.403016,3.142578 -3.142578,3.142578 H 16.193359 c -1.739562,0 -3.142578,-1.403016 -3.142578,-3.142578 v -9.888672 c 0,-0.303974 0.237042,-0.541016 0.541016,-0.541016 z m 7.126953,0.02148 v 0.853516 l -0.132813,-0.326172 h -0.01953 c 0.06832,-0.164564 0.135249,-0.333915 0.152344,-0.527344 z m -0.08789,1.294922 -0.423828,0.232422 h -0.01563 c 0.131901,-0.108161 0.346483,-0.08494 0.439453,-0.232422 z m 2.25586,0.113282 c 0.09651,0.123253 0.283773,0.100923 0.408203,0.191406 h -0.01563 z m -0.251953,7.458984 c -0.701411,0 -1.28125,0.577886 -1.28125,1.279297 0,0.701411 0.579839,1.28125 1.28125,1.28125 h 2.730468 c 0.701411,0 1.28125,-0.579839 1.28125,-1.28125 0,-0.701411 -0.579839,-1.279297 -1.28125,-1.279297 z m -5.919922,1 h 2.732422 c 0.160349,0 0.279297,0.118948 0.279296,0.279297 0,0.160349 -0.118948,0.28125 -0.279296,0.28125 h -2.732422 c -0.160348,0 -0.28125,-0.120902 -0.28125,-0.28125 0,-0.160348 0.120901,-0.279297 0.28125,-0.279297 z m 5.919922,0 h 2.730468 c 0.160349,0 0.28125,0.118949 0.28125,0.279297 0,0.160348 -0.120901,0.28125 -0.28125,0.28125 h -2.730468 c -0.160349,0 -0.28125,-0.120902 -0.28125,-0.28125 0,-0.160348 0.120901,-0.279297 0.28125,-0.279297 z m 6.048828,0 h 2.732422 c 0.160349,0 0.279297,0.118948 0.279296,0.279297 0,0.160349 -0.118948,0.28125 -0.279296,0.28125 h -2.732422 c -0.160348,0 -0.28125,-0.120902 -0.28125,-0.28125 0,-0.160348 0.120901,-0.279297 0.28125,-0.279297 z"
     id="path7" />
</svg>
