<?xml version="1.0" encoding="UTF-8" standalone="no"?>
<!-- Generator: Gravit.io -->

<svg
   style="isolation:isolate"
   viewBox="0 0 48 48"
   width="48pt"
   height="48pt"
   version="1.1"
   id="svg28"
   sodipodi:docname="document-viewer.svg"
   inkscape:version="1.1.2 (0a00cf5339, 2022-02-04)"
   xmlns:inkscape="http://www.inkscape.org/namespaces/inkscape"
   xmlns:sodipodi="http://sodipodi.sourceforge.net/DTD/sodipodi-0.dtd"
   xmlns:xlink="http://www.w3.org/1999/xlink"
   xmlns="http://www.w3.org/2000/svg"
   xmlns:svg="http://www.w3.org/2000/svg">
  <defs
     id="defs32">
    <linearGradient
       inkscape:collect="always"
       xlink:href="#_lgradient_11"
       id="linearGradient872"
       x1="-12.025727"
       y1="6.1170783"
       x2="-0.085100174"
       y2="6.1170783"
       gradientUnits="userSpaceOnUse"
       gradientTransform="matrix(3.8358211,0,0,3.8371386,-0.00544243,-0.00268049)" />
    <linearGradient
       id="_lgradient_1"
       x1="0.18336116"
       y1="0.24917752"
       x2="0.9027437"
       y2="0.90347725"
       gradientTransform="matrix(24.617266,0,0,24.816118,10.841288,10.089605)"
       gradientUnits="userSpaceOnUse">
      <stop
         offset="2.608695652173913%"
         stop-opacity="1"
         style="stop-color:rgb(179,255,171)"
         id="stop2-3" />
      <stop
         offset="98.69565217391305%"
         stop-opacity="1"
         style="stop-color:rgb(18,255,247)"
         id="stop4-6" />
    </linearGradient>
    <linearGradient
       inkscape:collect="always"
       xlink:href="#_lgradient_11"
       id="linearGradient15"
       x1="-9.6850061"
       y1="45.161198"
       x2="11.98815"
       y2="21.735205"
       gradientUnits="userSpaceOnUse"
       gradientTransform="matrix(1.1147442,0,0,1.1150348,-0.00667852,-3.3298624)" />
    <linearGradient
       inkscape:collect="always"
       xlink:href="#_lgradient_11"
       id="linearGradient1340"
       x1="14.08916"
       y1="24.121712"
       x2="33.588978"
       y2="24.121712"
       gradientUnits="userSpaceOnUse" />
    <linearGradient
       inkscape:collect="always"
       xlink:href="#_lgradient_11"
       id="linearGradient1425"
       x1="25.256006"
       y1="30.279549"
       x2="36.018852"
       y2="30.279549"
       gradientUnits="userSpaceOnUse" />
  </defs>
  <sodipodi:namedview
     id="namedview30"
     pagecolor="#ffffff"
     bordercolor="#666666"
     borderopacity="1.0"
     inkscape:pageshadow="2"
     inkscape:pageopacity="0.0"
     inkscape:pagecheckerboard="0"
     inkscape:document-units="pt"
     showgrid="false"
     inkscape:zoom="9.90625"
     inkscape:cx="31.949527"
     inkscape:cy="32"
     inkscape:window-width="1600"
     inkscape:window-height="836"
     inkscape:window-x="0"
     inkscape:window-y="0"
     inkscape:window-maximized="1"
     inkscape:current-layer="svg28" />
  <linearGradient
     id="_lgradient_8"
     x1="0.22078557924020603"
     y1="0.04723996636961164"
     x2="0.9022490870014594"
     y2="0.9061460265379022"
     gradientTransform="matrix(6.8870283,0,0,4.1052251,27.194064,28.226936)"
     gradientUnits="userSpaceOnUse">
    <stop
       offset="2.608695652173913%"
       stop-opacity="1"
       style="stop-color:rgb(237,184,212)"
       id="stop2" />
    <stop
       offset="98.69565217391305%"
       stop-opacity="1"
       style="stop-color:rgb(162,110,245)"
       id="stop4" />
  </linearGradient>
  <rect
     x="-46.783188"
     y="1.2253768"
     height="45.80014"
     rx="6.1837621"
     shape-rendering="crispEdges"
     id="rect5-6-7-3"
     ry="6.8055277"
     transform="matrix(0.00524063,-0.99998627,0.99998801,0.00489691,0,0)"
     style="isolation:isolate;fill:#a600ff;fill-opacity:0.13470298;stroke:url(#linearGradient872);stroke-width:2.0301;stroke-miterlimit:4;stroke-dasharray:none;stroke-opacity:1"
     width="45.801998" />
  <rect
     x="-15.68111"
     y="17.258017"
     height="33.345856"
     rx="6.7920032"
     shape-rendering="crispEdges"
     id="rect5-6-6-6-6"
     style="isolation:isolate;fill:#a600ff;fill-opacity:0.13470298;stroke:url(#linearGradient15);stroke-width:1.67233;stroke-miterlimit:4;stroke-dasharray:none;stroke-opacity:1"
     ry="7.4743071"
     transform="matrix(0.72446484,-0.68931175,0.68622417,0.72739012,0,0)"
     width="33.338203" />
  <linearGradient
     id="_lgradient_9"
     x1="0.22078557924020603"
     y1="0.04723996636961164"
     x2="0.9022490870014594"
     y2="0.9061460265379022"
     gradientTransform="matrix(10.263063,0,0,10.263063,25.50579,25.148018)"
     gradientUnits="userSpaceOnUse">
    <stop
       offset="2.608695652173913%"
       stop-opacity="1"
       style="stop-color:rgb(237,184,212)"
       id="stop9" />
    <stop
       offset="98.69565217391305%"
       stop-opacity="1"
       style="stop-color:rgb(162,110,245)"
       id="stop11" />
  </linearGradient>
  <linearGradient
     id="_lgradient_10"
     x1="29.261122"
     y1="26.491774"
     x2="43.571712"
     y2="44.528618"
     gradientTransform="matrix(0.51314797,0,0,0.51315832,12.613331,11.806036)"
     gradientUnits="userSpaceOnUse"
     xlink:href="#_lgradient_9">
    <stop
       offset="2.608695652173913%"
       stop-opacity="1"
       style="stop-color:rgb(237,184,212)"
       id="stop14" />
    <stop
       offset="98.69565217391305%"
       stop-opacity="1"
       style="stop-color:rgb(162,110,245)"
       id="stop16" />
  </linearGradient>
  <path
     style="color:#000000;fill:url(#linearGradient1425);-inkscape-stroke:none"
     d="m 30.630859,24.898437 c -1.359234,10e-7 -2.669468,0.513795 -3.666015,1.435547 -0.996567,0.924461 -1.606912,2.191748 -1.707032,3.544922 -0.02974,0.392033 0.269992,0.738615 0.66211,0.767578 0.391804,0.0281 0.739734,-0.268876 0.769531,-0.660156 0.07434,-0.99398 0.518502,-1.923624 1.25,-2.601562 0.730929,-0.677859 1.693915,-1.054688 2.691406,-1.054688 1.047726,0 2.054349,0.418575 2.796875,1.158203 0.739831,0.741415 1.15625,1.74555 1.15625,2.791016 0,1.046017 -0.415688,2.051441 -1.15625,2.792969 -0.742526,0.739629 -1.749148,1.15625 -2.796875,1.15625 -0.392973,0 -0.716797,0.324068 -0.716797,0.716796 0,0.392729 0.323824,0.714844 0.716797,0.714844 1.427672,0 2.799518,-0.566957 3.810547,-1.574219 1.008791,-1.010405 1.578125,-2.38037 1.578125,-3.80664 0,-1.426269 -0.569334,-2.796236 -1.578125,-3.806641 -1.011029,-1.007261 -2.382875,-1.574219 -3.810547,-1.574219 z m 0,0.5 c 1.295118,0 2.539632,0.513754 3.457032,1.427735 0.915531,0.916997 1.43164,2.159686 1.43164,3.453125 0,1.293439 -0.516109,2.536128 -1.43164,3.453125 -0.9174,0.91398 -2.161914,1.427734 -3.457032,1.427734 -0.123258,0 -0.216796,-0.09237 -0.216797,-0.214844 0,-0.122476 0.09354,-0.216796 0.216797,-0.216796 1.180384,0 2.314459,-0.470064 3.150391,-1.302735 0.833789,-0.834877 1.302734,-1.967472 1.302734,-3.146484 0,-1.179013 -0.468945,-2.311607 -1.302734,-3.146485 -0.835932,-0.832669 -1.970007,-1.302734 -3.150391,-1.302734 -1.122854,0 -2.207326,0.423398 -3.03125,1.1875 -0.823912,0.763585 -1.326019,1.811225 -1.410156,2.929688 -0.0092,0.120267 -0.109822,0.209053 -0.232422,0.201171 -0.122062,-0.009 -0.210436,-0.110275 -0.201172,-0.232421 0.09078,-1.226958 0.644677,-2.376113 1.548828,-3.214844 0.904172,-0.83631 2.092961,-1.302734 3.326172,-1.302735 z m 0.0059,2.578125 c -1.406922,0 -2.671707,0.773462 -3.587891,1.990235 -0.139408,0.185224 -0.140674,0.439704 -0.002,0.625 h 0.002 c 0.916181,1.217837 2.180969,1.990234 3.587891,1.990234 1.406922,0 2.673632,-0.771471 3.589843,-1.988281 0.139409,-0.185224 0.138721,-0.441657 0,-0.626953 -0.916209,-1.217874 -2.182921,-1.990235 -3.589843,-1.990235 z m 0,0.5 c 1.224073,0 2.34463,0.668639 3.189453,1.791016 0.005,0.0066 0.0062,0.01971 0.002,0.02539 -0.844928,1.122139 -1.966881,1.789062 -3.191406,1.789062 -1.224524,0 -2.344494,-0.667851 -3.189453,-1.791015 -0.005,-0.0066 -0.0043,-0.01776 0,-0.02344 0.844956,-1.122177 1.964929,-1.791016 3.189453,-1.791016 z m -0.109375,0.107422 c -0.846881,0.05304 -1.532895,0.738503 -1.585938,1.585938 -0.06402,1.020112 0.788073,1.868725 1.806641,1.804687 0.845688,-0.05485 1.529129,-0.738298 1.583984,-1.583984 v -0.002 c 0.06402,-1.020113 -0.786119,-1.868725 -1.804687,-1.804688 z m 0.03125,0.5 c 0.728204,-0.04578 1.321186,0.543699 1.27539,1.273438 -0.0385,0.593593 -0.523823,1.079702 -1.117187,1.11914 -0.728203,0.04578 -1.321187,-0.545652 -1.275391,-1.27539 0.03728,-0.59555 0.52211,-1.079916 1.117188,-1.117188 z m 0.01367,0.167969 c -0.514009,0.03323 -0.929671,0.445605 -0.960938,0.960938 -0.04101,0.616487 0.476173,1.132684 1.091797,1.09375 0.513555,-0.03129 0.929685,-0.445144 0.962891,-0.960938 0.04101,-0.616487 -0.478126,-1.132684 -1.09375,-1.09375 z M 30.603516,29.75 c 0.325497,-0.02059 0.584094,0.237866 0.5625,0.5625 -0.01707,0.265225 -0.230881,0.47822 -0.492188,0.494141 h -0.002 c -0.325497,0.02059 -0.584095,-0.235912 -0.5625,-0.560547 v -0.002 c 0.01593,-0.262607 0.230208,-0.47708 0.494141,-0.494141 z m -4.492188,1.917969 c -0.353637,0.172121 -0.501069,0.60605 -0.328125,0.958984 0.502275,1.033883 1.32407,1.882493 2.341797,2.417969 0.347875,0.182146 0.785683,0.04658 0.96875,-0.300781 0.182424,-0.347626 0.04658,-0.785683 -0.300781,-0.96875 C 28.043302,33.38027 27.441558,32.761274 27.072266,32 v -0.002 c -0.172762,-0.353342 -0.605181,-0.501123 -0.958985,-0.330078 z m 0.21875,0.449218 c 0.111114,-0.05372 0.238916,-0.009 0.292969,0.101563 0.415885,0.856619 1.094765,1.555827 1.9375,2 0.108321,0.05709 0.146547,0.184915 0.08984,0.292969 -0.05759,0.106838 -0.184796,0.146482 -0.292969,0.08984 -0.924256,-0.486295 -1.669621,-1.254781 -2.125,-2.193359 v -0.002 c -0.05387,-0.10993 -0.0126,-0.235398 0.09766,-0.289063 z"
     id="path19" />
  <linearGradient
     id="_lgradient_11"
     x1="0.22078557924020603"
     y1="0.04723996636961164"
     x2="0.9022490870014594"
     y2="0.9061460265379022"
     gradientTransform="matrix(19.499819,0,0,22.578738,14.089159,12.832342)"
     gradientUnits="userSpaceOnUse">
    <stop
       offset="2.608695652173913%"
       stop-opacity="1"
       style="stop-color:rgb(237,184,212)"
       id="stop21" />
    <stop
       offset="98.69565217391305%"
       stop-opacity="1"
       style="stop-color:rgb(162,110,245)"
       id="stop23" />
  </linearGradient>
  <path
     style="color:#000000;fill:url(#linearGradient1340);fill-rule:evenodd;-inkscape-stroke:none"
     d="m 16.654297,12.332031 c -1.686832,0 -3.064453,1.379575 -3.064453,3.066407 v 17.447265 c 0,1.686833 1.377621,3.064453 3.064453,3.064453 h 7.185547 c 0.837052,0 1.52539,-0.688339 1.52539,-1.52539 0,-0.837052 -0.688338,-1.525391 -1.52539,-1.525391 h -6.158203 c -0.57925,0 -1.039063,-0.461767 -1.039063,-1.041016 V 16.423828 c 0,-0.57925 0.459813,-1.039062 1.039063,-1.039062 h 12.314453 c 0.57925,0 1.041015,0.459812 1.041015,1.039062 v 6.158203 c 0,0.837052 0.688339,1.527344 1.525391,1.527344 0.837052,0 1.527344,-0.690292 1.527344,-1.527344 v -7.183593 c 0,-1.686953 -1.379989,-3.066407 -3.066407,-3.066407 z m 0,1 h 14.36914 c 1.14516,0 2.066407,0.920758 2.066407,2.066407 v 7.183593 c 0,0.29599 -0.231355,0.527344 -0.527344,0.527344 -0.295989,0 -0.525391,-0.231354 -0.525391,-0.527344 v -6.158203 c 0,-1.120312 -0.920703,-2.039062 -2.041015,-2.039062 H 17.681641 c -1.120313,0 -2.039063,0.91875 -2.039063,2.039062 v 15.394531 c 0,1.120312 0.91875,2.041016 2.039063,2.041016 h 6.158203 c 0.295991,0 0.52539,0.2294 0.52539,0.525391 0,0.295989 -0.229399,0.52539 -0.52539,0.52539 h -7.185547 c -1.145769,0 -2.064453,-0.918682 -2.064453,-2.064453 V 15.398438 c 0,-1.14577 0.918684,-2.066407 2.064453,-2.066407 z m 1.347656,3.105469 c -0.695421,0 -1.269531,0.57411 -1.269531,1.269531 v 0.513672 c 0,0.695421 0.57411,1.269531 1.269531,1.269531 h 5.257813 c 0.695421,0 1.269531,-0.57411 1.269531,-1.269531 v -0.513672 c 0,-0.695421 -0.57411,-1.269531 -1.269531,-1.269531 z m 0,1 h 5.257813 c 0.154357,0 0.269531,0.115173 0.269531,0.269531 v 0.513672 c 0,0.154358 -0.115174,0.269531 -0.269531,0.269531 h -5.257813 c -0.154358,0 -0.269531,-0.115173 -0.269531,-0.269531 v -0.513672 c 0,-0.154358 0.115173,-0.269531 0.269531,-0.269531 z m 0,3.105469 c -0.695421,0 -1.269531,0.574109 -1.269531,1.269531 v 0.513672 c 0,0.695422 0.574111,1.269531 1.269531,1.269531 h 9.363281 c 0.695421,0 1.269532,-0.574109 1.269532,-1.269531 V 21.8125 c 0,-0.695422 -0.57411,-1.269531 -1.269532,-1.269531 z m 0,1 h 9.363281 c 0.15436,0 0.269532,0.115171 0.269532,0.269531 v 0.513672 c 0,0.154359 -0.115171,0.269531 -0.269532,0.269531 h -9.363281 c -0.154359,0 -0.269531,-0.115172 -0.269531,-0.269531 V 21.8125 c 0,-0.15436 0.115173,-0.269531 0.269531,-0.269531 z m 0,3.105468 c -0.695421,10e-7 -1.269531,0.57411 -1.269531,1.269532 v 0.513672 c 0,0.695421 0.57411,1.269531 1.269531,1.269531 h 6.285156 c 0.695422,0 1.269532,-0.57411 1.269532,-1.269531 v -0.513672 c 0,-0.695422 -0.57411,-1.269532 -1.269532,-1.269532 z m 0,1 h 6.285156 c 0.15436,0 0.269532,0.115172 0.269532,0.269532 v 0.513672 c 0,0.154359 -0.115172,0.269531 -0.269532,0.269531 h -6.285156 c -0.154358,0 -0.269531,-0.115172 -0.269531,-0.269531 v -0.513672 c 0,-0.15436 0.115173,-0.269532 0.269531,-0.269532 z"
     id="path26" />
</svg>
