<?xml version="1.0" encoding="UTF-8" standalone="no"?>
<!-- Generator: Gravit.io -->

<svg
   style="isolation:isolate"
   viewBox="0 0 48 48"
   width="48pt"
   height="48pt"
   version="1.1"
   id="svg9"
   sodipodi:docname="dolphin-emu.svg"
   inkscape:version="1.1.2 (0a00cf5339, 2022-02-04)"
   xmlns:inkscape="http://www.inkscape.org/namespaces/inkscape"
   xmlns:sodipodi="http://sodipodi.sourceforge.net/DTD/sodipodi-0.dtd"
   xmlns:xlink="http://www.w3.org/1999/xlink"
   xmlns="http://www.w3.org/2000/svg"
   xmlns:svg="http://www.w3.org/2000/svg">
  <defs
     id="defs13">
    <linearGradient
       inkscape:collect="always"
       xlink:href="#_lgradient_20"
       id="linearGradient15"
       x1="-9.6850061"
       y1="45.161198"
       x2="11.98815"
       y2="21.735205"
       gradientUnits="userSpaceOnUse"
       gradientTransform="matrix(1.1147442,0,0,1.1150348,-0.01237238,-3.3277956)" />
    <linearGradient
       id="_lgradient_1"
       x1="0"
       y1="0.5"
       x2="1"
       y2="0.5"
       gradientTransform="matrix(48,0,0,46.985,0.495,0.559)"
       gradientUnits="userSpaceOnUse">
      <stop
         offset="0%"
         stop-opacity="1"
         style="stop-color:rgb(255,229,59)"
         id="stop2-3" />
      <stop
         offset="98.69565217391305%"
         stop-opacity="1"
         style="stop-color:rgb(255,0,91)"
         id="stop4-6" />
    </linearGradient>
    <linearGradient
       inkscape:collect="always"
       xlink:href="#_lgradient_20"
       id="linearGradient872"
       x1="-12.025727"
       y1="6.1170783"
       x2="-0.085100174"
       y2="6.1170783"
       gradientUnits="userSpaceOnUse"
       gradientTransform="matrix(3.8358211,0,0,3.8371386,-0.00544341,-0.00268054)" />
    <linearGradient
       inkscape:collect="always"
       xlink:href="#_lgradient_20"
       id="linearGradient1094"
       x1="10.079138"
       y1="25.18824"
       x2="39.360653"
       y2="25.18824"
       gradientUnits="userSpaceOnUse" />
  </defs>
  <sodipodi:namedview
     id="namedview11"
     pagecolor="#ffffff"
     bordercolor="#666666"
     borderopacity="1.0"
     inkscape:pageshadow="2"
     inkscape:pageopacity="0.0"
     inkscape:pagecheckerboard="0"
     inkscape:document-units="pt"
     showgrid="false"
     inkscape:zoom="5.109375"
     inkscape:cx="32"
     inkscape:cy="32.097859"
     inkscape:window-width="1600"
     inkscape:window-height="836"
     inkscape:window-x="0"
     inkscape:window-y="0"
     inkscape:window-maximized="1"
     inkscape:current-layer="svg9" />
  <linearGradient
     id="_lgradient_20"
     x1="0"
     y1="0.5"
     x2="1"
     y2="0.5"
     gradientTransform="matrix(31.122289,7.395332,-3.9071854,16.443753,12.146209,11.95952)"
     gradientUnits="userSpaceOnUse">
    <stop
       offset="0%"
       stop-opacity="1"
       style="stop-color:rgb(178,254,250)"
       id="stop2" />
    <stop
       offset="98.26086956521739%"
       stop-opacity="1"
       style="stop-color:rgb(14,210,247)"
       id="stop4" />
  </linearGradient>
  <rect
     x="-46.783188"
     y="1.2253767"
     height="45.80014"
     rx="6.1837621"
     shape-rendering="crispEdges"
     id="rect5-6-7-3"
     ry="6.8055277"
     transform="matrix(0.00524063,-0.99998627,0.99998801,0.00489691,0,0)"
     style="isolation:isolate;fill:#00dfff;fill-opacity:0.13470298;stroke:url(#linearGradient872);stroke-width:2.0301;stroke-miterlimit:4;stroke-dasharray:none;stroke-opacity:1"
     width="45.801998" />
  <rect
     x="-15.686804"
     y="17.260084"
     height="33.345856"
     rx="6.7920032"
     shape-rendering="crispEdges"
     id="rect5-6-6-6-6"
     style="isolation:isolate;fill:#00dfff;fill-opacity:0.13470298;stroke:url(#linearGradient15);stroke-width:1.67233;stroke-miterlimit:4;stroke-dasharray:none;stroke-opacity:1"
     ry="7.4743071"
     transform="matrix(0.72446484,-0.68931175,0.68622417,0.72739012,0,0)"
     width="33.338203" />
  <path
     style="color:#000000;fill:url(#linearGradient1094);-inkscape-stroke:none"
     d="m 20.042969,14.076172 c -1.905334,-0.04455 -3.55274,0.264816 -4.746094,0.732422 -1.531283,0.599825 -2.431156,1.357664 -2.980469,2.078125 -0.549313,0.720461 -0.761364,1.402519 -0.917968,1.701172 0.0039,-0.0074 -0.124376,0.146496 -0.3125,0.298828 -0.188125,0.152331 -0.430922,0.328472 -0.666016,0.523437 -0.235094,0.194966 -0.4668184,0.403279 -0.6406251,0.675781 -0.1734884,0.272004 -0.2762186,0.691085 -0.1015625,1.054688 0.1399708,0.289799 0.4259056,0.439022 0.6679686,0.496094 0.242063,0.05707 0.481137,0.05605 0.730469,0.03906 0.498664,-0.03397 1.040872,-0.146273 1.498047,-0.21875 1.048637,-0.165539 1.017702,-0.336112 3.55664,-0.11914 1.048684,0.08943 2.098051,0.297987 2.951172,0.486328 0.22823,0.937499 0.723491,2.45988 2.0625,3.550781 1.916063,1.560447 4.517578,2.144531 4.517578,2.144531 l 0.408203,-0.892578 c 0,0 -1.25802,-0.938895 -1.855468,-1.908203 -0.200597,-0.325449 -0.120574,-0.696353 -0.13086,-1.082031 1.170296,0.525181 2.188278,0.937888 4.533203,2.539062 2.358085,1.609793 3.78711,3.472657 3.78711,3.472656 l 0.847656,-0.519531 c 0,0 -0.05285,-0.08602 -0.05469,-0.08984 -0.06894,-0.143466 -1.379877,-2.852974 -4.19336,-5.18164 C 26.674881,21.92946 24.600703,20.73798 21.619141,19.875 c -2.795657,-0.809329 -4.402214,-0.895672 -4.980469,-0.943359 0.03815,-0.04183 0.0056,-0.02685 0.05469,-0.07422 0.368971,-0.356044 1.052249,-0.807686 2.332032,-1.074219 2.182781,-0.454697 5.477972,0.126985 9.003906,1.976563 4.990471,2.617499 6.161198,5.242897 7.927734,8.251953 1.794948,3.058631 2.916016,7.898437 2.916016,7.898437 l 0.986328,-0.134765 c 0,0 -0.0136,-0.08639 -0.01367,-0.08789 h 0.002 c 0,0 -0.0058,-0.01942 -0.0059,-0.01953 -0.0049,-0.103139 -0.109717,-2.443858 -0.78125,-4.935547 -0.810031,-3.003433 -1.617972,-5.260219 -3.25,-7.720703 -0.518671,-0.78124 -1.022849,-1.496558 -1.572266,-2.166016 l -0.679687,0.617188 0.669922,-0.628907 c 0,0 -0.0023,-0.0013 -0.0078,-0.0078 -0.0048,-0.0059 -0.0095,-0.01065 -0.01367,-0.01563 -0.0022,-0.0027 -0.0038,-0.0073 -0.0059,-0.0098 -0.07939,-0.09821 -0.305223,-0.404783 -0.429688,-0.736328 -0.124465,-0.331545 -0.153393,-0.622601 0.02539,-0.884766 0.162099,-0.237467 0.791128,-0.491654 1.412109,-0.585937 0.620981,-0.09428 1.173828,-0.08008 1.173828,-0.08008 l 1.833985,0.05273 -1.552735,-0.976562 c 0,0 -1.122701,-0.693012 -3.160156,-1.041016 -1.006965,-0.172032 -1.990745,-0.07305 -2.769531,0.07227 -0.389393,0.07266 -0.727002,0.157222 -0.988281,0.228515 -0.179382,0.04895 -0.25342,0.07058 -0.341797,0.0957 -0.890082,-0.490868 -1.881395,-0.978934 -3.06836,-1.482421 -2.224865,-0.944382 -4.387635,-1.342167 -6.292968,-1.386719 z m -0.03711,1.011719 c 1.786402,0.0397 3.838098,0.402966 5.939453,1.294921 1.237468,0.52491 2.277386,1.028541 3.167969,1.529297 l 0.166016,0.0957 0.189453,-0.04297 c 0.141491,-0.03198 0.294384,-0.08363 0.539062,-0.150391 0.244679,-0.06676 0.556541,-0.144956 0.910157,-0.210937 0.70723,-0.131963 1.583471,-0.21288 2.417968,-0.07031 0.58662,0.100197 0.469546,0.156259 0.869141,0.28125 -0.474515,0.144649 -0.931163,0.356589 -1.234375,0.800781 -0.411971,0.604105 -0.32429,1.301138 -0.136719,1.800782 0.187571,0.499644 0.471894,0.867765 0.589844,1.013671 l 0.002,0.002 0.002,0.0039 c 0.0096,0.01155 0.01534,0.01812 0.01953,0.02344 l 0.0059,0.0078 0.0078,0.0078 c 0.0026,0.0031 0.0017,0.0033 0.0039,0.0059 0.518041,0.631227 1.002656,1.317216 1.511718,2.083984 1.178191,1.776269 1.867972,3.522147 2.494141,5.492188 -0.245131,-0.52706 -0.370956,-1.07129 -0.652344,-1.550782 -1.736984,-2.958718 -3.141154,-5.914298 -8.324218,-8.632812 -3.673327,-1.926895 -7.136308,-2.598499 -9.671875,-2.070313 -1.433716,0.298593 -2.310742,0.84045 -2.824219,1.335938 -0.513477,0.495488 -0.675781,1.001953 -0.675781,1.001953 l -0.171875,0.599609 0.621093,0.03711 c 0,0 2.42482,0.148554 5.56836,1.058593 2.867036,0.829832 4.762932,1.920111 7.02539,3.792969 0.220145,0.182209 0.288892,0.35058 0.490235,0.53711 -2.468062,-1.647588 -3.847265,-2.298851 -5.152344,-2.882813 l -0.01563,-0.0078 -0.582031,-0.216797 -0.103516,0.591797 c -0.104101,0.590614 -0.213959,1.658448 0.361328,2.591796 0.174876,0.283721 0.272674,0.256032 0.486328,0.501954 -0.691637,-0.305393 -1.431748,-0.621302 -2.074218,-1.144532 -1.171831,-0.954699 -1.666679,-2.560478 -1.828125,-3.322265 l -0.06641,-0.3125 -0.3125,-0.07227 c -0.908322,-0.20756 -2.136692,-0.448964 -3.353515,-0.552734 -2.589479,-0.221291 -2.856682,-0.01951 -3.796875,0.128906 -0.488546,0.07745 -1.01577,0.182249 -1.408203,0.208984 -0.184738,0.01259 -0.327709,0.0022 -0.408203,-0.01367 0.0039,-0.0063 -0.01167,0.01096 0.02148,-0.04102 0.06819,-0.106911 0.232861,-0.275271 0.435547,-0.44336 0.202685,-0.168088 0.439312,-0.341915 0.65625,-0.517578 0.216938,-0.175663 0.420639,-0.327753 0.568359,-0.609375 0.243212,-0.463818 0.388789,-0.982374 0.828125,-1.558593 0.439336,-0.57622 1.159046,-1.210697 2.550781,-1.75586 1.037033,-0.406352 2.557348,-0.690094 4.34375,-0.65039 z"
     id="path7" />
</svg>
