<?xml version="1.0" encoding="UTF-8" standalone="no"?>
<!-- Generator: Gravit.io -->

<svg
   style="isolation:isolate"
   viewBox="0 0 48 48"
   width="48pt"
   height="48pt"
   version="1.1"
   id="svg16"
   sodipodi:docname="doublecmd.svg"
   inkscape:version="1.1.2 (0a00cf5339, 2022-02-04)"
   xmlns:inkscape="http://www.inkscape.org/namespaces/inkscape"
   xmlns:sodipodi="http://sodipodi.sourceforge.net/DTD/sodipodi-0.dtd"
   xmlns:xlink="http://www.w3.org/1999/xlink"
   xmlns="http://www.w3.org/2000/svg"
   xmlns:svg="http://www.w3.org/2000/svg">
  <defs
     id="defs20">
    <linearGradient
       inkscape:collect="always"
       xlink:href="#_lgradient_1"
       id="linearGradient872"
       x1="-12.025727"
       y1="6.1170783"
       x2="-0.085100174"
       y2="6.1170783"
       gradientUnits="userSpaceOnUse"
       gradientTransform="matrix(3.8358211,0,0,3.8371386,-0.00544341,-0.00268054)" />
    <linearGradient
       id="_lgradient_1-3"
       x1="0.18336116"
       y1="0.24917752"
       x2="0.9027437"
       y2="0.90347725"
       gradientTransform="matrix(24.617266,0,0,24.816118,10.841288,10.089605)"
       gradientUnits="userSpaceOnUse">
      <stop
         offset="2.608695652173913%"
         stop-opacity="1"
         style="stop-color:rgb(179,255,171)"
         id="stop2-6" />
      <stop
         offset="98.69565217391305%"
         stop-opacity="1"
         style="stop-color:rgb(18,255,247)"
         id="stop4-7" />
    </linearGradient>
    <linearGradient
       inkscape:collect="always"
       xlink:href="#_lgradient_1"
       id="linearGradient15"
       x1="-9.6850061"
       y1="45.161198"
       x2="11.98815"
       y2="21.735205"
       gradientUnits="userSpaceOnUse"
       gradientTransform="matrix(1.1147442,0,0,1.1150348,-0.01237238,-3.3277956)" />
    <linearGradient
       inkscape:collect="always"
       xlink:href="#_lgradient_1"
       id="linearGradient1387"
       x1="11.503624"
       y1="24"
       x2="36.496376"
       y2="24"
       gradientUnits="userSpaceOnUse"
       gradientTransform="scale(1.3333333)" />
    <linearGradient
       id="linearGradient1457"
       x1="0"
       y1="0.5"
       x2="1"
       y2="0.5"
       gradientTransform="matrix(25.573878,0,0,16.274237,11.213061,15.862609)"
       gradientUnits="userSpaceOnUse">
      <stop
         offset="0%"
         stop-opacity="1"
         style="stop-color:rgb(80,201,195)"
         id="stop9-5" />
      <stop
         offset="98.33333333333333%"
         stop-opacity="1"
         style="stop-color:rgb(150,222,218)"
         id="stop11-3" />
    </linearGradient>
    <linearGradient
       inkscape:collect="always"
       xlink:href="#_lgradient_2"
       id="linearGradient1471"
       x1="11.213061"
       y1="24"
       x2="36.786938"
       y2="24"
       gradientUnits="userSpaceOnUse" />
  </defs>
  <sodipodi:namedview
     id="namedview18"
     pagecolor="#ffffff"
     bordercolor="#666666"
     borderopacity="1.0"
     inkscape:pageshadow="2"
     inkscape:pageopacity="0.0"
     inkscape:pagecheckerboard="0"
     inkscape:document-units="pt"
     showgrid="false"
     inkscape:zoom="5.109375"
     inkscape:cx="32"
     inkscape:cy="32.097859"
     inkscape:window-width="1600"
     inkscape:window-height="836"
     inkscape:window-x="0"
     inkscape:window-y="0"
     inkscape:window-maximized="1"
     inkscape:current-layer="svg16" />
  <linearGradient
     id="_lgradient_1"
     x1="0"
     y1="0.5"
     x2="1"
     y2="0.5"
     gradientTransform="matrix(24.992753,0,0,24.992753,11.503623,11.503623)"
     gradientUnits="userSpaceOnUse">
    <stop
       offset="0%"
       stop-opacity="1"
       style="stop-color:rgb(255,229,59)"
       id="stop2" />
    <stop
       offset="98.69565217391305%"
       stop-opacity="1"
       style="stop-color:rgb(255,0,91)"
       id="stop4" />
  </linearGradient>
  <g
     id="g850">
    <rect
       x="-46.783188"
       y="1.2253767"
       height="45.80014"
       rx="6.1837621"
       shape-rendering="crispEdges"
       id="rect5-6-7-3"
       ry="6.8055277"
       transform="matrix(0.00524063,-0.99998627,0.99998801,0.00489691,0,0)"
       style="isolation:isolate;fill:#ff008c;fill-opacity:0.134703;stroke:url(#linearGradient872);stroke-width:2.0301;stroke-miterlimit:4;stroke-dasharray:none;stroke-opacity:1"
       width="45.801998" />
    <rect
       x="-15.686804"
       y="17.260084"
       height="33.345856"
       rx="6.7920032"
       shape-rendering="crispEdges"
       id="rect5-6-6-6-6"
       style="isolation:isolate;fill:#ff008c;fill-opacity:0.134703;stroke:url(#linearGradient15);stroke-width:1.67233;stroke-miterlimit:4;stroke-dasharray:none;stroke-opacity:1"
       ry="7.4743071"
       transform="matrix(0.72446484,-0.68931175,0.68622417,0.72739012,0,0)"
       width="33.338203" />
  </g>
  <path
     id="path7"
     style="color:#000000;fill:url(#linearGradient1387);fill-rule:evenodd;stroke-width:1.33333;-inkscape-stroke:none"
     d="M 25.798828 14.671875 C 22.847527 14.671875 20.014142 15.842096 17.927734 17.927734 C 16.98647 18.869346 16.232295 19.96398 15.6875 21.152344 C 15.700376 21.151893 15.711278 21.150391 15.724609 21.150391 L 17.175781 21.150391 C 17.622837 20.318846 18.190263 19.54827 18.869141 18.869141 C 20.704781 17.034179 23.200061 16.005859 25.798828 16.005859 L 38.201172 16.005859 C 40.799939 16.005859 43.295219 17.034179 45.130859 18.869141 C 45.809737 19.54827 46.377163 20.318846 46.824219 21.150391 L 48.275391 21.150391 C 48.288722 21.150391 48.299624 21.151893 48.3125 21.152344 C 47.767705 19.96398 47.01353 18.869346 46.072266 17.927734 C 43.985858 15.842096 41.152473 14.671875 38.201172 14.671875 L 25.798828 14.671875 z M 25.798828 16.998047 C 23.467993 16.998047 21.224437 17.925737 19.580078 19.578125 C 19.09822 20.057237 18.679959 20.587953 18.326172 21.15625 C 18.844473 21.169198 19.353768 21.219535 19.851562 21.302734 C 20.058047 21.030355 20.276743 20.766784 20.521484 20.523438 L 20.521484 20.521484 L 20.523438 20.521484 C 21.915787 19.121152 23.821425 18.330078 25.798828 18.330078 L 38.201172 18.330078 C 40.178575 18.330078 42.084213 19.121152 43.476562 20.521484 L 43.478516 20.521484 L 43.478516 20.523438 C 43.723257 20.766784 43.941953 21.030355 44.148438 21.302734 C 44.645607 21.219639 45.154247 21.169273 45.671875 21.15625 C 45.318859 20.589367 44.902353 20.058221 44.421875 19.580078 C 42.777284 17.926058 40.533233 16.998047 38.201172 16.998047 L 25.798828 16.998047 z M 14.951172 23.330078 C 14.768593 24.134378 14.671875 24.96131 14.671875 25.798828 L 14.671875 38.201172 C 14.671875 39.03869 14.768593 39.865622 14.951172 40.669922 L 14.951172 40.525391 C 14.951172 40.525391 14.949776 39.75 15.724609 39.75 L 16.130859 39.75 C 16.049542 39.240701 16.005859 38.723339 16.005859 38.201172 L 16.005859 25.798828 C 16.005859 25.276661 16.049542 24.759299 16.130859 24.25 L 15.724609 24.25 C 14.949776 24.25 14.951172 23.474609 14.951172 23.474609 L 14.951172 23.330078 z M 49.048828 23.330078 L 49.048828 23.474609 C 49.048828 23.474609 49.050224 24.25 48.275391 24.25 L 47.869141 24.25 C 47.950458 24.759299 47.994141 25.276661 47.994141 25.798828 L 47.994141 38.201172 C 47.994141 38.723339 47.950458 39.240701 47.869141 39.75 L 48.275391 39.75 C 49.050224 39.75 49.048828 40.525391 49.048828 40.525391 L 49.048828 40.669922 C 49.231407 39.865622 49.328125 39.03869 49.328125 38.201172 L 49.328125 25.798828 C 49.328125 24.96131 49.231407 24.134378 49.048828 23.330078 z M 17.136719 24.25 C 17.045614 24.758248 16.998047 25.276022 16.998047 25.798828 L 16.998047 38.201172 C 16.998047 38.724085 17.045577 39.241652 17.136719 39.75 L 17.275391 39.75 L 18.050781 39.75 C 18.19976 39.75 18.347236 39.744626 18.494141 39.736328 C 18.388343 39.234613 18.330078 38.720738 18.330078 38.201172 L 18.330078 25.798828 C 18.330078 25.279262 18.388342 24.765386 18.494141 24.263672 C 18.347236 24.255374 18.19976 24.25 18.050781 24.25 L 17.136719 24.25 z M 45.949219 24.25 C 45.80024 24.25 45.652764 24.255374 45.505859 24.263672 C 45.611658 24.765386 45.669922 25.279262 45.669922 25.798828 L 45.669922 38.201172 C 45.669922 38.720738 45.611658 39.234614 45.505859 39.736328 C 45.652764 39.744626 45.80024 39.75 45.949219 39.75 L 46.724609 39.75 L 46.863281 39.75 C 46.954423 39.241652 47.001953 38.724085 47.001953 38.201172 L 47.001953 25.798828 C 47.001953 25.275915 46.954423 24.758348 46.863281 24.25 L 45.949219 24.25 z M 19.851562 42.697266 C 19.354393 42.780361 18.845753 42.830727 18.328125 42.84375 C 18.681141 43.410633 19.097647 43.941779 19.578125 44.419922 C 19.578125 44.419922 19.580078 44.419922 19.580078 44.419922 C 19.580078 44.419922 19.580078 44.421875 19.580078 44.421875 C 21.224437 46.074263 23.467993 47.001953 25.798828 47.001953 L 38.201172 47.001953 C 40.532007 47.001953 42.775563 46.074263 44.419922 44.421875 L 44.421875 44.419922 C 44.902353 43.941779 45.318859 43.410633 45.671875 42.84375 C 45.154247 42.830727 44.645607 42.780361 44.148438 42.697266 C 43.941953 42.969645 43.723257 43.233216 43.478516 43.476562 L 43.478516 43.478516 L 43.476562 43.478516 C 42.084213 44.878848 40.178575 45.669922 38.201172 45.669922 L 25.798828 45.669922 C 23.821425 45.669922 21.915787 44.878848 20.523438 43.478516 L 20.521484 43.478516 L 20.521484 43.476562 C 20.276754 43.233205 20.058039 42.969653 19.851562 42.697266 z M 15.6875 42.847656 C 16.232295 44.03602 16.98647 45.130654 17.927734 46.072266 C 20.014142 48.157904 22.847527 49.328125 25.798828 49.328125 L 38.201172 49.328125 C 41.152473 49.328125 43.985858 48.157904 46.072266 46.072266 C 47.01353 45.130654 47.767705 44.03602 48.3125 42.847656 C 48.299624 42.848107 48.288722 42.849609 48.275391 42.849609 L 46.824219 42.849609 C 46.377163 43.681154 45.809737 44.45173 45.130859 45.130859 C 43.295219 46.965821 40.799939 47.994141 38.201172 47.994141 L 25.798828 47.994141 C 23.200061 47.994141 20.704781 46.965821 18.869141 45.130859 C 18.190263 44.45173 17.622837 43.681154 17.175781 42.849609 L 15.724609 42.849609 C 15.711278 42.849609 15.700376 42.848107 15.6875 42.847656 z "
     transform="scale(0.75)" />
  <linearGradient
     id="_lgradient_2"
     x1="0"
     y1="0.5"
     x2="1"
     y2="0.5"
     gradientTransform="matrix(25.573878,0,0,16.274237,11.213061,15.862609)"
     gradientUnits="userSpaceOnUse">
    <stop
       offset="0%"
       stop-opacity="1"
       style="stop-color:rgb(80,201,195)"
       id="stop9" />
    <stop
       offset="98.33333333333333%"
       stop-opacity="1"
       style="stop-color:rgb(150,222,218)"
       id="stop11" />
  </linearGradient>
  <path
     style="color:#000000;fill:url(#linearGradient1471);fill-rule:evenodd;-inkscape-stroke:none"
     d="m 11.794922,15.363281 c -0.457385,0 -0.82484,0.301777 -0.957031,0.566407 -0.132191,0.264629 -0.125,0.513671 -0.125,0.513671 v 1.164063 c 0,0 -0.0073,0.249134 0.125,0.513672 0.132268,0.264538 0.499802,0.566406 0.957031,0.566406 h 1.744141 c 2.939519,0 5.310546,2.372981 5.310546,5.3125 0,2.939519 -2.371027,5.3125 -5.310546,5.3125 h -0.582032 -1.162109 c -0.457229,0 -0.824763,0.301868 -0.957031,0.566406 -0.132269,0.264538 -0.125,0.513672 -0.125,0.513672 v 1.164063 c 0,0 -0.0072,0.249042 0.125,0.513671 0.132191,0.26463 0.499646,0.566407 0.957031,0.566407 h 1.744141 c 4.764174,0 8.636718,-3.872584 8.636718,-8.636719 0,-4.764135 -3.872544,-8.636719 -8.636718,-8.636719 z m 22.666015,0 c -4.764174,0 -8.636718,3.872584 -8.636718,8.636719 0,4.764135 3.872544,8.636719 8.636718,8.636719 h 1.744141 c 0.457385,0 0.82484,-0.301777 0.957031,-0.566407 0.132191,-0.264629 0.125,-0.513671 0.125,-0.513671 v -1.164063 c 0,0 0.0073,-0.249134 -0.125,-0.513672 C 37.029841,29.614368 36.662307,29.3125 36.205078,29.3125 h -1.162109 -0.582032 c -2.939519,0 -5.310546,-2.372981 -5.310546,-5.3125 0,-2.939519 2.371027,-5.3125 5.310546,-5.3125 h 1.744141 c 0.457229,0 0.824763,-0.301868 0.957031,-0.566406 0.132269,-0.264538 0.125,-0.513672 0.125,-0.513672 v -1.164063 c 0,0 0.0072,-0.249042 -0.125,-0.513671 -0.132191,-0.26463 -0.499646,-0.566407 -0.957031,-0.566407 z m -22.666015,1 h 1.744141 c 4.223674,0 7.636718,3.413005 7.636718,7.636719 0,4.223714 -3.413044,7.636719 -7.636718,7.636719 h -1.744141 c -0.12374,0 -0.04941,0.01253 -0.0625,-0.01367 -0.01309,-0.02621 -0.01953,-0.06641 -0.01953,-0.06641 v -1.164063 c 0,0 0.0065,-0.04038 0.01953,-0.06641 0.01301,-0.02603 -0.0614,-0.01367 0.0625,-0.01367 h 1.162109 0.582032 c 3.480062,0 6.310546,-2.832438 6.310546,-6.3125 0,-3.480062 -2.830484,-6.3125 -6.310546,-6.3125 h -1.744141 c -0.123896,0 -0.04949,0.01235 -0.0625,-0.01367 -0.01301,-0.02602 -0.01953,-0.06641 -0.01953,-0.06641 v -1.164063 c 0,0 0.0064,-0.0402 0.01953,-0.06641 0.01309,-0.02621 -0.06124,-0.01367 0.0625,-0.01367 z m 22.666015,0 h 1.744141 c 0.12374,0 0.04941,-0.01253 0.0625,0.01367 0.01309,0.02621 0.01953,0.06641 0.01953,0.06641 v 1.164063 c 0,0 -0.0065,0.04038 -0.01953,0.06641 -0.01301,0.02603 0.0614,0.01367 -0.0625,0.01367 h -1.744141 c -3.480062,0 -6.310546,2.832438 -6.310546,6.3125 0,3.480062 2.830484,6.3125 6.310546,6.3125 h 0.582032 1.162109 c 0.123896,0 0.04949,-0.01235 0.0625,0.01367 0.01301,0.02602 0.01953,0.06641 0.01953,0.06641 v 1.164063 c 0,0 -0.0064,0.0402 -0.01953,0.06641 -0.01309,0.02621 0.06124,0.01367 -0.0625,0.01367 h -1.744141 c -4.223674,0 -7.636718,-3.413005 -7.636718,-7.636719 0,-4.223714 3.413044,-7.636719 7.636718,-7.636719 z"
     id="path14" />
</svg>
