<?xml version="1.0" encoding="UTF-8" standalone="no"?>
<!-- Generator: Gravit.io -->

<svg
   style="isolation:isolate"
   viewBox="0 0 48 48"
   width="48pt"
   height="48pt"
   version="1.1"
   id="svg31"
   sodipodi:docname="dragonplayer.svg"
   inkscape:version="1.1.2 (0a00cf5339, 2022-02-04)"
   xmlns:inkscape="http://www.inkscape.org/namespaces/inkscape"
   xmlns:sodipodi="http://sodipodi.sourceforge.net/DTD/sodipodi-0.dtd"
   xmlns:xlink="http://www.w3.org/1999/xlink"
   xmlns="http://www.w3.org/2000/svg"
   xmlns:svg="http://www.w3.org/2000/svg">
  <defs
     id="defs35">
    <linearGradient
       inkscape:collect="always"
       id="linearGradient1145">
      <stop
         style="stop-color:#df57ff;stop-opacity:1;"
         offset="0"
         id="stop1141" />
      <stop
         style="stop-color:#0d03fd;stop-opacity:1"
         offset="0.47059754"
         id="stop1443" />
      <stop
         style="stop-color:#008dfe;stop-opacity:1"
         offset="1"
         id="stop1143" />
    </linearGradient>
    <linearGradient
       inkscape:collect="always"
       id="linearGradient867">
      <stop
         style="stop-color:#5433ff;stop-opacity:1;"
         offset="0"
         id="stop863" />
      <stop
         style="stop-color:#77fffa;stop-opacity:1"
         offset="1"
         id="stop865" />
    </linearGradient>
    <linearGradient
       inkscape:collect="always"
       xlink:href="#_lgradient_9"
       id="linearGradient872"
       x1="-12.025727"
       y1="6.1170783"
       x2="-0.085100174"
       y2="6.1170783"
       gradientUnits="userSpaceOnUse"
       gradientTransform="matrix(3.8358211,0,0,3.8371386,-0.00544341,-0.00268054)" />
    <linearGradient
       id="_lgradient_1"
       x1="0.18336116"
       y1="0.24917752"
       x2="0.9027437"
       y2="0.90347725"
       gradientTransform="matrix(24.617266,0,0,24.816118,10.841288,10.089605)"
       gradientUnits="userSpaceOnUse">
      <stop
         offset="2.608695652173913%"
         stop-opacity="1"
         style="stop-color:rgb(179,255,171)"
         id="stop2-6" />
      <stop
         offset="98.69565217391305%"
         stop-opacity="1"
         style="stop-color:rgb(18,255,247)"
         id="stop4-7" />
    </linearGradient>
    <linearGradient
       inkscape:collect="always"
       xlink:href="#_lgradient_9"
       id="linearGradient15"
       x1="-9.6850061"
       y1="45.161198"
       x2="11.98815"
       y2="21.735205"
       gradientUnits="userSpaceOnUse"
       gradientTransform="matrix(1.1147442,0,0,1.1150348,-0.01237238,-3.3277956)" />
    <linearGradient
       inkscape:collect="always"
       xlink:href="#_lgradient_8"
       id="linearGradient1111"
       x1="23.653454"
       y1="25.741156"
       x2="31.735744"
       y2="38.182049"
       gradientUnits="userSpaceOnUse"
       gradientTransform="scale(1.3333333)" />
    <linearGradient
       id="_lgradient_9"
       x1="-0.11677156"
       y1="0.12102552"
       x2="1.0186911"
       y2="0.59743989"
       gradientTransform="matrix(14.414,0,0,28.923,10.095,19.945)"
       gradientUnits="userSpaceOnUse">
      <stop
         offset="1.3043478260869565%"
         stop-opacity="1"
         style="stop-color:rgb(223,87,255)"
         id="stop11" />
      <stop
         offset="52.083333333333336%"
         stop-opacity="1"
         style="stop-color:rgb(36,30,252)"
         id="stop13" />
      <stop
         offset="97.91666666666666%"
         stop-opacity="1"
         style="stop-color:rgb(14,175,254)"
         id="stop15" />
    </linearGradient>
    <linearGradient
       id="_lgradient_10"
       x1="0"
       y1="0.5"
       x2="1"
       y2="0.5"
       gradientTransform="matrix(23.586839,0,0,29.567817,9.8073987,6.8224383)"
       gradientUnits="userSpaceOnUse">
      <stop
         offset="0%"
         stop-opacity="1"
         style="stop-color:rgb(84,51,255)"
         id="stop20" />
      <stop
         offset="51.73913043478261%"
         stop-opacity="1"
         style="stop-color:rgb(32,189,255)"
         id="stop22" />
      <stop
         offset="98.26086956521739%"
         stop-opacity="1"
         style="stop-color:rgb(165,254,203)"
         id="stop24" />
    </linearGradient>
    <linearGradient
       inkscape:collect="always"
       xlink:href="#linearGradient867"
       id="linearGradient869"
       x1="9.3071501"
       y1="22.143037"
       x2="33.896806"
       y2="22.143037"
       gradientUnits="userSpaceOnUse" />
    <linearGradient
       inkscape:collect="always"
       xlink:href="#linearGradient1145"
       id="linearGradient1147"
       x1="17.149029"
       y1="23.810471"
       x2="24.398438"
       y2="32.150391"
       gradientUnits="userSpaceOnUse" />
  </defs>
  <sodipodi:namedview
     id="namedview33"
     pagecolor="#ffffff"
     bordercolor="#666666"
     borderopacity="1.0"
     inkscape:pageshadow="2"
     inkscape:pageopacity="0.0"
     inkscape:pagecheckerboard="0"
     inkscape:document-units="pt"
     showgrid="false"
     inkscape:zoom="20.4375"
     inkscape:cx="31.388379"
     inkscape:cy="38.360856"
     inkscape:window-width="1600"
     inkscape:window-height="836"
     inkscape:window-x="0"
     inkscape:window-y="0"
     inkscape:window-maximized="1"
     inkscape:current-layer="svg31" />
  <linearGradient
     id="_lgradient_8"
     x1="0.3264126712329031"
     y1="0.11298701298701275"
     x2="0.700861468056673"
     y2="1.2787150902195146"
     gradientTransform="matrix(21.584506,0,0,10.672208,16.607997,24.535334)"
     gradientUnits="userSpaceOnUse">
    <stop
       offset="0%"
       stop-opacity="1"
       style="stop-color:rgb(84,51,255)"
       id="stop2" />
    <stop
       offset="51.73913043478261%"
       stop-opacity="1"
       style="stop-color:rgb(32,189,255)"
       id="stop4" />
    <stop
       offset="98.26086956521739%"
       stop-opacity="1"
       style="stop-color:rgb(165,254,203)"
       id="stop6" />
  </linearGradient>
  <rect
     x="-46.783188"
     y="1.2253767"
     height="45.80014"
     rx="6.1837621"
     shape-rendering="crispEdges"
     id="rect5-6-7-3"
     ry="6.8055277"
     transform="matrix(0.00524063,-0.99998627,0.99998801,0.00489691,0,0)"
     style="isolation:isolate;fill:#00c3ff;fill-opacity:0.13470298;stroke:url(#linearGradient872);stroke-width:2.0301;stroke-miterlimit:4;stroke-dasharray:none;stroke-opacity:1"
     width="45.801998" />
  <rect
     x="-15.686804"
     y="17.260084"
     height="33.345856"
     rx="6.7920032"
     shape-rendering="crispEdges"
     id="rect5-6-6-6-6"
     style="isolation:isolate;fill:#00c3ff;fill-opacity:0.13470298;stroke:url(#linearGradient15);stroke-width:1.67233;stroke-miterlimit:4;stroke-dasharray:none;stroke-opacity:1"
     ry="7.4743071"
     transform="matrix(0.72446484,-0.68931175,0.68622417,0.72739012,0,0)"
     width="33.338203" />
  <path
     id="path9"
     style="color:#000000;fill:url(#linearGradient1111);fill-rule:evenodd;stroke-width:1.33333;-inkscape-stroke:none"
     d="M 26.615234 32.046875 C 26.770226 32.197291 26.875064 32.275561 26.890625 32.234375 C 26.607033 32.611387 26.373093 32.99603 26.1875 33.380859 L 33.539062 33.380859 L 33.230469 32.046875 L 26.615234 32.046875 z M 35.667969 32.046875 L 35.921875 33.380859 L 50.257812 33.380859 L 50.257812 46.275391 L 30.179688 46.275391 C 30.802005 46.705511 31.481008 47.121624 32.216797 47.525391 C 32.3343 47.553681 32.450929 47.582199 32.570312 47.609375 L 51.591797 47.609375 L 51.591797 32.046875 L 44.212891 32.046875 C 44.200088 32.057534 44.189083 32.072687 44.175781 32.082031 L 42.582031 33.205078 C 42.471641 33.282345 42.382812 33.235602 42.382812 33.101562 L 42.382812 32.046875 L 41.154297 32.046875 L 40.998047 32.078125 C 40.937297 32.090129 40.883829 32.076622 40.841797 32.046875 L 35.667969 32.046875 z M 25.884766 34.080078 C 25.520744 35.003998 25.278587 35.90002 25.158203 36.767578 L 25.962891 36.767578 L 25.962891 34.080078 L 25.884766 34.080078 z M 26.208984 34.080078 L 26.208984 36.767578 L 26.875 36.767578 L 29.90625 36.767578 L 29.90625 34.080078 L 26.208984 34.080078 z M 30.150391 34.080078 L 30.150391 36.767578 L 30.818359 36.767578 L 33.849609 36.767578 L 33.849609 35.818359 L 33.267578 35.615234 C 33.01369 35.526137 32.926398 35.270426 33.072266 35.044922 L 33.435547 34.482422 C 33.504902 34.375784 33.554779 34.230702 33.583984 34.080078 L 30.150391 34.080078 z M 36.154297 34.080078 C 36.227424 34.21146 36.310304 34.334637 36.394531 34.419922 C 36.547495 34.575251 37.198723 35.090989 37.59375 35.349609 C 37.819251 35.497055 37.806892 35.713344 37.566406 35.833984 L 36.488281 36.373047 C 36.247796 36.493687 35.847639 36.518781 35.59375 36.429688 L 34.09375 35.904297 L 34.09375 36.767578 L 34.759766 36.767578 L 37.791016 36.767578 L 37.791016 34.080078 L 36.154297 34.080078 z M 38.037109 34.080078 L 38.037109 36.767578 L 38.703125 36.767578 L 41.734375 36.767578 L 41.734375 34.080078 L 38.037109 34.080078 z M 41.976562 34.080078 L 41.976562 36.767578 L 42.642578 36.767578 L 45.677734 36.767578 L 45.677734 34.080078 L 41.976562 34.080078 z M 45.919922 34.080078 L 45.919922 36.767578 L 46.585938 36.767578 L 49.224609 36.767578 L 49.224609 34.080078 L 45.919922 34.080078 z M 27.541016 35.414062 L 28.572266 35.414062 L 28.572266 35.435547 L 27.541016 35.435547 L 27.541016 35.414062 z M 31.484375 35.414062 L 32.515625 35.414062 L 32.515625 35.435547 L 31.484375 35.435547 L 31.484375 35.414062 z M 39.369141 35.414062 L 40.400391 35.414062 L 40.400391 35.435547 L 39.369141 35.435547 L 39.369141 35.414062 z M 43.310547 35.414062 L 44.34375 35.414062 L 44.34375 35.435547 L 43.310547 35.435547 L 43.310547 35.414062 z M 47.251953 35.414062 L 47.890625 35.414062 L 47.890625 35.435547 L 47.251953 35.435547 L 47.251953 35.414062 z M 23.083984 35.443359 C 22.778286 35.420369 22.791694 35.86975 22.824219 35.859375 C 22.787019 35.997813 23.308599 36.402069 23.859375 36.767578 L 24.902344 36.767578 C 24.414314 36.566743 23.482339 35.761317 23.148438 35.455078 C 23.125128 35.449078 23.104364 35.444889 23.083984 35.443359 z M 23.892578 36.791016 C 23.999566 36.861536 24.104283 36.927326 24.208984 36.992188 L 24.208984 36.791016 L 23.892578 36.791016 z M 24.484375 36.791016 L 24.484375 37.15625 C 24.810535 37.345719 25.069064 37.474068 25.089844 37.435547 C 24.999324 38.782149 25.216086 40.05754 25.732422 41.263672 L 25.818359 41.248047 L 25.818359 38.125 L 30.921875 38.125 L 30.921875 41.533203 L 24.253906 41.533203 C 24.539045 41.789314 26.075759 42.196313 26.195312 42.199219 C 26.32564 42.424955 26.468181 42.646676 26.621094 42.867188 L 32.255859 42.867188 L 32.255859 42.201172 L 32.255859 36.791016 L 25.15625 36.791016 C 25.155892 36.793616 25.154697 36.796228 25.154297 36.798828 C 25.112657 36.821648 25.047264 36.815796 24.96875 36.791016 L 24.484375 36.791016 z M 32.53125 36.791016 L 32.53125 42.867188 L 40.304688 42.867188 L 40.304688 42.201172 L 40.304688 36.791016 L 32.53125 36.791016 z M 40.580078 36.791016 L 40.580078 42.867188 L 41.248047 42.867188 L 49.224609 42.867188 L 49.224609 36.791016 L 40.580078 36.791016 z M 33.865234 38.125 L 38.970703 38.125 L 38.970703 41.533203 L 33.865234 41.533203 L 33.865234 38.125 z M 41.914062 38.125 L 47.890625 38.125 L 47.890625 41.533203 L 41.914062 41.533203 L 41.914062 38.125 z M 24.529297 41.054688 C 24.173698 41.028667 24.177478 41.405371 24.205078 41.458984 C 24.205303 41.476234 24.216635 41.496095 24.234375 41.515625 C 24.517097 41.484455 24.83801 41.435776 25.275391 41.351562 L 25.298828 41.347656 C 25.037431 41.243041 24.733629 41.111381 24.529297 41.054688 z M 26.634766 42.888672 C 26.952264 43.344045 27.320388 43.787632 27.734375 44.220703 L 28.572266 44.220703 L 28.572266 44.244141 L 27.757812 44.244141 C 28.196787 44.700946 28.689749 45.146159 29.236328 45.578125 L 29.90625 45.578125 L 29.90625 42.888672 L 26.634766 42.888672 z M 30.150391 42.888672 L 30.150391 43.554688 L 30.150391 45.578125 L 33.849609 45.578125 L 33.849609 42.888672 L 30.150391 42.888672 z M 34.09375 42.888672 L 34.09375 43.554688 L 34.09375 45.578125 L 37.791016 45.578125 L 37.791016 42.888672 L 34.09375 42.888672 z M 38.037109 42.888672 L 38.037109 43.554688 L 38.037109 45.578125 L 41.734375 45.578125 L 41.734375 42.888672 L 38.037109 42.888672 z M 41.976562 42.888672 L 41.976562 43.554688 L 41.976562 45.578125 L 45.677734 45.578125 L 45.677734 42.888672 L 41.976562 42.888672 z M 45.919922 42.888672 L 45.919922 43.554688 L 45.919922 45.578125 L 49.224609 45.578125 L 49.224609 42.888672 L 45.919922 42.888672 z M 31.484375 44.220703 L 32.515625 44.220703 L 32.515625 44.244141 L 31.484375 44.244141 L 31.484375 44.220703 z M 35.427734 44.220703 L 36.458984 44.220703 L 36.458984 44.244141 L 35.427734 44.244141 L 35.427734 44.220703 z M 39.369141 44.220703 L 40.400391 44.220703 L 40.400391 44.244141 L 39.369141 44.244141 L 39.369141 44.220703 z M 43.310547 44.220703 L 44.34375 44.220703 L 44.34375 44.244141 L 43.310547 44.244141 L 43.310547 44.220703 z M 47.251953 44.220703 L 47.890625 44.220703 L 47.890625 44.244141 L 47.251953 44.244141 L 47.251953 44.220703 z "
     transform="scale(0.75)" />
  <path
     style="color:#000000;fill:url(#linearGradient1147);-inkscape-stroke:none;fill-opacity:1"
     d="m 21.392578,17.820312 -0.585937,0.375 c -2.029525,1.294759 -3.650089,2.768659 -4.501954,4.269532 l -0.0098,0.01758 -0.0078,0.01758 c -0.83324,1.774151 -1.160006,3.475606 -0.943359,5.080078 0.182752,2.214058 1.029944,4.087302 2.523437,5.533203 1.495851,1.448184 3.612868,2.467397 6.320313,3.09375 l 0.351562,-0.925781 c -2.176204,-1.17238 -3.648338,-2.478718 -4.458984,-3.882813 l -0.140625,-0.242187 -0.09961,-0.002 c 0.002,-0.0133 0.01903,-0.02669 0.01953,-0.03906 l 0.0059,-0.11914 -0.05078,-0.109375 C 19.414338,30.013445 19.25005,29.096485 19.316406,28.109375 l -0.240234,-0.06836 c 0.01237,-0.0059 0.01659,0.0031 0.0293,-0.0039 l 0.220703,-0.121093 0.03516,-0.25 c 0.09756,-0.719851 0.315179,-1.477139 0.662109,-2.273438 h 0.002 v -0.002 c 0.128723,-0.298286 0.311806,-0.606751 0.542968,-0.914063 l -0.05078,-0.0293 c 0.03173,-0.03588 0.08921,-0.04558 0.105469,-0.08203 l 0.01953,0.0039 0.199219,-0.230469 c 0.559223,-0.643987 1.320715,-1.26946 2.199219,-1.808594 l 0.541015,-0.332031 -0.449219,-0.447266 c -0.713316,-0.713316 -1.242255,-1.716338 -1.572265,-3.052734 z m -0.550781,1.603516 c 0.305037,0.93404 0.72292,1.736782 1.265625,2.392578 -0.629516,0.425757 -1.199201,0.88732 -1.679688,1.386719 -0.0309,-0.02369 -0.02198,-0.01265 -0.05664,-0.04687 -0.126992,-0.125394 -0.274705,-0.30665 -0.408203,-0.496094 -0.133499,-0.189443 -0.256275,-0.389442 -0.341797,-0.552734 -0.08552,-0.163293 -0.126984,-0.329407 -0.119141,-0.269531 l -0.02344,-0.166016 -0.119141,-0.121094 c -0.130312,-0.131314 -0.302178,-0.241159 -0.511719,-0.259765 -0.164489,-0.01461 -0.289765,0.05862 -0.40039,0.125 0.654485,-0.679899 1.450351,-1.344731 2.394531,-1.992188 z m -2.777344,2.457031 c -0.03574,0.119012 -0.05327,0.235577 -0.04102,0.302735 0.01589,0.08708 0.03985,0.149198 0.06641,0.210937 0.05312,0.123478 0.119018,0.239405 0.199218,0.365235 0.160402,0.25166 0.372967,0.534176 0.591797,0.80664 0.218831,0.272465 0.442955,0.529424 0.626953,0.720703 0.0043,0.0045 0.0075,0.0073 0.01172,0.01172 -0.1457,0.230215 -0.309068,0.456538 -0.412109,0.695313 -0.285828,0.656052 -0.424113,1.286505 -0.558594,1.917968 -0.03809,-0.0267 -0.06179,-0.03868 -0.101562,-0.06836 -0.250634,-0.18702 -0.492443,-0.397799 -0.652344,-0.541016 l 0.04297,-0.162109 -0.169922,0.05469 -0.06055,-0.05664 -0.121094,-0.03125 c -0.173204,-0.04467 -0.40387,-0.02102 -0.564453,0.08789 -0.160583,0.108912 -0.23209,0.252946 -0.269531,0.363282 -0.03744,0.110336 -0.04747,0.198535 -0.04687,0.285156 2.96e-4,0.04331 0.0018,0.08219 0.01758,0.150391 0.006,0.02606 0.02392,0.07059 0.04883,0.121093 0.0047,0.01073 0.0014,0.03759 0.0059,0.04687 0.03775,0.07841 0.07397,0.125423 0.111328,0.169922 0.07471,0.089 0.153079,0.159821 0.242188,0.234375 0.178217,0.149109 0.397595,0.304204 0.621094,0.451172 0.223498,0.146968 0.448487,0.281047 0.632812,0.380859 0.03897,0.0211 0.07176,0.0348 0.107422,0.05273 -0.0049,0.671674 0.162004,1.306665 0.349609,1.9375 -0.07374,-0.02742 -0.135595,-0.05917 -0.210937,-0.08008 l -0.04883,-0.01367 -0.04883,-0.002 c -0.308847,-0.0226 -0.64078,0.22397 -0.728516,0.4375 -0.04387,0.106765 -0.05787,0.198779 -0.06055,0.28125 -0.0011,0.03271 7.25e-4,0.06448 0.0039,0.09766 -0.689518,-1.044238 -1.194666,-2.200165 -1.310546,-3.621094 v -0.01367 l -0.002,-0.01367 c -0.189349,-1.377133 0.08178,-2.873846 0.847657,-4.513671 0.195481,-0.342399 0.576379,-0.708257 0.880859,-1.066407 z m -0.412109,9.220703 c 5.45e-4,0.04187 0.02784,0.02429 0.0332,0.05859 -0.0094,-0.0139 -0.02004,-0.02705 -0.0293,-0.04102 z m 0.36914,0.53125 c 0.04774,0.02713 0.09525,0.05764 0.144532,0.08008 0.165337,0.07527 0.354117,0.142002 0.544921,0.203125 0.190805,0.06112 0.380236,0.114181 0.533204,0.154296 0.05476,0.01436 0.0982,0.02458 0.142578,0.03516 0.434266,0.696562 0.978389,1.359404 1.669922,1.978515 -0.989438,-0.478266 -1.82371,-1.040386 -2.494141,-1.689453 -0.231706,-0.224322 -0.345291,-0.5171 -0.541016,-0.761719 z"
     id="path1701" />
  <path
     style="color:#000000;fill:url(#linearGradient869);fill-rule:evenodd;-inkscape-stroke:none;fill-opacity:1"
     d="m 25.152344,6.328125 c -0.264041,0.03254 -0.488171,0.1494477 -0.705078,0.3378906 -0.217397,0.1888676 -0.414224,0.4637698 -0.5,0.8164063 L 23.935547,7.53125 23.820312,10.9375 21.443359,7.0761719 h -0.002 c -0.174911,-0.282786 -0.495631,-0.3849682 -0.800781,-0.25 l -0.002,0.00195 c -0.507511,0.225804 -0.746534,0.8262819 -0.667969,1.4433594 l 0.0078,0.064453 2.052734,5.1328125 c -3.559633,-0.277736 -7.050074,0.769789 -9.8125,3.255859 l -1.244141,1.119141 1.710938,-0.263672 c -2.01355,2.092175 -3.1723702,4.845358 -3.3515626,8.259766 -0.057723,1.095509 -0.021671,2.255465 0.1054687,3.480468 l 0.1894532,1.837891 1.2675777,-2.800781 c 0.635771,2.995589 2.345538,5.814072 5.216797,8.404297 l 1.335938,1.203125 -0.761719,-2.511719 c 2.095002,1.129793 4.729316,1.402561 7.896484,0.757812 l 0.0098,-0.978515 c -2.966861,-0.667334 -5.089684,-1.787337 -6.421875,-3.316406 -1.332191,-1.52907 -1.917432,-3.482498 -1.740234,-5.972657 l 0.002,-0.002 c 0.01758,-0.251786 0.04187,-0.507904 0.07617,-0.771484 l 0.002,-0.01367 0.002,-0.01172 c 0.148589,-1.856862 1.703987,-3.837675 4.386719,-5.611328 0.617093,1.809213 1.670654,3.328465 3.302734,3.978516 -0.01976,-0.0079 0.124192,0.158784 0.119141,0.136718 v 0.002 l 0.382812,1.662109 c 0.0015,0.0066 -0.04534,0.271976 -0.04883,0.277344 l -0.273438,0.421875 c -0.126235,0.195153 -0.170661,0.457497 -0.0918,0.6875 0.07886,0.230002 0.274981,0.407465 0.49414,0.484375 l 1.746094,0.609375 c 0.372449,0.130193 0.704958,0.110996 1.058594,-0.06641 l 0.808593,-0.404296 c 0.194361,-0.0975 0.399581,-0.305021 0.416016,-0.591797 0.01644,-0.286777 -0.163607,-0.517655 -0.345703,-0.636719 -0.126143,-0.08259 -0.3186,-0.224077 -0.484375,-0.353516 -0.165775,-0.129438 -0.329501,-0.272821 -0.332031,-0.27539 -0.03492,-0.03536 -0.179781,-0.310698 -0.189453,-0.361328 l -0.72461,-3.806641 2.136719,0.970703 c -0.04164,-0.01894 0.03906,0.107181 0.03906,0.0625 V 23 c 10e-7,0.369171 0.39493,0.705122 0.759766,0.646484 l 0.396484,-0.0625 v 0.328125 c 0,0.182614 0.08236,0.380974 0.234375,0.50586 0.152019,0.124886 0.361912,0.168203 0.541016,0.132812 v -0.002 l 0.441406,-0.08789 v 0.365235 c 0,0.161044 0.07048,0.41436 0.314453,0.541015 0.243971,0.126656 0.491261,0.03756 0.623047,-0.05469 l 1.195313,-0.841797 c 0.357921,-0.251444 0.515676,-0.599593 0.46875,-1.035156 v -0.002 l -0.164063,-1.525391 c -0.02403,-0.220188 -0.152166,-0.477153 -0.40039,-0.595703 -0.248224,-0.11855 -0.526526,-0.05698 -0.712891,0.0625 l -0.002,0.002 -0.214844,0.136719 -1.855469,-1.753906 -0.478515,-2.212891 -0.07031,-0.08984 C 29.503831,16.835844 28.571966,16.189408 27.337891,15.460938 27.075061,13.283605 26.802941,11.339644 26.550781,9.8554688 26.289135,8.3154548 26.077413,7.2813164 25.84375,6.7265625 25.715582,6.4236129 25.481136,6.2879683 25.154297,6.328125 Z m -0.132813,1.2285156 c 0.137515,0.4484317 0.326328,1.1801863 0.544922,2.4667974 0.171315,1.008332 0.356832,2.46679 0.539063,3.833984 l -1.298829,-2.476563 0.126954,-3.6796871 c 0.01732,-0.060306 0.0562,-0.097941 0.08789,-0.1445313 z m -3.939453,0.8378907 4.388672,7.1308597 0.119141,0.06445 c 0.187078,0.09908 0.367511,0.196904 0.541015,0.292969 l 0.275391,0.152343 v 0.0059 l 0.21875,0.125 c 1.32166,0.758552 2.1446,1.40376 2.517578,1.859375 l 0.486328,2.248046 2.099609,1.986329 c 0.295929,0.280419 0.686351,0.254714 1.041016,0.09766 l 0.126953,1.185547 c -0.0039,-0.03558 -0.07733,0.129401 -0.04883,0.109375 h -0.002 l -0.556641,0.392578 v -0.0098 c 0,-0.182139 -0.08197,-0.380587 -0.234375,-0.505859 -0.152406,-0.125273 -0.362431,-0.1679 -0.541015,-0.132813 l -0.441407,0.08789 v -0.302734 c 0,-0.368169 -0.394936,-0.705129 -0.759765,-0.646485 l 0.002,-0.002 -0.398438,0.06445 v -0.267578 c 10e-7,-0.447986 -0.21672,-0.786957 -0.625,-0.972656 l -2.683593,-1.21875 c -0.192617,-0.08761 -0.490249,-0.128729 -0.730469,0.06055 -0.239614,0.188798 -0.269801,0.487764 -0.230469,0.695312 l 0.835938,4.396485 c 0.06602,0.345579 0.211234,0.62414 0.458984,0.875 0.112193,0.113927 0.24878,0.222026 0.429688,0.363281 0.05043,0.03938 0.101922,0.07174 0.154296,0.111328 l -0.380859,0.191406 c -0.0064,0.0032 -0.273695,0.02023 -0.28125,0.01758 l -1.492187,-0.521484 0.126953,-0.193359 c 0.216504,-0.332888 0.273118,-0.660833 0.183593,-1.046875 l -0.382812,-1.66211 C 25.201938,23.011054 24.965761,22.73893 24.572266,22.582031 23.090886,21.992004 22.04468,20.55036 21.560547,18.617187 L 21.394531,17.957031 20.814453,18.3125 c -3.187624,1.949977 -5.096255,4.292159 -5.296875,6.742187 -0.03569,0.276204 -0.06327,0.548198 -0.08203,0.816407 -0.191217,2.687161 0.464574,4.959009 1.982422,6.701172 1.060404,1.217116 2.660752,2.074923 4.501953,2.77539 -2.318019,0.09268 -4.329548,-0.227289 -5.769531,-1.359375 L 14.902344,33.007812 15.25,34.152344 c -2.076161,-2.38411 -3.46494,-4.8464 -3.658203,-7.476563 l -0.955078,-0.169922 -0.267578,0.591797 c -0.0033,-0.394762 -0.05692,-0.829176 -0.03711,-1.205078 v -0.002 c 0.200726,-3.824722 1.5653,-6.657939 4.111328,-8.644531 l 1.513672,-1.179688 -1.429687,0.220703 c 2.448367,-1.566914 5.277716,-2.200408 8.183593,-1.800781 l 0.851563,0.117188 z m 5.003906,7.8925777 c -0.100452,-0.03729 -0.29022,-0.06477 -0.466797,0.04102 -0.176576,0.105789 -0.2396,0.286068 -0.253906,0.392578 -0.01431,0.10651 -0.0013,0.176631 0.01367,0.240234 0.127127,0.54928 0.353132,1.246234 0.583984,1.800782 0.12257,0.296047 0.2782,0.43032 0.589844,0.505859 0.590362,0.144391 1.214764,0.266014 1.587891,0.310547 0.06795,0.008 0.144623,0.01283 0.25,-0.01563 0.105377,-0.02846 0.263953,-0.113241 0.347656,-0.28125 0.0837,-0.168009 0.05644,-0.345963 0.01563,-0.447266 -0.04081,-0.101302 -0.09129,-0.15959 -0.138672,-0.208984 -0.704493,-0.734573 -1.563189,-1.552345 -2.324219,-2.212891 h -0.002 c -0.04886,-0.0427 -0.103369,-0.08796 -0.203125,-0.125 z"
     id="path1698" />
</svg>
