<?xml version="1.0" encoding="UTF-8" standalone="no"?>
<!-- Generator: Gravit.io -->

<svg
   style="isolation:isolate"
   viewBox="0 0 48 48"
   width="48pt"
   height="48pt"
   version="1.1"
   id="svg9"
   sodipodi:docname="draw.io.svg"
   inkscape:version="1.1.2 (0a00cf5339, 2022-02-04)"
   xmlns:inkscape="http://www.inkscape.org/namespaces/inkscape"
   xmlns:sodipodi="http://sodipodi.sourceforge.net/DTD/sodipodi-0.dtd"
   xmlns:xlink="http://www.w3.org/1999/xlink"
   xmlns="http://www.w3.org/2000/svg"
   xmlns:svg="http://www.w3.org/2000/svg">
  <defs
     id="defs13">
    <linearGradient
       inkscape:collect="always"
       xlink:href="#_lgradient_60"
       id="linearGradient872"
       x1="-12.025727"
       y1="6.1170783"
       x2="-0.085100174"
       y2="6.1170783"
       gradientUnits="userSpaceOnUse"
       gradientTransform="matrix(3.8358211,0,0,3.8371386,-0.00544341,-0.00268054)" />
    <linearGradient
       id="_lgradient_1"
       x1="0.18336116"
       y1="0.24917752"
       x2="0.9027437"
       y2="0.90347725"
       gradientTransform="matrix(24.617266,0,0,24.816118,10.841288,10.089605)"
       gradientUnits="userSpaceOnUse">
      <stop
         offset="2.608695652173913%"
         stop-opacity="1"
         style="stop-color:rgb(179,255,171)"
         id="stop2-3" />
      <stop
         offset="98.69565217391305%"
         stop-opacity="1"
         style="stop-color:rgb(18,255,247)"
         id="stop4-6" />
    </linearGradient>
    <linearGradient
       inkscape:collect="always"
       xlink:href="#_lgradient_60"
       id="linearGradient15"
       x1="-9.6850061"
       y1="45.161198"
       x2="11.98815"
       y2="21.735205"
       gradientUnits="userSpaceOnUse"
       gradientTransform="matrix(1.1147442,0,0,1.1150348,-0.01237238,-3.3277956)" />
    <linearGradient
       inkscape:collect="always"
       xlink:href="#_lgradient_60"
       id="linearGradient1084"
       x1="11"
       y1="22.202854"
       x2="37"
       y2="22.202854"
       gradientUnits="userSpaceOnUse"
       gradientTransform="translate(0,-0.66952543)" />
  </defs>
  <sodipodi:namedview
     id="namedview11"
     pagecolor="#ffffff"
     bordercolor="#666666"
     borderopacity="1.0"
     inkscape:pageshadow="2"
     inkscape:pageopacity="0.0"
     inkscape:pagecheckerboard="0"
     inkscape:document-units="pt"
     showgrid="false"
     inkscape:zoom="10.21875"
     inkscape:cx="31.95107"
     inkscape:cy="32"
     inkscape:window-width="1600"
     inkscape:window-height="836"
     inkscape:window-x="0"
     inkscape:window-y="0"
     inkscape:window-maximized="1"
     inkscape:current-layer="svg9" />
  <linearGradient
     id="_lgradient_60"
     x1="0"
     y1="0.5"
     x2="0.9074880558539661"
     y2="0.9200778838291643"
     gradientTransform="matrix(42,0,0,-42,3,43.202854)"
     gradientUnits="userSpaceOnUse">
    <stop
       offset="0%"
       stop-opacity="1"
       style="stop-color:rgb(247,241,7)"
       id="stop2" />
    <stop
       offset="83.88839793817618%"
       stop-opacity="1"
       style="stop-color:rgb(255,187,36)"
       id="stop4" />
  </linearGradient>
  <rect
     x="-46.783188"
     y="1.2253767"
     height="45.80014"
     rx="6.1837621"
     shape-rendering="crispEdges"
     id="rect5-6-7-3"
     ry="6.8055277"
     transform="matrix(0.00524063,-0.99998627,0.99998801,0.00489691,0,0)"
     style="isolation:isolate;fill:#ffdc00;fill-opacity:0.13470298;stroke:url(#linearGradient872);stroke-width:2.0301;stroke-miterlimit:4;stroke-dasharray:none;stroke-opacity:1"
     width="45.801998" />
  <rect
     x="-15.686804"
     y="17.260084"
     height="33.345856"
     rx="6.7920032"
     shape-rendering="crispEdges"
     id="rect5-6-6-6-6"
     style="isolation:isolate;fill:#ffdc00;fill-opacity:0.13470298;stroke:url(#linearGradient15);stroke-width:1.67233;stroke-miterlimit:4;stroke-dasharray:none;stroke-opacity:1"
     ry="7.4743071"
     transform="matrix(0.72446484,-0.68931175,0.68622417,0.72739012,0,0)"
     width="33.338203" />
  <path
     style="color:#000000;fill:url(#linearGradient1084);fill-rule:evenodd;-inkscape-stroke:none"
     d="m 20.533203,9.765625 c -1.228401,0 -2.232422,1.005253 -2.232422,2.234375 v 5.201172 c 0,0.82644 0.519203,1.451975 1.191406,1.83789 l -2.552734,4.59375 H 12.732422 C 11.50402,23.632813 10.5,24.638786 10.5,25.867187 v 5.199219 c 0,1.229123 1.00402,2.234375 2.232422,2.234375 h 6.935547 c 1.228401,0 2.232422,-1.005252 2.232422,-2.234375 v -5.199219 c 0,-1.103658 -0.856523,-1.925484 -1.91211,-2.101562 l 2.404297,-4.332031 h 2.927734 l 2.251954,4.498047 c -0.819059,0.331685 -1.472657,1.001684 -1.472657,1.935546 v 5.199219 c 0,1.229123 1.004021,2.234375 2.232422,2.234375 h 6.935547 c 1.228402,0 2.232422,-1.005252 2.232422,-2.234375 v -5.199219 c 0,-1.228401 -1.00402,-2.234375 -2.232422,-2.234375 h -4.791016 l -2.248046,-4.498046 c 0.818757,-0.331958 1.470703,-0.999731 1.470703,-1.933594 V 12 c 0,-1.229122 -1.004021,-2.234375 -2.232422,-2.234375 z m 0,1 h 6.933594 c 0.691596,0 1.232422,0.541499 1.232422,1.234375 v 5.201172 c 0,0.66682 -0.50548,1.193181 -1.160157,1.230469 l -0.759765,0.04297 3.080078,6.158203 h 5.408203 c 0.691597,0 1.232422,0.542779 1.232422,1.234375 v 5.199219 c 0,0.692876 -0.540825,1.234375 -1.232422,1.234375 h -6.935547 c -0.691596,0 -1.232422,-0.541499 -1.232422,-1.234375 v -5.199219 c 0,-0.66682 0.508131,-1.19589 1.16211,-1.232421 l 0.759765,-0.04102 -3.082031,-6.160156 h -4.134766 l -3.443359,6.199218 h 1.306641 c 0.691596,0 1.232422,0.542779 1.232422,1.234375 v 5.199219 c 0,0.692876 -0.540826,1.234375 -1.232422,1.234375 H 12.732422 C 12.040825,32.300781 11.5,31.759282 11.5,31.066406 v -5.199219 c 0,-0.691596 0.540825,-1.234374 1.232422,-1.234375 h 4.794922 l 0.142578,-0.255859 3.238281,-5.826172 -0.650391,-0.148437 C 19.708074,18.277888 19.300781,17.796813 19.300781,17.201172 V 12 c 0,-0.692876 0.540826,-1.234375 1.232422,-1.234375 z"
     id="path7" />
</svg>
