<?xml version="1.0" encoding="UTF-8" standalone="no"?>
<!-- Generator: Gravit.io -->

<svg
   style="isolation:isolate"
   viewBox="0 0 48 48"
   width="48pt"
   height="48pt"
   version="1.1"
   id="svg29"
   sodipodi:docname="dropbox.svg"
   inkscape:version="1.1.2 (0a00cf5339, 2022-02-04)"
   xmlns:inkscape="http://www.inkscape.org/namespaces/inkscape"
   xmlns:sodipodi="http://sodipodi.sourceforge.net/DTD/sodipodi-0.dtd"
   xmlns:xlink="http://www.w3.org/1999/xlink"
   xmlns="http://www.w3.org/2000/svg"
   xmlns:svg="http://www.w3.org/2000/svg">
  <defs
     id="defs33">
    <linearGradient
       inkscape:collect="always"
       xlink:href="#_lgradient_3"
       id="linearGradient872"
       x1="-12.025727"
       y1="6.1170783"
       x2="-0.085100174"
       y2="6.1170783"
       gradientUnits="userSpaceOnUse"
       gradientTransform="matrix(3.8358211,0,0,3.8371386,-0.00544341,-0.00268054)" />
    <linearGradient
       id="_lgradient_1-3"
       x1="0.18336116"
       y1="0.24917752"
       x2="0.9027437"
       y2="0.90347725"
       gradientTransform="matrix(24.617266,0,0,24.816118,10.841288,10.089605)"
       gradientUnits="userSpaceOnUse">
      <stop
         offset="2.608695652173913%"
         stop-opacity="1"
         style="stop-color:rgb(179,255,171)"
         id="stop2-6" />
      <stop
         offset="98.69565217391305%"
         stop-opacity="1"
         style="stop-color:rgb(18,255,247)"
         id="stop4-7" />
    </linearGradient>
    <linearGradient
       inkscape:collect="always"
       xlink:href="#_lgradient_3"
       id="linearGradient15"
       x1="-9.6850061"
       y1="45.161198"
       x2="11.98815"
       y2="21.735205"
       gradientUnits="userSpaceOnUse"
       gradientTransform="matrix(1.1147442,0,0,1.1150348,-0.01237238,-3.3277956)" />
    <linearGradient
       inkscape:collect="always"
       xlink:href="#_lgradient_3"
       id="linearGradient965"
       x1="11.139934"
       y1="23.629562"
       x2="36.860065"
       y2="23.629562"
       gradientUnits="userSpaceOnUse"
       gradientTransform="scale(1.3333333)" />
  </defs>
  <sodipodi:namedview
     id="namedview31"
     pagecolor="#ffffff"
     bordercolor="#666666"
     borderopacity="1.0"
     inkscape:pageshadow="2"
     inkscape:pageopacity="0.0"
     inkscape:pagecheckerboard="0"
     inkscape:document-units="pt"
     showgrid="false"
     inkscape:zoom="7.2257474"
     inkscape:cx="42.140969"
     inkscape:cy="26.848434"
     inkscape:window-width="1600"
     inkscape:window-height="836"
     inkscape:window-x="0"
     inkscape:window-y="0"
     inkscape:window-maximized="1"
     inkscape:current-layer="svg29" />
  <linearGradient
     id="_lgradient_1"
     x1="0"
     y1="0.5"
     x2="1"
     y2="0.5"
     gradientTransform="matrix(47.451,0,0,33.381,0.274,2.309)"
     gradientUnits="userSpaceOnUse">
    <stop
       offset="0%"
       stop-opacity="1"
       style="stop-color:rgb(84,51,255)"
       id="stop2" />
    <stop
       offset="51.73913043478261%"
       stop-opacity="1"
       style="stop-color:rgb(32,189,255)"
       id="stop4" />
    <stop
       offset="98.26086956521739%"
       stop-opacity="1"
       style="stop-color:rgb(165,254,203)"
       id="stop6" />
  </linearGradient>
  <linearGradient
     id="_lgradient_2"
     x1="0"
     y1="0.5"
     x2="1"
     y2="0.5"
     gradientTransform="matrix(33.9,0,0,19.78,7.05,8.53)"
     gradientUnits="userSpaceOnUse">
    <stop
       offset="0%"
       stop-opacity="1"
       style="stop-color:rgb(84,51,255)"
       id="stop11" />
    <stop
       offset="51.73913043478261%"
       stop-opacity="1"
       style="stop-color:rgb(32,189,255)"
       id="stop13" />
    <stop
       offset="98.26086956521739%"
       stop-opacity="1"
       style="stop-color:rgb(165,254,203)"
       id="stop15" />
  </linearGradient>
  <linearGradient
     id="_lgradient_3"
     x1="0"
     y1="0.5"
     x2="1"
     y2="0.5"
     gradientTransform="matrix(34,0,0,12,6.5,34.5)"
     gradientUnits="userSpaceOnUse">
    <stop
       offset="0%"
       stop-opacity="1"
       style="stop-color:rgb(84,51,255)"
       id="stop20" />
    <stop
       offset="51.73913043478261%"
       stop-opacity="1"
       style="stop-color:rgb(32,189,255)"
       id="stop22" />
    <stop
       offset="98.26086956521739%"
       stop-opacity="1"
       style="stop-color:rgb(165,254,203)"
       id="stop24" />
  </linearGradient>
  <rect
     x="-46.783188"
     y="1.2253767"
     height="45.80014"
     rx="6.1837621"
     shape-rendering="crispEdges"
     id="rect5-6-7-3"
     ry="6.8055277"
     transform="matrix(0.00524063,-0.99998627,0.99998801,0.00489691,0,0)"
     style="isolation:isolate;fill:#00ffc3;fill-opacity:0.134703;stroke:url(#linearGradient872);stroke-width:2.0301;stroke-miterlimit:4;stroke-dasharray:none;stroke-opacity:1"
     width="45.801998" />
  <rect
     x="-15.686804"
     y="17.260084"
     height="33.345856"
     rx="6.7920032"
     shape-rendering="crispEdges"
     id="rect5-6-6-6-6"
     style="isolation:isolate;fill:#00ffc3;fill-opacity:0.134703;stroke:url(#linearGradient15);stroke-width:1.67233;stroke-miterlimit:4;stroke-dasharray:none;stroke-opacity:1"
     ry="7.4743071"
     transform="matrix(0.72446484,-0.68931175,0.68622417,0.72739012,0,0)"
     width="33.338203" />
  <path
     id="path27"
     style="color:#000000;fill:url(#linearGradient965);stroke-width:1.33333;-inkscape-stroke:none"
     d="m 37.855469,14.849609 c -0.0949,4.04e-4 -0.190512,0.0042 -0.285157,0.01172 -0.757156,0.06048 -1.497472,0.350339 -2.078124,0.857422 L 32,18.771484 28.507812,15.71875 c -0.653679,-0.570857 -1.515269,-0.837848 -2.365234,-0.845703 -0.661516,-0.0061 -1.326677,0.146753 -1.898437,0.503906 l -8.933594,5.582031 c -0.652031,0.407287 -1.077901,1.042413 -1.121094,1.734375 -0.04319,0.691963 0.299635,1.376413 0.896485,1.861329 l 3.74414,3.046874 -3.74414,3.041016 c -0.59685,0.484912 -0.939677,1.171319 -0.896485,1.863281 0.04319,0.691963 0.469063,1.329042 1.121094,1.736329 l 8.933594,5.580078 c 1.307776,0.816894 3.102595,0.674125 4.263671,-0.339844 L 32,36.427734 l 3.492188,3.054688 c 1.161082,1.013969 2.955895,1.156738 4.263671,0.339844 l 1.84375,-1.150391 c -0.30857,0.316409 -0.507812,0.741307 -0.507812,1.212891 v 4.699218 c 0,0.03823 -0.02037,0.05664 -0.05859,0.05664 H 22.242188 c -0.03823,0 -0.05469,-0.01841 -0.05469,-0.05664 v -4.699218 c 0,-0.959111 -0.790892,-1.75 -1.75,-1.75 -0.959109,0 -1.751953,0.79089 -1.751953,1.75 v 5.421875 c 0,1.557512 1.278427,2.833984 2.835937,2.833984 h 20.236328 c 1.557514,0 2.833985,-1.276472 2.833985,-2.833984 v -5.421875 c 0,-0.959111 -0.790891,-1.75 -1.75,-1.75 -0.202788,0 -0.394054,0.04661 -0.572266,0.117187 l 6.419922,-4.009765 c 0.652031,-0.407287 1.077902,-1.044365 1.121094,-1.736329 0.04319,-0.691962 -0.299629,-1.378369 -0.896485,-1.863281 l -3.74414,-3.041016 3.74414,-3.046874 c 0.596852,-0.484913 0.939677,-1.169365 0.896485,-1.861329 -0.04319,-0.691962 -0.469063,-1.327088 -1.121094,-1.734375 l -8.933594,-5.582031 c -0.572028,-0.357314 -1.236069,-0.53017 -1.90039,-0.527344 z m -11.722657,1.355469 c 0.566449,0.0052 1.137859,0.201074 1.498047,0.515625 1.450377,1.265549 2.889568,2.544504 4.361329,3.785156 0,0 2.924734,-2.515682 4.376953,-3.785156 0.320562,-0.279947 0.811016,-0.444476 1.310547,-0.484375 0.124881,-0.01 0.249411,-0.01165 0.373046,-0.0059 0.370906,0.01772 0.725393,0.10825 0.996094,0.277343 l 8.935547,5.580079 c 0.362652,0.226528 0.480494,0.468862 0.494141,0.6875 0.01365,0.218637 -0.07443,0.476497 -0.40625,0.746093 -1.671733,1.348297 -4.97812,4.088888 -4.97812,4.088888 0,0 3.314981,2.717635 4.97812,4.069316 0.331829,0.269594 0.419896,0.52355 0.40625,0.742187 -0.01365,0.218637 -0.131496,0.462925 -0.494141,0.689453 l -8.935547,5.582031 c -0.721587,0.450735 -2.038338,0.343297 -2.679687,-0.216797 v 0.002 c -1.45899,-1.274819 -2.913258,-2.554838 -4.376953,-3.824219 -1.44501,1.284592 -2.906279,2.550963 -4.361329,3.824219 v -0.002 c -0.641349,0.560089 -1.9581,0.667532 -2.679687,0.216797 l -8.935547,-5.582031 c -0.362652,-0.226528 -0.480493,-0.470816 -0.494141,-0.689453 -0.01365,-0.218637 0.07443,-0.472593 0.40625,-0.742187 1.686795,-1.370776 3.373498,-2.742818 5.060547,-4.113282 0,0 -3.384843,-2.682575 -5.060547,-4.044922 -0.331829,-0.269594 -0.419898,-0.527456 -0.40625,-0.746093 0.01365,-0.218638 0.131482,-0.460972 0.494141,-0.6875 l 8.935547,-5.580079 c 0.316087,-0.197444 0.741512,-0.306783 1.18164,-0.302734 z m 0.154297,0.449219 -0.421875,0.261719 -9.464843,5.914062 c 1.684704,1.369377 3.369157,2.739062 5.054687,4.107422 3.321729,-1.927969 6.642867,-3.856809 9.960938,-5.791016 -1.707447,-1.499891 -3.4188,-2.995331 -5.128907,-4.492187 z m 11.425782,0 c -1.710077,1.496894 -3.421089,2.992717 -5.128907,4.492187 2.905707,1.694012 5.810032,3.390393 8.714844,5.085938 l 1.230469,0.71875 1.105469,-0.898438 3.964843,-3.222656 z m -11.5625,1.65625 2.992187,2.619141 -7.548828,4.404296 -2.90625,-2.363281 z m 11.699218,0 7.462891,4.660156 -2.90625,2.363281 -7.548828,-4.40625 z M 32,21.65625 c -2.948047,2.000662 -6.070189,3.737871 -9.150391,5.525391 0,0 2.440003,1.493972 3.675782,2.214843 1.840968,1.055486 5.509765,3.189454 5.509765,3.189454 3.065945,-1.818104 9.217645,-5.420933 9.217645,-5.420933 0,0 -6.162166,-3.683153 -9.252801,-5.508755 z m -0.0059,1.648438 c 0,0 4.421093,2.584775 6.632812,3.875 L 32,31.044922 l -4.802734,-2.802734 -1.824219,-1.0625 c 2.206491,-1.293006 6.621094,-3.875001 6.621094,-3.875 z m 9.935547,4.458984 -1.232422,0.71875 c -2.896639,1.68984 -8.689451,5.070312 -8.689454,5.070312 l -0.0078,0.0039 -0.0078,-0.0039 c 0,0 3.816301,3.326589 5.720703,4.994141 l 9.886718,-6.179687 -4.5625,-3.705079 z m -9.9375,5.789062 c 0.0156,0 -3.923431,-2.28993 -5.884766,-3.435546 -1.345268,-0.786205 -4.041016,-2.34961 -4.041016,-2.34961 -1.889922,1.531662 -3.777605,3.066085 -5.666015,4.59961 l 9.886718,6.179687 c 1.901581,-1.664842 5.705079,-4.994141 5.705079,-4.994141 z m -9.796876,-4.171875 3.240235,1.886719 4.283203,2.5 -3.568359,3.123047 -7.460938,-4.664063 z m 19.609376,0 3.505859,2.845703 -7.460938,4.664063 -3.568359,-3.123047 z M 20.4375,39.46875 c 0.237693,0 0.416016,0.17832 0.416016,0.416016 v 4.699218 c 0,0.759643 0.629029,1.390625 1.388672,1.390625 h 18.791015 c 0.759643,0 1.390625,-0.630982 1.390625,-1.390625 v -4.699218 c 0,-0.237696 0.180273,-0.416015 0.417969,-0.416016 0.237693,0 0.416018,0.17832 0.416015,0.416016 v 5.421875 c 0,0.836096 -0.663904,1.5 -1.5,1.5 H 21.521484 c -0.836094,0 -1.503906,-0.663904 -1.503906,-1.5 v -5.421875 c 0,-0.237696 0.182225,-0.416016 0.419922,-0.416016 z"
     transform="scale(0.75)"
     sodipodi:nodetypes="scccccccscccscccccccssssssssssssssccscccsccsccccccccscccscccccccccscccsccccccccccccccccccccccccccccccccccccccccccccccccccccccccccccccccsssssssscssssss" />
</svg>
