<?xml version="1.0" encoding="UTF-8" standalone="no"?>
<!-- Generator: Gravit.io -->

<svg
   style="isolation:isolate"
   viewBox="0 0 48 48"
   width="48pt"
   height="48pt"
   version="1.1"
   id="svg9"
   sodipodi:docname="eddy.svg"
   inkscape:version="1.1.2 (0a00cf5339, 2022-02-04)"
   xmlns:inkscape="http://www.inkscape.org/namespaces/inkscape"
   xmlns:sodipodi="http://sodipodi.sourceforge.net/DTD/sodipodi-0.dtd"
   xmlns:xlink="http://www.w3.org/1999/xlink"
   xmlns="http://www.w3.org/2000/svg"
   xmlns:svg="http://www.w3.org/2000/svg">
  <defs
     id="defs13">
    <linearGradient
       inkscape:collect="always"
       xlink:href="#_lgradient_2"
       id="linearGradient872"
       x1="-12.025727"
       y1="6.1170783"
       x2="-0.085100174"
       y2="6.1170783"
       gradientUnits="userSpaceOnUse"
       gradientTransform="matrix(3.8358211,0,0,3.8371386,-0.00544341,-0.00268054)" />
    <linearGradient
       id="_lgradient_1"
       x1="0.18336116"
       y1="0.24917752"
       x2="0.9027437"
       y2="0.90347725"
       gradientTransform="matrix(24.617266,0,0,24.816118,10.841288,10.089605)"
       gradientUnits="userSpaceOnUse">
      <stop
         offset="2.608695652173913%"
         stop-opacity="1"
         style="stop-color:rgb(179,255,171)"
         id="stop2-3" />
      <stop
         offset="98.69565217391305%"
         stop-opacity="1"
         style="stop-color:rgb(18,255,247)"
         id="stop4-6" />
    </linearGradient>
    <linearGradient
       inkscape:collect="always"
       xlink:href="#_lgradient_2"
       id="linearGradient15"
       x1="-9.6850061"
       y1="45.161198"
       x2="11.98815"
       y2="21.735205"
       gradientUnits="userSpaceOnUse"
       gradientTransform="matrix(1.1147442,0,0,1.1150348,-0.01237238,-3.3277956)" />
    <linearGradient
       inkscape:collect="always"
       xlink:href="#_lgradient_2"
       id="linearGradient1094"
       x1="13.091981"
       y1="24"
       x2="34.90802"
       y2="24"
       gradientUnits="userSpaceOnUse" />
  </defs>
  <sodipodi:namedview
     id="namedview11"
     pagecolor="#ffffff"
     bordercolor="#666666"
     borderopacity="1.0"
     inkscape:pageshadow="2"
     inkscape:pageopacity="0.0"
     inkscape:pagecheckerboard="0"
     inkscape:document-units="pt"
     showgrid="false"
     inkscape:zoom="5.109375"
     inkscape:cx="32"
     inkscape:cy="32"
     inkscape:window-width="1056"
     inkscape:window-height="545"
     inkscape:window-x="283"
     inkscape:window-y="76"
     inkscape:window-maximized="0"
     inkscape:current-layer="svg9" />
  <linearGradient
     id="_lgradient_2"
     x1="0"
     y1="0.5"
     x2="1"
     y2="0.5"
     gradientTransform="matrix(21.816039,0,0,21.816039,13.091981,13.091981)"
     gradientUnits="userSpaceOnUse">
    <stop
       offset="0%"
       stop-opacity="1"
       style="stop-color:rgb(255,229,59)"
       id="stop2" />
    <stop
       offset="98.69565217391305%"
       stop-opacity="1"
       style="stop-color:rgb(255,0,91)"
       id="stop4" />
  </linearGradient>
  <rect
     x="-46.783188"
     y="1.2253767"
     height="45.80014"
     rx="6.1837621"
     shape-rendering="crispEdges"
     id="rect5-6-7-3"
     ry="6.8055277"
     transform="matrix(0.00524063,-0.99998627,0.99998801,0.00489691,0,0)"
     style="isolation:isolate;fill:#e800ff;fill-opacity:0.13470298;stroke:url(#linearGradient872);stroke-width:2.0301;stroke-miterlimit:4;stroke-dasharray:none;stroke-opacity:1"
     width="45.801998" />
  <rect
     x="-15.686804"
     y="17.260084"
     height="33.345856"
     rx="6.7920032"
     shape-rendering="crispEdges"
     id="rect5-6-6-6-6"
     style="isolation:isolate;fill:#e800ff;fill-opacity:0.13470298;stroke:url(#linearGradient15);stroke-width:1.67233;stroke-miterlimit:4;stroke-dasharray:none;stroke-opacity:1"
     ry="7.4743071"
     transform="matrix(0.72446484,-0.68931175,0.68622417,0.72739012,0,0)"
     width="33.338203" />
  <path
     style="color:#000000;fill:url(#linearGradient1094);fill-rule:evenodd;-inkscape-stroke:none"
     d="m 14.613281,12.591797 c -1.110701,0 -2.021484,0.910783 -2.021484,2.021484 v 3.298828 c 0,0.690617 0.571103,1.259766 1.261719,1.259766 0.690615,0 1.259765,-0.569149 1.259765,-1.259766 v -2.791015 c 0,-0.0095 -0.0017,-0.0078 0.0078,-0.0078 h 17.757812 c 0.0095,0 0.0078,-0.0017 0.0078,0.0078 v 1.529297 H 16.896484 c -0.690616,0 -1.259765,0.571102 -1.259765,1.261718 0,0.690617 0.56915,1.259766 1.259765,1.259766 h 17.25 c 0.480574,0 0.803121,-0.354288 0.986328,-0.720703 0.183208,-0.366416 0.275391,-0.813063 0.275391,-1.300781 v -2.53711 c 0,-1.110701 -0.910783,-2.021484 -2.021484,-2.021484 z m 0,1 h 18.773438 c 0.569639,0 1.021484,0.451845 1.021484,1.021484 v 2.53711 c 0,0.352452 -0.07764,0.66895 -0.169922,0.853515 -0.09228,0.184566 -0.152285,0.167969 -0.0918,0.167969 h -17.25 c -0.149555,0 -0.259765,-0.110211 -0.259765,-0.259766 0,-0.149554 0.110211,-0.261718 0.259765,-0.261718 h 16.990235 v -0.753907 -1.77539 c 0,-0.550589 -0.457224,-1.007813 -1.007813,-1.007813 H 15.121094 c -0.550589,0 -1.007813,0.457224 -1.007813,1.007813 v 2.791015 c 0,0.149555 -0.11021,0.259766 -0.259765,0.259766 -0.149554,0 -0.261719,-0.110211 -0.261719,-0.259766 v -3.298828 c 0,-0.569639 0.451845,-1.021484 1.021484,-1.021484 z m -0.759765,6.103515 c -0.690616,10e-7 -1.261719,0.56915 -1.261719,1.259766 v 12.431641 c 0,1.110701 0.910783,2.021484 2.021484,2.021484 h 18.773438 c 1.110701,0 2.021484,-0.910783 2.021484,-2.021484 V 20.955078 c 0,-0.690616 -0.571103,-1.259766 -1.261719,-1.259766 -0.690616,10e-7 -1.259765,0.56915 -1.259765,1.259766 v 11.923828 c 0,0.0095 0.0017,0.0078 -0.0078,0.0078 H 15.121094 c -0.0095,0 -0.0078,0.0017 -0.0078,-0.0078 V 20.955078 c 0,-0.690616 -0.569149,-1.259765 -1.259765,-1.259766 z m 10.416015,0.0332 0.08008,0.376953 c -0.0075,0.0013 -0.02017,0.001 -0.02734,0.002 l -0.0098,-0.07617 c -0.130615,0.01718 -0.111681,0.01022 -0.214844,-0.0059 -0.02635,-0.0041 -0.09967,0.01018 -0.138672,0.0078 l -0.04297,-0.146484 c -0.221742,0.01356 -0.413829,0.06519 -0.513672,0.08398 -0.04992,0.0094 -0.126146,-0.02108 0.05078,0.01367 0.02068,0.0041 0.06822,0.03579 0.101562,0.04883 -0.05644,0.02974 -0.09737,0.04542 -0.171875,0.09766 L 23.548828,20.5 23.158203,19.960937 c -0.279912,0.124795 -0.782212,0.427125 -1.242187,0.673829 L 21.837891,20.115234 21.125,20.972656 c -0.03891,0.04673 -0.296179,0.272919 -0.535156,0.498047 -0.137736,0.129754 -0.227663,0.342796 -0.347657,0.507813 l -0.144531,0.0332 -0.109375,0.185547 c -0.149915,0.25492 -0.228204,0.493549 -0.304687,0.662109 l 0.02148,-0.04297 c -0.01802,0.03067 -0.02136,0.02253 0.02148,-0.01172 0.03329,-0.02661 0.126683,-0.05206 0.216797,-0.06445 -0.06179,0.02825 -0.141344,0.06499 -0.259765,0.119141 -0.08111,0.03709 -0.177735,0.08203 -0.177735,0.08203 0,0 -0.01099,0.02895 -0.01758,0.04687 v 0.002 c -0.317196,0.643517 -0.477469,1.189461 -0.603515,1.59961 l -0.07031,0.228515 0.132813,0.197266 c -0.106147,-0.158046 -0.04842,-0.120083 -0.04492,-0.05664 0.0035,0.06344 0.0032,0.170662 0,0.294922 -0.0059,0.23199 -0.01593,0.529669 -0.002,0.822266 -3.7e-5,6.6e-4 3.6e-5,0.0013 0,0.002 -0.162502,2.961192 1.977162,5.735912 4.480468,6.425781 0.472993,0.163376 0.969228,0.141237 1.363282,0.152344 l 0.152343,-0.980469 c -0.26974,-0.07731 -0.449871,-0.102595 -0.578125,-0.123047 -0.11937,-0.01903 -0.212544,-0.04019 -0.394531,-0.101562 -0.09667,-0.04835 -0.144365,-0.0853 -0.207031,-0.148438 -0.06853,-0.06905 -0.163225,-0.186123 -0.320313,-0.322265 l -0.08203,0.06836 c -0.03913,-0.01397 -0.03047,-0.01553 -0.05078,-0.02344 l 0.296875,-0.388672 -0.919922,-0.07227 c 0.166467,0.01308 0.07285,0.01769 0.01953,-0.0293 -0.05332,-0.04699 -0.111417,-0.138534 -0.08984,-0.0957 l -0.146484,-0.287109 -0.244141,0.0078 c -0.0016,0.0088 -0.03007,-0.05694 -0.03125,-0.03516 l -0.609375,-0.175781 0.488282,-0.0039 c -0.07469,-0.12855 -0.103172,-0.149084 -0.169922,-0.238281 -0.06622,-0.08849 -0.140612,-0.191558 -0.199219,-0.277344 l 0.148438,0.04883 -0.142579,-0.351563 0.0098,-0.01172 -0.0293,-0.03906 -0.242187,-0.597656 c -0.11902,-0.295108 -0.210513,-0.477812 -0.359375,-0.634766 -0.01771,-0.01868 -0.03772,-0.01099 -0.05859,-0.02734 l -0.34375,-0.523437 c -0.0046,-0.007 -0.02483,-0.05093 -0.0332,-0.06836 l 0.03711,-0.375 -0.140625,-0.162109 c 0.05895,0.06818 -0.05419,-0.242773 -0.0332,-0.626953 0.02064,-0.377839 0.08529,-0.809527 0.111328,-1.164063 0.0038,-0.01933 0.198498,-0.338135 0.400391,-0.84375 l 0.08398,-0.21289 c 0.12078,-0.152762 0.215172,-0.288495 0.400391,-0.464844 0.143838,-0.136951 0.29325,-0.257942 0.404297,-0.328125 0.111046,-0.07018 0.187768,-0.05513 0.08008,-0.06836 l 0.277344,0.03516 0.173828,-0.21875 c 0.02936,-0.03679 0.05261,-0.06589 0.07422,-0.0957 0.0216,-0.02981 0.03746,-0.03409 0.08203,-0.146485 4.33e-4,-0.0011 0.0015,-0.0028 0.002,-0.0039 0.003,-8.34e-4 0.0188,-0.01686 0.02148,-0.01758 0.03623,-0.0097 0.16903,0.0013 0.414063,-0.06641 l 0.06445,-0.01758 0.05859,-0.03516 c 0.0501,-0.02974 0.0842,-0.04911 0.134765,-0.08789 0.02528,-0.01939 0.05292,-0.02905 0.119141,-0.123047 0.0089,-0.01264 0.01701,-0.03122 0.0293,-0.05469 0.02329,-0.01433 0.09964,-0.0414 0.115234,-0.05078 0.06547,-0.0394 0.187949,-0.05872 0.332031,-0.08203 l 0.03516,0.05273 c 0.105056,-0.05145 0.444433,-0.114274 0.804687,-0.09375 0.360254,0.02052 0.75339,0.108671 1.021484,0.232422 0.295749,0.138875 0.678574,0.4616 0.964844,0.855469 0.286883,0.394711 0.475016,0.855169 0.488281,1.240234 l 0.01367,0.367188 0.0078,0.002 c 0.0037,0.294908 0.02391,0.616205 -0.03906,0.80664 L 27.205078,25.5 c -0.0031,0.0983 -0.04942,0.215142 -0.0918,0.320312 l -0.11914,0.05859 -0.07422,0.144531 c -0.04615,0.08961 -0.08208,0.168197 -0.103516,0.269532 -0.0032,0.01516 0.0018,0.02655 0,0.04297 l -0.529297,0.363282 c -0.09684,0.06653 -0.109248,0.0883 -0.162109,0.136718 l -0.457031,0.214844 c -0.703068,0.331009 -1.89775,-0.414401 -1.882813,-1.439453 l -0.0293,-0.002 c -0.01,-0.488654 0.237825,-0.987554 0.660157,-1.177734 l 0.0098,-0.0039 0.0078,-0.0039 c 0.451268,-0.223485 0.987646,-0.117693 1.283203,0.158203 l 0.738281,-0.669922 c -0.01549,-0.02034 -0.04782,-0.03444 -0.06445,-0.05469 l 0.0078,-0.0078 c -0.01021,-0.0095 -0.02671,-0.0083 -0.03711,-0.01758 -0.352557,-0.41464 -0.921521,-0.797382 -1.667969,-0.759765 -0.683834,0.01482 -1.238564,0.371682 -1.570312,0.876953 -0.297816,0.20212 -0.410769,0.481642 -0.480469,0.671875 -0.03287,0.08972 -0.05376,0.158571 -0.07031,0.203125 l -0.0957,0.07227 -0.02734,0.205078 c -0.07207,0.529873 0.06296,0.927459 0.193359,1.328125 l -0.527344,-0.113281 0.539063,0.966797 c 0.05179,0.09276 0.176304,0.117142 0.240234,0.201172 -0.01812,-0.01357 -0.07968,-0.03507 -0.08203,-0.03711 -0.005,-0.0043 0.0096,0.0098 0.0293,0.03125 0.03948,0.04293 0.102866,0.11677 0.175781,0.199218 0.08702,0.0984 0.254153,0.195185 0.382813,0.298828 0.04146,0.04009 0.05773,0.08303 0.105468,0.121094 l 0.01367,-0.02539 c 0.05928,0.03357 0.05992,0.08092 0.138672,0.107421 l 0.01953,-0.03516 c 0.154804,0.0961 0.242628,0.271168 0.408203,0.34375 0.111681,0.04896 0.230817,-0.011 0.345704,0.02734 0.01434,0.0048 0.02474,0.0014 0.03906,0.0059 l 0.458984,0.214844 -0.04297,-0.164062 c 0.288524,0.03908 0.601619,0.109781 0.822265,0.101562 l -0.01172,-0.05469 c 0.06117,-0.01737 0.125359,0.04082 0.185546,0.01563 l -0.04883,-0.22461 c 0.55731,-0.08395 1.100587,-0.293632 1.582032,-0.679687 0.146174,-0.114662 0.269109,-0.239371 0.361328,-0.330078 0.04366,-0.04295 0.07639,-0.0765 0.09375,-0.0918 -0.01904,0.0121 -0.04878,0.05344 -0.205078,0.0625 l -0.15625,-0.271485 c 0.008,-0.0072 0.01977,-0.01664 0.02734,-0.02344 l 0.460938,0.27539 c 0.0027,-0.0044 0.0032,-0.0093 0.0059,-0.01367 h 0.002 c 0.0038,-0.0065 0.0059,-0.02064 0.0098,-0.02734 0.05505,-0.09209 0.101787,-0.180723 0.125,-0.292969 l 0.464844,-0.703125 -0.06445,0.0039 c 0.02125,-0.04301 0.0205,-0.131923 0.04297,-0.183593 l 0.132813,0.04492 c 0.0052,-0.01375 0.0011,-0.02154 0.0059,-0.03516 l 0.0059,0.002 c 0.02584,-0.08477 0.02197,-0.154994 0.03711,-0.232422 0.02024,-0.109817 0.06157,-0.238927 0.05859,-0.316406 -0.002,-0.0525 1.96e-4,-0.06574 -0.002,-0.0957 l 0.101562,-0.02539 c -8.62e-4,-0.0036 -0.0011,-0.0043 -0.002,-0.0078 -0.03642,-0.141987 0.05129,-0.162444 0.140625,-0.5625 l 0.08984,-0.402344 -0.13086,-0.05664 -0.0059,-0.0332 0.05664,-0.136718 0.240234,-0.05469 c -0.003,-0.0171 -0.01046,-0.03181 -0.01367,-0.04883 h 0.002 c -7.15e-4,-0.0025 -0.0051,-0.01299 -0.0059,-0.01563 -0.04899,-0.254856 -0.123749,-0.496426 -0.205078,-0.732422 -4.04e-4,-0.0322 0.006,-0.08101 0.0039,-0.103515 -0.0069,-0.07316 -0.01438,-0.123225 -0.01953,-0.158204 l 0.08984,-0.03711 c -0.01035,-0.03809 -0.04493,-0.06396 -0.05664,-0.101562 l 0.01367,-0.0059 c -0.03415,-0.06294 -0.06046,-0.111227 -0.09961,-0.166015 -0.0049,-0.0069 -0.01602,-0.01804 -0.02148,-0.02539 -0.342468,-0.883135 -0.999252,-1.605682 -1.726563,-2.042969 -0.02021,-0.01873 -0.04532,-0.0448 -0.0625,-0.06055 l -0.0039,0.0078 c -0.03507,-0.02015 -0.06452,-0.06131 -0.09961,-0.08008 l -0.01758,0.02539 -0.0625,-0.111328 -0.16211,-0.06445 c -0.213584,-0.08679 -0.461454,-0.100367 -0.607422,-0.06445 -0.08884,0.02186 -0.05364,0.01628 -0.04883,0.01758 -0.431803,-0.20653 -0.673665,-0.270369 -1.09375,-0.421875 z m 0.06445,0.455078 0.03516,0.01563 0.111328,0.521484 0.126953,-0.113281 c -0.0047,0.06019 -0.01188,0.145074 -0.01172,0.144531 2.27e-4,-7.69e-4 -0.03976,0.09918 -0.06055,0.130859 -0.05065,0.07721 -0.06597,0.07152 -0.0918,0.08789 z m -10.480468,0.511718 c 0.149554,0 0.259765,0.110211 0.259765,0.259766 v 11.923828 c 0,0.550589 0.457224,1.007813 1.007813,1.007813 h 17.757812 c 0.550589,0 1.007813,-0.457224 1.007813,-1.007813 V 20.955078 c 0,-0.149555 0.110211,-0.259765 0.259765,-0.259766 0.149553,0 0.261719,0.110211 0.261719,0.259766 v 12.431641 c 0,0.569639 -0.451845,1.021484 -1.021484,1.021484 H 14.613281 c -0.569639,0 -1.021484,-0.451845 -1.021484,-1.021484 V 20.955078 c 0,-0.149555 0.112166,-0.259765 0.261719,-0.259766 z m 12.996093,0.138672 0.123047,0.0098 -0.394531,0.558594 c -0.01688,-0.04401 -0.04092,-0.07572 -0.02734,-0.179688 0.01991,-0.152477 0.181606,-0.340914 0.298828,-0.388672 z m -3.121093,0.09375 c 0.01276,0.01617 0.02526,0.03306 0.02539,0.0332 2.7e-5,2.9e-5 0.0053,0.0033 0.0059,0.0039 l 0.02148,0.04883 c -0.356813,0.05003 -0.631596,0.135724 -0.779297,0.224609 -0.165046,0.09932 -0.159135,0.123485 -0.394531,0.183594 l -0.128906,0.03125 -0.0957,0.09375 c -0.0028,0.0027 -0.0069,0.0089 -0.0098,0.01172 -0.02448,0.0054 -0.02062,2.88e-4 -0.04883,0.0078 -0.234822,0.06263 -0.485509,0.220317 -0.75586,0.5 l -0.08984,0.09375 c -0.01582,0.0092 -0.04114,0.0061 -0.05664,0.01563 l 0.443359,-0.416015 c 0.317351,-0.297454 1.014731,-0.573366 1.53711,-0.800782 0.05509,-0.0056 0.141341,0.0021 0.183593,-0.0059 0.05483,-0.01032 0.08904,-0.01499 0.142579,-0.02539 z m 2.767578,0.480469 c -0.0099,0.0024 -0.09762,-0.01696 -0.0078,0.01953 l -0.01758,-0.01563 c 9.49e-4,-4.68e-4 0.02607,-0.0041 0.02539,-0.0039 z m -3.048828,0.002 0.357421,0.535156 -0.130859,-0.02734 c -0.02508,-0.01443 -0.06317,-0.03559 -0.113281,-0.0918 -0.02506,-0.02811 -0.05229,-0.06603 -0.07617,-0.117188 -0.01194,-0.02558 -0.02326,-0.05469 -0.03125,-0.08594 -0.008,-0.03125 -0.01565,-0.09831 -0.01563,-0.09766 3e-5,6.58e-4 0.006,-0.102214 0.0059,-0.101563 -1.5e-5,9.7e-5 0.0034,-0.01123 0.0039,-0.01367 z m 2.933593,0.01563 c 0.106138,0.118758 0.210387,0.187659 0.400391,0.300781 l 0.03711,0.02148 c 0.186333,0.126091 0.275405,0.359742 0.453125,0.541015 -0.291808,-0.350092 -0.618239,-0.647001 -0.978515,-0.849609 0.03458,-0.0073 0.06699,-0.007 0.08789,-0.01367 z m -5.224609,0.900391 0.0039,0.01758 c -0.02699,0.0203 -0.05357,0.04127 -0.08008,0.0625 0.01804,-0.02232 0.04378,-0.03649 0.07617,-0.08008 z m 6.375,0.271484 c 0.08806,0.111929 0.182488,0.183044 0.253906,0.300781 -0.03501,0.04879 -0.06934,0.08796 -0.08789,0.136719 -0.07324,-0.140078 -0.07783,-0.308149 -0.166016,-0.4375 z m 1.535156,0.56836 c 7.1e-5,0.01684 -0.0065,0.05315 -0.02344,0.107421 l -0.07617,0.07227 c -0.01793,-0.04584 -0.02839,-0.07237 -0.04883,-0.119141 z m -5.060547,0.353515 c -0.0031,0.0014 -0.0047,0.0044 -0.0078,0.0059 -0.0026,0.0013 -0.0053,6.86e-4 -0.0078,0.002 z m -4.394531,0.06641 c 0.04301,0.03715 0.146699,0.07598 0.251953,0.103516 -5.47e-4,2.5e-4 -0.01172,0.0059 -0.01172,0.0059 0,0 -0.09961,-0.02539 -0.09961,-0.02539 0,0 -0.101562,-0.05469 -0.101562,-0.05469 0,0 -0.01758,-0.01172 -0.01758,-0.01172 2.6e-5,2.1e-5 -0.01183,-0.0093 -0.02148,-0.01758 z m 9.183594,1.121094 c -0.04372,0.06337 -0.0605,0.125715 -0.144531,0.164063 -0.147861,0.06748 -0.21699,0.05178 -0.115235,0.03711 0.06424,-0.0093 0.162925,-0.115587 0.259766,-0.201172 z m -1.482422,0.835938 0.392578,0.15625 c -0.0024,0.0099 -0.0085,0.02247 -0.01172,0.0332 l -0.126953,0.08789 z m -5.964844,3.802734 -0.01758,0.162109 0.126953,-0.144531 0.132813,0.04297 c 0.0063,0.03126 0.01775,0.0456 0.0039,0.121094 -0.02008,0.109503 -0.164818,0.263437 -0.300781,0.332031 -0.0561,-0.06709 -0.124171,-0.115728 -0.177735,-0.185547 z"
     id="path7" />
</svg>
