<?xml version="1.0" encoding="UTF-8" standalone="no"?>
<!-- Generator: Gravit.io -->

<svg
   style="isolation:isolate"
   viewBox="0 0 48.000002 48.000002"
   width="48pt"
   height="48pt"
   version="1.1"
   id="svg9"
   sodipodi:docname="electron.svg"
   inkscape:version="1.1.2 (0a00cf5339, 2022-02-04)"
   xmlns:inkscape="http://www.inkscape.org/namespaces/inkscape"
   xmlns:sodipodi="http://sodipodi.sourceforge.net/DTD/sodipodi-0.dtd"
   xmlns:xlink="http://www.w3.org/1999/xlink"
   xmlns="http://www.w3.org/2000/svg"
   xmlns:svg="http://www.w3.org/2000/svg">
  <defs
     id="defs13">
    <linearGradient
       inkscape:collect="always"
       xlink:href="#_lgradient_2"
       id="linearGradient872"
       x1="-12.025727"
       y1="6.1170783"
       x2="-0.085100174"
       y2="6.1170783"
       gradientUnits="userSpaceOnUse"
       gradientTransform="matrix(3.8452688,0,0,3.8271339,0.05396831,0.05959621)" />
    <linearGradient
       id="_lgradient_1"
       x1="0.18336116"
       y1="0.24917752"
       x2="0.9027437"
       y2="0.90347725"
       gradientTransform="matrix(24.617266,0,0,24.816118,10.841288,10.089605)"
       gradientUnits="userSpaceOnUse">
      <stop
         offset="2.608695652173913%"
         stop-opacity="1"
         style="stop-color:rgb(179,255,171)"
         id="stop2-3" />
      <stop
         offset="98.69565217391305%"
         stop-opacity="1"
         style="stop-color:rgb(18,255,247)"
         id="stop4-6" />
    </linearGradient>
    <linearGradient
       inkscape:collect="always"
       xlink:href="#_lgradient_2"
       id="linearGradient15"
       x1="-9.6850061"
       y1="45.161198"
       x2="11.98815"
       y2="21.735205"
       gradientUnits="userSpaceOnUse"
       gradientTransform="matrix(1.1145269,0,0,1.1151225,0.07372068,-3.3275316)" />
    <linearGradient
       inkscape:collect="always"
       xlink:href="#_lgradient_2"
       id="linearGradient1364"
       x1="10.564642"
       y1="22.992346"
       x2="37.43536"
       y2="22.992346"
       gradientUnits="userSpaceOnUse" />
  </defs>
  <sodipodi:namedview
     id="namedview11"
     pagecolor="#ffffff"
     bordercolor="#666666"
     borderopacity="1.0"
     inkscape:pageshadow="2"
     inkscape:pageopacity="0.0"
     inkscape:pagecheckerboard="0"
     inkscape:document-units="pt"
     showgrid="false"
     inkscape:zoom="5.3587113"
     inkscape:cx="33.776778"
     inkscape:cy="34.989756"
     inkscape:window-width="1085"
     inkscape:window-height="545"
     inkscape:window-x="235"
     inkscape:window-y="73"
     inkscape:window-maximized="0"
     inkscape:current-layer="svg9" />
  <linearGradient
     id="_lgradient_2"
     x1="0"
     y1="0.5"
     x2="1"
     y2="0.5"
     gradientTransform="matrix(41.058192,0,0,41.058192,3.5195883,2.7044674)"
     gradientUnits="userSpaceOnUse">
    <stop
       offset="0%"
       stop-opacity="1"
       style="stop-color:rgb(24,208,173)"
       id="stop2" />
    <stop
       offset="90.44964029999998%"
       stop-opacity="1"
       style="stop-color:rgb(7,195,242)"
       id="stop4" />
  </linearGradient>
  <rect
     x="-46.838989"
     y="1.2844515"
     height="45.680725"
     rx="6.1989927"
     shape-rendering="crispEdges"
     id="rect5-6-7-3"
     ry="6.7877836"
     transform="matrix(0.00521413,-0.99998641,0.99998789,0.0049218,0,0)"
     style="isolation:isolate;fill:#00fdff;fill-opacity:0.13470298;stroke:url(#linearGradient872);stroke-width:2.02995;stroke-miterlimit:4;stroke-dasharray:none;stroke-opacity:1"
     width="45.91481" />
  <rect
     x="-15.597655"
     y="17.261967"
     height="33.348476"
     rx="6.790679"
     shape-rendering="crispEdges"
     id="rect5-6-6-6-6"
     style="isolation:isolate;fill:#00fdff;fill-opacity:0.13470298;stroke:url(#linearGradient15);stroke-width:1.67223;stroke-miterlimit:4;stroke-dasharray:none;stroke-opacity:1"
     ry="7.4748945"
     transform="matrix(0.72271671,-0.69114438,0.68438107,0.72912451,0,0)"
     width="33.331703" />
  <path
     style="color:#000000;fill:url(#linearGradient1364);fill-rule:evenodd;-inkscape-stroke:none"
     d="M 24.001953,8.2734375 C 23.386585,8.2725487 22.79647,8.5179826 22.361328,8.953125 21.92616,9.3882919 21.680752,9.9784306 21.681641,10.59375 c 8.88e-4,0.614171 0.246727,1.20305 0.68164,1.636719 0.434836,0.433591 1.02457,0.67667 1.638672,0.675781 0.799375,-0.0011 1.478888,-0.464915 1.898438,-1.126953 2.27463,1.741959 3.475202,5.010568 3.867187,8.539062 v 0.002 c 0.439705,3.893941 -0.08952,8.021321 -0.810547,10.181641 -0.132621,0.399727 0.08663,0.83786 0.486328,0.970703 0.399725,0.132543 0.837617,-0.08684 0.970703,-0.486328 0.826355,-2.485538 1.343552,-6.697107 0.878907,-10.839844 C 30.843238,16.126812 29.440898,12.11222 26.208984,10.111328 25.994137,9.1570152 25.215592,8.4901679 24.251953,8.3710938 v -0.097656 z m -0.0098,0.5039063 h 0.0098 c 0.901406,0.00154 1.66153,0.659061 1.792969,1.5507812 l 0.01758,0.115234 0.09961,0.0625 c 3.059252,1.867446 4.439782,5.735522 4.882813,9.695313 0.455812,4.063977 -0.06325,8.244096 -0.855469,10.626953 -0.04771,0.143197 -0.194286,0.217539 -0.337891,0.169922 -0.143317,-0.04763 -0.21746,-0.194606 -0.169921,-0.337891 0.757654,-2.27005 1.281065,-6.41992 0.832031,-10.396484 -0.410399,-3.694247 -1.653999,-7.207933 -4.228516,-9.044922 l -0.25,-0.179687 -0.125,0.28125 c -0.289805,0.659143 -0.938111,1.084969 -1.658203,1.085937 -0.481753,6.97e-4 -0.944171,-0.189287 -1.285156,-0.529297 -0.341226,-0.34025 -0.534459,-0.801517 -0.535156,-1.283203 -6.98e-4,-0.482757 0.191912,-0.9458191 0.533203,-1.2871094 0.338737,-0.3387374 0.79858,-0.5271137 1.277343,-0.5292968 z m 0.0098,0.53125 c -0.704994,0 -1.283054,0.5762766 -1.285156,1.2812502 0,0.340545 0.136248,0.667303 0.376953,0.908203 0.2409,0.240703 0.567657,0.376953 0.908203,0.376953 0.677309,-0.0029 1.239873,-0.538778 1.277344,-1.214844 l 0.002,-0.01758 -0.002,-0.01953 c -0.0022,-0.0225 -0.0031,-0.04377 0,-0.06445 l 0.0059,-0.02734 -0.002,-0.0293 C 25.235723,9.8319353 24.673609,9.308986 24.001953,9.3085938 Z m 0,0.5 c 0.414051,2.417e-4 0.751972,0.3153622 0.78125,0.7285152 -0.0035,0.04508 -0.0063,0.09054 -0.002,0.134766 l -0.002,-0.03906 c -0.02308,0.416387 -0.360503,0.739533 -0.777344,0.742187 -0.208175,0 -0.407359,-0.08326 -0.554687,-0.230469 -0.147209,-0.147327 -0.230469,-0.346511 -0.230469,-0.554687 0.0013,-0.435288 0.349888,-0.7812502 0.785156,-0.7812502 z m 6.962891,4.0976562 0.04102,0.04102 c -0.121081,0.006 -0.242566,5e-6 -0.363281,0.01172 h -0.002 c -0.272838,0.02746 -0.51062,0.199015 -0.623047,0.449219 -0.112745,0.250164 -0.08253,0.543212 0.07813,0.765625 0.160501,0.222447 0.428435,0.342384 0.701172,0.314453 2.081072,-0.214255 3.620605,0.580143 4.185547,1.970703 0.560589,1.383964 0.212062,3.659304 -2.267578,6.589844 l 0.0078,-0.0059 c -0.189751,0.207365 -0.252008,0.501891 -0.160156,0.767578 0.09187,0.265774 0.324243,0.462023 0.601562,0.507812 0.275879,0.04554 0.554079,-0.06533 0.726563,-0.285156 2.683459,-3.173782 3.366421,-6.044039 2.513672,-8.152344 -0.75256,-1.847984 -2.635797,-2.897687 -4.810547,-2.955078 -0.0015,-4e-5 -0.0024,-0.0019 -0.0039,-0.002 z m -13.552735,0.04687 -0.253906,0.0039 c -2.566335,0.04529 -4.377038,0.849714 -5.376953,2.203125 -1.331204,1.806261 -1.003343,4.319578 0.414063,6.525391 l 0.002,0.0059 0.0039,0.0039 c 0.235796,0.332309 0.698108,0.423315 1.041016,0.203125 0.342571,-0.220356 0.4523,-0.678599 0.248046,-1.03125 l -0.002,-0.0039 -0.0039,-0.0059 c -1.195959,-1.858789 -1.319911,-3.630987 -0.46875,-4.78711 0.853391,-1.155261 2.915267,-1.976306 6.732422,-1.380859 l -0.0059,-0.002 c 0.274475,0.05095 0.555393,-0.05204 0.732422,-0.267578 0.176963,-0.215688 0.222436,-0.510324 0.119141,-0.769531 -0.102954,-0.258321 -0.339637,-0.440893 -0.615234,-0.476563 -0.848317,-0.137341 -1.707222,-0.18953 -2.566407,-0.193359 z m 10.056641,0.3125 -0.0098,0.002 h -0.0078 c -0.04345,0.0057 -0.08578,0.01731 -0.125,0.0293 -4.078997,0.98168 -7.883721,2.874974 -11.125,5.539062 h -0.002 c -3.078974,2.565785 -5.291804,5.717858 -5.357422,9.013672 -0.307128,0.401476 -0.52639,0.870292 -0.527344,1.378907 0,0.614814 0.24475,1.204269 0.679688,1.638671 0.435102,0.434393 1.025819,0.678625 1.640625,0.677735 1.274788,-0.0019 2.3125,-1.041655 2.3125,-2.316406 0.0011,-0.614222 -0.242287,-1.203755 -0.675782,-1.638672 -0.433669,-0.434913 -1.022548,-0.680752 -1.636718,-0.681641 h -0.002 c -0.0236,4.9e-5 -0.04673,0.007 -0.07031,0.0078 0.418123,-2.335571 2.085744,-4.79464 4.617187,-6.90625 3.065653,-2.511589 6.659433,-4.298232 10.511719,-5.228516 h -0.0059 c 0.373548,-0.08216 0.631683,-0.431124 0.599609,-0.8125 -0.03202,-0.380679 -0.34326,-0.683638 -0.724609,-0.703125 -0.03055,-0.0017 -0.06127,-0.0017 -0.0918,0 z m 4.111328,0.160156 h 0.01172 c 2.017099,0.05716 3.683028,1.007674 4.349609,2.644531 0.757911,1.876308 0.18248,4.552582 -2.435547,7.646485 l -0.0039,0.0039 -0.002,0.0039 c -0.06025,0.07777 -0.158686,0.115652 -0.255859,0.09961 -0.09727,-0.01606 -0.176853,-0.08282 -0.208985,-0.175782 -0.03217,-0.09304 -0.0099,-0.196827 0.05664,-0.269531 l 0.002,-0.002 0.0039,-0.0039 c 2.547347,-3.010558 3.005672,-5.477075 2.347656,-7.101563 -0.660006,-1.624553 -2.464107,-2.511364 -4.699218,-2.28125 -0.09583,0.0098 -0.189643,-0.03114 -0.246094,-0.109375 -0.05631,-0.07796 -0.06684,-0.179946 -0.02734,-0.267578 0.03927,-0.08739 0.121487,-0.146061 0.216797,-0.15625 0.295429,-0.02867 0.593735,-0.03937 0.890625,-0.03125 z m -14.435547,0.03516 h 0.02148 c 0.917688,-0.01 1.834383,0.05994 2.740234,0.207031 h 0.0039 0.0039 c 0.09711,0.01219 0.178601,0.07508 0.214844,0.166015 0.03625,0.09096 0.02118,0.19373 -0.04102,0.269532 -0.06212,0.07564 -0.159553,0.111625 -0.25586,0.09375 l -0.0039,-0.002 h -0.002 c -3.913474,-0.610472 -6.200311,0.207364 -7.212891,1.578124 -1.00878,1.370215 -0.815454,3.386848 0.451172,5.355469 l -0.0059,-0.01172 c 0.07296,0.125973 0.03453,0.280633 -0.08789,0.359375 -0.121469,0.07666 -0.275275,0.04627 -0.359375,-0.07031 -1.338187,-2.088327 -1.602004,-4.355896 -0.427734,-5.949219 0.882003,-1.193813 2.508336,-1.947758 4.960937,-1.996093 z m 10.361328,0.304687 c 0.009,-2.88e-4 0.01805,-5.25e-4 0.02734,0 h 0.002 c 0.135564,0.0066 0.240558,0.108665 0.251953,0.244141 0.01138,0.135311 -0.07631,0.254023 -0.208984,0.283203 l -0.002,0.002 h -0.002 C 23.647913,16.243081 19.985616,18.064835 16.861328,20.625 h -0.002 v 0.002 c -2.70937,2.260027 -4.590866,4.92776 -4.923828,7.550781 l -0.04492,0.355469 0.347656,-0.08008 c 0.129331,-0.02925 0.261873,-0.0445 0.394532,-0.04492 0.481686,6.97e-4 0.942953,0.19393 1.283203,0.535156 0.340106,0.341223 0.532121,0.803519 0.53125,1.285157 0,1.00482 -0.80967,1.814907 -1.814453,1.816406 -0.48232,6.98e-4 -0.943802,-0.190453 -1.285157,-0.53125 -0.341202,-0.340783 -0.533203,-0.802846 -0.533203,-1.285156 8.36e-4,-0.445873 0.165365,-0.874788 0.462891,-1.207032 l 0.0625,-0.07031 0.002,-0.0918 c 0.06125,-3.076647 2.163362,-6.126721 5.177734,-8.638672 3.186369,-2.618633 6.925192,-4.480484 10.935547,-5.443359 l 0.0078,-0.002 0.0078,-0.002 c 0.01247,-0.0039 0.02419,-0.0059 0.03516,-0.0078 z m -3.503906,5.910156 c -0.615368,-8.89e-4 -1.205483,0.244545 -1.640625,0.679688 -0.435168,0.435167 -0.680576,1.025305 -0.679687,1.640625 8.88e-4,0.61417 0.246727,1.203049 0.68164,1.636718 0.434836,0.433592 1.02457,0.676671 1.638672,0.675782 1.273369,-0.0019 2.31055,-1.039144 2.3125,-2.3125 0.0011,-0.61422 -0.242262,-1.203731 -0.675781,-1.638672 -0.433582,-0.435004 -1.022643,-0.680574 -1.636719,-0.681641 z m 0,0.5 c 0.481781,8.37e-4 0.943182,0.194021 1.283203,0.535156 0.340083,0.341199 0.530168,0.803522 0.529297,1.285157 -0.0015,1.003677 -0.808833,1.811001 -1.8125,1.8125 -0.481753,6.97e-4 -0.944171,-0.189287 -1.285156,-0.529297 -0.341226,-0.34025 -0.534459,-0.801517 -0.535156,-1.283203 -6.98e-4,-0.482758 0.191911,-0.945819 0.533203,-1.28711 0.341313,-0.341314 0.8044,-0.5339 1.287109,-0.533203 z m -9.294922,2.90625 c -0.311311,-0.0046 -0.597125,0.180113 -0.71875,0.466797 -0.12175,0.286695 -0.05771,0.621034 0.16211,0.841797 3.18988,3.298034 7.153784,5.727671 10.894531,6.998047 3.614373,1.227935 7.058358,1.394824 9.445312,-0.04492 0.280508,0.116532 0.574291,0.202817 0.878907,0.203125 0.614863,0 1.204403,-0.244708 1.638671,-0.679688 0.434459,-0.434991 0.678623,-1.023866 0.677735,-1.638671 0,-0.614161 -0.243506,-1.204444 -0.677735,-1.638672 -0.434252,-0.434252 -1.02451,-0.677735 -1.638671,-0.677735 -0.614666,-8.88e-4 -1.203681,0.243277 -1.638672,0.677735 -0.435186,0.434296 -0.679688,1.023997 -0.679688,1.638672 0.001,0.337735 0.143339,0.645769 0.285156,0.949218 -1.799061,0.869494 -4.633637,0.831886 -7.800781,-0.24414 -3.485508,-1.181833 -7.271238,-3.501267 -10.28125,-6.607422 -0.141396,-0.152223 -0.337556,-0.239679 -0.544922,-0.244141 z m -0.0098,0.5 h 0.002 c 0.072,0.002 0.140647,0.03144 0.189453,0.08398 l 0.002,0.002 v 0.002 c 3.069699,3.169141 6.913493,5.527501 10.484375,6.738281 3.338037,1.134086 6.395199,1.230607 8.384766,0.173828 l 0.24414,-0.128906 -0.152344,-0.230469 c -0.195324,-0.295425 -0.299726,-0.641983 -0.300781,-0.996094 4.97e-4,-0.481454 0.190421,-0.94307 0.53125,-1.283203 h 0.002 c 0.341148,-0.340729 0.803015,-0.531947 1.285157,-0.53125 0.481695,0 0.944537,0.190633 1.285156,0.53125 0.340642,0.340643 0.53125,0.803461 0.53125,1.285157 6.96e-4,0.482322 -0.19052,0.944008 -0.53125,1.285156 -0.340603,0.34116 -0.802894,0.533203 -1.285156,0.533203 -0.275416,-2.79e-4 -0.547347,-0.06273 -0.794922,-0.183594 l -0.125,-0.06055 -0.117188,0.07422 c -2.186432,1.376743 -5.54245,1.254897 -9.126953,0.03711 -3.659253,-1.242699 -7.565768,-3.634709 -10.697265,-6.873046 v -0.002 l -0.002,-0.002 c -0.07737,-0.0777 -0.09949,-0.192067 -0.05664,-0.292968 0.04244,-0.100039 0.139192,-0.163 0.248047,-0.16211 z m -2.06836,4.365235 c -0.703424,0.0022 -1.277194,0.575802 -1.279297,1.279296 v 0.002 c 0,0.704993 0.574276,1.283054 1.279297,1.285156 h 0.002 c 0.340546,0 0.667296,-0.136046 0.908204,-0.376953 0.240787,-0.240788 0.376953,-0.567561 0.376953,-0.908203 v -0.002 c -0.0022,-0.704997 -0.580209,-1.279296 -1.285157,-1.279296 z m 22.740235,0 c -0.704948,0 -1.283055,0.574322 -1.285157,1.279296 v 0.002 c 0,0.340546 0.136119,0.667367 0.376953,0.908203 0.240909,0.240907 0.567658,0.376953 0.908204,0.376953 0.705118,-0.0022 1.28125,-0.580209 1.28125,-1.285156 v -0.002 c -0.0022,-0.703424 -0.577681,-1.277194 -1.28125,-1.279296 z m -22.738282,0.5 c 0.435315,0 0.783825,0.345984 0.785157,0.78125 0,0.208079 -0.08335,0.407563 -0.230469,0.554687 -0.14732,0.14732 -0.346512,0.230469 -0.554688,0.230469 -0.435242,-0.0013 -0.78125,-0.349889 -0.78125,-0.785156 0.0013,-0.434231 0.34695,-0.779918 0.78125,-0.78125 z m 22.738282,0 c 0.434471,0.0013 0.779918,0.346949 0.78125,0.78125 0,0.435314 -0.345789,0.783823 -0.78125,0.785156 -0.208176,0 -0.407366,-0.08315 -0.554688,-0.230469 -0.147075,-0.147076 -0.230469,-0.346512 -0.230469,-0.554687 0.0013,-0.435288 0.349843,-0.78125 0.785157,-0.78125 z M 18.25,30.486328 c -0.229376,0.01904 -0.439961,0.140541 -0.570313,0.330078 -0.130336,0.189622 -0.167717,0.427582 -0.103515,0.648438 0.0011,0.0039 0.411023,1.516762 1.384765,3.048828 0.976028,1.53241 2.622231,3.197265 5.041016,3.197265 3.208391,0 4.994314,-3.463892 5.005859,-3.486328 v -0.002 c 0.140958,-0.239594 0.142954,-0.539349 0.002,-0.779297 -0.14141,-0.240305 -0.402796,-0.38447 -0.681641,-0.376953 -0.27898,0.0074 -0.531929,0.16653 -0.660156,0.414063 l 0.0059,-0.01172 c 0,0 -0.402946,0.684458 -1.074219,1.369141 -0.671272,0.684683 -1.595369,1.341796 -2.601562,1.341796 -1.713328,0 -2.90754,-1.175576 -3.742188,-2.486328 -0.83374,-1.309324 -1.201172,-2.632812 -1.201172,-2.632812 v 0.0039 c -0.08418,-0.332506 -0.381506,-0.569682 -0.724609,-0.578125 -0.02006,-8.98e-4 -0.04049,-7.39e-4 -0.06055,0 h -0.0098 z m 0.03711,0.5 c 0.0075,-2.93e-4 0.01601,-4.11e-4 0.02344,0 h 0.0039 0.0039 c 0.120931,0.003 0.22227,0.08392 0.251953,0.201172 v 0.002 l 0.002,0.0039 c 0,0 0.381734,1.385632 1.261718,2.767578 0.879075,1.380522 2.221572,2.718751 4.164063,2.71875 1.218506,10e-7 2.241009,-0.759868 2.958984,-1.492187 0.717976,-0.732319 1.148438,-1.464844 1.148438,-1.464844 l 0.002,-0.0059 0.0039,-0.0059 c 0.04495,-0.08678 0.132957,-0.141941 0.230469,-0.144531 0.09703,-0.0026 0.186598,0.04765 0.236328,0.13086 0.0495,0.08424 0.04988,0.187222 0,0.271484 l -0.0039,0.0059 -0.002,0.0059 c 0,0 -1.721125,3.230468 -4.570313,3.230468 -2.189206,0 -3.691136,-1.509784 -4.619141,-2.966796 -0.92902,-1.461703 -1.326171,-2.914063 -1.326171,-2.914063 v -0.002 -0.002 c -0.02238,-0.07698 -0.01023,-0.160537 0.03516,-0.226563 0.04482,-0.06517 0.11694,-0.105442 0.195312,-0.113281 z"
     id="path7" />
</svg>
