<?xml version="1.0" encoding="UTF-8" standalone="no"?>
<!-- Generator: Gravit.io -->

<svg
   style="isolation:isolate"
   viewBox="0 0 48 48"
   width="48pt"
   height="48pt"
   version="1.1"
   id="svg9"
   sodipodi:docname="elisa.svg"
   inkscape:version="1.1.2 (0a00cf5339, 2022-02-04)"
   xmlns:inkscape="http://www.inkscape.org/namespaces/inkscape"
   xmlns:sodipodi="http://sodipodi.sourceforge.net/DTD/sodipodi-0.dtd"
   xmlns:xlink="http://www.w3.org/1999/xlink"
   xmlns="http://www.w3.org/2000/svg"
   xmlns:svg="http://www.w3.org/2000/svg">
  <defs
     id="defs13">
    <linearGradient
       inkscape:collect="always"
       xlink:href="#_lgradient_14"
       id="linearGradient872"
       x1="-12.025727"
       y1="6.1170783"
       x2="-0.085100174"
       y2="6.1170783"
       gradientUnits="userSpaceOnUse"
       gradientTransform="matrix(3.8358211,0,0,3.8371386,-0.00544341,-0.00268054)" />
    <linearGradient
       id="_lgradient_1"
       x1="0.18336116"
       y1="0.24917752"
       x2="0.9027437"
       y2="0.90347725"
       gradientTransform="matrix(24.617266,0,0,24.816118,10.841288,10.089605)"
       gradientUnits="userSpaceOnUse">
      <stop
         offset="2.608695652173913%"
         stop-opacity="1"
         style="stop-color:rgb(179,255,171)"
         id="stop2-3" />
      <stop
         offset="98.69565217391305%"
         stop-opacity="1"
         style="stop-color:rgb(18,255,247)"
         id="stop4-6" />
    </linearGradient>
    <linearGradient
       inkscape:collect="always"
       xlink:href="#_lgradient_14"
       id="linearGradient15"
       x1="-9.6850061"
       y1="45.161198"
       x2="11.98815"
       y2="21.735205"
       gradientUnits="userSpaceOnUse"
       gradientTransform="matrix(1.1147442,0,0,1.1150348,-0.01237238,-3.3277956)" />
    <linearGradient
       inkscape:collect="always"
       xlink:href="#_lgradient_14"
       id="linearGradient878"
       x1="12.157077"
       y1="24"
       x2="35.842922"
       y2="24"
       gradientUnits="userSpaceOnUse" />
  </defs>
  <sodipodi:namedview
     id="namedview11"
     pagecolor="#ffffff"
     bordercolor="#666666"
     borderopacity="1.0"
     inkscape:pageshadow="2"
     inkscape:pageopacity="0.0"
     inkscape:pagecheckerboard="0"
     inkscape:document-units="pt"
     showgrid="false"
     inkscape:zoom="5.109375"
     inkscape:cx="32"
     inkscape:cy="32"
     inkscape:window-width="1056"
     inkscape:window-height="545"
     inkscape:window-x="264"
     inkscape:window-y="80"
     inkscape:window-maximized="0"
     inkscape:current-layer="svg9" />
  <linearGradient
     id="_lgradient_14"
     x1="0"
     y1="0.5"
     x2="1"
     y2="0.5"
     gradientTransform="matrix(23.685845,0,0,20.158167,12.157077,13.920916)"
     gradientUnits="userSpaceOnUse">
    <stop
       offset="0%"
       stop-opacity="1"
       style="stop-color:rgb(67,233,123)"
       id="stop2" />
    <stop
       offset="97.82608695652173%"
       stop-opacity="1"
       style="stop-color:rgb(56,249,215)"
       id="stop4" />
  </linearGradient>
  <rect
     x="-46.783188"
     y="1.2253767"
     height="45.80014"
     rx="6.1837621"
     shape-rendering="crispEdges"
     id="rect5-6-7-3"
     ry="6.8055277"
     transform="matrix(0.00524063,-0.99998627,0.99998801,0.00489691,0,0)"
     style="isolation:isolate;fill:#00ff7d;fill-opacity:0.13470298;stroke:url(#linearGradient872);stroke-width:2.0301;stroke-miterlimit:4;stroke-dasharray:none;stroke-opacity:1"
     width="45.801998" />
  <rect
     x="-15.686804"
     y="17.260084"
     height="33.345856"
     rx="6.7920032"
     shape-rendering="crispEdges"
     id="rect5-6-6-6-6"
     style="isolation:isolate;fill:#00ff7d;fill-opacity:0.13470298;stroke:url(#linearGradient15);stroke-width:1.67233;stroke-miterlimit:4;stroke-dasharray:none;stroke-opacity:1"
     ry="7.4743071"
     transform="matrix(0.72446484,-0.68931175,0.68622417,0.72739012,0,0)"
     width="33.338203" />
  <path
     style="color:#000000;fill:url(#linearGradient878);fill-rule:evenodd;-inkscape-stroke:none"
     d="m 14.173828,13.421875 c -1.383261,0 -2.517578,1.132364 -2.517578,2.515625 v 11.337891 c 0,0.687804 0.568054,1.255859 1.255859,1.255859 0.687806,0 1.25586,-0.568055 1.25586,-1.255859 V 16.441406 c 0,-0.285834 0.223932,-0.507812 0.509765,-0.507812 h 6.927735 4.410156 c 0.379632,0 0.733649,-0.112249 1.013672,-0.322266 0.280022,-0.210017 0.49414,-0.544603 0.49414,-0.933594 0,-0.388991 -0.214118,-0.72553 -0.49414,-0.935546 -0.280023,-0.210017 -0.63404,-0.320313 -1.013672,-0.320313 z m 16.376953,0 c -0.379631,0 -0.731696,0.110296 -1.011719,0.320313 -0.280022,0.210016 -0.496093,0.546555 -0.496093,0.935546 0,0.388991 0.216071,0.723577 0.496093,0.933594 0.280023,0.210017 0.632088,0.322266 1.011719,0.322266 h 2.771485 c 0.285833,0 0.509765,0.221978 0.509765,0.507812 v 5.794922 c 0,0.687804 0.568054,1.255859 1.25586,1.255859 0.687805,0 1.255859,-0.568055 1.255859,-1.255859 V 15.9375 c 0,-1.383261 -1.134317,-2.515625 -2.517578,-2.515625 z m -16.376953,1 h 11.841797 c 0.176734,0 0.327269,0.05746 0.412109,0.121094 0.08484,0.06363 0.0957,0.106483 0.0957,0.134765 0,0.02828 -0.01086,0.06918 -0.0957,0.132813 -0.08484,0.06363 -0.235375,0.123047 -0.412109,0.123047 h -4.410156 -6.927735 c -0.826895,0 -1.509765,0.680915 -1.509765,1.507812 v 10.833985 c 0,0.146742 -0.109118,0.255859 -0.25586,0.255859 -0.146741,0 -0.255859,-0.109117 -0.255859,-0.255859 V 15.9375 c 0,-0.842199 0.675379,-1.515625 1.517578,-1.515625 z m 16.376953,0 h 3.275391 c 0.842199,0 1.517578,0.673426 1.517578,1.515625 v 6.298828 c 0,0.146741 -0.109118,0.255859 -0.255859,0.255859 -0.146742,0 -0.25586,-0.109118 -0.25586,-0.255859 v -5.794922 c 0,-0.826897 -0.68287,-1.507812 -1.509765,-1.507812 h -2.771485 c -0.176733,0 -0.327269,-0.05942 -0.412109,-0.123047 -0.08484,-0.06363 -0.0957,-0.10453 -0.0957,-0.132813 0,-0.02828 0.01086,-0.07113 0.0957,-0.134765 0.08484,-0.06363 0.235376,-0.121094 0.412109,-0.121094 z m -12.09375,3.787109 c -1.939304,0 -3.523437,1.584133 -3.523437,3.523438 0,1.939304 1.584134,3.523437 3.523437,3.523437 0.188197,0 0.371161,-0.02193 0.552735,-0.05078 h 0.0039 0.451172 9.070312 0.451172 c 0.182766,0.02924 0.367109,0.05078 0.556641,0.05078 1.939303,0 3.523437,-1.584133 3.523437,-3.523437 0,-1.939305 -1.584133,-3.523438 -3.523437,-3.523438 -0.267811,0 -0.524465,0.04293 -0.775391,0.09961 h -0.232422 -9.070312 -0.232422 c -0.250927,-0.05668 -0.507581,-0.09961 -0.775391,-0.09961 z m 0,1 c 0.224839,0 0.441129,0.0292 0.648438,0.08398 l 0.0625,0.01563 h 0.296875 9.070312 0.296875 l 0.0625,-0.01563 c 0.207312,-0.05478 0.4236,-0.08398 0.648438,-0.08398 1.397876,0 2.523437,1.12556 2.523437,2.523438 0,1.397877 -1.12556,2.523437 -2.523437,2.523437 -0.158166,0 -0.311634,-0.01334 -0.460938,-0.04102 l -0.04492,-0.0098 h -0.501953 -9.070312 -0.501953 l -0.04492,0.0098 c -0.149269,0.02767 -0.302754,0.04102 -0.460938,0.04102 -1.397877,0 -2.523437,-1.12556 -2.523437,-2.523437 0,-1.397878 1.125561,-2.523438 2.523437,-2.523438 z m 0,0.511719 c -0.536496,0 -1.047064,0.215032 -1.421875,0.589844 -0.374812,0.374812 -0.589843,0.885379 -0.589844,1.421875 0,0.536496 0.215032,1.047064 0.589844,1.421875 0.374811,0.374812 0.885379,0.589844 1.421875,0.589844 0.536497,0 1.047064,-0.215033 1.421875,-0.589844 0.374813,-0.374812 0.589844,-0.88538 0.589844,-1.421875 0,-0.536496 -0.215032,-1.047063 -0.589844,-1.421875 -0.374811,-0.374811 -0.885378,-0.589844 -1.421875,-0.589844 z m 11.085938,0 c -0.536497,0 -1.047064,0.215033 -1.421875,0.589844 -0.374812,0.374812 -0.589844,0.885379 -0.589844,1.421875 0,0.536495 0.215031,1.047063 0.589844,1.421875 0.374811,0.374811 0.885378,0.589844 1.421875,0.589844 0.536496,0 1.047064,-0.215032 1.421875,-0.589844 0.374812,-0.374811 0.589843,-0.885379 0.589843,-1.421875 0,-0.536496 -0.215031,-1.047063 -0.589843,-1.421875 -0.374811,-0.374812 -0.885379,-0.589844 -1.421875,-0.589844 z m -9.242188,0.09961 0.388672,0.734375 c 0.185919,0.351646 0.291016,0.750994 0.291016,1.177735 0,0.44429 -0.114205,0.856958 -0.314453,1.21875 l -0.410157,0.742187 h 0.847657 6.640625 l -0.410157,-0.742187 c -0.200248,-0.361792 -0.314453,-0.77446 -0.314453,-1.21875 0,-0.426741 0.105097,-0.826089 0.291016,-1.177735 l 0.388672,-0.734375 z m 1.453125,1 h 0.841797 c -0.339822,0.196115 -0.607422,0.496175 -0.607422,0.91211 0,0.462134 0.323972,0.787081 0.726563,0.960937 h -0.982422 c 0.09446,-0.318355 0.248047,-0.613354 0.248047,-0.960937 0,-0.328497 -0.141814,-0.609309 -0.226563,-0.91211 z m 3.650391,0 h 0.841797 c -0.08475,0.302801 -0.226563,0.583613 -0.226563,0.91211 0,0.347583 0.153589,0.642582 0.248047,0.960937 h -0.982422 c 0.402591,-0.173856 0.726563,-0.498803 0.726563,-0.960937 0,-0.415935 -0.2676,-0.715995 -0.607422,-0.91211 z m -6.947266,0.65625 c 0.146743,0 0.25586,0.109116 0.25586,0.25586 0,0.146741 -0.109118,0.255859 -0.25586,0.255859 -0.146742,0 -0.255859,-0.109118 -0.255859,-0.255859 0,-0.146744 0.109117,-0.255859 0.255859,-0.25586 z m 11.085938,0 c 0.146742,0 0.255859,0.109116 0.255859,0.25586 0,0.146741 -0.109117,0.255859 -0.255859,0.255859 -0.146742,0 -0.25586,-0.109118 -0.25586,-0.255859 0,-0.146744 0.109117,-0.255859 0.25586,-0.25586 z m -6.425782,0.125 h 1.765625 c 0.0772,0 0.128907,0.05366 0.128907,0.13086 0,0.07719 -0.05171,0.128906 -0.128907,0.128906 h -1.765625 c -0.07719,0 -0.128906,-0.05171 -0.128906,-0.128906 0,-0.0772 0.05171,-0.13086 0.128906,-0.13086 z m 11.970704,3.410157 c -0.687806,0 -1.25586,0.568055 -1.25586,1.255859 v 5.291016 c 0,0.09155 -0.109438,0.106537 -0.15039,0.179687 l -1.484375,-2.974609 c -0.23251,-0.465013 -0.657404,-0.728516 -1.177735,-0.728516 h -13.03125 c -0.520331,0 -0.945227,0.263499 -1.177734,0.728516 l -1.496094,3 -0.136719,0.302734 h -0.5 c -0.285833,0 -0.509765,-0.221978 -0.509765,-0.507812 v -0.251953 c 0,-0.687805 -0.568054,-1.25586 -1.25586,-1.25586 -0.687805,0 -1.255859,0.568055 -1.255859,1.25586 V 32.0625 c 0,1.383261 1.134317,2.515625 2.517578,2.515625 h 19.652344 c 1.383261,0 2.517578,-1.132364 2.517578,-2.515625 v -5.794922 c 0,-0.687804 -0.568054,-1.255859 -1.255859,-1.255859 z m 0,1 c 0.146741,0 0.255859,0.109118 0.255859,0.255859 V 32.0625 c 0,0.842199 -0.675379,1.515625 -1.517578,1.515625 H 14.173828 c -0.842199,0 -1.517578,-0.673426 -1.517578,-1.515625 v -0.755859 c 0,-0.146741 0.109118,-0.25586 0.255859,-0.25586 0.146742,0 0.25586,0.109119 0.25586,0.25586 v 0.251953 c 0,0.826897 0.68287,1.507812 1.509765,1.507812 h 1.144532 l 0.132812,-0.292969 0.261719,-0.582031 1.488281,-2.980469 c 0.01645,-0.03289 0.247171,-0.175781 0.283203,-0.175781 h 13.03125 c 0.03603,0 0.266757,0.142889 0.283203,0.175781 l 1.488282,2.980469 0.416015,0.921875 0.382813,-0.07031 c 0.705874,-0.12684 1.242187,-0.748229 1.242187,-1.484375 v -5.291016 c 0,-0.146741 0.109118,-0.255859 0.25586,-0.255859 z m -16.97461,3.535156 -1.763672,3.519531 H 32.658203 L 32.296875,32.34375 30.894531,29.546875 Z m 0.617188,1 h 0.90625 c -0.375882,0.218325 -0.671875,0.550369 -0.671875,1.011719 0,0.196885 0.128352,0.341059 0.210937,0.507812 H 17.96875 Z m 2.072265,0 h 7.90625 c -0.376176,0.218249 -0.673828,0.550149 -0.673828,1.011719 0,0.196999 0.130215,0.340985 0.212891,0.507812 h -6.984375 c 0.08268,-0.166827 0.212891,-0.310813 0.21289,-0.507812 0,-0.46157 -0.29765,-0.79347 -0.673828,-1.011719 z m 9.072266,0 h 0.402344 l 0.761718,1.519531 h -0.703125 c 0.08259,-0.166753 0.210938,-0.310927 0.210938,-0.507812 0,-0.46135 -0.295993,-0.793394 -0.671875,-1.011719 z m -9.654297,0.755859 c 0.146744,0 0.255859,0.109119 0.255859,0.25586 0,0.146744 -0.109115,0.255859 -0.255859,0.255859 -0.146741,0 -0.255859,-0.109116 -0.255859,-0.255859 0,-0.14674 0.109119,-0.25586 0.255859,-0.25586 z m 9.070313,0 c 0.14674,0 0.255859,0.10912 0.255859,0.25586 0,0.146743 -0.109118,0.255859 -0.255859,0.255859 -0.146745,0 -0.25586,-0.109114 -0.25586,-0.255859 0,-0.146742 0.109116,-0.25586 0.25586,-0.25586 z"
     id="path7" />
</svg>
