<?xml version="1.0" encoding="UTF-8" standalone="no"?>
<!-- Generator: Gravit.io -->

<svg
   style="isolation:isolate"
   viewBox="0 0 48 48"
   width="48pt"
   height="48pt"
   version="1.1"
   id="svg9"
   sodipodi:docname="emacs.svg"
   inkscape:version="1.1.2 (0a00cf5339, 2022-02-04)"
   xmlns:inkscape="http://www.inkscape.org/namespaces/inkscape"
   xmlns:sodipodi="http://sodipodi.sourceforge.net/DTD/sodipodi-0.dtd"
   xmlns:xlink="http://www.w3.org/1999/xlink"
   xmlns="http://www.w3.org/2000/svg"
   xmlns:svg="http://www.w3.org/2000/svg">
  <defs
     id="defs13">
    <linearGradient
       inkscape:collect="always"
       xlink:href="#_lgradient_99"
       id="linearGradient872"
       x1="-12.025727"
       y1="6.1170783"
       x2="-0.085100174"
       y2="6.1170783"
       gradientUnits="userSpaceOnUse"
       gradientTransform="matrix(3.8358211,0,0,3.8371386,-0.07883598,-0.00229585)" />
    <linearGradient
       id="_lgradient_1"
       x1="0.18336116"
       y1="0.24917752"
       x2="0.9027437"
       y2="0.90347725"
       gradientTransform="matrix(24.617266,0,0,24.816118,10.841288,10.089605)"
       gradientUnits="userSpaceOnUse">
      <stop
         offset="2.608695652173913%"
         stop-opacity="1"
         style="stop-color:rgb(179,255,171)"
         id="stop2-3" />
      <stop
         offset="98.69565217391305%"
         stop-opacity="1"
         style="stop-color:rgb(18,255,247)"
         id="stop4-6" />
    </linearGradient>
    <linearGradient
       inkscape:collect="always"
       xlink:href="#_lgradient_99"
       id="linearGradient15"
       x1="-9.6850061"
       y1="45.161198"
       x2="11.98815"
       y2="21.735205"
       gradientUnits="userSpaceOnUse"
       gradientTransform="matrix(1.1147442,0,0,1.1150348,-0.06273715,-3.2746241)" />
    <linearGradient
       inkscape:collect="always"
       xlink:href="#_lgradient_99"
       id="linearGradient1258"
       x1="11.472453"
       y1="24"
       x2="34.778137"
       y2="24"
       gradientUnits="userSpaceOnUse" />
  </defs>
  <sodipodi:namedview
     id="namedview11"
     pagecolor="#ffffff"
     bordercolor="#666666"
     borderopacity="1.0"
     inkscape:pageshadow="2"
     inkscape:pageopacity="0.0"
     inkscape:pagecheckerboard="0"
     inkscape:document-units="pt"
     showgrid="false"
     inkscape:zoom="5.109375"
     inkscape:cx="32"
     inkscape:cy="32.097859"
     inkscape:window-width="1600"
     inkscape:window-height="836"
     inkscape:window-x="0"
     inkscape:window-y="0"
     inkscape:window-maximized="1"
     inkscape:current-layer="svg9" />
  <linearGradient
     id="_lgradient_99"
     x1="-0.000038208333333289435"
     y1="0.5000000833333331"
     x2="0.9999618333333335"
     y2="0.5000000833333331"
     gradientTransform="matrix(45.691507,0,0,44.976625,0.27978975,2.5454635)"
     gradientUnits="userSpaceOnUse">
    <stop
       offset="0%"
       stop-opacity="1"
       style="stop-color:rgb(211,0,220)"
       id="stop2" />
    <stop
       offset="100%"
       stop-opacity="1"
       style="stop-color:rgb(135,0,255)"
       id="stop4" />
  </linearGradient>
  <rect
     x="-46.856579"
     y="1.2257614"
     height="45.80014"
     rx="6.1837621"
     shape-rendering="crispEdges"
     id="rect5-6-7-3"
     ry="6.8055277"
     transform="matrix(0.00524063,-0.99998627,0.99998801,0.00489691,0,0)"
     style="isolation:isolate;fill:#be00ff;fill-opacity:0.13470298;stroke:url(#linearGradient872);stroke-width:2.0301;stroke-miterlimit:4;stroke-dasharray:none;stroke-opacity:1"
     width="45.801998" />
  <rect
     x="-15.737168"
     y="17.313255"
     height="33.345856"
     rx="6.7920032"
     shape-rendering="crispEdges"
     id="rect5-6-6-6-6"
     style="isolation:isolate;fill:#be00ff;fill-opacity:0.13470298;stroke:url(#linearGradient15);stroke-width:1.67233;stroke-miterlimit:4;stroke-dasharray:none;stroke-opacity:1"
     ry="7.4743071"
     transform="matrix(0.72446484,-0.68931175,0.68622417,0.72739012,0,0)"
     width="33.338203" />
  <path
     style="color:#000000;fill:url(#linearGradient1258);fill-rule:evenodd;-inkscape-stroke:none"
     d="m 29.226562,9.7949219 c -0.559207,-0.086573 -1.1402,-0.082906 -1.71289,0.021484 -2.025637,0.3691997 -6.675781,1.7265627 -6.675781,1.7265627 l 0.144531,0.980469 c 2.890754,-0.0252 4.577297,-0.01311 5.550781,0.07617 0.486742,0.04464 0.791394,0.112372 0.960938,0.177735 0.09862,0.03802 0.115273,0.07525 0.154296,0.109375 -0.150298,0.105901 -0.526747,0.278811 -1.222656,0.392578 -1.628985,0.265806 -5.099232,0.597336 -5.123047,0.599609 -0.0015,9e-5 -0.0024,-9e-5 -0.0039,0 -5e-5,5e-6 -0.01367,0.002 -0.01367,0.002 -1.660269,0.09829 -3.092035,0.147651 -4.25,0.375 -1.162763,0.228292 -2.128628,0.676453 -2.574218,1.619141 -0.312403,0.661445 -0.132382,1.337903 0.144531,1.820312 0.276912,0.48241 0.648473,0.86062 0.824219,1.087891 l 0.01172,0.01367 0.01172,0.01367 c 1.86025,2.068278 4.472647,3.141474 6.097656,3.912109 -4.049847,0.286996 -7.143272,1.641288 -9.08789,3.265625 l -0.0098,0.0078 -0.0078,0.0078 c -0.688566,0.637 -1.158401,1.33065 -1.361329,2.06836 -0.202927,0.737709 -0.12046,1.511911 0.238282,2.21875 0.717483,1.413676 2.430976,2.582947 5.115234,3.472656 3.095156,1.02505 4.783224,1.532294 9.439453,1.113281 l -0.01758,0.002 c 0.570039,-0.03076 0.686863,-0.01472 1.068359,-0.02539 -0.73991,0.21712 -1.541572,0.436497 -1.912109,0.542968 h -0.002 c -1.035224,0.298631 -2.958344,0.762725 -4.615235,1.148438 -0.828445,0.192856 -1.592532,0.366075 -2.15039,0.492187 -0.278929,0.06306 -0.507441,0.114916 -0.666016,0.150391 -0.07929,0.01774 -0.141032,0.03155 -0.183594,0.04102 -0.04256,0.0095 -0.11941,0.0239 -0.06055,0.01172 l 0.06641,0.990235 c 0,0 1.63961,0.11607 3.738281,-0.06836 0.845613,-0.07442 4.008334,-0.384535 6.423828,-0.914062 0,0 2.872913,-0.607643 4.496094,-1.205078 C 33.707921,35.436608 34.716381,34.903239 35.214844,34 l 0.07813,-0.140625 -0.01758,-0.160156 c 0.0087,0.07459 0.0033,-0.01667 0.002,-0.119141 -0.0014,-0.102465 -0.01143,-0.2441 -0.0625,-0.402344 -0.102146,-0.316487 -0.391549,-0.660693 -0.865235,-0.859375 -2.049659,-0.859831 -4.308361,-0.693473 -8.658203,-0.785156 h -0.0059 c -4.777265,-0.165077 -6.237466,-0.934913 -7.015625,-1.525391 -0.09995,-0.08157 -0.155734,-0.175337 -0.167969,-0.33789 -0.01238,-0.164434 0.03412,-0.406815 0.214844,-0.710938 0.36144,-0.608244 1.263238,-1.431926 2.96875,-2.21289 l 0.0059,-0.002 0.0039,-0.0039 c 0.766656,-0.370803 2.989427,-1.007609 4.945313,-1.509765 1.955886,-0.502157 3.691406,-0.898438 3.691406,-0.898438 l 1.371094,-0.3125 -1.259766,-0.623047 c -2.358966,-1.165606 -6.750208,-3.21195 -7.623047,-3.638672 -0.400303,-0.196047 -0.896431,-0.432711 -1.308593,-0.691406 -0.412162,-0.258695 -0.7102,-0.558164 -0.769532,-0.710937 l -0.0059,-0.01563 -0.0059,-0.01367 c -0.0219,-0.0477 -0.01969,-0.03467 0,-0.08203 0.01969,-0.04736 0.0856,-0.138808 0.193359,-0.230469 0.215515,-0.183323 0.585881,-0.359206 0.804688,-0.421875 h 0.002 c 1.808879,-0.52128 4.43318,-0.857098 6.802734,-0.894531 0.616195,-0.0097 0.981457,-0.03418 1.205078,-0.05859 0.111811,-0.01221 0.188802,-0.02542 0.246094,-0.03711 0.0132,-0.0027 0.01712,-0.0041 0.03125,-0.0078 0.0057,-9.48e-4 0.0099,-0.0049 0.01563,-0.0059 0.920751,-0.155849 1.731344,-0.553691 2.251953,-1.220703 0.522777,-0.66979 0.705875,-1.595765 0.449219,-2.615235 -0.366499,-1.624542 -1.831296,-2.697787 -3.50586,-2.9570311 z m -1.535156,1.0058591 c 1.834796,-0.334446 3.728201,0.649385 4.06836,2.175782 l 0.002,0.0078 0.002,0.0059 c 0.199846,0.788603 0.06244,1.338892 -0.267578,1.761719 -0.33002,0.422827 -0.900827,0.730271 -1.644532,0.853516 l -0.05273,0.0098 -0.02344,0.0098 c -0.01949,0.0038 -0.06236,0.01034 -0.146485,0.01953 -0.177369,0.01937 -0.515747,0.04338 -1.111328,0.05274 -2.450895,0.03872 -5.12092,0.373509 -7.064453,0.933593 -0.362807,0.103914 -0.803782,0.303 -1.177734,0.621094 -0.186977,0.159047 -0.361926,0.350444 -0.46875,0.607422 -0.104939,0.252441 -0.110265,0.582435 0.01563,0.869141 0.216761,0.541148 0.676517,0.884441 1.15625,1.185546 0.484532,0.304119 1.013517,0.549808 1.402343,0.740235 v 0.002 c 0.772908,0.377866 3.975456,1.886458 6.357422,3.035156 -0.68262,0.160385 -1.103152,0.250797 -2.347656,0.570313 -1.967588,0.505161 -4.10808,1.086032 -5.121094,1.574218 -0.0016,7.15e-4 -0.0023,0.0012 -0.0039,0.002 -1.8194,0.833816 -2.88696,1.734161 -3.408203,2.611328 -0.260845,0.438959 -0.384838,0.878783 -0.353516,1.294922 0.03132,0.416139 0.233422,0.797805 0.542969,1.046875 l 0.0039,0.0039 0.0059,0.0059 c 0.939792,0.714742 2.704471,1.564054 7.601562,1.732422 h 0.002 0.0039 c 4.383834,0.09264 6.540069,-0.02995 8.296875,0.707031 0.270705,0.113544 0.283987,0.186053 0.302735,0.244141 0.0062,0.01921 0.0075,0.04652 0.0098,0.07227 -0.307079,0.512516 -1.013491,0.980156 -2.55664,1.548828 -1.464802,0.539141 -4.359375,1.166015 -4.359375,1.166015 h -0.002 -0.002 c -1.471666,0.32276 -2.666056,0.414601 -4.003907,0.56836 0.66168,-0.165472 1.489328,-0.352011 1.941407,-0.482422 0.399969,-0.114929 1.383821,-0.374019 2.261718,-0.642578 0.438949,-0.13428 0.850996,-0.269535 1.173828,-0.402344 0.161417,-0.0664 0.299947,-0.129679 0.427735,-0.210938 0.06389,-0.04063 0.126356,-0.08244 0.197265,-0.162109 0.07091,-0.07967 0.177549,-0.233001 0.150391,-0.457031 v -0.002 c -0.02582,-0.208351 -0.23736,-0.456814 -0.423828,-0.53711 -0.186468,-0.08029 -0.364576,-0.101648 -0.615234,-0.11914 -0.501318,-0.03498 -1.29112,-0.01897 -2.65625,0.05469 l -0.0098,0.002 h -0.0098 c -4.567733,0.411049 -5.944832,-0.04296 -9.035156,-1.066406 -2.551223,-0.845614 -4.021448,-1.954739 -4.539062,-2.974609 -0.258808,-0.509935 -0.306191,-0.992369 -0.166016,-1.501953 0.139269,-0.50629 0.48638,-1.048574 1.068359,-1.589844 2.155934,-1.796776 5.874651,-3.397811 11.091797,-3.111328 l 0.173828,-0.976563 c 0,0 -0.449097,-0.137023 -0.974609,-0.310547 -0.525512,-0.173523 -1.143634,-0.393556 -1.392578,-0.511718 -1.667252,-0.792644 -4.140353,-1.837701 -5.810547,-3.691407 -0.240546,-0.30745 -0.545008,-0.626126 -0.730469,-0.949218 -0.189997,-0.330994 -0.257645,-0.576465 -0.107422,-0.894532 0.262627,-0.55561 0.830951,-0.863723 1.863282,-1.066406 1.03233,-0.202683 2.453135,-0.259528 4.134765,-0.359375 h 0.0078 0.0098 c 0,0 3.481375,-0.327795 5.207032,-0.609375 0.816,-0.133399 1.355227,-0.317852 1.730468,-0.611328 0.187621,-0.146738 0.344012,-0.338447 0.400391,-0.583984 0.05638,-0.245538 -0.01775,-0.509513 -0.146484,-0.689453 -0.155775,-0.21788 -0.404191,-0.417793 -0.71875,-0.539063 -0.31456,-0.12127 -0.695529,-0.189399 -1.228516,-0.238281 -0.365022,-0.03348 -1.400794,-0.01241 -1.935547,-0.02734 1.319301,-0.354709 2.152575,-0.622533 3.001953,-0.777344 z"
     id="path7" />
</svg>
