<?xml version="1.0" encoding="UTF-8" standalone="no"?>
<!-- Generator: Gravit.io -->

<svg
   style="isolation:isolate"
   viewBox="0 0 48 48"
   width="48pt"
   height="48pt"
   version="1.1"
   id="svg13"
   sodipodi:docname="etcher.svg"
   inkscape:version="1.1.2 (0a00cf5339, 2022-02-04)"
   xmlns:inkscape="http://www.inkscape.org/namespaces/inkscape"
   xmlns:sodipodi="http://sodipodi.sourceforge.net/DTD/sodipodi-0.dtd"
   xmlns:xlink="http://www.w3.org/1999/xlink"
   xmlns="http://www.w3.org/2000/svg"
   xmlns:svg="http://www.w3.org/2000/svg">
  <defs
     id="defs17">
    <linearGradient
       inkscape:collect="always"
       xlink:href="#_lgradient_6"
       id="linearGradient872"
       x1="-12.025727"
       y1="6.1170783"
       x2="-0.085100174"
       y2="6.1170783"
       gradientUnits="userSpaceOnUse"
       gradientTransform="matrix(3.8358211,0,0,3.8371386,-0.00544341,-0.00268054)" />
    <linearGradient
       id="_lgradient_1"
       x1="0.18336116"
       y1="0.24917752"
       x2="0.9027437"
       y2="0.90347725"
       gradientTransform="matrix(24.617266,0,0,24.816118,10.841288,10.089605)"
       gradientUnits="userSpaceOnUse">
      <stop
         offset="2.608695652173913%"
         stop-opacity="1"
         style="stop-color:rgb(179,255,171)"
         id="stop2-3" />
      <stop
         offset="98.69565217391305%"
         stop-opacity="1"
         style="stop-color:rgb(18,255,247)"
         id="stop4-6" />
    </linearGradient>
    <linearGradient
       inkscape:collect="always"
       xlink:href="#_lgradient_6"
       id="linearGradient15"
       x1="-9.6850061"
       y1="45.161198"
       x2="11.98815"
       y2="21.735205"
       gradientUnits="userSpaceOnUse"
       gradientTransform="matrix(1.1147442,0,0,1.1150348,-0.01237238,-3.3277956)" />
    <linearGradient
       inkscape:collect="always"
       xlink:href="#_lgradient_6"
       id="linearGradient918"
       x1="10.383417"
       y1="24.587202"
       x2="37.616711"
       y2="24.587202"
       gradientUnits="userSpaceOnUse" />
  </defs>
  <sodipodi:namedview
     id="namedview15"
     pagecolor="#ffffff"
     bordercolor="#666666"
     borderopacity="1.0"
     inkscape:pageshadow="2"
     inkscape:pageopacity="0.0"
     inkscape:pagecheckerboard="0"
     inkscape:document-units="pt"
     showgrid="false"
     inkscape:zoom="5.109375"
     inkscape:cx="32"
     inkscape:cy="32"
     inkscape:window-width="1056"
     inkscape:window-height="545"
     inkscape:window-x="236"
     inkscape:window-y="122"
     inkscape:window-maximized="0"
     inkscape:current-layer="svg13" />
  <linearGradient
     id="_lgradient_6"
     x1="0"
     y1="0.5"
     x2="0.9999563164458355"
     y2="0.5093469353306884"
     gradientTransform="matrix(27.233301,0,0,28.619421,10.383041,10.27779)"
     gradientUnits="userSpaceOnUse">
    <stop
       offset="34.94098066785295%"
       stop-opacity="1"
       style="stop-color:rgb(178,229,107)"
       id="stop2" />
    <stop
       offset="53.84922244785295%"
       stop-opacity="1"
       style="stop-color:rgb(194,233,100)"
       id="stop4" />
    <stop
       offset="90.40515655585295%"
       stop-opacity="1"
       style="stop-color:rgb(236,244,81)"
       id="stop6" />
    <stop
       offset="100%"
       stop-opacity="1"
       style="stop-color:rgb(250,247,75)"
       id="stop8" />
  </linearGradient>
  <rect
     x="-46.783188"
     y="1.2253767"
     height="45.80014"
     rx="6.1837621"
     shape-rendering="crispEdges"
     id="rect5-6-7-3"
     ry="6.8055277"
     transform="matrix(0.00524063,-0.99998627,0.99998801,0.00489691,0,0)"
     style="isolation:isolate;fill:#e2ff00;fill-opacity:0.13470298;stroke:url(#linearGradient872);stroke-width:2.0301;stroke-miterlimit:4;stroke-dasharray:none;stroke-opacity:1"
     width="45.801998" />
  <rect
     x="-15.686804"
     y="17.260084"
     height="33.345856"
     rx="6.7920032"
     shape-rendering="crispEdges"
     id="rect5-6-6-6-6"
     style="isolation:isolate;fill:#e2ff00;fill-opacity:0.13470298;stroke:url(#linearGradient15);stroke-width:1.67233;stroke-miterlimit:4;stroke-dasharray:none;stroke-opacity:1"
     ry="7.4743071"
     transform="matrix(0.72446484,-0.68931175,0.68622417,0.72739012,0,0)"
     width="33.338203" />
  <path
     style="color:#000000;fill:url(#linearGradient918);fill-rule:evenodd;-inkscape-stroke:none"
     d="m 24.03125,9.7578125 c -0.908978,-8.096e-4 -1.816759,0.1989969 -2.556641,0.6015625 l -10.357421,5.634766 c -0.741944,0.403481 -1.2238743,1.018186 -1.2343755,1.71289 -0.010501,0.694705 0.4507605,1.325917 1.1796875,1.751953 l 1.212891,0.708985 C 11.7279,19.871816 11.131019,19.767232 10.654297,20.039062 10.152325,20.32529 9.9023438,20.913459 9.9023438,21.576172 v 8.482422 c 0,1.325944 0.8092152,2.743686 1.9511722,3.417968 l 9.49414,5.609375 c 0.570897,0.337494 1.205045,0.421328 1.707031,0.134766 0.501987,-0.286562 0.751954,-0.87609 0.751954,-1.539062 v -8.46875 c 0,-1.325425 -0.808425,-2.7423 -1.949219,-3.417969 L 17.880859,23.441406 21.5,25.554687 c 1.461881,0.853683 3.60218,0.850852 5.0625,-0.0059 l -0.414063,0.246094 c -1.140792,0.675669 -1.949218,2.092544 -1.949218,3.417969 v 8.46875 c 0,0.662972 0.249967,1.2525 0.751953,1.539062 0.501986,0.286562 1.136135,0.202728 1.707031,-0.134766 l 9.494141,-5.609375 c 1.141955,-0.674282 1.951172,-2.092024 1.951172,-3.417968 v -8.482422 c 0,-0.662713 -0.249981,-1.250882 -0.751954,-1.53711 -0.473823,-0.270177 -1.066583,-0.164578 -1.611328,0.126954 l 1.199219,-0.703125 c 0.72846,-0.427358 1.18833,-1.060631 1.177734,-1.75586 -0.0106,-0.695229 -0.489416,-1.311647 -1.230468,-1.716797 L 26.587891,10.363281 c -5.35e-4,-2.92e-4 -0.0014,2.92e-4 -0.002,0 -5.34e-4,-2.92e-4 -0.0014,2.92e-4 -0.002,0 l -0.65625,-0.359375 -0.01953,0.199219 C 25.308109,9.9852962 24.698639,9.7584069 24.03125,9.7578125 Z m 0,1.0410155 c 0.769546,6.86e-4 1.538694,0.148702 2.078125,0.44336 l 0.660156,0.359375 9.636719,5.265624 c 0.537476,0.293851 0.707178,0.608797 0.710937,0.855469 0.0038,0.246672 -0.155303,0.567027 -0.683593,0.876953 L 26.056641,24.6875 c -1.053176,0.617856 -2.99848,0.619551 -4.052735,0.0039 L 11.568359,18.595703 c -0.529141,-0.309267 -0.689236,-0.628986 -0.685546,-0.873047 0.0037,-0.244061 0.172375,-0.556731 0.710937,-0.849609 l 10.357422,-5.634766 c 0.539968,-0.293793 1.310532,-0.440138 2.080078,-0.439453 z M 23.207031,12.416016 14.75,17.019531 c -0.261751,0.142479 -0.498852,0.409457 -0.503906,0.751953 -0.0051,0.342497 0.221705,0.617053 0.478515,0.767578 h 0.002 l 8.476562,4.951172 c 0.517887,0.301863 1.126441,0.302805 1.644531,-0.002 l 8.439453,-4.949219 c 0.257261,-0.150788 0.483552,-0.425381 0.478516,-0.767578 -0.005,-0.342197 -0.239736,-0.60922 -0.501953,-0.751953 l -8.173828,-4.466797 -0.04883,-0.02734 -0.195313,-0.107422 c -6.19e-4,-3.39e-4 -0.0013,3.38e-4 -0.002,0 -0.519292,-0.283513 -1.118078,-0.283778 -1.636719,-0.002 z m 0.478516,0.878906 c 0.119676,-0.06503 0.560479,-0.06526 0.679687,0 l 8.222657,4.49414 -8.246094,4.837891 c -0.110285,0.06487 -0.522959,0.06517 -0.634766,0 l -8.28125,-4.837891 z M 11.148438,20.90625 c 0.115015,-0.06558 0.333087,-0.09 0.703125,0.128906 l 9.496093,5.619141 c 0.740369,0.438505 1.458985,1.699231 1.458985,2.558594 v 8.46875 c 0,0.430082 -0.132881,0.606131 -0.248047,0.671875 -0.115167,0.06574 -0.332781,0.09003 -0.703125,-0.128907 l -9.494141,-5.609375 c -0.740525,-0.437252 -1.458984,-1.696476 -1.458984,-2.55664 v -8.482422 c 0,-0.429682 0.131078,-0.604339 0.246094,-0.669922 z m 25.707031,0 c 0.115016,0.06558 0.248047,0.240241 0.248047,0.669922 v 8.482422 c 0,0.860163 -0.71846,2.119388 -1.458985,2.55664 l -9.49414,5.609375 c -0.370344,0.218935 -0.587959,0.19465 -0.703125,0.128907 -0.115167,-0.06574 -0.248047,-0.241793 -0.248047,-0.671875 v -8.46875 c 0,-0.859363 0.718617,-2.120089 1.458984,-2.558594 l 9.496094,-5.619141 c 0.370037,-0.218906 0.586156,-0.194489 0.701172,-0.128906 z m -23.894531,3.181641 c -0.296326,0.168955 -0.417969,0.504013 -0.417969,0.802734 v 4.982422 c 0,0.597443 0.298694,1.123776 0.8125,1.427734 l 6.488281,3.830078 c 0.257284,0.152204 0.608238,0.216154 0.904297,0.04687 0.296058,-0.169278 0.417969,-0.504013 0.417969,-0.802734 v -4.976563 c 0,-0.597442 -0.300646,-1.121823 -0.814454,-1.425781 l -6.486328,-3.83789 c -0.25706,-0.152072 -0.607971,-0.215831 -0.904296,-0.04687 z m 22.083984,0 c -0.296324,-0.168956 -0.647235,-0.105198 -0.904297,0.04687 l -6.488281,3.83789 c -0.513808,0.303958 -0.8125,0.828339 -0.8125,1.425781 V 34.375 c 0,0.298721 0.121911,0.633456 0.417968,0.802734 0.296058,0.169279 0.647012,0.10533 0.904297,-0.04687 l 6.486328,-3.830078 c 0.513806,-0.303958 0.814454,-0.83029 0.814454,-1.427734 v -4.982422 c 0,-0.298721 -0.121645,-0.633779 -0.417969,-0.802734 z m -0.582031,1.017578 v 4.767578 c 0,0.131259 -0.209018,0.499411 -0.322266,0.566406 l -6.300781,3.71875 v -4.759766 c 0,-0.13126 0.209019,-0.499412 0.322265,-0.566406 z m -20.919922,0.002 6.300781,3.724609 c 0.113246,0.06699 0.322266,0.435146 0.322266,0.566406 v 4.761719 l -6.300782,-3.720703 c -0.113247,-0.06699 -0.322265,-0.435146 -0.322265,-0.566406 z"
     id="path11" />
</svg>
