<?xml version="1.0" encoding="UTF-8" standalone="no"?>
<!-- Generator: Gravit.io -->

<svg
   style="isolation:isolate"
   viewBox="0 0 48 48"
   width="48pt"
   height="48pt"
   version="1.1"
   id="svg9"
   sodipodi:docname="etherape.svg"
   inkscape:version="1.1.2 (0a00cf5339, 2022-02-04)"
   xmlns:inkscape="http://www.inkscape.org/namespaces/inkscape"
   xmlns:sodipodi="http://sodipodi.sourceforge.net/DTD/sodipodi-0.dtd"
   xmlns:xlink="http://www.w3.org/1999/xlink"
   xmlns="http://www.w3.org/2000/svg"
   xmlns:svg="http://www.w3.org/2000/svg">
  <defs
     id="defs13">
    <linearGradient
       inkscape:collect="always"
       xlink:href="#_lgradient_3"
       id="linearGradient872"
       x1="-12.025727"
       y1="6.1170783"
       x2="-0.085100174"
       y2="6.1170783"
       gradientUnits="userSpaceOnUse"
       gradientTransform="matrix(3.8358211,0,0,3.8371386,-0.00544341,-0.00268054)" />
    <linearGradient
       id="_lgradient_1"
       x1="0.18336116"
       y1="0.24917752"
       x2="0.9027437"
       y2="0.90347725"
       gradientTransform="matrix(24.617266,0,0,24.816118,10.841288,10.089605)"
       gradientUnits="userSpaceOnUse">
      <stop
         offset="2.608695652173913%"
         stop-opacity="1"
         style="stop-color:rgb(179,255,171)"
         id="stop2-3" />
      <stop
         offset="98.69565217391305%"
         stop-opacity="1"
         style="stop-color:rgb(18,255,247)"
         id="stop4-6" />
    </linearGradient>
    <linearGradient
       inkscape:collect="always"
       xlink:href="#_lgradient_3"
       id="linearGradient15"
       x1="-9.6850061"
       y1="45.161198"
       x2="11.98815"
       y2="21.735205"
       gradientUnits="userSpaceOnUse"
       gradientTransform="matrix(1.1147442,0,0,1.1150348,-0.01237238,-3.3277956)" />
    <linearGradient
       inkscape:collect="always"
       xlink:href="#_lgradient_3"
       id="linearGradient878"
       x1="9.671011"
       y1="24"
       x2="38.128143"
       y2="24"
       gradientUnits="userSpaceOnUse" />
  </defs>
  <sodipodi:namedview
     id="namedview11"
     pagecolor="#ffffff"
     bordercolor="#666666"
     borderopacity="1.0"
     inkscape:pageshadow="2"
     inkscape:pageopacity="0.0"
     inkscape:pagecheckerboard="0"
     inkscape:document-units="pt"
     showgrid="false"
     inkscape:zoom="5.109375"
     inkscape:cx="32"
     inkscape:cy="32"
     inkscape:window-width="1056"
     inkscape:window-height="545"
     inkscape:window-x="257"
     inkscape:window-y="68"
     inkscape:window-maximized="0"
     inkscape:current-layer="svg9" />
  <linearGradient
     id="_lgradient_3"
     x1="0"
     y1="0.5"
     x2="1"
     y2="0.5"
     gradientTransform="matrix(28.456949,0,0,29.725872,9.6710549,9.1370637)"
     gradientUnits="userSpaceOnUse">
    <stop
       offset="0%"
       stop-opacity="1"
       style="stop-color:rgb(178,254,250)"
       id="stop2" />
    <stop
       offset="98.26086956521739%"
       stop-opacity="1"
       style="stop-color:rgb(14,210,247)"
       id="stop4" />
  </linearGradient>
  <rect
     x="-46.783188"
     y="1.2253767"
     height="45.80014"
     rx="6.1837621"
     shape-rendering="crispEdges"
     id="rect5-6-7-3"
     ry="6.8055277"
     transform="matrix(0.00524063,-0.99998627,0.99998801,0.00489691,0,0)"
     style="isolation:isolate;fill:#00fffd;fill-opacity:0.13470298;stroke:url(#linearGradient872);stroke-width:2.0301;stroke-miterlimit:4;stroke-dasharray:none;stroke-opacity:1"
     width="45.801998" />
  <rect
     x="-15.686804"
     y="17.260084"
     height="33.345856"
     rx="6.7920032"
     shape-rendering="crispEdges"
     id="rect5-6-6-6-6"
     style="isolation:isolate;fill:#00fffd;fill-opacity:0.13470298;stroke:url(#linearGradient15);stroke-width:1.67233;stroke-miterlimit:4;stroke-dasharray:none;stroke-opacity:1"
     ry="7.4743071"
     transform="matrix(0.72446484,-0.68931175,0.68622417,0.72739012,0,0)"
     width="33.338203" />
  <path
     style="color:#000000;fill:url(#linearGradient878);fill-rule:evenodd;-inkscape-stroke:none"
     d="m 23.960937,8.6367188 c -3.200441,-1e-7 -6.324135,0.998391 -8.929687,2.8613282 -2.598206,1.855862 -4.56217,4.479879 -5.5996094,7.507812 -0.3104571,0.901969 0.1764472,1.898627 1.0781254,2.208985 0.901968,0.310457 1.896674,-0.176447 2.207031,-1.078125 h 0.002 c 0.801971,-2.340567 2.322927,-4.37409 4.337891,-5.8125 1.767187,-1.261533 3.85823,-1.90721 6.013671,-2.072266 l -3.998046,10.009766 h -7.496094 c -0.457296,0 -0.900056,0.181961 -1.224609,0.511718 C 10.019741,23.098273 9.8378906,23.541205 9.8378906,24 c 0,0.458795 0.1818504,0.901727 0.5136724,1.226562 0.324553,0.329758 0.767313,0.511719 1.224609,0.511719 h 9.84375 l 0.746094,-1.857422 2.382812,11.914063 c -0.199806,0.01007 -0.387041,0.0918 -0.587891,0.0918 -2.555188,0 -5.045178,-0.828062 -7.095703,-2.34961 -2.049281,-1.526945 -3.55187,-3.671722 -4.289062,-6.11914 l -0.002,-0.002 c -0.274085,-0.911421 -1.250973,-1.433223 -2.164063,-1.160157 -0.9148976,0.273607 -1.4411591,1.249423 -1.1640622,2.16211 0.9476512,3.16177 2.8931652,5.938805 5.5429692,7.910156 2.650435,1.971823 5.869112,3.035156 9.171874,3.035156 3.213742,0 6.351308,-1.011243 8.962891,-2.886719 2.611305,-1.875274 4.569071,-4.519596 5.599609,-7.566406 h 0.002 c 0.304634,-0.905273 -0.186955,-1.901668 -1.091797,-2.207031 -0.904582,-0.305274 -1.898376,0.188137 -2.203125,1.09375 -0.796376,2.353469 -2.313574,4.403573 -4.333985,5.853516 v 0.002 c -1.772834,1.277483 -3.876139,1.927772 -6.042968,2.09375 l 3.998046,-10.007813 h 7.496094 c 0.458174,0 0.89989,-0.182707 1.22461,-0.513672 0.330967,-0.32472 0.513671,-0.766436 0.513671,-1.224609 0,-0.458173 -0.182704,-0.899889 -0.513671,-1.224609 -0.32472,-0.330965 -0.766436,-0.513672 -1.22461,-0.513672 h -9.84375 L 25.757812,24.119141 23.375,12.205078 c 0.199286,-0.01004 0.385614,-0.0918 0.585937,-0.0918 2.49625,0 4.92637,0.78593 6.953125,2.248047 h 0.002 c 2.02011,1.455668 3.535718,3.517398 4.326171,5.882813 0.301477,0.903567 1.292001,1.397972 2.197266,1.097656 0.905967,-0.30055 1.400926,-1.294392 1.097656,-2.199219 -1.017953,-3.060263 -2.976957,-5.717662 -5.58789,-7.605469 C 30.331709,9.6555736 27.18731,8.6367187 23.960937,8.6367188 Z m 0,1 c 3.015468,0 5.954362,0.9517152 8.402344,2.7109372 2.44246,1.765994 4.273227,4.249242 5.22461,7.109375 v 0.002 h 0.002 c 0.132554,0.393909 -0.07221,0.803339 -0.464844,0.933594 -0.394002,0.130708 -0.806,-0.07658 -0.935547,-0.464844 -0.856855,-2.56412 -2.498404,-4.800061 -4.689453,-6.378906 -2.196792,-1.584782 -4.833289,-2.435547 -7.539063,-2.435547 -2.686349,0 -5.302209,0.839273 -7.486328,2.398438 -2.183812,1.558945 -3.833017,3.761357 -4.703125,6.300781 -0.134292,0.390158 -0.547633,0.591223 -0.9375,0.457031 -0.390156,-0.134292 -0.591223,-0.547633 -0.457031,-0.9375 0.969204,-2.829836 2.806387,-5.283858 5.236328,-7.019531 2.435457,-1.741321 5.355215,-2.6757813 8.347656,-2.6757812 z m -1.001953,5.5898442 2.476563,12.380859 1.74414,-4.345703 h 9.167969 c 0.196149,0 0.382463,0.07808 0.515625,0.214843 l 0.0039,0.0039 0.0039,0.0039 c 0.136761,0.133162 0.214843,0.319478 0.214843,0.515625 0,0.196147 -0.07808,0.382463 -0.214843,0.515625 l -0.0039,0.0039 -0.0039,0.0039 c -0.133162,0.136761 -0.319476,0.214844 -0.515625,0.214844 h -8.171875 l -3.210937,8.035156 -2.476563,-12.380859 -1.74414,4.345703 h -9.167969 c -0.196147,0 -0.382463,-0.07808 -0.515625,-0.214844 l -0.0039,-0.0039 -0.0059,-0.0039 C 10.914021,24.382463 10.837891,24.196147 10.837891,24 c 0,-0.196147 0.07613,-0.382463 0.21289,-0.515625 l 0.0059,-0.0039 0.0039,-0.0039 c 0.133162,-0.13676 0.319478,-0.214843 0.515625,-0.214843 h 8.171875 z M 10.697266,27.212891 c 0.398854,-0.119281 0.802682,0.09795 0.919922,0.490234 v 0.002 c 0.798779,2.654012 2.429824,4.979149 4.652343,6.634766 v 0.002 c 2.222568,1.649209 4.920714,2.544922 7.691406,2.544922 2.699035,0 5.328612,-0.845078 7.519532,-2.423828 2.190751,-1.572187 3.833949,-3.79441 4.697265,-6.345704 0.132469,-0.393653 0.544576,-0.59874 0.935547,-0.466796 0.390708,0.131854 0.595474,0.545459 0.462891,0.939453 -0.96357,2.848815 -2.794238,5.320463 -5.236328,7.074218 -2.44181,1.753556 -5.374992,2.699219 -8.378907,2.699219 -3.088292,0 -6.096947,-0.994895 -8.574218,-2.83789 -2.477429,-1.843111 -4.297962,-4.440392 -5.183594,-7.396485 v -0.002 c -0.119248,-0.392772 0.09615,-0.79504 0.494141,-0.914062 z"
     id="path7" />
</svg>
