<?xml version="1.0" encoding="UTF-8" standalone="no"?>
<!-- Generator: Gravit.io -->

<svg
   style="isolation:isolate"
   viewBox="0 0 48 48"
   width="48pt"
   height="48pt"
   version="1.1"
   id="svg36"
   sodipodi:docname="evolution.svg"
   inkscape:version="1.1.2 (0a00cf5339, 2022-02-04)"
   xmlns:inkscape="http://www.inkscape.org/namespaces/inkscape"
   xmlns:sodipodi="http://sodipodi.sourceforge.net/DTD/sodipodi-0.dtd"
   xmlns:xlink="http://www.w3.org/1999/xlink"
   xmlns="http://www.w3.org/2000/svg"
   xmlns:svg="http://www.w3.org/2000/svg">
  <defs
     id="defs40">
    <linearGradient
       inkscape:collect="always"
       xlink:href="#_lgradient_6"
       id="linearGradient872"
       x1="-12.025727"
       y1="6.1170783"
       x2="-0.085100174"
       y2="6.1170783"
       gradientUnits="userSpaceOnUse"
       gradientTransform="matrix(3.8358211,0,0,3.8371386,-0.00544341,-0.00268054)" />
    <linearGradient
       id="_lgradient_1"
       x1="0.18336116"
       y1="0.24917752"
       x2="0.9027437"
       y2="0.90347725"
       gradientTransform="matrix(24.617266,0,0,24.816118,10.841288,10.089605)"
       gradientUnits="userSpaceOnUse">
      <stop
         offset="2.608695652173913%"
         stop-opacity="1"
         style="stop-color:rgb(179,255,171)"
         id="stop2-3" />
      <stop
         offset="98.69565217391305%"
         stop-opacity="1"
         style="stop-color:rgb(18,255,247)"
         id="stop4-6" />
    </linearGradient>
    <linearGradient
       inkscape:collect="always"
       xlink:href="#_lgradient_6"
       id="linearGradient15"
       x1="-9.6850061"
       y1="45.161198"
       x2="11.98815"
       y2="21.735205"
       gradientUnits="userSpaceOnUse"
       gradientTransform="matrix(1.1147442,0,0,1.1150348,-0.01237238,-3.3277956)" />
    <linearGradient
       inkscape:collect="always"
       xlink:href="#_lgradient_7"
       id="linearGradient906"
       x1="19.339788"
       y1="16.22489"
       x2="37.231621"
       y2="16.22489"
       gradientUnits="userSpaceOnUse" />
    <linearGradient
       inkscape:collect="always"
       xlink:href="#_lgradient_6"
       id="linearGradient959"
       x1="24.227118"
       y1="15.185151"
       x2="32.894775"
       y2="39.230774"
       gradientUnits="userSpaceOnUse" />
    <linearGradient
       id="linearGradient1342"
       x1="0.50811517"
       y1="0.12319908"
       x2="0.81782073"
       y2="1.0420636"
       gradientTransform="matrix(57.3,0,0,53.578,-2.6488946,0.74649653)"
       gradientUnits="userSpaceOnUse">
      <stop
         offset="0%"
         stop-opacity="1"
         style="stop-color:rgb(84,51,255)"
         id="stop20-0" />
      <stop
         offset="51.73913043478261%"
         stop-opacity="1"
         style="stop-color:rgb(32,189,255)"
         id="stop22-9" />
      <stop
         offset="98.26086956521739%"
         stop-opacity="1"
         style="stop-color:rgb(165,254,203)"
         id="stop24-3" />
    </linearGradient>
    <linearGradient
       inkscape:collect="always"
       xlink:href="#_lgradient_6"
       id="linearGradient1490"
       x1="32.040703"
       y1="29.4991"
       x2="32.99342"
       y2="36.582348"
       gradientUnits="userSpaceOnUse" />
  </defs>
  <sodipodi:namedview
     id="namedview38"
     pagecolor="#ffffff"
     bordercolor="#666666"
     borderopacity="1.0"
     inkscape:pageshadow="2"
     inkscape:pageopacity="0.0"
     inkscape:pagecheckerboard="0"
     inkscape:document-units="pt"
     showgrid="false"
     inkscape:zoom="11.188254"
     inkscape:cx="36.153988"
     inkscape:cy="34.14295"
     inkscape:window-width="1600"
     inkscape:window-height="836"
     inkscape:window-x="0"
     inkscape:window-y="0"
     inkscape:window-maximized="1"
     inkscape:current-layer="svg36" />
  <linearGradient
     id="_lgradient_4"
     x1="0.48877919"
     y1="0.15046604"
     x2="0.54130852"
     y2="0.87461132"
     gradientTransform="matrix(18.136856,0,0,9.7815289,23.175785,28.027312)"
     gradientUnits="userSpaceOnUse">
    <stop
       offset="0%"
       stop-opacity="1"
       style="stop-color:rgb(84,51,255)"
       id="stop2" />
    <stop
       offset="51.73913043478261%"
       stop-opacity="1"
       style="stop-color:rgb(32,189,255)"
       id="stop4" />
    <stop
       offset="98.26086956521739%"
       stop-opacity="1"
       style="stop-color:rgb(165,254,203)"
       id="stop6" />
  </linearGradient>
  <rect
     x="-46.783188"
     y="1.2253767"
     height="45.80014"
     rx="6.1837621"
     shape-rendering="crispEdges"
     id="rect5-6-7-3"
     ry="6.8055277"
     transform="matrix(0.00524063,-0.99998627,0.99998801,0.00489691,0,0)"
     style="isolation:isolate;fill:#00ffc3;fill-opacity:0.134703;stroke:url(#linearGradient872);stroke-width:2.0301;stroke-miterlimit:4;stroke-dasharray:none;stroke-opacity:1"
     width="45.801998" />
  <rect
     x="-15.686804"
     y="17.260084"
     height="33.345856"
     rx="6.7920032"
     shape-rendering="crispEdges"
     id="rect5-6-6-6-6"
     style="isolation:isolate;fill:#00ffc3;fill-opacity:0.134703;stroke:url(#linearGradient15);stroke-width:1.67233;stroke-miterlimit:4;stroke-dasharray:none;stroke-opacity:1"
     ry="7.4743071"
     transform="matrix(0.72446484,-0.68931175,0.68622417,0.72739012,0,0)"
     width="33.338203" />
  <linearGradient
     id="_lgradient_5"
     x1="0.55739069"
     y1="0.1556168"
     x2="0.83517718"
     y2="1.218683"
     gradientTransform="matrix(20.382472,0,0,20.186126,11.252102,13.405934)"
     gradientUnits="userSpaceOnUse">
    <stop
       offset="0%"
       stop-opacity="1"
       style="stop-color:rgb(84,51,255)"
       id="stop11" />
    <stop
       offset="51.73913043478261%"
       stop-opacity="1"
       style="stop-color:rgb(32,189,255)"
       id="stop13" />
    <stop
       offset="98.26086956521739%"
       stop-opacity="1"
       style="stop-color:rgb(165,254,203)"
       id="stop15" />
  </linearGradient>
  <linearGradient
     id="_lgradient_6"
     x1="0.50811517"
     y1="0.12319908"
     x2="0.81782073"
     y2="1.0420636"
     gradientTransform="matrix(57.3,0,0,53.578,-2.6488946,0.74649653)"
     gradientUnits="userSpaceOnUse">
    <stop
       offset="0%"
       stop-opacity="1"
       style="stop-color:rgb(84,51,255)"
       id="stop20" />
    <stop
       offset="51.73913043478261%"
       stop-opacity="1"
       style="stop-color:rgb(32,189,255)"
       id="stop22" />
    <stop
       offset="98.26086956521739%"
       stop-opacity="1"
       style="stop-color:rgb(165,254,203)"
       id="stop24" />
  </linearGradient>
  <linearGradient
     id="_lgradient_7"
     x1="0.57576865"
     y1="0.38670361"
     x2="0.1279486"
     y2="0.79178208"
     gradientTransform="matrix(17.891504,0,0,8.734508,19.339935,11.857627)"
     gradientUnits="userSpaceOnUse">
    <stop
       offset="0%"
       stop-opacity="1"
       style="stop-color:rgb(211,0,220)"
       id="stop29" />
    <stop
       offset="100%"
       stop-opacity="1"
       style="stop-color:rgb(135,0,255)"
       id="stop31" />
  </linearGradient>
  <path
     style="color:#000000;fill:url(#linearGradient1490);-inkscape-stroke:none"
     d="m 25.259766,27.462891 -0.04492,1.410156 c -0.0038,0.118578 -0.03048,0.230538 -0.0625,0.322265 -3.74e-4,0.0011 3.76e-4,0.0028 0,0.0039 l -0.02148,0.04492 -0.01367,0.07617 c -0.279911,0.719706 -0.513372,1.453763 -0.673828,2.208985 l -0.08008,0.382812 5.330078,4.679688 v -0.002 c 1.348616,1.18441 3.446828,1.206543 4.81836,0.04883 l 5.662109,-4.785156 -0.07422,-0.382813 c -0.122357,-0.640237 -0.331326,-1.266632 -0.626953,-1.853516 v -0.002 c -0.162413,-0.324593 -0.349864,-0.622677 -0.544922,-0.90625 l -0.416015,-0.607422 -4.828125,4.078125 c -0.825421,0.697644 -2.265052,0.683858 -3.078125,-0.0293 z m 12.953125,2.636718 c 0.02053,0.03843 0.04905,0.07662 0.06836,0.115235 v 0.002 c 0.183395,0.363832 0.290675,0.761245 0.392578,1.158203 l -5.021484,4.244141 c -0.825726,0.696998 -2.267902,0.683989 -3.080078,-0.0293 l -4.714844,-4.140625 c 0.109767,-0.449336 0.247553,-0.893093 0.40625,-1.332032 l 3.46289,3.03711 c 1.349021,1.183238 3.44587,1.203295 4.816407,0.04492 z"
     id="path1224"
     transform="scale(0.75)" />
  <path
     style="color:#000000;fill:url(#linearGradient959);-inkscape-stroke:none"
     d="m 30.103516,11.521484 c -0.442718,0.07789 -1.002717,0.226735 -1.701172,0.445313 l -1.240235,0.388672 1.84961,0.849609 c 2.091892,0.96152 3.864839,2.500165 5.107422,4.441406 1.242568,1.936531 1.903497,4.192981 1.908203,6.496094 -5.19e-4,3.18774 -1.269879,6.244488 -3.525391,8.5 C 30.251589,34.89763 27.188936,36.164062 24,36.164062 c -3.188935,0 -6.251589,-1.266432 -8.501953,-3.521484 -2.255973,-2.255973 -3.525391,-5.313508 -3.525391,-8.501953 0,-0.115007 0.07186,-0.377376 0.09375,-0.542969 0.200027,0.05348 0.349455,0.250434 0.558594,0.197266 0.477505,-0.1214 0.849822,-0.521075 0.916016,-1.017578 0.120225,-0.799305 0.353672,-1.574992 0.697265,-2.298828 v -0.002 c 0.392195,-0.83108 0.888259,-1.605516 1.476563,-2.310546 v -0.002 h 0.002 c 0.18806,-0.228566 0.288759,-0.509468 0.429687,-0.767578 0.08606,0.176166 0.20351,0.331541 0.271485,0.517578 l 0.002,0.002 c 0.183255,0.49479 0.316627,1.014678 0.394531,1.537109 0.09385,0.624076 0.140432,1.24866 0.140625,1.876953 1e-6,0.0013 0,0.0026 0,0.0039 l -0.002,0.07422 c -0.221221,0.601625 -0.407741,1.214191 -0.546875,1.837891 l -0.002,0.002 v 0.0039 c -0.13878,0.652765 -0.211636,1.310952 -0.216797,1.974609 -0.0105,1.139707 0.252311,2.263779 0.761719,3.277344 h 0.002 v 0.002 c 0.257945,0.505363 0.57936,0.977684 0.953125,1.404297 0.384819,0.442021 0.816395,0.844063 1.289062,1.197266 0.497471,0.370564 1.023446,0.708111 1.583985,0.996094 0.603897,0.312012 1.227183,0.58317 1.873047,0.810546 0.708546,0.261309 1.43252,0.476774 2.160156,0.65625 0.810127,0.203776 1.630463,0.371736 2.455078,0.50586 0.303442,0.04921 0.612367,-0.01599 0.869141,-0.181641 l 0.0039,-0.002 0.0059,-0.0039 c 0.242815,-0.164489 0.429106,-0.4187 0.50586,-0.722656 0.08109,-0.300308 0.03949,-0.615624 -0.103516,-0.88086 -0.140556,-0.269009 -0.379027,-0.487021 -0.681641,-0.58789 -0.517583,-0.185463 -1.017151,-0.413096 -1.5,-0.677735 h -0.002 c -0.165814,-0.09029 -0.315121,-0.203754 -0.476562,-0.300781 0.520289,-0.06299 1.048047,-0.06983 1.552734,-0.216797 0.858553,-0.246048 1.665134,-0.643405 2.382813,-1.177734 l 0.002,-0.002 h 0.002 c 0.710351,-0.53944 1.286574,-1.23366 1.691406,-2.027344 l 0.002,-0.0059 0.002,-0.0039 c 0.409563,-0.845718 0.623978,-1.781014 0.613282,-2.724609 -9.1e-5,-0.189663 -0.0061,-0.390812 -0.02734,-0.597656 -0.07861,-0.917091 -0.330204,-1.809642 -0.744141,-2.632813 v -0.002 C 30.95683,20.515639 30.40962,19.780951 29.748047,19.160156 l -0.002,-0.002 c -1.376975,-1.313174 -3.204041,-2.046149 -5.107422,-2.056641 h -0.002 -0.002 c -0.753827,0 -1.853899,-0.0064 -2.699219,0.267579 l -0.002,0.002 c -0.921209,0.305185 -1.385372,0.849838 -2.015625,1.291015 L 19.255859,19.125 c -0.0019,-0.01291 -3.5e-5,-0.02616 -0.002,-0.03906 v -0.002 -0.002 C 19.146708,18.398007 18.976634,17.721022 18.734375,17.066406 18.108397,15.3468 16.905425,13.897909 15.330078,12.974609 l -0.792969,-0.464843 0.03906,0.917968 c 0.03632,0.835398 -0.08644,1.674753 -0.371094,2.460938 v 0.0039 l -0.002,0.0039 c -0.08819,0.256566 -0.220037,0.491957 -0.394531,0.707032 -0.587016,0.70849 -1.050194,1.506981 -1.482422,2.318359 -0.09981,-0.274168 -0.23934,-0.540819 -0.3125,-0.818359 -0.02844,-0.107903 -0.04505,-0.252449 -0.265625,-0.398438 -0.110287,-0.07299 -0.284546,-0.106945 -0.414063,-0.08008 -0.129516,0.02687 -0.210615,0.08427 -0.267578,0.132812 -0.227849,0.194182 -0.267854,0.352208 -0.373047,0.597657 -0.210384,0.490897 -0.464468,1.278564 -0.787109,2.40625 l -0.00195,0.0098 -0.00391,0.0098 c -0.263269,1.098643 -0.3945312,2.226613 -0.3945312,3.359375 0,3.839774 1.5275886,7.52759 4.2441406,10.244141 2.71677,2.716771 6.410226,4.246093 10.25,4.246093 3.839775,0 7.53323,-1.529322 10.25,-4.246093 2.716551,-2.716551 4.244141,-6.404367 4.244141,-10.244141 -0.0045,-2.451455 -0.708001,-4.820501 -1.884766,-6.955078 0.296426,-0.02169 0.553538,-0.100761 0.953125,0.03125 l 0.503906,-0.833985 c -0.04934,-0.04757 -0.140748,-0.06232 -0.193359,-0.109375 l 0.0039,-0.0059 c -0.0049,-0.0016 -0.0088,0.0016 -0.01367,0 C 37.255068,15.725613 36.436337,15.360258 35.638672,15 c 0.52519,-0.130119 1.039542,-0.330226 1.58789,-0.324219 l 0.154297,0.002 0.128907,-0.08789 c 0.189426,-0.126707 0.330897,-0.326236 0.357421,-0.585938 0.02617,-0.256241 -0.108824,-0.538098 -0.316406,-0.710937 -1.462214,-1.308443 -4.05531,-1.719716 -6.078125,-1.570313 -0.07822,-0.04716 -0.156005,-0.09523 -0.234375,-0.140625 h -0.002 c -0.389869,-0.225178 -0.690095,-0.138433 -1.132812,-0.06055 z m 0.632812,0.925782 c 0.104861,0.06073 0.208435,0.122781 0.310547,0.185547 l 0.142578,0.08789 0.166016,-0.01563 c 1.638398,-0.154754 3.84231,0.31703 5.078125,1.134766 -0.764258,0.07525 -1.531143,0.140187 -2.25586,0.458984 l -0.646484,0.285156 0.482422,0.513672 c 0.04608,0.04909 0.0923,0.102836 0.140625,0.158203 l 0.09766,0.109375 0.138672,0.04102 c 0.457342,0.133872 0.938409,0.535955 1.478516,0.839844 -0.0643,0.02035 -0.146341,-0.02773 -0.208985,-0.002 l -0.548828,0.224609 0.316406,0.503906 c 1.347091,2.143762 2.061695,4.628882 2.066407,7.169922 -5.21e-4,3.573807 -1.424458,7.006489 -3.953125,9.535156 -2.528911,2.528912 -5.966502,3.953125 -9.541016,3.953125 -3.574513,0 -7.012105,-1.424213 -9.541016,-3.953125 -2.529131,-2.52913 -3.953125,-5.962596 -3.953125,-9.537109 0,-0.556701 0.125232,-1.098148 0.19336,-1.648438 l 0.447265,0.597657 c -0.06518,0.356978 -0.173828,0.749487 -0.173828,1.050781 0,3.454131 1.375687,6.766312 3.81836,9.208984 2.438513,2.443594 5.755344,3.814453 9.208984,3.814453 3.453641,0 6.770471,-1.370859 9.208984,-3.814453 2.442673,-2.442672 3.81836,-5.754853 3.81836,-9.208984 -0.0051,-2.493219 -0.720324,-4.935346 -2.066407,-7.033203 -1.243068,-1.942002 -3.013072,-3.455208 -5.054687,-4.503906 0.104665,-0.02339 0.284261,-0.08238 0.371094,-0.09766 0.368882,-0.0649 0.599106,0.02429 0.458984,-0.05664 z m -15.30664,1.904297 c 1.047989,0.793296 1.912734,1.808847 2.367187,3.058593 v 0.002 0.002 c 0.216368,0.584654 0.368826,1.194881 0.466797,1.81836 0.103841,0.698569 0.15625,1.403136 0.15625,2.111328 l -0.0039,0.283203 v 0.0039 c 0,0.02261 -0.0058,0.05329 -0.02148,0.09766 l 0.0078,-0.01953 c -0.23966,0.601698 -0.429364,1.220516 -0.5625,1.855469 -0.119349,0.550676 -0.180354,1.111077 -0.185547,1.671875 -0.01044,0.905573 0.197404,1.793769 0.597656,2.599609 l 0.002,0.0039 0.002,0.002 c 0.204437,0.398115 0.457179,0.769771 0.751953,1.107422 v 0.002 h 0.002 c 0.318241,0.359978 0.670318,0.692889 1.0625,0.984375 0.434143,0.330348 0.898181,0.616806 1.380859,0.863281 0.366108,0.192968 0.738816,0.365899 1.115234,0.521484 l 0.544922,-0.816406 -0.132812,-0.132812 C 22.845246,30.23587 22.713187,30.08753 22.595703,29.935547 l -0.002,-0.0039 c -0.09653,-0.128037 -0.17468,-0.264008 -0.228516,-0.400391 l -0.002,-0.002 c -2.47e-4,-6.18e-4 2.47e-4,-0.0013 0,-0.002 -0.0013,-0.0031 -7.2e-4,-0.0066 -0.002,-0.0098 -0.02672,-0.07123 -0.01312,-0.161989 0.03906,-0.224609 0.05301,-0.06361 0.143263,-0.09665 0.224609,-0.08008 6.21e-4,1.24e-4 0.0013,-1.25e-4 0.002,0 0.674168,0.138808 1.359279,0.205834 2.042969,0.210937 0.799154,0.0052 1.599607,-0.104363 2.365234,-0.328125 0.688119,-0.197368 1.332923,-0.516164 1.904297,-0.943359 l 0.002,-0.002 0.002,-0.002 c 0.527884,-0.40141 0.957116,-0.913159 1.259766,-1.501953 l 0.0039,-0.0059 0.002,-0.0059 c 0.311311,-0.644466 0.469658,-1.350739 0.458985,-2.064454 -1.28e-4,-0.160113 -0.0053,-0.317094 -0.01563,-0.472656 v -0.0039 -0.0059 c -0.06414,-0.732314 -0.26805,-1.447696 -0.59961,-2.105469 -0.329151,-0.657579 -0.774367,-1.256879 -1.316406,-1.761719 -1.103432,-1.052911 -2.57159,-1.643663 -4.097656,-1.654297 h -0.002 -0.002 c -0.231512,0 -0.460979,0.01839 -0.689454,0.04492 -1.128497,-0.02375 -2.37342,0.412084 -3.691406,1.035156 l 0.238281,-0.166015 c 0.73639,-0.515472 1.084544,-0.935663 1.753907,-1.158203 0.571005,-0.184576 1.646618,-0.220647 2.386718,-0.220704 1.651435,0.0091 3.231919,0.643725 4.423829,1.78125 l 0.002,0.002 0.002,0.002 c 0.576839,0.540503 1.053605,1.18143 1.408203,1.890625 0.357267,0.710012 0.574712,1.477766 0.642578,2.269531 v 0.0059 l 0.002,0.0039 c 0.01672,0.158795 0.02148,0.332928 0.02148,0.509765 v 0.002 0.0039 c 0.0089,0.782718 -0.169467,1.563972 -0.509766,2.269531 -0.336849,0.659494 -0.813835,1.233438 -1.400391,1.679687 -0.620604,0.462056 -1.317067,0.806462 -2.060547,1.019532 h -0.002 v 0.002 c -0.807482,0.235323 -1.648918,0.350326 -2.490234,0.345703 h -0.002 c -0.04449,0 -0.112812,-0.0059 -0.205078,-0.0059 h -1.5 l 1.199218,0.900391 c 0.07814,0.0586 0.156222,0.117166 0.234375,0.175781 l 0.002,0.002 0.0039,0.002 c 0.474325,0.346817 0.970093,0.655667 1.480469,0.933593 0.529991,0.290477 1.081337,0.541466 1.654296,0.746094 l 0.0059,0.002 0.0039,0.002 c 0.0467,0.01557 0.08925,0.04917 0.115234,0.09961 l 0.002,0.0059 0.002,0.0059 c 0.02929,0.05369 0.03454,0.101443 0.02148,0.148438 l -0.002,0.0078 -0.002,0.0078 c -0.01235,0.05079 -0.04465,0.09492 -0.09766,0.132812 -0.04573,0.02833 -0.105424,0.04435 -0.16211,0.03516 -0.796955,-0.129626 -1.588957,-0.2935 -2.371094,-0.490235 h -0.002 C 24.354778,32.42751 23.66432,32.223001 22.996094,31.976562 l -0.0039,-0.002 -0.0039,-0.002 c -0.602429,-0.211791 -1.185452,-0.46512 -1.751953,-0.757812 h -0.002 v -0.002 c -0.504229,-0.259053 -0.983517,-0.565668 -1.443359,-0.908204 -0.416264,-0.311054 -0.794763,-0.662481 -1.132813,-1.050781 h -0.002 c -0.318389,-0.363233 -0.592367,-0.768729 -0.8125,-1.199219 v -0.002 c -4.12e-4,-8.06e-4 -0.0015,-0.0011 -0.002,-0.002 -0.436871,-0.870753 -0.663317,-1.837786 -0.654297,-2.816406 0.0046,-0.596477 0.07034,-1.187556 0.195312,-1.775391 0.13645,-0.610362 0.31465,-1.212375 0.535157,-1.798828 l 0.0293,-0.07617 0.0078,-0.242187 v -0.0078 c 0,-0.679363 -0.05101,-1.355453 -0.152344,-2.029297 -0.08806,-0.590553 -0.238168,-1.172755 -0.445312,-1.732421 v -0.002 c -0.19993,-0.546758 -0.468584,-1.07258 -0.816406,-1.548828 l -0.572266,-0.78125 -0.306641,0.917969 c -0.02653,0.0796 -0.04938,0.151869 -0.07226,0.212891 l -0.002,0.0059 -0.002,0.0039 c -0.147383,0.420475 -0.361598,0.807358 -0.640625,1.146485 -0.641188,0.768764 -1.181586,1.615515 -1.609375,2.521484 -0.387894,0.817163 -0.651037,1.690314 -0.785157,2.587891 l -0.002,0.0039 v 0.0039 c -0.01195,0.08961 -0.07109,0.156513 -0.169922,0.181641 -0.06541,0.01663 -0.117465,-0.02522 -0.169922,-0.05859 0.03801,-0.175525 0.03584,-0.279339 0.08008,-0.458984 0.176508,-0.71684 0.382108,-1.435789 0.5,-1.935547 l 0.04101,-0.175781 -0.04101,-0.08398 c 0.04502,-0.09428 0.08707,-0.193077 0.123046,-0.271484 l -0.002,0.0078 c 0.445945,-0.934136 1.009227,-1.814343 1.671875,-2.613281 l 0.002,-0.002 0.002,-0.002 c 0.244987,-0.301961 0.433831,-0.64212 0.560546,-1.009766 2.55e-4,-7.06e-4 0.0017,-0.0012 0.002,-0.002 0.216687,-0.600591 0.226516,-1.238645 0.28125,-1.86914 z m 9.847656,0.146484 c -0.50368,0.16619 -0.834374,0.449921 -1.023438,0.703125 C 24.064842,15.454376 24,15.71875 24,15.71875 l -0.03906,0.179688 0.08594,0.160156 c 0,0 0.162434,0.313646 0.498047,0.55664 0.335612,0.242995 0.904275,0.422367 1.550781,0.21875 0.588489,-0.185307 0.925217,-0.627695 1.054688,-0.988281 0.12947,-0.360586 0.09766,-0.685547 0.09766,-0.685547 l -0.01367,-0.158203 -0.103516,-0.121094 c 0,0 -0.196321,-0.223544 -0.513672,-0.359375 -0.31735,-0.135831 -0.793637,-0.203271 -1.339843,-0.02344 z m 0.943359,0.941406 c -0.0066,0.03253 0.0022,0.02967 -0.01172,0.06836 -0.05235,0.145787 -0.119968,0.278487 -0.414062,0.371093 -0.363068,0.114348 -0.523583,0.02749 -0.664063,-0.07422 -0.02208,-0.01599 -0.01305,-0.01723 -0.03125,-0.0332 0.08279,-0.10217 0.201647,-0.228998 0.490235,-0.324218 0.327026,-0.107671 0.508882,-0.05966 0.630859,-0.0078 z m -14.800781,3.902344 c 0.0934,0.250302 0.173754,0.503607 0.285156,0.748047 -0.169289,0.346706 -0.34525,0.67183 -0.447265,0.996093 l 0.01563,-0.04297 -0.5625,1.355468 c 0.05988,-0.457201 0.05321,-0.923016 0.160156,-1.371093 0.234141,-0.817775 0.39138,-1.249283 0.548828,-1.685547 z m 13.210937,0.224609 c 1.275102,0.0089 2.501859,0.502712 3.419922,1.38086 l 0.002,0.002 0.002,0.002 c 0.453675,0.42254 0.829093,0.927718 1.105469,1.480469 0.273153,0.541901 0.440464,1.134461 0.494141,1.738281 0.0088,0.13363 0.01367,0.267623 0.01367,0.40625 v 0.0039 0.0039 c 0.0085,0.554254 -0.115284,1.104656 -0.359375,1.611328 -0.233734,0.452027 -0.562664,0.844707 -0.96875,1.154297 -0.473855,0.354284 -1.010015,0.621089 -1.582032,0.785157 h -0.002 c -0.669775,0.195925 -1.373578,0.293652 -2.078125,0.289062 -0.624641,-0.0047 -1.246672,-0.06673 -1.851562,-0.191406 h -0.002 c -0.301041,-0.06021 -0.591486,-0.13274 -0.88086,-0.22461 l -0.52539,-0.167968 -0.115235,0.539062 c -0.08738,0.407777 -0.002,0.818448 0.105469,1.216797 C 21.160449,29.44644 20.90298,29.31131 20.673828,29.136719 l -0.002,-0.002 -0.002,-0.002 c -0.330688,-0.245781 -0.63252,-0.529702 -0.910156,-0.84375 -0.240155,-0.275414 -0.445544,-0.574898 -0.611329,-0.896484 -0.332099,-0.668626 -0.502981,-1.401853 -0.49414,-2.146484 v -0.002 c 0.0046,-0.493554 0.05901,-0.986531 0.164062,-1.470704 v -0.002 -0.002 c 0.120846,-0.57634 0.294212,-1.138468 0.513672,-1.689453 l 0.002,-0.0098 0.0039,-0.0098 c 0.04294,-0.121694 0.07813,-0.266701 0.07813,-0.429688 l 0.0039,-0.283203 v -0.0039 c 0,-0.06417 -0.01287,-0.1273 -0.01367,-0.191406 l 0.222656,-0.123047 c 1.692488,-0.941279 3.143118,-1.442207 4.294922,-1.417969 l 0.03711,0.002 0.03711,-0.0059 c 0.209207,-0.02692 0.420675,-0.04085 0.632812,-0.04102 z"
     id="path27" />
  <path
     style="color:#000000;fill:url(#linearGradient906);-inkscape-stroke:none"
     d="m 31.761719,11.388672 c -0.83709,-0.06599 -2.349373,-0.03101 -3.144532,0.07617 -1.908086,0.256926 -3.513699,0.792907 -4.80664,1.628906 -1.237642,0.800393 -2.173973,1.945881 -2.578125,3.203125 -0.01166,0.03632 -0.02245,0.06018 -0.0332,0.08789 -0.332118,0.125893 -0.661735,0.271507 -0.996094,0.541015 -0.667928,0.538356 -1.139608,1.321753 -1.298828,2.16211 -0.07933,0.422669 -0.105959,1.021118 -0.03516,1.449218 l 0.261718,1.589844 0.847657,-1.583984 c 0.386505,-0.72346 0.874103,-1.277715 1.445312,-1.666016 0.529772,-0.359488 1.607093,-0.700796 2.154297,-0.701172 h 1.347656 l -0.875,-0.933594 c -0.150392,-0.16146 -0.282017,-0.239171 -0.466797,-0.361328 -0.140366,-0.0928 -0.286938,-0.172394 -0.427734,-0.25 0.68223,-1.74507 3.01034,-3.28628 6.021484,-3.742187 1.460558,-0.22107 3.138261,-0.171173 4.619141,0.136719 0.933928,0.194257 2.00976,0.549292 2.792969,0.919922 0.119017,0.05642 0.228128,0.105857 0.316406,0.142578 0.04414,0.01836 0.08067,0.03289 0.121094,0.04687 0.02021,0.007 0.0387,0.01269 0.07617,0.02148 0.01874,0.0044 0.04156,0.01046 0.0918,0.01367 0.02512,0.0016 0.112639,-0.0038 0.113282,-0.0039 3.21e-4,-5.2e-5 0.109141,-0.03116 0.109375,-0.03125 2.34e-4,-9.5e-5 0.156104,-0.09947 0.15625,-0.09961 l 0.0059,-0.0059 0.0059,-0.0078 c 5.27e-4,-5.34e-4 0.132644,-0.237556 0.132813,-0.238281 1.69e-4,-7.25e-4 0.0041,-0.211979 0.0039,-0.21289 -1.81e-4,-9.12e-4 -0.02696,-0.09368 -0.04102,-0.123047 -0.01406,-0.02937 -0.02746,-0.04924 -0.03906,-0.06641 -0.0464,-0.06868 -0.07229,-0.08805 -0.0957,-0.109375 -0.04683,-0.04265 -0.08217,-0.06927 -0.125,-0.09961 -0.08566,-0.06068 -0.191879,-0.127763 -0.3125,-0.201172 -0.241242,-0.146818 -0.53441,-0.312291 -0.783203,-0.433594 h -0.002 c -1.29589,-0.631701 -2.825934,-1.011683 -4.5625,-1.148437 z m -10.291016,4.847656 c -0.07363,0.01727 -0.145667,0.09344 -0.21875,0.119141 0.01018,-0.0099 0.0148,-0.01647 0.03125,-0.0293 0.01778,-0.01385 0.03917,-0.02845 0.07031,-0.04492 0.02927,-0.01549 0.107635,-0.04188 0.117187,-0.04492 z m 0.658203,0.511719 c -0.0045,0.06725 -0.05435,0.08965 -0.0332,0.185547 0.03709,0.168194 0.165973,0.314715 0.255859,0.380859 0.08989,0.06614 0.15394,0.09644 0.222657,0.130859 h 0.002 c 0.01407,0.007 0.04226,0.0245 0.05859,0.0332 -0.623612,0.146701 -1.278285,0.235641 -1.771485,0.570312 h -0.002 c -0.312834,0.212661 -0.503527,0.594466 -0.767578,0.878906 0.167493,-0.454781 0.369634,-0.929051 0.736328,-1.224609 0.349486,-0.281701 0.681795,-0.448404 0.869141,-0.492188 h -0.0059 c 6.26e-4,-1.37e-4 0.09638,-0.02966 0.128907,-0.04687 0.03252,-0.01721 0.05688,-0.03379 0.07617,-0.04883 0.03858,-0.03007 0.05945,-0.05283 0.07617,-0.07227 0.03345,-0.03887 0.04723,-0.06378 0.06055,-0.08594 0.02664,-0.04432 0.04243,-0.07691 0.05859,-0.113281 0.01285,-0.02891 0.0231,-0.06456 0.03516,-0.0957 z"
     id="path34" />
</svg>
