<?xml version="1.0" encoding="UTF-8" standalone="no"?>
<!-- Generator: Gravit.io -->

<svg
   style="isolation:isolate"
   viewBox="0 0 48 48"
   width="48pt"
   height="48pt"
   version="1.1"
   id="svg9"
   sodipodi:docname="faugus_launcher.svg"
   inkscape:version="1.2.2 (b0a8486541, 2022-12-01)"
   xmlns:inkscape="http://www.inkscape.org/namespaces/inkscape"
   xmlns:sodipodi="http://sodipodi.sourceforge.net/DTD/sodipodi-0.dtd"
   xmlns:xlink="http://www.w3.org/1999/xlink"
   xmlns="http://www.w3.org/2000/svg"
   xmlns:svg="http://www.w3.org/2000/svg">
  <defs
     id="defs13">
    <linearGradient
       id="linearGradient1501"
       x1="0.5819638936634305"
       y1="0.7783106944169678"
       x2="0.2761894372629943"
       y2="0.32136112200255573"
       gradientTransform="matrix(27.821267,0,0,19.93329,10.089055,12.8454)"
       gradientUnits="userSpaceOnUse">
      <stop
         offset="0"
         stop-opacity="1"
         style="stop-color:#9f19ff;stop-opacity:1;"
         id="stop1497" />
      <stop
         offset="1"
         stop-opacity="1"
         style="stop-color:#002dfe;stop-opacity:1;"
         id="stop1499" />
    </linearGradient>
    <linearGradient
       id="linearGradient1493"
       x1="0.5819638936634305"
       y1="0.7783106944169678"
       x2="0.2761894372629943"
       y2="0.32136112200255573"
       gradientTransform="matrix(27.821267,0,0,19.93329,10.089055,12.8454)"
       gradientUnits="userSpaceOnUse">
      <stop
         offset="0"
         stop-opacity="1"
         style="stop-color:#1bce89;stop-opacity:0.50632912;"
         id="stop1489" />
      <stop
         offset="100%"
         stop-opacity="1"
         style="stop-color:rgb(78,142,213)"
         id="stop1491" />
    </linearGradient>
    <linearGradient
       inkscape:collect="always"
       xlink:href="#linearGradient1501"
       id="linearGradient872"
       x1="-12.025727"
       y1="6.1170783"
       x2="-0.085100174"
       y2="6.1170783"
       gradientUnits="userSpaceOnUse"
       gradientTransform="matrix(3.8358211,0,0,3.8371386,-0.00544341,-0.00268054)" />
    <linearGradient
       id="_lgradient_21"
       x1="0"
       y1="0.5"
       x2="1"
       y2="0.5"
       gradientTransform="matrix(28.183272,0,0,28.298876,9.8766106,9.8505561)"
       gradientUnits="userSpaceOnUse">
      <stop
         offset="0%"
         stop-opacity="1"
         style="stop-color:rgb(255,224,49)"
         id="stop2-3" />
      <stop
         offset="98.69565217391305%"
         stop-opacity="1"
         style="stop-color:rgb(252,82,82)"
         id="stop4-6" />
    </linearGradient>
    <linearGradient
       inkscape:collect="always"
       xlink:href="#linearGradient1501"
       id="linearGradient15"
       x1="-9.6850061"
       y1="45.161198"
       x2="11.98815"
       y2="21.735205"
       gradientUnits="userSpaceOnUse"
       gradientTransform="matrix(1.1147442,0,0,1.1150348,-0.01237238,-3.3277956)" />
    <linearGradient
       inkscape:collect="always"
       xlink:href="#linearGradient1501"
       id="linearGradient1022"
       x1="10.089403"
       y1="22.812044"
       x2="37.910599"
       y2="22.812044"
       gradientUnits="userSpaceOnUse"
       gradientTransform="matrix(0.81272987,0,0,0.64607944,4.4944821,13.159877)" />
    <linearGradient
       id="linearGradient551"
       x1="0.5819639"
       y1="0.77831072"
       x2="0.27618945"
       y2="0.32136112"
       gradientTransform="matrix(27.821267,0,0,19.93329,10.089055,12.8454)"
       gradientUnits="userSpaceOnUse">
      <stop
         offset="0%"
         stop-opacity="1"
         style="stop-color:rgb(27,206,137)"
         id="stop2-36" />
      <stop
         offset="100%"
         stop-opacity="1"
         style="stop-color:rgb(78,142,213)"
         id="stop4-7" />
    </linearGradient>
    <linearGradient
       inkscape:collect="always"
       xlink:href="#_lgradient_1"
       id="linearGradient2795"
       x1="21.94076"
       y1="20.454782"
       x2="26.059238"
       y2="20.454782"
       gradientUnits="userSpaceOnUse"
       gradientTransform="matrix(0.72885572,0,0,0.72773822,6.4556093,3.1718981)" />
    <linearGradient
       id="_lgradient_1"
       x1="0"
       y1="0.5"
       x2="0.90748805"
       y2="0.92007786"
       gradientTransform="matrix(4.1186322,0,0,5.244721,21.940962,17.832552)"
       gradientUnits="userSpaceOnUse">
      <stop
         offset="0%"
         stop-opacity="1"
         style="stop-color:rgb(247,241,7)"
         id="stop9" />
      <stop
         offset="83.88839793817618%"
         stop-opacity="1"
         style="stop-color:rgb(255,187,36)"
         id="stop11" />
    </linearGradient>
    <linearGradient
       inkscape:collect="always"
       xlink:href="#_lgradient_0"
       id="linearGradient1051"
       x1="11.30722"
       y1="22.27261"
       x2="36.69278"
       y2="22.27261"
       gradientUnits="userSpaceOnUse"
       gradientTransform="matrix(0.72885572,0,0,0.72773822,6.4555322,1.8489283)" />
    <linearGradient
       id="_lgradient_0"
       x1="0.54298681"
       y1="-0.26555973"
       x2="0.51975447"
       y2="0.98335701"
       gradientTransform="matrix(45.74,0,0,48,1.13,0)"
       gradientUnits="userSpaceOnUse">
      <stop
         offset="3.0434782608695654%"
         stop-opacity="1"
         style="stop-color:rgb(166,124,243)"
         id="stop2-35" />
      <stop
         offset="99.16666666666667%"
         stop-opacity="1"
         style="stop-color:rgb(110,89,145)"
         id="stop4-62" />
    </linearGradient>
  </defs>
  <sodipodi:namedview
     id="namedview11"
     pagecolor="#ffffff"
     bordercolor="#666666"
     borderopacity="1.0"
     inkscape:pageshadow="2"
     inkscape:pageopacity="0.0"
     inkscape:pagecheckerboard="0"
     inkscape:document-units="pt"
     showgrid="false"
     inkscape:zoom="10.21875"
     inkscape:cx="12.966361"
     inkscape:cy="27.69419"
     inkscape:window-width="1600"
     inkscape:window-height="834"
     inkscape:window-x="0"
     inkscape:window-y="0"
     inkscape:window-maximized="1"
     inkscape:current-layer="svg9"
     inkscape:showpageshadow="2"
     inkscape:deskcolor="#d1d1d1" />
  <linearGradient
     id="_lgradient_4"
     x1="0.5819638936634305"
     y1="0.7783106944169678"
     x2="0.2761894372629943"
     y2="0.32136112200255573"
     gradientTransform="matrix(27.821267,0,0,19.93329,10.089055,12.8454)"
     gradientUnits="userSpaceOnUse">
    <stop
       offset="0%"
       stop-opacity="1"
       style="stop-color:rgb(27,206,137)"
       id="stop2" />
    <stop
       offset="100%"
       stop-opacity="1"
       style="stop-color:rgb(78,142,213)"
       id="stop4" />
  </linearGradient>
  <rect
     x="-46.783188"
     y="1.2253767"
     height="45.80014"
     rx="6.1837621"
     shape-rendering="crispEdges"
     id="rect5-6-7-3"
     ry="6.8055277"
     transform="matrix(0.00524063,-0.99998627,0.99998801,0.00489691,0,0)"
     style="isolation:isolate;fill:#062cfe;fill-opacity:0.13;stroke:url(#linearGradient872);stroke-width:2.0301;stroke-miterlimit:4;stroke-dasharray:none;stroke-opacity:1"
     width="45.801998" />
  <rect
     x="-15.686804"
     y="17.260084"
     height="33.345856"
     rx="6.7920032"
     shape-rendering="crispEdges"
     id="rect5-6-6-6-6"
     style="isolation:isolate;fill:#052cfe;fill-opacity:0.13;stroke:url(#linearGradient15);stroke-width:1.67233;stroke-miterlimit:4;stroke-dasharray:none;stroke-opacity:1"
     ry="7.4743071"
     transform="matrix(0.72446484,-0.68931175,0.68622417,0.72739012,0,0)"
     width="33.338203" />
  <path
     id="path7"
     style="color:#000000;fill:url(#linearGradient1022);fill-rule:evenodd;stroke-width:0.72463;-inkscape-stroke:none"
     d="m 17.381887,21.136183 c -1.215569,0 -2.553343,0.509758 -3.187028,1.264397 -0.58584,0.698798 -1.06709,1.876693 -1.155998,2.787164 l -0.744077,7.612886 c -0.09847,1.008355 0.893336,1.860633 2.165561,1.860633 h 0.515496 c 1.262847,0 2.487931,-0.715695 2.866778,-1.673245 l 0.841699,-2.125627 c 4.6e-5,-1.15e-4 0.106238,-0.06246 0.107148,-0.06246 h 3.162027 c 0.640997,0 1.170282,-0.41955 1.170282,-0.929371 0,-0.509818 -0.52896,-0.929369 -1.170282,-0.929369 h -3.429895 c -0.841726,0 -1.622797,0.455943 -1.875073,1.094045 l -0.954799,2.413333 c -0.06321,0.16025 -0.392079,0.352063 -0.603595,0.352063 h -0.247629 c -0.202398,0 -0.307783,-0.09049 -0.289296,-0.250797 l 0.8667,-7.543796 c 0.04888,-0.42375 0.362325,-1.143567 0.622642,-1.454626 0.213727,-0.254984 0.929009,-0.556486 1.391722,-0.556486 h 7.259805 c 0.640996,0 1.169092,-0.418604 1.169092,-0.928424 0,-0.509819 -0.52777,-0.930316 -1.169092,-0.930316 z m 11.023046,0 c -0.641323,0 -1.167903,0.420756 -1.167903,0.930316 0,0.509562 0.526906,0.928424 1.167903,0.928424 h 2.160797 c 0.462713,0 1.177995,0.301502 1.391722,0.556486 0.260317,0.31106 0.573756,1.030877 0.622642,1.454626 l 0.8667,7.543798 c 0.01849,0.160311 -0.0869,0.250797 -0.289296,0.250797 h -0.713123 c -0.22226,0 -0.625378,-0.203634 -0.720266,-0.363419 l -1.63935,-2.763504 c -0.264441,-0.445901 -0.83585,-0.732518 -1.456008,-0.732518 h -3.484659 c -0.641323,0 -1.169093,0.41981 -1.169093,0.929369 0,0.509562 0.528096,0.929371 1.169093,0.929371 h 3.003688 c 0.01133,0 0.171484,0.081 0.176197,0.08896 l 1.314337,2.214587 c 0.533882,0.900494 1.837498,1.557784 3.089405,1.557784 h 0.811936 c 1.272225,0 2.264027,-0.852278 2.165561,-1.860633 l -0.744077,-7.612882 c -0.08891,-0.910471 -0.570158,-2.088366 -1.155998,-2.787164 -0.633685,-0.754639 -1.971459,-1.264397 -3.187028,-1.264397 z m -11.023046,0.646394 h 7.312188 c 0.201095,0 0.357157,0.124062 0.357157,0.283922 0,0.159861 -0.155736,0.282029 -0.357157,0.282029 H 17.43427 c -0.800915,0 -1.634664,0.327277 -2.067938,0.844194 -0.38567,0.460845 -0.689443,1.178836 -0.755981,1.755582 l -0.8667,7.541905 c -0.05846,0.506953 0.458831,0.956816 1.098851,0.956816 h 0.247629 c 0.630904,0 1.190916,-0.326547 1.379815,-0.805391 L 17.423555,30.2283 c 0.126407,-0.319733 0.67814,-0.641662 1.100043,-0.641662 h 3.429895 c 0.201094,0 0.357157,0.12406 0.357157,0.28392 0,0.159862 -0.155736,0.282976 -0.357157,0.282976 h -3.162027 c -0.420301,0 -0.75786,0.196358 -0.883368,0.515791 l -0.84051,2.123734 c -0.252965,0.639381 -1.24855,1.22181 -2.091747,1.22181 h -0.515496 c -0.833821,0 -1.419364,-0.504009 -1.354814,-1.165026 l 0.745266,-7.610992 c 0.07411,-0.758897 0.568283,-1.940437 1.020278,-2.479583 0.405163,-0.482497 1.620334,-0.976691 2.510812,-0.976691 z m 11.023046,0 h 2.21318 c 0.890478,0 2.105649,0.494194 2.510812,0.976691 0.451995,0.539146 0.946171,1.720686 1.020278,2.479583 l 0.745266,7.610992 c 0.06455,0.661017 -0.520993,1.165026 -1.354814,1.165026 h -0.811936 c -0.854138,0 -1.990629,-0.573405 -2.354853,-1.187739 L 29.058529,30.614433 C 28.884027,30.31975 28.557659,30.153534 28.14778,30.153534 h -3.003688 c -0.201422,0 -0.357157,-0.122854 -0.357157,-0.282976 0,-0.160118 0.156062,-0.28392 0.357157,-0.28392 h 3.484659 c 0.222259,0 0.625264,0.203226 0.720265,0.363419 l 1.640541,2.763504 c 0.264557,0.445502 0.834659,0.733464 1.454818,0.733464 h 0.713123 c 0.64002,0 1.157317,-0.449862 1.098852,-0.956816 l -0.866701,-7.541905 c -0.06654,-0.576747 -0.370311,-1.294738 -0.755981,-1.755582 -0.213354,-0.428949 -1.263461,-0.844194 -2.067938,-0.844194 h -2.160797 c -0.201421,0 -0.355967,-0.12191 -0.355967,-0.282029 0,-0.160118 0.154873,-0.283922 0.355967,-0.283922 z m -10.090868,1.594694 c -0.423843,0 -0.775029,0.279177 -0.775029,0.61611 v 0.674787 h -0.847653 c -0.423842,0 -0.776221,0.280122 -0.776221,0.617056 v 1.380806 c 0,0.336935 0.35305,0.615164 0.776221,0.615164 h 0.847653 v 0.67384 c 0,0.336933 0.351187,0.617056 0.775029,0.617056 h 1.738163 c 0.423883,0 0.775029,-0.280122 0.775029,-0.617056 v -0.67384 h 0.847653 c 0.424387,8.4e-4 0.776221,-0.27823 0.776221,-0.615164 v -1.381753 c 0,-0.336933 -0.352378,-0.617056 -0.776221,-0.617056 h -0.847653 v -0.67384 c 0,-0.336935 -0.351185,-0.61611 -0.775029,-0.61611 z m 0.128577,0.348277 h 1.48101 c 0.360927,0 0.511924,0.446546 0.511924,0.733464 v 0.574469 h 0.721457 c 0.360926,0 0.808365,0.02823 0.808365,0.315153 v 1.177327 c 0,0.286918 -0.520789,0.390631 -0.882177,0.38992 h -0.721457 v 0.573522 c 0,0.286918 -0.07716,0.659644 -0.438112,0.659644 h -1.48101 c -0.360926,0 -0.458351,-0.355691 -0.458351,-0.642609 v -0.573521 h -0.722648 c -0.360353,0 -0.860748,-0.120036 -0.860748,-0.406956 v -1.175435 c 0,-0.286918 0.458155,-0.366259 0.81908,-0.366259 h 0.721456 v -0.575414 c 0,-0.286918 0.140284,-0.683305 0.501211,-0.683305 z m 10.376593,0.02556 c -0.639053,0 -1.165522,0.41757 -1.165522,0.925585 0,0.186959 0.13037,0.336317 0.25239,0.482667 -0.184097,-0.097 -0.370789,-0.200638 -0.605975,-0.200638 -0.639052,0 -1.165521,0.41757 -1.165521,0.925584 0,0.508015 0.526469,0.927477 1.165521,0.927477 0.235243,0 0.42185,-0.10454 0.605975,-0.201585 -0.122387,0.146497 -0.25239,0.294454 -0.25239,0.481721 0,0.508016 0.526469,0.926531 1.165522,0.926531 0.639053,0 1.166711,-0.418515 1.166711,-0.926531 0,-0.187313 -0.131138,-0.335203 -0.253581,-0.481721 0.184311,0.09734 0.370346,0.201585 0.605975,0.201585 0.639053,0 1.165522,-0.419462 1.165522,-0.927477 0,-0.508014 -0.526469,-0.925584 -1.165522,-0.925584 -0.235572,0 -0.421692,0.103343 -0.605975,0.200638 0.122075,-0.146372 0.253581,-0.295661 0.253581,-0.482667 0,-0.508015 -0.527658,-0.925585 -1.166711,-0.925585 z m -0.604786,1.652422 c 0.184033,0.09689 0.36974,0.200636 0.604786,0.200636 0.235571,0 0.421692,-0.103343 0.605975,-0.200636 -0.121887,0.146295 -0.252391,0.293923 -0.252391,0.480773 0,0.187268 0.130004,0.336171 0.252391,0.482667 -0.184283,-0.09729 -0.370404,-0.200638 -0.605975,-0.200638 -0.235046,0 -0.420753,0.103743 -0.604786,0.200638 0.122387,-0.146496 0.252391,-0.295399 0.252391,-0.482667 0,-0.18685 -0.130502,-0.334478 -0.252391,-0.480773 z"
     sodipodi:nodetypes="scccssccsssssccsscccssssssssscccssccsssssccsscccssssssscccssccsssssccsscccssscccssccsssssccsscccsssssscsssscssssccssscsssssscsssccsssscsssscsssscssscssscssscsscscscscsc" />
  <path
     id="path7-9"
     style="color:#000000;isolation:isolate;fill:url(#linearGradient1051);fill-rule:evenodd;stroke-width:0.728297;-inkscape-stroke:none"
     d="m 23.947266,8.0009766 c -1.857356,-0.00349 -3.729431,0.6325541 -4.977539,2.0083004 -1.762841,1.943118 -2.314156,3.887624 -1.92627,6.191895 -0.500003,0.447858 -0.966815,0.933263 -1.359375,1.473633 -0.381663,0.51703 -0.69472,1.079593 -0.936035,1.671386 v 0.0015 l -0.0015,0.0015 c -0.272236,0.681702 -0.410207,1.407842 -0.414551,2.138672 v 0.0015 0.0015 c 0.05355,0.334049 0.07114,0.533765 0.08203,0.6958 0.186752,-0.170504 0.409662,-0.323879 0.657714,-0.458496 -0.0046,-0.07911 -0.01172,-0.157904 -0.01172,-0.237304 0.004,-0.641925 0.126004,-1.279375 0.363281,-1.873535 0.219266,-0.537041 0.503176,-1.046278 0.848144,-1.513184 l 0.0015,-0.0015 v -0.0015 c 0.399727,-0.550234 0.866565,-1.053864 1.387207,-1.5 l 0.168457,-0.143554 -0.0498,-0.215332 c -0.434459,-2.041279 0.429864,-4.461084 1.697754,-5.709961 1.188832,-1.1710067 2.800272,-1.8070452 4.469238,-1.8032231 h 0.0015 0.0015 0.0015 c 1.668976,-0.00378 3.271297,0.6415114 4.469239,1.8032231 1.183128,1.143208 1.850676,2.716555 1.854492,4.359375 0,0.456368 -0.05369,0.908537 -0.156738,1.350586 l -0.0498,0.215332 0.168457,0.143554 c 0.520643,0.446135 0.987221,0.950177 1.391601,1.501465 v 0.0015 h 0.0015 c 0.344768,0.466634 0.624258,0.971747 0.84375,1.513184 0.23765,0.595097 0.359495,1.228343 0.363282,1.875 -1.8e-5,0.05974 -0.0062,0.119127 -0.0088,0.17871 0.23706,0.119882 0.452476,0.25806 0.640137,0.410157 0.03989,-0.210537 0.07331,-0.41553 0.09668,-0.590332 v -0.0015 -0.0015 c -0.0045,-0.734898 -0.142517,-1.457472 -0.414551,-2.138672 -0.279565,-0.610759 -0.597021,-1.213995 -0.93457,-1.675781 v -0.0015 c -0.395539,-0.539113 -0.862567,-1.021654 -1.362305,-1.469238 0.08661,-0.430701 0.150879,-0.86779 0.150879,-1.311035 v -0.0015 c -0.0042,-1.838599 -0.752304,-3.60072 -2.077148,-4.88086 C 27.592548,8.7158184 25.80754,7.9975003 23.950195,8.0009766 Z m 0,1.2099609 c -1.54211,-0.0036 -3.09953,0.5246589 -4.132325,1.6669925 -1.552779,1.717463 -1.91243,4.06488 -1.375488,5.768554 -0.669066,0.500078 -1.284627,1.071565 -1.779785,1.746094 -0.321629,0.432934 -0.584228,0.903903 -0.785156,1.40332 -0.214734,0.538195 -0.328125,1.113908 -0.328125,1.694825 0,0.0049 -1.7e-5,0.0098 0,0.01465 0.235383,-0.0939 0.484467,-0.169788 0.738281,-0.228516 0.02389,-0.412966 0.111649,-0.821601 0.266602,-1.20996 h -0.0015 c 0.178915,-0.444704 0.411536,-0.859965 0.6958,-1.242188 l 0.0015,-0.0015 v -0.0029 c 0.498926,-0.679664 1.101794,-1.27187 1.788575,-1.753418 L 19.27002,16.902832 19.166016,16.63623 c -0.407293,-1.06242 -0.360326,-2.178413 -0.02344,-3.174316 0.0422,-0.396709 0.242746,-0.7569 0.498047,-1.069336 -0.202141,0.332831 -0.370563,0.692469 -0.498047,1.069336 -0.0054,0.05055 -0.0088,0.100617 -0.0088,0.152344 0,0.524241 0.207979,1.02886 0.580078,1.40039 0.372101,0.37153 0.876809,0.578614 1.401856,0.578614 0.525045,0 1.031219,-0.207084 1.40332,-0.578614 0.372102,-0.37153 0.580078,-0.876149 0.580078,-1.40039 0,-0.524242 -0.207976,-1.027396 -0.580078,-1.398926 -0.372101,-0.371531 -0.878275,-0.580078 -1.40332,-0.580078 -0.499893,0 -0.968294,0.212099 -1.334473,0.550781 0.181455,-0.263179 0.307449,-0.559511 0.540527,-0.785156 0.971206,-0.940228 2.270852,-1.4656882 3.624024,-1.4619142 h 0.0015 0.0015 0.0015 c 1.353182,-0.0037 2.657192,0.5214952 3.624024,1.4604492 v 0.0015 c 0.233954,0.22618 0.358712,0.52318 0.540527,0.786621 -0.366229,-0.338924 -0.834391,-0.552246 -1.334473,-0.552246 -0.525046,0 -1.031217,0.208546 -1.40332,0.580078 -0.372101,0.37153 -0.580077,0.876149 -0.580078,1.400391 0,0.524241 0.207978,1.027395 0.580078,1.398925 0.372103,0.371531 0.878274,0.578614 1.40332,0.578614 0.525047,0 1.029754,-0.207083 1.401856,-0.578614 0.3721,-0.37153 0.580078,-0.874683 0.580078,-1.398925 0,-0.103009 -0.01183,-0.203467 -0.03223,-0.301758 -0.130522,-0.319199 -0.292661,-0.62752 -0.476074,-0.924317 0.224221,0.273473 0.405613,0.584852 0.476074,0.924317 0.203781,0.498356 0.329471,1.024113 0.331055,1.577637 0,0.465612 -0.06855,0.929735 -0.203613,1.375488 v 0.0015 c -0.115078,0.383005 0.0163,0.805141 0.342773,1.048828 8.36e-4,6.58e-4 0.0021,8.06e-4 0.0029,0.0015 0.0028,0.0021 0.0045,0.0053 0.0073,0.0073 0.54389,0.429875 1.02752,0.931325 1.438477,1.491211 v 0.0015 c 0.285175,0.387244 0.516886,0.803344 0.695801,1.248047 h -0.0015 c 0.151832,0.380543 0.239024,0.780574 0.265136,1.185058 0.253765,0.05281 0.503418,0.124107 0.741211,0.212402 -0.0034,-0.57197 -0.116633,-1.138386 -0.328125,-1.668457 -0.201211,-0.499705 -0.464091,-0.971458 -0.785156,-1.407714 l -0.0015,-0.0015 c -0.451982,-0.614932 -0.983431,-1.168061 -1.583496,-1.640625 l -0.0059,-0.0044 -0.0059,-0.0044 c -0.07767,-0.05626 -0.111982,-0.160835 -0.0835,-0.257813 0.134357,-0.54581 0.231677,-1.108184 0.234375,-1.58789 v -0.0015 C 29.786127,13.378752 29.17103,11.930219 28.081055,10.876465 26.977553,9.8052265 25.49043,9.2074155 23.94873,9.2109375 Z m -2.830078,3.1523435 c 0.332518,0 0.651563,0.131903 0.88623,0.366211 0.234667,0.234306 0.367677,0.552756 0.367676,0.884766 0,0.332009 -0.133008,0.651923 -0.367676,0.88623 -0.234667,0.234308 -0.553712,0.364746 -0.88623,0.364746 -0.332519,0 -0.653029,-0.130438 -0.887696,-0.364746 -0.234666,-0.234307 -0.367676,-0.554221 -0.367676,-0.88623 0,-0.332009 0.133011,-0.650459 0.367676,-0.884766 0.234667,-0.234308 0.555177,-0.366211 0.887696,-0.366211 z m 5.661621,0 c 0.332519,0 0.653028,0.131903 0.887695,0.366211 0.234666,0.234307 0.367676,0.552757 0.367676,0.884766 0,0.332009 -0.133009,0.651923 -0.367676,0.88623 -0.234667,0.234308 -0.555176,0.364746 -0.887695,0.364746 -0.332519,0 -0.651564,-0.130438 -0.886231,-0.364746 -0.234668,-0.234307 -0.367675,-0.554221 -0.367676,-0.88623 0,-0.33201 0.133009,-0.65046 0.367676,-0.884766 0.234667,-0.234308 0.553712,-0.366211 0.886231,-0.366211 z m -5.661621,0.0791 c -0.308657,0 -0.606925,0.126175 -0.826172,0.348633 -0.222797,0.218911 -0.347168,0.515059 -0.347168,0.823242 0,0.308183 0.12437,0.605795 0.347168,0.824707 0.219247,0.222454 0.517516,0.347168 0.826172,0.347168 0.308657,0 0.60546,-0.124714 0.824707,-0.347168 0.222797,-0.218912 0.347168,-0.516524 0.347168,-0.824707 0,-0.308183 -0.124371,-0.604331 -0.347168,-0.823242 -0.219248,-0.222458 -0.516049,-0.348633 -0.824707,-0.348633 z m 5.661621,0 c -0.308658,0 -0.60546,0.126175 -0.824707,0.348633 -0.222797,0.218911 -0.347168,0.515059 -0.347168,0.823242 0,0.308183 0.124371,0.605795 0.347168,0.824707 0.219246,0.222454 0.516049,0.347168 0.824707,0.347168 0.308655,0 0.606923,-0.124714 0.826171,-0.347168 0.222798,-0.218912 0.347168,-0.516524 0.347168,-0.824707 0,-0.308183 -0.124371,-0.604331 -0.347168,-0.823242 -0.219248,-0.222458 -0.517515,-0.348633 -0.826171,-0.348633 z m -5.661621,1.132324 c 0.02612,0 0.03955,0.01347 0.03955,0.03955 0,0.02607 -0.01344,0.04101 -0.03955,0.04101 -0.02612,0 -0.04102,-0.01493 -0.04102,-0.04101 0,-0.02607 0.01491,-0.03955 0.04102,-0.03955 z m 5.661621,0 c 0.02612,0 0.04102,0.01347 0.04102,0.03955 0,0.02607 -0.0149,0.04101 -0.04102,0.04101 -0.02612,0 -0.03955,-0.01493 -0.03955,-0.04101 0,-0.02607 0.01344,-0.03955 0.03955,-0.03955 z m -0.503907,2.166504 c -0.196377,0.01946 -0.38463,0.113017 -0.518554,0.275391 -0.268366,0.325363 -0.216501,0.81621 0.108398,1.082519 h 0.0015 v 0.0015 c 0.416243,0.339047 0.750248,0.77366 0.98291,1.26709 0.248485,0.533235 0.378667,1.120702 0.375,1.708008 v 0.0029 c -0.07616,1.456449 -0.223379,2.009171 0.041,2.224455 0,0 -0.08539,-0.274171 0.03171,-0.524614 0.100456,-0.21484 0.227657,-0.399773 0.501655,-0.49131 0.102866,-0.392585 0.156705,-0.799608 0.153808,-1.211425 0.004,-0.696117 -0.14775,-1.385036 -0.440918,-2.014161 h -0.0015 v -0.0015 c -0.276988,-0.588245 -0.676604,-1.113131 -1.182129,-1.524903 -0.02298,-0.01884 -0.02364,-0.03771 -0.0088,-0.05566 0.015,-0.0182 0.04087,-0.02014 0.06152,-0.0044 h 0.0015 c 0.51059,0.421484 0.920012,0.949518 1.199707,1.552734 h 0.0015 v 0.0015 c 0.29706,0.638263 0.451172,1.337118 0.451172,2.047851 v 0.0029 0.0015 c 0.0038,0.396482 -0.04751,0.786916 -0.14209,1.166016 0.156493,-0.06253 0.329873,-0.102539 0.515625,-0.102539 h 0.256348 c 0.06774,-0.350221 0.10154,-0.707944 0.09814,-1.069336 -2.91e-4,-0.815659 -0.176683,-1.617994 -0.518555,-2.352539 -0.326347,-0.703831 -0.805932,-1.321238 -1.401855,-1.812012 l -0.0015,-0.0015 h -0.0015 C 26.675336,15.777465 26.47128,15.721752 26.274902,15.741211 Z m -4.857422,0.13916 c -0.197142,-0.0098 -0.397736,0.05359 -0.55371,0.194824 v 0.0015 h -0.0015 c -0.538322,0.49415 -0.968795,1.092847 -1.26416,1.760742 v 0.0015 l -0.0015,0.0015 c -0.306752,0.707467 -0.462511,1.466853 -0.462891,2.233887 v 0.0015 0.0015 c -0.0033,0.360913 0.03049,0.718108 0.09814,1.067872 h 0.748535 c -0.07828,-0.347092 -0.122139,-0.702633 -0.118653,-1.063477 v -0.0015 -0.0029 c 0,-0.668831 0.136372,-1.329692 0.402832,-1.945312 l 0.0015,-0.0015 v -0.0015 c 0.254459,-0.574312 0.623518,-1.088904 1.086914,-1.514648 0.01813,-0.01642 0.04006,-0.01587 0.05859,0.0044 0.01787,0.0195 0.01726,0.03877 -0.0015,0.05566 -0.460226,0.41557 -0.821545,0.924649 -1.067871,1.486817 -0.267601,0.604975 -0.398065,1.260124 -0.398437,1.913086 -0.0028,0.363532 0.04162,0.721274 0.121582,1.070801 h 0.74707 c -0.09442,-0.344379 -0.143398,-0.702176 -0.140625,-1.064942 v -0.0015 -0.0015 c 0,-0.557322 0.111778,-1.114504 0.336914,-1.623046 h 0.0015 v -0.0015 c 0.206571,-0.47144 0.506954,-0.897119 0.887695,-1.240723 h 0.0015 c 0.311432,-0.281988 0.333713,-0.773917 0.0498,-1.083984 -0.14162,-0.154672 -0.334596,-0.237771 -0.531739,-0.247559 z m -3.971191,4.640625 c -0.340851,0.01251 -0.656461,0.202409 -0.821777,0.509766 -0.03889,0.07037 -0.08353,0.136646 -0.130371,0.200683 0.296311,-0.05578 0.596926,-0.08643 0.890625,-0.08643 h 0.997558 c -0.128948,-0.331608 -0.427017,-0.569411 -0.782226,-0.6167 l -0.0029,-0.0015 h -0.0029 c -0.04934,-0.0057 -0.09926,-0.0076 -0.147949,-0.0059 z m 13.006348,0 c -0.04853,-0.0019 -0.0972,2.13e-4 -0.146485,0.0059 h -0.0029 l -0.0029,0.0015 c -0.355468,0.04655 -0.658228,0.283948 -0.785156,0.6167 h 1.105957 c 0.253086,0 0.511354,0.02411 0.767578,0.06592 -0.04109,-0.05759 -0.08062,-0.116076 -0.114258,-0.178711 l -0.0015,-0.0029 -0.0015,-0.0015 c -0.167185,-0.300594 -0.479132,-0.493804 -0.818836,-0.506907 z"
     sodipodi:nodetypes="csccccccccccccccccccssccscccccccccccccccccccsscccsscccscccccccccccccssssssscssccscccssssssscccccccccccccccccccccccscssssssssssssssssssssscscscscsscscscscssssssssssssccccccccsccccccccccccscccsccccccssccccccsccccccsccccccccccccscccccsssccsccccssccccsccccscccc" />
  <path
     style="color:#000000;isolation:isolate;fill:url(#linearGradient2795);fill-rule:evenodd;stroke-width:0.728297;-inkscape-stroke:none"
     d="m 23.155231,15.78508 c -0.266138,-0.006 -0.529953,0.08485 -0.73455,0.264374 l -0.0015,0.0029 -0.0029,0.0015 c -0.210994,0.192082 -0.337155,0.468232 -0.331687,0.763272 9.55e-4,0.141515 0.03016,0.271632 0.07402,0.386611 l 0.919611,2.44901 c 5.55e-4,0.0018 0.0023,0.0026 0.0029,0.0043 0.04525,0.139297 0.11806,0.258676 0.20072,0.358184 0.162216,0.197176 0.404923,0.315542 0.66622,0.315542 0.261297,0 0.504004,-0.118366 0.666219,-0.315542 0.08266,-0.09951 0.155465,-0.218888 0.200721,-0.358184 l 0.0029,-0.0043 0.919611,-2.44901 v -0.0015 c 0.04363,-0.114672 0.07311,-0.244177 0.07403,-0.38519 0.0054,-0.29495 -0.120669,-0.571169 -0.331687,-0.763272 l -0.0029,-0.0015 -0.0015,-0.0029 c -0.204624,-0.179544 -0.468508,-0.270356 -0.73455,-0.264373 z m -0.01565,0.727738 h 0.0029 0.0043 1.607184 0.0029 c 0.08672,-0.002 0.167567,0.02993 0.229191,0.08102 h -2.075531 c 0.06165,-0.0511 0.142565,-0.08298 0.229192,-0.08102 z m -0.296098,0.221733 1.074777,2.854098 c -0.02694,-0.0075 -0.05567,-0.01496 -0.0726,-0.03553 h -0.0015 v -0.0015 c -0.03688,-0.04419 -0.06,-0.08432 -0.07118,-0.119394 l -0.0029,-0.0099 -0.929575,-2.477437 c -0.0202,-0.05295 -0.02847,-0.09988 -0.02847,-0.133608 v -0.0043 -0.0029 c -5.44e-4,-0.02474 0.02439,-0.04499 0.03132,-0.06964 z m 2.209344,0 c 0.0069,0.02467 0.03186,0.04487 0.03132,0.06964 v 0.0043 0.0029 c 0,0.03373 -0.0083,0.08066 -0.02847,0.133608 l -0.929576,2.477438 -0.0029,0.0099 c -0.01118,0.03508 -0.0343,0.07521 -0.07118,0.119394 l -0.0015,0.0015 c -0.01693,0.02058 -0.04566,0.028 -0.0726,0.03553 l 0.311756,-0.827234 z m -1.210014,0.587023 h 0.210684 l -0.105345,0.278587 z"
     id="path14" />
</svg>
