<?xml version="1.0" encoding="UTF-8" standalone="no"?>
<!-- Generator: Gravit.io -->

<svg
   style="isolation:isolate"
   viewBox="0 0 48 48"
   width="48pt"
   height="48pt"
   version="1.1"
   id="svg9"
   sodipodi:docname="ferdium.svg"
   inkscape:version="1.1.2 (0a00cf5339, 2022-02-04)"
   xmlns:inkscape="http://www.inkscape.org/namespaces/inkscape"
   xmlns:sodipodi="http://sodipodi.sourceforge.net/DTD/sodipodi-0.dtd"
   xmlns:xlink="http://www.w3.org/1999/xlink"
   xmlns="http://www.w3.org/2000/svg"
   xmlns:svg="http://www.w3.org/2000/svg">
  <defs
     id="defs13">
    <linearGradient
       inkscape:collect="always"
       xlink:href="#_lgradient_2"
       id="linearGradient872"
       x1="-12.025727"
       y1="6.1170783"
       x2="-0.085100174"
       y2="6.1170783"
       gradientUnits="userSpaceOnUse"
       gradientTransform="matrix(3.8358211,0,0,3.8371386,-0.00544341,-0.00268054)" />
    <linearGradient
       id="_lgradient_1"
       x1="0.18336116"
       y1="0.24917752"
       x2="0.9027437"
       y2="0.90347725"
       gradientTransform="matrix(24.617266,0,0,24.816118,10.841288,10.089605)"
       gradientUnits="userSpaceOnUse">
      <stop
         offset="2.608695652173913%"
         stop-opacity="1"
         style="stop-color:rgb(179,255,171)"
         id="stop2-3" />
      <stop
         offset="98.69565217391305%"
         stop-opacity="1"
         style="stop-color:rgb(18,255,247)"
         id="stop4-6" />
    </linearGradient>
    <linearGradient
       inkscape:collect="always"
       xlink:href="#_lgradient_2"
       id="linearGradient15"
       x1="-9.6850061"
       y1="45.161198"
       x2="11.98815"
       y2="21.735205"
       gradientUnits="userSpaceOnUse"
       gradientTransform="matrix(1.1147442,0,0,1.1150348,-0.01237238,-3.3277956)" />
    <linearGradient
       inkscape:collect="always"
       xlink:href="#_lgradient_2"
       id="linearGradient1067"
       x1="7.601027"
       y1="24"
       x2="40.398888"
       y2="24"
       gradientUnits="userSpaceOnUse" />
  </defs>
  <sodipodi:namedview
     id="namedview11"
     pagecolor="#ffffff"
     bordercolor="#666666"
     borderopacity="1.0"
     inkscape:pageshadow="2"
     inkscape:pageopacity="0.0"
     inkscape:pagecheckerboard="0"
     inkscape:document-units="pt"
     showgrid="false"
     inkscape:zoom="5.109375"
     inkscape:cx="32"
     inkscape:cy="32.097859"
     inkscape:window-width="1600"
     inkscape:window-height="836"
     inkscape:window-x="0"
     inkscape:window-y="0"
     inkscape:window-maximized="1"
     inkscape:current-layer="svg9" />
  <linearGradient
     id="_lgradient_2"
     x1="0.031182562838213412"
     y1="0.10866627890091946"
     x2="0.9583795358695032"
     y2="0.9751947012019755"
     gradientTransform="matrix(48,0,0,46.985,0.495,0.559)"
     gradientUnits="userSpaceOnUse">
    <stop
       offset="0%"
       stop-opacity="1"
       style="stop-color:rgb(199,81,251)"
       id="stop2" />
    <stop
       offset="97.5%"
       stop-opacity="1"
       style="stop-color:rgb(109,68,222)"
       id="stop4" />
  </linearGradient>
  <rect
     x="-46.783188"
     y="1.2253767"
     height="45.80014"
     rx="6.1837621"
     shape-rendering="crispEdges"
     id="rect5-6-7-3"
     ry="6.8055277"
     transform="matrix(0.00524063,-0.99998627,0.99998801,0.00489691,0,0)"
     style="isolation:isolate;fill:#dd00ff;fill-opacity:0.13470298;stroke:url(#linearGradient872);stroke-width:2.0301;stroke-miterlimit:4;stroke-dasharray:none;stroke-opacity:1"
     width="45.801998" />
  <rect
     x="-15.686804"
     y="17.260084"
     height="33.345856"
     rx="6.7920032"
     shape-rendering="crispEdges"
     id="rect5-6-6-6-6"
     style="isolation:isolate;fill:#dd00ff;fill-opacity:0.13470298;stroke:url(#linearGradient15);stroke-width:1.67233;stroke-miterlimit:4;stroke-dasharray:none;stroke-opacity:1"
     ry="7.4743071"
     transform="matrix(0.72446484,-0.68931175,0.68622417,0.72739012,0,0)"
     width="33.338203" />
  <path
     style="color:#000000;fill:url(#linearGradient1067);fill-rule:evenodd;-inkscape-stroke:none"
     d="m 24,18.199219 c -0.305208,0 -0.54732,0.10216 -0.847656,0.236328 -0.300336,0.134168 -0.638024,0.316571 -1.007813,0.53125 -0.739577,0.429357 -1.60459,0.991364 -2.458984,1.550781 -0.854395,0.559418 -1.698774,1.115053 -2.378906,1.525391 -0.340067,0.205169 -0.640282,0.373884 -0.869141,0.484375 -0.228859,0.11049 -0.422383,0.142578 -0.355469,0.142578 -0.03071,0 -0.247669,-0.02999 -0.517578,-0.0957 -0.269908,-0.06571 -0.612469,-0.162225 -1,-0.277344 C 13.789391,22.066637 12.834855,21.762778 11.886719,21.472656 10.938583,21.182535 9.9986953,20.906851 9.2265625,20.732422 8.8404961,20.645207 8.4981882,20.583111 8.2011719,20.558594 7.9041555,20.534077 7.6568107,20.487833 7.3417969,20.699219 l -0.1171875,0.07813 -0.058594,0.126953 c -0.10727,0.231332 -0.068605,0.422203 -0.025391,0.583984 0.043215,0.161781 0.1099539,0.314127 0.1972656,0.478516 0.1746235,0.328779 0.4302941,0.702804 0.75,1.121094 0.6394118,0.836579 1.5352352,1.840454 2.5058594,2.818359 0.970624,0.977905 2.012887,1.926489 2.949219,2.642578 0.468166,0.358045 0.909845,0.657546 1.314453,0.876953 0.404608,0.219407 0.761937,0.375 1.158203,0.375 0.637112,0 1.34031,-0.276656 2.150391,-0.65039 0.81008,-0.373735 1.698871,-0.863131 2.546875,-1.34961 0.848003,-0.486479 1.653658,-0.970238 2.279296,-1.328125 0.31282,-0.178943 0.582564,-0.327012 0.779297,-0.423828 0.09837,-0.04841 0.177771,-0.08453 0.228516,-0.103516 0.05074,0.01899 0.130149,0.05511 0.228516,0.103516 0.196733,0.09682 0.466477,0.244885 0.779296,0.423828 0.625639,0.357887 1.431294,0.841646 2.279297,1.328125 0.848004,0.486479 1.736795,0.975875 2.546875,1.34961 0.810081,0.373734 1.513279,0.65039 2.150391,0.65039 0.396248,0 0.753695,-0.155564 1.158203,-0.375 0.404508,-0.219436 0.844404,-0.518872 1.3125,-0.876953 0.936193,-0.716162 1.978607,-1.664622 2.949219,-2.642578 0.970612,-0.977956 1.866347,-1.983819 2.505859,-2.820313 0.319756,-0.418246 0.575298,-0.790493 0.75,-1.11914 0.08735,-0.164324 0.155928,-0.316841 0.199219,-0.478516 0.04329,-0.161675 0.08183,-0.352474 -0.02539,-0.583984 l -0.05859,-0.125 -0.113282,-0.07813 c -0.314224,-0.21415 -0.563839,-0.170407 -0.861328,-0.146485 -0.297488,0.02392 -0.639171,0.08677 -1.02539,0.173829 -0.77244,0.17411 -1.7139,0.449588 -2.66211,0.740234 -0.94821,0.290646 -1.902663,0.597266 -2.677734,0.828125 -0.387536,0.11543 -0.730119,0.211445 -1,0.277344 -0.269882,0.0659 -0.48718,0.0957 -0.517578,0.0957 0.06691,0 -0.12661,-0.03209 -0.355469,-0.142578 C 31.333641,22.416853 31.033426,22.248138 30.693359,22.042969 30.013227,21.632631 29.168848,21.076996 28.314453,20.517578 27.460059,19.958161 26.595046,19.396154 25.855469,18.966797 25.48568,18.752118 25.147992,18.569715 24.847656,18.435547 24.54732,18.301379 24.305208,18.199219 24,18.199219 Z m 0,1 c -0.0052,0 0.194532,0.03815 0.441406,0.148437 0.246874,0.110285 0.560055,0.278039 0.91211,0.482422 0.704109,0.408767 1.561708,0.965356 2.414062,1.523438 0.852354,0.558081 1.701103,1.119088 2.410156,1.546875 0.354527,0.213893 0.671742,0.393381 0.949219,0.527343 0.277477,0.133963 0.478602,0.242188 0.791016,0.242188 0.233601,0 0.455394,-0.05016 0.753906,-0.123047 0.298512,-0.07289 0.653161,-0.173164 1.048828,-0.291016 0.791334,-0.235703 1.745634,-0.541975 2.685547,-0.830078 0.939913,-0.288103 1.867175,-0.558251 2.587891,-0.720703 0.295282,-0.06656 0.522925,-0.100302 0.726562,-0.125 -0.134679,0.239369 -0.329254,0.539699 -0.603516,0.898438 -0.599861,0.784629 -1.475989,1.769613 -2.421875,2.722656 -0.945885,0.953042 -1.965976,1.878273 -2.847656,2.552734 -0.44084,0.337231 -0.847321,0.611609 -1.18164,0.792969 -0.33432,0.18136 -0.60614,0.253906 -0.681641,0.253906 -0.289388,0 -0.969363,-0.207454 -1.730469,-0.558594 -0.761106,-0.351139 -1.632005,-0.828573 -2.46875,-1.308593 -0.836744,-0.48002 -1.639702,-0.963091 -2.28125,-1.330078 -0.320774,-0.183494 -0.601101,-0.336567 -0.833984,-0.451172 -0.116442,-0.0573 -0.219691,-0.104933 -0.320313,-0.142578 C 24.248988,24.97212 24.166251,24.933594 24,24.933594 c -0.166251,0 -0.248988,0.03853 -0.349609,0.07617 -0.100622,0.03765 -0.203871,0.08527 -0.320313,0.142578 -0.232883,0.114605 -0.51321,0.267678 -0.833984,0.451172 -0.641548,0.366987 -1.444506,0.850058 -2.28125,1.330078 -0.836745,0.48002 -1.707644,0.957454 -2.46875,1.308593 -0.761106,0.35114 -1.441081,0.558594 -1.730469,0.558594 -0.07573,0 -0.347234,-0.07257 -0.681641,-0.253906 -0.334406,-0.181339 -0.742698,-0.45578 -1.183593,-0.792969 -0.881792,-0.674378 -1.89983,-1.599766 -2.845703,-2.552734 -0.945874,-0.952969 -1.8221635,-1.936065 -2.4218755,-2.720703 -0.2741931,-0.358743 -0.468934,-0.659062 -0.6035156,-0.898438 0.2039482,0.02508 0.4311541,0.05827 0.7265625,0.125 0.7210219,0.162883 1.6498566,0.433075 2.5898436,0.720703 0.939987,0.287628 1.892251,0.593051 2.683594,0.828125 0.395671,0.117538 0.750343,0.218346 1.048828,0.291016 0.298485,0.07267 0.52062,0.123047 0.753906,0.123047 0.312414,0 0.513539,-0.108225 0.791016,-0.242188 0.277477,-0.133962 0.594692,-0.31345 0.949219,-0.527343 0.709053,-0.427787 1.557802,-0.988794 2.410156,-1.546875 0.852354,-0.558082 1.709953,-1.114671 2.414062,-1.523438 0.352055,-0.204383 0.665236,-0.372137 0.91211,-0.482422 C 23.805468,19.237371 24.005208,19.199219 24,19.199219 Z"
     id="path7" />
</svg>
