<?xml version="1.0" encoding="UTF-8" standalone="no"?>
<!-- Generator: Gravit.io -->

<svg
   style="isolation:isolate"
   viewBox="0 0 48 48"
   width="48pt"
   height="48pt"
   version="1.1"
   id="svg9"
   sodipodi:docname="fiddler.svg"
   inkscape:version="1.1.2 (0a00cf5339, 2022-02-04)"
   xmlns:inkscape="http://www.inkscape.org/namespaces/inkscape"
   xmlns:sodipodi="http://sodipodi.sourceforge.net/DTD/sodipodi-0.dtd"
   xmlns:xlink="http://www.w3.org/1999/xlink"
   xmlns="http://www.w3.org/2000/svg"
   xmlns:svg="http://www.w3.org/2000/svg">
  <defs
     id="defs13">
    <linearGradient
       inkscape:collect="always"
       xlink:href="#_lgradient_28"
       id="linearGradient872"
       x1="-12.025727"
       y1="6.1170783"
       x2="-0.085100174"
       y2="6.1170783"
       gradientUnits="userSpaceOnUse"
       gradientTransform="matrix(3.8358211,0,0,3.8371386,-0.00544341,-0.00268054)" />
    <linearGradient
       id="_lgradient_1"
       x1="0.18336116"
       y1="0.24917752"
       x2="0.9027437"
       y2="0.90347725"
       gradientTransform="matrix(24.617266,0,0,24.816118,10.841288,10.089605)"
       gradientUnits="userSpaceOnUse">
      <stop
         offset="2.608695652173913%"
         stop-opacity="1"
         style="stop-color:rgb(179,255,171)"
         id="stop2-3" />
      <stop
         offset="98.69565217391305%"
         stop-opacity="1"
         style="stop-color:rgb(18,255,247)"
         id="stop4-6" />
    </linearGradient>
    <linearGradient
       inkscape:collect="always"
       xlink:href="#_lgradient_28"
       id="linearGradient15"
       x1="-9.6850061"
       y1="45.161198"
       x2="11.98815"
       y2="21.735205"
       gradientUnits="userSpaceOnUse"
       gradientTransform="matrix(1.1147442,0,0,1.1150348,-0.00864737,-3.3317282)" />
    <linearGradient
       inkscape:collect="always"
       xlink:href="#_lgradient_28"
       id="linearGradient860"
       x1="13.117286"
       y1="24"
       x2="34.882713"
       y2="24"
       gradientUnits="userSpaceOnUse" />
  </defs>
  <sodipodi:namedview
     id="namedview11"
     pagecolor="#ffffff"
     bordercolor="#666666"
     borderopacity="1.0"
     inkscape:pageshadow="2"
     inkscape:pageopacity="0.0"
     inkscape:pagecheckerboard="0"
     inkscape:document-units="pt"
     showgrid="false"
     inkscape:zoom="7.2257474"
     inkscape:cx="32.038208"
     inkscape:cy="31.969011"
     inkscape:window-width="1600"
     inkscape:window-height="836"
     inkscape:window-x="0"
     inkscape:window-y="0"
     inkscape:window-maximized="1"
     inkscape:current-layer="svg9" />
  <linearGradient
     id="_lgradient_28"
     x1="0.04521276595744661"
     y1="0.9734042553191491"
     x2="1.3719267139479903"
     y2="-0.21193853427896014"
     gradientTransform="matrix(21.765428,0,0,21.765428,13.117286,13.117286)"
     gradientUnits="userSpaceOnUse">
    <stop
       offset="0%"
       stop-opacity="1"
       style="stop-color:rgb(67,233,123)"
       id="stop2" />
    <stop
       offset="97.82608695652173%"
       stop-opacity="1"
       style="stop-color:rgb(56,249,215)"
       id="stop4" />
  </linearGradient>
  <rect
     x="-46.783188"
     y="1.2253767"
     height="45.80014"
     rx="6.1837621"
     shape-rendering="crispEdges"
     id="rect5-6-7-3"
     ry="6.8055277"
     transform="matrix(0.00524063,-0.99998627,0.99998801,0.00489691,0,0)"
     style="isolation:isolate;fill:#00ffc3;fill-opacity:0.134703;stroke:url(#linearGradient872);stroke-width:2.0301;stroke-miterlimit:4;stroke-dasharray:none;stroke-opacity:1"
     width="45.801998" />
  <rect
     x="-15.683079"
     y="17.256151"
     height="33.345856"
     rx="6.7920032"
     shape-rendering="crispEdges"
     id="rect5-6-6-6-6"
     style="isolation:isolate;fill:#00ffc3;fill-opacity:0.134703;stroke:url(#linearGradient15);stroke-width:1.67233;stroke-miterlimit:4;stroke-dasharray:none;stroke-opacity:1"
     ry="7.4743071"
     transform="matrix(0.72446484,-0.68931175,0.68622417,0.72739012,0,0)"
     width="33.338203" />
  <path
     style="color:#000000;fill:url(#linearGradient860);fill-rule:evenodd;-inkscape-stroke:none"
     d="m 25.625,12.617188 c -0.653972,0 -1.193359,0.541339 -1.193359,1.195312 0,0.653973 0.539386,1.193359 1.193359,1.193359 h 7.369141 v 11.521485 l -7.048829,6.269531 c -0.492806,0.431211 -0.541563,1.199264 -0.105468,1.6875 0.435141,0.487165 1.197603,0.534385 1.6875,0.101562 l 7.341797,-6.529296 c 0.342386,-0.304158 0.513671,-0.686609 0.513671,-1.144532 V 13.580078 c 0,-0.526158 -0.436732,-0.962891 -0.96289,-0.96289 z m -4.287109,0.501953 c -0.305799,-0.01866 -0.620286,0.07851 -0.865235,0.294922 l -6.996093,6.220703 c -0.532837,0.474062 -0.859376,1.202465 -0.859375,1.916015 v 12.40625 c 0,0.781787 0.643994,1.425781 1.425781,1.425781 h 8.794922 c 0.653972,0 1.195312,-0.54134 1.195312,-1.195312 0,-0.653972 -0.541339,-1.193359 -1.195312,-1.193359 H 15.005859 V 21.472656 l 7.048828,-6.269531 c 0.492807,-0.431211 0.541564,-1.199264 0.105469,-1.6875 -0.21757,-0.243582 -0.516467,-0.377821 -0.822265,-0.396484 z M 25.625,13.617188 h 8.757812 v 13.294921 c 0,0.05333 -0.138531,0.363612 -0.177734,0.398438 l -7.339844,6.52539 c -0.08249,0.07288 -0.203182,0.06764 -0.279297,-0.01758 -0.07516,-0.08415 -0.06755,-0.193089 0.01758,-0.267578 l 0.002,-0.002 7.388672,-6.574219 V 14.005859 H 25.625 c -0.11291,0 -0.193359,-0.08045 -0.193359,-0.193359 0,-0.11291 0.08045,-0.195312 0.193359,-0.195312 z m -4.490234,0.546875 c 0.08249,-0.07288 0.203182,-0.06764 0.279296,0.01758 0.07516,0.08415 0.06755,0.193089 -0.01758,0.267578 l -0.002,0.002 -7.388672,6.574219 v 12.96875 h 8.832032 c 0.11291,0 0.195312,0.08045 0.195312,0.193359 0,0.112911 -0.0824,0.195312 -0.195312,0.195312 h -8.794922 c -0.240724,0 -0.425782,-0.185057 -0.425781,-0.425781 v -12.40625 c 0,-0.308961 0.294121,-0.962209 0.52539,-1.167969 z m -0.203125,4.855468 v 9.960938 h 2.86914 V 25.4375 h 3.041016 v -2.550781 h -3.041016 v -1.310547 h 3.267578 v -2.556641 z m 1,1 h 4.136718 v 0.556641 h -3.267578 v 3.310547 h 3.041016 V 24.4375 h -3.041016 v 0.5 3.042969 h -0.86914 z"
     id="path7" />
</svg>
