<?xml version="1.0" encoding="UTF-8" standalone="no"?>
<svg
   width="48"
   height="48"
   viewBox="0 0 48 48"
   fill="none"
   version="1.1"
   id="svg46"
   sodipodi:docname="figma.svg"
   inkscape:version="1.1.2 (0a00cf5339, 2022-02-04)"
   xmlns:inkscape="http://www.inkscape.org/namespaces/inkscape"
   xmlns:sodipodi="http://sodipodi.sourceforge.net/DTD/sodipodi-0.dtd"
   xmlns:xlink="http://www.w3.org/1999/xlink"
   xmlns="http://www.w3.org/2000/svg"
   xmlns:svg="http://www.w3.org/2000/svg">
  <sodipodi:namedview
     id="namedview48"
     pagecolor="#ffffff"
     bordercolor="#666666"
     borderopacity="1.0"
     inkscape:pageshadow="2"
     inkscape:pageopacity="0.0"
     inkscape:pagecheckerboard="0"
     showgrid="false"
     width="48px"
     inkscape:zoom="8.4387097"
     inkscape:cx="23.463303"
     inkscape:cy="22.219037"
     inkscape:window-width="1153"
     inkscape:window-height="585"
     inkscape:window-x="170"
     inkscape:window-y="86"
     inkscape:window-maximized="0"
     inkscape:current-layer="svg46" />
  <rect
     x="-46.685463"
     y="1.3065031"
     height="45.638069"
     rx="6.1573763"
     shape-rendering="crispEdges"
     id="rect5-6-7-3"
     ry="6.7814455"
     transform="matrix(0.00524447,-0.99998625,0.99998803,0.00489333,0,0)"
     style="isolation:isolate;fill:#a3a5b9;fill-opacity:0.13299522;stroke:url(#linearGradient872);stroke-width:2.02218;stroke-miterlimit:4;stroke-dasharray:none;stroke-opacity:1"
     width="45.606564" />
  <rect
     x="-15.63435"
     y="17.325026"
     height="33.215008"
     rx="6.7656188"
     shape-rendering="crispEdges"
     id="rect5-6-6-6-6"
     style="isolation:isolate;fill:#a3a5b9;fill-opacity:0.13299522;stroke:url(#linearGradient15);stroke-width:1.6658;stroke-miterlimit:4;stroke-dasharray:none;stroke-opacity:1"
     ry="7.4449782"
     transform="matrix(0.7247165,-0.68904717,0.68648962,0.7271396,0,0)"
     width="33.208694" />
  <path
     style="color:#000000;fill:url(#linearGradient2944);-inkscape-stroke:none"
     d="m 28.773437,19.347656 c -2.639107,0 -4.789062,2.151787 -4.789062,4.791016 0,2.639109 2.149955,4.789062 4.789062,4.789062 2.639109,0 4.789063,-2.149934 4.789063,-4.789062 0,-2.639248 -2.149954,-4.791016 -4.789063,-4.791016 z m 0,1 c 2.098677,0 3.789063,1.692207 3.789063,3.791016 0,2.098657 -1.690386,3.789062 -3.789063,3.789062 -2.098675,0 -3.789062,-1.690386 -3.789062,-3.789062 0,-2.098828 1.690387,-3.791016 3.789062,-3.791016 z"
     id="path4" />
  <path
     style="color:#000000;clip-rule:evenodd;fill:url(#linearGradient2974);fill-rule:evenodd;-inkscape-stroke:none"
     d="m 25.396484,9.5898438 c -0.702182,0 -1.318359,0.5472282 -1.318359,1.2578122 v 7.355469 c 0,0.710609 0.616196,1.257812 1.318359,1.257812 h 2.753907 c 2.898622,0 5.314453,-2.191392 5.314453,-4.935546 0,-2.744179 -2.415835,-4.9355472 -5.314453,-4.9355472 z m 0,1.0000002 h 2.753907 c 2.398832,0 4.314453,1.780784 4.314453,3.935547 0,2.154731 -1.915625,3.935546 -4.314453,3.935546 h -2.753907 c -0.202314,0 -0.318359,-0.131652 -0.318359,-0.257812 v -7.355469 c 0,-0.126021 0.116065,-0.257812 0.318359,-0.257812 z m 1.212891,0.59375 c -0.539696,0 -1.025391,0.424182 -1.025391,0.984375 v 4.71289 c 0,0.560196 0.485632,0.986329 1.025391,0.986328 h 1.763672 c 1.946913,0 3.585937,-1.477734 3.585937,-3.341796 0,-1.864062 -1.639024,-3.341797 -3.585937,-3.341797 z m -0.02539,0.984375 c 0,0.0242 -0.01451,0.01563 0.02539,0.01563 h 1.763672 c 1.447123,0 2.585937,1.067111 2.585937,2.341797 0,1.274686 -1.138814,2.341796 -2.585937,2.341796 h -1.763672 c -0.03984,0 -0.02539,-0.01061 -0.02539,0.01367 z"
     id="path6" />
  <path
     style="color:#000000;fill:url(#linearGradient3064);-inkscape-stroke:none"
     d="m 19.226562,28.832031 c -2.639108,0 -4.789062,2.149954 -4.789062,4.789063 0,2.639108 2.149954,4.789062 4.789062,4.789062 2.639108,0 4.789063,-2.149934 4.789063,-4.789062 v -4.789063 z m 0,1 h 3.789063 v 3.789063 c 0,2.098657 -1.690387,3.789062 -3.789063,3.789062 -2.098676,0 -3.789062,-1.690386 -3.789062,-3.789062 0,-2.098677 1.690386,-3.789063 3.789062,-3.789063 z"
     id="path8" />
  <path
     style="color:#000000;clip-rule:evenodd;fill:url(#linearGradient3034);fill-rule:evenodd;-inkscape-stroke:none"
     d="m 19.943359,19.210937 c -2.898605,0 -5.314453,2.191294 -5.314453,4.935547 0,2.744134 2.415831,4.935547 5.314453,4.935547 h 2.753907 c 0.702162,0 1.318359,-0.547203 1.318359,-1.257812 V 20.46875 c 0,-0.710568 -0.616197,-1.257813 -1.318359,-1.257813 z m 0,1 h 2.753907 c 0.202312,0 0.318359,0.131884 0.318359,0.257813 v 7.355469 c 0,0.12616 -0.116047,0.257812 -0.318359,0.257812 h -2.753907 c -2.398828,0 -4.314453,-1.780821 -4.314453,-3.935547 0,-2.154879 1.915608,-3.935547 4.314453,-3.935547 z m -0.222656,0.59375 c -1.947028,0 -3.585937,1.477724 -3.585937,3.341797 0,1.864073 1.638909,3.341797 3.585937,3.341797 h 1.763672 c 0.539758,0 1.025391,-0.426131 1.025391,-0.986328 v -4.712891 c 0,-0.560185 -0.48579,-0.984375 -1.025391,-0.984375 z m 1.789063,0.984375 v 4.712891 c 0,-0.02428 0.01445,-0.01367 -0.02539,-0.01367 h -1.763672 c -1.447283,0 -2.585937,-1.067094 -2.585937,-2.341797 0,-1.274703 1.138654,-2.341797 2.585937,-2.341797 h 1.763672 c 0.03999,0 0.02539,0.0084 0.02539,-0.01563 z"
     id="path10" />
  <path
     style="color:#000000;clip-rule:evenodd;fill:url(#linearGradient3004);fill-rule:evenodd;-inkscape-stroke:none"
     d="m 19.943359,9.5898438 c -2.898618,0 -5.314453,2.1913772 -5.314453,4.9355472 0,2.744144 2.415831,4.935546 5.314453,4.935546 h 2.753907 c 0.702162,0 1.318359,-0.547203 1.318359,-1.257812 v -7.355469 c 0,-0.710584 -0.616177,-1.2578122 -1.318359,-1.2578122 z m 0,1.0000002 h 2.753907 c 0.202292,0 0.318359,0.131791 0.318359,0.257812 v 7.355469 c 0,0.12616 -0.116047,0.257812 -0.318359,0.257812 h -2.753907 c -2.398828,0 -4.314453,-1.780806 -4.314453,-3.935546 0,-2.154772 1.915621,-3.935547 4.314453,-3.935547 z m -0.222656,0.59375 c -1.94703,0 -3.585937,1.477735 -3.585937,3.341797 0,1.864062 1.638907,3.341796 3.585937,3.341796 h 1.763672 c 0.539759,0 1.025391,-0.42613 1.025391,-0.986328 v -4.71289 c 0,-0.560194 -0.485695,-0.984375 -1.025391,-0.984375 z m 1.789063,0.984375 v 4.71289 c 0,-0.02428 0.01445,-0.01367 -0.02539,-0.01367 h -1.763672 c -1.44728,0 -2.585937,-1.06711 -2.585937,-2.341796 0,-1.274686 1.138657,-2.341797 2.585937,-2.341797 h 1.763672 c 0.0399,0 0.02539,0.0086 0.02539,-0.01563 z"
     id="path12" />
  <defs
     id="defs44">
    <linearGradient
       id="paint0_linear"
       x1="15.5"
       y1="155"
       x2="294.5"
       y2="155"
       gradientUnits="userSpaceOnUse">
      <stop
         stop-color="#323448"
         id="stop14" />
      <stop
         offset="1"
         stop-color="#C6C8DC"
         id="stop16" />
    </linearGradient>
    <linearGradient
       id="paint1_linear"
       x1="158.205"
       y1="124.586"
       x2="221.05"
       y2="187.431"
       gradientUnits="userSpaceOnUse"
       gradientTransform="matrix(0.13650424,0,0,0.13650424,2.8885956,2.8418564)">
      <stop
         stop-color="#1ABCFE"
         id="stop19" />
      <stop
         offset="1"
         stop-color="#8FDFFF"
         id="stop21" />
    </linearGradient>
    <linearGradient
       id="paint2_linear"
       x1="158.89"
       y1="56.2686"
       x2="220.334"
       y2="118.079"
       gradientUnits="userSpaceOnUse"
       gradientTransform="matrix(0.13650424,0,0,0.13650424,2.8885956,2.8418564)">
      <stop
         stop-color="#FF7262"
         id="stop24" />
      <stop
         offset="1"
         stop-color="#FCB5AD"
         id="stop26" />
    </linearGradient>
    <linearGradient
       id="paint3_linear"
       x1="149.48399"
       y1="194.05901"
       x2="88.264999"
       y2="256.90302"
       gradientUnits="userSpaceOnUse"
       gradientTransform="matrix(0.13650424,0,0,0.13650424,2.8885956,2.8418564)">
      <stop
         stop-color="#0ACF83"
         id="stop29" />
      <stop
         offset="1"
         stop-color="#39E8A4"
         id="stop31" />
    </linearGradient>
    <linearGradient
       id="paint4_linear"
       x1="151.11"
       y1="126.115"
       x2="89.666496"
       y2="188.56"
       gradientUnits="userSpaceOnUse"
       gradientTransform="matrix(0.13650424,0,0,0.13650424,2.8885956,2.8418564)">
      <stop
         stop-color="#A259FF"
         id="stop34" />
      <stop
         offset="1"
         stop-color="#C39AF7"
         id="stop36" />
    </linearGradient>
    <linearGradient
       id="paint5_linear"
       x1="151.11"
       y1="53.096802"
       x2="89.666496"
       y2="118.079"
       gradientUnits="userSpaceOnUse"
       gradientTransform="matrix(0.13650424,0,0,0.13650424,2.8885956,2.8418564)">
      <stop
         stop-color="#F24E1E"
         id="stop39" />
      <stop
         offset="1"
         stop-color="#F58969"
         id="stop41" />
    </linearGradient>
    <linearGradient
       inkscape:collect="always"
       xlink:href="#paint0_linear"
       id="linearGradient872"
       x1="-12.025727"
       y1="6.1170783"
       x2="-0.085100174"
       y2="6.1170783"
       gradientUnits="userSpaceOnUse"
       gradientTransform="matrix(3.8194538,0,0,3.8235603,-0.10731709,0.08279151)" />
    <linearGradient
       id="_lgradient_1"
       x1="0.18336116"
       y1="0.24917752"
       x2="0.9027437"
       y2="0.90347725"
       gradientTransform="matrix(24.617266,0,0,24.816118,10.841288,10.089605)"
       gradientUnits="userSpaceOnUse">
      <stop
         offset="2.608695652173913%"
         stop-opacity="1"
         style="stop-color:rgb(179,255,171)"
         id="stop2" />
      <stop
         offset="98.69565217391305%"
         stop-opacity="1"
         style="stop-color:rgb(18,255,247)"
         id="stop4" />
    </linearGradient>
    <linearGradient
       inkscape:collect="always"
       xlink:href="#paint0_linear"
       id="linearGradient15"
       x1="-9.6850061"
       y1="45.161198"
       x2="11.98815"
       y2="21.735205"
       gradientUnits="userSpaceOnUse"
       gradientTransform="matrix(1.1104138,0,0,1.1106595,-0.02080777,-3.1820695)" />
    <linearGradient
       inkscape:collect="always"
       xlink:href="#paint1_linear"
       id="linearGradient2944"
       x1="24.484249"
       y1="24.137678"
       x2="33.062859"
       y2="24.137678"
       gradientUnits="userSpaceOnUse" />
    <linearGradient
       inkscape:collect="always"
       xlink:href="#paint2_linear"
       id="linearGradient2974"
       x1="24.577753"
       y1="14.524968"
       x2="32.965122"
       y2="14.524968"
       gradientUnits="userSpaceOnUse" />
    <linearGradient
       inkscape:collect="always"
       xlink:href="#paint5_linear"
       id="linearGradient3004"
       x1="15.128453"
       y1="14.524968"
       x2="23.515751"
       y2="14.524968"
       gradientUnits="userSpaceOnUse" />
    <linearGradient
       inkscape:collect="always"
       xlink:href="#paint4_linear"
       id="linearGradient3034"
       x1="15.128453"
       y1="24.145935"
       x2="23.515751"
       y2="24.145935"
       gradientUnits="userSpaceOnUse" />
    <linearGradient
       inkscape:collect="always"
       xlink:href="#paint3_linear"
       id="linearGradient3064"
       x1="14.937142"
       y1="33.620968"
       x2="23.515751"
       y2="33.620968"
       gradientUnits="userSpaceOnUse" />
  </defs>
</svg>
