<?xml version="1.0" encoding="UTF-8" standalone="no"?>
<!-- Generator: Gravit.io -->

<svg
   style="isolation:isolate"
   viewBox="0 0 48 48"
   width="48pt"
   height="48pt"
   version="1.1"
   id="svg9"
   sodipodi:docname="filen.svg"
   inkscape:version="1.1.2 (0a00cf5339, 2022-02-04)"
   xmlns:inkscape="http://www.inkscape.org/namespaces/inkscape"
   xmlns:sodipodi="http://sodipodi.sourceforge.net/DTD/sodipodi-0.dtd"
   xmlns:xlink="http://www.w3.org/1999/xlink"
   xmlns="http://www.w3.org/2000/svg"
   xmlns:svg="http://www.w3.org/2000/svg">
  <defs
     id="defs13">
    <linearGradient
       inkscape:collect="always"
       xlink:href="#_lgradient_4"
       id="linearGradient872"
       x1="-12.025727"
       y1="6.1170783"
       x2="-0.085100174"
       y2="6.1170783"
       gradientUnits="userSpaceOnUse"
       gradientTransform="matrix(3.8358211,0,0,3.8371386,-0.00544341,-0.00268054)" />
    <linearGradient
       id="_lgradient_1"
       x1="0.18336116"
       y1="0.24917752"
       x2="0.9027437"
       y2="0.90347725"
       gradientTransform="matrix(24.617266,0,0,24.816118,10.841288,10.089605)"
       gradientUnits="userSpaceOnUse">
      <stop
         offset="2.608695652173913%"
         stop-opacity="1"
         style="stop-color:rgb(179,255,171)"
         id="stop2-3" />
      <stop
         offset="98.69565217391305%"
         stop-opacity="1"
         style="stop-color:rgb(18,255,247)"
         id="stop4-6" />
    </linearGradient>
    <linearGradient
       inkscape:collect="always"
       xlink:href="#_lgradient_4"
       id="linearGradient15"
       x1="-9.6850061"
       y1="45.161198"
       x2="11.98815"
       y2="21.735205"
       gradientUnits="userSpaceOnUse"
       gradientTransform="matrix(1.1147442,0,0,1.1150348,-0.01237238,-3.3277956)" />
    <linearGradient
       inkscape:collect="always"
       xlink:href="#_lgradient_4"
       id="linearGradient1031"
       x1="9.3209667"
       y1="24"
       x2="38.679031"
       y2="24"
       gradientUnits="userSpaceOnUse" />
  </defs>
  <sodipodi:namedview
     id="namedview11"
     pagecolor="#ffffff"
     bordercolor="#666666"
     borderopacity="1.0"
     inkscape:pageshadow="2"
     inkscape:pageopacity="0.0"
     inkscape:pagecheckerboard="0"
     inkscape:document-units="pt"
     showgrid="false"
     inkscape:zoom="7.2257474"
     inkscape:cx="32.038208"
     inkscape:cy="31.969011"
     inkscape:window-width="1600"
     inkscape:window-height="836"
     inkscape:window-x="0"
     inkscape:window-y="0"
     inkscape:window-maximized="1"
     inkscape:current-layer="svg9" />
  <linearGradient
     id="_lgradient_4"
     x1="0.5757686770476378"
     y1="0.38670359678755284"
     x2="0.12794859489947474"
     y2="0.7917820853291071"
     gradientTransform="matrix(29.358066,0,0,29.358066,9.3209668,9.3209668)"
     gradientUnits="userSpaceOnUse">
    <stop
       offset="0%"
       stop-opacity="1"
       style="stop-color:rgb(211,0,220)"
       id="stop2" />
    <stop
       offset="100%"
       stop-opacity="1"
       style="stop-color:rgb(135,0,255)"
       id="stop4" />
  </linearGradient>
  <rect
     x="-46.783188"
     y="1.2253767"
     height="45.80014"
     rx="6.1837621"
     shape-rendering="crispEdges"
     id="rect5-6-7-3"
     ry="6.8055277"
     transform="matrix(0.00524063,-0.99998627,0.99998801,0.00489691,0,0)"
     style="isolation:isolate;fill:#d800ff;fill-opacity:0.13470298;stroke:url(#linearGradient872);stroke-width:2.0301;stroke-miterlimit:4;stroke-dasharray:none;stroke-opacity:1"
     width="45.801998" />
  <rect
     x="-15.686804"
     y="17.260084"
     height="33.345856"
     rx="6.7920032"
     shape-rendering="crispEdges"
     id="rect5-6-6-6-6"
     style="isolation:isolate;fill:#d800ff;fill-opacity:0.13470298;stroke:url(#linearGradient15);stroke-width:1.67233;stroke-miterlimit:4;stroke-dasharray:none;stroke-opacity:1"
     ry="7.4743071"
     transform="matrix(0.72446484,-0.68931175,0.68622417,0.72739012,0,0)"
     width="33.338203" />
  <path
     style="color:#000000;fill:url(#linearGradient1031);fill-rule:evenodd;-inkscape-stroke:none"
     d="M 24,8.8203125 C 15.627783,8.8203125 8.8203125,15.627783 8.8203125,24 8.8203125,32.372217 15.627783,39.179688 24,39.179687 32.372217,39.179687 39.179688,32.372217 39.179687,24 39.179687,15.627783 32.372217,8.8203125 24,8.8203125 Z m 0,1 C 31.830973,9.8203125 38.179688,16.169027 38.179687,24 38.179687,31.830973 31.830973,38.179688 24,38.179687 16.169027,38.179687 9.8203125,31.830973 9.8203125,24 9.8203125,16.169027 16.169027,9.8203125 24,9.8203125 Z m 0,1.4472655 c -2.386201,0 -4.705332,0.671881 -6.703125,1.910156 l -1.492187,0.923829 h 9.009765 l 0.148438,-0.220704 c 0.284482,-0.425315 0.744772,-0.695312 1.267578,-0.695312 0.849749,0 1.550781,0.718281 1.550781,1.640625 0,0.922344 -0.701032,1.640625 -1.550781,1.640625 -0.522806,0 -0.983096,-0.269997 -1.267578,-0.695313 l -0.148438,-0.222656 h -9.265625 v 17.974609 l 0.175781,0.150391 c 0.781923,0.669218 1.636663,1.237046 2.544922,1.695313 l 0.726563,0.365234 v -6.230469 c 0,-0.355967 0.140712,-0.691494 0.390625,-0.941406 0.249913,-0.249914 0.587392,-0.392578 0.943359,-0.392578 h 1.308594 l 0.134765,-0.292969 c 0.253921,-0.556833 0.784632,-0.929687 1.398438,-0.929687 0.849749,0 1.550781,0.718281 1.550781,1.640625 0,0.922344 -0.701032,1.640625 -1.550781,1.640625 -0.418948,0 -0.795763,-0.174462 -1.078125,-0.462891 l -0.146484,-0.148438 h -1.50586 v 6.003907 0.609375 l 0.375,0.09766 c 1.0314,0.266764 2.100695,0.404297 3.183594,0.404297 0.939797,0 1.868227,-0.104856 2.771484,-0.306641 l 0.390625,-0.08594 v -9.642578 l -0.191406,-0.150391 c -0.380854,-0.295962 -0.636719,-0.775342 -0.636719,-1.324219 0,-0.922344 0.702986,-1.640625 1.552735,-1.640625 0.849749,0 1.550781,0.718281 1.550781,1.640625 0,0.549167 -0.253574,1.028356 -0.634766,1.324219 l -0.193359,0.150391 v 9.195312 l 0.708984,-0.326172 c 0.583248,-0.268065 1.147517,-0.580893 1.685547,-0.935547 l 0.22461,-0.146484 v -0.269531 -0.429688 -7.951172 c 0,-0.355967 0.140712,-0.691492 0.390625,-0.941406 C 31.869054,24.642665 32.206532,24.5 32.5625,24.5 h 4.169922 V 24 c 0,-3.106933 -1.13941,-6.099402 -3.183594,-8.417969 l -0.875,-0.99414 v 4.519531 c 0,0.355967 -0.140712,0.693445 -0.390625,0.943359 -0.249913,0.249914 -0.587392,0.390625 -0.943359,0.390625 H 20.441406 v 1.779297 l 0.19336,0.150391 c 0.381192,0.295864 0.634765,0.773098 0.634765,1.322265 0,0.922345 -0.701031,1.640625 -1.550781,1.640625 -0.849749,0 -1.550781,-0.718281 -1.550781,-1.640625 0,-0.549167 0.253573,-1.0264 0.634765,-1.322265 l 0.19336,-0.150391 v -1.890625 c 0,-0.355967 0.140711,-0.693446 0.390625,-0.943359 0.249913,-0.249914 0.587392,-0.390625 0.943359,-0.390625 h 10.898438 v -4.78125 -0.699219 l -0.22461,-0.146484 C 28.939984,12.00932 26.506523,11.267578 24,11.267578 Z m 0,1 c 0.417152,0 0.809584,0.135793 1.220703,0.179688 -0.334775,0.152776 -0.60956,0.378381 -0.849609,0.654297 H 19.912109 C 21.218595,12.610557 22.578911,12.267578 24,12.267578 Z m 4.087891,0.830078 c 0.738996,0.277683 1.470072,0.578383 2.140625,1 v 0.117188 3.78125 h -9.898438 c -0.622633,0 -1.215283,0.248486 -1.650391,0.683593 -0.435107,0.435108 -0.683593,1.027758 -0.683593,1.650391 v 1.490234 c -0.489422,0.483422 -0.828125,1.126848 -0.828125,1.873047 0,1.440978 1.136292,2.640625 2.550781,2.640625 1.414489,0 2.550781,-1.199647 2.550781,-2.640625 0,-0.746198 -0.338703,-1.389625 -0.828125,-1.873047 v -0.378906 h 9.898438 c 0.622633,0 1.215282,-0.248486 1.65039,-0.683594 0.435107,-0.435107 0.683594,-1.027756 0.683594,-1.65039 V 17.693359 C 34.81077,19.440699 35.54781,21.396413 35.640625,23.5 H 32.5625 c -0.622633,0 -1.215283,0.250439 -1.650391,0.685547 -0.33818,0.338181 -0.447298,0.812671 -0.53125,1.28125 0.0081,-0.08543 0.05664,-0.156698 0.05664,-0.244141 0,-1.440977 -1.136292,-2.640625 -2.550781,-2.640625 -1.414489,0 -2.552735,1.199648 -2.552735,2.640625 0,0.746334 0.339294,1.391727 0.828125,1.875 v 8.396485 C 25.451727,35.628063 24.732697,35.732422 24,35.732422 c -0.870331,0 -1.722371,-0.138342 -2.558594,-0.326172 v -4.789063 h 0.291016 c 0.420564,0.316706 0.8792,0.611329 1.439453,0.611329 1.414489,0 2.550781,-1.199648 2.550781,-2.640625 0,-1.440978 -1.136292,-2.640625 -2.550781,-2.640625 -0.884571,0 -1.604109,0.519556 -2.060547,1.222656 h -0.78125 c -0.622634,0 -1.215283,0.248486 -1.650391,0.683594 -0.435108,0.435107 -0.683593,1.027757 -0.683593,1.65039 v 4.490235 C 17.499537,33.6958 16.999067,33.40259 16.548828,33.03125 V 16.548828 h 7.822266 c 0.465258,0.534774 1.105973,0.917969 1.859375,0.917969 1.414489,0 2.550781,-1.199648 2.550781,-2.640625 0,-0.669147 -0.289086,-1.259397 -0.693359,-1.728516 z m -13.986328,2.707032 -0.923829,1.492187 C 11.939459,19.294668 11.267578,21.613799 11.267578,24 c 0,2.386201 0.671881,4.705332 1.910156,6.703125 l 0.923829,1.492187 z m -1,4.107421 v 8.175782 C 12.610557,26.781405 12.267578,25.421089 12.267578,24 c 0,-1.421089 0.342979,-2.781405 0.833985,-4.087891 z m 19.572265,6.035157 v 7.46289 l 0.875,-0.992187 c 1.477621,-1.675612 2.48206,-3.702145 2.925781,-5.871094 l 0.123047,-0.599609 z M 30.228516,26.125 v 7.660156 0.136719 c -0.200334,0.125807 -0.411919,0.230513 -0.619141,0.34375 v -7.167969 c 0.277355,-0.274023 0.48341,-0.595931 0.619141,-0.972656 z m 3.445312,0.822266 h 1.613281 c -0.329643,1.258187 -0.889822,2.425114 -1.613281,3.509765 z"
     id="path7" />
</svg>
