<?xml version="1.0" encoding="UTF-8" standalone="no"?>
<svg
   version="1.1"
   id="svg815"
   width="48"
   height="48"
   viewBox="0 0 48.000003 47.999999"
   sodipodi:docname="firefox-nightly.svg"
   inkscape:version="1.1.2 (0a00cf5339, 2022-02-04)"
   xmlns:inkscape="http://www.inkscape.org/namespaces/inkscape"
   xmlns:sodipodi="http://sodipodi.sourceforge.net/DTD/sodipodi-0.dtd"
   xmlns:xlink="http://www.w3.org/1999/xlink"
   xmlns="http://www.w3.org/2000/svg"
   xmlns:svg="http://www.w3.org/2000/svg"
   xmlns:rdf="http://www.w3.org/1999/02/22-rdf-syntax-ns#"
   xmlns:cc="http://creativecommons.org/ns#"
   xmlns:dc="http://purl.org/dc/elements/1.1/">
  <metadata
     id="metadata821">
    <rdf:RDF>
      <cc:Work
         rdf:about="">
        <dc:format>image/svg+xml</dc:format>
        <dc:type
           rdf:resource="http://purl.org/dc/dcmitype/StillImage" />
        <dc:title />
      </cc:Work>
    </rdf:RDF>
  </metadata>
  <defs
     id="defs819">
    <linearGradient
       id="linearGradient1026">
      <stop
         style="stop-color:#000000;stop-opacity:1;"
         offset="0"
         id="stop1022" />
      <stop
         style="stop-color:#000000;stop-opacity:0;"
         offset="1"
         id="stop1024" />
    </linearGradient>
    <linearGradient
       id="linearGradient1018">
      <stop
         id="stop1030"
         offset="0"
         style="stop-color:#d300b3;stop-opacity:1;" />
      <stop
         style="stop-color:#ffce17;stop-opacity:1;"
         offset="1"
         id="stop1016" />
    </linearGradient>
    <linearGradient
       id="linearGradient984">
      <stop
         style="stop-color:#ce1269;stop-opacity:1;"
         offset="0"
         id="stop980" />
      <stop
         style="stop-color:#ce1269;stop-opacity:0;"
         offset="1"
         id="stop982" />
    </linearGradient>
    <linearGradient
       id="linearGradient850">
      <stop
         style="stop-color:#8d268e;stop-opacity:1"
         offset="0"
         id="stop846" />
      <stop
         id="stop850"
         offset="0.3928194"
         style="stop-color:#7c71ee;stop-opacity:1" />
      <stop
         style="stop-color:#00fbff;stop-opacity:1"
         offset="1"
         id="stop848" />
    </linearGradient>
    <linearGradient
       id="linearGradient4578">
      <stop
         id="stop4584"
         offset="0"
         style="stop-color:#fbda39;stop-opacity:1;" />
      <stop
         style="stop-color:#fbda39;stop-opacity:1;"
         offset="0.5"
         id="stop990" />
      <stop
         id="stop4586"
         offset="1"
         style="stop-color:#fbda39;stop-opacity:1;" />
    </linearGradient>
    <linearGradient
       inkscape:collect="always"
       xlink:href="#linearGradient850"
       id="linearGradient872"
       x1="-12.025727"
       y1="6.1170783"
       x2="-0.085100174"
       y2="6.1170783"
       gradientUnits="userSpaceOnUse"
       gradientTransform="matrix(3.8336293,0,0,3.8100287,-0.01831283,0.1669745)" />
    <linearGradient
       id="_lgradient_1"
       x1="0.18336116"
       y1="0.24917752"
       x2="0.9027437"
       y2="0.90347725"
       gradientTransform="matrix(24.617266,0,0,24.816118,10.841288,10.089605)"
       gradientUnits="userSpaceOnUse">
      <stop
         offset="2.608695652173913%"
         stop-opacity="1"
         style="stop-color:rgb(179,255,171)"
         id="stop2" />
      <stop
         offset="98.69565217391305%"
         stop-opacity="1"
         style="stop-color:rgb(18,255,247)"
         id="stop4" />
    </linearGradient>
    <linearGradient
       inkscape:collect="always"
       xlink:href="#linearGradient850"
       id="linearGradient15"
       x1="-9.6850061"
       y1="45.161198"
       x2="11.98815"
       y2="21.735205"
       gradientUnits="userSpaceOnUse"
       gradientTransform="matrix(1.1103138,0,0,1.1109939,0.1020281,-3.1885438)" />
    <linearGradient
       inkscape:collect="always"
       xlink:href="#linearGradient850"
       id="linearGradient1019"
       x1="9.9636488"
       y1="23.995466"
       x2="38.034527"
       y2="23.995466"
       gradientUnits="userSpaceOnUse" />
  </defs>
  <sodipodi:namedview
     pagecolor="#101513"
     bordercolor="#666666"
     borderopacity="1"
     objecttolerance="10"
     gridtolerance="10"
     guidetolerance="10"
     inkscape:pageopacity="0"
     inkscape:pageshadow="2"
     inkscape:window-width="1371"
     inkscape:window-height="545"
     id="namedview817"
     showgrid="false"
     inkscape:zoom="5.3590104"
     inkscape:cx="37.880128"
     inkscape:cy="21.365885"
     inkscape:window-x="219"
     inkscape:window-y="164"
     inkscape:window-maximized="0"
     inkscape:current-layer="svg815"
     showguides="false"
     inkscape:document-rotation="0"
     inkscape:pagecheckerboard="0" />
  <g
     id="g1057"
     style="stroke:#000000;stroke-opacity:1"
     transform="translate(-354.43123,-557.87405)" />
  <rect
     x="-46.769329"
     y="1.3863554"
     height="45.476555"
     rx="6.1802287"
     shape-rendering="crispEdges"
     id="rect5-6-7-3"
     ry="6.7574458"
     transform="matrix(0.00520658,-0.99998645,0.99998785,0.00492893,0,0)"
     style="isolation:isolate;fill:#2100ff;fill-opacity:0.13470298;stroke:url(#linearGradient872);stroke-width:2.02234;stroke-miterlimit:4;stroke-dasharray:none;stroke-opacity:1"
     width="45.775826" />
  <rect
     x="-15.510108"
     y="17.324724"
     height="33.22501"
     rx="6.7650094"
     shape-rendering="crispEdges"
     id="rect5-6-6-6-6"
     style="isolation:isolate;fill:#2100ff;fill-opacity:0.13470298;stroke:url(#linearGradient15);stroke-width:1.66598;stroke-miterlimit:4;stroke-dasharray:none;stroke-opacity:1"
     ry="7.4472198"
     transform="matrix(0.72221664,-0.69166692,0.68385411,0.72961877,0,0)"
     width="33.205704" />
  <path
     style="color:#000000;fill:url(#linearGradient1019);stroke-linecap:round;stroke-linejoin:round;-inkscape-stroke:none"
     d="m 22.871094,9.3125 c -0.483853,0.03636 -0.897696,0.1894713 -1.242188,0.2617188 -0.0087,-0.00264 -0.01664,-0.00728 -0.02539,-0.00977 a 0.50005,0.50005 0 0 0 -0.222657,-0.011719 c 0,0 -0.904976,0.1582493 -2.0625,0.5156246 a 0.50005,0.50005 0 0 0 -0.01367,0.0059 c 0.01809,-0.0062 -0.07462,-0.01439 -0.283203,0.0625 a 0.50005,0.50005 0 0 0 -0.144531,0.128906 c -0.659447,0.223158 -1.376739,0.453763 -2.1875,0.972656 l 0.01172,-0.0078 c -6.3e-5,3.7e-5 0.05468,-0.0268 0.06055,-0.0293 -0.0064,0.0024 -0.01375,0.003 -0.02148,0.0059 -0.02149,0.0079 -0.04297,0.01563 -0.04297,0.01563 a 0.50005,0.50005 0 0 0 -0.02148,0.02344 0.50005,0.50005 0 0 0 -0.002,0 0.50005,0.50005 0 0 0 -0.08594,0.08984 l 0.01172,-0.05469 c -0.02134,0.0099 -0.02841,0.0071 -0.05078,0.02148 -0.39081,0.255266 -0.632984,0.640474 -0.695312,1.03125 -0.06233,0.390777 0.03589,0.771944 0.232421,1.083985 0.196534,0.31204 0.499544,0.567103 0.878907,0.679687 0.05779,0.01715 0.126756,-0.03679 0.1875,-0.02734 -0.587871,0.323285 -1.178254,0.782191 -1.765625,1.24414 -0.408737,-0.732508 -1.400551,-1.098862 -2.189453,-0.58789 a 0.50005,0.50005 0 0 0 -0.0332,0.02344 c 0,0 -1.430195,1.100028 -2.457032,3.277344 -1.0246417,2.172665 -1.7345627,5.492695 -0.8222654,10.027343 0.00792,0.04017 0.018214,0.07972 0.029297,0.119141 a 0.50005,0.50005 0 0 0 0,0.002 c 0,0 1.6606015,5.873417 7.4101565,8.982422 8.75e-4,4.73e-4 0.0011,0.0015 0.002,0.002 0.237732,0.141666 6.133685,3.556297 13.505859,-0.179687 0.08628,-0.03843 4.065447,-1.824751 6.292969,-6.6875 a 0.50005,0.50005 0 0 0 0.03906,-0.136719 c 0.10512,-0.220079 2.669643,-5.639547 0.535157,-11.207031 -0.005,-0.01402 -2.336061,-6.441016 -8.25,-8.708985 l 0.123047,0.07031 c -0.06996,-0.05342 -0.14268,-0.101831 -0.220704,-0.142578 a 0.50005,0.50005 0 0 0 -0.07422,-0.02734 0.50005,0.50005 0 0 0 -0.0059,-0.002 0.50005,0.50005 0 0 0 -0.002,-0.002 c -0.0033,-0.0017 -0.01555,-0.0078 -0.01563,-0.0078 a 0.50005,0.50005 0 0 0 -0.01758,-0.002 0.50005,0.50005 0 0 0 -0.0059,-0.002 0.50005,0.50005 0 0 0 -0.01758,-0.002 C 29.062319,10.064288 26.419421,9.0458543 22.871094,9.3125 Z m 6.359375,0.8125 a 0.50005,0.50005 0 0 0 -0.002,-0.002 c 0,0 -0.0052,-9.43e-4 -0.0098,-0.002 z m -6.285157,0.183594 c 3.369338,-0.253195 5.956203,0.758671 5.958985,0.759765 a 0.50005,0.50005 0 0 0 0.0078,0.002 c 0.01819,0.01079 0.03786,0.02036 0.05469,0.0332 a 0.50005,0.50005 0 0 0 0.123047,0.07031 c 5.403801,2.072333 7.667422,8.108235 7.669922,8.115234 a 0.50005,0.50005 0 0 0 0.0039,0.01172 c 2.000303,5.20634 -0.542222,10.558753 -0.544922,10.564453 a 0.50005,0.50005 0 0 0 -0.0332,0.146485 l 0.0293,-0.136719 c -2.082272,4.545664 -5.8077,6.201211 -5.798828,6.197266 a 0.50005,0.50005 0 0 0 -0.02344,0.01172 c -6.996388,3.553364 -12.530729,0.230763 -12.570312,0.207032 a 0.50005,0.50005 0 0 0 -0.01953,-0.0098 C 12.445156,33.385612 10.875809,27.907124 10.875,27.904297 v -0.002 c -0.0037,-0.01352 -0.0071,-0.02725 -0.0098,-0.04102 a 0.50005,0.50005 0 0 0 0,-0.002 c -0.8740681,-4.344629 -0.185803,-7.426101 0.748047,-9.40625 0.916572,-1.943509 2.097971,-2.85692 2.136719,-2.886719 0.413649,-0.258112 0.885257,0.03119 0.828125,0.519531 a 0.50005,0.50005 0 0 0 0.828125,0.433594 c 1.516322,-1.343049 3.097266,-2.135841 4.453125,-2.480468 2.23544,-0.568199 3.97949,-0.207637 3.982422,-0.207032 0.257352,0.05421 0.384508,0.222405 0.423828,0.429688 0.03932,0.207282 -0.0167,0.411957 -0.236328,0.55664 -2.507896,1.646748 -3.487266,3.344864 -3.982422,4.869141 a 0.50005,0.50005 0 0 0 0.783203,0.548828 c 0.896661,-0.700748 1.858652,-0.770141 1.882813,-0.771484 0.04348,0.01269 0.08782,0.02376 0.126953,0.04687 a 0.50005,0.50005 0 0 0 0.189453,0.06641 c 0.0462,0.006 0.08786,0.02551 0.130859,0.04297 0.09616,0.09454 0.152051,0.220913 0.160156,0.355468 3.8e-5,6.16e-4 -3.4e-5,0.0013 0,0.002 -0.0024,0.01385 -0.0044,0.02738 -0.0078,0.04102 a 0.50005,0.50005 0 0 0 -0.01563,0.0918 c -0.0013,0.02162 -0.0059,0.04317 -0.0098,0.06445 -0.01076,0.01998 -0.02002,0.04009 -0.0332,0.05859 a 0.50005,0.50005 0 0 0 -0.04883,0.08398 c -0.01241,0.02729 -0.02624,0.05324 -0.04297,0.07813 l 0.03516,-0.04687 c -1.362161,1.587604 -0.765625,3.345703 -0.765625,3.345703 l -0.0039,-0.0078 c 0.0055,0.01573 0.01161,0.03267 0.01563,0.04883 0.324763,1.364322 1.069665,2.063356 1.699219,2.429688 0.639686,0.372225 1.191754,0.425627 1.193359,0.425781 0.03487,0.0029 0.06986,0.01 0.103516,0.01953 2.950688,0.862066 5.078931,-1.297754 5.154297,-1.375 a 0.50005,0.50005 0 0 0 0.0293,-0.03125 c 2.53129,-3.073416 1.173828,-6.597656 1.173828,-6.597656 -0.0039,-0.01046 -0.0065,-0.02252 -0.0098,-0.0332 -0.649875,-2.122733 -1.817577,-3.48658 -2.898437,-4.376953 -0.541749,-0.446273 -1.063918,-0.773082 -1.488281,-1.013672 -0.392234,-0.222375 -0.616711,-0.320032 -0.867188,-0.47461 l -0.0293,-0.01563 c -0.01825,-0.01151 -0.04397,-0.0229 -0.0625,-0.03516 l -0.0293,-0.01758 a 0.50005,0.50005 0 0 0 -0.05664,0.01563 c -4.453664,-2.056925 -8.673828,0.400391 -8.673828,0.400391 a 0.50005,0.50005 0 0 0 -0.0059,0.0039 c -0.18653,0.11322 -0.309346,0.113259 -0.427734,0.07813 -0.118388,-0.03513 -0.235685,-0.128844 -0.314453,-0.253906 -0.07877,-0.125063 -0.111248,-0.270629 -0.0918,-0.392578 0.01914,-0.119979 0.0744,-0.230519 0.25,-0.347657 0.0094,-0.0035 0.01919,-0.0067 0.02734,-0.0098 0.0049,-0.0018 0.0086,-0.0039 0.01367,-0.0059 0.0025,-9.72e-4 0.0048,-0.0019 0.0098,-0.0039 0.0025,-9.84e-4 0.0054,-0.0012 0.01172,-0.0039 0.0063,-0.0027 0.06244,-0.03121 0.0625,-0.03125 a 0.50005,0.50005 0 0 0 0.01172,-0.0078 c 0.745037,-0.476829 1.394691,-0.689388 2.091796,-0.925781 a 0.50005,0.50005 0 0 0 0.09766,-0.0918 c 0.01355,0.0041 0.04444,0.01218 0.210937,-0.04492 l -0.01367,0.0059 c 1.04823,-0.323632 1.778009,-0.453891 1.84961,-0.466797 a 0.50005,0.50005 0 0 0 0.214843,0.02734 c 0.507462,-0.08421 0.967287,-0.254925 1.265625,-0.277344 z m 6,0.767578 a 0.50005,0.50005 0 0 0 0.121094,0.02344 l -0.09961,-0.01563 a 0.50005,0.50005 0 0 0 0.134765,0.02344 c 0,0 -0.09552,-0.0112 -0.101562,-0.01172 -0.0012,-2.65e-4 -0.0031,1.78e-4 -0.0039,0 l -0.0293,-0.01172 a 0.50005,0.50005 0 0 1 -0.0059,-0.002 z m -4.199218,2.169922 c 0.444579,0.121554 0.868726,0.12761 1.322265,0.347656 a 0.50005,0.50005 0 0 0 0.002,0 c 0.279202,0.165498 0.523251,0.282554 0.837891,0.460938 0.391729,0.222088 0.85988,0.517421 1.34375,0.916015 0.970382,0.799365 1.990478,1.977015 2.578125,3.896484 0.01038,0.03408 0.02244,0.06633 0.03516,0.09961 a 0.50005,0.50005 0 0 0 0.002,0.0039 c 0,0 1.157526,2.931734 -1.007812,5.580078 -0.04419,0.04505 -1.769552,1.791766 -4.138672,1.09961 a 0.50005,0.50005 0 0 0 -0.002,0 c -0.09712,-0.02798 -0.196165,-0.04617 -0.296875,-0.05469 a 0.50005,0.50005 0 0 0 -0.002,0 c 0,0 -0.297362,-0.01595 -0.773438,-0.292969 C 24.160451,25.019916 23.681644,24.631172 23.414062,23.5 a 0.50005,0.50005 0 0 0 -0.002,-0.0059 c -0.01139,-0.04584 -0.02352,-0.09016 -0.03906,-0.134766 a 0.50005,0.50005 0 0 0 -0.0039,-0.0078 c 0,0 -0.46149,-1.128828 0.585937,-2.349609 a 0.50005,0.50005 0 0 0 0.03516,-0.04687 c 0.04745,-0.07058 0.0898,-0.145237 0.125,-0.222656 0.03857,-0.06202 0.07797,-0.124485 0.107422,-0.191406 A 0.50005,0.50005 0 0 0 24.25,20.464844 c 0.01689,-0.06536 0.02305,-0.132285 0.03125,-0.199219 l 0.01563,-0.0918 c 0.01118,-0.05876 0.02305,-0.118023 0.02734,-0.177734 a 0.50005,0.50005 0 0 0 -0.05078,-0.257813 c -0.0029,-0.0058 -0.0049,-0.01182 -0.0078,-0.01758 l 0.05469,0.199219 c -0.02178,-0.383085 -0.187323,-0.744666 -0.460937,-1.013672 l 0.05859,0.07031 c -0.01307,-0.01859 -0.02519,-0.0367 -0.03906,-0.05469 a 0.50005,0.50005 0 0 0 -0.0078,-0.0098 c -0.0095,-0.01169 -0.0195,-0.02374 -0.0293,-0.03516 a 0.50005,0.50005 0 0 0 -0.136719,-0.111328 c -0.139563,-0.07698 -0.295216,-0.11756 -0.451172,-0.148438 -0.134045,-0.06779 -0.271695,-0.129792 -0.419922,-0.15625 a 0.50005,0.50005 0 0 0 -0.179687,0.002 0.50005,0.50005 0 0 0 -0.03125,0.0039 c -0.01448,0.0027 -0.02857,0.0067 -0.04297,0.0098 l 0.07813,-0.01172 c -0.08687,0.0048 -0.487067,0.06819 -1,0.236328 0.533636,-0.977936 1.29134,-1.977508 2.919922,-3.046875 a 0.50005,0.50005 0 0 0 0.002,0 c 0.555564,-0.365993 0.775046,-1.013643 0.667969,-1.578125 -0.06055,-0.319221 -0.250198,-0.599956 -0.501953,-0.830078 z m 6.568359,0.521484 a 0.50005,0.50005 0 0 0 -0.685547,0.72461 c 0.415912,0.459426 0.783829,1.00254 1.166016,1.656249 A 0.50005,0.50005 0 0 0 32.6875,15.701172 c -0.136844,-0.321723 -0.220286,-0.654556 -0.445313,-1.095703 a 0.50005,0.50005 0 0 0 -0.09766,-0.132813 c -0.279306,-0.271624 -0.552797,-0.48102 -0.830078,-0.705078 z m -10.728516,1.269531 c -0.08153,0.01591 -0.197958,-0.0092 -0.457031,0.05664 -1.977733,0.502695 -4.4369,1.814946 -6.402343,5.113281 -0.11484,0.110309 -0.269014,0.167836 -0.427735,0.152344 a 0.50005,0.50005 0 0 0 -0.322265,0.103516 c -0.01752,-0.01237 -0.03677,-0.02275 -0.05274,-0.03711 a 0.50005,0.50005 0 0 0 -0.814453,0.232422 c -0.490661,1.69847 -0.790597,3.859662 -0.179687,6.9375 a 0.50005,0.50005 0 0 0 0.0098,0.04297 c 0.02617,0.08901 1.483333,5.050768 6.396484,7.695312 a 0.50005,0.50005 0 0 0 0,0.002 c 0.01072,0.0058 0.02094,0.01112 0.03125,0.01758 0.01099,0.0071 1.256916,0.809161 3.300782,1.166015 2.052901,0.358432 4.948097,0.276873 8.267578,-1.419922 a 0.50005,0.50005 0 0 0 0.002,-0.002 c 0.0079,-0.0041 0.01539,-0.008 0.02344,-0.01172 0,0 3.32748,-1.451573 5.257813,-5.654296 a 0.50005,0.50005 0 0 0 0.01367,-0.02539 c 0,0 2.311965,-5.036242 0.513672,-9.716797 a 0.50005,0.50005 0 0 0 -0.02148,-0.04883 c 0,0 -0.002,-0.002 -0.002,-0.002 a 0.50005,0.50005 0 0 0 -0.0098,-0.01953 c 0,0 -0.01062,-0.01977 -0.02148,-0.03906 -0.0046,-0.0082 -0.01008,-0.01508 -0.01367,-0.02148 0.0062,0.0134 0.01957,0.04502 0.01953,0.04492 a 0.50005,0.50005 0 0 0 -0.964844,0.183593 c 0.0075,1.941665 -0.547377,3.493446 -1.365235,4.591797 -1.547763,2.078587 -3.759765,2.84375 -3.759765,2.84375 a 0.50005,0.50005 0 0 0 -0.09961,0.01953 c -1.095065,0.522676 -2.559475,0.884853 -4.269531,0.419922 a 0.50005,0.50005 0 0 0 -0.08008,-0.01563 c -0.06349,-0.0066 -0.213894,-0.01908 -0.496094,-0.09375 -0.282199,-0.07467 -0.660116,-0.206942 -1.066406,-0.443359 -0.829851,-0.482883 -1.787109,-1.456412 -2.189453,-3.078125 -0.0031,-0.03643 -0.0066,-0.08685 -0.01172,-0.142578 -0.01025,-0.111458 -0.01717,-0.218913 -0.04687,-0.351563 a 0.50005,0.50005 0 0 0 -0.980469,0.02344 c -0.06633,0.384419 -0.216786,0.790995 -0.189453,1.507812 l 0.0098,-0.113281 c -0.0012,0.0065 -0.0044,0.01311 -0.0059,0.01953 a 0.50005,0.50005 0 0 0 -0.0098,0.06445 c -0.0044,0.04734 -0.01473,0.09409 -0.03125,0.138672 a 0.50005,0.50005 0 0 0 -0.02344,0.08984 c -0.005,0.02934 -0.0176,0.05591 -0.02734,0.08398 -0.02016,0.02359 -0.03857,0.04851 -0.0625,0.06836 a 0.50005,0.50005 0 0 0 -0.06445,0.06445 c -0.02508,0.02996 -0.05507,0.05423 -0.08594,0.07813 a 0.50005,0.50005 0 0 0 -0.02539,0.0039 c -0.05467,0.03083 -0.1161,0.04416 -0.177734,0.05469 -0.177048,-0.01498 -0.339954,-0.103131 -0.429687,-0.257813 a 0.50005,0.50005 0 0 0 -0.117188,-0.08789 c -0.05349,-0.102782 -0.836668,-1.627135 -0.71875,-3.785157 0.09023,-1.651342 0.761463,-3.670704 2.632813,-5.615234 a 0.50005,0.50005 0 0 0 -0.455079,-0.837891 z m -1.164062,1.46875 c -1.220855,1.70677 -1.932126,3.437314 -2.013672,4.929688 -0.137667,2.519451 0.863281,4.384766 0.863281,4.384765 a 0.50005,0.50005 0 0 0 0.277344,0.236329 c 0.04835,0.01687 0.0967,0.03098 0.146484,0.04297 l -0.314453,-0.236328 c 0.264843,0.456531 0.746079,0.748227 1.273438,0.769531 a 0.50005,0.50005 0 0 0 0.0625,-0.002 c 0.220338,-0.01889 0.43432,-0.08474 0.626953,-0.193359 l -0.224609,0.02734 a 0.50005,0.50005 0 0 0 0.34375,-0.0918 c 7.4e-4,-5.49e-4 0.0012,-0.0014 0.002,-0.002 0.08363,-0.06228 0.159128,-0.135108 0.228515,-0.212891 0.092,-0.08077 0.177585,-0.169293 0.248047,-0.269531 a 0.50005,0.50005 0 0 0 0.04883,-0.08203 c 0.03204,-0.07152 0.04756,-0.149204 0.06836,-0.22461 0.566328,1.086796 1.280618,1.952702 2.033203,2.390625 0.49766,0.289584 0.961179,0.453396 1.314453,0.546875 0.309731,0.08196 0.500671,0.09994 0.570312,0.107422 1.908041,0.518759 3.564722,0.126689 4.802735,-0.435547 a 0.50005,0.50005 0 0 0 0.152344,-0.02344 c 0,0 2.486034,-0.840829 4.236328,-3.191407 0.480946,-0.645892 0.874132,-1.416065 1.146484,-2.291015 0.248301,3.314115 -0.986859,6.297009 -0.990234,6.304687 A 0.50005,0.50005 0 0 0 34.318359,29 c -1.786036,3.905876 -4.751953,5.167969 -4.751953,5.167969 a 0.50005,0.50005 0 0 0 -0.0059,0.002 c -0.02832,0.01263 -0.05648,0.0267 -0.08398,0.04102 -3.120813,1.594004 -5.763976,1.651196 -7.636718,1.324219 -1.87364,-0.327133 -2.933594,-1.023437 -2.933594,-1.023437 a 0.50005,0.50005 0 0 0 -0.0078,-0.0059 c -0.02925,-0.01833 -0.05943,-0.03641 -0.08984,-0.05273 v 0.002 C 14.297899,32.027159 12.926638,27.435333 12.908203,27.373047 12.394244,24.761703 12.601705,22.991173 12.972656,21.5 a 0.50005,0.50005 0 0 0 0.140625,0.01563 c 0.17153,-0.0658 0.328944,-0.16176 0.466797,-0.283203 l -0.378906,0.123047 c 0.455027,0.04441 0.908424,-0.114957 1.234375,-0.435547 a 0.50005,0.50005 0 0 0 0.08008,-0.105469 c 1.548689,-2.653442 3.3053,-3.712848 4.90625,-4.308594 z m 1.042969,9.865235 a 0.50005,0.50005 0 0 0 0.0098,-0.002 c 0.01372,-0.01323 0.02584,-0.02534 0.03906,-0.03906 z m 12.818359,-8.830078 a 0.50005,0.50005 0 0 0 -0.492187,0.591796 c 0,0 0.0024,0.0076 0.0039,0.01563 7.57e-4,0.004 0.0013,0.0082 0.002,0.01172 3.32e-4,0.0017 -3.75e-4,0.0039 0,0.0059 1.87e-4,9.7e-4 0.0015,0.0017 0.002,0.0039 l 0.01367,0.05078 c 0.04227,0.136174 0.04862,0.142339 0.01563,0.03516 l 0.0059,0.01563 a 0.50005,0.50005 0 0 0 0.951172,-0.308593 c -0.0168,-0.05457 -0.0021,-0.0011 -0.0078,-0.01563 h 0.002 l -0.02344,-0.06836 a 0.50005,0.50005 0 0 0 -0.472656,-0.33789 z m 0.488281,0.408203 c 2.85e-4,0.001 0.0017,9.99e-4 0.002,0.002 l -0.490234,0.589844 -0.416016,-0.296875 z m -13.34375,6.308593 c 7.87e-4,0.0032 0.0031,0.0046 0.0039,0.0078 0.0018,0.0074 0.0039,0.02138 0.0039,0.02148 z"
     id="path4549" />
</svg>
