<?xml version="1.0" encoding="UTF-8" standalone="no"?>
<svg
   version="1.1"
   width="48"
   height="48"
   viewBox="0 0 48 48"
   id="svg25"
   sodipodi:docname="firefox.svg"
   inkscape:version="1.1.2 (0a00cf5339, 2022-02-04)"
   xmlns:inkscape="http://www.inkscape.org/namespaces/inkscape"
   xmlns:sodipodi="http://sodipodi.sourceforge.net/DTD/sodipodi-0.dtd"
   xmlns:xlink="http://www.w3.org/1999/xlink"
   xmlns="http://www.w3.org/2000/svg"
   xmlns:svg="http://www.w3.org/2000/svg">
  <sodipodi:namedview
     id="namedview27"
     pagecolor="#ffffff"
     bordercolor="#666666"
     borderopacity="1.0"
     inkscape:pageshadow="2"
     inkscape:pageopacity="0.0"
     inkscape:pagecheckerboard="0"
     showgrid="false"
     showguides="false"
     inkscape:zoom="218"
     inkscape:cx="32.740826"
     inkscape:cy="18.084862"
     inkscape:window-width="1566"
     inkscape:window-height="545"
     inkscape:window-x="42"
     inkscape:window-y="158"
     inkscape:window-maximized="0"
     inkscape:current-layer="svg25" />
  <defs
     id="defs21">
    <radialGradient
       id="grad"
       cx="24"
       cy="24"
       fx="24"
       fy="24"
       fr="0"
       r="23.66309"
       gradientTransform="matrix(0.59941978,0,0,0.6075229,9.4119818,9.760195)"
       gradientUnits="userSpaceOnUse"
       spreadMethod="pad">
      <stop
         offset="0.156"
         stop-color="#ffea00"
         id="stop2" />
      <stop
         offset="0.231"
         stop-color="#ffde00"
         id="stop4" />
      <stop
         offset="0.365"
         stop-color="#ffbf00"
         id="stop6" />
      <stop
         offset="0.541"
         stop-color="#ff8e00"
         id="stop8" />
      <stop
         offset="0.763"
         stop-color="#ff272d"
         id="stop10" />
      <stop
         offset="0.796"
         stop-color="#f92433"
         id="stop12" />
      <stop
         offset="0.841"
         stop-color="#e91c45"
         id="stop14" />
      <stop
         offset="0.893"
         stop-color="#cf0e62"
         id="stop16" />
      <stop
         offset="0.935"
         stop-color="#b5007f"
         id="stop18" />
    </radialGradient>
    <linearGradient
       inkscape:collect="always"
       xlink:href="#grad"
       id="linearGradient872"
       x1="-12.025727"
       y1="6.1170783"
       x2="-0.085100174"
       y2="6.1170783"
       gradientUnits="userSpaceOnUse"
       gradientTransform="matrix(3.8336293,0,0,3.8100287,-0.01831283,0.1669745)" />
    <linearGradient
       id="_lgradient_1"
       x1="0.18336116"
       y1="0.24917752"
       x2="0.9027437"
       y2="0.90347725"
       gradientTransform="matrix(24.617266,0,0,24.816118,10.841288,10.089605)"
       gradientUnits="userSpaceOnUse">
      <stop
         offset="2.608695652173913%"
         stop-opacity="1"
         style="stop-color:rgb(179,255,171)"
         id="stop2-3" />
      <stop
         offset="98.69565217391305%"
         stop-opacity="1"
         style="stop-color:rgb(18,255,247)"
         id="stop4-6" />
    </linearGradient>
    <linearGradient
       inkscape:collect="always"
       xlink:href="#grad"
       id="linearGradient15"
       x1="-9.6850061"
       y1="45.161198"
       x2="11.98815"
       y2="21.735205"
       gradientUnits="userSpaceOnUse"
       gradientTransform="matrix(1.1103138,0,0,1.1109939,0.1020281,-3.1885438)" />
    <radialGradient
       inkscape:collect="always"
       xlink:href="#grad"
       id="radialGradient916"
       cx="24.002657"
       cy="24.000765"
       fx="24.002657"
       fy="24.000765"
       r="14.537538"
       gradientTransform="matrix(1,0,0,1.0130093,0,-0.3122325)"
       gradientUnits="userSpaceOnUse" />
  </defs>
  <rect
     x="-46.769329"
     y="1.3863554"
     height="45.476555"
     rx="6.1802287"
     shape-rendering="crispEdges"
     id="rect5-6-7-3"
     ry="6.7574458"
     transform="matrix(0.00520658,-0.99998645,0.99998785,0.00492893,0,0)"
     style="isolation:isolate;fill:#ff5800;fill-opacity:0.13470298;stroke:url(#linearGradient872);stroke-width:2.02234;stroke-miterlimit:4;stroke-dasharray:none;stroke-opacity:1"
     width="45.775826" />
  <rect
     x="-15.510108"
     y="17.324724"
     height="33.22501"
     rx="6.7650094"
     shape-rendering="crispEdges"
     id="rect5-6-6-6-6"
     style="isolation:isolate;fill:#ff5800;fill-opacity:0.13470298;stroke:url(#linearGradient15);stroke-width:1.66598;stroke-miterlimit:4;stroke-dasharray:none;stroke-opacity:1"
     ry="7.4472198"
     transform="matrix(0.72221664,-0.69166692,0.68385411,0.72961877,0,0)"
     width="33.205704" />
  <path
     style="color:#000000;fill:url(#radialGradient916);stroke-linecap:round;stroke-linejoin:round;-inkscape-stroke:none"
     d="m 22.871094,9.3183594 c -0.482941,0.036289 -0.897191,0.1878894 -1.242188,0.2597656 -0.0099,-0.00289 -0.01934,-0.00707 -0.0293,-0.00977 -0.0713,-0.019378 -0.146007,-0.022714 -0.21875,-0.00977 0,0 -0.905718,0.1595596 -2.064453,0.517578 -0.0046,0.0019 -0.0091,0.0039 -0.01367,0.0059 0.023,-0.0079 -0.06864,-0.01712 -0.279297,0.06055 -0.0478,0.01782 -0.09259,0.04285 -0.132812,0.07422 -0.03564,0.02777 -0.06657,0.06104 -0.09961,0.0918 -0.632102,0.218872 -1.312625,0.435616 -2.089844,0.93164 l 0.01172,-0.0078 c -7.8e-5,4.7e-5 0.0543,-0.02663 0.06055,-0.0293 -0.0074,0.0027 -0.01625,0.0045 -0.02539,0.0078 -0.02426,0.0088 -0.04883,0.01758 -0.04883,0.01758 -0.006,0.0057 -0.01187,0.01158 -0.01758,0.01758 -1e-6,6.67e-4 -1e-6,0.0013 0,0.002 -0.03527,0.02695 -0.0668,0.05848 -0.09375,0.09375 l 0.01172,-0.05469 c 0.04072,-0.02671 0.0711,-0.03521 0.08203,-0.03906 -0.02048,0.0068 -0.07538,0.02307 -0.134766,0.0625 -0.0013,6.61e-4 -0.0026,0.0013 -0.0039,0.002 -0.08414,0.05728 -0.07902,0.160298 -0.148438,0.228516 -0.243701,0.239501 -0.477649,0.500244 -0.523437,0.800781 -0.05883,0.386139 0.03837,0.761667 0.232422,1.070312 0.194054,0.308646 0.491745,0.559501 0.865234,0.673829 0.06297,0.01928 0.138555,-0.0375 0.205078,-0.02734 -0.595016,0.325554 -1.192673,0.792441 -1.787109,1.259765 -0.409325,-0.731269 -1.401342,-1.096054 -2.189453,-0.585937 -0.01138,0.0074 -0.02246,0.01518 -0.0332,0.02344 0,0 -1.428234,1.098201 -2.455079,3.275391 -1.0246602,2.172561 -1.736612,5.494465 -0.8242184,10.029297 0.00792,0.04017 0.018214,0.07972 0.029297,0.11914 -1.3e-6,6.67e-4 -1.3e-6,0.0013 0,0.002 0,0 1.6619754,5.875773 7.4140624,8.984375 8.75e-4,4.72e-4 0.0011,0.0015 0.002,0.002 0.2481,0.147671 6.138279,3.550787 13.503906,-0.181641 0.08667,-0.0386 4.065299,-1.824749 6.292969,-6.6875 0.003,-0.01097 0.0056,-0.02205 0.0078,-0.0332 0.02978,-0.06163 2.732725,-5.660405 0.566406,-11.310547 v -0.002 c 0.01433,0.03913 -0.04147,-0.113605 -0.119141,-0.298828 -0.07811,-0.186269 -0.195302,-0.45148 -0.353515,-0.775391 -0.316427,-0.647822 -0.797476,-1.529826 -1.464844,-2.482422 -1.318824,-1.882478 -3.384538,-4.036475 -6.333985,-5.160156 -0.03559,-0.01356 -0.05595,-0.04144 -0.0918,-0.05469 l 0.08398,0.04687 v 0.002 l 0.05859,0.0332 c -0.02075,-0.01691 -0.04285,-0.03497 -0.06445,-0.05078 -0.01834,-0.0096 -0.03725,-0.01811 -0.05664,-0.02539 -0.02781,-0.01408 -0.0625,-0.03217 -0.08398,-0.04297 0.0033,0.0018 0.02764,0.01609 0.05664,0.03125 -0.02317,-0.01297 -0.04734,-0.02407 -0.07227,-0.0332 l 0.01367,0.002 c -3.19e-4,-1.25e-4 -0.02099,-0.0057 -0.02148,-0.0059 -0.0039,-0.002 -0.0078,-0.004 -0.01172,-0.0059 l -0.0039,-0.002 c -0.0013,-5e-6 -0.0026,-5e-6 -0.0039,0 -0.0058,-7.7e-4 -0.01171,-0.0014 -0.01758,-0.002 -0.137025,-0.05335 -2.795342,-1.077181 -6.34375,-0.8105464 z m 6.361328,0.8124996 c -6.65e-4,-6.69e-4 -0.0013,-0.0013 -0.002,-0.002 0,0 -0.0052,-9.43e-4 -0.0098,-0.002 z m 0.0078,0.002 0.03125,0.0098 c -0.0033,-0.0017 -0.01555,-0.0078 -0.01563,-0.0078 -0.0052,-7.49e-4 -0.01041,-0.0014 -0.01563,-0.002 z m -6.294922,0.18164 c 3.369537,-0.253194 5.943188,0.752799 5.960938,0.759766 0.0033,6.99e-4 0.0065,0.0014 0.0098,0.002 0.02346,0.01642 0.04829,0.0308 0.07422,0.04297 2.744539,1.014503 4.694175,3.051759 5.955078,4.851562 0.630452,0.899902 1.086811,1.737651 1.384766,2.347656 0.148978,0.305003 0.258665,0.552356 0.330078,0.722657 0.07141,0.170301 0.08765,0.214474 0.103516,0.257812 6.46e-4,0.0026 0.0013,0.0052 0.002,0.0078 2.000445,5.206368 -0.542222,10.558753 -0.544922,10.564453 -0.01838,0.04688 -0.02957,0.09626 -0.0332,0.146484 l 0.0293,-0.136719 c -2.082426,4.545699 -5.808097,6.201388 -5.798828,6.197266 -0.0079,0.0037 -0.01573,0.0076 -0.02344,0.01172 -6.990268,3.550024 -12.518213,0.239012 -12.568359,0.208984 -0.0064,-0.0034 -0.01295,-0.0067 -0.01953,-0.0098 C 12.446675,33.393787 10.87581,27.912985 10.875,27.910156 v -0.002 c -0.0038,-0.01352 -0.0071,-0.02725 -0.0098,-0.04102 v -0.002 c -0.8740948,-4.344478 -0.183971,-7.427928 0.75,-9.408203 0.916661,-1.94357 2.095983,-2.854955 2.134766,-2.884765 0.413085,-0.257591 0.884125,0.03183 0.828125,0.519531 -0.05238,0.455493 0.484737,0.735454 0.828125,0.43164 1.516013,-1.342399 3.099464,-2.135925 4.455078,-2.480468 2.235337,-0.568134 3.979492,-0.205686 3.982422,-0.205078 0.257339,0.05422 0.384509,0.222406 0.423828,0.429687 0.03932,0.207281 -0.01672,0.411948 -0.236328,0.556641 -2.509779,1.647876 -3.493555,3.345291 -3.988281,4.871093 -0.155467,0.471147 0.396092,0.85669 0.785156,0.548829 0.862369,-0.675687 1.666908,-0.715838 1.800781,-0.726563 0.0043,0.0055 0.01155,0.008 0.01563,0.01367 0.122942,0.171316 0.340138,0.2471 0.542969,0.189453 0.04137,0.07453 0.100499,0.141615 0.103516,0.228516 0.0074,0.01872 0.01583,0.03699 0.02539,0.05469 -0.0044,0.01932 -0.0077,0.03888 -0.0098,0.05859 -0.0025,0.02608 -0.0074,0.05268 -0.01367,0.07813 -0.01794,0.0684 -0.04927,0.132916 -0.0918,0.189453 -0.02066,0.02803 -0.03833,0.05814 -0.05273,0.08984 -0.0042,0.0089 -0.009,0.01669 -0.01367,0.02539 l 0.0625,-0.08984 c -1.36242,1.587801 -0.763672,3.345703 -0.763672,3.345703 l -0.0059,-0.01367 c 0.0051,0.01541 0.01,0.03107 0.01367,0.04687 0.323951,1.369375 1.072081,2.070325 1.703125,2.4375 0.640209,0.37251 1.19336,0.425781 1.19336,0.425781 0.03521,0.0029 0.06953,0.0099 0.103515,0.01953 2.948332,0.861319 5.076848,-1.297667 5.152344,-1.375 0.01021,-0.01 0.01998,-0.02042 0.0293,-0.03125 2.52914,-3.070588 1.180125,-6.58752 1.177734,-6.59375 v -0.0039 c -0.004,-0.01064 -0.0084,-0.02234 -0.01172,-0.0332 C 31.139057,16.457292 29.97148,15.093425 28.890526,14.203033 28.348764,13.756778 27.826664,13.429968 27.402245,13.189361 26.96838,12.9434 26.725889,12.850826 26.44326,12.663971 l -0.02734,-0.01563 c -0.01913,0.0035 -0.03804,0.008 -0.05664,0.01367 -4.451952,-2.058503 -8.66745,0.394668 -8.673828,0.398438 -0.183774,0.106409 -0.306514,0.106223 -0.423828,0.07031 -0.117315,-0.03591 -0.233278,-0.127102 -0.310547,-0.25 -0.07727,-0.122897 -0.110276,-0.267383 -0.0918,-0.388671 0.01818,-0.119299 0.07351,-0.228435 0.242187,-0.345704 0.0087,-0.0032 0.01775,-0.005 0.02539,-0.0078 0.0056,-0.0021 0.0099,-0.0056 0.01563,-0.0078 0.0029,-0.0011 0.0063,-0.0017 0.01172,-0.0039 0.0027,-0.0011 0.005,-0.001 0.01172,-0.0039 0.0068,-0.0029 0.06242,-0.0312 0.0625,-0.03125 0.0039,-0.0025 0.0079,-0.0051 0.01172,-0.0078 0.707729,-0.451675 1.314909,-0.644729 1.992188,-0.880859 0.07852,-0.02716 0.149032,-0.07346 0.205168,-0.134716 6.24e-4,-6.82e-4 0.0013,-0.0013 0.002,-0.002 0.02231,0.0026 0.03565,0.01306 0.1875,-0.03906 l -0.01367,0.0059 c 1.050795,-0.324668 1.787199,-0.456034 1.857422,-0.46875 0.06768,0.02347 0.139618,0.03213 0.210938,0.02539 0.505881,-0.08388 0.96459,-0.252917 1.263671,-0.275391 z m 6.023438,0.771485 c 0.03246,0.0099 0.06583,0.01642 0.09961,0.01953 l -0.08594,-0.01367 c 0.03933,0.01211 0.08,0.01933 0.121094,0.02148 0,0 -0.09029,-0.01084 -0.09961,-0.01172 l -0.02148,-0.0098 -0.0039,-0.002 z M 24.75,13.251953 c 0.443413,0.121467 0.866035,0.128214 1.318359,0.347656 0.0013,5e-6 0.0026,5e-6 0.0039,0 0.279188,0.165489 0.523211,0.282543 0.83789,0.460938 0.39173,0.222075 0.859822,0.517399 1.34375,0.916016 0.970426,0.799348 1.990439,1.977012 2.578125,3.896484 0.01038,0.03408 0.02244,0.06633 0.03516,0.09961 -5e-6,0.0013 -5e-6,0.0026 0,0.0039 0,0 1.157768,2.931636 -1.007812,5.580079 -0.05017,0.05116 -1.76925,1.791236 -4.136719,1.099609 -6.67e-4,-10e-7 -0.0013,-10e-7 -0.002,0 -0.09806,-0.02816 -0.199099,-0.04636 -0.300781,-0.05469 0,0 -0.294908,-0.01567 -0.771485,-0.292968 -0.485738,-0.282629 -0.966863,-0.673889 -1.234375,-1.804688 -0.01053,-0.04482 -0.02262,-0.08911 -0.03711,-0.132812 -0.0019,-0.0046 -0.0039,-0.0091 -0.0059,-0.01367 0,0 -0.46333,-1.129041 0.583984,-2.34961 0.02406,-0.02757 0.04502,-0.0577 0.0625,-0.08984 0.01319,-0.02468 0.02528,-0.05081 0.03711,-0.07617 l -0.05273,0.08984 c 0.123115,-0.16367 0.211364,-0.35031 0.261719,-0.548829 6.72e-4,-0.0013 0.0013,-0.0026 0.002,-0.0039 0.01238,-0.05023 0.01812,-0.101151 0.02539,-0.152344 l 0.01172,-0.06641 c 0.0093,-0.04898 0.01892,-0.09876 0.02344,-0.148437 0.01328,-0.147672 -0.03967,-0.29362 -0.144531,-0.398438 -0.01435,-0.01428 -0.03002,-0.02927 -0.04492,-0.04297 -0.0764,-0.259987 -0.128068,-0.535399 -0.328125,-0.724609 -0.07725,-0.07304 -0.175765,-0.119565 -0.28125,-0.132812 -0.09996,-0.01254 -0.198829,0.0164 -0.298828,0.02344 -0.07359,-0.06776 -0.133025,-0.150623 -0.21875,-0.203125 -0.086,-0.0532 -0.186104,-0.07908 -0.28711,-0.07422 0,0 -0.477298,0.08463 -1.083984,0.285157 0.532249,-0.989412 1.292967,-2.000367 2.943359,-3.083985 0.555514,-0.366013 0.775042,-1.013661 0.667969,-1.578125 -0.06045,-0.318689 -0.248949,-0.600086 -0.5,-0.830078 z m 6.568359,0.523438 C 30.838198,13.382502 30.213945,14.042325 30.632812,14.5 c 0.413974,0.457576 0.779577,0.996578 1.160157,1.646484 0.314177,0.544471 1.140659,0.130327 0.892578,-0.447265 -0.135631,-0.318354 -0.217559,-0.649088 -0.441406,-1.087891 -0.02498,-0.04937 -0.05798,-0.09425 -0.09766,-0.132812 -0.278888,-0.2712 -0.551836,-0.479776 -0.828125,-0.703125 z m -10.728515,1.267578 c -0.08206,0.01597 -0.199697,-0.0098 -0.460938,0.05664 -1.972183,0.501251 -4.420054,1.809874 -6.382812,5.087891 -0.07629,0.03 -0.144031,0.07829 -0.197266,0.140625 -0.106284,0.156766 -0.292895,0.213332 -0.478515,0.207031 -0.01676,-0.01349 -0.03438,-0.02589 -0.05274,-0.03711 -0.03316,-0.01908 -0.06531,-0.04081 -0.09375,-0.06641 -0.274166,-0.246401 -0.71162,-0.121565 -0.814453,0.232421 -0.491095,1.699858 -0.790397,3.862117 -0.177734,6.94336 0.0026,0.01446 0.0059,0.0288 0.0098,0.04297 0.03198,0.108614 1.488244,5.047723 6.396485,7.689453 0.008,0.0046 0.01374,0.01066 0.02148,0.01563 0,0 1.257234,0.811495 3.310547,1.169922 2.053312,0.358426 4.947864,0.276881 8.267578,-1.419922 6.69e-4,-6.65e-4 0.0013,-0.0013 0.002,-0.002 0.0079,-0.0041 0.01539,-0.008 0.02344,-0.01172 0,0 3.327367,-1.45161 5.257812,-5.654297 0.0048,-0.0083 0.0094,-0.0168 0.01367,-0.02539 0,0 2.312075,-5.036266 0.513672,-9.716797 -0.0063,-0.01665 -0.01346,-0.03295 -0.02148,-0.04883 l -0.002,-0.002 c -0.0031,-0.0066 -0.0064,-0.01309 -0.0098,-0.01953 0,0 -0.01062,-0.01977 -0.02148,-0.03906 -0.0046,-0.0082 -0.01008,-0.01507 -0.01367,-0.02148 0.0063,0.01354 0.01957,0.04307 0.01953,0.04297 -0.203587,-0.513067 -0.966074,-0.366435 -0.964844,0.185547 0.0075,1.941695 -0.547329,3.493452 -1.365234,4.591797 -1.547885,2.078613 -3.759766,2.84375 -3.759766,2.84375 l 0.240234,0.0098 c -0.102905,-0.0336 -0.213934,-0.0329 -0.316406,0.002 -1.09451,0.526535 -2.568339,0.893218 -4.287109,0.427735 -0.02622,-0.0074 -0.053,-0.01261 -0.08008,-0.01563 -0.06526,-0.0067 -0.214216,-0.01722 -0.498047,-0.0918 -0.283832,-0.07458 -0.663024,-0.20833 -1.070313,-0.445313 -0.83015,-0.483025 -1.789101,-1.456693 -2.191406,-3.078125 -0.0031,-0.03643 -0.0066,-0.08685 -0.01172,-0.142578 -0.01025,-0.111461 -0.01715,-0.218871 -0.04687,-0.351562 -0.119827,-0.5335 -0.886273,-0.515176 -0.980469,0.02344 -0.06633,0.384417 -0.216786,0.791002 -0.189453,1.507813 l 0.0078,-0.111328 c -0.0025,0.01369 -0.0042,0.02756 -0.0078,0.04102 -0.01004,0.03633 -0.01593,0.07368 -0.01758,0.111328 -0.0023,0.06461 -0.01643,0.127758 -0.04102,0.1875 -0.01058,0.02358 -0.02134,0.04652 -0.03516,0.06836 -0.03562,0.05598 -0.08153,0.104924 -0.134765,0.144531 -0.0143,0.01097 -0.02799,0.02271 -0.04102,0.03516 -0.0072,0.0067 -0.01593,0.01131 -0.02344,0.01758 -0.01046,9.72e-4 -0.02088,0.0023 -0.03125,0.0039 -0.01934,0.01089 -0.04208,0.01111 -0.0625,0.01953 -0.03646,-0.03381 -0.0832,-0.05674 -0.109375,-0.09961 -0.08861,-0.145807 -0.245441,-0.236373 -0.416016,-0.240234 -0.05974,-0.0012 -0.112314,-0.03064 -0.167969,-0.05078 -0.103485,-0.204084 -0.802982,-1.62753 -0.689453,-3.705078 0.09022,-1.651072 0.76436,-3.670193 2.636719,-5.615235 l -0.05664,0.0059 c 0.233398,-0.207127 0.222162,-0.575079 -0.02344,-0.767578 -0.132725,-0.04244 -0.277141,-0.02758 -0.398438,0.04101 z m -1.164063,1.46875 c -1.221924,1.706542 -1.935992,3.436687 -2.017578,4.929687 -0.137692,2.519737 0.865235,4.382813 0.865234,4.382813 0.04044,0.07556 0.09963,0.139448 0.171875,0.185547 0.169819,0.108482 0.371604,0.136114 0.56836,0.171875 0.130402,0.150928 0.254408,0.311207 0.433594,0.402343 0.08258,0.04203 0.175222,0.06029 0.267578,0.05273 0.221326,-0.01848 0.437357,-0.08435 0.630859,-0.19336 l -0.167969,0.01953 c 0.09142,0.0056 0.182627,-0.01397 0.263672,-0.05664 0.0081,-0.0064 0.01548,-0.01292 0.02344,-0.01953 l 0.02734,-0.02344 c 0.01885,-0.01487 0.03656,-0.03115 0.05469,-0.04687 0.150994,-0.112331 0.279834,-0.251375 0.380859,-0.410156 0.0392,-0.06195 0.07545,-0.126474 0.105469,-0.193359 6.88e-4,-0.0026 0.0014,-0.0052 0.002,-0.0078 0.01538,-0.03584 0.0128,-0.07648 0.02539,-0.113281 0.566844,1.084775 1.281639,1.949419 2.033203,2.386719 0.499692,0.290747 0.965274,0.455541 1.320312,0.548828 0.311255,0.08178 0.504276,0.09848 0.570313,0.105468 1.945803,0.526969 3.643553,0.120683 4.888672,-0.460937 0.02012,0.0019 0.04035,0.0026 0.06055,0.002 0,0 2.485932,-0.840844 4.236328,-3.191406 0.480983,-0.6459 0.874139,-1.416066 1.146484,-2.291016 0.248322,3.3141 -0.986859,6.297009 -0.990234,6.304688 -0.002,0.0032 -0.004,0.0065 -0.0059,0.0098 -1.786153,3.905869 -4.751953,5.167969 -4.751953,5.167969 -0.002,6.54e-4 -0.0039,0.0013 -0.0059,0.002 -0.02832,0.01263 -0.05648,0.0267 -0.08398,0.04102 -3.121029,1.59401 -5.763523,1.651204 -7.636719,1.324219 -1.874094,-0.327142 -2.935547,-1.023438 -2.935547,-1.023438 -6.65e-4,-6.69e-4 -0.0013,-0.0013 -0.002,-0.002 -0.0283,-0.01827 -0.0565,-0.03635 -0.08594,-0.05273 -0.0026,-6.88e-4 -0.0052,-0.0014 -0.0078,-0.002 -4.506729,-2.425626 -5.882053,-7.014367 -5.900391,-7.076171 -0.51638,-2.61895 -0.307953,-4.393128 0.06445,-5.886719 0.543926,0.03696 1.092747,-0.150775 1.402344,-0.607422 l -0.279297,0.201172 c 0.06191,-0.01737 0.122376,-0.03951 0.181641,-0.06445 0.09999,-0.04198 0.183616,-0.115329 0.238281,-0.208985 1.549678,-2.654961 3.306935,-3.711689 4.908203,-4.30664 z m 13.859375,1.035156 c -0.313187,-3.92e-4 -0.549649,0.283927 -0.492187,0.591797 0,0 0.0024,0.0076 0.0039,0.01563 7.58e-4,0.004 0.0013,0.0082 0.002,0.01172 2e-4,0.0011 -1.97e-4,0.0029 0,0.0039 0.0061,0.01863 0.01045,0.03779 0.01567,0.05668 0.0057,0.01749 0.01435,0.03386 0.02153,0.05079 0.212261,0.621187 1.144024,0.318889 0.951172,-0.308594 -0.0168,-0.05457 -0.0021,-0.0011 -0.0078,-0.01563 h 0.002 l -0.02344,-0.06836 c -0.06925,-0.201996 -0.25912,-0.337733 -0.472656,-0.337891 z m 0.488281,0.408203 c 2.92e-4,0.001 0.0017,9.84e-4 0.002,0.002 -0.002,-0.002 0.0118,0.01172 -0.002,-0.002 z m -13.345703,6.308594 c 7.87e-4,0.0032 0.0031,0.0046 0.0039,0.0078 0.0018,0.0074 0.0039,0.02138 0.0039,0.02148 z"
     id="path23"
     sodipodi:nodetypes="ccccccccccccccccccccccsssccccscccsccccccssssccccccccccccccccccccccccccccccssscccccccccccccscccscscccccccccccccccccscccccccssccccssccccsccccsccccccccccccccccccsscccccccscccccccccccccccccccccsccscccccssccccccccccccscccccccccccccscccccssccccccccccccccccccsccccccscccccccccccccccsscccsccccccsccccccccccccccccccccccsccccccccc" />
</svg>
