<?xml version="1.0" encoding="UTF-8" standalone="no"?>
<!-- Generator: Gravit.io -->

<svg
   style="isolation:isolate"
   viewBox="0 0 48 48"
   width="48pt"
   height="48pt"
   version="1.1"
   id="svg9"
   sodipodi:docname="fontforge.svg"
   inkscape:version="1.1.2 (0a00cf5339, 2022-02-04)"
   xmlns:inkscape="http://www.inkscape.org/namespaces/inkscape"
   xmlns:sodipodi="http://sodipodi.sourceforge.net/DTD/sodipodi-0.dtd"
   xmlns:xlink="http://www.w3.org/1999/xlink"
   xmlns="http://www.w3.org/2000/svg"
   xmlns:svg="http://www.w3.org/2000/svg">
  <defs
     id="defs13">
    <linearGradient
       inkscape:collect="always"
       xlink:href="#_lgradient_17"
       id="linearGradient872"
       x1="-12.025727"
       y1="6.1170783"
       x2="-0.085100174"
       y2="6.1170783"
       gradientUnits="userSpaceOnUse"
       gradientTransform="matrix(3.8358211,0,0,3.8371386,-0.00544341,-0.00268054)" />
    <linearGradient
       id="_lgradient_1"
       x1="0.18336116"
       y1="0.24917752"
       x2="0.9027437"
       y2="0.90347725"
       gradientTransform="matrix(24.617266,0,0,24.816118,10.841288,10.089605)"
       gradientUnits="userSpaceOnUse">
      <stop
         offset="2.608695652173913%"
         stop-opacity="1"
         style="stop-color:rgb(179,255,171)"
         id="stop2-3" />
      <stop
         offset="98.69565217391305%"
         stop-opacity="1"
         style="stop-color:rgb(18,255,247)"
         id="stop4-6" />
    </linearGradient>
    <linearGradient
       inkscape:collect="always"
       xlink:href="#_lgradient_17"
       id="linearGradient15"
       x1="-9.6850061"
       y1="45.161198"
       x2="11.98815"
       y2="21.735205"
       gradientUnits="userSpaceOnUse"
       gradientTransform="matrix(1.1147442,0,0,1.1150348,-0.01237238,-3.3277956)" />
    <linearGradient
       inkscape:collect="always"
       xlink:href="#_lgradient_17"
       id="linearGradient1289"
       x1="12"
       y1="24"
       x2="36"
       y2="24"
       gradientUnits="userSpaceOnUse" />
  </defs>
  <sodipodi:namedview
     id="namedview11"
     pagecolor="#ffffff"
     bordercolor="#666666"
     borderopacity="1.0"
     inkscape:pageshadow="2"
     inkscape:pageopacity="0.0"
     inkscape:pagecheckerboard="0"
     inkscape:document-units="pt"
     showgrid="false"
     inkscape:zoom="10.21875"
     inkscape:cx="31.95107"
     inkscape:cy="31.706422"
     inkscape:window-width="1600"
     inkscape:window-height="836"
     inkscape:window-x="0"
     inkscape:window-y="0"
     inkscape:window-maximized="1"
     inkscape:current-layer="svg9" />
  <linearGradient
     id="_lgradient_17"
     x1="0"
     y1="0.5"
     x2="1"
     y2="0.5"
     gradientTransform="matrix(48,0,0,46.985,0.495,0.559)"
     gradientUnits="userSpaceOnUse">
    <stop
       offset="0%"
       stop-opacity="1"
       style="stop-color:rgb(52,148,230)"
       id="stop2" />
    <stop
       offset="98.69565217391305%"
       stop-opacity="1"
       style="stop-color:rgb(236,110,173)"
       id="stop4" />
  </linearGradient>
  <rect
     x="-46.783188"
     y="1.2253767"
     height="45.80014"
     rx="6.1837621"
     shape-rendering="crispEdges"
     id="rect5-6-7-3"
     ry="6.8055277"
     transform="matrix(0.00524063,-0.99998627,0.99998801,0.00489691,0,0)"
     style="isolation:isolate;fill:#c000ff;fill-opacity:0.13470298;stroke:url(#linearGradient872);stroke-width:2.0301;stroke-miterlimit:4;stroke-dasharray:none;stroke-opacity:1"
     width="45.801998" />
  <rect
     x="-15.686804"
     y="17.260084"
     height="33.345856"
     rx="6.7920032"
     shape-rendering="crispEdges"
     id="rect5-6-6-6-6"
     style="isolation:isolate;fill:#c000ff;fill-opacity:0.13470298;stroke:url(#linearGradient15);stroke-width:1.67233;stroke-miterlimit:4;stroke-dasharray:none;stroke-opacity:1"
     ry="7.4743071"
     transform="matrix(0.72446484,-0.68931175,0.68622417,0.72739012,0,0)"
     width="33.338203" />
  <path
     style="color:#000000;fill:url(#linearGradient1289);fill-rule:evenodd;-inkscape-stroke:none"
     d="m 25.628906,13.5 c -1.601233,0 -2.869403,0.934892 -3.818359,2.154297 C 20.925755,16.791251 20.310461,18.198004 19.806641,19.5 H 16.5 v 2 h 2.583984 c -0.306259,0.931544 -0.591797,1.833984 -0.591797,1.833984 l 0.01172,-0.04297 -1.646484,5.171875 c -0.430789,1.352836 -0.800789,2.498927 -1.152344,3.265625 -0.175777,0.383348 -0.351192,0.669515 -0.492187,0.828125 -0.140996,0.158609 -0.206603,0.173828 -0.25,0.173828 -0.300887,0 -0.425311,-0.0555 -0.501953,-0.107422 -0.07664,-0.05192 -0.131793,-0.127418 -0.216797,-0.269531 -0.08501,-0.142114 -0.188992,-0.353917 -0.41211,-0.546875 -0.223117,-0.192959 -0.560049,-0.314454 -0.943359,-0.314454 -0.809413,10e-7 -1.388672,0.628255 -1.388672,1.269532 0,0.513021 0.267819,1.052855 0.769531,1.341797 0.501713,0.288941 1.1686,0.396484 2.101563,0.396484 1.761487,0 3.1422,-1.107841 4.191406,-2.671875 1.049206,-1.564034 1.832787,-3.619146 2.505859,-5.753906 l 0.746094,-2.388672 C 22.548576,21.337911 22.470003,21.607464 22.507812,21.5 H 25 27.083984 c -0.306259,0.931544 -0.591797,1.833984 -0.591797,1.833984 l 0.01172,-0.04297 -1.646484,5.171875 c -0.430789,1.352836 -0.800789,2.498927 -1.152344,3.265625 -0.175777,0.383348 -0.351192,0.669515 -0.492187,0.828125 -0.140996,0.158609 -0.206603,0.173828 -0.25,0.173828 -0.300887,0 -0.425311,-0.0555 -0.501954,-0.107422 -0.07664,-0.05192 -0.131792,-0.127418 -0.216796,-0.269531 -0.085,-0.142114 -0.188992,-0.353917 -0.41211,-0.546875 -0.223117,-0.192959 -0.560049,-0.314454 -0.943359,-0.314454 -0.809413,10e-7 -1.388672,0.628255 -1.388672,1.269532 0,0.513021 0.267819,1.052855 0.769531,1.341797 0.501713,0.288941 1.1686,0.396484 2.101563,0.396484 1.761487,0 3.1422,-1.107841 4.191406,-2.671875 1.049206,-1.564034 1.832787,-3.619146 2.505859,-5.753906 l 0.746094,-2.388672 C 30.548576,21.337911 30.470003,21.607464 30.507812,21.5 H 33.5 v -2 h -2.341797 c 0.472908,-1.467938 0.876403,-2.676003 1.195313,-3.345703 0.179473,-0.376889 0.344486,-0.627361 0.466796,-0.753906 0.122311,-0.126545 0.161844,-0.13086 0.216797,-0.13086 0.301337,0 0.427227,0.05581 0.503907,0.107422 0.07668,0.05161 0.131852,0.124528 0.216796,0.265625 0.08494,0.141097 0.188831,0.353072 0.41211,0.544922 0.223279,0.19185 0.558659,0.3125 0.941406,0.3125 0.374352,0 0.712659,-0.0858 0.976563,-0.294922 C 36.351794,15.995959 36.5,15.658529 36.5,15.337891 36.5,14.824869 36.250406,14.281636 35.751953,13.960938 35.2535,13.640239 34.571242,13.5 33.628906,13.5 c -1.601233,0 -2.869403,0.934892 -3.818359,2.154297 C 28.925755,16.791251 28.310461,18.198004 27.806641,19.5 H 25 23.158203 c 0.472908,-1.467938 0.876403,-2.676003 1.195313,-3.345703 0.179473,-0.376889 0.344486,-0.627361 0.466796,-0.753906 0.122311,-0.126545 0.161844,-0.13086 0.216797,-0.13086 0.301337,0 0.427227,0.05581 0.503907,0.107422 0.07668,0.05161 0.131852,0.124528 0.216796,0.265625 0.08494,0.141097 0.188831,0.353072 0.41211,0.544922 0.223279,0.19185 0.558659,0.3125 0.941406,0.3125 0.374352,0 0.712659,-0.0858 0.976563,-0.294922 C 28.351794,15.995959 28.5,15.658529 28.5,15.337891 28.5,14.824869 28.250406,14.281636 27.751953,13.960938 27.2535,13.640239 26.571242,13.5 25.628906,13.5 Z m 0.515625,1.097656 c 0.422493,0.05414 0.902902,0.09793 1.066406,0.203125 0.242547,0.156051 0.289063,0.281132 0.289063,0.53711 0,0.06436 -8.57e-4,0.05835 -0.0332,0.08398 -0.03235,0.02563 -0.136822,0.07813 -0.355469,0.07813 -0.209752,0 -0.245888,-0.03349 -0.291016,-0.07227 -0.04513,-0.03877 -0.106851,-0.134378 -0.207031,-0.300781 -0.09141,-0.151842 -0.244286,-0.357977 -0.46875,-0.529297 z m 8,0 c 0.422493,0.05414 0.902902,0.09793 1.066406,0.203125 0.242547,0.156051 0.289063,0.281132 0.289063,0.53711 0,0.06436 -8.57e-4,0.05835 -0.0332,0.08398 -0.03235,0.02563 -0.136822,0.07813 -0.355469,0.07813 -0.209752,0 -0.245888,-0.03349 -0.291016,-0.07227 -0.04513,-0.03877 -0.106851,-0.134378 -0.207031,-0.300781 -0.09141,-0.151842 -0.244286,-0.357977 -0.46875,-0.529297 z m -10.287109,0.488282 c -0.137036,0.198325 -0.2802,0.369868 -0.408203,0.638671 -0.396527,0.832694 -0.81385,2.081297 -1.353516,3.775391 H 21.957031 V 20 c 0,0 0.112086,0.0186 0.152344,0.02539 L 22.457031,20.5 H 21.78125 l -0.115234,0.341797 c -0.06489,0.19375 0.04448,-0.168651 -0.804688,2.546875 l -0.746094,2.386719 c -0.660794,2.095541 -1.433054,4.078351 -2.382812,5.49414 -0.49274,0.73452 -1.02212,1.287062 -1.59961,1.667969 0.168279,-0.238122 0.334783,-0.473291 0.480469,-0.791016 0.396195,-0.86405 0.766056,-2.024745 1.197266,-3.378906 l 1.652344,-5.193359 0.0059,-0.02344 c 0,0 0.09336,-0.428251 0.775391,-2.386719 L 20.474609,20.5 h -0.0078 l 0.11914,-0.330078 c 0.0064,-0.01788 0.009,-0.02566 0.01367,-0.03906 0.501138,-1.333743 1.159458,-2.783188 2,-3.863281 0.385116,-0.494872 0.806715,-0.879967 1.257813,-1.18164 z m 8,0 c -0.137036,0.198325 -0.2802,0.369868 -0.408203,0.638671 -0.396527,0.832694 -0.81385,2.081297 -1.353516,3.775391 H 29.957031 V 20 c 0,0 0.112086,0.0186 0.152344,0.02539 L 30.457031,20.5 H 29.78125 l -0.115234,0.341797 c -0.06489,0.19375 0.04448,-0.168651 -0.804688,2.546875 l -0.746094,2.386719 c -0.660794,2.095541 -1.433054,4.078351 -2.382812,5.49414 -0.49274,0.73452 -1.02212,1.287062 -1.59961,1.667969 0.168279,-0.238122 0.334783,-0.473291 0.480469,-0.791016 0.396195,-0.86405 0.766056,-2.024745 1.197266,-3.378906 l 1.652344,-5.193359 0.0059,-0.02344 c 0,0 0.09336,-0.428251 0.775391,-2.386719 L 28.474609,20.5 h -0.0078 l 0.11914,-0.330078 c 0.0064,-0.01788 0.009,-0.02566 0.01367,-0.03906 0.501138,-1.333743 1.159458,-2.783188 2,-3.863281 0.385116,-0.494872 0.806715,-0.879967 1.257813,-1.18164 z m -18.96875,17.406249 c 0.209189,0 0.243774,0.0331 0.289062,0.07227 0.04529,0.03917 0.106911,0.135349 0.207032,0.302734 0.09443,0.157872 0.247846,0.375291 0.486328,0.550782 -0.444556,-0.04646 -0.938838,-0.0868 -1.103516,-0.181641 C 12.528291,33.09852 12.5,33.017697 12.5,32.761719 c 0,-0.128723 0.01209,-0.269532 0.388672,-0.269532 z m 8,0 c 0.209189,0 0.243774,0.0331 0.289062,0.07227 0.04529,0.03917 0.106911,0.135349 0.207032,0.302734 0.09443,0.157872 0.247846,0.375291 0.486328,0.550782 -0.444556,-0.04646 -0.938838,-0.0868 -1.103516,-0.181641 C 20.528291,33.09852 20.5,33.017697 20.5,32.761719 c 0,-0.128723 0.01209,-0.269532 0.388672,-0.269532 z"
     id="path7" />
</svg>
