<?xml version="1.0" encoding="UTF-8" standalone="no"?>
<!-- Generator: Gravit.io -->

<svg
   style="isolation:isolate"
   viewBox="0 0 48 48"
   width="48pt"
   height="48pt"
   version="1.1"
   id="svg18"
   sodipodi:docname="gajim.svg"
   inkscape:version="1.1.2 (0a00cf5339, 2022-02-04)"
   xmlns:inkscape="http://www.inkscape.org/namespaces/inkscape"
   xmlns:sodipodi="http://sodipodi.sourceforge.net/DTD/sodipodi-0.dtd"
   xmlns:xlink="http://www.w3.org/1999/xlink"
   xmlns="http://www.w3.org/2000/svg"
   xmlns:svg="http://www.w3.org/2000/svg">
  <defs
     id="defs22">
    <linearGradient
       inkscape:collect="always"
       xlink:href="#_lgradient_3"
       id="linearGradient872"
       x1="-12.025727"
       y1="6.1170783"
       x2="-0.085100174"
       y2="6.1170783"
       gradientUnits="userSpaceOnUse"
       gradientTransform="matrix(3.8358211,0,0,3.8371386,-0.00544341,-0.00268054)" />
    <linearGradient
       id="_lgradient_1"
       x1="0.18336116"
       y1="0.24917752"
       x2="0.9027437"
       y2="0.90347725"
       gradientTransform="matrix(24.617266,0,0,24.816118,10.841288,10.089605)"
       gradientUnits="userSpaceOnUse">
      <stop
         offset="2.608695652173913%"
         stop-opacity="1"
         style="stop-color:rgb(179,255,171)"
         id="stop2-3" />
      <stop
         offset="98.69565217391305%"
         stop-opacity="1"
         style="stop-color:rgb(18,255,247)"
         id="stop4-6" />
    </linearGradient>
    <linearGradient
       inkscape:collect="always"
       xlink:href="#_lgradient_3"
       id="linearGradient15"
       x1="-9.6850061"
       y1="45.161198"
       x2="11.98815"
       y2="21.735205"
       gradientUnits="userSpaceOnUse"
       gradientTransform="matrix(1.1147442,0,0,1.1150348,-0.01237238,-3.3277956)" />
    <linearGradient
       inkscape:collect="always"
       xlink:href="#_lgradient_3"
       id="linearGradient952"
       x1="9.2580805"
       y1="21.930744"
       x2="38.739174"
       y2="21.930744"
       gradientUnits="userSpaceOnUse" />
  </defs>
  <sodipodi:namedview
     id="namedview20"
     pagecolor="#ffffff"
     bordercolor="#666666"
     borderopacity="1.0"
     inkscape:pageshadow="2"
     inkscape:pageopacity="0.0"
     inkscape:pagecheckerboard="0"
     inkscape:document-units="pt"
     showgrid="false"
     inkscape:zoom="7.2257474"
     inkscape:cx="32.038208"
     inkscape:cy="31.969011"
     inkscape:window-width="1600"
     inkscape:window-height="836"
     inkscape:window-x="0"
     inkscape:window-y="0"
     inkscape:window-maximized="1"
     inkscape:current-layer="svg18" />
  <linearGradient
     id="_lgradient_2"
     x1="0"
     y1="0.5"
     x2="0.9074880558539661"
     y2="0.9200778838291643"
     gradientTransform="matrix(21,0,0,21,13.5,0.5)"
     gradientUnits="userSpaceOnUse">
    <stop
       offset="0%"
       stop-opacity="1"
       style="stop-color:rgb(247,241,7)"
       id="stop2" />
    <stop
       offset="83.88839793817618%"
       stop-opacity="1"
       style="stop-color:rgb(255,187,36)"
       id="stop4" />
  </linearGradient>
  <rect
     x="-46.783188"
     y="1.2253767"
     height="45.80014"
     rx="6.1837621"
     shape-rendering="crispEdges"
     id="rect5-6-7-3"
     ry="6.8055277"
     transform="matrix(0.00524063,-0.99998627,0.99998801,0.00489691,0,0)"
     style="isolation:isolate;fill:#00ffc3;fill-opacity:0.134703;stroke:url(#linearGradient872);stroke-width:2.0301;stroke-miterlimit:4;stroke-dasharray:none;stroke-opacity:1"
     width="45.801998" />
  <rect
     x="-15.686804"
     y="17.260084"
     height="33.345856"
     rx="6.7920032"
     shape-rendering="crispEdges"
     id="rect5-6-6-6-6"
     style="isolation:isolate;fill:#00ffc3;fill-opacity:0.134703;stroke:url(#linearGradient15);stroke-width:1.67233;stroke-miterlimit:4;stroke-dasharray:none;stroke-opacity:1"
     ry="7.4743071"
     transform="matrix(0.72446484,-0.68931175,0.68622417,0.72739012,0,0)"
     width="33.338203" />
  <linearGradient
     id="_lgradient_3"
     x1="0.5110008531028347"
     y1="1.0271783721693466"
     x2="0.49078879258491215"
     y2="0.12467388664230983"
     gradientTransform="matrix(46.996,0,0,30.47,0.501,17.03)"
     gradientUnits="userSpaceOnUse">
    <stop
       offset="0%"
       stop-opacity="1"
       style="stop-color:rgb(126,235,218)"
       id="stop9" />
    <stop
       offset="49.56869043334445%"
       stop-opacity="1"
       style="stop-color:rgb(115,255,68)"
       id="stop11" />
    <stop
       offset="98.69565217391305%"
       stop-opacity="1"
       style="stop-color:rgb(255,205,62)"
       id="stop13" />
  </linearGradient>
  <path
     style="color:#000000;fill:url(#linearGradient952);-inkscape-stroke:none"
     d="m 24,6.6894531 c -1.876157,0 -3.684035,0.7486397 -5.007813,2.078125 -1.330708,1.3239529 -2.080078,3.1307359 -2.080078,5.0078129 0,1.2162 0.412703,2.347069 0.996094,3.392578 l -1.087891,0.21289 c -1.044304,0.203788 -2.056848,0.560329 -2.998046,1.060547 v -0.002 c -0.904593,0.478902 -1.714513,1.111851 -2.404297,1.861328 h -0.002 v 0.002 c -0.701285,0.77406 -1.263504,1.646845 -1.6855472,2.589844 l -0.00195,0.002 c -0.4501769,1.017793 -0.7687031,2.094636 -0.9511718,3.189453 v 0.002 c -0.065633,0.412551 0.051289,0.841114 0.3242187,1.164063 0.2734902,0.32986 0.6792085,0.513672 1.0976565,0.513672 h 3.576172 v 6.71289 c 0,0.714503 0.286909,1.40032 0.794922,1.902344 0.502023,0.508012 1.187842,0.792969 1.902343,0.792969 h 15.054688 c 0.714501,0 1.400318,-0.284958 1.902343,-0.792969 0.508011,-0.502024 0.792969,-1.187841 0.792969,-1.902344 v -6.71289 h 3.578125 c 0.406326,0 0.787894,-0.175342 1.060547,-0.466797 l 0.0039,-0.002 0.002,-0.0039 c 0.270223,-0.299175 0.403138,-0.697825 0.365235,-1.101563 v -0.002 c -0.08611,-0.945168 -0.310644,-1.877736 -0.667969,-2.757813 v -0.002 l -0.002,-0.002 C 38.198654,22.552549 37.707808,21.73734 37.097656,21.007812 v -0.002 c -0.637761,-0.756111 -1.37425,-1.417317 -2.179687,-1.980468 v -0.002 l -0.002,-0.002 C 34.030447,18.413868 33.085761,17.890192 32.09375,17.46875 l -1.326172,-0.566406 -1.132812,2.65039 1.298828,0.554688 2.351562,1.296875 c 0.596114,0.410332 1.136376,0.902504 1.607422,1.455078 0.412209,0.499553 0.74978,1.056737 1,1.654297 0.04822,0.120557 0.0775,0.245138 0.119141,0.367187 h -4.669922 v 9.410157 H 16.658203 v -9.410157 h -4.585937 c 0.09434,-0.273649 0.174305,-0.551201 0.289062,-0.818359 l 0.002,-0.0039 c 5.74e-4,-0.0013 0.0014,-0.0026 0.002,-0.0039 0.297997,-0.658132 0.692506,-1.270314 1.173829,-1.804687 l 0.002,-0.002 c 6.04e-4,-6.71e-4 0.0013,-0.0013 0.002,-0.002 0.469607,-0.50929 1.019365,-0.93656 1.625,-1.259766 0.696163,-0.365781 1.439581,-0.625241 2.208984,-0.779297 l 1.414063,-0.279297 -0.404297,-2.046875 c 0.215029,0.294205 0.34237,0.642321 0.603515,0.902344 3.89e-4,3.91e-4 0.0016,-3.9e-4 0.002,0 3.91e-4,3.89e-4 -3.9e-4,0.0016 0,0.002 1.323865,1.329574 3.131832,2.078125 5.007813,2.078125 1.875979,0 3.681995,-0.74855 5.005859,-2.078125 l 0.002,-0.002 c 1.329575,-1.323865 2.078126,-3.131657 2.078125,-5.007812 0,-1.876157 -0.748638,-3.682082 -2.078125,-5.0058597 C 27.683861,7.4388238 25.877075,6.6894531 24,6.6894531 Z m 0,1 c 1.610752,0 3.163736,0.6442722 4.298828,1.7851563 h 0.002 v 0.00195 c 1.140886,1.1350945 1.785156,2.6880745 1.785156,4.2988285 0,1.610753 -0.644359,3.165777 -1.785156,4.300781 v 0.002 h -0.002 c -1.135004,1.140798 -2.6879,1.785156 -4.298828,1.785156 -1.61093,0 -3.165775,-0.644358 -4.300781,-1.785156 l -0.002,-0.002 c -1.140797,-1.135004 -1.785157,-2.690028 -1.785157,-4.300781 0,-1.610755 0.644271,-3.163735 1.785157,-4.2988285 l 0.002,-0.00195 C 20.834312,8.333725 22.389246,7.6894531 24,7.6894531 Z m 0,0.8808594 c -1.380704,0 -2.707077,0.5497403 -3.679688,1.5292965 -0.977593,0.972327 -1.52539,2.296552 -1.52539,3.675782 0,1.379781 0.547062,2.705302 1.52539,3.677734 3.89e-4,3.91e-4 0.0016,-3.91e-4 0.002,0 3.91e-4,3.89e-4 -3.92e-4,0.0016 0,0.002 0.972433,0.978329 2.297952,1.525391 3.677734,1.525391 1.379229,0 2.703455,-0.547796 3.675781,-1.525391 0.979558,-0.97261 1.529297,-2.298985 1.529297,-3.679687 0,-1.378862 -0.548288,-2.703527 -1.525391,-3.675782 l -0.002,-0.002 C 26.705301,9.1193275 25.379781,8.5703125 24,8.5703125 Z m 0,1 c 1.11598,0 2.184898,0.4429725 2.96875,1.2324215 l 0.002,0.002 0.002,0.002 c 0.789451,0.783851 1.232422,1.852769 1.232422,2.96875 0,1.11598 -0.442972,2.186852 -1.232422,2.970703 h -0.002 l -0.002,0.002 c -0.783852,0.78945 -1.85277,1.232422 -2.96875,1.232422 -1.115982,0 -2.186852,-0.442972 -2.970703,-1.232422 v -0.002 h -0.002 c -0.789449,-0.783851 -1.232422,-1.854722 -1.232422,-2.970703 0,-1.115981 0.442972,-2.184899 1.232422,-2.96875 l 0.002,-0.002 v -0.002 C 21.813149,10.013285 22.884018,9.5703125 24,9.5703125 Z m 7.294922,8.6445315 0.40625,0.173828 c 0.927551,0.394057 1.815181,0.885308 2.648437,1.457031 0.736373,0.515288 1.404116,1.119065 1.982422,1.804688 0.544095,0.650546 0.982403,1.377295 1.308594,2.160156 0.319,0.786818 0.518715,1.621887 0.595703,2.46875 v 0.002 c 0.01147,0.120423 -0.03142,0.244978 -0.109375,0.333984 -0.09076,0.09521 -0.207009,0.148438 -0.326172,0.148438 h -4.578125 v 7.71289 c 0,0.450781 -0.178082,0.880166 -0.496094,1.19336 l -0.0039,0.0039 -0.002,0.002 c -0.313194,0.318012 -0.74258,0.496094 -1.193359,0.496094 H 16.472656 c -0.450779,0 -0.880167,-0.178083 -1.193359,-0.496094 l -0.0039,-0.002 -0.002,-0.0039 c -0.318013,-0.313194 -0.498047,-0.742579 -0.498047,-1.19336 v -7.71289 h -4.576172 c -0.132076,0 -0.2522998,-0.05595 -0.3300784,-0.150391 l -0.00195,-0.0039 -0.00391,-0.0039 C 9.7762674,26.503452 9.7431451,26.38373 9.7636719,26.248047 v -0.002 c 1.07e-4,-6.9e-4 -1.098e-4,-0.0013 0,-0.002 0.1688215,-1.011042 0.4643051,-2.003649 0.8789061,-2.941407 v -0.002 c 0.380464,-0.849688 0.884335,-1.631289 1.511719,-2.324219 l 0.002,-0.002 c 0.614604,-0.667341 1.333895,-1.2264 2.134766,-1.65039 0.852357,-0.453002 1.772762,-0.775739 2.722656,-0.960938 l 0.43164,-0.08594 0.169922,0.863281 -0.43164,0.08594 c -0.860951,0.172191 -1.696735,0.463208 -2.480469,0.875 l -0.002,0.002 h -0.002 c -0.70956,0.37843 -1.349075,0.878108 -1.894531,1.470703 l -0.002,0.002 -0.002,0.002 c -0.556427,0.616763 -1.010857,1.317371 -1.351562,2.072266 l -0.002,0.0039 -0.002,0.0039 c -0.221532,0.514737 -0.411692,1.045621 -0.5625,1.589844 l -0.173829,0.632812 h 4.949219 v 8.595703 c 0,0.200699 0.08487,0.407445 0.248047,0.566407 0.158958,0.163191 0.365708,0.248047 0.566406,0.248047 h 15.054688 c 0.200698,0 0.407444,-0.08485 0.566406,-0.248047 0.163206,-0.158975 0.248047,-0.365747 0.248047,-0.566407 v -8.595703 h 4.992187 l -0.152343,-0.61914 c -0.09341,-0.38031 -0.212832,-0.754733 -0.359375,-1.121094 l -0.002,-0.002 -0.002,-0.0039 c -0.28877,-0.691709 -0.677718,-1.336797 -1.154297,-1.914063 l -0.002,-0.002 -0.002,-0.0039 c -0.529184,-0.621791 -1.140291,-1.177236 -1.818359,-1.642578 l -0.01953,-0.01563 -2.445313,-1.345704 -0.02344,-0.0098 -0.40625,-0.173828 z m -10.166016,2.162109 -2.730469,0.904297 1.230469,3.695312 c 0.29998,0.900797 1.175811,1.53125 2.125,1.53125 h 4.492188 c 0.949189,10e-7 1.825021,-0.630452 2.125,-1.53125 l 1.228515,-3.695312 -2.730468,-0.904297 -0.15625,0.472656 -0.927735,2.777344 h -3.570312 z m -0.632812,1.263672 0.998047,2.986328 h 5.011718 l 0.996094,-2.986328 0.833984,0.275391 -0.914062,2.74414 c -0.137881,0.414039 -0.739876,0.847656 -1.175781,0.847656 h -4.492188 c -0.435905,0 -1.039852,-0.433616 -1.177734,-0.847656 l -0.91211,-2.74414 z"
     id="path16" />
</svg>
