<?xml version="1.0" encoding="UTF-8" standalone="no"?>
<svg
   viewBox="0 0 48 48"
   width="64"
   height="64"
   version="1.1"
   id="svg11"
   sodipodi:docname="gdevelop.svg"
   inkscape:version="1.1.2 (0a00cf5339, 2022-02-04)"
   xmlns:inkscape="http://www.inkscape.org/namespaces/inkscape"
   xmlns:sodipodi="http://sodipodi.sourceforge.net/DTD/sodipodi-0.dtd"
   xmlns:xlink="http://www.w3.org/1999/xlink"
   xmlns="http://www.w3.org/2000/svg"
   xmlns:svg="http://www.w3.org/2000/svg">
  <sodipodi:namedview
     id="namedview13"
     pagecolor="#ffffff"
     bordercolor="#666666"
     borderopacity="1.0"
     inkscape:pageshadow="2"
     inkscape:pageopacity="0.0"
     inkscape:pagecheckerboard="0"
     showgrid="false"
     inkscape:zoom="10.21875"
     inkscape:cx="47.021407"
     inkscape:cy="23.779816"
     inkscape:window-width="1600"
     inkscape:window-height="836"
     inkscape:window-x="0"
     inkscape:window-y="0"
     inkscape:window-maximized="1"
     inkscape:current-layer="svg11" />
  <defs
     id="defs7">
    <linearGradient
       inkscape:collect="always"
       id="linearGradient953">
      <stop
         style="stop-color:#1bce89;stop-opacity:1;"
         offset="0"
         id="stop949" />
      <stop
         style="stop-color:#4d8fd4;stop-opacity:1"
         offset="1"
         id="stop951" />
    </linearGradient>
    <linearGradient
       id="A"
       x1="64.041"
       y1="55.474"
       x2="92.787"
       y2="27.394"
       gradientTransform="matrix(0.55888697,0,0,0.55888697,-21.182007,2.647276)"
       gradientUnits="userSpaceOnUse">
      <stop
         offset="0%"
         stop-color="#1bce89"
         id="stop2" />
      <stop
         offset="100%"
         stop-color="#4e8ed5"
         id="stop4" />
    </linearGradient>
    <linearGradient
       inkscape:collect="always"
       xlink:href="#A"
       id="linearGradient872"
       x1="-12.025727"
       y1="6.1170783"
       x2="-0.085100174"
       y2="6.1170783"
       gradientUnits="userSpaceOnUse"
       gradientTransform="matrix(3.8358211,0,0,3.8371386,-0.00544341,-0.00268054)" />
    <linearGradient
       id="_lgradient_1"
       x1="0.18336116"
       y1="0.24917752"
       x2="0.9027437"
       y2="0.90347725"
       gradientTransform="matrix(24.617266,0,0,24.816118,10.841288,10.089605)"
       gradientUnits="userSpaceOnUse">
      <stop
         offset="2.608695652173913%"
         stop-opacity="1"
         style="stop-color:rgb(179,255,171)"
         id="stop2-3" />
      <stop
         offset="98.69565217391305%"
         stop-opacity="1"
         style="stop-color:rgb(18,255,247)"
         id="stop4-6" />
    </linearGradient>
    <linearGradient
       inkscape:collect="always"
       xlink:href="#A"
       id="linearGradient15"
       x1="-9.6850061"
       y1="45.161198"
       x2="11.98815"
       y2="21.735205"
       gradientUnits="userSpaceOnUse"
       gradientTransform="matrix(1.1147442,0,0,1.1150348,-0.01237238,-3.3277956)" />
    <linearGradient
       inkscape:collect="always"
       xlink:href="#linearGradient953"
       id="linearGradient955"
       x1="8.7430549"
       y1="25.246138"
       x2="36.189404"
       y2="25.246138"
       gradientUnits="userSpaceOnUse" />
  </defs>
  <rect
     x="-46.783188"
     y="1.2253767"
     height="45.80014"
     rx="6.1837621"
     shape-rendering="crispEdges"
     id="rect5-6-7-3"
     ry="6.8055277"
     transform="matrix(0.00524063,-0.99998627,0.99998801,0.00489691,0,0)"
     style="isolation:isolate;fill:#00ffc3;fill-opacity:0.134703;stroke:url(#linearGradient872);stroke-width:2.0301;stroke-miterlimit:4;stroke-dasharray:none;stroke-opacity:1"
     width="45.801998" />
  <rect
     x="-15.686804"
     y="17.260084"
     height="33.345856"
     rx="6.7920032"
     shape-rendering="crispEdges"
     id="rect5-6-6-6-6"
     style="isolation:isolate;fill:#00ffc3;fill-opacity:0.134703;stroke:url(#linearGradient15);stroke-width:1.67233;stroke-miterlimit:4;stroke-dasharray:none;stroke-opacity:1"
     ry="7.4743071"
     transform="matrix(0.72446484,-0.68931175,0.68622417,0.72739012,0,0)"
     width="33.338203" />
  <path
     style="color:#000000;fill:url(#linearGradient955);-inkscape-stroke:none;fill-opacity:1"
     d="m 34.675781,14.291016 c -3.939462,0 -7.927711,-0.14258 -11.890625,0.03125 -2.192274,0.09627 -4.750273,0.560631 -6.353515,2.388671 -0.728531,0.830171 -1.181205,1.824431 -1.441407,2.865235 -0.706116,2.824464 -0.539956,6.591774 1.886719,8.720703 2.140713,1.877885 4.988409,2.218926 7.619141,2.103516 0.856578,-0.03738 1.711191,-0.120355 2.5625,-0.261719 0.279253,-0.04628 0.747327,-0.0337 1.171875,-0.253906 0.219664,-0.113772 0.291923,-0.302924 0.335937,-0.433594 0.04401,-0.130671 0.06573,-0.244062 0.07617,-0.275391 l 0.441406,-1.324219 1.646485,-5.03125 v -0.002 c 0.086,-0.258081 0.235144,-0.64154 0.261718,-1.05664 0.01331,-0.207912 -0.0043,-0.432835 -0.105468,-0.648438 -0.101197,-0.215603 -0.296124,-0.406808 -0.546875,-0.515625 -0.814627,-0.353132 -1.7538,-0.175781 -2.40625,-0.175781 h -3.324219 c -0.58441,0 -1.270824,-0.07809 -1.957031,0.08398 -1.109231,0.260727 -1.78281,1.496798 -1.238282,2.560547 0.35306,0.688293 1.101424,0.901198 1.78711,0.951172 0.686153,0.05001 1.39154,-0.03711 1.828125,-0.03711 0.204205,0 0.457881,-0.03539 0.689453,-0.0332 0.09735,9.2e-4 0.170978,0.01221 0.226562,0.02344 -0.002,0.01185 -0.0011,-0.0056 -0.0059,0.0098 -0.02629,0.08481 -0.07669,0.189445 -0.117187,0.316406 v 0.002 l -0.50586,1.613281 c -0.04316,0.132996 -0.05997,0.248281 -0.08594,0.339844 -0.02628,0.09268 -0.08043,0.123277 -0.0039,0.07227 0.05075,-0.03387 1.37e-4,-0.0047 -0.07422,0 -0.07631,0.0048 -0.169285,0.0016 -0.253907,0.002 -0.406513,0.0019 -0.774019,0.04796 -1.111328,0.0332 -1.520952,-0.06669 -3.172749,-0.268549 -4.158203,-1.332031 -0.504812,-0.544488 -0.691152,-1.323666 -0.746094,-2.125 -0.05248,-0.764293 0.002,-1.606105 0.242188,-2.326172 0.240139,-0.720067 0.649512,-1.310847 1.333984,-1.664063 0.683424,-0.352692 2.014411,-0.527152 3.140625,-0.578125 1.126214,-0.05097 2.054688,-0.002 2.054688,-0.002 l 0.0098,0.002 c 3.508448,0.0017 7.016901,-0.0027 10.525348,7.91e-4 l -1.236285,-4.043759 z m -0.277344,0.75 0.773438,2.542968 h -9.476563 c 0,0 -0.963633,-0.05283 -2.130859,0 -1.167226,0.05283 -2.529473,0.187459 -3.449219,0.66211 -0.883125,0.455728 -1.417092,1.239973 -1.701172,2.091797 -0.284079,0.851823 -0.3366,1.780651 -0.279296,2.615234 0.06036,0.880339 0.262047,1.849125 0.943359,2.583984 1.22979,1.327166 3.121142,1.502062 4.677734,1.570313 0.419505,0.01836 0.798639,-0.02959 1.146485,-0.03125 0.05644,-2.44e-4 0.171104,0.004 0.296875,-0.0039 0.12577,-0.0079 0.265211,-0.0049 0.443359,-0.123047 0.229237,-0.152819 0.268909,-0.345372 0.310547,-0.492188 0.04164,-0.146816 0.0685,-0.287105 0.07813,-0.316406 v -0.002 l 0.505859,-1.613281 v -0.002 c 0.01447,-0.04481 0.07105,-0.171493 0.117188,-0.320312 0.04638,-0.14962 0.109778,-0.349553 -0.0039,-0.59375 -0.101018,-0.217276 -0.297476,-0.312316 -0.457032,-0.357422 -0.159555,-0.04511 -0.315106,-0.05325 -0.466797,-0.05469 -0.30338,-0.0029 -0.619966,0.0332 -0.697265,0.0332 -0.525073,0 -1.193124,0.08136 -1.773438,0.03906 -0.580313,-0.04229 -0.991289,-0.184362 -1.175781,-0.544922 -0.326359,-0.637549 0.06867,-1.331463 0.744141,-1.490234 0.51341,-0.121263 1.144192,-0.0625 1.785156,-0.0625 h 3.324219 c 0.753236,0 1.605405,-0.105184 2.109375,0.113281 0.106803,0.04635 0.136063,0.08683 0.164062,0.146485 0.028,0.05965 0.04519,0.155066 0.03711,0.28125 -0.01616,0.252368 -0.134024,0.591204 -0.226563,0.86914 v 0.002 l -1.644531,5.033203 -0.441406,1.322266 c -0.03985,0.119543 -0.05625,0.214292 -0.07617,0.273438 -0.01992,0.05915 -0.03643,0.0399 0.0293,0.0059 -0.166674,0.08645 -0.577147,0.11998 -0.949219,0.181641 -0.818097,0.135849 -1.640703,0.215733 -2.470703,0.251953 -2.541851,0.111511 -5.168275,-0.228896 -7.09375,-1.917969 -2.101939,-1.844037 -2.314616,-5.333334 -1.654297,-7.974609 0.2378,-0.951198 0.645071,-1.831979 1.279297,-2.554688 1.379852,-1.573328 3.712846,-2.040182 5.822265,-2.132812 3.831157,-0.168051 7.714394,-0.03746 11.580078,-0.03125 z m -21.392578,5.371093 -1.367187,0.01172 -2.8906251,-0.002 v 0.375 c 0,2.002869 -0.082773,4.122082 0.4257812,6.158203 0.4943474,1.976115 1.6058259,3.797049 3.0058599,5.234375 3.903383,4.006838 10.286261,4.577663 15.427734,3.726563 2.805785,-0.46501 5.750003,-1.779397 7.236328,-4.449219 l 0.310547,-0.556641 h -0.638672 c -1.537854,-6.13e-4 -3.076627,-0.0045 -4.617188,0.0078 l -0.0957,0.002 -0.08398,0.04687 c 0,0 -0.565236,0.316384 -0.787109,0.423828 -0.476758,0.230634 -0.999621,0.396555 -1.529297,0.513672 -0.920863,0.20346 -1.86485,0.254032 -2.839844,0.296875 -2.534078,0.110858 -5.245116,-0.236643 -7.447266,-1.464844 C 14.93453,29.51984 13.456865,27.472925 13.113288,25.005842 12.975006,24.01364 12.982429,22.950525 12.982429,21.910139 l -0.002,-0.789062 c 6.47e-4,-0.06142 0.0098,-0.314453 0.0098,-0.314453 z m -0.77539,0.757813 0.002,0.740234 c 0,1.036252 -0.01007,2.131957 0.138672,3.199219 0.376438,2.703046 2.010148,4.95988 4.378906,6.28125 2.376755,1.325583 5.220692,1.675383 7.845703,1.560547 0.978984,-0.04302 1.966802,-0.09351 2.966797,-0.314453 0.574267,-0.126977 1.154716,-0.307851 1.697266,-0.570313 C 29.514785,31.942911 29.90646,31.720707 30,31.667969 c 1.249575,-0.0095 2.500704,-0.0065 3.751953,-0.0059 -1.425322,1.997106 -3.839339,3.111235 -6.267578,3.513672 C 22.496566,36.001445 16.357018,35.402718 12.716797,31.666016 11.399907,30.314048 10.358613,28.597337 9.9023438,26.773437 9.4576681,24.99307 9.4941587,23.071908 9.5,21.171875 l 2.142578,0.002 z"
     id="path9"
     sodipodi:nodetypes="cccsccccsccccsccssccssscccccsccccccccsccccccccscsccccscsccccscscscccsscssccccsccccscccccccsccccccccccccccccccccccccccccccccc" />
</svg>
