<?xml version="1.0" encoding="UTF-8" standalone="no"?>
<!-- Generator: Gravit.io -->

<svg
   style="isolation:isolate"
   viewBox="0 0 48 48"
   width="48pt"
   height="48pt"
   version="1.1"
   id="svg9"
   sodipodi:docname="geogebra.svg"
   inkscape:version="1.1.2 (0a00cf5339, 2022-02-04)"
   xmlns:inkscape="http://www.inkscape.org/namespaces/inkscape"
   xmlns:sodipodi="http://sodipodi.sourceforge.net/DTD/sodipodi-0.dtd"
   xmlns:xlink="http://www.w3.org/1999/xlink"
   xmlns="http://www.w3.org/2000/svg"
   xmlns:svg="http://www.w3.org/2000/svg">
  <defs
     id="defs13">
    <linearGradient
       inkscape:collect="always"
       xlink:href="#_lgradient_0"
       id="linearGradient872"
       x1="-12.025727"
       y1="6.1170783"
       x2="-0.085100174"
       y2="6.1170783"
       gradientUnits="userSpaceOnUse"
       gradientTransform="matrix(3.8358211,0,0,3.8371386,-0.00562311,-0.03937722)" />
    <linearGradient
       id="_lgradient_1"
       x1="0.18336116"
       y1="0.24917752"
       x2="0.9027437"
       y2="0.90347725"
       gradientTransform="matrix(24.617266,0,0,24.816118,10.841288,10.089605)"
       gradientUnits="userSpaceOnUse">
      <stop
         offset="2.608695652173913%"
         stop-opacity="1"
         style="stop-color:rgb(179,255,171)"
         id="stop2-3" />
      <stop
         offset="98.69565217391305%"
         stop-opacity="1"
         style="stop-color:rgb(18,255,247)"
         id="stop4-6" />
    </linearGradient>
    <linearGradient
       inkscape:collect="always"
       xlink:href="#_lgradient_0"
       id="linearGradient15"
       x1="-9.6850061"
       y1="45.161198"
       x2="11.98815"
       y2="21.735205"
       gradientUnits="userSpaceOnUse"
       gradientTransform="matrix(1.1147442,0,0,1.1150348,-0.03906579,-3.3530916)" />
    <linearGradient
       inkscape:collect="always"
       xlink:href="#_lgradient_0"
       id="linearGradient1067"
       x1="11.013045"
       y1="23.344057"
       x2="38.636639"
       y2="23.344057"
       gradientUnits="userSpaceOnUse" />
  </defs>
  <sodipodi:namedview
     id="namedview11"
     pagecolor="#ffffff"
     bordercolor="#666666"
     borderopacity="1.0"
     inkscape:pageshadow="2"
     inkscape:pageopacity="0.0"
     inkscape:pagecheckerboard="0"
     inkscape:document-units="pt"
     showgrid="false"
     inkscape:zoom="10.21875"
     inkscape:cx="31.95107"
     inkscape:cy="32"
     inkscape:window-width="1600"
     inkscape:window-height="836"
     inkscape:window-x="0"
     inkscape:window-y="0"
     inkscape:window-maximized="1"
     inkscape:current-layer="svg9" />
  <linearGradient
     id="_lgradient_0"
     x1="0.03693181818181812"
     y1="0.669642857142857"
     x2="0.954763986013986"
     y2="0.1507173382173378"
     gradientTransform="matrix(27.623592,0,0,26.367974,11.013045,10.160063)"
     gradientUnits="userSpaceOnUse">
    <stop
       offset="0%"
       stop-opacity="1"
       style="stop-color:rgb(199,81,251)"
       id="stop2" />
    <stop
       offset="97.5%"
       stop-opacity="1"
       style="stop-color:rgb(109,68,222)"
       id="stop4" />
  </linearGradient>
  <rect
     x="-46.783367"
     y="1.1886801"
     height="45.80014"
     rx="6.1837621"
     shape-rendering="crispEdges"
     id="rect5-6-7-3"
     ry="6.8055277"
     transform="matrix(0.00524063,-0.99998627,0.99998801,0.00489691,0,0)"
     style="isolation:isolate;fill:#8d00ff;fill-opacity:0.13470298;stroke:url(#linearGradient872);stroke-width:2.0301;stroke-miterlimit:4;stroke-dasharray:none;stroke-opacity:1"
     width="45.801998" />
  <rect
     x="-15.713497"
     y="17.234789"
     height="33.345856"
     rx="6.7920032"
     shape-rendering="crispEdges"
     id="rect5-6-6-6-6"
     style="isolation:isolate;fill:#8d00ff;fill-opacity:0.13470298;stroke:url(#linearGradient15);stroke-width:1.67233;stroke-miterlimit:4;stroke-dasharray:none;stroke-opacity:1"
     ry="7.4743071"
     transform="matrix(0.72446484,-0.68931175,0.68622417,0.72739012,0,0)"
     width="33.338203" />
  <path
     style="color:#000000;fill:url(#linearGradient1067);fill-rule:evenodd;-inkscape-stroke:none"
     d="m 24.197266,9.6601563 c -1.870844,0 -3.386162,1.2630407 -3.951172,2.9511717 -0.309174,0.165487 -0.611088,0.341438 -0.902344,0.527344 -1.733293,1.079989 -3.247522,2.458197 -4.501953,4.05664 -0.02079,-2.87e-4 -0.04166,-0.002 -0.0625,-0.002 -2.349387,0 -4.265625,1.918192 -4.265625,4.267578 0,1.064508 0.428604,2.017387 1.085937,2.761719 -0.08414,0.548976 -0.141618,1.100279 -0.144531,1.654297 -0.01297,1.41914 0.298162,2.825707 0.908203,4.105469 l 0.002,0.002 v 0.002 c 0.355395,0.723907 0.849803,1.361028 1.400391,1.941406 -0.05796,0.273478 -0.113281,0.548995 -0.113281,0.833985 0,2.349387 1.916238,4.265625 4.265625,4.265625 1.596293,0 2.930823,-0.933362 3.654297,-2.244141 1.145802,-0.06969 2.2865,-0.249313 3.382812,-0.589844 0.566772,-0.17736 1.119646,-0.396156 1.664063,-0.632812 0.722286,0.575494 1.608984,0.957031 2.599609,0.957031 2.349387,0 4.267578,-1.918192 4.267578,-4.267578 0,-0.527315 -0.159425,-1.011645 -0.341797,-1.480469 0.596403,-0.701259 1.159002,-1.434352 1.648438,-2.222656 0.448104,-0.721848 0.817245,-1.48382 1.142578,-2.263672 1.833611,-0.472043 3.201172,-2.104406 3.201172,-4.078125 0,-1.802432 -1.175991,-3.272568 -2.763672,-3.896484 -0.09946,-0.294824 -0.210513,-0.582244 -0.341797,-0.857422 l -0.002,-0.0039 -0.002,-0.002 c -0.761453,-1.549623 -1.98356,-2.819188 -3.498047,-3.646485 h -0.002 C 31.779089,11.394902 30.97739,11.088801 30.148437,10.896484 h -0.002 C 29.287085,10.699675 28.409826,10.601562 27.53125,10.601563 h -0.002 -0.0039 c -0.227593,0.0021 -0.457035,0.01539 -0.6875,0.03125 -0.728045,-0.590567 -1.635177,-0.9726568 -2.640625,-0.9726567 z m 0,0.9999997 c 0.844737,0 1.609439,0.318264 2.183593,0.845703 l 0.16211,0.148438 0.21875,-0.01758 c 0.253216,-0.02179 0.509714,-0.03268 0.769531,-0.03516 0.803302,0 1.605769,0.08994 2.390625,0.269531 0.740568,0.171811 1.460267,0.444639 2.130859,0.80664 h -0.0039 c 1.335762,0.729668 2.412081,1.845578 3.082031,3.208985 0.125933,0.264474 0.230996,0.53125 0.31836,0.800781 v 0.277344 l 0.355468,0.107422 c 1.345903,0.402955 2.332032,1.650164 2.332032,3.132812 0,1.597845 -1.14207,2.920101 -2.652344,3.197266 l -0.271484,0.04883 -0.103516,0.255859 c -0.321569,0.802404 -0.708929,1.574231 -1.166016,2.310547 -0.504258,0.812178 -1.076546,1.579212 -1.703125,2.296875 l -0.21875,0.251953 0.148438,0.298828 c 0.205141,0.414041 0.316406,0.883238 0.316406,1.384766 0,1.807959 -1.459617,3.267578 -3.267578,3.267578 -0.858913,0 -1.633694,-0.329778 -2.208984,-0.873047 l -0.244141,-0.232422 -0.306641,0.140625 c -0.582002,0.265539 -1.184752,0.492161 -1.802734,0.685547 -1.081684,0.335812 -2.207239,0.529995 -3.341797,0.582031 l -0.308594,0.01563 -0.125,0.279297 c -0.506182,1.12805 -1.639675,1.91211 -2.96289,1.91211 -1.807959,0 -3.265625,-1.457665 -3.265625,-3.265625 0,-0.288559 0.03599,-0.562845 0.109375,-0.81836 l 0.08398,-0.287109 -0.214844,-0.208984 c -0.556234,-0.543421 -1.01533,-1.184845 -1.365234,-1.896485 v -0.002 c -4.08e-4,-8.3e-4 -0.0015,-0.0011 -0.002,-0.002 -0.543634,-1.141963 -0.820427,-2.396316 -0.808594,-3.662109 v -0.002 c 0.003,-0.570753 0.04974,-1.138282 0.146485,-1.697265 l 0.04492,-0.257813 -0.185546,-0.183593 c -0.588728,-0.581674 -0.947266,-1.386022 -0.947266,-2.283204 0,-1.807959 1.457664,-3.267578 3.265625,-3.267578 0.08039,0 0.159581,0.0023 0.238281,0.0078 l 0.269531,0.01953 0.164063,-0.214844 c 1.209743,-1.594522 2.709926,-2.952841 4.421875,-4.019531 h 0.002 l 0.002,-0.002 c 0.29851,-0.190681 0.600968,-0.369862 0.908203,-0.53125 l 0.199219,-0.105469 0.05273,-0.21875 c 0.348247,-1.417438 1.627916,-2.46875 3.160157,-2.46875 z m 2.972656,1.810547 0.1875,0.65625 c 0.07086,0.248808 0.107422,0.518825 0.107422,0.800781 0,1.80796 -1.459619,3.265625 -3.267578,3.265625 -1.43793,0 -2.652685,-0.9261 -3.089844,-2.210937 l -0.197266,-0.580078 -0.529297,0.310547 c -0.03398,0.01993 -0.04056,0.02484 -0.02148,0.01367 l -0.0059,0.0039 -0.0059,0.002 c -1.442428,0.900303 -2.730201,2.019369 -3.810547,3.324219 l -0.351562,0.421875 0.453125,0.310546 c 0.851745,0.58123 1.408203,1.557977 1.408203,2.671875 0,1.807961 -1.459619,3.265625 -3.267578,3.265625 -0.273287,0 -0.532891,-0.03215 -0.773438,-0.09961 l -0.589843,-0.166016 -0.04297,0.611329 c -0.01946,0.269964 -0.03317,0.541224 -0.03516,0.816406 -0.01317,1.131376 0.237035,2.248457 0.720703,3.269531 l 0.002,0.0039 0.002,0.0039 c 0.224264,0.451246 0.498652,0.87233 0.810547,1.257812 l 0.353516,0.4375 0.392578,-0.402344 c 0.582761,-0.597954 1.393426,-0.964843 2.298828,-0.964843 1.70484,0 3.099801,1.30072 3.257812,2.960937 l 0.04687,0.486328 0.486328,-0.03516 c 0.91413,-0.06562 1.813739,-0.241741 2.685547,-0.515625 0.486214,-0.149504 0.963467,-0.323326 1.431641,-0.519531 l 0.421875,-0.175782 -0.138672,-0.435546 c -0.10121,-0.318947 -0.15625,-0.658252 -0.15625,-1.009766 0,-1.807959 1.457666,-3.267578 3.265625,-3.267578 0.700516,0 1.342843,0.220524 1.865234,0.599609 l 0.371094,0.267578 0.300781,-0.34375 c 0.53195,-0.611286 1.011908,-1.267113 1.441407,-1.957031 v -0.002 c 0.317232,-0.513303 0.604232,-1.051291 0.839843,-1.619141 l 0.201172,-0.484375 -0.492187,-0.177734 c -1.249555,-0.452013 -2.142578,-1.64901 -2.142578,-3.060547 0,-1.521859 1.037095,-2.794607 2.439453,-3.154297 l 0.554687,-0.142578 -0.214844,-0.529297 c -0.0158,-0.03906 -0.03197,-0.07482 -0.04883,-0.109375 l -0.002,-0.002 v -0.002 c -0.591007,-1.18881 -1.530452,-2.176485 -2.703125,-2.810547 h -0.002 c -0.599799,-0.319892 -1.236311,-0.56942 -1.904297,-0.724609 -0.615122,-0.142665 -1.240762,-0.221715 -1.86914,-0.240235 z m 1.246094,1.095703 c 0.36174,0.03566 0.72552,0.05644 1.080078,0.138672 0.574484,0.133467 1.12844,0.348485 1.658203,0.63086 0.889537,0.48097 1.5887,1.228781 2.091797,2.105468 -1.50416,0.65751 -2.642578,2.023612 -2.642578,3.763672 0,1.626938 0.997279,2.938186 2.347656,3.652344 -0.182449,0.395418 -0.371786,0.789107 -0.603516,1.164062 -0.350673,0.563167 -0.751449,1.085113 -1.171875,1.589844 -0.599517,-0.328493 -1.230772,-0.628906 -1.957031,-0.628906 -2.349387,0 -4.265625,1.918192 -4.265625,4.267578 0,0.288869 0.0745,0.55503 0.128906,0.828125 -0.32515,0.126751 -0.650185,0.255264 -0.982422,0.357422 l -0.002,0.002 c -0.677276,0.212888 -1.376038,0.321657 -2.078125,0.398437 -0.436104,-1.897086 -2.077456,-3.341796 -4.101562,-3.341796 -0.957972,0 -1.800698,0.379318 -2.511719,0.921875 -0.156287,-0.225748 -0.324647,-0.445167 -0.447266,-0.691407 -0.418345,-0.885339 -0.632708,-1.850843 -0.621093,-2.826172 v -0.002 c 5.4e-4,-0.07503 0.0076,-0.151287 0.0098,-0.226562 0.14501,0.01553 0.284396,0.05664 0.431641,0.05664 2.349386,0 4.267578,-1.916237 4.267578,-4.265625 0,-1.223938 -0.593997,-2.262592 -1.429688,-3.037109 0.862225,-0.982691 1.852669,-1.843511 2.949219,-2.570312 0.720168,1.339445 2.009869,2.339843 3.63086,2.339843 2.349386,0 4.267578,-1.916238 4.267578,-4.265625 0,-0.123069 -0.03816,-0.239693 -0.04883,-0.361328 z"
     id="path7" />
</svg>
