<?xml version="1.0" encoding="UTF-8" standalone="no"?>
<!-- Generator: Gravit.io -->

<svg
   style="isolation:isolate"
   viewBox="0 0 48 48"
   width="48pt"
   height="48pt"
   version="1.1"
   id="svg18"
   sodipodi:docname="ghidra.svg"
   inkscape:version="1.1.2 (0a00cf5339, 2022-02-04)"
   xmlns:inkscape="http://www.inkscape.org/namespaces/inkscape"
   xmlns:sodipodi="http://sodipodi.sourceforge.net/DTD/sodipodi-0.dtd"
   xmlns:xlink="http://www.w3.org/1999/xlink"
   xmlns="http://www.w3.org/2000/svg"
   xmlns:svg="http://www.w3.org/2000/svg">
  <defs
     id="defs22">
    <linearGradient
       inkscape:collect="always"
       xlink:href="#_lgradient_2"
       id="linearGradient872"
       x1="-12.025727"
       y1="6.1170783"
       x2="-0.085100174"
       y2="6.1170783"
       gradientUnits="userSpaceOnUse"
       gradientTransform="matrix(3.8358211,0,0,3.8371386,-0.00544341,-0.00268054)" />
    <linearGradient
       id="_lgradient_1"
       x1="0.18336116"
       y1="0.24917752"
       x2="0.9027437"
       y2="0.90347725"
       gradientTransform="matrix(24.617266,0,0,24.816118,10.841288,10.089605)"
       gradientUnits="userSpaceOnUse">
      <stop
         offset="2.608695652173913%"
         stop-opacity="1"
         style="stop-color:rgb(179,255,171)"
         id="stop2-3" />
      <stop
         offset="98.69565217391305%"
         stop-opacity="1"
         style="stop-color:rgb(18,255,247)"
         id="stop4-6" />
    </linearGradient>
    <linearGradient
       inkscape:collect="always"
       xlink:href="#_lgradient_2"
       id="linearGradient15"
       x1="-9.6850061"
       y1="45.161198"
       x2="11.98815"
       y2="21.735205"
       gradientUnits="userSpaceOnUse"
       gradientTransform="matrix(1.1147442,0,0,1.1150348,-0.01237238,-3.3277956)" />
    <linearGradient
       inkscape:collect="always"
       xlink:href="#_lgradient_2"
       id="linearGradient1039"
       x1="40.365665"
       y1="32.245476"
       x2="18.492537"
       y2="15.108699"
       gradientUnits="userSpaceOnUse" />
  </defs>
  <sodipodi:namedview
     id="namedview20"
     pagecolor="#ffffff"
     bordercolor="#666666"
     borderopacity="1.0"
     inkscape:pageshadow="2"
     inkscape:pageopacity="0.0"
     inkscape:pagecheckerboard="0"
     inkscape:document-units="pt"
     showgrid="false"
     inkscape:zoom="10.21875"
     inkscape:cx="31.95107"
     inkscape:cy="32"
     inkscape:window-width="1600"
     inkscape:window-height="836"
     inkscape:window-x="0"
     inkscape:window-y="0"
     inkscape:window-maximized="1"
     inkscape:current-layer="svg18" />
  <linearGradient
     id="_lgradient_2"
     x1="1.092103317889038"
     y1="0.7668282754143075"
     x2="0.24926562505106753"
     y2="0.08844855037698551"
     gradientTransform="matrix(25.951766,0,0,25.261331,12.023654,12.874371)"
     gradientUnits="userSpaceOnUse">
    <stop
       offset="0%"
       stop-opacity="1"
       style="stop-color:rgb(249,212,35)"
       id="stop2" />
    <stop
       offset="51.56237565086822%"
       stop-opacity="1"
       style="stop-color:rgb(255,78,80)"
       id="stop4" />
    <stop
       offset="99.1304347826087%"
       stop-opacity="1"
       style="stop-color:rgb(138,35,135)"
       id="stop6" />
  </linearGradient>
  <rect
     x="-46.783188"
     y="1.2253767"
     height="45.80014"
     rx="6.1837621"
     shape-rendering="crispEdges"
     id="rect5-6-7-3"
     ry="6.8055277"
     transform="matrix(0.00524063,-0.99998627,0.99998801,0.00489691,0,0)"
     style="isolation:isolate;fill:#ff7800;fill-opacity:0.13470298;stroke:url(#linearGradient872);stroke-width:2.0301;stroke-miterlimit:4;stroke-dasharray:none;stroke-opacity:1"
     width="45.801998" />
  <rect
     x="-15.686804"
     y="17.260084"
     height="33.345856"
     rx="6.7920032"
     shape-rendering="crispEdges"
     id="rect5-6-6-6-6"
     style="isolation:isolate;fill:#ff7800;fill-opacity:0.13470298;stroke:url(#linearGradient15);stroke-width:1.67233;stroke-miterlimit:4;stroke-dasharray:none;stroke-opacity:1"
     ry="7.4743071"
     transform="matrix(0.72446484,-0.68931175,0.68622417,0.72739012,0,0)"
     width="33.338203" />
  <path
     style="color:#000000;fill:url(#linearGradient1039);-inkscape-stroke:none"
     d="m 28.722656,12.378906 -1.36914,0.04297 0.179687,0.142578 c -0.139295,0.03089 -0.290647,0.02444 -0.425781,0.06641 v 0.002 h -0.002 c -1.976275,0.620544 -3.72941,2.167006 -4.822266,3.593749 L 21.9375,16.677734 c -0.06723,-0.023 -0.06394,-0.02588 -0.144531,-0.05078 -0.281747,-0.08704 -0.603744,-0.184588 -0.951172,-0.179687 h -0.002 c -0.821085,0.01657 -1.398058,0.440058 -1.853516,0.927734 -0.350243,0.373647 -0.596609,0.820159 -0.742187,1.332031 -0.256312,0.897731 -0.555166,1.394512 -1.123047,1.820313 -0.567882,0.4258 -1.460682,0.775628 -2.869141,1.175781 -1.283831,0.363892 -2.174582,1.223486 -2.544922,2.470703 -0.127753,0.429789 -0.182661,0.932052 -0.183593,1.416016 -9.33e-4,0.483964 0.03698,0.929389 0.195312,1.308593 0.14005,0.33512 0.362295,0.699336 0.578125,1.003907 0.107915,0.152285 0.211855,0.284996 0.318359,0.396484 0.05325,0.05574 0.102723,0.106358 0.1875,0.162109 0.04239,0.02788 0.09265,0.05982 0.185547,0.08398 0.0929,0.02416 0.261747,0.03485 0.414063,-0.05859 l 0.002,-0.002 c 0.234635,-0.145823 0.207,-0.220525 0.236328,-0.287109 0.02933,-0.06658 0.04869,-0.129218 0.06836,-0.197266 0.03933,-0.136095 0.07244,-0.292927 0.09766,-0.460938 h 0.002 c 0.02344,-0.158559 0.0823,-0.340946 0.134765,-0.523437 0.351253,0.307593 0.73241,0.535949 1.285157,0.689453 0.215666,0.05983 0.420928,0.114243 0.582031,0.154297 0.08055,0.02003 0.149794,0.03633 0.207031,0.04883 0.02862,0.0063 0.0539,0.01095 0.08008,0.01563 0.02618,0.0047 0.03179,0.01172 0.121094,0.01172 0.07857,0 0.18122,-0.01052 0.292969,-0.07227 0.111749,-0.06174 0.212237,-0.186242 0.253906,-0.300781 0.08334,-0.229077 0.02534,-0.362435 -0.01367,-0.470703 -0.05293,-0.146877 -0.160085,-0.291372 -0.257812,-0.4375 0.278424,0.05574 0.541123,0.13395 0.880859,0.0918 h 0.002 c 0.181822,-0.02264 0.354677,-0.04959 0.498047,-0.07617 0.07168,-0.01329 0.134817,-0.02643 0.193359,-0.04102 0.0575,-0.01432 0.07679,0.0049 0.22461,-0.08594 0.163657,-0.09951 0.25328,-0.335197 0.25,-0.458985 -0.0033,-0.123787 -0.0338,-0.18358 -0.05664,-0.232422 -0.04568,-0.09768 -0.09036,-0.150092 -0.138672,-0.208984 -0.0199,-0.02426 -0.05228,-0.04989 -0.07422,-0.07422 0.367039,-0.02259 0.722951,-0.05689 1.009766,-0.251953 0.203081,-0.138116 0.307429,-0.390619 0.443359,-0.603515 0.09506,0.345194 0.170736,0.689521 0.34375,1.039062 0.365743,0.741468 0.360815,0.712534 0.355469,1.511719 -0.0032,0.471728 -0.04383,1.233543 -0.08789,1.626953 -0.02993,0.269374 -0.05983,0.457262 -0.08594,0.539062 -0.02611,0.0818 -0.0034,0.03474 -0.0078,0.03711 -0.0087,0.0047 -0.429443,0.05891 -1.289063,0.01367 -0.776114,-0.04137 -1.820312,-0.267578 -1.820312,-0.267578 l -1.675782,-0.369141 1.214844,1.212891 c 0,0 0.528197,0.525657 1.130859,1.097656 0.301332,0.285999 0.622297,0.58398 0.908204,0.835937 0.285907,0.251958 0.516251,0.449777 0.736328,0.582032 0.40557,0.243176 1.009237,0.488559 1.492187,0.615234 0.372841,0.09766 0.573785,0.166085 0.841797,0.158203 0.268013,-0.0079 0.492327,-0.152877 0.650391,-0.267578 0.390916,-0.28388 0.610763,-0.716849 0.976562,-1.46875 0.3658,-0.751901 0.815593,-1.812617 1.386719,-3.255859 0.491198,-1.239594 0.955973,-2.405309 0.994141,-2.496094 -0.03648,0.08581 0.05196,-0.01509 0.06055,-0.02148 0.876674,-0.179933 1.950457,-0.321702 2.642579,-0.99414 0.578356,-0.505722 0.889452,-0.980892 0.99414,-1.453125 0.07535,-0.339881 0.02225,-0.606764 -0.0078,-0.882813 0.20839,-0.110606 0.602239,-0.267266 1.304687,-0.01563 l 0.002,0.002 h 0.002 c 0.57202,0.201024 0.952079,0.409608 1.244141,0.720704 0.292062,0.311096 0.522188,0.751227 0.708984,1.482421 l 0.002,0.01172 0.0039,0.01367 c 0.753929,2.440515 -0.03079,5.872331 -1.673828,7.560547 -0.881134,0.905849 -2.569469,1.875451 -4.160157,2.347656 -0.792575,0.235595 -1.156583,0.281871 -2.498046,0.316406 -1.633466,0.04174 -2.359994,-0.04215 -3.75,-0.43164 l -0.0098,-0.0039 -0.0098,-0.002 c -2.229577,-0.52422 -4.336152,-1.703823 -6.839843,-1.816406 l -1.126953,-0.05078 0.71875,0.867187 c 0.25785,0.311568 0.530453,0.604939 0.80664,0.886719 v 0.002 c 0.04119,0.04178 0.08774,0.09165 0.144531,0.148438 l 0.002,0.002 h 0.002 c 0.274472,0.270927 0.559127,0.530256 0.853515,0.777344 0.06011,0.05055 0.121619,0.101862 0.185547,0.154297 l 0.002,0.002 c 0.296624,0.240258 0.603566,0.471326 0.921875,0.689453 0.07351,0.05038 0.140826,0.09232 0.197266,0.128906 0.324361,0.214475 0.659514,0.420829 1.007812,0.611328 l 0.002,0.002 c 0.05708,0.03081 0.101799,0.05194 0.132813,0.06836 0.336897,0.179442 0.682449,0.344528 1.035156,0.496093 h 0.002 c 0.03356,0.01438 0.08247,0.03866 0.150391,0.06641 0.374666,0.156664 0.755893,0.294454 1.142578,0.417968 0.06209,0.01978 0.126023,0.04043 0.191406,0.06055 h 0.002 c 0.379532,0.11471 0.7664,0.215376 1.158204,0.298828 0.12768,0.02706 0.258372,0.0536 0.392578,0.07813 0.09163,0.01684 0.186566,0.0347 0.287109,0.05078 0.143662,0.02381 0.282608,0.04149 0.416016,0.05859 l -0.0039,-0.002 c 0.11281,0.01545 0.233247,0.03332 0.361329,0.04687 0.17634,0.01879 0.348852,0.03313 0.519531,0.04492 0.05584,0.0039 0.126713,0.01055 0.21289,0.01563 h 0.002 c 0.260904,0.01411 0.524488,0.02148 0.791015,0.02148 7.835134,0 14.158203,-6.323071 14.158203,-14.158204 0,-0.314223 -0.01362,-0.621789 -0.0332,-0.923828 l 0.002,0.0039 c -0.0045,-0.07427 -0.01114,-0.144376 -0.01563,-0.208985 v -0.0039 -0.002 c -0.02104,-0.258061 -0.04844,-0.515757 -0.08398,-0.773438 v -0.002 c -0.0039,-0.02938 -0.0075,-0.0722 -0.01563,-0.126953 v -0.002 c -0.04499,-0.308314 -0.09869,-0.616315 -0.164063,-0.921875 l -0.002,-0.0078 v -0.002 l -0.002,-0.002 c -0.0013,-0.006 -0.0026,-0.01158 -0.0039,-0.01758 -0.07331,-0.341992 -0.162658,-0.673037 -0.255859,-0.994141 v -0.002 -0.002 c -0.06786,-0.227868 -0.142617,-0.450044 -0.21875,-0.667969 -0.04256,-0.122529 -0.0868,-0.237542 -0.128907,-0.349609 v -0.002 c -0.315752,-0.83167 -0.702988,-1.627917 -1.162109,-2.378906 l -0.0039,-0.0059 c 0.0056,0.0086 0.02218,0.03408 -0.0059,-0.01172 l -0.11914,-0.195313 -0.0098,-0.002 0.03125,-0.01953 -0.314453,-0.433594 c -0.0267,-0.0367 -0.03654,-0.04761 -0.02539,-0.03125 l -0.002,-0.002 v -0.002 c -0.437163,-0.628468 -0.924443,-1.218717 -1.455078,-1.765625 0.004,0.0042 -0.01711,-0.02343 -0.07031,-0.07813 l -0.134766,-0.138672 -0.189453,-0.01172 c -1.004817,-0.06888 -2.073775,-0.09583 -3.214844,0.101563 -0.544575,0.09421 -1.164835,0.473405 -1.744141,0.689453 0.286129,-0.227435 0.574541,-0.437698 0.890625,-0.570313 0.249117,-0.104518 0.58125,-0.06054 0.853516,-0.11914 0.593139,-0.127661 1.168457,-0.281053 1.859375,-0.259766 l 1.521484,0.04687 -1.197265,-0.939453 c -0.133838,-0.10516 -0.26657,-0.201859 -0.394531,-0.294922 l -0.06641,-0.04883 -0.08008,-0.02539 C 31.48611,12.653977 30.37023,12.418706 29.285156,12.380859 h -0.002 c -0.190102,-0.0072 -0.377199,-0.0077 -0.560547,-0.002 z m 0.03125,1 c 0.162937,-0.0051 0.328441,-0.0063 0.494141,0 h 0.002 c 0.361654,0.01254 0.741544,0.14631 1.117187,0.205078 -0.238402,0.0627 -0.499232,0.01041 -0.730468,0.107422 -0.990946,0.415757 -1.883728,1.183422 -2.582032,2.425781 l 0.705079,0.666016 c 2.311172,-1.471782 4.181597,-1.506257 6.072265,-1.386719 0.355096,0.371584 0.671189,0.7767 0.980469,1.1875 -0.06352,0.03725 -0.240234,0.144532 -0.240234,0.144532 l -1.267579,0.730468 1.449219,0.199219 c 0,0 0.448606,0.06606 0.869141,0.130859 0.381856,0.646835 0.723271,1.321705 0.99414,2.035157 0.04233,0.112646 0.08462,0.219205 0.121094,0.324218 v 0.002 c 0.07274,0.208218 0.141228,0.415209 0.203125,0.623046 0.09169,0.315983 0.175804,0.628174 0.242188,0.941407 l 0.002,0.0098 0.002,0.0098 c -0.02341,-0.09143 -0.0232,-0.09164 0.002,0.0078 0.0585,0.275566 0.106934,0.55713 0.148438,0.841797 0.0038,0.02515 0.0086,0.06512 0.01563,0.117188 v 0.002 c 0.03261,0.236113 0.05628,0.474824 0.07617,0.71875 0.0049,0.0696 0.01008,0.136131 0.01367,0.195312 l 0.002,0.002 c 0.01868,0.288007 0.0293,0.572039 0.0293,0.857421 0,7.298431 -5.859771,13.158204 -13.158203,13.158204 -0.246375,0 -0.490557,-0.0064 -0.734375,-0.01953 h -0.002 c -0.05288,-0.0032 -0.117909,-0.01 -0.199219,-0.01563 -0.16532,-0.01142 -0.327449,-0.02429 -0.484375,-0.04102 -0.104112,-0.01102 -0.213426,-0.027 -0.330078,-0.04297 h -0.0039 -0.002 c -0.132932,-0.01704 -0.25896,-0.03285 -0.378906,-0.05273 l -0.002,-0.002 c -0.08648,-0.01378 -0.176614,-0.0298 -0.269531,-0.04687 -0.119842,-0.0219 -0.241599,-0.04606 -0.365234,-0.07227 -0.364876,-0.07772 -0.72361,-0.170786 -1.076172,-0.277344 l 0.002,0.002 c -0.05833,-0.01795 -0.118117,-0.03898 -0.179687,-0.05859 h -0.002 c -0.363896,-0.116283 -0.719799,-0.244413 -1.064453,-0.388671 h -0.002 l -0.002,-0.002 c -0.02871,-0.01173 -0.07195,-0.03246 -0.132812,-0.05859 h -0.002 C 18.759018,36.418057 18.438318,36.263499 18.126953,36.097656 18.071603,36.068253 18.02832,36.048395 18,36.033203 l -0.002,-0.002 c -0.318566,-0.174342 -0.630243,-0.36702 -0.9375,-0.570313 h -0.002 l -0.002,-0.002 c -0.06785,-0.04399 -0.125773,-0.08034 -0.173829,-0.113281 -0.292413,-0.200381 -0.578128,-0.416115 -0.855468,-0.640625 l -0.0039,-0.002 c -0.0566,-0.04647 -0.114845,-0.09493 -0.173828,-0.144531 -0.204702,-0.171813 -0.398588,-0.354484 -0.591796,-0.53711 1.659724,0.375052 3.303087,1.021116 5.152343,1.457032 1.438389,0.402023 2.356872,0.507633 4.03125,0.464843 1.364276,-0.03512 1.910008,-0.105409 2.757813,-0.357422 v 0.002 c 1.754267,-0.520765 3.525234,-1.512896 4.591797,-2.609375 1.980282,-2.03473 2.789969,-5.686677 1.914062,-8.541016 -0.211764,-0.822358 -0.507208,-1.443627 -0.943359,-1.908203 -0.438836,-0.467436 -0.994216,-0.752617 -1.642578,-0.980469 -1.369834,-0.488223 -2.433594,0.240234 -2.433594,0.240234 l -0.228516,0.166016 0.02344,0.28125 c 0.03675,0.427083 0.08263,0.703753 0.03125,0.935547 -0.05139,0.231794 -0.187704,0.499199 -0.681641,0.927734 l -0.01367,0.0098 -0.0098,0.01172 c -0.295848,0.291755 -1.267631,0.553942 -2.15625,0.736328 h -0.002 c -0.351251,0.07295 -0.619614,0.236418 -0.777343,0.607422 l -0.002,0.002 c -0.07848,0.186508 -0.510075,1.276267 -1.001954,2.517578 -0.566622,1.431862 -1.01264,2.478801 -1.357421,3.1875 -0.344782,0.708699 -0.653421,1.089928 -0.664063,1.097656 -0.143544,0.104467 -0.089,0.07603 -0.09375,0.07617 -0.0048,1.42e-4 -0.186461,-0.02803 -0.556641,-0.125 -0.350215,-0.09186 -0.972826,-0.350208 -1.232421,-0.505859 -0.06914,-0.04155 -0.319319,-0.236207 -0.589844,-0.47461 -0.270526,-0.238402 -0.582936,-0.529635 -0.878906,-0.810547 -0.0069,-0.0065 -0.0068,-0.0052 -0.01367,-0.01172 0.196645,0.02355 0.227261,0.05017 0.421875,0.06055 0.866125,0.04559 1.335909,0.128619 1.818359,-0.132813 0.241225,-0.130716 0.409397,-0.382506 0.482422,-0.611328 0.07284,-0.228231 0.09622,-0.455756 0.126953,-0.732422 V 29 c 0.05146,-0.460376 0.09214,-1.209224 0.0957,-1.728516 0.0056,-0.833386 -0.07897,-1.192439 -0.458984,-1.96289 -0.211986,-0.428275 -0.400494,-1.048135 -0.416016,-1.208985 -0.01675,-0.175832 -0.04387,-0.335016 -0.08398,-0.476562 -0.02006,-0.07077 -0.03944,-0.134091 -0.08398,-0.216797 -0.02227,-0.04135 -0.0493,-0.08899 -0.111328,-0.150391 -0.06203,-0.0614 -0.18523,-0.15625 -0.373047,-0.15625 -0.336152,0 -0.366134,0.137559 -0.421875,0.197266 -0.05574,0.05971 -0.0944,0.112503 -0.132812,0.171875 -0.07683,0.118744 -0.147768,0.257994 -0.214844,0.412109 -0.157817,0.364029 -0.286967,0.526923 -0.408203,0.609375 -0.121235,0.08245 -0.29594,0.132813 -0.666016,0.132813 -0.209671,0 -0.407275,0.0068 -0.570312,0.02148 -0.08152,0.0073 -0.153033,0.01568 -0.224609,0.0293 -0.03579,0.0068 -0.0705,0.01593 -0.117188,0.03125 -0.04546,0.01492 -0.10542,0.01661 -0.224609,0.134766 -0.150162,0.149085 -0.163526,0.352878 -0.148438,0.451172 0.01515,0.09868 0.04206,0.148325 0.06445,0.191406 0.04479,0.08616 0.08779,0.140585 0.136719,0.199219 0.01447,0.01734 0.03915,0.03527 0.05469,0.05273 -0.210011,0.0084 -0.402034,0.02593 -0.576172,-0.04687 -0.128857,-0.05363 -0.255509,-0.101772 -0.365235,-0.138672 -0.05486,-0.01845 -0.105103,-0.03371 -0.154296,-0.04687 -0.04919,-0.01317 -0.06759,-0.03125 -0.203125,-0.03125 -0.181724,0 -0.486773,0.172848 -0.5625,0.388672 -0.07573,0.215824 -0.02927,0.35193 0.0078,0.470703 0.03588,0.114907 0.127424,0.229621 0.189453,0.339844 -0.386271,-0.120451 -0.623726,-0.215108 -0.859375,-0.445313 l -0.96289,-0.943359 -0.447266,1.066406 c -0.07547,0.181139 -0.117341,0.419933 -0.169922,0.646485 -0.104238,-0.172948 -0.226217,-0.35541 -0.279297,-0.482422 -0.05268,-0.126159 -0.11992,-0.515575 -0.11914,-0.919922 7.79e-4,-0.404348 0.05462,-0.843484 0.140625,-1.132813 0.132802,-0.447246 0.336747,-0.776792 0.595703,-1.054687 l 0.257812,0.759765 c 0.38372,-0.100675 0.67401,-0.105213 1.001953,0.07031 l 0.736328,0.394531 v -2.267578 c 0.966371,-0.310168 1.887152,-0.598582 2.466797,-1.033203 0.751184,-0.563242 1.194348,-1.329884 1.484375,-2.345703 v -0.002 c 0.108469,-0.381391 0.267233,-0.663137 0.509766,-0.921875 v -0.002 c 0.393575,-0.421416 0.609707,-0.598197 1.140625,-0.609375 0.08931,-8.74e-4 0.398594,0.06 0.640625,0.134765 0.242738,0.07499 0.435547,0.150391 0.435547,0.150391 l 0.349609,0.138672 0.794922,-1.035157 c 0.985658,-1.286794 2.653428,-2.724199 4.326172,-3.249999 0.406573,-0.126259 0.86284,-0.191761 1.349609,-0.207032 z m -8.333984,4.771485 c -0.29552,0.762794 -0.705805,1.37286 -1.226563,1.865234 l 0.515625,0.833984 1.697266,-0.625 -0.02148,-1.898437 z m -5.896484,4.515625 h 0.002 l -0.01367,0.0059 c 0.0049,-0.0014 0.0068,-0.0045 0.01172,-0.0059 z"
     id="path9" />
  <linearGradient
     id="_lgradient_3"
     x1="0.031250005829737804"
     y1="0.3333333333333335"
     x2="0.9389225349230107"
     y2="0.787169603524229"
     gradientTransform="matrix(-48,0,0,-48,48,48)"
     gradientUnits="userSpaceOnUse">
    <stop
       offset="0%"
       stop-opacity="1"
       style="stop-color:rgb(255,229,59)"
       id="stop11" />
    <stop
       offset="98.69565217391305%"
       stop-opacity="1"
       style="stop-color:rgb(255,0,91)"
       id="stop13" />
  </linearGradient>
</svg>
