<?xml version="1.0" encoding="UTF-8" standalone="no"?>
<!-- Generator: Gravit.io -->

<svg
   style="isolation:isolate"
   viewBox="0 0 48 48"
   width="48pt"
   height="48pt"
   version="1.1"
   id="svg9"
   sodipodi:docname="ghostwriter.svg"
   inkscape:version="1.1.2 (0a00cf5339, 2022-02-04)"
   xmlns:inkscape="http://www.inkscape.org/namespaces/inkscape"
   xmlns:sodipodi="http://sodipodi.sourceforge.net/DTD/sodipodi-0.dtd"
   xmlns:xlink="http://www.w3.org/1999/xlink"
   xmlns="http://www.w3.org/2000/svg"
   xmlns:svg="http://www.w3.org/2000/svg">
  <defs
     id="defs13">
    <linearGradient
       inkscape:collect="always"
       xlink:href="#_lgradient_21"
       id="linearGradient872"
       x1="-12.025727"
       y1="6.1170783"
       x2="-0.085100174"
       y2="6.1170783"
       gradientUnits="userSpaceOnUse"
       gradientTransform="matrix(3.8358211,0,0,3.8371386,-0.00544341,-0.00268054)" />
    <linearGradient
       id="_lgradient_1"
       x1="0.18336116"
       y1="0.24917752"
       x2="0.9027437"
       y2="0.90347725"
       gradientTransform="matrix(24.617266,0,0,24.816118,10.841288,10.089605)"
       gradientUnits="userSpaceOnUse">
      <stop
         offset="2.608695652173913%"
         stop-opacity="1"
         style="stop-color:rgb(179,255,171)"
         id="stop2-3" />
      <stop
         offset="98.69565217391305%"
         stop-opacity="1"
         style="stop-color:rgb(18,255,247)"
         id="stop4-6" />
    </linearGradient>
    <linearGradient
       inkscape:collect="always"
       xlink:href="#_lgradient_21"
       id="linearGradient15"
       x1="-9.6850061"
       y1="45.161198"
       x2="11.98815"
       y2="21.735205"
       gradientUnits="userSpaceOnUse"
       gradientTransform="matrix(1.1147442,0,0,1.1150348,-0.01237238,-3.3277956)" />
    <linearGradient
       inkscape:collect="always"
       xlink:href="#_lgradient_21"
       id="linearGradient1147"
       x1="11.475348"
       y1="21.665012"
       x2="36.524654"
       y2="21.665012"
       gradientUnits="userSpaceOnUse"
       gradientTransform="translate(-10e-7,0.25543381)" />
  </defs>
  <sodipodi:namedview
     id="namedview11"
     pagecolor="#ffffff"
     bordercolor="#666666"
     borderopacity="1.0"
     inkscape:pageshadow="2"
     inkscape:pageopacity="0.0"
     inkscape:pagecheckerboard="0"
     inkscape:document-units="pt"
     showgrid="false"
     inkscape:zoom="10.21875"
     inkscape:cx="31.95107"
     inkscape:cy="32"
     inkscape:window-width="1600"
     inkscape:window-height="836"
     inkscape:window-x="0"
     inkscape:window-y="0"
     inkscape:window-maximized="1"
     inkscape:current-layer="svg9" />
  <linearGradient
     id="_lgradient_21"
     x1="0.061897106109324806"
     y1="0.14716151924516707"
     x2="0.9904248356713994"
     y2="0.9865808764728623"
     gradientTransform="matrix(25.049305,0,0,26.549302,11.475348,8.3906572)"
     gradientUnits="userSpaceOnUse">
    <stop
       offset="0%"
       stop-opacity="1"
       style="stop-color:rgb(22,181,228)"
       id="stop2" />
    <stop
       offset="98.26086956521739%"
       stop-opacity="1"
       style="stop-color:rgb(245,32,250)"
       id="stop4" />
  </linearGradient>
  <rect
     x="-46.783188"
     y="1.2253767"
     height="45.80014"
     rx="6.1837621"
     shape-rendering="crispEdges"
     id="rect5-6-7-3"
     ry="6.8055277"
     transform="matrix(0.00524063,-0.99998627,0.99998801,0.00489691,0,0)"
     style="isolation:isolate;fill:#5400ff;fill-opacity:0.13470298;stroke:url(#linearGradient872);stroke-width:2.0301;stroke-miterlimit:4;stroke-dasharray:none;stroke-opacity:1"
     width="45.801998" />
  <rect
     x="-15.686804"
     y="17.260084"
     height="33.345856"
     rx="6.7920032"
     shape-rendering="crispEdges"
     id="rect5-6-6-6-6"
     style="isolation:isolate;fill:#5400ff;fill-opacity:0.13470298;stroke:url(#linearGradient15);stroke-width:1.67233;stroke-miterlimit:4;stroke-dasharray:none;stroke-opacity:1"
     ry="7.4743071"
     transform="matrix(0.72446484,-0.68931175,0.68622417,0.72739012,0,0)"
     width="33.338203" />
  <path
     style="color:#000000;fill:url(#linearGradient1147);fill-rule:evenodd;-inkscape-stroke:none"
     d="m 23.970703,8.1464844 c -1.293357,0.024369 -2.575387,0.1894257 -3.832031,0.4941406 -1.040154,0.2482214 -2.036982,0.6388519 -2.970703,1.1582031 -0.43519,0.2421169 -0.847439,0.5097949 -1.240235,0.8085939 -0.393476,0.294354 -0.760727,0.616196 -1.101562,0.957031 -0.350107,0.350732 -0.67296,0.730301 -0.96875,1.119141 v 0.002 h -0.002 c -0.307166,0.411393 -0.592401,0.839821 -0.847656,1.294922 -0.468633,0.831961 -0.844022,1.71221 -1.121094,2.630859 -0.334924,1.10142 -0.572687,2.232217 -0.71875,3.378906 v 0.002 c -0.126955,1.034984 -0.187359,2.074157 -0.19336,3.111329 v 0.002 c 0,1.296299 0.06133,1.931542 0.179688,3.205078 0.08788,0.920644 0.917041,1.606869 1.837891,1.521484 0.920409,-0.08618 1.605441,-0.915474 1.517578,-1.835937 l 0.002,0.0039 c -0.10674,-1.199059 -0.16391,-1.700581 -0.164063,-2.890625 v -0.002 c 0,-8.02e-4 0,-0.0011 0,-0.002 0.0059,-0.905322 0.05834,-1.803092 0.167969,-2.699219 v -0.002 c 0.120753,-0.954813 0.321856,-1.899353 0.597656,-2.814453 v -0.002 c 0.209756,-0.684258 0.487152,-1.336699 0.835938,-1.955078 v -0.002 c 0.178037,-0.317685 0.377754,-0.623143 0.599609,-0.912109 l 0.0039,-0.0039 0.0039,-0.0039 c 0.197646,-0.268822 0.417426,-0.522896 0.65625,-0.761719 l 0.002,-0.002 0.002,-0.002 c 0.229562,-0.23503 0.476696,-0.44932 0.742187,-0.648438 0.266018,-0.199099 0.556455,-0.388478 0.84961,-0.554687 0.66776,-0.370293 1.377643,-0.649764 2.113281,-0.822266 l 0.002,-0.002 h 0.002 c 1.019829,-0.246086 2.055611,-0.377468 3.09961,-0.400391 h 0.451171 c 0.608025,0.0059 1.216643,0.06705 1.8125,0.185547 0.532984,0.105376 1.050406,0.266404 1.552735,0.478516 0.96285,0.42685 1.814565,1.057062 2.5,1.853515 v 0.002 c 0.329036,0.378586 0.621048,0.786811 0.878906,1.22461 l 0.002,0.002 v 0.0039 c 0.324131,0.534163 0.603338,1.090122 0.835938,1.669922 v 0.002 h 0.002 c 0.258308,0.630594 0.470256,1.273828 0.642578,1.935547 v 0.002 0.002 c 0.226776,0.847363 0.407525,1.706318 0.541016,2.572266 0.05291,0.355461 0.09987,0.710642 0.140625,1.066406 v 0.002 c 0.0468,0.392485 0.08795,0.78389 0.123046,1.175781 l -0.002,-0.0039 c 0.09949,1.213282 0.146485,2.427726 0.146485,3.648438 0,0.699983 -0.01113,1.400095 -0.02344,1.933593 -0.0062,0.26675 -0.01259,0.492114 -0.01758,0.654297 -0.005,0.162184 -0.01127,0.292962 -0.0098,0.267578 -0.02149,0.338063 -0.07544,0.674932 -0.140625,0.923829 -0.03266,0.124705 -0.06843,0.228537 -0.0957,0.289062 -0.01599,0.03548 0.0082,0.0075 0.01172,0.0039 -0.05135,0.02899 -0.315958,0.179952 -0.632812,0.31836 l -0.002,0.002 h -0.0039 c -0.327808,0.147049 -0.689667,0.222464 -1.0625,0.228515 -0.366933,-0.0058 -0.730066,-0.08114 -1.058594,-0.228515 h -0.002 l -0.002,-0.002 C 29.781113,31.363494 29.03125,30.763672 29.03125,30.763672 l 0.08594,0.08984 c -0.244589,-0.330551 -0.638498,-0.53606 -1.033203,-0.501954 -0.394704,0.03411 -0.736784,0.283463 -0.960937,0.63086 l 0.08203,-0.09766 c 0,0 -0.779966,0.707528 -1.654297,1.177734 -0.311189,0.165224 -0.644209,0.253742 -0.984375,0.259766 -0.301537,-0.0059 -0.603274,-0.08698 -0.875,-0.236329 C 22.888762,31.615776 22.203125,30.875 22.203125,30.875 l 0.08398,0.128906 c -0.164254,-0.359815 -0.444196,-0.660054 -0.83789,-0.728515 -0.393694,-0.06846 -0.783435,0.154202 -1.011719,0.472656 l 0.101562,-0.105469 c 0,0 -0.735613,0.555956 -1.539062,0.859375 -0.349623,0.131738 -0.719809,0.198533 -1.097656,0.199219 -0.418564,-0.0052 -0.840127,-0.07965 -1.248047,-0.216797 C 16.125756,31.302879 15.62217,31.055464 15.150391,30.75 c -0.776586,-0.503234 -1.827677,-0.280821 -2.332032,0.494141 -0.50502,0.775539 -0.279987,1.826633 0.496094,2.330078 0.696867,0.453857 1.450094,0.828682 2.242188,1.103515 h 0.002 l 0.002,0.002 c 0.749463,0.253626 1.531453,0.386254 2.326172,0.392579 h 0.002 0.002 c 0.783113,0 1.559751,-0.141255 2.294922,-0.410157 l 0.002,-0.002 h 0.0039 c 0.277093,-0.106042 0.542107,-0.246014 0.806641,-0.382812 0.326083,0.26523 0.657002,0.526418 1.027344,0.736328 0.774024,0.439772 1.651243,0.675113 2.542968,0.68164 h 0.0059 0.0059 c 0.898108,-0.013 1.769951,-0.241543 2.560547,-0.65625 l 0.002,-0.002 h 0.002 c 0.40127,-0.215413 0.769478,-0.482664 1.132813,-0.753906 0.317284,0.193536 0.636326,0.384382 0.974609,0.537109 l 0.0039,0.002 0.0039,0.002 c 0.760135,0.328254 1.578209,0.503345 2.410156,0.509765 h 0.0039 0.0039 c 0.832453,-0.0064 1.656515,-0.18122 2.417969,-0.509765 l 0.0039,-0.002 h 0.002 c 0.955117,-0.427355 1.796875,-1.003907 1.796875,-1.003907 l 0.03906,-0.02734 0.03125,-0.03125 c 0.307042,-0.304687 0.491171,-0.719801 0.65625,-1.208985 0.165079,-0.489184 0.284851,-1.044877 0.326172,-1.585937 l 0.002,-0.0098 v -0.0098 c 0,0 0.06633,-1.796428 0.07227,-3.603515 v -0.002 c 0,-1.304301 -0.04826,-2.61697 -0.16211,-3.925782 v -0.002 C 36.827375,22.980858 36.784736,22.555266 36.736328,22.125 v -0.002 -0.002 C 36.688414,21.731195 36.634177,21.333809 36.574219,20.9375 36.423331,19.952504 36.217591,18.981625 35.964844,18.017578 35.757971,17.219903 35.496653,16.433483 35.179687,15.666016 l -0.002,-0.002 c -0.298138,-0.731045 -0.646605,-1.44656 -1.058593,-2.128907 v -0.002 c -0.357655,-0.598591 -0.765099,-1.16561 -1.222657,-1.697265 h -0.002 C 31.880044,10.659207 30.617258,9.7170521 29.189453,9.09375 v 0.00195 C 28.465398,8.7776424 27.70789,8.546987 26.941406,8.3925781 h -0.002 -0.002 C 26.133664,8.2394109 25.319241,8.1526245 24.492187,8.1464844 h -0.002 -0.01367 -0.480468 -0.02148 z m 0.01758,1 h 0.0078 0.480468 0.01172 c 0.761693,0.00578 1.512311,0.085719 2.261719,0.2285156 0.701201,0.1416656 1.387999,0.3496262 2.037109,0.634766 h 0.002 v 0.002 c 1.287941,0.562244 2.431217,1.411293 3.34961,2.476562 0.419708,0.487677 0.793967,1.009621 1.123047,1.560547 v 0.002 c 0.38187,0.632276 0.710424,1.302958 0.992187,1.994141 v 0.002 c 0.299663,0.725285 0.548536,1.468428 0.744141,2.222656 0.244687,0.933304 0.442688,1.872428 0.58789,2.820313 0.05837,0.385913 0.111446,0.771856 0.158204,1.152343 l -0.002,-0.0039 c 0.04746,0.421829 0.08988,0.837758 0.125,1.259766 V 23.5 c 0.11106,1.276007 0.158204,2.559326 0.158204,3.839844 -0.0059,1.778252 -0.07184,3.54499 -0.07227,3.55664 -0.03452,0.441682 -0.138526,0.92841 -0.275391,1.333985 -0.133735,0.396303 -0.317213,0.704762 -0.40039,0.794922 -0.05393,0.0363 -0.766846,0.517194 -1.583985,0.882812 -0.635232,0.272909 -1.325792,0.419894 -2.019531,0.425781 -0.695095,-0.0059 -1.37871,-0.152968 -2.015625,-0.427734 h -0.002 c -0.395879,-0.179201 -0.773659,-0.385404 -1.125,-0.621094 l -0.304688,-0.203125 -0.285156,0.228516 c -0.397067,0.318773 -0.82183,0.605184 -1.265625,0.84375 -5.7e-4,2.99e-4 -0.0014,-2.99e-4 -0.002,0 -7.9e-4,4.24e-4 -0.0012,0.0015 -0.002,0.002 -0.653782,0.342204 -1.366544,0.525482 -2.101563,0.537109 -0.718057,-0.0063 -1.427882,-0.19492 -2.050781,-0.548828 v -0.002 c -0.40642,-0.230359 -0.787861,-0.504849 -1.136719,-0.814453 l -0.269531,-0.238281 -0.310547,0.177734 c -0.307667,0.175498 -0.632303,0.328827 -0.960937,0.455078 -0.626814,0.229269 -1.285572,0.349147 -1.947266,0.34961 -0.686806,-0.0055 -1.360443,-0.120534 -2.009765,-0.339844 -0.712675,-0.247277 -1.393814,-0.584611 -2.025391,-0.996094 h -0.002 c -0.323016,-0.20954 -0.410321,-0.626084 -0.201172,-0.947266 0.208633,-0.320572 0.627483,-0.410925 0.951172,-0.201171 0.536113,0.347119 1.111069,0.634406 1.720703,0.84375 h 0.002 0.002 c 0.504067,0.169984 1.029755,0.262928 1.558594,0.269531 h 0.002 0.0039 c 0.497739,0 0.99125,-0.08816 1.457032,-0.263672 0.987307,-0.372852 1.794921,-1.001953 1.794921,-1.001953 l 0.05859,-0.04492 0.04297,-0.06055 c 0.07906,-0.110286 0.06262,-0.06418 0.02734,-0.07031 -0.03528,-0.0061 0.02658,-0.0061 0.101562,0.158203 l 0.03125,0.07227 0.05273,0.05664 c 0,0 0.746157,0.832721 1.730468,1.40625 l 0.0059,0.002 0.0039,0.0039 c 0.412972,0.228167 0.878253,0.358016 1.355469,0.365235 h 0.0078 0.0059 c 0.510318,-0.0071 1.006142,-0.142159 1.451171,-0.378907 v -0.002 h 0.002 c 1.021833,-0.549531 1.855468,-1.322265 1.855468,-1.322265 l 0.04687,-0.04297 0.03516,-0.05469 c 0.09681,-0.150035 0.176845,-0.173172 0.207031,-0.175781 0.03019,-0.0026 0.06224,-0.0097 0.144531,0.101563 l 0.03711,0.05078 0.04883,0.03906 c 0,0 0.815294,0.667038 1.80664,1.105469 5.93e-4,2.66e-4 0.0014,-2.65e-4 0.002,0 0.0013,5.56e-4 6.96e-4,0.0014 0.002,0.002 0.4632,0.207095 0.961726,0.307678 1.457032,0.314453 l 0.0059,0.002 0.0078,-0.002 c 0.501861,-0.0067 1.002325,-0.108052 1.466796,-0.316406 C 33.559048,32.464653 33.933594,32.25 33.933594,32.25 l 0.02539,-0.01563 0.02539,-0.01758 c 0.179469,-0.134313 0.232169,-0.263487 0.292969,-0.398438 0.0608,-0.13495 0.10762,-0.281995 0.15039,-0.445312 0.08554,-0.326633 0.146485,-0.715131 0.171875,-1.117188 v -0.002 c 0.0036,-0.06003 0.0067,-0.130147 0.01172,-0.294922 0.0051,-0.164775 0.01136,-0.392638 0.01758,-0.662109 0.01243,-0.538941 0.02344,-1.245846 0.02344,-1.957031 0,-1.246319 -0.0466,-2.486612 -0.148438,-3.728516 v -0.002 l -0.002,-0.002 c -0.03591,-0.400989 -0.07714,-0.8035 -0.125,-1.205078 v -0.002 c -0.04202,-0.3666 -0.08989,-0.732706 -0.144531,-1.09961 v -0.002 c -0.138719,-0.899862 -0.326655,-1.793986 -0.5625,-2.675781 v -0.0039 c -0.182508,-0.700209 -0.408865,-1.383556 -0.683594,-2.054688 -0.252117,-0.628449 -0.553704,-1.232048 -0.904297,-1.810547 l -0.0039,-0.0039 c -0.285814,-0.484647 -0.60953,-0.942372 -0.978516,-1.367187 -0.783412,-0.910299 -1.758753,-1.630923 -2.857422,-2.117188 l -0.0039,-0.002 -0.0039,-0.002 c -0.563527,-0.238296 -1.146224,-0.41969 -1.75,-0.539063 -0.65948,-0.131151 -1.330976,-0.198872 -2.001953,-0.205078 h -0.002 -0.470703 -0.0059 c -1.11262,0.02443 -2.221062,0.165133 -3.310547,0.427735 -0.83009,0.194651 -1.62514,0.509304 -2.36914,0.921875 h -0.002 l -0.002,0.002 c -0.332963,0.18847 -0.658695,0.400741 -0.960937,0.626953 -0.301538,0.226152 -0.58676,0.47342 -0.853516,0.746094 -6.46e-4,6.46e-4 -0.0013,0.0013 -0.002,0.002 -6.48e-4,6.63e-4 -0.0013,0.0013 -0.002,0.002 -0.270174,0.270531 -0.52314,0.561835 -0.751953,0.873047 -0.249117,0.325389 -0.474719,0.66815 -0.673828,1.023437 -0.385807,0.684414 -0.690596,1.405741 -0.919922,2.154297 v 0.002 0.002 c -0.29223,0.969229 -0.504903,1.968153 -0.632812,2.980469 v 0.002 c -0.115087,0.94007 -0.16975,1.878822 -0.175782,2.820313 v 0.002 c 0,1.226143 0.06167,1.788314 0.167969,2.982422 v 0.002 0.002 c 0.0365,0.382338 -0.234798,0.708335 -0.617187,0.74414 -0.381198,0.03441 -0.711625,-0.237578 -0.748047,-0.61914 -0.118366,-1.273617 -0.175639,-1.845263 -0.175782,-3.107422 v -0.002 c 0,-7.91e-4 0,-0.0012 0,-0.002 0.0059,-1.000345 0.06411,-1.999514 0.185547,-2.990235 v -0.002 c 0.139387,-1.093467 0.366119,-2.166899 0.683594,-3.210937 v -0.002 c 0.255891,-0.848421 0.602489,-1.661575 1.035156,-2.429688 v -0.002 c 0.229629,-0.40941 0.490224,-0.797501 0.775391,-1.179687 l 0.002,-0.0039 c 0.271984,-0.357277 0.566754,-0.700962 0.878906,-1.013672 0.311107,-0.311106 0.642312,-0.6022 0.994141,-0.865234 l 0.002,-0.002 0.002,-0.002 c 0.354538,-0.269697 0.724093,-0.510685 1.119141,-0.730469 0.856296,-0.476286 1.769651,-0.8338098 2.720703,-1.0605469 h 0.002 c 1.185512,-0.2874665 2.392235,-0.441837 3.613281,-0.4648437 z m -3.527344,6.7382816 c -1.589992,0.08572 -2.70637,1.665289 -2.611328,3.416015 v 0.002 c 0.09571,1.750566 1.374945,3.199742 2.964844,3.113282 1.58985,-0.08646 2.706371,-1.667244 2.611328,-3.417969 -0.09504,-1.750816 -1.375091,-3.199734 -2.964844,-3.113281 z m 6.72461,0 c -1.589993,0.08572 -2.706371,1.665289 -2.611328,3.416015 0.09504,1.750809 1.374936,3.201695 2.964843,3.115235 1.589851,-0.08646 2.706371,-1.667244 2.611329,-3.417969 -0.09571,-1.750573 -1.3751,-3.199733 -2.964844,-3.113281 z m -6.671875,0.998046 c 0.936493,-0.05093 1.843293,0.866265 1.914062,2.169922 0.07078,1.303746 -0.729618,2.31431 -1.666015,2.365235 -0.936346,0.05092 -1.842775,-0.866015 -1.914063,-2.169922 -0.07078,-1.303747 0.729761,-2.314757 1.666016,-2.365235 z m 6.724609,0 c 0.936502,-0.05093 1.842775,0.866022 1.914063,2.169922 0.07078,1.303746 -0.729619,2.31431 -1.666016,2.365235 -0.936338,0.05092 -1.843293,-0.866258 -1.914062,-2.169922 -0.07078,-1.303747 0.729761,-2.314757 1.666015,-2.365235 z m -6.855469,7.226563 c -0.852312,0 -1.589843,0.660916 -1.589843,1.509766 0,0.848848 0.737859,1.507812 1.589843,1.507812 h 7.234375 c 0.851985,0 1.589844,-0.658964 1.589844,-1.507812 0,-0.84885 -0.737531,-1.509766 -1.589844,-1.509766 z m 0,1 h 7.234375 c 0.351001,0 0.589844,0.245312 0.589844,0.509766 0,0.264452 -0.238515,0.507812 -0.589844,0.507812 h -7.234375 c -0.351328,0 -0.589843,-0.24336 -0.589843,-0.507812 0,-0.264454 0.238843,-0.509766 0.589843,-0.509766 z"
     id="path7" />
</svg>
