<?xml version="1.0" encoding="UTF-8" standalone="no"?>
<!-- Generator: Gravit.io -->

<svg
   style="isolation:isolate"
   viewBox="0 0 48 48"
   width="48pt"
   height="48pt"
   version="1.1"
   id="svg9"
   sodipodi:docname="gimp.svg"
   inkscape:version="1.1.2 (0a00cf5339, 2022-02-04)"
   xmlns:inkscape="http://www.inkscape.org/namespaces/inkscape"
   xmlns:sodipodi="http://sodipodi.sourceforge.net/DTD/sodipodi-0.dtd"
   xmlns:xlink="http://www.w3.org/1999/xlink"
   xmlns="http://www.w3.org/2000/svg"
   xmlns:svg="http://www.w3.org/2000/svg">
  <defs
     id="defs13">
    <linearGradient
       inkscape:collect="always"
       xlink:href="#_lgradient_8"
       id="linearGradient872"
       x1="-12.025727"
       y1="6.1170783"
       x2="-0.085100174"
       y2="6.1170783"
       gradientUnits="userSpaceOnUse"
       gradientTransform="matrix(3.8358211,0,0,3.8371386,-0.00544341,-0.00268054)" />
    <linearGradient
       id="_lgradient_1"
       x1="0.18336116"
       y1="0.24917752"
       x2="0.9027437"
       y2="0.90347725"
       gradientTransform="matrix(24.617266,0,0,24.816118,10.841288,10.089605)"
       gradientUnits="userSpaceOnUse">
      <stop
         offset="2.608695652173913%"
         stop-opacity="1"
         style="stop-color:rgb(179,255,171)"
         id="stop2-3" />
      <stop
         offset="98.69565217391305%"
         stop-opacity="1"
         style="stop-color:rgb(18,255,247)"
         id="stop4-6" />
    </linearGradient>
    <linearGradient
       inkscape:collect="always"
       xlink:href="#_lgradient_8"
       id="linearGradient15"
       x1="-9.6850061"
       y1="45.161198"
       x2="11.98815"
       y2="21.735205"
       gradientUnits="userSpaceOnUse"
       gradientTransform="matrix(1.1147442,0,0,1.1150348,-0.01237238,-3.3277956)" />
    <linearGradient
       inkscape:collect="always"
       xlink:href="#_lgradient_8"
       id="linearGradient878"
       x1="8.21523"
       y1="23.667812"
       x2="34.74963"
       y2="23.667812"
       gradientUnits="userSpaceOnUse"
       gradientTransform="scale(1.3333333)" />
  </defs>
  <sodipodi:namedview
     id="namedview11"
     pagecolor="#ffffff"
     bordercolor="#666666"
     borderopacity="1.0"
     inkscape:pageshadow="2"
     inkscape:pageopacity="0.0"
     inkscape:pagecheckerboard="0"
     inkscape:document-units="pt"
     showgrid="false"
     inkscape:zoom="10.21875"
     inkscape:cx="24.807339"
     inkscape:cy="25.834862"
     inkscape:window-width="1600"
     inkscape:window-height="836"
     inkscape:window-x="0"
     inkscape:window-y="0"
     inkscape:window-maximized="1"
     inkscape:current-layer="svg9" />
  <linearGradient
     id="_lgradient_8"
     x1="0"
     y1="0.5"
     x2="1"
     y2="0.5"
     gradientTransform="matrix(26.534137,0,0,22.369713,8.2154938,12.482974)"
     gradientUnits="userSpaceOnUse">
    <stop
       offset="0%"
       stop-opacity="1"
       style="stop-color:rgb(175,104,229)"
       id="stop2" />
    <stop
       offset="98.26086956521739%"
       stop-opacity="1"
       style="stop-color:rgb(250,172,128)"
       id="stop4" />
  </linearGradient>
  <rect
     x="-46.783188"
     y="1.2253767"
     height="45.80014"
     rx="6.1837621"
     shape-rendering="crispEdges"
     id="rect5-6-7-3"
     ry="6.8055277"
     transform="matrix(0.00524063,-0.99998627,0.99998801,0.00489691,0,0)"
     style="isolation:isolate;fill:#ff5500;fill-opacity:0.13470298;stroke:url(#linearGradient872);stroke-width:2.0301;stroke-miterlimit:4;stroke-dasharray:none;stroke-opacity:1"
     width="45.801998" />
  <rect
     x="-15.686804"
     y="17.260084"
     height="33.345856"
     rx="6.7920032"
     shape-rendering="crispEdges"
     id="rect5-6-6-6-6"
     style="isolation:isolate;fill:#ff5500;fill-opacity:0.13470298;stroke:url(#linearGradient15);stroke-width:1.67233;stroke-miterlimit:4;stroke-dasharray:none;stroke-opacity:1"
     ry="7.4743071"
     transform="matrix(0.72446484,-0.68931175,0.68622417,0.72739012,0,0)"
     width="33.338203" />
  <path
     id="path7"
     style="color:#000000;fill:url(#linearGradient878);fill-rule:evenodd;stroke-width:1.33333;-inkscape-stroke:none"
     d="m 42.802734,15.763672 c -1.258112,-0.08488 -2.769128,0.769067 -3.957031,1.84375 v 0.0332 c -2.371448,2.279628 -4.334667,4.015017 -6.986328,5.458984 -0.456225,-0.1118 -0.94308,-0.13373 -1.335937,-0.179687 -1.565919,0 -3.076646,0.62157 -4.185547,1.730469 -0.03791,0.03791 -0.06642,0.08965 -0.103516,0.128906 -0.03676,-0.03885 -0.06406,-0.0914 -0.101563,-0.128906 -0.421126,-0.421868 -0.91929,-0.741661 -1.4375,-1.015625 l -3.029296,-4.039063 -0.0039,-0.0039 c -0.17404,-0.23708 -0.382569,-0.453329 -0.623047,-0.640625 -0.394294,-0.326695 -0.879143,-0.495249 -1.367187,-0.50586 h -0.0098 -0.01367 c -0.82869,0.01093 -1.570948,0.514027 -1.892579,1.275391 -0.174804,0.40788 -0.251664,0.839148 -0.242187,1.265625 l -0.03711,4.03125 c -0.166381,0.195107 -0.303718,0.410704 -0.443359,0.625 -0.194228,-0.07935 -0.382418,-0.171862 -0.582031,-0.234375 h -0.0039 c -0.544307,-0.167479 -1.10761,-0.260795 -1.675782,-0.269531 h -0.0039 c -0.979847,-0.01709 -1.929725,0.293041 -2.707031,0.867187 l -0.0059,0.002 -0.0059,0.0059 c -0.611837,0.469963 -1.083918,1.09217 -1.375,1.80664 l -0.002,0.002 v 0.0039 c -0.26602,0.66934 -0.393253,1.384093 -0.384766,2.105469 0.0082,0.913029 0.180154,1.815313 0.509766,2.664062 0.345284,0.913781 0.823596,1.77757 1.416016,2.554688 0.750467,1.000624 1.694178,1.845899 2.773437,2.490234 l 0.0039,0.002 c 0.142771,0.08393 0.292626,0.164347 0.445313,0.240234 l 0.0098,0.0059 c 6.647811,3.75588 14.506826,6.502733 21.890626,4.27539 0.07481,0.0088 0.143163,0.01306 0.228515,0.01563 0.0538,0.0019 0.121998,0.0013 0.185547,0.002 0.08484,0.02436 1.630982,0.472213 2.828125,0.835937 0.059,1.007741 0.558774,2.028139 1.740234,2.460938 1.91785,0.702134 3.720704,1.589843 3.720703,1.589843 l 1.384766,0.683594 -0.455078,-1.478515 C 46.508986,44.779477 46.206879,43.404611 45.632812,42.318359 45.34578,41.775234 44.97423,41.292524 44.453125,40.966797 43.932018,40.641072 43.283572,40.504859 42.5625,40.568359 c -0.03448,0.0031 -0.06598,0.01147 -0.09961,0.01563 l -1.871094,-0.960937 c 0.550053,-0.648552 1.104412,-1.296869 1.525391,-2.037109 l 0.002,-0.002 c 0.785688,-1.400236 1.39272,-2.902438 1.804687,-4.457031 h -0.002 c 0.466925,-1.745231 0.790299,-3.520018 0.958984,-5.320312 v -0.002 c 0.204619,-2.054673 0.30414,-4.124188 0.289063,-6.195313 -2.4e-5,-1.084202 -0.01787,-2.171532 -0.0625,-3.261719 -0.02311,-0.07633 -0.04637,-0.152248 -0.09766,-0.347656 -0.403277,-1.536406 -1.2285,-2.170312 -2.207032,-2.236328 z m 2.304688,2.583984 c 0.09797,0.323564 -0.0059,-0.199218 -0.0059,-0.199218 l 0.0059,0.171874 c 3.77e-4,0.0091 -3.74e-4,0.01822 0,0.02734 z m -2.84961,-1.25 c 0.773622,0.04112 1.42292,0.59962 1.523438,1.498047 0.107147,0.95762 0.05469,2.007745 0.05469,3.015625 v 0.0039 0.002 c 0.01483,2.024026 -0.08095,4.046147 -0.28125,6.05664 l -0.002,0.0039 v 0.002 c -0.16153,1.725454 -0.469694,3.429948 -0.917968,5.105468 v 0.002 c -0.383399,1.446791 -0.949677,2.841568 -1.679688,4.142579 -0.509123,0.894607 -1.129677,1.725696 -1.84375,2.466796 l -0.625,0.646485 3.771484,1.93164 c 0.517542,-0.17661 1.049795,0.0093 1.490235,0.123047 0.258081,0.161318 0.486565,0.430278 0.705078,0.84375 0.273943,0.518358 0.527301,1.486524 0.779297,2.335938 -0.711064,-0.329866 -1.176018,-0.583055 -2.453125,-1.050782 h -0.0039 c -0.880406,-0.323658 -1.121743,-1.056131 -1,-1.59375 l 0.136718,-0.601562 c -1.362297,-0.380191 -2.741887,-0.842092 -3.921875,-1.496094 l -0.888672,0.314453 C 30.048252,42.951113 22.055119,40.3488 16.132812,36.746094 l -0.0293,-0.01563 -0.02734,-0.01563 c -0.135183,-0.06531 -0.270146,-0.138793 -0.40625,-0.21875 h -0.0039 C 14.735054,35.94 13.926037,35.209327 13.28125,34.349609 l -0.002,-0.002 c -0.515924,-0.676605 -0.934929,-1.434635 -1.234375,-2.228515 l -0.0039,-0.002 v -0.002 c -0.27067,-0.696837 -0.415127,-1.442572 -0.421875,-2.195312 v -0.0039 c -0.0065,-0.553339 0.09441,-1.095158 0.292968,-1.595704 v -0.002 c 0.203322,-0.496408 0.526096,-0.91854 0.945313,-1.242187 0.541777,-0.398581 1.207589,-0.617782 1.890625,-0.605469 0.435573,0.0065 0.875163,0.07903 1.304687,0.210938 0.313095,0.09805 0.620103,0.222799 0.916016,0.371093 l 0.591797,0.296875 0.298828,-0.589843 c 0.200373,-0.392887 0.459424,-0.756793 0.765625,-1.080078 l 0.179688,-0.189454 0.002,-0.263672 0.03906,-4.257812 v -0.0098 c -0.0055,-0.248833 0.03749,-0.492434 0.132813,-0.714843 l 0.0039,-0.002 c 0.11308,-0.269059 0.384062,-0.451033 0.675781,-0.458985 0.194769,0.008 0.394128,0.07584 0.535156,0.193359 l 0.0078,0.0098 0.0098,0.0078 c 0.141396,0.108773 0.274202,0.24272 0.380859,0.388671 l 0.002,0.0059 3.177734,4.236328 0.148438,0.07227 c 0.467881,0.222801 0.897735,0.524033 1.269531,0.896484 0.189665,0.189665 0.352964,0.38805 0.480469,0.591797 l 0.564453,0.900391 0.564453,-0.900391 c 0.129173,-0.205473 0.293302,-0.402676 0.482422,-0.591797 0.857007,-0.857004 2.031824,-1.341797 3.242188,-1.341797 0.431586,0 0.854225,0.05936 1.259765,0.175781 L 32.03125,24.5 32.445312,24.296875 c 2.645386,-1.382754 5.083779,-3.586505 7.132813,-5.486328 0.409959,-0.412873 0.838999,-0.847044 1.244141,-1.1875 0.461926,-0.388174 0.971373,-0.550061 1.435546,-0.525391 z m -0.126953,1.126953 c -0.244826,0.01079 -0.518841,0.07279 -0.771484,0.136719 -2.737943,2.382922 -4.813393,4.796336 -7.904297,6.369141 1.112175,1.499981 1.628477,2.38788 1.654297,4.105469 0,1.218821 -0.485545,2.385935 -1.34375,3.24414 -0.856981,0.85698 -2.019397,1.340416 -3.236328,1.341797 l -0.09961,-0.04102 0.0059,0.02344 C 29.257648,33.380444 28.116611,32.915439 27.28125,32.080078 27.09213,31.890957 26.928,31.695708 26.798828,31.490234 l -0.564453,-0.902343 -0.564453,0.902343 c -0.127493,0.203758 -0.290804,0.400179 -0.480469,0.589844 -0.832655,0.832655 -1.955495,1.314308 -3.134765,1.339844 l -0.63086,0.01172 -0.01953,0.630859 c -0.01616,0.472539 -0.113729,0.940823 -0.292969,1.382812 h -0.002 v 0.002 c -0.195643,0.489109 -0.519721,0.916783 -0.943359,1.242187 -0.0087,0.0061 -0.01973,0.01333 -0.02344,0.01563 l -1.035156,0.652344 1.109375,0.517578 c 1.376607,0.642671 2.798184,1.180707 4.251953,1.617188 4.164229,1.308622 8.226133,1.520116 12.46875,0.517578 L 35.625,39.162109 c -0.725635,-0.469004 -1.118828,-0.82526 -1.716797,-1.28125 0.962349,0.429087 2.024089,0.892447 3.179688,1.533203 l 0.414062,0.228516 c 1.059147,-0.947819 2.046116,-2.102704 2.652344,-3.160156 v -0.0039 c 0.694023,-1.239884 1.233749,-2.557046 1.59375,-3.925782 v -0.0039 c 0.436796,-1.625127 0.733471,-3.278896 0.894531,-4.957031 v -0.0039 c 0.197284,-1.981378 0.288619,-3.976457 0.273438,-5.972657 -3.1e-5,-0.827677 -0.0046,-1.658482 -0.02734,-2.490234 l -0.0078,-0.283203 c -0.01407,-0.508014 -0.341956,-0.635175 -0.75,-0.617188 z m -0.566406,1.78125 c 0.0085,0.537684 0.01953,1.073831 0.01953,1.613282 v 0.0039 0.002 c 0.01483,1.949753 -0.07291,3.899404 -0.265625,5.833984 v 0.002 c -0.154062,1.60665 -0.441361,3.189423 -0.859375,4.74414 v 0.0039 c -0.330317,1.25664 -0.827552,2.473632 -1.46875,3.619141 -0.46185,0.816828 -1.084974,1.52638 -1.755859,2.177734 -1.17218,-0.62213 -2.268497,-1.136128 -3.150391,-1.521484 0.06808,-0.385865 -0.08632,-0.767887 -0.333984,-1.085937 -0.532464,-0.684684 -0.941114,-0.774845 -1.40625,-1.00586 0.876623,-0.286909 1.702524,-0.70643 2.365234,-1.36914 1.107702,-1.107702 1.734375,-2.615037 1.734375,-4.1875 0,-1.292674 -0.513122,-2.483395 -1.279297,-3.501954 2.319987,-1.45294 4.556929,-3.524875 6.375,-5.302734 l 0.002,-0.002 z m -21.798828,1.126953 -0.03711,3.587891 0.873046,-0.267578 c 0.227941,-0.07008 0.460385,-0.122973 0.697266,-0.15625 l 1.277344,-0.179687 z m 2.179687,4.03711 c -0.844908,0 -1.664888,0.290397 -2.318359,0.824219 h -0.002 c -0.501075,0.410717 -0.887517,0.945078 -1.107422,1.554687 l -0.105469,0.296875 c 1.189556,1.264328 2.125341,2.630918 2.705079,4.191406 l 0.140624,0.4375 0.455079,0.02539 c 0.08035,0.0045 0.157788,0.0059 0.232421,0.0059 0.397338,0 0.792133,-0.06533 1.166016,-0.193359 l 2.333984,-0.798828 -2.419921,-0.484375 c -0.212614,-0.04263 -0.402558,-0.134635 -0.558594,-0.273438 -0.146541,-0.130253 -0.195314,-0.386534 -0.255859,-0.625 0.402749,0.105227 0.833602,0.112689 1.201171,-0.02148 0.397076,-0.144943 0.757116,-0.40676 1,-0.787109 0.0032,-0.0049 -0.0012,-0.01255 0.002,-0.01758 l 1.023438,1.845703 c 0.281947,-2.096424 0.161141,-3.24277 -0.896484,-4.908203 -0.688467,-0.688467 -1.624235,-1.072266 -2.595704,-1.072266 z m 8.578126,0 c -0.971469,0 -1.907236,0.383799 -2.595704,1.072266 -0.688466,0.688466 -1.074218,1.622283 -1.074218,2.59375 0,0.971466 0.385752,1.907235 1.074218,2.595703 0.68847,0.688466 1.624237,1.074218 2.595704,1.074218 0.140551,0 0.276281,-0.0084 0.40625,-0.02148 l 0.06836,-1.318359 c -0.190863,-0.0396 -0.36497,-0.123459 -0.511719,-0.253907 -0.14654,-0.130253 -0.193361,-0.386536 -0.253906,-0.625 1.100105,0.609907 1.773191,0.193561 2.117187,-0.740234 l 0.179688,0.630859 1.259765,0.330078 c 0.151163,-0.526321 0.303352,-1.139936 0.400391,-1.671874 0,-0.971467 -0.383799,-1.905284 -1.072265,-2.59375 -0.837038,-0.607057 -1.728183,-1.059243 -2.59375,-1.072266 z m -8.578126,1.332031 c 0.619267,0 1.217245,0.246542 1.654297,0.683594 0.01799,0.01799 0.01004,0.0479 0.02734,0.06641 l -0.585937,-0.207031 0.294922,1.203125 c 0.04187,0.170388 0.0163,0.256557 -0.04688,0.355469 -0.06316,0.09891 -0.187512,0.199727 -0.335937,0.253906 -0.296852,0.10836 -0.554689,0.08995 -0.724609,-0.230469 L 21.630859,27.5 21.046875,28.634766 c -0.04292,0.08344 -0.03079,0.195799 -0.06445,0.285156 -0.067,-0.09411 -0.09749,-0.211106 -0.167969,-0.302734 l -0.002,-0.002 c -0.246423,-0.327941 -0.541493,-0.613851 -0.828125,-0.90625 0.137029,-0.24349 0.260893,-0.498811 0.486328,-0.683593 0.411741,-0.33559 0.939721,-0.523438 1.474609,-0.523438 z m 8.578126,0 c 0.619265,0 1.213337,0.246541 1.65039,0.683594 0.139967,0.139965 0.119839,0.359265 0.21875,0.527344 -0.05725,-0.02524 -0.1058,-0.07488 -0.164062,-0.0957 L 31.0625,27.201172 c 0.841164,1.905725 -0.235456,2.67089 -0.8125,1.582031 l -0.599609,-1.128906 -0.582032,1.136719 c -0.18159,0.354986 -0.285156,0.770789 -0.285156,1.214843 0,0.221871 0.185546,0.343165 0.234375,0.546875 -0.04183,-0.0362 -0.109093,-0.02315 -0.148437,-0.0625 -0.437052,-0.43705 -0.681641,-1.035031 -0.681641,-1.654296 0,-0.619267 0.244589,-1.213339 0.681641,-1.650391 0.437053,-0.437053 1.035028,-0.683594 1.654297,-0.683594 z m -15.78711,0.888672 c -0.477559,-0.01107 -0.933865,0.141357 -1.3125,0.404297 l -0.01758,0.01172 -0.01758,0.01367 c -0.278991,0.223069 -0.489819,0.510875 -0.621094,0.828126 v 0.002 0.0039 c -0.161447,0.398856 -0.236957,0.823563 -0.228516,1.242187 v 0.002 c 3.6e-5,0.0017 -3.8e-5,0.0041 0,0.0059 0.0093,0.650297 0.128558,1.292633 0.367188,1.90625 0.268335,0.705911 0.635509,1.375541 1.103516,1.976562 0.577497,0.773843 1.302835,1.422738 2.121093,1.921875 l 0.0039,0.0039 0.0059,0.0039 c 1.100529,0.564375 2.519862,0.718572 3.470703,0.236328 0.33072,-0.167733 0.461904,-0.577242 0.652344,-0.851563 v -0.0059 l 0.002,-0.0039 c 0.145013,-0.380657 0.23342,-0.796374 0.224609,-1.230469 v -0.002 c -0.0089,-0.651235 -0.137875,-1.295428 -0.367187,-1.898437 h 0.002 c -0.670755,-1.636163 -1.834948,-3.058869 -3.236328,-3.90625 h -0.0039 c -0.344428,-0.206446 -0.720179,-0.378304 -1.111328,-0.5 h -0.002 l -0.0059,-0.002 c -0.333628,-0.09919 -0.679341,-0.15318 -1.029297,-0.162109 z m -0.0332,1.333984 c 0.235316,0.006 0.460013,0.03958 0.681641,0.105469 0.28084,0.08811 0.563425,0.215401 0.816406,0.367188 l 0.002,0.0039 c 0.683123,0.405815 1.277748,0.938097 1.75,1.572266 l 0.002,0.0059 0.0039,0.002 c 0.385919,0.501019 0.692365,1.059524 0.917969,1.654297 0.175571,0.461685 0.272869,0.956899 0.279297,1.445312 v 0.002 0.002 c -0.150911,1.592773 -1.307698,1.156458 -2.333984,0.685546 -0.68033,-0.414998 -1.273842,-0.949816 -1.746094,-1.583984 l -0.0059,-0.0078 -0.0059,-0.0039 c -0.383407,-0.491073 -0.688458,-1.049758 -0.914062,-1.644531 v -0.002 l -0.002,-0.002 c -0.180622,-0.464456 -0.268863,-0.942713 -0.275391,-1.445313 v -0.0059 -0.002 c -0.0053,-0.238352 0.03687,-0.488449 0.128906,-0.716797 v -0.002 c 0.04509,-0.10672 0.118613,-0.196194 0.203125,-0.269531 0.156625,-0.10324 0.33745,-0.163351 0.498047,-0.160157 z m 11.509766,4.199219 c 0.04306,0.0111 0.08327,0.09961 0.125,0.09961 1.108901,1.108901 2.619628,1.732421 4.185547,1.732421 0.07144,0 0.133942,-0.0404 0.205078,-0.04297 0.0081,0.03809 0.162312,0.301557 0.210937,0.449218 -0.841496,0.43858 -2.303618,0.76611 -4.253906,0.886719 -1.273495,0.07689 -2.7331,0 -4.363281,0 h -0.05469 c 0.01761,-0.04027 0.06174,-0.06264 0.07813,-0.103516 0.170848,-0.421293 0.220082,-0.867633 0.279297,-1.310546 1.315335,-0.154599 2.565839,-0.669354 3.507812,-1.611328 0.02703,-0.08524 0.05424,-0.10627 0.08008,-0.09961 z M 31.283203,36.5 l -0.07031,0.07031 c -0.56887,0.559062 -1.41711,0.951941 -2.5625,0.978516 -0.26148,0.006 -0.765246,-0.222393 -1.0625,-0.253906 1.432606,-0.104187 2.671625,-0.350297 3.695312,-0.794922 z m 0.359375,1.349609 c 0.428275,0.354958 1.170009,0.874322 1.855469,1.382813 -0.477872,0.04324 -0.95191,0.136286 -1.433594,0.132812 -1.158644,-0.0073 -2.317312,-0.103183 -3.460937,-0.285156 h -0.002 c -0.767095,-0.124227 -1.511871,-0.339009 -2.263671,-0.523437 0.813821,0.17014 1.623218,0.340861 2.34375,0.324218 1.198785,-0.02781 2.173821,-0.444467 2.960937,-1.03125 z"
     transform="scale(0.75)"
     sodipodi:nodetypes="sccccsccccccccccccccccccccccccccccccccccccccsscccccccccccssccccsssccccccccccccsccccccccccccccccccccccccccccccccccccccccccccccssccccssscccscccscccscccccccccccccccccccccccccscscccccccccccssccccccccccscccccccscccccsccccscssssccscccccccssccccsccccccccsssccccccsccssscccccccccccccccsccccccccccccccccccccccccccccccccccccccscscccsccccsccccccccccccc" />
</svg>
