<?xml version="1.0" encoding="UTF-8" standalone="no"?>
<!-- Generator: Gravit.io -->

<svg
   style="isolation:isolate"
   viewBox="0 0 48 48"
   width="48pt"
   height="48pt"
   version="1.1"
   id="svg9"
   sodipodi:docname="github-desktop.svg"
   inkscape:version="1.1.2 (0a00cf5339, 2022-02-04)"
   xmlns:inkscape="http://www.inkscape.org/namespaces/inkscape"
   xmlns:sodipodi="http://sodipodi.sourceforge.net/DTD/sodipodi-0.dtd"
   xmlns:xlink="http://www.w3.org/1999/xlink"
   xmlns="http://www.w3.org/2000/svg"
   xmlns:svg="http://www.w3.org/2000/svg">
  <defs
     id="defs13">
    <linearGradient
       inkscape:collect="always"
       xlink:href="#_lgradient_7"
       id="linearGradient872"
       x1="-12.025727"
       y1="6.1170783"
       x2="-0.085100174"
       y2="6.1170783"
       gradientUnits="userSpaceOnUse"
       gradientTransform="matrix(3.8358211,0,0,3.8371386,-0.00544341,-0.00268054)" />
    <linearGradient
       id="_lgradient_1"
       x1="0.18336116"
       y1="0.24917752"
       x2="0.9027437"
       y2="0.90347725"
       gradientTransform="matrix(24.617266,0,0,24.816118,10.841288,10.089605)"
       gradientUnits="userSpaceOnUse">
      <stop
         offset="2.608695652173913%"
         stop-opacity="1"
         style="stop-color:rgb(179,255,171)"
         id="stop2-3" />
      <stop
         offset="98.69565217391305%"
         stop-opacity="1"
         style="stop-color:rgb(18,255,247)"
         id="stop4-6" />
    </linearGradient>
    <linearGradient
       inkscape:collect="always"
       xlink:href="#_lgradient_7"
       id="linearGradient15"
       x1="-9.6850061"
       y1="45.161198"
       x2="11.98815"
       y2="21.735205"
       gradientUnits="userSpaceOnUse"
       gradientTransform="matrix(1.1147442,0,0,1.1150348,-0.01237238,-3.3277956)" />
    <linearGradient
       inkscape:collect="always"
       xlink:href="#_lgradient_7"
       id="linearGradient2278"
       x1="31.275721"
       y1="-0.76952296"
       x2="19.269171"
       y2="44.472748"
       gradientUnits="userSpaceOnUse"
       gradientTransform="scale(1.3333333)" />
    <linearGradient
       inkscape:collect="always"
       xlink:href="#_lgradient_7"
       id="linearGradient1041"
       x1="25.053551"
       y1="6.5757775"
       x2="23.563187"
       y2="41.778599"
       gradientUnits="userSpaceOnUse" />
  </defs>
  <sodipodi:namedview
     id="namedview11"
     pagecolor="#ffffff"
     bordercolor="#666666"
     borderopacity="1.0"
     inkscape:pageshadow="2"
     inkscape:pageopacity="0.0"
     inkscape:pagecheckerboard="0"
     inkscape:document-units="pt"
     showgrid="false"
     inkscape:zoom="14.451495"
     inkscape:cx="31.796019"
     inkscape:cy="35.982437"
     inkscape:window-width="1600"
     inkscape:window-height="836"
     inkscape:window-x="0"
     inkscape:window-y="0"
     inkscape:window-maximized="1"
     inkscape:current-layer="svg9" />
  <linearGradient
     id="_lgradient_7"
     x1="0.6718099850460906"
     y1="0.020570018975650584"
     x2="0.4221494918345081"
     y2="0.9601645064179158"
     gradientTransform="matrix(48.091503,0,0,48.15085,-1.0326316,-1.7599869)"
     gradientUnits="userSpaceOnUse">
    <stop
       offset="0%"
       stop-opacity="1"
       style="stop-color:rgb(26,108,255)"
       id="stop2" />
    <stop
       offset="100%"
       stop-opacity="1"
       style="stop-color:rgb(197,34,255)"
       id="stop4" />
  </linearGradient>
  <rect
     x="-46.783188"
     y="1.2253767"
     height="45.80014"
     rx="6.1837621"
     shape-rendering="crispEdges"
     id="rect5-6-7-3"
     ry="6.8055277"
     transform="matrix(0.00524063,-0.99998627,0.99998801,0.00489691,0,0)"
     style="isolation:isolate;fill:#9f00ff;fill-opacity:0.13470298;stroke:url(#linearGradient872);stroke-width:2.0301;stroke-miterlimit:4;stroke-dasharray:none;stroke-opacity:1"
     width="45.801998" />
  <rect
     x="-15.686804"
     y="17.260084"
     height="33.345856"
     rx="6.7920032"
     shape-rendering="crispEdges"
     id="rect5-6-6-6-6"
     style="isolation:isolate;fill:#9f00ff;fill-opacity:0.13470298;stroke:url(#linearGradient15);stroke-width:1.67233;stroke-miterlimit:4;stroke-dasharray:none;stroke-opacity:1"
     ry="7.4743071"
     transform="matrix(0.72446484,-0.68931175,0.68622417,0.72739012,0,0)"
     width="33.338203" />
  <path
     style="color:#000000;fill:url(#linearGradient1041);-inkscape-stroke:none"
     d="m 28.548828,19.351562 -0.279297,0.0039 c -1.417126,0.01755 -2.902899,0.224609 -4.416015,0.224609 -1.514944,0 -3.008458,-0.203638 -4.429688,-0.216797 -1.421818,-0.01317 -2.884424,0.18216 -4.013672,1.210938 -1.176996,1.063926 -1.947265,2.459438 -1.947265,4 0,2.79324 1.34595,4.74026 3.330078,5.701172 1.970593,0.954357 4.432386,1.11914 7.060547,1.11914 2.583646,0 5.02066,0.0115 7.021484,-0.863281 2.018096,-0.882308 3.369141,-2.879142 3.369141,-5.957031 0,-1.550663 -0.791842,-2.938702 -1.958985,-4.011719 l -0.002,-0.0039 c -0.0012,-0.0011 -0.0028,-9.05e-4 -0.0039,-0.002 -1.055754,-0.961386 -2.405312,-1.162511 -3.734375,-1.173829 z m -0.271484,0.503907 c 1.367155,-0.01693 2.667482,0.166962 3.660156,1.068359 l 0.0039,0.0039 0.0098,0.0078 c 1.089136,1.003314 1.792969,2.26036 1.792969,3.638672 0,2.935032 -1.226668,4.692008 -3.070313,5.498047 -1.860914,0.813606 -4.236498,0.822265 -6.820312,0.822265 -2.606372,0 -4.999181,-0.177934 -6.841797,-1.070312 -1.829087,-0.885825 -3.048828,-2.614448 -3.048828,-5.25 0,-1.374053 0.68469,-2.637689 1.78125,-3.628907 v -0.002 h 0.002 c 0.993504,-0.90592 2.299896,-1.092803 3.673828,-1.080078 1.37617,0.01274 2.874635,0.216797 4.433594,0.216797 1.55803,0 3.051735,-0.207618 4.423828,-0.224609 z m -0.08008,1.130859 -0.0059,0.0059 c -1.246707,0.02357 -2.719568,0.21875 -4.33789,0.21875 -1.654514,0 -3.175293,-0.20506 -4.44336,-0.216796 -1.264187,-0.0117 -2.214724,0.159639 -2.90039,0.783203 l -0.0039,0.002 -0.002,0.002 -0.002,0.002 c -0.919608,0.831445 -1.410156,1.789158 -1.410156,2.791016 0,1.158748 0.208622,2.034237 0.623047,2.714843 0.414424,0.680607 1.028006,1.150952 1.789062,1.519532 1.539677,0.745663 3.800406,0.955078 6.34961,0.955078 2.573119,0 4.842277,-0.05987 6.367187,-0.726563 0.750924,-0.328303 1.368238,-0.774827 1.779297,-1.482422 0.411059,-0.707594 0.613281,-1.653885 0.613281,-2.980468 0,-0.997885 -0.503238,-1.958428 -1.429687,-2.810547 v -0.002 c -0.685587,-0.62479 -1.631449,-0.791012 -2.892578,-0.775391 z m 0.09961,0.5 c 0.217176,-0.0027 0.354083,0.0374 0.544922,0.04687 -0.612503,0.128169 -1.158844,0.463608 -1.521485,0.984375 -0.440054,0.631939 -0.683593,1.45366 -0.683593,2.349609 0,0.889003 0.244583,1.710759 0.683593,2.34375 0.441162,0.636095 1.119518,1.101563 1.914063,1.101563 0.791442,0 1.469836,-0.458623 1.912109,-1.09375 0.44009,-0.631988 0.685547,-1.455675 0.685547,-2.351563 0,-0.898147 -0.249777,-1.724335 -0.691406,-2.357421 -0.138345,-0.198322 -0.334996,-0.33462 -0.515625,-0.490235 0.06488,0.04623 0.161541,0.05741 0.220703,0.111328 0.856147,0.787458 1.267578,1.61252 1.267578,2.44336 0,1.275444 -0.19578,2.129457 -0.544922,2.730468 -0.349142,0.601012 -0.853792,0.970423 -1.546875,1.273438 -1.178484,0.515232 -3.078959,0.624791 -5.210937,0.652344 0.180577,-0.158613 0.348746,-0.337366 0.43164,-0.572266 0.0412,-0.106599 0.0329,-0.230604 -0.01563,-0.322266 -0.04911,-0.09277 -0.129255,-0.158731 -0.220703,-0.195312 -0.107458,-0.04299 -0.233401,-0.03153 -0.326172,0.01758 -0.09277,0.04911 -0.15873,0.127302 -0.195312,0.21875 v 0.002 0.002 c -0.09518,0.249856 -0.331365,0.425782 -0.597656,0.425782 -0.273538,0 -0.501319,-0.156944 -0.597657,-0.421875 l -0.002,-0.0039 v -0.0039 c -0.03658,-0.09145 -0.10255,-0.169642 -0.195312,-0.21875 -0.09276,-0.04911 -0.218713,-0.06055 -0.326172,-0.01758 -0.09144,0.03658 -0.169637,0.102548 -0.21875,0.195312 -0.04823,0.0911 -0.0579,0.214144 -0.01758,0.320313 0.07986,0.227751 0.243787,0.397982 0.416015,0.554687 -2.114947,-0.05529 -4.007747,-0.265136 -5.222656,-0.853515 -0.707214,-0.342504 -1.227992,-0.746688 -1.582031,-1.328125 -0.354039,-0.581437 -0.548828,-1.355579 -0.548828,-2.455078 0,-0.841664 0.401661,-1.657398 1.248047,-2.421875 l 0.0039,-0.0039 c 0.330415,-0.301544 0.793466,-0.453796 1.339844,-0.546875 -0.507766,0.172447 -0.967498,0.465454 -1.28125,0.916016 -0.440055,0.631939 -0.685547,1.45366 -0.685547,2.349609 0,0.889003 0.244584,1.710759 0.683594,2.34375 0.441163,0.636094 1.12147,1.101563 1.916015,1.101563 0.791443,0 1.469835,-0.458624 1.91211,-1.09375 0.440053,-0.631938 0.685546,-1.455613 0.685546,-2.351563 0,-0.895897 -0.245627,-1.721163 -0.685546,-2.355468 -0.372895,-0.53766 -0.938638,-0.88662 -1.578125,-0.996094 0.09528,-0.0016 0.152884,-0.02242 0.253906,-0.02148 1.216949,0.01126 2.753962,0.216796 4.449219,0.216796 1.697027,0 3.230471,-0.209588 4.443359,-0.224609 z M 18.8125,21.921875 h 0.002 c 0.598117,-0.0083 1.133839,0.341416 1.503906,0.875 0.372936,0.537723 0.595703,1.265757 0.595703,2.070312 0,0.804503 -0.222797,1.528943 -0.595703,2.064454 -0.370686,0.532322 -0.904448,0.880859 -1.501953,0.880859 -0.59852,0 -1.133378,-0.352471 -1.503906,-0.886719 -0.372678,-0.537351 -0.595703,-1.261834 -0.595703,-2.058594 0,-0.804502 0.222796,-1.528941 0.595703,-2.064453 0.369878,-0.531161 0.903984,-0.879396 1.5,-0.880859 z m 10.417969,0 h 0.002 c 0.591675,-0.0083 1.125768,0.341329 1.498047,0.875 0.374804,0.537292 0.601562,1.265147 0.601562,2.070312 0,0.804566 -0.222831,1.528993 -0.595703,2.064454 -0.370685,0.532322 -0.904449,0.880859 -1.501953,0.880859 -0.59852,0 -1.133381,-0.352472 -1.503906,-0.886719 -0.372679,-0.537351 -0.59375,-1.261834 -0.59375,-2.058594 0,-0.804502 0.220843,-1.528941 0.59375,-2.064453 0.369878,-0.531161 0.903982,-0.879396 1.5,-0.880859 z m -10.416016,0.314453 v 0.002 c -0.474666,0.001 -0.917886,0.275623 -1.244141,0.744141 -0.329921,0.473782 -0.537109,1.138664 -0.537109,1.884765 0,0.737683 0.20888,1.402829 0.539063,1.878907 0.327257,0.471859 0.768797,0.751953 1.24414,0.751953 0.475669,0 0.917283,-0.276711 1.244141,-0.746094 0.329887,-0.473733 0.537109,-1.138664 0.537109,-1.884766 0,-0.746165 -0.20708,-1.414767 -0.537109,-1.890625 -0.326733,-0.471105 -0.768124,-0.747384 -1.242188,-0.740234 h -0.002 z m 10.419922,0 c -0.475669,0 -0.919188,0.276641 -1.246094,0.746094 -0.329968,0.473851 -0.537109,1.138739 -0.537109,1.884765 0,0.737683 0.208877,1.402828 0.539062,1.878907 0.327256,0.471859 0.768798,0.751953 1.244141,0.751953 0.475668,0 0.917282,-0.276711 1.244141,-0.746094 0.329935,-0.473802 0.537109,-1.138739 0.537109,-1.884766 0,-0.745579 -0.212793,-1.414512 -0.544922,-1.890625 -0.329221,-0.471948 -0.768043,-0.747472 -1.234375,-0.740234 z m -10.386719,1.21875 c 0.187143,0 0.388954,0.109778 0.56836,0.367188 0.178023,0.255424 0.30664,0.643808 0.30664,1.078125 0,0.434315 -0.128617,0.822701 -0.30664,1.078125 -0.179406,0.257409 -0.381218,0.367187 -0.56836,0.367187 -0.200053,0 -0.394975,-0.10863 -0.572265,-0.365234 -0.175554,-0.254089 -0.302735,-0.643592 -0.302735,-1.080078 0,-0.434317 0.128618,-0.822701 0.306641,-1.078125 0.179407,-0.25741 0.381218,-0.367188 0.568359,-0.367188 z m 10.402344,0 c 0.200055,0 0.394978,0.108631 0.572266,0.365234 0.175553,0.25409 0.302734,0.643592 0.302734,1.080079 0,0.434315 -0.128618,0.822701 -0.306641,1.078125 -0.179407,0.25741 -0.381218,0.367187 -0.568359,0.367187 -0.200054,0 -0.396928,-0.108629 -0.574219,-0.365234 C 28.500228,25.726379 28.375,25.336876 28.375,24.900391 c 0,-0.434317 0.128618,-0.822701 0.306641,-1.078125 0.179405,-0.25741 0.381216,-0.367188 0.568359,-0.367188 z m -5.363281,2.988281 c -0.4953,0 -0.902344,0.407043 -0.902344,0.902344 0,0.50439 0.41691,0.902344 0.902344,0.902344 0.504389,0 0.90039,-0.416909 0.90039,-0.902344 0,-0.50439 -0.414956,-0.902344 -0.90039,-0.902344 z m 0,0.826172 c 0.03884,0 0.07617,0.02488 0.07617,0.07617 0,0.03884 -0.02488,0.07617 -0.07617,0.07617 -0.03884,0 -0.07617,-0.02488 -0.07617,-0.07617 0,-0.04032 0.0083,-0.05125 0.01563,-0.05859 0.0073,-0.0073 0.02022,-0.01758 0.06055,-0.01758 z m -1.066407,1.28711 c 0.0097,0.02671 0.05101,0.01931 0.0625,0.04492 -0.0086,-0.0019 -0.01903,0.0014 -0.02539,-0.002 -0.02347,-0.01243 -0.03118,-0.02717 -0.03516,-0.03711 z m 2.128907,0.0059 c -0.004,0.0099 -0.01168,0.02468 -0.03516,0.03711 -0.0049,0.0026 -0.01317,2.16e-4 -0.01953,0.002 0.0099,-0.02178 0.04607,-0.0166 0.05469,-0.03906 z"
     id="path25" />
  <path
     id="path7"
     style="color:#000000;fill:url(#linearGradient2278);fill-rule:evenodd;stroke-width:1.33333;-inkscape-stroke:none"
     d="m 45.931641,15.451172 c -3.046636,-0.106227 -5.563377,2.508199 -7.121094,3.65625 -2.061824,-0.569439 -4.727818,-0.916956 -6.835938,-0.935547 -2.102564,-0.01876 -4.765048,0.295247 -7.130859,0.9375 -0.944536,-0.472936 -1.980819,-1.316752 -3.101562,-2.101563 -1.165041,-0.815826 -2.453162,-1.56785 -3.939454,-1.498046 l -0.435546,0.01953 -0.15625,0.40625 c -1.391053,3.621323 -0.660206,6.253865 -0.314454,7.212891 -1.55927,1.988521 -1.886718,4.421742 -1.886718,7.203124 0,5.212686 1.370701,8.55559 3.5625,10.632813 1.938541,1.837205 4.464817,2.563341 7.044922,2.962891 -0.415894,0.68782 -0.723024,1.525556 -0.900391,2.568359 -0.693792,0.299669 -1.639765,0.657583 -2.667969,0.556641 -1.132684,-0.1112 -2.322346,-0.662885 -3.390625,-2.548828 -0.01213,-0.02335 -1.490217,-2.863903 -4.488281,-3.080079 l -0.02148,-0.0039 h -0.02149 c 0,0 -0.19625,-2.96e-4 -0.439453,0.02734 -0.243203,0.02767 -0.544654,0.06096 -0.873047,0.253906 -0.164196,0.09648 -0.349942,0.254227 -0.457031,0.507813 -0.107089,0.253585 -0.08813,0.565602 0.0078,0.800781 0.191876,0.470359 0.564218,0.794165 1.195313,1.238281 l 0.04297,0.03125 0.05078,0.02734 c 0,0 0.295515,0.130014 0.804687,0.65625 0.509172,0.526231 1.17421,1.419425 1.730469,2.875 0.05926,0.221223 0.443519,1.514276 1.683594,2.640625 1.236844,1.123416 3.470768,1.846271 6.675781,1.355469 0.002,0.648232 0.0062,1.785608 0.0078,3.185546 l 0.03711,-0.06836 1.296875,1.270334 c -0.0015,-1.80143 -0.0053,-4.589859 -0.0078,-5.059396 l -0.0059,-0.828125 -0.806641,0.179687 c -3.434871,0.768524 -5.25189,-0.06896 -6.302734,-1.023437 -1.050844,-0.954472 -1.30664,-2.042969 -1.30664,-2.042969 l -0.0098,-0.04492 -0.01563,-0.04102 C 16.817232,45.762671 16.047054,44.706867 15.416016,44.054688 14.784977,43.402506 14.234375,43.125 14.234375,43.125 l 0.09375,0.05469 c -0.322283,-0.226799 -0.328902,-0.273869 -0.435547,-0.390626 0.09289,-0.0075 0.166736,-0.01367 0.185547,-0.01367 2.169784,0.160877 3.412109,2.388671 3.412109,2.388671 l 0.0039,0.0078 0.0039,0.0078 c 1.234652,2.179658 2.903731,3.071663 4.421875,3.220703 1.518144,0.149041 2.845437,-0.368709 3.626953,-0.730469 l 0.330078,-0.154297 0.05078,-0.361328 c 0.22477,-1.646552 0.659232,-2.663977 1.205078,-3.15625 l 1.09375,-0.984375 -1.46289,-0.171875 c -2.803801,-0.328211 -5.393835,-1.044824 -7.273438,-2.826172 -1.879604,-1.781349 -3.146484,-4.68136 -3.146484,-9.664063 0,-2.864376 0.250455,-5.020831 1.736328,-6.693359 l 0.271484,-0.306641 -0.15039,-0.382812 c -0.211761,-0.535376 -0.808512,-2.839573 0.152344,-5.929688 0.842769,0.109041 1.702349,0.417775 2.623046,1.0625 1.092531,0.765054 2.197377,1.720732 3.421876,2.296876 l 0.226562,0.107421 0.242188,-0.07031 c 2.274499,-0.662247 5.018088,-0.948209 7.09375,-0.929688 2.101746,0.01853 4.964947,0.358536 6.851562,0.929688 l 0.3125,0.09375 0.265625,-0.1875 c 1.752679,-1.230327 4.155163,-3.513142 6.380859,-3.515625 1.082362,3.218709 0.406691,5.592479 0.189454,6.144531 l -0.150391,0.380859 0.273437,0.306641 c 1.483463,1.665685 1.667969,3.818333 1.667969,6.693359 0,4.988972 -1.343671,7.877762 -3.3125,9.658204 -1.968829,1.780442 -4.661533,2.490668 -7.476562,2.8125 l -1.484375,0.169922 1.117187,0.990234 c 0.764283,0.678737 1.621094,2.112469 1.621094,4.429687 0,1.034359 -0.0037,4.299156 -0.0078,6.84032 l 1.332032,-1.275867 c 0.0039,-2.344977 0.0078,-4.591099 0.0078,-5.564453 0,-2.047169 -0.644485,-3.438533 -1.414062,-4.482421 2.595833,-0.392218 5.183208,-1.10658 7.199218,-2.929688 2.283683,-2.065168 3.751954,-5.414735 3.751954,-10.648438 0,-2.769204 -0.26278,-5.203348 -1.820313,-7.197265 0.342991,-0.953004 1.077458,-3.592059 -0.318359,-7.21875 l -0.140625,-0.365235 -0.837891,-0.11914 z"
     transform="scale(0.75)"
     sodipodi:nodetypes="ccccsccccssccscccccssscccscscccccccscccscccccccsccccccssccccscccccccccccsscccsccscssccccc" />
</svg>
