<?xml version="1.0" encoding="UTF-8" standalone="no"?>
<!-- Generator: Gravit.io -->

<svg
   style="isolation:isolate"
   viewBox="0 0 48 48"
   width="48pt"
   height="48pt"
   version="1.1"
   id="svg39"
   sodipodi:docname="gmail.svg"
   inkscape:version="1.1.2 (0a00cf5339, 2022-02-04)"
   xmlns:inkscape="http://www.inkscape.org/namespaces/inkscape"
   xmlns:sodipodi="http://sodipodi.sourceforge.net/DTD/sodipodi-0.dtd"
   xmlns:xlink="http://www.w3.org/1999/xlink"
   xmlns="http://www.w3.org/2000/svg"
   xmlns:svg="http://www.w3.org/2000/svg">
  <defs
     id="defs43">
    <linearGradient
       inkscape:collect="always"
       xlink:href="#_lgradient_60"
       id="linearGradient872"
       x1="-12.025727"
       y1="6.1170783"
       x2="-0.085100174"
       y2="6.1170783"
       gradientUnits="userSpaceOnUse"
       gradientTransform="matrix(3.8358211,0,0,3.8371386,-0.00544341,-0.00268054)" />
    <linearGradient
       id="_lgradient_1"
       x1="0.18336116"
       y1="0.24917752"
       x2="0.9027437"
       y2="0.90347725"
       gradientTransform="matrix(24.617266,0,0,24.816118,10.841288,10.089605)"
       gradientUnits="userSpaceOnUse">
      <stop
         offset="2.608695652173913%"
         stop-opacity="1"
         style="stop-color:rgb(179,255,171)"
         id="stop2-3" />
      <stop
         offset="98.69565217391305%"
         stop-opacity="1"
         style="stop-color:rgb(18,255,247)"
         id="stop4-6" />
    </linearGradient>
    <linearGradient
       inkscape:collect="always"
       xlink:href="#_lgradient_60"
       id="linearGradient15"
       x1="-9.6850061"
       y1="45.161198"
       x2="11.98815"
       y2="21.735205"
       gradientUnits="userSpaceOnUse"
       gradientTransform="matrix(1.1147442,0,0,1.1150348,-0.01237238,-3.3277956)" />
    <linearGradient
       inkscape:collect="always"
       xlink:href="#_lgradient_64"
       id="linearGradient1088"
       x1="11.571918"
       y1="21.740276"
       x2="30.835445"
       y2="21.740276"
       gradientUnits="userSpaceOnUse"
       gradientTransform="scale(1.3333333)" />
    <linearGradient
       inkscape:collect="always"
       xlink:href="#_lgradient_60"
       id="linearGradient1120"
       x1="17.242231"
       y1="22.679605"
       x2="12.103962"
       y2="32.876957"
       gradientUnits="userSpaceOnUse" />
    <linearGradient
       inkscape:collect="always"
       xlink:href="#_lgradient_62"
       id="linearGradient1365"
       x1="30.835445"
       y1="19.199165"
       x2="36.428082"
       y2="19.199165"
       gradientUnits="userSpaceOnUse" />
    <linearGradient
       inkscape:collect="always"
       xlink:href="#_lgradient_1"
       id="linearGradient1395"
       x1="30.835445"
       y1="26.402613"
       x2="36.428082"
       y2="26.402613"
       gradientUnits="userSpaceOnUse" />
  </defs>
  <sodipodi:namedview
     id="namedview41"
     pagecolor="#ffffff"
     bordercolor="#666666"
     borderopacity="1.0"
     inkscape:pageshadow="2"
     inkscape:pageopacity="0.0"
     inkscape:pagecheckerboard="0"
     inkscape:document-units="pt"
     showgrid="false"
     inkscape:zoom="5.109375"
     inkscape:cx="23.388379"
     inkscape:cy="27.889908"
     inkscape:window-width="1056"
     inkscape:window-height="545"
     inkscape:window-x="326"
     inkscape:window-y="114"
     inkscape:window-maximized="0"
     inkscape:current-layer="svg39" />
  <linearGradient
     id="_lgradient_60"
     x1="1.013888888888889"
     y1="0.23093411397731023"
     x2="0.09513274336283206"
     y2="0.9679079799515115"
     gradientTransform="matrix(5.5926367,0,0,13.83679,11.571919,19.484218)"
     gradientUnits="userSpaceOnUse">
    <stop
       offset="0%"
       stop-opacity="1"
       style="stop-color:rgb(84,51,255)"
       id="stop2" />
    <stop
       offset="51.73913043478261%"
       stop-opacity="1"
       style="stop-color:rgb(32,189,255)"
       id="stop4" />
    <stop
       offset="98.26086956521739%"
       stop-opacity="1"
       style="stop-color:rgb(165,254,203)"
       id="stop6" />
  </linearGradient>
  <rect
     x="-46.783188"
     y="1.2253767"
     height="45.80014"
     rx="6.1837621"
     shape-rendering="crispEdges"
     id="rect5-6-7-3"
     ry="6.8055277"
     transform="matrix(0.00524063,-0.99998627,0.99998801,0.00489691,0,0)"
     style="isolation:isolate;fill:#00ffc3;fill-opacity:0.134703;stroke:url(#linearGradient872);stroke-width:2.0301;stroke-miterlimit:4;stroke-dasharray:none;stroke-opacity:1"
     width="45.801998" />
  <rect
     x="-15.686804"
     y="17.260084"
     height="33.345856"
     rx="6.7920032"
     shape-rendering="crispEdges"
     id="rect5-6-6-6-6"
     style="isolation:isolate;fill:#00ffc3;fill-opacity:0.134703;stroke:url(#linearGradient15);stroke-width:1.67233;stroke-miterlimit:4;stroke-dasharray:none;stroke-opacity:1"
     ry="7.4743071"
     transform="matrix(0.72446484,-0.68931175,0.68622417,0.72739012,0,0)"
     width="33.338203" />
  <path
     style="color:#000000;fill:url(#linearGradient1120);-inkscape-stroke:none"
     d="m 11.072266,18.478516 v 13.148437 c 0,1.203311 0.978299,2.193359 2.177734,2.193359 h 4.414062 V 23.470703 Z m 1,2.011718 4.591796,3.478516 v 8.851562 H 13.25 c -0.653791,0 -1.177734,-0.524946 -1.177734,-1.193359 z"
     id="path9" />
  <linearGradient
     id="_lgradient_61"
     x1="0.18336115895060273"
     y1="0.24917751794896525"
     x2="0.9027436828643176"
     y2="0.9034772483231972"
     gradientTransform="matrix(5.5926367,0,0,13.83679,30.835445,19.484218)"
     gradientUnits="userSpaceOnUse">
    <stop
       offset="2.608695652173913%"
       stop-opacity="1"
       style="stop-color:rgb(179,255,171)"
       id="stop11" />
    <stop
       offset="98.69565217391305%"
       stop-opacity="1"
       style="stop-color:rgb(18,255,247)"
       id="stop13" />
  </linearGradient>
  <path
     style="color:#000000;fill:url(#linearGradient1395);-inkscape-stroke:none"
     d="m 36.927734,18.478516 -6.591797,4.992187 v 10.349609 h 0.5 H 34.75 c 1.199843,0 2.177734,-0.990048 2.177734,-2.193359 z m -1,2.011718 v 11.136719 c 0,0.668413 -0.523193,1.193359 -1.177734,1.193359 H 31.335937 V 23.96875 Z"
     id="path16" />
  <linearGradient
     id="_lgradient_62"
     x1="0.23611111111111116"
     y1="0.6014059790016704"
     x2="1.0169753086419746"
     y2="0.07445978688994548"
     gradientTransform="matrix(5.5926367,0,0,9.0407067,30.835445,14.678886)"
     gradientUnits="userSpaceOnUse">
    <stop
       offset="0%"
       stop-opacity="1"
       style="stop-color:rgb(247,242,6)"
       id="stop18" />
    <stop
       offset="97.82608695652173%"
       stop-opacity="1"
       style="stop-color:rgb(255,187,36)"
       id="stop20" />
  </linearGradient>
  <path
     style="color:#000000;fill:url(#linearGradient1365);-inkscape-stroke:none"
     d="m 33.681641,14.197266 c -0.544725,0.03473 -1.091102,0.223958 -1.582032,0.595703 l -1.763672,1.335937 v 0.248047 8.347656 l 6.591797,-4.992187 v -2.507813 c 0,-1.853274 -1.61192,-3.131544 -3.246093,-3.027343 z m 0.09766,0.974609 c 1.0976,-0.08704 2.148437,0.764598 2.148437,2.052734 v 2.011719 l -4.591797,3.476563 V 16.625 l 1.367188,-1.035156 c 0.338862,-0.256595 0.710305,-0.388955 1.076172,-0.417969 z"
     id="path23" />
  <linearGradient
     id="_lgradient_63"
     x1="0"
     y1="0.5"
     x2="0.9074880558539661"
     y2="0.9200778838291643"
     gradientTransform="matrix(23.65,0,0,21.493,12.175,10.814)"
     gradientUnits="userSpaceOnUse">
    <stop
       offset="0%"
       stop-opacity="1"
       style="stop-color:rgb(255,65,108)"
       id="stop25" />
    <stop
       offset="84.34782608695653%"
       stop-opacity="1"
       style="stop-color:rgb(255,75,43)"
       id="stop27" />
  </linearGradient>
  <linearGradient
     id="_lgradient_64"
     x1="0.05555555555555557"
     y1="0.19760482091605525"
     x2="4.501431844215349"
     y2="2.3162544593034022"
     gradientTransform="matrix(9.675,0,0,15.64,2.5,7.875)"
     gradientUnits="userSpaceOnUse">
    <stop
       offset="0%"
       stop-opacity="1"
       style="stop-color:rgb(255,65,108)"
       id="stop32" />
    <stop
       offset="84.34782608695653%"
       stop-opacity="1"
       style="stop-color:rgb(255,75,43)"
       id="stop34" />
  </linearGradient>
  <path
     id="path37"
     style="color:#000000;fill:url(#linearGradient1088);stroke-width:1.33333;-inkscape-stroke:none"
     d="M 18.683594 18.925781 C 16.652117 19.0076 14.763672 20.650208 14.763672 22.966797 L 14.763672 26.310547 L 22.21875 31.955078 L 22.21875 31.960938 L 22.490234 32.162109 L 23.552734 32.966797 L 23.552734 32.951172 L 32 39.234375 L 41.78125 31.960938 L 41.78125 20.509766 L 32 27.779297 L 23.273438 21.294922 L 21.201172 19.724609 C 20.546599 19.228949 19.818097 18.975998 19.091797 18.929688 C 18.955616 18.921004 18.819026 18.920327 18.683594 18.925781 z M 18.6875 20.222656 C 18.778153 20.220295 18.869471 20.221262 18.960938 20.228516 C 19.44876 20.267196 19.94467 20.444983 20.396484 20.787109 L 22.21875 22.169922 L 23.552734 23.162109 L 32 29.439453 L 40.447266 23.162109 L 40.447266 31.291016 L 32 37.572266 L 23.552734 31.291016 L 22.21875 30.283203 L 16.095703 25.648438 L 16.095703 22.966797 C 16.095703 21.356633 17.327709 20.258072 18.6875 20.222656 z "
     transform="scale(0.75)" />
</svg>
