<?xml version="1.0" encoding="UTF-8" standalone="no"?>
<!-- Generator: Gravit.io -->

<svg
   style="isolation:isolate"
   viewBox="0 0 48 48"
   width="48pt"
   height="48pt"
   version="1.1"
   id="svg37"
   sodipodi:docname="gnome-firmware.svg"
   inkscape:version="1.1.2 (0a00cf5339, 2022-02-04)"
   xmlns:inkscape="http://www.inkscape.org/namespaces/inkscape"
   xmlns:sodipodi="http://sodipodi.sourceforge.net/DTD/sodipodi-0.dtd"
   xmlns:xlink="http://www.w3.org/1999/xlink"
   xmlns="http://www.w3.org/2000/svg"
   xmlns:svg="http://www.w3.org/2000/svg">
  <defs
     id="defs41">
    <linearGradient
       inkscape:collect="always"
       xlink:href="#_lgradient_6"
       id="linearGradient872"
       x1="-12.025727"
       y1="6.1170783"
       x2="-0.085100174"
       y2="6.1170783"
       gradientUnits="userSpaceOnUse"
       gradientTransform="matrix(3.8358211,0,0,3.8371386,-0.00544341,-0.00268054)" />
    <linearGradient
       id="_lgradient_1"
       x1="0.18336116"
       y1="0.24917752"
       x2="0.9027437"
       y2="0.90347725"
       gradientTransform="matrix(24.617266,0,0,24.816118,10.841288,10.089605)"
       gradientUnits="userSpaceOnUse">
      <stop
         offset="2.608695652173913%"
         stop-opacity="1"
         style="stop-color:rgb(179,255,171)"
         id="stop2-3" />
      <stop
         offset="98.69565217391305%"
         stop-opacity="1"
         style="stop-color:rgb(18,255,247)"
         id="stop4-6" />
    </linearGradient>
    <linearGradient
       inkscape:collect="always"
       xlink:href="#_lgradient_6"
       id="linearGradient15"
       x1="-9.6850061"
       y1="45.161198"
       x2="11.98815"
       y2="21.735205"
       gradientUnits="userSpaceOnUse"
       gradientTransform="matrix(1.1147442,0,0,1.1150348,-0.01237238,-3.3277956)" />
    <linearGradient
       inkscape:collect="always"
       xlink:href="#_lgradient_6"
       id="linearGradient1121"
       x1="19.410036"
       y1="24"
       x2="28.589964"
       y2="24"
       gradientUnits="userSpaceOnUse"
       gradientTransform="matrix(0.92014294,0,0,0.92014294,1.9165695,1.9165695)" />
    <linearGradient
       inkscape:collect="always"
       xlink:href="#_lgradient_4"
       id="linearGradient1147"
       x1="12.197238"
       y1="24"
       x2="35.802761"
       y2="24"
       gradientUnits="userSpaceOnUse" />
    <linearGradient
       inkscape:collect="always"
       xlink:href="#_lgradient_7"
       id="linearGradient1173"
       x1="16.787201"
       y1="24"
       x2="31.212799"
       y2="24"
       gradientUnits="userSpaceOnUse" />
    <linearGradient
       inkscape:collect="always"
       xlink:href="#_lgradient_5"
       id="linearGradient1203"
       x1="12.197238"
       y1="24"
       x2="35.802761"
       y2="24"
       gradientUnits="userSpaceOnUse" />
  </defs>
  <sodipodi:namedview
     id="namedview39"
     pagecolor="#ffffff"
     bordercolor="#666666"
     borderopacity="1.0"
     inkscape:pageshadow="2"
     inkscape:pageopacity="0.0"
     inkscape:pagecheckerboard="0"
     inkscape:document-units="pt"
     showgrid="false"
     inkscape:zoom="10.21875"
     inkscape:cx="31.95107"
     inkscape:cy="32"
     inkscape:window-width="1600"
     inkscape:window-height="836"
     inkscape:window-x="0"
     inkscape:window-y="0"
     inkscape:window-maximized="1"
     inkscape:current-layer="svg37" />
  <linearGradient
     id="_lgradient_3"
     x1="0"
     y1="0.5"
     x2="1"
     y2="0.5"
     gradientTransform="matrix(0,45.913,-48,0,48,1.043)"
     gradientUnits="userSpaceOnUse">
    <stop
       offset="0%"
       stop-opacity="1"
       style="stop-color:rgb(17,153,142)"
       id="stop2" />
    <stop
       offset="99.1304347826087%"
       stop-opacity="1"
       style="stop-color:rgb(56,239,125)"
       id="stop4" />
  </linearGradient>
  <linearGradient
     id="_lgradient_4"
     x1="0.031182562838213412"
     y1="0.10866627890091946"
     x2="0.9583795358695032"
     y2="0.9751947012019755"
     gradientTransform="matrix(23.605524,0,0,19.67127,12.197238,14.164365)"
     gradientUnits="userSpaceOnUse">
    <stop
       offset="0%"
       stop-opacity="1"
       style="stop-color:rgb(165,248,106)"
       id="stop9" />
    <stop
       offset="97.91666666666666%"
       stop-opacity="1"
       style="stop-color:rgb(47,206,146)"
       id="stop11" />
  </linearGradient>
  <rect
     x="-46.783188"
     y="1.2253767"
     height="45.80014"
     rx="6.1837621"
     shape-rendering="crispEdges"
     id="rect5-6-7-3"
     ry="6.8055277"
     transform="matrix(0.00524063,-0.99998627,0.99998801,0.00489691,0,0)"
     style="isolation:isolate;fill:#00ffa6;fill-opacity:0.13470298;stroke:url(#linearGradient872);stroke-width:2.0301;stroke-miterlimit:4;stroke-dasharray:none;stroke-opacity:1"
     width="45.801998" />
  <rect
     x="-15.686804"
     y="17.260084"
     height="33.345856"
     rx="6.7920032"
     shape-rendering="crispEdges"
     id="rect5-6-6-6-6"
     style="isolation:isolate;fill:#00ffa6;fill-opacity:0.13470298;stroke:url(#linearGradient15);stroke-width:1.67233;stroke-miterlimit:4;stroke-dasharray:none;stroke-opacity:1"
     ry="7.4743071"
     transform="matrix(0.72446484,-0.68931175,0.68622417,0.72739012,0,0)"
     width="33.338203" />
  <path
     style="color:#000000;fill:url(#linearGradient1147);-inkscape-stroke:none"
     d="m 20.220703,13.664063 v 0.5 5.089843 h 2.3125 v -5.589843 z m 2.623047,0 v 0.5 5.089843 h 2.3125 v -5.589843 z m 2.623047,0 v 0.5 5.089843 h 2.3125 v -5.589843 z m -4.246094,1 h 0.3125 v 3.589843 h -0.3125 z m 2.623047,0 h 0.3125 v 3.589843 h -0.3125 z m 2.623047,0 h 0.3125 v 3.589843 h -0.3125 z m -14.113281,1.623046 v 0.5 1.810547 h 1.310547 v 2.779297 c 0,0 -0.0068,0.267597 0.134765,0.550781 0.141592,0.283184 0.526964,0.605469 1.021485,0.605469 h 4.433593 v -2.3125 h -3.277343 v -2.777344 c 0,-0.49452 -0.322285,-0.879892 -0.605469,-1.021484 -0.283184,-0.141592 -0.550782,-0.134766 -0.550781,-0.134766 z m 21.638671,0.5 v 3.433594 h -5.246093 v 2.3125 h 6.40039 c 0.494521,0 0.879893,-0.322285 1.021485,-0.605469 0.141592,-0.283184 0.134765,-0.550781 0.134765,-0.550781 v -4.589844 h -1 v 4.589844 c 0,0 -0.007,0.05885 -0.0293,0.103516 -0.02233,0.04467 0.03423,0.05273 -0.126953,0.05273 h -5.40039 v -0.3125 h 5.246093 v -4.433594 z m -20.638671,0.5 h 1.466797 c 0,0 0.05884,0.007 0.103515,0.0293 0.04467,0.02233 0.05274,-0.03423 0.05274,0.126953 v 3.777344 h 3.277343 v 0.3125 h -3.433593 c -0.161188,0 -0.104619,-0.0081 -0.126954,-0.05273 -0.02233,-0.04467 -0.0293,-0.103516 -0.0293,-0.103516 v -3.779297 h -1.310547 z m -1,5.556641 v 0.5 1.8125 h 6.90039 v -2.3125 z m 16.392578,0 v 0.5 1.8125 h 6.90039 v -2.3125 z m -15.392578,1 h 4.90039 v 0.3125 h -4.90039 z m 16.392578,0 h 4.90039 v 0.3125 h -4.90039 z m -16.892578,1.623047 c -0.494521,0 -0.879893,0.322285 -1.021485,0.605469 -0.141592,0.283184 -0.134765,0.550781 -0.134765,0.550781 v 5.089844 h 2.310547 v -3.933594 h 5.246093 v -2.3125 z m 15.892578,0 v 0.5 1.8125 h 3.277343 v 2.777344 c 0,0.49452 0.322285,0.879892 0.605469,1.021484 0.283184,0.141592 0.550781,0.134766 0.550781,0.134766 h 2.466797 v -2.310547 h -1.310547 v -2.779297 c 0,0 0.0068,-0.267597 -0.134765,-0.550781 -0.141592,-0.283184 -0.526964,-0.605469 -1.021485,-0.605469 z m -15.892578,1 h 5.40039 v 0.3125 h -5.246093 v 3.933594 h -0.310547 v -4.089844 c 0,0 0.007,-0.05885 0.0293,-0.103516 0.02233,-0.04467 -0.03424,-0.05273 0.126953,-0.05273 z m 16.892578,0 h 3.433593 c 0.161188,0 0.104619,0.0081 0.126954,0.05273 0.02233,0.04467 0.0293,0.103516 0.0293,0.103516 v 3.779297 h 1.310547 v 0.310547 h -1.466797 c 0,0 -0.05884,-0.007 -0.103515,-0.0293 -0.04467,-0.02233 -0.05273,0.03423 -0.05273,-0.126953 v -3.777344 h -3.277343 z m -9.525391,2.279297 v 0.5 5.089843 h 2.3125 v -5.589843 z m 2.623047,0 v 0.5 5.089843 h 2.3125 v -5.589843 z m 2.623047,0 v 0.5 5.089843 h 2.3125 v -5.589843 z m -4.246094,1 h 0.3125 v 3.589843 h -0.3125 z m 2.623047,0 h 0.3125 v 3.589843 h -0.3125 z m 2.623047,0 h 0.3125 v 3.589843 h -0.3125 z"
     id="path14" />
  <linearGradient
     id="_lgradient_5"
     x1="0"
     y1="0.5"
     x2="1.0000000000000002"
     y2="0.5"
     gradientTransform="matrix(14.425598,0,0,14.425598,16.787201,16.787201)"
     gradientUnits="userSpaceOnUse">
    <stop
       offset="0%"
       stop-opacity="1"
       style="stop-color:rgb(247,242,6)"
       id="stop16" />
    <stop
       offset="98.26086956521739%"
       stop-opacity="1"
       style="stop-color:rgb(255,187,36)"
       id="stop18" />
  </linearGradient>
  <path
     style="color:#000000;fill:url(#linearGradient1173);-inkscape-stroke:none"
     d="m 20.220703,16.287109 v 0.5 3.433594 h -3.933594 v 0.5 1.8125 h 4.279297 v -1.966797 h 1.966797 v -4.279297 z m 2.623047,0 v 0.5 3.779297 h 2.3125 v -4.279297 z m 2.623047,0 v 0.5 3.779297 h 1.966797 v 0.154297 1.8125 h 4.279297 v -2.3125 h -3.933594 v -3.933594 z m -4.246094,1 h 0.3125 v 2.279297 h -0.3125 z m 2.623047,0 h 0.3125 v 2.279297 h -0.3125 z m 2.623047,0 h 0.3125 v 2.279297 h -0.3125 z m -9.179688,3.933594 h 2.279297 v 0.3125 h -2.279297 z m 11.146485,0 h 2.279297 v 0.3125 H 28.433594 Z M 16.287109,22.84375 v 0.5 1.8125 h 4.279297 v -2.3125 z m 11.146485,0 v 0.5 1.8125 h 4.279297 v -2.3125 z m -10.146485,1 h 2.279297 v 0.3125 h -2.279297 z m 11.146485,0 h 2.279297 v 0.3125 h -2.279297 z m -12.146485,1.623047 v 0.5 1.8125 h 3.933594 v 0.154297 3.779297 h 2.3125 v -4.279297 h -1.966797 v -1.966797 z m 11.146485,0 v 0.5 1.466797 h -1.966797 v 0.5 3.779297 h 2.3125 v -3.933594 h 3.933594 v -2.3125 z m -10.146485,1 h 2.279297 v 0.3125 h -2.279297 z m 11.146485,0 h 2.279297 v 0.3125 h -2.279297 z m -5.589844,0.966797 v 0.5 3.779297 h 2.3125 v -4.279297 z m -1.623047,1 h 0.3125 v 2.279297 h -0.3125 z m 2.623047,0 h 0.3125 v 2.279297 h -0.3125 z m 2.623047,0 h 0.3125 v 2.279297 h -0.3125 z"
     id="path857" />
  <linearGradient
     id="_lgradient_6"
     x1="0.9941176470588236"
     y1="0.4801559760374085"
     x2="0.00018059855521146417"
     y2="0.45213064394988733"
     gradientTransform="matrix(9.1799261,0,0,9.1799261,19.410037,19.410037)"
     gradientUnits="userSpaceOnUse">
    <stop
       offset="0%"
       stop-opacity="1"
       style="stop-color:rgb(17,153,142)"
       id="stop23" />
    <stop
       offset="99.1304347826087%"
       stop-opacity="1"
       style="stop-color:rgb(56,239,125)"
       id="stop25" />
  </linearGradient>
  <path
     style="color:#000000;fill:url(#linearGradient1121);-inkscape-stroke:none"
     d="m 19.277344,19.277344 v 0.5 8.945312 h 9.445312 v -9.445312 z m 1,1 h 7.445312 v 7.445312 h -7.445312 z"
     id="path28" />
  <linearGradient
     id="_lgradient_7"
     x1="0"
     y1="0.5"
     x2="1"
     y2="0.5"
     gradientTransform="matrix(23.605524,0,0,15.737016,12.197238,16.131492)"
     gradientUnits="userSpaceOnUse">
    <stop
       offset="0%"
       stop-opacity="1"
       style="stop-color:rgb(247,242,6)"
       id="stop30" />
    <stop
       offset="97.82608695652173%"
       stop-opacity="1"
       style="stop-color:rgb(255,187,36)"
       id="stop32" />
  </linearGradient>
  <path
     style="color:#000000;fill:url(#linearGradient1203);fill-rule:evenodd;-inkscape-stroke:none"
     d="m 35.146484,15.630859 c -0.632482,0 -1.154297,0.523768 -1.154297,1.15625 0,0.632483 0.521815,1.15625 1.154297,1.15625 0.632483,0 1.15625,-0.523768 1.15625,-1.15625 0,-0.632481 -0.523767,-1.15625 -1.15625,-1.15625 z m -22.292968,0.65625 c -0.632483,0 -1.15625,0.523769 -1.15625,1.15625 0,0.632482 0.523767,1.154297 1.15625,1.154297 0.632482,0 1.154296,-0.521814 1.154297,-1.154297 0,-0.632482 -0.521815,-1.15625 -1.154297,-1.15625 z m 22.292968,0.34375 c 0.09142,0 0.15625,0.06483 0.15625,0.15625 0,0.09142 -0.06483,0.15625 -0.15625,0.15625 -0.09142,0 -0.154297,-0.06483 -0.154297,-0.15625 0,-0.09142 0.06288,-0.15625 0.154297,-0.15625 z m -22.292968,0.65625 c 0.09142,0 0.154297,0.06483 0.154297,0.15625 0,0.09142 -0.06288,0.154297 -0.154297,0.154297 -0.09142,0 -0.15625,-0.06288 -0.15625,-0.154297 0,-0.09142 0.06483,-0.15625 0.15625,-0.15625 z m 22.292968,12.115235 c -0.632482,0 -1.154297,0.521814 -1.154297,1.154297 0,0.632482 0.521815,1.15625 1.154297,1.15625 0.632483,0 1.15625,-0.523769 1.15625,-1.15625 0,-0.632482 -0.523767,-1.154297 -1.15625,-1.154297 z m -22.292968,0.654297 c -0.632483,0 -1.15625,0.523768 -1.15625,1.15625 0,0.632481 0.523767,1.15625 1.15625,1.15625 0.632482,0 1.154296,-0.523768 1.154297,-1.15625 0,-0.632483 -0.521815,-1.15625 -1.154297,-1.15625 z m 22.292968,0.345703 c 0.09142,0 0.15625,0.06288 0.15625,0.154297 0,0.09142 -0.06483,0.15625 -0.15625,0.15625 -0.09142,0 -0.154297,-0.06483 -0.154297,-0.15625 0,-0.09142 0.06288,-0.154297 0.154297,-0.154297 z m -22.292968,0.654297 c 0.09142,0 0.154297,0.06483 0.154297,0.15625 0,0.09142 -0.06288,0.15625 -0.154297,0.15625 -0.09142,0 -0.15625,-0.06483 -0.15625,-0.15625 0,-0.09142 0.06483,-0.15625 0.15625,-0.15625 z"
     id="path35" />
</svg>
