<?xml version="1.0" encoding="UTF-8" standalone="no"?>
<!-- Generator: Gravit.io -->

<svg
   style="isolation:isolate"
   viewBox="0 0 48 48"
   width="48pt"
   height="48pt"
   version="1.1"
   id="svg30"
   sodipodi:docname="google-chrome.svg"
   inkscape:version="1.1.2 (0a00cf5339, 2022-02-04)"
   xmlns:inkscape="http://www.inkscape.org/namespaces/inkscape"
   xmlns:sodipodi="http://sodipodi.sourceforge.net/DTD/sodipodi-0.dtd"
   xmlns:xlink="http://www.w3.org/1999/xlink"
   xmlns="http://www.w3.org/2000/svg"
   xmlns:svg="http://www.w3.org/2000/svg">
  <defs
     id="defs34">
    <linearGradient
       inkscape:collect="always"
       xlink:href="#_lgradient_12"
       id="linearGradient872"
       x1="-12.025727"
       y1="6.1170783"
       x2="-0.085100174"
       y2="6.1170783"
       gradientUnits="userSpaceOnUse"
       gradientTransform="matrix(3.8452688,0,0,3.8271339,0.05410483,0.05959555)" />
    <linearGradient
       id="_lgradient_1"
       x1="0.18336116"
       y1="0.24917752"
       x2="0.9027437"
       y2="0.90347725"
       gradientTransform="matrix(24.617266,0,0,24.816118,10.841288,10.089605)"
       gradientUnits="userSpaceOnUse">
      <stop
         offset="2.608695652173913%"
         stop-opacity="1"
         style="stop-color:rgb(179,255,171)"
         id="stop2-3" />
      <stop
         offset="98.69565217391305%"
         stop-opacity="1"
         style="stop-color:rgb(18,255,247)"
         id="stop4-6" />
    </linearGradient>
    <linearGradient
       inkscape:collect="always"
       xlink:href="#_lgradient_12"
       id="linearGradient15"
       x1="-9.6850061"
       y1="45.161198"
       x2="11.98815"
       y2="21.735205"
       gradientUnits="userSpaceOnUse"
       gradientTransform="matrix(1.1145269,0,0,1.1151225,0.07381415,-3.3276302)" />
    <linearGradient
       inkscape:collect="always"
       xlink:href="#_lgradient_11"
       id="linearGradient906"
       x1="38.753223"
       y1="38.244991"
       x2="21.678867"
       y2="15.808959"
       gradientUnits="userSpaceOnUse" />
    <linearGradient
       inkscape:collect="always"
       xlink:href="#_lgradient_9"
       id="linearGradient1227"
       x1="33.560547"
       y1="36.793224"
       x2="51.11729"
       y2="36.793224"
       gradientUnits="userSpaceOnUse" />
    <linearGradient
       inkscape:collect="always"
       xlink:href="#_lgradient_10"
       id="linearGradient1257"
       x1="12.882632"
       y1="39.53418"
       x2="38.259766"
       y2="39.53418"
       gradientUnits="userSpaceOnUse" />
    <linearGradient
       inkscape:collect="always"
       xlink:href="#_lgradient_12"
       id="linearGradient1305"
       x1="17.395887"
       y1="24.014196"
       x2="30.552406"
       y2="24.014196"
       gradientUnits="userSpaceOnUse" />
  </defs>
  <sodipodi:namedview
     id="namedview32"
     pagecolor="#ffffff"
     bordercolor="#666666"
     borderopacity="1.0"
     inkscape:pageshadow="2"
     inkscape:pageopacity="0.0"
     inkscape:pagecheckerboard="0"
     inkscape:document-units="pt"
     showgrid="false"
     inkscape:zoom="5.6568542"
     inkscape:cx="32.350135"
     inkscape:cy="32.261747"
     inkscape:window-width="1299"
     inkscape:window-height="545"
     inkscape:window-x="291"
     inkscape:window-y="178"
     inkscape:window-maximized="0"
     inkscape:current-layer="svg30" />
  <linearGradient
     id="_lgradient_9"
     x1="0.31221262034235875"
     y1="0.07912717169832595"
     x2="0.7011466794481722"
     y2="1.071587229608669"
     gradientTransform="matrix(17.557667,0,0,26.038368,33.560232,23.774363)"
     gradientUnits="userSpaceOnUse">
    <stop
       offset="0%"
       stop-opacity="1"
       style="stop-color:rgb(247,241,7)"
       id="stop2" />
    <stop
       offset="83.88839793817618%"
       stop-opacity="1"
       style="stop-color:rgb(255,187,36)"
       id="stop4" />
  </linearGradient>
  <rect
     x="-46.838856"
     y="1.2844509"
     height="45.680725"
     rx="6.1989927"
     shape-rendering="crispEdges"
     id="rect5-6-7-3"
     ry="6.7877836"
     transform="matrix(0.00521413,-0.99998641,0.99998789,0.0049218,0,0)"
     style="isolation:isolate;fill:#00f0ff;fill-opacity:0.13470298;stroke:url(#linearGradient872);stroke-width:2.02995;stroke-miterlimit:4;stroke-dasharray:none;stroke-opacity:1"
     width="45.91481" />
  <rect
     x="-15.597562"
     y="17.261868"
     height="33.348476"
     rx="6.790679"
     shape-rendering="crispEdges"
     id="rect5-6-6-6-6"
     style="isolation:isolate;fill:#00f0ff;fill-opacity:0.13470298;stroke:url(#linearGradient15);stroke-width:1.67223;stroke-miterlimit:4;stroke-dasharray:none;stroke-opacity:1"
     ry="7.4748945"
     transform="matrix(0.72271671,-0.69114438,0.68438107,0.72912451,0,0)"
     width="33.331703" />
  <linearGradient
     id="_lgradient_10"
     x1="0.9108086735282703"
     y1="0.5028208182793182"
     x2="0.00008595055677873553"
     y2="0.4654592972028612"
     gradientTransform="matrix(25.439481,0,0,23.010892,12.881733,28.029108)"
     gradientUnits="userSpaceOnUse">
    <stop
       offset="0%"
       stop-opacity="1"
       style="stop-color:rgb(0,255,216)"
       id="stop9" />
    <stop
       offset="83.88839793817618%"
       stop-opacity="1"
       style="stop-color:rgb(0,255,184)"
       id="stop11" />
  </linearGradient>
  <linearGradient
     id="_lgradient_11"
     x1="0.8049329309895621"
     y1="1.1485585864046477"
     x2="0.1950601721100912"
     y2="0.12939837922701325"
     gradientTransform="matrix(27.996585,0,0,22.014235,16.217849,12.960353)"
     gradientUnits="userSpaceOnUse">
    <stop
       offset="0%"
       stop-opacity="1"
       style="stop-color:rgb(255,229,59)"
       id="stop16" />
    <stop
       offset="98.69565217391305%"
       stop-opacity="1"
       style="stop-color:rgb(255,0,91)"
       id="stop18" />
  </linearGradient>
  <linearGradient
     id="_lgradient_12"
     x1="0"
     y1="0.5"
     x2="1"
     y2="0.5"
     gradientTransform="matrix(12.558277,0,0,12.567935,17.695009,17.730229)"
     gradientUnits="userSpaceOnUse">
    <stop
       offset="0%"
       stop-opacity="1"
       style="stop-color:rgb(178,254,250)"
       id="stop23" />
    <stop
       offset="98.26086956521739%"
       stop-opacity="1"
       style="stop-color:rgb(14,210,247)"
       id="stop25" />
  </linearGradient>
  <path
     style="color:#000000;fill:url(#linearGradient1227);-inkscape-stroke:none"
     d="m 49.289062,23.107422 -3.769531,0.002 H 35.154297 32.894531 v 1.236328 l 0.539063,0.103516 c 1.898994,0.367286 3.551453,1.433665 4.677734,2.921875 l 0.199219,0.263672 h 8.255859 c 0.419737,1.416198 0.700856,2.872527 0.695313,4.349609 v 0.05859 c -0.0081,3.967122 -1.566686,7.775227 -4.324219,10.611328 -1.464605,1.506254 -3.20518,2.677191 -5.109375,3.464844 -0.613559,0.253766 -1.038176,0.751769 -1.220703,1.291015 -0.182528,0.539247 -0.153549,1.112314 0.03711,1.625 0.190658,0.512687 0.557079,0.982032 1.095703,1.242188 0.538625,0.260156 1.227257,0.272111 1.904297,-0.01172 2.434136,-1.020646 4.663229,-2.527732 6.53711,-4.455078 3.572777,-3.682874 5.58506,-8.621637 5.601562,-13.757813 v -0.06445 -0.002 c 0.0047,-1.473874 -0.251376,-2.921705 -0.574219,-4.351562 h 0.111328 l -0.21289,-0.832032 c -0.300804,-1.175114 -0.715691,-2.291281 -1.21875,-3.322265 l -0.183594,-0.373047 z m -0.46289,1.332031 c 0.383464,0.837878 0.729727,1.714601 0.972656,2.652344 l 0.01367,0.05078 c 0.427772,1.57458 0.644055,3.203077 0.638672,4.841797 v 0.06641 c -0.0159,4.789787 -1.894744,9.395588 -5.226563,12.830078 -1.747683,1.797549 -3.825473,3.202378 -6.095703,4.154297 -0.394598,0.165424 -0.625824,0.129294 -0.808594,0.04102 -0.182769,-0.08828 -0.339463,-0.268496 -0.427734,-0.50586 -0.08827,-0.237363 -0.09472,-0.516074 -0.02148,-0.732421 0.07323,-0.216348 0.195737,-0.37698 0.464843,-0.488282 2.0698,-0.856153 3.966157,-2.127903 5.558594,-3.765625 2.998879,-3.084322 4.690912,-7.224033 4.699219,-11.539062 v -0.002 -0.05469 -0.002 c 0.0065,-1.777593 -0.278744,-3.541287 -0.833984,-5.226562 l -0.150391,-0.457032 h -0.494141 -8.228515 c -0.587692,-0.710649 -1.251111,-1.357882 -2.027344,-1.861328 h 8.660156 z"
     id="path7"
     transform="scale(0.75)" />
  <path
     style="color:#000000;fill:url(#linearGradient1257);-inkscape-stroke:none"
     d="m 14.542969,27.363281 c -0.482803,-4.75e-4 -0.987266,0.149637 -1.392578,0.496094 -0.405313,0.346457 -0.682385,0.878719 -0.765625,1.515625 -0.343251,2.619295 -0.163332,5.304333 0.558593,7.894531 1.384413,4.942474 4.633697,9.167599 9.0625,11.765625 l 0.0078,0.0059 0.04883,0.02539 c 1.2572,0.737642 2.624684,1.235704 4.005859,1.673828 l -0.06641,0.09961 0.880859,0.248047 c 1.167091,0.330983 2.337658,0.532175 3.480469,0.615234 l 0.416016,0.03125 2.103515,-3.619141 5.212891,-8.966797 0.740234,-1.273437 -1.078125,-0.775391 c -1.226843,1.399416 -2.949251,2.349258 -4.892578,2.576172 l -0.330078,0.03906 -4.089844,7.029297 C 27.012571,46.394968 25.614877,45.90578 24.341797,45.158203 l -0.0059,-0.0039 -0.04492,-0.02539 -0.002,-0.002 -0.0078,-0.0039 c -3.417576,-2.001699 -5.918724,-5.263545 -6.980469,-9.072266 -0.564599,-2.024638 -0.699297,-4.118472 -0.421875,-6.162109 0.100702,-0.740407 -0.191534,-1.421652 -0.65039,-1.857422 -0.458857,-0.43577 -1.064399,-0.667358 -1.685547,-0.667969 z m 0,1.332031 c 0.271212,2.67e-4 0.575417,0.120243 0.767578,0.302735 0.19216,0.182492 0.292212,0.386212 0.248047,0.710937 -0.301456,2.220679 -0.156854,4.499795 0.457031,6.701172 1.15546,4.144898 3.880301,7.694152 7.603516,9.871094 l 0.0039,0.002 0.04297,0.02344 c 1.532986,0.900199 3.199809,1.542794 4.935546,1.910156 l 0.44336,0.09375 0.269531,-0.404297 4.083984,-7.023438 C 34.323859,40.732361 35.212378,40.4717 36.021484,40.0625 l -4.291015,7.380859 -1.664063,2.861328 c -0.900154,-0.08795 -1.814504,-0.228391 -2.730469,-0.482421 l -0.0957,-0.02539 c -1.576051,-0.422042 -3.089553,-1.050204 -4.501953,-1.878906 l -0.0078,-0.0059 -0.04883,-0.02539 -0.0078,-0.0059 -0.0078,-0.0039 c -4.12182,-2.423522 -7.147675,-6.362005 -8.4375,-10.966797 -0.673438,-2.416227 -0.843583,-4.920297 -0.523438,-7.363281 0.04862,-0.372019 0.173317,-0.556526 0.310547,-0.673828 0.13723,-0.117303 0.316089,-0.177942 0.527344,-0.177735 z"
     id="path14"
     transform="scale(0.75)" />
  <path
     style="color:#000000;fill:url(#linearGradient906);-inkscape-stroke:none"
     d="m 31.980469,12.294922 c -3.474429,0.03203 -6.911852,0.976101 -9.945313,2.779297 h -0.0039 l -0.05664,0.03516 0.0059,-0.002 c -1.249837,0.743238 -2.343337,1.696698 -3.392578,2.691406 l -0.05273,-0.105469 -0.652344,0.660157 c -0.853554,0.861675 -1.596872,1.789006 -2.222656,2.75 l -0.226562,0.347656 2.148437,3.59375 5.322266,8.902344 0.451172,0.755859 1.21289,-0.527344 c -0.199288,-0.685087 -0.308593,-1.407432 -0.308593,-2.15625 0,-1.081035 0.22408,-2.105942 0.625,-3.039062 l 0.132812,-0.314453 -4.091797,-6.84375 c 0.998349,-1.087137 2.103754,-2.07481 3.373047,-2.828125 l 0.0078,-0.0039 0.04102,-0.02734 c 3.405964,-2.03032 7.470203,-2.646502 11.31836,-1.734375 2.043789,0.484005 3.943129,1.379122 5.595703,2.609375 0.532539,0.396523 1.17799,0.502999 1.734375,0.382812 0.556385,-0.120187 1.033302,-0.438215 1.375,-0.865234 0.341698,-0.427019 0.555443,-0.982432 0.501953,-1.578125 -0.05349,-0.595694 -0.395458,-1.193353 -0.986328,-1.628907 h -0.002 c -2.126082,-1.566269 -4.560074,-2.706011 -7.175782,-3.326171 h -0.002 C 35.147007,12.45454 33.559898,12.280361 31.980469,12.294922 Z m 0.01172,1.332031 c 1.472429,-0.01357 2.953861,0.149536 4.408204,0.492188 2.438936,0.578249 4.710219,1.642827 6.693359,3.103515 0.344422,0.253887 0.43298,0.471235 0.451172,0.673828 0.01819,0.202594 -0.05676,0.429401 -0.214844,0.626953 -0.15808,0.197553 -0.392529,0.346424 -0.615234,0.394532 -0.222706,0.04811 -0.422537,0.02363 -0.65625,-0.150391 -1.796763,-1.337593 -3.86195,-2.30972 -6.083985,-2.835937 -4.184345,-0.991814 -8.605743,-0.321742 -12.310547,1.886718 l -0.0059,0.0039 -0.03906,0.02344 c -0.002,0.0012 -0.0038,0.0027 -0.0059,0.0039 l -0.0078,0.0059 C 22.083097,18.761123 20.71907,19.90914 19.5625,21.248047 l -0.291016,0.335937 0.214844,0.431641 4.089844,6.837891 c -0.319515,0.845781 -0.501257,1.751815 -0.552735,2.695312 l -4.296875,-7.1875 -1.699218,-2.841797 c 0.517511,-0.753272 1.086466,-1.492391 1.759765,-2.177734 l 0.05078,-0.05273 c 1.131211,-1.175977 2.4142,-2.199777 3.822265,-3.037109 h 0.0039 l 0.05664,-0.03516 c 2.827447,-1.679439 6.032456,-2.559983 9.271484,-2.589844 z"
     id="path21"
     transform="scale(0.75)" />
  <path
     style="color:#000000;fill:url(#linearGradient1305);fill-rule:evenodd;-inkscape-stroke:none"
     d="m 23.974609,17.230469 c -3.736326,0 -6.779297,3.044627 -6.779297,6.783203 0,3.738575 3.042971,6.785156 6.779297,6.785156 3.736327,0 6.779297,-3.046581 6.779297,-6.785156 0,-3.738576 -3.04297,-6.783203 -6.779297,-6.783203 z m 0,1 c 3.19464,0 5.779297,2.585482 5.779297,5.783203 0,3.19772 -2.584657,5.785156 -5.779297,5.785156 -3.194639,0 -5.779297,-2.587436 -5.779297,-5.785156 0,-3.197721 2.584658,-5.783203 5.779297,-5.783203 z m 0,1.394531 c -1.162405,0 -2.280445,0.464299 -3.103515,1.28125 l -0.002,0.002 -0.002,0.002 c -0.816321,0.823701 -1.279296,1.940525 -1.279296,3.103516 0,1.16299 0.462975,2.281767 1.279296,3.105469 l 0.002,0.002 h 0.002 c 0.82307,0.816951 1.94111,1.283203 3.103515,1.283203 1.162406,0 2.280446,-0.466252 3.103516,-1.283203 l 0.002,-0.002 c 0.816322,-0.823702 1.28125,-1.942479 1.28125,-3.105469 0,-1.162991 -0.464928,-2.279815 -1.28125,-3.103516 l -0.002,-0.002 v -0.002 C 26.255055,20.089299 25.137015,19.625 23.974609,19.625 Z m 0,1 c 0.893294,0 1.758735,0.358847 2.394532,0.988281 0.630868,0.636572 0.992187,1.504636 0.992187,2.400391 0,0.895754 -0.361319,1.765772 -0.992187,2.402344 -0.635725,0.628956 -1.501602,0.988281 -2.394532,0.988281 -0.894757,0 -1.762356,-0.360836 -2.398437,-0.992188 -0.628953,-0.636287 -0.988281,-1.504149 -0.988281,-2.398437 0,-0.895755 0.359365,-1.763819 0.990234,-2.400391 C 22.214028,20.983129 23.080768,20.625 23.974609,20.625 Z"
     id="path28" />
</svg>
