<?xml version="1.0" encoding="UTF-8" standalone="no"?>
<!-- Generator: Gravit.io -->

<svg
   style="isolation:isolate"
   viewBox="0 0 48 48"
   width="48pt"
   height="48pt"
   version="1.1"
   id="svg9"
   sodipodi:docname="gpodder.svg"
   inkscape:version="1.1.2 (0a00cf5339, 2022-02-04)"
   xmlns:inkscape="http://www.inkscape.org/namespaces/inkscape"
   xmlns:sodipodi="http://sodipodi.sourceforge.net/DTD/sodipodi-0.dtd"
   xmlns:xlink="http://www.w3.org/1999/xlink"
   xmlns="http://www.w3.org/2000/svg"
   xmlns:svg="http://www.w3.org/2000/svg">
  <defs
     id="defs13">
    <linearGradient
       inkscape:collect="always"
       xlink:href="#_lgradient_3"
       id="linearGradient872"
       x1="-12.025727"
       y1="6.1170783"
       x2="-0.085100174"
       y2="6.1170783"
       gradientUnits="userSpaceOnUse"
       gradientTransform="matrix(3.8358211,0,0,3.8371386,-0.00544341,-0.00268054)" />
    <linearGradient
       id="_lgradient_1"
       x1="0.18336116"
       y1="0.24917752"
       x2="0.9027437"
       y2="0.90347725"
       gradientTransform="matrix(24.617266,0,0,24.816118,10.841288,10.089605)"
       gradientUnits="userSpaceOnUse">
      <stop
         offset="2.608695652173913%"
         stop-opacity="1"
         style="stop-color:rgb(179,255,171)"
         id="stop2-3" />
      <stop
         offset="98.69565217391305%"
         stop-opacity="1"
         style="stop-color:rgb(18,255,247)"
         id="stop4-6" />
    </linearGradient>
    <linearGradient
       inkscape:collect="always"
       xlink:href="#_lgradient_3"
       id="linearGradient15"
       x1="-9.6850061"
       y1="45.161198"
       x2="11.98815"
       y2="21.735205"
       gradientUnits="userSpaceOnUse"
       gradientTransform="matrix(1.1147442,0,0,1.1150348,-0.01237238,-3.3277956)" />
    <linearGradient
       inkscape:collect="always"
       xlink:href="#_lgradient_3"
       id="linearGradient1058"
       x1="25.552486"
       y1="5.1981759"
       x2="25.552486"
       y2="37.62701"
       gradientUnits="userSpaceOnUse" />
  </defs>
  <sodipodi:namedview
     id="namedview11"
     pagecolor="#ffffff"
     bordercolor="#666666"
     borderopacity="1.0"
     inkscape:pageshadow="2"
     inkscape:pageopacity="0.0"
     inkscape:pagecheckerboard="0"
     inkscape:document-units="pt"
     showgrid="false"
     inkscape:zoom="10.21875"
     inkscape:cx="31.95107"
     inkscape:cy="32"
     inkscape:window-width="1600"
     inkscape:window-height="836"
     inkscape:window-x="0"
     inkscape:window-y="0"
     inkscape:window-maximized="1"
     inkscape:current-layer="svg9" />
  <linearGradient
     id="_lgradient_3"
     x1="0.5523250535524725"
     y1="-0.0797872340425532"
     x2="0.5523250535524724"
     y2="0.920212765957447"
     gradientTransform="matrix(29.668933,0,0,32.428834,9.1655915,7.7855829)"
     gradientUnits="userSpaceOnUse">
    <stop
       offset="0%"
       stop-opacity="1"
       style="stop-color:rgb(26,108,255)"
       id="stop2" />
    <stop
       offset="100%"
       stop-opacity="1"
       style="stop-color:rgb(197,34,255)"
       id="stop4" />
  </linearGradient>
  <rect
     x="-46.783188"
     y="1.2253767"
     height="45.80014"
     rx="6.1837621"
     shape-rendering="crispEdges"
     id="rect5-6-7-3"
     ry="6.8055277"
     transform="matrix(0.00524063,-0.99998627,0.99998801,0.00489691,0,0)"
     style="isolation:isolate;fill:#5100ff;fill-opacity:0.13470298;stroke:url(#linearGradient872);stroke-width:2.0301;stroke-miterlimit:4;stroke-dasharray:none;stroke-opacity:1"
     width="45.801998" />
  <rect
     x="-15.686804"
     y="17.260084"
     height="33.345856"
     rx="6.7920032"
     shape-rendering="crispEdges"
     id="rect5-6-6-6-6"
     style="isolation:isolate;fill:#5100ff;fill-opacity:0.13470298;stroke:url(#linearGradient15);stroke-width:1.67233;stroke-miterlimit:4;stroke-dasharray:none;stroke-opacity:1"
     ry="7.4743071"
     transform="matrix(0.72446484,-0.68931175,0.68622417,0.72739012,0,0)"
     width="33.338203" />
  <path
     style="color:#000000;fill:url(#linearGradient1058);fill-rule:evenodd;-inkscape-stroke:none"
     d="m 23.041016,7.2851562 c -2.257157,10e-8 -4.41991,0.8945188 -6.017579,2.4921876 -1.597668,1.5976682 -2.492187,3.7623752 -2.492187,6.0195312 v 7.4375 c 0,2.257155 0.894519,4.41991 2.492187,6.017578 1.597669,1.597669 3.760422,2.492188 6.017579,2.492188 h 1.917968 c 2.257156,0 4.41991,-0.894519 6.017578,-2.492188 1.597669,-1.597668 2.494141,-3.760423 2.494141,-6.017578 v -7.4375 c 0,-2.257156 -0.896472,-4.421863 -2.494141,-6.0195312 C 29.378894,8.179675 27.21614,7.2851563 24.958984,7.2851562 Z m 0,1.0000001 h 1.917968 c 1.993087,0 3.899927,0.7885979 5.310547,2.1992187 1.410621,1.410621 2.201172,3.319413 2.201172,5.3125 v 7.4375 c 0,1.993086 -0.790551,3.899926 -2.201172,5.310547 -1.41062,1.41062 -3.31746,2.199219 -5.310547,2.199219 h -1.917968 c -1.993088,0 -3.899927,-0.788599 -5.310547,-2.199219 -1.410621,-1.410621 -2.199219,-3.317461 -2.199219,-5.310547 v -7.4375 c 0,-1.993088 0.788598,-3.901879 2.199219,-5.3125 1.41062,-1.4106208 3.317459,-2.1992187 5.310547,-2.1992187 z m 0,1.7597657 c -1.525762,0 -2.986616,0.605757 -4.066407,1.685547 -1.026128,1.026129 -1.623022,2.394863 -1.679687,3.83789 l -0.02148,0.519532 h 4.107422 c 0.03259,0 0.04883,0.01624 0.04883,0.04883 v 0.974609 c 0,0.03128 -0.01624,0.04687 -0.04883,0.04687 h -4.089843 v 2.380859 h 4.089843 c 0.03259,0 0.04883,0.01624 0.04883,0.04883 v 0.972656 c 0,0.03128 -0.01624,0.04687 -0.04883,0.04687 h -4.089843 v 2.380859 h 4.089843 c 0.03259,0 0.04883,0.01624 0.04883,0.04883 v 0.972657 c 0,0.03128 -0.01624,0.04883 -0.04883,0.04883 H 17.3125 l 0.164062,0.625 c 0.255488,0.981131 0.767834,1.885021 1.498047,2.615234 1.079791,1.079791 2.540645,1.685547 4.066407,1.685547 h 1.917968 c 1.525762,0 2.986617,-0.605756 4.066407,-1.685547 0.730213,-0.730213 1.242559,-1.634103 1.498046,-2.615234 l 0.164063,-0.625 h -3.759766 c -0.03128,0 -0.04687,-0.01755 -0.04687,-0.04883 v -0.972657 c 0,-0.03259 0.0156,-0.04883 0.04687,-0.04883 h 3.78125 v -2.380859 h -3.78125 c -0.03128,0 -0.04687,-0.0156 -0.04687,-0.04687 v -0.972656 c 0,-0.03259 0.0156,-0.04883 0.04687,-0.04883 h 3.78125 v -2.380859 h -3.78125 c -0.03128,0 -0.04687,-0.01559 -0.04687,-0.04687 v -0.974609 c 0,-0.03259 0.0156,-0.04883 0.04687,-0.04883 h 3.798828 l -0.02148,-0.519532 c -0.05666,-1.443028 -0.653558,-2.811761 -1.679687,-3.83789 -1.07979,-1.07979 -2.540645,-1.685547 -4.066407,-1.685547 z m 0,1 h 1.917968 c 1.261736,0 2.465839,0.499042 3.359375,1.392578 0.720464,0.720464 1.116906,1.659244 1.269532,2.650391 h -2.660157 c -0.573138,0 -1.046875,0.475618 -1.046875,1.048828 v 0.974609 c 0,0.573137 0.473739,1.046875 1.046875,1.046875 h 2.78125 v 0.380859 h -2.78125 c -0.573138,10e-7 -1.046875,0.475619 -1.046875,1.048829 v 0.972656 c 0,0.573137 0.473739,1.046875 1.046875,1.046875 h 2.78125 v 0.380859 h -2.78125 c -0.573138,0 -1.046875,0.475619 -1.046875,1.048828 v 0.972657 c 0,0.573136 0.473739,1.048828 1.046875,1.048828 h 2.269532 c -0.235376,0.543969 -0.450067,1.104363 -0.878907,1.533203 -0.893536,0.893537 -2.097639,1.392578 -3.359375,1.392578 h -1.917968 c -1.261736,0 -2.465838,-0.499041 -3.359375,-1.392578 -0.42884,-0.42884 -0.643531,-0.989234 -0.878907,-1.533203 h 2.578125 c 0.57321,0 1.048828,-0.47569 1.048828,-1.048828 v -0.972657 c 0,-0.57321 -0.475617,-1.048828 -1.048828,-1.048828 h -3.089843 v -0.380859 h 3.089843 c 0.57321,0 1.048828,-0.473737 1.048828,-1.046875 v -0.972656 c 0,-0.573211 -0.475617,-1.048829 -1.048828,-1.048829 h -3.089843 v -0.380859 h 3.089843 c 0.57321,0 1.048828,-0.473737 1.048828,-1.046875 v -0.974609 c 0,-0.573211 -0.475617,-1.048828 -1.048828,-1.048828 h -2.966797 c 0.152648,-0.991097 0.547148,-1.92996 1.267579,-2.650391 0.893537,-0.893536 2.097639,-1.392578 3.359375,-1.392578 z m -12.50586,10.730469 c -1.0319948,0.0056 -1.8747521,0.856152 -1.8691404,1.888671 0.00722,1.790453 0.4390845,3.558396 1.2695313,5.154297 l 0.00195,0.002 c 0.82577,1.579734 1.972342,2.97057 3.355469,4.095704 h 0.002 v 0.002 c 1.445329,1.167656 3.083776,2.077935 4.84375,2.683593 1.288921,0.44257 2.630252,0.683858 3.980469,0.824219 v 1.21875 h -2.408204 c -0.651397,0 -1.189453,0.538056 -1.189453,1.189453 v 0.691407 c 0,0.651397 0.538056,1.189453 1.189453,1.189453 h 3.966797 0.644532 3.966796 c 0.651398,0 1.189454,-0.538056 1.189454,-1.189453 v -0.691407 c 0,-0.651397 -0.538056,-1.189453 -1.189454,-1.189453 h -2.408203 v -3.273437 c 0,-0.854034 -0.704559,-1.556641 -1.558593,-1.556641 h -0.34961 c -1.566121,0 -3.12545,-0.260377 -4.611328,-0.773437 h -0.002 c -1.343371,-0.456614 -2.589108,-1.15106 -3.697266,-2.046875 -0.986917,-0.797378 -1.799655,-1.793064 -2.396484,-2.919922 v -0.002 c -4.34e-4,-8.2e-4 -0.0015,-0.0011 -0.002,-0.002 -0.547337,-1.051116 -0.831418,-2.228277 -0.837891,-3.425781 -0.0056,-1.031995 -0.858136,-1.874698 -1.890625,-1.86914 z m 26.962891,0.21289 c -1.031066,-0.02622 -1.89859,0.802077 -1.923828,1.833985 -0.02611,0.873938 -0.200929,1.733237 -0.517578,2.541015 -0.331171,0.830371 -0.800155,1.605227 -1.373047,2.289063 -0.625703,0.744257 -1.349844,1.398021 -2.154297,1.945312 v -0.002 c -0.868623,0.590134 -1.809117,1.06807 -2.794922,1.412109 h -0.002 c -0.974054,0.345543 -1.492783,1.428961 -1.146485,2.402344 0.345705,0.971708 1.426722,1.48895 2.398438,1.142578 1.295083,-0.455575 2.51902,-1.075544 3.650391,-1.84375 l 0.002,-0.002 c 1.093421,-0.736405 2.080977,-1.623593 2.93164,-2.638672 0.825966,-0.991157 1.50264,-2.11281 1.978516,-3.316406 V 27.75 c 0.491065,-1.228292 0.751065,-2.520057 0.787109,-3.832031 v -0.002 -0.002 c 0.02056,-1.031586 -0.805354,-1.899571 -1.835937,-1.925781 z m -26.957031,0.78711 c 0.490975,-0.0026 0.882094,0.38353 0.884765,0.875 0.0073,1.353955 0.328802,2.689487 0.953125,3.886718 l 0.002,0.002 c 0.658737,1.245086 1.556653,2.347161 2.652344,3.232422 1.195664,0.966554 2.544999,1.719281 4.001953,2.214844 1.59141,0.5495 3.260741,0.828125 4.9375,0.828125 h 0.34961 c 0.312022,0 0.558593,0.244618 0.558593,0.556641 v 4.273437 h 3.408203 c 0.110335,0 0.189454,0.07912 0.189454,0.189453 v 0.691407 c 0,0.110334 -0.07912,0.189453 -0.189454,0.189453 h -3.966796 -0.644532 -3.966797 c -0.110334,0 -0.189453,-0.07912 -0.189453,-0.189453 v -0.691407 c 0,-0.110336 0.07912,-0.189453 0.189453,-0.189453 h 3.408204 v -0.5 -2.585937 l -0.460938,-0.03516 c -1.427755,-0.1106 -2.836956,-0.400775 -4.195312,-0.867187 -1.648502,-0.567298 -3.183097,-1.422117 -4.539063,-2.517578 v 0.002 c -1.280175,-1.041386 -2.340392,-2.32705 -3.101562,-3.783203 h 0.002 C 10.067724,26.903636 9.6725956,25.291978 9.6660156,23.660156 9.6633474,23.169214 10.049547,22.778062 10.541016,22.775391 Z m 26.93164,0.21289 c 0.488742,0.01243 0.87113,0.412421 0.861328,0.904297 -0.03314,1.198223 -0.26825,2.371796 -0.714843,3.488281 l -0.002,0.002 c -0.434858,1.100323 -1.055788,2.132183 -1.816406,3.044922 -0.790666,0.943271 -1.708026,1.766805 -2.724609,2.451172 l -0.002,0.002 c -1.061661,0.721128 -2.208847,1.301269 -3.423828,1.728516 h -0.002 c -0.46067,0.164208 -0.956216,-0.07172 -1.121093,-0.535156 -0.164104,-0.461267 0.07287,-0.957472 0.537109,-1.123047 1.070319,-0.373534 2.088235,-0.889323 3.027344,-1.527344 0.879085,-0.598065 1.672173,-1.311868 2.357422,-2.126953 v -0.002 c 0.640396,-0.76411 1.164771,-1.629955 1.537109,-2.564453 h 0.002 v -0.002 c 0.359293,-0.916562 0.556654,-1.89058 0.585938,-2.878907 v -0.002 -0.002 c 0.01202,-0.491557 0.410181,-0.869839 0.898437,-0.857422 z"
     id="path7" />
</svg>
