<?xml version="1.0" encoding="UTF-8" standalone="no"?>
<!-- Generator: Gravit.io -->

<svg
   style="isolation:isolate"
   viewBox="0 0 48 48"
   width="48pt"
   height="48pt"
   version="1.1"
   id="svg16"
   sodipodi:docname="grindr.svg"
   inkscape:version="1.1.2 (0a00cf5339, 2022-02-04)"
   xmlns:inkscape="http://www.inkscape.org/namespaces/inkscape"
   xmlns:sodipodi="http://sodipodi.sourceforge.net/DTD/sodipodi-0.dtd"
   xmlns:xlink="http://www.w3.org/1999/xlink"
   xmlns="http://www.w3.org/2000/svg"
   xmlns:svg="http://www.w3.org/2000/svg">
  <defs
     id="defs20">
    <linearGradient
       inkscape:collect="always"
       xlink:href="#_lgradient_1"
       id="linearGradient872"
       x1="-12.025727"
       y1="6.1170783"
       x2="-0.085100174"
       y2="6.1170783"
       gradientUnits="userSpaceOnUse"
       gradientTransform="matrix(3.8358211,0,0,3.8371386,-0.00544341,-0.00268054)" />
    <linearGradient
       id="_lgradient_1-3"
       x1="0.18336116"
       y1="0.24917752"
       x2="0.9027437"
       y2="0.90347725"
       gradientTransform="matrix(24.617266,0,0,24.816118,10.841288,10.089605)"
       gradientUnits="userSpaceOnUse">
      <stop
         offset="2.608695652173913%"
         stop-opacity="1"
         style="stop-color:rgb(179,255,171)"
         id="stop2-6" />
      <stop
         offset="98.69565217391305%"
         stop-opacity="1"
         style="stop-color:rgb(18,255,247)"
         id="stop4-7" />
    </linearGradient>
    <linearGradient
       inkscape:collect="always"
       xlink:href="#_lgradient_1"
       id="linearGradient15"
       x1="-9.6850061"
       y1="45.161198"
       x2="11.98815"
       y2="21.735205"
       gradientUnits="userSpaceOnUse"
       gradientTransform="matrix(1.1147442,0,0,1.1150348,-0.01237238,-3.3277956)" />
    <linearGradient
       inkscape:collect="always"
       xlink:href="#_lgradient_0"
       id="linearGradient919"
       x1="11.881608"
       y1="24"
       x2="36.118393"
       y2="24"
       gradientUnits="userSpaceOnUse" />
    <linearGradient
       inkscape:collect="always"
       xlink:href="#_lgradient_1"
       id="linearGradient945"
       x1="16.146051"
       y1="24.000015"
       x2="31.854225"
       y2="24.000015"
       gradientUnits="userSpaceOnUse" />
  </defs>
  <sodipodi:namedview
     id="namedview18"
     pagecolor="#ffffff"
     bordercolor="#666666"
     borderopacity="1.0"
     inkscape:pageshadow="2"
     inkscape:pageopacity="0.0"
     inkscape:pagecheckerboard="0"
     inkscape:document-units="pt"
     showgrid="false"
     inkscape:zoom="7.2257474"
     inkscape:cx="25.672085"
     inkscape:cy="23.388584"
     inkscape:window-width="1600"
     inkscape:window-height="836"
     inkscape:window-x="0"
     inkscape:window-y="0"
     inkscape:window-maximized="1"
     inkscape:current-layer="svg16" />
  <linearGradient
     id="_lgradient_0"
     x1="0.023046875000000022"
     y1="0.015435606060606066"
     x2="0.8915364583333334"
     y2="0.9628787878787877"
     gradientTransform="matrix(24.236784,0,0,24.236784,11.881608,11.881608)"
     gradientUnits="userSpaceOnUse">
    <stop
       offset="3.0434782608695654%"
       stop-opacity="1"
       style="stop-color:rgb(166,124,243)"
       id="stop2" />
    <stop
       offset="98.69565217391305%"
       stop-opacity="1"
       style="stop-color:rgb(88,78,123)"
       id="stop4" />
  </linearGradient>
  <rect
     x="-46.783188"
     y="1.2253767"
     height="45.80014"
     rx="6.1837621"
     shape-rendering="crispEdges"
     id="rect5-6-7-3"
     ry="6.8055277"
     transform="matrix(0.00524063,-0.99998627,0.99998801,0.00489691,0,0)"
     style="isolation:isolate;fill:#ffeb00;fill-opacity:0.13470298;stroke:url(#linearGradient872);stroke-width:2.0301;stroke-miterlimit:4;stroke-dasharray:none;stroke-opacity:1"
     width="45.801998" />
  <rect
     x="-15.686804"
     y="17.260084"
     height="33.345856"
     rx="6.7920032"
     shape-rendering="crispEdges"
     id="rect5-6-6-6-6"
     style="isolation:isolate;fill:#ffeb00;fill-opacity:0.13470298;stroke:url(#linearGradient15);stroke-width:1.67233;stroke-miterlimit:4;stroke-dasharray:none;stroke-opacity:1"
     ry="7.4743071"
     transform="matrix(0.72446484,-0.68931175,0.68622417,0.72739012,0,0)"
     width="33.338203" />
  <path
     style="color:#000000;fill:url(#linearGradient919);fill-rule:evenodd;-inkscape-stroke:none"
     d="m 17.941406,11.380859 c -3.61479,0 -6.560547,2.945757 -6.560547,6.560547 v 12.117188 c 0,3.61479 2.945757,6.560547 6.560547,6.560547 h 12.117188 c 3.61479,0 6.560547,-2.945757 6.560547,-6.560547 V 17.941406 c 0,-3.61479 -2.945757,-6.560547 -6.560547,-6.560547 z m 0,1 h 12.117188 c 3.073545,0 5.560547,2.487002 5.560547,5.560547 v 12.117188 c 0,3.073545 -2.487002,5.560547 -5.560547,5.560547 H 17.941406 c -3.073545,0 -5.560547,-2.487002 -5.560547,-5.560547 V 17.941406 c 0,-3.073545 2.487002,-5.560547 5.560547,-5.560547 z m 0,1.019532 c -1.202532,0 -2.361211,0.476446 -3.21289,1.328125 -0.851679,0.851679 -1.328125,2.010358 -1.328125,3.21289 v 12.117188 c 0,1.202532 0.476446,2.361211 1.328125,3.21289 0.851679,0.851679 2.010358,1.328125 3.21289,1.328125 h 12.117188 c 1.202532,0 2.361211,-0.476446 3.21289,-1.328125 0.851679,-0.851679 1.328125,-2.010358 1.328125,-3.21289 V 17.941406 c 0,-1.202532 -0.476446,-2.361211 -1.328125,-3.21289 -0.851679,-0.851679 -2.010358,-1.328125 -3.21289,-1.328125 z m 0,1 h 12.117188 c 0.938381,0 1.842741,0.372038 2.505859,1.035156 0.663118,0.663118 1.035156,1.567478 1.035156,2.505859 v 12.117188 c 0,0.938381 -0.372038,1.842741 -1.035156,2.505859 -0.663118,0.663118 -1.567478,1.035156 -2.505859,1.035156 H 17.941406 c -0.938381,0 -1.842741,-0.372038 -2.505859,-1.035156 -0.663118,-0.663118 -1.035156,-1.567478 -1.035156,-2.505859 V 17.941406 c 0,-0.938381 0.372038,-1.842741 1.035156,-2.505859 0.663118,-0.663118 1.567478,-1.035156 2.505859,-1.035156 z"
     id="path7" />
  <linearGradient
     id="_lgradient_1"
     x1="0"
     y1="0.5"
     x2="1.0000000000000002"
     y2="0.5"
     gradientTransform="matrix(15.707961,0,0,16.600683,16.145767,15.699406)"
     gradientUnits="userSpaceOnUse">
    <stop
       offset="0%"
       stop-opacity="1"
       style="stop-color:rgb(247,242,6)"
       id="stop9" />
    <stop
       offset="98.26086956521739%"
       stop-opacity="1"
       style="stop-color:rgb(255,187,36)"
       id="stop11" />
  </linearGradient>
  <path
     style="color:#000000;fill:url(#linearGradient945);fill-rule:evenodd;-inkscape-stroke:none"
     d="m 18.574219,15.205078 0.06055,0.0039 c -0.08284,-0.01021 -0.171869,-0.0088 -0.25586,0 -0.42159,0.02854 -0.817746,0.18122 -1.148437,0.417969 -0.0012,8.41e-4 -0.0027,0.0011 -0.0039,0.002 -0.254224,0.171538 -0.474425,0.370227 -0.666015,0.576172 -0.216562,0.22543 -0.395654,0.474998 -0.544922,0.728516 -0.211915,0.341913 -0.32897,0.726426 -0.361328,1.117187 l -0.002,0.02148 v 0.07813 l -0.0059,0.496093 v 0.002 c -0.0072,1.960613 0.163939,3.92287 0.50586,5.855469 v 0.002 c 0.157486,0.857426 0.355941,1.702355 0.603515,2.541016 v 0.002 h 0.002 c 0.228223,0.759875 0.503046,1.507879 0.828125,2.234375 l 0.0039,0.0039 0.002,0.0059 c 0.144912,0.305289 0.32745,0.583573 0.533203,0.841797 0.196747,0.264482 0.424302,0.509155 0.683594,0.722656 l 0.0039,0.002 0.002,0.002 c 0.767043,0.610863 1.628609,1.101694 2.554688,1.443359 l 0.002,0.002 c 0.88987,0.323197 1.833541,0.486604 2.783203,0.49414 h 0.0039 0.0039 c 0.962475,-0.0075 1.925038,-0.17194 2.835938,-0.501953 0.967922,-0.33919 1.872365,-0.81826 2.691406,-1.425781 l 0.002,-0.002 0.0039,-0.002 c 0.296716,-0.225903 0.558307,-0.504351 0.765625,-0.820313 0.228023,-0.310596 0.39239,-0.653096 0.5,-1.005859 l 0.002,-0.0078 0.002,-0.0059 c 0.442479,-1.613055 0.781332,-3.254807 1.019531,-4.908203 0.239491,-1.585152 0.361934,-3.189426 0.369141,-4.800782 v -0.002 -0.002 c 0,-0.454565 -0.01277,-0.911868 -0.0332,-1.361328 l -0.002,-0.01367 v -0.01563 c -0.0414,-0.394832 -0.175516,-0.788391 -0.414062,-1.132812 -0.157817,-0.246415 -0.342033,-0.478504 -0.5625,-0.683594 -9.52e-4,-9.44e-4 -0.001,-0.003 -0.002,-0.0039 -0.206885,-0.204708 -0.434911,-0.377638 -0.675912,-0.521628 -0.20165,-0.128405 -0.445157,-0.163254 -0.673828,-0.224609 -0.218908,-0.05874 -0.347286,-0.163901 -0.666054,-0.136766 -1.656281,0.140991 -3.658778,0.426792 -5.136679,0.425957 h -0.002 c -1.810006,0 -3.613538,-0.145306 -5.40625,-0.423829 l 0.04102,0.0078 c -0.02025,-0.0049 -0.08402,-0.02734 -0.199218,-0.02734 z m -0.09375,0.996094 c 0.01788,-0.0022 0.01532,-0.0022 0.0332,0 l 0.0293,0.0039 h 0.04687 l 0.01367,0.0039 0.02148,0.0039 c 1.840782,0.28599 3.696665,0.435547 5.560547,0.435546 1.995197,-0.07359 3.431821,-0.206911 5.20703,-0.427731 l 0.05273,-0.0059 c 0.01942,-0.0024 0.01611,-0.0022 0.01758,-0.002 l 0.01953,0.002 0.01758,0.002 c 0.222126,0.0145 0.435393,0.08576 0.630859,0.210937 l 0.0078,0.0059 0.0078,0.0039 c 0.181062,0.107532 0.348996,0.235715 0.5,0.386719 l 0.0059,0.0078 0.0078,0.0059 c 0.151684,0.140704 0.285482,0.307152 0.408203,0.5 l 0.0059,0.0098 0.0059,0.0098 c 0.133349,0.19055 0.213813,0.42259 0.240234,0.667969 0.0193,0.430243 0.03317,0.863932 0.0332,1.289062 -0.007,1.563661 -0.125306,3.121862 -0.357422,4.658203 v 0.002 c -0.231897,1.610836 -0.563733,3.208662 -0.994141,4.779297 -0.0797,0.259724 -0.195694,0.502913 -0.351562,0.712891 l -0.0098,0.01172 -0.0098,0.01367 c -0.140341,0.216192 -0.330633,0.417552 -0.541015,0.578125 -7.34e-4,5.6e-4 -0.0012,0.0014 -0.002,0.002 -0.738527,0.546927 -1.551536,0.979901 -2.423829,1.285156 l -0.0039,0.002 h -0.002 c -0.796585,0.288597 -1.647026,0.434349 -2.5,0.441406 -0.838495,-0.0071 -1.668088,-0.153262 -2.445312,-0.435547 -0.819849,-0.302785 -1.585485,-0.737415 -2.269532,-1.28125 l -0.002,-0.002 c -0.195144,-0.160984 -0.368523,-0.34501 -0.519531,-0.548828 l -0.0039,-0.0078 -0.0059,-0.0059 C 18.746556,29.312701 18.608212,29.098782 18.5,28.873047 v -0.002 C 18.193477,28.185825 17.930685,27.48201 17.714844,26.763625 v -0.002 c -0.23673,-0.802172 -0.426764,-1.609861 -0.578125,-2.433594 v -0.002 c -0.331092,-1.87205 -0.49683,-3.770461 -0.490235,-5.667969 v -0.0059 l 0.0059,-0.496094 v -0.02734 c 0.02165,-0.250291 0.09432,-0.478958 0.214843,-0.671875 l 0.002,-0.0059 0.0039,-0.0059 c 0.117236,-0.199653 0.25641,-0.391608 0.412109,-0.552734 l 0.0039,-0.002 0.0039,-0.0039 c 0.154594,-0.166178 0.319081,-0.313772 0.501953,-0.435547 l 0.0078,-0.0059 0.0078,-0.0059 c 0.189874,-0.13646 0.421481,-0.222632 0.640625,-0.236328 h 0.01563 z m -0.816409,2.458984 v 0.002 c -0.0072,1.839528 0.151353,3.672553 0.472657,5.484375 v 0.002 0.002 c 0.144283,0.782735 0.329685,1.559407 0.55664,2.322265 0.195104,0.669003 0.439666,1.32444 0.732422,1.964844 v 0.0039 l 0.002,0.002 c 0.07386,0.156337 0.170835,0.314248 0.296875,0.460938 0.111556,0.148569 0.233065,0.272684 0.34961,0.375 l 0.0078,0.0078 0.0098,0.0059 c 0.592546,0.476531 1.253586,0.854101 1.972656,1.115234 0.667364,0.242278 1.374494,0.367842 2.082031,0.375 h 0.0059 0.0039 c 0.738748,-0.0071 1.466777,-0.131247 2.166016,-0.378906 l 0.002,-0.002 h 0.002 c 0.769316,-0.277467 1.493003,-0.656889 2.152344,-1.144532 l 0.01172,-0.0078 0.0098,-0.0098 c 0.116615,-0.09693 0.219347,-0.208136 0.306641,-0.333984 0.07721,-0.111302 0.16324,-0.25161 0.21289,-0.433594 v -0.0039 c 0.422472,-1.527364 0.743298,-3.080761 0.97461,-4.638672 0.218365,-1.495745 0.334582,-2.999248 0.341796,-4.509766 v -0.002 -0.002 c 0.116666,-0.752777 -0.05464,-1.276337 -0.396718,-1.759765 -0.08388,-0.0824 -0.178097,-0.157399 -0.28125,-0.222657 0,0 -0.193878,-0.06622 -0.294922,-0.07617 -0.517204,-0.05094 -1.55664,0.08789 -1.55664,0.08789 -0.996603,0.163903 -2.605478,0.319606 -3.619142,0.320313 h -0.002 c -1.843901,0 -3.689826,-0.145726 -5.509766,-0.417969 l -0.203125,-0.0293 -0.166015,0.119141 c -0.05608,0.04082 -0.101662,0.09207 -0.152344,0.138671 -0.382133,0.409881 -0.481333,0.560239 -0.490186,1.183544 z m 1.111331,-0.402344 c 1.786604,0.256037 3.596684,0.408204 5.410156,0.408204 1.691324,0.0068 3.379569,-0.142692 5.050781,-0.398438 0.002,0.0019 0.0039,0.0039 0.0059,0.0059 l 0.0059,0.0059 0.06444,0.07621 c 0.01626,0.01493 -0.01884,-0.02223 0,0 0.01123,0.323906 0.02344,0.645461 0.02344,0.960937 -0.0071,1.461871 -0.118333,2.918745 -0.330078,4.369141 -0.225947,1.521294 -0.54017,3.034255 -0.951172,4.519531 v 0.002 0.002 c -0.0041,0.01555 -0.02536,0.06496 -0.06836,0.126953 -0.03083,0.04445 -0.07236,0.08714 -0.113281,0.123047 -0.574583,0.423529 -1.205465,0.756696 -1.884766,1.001953 -0.590549,0.209164 -1.204341,0.315611 -1.835937,0.322266 -0.595922,-0.0065 -1.192656,-0.112826 -1.748047,-0.314453 -0.609342,-0.221285 -1.168895,-0.541537 -1.677735,-0.949219 -0.08688,-0.07699 -0.15716,-0.147618 -0.21289,-0.224609 L 20.5,28.275391 20.48437,28.257811 c -0.05702,-0.06525 -0.105524,-0.142153 -0.150391,-0.236328 v -0.002 c -4.31e-4,-9.08e-4 -0.0015,-0.001 -0.002,-0.002 -0.271957,-0.595411 -0.496562,-1.202988 -0.677734,-1.824219 l -0.002,-0.002 c -0.216529,-0.727341 -0.393102,-1.470016 -0.53125,-2.21875 v -0.0039 c -0.310073,-1.749827 -0.463622,-3.520312 -0.457032,-5.296875 v -0.0059 l 0.0039,-0.271485 c 0.02957,-0.04308 0.05725,-0.08505 0.09961,-0.130859 l 0.002,-0.002 0.002,-0.002 c 9.4e-4,-0.001 0.003,-9.18e-4 0.0039,-0.002 z m 2.634765,5.244141 c -0.364597,0.04466 -0.74994,0.158829 -1.0625,0.333984 l -0.01953,0.0098 -0.01758,0.01172 c 0,0 -0.157926,0.121451 -0.246094,0.283203 -0.08817,0.161752 -0.144332,0.394484 -0.119141,0.664062 l -0.002,-0.002 c 0.02354,0.259028 0.09392,0.462751 0.226563,0.681641 v 0.002 c 0.180617,0.296089 0.436164,0.505699 0.699219,0.671875 0.262509,0.165832 0.509811,0.289547 0.818359,0.316406 0.38366,0.03355 0.816479,-0.01778 1.181641,-0.136718 0.34493,-0.112494 0.537216,-0.355693 0.671875,-0.615235 0.134376,-0.258999 0.229637,-0.567048 0.0957,-0.921875 -0.158583,-0.419641 -0.440936,-0.755477 -0.828125,-0.982422 -0.230832,-0.135691 -0.452147,-0.184978 -0.697266,-0.240234 -0.245119,-0.05526 -0.412908,-0.11192 -0.701172,-0.07617 z m 5.355469,0 c -0.287223,-0.03529 -0.454851,0.02107 -0.699219,0.07617 -0.245042,0.05525 -0.466433,0.104542 -0.697265,0.240234 -0.386739,0.226681 -0.669438,0.561509 -0.828125,0.980469 -0.13518,0.355769 -0.03896,0.664287 0.0957,0.923828 0.134658,0.259542 0.326944,0.502741 0.671875,0.615235 0.364983,0.118882 0.7978,0.170222 1.18164,0.136718 0.308477,-0.0269 0.553876,-0.150609 0.816407,-0.316406 0.263076,-0.166141 0.520471,-0.37565 0.701171,-0.671875 v -0.002 c 0.132296,-0.218323 0.200896,-0.421618 0.22461,-0.679688 v -0.002 c 0.02465,-0.268605 -0.03318,-0.500817 -0.121094,-0.662109 -0.08817,-0.161752 -0.246094,-0.283203 -0.246094,-0.283203 l -0.01758,-0.01172 -0.01758,-0.0098 c -0.312038,-0.174862 -0.697987,-0.289194 -1.0625,-0.333984 z m -5.234375,0.992188 h 0.002 c -0.09689,0.01202 0.164638,0.01514 0.357422,0.05859 0.192784,0.04346 0.416797,0.130857 0.410156,0.126953 h 0.002 v 0.002 c 0.670514,0.670621 0.260637,0.72985 -0.527345,0.796871 h -0.002 c 0.003,2.53e-4 -0.199972,-0.05915 -0.36914,-0.166016 -0.169168,-0.106866 -0.327694,-0.2605 -0.38086,-0.347656 -0.0125,-0.02198 -0.0823,-0.233397 -0.08398,-0.251953 v -0.002 c -0.0033,-0.03543 4.41e-4,-0.02043 0.002,-0.03516 0.156033,-0.06535 0.430579,-0.162133 0.589844,-0.18164 z m 5.113281,0 c 0.15981,0.01954 0.435862,0.116296 0.591797,0.18164 0.0015,0.01473 0.0033,-2.37e-4 0,0.03516 v 0.002 c -0.0017,0.01869 -0.07221,0.234466 -0.08398,0.253906 -0.05391,0.08725 -0.210541,0.239374 -0.378907,0.345703 -0.169271,0.106901 -0.374486,0.166307 -0.371093,0.166016 -0.920285,-0.06183 -1.091193,-0.148353 -0.527339,-0.796871 v -0.002 c -0.0066,0.0039 0.219375,-0.08349 0.412109,-0.126953 0.192735,-0.04346 0.455242,-0.04643 0.357422,-0.05859 z"
     id="path14"
     sodipodi:nodetypes="ccccccccccccccccccccccccccccccccccccccccscccccccascscccccccccccccccccccccccccccccccccsccccccccccccccccccccccccccccccccccccccccccccccccccccccccsccccccccsccsccccccccsccccccccscccccccccccccccccccccccccccsccccsccsccscccsccsccsccccscccccccccccccscccccccccccscccscc" />
</svg>
