<?xml version="1.0" encoding="UTF-8" standalone="no"?>
<!-- Generator: Gravit.io -->

<svg
   style="isolation:isolate"
   viewBox="0 0 48 48"
   width="48pt"
   height="48pt"
   version="1.1"
   id="svg11"
   sodipodi:docname="gtkhash.svg"
   inkscape:version="1.1.2 (0a00cf5339, 2022-02-04)"
   xmlns:inkscape="http://www.inkscape.org/namespaces/inkscape"
   xmlns:sodipodi="http://sodipodi.sourceforge.net/DTD/sodipodi-0.dtd"
   xmlns:xlink="http://www.w3.org/1999/xlink"
   xmlns="http://www.w3.org/2000/svg"
   xmlns:svg="http://www.w3.org/2000/svg">
  <defs
     id="defs15">
    <linearGradient
       inkscape:collect="always"
       xlink:href="#_lgradient_47"
       id="linearGradient872"
       x1="-12.025727"
       y1="6.1170783"
       x2="-0.085100174"
       y2="6.1170783"
       gradientUnits="userSpaceOnUse"
       gradientTransform="matrix(3.8358211,0,0,3.8371386,-0.00544341,-0.00268054)" />
    <linearGradient
       id="_lgradient_1"
       x1="0.18336116"
       y1="0.24917752"
       x2="0.9027437"
       y2="0.90347725"
       gradientTransform="matrix(24.617266,0,0,24.816118,10.841288,10.089605)"
       gradientUnits="userSpaceOnUse">
      <stop
         offset="2.608695652173913%"
         stop-opacity="1"
         style="stop-color:rgb(179,255,171)"
         id="stop2-3" />
      <stop
         offset="98.69565217391305%"
         stop-opacity="1"
         style="stop-color:rgb(18,255,247)"
         id="stop4-6" />
    </linearGradient>
    <linearGradient
       inkscape:collect="always"
       xlink:href="#_lgradient_47"
       id="linearGradient15"
       x1="-9.6850061"
       y1="45.161198"
       x2="11.98815"
       y2="21.735205"
       gradientUnits="userSpaceOnUse"
       gradientTransform="matrix(1.1147442,0,0,1.1150348,-0.01237238,-3.3277956)" />
    <linearGradient
       inkscape:collect="always"
       xlink:href="#_lgradient_47"
       id="linearGradient895"
       x1="11.128907"
       y1="24.000084"
       x2="36.871094"
       y2="24.000084"
       gradientUnits="userSpaceOnUse" />
  </defs>
  <sodipodi:namedview
     id="namedview13"
     pagecolor="#ffffff"
     bordercolor="#666666"
     borderopacity="1.0"
     inkscape:pageshadow="2"
     inkscape:pageopacity="0.0"
     inkscape:pagecheckerboard="0"
     inkscape:document-units="pt"
     showgrid="false"
     inkscape:zoom="7.2257474"
     inkscape:cx="32.038208"
     inkscape:cy="31.969011"
     inkscape:window-width="1600"
     inkscape:window-height="836"
     inkscape:window-x="0"
     inkscape:window-y="0"
     inkscape:window-maximized="1"
     inkscape:current-layer="svg11" />
  <linearGradient
     id="_lgradient_47"
     x1="0.12294902526067883"
     y1="0.8334383245821393"
     x2="0.9575161951617046"
     y2="0.24094148678417548"
     gradientTransform="matrix(25.742184,0,0,25.741626,11.128908,11.129503)"
     gradientUnits="userSpaceOnUse">
    <stop
       offset="0%"
       stop-opacity="1"
       style="stop-color:rgb(230,87,87)"
       id="stop2" />
    <stop
       offset="51.73913043478261%"
       stop-opacity="1"
       style="stop-color:rgb(11,174,200)"
       id="stop4" />
    <stop
       offset="97.82608695652173%"
       stop-opacity="1"
       style="stop-color:rgb(34,216,143)"
       id="stop6" />
  </linearGradient>
  <rect
     x="-46.783188"
     y="1.2253767"
     height="45.80014"
     rx="6.1837621"
     shape-rendering="crispEdges"
     id="rect5-6-7-3"
     ry="6.8055277"
     transform="matrix(0.00524063,-0.99998627,0.99998801,0.00489691,0,0)"
     style="isolation:isolate;fill:#00ffe5;fill-opacity:0.13470298;stroke:url(#linearGradient872);stroke-width:2.0301;stroke-miterlimit:4;stroke-dasharray:none;stroke-opacity:1"
     width="45.801998" />
  <rect
     x="-15.686804"
     y="17.260084"
     height="33.345856"
     rx="6.7920032"
     shape-rendering="crispEdges"
     id="rect5-6-6-6-6"
     style="isolation:isolate;fill:#00ffe5;fill-opacity:0.13470298;stroke:url(#linearGradient15);stroke-width:1.67233;stroke-miterlimit:4;stroke-dasharray:none;stroke-opacity:1"
     ry="7.4743071"
     transform="matrix(0.72446484,-0.68931175,0.68622417,0.72739012,0,0)"
     width="33.338203" />
  <path
     style="color:#000000;fill:url(#linearGradient895);fill-rule:evenodd;-inkscape-stroke:none"
     d="m 21.347656,10.630859 c -1.454324,0.04328 -2.682635,1.11122 -2.929687,2.544922 v -0.0078 l -0.613282,3.273437 h -2.140624 c -1.105365,-0.016 -2.134126,0.564953 -2.691407,1.519531 v 0.002 c -0.556623,0.954592 -0.556623,2.137204 0,3.091796 0.557281,0.954578 1.586041,1.535532 2.691407,1.519532 h 0.990234 l -0.414063,2.208984 h -2.5 c -1.104917,-0.016 -2.136076,0.566908 -2.693359,1.521484 -0.557315,0.954638 -0.557315,2.137161 0,3.091797 0.557282,0.954576 1.588441,1.537489 2.693359,1.521485 h 1.34961 l -0.519531,2.779297 c -0.218654,1.083266 0.162041,2.202442 0.998046,2.925781 0.835824,0.72318 1.997966,0.940274 3.039063,0.568359 1.040591,-0.371974 1.802238,-1.275919 1.990234,-2.365234 l 0.734375,-3.908203 h 2.742188 l -0.519532,2.777343 c -0.219347,1.083403 0.162041,2.204396 0.998047,2.927735 0.835923,0.723266 1.998319,0.940386 3.039063,0.568359 1.040593,-0.371974 1.802237,-1.27592 1.990234,-2.365234 l 0.734375,-3.908203 h 2.019531 c 1.105365,0.016 2.134126,-0.566907 2.691407,-1.521485 0.556623,-0.954592 0.556623,-2.137203 0,-3.091797 -0.557281,-0.954577 -1.586041,-1.537485 -2.691407,-1.521484 h -0.86914 l 0.412109,-2.208984 h 2.38086 c 1.104917,0.016 2.136076,-0.564955 2.693359,-1.519532 0.557315,-0.954636 0.557315,-2.139113 0,-3.09375 -0.557282,-0.954577 -1.588441,-1.535535 -2.693359,-1.519531 h -1.230469 l 0.40039,-2.136718 c 0.185394,-0.917629 -0.05727,-1.871009 -0.660156,-2.585938 -0.603535,-0.71557 -1.502597,-1.115898 -2.4375,-1.087891 -1.454785,0.04327 -2.682023,1.109579 -2.929687,2.542969 l -0.613282,3.267578 h -2.742187 l 0.398437,-2.136718 c 0.185346,-0.917399 -0.05842,-1.870846 -0.662109,-2.585938 -0.60306,-0.715042 -1.500733,-1.115875 -2.435547,-1.087891 z m 0.0293,1 c 0.63152,-0.0189 1.236063,0.249911 1.642578,0.732422 0.40701,0.482115 0.570435,1.122874 0.445313,1.742188 v 0.0039 l -0.623047,3.332031 h 4.777344 l 0.767578,-4.09375 v -0.002 c 0.167784,-0.971073 0.989193,-1.685534 1.974609,-1.714844 0.630846,-0.0189 1.235411,0.249672 1.642578,0.732422 0.406696,0.482279 0.572343,1.123103 0.447266,1.742188 l -0.002,0.0039 -0.625,3.332031 h 2.447265 0.0039 c 0.745613,-0.0108 1.43809,0.380714 1.814453,1.025391 0.376325,0.644616 0.376325,1.439368 0,2.083984 -0.376363,0.644676 -1.068839,1.034236 -1.814453,1.023438 h -0.0039 -3.222656 l -0.787109,4.208984 h 0.601562 1.482422 0.0039 c 0.746283,-0.0108 1.438093,0.380716 1.814453,1.025391 0.375902,0.644661 0.375902,1.439324 0,2.083984 -0.37636,0.644675 -1.068169,1.036192 -1.814453,1.025391 h -0.0039 -2.859375 l -0.888672,4.734375 v 0.002 c -0.12694,0.735532 -0.639069,1.344504 -1.341797,1.595703 -0.702574,0.251144 -1.484288,0.105644 -2.048828,-0.382813 -0.564458,-0.488386 -0.821906,-1.241266 -0.673828,-1.972656 l 0.002,-0.0039 0.744141,-3.972656 h -4.777344 l -0.888672,4.734375 v 0.002 c -0.126939,0.735531 -0.639071,1.344504 -1.341797,1.595703 -0.703339,0.251257 -1.484189,0.10573 -2.048828,-0.382813 -0.564457,-0.488386 -0.821484,-1.24113 -0.673828,-1.972656 l 0.002,-0.0039 0.744141,-3.972656 h -2.566406 -0.0039 c -0.745613,0.0108 -1.43809,-0.380715 -1.814453,-1.025391 -0.376325,-0.644616 -0.376326,-1.439367 0,-2.083984 0.376363,-0.644676 1.068838,-1.036189 1.814453,-1.025391 h 0.0039 3.341796 l 0.789063,-4.208984 h -2.205078 -0.0039 c -0.746283,0.0108 -1.438093,-0.378763 -1.814453,-1.023438 -0.375574,-0.644097 -0.374918,-1.439625 0,-2.083984 0.37636,-0.644676 1.068169,-1.036192 1.814453,-1.025391 h 0.0039 2.980469 l 0.767578,-4.09375 v -0.0039 c 0.167279,-0.970761 0.989852,-1.683587 1.974609,-1.712891 z m 0.689453,9.94336 -0.791015,4.208984 h 4.779296 L 26.130859,25.375 26.84375,21.574219 Z m 0.830078,1 h 2.742188 l -0.414063,2.208984 h -2.74414 z"
     id="path9" />
</svg>
