<?xml version="1.0" encoding="UTF-8" standalone="no"?>
<svg
   width="48"
   height="48"
   version="1.1"
   viewBox="0 0 48 48"
   id="svg15"
   sodipodi:docname="GuitarPro.svg"
   inkscape:version="1.1.2 (0a00cf5339, 2022-02-04)"
   xmlns:inkscape="http://www.inkscape.org/namespaces/inkscape"
   xmlns:sodipodi="http://sodipodi.sourceforge.net/DTD/sodipodi-0.dtd"
   xmlns:xlink="http://www.w3.org/1999/xlink"
   xmlns="http://www.w3.org/2000/svg"
   xmlns:svg="http://www.w3.org/2000/svg">
  <sodipodi:namedview
     id="namedview17"
     pagecolor="#ffffff"
     bordercolor="#666666"
     borderopacity="1.0"
     inkscape:pageshadow="2"
     inkscape:pageopacity="0.0"
     inkscape:pagecheckerboard="0"
     showgrid="false"
     inkscape:zoom="6.8125"
     inkscape:cx="24"
     inkscape:cy="24.220183"
     inkscape:window-width="1600"
     inkscape:window-height="836"
     inkscape:window-x="0"
     inkscape:window-y="0"
     inkscape:window-maximized="1"
     inkscape:current-layer="svg15" />
  <defs
     id="defs9">
    <linearGradient
       id="linearGradient13">
      <stop
         stop-color="#93c2ff"
         offset="0"
         id="stop2" />
      <stop
         stop-color="#1b43e0"
         offset="1"
         id="stop4" />
    </linearGradient>
    <linearGradient
       id="linearGradient7"
       x1="61.1819"
       x2="109.182"
       y1="50.3884"
       y2="98.3884"
       gradientTransform="matrix(.948999 0 0 .948999 -56.8376 -46.5945)"
       gradientUnits="userSpaceOnUse"
       xlink:href="#linearGradient13" />
    <linearGradient
       id="linearGradient17"
       x2="48"
       y2="48"
       gradientUnits="userSpaceOnUse"
       xlink:href="#linearGradient13"
       gradientTransform="matrix(0.59614342,0,0,0.59614342,9.6925574,11.535223)" />
    <linearGradient
       inkscape:collect="always"
       xlink:href="#linearGradient13"
       id="linearGradient872"
       x1="-12.025727"
       y1="6.1170783"
       x2="-0.085100174"
       y2="6.1170783"
       gradientUnits="userSpaceOnUse"
       gradientTransform="matrix(3.809997,0,0,3.8336295,-0.16687747,0.02011829)" />
    <linearGradient
       id="_lgradient_1"
       x1="0.18336116"
       y1="0.24917752"
       x2="0.9027437"
       y2="0.90347725"
       gradientTransform="matrix(24.617266,0,0,24.816118,10.841288,10.089605)"
       gradientUnits="userSpaceOnUse">
      <stop
         offset="2.608695652173913%"
         stop-opacity="1"
         style="stop-color:rgb(179,255,171)"
         id="stop2-3" />
      <stop
         offset="98.69565217391305%"
         stop-opacity="1"
         style="stop-color:rgb(18,255,247)"
         id="stop4-6" />
    </linearGradient>
    <linearGradient
       inkscape:collect="always"
       xlink:href="#linearGradient13"
       id="linearGradient15"
       x1="-9.6850061"
       y1="45.161198"
       x2="11.98815"
       y2="21.735205"
       gradientUnits="userSpaceOnUse"
       gradientTransform="matrix(1.1106479,0,0,1.1105875,-0.10763043,-3.1820591)" />
    <linearGradient
       inkscape:collect="always"
       xlink:href="#linearGradient13"
       id="linearGradient1062"
       x1="11.801182"
       y1="25.842667"
       x2="36.198818"
       y2="25.842667"
       gradientUnits="userSpaceOnUse" />
  </defs>
  <rect
     x="-46.629696"
     y="1.2470524"
     height="45.758255"
     rx="6.1421309"
     shape-rendering="crispEdges"
     id="rect5-6-7-3"
     ry="6.799304"
     transform="matrix(0.00527133,-0.99998611,0.99998815,0.00486839,0,0)"
     style="isolation:isolate;fill:#0071ff;fill-opacity:0.13470298;stroke:url(#linearGradient872);stroke-width:1.333;stroke-miterlimit:4;stroke-dasharray:none;stroke-opacity:1"
     width="45.493641" />
  <rect
     x="-15.724464"
     y="17.323706"
     height="33.212856"
     rx="6.767045"
     shape-rendering="crispEdges"
     id="rect5-6-6-6-6"
     style="isolation:isolate;fill:#0071ff;fill-opacity:0.13470298;stroke:url(#linearGradient15);stroke-width:1.333;stroke-miterlimit:4;stroke-dasharray:none;stroke-opacity:1"
     ry="7.4444957"
     transform="matrix(0.72647193,-0.68719614,0.68834216,0.72538615,0,0)"
     width="33.215698" />
  <path
     style="color:#000000;fill:url(#linearGradient1062);stroke-linecap:round;stroke-linejoin:round;-inkscape-stroke:none"
     d="m 24,11.263672 c -2.860855,0 -5.870904,0.650681 -8.322266,2.134766 -2.464435,1.491997 -4.376953,4.017597 -4.376953,7.27539 0,3.51017 2.132195,7.977968 4.572266,11.947266 1.222478,1.988619 2.542743,3.806521 3.832031,5.195312 0.643975,0.693674 1.281221,1.28756 1.947266,1.748047 0.654002,0.45216 1.405665,0.857422 2.347656,0.857422 1.345093,0 2.284211,-0.743304 3.072266,-1.417969 0.812877,-0.695917 1.544261,-1.517206 2.146484,-2.25 0.599732,-0.729609 0.493116,-1.821942 -0.236328,-2.421875 a 0.50005,0.50005 0 0 0 0,-0.002 c -0.729609,-0.599732 -1.821943,-0.493116 -2.421875,0.236328 a 0.50005,0.50005 0 0 0 -0.002,0.002 c -0.526834,0.641058 -1.167441,1.343314 -1.72461,1.820313 -0.262393,0.224639 -0.523798,0.384021 -0.714843,0.484375 -0.05758,0.03025 -0.0937,0.04442 -0.136719,0.06445 -0.09084,-0.03827 -0.215673,-0.09627 -0.373047,-0.205078 -0.356243,-0.246298 -0.85151,-0.687609 -1.380859,-1.257813 -1.060412,-1.142251 -2.291354,-2.817216 -3.421875,-4.65625 -1.127928,-1.834813 -2.152539,-3.884694 -2.888672,-5.726562 -0.736134,-1.841868 -1.173828,-3.502588 -1.173828,-4.417969 0,-1.988628 0.963673,-3.269898 2.714843,-4.330078 1.734427,-1.050043 4.22675,-1.636719 6.541016,-1.636719 2.314268,0 4.806589,0.586678 6.541016,1.636719 1.75117,1.060178 2.714843,2.34144 2.714843,4.330078 0,1.045201 -0.495463,2.728116 -1.148437,4.357422 -0.652974,1.629306 -1.452174,3.231152 -2.007813,4.232422 -0.45846,0.825939 -0.156021,1.881392 0.669922,2.339844 0.825939,0.45846 1.881393,0.156021 2.339844,-0.669922 1.193107,-2.149995 3.589844,-6.454602 3.589844,-10.259766 0,-3.2578 -1.912517,-5.783395 -4.376953,-7.27539 C 29.870904,11.914356 26.860854,11.263672 24,11.263672 Z m 0,1 c 2.707601,0 5.554532,0.627965 7.804687,1.990234 2.23708,1.354352 3.894532,3.550281 3.894532,6.419922 0,3.371137 -2.276429,7.63385 -3.464844,9.775391 -0.196166,0.353412 -0.627058,0.475467 -0.980469,0.279297 -0.353412,-0.196167 -0.475467,-0.627059 -0.279297,-0.980469 0.577411,-1.040504 1.387082,-2.663315 2.060547,-4.34375 0.673465,-1.680435 1.220703,-3.393347 1.220703,-4.730469 0,-2.332253 -1.262997,-4.014519 -3.197265,-5.185547 C 29.107582,14.307117 26.479389,13.707031 24,13.707031 c -2.479387,0 -5.10758,0.600083 -7.058594,1.78125 -1.93427,1.17103 -3.197265,2.853303 -3.197265,5.185547 0,1.205688 0.486469,2.888419 1.246093,4.789063 0.759624,1.900643 1.802366,3.993019 2.962891,5.880859 1.15793,1.88362 2.412435,3.596819 3.541016,4.8125 0.565145,0.608761 1.094549,1.08571 1.546875,1.398437 0.235268,0.162659 0.443724,0.263328 0.59375,0.324219 0.07501,0.03045 0.135492,0.05185 0.175781,0.06445 0.02014,0.0063 0.03682,0.01163 0.03711,0.01172 1.46e-4,4.4e-5 0.01026,0.0059 -0.04102,-0.01563 -0.01282,-0.0054 -0.0724,-0.03915 -0.07227,-0.03906 6.9e-5,4.3e-5 -0.105501,-0.08793 -0.105469,-0.08789 0,0 0.0075,-0.0056 0.0078,-0.0059 0.04175,0.01978 0.363238,0.171875 0.363281,0.171875 0.01506,0 0.08773,-0.0078 0.08789,-0.0078 7.4e-5,-1.3e-5 0.119222,-0.04037 0.132812,-0.04492 -0.0043,0.0021 -0.0084,0.0053 -0.0098,0.0059 0.0036,-0.0015 0.01285,-0.0059 0.01758,-0.0078 0,0 -0.228516,-0.445312 -0.228516,-0.445312 0,0 -0.5,0.0039 -0.5,0.0039 0,0 0.0078,-0.08008 0.0078,-0.08008 0,0 0.492188,0.07617 0.492188,0.07617 0,0 0.162932,-0.220447 0.238281,-0.322266 0.0156,0.09778 0.03258,0.193873 0.06055,0.369141 C 24.156,37.503146 24,37.478516 24,37.478516 c 0,0 0.166422,0.05353 0.306641,0.09961 0.01809,0.113319 0.04101,0.259773 0.04102,0.259766 5.1e-5,-4.9e-5 -0.08801,0.06843 -0.08789,0.06836 1.2e-4,-7.4e-5 -0.02272,0.01223 -0.0293,0.01563 -0.0021,0.0011 -1.62e-4,0.001 -0.002,0.002 0.01659,-0.0069 0.03509,-0.01348 0.0625,-0.02539 0.07045,-0.0306 0.171932,-0.07705 0.292968,-0.140625 0.242074,-0.127157 0.566543,-0.323561 0.900391,-0.609375 0.635318,-0.543903 1.296819,-1.275047 1.847656,-1.945312 0.256701,-0.312117 0.703438,-0.356225 1.015625,-0.09961 0.312117,0.256701 0.354272,0.703437 0.09766,1.015625 -0.582264,0.708508 -1.281568,1.489873 -2.023437,2.125 -0.766696,0.656379 -1.4392,1.177734 -2.421875,1.177734 -0.660154,0 -1.186589,-0.271858 -1.779297,-0.681641 -0.580666,-0.401458 -1.170385,-0.943403 -1.783203,-1.603515 -1.224298,-1.318786 -2.516442,-3.092786 -3.712891,-5.039063 -2.397778,-3.900498 -4.423828,-8.333618 -4.423828,-11.423828 0,-2.869633 1.657453,-5.065568 3.894531,-6.419922 C 18.445466,12.891635 21.292398,12.263672 24,12.263672 Z m -1.552734,6.49414 a 0.50005,0.50005 0 0 0 -0.425782,0.425782 c -0.43169,-0.246862 -0.906072,-0.419922 -1.4375,-0.419922 -1.623034,0 -2.945312,1.322279 -2.945312,2.945312 v 1.947266 c 0,1.084762 0.688114,1.860006 1.564453,2.371094 a 0.50005,0.50005 0 0 0 -0.621094,0.423828 l 0.0039,1.818359 A 0.50005,0.50005 0 0 0 18.875,28.722656 c 2.307447,1.074647 3.905881,0.748883 4.820312,-0.07031 0.342685,-0.306995 0.508055,-0.667758 0.679688,-1.015625 v 1.285156 a 0.50005,0.50005 0 0 0 0.570312,0.494141 l 1.886719,-0.263672 a 0.50005,0.50005 0 0 0 0.429688,-0.496094 v -2.417969 c 0.412097,0.218197 0.867893,0.363282 1.365234,0.363281 1.623029,0 2.945313,-1.322277 2.945313,-2.945312 v -1.947266 c 0,-1.623033 -1.322278,-2.945312 -2.945313,-2.945312 -0.517904,0 -0.98607,0.161171 -1.410156,0.396484 a 0.50005,0.50005 0 0 0 -0.535156,-0.396484 l -1.886719,0.30664 a 0.50005,0.50005 0 0 0 -0.06641,0.08008 0.50005,0.50005 0 0 0 -0.392579,-0.392579 z m 0.5,1 h 0.888671 v 6.431641 c 0,0.09353 -0.04307,0.417797 -0.169921,0.751953 -0.126851,0.334156 -0.333821,0.691743 -0.638672,0.964844 -0.573352,0.513638 -1.589376,0.756071 -3.441407,-0.01758 l -0.002,-0.621094 c 0.878116,0.465725 1.640044,0.700811 2.234375,0.541016 0.386166,-0.103827 0.698194,-0.350973 0.882813,-0.652344 0.184618,-0.301371 0.253823,-0.643643 0.246094,-0.978516 v -0.9375 a 0.50005,0.50005 0 0 0 -0.88086,-0.324218 c -0.3565,0.419267 -0.882304,0.685546 -1.482422,0.685546 -1.086305,0 -1.945312,-0.859008 -1.945312,-1.945312 v -1.947266 c 0,-1.086303 0.859007,-1.945312 1.945312,-1.945312 0.60011,0 1.125916,0.264324 1.482422,0.683594 a 0.50005,0.50005 0 0 0 0.88086,-0.324219 z m 5.679687,0.0059 c 1.086305,0 1.945313,0.859008 1.945313,1.945312 v 1.947266 c 0,1.086302 -0.859015,1.945312 -1.945313,1.945312 -0.600118,0 -1.127873,-0.266278 -1.484375,-0.685546 a 0.50005,0.50005 0 0 0 -0.880859,0.324218 v 2.982422 L 25.375,28.345703 v -8.357422 l 0.886719,-0.144531 v 0.279297 a 0.50005,0.50005 0 0 0 0.880859,0.324219 c 0.356507,-0.41927 0.884265,-0.683594 1.484375,-0.683594 z m -7.435547,0.333984 c -0.928919,0 -1.691406,0.76444 -1.691406,1.69336 v 1.716796 c 0,0.928922 0.762317,1.69336 1.691406,1.69336 h 0.01172 c 0.929088,0 1.693359,-0.764265 1.693359,-1.69336 v -1.716796 c 0,-0.929091 -0.764439,-1.69336 -1.693359,-1.69336 z m 6.816406,0 c -0.92892,0 -1.693359,0.76427 -1.693359,1.69336 v 1.716796 c 0,0.929094 0.76427,1.69336 1.693359,1.69336 h 0.0098 c 0.92909,0 1.693359,-0.764438 1.693359,-1.69336 v -1.716796 c 0,-0.92892 -0.76444,-1.69336 -1.693359,-1.69336 z m -6.816406,1 h 0.01172 c 0.392407,0 0.693359,0.301125 0.693359,0.69336 v 1.716796 c 0,0.392245 -0.30112,0.69336 -0.693359,0.69336 h -0.01172 C 20.799169,24.201172 20.5,23.900224 20.5,23.507812 v -1.716796 c 0,-0.392406 0.299001,-0.69336 0.691406,-0.69336 z m 6.816406,0 h 0.0098 c 0.392404,0 0.693359,0.300955 0.693359,0.69336 v 1.716796 c 0,0.392412 -0.301122,0.69336 -0.693359,0.69336 h -0.0098 c -0.392241,0 -0.693359,-0.301114 -0.693359,-0.69336 v -1.716796 c 0,-0.392235 0.300951,-0.69336 0.693359,-0.69336 z m -6.072265,5.148438 c -0.0047,0.152793 -0.03156,0.294759 -0.08789,0.386718 -0.0632,0.103162 -0.135694,0.169702 -0.289062,0.210938 -0.244668,0.06578 -0.835043,-0.08787 -1.621094,-0.511719 0.233761,0.05998 0.394383,0.269531 0.646484,0.269531 0.492273,0 0.942498,-0.141405 1.351563,-0.355468 z"
     id="path13" />
</svg>
