<?xml version="1.0" encoding="UTF-8" standalone="no"?>
<!-- Generator: Gravit.io -->

<svg
   style="isolation:isolate"
   viewBox="0 0 48 48"
   width="48pt"
   height="48pt"
   version="1.1"
   id="svg18"
   sodipodi:docname="HDFView.svg"
   inkscape:version="1.1.2 (0a00cf5339, 2022-02-04)"
   xmlns:inkscape="http://www.inkscape.org/namespaces/inkscape"
   xmlns:sodipodi="http://sodipodi.sourceforge.net/DTD/sodipodi-0.dtd"
   xmlns:xlink="http://www.w3.org/1999/xlink"
   xmlns="http://www.w3.org/2000/svg"
   xmlns:svg="http://www.w3.org/2000/svg">
  <defs
     id="defs22">
    <linearGradient
       inkscape:collect="always"
       xlink:href="#_lgradient_5"
       id="linearGradient872"
       x1="-12.025727"
       y1="6.1170783"
       x2="-0.085100174"
       y2="6.1170783"
       gradientUnits="userSpaceOnUse"
       gradientTransform="matrix(3.8358211,0,0,3.8371386,-0.00544341,-0.00268054)" />
    <linearGradient
       id="_lgradient_1"
       x1="0.18336116"
       y1="0.24917752"
       x2="0.9027437"
       y2="0.90347725"
       gradientTransform="matrix(24.617266,0,0,24.816118,10.841288,10.089605)"
       gradientUnits="userSpaceOnUse">
      <stop
         offset="2.608695652173913%"
         stop-opacity="1"
         style="stop-color:rgb(179,255,171)"
         id="stop2-3" />
      <stop
         offset="98.69565217391305%"
         stop-opacity="1"
         style="stop-color:rgb(18,255,247)"
         id="stop4-6" />
    </linearGradient>
    <linearGradient
       inkscape:collect="always"
       xlink:href="#_lgradient_5"
       id="linearGradient15"
       x1="-9.6850061"
       y1="45.161198"
       x2="11.98815"
       y2="21.735205"
       gradientUnits="userSpaceOnUse"
       gradientTransform="matrix(1.1147442,0,0,1.1150348,-0.01237238,-3.3277956)" />
    <linearGradient
       inkscape:collect="always"
       xlink:href="#_lgradient_5"
       id="linearGradient905"
       x1="12.734266"
       y1="16.043507"
       x2="24.239697"
       y2="23.858269"
       gradientUnits="userSpaceOnUse" />
    <linearGradient
       inkscape:collect="always"
       xlink:href="#_lgradient_4"
       id="linearGradient1378"
       x1="18.453045"
       y1="25.537443"
       x2="17.691456"
       y2="31.117262"
       gradientUnits="userSpaceOnUse" />
  </defs>
  <sodipodi:namedview
     id="namedview20"
     pagecolor="#ffffff"
     bordercolor="#666666"
     borderopacity="1.0"
     inkscape:pageshadow="2"
     inkscape:pageopacity="0.0"
     inkscape:pagecheckerboard="0"
     inkscape:document-units="pt"
     showgrid="false"
     inkscape:zoom="10.21875"
     inkscape:cx="31.95107"
     inkscape:cy="32"
     inkscape:window-width="1600"
     inkscape:window-height="836"
     inkscape:window-x="0"
     inkscape:window-y="0"
     inkscape:window-maximized="1"
     inkscape:current-layer="svg18" />
  <linearGradient
     id="_lgradient_4"
     x1="0.39980158730156745"
     y1="0.20242151662881497"
     x2="0.36506834215163786"
     y2="1.11853149718325"
     gradientTransform="matrix(21.926788,0,0,6.0907744,9.6866802,24.304539)"
     gradientUnits="userSpaceOnUse">
    <stop
       offset="0%"
       stop-opacity="1"
       style="stop-color:rgb(67,233,123)"
       id="stop2" />
    <stop
       offset="97.82608695652173%"
       stop-opacity="1"
       style="stop-color:rgb(56,249,215)"
       id="stop4" />
  </linearGradient>
  <rect
     x="-46.783188"
     y="1.2253767"
     height="45.80014"
     rx="6.1837621"
     shape-rendering="crispEdges"
     id="rect5-6-7-3"
     ry="6.8055277"
     transform="matrix(0.00524063,-0.99998627,0.99998801,0.00489691,0,0)"
     style="isolation:isolate;fill:#00e2ff;fill-opacity:0.13470298;stroke:url(#linearGradient872);stroke-width:2.0301;stroke-miterlimit:4;stroke-dasharray:none;stroke-opacity:1"
     width="45.801998" />
  <rect
     x="-15.686804"
     y="17.260084"
     height="33.345856"
     rx="6.7920032"
     shape-rendering="crispEdges"
     id="rect5-6-6-6-6"
     style="isolation:isolate;fill:#00e2ff;fill-opacity:0.13470298;stroke:url(#linearGradient15);stroke-width:1.67233;stroke-miterlimit:4;stroke-dasharray:none;stroke-opacity:1"
     ry="7.4743071"
     transform="matrix(0.72446484,-0.68931175,0.68622417,0.72739012,0,0)"
     width="33.338203" />
  <path
     style="color:#000000;fill:url(#linearGradient1378);-inkscape-stroke:none"
     d="m 9.1875,23.804687 v 7.089844 h 3.435547 v -0.5 -3.154297 h 4.482422 v 3.654297 h 5.371093 c 0.163102,0 0.318213,-0.0238 0.464844,-0.06641 l 0.0059,-0.002 c 1.2238,-0.342292 2.354872,-0.940085 3.326171,-1.744141 l 0.0039,-0.002 0.002,-0.0039 c 0.607218,-0.515563 1.073573,-1.157701 1.476562,-1.835938 h 0.921875 v 1.9375 1.716797 h 3.435547 v -1.716797 -5.373047 h -5.373047 c -0.714368,0 -1.357955,0.446209 -1.607422,1.117188 -0.226555,0.591374 -0.592453,1.114637 -1.068359,1.527344 -0.550502,0.450945 -1.189698,0.791291 -1.869141,1.009765 h -1.654296 v -3.654297 z m 1,1 h 9.353516 v 3.654297 h 2.835937 l 0.07227,-0.02344 c 0.822812,-0.256717 1.592193,-0.669804 2.257812,-1.216797 l 0.0059,-0.0039 0.0039,-0.0039 c 0.605525,-0.523882 1.066899,-1.190001 1.351562,-1.935546 l 0.002,-0.002 v -0.002 c 0.103798,-0.279179 0.373224,-0.466796 0.669922,-0.466797 h 4.373047 v 4.373047 0.716797 h -1.435547 v -0.716797 -2.9375 h -2.451172 l -0.140625,0.265625 c -0.366519,0.687931 -0.857398,1.300369 -1.453125,1.806641 -7.05e-4,6e-4 -0.0012,0.0014 -0.002,0.002 -0.865319,0.715062 -1.872853,1.247808 -2.958984,1.550781 h -0.0039 l -0.002,0.002 c -0.05876,0.01728 -0.135398,0.02734 -0.189454,0.02734 h -4.371093 v -3.654297 h -6.482422 v 3.654297 H 10.1875 Z"
     id="path7" />
  <linearGradient
     id="_lgradient_5"
     x1="0.10645977873617098"
     y1="-0.2563187542971434"
     x2="0.5083731961971028"
     y2="1.0267301862616416"
     gradientTransform="matrix(28.62664,0,0,6.0907744,9.6866802,17.604687)"
     gradientUnits="userSpaceOnUse">
    <stop
       offset="1.3043478260869565%"
       stop-opacity="1"
       style="stop-color:rgb(223,87,255)"
       id="stop9" />
    <stop
       offset="52.083333333333336%"
       stop-opacity="1"
       style="stop-color:rgb(36,30,252)"
       id="stop11" />
    <stop
       offset="97.91666666666666%"
       stop-opacity="1"
       style="stop-color:rgb(14,175,254)"
       id="stop13" />
  </linearGradient>
  <path
     style="color:#000000;fill:url(#linearGradient905);fill-rule:evenodd;-inkscape-stroke:none"
     d="m 9.1875,17.105469 v 7.089843 h 11.353516 v -3.654296 h 1.654296 c 0.679443,0.218474 1.318639,0.55882 1.869141,1.009765 0.477009,0.413663 0.843874,0.938197 1.070313,1.53125 0.250587,0.668643 0.892591,1.113281 1.605468,1.113281 h 4.873047 6.591797 v -3.435546 h -6.091797 v -0.21875 h 4.982422 1.716797 v -3.435547 h -1.716797 -8.417969 v 3.654297 H 27.755859 C 27.35287,20.081529 26.886515,19.439391 26.279297,18.923828 l -0.002,-0.0039 -0.0039,-0.002 c -0.971299,-0.804056 -2.102371,-1.401849 -3.326171,-1.744141 -0.148322,-0.04362 -0.305491,-0.06836 -0.470704,-0.06836 h -5.371093 v 3.654297 h -4.482422 v -3.654297 z m 1,1 h 1.435547 v 3.654297 h 6.482422 v -3.654297 h 4.371093 c 0.05406,0 0.130689,0.01006 0.189454,0.02734 l 0.002,0.002 h 0.0039 c 1.086988,0.303212 2.095159,0.836818 2.960937,1.552734 0.595727,0.506272 1.086606,1.11871 1.453125,1.806641 l 0.140625,0.265625 h 2.451172 v -3.654297 h 7.417969 0.716797 v 1.435547 h -0.716797 -5.982422 v 2.21875 h 0.5 5.591797 v 1.435546 h -5.591797 -4.873047 c -0.296698,0 -0.566124,-0.187617 -0.669922,-0.466796 v -0.002 l -0.002,-0.002 c -0.284663,-0.745545 -0.746037,-1.411664 -1.351562,-1.935547 l -0.0039,-0.0039 -0.0059,-0.0039 c -0.665619,-0.546993 -1.435,-0.96008 -2.257812,-1.216797 l -0.07227,-0.02344 h -2.835937 v 3.654296 H 10.1875 Z"
     id="path16" />
</svg>
