<?xml version="1.0" encoding="UTF-8" standalone="no"?>
<!-- Generator: Gravit.io -->

<svg
   style="isolation:isolate"
   viewBox="0 0 48 48"
   width="48pt"
   height="48pt"
   version="1.1"
   id="svg18"
   sodipodi:docname="heroic.svg"
   inkscape:version="1.1.2 (0a00cf5339, 2022-02-04)"
   xmlns:inkscape="http://www.inkscape.org/namespaces/inkscape"
   xmlns:sodipodi="http://sodipodi.sourceforge.net/DTD/sodipodi-0.dtd"
   xmlns:xlink="http://www.w3.org/1999/xlink"
   xmlns="http://www.w3.org/2000/svg"
   xmlns:svg="http://www.w3.org/2000/svg">
  <defs
     id="defs22">
    <linearGradient
       inkscape:collect="always"
       xlink:href="#_lgradient_51"
       id="linearGradient872"
       x1="-12.025727"
       y1="6.1170783"
       x2="-0.085100174"
       y2="6.1170783"
       gradientUnits="userSpaceOnUse"
       gradientTransform="matrix(3.8358211,0,0,3.8371386,-0.00544341,-0.00268054)" />
    <linearGradient
       id="_lgradient_1"
       x1="0.18336116"
       y1="0.24917752"
       x2="0.9027437"
       y2="0.90347725"
       gradientTransform="matrix(24.617266,0,0,24.816118,10.841288,10.089605)"
       gradientUnits="userSpaceOnUse">
      <stop
         offset="2.608695652173913%"
         stop-opacity="1"
         style="stop-color:rgb(179,255,171)"
         id="stop2-3" />
      <stop
         offset="98.69565217391305%"
         stop-opacity="1"
         style="stop-color:rgb(18,255,247)"
         id="stop4-6" />
    </linearGradient>
    <linearGradient
       inkscape:collect="always"
       xlink:href="#_lgradient_51"
       id="linearGradient15"
       x1="-9.6850061"
       y1="45.161198"
       x2="11.98815"
       y2="21.735205"
       gradientUnits="userSpaceOnUse"
       gradientTransform="matrix(1.1147442,0,0,1.1150348,-0.01237238,-3.3277956)" />
    <linearGradient
       inkscape:collect="always"
       xlink:href="#_lgradient_51"
       id="linearGradient959"
       x1="12.105769"
       y1="25.762047"
       x2="35.894222"
       y2="25.762047"
       gradientUnits="userSpaceOnUse"
       gradientTransform="translate(4e-6)" />
    <linearGradient
       inkscape:collect="always"
       xlink:href="#_lgradient_52"
       id="linearGradient985"
       x1="24.165197"
       y1="32.865223"
       x2="23.917402"
       y2="10.233154"
       gradientUnits="userSpaceOnUse"
       gradientTransform="translate(0,1.234039)" />
  </defs>
  <sodipodi:namedview
     id="namedview20"
     pagecolor="#ffffff"
     bordercolor="#666666"
     borderopacity="1.0"
     inkscape:pageshadow="2"
     inkscape:pageopacity="0.0"
     inkscape:pagecheckerboard="0"
     inkscape:document-units="pt"
     showgrid="false"
     inkscape:zoom="10.21875"
     inkscape:cx="31.95107"
     inkscape:cy="32"
     inkscape:window-width="1600"
     inkscape:window-height="836"
     inkscape:window-x="0"
     inkscape:window-y="0"
     inkscape:window-maximized="1"
     inkscape:current-layer="svg18" />
  <linearGradient
     id="_lgradient_51"
     x1="0"
     y1="0.5"
     x2="1"
     y2="0.5"
     gradientTransform="matrix(23.788453,0,0,30.706268,12.105773,10.408924)"
     gradientUnits="userSpaceOnUse">
    <stop
       offset="0%"
       stop-opacity="1"
       style="stop-color:rgb(84,51,255)"
       id="stop2" />
    <stop
       offset="51.73913043478261%"
       stop-opacity="1"
       style="stop-color:rgb(32,189,255)"
       id="stop4" />
    <stop
       offset="98.26086956521739%"
       stop-opacity="1"
       style="stop-color:rgb(165,254,203)"
       id="stop6" />
  </linearGradient>
  <rect
     x="-46.783188"
     y="1.2253767"
     height="45.80014"
     rx="6.1837621"
     shape-rendering="crispEdges"
     id="rect5-6-7-3"
     ry="6.8055277"
     transform="matrix(0.00524063,-0.99998627,0.99998801,0.00489691,0,0)"
     style="isolation:isolate;fill:#00ffeb;fill-opacity:0.13470298;stroke:url(#linearGradient872);stroke-width:2.0301;stroke-miterlimit:4;stroke-dasharray:none;stroke-opacity:1"
     width="45.801998" />
  <rect
     x="-15.686804"
     y="17.260084"
     height="33.345856"
     rx="6.7920032"
     shape-rendering="crispEdges"
     id="rect5-6-6-6-6"
     style="isolation:isolate;fill:#00ffeb;fill-opacity:0.13470298;stroke:url(#linearGradient15);stroke-width:1.67233;stroke-miterlimit:4;stroke-dasharray:none;stroke-opacity:1"
     ry="7.4743071"
     transform="matrix(0.72446484,-0.68931175,0.68622417,0.72739012,0,0)"
     width="33.338203" />
  <path
     style="color:#000000;fill:url(#linearGradient959);-inkscape-stroke:none"
     d="m 23.824219,9.7832031 -0.283203,0.2539059 c -0.917092,0.820217 -1.904223,1.560202 -2.953125,2.197266 -0.704131,0.428879 -1.440365,0.801157 -2.203125,1.115234 -1.342679,0.551005 -2.773524,0.840856 -4.222657,0.853516 l 0.01953,0.002 c -0.74222,-0.02155 -1.411046,0.353176 -1.863282,0.919922 -0.452236,0.566746 -0.71289,1.327072 -0.71289,2.162109 v 7.970703 0.01367 0.002 c 0.01367,1.701608 0.314244,3.38987 0.880859,4.994141 0.569815,1.627569 1.356676,3.175155 2.347656,4.59375 0.976687,1.416883 2.14502,2.698958 3.47461,3.804688 1.303221,1.091323 2.777662,1.963771 4.361328,2.578125 l 0.08594,0.03516 h 0.01758 l 0.585938,0.216797 c 0.431371,0.1652 0.905044,0.156365 1.326172,-0.01758 0.578807,-0.234437 1.138708,-0.516901 1.666015,-0.84961 l 0.0039,-0.002 c 0.557915,-0.347219 1.08969,-0.72927 1.59375,-1.144531 l 0.0039,-0.002 c 1.089323,-0.886721 2.0821,-1.887604 2.972656,-2.966797 0.936299,-1.124907 1.778092,-2.338247 2.50586,-3.611328 l 0.002,-0.0039 c 0.729883,-1.250854 1.330732,-2.574962 1.796875,-3.953125 l 0.02734,-0.07813 v -0.0078 l 0.384766,-1.158203 c 0.314983,-0.949474 -0.20685,-1.989719 -1.15625,-2.304688 h -0.002 c -0.949347,-0.313731 -1.987892,0.207198 -2.302734,1.15625 l -0.410157,1.236328 c -0.378724,1.142591 -0.878239,2.246828 -1.488281,3.28711 l -0.002,0.002 v 0.002 c -0.63347,1.098876 -1.358639,2.138571 -2.166016,3.107422 l -0.002,0.002 v 0.002 c -0.738564,0.905544 -1.56895,1.735489 -2.46875,2.47461 -0.384335,0.314931 -0.796276,0.607717 -1.222656,0.875 -0.158987,0.09993 -0.326378,0.187008 -0.492188,0.273437 -1.191821,-0.468077 -2.307633,-1.11953 -3.28125,-1.943359 l -0.002,-0.002 -0.002,-0.002 C 19.563283,34.971479 18.617664,33.93498 17.824219,32.783203 h -0.002 v -0.002 c -0.799562,-1.144973 -1.439642,-2.399956 -1.900391,-3.724609 v -0.002 C 15.491103,27.832058 15.261143,26.547996 15.248047,25.25 v -0.0039 -7.517578 c 1.545297,-0.124538 3.075759,-0.415132 4.509765,-1.007813 l 0.0059,-0.002 c 0.94994,-0.380366 1.859339,-0.841828 2.726562,-1.376953 0.568073,-0.3478 1.110108,-0.725571 1.646485,-1.117188 0.684202,0.388742 1.371933,0.766045 2.078125,1.119141 0.955152,0.484189 1.941523,0.913164 2.939453,1.294922 h 0.002 c 0.898895,0.337931 1.813391,0.61551 2.753906,0.832031 0.274805,0.06307 0.55904,0.110674 0.841797,0.160156 v 3 c 0,0.999628 0.819967,1.822266 1.820313,1.822266 1.000344,0 1.822265,-0.822638 1.822265,-1.822266 v -4.625 c 0,-0.467721 -0.179534,-0.917081 -0.5,-1.255859 l -0.002,-0.002 -0.0039,-0.002 c -0.326938,-0.336019 -0.765246,-0.533416 -1.226563,-0.560547 h -0.0059 -0.0039 c -0.648198,-0.02517 -1.29125,-0.114744 -1.919922,-0.265625 h -0.002 l -0.0039,-0.002 c -0.774181,-0.172751 -1.53197,-0.402907 -2.277343,-0.685547 h -0.002 C 29.55951,12.895394 28.696291,12.512524 27.845703,12.083984 v -0.002 C 26.578525,11.448442 25.338007,10.751324 24.144531,9.9882813 Z m 0.08594,1.2187499 c 1.132834,0.710051 2.294249,1.378512 3.486328,1.97461 0.880148,0.443432 1.775047,0.841367 2.697266,1.191406 0.784576,0.297598 1.584696,0.540868 2.40625,0.724609 6.28e-4,1.51e-4 0.0013,-1.51e-4 0.002,0 0.002,4.51e-4 0.0038,0.0015 0.0059,0.002 0.690412,0.165156 1.395117,0.261477 2.105469,0.289063 h -0.0098 c 0.212084,0.01247 0.417662,0.107571 0.566406,0.259765 0.139506,0.149916 0.224609,0.358295 0.224609,0.5625 v 4.625 c 0,0.458075 -0.363587,0.822266 -0.822265,0.822266 -0.45868,0 -0.820313,-0.364191 -0.820313,-0.822266 V 16.78125 l -0.429687,-0.06055 c -0.400164,-0.05717 -0.795698,-0.134688 -1.1875,-0.224609 -0.895259,-0.206103 -1.765381,-0.470708 -2.623047,-0.792969 -0.970423,-0.371235 -1.92688,-0.787034 -2.847657,-1.253906 h -0.002 c -0.784003,-0.392002 -1.548665,-0.804392 -2.30664,-1.242188 l -0.285157,-0.164062 -0.263671,0.197265 c -0.595869,0.446902 -1.203925,0.859904 -1.837891,1.248047 l -0.002,0.002 c -0.822216,0.507461 -1.682416,0.94367 -2.580078,1.302735 h -0.002 l -0.0039,0.002 c -1.479522,0.612216 -3.05483,0.9625 -4.65625,1.039062 l -0.476562,0.02344 v 8.394531 0.0039 c 0.01376,1.409925 0.262994,2.806012 0.730469,4.132813 0.490723,1.410095 1.171528,2.744909 2.023437,3.964844 0.844992,1.226155 1.854352,2.329291 3.005859,3.283203 1.073389,0.9076 2.295687,1.628507 3.607422,2.136718 l 0.0059,0.002 0.365234,0.132812 0.1875,-0.08984 c 0.273591,-0.129595 0.534975,-0.278067 0.779297,-0.43164 0.458629,-0.287499 0.904691,-0.60179 1.326172,-0.947266 v -0.002 c 0.949345,-0.779819 1.824881,-1.652751 2.605469,-2.609375 l 0.002,-0.0039 c 0.842903,-1.011875 1.597182,-2.096505 2.257812,-3.242188 l 0.002,-0.002 c 0.644866,-1.100024 1.173482,-2.26756 1.574219,-3.476562 l 0.410156,-1.236329 c 0.144847,-0.436621 0.602613,-0.666274 1.039063,-0.521484 h 0.002 c 0.435983,0.144219 0.666244,0.604656 0.521484,1.041016 l -0.416015,1.25 c -0.444683,1.311986 -1.014755,2.572529 -1.708985,3.761718 l -0.002,0.002 v 0.002 c -0.699047,1.223332 -1.508428,2.389678 -2.408203,3.470703 h -0.002 v 0.002 c -0.8526,1.033454 -1.801452,1.986765 -2.837891,2.830078 v 0.002 l -0.002,0.002 c -0.471813,0.388927 -0.968978,0.744902 -1.492187,1.070313 l -0.002,0.002 h -0.002 c -0.475273,0.300173 -0.982617,0.557325 -1.511718,0.771484 l -0.002,0.002 h -0.002 c -0.186799,0.07716 -0.39812,0.08049 -0.58789,0.0078 h -0.002 l -0.703125,-0.261719 c -1.473476,-0.574306 -2.847874,-1.384856 -4.0625,-2.402344 l -0.002,-0.002 C 17.687644,36.848942 16.582151,35.634858 15.65625,34.291016 v -0.002 l -0.002,-0.002 c -0.938192,-1.343027 -1.684343,-2.807943 -2.224609,-4.351562 v -0.002 c -0.529866,-1.500221 -0.811031,-3.076246 -0.824219,-4.664063 v -0.0039 -0.0078 -7.970703 c 0,-0.623986 0.201967,-1.170461 0.496094,-1.539062 0.294126,-0.368602 0.655121,-0.556411 1.050781,-0.544922 l 0.0098,0.002 0.0098,-0.002 c 1.577284,-0.01378 3.13468,-0.328966 4.59375,-0.927734 v -0.002 c 0.80992,-0.333496 1.592191,-0.727016 2.341797,-1.183594 0.99948,-0.607047 1.921953,-1.325871 2.802734,-2.087891 z"
     id="path9" />
  <linearGradient
     id="_lgradient_52"
     x1="0.5227272727272725"
     y1="0.9482758620689656"
     x2="0.48863636363636276"
     y2="-0.23275862068965492"
     gradientTransform="matrix(7.2686941,0,0,19.162921,20.365653,14.693489)"
     gradientUnits="userSpaceOnUse">
    <stop
       offset="0%"
       stop-opacity="1"
       style="stop-color:rgb(255,224,49)"
       id="stop11" />
    <stop
       offset="100%"
       stop-opacity="1"
       style="stop-color:rgb(250,0,117)"
       id="stop13" />
  </linearGradient>
  <path
     style="color:#000000;fill:url(#linearGradient985);-inkscape-stroke:none"
     d="m 23.990234,15.128906 -0.388672,0.486328 -2.099609,2.626953 1.025391,11.861329 0.15039,0.185546 -2.210937,-0.384765 -0.154297,0.36914 -0.488281,1.179688 0.65039,1.556641 2.394532,-0.423829 -0.421875,2.398438 1.55664,0.648437 1.548828,-0.642578 -0.419922,-2.402343 2.392579,0.421875 0.65039,-1.556641 -0.642578,-1.548828 -0.394531,0.06836 -1.816406,0.316406 0.142578,-0.175781 1.033203,-11.86914 z m 0.0039,1.597656 1.472656,1.830079 L 24.496094,29.720703 24,30.332031 23.496094,29.712891 22.533203,18.552734 Z m -2.91211,14.298829 1.533203,0.267578 0.113282,0.162109 -0.113282,0.160156 -1.527343,0.269532 -0.181641,-0.433594 z m 5.835938,0 0.175781,0.425781 -0.181641,0.433594 -1.527343,-0.269532 -0.113282,-0.160156 0.113282,-0.162109 z m -2.916016,1.701171 0.160156,0.113282 0.267578,1.533203 -0.425781,0.175781 -0.433594,-0.179687 0.269532,-1.527344 z"
     id="path16" />
</svg>
