<?xml version="1.0" encoding="UTF-8" standalone="no"?>
<!-- Generator: Gravit.io -->

<svg
   style="isolation:isolate"
   viewBox="0 0 48 48"
   width="48pt"
   height="48pt"
   version="1.1"
   id="svg16"
   sodipodi:docname="homebank.svg"
   inkscape:version="1.1.2 (0a00cf5339, 2022-02-04)"
   xmlns:inkscape="http://www.inkscape.org/namespaces/inkscape"
   xmlns:sodipodi="http://sodipodi.sourceforge.net/DTD/sodipodi-0.dtd"
   xmlns:xlink="http://www.w3.org/1999/xlink"
   xmlns="http://www.w3.org/2000/svg"
   xmlns:svg="http://www.w3.org/2000/svg">
  <defs
     id="defs20">
    <linearGradient
       inkscape:collect="always"
       xlink:href="#_lgradient_71"
       id="linearGradient872"
       x1="-12.025727"
       y1="6.1170783"
       x2="-0.085100174"
       y2="6.1170783"
       gradientUnits="userSpaceOnUse"
       gradientTransform="matrix(3.8358211,0,0,3.8371386,-0.00544341,-0.00268054)" />
    <linearGradient
       id="_lgradient_1"
       x1="0.18336116"
       y1="0.24917752"
       x2="0.9027437"
       y2="0.90347725"
       gradientTransform="matrix(24.617266,0,0,24.816118,10.841288,10.089605)"
       gradientUnits="userSpaceOnUse">
      <stop
         offset="2.608695652173913%"
         stop-opacity="1"
         style="stop-color:rgb(179,255,171)"
         id="stop2-3" />
      <stop
         offset="98.69565217391305%"
         stop-opacity="1"
         style="stop-color:rgb(18,255,247)"
         id="stop4-6" />
    </linearGradient>
    <linearGradient
       inkscape:collect="always"
       xlink:href="#_lgradient_71"
       id="linearGradient15"
       x1="-9.6850061"
       y1="45.161198"
       x2="11.98815"
       y2="21.735205"
       gradientUnits="userSpaceOnUse"
       gradientTransform="matrix(1.1147442,0,0,1.1150348,-0.01237238,-3.3277956)" />
    <linearGradient
       inkscape:collect="always"
       xlink:href="#_lgradient_71"
       id="linearGradient957"
       x1="9.7997427"
       y1="24"
       x2="38.200214"
       y2="24"
       gradientUnits="userSpaceOnUse" />
    <linearGradient
       inkscape:collect="always"
       xlink:href="#_lgradient_70"
       id="linearGradient983"
       x1="13.710999"
       y1="24"
       x2="34.288849"
       y2="24"
       gradientUnits="userSpaceOnUse" />
  </defs>
  <sodipodi:namedview
     id="namedview18"
     pagecolor="#ffffff"
     bordercolor="#666666"
     borderopacity="1.0"
     inkscape:pageshadow="2"
     inkscape:pageopacity="0.0"
     inkscape:pagecheckerboard="0"
     inkscape:document-units="pt"
     showgrid="false"
     inkscape:zoom="7.2257474"
     inkscape:cx="32.038208"
     inkscape:cy="31.969011"
     inkscape:window-width="1600"
     inkscape:window-height="836"
     inkscape:window-x="0"
     inkscape:window-y="0"
     inkscape:window-maximized="1"
     inkscape:current-layer="svg16" />
  <linearGradient
     id="_lgradient_70"
     x1="0"
     y1="0.5"
     x2="1"
     y2="0.5"
     gradientTransform="matrix(20.578065,0,0,20.578663,13.711258,13.710669)"
     gradientUnits="userSpaceOnUse">
    <stop
       offset="0%"
       stop-opacity="1"
       style="stop-color:rgb(117,127,154)"
       id="stop2" />
    <stop
       offset="98.69565217391305%"
       stop-opacity="1"
       style="stop-color:rgb(215,221,232)"
       id="stop4" />
  </linearGradient>
  <rect
     x="-46.783188"
     y="1.2253767"
     height="45.80014"
     rx="6.1837621"
     shape-rendering="crispEdges"
     id="rect5-6-7-3"
     ry="6.8055277"
     transform="matrix(0.00524063,-0.99998627,0.99998801,0.00489691,0,0)"
     style="isolation:isolate;fill:#f9ff00;fill-opacity:0.13470298;stroke:url(#linearGradient872);stroke-width:2.0301;stroke-miterlimit:4;stroke-dasharray:none;stroke-opacity:1"
     width="45.801998" />
  <rect
     x="-15.686804"
     y="17.260084"
     height="33.345856"
     rx="6.7920032"
     shape-rendering="crispEdges"
     id="rect5-6-6-6-6"
     style="isolation:isolate;fill:#f9ff00;fill-opacity:0.13470298;stroke:url(#linearGradient15);stroke-width:1.67233;stroke-miterlimit:4;stroke-dasharray:none;stroke-opacity:1"
     ry="7.4743071"
     transform="matrix(0.72446484,-0.68931175,0.68622417,0.72739012,0,0)"
     width="33.338203" />
  <path
     style="color:#000000;fill:url(#linearGradient983);fill-rule:evenodd;-inkscape-stroke:none"
     d="m 25.617187,13.332031 c -1.388882,-0.210089 -2.817989,-0.14965 -4.205078,0.19336 -2.774265,0.685414 -5.174084,2.452562 -6.65039,4.898437 -1.476916,2.446475 -1.921708,5.391892 -1.236328,8.166016 0.686004,2.774116 2.451914,5.172119 4.898437,6.648437 2.446443,1.476896 5.391856,1.922344 8.166016,1.236328 1.146689,-0.282916 2.247849,-0.749146 3.246093,-1.396484 l 0.002,-0.002 c 0.799652,-0.512516 1.032751,-1.592785 0.519531,-2.392578 -0.515052,-0.801377 -1.594377,-1.039523 -2.396485,-0.527344 l -0.002,0.002 c -0.676794,0.436479 -1.424871,0.756615 -2.203125,0.949219 -1.884792,0.46506 -3.879497,0.163889 -5.539062,-0.837891 -0.197669,-0.119321 -0.3179,-0.322605 -0.501953,-0.458984 h 4.208984 0.417969 4.886719 v -3.820313 h 3.105468 l -8.189453,-7.992187 -7.292969,6.845703 c -0.187049,-1.603949 0.03686,-3.233496 0.878907,-4.628906 1.002138,-1.660158 2.628293,-2.855959 4.513672,-3.322266 1.88536,-0.465742 3.880884,-0.164231 5.541015,0.837891 1.660201,1.002164 2.856568,2.626535 3.322266,4.511718 v 0.002 c 0.136676,0.551729 0.205304,1.121358 0.210937,1.693359 v 0.002 c 0.01337,0.95168 0.805795,1.7249 1.757813,1.714844 0.951854,-0.01002 1.72631,-0.801912 1.71289,-1.753906 -0.0041,-0.84506 -0.114458,-1.679634 -0.314453,-2.490235 -0.686004,-2.774116 -2.451914,-5.172119 -4.898437,-6.648437 -1.222961,-0.73848 -2.570102,-1.219598 -3.958985,-1.429688 z m -0.15039,0.988282 c 1.260427,0.190655 2.484887,0.627292 3.59375,1.296875 2.21832,1.338612 3.821151,3.517068 4.443359,6.033203 0.182356,0.73911 0.281754,1.496606 0.285156,2.259765 v 0.002 0.002 c 0.0058,0.410031 -0.311289,0.735905 -0.722656,0.740235 -0.411202,0.0043 -0.742283,-0.318173 -0.748047,-0.728516 -0.0065,-0.645884 -0.08409,-1.291582 -0.240234,-1.921875 -0.529213,-2.142294 -1.889584,-3.989378 -3.777344,-5.128906 -1.887827,-1.139568 -4.154757,-1.482294 -6.296875,-0.953125 -2.142099,0.529801 -3.989352,1.889541 -5.128906,3.777344 -1.092138,1.809864 -1.401424,3.9649 -0.962891,6.027343 l -0.28125,0.263672 h 0.292969 c 4.76e-4,0.0019 -4.77e-4,0.0039 0,0.0059 0.529801,2.142099 1.887588,3.989352 3.775391,5.128906 1.887827,1.139568 4.154757,1.482294 6.296875,0.953125 0.883086,-0.218548 1.731205,-0.5814 2.501953,-1.078125 0.345865,-0.22085 0.796769,-0.123942 1.019531,0.222656 0.222603,0.345991 0.125057,0.790937 -0.220703,1.011719 l -0.002,0.002 h -0.002 c -0.901317,0.584807 -1.900164,1.010196 -2.94336,1.267578 -2.516091,0.622199 -5.189802,0.218136 -7.408203,-1.121094 -2.21832,-1.338612 -3.823104,-3.517068 -4.445312,-6.033203 -0.621639,-2.516127 -0.218116,-5.191787 1.121094,-7.410156 1.338625,-2.217772 3.517217,-3.821756 6.033203,-4.443359 1.258037,-0.311098 2.555978,-0.366437 3.816406,-0.175781 z m -1.333985,5.062499 5.746094,5.607422 h -1.65039 v 3.820313 h -3.304688 v -2.863281 h -1.582031 v 2.863281 h -3.265625 v -3.820313 h -0.5 -1.417969 z m 0,0.40625 -5.232421,4.908204 h 1.46875 v 3.820312 h 2.679687 v -2.863281 h 2.167969 v 2.863281 h 2.71875 v -3.820312 h 1.216797 l -0.876953,-0.857422 z m -0.01367,1.384766 2.816406,2.753906 v 3.589844 h -0.71875 v -2.863281 h -4.167969 v 2.863281 h -0.679687 v -3.765625 z m -7.115235,4.816406 h 2.072266 v 3.238282 c -0.95113,-0.898338 -1.70831,-1.964502 -2.072266,-3.238282 z m 14.503906,0.08789 c -0.417653,0.153132 -0.77682,0.465566 -0.974609,0.898437 l -0.002,0.002 c -0.125597,0.279714 -0.270422,0.544354 -0.4375,0.810546 -0.507505,0.80599 -0.258837,1.885 0.548828,2.390625 0.808687,0.506264 1.888052,0.255057 2.392578,-0.554687 0.245718,-0.384031 0.459318,-0.784022 0.648438,-1.191406 0.401293,-0.864452 0.0162,-1.903193 -0.84961,-2.302735 -0.432336,-0.199507 -0.908518,-0.205866 -1.326172,-0.05273 z m 0.908204,0.960937 c 0.375436,0.173251 0.532068,0.602599 0.359375,0.97461 -0.174752,0.376434 -0.365941,0.735932 -0.583985,1.076172 l -0.002,0.0039 -0.002,0.002 c -0.218937,0.351385 -0.664818,0.454722 -1.013672,0.236328 -0.349876,-0.219034 -0.452725,-0.662996 -0.234375,-1.009765 v -0.002 c 0.184919,-0.294616 0.356092,-0.599143 0.503906,-0.927734 0.168845,-0.369526 0.596082,-0.527292 0.972657,-0.353516 z"
     id="path7" />
  <linearGradient
     id="_lgradient_71"
     x1="0"
     y1="0.5"
     x2="1"
     y2="0.5"
     gradientTransform="matrix(28.400444,0,0,28.400444,9.7997691,9.799778)"
     gradientUnits="userSpaceOnUse">
    <stop
       offset="0%"
       stop-opacity="1"
       style="stop-color:rgb(247,242,6)"
       id="stop9" />
    <stop
       offset="97.82608695652173%"
       stop-opacity="1"
       style="stop-color:rgb(255,187,36)"
       id="stop11" />
  </linearGradient>
  <path
     style="color:#000000;fill:url(#linearGradient957);fill-rule:evenodd;-inkscape-stroke:none"
     d="m 24,9.2988281 c -3.579873,0 -7.0478,1.3120919 -9.732422,3.6816409 v 0.002 c -0.798402,0.706217 -0.87191,1.940243 -0.166015,2.738281 0.70674,0.797288 1.940662,0.87305 2.738281,0.166016 v 0.002 C 18.815067,14.149491 21.36483,13.181641 24,13.181641 c 2.872061,0 5.626535,1.140591 7.648437,3.169921 2.029331,2.021903 3.169922,4.776377 3.169922,7.648438 0,2.872061 -1.140591,5.626535 -3.169922,7.648437 -2.021902,2.029331 -4.776376,3.169922 -7.648437,3.169922 -2.857003,0 -5.593147,-1.125155 -7.615234,-3.138672 h -0.002 c -2.029065,-2.005644 -3.177233,-4.735611 -3.201171,-7.591796 v -0.002 c -0.0075,-1.064483 -0.888089,-1.933478 -1.953125,-1.923828 -1.06589,0.0088 -1.9360956,0.891023 -1.9296879,1.957032 0.034038,3.876547 1.5945659,7.592605 4.3476559,10.320312 2.75248,2.727104 6.476384,4.261719 10.353516,4.261719 3.89477,0 7.635832,-1.5527 10.396484,-4.304688 C 37.148472,31.635832 38.701172,27.894769 38.701172,24 c 0,-3.894769 -1.5527,-7.635832 -4.304688,-10.396484 C 31.635832,10.851528 27.89477,9.2988281 24,9.2988281 Z m 0,0.9999999 c 3.629248,0 7.11561,1.445954 9.689453,4.011719 2.565765,2.573842 4.011719,6.060206 4.011719,9.689453 0,3.629247 -1.445954,7.115611 -4.011719,9.689453 C 31.11561,36.255218 27.629248,37.701172 24,37.701172 c -3.613403,0 -7.085118,-1.431033 -9.650391,-3.972656 -2.564663,-2.541018 -4.019049,-6.003199 -4.050781,-9.617188 -0.0021,-0.523498 0.413624,-0.944886 0.9375,-0.949219 0.523547,-0.0047 0.942159,0.40778 0.945313,0.931641 0.02558,3.118826 1.279339,6.102725 3.496093,8.294922 3.92e-4,3.9e-4 0.0016,-3.9e-4 0.002,0 3.9e-4,3.86e-4 -3.91e-4,0.0016 0,0.002 2.209683,2.199285 5.201592,3.427734 8.320312,3.427734 3.136869,0 6.145411,-1.244713 8.355469,-3.46289 2.218177,-2.210058 3.46289,-5.2186 3.46289,-8.355469 0,-3.136869 -1.244713,-6.145411 -3.46289,-8.355469 -2.210058,-2.218177 -5.2186,-3.46289 -8.355469,-3.46289 -2.879893,0 -5.664781,1.055416 -7.822266,2.955078 v 0.002 c -0.392209,0.347667 -0.980164,0.312463 -1.328125,-0.08008 -0.34761,-0.392985 -0.312542,-0.980837 0.08008,-1.328125 C 17.43128,11.522468 20.664522,10.298828 24,10.298828 Z m -11.898437,5.955078 c -0.475812,0.149864 -0.894522,0.480478 -1.140625,0.955078 -0.264547,0.511745 -0.501667,1.044741 -0.712891,1.576172 v 0.0039 l -0.002,0.0039 c -0.3772869,0.998086 0.132196,2.128659 1.130859,2.505859 0.997609,0.377106 2.126059,-0.1317 2.503906,-1.128906 0.15023,-0.394497 0.322563,-0.789093 0.517579,-1.164063 0.499087,-0.9437 0.131803,-2.127502 -0.814454,-2.623047 -0.473254,-0.247838 -1.00661,-0.27877 -1.482421,-0.128906 z m 0.298828,0.947266 c 0.228966,-0.07211 0.485283,-0.05391 0.71875,0.06836 0.467188,0.244661 0.642384,0.804572 0.396484,1.269531 l -0.002,0.002 C 13.297813,18.955791 13.10808,19.38508 12.945313,19.8125 v 0.002 c -0.185915,0.491826 -0.722956,0.734767 -1.214844,0.548828 -0.492509,-0.186023 -0.734767,-0.724908 -0.548828,-1.216797 0.20027,-0.503236 0.423538,-1.003577 0.667968,-1.476562 0.121608,-0.234514 0.321815,-0.396642 0.550782,-0.46875 z"
     id="path14" />
</svg>
