<?xml version="1.0" encoding="UTF-8" standalone="no"?>
<!-- Generator: Gravit.io -->

<svg
   style="isolation:isolate"
   viewBox="0 0 48 48"
   width="48pt"
   height="48pt"
   version="1.1"
   id="svg9"
   sodipodi:docname="im.srain.Srain.svg"
   inkscape:version="1.1.2 (0a00cf5339, 2022-02-04)"
   xmlns:inkscape="http://www.inkscape.org/namespaces/inkscape"
   xmlns:sodipodi="http://sodipodi.sourceforge.net/DTD/sodipodi-0.dtd"
   xmlns:xlink="http://www.w3.org/1999/xlink"
   xmlns="http://www.w3.org/2000/svg"
   xmlns:svg="http://www.w3.org/2000/svg">
  <defs
     id="defs13">
    <linearGradient
       inkscape:collect="always"
       xlink:href="#_lgradient_8"
       id="linearGradient872"
       x1="-12.025727"
       y1="6.1170783"
       x2="-0.085100174"
       y2="6.1170783"
       gradientUnits="userSpaceOnUse"
       gradientTransform="matrix(3.8358211,0,0,3.8371386,-0.00544341,-0.00268054)" />
    <linearGradient
       id="_lgradient_1"
       x1="0.18336116"
       y1="0.24917752"
       x2="0.9027437"
       y2="0.90347725"
       gradientTransform="matrix(24.617266,0,0,24.816118,10.841288,10.089605)"
       gradientUnits="userSpaceOnUse">
      <stop
         offset="2.608695652173913%"
         stop-opacity="1"
         style="stop-color:rgb(179,255,171)"
         id="stop2-3" />
      <stop
         offset="98.69565217391305%"
         stop-opacity="1"
         style="stop-color:rgb(18,255,247)"
         id="stop4-6" />
    </linearGradient>
    <linearGradient
       inkscape:collect="always"
       xlink:href="#_lgradient_8"
       id="linearGradient15"
       x1="-9.6850061"
       y1="45.161198"
       x2="11.98815"
       y2="21.735205"
       gradientUnits="userSpaceOnUse"
       gradientTransform="matrix(1.1147442,0,0,1.1150348,-0.01237238,-3.3277956)" />
    <linearGradient
       inkscape:collect="always"
       xlink:href="#_lgradient_8"
       id="linearGradient878"
       x1="11.043282"
       y1="24.937222"
       x2="34.9702"
       y2="24.937222"
       gradientUnits="userSpaceOnUse" />
  </defs>
  <sodipodi:namedview
     id="namedview11"
     pagecolor="#ffffff"
     bordercolor="#666666"
     borderopacity="1.0"
     inkscape:pageshadow="2"
     inkscape:pageopacity="0.0"
     inkscape:pagecheckerboard="0"
     inkscape:document-units="pt"
     showgrid="false"
     inkscape:zoom="3.6128737"
     inkscape:cx="31.969011"
     inkscape:cy="31.969011"
     inkscape:window-width="1056"
     inkscape:window-height="545"
     inkscape:window-x="285"
     inkscape:window-y="159"
     inkscape:window-maximized="0"
     inkscape:current-layer="svg9" />
  <linearGradient
     id="_lgradient_8"
     x1="0.06793478260868135"
     y1="0.4972826088348461"
     x2="1.0883121910560505"
     y2="0.5782649386884957"
     gradientTransform="matrix(23.926899,0,0,23.926899,11.043301,12.973758)"
     gradientUnits="userSpaceOnUse">
    <stop
       offset="0%"
       stop-opacity="1"
       style="stop-color:rgb(0,196,255)"
       id="stop2" />
    <stop
       offset="83.88839793817618%"
       stop-opacity="1"
       style="stop-color:rgb(0,114,255)"
       id="stop4" />
  </linearGradient>
  <rect
     x="-46.783188"
     y="1.2253767"
     height="45.80014"
     rx="6.1837621"
     shape-rendering="crispEdges"
     id="rect5-6-7-3"
     ry="6.8055277"
     transform="matrix(0.00524063,-0.99998627,0.99998801,0.00489691,0,0)"
     style="isolation:isolate;fill:#00b5ff;fill-opacity:0.13470298;stroke:url(#linearGradient872);stroke-width:2.0301;stroke-miterlimit:4;stroke-dasharray:none;stroke-opacity:1"
     width="45.801998" />
  <rect
     x="-15.686804"
     y="17.260084"
     height="33.345856"
     rx="6.7920032"
     shape-rendering="crispEdges"
     id="rect5-6-6-6-6"
     style="isolation:isolate;fill:#00b5ff;fill-opacity:0.13470298;stroke:url(#linearGradient15);stroke-width:1.67233;stroke-miterlimit:4;stroke-dasharray:none;stroke-opacity:1"
     ry="7.4743071"
     transform="matrix(0.72446484,-0.68931175,0.68622417,0.72739012,0,0)"
     width="33.338203" />
  <path
     style="color:#000000;fill:url(#linearGradient878);fill-rule:evenodd;-inkscape-stroke:none"
     d="m 21.337891,12.474609 v 0.185547 c -2.710719,0.365272 -5.246513,1.546303 -7.179688,3.490235 -2.317195,2.333995 -3.620652,5.495267 -3.615234,8.787109 0,3.302933 1.314232,6.475372 3.648437,8.814453 2.339081,2.334204 5.51152,3.648438 8.814453,3.648438 3.183914,0.0054 6.255039,-1.21171 8.572266,-3.404297 2.125531,-2.010168 3.433708,-4.723098 3.767578,-7.625 l 0.125,-0.111328 V 16.236328 c 0,-0.997098 -0.395607,-1.956306 -1.105469,-2.660156 -0.703567,-0.707888 -1.662573,-1.101563 -2.658203,-1.101563 z m 1,1 h 9.36914 c 0.732919,0 1.436831,0.289862 1.951172,0.808594 l 0.002,0.002 c 0.518732,0.514339 0.810547,1.218256 0.810547,1.951172 V 25.8125 l -0.03516,0.0293 -0.01758,0.195312 c -0.260107,2.755535 -1.516677,5.330884 -3.527344,7.232422 -2.13109,2.016463 -4.95497,3.135843 -7.882813,3.13086 h -0.002 c -3.037688,0 -5.955532,-1.208066 -8.107421,-3.355469 -2.147405,-2.15189 -3.355469,-5.069733 -3.355469,-8.107422 v -0.002 c -0.005,-3.026933 1.193097,-5.933506 3.324219,-8.080078 1.881268,-1.891737 4.360382,-3.069064 7.017578,-3.324219 l 0.453125,-0.04297 z m 0.58789,1.173829 c -2.713655,0.02295 -5.313584,1.108743 -7.228515,3.035156 -1.909429,1.92638 -2.984509,4.538176 -2.978516,7.253906 0,2.72673 1.086144,5.343804 3.011719,7.275391 v 0.002 c 1.931586,1.925576 4.548661,3.009765 7.27539,3.009765 2.629673,0.006 5.16644,-0.999722 7.076172,-2.80664 h 0.002 c 1.897554,-1.800243 3.039195,-4.257662 3.19336,-6.869141 l 0.002,-0.01563 v -0.01367 c 0,-0.01344 0.0021,-0.02773 0,-0.01953 l 0.01563,-0.06055 v -9.203125 c 0,-0.417193 -0.167873,-0.820287 -0.470703,-1.117187 -0.296902,-0.302835 -0.699996,-0.470703 -1.117188,-0.470703 h -8.716797 -0.0625 z m 0.0059,1 h 0.05859 8.716797 c 0.156395,0 0.304058,0.06254 0.408203,0.169921 l 0.0059,0.0059 0.0039,0.0039 c 0.107385,0.104148 0.169922,0.251809 0.169922,0.408203 v 9.140625 l 0.01563,-0.121094 c -0.02391,0.09454 -0.03125,0.179328 -0.03125,0.263672 v -0.0293 c -0.139171,2.357494 -1.172143,4.575812 -2.884766,6.201172 -1.722992,1.630231 -4.013593,2.538632 -6.386719,2.533203 h -0.002 c -2.461239,0 -4.823531,-0.97935 -6.568359,-2.71875 -1.73867,-1.744716 -2.71875,-4.10767 -2.71875,-6.568359 v -0.002 c -0.0054,-2.450395 0.964204,-4.808281 2.6875,-6.546875 1.727281,-1.737638 4.074329,-2.718487 6.525391,-2.740234 z m -1.382813,2.546874 -0.5,3.121094 h -1.617187 l -0.408204,2.560547 h 1.615235 l -0.25586,1.599609 h -1.615234 l -0.410156,2.560547 h 1.617187 l -0.5,3.121094 h 2.589844 l 0.5,-3.121094 h 0.0098 l -0.5,3.121094 h 2.591797 l 0.5,-3.121094 h 1.416015 l 0.410156,-2.560547 h -1.417968 l 0.255859,-1.599609 h 1.417969 l 0.408203,-2.560547 h -1.416016 l 0.5,-3.121094 h -2.591797 l -0.5,3.121094 h -0.0098 l 0.5,-3.121094 z m 0.851563,1 h 0.566406 l -0.5,3.121094 h 2.035156 l 0.5,-3.121094 h 0.566406 l -0.5,3.121094 h 1.416016 l -0.08984,0.560547 h -1.416015 l -0.576172,3.599609 h 0.585937 0.830078 l -0.08984,0.560547 H 24.3125 l -0.5,3.121094 h -0.566406 l 0.5,-3.121094 h -2.035157 l -0.498046,3.121094 h -0.566407 l 0.5,-3.121094 h -1.617187 l 0.08984,-0.560547 h 1.617187 L 21.8125,22.876953 h -1.617188 l 0.08984,-0.560547 h 1.615235 z m -0.02344,3.681641 -0.576172,3.599609 h 2.035156 l 0.06836,-0.419921 0.507812,-3.179688 z m 0.853516,1 h 0.0098 l -0.255859,1.599609 h -0.0098 z"
     id="path7" />
</svg>
