<?xml version="1.0" encoding="UTF-8" standalone="no"?>
<!-- Generator: Gravit.io -->

<svg
   style="isolation:isolate"
   viewBox="0 0 48 48"
   width="48pt"
   height="48pt"
   version="1.1"
   id="svg11"
   sodipodi:docname="inkscape.svg"
   inkscape:version="1.1.2 (0a00cf5339, 2022-02-04)"
   xmlns:inkscape="http://www.inkscape.org/namespaces/inkscape"
   xmlns:sodipodi="http://sodipodi.sourceforge.net/DTD/sodipodi-0.dtd"
   xmlns:xlink="http://www.w3.org/1999/xlink"
   xmlns="http://www.w3.org/2000/svg"
   xmlns:svg="http://www.w3.org/2000/svg">
  <defs
     id="defs15">
    <linearGradient
       inkscape:collect="always"
       xlink:href="#_lgradient_14"
       id="linearGradient872"
       x1="-12.025727"
       y1="6.1170783"
       x2="-0.085100174"
       y2="6.1170783"
       gradientUnits="userSpaceOnUse"
       gradientTransform="matrix(3.8358211,0,0,3.8371386,-0.00544341,-0.00268054)" />
    <linearGradient
       id="_lgradient_1"
       x1="0.18336116"
       y1="0.24917752"
       x2="0.9027437"
       y2="0.90347725"
       gradientTransform="matrix(24.617266,0,0,24.816118,10.841288,10.089605)"
       gradientUnits="userSpaceOnUse">
      <stop
         offset="2.608695652173913%"
         stop-opacity="1"
         style="stop-color:rgb(179,255,171)"
         id="stop2-3" />
      <stop
         offset="98.69565217391305%"
         stop-opacity="1"
         style="stop-color:rgb(18,255,247)"
         id="stop4-6" />
    </linearGradient>
    <linearGradient
       inkscape:collect="always"
       xlink:href="#_lgradient_14"
       id="linearGradient15"
       x1="-9.6850061"
       y1="45.161198"
       x2="11.98815"
       y2="21.735205"
       gradientUnits="userSpaceOnUse"
       gradientTransform="matrix(1.1147442,0,0,1.1150348,-0.01237238,-3.3277956)" />
    <linearGradient
       inkscape:collect="always"
       xlink:href="#_lgradient_14"
       id="linearGradient952"
       x1="8.9014053"
       y1="23.999811"
       x2="39.098457"
       y2="23.999811"
       gradientUnits="userSpaceOnUse" />
  </defs>
  <sodipodi:namedview
     id="namedview13"
     pagecolor="#ffffff"
     bordercolor="#666666"
     borderopacity="1.0"
     inkscape:pageshadow="2"
     inkscape:pageopacity="0.0"
     inkscape:pagecheckerboard="0"
     inkscape:document-units="pt"
     showgrid="false"
     inkscape:zoom="3.6128737"
     inkscape:cx="31.969011"
     inkscape:cy="31.969011"
     inkscape:window-width="1056"
     inkscape:window-height="545"
     inkscape:window-x="333"
     inkscape:window-y="90"
     inkscape:window-maximized="0"
     inkscape:current-layer="svg11" />
  <linearGradient
     id="_lgradient_14"
     x1="0"
     y1="0.5"
     x2="1"
     y2="0.5"
     gradientTransform="matrix(30.196722,0,0,30.766422,8.9016152,8.6167235)"
     gradientUnits="userSpaceOnUse">
    <stop
       offset="0%"
       stop-opacity="1"
       style="stop-color:rgb(248,171,149)"
       id="stop2" />
    <stop
       offset="48.75%"
       stop-opacity="1"
       style="stop-color:rgb(241,125,173)"
       id="stop4" />
    <stop
       offset="98.33333333333333%"
       stop-opacity="1"
       style="stop-color:rgb(238,115,200)"
       id="stop6" />
  </linearGradient>
  <rect
     x="-46.783188"
     y="1.2253767"
     height="45.80014"
     rx="6.1837621"
     shape-rendering="crispEdges"
     id="rect5-6-7-3"
     ry="6.8055277"
     transform="matrix(0.00524063,-0.99998627,0.99998801,0.00489691,0,0)"
     style="isolation:isolate;fill:#ff00e7;fill-opacity:0.13470298;stroke:url(#linearGradient872);stroke-width:2.0301;stroke-miterlimit:4;stroke-dasharray:none;stroke-opacity:1"
     width="45.801998" />
  <rect
     x="-15.686804"
     y="17.260084"
     height="33.345856"
     rx="6.7920032"
     shape-rendering="crispEdges"
     id="rect5-6-6-6-6"
     style="isolation:isolate;fill:#ff00e7;fill-opacity:0.13470298;stroke:url(#linearGradient15);stroke-width:1.67233;stroke-miterlimit:4;stroke-dasharray:none;stroke-opacity:1"
     ry="7.4743071"
     transform="matrix(0.72446484,-0.68931175,0.68622417,0.72739012,0,0)"
     width="33.338203" />
  <path
     style="color:#000000;fill:url(#linearGradient952);fill-rule:evenodd;-inkscape-stroke:none"
     d="m 24.039062,8.1191406 c -0.641224,-7.201e-4 -1.2839,0.2395386 -1.771484,0.7226563 L 9.0898438,21.894531 C 8.11669,22.858772 8.2202806,24.432499 9.3125,25.259766 l 9.917969,7.511718 0.0059,0.0039 c 0.818632,0.583208 1.968884,0.391966 2.552734,-0.425782 0.583805,-0.817684 0.389252,-1.967987 -0.429687,-2.550781 l -8.576172,-6.207031 11.257813,-11.322266 11.126953,11.126953 -8.457032,6.402344 c -0.819358,0.583092 -1.010852,1.733823 -0.425781,2.550781 v 0.002 c 0.585276,0.816003 1.73487,1.008284 2.550781,0.423829 l 0.0059,-0.0039 9.847656,-7.507812 c 1.089305,-0.830757 1.193791,-2.404823 0.222656,-3.371094 L 25.806641,8.8457031 C 25.320229,8.3613215 24.680287,8.1198607 24.039062,8.1191406 Z m -0.002,0.9960938 c 0.384919,4.208e-4 0.769972,0.1462003 1.064453,0.4394531 L 38.207031,22.601562 c 0.590652,0.587694 0.539769,1.361693 -0.123047,1.867188 l -9.830078,7.494141 c -6.15e-4,4.4e-4 -0.0013,-4.39e-4 -0.002,0 -0.374161,0.266543 -0.883513,0.182218 -1.154297,-0.195313 -0.27013,-0.377194 -0.185346,-0.884793 0.19336,-1.154297 l 0.0059,-0.0039 L 36.6875,23.5 24.037109,10.851563 11.25,23.716797 l 9.529297,6.894531 v 0.002 c 0.379124,0.269802 0.466054,0.779782 0.197265,1.15625 -0.268744,0.376407 -0.782027,0.460793 -1.160156,0.191406 L 9.9160156,24.462891 C 9.2509003,23.95912 9.2004261,23.192584 9.7929688,22.605469 L 22.972656,9.5527344 c 0.295265,-0.2925603 0.679534,-0.4379208 1.064453,-0.4375 z m -0.09375,6.9335936 c -0.935196,0.01576 -1.830994,0.377521 -2.507812,1.023438 l -2.841797,2.689453 h -0.002 c -0.154584,0.148274 -0.311891,0.29371 -0.478516,0.447265 -0.185975,0.172201 -0.370114,0.345479 -0.554687,0.517578 -0.0084,0.0078 -0.01699,0.0156 -0.02539,0.02344 h 0.0059 c -0.722785,0.596317 -1.188569,1.459358 -1.25,2.404297 v 0.002 c -0.0551,0.961214 0.306526,1.897246 0.994141,2.570312 l 0.002,0.002 c 0.292524,0.283501 0.631046,0.514042 1,0.683593 0.355099,0.173148 0.728849,0.289902 1.095703,0.369141 0.503014,0.114671 1.01585,0.172733 1.521485,0.179687 0.289526,0.0075 0.575013,-0.02423 0.853515,-0.08203 6.24e-4,-1.11e-4 0.0013,1.12e-4 0.002,0 0.04682,-0.0084 0.09089,-0.02495 0.136719,-0.03711 0.30216,0.114238 0.61007,0.218142 0.935547,0.25 0.0988,0.0097 0.164851,0.01031 0.199219,0.01367 l 0.02539,0.002 h 0.05664 c 0.07052,0 0.162589,-2.59e-4 0.263672,-0.0078 0.743757,-0.04488 1.461572,-0.280087 2.091797,-0.685547 l 0.0039,-0.002 0.002,-0.002 c 0.1049,-0.06981 0.224383,-0.1547 0.339844,-0.234375 0.585918,0.364945 1.223462,0.66297 1.921875,0.689453 0.120125,0.0081 0.239953,0.01031 0.363281,0.002 l 0.002,-0.002 0.117188,-0.0078 0.02148,-0.0039 c -0.01091,0.0018 0.03967,-0.0023 0.0957,-0.0098 0.330643,-0.03756 0.648455,-0.111233 0.951172,-0.205078 h 0.002 c 0.395551,-0.124511 0.764187,-0.317575 1.09375,-0.5625 l 0.002,-0.002 c 0.875878,-0.657484 1.377006,-1.704423 1.330079,-2.796875 v -0.002 -0.002 c -0.04731,-0.934865 -0.474561,-1.805874 -1.173829,-2.419921 l -1.144531,-1.085938 -2.847656,-2.695312 -0.002,-0.002 c -0.6769,-0.644324 -1.577527,-1.013961 -2.517578,-1.021484 h -0.002 -0.04102 -0.0059 -0.03125 z m 0.01563,1 h 0.01953 0.0059 0.03516 c 0.68339,0.0055 1.341074,0.276302 1.835938,0.748047 h 0.002 l 2.849609,2.695312 1.164063,1.105469 0.0078,0.0059 c 0.498339,0.437605 0.801963,1.057317 0.835938,1.71875 3.1e-5,6.08e-4 -3.1e-5,0.0013 0,0.002 0.03122,0.757361 -0.320445,1.490907 -0.933594,1.951172 -0.243484,0.180597 -0.512098,0.319176 -0.794922,0.408203 -0.255927,0.07924 -0.511543,0.139108 -0.765625,0.167968 h -0.01172 l -0.01172,0.002 c 0.0083,-0.0014 -0.04223,0.0045 -0.07422,0.0078 l -0.09375,0.0078 c -0.08432,0.0056 -0.158199,0.0055 -0.234375,0 l -0.0098,-0.002 h -0.0078 c -0.612529,-0.02223 -1.208688,-0.23944 -1.701172,-0.611328 l 0.06055,0.05469 c -0.07881,-0.08274 -0.100478,-0.09262 -0.04883,-0.04102 l -0.01172,-0.01367 -0.296875,-0.296875 -0.347656,0.265625 c -0.149549,0.114691 -0.324421,0.228939 -0.50586,0.34961 -0.488316,0.314161 -1.037084,0.492695 -1.611328,0.527343 h -0.0039 -0.0059 c -0.05364,0.0043 -0.119702,0.0059 -0.193359,0.0059 -0.0064,-5.61e-4 -0.0076,4.84e-4 -0.01367,0 -0.07603,-0.006 -0.140776,-0.0089 -0.169922,-0.01172 -0.280952,-0.0275 -0.562867,-0.105033 -0.839843,-0.226562 l -0.183594,-0.08008 -0.189453,0.06836 c -0.04739,0.01735 -0.09244,0.02955 -0.134766,0.03711 l -0.0078,0.002 -0.0078,0.002 c -0.219929,0.04648 -0.432353,0.06841 -0.640625,0.0625 h -0.0039 -0.0039 c -0.439519,-0.006 -0.88535,-0.05647 -1.314454,-0.154296 h -0.002 l -0.0039,-0.002 c -0.308505,-0.06632 -0.609891,-0.162219 -0.876953,-0.292968 l -0.0059,-0.002 -0.0059,-0.0039 c -0.26733,-0.122208 -0.51171,-0.289761 -0.724609,-0.496093 -0.481721,-0.472289 -0.733455,-1.118118 -0.695313,-1.792969 0.04386,-0.666798 0.37304,-1.281674 0.898438,-1.708985 l 0.0293,-0.02734 c 0.192592,-0.179579 0.383782,-0.358965 0.576172,-0.53711 0.164778,-0.151854 0.326477,-0.30004 0.490234,-0.457031 l 0.0039,-0.002 2.839844,-2.6875 0.002,-0.002 c 0.493869,-0.47132 1.142866,-0.734479 1.832031,-0.746094 z m 0.02734,1.662109 C 23.713636,18.711454 23.465115,18.821087 23.275391,19 l -2.851563,2.697266 c -0.326194,0.30839 -0.757427,0.694747 -1.089844,1.011718 l -0.002,0.002 c -0.03187,0.03057 -0.06206,0.05944 -0.0918,0.08789 l 0.05078,-0.04297 c -0.136151,0.09903 -0.281399,0.230275 -0.332032,0.470703 -0.05063,0.240429 0.0778,0.49227 0.199219,0.607422 0.242836,0.230306 0.472005,0.270734 0.720703,0.330078 0.248698,0.05935 0.508186,0.09515 0.734375,0.115235 0.113095,0.01004 0.216851,0.01615 0.308594,0.01758 0.09174,0.0014 0.152102,0.0061 0.275391,-0.01953 l 0.01172,-0.002 0.01172,-0.0039 c 0.292747,-0.0756 0.524647,-0.298403 0.634766,-0.507812 0.08329,-0.158396 0.103196,-0.289641 0.128906,-0.417969 0.01175,0.02623 0.01714,0.03053 0.0293,0.05859 0.07732,0.178462 0.161804,0.38966 0.320312,0.597656 0.158509,0.207996 0.442901,0.422406 0.78711,0.441406 0.718697,0.03944 1.180838,-0.445757 1.648437,-0.800781 0.4676,-0.355023 0.904007,-0.613248 1.189453,-0.603516 0.118514,0.004 0.353037,0.180873 0.666016,0.488282 0.156489,0.153704 0.327832,0.32536 0.552734,0.466797 0.224903,0.141436 0.529699,0.251329 0.859375,0.205078 h 0.002 c 0.119132,-0.01702 0.354914,-0.03081 0.626954,-0.177735 0.136019,-0.07346 0.341553,-0.224715 0.382812,-0.513672 0.04126,-0.288956 -0.11684,-0.511706 -0.269531,-0.65625 l -1.21875,-1.154296 -2.84961,-2.695313 C 24.516935,18.817646 24.26055,18.708834 23.986328,18.710937 Z m 0.002,1 h 0.0039 0.002 c -0.0025,2.4e-5 0.01321,0.0022 0.02734,0.01563 l 2.851563,2.697266 0.351562,0.333984 c -0.290281,-0.292605 -0.630146,-0.698333 -1.232422,-0.71875 -0.765956,-0.02612 -1.344052,0.439111 -1.828125,0.806641 -0.484072,0.367531 -0.911094,0.603845 -0.988281,0.599609 -0.01593,-8.79e-4 0.0068,0.01902 -0.04492,-0.04883 -0.05171,-0.06785 -0.125637,-0.21433 -0.201172,-0.388672 -0.07553,-0.174341 -0.151244,-0.374174 -0.302734,-0.576171 -0.151489,-0.201998 -0.470397,-0.419552 -0.8125,-0.386719 -0.302478,0.02886 -0.56385,0.295658 -0.648437,0.49414 -0.08459,0.198483 -0.100591,0.358319 -0.125,0.492188 -0.02441,0.133869 -0.05345,0.235504 -0.07031,0.267578 -0.0098,5.59e-4 0.0017,-0.0014 -0.0332,-0.002 -0.05951,-9.24e-4 -0.141695,-0.0054 -0.234375,-0.01367 -0.138401,-0.01229 -0.295316,-0.0404 -0.443359,-0.06836 0.277668,-0.258052 0.583305,-0.5374 0.851562,-0.791016 l 2.849609,-2.697266 v 0.002 c 0.01581,-0.0149 0.03224,-0.01758 0.02734,-0.01758 z m -5.892578,13.527344 c -0.444469,0.148722 -0.831957,0.465587 -1.056641,0.914063 -0.451105,0.898639 -0.08044,2.005406 0.81836,2.457031 l -0.03711,-0.01953 4.78125,2.93164 h 0.002 c 0.832086,0.509989 1.958928,0.509988 2.791015,0 l 4.783203,-2.93164 -0.03711,0.01953 c 0.898792,-0.451626 1.269467,-1.55839 0.818359,-2.457031 -0.449367,-0.896955 -1.553945,-1.268926 -2.451172,-0.820313 l -0.02344,0.01172 -0.02148,0.01563 -3.611329,2.310547 c -0.412509,0.263572 -1.292568,0.263572 -1.705078,0 l -3.632812,-2.326172 -0.02344,-0.01172 c -0.448409,-0.224427 -0.950062,-0.242471 -1.394531,-0.09375 z m 0.941406,0.990235 3.570313,2.283203 v 0.002 c 0.825967,0.527749 1.957236,0.527749 2.783203,0 v -0.002 l 3.568359,-2.283203 c 0.410705,-0.202344 0.898559,-0.04191 1.105469,0.371093 h 0.002 c 0.207242,0.412842 0.04159,0.907858 -0.375,1.117188 l -0.01758,0.0098 -4.800781,2.941407 c -0.420732,0.257867 -1.327317,0.257867 -1.748047,0 l -4.800781,-2.941407 -0.01758,-0.0098 c -0.416597,-0.20933 -0.582242,-0.704344 -0.375,-1.117188 0.20691,-0.412998 0.695646,-0.573198 1.105468,-0.371093 z"
     id="path9" />
</svg>
