<?xml version="1.0" encoding="UTF-8" standalone="no"?>
<!-- Generator: Gravit.io -->

<svg
   style="isolation:isolate"
   viewBox="0 0 48 48"
   width="48pt"
   height="48pt"
   version="1.1"
   id="svg11"
   sodipodi:docname="input-tablet.svg"
   inkscape:version="1.1.2 (0a00cf5339, 2022-02-04)"
   xmlns:inkscape="http://www.inkscape.org/namespaces/inkscape"
   xmlns:sodipodi="http://sodipodi.sourceforge.net/DTD/sodipodi-0.dtd"
   xmlns:xlink="http://www.w3.org/1999/xlink"
   xmlns="http://www.w3.org/2000/svg"
   xmlns:svg="http://www.w3.org/2000/svg">
  <defs
     id="defs15">
    <linearGradient
       inkscape:collect="always"
       xlink:href="#_lgradient_4"
       id="linearGradient872"
       x1="-12.025727"
       y1="6.1170783"
       x2="-0.085100174"
       y2="6.1170783"
       gradientUnits="userSpaceOnUse"
       gradientTransform="matrix(3.8358211,0,0,3.8371386,-0.00544341,-0.00268054)" />
    <linearGradient
       id="_lgradient_1"
       x1="0.18336116"
       y1="0.24917752"
       x2="0.9027437"
       y2="0.90347725"
       gradientTransform="matrix(24.617266,0,0,24.816118,10.841288,10.089605)"
       gradientUnits="userSpaceOnUse">
      <stop
         offset="2.608695652173913%"
         stop-opacity="1"
         style="stop-color:rgb(179,255,171)"
         id="stop2-3" />
      <stop
         offset="98.69565217391305%"
         stop-opacity="1"
         style="stop-color:rgb(18,255,247)"
         id="stop4-6" />
    </linearGradient>
    <linearGradient
       inkscape:collect="always"
       xlink:href="#_lgradient_4"
       id="linearGradient15"
       x1="-9.6850061"
       y1="45.161198"
       x2="11.98815"
       y2="21.735205"
       gradientUnits="userSpaceOnUse"
       gradientTransform="matrix(1.1147442,0,0,1.1150348,-0.01237238,-3.3277956)" />
    <linearGradient
       inkscape:collect="always"
       xlink:href="#_lgradient_4"
       id="linearGradient970"
       x1="13.861312"
       y1="24"
       x2="37.165691"
       y2="24"
       gradientUnits="userSpaceOnUse" />
  </defs>
  <sodipodi:namedview
     id="namedview13"
     pagecolor="#ffffff"
     bordercolor="#666666"
     borderopacity="1.0"
     inkscape:pageshadow="2"
     inkscape:pageopacity="0.0"
     inkscape:pagecheckerboard="0"
     inkscape:document-units="pt"
     showgrid="false"
     inkscape:zoom="3.6128737"
     inkscape:cx="31.969011"
     inkscape:cy="31.969011"
     inkscape:window-width="1056"
     inkscape:window-height="545"
     inkscape:window-x="253"
     inkscape:window-y="153"
     inkscape:window-maximized="0"
     inkscape:current-layer="svg11" />
  <linearGradient
     id="_lgradient_4"
     x1="-0.014458464773922156"
     y1="0.009839246119734024"
     x2="1.0164565923220248"
     y2="1.0722930524759795"
     gradientTransform="matrix(23.304632,0,0,23.566369,13.861312,12.216816)"
     gradientUnits="userSpaceOnUse">
    <stop
       offset="0%"
       stop-opacity="1"
       style="stop-color:rgb(249,212,35)"
       id="stop2" />
    <stop
       offset="51.56237565086822%"
       stop-opacity="1"
       style="stop-color:rgb(255,78,80)"
       id="stop4" />
    <stop
       offset="99.1304347826087%"
       stop-opacity="1"
       style="stop-color:rgb(138,35,135)"
       id="stop6" />
  </linearGradient>
  <rect
     x="-46.783188"
     y="1.2253767"
     height="45.80014"
     rx="6.1837621"
     shape-rendering="crispEdges"
     id="rect5-6-7-3"
     ry="6.8055277"
     transform="matrix(0.00524063,-0.99998627,0.99998801,0.00489691,0,0)"
     style="isolation:isolate;fill:#be00ff;fill-opacity:0.13470298;stroke:url(#linearGradient872);stroke-width:2.0301;stroke-miterlimit:4;stroke-dasharray:none;stroke-opacity:1"
     width="45.801998" />
  <rect
     x="-15.686804"
     y="17.260084"
     height="33.345856"
     rx="6.7920032"
     shape-rendering="crispEdges"
     id="rect5-6-6-6-6"
     style="isolation:isolate;fill:#be00ff;fill-opacity:0.13470298;stroke:url(#linearGradient15);stroke-width:1.67233;stroke-miterlimit:4;stroke-dasharray:none;stroke-opacity:1"
     ry="7.4743071"
     transform="matrix(0.72446484,-0.68931175,0.68622417,0.72739012,0,0)"
     width="33.338203" />
  <path
     style="color:#000000;fill:url(#linearGradient970);fill-rule:evenodd;-inkscape-stroke:none"
     d="m 15.957031,11.716797 c -1.426853,0 -2.595703,1.16885 -2.595703,2.595703 v 19.375 c 0,1.426853 1.16885,2.595703 2.595703,2.595703 h 16.234375 c 1.42647,0 2.59375,-1.16885 2.59375,-2.595703 v -8.117188 -1.285156 h -2.544922 l 3.720703,-3.722656 -2.689453,-2.689453 -5.507812,5.507812 v 0.207032 2.484375 h 2.689453 l 1.761719,-1.761719 v 1.259765 7.59375 c 0,0.307531 -0.241299,0.548829 -0.548828,0.548829 h -6.382813 c 0.164492,-0.245566 0.337891,-0.495595 0.337891,-0.810547 0,-0.848726 -0.698149,-1.546875 -1.546875,-1.546875 -0.848726,0 -1.548828,0.698149 -1.548828,1.546875 0,0.315022 0.175285,0.564948 0.339843,0.810547 h -6.384765 c -0.307531,0 -0.548828,-0.241297 -0.548828,-0.548829 V 14.835938 c 0,-0.307532 0.241297,-0.548829 0.548828,-0.548829 h 4.988281 c -0.430505,0.208991 -0.775391,0.566059 -0.775391,1.072266 0,0.704053 0.580915,1.285156 1.285157,1.285156 h 4.189453 c 0.704053,0 1.285156,-0.581104 1.285156,-1.285156 0,-0.506207 -0.345047,-0.863275 -0.775391,-1.072266 h 4.988282 c 0.307529,0 0.548828,0.241298 0.548828,0.548829 v 0.785156 1.285156 h 2.019531 l -0.957031,0.962891 2.6875,2.6875 1.396484,-1.386719 v -0.002 c 0.395388,-0.395389 0.396675,-1.061364 0.002,-1.457032 h -0.002 L 36.123047,16.472656 C 35.76022,16.10896 35.185523,16.119659 34.785156,16.423828 V 15.621094 14.3125 c 0,-1.426853 -1.16728,-2.595703 -2.59375,-2.595703 z m 0,1 h 16.234375 c 0.885039,0 1.59375,0.710047 1.59375,1.595703 v 1.308594 0.285156 h -0.570312 v -0.285156 -0.785156 c 0,-0.848727 -0.700103,-1.548829 -1.548828,-1.548829 H 16.480469 c -0.848726,0 -1.548828,0.700103 -1.548828,1.548829 v 18.328124 c 0,0.848726 0.700102,1.548829 1.548828,1.548829 h 15.185547 c 0.848725,0 1.548828,-0.700102 1.548828,-1.548829 v -7.59375 -0.285156 h 0.570312 v 0.285156 8.117188 c 0,0.885656 -0.708711,1.595703 -1.59375,1.595703 H 15.957031 c -0.885656,0 -1.595703,-0.710046 -1.595703,-1.595703 v -19.375 c 0,-0.885657 0.710047,-1.595703 1.595703,-1.595703 z m 6.021485,2.357422 h 4.189453 c 0.162386,0 0.285156,0.121955 0.285156,0.285156 0,0.162387 -0.12277,0.285156 -0.285156,0.285156 h -4.189453 c -0.1632,0 -0.285157,-0.12277 -0.285157,-0.285156 0,-0.1632 0.121957,-0.285156 0.285157,-0.285156 z m 13.394531,2.105468 c 0.02401,-0.02407 0.017,-0.02407 0.04102,0 h 0.002 l 1.238281,1.238282 c 0.02446,0.02452 0.02379,0.01918 0,0.04297 l -0.6875,0.683594 -1.277344,-1.277344 z m -2.101563,2.107422 1.275391,1.275391 -4.507813,4.509766 h -1.27539 v -1.277344 z m -9.197265,13.06836 c 0.307529,0 0.546875,0.239346 0.546875,0.546875 0,0.306793 -0.239346,0.546875 -0.546875,0.546875 -0.307529,0 -0.548828,-0.240082 -0.548828,-0.546875 0,-0.307529 0.241299,-0.546875 0.548828,-0.546875 z"
     id="path9" />
</svg>
