<?xml version="1.0" encoding="UTF-8" standalone="no"?>
<!-- Generator: Gravit.io -->

<svg
   style="isolation:isolate"
   viewBox="0 0 48 48"
   width="48pt"
   height="48pt"
   version="1.1"
   id="svg9"
   sodipodi:docname="insomnia.svg"
   inkscape:version="1.1.2 (0a00cf5339, 2022-02-04)"
   xmlns:inkscape="http://www.inkscape.org/namespaces/inkscape"
   xmlns:sodipodi="http://sodipodi.sourceforge.net/DTD/sodipodi-0.dtd"
   xmlns:xlink="http://www.w3.org/1999/xlink"
   xmlns="http://www.w3.org/2000/svg"
   xmlns:svg="http://www.w3.org/2000/svg">
  <defs
     id="defs13">
    <linearGradient
       inkscape:collect="always"
       xlink:href="#_lgradient_19"
       id="linearGradient872"
       x1="-12.025727"
       y1="6.1170783"
       x2="-0.085100174"
       y2="6.1170783"
       gradientUnits="userSpaceOnUse"
       gradientTransform="matrix(3.8358211,0,0,3.8371386,-0.00544341,-0.00268054)" />
    <linearGradient
       id="_lgradient_1"
       x1="0.18336116"
       y1="0.24917752"
       x2="0.9027437"
       y2="0.90347725"
       gradientTransform="matrix(24.617266,0,0,24.816118,10.841288,10.089605)"
       gradientUnits="userSpaceOnUse">
      <stop
         offset="2.608695652173913%"
         stop-opacity="1"
         style="stop-color:rgb(179,255,171)"
         id="stop2-3" />
      <stop
         offset="98.69565217391305%"
         stop-opacity="1"
         style="stop-color:rgb(18,255,247)"
         id="stop4-6" />
    </linearGradient>
    <linearGradient
       inkscape:collect="always"
       xlink:href="#_lgradient_19"
       id="linearGradient15"
       x1="-9.6850061"
       y1="45.161198"
       x2="11.98815"
       y2="21.735205"
       gradientUnits="userSpaceOnUse"
       gradientTransform="matrix(1.1147442,0,0,1.1150348,-0.01237238,-3.3277956)" />
    <linearGradient
       inkscape:collect="always"
       xlink:href="#_lgradient_19"
       id="linearGradient878"
       x1="9.6656237"
       y1="23.96673"
       x2="38.528877"
       y2="23.96673"
       gradientUnits="userSpaceOnUse" />
  </defs>
  <sodipodi:namedview
     id="namedview11"
     pagecolor="#ffffff"
     bordercolor="#666666"
     borderopacity="1.0"
     inkscape:pageshadow="2"
     inkscape:pageopacity="0.0"
     inkscape:pagecheckerboard="0"
     inkscape:document-units="pt"
     showgrid="false"
     inkscape:zoom="3.6128737"
     inkscape:cx="31.969011"
     inkscape:cy="31.969011"
     inkscape:window-width="1056"
     inkscape:window-height="545"
     inkscape:window-x="282"
     inkscape:window-y="115"
     inkscape:window-maximized="0"
     inkscape:current-layer="svg9" />
  <linearGradient
     id="_lgradient_19"
     x1="0"
     y1="0.5"
     x2="1"
     y2="0.5"
     gradientTransform="matrix(28.862683,0,0,28.862683,9.6660594,9.5352508)"
     gradientUnits="userSpaceOnUse">
    <stop
       offset="0%"
       stop-opacity="1"
       style="stop-color:rgb(71,118,230)"
       id="stop2" />
    <stop
       offset="98.26086956521739%"
       stop-opacity="1"
       style="stop-color:rgb(142,84,233)"
       id="stop4" />
  </linearGradient>
  <rect
     x="-46.783188"
     y="1.2253767"
     height="45.80014"
     rx="6.1837621"
     shape-rendering="crispEdges"
     id="rect5-6-7-3"
     ry="6.8055277"
     transform="matrix(0.00524063,-0.99998627,0.99998801,0.00489691,0,0)"
     style="isolation:isolate;fill:#a600ff;fill-opacity:0.13470298;stroke:url(#linearGradient872);stroke-width:2.0301;stroke-miterlimit:4;stroke-dasharray:none;stroke-opacity:1"
     width="45.801998" />
  <rect
     x="-15.686804"
     y="17.260084"
     height="33.345856"
     rx="6.7920032"
     shape-rendering="crispEdges"
     id="rect5-6-6-6-6"
     style="isolation:isolate;fill:#a600ff;fill-opacity:0.13470298;stroke:url(#linearGradient15);stroke-width:1.67233;stroke-miterlimit:4;stroke-dasharray:none;stroke-opacity:1"
     ry="7.4743071"
     transform="matrix(0.72446484,-0.68931175,0.68622417,0.72739012,0,0)"
     width="33.338203" />
  <path
     style="color:#000000;fill:url(#linearGradient878);fill-rule:evenodd;-inkscape-stroke:none"
     d="M 25.490234,9.0996094 C 21.548433,8.7300656 17.616962,9.9440797 14.570313,12.46875 c -3.047299,2.524069 -4.9702984,6.161691 -5.3398442,10.103516 -0.369544,3.941801 0.8444712,7.873271 3.3691402,10.919921 2.095266,2.529499 4.965389,4.295859 8.166016,5.029297 3.200908,0.73288 6.559764,0.389669 9.546875,-0.978515 0.849042,-0.38816 1.227051,-1.405023 0.839844,-2.253907 -0.387875,-0.849401 -1.405985,-1.230335 -2.25586,-0.841796 -2.304712,1.056135 -4.900096,1.32084 -7.367187,0.753906 h -0.002 c -2.472637,-0.563561 -4.68892,-1.929674 -6.306641,-3.882813 -1.948338,-2.35172 -2.882937,-5.384157 -2.597656,-8.427734 0.285272,-3.042904 1.767443,-5.852462 4.11914,-7.800781 2.351642,-1.948848 5.386687,-2.882939 8.429688,-2.597656 3.042966,0.285277 5.850535,1.76885 7.798828,4.121093 1.610632,1.943131 2.539259,4.362889 2.646484,6.886719 0.09868,2.522174 -0.630853,5.012972 -2.076171,7.078125 -0.536446,0.765746 -0.347754,1.836617 0.417968,2.373047 0.765812,0.535643 1.836618,0.345802 2.373047,-0.419922 1.87293,-2.682812 2.816175,-5.903699 2.685547,-9.171875 C 38.881353,20.095555 37.68103,16.959121 35.59375,14.439453 33.069127,11.392236 29.432649,9.4691524 25.490234,9.0996094 Z m -0.09375,0.9960936 c 3.678371,0.344793 7.072267,2.139375 9.427735,4.982422 1.947393,2.350803 3.066219,5.27612 3.193359,8.322266 0.12146,3.049534 -0.75818,6.055192 -2.505859,8.558593 -0.22601,0.322618 -0.655986,0.397467 -0.978516,0.171875 -0.322616,-0.226009 -0.399822,-0.657875 -0.173828,-0.980468 1.571594,-2.245582 2.363565,-4.950532 2.255859,-7.691407 v -0.002 c -0.116456,-2.741088 -1.122452,-5.370435 -2.873047,-7.482422 -2.117647,-2.55671 -5.169877,-4.168514 -8.476562,-4.478515 -3.30665,-0.31 -6.604045,0.705923 -9.160156,2.824219 -2.556053,2.117622 -4.168509,5.169815 -4.478516,8.476562 -0.309998,3.307278 0.706615,6.604125 2.824219,9.160156 1.757546,2.121955 4.166579,3.605932 6.853515,4.21875 2.682382,0.616408 5.502184,0.329846 8.007813,-0.818359 0.357523,-0.163449 0.766779,-0.01105 0.929687,0.345703 v 0.002 c 0.163339,0.356925 0.01201,0.766151 -0.345703,0.929688 -2.786503,1.2763 -5.921809,1.595874 -8.908203,0.912109 -2.986677,-0.684411 -5.664098,-2.333144 -7.61914,-4.693359 -2.355422,-2.842412 -3.4873705,-6.509719 -3.142578,-10.1875 0.344789,-3.677759 2.139456,-7.072914 4.982421,-9.427735 2.842411,-2.355423 6.509719,-3.4873698 10.1875,-3.142578 z m -2.082031,2.800781 0.876953,0.910157 c 1.316559,1.367824 2.054688,3.182113 2.054688,5.074218 0,1.943819 -0.772461,3.803711 -2.138672,5.169922 -1.375855,1.375855 -3.233747,2.146485 -5.167969,2.146485 -1.892104,0 -3.718845,-0.738159 -5.076172,-2.052735 l -0.910156,-0.882812 0.06445,1.267578 c 0.142277,2.828552 1.356744,5.489563 3.408203,7.445312 h 0.002 c 2.051694,1.947126 4.775517,3.029014 7.603516,3.039063 h 0.002 c 2.917535,0 5.728831,-1.167655 7.798828,-3.238281 2.071479,-2.062026 3.228516,-4.872402 3.228516,-7.796875 0,-2.830825 -1.090913,-5.556951 -3.039063,-7.59961 -1.947227,-2.051802 -4.6152,-3.276967 -7.445312,-3.419922 z m 2.324219,1.335938 c 2.137995,0.358178 4.155444,1.252473 5.658203,2.835937 1.770245,1.856124 2.763672,4.336563 2.763672,6.910157 0,2.660333 -1.054127,5.215056 -2.935547,7.08789 v 0.002 c -1.88244,1.883012 -4.440102,2.944793 -7.089844,2.945313 -2.574659,-0.0091 -5.05298,-0.99433 -6.917969,-2.763672 -1.584504,-1.51058 -2.474027,-3.52223 -2.830078,-5.658203 1.379414,0.956136 2.953351,1.605469 4.652344,1.605469 2.200268,0 4.312938,-0.877391 5.875,-2.439454 1.553666,-1.553665 2.431641,-3.668244 2.431641,-5.876953 0,-1.699203 -0.651799,-3.26748 -1.607422,-4.648437 z m 2.505859,3.554687 0.816406,0.785157 c 0.002,0.102077 0.0039,0.202461 0.0039,0.308593 0,2.660963 -1.054028,5.218292 -2.935547,7.091797 -1.883445,1.883445 -4.430586,2.945313 -7.089844,2.945313 -0.164996,0 -0.327292,-0.0086 -0.5,-0.01758 l -1.267578,-0.06641 0.880859,0.914063 c 1.562738,1.620311 3.722298,2.544922 5.980469,2.544922 2.200927,0 4.31494,-0.877439 5.876953,-2.439453 1.554481,-1.55384 2.431641,-3.674733 2.431641,-5.875 0,-2.169199 -0.887235,-4.223442 -2.392578,-5.769532 l -0.01563,-0.328125 z m 1.654297,1.931641 c 0.916884,1.245934 1.542969,2.687809 1.542969,4.259766 0,1.934222 -0.773274,3.803133 -2.138672,5.167968 -1.375902,1.375903 -3.235157,2.146485 -5.169922,2.146485 -1.56726,0 -3.006516,-0.626934 -4.251953,-1.542969 2.606141,-0.207538 5.092073,-1.207307 6.955078,-3.070313 1.865271,-1.85789 2.857716,-4.352443 3.0625,-6.960937 z"
     id="path7" />
</svg>
