<?xml version="1.0" encoding="UTF-8" standalone="no"?>
<!-- Generator: Gravit.io -->

<svg
   style="isolation:isolate"
   viewBox="0 0 48 48"
   width="48pt"
   height="48pt"
   version="1.1"
   id="svg21"
   sodipodi:docname="io.elementary.code.svg"
   inkscape:version="1.1.2 (0a00cf5339, 2022-02-04)"
   xmlns:inkscape="http://www.inkscape.org/namespaces/inkscape"
   xmlns:sodipodi="http://sodipodi.sourceforge.net/DTD/sodipodi-0.dtd"
   xmlns:xlink="http://www.w3.org/1999/xlink"
   xmlns="http://www.w3.org/2000/svg"
   xmlns:svg="http://www.w3.org/2000/svg">
  <defs
     id="defs25">
    <linearGradient
       inkscape:collect="always"
       xlink:href="#_lgradient_3"
       id="linearGradient872"
       x1="-12.025727"
       y1="6.1170783"
       x2="-0.085100174"
       y2="6.1170783"
       gradientUnits="userSpaceOnUse"
       gradientTransform="matrix(3.8358211,0,0,3.8371386,-0.00544341,-0.00268054)" />
    <linearGradient
       id="_lgradient_1"
       x1="0.18336116"
       y1="0.24917752"
       x2="0.9027437"
       y2="0.90347725"
       gradientTransform="matrix(24.617266,0,0,24.816118,10.841288,10.089605)"
       gradientUnits="userSpaceOnUse">
      <stop
         offset="2.608695652173913%"
         stop-opacity="1"
         style="stop-color:rgb(179,255,171)"
         id="stop2-3" />
      <stop
         offset="98.69565217391305%"
         stop-opacity="1"
         style="stop-color:rgb(18,255,247)"
         id="stop4-6" />
    </linearGradient>
    <linearGradient
       inkscape:collect="always"
       xlink:href="#_lgradient_3"
       id="linearGradient15"
       x1="-9.6850061"
       y1="45.161198"
       x2="11.98815"
       y2="21.735205"
       gradientUnits="userSpaceOnUse"
       gradientTransform="matrix(1.1147442,0,0,1.1150348,-0.01237238,-3.3277956)" />
  </defs>
  <sodipodi:namedview
     id="namedview23"
     pagecolor="#ffffff"
     bordercolor="#666666"
     borderopacity="1.0"
     inkscape:pageshadow="2"
     inkscape:pageopacity="0.0"
     inkscape:pagecheckerboard="0"
     inkscape:document-units="pt"
     showgrid="false"
     inkscape:zoom="5.109375"
     inkscape:cx="32"
     inkscape:cy="32"
     inkscape:window-width="1056"
     inkscape:window-height="545"
     inkscape:window-x="304"
     inkscape:window-y="104"
     inkscape:window-maximized="0"
     inkscape:current-layer="svg21" />
  <linearGradient
     id="_lgradient_2"
     x1="-0.5902777777777777"
     y1="0.4910714285714287"
     x2="1.8051620044926078"
     y2="0.481200110787347"
     gradientTransform="matrix(26.559454,0,0,20.657353,10.720274,13.670393)"
     gradientUnits="userSpaceOnUse">
    <stop
       offset="0%"
       stop-opacity="1"
       style="stop-color:rgb(24,208,173)"
       id="stop2" />
    <stop
       offset="90.44964029999998%"
       stop-opacity="1"
       style="stop-color:rgb(7,195,242)"
       id="stop4" />
  </linearGradient>
  <linearGradient
     id="_lgradient_3"
     x1="3.3879371"
     y1="26.708285"
     x2="43.962521"
     y2="27.041622"
     gradientTransform="matrix(1.6604323,0,0,1.3112096,-11.412604,-11.413535)"
     gradientUnits="userSpaceOnUse">
    <stop
       offset="0%"
       stop-opacity="1"
       style="stop-color:rgb(24,208,173)"
       id="stop7" />
    <stop
       offset="90.44964029999998%"
       stop-opacity="1"
       style="stop-color:rgb(7,195,242)"
       id="stop9" />
  </linearGradient>
  <rect
     x="-46.783188"
     y="1.2253767"
     height="45.80014"
     rx="6.1837621"
     shape-rendering="crispEdges"
     id="rect5-6-7-3"
     ry="6.8055277"
     transform="matrix(0.00524063,-0.99998627,0.99998801,0.00489691,0,0)"
     style="isolation:isolate;fill:#00ffc3;fill-opacity:0.134703;stroke:url(#linearGradient872);stroke-width:2.0301;stroke-miterlimit:4;stroke-dasharray:none;stroke-opacity:1"
     width="45.801998" />
  <rect
     x="-15.686804"
     y="17.260084"
     height="33.345856"
     rx="6.7920032"
     shape-rendering="crispEdges"
     id="rect5-6-6-6-6"
     style="isolation:isolate;fill:#00ffc3;fill-opacity:0.134703;stroke:url(#linearGradient15);stroke-width:1.67233;stroke-miterlimit:4;stroke-dasharray:none;stroke-opacity:1"
     ry="7.4743071"
     transform="matrix(0.72446484,-0.68931175,0.68622417,0.72739012,0,0)"
     width="33.338203" />
  <path
     style="color:#000000;vector-effect:non-scaling-stroke;fill:url(#_lgradient_3);-inkscape-stroke:none"
     d="m 19.574219,13.169922 c -2.181497,0 -3.450317,0.344876 -4.59375,1.041016 -1.203575,0.728831 -1.808594,1.97284 -1.808594,3.470703 v 2.628906 c 0,0.670578 -0.239025,1.035107 -0.777344,1.373047 -7.38e-4,4.58e-4 -0.0012,-4.58e-4 -0.002,0 -5.8e-4,3.64e-4 5.81e-4,0.0016 0,0.002 -0.359207,0.223536 -0.513266,0.373642 -0.658203,0.441406 -0.145433,0.068 -0.381569,0.126953 -1.013672,0.126953 h -0.5 v 3.490235 h 0.5 c 1.253138,0 1.83906,0.215826 2.09961,0.480468 0.260549,0.264642 0.351562,0.724316 0.351562,1.509766 v 2.259766 c 0,1.613267 0.546581,2.957743 1.695313,3.734375 1.08957,0.738147 2.387052,1.081549 4.703124,1.099609 l 0.503907,0.0039 V 31.4375 l -0.492188,-0.0078 C 18.511299,31.41291 18.082438,31.242362 17.65625,30.927734 17.274483,30.6459 17.123047,30.330961 17.123047,29.716797 v -2.490235 c 0,-0.969315 -0.255923,-1.827331 -0.863281,-2.458984 -0.317686,-0.330393 -0.726543,-0.583257 -1.205078,-0.779297 0.480333,-0.204559 0.88993,-0.464363 1.207031,-0.800781 0.604161,-0.640966 0.861328,-1.501587 0.861328,-2.462891 V 18.28125 c 0,-0.614163 0.139694,-0.880559 0.529297,-1.160156 v -0.002 h 0.002 c 0.444341,-0.322341 0.88148,-0.508965 1.939453,-0.550782 l 0.480469,-0.01953 v -3.378906 z m 8.351562,0 v 0.5 2.878906 l 0.480469,0.01953 c 1.057971,0.04181 1.49511,0.22844 1.939453,0.550782 h 0.002 v 0.002 c 0.389603,0.279597 0.529297,0.545993 0.529297,1.160156 v 2.443359 c 0,0.961304 0.257167,1.821925 0.861328,2.462891 0.317101,0.336418 0.726698,0.596222 1.207031,0.800781 -0.478535,0.19604 -0.887392,0.448904 -1.205078,0.779297 -0.607358,0.631653 -0.863281,1.489669 -0.863281,2.458984 v 2.490235 c 0,0.614164 -0.151436,0.929103 -0.533203,1.210937 -0.42619,0.314629 -0.855051,0.48518 -1.925781,0.501953 l -0.492188,0.0078 v 3.394531 l 0.503906,-0.0039 c 2.316073,-0.01806 3.613554,-0.361462 4.703125,-1.099609 1.148732,-0.776632 1.695313,-2.121108 1.695313,-3.734375 v -2.259766 c 0,-0.78545 0.09101,-1.245124 0.351562,-1.509766 0.26055,-0.264642 0.846472,-0.480468 2.09961,-0.480468 h 0.5 v -3.490235 h -0.5 c -0.632103,0 -0.868579,-0.05906 -1.013672,-0.126953 -0.144597,-0.06766 -0.297761,-0.2178 -0.65625,-0.441406 l -0.002,-0.002 C 35.067759,21.34558 34.828125,20.981125 34.828125,20.310547 v -2.628906 c 0,-1.497863 -0.604586,-2.741781 -1.806641,-3.470703 -1.144706,-0.695957 -2.414206,-1.041016 -4.595703,-1.041016 z m -8.851562,1.044922 v 1.496094 c -0.822566,0.106408 -1.542071,0.261744 -2.007813,0.599609 -0.612278,0.440558 -0.943359,1.139898 -0.943359,1.970703 v 2.443359 c 0,0.793095 -0.186852,1.351875 -0.587891,1.777344 -0.401039,0.425469 -1.067663,0.749869 -2.125,0.912109 l -0.423828,0.06445 v 1.048828 l 0.431641,0.06055 c 1.05883,0.149277 1.721298,0.45929 2.11914,0.873046 0.397843,0.413757 0.585938,0.962837 0.585938,1.765625 v 2.490235 c 0,0.83185 0.317863,1.556746 0.939453,2.015625 0.463735,0.342346 1.190065,0.473706 2.011719,0.560547 v 1.488281 c -1.801912,-0.06454 -2.821976,-0.322283 -3.646485,-0.880859 -0.837322,-0.566095 -1.255859,-1.506499 -1.255859,-2.90625 v -2.259766 c 0,-0.853857 -0.07735,-1.640802 -0.638672,-2.210938 -0.47903,-0.486554 -1.266063,-0.673443 -2.3125,-0.728515 v -1.617188 c 0.34076,-0.0316 0.721023,-0.04332 0.9375,-0.144531 0.3319,-0.155177 0.486638,-0.327893 0.763672,-0.5 h 0.002 c 0.755269,-0.473118 1.248047,-1.253585 1.248047,-2.222656 v -2.628906 c 0,-1.252513 0.404993,-2.05741 1.326172,-2.615235 H 15.5 v -0.002 c 0.896813,-0.545993 1.894628,-0.796602 3.574219,-0.849609 z m 9.851562,0 c 1.679616,0.05301 2.677854,0.305404 3.576172,0.851562 0.91975,0.557734 1.326172,1.362722 1.326172,2.615235 v 2.628906 c 0,0.969071 0.49313,1.749613 1.25,2.222656 h 0.002 c 0.276273,0.172032 0.429849,0.344717 0.761719,0.5 0.216458,0.101281 0.596749,0.112932 0.9375,0.144531 v 1.617188 c -1.046437,0.05507 -1.83347,0.241961 -2.3125,0.728515 -0.561318,0.570136 -0.638672,1.357081 -0.638672,2.210938 v 2.259766 c 0,1.399751 -0.418537,2.340155 -1.255859,2.90625 -0.824508,0.558576 -1.844573,0.816314 -3.646485,0.880859 v -1.488281 c 0.821656,-0.08684 1.547986,-0.218202 2.011719,-0.560547 0.62159,-0.458879 0.939453,-1.183775 0.939453,-2.015625 v -2.490235 c 0,-0.802788 0.188095,-1.351868 0.585938,-1.765625 0.397842,-0.413756 1.06031,-0.723769 2.11914,-0.873046 l 0.431641,-0.06055 v -1.048828 l -0.423828,-0.06445 c -1.057337,-0.16224 -1.723961,-0.48664 -2.125,-0.912109 -0.401039,-0.425469 -0.587891,-0.984249 -0.587891,-1.777344 V 18.28125 c 0,-0.830805 -0.331081,-1.530145 -0.943359,-1.970703 -0.465741,-0.337864 -1.185246,-0.493202 -2.007813,-0.599609 z"
     id="path12" />
  <linearGradient
     id="_lgradient_4"
     x1="0"
     y1="0.5"
     x2="1.105587591817101"
     y2="0.4999999999999997"
     gradientTransform="matrix(40,0,0,44,4,2)"
     gradientUnits="userSpaceOnUse">
    <stop
       offset="0%"
       stop-opacity="1"
       style="stop-color:rgb(24,208,173)"
       id="stop14" />
    <stop
       offset="90.44964029999998%"
       stop-opacity="1"
       style="stop-color:rgb(7,195,242)"
       id="stop16" />
  </linearGradient>
</svg>
