<?xml version="1.0" encoding="UTF-8" standalone="no"?>
<!-- Generator: Gravit.io -->

<svg
   style="isolation:isolate"
   viewBox="0 0 48 48"
   width="48pt"
   height="48pt"
   version="1.1"
   id="svg9"
   sodipodi:docname="java.svg"
   inkscape:version="1.1.2 (0a00cf5339, 2022-02-04)"
   xmlns:inkscape="http://www.inkscape.org/namespaces/inkscape"
   xmlns:sodipodi="http://sodipodi.sourceforge.net/DTD/sodipodi-0.dtd"
   xmlns:xlink="http://www.w3.org/1999/xlink"
   xmlns="http://www.w3.org/2000/svg"
   xmlns:svg="http://www.w3.org/2000/svg">
  <defs
     id="defs13">
    <linearGradient
       inkscape:collect="always"
       xlink:href="#_lgradient_3"
       id="linearGradient872"
       x1="-12.025727"
       y1="6.1170783"
       x2="-0.085100174"
       y2="6.1170783"
       gradientUnits="userSpaceOnUse"
       gradientTransform="matrix(3.8358211,0,0,3.8371386,0.01768518,-0.02604361)" />
    <linearGradient
       id="_lgradient_1"
       x1="0.18336116"
       y1="0.24917752"
       x2="0.9027437"
       y2="0.90347725"
       gradientTransform="matrix(24.617266,0,0,24.816118,10.841288,10.089605)"
       gradientUnits="userSpaceOnUse">
      <stop
         offset="2.608695652173913%"
         stop-opacity="1"
         style="stop-color:rgb(179,255,171)"
         id="stop2-3" />
      <stop
         offset="98.69565217391305%"
         stop-opacity="1"
         style="stop-color:rgb(18,255,247)"
         id="stop4-6" />
    </linearGradient>
    <linearGradient
       inkscape:collect="always"
       xlink:href="#_lgradient_3"
       id="linearGradient15"
       x1="-9.6850061"
       y1="45.161198"
       x2="11.98815"
       y2="21.735205"
       gradientUnits="userSpaceOnUse"
       gradientTransform="matrix(1.1147442,0,0,1.1150348,-0.0133284,-3.3606551)" />
    <linearGradient
       inkscape:collect="always"
       xlink:href="#_lgradient_3"
       id="linearGradient1275"
       x1="13.674448"
       y1="21.990334"
       x2="34.326"
       y2="21.990334"
       gradientUnits="userSpaceOnUse" />
  </defs>
  <sodipodi:namedview
     id="namedview11"
     pagecolor="#ffffff"
     bordercolor="#666666"
     borderopacity="1.0"
     inkscape:pageshadow="2"
     inkscape:pageopacity="0.0"
     inkscape:pagecheckerboard="0"
     inkscape:document-units="pt"
     showgrid="false"
     inkscape:zoom="3.6128737"
     inkscape:cx="31.969011"
     inkscape:cy="31.969011"
     inkscape:window-width="1056"
     inkscape:window-height="545"
     inkscape:window-x="302"
     inkscape:window-y="133"
     inkscape:window-maximized="0"
     inkscape:current-layer="svg9" />
  <linearGradient
     id="_lgradient_3"
     x1="0"
     y1="0.5"
     x2="1"
     y2="0.5"
     gradientTransform="matrix(44,0,0,44,2,0.99028096)"
     gradientUnits="userSpaceOnUse">
    <stop
       offset="0%"
       stop-opacity="1"
       style="stop-color:rgb(255,153,102)"
       id="stop2" />
    <stop
       offset="98.26086956521739%"
       stop-opacity="1"
       style="stop-color:rgb(255,94,98)"
       id="stop4" />
  </linearGradient>
  <rect
     x="-46.760059"
     y="1.2020136"
     height="45.80014"
     rx="6.1837621"
     shape-rendering="crispEdges"
     id="rect5-6-7-3"
     ry="6.8055277"
     transform="matrix(0.00524063,-0.99998627,0.99998801,0.00489691,0,0)"
     style="isolation:isolate;fill:#ff2900;fill-opacity:0.13470298;stroke:url(#linearGradient872);stroke-width:2.0301;stroke-miterlimit:4;stroke-dasharray:none;stroke-opacity:1"
     width="45.801998" />
  <rect
     x="-15.687759"
     y="17.227224"
     height="33.345856"
     rx="6.7920032"
     shape-rendering="crispEdges"
     id="rect5-6-6-6-6"
     style="isolation:isolate;fill:#ff2900;fill-opacity:0.13470298;stroke:url(#linearGradient15);stroke-width:1.67233;stroke-miterlimit:4;stroke-dasharray:none;stroke-opacity:1"
     ry="7.4743071"
     transform="matrix(0.72446484,-0.68931175,0.68622417,0.72739012,0,0)"
     width="33.338203" />
  <path
     style="color:#000000;fill:url(#linearGradient1275);fill-rule:evenodd;-inkscape-stroke:none"
     d="m 25.869141,6.3496094 0.447265,1.7636719 c 0.269878,1.0627291 0.166839,1.8805233 -0.154297,2.6113277 -0.321135,0.730805 -0.881018,1.379235 -1.564453,1.998047 -1.36687,1.237626 -3.211638,2.302835 -4.267578,3.888672 -0.761784,1.14472 -0.557333,2.446834 0.152344,3.607422 0.709677,1.160588 1.888544,2.298729 3.224609,3.503906 l 0.791016,-0.574219 c -0.580269,-1.311351 -1.696571,-2.395879 -2.076172,-3.480468 -0.1898,-0.542295 -0.227089,-1.053835 0.02148,-1.673828 0.248574,-0.619994 0.814649,-1.362787 1.908203,-2.226563 2.908517,-2.295927 3.716624,-4.297067 3.695313,-5.7695311 C 28.025564,8.5255827 27.15625,7.6367188 27.15625,7.6367187 Z m 0.625,5.5312496 c -0.133712,0.258112 -0.444884,0.558091 -0.652344,0.84375 0.243131,-0.262605 0.452405,-0.548255 0.652344,-0.84375 z m 3.693359,1.34375 c 0,0 -2.451333,0.597825 -4.382813,1.929688 -0.965739,0.665931 -1.833928,1.531063 -2.134765,2.671875 -0.300837,1.140812 0.04054,2.480543 1.253906,3.878906 v 0.002 c 0.558471,0.6428 0.457613,1.091459 0.255859,1.517578 -0.201753,0.42612 -0.548828,0.720703 -0.548828,0.720703 l 0.355469,0.541016 c -2.293403,0.154028 -4.736196,0.222013 -5.882812,0.06836 -0.09482,-0.01266 -0.101478,-0.02512 -0.179688,-0.03906 0.794144,-0.323994 2.03125,-0.626953 2.03125,-0.626953 l -0.08203,-0.984375 c 0,0 -2.118069,-0.139016 -4.65625,1.089844 -0.208557,0.100832 -0.37888,0.202238 -0.523438,0.341796 -0.144558,0.139559 -0.283568,0.357467 -0.269531,0.619141 0.01404,0.261674 0.172968,0.454135 0.320313,0.572266 0.147344,0.118131 0.307413,0.195896 0.490234,0.265625 0.656247,0.250295 1.73601,0.373608 2.955078,0.460937 -0.42704,0.163897 -0.834378,0.323316 -1.085937,0.529297 -0.161522,0.132257 -0.296996,0.28445 -0.38086,0.480469 -0.08386,0.196019 -0.09554,0.441768 -0.02344,0.642578 0.1442,0.401619 0.471347,0.603459 0.845703,0.777344 0.374356,0.173884 0.837549,0.308603 1.384765,0.414062 0.230326,0.04439 0.606707,0.01337 0.865235,0.04687 h -0.46875 -0.07031 l -0.06445,0.01758 c -0.05171,0.01445 -0.06801,0.03796 -0.117187,0.05273 v -0.002 c 0,0 -0.01284,0.0093 -0.01367,0.0098 -0.489902,0.148616 -0.893861,0.306602 -1.169922,0.539063 -0.306962,0.258481 -0.491117,0.718462 -0.357422,1.095703 0.133695,0.37724 0.426555,0.601216 0.773438,0.794922 0.346882,0.193705 0.775305,0.351289 1.27539,0.478515 2.000343,0.508905 5.171317,0.541624 8.041016,-0.6875 L 29.75,30.960937 28.607422,30.517578 c -0.852096,-0.331159 -1.457031,-0.710937 -1.457031,-0.710937 l -0.166016,-0.103516 -0.191406,0.03711 c -2.421939,0.457643 -3.454813,0.490454 -5.648438,0.240235 -0.174247,-0.01997 -0.179258,-0.04129 -0.289062,-0.06641 L 22.0625,29.212891 c 2.06624,0.109214 4.47905,0.0042 6.998047,-0.732422 L 29.5625,28.333984 29.990234,29.125 c 1.811069,-0.476067 3.045326,-1.138251 3.824219,-1.900391 0.778893,-0.76214 1.092449,-1.652713 0.972656,-2.451172 -0.239585,-1.596917 -2.096735,-2.596308 -4.005859,-1.925781 l -0.002,0.002 c -0.297786,0.10534 -0.334822,0.219469 -0.44336,0.345703 -5.6e-4,2.14e-4 -0.02344,0.0059 -0.02344,0.0059 l 0.0059,0.0078 c -0.0551,0.06587 -0.242187,0.1875 -0.242187,0.1875 l -0.357422,0.556641 c -0.172546,0.03043 -2.006822,0.358694 -3.990234,0.525391 -0.06324,0.0053 -0.100569,-0.0031 -0.164063,0.002 0.283643,-0.161511 0.704869,-0.357458 1.269531,-0.972657 0.368671,-0.401665 0.705761,-0.899047 0.832032,-1.501953 0.12627,-0.602906 0.0045,-1.301225 -0.457032,-1.951172 -0.373912,-0.525408 -0.704782,-0.967351 -0.888672,-1.341796 -0.183889,-0.374446 -0.23571,-0.640394 -0.128906,-0.984375 0.213608,-0.687964 1.34585,-1.832667 4.369141,-3.585938 z M 24.767578,13.875 c -0.379581,0.381141 -0.505931,0.689662 -1.035156,1.107422 -1.178943,0.931222 -1.877371,1.792073 -2.216797,2.638672 -0.318509,0.794428 -0.24715,1.551391 -0.03711,2.230468 -0.03047,-0.04669 -0.114376,-0.108176 -0.142579,-0.154296 -0.600571,-0.98216 -0.717042,-1.714972 -0.173828,-2.53125 0.766449,-1.151072 2.247487,-2.148251 3.605469,-3.291016 z m 1.466797,2.222656 c -0.419216,0.449364 -0.861948,0.895653 -0.998047,1.333985 -0.19057,0.613767 -0.06497,1.21254 0.185547,1.722656 0.250517,0.510116 0.611069,0.972378 0.972656,1.480469 0.324564,0.458003 0.366738,0.81379 0.292969,1.166015 -0.05011,0.239264 -0.237627,0.468514 -0.400391,0.699219 -0.02995,-0.471185 -0.193197,-0.972447 -0.607422,-1.449219 -1.075634,-1.239634 -1.251756,-2.177001 -1.042968,-2.96875 0.195808,-0.742529 0.815794,-1.414474 1.597656,-1.984375 z m 4.964844,7.896485 c 0.558807,-0.116377 1.338088,0.299827 1.447265,0.939453 0.05459,0.319812 -0.01995,0.738362 -0.441406,1.28125 -0.374699,0.482659 -1.160065,1.058341 -2.193359,1.640625 L 29.087891,27.529297 C 28.50129,27.32182 28.126953,26.947266 28.126953,26.947266 l -0.189453,-0.191407 -0.261719,0.05078 c -3.202947,0.616864 -4.988923,0.594084 -7.335937,0.351562 -0.306133,-0.03158 -0.379439,-0.07552 -0.460938,-0.109375 0.03656,-0.03432 0.07422,-0.06836 0.07422,-0.06836 l -0.349609,-0.673828 c 2.822998,0.157995 6.576478,-0.01553 9.234375,-0.714844 l 0.08398,-0.02344 0.07031,-0.04883 C 29.463791,25.198103 30.1875,24.880859 30.1875,24.880859 l -0.148438,-0.49414 0.642579,-0.25586 c 0,0 0.132116,-0.05572 0.517578,-0.136718 z m 2.146484,0.347656 c 0.161346,0.195854 0.417331,0.341497 0.453125,0.580078 0.06733,0.44879 -0.07789,0.995219 -0.683594,1.587891 -0.0063,0.0062 -0.02091,0.01138 -0.02734,0.01758 0.381479,-0.605627 0.637218,-1.220994 0.544921,-1.761719 -0.03183,-0.186507 -0.212801,-0.262339 -0.287109,-0.423828 z m -15.882812,0.300781 c 0.01015,0.13691 0.05736,0.266139 0.130859,0.365234 -0.257786,-0.0509 -0.720535,-0.07768 -0.880859,-0.132812 0.293743,-0.139575 0.475181,-0.130078 0.75,-0.232422 z m 1.52539,2.796875 c 0.0561,0.131876 0.0142,0.281843 0.126953,0.367188 0.207188,0.156828 0.519381,0.205812 0.841797,0.261718 -0.400428,-0.08769 -0.766358,-0.187027 -0.990234,-0.291015 -0.218578,-0.101528 -0.258741,-0.168843 -0.273438,-0.175782 0.01496,-0.0174 0.0085,-0.01478 0.04297,-0.04297 0.03631,-0.02973 0.193176,-0.08318 0.251953,-0.119141 z m 6.078125,0.695313 c -0.462301,0.04589 -0.90743,0.149476 -1.345703,0.166015 0.388973,-0.01409 0.925952,-0.126974 1.345703,-0.166015 z m -5.367187,2.320312 c 0.07704,0.0923 0.156633,0.183964 0.253906,0.238281 0.264802,0.147866 0.58691,0.22299 1.078125,0.279297 2.178608,0.248507 3.441874,0.203073 5.773437,-0.226562 0.01292,0.0078 0.118615,0.05339 0.140625,0.06641 -2.271313,0.646255 -4.639454,0.723108 -6.115234,0.347656 -0.439101,-0.111711 -0.798199,-0.248538 -1.035156,-0.380859 -0.236957,-0.132321 -0.324523,-0.267741 -0.320313,-0.25586 0.0042,0.01188 -0.05637,0.100405 0.06055,0.002 0.02073,-0.01745 0.131301,-0.04934 0.164063,-0.07031 z m -2.138672,0.720703 c -0.315899,-0.01211 -0.657449,0.02246 -1.013672,0.08594 -0.712445,0.126947 -1.476743,0.373019 -2.101562,0.68164 -0.31241,0.154311 -0.589961,0.321541 -0.816407,0.521485 -0.226445,0.199944 -0.440526,0.447235 -0.453125,0.818359 -0.0126,0.371125 0.256379,0.696301 0.56836,0.871094 0.311981,0.174793 0.709347,0.286632 1.253906,0.375 0.337813,0.05474 0.615335,0.02733 0.949219,0.07422 l 1.132812,0.9375 c 0,0 0.112573,0.08418 0.255859,0.152343 0.143287,0.06816 0.353422,0.149878 0.664063,0.236328 0.621282,0.172901 1.643096,0.362621 3.324219,0.470704 2.553788,0.1636 5.769459,0.12175 8.412109,-0.269532 1.321325,-0.19564 2.498089,-0.473767 3.402344,-0.884765 0.753433,-0.342448 1.284493,-0.855231 1.509765,-1.501953 0.02441,-0.03047 0.05683,-0.06524 0.07422,-0.0918 0.03536,-0.05401 0.06836,-0.132813 0.06836,-0.132813 l -0.0332,-0.0078 c 0.009,-0.05148 0.06228,-0.08319 0.06641,-0.136719 l -0.964844,-0.21875 c 0,0 0.02423,-0.05096 0.02539,-0.05273 0.0012,-0.0018 -0.0071,0.01209 -0.0332,0.03906 -0.05211,0.05395 -0.174043,0.162281 -0.421875,0.300781 -0.495662,0.277001 -1.491019,0.672931 -3.363281,1.025391 -0.155747,0.02931 -0.337598,0.01605 -0.496094,0.04297 1.435855,-0.285822 2.641231,-0.61089 3.314454,-1.041016 0.376293,-0.240416 0.715515,-0.544118 0.705078,-1.029297 -0.0052,-0.242589 -0.124666,-0.465873 -0.277344,-0.621094 -0.120006,-0.122003 -0.277361,-0.20444 -0.4375,-0.287109 -7.7e-5,-5.3e-5 -0.0039,-0.0078 -0.0039,-0.0078 l -0.138672,-0.113282 h -0.179688 -0.002 l -0.199219,0.927735 -0.117187,-0.04297 c 0,0 0.0025,0.05737 0.0059,-0.01758 0.0017,-0.03748 0.04066,-0.05779 -0.04102,0.0098 -0.08168,0.06756 -0.287523,0.186665 -0.664063,0.300782 -1.455332,0.441107 -4.764123,0.769898 -7.980469,0.810547 -1.608172,0.02032 -3.202842,-0.02667 -4.55664,-0.152344 -1.14086,-0.105905 -1.952914,-0.301548 -2.583985,-0.50586 0.325335,-0.129048 0.70762,-0.271929 0.886719,-0.310546 h 0.002 c 0.563304,-0.122019 0.824219,-0.09961 0.824219,-0.09961 l 1.785156,0.123047 -1.46289,-1.03125 c -0.08009,-0.05637 -0.175711,-0.03853 -0.259766,-0.07227 l 0.0059,-0.01758 c 0,0 -0.04712,0.0059 -0.04883,0.0059 -0.191093,-0.06897 -0.377605,-0.156077 -0.585937,-0.164063 z m -2.541016,1.621094 c -0.0013,0.15603 -0.02251,0.322502 0.0625,0.4375 0.126027,0.170485 0.278818,0.257758 0.449219,0.332031 h 0.002 c 0.0079,0.0034 0.02527,0.0025 0.0332,0.0059 -0.144502,-0.02202 -0.263018,-0.0077 -0.408203,-0.03125 -0.47994,-0.07788 -0.789673,-0.183509 -0.925781,-0.259766 -0.136108,-0.07626 -0.05613,-0.03531 -0.05859,0.03711 -0.0025,0.07242 -0.0066,0.0057 0.117188,-0.103515 0.123745,-0.109263 0.336051,-0.246749 0.595703,-0.375 0.03757,-0.01856 0.09341,-0.02474 0.132812,-0.04297 z"
     id="path7" />
</svg>
