<?xml version="1.0" encoding="UTF-8" standalone="no"?>
<!-- Generator: Gravit.io -->

<svg
   style="isolation:isolate"
   viewBox="0 0 48 48"
   width="48pt"
   height="48pt"
   version="1.1"
   id="svg9"
   sodipodi:docname="jdownloader.svg"
   inkscape:version="1.1.2 (0a00cf5339, 2022-02-04)"
   xmlns:inkscape="http://www.inkscape.org/namespaces/inkscape"
   xmlns:sodipodi="http://sodipodi.sourceforge.net/DTD/sodipodi-0.dtd"
   xmlns:xlink="http://www.w3.org/1999/xlink"
   xmlns="http://www.w3.org/2000/svg"
   xmlns:svg="http://www.w3.org/2000/svg">
  <defs
     id="defs13">
    <linearGradient
       inkscape:collect="always"
       xlink:href="#_lgradient_43"
       id="linearGradient872"
       x1="-12.025727"
       y1="6.1170783"
       x2="-0.085100174"
       y2="6.1170783"
       gradientUnits="userSpaceOnUse"
       gradientTransform="matrix(3.8358211,0,0,3.8371386,-0.00544341,-0.00268054)" />
    <linearGradient
       id="_lgradient_1"
       x1="0.18336116"
       y1="0.24917752"
       x2="0.9027437"
       y2="0.90347725"
       gradientTransform="matrix(24.617266,0,0,24.816118,10.841288,10.089605)"
       gradientUnits="userSpaceOnUse">
      <stop
         offset="2.608695652173913%"
         stop-opacity="1"
         style="stop-color:rgb(179,255,171)"
         id="stop2-3" />
      <stop
         offset="98.69565217391305%"
         stop-opacity="1"
         style="stop-color:rgb(18,255,247)"
         id="stop4-6" />
    </linearGradient>
    <linearGradient
       inkscape:collect="always"
       xlink:href="#_lgradient_43"
       id="linearGradient15"
       x1="-9.6850061"
       y1="45.161198"
       x2="11.98815"
       y2="21.735205"
       gradientUnits="userSpaceOnUse"
       gradientTransform="matrix(1.1147442,0,0,1.1150348,-0.01237238,-3.3277956)" />
    <linearGradient
       inkscape:collect="always"
       xlink:href="#_lgradient_43"
       id="linearGradient914"
       x1="9.7203474"
       y1="24.035"
       x2="38.279652"
       y2="24.035"
       gradientUnits="userSpaceOnUse" />
  </defs>
  <sodipodi:namedview
     id="namedview11"
     pagecolor="#ffffff"
     bordercolor="#666666"
     borderopacity="1.0"
     inkscape:pageshadow="2"
     inkscape:pageopacity="0.0"
     inkscape:pagecheckerboard="0"
     inkscape:document-units="pt"
     showgrid="false"
     inkscape:zoom="7.2257474"
     inkscape:cx="32.038208"
     inkscape:cy="31.969011"
     inkscape:window-width="1600"
     inkscape:window-height="836"
     inkscape:window-x="0"
     inkscape:window-y="0"
     inkscape:window-maximized="1"
     inkscape:current-layer="svg9" />
  <linearGradient
     id="_lgradient_43"
     x1="0.0681818181817685"
     y1="0.23295454545454564"
     x2="0.9384302091713562"
     y2="0.779389581657281"
     gradientTransform="matrix(28.559304,0,0,28.516769,9.7203478,9.7766153)"
     gradientUnits="userSpaceOnUse">
    <stop
       offset="1.3043478260869565%"
       stop-opacity="1"
       style="stop-color:rgb(55,236,186)"
       id="stop2" />
    <stop
       offset="97.82608695652173%"
       stop-opacity="1"
       style="stop-color:rgb(114,175,211)"
       id="stop4" />
  </linearGradient>
  <rect
     x="-46.783188"
     y="1.2253767"
     height="45.80014"
     rx="6.1837621"
     shape-rendering="crispEdges"
     id="rect5-6-7-3"
     ry="6.8055277"
     transform="matrix(0.00524063,-0.99998627,0.99998801,0.00489691,0,0)"
     style="isolation:isolate;fill:#00d6ff;fill-opacity:0.13470298;stroke:url(#linearGradient872);stroke-width:2.0301;stroke-miterlimit:4;stroke-dasharray:none;stroke-opacity:1"
     width="45.801998" />
  <rect
     x="-15.686804"
     y="17.260084"
     height="33.345856"
     rx="6.7920032"
     shape-rendering="crispEdges"
     id="rect5-6-6-6-6"
     style="isolation:isolate;fill:#00d6ff;fill-opacity:0.13470298;stroke:url(#linearGradient15);stroke-width:1.67233;stroke-miterlimit:4;stroke-dasharray:none;stroke-opacity:1"
     ry="7.4743071"
     transform="matrix(0.72446484,-0.68931175,0.68622417,0.72739012,0,0)"
     width="33.338203" />
  <path
     style="color:#000000;fill:url(#linearGradient914);fill-rule:evenodd;-inkscape-stroke:none"
     d="m 22.867187,9.2773438 c -3.985784,0.3080493 -7.677038,2.2148072 -10.230468,5.2890622 -0.495871,0.594108 -0.412656,1.49186 0.18164,1.986328 0.595954,0.49585 1.496062,0.411192 1.990235,-0.185547 1.551138,-1.866704 3.654678,-3.117298 5.957031,-3.771484 v 11.525391 h -2.611328 c -0.940119,0 -1.713165,0.293982 -2.015625,0.96289 -0.302461,0.668908 -0.01126,1.442646 0.609375,2.148438 l 4.86914,5.537109 c 1.28446,1.460702 3.481166,1.460702 4.765625,0 l 4.869141,-5.537109 c 0.620634,-0.705792 0.911836,-1.47953 0.609375,-2.148438 -0.30246,-0.668908 -1.075506,-0.96289 -2.015625,-0.96289 h -2.611328 v -3.449219 c 0,-0.77366 -0.638449,-1.412109 -1.412109,-1.412109 -0.773661,0 -1.410157,0.638449 -1.410157,1.412109 v 6.271484 h 3.044922 L 24,31.335937 20.542969,26.943359 h 3.044922 V 11.556641 10.646484 9.2773438 h -0.701172 z m 1.544922,0.041016 v 1.6308596 0.912109 4.861328 c 0,0.773661 0.636496,1.410156 1.410157,1.410156 0.77366,0 1.412109,-0.636495 1.412109,-1.410156 v -4.136718 c 2.162019,0.612298 4.150778,1.751127 5.671875,3.443359 1.965278,2.192715 3.050781,5.038544 3.050781,7.984375 0,2.151873 -0.583351,4.270485 -1.685547,6.11914 -0.395485,0.664779 -0.176112,1.538964 0.488282,1.935547 0.664997,0.396944 1.540561,0.176708 1.9375,-0.488281 1.364741,-2.289243 2.082031,-4.900372 2.082031,-7.566406 0,-3.64146 -1.345863,-7.156605 -3.773438,-9.867188 C 32.57189,11.429495 29.220266,9.7122454 25.603516,9.3222656 l -0.02734,-0.00391 z m 1,0.9999996 h 0.08984 c 3.368776,0.364799 6.491968,1.962646 8.759766,4.494141 2.263437,2.52731 3.517578,5.806113 3.517578,9.201172 0,2.486789 -0.667019,4.920281 -1.939453,7.054687 -0.119559,0.200297 -0.366118,0.262133 -0.566407,0.142578 -0.200296,-0.119559 -0.262131,-0.366118 -0.142578,-0.566406 1.194701,-2.003809 1.826172,-4.298317 1.826172,-6.630859 0,-3.191375 -1.176397,-6.275573 -3.30664,-8.652344 -1.808279,-2.011724 -4.188834,-3.403582 -6.806641,-3.990234 l -0.609375,-0.136719 v 0.625 0.002 4.861328 c 0,0.232599 -0.179511,0.410156 -0.412109,0.410156 -0.232599,0 -0.410157,-0.177557 -0.410157,-0.410156 v -4.861328 -0.912109 z m -2.824218,0.02149 v 0.30664 0.910157 14.386718 h -2.464844 c -0.27399,0 -0.613201,0.100169 -0.769531,0.421875 -0.156331,0.321707 -0.02473,0.649813 0.144531,0.865235 l 3.734375,4.746093 c 0.184924,0.234082 0.470885,0.386719 0.767578,0.386719 0.297599,0 0.584659,-0.153378 0.769531,-0.388672 l 3.732422,-4.74414 c 0.16926,-0.215422 0.300862,-0.543528 0.144531,-0.865235 -0.15633,-0.321706 -0.495541,-0.421875 -0.769531,-0.421875 h -2.464844 v -5.271484 c 0,-0.232599 0.177558,-0.412109 0.410157,-0.412109 0.232598,0 0.412109,0.17951 0.412109,0.412109 v 4.449219 h 3.611328 c 0.736979,0 1.032579,0.218119 1.103516,0.375 0.07094,0.15688 0.03923,0.522925 -0.447266,1.076172 l -4.871094,5.537109 c -0.929796,1.057375 -2.331922,1.057375 -3.261718,0 l -4.871094,-5.537109 c -0.486493,-0.553247 -0.518203,-0.919292 -0.447266,-1.076172 0.07094,-0.156881 0.366537,-0.375 1.103516,-0.375 h 3.611328 V 11.236328 l -0.609375,0.136719 c -2.77174,0.624368 -5.280948,2.145661 -7.117187,4.355469 -0.149929,0.181046 -0.401895,0.204894 -0.580079,0.05664 -0.179843,-0.149633 -0.20292,-0.400526 -0.05469,-0.578125 2.302488,-2.773194 5.605724,-4.495167 9.183594,-4.867187 z M 11.505859,19.050781 C 10.759161,18.841182 9.9723223,19.285752 9.7617188,20.03125 v 0.002 c -0.3583565,1.295114 -0.5410157,2.63494 -0.5410157,3.980469 0,3.918314 1.5592619,7.679926 4.3261719,10.453125 2.773198,2.76691 6.534811,4.326172 10.453125,4.326172 3.037751,0 6.005497,-0.936794 8.490234,-2.685547 0.633374,-0.444275 0.788296,-1.333993 0.34375,-1.966797 C 32.388841,33.506973 31.497402,33.353249 30.867187,33.802734 28.85548,35.212739 26.460098,35.970703 24,35.970703 c -3.166911,0 -6.211219,-1.260021 -8.457031,-3.5 -2.23998,-2.245813 -3.5,-5.290119 -3.5,-8.457031 0,-1.091731 0.146204,-2.175914 0.4375,-3.21875 0.210523,-0.745219 -0.228369,-1.534669 -0.97461,-1.744141 z m -0.271484,0.962891 c 0.22356,0.06275 0.347334,0.282753 0.283203,0.509765 v 0.002 c -0.31635,1.132529 -0.474609,2.307424 -0.474609,3.488281 0,3.432105 1.366241,6.731014 3.792969,9.164062 2.433047,2.426729 5.731958,3.792969 9.164062,3.792969 2.666944,0 5.265021,-0.822199 7.445312,-2.351562 h 0.002 l 0.002,-0.002 c 0.187674,-0.133854 0.431856,-0.09192 0.566406,0.09961 0.134805,0.191893 0.09098,0.438938 -0.09961,0.572265 -2.31565,1.62975 -5.083924,2.503907 -7.916016,2.503907 -3.652423,0 -7.158022,-1.453518 -9.744141,-4.033203 -2.580358,-2.586224 -4.035156,-6.093162 -4.035156,-9.746094 0,-1.254538 0.169891,-2.50314 0.503906,-3.710938 0.06405,-0.226733 0.286665,-0.351687 0.509766,-0.289062 z m 9.048828,6.599609 h 0.002 c -3.81e-4,-4.84e-4 3.58e-4,0.0024 0,0.002 z m 7.431641,0 h 0.002 l -0.002,0.002 c -3.58e-4,4.57e-4 3.81e-4,-0.0024 0,-0.002 z"
     id="path7" />
</svg>
