<?xml version="1.0" encoding="UTF-8" standalone="no"?>
<!-- Generator: Gravit.io -->

<svg
   style="isolation:isolate"
   viewBox="0 0 48 48"
   width="48pt"
   height="48pt"
   version="1.1"
   id="svg18"
   sodipodi:docname="jetbrains-toolbox.svg"
   inkscape:version="1.1.2 (0a00cf5339, 2022-02-04)"
   xmlns:inkscape="http://www.inkscape.org/namespaces/inkscape"
   xmlns:sodipodi="http://sodipodi.sourceforge.net/DTD/sodipodi-0.dtd"
   xmlns:xlink="http://www.w3.org/1999/xlink"
   xmlns="http://www.w3.org/2000/svg"
   xmlns:svg="http://www.w3.org/2000/svg">
  <defs
     id="defs22">
    <linearGradient
       inkscape:collect="always"
       xlink:href="#_lgradient_32"
       id="linearGradient872"
       x1="-12.025727"
       y1="6.1170783"
       x2="-0.085100174"
       y2="6.1170783"
       gradientUnits="userSpaceOnUse"
       gradientTransform="matrix(3.8358211,0,0,3.8371386,-0.00544341,-0.00268054)" />
    <linearGradient
       id="_lgradient_1"
       x1="0.18336116"
       y1="0.24917752"
       x2="0.9027437"
       y2="0.90347725"
       gradientTransform="matrix(24.617266,0,0,24.816118,10.841288,10.089605)"
       gradientUnits="userSpaceOnUse">
      <stop
         offset="2.608695652173913%"
         stop-opacity="1"
         style="stop-color:rgb(179,255,171)"
         id="stop2-3" />
      <stop
         offset="98.69565217391305%"
         stop-opacity="1"
         style="stop-color:rgb(18,255,247)"
         id="stop4-6" />
    </linearGradient>
    <linearGradient
       inkscape:collect="always"
       xlink:href="#_lgradient_32"
       id="linearGradient15"
       x1="-9.6850061"
       y1="45.161198"
       x2="11.98815"
       y2="21.735205"
       gradientUnits="userSpaceOnUse"
       gradientTransform="matrix(1.1147442,0,0,1.1150348,-0.01237238,-3.3277956)" />
    <linearGradient
       inkscape:collect="always"
       xlink:href="#_lgradient_32"
       id="linearGradient923"
       x1="37.295788"
       y1="9.9816675"
       x2="10.652572"
       y2="40.541851"
       gradientUnits="userSpaceOnUse" />
    <linearGradient
       inkscape:collect="always"
       xlink:href="#_lgradient_33"
       id="linearGradient1168"
       x1="26.505501"
       y1="30.135403"
       x2="32.769253"
       y2="30.135403"
       gradientUnits="userSpaceOnUse" />
  </defs>
  <sodipodi:namedview
     id="namedview20"
     pagecolor="#ffffff"
     bordercolor="#666666"
     borderopacity="1.0"
     inkscape:pageshadow="2"
     inkscape:pageopacity="0.0"
     inkscape:pagecheckerboard="0"
     inkscape:document-units="pt"
     showgrid="false"
     inkscape:zoom="10.21875"
     inkscape:cx="31.95107"
     inkscape:cy="32"
     inkscape:window-width="1600"
     inkscape:window-height="836"
     inkscape:window-x="0"
     inkscape:window-y="0"
     inkscape:window-maximized="1"
     inkscape:current-layer="svg18" />
  <linearGradient
     id="_lgradient_32"
     x1="-0.014458464773922156"
     y1="0.009839246119734024"
     x2="1.0164565923220248"
     y2="1.0722930524759795"
     gradientTransform="matrix(-25.84424,0,0,28.763775,36.92212,9.6986537)"
     gradientUnits="userSpaceOnUse">
    <stop
       offset="0%"
       stop-opacity="1"
       style="stop-color:rgb(249,212,35)"
       id="stop2" />
    <stop
       offset="51.56237565086822%"
       stop-opacity="1"
       style="stop-color:rgb(255,78,80)"
       id="stop4" />
    <stop
       offset="99.1304347826087%"
       stop-opacity="1"
       style="stop-color:rgb(138,35,135)"
       id="stop6" />
  </linearGradient>
  <rect
     x="-46.783188"
     y="1.2253767"
     height="45.80014"
     rx="6.1837621"
     shape-rendering="crispEdges"
     id="rect5-6-7-3"
     ry="6.8055277"
     transform="matrix(0.00524063,-0.99998627,0.99998801,0.00489691,0,0)"
     style="isolation:isolate;fill:#f300ff;fill-opacity:0.13470298;stroke:url(#linearGradient872);stroke-width:2.0301;stroke-miterlimit:4;stroke-dasharray:none;stroke-opacity:1"
     width="45.801998" />
  <rect
     x="-15.686804"
     y="17.260084"
     height="33.345856"
     rx="6.7920032"
     shape-rendering="crispEdges"
     id="rect5-6-6-6-6"
     style="isolation:isolate;fill:#f300ff;fill-opacity:0.13470298;stroke:url(#linearGradient15);stroke-width:1.67233;stroke-miterlimit:4;stroke-dasharray:none;stroke-opacity:1"
     ry="7.4743071"
     transform="matrix(0.72446484,-0.68931175,0.68622417,0.72739012,0,0)"
     width="33.338203" />
  <path
     style="color:#000000;fill:url(#linearGradient923);fill-rule:evenodd;-inkscape-stroke:none"
     d="m 24.076172,9.1777344 c -0.466844,-0.00177 -0.934581,0.1139573 -1.335938,0.3457031 v -0.00195 L 11.912109,15.773438 c -0.801702,0.462907 -1.333984,1.386683 -1.333984,2.312499 v 11.31836 c 0,0.925212 0.531551,1.849691 1.330078,2.316406 l 12.009766,7.023438 c 0.399349,0.233407 0.87779,0.304559 1.265625,0.08203 0.387834,-0.222528 0.568359,-0.672159 0.568359,-1.134766 v -7.572265 c 0,-0.962049 -0.789904,-1.753907 -1.751953,-1.753907 -0.962049,0 -1.751953,0.791858 -1.751953,1.753907 v 3.078125 l -8.164063,-4.744141 v -9.884766 l 9.84375,-5.68164 6.722657,3.78125 -0.04492,-0.0293 c 0.782699,0.561804 1.886366,0.382078 2.447265,-0.400391 0.56086,-0.782409 0.376459,-1.887408 -0.40625,-2.449218 l -0.01758,-0.01172 -7.220703,-4.2441409 C 25.008796,9.2984308 24.543016,9.1795019 24.076172,9.1777344 Z m -0.835938,1.2109376 c 0.394915,-0.228026 1.269559,-0.224883 1.66211,0.0059 l 7.162109,4.210938 c 0.341595,0.248127 0.41956,0.710705 0.175781,1.050781 -0.244618,0.341248 -0.70796,0.417393 -1.052734,0.169922 l -0.02148,-0.01758 -0.02539,-0.01172 -7.21875,-4.0625 -10.837891,6.257812 v 11.035157 l 8.871094,5.15625 c 0.250714,0.145288 0.593461,0.205694 0.882813,0.03906 0.289352,-0.166631 0.410156,-0.495429 0.410156,-0.785156 v -3.318359 c 0,-0.420987 0.330967,-0.753907 0.751953,-0.753907 0.420986,0 0.751953,0.33292 0.751953,0.753907 v 7.572265 c 0,0.228911 -0.06065,0.265395 -0.06445,0.267578 -0.0038,0.0022 -0.06609,0.03736 -0.263672,-0.07813 L 12.412109,30.857422 c -0.395343,-0.231067 -0.833984,-0.995303 -0.833984,-1.453125 v -11.31836 c 0,-0.457218 0.438058,-1.216702 0.833984,-1.445312 z m 13.613282,6.123047 c -0.386972,-0.223419 -0.864759,-0.155291 -1.265625,0.07617 l -11.226563,6.482421 c -0.0986,0.05693 -0.49783,0.06104 -0.597656,0.0059 l -6.423828,-3.554688 0.04492,0.02734 c -0.787936,-0.552861 -1.889383,-0.363582 -2.445313,0.421875 -0.556057,0.785638 -0.364817,1.888979 0.421875,2.445313 l 0.01953,0.01172 7.214844,4.166016 c 0.801748,0.462933 1.868174,0.462933 2.669922,0 l 8.650391,-4.992188 v 8.416016 l -6.771485,3.714844 -0.0098,0.0059 c -0.821955,0.499791 -1.089244,1.582755 -0.59375,2.40625 0.495466,0.823451 1.579382,1.092828 2.402343,0.597656 l 7.128907,-3.972656 c 0.809885,-0.45199 1.349609,-1.372851 1.349609,-2.300781 V 17.646484 c 0,-0.462908 -0.181388,-0.911346 -0.568359,-1.134765 z m -0.5,0.867187 c 0.0058,0.0033 0.06836,0.03897 0.06836,0.267578 V 30.46875 c 0,0.455104 -0.440127,1.203793 -0.837891,1.425781 l -7.148437,3.986328 -0.0078,0.0039 c -0.359633,0.216389 -0.815154,0.103284 -1.03125,-0.25586 -0.215684,-0.358462 -0.101312,-0.815408 0.257813,-1.035156 6.38e-4,-3.9e-4 -6.4e-4,-0.0016 0,-0.002 l 7.261719,-3.982422 V 19.869141 l -10.150391,5.857421 c -0.395881,0.228584 -1.274041,0.228584 -1.669922,0 l -7.15625,-4.130859 c -0.343871,-0.246101 -0.426619,-0.70627 -0.185547,-1.046875 0.242072,-0.342016 0.710839,-0.424275 1.056641,-0.181641 l 0.02148,0.01563 6.447266,3.56836 c 0.505251,0.279303 1.081815,0.275155 1.582031,-0.01367 l 11.226563,-6.484375 c 0.197948,-0.114296 0.25986,-0.07755 0.265625,-0.07422 z"
     id="path9" />
  <linearGradient
     id="_lgradient_33"
     x1="1.0749999999999993"
     y1="0.17104998588407705"
     x2="-0.004708149779736104"
     y2="0.8099175767650044"
     gradientTransform="matrix(6.2637519,0,0,5.5878931,26.505501,27.341764)"
     gradientUnits="userSpaceOnUse">
    <stop
       offset="0%"
       stop-opacity="1"
       style="stop-color:rgb(117,127,154)"
       id="stop11" />
    <stop
       offset="98.69565217391305%"
       stop-opacity="1"
       style="stop-color:rgb(215,221,232)"
       id="stop13" />
  </linearGradient>
  <path
     style="color:#000000;fill:url(#linearGradient1168);-inkscape-stroke:none"
     d="m 32.865234,27.183594 c -0.279996,-0.169483 -0.623661,-0.130089 -0.882812,0.0059 l -5.154297,2.705078 h -0.002 c -0.517131,0.272341 -0.820313,0.773882 -0.820313,1.359375 v 1.048828 c 0,0.292651 0.124339,0.615915 0.404297,0.785157 0.279958,0.169241 0.623662,0.130088 0.882813,-0.0059 l 5.154297,-2.705078 c 0.517131,-0.272341 0.822265,-0.775835 0.822265,-1.361328 V 27.96875 c 0,-0.292746 -0.1243,-0.615673 -0.404297,-0.785156 z m -0.595703,0.984375 v 0.847656 c 0,0.105707 -0.192592,0.423529 -0.287109,0.474609 l -4.976563,2.611328 v -0.847656 c 0,-0.106024 0.192899,-0.424994 0.28711,-0.474609 z"
     id="path16" />
</svg>
