<?xml version="1.0" encoding="UTF-8" standalone="no"?>
<!-- Generator: Gravit.io -->

<svg
   style="isolation:isolate"
   viewBox="0 0 48 48"
   width="48pt"
   height="48pt"
   version="1.1"
   id="svg25"
   sodipodi:docname="julia.svg"
   inkscape:version="1.1.2 (0a00cf5339, 2022-02-04)"
   xmlns:inkscape="http://www.inkscape.org/namespaces/inkscape"
   xmlns:sodipodi="http://sodipodi.sourceforge.net/DTD/sodipodi-0.dtd"
   xmlns:xlink="http://www.w3.org/1999/xlink"
   xmlns="http://www.w3.org/2000/svg"
   xmlns:svg="http://www.w3.org/2000/svg">
  <defs
     id="defs29">
    <linearGradient
       inkscape:collect="always"
       xlink:href="#_lgradient_3"
       id="linearGradient872"
       x1="-12.025727"
       y1="6.1170783"
       x2="-0.085100174"
       y2="6.1170783"
       gradientUnits="userSpaceOnUse"
       gradientTransform="matrix(3.8358211,0,0,3.8371386,-0.00544341,-0.00268054)" />
    <linearGradient
       id="_lgradient_1"
       x1="0.18336116"
       y1="0.24917752"
       x2="0.9027437"
       y2="0.90347725"
       gradientTransform="matrix(24.617266,0,0,24.816118,10.841288,10.089605)"
       gradientUnits="userSpaceOnUse">
      <stop
         offset="2.608695652173913%"
         stop-opacity="1"
         style="stop-color:rgb(179,255,171)"
         id="stop2-3" />
      <stop
         offset="98.69565217391305%"
         stop-opacity="1"
         style="stop-color:rgb(18,255,247)"
         id="stop4-6" />
    </linearGradient>
    <linearGradient
       inkscape:collect="always"
       xlink:href="#_lgradient_3"
       id="linearGradient15"
       x1="-9.6850061"
       y1="45.161198"
       x2="11.98815"
       y2="21.735205"
       gradientUnits="userSpaceOnUse"
       gradientTransform="matrix(1.1147442,0,0,1.1150348,-0.01237238,-3.3277956)" />
    <linearGradient
       inkscape:collect="always"
       xlink:href="#_lgradient_3"
       id="linearGradient1056"
       x1="17.466331"
       y1="14.563734"
       x2="30.533669"
       y2="14.563734"
       gradientUnits="userSpaceOnUse" />
    <linearGradient
       inkscape:collect="always"
       xlink:href="#_lgradient_4"
       id="linearGradient1104"
       x1="24.593969"
       y1="28.225042"
       x2="37.661308"
       y2="28.225042"
       gradientUnits="userSpaceOnUse" />
    <linearGradient
       inkscape:collect="always"
       xlink:href="#_lgradient_5"
       id="linearGradient1178"
       x1="10.149758"
       y1="21.819946"
       x2="23.621075"
       y2="35.703388"
       gradientUnits="userSpaceOnUse" />
  </defs>
  <sodipodi:namedview
     id="namedview27"
     pagecolor="#ffffff"
     bordercolor="#666666"
     borderopacity="1.0"
     inkscape:pageshadow="2"
     inkscape:pageopacity="0.0"
     inkscape:pagecheckerboard="0"
     inkscape:document-units="pt"
     showgrid="false"
     inkscape:zoom="10.21875"
     inkscape:cx="31.95107"
     inkscape:cy="32"
     inkscape:window-width="1600"
     inkscape:window-height="836"
     inkscape:window-x="0"
     inkscape:window-y="0"
     inkscape:window-maximized="1"
     inkscape:current-layer="svg25" />
  <linearGradient
     id="_lgradient_3"
     x1="0.031182562838213412"
     y1="0.10866627890091946"
     x2="0.9583795358695032"
     y2="0.9751947012019755"
     gradientTransform="matrix(13.067338,0,0,13.067338,17.466331,8.0300649)"
     gradientUnits="userSpaceOnUse">
    <stop
       offset="0%"
       stop-opacity="1"
       style="stop-color:rgb(165,248,106)"
       id="stop2" />
    <stop
       offset="97.91666666666666%"
       stop-opacity="1"
       style="stop-color:rgb(47,206,146)"
       id="stop4" />
  </linearGradient>
  <rect
     x="-46.783188"
     y="1.2253767"
     height="45.80014"
     rx="6.1837621"
     shape-rendering="crispEdges"
     id="rect5-6-7-3"
     ry="6.8055277"
     transform="matrix(0.00524063,-0.99998627,0.99998801,0.00489691,0,0)"
     style="isolation:isolate;fill:#00ff2d;fill-opacity:0.13470298;stroke:url(#linearGradient872);stroke-width:2.0301;stroke-miterlimit:4;stroke-dasharray:none;stroke-opacity:1"
     width="45.801998" />
  <rect
     x="-15.686804"
     y="17.260084"
     height="33.345856"
     rx="6.7920032"
     shape-rendering="crispEdges"
     id="rect5-6-6-6-6"
     style="isolation:isolate;fill:#00ff2d;fill-opacity:0.13470298;stroke:url(#linearGradient15);stroke-width:1.67233;stroke-miterlimit:4;stroke-dasharray:none;stroke-opacity:1"
     ry="7.4743071"
     transform="matrix(0.72446484,-0.68931175,0.68622417,0.72739012,0,0)"
     width="33.338203" />
  <path
     style="color:#000000;fill:url(#linearGradient1056);fill-rule:evenodd;-inkscape-stroke:none"
     d="m 24,7.5292969 c -1.86681,0 -3.65721,0.743148 -4.974609,2.0605469 -1.3174,1.3174002 -2.058594,3.1077992 -2.058594,4.9746092 0,1.86681 0.741194,3.65721 2.058594,4.974609 1.3174,1.3174 3.107799,2.058594 4.974609,2.058594 1.86681,0 3.657209,-0.741194 4.974609,-2.058594 1.3174,-1.317399 2.058594,-3.107799 2.058594,-4.974609 0,-1.86681 -0.741194,-3.657209 -2.058594,-4.9746092 C 27.65721,8.2724449 25.86681,7.5292969 24,7.5292969 Z m 0,1 c 1.60197,0 3.137824,0.6378252 4.267578,1.7675781 1.129754,1.129754 1.765625,2.665608 1.765625,4.267578 0,1.60197 -0.635871,3.137825 -1.765625,4.267578 C 27.137825,19.961785 25.60197,20.597656 24,20.597656 c -1.60197,0 -3.137825,-0.635871 -4.267578,-1.765625 -1.129754,-1.129753 -1.765625,-2.665608 -1.765625,-4.267578 0,-1.60197 0.635871,-3.137824 1.765625,-4.267578 C 20.862176,9.1671221 22.39803,8.5292969 24,8.5292969 Z M 24,9.90625 c -1.237399,0 -2.421308,0.491621 -3.292969,1.363281 -0.871661,0.871662 -1.365234,2.057523 -1.365234,3.294922 0,1.237399 0.493573,2.421308 1.365234,3.292969 0.871662,0.871661 2.05557,1.363281 3.292969,1.363281 1.237399,0 2.421307,-0.49162 3.292969,-1.363281 0.871661,-0.871661 1.365234,-2.05557 1.365234,-3.292969 0,-1.237399 -0.493573,-2.42326 -1.365234,-3.294922 C 26.421308,10.397871 25.237399,9.90625 24,9.90625 Z m 0,1 c 0.972166,0 1.901398,0.385774 2.585937,1.070313 0.68454,0.684539 1.072266,1.615723 1.072266,2.58789 0,0.972167 -0.387727,1.9014 -1.072266,2.585938 -0.684539,0.684539 -1.61377,1.070312 -2.585937,1.070312 -0.972167,0 -1.901398,-0.385773 -2.585938,-1.070312 -0.684538,-0.684538 -1.072265,-1.613771 -1.072265,-2.585938 0,-0.972167 0.387726,-1.903351 1.072265,-2.58789 C 22.098602,11.292024 23.027834,10.90625 24,10.90625 Z"
     id="path7" />
  <linearGradient
     id="_lgradient_4"
     x1="0.031182562838213412"
     y1="0.10866627890091946"
     x2="0.9583795358695032"
     y2="0.9751947012019755"
     gradientTransform="matrix(13.067338,0,0,13.067338,24.59397,21.691373)"
     gradientUnits="userSpaceOnUse">
    <stop
       offset="0%"
       stop-opacity="1"
       style="stop-color:rgb(199,81,251)"
       id="stop9" />
    <stop
       offset="97.5%"
       stop-opacity="1"
       style="stop-color:rgb(109,68,222)"
       id="stop11" />
  </linearGradient>
  <path
     style="color:#000000;fill:url(#linearGradient1104);fill-rule:evenodd;-inkscape-stroke:none"
     d="m 31.126953,21.191406 c -1.86681,0 -3.657209,0.741194 -4.974609,2.058594 -1.3174,1.3174 -2.058594,3.107799 -2.058594,4.974609 0,1.866811 0.741194,3.65721 2.058594,4.97461 1.3174,1.317399 3.107799,2.058593 4.974609,2.058593 1.866811,0 3.65721,-0.741195 4.974609,-2.058593 1.3174,-1.3174 2.060547,-3.107799 2.060547,-4.97461 0,-1.86681 -0.743147,-3.657209 -2.060547,-4.974609 -1.317399,-1.3174 -3.107799,-2.058594 -4.974609,-2.058594 z m 0,1 c 1.60197,0 3.137825,0.635872 4.267578,1.765625 1.129754,1.129754 1.767578,2.665608 1.767578,4.267578 0,1.60197 -0.637824,3.137825 -1.767578,4.267578 -1.129754,1.129753 -2.665608,1.765626 -4.267578,1.765625 -1.60197,0 -3.137824,-0.635872 -4.267578,-1.765625 -1.129754,-1.129753 -1.765625,-2.665607 -1.765625,-4.267578 0,-1.60197 0.635871,-3.137824 1.765625,-4.267578 1.129754,-1.129753 2.665608,-1.765625 4.267578,-1.765625 z m 0,1.375 c -1.237399,0 -2.421308,0.493573 -3.292969,1.365235 -0.871661,0.87166 -1.363281,2.055569 -1.363281,3.292968 0,1.2374 0.49162,2.423261 1.363281,3.294922 0.871661,0.871661 2.05557,1.363281 3.292969,1.363281 1.237399,0 2.423261,-0.491621 3.294922,-1.363281 0.87166,-0.871661 1.363281,-2.057522 1.363281,-3.294922 0,-1.237399 -0.491621,-2.421308 -1.363281,-3.292968 -0.871661,-0.871662 -2.057523,-1.365235 -3.294922,-1.365235 z m 0,1 c 0.972167,0 1.903352,0.387727 2.587891,1.072266 0.684538,0.684538 1.070312,1.613771 1.070312,2.585937 0,0.972167 -0.385774,1.903352 -1.070312,2.587891 -0.68454,0.684538 -1.615724,1.070312 -2.587891,1.070312 -0.972166,10e-7 -1.901399,-0.385774 -2.585937,-1.070312 -0.68454,-0.684539 -1.070313,-1.615724 -1.070313,-2.587891 0,-0.972166 0.385774,-1.901399 1.070313,-2.585937 0.684537,-0.684539 1.61377,-1.072266 2.585937,-1.072266 z"
     id="path14" />
  <linearGradient
     id="_lgradient_5"
     x1="-0.014458464773922156"
     y1="0.009839246119734024"
     x2="1.0164565923220248"
     y2="1.0722930524759795"
     gradientTransform="matrix(13.067338,0,0,13.067338,10.338692,21.691373)"
     gradientUnits="userSpaceOnUse">
    <stop
       offset="0%"
       stop-opacity="1"
       style="stop-color:rgb(249,212,35)"
       id="stop16" />
    <stop
       offset="51.56237565086822%"
       stop-opacity="1"
       style="stop-color:rgb(255,78,80)"
       id="stop18" />
    <stop
       offset="99.1304347826087%"
       stop-opacity="1"
       style="stop-color:rgb(138,35,135)"
       id="stop20" />
  </linearGradient>
  <path
     style="color:#000000;fill:url(#linearGradient1178);fill-rule:evenodd;-inkscape-stroke:none"
     d="m 16.873047,21.191406 c -1.86681,0 -3.65721,0.741194 -4.974609,2.058594 -1.3174,1.3174 -2.0605474,3.107799 -2.0605474,4.974609 0,1.866811 0.7431474,3.65721 2.0605474,4.97461 1.317399,1.317398 3.107798,2.058593 4.974609,2.058593 1.86681,0 3.657209,-0.741194 4.974609,-2.058593 1.3174,-1.3174 2.058594,-3.107799 2.058594,-4.97461 0,-1.86681 -0.741194,-3.657209 -2.058594,-4.974609 -1.3174,-1.3174 -3.107799,-2.058594 -4.974609,-2.058594 z m 0,1 c 1.60197,0 3.137824,0.635872 4.267578,1.765625 1.129754,1.129754 1.765625,2.665608 1.765625,4.267578 0,1.601971 -0.635871,3.137825 -1.765625,4.267578 -1.129754,1.129753 -2.665608,1.765626 -4.267578,1.765625 -1.60197,0 -3.137824,-0.635872 -4.267578,-1.765625 -1.129754,-1.129753 -1.767578,-2.665608 -1.767578,-4.267578 0,-1.60197 0.637824,-3.137824 1.767578,-4.267578 1.129753,-1.129753 2.665608,-1.765625 4.267578,-1.765625 z m 0,1.375 c -1.237399,0 -2.423261,0.493573 -3.294922,1.365235 -0.87166,0.87166 -1.363281,2.055569 -1.363281,3.292968 0,1.2374 0.491621,2.423261 1.363281,3.294922 0.871661,0.87166 2.057523,1.363281 3.294922,1.363281 1.237399,0 2.421308,-0.49162 3.292969,-1.363281 0.871661,-0.871661 1.363281,-2.057522 1.363281,-3.294922 0,-1.237399 -0.49162,-2.421308 -1.363281,-3.292968 -0.871661,-0.871662 -2.05557,-1.365235 -3.292969,-1.365235 z m 0,1 c 0.972167,0 1.9014,0.387727 2.585937,1.072266 0.684539,0.684538 1.070313,1.613771 1.070313,2.585937 0,0.972167 -0.385773,1.903352 -1.070313,2.587891 -0.684538,0.684538 -1.613771,1.070312 -2.585937,1.070312 -0.972167,10e-7 -1.903351,-0.385774 -2.587891,-1.070312 -0.684538,-0.684539 -1.070312,-1.615724 -1.070312,-2.587891 0,-0.972166 0.385774,-1.901399 1.070312,-2.585937 0.684539,-0.684539 1.615724,-1.072266 2.587891,-1.072266 z"
     id="path23" />
</svg>
