<?xml version="1.0" encoding="UTF-8" standalone="no"?>
<!-- Generator: Gravit.io -->

<svg
   style="isolation:isolate"
   viewBox="0 0 48 48"
   width="48pt"
   height="48pt"
   version="1.1"
   id="svg9"
   sodipodi:docname="jupyterlab.svg"
   inkscape:version="1.1.2 (0a00cf5339, 2022-02-04)"
   xmlns:inkscape="http://www.inkscape.org/namespaces/inkscape"
   xmlns:sodipodi="http://sodipodi.sourceforge.net/DTD/sodipodi-0.dtd"
   xmlns:xlink="http://www.w3.org/1999/xlink"
   xmlns="http://www.w3.org/2000/svg"
   xmlns:svg="http://www.w3.org/2000/svg">
  <defs
     id="defs13">
    <linearGradient
       inkscape:collect="always"
       xlink:href="#_lgradient_13"
       id="linearGradient872"
       x1="-12.025727"
       y1="6.1170783"
       x2="-0.085100174"
       y2="6.1170783"
       gradientUnits="userSpaceOnUse"
       gradientTransform="matrix(3.8358211,0,0,3.8371386,-0.00544341,-0.00268054)" />
    <linearGradient
       id="_lgradient_1"
       x1="0.18336116"
       y1="0.24917752"
       x2="0.9027437"
       y2="0.90347725"
       gradientTransform="matrix(24.617266,0,0,24.816118,10.841288,10.089605)"
       gradientUnits="userSpaceOnUse">
      <stop
         offset="2.608695652173913%"
         stop-opacity="1"
         style="stop-color:rgb(179,255,171)"
         id="stop2-3" />
      <stop
         offset="98.69565217391305%"
         stop-opacity="1"
         style="stop-color:rgb(18,255,247)"
         id="stop4-6" />
    </linearGradient>
    <linearGradient
       inkscape:collect="always"
       xlink:href="#_lgradient_13"
       id="linearGradient15"
       x1="-9.6850061"
       y1="45.161198"
       x2="11.98815"
       y2="21.735205"
       gradientUnits="userSpaceOnUse"
       gradientTransform="matrix(1.1147442,0,0,1.1150348,-0.01237238,-3.3277956)" />
    <linearGradient
       inkscape:collect="always"
       xlink:href="#_lgradient_13"
       id="linearGradient1310"
       x1="11.568752"
       y1="24"
       x2="38.537872"
       y2="24"
       gradientUnits="userSpaceOnUse" />
  </defs>
  <sodipodi:namedview
     id="namedview11"
     pagecolor="#ffffff"
     bordercolor="#666666"
     borderopacity="1.0"
     inkscape:pageshadow="2"
     inkscape:pageopacity="0.0"
     inkscape:pagecheckerboard="0"
     inkscape:document-units="pt"
     showgrid="false"
     inkscape:zoom="10.21875"
     inkscape:cx="31.95107"
     inkscape:cy="32"
     inkscape:window-width="1600"
     inkscape:window-height="836"
     inkscape:window-x="0"
     inkscape:window-y="0"
     inkscape:window-maximized="1"
     inkscape:current-layer="svg9" />
  <linearGradient
     id="_lgradient_13"
     x1="0"
     y1="0.5"
     x2="1"
     y2="0.5"
     gradientTransform="matrix(42.576963,0,0,42.546191,3.7145994,2.7762304)"
     gradientUnits="userSpaceOnUse">
    <stop
       offset="0%"
       stop-opacity="1"
       style="stop-color:rgb(255,95,109)"
       id="stop2" />
    <stop
       offset="98.26086956521739%"
       stop-opacity="1"
       style="stop-color:rgb(255,195,113)"
       id="stop4" />
  </linearGradient>
  <g
     id="g850">
    <rect
       x="-46.783188"
       y="1.2253767"
       height="45.80014"
       rx="6.1837621"
       shape-rendering="crispEdges"
       id="rect5-6-7-3"
       ry="6.8055277"
       transform="matrix(0.00524063,-0.99998627,0.99998801,0.00489691,0,0)"
       style="isolation:isolate;fill:#ff6900;fill-opacity:0.134703;stroke:url(#linearGradient872);stroke-width:2.0301;stroke-miterlimit:4;stroke-dasharray:none;stroke-opacity:1"
       width="45.801998" />
    <rect
       x="-15.686804"
       y="17.260084"
       height="33.345856"
       rx="6.7920032"
       shape-rendering="crispEdges"
       id="rect5-6-6-6-6"
       style="isolation:isolate;fill:#ff6900;fill-opacity:0.134703;stroke:url(#linearGradient15);stroke-width:1.67233;stroke-miterlimit:4;stroke-dasharray:none;stroke-opacity:1"
       ry="7.4743071"
       transform="matrix(0.72446484,-0.68931175,0.68622417,0.72739012,0,0)"
       width="33.338203" />
  </g>
  <path
     style="color:#000000;fill:url(#linearGradient1310);fill-rule:evenodd;-inkscape-stroke:none"
     d="m 11.068359,16.1875 v 15.439453 h 3.832032 V 16.1875 h -0.5 z m 17.28125,0 v 15.439453 h 2.996094 l 0.400391,-0.964844 c 0.74864,0.705037 1.678156,1.150391 2.800781,1.150391 1.358256,0 2.519713,-0.556714 3.318359,-1.607422 0.80295,-1.056585 1.171875,-2.500132 1.171875,-4.283203 0,-1.734123 -0.36047,-3.157174 -1.134765,-4.224609 -0.774855,-1.069137 -1.926348,-1.640625 -3.28125,-1.640625 -0.99491,0 -1.802035,0.39798 -2.494141,0.966796 0.01651,-0.317064 0.05273,-0.763675 0.05273,-0.976562 V 16.1875 Z m -16.28125,1 h 1.832032 v 13.439453 h -1.832032 z m 17.28125,0 h 1.830078 v 2.859375 c 0,0.397589 -0.03563,1.076962 -0.109375,2.011719 l -0.04297,0.539062 h 0.923828 l 0.148437,-0.228515 c 0.581171,-0.901689 1.353506,-1.3125 2.521485,-1.3125 1.094803,0 1.86216,0.384205 2.472656,1.226562 v 0.002 c 0.612264,0.844061 0.943359,2.041414 0.943359,3.636719 0,1.644104 -0.342906,2.8542 -0.96875,3.677734 -0.631354,0.830617 -1.417967,1.212891 -2.521484,1.212891 -1.097863,0 -1.869087,-0.362185 -2.474609,-1.134766 l -0.150391,-0.191406 h -0.771484 l -0.472657,1.140625 h -1.328125 z m -7.730468,2.851562 c -1.525783,0 -2.93516,0.330365 -4.203125,0.994141 l -0.431641,0.224609 1.363281,2.783204 0.441406,-0.197266 c 1.07789,-0.48203 1.990392,-0.707031 2.71875,-0.707031 0.456794,0 0.711404,0.105473 0.861329,0.251953 0.144558,0.141236 0.237089,0.383957 0.24414,0.794922 l -1.30664,0.04102 h -0.002 c -1.606173,0.05741 -2.855668,0.346785 -3.748046,0.953125 -0.905544,0.614097 -1.375,1.631828 -1.375,2.84961 0,1.142333 0.324824,2.108954 1.005859,2.787109 0.675441,0.671171 1.613709,0.998047 2.705078,0.998047 0.857988,0 1.584933,-0.118493 2.181641,-0.392578 0.398344,-0.183669 0.745025,-0.577032 1.101562,-0.927735 l 0.439453,1.134766 h 2.820313 v -0.5 -6.914062 c 0,-1.337475 -0.425669,-2.440505 -1.296875,-3.152344 -0.861285,-0.703162 -2.054938,-1.021485 -3.519531,-1.021485 z m 0,1 c 1.319383,0 2.262493,0.287252 2.886718,0.796875 0.612292,0.500933 0.929688,1.240144 0.929688,2.376954 v 6.414062 h -1.134766 l -0.548828,-1.410156 h -0.65625 l -0.150391,0.189453 c -0.442852,0.557769 -0.879528,0.916641 -1.289062,1.105469 -0.412137,0.189306 -1.000993,0.300781 -1.763672,0.300781 -0.900979,0 -1.530232,-0.240233 -2,-0.707031 -0.462975,-0.461018 -0.710937,-1.117088 -0.710937,-2.078125 0,-0.98454 0.302022,-1.590534 0.9375,-2.021485 0.647067,-0.43966 1.720091,-0.727399 3.21875,-0.78125 l 2.285156,-0.07227 v -0.939453 c 0,-0.611136 -0.166401,-1.161653 -0.554688,-1.541016 -0.388286,-0.379363 -0.940917,-0.535156 -1.560547,-0.535156 -0.788028,0 -1.697759,0.29718 -2.65039,0.673828 l -0.492188,-1.00586 c 1.001592,-0.444089 2.051094,-0.765625 3.253907,-0.765625 z m 12.09375,1.283204 c -0.8017,0 -1.505846,0.274958 -1.931641,0.84375 h -0.002 c -0.429854,0.57502 -0.586258,1.380494 -0.59961,2.423828 v 0.0039 0.308594 c 0,1.163399 0.151208,2.047095 0.583985,2.677734 0.426134,0.621316 1.156406,0.939453 1.986328,0.939453 0.735008,0 1.394031,-0.388042 1.806641,-1.03125 0.421289,-0.656738 0.595703,-1.527126 0.595703,-2.603515 0,-1.077453 -0.174133,-1.939514 -0.607422,-2.578125 -0.421702,-0.621531 -1.089965,-0.984375 -1.832031,-0.984375 z m 0,1 c 0.45865,0 0.734884,0.145541 1.005859,0.544921 0.259386,0.382302 0.433594,1.053207 0.433594,2.017579 0,0.964226 -0.172148,1.648849 -0.4375,2.0625 -0.274032,0.427181 -0.536543,0.572265 -0.964844,0.572265 -0.606113,0 -0.926944,-0.16298 -1.162109,-0.505859 C 32.35816,27.67891 32.179687,26.96661 32.179687,25.902344 v -0.298828 c 0.01199,-0.936946 0.189,-1.552498 0.402344,-1.837891 0.217377,-0.289574 0.534825,-0.443359 1.13086,-0.443359 z m -10.089844,2.480468 -1.611328,0.05469 c -0.875533,0.02696 -1.574462,0.174309 -2.101563,0.53125 -0.533566,0.360777 -0.824219,0.980847 -0.824219,1.658203 0,0.494519 0.162151,0.965602 0.515625,1.273437 0.353475,0.307836 0.828839,0.421876 1.359375,0.421875 0.7517,0 1.426833,-0.231682 1.919922,-0.705078 0.492035,-0.473139 0.742188,-1.133956 0.742188,-1.863281 z m -1,1.035157 v 0.335937 c 0,0.519664 -0.141987,0.860291 -0.435547,1.142578 -0.292508,0.280826 -0.666521,0.425781 -1.226563,0.425781 -0.385389,0 -0.598637,-0.08479 -0.703125,-0.175781 -0.104487,-0.091 -0.171875,-0.216388 -0.171875,-0.519531 0,-0.436477 0.113427,-0.646609 0.384766,-0.830078 0.276596,-0.187305 0.80179,-0.335652 1.572266,-0.359375 z"
     id="path7" />
</svg>
