<?xml version="1.0" encoding="UTF-8" standalone="no"?>
<!-- Generator: Gravit.io -->

<svg
   style="isolation:isolate"
   viewBox="0 0 48 48"
   width="48pt"
   height="48pt"
   version="1.1"
   id="svg20"
   sodipodi:docname="kaddressbook.svg"
   inkscape:version="1.1.2 (0a00cf5339, 2022-02-04)"
   xmlns:inkscape="http://www.inkscape.org/namespaces/inkscape"
   xmlns:sodipodi="http://sodipodi.sourceforge.net/DTD/sodipodi-0.dtd"
   xmlns:xlink="http://www.w3.org/1999/xlink"
   xmlns="http://www.w3.org/2000/svg"
   xmlns:svg="http://www.w3.org/2000/svg">
  <defs
     id="defs24">
    <linearGradient
       inkscape:collect="always"
       xlink:href="#_lgradient_8"
       id="linearGradient872"
       x1="-12.025727"
       y1="6.1170783"
       x2="-0.085100174"
       y2="6.1170783"
       gradientUnits="userSpaceOnUse"
       gradientTransform="matrix(3.8358211,0,0,3.8371386,-0.00544341,-0.00268054)" />
    <linearGradient
       id="_lgradient_1"
       x1="0.18336116"
       y1="0.24917752"
       x2="0.9027437"
       y2="0.90347725"
       gradientTransform="matrix(24.617266,0,0,24.816118,10.841288,10.089605)"
       gradientUnits="userSpaceOnUse">
      <stop
         offset="2.608695652173913%"
         stop-opacity="1"
         style="stop-color:rgb(179,255,171)"
         id="stop2-3" />
      <stop
         offset="98.69565217391305%"
         stop-opacity="1"
         style="stop-color:rgb(18,255,247)"
         id="stop4-6" />
    </linearGradient>
    <linearGradient
       inkscape:collect="always"
       xlink:href="#_lgradient_8"
       id="linearGradient15"
       x1="-9.6850061"
       y1="45.161198"
       x2="11.98815"
       y2="21.735205"
       gradientUnits="userSpaceOnUse"
       gradientTransform="matrix(1.1147442,0,0,1.1150348,-0.01237238,-3.3277956)" />
    <linearGradient
       inkscape:collect="always"
       xlink:href="#_lgradient_8"
       id="linearGradient943"
       x1="14.178094"
       y1="24"
       x2="33.821907"
       y2="24"
       gradientUnits="userSpaceOnUse" />
    <linearGradient
       inkscape:collect="always"
       xlink:href="#_lgradient_9"
       id="linearGradient973"
       x1="20.036758"
       y1="22.266081"
       x2="31.166039"
       y2="22.266081"
       gradientUnits="userSpaceOnUse" />
  </defs>
  <sodipodi:namedview
     id="namedview22"
     pagecolor="#ffffff"
     bordercolor="#666666"
     borderopacity="1.0"
     inkscape:pageshadow="2"
     inkscape:pageopacity="0.0"
     inkscape:pagecheckerboard="0"
     inkscape:document-units="pt"
     showgrid="false"
     inkscape:zoom="10.21875"
     inkscape:cx="31.95107"
     inkscape:cy="32"
     inkscape:window-width="1600"
     inkscape:window-height="836"
     inkscape:window-x="0"
     inkscape:window-y="0"
     inkscape:window-maximized="1"
     inkscape:current-layer="svg20" />
  <linearGradient
     id="_lgradient_8"
     x1="0.09111179286287627"
     y1="0.2538432577817364"
     x2="0.8660625710365121"
     y2="0.857630994515282"
     gradientTransform="matrix(19.643811,0,0,23.779455,14.178095,12.110273)"
     gradientUnits="userSpaceOnUse">
    <stop
       offset="1.3043478260869565%"
       stop-opacity="1"
       style="stop-color:rgb(223,87,255)"
       id="stop2" />
    <stop
       offset="52.083333333333336%"
       stop-opacity="1"
       style="stop-color:rgb(36,30,252)"
       id="stop4" />
    <stop
       offset="97.91666666666666%"
       stop-opacity="1"
       style="stop-color:rgb(14,175,254)"
       id="stop6" />
  </linearGradient>
  <rect
     x="-46.783188"
     y="1.2253767"
     height="45.80014"
     rx="6.1837621"
     shape-rendering="crispEdges"
     id="rect5-6-7-3"
     ry="6.8055277"
     transform="matrix(0.00524063,-0.99998627,0.99998801,0.00489691,0,0)"
     style="isolation:isolate;fill:#009dff;fill-opacity:0.13470298;stroke:url(#linearGradient872);stroke-width:2.0301;stroke-miterlimit:4;stroke-dasharray:none;stroke-opacity:1"
     width="45.801998" />
  <rect
     x="-15.686804"
     y="17.260084"
     height="33.345856"
     rx="6.7920032"
     shape-rendering="crispEdges"
     id="rect5-6-6-6-6"
     style="isolation:isolate;fill:#009dff;fill-opacity:0.13470298;stroke:url(#linearGradient15);stroke-width:1.67233;stroke-miterlimit:4;stroke-dasharray:none;stroke-opacity:1"
     ry="7.4743071"
     transform="matrix(0.72446484,-0.68931175,0.68622417,0.72739012,0,0)"
     width="33.338203" />
  <path
     style="color:#000000;fill:url(#linearGradient943);fill-rule:evenodd;-inkscape-stroke:none"
     d="m 16.761719,11.609375 c -1.696966,0 -3.083985,1.388971 -3.083985,3.085938 v 17.058593 1.507813 0.02539 0.01758 c 0,1.696967 1.387019,3.085938 3.083985,3.085938 h 16.02539 c 0.84125,0 1.535157,-0.693906 1.535157,-1.535156 0,-0.84125 -0.693907,-1.533203 -1.535157,-1.533203 H 17.279297 c -0.08228,0 -0.120317,-0.02691 -0.191406,-0.03906 0.07109,-0.01216 0.109126,-0.03906 0.191406,-0.03906 h 13.958984 c 1.696966,0 3.083985,-1.387019 3.083985,-3.083985 v -1.550781 c 0,-0.84099 -0.693617,-1.533203 -1.535157,-1.533203 -0.841539,0 -1.533203,0.692213 -1.533203,1.533203 v 1.033203 c 0,0.300163 -0.23304,0.535156 -0.533203,0.535156 H 19.632812 V 27.101562 14.677734 h 10.570313 c 0.584767,0 1.050781,0.466014 1.050781,1.050782 v 6.720703 c 0,0.84099 0.691664,1.533203 1.533203,1.533203 0.84154,0 1.535157,-0.692213 1.535157,-1.533203 v -7.753906 c 0,-1.696967 -1.387019,-3.085938 -3.083985,-3.085938 z m 0,1 h 14.476562 c 1.155575,0 2.083985,0.930363 2.083985,2.085938 v 7.753906 c 0,0.299433 -0.235283,0.533203 -0.535157,0.533203 -0.299873,0 -0.533203,-0.23377 -0.533203,-0.533203 v -6.720703 c 0,-1.126362 -0.92442,-2.050782 -2.050781,-2.050782 H 18.632812 v 13.423828 3.080079 0.996093 h 0.5 11.587891 c 0.84125,0 1.533203,-0.693906 1.533203,-1.535156 v -1.033203 c 0,-0.299433 0.23333,-0.533203 0.533203,-0.533203 0.299874,0 0.535157,0.23377 0.535157,0.533203 v 1.550781 c 0,1.155575 -0.92841,2.083985 -2.083985,2.083985 H 17.279297 c -0.355811,0 -0.681455,0.06927 -0.960938,0.214843 -0.279483,0.145568 -0.572265,0.415876 -0.572265,0.824219 0,0.408344 0.292782,0.678651 0.572265,0.824219 0.279483,0.145568 0.605127,0.214844 0.960938,0.214844 h 15.507812 c 0.300163,0 0.535157,0.233041 0.535157,0.533203 0,0.300162 -0.234994,0.535156 -0.535157,0.535156 h -16.02539 c -1.155575,0 -2.083985,-0.930363 -2.083985,-2.085938 v -0.04297 c 0,-0.131422 0.01213,-0.257807 0.03516,-0.38086 l 0.111328,-0.59375 H 14.677734 V 31.753906 14.695313 c 0,-1.155575 0.92841,-2.085938 2.083985,-2.085938 z m 1.318359,1.009766 -0.568359,0.07813 c -0.997565,0.13895 -1.765625,1.001042 -1.765625,2.03125 v 15.613281 l 0.599609,-0.123047 c 0.133955,-0.02743 0.272761,-0.04102 0.416016,-0.04102 h 1.318359 v -0.5 -0.496093 -3.080079 z m -1,1.376953 v 12.105468 3.076172 h -0.318359 c -0.0054,0 -0.01027,0.0019 -0.01563,0.002 V 15.728516 c 0,-0.298286 0.137406,-0.542264 0.333984,-0.732422 z"
     id="path9" />
  <linearGradient
     id="_lgradient_9"
     x1="0"
     y1="0.5"
     x2="0.8869989918005107"
     y2="0.01134464763166343"
     gradientTransform="matrix(11.12928,0,0,11.394322,20.036758,16.568921)"
     gradientUnits="userSpaceOnUse">
    <stop
       offset="0%"
       stop-opacity="1"
       style="stop-color:rgb(84,51,255)"
       id="stop11" />
    <stop
       offset="49.166666666666664%"
       stop-opacity="1"
       style="stop-color:rgb(233,72,255)"
       id="stop13" />
    <stop
       offset="97.08333333333333%"
       stop-opacity="1"
       style="stop-color:rgb(255,0,91)"
       id="stop15" />
  </linearGradient>
  <path
     style="color:#000000;fill:url(#linearGradient973);fill-rule:evenodd;-inkscape-stroke:none"
     d="m 25.601562,16.068359 c -0.840088,0 -1.646463,0.335917 -2.240234,0.929688 -0.594092,0.593504 -0.927734,1.39936 -0.927734,2.238281 0,0.838921 0.333263,1.647716 0.927734,2.242188 0.225741,0.225741 0.48245,0.412297 0.759766,0.558593 l -0.05469,-0.0332 0.28711,0.203125 5.300781,3.75 v 0.494141 h -8.105469 v -0.458985 l 2.748047,-1.730468 c 0.465236,-0.292239 0.608589,-0.919226 0.318359,-1.384766 l -0.002,-0.002 c -0.292342,-0.467355 -0.923296,-0.607862 -1.388672,-0.314453 l -2.810547,1.765625 c -0.548498,0.344728 -0.876953,0.93813 -0.876953,1.585937 v 1.292969 c 0,0.689404 0.568409,1.257813 1.257813,1.257813 h 9.611328 c 0.689404,0 1.259766,-0.568409 1.259766,-1.257813 v -1.275391 c 0,-0.639524 -0.308953,-1.236058 -0.832032,-1.605468 L 27.28125,21.8125 c 0.183769,-0.119227 0.401234,-0.176624 0.558594,-0.333984 0.593887,-0.593888 0.929687,-1.402099 0.929687,-2.242188 0,-0.840089 -0.336179,-1.645361 -0.929687,-2.238281 -0.593304,-0.593303 -1.398192,-0.929688 -2.238282,-0.929688 z m 0,1 c 0.573798,0 1.124827,0.230295 1.53125,0.636719 0.406219,0.405817 0.636719,0.957453 0.636719,1.53125 0,0.573796 -0.230879,1.129317 -0.636719,1.535156 -0.253365,0.253367 -0.561365,0.43482 -0.898437,0.53711 l -0.978516,0.296875 5.001953,3.535156 c 0.161571,0.114105 0.408204,0.591352 0.408204,0.789062 v 1.275391 c 0,0.14882 -0.110945,0.257813 -0.259766,0.257813 h -9.611328 c -0.14882,0 -0.257813,-0.108993 -0.257813,-0.257813 v -1.292969 c 0,-0.189425 0.247283,-0.637143 0.408203,-0.738281 l 2.8125,-1.767578 c 0.0092,-0.0058 0.0039,-0.0063 0.0078,0 0.005,0.0081 0.0064,0.0038 0,0.0078 h -0.002 l -2.767578,1.742188 c -0.311875,0.19656 -0.447266,0.441525 -0.447266,0.810547 v 0.732422 c 0,0.41039 0.341563,0.751953 0.751953,0.751953 h 8.59961 c 0.41039,0 0.753906,-0.341563 0.753906,-0.751953 v -0.75 c 0,-0.360745 -0.124187,-0.598441 -0.417969,-0.806641 l -5.304687,-3.751953 -0.316407,-0.222656 -0.02734,-0.01563 c -0.190346,-0.100416 -0.365793,-0.227121 -0.519532,-0.38086 -0.405255,-0.405255 -0.634765,-0.960192 -0.634765,-1.535156 0,-0.574965 0.229131,-1.126017 0.634765,-1.53125 0.405957,-0.405956 0.959408,-0.636719 1.533203,-0.636719 z m 0,0.03711 c -0.563336,0 -1.107442,0.222403 -1.507812,0.625 -0.399449,0.399449 -0.623047,0.941641 -0.623047,1.505859 0,0.564218 0.222113,1.10753 0.623047,1.507813 0.400404,0.400404 0.943595,0.623047 1.507812,0.623046 0.563335,0 1.104446,-0.222631 1.503907,-0.621093 v -0.002 c 0.403476,-0.400299 0.628906,-0.944218 0.628906,-1.507813 0,-0.562712 -0.224194,-1.104613 -0.625,-1.503906 -0.399785,-0.403023 -0.943594,-0.626953 -1.507813,-0.626953 z m 0,1 c 0.300759,0 0.587282,0.116818 0.798829,0.330078 v 0.002 l 0.002,0.002 c 0.21345,0.211735 0.332031,0.496115 0.332031,0.796875 0,0.300759 -0.12007,0.588912 -0.332031,0.798828 v 0.002 h -0.002 c -0.211691,0.211691 -0.49807,0.330078 -0.798829,0.330078 -0.300757,0 -0.589855,-0.119152 -0.800781,-0.330078 -0.210395,-0.210054 -0.330078,-0.500023 -0.330078,-0.800781 0,-0.300759 0.118198,-0.586948 0.330078,-0.798828 l 0.002,-0.002 c 0.210784,-0.212492 0.498071,-0.330078 0.798828,-0.330078 z"
     id="path18" />
</svg>
