<?xml version="1.0" encoding="UTF-8" standalone="no"?>
<!-- Generator: Gravit.io -->

<svg
   style="isolation:isolate"
   viewBox="0 0 48 48"
   width="48pt"
   height="48pt"
   version="1.1"
   id="svg26"
   sodipodi:docname="kaffeine.svg"
   inkscape:version="1.1.2 (0a00cf5339, 2022-02-04)"
   xmlns:inkscape="http://www.inkscape.org/namespaces/inkscape"
   xmlns:sodipodi="http://sodipodi.sourceforge.net/DTD/sodipodi-0.dtd"
   xmlns:xlink="http://www.w3.org/1999/xlink"
   xmlns="http://www.w3.org/2000/svg"
   xmlns:svg="http://www.w3.org/2000/svg">
  <defs
     id="defs30">
    <linearGradient
       inkscape:collect="always"
       xlink:href="#_lgradient_14"
       id="linearGradient872"
       x1="-12.025727"
       y1="6.1170783"
       x2="-0.085100174"
       y2="6.1170783"
       gradientUnits="userSpaceOnUse"
       gradientTransform="matrix(3.8358211,0,0,3.8371386,-0.00544341,-0.00268054)" />
    <linearGradient
       id="_lgradient_1"
       x1="0.18336116"
       y1="0.24917752"
       x2="0.9027437"
       y2="0.90347725"
       gradientTransform="matrix(24.617266,0,0,24.816118,10.841288,10.089605)"
       gradientUnits="userSpaceOnUse">
      <stop
         offset="2.608695652173913%"
         stop-opacity="1"
         style="stop-color:rgb(179,255,171)"
         id="stop2" />
      <stop
         offset="98.69565217391305%"
         stop-opacity="1"
         style="stop-color:rgb(18,255,247)"
         id="stop4" />
    </linearGradient>
    <linearGradient
       inkscape:collect="always"
       xlink:href="#_lgradient_14"
       id="linearGradient15"
       x1="-9.6850061"
       y1="45.161198"
       x2="11.98815"
       y2="21.735205"
       gradientUnits="userSpaceOnUse"
       gradientTransform="matrix(1.1147442,0,0,1.1150348,-0.01237238,-3.3277956)" />
    <linearGradient
       inkscape:collect="always"
       xlink:href="#_lgradient_14"
       id="linearGradient1273"
       x1="12.603472"
       y1="24"
       x2="35.396526"
       y2="24"
       gradientUnits="userSpaceOnUse"
       gradientTransform="scale(1.3333333)" />
  </defs>
  <sodipodi:namedview
     id="namedview28"
     pagecolor="#ffffff"
     bordercolor="#666666"
     borderopacity="1.0"
     inkscape:pageshadow="2"
     inkscape:pageopacity="0.0"
     inkscape:pagecheckerboard="0"
     inkscape:document-units="pt"
     showgrid="false"
     inkscape:zoom="7.2257474"
     inkscape:cx="32.038208"
     inkscape:cy="37.781559"
     inkscape:window-width="1600"
     inkscape:window-height="836"
     inkscape:window-x="0"
     inkscape:window-y="0"
     inkscape:window-maximized="1"
     inkscape:current-layer="svg26" />
  <rect
     x="-46.783188"
     y="1.2253767"
     height="45.80014"
     rx="6.1837621"
     shape-rendering="crispEdges"
     id="rect5-6-7-3"
     ry="6.8055277"
     transform="matrix(0.00524063,-0.99998627,0.99998801,0.00489691,0,0)"
     style="isolation:isolate;fill:#00ffc3;fill-opacity:0.134703;stroke:url(#linearGradient872);stroke-width:2.0301;stroke-miterlimit:4;stroke-dasharray:none;stroke-opacity:1"
     width="45.801998" />
  <rect
     x="-15.686804"
     y="17.260084"
     height="33.345856"
     rx="6.7920032"
     shape-rendering="crispEdges"
     id="rect5-6-6-6-6"
     style="isolation:isolate;fill:#00ffc3;fill-opacity:0.134703;stroke:url(#linearGradient15);stroke-width:1.67233;stroke-miterlimit:4;stroke-dasharray:none;stroke-opacity:1"
     ry="7.4743071"
     transform="matrix(0.72446484,-0.68931175,0.68622417,0.72739012,0,0)"
     width="33.338203" />
  <linearGradient
     id="_lgradient_13"
     x1="0"
     y1="0.5"
     x2="1"
     y2="0.5"
     gradientTransform="matrix(46.5,0,0,43,0.75,1.5)"
     gradientUnits="userSpaceOnUse">
    <stop
       offset="0%"
       stop-opacity="1"
       style="stop-color:rgb(64,224,208)"
       id="stop8" />
    <stop
       offset="51.73913043478261%"
       stop-opacity="1"
       style="stop-color:rgb(255,140,0)"
       id="stop10" />
    <stop
       offset="98.69565217391305%"
       stop-opacity="1"
       style="stop-color:rgb(255,0,128)"
       id="stop12" />
  </linearGradient>
  <linearGradient
     id="_lgradient_14"
     x1="0"
     y1="0.5"
     x2="1"
     y2="0.5"
     gradientTransform="matrix(44,0,0,3,2,11)"
     gradientUnits="userSpaceOnUse">
    <stop
       offset="0%"
       stop-opacity="1"
       style="stop-color:rgb(64,224,208)"
       id="stop17" />
    <stop
       offset="51.73913043478261%"
       stop-opacity="1"
       style="stop-color:rgb(255,140,0)"
       id="stop19" />
    <stop
       offset="98.69565217391305%"
       stop-opacity="1"
       style="stop-color:rgb(255,0,128)"
       id="stop21" />
  </linearGradient>
  <path
     id="path24"
     style="color:#000000;fill:url(#linearGradient1273);stroke-width:1.33333;-inkscape-stroke:none"
     d="m 21.054688,17.28125 c -2.706496,0 -4.916016,2.209521 -4.916016,4.916016 v 19.605468 c 0,2.706496 2.209519,4.916016 4.916016,4.916016 h 5.888671 c 0.49804,0 0.983179,-0.173685 1.359375,-0.505859 0.37276,-0.328843 0.601563,-0.799343 0.601563,-1.300782 0,-0.502044 -0.228545,-0.975494 -0.601563,-1.304687 -0.376044,-0.331043 -0.861336,-0.503906 -1.359375,-0.503906 h -4.515625 c -1.314046,0 -2.371093,-1.05509 -2.371093,-2.369141 V 26.783203 h 23.886718 v 13.951172 c 0,1.314051 -1.057045,2.369141 -2.371093,2.369141 h -4.515625 c -0.49804,0 -0.983331,0.172866 -1.359375,0.503906 -0.373016,0.329193 -0.601563,0.802643 -0.601563,1.304687 0,0.501439 0.228804,0.971939 0.601563,1.300782 0.376198,0.332178 0.861336,0.505859 1.359375,0.505859 h 5.888671 c 2.706497,0 4.916016,-2.20952 4.916016,-4.916016 V 22.197266 c 0,-2.706495 -2.209519,-4.916016 -4.916016,-4.916016 z m 0,1.333984 c 7.299308,0.01485 14.572552,0 21.890624,0 1.984786,0 3.583985,1.597248 3.583985,3.582032 0,6.535156 0,13.070312 0,19.605468 0,1.984786 -1.599193,3.582032 -3.583985,3.582032 h -5.888671 c -0.188204,0 -0.361282,-0.06618 -0.476563,-0.167969 h -0.002 v -0.0039 c -0.104547,-0.09199 -0.148437,-0.197848 -0.148437,-0.300782 0,-0.101853 0.045,-0.211678 0.15039,-0.304687 0.11544,-0.1008 0.289269,-0.169922 0.476563,-0.169922 h 4.515625 c 2.036117,0 3.703125,-1.667005 3.703125,-3.703125 V 26.783203 25.462891 c -8.934105,-0.02761 -18.643428,-0.01172 -26.550782,-0.01172 0,5.094401 0,10.188802 0,15.283203 0,2.03612 1.667009,3.703125 3.703125,3.703125 h 4.515625 c 0.187295,0 0.361123,0.06912 0.476563,0.169922 0.105387,0.09301 0.150397,0.202838 0.15039,0.304687 0,0.102934 -0.04388,0.2088 -0.148437,0.300782 v 0.0039 h -0.002 c -0.11528,0.101787 -0.28836,0.167969 -0.476563,0.167969 h -5.888671 c -1.984786,0 -3.583985,-1.597246 -3.583985,-3.582032 0,-6.535156 0,-13.070312 0,-19.605468 0,-1.984784 1.599199,-3.582033 3.583985,-3.582032 z m 1.234374,0.96875 0.02539,0.02539 c -1.976367,0.06933 -3.589844,1.663782 -3.589844,3.65625 0,0.515625 0,1.03125 0,1.546875 9.506302,0.0192 17.159816,0.0098 26.550782,0.0098 0,-0.51888 0,-1.037761 0,-1.556641 0,-2.03612 -1.667008,-3.703125 -3.703125,-3.703125 -6.372209,0.0496 -12.870629,0.02148 -19.283204,0.02148 z m 0.138672,1.3125 h 1.175782 l 1.300781,1.298828 -1.292969,1.294922 h -3.554687 v -0.224609 c 0,-1.314051 1.057047,-2.369141 2.371093,-2.369141 z m 4.910157,0 h 3.457031 l 1.298828,1.298828 -1.291016,1.294922 H 27.34375 l 1.294922,-1.294922 z m 7.1875,0 h 2.802734 l 1.302734,1.298828 -1.294921,1.294922 h -2.759766 l 1.238281,-1.304687 z m 6.539062,0 h 0.507813 c 1.536148,0.463651 2.371093,1.06174 2.371093,2.59375 h -2.873047 l 1.294922,-1.294922 z m -7.361328,1.578125 -0.966797,1.015625 h -0.05078 z m -4.724609,6.576172 c -0.390915,-0.01838 -0.767656,0.06416 -1.095704,0.261719 -0.656081,0.395121 -0.99414,1.173409 -0.99414,2.048828 v 7.59961 c 0,0.875422 0.338064,1.653708 0.99414,2.048828 0.656085,0.395121 1.505401,0.331392 2.279297,-0.07813 l 6.572266,-3.480469 c 1.018013,-0.539036 1.685547,-1.353676 1.685547,-2.289063 0,-0.935386 -0.667534,-1.750026 -1.685547,-2.289062 L 30.162109,29.392578 C 29.775161,29.187817 29.36943,29.069164 28.978516,29.050781 Z m -0.154297,1.326172 c 0.172876,-0.01471 0.405355,0.03063 0.71289,0.193359 l 6.572266,3.482422 c 0.754452,0.399482 0.976563,0.814102 0.976563,1.109375 0,0.295274 -0.222111,0.711847 -0.976563,1.111329 l -6.572266,3.478515 c -0.492058,0.260381 -0.790737,0.222042 -0.964843,0.117188 -0.174106,-0.104854 -0.351563,-0.351659 -0.351563,-0.908203 v -7.59961 c 0,-0.556539 0.177456,-0.801395 0.351563,-0.90625 0.06529,-0.03932 0.148227,-0.0693 0.251953,-0.07813 z m 2.230469,2.121094 c -0.390243,-0.01772 -0.76565,0.0642 -1.09375,0.261719 -0.656203,0.395038 -0.998047,1.175261 -0.998047,2.050781 v 0.705078 c 0,0.875523 0.341844,1.653792 0.998047,2.048828 0.656202,0.395037 1.501453,0.329469 2.27539,-0.08008 l 0.982422,-0.517578 c 0.764715,-0.405057 1.304688,-1.045133 1.304688,-1.804688 0,-0.759554 -0.539973,-1.397677 -1.304688,-1.802734 l -0.982422,-0.521484 c -0.386969,-0.204772 -0.791398,-0.322127 -1.18164,-0.339844 z m -0.04297,1.324219 c 0.158245,0.0099 0.357508,0.06513 0.603515,0.195312 l 0.980469,0.519531 c 0.50124,0.265499 0.59375,0.505511 0.59375,0.625 0,0.119494 -0.09251,0.3595 -0.59375,0.625 l -0.980469,0.519532 c -0.492016,0.260358 -0.792483,0.220167 -0.966796,0.115234 -0.174314,-0.104933 -0.351563,-0.349807 -0.351563,-0.90625 v -0.705078 c 0,-0.556437 0.177246,-0.805218 0.351563,-0.910156 0.08716,-0.05247 0.205036,-0.08799 0.363281,-0.07813 z"
     transform="scale(0.75)"
     sodipodi:nodetypes="ssssscscsssccssscscssssssccccsscccscsssccccsscscccsscccccccccccsccccssccccccccccccccccccccccccscsssccsccssccsccssssssssssccsccssccsccsssss" />
  <rect
     style="fill:none;fill-opacity:0.134703;fill-rule:evenodd;stroke-width:0.999997;stroke-miterlimit:4;stroke-dasharray:none;paint-order:fill markers stroke"
     id="rect1319"
     width="17.914062"
     height="0.47070399"
     x="15.04297"
     y="18.617188"
     rx="6.1837649"
     ry="0.47070399" />
</svg>
