<?xml version="1.0" encoding="UTF-8" standalone="no"?>
<!-- Generator: Gravit.io -->

<svg
   style="isolation:isolate"
   viewBox="0 0 48 48"
   width="48pt"
   height="48pt"
   version="1.1"
   id="svg9"
   sodipodi:docname="kdevelop.svg"
   inkscape:version="1.1.2 (0a00cf5339, 2022-02-04)"
   xmlns:inkscape="http://www.inkscape.org/namespaces/inkscape"
   xmlns:sodipodi="http://sodipodi.sourceforge.net/DTD/sodipodi-0.dtd"
   xmlns:xlink="http://www.w3.org/1999/xlink"
   xmlns="http://www.w3.org/2000/svg"
   xmlns:svg="http://www.w3.org/2000/svg">
  <defs
     id="defs13">
    <linearGradient
       inkscape:collect="always"
       xlink:href="#_lgradient_39"
       id="linearGradient872"
       x1="-12.025727"
       y1="6.1170783"
       x2="-0.085100174"
       y2="6.1170783"
       gradientUnits="userSpaceOnUse"
       gradientTransform="matrix(3.8358211,0,0,3.8371386,-0.00562311,-0.03937722)" />
    <linearGradient
       id="_lgradient_1"
       x1="0.18336116"
       y1="0.24917752"
       x2="0.9027437"
       y2="0.90347725"
       gradientTransform="matrix(24.617266,0,0,24.816118,10.841288,10.089605)"
       gradientUnits="userSpaceOnUse">
      <stop
         offset="2.608695652173913%"
         stop-opacity="1"
         style="stop-color:rgb(179,255,171)"
         id="stop2-0" />
      <stop
         offset="98.69565217391305%"
         stop-opacity="1"
         style="stop-color:rgb(18,255,247)"
         id="stop4-6" />
    </linearGradient>
    <linearGradient
       inkscape:collect="always"
       xlink:href="#_lgradient_39"
       id="linearGradient15"
       x1="-9.6850061"
       y1="45.161198"
       x2="11.98815"
       y2="21.735205"
       gradientUnits="userSpaceOnUse"
       gradientTransform="matrix(1.1147442,0,0,1.1150348,-0.03906579,-3.3530916)" />
    <linearGradient
       inkscape:collect="always"
       xlink:href="#_lgradient_39"
       id="linearGradient920"
       x1="9.206913"
       y1="23.999998"
       x2="36.593067"
       y2="23.999998"
       gradientUnits="userSpaceOnUse" />
  </defs>
  <sodipodi:namedview
     id="namedview11"
     pagecolor="#ffffff"
     bordercolor="#666666"
     borderopacity="1.0"
     inkscape:pageshadow="2"
     inkscape:pageopacity="0.0"
     inkscape:pagecheckerboard="0"
     inkscape:document-units="pt"
     showgrid="false"
     inkscape:zoom="10.21875"
     inkscape:cx="31.95107"
     inkscape:cy="32"
     inkscape:window-width="1600"
     inkscape:window-height="836"
     inkscape:window-x="0"
     inkscape:window-y="0"
     inkscape:window-maximized="1"
     inkscape:current-layer="svg9" />
  <linearGradient
     id="_lgradient_39"
     x1="0.06512404043131156"
     y1="0.2363297231439407"
     x2="0.9776991738141866"
     y2="0.7686218550572972"
     gradientTransform="matrix(27.386141,0,0,28.636911,9.2069265,9.6815448)"
     gradientUnits="userSpaceOnUse">
    <stop
       offset="2.608695652173913%"
       stop-opacity="1"
       style="stop-color:rgb(179,255,171)"
       id="stop2" />
    <stop
       offset="98.69565217391305%"
       stop-opacity="1"
       style="stop-color:rgb(18,255,247)"
       id="stop4" />
  </linearGradient>
  <rect
     x="-46.783367"
     y="1.1886801"
     height="45.80014"
     rx="6.1837621"
     shape-rendering="crispEdges"
     id="rect5-6-7-3"
     ry="6.8055277"
     transform="matrix(0.00524063,-0.99998627,0.99998801,0.00489691,0,0)"
     style="isolation:isolate;fill:#00ffc3;fill-opacity:0.134703;stroke:url(#linearGradient872);stroke-width:2.0301;stroke-miterlimit:4;stroke-dasharray:none;stroke-opacity:1"
     width="45.801998" />
  <rect
     x="-15.713497"
     y="17.234789"
     height="33.345856"
     rx="6.7920032"
     shape-rendering="crispEdges"
     id="rect5-6-6-6-6"
     style="isolation:isolate;fill:#00ffc3;fill-opacity:0.134703;stroke:url(#linearGradient15);stroke-width:1.67233;stroke-miterlimit:4;stroke-dasharray:none;stroke-opacity:1"
     ry="7.4743071"
     transform="matrix(0.72446484,-0.68931175,0.68622417,0.72739012,0,0)"
     width="33.338203" />
  <path
     style="color:#000000;fill:url(#linearGradient920);fill-rule:evenodd;-inkscape-stroke:none"
     d="m 22.007812,9.2578125 -0.384765,0.039063 -0.34961,2.283203 c -0.683795,0.123905 -1.355511,0.301061 -2.009765,0.535156 l -1.439453,-1.796875 -0.353516,0.158204 c -0.927252,0.416029 -1.808358,0.925928 -2.630859,1.521484 l -0.3125,0.226562 0.835937,2.142579 c -0.532138,0.44864 -1.025427,0.93908 -1.476562,1.46875 l -2.13086,-0.832032 -0.226562,0.314453 c -0.595032,0.82346 -1.104341,1.705158 -1.519531,2.632813 l -0.1582035,0.353515 1.7656255,1.414063 c -0.120178,0.32994 -0.243091,0.65952 -0.335938,0.998047 v 0.0039 l -0.002,0.0039 c -0.0863,0.337906 -0.142837,0.683381 -0.201172,1.027344 l -2.25,0.345703 -0.041016,0.382813 c -0.1057678,1.009701 -0.1068527,2.027387 -0.00391,3.037109 l 0.039063,0.384766 2.2832034,0.349609 c 0.123545,0.683952 0.301063,1.355489 0.535156,2.009766 l -1.796875,1.439453 0.158203,0.353515 c 0.416008,0.926501 0.925929,1.808358 1.521485,2.63086 l 0.226562,0.3125 2.142578,-0.835938 c 0.44859,0.531693 0.939093,1.025449 1.46875,1.476563 l -0.832031,2.130859 0.314453,0.226563 c 0.823308,0.594925 1.706707,1.104867 2.634766,1.519531 l 0.351562,0.158203 1.414063,-1.765625 c 0.330068,0.120161 0.660243,0.241193 0.998046,0.333984 l 0.0039,0.002 0.0039,0.002 c 0.337901,0.08629 0.683374,0.142836 1.027344,0.201172 l 0.345703,2.25 0.382812,0.04102 c 1.009712,0.1058 2.027612,0.106124 3.03711,0.0039 l 0.384765,-0.03906 0.34961,-2.283203 c 0.683795,-0.123905 1.355511,-0.301061 2.009765,-0.535156 l 1.439453,1.796875 0.353516,-0.158204 c 0.9265,-0.416008 1.808358,-0.925928 2.630859,-1.521484 l 0.3125,-0.226562 -0.835937,-2.142579 c 0.531688,-0.448579 1.02515,-0.939199 1.476562,-1.46875 l 2.13086,0.832032 0.226562,-0.314453 c 0.594925,-0.823309 1.104868,-1.706708 1.519532,-2.634766 l 0.158203,-0.351563 -1.765625,-1.414062 c 0.120319,-0.32987 0.243424,-0.658831 0.335937,-0.998047 v -0.0039 l 0.002,-0.0039 0.04883,-0.191407 v -0.0078 c 0.07521,-0.332922 -0.144831,-0.660817 -0.363281,-0.796875 -0.21845,-0.136058 -0.458706,-0.183594 -0.720703,-0.183594 h -0.84375 c -0.429331,0 -0.763967,0.230695 -1.019531,0.541016 C 33.118269,25.777496 33.28125,24.897297 33.28125,24 c 0,-0.942215 -0.224459,-1.861155 -0.494141,-2.761719 0.247195,0.381674 0.612675,0.666016 1.09375,0.666016 h 0.84375 c 0.313628,0 0.619395,-0.123801 0.820313,-0.357422 0.200918,-0.233621 0.280278,-0.568686 0.21289,-0.878906 l -0.0039,-0.01953 -0.0059,-0.01953 c 0,0 -0.167127,-0.490078 -0.314453,-0.908203 l 1.773437,-1.421875 -0.158203,-0.353516 C 36.63282,17.018813 36.1229,16.136955 35.527344,15.314453 l -0.226563,-0.3125 -2.142578,0.835938 c -0.448589,-0.531693 -0.939094,-1.025449 -1.46875,-1.476563 l 0.832031,-2.130859 -0.314453,-0.226563 c -0.823308,-0.594925 -1.706708,-1.104867 -2.634765,-1.519531 l -0.351563,-0.158203 -1.414062,1.765625 c -0.32994,-0.120178 -0.65952,-0.24309 -0.998047,-0.335938 h -0.0039 l -0.0039,-0.002 c -0.337906,-0.0863 -0.68338,-0.142836 -1.027344,-0.201172 L 25.427734,9.3027344 25.044922,9.2617188 c -1.009091,-0.1057757 -2.027587,-0.1061276 -3.03711,-0.00391 z m 0.480469,0.9941405 c 0.690946,-0.05078 1.383785,-0.04935 2.074219,0.0039 l 0.332031,2.16211 0.369141,0.05273 c 0.433477,0.06006 0.86412,0.14343 1.289062,0.251953 0.421936,0.116025 0.836503,0.254391 1.242188,0.416016 l 0.34375,0.138672 1.355469,-1.691406 c 0.62543,0.300465 1.22542,0.648112 1.798828,1.039062 l -0.785157,2.017578 0.28711,0.228516 c 0.685266,0.548736 1.305993,1.173322 1.851562,1.861328 l 0.228516,0.289062 2.03125,-0.791015 c 0.391449,0.572827 0.739685,1.172363 1.041016,1.796875 l -1.701172,1.363281 0.132812,0.34375 c 0.221698,0.566421 0.397214,1.136933 0.404297,1.160156 l -0.0039,-0.01563 c 0.0082,0.0379 0.0036,0.02052 0.0078,0.01563 2.57e-4,-2.98e-4 -0.0041,1.51e-4 -0.0039,0 0.0028,-0.0023 1.8e-5,0.0098 -0.05859,0.0098 h -0.84375 c -0.113367,0 -0.337239,-0.173077 -0.365234,-0.283203 -0.05034,-0.199203 -0.140941,-0.408612 -0.291016,-0.742188 C 33.074193,19.544569 32.8743,19.137551 32.642578,18.736328 31.24658,16.318364 28.94625,14.554369 26.25,13.832031 c -2.696783,-0.722288 -5.570876,-0.345306 -7.988281,1.050782 -2.417965,1.395997 -4.181971,3.695655 -4.904297,6.392578 -0.722333,2.69623 -0.344536,5.570972 1.050781,7.988281 1.395997,2.417965 3.695655,4.18197 6.392578,4.904297 2.696151,0.72231 5.570877,0.345306 7.988281,-1.050782 2.417966,-1.395997 4.170837,-3.651429 4.728516,-5.734375 0.02972,-0.110769 0.260424,-0.287109 0.375,-0.287109 h 0.84375 c 0.02427,0 0.02023,0.0053 0.04102,0.0078 -0.110831,0.39442 -0.238747,0.784796 -0.390625,1.166015 l -0.138672,0.34375 1.691406,1.355469 c -0.300465,0.625431 -0.648113,1.225421 -1.039062,1.798828 l -2.015625,-0.785156 -0.230469,0.287109 c -0.549532,0.685444 -1.173322,1.305992 -1.861328,1.851563 l -0.289063,0.228515 0.791016,2.03125 c -0.572827,0.39145 -1.172363,0.739685 -1.796875,1.041016 l -1.363281,-1.703125 -0.34375,0.134766 c -0.81591,0.320093 -1.666336,0.547737 -2.533204,0.677734 l -0.363281,0.05469 -0.332031,2.16211 c -0.690842,0.05078 -1.383503,0.04937 -2.074219,-0.0039 l -0.332031,-2.16211 -0.369141,-0.05273 c -0.430808,-0.05969 -0.858833,-0.142426 -1.28125,-0.25 l -0.0078,-0.002 c -0.421503,-0.116081 -0.836671,-0.254459 -1.242188,-0.416016 l -0.34375,-0.138672 -1.355468,1.691406 C 16.93121,36.113597 16.33122,35.76595 15.757813,35.375 l 0.785156,-2.017578 -0.28711,-0.228516 C 15.570592,32.58017 14.949868,31.955584 14.404297,31.267578 l -0.228516,-0.289062 -2.03125,0.791015 c -0.391449,-0.572827 -0.739685,-1.172363 -1.041015,-1.796875 l 1.703125,-1.363281 -0.134766,-0.34375 c -0.320093,-0.815911 -0.546474,-1.664633 -0.675781,-2.53125 l -0.05469,-0.365234 -2.1640622,-0.332032 c -0.05125,-0.691171 -0.049372,-1.383041 0.00391,-2.074218 l 2.162109,-0.332032 0.05274,-0.36914 c 0.0597,-0.430823 0.142428,-0.858841 0.25,-1.28125 l 0.002,-0.0039 c 3.16e-4,-0.0012 -3.17e-4,-0.0027 0,-0.0039 0.116025,-0.421936 0.254391,-0.836501 0.416016,-1.242187 l 0.138671,-0.34375 -1.691406,-1.355469 c 0.30071,-0.625251 0.648488,-1.22584 1.039063,-1.798828 l 2.017578,0.785156 0.228515,-0.287109 c 0.548736,-0.685266 1.172754,-1.30606 1.861328,-1.851563 l 0.289063,-0.228515 -0.791016,-2.03125 c 0.572825,-0.391443 1.172037,-0.739703 1.796875,-1.041016 l 1.363282,1.703125 0.34375,-0.134766 c 0.815911,-0.320094 1.666336,-0.547737 2.533203,-0.677734 l 0.363281,-0.05469 z m -0.207031,4.302735 c 0.0052,-6.84e-4 0.01043,0.0026 0.01563,0.002 -0.01106,0.0016 -0.02215,0.0023 -0.0332,0.0039 0.0061,-8.18e-4 0.01145,-0.0051 0.01758,-0.0059 z m 1.367187,0.8125 c 1.458936,0 2.897395,0.371305 4.177735,1.076171 0.147496,0.082 0.196826,0.25316 0.115234,0.400391 -0.08148,0.147037 -0.253555,0.196606 -0.40039,0.115234 -1.190828,-0.661571 -2.530057,-1.003906 -3.892579,-1.003906 -1.501857,0 -2.969947,0.419055 -4.24414,1.214844 -0.142101,0.08781 -0.321293,0.04632 -0.410156,-0.0957 -0.08834,-0.14119 -0.04758,-0.314975 0.0957,-0.404297 1.369269,-0.851292 2.948558,-1.302734 4.558593,-1.302734 z m -5.289062,0.736328 c -0.372754,0.41816 -0.523155,1.004122 -0.212891,1.5 0.375749,0.600535 1.180021,0.788732 1.783203,0.416015 h 0.002 c 1.115267,-0.696883 2.400256,-1.064453 3.716796,-1.064453 1.194879,0 2.367267,0.300608 3.408204,0.878906 0.62025,0.343726 1.416152,0.114187 1.759765,-0.505859 0.208423,-0.376095 0.150577,-0.782998 -0.02148,-1.148438 0.52795,0.355416 0.950955,0.797687 1.398437,1.251954 -0.127024,-0.04231 -0.221031,-0.150391 -0.361328,-0.150391 -0.708908,0 -1.294922,0.586013 -1.294922,1.294922 0,0.708648 0.585495,1.294922 1.294922,1.294922 0.709167,0 1.294922,-0.586274 1.294922,-1.294922 0,-0.05917 -0.05657,-0.09517 -0.06445,-0.152344 0.216839,0.292082 0.529188,0.494315 0.712891,0.8125 0.189884,0.328783 0.352617,0.662381 0.486328,0.953125 C 31.91425,19.884311 31.473342,19.703573 31.013672,19.875 h -0.002 c -0.662826,0.248219 -1.00579,1.000586 -0.757813,1.664062 l -0.002,-0.002 c 0.293331,0.789638 0.441406,1.620307 0.441406,2.462891 0,1.109386 -0.259511,2.201522 -0.763672,3.191406 h 0.002 c -0.323586,0.631712 -0.06707,1.419823 0.564453,1.742188 0.353183,0.179668 0.73427,0.144033 1.076172,-0.002 -0.224786,0.360605 -0.345861,0.697295 -0.638672,1.046875 -0.01374,-0.697212 -0.584707,-1.271485 -1.285157,-1.271485 -0.708647,0 -1.292968,0.58432 -1.292968,1.292969 0,0.644306 0.506849,1.13112 1.126953,1.224609 -0.332273,0.273725 -0.593224,0.596714 -0.964844,0.828125 0.250764,-0.381941 0.369555,-0.83665 0.144531,-1.265625 -0.329329,-0.626711 -1.115436,-0.87336 -1.74414,-0.546875 h -0.002 -0.002 c -1.007537,0.530149 -2.12718,0.804688 -3.265625,0.804688 -0.749705,0 -1.449058,-0.278854 -2.15625,-0.511719 L 23.691406,23.9375 17.140625,26.119141 C 16.914325,25.419916 16.605469,24.739801 16.605469,24 c 0,-0.894992 0.165204,-1.781287 0.498047,-2.605469 h 0.002 v -0.002 c 0.26218,-0.658754 -0.06509,-1.419595 -0.72461,-1.681641 -0.499584,-0.198831 -0.99273,0.01575 -1.347656,0.382813 0.298545,-0.646772 0.511472,-1.34116 0.94336,-1.902344 -0.04748,0.133853 -0.160157,0.235698 -0.160157,0.384766 0,0.708648 0.585495,1.294922 1.294922,1.294922 0.709167,0 1.292969,-0.586274 1.292969,-1.294922 0,-0.708909 -0.584321,-1.294922 -1.292969,-1.294922 -0.07063,0 -0.113917,0.06501 -0.181641,0.07617 0.45087,-0.447653 0.892184,-0.901214 1.429688,-1.253906 z m -1.248047,2.177734 c 0.167435,0 0.292969,0.126385 0.292969,0.294922 0,0.167435 -0.126052,0.294922 -0.292969,0.294922 -0.16802,0 -0.294922,-0.127487 -0.294922,-0.294922 0,-0.168537 0.126384,-0.294922 0.294922,-0.294922 z m 12.720703,0 c 0.167436,0 0.294922,0.126385 0.294922,0.294922 0,0.167435 -0.128005,0.294922 -0.294922,0.294922 -0.168018,0 -0.294922,-0.127487 -0.294922,-0.294922 0,-0.168537 0.126386,-0.294922 0.294922,-0.294922 z m -13.820312,2.359375 c 0.156615,0.06223 0.226156,0.226795 0.164062,0.382812 l 0.002,-0.002 C 15.795268,21.968543 15.605469,22.98069 15.605469,24 c 0,1.33828 0.334208,2.653926 0.96875,3.830078 v 0.002 0.002 c 0.08092,0.14822 0.03082,0.317896 -0.117188,0.398438 -0.148779,0.07928 -0.316752,0.03055 -0.396484,-0.117188 v -0.002 h -0.002 C 15.372203,26.853717 15.015625,25.437956 15.015625,24 c 0,-1.096811 0.206236,-2.181917 0.611328,-3.193359 h 0.002 v -0.002 c 0.06223,-0.156616 0.226795,-0.226156 0.382813,-0.164062 z m 15.351562,0.169922 c 0.156064,-0.05849 0.320007,0.01767 0.378906,0.175781 0.356495,0.964611 0.539063,1.985853 0.539063,3.013672 0,1.359231 -0.318623,2.702685 -0.9375,3.914062 v 0.002 c -0.07359,0.145658 -0.242246,0.200211 -0.392578,0.125 -0.14903,-0.07733 -0.206148,-0.247552 -0.13086,-0.394532 h 0.002 C 31.398562,26.514967 31.693359,25.265439 31.693359,24 c 0,-0.959994 -0.169127,-1.909331 -0.503906,-2.810547 -0.05841,-0.156266 0.016,-0.320017 0.173828,-0.378906 z M 14.59375,20.984375 c -0.200886,0.603528 -0.280112,1.231904 -0.357422,1.863281 0.05373,-0.438647 -0.02974,-0.880708 0.08594,-1.3125 0.054,-0.201604 0.204824,-0.35435 0.271484,-0.550781 z m -0.482422,3.783203 c 0.02421,0.301132 0.05918,0.599749 0.111328,0.896484 -0.05421,-0.302345 -0.08655,-0.590304 -0.111328,-0.896484 z m 7.998047,0.751953 -1.220703,3.666016 -2.445313,-2.445313 z m -4.720703,1.580078 3.224609,3.22461 c -0.03787,-0.01824 -0.08353,-0.01036 -0.121094,-0.0293 h -0.002 c -0.634018,-0.318109 -1.419782,-0.05862 -1.738281,0.576172 -0.222385,0.441702 -0.08683,0.903187 0.183594,1.283203 -0.57499,-0.323796 -1.12799,-0.631946 -1.623047,-1.066406 0.164889,0.07691 0.30382,0.207031 0.496094,0.207031 0.708648,0 1.292968,-0.586013 1.292968,-1.294922 0,-0.708648 -0.58432,-1.292969 -1.292968,-1.292969 -0.31966,0 -0.597127,0.148155 -0.824219,0.34375 0.568436,-0.358922 0.794059,-1.09714 0.46875,-1.695312 -0.04241,-0.07861 -0.02511,-0.175873 -0.06445,-0.25586 z m -2.158203,1.53125 c 0.344452,0.56253 1.05815,0.7749 1.652343,0.486328 -0.221936,0.232754 -0.36914,0.539799 -0.36914,0.882813 0,0.130597 0.103777,0.21661 0.140625,0.335937 -0.47454,-0.514119 -1.023493,-0.956664 -1.378906,-1.572265 -0.02382,-0.04126 -0.02176,-0.09126 -0.04492,-0.132813 z m 2.578125,1.076172 c 0.167435,0 0.292969,0.125534 0.292968,0.292969 0,0.168536 -0.125533,0.294922 -0.292968,0.294922 -0.168538,0 -0.294922,-0.126386 -0.294922,-0.294922 0,-0.167435 0.126384,-0.292969 0.294922,-0.292969 z m 11.839843,0 c 0.168537,0 0.294922,0.125534 0.294922,0.292969 0,0.168536 -0.126385,0.294922 -0.294922,0.294922 -0.167435,0 -0.292968,-0.126386 -0.292968,-0.294922 0,-0.167435 0.125533,-0.292969 0.292968,-0.292969 z m -2.267578,1.417969 -0.002,0.002 c 0.147915,-0.07681 0.320381,-0.02354 0.398438,0.125 0.07825,0.149181 0.0256,0.320461 -0.123047,0.398438 -1.234279,0.645791 -2.609483,0.982421 -4.00586,0.982421 -1.344617,0 -2.671337,-0.311955 -3.871093,-0.916015 h -0.002 c -0.150209,-0.07537 -0.206565,-0.246119 -0.13086,-0.396485 0.07493,-0.14934 0.246197,-0.205011 0.396485,-0.130859 1.118779,0.564116 2.354589,0.855469 3.607421,0.855469 1.299056,0 2.580408,-0.313752 3.732422,-0.919922 z"
     id="path7" />
</svg>
