<?xml version="1.0" encoding="UTF-8" standalone="no"?>
<!-- Generator: Gravit.io -->

<svg
   style="isolation:isolate"
   viewBox="0 0 48 48"
   width="48pt"
   height="48pt"
   version="1.1"
   id="svg16"
   sodipodi:docname="kdocker.svg"
   inkscape:version="1.1.2 (0a00cf5339, 2022-02-04)"
   xmlns:inkscape="http://www.inkscape.org/namespaces/inkscape"
   xmlns:sodipodi="http://sodipodi.sourceforge.net/DTD/sodipodi-0.dtd"
   xmlns:xlink="http://www.w3.org/1999/xlink"
   xmlns="http://www.w3.org/2000/svg"
   xmlns:svg="http://www.w3.org/2000/svg">
  <defs
     id="defs20">
    <linearGradient
       inkscape:collect="always"
       xlink:href="#_lgradient_53"
       id="linearGradient872"
       x1="-12.025727"
       y1="6.1170783"
       x2="-0.085100174"
       y2="6.1170783"
       gradientUnits="userSpaceOnUse"
       gradientTransform="matrix(3.8358211,0,0,3.8371386,-0.00544341,-0.00268054)" />
    <linearGradient
       id="_lgradient_1"
       x1="0.18336116"
       y1="0.24917752"
       x2="0.9027437"
       y2="0.90347725"
       gradientTransform="matrix(24.617266,0,0,24.816118,10.841288,10.089605)"
       gradientUnits="userSpaceOnUse">
      <stop
         offset="2.608695652173913%"
         stop-opacity="1"
         style="stop-color:rgb(179,255,171)"
         id="stop2-3" />
      <stop
         offset="98.69565217391305%"
         stop-opacity="1"
         style="stop-color:rgb(18,255,247)"
         id="stop4-6" />
    </linearGradient>
    <linearGradient
       inkscape:collect="always"
       xlink:href="#_lgradient_53"
       id="linearGradient15"
       x1="-9.6850061"
       y1="45.161198"
       x2="11.98815"
       y2="21.735205"
       gradientUnits="userSpaceOnUse"
       gradientTransform="matrix(1.1147442,0,0,1.1150348,-0.01237238,-3.3277956)" />
    <linearGradient
       inkscape:collect="always"
       xlink:href="#_lgradient_53"
       id="linearGradient957"
       x1="13.259947"
       y1="24"
       x2="34.740051"
       y2="24"
       gradientUnits="userSpaceOnUse" />
    <linearGradient
       inkscape:collect="always"
       xlink:href="#_lgradient_54"
       id="linearGradient987"
       x1="24.000038"
       y1="22.02066"
       x2="34.024147"
       y2="22.02066"
       gradientUnits="userSpaceOnUse" />
  </defs>
  <sodipodi:namedview
     id="namedview18"
     pagecolor="#ffffff"
     bordercolor="#666666"
     borderopacity="1.0"
     inkscape:pageshadow="2"
     inkscape:pageopacity="0.0"
     inkscape:pagecheckerboard="0"
     inkscape:document-units="pt"
     showgrid="false"
     inkscape:zoom="10.21875"
     inkscape:cx="31.95107"
     inkscape:cy="32"
     inkscape:window-width="1600"
     inkscape:window-height="836"
     inkscape:window-x="0"
     inkscape:window-y="0"
     inkscape:window-maximized="1"
     inkscape:current-layer="svg16" />
  <linearGradient
     id="_lgradient_53"
     x1="0"
     y1="0.5"
     x2="1"
     y2="0.5"
     gradientTransform="matrix(21.480106,0,0,-21.480106,13.259948,34.740054)"
     gradientUnits="userSpaceOnUse">
    <stop
       offset="0%"
       stop-opacity="1"
       style="stop-color:rgb(178,254,250)"
       id="stop2" />
    <stop
       offset="98.26086956521739%"
       stop-opacity="1"
       style="stop-color:rgb(14,210,247)"
       id="stop4" />
  </linearGradient>
  <rect
     x="-46.783188"
     y="1.2253767"
     height="45.80014"
     rx="6.1837621"
     shape-rendering="crispEdges"
     id="rect5-6-7-3"
     ry="6.8055277"
     transform="matrix(0.00524063,-0.99998627,0.99998801,0.00489691,0,0)"
     style="isolation:isolate;fill:#00c1ff;fill-opacity:0.13470298;stroke:url(#linearGradient872);stroke-width:2.0301;stroke-miterlimit:4;stroke-dasharray:none;stroke-opacity:1"
     width="45.801998" />
  <rect
     x="-15.686804"
     y="17.260084"
     height="33.345856"
     rx="6.7920032"
     shape-rendering="crispEdges"
     id="rect5-6-6-6-6"
     style="isolation:isolate;fill:#00c1ff;fill-opacity:0.13470298;stroke:url(#linearGradient15);stroke-width:1.67233;stroke-miterlimit:4;stroke-dasharray:none;stroke-opacity:1"
     ry="7.4743071"
     transform="matrix(0.72446484,-0.68931175,0.68622417,0.72739012,0,0)"
     width="33.338203" />
  <path
     style="color:#000000;fill:url(#linearGradient957);fill-rule:evenodd;-inkscape-stroke:none"
     d="m 14.757813,12.759766 c -1.097851,0 -1.998047,0.900196 -1.998047,1.998047 v 4.746093 c 0,0.68413 0.56587,1.25 1.25,1.25 0.683965,0 1.248047,-0.565486 1.248047,-1.25 v -4.246093 h 17.484374 v 5.490234 c 10e-7,0.684349 0.563697,1.248047 1.248047,1.248047 0.684515,0 1.25,-0.564083 1.25,-1.248047 v -5.990234 c 0,-1.097851 -0.900196,-1.998047 -1.998047,-1.998047 z m 0,1 h 18.484374 c 0.556594,0 0.998047,0.441453 0.998047,0.998047 v 5.990234 c 0,0.142778 -0.106815,0.248047 -0.25,0.248047 -0.142394,0 -0.248047,-0.105653 -0.248047,-0.248047 v -5.490234 c 0,-0.545796 -0.454204,-1 -1,-1 H 15.257813 c -0.545796,0 -1.000001,0.454204 -1,1 v 4.246093 c 0,0.143185 -0.105267,0.25 -0.248047,0.25 -0.14357,0 -0.25,-0.106431 -0.25,-0.25 v -4.746093 c 0,-0.556594 0.441453,-0.998047 0.998047,-0.998047 z m 2.273437,1.625 c -0.685779,0 -1.251953,0.566723 -1.251953,1.251953 v 5.261718 c 0,0.685396 0.566557,1.251954 1.251953,1.251954 h 5.261719 c 0.685229,0 1.251953,-0.566174 1.251953,-1.251954 v -5.261718 c 0,-0.685614 -0.56634,-1.251953 -1.251953,-1.251953 z m 0,1 h 5.261719 c 0.143995,0 0.251953,0.107957 0.251953,0.251953 v 5.261718 c 0,0.144784 -0.107573,0.251954 -0.251953,0.251954 H 17.03125 c -0.145167,0 -0.251953,-0.106786 -0.251953,-0.251954 v -5.261718 c 0,-0.14438 0.107169,-0.251953 0.251953,-0.251953 z M 14.009766,22.75 c -0.684515,0 -1.25,0.566035 -1.25,1.25 v 9.242187 c 0,1.097851 0.900196,1.998047 1.998047,1.998047 h 18.484374 c 1.097851,0 1.998047,-0.900196 1.998047,-1.998047 v -3.703125 c 0,-0.477397 -0.354558,-0.795483 -0.716797,-0.976562 -0.220904,-0.110428 -0.510872,-0.122738 -0.78125,-0.166016 v -0.105468 h -0.5 -0.5 -0.25 -14.986328 c -0.683965,0 -1.248047,0.563916 -1.248047,1.248046 0,0.683965 0.564082,1.25 1.248047,1.25 h 6.347657 C 23.665477,31.034245 23.5,31.307092 23.5,31.636719 c 0,0.471539 0.262582,0.838886 0.615234,1.105468 H 15.257813 V 24 c -1e-6,-0.68435 -0.563698,-1.25 -1.248047,-1.25 z m 0,1 c 0.142395,0 0.248046,0.107604 0.248047,0.25 v 8.742187 c 0,0.545796 0.454204,1 1,1 h 17.484374 c 0.545796,0 1,-0.454204 1,-1 v -1.953125 -1.25 -0.148437 c 0.108194,0.02776 0.263465,0.03018 0.335938,0.06641 0.180372,0.09017 0.162109,0.145579 0.162109,0.08203 v 3.703125 c 0,0.556594 -0.441453,0.998047 -0.998047,0.998047 H 14.757813 c -0.556594,0 -0.998047,-0.441453 -0.998047,-0.998047 V 24 c 0,-0.14278 0.106815,-0.25 0.25,-0.25 z m 3.496093,5.541016 h 14.986328 0.25 v 0.248046 0.25 h -0.25 -14.986328 c -0.14278,0 -0.248047,-0.107221 -0.248047,-0.25 0,-0.143569 0.105267,-0.248046 0.248047,-0.248046 z m 8.548828,1.498046 h 1.058594 c -0.188087,0.245201 -0.355469,0.517983 -0.355469,0.847657 0,0.471657 0.264385,0.838897 0.617188,1.105468 h -1.582031 c 0.352803,-0.266571 0.617187,-0.633811 0.617187,-1.105468 0,-0.329674 -0.167382,-0.602456 -0.355469,-0.847657 z m 3.259766,0 h 0.744141 c -0.188039,0.245183 -0.353516,0.51803 -0.353516,0.847657 0,0.471539 0.262582,0.838886 0.615234,1.105468 h -1.267578 c 0.352671,-0.266526 0.615235,-0.63375 0.615235,-1.105468 0,-0.329751 -0.165447,-0.602492 -0.353516,-0.847657 z m 2.945313,0 h 0.232421 0.25 v 1.953125 h -0.74414 c 0.352803,-0.266571 0.617187,-0.633811 0.617187,-1.105468 0,-0.329674 -0.167382,-0.602456 -0.355468,-0.847657 z m -7.304688,0.394532 c 0.256448,0 0.455078,0.196677 0.455078,0.453125 0,0.256447 -0.19863,0.455078 -0.455078,0.455078 -0.256446,0 -0.455078,-0.198631 -0.455078,-0.455078 0,-0.256448 0.198632,-0.453125 0.455078,-0.453125 z m 3.257813,0 c 0.255724,0 0.455078,0.196979 0.455078,0.453125 0,0.256145 -0.199354,0.455078 -0.455078,0.455078 -0.256448,0 -0.455079,-0.198631 -0.455079,-0.455078 0,-0.256448 0.198631,-0.453125 0.455079,-0.453125 z m 2.947265,0 c 0.256448,0 0.455078,0.196677 0.455078,0.453125 0,0.256447 -0.19863,0.455078 -0.455078,0.455078 -0.256446,0 -0.455078,-0.198631 -0.455078,-0.455078 0,-0.256448 0.198632,-0.453125 0.455078,-0.453125 z"
     id="path7" />
  <linearGradient
     id="_lgradient_54"
     x1="0.18336115895060273"
     y1="0.24917751794896525"
     x2="0.9027436828643176"
     y2="0.9034772483231972"
     gradientTransform="matrix(-10.369163,-9.8751208,-8.4311803,11.878499,38.412197,21.019039)"
     gradientUnits="userSpaceOnUse">
    <stop
       offset="2.608695652173913%"
       stop-opacity="1"
       style="stop-color:rgb(179,255,171)"
       id="stop9" />
    <stop
       offset="98.69565217391305%"
       stop-opacity="1"
       style="stop-color:rgb(18,255,247)"
       id="stop11" />
  </linearGradient>
  <path
     style="color:#000000;fill:url(#linearGradient987);fill-rule:evenodd;-inkscape-stroke:none"
     d="m 25.078125,16.367187 c -0.75032,-0.160158 -1.438789,0.425209 -1.558594,1.175782 -0.119656,0.751125 0.299992,1.519604 1.050781,1.679687 h 0.002 c 1.206759,0.256476 2.341137,0.869763 3.304687,1.78711 0.892251,0.850184 1.547523,1.966872 2.013672,3.197265 -0.484419,0.101326 -0.92274,0.382243 -1.0625,0.894531 -0.19976,0.732223 0.126136,1.534486 0.84375,1.798829 l 1.9375,0.714843 c 0.712607,0.262228 1.512349,-0.07024 1.830078,-0.759765 L 34.380859,24.8125 c 0.318132,-0.688693 0.12106,-1.523621 -0.527343,-1.925781 -0.510434,-0.316968 -1.089408,-0.103448 -1.496094,0.302734 -0.621531,-1.677137 -1.513587,-3.206869 -2.744141,-4.378906 -1.300799,-1.23912 -2.861618,-2.082237 -4.533203,-2.44336 z m -0.208984,0.976563 c 1.483599,0.320511 2.879071,1.069581 4.054687,2.189453 1.296445,1.234795 2.277947,2.876536 2.822266,4.740234 l 0.392578,1.347657 0.560547,-1.212891 0.228515,-0.496094 c 0.110326,-0.238833 0.24572,-0.270615 0.398438,-0.175781 0.153528,0.09522 0.257,0.418957 0.146484,0.658203 L 32.53125,26.4375 c -0.09183,0.199277 -0.370386,0.314007 -0.576172,0.238281 l -1.9375,-0.71289 c -0.145409,-0.05356 -0.298839,-0.325566 -0.224609,-0.597657 0.07384,-0.270658 0.232002,-0.338103 0.382812,-0.283203 l 1.238281,0.455078 -0.277343,-0.951172 c -0.490549,-1.677085 -1.376993,-3.164167 -2.570313,-4.300781 -1.087082,-1.034955 -2.388573,-1.741828 -3.787109,-2.039062 -0.144692,-0.03085 -0.316988,-0.259277 -0.271485,-0.544922 0.04519,-0.285354 0.217709,-0.388078 0.361329,-0.357422 z"
     id="path14" />
</svg>
