<?xml version="1.0" encoding="UTF-8" standalone="no"?>
<!-- Generator: Gravit.io -->

<svg
   style="isolation:isolate"
   viewBox="0 0 48 48"
   width="48pt"
   height="48pt"
   version="1.1"
   id="svg9"
   sodipodi:docname="kile.svg"
   inkscape:version="1.1.2 (0a00cf5339, 2022-02-04)"
   xmlns:inkscape="http://www.inkscape.org/namespaces/inkscape"
   xmlns:sodipodi="http://sodipodi.sourceforge.net/DTD/sodipodi-0.dtd"
   xmlns:xlink="http://www.w3.org/1999/xlink"
   xmlns="http://www.w3.org/2000/svg"
   xmlns:svg="http://www.w3.org/2000/svg">
  <defs
     id="defs13">
    <linearGradient
       inkscape:collect="always"
       xlink:href="#_lgradient_44"
       id="linearGradient872"
       x1="-12.025727"
       y1="6.1170783"
       x2="-0.085100174"
       y2="6.1170783"
       gradientUnits="userSpaceOnUse"
       gradientTransform="matrix(3.8358211,0,0,3.8371386,-0.00544341,-0.00268054)" />
    <linearGradient
       id="_lgradient_1"
       x1="0.18336116"
       y1="0.24917752"
       x2="0.9027437"
       y2="0.90347725"
       gradientTransform="matrix(24.617266,0,0,24.816118,10.841288,10.089605)"
       gradientUnits="userSpaceOnUse">
      <stop
         offset="2.608695652173913%"
         stop-opacity="1"
         style="stop-color:rgb(179,255,171)"
         id="stop2-3" />
      <stop
         offset="98.69565217391305%"
         stop-opacity="1"
         style="stop-color:rgb(18,255,247)"
         id="stop4-6" />
    </linearGradient>
    <linearGradient
       inkscape:collect="always"
       xlink:href="#_lgradient_44"
       id="linearGradient15"
       x1="-9.6850061"
       y1="45.161198"
       x2="11.98815"
       y2="21.735205"
       gradientUnits="userSpaceOnUse"
       gradientTransform="matrix(1.1147442,0,0,1.1150348,-0.01237238,-3.3277956)" />
    <linearGradient
       inkscape:collect="always"
       xlink:href="#_lgradient_44"
       id="linearGradient1031"
       x1="10.893"
       y1="24"
       x2="37.106998"
       y2="24"
       gradientUnits="userSpaceOnUse" />
  </defs>
  <sodipodi:namedview
     id="namedview11"
     pagecolor="#ffffff"
     bordercolor="#666666"
     borderopacity="1.0"
     inkscape:pageshadow="2"
     inkscape:pageopacity="0.0"
     inkscape:pagecheckerboard="0"
     inkscape:document-units="pt"
     showgrid="false"
     inkscape:zoom="10.21875"
     inkscape:cx="31.95107"
     inkscape:cy="32"
     inkscape:window-width="1600"
     inkscape:window-height="836"
     inkscape:window-x="0"
     inkscape:window-y="0"
     inkscape:window-maximized="1"
     inkscape:current-layer="svg9" />
  <linearGradient
     id="_lgradient_44"
     x1="0"
     y1="0.5"
     x2="1"
     y2="0.5"
     gradientTransform="matrix(44,0,0,44,2,2)"
     gradientUnits="userSpaceOnUse">
    <stop
       offset="0%"
       stop-opacity="1"
       style="stop-color:rgb(178,254,250)"
       id="stop2" />
    <stop
       offset="98.26086956521739%"
       stop-opacity="1"
       style="stop-color:rgb(14,210,247)"
       id="stop4" />
  </linearGradient>
  <rect
     x="-46.783188"
     y="1.2253767"
     height="45.80014"
     rx="6.1837621"
     shape-rendering="crispEdges"
     id="rect5-6-7-3"
     ry="6.8055277"
     transform="matrix(0.00524063,-0.99998627,0.99998801,0.00489691,0,0)"
     style="isolation:isolate;fill:#00b7ff;fill-opacity:0.13470298;stroke:url(#linearGradient872);stroke-width:2.0301;stroke-miterlimit:4;stroke-dasharray:none;stroke-opacity:1"
     width="45.801998" />
  <rect
     x="-15.686804"
     y="17.260084"
     height="33.345856"
     rx="6.7920032"
     shape-rendering="crispEdges"
     id="rect5-6-6-6-6"
     style="isolation:isolate;fill:#00b7ff;fill-opacity:0.13470298;stroke:url(#linearGradient15);stroke-width:1.67233;stroke-miterlimit:4;stroke-dasharray:none;stroke-opacity:1"
     ry="7.4743071"
     transform="matrix(0.72446484,-0.68931175,0.68622417,0.72739012,0,0)"
     width="33.338203" />
  <path
     style="color:#000000;fill:url(#linearGradient1031);fill-rule:evenodd;-inkscape-stroke:none"
     d="m 10.392578,14.886719 v 18.226562 h 0.5 H 16 v -6.679687 l 4.806641,6.679687 h 7.085937 l -7.25,-9.330078 6.681641,-8.896484 h -6.6875 L 16,21.605469 v -6.71875 z m 1,1 H 15 v 7.445312 1.484375 7.296875 h -3.607422 z m 9.769531,0 h 4.160157 l -5.939454,7.90625 6.466797,8.320312 h -4.53125 l -5.794921,-8.054687 z m 13.134766,4.064453 c -1.131847,0 -2.090973,0.278269 -2.804688,0.875 -0.712355,0.595058 -1.085937,1.46148 -1.085937,2.449219 0,0.965137 0.364593,1.829955 1.054687,2.472656 h 0.002 c 0.688287,0.638629 1.583526,0.964844 2.58789,0.964844 1.01858,0 1.911408,-0.326256 2.570313,-0.97461 v -0.002 h 0.002 c 0.655676,-0.653326 0.984375,-1.5471 0.984375,-2.566406 0,-0.68004 -0.133589,-1.291364 -0.425781,-1.806641 -0.292018,-0.513757 -0.740081,-0.90167 -1.28711,-1.107422 l -0.52539,-0.199218 -0.47461,1.90039 v -2.005859 h -0.5 z m -0.402344,1.11914 v 3.892579 l 0.503906,-0.0039 c 0.523073,-0.0047 0.996996,-0.128511 1.355469,-0.429687 v -0.002 h 0.002 c 0.355962,-0.302789 0.539063,-0.769398 0.539063,-1.251953 0,-0.350558 -0.0751,-0.683584 -0.244141,-0.966797 v -0.002 l -0.002,-0.002 c 6.2e-4,0.001 0.0089,0.01773 -0.0293,-0.125 -0.0099,-0.0369 -0.08893,-0.08352 -0.117187,-0.132812 l 0.111328,-0.447266 c 0.09095,0.09341 0.223369,0.128492 0.296875,0.257813 0.189807,0.334722 0.296875,0.762541 0.296875,1.3125 0,0.815657 -0.228345,1.397064 -0.6875,1.855469 -4.28e-4,4.21e-4 -0.0015,-4.21e-4 -0.002,0 -4.25e-4,4.24e-4 4.25e-4,0.0015 0,0.002 -0.464815,0.456494 -1.050799,0.685547 -1.867188,0.685547 -0.799634,0 -1.404491,-0.229896 -1.908203,-0.697266 -0.503904,-0.469298 -0.736328,-1.009373 -0.736328,-1.740234 0,-0.757688 0.231726,-1.268731 0.726562,-1.681641 v -0.002 c 0.402385,-0.336431 1.051607,-0.453836 1.761719,-0.521485 z m -0.152344,0.65625 -0.552734,0.05859 c -0.414687,0.04412 -0.801377,0.204565 -1.087891,0.484375 -0.286501,0.276026 -0.449218,0.670218 -0.449218,1.06836 0,0.404209 0.142629,0.801952 0.423828,1.080078 0.279852,0.276742 0.656692,0.422612 1.085937,0.492187 l 0.580078,0.09375 z m 1.152344,0.732422 0.199219,0.08789 c 0.01325,0.06744 0.01555,0.138359 0.101562,0.279297 0.05775,0.0986 0.09961,0.238589 0.09961,0.449219 0,0.266514 -0.06236,0.381383 -0.1875,0.488281 -4.37e-4,3.73e-4 4.38e-4,0.0016 0,0.002 -0.03842,0.03194 -0.157345,0.03052 -0.212891,0.05664 z m -2.152344,0.66211 v 0.478515 c -0.04244,-0.06653 -0.08984,-0.118678 -0.08984,-0.261718 0,-0.102342 0.0536,-0.154151 0.08984,-0.216797 z m -5.25,3.697265 v 2.861328 h 9.892579 v -0.5 -2.361328 z m 1,1 h 7.892579 v 0.861328 h -7.892579 z m 0.791016,2.244141 c -0.419595,0 -0.828526,0.14785 -1.132812,0.427734 -0.305525,0.278399 -0.484375,0.686834 -0.484375,1.101563 0,0.409113 0.182682,0.810437 0.486328,1.091797 h 0.002 l 0.002,0.002 c 0.305316,0.277305 0.710502,0.427734 1.126953,0.427734 0.418602,0 0.826745,-0.152049 1.136719,-0.427734 v -0.002 c 0.105876,-0.09463 0.09626,-0.252353 0.171875,-0.371094 v 0.707031 h 6.792969 v -0.5 -2.363281 h -6.792969 v 0.699219 C 30.518628,30.740695 30.529235,30.585537 30.427734,30.494141 30.117987,30.213694 29.706407,30.0625 29.283203,30.0625 Z m 0,1 c 0.210796,0 0.340357,0.05228 0.474609,0.173828 0.133694,0.120384 0.167969,0.19884 0.167969,0.355469 0,0.143707 -0.03139,0.22014 -0.171875,0.345703 -0.142025,0.126315 -0.269305,0.175781 -0.470703,0.175781 -0.202779,0 -0.323002,-0.05025 -0.453125,-0.167969 -0.128729,-0.120419 -0.164062,-0.202323 -0.164062,-0.353515 0,-0.171271 0.03573,-0.249727 0.158203,-0.361328 v -0.002 l 0.002,-0.002 C 28.949551,31.112408 29.070304,31.0625 29.283203,31.0625 Z m 2.308594,0.09375 h 4.792969 v 0.863281 h -4.792969 z"
     id="path7" />
</svg>
