<?xml version="1.0" encoding="UTF-8" standalone="no"?>
<!-- Generator: Gravit.io -->

<svg
   style="isolation:isolate"
   viewBox="0 0 48 48"
   width="48pt"
   height="48pt"
   version="1.1"
   id="svg9"
   sodipodi:docname="kmines.svg"
   inkscape:version="1.1.2 (0a00cf5339, 2022-02-04)"
   xmlns:inkscape="http://www.inkscape.org/namespaces/inkscape"
   xmlns:sodipodi="http://sodipodi.sourceforge.net/DTD/sodipodi-0.dtd"
   xmlns:xlink="http://www.w3.org/1999/xlink"
   xmlns="http://www.w3.org/2000/svg"
   xmlns:svg="http://www.w3.org/2000/svg">
  <defs
     id="defs13">
    <linearGradient
       id="_lgradient_1"
       x1="0.18336116"
       y1="0.24917752"
       x2="0.9027437"
       y2="0.90347725"
       gradientTransform="matrix(24.617266,0,0,24.816118,10.841288,10.089605)"
       gradientUnits="userSpaceOnUse">
      <stop
         offset="2.608695652173913%"
         stop-opacity="1"
         style="stop-color:rgb(179,255,171)"
         id="stop2-3" />
      <stop
         offset="98.69565217391305%"
         stop-opacity="1"
         style="stop-color:rgb(18,255,247)"
         id="stop4-6" />
    </linearGradient>
    <linearGradient
       inkscape:collect="always"
       xlink:href="#_lgradient_8"
       id="linearGradient858"
       x1="10.664263"
       y1="24.024355"
       x2="37.049095"
       y2="24.024355"
       gradientUnits="userSpaceOnUse" />
    <linearGradient
       inkscape:collect="always"
       xlink:href="#_lgradient_8"
       id="linearGradient908"
       x1="-16.522968"
       y1="33.93301"
       x2="18.487564"
       y2="33.93301"
       gradientUnits="userSpaceOnUse" />
    <linearGradient
       inkscape:collect="always"
       xlink:href="#_lgradient_8"
       id="linearGradient910"
       x1="-47.798237"
       y1="24.125446"
       x2="0.033860326"
       y2="24.125446"
       gradientUnits="userSpaceOnUse" />
  </defs>
  <sodipodi:namedview
     id="namedview11"
     pagecolor="#ffffff"
     bordercolor="#666666"
     borderopacity="1.0"
     inkscape:pageshadow="2"
     inkscape:pageopacity="0.0"
     inkscape:pagecheckerboard="0"
     inkscape:document-units="pt"
     showgrid="false"
     inkscape:zoom="10.21875"
     inkscape:cx="31.95107"
     inkscape:cy="32"
     inkscape:window-width="1600"
     inkscape:window-height="836"
     inkscape:window-x="0"
     inkscape:window-y="0"
     inkscape:window-maximized="1"
     inkscape:current-layer="svg9" />
  <linearGradient
     id="_lgradient_8"
     x1="0.22078557924020603"
     y1="0.04723996636961164"
     x2="0.9022490870014594"
     y2="0.9061460265379022"
     gradientTransform="matrix(26.385047,0,0,26.184867,10.664049,10.932015)"
     gradientUnits="userSpaceOnUse">
    <stop
       offset="2.608695652173913%"
       stop-opacity="1"
       style="stop-color:rgb(237,184,212)"
       id="stop2" />
    <stop
       offset="98.69565217391305%"
       stop-opacity="1"
       style="stop-color:rgb(162,110,245)"
       id="stop4" />
  </linearGradient>
  <rect
     x="-46.783188"
     y="1.2253767"
     height="45.80014"
     rx="6.1837621"
     shape-rendering="crispEdges"
     id="rect5-6-7-3"
     ry="6.8055277"
     transform="matrix(0.00524063,-0.99998627,0.99998801,0.00489691,0,0)"
     style="isolation:isolate;fill:#d300ff;fill-opacity:0.13470298;stroke:url(#linearGradient910);stroke-width:2.0301;stroke-miterlimit:4;stroke-dasharray:none;stroke-opacity:1"
     width="45.801998" />
  <rect
     x="-15.686804"
     y="17.260084"
     height="33.345856"
     rx="6.7920032"
     shape-rendering="crispEdges"
     id="rect5-6-6-6-6"
     style="isolation:isolate;fill:#d300ff;fill-opacity:0.13470298;stroke:url(#linearGradient908);stroke-width:1.67233;stroke-miterlimit:4;stroke-dasharray:none;stroke-opacity:1"
     ry="7.4743071"
     transform="matrix(0.72446484,-0.68931175,0.68622417,0.72739012,0,0)"
     width="33.338203" />
  <path
     style="color:#000000;fill:url(#linearGradient858);fill-rule:evenodd;-inkscape-stroke:none"
     d="m 19.675781,10.431641 c -0.324552,0 -0.647642,0.02602 -0.966797,0.07813 -0.370838,0.05674 -0.740536,0.139312 -1.105468,0.246093 -0.432693,0.122704 -0.852735,0.29038 -1.253907,0.503907 l -0.0039,0.002 -0.002,0.002 c -0.399075,0.218847 -0.773417,0.477024 -1.117187,0.775391 h -0.002 l -0.002,0.002 c -0.368419,0.323955 -0.70726,0.680839 -1.003906,1.074218 l -0.002,0.0039 -0.002,0.002 c -0.324592,0.443191 -0.619036,0.919889 -0.865235,1.417969 -2.77e-4,5.49e-4 2.77e-4,0.0014 0,0.002 -3.97e-4,8.05e-4 -0.0016,0.0011 -0.002,0.002 -0.379293,0.753096 -0.670291,1.540588 -0.880859,2.345703 -0.291932,1.112993 -0.504935,2.245816 -0.632813,3.390625 -0.02894,0.256338 0.09875,0.470484 0.199219,0.691406 -0.316931,-0.145601 -0.675339,-0.183531 -0.972656,0.03516 l -0.494141,0.365235 c -0.432784,0.319559 -0.529901,0.943306 -0.210937,1.376953 l 0.01758,0.02344 v 0.002 c 0.319235,0.434019 0.944777,0.528304 1.378906,0.208985 l 0.371094,-0.273438 v 0.201172 c 0.0011,0.547218 0.453888,1.003906 1.001953,1.003906 0.550146,10e-7 1.001171,-0.459893 1,-1.007812 v -0.0078 l 0.382813,0.28125 c 0.439424,0.324535 1.073512,0.227205 1.396484,-0.21289 l 0.0039,-0.0039 c 0.322716,-0.439746 0.225249,-1.073512 -0.214844,-1.396485 l -0.539062,-0.396484 c -0.236206,-0.173813 -0.519497,-0.207128 -0.789063,-0.150391 0.07731,-0.147109 0.218408,-0.251988 0.238282,-0.425781 0.116514,-1.013674 0.302402,-2.015989 0.558593,-3 0.163847,-0.627135 0.388647,-1.229734 0.675782,-1.804687 l 0.002,-0.002 c 2.72e-4,-5.45e-4 -2.73e-4,-0.0014 0,-0.002 0.178724,-0.35137 0.38391,-0.690266 0.613281,-0.996093 0.178424,-0.237899 0.375781,-0.453794 0.59375,-0.640625 v -0.002 h 0.002 c 0.189756,-0.164112 0.396468,-0.304669 0.626953,-0.433593 0.0013,-7.32e-4 0.0026,-0.0012 0.0039,-0.002 0.221533,-0.115189 0.456115,-0.212505 0.685547,-0.277344 0.251035,-0.07095 0.519533,-0.128285 0.78711,-0.173828 0.185901,-0.02606 0.359707,-0.03906 0.535156,-0.03906 h 0.0078 l 0.0078,-0.002 c 0.155276,-0.0047 0.307285,0.01135 0.466797,0.04102 0.0013,2.46e-4 0.0026,-2.49e-4 0.0039,0 0.108078,0.02314 0.208912,0.05344 0.294922,0.08984 0.09016,0.04143 0.177669,0.09727 0.246094,0.154297 l 0.0078,0.0059 0.0098,0.0078 c 0.08288,0.06315 0.154475,0.139315 0.216797,0.226563 l 0.0078,0.0098 0.0078,0.0098 c 0.07942,0.100314 0.147175,0.222309 0.205078,0.357422 l 0.002,0.002 v 0.002 c 0.04545,0.103514 0.06996,0.212693 0.105469,0.318359 l -0.640625,0.191407 c -1.519326,0.453284 -2.390729,2.066079 -1.9375,3.585937 l 0.464843,1.556641 c -1.164617,1.254953 -2.042955,2.753395 -2.501953,4.416015 v 0.002 c -0.241479,0.896082 0.29603,1.832361 1.191407,2.076172 0.893739,0.243367 1.829475,-0.288426 2.072265,-1.18164 v -0.002 c 0.396192,-1.438303 1.222811,-2.72088 2.365235,-3.673829 l 0.02539,-0.02148 5.373047,-1.603516 c 1.770958,0.187805 3.409397,1.018574 4.603516,2.339844 1.203963,1.332163 1.873047,3.065209 1.873047,4.859375 0,1.260356 -0.430189,2.425129 -1.039063,3.501953 0.553575,-1.089251 0.90625,-2.270325 0.90625,-3.496093 0,-0.953015 -0.171933,-1.895384 -0.515625,-2.78711 v -0.002 c -0.21498,-0.558355 -0.855892,-0.84814 -1.416016,-0.630859 -0.55687,0.21602 -0.843493,0.850158 -0.632812,1.410156 l 0.002,0.002 v 0.002 c 0.245757,0.638966 0.371094,1.322476 0.371094,2.00586 0,1.061299 -0.300867,2.107782 -0.869141,3.003906 -0.57562,0.898097 -1.383758,1.612762 -2.345703,2.066406 l -0.002,0.002 c -0.541448,0.258192 -0.776818,0.916806 -0.521484,1.458985 0.08849,0.187902 0.267651,0.280163 0.43164,0.386718 -0.535891,0.125073 -1.053922,0.322266 -1.613281,0.322266 -2.541289,0 -4.905032,-1.338273 -6.214844,-3.517578 -0.477353,-0.79755 -1.526252,-1.058087 -2.322265,-0.578125 -0.795319,0.479543 -1.056343,1.525527 -0.578125,2.320312 1.925075,3.193873 5.388809,5.158204 9.115234,5.158203 2.819237,0 5.519687,-1.119296 7.513672,-3.113281 1.993985,-1.993986 3.113281,-4.696388 3.113281,-7.515625 0,-2.631721 -0.974794,-5.175903 -2.744141,-7.132812 -1.768858,-1.950119 -4.200191,-3.182675 -6.820312,-3.445313 h -0.002 l -0.07617,-0.0059 -0.253906,-0.853516 c -0.45331,-1.52013 -2.066457,-2.39083 -3.585938,-1.9375 l -0.126953,0.03711 c -0.06829,-0.213945 -0.12231,-0.432683 -0.210937,-0.638672 v -0.002 c -0.140929,-0.328475 -0.322467,-0.634268 -0.533204,-0.917969 l -0.002,-0.0039 c -0.206112,-0.281018 -0.449684,-0.52929 -0.714843,-0.748047 l -0.0039,-0.0039 -0.002,-0.002 c -0.264358,-0.21013 -0.561805,-0.393101 -0.878906,-0.53125 -0.285456,-0.126131 -0.584031,-0.221755 -0.898438,-0.277343 -0.0013,-2.48e-4 -0.0026,2.47e-4 -0.0039,0 -0.334701,-0.06538 -0.67837,-0.09852 -1.02539,-0.0918 z m 0,1 h 0.0059 0.0039 c 0.271272,-0.0053 0.546567,0.02092 0.818359,0.07422 l 0.0059,0.002 h 0.0039 c 0.230063,0.04001 0.451879,0.110051 0.675781,0.208984 l 0.002,0.002 h 0.002 c 0.227966,0.09912 0.45207,0.237648 0.650391,0.394531 0.209476,0.173088 0.39463,0.362961 0.544922,0.56836 l 0.002,0.002 v 0.002 c 0.169106,0.227236 0.309351,0.46726 0.417969,0.720703 h 0.002 c 0.125689,0.291921 0.220025,0.59352 0.294922,0.896484 l -0.111328,0.673829 0.767578,-0.230469 0.589843,-0.175781 c 1.000641,-0.298537 2.045193,0.266394 2.34375,1.267578 l 0.447266,1.496093 0.742188,0.07227 c 2.372459,0.237812 4.574514,1.353586 6.177734,3.121094 1.602014,1.772465 2.486328,4.076809 2.486328,6.460937 0,2.55464 -1.013263,5.001544 -2.820312,6.808594 -1.807049,1.807049 -4.252001,2.820313 -6.806641,2.820312 -3.375195,0 -6.514874,-1.778896 -8.259766,-4.673828 -0.19858,-0.330035 -0.09479,-0.748388 0.238282,-0.949218 0.332381,-0.200412 0.749772,-0.0969 0.949218,0.236328 v 0.002 c 1.490323,2.479644 4.1801,4.001953 7.072266,4.001953 2.187785,0 4.286231,-0.869729 5.828125,-2.417969 1.546173,-1.546791 2.416016,-3.640891 2.416016,-5.828125 0,-2.042613 -0.761081,-4.013662 -2.13086,-5.529297 -1.369075,-1.514856 -3.253156,-2.4743 -5.289062,-2.677734 h -0.002 l -0.126954,-0.01172 -5.78125,1.722656 -0.185546,0.154297 c -1.299787,1.084213 -2.239462,2.542551 -2.689454,4.177735 v 0.002 c -0.09987,0.368857 -0.470979,0.582506 -0.845703,0.480469 -0.372975,-0.101561 -0.587513,-0.47733 -0.488281,-0.84961 0.442817,-1.602848 1.283465,-3.056104 2.443359,-4.232422 l 0.207032,-0.210937 -0.619141,-2.078125 c -0.298482,-1.000929 0.263862,-2.044542 1.263672,-2.34375 l 1.576172,-0.46875 -0.13086,-0.556641 c -0.06633,-0.291123 -0.159096,-0.569851 -0.277343,-0.839843 l -0.002,-0.002 C 22.00418,13.529709 21.897146,13.33305 21.753906,13.150391 21.640738,12.994271 21.504014,12.849764 21.34375,12.726563 21.201577,12.609794 21.045182,12.51308 20.878906,12.4375 l -0.0059,-0.002 -0.0039,-0.002 c -0.160338,-0.06872 -0.330206,-0.120466 -0.501954,-0.15625 h -0.0039 l -0.0059,-0.002 c -0.218454,-0.04096 -0.443246,-0.06131 -0.677735,-0.05469 h -0.0059 c -0.232047,7.87e-4 -0.454544,0.02113 -0.675781,0.05274 h -0.0059 l -0.0078,0.002 c -0.292451,0.04978 -0.595501,0.111355 -0.892578,0.195312 -0.314626,0.08892 -0.611274,0.217047 -0.886719,0.361328 l -0.0059,0.002 -0.0059,0.0039 c -0.279524,0.156013 -0.547433,0.335336 -0.796875,0.550781 -0.28248,0.242126 -0.5274,0.514398 -0.742187,0.800781 -0.270225,0.3603 -0.504926,0.74859 -0.707031,1.146485 h -0.002 v 0.002 c -0.319629,0.639257 -0.57062,1.309838 -0.751954,2.003906 -0.268088,1.029705 -0.462189,2.0771 -0.583984,3.136719 v 0.002 c -0.02524,0.220764 -0.215088,0.370913 -0.435547,0.345703 -0.220764,-0.02524 -0.370914,-0.215089 -0.345703,-0.435547 v -0.002 c 0.122348,-1.095301 0.325459,-2.178555 0.605469,-3.246094 0.194192,-0.742499 0.462006,-1.466803 0.808594,-2.154297 l 0.002,-0.002 v -0.002 c 0.217083,-0.439733 0.480938,-0.865621 0.773437,-1.265625 v -0.002 c 0.0011,-0.0014 0.0028,-0.0025 0.0039,-0.0039 0.250532,-0.331376 0.540418,-0.639696 0.861329,-0.921875 0.285435,-0.247473 0.599038,-0.463356 0.935546,-0.648438 0.337588,-0.179683 0.69295,-0.322091 1.058594,-0.425781 h 0.002 0.002 c 0.323746,-0.09489 0.652749,-0.168461 0.982422,-0.21875 h 0.0039 0.002 c 0.264705,-0.04322 0.535419,-0.06641 0.80664,-0.06641 z m 5.550781,4.318359 -4.384765,1.310547 0.142578,0.478515 0.482422,1.625 4.382812,-1.3125 z m -0.673828,1.244141 0.05469,0.185546 -2.466797,0.738282 -0.05469,-0.185547 z m -12.910156,4.824218 0.002,0.002 -0.472656,0.34961 -0.002,-0.002 z m 2.921875,0.160157 0.535156,0.392578 v 0.002 z m -1.441406,0.220703 c 0.0046,0 0.002,-0.0064 0.002,0.0039 v 0.002 0.703125 0.002 c 2.18e-4,-4.85e-4 -0.002,0.0024 -0.002,-0.002 v -0.703125 c 0,-0.01101 -0.004,-0.0059 0,-0.0059 z m 19.339844,2.30664 c 0.05067,-0.01966 0.09842,-5.44e-4 0.121093,0.05859 0.299278,0.775904 0.449219,1.596027 0.449219,2.429688 0,1.287367 -0.365497,2.55385 -1.058594,3.640625 h -0.002 c -0.688321,1.087992 -1.669267,1.960684 -2.833984,2.509765 -0.05587,0.02638 -0.106786,0.0062 -0.13086,-0.04492 -0.02424,-0.05146 -0.0038,-0.104081 0.04492,-0.128906 l 0.002,-0.002 c 1.133245,-0.535002 2.086801,-1.379436 2.761719,-2.433594 v -0.002 h 0.002 c 0.670936,-1.058014 1.023438,-2.28876 1.023438,-3.539062 0,-0.806051 -0.147059,-1.61009 -0.4375,-2.365235 l 0.002,0.0039 c -0.01929,-0.05127 0.0023,-0.105855 0.05664,-0.126953 z m -14.396485,1.982422 c -0.928265,0 -1.691406,0.763142 -1.691406,1.691406 0,0.928266 0.763141,1.691407 1.691406,1.691407 0.928265,0 1.691406,-0.763141 1.691406,-1.691407 0,-0.928264 -0.763141,-1.691406 -1.691406,-1.691406 z m 0,1 c 0.387202,0 0.691406,0.304205 0.691406,0.691406 0,0.387204 -0.304204,0.691407 -0.691406,0.691407 -0.387203,0 -0.691406,-0.304203 -0.691406,-0.691407 0,-0.387202 0.304203,-0.691406 0.691406,-0.691406 z m 14.066406,4.486328 c -0.03799,0.03975 -0.05087,0.0958 -0.08984,0.134766 v 0.002 h -0.002 c -0.01624,0.0163 -0.04027,0.02098 -0.05664,0.03711 0.05087,-0.0569 0.09921,-0.11541 0.148437,-0.173828 z"
     id="path7" />
</svg>
