<?xml version="1.0" encoding="UTF-8" standalone="no"?>
<!-- Generator: Gravit.io -->

<svg
   style="isolation:isolate"
   viewBox="0 0 48 48"
   width="48pt"
   height="48pt"
   version="1.1"
   id="svg9"
   sodipodi:docname="kmymoney.svg"
   inkscape:version="1.1.2 (0a00cf5339, 2022-02-04)"
   xmlns:inkscape="http://www.inkscape.org/namespaces/inkscape"
   xmlns:sodipodi="http://sodipodi.sourceforge.net/DTD/sodipodi-0.dtd"
   xmlns:xlink="http://www.w3.org/1999/xlink"
   xmlns="http://www.w3.org/2000/svg"
   xmlns:svg="http://www.w3.org/2000/svg">
  <defs
     id="defs13">
    <linearGradient
       inkscape:collect="always"
       xlink:href="#_lgradient_20"
       id="linearGradient872"
       x1="-12.025727"
       y1="6.1170783"
       x2="-0.085100174"
       y2="6.1170783"
       gradientUnits="userSpaceOnUse"
       gradientTransform="matrix(3.8358211,0,0,3.8371386,-0.00544341,-0.00268054)" />
    <linearGradient
       id="_lgradient_1"
       x1="0.18336116"
       y1="0.24917752"
       x2="0.9027437"
       y2="0.90347725"
       gradientTransform="matrix(24.617266,0,0,24.816118,10.841288,10.089605)"
       gradientUnits="userSpaceOnUse">
      <stop
         offset="2.608695652173913%"
         stop-opacity="1"
         style="stop-color:rgb(179,255,171)"
         id="stop2-3" />
      <stop
         offset="98.69565217391305%"
         stop-opacity="1"
         style="stop-color:rgb(18,255,247)"
         id="stop4-6" />
    </linearGradient>
    <linearGradient
       inkscape:collect="always"
       xlink:href="#_lgradient_20"
       id="linearGradient15"
       x1="-9.6850061"
       y1="45.161198"
       x2="11.98815"
       y2="21.735205"
       gradientUnits="userSpaceOnUse"
       gradientTransform="matrix(1.1147442,0,0,1.1150348,-0.01237238,-3.3277956)" />
    <linearGradient
       inkscape:collect="always"
       xlink:href="#_lgradient_20"
       id="linearGradient858"
       x1="10.003172"
       y1="24"
       x2="37.996784"
       y2="24"
       gradientUnits="userSpaceOnUse" />
  </defs>
  <sodipodi:namedview
     id="namedview11"
     pagecolor="#ffffff"
     bordercolor="#666666"
     borderopacity="1.0"
     inkscape:pageshadow="2"
     inkscape:pageopacity="0.0"
     inkscape:pagecheckerboard="0"
     inkscape:document-units="pt"
     showgrid="false"
     inkscape:zoom="10.21875"
     inkscape:cx="31.95107"
     inkscape:cy="32"
     inkscape:window-width="1600"
     inkscape:window-height="836"
     inkscape:window-x="0"
     inkscape:window-y="0"
     inkscape:window-maximized="1"
     inkscape:current-layer="svg9" />
  <linearGradient
     id="_lgradient_20"
     x1="0"
     y1="0.5"
     x2="1"
     y2="0.5"
     gradientTransform="matrix(27.993585,0,0,27.993585,10.003198,10.003207)"
     gradientUnits="userSpaceOnUse">
    <stop
       offset="0%"
       stop-opacity="1"
       style="stop-color:rgb(247,242,6)"
       id="stop2" />
    <stop
       offset="97.82608695652173%"
       stop-opacity="1"
       style="stop-color:rgb(255,187,36)"
       id="stop4" />
  </linearGradient>
  <rect
     x="-46.783188"
     y="1.2253767"
     height="45.80014"
     rx="6.1837621"
     shape-rendering="crispEdges"
     id="rect5-6-7-3"
     ry="6.8055277"
     transform="matrix(0.00524063,-0.99998627,0.99998801,0.00489691,0,0)"
     style="isolation:isolate;fill:#fff100;fill-opacity:0.13470298;stroke:url(#linearGradient872);stroke-width:2.0301;stroke-miterlimit:4;stroke-dasharray:none;stroke-opacity:1"
     width="45.801998" />
  <rect
     x="-15.686804"
     y="17.260084"
     height="33.345856"
     rx="6.7920032"
     shape-rendering="crispEdges"
     id="rect5-6-6-6-6"
     style="isolation:isolate;fill:#fff100;fill-opacity:0.13470298;stroke:url(#linearGradient15);stroke-width:1.67233;stroke-miterlimit:4;stroke-dasharray:none;stroke-opacity:1"
     ry="7.4743071"
     transform="matrix(0.72446484,-0.68931175,0.68622417,0.72739012,0,0)"
     width="33.338203" />
  <path
     style="color:#000000;fill:url(#linearGradient858);fill-rule:evenodd;-inkscape-stroke:none"
     d="m 24,9.5039063 c -3.530339,0 -6.950183,1.2921457 -9.597656,3.6289067 v 0.002 c -0.789872,0.69867 -0.862412,1.919477 -0.164063,2.708984 0.699187,0.788764 1.919888,0.863543 2.708985,0.164062 v 0.002 C 18.892887,14.296651 21.404335,13.34375 24,13.34375 c 2.82902,0 5.541613,1.122188 7.533203,3.121094 v 0.002 h 0.002 C 33.534062,18.458386 34.65625,21.17098 34.65625,24 c 0,2.82902 -1.122188,5.541614 -3.121094,7.533203 h -0.002 v 0.002 C 29.541613,33.534062 26.82902,34.65625 24,34.65625 c -2.814193,0 -5.510179,-1.108465 -7.501953,-3.091797 h -0.002 C 14.497453,29.588882 13.367339,26.899315 13.34375,24.085937 v -0.002 c -0.0074,-1.0531 -0.879938,-1.911895 -1.933594,-1.902343 -1.054498,0.0087 -1.912587,0.880931 -1.9062497,1.935546 0.033567,3.822894 1.5701567,7.487767 4.2851567,10.177735 2.714389,2.689364 6.387459,4.201172 10.210937,4.201172 3.840876,0 7.529511,-1.52829 10.251953,-4.242188 v -0.002 h 0.002 C 36.967804,31.529511 38.496094,27.840876 38.496094,24 c 0,-3.840876 -1.52829,-7.529511 -4.242188,-10.251953 h -0.002 v -0.002 C 31.529511,11.032196 27.840876,9.5039063 24,9.5039063 Z m 0,0.9999997 c 3.575354,0 7.011242,1.423497 9.546875,3.951172 2.526452,2.535442 3.949219,5.970491 3.949219,9.544922 0,3.574431 -1.422767,7.00948 -3.949219,9.544922 -3.6e-4,3.59e-4 -0.0016,-3.59e-4 -0.002,0 -3.59e-4,3.6e-4 3.59e-4,0.0016 0,0.002 C 31.00948,36.073327 27.57443,37.496094 24,37.496094 c -3.559749,0 -6.978676,-1.408226 -9.505859,-3.91211 -2.526573,-2.503278 -3.958973,-5.914274 -3.990235,-9.474609 -0.002,-0.512106 0.403531,-0.923496 0.916016,-0.927734 0.51216,-0.0046 0.920743,0.397678 0.923828,0.910156 v 0.002 c 0.02523,3.076389 1.262395,6.017491 3.449219,8.179687 2.17956,2.170323 5.1302,3.382813 8.207031,3.382813 3.092907,0 6.060669,-1.227534 8.240234,-3.414063 l 0.002,-0.002 C 34.428717,30.06067 35.65625,27.092907 35.65625,24 c 0,-3.092907 -1.227533,-6.06067 -3.414063,-8.240234 C 30.062442,13.572014 27.093829,12.34375 24,12.34375 c -2.840389,0 -5.586961,1.04242 -7.714844,2.916016 -0.383686,0.340112 -0.958421,0.305893 -1.298828,-0.07813 -0.340064,-0.384454 -0.305966,-0.959086 0.07813,-1.298828 C 17.528897,11.7076 20.714056,10.503906 24,10.503906 Z m -2.742188,4.740235 c -1.030639,0 -1.874999,0.84436 -1.875,1.875 v 13.761718 c 10e-7,1.03064 0.844618,1.875 1.875,1.875 1.030764,0 1.876954,-0.844618 1.876954,-1.875 v -2.496093 l 1.982421,3.43164 c 0.515174,0.8918 1.667775,1.202775 2.560547,0.6875 0.89238,-0.515509 1.2032,-1.669789 0.6875,-2.5625 l -3.425781,-5.93164 3.425781,-5.929688 v -0.002 c 0.514239,-0.892461 0.204278,-2.047339 -0.6875,-2.5625 -0.892602,-0.514381 -2.045308,-0.204412 -2.560547,0.6875 l -1.982421,3.431641 v -2.515625 c 0,-1.030382 -0.845932,-1.875 -1.876954,-1.875 z m 0,1 c 0.494186,0 0.876954,0.381354 0.876954,0.875 v 4.03125 l 0.638671,1.107421 3.208985,-5.554687 c 0.247365,-0.428205 0.766618,-0.567356 1.195312,-0.320313 0.427737,0.247095 0.56917,0.767907 0.322266,1.195313 L 23.785156,24.009766 27.5,30.441406 c 0.246904,0.427408 0.105471,0.950172 -0.322266,1.197266 -0.428524,0.247328 -0.947883,0.106051 -1.195312,-0.322266 l -3.208985,-5.55664 -0.638671,1.111328 v 4.009765 c 0,0.493646 -0.382511,0.875 -0.876954,0.875 -0.493646,0 -0.874999,-0.381612 -0.875,-0.875 V 17.119141 c 0,-0.493388 0.381612,-0.875 0.875,-0.875 z m -8.986328,0.113281 c -0.470763,0.148274 -0.885436,0.475792 -1.128906,0.945312 h -0.002 c -0.260889,0.504671 -0.492902,1.030693 -0.701172,1.554688 l -0.002,0.0039 -0.002,0.0039 c -0.373253,0.987415 0.131159,2.105349 1.119141,2.478516 0.986936,0.373071 2.104702,-0.130653 2.478515,-1.117188 0.147776,-0.388051 0.31803,-0.775694 0.509766,-1.144531 0.493752,-0.933611 0.129491,-2.105462 -0.806641,-2.595703 -0.468193,-0.245187 -0.99408,-0.27718 -1.464844,-0.128906 z m 0.296875,0.947265 c 0.223919,-0.07052 0.476674,-0.05321 0.705079,0.06641 0.457062,0.239358 0.625329,0.787318 0.384765,1.242187 v 0.002 0.002 c -0.212913,0.409115 -0.400023,0.832381 -0.560547,1.253907 -0.18188,0.481153 -0.708238,0.719013 -1.189453,0.537109 -0.480499,-0.181488 -0.716207,-0.705417 -0.537109,-1.185547 0.197954,-0.497724 0.416456,-0.991343 0.658203,-1.458984 0.118973,-0.229434 0.315144,-0.388467 0.539062,-0.458985 z"
     id="path7" />
</svg>
