<?xml version="1.0" encoding="UTF-8" standalone="no"?>
<!-- Generator: Gravit.io -->

<svg
   style="isolation:isolate"
   viewBox="0 0 48 48"
   width="48pt"
   height="48pt"
   version="1.1"
   id="svg9"
   sodipodi:docname="knemo.svg"
   inkscape:version="1.1.2 (0a00cf5339, 2022-02-04)"
   xmlns:inkscape="http://www.inkscape.org/namespaces/inkscape"
   xmlns:sodipodi="http://sodipodi.sourceforge.net/DTD/sodipodi-0.dtd"
   xmlns:xlink="http://www.w3.org/1999/xlink"
   xmlns="http://www.w3.org/2000/svg"
   xmlns:svg="http://www.w3.org/2000/svg">
  <defs
     id="defs13">
    <linearGradient
       inkscape:collect="always"
       xlink:href="#_lgradient_8"
       id="linearGradient872"
       x1="-12.025727"
       y1="6.1170783"
       x2="-0.085100174"
       y2="6.1170783"
       gradientUnits="userSpaceOnUse"
       gradientTransform="matrix(3.8358211,0,0,3.8371386,-0.00544341,-0.00268054)" />
    <linearGradient
       id="_lgradient_1"
       x1="0.18336116"
       y1="0.24917752"
       x2="0.9027437"
       y2="0.90347725"
       gradientTransform="matrix(24.617266,0,0,24.816118,10.841288,10.089605)"
       gradientUnits="userSpaceOnUse">
      <stop
         offset="2.608695652173913%"
         stop-opacity="1"
         style="stop-color:rgb(179,255,171)"
         id="stop2-3" />
      <stop
         offset="98.69565217391305%"
         stop-opacity="1"
         style="stop-color:rgb(18,255,247)"
         id="stop4-6" />
    </linearGradient>
    <linearGradient
       inkscape:collect="always"
       xlink:href="#_lgradient_8"
       id="linearGradient15"
       x1="-9.6850061"
       y1="45.161198"
       x2="11.98815"
       y2="21.735205"
       gradientUnits="userSpaceOnUse"
       gradientTransform="matrix(1.1147442,0,0,1.1150348,-0.01237238,-3.3277956)" />
    <linearGradient
       inkscape:collect="always"
       xlink:href="#_lgradient_8"
       id="linearGradient1094"
       x1="9.4752188"
       y1="24"
       x2="38.52478"
       y2="24"
       gradientUnits="userSpaceOnUse" />
  </defs>
  <sodipodi:namedview
     id="namedview11"
     pagecolor="#ffffff"
     bordercolor="#666666"
     borderopacity="1.0"
     inkscape:pageshadow="2"
     inkscape:pageopacity="0.0"
     inkscape:pagecheckerboard="0"
     inkscape:document-units="pt"
     showgrid="false"
     inkscape:zoom="10.21875"
     inkscape:cx="31.95107"
     inkscape:cy="32"
     inkscape:window-width="1600"
     inkscape:window-height="836"
     inkscape:window-x="0"
     inkscape:window-y="0"
     inkscape:window-maximized="1"
     inkscape:current-layer="svg9" />
  <linearGradient
     id="_lgradient_8"
     x1="0.04062500000000003"
     y1="0.054347826086956486"
     x2="0.9683507709251103"
     y2="0.9739513503160315"
     gradientTransform="matrix(29.049563,0,0,29.049563,9.4752186,9.4752186)"
     gradientUnits="userSpaceOnUse">
    <stop
       offset="0%"
       stop-opacity="1"
       style="stop-color:rgb(240,107,169)"
       id="stop2" />
    <stop
       offset="98.69565217391305%"
       stop-opacity="1"
       style="stop-color:rgb(66,216,246)"
       id="stop4" />
  </linearGradient>
  <rect
     x="-46.783188"
     y="1.2253767"
     height="45.80014"
     rx="6.1837621"
     shape-rendering="crispEdges"
     id="rect5-6-7-3"
     ry="6.8055277"
     transform="matrix(0.00524063,-0.99998627,0.99998801,0.00489691,0,0)"
     style="isolation:isolate;fill:#00adff;fill-opacity:0.13470298;stroke:url(#linearGradient872);stroke-width:2.0301;stroke-miterlimit:4;stroke-dasharray:none;stroke-opacity:1"
     width="45.801998" />
  <rect
     x="-15.686804"
     y="17.260084"
     height="33.345856"
     rx="6.7920032"
     shape-rendering="crispEdges"
     id="rect5-6-6-6-6"
     style="isolation:isolate;fill:#00adff;fill-opacity:0.13470298;stroke:url(#linearGradient15);stroke-width:1.67233;stroke-miterlimit:4;stroke-dasharray:none;stroke-opacity:1"
     ry="7.4743071"
     transform="matrix(0.72446484,-0.68931175,0.68622417,0.72739012,0,0)"
     width="33.338203" />
  <path
     style="color:#000000;fill:url(#linearGradient1094);fill-rule:evenodd;-inkscape-stroke:none"
     d="m 24,8.9746094 c -5.171661,0.00639 -9.993437,2.6725256 -12.736328,7.0585936 -0.505635,0.806424 -0.25598,1.883907 0.550781,2.388672 0.771224,0.48253 1.766594,0.244487 2.296875,-0.478516 0.526001,0.461447 1.072442,0.894611 1.65625,1.271485 -0.188247,1.008474 -0.305002,2.025614 -0.371094,3.048828 h -3.449218 c -0.749988,0 -1.432292,0.14681 -1.9707035,0.416015 C 9.4381509,22.948893 8.9746094,23.388291 8.9746094,24 c 0,3.983299 1.5856316,7.805801 4.3984376,10.625 h 0.002 v 0.002 c 2.819199,2.812806 6.641701,4.398438 10.625,4.398438 3.983299,0 7.805801,-1.585632 10.625,-4.398438 v -0.002 h 0.002 c 2.812806,-2.819199 4.398438,-6.641701 4.398438,-10.625 0,-3.983299 -1.585632,-7.805801 -4.398438,-10.625 h -0.002 v -0.002 C 31.805801,10.560241 27.983299,8.9746094 24,8.9746094 Z m 0,1 c 3.717917,0 7.287698,1.4811676 9.919922,4.1074216 2.625032,2.632035 4.105469,6.200976 4.105469,9.917969 0,3.716993 -1.480437,7.285934 -4.105469,9.917969 -3.6e-4,3.59e-4 -0.0016,-3.59e-4 -0.002,0 -3.59e-4,3.6e-4 3.59e-4,0.0016 0,0.002 -2.632035,2.625032 -6.200976,4.105469 -9.917969,4.105469 -3.716993,0 -7.285934,-1.480437 -9.917969,-4.105469 l -0.002,-0.002 C 11.455046,31.285934 9.9746094,27.716993 9.9746094,24 c 0,-0.07065 0.092658,-0.247501 0.4492186,-0.425781 0.356561,-0.178281 0.908715,-0.310547 1.523438,-0.310547 h 4.367187 l 0.02148,-0.476563 c 0.05695,-1.241995 0.207658,-2.475923 0.451172,-3.695312 L 16.855469,18.75 16.556641,18.566406 c -0.781955,-0.478092 -1.516153,-1.04338 -2.19336,-1.683594 l -0.423828,-0.40039 -0.330078,0.480469 c -0.08609,0.125226 -0.169986,0.253093 -0.25,0.380859 -0.217415,0.34675 -0.664853,0.448714 -1.013672,0.230469 C 11.996664,17.355836 11.893816,16.911358 12.111328,16.564453 14.671522,12.47053 19.171205,9.9805775 24,9.9746094 Z m -0.736328,1.4746096 -0.726563,0.36914 c -0.274717,0.13944 -0.534221,0.305653 -0.77539,0.501954 l -0.002,0.002 h -0.002 c -0.395485,0.328454 -0.747479,0.701681 -1.058593,1.105468 v 0.002 c -0.365082,0.475908 -0.684667,0.982537 -0.957032,1.507812 v 0.002 c -0.43442,0.847792 -0.791282,1.730315 -1.066406,2.638672 l -0.128906,0.423828 0.404297,0.177734 c 1.187449,0.525466 2.45725,0.864789 3.761719,1 l 0.550781,0.05664 v -0.552734 z m 1.472656,0 v 7.787109 l 0.550781,-0.05664 C 26.58986,19.045164 27.859202,18.70957 29.048828,18.1875 l 0.40625,-0.179688 -0.128906,-0.423828 c -0.275126,-0.909639 -0.632653,-1.794169 -1.06836,-2.644531 v -0.002 c -0.272364,-0.525275 -0.591949,-1.031904 -0.957031,-1.507812 v -0.002 C 26.989667,13.023947 26.637673,12.65072 26.242187,12.322266 h -0.002 l -0.002,-0.002 c -0.241169,-0.196301 -0.500673,-0.362514 -0.77539,-0.501954 z m 3.494141,0.617187 0.96875,1.550782 c 0.131245,0.209878 0.252935,0.428407 0.36914,0.654296 0.38781,0.762579 0.72129,1.548634 0.990235,2.355469 l 0.210937,0.632813 0.548828,-0.378907 c 0.355633,-0.246458 0.691413,-0.517804 1.011719,-0.802734 v 0.002 l 0.802734,-0.71289 -0.388671,-0.375 c -0.864293,-0.836619 -1.837337,-1.538313 -2.890625,-2.083985 z m -8.466797,0.0059 -1.625,0.845703 c -1.048824,0.546679 -2.012555,1.248671 -2.863281,2.080078 l -0.367188,0.359375 0.369141,0.357422 c 0.438009,0.424483 0.903567,0.812952 1.388672,1.167968 l 0.552734,0.404297 0.216797,-0.648437 c 0.270207,-0.810024 0.606365,-1.600177 0.996094,-2.367188 v -0.002 C 18.545382,14.04803 18.665848,13.832213 18.794922,13.625 Z m 2.5,1.158203 v 4.808593 c -0.837547,-0.129493 -1.654059,-0.340929 -2.4375,-0.648437 0.231476,-0.678127 0.476278,-1.35109 0.804687,-1.992187 v -0.002 c 0.24665,-0.475482 0.5345,-0.931378 0.861328,-1.357421 h -0.002 c 0.230348,-0.298962 0.496374,-0.561699 0.773438,-0.808594 z m 3.472656,0 c 0.277064,0.246895 0.54309,0.509632 0.773438,0.808594 h -0.002 c 0.327164,0.42648 0.61451,0.883366 0.861329,1.359375 0.329548,0.643367 0.5749,1.318215 0.80664,1.998046 -0.785251,0.305741 -1.601822,0.515795 -2.439453,0.644532 z m 5.173828,1.658203 c 0.226611,0.170708 0.472963,0.307778 0.6875,0.496094 -0.116258,0.101861 -0.240024,0.189465 -0.359375,0.285156 -0.100161,-0.264566 -0.215673,-0.521845 -0.328125,-0.78125 z m -13.828125,0.01953 c -0.108219,0.250282 -0.219568,0.498956 -0.316406,0.753906 -0.113061,-0.09187 -0.224202,-0.185285 -0.333984,-0.28125 0.202298,-0.178784 0.436537,-0.309465 0.65039,-0.472656 z m 16.996094,1.589844 -0.767578,0.68164 c -0.585883,0.520852 -1.211286,0.987712 -1.869141,1.390625 l -0.296875,0.181641 0.06836,0.341797 c 0.244026,1.216502 0.394223,2.45321 0.451171,3.693359 l 0.02148,0.476563 h 4.857422 l -0.05664,-0.550781 c -0.21309,-2.061375 -0.933876,-4.033371 -2.087891,-5.742188 z m -0.25,1.539062 c 0.7849,1.295808 1.306335,2.723878 1.537109,4.226563 h -2.761718 c -0.06597,-1.0203 -0.182989,-2.035699 -0.371094,-3.041016 0.555695,-0.359395 1.092179,-0.748958 1.595703,-1.185547 z m -22.111328,0.564453 c -0.917841,-0.260141 -1.886528,0.283626 -2.1484376,1.201172 v 0.002 L 9.5,20.050781 c -1.873e-4,6.69e-4 1.864e-4,0.0013 0,0.002 v 0.002 c -0.2542867,0.917221 0.286764,1.883492 1.203125,2.140625 0.916387,0.25714 1.882987,-0.282789 2.140625,-1.199218 v -0.0039 -0.002 l 0.06641,-0.246093 c 0.262681,-0.915926 -0.277252,-1.882928 -1.193359,-2.142579 z m 6.496094,0.865235 -0.105469,0.613281 c -0.151778,0.880314 -0.249418,1.767101 -0.294922,2.658203 l -0.02734,0.525391 h 5.478516 v -2.556641 l -0.457031,-0.03906 c -1.388406,-0.11933 -2.742448,-0.446372 -4.017579,-0.966797 z m 11.576171,0.0039 -0.576171,0.234375 c -1.277894,0.51879 -2.632084,0.843541 -4.019532,0.962891 l -0.457031,0.03906 v 0.458985 2.097656 h 5.478516 L 30.1875,22.738281 c -0.04549,-0.88903 -0.142477,-1.775372 -0.292969,-2.654297 z m -18.345703,0.09375 c 0.396684,0.112431 0.618969,0.509902 0.50586,0.904297 l -0.002,0.0039 -0.06641,0.251953 c -0.110735,0.393889 -0.511799,0.619045 -0.908203,0.507813 -0.395094,-0.110865 -0.621153,-0.514028 -0.509765,-0.91211 l 0.06836,-0.24414 c 0.11388,-0.398955 0.517157,-0.623659 0.912109,-0.511719 z m 7.591797,1.212891 c 1.043155,0.373203 2.119507,0.646338 3.228516,0.777343 v 0.708985 h -3.394531 c 0.03764,-0.497628 0.09363,-0.992627 0.166015,-1.486328 z m 9.931641,0.002 c 0.07178,0.492898 0.126575,0.987744 0.164062,1.484375 h -3.394531 v -0.708985 c 1.108398,-0.130804 2.185882,-0.403453 3.230469,-0.77539 z m -17.509766,3.957031 0.05664,0.550781 c 0.229819,2.223518 1.050512,4.342616 2.365234,6.140625 l 0.326172,0.447266 0.41211,-0.371094 c 0.639139,-0.576478 1.325326,-1.087415 2.052734,-1.521484 l 0.318359,-0.191406 -0.08984,-0.359375 c -0.0074,-0.02968 -0.01498,-0.06439 -0.02344,-0.105469 v -0.0039 l -0.002,-0.002 c -0.29545,-1.349503 -0.47349,-2.725961 -0.53711,-4.107421 l -0.02148,-0.476563 z m 6.328125,0 0.02734,0.525391 c 0.05495,1.08953 0.186659,2.174509 0.394531,3.246093 l 0.115235,0.59375 0.560546,-0.224609 c 1.247809,-0.497812 2.569546,-0.81004 3.923829,-0.925781 l 0.457031,-0.03906 v -0.458984 -2.716797 z m 6.951172,0 v 3.173828 l 0.457031,0.03906 c 1.354431,0.11635 2.67602,0.429922 3.923828,0.927734 l 0.560547,0.224609 0.115235,-0.59375 c 0.207853,-1.072117 0.33958,-2.156554 0.394531,-3.246093 l 0.02734,-0.525391 z m 6.949219,0 -0.02148,0.476563 c -0.06362,1.38146 -0.241659,2.757918 -0.537109,4.107421 l -0.002,0.002 v 0.002 c -0.0087,0.04148 -0.01577,0.07925 -0.02344,0.111328 l -0.08594,0.355469 0.316406,0.189453 c 0.727157,0.434274 1.413104,0.945099 2.052735,1.521484 l 0.412109,0.371094 0.326172,-0.447266 c 1.314154,-1.79747 2.133463,-3.916454 2.363281,-6.138672 l 0.05664,-0.550781 h -0.554688 z m -19.044922,1 h 2.759766 c 0.07826,1.209178 0.220912,2.413435 0.470703,3.599609 -0.500292,0.316937 -0.969895,0.679206 -1.427735,1.058594 -0.935679,-1.404504 -1.54593,-2.986924 -1.802734,-4.658203 z m 6.234375,0 h 3.388672 V 27.0625 C 21.186898,27.189196 20.14022,27.449531 19.125,27.804687 19.00875,27.11958 18.926472,26.429384 18.875,25.736328 Z m 6.861328,0 H 29.125 c -0.05147,0.692945 -0.133742,1.383044 -0.25,2.068359 -1.015239,-0.355178 -2.061957,-0.617075 -3.138672,-0.74414 z m 6.863281,0 h 2.759766 c -0.256749,1.67031 -0.865748,3.252356 -1.800781,4.65625 -0.458351,-0.379378 -0.929633,-0.741775 -1.429688,-1.058594 0.249565,-1.18556 0.392483,-2.389123 0.470703,-3.597656 z m -9.335937,3.644531 -0.550781,0.05664 c -1.236114,0.127474 -2.439674,0.438909 -3.574219,0.917969 l -0.427735,0.179687 0.148438,0.439453 c 0.241292,0.715559 0.537728,1.412354 0.882812,2.085938 v 0.002 c 0.272365,0.525275 0.59195,1.031904 0.957032,1.507812 v 0.002 c 0.311114,0.403787 0.663108,0.777014 1.058593,1.105468 h 0.002 l 0.002,0.002 c 0.241169,0.196301 0.500673,0.362514 0.77539,0.501954 l 0.726563,0.36914 z m 1.472656,0 v 0.554688 6.615234 l 0.726563,-0.36914 c 0.274717,-0.13944 0.534221,-0.305653 0.77539,-0.501954 l 0.002,-0.002 h 0.002 c 0.395486,-0.328454 0.74748,-0.701681 1.058594,-1.105468 v -0.002 c 0.365082,-0.475908 0.684667,-0.982537 0.957031,-1.507812 v -0.002 c 0.345215,-0.6732 0.641609,-1.368013 0.882813,-2.082031 l 0.148437,-0.439454 -0.427734,-0.18164 C 27.727487,29.877745 26.523391,29.565635 25.287109,29.4375 Z m -2.472656,1.19336 v 4.195312 c -0.277064,-0.246895 -0.54309,-0.509632 -0.773438,-0.808594 h 0.002 c -0.326828,-0.426043 -0.614678,-0.881939 -0.861328,-1.357421 v -0.002 c -0.241213,-0.470972 -0.428215,-0.960601 -0.615234,-1.451171 0.726196,-0.269644 1.477698,-0.457666 2.248047,-0.576172 z m 3.472656,0.002 c 0.7702,0.119026 1.522172,0.307976 2.248047,0.578125 -0.186913,0.489804 -0.374129,0.979041 -0.615234,1.449219 -0.24665,0.475482 -0.5345,0.931378 -0.861329,1.357421 h 0.002 c -0.230348,0.298962 -0.496374,0.561699 -0.773438,0.808594 z m -8.349609,0.666015 -0.53125,0.365235 c -0.436171,0.300673 -0.852191,0.631045 -1.248047,0.988281 l -0.414063,0.373047 0.416016,0.371094 c 0.775575,0.694478 1.62868,1.285577 2.541016,1.761718 l 1.630859,0.851563 -0.974609,-1.558594 c -0.133058,-0.212892 -0.257407,-0.435461 -0.375,-0.664062 v -0.002 c -0.311381,-0.612691 -0.587442,-1.239883 -0.822266,-1.88086 z m 13.226562,0 -0.222656,0.605469 c -0.235029,0.641535 -0.510625,1.27036 -0.822266,1.882813 -0.117593,0.228601 -0.241942,0.45117 -0.375,0.664062 l -0.972656,1.556641 1.628906,-0.84961 c 0.913189,-0.47625 1.766907,-1.068691 2.542969,-1.763671 L 32.808594,32.966797 32.392578,32.59375 C 31.99649,32.237592 31.580047,31.909597 31.144531,31.609375 Z M 16.941406,32.8125 c 0.04834,0.117636 0.101531,0.23303 0.152344,0.349609 -0.103319,-0.07746 -0.215527,-0.13962 -0.316406,-0.220703 0.05423,-0.04367 0.10912,-0.08633 0.164062,-0.128906 z m 14.117188,0 c 0.05502,0.04249 0.109778,0.08536 0.164062,0.128906 -0.100943,0.08117 -0.21304,0.143168 -0.316406,0.220703 0.05082,-0.116563 0.104001,-0.231978 0.152344,-0.349609 z"
     id="path7" />
</svg>
