<?xml version="1.0" encoding="UTF-8" standalone="no"?>
<!-- Generator: Gravit.io -->

<svg
   style="isolation:isolate"
   viewBox="0 0 48 48"
   width="48pt"
   height="48pt"
   version="1.1"
   id="svg9"
   sodipodi:docname="kphotoalbum.svg"
   inkscape:version="1.1.2 (0a00cf5339, 2022-02-04)"
   xmlns:inkscape="http://www.inkscape.org/namespaces/inkscape"
   xmlns:sodipodi="http://sodipodi.sourceforge.net/DTD/sodipodi-0.dtd"
   xmlns:xlink="http://www.w3.org/1999/xlink"
   xmlns="http://www.w3.org/2000/svg"
   xmlns:svg="http://www.w3.org/2000/svg">
  <defs
     id="defs13">
    <linearGradient
       inkscape:collect="always"
       xlink:href="#_lgradient_49"
       id="linearGradient872"
       x1="-12.025727"
       y1="6.1170783"
       x2="-0.085100174"
       y2="6.1170783"
       gradientUnits="userSpaceOnUse"
       gradientTransform="matrix(3.8358211,0,0,3.8371386,-0.00544341,-0.00268054)" />
    <linearGradient
       id="_lgradient_1"
       x1="0.18336116"
       y1="0.24917752"
       x2="0.9027437"
       y2="0.90347725"
       gradientTransform="matrix(24.617266,0,0,24.816118,10.841288,10.089605)"
       gradientUnits="userSpaceOnUse">
      <stop
         offset="2.608695652173913%"
         stop-opacity="1"
         style="stop-color:rgb(179,255,171)"
         id="stop2-3" />
      <stop
         offset="98.69565217391305%"
         stop-opacity="1"
         style="stop-color:rgb(18,255,247)"
         id="stop4-6" />
    </linearGradient>
    <linearGradient
       inkscape:collect="always"
       xlink:href="#_lgradient_49"
       id="linearGradient15"
       x1="-9.6850061"
       y1="45.161198"
       x2="11.98815"
       y2="21.735205"
       gradientUnits="userSpaceOnUse"
       gradientTransform="matrix(1.1147442,0,0,1.1150348,-0.01237238,-3.3277956)" />
    <linearGradient
       inkscape:collect="always"
       xlink:href="#_lgradient_49"
       id="linearGradient1022"
       x1="12.543303"
       y1="23.114943"
       x2="35.456696"
       y2="23.114943"
       gradientUnits="userSpaceOnUse" />
  </defs>
  <sodipodi:namedview
     id="namedview11"
     pagecolor="#ffffff"
     bordercolor="#666666"
     borderopacity="1.0"
     inkscape:pageshadow="2"
     inkscape:pageopacity="0.0"
     inkscape:pagecheckerboard="0"
     inkscape:document-units="pt"
     showgrid="false"
     inkscape:zoom="10.21875"
     inkscape:cx="31.95107"
     inkscape:cy="32"
     inkscape:window-width="1600"
     inkscape:window-height="836"
     inkscape:window-x="0"
     inkscape:window-y="0"
     inkscape:window-maximized="1"
     inkscape:current-layer="svg9" />
  <linearGradient
     id="_lgradient_49"
     x1="0.6718099850460906"
     y1="0.020570018975650584"
     x2="0.4221494918345081"
     y2="0.9601645064179158"
     gradientTransform="matrix(22.913393,0,0,24.019213,12.543304,11.105392)"
     gradientUnits="userSpaceOnUse">
    <stop
       offset="0%"
       stop-opacity="1"
       style="stop-color:rgb(26,108,255)"
       id="stop2" />
    <stop
       offset="100%"
       stop-opacity="1"
       style="stop-color:rgb(197,34,255)"
       id="stop4" />
  </linearGradient>
  <rect
     x="-46.783188"
     y="1.2253767"
     height="45.80014"
     rx="6.1837621"
     shape-rendering="crispEdges"
     id="rect5-6-7-3"
     ry="6.8055277"
     transform="matrix(0.00524063,-0.99998627,0.99998801,0.00489691,0,0)"
     style="isolation:isolate;fill:#b700ff;fill-opacity:0.13470298;stroke:url(#linearGradient872);stroke-width:2.0301;stroke-miterlimit:4;stroke-dasharray:none;stroke-opacity:1"
     width="45.801998" />
  <rect
     x="-15.686804"
     y="17.260084"
     height="33.345856"
     rx="6.7920032"
     shape-rendering="crispEdges"
     id="rect5-6-6-6-6"
     style="isolation:isolate;fill:#b700ff;fill-opacity:0.13470298;stroke:url(#linearGradient15);stroke-width:1.67233;stroke-miterlimit:4;stroke-dasharray:none;stroke-opacity:1"
     ry="7.4743071"
     transform="matrix(0.72446484,-0.68931175,0.68622417,0.72739012,0,0)"
     width="33.338203" />
  <path
     style="color:#000000;fill:url(#linearGradient1022);fill-rule:evenodd;-inkscape-stroke:none"
     d="m 25.904297,10.626953 -5.492188,0.933594 c -0.643403,0.109674 -1.084237,0.733978 -0.974609,1.376953 0.109659,0.643148 0.731085,1.084398 1.375,0.974609 l 2.169922,-0.36914 c -0.381676,0.300496 -0.654642,0.720734 -0.56836,1.228515 0.119954,0.705969 0.785434,1.166311 1.488282,1.097657 l -1.216797,1.113281 -2.042969,-1.449219 c -0.687807,-0.487759 -1.644851,-0.363333 -2.1875,0.28125 l -2.001953,2.375 -0.546875,-3.246094 c -0.01865,-0.110405 0.04817,-0.205849 0.158203,-0.224609 l 1.894531,-0.320312 c 0.643222,-0.109672 1.085367,-0.73175 0.976563,-1.375 v -0.002 C 18.825911,12.377602 18.20215,11.937148 17.558594,12.046875 l -2.917969,0.496094 c -0.832144,0.141061 -1.398637,0.943744 -1.253906,1.77539 l 0.824219,4.748047 c -1.220269,0.429675 -2.167969,1.470761 -2.167969,2.832031 v 2.449219 c 0,0.01142 0.0052,0.04235 0.0059,0.06055 -6.5e-4,0.01821 -0.0059,0.04919 -0.0059,0.06055 v 6.714844 c 0,1.724048 1.410718,3.134765 3.134765,3.134765 h 4.082032 0.921875 c 1.195547,0.826575 2.609174,1.306641 4.083984,1.306641 1.471609,0 2.882811,-0.480191 4.078125,-1.306641 h 0.396484 4.082032 c 1.724047,0 3.134765,-1.410717 3.134765,-3.134765 V 23.90625 21.898437 c 0,-1.724047 -1.410718,-3.134765 -3.134765,-3.134765 h -3.972657 l -1.169922,-6.876953 c -0.141725,-0.831635 -0.943203,-1.40159 -1.77539,-1.259766 z m 0.167969,0.986328 c 0.29809,-0.0508 0.570199,0.142762 0.621093,0.441407 l 1.310547,7.708984 h 4.81836 c 1.182673,0 2.134765,0.952092 2.134765,2.134765 v 2.007813 7.277344 c 0,1.182674 -0.952092,2.134765 -2.134765,2.134765 h -4.082032 -0.667968 l -0.13086,0.09766 C 26.882124,34.196092 25.594567,34.625 24.265625,34.625 c -1.332775,0 -2.622473,-0.428992 -3.681641,-1.208984 l -0.130859,-0.09766 h -1.193359 -4.082032 c -1.182673,0 -2.134765,-0.952091 -2.134765,-2.134765 v -6.703125 l 0.01367,-0.07227 -0.01367,-0.07227 v -2.4375 c 0,-1.06698 0.779104,-1.945335 1.794922,-2.107421 l 0.5,-0.08008 -0.966797,-5.562499 c -0.05197,-0.298633 0.139364,-0.568603 0.4375,-0.619141 l 2.917968,-0.496094 c 0.109623,-0.01869 0.203873,0.04593 0.222657,0.15625 0.01859,0.109929 -0.04824,0.203908 -0.158203,0.222656 l -1.894532,0.322266 c -0.643149,0.109658 -1.085312,0.731206 -0.976562,1.375 l 0.785156,4.654297 H 16.4375 l 2.783203,-3.306641 c 0.195243,-0.231918 0.595943,-0.283154 0.84375,-0.107422 l 2.089844,1.482422 c 0.37098,0.263088 0.828345,0.233623 1.164062,-0.07422 v 0.002 l 3.097657,-2.837891 0.02344,-0.0293 c 0.0027,-0.0034 0.0045,-0.004 0.0078,-0.0059 l 0.115234,-0.06445 -3.240234,3.134765 c -0.221091,0.213712 -0.705919,0.250343 -0.957032,0.07227 l -2.041015,-1.449219 v 0.002 c -0.375634,-0.267253 -0.873072,-0.209552 -1.175782,0.138672 l -2.654296,3.042969 H 27.03125 l 0.148437,-0.175781 c 0.208406,-0.245622 0.305377,-0.587676 0.248047,-0.923829 l -0.671875,-3.949218 -0.01172,-0.06836 -0.25586,-1.503906 c -0.108843,-0.644354 -0.731442,-1.086291 -1.375,-0.976562 l -4.46875,0.759765 c -0.109264,0.01863 -0.203895,-0.04622 -0.222656,-0.15625 -0.01869,-0.109622 0.04836,-0.204101 0.158203,-0.222656 z m -0.791016,1.539063 c 0.109621,-0.01869 0.202148,0.04836 0.220703,0.158203 l 0.162109,0.943359 -0.689453,0.63086 c 0.0554,-0.190658 0.168013,-0.363155 0.132813,-0.570313 -0.08638,-0.508408 -0.483392,-0.815402 -0.94336,-0.972656 z m -1.582031,1.029297 c 0.203937,-0.03465 0.38722,0.09487 0.421875,0.298828 0.03465,0.203937 -0.09487,0.38722 -0.298828,0.421875 -0.203938,0.03465 -0.387221,-0.09487 -0.421875,-0.298828 -0.03471,-0.204284 0.0942,-0.387143 0.298828,-0.421875 z m 2.376953,2.503906 0.353515,2.078125 h -2.609375 c 0.06004,-0.04454 0.142386,-0.03484 0.197266,-0.08789 z m -6.244141,0.771484 1.841797,1.306641 h -2.980469 z m -3.865234,3.150391 c -1.142868,0 -2.080078,0.93721 -2.080078,2.080078 v 1.652344 l -0.01172,0.06836 0.01172,0.06836 v 5.917969 c 0,1.142869 0.93721,2.080078 2.080078,2.080078 h 3.513672 l -0.478516,-0.765625 c -0.612029,-0.978871 -0.943359,-2.117568 -0.943359,-3.289062 0,-1.648129 0.65312,-3.226868 1.816406,-4.390625 1.16415,-1.158818 2.743908,-1.816406 4.390625,-1.816406 1.64234,0 3.22106,0.656945 4.384766,1.816406 1.163715,1.164187 1.820312,2.743355 1.820312,4.390625 0,1.170957 -0.334126,2.309925 -0.947266,3.289062 l -0.478515,0.765625 h 0.902344 2.085937 c 1.142868,0 2.080078,-0.937209 2.080078,-2.080078 V 22.6875 c 0,-1.142868 -0.93721,-2.080078 -2.080078,-2.080078 z m 0,1 h 0.443359 c -0.577632,0.115525 -1.048828,0.566808 -1.048828,1.175781 0,0.692475 0.571198,1.263672 1.263672,1.263672 0.692474,0 1.265625,-0.571197 1.265625,-1.263672 0,-0.609128 -0.472933,-1.060431 -1.050781,-1.175781 h 5.441406 c -1.155159,0.336019 -2.247927,0.851042 -3.113281,1.71289 v 0.002 c -1.35105,1.351596 -2.109375,3.185762 -2.109375,5.097656 0,1.075249 0.301951,2.099473 0.753906,3.054687 h -1.845703 c -0.601981,0 -1.080078,-0.478096 -1.080078,-1.080078 V 24.46875 c 0,-0.01134 -0.0033,-0.04238 -0.0039,-0.06055 6.48e-4,-0.01815 0.0039,-0.04915 0.0039,-0.06055 V 22.6875 c 0,-0.60198 0.478098,-1.080078 1.080078,-1.080078 z m 10.279297,0 h 5.787109 c 0.60198,0 1.080078,0.478098 1.080078,1.080078 v 7.707031 c 0,0.601982 -0.478097,1.080078 -1.080078,1.080078 h -1.320312 c 0.452904,-0.955009 0.757812,-1.979154 0.757812,-3.054687 0,-1.912753 -0.762661,-3.74649 -2.113281,-5.097656 v -0.002 c -0.864985,-0.861829 -1.957528,-1.376848 -3.111328,-1.71289 z m -1.980469,0.902344 c -1.567011,0 -3.072698,0.623479 -4.181641,1.732421 -1.105242,1.105244 -1.728515,2.610724 -1.728515,4.177735 0,1.566548 0.623273,3.070538 1.728515,4.175781 1.108942,1.108942 2.61463,1.732422 4.181641,1.732422 1.566548,0 3.066919,-0.624116 4.175781,-1.732422 1.109044,-1.105212 1.732422,-2.609784 1.732422,-4.175781 0,-1.56646 -0.623378,-3.072522 -1.732422,-4.177735 -1.108862,-1.108306 -2.609233,-1.732421 -4.175781,-1.732421 z m -7.640625,0.0078 c 0.151413,0 0.265625,0.114212 0.265625,0.265625 0,0.151413 -0.114212,0.263672 -0.265625,0.263672 -0.151413,0 -0.263672,-0.11226 -0.263672,-0.263672 0,-0.151412 0.112259,-0.265625 0.263672,-0.265625 z m 7.638672,1.792969 c 1.089812,0 2.13663,0.431552 2.90625,1.201172 0.769619,0.769619 1.203125,1.816437 1.203125,2.90625 0,0.770349 -0.216923,1.527399 -0.625,2.179687 -0.04877,0.07827 -0.13812,0.10015 -0.216797,0.05078 -0.07986,-0.05016 -0.100903,-0.143326 -0.05273,-0.220703 0.376617,-0.601647 0.576171,-1.299217 0.576171,-2.009765 0,-1.006941 -0.399771,-1.97145 -1.109375,-2.681641 -0.710191,-0.709604 -1.674699,-1.109375 -2.68164,-1.109375 -1.006941,0 -1.971767,0.399503 -2.681641,1.109375 -0.709604,0.710191 -1.111328,1.6747 -1.111328,2.681641 0,1.006941 0.401725,1.973402 1.111328,2.683593 0.709873,0.709872 1.6747,1.109376 2.681641,1.109375 0.355025,0 0.713035,-0.04814 1.0625,-0.152343 h 0.002 c 0.08755,-0.02457 0.167414,0.02051 0.193359,0.109375 0.0252,0.08617 -0.01753,0.168125 -0.111328,0.195312 h -0.002 c -0.372021,0.108373 -0.755474,0.164063 -1.144531,0.164063 -1.089813,0 -2.136642,-0.431109 -2.90625,-1.201172 -0.770063,-0.769608 -1.203125,-1.818391 -1.203125,-2.908203 0,-1.089813 0.433062,-2.136642 1.203125,-2.90625 0.769619,-0.76962 1.816438,-1.201172 2.90625,-1.201172 z m 0,1.316406 c 0.741985,0 1.451584,0.293813 1.974609,0.816406 0.522593,0.523026 0.816407,1.232627 0.816406,1.97461 10e-7,0.522669 -0.147145,1.036514 -0.423828,1.478515 v 0.002 c -0.335045,0.538211 -0.16761,1.25857 0.369141,1.595704 0.29014,0.182057 0.623126,0.194588 0.931641,0.103515 -0.07746,0.08936 -0.111008,0.20705 -0.195313,0.291016 h -0.002 c -0.452714,0.452487 -0.985528,0.802707 -1.5625,1.046875 0.261143,-0.289244 0.426803,-0.651235 0.310547,-1.048828 -0.177693,-0.608602 -0.8287,-0.96512 -1.4375,-0.78711 h -0.002 c -0.25024,0.07477 -0.513257,0.111329 -0.779297,0.111328 -0.741983,0 -1.452284,-0.294081 -1.97461,-0.816406 -0.522593,-0.523025 -0.818359,-1.234577 -0.818359,-1.976562 0,-0.741984 0.295767,-1.451584 0.818359,-1.97461 0.522326,-0.522324 1.232626,-0.816406 1.97461,-0.816406 z"
     id="path7" />
</svg>
