<?xml version="1.0" encoding="UTF-8" standalone="no"?>
<!-- Generator: Gravit.io -->

<svg
   style="isolation:isolate"
   viewBox="0 0 48 48"
   width="48pt"
   height="48pt"
   version="1.1"
   id="svg16"
   sodipodi:docname="krename.svg"
   inkscape:version="1.1.2 (0a00cf5339, 2022-02-04)"
   xmlns:inkscape="http://www.inkscape.org/namespaces/inkscape"
   xmlns:sodipodi="http://sodipodi.sourceforge.net/DTD/sodipodi-0.dtd"
   xmlns:xlink="http://www.w3.org/1999/xlink"
   xmlns="http://www.w3.org/2000/svg"
   xmlns:svg="http://www.w3.org/2000/svg">
  <defs
     id="defs20">
    <linearGradient
       inkscape:collect="always"
       xlink:href="#_lgradient_6"
       id="linearGradient872"
       x1="-12.025727"
       y1="6.1170783"
       x2="-0.085100174"
       y2="6.1170783"
       gradientUnits="userSpaceOnUse"
       gradientTransform="matrix(3.8358211,0,0,3.8371386,-0.00544341,-0.00268054)" />
    <linearGradient
       id="_lgradient_1"
       x1="0.18336116"
       y1="0.24917752"
       x2="0.9027437"
       y2="0.90347725"
       gradientTransform="matrix(24.617266,0,0,24.816118,10.841288,10.089605)"
       gradientUnits="userSpaceOnUse">
      <stop
         offset="2.608695652173913%"
         stop-opacity="1"
         style="stop-color:rgb(179,255,171)"
         id="stop2-3" />
      <stop
         offset="98.69565217391305%"
         stop-opacity="1"
         style="stop-color:rgb(18,255,247)"
         id="stop4-6" />
    </linearGradient>
    <linearGradient
       inkscape:collect="always"
       xlink:href="#_lgradient_6"
       id="linearGradient15"
       x1="-9.6850061"
       y1="45.161198"
       x2="11.98815"
       y2="21.735205"
       gradientUnits="userSpaceOnUse"
       gradientTransform="matrix(1.1147442,0,0,1.1150348,-0.01237238,-3.3277956)" />
    <linearGradient
       inkscape:collect="always"
       xlink:href="#_lgradient_6"
       id="linearGradient1055"
       x1="12.995408"
       y1="24"
       x2="35.004593"
       y2="24"
       gradientUnits="userSpaceOnUse" />
  </defs>
  <sodipodi:namedview
     id="namedview18"
     pagecolor="#ffffff"
     bordercolor="#666666"
     borderopacity="1.0"
     inkscape:pageshadow="2"
     inkscape:pageopacity="0.0"
     inkscape:pagecheckerboard="0"
     inkscape:document-units="pt"
     showgrid="false"
     inkscape:zoom="10.21875"
     inkscape:cx="31.95107"
     inkscape:cy="32"
     inkscape:window-width="1600"
     inkscape:window-height="836"
     inkscape:window-x="0"
     inkscape:window-y="0"
     inkscape:window-maximized="1"
     inkscape:current-layer="svg16" />
  <linearGradient
     id="_lgradient_5"
     x1="0"
     y1="0.5"
     x2="1"
     y2="0.5"
     gradientTransform="matrix(47,0,0,44,0.5,2)"
     gradientUnits="userSpaceOnUse">
    <stop
       offset="0%"
       stop-opacity="1"
       style="stop-color:rgb(255,229,59)"
       id="stop2" />
    <stop
       offset="98.69565217391305%"
       stop-opacity="1"
       style="stop-color:rgb(255,0,91)"
       id="stop4" />
  </linearGradient>
  <rect
     x="-46.783188"
     y="1.2253767"
     height="45.80014"
     rx="6.1837621"
     shape-rendering="crispEdges"
     id="rect5-6-7-3"
     ry="6.8055277"
     transform="matrix(0.00524063,-0.99998627,0.99998801,0.00489691,0,0)"
     style="isolation:isolate;fill:#ff3b00;fill-opacity:0.13470298;stroke:url(#linearGradient872);stroke-width:2.0301;stroke-miterlimit:4;stroke-dasharray:none;stroke-opacity:1"
     width="45.801998" />
  <rect
     x="-15.686804"
     y="17.260084"
     height="33.345856"
     rx="6.7920032"
     shape-rendering="crispEdges"
     id="rect5-6-6-6-6"
     style="isolation:isolate;fill:#ff3b00;fill-opacity:0.13470298;stroke:url(#linearGradient15);stroke-width:1.67233;stroke-miterlimit:4;stroke-dasharray:none;stroke-opacity:1"
     ry="7.4743071"
     transform="matrix(0.72446484,-0.68931175,0.68622417,0.72739012,0,0)"
     width="33.338203" />
  <linearGradient
     id="_lgradient_6"
     x1="0"
     y1="0.5"
     x2="1"
     y2="0.5"
     gradientTransform="matrix(22.009183,0,0,20.604342,12.995408,13.697829)"
     gradientUnits="userSpaceOnUse">
    <stop
       offset="0%"
       stop-opacity="1"
       style="stop-color:rgb(255,229,59)"
       id="stop9" />
    <stop
       offset="98.69565217391305%"
       stop-opacity="1"
       style="stop-color:rgb(255,0,91)"
       id="stop11" />
  </linearGradient>
  <path
     style="color:#000000;fill:url(#linearGradient1055);fill-rule:evenodd;-inkscape-stroke:none"
     d="m 14.869141,13.197266 c -1.304494,0 -2.373047,1.068553 -2.373047,2.373047 v 0.703124 c 0,0.658268 0.542904,1.203126 1.201172,1.203125 0.658267,0 1.203125,-0.544857 1.203125,-1.203125 v -0.234375 c 0,-0.24645 0.189096,-0.435546 0.435547,-0.435546 h 17.328124 c 0.246451,0 0.435547,0.189096 0.435547,0.435546 v 4.917969 c 0,0.658268 0.544858,1.201172 1.203125,1.201172 0.658268,0 1.201172,-0.542904 1.201172,-1.201172 v -5.386718 c 0,-1.304494 -1.068553,-2.373047 -2.373047,-2.373047 z m 0,1 h 18.261718 c 0.763431,0 1.373047,0.609616 1.373047,1.373047 v 5.386718 c 0,0.117204 -0.08397,0.201172 -0.201172,0.201172 -0.117203,0 -0.203125,-0.08397 -0.203125,-0.201172 v -4.917969 c 0,-0.787512 -0.648034,-1.435546 -1.435547,-1.435546 H 15.335938 c -0.787513,0 -1.435547,0.648034 -1.435547,1.435546 v 0.234375 c 0,0.117204 -0.08592,0.203125 -0.203125,0.203125 -0.117204,0 -0.201172,-0.08592 -0.201172,-0.203125 v -0.703124 c 0,-0.763431 0.609616,-1.373047 1.373047,-1.373047 z m 6.113281,2.980468 v 1.972657 h 2.048828 v 9.699218 h -2.048828 v 1.972657 h 6.035156 V 28.849609 H 24.96875 v -9.699218 h 2.048828 v -1.972657 z m -2.830078,2.964844 -3.03711,7.714844 h 1.863282 l 0.822265,-2.126953 h 1.996094 l 0.832031,2.126953 h 1.878906 l -0.265625,-0.683594 -2.753906,-7.03125 z m 9.09375,0.01367 v 7.6875 h 0.5 2.332031 c 0.802895,0 1.496483,-0.189483 2.013672,-0.619141 0.51629,-0.428512 0.787109,-1.074952 0.787109,-1.785156 0,-0.541305 -0.167728,-1.046354 -0.517578,-1.414062 -0.119853,-0.125971 -0.335327,-0.141275 -0.486328,-0.232422 0.0975,-0.0746 0.247843,-0.08028 0.328125,-0.173828 0.303604,-0.353777 0.451172,-0.817251 0.451172,-1.306641 0,-0.688121 -0.28202,-1.315887 -0.816406,-1.673828 -0.539747,-0.361247 -1.266043,-0.482422 -2.203125,-0.482422 z m -13.548828,0.533203 c -0.658268,0 -1.201172,0.544858 -1.201172,1.203125 v 10.537109 c 0,1.304494 1.068553,2.373047 2.373047,2.373047 h 11.003906 c 0.35994,0 0.695782,-0.106309 0.96289,-0.30664 0.267109,-0.200332 0.47461,-0.522263 0.47461,-0.896485 0,-0.374221 -0.207501,-0.696153 -0.47461,-0.896484 -0.267108,-0.200331 -0.60295,-0.306641 -0.96289,-0.306641 h -4.097656 -6.439453 c -0.246451,0 -0.435547,-0.189096 -0.435547,-0.435547 V 21.892578 c 0,-0.658267 -0.544858,-1.203125 -1.203125,-1.203125 z m 5.121093,0.488281 0.07422,0.191407 -0.150391,0.0039 z m -5.121093,0.511719 c 0.117203,0 0.203125,0.08592 0.203125,0.203125 v 10.068359 c 0,0.787513 0.648034,1.435547 1.435547,1.435547 h 6.439453 4.097656 c 0.157041,0 0.289402,0.05348 0.361328,0.107422 0.07193,0.05394 0.07617,0.08219 0.07617,0.0957 0,0.01351 -0.0042,0.04371 -0.07617,0.09766 -0.07193,0.05394 -0.204287,0.105468 -0.361328,0.105468 H 14.869141 c -0.763431,0 -1.373047,-0.609616 -1.373047,-1.373047 V 21.892578 c 0,-0.117204 0.08397,-0.203125 0.201172,-0.203125 z m 15.326171,0.140625 h 0.644532 c 0.53806,0 0.885901,0.09349 1.015625,0.173828 0.124863,0.07733 0.166015,0.130578 0.166015,0.386719 0,0.310099 -0.06364,0.401336 -0.152343,0.464844 -0.09502,0.06794 -0.396428,0.164062 -0.892579,0.164062 h -0.78125 z m -10.205078,1.25 0.355469,0.951172 h -0.716797 z m 10.205078,1.597656 h 0.830079 c 0.513006,0 0.840201,0.0996 0.988281,0.203125 0.142486,0.09972 0.205078,0.201395 0.205078,0.503907 0,0.343027 -0.0762,0.479352 -0.212891,0.583984 -0.146558,0.112182 -0.441082,0.210937 -0.916015,0.210937 h -0.894532 z m 5.279297,0.695313 c -0.658266,0 -1.203125,0.544857 -1.203125,1.203125 v 5.384765 c 0,0.246451 -0.189096,0.435547 -0.435547,0.435547 h -2.576171 c -0.35994,0 -0.695783,0.10631 -0.962891,0.306641 -0.267108,0.200331 -0.474609,0.522262 -0.474609,0.896484 0,0.374223 0.207501,0.696153 0.474609,0.896485 0.267108,0.200331 0.602951,0.30664 0.962891,0.30664 h 3.042968 c 1.304494,0 2.373047,-1.068553 2.373047,-2.373047 v -5.853515 c 0,-0.658268 -0.542905,-1.203125 -1.201172,-1.203125 z m 0,1 c 0.117205,0 0.201172,0.08592 0.201172,0.203125 v 5.853515 c 0,0.763431 -0.609616,1.373047 -1.373047,1.373047 h -3.042968 c -0.157041,0 -0.291355,-0.05152 -0.363282,-0.105468 -0.07193,-0.05394 -0.07422,-0.08414 -0.07422,-0.09766 0,-0.01351 0.0023,-0.04176 0.07422,-0.0957 0.07193,-0.05394 0.206241,-0.107422 0.363282,-0.107422 h 2.576171 c 0.787513,0 1.435547,-0.648034 1.435547,-1.435547 v -5.384765 c 0,-0.117206 0.08592,-0.203125 0.203125,-0.203125 z"
     id="path14" />
</svg>
