<?xml version="1.0" encoding="UTF-8" standalone="no"?>
<!-- Generator: Gravit.io -->

<svg
   style="isolation:isolate"
   viewBox="0 0 48 48"
   width="48pt"
   height="48pt"
   version="1.1"
   id="svg9"
   sodipodi:docname="krusader_root.svg"
   inkscape:version="1.1.2 (0a00cf5339, 2022-02-04)"
   xmlns:inkscape="http://www.inkscape.org/namespaces/inkscape"
   xmlns:sodipodi="http://sodipodi.sourceforge.net/DTD/sodipodi-0.dtd"
   xmlns:xlink="http://www.w3.org/1999/xlink"
   xmlns="http://www.w3.org/2000/svg"
   xmlns:svg="http://www.w3.org/2000/svg">
  <defs
     id="defs13">
    <linearGradient
       inkscape:collect="always"
       xlink:href="#_lgradient_4"
       id="linearGradient872"
       x1="-12.025727"
       y1="6.1170783"
       x2="-0.085100174"
       y2="6.1170783"
       gradientUnits="userSpaceOnUse"
       gradientTransform="matrix(3.8358211,0,0,3.8371386,-0.00544341,-0.00268054)" />
    <linearGradient
       id="_lgradient_1"
       x1="0.18336116"
       y1="0.24917752"
       x2="0.9027437"
       y2="0.90347725"
       gradientTransform="matrix(24.617266,0,0,24.816118,10.841288,10.089605)"
       gradientUnits="userSpaceOnUse">
      <stop
         offset="2.608695652173913%"
         stop-opacity="1"
         style="stop-color:rgb(179,255,171)"
         id="stop2-3" />
      <stop
         offset="98.69565217391305%"
         stop-opacity="1"
         style="stop-color:rgb(18,255,247)"
         id="stop4-6" />
    </linearGradient>
    <linearGradient
       inkscape:collect="always"
       xlink:href="#_lgradient_4"
       id="linearGradient15"
       x1="-9.6850061"
       y1="45.161198"
       x2="11.98815"
       y2="21.735205"
       gradientUnits="userSpaceOnUse"
       gradientTransform="matrix(1.1147442,0,0,1.1150348,-0.01237238,-3.3277956)" />
    <linearGradient
       inkscape:collect="always"
       xlink:href="#_lgradient_4"
       id="linearGradient878"
       x1="13.257673"
       y1="24"
       x2="34.742329"
       y2="24"
       gradientUnits="userSpaceOnUse" />
  </defs>
  <sodipodi:namedview
     id="namedview11"
     pagecolor="#ffffff"
     bordercolor="#666666"
     borderopacity="1.0"
     inkscape:pageshadow="2"
     inkscape:pageopacity="0.0"
     inkscape:pagecheckerboard="0"
     inkscape:document-units="pt"
     showgrid="false"
     inkscape:zoom="10.21875"
     inkscape:cx="31.95107"
     inkscape:cy="32"
     inkscape:window-width="1600"
     inkscape:window-height="836"
     inkscape:window-x="0"
     inkscape:window-y="0"
     inkscape:window-maximized="1"
     inkscape:current-layer="svg9" />
  <linearGradient
     id="_lgradient_4"
     x1="0.5296296296296306"
     y1="0.11481481481481459"
     x2="0.5221243269701419"
     y2="0.9704193179964106"
     gradientTransform="matrix(21.484655,0,0,21.484655,13.257672,13.257672)"
     gradientUnits="userSpaceOnUse">
    <stop
       offset="0%"
       stop-opacity="1"
       style="stop-color:rgb(255,229,59)"
       id="stop2" />
    <stop
       offset="98.69565217391305%"
       stop-opacity="1"
       style="stop-color:rgb(255,0,91)"
       id="stop4" />
  </linearGradient>
  <rect
     x="-46.783188"
     y="1.2253767"
     height="45.80014"
     rx="6.1837621"
     shape-rendering="crispEdges"
     id="rect5-6-7-3"
     ry="6.8055277"
     transform="matrix(0.00524063,-0.99998627,0.99998801,0.00489691,0,0)"
     style="isolation:isolate;fill:#ff005e;fill-opacity:0.13470298;stroke:url(#linearGradient872);stroke-width:2.0301;stroke-miterlimit:4;stroke-dasharray:none;stroke-opacity:1"
     width="45.801998" />
  <rect
     x="-15.686804"
     y="17.260084"
     height="33.345856"
     rx="6.7920032"
     shape-rendering="crispEdges"
     id="rect5-6-6-6-6"
     style="isolation:isolate;fill:#ff005e;fill-opacity:0.13470298;stroke:url(#linearGradient15);stroke-width:1.67233;stroke-miterlimit:4;stroke-dasharray:none;stroke-opacity:1"
     ry="7.4743071"
     transform="matrix(0.72446484,-0.68931175,0.68622417,0.72739012,0,0)"
     width="33.338203" />
  <path
     style="color:#000000;fill:url(#linearGradient878);fill-rule:evenodd;-inkscape-stroke:none"
     d="m 14.755859,12.757813 c -1.098025,-1e-6 -1.998047,0.900021 -1.998046,1.998046 v 2.748047 c -1e-6,0.477441 0.352548,0.797408 0.714843,0.978516 0.221146,0.110548 0.512487,0.122753 0.783203,0.166015 v 0.105469 h 0.5 0.5 0.25 7.277344 v 1.8125 c 0,0.202118 0.129498,0.35282 0.21875,0.521485 L 22.105469,20.375 c -0.157148,-0.135964 -0.355645,-0.211432 -0.560547,-0.216797 h -0.002 c -0.48651,-0.01174 -0.909307,0.387215 -0.908203,0.880859 l 0.01953,7.359375 c 0.0026,0.715355 0.898163,1.126319 1.449219,0.677735 l 1.179687,-0.957031 0.822266,1.425781 c 0.37427,0.648083 1.216807,0.875673 1.865234,0.501953 l 0.002,-0.002 0.228516,-0.132813 c 0.648632,-0.373833 0.876624,-1.218403 0.501953,-1.867187 l -0.705078,-1.21875 1.558594,-0.220703 c 0.351691,-0.04958 0.631284,-0.309665 0.724609,-0.613282 0.09333,-0.303616 0.0072,-0.679154 -0.261719,-0.914062 l -0.0098,-0.0078 -4.271485,-3.396484 c 0.09473,0.02411 0.160059,0.109375 0.261719,0.109375 0.665849,0 1.216797,-0.550949 1.216797,-1.216797 v -1.8125 h 7.527344 V 24 c 0,0.684437 0.563609,1.25 1.248046,1.25 0.684603,0 1.25,-0.565948 1.25,-1.25 v -9.244141 c 0,-1.098025 -0.900021,-1.998047 -1.998046,-1.998046 z m 0,1 h 18.488282 c 0.556768,0 0.998046,0.441278 0.998046,0.998046 V 24 c 0,0.142867 -0.106729,0.25 -0.25,0.25 -0.142483,0 -0.248046,-0.107518 -0.248046,-0.25 v -6.246094 h -9.527344 v 0.5 0.002 2.310547 c 0,0.124786 -0.09201,0.216797 -0.216797,0.216797 -0.124786,0 -0.216797,-0.09201 -0.216797,-0.216797 v -2.310547 -0.501953 h -8.277344 -0.25 v -0.25 -0.248047 h 0.25 18.238282 v -2 c 0,-0.545853 -0.454147,-1 -1,-1 H 15.255859 c -0.545853,0 -1,0.454147 -1,1 v 1 1.248047 0.150391 c -0.108222,-0.02776 -0.263441,-0.03017 -0.335937,-0.06641 -0.18043,-0.09019 -0.16211,-0.147489 -0.162109,-0.08398 v -2.748047 c 0,-0.556768 0.441278,-0.998047 0.998046,-0.998046 z m 0.5,1.498046 h 17.488282 v 1 h -17.238282 -0.25 z m -1.248046,5.019532 c -0.684603,0 -1.25,0.563994 -1.25,1.248046 v 11.720704 c 0,1.098025 0.900021,1.998046 1.998046,1.998046 h 18.488282 c 1.098025,0 1.998046,-0.900021 1.998046,-1.998046 v -4.748047 c 0,-0.684218 -0.565782,-1.248047 -1.25,-1.248047 -0.684052,0 -1.248046,0.563445 -1.248046,1.248047 v 4.248047 h -7.527344 v -1.597657 c 0,-0.665848 -0.550948,-1.214843 -1.216797,-1.214843 -0.665849,0 -1.216797,0.548995 -1.216797,1.214843 v 1.597657 H 15.255859 V 21.523437 c 0,-0.684436 -0.563609,-1.248046 -1.248046,-1.248046 z m 0,1 c 0.142483,0 0.248046,0.105564 0.248046,0.248046 v 11.220704 c 0,0.545853 0.454147,1 1,1 h 8.527344 v -2.597657 c 0,-0.124787 0.09201,-0.214843 0.216797,-0.214843 0.124786,0 0.216797,0.09006 0.216797,0.214843 v 2.597657 h 0.5 8.027344 c 0.545853,0 1,-0.454147 1,-1 v -4.248047 c 0,-0.143274 0.105178,-0.248047 0.248046,-0.248047 0.143656,0 0.25,0.104389 0.25,0.248047 v 4.748047 c 0,0.556768 -0.441278,0.998046 -0.998046,0.998046 H 14.755859 c -0.556768,0 -0.998047,-0.441278 -0.998046,-0.998046 V 21.523437 c 0,-0.142866 0.106729,-0.248046 0.25,-0.248046 z m 7.626953,0.0039 5.503906,4.375 -2.746094,0.388672 1.443359,2.501953 c 0.105631,0.182911 0.04831,0.394488 -0.134765,0.5 v 0.002 l -0.228516,0.132812 c -0.183266,0.105626 -0.395922,0.04884 -0.501953,-0.134765 L 23.5625,26.605469 21.654297,28.152344 Z"
     id="path7" />
</svg>
