<?xml version="1.0" encoding="UTF-8" standalone="no"?>
<!-- Generator: Gravit.io -->

<svg
   style="isolation:isolate"
   viewBox="0 0 48 48"
   width="48pt"
   height="48pt"
   version="1.1"
   id="svg46"
   sodipodi:docname="kstars.svg"
   inkscape:version="1.1.2 (0a00cf5339, 2022-02-04)"
   xmlns:inkscape="http://www.inkscape.org/namespaces/inkscape"
   xmlns:sodipodi="http://sodipodi.sourceforge.net/DTD/sodipodi-0.dtd"
   xmlns:xlink="http://www.w3.org/1999/xlink"
   xmlns="http://www.w3.org/2000/svg"
   xmlns:svg="http://www.w3.org/2000/svg">
  <defs
     id="defs50">
    <linearGradient
       inkscape:collect="always"
       xlink:href="#_lgradient_9"
       id="linearGradient872"
       x1="-12.025727"
       y1="6.1170783"
       x2="-0.085100174"
       y2="6.1170783"
       gradientUnits="userSpaceOnUse"
       gradientTransform="matrix(3.8358211,0,0,3.8371386,-0.00544341,-0.00268054)" />
    <linearGradient
       inkscape:collect="always"
       xlink:href="#_lgradient_9"
       id="linearGradient15"
       x1="-9.6850061"
       y1="45.161198"
       x2="11.98815"
       y2="21.735205"
       gradientUnits="userSpaceOnUse"
       gradientTransform="matrix(1.1147442,0,0,1.1150348,-0.01237238,-3.3277956)" />
    <linearGradient
       inkscape:collect="always"
       xlink:href="#_lgradient_9"
       id="linearGradient1270"
       x1="15.114123"
       y1="21.252153"
       x2="35.75333"
       y2="21.252153"
       gradientUnits="userSpaceOnUse" />
    <linearGradient
       inkscape:collect="always"
       xlink:href="#_lgradient_8"
       id="linearGradient1736"
       x1="21.173782"
       y1="32.603535"
       x2="32.319298"
       y2="32.603535"
       gradientUnits="userSpaceOnUse" />
    <linearGradient
       inkscape:collect="always"
       xlink:href="#_lgradient_13"
       id="linearGradient1784"
       x1="31.234253"
       y1="20.259512"
       x2="35.312527"
       y2="20.259512"
       gradientUnits="userSpaceOnUse" />
    <linearGradient
       inkscape:collect="always"
       xlink:href="#_lgradient_13"
       id="linearGradient1786"
       x1="27.311155"
       y1="15.441548"
       x2="31.389605"
       y2="15.441548"
       gradientUnits="userSpaceOnUse" />
    <linearGradient
       inkscape:collect="always"
       xlink:href="#_lgradient_13"
       id="linearGradient1788"
       x1="12.290138"
       y1="14.388895"
       x2="16.368587"
       y2="14.388895"
       gradientUnits="userSpaceOnUse" />
    <linearGradient
       inkscape:collect="always"
       xlink:href="#_lgradient_13"
       id="linearGradient1790"
       x1="15.980626"
       y1="28.763535"
       x2="20.058899"
       y2="28.763535"
       gradientUnits="userSpaceOnUse" />
  </defs>
  <sodipodi:namedview
     id="namedview48"
     pagecolor="#ffffff"
     bordercolor="#666666"
     borderopacity="1.0"
     inkscape:pageshadow="2"
     inkscape:pageopacity="0.0"
     inkscape:pagecheckerboard="0"
     inkscape:document-units="pt"
     showgrid="false"
     height="48pt"
     inkscape:zoom="15.328125"
     inkscape:cx="45.374108"
     inkscape:cy="36.925586"
     inkscape:window-width="1600"
     inkscape:window-height="836"
     inkscape:window-x="0"
     inkscape:window-y="0"
     inkscape:window-maximized="1"
     inkscape:current-layer="svg46" />
  <linearGradient
     id="_lgradient_8"
     x1="0.1328125"
     y1="0.14338236"
     x2="1"
     y2="1"
     gradientTransform="matrix(11.145516,0,0,10.219023,21.173782,27.494042)"
     gradientUnits="userSpaceOnUse">
    <stop
       offset="0%"
       stop-opacity="1"
       style="stop-color:rgb(243,137,95)"
       id="stop2" />
    <stop
       offset="66.47858673673248%"
       stop-opacity="1"
       style="stop-color:rgb(150,34,170)"
       id="stop4" />
    <stop
       offset="100%"
       stop-opacity="1"
       style="stop-color:rgb(74,30,239)"
       id="stop6" />
  </linearGradient>
  <rect
     x="-46.783188"
     y="1.2253767"
     height="45.80014"
     rx="6.1837621"
     shape-rendering="crispEdges"
     id="rect5-6-7-3"
     ry="6.8055277"
     transform="matrix(0.00524063,-0.99998627,0.99998801,0.00489691,0,0)"
     style="isolation:isolate;fill:#ff0062;fill-opacity:0.13470298;stroke:url(#linearGradient872);stroke-width:2.0301;stroke-miterlimit:4;stroke-dasharray:none;stroke-opacity:1"
     width="45.801998" />
  <rect
     x="-15.686804"
     y="17.260084"
     height="33.345856"
     rx="6.7920032"
     shape-rendering="crispEdges"
     id="rect5-6-6-6-6"
     style="isolation:isolate;fill:#ff0062;fill-opacity:0.13470298;stroke:url(#linearGradient15);stroke-width:1.67233;stroke-miterlimit:4;stroke-dasharray:none;stroke-opacity:1"
     ry="7.4743071"
     transform="matrix(0.72446484,-0.68931175,0.68622417,0.72739012,0,0)"
     width="33.338203" />
  <path
     style="color:#000000;fill:url(#linearGradient1736);fill-rule:evenodd;-inkscape-stroke:none"
     d="m 26.736328,26.994141 c -0.281377,0 -0.553374,0.109999 -0.755859,0.3125 l -0.002,0.002 -0.0039,0.0039 c -0.190862,0.197933 -0.30664,0.468605 -0.30664,0.75 l 0.0039,0.892578 -2.953125,4.828125 h -0.002 c -0.08614,0.142138 -0.06024,0.311592 -0.07422,0.474609 -0.03578,-0.0029 -0.06768,-0.02718 -0.103516,-0.02734 -0.48397,-0.0053 -0.933121,0.251063 -1.179687,0.664062 l -0.494141,0.837891 c -0.120799,0.20534 -0.191406,0.445961 -0.191406,0.695312 0,0.481064 0.256115,0.926778 0.669922,1.173828 l 0.253906,0.152344 c 0.209034,0.122973 0.447554,0.191407 0.695313,0.191406 0.482729,0 0.933992,-0.255094 1.177734,-0.673828 l 0.492188,-0.828125 v -0.002 c 0.130335,-0.215808 0.191406,-0.456697 0.191406,-0.695312 0,-0.165176 -0.172903,-0.252031 -0.228516,-0.402344 0.247377,-0.07491 0.473631,-0.223403 0.611328,-0.449219 l 1.152344,-1.880859 v 0.8125 c 0,0.23406 0.115797,0.442496 0.257813,0.628906 -0.05994,0.04326 -0.14451,0.03013 -0.197266,0.08398 -0.2479,0.248869 -0.392578,0.588929 -0.392578,0.947266 v 0.0039 0.01172 l 0.01172,0.574219 c 0,0.365073 0.152346,0.703129 0.398437,0.949219 l 0.002,0.002 0.0039,0.002 c 0.251376,0.245087 0.588036,0.386719 0.947266,0.386719 h 0.0039 0.05664 0.0039 c 0.344965,-0.0062 0.686355,-0.140043 0.941406,-0.400391 0.250784,-0.251805 0.388672,-0.594758 0.388672,-0.947266 v -0.0039 -0.0098 l -0.0078,-0.583984 v -0.002 c -0.0062,-0.353625 -0.1494,-0.690417 -0.398438,-0.939453 l -0.002,-0.002 -0.002,-0.002 c -0.03851,-0.03757 -0.102178,-0.0261 -0.144531,-0.05859 0.145168,-0.185648 0.263672,-0.398571 0.263672,-0.636719 l 0.002,-0.677734 1.070312,1.800781 c 0.143463,0.241646 0.377588,0.413107 0.654297,0.482422 0.04665,0.01221 0.08781,-0.02511 0.134766,-0.01953 -0.130274,0.21314 -0.357422,0.372195 -0.357422,0.628906 0,0.237537 0.05839,0.477106 0.189453,0.693359 l 0.470703,0.800781 c 0.243954,0.417805 0.693655,0.673829 1.175781,0.673829 0.23923,0 0.481014,-0.06034 0.697266,-0.191407 l 0.279297,-0.164062 c 0.421752,-0.243083 0.677734,-0.69595 0.677734,-1.177735 0,-0.23923 -0.06108,-0.47981 -0.185547,-0.691406 l -0.404296,-0.685547 v -0.0039 l -0.06836,-0.115234 c -0.245611,-0.421947 -0.698911,-0.675782 -1.18164,-0.675782 -0.04997,0 -0.09467,0.03557 -0.144532,0.04102 0.03036,-0.236825 0.01813,-0.481039 -0.09961,-0.685547 l -0.002,-0.002 -2.925781,-4.908203 -0.002,-0.892578 c -5.01e-4,-0.281296 -0.114802,-0.556223 -0.3125,-0.753906 -0.202476,-0.202479 -0.474466,-0.3125 -0.755859,-0.3125 z m 0,1 c 0.01824,0 0.03841,0.0091 0.04883,0.01953 0.01478,0.01478 0.01953,0.02326 0.01953,0.04883 l 0.0039,1.167969 3.058593,5.132812 c 0.01103,0.01917 0.01205,0.03816 0.0098,0.05469 -0.0073,0.02147 -0.01676,0.03636 -0.0293,0.04492 -0.01798,0.0085 -0.03259,0.01062 -0.04297,0.0078 l -0.0059,-0.002 -0.0059,-0.002 c -0.01185,-0.0029 -0.03006,-0.01681 -0.03516,-0.02539 h -0.002 l -2.925781,-4.916015 -0.0059,4.304687 c 0,0.01824 -0.0047,0.03014 -0.01953,0.04492 -0.01041,0.01041 -0.03058,0.01758 -0.04883,0.01758 -0.01824,0 -0.03841,-0.0072 -0.04883,-0.01758 -0.01042,-0.01042 -0.01758,-0.0306 -0.01758,-0.04883 l 0.0039,-4.367188 -3.009765,4.914063 v 0.002 c -0.0097,0.016 -0.02091,0.02441 -0.04102,0.0293 -0.01788,0.0043 -0.03352,4.3e-5 -0.04297,-0.0059 l -0.0039,-0.002 h -0.002 c -0.01599,-0.0097 -0.02439,-0.02282 -0.0293,-0.04297 -0.0042,-0.01724 -0.0024,-0.03297 0.0078,-0.05078 v -0.002 l 3.101562,-5.068359 -0.002,-0.140625 -0.0039,-1.03125 c 1.8e-4,-0.01575 0.0092,-0.03025 0.02539,-0.04883 0.01102,-0.0088 0.02685,-0.01758 0.04297,-0.01758 z m -0.02539,6.878906 c 8.74e-4,4.1e-5 0.0011,0.0019 0.002,0.002 l 0.0039,0.261719 z m 0,0.265625 h 0.04102 0.0039 c 0.09516,0 0.178288,0.03245 0.248047,0.09961 0.06521,0.06615 0.10185,0.153126 0.103516,0.248047 l 0.0078,0.574219 v 0.0039 0.0039 c 0,0.09606 -0.03423,0.178764 -0.09766,0.242188 l -0.002,0.002 -0.002,0.002 c -0.06015,0.06165 -0.150361,0.09985 -0.246094,0.101563 h -0.04297 -0.0039 c -0.08937,0 -0.184031,-0.03819 -0.248047,-0.09961 -0.06801,-0.069 -0.103515,-0.156681 -0.103515,-0.240234 v -0.0039 l -0.01172,-0.580079 v -0.002 -0.0039 c 0,-0.09022 0.0352,-0.175819 0.101562,-0.242187 l 0.002,-0.002 0.002,-0.002 c 0.06306,-0.06464 0.146382,-0.09978 0.248046,-0.101562 z m -4.183593,0.08984 h 0.0039 0.002 c 0.07202,0 0.128808,0.01573 0.183594,0.04687 l 0.0059,0.0039 0.0098,0.0039 v 0.002 l 0.24414,0.146485 c 0.106244,0.06278 0.177735,0.182151 0.177735,0.314453 0,0.06828 -0.02023,0.133768 -0.04687,0.177734 v 0.002 l -0.5,0.839844 v 0.002 c -0.06378,0.109564 -0.182149,0.177735 -0.314453,0.177734 -0.05918,0 -0.126867,-0.01864 -0.185547,-0.05273 h -0.002 l -0.25,-0.150391 c -0.113523,-0.06852 -0.181641,-0.188952 -0.181641,-0.314453 0,-0.06605 0.01582,-0.124748 0.05273,-0.1875 L 22.21875,35.40625 c 0.06835,-0.114489 0.186511,-0.17932 0.308594,-0.177734 z m 0.541015,0.01953 c 0.0017,0.0011 0.0041,-0.0011 0.0059,0 4.7e-4,2.86e-4 -4.71e-4,0.0017 0,0.002 z m 7.910157,0.259765 c 0.131681,0 0.252269,0.07221 0.314453,0.177735 2.93e-4,4.97e-4 0.0017,-4.99e-4 0.002,0 l 0.474609,0.810547 c 0.03323,0.05649 0.04883,0.115306 0.04883,0.183593 0,0.132303 -0.06478,0.247719 -0.177734,0.3125 h -0.002 l -0.292969,0.173829 -0.0039,0.002 c -0.04395,0.02664 -0.109449,0.04492 -0.177735,0.04492 -0.132305,0 -0.248723,-0.06817 -0.3125,-0.177735 l -0.476562,-0.8125 -0.002,-0.002 c -0.02664,-0.04395 -0.04492,-0.113686 -0.04492,-0.175781 0,-0.132304 0.07138,-0.254501 0.177734,-0.316406 l 0.294922,-0.171875 0.0039,-0.002 c 0.04778,-0.02896 0.105541,-0.04687 0.173829,-0.04687 z"
     id="path9" />
  <linearGradient
     id="_lgradient_9"
     x1="0.097564034"
     y1="0.35699406"
     x2="1.0395368"
     y2="0.89820588"
     gradientTransform="matrix(20.639114,0,0,16.731678,15.114122,12.886201)"
     gradientUnits="userSpaceOnUse">
    <stop
       offset="0%"
       stop-opacity="1"
       style="stop-color:rgb(0,2,255)"
       id="stop11" />
    <stop
       offset="100%"
       stop-opacity="1"
       style="stop-color:rgb(255,0,44)"
       id="stop13" />
  </linearGradient>
  <path
     style="color:#000000;fill:url(#linearGradient1270);fill-rule:evenodd;-inkscape-stroke:none"
     d="m 21.130859,12.386719 c -0.870544,0.0045 -1.732904,0.19743 -2.519531,0.566406 -0.577809,0.265364 -1.109493,0.614405 -1.582031,1.027344 l -0.002,0.002 -0.002,0.002 c -0.579174,0.51622 -1.080751,1.108441 -1.492188,1.767578 v 0.002 l -0.002,0.002 c -0.327812,0.534853 -0.562912,1.122792 -0.701172,1.732422 -3.04e-4,0.0013 3.04e-4,0.0026 0,0.0039 -3.21e-4,0.0014 -0.0016,0.0025 -0.002,0.0039 -0.142203,0.592453 -0.214844,1.200515 -0.214844,1.808593 0,0.33677 0.02604,0.671941 0.07227,1.003907 0.04388,0.315989 0.119095,0.628287 0.224609,0.93164 v 0.002 l 0.002,0.002 c 0.304945,0.847569 0.877914,1.571791 1.625,2.068359 h -0.0039 c 0.230701,0.155278 0.475747,0.287801 0.732422,0.398437 0.09952,0.04353 0.195511,0.07704 0.289062,0.107422 l 7.455079,2.988282 c 0.259961,0.103992 0.551682,0.105568 0.816406,-0.0078 0.263742,-0.113017 0.465112,-0.322938 0.570312,-0.585937 0.10397,-0.259949 0.105543,-0.551695 -0.0078,-0.816407 -0.11302,-0.263744 -0.322941,-0.465112 -0.585938,-0.570312 l -1.996093,-0.800781 c 0.407141,-0.151437 0.835524,-0.258783 1.185546,-0.515625 0.571998,-0.416806 1.035299,-0.959801 1.365235,-1.580079 l 0.002,-0.002 v -0.002 c 0.344509,-0.662519 0.527344,-1.39977 0.527344,-2.15039 0,-0.01408 -0.0038,-0.02697 -0.0039,-0.04102 1.737821,1.830391 3.473052,3.662453 5.222657,5.482422 0.0088,0.02154 0.01336,0.04569 0.02344,0.06641 l 0.002,0.0059 c 2.67e-4,5.41e-4 -2.67e-4,0.0014 0,0.002 0.08167,0.174511 0.125727,0.360747 0.123047,0.542968 v 0.0039 0.0039 c 0,0.152353 -0.02627,0.301047 -0.07813,0.4375 -0.06876,0.176977 -0.171871,0.330632 -0.308594,0.458984 -0.108042,0.101427 -0.238234,0.161795 -0.367187,0.21875 l -1.689453,-0.703125 h -0.002 c -0.259962,-0.103993 -0.544726,-0.103993 -0.804688,0 l -0.0059,0.002 -0.0059,0.002 c -0.256345,0.109849 -0.460465,0.314003 -0.570312,0.570313 l -0.002,0.0059 -0.002,0.0059 c -0.100954,0.252363 -0.112706,0.544276 0.0039,0.816406 0.10985,0.256306 0.313998,0.460462 0.570312,0.570312 h 0.002 l 4.353515,1.8125 h 0.002 c 0.07479,0.03018 0.158251,0.05232 0.246094,0.06445 0.09323,0.01526 0.192978,0.01606 0.292969,0.002 0.0214,-0.0026 0.04981,-0.0041 0.05859,-0.0059 0.76319,-0.09048 1.452816,-0.512509 1.876953,-1.160156 0.282271,-0.428273 0.434577,-0.932738 0.429687,-1.451172 v -0.04297 l -0.01172,-0.179687 v -0.04883 C 36.12978,26.531898 35.77566,26.077485 35.419751,25.580512 l -0.002,-0.002 C 31.939544,22.100305 28.509605,18.373973 25.470703,15.15625 l -0.002,-0.002 c -0.471281,-0.507401 -0.968448,-0.99265 -1.5,-1.447266 l -0.002,-0.002 c -0.339516,-0.293786 -0.70343,-0.562269 -1.087891,-0.802734 l -0.0059,-0.002 c -0.23588,-0.153636 -0.484076,-0.276341 -0.738281,-0.373047 -0.142205,-0.05469 -0.289363,-0.08724 -0.431641,-0.103516 -0.0019,-2.66e-4 -0.0039,-0.0017 -0.0059,-0.002 -0.184062,-0.02499 -0.372703,-0.03903 -0.564454,-0.03516 z m 0.0059,1 h 0.0039 0.0059 c 0.138546,-0.0032 0.280786,0.0068 0.427735,0.02734 h 0.0059 l 0.0078,0.002 c 0.06873,0.0076 0.126664,0.02153 0.1875,0.04492 h 0.002 c 0.199834,0.0758 0.38336,0.16532 0.554687,0.277343 l 0.0039,0.0039 0.0039,0.002 c 0.344499,0.214848 0.670985,0.455856 0.974609,0.71875 l 0.002,0.002 c 0.49989,0.427387 0.971786,0.888335 1.421875,1.373047 h 0.002 v 0.002 c 3.56445,3.763902 7.045397,7.413545 10.146484,10.636717 l 0.01953,0.02734 c 0.183154,0.227429 0.299653,0.501279 0.335937,0.792969 1.52e-4,0.0012 -1.48e-4,0.0027 0,0.0039 l 0.01172,0.177735 v 0.01758 0.002 c 0.003,0.317382 -0.09056,0.626968 -0.265625,0.892578 -0.261815,0.399785 -0.689557,0.66379 -1.160156,0.71875 h -0.01367 l -0.01172,0.002 h -0.01563 l -0.03125,0.0059 -0.01172,-0.002 h -0.01367 c 0.0028,3.38e-4 5.55e-4,-0.0013 -0.0059,-0.0039 l -4.33789,-1.804687 c -0.01966,-0.0084 -0.03649,-0.02525 -0.04492,-0.04492 -0.0014,-0.0033 -0.0011,-0.02337 0.0039,-0.04297 0.0081,-0.0158 0.02133,-0.02899 0.03711,-0.03711 0.01554,-0.0039 0.03642,-0.0046 0.05078,0 l 2.109375,0.875 0.205078,-0.105469 -0.0625,0.02734 c 0.328081,-0.102817 0.621188,-0.280663 0.865234,-0.509766 0.249245,-0.233985 0.438111,-0.52078 0.558594,-0.832031 v -0.002 c 0.0975,-0.256568 0.144104,-0.524741 0.144531,-0.789063 0.0045,-0.349921 -0.07853,-0.687068 -0.222656,-0.990234 l -0.002,-0.0039 -0.002,-0.0039 c -0.0033,-0.0067 -0.0039,-0.01155 -0.0039,-0.01172 l -0.03125,-0.138671 -0.09766,-0.09961 c -2.766029,-2.876763 -5.515983,-5.769999 -8.253906,-8.671875 -0.0097,-0.01029 -0.02486,-0.02622 -0.04492,-0.04687 L 23.73642,14.99632 v 1.234375 c -0.004,0.555981 -0.09633,1.105997 -0.269531,1.632812 -0.245597,0.747953 -0.596672,1.460264 -1.03711,2.117188 l -0.002,0.0039 v 0.002 c -0.512419,0.784983 -1.207373,1.43909 -2.021484,1.904297 l -0.002,0.002 h -0.002 c -0.330091,0.192395 -0.670801,0.368101 -1.017578,0.523438 l -1.074219,0.482421 7.121094,2.855469 c 0.01298,0.0052 0.03187,0.02488 0.03711,0.03711 0.0048,0.01127 0.0064,0.03475 0,0.05078 -0.0052,0.01298 -0.02488,0.03187 -0.03711,0.03711 -0.01125,0.0048 -0.03477,0.0064 -0.05078,0 l -7.470703,-2.996094 -0.01953,-0.0059 c -0.0825,-0.02611 -0.159102,-0.05244 -0.226563,-0.08203 v -0.002 h -0.002 c -0.200658,-0.08649 -0.390989,-0.18985 -0.570312,-0.310547 l -0.002,-0.002 C 16.52013,22.101796 16.084752,21.548953 15.853516,20.90625 v 0.0059 c -0.08373,-0.240716 -0.142777,-0.488502 -0.177735,-0.740234 v -0.002 c -0.04051,-0.290954 -0.0625,-0.579087 -0.0625,-0.865235 0,-0.532585 0.06286,-1.065153 0.1875,-1.582031 l 0.002,-0.002 v -0.0039 c 0.114125,-0.506426 0.31071,-0.995499 0.580078,-1.435547 l 0.002,-0.002 c 0.361016,-0.577866 0.796415,-1.095803 1.304687,-1.548828 0.401681,-0.350354 0.854815,-0.646387 1.339844,-0.869141 h 0.002 l 0.002,-0.002 c 0.654712,-0.307678 1.375483,-0.469109 2.103516,-0.472656 z m 0,0.136719 c -0.709318,0.0015 -1.410451,0.159457 -2.052735,0.460937 -0.470704,0.220404 -0.910765,0.50568 -1.304687,0.847656 l -0.0039,0.002 -0.002,0.002 C 17.282362,15.276213 16.852762,15.782386 16.5,16.347656 l -0.002,0.0039 -0.002,0.0039 c -0.258464,0.429311 -0.451423,0.900185 -0.5625,1.396484 -1.88e-4,8.38e-4 -0.0018,0.0011 -0.002,0.002 -0.122286,0.510075 -0.1815,1.031177 -0.1815,1.550747 0,0.285468 0.02026,0.568826 0.05859,0.845704 0.03262,0.245836 0.09215,0.480113 0.167969,0.703125 l 0.002,0.0059 0.002,0.0059 c 0.225487,0.615389 0.641115,1.143173 1.1875,1.50586 0.170636,0.114975 0.35468,0.215616 0.548828,0.298828 0.02107,0.0092 0.04071,0.01859 0.05859,0.02539 l 0.144531,0.05469 0.15039,-0.03711 c 0.345183,-0.08283 0.683876,-0.186794 1.015625,-0.314454 l 0.0078,-0.0039 0.0059,-0.002 c 0.42572,-0.177728 0.838394,-0.384462 1.234375,-0.615234 0.797377,-0.456875 1.478035,-1.098281 1.982422,-1.869141 0.433693,-0.647072 0.777178,-1.345205 1.023438,-2.083984 v -0.002 c 0.170538,-0.515971 0.256955,-1.054888 0.265625,-1.595704 v -0.002 c 0.0046,-0.429539 -0.06998,-0.855548 -0.214844,-1.259765 -3.62e-4,-0.0011 3.64e-4,-0.0028 0,-0.0039 -0.04116,-0.124042 -0.09622,-0.247427 -0.167969,-0.365235 l -0.04102,-0.06836 -0.0625,-0.05274 c -0.268758,-0.226367 -0.555299,-0.43387 -0.851563,-0.61914 l -0.002,-0.002 C 22.09639,13.748178 21.908908,13.650898 21.701234,13.579979 l 0.117187,0.05859 c -0.07659,-0.05132 -0.189518,-0.0952 -0.310547,-0.0957 h -0.002 c -0.119488,-0.01349 -0.240155,-0.02332 -0.36914,-0.01953 z m 0.04687,1.783203 h 0.002 c 0.115782,0 0.236309,0.0071 0.361328,0.01758 0.01631,0.0017 0.03553,0.01165 0.04687,0.02344 0.01046,0.01465 0.01565,0.03003 0.01367,0.04883 -0.0028,0.02629 -0.01219,0.03748 -0.02148,0.04492 -0.01988,0.0159 -0.02753,0.01787 -0.04883,0.01563 h -0.0059 l -0.0078,-0.002 c -0.113669,-0.0088 -0.225248,-0.01167 -0.339843,-0.01172 h -0.002 c -0.964802,-0.004 -1.891142,0.379386 -2.572266,1.064453 -0.509817,0.509817 -0.853318,1.163697 -0.990234,1.871094 v 0.0059 l -0.002,0.0059 c -0.03487,0.209239 -0.05859,0.427104 -0.05859,0.654297 0,0.493056 0.101706,0.984926 0.298828,1.439453 h -0.002 c 0.008,0.01863 0.0073,0.04238 0.0039,0.05078 l -0.002,0.002 v 0.002 c -0.0053,0.01369 -0.0155,0.02478 -0.03516,0.0332 -0.02102,0.009 -0.03324,0.0092 -0.05273,0.002 -0.01289,-0.0062 -0.03018,-0.02354 -0.03516,-0.03516 v -0.002 h -0.002 c -0.204178,-0.467187 -0.308594,-0.980663 -0.308594,-1.492187 0,-0.234305 0.02017,-0.460195 0.06445,-0.681641 l 0.002,-0.0039 v -0.002 c 0.139344,-0.738529 0.494327,-1.416202 1.021485,-1.94336 0.706188,-0.709667 1.670641,-1.110897 2.671875,-1.107421 z m 1.328125,0.359375 c 0.03763,0.181706 0.09573,0.361174 0.09375,0.546875 -0.0073,0.444145 -0.07806,0.881064 -0.214844,1.294921 -0.218495,0.655485 -0.521058,1.271619 -0.90625,1.845704 l -0.002,0.0039 -0.002,0.002 c -0.418009,0.639517 -0.98203,1.172305 -1.642578,1.550781 h -0.002 l -0.002,0.002 c -0.356065,0.207705 -0.726582,0.393103 -1.107422,0.552735 -0.238037,0.0916 -0.481171,0.161365 -0.726562,0.226562 -0.09459,-0.04686 -0.189506,-0.09236 -0.275391,-0.15039 l -0.002,-0.002 h -0.002 c -0.01345,-0.0089 -0.01609,-0.02789 -0.0293,-0.03711 0.178698,0.01659 0.361025,0.06067 0.525391,-0.0098 0.255021,-0.109294 0.464699,-0.317741 0.570312,-0.585937 v -0.002 c 0.106189,-0.267047 0.0983,-0.557721 -0.01172,-0.814453 l -0.794922,0.568359 0.792968,-0.570312 c -0.141417,-0.325596 -0.214843,-0.685081 -0.214843,-1.042969 0,-0.155329 0.01601,-0.311793 0.04297,-0.476563 1.72e-4,-8.87e-4 0.0018,-0.0011 0.002,-0.002 0.09998,-0.513754 0.348098,-0.98677 0.71289,-1.351562 v -0.002 c 0.493182,-0.496492 1.165594,-0.772803 1.863281,-0.769532 h 0.002 c 0.08973,0 0.174935,0.0028 0.265625,0.0098 l -0.01367,-0.002 c 0.278329,0.0293 0.560667,-0.05518 0.777343,-0.228516 0.175392,-0.140319 0.242022,-0.351516 0.300782,-0.55664 z m 2.048828,1.628906 c 0.300683,0.31827 0.605243,0.633159 0.90625,0.951172 -0.214914,0.06983 -0.427649,0.160401 -0.560547,0.347656 -0.156951,0.221161 -0.234477,0.503967 -0.189453,0.789062 l 0.002,0.0059 v 0.0059 c 0.02148,0.119649 0.03125,0.248133 0.03125,0.38086 0,0.40505 -0.09641,0.805308 -0.28125,1.160156 -0.177207,0.334724 -0.431323,0.628549 -0.736328,0.851562 v 0.002 h -0.002 c -0.303292,0.225023 -0.659244,0.37787 -1.039063,0.451172 l 0.01563,-0.002 c -0.287785,0.04667 -0.533556,0.205887 -0.695312,0.44336 -0.116331,0.169122 -0.113575,0.37445 -0.121094,0.574218 l -1.099609,-0.439453 c 0.03625,-0.02062 0.07529,-0.03565 0.111328,-0.05664 l 0.002,-0.002 c 0.951089,-0.543991 1.760515,-1.307205 2.359375,-2.224609 0.488855,-0.72984 0.877984,-1.521873 1.152344,-2.357422 0.09294,-0.282706 0.09131,-0.58715 0.144531,-0.880859 z m 1.833984,1.054687 0.0098,0.0059 c -0.0023,-0.0017 -0.0055,-2.82e-4 -0.0078,-0.002 -0.0012,-8.8e-4 -7.2e-4,-0.003 -0.002,-0.0039 z m -0.632812,0.798828 h 0.002 c 0.01308,-0.0021 0.03374,0.0015 0.04492,0.0098 l 0.0039,0.0039 0.0039,0.0039 c 0.01087,0.0077 0.02065,0.02139 0.02344,0.03906 0.0284,0.192751 0.04687,0.385032 0.04687,0.570313 0,0.587749 -0.14345,1.164783 -0.41211,1.683593 -0.261443,0.491514 -0.62514,0.917798 -1.070312,1.242188 l -0.002,0.002 c -0.4434,0.325621 -0.955415,0.549544 -1.496094,0.650391 -0.01948,0.0013 -0.0424,-0.006 -0.05273,-0.01172 -0.0167,-0.01172 -0.02478,-0.01842 -0.0293,-0.04297 v -0.002 c -0.0028,-0.01457 4.32e-4,-0.03242 0.01172,-0.04883 v -0.002 l 0.002,-0.002 c 0.0038,-0.0057 0.02628,-0.01904 0.0293,-0.01953 h 0.0059 l 0.0078,-0.002 c 0.51823,-0.100014 1.013829,-0.308782 1.44336,-0.626953 l 0.002,-0.002 c 0.427292,-0.312951 0.779194,-0.720726 1.027344,-1.189453 v -0.002 C 25.616963,20.898558 25.75,20.338911 25.75,19.775391 c 0,-0.182686 -0.01314,-0.370733 -0.04687,-0.558594 l 0.002,0.0098 c -0.0023,-0.01454 -8.93e-4,-0.02946 0.01563,-0.05273 0.0077,-0.01087 0.02335,-0.0226 0.04102,-0.02539 z m 1.898437,2.009766 c -0.357931,0 -0.686416,0.166096 -0.904297,0.431641 l -0.0039,0.0059 -0.0039,0.0039 c -0.167246,0.214083 -0.259766,0.478433 -0.259766,0.753907 0,0.266036 0.08657,0.524662 0.251953,0.738281 v 0.002 c 0.217827,0.279099 0.55466,0.453125 0.919922,0.453125 0.340148,0 0.664814,-0.157064 0.884766,-0.419922 0.0083,-0.0095 0.02013,-0.02936 0.03516,-0.04883 0.153842,-0.203735 0.249201,-0.455178 0.246094,-0.724609 0.0036,-0.275713 -0.09299,-0.541844 -0.259766,-0.75 -0.219215,-0.28056 -0.549861,-0.445313 -0.90625,-0.445313 z m 0,1 c 0.04421,0 0.09583,0.02599 0.121094,0.05859 l 0.002,0.0059 0.0039,0.0039 c 0.03252,0.04002 0.04395,0.07308 0.04297,0.113282 v 0.01367 0.01172 c 8.21e-4,0.03319 -0.01198,0.07502 -0.04492,0.117188 l -0.0039,0.0059 c -0.03236,0.03945 -0.07063,0.05859 -0.121094,0.05859 -0.04476,0 -0.09637,-0.02416 -0.130859,-0.06836 -0.02335,-0.03084 -0.04102,-0.07632 -0.04102,-0.125 0,-0.0452 0.01988,-0.09337 0.04687,-0.13086 0.03431,-0.03875 0.08264,-0.06445 0.125,-0.06445 z m 5.81836,3.041016 -0.13086,1.041015 c -0.01785,0.143441 -0.05612,0.290029 -0.109375,0.439453 -0.131375,0.337183 -0.330983,0.639366 -0.591797,0.88086 l -0.002,0.002 -0.0039,0.002 c -0.03922,0.03722 -0.07896,0.07399 -0.119141,0.107422 l -0.634765,0.529297 0.763672,0.316406 1.136718,0.472656 0.154297,-0.0332 c 0.376721,-0.0819 0.71515,-0.306618 0.931641,-0.638672 0.161554,-0.240957 0.242252,-0.520655 0.248047,-0.798828 l 0.002,-0.02539 -0.01563,-0.181641 -0.002,-0.0098 c -0.03162,-0.256608 -0.131297,-0.489751 -0.271485,-0.6875 l -0.04687,-0.06836 C 34.576778,26.353885 34.375766,26.132011 34.205067,25.95514 Z m 0.560546,2.041015 c 0.03567,0.06169 0.06674,0.124833 0.07422,0.185547 l 0.0059,0.08008 c -0.0032,0.09627 -0.02957,0.183925 -0.07813,0.25586 l -0.002,0.0039 -0.002,0.0059 c -0.0493,0.07627 -0.137796,0.110253 -0.220703,0.148438 l -0.185547,-0.07617 c 0.149464,-0.194044 0.304058,-0.382397 0.408203,-0.603516 z"
     id="path16"
     sodipodi:nodetypes="cccccccccccsccccccccccccccccccscccccccscscccccccccccccccccccccccscccccccccccccccccccccccccccccscccccccccccccccccccccsccccccccccccccccccccccccccccccccccccccscccccccccccccccccccscsccccccccccccccccccccccccccccccccscccccccscccccscccccsccccscccccccccccccccccccccccccccscccccscccccccccccscccccccccccccccccccccccccscccccccccccccccccscccccccccsccscccccccccccccccscsccccccccccccccccccccccccccccccccc" />
  <linearGradient
     id="_lgradient_10"
     x1="0"
     y1="0.5"
     x2="1"
     y2="0.5"
     gradientTransform="matrix(-3.2569192,0,0,3.2569192,15.957822,12.760435)"
     gradientUnits="userSpaceOnUse">
    <stop
       offset="0%"
       stop-opacity="1"
       style="stop-color:rgb(247,242,6)"
       id="stop18" />
    <stop
       offset="98.26086956521739%"
       stop-opacity="1"
       style="stop-color:rgb(255,187,36)"
       id="stop20" />
  </linearGradient>
  <path
     style="color:#000000;fill:url(#linearGradient1788);-inkscape-stroke:none"
     d="m 14.330078,11.71875 -0.439453,0.800781 -0.505859,0.925782 -1.726563,0.943359 1.726563,0.945312 0.945312,1.72461 0.94336,-1.72461 L 17,14.388672 15.273438,13.445313 Z m -0.002,2.082031 0.208984,0.38086 0.378907,0.207031 -0.378907,0.207031 -0.208984,0.38086 -0.207031,-0.38086 -0.378906,-0.207031 0.378906,-0.207031 z"
     id="path23" />
  <linearGradient
     id="_lgradient_11"
     x1="0"
     y1="0.5"
     x2="1"
     y2="0.5"
     gradientTransform="matrix(-3.2569192,0,0,3.2569192,30.97884,13.813089)"
     gradientUnits="userSpaceOnUse">
    <stop
       offset="0%"
       stop-opacity="1"
       style="stop-color:rgb(247,242,6)"
       id="stop25" />
    <stop
       offset="98.26086956521739%"
       stop-opacity="1"
       style="stop-color:rgb(255,187,36)"
       id="stop27" />
  </linearGradient>
  <path
     style="color:#000000;fill:url(#linearGradient1786);-inkscape-stroke:none"
     d="m 29.351562,12.771484 -0.439453,0.800782 -0.505859,0.925781 -1.726563,0.943359 1.726563,0.945313 0.945312,1.724609 0.94336,-1.724609 1.726562,-0.945313 -1.726562,-0.943359 z m 0,2.082032 0.207032,0.380859 0.378906,0.207031 -0.378906,0.207032 -0.207032,0.380859 -0.208984,-0.380859 -0.378906,-0.207032 0.378906,-0.207031 z"
     id="path30" />
  <linearGradient
     id="_lgradient_12"
     x1="0"
     y1="0.5"
     x2="1"
     y2="0.5"
     gradientTransform="matrix(-3.2569192,0,0,3.2569192,34.901651,18.631248)"
     gradientUnits="userSpaceOnUse">
    <stop
       offset="0%"
       stop-opacity="1"
       style="stop-color:rgb(247,242,6)"
       id="stop32" />
    <stop
       offset="98.26086956521739%"
       stop-opacity="1"
       style="stop-color:rgb(255,187,36)"
       id="stop34" />
  </linearGradient>
  <path
     style="color:#000000;fill:url(#linearGradient1784);-inkscape-stroke:none"
     d="m 33.273437,17.589844 -0.439453,0.800781 -0.503906,0.925781 -1.726562,0.94336 1.726562,0.943359 0.943359,1.726562 0.94336,-1.726562 1.726562,-0.943359 -1.726562,-0.94336 z m 0,2.083984 0.207032,0.378906 0.378906,0.207032 -0.378906,0.207031 -0.207032,0.378906 -0.207031,-0.378906 -0.378906,-0.207031 0.378906,-0.207032 z"
     id="path37" />
  <linearGradient
     id="_lgradient_13"
     x1="0"
     y1="0.5"
     x2="1"
     y2="0.5"
     gradientTransform="matrix(-3.2569192,0,0,3.2569192,19.648025,27.135273)"
     gradientUnits="userSpaceOnUse">
    <stop
       offset="0%"
       stop-opacity="1"
       style="stop-color:rgb(247,242,6)"
       id="stop39" />
    <stop
       offset="98.26086956521739%"
       stop-opacity="1"
       style="stop-color:rgb(255,187,36)"
       id="stop41" />
  </linearGradient>
  <path
     style="color:#000000;fill:url(#linearGradient1790);-inkscape-stroke:none"
     d="m 18.019531,26.09375 -0.4375,0.800781 -0.505859,0.925781 -1.726563,0.94336 1.726563,0.943359 0.943359,1.726563 0.94336,-1.726563 1.726562,-0.943359 -1.726562,-0.94336 z m 0,2.083984 0.207031,0.378907 0.378907,0.207031 -0.378907,0.207031 -0.207031,0.378906 L 17.8125,28.970703 17.433594,28.763672 17.8125,28.556641 Z"
     id="path44" />
</svg>
