<?xml version="1.0" encoding="UTF-8" standalone="no"?>
<svg
   width="47.285591"
   height="47.28569"
   version="1.1"
   viewBox="0 0 12.510734 12.51076"
   id="svg12"
   sodipodi:docname="ksudoku.svg"
   inkscape:version="1.1.2 (0a00cf5339, 2022-02-04)"
   xmlns:inkscape="http://www.inkscape.org/namespaces/inkscape"
   xmlns:sodipodi="http://sodipodi.sourceforge.net/DTD/sodipodi-0.dtd"
   xmlns:xlink="http://www.w3.org/1999/xlink"
   xmlns="http://www.w3.org/2000/svg"
   xmlns:svg="http://www.w3.org/2000/svg"
   xmlns:rdf="http://www.w3.org/1999/02/22-rdf-syntax-ns#"
   xmlns:cc="http://creativecommons.org/ns#"
   xmlns:dc="http://purl.org/dc/elements/1.1/">
  <style
     id="style882" />
  <metadata
     id="metadata57">
    <rdf:RDF>
      <cc:Work
         rdf:about="">
        <dc:format>image/svg+xml</dc:format>
        <dc:type
           rdf:resource="http://purl.org/dc/dcmitype/StillImage" />
      </cc:Work>
    </rdf:RDF>
  </metadata>
  <defs
     id="defs16">
    <linearGradient
       inkscape:collect="always"
       id="linearGradient2765">
      <stop
         style="stop-color:#e20dff;stop-opacity:1"
         offset="0"
         id="stop2761" />
      <stop
         style="stop-color:#9b0aff;stop-opacity:1"
         offset="1"
         id="stop2763" />
    </linearGradient>
    <linearGradient
       inkscape:collect="always"
       id="linearGradient1635">
      <stop
         style="stop-color:#01ddff;stop-opacity:1;"
         offset="0"
         id="stop1631" />
      <stop
         style="stop-color:#d401ff;stop-opacity:1"
         offset="1"
         id="stop1633" />
    </linearGradient>
    <linearGradient
       x1="36"
       gradientUnits="userSpaceOnUse"
       x2="14"
       y2="12"
       y1="44"
       id="b-2">
      <stop
         style="stop-color:#bfc9c9;stop-opacity:1"
         stop-color="#536161"
         id="stop1579" />
      <stop
         style="stop-color:#fbfbfb;stop-opacity:1"
         stop-color="#f4f5f5"
         offset="1"
         id="stop1581" />
    </linearGradient>
    <linearGradient
       inkscape:collect="always"
       xlink:href="#linearGradient1635"
       id="linearGradient1637"
       x1="-12.459554"
       y1="6.2880522"
       x2="0.010229409"
       y2="6.2880522"
       gradientUnits="userSpaceOnUse" />
    <linearGradient
       inkscape:collect="always"
       xlink:href="#linearGradient1635"
       id="linearGradient15-3"
       x1="-9.6850061"
       y1="45.161198"
       x2="11.98815"
       y2="21.735205"
       gradientUnits="userSpaceOnUse"
       gradientTransform="matrix(0.29098074,0,0,0.2910566,-0.0021365,-0.88237652)" />
    <linearGradient
       inkscape:collect="always"
       xlink:href="#linearGradient2765"
       id="linearGradient2767"
       x1="2.6138227"
       y1="6.2553727"
       x2="10.015586"
       y2="6.2553727"
       gradientUnits="userSpaceOnUse" />
    <linearGradient
       inkscape:collect="always"
       xlink:href="#b-2"
       id="linearGradient3237"
       x1="3.3168559"
       y1="6.2966032"
       x2="9.2728491"
       y2="6.2966032"
       gradientUnits="userSpaceOnUse" />
  </defs>
  <sodipodi:namedview
     id="namedview14"
     pagecolor="#000000"
     bordercolor="#666666"
     borderopacity="1.0"
     inkscape:showpageshadow="2"
     inkscape:pageopacity="0.0"
     inkscape:pagecheckerboard="0"
     inkscape:deskcolor="#d1d1d1"
     showgrid="false"
     inkscape:zoom="17.709105"
     inkscape:cx="34.360856"
     inkscape:cy="25.523594"
     inkscape:window-width="1600"
     inkscape:window-height="836"
     inkscape:window-x="0"
     inkscape:window-y="0"
     inkscape:window-maximized="1"
     inkscape:current-layer="svg12"
     inkscape:document-rotation="0"
     inkscape:pageshadow="2">
    <inkscape:grid
       type="xygrid"
       id="grid244"
       originx="9.9594769"
       originy="-31.57929"
       spacingy="1"
       spacingx="1"
       units="px"
       visible="false" />
  </sodipodi:namedview>
  <rect
     x="-12.194977"
     y="0.32004526"
     width="11.940627"
     height="11.936014"
     rx="1.6121091"
     shape-rendering="crispEdges"
     id="rect5-6-7-3"
     ry="1.7735944"
     transform="matrix(0.00523883,-0.99998628,0.999988,0.00489859,0,0)"
     style="fill:#00fffe;fill-opacity:0.15;stroke:url(#linearGradient1637);stroke-width:0.529156;stroke-miterlimit:4;stroke-dasharray:none;stroke-opacity:1" />
  <rect
     x="-4.0936203"
     y="4.4916606"
     height="8.7042408"
     rx="1.7729108"
     shape-rendering="crispEdges"
     id="rect5-6-6-6-6-6"
     style="isolation:isolate;fill:#00ffff;fill-opacity:0.14901961;stroke:url(#linearGradient15-3);stroke-width:0.436527;stroke-miterlimit:4;stroke-dasharray:none;stroke-opacity:1"
     ry="1.9510121"
     transform="matrix(0.72446484,-0.68931176,0.68622418,0.72739011,0,0)"
     width="8.7022429" />
  <path
     style="color:#000000;fill:url(#linearGradient2767);-inkscape-stroke:none"
     d="m 7.7617187,2.4199219 c -0.098273,0 -0.1983067,0.032979 -0.2753906,0.1054687 -0.077084,0.07249 -0.1247661,0.1845579 -0.125,0.3105469 V 4.6972656 H 5.5117187 V 2.8652344 2.8632813 C 5.511364,2.7377816 5.4634583,2.6270439 5.3867187,2.5546875 5.3095616,2.4819373 5.2097876,2.4472656 5.1113281,2.4472656 c -0.098459,0 -0.1982334,0.034672 -0.2753906,0.1074219 -0.077157,0.07275 -0.1271221,0.1842013 -0.1269531,0.3105469 V 4.6972656 H 2.9511719 c -0.1250912,-5.314e-4 -0.236307,0.055461 -0.3046875,0.1367188 -0.068381,0.081258 -0.097656,0.1820401 -0.097656,0.28125 0,0.09921 0.029276,0.1999923 0.097656,0.28125 0.06838,0.081258 0.1795963,0.1372501 0.3046875,0.1367187 H 4.7089844 V 7.2617187 H 2.9472656 l 0.035156,0.00586 C 2.8580441,7.2345548 2.7272108,7.2937814 2.6640625,7.3808594 2.6009142,7.4679374 2.578125,7.5704127 2.578125,7.671875 c 0,0.1014623 0.022789,0.2039376 0.085937,0.2910156 0.063148,0.087078 0.1939816,0.1463046 0.3183594,0.1132813 l -0.035156,0.00391 h 1.7617188 v 1.5722657 c -3.6e-6,0.2248503 0.1780627,0.4160144 0.4023437,0.4160154 0.2242821,1e-6 0.4003942,-0.191164 0.4003906,-0.4160154 V 8.0800781 h 1.8496094 v 1.59375 c 2e-7,0.224847 0.176113,0.4179669 0.4003906,0.4179689 0.2242799,1e-6 0.4023436,-0.1931197 0.4023438,-0.4179689 v -1.59375 h 1.6386719 v 0 c 0.054268,-0.020756 0.1236138,-0.075376 0.1542969,-0.117187 0.064401,-0.087763 0.085938,-0.1924059 0.085938,-0.2949219 0,-0.1025159 -0.02154,-0.2052061 -0.085938,-0.2929687 -0.064401,-0.087763 -0.1995756,-0.14594 -0.3242186,-0.1074224 l 0.039063,-0.00586 h -1.507813 v -1.728515 h 1.5097656 c 0.1250912,5.314e-4 0.2363071,-0.055461 0.3046875,-0.1367187 0.06838,-0.081258 0.097656,-0.1820401 0.097656,-0.28125 0,-0.09921 -0.02928,-0.1999925 -0.097656,-0.28125 C 9.9101349,4.7527269 9.7989193,4.6967342 9.6738281,4.6972656 H 8.1640625 V 2.8359375 C 8.1638287,2.7099485 8.1141932,2.5978806 8.0371094,2.5253906 7.9600255,2.4529007 7.8599914,2.4199219 7.7617187,2.4199219 Z m 0,0.2636719 c 0.036016,0 0.07003,0.012849 0.09375,0.035156 0.02372,0.022307 0.042851,0.053583 0.042969,0.1171875 V 4.6972656 H 7.625 V 2.8359375 C 7.625118,2.7723325 7.644248,2.7410565 7.667969,2.71875 7.691689,2.696443 7.725703,2.683594 7.7617187,2.6835938 Z m -2.6503906,0.027344 c 0.036132,0 0.070027,0.012788 0.09375,0.035156 0.023723,0.022368 0.043054,0.053297 0.042969,0.1171875 V 4.6972656 H 4.9746094 V 2.8632813 c -8.55e-5,-0.063891 0.019246,-0.09482 0.042969,-0.1171875 0.023723,-0.022368 0.057618,-0.035156 0.09375,-0.035156 z M 2.9511719,4.9628906 H 4.7089844 V 5.2675781 H 2.9511719 C 2.8962581,5.2678114 2.8712313,5.2522562 2.8496094,5.2265625 2.8279874,5.2008688 2.8125,5.1588812 2.8125,5.1152344 c 0,-0.043647 0.015487,-0.085635 0.037109,-0.1113282 0.021622,-0.025694 0.046649,-0.041249 0.1015629,-0.041016 z m 2.0234375,0 H 5.2480469 V 5.2675781 H 4.9746094 Z m 0.5371093,0 H 7.3613281 V 5.2675781 H 5.5117187 Z m 2.1132813,0 H 7.8984375 V 5.2675781 H 7.625 Z m 0.5390625,0 h 1.5097656 c 0.054914,-2.332e-4 0.079941,0.015322 0.1015625,0.041016 0.021622,0.025694 0.037109,0.067681 0.037109,0.1113282 0,0.043647 -0.015487,0.085634 -0.037109,0.1113281 -0.021622,0.025694 -0.046649,0.041249 -0.1015625,0.041016 H 8.1640625 Z M 4.9746094,5.5332031 H 5.2480469 V 7.2617187 H 4.9746094 Z m 0.5371093,0 H 7.3613281 V 7.2617187 H 5.5117187 Z m 2.1132813,0 H 7.8984375 V 7.2617187 H 7.625 Z m 2.0859375,1.9882813 c 0.034958,-0.010803 0.017804,-0.01122 0.033203,0.00977 0.015399,0.020985 0.035156,0.077797 0.035156,0.1367187 0,0.058921 -0.019757,0.1176867 -0.035156,0.1386719 -0.015399,0.020985 0.00175,0.020568 -0.033203,0.00977 0,0 -0.1145833,-0.0013 -0.171875,-0.00195 h -1.375 V 7.5273437 h 1.5273438 z m -6.796875,0.00195 0.017578,0.00391 H 4.7089844 V 7.8144531 H 2.9316406 l -0.017578,0.00586 c -0.03356,0.00891 -0.021289,0.00814 -0.037109,-0.013672 C 2.8611326,7.784825 2.84375,7.7295822 2.84375,7.671875 c 0,-0.057707 0.017383,-0.1149031 0.033203,-0.1367188 0.015821,-0.021816 0.00355,-0.020629 0.037109,-0.011719 z m 2.0605469,0.00391 H 5.2480469 V 7.8144531 H 4.9746094 Z m 0.5371093,0 H 7.3613281 V 7.8144531 H 5.5117187 Z m 2.1132813,0 H 7.8984375 V 7.8144531 H 7.625 Z M 4.9746094,8.0800781 h 0.2734375 v 1.5722657 c 1.4e-6,0.089901 -0.063946,0.1523439 -0.1367188,0.1523437 -0.072773,-3e-7 -0.1367202,-0.062443 -0.1367187,-0.1523437 z m 2.6503906,0 h 0.2734375 v 1.59375 c -1e-7,0.0899 -0.063947,0.1542973 -0.1367188,0.1542969 C 7.6889473,9.8281243 7.6250001,9.7637271 7.625,9.6738281 Z"
     id="path1168-5-1"
     sodipodi:nodetypes="sscccccssscccssscccccsssccccscccsssccccsscccccssccccssssccccssssccccssccccsssccccccccccccccccccsssccccccccccccccccccccssccccccccccccsssccccccccccccccccccccsccccsssc" />
  <g
     aria-label="2"
     transform="scale(0.99956159,1.0004386)"
     id="text1896"
     style="font-weight:bold;font-size:2.45051px;-inkscape-font-specification:'sans-serif, Bold';fill:#ececec;fill-rule:evenodd;stroke-width:2.00074" />
  <g
     aria-label="6"
     transform="scale(0.99956159,1.0004386)"
     id="text2009"
     style="font-weight:bold;font-size:2.14146px;-inkscape-font-specification:'sans-serif, Bold';fill:#ececec;fill-rule:evenodd;stroke-width:1.74836" />
  <g
     aria-label="0"
     transform="scale(0.99956159,1.0004386)"
     id="text2035"
     style="font-weight:bold;font-size:2.14032px;-inkscape-font-specification:'sans-serif, Bold';fill:#ececec;fill-rule:evenodd;stroke-width:1.74745" />
  <g
     aria-label="1
"
     transform="scale(0.99956159,1.0004386)"
     id="text2061"
     style="font-weight:bold;font-size:2.17934px;-inkscape-font-specification:'sans-serif, Bold';fill:#ececec;fill-rule:evenodd;stroke-width:1.77931">
    <path
       style="color:#000000;-inkscape-font-specification:'sans-serif, Bold';fill:url(#linearGradient3237);fill-rule:nonzero;-inkscape-stroke:none"
       d="m 6.4472656,2.6796875 c -0.1148901,0 -0.2182057,0.012857 -0.3105469,0.042969 -0.083847,0.026086 -0.1598865,0.062323 -0.2285156,0.1074218 H 5.90625 c -0.059988,0.04058 -0.1171975,0.08519 -0.171875,0.1328125 l -0.097656,0.085937 0.3691407,0.4355469 0.099609,-0.082031 c 0.064151,-0.052216 0.1236108,-0.089818 0.1757813,-0.1152344 0.047304,-0.023046 0.092126,-0.033203 0.1386719,-0.033203 0.042196,0 0.055078,0.00707 0.064453,0.015625 l 0.00195,0.00195 C 6.4918608,3.2763255 6.5,3.2844421 6.5,3.3300781 6.5,3.3683581 6.49257,3.4005211 6.476563,3.4335938 6.459198,3.4677678 6.42724,3.5146568 6.378907,3.5703125 6.326787,3.6287505 6.2573823,3.7022698 6.1699227,3.7929688 h 0.00195 L 5.6933594,4.2753906 V 4.71875 H 7.1816406 V 4.5859375 4.1425781 H 6.6035156 C 6.7067877,4.0474137 6.7967747,3.9598514 6.8710937,3.8789063 6.9518874,3.7927262 7.01596,3.7019672 7.0605469,3.6074219 v -0.00195 c 0.047872,-0.098439 0.072266,-0.2066482 0.072266,-0.3203125 0,-0.1108179 -0.029636,-0.2175229 -0.087891,-0.3085938 l -0.00195,-0.00195 C 6.9855627,2.8821293 6.9018915,2.8076613 6.8007812,2.7578125 h -0.00195 C 6.6951045,2.7042748 6.5773125,2.6796875 6.4472656,2.6796875 Z m 0,0.265625 c 0.097978,0 0.1731576,0.018011 0.2324219,0.048828 h 0.00195 c 0.06406,0.031402 0.1061878,0.07134 0.1367188,0.1210938 h 0.00195 v 0.00195 c 0.031669,0.048635 0.046875,0.1005658 0.046875,0.1679688 0,0.078449 -0.01494,0.1458174 -0.044922,0.2070312 v 0.00195 c -0.030534,0.06505 -0.078686,0.1328905 -0.1445312,0.203125 v 0.00195 c -0.068565,0.074798 -0.1530731,0.1571695 -0.2539063,0.25 l -0.00195,0.00195 -0.2675781,0.25 v 0.2070312 h 0.7636718 v 0.046875 H 5.9589844 V 4.3827995 L 6.359375,3.9785026 6.361325,3.9765526 C 6.450305,3.8842901 6.5204695,3.8085479 6.5761719,3.7460938 h 0.00195 v -0.00195 c 0.058706,-0.0676 0.1048514,-0.129624 0.1367187,-0.1933593 v -0.00195 c 0.033008,-0.068215 0.050781,-0.1426729 0.050781,-0.21875 0,-0.09486 -0.032585,-0.1940394 -0.1054688,-0.2578125 C 6.5947108,3.014341 6.5069344,2.988288 6.4199185,2.988288 c -0.087416,0 -0.1737843,0.021513 -0.2539063,0.060547 C 6.1268812,3.067899 6.0880192,3.100891 6.0488247,3.12696 L 6.0117157,3.082038 c 0.013857,-0.010114 0.026805,-0.0216 0.041016,-0.03125 l 0.00195,-0.00195 c 0.0453,-0.029482 0.099833,-0.054844 0.1621094,-0.074219 h 0.00195 C 6.2766981,2.95572 6.3530369,2.945322 6.4472567,2.945322 Z M 3.8496094,5.4863281 c -0.1511672,0 -0.2882619,0.038032 -0.3945313,0.1230469 -0.1024516,0.081962 -0.1727846,0.1989094 -0.2128906,0.3359375 -0.038969,0.133144 -0.058594,0.2862962 -0.058594,0.4609375 0,0.2608056 0.044829,0.4772569 0.1484375,0.6464844 0.1079252,0.1744791 0.300353,0.2714844 0.5175781,0.2714843 0.1523623,0 0.2909125,-0.038979 0.3964843,-0.125 C 4.3467374,7.1179014 4.4170575,7.0020913 4.4570312,6.8671875 4.497734,6.7336824 4.5175781,6.5799272 4.5175781,6.40625 4.5175783,6.142514 4.4732035,5.9244422 4.3671875,5.7558594 4.2579498,5.5821535 4.0656666,5.4863281 3.8496094,5.4863281 Z M 8.9570313,5.5117191 8.3144531,6.0214848 8.640625,6.4277348 8.8105469,6.291016 c -6.2e-6,0.00262 0,0.00724 0,0.00977 v 1.03125 h 0.59375 V 7.2011719 5.5117187 Z M 3.7988281,5.765625 c -0.047149,0.00814 -0.096791,0.012784 -0.1347656,0.042969 -0.0524,0.041651 -0.086606,0.1006534 -0.1074219,0.1621094 -0.038423,0.1134382 -0.050781,0.2538773 -0.050781,0.4355469 0,0.1816696 0.012358,0.3221087 0.050781,0.4355469 h 0.00195 v 0.00195 c 0.014025,0.040741 0.044866,0.071814 0.072266,0.1054687 -0.018316,-0.018259 -0.05661,-0.00985 -0.072266,-0.035156 C 3.490977,6.8036218 3.4492187,6.6362907 3.4492188,6.40625 c 0,-0.1563945 0.017354,-0.2858547 0.046875,-0.3867188 0.028385,-0.09698 0.068542,-0.1595212 0.1230468,-0.203125 0.039461,-0.031569 0.1075811,-0.042619 0.1796875,-0.050781 z M 9.0917969,5.777344 H 9.140625 V 7.0683594 H 9.0761719 V 6.3007812 c 0,-0.035117 5.916e-4,-0.084428 0.00195,-0.1425781 v -0.00391 c 0.00283,-0.059774 0.00441,-0.1138453 0.00586,-0.1601563 z M 4.0664062,5.859375 c 0.019585,0.018887 0.0594,0.010439 0.076172,0.037109 0.068063,0.1082315 0.1093752,0.2769477 0.109375,0.5097656 0,0.1545049 -0.016234,0.2823095 -0.046875,0.3828125 v 0.00195 c -0.028384,0.09698 -0.070495,0.1595212 -0.125,0.203125 h -0.00195 c -0.046886,0.038203 -0.1168535,0.060881 -0.2207031,0.0625 0.1240269,-0.00504 0.2408303,-0.093449 0.2832031,-0.2109375 0.041019,-0.1137334 0.054687,-0.2560599 0.054687,-0.4394531 0,-0.1820309 -0.014151,-0.3232617 -0.054687,-0.4375 -0.014812,-0.041743 -0.045953,-0.075203 -0.074219,-0.109375 z M 3.8496094,6.0117187 c 0.015542,0 0.015851,9.813e-4 0.019531,0.00391 0.00368,0.00293 0.013657,0.013452 0.023437,0.041016 0.022247,0.062695 0.039063,0.183482 0.039063,0.3496094 0,0.167619 -0.017298,0.2892636 -0.039063,0.3496094 -0.019238,0.053342 -0.011097,0.042969 -0.042969,0.042969 -0.01707,0 -0.018296,-0.00337 -0.021484,-0.00586 -0.00306,-0.00239 -0.010966,-0.011525 -0.019531,-0.035156 v -0.00195 C 3.7872609,6.6920815 3.7695313,6.5718252 3.7695313,6.40625 c 0,-0.1664888 0.017556,-0.2880677 0.039063,-0.3515625 0.00915,-0.02701 0.018236,-0.03648 0.021484,-0.039063 0.00325,-0.00258 0.00285,-0.00391 0.019531,-0.00391 z M 6.65625,8.0800781 c -0.138951,0 -0.2637395,0.018906 -0.3730469,0.060547 C 6.1796569,8.1792751 6.0886292,8.2357621 6.015625,8.310547 5.947098,8.380788 5.8924558,8.4632635 5.8535156,8.5546876 v 0.00195 c -0.035736,0.086091 -0.061825,0.1777923 -0.076172,0.2734375 -0.01384,0.092269 -0.019531,0.1863354 -0.019531,0.28125 0,0.1671814 0.025866,0.31345 0.087891,0.4375 0.059568,0.1174342 0.1459385,0.2131704 0.2539063,0.2753907 l 0.00195,0.00195 c 0.1045176,0.058459 0.2235047,0.087891 0.3476562,0.087891 0.1858809,0 0.3532053,-0.060352 0.4726563,-0.1816406 C 7.0435004,9.6107964 7.1015625,9.4406953 7.1015625,9.25 7.1015625,9.0733586 7.0532381,8.916414 6.9472656,8.8027344 6.843114,8.6910081 6.6931255,8.6328125 6.53125,8.6328125 c -0.036129,0 -0.063589,0.0199 -0.097656,0.025391 0.00666,-0.0048 0.00786,-0.01305 0.015625,-0.017578 0.040267,-0.022616 0.1162558,-0.042969 0.2285157,-0.042969 0.025399,0 0.050609,0.00238 0.076172,0.00586 h 0.00391 0.00195 c 0.026489,0.0023 0.04974,0.00682 0.068359,0.011719 l 0.1660156,0.042969 V 8.1210938 L 6.8886719,8.0996094 c -0.036588,-0.0077 -0.075662,-0.011969 -0.1191407,-0.013672 H 6.765625 C 6.7250592,8.0831157 6.689252,8.0800781 6.65625,8.0800781 Z M 6.5292969,8.3652344 c -0.0597,0.00937 -0.1236174,0.013357 -0.1738282,0.037109 0.00861,-0.00367 0.012337,-0.010278 0.021484,-0.013672 0.038496,-0.014665 0.1006371,-0.016123 0.1523442,-0.023437 z m -0.2441407,0.080078 c -0.07347,0.052858 -0.1387388,0.1166747 -0.171875,0.2011719 -0.03516,0.0879 -0.053774,0.1849842 -0.058594,0.2910156 l -0.00586,0.1386719 h 0.072266 c -0.024563,0.046206 -0.042969,0.097323 -0.042969,0.1503906 0,0.063147 0.012776,0.125864 0.035156,0.1855469 v 0.00195 c 0.024219,0.062567 0.062963,0.1180812 0.1132813,0.1621094 v 0.00195 h 0.00195 c 0.038995,0.032756 0.090894,0.039193 0.140625,0.050781 -0.047503,-0.00834 -0.098098,-0.012458 -0.1386678,-0.03515 -0.059457,-0.034835 -0.108568,-0.085463 -0.1484375,-0.1640625 -0.03791,-0.075819 -0.060547,-0.1800261 -0.060547,-0.3183594 0,-0.082113 0.00572,-0.1631397 0.017578,-0.2421875 0.011351,-0.075671 0.031514,-0.1456987 0.058594,-0.2109375 C 6.124388,8.5954422 6.1593948,8.5429194 6.2050781,8.4960938 6.2255135,8.47516 6.2590025,8.46235 6.2851562,8.4453124 Z M 6.53125,8.8984375 c 0.1065205,0 0.1697676,0.027249 0.2226562,0.083984 0.051068,0.054782 0.082031,0.1358496 0.082031,0.2675781 0,0.1405168 -0.03474,0.2300521 -0.1015625,0.296875 h -0.00195 c -0.057448,0.058332 -0.1405549,0.079999 -0.2460938,0.087891 0.075881,-0.010995 0.1548397,-0.031971 0.2070313,-0.087891 0.070327,-0.077862 0.095703,-0.1823076 0.095703,-0.2929687 0,-0.094589 -0.024476,-0.1858689 -0.082031,-0.2578125 C 6.657585,8.9342857 6.5776122,8.9180667 6.5,8.90625 6.512996,8.90498 6.515841,8.89844 6.53125,8.89844 Z M 6.449219,9.1464844 c 0.042956,0 0.045906,0.00514 0.052734,0.013672 0.010972,0.013715 0.021484,0.039865 0.021484,0.09375 0,0.070912 -0.015722,0.1021172 -0.025391,0.1132812 -1.589e-4,1.834e-4 1.555e-4,0.00178 0,0.00195 -0.015161,0.015874 -0.025206,0.019531 -0.056641,0.019531 -0.023509,0 -0.030559,-0.00325 -0.042969,-0.013672 C 6.381327,9.3595336 6.369035,9.3433156 6.359373,9.3183556 6.347491,9.2866696 6.343748,9.2576356 6.343748,9.2265586 c 0,-0.00854 4.043e-4,-0.017824 0.00977,-0.033203 0.008,-0.013146 0.017227,-0.02121 0.035156,-0.03125 l 0.00195,-0.00195 h 0.00195 c 0.013671,-0.0082 0.029573,-0.013672 0.056641,-0.013672 z"
       id="path3206" />
  </g>
</svg>
