<?xml version="1.0" encoding="UTF-8" standalone="no"?>
<!-- Generator: Gravit.io -->

<svg
   style="isolation:isolate"
   viewBox="0 0 48 48"
   width="48pt"
   height="48pt"
   version="1.1"
   id="svg11"
   sodipodi:docname="ktimer.svg"
   inkscape:version="1.1.2 (0a00cf5339, 2022-02-04)"
   xmlns:inkscape="http://www.inkscape.org/namespaces/inkscape"
   xmlns:sodipodi="http://sodipodi.sourceforge.net/DTD/sodipodi-0.dtd"
   xmlns:xlink="http://www.w3.org/1999/xlink"
   xmlns="http://www.w3.org/2000/svg"
   xmlns:svg="http://www.w3.org/2000/svg">
  <defs
     id="defs15">
    <linearGradient
       inkscape:collect="always"
       xlink:href="#_lgradient_9"
       id="linearGradient872"
       x1="-12.025727"
       y1="6.1170783"
       x2="-0.085100174"
       y2="6.1170783"
       gradientUnits="userSpaceOnUse"
       gradientTransform="matrix(3.8358211,0,0,3.8371386,-0.00562311,-0.03937722)" />
    <linearGradient
       inkscape:collect="always"
       xlink:href="#_lgradient_9"
       id="linearGradient15"
       x1="-9.6850061"
       y1="45.161198"
       x2="11.98815"
       y2="21.735205"
       gradientUnits="userSpaceOnUse"
       gradientTransform="matrix(1.1147442,0,0,1.1150348,-0.03906579,-3.3530916)" />
    <linearGradient
       inkscape:collect="always"
       xlink:href="#_lgradient_9"
       id="linearGradient1006"
       x1="11.849834"
       y1="24"
       x2="36.150166"
       y2="24"
       gradientUnits="userSpaceOnUse" />
  </defs>
  <sodipodi:namedview
     id="namedview13"
     pagecolor="#ffffff"
     bordercolor="#666666"
     borderopacity="1.0"
     inkscape:pageshadow="2"
     inkscape:pageopacity="0.0"
     inkscape:pagecheckerboard="0"
     inkscape:document-units="pt"
     showgrid="false"
     inkscape:zoom="10.21875"
     inkscape:cx="31.95107"
     inkscape:cy="32"
     inkscape:window-width="1600"
     inkscape:window-height="836"
     inkscape:window-x="0"
     inkscape:window-y="0"
     inkscape:window-maximized="1"
     inkscape:current-layer="svg11" />
  <linearGradient
     id="_lgradient_9"
     x1="0.08920072788353864"
     y1="0.904255319148936"
     x2="0.9318225455608512"
     y2="0.16534080210882984"
     gradientTransform="matrix(24.300951,0,0,29.097004,11.849834,9.4514978)"
     gradientUnits="userSpaceOnUse">
    <stop
       offset="0%"
       stop-opacity="1"
       style="stop-color:rgb(84,51,255)"
       id="stop2" />
    <stop
       offset="51.73913043478261%"
       stop-opacity="1"
       style="stop-color:rgb(32,189,255)"
       id="stop4" />
    <stop
       offset="98.26086956521739%"
       stop-opacity="1"
       style="stop-color:rgb(165,254,203)"
       id="stop6" />
  </linearGradient>
  <rect
     x="-46.783367"
     y="1.1886801"
     height="45.80014"
     rx="6.1837621"
     shape-rendering="crispEdges"
     id="rect5-6-7-3"
     ry="6.8055277"
     transform="matrix(0.00524063,-0.99998627,0.99998801,0.00489691,0,0)"
     style="isolation:isolate;fill:#00a7ff;fill-opacity:0.13470298;stroke:url(#linearGradient872);stroke-width:2.0301;stroke-miterlimit:4;stroke-dasharray:none;stroke-opacity:1"
     width="45.801998" />
  <rect
     x="-15.713497"
     y="17.234789"
     height="33.345856"
     rx="6.7920032"
     shape-rendering="crispEdges"
     id="rect5-6-6-6-6"
     style="isolation:isolate;fill:#00a7ff;fill-opacity:0.13470298;stroke:url(#linearGradient15);stroke-width:1.67233;stroke-miterlimit:4;stroke-dasharray:none;stroke-opacity:1"
     ry="7.4743071"
     transform="matrix(0.72446484,-0.68931175,0.68622417,0.72739012,0,0)"
     width="33.338203" />
  <path
     style="color:#000000;fill:url(#linearGradient1006);fill-rule:evenodd;-inkscape-stroke:none"
     d="m 21.441406,8.9511719 c -0.976516,0 -1.779297,0.8027805 -1.779297,1.7792971 0,0.976516 0.802781,1.779297 1.779297,1.779297 h 0.779297 v 1.417968 0.02149 c -6.12612,0.87868 -10.871094,6.085575 -10.871094,12.449218 0,6.976542 5.673849,12.650391 12.650391,12.650391 6.976542,0 12.650391,-5.673849 12.650391,-12.650391 0,-3.150825 -1.211309,-5.997018 -3.121094,-8.21289 l 0.90039,-1.351563 c 0.542369,-0.810554 0.322954,-1.922592 -0.488281,-2.464843 -0.810756,-0.542504 -1.922537,-0.320227 -2.464844,0.490234 l -0.640625,0.960938 c -1.500844,-0.972296 -3.208709,-1.633307 -5.05664,-1.896485 v -1.414062 h 0.779297 c 0.976516,0 1.779297,-0.802781 1.779297,-1.779297 0,-0.9765166 -0.802781,-1.7792971 -1.779297,-1.7792971 z m 0,1 h 5.117188 c 0.434996,0 0.779297,0.3443011 0.779297,0.7792971 0,0.434996 -0.344301,0.779297 -0.779297,0.779297 h -1.779297 v 2.417968 0.837891 l 0.447265,0.04687 c 2.029626,0.212521 3.902255,0.946631 5.486329,2.066406 l 0.419921,0.296875 1.173829,-1.761718 c 0.241454,-0.360847 0.717572,-0.454148 1.078125,-0.212891 0.361311,0.24151 0.456236,0.715417 0.214843,1.076172 l -0.002,0.002 -1.292969,1.941406 0.265625,0.289063 c 1.91203,2.076512 3.080079,4.843863 3.080079,7.888671 0,6.435307 -5.215084,11.650391 -11.650391,11.650391 -6.435307,0 -11.650391,-5.215084 -11.650391,-11.650391 0,-6.021239 4.569217,-10.972099 10.423828,-11.585937 l 0.447266,-0.04687 v -0.837891 -2.417968 h -1.779297 c -0.434996,0 -0.779297,-0.344301 -0.779297,-0.779297 0,-0.434996 0.344301,-0.7792971 0.779297,-0.7792971 z M 24,16.304687 c -2.677384,0 -5.242134,1.065052 -7.138672,2.955079 -1.889288,1.896449 -2.953125,4.460619 -2.953125,7.138671 0,2.677466 1.063837,5.24027 2.953125,7.136719 v 0.002 c 1.896538,1.890027 4.461288,2.953125 7.138672,2.953125 2.677384,0 5.242134,-1.063098 7.138672,-2.953125 v -0.002 c 1.889288,-1.896449 2.953125,-4.459253 2.953125,-7.136719 0,-2.678052 -1.063837,-5.242222 -2.953125,-7.138671 C 29.242134,17.369739 26.677384,16.304688 24,16.304687 Z m 0,1 c 2.412729,0 4.721392,0.957732 6.431641,2.66211 1.703878,1.710337 2.660156,4.018342 2.660156,6.43164 0,2.412096 -0.95701,4.719469 -2.660156,6.429688 -1.710249,1.704377 -4.018912,2.662109 -6.431641,2.662109 -2.412729,0 -4.721392,-0.957732 -6.431641,-2.662109 -1.703146,-1.710219 -2.660156,-4.017592 -2.660156,-6.429688 0,-2.413298 0.956278,-4.721303 2.660156,-6.43164 1.710249,-1.704378 4.018912,-2.66211 6.431641,-2.66211 z m 0.123047,2.517579 c -0.691566,0 -1.261719,0.572106 -1.261719,1.263671 V 27.25 l 4.494141,3.935547 c 0.520623,0.456569 1.328987,0.401034 1.785156,-0.119141 0.45546,-0.520515 0.401896,-1.327296 -0.119141,-1.783203 l -3.636718,-3.179687 v -5.017579 c 0,-0.691565 -0.570374,-1.263671 -1.261719,-1.263671 z m 0,1 c 0.149372,0 0.261719,0.113282 0.261719,0.263671 v 5.472657 l 3.978515,3.478515 c 0.112905,0.09879 0.122687,0.257668 0.02344,0.371094 -0.09986,0.112106 -0.258364,0.124251 -0.371094,0.02539 l -4.154297,-3.638672 v -5.708985 c 0,-0.150389 0.111329,-0.263671 0.261719,-0.263671 z"
     id="path9" />
</svg>
