<?xml version="1.0" encoding="UTF-8" standalone="no"?>
<!-- Generator: Gravit.io -->

<svg
   style="isolation:isolate"
   viewBox="0 0 48 48"
   width="48pt"
   height="48pt"
   version="1.1"
   id="svg9"
   sodipodi:docname="ktorrent.svg"
   inkscape:version="1.1.2 (0a00cf5339, 2022-02-04)"
   xmlns:inkscape="http://www.inkscape.org/namespaces/inkscape"
   xmlns:sodipodi="http://sodipodi.sourceforge.net/DTD/sodipodi-0.dtd"
   xmlns:xlink="http://www.w3.org/1999/xlink"
   xmlns="http://www.w3.org/2000/svg"
   xmlns:svg="http://www.w3.org/2000/svg">
  <defs
     id="defs13">
    <linearGradient
       inkscape:collect="always"
       xlink:href="#_lgradient_6"
       id="linearGradient872"
       x1="-12.025727"
       y1="6.1170783"
       x2="-0.085100174"
       y2="6.1170783"
       gradientUnits="userSpaceOnUse"
       gradientTransform="matrix(3.8358211,0,0,3.8371386,-0.00544341,-0.00268054)" />
    <linearGradient
       id="_lgradient_1"
       x1="0.18336116"
       y1="0.24917752"
       x2="0.9027437"
       y2="0.90347725"
       gradientTransform="matrix(24.617266,0,0,24.816118,10.841288,10.089605)"
       gradientUnits="userSpaceOnUse">
      <stop
         offset="2.608695652173913%"
         stop-opacity="1"
         style="stop-color:rgb(179,255,171)"
         id="stop2-3" />
      <stop
         offset="98.69565217391305%"
         stop-opacity="1"
         style="stop-color:rgb(18,255,247)"
         id="stop4-6" />
    </linearGradient>
    <linearGradient
       inkscape:collect="always"
       xlink:href="#_lgradient_6"
       id="linearGradient15"
       x1="-9.6850061"
       y1="45.161198"
       x2="11.98815"
       y2="21.735205"
       gradientUnits="userSpaceOnUse"
       gradientTransform="matrix(1.1147442,0,0,1.1150348,-0.01237238,-3.3277956)" />
    <linearGradient
       inkscape:collect="always"
       xlink:href="#_lgradient_6"
       id="linearGradient1223"
       x1="12.042574"
       y1="21.743507"
       x2="35.957424"
       y2="21.743507"
       gradientUnits="userSpaceOnUse" />
  </defs>
  <sodipodi:namedview
     id="namedview11"
     pagecolor="#ffffff"
     bordercolor="#666666"
     borderopacity="1.0"
     inkscape:pageshadow="2"
     inkscape:pageopacity="0.0"
     inkscape:pagecheckerboard="0"
     inkscape:document-units="pt"
     showgrid="false"
     inkscape:zoom="10.21875"
     inkscape:cx="31.95107"
     inkscape:cy="32"
     inkscape:window-width="1600"
     inkscape:window-height="836"
     inkscape:window-x="0"
     inkscape:window-y="0"
     inkscape:window-maximized="1"
     inkscape:current-layer="svg9" />
  <linearGradient
     id="_lgradient_6"
     x1="0.39488636363636365"
     y1="0.9857954545454546"
     x2="0.45245544653584285"
     y2="0.03302713255907064"
     gradientTransform="matrix(23.914854,0,0,24.458372,12.042574,9.5143205)"
     gradientUnits="userSpaceOnUse">
    <stop
       offset="0%"
       stop-opacity="1"
       style="stop-color:rgb(0,198,255)"
       id="stop2" />
    <stop
       offset="98.69565217391305%"
       stop-opacity="1"
       style="stop-color:rgb(0,114,255)"
       id="stop4" />
  </linearGradient>
  <rect
     x="-46.783188"
     y="1.2253767"
     height="45.80014"
     rx="6.1837621"
     shape-rendering="crispEdges"
     id="rect5-6-7-3"
     ry="6.8055277"
     transform="matrix(0.00524063,-0.99998627,0.99998801,0.00489691,0,0)"
     style="isolation:isolate;fill:#0088ff;fill-opacity:0.13470298;stroke:url(#linearGradient872);stroke-width:2.0301;stroke-miterlimit:4;stroke-dasharray:none;stroke-opacity:1"
     width="45.801998" />
  <rect
     x="-15.686804"
     y="17.260084"
     height="33.345856"
     rx="6.7920032"
     shape-rendering="crispEdges"
     id="rect5-6-6-6-6"
     style="isolation:isolate;fill:#0088ff;fill-opacity:0.13470298;stroke:url(#linearGradient15);stroke-width:1.67233;stroke-miterlimit:4;stroke-dasharray:none;stroke-opacity:1"
     ry="7.4743071"
     transform="matrix(0.72446484,-0.68931175,0.68622417,0.72739012,0,0)"
     width="33.338203" />
  <path
     style="color:#000000;fill:url(#linearGradient1223);fill-rule:evenodd;-inkscape-stroke:none"
     d="m 21.826172,9.0136719 c -0.870576,0 -1.587891,0.717314 -1.587891,1.5878911 v 10.078124 l -2.74414,-1.828125 c -1.471526,-0.980803 -3.402391,-0.454787 -4.171875,1.136719 l -0.373047,0.771485 c -0.769226,1.590969 -0.230559,3.611465 1.228515,4.609375 l 7.746094,5.298828 c 1.198431,0.819563 2.953913,0.819563 4.152344,0 l 7.746094,-5.298828 c 1.459074,-0.99791 1.99774,-3.018406 1.228515,-4.609375 L 34.677734,19.988281 C 33.90825,18.396775 31.977385,17.870759 30.505859,18.851562 l -2.74414,1.828125 v -3.55664 c 0,-0.870576 -0.717314,-1.585938 -1.587891,-1.585938 -0.870576,0 -1.585937,0.715362 -1.585937,1.585938 v 7.46875 c 0,0.412643 0.156168,0.833633 0.529296,1.033203 0.373129,0.19957 0.809186,0.09438 1.152344,-0.134766 v 0.002 l 5.451172,-3.636718 h 0.002 c 0.150616,-0.100575 0.242311,-0.09562 0.285156,-0.08203 0.04285,0.01359 0.08297,0.0292 0.119141,0.164063 0.0725,0.270318 -0.136509,0.838517 -0.435547,1.044922 l -7.078125,4.84375 c -0.286069,0.196162 -0.940493,0.196162 -1.226562,0 l -7.078125,-4.84375 c -0.299038,-0.206405 -0.508052,-0.774604 -0.435547,-1.044922 0.03617,-0.134863 0.0763,-0.150471 0.119141,-0.164063 0.04284,-0.01359 0.13454,-0.01854 0.285156,0.08203 h 0.002 l 5.451172,3.636718 v -0.002 c 0.343158,0.229146 0.779216,0.334335 1.152343,0.134766 0.373128,-0.199569 0.529297,-0.62056 0.529297,-1.033203 V 10.601563 c 0,-0.8705771 -0.715362,-1.5878911 -1.585937,-1.5878911 z m 0,1.0000001 c 0.329513,0 0.585937,0.258374 0.585937,0.587891 v 13.990234 c 0,0.187401 -0.04566,0.174811 0,0.15039 0.04566,-0.02442 0.03079,0.022 -0.125,-0.08203 h -0.002 l -5.451172,-3.636719 c -0.348334,-0.232602 -0.76547,-0.323374 -1.144531,-0.203125 -0.37906,0.12025 -0.673391,0.457242 -0.78125,0.859375 -0.215446,0.803245 0.146539,1.656177 0.835938,2.128907 l 7.076171,4.841797 c 0.703136,0.482149 1.65624,0.482149 2.359375,0 l 7.076172,-4.841797 c 0.689399,-0.47273 1.051384,-1.325662 0.835938,-2.128907 -0.107859,-0.402133 -0.40219,-0.739125 -0.78125,-0.859375 -0.379061,-0.120249 -0.796197,-0.02948 -1.144531,0.203125 l -5.451172,3.636719 h -0.002 c -0.155792,0.104031 -0.170659,0.05761 -0.125,0.08203 0.04566,0.02442 0,0.03701 0,-0.15039 v -7.46875 c 0,-0.329513 0.256424,-0.585938 0.585937,-0.585938 0.329514,0 0.587891,0.256425 0.587891,0.585938 v 5.423828 l 4.298828,-2.863281 c 1.0254,-0.683452 2.180748,-0.368463 2.716797,0.740234 l 0.373047,0.771484 c 0.535018,1.109104 0.124079,2.654284 -0.892579,3.34961 l -7.746093,5.298828 c -0.782151,0.534885 -2.241287,0.534885 -3.023438,0 l -7.746093,-5.298828 c -1.016658,-0.695326 -1.427597,-2.240506 -0.892579,-3.34961 v -0.002 l 0.373047,-0.769531 c 0.536049,-1.108697 1.691397,-1.423686 2.716797,-0.740234 l 4.298828,2.863281 V 10.601563 c 0,-0.329517 0.258376,-0.587891 0.587891,-0.587891 z m 4.347656,0.630859 c -0.870576,0 -1.585937,0.717315 -1.585937,1.587891 0,0.870575 0.715361,1.585937 1.585937,1.585937 0.870577,0 1.587891,-0.715362 1.587891,-1.585937 0,-0.870576 -0.717314,-1.587891 -1.587891,-1.587891 z m 0,1 c 0.329514,0 0.587891,0.258376 0.587891,0.587891 0,0.329513 -0.258377,0.585937 -0.587891,0.585937 -0.329513,0 -0.585937,-0.256424 -0.585937,-0.585937 0,-0.329515 0.256424,-0.587891 0.585937,-0.587891 z M 13.128906,31.298828 c -0.870576,0 -1.585937,0.715362 -1.585937,1.585938 0,0.870575 0.715361,1.58789 1.585937,1.58789 h 21.742188 c 0.870576,0 1.585937,-0.717315 1.585937,-1.58789 0,-0.870576 -0.715361,-1.585938 -1.585937,-1.585938 z m 0,1 h 21.742188 c 0.329512,0 0.585937,0.256424 0.585937,0.585938 0,0.329513 -0.256425,0.58789 -0.585937,0.58789 H 13.128906 c -0.329512,0 -0.585937,-0.258377 -0.585937,-0.58789 0,-0.329514 0.256425,-0.585938 0.585937,-0.585938 z"
     id="path7" />
</svg>
