<?xml version="1.0" encoding="UTF-8" standalone="no"?>
<!-- Generator: Gravit.io -->

<svg
   style="isolation:isolate"
   viewBox="0 0 48 48"
   width="48pt"
   height="48pt"
   version="1.1"
   id="svg21"
   sodipodi:docname="latte-dock.svg"
   inkscape:version="1.1.2 (0a00cf5339, 2022-02-04)"
   xmlns:inkscape="http://www.inkscape.org/namespaces/inkscape"
   xmlns:sodipodi="http://sodipodi.sourceforge.net/DTD/sodipodi-0.dtd"
   xmlns:xlink="http://www.w3.org/1999/xlink"
   xmlns="http://www.w3.org/2000/svg"
   xmlns:svg="http://www.w3.org/2000/svg">
  <defs
     id="defs25">
    <linearGradient
       inkscape:collect="always"
       xlink:href="#_lgradient_20"
       id="linearGradient872"
       x1="-12.025727"
       y1="6.1170783"
       x2="-0.085100174"
       y2="6.1170783"
       gradientUnits="userSpaceOnUse"
       gradientTransform="matrix(3.8358211,0,0,3.8371386,-0.00544341,-0.00268054)" />
    <linearGradient
       id="_lgradient_1"
       x1="0.18336116"
       y1="0.24917752"
       x2="0.9027437"
       y2="0.90347725"
       gradientTransform="matrix(24.617266,0,0,24.816118,10.841288,10.089605)"
       gradientUnits="userSpaceOnUse">
      <stop
         offset="2.608695652173913%"
         stop-opacity="1"
         style="stop-color:rgb(179,255,171)"
         id="stop2-3" />
      <stop
         offset="98.69565217391305%"
         stop-opacity="1"
         style="stop-color:rgb(18,255,247)"
         id="stop4-6" />
    </linearGradient>
    <linearGradient
       inkscape:collect="always"
       xlink:href="#_lgradient_20"
       id="linearGradient15"
       x1="-9.6850061"
       y1="45.161198"
       x2="11.98815"
       y2="21.735205"
       gradientUnits="userSpaceOnUse"
       gradientTransform="matrix(1.1147442,0,0,1.1150348,-0.01237238,-3.3277956)" />
  </defs>
  <sodipodi:namedview
     id="namedview23"
     pagecolor="#ffffff"
     bordercolor="#666666"
     borderopacity="1.0"
     inkscape:pageshadow="2"
     inkscape:pageopacity="0.0"
     inkscape:pagecheckerboard="0"
     inkscape:document-units="pt"
     showgrid="false"
     inkscape:zoom="10.21875"
     inkscape:cx="31.95107"
     inkscape:cy="32"
     inkscape:window-width="1600"
     inkscape:window-height="836"
     inkscape:window-x="0"
     inkscape:window-y="0"
     inkscape:window-maximized="1"
     inkscape:current-layer="svg21" />
  <linearGradient
     id="_lgradient_19"
     x1="0"
     y1="0.5"
     x2="1"
     y2="0.5"
     gradientTransform="matrix(20.997181,0,0,27.122142,13.50141,12.37343)"
     gradientUnits="userSpaceOnUse">
    <stop
       offset="0%"
       stop-opacity="1"
       style="stop-color:rgb(255,224,49)"
       id="stop2" />
    <stop
       offset="98.69565217391305%"
       stop-opacity="1"
       style="stop-color:rgb(252,82,82)"
       id="stop4" />
  </linearGradient>
  <linearGradient
     id="_lgradient_20"
     x1="13.515439"
     y1="21.287655"
     x2="40.600432"
     y2="21.287655"
     gradientTransform="matrix(0.83426795,0,0,1.0604065,1.4264317,3.3609326)"
     gradientUnits="userSpaceOnUse">
    <stop
       offset="0%"
       stop-opacity="1"
       style="stop-color:rgb(255,224,49)"
       id="stop7" />
    <stop
       offset="98.69565217391305%"
       stop-opacity="1"
       style="stop-color:rgb(252,82,82)"
       id="stop9" />
  </linearGradient>
  <rect
     x="-46.783188"
     y="1.2253767"
     height="45.80014"
     rx="6.1837621"
     shape-rendering="crispEdges"
     id="rect5-6-7-3"
     ry="6.8055277"
     transform="matrix(0.00524063,-0.99998627,0.99998801,0.00489691,0,0)"
     style="isolation:isolate;fill:#ff6700;fill-opacity:0.13470298;stroke:url(#linearGradient872);stroke-width:2.0301;stroke-miterlimit:4;stroke-dasharray:none;stroke-opacity:1"
     width="45.801998" />
  <rect
     x="-15.686804"
     y="17.260084"
     height="33.345856"
     rx="6.7920032"
     shape-rendering="crispEdges"
     id="rect5-6-6-6-6"
     style="isolation:isolate;fill:#ff6700;fill-opacity:0.13470298;stroke:url(#linearGradient15);stroke-width:1.67233;stroke-miterlimit:4;stroke-dasharray:none;stroke-opacity:1"
     ry="7.4743071"
     transform="matrix(0.72446484,-0.68931175,0.68622417,0.72739012,0,0)"
     width="33.338203" />
  <path
     style="color:#000000;vector-effect:non-scaling-stroke;fill:url(#_lgradient_20);-inkscape-stroke:none"
     d="m 32.470703,11.873047 c -1.066328,0 -2.098248,0.287337 -3.066406,0.84375 -0.944438,0.533631 -1.821454,1.302721 -2.634766,2.294922 -0.797091,0.97673 -1.511882,2.167258 -2.152344,3.570312 -0.640706,1.383668 -1.187917,2.941793 -1.644531,4.675781 v 0.002 c -0.310057,1.202054 -0.61926,2.210345 -0.923828,3.023437 -0.245284,0.654091 -0.495934,1.145759 -0.746094,1.611328 -0.542735,-0.262817 -1.095761,-0.605097 -1.769531,-0.777344 -0.728212,-0.210785 -1.477813,-0.316406 -2.244141,-0.316406 -0.620527,0 -1.201753,0.09886 -1.734374,0.302735 h -0.002 l -0.0039,0.002 c -0.487972,0.193559 -0.921638,0.433112 -1.296875,0.724609 v 0.002 c -0.367757,0.286497 -0.672958,0.60309 -0.904297,0.955078 l -0.0059,0.0098 -0.0059,0.01172 c -0.272833,0.462503 -0.333985,0.977015 -0.333985,1.349609 0,0.574517 0.30882,1.105854 0.796875,1.453125 0.520005,0.370003 1.210421,0.509766 2.052735,0.509766 2.039505,0 3.796893,-0.559304 5.269531,-1.595703 0.840895,0.367294 1.694511,0.723371 2.568359,1.05664 l 0.0059,0.002 0.0078,0.002 c 1.018513,0.358477 2.132065,0.535157 3.335937,0.535157 1.382817,0 2.54283,-0.294682 3.433594,-0.927735 l 0.002,-0.002 0.0039,-0.002 c 0.873916,-0.64311 1.382547,-1.48713 1.865234,-2.591797 l 0.02539,-0.05859 0.0098,-0.06055 c 0.0189,-0.115225 0.02493,-0.249739 -0.0293,-0.400391 -0.04481,-0.12448 -0.159037,-0.226743 -0.271484,-0.304688 -0.101401,-0.07893 -0.226263,-0.160156 -0.375,-0.160156 -0.179701,0 -0.320082,0.07446 -0.416016,0.148438 l -0.0918,0.07031 -0.05078,0.105469 c -0.327191,0.66455 -0.510293,0.981948 -0.927734,1.275391 -0.385411,0.270713 -1.02607,0.445312 -1.94336,0.445312 -1.138202,0 -2.17235,-0.125108 -3.103515,-0.371094 -0.742501,-0.215749 -1.441061,-0.465292 -2.134766,-0.716797 1.081778,-1.481013 1.958179,-3.3597 2.580078,-5.777343 l 0.002,-0.002 v -0.002 c 0.408449,-1.660898 0.805199,-3.040865 1.189454,-4.132812 0.381524,-1.085877 0.789613,-1.935232 1.203125,-2.539063 l 0.002,-0.002 0.002,-0.002 c 0.405634,-0.608875 0.809132,-0.917336 1.273437,-1.144531 l 0.002,-0.002 0.0039,-0.002 c 0.466758,-0.236982 1.028898,-0.361328 1.710937,-0.361328 0.487744,0 0.846774,0.08923 1.103516,0.234375 l 0.01563,0.0078 0.01563,0.0078 c 0.3022,0.144995 0.488643,0.315956 0.609375,0.519531 0.155891,0.264456 0.20798,0.388384 0.222656,0.667969 v 0.002 c 0.01536,0.27876 -0.05188,1.029267 -0.121094,1.240234 l -0.0098,0.0293 -0.0059,0.0293 c -0.02269,0.11561 -0.02824,0.264009 0.03516,0.416015 0.06339,0.152007 0.198503,0.275004 0.320312,0.335938 l 0.01563,0.0078 0.01563,0.0078 c 0.223931,0.09258 0.557249,0.0585 0.757813,-0.09375 l 0.08008,-0.06055 0.05078,-0.08789 c 0.146582,-0.253699 0.234451,-0.541199 0.330078,-0.851562 0.09563,-0.310363 0.186685,-0.632484 0.267578,-0.869141 l 0.002,-0.0039 v -0.002 c 0.187222,-0.57168 0.289063,-1.088614 0.289063,-1.560547 0,-0.714625 -0.232476,-1.368707 -0.683594,-1.876953 -0.458333,-0.536517 -1.11956,-0.830078 -1.84375,-0.830078 z m 0,1 c 0.487895,0 0.803394,0.144836 1.087891,0.480469 l 0.0039,0.0039 0.0039,0.0059 c 0.291044,0.326323 0.431641,0.70149 0.431641,1.216797 0,0.243741 -0.0885,0.592125 -0.179688,0.939453 -0.06467,-0.221616 -0.09532,-0.463561 -0.208984,-0.65625 h -0.002 c -0.229885,-0.387624 -0.588566,-0.688323 -1.023438,-0.90039 -0.446007,-0.248366 -0.977114,-0.359375 -1.580078,-0.359375 -0.559312,0 -1.024424,0.174757 -1.501953,0.326172 0.135637,-0.09009 0.259103,-0.268143 0.396484,-0.345704 h 0.002 l 0.002,-0.002 c 0.832082,-0.478208 1.678313,-0.708984 2.568359,-0.708984 z m 1.339844,4.630859 c -6.66e-4,0.0063 0.0045,0.02837 0.0039,0.03125 l -0.01367,0.05859 c 0.0093,-0.02831 0.0013,-0.06061 0.0098,-0.08984 z m -8.009766,1.035156 c -0.379767,1.104261 -0.762112,2.411474 -1.154297,4.00586 -0.489668,1.903595 -1.155205,3.359668 -1.90039,4.603515 0.0774,-0.187507 0.162362,-0.311221 0.238281,-0.513671 0.32185,-0.85923 0.640673,-1.898518 0.957031,-3.125 C 24.38554,21.823696 24.913891,20.320324 25.525391,19 v -0.002 c 0.08375,-0.183476 0.189313,-0.283894 0.27539,-0.458985 z m -8.511719,9.261719 c 0.67878,0 1.334491,0.09314 1.97461,0.279297 l 0.0078,0.002 0.0098,0.002 c 0.571159,0.144887 1.282876,0.620227 2.087891,0.929688 l 0.0918,0.03516 -0.01172,0.01367 0.654297,0.25 c 0.894727,0.342804 1.826577,0.65731 2.798828,0.939453 l 0.0059,0.002 h 0.0059 c 1.027092,0.271326 2.148048,0.404297 3.359375,0.404297 0.709596,0 1.197464,-0.232212 1.720704,-0.427734 -0.04485,0.03631 -0.05791,0.115341 -0.105469,0.15039 -0.675986,0.479248 -1.610049,0.740235 -2.84961,0.740235 -1.10475,0 -2.100651,-0.162462 -3,-0.478516 h -0.0039 c -0.875719,-0.334199 -1.73231,-0.689713 -2.574219,-1.058594 L 20.78125,29.285156 c -0.647187,-0.284931 -1.38919,-0.841234 -2.251953,-1.117187 -0.565487,-0.181585 -1.183938,-0.219486 -1.796875,-0.271485 0.189642,-0.02595 0.348166,-0.0957 0.55664,-0.0957 z m -1.291015,0.984375 c 0.794877,0 1.533253,0.111982 2.224609,0.333985 h 0.002 c 0.384605,0.123015 0.868931,0.410162 1.324219,0.664062 -0.209108,0.119911 -0.395237,0.303247 -0.626953,0.369141 -0.497953,0.124847 -1.080419,0.193359 -1.75,0.193359 -0.746006,0 -1.285594,-0.126815 -1.625,-0.320312 -0.204758,-0.126354 -0.400391,-0.598093 -0.400391,-0.814454 0,-0.186554 0.02196,-0.214838 0.119141,-0.28125 0.09718,-0.06641 0.339311,-0.144531 0.732422,-0.144531 z m -1.814453,0.59375 c 0.0407,0.542404 0.25664,1.150599 0.851562,1.507813 l 0.0039,0.002 0.0039,0.002 c 0.256179,0.147076 0.653065,0.133795 0.970703,0.207031 -0.05863,9.17e-4 -0.102847,0.02344 -0.162109,0.02344 -0.724667,0 -1.210112,-0.137409 -1.472657,-0.324219 -0.294494,-0.209545 -0.376953,-0.377968 -0.376953,-0.638672 0,-0.134004 0.104241,-0.600706 0.181641,-0.779297 z M 18.75,33.746094 c -1.237004,0 -2.248047,1.013998 -2.248047,2.25 0,1.236679 1.011368,2.25 2.248047,2.25 1.236001,0 2.25,-1.012997 2.25,-2.25 0,-1.236327 -1.013674,-2.25 -2.25,-2.25 z m 10.5,0 c -1.236326,0 -2.25,1.013673 -2.25,2.25 0,1.237003 1.013999,2.25 2.25,2.25 1.236679,0 2.248047,-1.013321 2.248047,-2.25 0,-1.236002 -1.011043,-2.25 -2.248047,-2.25 z m -10.5,1 c 0.695592,0 1.25,0.554406 1.25,1.25 0,0.696796 -0.554083,1.25 -1.25,1.25 -0.697121,0 -1.248047,-0.55288 -1.248047,-1.25 0,-0.695918 0.551251,-1.25 1.248047,-1.25 z m 10.5,0 c 0.696796,0 1.248047,0.554082 1.248047,1.25 0,0.69712 -0.550926,1.25 -1.248047,1.25 -0.695917,0 -1.25,-0.553204 -1.25,-1.25 0,-0.695594 0.554408,-1.25 1.25,-1.25 z m -5.25,0.75 c -1.236326,0 -2.25,1.013673 -2.25,2.25 0,1.237003 1.013674,2.25 2.25,2.25 1.236326,0 2.25,-1.012997 2.25,-2.25 0,-1.236327 -1.013674,-2.25 -2.25,-2.25 z m 0,1 c 0.695594,0 1.25,0.554406 1.25,1.25 0,0.696796 -0.554406,1.25 -1.25,1.25 -0.695594,0 -1.25,-0.553204 -1.25,-1.25 0,-0.695594 0.554406,-1.25 1.25,-1.25 z"
     id="path12" />
  <linearGradient
     id="_lgradient_21"
     x1="0"
     y1="0.5"
     x2="1"
     y2="0.5"
     gradientTransform="matrix(47,0,0,47,0.5,0.5)"
     gradientUnits="userSpaceOnUse">
    <stop
       offset="0%"
       stop-opacity="1"
       style="stop-color:rgb(255,224,49)"
       id="stop14" />
    <stop
       offset="98.69565217391305%"
       stop-opacity="1"
       style="stop-color:rgb(252,82,82)"
       id="stop16" />
  </linearGradient>
</svg>
