<?xml version="1.0" encoding="UTF-8" standalone="no"?>
<!-- Generator: Gravit.io -->

<svg
   style="isolation:isolate"
   viewBox="0 0 48 48"
   width="48pt"
   height="48pt"
   version="1.1"
   id="svg16"
   sodipodi:docname="league-of-legends.svg"
   inkscape:version="1.1.2 (0a00cf5339, 2022-02-04)"
   xmlns:inkscape="http://www.inkscape.org/namespaces/inkscape"
   xmlns:sodipodi="http://sodipodi.sourceforge.net/DTD/sodipodi-0.dtd"
   xmlns:xlink="http://www.w3.org/1999/xlink"
   xmlns="http://www.w3.org/2000/svg"
   xmlns:svg="http://www.w3.org/2000/svg">
  <defs
     id="defs20">
    <linearGradient
       inkscape:collect="always"
       xlink:href="#_lgradient_33"
       id="linearGradient872"
       x1="-12.025727"
       y1="6.1170783"
       x2="-0.085100174"
       y2="6.1170783"
       gradientUnits="userSpaceOnUse"
       gradientTransform="matrix(3.8358211,0,0,3.8371386,-0.00544341,-0.00268054)" />
    <linearGradient
       id="_lgradient_1"
       x1="0.18336116"
       y1="0.24917752"
       x2="0.9027437"
       y2="0.90347725"
       gradientTransform="matrix(24.617266,0,0,24.816118,10.841288,10.089605)"
       gradientUnits="userSpaceOnUse">
      <stop
         offset="2.608695652173913%"
         stop-opacity="1"
         style="stop-color:rgb(179,255,171)"
         id="stop2-3" />
      <stop
         offset="98.69565217391305%"
         stop-opacity="1"
         style="stop-color:rgb(18,255,247)"
         id="stop4-6" />
    </linearGradient>
    <linearGradient
       inkscape:collect="always"
       xlink:href="#_lgradient_33"
       id="linearGradient15"
       x1="-9.6850061"
       y1="45.161198"
       x2="11.98815"
       y2="21.735205"
       gradientUnits="userSpaceOnUse"
       gradientTransform="matrix(1.1147442,0,0,1.1150348,-0.01237238,-3.3277956)" />
    <linearGradient
       inkscape:collect="always"
       xlink:href="#_lgradient_33"
       id="linearGradient1034"
       x1="17.867188"
       y1="28.901367"
       x2="44.173828"
       y2="28.901367"
       gradientUnits="userSpaceOnUse" />
    <linearGradient
       inkscape:collect="always"
       xlink:href="#_lgradient_34"
       id="linearGradient1060"
       x1="14.715991"
       y1="23.080818"
       x2="36.199402"
       y2="23.080818"
       gradientUnits="userSpaceOnUse" />
  </defs>
  <sodipodi:namedview
     id="namedview18"
     pagecolor="#ffffff"
     bordercolor="#666666"
     borderopacity="1.0"
     inkscape:pageshadow="2"
     inkscape:pageopacity="0.0"
     inkscape:pagecheckerboard="0"
     inkscape:document-units="pt"
     showgrid="false"
     inkscape:zoom="10.21875"
     inkscape:cx="31.95107"
     inkscape:cy="32"
     inkscape:window-width="1600"
     inkscape:window-height="836"
     inkscape:window-x="0"
     inkscape:window-y="0"
     inkscape:window-maximized="1"
     inkscape:current-layer="svg16" />
  <linearGradient
     id="_lgradient_33"
     x1="0"
     y1="0.5"
     x2="1"
     y2="0.5"
     gradientTransform="matrix(19.729487,0,0,17.520881,13.400771,13.265397)"
     gradientUnits="userSpaceOnUse">
    <stop
       offset="0%"
       stop-opacity="1"
       style="stop-color:rgb(24,208,173)"
       id="stop2" />
    <stop
       offset="90.44964029999998%"
       stop-opacity="1"
       style="stop-color:rgb(7,195,242)"
       id="stop4" />
  </linearGradient>
  <rect
     x="-46.783188"
     y="1.2253767"
     height="45.80014"
     rx="6.1837621"
     shape-rendering="crispEdges"
     id="rect5-6-7-3"
     ry="6.8055277"
     transform="matrix(0.00524063,-0.99998627,0.99998801,0.00489691,0,0)"
     style="isolation:isolate;fill:#00beff;fill-opacity:0.13470298;stroke:url(#linearGradient872);stroke-width:2.0301;stroke-miterlimit:4;stroke-dasharray:none;stroke-opacity:1"
     width="45.801998" />
  <rect
     x="-15.686804"
     y="17.260084"
     height="33.345856"
     rx="6.7920032"
     shape-rendering="crispEdges"
     id="rect5-6-6-6-6"
     style="isolation:isolate;fill:#00beff;fill-opacity:0.13470298;stroke:url(#linearGradient15);stroke-width:1.67233;stroke-miterlimit:4;stroke-dasharray:none;stroke-opacity:1"
     ry="7.4743071"
     transform="matrix(0.72446484,-0.68931175,0.68622417,0.72739012,0,0)"
     width="33.338203" />
  <path
     id="path7"
     style="fill:none;stroke-width:1.33333333;stroke:url(#linearGradient1034);stroke-miterlimit:4;stroke-dasharray:none"
     d="M 34.351562 18.048828 C 34.351555 18.057336 34.353576 18.065707 34.353516 18.074219 L 34.353516 20.333984 C 36.388897 20.985577 38.202185 22.218819 39.554688 23.898438 C 41.125739 25.842158 41.982422 28.276323 41.982422 30.775391 C 41.982422 32.236835 41.689608 33.682816 41.126953 35.027344 L 40.761719 35.888672 L 43.140625 35.888672 L 43.142578 35.882812 C 43.822149 34.267917 44.173828 32.529123 44.173828 30.775391 C 44.173828 27.772124 43.150888 24.855887 41.265625 22.517578 C 39.496504 20.323319 37.071056 18.758484 34.351562 18.048828 z M 21.419922 21.796875 C 19.142046 24.22653 17.867188 27.437701 17.867188 30.775391 C 17.867188 34.119326 19.146242 37.328157 21.417969 39.753906 L 21.697266 39.396484 L 21.697266 38.396484 L 21.697266 36.533203 C 20.636176 34.817771 20.060547 32.828264 20.060547 30.775391 C 20.060547 28.728941 20.638581 26.738894 21.697266 25.021484 L 21.697266 22.152344 L 21.419922 21.796875 z "
     transform="scale(0.75)" />
  <linearGradient
     id="_lgradient_34"
     x1="0"
     y1="0.5"
     x2="1"
     y2="0.5"
     gradientTransform="matrix(21.483219,0,0,25.2099,14.71607,10.475866)"
     gradientUnits="userSpaceOnUse">
    <stop
       offset="0%"
       stop-opacity="1"
       style="stop-color:rgb(247,242,6)"
       id="stop9" />
    <stop
       offset="97.82608695652173%"
       stop-opacity="1"
       style="stop-color:rgb(255,187,36)"
       id="stop11" />
  </linearGradient>
  <path
     style="color:#000000;fill:url(#linearGradient1060);fill-rule:evenodd;-inkscape-stroke:none"
     d="m 17.703125,9.9765625 c -0.9957,0 -1.937521,0.4358765 -2.589844,1.1777345 l -0.002,0.002 c -0.576666,0.665383 -0.900456,1.520511 -0.894531,2.40625 4.65e-4,0.883393 0.32401,1.730168 0.902344,2.384766 l 0.654297,0.83789 V 28.796875 29.375 l -0.654297,0.839844 c -0.578334,0.654597 -0.901879,1.49942 -0.902344,2.382812 -0.0064,0.886398 0.31745,1.740388 0.894531,2.40625 v 0.002 l 0.002,0.002 c 0.652323,0.741858 1.594144,1.177735 2.589844,1.177735 h 5.365234 8.494141 0.01953 0.0039 c 1.125765,-0.01279 2.172783,-0.575622 2.8125,-1.5 0.0324,-0.04481 0.05369,-0.08094 0.06836,-0.105469 l 0.002,-0.002 1.605469,-2.648438 c 0.402863,-0.588308 0.61862,-1.28796 0.625,-2 C 36.705621,29.02702 36.360892,28.156975 35.742187,27.5 h -0.002 l -0.002,-0.002 c -0.659103,-0.6911 -1.573633,-1.080078 -2.53125,-1.080078 h -6.943359 v -12.859375 -0.002 c 0.0059,-0.897311 -0.322985,-1.770217 -0.919922,-2.44336 -0.641637,-0.718632 -1.557377,-1.1302812 -2.519531,-1.1367185 h -0.002 -0.01172 z m 0,1.0000005 h 5.107422 0.0078 c 0.681968,0.0046 1.324851,0.293755 1.779297,0.802734 0.431876,0.487984 0.670602,1.126795 0.666016,1.773437 v 0.002 13.863281 h 7.943359 c 0.686506,0 1.338734,0.276862 1.808594,0.769531 0.443354,0.471754 0.688147,1.092441 0.683594,1.734375 -0.0046,0.515571 -0.161551,1.02132 -0.449219,1.441406 l -0.0078,0.01172 -1.630859,2.6875 v 0.002 c -0.01644,0.0274 -0.02898,0.0432 -0.02148,0.0332 l -0.0059,0.0078 -0.0039,0.0078 c -0.456668,0.662168 -1.204412,1.063158 -2.005859,1.072266 H 31.5625 23.068359 17.703125 c -0.702326,0 -1.370332,-0.307584 -1.835937,-0.835938 l -0.002,-0.002 c -0.419287,-0.484742 -0.653015,-1.107845 -0.648437,-1.74414 v -0.002 -0.002 c 0,-0.639475 0.233659,-1.24876 0.652344,-1.722656 l 0.0098,-0.01172 0.894531,-1.146484 V 28.796875 16.441406 l -0.894531,-1.144531 -0.0098,-0.01172 C 15.450456,14.81126 15.216797,14.200022 15.216797,13.560547 v -0.002 c -0.0046,-0.637138 0.230033,-1.261067 0.650391,-1.746094 0.465605,-0.528354 1.133611,-0.835937 1.835937,-0.835937 z m 0,0.642578 c -1.624162,7.45e-4 -2.432193,2.089395 -1.3125,3.283203 l -0.0293,-0.03516 1.052734,1.351562 v 12.580078 1.142578 l -1.052734,1.353516 0.0293,-0.03516 c -1.119693,1.193807 -0.311662,3.280505 1.3125,3.28125 h 5.367187 8.492188 c 0.589854,0 1.140597,-0.297104 1.482422,-0.783204 l 0.0098,-0.01367 1.658204,-2.732422 -0.01953,0.0293 c 0.434095,-0.617212 0.45629,-1.373213 0.166016,-1.958985 -0.290274,-0.585772 -0.907651,-1.021117 -1.648438,-1.021484 H 24.619141 V 13.550781 c 0,-1.028681 -0.777722,-1.93164 -1.806641,-1.93164 z m 0,1 H 22.8125 c 0.452983,0 0.806641,0.380867 0.806641,0.93164 v 15.509766 h 9.591796 c 0.364064,1.8e-4 0.615988,0.190466 0.751954,0.464844 0.135965,0.274378 0.142548,0.614583 -0.08594,0.939453 l -0.0098,0.01367 -1.640625,2.703125 c -0.164566,0.234025 -0.408839,0.359375 -0.664062,0.359375 h -8.492188 -5.365234 -0.002 c -0.764062,-0.002 -1.152889,-0.991095 -0.583984,-1.597657 l 0.01563,-0.01758 1.279296,-1.640625 V 28.798828 15.876953 l -1.279296,-1.642578 -0.01563,-0.01563 c -0.568906,-0.606563 -0.180081,-1.597656 0.583984,-1.599609 z"
     id="path14" />
</svg>
