<?xml version="1.0" encoding="UTF-8" standalone="no"?>
<!-- Generator: Gravit.io -->

<svg
   style="isolation:isolate"
   viewBox="0 0 48 48"
   width="48pt"
   height="48pt"
   version="1.1"
   id="svg36"
   sodipodi:docname="libreoffice-calc.svg"
   inkscape:version="1.1.2 (0a00cf5339, 2022-02-04)"
   xmlns:inkscape="http://www.inkscape.org/namespaces/inkscape"
   xmlns:sodipodi="http://sodipodi.sourceforge.net/DTD/sodipodi-0.dtd"
   xmlns:xlink="http://www.w3.org/1999/xlink"
   xmlns="http://www.w3.org/2000/svg"
   xmlns:svg="http://www.w3.org/2000/svg">
  <defs
     id="defs40">
    <linearGradient
       inkscape:collect="always"
       xlink:href="#_lgradient_12"
       id="linearGradient872"
       x1="-12.025727"
       y1="6.1170783"
       x2="-0.085100174"
       y2="6.1170783"
       gradientUnits="userSpaceOnUse"
       gradientTransform="matrix(3.8358211,0,0,3.8371386,-0.00544341,-0.00268054)" />
    <linearGradient
       id="_lgradient_1"
       x1="0.18336116"
       y1="0.24917752"
       x2="0.9027437"
       y2="0.90347725"
       gradientTransform="matrix(24.617266,0,0,24.816118,10.841288,10.089605)"
       gradientUnits="userSpaceOnUse">
      <stop
         offset="2.608695652173913%"
         stop-opacity="1"
         style="stop-color:rgb(179,255,171)"
         id="stop2-3" />
      <stop
         offset="98.69565217391305%"
         stop-opacity="1"
         style="stop-color:rgb(18,255,247)"
         id="stop4-6" />
    </linearGradient>
    <linearGradient
       inkscape:collect="always"
       xlink:href="#_lgradient_12"
       id="linearGradient15"
       x1="-9.6850061"
       y1="45.161198"
       x2="11.98815"
       y2="21.735205"
       gradientUnits="userSpaceOnUse"
       gradientTransform="matrix(1.1147442,0,0,1.1150348,-0.01237238,-3.3277956)" />
    <linearGradient
       inkscape:collect="always"
       xlink:href="#_lgradient_11"
       id="linearGradient1099"
       x1="21.383997"
       y1="30.815022"
       x2="34.833759"
       y2="30.815022"
       gradientUnits="userSpaceOnUse"
       gradientTransform="translate(0.80427537,-0.13668291)" />
    <linearGradient
       inkscape:collect="always"
       xlink:href="#_lgradient_13"
       id="linearGradient1111"
       x1="33.804733"
       y1="18.684385"
       x2="13.16674"
       y2="18.639137"
       gradientUnits="userSpaceOnUse"
       gradientTransform="translate(-0.73394495,0.14678899)" />
  </defs>
  <sodipodi:namedview
     id="namedview38"
     pagecolor="#ffffff"
     bordercolor="#666666"
     borderopacity="1.0"
     inkscape:pageshadow="2"
     inkscape:pageopacity="0.0"
     inkscape:pagecheckerboard="0"
     inkscape:document-units="pt"
     showgrid="false"
     inkscape:zoom="10.21875"
     inkscape:cx="31.95107"
     inkscape:cy="32"
     inkscape:window-width="1600"
     inkscape:window-height="836"
     inkscape:window-x="0"
     inkscape:window-y="0"
     inkscape:window-maximized="1"
     inkscape:current-layer="svg36" />
  <linearGradient
     id="_lgradient_10"
     x1="0.05097071143265408"
     y1="0.9093686270790043"
     x2="0.9536247734808043"
     y2="0.1958093215343868"
     gradientTransform="matrix(13.44987,0,0,13.44987,21.38389,24.090086)"
     gradientUnits="userSpaceOnUse">
    <stop
       offset="0%"
       stop-opacity="1"
       style="stop-color:rgb(126,235,218)"
       id="stop2" />
    <stop
       offset="49.56869043334445%"
       stop-opacity="1"
       style="stop-color:rgb(115,255,68)"
       id="stop4" />
    <stop
       offset="98.69565217391305%"
       stop-opacity="1"
       style="stop-color:rgb(255,205,62)"
       id="stop6" />
  </linearGradient>
  <linearGradient
     id="_lgradient_11"
     x1="26.367425"
     y1="46.431723"
     x2="46.964075"
     y2="30.149814"
     gradientTransform="matrix(0.61645418,0,0,0.61646083,5.5384668,7.9499961)"
     gradientUnits="userSpaceOnUse">
    <stop
       offset="0%"
       stop-opacity="1"
       style="stop-color:rgb(126,235,218)"
       id="stop9" />
    <stop
       offset="49.56869043334445%"
       stop-opacity="1"
       style="stop-color:rgb(115,255,68)"
       id="stop11" />
    <stop
       offset="98.69565217391305%"
       stop-opacity="1"
       style="stop-color:rgb(255,205,62)"
       id="stop13" />
  </linearGradient>
  <rect
     x="-46.783188"
     y="1.2253767"
     height="45.80014"
     rx="6.1837621"
     shape-rendering="crispEdges"
     id="rect5-6-7-3"
     ry="6.8055277"
     transform="matrix(0.00524063,-0.99998627,0.99998801,0.00489691,0,0)"
     style="isolation:isolate;fill:#00ff26;fill-opacity:0.13470298;stroke:url(#linearGradient872);stroke-width:2.0301;stroke-miterlimit:4;stroke-dasharray:none;stroke-opacity:1"
     width="45.801998" />
  <rect
     x="-15.686804"
     y="17.260084"
     height="33.345856"
     rx="6.7920032"
     shape-rendering="crispEdges"
     id="rect5-6-6-6-6"
     style="isolation:isolate;fill:#00ff26;fill-opacity:0.13470298;stroke:url(#linearGradient15);stroke-width:1.67233;stroke-miterlimit:4;stroke-dasharray:none;stroke-opacity:1"
     ry="7.4743071"
     transform="matrix(0.72446484,-0.68931175,0.68622417,0.72739012,0,0)"
     width="33.338203" />
  <linearGradient
     id="_lgradient_12"
     x1="0.11562499999999987"
     y1="0.9772727272727273"
     x2="1.1783909574468088"
     y2="-0.2180851063829785"
     gradientTransform="matrix(43.636,0,0,48,0.478,0)"
     gradientUnits="userSpaceOnUse">
    <stop
       offset="0%"
       stop-opacity="1"
       style="stop-color:rgb(165,248,106)"
       id="stop18" />
    <stop
       offset="97.91666666666666%"
       stop-opacity="1"
       style="stop-color:rgb(47,206,146)"
       id="stop20" />
  </linearGradient>
  <linearGradient
     id="_lgradient_13"
     x1="1.5627141899860746"
     y1="0.543163345093069"
     x2="-0.052491476226457445"
     y2="0.5389581965419142"
     gradientTransform="matrix(12.777315,0,0,10.760266,13.837441,12.839803)"
     gradientUnits="userSpaceOnUse">
    <stop
       offset="34.94098066785295%"
       stop-opacity="1"
       style="stop-color:rgb(178,229,107)"
       id="stop25" />
    <stop
       offset="53.84922244785295%"
       stop-opacity="1"
       style="stop-color:rgb(194,233,100)"
       id="stop27" />
    <stop
       offset="90.40515655585295%"
       stop-opacity="1"
       style="stop-color:rgb(236,244,81)"
       id="stop29" />
    <stop
       offset="100%"
       stop-opacity="1"
       style="stop-color:rgb(250,247,75)"
       id="stop31" />
  </linearGradient>
  <path
     style="color:#000000;vector-effect:non-scaling-stroke;fill:url(#linearGradient1099);fill-rule:evenodd;stroke-linecap:square;stroke-miterlimit:3;-inkscape-stroke:none"
     d="m 28.905837,23.453161 c -1.824862,0 -3.583625,0.689472 -4.921875,1.927734 h -0.002 c -1.337657,1.240975 -2.15653,2.943225 -2.291015,4.759766 -0.04547,0.606564 0.419343,1.14806 1.027343,1.191406 0.606147,0.04433 1.145784,-0.418835 1.191407,-1.025391 0.09477,-1.2595 0.659712,-2.437888 1.585937,-3.296875 0.926093,-0.858302 2.146068,-1.333984 3.410156,-1.333984 1.326617,0 2.600194,0.528003 3.541016,1.464844 0.938154,0.939837 1.466797,2.212099 1.466797,3.537109 0,1.324092 -0.527908,2.597463 -1.464844,3.537109 -3.91e-4,3.9e-4 -0.0016,-3.89e-4 -0.002,0 -3.89e-4,3.91e-4 3.9e-4,0.0016 0,0.002 -0.940829,0.935877 -2.214907,1.464843 -3.541016,1.464843 -0.607891,0 -1.113281,0.500997 -1.113281,1.109375 0,0.6085 0.50539,1.111328 1.113281,1.111328 1.916485,0 3.755345,-0.760641 5.113282,-2.113281 h 0.002 c 1.353997,-1.355984 2.117187,-3.196325 2.117187,-5.111328 0,-1.915003 -0.76319,-3.75339 -2.117187,-5.109375 h -0.002 c -1.357937,-1.35264 -3.196797,-2.115234 -5.113282,-2.115234 z m 0,1 c 1.651569,0 3.237433,0.656062 4.408204,1.822265 1.16731,1.169023 1.824218,2.752993 1.824218,4.402344 0,1.6488 -0.657639,3.233434 -1.824218,4.402344 -1.170771,1.166204 -2.756635,1.822265 -4.408204,1.822265 -0.06775,0 -0.113281,-0.04419 -0.113281,-0.111328 0,-0.06603 0.04554,-0.109375 0.113281,-0.109375 1.592512,0 3.120236,-0.634706 4.248047,-1.757812 l 0.002,-0.002 c 1.12451,-1.126527 1.757813,-2.65331 1.757813,-4.244141 0,-1.590831 -0.633303,-3.117613 -1.757813,-4.244141 h -0.002 c -1.127894,-1.123813 -2.655676,-1.757765 -4.248047,-1.757765 -1.514901,0 -2.97793,0.569088 -4.089843,1.599609 -1.111781,1.031072 -1.790705,2.445454 -1.904297,3.955078 -0.0049,0.06538 -0.05284,0.108508 -0.121094,0.103516 -0.0664,-0.0047 -0.106647,-0.0513 -0.101562,-0.119141 0.115796,-1.564107 0.821781,-3.030104 1.974609,-4.099609 1.153317,-1.066569 2.669701,-1.662109 4.242187,-1.662109 z m 1.117188,2.349609 c -0.293798,2.19e-4 -0.579804,0.02487 -0.857422,0.06055 h -0.002 c -0.310305,0.04013 -0.613553,0.104668 -0.912109,0.193359 -0.272041,0.07732 -0.528359,0.184554 -0.771485,0.314453 -0.283503,0.150581 -0.546176,0.340626 -0.779297,0.564454 -6.72e-4,6.33e-4 -0.0013,0.0013 -0.002,0.002 -6.6e-4,6.35e-4 -0.0013,0.0013 -0.002,0.002 -0.229466,0.217067 -0.422541,0.466549 -0.578125,0.738281 h 0.002 c -0.165723,0.288028 -0.287427,0.595679 -0.365234,0.914063 v 0.002 0.002 c -0.08337,0.353487 -0.124812,0.710946 -0.128906,1.068359 -0.0042,0.363569 0.03739,0.72311 0.115234,1.072266 0.06964,0.323531 0.187161,0.637804 0.349609,0.927734 v 0.002 l 0.002,0.002 c 0.156165,0.27275 0.348739,0.521787 0.572266,0.740235 l 0.002,0.0039 0.002,0.002 c 0.233197,0.220998 0.494935,0.407457 0.771485,0.560547 l 0.0059,0.0039 0.0039,0.002 c 0.253139,0.132762 0.519396,0.243617 0.800782,0.324219 h 0.002 c 0.308501,0.0873 0.629128,0.1562 0.958984,0.19336 0.281899,0.03728 0.563608,0.05274 0.837891,0.05664 h 0.0039 0.0039 c 0.330265,0 0.661609,-0.01206 0.996094,-0.03906 0.678954,-0.05128 1.195781,-0.655532 1.142578,-1.333985 -0.05322,-0.679507 -0.660601,-1.196709 -1.339844,-1.142578 -0.260688,0.01801 -0.518535,0.02909 -0.779297,0.0293 -0.192724,-0.0035 -0.382965,-0.01385 -0.5625,-0.03711 h -0.002 -0.002 c -0.187951,-0.02217 -0.378304,-0.06195 -0.5625,-0.113282 -0.117984,-0.03615 -0.223963,-0.07835 -0.320312,-0.130859 l -0.0039,-0.002 -0.002,-0.002 c -0.08754,-0.04612 -0.160577,-0.09771 -0.220703,-0.158203 l -0.0078,-0.0098 -0.0098,-0.0078 c -0.04584,-0.04173 -0.08676,-0.09497 -0.115234,-0.148438 l -0.0039,-0.0059 -0.0039,-0.0078 c -0.04329,-0.0749 -0.07407,-0.155155 -0.09375,-0.24414 -0.03675,-0.166659 -0.05469,-0.345437 -0.05469,-0.517579 0,-0.170391 0.02103,-0.340475 0.0625,-0.503906 l 0.002,-0.0098 0.002,-0.0078 c 0.01796,-0.08344 0.0525,-0.170796 0.09766,-0.25 3.07e-4,-5.37e-4 -3.07e-4,-0.0014 0,-0.002 0.0414,-0.06924 0.08397,-0.124731 0.132813,-0.171875 l 0.002,-0.002 c 6.18e-4,-5.93e-4 0.0013,-0.0014 0.002,-0.002 0.07659,-0.07057 0.155659,-0.126498 0.234375,-0.167969 l 0.002,-0.002 c 0.09797,-0.05209 0.201176,-0.09436 0.304688,-0.125 0.173331,-0.05157 0.34563,-0.08655 0.529296,-0.109375 h 0.0059 l 0.0059,-0.002 c 0.177788,-0.02632 0.366079,-0.03906 0.550781,-0.03906 h 0.0039 0.002 c 0.273159,-0.0035 0.540367,0.004 0.804687,0.02539 0.678161,0.05429 1.283607,-0.462534 1.337891,-1.140625 0.05425,-0.677621 -0.461516,-1.280699 -1.138672,-1.335938 -0.341212,-0.02699 -0.684678,-0.03889 -1.029297,-0.03516 z m 0.0039,1 h 0.0039 0.002 c 0.316143,-0.0035 0.631187,0.0066 0.943359,0.03125 0.139031,0.01134 0.23375,0.123151 0.222656,0.261719 -0.01105,0.138098 -0.12369,0.231754 -0.261719,0.220703 -0.298392,-0.02411 -0.593674,-0.03103 -0.890625,-0.02734 h -0.0059 c -0.228845,2.69e-4 -0.460345,0.01735 -0.6875,0.05078 -0.230309,0.02902 -0.457601,0.07338 -0.683594,0.140625 -0.170794,0.05069 -0.334031,0.11916 -0.488281,0.201172 -0.172543,0.0909 -0.320776,0.203082 -0.451172,0.324219 l -0.002,0.002 -0.0039,0.002 c -0.126794,0.120667 -0.229208,0.256922 -0.3125,0.398438 l -0.002,0.0039 v 0.002 c -0.09391,0.163931 -0.163782,0.342578 -0.205078,0.53125 -0.06017,0.241071 -0.0918,0.488534 -0.0918,0.738281 0,0.243351 0.02488,0.490986 0.07813,0.732422 0.03907,0.176616 0.10639,0.354641 0.203125,0.523438 0.07953,0.146504 0.183553,0.280532 0.308593,0.396484 0.137571,0.136565 0.291189,0.246718 0.453125,0.332031 0.162081,0.08779 0.330183,0.155004 0.5,0.207032 l 0.0039,0.002 0.0059,0.002 c 0.234519,0.06613 0.47754,0.115294 0.722656,0.144531 0.229794,0.02976 0.455272,0.04101 0.671875,0.04492 h 0.0039 0.0059 c 0.291918,0 0.576747,-0.01147 0.861328,-0.03125 h 0.0039 0.002 c 0.140645,-0.01121 0.250822,0.08351 0.261719,0.222656 h 0.002 c 0.0109,0.138969 -0.08542,0.249401 -0.222656,0.259766 h -0.002 c -0.302792,0.0245 -0.606358,0.03502 -0.912109,0.03516 -0.246007,-0.0035 -0.489711,-0.01828 -0.720704,-0.04883 h -0.0059 -0.0059 c -0.267642,-0.02962 -0.537468,-0.08659 -0.804688,-0.162109 h -0.002 c -0.207315,-0.05952 -0.406759,-0.142174 -0.605469,-0.246094 -0.0013,-6.92e-4 -0.0026,-0.0013 -0.0039,-0.002 -0.200556,-0.112045 -0.387369,-0.248465 -0.550781,-0.402344 l -0.002,-0.0039 c -0.001,-9.73e-4 -0.0029,-9.79e-4 -0.0039,-0.002 -0.152446,-0.150032 -0.285083,-0.321551 -0.394531,-0.511719 -0.112491,-0.200769 -0.197374,-0.422089 -0.246094,-0.648438 v -0.002 -0.002 c -0.06311,-0.281556 -0.09502,-0.567863 -0.0918,-0.849609 0.0033,-0.288634 0.03576,-0.56866 0.101562,-0.847656 0.05659,-0.229916 0.141921,-0.448972 0.257813,-0.650391 h 0.002 v -0.002 c 0.11105,-0.193954 0.243778,-0.365953 0.398437,-0.511719 l 0.002,-0.002 0.002,-0.002 c 0.167162,-0.161008 0.355882,-0.295794 0.560547,-0.404297 l 0.002,-0.002 c 0.188395,-0.100657 0.375799,-0.178538 0.572266,-0.234375 h 0.0039 l 0.0039,-0.002 c 0.249424,-0.07438 0.500042,-0.126571 0.759765,-0.160157 0.248811,-0.03198 0.494479,-0.05273 0.734375,-0.05273 z m -6.269531,4.490234 c -0.270202,-0.09317 -0.575618,-0.08456 -0.849609,0.04883 -0.548068,0.265697 -0.779614,0.941375 -0.511719,1.488281 0.674452,1.38863 1.777393,2.527452 3.144531,3.246094 0.538447,0.283101 1.218749,0.07073 1.501953,-0.466797 0.282719,-0.53772 0.06975,-1.216894 -0.466797,-1.5 C 25.625506,34.608188 24.86366,33.8218 24.396066,32.857459 v -0.002 c -0.133756,-0.273618 -0.36847,-0.469327 -0.638672,-0.5625 z m -0.412109,0.949219 c 0.05984,-0.02913 0.122724,-0.0079 0.152343,0.05273 0.56072,1.155605 1.474732,2.097748 2.611328,2.697265 l 0.002,0.002 c 0.06037,0.03174 0.0783,0.08867 0.04687,0.148438 -0.03119,0.0592 -0.09087,0.07817 -0.150391,0.04687 -1.179248,-0.619876 -2.132126,-1.601929 -2.712891,-2.798828 v -0.002 c -0.02924,-0.05969 -0.009,-0.117517 0.05078,-0.146485 z"
     id="path1927" />
  <path
     style="color:#000000;fill:url(#linearGradient1111);fill-rule:evenodd;-inkscape-stroke:none"
     d="m 14.447266,12.486328 c -1.012702,0 -1.84375,0.833002 -1.84375,1.845703 v 8.06836 c 0,1.013093 0.831048,1.845703 1.84375,1.845703 h 10.08789 c 1.012701,0 1.845703,-0.832333 1.845703,-1.845703 v -8.06836 c 0,-1.012978 -0.833002,-1.845703 -1.845703,-1.845703 z m 0,1 h 10.08789 c 0.471728,0 0.845703,0.374253 0.845703,0.845703 v 8.06836 c 0,0.472292 -0.373975,0.845703 -0.845703,0.845703 h -10.08789 c -0.471728,0 -0.84375,-0.373134 -0.84375,-0.845703 v -8.06836 c 0,-0.471727 0.372022,-0.845703 0.84375,-0.845703 z m 0.173828,1.017578 v 3.353516 h 0.5 3.865234 v -3.353516 z m 5.382812,0 v 3.353516 h 4.359375 v -0.5 -2.853516 z m -4.382812,1 h 2.365234 v 1.353516 h -2.365234 z m 5.382812,0 h 2.359375 v 1.353516 H 21.003906 Z M 14.621094,18.875 v 0.5 2.853516 h 4.365234 V 18.875 Z m 5.382812,0 v 3.353516 h 0.5 3.859375 V 18.875 Z m -4.382812,1 h 2.365234 v 1.353516 h -2.365234 z m 5.382812,0 h 2.359375 v 1.353516 h -2.359375 z"
     id="path34" />
</svg>
