<?xml version="1.0" encoding="UTF-8" standalone="no"?>
<!-- Generator: Gravit.io -->

<svg
   style="isolation:isolate"
   viewBox="0 0 48 48"
   width="48pt"
   height="48pt"
   version="1.1"
   id="svg43"
   sodipodi:docname="libreoffice-math.svg"
   inkscape:version="1.1.2 (0a00cf5339, 2022-02-04)"
   xmlns:inkscape="http://www.inkscape.org/namespaces/inkscape"
   xmlns:sodipodi="http://sodipodi.sourceforge.net/DTD/sodipodi-0.dtd"
   xmlns:xlink="http://www.w3.org/1999/xlink"
   xmlns="http://www.w3.org/2000/svg"
   xmlns:svg="http://www.w3.org/2000/svg">
  <defs
     id="defs47">
    <linearGradient
       inkscape:collect="always"
       xlink:href="#_lgradient_5"
       id="linearGradient872"
       x1="-12.025727"
       y1="6.1170783"
       x2="-0.085100174"
       y2="6.1170783"
       gradientUnits="userSpaceOnUse"
       gradientTransform="matrix(3.8358211,0,0,3.8371386,-0.00544341,-0.00268054)" />
    <linearGradient
       id="_lgradient_1"
       x1="0.18336116"
       y1="0.24917752"
       x2="0.9027437"
       y2="0.90347725"
       gradientTransform="matrix(24.617266,0,0,24.816118,10.841288,10.089605)"
       gradientUnits="userSpaceOnUse">
      <stop
         offset="2.608695652173913%"
         stop-opacity="1"
         style="stop-color:rgb(179,255,171)"
         id="stop2-3" />
      <stop
         offset="98.69565217391305%"
         stop-opacity="1"
         style="stop-color:rgb(18,255,247)"
         id="stop4-6" />
    </linearGradient>
    <linearGradient
       inkscape:collect="always"
       xlink:href="#_lgradient_5"
       id="linearGradient15"
       x1="-9.6850061"
       y1="45.161198"
       x2="11.98815"
       y2="21.735205"
       gradientUnits="userSpaceOnUse"
       gradientTransform="matrix(1.1147442,0,0,1.1150348,-0.01237238,-3.3277956)" />
    <linearGradient
       inkscape:collect="always"
       xlink:href="#_lgradient_6"
       id="linearGradient1172"
       x1="10.073685"
       y1="17.91123"
       x2="25.70842"
       y2="17.91123"
       gradientUnits="userSpaceOnUse" />
    <linearGradient
       inkscape:collect="always"
       xlink:href="#_lgradient_9"
       id="linearGradient1202"
       x1="18.822227"
       y1="19.409267"
       x2="25.232964"
       y2="19.409267"
       gradientUnits="userSpaceOnUse" />
  </defs>
  <sodipodi:namedview
     id="namedview45"
     pagecolor="#ffffff"
     bordercolor="#666666"
     borderopacity="1.0"
     inkscape:pageshadow="2"
     inkscape:pageopacity="0.0"
     inkscape:pagecheckerboard="0"
     inkscape:document-units="pt"
     showgrid="false"
     inkscape:zoom="10.21875"
     inkscape:cx="31.95107"
     inkscape:cy="32"
     inkscape:window-width="1600"
     inkscape:window-height="836"
     inkscape:window-x="0"
     inkscape:window-y="0"
     inkscape:window-maximized="1"
     inkscape:current-layer="svg43" />
  <linearGradient
     id="_lgradient_5"
     x1="0"
     y1="0.5"
     x2="1"
     y2="0.5"
     gradientTransform="matrix(43.636,0,0,48,0.478,0)"
     gradientUnits="userSpaceOnUse">
    <stop
       offset="0%"
       stop-opacity="1"
       style="stop-color:rgb(241,123,65)"
       id="stop2" />
    <stop
       offset="50%"
       stop-opacity="1"
       style="stop-color:rgb(224,91,162)"
       id="stop4" />
    <stop
       offset="97.5%"
       stop-opacity="1"
       style="stop-color:rgb(205,75,201)"
       id="stop6" />
  </linearGradient>
  <rect
     x="-46.783188"
     y="1.2253767"
     height="45.80014"
     rx="6.1837621"
     shape-rendering="crispEdges"
     id="rect5-6-7-3"
     ry="6.8055277"
     transform="matrix(0.00524063,-0.99998627,0.99998801,0.00489691,0,0)"
     style="isolation:isolate;fill:#7f00ff;fill-opacity:0.13470298;stroke:url(#linearGradient872);stroke-width:2.0301;stroke-miterlimit:4;stroke-dasharray:none;stroke-opacity:1"
     width="45.801998" />
  <rect
     x="-15.686804"
     y="17.260084"
     height="33.345856"
     rx="6.7920032"
     shape-rendering="crispEdges"
     id="rect5-6-6-6-6"
     style="isolation:isolate;fill:#7f00ff;fill-opacity:0.13470298;stroke:url(#linearGradient15);stroke-width:1.67233;stroke-miterlimit:4;stroke-dasharray:none;stroke-opacity:1"
     ry="7.4743071"
     transform="matrix(0.72446484,-0.68931175,0.68622417,0.72739012,0,0)"
     width="33.338203" />
  <linearGradient
     id="_lgradient_6"
     x1="0.031182562838213412"
     y1="0.10866627890091946"
     x2="0.9583795358695032"
     y2="0.9751947012019755"
     gradientTransform="matrix(15.634733,0,0,10.970903,10.073685,12.885111)"
     gradientUnits="userSpaceOnUse">
    <stop
       offset="0%"
       stop-opacity="1"
       style="stop-color:rgb(165,248,106)"
       id="stop11" />
    <stop
       offset="97.91666666666666%"
       stop-opacity="1"
       style="stop-color:rgb(47,206,146)"
       id="stop13" />
  </linearGradient>
  <path
     style="color:#000000;fill:url(#linearGradient1172);-inkscape-stroke:none"
     d="m 16.851562,12.384766 -2.517578,5.873046 -0.8125,-1.896484 h -2.595703 c -0.740847,0 -1.3515622,0.612669 -1.3515622,1.353516 -1e-7,0.740846 0.6102572,1.351562 1.3515622,1.351562 h 0.8125 l 1.464844,3.419922 c 0.111808,0.261146 0.24733,0.479878 0.429688,0.652344 0.182357,0.172466 0.43147,0.298828 0.701171,0.298828 0.269702,0 0.518762,-0.126434 0.701172,-0.298828 0.182411,-0.172394 0.3177,-0.391235 0.429688,-0.652344 l 3.171875,-7.396484 h 6.21875 c 0.740846,0 1.353515,-0.612669 1.353515,-1.353516 0,-0.740847 -0.612669,-1.351562 -1.353515,-1.351562 z m 0.658204,1 h 7.345703 c 0.19981,0 0.353515,0.15175 0.353515,0.351562 0,0.19981 -0.153705,0.353516 -0.353515,0.353516 h -6.878907 l -3.429687,8.001953 c -0.07336,0.17105 -0.152995,0.276627 -0.199219,0.320312 -0.04622,0.04369 -0.04036,0.02539 -0.01367,0.02539 0.02669,0 0.03244,0.01822 -0.01367,-0.02539 -0.04612,-0.04361 -0.124048,-0.149299 -0.197266,-0.320312 l -1.726563,-4.025391 h -1.470703 c -0.199354,0 -0.351562,-0.151752 -0.351562,-0.351562 0,-0.199812 0.15175,-0.353516 0.351562,-0.353516 h 1.9375 l 1.470703,3.435547 z"
     id="path16" />
  <linearGradient
     id="_lgradient_7"
     x1="0"
     y1="0.5"
     x2="1"
     y2="0.5"
     gradientTransform="matrix(14.115058,0,0,14.115058,22.821101,21.673866)"
     gradientUnits="userSpaceOnUse">
    <stop
       offset="0%"
       stop-opacity="1"
       style="stop-color:rgb(135,154,242)"
       id="stop18" />
    <stop
       offset="47.91666666666667%"
       stop-opacity="1"
       style="stop-color:rgb(211,32,139)"
       id="stop20" />
    <stop
       offset="97.91666666666666%"
       stop-opacity="1"
       style="stop-color:rgb(253,160,0)"
       id="stop22" />
  </linearGradient>
  <linearGradient
     id="_lgradient_8"
     x1="25.204382"
     y1="37.0908"
     x2="48.022259"
     y2="37.0908"
     gradientTransform="matrix(0.64694205,0,0,0.64694903,6.1920126,4.7355375)"
     gradientUnits="userSpaceOnUse">
    <stop
       offset="0%"
       stop-opacity="1"
       style="stop-color:rgb(135,154,242)"
       id="stop25" />
    <stop
       offset="47.91666666666667%"
       stop-opacity="1"
       style="stop-color:rgb(211,32,139)"
       id="stop27" />
    <stop
       offset="97.91666666666666%"
       stop-opacity="1"
       style="stop-color:rgb(253,160,0)"
       id="stop29" />
  </linearGradient>
  <path
     style="color:#000000;vector-effect:non-scaling-stroke;fill:url(#_lgradient_8);fill-rule:evenodd;stroke-linecap:square;stroke-miterlimit:3;-inkscape-stroke:none"
     d="m 29.871094,21.173828 c -1.908887,0 -3.748571,0.720351 -5.148438,2.015625 h -0.002 v 0.002 c -1.399242,1.29811 -2.25581,3.076424 -2.396484,4.976563 -0.04671,0.623239 0.431966,1.180073 1.05664,1.224609 0.622016,0.04439 1.175834,-0.432177 1.222657,-1.054687 0.09992,-1.327978 0.695253,-2.568886 1.671875,-3.47461 0.976489,-0.90501 2.262896,-1.40625 3.595703,-1.40625 1.399364,0 2.74228,0.556375 3.734375,1.544922 0.98916,0.990935 1.544922,2.331402 1.544922,3.728516 0,1.397115 -0.555762,2.739534 -1.544922,3.730468 -0.992178,0.988038 -2.335152,1.544922 -3.734375,1.544922 -0.624599,0 -1.142578,0.515571 -1.142578,1.140625 0,0.625208 0.51798,1.142578 1.142578,1.142578 2.004716,0 3.929142,-0.796011 5.349609,-2.210937 v -0.002 h 0.002 c 1.416347,-1.418424 2.212891,-3.342559 2.212891,-5.345703 0,-2.003143 -0.796544,-3.925326 -2.212891,-5.34375 h -0.002 v -0.002 C 33.800236,21.96984 31.87581,21.173828 29.871094,21.173828 Z m 0,1 c 1.739248,0 3.409391,0.692163 4.642578,1.919922 1.229659,1.231463 1.921875,2.899227 1.921875,4.636719 0,1.737492 -0.692216,3.40721 -1.921875,4.638672 -1.233187,1.227759 -2.90333,1.919921 -4.642578,1.919921 -0.08445,0 -0.142578,-0.05873 -0.142578,-0.142578 0,-0.0827 0.05813,-0.140625 0.142578,-0.140625 1.664707,0 3.262436,-0.661887 4.441406,-1.835937 v -0.002 c 1.175516,-1.177625 1.837891,-2.774564 1.837891,-4.4375 0,-1.662935 -0.662375,-3.257922 -1.837891,-4.435547 v -0.002 c -1.179053,-1.174837 -2.776839,-1.835938 -4.441406,-1.835938 -1.58362,0 -3.11308,0.594646 -4.275391,1.671875 -1.162178,1.077809 -1.87149,2.556664 -1.990234,4.134766 -0.0062,0.082 -0.06936,0.13707 -0.154297,0.130859 -0.08308,-0.0059 -0.135241,-0.06782 -0.128906,-0.152344 0.121985,-1.647705 0.865665,-3.191719 2.080078,-4.318359 1.214933,-1.123581 2.812238,-1.75 4.46875,-1.75 z m -3.033203,3.207031 c -0.22482,0.09316 -0.3815,0.285298 -0.464844,0.480469 -0.08335,0.195171 -0.113281,0.401869 -0.113281,0.628906 V 31.125 c 0,0.557477 0.462054,1.019531 1.019531,1.019531 0.557514,0 1.021484,-0.462055 1.021484,-1.019531 v -2.216797 l 0.857422,0.859375 c 0.394179,0.394179 1.047571,0.393141 1.441406,-0.002 l 0.857422,-0.855469 V 31.125 c 0,0.557476 0.462054,1.019531 1.019531,1.019531 0.557478,0 1.019532,-0.462056 1.019532,-1.019531 v -4.634766 c 0,-0.227037 -0.02798,-0.433735 -0.111328,-0.628906 -0.08335,-0.195171 -0.240025,-0.387304 -0.464844,-0.480469 -0.22482,-0.09316 -0.47292,-0.06931 -0.669922,0.0098 -0.197002,0.07908 -0.364767,0.206564 -0.525391,0.367187 l -1.845703,1.845704 -1.845703,-1.845704 c -0.160623,-0.160623 -0.328388,-0.288111 -0.525391,-0.367187 -0.197002,-0.07908 -0.445102,-0.10293 -0.669921,-0.0098 z m 0.43164,1.041016 c 0.02335,0.01911 0.02922,0.01554 0.05664,0.04297 l 2.015625,2.015625 c 0.292837,0.290975 0.779428,0.290972 1.072265,0 h 0.002 l 2.015625,-2.015625 c 0.027,-0.027 0.03162,-0.02403 0.05469,-0.04297 0.0029,0.02962 0.0098,0.03031 0.0098,0.06836 V 31.125 c 0,0.01572 -0.0038,0.01953 -0.01953,0.01953 -0.01572,0 -0.01953,-0.0038 -0.01953,-0.01953 v -4.628906 l -2.564453,2.564453 c -0.01115,0.01119 -0.01524,0.0121 -0.02734,0 L 27.300781,26.494141 V 31.125 c 0,0.01572 -0.0045,0.01953 -0.02148,0.01953 -0.01571,0 -0.01953,-0.0038 -0.01953,-0.01953 v -4.634766 c 0,-0.03801 0.0069,-0.03876 0.0098,-0.06836 z m -2.810547,4.027344 c -0.276929,-0.09549 -0.590069,-0.08539 -0.871093,0.05078 -0.5631,0.272984 -0.802585,0.96544 -0.527344,1.527344 0.705444,1.453056 1.860555,2.642603 3.291015,3.394531 0.553233,0.290873 1.251991,0.07377 1.542969,-0.478516 0.290745,-0.552983 0.07191,-1.250587 -0.480469,-1.541015 -1.001864,-0.52845 -1.803855,-1.356266 -2.296875,-2.373047 v -0.002 h -0.002 c -0.137431,-0.28113 -0.378701,-0.482418 -0.65625,-0.578125 z m -0.433593,0.949218 c 0.07487,-0.03645 0.154441,-0.0073 0.191406,0.06836 0.586145,1.208046 1.544208,2.193569 2.732422,2.820312 0.07515,0.03951 0.09779,0.116853 0.05859,0.191407 -0.03933,0.07237 -0.117789,0.0973 -0.191406,0.05859 -1.242236,-0.652987 -2.24562,-1.686403 -2.857422,-2.947265 v -0.002 c -0.03659,-0.07469 -0.01034,-0.151243 0.06445,-0.1875 z"
     id="path32" />
  <linearGradient
     id="_lgradient_9"
     x1="0"
     y1="0.5"
     x2="1"
     y2="0.5"
     gradientTransform="matrix(6.4105834,0,0,6.4105834,18.822331,16.203941)"
     gradientUnits="userSpaceOnUse">
    <stop
       offset="0%"
       stop-opacity="1"
       style="stop-color:rgb(248,171,149)"
       id="stop34" />
    <stop
       offset="48.75%"
       stop-opacity="1"
       style="stop-color:rgb(241,125,173)"
       id="stop36" />
    <stop
       offset="98.33333333333333%"
       stop-opacity="1"
       style="stop-color:rgb(238,115,200)"
       id="stop38" />
  </linearGradient>
  <path
     style="color:#000000;fill:url(#linearGradient1202);fill-rule:evenodd;-inkscape-stroke:none"
     d="m 24.230469,15.707031 c -0.377436,0.002 -0.753499,0.147077 -1.03711,0.433594 l -1.177734,1.189453 -1.189453,-1.177734 c -0.57327,-0.566458 -1.510892,-0.561257 -2.078125,0.01172 -0.567146,0.572992 -0.563904,1.513132 0.0098,2.080079 l 1.189454,1.175781 -1.175782,1.191406 c -0.567144,0.572992 -0.56195,1.511179 0.01172,2.078125 0.572992,0.567146 1.511026,0.563157 2.078125,-0.0098 l 1.177734,-1.191406 1.189454,1.177735 c 0.573033,0.568159 1.513177,0.561 2.080078,-0.01172 0.566457,-0.573271 0.560998,-1.511226 -0.01172,-2.078125 l -1.189453,-1.177735 1.177734,-1.189453 c 0.566457,-0.57327 0.560999,-1.513179 -0.01172,-2.080078 -0.286554,-0.283635 -0.665533,-0.423832 -1.042968,-0.421875 z m 0.339843,1.132813 c 0.188056,0.186145 0.18854,0.477185 0.002,0.666015 h 0.002 l -1.88086,1.900391 1.900391,1.880859 c 0.188056,0.186147 0.190493,0.475232 0.0039,0.664063 -0.186143,0.188053 -0.47824,0.190084 -0.666015,0.0039 l -1.900391,-1.880859 -1.880859,1.90039 c -0.185944,0.187853 -0.476248,0.189806 -0.664063,0.0039 -0.188304,-0.186097 -0.189805,-0.476248 -0.0039,-0.664063 l 1.878906,-1.902344 -1.900391,-1.878906 c -0.188305,-0.186098 -0.189805,-0.4782 -0.0039,-0.666016 0.187106,-0.189 0.477186,-0.190492 0.666016,-0.0039 l 1.90039,1.88086 0.351563,-0.355469 1.529297,-1.544922 c 0.187117,-0.189035 0.477023,-0.190973 0.666015,-0.0039 z"
     id="path41" />
</svg>
