<?xml version="1.0" encoding="UTF-8" standalone="no"?>
<!-- Generator: Gravit.io -->

<svg
   style="isolation:isolate"
   viewBox="0 0 48 48"
   width="48pt"
   height="48pt"
   version="1.1"
   id="svg9"
   sodipodi:docname="lightbeat.svg"
   inkscape:version="1.1.2 (0a00cf5339, 2022-02-04)"
   xmlns:inkscape="http://www.inkscape.org/namespaces/inkscape"
   xmlns:sodipodi="http://sodipodi.sourceforge.net/DTD/sodipodi-0.dtd"
   xmlns:xlink="http://www.w3.org/1999/xlink"
   xmlns="http://www.w3.org/2000/svg"
   xmlns:svg="http://www.w3.org/2000/svg">
  <defs
     id="defs13">
    <linearGradient
       inkscape:collect="always"
       xlink:href="#_lgradient_21"
       id="linearGradient872"
       x1="-12.025727"
       y1="6.1170783"
       x2="-0.085100174"
       y2="6.1170783"
       gradientUnits="userSpaceOnUse"
       gradientTransform="matrix(3.8358211,0,0,3.8371386,-0.00544341,-0.00268054)" />
    <linearGradient
       id="_lgradient_1"
       x1="0.18336116"
       y1="0.24917752"
       x2="0.9027437"
       y2="0.90347725"
       gradientTransform="matrix(24.617266,0,0,24.816118,10.841288,10.089605)"
       gradientUnits="userSpaceOnUse">
      <stop
         offset="2.608695652173913%"
         stop-opacity="1"
         style="stop-color:rgb(179,255,171)"
         id="stop2-3" />
      <stop
         offset="98.69565217391305%"
         stop-opacity="1"
         style="stop-color:rgb(18,255,247)"
         id="stop4-6" />
    </linearGradient>
    <linearGradient
       inkscape:collect="always"
       xlink:href="#_lgradient_21"
       id="linearGradient15"
       x1="-9.6850061"
       y1="45.161198"
       x2="11.98815"
       y2="21.735205"
       gradientUnits="userSpaceOnUse"
       gradientTransform="matrix(1.1147442,0,0,1.1150348,-0.01237238,-3.3277956)" />
    <linearGradient
       inkscape:collect="always"
       xlink:href="#_lgradient_21"
       id="linearGradient1004"
       x1="12.081752"
       y1="24.80724"
       x2="35.918247"
       y2="24.80724"
       gradientUnits="userSpaceOnUse" />
  </defs>
  <sodipodi:namedview
     id="namedview11"
     pagecolor="#ffffff"
     bordercolor="#666666"
     borderopacity="1.0"
     inkscape:pageshadow="2"
     inkscape:pageopacity="0.0"
     inkscape:pagecheckerboard="0"
     inkscape:document-units="pt"
     showgrid="false"
     inkscape:zoom="10.21875"
     inkscape:cx="31.95107"
     inkscape:cy="32"
     inkscape:window-width="1600"
     inkscape:window-height="836"
     inkscape:window-x="0"
     inkscape:window-y="0"
     inkscape:window-maximized="1"
     inkscape:current-layer="svg9" />
  <linearGradient
     id="_lgradient_21"
     x1="0"
     y1="0.5"
     x2="1"
     y2="0.5"
     gradientTransform="matrix(23.836573,0,0,30.456997,12.082045,9.5788074)"
     gradientUnits="userSpaceOnUse">
    <stop
       offset="0%"
       stop-opacity="1"
       style="stop-color:rgb(247,242,6)"
       id="stop2" />
    <stop
       offset="97.82608695652173%"
       stop-opacity="1"
       style="stop-color:rgb(255,187,36)"
       id="stop4" />
  </linearGradient>
  <rect
     x="-46.783188"
     y="1.2253767"
     height="45.80014"
     rx="6.1837621"
     shape-rendering="crispEdges"
     id="rect5-6-7-3"
     ry="6.8055277"
     transform="matrix(0.00524063,-0.99998627,0.99998801,0.00489691,0,0)"
     style="isolation:isolate;fill:#fff700;fill-opacity:0.13470298;stroke:url(#linearGradient872);stroke-width:2.0301;stroke-miterlimit:4;stroke-dasharray:none;stroke-opacity:1"
     width="45.801998" />
  <rect
     x="-15.686804"
     y="17.260084"
     height="33.345856"
     rx="6.7920032"
     shape-rendering="crispEdges"
     id="rect5-6-6-6-6"
     style="isolation:isolate;fill:#fff700;fill-opacity:0.13470298;stroke:url(#linearGradient15);stroke-width:1.67233;stroke-miterlimit:4;stroke-dasharray:none;stroke-opacity:1"
     ry="7.4743071"
     transform="matrix(0.72446484,-0.68931175,0.68622417,0.72739012,0,0)"
     width="33.338203" />
  <path
     style="color:#000000;fill:url(#linearGradient1004);fill-rule:evenodd;-inkscape-stroke:none"
     d="m 23.998047,9.078125 c -1.589389,-0.00643 -3.175597,0.2473472 -4.681641,0.7402344 -1.416748,0.4607866 -2.738692,1.1560296 -3.916015,2.0644536 -1.126877,0.862547 -2.066748,1.949341 -2.75586,3.195312 l -0.002,0.002 c -0.688425,1.257427 -1.053535,2.66199 -1.060547,4.089844 -0.0068,1.191068 0.102189,2.381019 0.3125,3.554687 0.1854,1.03607 0.487048,2.051768 0.898438,3.025391 l 0.002,0.0039 0.002,0.0039 c 0.19496,0.438663 0.418968,0.859991 0.677734,1.265625 0.252822,0.397064 0.548516,0.75687 0.878907,1.080079 0.344839,0.344118 0.74124,0.620232 1.171875,0.828125 l 0.002,0.002 h 0.002 c 0.469797,0.223345 0.976669,0.338035 1.484375,0.345703 h -0.0078 c 0.116839,0.0034 0.221974,0.04369 0.310547,0.115234 0.289741,0.234022 0.524235,0.522506 0.691406,0.845703 v 0.0039 l 0.002,0.002 c 0.278389,0.525847 0.486422,1.079665 0.615234,1.65625 h 0.002 v 0.002 c 0.163067,0.708699 0.238281,1.432452 0.238281,2.166015 0,0.482993 0.187528,0.949249 0.53125,1.292969 0.128034,0.128034 0.324269,0.115258 0.480469,0.199219 h -1.011719 v 1.824219 0.662109 c 0,1.366982 1.119347,2.486328 2.486328,2.486328 h 5.296875 c 1.366982,0 2.486329,-1.119346 2.486329,-2.486328 V 37.386719 35.5625 h -1.011719 c 0.1562,-0.08396 0.352435,-0.07118 0.480469,-0.199219 0.343722,-0.34372 0.53125,-0.809976 0.53125,-1.292969 0,-0.733562 0.07522,-1.457313 0.238281,-2.166015 v -0.002 h 0.002 c 0.128812,-0.576585 0.336845,-1.130403 0.615234,-1.65625 l 0.002,-0.002 v -0.0039 c 0.167172,-0.323197 0.401666,-0.611681 0.691407,-0.845703 0.0886,-0.07156 0.193779,-0.111811 0.310547,-0.115234 h -0.0078 c 0.513315,-0.0077 1.022492,-0.122526 1.488281,-0.347656 0.430635,-0.207893 0.827036,-0.484007 1.171875,-0.828125 0.330391,-0.323209 0.626085,-0.683015 0.878907,-1.080079 v -0.002 c 0.258373,-0.405182 0.483008,-0.825535 0.677734,-1.263672 l 0.002,-0.0039 0.002,-0.0039 c 0.41139,-0.973623 0.713038,-1.989321 0.898438,-3.025391 v -0.002 c 0.210082,-1.173049 0.31928,-2.362326 0.3125,-3.552734 -0.007,-1.427844 -0.37212,-2.832413 -1.060547,-4.089844 l -0.002,-0.002 C 34.666807,13.832968 33.727459,12.747041 32.601562,11.884766 31.42371,10.975546 30.101186,10.279421 28.683594,9.8183594 27.17755,9.3254721 25.591342,9.0716984 24.001953,9.078125 Z m 0,1 H 24 h 0.002 c 1.481495,-0.0064 2.965089,0.231259 4.371094,0.691406 h 0.002 c 1.310293,0.426164 2.528678,1.067505 3.615234,1.90625 h 0.002 v 0.002 c 1.018354,0.779481 1.86642,1.758436 2.488282,2.882813 0.608708,1.112482 0.931295,2.355558 0.9375,3.615234 0.0064,1.126321 -0.09668,2.253873 -0.296875,3.371094 -0.172166,0.962856 -0.453042,1.908267 -0.835938,2.814453 -0.174778,0.39204 -0.374203,0.763584 -0.603515,1.123047 v 0.002 c -0.210473,0.330744 -0.455987,0.63196 -0.734375,0.904297 h -0.002 l -0.002,0.002 c -0.263578,0.263578 -0.568181,0.476409 -0.904297,0.638672 -0.328741,0.158891 -0.694449,0.242466 -1.068359,0.248047 h -0.0039 -0.002 c -0.333466,0.0098 -0.654461,0.129422 -0.910157,0.335937 -0.397394,0.320974 -0.717343,0.719223 -0.947265,1.16211 -0.317508,0.599736 -0.55971,1.238072 -0.708985,1.90625 -0.180623,0.786427 -0.263671,1.585486 -0.263671,2.386718 0,0.218844 -0.09204,0.439699 -0.238282,0.585938 -0.15856,0.158561 -0.367095,0.244141 -0.585937,0.244141 h -6.621094 c -0.218842,0 -0.427377,-0.08558 -0.585937,-0.244141 -0.14624,-0.146239 -0.238282,-0.367094 -0.238282,-0.585938 0,-0.801231 -0.08304,-1.600288 -0.263672,-2.386718 -0.149274,-0.668178 -0.391476,-1.306514 -0.708984,-1.90625 -0.229922,-0.442887 -0.549871,-0.841136 -0.947266,-1.16211 -0.255722,-0.206544 -0.576761,-0.32613 -0.910156,-0.335937 h -0.002 -0.0039 c -0.365643,-0.0055 -0.73087,-0.08792 -1.068359,-0.248047 h -0.002 c -0.335537,-0.162173 -0.639145,-0.375474 -0.902343,-0.638672 l -0.002,-0.002 h -0.002 c -0.278388,-0.272337 -0.523902,-0.573553 -0.734375,-0.904297 v -0.002 c -0.229312,-0.359463 -0.428737,-0.731007 -0.603515,-1.123047 l -0.002,-0.0059 c -5.98e-4,-0.0013 -0.0014,-0.0026 -0.002,-0.0039 -0.380803,-0.903223 -0.66048,-1.845266 -0.832032,-2.804687 -0.200196,-1.117225 -0.303312,-2.244785 -0.296875,-3.371094 0.0062,-1.259665 0.32879,-2.502748 0.9375,-3.615234 v -0.002 c 0.621796,-1.123829 1.470323,-2.101681 2.488281,-2.88086 v -0.002 h 0.002 c 1.086556,-0.838745 2.304941,-1.480086 3.615234,-1.90625 h 0.002 c 1.406006,-0.460147 2.8896,-0.697792 4.371094,-0.691406 z m 0,1.648438 c -1.311092,-0.0065 -2.619459,0.200703 -3.867188,0.607421 -1.126117,0.368422 -2.177147,0.926011 -3.115234,1.648438 -0.841674,0.643634 -1.543877,1.450748 -2.054687,2.373047 -0.477791,0.868709 -0.723285,1.83873 -0.730469,2.826172 v 0.002 c -0.0068,1.032893 0.08937,2.063295 0.273437,3.072265 0.145772,0.844021 0.387627,1.66263 0.726563,2.451172 l 0.002,0.002 v 0.002 c 0.13598,0.307746 0.293663,0.601502 0.470703,0.884766 l 0.0039,0.0039 0.002,0.0039 c 0.144798,0.221007 0.312636,0.425917 0.496094,0.609375 0.138602,0.138603 0.294197,0.246707 0.453125,0.326171 l 0.0098,0.0059 0.01172,0.0039 c 0.116142,0.05163 0.247208,0.08203 0.38086,0.08203 h -0.0078 c 0.698964,0.01136 1.379471,0.26305 1.929688,0.703125 0.564049,0.460943 1.029888,1.02952 1.36914,1.677735 l 0.002,0.002 0.002,0.0039 c 0.386822,0.717492 0.668786,1.495007 0.851562,2.300781 0.108802,0.492812 0.191377,0.988968 0.242188,1.484375 l 0.04687,0.449219 h 5.007812 l 0.04687,-0.449219 c 0.05081,-0.495407 0.133386,-0.991563 0.242188,-1.484375 0.182776,-0.805774 0.46474,-1.583289 0.851562,-2.300781 l 0.002,-0.0039 0.002,-0.002 c 0.339253,-0.648215 0.805092,-1.216792 1.369141,-1.677735 0.550217,-0.440076 1.230726,-0.691761 1.929688,-0.703125 h -0.0078 c 0.133652,0 0.264718,-0.0304 0.380859,-0.08203 l 0.01172,-0.0039 0.0098,-0.0059 c 0.15893,-0.07946 0.314523,-0.18757 0.453125,-0.326171 0.183458,-0.183458 0.351296,-0.388368 0.496094,-0.609375 l 0.002,-0.0039 0.0039,-0.0039 c 0.17704,-0.283264 0.334723,-0.57702 0.470703,-0.884766 v -0.002 l 0.002,-0.002 c 0.338936,-0.788542 0.580791,-1.607151 0.726563,-2.451172 0.184075,-1.008979 0.280256,-2.039387 0.273437,-3.072265 v -0.002 c -0.0072,-0.987426 -0.252675,-1.957457 -0.730469,-2.826172 -0.51081,-0.922299 -1.213013,-1.729413 -2.054687,-2.373047 -0.938087,-0.722427 -1.989117,-1.280016 -3.115234,-1.648438 -1.247734,-0.40672 -2.556107,-0.613879 -3.867188,-0.607421 z m 0,1 H 24 h 0.002 c 0.217494,-0.0011 0.425322,0.08995 0.642578,0.101562 -0.625739,0.01706 -1.219652,0.324461 -1.410156,0.953125 -0.237668,0.784305 0.212119,1.623652 0.996094,1.863281 h 0.002 v 0.002 c 0.800572,0.241443 1.566756,0.563038 2.294922,0.97461 l 0.002,0.002 c 0.5638,0.315976 1.082546,0.705594 1.539062,1.162109 l 0.002,0.002 h 0.002 c 0.342027,0.33613 0.625873,0.732869 0.832031,1.16211 0.147078,0.310505 0.224703,0.650475 0.230469,0.998047 10e-6,6.45e-4 -1.1e-5,0.0013 0,0.002 l -0.0059,0.173828 c -0.02769,0.818883 0.623107,1.515295 1.441406,1.542969 0.818883,0.02769 1.515296,-0.62506 1.542969,-1.44336 v -0.002 l 0.0078,-0.232422 v -0.04883 -0.0039 c -0.0073,-0.78468 -0.18224,-1.557866 -0.525391,-2.267578 l -0.002,-0.002 c -0.349021,-0.74002 -0.829192,-1.42062 -1.419922,-1.998047 l -0.002,-0.002 c -0.649503,-0.649127 -1.388417,-1.197887 -2.185547,-1.648438 v -0.002 c -0.776811,-0.438052 -1.612628,-0.760731 -2.458984,-1.048828 0.681998,0.09134 1.375719,0.104678 2.03125,0.318359 1.018561,0.333234 1.967151,0.835994 2.816406,1.490235 h 0.002 c 0.733401,0.560836 1.342642,1.264317 1.785156,2.0625 0.39619,0.720343 0.601388,1.524814 0.607422,2.351562 0.0064,0.966688 -0.08239,1.935858 -0.255859,2.886719 l -0.002,0.002 v 0.002 c -0.132079,0.76732 -0.352332,1.509184 -0.660157,2.226563 -0.115387,0.261139 -0.24872,0.509918 -0.402343,0.755859 -0.105781,0.160411 -0.228884,0.310915 -0.361328,0.443359 -0.05964,0.05964 -0.112831,0.09924 -0.191407,0.138672 l 0.01758,-0.0098 c -0.0014,6.24e-4 0.0077,-0.001 0.01172,-0.002 -0.01082,1.93e-4 -0.01849,0.01144 -0.0293,0.01172 h -0.002 c -0.913757,0.02397 -1.795965,0.342716 -2.505859,0.91211 h -0.002 l -0.002,0.002 c -0.667472,0.54546 -1.220739,1.221539 -1.623047,1.990234 -0.432269,0.803067 -0.744503,1.664453 -0.945313,2.550781 v 0.002 c -0.08364,0.378847 -0.134456,0.765164 -0.1875,1.150391 h -3.257812 c -0.05304,-0.385227 -0.103859,-0.771544 -0.1875,-1.150391 v -0.002 c -0.20081,-0.886328 -0.513044,-1.747714 -0.945313,-2.550781 -0.402308,-0.768695 -0.955575,-1.444774 -1.623047,-1.990234 l -0.002,-0.002 h -0.002 c -0.710383,-0.569786 -1.593379,-0.888547 -2.507812,-0.91211 -0.01081,-2.78e-4 -0.01848,-0.01153 -0.0293,-0.01172 0.004,9.08e-4 0.01312,0.0026 0.01172,0.002 l 0.01758,0.0098 c -0.07858,-0.03943 -0.131777,-0.07904 -0.191407,-0.138672 -0.132094,-0.132094 -0.255736,-0.281472 -0.361328,-0.441406 v -0.002 c -0.152531,-0.244191 -0.285565,-0.490881 -0.40039,-0.75 l -0.002,-0.0059 C 15.840613,23.589262 15.62036,22.847398 15.488281,22.080078 v -0.002 l -0.002,-0.002 c -0.17347,-0.95087 -0.262261,-1.920046 -0.255859,-2.886719 0.006,-0.826733 0.211229,-1.631213 0.607422,-2.351562 0.442514,-0.798183 1.051755,-1.501664 1.785156,-2.0625 h 0.002 c 0.849255,-0.654241 1.797845,-1.157001 2.816406,-1.490235 1.147871,-0.374168 2.35302,-0.564928 3.556641,-0.558593 z m 0.802734,1.011718 c 0.939951,0.28774 1.846454,0.671016 2.69336,1.148438 0.724922,0.409738 1.39111,0.906735 1.972656,1.488281 l 0.002,0.002 0.002,0.002 c 0.505917,0.493727 0.921725,1.08223 1.220703,1.716797 l 0.002,0.002 v 0.002 c 0.277988,0.57372 0.421771,1.201663 0.427735,1.845703 v 0.02734 l -0.0059,0.216797 c -0.0094,0.278151 -0.232197,0.485949 -0.509765,0.476563 -0.278152,-0.0094 -0.487902,-0.232199 -0.478516,-0.509766 l 0.0078,-0.210938 v -0.01172 c -0.0077,-0.486005 -0.115994,-0.968389 -0.326172,-1.41211 l -0.002,-0.002 c -0.256433,-0.534845 -0.605689,-1.024214 -1.029297,-1.441406 l -0.002,-0.002 C 28.252463,16.553614 27.659972,16.108929 27.019531,15.75 v 0.002 c -0.793933,-0.448744 -1.629034,-0.800817 -2.496094,-1.0625 -6.58e-4,-2.01e-4 6.58e-4,-0.0017 0,-0.002 h -0.002 c -0.26683,-0.08326 -0.40992,-0.353709 -0.330078,-0.617187 0.08049,-0.265629 0.34779,-0.4095 0.609375,-0.332032 z m -2.287109,22.16211 h 2.972656 v 0.986328 H 22.513672 Z M 19.865234,36.5625 h 1.648438 v 1.324219 h 0.5 3.972656 0.5 v -0.5 -0.824219 h 1.648438 v 0.824219 0.662109 c 0,0.82592 -0.66041,1.486328 -1.486329,1.486328 h -5.296875 c -0.825918,0 -1.486328,-0.660408 -1.486328,-1.486328 v -0.662109 z"
     id="path7" />
</svg>
