<?xml version="1.0" encoding="UTF-8" standalone="no"?>
<!-- Generator: Gravit.io -->

<svg
   style="isolation:isolate"
   viewBox="0 0 48 48"
   width="48pt"
   height="48pt"
   version="1.1"
   id="svg9"
   sodipodi:docname="linphone.svg"
   inkscape:version="1.1.2 (0a00cf5339, 2022-02-04)"
   xmlns:inkscape="http://www.inkscape.org/namespaces/inkscape"
   xmlns:sodipodi="http://sodipodi.sourceforge.net/DTD/sodipodi-0.dtd"
   xmlns:xlink="http://www.w3.org/1999/xlink"
   xmlns="http://www.w3.org/2000/svg"
   xmlns:svg="http://www.w3.org/2000/svg">
  <defs
     id="defs13">
    <linearGradient
       inkscape:collect="always"
       xlink:href="#_lgradient_32"
       id="linearGradient872"
       x1="-12.025727"
       y1="6.1170783"
       x2="-0.085100174"
       y2="6.1170783"
       gradientUnits="userSpaceOnUse"
       gradientTransform="matrix(3.8358211,0,0,3.8371386,-0.00544341,-0.00268054)" />
    <linearGradient
       id="_lgradient_1"
       x1="0.18336116"
       y1="0.24917752"
       x2="0.9027437"
       y2="0.90347725"
       gradientTransform="matrix(24.617266,0,0,24.816118,10.841288,10.089605)"
       gradientUnits="userSpaceOnUse">
      <stop
         offset="2.608695652173913%"
         stop-opacity="1"
         style="stop-color:rgb(179,255,171)"
         id="stop2-3" />
      <stop
         offset="98.69565217391305%"
         stop-opacity="1"
         style="stop-color:rgb(18,255,247)"
         id="stop4-6" />
    </linearGradient>
    <linearGradient
       inkscape:collect="always"
       xlink:href="#_lgradient_32"
       id="linearGradient15"
       x1="-9.6850061"
       y1="45.161198"
       x2="11.98815"
       y2="21.735205"
       gradientUnits="userSpaceOnUse"
       gradientTransform="matrix(1.1147442,0,0,1.1150348,-0.01237238,-3.3277956)" />
    <linearGradient
       inkscape:collect="always"
       xlink:href="#_lgradient_32"
       id="linearGradient1148"
       x1="13.403951"
       y1="23.826244"
       x2="34.59605"
       y2="23.826244"
       gradientUnits="userSpaceOnUse" />
  </defs>
  <sodipodi:namedview
     id="namedview11"
     pagecolor="#ffffff"
     bordercolor="#666666"
     borderopacity="1.0"
     inkscape:pageshadow="2"
     inkscape:pageopacity="0.0"
     inkscape:pagecheckerboard="0"
     inkscape:document-units="pt"
     showgrid="false"
     inkscape:zoom="10.21875"
     inkscape:cx="31.95107"
     inkscape:cy="32"
     inkscape:window-width="1600"
     inkscape:window-height="836"
     inkscape:window-x="0"
     inkscape:window-y="0"
     inkscape:window-maximized="1"
     inkscape:current-layer="svg9" />
  <linearGradient
     id="_lgradient_32"
     x1="0"
     y1="0.5"
     x2="1"
     y2="0.5"
     gradientTransform="matrix(21.191906,0,0,21.208688,13.40414,13.222024)"
     gradientUnits="userSpaceOnUse">
    <stop
       offset="0%"
       stop-opacity="1"
       style="stop-color:rgb(255,153,102)"
       id="stop2" />
    <stop
       offset="98.26086956521739%"
       stop-opacity="1"
       style="stop-color:rgb(255,94,98)"
       id="stop4" />
  </linearGradient>
  <rect
     x="-46.783188"
     y="1.2253767"
     height="45.80014"
     rx="6.1837621"
     shape-rendering="crispEdges"
     id="rect5-6-7-3"
     ry="6.8055277"
     transform="matrix(0.00524063,-0.99998627,0.99998801,0.00489691,0,0)"
     style="isolation:isolate;fill:#ff0078;fill-opacity:0.13470298;stroke:url(#linearGradient872);stroke-width:2.0301;stroke-miterlimit:4;stroke-dasharray:none;stroke-opacity:1"
     width="45.801998" />
  <rect
     x="-15.686804"
     y="17.260084"
     height="33.345856"
     rx="6.7920032"
     shape-rendering="crispEdges"
     id="rect5-6-6-6-6"
     style="isolation:isolate;fill:#ff0078;fill-opacity:0.13470298;stroke:url(#linearGradient15);stroke-width:1.67233;stroke-miterlimit:4;stroke-dasharray:none;stroke-opacity:1"
     ry="7.4743071"
     transform="matrix(0.72446484,-0.68931175,0.68622417,0.72739012,0,0)"
     width="33.338203" />
  <path
     style="color:#000000;fill:url(#linearGradient1148);fill-rule:evenodd;-inkscape-stroke:none"
     d="m 14.630859,12.830078 c -0.514675,-0.172654 -1.062493,-0.1577 -1.421875,0.205078 -0.359381,0.362779 -0.369126,0.910678 -0.191406,1.423828 l 1.441406,4.158203 0.08008,-0.146484 h 0.002 c -0.899727,1.613477 -1.368811,3.428009 -1.369141,5.271484 -0.01007,3.721036 1.910614,7.19494 5.068359,9.166016 0.6791,0.423533 1.589308,0.215366 2.013672,-0.462891 0.424126,-0.678602 0.211984,-1.588385 -0.466797,-2.011718 -2.303405,-1.437938 -3.701774,-3.970093 -3.697265,-6.689453 0,-1.341842 0.342562,-2.660251 0.990234,-3.837891 l 0.660156,-0.833984 -0.105468,-0.267579 -0.419922,-1.076171 -0.261719,-0.789063 1.199219,0.289063 0.828125,0.144531 1.361328,-0.486328 0.02734,-0.01367 c 1.085887,-0.545197 2.284368,-0.828125 3.496093,-0.828125 0.311513,0 0.617241,0.01651 0.929688,0.05273 0.792109,0.09454 1.523164,-0.480744 1.617187,-1.273437 0.09413,-0.793626 -0.48003,-1.527228 -1.273437,-1.623047 h -0.002 c -0.422192,-0.05026 -0.844325,-0.07422 -1.271485,-0.07422 -1.670174,0 -3.315583,0.391607 -4.808593,1.140625 l -0.05859,0.0293 z m -0.710937,0.908203 c -0.0043,0.0044 0.08112,-0.06347 0.392578,0.04102 l 4.763672,1.599609 0.429687,-0.216797 0.002,-0.002 c 1.354479,-0.679084 2.844714,-1.033203 4.357422,-1.033203 0.387296,0 0.769665,0.02288 1.152344,0.06836 0.254728,0.03076 0.430919,0.254334 0.400391,0.511718 -0.03056,0.257651 -0.250607,0.429264 -0.50586,0.398438 h -0.002 c -0.349231,-0.04049 -0.694759,-0.06055 -1.044922,-0.06055 -1.367858,0 -2.720124,0.320411 -3.945312,0.935547 l 0.05664,-0.02539 -1.083984,0.386719 -0.537109,-0.0918 -2.916016,-0.701172 0.833984,2.519531 0.326172,0.833985 -0.367187,0.46289 -0.01953,0.03711 c -0.735819,1.329547 -1.122716,2.822155 -1.123047,4.339843 -0.0051,3.06312 1.571127,5.919897 4.167968,7.541016 0.220717,0.137654 0.283345,0.411883 0.146485,0.630859 -0.136225,0.217727 -0.412726,0.282362 -0.632813,0.146485 -2.864474,-1.788016 -4.608741,-4.941197 -4.599609,-8.316406 0,-1.67521 0.425707,-3.322919 1.242188,-4.78711 l 0.134765,-0.24414 -1.585937,-4.582032 c -0.107568,-0.31059 -0.03864,-0.396948 -0.04297,-0.392578 z M 28.658203,14.5625 c -0.365022,0.08404 -0.697974,0.305403 -0.910156,0.644531 -0.4245,0.678478 -0.214155,1.588251 0.464844,2.011719 2.303405,1.437939 3.701775,3.970092 3.697265,6.689453 v 0.002 c 0,1.340388 -0.341978,2.657313 -0.988281,3.833985 l -0.662109,0.835937 0.105468,0.267578 0.419922,1.076172 0.261719,0.787109 -1.199219,-0.287109 -0.828125,-0.144531 -1.361328,0.486328 -0.02734,0.01367 c -1.085888,0.545196 -2.28437,0.830078 -3.496093,0.830078 -0.310861,0 -0.61597,-0.01861 -0.927735,-0.05469 h -0.002 c -0.791542,-0.09447 -1.522916,0.481087 -1.617187,1.273438 -0.09413,0.793626 0.480029,1.527228 1.273437,1.623047 h 0.002 c 0.422192,0.05026 0.844325,0.07617 1.271485,0.07617 1.670174,0 3.315583,-0.39356 4.808593,-1.142578 l 0.05859,-0.0293 4.367188,1.466797 c 0.514638,0.17294 1.062493,0.157702 1.421875,-0.205079 0.359381,-0.36278 0.368803,-0.908796 0.191406,-1.421875 l -1.441406,-4.160156 -0.07813,0.140625 c 0.897483,-1.612283 1.365234,-3.424157 1.365234,-5.265625 0.01007,-3.721036 -1.910614,-7.194939 -5.068359,-9.166015 -0.33955,-0.211767 -0.736541,-0.26568 -1.101563,-0.181641 z m 0.572266,1.03125 c 2.864474,1.788016 4.606788,4.939243 4.597656,8.314453 v 0.002 c 0,1.675209 -0.425707,3.320967 -1.242188,4.785156 l -0.134765,0.244141 1.585937,4.582031 c 0.107412,0.310661 0.03852,0.39707 0.04297,0.392578 0.0044,-0.0045 -0.08108,0.06366 -0.392578,-0.04102 l -4.763672,-1.59961 -0.429687,0.21875 v -0.002 c -1.35508,0.679821 -2.845827,1.03711 -4.359375,1.03711 -0.387296,0 -0.769665,-0.02288 -1.152344,-0.06836 -0.254727,-0.03076 -0.430919,-0.254334 -0.400391,-0.511718 v -0.002 c 0.03026,-0.257052 0.250644,-0.429259 0.50586,-0.398437 h 0.002 c 0.34923,0.04049 0.694759,0.0625 1.044922,0.0625 1.367857,0 2.720124,-0.320412 3.945312,-0.935547 l -0.05664,0.02344 1.083985,-0.386719 0.537109,0.0918 2.916016,0.701172 -0.833985,-2.517579 -0.326171,-0.833984 0.367187,-0.464844 0.01953,-0.03516 c 0.736134,-1.330118 1.123047,-2.823436 1.123047,-4.341797 0.0051,-3.063121 -1.571127,-5.919895 -4.167969,-7.541015 -0.220498,-0.137518 -0.282969,-0.412716 -0.146484,-0.63086 0.136623,-0.218363 0.414368,-0.281986 0.634766,-0.144531 z m -8.205078,3.177734 c -0.174121,-0.0034 -0.335963,-0.0066 -0.503907,0.01563 h -0.002 -0.002 c -0.501828,0.07104 -0.826226,0.388674 -1.013672,0.619141 -0.206603,0.251024 -0.449758,0.620192 -0.611328,1.109375 l -0.0039,0.0078 -0.002,0.0078 c -0.0087,0.02961 -0.0184,0.06173 -0.03125,0.103516 l -0.002,0.0039 -0.002,0.0039 c -0.18457,0.639654 -0.145144,1.314804 0.07031,1.929688 0.181434,0.517515 0.445639,1.135472 0.845703,1.789062 0.676365,1.111215 1.422371,1.807729 1.898438,2.242188 0.533312,0.491982 1.246335,1.144107 2.357421,1.677734 1.029529,0.494847 1.963659,0.678041 2.587891,0.753906 h 0.0059 l 0.0059,0.002 c 0.292174,0.02747 0.814441,0.03016 1.412109,-0.195312 h 0.002 l 0.002,-0.002 c 0.26779,-0.104016 0.500178,-0.231791 0.695313,-0.375 0.517646,-0.369238 0.890031,-0.929869 0.986328,-1.576172 l 0.0039,-0.03516 v -0.04883 l -0.0039,0.06836 c 0.01096,-0.07949 3.64e-4,-0.131009 0.0039,-0.203125 l 0.04492,-0.01563 -0.03516,-0.384766 v -0.0059 C 29.707846,25.975367 29.527674,25.704849 29.25,25.580078 28.516632,25.243339 27.780985,24.906503 27.048828,24.570312 h -0.002 c -0.279642,-0.126817 -0.621062,-0.06423 -0.832031,0.185547 l -0.867188,0.976563 c -0.466779,-0.202635 -1.044421,-0.493039 -1.65039,-1.015625 -0.69036,-0.591793 -1.053718,-1.180311 -1.326172,-1.646485 0.202671,-0.192535 0.406142,-0.296835 0.542968,-0.714843 -0.0032,0.01036 -0.0033,0.01702 -0.0059,0.02344 -0.01626,0.04108 -0.03363,0.06768 -0.04687,0.08789 -0.02648,0.04042 -0.05859,0.07227 -0.05859,0.07227 l 0.08203,-0.08398 0.0332,-0.103516 0.0039,-0.0078 c 4.29e-4,-0.0013 -4.26e-4,-0.0026 0,-0.0039 l 0.01953,-0.06445 v -0.07813 c 0,-4.75e-4 -0.01182,0.107892 -0.01172,0.107421 3.9e-5,-1.73e-4 -0.0049,0.01702 -0.0078,0.02734 0.139969,-0.439511 0.106704,-0.89741 -0.04102,-1.302734 v -0.002 -0.002 c -0.100494,-0.267502 -0.250668,-0.659694 -0.398437,-1.011719 -0.07389,-0.176013 -0.147495,-0.341221 -0.216797,-0.482422 -0.0693,-0.141201 -0.0933,-0.232542 -0.246094,-0.388672 l -0.002,-0.002 -0.002,-0.002 c -0.04061,-0.04061 -0.06987,-0.06657 -0.07422,-0.07031 l -0.002,-0.002 c -0.202943,-0.18211 -0.46007,-0.27531 -0.716797,-0.289062 -0.07061,-0.0047 -0.132101,-0.0059 -0.1875,-0.0059 z m -0.0098,1 h 0.0059 0.0039 c 0.05993,0 0.105422,-2e-5 0.132812,0.002 l 0.0059,0.002 h 0.0059 c 0.04784,0.0024 0.08157,0.01908 0.101562,0.03711 l 0.0039,0.002 0.002,0.002 c 0,0 0.0173,0.01578 0.02734,0.02539 -0.07584,-0.0775 0.0079,0.01956 0.0625,0.130859 0.05463,0.111303 0.123941,0.262361 0.19336,0.427735 0.138262,0.329376 0.282849,0.711842 0.380859,0.972656 0.08228,0.225765 0.09299,0.45617 0.0293,0.65625 -0.0018,0.0057 -0.0021,0.0077 -0.0039,0.01367 -0.11705,0.362154 -0.386889,0.565033 -0.490235,0.634765 l -0.376953,0.25586 0.21875,0.398437 c 0.293776,0.535708 0.823633,1.368147 1.726563,2.142578 0.75348,0.649799 1.499179,1.035164 2.052734,1.263672 0.30554,0.126518 0.663619,0.03623 0.876953,-0.207031 l 0.853516,-0.960938 c 0.635651,0.291629 1.273697,0.581831 1.908203,0.873047 0.0041,0.09152 0.0095,0.181477 -0.0059,0.292969 v 0.0059 l -0.002,0.002 c -0.05382,0.355762 -0.264362,0.686303 -0.576172,0.908203 l -0.0039,0.002 -0.002,0.002 c -0.117352,0.08658 -0.273088,0.175069 -0.464843,0.25 -0.412383,0.15557 -0.772992,0.152193 -0.960938,0.134766 -0.551366,-0.06753 -1.363739,-0.227601 -2.263672,-0.660157 -0.978383,-0.469893 -1.584273,-1.023848 -2.115234,-1.513672 l -0.002,-0.002 c -0.467301,-0.426459 -1.114229,-1.03173 -1.71875,-2.02539 -0.356549,-0.582499 -0.59303,-1.133205 -0.75586,-1.597657 -0.151588,-0.432612 -0.174422,-0.896994 -0.05273,-1.320312 1.8e-4,-6.25e-4 -1.8e-4,-0.0013 0,-0.002 0.0083,-0.02666 0.01902,-0.05571 0.0293,-0.08984 0.11501,-0.348214 0.290672,-0.61535 0.435547,-0.791016 l 0.002,-0.002 c 0.104413,-0.128377 0.242788,-0.237755 0.376953,-0.257812 0.05544,-0.007 0.194896,-0.01106 0.359375,-0.0078 z"
     id="path7" />
</svg>
