<?xml version="1.0" encoding="UTF-8" standalone="no"?>
<!-- Generator: Gravit.io -->

<svg
   style="isolation:isolate"
   viewBox="0 0 48 48"
   width="48pt"
   height="48pt"
   version="1.1"
   id="svg11"
   sodipodi:docname="livepatch.svg"
   inkscape:version="1.1.2 (0a00cf5339, 2022-02-04)"
   xmlns:inkscape="http://www.inkscape.org/namespaces/inkscape"
   xmlns:sodipodi="http://sodipodi.sourceforge.net/DTD/sodipodi-0.dtd"
   xmlns:xlink="http://www.w3.org/1999/xlink"
   xmlns="http://www.w3.org/2000/svg"
   xmlns:svg="http://www.w3.org/2000/svg">
  <defs
     id="defs15">
    <linearGradient
       inkscape:collect="always"
       xlink:href="#_lgradient_20"
       id="linearGradient872"
       x1="-12.025727"
       y1="6.1170783"
       x2="-0.085100174"
       y2="6.1170783"
       gradientUnits="userSpaceOnUse"
       gradientTransform="matrix(3.8358211,0,0,3.8371386,-0.00544341,-0.00268054)" />
    <linearGradient
       id="_lgradient_1"
       x1="0.18336116"
       y1="0.24917752"
       x2="0.9027437"
       y2="0.90347725"
       gradientTransform="matrix(24.617266,0,0,24.816118,10.841288,10.089605)"
       gradientUnits="userSpaceOnUse">
      <stop
         offset="2.608695652173913%"
         stop-opacity="1"
         style="stop-color:rgb(179,255,171)"
         id="stop2-3" />
      <stop
         offset="98.69565217391305%"
         stop-opacity="1"
         style="stop-color:rgb(18,255,247)"
         id="stop4-6" />
    </linearGradient>
    <linearGradient
       inkscape:collect="always"
       xlink:href="#_lgradient_20"
       id="linearGradient15"
       x1="-9.6850061"
       y1="45.161198"
       x2="11.98815"
       y2="21.735205"
       gradientUnits="userSpaceOnUse"
       gradientTransform="matrix(1.1147442,0,0,1.1150348,-0.01237238,-3.3277956)" />
    <linearGradient
       inkscape:collect="always"
       xlink:href="#_lgradient_20"
       id="linearGradient880"
       x1="10.661877"
       y1="23.999807"
       x2="37.338062"
       y2="23.999807"
       gradientUnits="userSpaceOnUse" />
  </defs>
  <sodipodi:namedview
     id="namedview13"
     pagecolor="#ffffff"
     bordercolor="#666666"
     borderopacity="1.0"
     inkscape:pageshadow="2"
     inkscape:pageopacity="0.0"
     inkscape:pagecheckerboard="0"
     inkscape:document-units="pt"
     showgrid="false"
     inkscape:zoom="10.21875"
     inkscape:cx="31.95107"
     inkscape:cy="32"
     inkscape:window-width="1600"
     inkscape:window-height="836"
     inkscape:window-x="0"
     inkscape:window-y="0"
     inkscape:window-maximized="1"
     inkscape:current-layer="svg11" />
  <linearGradient
     id="_lgradient_20"
     x1="0.34027777777777773"
     y1="0.036585365853658625"
     x2="1.0087187958883996"
     y2="1.012732351993124"
     gradientTransform="matrix(-31.836479,-17.647463,-17.700806,31.932612,48.768923,16.857346)"
     gradientUnits="userSpaceOnUse">
    <stop
       offset="0%"
       stop-opacity="1"
       style="stop-color:rgb(156,51,196)"
       id="stop2" />
    <stop
       offset="51.30434782608696%"
       stop-opacity="1"
       style="stop-color:rgb(255,25,80)"
       id="stop4" />
    <stop
       offset="98.69565217391305%"
       stop-opacity="1"
       style="stop-color:rgb(255,135,36)"
       id="stop6" />
  </linearGradient>
  <rect
     x="-46.783188"
     y="1.2253767"
     height="45.80014"
     rx="6.1837621"
     shape-rendering="crispEdges"
     id="rect5-6-7-3"
     ry="6.8055277"
     transform="matrix(0.00524063,-0.99998627,0.99998801,0.00489691,0,0)"
     style="isolation:isolate;fill:#ff6100;fill-opacity:0.13470298;stroke:url(#linearGradient872);stroke-width:2.0301;stroke-miterlimit:4;stroke-dasharray:none;stroke-opacity:1"
     width="45.801998" />
  <rect
     x="-15.686804"
     y="17.260084"
     height="33.345856"
     rx="6.7920032"
     shape-rendering="crispEdges"
     id="rect5-6-6-6-6"
     style="isolation:isolate;fill:#ff6100;fill-opacity:0.13470298;stroke:url(#linearGradient15);stroke-width:1.67233;stroke-miterlimit:4;stroke-dasharray:none;stroke-opacity:1"
     ry="7.4743071"
     transform="matrix(0.72446484,-0.68931175,0.68622417,0.72739012,0,0)"
     width="33.338203" />
  <path
     style="color:#000000;fill:url(#linearGradient880);fill-rule:evenodd;-inkscape-stroke:none"
     d="m 23.96875,10.021484 c -0.917972,0 -1.673828,0.753903 -1.673828,1.671875 0,0.918314 0.756158,1.673829 1.673828,1.673829 1.7983,-0.0011 3.564549,0.459542 5.142578,1.333984 1.738742,0.963727 3.166893,2.38935 4.130859,4.126953 h 0.002 v 0.002 c 0.448557,0.799747 1.472996,1.091335 2.27539,0.646484 0.803845,-0.444361 1.096402,-1.473067 0.650391,-2.27539 -1.271712,-2.28264 -3.156592,-4.161313 -5.4375,-5.425781 -2.068393,-1.146676 -4.397026,-1.748436 -6.763672,-1.753907 z m -0.002,1 c 2.198501,0.0051 4.361295,0.564522 6.28125,1.628907 2.117766,1.174027 3.867977,2.917559 5.048828,5.037109 0.183543,0.330172 0.06889,0.732386 -0.259766,0.914062 h -0.002 c -0.328926,0.182359 -0.734627,0.06517 -0.917969,-0.261718 v 0.0039 C 33.06236,16.442365 31.497122,14.880066 29.595703,13.826172 27.871212,12.87057 25.938396,12.365933 23.96875,12.367188 c -0.376608,0 -0.673828,-0.296691 -0.673828,-0.673829 0,-0.375761 0.296347,-0.671014 0.671875,-0.671875 z m 0.839844,5.498047 c -0.974312,-0.111255 -1.971082,-0.03417 -2.929688,0.238281 h -0.002 c -1.91472,0.553699 -3.541875,1.846394 -4.509766,3.59375 -0.968449,1.7466 -1.203783,3.813089 -0.658203,5.730469 l 0.002,0.002 c 0.553708,1.914747 1.844634,3.541353 3.591797,4.509766 1.746681,0.968494 3.813258,1.201154 5.730469,0.65625 h 0.002 c 1.914843,-0.553736 3.541366,-1.847239 4.509766,-3.59375 0.967798,-1.746559 1.203135,-3.811208 0.658203,-5.728516 l -0.002,-0.002 c -0.553736,-1.914844 -1.845286,-3.543319 -3.591797,-4.511719 -0.87334,-0.484246 -1.82647,-0.783276 -2.800781,-0.894531 z m -0.115235,0.992188 c 0.845621,0.09654 1.67287,0.357705 2.429688,0.777343 1.513805,0.839371 2.636906,2.253227 3.117187,3.914063 0.471975,1.662526 0.268167,3.45557 -0.570312,4.96875 -0.83937,1.513806 -2.251275,2.636906 -3.91211,3.117187 -1.662624,0.472003 -3.455691,0.268644 -4.96875,-0.570312 -1.513546,-0.838924 -2.636463,-2.252289 -3.117187,-3.912109 -0.473195,-1.662991 -0.270961,-3.456988 0.568359,-4.970704 0.838273,-1.513353 2.252261,-2.634503 3.91211,-3.115234 0.831579,-0.236349 1.695394,-0.305529 2.541015,-0.208984 z m -0.15039,1.335937 c -0.671082,-0.07726 -1.355805,-0.02385 -2.017579,0.166016 -1.323325,0.379669 -2.442736,1.272326 -3.109375,2.474609 -0.6667,1.202395 -0.830862,2.623865 -0.451171,3.947266 0.379669,1.323325 1.272157,2.441338 2.474609,3.107422 1.202208,0.666596 2.623268,0.832799 3.947266,0.453125 1.323366,-0.379681 2.440849,-1.2744 3.107421,-2.476563 0.6667,-1.202395 0.832136,-2.622018 0.453125,-3.945312 v -0.002 C 28.565643,21.24894 27.673155,20.130928 26.470703,19.464844 v 0.002 c -0.601137,-0.333316 -1.258606,-0.541882 -1.929687,-0.619141 z m -0.113282,0.992188 c 0.541865,0.0624 1.071006,0.230727 1.556641,0.5 0.971092,0.537925 1.693842,1.442661 2,2.509765 0.30494,1.066597 0.170972,2.214975 -0.367188,3.185547 -0.538608,0.971381 -1.440749,1.691901 -2.507812,1.998047 -1.067606,0.306151 -2.214211,0.173349 -3.185547,-0.365234 h -0.002 c -0.971092,-0.537925 -1.691889,-1.440708 -1.998047,-2.507813 -0.306136,-1.067029 -0.173246,-2.216351 0.365234,-3.1875 0.538543,-0.971261 1.442662,-1.691889 2.509766,-1.998047 0.533442,-0.153047 1.087041,-0.197164 1.628906,-0.134765 z m 11.949219,4.066406 c -0.911047,-0.117204 -1.755879,0.534561 -1.873047,1.445312 v 0.002 0.002 c -0.163659,1.333293 -0.591509,2.625249 -1.246094,3.80664 -0.857608,1.547277 -2.088897,2.856187 -3.578125,3.810547 -0.774101,0.492853 -1.006837,1.534808 -0.513671,2.308594 0.493041,0.773596 1.535432,1.003904 2.308593,0.509766 1.964048,-1.247527 3.578973,-2.971716 4.707032,-5.007813 0.860476,-1.552017 1.420537,-3.250825 1.642578,-5.005859 0.116344,-0.910865 -0.536591,-1.754661 -1.447266,-1.871094 z M 36.25,24.896484 c 0.373053,0.0477 0.629807,0.37987 0.582031,0.753907 v 0.002 c -0.205868,1.627206 -0.723861,3.20431 -1.523437,4.646484 -1.047831,1.891289 -2.549609,3.491464 -4.371094,4.648438 l -0.002,0.002 c -0.316951,0.203121 -0.722816,0.111426 -0.925781,-0.207032 -0.20269,-0.318023 -0.113043,-0.724735 0.207031,-0.927734 h 0.002 c 1.628061,-1.043331 2.975623,-2.474858 3.914062,-4.167969 0.714119,-1.288838 1.183103,-2.702226 1.363282,-4.166015 0.04813,-0.374149 0.380052,-0.63208 0.753906,-0.583985 z m -23.158203,1.957032 c -0.90747,-0.03949 -1.749719,0.548374 -2.025391,1.414062 l -0.824218,2.583984 c -0.2794855,0.873389 0.208163,1.822191 1.082031,2.101563 0.59651,0.191047 1.151107,-0.06183 1.580078,-0.466797 1.16381,1.516157 2.590984,2.816153 4.271484,3.748047 1.902814,1.054418 4.029444,1.655209 6.207031,1.742187 0.916762,0.03654 1.702655,-0.685916 1.740235,-1.603515 v -0.002 c 0.03628,-0.917395 -0.688203,-1.702877 -1.605469,-1.740235 h -0.002 c -1.653031,-0.06547 -3.269082,-0.51876 -4.71875,-1.322265 -1.35128,-0.748866 -2.482806,-1.811635 -3.390625,-3.056641 0.858596,-0.03435 1.587418,-0.686147 1.623047,-1.558594 0.03823,-0.915016 -0.679111,-1.699934 -1.59375,-1.738281 z m -0.04297,0.998046 2.34375,0.101563 c 0.371434,0.01557 0.654371,0.323474 0.638672,0.699219 -0.01528,0.37415 -0.323332,0.656729 -0.701172,0.642578 l -1.878906,-0.07617 0.541016,0.814453 0.24414,0.371094 c 1.032885,1.573999 2.432463,2.866417 4.076172,3.777344 1.585557,0.878823 3.353961,1.377526 5.164062,1.449218 0.377531,0.01538 0.661846,0.323963 0.646485,0.701172 -0.01501,0.376951 -0.324289,0.661505 -0.701172,0.646485 -2.01944,-0.08066 -3.993892,-0.639525 -5.761719,-1.619141 -1.718419,-0.952922 -3.194461,-2.280402 -4.320312,-3.880859 L 12.789063,30.695312 12.460938,31.59375 C 12.337506,31.931582 11.976683,32.111384 11.628906,32 11.27063,31.88546 11.078933,31.513832 11.193359,31.15625 l 0.826172,-2.585938 c 0.117068,-0.367627 0.64366,-0.735531 1.029297,-0.71875 z m 13.691406,6.47461 c -0.412499,0.118279 -0.779536,0.393325 -1.001953,0.794922 -0.444894,0.802472 -0.15085,1.828605 0.652344,2.273437 0.802472,0.444895 1.828605,0.15085 2.273437,-0.652344 0.445023,-0.802703 0.150162,-1.828525 -0.652343,-2.273437 -0.401236,-0.222447 -0.858985,-0.260857 -1.271485,-0.142578 z m 0.78711,1.017578 c 0.328817,0.182297 0.443905,0.585445 0.261718,0.914062 -0.182376,0.329302 -0.585214,0.444034 -0.914062,0.261719 -0.329301,-0.182377 -0.444034,-0.585214 -0.261719,-0.914062 0.182377,-0.329301 0.585214,-0.444034 0.914063,-0.261719 z"
     id="path9" />
</svg>
