<?xml version="1.0" encoding="UTF-8" standalone="no"?>
<!-- Generator: Gravit.io -->

<svg
   style="isolation:isolate"
   viewBox="0 0 48 48"
   width="48pt"
   height="48pt"
   version="1.1"
   id="svg9"
   sodipodi:docname="logisim-icon.svg"
   inkscape:version="1.1.2 (0a00cf5339, 2022-02-04)"
   xmlns:inkscape="http://www.inkscape.org/namespaces/inkscape"
   xmlns:sodipodi="http://sodipodi.sourceforge.net/DTD/sodipodi-0.dtd"
   xmlns:xlink="http://www.w3.org/1999/xlink"
   xmlns="http://www.w3.org/2000/svg"
   xmlns:svg="http://www.w3.org/2000/svg">
  <defs
     id="defs13">
    <linearGradient
       inkscape:collect="always"
       xlink:href="#_lgradient_22"
       id="linearGradient872"
       x1="-12.025727"
       y1="6.1170783"
       x2="-0.085100174"
       y2="6.1170783"
       gradientUnits="userSpaceOnUse"
       gradientTransform="matrix(3.8358211,0,0,3.8371386,-0.00544341,-0.00268048)" />
    <linearGradient
       id="_lgradient_1"
       x1="0.18336116"
       y1="0.24917752"
       x2="0.9027437"
       y2="0.90347725"
       gradientTransform="matrix(24.617266,0,0,24.816118,10.841288,10.089605)"
       gradientUnits="userSpaceOnUse">
      <stop
         offset="2.608695652173913%"
         stop-opacity="1"
         style="stop-color:rgb(179,255,171)"
         id="stop2-3" />
      <stop
         offset="98.69565217391305%"
         stop-opacity="1"
         style="stop-color:rgb(18,255,247)"
         id="stop4-6" />
    </linearGradient>
    <linearGradient
       inkscape:collect="always"
       xlink:href="#_lgradient_22"
       id="linearGradient15"
       x1="-9.6850061"
       y1="45.161198"
       x2="11.98815"
       y2="21.735205"
       gradientUnits="userSpaceOnUse"
       gradientTransform="matrix(1.1147442,0,0,1.1150348,-0.01040355,-3.3259298)" />
    <linearGradient
       inkscape:collect="always"
       xlink:href="#_lgradient_22"
       id="linearGradient986"
       x1="10.641197"
       y1="24"
       x2="37.358803"
       y2="24"
       gradientUnits="userSpaceOnUse" />
  </defs>
  <sodipodi:namedview
     id="namedview11"
     pagecolor="#ffffff"
     bordercolor="#666666"
     borderopacity="1.0"
     inkscape:pageshadow="2"
     inkscape:pageopacity="0.0"
     inkscape:pagecheckerboard="0"
     inkscape:document-units="pt"
     showgrid="false"
     inkscape:zoom="7.2257474"
     inkscape:cx="32.038208"
     inkscape:cy="31.969011"
     inkscape:window-width="1600"
     inkscape:window-height="836"
     inkscape:window-x="0"
     inkscape:window-y="0"
     inkscape:window-maximized="1"
     inkscape:current-layer="svg9" />
  <linearGradient
     id="_lgradient_22"
     x1="0"
     y1="0.5"
     x2="1"
     y2="0.5"
     gradientTransform="matrix(26.717605,0,0,27.298423,10.641198,10.350789)"
     gradientUnits="userSpaceOnUse">
    <stop
       offset="0%"
       stop-opacity="1"
       style="stop-color:rgb(24,208,173)"
       id="stop2" />
    <stop
       offset="90.44964029999998%"
       stop-opacity="1"
       style="stop-color:rgb(7,195,242)"
       id="stop4" />
  </linearGradient>
  <rect
     x="-46.783188"
     y="1.2253768"
     height="45.80014"
     rx="6.1837621"
     shape-rendering="crispEdges"
     id="rect5-6-7-3"
     ry="6.8055277"
     transform="matrix(0.00524063,-0.99998627,0.99998801,0.00489691,0,0)"
     style="isolation:isolate;fill:#009dff;fill-opacity:0.13470298;stroke:url(#linearGradient872);stroke-width:2.0301;stroke-miterlimit:4;stroke-dasharray:none;stroke-opacity:1"
     width="45.801998" />
  <rect
     x="-15.684835"
     y="17.26195"
     height="33.345856"
     rx="6.7920032"
     shape-rendering="crispEdges"
     id="rect5-6-6-6-6"
     style="isolation:isolate;fill:#009dff;fill-opacity:0.13470298;stroke:url(#linearGradient15);stroke-width:1.67233;stroke-miterlimit:4;stroke-dasharray:none;stroke-opacity:1"
     ry="7.4743071"
     transform="matrix(0.72446484,-0.68931175,0.68622417,0.72739012,0,0)"
     width="33.338203" />
  <path
     style="color:#000000;fill:url(#linearGradient986);fill-rule:evenodd;-inkscape-stroke:none"
     d="m 24,9.8515625 c -3.943791,0 -7.713471,1.6489205 -10.392578,4.5507815 -0.619963,0.669493 -0.578397,1.729525 0.0918,2.347656 0.670456,0.61838 1.730022,0.575339 2.349609,-0.09375 v -0.002 C 18.097833,14.438707 20.980062,13.173828 24,13.173828 c 2.14205,0 4.235029,0.638227 6.017578,1.826172 1.77656,1.188075 3.170708,2.88218 3.986328,4.857422 v 0.002 c 0.350541,0.842127 1.329751,1.249484 2.171875,0.900391 0.841794,-0.348953 1.248285,-1.328904 0.902344,-2.171875 v -0.002 c -1.07189,-2.583377 -2.891619,-4.790761 -5.214844,-6.349609 v -0.002 C 29.53382,10.681401 26.799723,9.8515625 24,9.8515625 Z m 0,1.0000005 c 2.601278,0 5.140903,0.77144 7.306641,2.214843 2.15993,1.44928 3.849749,3.503384 4.845703,5.902344 0.140784,0.343055 -0.01862,0.725931 -0.359375,0.867187 -0.340418,0.141117 -0.722082,-0.01742 -0.865235,-0.361328 -0.892071,-2.159502 -2.413316,-4.007178 -4.353515,-5.304687 v -0.002 C 28.628247,12.870654 26.341263,12.173828 24,12.173828 c -3.299349,0 -6.446169,1.383405 -8.683594,3.802735 -0.252799,0.272996 -0.665871,0.289593 -0.9375,0.03906 -0.271891,-0.25077 -0.289534,-0.661002 -0.03711,-0.933594 v -0.002 C 16.831961,12.38287 20.335089,10.851562 24,10.851563 Z m -3.484375,3.320312 c -0.671156,0 -1.284786,0.405592 -1.537109,1.033203 -0.256148,0.624043 -0.107385,1.344257 0.373046,1.816406 l 0.002,0.002 c 0.571014,0.555005 1.017456,1.220738 1.310546,1.955079 3.38e-4,8.45e-4 0.0016,0.0011 0.002,0.002 0.326029,0.855142 0.500832,1.765499 0.511718,2.679687 0.01054,0.909259 0.753341,1.656896 1.66211,1.666016 C 23.761672,23.335407 24.5,22.552917 24.5,21.625 v -0.002 -0.0039 c -0.01204,-1.300771 -0.264103,-2.588136 -0.728516,-3.810547 0.08171,0.01739 0.162192,0.02592 0.244141,0.04492 l 0.002,0.002 h 0.002 c 0.926211,0.207035 1.809441,0.583081 2.613281,1.107422 0.776864,0.529635 1.436351,1.216492 1.939454,2.011718 0.297442,0.468198 0.55658,0.971173 0.765625,1.488282 0.212155,0.530689 0.38713,1.058927 0.390625,1.072265 0.0489,0.186518 0.05469,0.696178 0.0098,0.882813 -0.07129,0.295474 -0.429132,1.243404 -0.888672,2.068359 h -0.002 v 0.002 c -0.44845,0.809398 -1.033663,1.535655 -1.728515,2.148438 -0.680373,0.592855 -1.462474,1.059981 -2.308594,1.36914 -0.378674,0.137422 -0.781873,0.179155 -1.175781,0.259766 0.02076,-0.05006 0.05044,-0.09597 0.07031,-0.146484 v -0.002 c 0.466664,-1.19999 0.74025,-2.4738 0.794922,-3.761718 0.03653,-0.916492 -0.715746,-1.682582 -1.634766,-1.6875 -0.899659,-0.0048 -1.689453,0.676946 -1.689453,1.568359 l 0.002,-0.02148 c -0.03834,0.920114 -0.2296,1.823715 -0.564453,2.685547 -0.578326,1.438994 -1.677734,2.68164 -1.677734,2.68164 l 0.132812,-0.105469 c -0.475027,0.25725 -0.844534,0.556441 -0.914062,1.052735 -0.02002,0.142925 0.07447,0.267926 0.128906,0.40625 -0.781118,-0.499385 -1.617846,-0.918209 -2.255859,-1.613281 -0.616118,-0.670693 -1.675849,-0.713523 -2.345703,-0.0957 -0.669594,0.617576 -0.713884,1.676837 -0.09766,2.347657 2.679169,2.913972 6.460018,4.574218 10.416016,4.574218 2.739421,0 5.423996,-0.793248 7.71875,-2.292968 2.293988,-1.493201 4.112578,-3.62358 5.220703,-6.128907 0.37016,-0.831409 -0.01258,-1.818027 -0.84375,-2.189453 -0.832897,-0.372196 -1.821904,0.0093 -2.195312,0.841797 h -0.002 v 0.002 C 33.049036,30.301727 31.661,31.928347 29.90625,33.072266 28.145859,34.215832 26.097889,34.826172 24,34.826172 c -1.679178,0 -3.272678,-0.469074 -4.75,-1.199219 0.166883,0.0251 1.286402,0.201172 2.607422,0.201172 1.393292,0.01143 2.775603,-0.224794 4.083984,-0.697266 l 0.002,-0.002 c 1.236891,-0.450886 2.381419,-1.126377 3.375,-1.998047 h 0.002 c 0.977955,-0.862542 1.803561,-1.888814 2.435547,-3.03125 0.705773,-1.266772 1.192171,-2.59977 1.365235,-3.486328 0.08139,-0.420081 0.07476,-0.921623 -0.01758,-1.339844 -0.08281,-0.373349 -0.340027,-1.205601 -0.681641,-2.05664 h -0.002 C 32.13524,20.514176 31.785365,19.837229 31.380859,19.197266 30.629488,18.006068 29.64066,16.986928 28.480469,16.199219 l -0.0039,-0.0039 -0.002,-0.002 C 27.338459,15.446053 26.073841,14.913111 24.75,14.615234 23.38354,14.304947 21.980546,14.15443 20.572266,14.171875 Z m 0,1 h 0.06055 0.0039 c 1.331205,-0.01693 2.655479,0.124637 3.947266,0.417969 h 0.002 c 1.206178,0.271113 2.356186,0.757733 3.390625,1.4375 1.045918,0.710584 1.938292,1.629924 2.615234,2.703125 0.37379,0.591369 0.697699,1.216452 0.958985,1.861328 0.320116,0.797886 0.583237,1.67296 0.632812,1.896484 0.0459,0.207899 0.05231,0.726024 0.01172,0.935547 -0.139685,0.714421 -0.604821,2.017417 -1.257813,3.189453 v 0.002 c -0.576114,1.041436 -1.330378,1.978648 -2.222656,2.765625 -0.899412,0.788608 -1.93821,1.400179 -3.058594,1.808594 -1.198381,0.432506 -2.462437,0.649767 -3.738281,0.638672 h -0.002 -0.002 c -1.290539,0 -2.549818,-0.192259 -2.595703,-0.199219 -0.02456,-0.0095 -0.02431,-0.01101 -0.04102,-0.01953 0.0234,-0.02018 0.05196,-0.106465 0.324219,-0.253906 l 0.07617,-0.04102 0.05859,-0.06445 c 0,0 1.198018,-1.322372 1.863282,-2.982422 v -0.002 l 0.002,-0.002 c 0.373745,-0.961933 0.587883,-1.974428 0.630859,-3.00586 v -0.01172 -0.0098 c 0,-0.294613 0.275252,-0.570535 0.683594,-0.568359 0.388979,0.0021 0.65521,0.280533 0.640625,0.646484 -0.04987,1.174747 -0.298767,2.339408 -0.726563,3.439453 -0.130959,0.332641 -0.285051,0.655818 -0.460937,0.97461 l -0.455078,0.826171 0.939453,-0.08789 c 0.801534,-0.07343 1.593245,-0.244871 2.355469,-0.521485 0.965184,-0.352663 1.855756,-0.884157 2.626953,-1.55664 l 0.002,-0.002 c 0.780422,-0.688246 1.437317,-1.504242 1.941406,-2.414063 0.504618,-0.905879 0.866743,-1.816583 0.988281,-2.320312 0.10494,-0.436001 0.09811,-0.935347 -0.01563,-1.369141 -0.0035,-0.01336 -0.200885,-0.621355 -0.429687,-1.193359 v -0.002 c -0.232377,-0.574827 -0.517817,-1.129246 -0.847656,-1.648438 -0.576224,-0.910804 -1.332675,-1.6983 -2.226563,-2.306641 l -0.0039,-0.002 -0.0039,-0.0039 c -0.901545,-0.588764 -1.897778,-1.011826 -2.94336,-1.246094 -0.41416,-0.09604 -0.830395,-0.175737 -1.25,-0.230468 l -0.96289,-0.125 0.457031,0.855468 c 0.128443,0.240831 0.241737,0.489599 0.345703,0.746094 0.431415,1.122787 0.658412,2.304998 0.669922,3.498047 0,0.412609 -0.296744,0.704715 -0.650391,0.701172 -0.36578,-0.0037 -0.670122,-0.30579 -0.673828,-0.677735 -0.01233,-1.035304 -0.208589,-2.064298 -0.578125,-3.03125 l -0.002,-0.0039 v -0.002 c -0.345488,-0.866863 -0.872627,-1.650657 -1.542969,-2.302734 -0.192351,-0.189035 -0.252202,-0.478291 -0.15039,-0.72461 l 0.002,-0.0039 v -0.002 c 0.09684,-0.242091 0.342512,-0.40625 0.611328,-0.40625 z m -8.712891,3.644531 c -0.911752,0 -1.662109,0.750356 -1.662109,1.66211 0,0.911417 0.750054,1.660156 1.662109,1.660156 h 6.970703 c 0.912056,0 1.660157,-0.74874 1.660157,-1.660156 0,-0.911753 -0.748403,-1.66211 -1.660157,-1.66211 z m 0,1 h 6.970703 c 0.370692,0 0.660157,0.291418 0.660157,0.66211 0,0.369864 -0.289767,0.660156 -0.660157,0.660156 h -6.970703 c -0.370387,0 -0.662109,-0.290293 -0.662109,-0.660156 0,-0.370692 0.291419,-0.66211 0.662109,-0.66211 z m 23.232422,2.521485 c -0.911753,0 -1.662109,0.750356 -1.662109,1.662109 0,0.911753 0.750356,1.662109 1.662109,1.662109 h 1.16211 c 0.911752,0 1.662109,-0.750355 1.662109,-1.662109 0,-0.911754 -0.750357,-1.662109 -1.662109,-1.662109 z m 0,1 h 1.16211 c 0.37069,0 0.662109,0.291418 0.662109,0.662109 0,0.370691 -0.291419,0.662109 -0.662109,0.662109 h -1.16211 c -0.370691,0 -0.662109,-0.291417 -0.662109,-0.662109 0,-0.370692 0.291418,-0.662109 0.662109,-0.662109 z m -23.232422,2.447265 c -0.911752,0 -1.662109,0.750356 -1.662109,1.66211 0,0.911417 0.750054,1.662109 1.662109,1.662109 h 6.970703 c 0.912056,0 1.660157,-0.750693 1.660157,-1.662109 0,-0.911753 -0.748403,-1.66211 -1.660157,-1.66211 z m 0,1 h 6.970703 c 0.370692,0 0.660157,0.291418 0.660157,0.66211 0,0.369864 -0.289767,0.662109 -0.660157,0.662109 h -6.970703 c -0.370387,0 -0.662109,-0.292246 -0.662109,-0.662109 0,-0.370692 0.291419,-0.66211 0.662109,-0.66211 z M 35.6875,28.449219 c 0.338598,0.15131 0.486982,0.536222 0.337891,0.871093 v 0.002 c -1.029281,2.327068 -2.719727,4.30766 -4.851563,5.695312 h -0.002 C 29.040803,36.410325 26.546014,37.148438 24,37.148437 c -3.675937,0 -7.189585,-1.543617 -9.679687,-4.251953 -0.24919,-0.271265 -0.23148,-0.684221 0.04101,-0.935547 0.27223,-0.251083 0.680386,-0.232321 0.929688,0.03906 2.238098,2.438254 5.403471,3.826172 8.708984,3.826172 2.292489,0 4.531475,-0.667246 6.453125,-1.916016 1.915549,-1.248743 3.431415,-3.025327 4.359375,-5.123047 0.152813,-0.340709 0.53813,-0.488427 0.875,-0.33789 z"
     id="path7" />
</svg>
