<?xml version="1.0" encoding="UTF-8" standalone="no"?>
<!-- Generator: Gravit.io -->

<svg
   style="isolation:isolate"
   viewBox="0 0 48 48"
   width="48pt"
   height="48pt"
   version="1.1"
   id="svg9"
   sodipodi:docname="lollypop.svg"
   inkscape:version="1.1.2 (0a00cf5339, 2022-02-04)"
   xmlns:inkscape="http://www.inkscape.org/namespaces/inkscape"
   xmlns:sodipodi="http://sodipodi.sourceforge.net/DTD/sodipodi-0.dtd"
   xmlns:xlink="http://www.w3.org/1999/xlink"
   xmlns="http://www.w3.org/2000/svg"
   xmlns:svg="http://www.w3.org/2000/svg">
  <defs
     id="defs13">
    <linearGradient
       inkscape:collect="always"
       xlink:href="#_lgradient_6"
       id="linearGradient872"
       x1="-12.025727"
       y1="6.1170783"
       x2="-0.085100174"
       y2="6.1170783"
       gradientUnits="userSpaceOnUse"
       gradientTransform="matrix(3.8358211,0,0,3.8371386,-0.00544341,-0.00268054)" />
    <linearGradient
       id="_lgradient_1"
       x1="0.18336116"
       y1="0.24917752"
       x2="0.9027437"
       y2="0.90347725"
       gradientTransform="matrix(24.617266,0,0,24.816118,10.841288,10.089605)"
       gradientUnits="userSpaceOnUse">
      <stop
         offset="2.608695652173913%"
         stop-opacity="1"
         style="stop-color:rgb(179,255,171)"
         id="stop2-3" />
      <stop
         offset="98.69565217391305%"
         stop-opacity="1"
         style="stop-color:rgb(18,255,247)"
         id="stop4-6" />
    </linearGradient>
    <linearGradient
       inkscape:collect="always"
       xlink:href="#_lgradient_6"
       id="linearGradient15"
       x1="-9.6850061"
       y1="45.161198"
       x2="11.98815"
       y2="21.735205"
       gradientUnits="userSpaceOnUse"
       gradientTransform="matrix(1.1147442,0,0,1.1150348,-0.01237238,-3.3277956)" />
    <linearGradient
       inkscape:collect="always"
       xlink:href="#_lgradient_6"
       id="linearGradient950"
       x1="9.9683523"
       y1="23.624575"
       x2="38.031647"
       y2="23.624575"
       gradientUnits="userSpaceOnUse" />
  </defs>
  <sodipodi:namedview
     id="namedview11"
     pagecolor="#ffffff"
     bordercolor="#666666"
     borderopacity="1.0"
     inkscape:pageshadow="2"
     inkscape:pageopacity="0.0"
     inkscape:pagecheckerboard="0"
     inkscape:document-units="pt"
     showgrid="false"
     inkscape:zoom="7.2257474"
     inkscape:cx="32.038208"
     inkscape:cy="31.969011"
     inkscape:window-width="1600"
     inkscape:window-height="836"
     inkscape:window-x="0"
     inkscape:window-y="0"
     inkscape:window-maximized="1"
     inkscape:current-layer="svg9" />
  <linearGradient
     id="_lgradient_6"
     x1="-2.103559878200278"
     y1="-0.3757458096684685"
     x2="1.0000000000000004"
     y2="0.5000000000000002"
     gradientTransform="matrix(28.063296,0,0,27.624222,9.9683519,9.8124297)"
     gradientUnits="userSpaceOnUse">
    <stop
       offset="1.7391304347826098%"
       stop-opacity="1"
       style="stop-color:rgb(255,94,98)"
       id="stop2" />
    <stop
       offset="100%"
       stop-opacity="1"
       style="stop-color:rgb(255,153,102)"
       id="stop4" />
  </linearGradient>
  <rect
     x="-46.783188"
     y="1.2253767"
     height="45.80014"
     rx="6.1837621"
     shape-rendering="crispEdges"
     id="rect5-6-7-3"
     ry="6.8055277"
     transform="matrix(0.00524063,-0.99998627,0.99998801,0.00489691,0,0)"
     style="isolation:isolate;fill:#ff5c00;fill-opacity:0.13470298;stroke:url(#linearGradient872);stroke-width:2.0301;stroke-miterlimit:4;stroke-dasharray:none;stroke-opacity:1"
     width="45.801998" />
  <rect
     x="-15.686804"
     y="17.260084"
     height="33.345856"
     rx="6.7920032"
     shape-rendering="crispEdges"
     id="rect5-6-6-6-6"
     style="isolation:isolate;fill:#ff5c00;fill-opacity:0.13470298;stroke:url(#linearGradient15);stroke-width:1.67233;stroke-miterlimit:4;stroke-dasharray:none;stroke-opacity:1"
     ry="7.4743071"
     transform="matrix(0.72446484,-0.68931175,0.68622417,0.72739012,0,0)"
     width="33.338203" />
  <path
     style="color:#000000;fill:url(#linearGradient950);fill-rule:evenodd;-inkscape-stroke:none"
     d="m 24,9.3125 c -3.850983,0 -7.550702,1.531171 -10.275391,4.255859 -2.724688,2.724689 -4.255859,6.424408 -4.255859,10.275391 0,3.196807 1.052591,6.302997 2.996094,8.839844 1.943692,2.537093 4.675419,4.365788 7.763672,5.195312 0.884084,0.238246 1.806691,-0.293708 2.044921,-1.177734 0.223448,-0.829165 -0.266241,-1.646665 -1.052734,-1.947266 0.0941,-0.02414 0.191992,-0.02435 0.285156,-0.05469 0.371417,-0.115268 0.725096,-0.267328 1.058594,-0.44336 l 0.002,-0.002 c 0.339769,-0.176368 0.661888,-0.38424 0.960938,-0.625 0.314631,-0.242528 0.595892,-0.523368 0.841797,-0.833984 l -0.03906,0.04297 0.0293,-0.02734 1.283203,-1.671875 c 1.465225,-0.331052 2.716181,-1.125587 3.71875,-2.173828 l 0.03125,0.07617 c 0.08664,0.234827 0.127719,0.492945 0.123047,0.751953 v 0.0039 0.0039 c 0,0.220387 -0.02012,0.437662 -0.06445,0.644531 l -0.002,0.0059 v 0.0059 c -0.02731,0.145676 -0.07089,0.282399 -0.136719,0.414063 l -1.652344,3.203125 -0.216797,0.419922 c -0.157958,0.05109 -0.315972,0.102323 -0.476562,0.146484 -0.883341,0.243022 -1.411142,1.168845 -1.167969,2.052734 0.243023,0.883341 1.168845,1.411142 2.052734,1.167969 3.069331,-0.847547 5.775795,-2.676445 7.707032,-5.207031 1.925174,-2.530575 2.972656,-5.625649 2.972656,-8.810547 0,-3.850983 -1.531171,-7.550702 -4.255859,-10.275391 C 31.550702,10.843671 27.850983,9.3125 24,9.3125 Z m 0,1 c 3.585784,0 7.031185,1.425716 9.568359,3.962891 2.537175,2.537174 3.962891,5.982575 3.962891,9.568359 0,2.96505 -0.975044,5.846272 -2.767578,8.203125 -1.79884,2.357101 -4.318701,4.060132 -7.177735,4.849609 -0.361419,0.09943 -0.724635,-0.106783 -0.824218,-0.46875 -0.09943,-0.361419 0.106782,-0.724635 0.46875,-0.824218 0.243854,-0.06706 0.486361,-0.141006 0.724609,-0.222657 l 0.189453,-0.06445 0.0918,-0.179687 0.3125,-0.603516 1.65625,-3.212891 v -0.0039 c 0.1089,-0.217795 0.181661,-0.442821 0.224609,-0.669922 2.87e-4,-0.0014 0.0017,-0.0026 0.002,-0.0039 0.05844,-0.277149 0.0834,-0.556631 0.08398,-0.832031 v -0.0039 c 0.0064,-0.380752 -0.05578,-0.762294 -0.189453,-1.121094 l -0.002,-0.0059 -0.628907,-1.552734 -0.533203,0.689453 c -0.953827,1.237368 -2.341088,2.123237 -3.933593,2.427735 l -0.1875,0.03516 -1.435547,1.86914 -0.002,0.0039 -0.01953,0.02344 c -0.198431,0.25065 -0.419381,0.471996 -0.666015,0.66211 l -0.0059,0.0039 -0.0039,0.0039 c -0.247326,0.199966 -0.517288,0.374416 -0.804687,0.523438 h -0.002 l -0.002,0.002 c -0.285584,0.150875 -0.584674,0.278096 -0.890625,0.373047 l -0.0039,0.002 h -0.0039 c -0.294848,0.09659 -0.594009,0.15245 -0.908203,0.173828 -6.52e-4,4.4e-5 -0.0013,-4.4e-5 -0.002,0 l -1.171875,0.06641 -0.179688,0.955078 c 0.609116,0.278034 1.24331,0.506607 1.896484,0.681641 0.361282,0.09736 0.568048,0.457136 0.470704,0.818359 -0.09736,0.361281 -0.457137,0.57 -0.81836,0.472656 -2.875299,-0.772323 -5.418745,-2.475605 -7.228515,-4.83789 -1.80996,-2.362533 -2.791016,-5.255311 -2.791016,-8.232422 0,-3.585784 1.425716,-7.031185 3.962891,-9.568359 C 16.968815,11.738216 20.414216,10.3125 24,10.3125 Z m 1.357422,1.283203 -1.785156,0.0625 c -3.075949,0.108527 -6.008464,1.379557 -8.19336,3.564453 -1.055264,1.055265 -1.896983,2.285465 -2.498047,3.621094 l -0.359375,0.798828 0.498047,-0.05664 0.08203,0.199219 1.380859,3.345703 v 0.002 c 0.08004,0.189186 0.184035,0.365532 0.308594,0.527344 8.88e-4,0.0012 0.0011,0.0028 0.002,0.0039 0.145869,0.197576 0.311749,0.381611 0.490234,0.546875 0.179769,0.166453 0.370197,0.311886 0.570313,0.441407 7.54e-4,5.02e-4 0.0012,0.0015 0.002,0.002 0.0012,7.69e-4 0.0027,0.0012 0.0039,0.002 0.175824,0.116425 0.360792,0.203164 0.546875,0.267578 l 0.002,0.002 1.197266,0.396485 -0.08398,-0.773438 c -0.025,-0.231579 -0.03711,-0.46665 -0.03711,-0.705078 0,-2.059873 0.954667,-3.890814 2.445312,-5.085938 l 0.158204,-0.126953 0.232421,-1.80664 c 2.1e-5,-7.7e-5 0.0012,-0.01173 0.002,-0.01563 0.0025,-0.01232 0.0068,-0.02974 0.0098,-0.04883 0.0409,-0.306781 0.123647,-0.609816 0.242188,-0.898438 l 0.002,-0.0059 0.002,-0.0039 c 0.115506,-0.299265 0.265074,-0.588478 0.4375,-0.863282 0.168704,-0.268873 0.365602,-0.525546 0.582031,-0.769531 0.213659,-0.234504 0.453438,-0.442713 0.712891,-0.619141 l 0.0039,-0.0039 0.03516,-0.02344 0.0059,-0.0059 0.0039,-0.0039 z m 1.742187,0.455078 -0.191406,0.125 -0.826172,0.544922 -3.029297,1.992188 -0.0039,0.0039 c -0.161643,0.112454 -0.316383,0.24319 -0.455078,0.396484 l -0.002,0.002 c -0.163337,0.182938 -0.30898,0.37394 -0.439453,0.576172 l -0.002,0.0039 v 0.002 c -0.135292,0.216466 -0.242483,0.436821 -0.332032,0.654296 -0.08204,0.195013 -0.131782,0.39513 -0.160156,0.59375 l -0.002,0.002 -0.107422,0.810546 0.728516,-0.199218 C 22.825911,17.408296 23.402983,17.328125 24,17.328125 c 1.537375,0 2.945803,0.532036 4.060547,1.421875 l 0.158203,0.125 2.148437,-0.208984 0.261719,-0.0098 h 0.05664 c 0.585512,0.01064 1.162426,0.122121 1.699219,0.337891 l 0.0098,0.0039 0.0098,0.002 c 0.542654,0.19306 1.04077,0.493068 1.46875,0.876953 0.0012,0.0013 0.0094,0.01131 0.0098,0.01172 l 0.0039,0.0039 2.335937,2.236328 -0.55664,-1.830078 c -0.57793,-1.899 -1.615975,-3.647225 -3.044922,-5.076172 -1.485023,-1.485023 -3.315129,-2.546661 -5.300782,-3.109375 z m 0.140625,1.105469 c 1.744731,0.530113 3.360978,1.460587 4.673828,2.773438 0.825823,0.825822 1.450994,1.795073 1.976563,2.814453 -0.370369,-0.247736 -0.722083,-0.529093 -1.142578,-0.679688 -0.653171,-0.261162 -1.34753,-0.395526 -2.044922,-0.408203 h -0.0039 -0.0918 l -0.310547,0.01172 -1.828125,0.179687 C 27.215689,16.912467 25.680401,16.328125 24,16.328125 c -0.389976,0 -0.754127,0.0928 -1.128906,0.150391 0.04065,-0.08119 0.0755,-0.167623 0.123047,-0.244141 l 0.002,-0.0039 c 4.57e-4,-7.34e-4 0.0015,-0.0012 0.002,-0.002 0.101827,-0.1572 0.211276,-0.303294 0.33789,-0.445313 l 0.002,-0.002 c 0.08299,-0.0914 0.174741,-0.170043 0.28125,-0.244141 l 3.011718,-1.980468 z m -5.970703,0.03125 c -0.136084,0.120393 -0.287433,0.222726 -0.410156,0.357422 l -0.002,0.002 -0.002,0.002 c -0.249439,0.280618 -0.483257,0.58269 -0.6875,0.908203 -0.199925,0.318629 -0.376455,0.659939 -0.517578,1.023438 -5.42e-4,0.0013 -0.0014,0.0026 -0.002,0.0039 -0.124737,0.304492 -0.197918,0.627628 -0.255859,0.953125 l -0.03516,0.03516 -0.220703,1.714844 c -1.598131,1.378499 -2.652344,3.384063 -2.652344,5.65625 0,0.0046 -8e-6,0.0091 0,0.01367 -0.02454,-0.01424 -0.05204,-0.02102 -0.07617,-0.03711 l -0.0039,-0.002 -0.002,-0.002 C 16.242093,23.713018 16.095129,23.600814 15.960938,23.476562 15.826746,23.352311 15.701336,23.211871 15.591797,23.0625 l -0.0039,-0.0039 -0.0039,-0.0059 c -0.07179,-0.09291 -0.130145,-0.193494 -0.177734,-0.304687 l -0.002,-0.0059 -1.378906,-3.339843 -0.125,-0.302735 c 0.545741,-1.160384 1.26185,-2.246225 2.185546,-3.169921 1.429303,-1.429303 3.258631,-2.247297 5.183594,-2.742188 z m -1.904297,3.353516 c -0.0034,0.02214 -0.01451,0.04226 -0.01758,0.06445 0.0027,-0.01387 0.0059,-0.03337 0.0059,-0.0332 -3.4e-5,1.27e-4 0.0066,-0.01759 0.01172,-0.03125 z m 11.316407,3.453125 -0.21875,0.01367 -1.072266,0.101563 0.355469,0.662109 c 0.490776,0.915319 0.769531,1.959647 0.769531,3.072266 0,0.423782 -0.03969,0.838374 -0.117188,1.238281 l -0.0293,0.144531 0.101562,0.25 1.085938,2.671875 c 1.64e-4,5.24e-4 -1.65e-4,0.0014 0,0.002 0.0043,0.0136 0.0093,0.02228 0.01367,0.0332 0.0023,0.0059 0.0055,0.01223 0.0078,0.01758 0.19244,0.517792 0.287801,1.066869 0.277344,1.621094 v 0.0039 0.0039 c 0,0.356887 -0.03888,0.721489 -0.113282,1.072266 v 0.0039 l -0.002,0.0039 c -0.06577,0.338951 -0.179392,0.674127 -0.328125,0.982422 l -0.359375,0.697266 0.765625,0.613281 c 0.693711,-0.579108 1.325643,-1.237026 1.88086,-1.962891 v -0.002 c 1.548675,-2.039302 2.420734,-4.510612 2.490234,-7.064453 l 0.0059,-0.220703 -0.160156,-0.154297 -0.447265,-0.427734 -2.611329,-2.5 -0.0059,-0.0039 C 32.667178,20.591256 32.31348,20.383143 31.927734,20.25 31.537855,20.096616 31.123276,20.007631 30.705078,19.994141 Z m -8.91211,0.279296 c -0.374145,0.215395 -0.546477,0.647924 -0.546875,1.087891 l -0.002,2.482422 -0.002,2.480469 v 0.002 c 0,0.43973 0.171297,0.871648 0.544922,1.08789 0.373625,0.216243 0.835568,0.149183 1.216797,-0.07031 l 2.15039,-1.238281 2.150391,-1.240235 c 0.381101,-0.219651 0.669624,-0.58391 0.669922,-1.015625 2.98e-4,-0.431714 -0.288828,-0.799485 -0.669922,-1.019531 l -2.146484,-1.242187 -2.148438,-1.242188 c -0.380616,-0.220399 -0.842651,-0.28766 -1.216797,-0.07227 z m 9.041016,0.75 c 0.256868,0.02239 0.516399,0.06247 0.757812,0.158204 l 0.01172,0.0039 0.01172,0.0039 c 0.263224,0.08931 0.500006,0.229764 0.707031,0.417969 l 2.597656,2.486328 0.257813,0.246094 c -0.10229,2.273756 -0.867667,4.472707 -2.25,6.292968 -0.04431,0.05793 -0.105033,0.09927 -0.150391,0.15625 0.0496,-0.315565 0.101066,-0.632619 0.101563,-0.949218 v -0.0039 c 0.01166,-0.642469 -0.111042,-1.274632 -0.322266,-1.878906 v -0.05859 l -0.01758,-0.04297 c -0.0014,-0.0037 -5.55e-4,-0.008 -0.002,-0.01172 l -0.03906,-0.103516 -0.0098,-0.0098 -1.06836,-2.63086 v -0.002 c 0.06946,-0.409755 0.119141,-0.826137 0.119141,-1.253906 0,-1.018146 -0.336735,-1.93312 -0.705078,-2.820313 z m -8.541016,0.117188 c -0.0073,0.0042 0.03712,-0.0326 0.214844,0.07031 l 2.148437,1.242188 2.148438,1.244141 c 0.177833,0.102682 0.169916,0.158671 0.169922,0.15039 6e-6,-0.0083 0.0079,0.04985 -0.169922,0.152344 l -2.150391,1.238281 -2.15039,1.240235 c -0.178284,0.102648 -0.222037,0.06615 -0.214844,0.07031 0.0072,0.0042 -0.04687,-0.01692 -0.04687,-0.222656 l 0.002,-2.482422 0.002,-2.482422 c 1.86e-4,-0.205487 0.05415,-0.224892 0.04687,-0.220703 z m -9.453125,1.470703 -0.960937,0.146484 c -0.03229,0.360157 -0.04883,0.72126 -0.04883,1.085938 0,2.682315 0.883503,5.291967 2.517578,7.419922 0.390446,0.51063 0.82001,0.985142 1.28125,1.423828 l 0.15625,0.148437 0.818359,-0.04492 3.617188,-0.205079 h 0.0039 c 0.196558,-0.01404 0.399395,-0.04879 0.599609,-0.117187 0.233437,-0.07199 0.460722,-0.165842 0.677735,-0.287109 0.21569,-0.111922 0.420978,-0.244134 0.611328,-0.394532 0.162743,-0.125756 0.305503,-0.269659 0.43164,-0.423828 l 0.0059,-0.0059 0.755859,-0.990235 -0.755859,-0.173828 c -1.772369,-0.409717 -3.270575,-1.545576 -4.16211,-3.076172 l -0.0957,-0.164062 -2.27539,-0.751953 -0.0039,-0.002 c -0.002,-6.88e-4 -0.0039,-0.0033 -0.0059,-0.0039 -8.41e-4,-2.9e-4 -0.0011,-0.0017 -0.002,-0.002 -0.0015,-5.06e-4 -0.0023,4.88e-4 -0.0039,0 -0.302693,-0.104852 -0.586311,-0.238408 -0.845703,-0.40625 -0.272689,-0.176445 -0.522405,-0.374557 -0.765625,-0.601562 -0.234324,-0.218348 -0.450152,-0.460353 -0.652344,-0.722656 -0.188593,-0.257936 -0.347175,-0.526871 -0.46875,-0.810547 -8.86e-4,-0.0019 -0.0029,-0.0019 -0.0039,-0.0039 l -0.0098,-0.02148 z m 0.212891,2.580078 c 0.203021,0.252734 0.415941,0.500577 0.65625,0.72461 0.282965,0.2641 0.580642,0.49956 0.904297,0.708984 0.296006,0.191533 0.616877,0.332991 0.943359,0.455078 l 0.03125,0.03125 0.171875,0.05664 1.935547,0.640625 c 0.908434,1.443709 2.311768,2.481924 3.953125,3.042968 -0.04873,0.04907 -0.09509,0.104821 -0.146484,0.144532 l -0.002,0.002 -0.0039,0.002 c -0.144194,0.114361 -0.296602,0.21417 -0.460937,0.298828 l -0.0078,0.0039 -0.0078,0.0039 c -0.151742,0.08535 -0.316818,0.153608 -0.498047,0.208984 l -0.0098,0.0039 -0.0078,0.002 c -0.09896,0.03426 -0.218655,0.05684 -0.34375,0.06641 l -3.613282,0.205078 -0.365234,0.01953 C 15.7893,31.448911 15.435899,31.070511 15.119141,30.65625 v -0.002 h -0.002 c -1.21877,-1.587129 -1.844351,-3.49275 -2.087891,-5.462891 z m 19.492187,2.695313 c 0.0015,0.0062 0.0025,0.01035 0.0039,0.01758 7.57e-4,0.0039 0.0012,0.0094 0.002,0.01563 -0.0038,-0.01066 -0.002,-0.02256 -0.0059,-0.0332 z"
     id="path7" />
</svg>
