<?xml version="1.0" encoding="UTF-8" standalone="no"?>
<!-- Generator: Gravit.io -->

<svg
   style="isolation:isolate"
   viewBox="0 0 48 48"
   width="48pt"
   height="48pt"
   version="1.1"
   id="svg11"
   sodipodi:docname="mailspring.svg"
   inkscape:version="1.1.2 (0a00cf5339, 2022-02-04)"
   xmlns:inkscape="http://www.inkscape.org/namespaces/inkscape"
   xmlns:sodipodi="http://sodipodi.sourceforge.net/DTD/sodipodi-0.dtd"
   xmlns:xlink="http://www.w3.org/1999/xlink"
   xmlns="http://www.w3.org/2000/svg"
   xmlns:svg="http://www.w3.org/2000/svg">
  <defs
     id="defs15">
    <linearGradient
       inkscape:collect="always"
       xlink:href="#_lgradient_65"
       id="linearGradient872"
       x1="-12.025727"
       y1="6.1170783"
       x2="-0.085100174"
       y2="6.1170783"
       gradientUnits="userSpaceOnUse"
       gradientTransform="matrix(3.8358211,0,0,3.8371386,-0.00544341,-0.00268054)" />
    <linearGradient
       id="_lgradient_1"
       x1="0.18336116"
       y1="0.24917752"
       x2="0.9027437"
       y2="0.90347725"
       gradientTransform="matrix(24.617266,0,0,24.816118,10.841288,10.089605)"
       gradientUnits="userSpaceOnUse">
      <stop
         offset="2.608695652173913%"
         stop-opacity="1"
         style="stop-color:rgb(179,255,171)"
         id="stop2-3" />
      <stop
         offset="98.69565217391305%"
         stop-opacity="1"
         style="stop-color:rgb(18,255,247)"
         id="stop4-6" />
    </linearGradient>
    <linearGradient
       inkscape:collect="always"
       xlink:href="#_lgradient_65"
       id="linearGradient15"
       x1="-9.6850061"
       y1="45.161198"
       x2="11.98815"
       y2="21.735205"
       gradientUnits="userSpaceOnUse"
       gradientTransform="matrix(1.1147442,0,0,1.1150348,-0.01237238,-3.3277956)" />
    <linearGradient
       inkscape:collect="always"
       xlink:href="#_lgradient_65"
       id="linearGradient970"
       x1="10.943685"
       y1="24"
       x2="37.056316"
       y2="24"
       gradientUnits="userSpaceOnUse" />
  </defs>
  <sodipodi:namedview
     id="namedview13"
     pagecolor="#ffffff"
     bordercolor="#666666"
     borderopacity="1.0"
     inkscape:pageshadow="2"
     inkscape:pageopacity="0.0"
     inkscape:pagecheckerboard="0"
     inkscape:document-units="pt"
     showgrid="false"
     inkscape:zoom="10.21875"
     inkscape:cx="31.95107"
     inkscape:cy="32"
     inkscape:window-width="1600"
     inkscape:window-height="836"
     inkscape:window-x="0"
     inkscape:window-y="0"
     inkscape:window-maximized="1"
     inkscape:current-layer="svg11" />
  <linearGradient
     id="_lgradient_65"
     x1="0.5706521739130435"
     y1="1.5330434782608693"
     x2="0.5374663332050779"
     y2="0.050963832243169804"
     gradientTransform="matrix(25.557041,0,0,19.361125,11.22148,14.319438)"
     gradientUnits="userSpaceOnUse">
    <stop
       offset="0%"
       stop-opacity="1"
       style="stop-color:rgb(84,51,255)"
       id="stop2" />
    <stop
       offset="51.73913043478261%"
       stop-opacity="1"
       style="stop-color:rgb(32,189,255)"
       id="stop4" />
    <stop
       offset="98.26086956521739%"
       stop-opacity="1"
       style="stop-color:rgb(165,254,203)"
       id="stop6" />
  </linearGradient>
  <rect
     x="-46.783188"
     y="1.2253767"
     height="45.80014"
     rx="6.1837621"
     shape-rendering="crispEdges"
     id="rect5-6-7-3"
     ry="6.8055277"
     transform="matrix(0.00524063,-0.99998627,0.99998801,0.00489691,0,0)"
     style="isolation:isolate;fill:#00abff;fill-opacity:0.13470298;stroke:url(#linearGradient872);stroke-width:2.0301;stroke-miterlimit:4;stroke-dasharray:none;stroke-opacity:1"
     width="45.801998" />
  <rect
     x="-15.686804"
     y="17.260084"
     height="33.345856"
     rx="6.7920032"
     shape-rendering="crispEdges"
     id="rect5-6-6-6-6"
     style="isolation:isolate;fill:#00abff;fill-opacity:0.13470298;stroke:url(#linearGradient15);stroke-width:1.67233;stroke-miterlimit:4;stroke-dasharray:none;stroke-opacity:1"
     ry="7.4743071"
     transform="matrix(0.72446484,-0.68931175,0.68622417,0.72739012,0,0)"
     width="33.338203" />
  <path
     style="color:#000000;fill:url(#linearGradient970);fill-rule:evenodd;-inkscape-stroke:none"
     d="m 14.320313,13.820313 c -1.98062,0 -3.59961,1.617037 -3.59961,3.597656 v 13.164062 c 0,1.980619 1.61899,3.597656 3.59961,3.597656 h 19.359374 c 1.98062,0 3.59961,-1.617037 3.59961,-3.597656 V 17.417969 c 0,-1.980619 -1.61899,-3.597657 -3.59961,-3.597656 z m 0,1 h 19.359374 c 1.439576,0 2.59961,1.15808 2.59961,2.597656 v 13.164062 c 0,1.439576 -1.160034,2.597657 -2.59961,2.597656 H 14.320313 c -1.439576,0 -2.59961,-1.15808 -2.59961,-2.597656 V 17.417969 c 0,-1.439576 1.160034,-2.597656 2.59961,-2.597656 z m 1.751953,2.097656 0.853515,0.853515 5.628906,5.621094 c 0.381782,0.381782 0.902574,0.595703 1.445313,0.595703 0.542739,0 1.063531,-0.213921 1.445312,-0.595703 l 6.482422,-6.474609 z m -2.251953,0.701172 v 12.761718 l 4.021484,-4.021484 v -0.002 c 0.41169,-0.414347 1.06472,-0.413895 1.478515,-0.002 0.413343,0.413722 0.412868,1.068314 -0.002,1.480468 l -3.248047,3.246094 h 15.859375 l -3.248046,-3.246094 c -0.414813,-0.412153 -0.415287,-1.066747 -0.002,-1.480468 0.413798,-0.411951 1.066825,-0.412403 1.478516,0.002 v 0.002 l 4.021484,4.021484 V 17.619141 l -0.853515,0.855468 -6.396485,6.402344 C 26.157177,25.649958 25.099112,26.085937 24,26.085937 c -1.099112,0 -2.157177,-0.435979 -2.929688,-1.208984 z m 4.667968,0.298828 h 11.023438 l -4.773438,4.767578 C 24.547807,22.876021 24.278418,22.988281 24,22.988281 c -0.278418,0 -0.547807,-0.11226 -0.738281,-0.302734 z m -3.667968,2.11914 5.542968,5.546875 c 0.962032,0.962649 2.273468,1.501953 3.636719,1.501953 1.363251,0 2.674687,-0.539304 3.636719,-1.501953 l 5.542968,-5.546875 v 7.929688 l -2.3125,-2.314453 c -0.793468,-0.798604 -2.098184,-0.799522 -2.894531,-0.0039 h -0.002 c -0.794955,0.7957 -0.792737,2.100873 0.0039,2.894532 l 1.541016,1.539062 h -11.03125 l 1.539062,-1.537109 v -0.002 c 0.797226,-0.793603 0.801016,-2.098644 0.0059,-2.894532 h -0.002 c -0.796349,-0.795602 -2.101061,-0.794684 -2.894532,0.0039 l -2.312499,2.314453 z"
     id="path9" />
</svg>
