<?xml version="1.0" encoding="UTF-8" standalone="no"?>
<!-- Generator: Gravit.io -->

<svg
   style="isolation:isolate"
   viewBox="0 0 48 48"
   width="48pt"
   height="48pt"
   version="1.1"
   id="svg16"
   sodipodi:docname="maps.svg"
   inkscape:version="1.1.2 (0a00cf5339, 2022-02-04)"
   xmlns:inkscape="http://www.inkscape.org/namespaces/inkscape"
   xmlns:sodipodi="http://sodipodi.sourceforge.net/DTD/sodipodi-0.dtd"
   xmlns:xlink="http://www.w3.org/1999/xlink"
   xmlns="http://www.w3.org/2000/svg"
   xmlns:svg="http://www.w3.org/2000/svg">
  <defs
     id="defs20">
    <linearGradient
       inkscape:collect="always"
       xlink:href="#_lgradient_13"
       id="linearGradient872"
       x1="-12.025727"
       y1="6.1170783"
       x2="-0.085100174"
       y2="6.1170783"
       gradientUnits="userSpaceOnUse"
       gradientTransform="matrix(3.8358211,0,0,3.8371386,-0.00547928,-0.0100046)" />
    <linearGradient
       id="_lgradient_1"
       x1="0.18336116"
       y1="0.24917752"
       x2="0.9027437"
       y2="0.90347725"
       gradientTransform="matrix(24.617266,0,0,24.816118,10.841288,10.089605)"
       gradientUnits="userSpaceOnUse">
      <stop
         offset="2.608695652173913%"
         stop-opacity="1"
         style="stop-color:rgb(179,255,171)"
         id="stop2-3" />
      <stop
         offset="98.69565217391305%"
         stop-opacity="1"
         style="stop-color:rgb(18,255,247)"
         id="stop4-6" />
    </linearGradient>
    <linearGradient
       inkscape:collect="always"
       xlink:href="#_lgradient_13"
       id="linearGradient15"
       x1="-9.6850061"
       y1="45.161198"
       x2="11.98815"
       y2="21.735205"
       gradientUnits="userSpaceOnUse"
       gradientTransform="matrix(1.1147442,0,0,1.1150348,-0.01769995,-3.3328443)" />
    <linearGradient
       inkscape:collect="always"
       xlink:href="#_lgradient_13"
       id="linearGradient885"
       x1="13.09772"
       y1="31.199303"
       x2="34.902279"
       y2="31.199303"
       gradientUnits="userSpaceOnUse" />
    <linearGradient
       inkscape:collect="always"
       xlink:href="#_lgradient_14"
       id="linearGradient951"
       x1="15.835127"
       y1="20.762957"
       x2="31.541819"
       y2="20.762957"
       gradientUnits="userSpaceOnUse" />
  </defs>
  <sodipodi:namedview
     id="namedview18"
     pagecolor="#ffffff"
     bordercolor="#666666"
     borderopacity="1.0"
     inkscape:pageshadow="2"
     inkscape:pageopacity="0.0"
     inkscape:pagecheckerboard="0"
     inkscape:document-units="pt"
     showgrid="false"
     inkscape:zoom="11.313708"
     inkscape:cx="32.305941"
     inkscape:cy="31.996582"
     inkscape:window-width="1600"
     inkscape:window-height="836"
     inkscape:window-x="0"
     inkscape:window-y="0"
     inkscape:window-maximized="1"
     inkscape:current-layer="svg16" />
  <linearGradient
     id="_lgradient_13"
     x1="0"
     y1="0.5"
     x2="0.9074880558539661"
     y2="0.9200778838291643"
     gradientTransform="matrix(21.804561,0,0,13.525058,13.09772,24.436689)"
     gradientUnits="userSpaceOnUse">
    <stop
       offset="0%"
       stop-opacity="1"
       style="stop-color:rgb(0,255,216)"
       id="stop2" />
    <stop
       offset="83.88839793817618%"
       stop-opacity="1"
       style="stop-color:rgb(0,255,184)"
       id="stop4" />
  </linearGradient>
  <rect
     x="-46.783222"
     y="1.2180526"
     height="45.80014"
     rx="6.1837621"
     shape-rendering="crispEdges"
     id="rect5-6-7-3"
     ry="6.8055277"
     transform="matrix(0.00524063,-0.99998627,0.99998801,0.00489691,0,0)"
     style="isolation:isolate;fill:#00ffeb;fill-opacity:0.13470298;stroke:url(#linearGradient872);stroke-width:2.0301;stroke-miterlimit:4;stroke-dasharray:none;stroke-opacity:1"
     width="45.801998" />
  <rect
     x="-15.692131"
     y="17.255035"
     height="33.345856"
     rx="6.7920032"
     shape-rendering="crispEdges"
     id="rect5-6-6-6-6"
     style="isolation:isolate;fill:#00ffeb;fill-opacity:0.13470298;stroke:url(#linearGradient15);stroke-width:1.67233;stroke-miterlimit:4;stroke-dasharray:none;stroke-opacity:1"
     ry="7.4743071"
     transform="matrix(0.72446484,-0.68931175,0.68622417,0.72739012,0,0)"
     width="33.338203" />
  <path
     style="color:#000000;fill:url(#linearGradient885);-inkscape-stroke:none"
     d="m 26.458984,23.832031 -0.820312,3.396485 1.703125,0.410156 h 0.002 c 0.705337,0.165962 1.387975,0.410199 2.050781,0.720703 0.533268,0.249245 1.032228,0.568585 1.484375,0.951172 l 0.002,0.002 0.0039,0.002 c 0.329424,0.27002 0.600853,0.600911 0.808593,0.972656 0.137351,0.246287 0.20612,0.521477 0.212891,0.8125 -0.01211,0.412138 -0.151755,0.812427 -0.402344,1.136719 l -0.0039,0.0039 -0.0039,0.0059 c -0.182635,0.249047 -0.384127,0.467377 -0.615235,0.666015 -0.288291,0.242165 -0.59584,0.456149 -0.921875,0.648438 -0.817295,0.461281 -1.692894,0.804705 -2.603515,1.017578 h -0.002 c -1.102018,0.264965 -2.22109,0.398562 -3.351563,0.392578 H 24 h -0.002 c -1.130456,0.006 -2.249537,-0.127611 -3.351563,-0.392578 h -0.002 C 19.734734,34.365445 18.85963,34.023149 18.042969,33.5625 l -0.002,-0.002 c -0.0018,-0.001 -0.0041,-9.34e-4 -0.0059,-0.002 -0.322542,-0.190577 -0.626553,-0.403124 -0.912109,-0.642578 l -0.0039,-0.0039 c -0.231108,-0.198638 -0.4326,-0.416968 -0.615235,-0.666015 l -0.0039,-0.0059 -0.0039,-0.0039 c -0.250589,-0.324292 -0.390231,-0.72458 -0.402344,-1.136719 0.0067,-0.273991 0.07238,-0.542245 0.195312,-0.779297 2.9e-4,-5.58e-4 -2.9e-4,-0.0014 0,-0.002 0.188908,-0.349096 0.436311,-0.66113 0.732422,-0.925781 l 0.002,-0.002 c 6.89e-4,-6.15e-4 0.0013,-0.0013 0.002,-0.002 0.417578,-0.364808 0.873257,-0.67491 1.367187,-0.921875 l 0.002,-0.002 h 0.002 c 0.604137,-0.307991 1.237608,-0.552395 1.896485,-0.730469 l 1.685547,-0.462891 -0.923829,-3.36914 -1.679687,0.46289 c -0.885058,0.239163 -1.73744,0.569626 -2.550781,0.982422 -0.761731,0.380866 -1.470369,0.860971 -2.107422,1.425781 -0.617187,0.543638 -1.130266,1.189562 -1.513672,1.916016 v 0.002 c -0.392125,0.749855 -0.598622,1.580603 -0.605469,2.419922 v 0.0059 0.0059 c 0.02048,1.160792 0.403057,2.285212 1.107422,3.210937 5.47e-4,7.44e-4 0.0014,0.0012 0.002,0.002 8.95e-4,0.0012 0.0011,0.0027 0.002,0.0039 0.334484,0.453958 0.724658,0.87156 1.152344,1.232422 0.453467,0.387515 0.933542,0.721498 1.443359,1.015625 l 0.002,0.002 h 0.002 c 1.105578,0.62714 2.289124,1.093462 3.53125,1.384765 1.358957,0.326921 2.756706,0.492691 4.162109,0.486328 1.404115,0.0061 2.800517,-0.159713 4.158203,-0.486328 1.242126,-0.291303 2.425672,-0.757625 3.53125,-1.384765 h 0.002 l 0.002,-0.002 c 0.509818,-0.294127 0.989893,-0.62811 1.44336,-1.015625 l 0.002,-0.002 c 0.426869,-0.360457 0.816454,-0.777252 1.150391,-1.230468 l 0.002,-0.0039 c 0.705401,-0.926131 1.088874,-2.051206 1.109375,-3.21289 v -0.0059 -0.0059 c -0.0069,-0.878205 -0.227005,-1.739837 -0.654297,-2.511719 -0.415809,-0.75114 -0.966831,-1.415325 -1.623047,-1.964843 -0.683349,-0.57822 -1.441718,-1.057021 -2.244141,-1.435547 h -0.002 c -0.873899,-0.414141 -1.790783,-0.729672 -2.724609,-0.955078 z m 0.738282,1.207031 0.722656,0.175782 c 0.872238,0.210541 1.723588,0.505781 2.53125,0.888672 h 0.002 c 0.729575,0.344027 1.415305,0.777041 2.027344,1.294921 h 0.002 c 0.563901,0.471836 1.03438,1.042007 1.390625,1.685547 0.343891,0.621222 0.520448,1.313612 0.527344,2.027344 -0.01813,0.952708 -0.329339,1.869461 -0.904297,2.623047 l -0.0039,0.002 -0.002,0.0039 c -0.2876,0.391137 -0.630072,0.755927 -0.998047,1.066407 v 0.002 h -0.002 c -0.405639,0.346851 -0.833666,0.647953 -1.294922,0.914062 -1.023868,0.580516 -2.11696,1.010079 -3.265625,1.279297 h -0.002 -0.002 c -1.282518,0.308532 -2.600574,0.465028 -3.923828,0.458984 H 24 h -0.002 c -1.32328,0.006 -2.641322,-0.150455 -3.923828,-0.458984 h -0.002 -0.002 c -1.148664,-0.269218 -2.241756,-0.698781 -3.265625,-1.279297 l -0.002,-0.002 c -0.460351,-0.265767 -0.888025,-0.565854 -1.292968,-0.912109 h -0.002 v -0.002 c -0.367975,-0.31048 -0.710447,-0.67527 -0.998047,-1.066407 l -0.002,-0.0039 -0.0039,-0.002 c -0.574958,-0.753586 -0.886165,-1.670339 -0.904297,-2.623047 0.0068,-0.678024 0.173421,-1.351194 0.490235,-1.957031 0.326412,-0.617745 0.761168,-1.168037 1.289062,-1.632813 0.57154,-0.506726 1.208981,-0.937497 1.892578,-1.279297 h 0.002 v -0.002 c 0.754876,-0.383428 1.545347,-0.688726 2.365235,-0.910156 h 0.002 l 0.714844,-0.197266 0.394531,1.439454 -0.720703,0.197265 c -0.722119,0.195295 -1.41894,0.464036 -2.083985,0.802735 -0.575982,0.287991 -1.103633,0.647808 -1.582031,1.066406 l -0.002,0.002 -0.002,0.002 c -0.385576,0.343514 -0.709196,0.750393 -0.955078,1.207031 l -0.002,0.0039 v 0.0039 c -0.198584,0.38189 -0.304937,0.805134 -0.3125,1.236328 v 0.0098 0.01172 c 0.015,0.630012 0.233275,1.235516 0.615234,1.730469 3.83e-4,4.96e-4 -3.83e-4,0.0015 0,0.002 0.225595,0.306057 0.480316,0.5819 0.767578,0.828125 l 0.002,0.002 h 0.002 c 0.334001,0.280561 0.687767,0.527571 1.058594,0.746094 l 0.0039,0.002 0.0039,0.002 c 0.900603,0.509037 1.866877,0.887838 2.873047,1.123047 1.176887,0.282653 2.375262,0.426363 3.585937,0.419922 1.20933,0.0061 2.4064,-0.137571 3.582031,-0.419922 1.00617,-0.235209 1.972444,-0.61401 2.873047,-1.123047 l 0.0039,-0.002 0.0039,-0.002 c 0.370827,-0.218523 0.724593,-0.465533 1.058593,-0.746094 h 0.002 l 0.002,-0.002 c 0.287262,-0.246225 0.541983,-0.522068 0.767578,-0.828125 v -0.002 c 0.381959,-0.494952 0.600235,-1.100456 0.615234,-1.730469 v -0.01172 -0.0098 c -0.0075,-0.451777 -0.121789,-0.894965 -0.34375,-1.292969 v -0.002 C 32.302017,29.32571 31.953045,28.89883 31.525391,28.546875 l -0.002,-0.002 c -0.519162,-0.438977 -1.092864,-0.805654 -1.705078,-1.091797 -0.719666,-0.33714 -1.467412,-0.604209 -2.24414,-0.787109 h -0.002 l -0.726563,-0.173829 z"
     id="path7" />
  <linearGradient
     id="_lgradient_14"
     x1="0"
     y1="0.5"
     x2="1"
     y2="0.5"
     gradientTransform="matrix(15.706137,0,0,24.176274,15.835128,8.6751052)"
     gradientUnits="userSpaceOnUse">
    <stop
       offset="0%"
       stop-opacity="1"
       style="stop-color:rgb(255,229,59)"
       id="stop9" />
    <stop
       offset="98.69565217391305%"
       stop-opacity="1"
       style="stop-color:rgb(255,0,91)"
       id="stop11" />
  </linearGradient>
  <path
     style="color:#000000;fill:url(#linearGradient951);fill-rule:evenodd;-inkscape-stroke:none"
     d="m 23.216797,8.1757813 c -2.089612,0 -4.093162,0.827535 -5.572266,2.3066407 -1.479685,1.479684 -2.308593,3.484607 -2.308593,5.574219 0,0.55256 0.05443,1.106482 0.171875,1.652343 l 0.25,1.175782 0.121093,-0.02344 7.365235,14.21875 0.443359,-0.107422 0.445312,0.107422 7.365235,-14.21875 0.121094,0.02344 0.25,-1.175782 c 0.117448,-0.545862 0.171875,-1.099783 0.171875,-1.652343 0,-2.089612 -0.828909,-4.094535 -2.308594,-5.574219 -1.479104,-1.4791057 -3.482653,-2.3066407 -5.572266,-2.3066407 -0.157101,0 -0.315246,0.00376 -0.472656,0.013672 -0.156858,-0.00986 -0.314303,-0.013672 -0.470703,-0.013672 z m 0.455078,0.5292968 0.01563,0.4863282 h 0.002 l 0.01563,-0.4863282 0.01758,0.484375 c 0.144309,-0.00978 0.290416,-0.013672 0.4375,-0.013672 1.825238,0 3.573293,0.7217291 4.865235,2.0136717 1.292606,1.292605 2.015625,3.041951 2.015625,4.867188 0,0.485334 -0.04855,0.970016 -0.150391,1.443359 l -0.04492,0.214844 0.107422,0.02148 -6.763672,13.058594 v -1.109375 l 6.173828,-11.775391 0.103516,-0.496094 c 0.09944,-0.448159 0.146484,-0.904474 0.146484,-1.357421 0,-1.709666 -0.681966,-3.353842 -1.890625,-4.5625 -1.208166,-1.208842 -2.853405,-1.8906254 -4.5625,-1.8906254 -0.170211,0 -0.337215,0.00601 -0.5,0.015625 -0.145264,-0.00795 -0.292559,-0.015625 -0.443359,-0.015625 -1.709094,0 -3.354334,0.6817834 -4.5625,1.8906254 -1.20866,1.208658 -1.890625,2.852834 -1.890625,4.5625 0,0.452946 0.04704,0.90926 0.146484,1.357421 l 0.103516,0.496094 6.173828,11.775391 v 1.109375 L 16.423828,17.736328 16.53125,17.714844 16.486328,17.5 c -0.101844,-0.473343 -0.15039,-0.958025 -0.150391,-1.443359 0,-1.825237 0.723019,-3.574583 2.015625,-4.867188 1.291942,-1.2919426 3.039998,-2.0136717 4.865235,-2.0136717 0.147141,0 0.293306,0.00388 0.4375,0.013672 z m -0.455078,1.8984379 c 0.144504,0 0.291109,0.0067 0.441406,0.01563 h 0.0293 0.03125 c 0.150593,-0.0089 0.29705,-0.01563 0.441406,-0.01563 1.443219,0 2.835833,0.57745 3.855469,1.597656 1.020387,1.020387 1.597656,2.411573 1.597656,3.855469 0,0.385592 -0.03862,0.768933 -0.121094,1.140625 l -0.002,0.002 -0.07813,0.36914 -5.724609,10.919922 -5.722656,-10.919922 -0.07813,-0.36914 -0.002,-0.002 c -0.08248,-0.37169 -0.121094,-0.755033 -0.121094,-1.140625 0,-1.443896 0.577268,-2.835082 1.597656,-3.855469 1.019636,-1.020206 2.41225,-1.597656 3.855469,-1.597656 z m 0.472656,0.742187 c -2.834864,0 -5.146484,2.31162 -5.146484,5.146484 0,2.835422 2.31162,5.148438 5.146484,5.148438 2.834865,0 5.144531,-2.313016 5.144531,-5.148438 0,-2.834864 -2.309666,-5.146484 -5.144531,-5.146484 z m 0,1 c 2.293564,0 4.144531,1.852922 4.144531,4.146484 0,2.294252 -1.850967,4.148438 -4.144531,4.148438 -2.293562,0 -4.146484,-1.854186 -4.146484,-4.148438 0,-2.293562 1.852922,-4.146484 4.146484,-4.146484 z m 0,1.064453 c -0.81932,0 -1.603445,0.326101 -2.181641,0.904297 l -0.002,0.002 c -0.571117,0.577793 -0.898437,1.358717 -0.898437,2.173828 0,0.820126 0.327471,1.602048 0.898437,2.179688 v 0.002 h 0.002 c 0.579407,0.579407 1.364741,0.900391 2.181641,0.900391 0.816901,0 1.600281,-0.320984 2.179688,-0.900391 h 0.002 v -0.002 c 0.570966,-0.577641 0.898437,-1.359562 0.898437,-2.179688 0,-0.815111 -0.32732,-1.596035 -0.898437,-2.173828 l -0.002,-0.002 c -0.578197,-0.578195 -1.360367,-0.904297 -2.179688,-0.904297 z m 0,1 c 0.553744,0 1.080238,0.21891 1.472656,0.611328 0.387124,0.392633 0.607422,0.922889 0.607422,1.46875 0,0.553301 -0.220144,1.081831 -0.607422,1.47461 -0.391208,0.391208 -0.916492,0.607422 -1.472656,0.607422 -0.555273,0 -1.081642,-0.215446 -1.472656,-0.605469 l -0.002,-0.002 c -0.387279,-0.39278 -0.607422,-0.92131 -0.607422,-1.47461 0,-0.54586 0.220298,-1.076117 0.607422,-1.46875 0.392417,-0.392417 0.920866,-0.611328 1.474609,-0.611328 z"
     id="path14" />
</svg>
