<?xml version="1.0" encoding="UTF-8" standalone="no"?>
<!-- Generator: Gravit.io -->

<svg
   style="isolation:isolate"
   viewBox="0 0 48 48"
   width="48pt"
   height="48pt"
   version="1.1"
   id="svg11"
   sodipodi:docname="mathematica.svg"
   inkscape:version="1.1.2 (0a00cf5339, 2022-02-04)"
   xmlns:inkscape="http://www.inkscape.org/namespaces/inkscape"
   xmlns:sodipodi="http://sodipodi.sourceforge.net/DTD/sodipodi-0.dtd"
   xmlns:xlink="http://www.w3.org/1999/xlink"
   xmlns="http://www.w3.org/2000/svg"
   xmlns:svg="http://www.w3.org/2000/svg">
  <defs
     id="defs15">
    <linearGradient
       inkscape:collect="always"
       xlink:href="#_lgradient_4"
       id="linearGradient872"
       x1="-12.025727"
       y1="6.1170783"
       x2="-0.085100174"
       y2="6.1170783"
       gradientUnits="userSpaceOnUse"
       gradientTransform="matrix(3.8358211,0,0,3.8371386,-0.00544341,-0.00268054)" />
    <linearGradient
       id="_lgradient_1"
       x1="0.18336116"
       y1="0.24917752"
       x2="0.9027437"
       y2="0.90347725"
       gradientTransform="matrix(24.617266,0,0,24.816118,10.841288,10.089605)"
       gradientUnits="userSpaceOnUse">
      <stop
         offset="2.608695652173913%"
         stop-opacity="1"
         style="stop-color:rgb(179,255,171)"
         id="stop2-3" />
      <stop
         offset="98.69565217391305%"
         stop-opacity="1"
         style="stop-color:rgb(18,255,247)"
         id="stop4-6" />
    </linearGradient>
    <linearGradient
       inkscape:collect="always"
       xlink:href="#_lgradient_4"
       id="linearGradient15"
       x1="-9.6850061"
       y1="45.161198"
       x2="11.98815"
       y2="21.735205"
       gradientUnits="userSpaceOnUse"
       gradientTransform="matrix(1.1147442,0,0,1.1150348,-0.01237238,-3.3277956)" />
    <linearGradient
       inkscape:collect="always"
       xlink:href="#_lgradient_4"
       id="linearGradient988"
       x1="10.426265"
       y1="24.000027"
       x2="37.573772"
       y2="24.000027"
       gradientUnits="userSpaceOnUse" />
  </defs>
  <sodipodi:namedview
     id="namedview13"
     pagecolor="#ffffff"
     bordercolor="#666666"
     borderopacity="1.0"
     inkscape:pageshadow="2"
     inkscape:pageopacity="0.0"
     inkscape:pagecheckerboard="0"
     inkscape:document-units="pt"
     showgrid="false"
     inkscape:zoom="7.2257474"
     inkscape:cx="32.038208"
     inkscape:cy="31.969011"
     inkscape:window-width="1600"
     inkscape:window-height="836"
     inkscape:window-x="0"
     inkscape:window-y="0"
     inkscape:window-maximized="1"
     inkscape:current-layer="svg11" />
  <linearGradient
     id="_lgradient_4"
     x1="-0.014458464773922156"
     y1="0.009839246119734024"
     x2="1.0164565923220248"
     y2="1.0722930524759795"
     gradientTransform="matrix(27.146861,0,0,28.429133,10.426273,9.7854333)"
     gradientUnits="userSpaceOnUse">
    <stop
       offset="0%"
       stop-opacity="1"
       style="stop-color:rgb(249,212,35)"
       id="stop2" />
    <stop
       offset="51.56237565086822%"
       stop-opacity="1"
       style="stop-color:rgb(255,78,80)"
       id="stop4" />
    <stop
       offset="99.1304347826087%"
       stop-opacity="1"
       style="stop-color:rgb(138,35,135)"
       id="stop6" />
  </linearGradient>
  <rect
     x="-46.783188"
     y="1.2253767"
     height="45.80014"
     rx="6.1837621"
     shape-rendering="crispEdges"
     id="rect5-6-7-3"
     ry="6.8055277"
     transform="matrix(0.00524063,-0.99998627,0.99998801,0.00489691,0,0)"
     style="isolation:isolate;fill:#ff5400;fill-opacity:0.13470298;stroke:url(#linearGradient872);stroke-width:2.0301;stroke-miterlimit:4;stroke-dasharray:none;stroke-opacity:1"
     width="45.801998" />
  <rect
     x="-15.686804"
     y="17.260084"
     height="33.345856"
     rx="6.7920032"
     shape-rendering="crispEdges"
     id="rect5-6-6-6-6"
     style="isolation:isolate;fill:#ff5400;fill-opacity:0.13470298;stroke:url(#linearGradient15);stroke-width:1.67233;stroke-miterlimit:4;stroke-dasharray:none;stroke-opacity:1"
     ry="7.4743071"
     transform="matrix(0.72446484,-0.68931175,0.68622417,0.72739012,0,0)"
     width="33.338203" />
  <path
     style="color:#000000;fill:url(#linearGradient988);fill-rule:evenodd;-inkscape-stroke:none"
     d="m 23.994141,9.2851563 c -0.930592,0 -1.794284,0.4978858 -2.261719,1.3085937 l -1.333985,2.289063 -2.417968,-1.0625 C 17.645001,11.670281 17.28366,11.59375 16.919922,11.59375 c -0.552965,0 -1.093129,0.178193 -1.541016,0.507813 -0.677481,0.490311 -1.082031,1.280014 -1.082031,2.121093 0,0.11164 0.0059,0.131265 0.0059,0.06641 v 0.01367 l 0.0059,0.13086 0.269531,2.701172 -2.585937,0.5625 0.03125,-0.0039 c -0.0274,0.0057 -0.0818,0.0175 -0.08203,0.01758 -2.88e-4,9.4e-5 -0.181456,0.103351 -0.18164,0.103516 -1e-5,8e-6 -0.0052,0.0089 -0.0059,0.0098 -0.788317,0.260419 -1.441895,0.833561 -1.697265,1.636718 -0.088328,0.262779 -0.1308597,0.534756 -0.1308597,0.804688 0,0.640144 0.2325267,1.264574 0.6640627,1.744141 l -0.128906,-0.333985 v 0.195313 L 12.355469,24 10.587891,25.992187 c -0.426801,0.481612 -0.6621097,1.102044 -0.6621097,1.742188 0,0.269317 0.041907,0.543889 0.1308597,0.808594 0.282713,0.889885 1.020849,1.560728 1.929687,1.759765 l 0.05274,0.01172 h 0.0059 l 2.533203,0.554688 -0.269531,2.697265 -0.0059,0.13086 v 0.08008 c 0,0.838175 0.398182,1.629142 1.074219,2.125 l 0.002,0.002 0.002,0.002 c 0.448488,0.319936 0.986436,0.5 1.544922,0.5 0.365018,0 0.724524,-0.07575 1.054688,-0.220703 l 2.417968,-1.06836 1.335938,2.294922 C 22.203372,38.21893 23.069408,38.714844 24,38.714844 h 0.0059 0.503907 l -0.002,-0.134766 c 0.720229,-0.149026 1.379999,-0.518011 1.757813,-1.167969 l 1.335937,-2.294922 2.417969,1.0625 c 0.335468,0.150032 0.696809,0.226563 1.060547,0.226563 0.552965,0 1.093129,-0.178193 1.541016,-0.507813 0.677481,-0.490311 1.082031,-1.280014 1.082031,-2.121093 0,-0.11164 -0.0059,-0.131265 -0.0059,-0.06641 v -0.01367 l -0.0059,-0.13086 -0.269531,-2.701172 2.585937,-0.5625 -0.03125,0.0039 c 0.0274,-0.0057 0.0818,-0.0175 0.08203,-0.01758 2.88e-4,-9.3e-5 0.181456,-0.10335 0.18164,-0.103515 10e-6,-8e-6 0.0052,-0.0089 0.0059,-0.0098 0.788317,-0.260419 1.441895,-0.833561 1.697265,-1.636719 0.08833,-0.262778 0.13086,-0.534755 0.13086,-0.804687 0,-0.640144 -0.232527,-1.264574 -0.664063,-1.744141 l 0.128906,0.333985 V 26.128906 L 35.644531,24 37.412109,22.007812 c 0.426801,-0.481611 0.66211,-1.102043 0.66211,-1.742187 0,-0.269317 -0.04191,-0.543889 -0.13086,-0.808594 -0.282713,-0.889885 -1.020849,-1.560728 -1.929687,-1.759765 l -0.05273,-0.01172 h -0.0059 l -2.533203,-0.554688 0.269531,-2.697265 0.0059,-0.13086 v -0.08008 c 0,-0.838175 -0.398182,-1.629142 -1.074219,-2.125 l -0.002,-0.002 -0.002,-0.002 c -0.448488,-0.319936 -0.986436,-0.5 -1.544922,-0.5 -0.365018,0 -0.724524,0.07575 -1.054688,0.220703 l -2.417969,1.06836 -1.335937,-2.294922 C 25.816825,9.8136928 25.001266,9.3261173 24.113281,9.2851563 h -0.01172 -0.04492 -0.0293 z m 0,0.9999997 h 0.0332 0.0293 0.0098 c 0.550054,0.02537 1.059027,0.330375 1.333985,0.804688 h 0.002 l 1.785156,3.068359 3.234375,-1.427734 c 0.204066,-0.08959 0.426272,-0.136719 0.652344,-0.136719 0.343508,0 0.674183,0.110357 0.960937,0.314453 0.415065,0.306266 0.66211,0.794313 0.66211,1.314453 v 0.05469 l -0.0039,0.08203 -0.355468,3.556641 3.464843,0.759765 c 0.561036,0.123936 1.01523,0.535586 1.189453,1.083985 v 0.0039 l 0.002,0.0059 c 0.05284,0.154604 0.08008,0.323927 0.08008,0.496094 0,0.396333 -0.145182,0.779122 -0.410157,1.078125 L 34.306641,24 l 2.232421,2.509766 v 0.0059 l 0.126954,0.142578 c 0.260239,0.289204 0.408203,0.679839 0.408203,1.076172 0,0.172162 -0.02614,0.333901 -0.08008,0.492187 l -0.002,0.0039 v 0.0059 c -0.174463,0.548701 -0.630701,0.960309 -1.193359,1.083984 l -0.392578,0.08594 v 0.0039 l -3.068359,0.667969 0.355468,3.5625 0.0039,0.07031 c 0,0.109879 0.0059,0.134207 0.0059,0.06641 0,0.518779 -0.252113,1.011534 -0.667969,1.3125 h -0.002 l -0.002,0.002 c -0.276361,0.20411 -0.613644,0.314453 -0.951172,0.314453 -0.226067,0 -0.444696,-0.04456 -0.654297,-0.138672 l -0.002,-0.002 -3.236328,-1.423828 -1.785156,3.068359 c -0.290136,0.499125 -0.821518,0.804688 -1.396485,0.804688 H 24 c -0.574967,0 -1.113231,-0.307324 -1.402344,-0.804688 L 20.8125,33.841797 17.578125,35.269531 c -0.204066,0.08959 -0.426272,0.136719 -0.652344,0.136719 -0.343508,0 -0.674183,-0.110357 -0.960937,-0.314453 -0.415065,-0.306266 -0.66211,-0.794313 -0.66211,-1.314453 v -0.05469 l 0.0039,-0.08008 0.355468,-3.558594 -3.464843,-0.759765 c -0.561035,-0.123937 -1.013277,-0.535587 -1.1875,-1.083985 l -0.002,-0.0039 -0.002,-0.0059 c -0.05283,-0.154604 -0.08008,-0.323927 -0.08008,-0.496094 0,-0.396333 0.145182,-0.779122 0.410157,-1.078125 L 13.693359,24 11.460938,21.490234 v -0.0059 l -0.126954,-0.142578 c -0.260239,-0.289204 -0.408203,-0.679839 -0.408203,-1.076172 0,-0.172162 0.02614,-0.333901 0.08008,-0.492188 l 0.002,-0.0039 v -0.0059 c 0.174463,-0.548701 0.630701,-0.960309 1.193359,-1.083985 l 0.392578,-0.08594 v -0.0039 l 3.068359,-0.667969 -0.355468,-3.5625 -0.0039,-0.07031 c 0,-0.109879 -0.0059,-0.134207 -0.0059,-0.06641 0,-0.518779 0.252113,-1.011534 0.667969,-1.3125 h 0.002 l 0.002,-0.002 c 0.276361,-0.20411 0.613644,-0.314453 0.951172,-0.314453 0.226067,0 0.444696,0.04456 0.654297,0.138672 l 0.002,0.002 3.236328,1.423828 1.787109,-3.0625 v -0.002 c 0.290675,-0.504139 0.819565,-0.808594 1.394532,-0.808594 z M 24,12.236328 21.552734,16.439453 17.113281,14.478516 17.59375,19.326172 12.851563,20.367187 16.083984,24 l -3.232421,3.640625 4.742187,1.033203 -0.480469,4.847656 4.44336,-1.960937 L 24,35.763672 l 2.449219,-4.203125 4.4375,1.955078 L 30.40625,28.673828 35.148437,27.632812 31.916016,24 35.148437,20.359375 34.3125,20.177734 l -3.90625,-0.851562 0.480469,-4.847656 -4.44336,1.960937 z m 0,1.986328 1.984375,3.417969 c -0.728411,0.226787 -1.487614,0.529297 -2.072266,0.529297 -0.556889,0 -1.247702,-0.294465 -1.917968,-0.503906 z m -5.722656,1.861328 3.371093,1.490235 c -0.335133,-0.115851 -0.665278,-0.124458 -0.96875,-0.253907 -1.012776,-0.43201 -1.761718,-0.861328 -1.761718,-0.861328 l -0.638672,-0.367187 z m 11.445312,0 -0.0039,0.03125 -0.626953,0.339844 c 0,0 -0.794417,0.432554 -1.853516,0.865234 -0.239381,0.0978 -0.492548,0.09981 -0.751953,0.191407 z m -1.083984,1.683594 c -0.0955,0.435905 -0.147803,0.63223 -0.275391,1.333984 -0.110976,0.610387 -0.212236,1.251917 -0.269531,1.8125 -0.05729,0.560584 -0.103914,0.995862 0.02734,1.414063 0.130532,0.416471 0.416704,0.761779 0.789062,1.216797 0.372359,0.455018 0.831027,0.961587 1.279297,1.4375 0.54277,0.57624 0.729991,0.74952 1.0625,1.080078 -0.460648,0.06527 -0.706625,0.09221 -1.478516,0.228516 -0.640841,0.113162 -1.310148,0.244722 -1.882812,0.388671 -0.572664,0.14395 -1.018476,0.258348 -1.373047,0.509766 -0.354398,0.25155 -0.606194,0.633723 -0.919922,1.119141 -0.313727,0.485417 -0.64233,1.060627 -0.945312,1.617187 -0.347676,0.638659 -0.431459,0.825845 -0.634766,1.232422 -0.167455,-0.378472 -0.203507,-0.508214 -0.507812,-1.083984 -0.570186,-1.078838 -1.282347,-2.291357 -2.197266,-2.894532 -0.887499,-0.585097 -2.23908,-0.852038 -3.414063,-1.03125 -0.559349,-0.08531 -0.641397,-0.07478 -1.029296,-0.111328 0.288344,-0.250174 0.356267,-0.275221 0.746093,-0.671875 0.83709,-0.851749 1.772209,-1.951126 2.111328,-3.134765 0.333908,-1.166299 0.163992,-2.517827 -0.06055,-3.601563 -0.09421,-0.454704 -0.127316,-0.479003 -0.220704,-0.800781 0.323362,0.164408 0.35942,0.206346 0.841797,0.412109 1.069952,0.456399 2.411251,0.929688 3.625,0.929688 1.213308,0 2.59246,-0.469284 3.705078,-0.923828 0.582702,-0.238055 0.669928,-0.305336 1.021485,-0.478516 z m -10.164063,0.296875 c 0.08821,0.302289 0.120184,0.329555 0.210938,0.767578 0.209005,1.008765 0.327781,2.25785 0.08008,3.123047 -0.17996,0.628122 -0.810432,1.337028 -1.378906,2.005859 l -2.654297,-2.984375 3.945312,-0.865234 z m 1.28125,0.140625 0.160157,0.894531 c 0.181396,1.014995 0.292994,2.118431 -0.01172,3.183594 -0.327615,1.140083 -1.114492,2.088695 -1.900391,2.914063 l -0.65625,0.689453 0.939453,0.148437 c 1.107321,0.175766 2.245311,0.40914 3.126953,0.990235 0.986038,0.650221 1.61164,1.755101 2.181641,2.832031 l 0.423828,0.800781 0.451172,-0.787109 c 0.01238,-0.02159 0.01769,-0.02982 0.01953,-0.0332 0.304841,-0.559852 0.634659,-1.13858 0.953125,-1.63086 0.340738,-0.527039 0.491495,-0.830347 0.966797,-1.167969 0.476236,-0.337419 0.816478,-0.383166 1.435547,-0.539062 0.580707,-0.145751 1.251239,-0.277552 1.894531,-0.390625 h 0.002 c 0.07944,-0.01411 0.06614,-0.01069 0.166016,-0.02734 l 0.929688,-0.154297 -0.648438,-0.68164 c -0.07697,-0.08095 -0.07353,-0.07183 -0.134766,-0.136719 -0.45012,-0.478289 -0.909728,-0.98615 -1.287109,-1.447266 -0.407523,-0.498703 -0.641111,-0.700804 -0.822266,-1.277343 -0.180618,-0.576262 -0.09855,-0.870558 -0.03516,-1.490235 0.05785,-0.565479 0.159293,-1.203261 0.269531,-1.8125 l 0.002,-0.01367 c 0.0018,-0.0072 0.0032,-0.01327 0.0078,-0.03906 l 0.08398,-0.46875 -0.46289,-0.105469 -0.152344,-0.03711 -0.146484,0.05859 c -1.100875,0.442567 -2.379629,0.876954 -3.59961,0.876954 -1.142835,0 -2.293758,-0.387923 -3.314453,-0.804688 z m 9.701172,0.542969 -0.134765,1.365234 3.943359,0.859375 -2.650391,2.984375 c -0.329306,-0.357584 -0.669583,-0.72469 -0.93164,-1.044922 -0.347254,-0.42434 -0.593439,-0.838199 -0.607422,-0.882812 -0.01355,-0.04318 -0.04109,-0.496948 0.01172,-1.013672 0.05281,-0.516724 0.151526,-1.139042 0.259765,-1.734375 0.0508,-0.279426 0.05829,-0.278426 0.109375,-0.533203 z m -8.474609,0.908203 c 0.904843,0.332145 1.84704,0.697266 2.929687,0.697266 1.138814,0 2.198763,-0.318793 3.167969,-0.669922 -0.05903,0.374771 -0.127594,0.752914 -0.164062,1.109375 -0.05742,0.561316 -0.168045,1.117687 0.07422,1.890625 0.240544,0.765551 0.633182,1.157656 1.003907,1.611328 v 0.002 c 0.261093,0.319026 0.567706,0.646262 0.865234,0.972656 -0.426336,0.08301 -0.860814,0.160614 -1.255859,0.259766 -0.578285,0.145714 -1.134816,0.242271 -1.771485,0.693359 v 0.002 c -0.636986,0.45247 -0.910645,0.947784 -1.228515,1.439453 -0.195459,0.302137 -0.379285,0.641184 -0.56836,0.970704 -0.503983,-0.889308 -1.097533,-1.801881 -2.070312,-2.44336 -0.841095,-0.554369 -1.77488,-0.792654 -2.679688,-0.96875 0.642027,-0.742114 1.269164,-1.580407 1.580078,-2.664062 v -0.002 c 0.292919,-1.023935 0.235581,-1.998707 0.117188,-2.900391 z m -3.839844,4.658203 c -0.101645,0.110868 -0.138804,0.246403 -0.240234,0.349609 -0.184047,0.187271 -0.183685,0.160148 -0.351563,0.316407 z m 15.935547,2.496094 0.189453,0.21289 -3.945312,0.865235 0.40039,4.021484 -3.689453,-1.625 L 24,33.775391 l -2.027344,-3.490235 -3.695312,1.63086 0.40039,-4.029297 -3.943359,-0.859375 0.142578,-0.160157 0.802735,0.04492 c 0,0 0.94547,0.05334 2.068359,0.22461 1.122889,0.171266 2.434111,0.496822 3.013672,0.878906 0.552141,0.364008 1.320734,1.498846 1.863281,2.525391 0.542547,1.026544 0.908203,1.9375 0.908203,1.9375 l 0.419922,1.052734 0.494141,-1.021484 c 0,0 0.490271,-1.018443 1.082031,-2.105469 0.29588,-0.543513 0.617423,-1.104776 0.908203,-1.554688 0.29078,-0.449911 0.598307,-0.801235 0.658203,-0.84375 0.05972,-0.04235 0.50549,-0.223299 1.039063,-0.357422 0.533572,-0.134122 1.185506,-0.262329 1.8125,-0.373046 1.253987,-0.221434 2.408203,-0.371094 2.408203,-0.371094 z"
     id="path9" />
</svg>
