<?xml version="1.0" encoding="UTF-8" standalone="no"?>
<!-- Generator: Gravit.io -->

<svg
   style="isolation:isolate"
   viewBox="0 0 48 48"
   width="48pt"
   height="48pt"
   version="1.1"
   id="svg9"
   sodipodi:docname="mattermost.svg"
   inkscape:version="1.1.2 (0a00cf5339, 2022-02-04)"
   xmlns:inkscape="http://www.inkscape.org/namespaces/inkscape"
   xmlns:sodipodi="http://sodipodi.sourceforge.net/DTD/sodipodi-0.dtd"
   xmlns:xlink="http://www.w3.org/1999/xlink"
   xmlns="http://www.w3.org/2000/svg"
   xmlns:svg="http://www.w3.org/2000/svg">
  <defs
     id="defs13">
    <linearGradient
       inkscape:collect="always"
       xlink:href="#_lgradient_1"
       id="linearGradient872"
       x1="-12.025727"
       y1="6.1170783"
       x2="-0.085100174"
       y2="6.1170783"
       gradientUnits="userSpaceOnUse"
       gradientTransform="matrix(3.8358211,0,0,3.8371386,-0.00544341,-0.00268054)" />
    <linearGradient
       id="_lgradient_1-3"
       x1="0.18336116"
       y1="0.24917752"
       x2="0.9027437"
       y2="0.90347725"
       gradientTransform="matrix(24.617266,0,0,24.816118,10.841288,10.089605)"
       gradientUnits="userSpaceOnUse">
      <stop
         offset="2.608695652173913%"
         stop-opacity="1"
         style="stop-color:rgb(179,255,171)"
         id="stop2-6" />
      <stop
         offset="98.69565217391305%"
         stop-opacity="1"
         style="stop-color:rgb(18,255,247)"
         id="stop4-7" />
    </linearGradient>
    <linearGradient
       inkscape:collect="always"
       xlink:href="#_lgradient_1"
       id="linearGradient15"
       x1="-9.6850061"
       y1="45.161198"
       x2="11.98815"
       y2="21.735205"
       gradientUnits="userSpaceOnUse"
       gradientTransform="matrix(1.1147442,0,0,1.1150348,-0.01237238,-3.3277956)" />
    <linearGradient
       inkscape:collect="always"
       xlink:href="#_lgradient_1"
       id="linearGradient986"
       x1="9.7463646"
       y1="23.992071"
       x2="38.253635"
       y2="23.992071"
       gradientUnits="userSpaceOnUse" />
  </defs>
  <sodipodi:namedview
     id="namedview11"
     pagecolor="#ffffff"
     bordercolor="#666666"
     borderopacity="1.0"
     inkscape:pageshadow="2"
     inkscape:pageopacity="0.0"
     inkscape:pagecheckerboard="0"
     inkscape:document-units="pt"
     showgrid="false"
     inkscape:zoom="10.21875"
     inkscape:cx="31.95107"
     inkscape:cy="32"
     inkscape:window-width="1600"
     inkscape:window-height="836"
     inkscape:window-x="0"
     inkscape:window-y="0"
     inkscape:window-maximized="1"
     inkscape:current-layer="svg9" />
  <linearGradient
     id="_lgradient_1"
     x1="0"
     y1="0.5"
     x2="0.9074880558539661"
     y2="0.9200778838291643"
     gradientTransform="matrix(27.873777,0,0,27.85794,10.063112,10.070714)"
     gradientUnits="userSpaceOnUse">
    <stop
       offset="0%"
       stop-opacity="1"
       style="stop-color:rgb(0,196,255)"
       id="stop2" />
    <stop
       offset="83.88839793817618%"
       stop-opacity="1"
       style="stop-color:rgb(0,114,255)"
       id="stop4" />
  </linearGradient>
  <rect
     x="-46.783188"
     y="1.2253767"
     height="45.80014"
     rx="6.1837621"
     shape-rendering="crispEdges"
     id="rect5-6-7-3"
     ry="6.8055277"
     transform="matrix(0.00524063,-0.99998627,0.99998801,0.00489691,0,0)"
     style="isolation:isolate;fill:#0060ff;fill-opacity:0.13470298;stroke:url(#linearGradient872);stroke-width:2.0301;stroke-miterlimit:4;stroke-dasharray:none;stroke-opacity:1"
     width="45.801998" />
  <rect
     x="-15.686804"
     y="17.260084"
     height="33.345856"
     rx="6.7920032"
     shape-rendering="crispEdges"
     id="rect5-6-6-6-6"
     style="isolation:isolate;fill:#0060ff;fill-opacity:0.13470298;stroke:url(#linearGradient15);stroke-width:1.67233;stroke-miterlimit:4;stroke-dasharray:none;stroke-opacity:1"
     ry="7.4743071"
     transform="matrix(0.72446484,-0.68931175,0.68622417,0.72739012,0,0)"
     width="33.338203" />
  <path
     style="color:#000000;fill:url(#linearGradient986);-inkscape-stroke:none"
     d="m 24.787109,9.5449219 -1.113281,0.025391 C 15.840078,9.747368 9.5690577,16.156466 9.5625,23.992187 c 0,7.967189 6.470312,14.4375 14.4375,14.4375 7.967188,0 14.4375,-6.470311 14.4375,-14.4375 v -0.002 C 38.423062,19.270557 36.100484,14.855536 32.220703,12.167969 L 31.435547,11.625 v 4.566406 l 0.101562,0.134766 c 1.237728,1.63486 1.911351,3.627753 1.917969,5.677734 -0.0011,5.226983 -4.22784,9.453125 -9.455078,9.453125 -5.227904,0 -9.455078,-4.227174 -9.455078,-9.455078 0.0054,-4.42449 3.072727,-8.249156 7.390625,-9.214844 L 22.101562,12.75 22.208984,12.621094 c 0.570674,-0.680493 1.275423,-1.528259 1.576172,-1.896485 0.0899,-0.110635 0.179651,-0.210432 0.28125,-0.330078 z m -2.296875,1.1718751 c -0.315748,0.381201 -0.614961,0.746134 -0.976562,1.177734 C 16.860649,13.040473 13.550812,17.18891 13.544922,22 v 0.002 c 0,5.768289 4.686789,10.455078 10.455078,10.455078 5.768289,0 10.455078,-4.686789 10.455078,-10.455078 V 22 c -0.0071,-2.194967 -0.732706,-4.315559 -2.019531,-6.089844 v -2.224609 c 3.100999,2.530456 4.989596,6.269277 5.001953,10.308594 -0.0011,7.425807 -6.01144,13.435546 -13.4375,13.435546 -7.426722,0 -13.4375,-6.010777 -13.4375,-13.4375 0.0058,-6.889608 5.210849,-12.514222 11.927734,-13.27539 z m 4.574219,0.890625 -0.002,0.002 c -0.10902,0.04886 -0.125895,0.07623 -0.158203,0.103516 -0.03231,0.02728 -0.06163,0.05244 -0.0918,0.08203 -0.06033,0.05919 -0.125941,0.130036 -0.201172,0.212891 -0.150462,0.165709 -0.33275,0.378988 -0.517578,0.605468 -0.354865,0.434835 -1.142748,1.37722 -1.742188,2.089844 -0.602245,0.715326 -1.741483,2.081718 -2.533203,3.037109 -0.77886,0.939588 -1.237027,1.508275 -1.548828,1.984375 -0.3118,0.476101 -0.4689,0.869735 -0.603515,1.337891 -0.196769,0.68557 -0.217339,1.574737 -0.0332,2.246094 0.449473,1.64152 1.937981,2.834716 3.78711,3.136718 0.196413,0.03247 0.401879,0.03503 0.662109,0.03906 1.139019,0.01623 2.163747,-0.392795 2.984375,-1.189453 0.402193,-0.390383 0.586722,-0.64412 0.833985,-1.142578 0.168816,-0.340412 0.332905,-0.731115 0.408203,-1.007813 v -0.002 c 0.169636,-0.624386 0.215539,-1.65665 0.146484,-4 v -0.01367 -6.871093 l -0.0098,-0.04883 c -0.04804,-0.241826 -0.192794,-0.361714 -0.304687,-0.439453 -0.111893,-0.07774 -0.219851,-0.12141 -0.330078,-0.15625 -0.220453,-0.06968 -0.398255,-0.159863 -0.746094,-0.0059 z m 0.390625,0.962891 v 6.580078 0.0078 c 0.06929,2.333793 -0.01167,3.355855 -0.111328,3.722656 -0.02986,0.109735 -0.198829,0.547712 -0.337891,0.828125 -0.230393,0.464453 -0.262248,0.505667 -0.636718,0.869141 -0.653643,0.63455 -1.366577,0.918693 -2.271485,0.90625 -0.230095,-0.0036 -0.556785,-0.03252 -0.513672,-0.02539 h -0.002 c -1.523992,-0.248371 -2.651,-1.198497 -2.984375,-2.416015 -0.102206,-0.372643 -0.09321,-1.278232 0.0293,-1.705078 0.121316,-0.421904 0.216106,-0.662742 0.480469,-1.066407 0.264362,-0.403665 0.706001,-0.960242 1.480469,-1.894531 0.789483,-0.952693 1.930437,-2.317992 2.529296,-3.029297 0.601666,-0.71527 1.385216,-1.654574 1.75,-2.101562 0.174997,-0.214433 0.350399,-0.418853 0.484375,-0.566406 0.04296,-0.04731 0.07107,-0.07573 0.103516,-0.109375 z"
     id="path7" />
</svg>
