<?xml version="1.0" encoding="UTF-8" standalone="no"?>
<!-- Generator: Gravit.io -->

<svg
   style="isolation:isolate"
   viewBox="0 0 48 48"
   width="48pt"
   height="48pt"
   version="1.1"
   id="svg9"
   sodipodi:docname="meld.svg"
   inkscape:version="1.1.2 (0a00cf5339, 2022-02-04)"
   xmlns:inkscape="http://www.inkscape.org/namespaces/inkscape"
   xmlns:sodipodi="http://sodipodi.sourceforge.net/DTD/sodipodi-0.dtd"
   xmlns:xlink="http://www.w3.org/1999/xlink"
   xmlns="http://www.w3.org/2000/svg"
   xmlns:svg="http://www.w3.org/2000/svg">
  <defs
     id="defs13">
    <linearGradient
       inkscape:collect="always"
       xlink:href="#_lgradient_51"
       id="linearGradient872"
       x1="-12.025727"
       y1="6.1170783"
       x2="-0.085100174"
       y2="6.1170783"
       gradientUnits="userSpaceOnUse"
       gradientTransform="matrix(3.8358211,0,0,3.8371386,-0.00544341,-0.00268054)" />
    <linearGradient
       id="_lgradient_1"
       x1="0.18336116"
       y1="0.24917752"
       x2="0.9027437"
       y2="0.90347725"
       gradientTransform="matrix(24.617266,0,0,24.816118,10.841288,10.089605)"
       gradientUnits="userSpaceOnUse">
      <stop
         offset="2.608695652173913%"
         stop-opacity="1"
         style="stop-color:rgb(179,255,171)"
         id="stop2-3" />
      <stop
         offset="98.69565217391305%"
         stop-opacity="1"
         style="stop-color:rgb(18,255,247)"
         id="stop4-6" />
    </linearGradient>
    <linearGradient
       inkscape:collect="always"
       xlink:href="#_lgradient_51"
       id="linearGradient15"
       x1="-9.6850061"
       y1="45.161198"
       x2="11.98815"
       y2="21.735205"
       gradientUnits="userSpaceOnUse"
       gradientTransform="matrix(1.1147442,0,0,1.1150348,-0.01237238,-3.3277956)" />
    <linearGradient
       inkscape:collect="always"
       xlink:href="#_lgradient_51"
       id="linearGradient914"
       x1="11.540702"
       y1="24.356256"
       x2="36.459297"
       y2="24.356256"
       gradientUnits="userSpaceOnUse" />
  </defs>
  <sodipodi:namedview
     id="namedview11"
     pagecolor="#ffffff"
     bordercolor="#666666"
     borderopacity="1.0"
     inkscape:pageshadow="2"
     inkscape:pageopacity="0.0"
     inkscape:pagecheckerboard="0"
     inkscape:document-units="pt"
     showgrid="false"
     inkscape:zoom="10.21875"
     inkscape:cx="31.95107"
     inkscape:cy="32"
     inkscape:window-width="1600"
     inkscape:window-height="836"
     inkscape:window-x="0"
     inkscape:window-y="0"
     inkscape:window-maximized="1"
     inkscape:current-layer="svg9" />
  <linearGradient
     id="_lgradient_51"
     x1="0"
     y1="0.5"
     x2="1"
     y2="0.5"
     gradientTransform="matrix(24.918523,0,0,25.600533,11.540705,11.556123)"
     gradientUnits="userSpaceOnUse">
    <stop
       offset="0%"
       stop-opacity="1"
       style="stop-color:rgb(255,224,49)"
       id="stop2" />
    <stop
       offset="98.69565217391305%"
       stop-opacity="1"
       style="stop-color:rgb(252,82,82)"
       id="stop4" />
  </linearGradient>
  <rect
     x="-46.783188"
     y="1.2253767"
     height="45.80014"
     rx="6.1837621"
     shape-rendering="crispEdges"
     id="rect5-6-7-3"
     ry="6.8055277"
     transform="matrix(0.00524063,-0.99998627,0.99998801,0.00489691,0,0)"
     style="isolation:isolate;fill:#ff7000;fill-opacity:0.13470298;stroke:url(#linearGradient872);stroke-width:2.0301;stroke-miterlimit:4;stroke-dasharray:none;stroke-opacity:1"
     width="45.801998" />
  <rect
     x="-15.686804"
     y="17.260084"
     height="33.345856"
     rx="6.7920032"
     shape-rendering="crispEdges"
     id="rect5-6-6-6-6"
     style="isolation:isolate;fill:#ff7000;fill-opacity:0.13470298;stroke:url(#linearGradient15);stroke-width:1.67233;stroke-miterlimit:4;stroke-dasharray:none;stroke-opacity:1"
     ry="7.4743071"
     transform="matrix(0.72446484,-0.68931175,0.68622417,0.72739012,0,0)"
     width="33.338203" />
  <path
     style="color:#000000;fill:url(#linearGradient914);fill-rule:evenodd;-inkscape-stroke:none"
     d="M 18.734375,11.056641 C 16.916609,11.055012 15.143211,11.902133 13.449219,13.5 l -0.04297,0.04102 -0.0332,0.04883 c -3.092907,4.721779 -3.077638,9.614715 0,14.304687 l 0.01953,0.02734 0.02344,0.02734 c 0.659736,0.753179 1.421062,1.450017 2.302734,2.041015 1.704957,1.143032 3.747058,1.911506 5.8125,1.88086 2.066501,-0.03067 4.157696,-0.905742 5.787109,-2.955078 0.902279,-1.135195 1.025725,-2.551895 0.742188,-3.763672 -0.283538,-1.211778 -0.939236,-2.261433 -1.814453,-2.767578 l -0.01758,-0.01172 -0.01953,-0.0078 c -0.705793,-0.329484 -1.423856,-0.224405 -1.939453,0.05664 -0.370091,0.201732 -0.537914,0.525254 -0.71875,0.835937 -0.0021,9.73e-4 -0.0057,-9.8e-4 -0.0078,0 l 0.0039,0.0039 c -0.06977,0.120781 -0.24405,0.189808 -0.279297,0.324218 l -0.117187,0.451172 c -0.03553,-0.03358 -0.125982,-0.04646 -0.142579,-0.08789 -0.177146,-1.554635 0.795437,-2.810508 2.199219,-2.964844 1.258063,-0.138387 2.376273,0.412489 3.242188,1.339844 0.865914,0.927354 1.442637,2.229565 1.546875,3.458984 0.299945,3.529116 -2.509053,7.174553 -5.738282,8.189453 l -0.755859,0.236328 0.541016,0.582032 c 1.733541,1.860345 3.533665,2.861332 5.378906,2.865234 1.845241,0.0039 3.636246,-0.993795 5.337891,-2.857422 l 0.03906,-0.04297 0.0293,-0.05078 c 2.816524,-5.093455 2.834832,-9.933829 -0.02148,-14.273437 l -0.01758,-0.02734 -0.02344,-0.02734 c -0.659379,-0.753415 -1.421145,-1.450073 -2.302734,-2.041016 -1.704957,-1.143032 -3.747561,-1.911507 -5.8125,-1.880859 -2.067007,0.03067 -4.158218,0.905681 -5.78711,2.955078 -0.903555,1.136801 -1.024988,2.565706 -0.742187,3.789063 0.2828,1.223357 0.933408,2.284238 1.8125,2.792968 l 0.01953,0.01172 0.01953,0.0098 c 0.705854,0.329512 1.423881,0.222611 1.939453,-0.05859 0.370074,-0.201847 0.537942,-0.525234 0.71875,-0.835937 0.0028,-0.0013 0.007,0.0013 0.0098,0 l -0.0059,-0.0039 c 0.06976,-0.120789 0.244053,-0.189819 0.279296,-0.324218 l 0.152344,-0.582032 c 0.0027,0.0016 0.0091,0.0023 0.01172,0.0039 0.06336,0.03927 0.08411,0.07782 0.105469,0.126953 0.185562,1.560683 -0.804626,2.847554 -2.208985,3.001953 -1.257756,0.138379 -2.374303,-0.412472 -3.240234,-1.339844 -0.865931,-0.927372 -1.44434,-2.229524 -1.548828,-3.458984 -0.299451,-3.529199 2.50851,-7.174541 5.738281,-8.189453 l 0.830078,-0.259766 -0.642578,-0.585937 c -1.757742,-1.601542 -3.559187,-2.449544 -5.376953,-2.451172 z m -0.002,1 c 1.31334,0.0012 2.675674,0.640098 4.083984,1.761718 -3.318282,1.460087 -5.947523,5.030494 -5.626953,8.808594 0.125195,1.473113 0.783135,2.956192 1.8125,4.058594 1.029365,1.102402 2.469286,1.827826 4.082031,1.65039 1.979988,-0.217685 3.38169,-2.087175 3.09961,-4.173828 l -0.0059,-0.03906 -0.0098,-0.03711 c -0.09577,-0.320472 -0.318888,-0.571669 -0.5625,-0.722656 -0.07662,-0.04749 -0.158839,-0.0472 -0.238282,-0.08008 0.134229,0.0046 0.237773,-0.07995 0.392579,-0.01172 0.504964,0.30209 1.098098,1.132684 1.326171,2.107422 0.230407,0.984707 0.127099,2.061195 -0.550781,2.914063 -1.460479,1.836866 -3.217164,2.551375 -5.019531,2.578125 -1.804508,0.02677 -3.671117,-0.660928 -5.240234,-1.712891 -0.792199,-0.531023 -1.478718,-1.162022 -2.083985,-1.849609 -2.872712,-4.401364 -2.890274,-8.681744 -0.01172,-13.113281 1.554455,-1.45184 3.059095,-2.14001 4.552734,-2.138672 z m 7.933594,5.398437 c 1.803929,-0.02677 3.671116,0.660927 5.240234,1.712891 0.791128,0.530305 1.478088,1.159516 2.082031,1.845703 2.640715,4.033788 2.640775,8.316792 -0.0098,13.146484 -1.571871,1.705639 -3.083548,2.499205 -4.554688,2.496094 -1.318654,-0.0028 -2.694275,-0.756231 -4.119141,-2.117188 3.348271,-1.440976 6.010658,-5.037612 5.6875,-8.839843 -0.124903,-1.473154 -0.783118,-2.954221 -1.8125,-4.056641 -1.029381,-1.10242 -2.469048,-1.827818 -4.082031,-1.650391 -1.975615,0.217205 -3.375604,2.064791 -3.09375,4.150391 l 0.0039,0.03906 0.01172,0.03711 c 0.146346,0.489385 0.542186,0.726668 0.94336,0.871094 -0.175078,0.02051 -0.326674,0.110765 -0.539063,0.01758 -0.501629,-0.299426 -1.099326,-1.143061 -1.328125,-2.132813 -0.230872,-0.998723 -0.125821,-2.090144 0.550781,-2.941406 1.45992,-1.836804 3.216587,-2.551374 5.019532,-2.578125 z m -2.267579,6.671875 -0.179687,0.08398 c -0.01004,0.0047 -0.234068,0.0042 -0.392578,0.01758 l 0.134765,-0.0625 c 0.02435,-0.01124 0.258818,-0.02037 0.4375,-0.03906 z"
     id="path7" />
</svg>
