<?xml version="1.0" encoding="UTF-8" standalone="no"?>
<!-- Generator: Gravit.io -->

<svg
   style="isolation:isolate"
   viewBox="0 0 48 48"
   width="48pt"
   height="48pt"
   version="1.1"
   id="svg18"
   sodipodi:docname="mellowplayer.svg"
   inkscape:version="1.1.2 (0a00cf5339, 2022-02-04)"
   xmlns:inkscape="http://www.inkscape.org/namespaces/inkscape"
   xmlns:sodipodi="http://sodipodi.sourceforge.net/DTD/sodipodi-0.dtd"
   xmlns:xlink="http://www.w3.org/1999/xlink"
   xmlns="http://www.w3.org/2000/svg"
   xmlns:svg="http://www.w3.org/2000/svg">
  <defs
     id="defs22">
    <linearGradient
       inkscape:collect="always"
       xlink:href="#_lgradient_0"
       id="linearGradient872"
       x1="-12.025727"
       y1="6.1170783"
       x2="-0.085100174"
       y2="6.1170783"
       gradientUnits="userSpaceOnUse"
       gradientTransform="matrix(3.8358211,0,0,3.8371386,-0.00544341,-0.00268054)" />
    <linearGradient
       id="_lgradient_1-3"
       x1="0.18336116"
       y1="0.24917752"
       x2="0.9027437"
       y2="0.90347725"
       gradientTransform="matrix(24.617266,0,0,24.816118,10.841288,10.089605)"
       gradientUnits="userSpaceOnUse">
      <stop
         offset="2.608695652173913%"
         stop-opacity="1"
         style="stop-color:rgb(179,255,171)"
         id="stop2-6" />
      <stop
         offset="98.69565217391305%"
         stop-opacity="1"
         style="stop-color:rgb(18,255,247)"
         id="stop4-7" />
    </linearGradient>
    <linearGradient
       inkscape:collect="always"
       xlink:href="#_lgradient_0"
       id="linearGradient15"
       x1="-9.6850061"
       y1="45.161198"
       x2="11.98815"
       y2="21.735205"
       gradientUnits="userSpaceOnUse"
       gradientTransform="matrix(1.1147442,0,0,1.1150348,-0.01237238,-3.3277956)" />
    <linearGradient
       inkscape:collect="always"
       xlink:href="#_lgradient_0"
       id="linearGradient887"
       x1="13.446898"
       y1="24.000025"
       x2="39.597485"
       y2="24.000025"
       gradientUnits="userSpaceOnUse" />
    <linearGradient
       inkscape:collect="always"
       xlink:href="#_lgradient_1"
       id="linearGradient917"
       x1="21.274178"
       y1="24.00001"
       x2="31.770273"
       y2="24.00001"
       gradientUnits="userSpaceOnUse" />
  </defs>
  <sodipodi:namedview
     id="namedview20"
     pagecolor="#ffffff"
     bordercolor="#666666"
     borderopacity="1.0"
     inkscape:pageshadow="2"
     inkscape:pageopacity="0.0"
     inkscape:pagecheckerboard="0"
     inkscape:document-units="pt"
     showgrid="false"
     inkscape:zoom="7.2257474"
     inkscape:cx="32.038208"
     inkscape:cy="32.107405"
     inkscape:window-width="1600"
     inkscape:window-height="836"
     inkscape:window-x="0"
     inkscape:window-y="0"
     inkscape:window-maximized="1"
     inkscape:current-layer="svg18" />
  <linearGradient
     id="_lgradient_0"
     x1="0"
     y1="0.5"
     x2="1"
     y2="0.5"
     gradientTransform="matrix(26.150522,0,0,28.531703,13.446965,9.7344572)"
     gradientUnits="userSpaceOnUse">
    <stop
       offset="0%"
       stop-opacity="1"
       style="stop-color:rgb(84,51,255)"
       id="stop2" />
    <stop
       offset="51.73913043478261%"
       stop-opacity="1"
       style="stop-color:rgb(32,189,255)"
       id="stop4" />
    <stop
       offset="98.26086956521739%"
       stop-opacity="1"
       style="stop-color:rgb(165,254,203)"
       id="stop6" />
  </linearGradient>
  <rect
     x="-46.783188"
     y="1.2253767"
     height="45.80014"
     rx="6.1837621"
     shape-rendering="crispEdges"
     id="rect5-6-7-3"
     ry="6.8055277"
     transform="matrix(0.00524063,-0.99998627,0.99998801,0.00489691,0,0)"
     style="isolation:isolate;fill:#00deff;fill-opacity:0.13470298;stroke:url(#linearGradient872);stroke-width:2.0301;stroke-miterlimit:4;stroke-dasharray:none;stroke-opacity:1"
     width="45.801998" />
  <rect
     x="-15.686804"
     y="17.260084"
     height="33.345856"
     rx="6.7920032"
     shape-rendering="crispEdges"
     id="rect5-6-6-6-6"
     style="isolation:isolate;fill:#00deff;fill-opacity:0.13470298;stroke:url(#linearGradient15);stroke-width:1.67233;stroke-miterlimit:4;stroke-dasharray:none;stroke-opacity:1"
     ry="7.4743071"
     transform="matrix(0.72446484,-0.68931175,0.68622417,0.72739012,0,0)"
     width="33.338203" />
  <path
     style="color:#000000;fill:url(#linearGradient887);fill-rule:evenodd;-inkscape-stroke:none"
     d="m 22.070312,9.234375 c -1.416516,0.00624 -2.818528,0.2629667 -4.15039,0.7421875 l -0.05273,0.017578 -0.04492,0.029297 c -0.776163,0.490534 -1.497964,1.056007 -2.15625,1.689453 -0.575107,0.556146 -1.080098,1.187181 -1.501953,1.867187 v 0.002 c -0.802883,1.306278 -1.223183,2.815451 -1.216797,4.34961 v 0.002 0.0039 c 0.01873,1.173902 0.217575,2.337826 0.605468,3.447266 4.7e-4,0.0014 0.0015,0.0025 0.002,0.0039 2.13e-4,6.1e-4 -2.14e-4,0.0013 0,0.002 0.3088,0.908583 0.702422,1.779535 1.144531,2.626953 -0.434668,0.770397 -0.823234,1.569695 -1.125,2.402344 -0.378135,1.046171 -0.573353,2.142323 -0.585938,3.25 v 0.0039 0.002 c 0,1.518802 0.433957,3.010709 1.244141,4.292969 l 0.002,0.002 v 0.002 c 0.421793,0.654725 0.919296,1.258952 1.486328,1.800781 h 0.002 v 0.002 C 16.348897,36.370629 17.024647,36.90383 17.75,37.375 l 0.02344,0.01563 0.02344,0.01172 c 0.849279,0.427739 1.74295,0.769556 2.660156,1.017578 0.833456,0.227306 1.695852,0.3394 2.556641,0.345703 0.932635,0.0064 1.862335,-0.153627 2.740234,-0.458984 0.890445,-0.311655 1.716422,-0.769674 2.457031,-1.345704 h 0.002 l 0.002,-0.002 c 0.775798,-0.613129 1.468837,-1.325896 2.0625,-2.113281 0.468038,-0.624049 0.883662,-1.283264 1.267578,-1.964844 0.970122,-0.120179 1.933507,-0.314052 2.861328,-0.632812 h 0.002 c 1.117431,-0.387291 2.149007,-1.001341 3.029297,-1.792969 l 0.0039,-0.0039 0.0039,-0.0039 c 0.849103,-0.798029 1.513429,-1.773989 1.941407,-2.853516 l 0.002,-0.0039 v -0.0039 c 0.432277,-1.146475 0.672142,-2.357515 0.697265,-3.582031 l 0.01172,-0.335937 v -0.04492 c 0,-1.121023 -0.24985,-2.228246 -0.722656,-3.244141 l -0.002,-0.002 c -0.457182,-0.965161 -1.091782,-1.836566 -1.88086,-2.5625 -1.587049,-1.47913 -3.671342,-2.305669 -5.841796,-2.318359 h -0.002 c -0.183809,0 -0.36706,0.02197 -0.550781,0.03516 -0.167821,-0.535148 -0.348682,-1.067514 -0.611328,-1.5625 v -0.002 -0.002 C 29.95871,12.985892 29.240932,12.118505 28.384766,11.408203 27.522657,10.691892 26.536726,10.146962 25.482422,9.7871094 h -0.002 C 24.387007,9.416338 23.232706,9.2280932 22.070312,9.234375 Z m 0.0039,1 c 1.05006,-0.0057 2.096472,0.165381 3.083984,0.5 0.94347,0.322023 1.823071,0.805931 2.587891,1.441406 v 0.002 c 0.7588,0.629524 1.394085,1.398413 1.859375,2.261719 0.292819,0.55226 0.522596,1.137972 0.679687,1.738281 l 0.111328,0.421875 0.433594,-0.05273 c 0.271823,-0.03329 0.543067,-0.05062 0.814453,-0.05078 1.920794,0.01123 3.762386,0.742598 5.166016,2.050781 l 0.002,0.002 c 0.693358,0.637441 1.252509,1.403518 1.65625,2.255859 0.411375,0.885211 0.628906,1.847191 0.628906,2.81836 v 0.02734 l -0.01172,0.330078 v 0.0039 c -0.02272,1.107572 -0.240095,2.203931 -0.632812,3.246094 -2.28e-4,6.04e-4 2.28e-4,0.0013 0,0.002 -0.372761,0.936763 -0.950174,1.78606 -1.6875,2.480469 -0.781814,0.702292 -1.698917,1.247886 -2.685547,1.589843 -0.937971,0.322092 -1.91114,0.536905 -2.896484,0.640625 l -0.261719,0.02734 -0.125,0.230469 c -0.388486,0.713191 -0.829354,1.392915 -1.318359,2.044922 -0.542608,0.719474 -1.177552,1.368808 -1.884766,1.927734 -0.658115,0.511292 -1.386967,0.91542 -2.169922,1.189453 -0.772414,0.268438 -1.589064,0.407914 -2.402344,0.402344 -0.778101,-0.0057 -1.555158,-0.107195 -2.300781,-0.310547 l -0.002,-0.002 c -0.844475,-0.228237 -1.664996,-0.541524 -2.447266,-0.933594 -0.664925,-0.434027 -1.284487,-0.922322 -1.859375,-1.46875 -0.508579,-0.485975 -0.954772,-1.027216 -1.333984,-1.615234 l -0.002,-0.0039 c -0.706533,-1.119769 -1.086779,-2.42515 -1.087891,-3.75 v -0.002 c 0,-0.0013 0,-0.0026 0,-0.0039 0.01195,-0.995772 0.188375,-1.978201 0.527344,-2.916015 0.313014,-0.863686 0.699948,-1.696748 1.162109,-2.482422 L 15.820313,24.035156 15.6875,23.787109 C 15.216287,22.914491 14.820056,22.007163 14.5,21.064453 v -0.002 -0.0039 C 14.148178,20.0542 13.964956,18.998781 13.947266,17.927734 v -0.0039 c -1.1e-5,-6.48e-4 10e-6,-0.0013 0,-0.002 -0.0045,-1.34597 0.363887,-2.670537 1.066406,-3.814453 l 0.002,-0.002 c 0.379349,-0.611069 0.832858,-1.17789 1.345703,-1.673828 0.594188,-0.571517 1.247152,-1.077315 1.945313,-1.523438 1.214029,-0.431049 2.485124,-0.668178 3.767578,-0.673828 z m 0.0059,1.392578 c -1.05014,0.0065 -2.095785,0.175661 -3.091797,0.509766 l -0.0625,0.02148 -0.05469,0.03516 c -0.554923,0.365745 -1.06708,0.78696 -1.541016,1.242188 h -0.002 v 0.002 c -0.429744,0.416916 -0.807922,0.884519 -1.123047,1.392578 l -0.002,0.002 c -0.5693,0.929202 -0.863281,1.994433 -0.863281,3.072266 v 0.0039 0.0039 c 0.01272,0.922486 0.178443,1.836576 0.476562,2.699219 0.224854,0.661617 0.487567,1.29884 0.707031,1.791016 0.109981,0.246644 0.208631,0.457481 0.28711,0.617187 0.07848,0.159706 0.111058,0.232259 0.183594,0.341797 0.224208,0.339076 0.205559,1.063414 -0.03516,1.390625 h -0.002 c -0.07072,0.09683 -0.04885,0.08051 -0.07227,0.123047 -0.02342,0.04254 -0.05432,0.09793 -0.08984,0.166016 -0.07104,0.136162 -0.164834,0.322468 -0.271485,0.544921 -0.2133,0.444907 -0.475759,1.031973 -0.699218,1.646485 v 0.002 c -0.281104,0.785814 -0.436911,1.614931 -0.44336,2.457031 v 0.002 c 0,1.056775 0.303181,2.090052 0.873047,2.982422 4.91e-4,7.82e-4 0.0015,0.0012 0.002,0.002 3.44e-4,5.38e-4 -3.44e-4,0.0014 0,0.002 0.316098,0.502465 0.695781,0.957101 1.123047,1.365235 0.48259,0.463656 1.002872,0.877694 1.558594,1.246094 l 0.02734,0.01758 0.0293,0.01563 c 0.665914,0.323622 1.366051,0.592638 2.09375,0.787109 0.6263,0.166162 1.277391,0.255309 1.935546,0.261719 h 0.0039 0.002 c 0.656923,0 1.309948,-0.103678 1.933594,-0.320313 l 0.002,-0.002 h 0.002 c 0.634037,-0.226441 1.232638,-0.551101 1.761719,-0.96875 l 0.002,-0.002 c 0.620696,-0.488009 1.16663,-1.050733 1.638672,-1.673828 v -0.002 c 0.717556,-0.952617 1.3125,-1.974609 1.3125,-1.97461 l 0.01563,-0.02539 0.01172,-0.02734 c 0.150842,-0.346758 0.769694,-0.746945 1.189453,-0.742187 0.132307,0.002 0.110768,-0.0063 0.16211,-0.01367 0.05134,-0.0074 0.115274,-0.01764 0.193359,-0.03125 0.15617,-0.02721 0.365597,-0.06772 0.611328,-0.121094 0.491463,-0.106753 1.127535,-0.265176 1.757813,-0.480469 0.811797,-0.279258 1.557778,-0.720289 2.193359,-1.291015 l 0.0059,-0.0059 0.0059,-0.0059 c 0.576734,-0.550518 1.029901,-1.215018 1.326172,-1.958985 l 0.002,-0.002 0.002,-0.0039 c 0.337935,-0.886283 0.516089,-1.822322 0.535156,-2.769531 v -0.0059 -0.0078 l 0.01172,-0.318359 v -0.01172 c -0.0066,-0.762845 -0.17192,-1.516279 -0.496094,-2.210938 v -0.002 c -0.326317,-0.691792 -0.782757,-1.312312 -1.34375,-1.828125 -1.144818,-1.066763 -2.65267,-1.664741 -4.21875,-1.677734 h -0.002 -0.002 c -1.207454,0 -2.333984,0.378906 -2.333984,0.378906 l -0.01172,0.0039 c -0.0082,-0.06527 -0.01254,-0.02984 0.01367,-0.177734 l 0.01563,-0.08203 -0.01367,-0.08203 c 0,0 -0.221355,-1.486993 -0.931641,-2.830078 v -0.0039 l -0.002,-0.002 c -0.38368,-0.70233 -0.9027,-1.330805 -1.519531,-1.84375 l -0.002,-0.002 c -0.636855,-0.521063 -1.360208,-0.928259 -2.142578,-1.193359 -0.846091,-0.286272 -1.733396,-0.433912 -2.632813,-0.427735 z m 0.0078,1 c 0.786656,-0.0056 1.562302,0.123157 2.30664,0.375 0.665119,0.225371 1.280671,0.571615 1.828125,1.019531 0.517277,0.430613 0.953955,0.959959 1.275391,1.546875 0.604651,1.144673 0.826172,2.515625 0.826172,2.515625 l 0.002,-0.164062 c -0.08046,0.453899 -0.0995,0.858247 0.205078,1.205078 0.152286,0.173416 0.418207,0.2754 0.644531,0.257812 0.226324,-0.01759 0.410596,-0.112026 0.582031,-0.236328 l -0.136718,0.07031 c 0,0 1.025639,-0.326895 2.017578,-0.328125 1.316934,0.01093 2.584302,0.515033 3.544922,1.410156 h 0.002 v 0.002 c 0.466198,0.428253 0.84584,0.94316 1.117187,1.517578 0.261456,0.560264 0.396436,1.169493 0.402344,1.792969 1.2e-5,0.0013 -1.1e-5,0.0026 0,0.0039 l -0.01172,0.302735 v 0.01172 c -0.01681,0.835235 -0.174614,1.657059 -0.470703,2.433594 -0.241426,0.603451 -0.609688,1.143778 -1.082031,1.595703 -0.535175,0.478826 -1.161344,0.849909 -1.841797,1.083985 v -0.002 c -0.577955,0.19742 -1.180472,0.350371 -1.644531,0.451171 -0.23203,0.0504 -0.43105,0.08868 -0.572266,0.113282 -0.07061,0.0123 -0.126454,0.01996 -0.164062,0.02539 -0.02893,0.0042 -0.03225,0.0037 -0.0039,0.0039 -0.900902,-0.01228 -1.765651,0.522159 -2.123046,1.34375 l 0.02734,-0.05273 c 0,0 -0.577926,0.987312 -1.248047,1.876953 -0.4244,0.560025 -0.908615,1.059755 -1.458984,1.492188 v 0.002 c -0.438246,0.346268 -0.940661,0.618669 -1.476562,0.810547 -0.511599,0.177713 -1.051599,0.265212 -1.601563,0.265625 -0.574003,-0.0056 -1.141453,-0.08365 -1.6875,-0.228516 -0.649204,-0.173494 -1.277898,-0.417118 -1.882812,-0.708984 -0.497443,-0.332119 -0.962741,-0.698237 -1.392579,-1.111328 v -0.002 h -0.002 c -0.373208,-0.356497 -0.699131,-0.748546 -0.96875,-1.177735 v -0.002 l -0.002,-0.002 C 16.628985,31.40799 16.381585,30.563682 16.380859,29.697266 v -0.002 c 0,-6.37e-4 0,-0.0013 0,-0.002 0.006,-0.723692 0.139947,-1.436713 0.384766,-2.121093 0.207018,-0.568914 0.457313,-1.131594 0.660156,-1.554688 0.101576,-0.211868 0.190359,-0.390084 0.25586,-0.515625 0.03275,-0.06277 0.05971,-0.113036 0.07813,-0.146484 0.01524,-0.02768 0.02675,-0.04306 0.0039,-0.01172 l 0.002,-0.002 c 0.54018,-0.736142 0.566345,-1.76927 0.0625,-2.53125 0.02857,0.04314 -0.04709,-0.08581 -0.119141,-0.232422 -0.07204,-0.146614 -0.16636,-0.346279 -0.271484,-0.582031 -0.210248,-0.471505 -0.46433,-1.086216 -0.675781,-1.708985 v -0.002 l -0.002,-0.002 c -0.263499,-0.762464 -0.408107,-1.568746 -0.419922,-2.378906 v -0.002 c 3.47e-4,-0.894726 0.244378,-1.776347 0.714843,-2.544922 v -0.002 c 0.270892,-0.436503 0.597358,-0.840866 0.96875,-1.201172 0.41649,-0.399852 0.866037,-0.760008 1.339844,-1.078125 0.877125,-0.287747 1.796936,-0.443664 2.72461,-0.449219 z"
     id="path9" />
  <linearGradient
     id="_lgradient_1"
     x1="0"
     y1="0.5"
     x2="1"
     y2="0.5"
     gradientTransform="matrix(12.355703,0,0,16.473872,21.274177,15.763074)"
     gradientUnits="userSpaceOnUse">
    <stop
       offset="0%"
       stop-opacity="1"
       style="stop-color:rgb(247,242,6)"
       id="stop11" />
    <stop
       offset="97.82608695652173%"
       stop-opacity="1"
       style="stop-color:rgb(255,187,36)"
       id="stop13" />
  </linearGradient>
  <path
     style="color:#000000;fill:url(#linearGradient917);-inkscape-stroke:none"
     d="m 23.277344,16.861328 c -0.469998,-0.07228 -0.916788,-0.01046 -1.308594,0.199219 -0.783612,0.419347 -1.195313,1.350893 -1.195313,2.515625 v 2.136719 c 10e-7,0.901807 0.742383,1.642578 1.644532,1.642578 0.901807,0 1.644531,-0.740771 1.644531,-1.642578 v -0.746094 l 3.902344,2.603515 c 0.246291,0.164265 0.302734,0.313792 0.302734,0.429688 0,0.115896 -0.05644,0.265424 -0.302734,0.429687 L 24.0625,27.033203 v -0.746094 c 0,-0.901807 -0.742724,-1.642578 -1.644531,-1.642578 -0.902149,0 -1.644532,0.740771 -1.644532,1.642578 v 2.136719 c 0,1.164732 0.411701,2.096278 1.195313,2.515625 0.783612,0.419348 1.786504,0.243562 2.755859,-0.402344 L 30.734375,26.53125 C 31.714036,25.878478 32.269531,24.956351 32.269531,24 c 0,-0.956351 -0.555495,-1.878478 -1.535156,-2.53125 l -6.009766,-4.005859 c -0.484677,-0.322953 -0.977267,-0.529282 -1.447265,-0.601563 z m -0.128907,0.988281 c 0.289149,0.04752 0.630492,0.184784 1.021485,0.445313 l 6.009765,4.005859 c 0.771682,0.514191 1.089844,1.124043 1.089844,1.699219 0,0.575176 -0.318162,1.185028 -1.089844,1.699219 l -6.009765,4.005859 c -0.781986,0.521057 -1.365361,0.548902 -1.730469,0.353516 -0.365108,-0.195387 -0.666016,-0.695256 -0.666016,-1.634766 v -2.136719 c 0,-0.360259 0.283418,-0.642578 0.644532,-0.642578 0.360259,0 0.644531,0.282319 0.644531,0.642578 v 2.613282 l 5.457031,-3.638672 C 28.973657,24.958839 29.267578,24.496894 29.267578,24 c 0,-0.496894 -0.293921,-0.958839 -0.748047,-1.261719 L 23.0625,19.099609 v 2.613282 c 0,0.360259 -0.284272,0.642578 -0.644531,0.642578 -0.361114,0 -0.644531,-0.282319 -0.644532,-0.642578 v -2.136719 c 0,-0.93951 0.300908,-1.439379 0.666016,-1.634766 0.182554,-0.09769 0.419836,-0.139311 0.708984,-0.0918 z"
     id="path16" />
</svg>
