<?xml version="1.0" encoding="UTF-8" standalone="no"?>
<!-- Generator: Gravit.io -->

<svg
   style="isolation:isolate"
   viewBox="0 0 48 48"
   width="48pt"
   height="48pt"
   version="1.1"
   id="svg16"
   sodipodi:docname="mercury.svg"
   inkscape:version="1.1.2 (0a00cf5339, 2022-02-04)"
   xmlns:inkscape="http://www.inkscape.org/namespaces/inkscape"
   xmlns:sodipodi="http://sodipodi.sourceforge.net/DTD/sodipodi-0.dtd"
   xmlns:xlink="http://www.w3.org/1999/xlink"
   xmlns="http://www.w3.org/2000/svg"
   xmlns:svg="http://www.w3.org/2000/svg">
  <defs
     id="defs20">
    <linearGradient
       inkscape:collect="always"
       xlink:href="#_lgradient_4"
       id="linearGradient872"
       x1="-12.025727"
       y1="6.1170783"
       x2="-0.085100174"
       y2="6.1170783"
       gradientUnits="userSpaceOnUse"
       gradientTransform="matrix(3.8358211,0,0,3.8371386,-0.00544341,-0.00268054)" />
    <linearGradient
       id="_lgradient_1"
       x1="0.18336116"
       y1="0.24917752"
       x2="0.9027437"
       y2="0.90347725"
       gradientTransform="matrix(24.617266,0,0,24.816118,10.841288,10.089605)"
       gradientUnits="userSpaceOnUse">
      <stop
         offset="2.608695652173913%"
         stop-opacity="1"
         style="stop-color:rgb(179,255,171)"
         id="stop2-3" />
      <stop
         offset="98.69565217391305%"
         stop-opacity="1"
         style="stop-color:rgb(18,255,247)"
         id="stop4-6" />
    </linearGradient>
    <linearGradient
       inkscape:collect="always"
       xlink:href="#_lgradient_4"
       id="linearGradient15"
       x1="-9.6850061"
       y1="45.161198"
       x2="11.98815"
       y2="21.735205"
       gradientUnits="userSpaceOnUse"
       gradientTransform="matrix(1.1147442,0,0,1.1150348,-0.01237238,-3.3277956)" />
    <linearGradient
       inkscape:collect="always"
       xlink:href="#_lgradient_4"
       id="linearGradient1029"
       x1="11.760457"
       y1="24"
       x2="36.239544"
       y2="24"
       gradientUnits="userSpaceOnUse" />
    <linearGradient
       inkscape:collect="always"
       xlink:href="#_lgradient_5"
       id="linearGradient1055"
       x1="15.219458"
       y1="24"
       x2="32.78054"
       y2="24"
       gradientUnits="userSpaceOnUse" />
  </defs>
  <sodipodi:namedview
     id="namedview18"
     pagecolor="#ffffff"
     bordercolor="#666666"
     borderopacity="1.0"
     inkscape:pageshadow="2"
     inkscape:pageopacity="0.0"
     inkscape:pagecheckerboard="0"
     inkscape:document-units="pt"
     showgrid="false"
     inkscape:zoom="10.21875"
     inkscape:cx="31.95107"
     inkscape:cy="32"
     inkscape:window-width="1600"
     inkscape:window-height="836"
     inkscape:window-x="0"
     inkscape:window-y="0"
     inkscape:window-maximized="1"
     inkscape:current-layer="svg16" />
  <linearGradient
     id="_lgradient_4"
     x1="0"
     y1="0.5"
     x2="1.0000000000000002"
     y2="0.5"
     gradientTransform="matrix(24.479088,0,0,24.479088,11.760457,11.760457)"
     gradientUnits="userSpaceOnUse">
    <stop
       offset="0%"
       stop-opacity="1"
       style="stop-color:rgb(0,255,216)"
       id="stop2" />
    <stop
       offset="98.26086956521739%"
       stop-opacity="1"
       style="stop-color:rgb(0,255,184)"
       id="stop4" />
  </linearGradient>
  <rect
     x="-46.783188"
     y="1.2253767"
     height="45.80014"
     rx="6.1837621"
     shape-rendering="crispEdges"
     id="rect5-6-7-3"
     ry="6.8055277"
     transform="matrix(0.00524063,-0.99998627,0.99998801,0.00489691,0,0)"
     style="isolation:isolate;fill:#00fff3;fill-opacity:0.13470298;stroke:url(#linearGradient872);stroke-width:2.0301;stroke-miterlimit:4;stroke-dasharray:none;stroke-opacity:1"
     width="45.801998" />
  <rect
     x="-15.686804"
     y="17.260084"
     height="33.345856"
     rx="6.7920032"
     shape-rendering="crispEdges"
     id="rect5-6-6-6-6"
     style="isolation:isolate;fill:#00fff3;fill-opacity:0.13470298;stroke:url(#linearGradient15);stroke-width:1.67233;stroke-miterlimit:4;stroke-dasharray:none;stroke-opacity:1"
     ry="7.4743071"
     transform="matrix(0.72446484,-0.68931175,0.68622417,0.72739012,0,0)"
     width="33.338203" />
  <path
     style="color:#000000;fill:url(#linearGradient1029);fill-rule:evenodd;-inkscape-stroke:none"
     d="m 24,11.259766 c -7.025783,0 -12.740234,5.714451 -12.740234,12.740234 0,7.025783 5.714451,12.740234 12.740234,12.740234 7.025783,0 12.740234,-5.714451 12.740234,-12.740234 0,-2.295564 -0.582514,-4.74767 -1.664062,-6.634766 -0.174989,-0.305292 -0.152275,-1.247922 -0.08398,-2.208984 0.03415,-0.480531 0.06279,-0.968686 0.01172,-1.431641 -0.05107,-0.462955 -0.185433,-0.934208 -0.558594,-1.271484 -0.387778,-0.350599 -0.888985,-0.431415 -1.388671,-0.4375 -0.499686,-0.0061 -1.030999,0.0698 -1.554688,0.152344 -1.047378,0.165095 -2.103814,0.284299 -2.439453,0.138672 C 27.510154,11.632959 25.797094,11.259766 24,11.259766 Z m 0,1 c 1.65871,0 3.234221,0.344326 4.664062,0.964843 0.895765,0.388655 1.971176,0.09289 2.994141,-0.06836 0.511483,-0.08062 1.000844,-0.1453 1.384766,-0.140625 0.383921,0.0047 0.629023,0.0862 0.732422,0.179688 0.105511,0.09536 0.19686,0.298607 0.234375,0.638671 0.03751,0.340065 0.01761,0.784187 -0.01563,1.251954 -0.06648,0.935533 -0.256203,1.955535 0.214843,2.777343 0.970437,1.693227 1.53125,4.013281 1.53125,6.136719 0,6.484531 -5.255703,11.740234 -11.740234,11.740234 -6.484531,0 -11.740234,-5.255703 -11.740234,-11.740234 0,-6.484531 5.255703,-11.740234 11.740234,-11.740234 z m 0,1.662109 c -2.671146,0 -5.234889,1.062753 -7.126953,2.949219 v 0.002 h -0.002 C 14.984628,18.765111 13.921875,21.328854 13.921875,24 c 0,2.671146 1.062753,5.234889 2.949219,7.126953 h 0.002 v 0.002 c 1.892064,1.886466 4.455807,2.949219 7.126953,2.949219 2.671146,0 5.234889,-1.062753 7.126953,-2.949219 v -0.002 h 0.002 C 33.015372,29.234889 34.078125,26.671146 34.078125,24 c 0,-2.671146 -1.062753,-5.234889 -2.949219,-7.126953 h -0.002 v -0.002 C 29.234889,14.984628 26.671146,13.921875 24,13.921875 Z m 0,1 c 2.405597,0 4.716581,0.957955 6.421875,2.658203 1.699032,1.705105 2.65625,4.015244 2.65625,6.419922 0,2.404678 -0.957218,4.714817 -2.65625,6.419922 C 28.716581,32.12017 26.405597,33.078125 24,33.078125 c -2.404678,0 -4.714817,-0.957218 -6.419922,-2.65625 l -0.002,-0.002 C 15.879093,28.714817 14.921875,26.404678 14.921875,24 c 0,-2.405597 0.957955,-4.716581 2.658203,-6.421875 1.705105,-1.699032 4.015244,-2.65625 6.419922,-2.65625 z"
     id="path7" />
  <linearGradient
     id="_lgradient_5"
     x1="0"
     y1="0.5"
     x2="0.9074880558539661"
     y2="0.9200778838291643"
     gradientTransform="matrix(17.561085,0,0,17.561085,15.219459,15.219459)"
     gradientUnits="userSpaceOnUse">
    <stop
       offset="0%"
       stop-opacity="1"
       style="stop-color:rgb(0,196,255)"
       id="stop9" />
    <stop
       offset="83.88839793817618%"
       stop-opacity="1"
       style="stop-color:rgb(0,114,255)"
       id="stop11" />
  </linearGradient>
  <path
     style="color:#000000;fill:url(#linearGradient1055);fill-rule:evenodd;-inkscape-stroke:none"
     d="m 24,14.71875 c -5.11692,0 -9.28125,4.16433 -9.28125,9.28125 0,5.11692 4.16433,9.28125 9.28125,9.28125 5.11692,0 9.28125,-4.16433 9.28125,-9.28125 0,-5.11692 -4.16433,-9.28125 -9.28125,-9.28125 z m 0,1 c 4.575725,0 8.28125,3.705525 8.28125,8.28125 0,4.575725 -3.705525,8.28125 -8.28125,8.28125 -4.575725,0 -8.28125,-3.705525 -8.28125,-8.28125 0,-4.575725 3.705525,-8.28125 8.28125,-8.28125 z m 0,1.662109 c -1.754387,0 -3.441369,0.69447 -4.679688,1.9375 -1.244257,1.238498 -1.939453,2.926333 -1.939453,4.681641 0,1.754387 0.69447,3.441369 1.9375,4.679687 3.9e-4,3.92e-4 0.0016,-3.91e-4 0.002,0 3.92e-4,3.9e-4 -3.91e-4,0.0016 0,0.002 1.238319,1.24303 2.925301,1.9375 4.679688,1.9375 1.754387,0 3.441369,-0.69447 4.679687,-1.9375 l 0.002,-0.002 c 1.24303,-1.238318 1.9375,-2.9253 1.9375,-4.679687 0,-1.754387 -0.69447,-3.441369 -1.9375,-4.679688 C 27.443143,18.076055 25.755308,17.380859 24,17.380859 Z m 0,1 c 1.490827,0 2.922892,0.589886 3.972656,1.644532 v 0.002 h 0.002 c 1.054646,1.049764 1.644532,2.481829 1.644532,3.972656 0,1.490827 -0.589886,2.922892 -1.644532,3.972656 h -0.002 v 0.002 C 26.922892,29.029255 25.490827,29.619141 24,29.619141 c -1.490827,0 -2.922892,-0.589886 -3.972656,-1.644532 v -0.002 h -0.002 C 18.970745,26.922892 18.380859,25.490827 18.380859,24 c 0,-1.490827 0.589886,-2.922892 1.644532,-3.972656 h 0.002 v -0.002 C 21.077108,18.970745 22.509173,18.380859 24,18.380859 Z"
     id="path14" />
</svg>
