<?xml version="1.0" encoding="UTF-8" standalone="no"?>
<svg
   width="48"
   height="48"
   version="1.1"
   id="svg20"
   sodipodi:docname="minecraft.svg"
   inkscape:version="1.1.2 (0a00cf5339, 2022-02-04)"
   xmlns:inkscape="http://www.inkscape.org/namespaces/inkscape"
   xmlns:sodipodi="http://sodipodi.sourceforge.net/DTD/sodipodi-0.dtd"
   xmlns:xlink="http://www.w3.org/1999/xlink"
   xmlns="http://www.w3.org/2000/svg"
   xmlns:svg="http://www.w3.org/2000/svg">
  <sodipodi:namedview
     id="namedview22"
     pagecolor="#ffffff"
     bordercolor="#666666"
     borderopacity="1.0"
     inkscape:pageshadow="2"
     inkscape:pageopacity="0.0"
     inkscape:pagecheckerboard="0"
     showgrid="false"
     width="48px"
     inkscape:zoom="10.21875"
     inkscape:cx="23.29052"
     inkscape:cy="36.795107"
     inkscape:window-width="1600"
     inkscape:window-height="836"
     inkscape:window-x="0"
     inkscape:window-y="0"
     inkscape:window-maximized="1"
     inkscape:current-layer="svg20" />
  <defs
     id="defs14">
    <linearGradient
       id="b">
      <stop
         offset="0"
         stop-color="#43e97b"
         id="stop2" />
      <stop
         offset="1"
         stop-color="#ffe031"
         id="stop4" />
    </linearGradient>
    <linearGradient
       id="a">
      <stop
         offset="0"
         stop-color="#43e97b"
         id="stop7" />
      <stop
         offset="1"
         stop-color="#ffe031"
         id="stop9" />
    </linearGradient>
    <linearGradient
       xlink:href="#b"
       id="d"
       x1="259.98801"
       y1="-50.292999"
       x2="258.146"
       y2="417.59601"
       gradientUnits="userSpaceOnUse"
       gradientTransform="matrix(0.06105834,0,0,0.06105834,8.4351789,8.4158741)" />
    <radialGradient
       xlink:href="#a"
       id="c"
       cx="132.34599"
       cy="255.688"
       fx="132.34599"
       fy="255.688"
       r="215.922"
       gradientTransform="matrix(0.02901,1.18167,-2.34736,0.05764,846.124,-40.152)"
       gradientUnits="userSpaceOnUse" />
    <linearGradient
       inkscape:collect="always"
       xlink:href="#b"
       id="linearGradient872"
       x1="-12.025727"
       y1="6.1170783"
       x2="-0.085100174"
       y2="6.1170783"
       gradientUnits="userSpaceOnUse"
       gradientTransform="matrix(3.8366785,0,0,3.8379962,-1.0591751e-4,-0.00807312)" />
    <linearGradient
       id="_lgradient_1"
       x1="0.18336116"
       y1="0.24917752"
       x2="0.9027437"
       y2="0.90347725"
       gradientTransform="matrix(24.617266,0,0,24.816118,10.841288,10.089605)"
       gradientUnits="userSpaceOnUse">
      <stop
         offset="2.608695652173913%"
         stop-opacity="1"
         style="stop-color:rgb(179,255,171)"
         id="stop2-7" />
      <stop
         offset="98.69565217391305%"
         stop-opacity="1"
         style="stop-color:rgb(18,255,247)"
         id="stop4-5" />
    </linearGradient>
    <linearGradient
       inkscape:collect="always"
       xlink:href="#b"
       id="linearGradient15"
       x1="-9.6850061"
       y1="45.161198"
       x2="11.98815"
       y2="21.735205"
       gradientUnits="userSpaceOnUse"
       gradientTransform="matrix(1.1149933,0,0,1.115284,-0.0125952,-3.3361236)" />
    <linearGradient
       inkscape:collect="always"
       xlink:href="#b"
       id="linearGradient1071"
       x1="10.783098"
       y1="23.999975"
       x2="37.216961"
       y2="23.999975"
       gradientUnits="userSpaceOnUse" />
  </defs>
  <rect
     x="-46.788307"
     y="1.2202586"
     height="45.810375"
     rx="6.1851444"
     shape-rendering="crispEdges"
     id="rect5-6-7-3"
     ry="6.8070488"
     transform="matrix(0.00524063,-0.99998627,0.99998801,0.00489691,0,0)"
     style="isolation:isolate;fill:#c0ff00;fill-opacity:0.13470298;stroke:url(#linearGradient872);stroke-width:2.03055;stroke-miterlimit:4;stroke-dasharray:none;stroke-opacity:1"
     width="45.812237" />
  <rect
     x="-15.69053"
     y="17.256357"
     height="33.35331"
     rx="6.7935209"
     shape-rendering="crispEdges"
     id="rect5-6-6-6-6"
     style="isolation:isolate;fill:#c0ff00;fill-opacity:0.13470298;stroke:url(#linearGradient15);stroke-width:1.6727;stroke-miterlimit:4;stroke-dasharray:none;stroke-opacity:1"
     ry="7.4759774"
     transform="matrix(0.72446484,-0.68931175,0.68622417,0.72739012,0,0)"
     width="33.345654" />
  <path
     style="color:#000000;fill:url(#linearGradient1071);stroke-linecap:round;stroke-linejoin:round;-inkscape-stroke:none"
     d="m 24.152344,8.515625 c -0.382389,-0.01297 -0.761663,0.081465 -1.09375,0.2714844 L 11.320313,15.503906 c -1.3600114,0.778621 -1.3610432,2.793991 -0.002,3.574219 l 2.373047,1.361328 c -0.349072,-0.271529 -0.743608,-0.505874 -1.216797,-0.505859 -1.131853,-3.5e-5 -2.058628,0.928693 -2.058593,2.060547 v 8.742187 c 5.7e-5,0.735278 0.392478,1.415651 1.029297,1.783203 l 11.591796,6.691406 c 0.638122,0.368199 1.425323,0.365925 2.0625,-0.0039 L 36.625,32.517578 c 0.629383,-0.365382 1.01969,-1.037892 1.025391,-1.765625 l 0.06641,-8.542969 c 0.0087,-1.14678 -0.924978,-1.995895 -1.960938,-2.060547 0.559133,-0.08172 1.080484,-0.349832 1.416016,-0.853515 0.627507,-0.941969 0.369733,-2.229961 -0.572266,-2.857422 L 25.222656,8.859375 C 24.904242,8.6472695 24.534714,8.5286398 24.152344,8.515625 Z m -0.03516,1 c 0.196823,0.0067 0.388833,0.066602 0.552735,0.1757813 l 11.375,7.5781247 c 0.492193,0.327848 0.622793,0.978526 0.294922,1.470703 -0.327844,0.492141 -0.97659,0.622737 -1.46875,0.294922 L 24.296875,11.990234 a 0.50005,0.50005 0 0 0 -0.525391,-0.01758 l -8.539062,4.886719 a 0.50005,0.50005 0 0 0 0,0.867187 l 8.533203,4.896485 a 0.50005,0.50005 0 0 0 0.492187,0.0039 c 2.909755,-1.623198 3.056407,-1.52744 6.53711,-3.507812 0.513992,-0.292431 1.152871,-0.117502 1.445312,0.396484 0.292488,0.514012 0.117553,1.152869 -0.396484,1.445312 -3.868573,2.201056 -3.505604,1.770971 -7.320313,3.941407 -0.326936,0.185993 -0.724543,0.185263 -1.050781,-0.002 l -11.65625,-6.689454 c -0.731446,-0.419909 -0.731942,-1.420798 0,-1.839843 L 23.554687,9.6542969 c 0.17094,-0.097811 0.365669,-0.145348 0.5625,-0.1386719 z M 24,12.994141 l 7.640625,5.089843 c -0.4476,-0.07227 -0.918065,-0.07395 -1.339844,0.166016 -3.323636,1.891009 -3.65561,1.917313 -6.277344,3.367187 l -7.537109,-4.324218 z m 9.115234,6.072265 1.201172,0.800781 c 0.425761,0.283589 0.924438,0.333014 1.398438,0.273438 -0.347536,-0.01427 -0.705851,0.05892 -1.042969,0.242187 l -2.095703,1.138672 c 0.708754,-0.619969 0.999092,-1.600341 0.539062,-2.455078 z m -19.164062,1.521485 2.570312,1.476562 c -0.772571,-0.118836 -1.533462,0.09847 -1.986328,0.771484 v -0.841796 c 1.7e-5,-0.546776 -0.23243,-1.036192 -0.583984,-1.40625 z m -1.476563,0.345703 c 0.591393,-1.9e-5 1.060566,0.469154 1.060547,1.060547 v 7.841796 a 0.50005,0.50005 0 0 0 0.25,0.431641 l 10.029297,5.789063 a 0.50005,0.50005 0 0 0 0.5,0 l 9.974609,-5.791016 a 0.50005,0.50005 0 0 0 0.248047,-0.427734 l 0.03906,-5.00586 a 0.50005,0.50005 0 0 0 -0.738281,-0.443359 l -9.160157,4.980469 c -0.321675,0.174916 -0.708496,0.172207 -1.027343,-0.0078 L 15.6875,24.865234 c -0.514956,-0.290798 -0.69122,-0.930373 -0.400391,-1.445312 0.290796,-0.514906 0.928441,-0.691163 1.44336,-0.400391 l 7.208984,4.070313 a 0.50005,0.50005 0 0 0 0.484375,0.0039 l 10.726563,-5.832031 c 0.729854,-0.396759 1.572738,0.108752 1.566406,0.939453 l -0.06641,8.542969 c -0.0029,0.375654 -0.202458,0.719593 -0.527344,0.908203 l -11.525391,6.689453 c -0.328957,0.190933 -0.731102,0.192044 -1.060547,0.002 L 11.945313,31.654297 c -0.328765,-0.189753 -0.529268,-0.538374 -0.529297,-0.917969 v -8.742187 c -1.8e-5,-0.591393 0.467201,-1.060565 1.058593,-1.060547 z m 2.060547,3.953125 c 0.177813,0.315986 0.325487,0.659516 0.66211,0.849609 l 7.960937,4.496094 c 0.617857,0.348839 1.37471,0.354575 1.998047,0.01563 l 8.414062,-4.576172 -0.03125,3.873047 -9.476562,5.5 -9.527344,-5.498047 z m 9.982422,1.017578 -0.328125,0.177734 -0.111328,-0.0625 c 0.151387,-0.0059 0.291973,-0.07599 0.439453,-0.115234 z"
     id="path18" />
</svg>
