<?xml version="1.0" encoding="UTF-8" standalone="no"?>
<!-- Generator: Gravit.io -->

<svg
   style="isolation:isolate"
   viewBox="0 0 48 48"
   width="48pt"
   height="48pt"
   version="1.1"
   id="svg9"
   sodipodi:docname="mixbus.svg"
   inkscape:version="1.1.2 (0a00cf5339, 2022-02-04)"
   xmlns:inkscape="http://www.inkscape.org/namespaces/inkscape"
   xmlns:sodipodi="http://sodipodi.sourceforge.net/DTD/sodipodi-0.dtd"
   xmlns:xlink="http://www.w3.org/1999/xlink"
   xmlns="http://www.w3.org/2000/svg"
   xmlns:svg="http://www.w3.org/2000/svg">
  <defs
     id="defs13">
    <linearGradient
       inkscape:collect="always"
       xlink:href="#_lgradient_11"
       id="linearGradient872"
       x1="-12.025727"
       y1="6.1170783"
       x2="-0.085100174"
       y2="6.1170783"
       gradientUnits="userSpaceOnUse"
       gradientTransform="matrix(3.8358211,0,0,3.8371386,-0.00544341,-0.00268054)" />
    <linearGradient
       id="_lgradient_1"
       x1="0.18336116"
       y1="0.24917752"
       x2="0.9027437"
       y2="0.90347725"
       gradientTransform="matrix(24.617266,0,0,24.816118,10.841288,10.089605)"
       gradientUnits="userSpaceOnUse">
      <stop
         offset="2.608695652173913%"
         stop-opacity="1"
         style="stop-color:rgb(179,255,171)"
         id="stop2-3" />
      <stop
         offset="98.69565217391305%"
         stop-opacity="1"
         style="stop-color:rgb(18,255,247)"
         id="stop4-6" />
    </linearGradient>
    <linearGradient
       inkscape:collect="always"
       xlink:href="#_lgradient_11"
       id="linearGradient15"
       x1="-9.6850061"
       y1="45.161198"
       x2="11.98815"
       y2="21.735205"
       gradientUnits="userSpaceOnUse"
       gradientTransform="matrix(1.1147442,0,0,1.1150348,-0.01237238,-3.3277956)" />
    <linearGradient
       inkscape:collect="always"
       xlink:href="#_lgradient_11"
       id="linearGradient1058"
       x1="11.996764"
       y1="23.999996"
       x2="36.003239"
       y2="23.999996"
       gradientUnits="userSpaceOnUse" />
  </defs>
  <sodipodi:namedview
     id="namedview11"
     pagecolor="#ffffff"
     bordercolor="#666666"
     borderopacity="1.0"
     inkscape:pageshadow="2"
     inkscape:pageopacity="0.0"
     inkscape:pagecheckerboard="0"
     inkscape:document-units="pt"
     showgrid="false"
     width="48pt"
     inkscape:zoom="7.6640625"
     inkscape:cx="23.420999"
     inkscape:cy="32.228338"
     inkscape:window-width="1600"
     inkscape:window-height="836"
     inkscape:window-x="0"
     inkscape:window-y="0"
     inkscape:window-maximized="1"
     inkscape:current-layer="svg9" />
  <linearGradient
     id="_lgradient_11"
     x1="0"
     y1="0.5"
     x2="1"
     y2="0.5"
     gradientTransform="matrix(24.006254,0,0,19.097812,11.996864,14.451056)"
     gradientUnits="userSpaceOnUse">
    <stop
       offset="0%"
       stop-opacity="1"
       style="stop-color:rgb(252,73,136)"
       id="stop2" />
    <stop
       offset="98.26086956521739%"
       stop-opacity="1"
       style="stop-color:rgb(234,51,62)"
       id="stop4" />
  </linearGradient>
  <rect
     x="-46.783188"
     y="1.2253767"
     height="45.80014"
     rx="6.1837621"
     shape-rendering="crispEdges"
     id="rect5-6-7-3"
     ry="6.8055277"
     transform="matrix(0.00524063,-0.99998627,0.99998801,0.00489691,0,0)"
     style="isolation:isolate;fill:#ff0042;fill-opacity:0.13470298;stroke:url(#linearGradient872);stroke-width:2.0301;stroke-miterlimit:4;stroke-dasharray:none;stroke-opacity:1"
     width="45.801998" />
  <rect
     x="-15.686804"
     y="17.260084"
     height="33.345856"
     rx="6.7920032"
     shape-rendering="crispEdges"
     id="rect5-6-6-6-6"
     style="isolation:isolate;fill:#ff0042;fill-opacity:0.13470298;stroke:url(#linearGradient15);stroke-width:1.67233;stroke-miterlimit:4;stroke-dasharray:none;stroke-opacity:1"
     ry="7.4743071"
     transform="matrix(0.72446484,-0.68931175,0.68622417,0.72739012,0,0)"
     width="33.338203" />
  <path
     style="color:#000000;fill:url(#linearGradient1058);fill-rule:evenodd;-inkscape-stroke:none"
     d="M 34.667969,13.951172 28.525391,14.0625 h -0.02734 -0.0098 c -0.701754,0.02966 -1.376546,0.297283 -1.908203,0.761719 -0.540354,0.453269 -0.908283,1.076241 -1.044922,1.765625 -5.18e-4,0.0025 -0.0014,0.0031 -0.002,0.0059 -0.0013,0.0057 -0.0025,0.0084 -0.0039,0.01563 -5.91e-4,0.0031 -0.0013,0.0088 -0.002,0.01367 l -0.002,0.01172 -0.002,0.0078 c -0.141831,-0.460378 -0.182947,-0.962959 -0.52539,-1.316406 l -0.002,-0.002 -0.002,-0.002 c -0.576344,-0.582093 -1.353933,-0.913942 -2.167969,-0.931641 l -6.556641,-0.210937 h -0.02344 -0.04883 -0.002 c -0.537849,0.0066 -1.05807,0.200109 -1.470703,0.548828 -0.400023,0.337778 -0.660033,0.80965 -0.759765,1.326172 -0.0035,0.01834 -0.02425,0.02841 -0.02734,0.04687 l -0.0059,0.04102 v 0.0293 c -8.95e-4,0.0033 -0.0059,0.02138 -0.0059,0.02148 l 0.0059,-0.05078 0.002,-0.02734 -0.88086,5.447266 -0.002,0.0039 c -0.02208,0.153708 -0.03906,0.320684 -0.03906,0.496094 -0.0053,0.784822 0.306967,1.53939 0.861328,2.09375 l 0.002,0.0039 0.0039,0.002 c 0.416742,0.403533 0.99706,0.506368 1.558594,0.615235 -0.735006,0.07235 -1.464698,0.263544 -2.033203,0.742187 v 0.002 h -0.002 c -0.6545,0.556196 -1.09885,1.327821 -1.244141,2.175782 v 0.002 l -0.636719,3.765625 -0.01953,0.197265 v 0.02539 c 0,-0.04106 -0.0052,-0.0086 -0.0059,0.06836 -0.0064,0.562065 0.21659,1.096471 0.603515,1.490235 l 0.002,0.002 0.002,0.002 c 0.390185,0.390185 0.917758,0.614827 1.472656,0.621094 l 6.023437,0.134765 h 0.05078 0.03516 0.0059 c 0.821769,-0.01742 1.623221,-0.292114 2.279297,-0.796875 0.640133,-0.467607 1.090946,-1.138506 1.341797,-1.886718 0.02563,-0.046 0.06056,-0.08593 0.07031,-0.125 6.8e-5,6.41e-4 -6.7e-5,0.0013 0,0.002 6.8e-5,6.41e-4 -6.8e-5,0.0013 0,0.002 0.07729,0.725674 0.350419,1.421245 0.876954,1.9375 l 0.002,0.002 0.0039,0.002 c 0.624659,0.595268 1.45817,0.922285 2.324219,0.904297 h 5.234375 0.01172 0.002 c 0.615304,-0.006 1.203908,-0.238528 1.658203,-0.648437 l 0.002,-0.002 c 0.458383,-0.409874 0.753422,-0.971785 0.822265,-1.583984 l 0.002,-0.02734 v -0.0098 l 0.74414,-6.326172 0.0059,-0.173828 v -0.04883 c 0.0065,-0.664879 -0.255894,-1.30261 -0.722657,-1.775391 l -0.0039,-0.0039 -0.0039,-0.002 c -0.289256,-0.281607 -0.705806,-0.322097 -1.087891,-0.439454 0.472848,-0.104801 0.966657,-0.170615 1.345703,-0.480468 0.554043,-0.452905 0.935064,-1.082824 1.078125,-1.78125 l 0.002,-0.0078 0.804688,-4.705078 0.01172,-0.146484 -0.0098,0.0625 c 0.02029,-0.0973 0.01619,-0.145003 0.01563,-0.175781 0.01359,-0.499634 -0.187881,-0.974355 -0.539062,-1.31836 l -0.0039,-0.0039 -0.0039,-0.0039 c -0.342816,-0.32241 -0.802682,-0.510205 -1.287109,-0.496094 z m 0.0098,1 h 0.01172 0.0078 c 0.204156,-0.0059 0.411335,0.07659 0.568359,0.222656 0.155347,0.154649 0.244161,0.366469 0.238281,0.574219 l -0.002,0.0059 v 0.0078 c 0,0.02978 -0.0054,0.03628 0.0059,-0.01758 l -0.0059,0.03125 -0.01172,0.132812 -0.792968,4.636719 c -0.09663,0.471738 -0.354782,0.899924 -0.730469,1.207031 -0.375658,0.307083 -0.85064,0.478516 -1.333985,0.478516 h -5.27539 -0.002 c -0.374614,0.0036 -0.735322,-0.139507 -1.003907,-0.394532 -0.265217,-0.267568 -0.413498,-0.618539 -0.40625,-0.986328 v -0.0039 -0.06641 l 0.02148,-0.1875 0.542969,-3.785156 0.002,-0.0078 c 0.0013,-0.0056 0.0025,-0.0086 0.0039,-0.01563 v -0.002 c 0.09317,-0.468064 0.342449,-0.889316 0.708984,-1.195312 l 0.0059,-0.0039 0.0039,-0.0039 c 0.355786,-0.311722 0.816649,-0.494136 1.291016,-0.515625 h 0.0078 z m -18.472656,0.230469 h 0.002 0.01953 0.02734 l 6.546875,0.208984 0.0039,0.002 c 0.554738,0.01206 1.085122,0.236478 1.478516,0.632813 0.381116,0.394369 0.589847,0.927534 0.585938,1.476562 v 0.002 0.04883 l -0.01758,0.25586 -0.580078,4.890625 -0.01367,0.193359 0.002,0.03125 c 0.01166,0.201942 0.100035,0.401016 0.232421,0.544922 l 0.01172,0.01367 0.01367,0.01172 c 0.174685,0.163311 0.407942,0.255498 0.654297,0.24414 l -0.02148,0.002 h 0.01367 l 7.398438,-0.0098 h 0.01172 c 0.39837,-0.0031 0.777885,0.152981 1.064453,0.429687 0.281533,0.286854 0.437459,0.665717 0.433594,1.058594 v 0.002 0.04102 l -0.0039,0.115234 -0.74414,6.332031 c -0.04249,0.364075 -0.216107,0.697237 -0.494141,0.945313 v 0.002 l -0.002,0.002 c -0.27568,0.249263 -0.6269,0.386976 -1,0.390625 h -0.0039 -5.25 -0.0059 c -0.602474,0.01251 -1.176219,-0.211308 -1.611328,-0.625 -0.414417,-0.407352 -0.646823,-0.976089 -0.642578,-1.566406 v -0.002 -0.002 c 0,-0.161307 0.01614,-0.322202 0.04883,-0.476563 l 0.002,-0.0039 0.63086,-3.228516 h -0.957032 c -0.304798,0 -0.595601,0.216197 -0.679687,0.515625 h -0.002 l -0.929688,3.25 -0.01172,0.03711 c -0.178273,0.586025 -0.542235,1.10001 -1.039063,1.460937 l -0.0059,0.0059 -0.0059,0.0039 c -0.482636,0.372617 -1.079554,0.57679 -1.695312,0.589843 h -0.01953 -0.03906 l -6.021484,-0.134765 h -0.002 c -0.293659,-0.0033 -0.5641,-0.118442 -0.773438,-0.326172 -0.202624,-0.206205 -0.321638,-0.489327 -0.318359,-0.777344 v -0.0039 -0.002 c 0,0.04456 0.0059,0.02022 0.0059,-0.07422 l -0.002,0.04687 0.01367,-0.136719 0.630859,-3.730468 v -0.002 c 0.105133,-0.611115 0.431223,-1.178352 0.90625,-1.582031 0.479154,-0.402618 1.089127,-0.625 1.714844,-0.625 h 4.445312 c 0.234788,0 0.525391,-0.178101 0.525391,-0.521484 l -0.0039,0.0625 L 20.880859,24 h -4.898437 -0.0039 c -0.521363,0.008 -1.02696,-0.192813 -1.400391,-0.552734 -0.363267,-0.364985 -0.570224,-0.866212 -0.566406,-1.378907 v -0.002 -0.002 c 0,-0.101611 0.01201,-0.221199 0.0293,-0.34375 l 0.884765,-5.484375 v -0.0293 c 8.79e-4,-0.0035 0.0059,-0.02137 0.0059,-0.02148 l -0.0078,0.08398 c 0.05044,-0.301063 0.208952,-0.575808 0.445313,-0.77539 0.236494,-0.200194 0.525799,-0.308271 0.835937,-0.3125 z m -2.138672,0.664062 c 9.88e-4,-0.001 -0.0048,0.0047 -0.01758,0.01953 -0.0012,0.0014 -0.0022,0.0057 -0.0039,0.0078 0.01374,-0.01665 0.0205,-0.02631 0.02148,-0.02734 z m 20.365235,0.109375 -5.865235,0.107422 h -0.0039 c -0.260737,0.009 -0.491726,0.1186 -0.675781,0.285156 -0.194863,0.157213 -0.340631,0.367419 -0.388672,0.626953 l -0.002,0.0098 -0.607422,4.246094 h 0.576172 5.167968 c 0.258737,0 0.499582,-0.09197 0.691407,-0.240235 l 0.0098,-0.0078 0.0098,-0.0078 c 0.18899,-0.16218 0.319067,-0.376874 0.373047,-0.621093 l 0.002,-0.01367 z m -18.478516,0.216797 -0.925781,5.71875 -0.0059,0.0293 v 0.04102 0.0039 c -0.0041,0.03612 -0.0098,0.06657 -0.0098,0.115234 0,0.23144 0.07835,0.454013 0.25,0.636719 l 0.01563,0.01758 0.01563,0.01367 C 15.479312,22.914293 15.716842,23 15.960938,23 h 0.01953 4.546875 0.0039 c 0.347991,-0.0035 0.68304,0.130306 0.925781,0.373047 v 0.002 l 0.002,0.002 c 0.24648,0.243024 0.38086,0.576505 0.38086,0.927734 0,-0.08959 -0.0039,-0.06933 -0.0039,0.05078 l -0.0059,0.0957 -0.101562,0.865234 c -0.04527,0.366409 -0.22639,0.711552 -0.50586,0.960938 -0.278309,0.24832 -0.631536,0.382812 -1.011719,0.382812 h -4.445312 c -0.395933,0 -0.773224,0.143052 -1.070312,0.390625 l -0.002,0.002 -0.002,0.002 c -0.294512,0.251753 -0.493953,0.599062 -0.558593,0.986329 l -0.652344,3.830078 6.15039,0.136718 h 0.03906 0.0078 c 0.387921,-0.01322 0.771431,-0.150572 1.087891,-0.404296 0.330312,-0.229447 0.577832,-0.560823 0.693359,-0.947266 l 0.002,-0.002 0.935547,-3.271485 c 0.105659,-0.358692 0.318392,-0.670894 0.615235,-0.894531 0.298491,-0.224879 0.655168,-0.34375 1.027343,-0.34375 h 0.654297 0.002 c 0.327845,-0.0037 0.651709,0.123232 0.890625,0.34961 0.233227,0.226481 0.366678,0.551955 0.363282,0.880859 l 0.0059,-0.07422 c -0.01323,0.0821 -0.0098,0.139123 -0.0098,0.164063 l 0.002,-0.05859 -0.02344,0.201172 -0.589844,3.001953 v 0.05469 l 0.01367,-0.111328 c -0.02579,0.112741 -0.03087,0.214204 -0.03125,0.306641 -0.0072,0.316086 0.115804,0.610702 0.316406,0.828125 l 0.01563,0.01758 0.01563,0.01563 c 0.246388,0.221939 0.568381,0.335911 0.892579,0.328125 h 0.01172 5.244141 0.212891 l 0.285156,-0.285156 0.763672,-6.480469 v -0.554687 l -7.894532,0.01172 h -0.01367 c -6.28e-4,10e-6 -0.0013,-9e-6 -0.002,0 -0.505437,0.0074 -0.993651,-0.186472 -1.357421,-0.541015 -0.352991,-0.354294 -0.550658,-0.839479 -0.546875,-1.339844 v -0.002 -0.04297 l 0.01758,-0.230469 0.580078,-4.894531 0.01367,-0.212891 -0.002,-0.02148 c -0.0085,-0.262199 -0.106766,-0.525311 -0.296875,-0.724609 l -0.0078,-0.0078 -0.0078,-0.0078 c -0.207197,-0.198834 -0.48468,-0.324219 -0.791016,-0.324219 h -0.002 z m -1.09375,0.271484 c -6.5e-5,2.57e-4 -0.002,0.0059 -0.002,0.0059 1.88e-4,-3.17e-4 -0.02712,0.03754 -0.04297,0.05859 0.01213,-0.01469 0.03617,-0.05084 0.04492,-0.06445 z m 18.394531,0.533203 -0.515625,3.164063 c -0.0058,0.02161 -0.02197,0.0464 -0.03906,0.06445 -0.02337,0.01424 -0.04892,0.02539 -0.06641,0.02539 h -4.591796 l 0.439453,-3.074219 c 10e-6,-5.4e-5 0.0019,-0.0017 0.002,-0.002 0.0016,-0.0036 0.01342,-0.02638 0.02734,-0.03711 l 0.02148,-0.01563 0.01953,-0.01953 c 0.01241,-0.01185 0.0383,-0.02119 0.04687,-0.02148 z m -16.455078,0.22461 5.947266,0.189453 h 0.01953 c 0.02059,0 0.05559,0.01711 0.08594,0.04102 0.0082,0.01069 0.01616,0.02272 0.01758,0.05273 4.7e-5,0.001 -3.4e-5,9.23e-4 0,0.002 l -0.0078,0.115234 -0.580078,4.884766 -0.02148,0.289063 v 0.07617 c -0.0058,0.768666 0.296747,1.511141 0.841796,2.056641 l 0.002,0.002 0.002,0.002 c 0.198706,0.194205 0.501791,0.168611 0.742187,0.296875 -0.436729,0.03327 -0.850444,0.175221 -1.222656,0.408203 0.01435,-0.06872 0.08712,-0.111487 0.0957,-0.18164 l 0.107422,-0.90625 0.0078,-0.164063 v -0.0098 c 10e-7,0.08959 0.0039,0.06933 0.0039,-0.05078 0,-0.608275 -0.236128,-1.203285 -0.679688,-1.640625 C 21.723579,22.229243 21.129545,21.993847 20.519531,22 H 16.021484 Z M 25.375,21.884766 c 0.112995,0.216236 0.09692,0.489497 0.271484,0.664062 l 0.0039,0.0039 0.0039,0.0039 c 0.124712,0.1195 0.318243,0.09276 0.46289,0.18164 l -0.84375,0.002 z m 6.640625,3.84375 -0.628906,5.320312 h -4.81836 -0.0293 -0.0078 c -0.06666,0.0016 -0.123424,-0.02664 -0.173828,-0.06445 -0.02362,-0.0339 -0.04387,-0.06812 -0.04297,-0.101563 v -0.0078 -0.0059 c 0,-0.0452 0.0046,-0.07985 0.0078,-0.09375 l 0.01172,-0.05469 v -0.01367 l 0.580078,-2.945312 0.03125,-0.269532 v -0.02734 c 0,-0.02494 0.0017,-0.0284 -0.002,-0.0059 l 0.0059,-0.03711 v -0.03711 c 0.0062,-0.600825 -0.230045,-1.186013 -0.666016,-1.609375 l -0.002,-0.002 h -0.002 c -0.02377,-0.02269 -0.06327,-0.01362 -0.08789,-0.03516 z m -10.609375,1.478515 -0.904297,3.164063 c -0.05247,0.175526 -0.161882,0.321786 -0.310547,0.421875 l -0.02148,0.01367 -0.01758,0.01758 c -0.138218,0.114286 -0.31336,0.175806 -0.503907,0.183593 h -0.0078 l -4.978516,-0.111328 0.457032,-2.689453 c 0.02529,-0.15151 0.106155,-0.291863 0.220703,-0.390625 0.122142,-0.100454 0.273077,-0.15625 0.425781,-0.15625 h 4.445312 c 0.441848,0 0.81803,-0.238617 1.195313,-0.453125 z"
     id="path7" />
</svg>
