<?xml version="1.0" encoding="UTF-8" standalone="no"?>
<!-- Generator: Gravit.io -->

<svg
   style="isolation:isolate"
   viewBox="0 0 48 48"
   width="48pt"
   height="48pt"
   version="1.1"
   id="svg16"
   sodipodi:docname="molotov.svg"
   inkscape:version="1.1.2 (0a00cf5339, 2022-02-04)"
   xmlns:inkscape="http://www.inkscape.org/namespaces/inkscape"
   xmlns:sodipodi="http://sodipodi.sourceforge.net/DTD/sodipodi-0.dtd"
   xmlns:xlink="http://www.w3.org/1999/xlink"
   xmlns="http://www.w3.org/2000/svg"
   xmlns:svg="http://www.w3.org/2000/svg">
  <defs
     id="defs20">
    <linearGradient
       inkscape:collect="always"
       xlink:href="#_lgradient_5"
       id="linearGradient872"
       x1="-12.025727"
       y1="6.1170783"
       x2="-0.085100174"
       y2="6.1170783"
       gradientUnits="userSpaceOnUse"
       gradientTransform="matrix(3.8358211,0,0,3.8371386,-0.00544341,-0.00268054)" />
    <linearGradient
       id="_lgradient_1"
       x1="0.18336116"
       y1="0.24917752"
       x2="0.9027437"
       y2="0.90347725"
       gradientTransform="matrix(24.617266,0,0,24.816118,10.841288,10.089605)"
       gradientUnits="userSpaceOnUse">
      <stop
         offset="2.608695652173913%"
         stop-opacity="1"
         style="stop-color:rgb(179,255,171)"
         id="stop2-3" />
      <stop
         offset="98.69565217391305%"
         stop-opacity="1"
         style="stop-color:rgb(18,255,247)"
         id="stop4-6" />
    </linearGradient>
    <linearGradient
       inkscape:collect="always"
       xlink:href="#_lgradient_5"
       id="linearGradient15"
       x1="-9.6850061"
       y1="45.161198"
       x2="11.98815"
       y2="21.735205"
       gradientUnits="userSpaceOnUse"
       gradientTransform="matrix(1.1147442,0,0,1.1150348,-0.01237238,-3.3277956)" />
    <linearGradient
       inkscape:collect="always"
       xlink:href="#_lgradient_6"
       id="linearGradient983"
       x1="11.902804"
       y1="22.524715"
       x2="36.097057"
       y2="22.524715"
       gradientUnits="userSpaceOnUse" />
  </defs>
  <sodipodi:namedview
     id="namedview18"
     pagecolor="#ffffff"
     bordercolor="#666666"
     borderopacity="1.0"
     inkscape:pageshadow="2"
     inkscape:pageopacity="0.0"
     inkscape:pagecheckerboard="0"
     inkscape:document-units="pt"
     showgrid="false"
     inkscape:zoom="10.21875"
     inkscape:cx="31.95107"
     inkscape:cy="32"
     inkscape:window-width="1600"
     inkscape:window-height="836"
     inkscape:window-x="0"
     inkscape:window-y="0"
     inkscape:window-maximized="1"
     inkscape:current-layer="svg16" />
  <linearGradient
     id="_lgradient_5"
     x1="1.0397949218750002"
     y1="1.1451822916666665"
     x2="-0.1564941406250011"
     y2="-0.22200520833333304"
     gradientTransform="matrix(48,0,0,48,0,0)"
     gradientUnits="userSpaceOnUse">
    <stop
       offset="19%"
       stop-opacity="1"
       style="stop-color:rgb(255,171,0)"
       id="stop2" />
    <stop
       offset="83%"
       stop-opacity="1"
       style="stop-color:rgb(255,0,76)"
       id="stop4" />
  </linearGradient>
  <rect
     x="-46.783188"
     y="1.2253767"
     height="45.80014"
     rx="6.1837621"
     shape-rendering="crispEdges"
     id="rect5-6-7-3"
     ry="6.8055277"
     transform="matrix(0.00524063,-0.99998627,0.99998801,0.00489691,0,0)"
     style="isolation:isolate;fill:#ff0066;fill-opacity:0.13470298;stroke:url(#linearGradient872);stroke-width:2.0301;stroke-miterlimit:4;stroke-dasharray:none;stroke-opacity:1"
     width="45.801998" />
  <rect
     x="-15.686804"
     y="17.260084"
     height="33.345856"
     rx="6.7920032"
     shape-rendering="crispEdges"
     id="rect5-6-6-6-6"
     style="isolation:isolate;fill:#ff0066;fill-opacity:0.13470298;stroke:url(#linearGradient15);stroke-width:1.67233;stroke-miterlimit:4;stroke-dasharray:none;stroke-opacity:1"
     ry="7.4743071"
     transform="matrix(0.72446484,-0.68931175,0.68622417,0.72739012,0,0)"
     width="33.338203" />
  <linearGradient
     id="_lgradient_6"
     x1="0"
     y1="0.5"
     x2="1.0000000000000002"
     y2="0.5"
     gradientTransform="matrix(24.194364,0,0,23.163967,11.902804,10.942652)"
     gradientUnits="userSpaceOnUse">
    <stop
       offset="0%"
       stop-opacity="1"
       style="stop-color:rgb(247,242,6)"
       id="stop9" />
    <stop
       offset="98.26086956521739%"
       stop-opacity="1"
       style="stop-color:rgb(255,187,36)"
       id="stop11" />
  </linearGradient>
  <path
     style="color:#000000;fill:url(#linearGradient983);-inkscape-stroke:none"
     d="m 16.525391,10.449219 c -0.179659,0.009 -0.349315,0.02416 -0.521485,0.07226 -0.579005,0.161686 -0.945128,0.630606 -1.398437,1.246094 -0.453662,0.615968 -0.946923,1.417247 -1.496094,2.328125 -0.403157,0.669095 -0.81467,1.398886 -1.128906,1.990234 -0.157118,0.295675 -0.28982,0.555898 -0.386719,0.761719 -0.04845,0.102911 -0.08777,0.191253 -0.119141,0.271485 -0.03137,0.08023 -0.07226,0.09033 -0.07226,0.310546 0,0.354654 0.122574,0.658585 0.285156,0.917969 0.08129,0.129692 0.170433,0.247456 0.306641,0.351563 0.136207,0.104107 0.386738,0.224653 0.666015,0.115234 v 0.002 c 0.172891,-0.06713 0.170866,-0.10547 0.205078,-0.138672 0.03421,-0.0332 0.06165,-0.06272 0.0918,-0.09766 0.0603,-0.06987 0.127741,-0.154256 0.203125,-0.253906 0.150768,-0.1993 0.333831,-0.45803 0.521485,-0.738281 0.146488,-0.218773 0.315848,-0.44373 0.498047,-0.703125 -0.138533,1.040176 -0.234663,1.756412 -0.478516,3.59375 -0.378543,2.852169 -0.889935,5.484331 -1.023438,6.443359 -0.206164,1.480263 -0.288559,2.497287 -0.207031,3.228516 0.04076,0.365614 0.116776,0.673192 0.308594,0.933593 0.191818,0.260402 0.535305,0.417969 0.841797,0.417969 0.145339,0 0.206099,-0.02709 0.287109,-0.05273 0.08101,-0.02565 0.164676,-0.0566 0.253906,-0.09375 0.178461,-0.07431 0.380475,-0.16975 0.582032,-0.273438 0.201556,-0.103687 0.399377,-0.215115 0.570312,-0.320312 0.170935,-0.105197 0.29567,-0.168985 0.441406,-0.332032 0.159116,-0.177957 0.214532,-0.337062 0.296875,-0.552734 0.08234,-0.215672 0.163033,-0.473588 0.236328,-0.761719 1.112027,-4.375474 2.97304,-7.551801 4.576172,-9.800781 -0.6188,3.802161 -1.022372,6.5317 -1.035156,7.857422 -0.0044,0.464212 -0.002,0.766782 0.02344,1.015625 0.02544,0.248843 0.08916,0.463492 0.179687,0.636719 v 0.002 c 0.07918,0.150702 0.161206,0.344342 0.414063,0.466797 0.252857,0.122455 0.431944,0.07408 0.615234,0.05273 0.334984,-0.03851 0.648798,-0.176019 1,-0.337891 0.351202,-0.161871 0.665463,-0.316029 0.912109,-0.541015 0.113226,-0.103148 0.11435,-0.139512 0.140625,-0.1875 0.02627,-0.04799 0.04965,-0.09756 0.07422,-0.152344 0.04914,-0.109576 0.102376,-0.244266 0.162109,-0.402344 0.119467,-0.316155 0.260472,-0.722963 0.396485,-1.15625 0.811412,-2.578573 2.462276,-6.039267 3.625,-7.824218 0.108217,-0.165934 0.268976,-0.371331 0.410156,-0.56836 -0.03321,0.180416 -0.05341,0.305036 -0.08984,0.498047 -1.089337,5.76981 -1.505621,8.687097 -1.572265,10.591797 -0.05189,1.484645 0.04838,2.181781 0.455078,3.060547 0.390766,0.844733 1.00115,1.485753 1.820312,1.904297 0.760334,0.389393 1.587428,0.494714 2.294922,0.242187 h 0.002 v -0.002 c 0.128277,-0.04616 0.238263,-0.104519 0.341797,-0.189453 0.103535,-0.08493 0.265625,-0.17226 0.265625,-0.505859 0,-0.163407 -0.02731,-0.185289 -0.04687,-0.246094 -0.01957,-0.06081 -0.04261,-0.122713 -0.07031,-0.191406 -0.0554,-0.137387 -0.12748,-0.297743 -0.207032,-0.458985 -0.111048,-0.225081 -0.338406,-0.870239 -0.447265,-1.302734 -0.268125,-1.068125 -0.277033,-2.586831 0.02344,-5.3125 0.381508,-3.464755 0.507841,-5.051583 1.609375,-10.466797 h -0.002 c 0.0512,-0.250191 0.09712,-0.504921 0.13086,-0.720703 0.03374,-0.215782 0.05859,-0.357009 0.05859,-0.521484 0,-0.304646 -0.0928,-0.61693 -0.27539,-0.873047 -0.182592,-0.256118 -0.434851,-0.458989 -0.746094,-0.652344 -0.792583,-0.492073 -1.663346,-0.607635 -2.431641,-0.259766 -0.785626,0.355539 -1.575793,1.084862 -2.361328,2.052735 -0.605264,0.745757 -1.151843,1.724775 -1.679687,2.701171 0.110649,-0.524122 0.257555,-1.181662 0.310547,-1.498046 0.0457,-0.272856 0.07208,-0.477996 0.08008,-0.652344 0.008,-0.174348 0.02225,-0.318247 -0.08789,-0.527344 -0.21394,-0.408856 -0.57971,-0.653918 -0.986328,-0.871094 -0.40707,-0.217417 -0.847025,-0.380484 -1.296875,-0.382812 -0.839947,-0.0042 -1.638799,0.479027 -2.390625,1.248047 -0.751826,0.769019 -1.473542,1.852895 -2.132813,3.197265 -0.159629,0.325752 -0.395016,0.963158 -0.630859,1.484375 0.09466,-1.144762 -0.03547,-1.014129 0.601563,-4.84375 0.271959,-1.634152 0.412549,-2.427868 0.425781,-2.949218 0.0066,-0.260676 -0.01723,-0.49998 -0.16211,-0.712891 -0.144874,-0.212911 -0.332086,-0.289774 -0.443359,-0.345703 -0.24412,-0.122828 -0.484763,-0.15858 -0.763672,-0.191406 -0.278271,-0.03275 -0.576582,-0.04374 -0.851562,-0.0293 z m 0.05273,0.998047 c 0.206948,-0.01096 0.46368,-0.0024 0.683594,0.02344 0.219914,0.02588 0.421758,0.08682 0.43164,0.0918 v 0.002 c 0.115975,0.05829 0.100303,0.06349 0.06641,0.01367 -0.0339,-0.04982 -0.0074,-0.04705 -0.01172,0.125 -0.0087,0.344102 -0.140115,1.176186 -0.41211,2.810547 -1.097713,6.599062 -1.052815,8.322569 -1.046875,8.503906 0.0012,0.03659 -0.0036,0.0808 0.03906,0.185547 0.01066,0.02619 0.04847,0.09126 0.04883,0.0918 3.58e-4,5.35e-4 0.09919,0.109034 0.09961,0.109375 4.17e-4,3.41e-4 0.167494,0.09165 0.167969,0.0918 4.75e-4,1.48e-4 0.190874,0.02153 0.191406,0.02148 5.33e-4,-4.2e-5 0.143942,-0.03297 0.144532,-0.0332 5.89e-4,-2.3e-4 0.06628,-0.03164 0.08984,-0.04687 0.04713,-0.03047 0.07373,-0.0573 0.09375,-0.07813 0.04005,-0.04165 0.05597,-0.06756 0.07031,-0.08984 0.05736,-0.08913 0.07408,-0.136914 0.105469,-0.21289 0.0626,-0.151525 0.137483,-0.362071 0.21875,-0.615235 v -0.002 C 17.90948,21.352097 18.826686,19.340403 19.25,18.476562 h -0.002 c 0.62513,-1.274753 1.305773,-2.277341 1.951172,-2.937499 0.645399,-0.660159 1.239047,-0.949436 1.669922,-0.947266 0.167589,8.67e-4 0.530604,0.104632 0.832031,0.265625 0.301427,0.160993 0.548874,0.406358 0.572265,0.451172 v 0.002 c -0.05902,-0.112048 -0.02068,-0.0871 -0.02539,0.01563 -0.0047,0.10272 -0.0261,0.282829 -0.06836,0.535156 -0.08452,0.504654 -0.253219,1.308273 -0.52539,2.53125 -0.262126,1.179168 -0.463536,2.032621 -0.595703,2.599609 -0.06608,0.283495 -0.11471,0.495512 -0.146485,0.646485 -0.01589,0.07549 -0.02669,0.133702 -0.03516,0.191406 -0.0042,0.02885 -0.0084,0.0559 -0.0098,0.101563 -6.77e-4,0.02283 -0.0014,0.04971 0.0059,0.09961 0.0036,0.02495 0.0093,0.05483 0.02539,0.09961 0.008,0.02239 0.03493,0.07772 0.03516,0.07813 2.3e-4,4.07e-4 0.07395,0.101282 0.07422,0.101563 0.07798,0.08138 0.231861,0.157536 0.367188,0.158203 0.135327,6.67e-4 0.228152,-0.04694 0.285156,-0.08398 0.114009,-0.0741 0.137809,-0.127083 0.166016,-0.169922 0.05641,-0.08568 0.08212,-0.150636 0.107422,-0.226563 0.230213,-0.69213 0.920833,-2.376555 1.326172,-3.230469 0.595892,-1.256656 1.323072,-2.408062 2.050781,-3.304687 0.727709,-0.896625 1.470517,-1.534701 1.998047,-1.773437 0.466582,-0.21126 0.890142,-0.17456 1.492187,0.199218 0.24549,0.152507 0.388171,0.283483 0.458985,0.382813 0.07081,0.09933 0.08984,0.16389 0.08984,0.292969 0,-0.0207 -0.01397,0.169214 -0.04492,0.367187 -0.03096,0.197973 -0.07519,0.439973 -0.123046,0.673828 v 0.002 c -1.10623,5.438293 -1.24254,7.100966 -1.623047,10.556641 -0.304981,2.766581 -0.317808,4.390234 0.002,5.664062 v 0.002 c 0.127573,0.506844 0.333442,1.124774 0.519531,1.501954 0.03266,0.06621 0.05525,0.120187 0.08398,0.183593 -0.368544,0.07732 -0.827296,0.08248 -1.3125,-0.166015 -0.640964,-0.327495 -1.056646,-0.762287 -1.367187,-1.433594 -0.358513,-0.77466 -0.413628,-1.165067 -0.363281,-2.605469 0.06275,-1.793542 0.468211,-4.686753 1.554687,-10.441406 0.122675,-0.649857 0.230158,-1.243841 0.304688,-1.681641 0.03727,-0.2189 0.06479,-0.398173 0.08398,-0.529297 0.0096,-0.06556 0.01656,-0.119206 0.02148,-0.166015 0.0025,-0.02341 0.0048,-0.04239 0.0059,-0.07422 5.15e-4,-0.01592 0.0013,-0.03316 -0.002,-0.07031 -0.0016,-0.01858 -0.0029,-0.04185 -0.01367,-0.08398 -0.0054,-0.02107 -0.02917,-0.08369 -0.0293,-0.08398 -1.31e-4,-2.91e-4 -0.09555,-0.140463 -0.0957,-0.140625 l -0.002,-0.0039 -0.002,-0.002 c -9.36e-4,-9.48e-4 -0.262264,-0.140348 -0.263672,-0.140624 -7.04e-4,-1.39e-4 -0.08183,-0.01086 -0.115235,-0.0098 -0.0334,0.0011 -0.06162,0.0048 -0.08594,0.0098 -0.09727,0.01981 -0.136785,0.0485 -0.169922,0.06836 -0.06627,0.03971 -0.09468,0.06602 -0.125,0.09375 -0.06065,0.05546 -0.112608,0.112198 -0.175781,0.183594 -0.126346,0.142791 -0.281907,0.335477 -0.453125,0.554687 -0.342436,0.43842 -0.740642,0.980442 -1.023438,1.414063 -1.246326,1.913293 -2.892185,5.369105 -3.742187,8.070312 v 0.002 c -0.130772,0.416591 -0.266577,0.811419 -0.376953,1.103516 -0.05519,0.146048 -0.103166,0.266522 -0.138672,0.345703 -0.0064,0.01436 -0.0083,0.018 -0.01367,0.0293 -0.06273,0.04771 -0.333748,0.220023 -0.619141,0.351562 -0.30258,0.139461 -0.664022,0.248132 -0.697265,0.251953 v 0.002 c -0.166565,0.01939 -0.177528,-0.0157 -0.06445,0.03906 0.113075,0.05476 0.104543,0.09886 0.03516,-0.0332 l 0.002,0.002 c -0.03888,-0.07439 -0.05321,-0.108082 -0.07031,-0.275391 -0.0171,-0.167308 -0.02388,-0.449938 -0.01953,-0.904296 0.01282,-1.329894 0.36384,-3.965168 1.146484,-8.65625 0.04962,-0.296426 0.08903,-0.636162 0.115235,-0.91211 0.0131,-0.137973 0.02365,-0.258543 0.0293,-0.351562 0.0028,-0.04651 0.0053,-0.08541 0.0059,-0.123047 2.96e-4,-0.01882 -2.53e-4,-0.03525 -0.002,-0.06445 -8.5e-4,-0.0146 -0.0017,-0.03171 -0.0078,-0.06641 -0.0031,-0.01735 -0.01932,-0.07555 -0.01953,-0.07617 -1.05e-4,-3.11e-4 -0.03113,-0.074 -0.03125,-0.07422 -1.15e-4,-2.18e-4 -0.08972,-0.120969 -0.08984,-0.121094 -1.24e-4,-1.25e-4 -0.212735,-0.124954 -0.21289,-0.125 -1.56e-4,-4.6e-5 -0.226377,-0.0137 -0.226563,-0.01367 -1.85e-4,3.3e-5 -0.140409,0.04677 -0.140625,0.04687 -2.16e-4,1.1e-4 -0.07593,0.04864 -0.07617,0.04883 -4.92e-4,3.73e-4 -0.05585,0.04655 -0.07031,0.0625 -0.01446,0.01595 -0.02375,0.02909 -0.03125,0.03906 -0.02999,0.03987 -0.03735,0.05551 -0.04687,0.07227 -0.01905,0.03351 -0.03359,0.05976 -0.05078,0.09375 -0.03438,0.06798 -0.07582,0.15534 -0.126953,0.253907 -0.102263,0.197133 -0.239973,0.440506 -0.361329,0.599609 -1.761062,2.308243 -4.032506,6.018317 -5.312499,11.054688 -0.06554,0.257342 -0.137916,0.484711 -0.201172,0.65039 -0.06343,0.166134 -0.147079,0.28631 -0.109375,0.244141 0.0415,-0.04643 -0.07795,0.05983 -0.21875,0.146484 -0.140805,0.08665 -0.323514,0.187445 -0.50586,0.28125 -0.182346,0.0938 -0.365547,0.180999 -0.507812,0.240235 -0.07113,0.02962 -0.13174,0.05237 -0.169922,0.06445 -0.03818,0.01209 -0.07056,0.0059 0.01367,0.0059 -0.06173,0 -0.01209,0.0242 -0.03711,-0.0098 -0.02502,-0.03397 -0.09087,-0.180077 -0.121093,-0.451171 -0.06045,-0.54219 0.0031,-1.532046 0.205078,-2.982422 0.118903,-0.854149 0.64192,-3.559926 1.02539,-6.449219 0.380989,-2.870599 0.717469,-5.401276 0.746094,-5.613281 l -0.925781,-0.320313 c -0.07309,0.124055 -0.199507,0.313392 -0.404297,0.580078 v 0.002 c -0.331577,0.432636 -0.885096,1.216804 -1.257812,1.773437 -0.14343,0.214204 -0.274379,0.393032 -0.394532,0.556641 -0.01304,-0.04488 -0.03965,-0.09329 -0.04297,-0.123047 0.01844,-0.04572 0.0452,-0.10903 0.08398,-0.191407 0.08537,-0.181326 0.213034,-0.43233 0.365234,-0.71875 0.304401,-0.572839 0.711111,-1.292109 1.103516,-1.943359 0.545925,-0.905494 1.03077,-1.689799 1.443359,-2.25 0.41259,-0.560201 0.800071,-0.859364 0.863281,-0.876953 0.04446,-0.01242 0.163987,-0.0301 0.304688,-0.03711 z m 15.490234,17.947265 c -0.133958,0.0026 -0.27984,-0.0588 -0.519531,0.177735 -0.119845,0.118268 -0.166777,0.316794 -0.162109,0.421875 0.0047,0.10508 0.02376,0.154862 0.03516,0.191406 0.07618,0.24368 0.207031,1.093158 0.207031,1.332031 v 0.789063 l 1.087891,0.179687 c 0.752452,0.125779 1.681153,0.431731 2.283203,0.746094 0.13925,0.0729 0.270864,0.140559 0.375,0.191406 0.05207,0.02542 0.09694,0.04669 0.136719,0.06445 0.01989,0.0089 0.03778,0.01655 0.06055,0.02539 0.02277,0.0088 -3.42e-4,0.02305 0.154296,0.03711 h 0.002 c 8.48e-4,7.5e-5 0.233397,-0.03476 0.234375,-0.03516 9.77e-4,-3.98e-4 0.09522,-0.0486 0.123046,-0.07031 0.05565,-0.04342 0.07712,-0.07531 0.0957,-0.09961 0.03717,-0.04859 0.05191,-0.07554 0.06641,-0.103516 0.029,-0.05596 0.04951,-0.105581 0.07227,-0.164062 0.04552,-0.116961 0.09306,-0.261603 0.140625,-0.421875 0.14295,-0.484534 0.161602,-0.828014 0.06055,-1.210938 -0.172977,-0.656425 -0.492747,-1.151007 -0.990234,-1.427734 -0.629917,-0.351343 -1.668916,-0.523773 -2.796875,-0.59375 -0.305676,-0.01835 -0.499291,-0.03139 -0.662109,-0.0293 h -0.002 z m 0.390625,1.017578 c 0.08276,0.0044 0.102961,0.003 0.214844,0.0098 1.035075,0.06422 2.114035,0.326462 2.369141,0.46875 h 0.002 c 0.26932,0.149809 0.371227,0.28286 0.509765,0.808594 0.08014,0.303663 0.07458,0.236261 -0.05273,0.666015 -0.01453,-0.0076 -0.02433,-0.01182 -0.03906,-0.01953 C 34.731016,31.963551 33.753077,31.645799 32.880859,31.5 l -0.251953,-0.04102 v 0.05859 c 0,-0.315588 -0.09339,-0.721062 -0.169922,-1.105469 z m -7.732422,0.16211 c -0.166863,0 -0.331699,0.02611 -0.580078,0.0625 -0.248378,0.03639 -0.551815,0.08625 -0.878906,0.144531 -0.654181,0.116555 -1.397868,0.26405 -1.955078,0.394531 -0.508813,0.119627 -1.278712,0.298837 -1.708984,0.398438 -0.443237,0.102596 -1.480311,0.358517 -2.322266,0.574218 -0.834396,0.212745 -1.843813,0.45801 -2.201172,0.533204 -0.385826,0.08094 -0.691459,0.157537 -0.923828,0.234375 -0.116184,0.03842 -0.210587,0.07397 -0.310547,0.128906 -0.04998,0.02747 -0.102472,0.05681 -0.167969,0.121094 -0.0655,0.06428 -0.173689,0.19142 -0.169921,0.402343 v 0.002 0.002 c 0.0076,0.287852 0.112912,0.356168 0.1875,0.449218 0.07459,0.09305 0.157302,0.172334 0.246093,0.248047 0.08879,0.07571 0.182171,0.145304 0.285157,0.205078 0.102985,0.05978 0.190694,0.13086 0.423828,0.13086 0.119131,0 0.0805,-0.0038 0.113281,-0.0078 0.03278,-0.004 0.07355,-0.01068 0.125,-0.01758 0.102905,-0.0138 0.245385,-0.03248 0.416016,-0.05664 0.341261,-0.04832 0.80019,-0.114709 1.294921,-0.1875 1.377557,-0.203304 3.336289,-0.447752 5.06836,-0.640625 1.729344,-0.192569 3.277217,-0.333518 3.685547,-0.33789 0.197104,0 0.400155,-0.171817 0.455078,-0.279297 0.05492,-0.10748 0.05537,-0.16851 0.05859,-0.214844 0.0064,-0.09267 -0.0028,-0.140153 -0.01172,-0.193359 -0.0179,-0.106413 -0.04809,-0.211136 -0.08789,-0.328125 v -0.002 c -0.04889,-0.141436 -0.156406,-0.550739 -0.208984,-0.820313 v -0.002 c -0.04842,-0.25426 -0.04865,-0.402371 -0.191407,-0.628906 -0.07158,-0.11359 -0.220664,-0.232834 -0.351562,-0.275391 -0.130898,-0.04256 -0.219311,-0.03906 -0.289063,-0.03906 z m -0.171875,1.019531 c 0.01494,0.0535 0.0028,0.01558 0.02148,0.113281 v 0.002 c 0.04595,0.236136 0.114818,0.477202 0.179687,0.703125 -0.711498,0.0397 -1.730349,0.125499 -3.199218,0.289063 -1.643514,0.183011 -3.438643,0.408897 -4.816407,0.607422 0.301487,-0.07411 0.492062,-0.113719 0.789063,-0.189453 v -0.002 h 0.002 c 0.835433,-0.21403 1.877454,-0.471275 2.296875,-0.568359 0.432385,-0.100089 1.20249,-0.28039 1.712891,-0.400391 0.527501,-0.123523 1.263138,-0.268925 1.902343,-0.382812 0.319603,-0.05694 0.61456,-0.106474 0.847657,-0.140625 0.141143,-0.02068 0.183532,-0.0232 0.263671,-0.03125 z"
     id="path14" />
</svg>
