<?xml version="1.0" encoding="UTF-8" standalone="no"?>
<!-- Generator: Gravit.io -->

<svg
   style="isolation:isolate"
   viewBox="0 0 48 48"
   width="48pt"
   height="48pt"
   version="1.1"
   id="svg16"
   sodipodi:docname="motrix.svg"
   inkscape:version="1.1.2 (0a00cf5339, 2022-02-04)"
   xmlns:inkscape="http://www.inkscape.org/namespaces/inkscape"
   xmlns:sodipodi="http://sodipodi.sourceforge.net/DTD/sodipodi-0.dtd"
   xmlns:xlink="http://www.w3.org/1999/xlink"
   xmlns="http://www.w3.org/2000/svg"
   xmlns:svg="http://www.w3.org/2000/svg">
  <defs
     id="defs20">
    <linearGradient
       inkscape:collect="always"
       xlink:href="#_lgradient_7"
       id="linearGradient872"
       x1="-12.025727"
       y1="6.1170783"
       x2="-0.085100174"
       y2="6.1170783"
       gradientUnits="userSpaceOnUse"
       gradientTransform="matrix(3.8358211,0,0,3.8371386,-0.00544341,-0.00268054)" />
    <linearGradient
       id="_lgradient_1"
       x1="0.18336116"
       y1="0.24917752"
       x2="0.9027437"
       y2="0.90347725"
       gradientTransform="matrix(24.617266,0,0,24.816118,10.841288,10.089605)"
       gradientUnits="userSpaceOnUse">
      <stop
         offset="2.608695652173913%"
         stop-opacity="1"
         style="stop-color:rgb(179,255,171)"
         id="stop2-3" />
      <stop
         offset="98.69565217391305%"
         stop-opacity="1"
         style="stop-color:rgb(18,255,247)"
         id="stop4-6" />
    </linearGradient>
    <linearGradient
       inkscape:collect="always"
       xlink:href="#_lgradient_7"
       id="linearGradient15"
       x1="-9.6850061"
       y1="45.161198"
       x2="11.98815"
       y2="21.735205"
       gradientUnits="userSpaceOnUse"
       gradientTransform="matrix(1.1147442,0,0,1.1150348,-0.01237238,-3.3277956)" />
    <linearGradient
       inkscape:collect="always"
       xlink:href="#_lgradient_7"
       id="linearGradient903"
       x1="13.057647"
       y1="24"
       x2="34.942352"
       y2="24"
       gradientUnits="userSpaceOnUse" />
    <linearGradient
       inkscape:collect="always"
       xlink:href="#_lgradient_8"
       id="linearGradient933"
       x1="20.762524"
       y1="15.68636"
       x2="27.237476"
       y2="15.68636"
       gradientUnits="userSpaceOnUse" />
  </defs>
  <sodipodi:namedview
     id="namedview18"
     pagecolor="#ffffff"
     bordercolor="#666666"
     borderopacity="1.0"
     inkscape:pageshadow="2"
     inkscape:pageopacity="0.0"
     inkscape:pagecheckerboard="0"
     inkscape:document-units="pt"
     showgrid="false"
     inkscape:zoom="10.21875"
     inkscape:cx="32.04893"
     inkscape:cy="32"
     inkscape:window-width="1600"
     inkscape:window-height="836"
     inkscape:window-x="0"
     inkscape:window-y="0"
     inkscape:window-maximized="1"
     inkscape:current-layer="svg16" />
  <linearGradient
     id="_lgradient_7"
     x1="0.031182562838213412"
     y1="0.10866627890091946"
     x2="0.9583795358695032"
     y2="0.9751947012019755"
     gradientTransform="matrix(21.884706,0,0,23.309037,13.057647,12.345481)"
     gradientUnits="userSpaceOnUse">
    <stop
       offset="0%"
       stop-opacity="1"
       style="stop-color:rgb(199,81,251)"
       id="stop2" />
    <stop
       offset="97.5%"
       stop-opacity="1"
       style="stop-color:rgb(109,68,222)"
       id="stop4" />
  </linearGradient>
  <rect
     x="-46.783188"
     y="1.2253767"
     height="45.80014"
     rx="6.1837621"
     shape-rendering="crispEdges"
     id="rect5-6-7-3"
     ry="6.8055277"
     transform="matrix(0.00524063,-0.99998627,0.99998801,0.00489691,0,0)"
     style="isolation:isolate;fill:#b200ff;fill-opacity:0.13470298;stroke:url(#linearGradient872);stroke-width:2.0301;stroke-miterlimit:4;stroke-dasharray:none;stroke-opacity:1"
     width="45.801998" />
  <rect
     x="-15.686804"
     y="17.260084"
     height="33.345856"
     rx="6.7920032"
     shape-rendering="crispEdges"
     id="rect5-6-6-6-6"
     style="isolation:isolate;fill:#b200ff;fill-opacity:0.13470298;stroke:url(#linearGradient15);stroke-width:1.67233;stroke-miterlimit:4;stroke-dasharray:none;stroke-opacity:1"
     ry="7.4743071"
     transform="matrix(0.72446484,-0.68931175,0.68622417,0.72739012,0,0)"
     width="33.338203" />
  <path
     style="color:#000000;fill:url(#linearGradient903);fill-rule:evenodd;-inkscape-stroke:none"
     d="m 15.751953,12.095703 c -0.784635,0 -1.531024,0.311733 -2.082031,0.863281 -0.550938,0.550939 -0.861328,1.295329 -0.861328,2.080079 v 17.921874 c 0,0.78475 0.31039,1.52914 0.861328,2.080079 0.551007,0.551548 1.297396,0.863281 2.082031,0.863281 h 16.496094 c 0.784635,0 1.531024,-0.311733 2.082031,-0.863281 0.550938,-0.550939 0.861328,-1.295329 0.861328,-2.080079 V 15.039063 c 0,-0.78475 -0.31039,-1.52914 -0.861328,-2.080079 -0.551007,-0.551548 -1.297396,-0.863281 -2.082031,-0.863281 z m 0,0.5 h 16.496094 c 0.65259,0 1.267842,0.257626 1.726562,0.716797 0.458788,0.458788 0.716797,1.074088 0.716797,1.726563 v 17.921874 c 0,0.652475 -0.258009,1.267775 -0.716797,1.726563 -0.45872,0.459171 -1.073972,0.716797 -1.726562,0.716797 H 15.751953 c -0.65259,0 -1.267842,-0.257626 -1.726562,-0.716797 -0.458788,-0.458788 -0.716797,-1.074088 -0.716797,-1.726563 V 15.039063 c 0,-0.652475 0.258009,-1.267775 0.716797,-1.726563 0.45872,-0.459171 1.073972,-0.716797 1.726562,-0.716797 z m 0,1.441406 c -0.264433,0 -0.519216,0.107162 -0.707031,0.294922 C 14.856321,14.519976 14.75,14.774011 14.75,15.039063 v 17.921874 c 0,0.265055 0.106328,0.519089 0.294922,0.707032 0.187816,0.187765 0.442601,0.294922 0.707031,0.294922 h 16.496094 c 0.264096,0 0.519012,-0.106959 0.707031,-0.294922 C 33.143679,33.480024 33.25,33.225989 33.25,32.960937 V 15.039063 c 0,-0.265055 -0.106328,-0.519089 -0.294922,-0.707032 -0.18802,-0.187969 -0.442937,-0.294922 -0.707031,-0.294922 h -1.699219 v 0.25 2.914063 c 0,0.936365 -0.756995,1.693359 -1.693359,1.693359 h -9.710938 c -0.936364,0 -1.693359,-0.756994 -1.693359,-1.693359 v -3.164063 z m 3.142578,0 v 0.25 3.164063 h 10.210938 v -3.414063 z m -3.142578,0.5 h 1.199219 v 2.664063 c 0,1.207073 0.986287,2.193359 2.193359,2.193359 h 9.710938 c 1.207072,0 2.193359,-0.986286 2.193359,-2.193359 v -2.664063 h 1.199219 c 0.136002,0 0.256998,0.05158 0.353515,0.148438 h 0.002 c 0.09706,0.09672 0.146484,0.216862 0.146484,0.353516 v 17.921874 c 0,0.136657 -0.04943,0.256795 -0.146484,0.353516 h -0.002 c -0.09652,0.09685 -0.217516,0.148438 -0.353515,0.148438 H 15.751953 c -0.136657,0 -0.256793,-0.05138 -0.353515,-0.148438 h -0.002 C 15.299427,33.217731 15.25,33.097591 15.25,32.960937 V 15.039063 c 0,-0.136657 0.04943,-0.256795 0.146484,-0.353516 h 0.002 c 0.09672,-0.09706 0.216861,-0.148438 0.353515,-0.148438 z m 3.642578,0 h 9.210938 v 2.414063 h -9.210938 z m 2.294922,13.675782 c -0.625152,0 -1.134766,0.511566 -1.134766,1.136718 v 2.023438 h 1.384766 v -1.773438 h 0.386719 v 1.773438 h 1.386719 v -1.773438 h 0.386718 v 1.773438 h 1.386719 v -2.023438 c 0,-0.625152 -0.511567,-1.136718 -1.136719,-1.136718 z m 7.091797,0 c -0.625151,0 -1.136719,0.511566 -1.136719,1.136718 v 0.886719 c 0,0.625153 0.511567,1.136719 1.136719,1.136719 h 1.771484 c 0.625153,0 1.136719,-0.511567 1.136719,-1.136719 v -0.886719 c 0,-0.625152 -0.511567,-1.136718 -1.136719,-1.136718 z m -7.091797,0.5 h 2.660156 c 0.356802,0 0.636719,0.279916 0.636719,0.636718 v 1.523438 h -0.386719 v -1.773438 h -1.386718 v 1.773438 h -0.386719 v -1.773438 h -1.386719 v 1.773438 h -0.384766 v -1.523438 c 0,-0.356802 0.277963,-0.636718 0.634766,-0.636718 z m 7.091797,0 h 1.771484 c 0.356803,0 0.636719,0.279915 0.636719,0.636718 v 0.886719 c 0,0.356803 -0.279916,0.636719 -0.636719,0.636719 H 28.78125 c -0.356801,0 -0.636719,-0.279916 -0.636719,-0.636719 v -0.886719 c 0,-0.356802 0.279917,-0.636718 0.636719,-0.636718 z m -2.216797,0.386718 c -0.379832,0 -0.693359,0.313864 -0.693359,0.69336 0,0.379495 0.313864,0.693359 0.693359,0.693359 0.379495,0 0.693359,-0.313528 0.693359,-0.693359 0,-0.379832 -0.313527,-0.69336 -0.693359,-0.69336 z m 1.966797,0 v 0.25 1.136719 h 2.271484 v -1.386719 z m -1.966797,0.5 c 0.111146,0 0.193359,0.08221 0.193359,0.19336 0,0.111144 -0.08188,0.193359 -0.193359,0.193359 -0.111482,0 -0.193359,-0.08188 -0.193359,-0.193359 0,-0.111482 0.08221,-0.19336 0.193359,-0.19336 z m 2.466797,0 h 1.271484 v 0.386719 H 29.03125 Z"
     id="path7" />
  <linearGradient
     id="_lgradient_8"
     x1="0"
     y1="0.5"
     x2="1.0000000000000002"
     y2="0.5"
     gradientTransform="matrix(6.4749529,0,0,1.2948914,20.762524,15.038915)"
     gradientUnits="userSpaceOnUse">
    <stop
       offset="0%"
       stop-opacity="1"
       style="stop-color:rgb(247,242,6)"
       id="stop9" />
    <stop
       offset="98.26086956521739%"
       stop-opacity="1"
       style="stop-color:rgb(255,187,36)"
       id="stop11" />
  </linearGradient>
  <path
     style="color:#000000;fill:url(#linearGradient933);fill-rule:evenodd;-inkscape-stroke:none"
     d="m 20.513672,14.791016 v 0.248047 1.542968 h 3.085937 v -1.791015 z m 3.886719,0 v 0.248047 1.542968 h 3.085937 v -1.791015 z m -3.390625,0.496093 h 2.09375 v 0.798828 h -2.09375 z m 3.886718,0 h 2.09375 v 0.798828 h -2.09375 z"
     id="path14" />
</svg>
