<?xml version="1.0" encoding="UTF-8" standalone="no"?>
<!-- Generator: Gravit.io -->

<svg
   style="isolation:isolate"
   viewBox="0 0 48 48"
   width="48pt"
   height="48pt"
   version="1.1"
   id="svg11"
   sodipodi:docname="mp3splt-gtk.svg"
   inkscape:version="1.1.2 (0a00cf5339, 2022-02-04)"
   xmlns:inkscape="http://www.inkscape.org/namespaces/inkscape"
   xmlns:sodipodi="http://sodipodi.sourceforge.net/DTD/sodipodi-0.dtd"
   xmlns:xlink="http://www.w3.org/1999/xlink"
   xmlns="http://www.w3.org/2000/svg"
   xmlns:svg="http://www.w3.org/2000/svg">
  <defs
     id="defs15">
    <linearGradient
       inkscape:collect="always"
       xlink:href="#_lgradient_12"
       id="linearGradient872"
       x1="-12.025727"
       y1="6.1170783"
       x2="-0.085100174"
       y2="6.1170783"
       gradientUnits="userSpaceOnUse"
       gradientTransform="matrix(3.8358211,0,0,3.8371386,-0.00544341,-0.00268054)" />
    <linearGradient
       id="_lgradient_1"
       x1="0.18336116"
       y1="0.24917752"
       x2="0.9027437"
       y2="0.90347725"
       gradientTransform="matrix(24.617266,0,0,24.816118,10.841288,10.089605)"
       gradientUnits="userSpaceOnUse">
      <stop
         offset="2.608695652173913%"
         stop-opacity="1"
         style="stop-color:rgb(179,255,171)"
         id="stop2-3" />
      <stop
         offset="98.69565217391305%"
         stop-opacity="1"
         style="stop-color:rgb(18,255,247)"
         id="stop4-6" />
    </linearGradient>
    <linearGradient
       inkscape:collect="always"
       xlink:href="#_lgradient_12"
       id="linearGradient15"
       x1="-9.6850061"
       y1="45.161198"
       x2="11.98815"
       y2="21.735205"
       gradientUnits="userSpaceOnUse"
       gradientTransform="matrix(1.1147442,0,0,1.1150348,-0.01237238,-3.3277956)" />
    <linearGradient
       inkscape:collect="always"
       xlink:href="#_lgradient_12"
       id="linearGradient1294"
       x1="9.8261099"
       y1="24.051346"
       x2="38.221867"
       y2="24.051346"
       gradientUnits="userSpaceOnUse" />
  </defs>
  <sodipodi:namedview
     id="namedview13"
     pagecolor="#ffffff"
     bordercolor="#666666"
     borderopacity="1.0"
     inkscape:pageshadow="2"
     inkscape:pageopacity="0.0"
     inkscape:pagecheckerboard="0"
     inkscape:document-units="pt"
     showgrid="false"
     inkscape:zoom="7.2257474"
     inkscape:cx="32.038208"
     inkscape:cy="31.969011"
     inkscape:window-width="1600"
     inkscape:window-height="836"
     inkscape:window-x="0"
     inkscape:window-y="0"
     inkscape:window-maximized="1"
     inkscape:current-layer="svg11" />
  <linearGradient
     id="_lgradient_12"
     x1="0"
     y1="0.5"
     x2="1"
     y2="0.5"
     gradientTransform="matrix(28.395802,0,0,28.351753,9.8260939,9.8755622)"
     gradientUnits="userSpaceOnUse">
    <stop
       offset="0%"
       stop-opacity="1"
       style="stop-color:rgb(220,80,141)"
       id="stop2" />
    <stop
       offset="50.416666666666664%"
       stop-opacity="1"
       style="stop-color:rgb(245,139,123)"
       id="stop4" />
    <stop
       offset="97.91666666666666%"
       stop-opacity="1"
       style="stop-color:rgb(249,172,80)"
       id="stop6" />
  </linearGradient>
  <rect
     x="-46.783188"
     y="1.2253767"
     height="45.80014"
     rx="6.1837621"
     shape-rendering="crispEdges"
     id="rect5-6-7-3"
     ry="6.8055277"
     transform="matrix(0.00524063,-0.99998627,0.99998801,0.00489691,0,0)"
     style="isolation:isolate;fill:#ff0092;fill-opacity:0.13470298;stroke:url(#linearGradient872);stroke-width:2.0301;stroke-miterlimit:4;stroke-dasharray:none;stroke-opacity:1"
     width="45.801998" />
  <rect
     x="-15.686804"
     y="17.260084"
     height="33.345856"
     rx="6.7920032"
     shape-rendering="crispEdges"
     id="rect5-6-6-6-6"
     style="isolation:isolate;fill:#ff0092;fill-opacity:0.13470298;stroke:url(#linearGradient15);stroke-width:1.67233;stroke-miterlimit:4;stroke-dasharray:none;stroke-opacity:1"
     ry="7.4743071"
     transform="matrix(0.72446484,-0.68931175,0.68622417,0.72739012,0,0)"
     width="33.338203" />
  <path
     style="color:#000000;fill:url(#linearGradient1294);fill-rule:evenodd;-inkscape-stroke:none"
     d="M 24.15625,9.3769531 C 20.261353,9.3419709 16.505952,10.856279 13.722656,13.583984 v 0.002 c -2.776472,2.733382 -4.3609866,6.459198 -4.3964841,10.353515 -0.033732,3.708026 1.3378451,7.295566 3.8320311,10.037109 2.500471,2.741586 5.946647,4.436785 9.638672,4.744141 0.979752,0.08117 1.852813,-0.655376 1.933594,-1.634766 0.07987,-0.979272 -0.656039,-1.853011 -1.634766,-1.935546 -0.653524,-0.05508 -1.237191,-0.349885 -1.863281,-0.515625 0.496165,0.01881 0.977086,-0.235148 1.11914,-0.730469 0.166404,-0.580221 -0.175392,-1.198001 -0.753906,-1.367188 h -0.002 -0.002 c -1.856464,-0.525522 -3.489579,-1.640671 -4.648438,-3.175781 -1.160195,-1.543117 -1.789062,-3.417072 -1.789062,-5.341797 0,-1.24512 0.263277,-2.478905 0.771484,-3.615234 0.245429,-0.551673 -0.0054,-1.215575 -0.558593,-1.460938 -0.513348,-0.227703 -1.092044,0.007 -1.369141,0.482422 0.557689,-1.201372 1.272811,-2.338133 2.234375,-3.285156 2.106278,-2.062347 4.945856,-3.210152 7.890625,-3.183594 0.266971,0.0024 0.505111,0.138688 0.769531,0.160157 -0.452713,0.09788 -0.845531,0.40249 -0.896484,0.884765 -0.06334,0.599569 0.37705,1.149816 0.976562,1.216797 2.165115,0.239934 4.170449,1.268479 5.626953,2.890625 1.456488,1.622127 2.261719,3.722266 2.261719,5.904297 l -0.0059,0.384765 c -0.01093,0.60265 0.480664,1.1124 1.083984,1.121094 0.603307,0.0087 1.109133,-0.482282 1.121094,-1.085937 l 0.0078,-0.396485 v -0.01758 c 0,-2.210479 -0.81472,-4.272312 -2.037109,-6.08789 1.263306,1.860668 2.127957,3.965271 2.107422,6.242187 -0.0092,0.983281 0.790136,1.798362 1.773437,1.806641 0.98291,0.0092 1.797532,-0.790742 1.806641,-1.773438 0.03498,-3.89495 -1.479982,-7.650329 -4.207031,-10.433593 l -0.002,-0.002 C 31.777878,10.994547 28.051276,9.4119369 24.15625,9.3769531 Z m -0.0078,0.9999999 c 3.629631,0.0326 7.101887,1.508977 9.650391,4.097656 2.541344,2.594312 3.95447,6.093462 3.921875,9.722657 -0.0041,0.441377 -0.355712,0.787316 -0.796875,0.783203 -0.441977,-0.0037 -0.78732,-0.354878 -0.783203,-0.796875 0.02896,-3.210776 -1.222946,-6.30661 -3.470703,-8.601563 -2.254016,-2.288626 -5.326292,-3.596044 -8.53711,-3.625 -3.210774,-0.02896 -6.304656,1.222946 -8.599609,3.470703 -2.288625,2.254016 -3.596046,5.326293 -3.625,8.53711 -0.02769,3.05514 1.095911,6.012917 3.15625,8.273437 2.059773,2.260588 4.901329,3.653445 7.947266,3.910156 0.438104,0.03694 0.75864,0.414289 0.722656,0.855469 -0.03623,0.439191 -0.413165,0.757844 -0.855469,0.720703 -3.44041,-0.286409 -6.651905,-1.866632 -8.982422,-4.421875 -2.324731,-2.555283 -3.60175,-5.89773 -3.570312,-9.353515 0.0326,-3.629127 1.509645,-7.101983 4.097656,-9.650391 2.594389,-2.542571 6.09485,-3.954476 9.724609,-3.921875 z m 2.824219,3.175781 c 0.590989,0.165789 1.18139,0.261213 1.736328,0.521485 -0.546899,-0.258412 -1.152133,-0.355299 -1.736328,-0.521485 z m -1.865234,0.464844 c 2.459941,0.270134 4.74331,1.442457 6.392578,3.287109 v 0.002 c 1.655543,1.84524 2.570312,4.235117 2.570312,6.71289 v 0.0098 l -0.0078,0.386719 c -0.0027,0.06067 -0.0457,0.10441 -0.107422,0.103515 -0.06221,-8.96e-4 -0.09891,-0.04084 -0.09766,-0.103515 l 0.0059,-0.398438 v -0.0039 c 0,-2.428104 -0.896618,-4.766962 -2.517578,-6.572266 -1.62094,-1.805282 -3.852904,-2.949857 -6.261719,-3.216797 -0.05942,-0.0066 -0.09845,-0.0542 -0.0918,-0.117187 0.0064,-0.06074 0.04999,-0.09705 0.115235,-0.08984 z m 5.410156,1.28711 c 0.469837,0.346284 1.022838,0.557609 1.4375,0.978515 0.0761,0.0777 0.102187,0.187917 0.175781,0.267578 -0.466446,-0.508003 -1.066776,-0.838037 -1.613281,-1.246093 z m -6.507812,3.085937 c -1.49103,0 -2.926897,0.596819 -3.980469,1.650391 -1.05357,1.053571 -1.648438,2.487485 -1.648438,3.978515 0,1.49103 0.594867,2.926897 1.648438,3.980469 1.053572,1.053572 2.489439,1.650391 3.980469,1.650391 1.491029,0 2.926897,-0.596819 3.980468,-1.650391 1.053572,-1.053572 1.648438,-2.489439 1.648438,-3.980469 0,-1.49103 -0.594866,-2.924944 -1.648438,-3.978515 -1.053571,-1.053572 -2.489439,-1.650391 -3.980468,-1.650391 z m 0,1 c 1.224363,0 2.408131,0.492115 3.273437,1.357422 0.865307,0.865306 1.355469,2.047121 1.355469,3.271484 0,1.224364 -0.490163,2.408131 -1.355469,3.273438 -0.865306,0.865306 -2.049074,1.357422 -3.273437,1.357422 -1.224364,0 -2.408132,-0.492116 -3.273438,-1.357422 -0.865305,-0.865307 -1.355469,-2.049075 -1.355469,-3.273438 0,-1.224363 0.490163,-2.406177 1.355469,-3.271484 0.865306,-0.865306 2.049074,-1.357422 3.273438,-1.357422 z m -10.107422,0.177734 c -0.620168,1.404971 -0.953125,2.919115 -0.953125,4.451172 0,0.68777 0.202841,1.34131 0.328125,2.009766 -0.125292,-0.688092 -0.375561,-1.348218 -0.369141,-2.056641 0.01387,-1.538452 0.379137,-3.023845 0.994141,-4.404297 z m 1.060547,0.289063 c 0.05629,0.02497 0.0781,0.07922 0.05078,0.140625 l 0.002,-0.002 c -0.565882,1.265287 -0.859375,2.637644 -0.859375,4.023437 0,2.142331 0.700541,4.228004 1.990234,5.94336 1.290977,1.710702 3.108519,2.950514 5.173828,3.535156 h -0.0039 c 0.06111,0.01787 0.09126,0.0695 0.07422,0.128906 -0.01713,0.05972 -0.07053,0.08965 -0.128906,0.07422 -2.103774,-0.597793 -3.961391,-1.868293 -5.277344,-3.615235 v -0.002 c -1.322261,-1.747683 -2.035156,-3.873905 -2.035156,-6.064453 0,-1.413954 0.2985,-2.816392 0.878906,-4.109375 l 0.002,-0.002 c 0.02375,-0.05395 0.07425,-0.07676 0.132813,-0.05078 z m 9.046875,0.947265 c -0.848844,0 -1.671132,0.334912 -2.273438,0.94336 -0.608447,0.602305 -0.941406,1.422643 -0.941406,2.271484 0,0.848844 0.332959,1.671132 0.941406,2.273438 0.602306,0.608447 1.424594,0.943359 2.273438,0.943359 0.848841,0 1.669178,-0.334913 2.271484,-0.943359 0.608447,-0.602306 0.943359,-1.424594 0.943359,-2.273438 0,-0.848841 -0.334912,-1.669179 -0.943359,-2.271484 -0.602306,-0.608447 -1.422643,-0.94336 -2.271484,-0.94336 z m 0,1 c 0.586417,0 1.151228,0.23227 1.5625,0.648438 l 0.002,0.002 0.002,0.002 c 0.416168,0.411272 0.648437,0.976083 0.648437,1.5625 0,0.586419 -0.232269,1.153181 -0.648437,1.564453 l -0.002,0.002 -0.002,0.002 c -0.411272,0.416167 -0.976083,0.648437 -1.5625,0.648437 -0.586419,0 -1.153181,-0.232269 -1.564454,-0.648437 l -0.002,-0.002 -0.002,-0.002 c -0.416168,-0.411272 -0.646484,-0.978034 -0.646484,-1.564453 0,-0.586417 0.230316,-1.151228 0.646484,-1.5625 l 0.002,-0.002 0.002,-0.002 c 0.411273,-0.416168 0.978035,-0.648438 1.564454,-0.648438 z m -10.449219,5.802735 c 0.26761,0.779137 0.716893,1.480459 1.154297,2.185547 -0.436441,-0.712917 -0.888942,-1.396186 -1.154297,-2.185547 z m 21.322265,0.859375 c -0.439774,0.132553 -0.830124,0.432134 -1.0625,0.865234 -1.131325,2.095589 -2.893186,3.771217 -5.044921,4.789063 h -0.002 v 0.002 c -0.887639,0.424268 -1.269883,1.500078 -0.847656,2.388672 0.421991,0.88784 1.499246,1.269894 2.386719,0.845703 2.837656,-1.343917 5.176563,-3.566855 6.664062,-6.332031 0.464594,-0.865911 0.134572,-1.958422 -0.730468,-2.423829 -0.433014,-0.232328 -0.923507,-0.267318 -1.363282,-0.134765 z m 0.888672,1.015625 c 0.388869,0.209218 0.533043,0.681106 0.324219,1.070312 -1.386761,2.57791 -3.567778,4.650223 -6.212891,5.902344 h -0.002 c -0.399755,0.191074 -0.863591,0.02775 -1.052734,-0.371094 v -0.002 c -0.18964,-0.399105 -0.02311,-0.865419 0.376953,-1.05664 2.344657,-1.10949 4.264632,-2.938285 5.496094,-5.220704 h 0.002 c 0.208318,-0.388263 0.679645,-0.529503 1.068359,-0.322265 z m -20.392578,1.388672 c 0.53017,0.668996 1.169396,1.225363 1.832031,1.75 -0.461883,-0.366721 -1.004292,-0.615495 -1.406249,-1.056641 -0.185948,-0.204014 -0.256643,-0.477452 -0.425782,-0.693359 z m 2.783203,2.464843 c 0.727815,0.457009 1.511451,0.815589 2.332032,1.09375 -0.829293,-0.2819 -1.592276,-0.626509 -2.332032,-1.09375 z"
     id="path9" />
</svg>
