<?xml version="1.0" encoding="UTF-8" standalone="no"?>
<!-- Generator: Gravit.io -->

<svg
   style="isolation:isolate"
   viewBox="0 0 48 48"
   width="48pt"
   height="48pt"
   version="1.1"
   id="svg30"
   sodipodi:docname="mps.svg"
   inkscape:version="1.1.2 (0a00cf5339, 2022-02-04)"
   xmlns:inkscape="http://www.inkscape.org/namespaces/inkscape"
   xmlns:sodipodi="http://sodipodi.sourceforge.net/DTD/sodipodi-0.dtd"
   xmlns:xlink="http://www.w3.org/1999/xlink"
   xmlns="http://www.w3.org/2000/svg"
   xmlns:svg="http://www.w3.org/2000/svg">
  <defs
     id="defs34">
    <linearGradient
       inkscape:collect="always"
       xlink:href="#_lgradient_39"
       id="linearGradient872"
       x1="-12.025727"
       y1="6.1170783"
       x2="-0.085100174"
       y2="6.1170783"
       gradientUnits="userSpaceOnUse"
       gradientTransform="matrix(3.8358211,0,0,3.8371386,-0.00544341,-0.00268054)" />
    <linearGradient
       id="_lgradient_1"
       x1="0.18336116"
       y1="0.24917752"
       x2="0.9027437"
       y2="0.90347725"
       gradientTransform="matrix(24.617266,0,0,24.816118,10.841288,10.089605)"
       gradientUnits="userSpaceOnUse">
      <stop
         offset="2.608695652173913%"
         stop-opacity="1"
         style="stop-color:rgb(179,255,171)"
         id="stop2-3" />
      <stop
         offset="98.69565217391305%"
         stop-opacity="1"
         style="stop-color:rgb(18,255,247)"
         id="stop4-6" />
    </linearGradient>
    <linearGradient
       inkscape:collect="always"
       xlink:href="#_lgradient_39"
       id="linearGradient15"
       x1="-9.6850061"
       y1="45.161198"
       x2="11.98815"
       y2="21.735205"
       gradientUnits="userSpaceOnUse"
       gradientTransform="matrix(1.1147442,0,0,1.1150348,-0.01237238,-3.3277956)" />
    <linearGradient
       inkscape:collect="always"
       xlink:href="#_lgradient_39"
       id="linearGradient1213"
       x1="16.515959"
       y1="23.78743"
       x2="32.385399"
       y2="23.78743"
       gradientUnits="userSpaceOnUse" />
    <linearGradient
       inkscape:collect="always"
       xlink:href="#_lgradient_38"
       id="linearGradient1243"
       x1="33.972343"
       y1="20.283007"
       x2="35.946091"
       y2="31.725563"
       gradientUnits="userSpaceOnUse" />
    <linearGradient
       inkscape:collect="always"
       xlink:href="#_lgradient_37"
       id="linearGradient1488"
       x1="11.809529"
       y1="18.575859"
       x2="37.189625"
       y2="18.575859"
       gradientUnits="userSpaceOnUse" />
    <linearGradient
       inkscape:collect="always"
       xlink:href="#_lgradient_36"
       id="linearGradient1518"
       x1="11.634781"
       y1="31.022223"
       x2="30.658228"
       y2="31.022223"
       gradientUnits="userSpaceOnUse" />
  </defs>
  <sodipodi:namedview
     id="namedview32"
     pagecolor="#ffffff"
     bordercolor="#666666"
     borderopacity="1.0"
     inkscape:pageshadow="2"
     inkscape:pageopacity="0.0"
     inkscape:pagecheckerboard="0"
     inkscape:document-units="pt"
     showgrid="false"
     inkscape:zoom="7.2257474"
     inkscape:cx="32.038208"
     inkscape:cy="31.969011"
     inkscape:window-width="1600"
     inkscape:window-height="836"
     inkscape:window-x="0"
     inkscape:window-y="0"
     inkscape:window-maximized="1"
     inkscape:current-layer="svg30" />
  <linearGradient
     id="_lgradient_36"
     x1="0"
     y1="0.5"
     x2="0.9877902644462152"
     y2="0.3442104192659979"
     gradientTransform="matrix(19.245797,0,0,12.378161,11.634739,24.115762)"
     gradientUnits="userSpaceOnUse">
    <stop
       offset="100%"
       stop-opacity="1"
       style="stop-color:rgb(34,216,143)"
       id="stop2" />
    <stop
       offset="100%"
       stop-opacity="1"
       style="stop-color:rgb(33,214,145)"
       id="stop4" />
  </linearGradient>
  <rect
     x="-46.783188"
     y="1.2253767"
     height="45.80014"
     rx="6.1837621"
     shape-rendering="crispEdges"
     id="rect5-6-7-3"
     ry="6.8055277"
     transform="matrix(0.00524063,-0.99998627,0.99998801,0.00489691,0,0)"
     style="isolation:isolate;fill:#006eff;fill-opacity:0.13470298;stroke:url(#linearGradient872);stroke-width:2.0301;stroke-miterlimit:4;stroke-dasharray:none;stroke-opacity:1"
     width="45.801998" />
  <rect
     x="-15.686804"
     y="17.260084"
     height="33.345856"
     rx="6.7920032"
     shape-rendering="crispEdges"
     id="rect5-6-6-6-6"
     style="isolation:isolate;fill:#006eff;fill-opacity:0.13470298;stroke:url(#linearGradient15);stroke-width:1.67233;stroke-miterlimit:4;stroke-dasharray:none;stroke-opacity:1"
     ry="7.4743071"
     transform="matrix(0.72446484,-0.68931175,0.68622417,0.72739012,0,0)"
     width="33.338203" />
  <path
     style="color:#000000;fill:url(#linearGradient1518);-inkscape-stroke:none"
     d="m 13.085938,24.900391 -0.125,0.537109 -1.929688,8.357422 16.935547,3.255859 2.765625,-4.492187 0.818359,-1.335938 H 27.8125 l -1.40625,2.285156 -11.519531,-2.216796 1.236328,-5.363282 z m 0.724609,1.298828 1.134766,0.384765 -1.265625,5.492188 13.214843,2.544922 1.476563,-2.398438 h 1.394531 L 27.478516,35.9375 12.238281,33.007812 Z"
     id="path7" />
  <linearGradient
     id="_lgradient_37"
     x1="0"
     y1="0.5"
     x2="1"
     y2="0.5"
     gradientTransform="matrix(25.380156,0,0,16.247021,11.80985,10.566545)"
     gradientUnits="userSpaceOnUse">
    <stop
       offset="6%"
       stop-opacity="1"
       style="stop-color:rgb(43,134,208)"
       id="stop9" />
    <stop
       offset="89%"
       stop-opacity="1"
       style="stop-color:rgb(33,215,137)"
       id="stop11" />
  </linearGradient>
  <path
     style="color:#000000;fill:url(#linearGradient1488);-inkscape-stroke:none"
     d="m 29.734375,10.027344 -0.226563,0.05273 -18.222656,4.253906 0.697266,11.248047 4.023437,1.361328 1.009766,0.333985 v -3.365235 l -1.986328,-0.666015 -0.396484,-6.421875 14.382812,-3.353516 5.107422,3.832031 -1.109375,4.09961 2.570312,2.71875 0.25586,-0.953125 1.919922,-7.123047 z m -0.226563,1.078125 7.111329,5.332031 -1.535157,5.697266 -0.957031,-1.011719 1.138672,-4.212891 -6.023438,-4.519531 -15.658203,3.650391 0.490235,7.939453 1.941406,0.65039 v 1.259766 L 12.939453,24.849609 12.333984,15.117188 Z M 17.396484,23.998047 v 0.671875 l 0.02539,-0.07617 0.958984,0.15625 -0.195312,0.130859 0.185547,0.0293 0.152343,-0.458984 z"
     id="path14" />
  <linearGradient
     id="_lgradient_38"
     x1="0.41703096539162116"
     y1="0.019248826291079567"
     x2="0.679538131811658"
     y2="0.9641320015277046"
     gradientTransform="matrix(7.5188301,0,0,12.110023,30.836758,20.049902)"
     gradientUnits="userSpaceOnUse">
    <stop
       offset="28.000000000000004%"
       stop-opacity="1"
       style="stop-color:rgb(0,205,215)"
       id="stop16" />
    <stop
       offset="94%"
       stop-opacity="1"
       style="stop-color:rgb(32,134,215)"
       id="stop18" />
  </linearGradient>
  <path
     style="color:#000000;fill:url(#linearGradient1243);-inkscape-stroke:none"
     d="m 32.451172,19.341797 -0.365235,0.34375 -0.201171,0.189453 v 3.513672 l 3.228515,3.419922 -1.132812,2.259765 -1.244141,-0.279297 -0.851562,-0.193359 v 1.402344 c 0,0.381396 -0.171694,0.715686 -0.44336,0.941406 l -0.78125,0.648438 1.373047,0.310546 3.683594,0.835938 3.242187,-6.496094 -5.416015,-5.732422 z m 0.433594,1.923828 4.867187,5.150391 -2.580078,5.169921 -2.742188,-0.621093 c 0.175916,-0.318531 0.455079,-0.579259 0.455079,-0.966797 v -0.150391 l 1.638671,0.369141 1.798829,-3.585938 -3.4375,-3.640625 z"
     id="path21" />
  <linearGradient
     id="_lgradient_39"
     x1="-0.000038208333333289435"
     y1="0.5000000833333331"
     x2="0.9999618333333335"
     y2="0.5000000833333331"
     gradientTransform="matrix(15.869438,0,0,15.869438,16.515959,15.85271)"
     gradientUnits="userSpaceOnUse">
    <stop
       offset="0%"
       stop-opacity="1"
       style="stop-color:rgb(0,198,255)"
       id="stop23" />
    <stop
       offset="98.69565217391305%"
       stop-opacity="1"
       style="stop-color:rgb(0,114,255)"
       id="stop25" />
  </linearGradient>
  <path
     style="color:#000000;fill:url(#linearGradient1213);fill-rule:evenodd;-inkscape-stroke:none"
     d="m 18.240234,15.353516 c -1.222662,0 -2.224609,1.001946 -2.224609,2.224609 v 2.259766 c 0,0.651301 0.537994,1.189453 1.189453,1.189453 0.359929,0 0.657731,-0.182573 0.876953,-0.439453 v 2.103515 c -0.219221,-0.256929 -0.517091,-0.439453 -0.876953,-0.439453 -0.651459,0 -1.189453,0.539947 -1.189453,1.191406 v 6.554688 c 0,1.222663 1.001946,2.224609 2.224609,2.224609 h 12.419922 c 1.222663,0 2.22461,-1.001946 2.22461,-2.224609 v -2.261719 c 0,-0.651302 -0.537993,-1.189453 -1.189454,-1.189453 -0.65146,0 -1.189453,0.538152 -1.189453,1.189453 v 1.570313 c 0,0.300865 -0.23429,0.535156 -0.535156,0.535156 H 18.931641 c -0.300865,0 -0.535157,-0.234291 -0.535157,-0.535156 v -0.09375 h 6.007813 V 26.84375 h -6.007813 v -3.1875 h 1.482422 v -0.375 l 0.115235,0.375 h 1.185546 0.361329 l 0.205078,-0.623047 v 0.623047 h 1.832031 v -5.207031 h -2.076172 l -0.6875,2.097656 -0.650391,-2.097656 h -1.767578 v -0.181641 c 0,-0.300865 0.234292,-0.535156 0.535157,-0.535156 h 11.039062 c 0.300866,0 0.535156,0.234291 0.535156,0.535156 v 0.462891 l -0.0078,-0.0039 c -0.23711,-0.102984 -0.468287,-0.184876 -0.695313,-0.24414 -0.241854,-0.06313 -0.493916,-0.09375 -0.751953,-0.09375 -0.524854,0 -1.006253,0.130806 -1.36914,0.4375 -0.24857,0.20972 -0.299221,0.548976 -0.38086,0.865234 -0.09339,-0.282997 -0.110021,-0.608703 -0.33789,-0.796875 -0.386715,-0.319784 -0.900642,-0.445312 -1.482422,-0.445312 h -1.84375 v 5.207031 h 1.892578 v -1.533203 c 0.542778,-0.02019 1.044236,-0.129544 1.412109,-0.441406 0.09069,-0.07679 0.06657,-0.226554 0.136719,-0.320313 0.114934,-0.153619 0.162749,-0.338414 0.222656,-0.525391 0.105476,0.202148 0.248777,0.383217 0.421875,0.533204 v 0.002 c 0.185497,0.160273 0.410184,0.289652 0.691406,0.421875 0.181669,0.08657 0.248172,0.12492 0.330079,0.169922 -0.09488,-0.0066 -0.191889,-0.01356 -0.31836,-0.04687 -0.156921,-0.04134 -0.376763,-0.120806 -0.644531,-0.240235 l -0.703125,-0.314453 v 1.910156 l 0.279297,0.138672 c 0.422217,0.206428 0.900651,0.302735 1.412109,0.302735 0.561241,0 1.064983,-0.128815 1.451172,-0.4375 0.182813,-0.146202 0.18419,-0.404653 0.285156,-0.613282 v 1.753907 c 0,0.651459 0.537994,1.189453 1.189453,1.189453 0.65146,0 1.189454,-0.537993 1.189454,-1.189453 v -6.837891 c 0,-1.222664 -1.001947,-2.224609 -2.22461,-2.224609 z m 0,1 h 12.419922 c 0.681668,0 1.22461,0.542941 1.22461,1.224609 v 6.837891 c 0,0.110272 -0.07918,0.189453 -0.189454,0.189453 -0.110273,0 -0.189453,-0.07918 -0.189453,-0.189453 v -6.148438 c 0,-0.841733 -0.693423,-1.535156 -1.535156,-1.535156 H 18.931641 c -0.841733,0 -1.535157,0.693423 -1.535157,1.535156 v 1.570313 c 0,0.109336 -0.08113,0.189453 -0.191406,0.189453 -0.110274,0 -0.189453,-0.08012 -0.189453,-0.189453 v -2.259766 c 0,-0.681669 0.542942,-1.224609 1.224609,-1.224609 z m 12.265625,3.640625 v 1.02539 c -0.0066,-0.0089 -0.003,-0.02248 -0.0098,-0.03125 -0.229735,-0.297506 -0.557881,-0.50532 -0.988282,-0.710937 -0.124288,-0.0594 -0.129633,-0.06794 -0.21289,-0.111328 0.01358,0.003 0.02527,0.0024 0.03906,0.0059 h 0.002 c 0.108417,0.02663 0.276283,0.08351 0.486329,0.169922 l 0.460937,0.189453 z m -4.976562,0.197265 c 0.03974,0.0095 0.120997,0.02411 0.111328,0.01563 -0.01579,-0.01382 0.002,-0.03206 0.002,0.08594 0,0.09777 -0.0011,0.07043 -0.01563,0.08203 -0.0026,0.002 -0.07737,0.01003 -0.09766,0.01758 z m -8.324219,3.060547 c 0.110272,0 0.191406,0.08113 0.191406,0.191406 v 5.863282 c 0,0.841733 0.693424,1.535156 1.535157,1.535156 h 11.039062 c 0.841733,0 1.535156,-0.693423 1.535156,-1.535156 v -1.570313 c 0,-0.109336 0.07918,-0.189453 0.189453,-0.189453 0.110272,0 0.189454,0.08012 0.189454,0.189453 v 2.261719 c 0,0.681667 -0.542943,1.224609 -1.22461,1.224609 H 18.240234 c -0.681667,0 -1.224609,-0.542942 -1.224609,-1.224609 v -6.554688 c 0,-0.110273 0.07918,-0.191406 0.189453,-0.191406 z m 1.726563,4.591797 h 4.472656 v 0.369141 h -4.472656 z"
     id="path28" />
</svg>
