<?xml version="1.0" encoding="UTF-8" standalone="no"?>
<!-- Generator: Gravit.io -->

<svg
   style="isolation:isolate"
   viewBox="0 0 48 48"
   width="48pt"
   height="48pt"
   version="1.1"
   id="svg11"
   sodipodi:docname="ms-outlook.svg"
   inkscape:version="1.1.2 (0a00cf5339, 2022-02-04)"
   xmlns:inkscape="http://www.inkscape.org/namespaces/inkscape"
   xmlns:sodipodi="http://sodipodi.sourceforge.net/DTD/sodipodi-0.dtd"
   xmlns:xlink="http://www.w3.org/1999/xlink"
   xmlns="http://www.w3.org/2000/svg"
   xmlns:svg="http://www.w3.org/2000/svg">
  <defs
     id="defs15">
    <linearGradient
       inkscape:collect="always"
       xlink:href="#_lgradient_1"
       id="linearGradient872"
       x1="-12.025727"
       y1="6.1170783"
       x2="-0.085100174"
       y2="6.1170783"
       gradientUnits="userSpaceOnUse"
       gradientTransform="matrix(3.8358211,0,0,3.8371386,-0.00544341,-0.00268054)" />
    <linearGradient
       id="_lgradient_1-3"
       x1="0.18336116"
       y1="0.24917752"
       x2="0.9027437"
       y2="0.90347725"
       gradientTransform="matrix(24.617266,0,0,24.816118,10.841288,10.089605)"
       gradientUnits="userSpaceOnUse">
      <stop
         offset="2.608695652173913%"
         stop-opacity="1"
         style="stop-color:rgb(179,255,171)"
         id="stop2-6" />
      <stop
         offset="98.69565217391305%"
         stop-opacity="1"
         style="stop-color:rgb(18,255,247)"
         id="stop4-7" />
    </linearGradient>
    <linearGradient
       inkscape:collect="always"
       xlink:href="#_lgradient_1"
       id="linearGradient15"
       x1="-9.6850061"
       y1="45.161198"
       x2="11.98815"
       y2="21.735205"
       gradientUnits="userSpaceOnUse"
       gradientTransform="matrix(1.1147442,0,0,1.1150348,-0.01237238,-3.3277956)" />
    <linearGradient
       inkscape:collect="always"
       xlink:href="#_lgradient_1"
       id="linearGradient880"
       x1="12.211974"
       y1="22.774323"
       x2="35.788025"
       y2="22.774323"
       gradientUnits="userSpaceOnUse" />
  </defs>
  <sodipodi:namedview
     id="namedview13"
     pagecolor="#ffffff"
     bordercolor="#666666"
     borderopacity="1.0"
     inkscape:pageshadow="2"
     inkscape:pageopacity="0.0"
     inkscape:pagecheckerboard="0"
     inkscape:document-units="pt"
     showgrid="false"
     inkscape:zoom="10.21875"
     inkscape:cx="31.95107"
     inkscape:cy="32"
     inkscape:window-width="1600"
     inkscape:window-height="836"
     inkscape:window-x="0"
     inkscape:window-y="0"
     inkscape:window-maximized="1"
     inkscape:current-layer="svg11" />
  <linearGradient
     id="_lgradient_1"
     x1="0"
     y1="0.5"
     x2="1"
     y2="0.5"
     gradientTransform="matrix(23.576051,0,0,23.469709,12.211973,11.039466)"
     gradientUnits="userSpaceOnUse">
    <stop
       offset="0%"
       stop-opacity="1"
       style="stop-color:rgb(84,51,255)"
       id="stop2" />
    <stop
       offset="51.73913043478261%"
       stop-opacity="1"
       style="stop-color:rgb(32,189,255)"
       id="stop4" />
    <stop
       offset="98.26086956521739%"
       stop-opacity="1"
       style="stop-color:rgb(165,254,203)"
       id="stop6" />
  </linearGradient>
  <rect
     x="-46.783188"
     y="1.2253767"
     height="45.80014"
     rx="6.1837621"
     shape-rendering="crispEdges"
     id="rect5-6-7-3"
     ry="6.8055277"
     transform="matrix(0.00524063,-0.99998627,0.99998801,0.00489691,0,0)"
     style="isolation:isolate;fill:#00b8ff;fill-opacity:0.13470298;stroke:url(#linearGradient872);stroke-width:2.0301;stroke-miterlimit:4;stroke-dasharray:none;stroke-opacity:1"
     width="45.801998" />
  <rect
     x="-15.686804"
     y="17.260084"
     height="33.345856"
     rx="6.7920032"
     shape-rendering="crispEdges"
     id="rect5-6-6-6-6"
     style="isolation:isolate;fill:#00b8ff;fill-opacity:0.13470298;stroke:url(#linearGradient15);stroke-width:1.67233;stroke-miterlimit:4;stroke-dasharray:none;stroke-opacity:1"
     ry="7.4743071"
     transform="matrix(0.72446484,-0.68931175,0.68622417,0.72739012,0,0)"
     width="33.338203" />
  <path
     style="color:#000000;fill:url(#linearGradient880);fill-rule:evenodd;-inkscape-stroke:none"
     d="m 18.482422,10.539063 c -1.10121,-1e-6 -2.00586,0.904649 -2.00586,2.005859 v 3.482422 h -3.193359 c -0.874415,0 -1.570312,0.743589 -1.570312,1.621093 v 2.824219 c 0,0.817267 0.381158,1.682064 0.992187,2.216797 l 8.910156,7.794922 c 1.336041,1.169404 3.433491,1.169404 4.769532,0 l 8.910156,-7.794922 c 0.611029,-0.534733 0.992187,-1.39953 0.992187,-2.216797 v -2.824219 c 0,-0.877504 -0.695897,-1.621093 -1.570312,-1.621093 h -3.19336 v -3.482422 c 0,-1.10121 -0.904649,-2.005859 -2.005859,-2.005859 z m 0,1 h 11.035156 c 0.560149,0 1.005859,0.445711 1.005859,1.005859 v 4.482422 h 0.5 3.69336 c 0.308399,0 0.570312,0.260605 0.570312,0.621093 v 2.824219 c 0,0.420726 -0.35349,1.205016 -0.65039,1.464844 l -8.910157,7.794922 c -0.932275,0.815998 -2.520849,0.815998 -3.453125,0 L 13.363281,21.9375 c -0.2969,-0.259828 -0.65039,-1.044118 -0.65039,-1.464844 v -2.824219 c 0,-0.360488 0.261913,-0.621093 0.570312,-0.621093 h 4.193359 v -4.482422 c 0,-0.560148 0.445711,-1.00586 1.00586,-1.005859 z m 0.501953,0.505859 c -0.547423,0 -1.001953,0.45453 -1.001953,1.001953 v 10.783203 0.560547 l 4.466797,4.050781 c 0.870116,0.788766 2.231446,0.788766 3.101562,0 l 4.466797,-4.050781 V 24.169922 23.830078 13.046875 c 0,-0.547423 -0.45453,-1.001953 -1.001953,-1.001953 z m 0,1 h 10.03125 c 0,0 0.002,0.002 0.002,0.002 v 4.597656 C 28.452439,15.346549 26.468435,13.599609 24,13.599609 c -2.468435,0 -4.452439,1.74694 -5.017578,4.044922 v -4.597656 c 0,0 0.002,-0.002 0.002,-0.002 z M 24,14.599609 c 2.359335,0 4.265625,1.904338 4.265625,4.263672 0,2.35989 -1.906226,4.265625 -4.265625,4.265625 -2.359399,0 -4.265625,-1.905735 -4.265625,-4.265625 0,-2.359334 1.90629,-4.263672 4.265625,-4.263672 z m 0,0.681641 c -0.950992,0 -1.863601,0.377856 -2.535156,1.048828 -0.670971,0.671554 -1.048828,1.584164 -1.048828,2.535156 0,0.950994 0.377575,1.86195 1.048828,2.533203 v 0.002 c 0.671555,0.670972 1.584164,1.046875 2.535156,1.046875 0.950992,0 1.863601,-0.375903 2.535156,-1.046875 v -0.002 c 0.671253,-0.671253 1.048828,-1.582209 1.048828,-2.533203 0,-0.950992 -0.377857,-1.863602 -1.048828,-2.535156 C 25.863601,15.659106 24.950992,15.28125 24,15.28125 Z m 0,1 c 0.686286,0 1.343952,0.272107 1.828125,0.755859 0.483752,0.484173 0.755859,1.141839 0.755859,1.828125 0,0.686288 -0.272389,1.342701 -0.755859,1.826172 -0.484173,0.483753 -1.141839,0.75586 -1.828125,0.75586 -0.686286,0 -1.343952,-0.272107 -1.828125,-0.75586 -0.48347,-0.483471 -0.755859,-1.139884 -0.755859,-1.826172 0,-0.686286 0.272107,-1.343952 0.755859,-1.828125 C 22.656048,16.553357 23.313714,16.28125 24,16.28125 Z m -9.109375,1.988281 c -0.579005,0 -1.035156,0.492811 -1.035156,1.060547 v 0.537109 c 0,0.504528 0.1919,0.95782 0.568359,1.298829 l 3.052734,2.767578 v -1.128907 -4.535156 z m 18.208984,0 -2.576172,0.08594 v 0.484375 5.09375 l 3.052735,-2.767578 c 0.376459,-0.341009 0.568359,-0.794301 0.568359,-1.298829 v -0.537109 c 0,-0.567736 -0.456151,-1.060547 -1.035156,-1.060547 z m -18.208984,1 h 1.585937 v 2.408203 l -1.380859,-1.251953 c -0.07098,-0.0643 -0.240234,-0.444125 -0.240234,-0.558594 v -0.537109 c 0,-0.05126 0.02225,-0.06055 0.03516,-0.06055 z m 18.21875,0 c 0.0129,0 0.03516,0.0093 0.03516,0.06055 v 0.537109 c 0,0.114469 -0.16925,0.494295 -0.240234,0.558594 l -1.38086,1.251953 v -2.355468 z m -14.126953,0.814453 c 0.56542,2.297787 2.549466,4.044922 5.017578,4.044922 2.468112,0 4.452158,-1.747135 5.017578,-4.044922 v 3.746094 0.117188 l -4.138672,3.751953 c -0.471208,0.427153 -1.286604,0.427153 -1.757812,0 l -4.138672,-3.751953 v -0.117188 z m -5.699219,3.642578 c -0.861975,0 -1.570312,0.710019 -1.570312,1.572266 v 6.53125 c 0,1.749348 1.428387,3.179688 3.177734,3.179688 h 18.21875 c 1.749347,0 3.177734,-1.43034 3.177734,-3.179688 v -6.53125 c 0,-0.862247 -0.708337,-1.572266 -1.570312,-1.572266 -0.861975,0 -1.572266,0.709736 -1.572266,1.572266 v 5.458984 c 0,0.616777 -0.491111,1.107422 -1.107422,1.107422 H 15.962891 c -0.616311,0 -1.107422,-0.490645 -1.107422,-1.107422 v -5.458984 c 0,-0.86253 -0.710291,-1.572266 -1.572266,-1.572266 z m 0,1 c 0.32084,0 0.572266,0.250978 0.572266,0.572266 v 5.458984 c 0,1.157948 0.950012,2.107422 2.107422,2.107422 h 16.074218 c 1.15741,0 2.107422,-0.949474 2.107422,-2.107422 v -5.458984 c 0,-0.321288 0.251426,-0.572266 0.572266,-0.572266 0.32084,0 0.570312,0.250695 0.570312,0.572266 v 6.53125 c 0,1.208191 -0.969544,2.179688 -2.177734,2.179688 h -18.21875 c -1.20819,0 -2.177734,-0.971497 -2.177734,-2.179688 v -6.53125 c 0,-0.321571 0.249472,-0.572266 0.570312,-0.572266 z"
     id="path9" />
</svg>
