<?xml version="1.0" encoding="UTF-8" standalone="no"?>
<!-- Generator: Gravit.io -->

<svg
   style="isolation:isolate"
   viewBox="0 0 48 48"
   width="48pt"
   height="48pt"
   version="1.1"
   id="svg9"
   sodipodi:docname="ms-office.svg"
   inkscape:version="1.1.2 (0a00cf5339, 2022-02-04)"
   xmlns:inkscape="http://www.inkscape.org/namespaces/inkscape"
   xmlns:sodipodi="http://sodipodi.sourceforge.net/DTD/sodipodi-0.dtd"
   xmlns:xlink="http://www.w3.org/1999/xlink"
   xmlns="http://www.w3.org/2000/svg"
   xmlns:svg="http://www.w3.org/2000/svg">
  <defs
     id="defs13">
    <linearGradient
       inkscape:collect="always"
       xlink:href="#_lgradient_0"
       id="linearGradient872"
       x1="-12.025727"
       y1="6.1170783"
       x2="-0.085100174"
       y2="6.1170783"
       gradientUnits="userSpaceOnUse"
       gradientTransform="matrix(3.8358211,0,0,3.8371386,-0.00544341,-0.00268054)" />
    <linearGradient
       id="_lgradient_1"
       x1="0.18336116"
       y1="0.24917752"
       x2="0.9027437"
       y2="0.90347725"
       gradientTransform="matrix(24.617266,0,0,24.816118,10.841288,10.089605)"
       gradientUnits="userSpaceOnUse">
      <stop
         offset="2.608695652173913%"
         stop-opacity="1"
         style="stop-color:rgb(179,255,171)"
         id="stop2-3" />
      <stop
         offset="98.69565217391305%"
         stop-opacity="1"
         style="stop-color:rgb(18,255,247)"
         id="stop4-6" />
    </linearGradient>
    <linearGradient
       inkscape:collect="always"
       xlink:href="#_lgradient_0"
       id="linearGradient15"
       x1="-9.6850061"
       y1="45.161198"
       x2="11.98815"
       y2="21.735205"
       gradientUnits="userSpaceOnUse"
       gradientTransform="matrix(1.1147442,0,0,1.1150348,-0.01237238,-3.3277956)" />
    <linearGradient
       inkscape:collect="always"
       xlink:href="#_lgradient_0"
       id="linearGradient1112"
       x1="10.516106"
       y1="24.000002"
       x2="34.847305"
       y2="24.000002"
       gradientUnits="userSpaceOnUse" />
  </defs>
  <sodipodi:namedview
     id="namedview11"
     pagecolor="#ffffff"
     bordercolor="#666666"
     borderopacity="1.0"
     inkscape:pageshadow="2"
     inkscape:pageopacity="0.0"
     inkscape:pagecheckerboard="0"
     inkscape:document-units="pt"
     showgrid="false"
     inkscape:zoom="8"
     inkscape:cx="31.5625"
     inkscape:cy="32.375"
     inkscape:window-width="1600"
     inkscape:window-height="836"
     inkscape:window-x="0"
     inkscape:window-y="0"
     inkscape:window-maximized="1"
     inkscape:current-layer="svg9" />
  <linearGradient
     id="_lgradient_0"
     x1="0"
     y1="0.5"
     x2="1"
     y2="0.5"
     gradientTransform="matrix(24.331401,0,0,28.188037,10.515898,9.905681)"
     gradientUnits="userSpaceOnUse">
    <stop
       offset="0%"
       stop-opacity="1"
       style="stop-color:rgb(255,229,59)"
       id="stop2" />
    <stop
       offset="98.69565217391305%"
       stop-opacity="1"
       style="stop-color:rgb(255,0,91)"
       id="stop4" />
  </linearGradient>
  <rect
     x="-46.783188"
     y="1.2253767"
     height="45.80014"
     rx="6.1837621"
     shape-rendering="crispEdges"
     id="rect5-6-7-3"
     ry="6.8055277"
     transform="matrix(0.00524063,-0.99998627,0.99998801,0.00489691,0,0)"
     style="isolation:isolate;fill:#ff0098;fill-opacity:0.13470298;stroke:url(#linearGradient872);stroke-width:2.0301;stroke-miterlimit:4;stroke-dasharray:none;stroke-opacity:1"
     width="45.801998" />
  <rect
     x="-15.686804"
     y="17.260084"
     height="33.345856"
     rx="6.7920032"
     shape-rendering="crispEdges"
     id="rect5-6-6-6-6"
     style="isolation:isolate;fill:#ff0098;fill-opacity:0.13470298;stroke:url(#linearGradient15);stroke-width:1.67233;stroke-miterlimit:4;stroke-dasharray:none;stroke-opacity:1"
     ry="7.4743071"
     transform="matrix(0.72446484,-0.68931175,0.68622417,0.72739012,0,0)"
     width="33.338203" />
  <path
     style="color:#000000;fill:url(#linearGradient1112);fill-rule:evenodd;-inkscape-stroke:none"
     d="m 23.525391,9.40625 c -0.652465,0.013594 -1.287353,0.190687 -1.84961,0.5019531 l -8.695312,4.5332029 c -1.821783,0.946805 -2.962891,2.839561 -2.962891,4.888672 v 9.830078 c -0.021315,0.76704 0.249949,1.516057 0.761719,2.091797 l 0.002,0.0039 0.0039,0.0039 c 0.537285,0.580848 1.299769,0.901732 2.091797,0.894531 h 0.0039 0.002 c 0.3378,-0.0069 0.67923,-0.06153 1.009765,-0.173828 l 1.726563,-0.578125 c -0.139797,0.07656 -0.295446,0.124556 -0.417969,0.228515 h -0.002 l -0.002,0.002 c -0.420423,0.364895 -0.672169,0.897389 -0.664063,1.464844 v 0.002 0.002 c 0.0077,0.404997 0.132865,0.801247 0.371094,1.134766 0.143556,0.200978 0.316732,0.389577 0.521484,0.548828 0.339505,0.26741 0.707301,0.489477 1.09961,0.666016 l 5.742187,2.71875 c 0.0011,5.58e-4 0.0028,-5.57e-4 0.0039,0 l 0.002,0.002 c 0.534998,0.259863 1.119632,0.408367 1.720704,0.421875 h 0.002 0.002 c 0.648178,0.01 1.278789,-0.178653 1.808594,-0.535156 l -0.140625,0.06641 0.15039,-0.04297 5.97461,-1.707031 h 0.0098 l 0.03906,-0.01367 c -0.0039,9.58e-4 -0.0055,0.001 -0.0098,0.002 -8.19e-4,1.8e-4 -0.0011,-1.78e-4 -0.002,0 l -0.0098,0.002 c -0.02638,0.0042 -0.0612,0.0067 -0.07617,0.0078 0.05983,-0.0066 0.113173,-0.01813 0.138672,-0.02734 0.986424,-0.304742 1.849015,-0.915316 2.457032,-1.751953 0.631719,-0.81314 0.989959,-1.809179 1.009765,-2.845703 v -0.0059 -0.02734 -14.835938 -0.01563 -0.002 c -0.0066,-0.522451 -0.100243,-1.041178 -0.279297,-1.533203 -0.170305,-0.478168 -0.406579,-0.924291 -0.699218,-1.333984 l -0.002,-0.002 c -0.292593,-0.403132 -0.639163,-0.769311 -1.039062,-1.083985 -0.412559,-0.325801 -0.877044,-0.578051 -1.373047,-0.75 L 31.875,12.130859 h -0.0078 L 25.289062,9.9355469 25.269531,9.9296875 25.408203,10 C 24.866161,9.6095039 24.208861,9.395632 23.529297,9.40625 h -0.002 z m 0.01953,1 c 0.459799,-0.0072 0.90866,0.137284 1.279297,0.404297 l 0.06445,0.04687 0.07422,0.02344 0.01563,0.0059 6.666015,2.224609 c 0.386264,0.136215 0.746774,0.330962 1.064453,0.582031 h 0.002 c 0.324073,0.255008 0.606175,0.554008 0.847657,0.886719 0.240223,0.336978 0.430579,0.697139 0.568359,1.083985 v 0.002 l 0.002,0.002 c 0.140531,0.385148 0.213542,0.791216 0.21875,1.205078 v 0.0059 14.835938 0.01367 c -0.01573,0.823204 -0.299216,1.614632 -0.802734,2.259765 l -0.0059,0.0078 -0.0039,0.0059 c -0.481371,0.664501 -1.166239,1.152853 -1.953125,1.394531 -5.21e-4,1.61e-4 -0.0014,-1.6e-4 -0.002,0 l -6.039062,1.72461 -0.226563,0.06445 -0.06445,0.04492 c -0.358094,0.240959 -0.788891,0.36931 -1.232422,0.363281 -0.453124,-0.01018 -0.899536,-0.1229 -1.3125,-0.324219 h -0.002 l -5.763672,-2.726562 -0.0039,-0.002 c -0.318976,-0.143539 -0.615518,-0.324517 -0.892578,-0.542969 h -0.002 v -0.002 c -0.115696,-0.08998 -0.228454,-0.210461 -0.322266,-0.341797 -0.117825,-0.164955 -0.18149,-0.360107 -0.185547,-0.572266 -0.0032,-0.261772 0.111573,-0.510918 0.31836,-0.691406 0.141298,-0.119405 0.311444,-0.211769 0.498046,-0.269531 0.171421,-0.05005 0.349673,-0.08516 0.527344,-0.105469 0.213347,-0.0217 0.41849,-0.0332 0.630859,-0.0332 h 5.851563 1.458984 l -0.330078,-15.685547 -6.875,3.455078 v 7.701172 c 0,0.648655 -0.205434,1.281398 -0.58789,1.806641 v 0.002 l -0.002,0.002 c -0.377188,0.530102 -0.910971,0.922547 -1.529296,1.126953 h -0.002 l -1.917969,0.642578 h -0.002 c -0.224877,0.07656 -0.462017,0.115647 -0.703125,0.121094 -6.3e-4,6e-6 -0.0013,-5e-6 -0.002,0 -0.511292,0.0041 -1.003296,-0.206121 -1.34375,-0.572266 -0.339991,-0.384928 -0.520105,-0.879969 -0.50586,-1.392578 v -0.0078 -9.851563 c 0,-1.677561 0.93433,-3.227841 2.423828,-4.001953 l 8.712891,-4.542969 0.0039,-0.002 c 0.421856,-0.2338 0.901114,-0.366516 1.386719,-0.376953 z m 0.01758,1.373047 c -0.255967,0.0082 -0.497855,0.08617 -0.716797,0.201172 -3.27e-4,6.4e-5 -0.0016,0.0019 -0.002,0.002 -0.01128,0.0059 -0.02597,0.0036 -0.03711,0.0098 l -0.02539,0.01367 0.01367,-0.0098 -8.716797,4.546875 h -0.002 c -1.035954,0.542631 -1.685547,1.617295 -1.685547,2.787109 v 9.863281 0.04102 c 0,0.01186 -0.0358,0.07359 0.05859,0.263672 l 0.111328,0.226562 0.292969,0.05078 h 0.04297 c 0.02615,0 0.04662,-0.01434 0.07227,-0.01758 h 0.002 0.08984 l 1.992187,-0.666015 c 0.710121,-0.233923 1.185547,-0.900553 1.185547,-1.638672 v -7.666016 c 0,-0.413588 0.415552,-1.087699 0.785156,-1.273437 l 6.832032,-3.4375 0.603515,-0.300781 -0.03711,-1.806641 v -0.02344 -0.0098 c -0.0069,-0.166236 -0.02761,-0.357311 -0.0957,-0.558594 -0.04423,-0.141884 -0.11058,-0.242363 -0.175781,-0.326172 l -0.01953,-0.02539 -0.02148,-0.02149 c -0.121118,-0.121117 -0.321109,-0.224609 -0.53125,-0.224609 h -0.0078 z m -0.84375,0.273437 -0.01563,0.01563 c -0.01627,0.01334 -0.01313,0.0013 -0.03125,0.01953 z m 3.070312,0.554688 0.01563,0.708984 0.458985,22.171875 4.916015,-1.40625 0.0039,-0.002 c 0.51547,-0.156881 0.948979,-0.48611 1.257812,-0.908203 0.331742,-0.418263 0.516482,-0.930792 0.53125,-1.455078 v -0.0078 -14.824218 c 0,-0.25725 -0.04543,-0.512304 -0.134765,-0.753907 -0.09403,-0.267601 -0.226575,-0.519803 -0.390625,-0.748046 l -0.0039,-0.0039 -0.0039,-0.0039 C 32.277641,15.159249 32.088492,14.95398 31.861328,14.775391 31.65736,14.61065 31.427501,14.48875 31.1875,14.40625 h -0.002 z m -2.427734,0.05664 c 0.01636,0.02103 0.02029,0.03639 0.01172,0.0078 l 0.002,0.0078 z m 0.0332,0.123046 c 1.21e-4,5.9e-4 -1.2e-4,0.0014 0,0.002 l -0.03711,0.02734 0.01758,-0.01758 c 0.01023,-0.0085 0.0085,-0.0014 0.01953,-0.01172 z m 0.0059,0.04687 c 0.0069,0.04446 0.01886,0.07816 0.02148,0.13086 v 0.01367 l 0.02344,1.185547 -0.03711,0.01953 -6.833984,3.435547 c -0.801805,0.402933 -1.335938,1.271288 -1.335938,2.167968 v 7.666016 c 0,0.306302 -0.199356,0.59106 -0.498047,0.689453 h -0.002 l -1.347656,0.451172 v -9.263672 c 0,-0.800336 0.441696,-1.53113 1.150391,-1.902344 v 0.002 l 8.751953,-4.564453 h 0.002 c 0.0326,-0.01798 0.06972,-0.01862 0.105469,-0.03125 z m 3.419921,1.169922 4.046875,1.34961 c 0.138062,0.04797 0.263658,0.115599 0.367188,0.199218 l 0.002,0.002 0.0039,0.0039 c 0.148164,0.115754 0.276077,0.252226 0.396485,0.412109 0.107802,0.150708 0.198011,0.321997 0.257812,0.492188 l 0.002,0.0059 0.002,0.0039 c 0.05077,0.135395 0.07422,0.269178 0.07422,0.41211 v 14.810546 c -0.01014,0.311236 -0.121475,0.6207 -0.316406,0.863282 l -0.0078,0.0098 -0.0078,0.0098 c -0.189229,0.261315 -0.448746,0.453831 -0.748047,0.544922 l -3.65625,1.046875 z m -3.296875,3.896485 0.273438,13.082031 h -0.4375 -5.851563 c -0.248529,0 -0.492833,0.01368 -0.740234,0.03906 h -0.002 -0.0039 c -0.235698,0.02694 -0.470871,0.07484 -0.701172,0.142578 h -0.0039 l -0.002,0.002 c -0.01706,0.0053 -0.02994,0.01975 -0.04687,0.02539 0.71602,-0.287483 1.376841,-0.712399 1.828125,-1.345703 0.50599,-0.696495 0.777344,-1.53542 0.777344,-2.392578 v -7.085938 z m 1.308594,14.773437 -0.683594,0.683594 h -0.789062 -3.478516 l -0.21289,0.951172 3.621093,1.716797 c 0.0035,0.0018 0.0081,0.006 0.01172,0.0078 0.02202,0.01102 0.04511,0.02072 0.07813,0.03125 0.01651,0.0053 0.03594,0.01087 0.06055,0.01563 0.02066,0.004 0.0648,0.0067 0.08203,0.0078 0.170906,0.05988 0.342944,0.127056 0.515625,0.132812 h 0.0078 0.0078 c 0.210048,0 0.394149,-0.09185 0.521485,-0.205078 l 0.03906,-0.0332 0.0293,-0.03906 c 0.07963,-0.106152 0.123995,-0.211813 0.152344,-0.296875 l 0.002,-0.0059 0.002,-0.0059 c 0.05698,-0.187229 0.08008,-0.378396 0.08008,-0.5625 v -0.06445 z m -2.724609,1.683594 h 1.251953 0.505859 l 0.01367,0.662109 v 0.05273 c 0,0.03625 -0.01053,0.06499 -0.01367,0.09766 -0.02877,-0.0096 -0.06398,-0.0085 -0.08984,-0.02148 l -0.05273,-0.02539 -0.06445,-0.0332 h -0.0059 z m 9.625,2.017578 h 0.01172 l -0.04102,0.0059 c 0.0132,0 0.01645,-0.0048 0.0293,-0.0059 z"
     id="path7" />
</svg>
