<?xml version="1.0" encoding="UTF-8" standalone="no"?>
<svg
   width="48"
   height="48"
   viewBox="0 0 48 48"
   fill="none"
   version="1.1"
   id="svg18"
   sodipodi:docname="multipass.gui.svg"
   inkscape:version="1.1.2 (0a00cf5339, 2022-02-04)"
   xmlns:inkscape="http://www.inkscape.org/namespaces/inkscape"
   xmlns:sodipodi="http://sodipodi.sourceforge.net/DTD/sodipodi-0.dtd"
   xmlns:xlink="http://www.w3.org/1999/xlink"
   xmlns="http://www.w3.org/2000/svg"
   xmlns:svg="http://www.w3.org/2000/svg">
  <sodipodi:namedview
     id="namedview20"
     pagecolor="#ffffff"
     bordercolor="#666666"
     borderopacity="1.0"
     inkscape:pageshadow="2"
     inkscape:pageopacity="0.0"
     inkscape:pagecheckerboard="0"
     showgrid="false"
     width="48px"
     inkscape:zoom="11.934138"
     inkscape:cx="28.028837"
     inkscape:cy="23.462106"
     inkscape:window-width="1600"
     inkscape:window-height="836"
     inkscape:window-x="0"
     inkscape:window-y="0"
     inkscape:window-maximized="1"
     inkscape:current-layer="svg18" />
  <rect
     x="-46.788307"
     y="1.2202586"
     height="45.810375"
     rx="6.1851444"
     shape-rendering="crispEdges"
     id="rect5-6-7-3"
     ry="6.8070488"
     transform="matrix(0.00524063,-0.99998627,0.99998801,0.00489691,0,0)"
     style="isolation:isolate;fill:#ff7d00;fill-opacity:0.13470298;stroke:url(#linearGradient872);stroke-width:2.03055;stroke-miterlimit:4;stroke-dasharray:none;stroke-opacity:1"
     width="45.812237" />
  <rect
     x="-15.69053"
     y="17.256357"
     height="33.35331"
     rx="6.7935209"
     shape-rendering="crispEdges"
     id="rect5-6-6-6-6"
     style="isolation:isolate;fill:#ff7d00;fill-opacity:0.13470298;stroke:url(#linearGradient15);stroke-width:1.6727;stroke-miterlimit:4;stroke-dasharray:none;stroke-opacity:1"
     ry="7.4759774"
     transform="matrix(0.72446484,-0.68931175,0.68622417,0.72739012,0,0)"
     width="33.345654" />
  <path
     style="color:#000000;fill:url(#linearGradient1033);-inkscape-stroke:none"
     d="m 18.550781,12.720703 c -0.891653,-0.08917 -1.818322,0.155704 -2.55664,0.759766 -1.474253,1.206225 -1.69585,3.425677 -0.494141,4.902343 0.07371,0.09638 0.131225,0.138426 0.201172,0.205079 l -3,5.90039 c -0.158272,-0.02578 -0.312641,-0.07227 -0.480469,-0.07227 -1.915236,0 -3.5195311,1.559399 -3.5195311,3.482421 0,1.915271 1.5574661,3.521485 3.4804691,3.521485 1.915224,0 3.521484,-1.5594 3.521484,-3.482422 0,-0.87972 -0.386454,-1.691434 -0.988281,-2.337891 l 3.035156,-6 c 0.142625,0.01803 0.265684,0.04492 0.435547,0.04492 0.146132,0 0.263371,-0.02627 0.394531,-0.04297 l 2.955078,5.910157 c -1.180738,1.250123 -1.334903,3.216342 -0.220703,4.578125 1.208173,1.476637 3.433524,1.698237 4.910156,0.490234 1.474137,-1.206261 1.69588,-3.425681 0.494141,-4.902344 -0.05815,-0.0767 -0.138119,-0.134716 -0.205078,-0.205078 l 2.976562,-5.916015 c 0.145621,0.01041 0.319757,0.04883 0.431641,0.04883 0.146742,0 0.264699,-0.02616 0.396484,-0.04297 l 2.992188,5.914062 c -1.175015,1.271944 -1.328018,3.222009 -0.175781,4.580079 1.240507,1.461945 3.439918,1.688811 4.910156,0.441406 1.461893,-1.240627 1.686847,-3.439931 0.439453,-4.910156 l -0.0078,-0.0098 -0.0078,-0.0078 c -0.637865,-0.683511 -1.59682,-1.115234 -2.621094,-1.115234 -0.155104,0 -0.29155,0.02698 -0.433594,0.04492 l -2.99414,-5.951172 c 1.181415,-1.250076 1.335099,-3.214196 0.220703,-4.576172 -1.20817,-1.476583 -3.431567,-1.700311 -4.908203,-0.492187 -1.473152,1.20527 -1.696566,3.421779 -0.498047,4.898437 0.04849,0.06424 0.114361,0.109874 0.167969,0.167969 l -2.996094,5.960937 c -0.248419,-0.02826 -0.495721,-0.02826 -0.744141,0 l -2.978515,-5.958984 c 1.180857,-1.250117 1.334913,-3.214424 0.220703,-4.576172 -0.604085,-0.738292 -1.461863,-1.162786 -2.353516,-1.251953 z m -0.09961,0.996094 c 0.637578,0.06376 1.249542,0.365349 1.677734,0.888672 0.856371,1.046626 0.697084,2.645557 -0.349609,3.501953 l -0.308594,0.251953 3.607422,7.216797 0.388672,-0.09766 c 0.382631,-0.09572 0.752135,-0.09572 1.134765,0 l 0.386719,0.09766 3.65625,-7.269531 -0.333984,-0.25 c -0.121138,-0.09091 -0.192734,-0.162503 -0.283203,-0.283204 l -0.0059,-0.0078 -0.0059,-0.0078 c -0.856387,-1.046682 -0.697047,-2.645623 0.349609,-3.501953 1.046678,-0.856348 2.645567,-0.697036 3.501953,0.34961 0.856371,1.046626 0.695131,2.645557 -0.351562,3.501953 l -0.308594,0.253906 3.628906,7.216797 0.355469,-0.05078 c 0.274446,-0.03912 0.482528,-0.07227 0.65625,-0.07227 0.729762,0 1.445423,0.332098 1.878906,0.791016 0.883755,1.052856 0.727607,2.590683 -0.330078,3.488281 -1.053075,0.893468 -2.599633,0.736869 -3.5,-0.324219 -0.893482,-1.053091 -0.736987,-2.599633 0.324219,-3.5 l 0.300781,-0.255859 -3.630859,-7.179688 -0.363281,0.06055 c -0.229185,0.03827 -0.431544,0.07031 -0.605469,0.07031 -0.22938,0 -0.44969,-0.01122 -0.568359,-0.05078 l -0.410157,-0.136718 -3.669922,7.296875 0.333985,0.251953 c 0.110359,0.08282 0.237754,0.210167 0.320312,0.320312 l 0.0059,0.0078 0.0078,0.0098 c 0.85638,1.046675 0.694996,2.645572 -0.351562,3.501954 -1.046681,0.856268 -2.643617,0.695115 -3.5,-0.351563 -0.856381,-1.046674 -0.696948,-2.645572 0.349609,-3.501953 l 0.308594,-0.251953 -3.59375,-7.1875 -0.363281,0.06055 c -0.229574,0.03819 -0.431748,0.07031 -0.605469,0.07031 -0.219986,0 -0.414956,-0.03212 -0.644531,-0.07031 l -0.363282,-0.06055 -3.671875,7.259765 0.306641,0.253907 c 0.573435,0.477911 0.890625,1.175718 0.890625,1.910156 0,1.36489 -1.148852,2.482422 -2.521484,2.482422 -1.364883,0 -2.4804691,-1.148843 -2.4804691,-2.521485 0,-1.36489 1.1468831,-2.482421 2.5195311,-2.482421 0.220078,0 0.389664,0.02791 0.626953,0.0957 l 0.396485,0.113281 3.677734,-7.228516 -0.257813,-0.255859 c -0.182431,-0.182449 -0.3144,-0.288993 -0.373046,-0.367188 l -0.0059,-0.0078 -0.0078,-0.0078 c -0.856354,-1.04667 -0.695048,-2.645621 0.351562,-3.501953 0.523339,-0.428174 1.184687,-0.602822 1.822266,-0.539062 z"
     id="path4" />
  <defs
     id="defs16">
    <linearGradient
       id="paint0_linear"
       x1="0"
       y1="154.03101"
       x2="310"
       y2="154.03101"
       gradientUnits="userSpaceOnUse">
      <stop
         stop-color="#FF5F6D"
         id="stop6" />
      <stop
         offset="0.986957"
         stop-color="#FFC371"
         id="stop8" />
    </linearGradient>
    <linearGradient
       id="paint1_linear"
       x1="259.716"
       y1="148.439"
       x2="50.2836"
       y2="148.439"
       gradientUnits="userSpaceOnUse"
       gradientTransform="matrix(0.14133065,0,0,0.14133065,2.0937579,1.0821244)">
      <stop
         stop-color="#FF5F6D"
         id="stop11" />
      <stop
         offset="1"
         stop-color="#FFC371"
         id="stop13" />
    </linearGradient>
    <linearGradient
       inkscape:collect="always"
       xlink:href="#paint1_linear"
       id="linearGradient872"
       x1="-12.025727"
       y1="6.1170783"
       x2="-0.085100174"
       y2="6.1170783"
       gradientUnits="userSpaceOnUse"
       gradientTransform="matrix(3.8366785,0,0,3.8379962,-1.0591751e-4,-0.00807312)" />
    <linearGradient
       id="_lgradient_1"
       x1="0.18336116"
       y1="0.24917752"
       x2="0.9027437"
       y2="0.90347725"
       gradientTransform="matrix(24.617266,0,0,24.816118,10.841288,10.089605)"
       gradientUnits="userSpaceOnUse">
      <stop
         offset="2.608695652173913%"
         stop-opacity="1"
         style="stop-color:rgb(179,255,171)"
         id="stop2" />
      <stop
         offset="98.69565217391305%"
         stop-opacity="1"
         style="stop-color:rgb(18,255,247)"
         id="stop4" />
    </linearGradient>
    <linearGradient
       inkscape:collect="always"
       xlink:href="#paint1_linear"
       id="linearGradient15"
       x1="-9.6850061"
       y1="45.161198"
       x2="11.98815"
       y2="21.735205"
       gradientUnits="userSpaceOnUse"
       gradientTransform="matrix(1.1149933,0,0,1.115284,-0.0125952,-3.3361236)" />
    <linearGradient
       inkscape:collect="always"
       xlink:href="#paint1_linear"
       id="linearGradient1033"
       x1="9.2003727"
       y1="22.061049"
       x2="38.799625"
       y2="22.061049"
       gradientUnits="userSpaceOnUse" />
  </defs>
</svg>
