<?xml version="1.0" encoding="UTF-8" standalone="no"?>
<!-- Generator: Gravit.io -->

<svg
   style="isolation:isolate"
   viewBox="0 0 48 48"
   width="48pt"
   height="48pt"
   version="1.1"
   id="svg23"
   sodipodi:docname="multimc.svg"
   inkscape:version="1.1.2 (0a00cf5339, 2022-02-04)"
   xmlns:inkscape="http://www.inkscape.org/namespaces/inkscape"
   xmlns:sodipodi="http://sodipodi.sourceforge.net/DTD/sodipodi-0.dtd"
   xmlns:xlink="http://www.w3.org/1999/xlink"
   xmlns="http://www.w3.org/2000/svg"
   xmlns:svg="http://www.w3.org/2000/svg">
  <defs
     id="defs27">
    <linearGradient
       inkscape:collect="always"
       xlink:href="#_lgradient_45"
       id="linearGradient872"
       x1="-12.025727"
       y1="6.1170783"
       x2="-0.085100174"
       y2="6.1170783"
       gradientUnits="userSpaceOnUse"
       gradientTransform="matrix(3.8358211,0,0,3.8371386,-0.00544341,-0.00268054)" />
    <linearGradient
       id="_lgradient_1"
       x1="0.18336116"
       y1="0.24917752"
       x2="0.9027437"
       y2="0.90347725"
       gradientTransform="matrix(24.617266,0,0,24.816118,10.841288,10.089605)"
       gradientUnits="userSpaceOnUse">
      <stop
         offset="2.608695652173913%"
         stop-opacity="1"
         style="stop-color:rgb(179,255,171)"
         id="stop2-3" />
      <stop
         offset="98.69565217391305%"
         stop-opacity="1"
         style="stop-color:rgb(18,255,247)"
         id="stop4-6" />
    </linearGradient>
    <linearGradient
       inkscape:collect="always"
       xlink:href="#_lgradient_45"
       id="linearGradient15"
       x1="-9.6850061"
       y1="45.161198"
       x2="11.98815"
       y2="21.735205"
       gradientUnits="userSpaceOnUse"
       gradientTransform="matrix(1.1147442,0,0,1.1150348,-0.01237238,-3.3277956)" />
    <linearGradient
       inkscape:collect="always"
       xlink:href="#_lgradient_45"
       id="linearGradient914"
       x1="12.476303"
       y1="24"
       x2="35.523697"
       y2="24"
       gradientUnits="userSpaceOnUse" />
    <linearGradient
       inkscape:collect="always"
       xlink:href="#_lgradient_46"
       id="linearGradient970"
       x1="15.663948"
       y1="25.226046"
       x2="32.336292"
       y2="25.226046"
       gradientUnits="userSpaceOnUse"
       gradientTransform="scale(1.3333333)" />
  </defs>
  <sodipodi:namedview
     id="namedview25"
     pagecolor="#ffffff"
     bordercolor="#666666"
     borderopacity="1.0"
     inkscape:pageshadow="2"
     inkscape:pageopacity="0.0"
     inkscape:pagecheckerboard="0"
     inkscape:document-units="pt"
     showgrid="false"
     inkscape:zoom="57.805979"
     inkscape:cx="26.92628"
     inkscape:cy="33.508644"
     inkscape:window-width="1600"
     inkscape:window-height="836"
     inkscape:window-x="0"
     inkscape:window-y="0"
     inkscape:window-maximized="1"
     inkscape:current-layer="svg23" />
  <linearGradient
     id="_lgradient_45"
     x1="0.6019726291029618"
     y1="0.9862522841480131"
     x2="0.5474446701593073"
     y2="-0.404793855641845"
     gradientTransform="matrix(23.047394,0,0,21.576284,12.476303,13.211858)"
     gradientUnits="userSpaceOnUse">
    <stop
       offset="1.6666666666666667%"
       stop-opacity="1"
       style="stop-color:rgb(242,231,63)"
       id="stop2" />
    <stop
       offset="84.58333333333333%"
       stop-opacity="1"
       style="stop-color:rgb(94,239,229)"
       id="stop4" />
  </linearGradient>
  <rect
     x="-46.783188"
     y="1.2253767"
     height="45.80014"
     rx="6.1837621"
     shape-rendering="crispEdges"
     id="rect5-6-7-3"
     ry="6.8055277"
     transform="matrix(0.00524063,-0.99998627,0.99998801,0.00489691,0,0)"
     style="isolation:isolate;fill:#00ffc3;fill-opacity:0.134703;stroke:url(#linearGradient872);stroke-width:2.0301;stroke-miterlimit:4;stroke-dasharray:none;stroke-opacity:1"
     width="45.801998" />
  <rect
     x="-15.686804"
     y="17.260084"
     height="33.345856"
     rx="6.7920032"
     shape-rendering="crispEdges"
     id="rect5-6-6-6-6"
     style="isolation:isolate;fill:#00ffc3;fill-opacity:0.134703;stroke:url(#linearGradient15);stroke-width:1.67233;stroke-miterlimit:4;stroke-dasharray:none;stroke-opacity:1"
     ry="7.4743071"
     transform="matrix(0.72446484,-0.68931175,0.68622417,0.72739012,0,0)"
     width="33.338203" />
  <path
     style="color:#000000;fill:url(#linearGradient914);fill-rule:evenodd;-inkscape-stroke:none"
     d="m 14.4375,12.710938 c -1.353267,0 -2.460937,1.109623 -2.460937,2.46289 v 2.207031 1.234375 h 1.726562 0.244141 2.197265 0.01953 1.707032 0.724609 v 1.470703 h 2.472656 V 18.615234 H 23.5 v 1.470703 h 2.451172 0.01953 2.453125 v -1.470703 h 0.980469 V 17.144531 H 29.875 v 1.470703 h 1.480469 1.480468 v -1.470703 h 0.716797 v 3.667969 1.236328 h 2.470703 V 20.8125 15.173828 c 0,-1.353267 -1.10767,-2.462891 -2.460937,-2.46289 z m 0,1 h 19.125 c 0.812205,0 1.460937,0.650685 1.460937,1.46289 V 20.8125 21.048828 H 34.552734 V 20.8125 16.144531 h -2.716797 v 1.470703 H 31.355469 30.875 v -1.470703 h -2.470703 v 1.470703 h -0.980469 v 1.470703 h -0.472656 v -1.470703 h -1.980469 v 1.470703 H 24.5 v -0.970703 -1.970703 h -1.980469 v 1.470703 h -0.470703 v -0.970703 -1.480468 h -1.980469 v 1.480468 1.470703 0.970703 h -0.472656 v -1.470703 h -1.724609 -0.726563 v -1.470703 h -1.980468 v 1.470703 h -1.216797 -0.244141 -0.726562 v -0.234375 -2.207031 c 0,-0.812205 0.648732,-1.462891 1.460937,-1.46289 z m -1.226562,6.847656 c -0.676558,0 -1.234375,0.557817 -1.234375,1.234375 v 11.033203 c 0,1.353267 1.10767,2.46289 2.460937,2.46289 h 11.523437 c 0.372134,0 0.719036,-0.110077 0.994141,-0.316406 0.275105,-0.206328 0.486328,-0.536554 0.486328,-0.919922 0,-0.383367 -0.211223,-0.713593 -0.486328,-0.919922 -0.275105,-0.206328 -0.622007,-0.316406 -0.994141,-0.316406 h -4.291015 -6.742188 c -0.270835,0 -0.480468,-0.209631 -0.480468,-0.480469 V 21.792969 c 0,-0.676558 -0.559771,-1.234375 -1.236328,-1.234375 z m 0,1 c 0.135493,0 0.236328,0.09888 0.236328,0.234375 v 10.542968 c 0,0.8119 0.668569,1.480469 1.480468,1.480469 h 6.742188 4.291015 c 0.169236,0 0.314609,0.05529 0.394532,0.115235 0.07992,0.05994 0.08594,0.09843 0.08594,0.121093 0,0.02266 -0.006,0.0592 -0.08594,0.119141 -0.07992,0.05994 -0.225296,0.117187 -0.394532,0.117187 H 14.4375 c -0.812205,0 -1.460938,-0.650685 -1.460937,-1.46289 V 21.792969 c 0,-0.135496 0.09888,-0.234375 0.234375,-0.234375 z m 21.578124,3.902343 c -0.676557,0 -1.236328,0.559771 -1.236328,1.236329 v 5.638671 c 0,0.270838 -0.209633,0.480469 -0.480468,0.480469 H 30.375 c -0.372133,0 -0.719036,0.110078 -0.994141,0.316406 -0.275105,0.206329 -0.486328,0.536555 -0.486328,0.919922 0,0.383368 0.211224,0.713594 0.486328,0.919922 0.275105,0.206329 0.622008,0.316406 0.994141,0.316406 h 3.1875 c 1.353267,0 2.460937,-1.109623 2.460937,-2.46289 v -6.128906 c 0,-0.676558 -0.557817,-1.236329 -1.234375,-1.236329 z m 0,1 c 0.135494,0 0.234376,0.100835 0.234375,0.236329 v 6.128906 c 0,0.812205 -0.648732,1.46289 -1.460937,1.46289 H 30.375 c -0.169234,0 -0.314608,-0.05725 -0.394531,-0.117187 -0.07992,-0.05994 -0.08594,-0.09648 -0.08594,-0.119141 0,-0.02266 0.006,-0.06115 0.08594,-0.121093 0.07992,-0.05994 0.225296,-0.115235 0.394531,-0.115235 h 2.697266 c 0.811899,0 1.480468,-0.668569 1.480468,-1.480469 v -5.638671 c 0,-0.135494 0.100835,-0.236329 0.236328,-0.236329 z"
     id="path7" />
  <linearGradient
     id="_lgradient_46"
     x1="-0.22842598577892684"
     y1="0.5761312217194571"
     x2="0.9981415643180351"
     y2="0.5327677224736046"
     gradientTransform="matrix(28,0,0,15,13,19)"
     gradientUnits="userSpaceOnUse">
    <stop
       offset="2.608695652173913%"
       stop-opacity="1"
       style="stop-color:rgb(179,255,171)"
       id="stop9" />
    <stop
       offset="98.69565217391305%"
       stop-opacity="1"
       style="stop-color:rgb(18,255,247)"
       id="stop11" />
  </linearGradient>
  <linearGradient
     id="_lgradient_47"
     x1="-0.00498710650513301"
     y1="0.5671191553544496"
     x2="1.2166512593457568"
     y2="0.5497737556561085"
     gradientTransform="matrix(13.681326,0,0,7.3555514,15.663709,21.54815)"
     gradientUnits="userSpaceOnUse">
    <stop
       offset="2.608695652173913%"
       stop-opacity="1"
       style="stop-color:rgb(179,255,171)"
       id="stop16" />
    <stop
       offset="98.69565217391305%"
       stop-opacity="1"
       style="stop-color:rgb(18,255,247)"
       id="stop18" />
  </linearGradient>
  <path
     id="path21"
     style="color:#000000;fill:url(#linearGradient970);stroke-width:1.33333;-inkscape-stroke:none"
     d="m 25.78125,28.064453 c -0.0028,3.3e-5 -0.005,0.0038 -0.0078,0.0039 -1.470562,0.0043 -2.882757,0.585728 -3.919922,1.628907 -1.048634,1.041196 -1.634766,2.459905 -1.634766,3.9375 0,1.477594 0.586115,2.896663 1.632812,3.943359 h 0.002 v 0.002 c 1.046369,1.038949 2.463869,1.625 3.941406,1.625 h 0.0039 0.0039 c 0.188586,-0.0019 0.363454,-0.09178 0.550782,-0.111328 l 0.0078,0.07813 c 0.563973,-0.05749 1.119831,-0.191195 1.648438,-0.408203 l 0.0039,-0.0039 h 0.002 c 0.64068,-0.271592 1.247254,-0.622623 1.802734,-1.041016 l 0.002,-0.002 c 0.0077,-0.0059 0.01766,-0.0078 0.02539,-0.01367 0.555139,-0.411689 1.073701,-0.861741 1.5625,-1.34375 0.169368,-0.167017 0.333331,-0.338956 0.5,-0.507813 0.146795,0.139478 0.296306,0.286036 0.441406,0.421876 l -0.0039,-0.0059 c 0.524933,0.497664 1.080914,0.962247 1.65625,1.388672 0.590401,0.435772 1.234106,0.802916 1.919922,1.085938 0.723875,0.302843 1.498483,0.455566 2.275391,0.46289 h 0.0039 0.0039 c 1.477552,0 2.894886,-0.585901 3.941406,-1.625 0.937954,-1.248147 1.615238,-2.645501 1.634812,-3.945359 -0.319779,-5.297342 -5.52541,-6.462563 -9.699253,-4.238279 -0.747386,0.433283 -1.572245,1.192929 -2.189451,1.753957 -0.07378,0.08572 -0.17638,-0.112768 -0.238279,-0.152343 -0.540691,-0.513909 -1.153493,-0.983078 -1.65625,-1.382787 -0.59006,-0.43552 -1.234555,-0.802982 -1.919922,-1.085937 -0.722385,-0.302223 -1.494536,-0.45752 -2.271484,-0.464844 h -0.002 -0.002 c -0.0048,0 -0.0089,0.0059 -0.01367,0.0059 v -0.0059 c -0.0027,0 -0.0051,-4e-6 -0.0078,0 z m 12.390624,1.294927 c -25.447916,-19.57292 -12.723958,-9.78646 0,0 z m -10.607421,0.398434 c 0.654437,0.102476 1.166492,0.628008 1.638672,0.927735 1.000701,0.739563 1.78451,1.51345 2.66601,2.369188 0.795966,-0.839783 1.718411,-1.625451 2.544915,-2.294916 v -0.002 h 0.002 c 0.547777,-0.403309 1.142885,-0.7325 1.771484,-0.978515 0.647812,-0.247345 1.331285,-0.38086 2.023438,-0.380859 1.124675,0 2.202714,0.445121 2.992187,1.240234 l 0.002,0.002 v 0.002 c 0.795113,0.789473 1.242189,1.867513 1.242188,2.992188 10e-7,1.123844 -0.44622,2.201141 -1.242188,2.998046 -0.796679,0.79103 -1.872316,1.239572 -2.996094,1.240235 -0.608344,-0.006 -1.216596,-0.130315 -1.773437,-0.363281 h -0.0039 c -0.58136,-0.239698 -1.127861,-0.551859 -1.634766,-0.925782 h -0.002 c -1.187065,-0.925178 -1.940595,-1.673172 -2.914103,-2.625103 l -0.472656,0.488282 c -0.323955,0.336912 -0.645932,0.664505 -0.976562,0.982422 l -0.002,0.002 -0.002,0.0039 c -0.444208,0.437952 -0.912263,0.841422 -1.410156,1.214844 l -0.002,0.0039 h -0.0039 c -0.469196,0.356351 -0.973684,0.6628 -1.523438,0.875 -1.878014,0.724896 -2.902129,0.16358 -4.693447,-0.896535 -0.969323,-0.573653 -1.307664,-1.876155 -1.242188,-2.998046 0.154007,-2.638828 2.047871,-4.497641 6.011719,-3.876954 z m -5.384765,3.876954 c 0,0.953524 0.260363,2.020265 1.0625,2.552734 2.182655,1.448873 3.365918,1.265381 5.388927,-0.03139 0.507921,-0.325582 0.931625,-0.749364 1.353516,-1.164062 l 0.0059,-0.0059 c 0.338022,-0.324899 0.66931,-0.656053 0.994141,-0.99414 l 0.458984,-0.480469 C 30.614829,32.666882 29.695888,31.874755 28.833984,31.1875 h -0.0039 l -0.002,-0.002 c -0.460856,-0.333265 -0.929659,-0.709026 -1.494141,-0.847656 -2.575713,-0.632566 -5.048072,1.319793 -5.154296,3.296875 z m 16.03125,-3.609375 c -0.611911,0 -1.22,0.114863 -1.794922,0.341797 -0.726332,0.360373 -1.207957,0.580864 -1.800763,1.04686 -0.88606,0.638771 -1.508832,1.294604 -2.30278,2.087932 l -0.0059,0.0078 c 0.926745,0.916785 1.935316,1.831932 2.85942,2.57031 l 0.0039,0.0039 h 0.002 c 0.46098,0.333326 0.958026,0.621114 1.494141,0.845704 l 0.0039,0.0039 c 0.493547,0.203685 1.015957,0.300902 1.539062,0.308594 h 0.0039 0.0059 c 1.828316,0 3.568633,-1.96075 3.601556,-3.607469 0.01904,-0.952226 -0.373504,-1.874326 -1.05664,-2.550782 -0.672677,-0.672677 -1.590367,-1.058593 -2.552734,-1.058593 z m -12.439454,1.332031 c 0.0021,8e-6 0.0018,0.002 0.0039,0.002 h -0.0039 z m 14.048828,0.668016 v 0.0039 h 0.002 c 0.426766,0.421745 0.732657,1.006871 0.664062,1.605469 -0.176007,1.535941 -0.885515,2.346517 -2.267624,2.273483 -0.362665,-0.01916 -0.713261,-0.07568 -1.041016,-0.210937 -0.430336,-0.1806 -0.836596,-0.414749 -1.224609,-0.695313 -0.473499,-0.349255 -0.920745,-0.722523 -1.341797,-1.125 l -0.002,-0.002 -0.002,-0.002 c -0.12996,-0.121493 -0.259181,-0.24761 -0.388672,-0.371094 0.0061,-0.0059 0.01149,-0.01162 0.01758,-0.01758 0.826026,-0.856234 1.64027,-1.364911 2.66804,-1.875088 v -0.002 h 0.002 c 1.162735,-0.431162 1.943818,-0.17631 2.914036,0.41816 z M 25.779297,31.361424 c 0.361589,0.0069 0.719034,0.07529 1.042969,0.208984 1.080619,0.511749 1.939797,1.266532 2.726562,1.970704 -0.163076,0.16319 -0.321882,0.330362 -0.488281,0.490234 l -0.0039,0.002 -0.002,0.0039 c -0.387322,0.381075 -0.789693,0.7301 -1.21875,1.048829 l -0.002,0.002 -0.0039,0.0039 c -0.724157,0.560756 -1.211373,0.677559 -2.048904,0.8184 v 0.002 h -0.0039 c -0.597955,-6.69e-4 -1.170563,-0.24478 -1.595703,-0.669921 h -0.002 l -0.0039,-0.002 c -0.4267,-0.42168 -0.664062,-1.000934 -0.664062,-1.603515 0,-0.602583 0.237362,-1.185743 0.664062,-1.607422 l 0.0059,-0.002 0.002,-0.0039 c 0.418876,-0.423867 0.99546,-0.657019 1.59375,-0.660157 z"
     transform="scale(0.75)"
     sodipodi:nodetypes="cccscccsccccccccccscccccccscccccccccsccccccccccccssccscccccccccccccccssscccsscccccscccccccccccccsccssccccccccscsscccccccccccccccccccccscccccccccc" />
</svg>
