<?xml version="1.0" encoding="UTF-8" standalone="no"?>
<!-- Generator: Gravit.io -->

<svg
   style="isolation:isolate"
   viewBox="0 0 48 48"
   width="48pt"
   height="48pt"
   version="1.1"
   id="svg29"
   sodipodi:docname="musescore.svg"
   inkscape:version="1.1.2 (0a00cf5339, 2022-02-04)"
   xmlns:inkscape="http://www.inkscape.org/namespaces/inkscape"
   xmlns:sodipodi="http://sodipodi.sourceforge.net/DTD/sodipodi-0.dtd"
   xmlns:xlink="http://www.w3.org/1999/xlink"
   xmlns="http://www.w3.org/2000/svg"
   xmlns:svg="http://www.w3.org/2000/svg">
  <defs
     id="defs33">
    <linearGradient
       inkscape:collect="always"
       xlink:href="#_lgradient_45"
       id="linearGradient872"
       x1="-12.025727"
       y1="6.1170783"
       x2="-0.085100174"
       y2="6.1170783"
       gradientUnits="userSpaceOnUse"
       gradientTransform="matrix(3.8358211,0,0,3.8371386,-0.00544341,-0.00268054)" />
    <linearGradient
       id="_lgradient_1"
       x1="0.18336116"
       y1="0.24917752"
       x2="0.9027437"
       y2="0.90347725"
       gradientTransform="matrix(24.617266,0,0,24.816118,10.841288,10.089605)"
       gradientUnits="userSpaceOnUse">
      <stop
         offset="2.608695652173913%"
         stop-opacity="1"
         style="stop-color:rgb(179,255,171)"
         id="stop2-3" />
      <stop
         offset="98.69565217391305%"
         stop-opacity="1"
         style="stop-color:rgb(18,255,247)"
         id="stop4-6" />
    </linearGradient>
    <linearGradient
       inkscape:collect="always"
       xlink:href="#_lgradient_45"
       id="linearGradient15"
       x1="-9.6850061"
       y1="45.161198"
       x2="11.98815"
       y2="21.735205"
       gradientUnits="userSpaceOnUse"
       gradientTransform="matrix(1.1147442,0,0,1.1150348,-0.01237238,-3.3277956)" />
  </defs>
  <sodipodi:namedview
     id="namedview31"
     pagecolor="#ffffff"
     bordercolor="#666666"
     borderopacity="1.0"
     inkscape:pageshadow="2"
     inkscape:pageopacity="0.0"
     inkscape:pagecheckerboard="0"
     inkscape:document-units="pt"
     showgrid="false"
     inkscape:zoom="8"
     inkscape:cx="32.4375"
     inkscape:cy="32"
     inkscape:window-width="1600"
     inkscape:window-height="836"
     inkscape:window-x="0"
     inkscape:window-y="0"
     inkscape:window-maximized="1"
     inkscape:current-layer="svg29" />
  <linearGradient
     id="_lgradient_43"
     x1="-0.25509091941657946"
     y1="-0.14997737556561086"
     x2="1.237733637838482"
     y2="1.228981900452489"
     gradientTransform="matrix(20.777174,0,0,14.460754,13.611413,20.325337)"
     gradientUnits="userSpaceOnUse">
    <stop
       offset="2.1739130434782608%"
       stop-opacity="1"
       style="stop-color:rgb(242,79,92)"
       id="stop2" />
    <stop
       offset="49.56521739130435%"
       stop-opacity="1"
       style="stop-color:rgb(208,103,207)"
       id="stop4" />
    <stop
       offset="98.26086956521739%"
       stop-opacity="1"
       style="stop-color:rgb(49,193,233)"
       id="stop6" />
  </linearGradient>
  <linearGradient
     id="_lgradient_44"
     x1="5.1271327"
     y1="14.188096"
     x2="35.776041"
     y2="46.90049"
     gradientTransform="matrix(0.97599643,0,0,0.83568483,2.3251245,2.273778)"
     gradientUnits="userSpaceOnUse">
    <stop
       offset="2.1739130434782608%"
       stop-opacity="1"
       style="stop-color:rgb(242,79,92)"
       id="stop9" />
    <stop
       offset="49.56521739130435%"
       stop-opacity="1"
       style="stop-color:rgb(208,103,207)"
       id="stop11" />
    <stop
       offset="98.26086956521739%"
       stop-opacity="1"
       style="stop-color:rgb(49,193,233)"
       id="stop13" />
  </linearGradient>
  <rect
     x="-46.783188"
     y="1.2253767"
     height="45.80014"
     rx="6.1837621"
     shape-rendering="crispEdges"
     id="rect5-6-7-3"
     ry="6.8055277"
     transform="matrix(0.00524063,-0.99998627,0.99998801,0.00489691,0,0)"
     style="isolation:isolate;fill:#0044ff;fill-opacity:0.13470298;stroke:url(#linearGradient872);stroke-width:2.0301;stroke-miterlimit:4;stroke-dasharray:none;stroke-opacity:1"
     width="45.801998" />
  <rect
     x="-15.686804"
     y="17.260084"
     height="33.345856"
     rx="6.7920032"
     shape-rendering="crispEdges"
     id="rect5-6-6-6-6"
     style="isolation:isolate;fill:#0044ff;fill-opacity:0.13470298;stroke:url(#linearGradient15);stroke-width:1.67233;stroke-miterlimit:4;stroke-dasharray:none;stroke-opacity:1"
     ry="7.4743071"
     transform="matrix(0.72446484,-0.68931175,0.68622417,0.72739012,0,0)"
     width="33.338203" />
  <path
     style="color:#000000;vector-effect:non-scaling-stroke;fill:url(#_lgradient_44);fill-rule:evenodd;-inkscape-stroke:none"
     d="m 17.677734,19.826172 c -2.209909,0 -3.610438,1.38627 -4.138671,2.675781 -0.4933,1.202838 -0.411371,2.262263 -0.40625,2.339844 h -0.01953 v 9.041015 c 0,0.769054 0.635245,1.402344 1.404297,1.402344 0.769052,0 1.402344,-0.63329 1.402344,-1.402344 v -9.083984 l -0.002,-0.02344 v -0.0039 c -6.4e-5,-0.0041 -0.0099,-0.651073 0.216797,-1.205078 0.12898,-0.313713 0.248393,-0.524394 0.439453,-0.669922 0.191059,-0.145527 0.495123,-0.265625 1.103515,-0.265625 0.608393,0 0.91298,0.120275 1.103516,0.265625 0.190536,0.145351 0.310329,0.355859 0.439453,0.669922 h -0.002 c 0.227738,0.556446 0.21875,1.208985 0.21875,1.208985 l -0.002,0.02344 v 0.04102 l -0.0039,4.125 h 0.0039 v 4.908203 c 0,0.769053 0.635244,1.402344 1.404297,1.402344 0.769053,0 1.402343,-0.633292 1.402343,-1.402344 v -9.09375 l -0.002,-0.01367 c -1.54e-4,-0.01045 -0.01076,-0.647979 0.214844,-1.199219 0.128836,-0.313363 0.249824,-0.524217 0.441406,-0.669922 C 23.088067,22.75078 23.391607,22.630859 24,22.630859 c 0.608393,0 0.911026,0.120275 1.101562,0.265625 0.190537,0.145351 0.31033,0.355859 0.439454,0.669922 0.225892,0.551937 0.216928,1.188764 0.216796,1.199219 l -0.002,0.01367 v 5.490234 h 0.02148 c -0.0051,0.07758 -0.08705,1.137006 0.40625,2.339844 0.528233,1.289511 1.928761,2.675781 4.138672,2.675781 2.209909,0 3.609643,-1.386855 4.138671,-2.675781 0.4933,-1.202838 0.411371,-2.262263 0.40625,-2.339844 h 0.01953 v -9.029297 c 0,-0.769053 -0.635244,-1.404297 -1.404297,-1.404297 -0.769053,0 -1.402344,0.635244 -1.402344,1.404297 V 30.3125 l 0.002,0.02734 c 5.4e-5,0.0041 0.0081,0.65152 -0.21875,1.205078 -0.129093,0.314403 -0.24901,0.524715 -0.439453,0.669922 -0.190443,0.145206 -0.493059,0.265625 -1.101562,0.265625 -0.608504,0 -0.91255,-0.120241 -1.103516,-0.265625 C 29.027784,32.06946 28.908246,31.858976 28.779297,31.544922 28.552016,30.990328 28.5625,30.337891 28.5625,30.337891 l 0.002,-0.02539 v -5.453125 -0.01758 h -0.01953 c 0.0051,-0.07758 0.08705,-1.137005 -0.40625,-2.339844 C 27.610421,21.212447 26.209911,19.826172 24,19.826172 c -1.410565,0 -2.429219,0.612069 -3.160156,1.355469 -0.731158,-0.74399 -1.75158,-1.355469 -3.16211,-1.355469 z m 0,1 c 1.328861,0 2.21647,0.590669 2.767578,1.296875 l 0.394532,0.505859 0.392578,-0.505859 C 21.783672,21.416659 22.670144,20.826172 24,20.826172 c 1.796325,0 2.819925,1.097377 3.212891,2.05664 0.411946,1.00447 0.349609,1.972657 0.349609,1.972657 v 0.01758 h 0.002 v 5.404297 l -0.002,0.01563 v 0.0098 c 0,0 -0.03983,0.813785 0.291016,1.621094 0.151017,0.367802 0.356705,0.779085 0.759765,1.085938 0.40306,0.306853 0.961907,0.470703 1.708985,0.470703 0.747078,0 1.306304,-0.163673 1.708984,-0.470703 0.40268,-0.307031 0.606938,-0.718486 0.757812,-1.085938 0.330558,-0.806607 0.292969,-1.61914 0.292969,-1.619141 l -0.002,-0.0098 v -0.01758 -9.03711 c 0,-0.22799 0.174354,-0.404297 0.402344,-0.404297 0.22799,0 0.404297,0.176307 0.404297,0.404297 v 8.998047 h -0.002 v 0.01758 c 0,0 0.06234,0.968187 -0.34961,1.972657 -0.393958,0.95984 -1.416566,2.05664 -3.21289,2.05664 -1.796326,0 -2.819943,-1.097386 -3.212891,-2.05664 -0.411551,-1.003505 -0.35168,-1.968846 -0.351563,-1.970704 10e-7,-1e-6 0,-0.002 0,-0.002 h -0.002 v -5.402343 l 0.002,-0.01758 0.002,-0.02734 c 0,0 0.03742,-0.813832 -0.292969,-1.621094 C 26.315954,22.820611 26.111571,22.408675 25.708984,22.101562 25.306397,21.79445 24.747189,21.630859 24,21.630859 c -0.747189,0 -1.305637,0.163945 -1.708984,0.470703 -0.403347,0.306759 -0.610589,0.718349 -0.761719,1.085938 -0.330681,0.807964 -0.291016,1.621094 -0.291016,1.621094 l 0.002,0.0293 0.002,0.01563 v 9.019531 c 0,0.227991 -0.174353,0.402344 -0.402343,0.402344 -0.22799,0 -0.404297,-0.174354 -0.404297,-0.402344 v -5.908203 h -0.0039 l 0.0039,-3.125 v -0.0039 l 0.002,-0.01758 v -0.0098 c 0,0 0.03742,-0.813832 -0.292969,-1.621094 -0.150843,-0.366889 -0.355225,-0.778825 -0.757812,-1.085938 -0.402587,-0.307112 -0.961796,-0.470703 -1.708985,-0.470703 -0.747189,0 -1.306017,0.163768 -1.708984,0.470703 -0.402967,0.306936 -0.608779,0.718699 -0.759766,1.085938 -0.330679,0.807964 -0.291015,1.621094 -0.291015,1.621094 l 0.002,0.0098 v 0.01758 9.046875 c 0,0.227992 -0.174353,0.402344 -0.402344,0.402344 -0.227991,0 -0.404297,-0.174352 -0.404297,-0.402344 v -9.009765 h 0.002 v -0.01758 c 0,0 -0.06234,-0.968187 0.34961,-1.972657 0.392947,-0.959254 1.416566,-2.05664 3.21289,-2.05664 z"
     id="path16" />
  <linearGradient
     id="_lgradient_45"
     x1="0.12397219323214168"
     y1="0.16741082474102914"
     x2="0.9052938577436629"
     y2="0.9259644179045445"
     gradientTransform="matrix(47,0,0,47.058,0.5,0.471)"
     gradientUnits="userSpaceOnUse">
    <stop
       offset="2.1739130434782608%"
       stop-opacity="1"
       style="stop-color:rgb(242,79,92)"
       id="stop18" />
    <stop
       offset="49.56521739130435%"
       stop-opacity="1"
       style="stop-color:rgb(208,103,207)"
       id="stop20" />
    <stop
       offset="98.26086956521739%"
       stop-opacity="1"
       style="stop-color:rgb(49,193,233)"
       id="stop22" />
  </linearGradient>
  <path
     style="color:#000000;fill:#d365c4;fill-rule:evenodd;-inkscape-stroke:none"
     d="m 30.322266,11.203125 c -1.32343,0 -2.589757,0.521647 -3.53125,1.453125 -0.934645,0.924595 -1.464361,2.188675 -1.484375,3.509766 -0.01353,1.01825 0.813496,1.865193 1.832031,1.875 1.017463,0.0098 1.862429,-0.814582 1.876953,-1.832032 0.0066,-0.340749 0.1489,-0.679434 0.386719,-0.917968 0.253165,-0.244293 0.575476,-0.378907 0.919922,-0.378907 0.340287,0 0.678136,0.144934 0.919921,0.386719 l 0.002,0.002 0.002,0.002 c 0.244616,0.238179 0.382812,0.569438 0.382812,0.916016 0,1.018314 0.836993,1.853287 1.855469,1.849609 1.018133,-0.0037 1.853516,-0.841061 1.853516,-1.859375 0,-1.325035 -0.531917,-2.599502 -1.47461,-3.533203 -0.941708,-0.941708 -2.21506,-1.472656 -3.541015,-1.472656 z m 0,1 c 1.058278,0 2.077828,0.423532 2.833984,1.179688 l 0.002,0.002 c 0.753944,0.745923 1.179688,1.76594 1.179688,2.824218 0,0.477251 -0.379991,0.857646 -0.857422,0.859375 -0.477089,0.0017 -0.851563,-0.372358 -0.851563,-0.849609 0,-0.609226 -0.243907,-1.199048 -0.683594,-1.628906 -0.426242,-0.424612 -1.007553,-0.677735 -1.623046,-0.677735 -0.610729,0 -1.190548,0.244896 -1.623047,0.666016 l -0.002,0.002 -0.002,0.002 c -0.429709,0.429709 -0.66819,1.009543 -0.679687,1.607422 v 0.002 0.002 c -0.0063,0.477228 -0.389729,0.85227 -0.867188,0.847657 -0.477029,-0.0046 -0.848138,-0.384015 -0.841796,-0.861329 0.01611,-1.063142 0.442344,-2.075356 1.1875,-2.812499 0.756371,-0.748325 1.767321,-1.164063 2.828125,-1.164063 z m 0,3.970703 c -1.018315,0 -1.855469,0.837156 -1.855469,1.855469 0,1.018313 0.837154,1.853515 1.855469,1.853515 1.018313,0 1.853515,-0.835202 1.853515,-1.853515 0,-1.018313 -0.835202,-1.855469 -1.853515,-1.855469 z m 0,1 c 0.47725,0 0.853515,0.378218 0.853515,0.855469 0,0.477251 -0.376265,0.853515 -0.853515,0.853515 -0.477253,0 -0.855469,-0.376264 -0.855469,-0.853515 0,-0.477251 0.378216,-0.855469 0.855469,-0.855469 z"
     id="path27" />
</svg>
