<?xml version="1.0" encoding="UTF-8" standalone="no"?>
<!-- Generator: Gravit.io -->

<svg
   style="isolation:isolate"
   viewBox="0 0 48 48"
   width="48pt"
   height="48pt"
   version="1.1"
   id="svg9"
   sodipodi:docname="mysql-workbench.svg"
   inkscape:version="1.1.2 (0a00cf5339, 2022-02-04)"
   xmlns:inkscape="http://www.inkscape.org/namespaces/inkscape"
   xmlns:sodipodi="http://sodipodi.sourceforge.net/DTD/sodipodi-0.dtd"
   xmlns:xlink="http://www.w3.org/1999/xlink"
   xmlns="http://www.w3.org/2000/svg"
   xmlns:svg="http://www.w3.org/2000/svg">
  <defs
     id="defs13">
    <linearGradient
       inkscape:collect="always"
       xlink:href="#_lgradient_23"
       id="linearGradient872"
       x1="-12.025727"
       y1="6.1170783"
       x2="-0.085100174"
       y2="6.1170783"
       gradientUnits="userSpaceOnUse"
       gradientTransform="matrix(3.8358211,0,0,3.8371386,-0.00544341,-0.00268054)" />
    <linearGradient
       id="_lgradient_1"
       x1="0.18336116"
       y1="0.24917752"
       x2="0.9027437"
       y2="0.90347725"
       gradientTransform="matrix(24.617266,0,0,24.816118,10.841288,10.089605)"
       gradientUnits="userSpaceOnUse">
      <stop
         offset="2.608695652173913%"
         stop-opacity="1"
         style="stop-color:rgb(179,255,171)"
         id="stop2-3" />
      <stop
         offset="98.69565217391305%"
         stop-opacity="1"
         style="stop-color:rgb(18,255,247)"
         id="stop4-6" />
    </linearGradient>
    <linearGradient
       inkscape:collect="always"
       xlink:href="#_lgradient_23"
       id="linearGradient15"
       x1="-9.6850061"
       y1="45.161198"
       x2="11.98815"
       y2="21.735205"
       gradientUnits="userSpaceOnUse"
       gradientTransform="matrix(1.1147442,0,0,1.1150348,-0.01237238,-3.3277956)" />
    <linearGradient
       inkscape:collect="always"
       xlink:href="#_lgradient_23"
       id="linearGradient1463"
       x1="13.523094"
       y1="23.999971"
       x2="34.477055"
       y2="23.999971"
       gradientUnits="userSpaceOnUse" />
  </defs>
  <sodipodi:namedview
     id="namedview11"
     pagecolor="#ffffff"
     bordercolor="#666666"
     borderopacity="1.0"
     inkscape:pageshadow="2"
     inkscape:pageopacity="0.0"
     inkscape:pagecheckerboard="0"
     inkscape:document-units="pt"
     showgrid="false"
     inkscape:zoom="10.21875"
     inkscape:cx="31.95107"
     inkscape:cy="32"
     inkscape:window-width="1600"
     inkscape:window-height="836"
     inkscape:window-x="0"
     inkscape:window-y="0"
     inkscape:window-maximized="1"
     inkscape:current-layer="svg9" />
  <linearGradient
     id="_lgradient_23"
     x1="0"
     y1="0.5"
     x2="0.9074880558539661"
     y2="0.9200778838291643"
     gradientTransform="matrix(40.08516,0,0,40.08516,3.9574268,3.9574172)"
     gradientUnits="userSpaceOnUse">
    <stop
       offset="0%"
       stop-opacity="1"
       style="stop-color:rgb(0,196,255)"
       id="stop2" />
    <stop
       offset="83.88839793817618%"
       stop-opacity="1"
       style="stop-color:rgb(0,114,255)"
       id="stop4" />
  </linearGradient>
  <rect
     x="-46.783188"
     y="1.2253767"
     height="45.80014"
     rx="6.1837621"
     shape-rendering="crispEdges"
     id="rect5-6-7-3"
     ry="6.8055277"
     transform="matrix(0.00524063,-0.99998627,0.99998801,0.00489691,0,0)"
     style="isolation:isolate;fill:#0098ff;fill-opacity:0.13470298;stroke:url(#linearGradient872);stroke-width:2.0301;stroke-miterlimit:4;stroke-dasharray:none;stroke-opacity:1"
     width="45.801998" />
  <rect
     x="-15.686804"
     y="17.260084"
     height="33.345856"
     rx="6.7920032"
     shape-rendering="crispEdges"
     id="rect5-6-6-6-6"
     style="isolation:isolate;fill:#0098ff;fill-opacity:0.13470298;stroke:url(#linearGradient15);stroke-width:1.67233;stroke-miterlimit:4;stroke-dasharray:none;stroke-opacity:1"
     ry="7.4743071"
     transform="matrix(0.72446484,-0.68931175,0.68622417,0.72739012,0,0)"
     width="33.338203" />
  <path
     style="color:#000000;fill:url(#linearGradient1463);fill-rule:evenodd;-inkscape-stroke:none"
     d="m 14.666016,13.398438 c -0.550908,-0.0122 -1.076555,0.210097 -1.363282,0.640625 -0.286727,0.430527 -0.334395,0.977264 -0.232421,1.578125 h 0.002 c 0.09089,0.533803 0.432307,1.02578 1.072265,1.841796 0.681902,0.870229 0.911375,1.269422 1.201172,2.074219 0.482911,1.336513 0.748909,1.878885 1.195313,2.353516 0.05675,0.06052 0.0766,0.08479 0.0957,0.107422 -0.007,-0.02026 -0.01876,0.08045 -0.111328,0.378906 -0.364376,1.178678 -0.433086,3.142354 -0.13086,4.289062 0.197159,0.747779 0.415587,1.315366 0.720703,1.742188 0.305117,0.426822 0.760714,0.714844 1.251953,0.714844 0.718279,0 1.23878,-0.604796 1.427735,-1.333985 0.271907,0.416534 0.628366,0.899518 0.943359,1.222656 0.380017,0.389956 0.821739,0.79522 1.1875,1.103516 0.182881,0.154148 0.344239,0.284412 0.482422,0.380859 0.06909,0.04822 0.128304,0.08628 0.207031,0.125 0.03936,0.01936 0.08049,0.04136 0.164063,0.05859 0.08326,0.01717 0.285638,0.05047 0.476562,-0.138672 h 0.002 c 0.0064,-0.0087 0.09734,-0.136069 0.09766,-0.136718 3.27e-4,-6.71e-4 0.03393,-0.08912 0.04102,-0.125 0.01417,-0.07175 0.0117,-0.119721 0.0078,-0.15625 -0.0078,-0.07306 -0.0205,-0.106959 -0.03125,-0.136719 -0.02149,-0.05952 -0.04159,-0.09214 -0.0625,-0.13086 -0.04182,-0.07743 -0.09285,-0.159464 -0.15625,-0.255859 -0.12681,-0.19279 -0.300471,-0.437475 -0.5,-0.701172 -0.346372,-0.458576 -1.091459,-1.662618 -1.585938,-2.583984 v -0.002 c -0.299509,-0.557023 -0.550572,-0.992242 -0.753906,-1.304688 -0.101667,-0.156222 -0.189447,-0.280014 -0.279297,-0.384765 -0.04492,-0.05238 -0.0898,-0.101213 -0.154297,-0.152344 -0.0645,-0.05113 -0.145029,-0.135112 -0.365234,-0.136719 -0.472804,-0.0032 -0.79482,0.335941 -1.011719,0.708984 -0.199982,0.343949 -0.340441,0.799806 -0.455078,1.31836 -0.04289,-0.136032 -0.08402,-0.222813 -0.126953,-0.404297 -0.177538,-0.751834 -0.08835,-1.883742 0.275391,-2.925781 0.09058,-0.259652 0.173356,-0.50816 0.234375,-0.705078 0.03051,-0.09846 0.05506,-0.182692 0.07422,-0.253907 0.0096,-0.03561 0.01824,-0.06847 0.02539,-0.101562 0.0072,-0.03309 0.01758,-0.04645 0.01758,-0.148438 0,-0.191183 -0.02966,-0.182352 -0.04492,-0.222656 -0.01526,-0.0403 -0.03185,-0.076 -0.05078,-0.117187 -0.03787,-0.08237 -0.08694,-0.180453 -0.146484,-0.294922 -0.119091,-0.228938 -0.280283,-0.521483 -0.457032,-0.828125 -0.329694,-0.57199 -0.73932,-1.441471 -0.865234,-1.808594 -0.372287,-1.089077 -0.614213,-1.522514 -1.361328,-2.445313 -0.174689,-0.215791 -0.167304,-0.246114 -0.251953,-0.388671 0.342239,0.08943 0.780749,0.213781 1.341797,0.597656 0.428174,0.293811 0.858296,0.356145 1.43164,0.388672 -0.184904,-0.01178 -0.408095,0.0078 -0.609375,0.173828 -0.206717,0.171189 -0.37931,0.451505 -0.341797,0.763672 0.03759,0.312832 0.260505,0.538415 0.496094,0.664062 h 0.002 c -0.06105,-0.03237 0.01016,0.01106 0.0625,0.08008 0.05234,0.06902 0.108238,0.164117 0.138672,0.236328 0.109396,0.260595 0.23915,0.479096 0.5,0.615235 0.26085,0.136139 0.660849,0.04629 0.84375,-0.144531 0.365802,-0.381643 0.364776,-0.869628 0.222656,-1.433594 -0.115507,-0.458764 -0.448233,-0.66607 -0.773437,-0.816406 -0.06635,-0.03067 -0.143147,-0.03631 -0.212891,-0.05859 0.412597,0.002 0.633489,0.01359 0.884766,0.111328 0.267933,0.104216 0.639146,0.332236 1.308594,0.78125 1.349202,0.904243 2.33726,1.735944 3.001953,2.505859 0.594409,0.689033 0.90191,1.255953 2.751953,5.117188 0.733329,1.53059 1.466324,2.397767 2.49414,2.759765 1.046532,0.369198 1.361684,0.567229 1.779297,0.828125 -0.07336,0.0095 -0.128485,0.02154 -0.195312,0.0293 h -0.002 c -0.457637,0.05402 -0.855754,0.172752 -1.177735,0.38086 -0.32198,0.208107 -0.591797,0.554379 -0.591797,0.972656 0,0.398461 0.189554,0.583393 0.392579,0.826172 0.203025,0.242779 0.470241,0.498453 0.785156,0.767578 0.629829,0.53825 1.450046,1.116817 2.285156,1.582031 0.384071,0.214281 0.759836,0.428264 1.056641,0.597656 0.296033,0.168953 0.535026,0.309632 0.560547,0.326172 h 0.002 c 0.101479,0.06641 0.189489,0.121239 0.291015,0.166016 0.102042,0.045 0.221292,0.119666 0.466797,0.05078 0.122753,-0.03444 0.261235,-0.139419 0.328125,-0.251953 0.06689,-0.112534 0.07906,-0.21027 0.08203,-0.285156 0.0059,-0.149772 -0.022,-0.241318 -0.05273,-0.34375 -0.254547,-0.849683 -1.02417,-1.524896 -2.824219,-2.804688 0.0285,-0.0029 0.03468,-0.0048 0.06445,-0.0078 0.530992,-0.05353 0.940683,-0.123876 1.265625,-0.236328 0.162472,-0.05623 0.305653,-0.119747 0.44336,-0.234375 0.137707,-0.114629 0.277344,-0.324352 0.277344,-0.558594 0,-0.204233 -0.05287,-0.242892 -0.08398,-0.300781 -0.03112,-0.05789 -0.06293,-0.106419 -0.09961,-0.158203 -0.07335,-0.103569 -0.164705,-0.218212 -0.275391,-0.347657 -0.221371,-0.258889 -0.516547,-0.574043 -0.841797,-0.896484 -1.00262,-0.994334 -1.440086,-1.313487 -2.550781,-1.863281 -1.43746,-0.711692 -1.797066,-1.100545 -2.115234,-2.25 -0.546598,-1.976311 -1.9664,-4.194629 -3.845703,-6.089844 -1.935626,-1.951499 -3.82133,-3.083411 -5.646485,-3.265625 -0.638612,-0.06403 -0.856418,-0.134775 -1.130859,-0.324219 h -0.002 v -0.002 c -0.74172,-0.510938 -2.012644,-0.943652 -2.892578,-0.96289 z m -0.02149,1 c 0.453809,0.0099 1.912332,0.487233 2.347656,0.787109 0.41976,0.289755 0.893547,0.425296 1.59961,0.496094 0.16844,0.01682 0.368512,0.155054 0.542969,0.193359 -0.231421,-0.03412 -0.44495,-0.103516 -0.720704,-0.103516 -0.755939,0 -0.681571,0.02521 -1.136718,-0.287109 -0.80956,-0.553909 -1.570462,-0.929544 -2.265625,-0.933594 -0.210507,-0.0016 -0.433642,0.01875 -0.646485,0.19336 -0.212842,0.17461 -0.284387,0.496962 -0.248046,0.716797 0.05734,0.346889 0.308341,0.65634 0.574218,1.001953 -0.305605,-0.444275 -0.617375,-0.911539 -0.634765,-1.013672 -0.07568,-0.445907 -0.0089,-0.724805 0.07813,-0.855469 0.08702,-0.130664 0.197021,-0.202241 0.509765,-0.195312 z m 5.615235,1.876953 c 1.060148,0.475716 2.172223,1.176079 3.36914,2.382812 0.188843,0.190442 0.306033,0.408325 0.484375,0.605469 -0.731686,-0.786971 -1.630191,-1.579078 -2.890625,-2.423828 -0.434583,-0.291486 -0.676685,-0.405951 -0.96289,-0.564453 z m 4.380859,3.646484 c 1.216088,1.484701 2.208459,3.045024 2.580078,4.388672 0.368746,1.332178 1.094993,2.114606 2.634766,2.876953 0.380484,0.18834 0.570363,0.4442 0.810547,0.59375 -0.406818,-0.202967 -0.656009,-0.399163 -1.417969,-0.667969 h -0.002 c -0.71042,-0.250211 -1.235958,-0.814291 -1.923828,-2.25 -1.714821,-3.57901 -2.096706,-4.221039 -2.681641,-4.941406 z m -5.222656,5.544922 c 0.02273,0.03294 0.0328,0.0424 0.05859,0.08203 0.11543,0.177371 0.298643,0.510098 0.466797,0.808594 -0.07149,-0.04833 -0.153576,-0.105924 -0.298828,-0.103516 -0.176748,0.0029 -0.333252,0.10725 -0.402344,0.183594 -0.138182,0.152689 -0.138461,0.226684 -0.167968,0.304687 -0.07909,0.208927 -0.162895,0.509273 -0.216797,0.753907 v 0.002 c -0.10372,0.474744 -0.310899,0.621094 -0.490235,0.621094 -0.156499,0 -0.255804,-0.03802 -0.439453,-0.294922 -0.001,-0.0015 -0.0029,-0.0063 -0.0039,-0.0078 0.146004,0.03329 0.310778,0.06293 0.441406,0 0.168199,-0.08103 0.263468,-0.199512 0.335938,-0.314453 0.144939,-0.229881 0.219286,-0.490605 0.289062,-0.833984 0.103409,-0.50683 0.245841,-0.8995 0.376953,-1.125 0.04704,-0.08091 0.02232,-0.0451 0.05078,-0.07617 z m 13.357422,4.070312 c 0.04531,0.05083 0.117175,0.120319 0.15625,0.166016 0.01045,0.01222 0.01347,0.01748 0.02344,0.0293 -0.202198,0.05683 -0.469537,0.117709 -0.890625,0.160156 -0.356478,0.03606 -0.625144,0.06108 -0.839844,0.0957 -0.107349,0.01731 -0.199107,0.03416 -0.30664,0.07422 -0.107534,0.04006 -0.284144,0.1086 -0.38086,0.351562 -0.09671,0.242963 0.01118,0.473971 0.08594,0.576172 0.07476,0.102201 0.144929,0.160947 0.224609,0.226563 0.15936,0.131231 0.362355,0.269884 0.628906,0.458984 0.193054,0.136947 0.100273,0.124259 0.265625,0.246094 -0.41291,-0.280557 -0.869294,-0.548659 -1.189453,-0.822266 -0.285793,-0.244238 -0.51878,-0.474325 -0.666015,-0.65039 -0.147236,-0.176066 -0.160156,-0.34291 -0.160157,-0.183594 0,-0.0063 -0.0063,-0.04165 0.134766,-0.132813 0.141048,-0.09116 0.406976,-0.187792 0.751953,-0.228515 0.398136,-0.04623 0.895619,-0.119465 1.158203,-0.169922 z"
     id="path7" />
</svg>
