<?xml version="1.0" encoding="UTF-8" standalone="no"?>
<!-- Generator: Gravit.io -->

<svg
   style="isolation:isolate"
   viewBox="0 0 48 48"
   width="48pt"
   height="48pt"
   version="1.1"
   id="svg23"
   sodipodi:docname="net.davidotek.pupgui2.svg"
   inkscape:version="1.1.2 (0a00cf5339, 2022-02-04)"
   xmlns:inkscape="http://www.inkscape.org/namespaces/inkscape"
   xmlns:sodipodi="http://sodipodi.sourceforge.net/DTD/sodipodi-0.dtd"
   xmlns:xlink="http://www.w3.org/1999/xlink"
   xmlns="http://www.w3.org/2000/svg"
   xmlns:svg="http://www.w3.org/2000/svg">
  <defs
     id="defs27">
    <linearGradient
       inkscape:collect="always"
       xlink:href="#_lgradient_5"
       id="linearGradient872"
       x1="-12.025727"
       y1="6.1170783"
       x2="-0.085100174"
       y2="6.1170783"
       gradientUnits="userSpaceOnUse"
       gradientTransform="matrix(3.8358211,0,0,3.8371386,-0.00544341,-0.00268054)" />
    <linearGradient
       id="_lgradient_1"
       x1="0.18336116"
       y1="0.24917752"
       x2="0.9027437"
       y2="0.90347725"
       gradientTransform="matrix(24.617266,0,0,24.816118,10.841288,10.089605)"
       gradientUnits="userSpaceOnUse">
      <stop
         offset="2.608695652173913%"
         stop-opacity="1"
         style="stop-color:rgb(179,255,171)"
         id="stop2-3" />
      <stop
         offset="98.69565217391305%"
         stop-opacity="1"
         style="stop-color:rgb(18,255,247)"
         id="stop4-6" />
    </linearGradient>
    <linearGradient
       inkscape:collect="always"
       xlink:href="#_lgradient_5"
       id="linearGradient15"
       x1="-9.6850061"
       y1="45.161198"
       x2="11.98815"
       y2="21.735205"
       gradientUnits="userSpaceOnUse"
       gradientTransform="matrix(1.1147442,0,0,1.1150348,-0.01237238,-3.3277956)" />
    <linearGradient
       inkscape:collect="always"
       xlink:href="#_lgradient_6"
       id="linearGradient1160"
       gradientUnits="userSpaceOnUse"
       x1="8.0002499"
       y1="25"
       x2="39.999748"
       y2="25"
       gradientTransform="scale(1.3333333)" />
    <linearGradient
       inkscape:collect="always"
       xlink:href="#_lgradient_7"
       id="linearGradient1169"
       x1="18.290001"
       y1="29"
       x2="29.709999"
       y2="29"
       gradientUnits="userSpaceOnUse" />
  </defs>
  <sodipodi:namedview
     id="namedview25"
     pagecolor="#ffffff"
     bordercolor="#666666"
     borderopacity="1.0"
     inkscape:pageshadow="2"
     inkscape:pageopacity="0.0"
     inkscape:pagecheckerboard="0"
     inkscape:document-units="pt"
     showgrid="false"
     inkscape:zoom="10.21875"
     inkscape:cx="31.95107"
     inkscape:cy="32"
     inkscape:window-width="1600"
     inkscape:window-height="836"
     inkscape:window-x="0"
     inkscape:window-y="0"
     inkscape:window-maximized="1"
     inkscape:current-layer="svg23" />
  <linearGradient
     id="_lgradient_5"
     x1="0.1210937547124441"
     y1="0.7434301292487404"
     x2="0.9712616817307096"
     y2="0.03492874770806487"
     gradientTransform="matrix(48,0,0,46.985,0,0.508)"
     gradientUnits="userSpaceOnUse">
    <stop
       offset="0%"
       stop-opacity="1"
       style="stop-color:rgb(211,0,220)"
       id="stop2" />
    <stop
       offset="100%"
       stop-opacity="1"
       style="stop-color:rgb(135,0,255)"
       id="stop4" />
  </linearGradient>
  <rect
     x="-46.783188"
     y="1.2253767"
     height="45.80014"
     rx="6.1837621"
     shape-rendering="crispEdges"
     id="rect5-6-7-3"
     ry="6.8055277"
     transform="matrix(0.00524063,-0.99998627,0.99998801,0.00489691,0,0)"
     style="isolation:isolate;fill:#8800ff;fill-opacity:0.13470298;stroke:url(#linearGradient872);stroke-width:2.0301;stroke-miterlimit:4;stroke-dasharray:none;stroke-opacity:1"
     width="45.801998" />
  <rect
     x="-15.686804"
     y="17.260084"
     height="33.345856"
     rx="6.7920032"
     shape-rendering="crispEdges"
     id="rect5-6-6-6-6"
     style="isolation:isolate;fill:#8800ff;fill-opacity:0.13470298;stroke:url(#linearGradient15);stroke-width:1.67233;stroke-miterlimit:4;stroke-dasharray:none;stroke-opacity:1"
     ry="7.4743071"
     transform="matrix(0.72446484,-0.68931175,0.68622417,0.72739012,0,0)"
     width="33.338203" />
  <linearGradient
     id="_lgradient_6"
     x1="0.031182562838213412"
     y1="0.10866627890091946"
     x2="0.9583795358695032"
     y2="0.9751947012019755"
     gradientTransform="matrix(31.999,0,0,32,8,9)"
     gradientUnits="userSpaceOnUse">
    <stop
       offset="0%"
       stop-opacity="1"
       style="stop-color:rgb(165,248,106)"
       id="stop9" />
    <stop
       offset="97.91666666666666%"
       stop-opacity="1"
       style="stop-color:rgb(47,206,146)"
       id="stop11" />
  </linearGradient>
  <path
     style="color:#000000;fill:url(#linearGradient1160);-inkscape-stroke:none"
     d="m 32,11.333984 c -0.883552,0 -1.730752,0.351846 -2.355469,0.976563 L 10.976563,30.976562 c -1.2961716,1.29617 -1.2961716,3.416721 0,4.712891 1.296169,1.29617 3.41672,1.29617 4.71289,0 L 28.667969,22.710937 V 37.0625 l 1.998047,2 2.667968,-2.666016 1.998047,1.998047 V 22.710937 l 12.978516,12.978516 c 1.29617,1.29617 3.416721,1.29617 4.71289,0 1.296172,-1.29617 1.296172,-3.416721 0,-4.712891 L 34.355469,12.310547 C 33.730752,11.68583 32.883552,11.333984 32,11.333984 Z m 0,1.332032 c 0.52978,0 1.03878,0.210655 1.414062,0.585937 l 18.667969,18.666016 c 0.786495,0.786494 0.786495,2.043584 0,2.830078 -0.786494,0.786494 -2.043584,0.786494 -2.830078,0 L 34,19.494141 v 15.68164 L 33.333984,34.509766 30.666016,37.175781 30,36.511719 V 19.494141 L 14.748047,34.748047 c -0.786494,0.786494 -2.043584,0.786494 -2.830078,0 -0.786495,-0.786494 -0.786495,-2.043584 0,-2.830078 L 30.585937,13.251953 C 30.96122,12.876671 31.47022,12.666016 32,12.666016 Z m 1.333984,25.603515 -0.470703,0.472656 -2.197265,2.195313 -1.998047,-1.998047 V 52 c 0,1.833114 1.498917,3.332031 3.332031,3.332031 1.833114,0 3.332031,-1.498917 3.332031,-3.332031 V 40.269531 Z m 0,1.884766 L 34,40.820312 V 52 c 0,1.113549 -0.886451,2 -2,2 -1.113549,0 -2,-0.886451 -2,-2 v -9.841797 l 0.666016,0.666016 z"
     id="path1156"
     transform="scale(0.75)" />
  <linearGradient
     id="_lgradient_7"
     x1="0"
     y1="0.5"
     x2="1"
     y2="0.5"
     gradientTransform="matrix(11.42,0,0,4.82,18.29,26.59)"
     gradientUnits="userSpaceOnUse">
    <stop
       offset="0%"
       stop-opacity="1"
       style="stop-color:rgb(255,224,49)"
       id="stop16" />
    <stop
       offset="100%"
       stop-opacity="1"
       style="stop-color:rgb(250,0,117)"
       id="stop18" />
  </linearGradient>
  <path
     style="color:#000000;fill:url(#linearGradient1169);-inkscape-stroke:none"
     d="m 21,25.882812 -3.417969,3.40625 2.128906,2.128907 0.353516,-0.355469 0.9375,-0.943359 L 23,32.117187 l 2,-2 2,2 3.417969,-3.40625 -2.128907,-2.128906 -1.291015,1.298828 L 25,25.882812 l -2,2 z m 0,1.414063 2,2 2,-2 2.001953,2.001953 1.289063,-1.300781 0.710937,0.710937 L 27,30.703125 l -2,-2 -2,2 -2.001953,-2.001953 -1.289063,1.300781 -0.710937,-0.710937 z"
     id="path1154" />
</svg>
