<?xml version="1.0" encoding="UTF-8" standalone="no"?>
<!-- Generator: Gravit.io -->

<svg
   style="isolation:isolate"
   viewBox="0 0 48 48"
   width="48pt"
   height="48pt"
   version="1.1"
   id="svg23"
   sodipodi:docname="nmap.svg"
   inkscape:version="1.1.2 (0a00cf5339, 2022-02-04)"
   xmlns:inkscape="http://www.inkscape.org/namespaces/inkscape"
   xmlns:sodipodi="http://sodipodi.sourceforge.net/DTD/sodipodi-0.dtd"
   xmlns:xlink="http://www.w3.org/1999/xlink"
   xmlns="http://www.w3.org/2000/svg"
   xmlns:svg="http://www.w3.org/2000/svg">
  <defs
     id="defs27">
    <linearGradient
       inkscape:collect="always"
       xlink:href="#_lgradient_6"
       id="linearGradient872"
       x1="-12.025727"
       y1="6.1170783"
       x2="-0.085100174"
       y2="6.1170783"
       gradientUnits="userSpaceOnUse"
       gradientTransform="matrix(3.8358211,0,0,3.8371386,-0.00544341,-0.00268054)" />
    <linearGradient
       id="_lgradient_1"
       x1="0.18336116"
       y1="0.24917752"
       x2="0.9027437"
       y2="0.90347725"
       gradientTransform="matrix(24.617266,0,0,24.816118,10.841288,10.089605)"
       gradientUnits="userSpaceOnUse">
      <stop
         offset="2.608695652173913%"
         stop-opacity="1"
         style="stop-color:rgb(179,255,171)"
         id="stop2-3" />
      <stop
         offset="98.69565217391305%"
         stop-opacity="1"
         style="stop-color:rgb(18,255,247)"
         id="stop4-6" />
    </linearGradient>
    <linearGradient
       inkscape:collect="always"
       xlink:href="#_lgradient_6"
       id="linearGradient15"
       x1="-9.6850061"
       y1="45.161198"
       x2="11.98815"
       y2="21.735205"
       gradientUnits="userSpaceOnUse"
       gradientTransform="matrix(1.1147442,0,0,1.1150348,-0.01237238,-3.3277956)" />
    <linearGradient
       inkscape:collect="always"
       xlink:href="#_lgradient_6"
       id="linearGradient1205"
       x1="6.8828602"
       y1="24"
       x2="41.117142"
       y2="24"
       gradientUnits="userSpaceOnUse" />
    <linearGradient
       inkscape:collect="always"
       xlink:href="#_lgradient_6"
       id="linearGradient1235"
       x1="16"
       y1="24"
       x2="32"
       y2="24"
       gradientUnits="userSpaceOnUse" />
  </defs>
  <sodipodi:namedview
     id="namedview25"
     pagecolor="#ffffff"
     bordercolor="#666666"
     borderopacity="1.0"
     inkscape:pageshadow="2"
     inkscape:pageopacity="0.0"
     inkscape:pagecheckerboard="0"
     inkscape:document-units="pt"
     showgrid="false"
     inkscape:zoom="10.21875"
     inkscape:cx="31.95107"
     inkscape:cy="32"
     inkscape:window-width="1600"
     inkscape:window-height="836"
     inkscape:window-x="0"
     inkscape:window-y="0"
     inkscape:window-maximized="1"
     inkscape:current-layer="svg23" />
  <linearGradient
     id="_lgradient_4"
     x1="0"
     y1="0.5"
     x2="1"
     y2="0.5">
    <stop
       offset="0%"
       stop-opacity="1"
       style="stop-color:rgb(178,254,250)"
       id="stop2" />
    <stop
       offset="98.26086956521739%"
       stop-opacity="1"
       style="stop-color:rgb(14,210,247)"
       id="stop4" />
  </linearGradient>
  <rect
     x="-46.783188"
     y="1.2253767"
     height="45.80014"
     rx="6.1837621"
     shape-rendering="crispEdges"
     id="rect5-6-7-3"
     ry="6.8055277"
     transform="matrix(0.00524063,-0.99998627,0.99998801,0.00489691,0,0)"
     style="isolation:isolate;fill:#00ffc3;fill-opacity:0.134703;stroke:url(#linearGradient872);stroke-width:2.0301;stroke-miterlimit:4;stroke-dasharray:none;stroke-opacity:1"
     width="45.801998" />
  <rect
     x="-15.686804"
     y="17.260084"
     height="33.345856"
     rx="6.7920032"
     shape-rendering="crispEdges"
     id="rect5-6-6-6-6"
     style="isolation:isolate;fill:#00ffc3;fill-opacity:0.134703;stroke:url(#linearGradient15);stroke-width:1.67233;stroke-miterlimit:4;stroke-dasharray:none;stroke-opacity:1"
     ry="7.4743071"
     transform="matrix(0.72446484,-0.68931175,0.68622417,0.72739012,0,0)"
     width="33.338203" />
  <path
     style="color:#000000;vector-effect:non-scaling-stroke;fill:url(#_lgradient_4);stroke-linecap:square;stroke-miterlimit:3;-inkscape-stroke:none"
     d="m 24,19.876953 c -2.270664,0 -4.123047,1.852383 -4.123047,4.123047 0,2.270664 1.852383,4.123047 4.123047,4.123047 2.270664,0 4.123047,-1.852383 4.123047,-4.123047 0,-2.270664 -1.852383,-4.123047 -4.123047,-4.123047 z m 0,1 c 1.729332,0 3.123047,1.393715 3.123047,3.123047 0,1.729332 -1.393715,3.123047 -3.123047,3.123047 -1.729332,0 -3.123047,-1.393715 -3.123047,-3.123047 0,-1.729332 1.393715,-3.123047 3.123047,-3.123047 z"
     id="path7" />
  <linearGradient
     id="_lgradient_5"
     x1="0"
     y1="0.5"
     x2="1"
     y2="0.5"
     gradientTransform="matrix(48,0,0,48,0,0)"
     gradientUnits="userSpaceOnUse">
    <stop
       offset="0%"
       stop-opacity="1"
       style="stop-color:rgb(178,254,250)"
       id="stop9" />
    <stop
       offset="98.26086956521739%"
       stop-opacity="1"
       style="stop-color:rgb(14,210,247)"
       id="stop11" />
  </linearGradient>
  <path
     style="color:#000000;fill:url(#linearGradient1205);fill-rule:evenodd;-inkscape-stroke:none"
     d="m 23.955078,12.357422 c -1.906366,0.02864 -3.809874,0.298947 -5.673828,0.78125 -1.596775,0.416729 -3.139286,1.078022 -4.591797,1.951172 v -0.002 c -1.369129,0.818591 -2.622486,1.837184 -3.7480467,3.02539 -1.5368412,1.627063 -2.8048762,3.476989 -3.2734376,4.466797 -0.396458,0.836681 -0.4063217,1.942218 -0.025391,2.785156 0.4757201,1.051709 1.7565727,2.971824 3.3164063,4.669922 h 0.00195 v 0.002 c 1.1270725,1.216458 2.4061855,2.262123 3.7890625,3.082032 1.457299,0.876028 3.015838,1.508672 4.623047,1.896484 1.860021,0.455787 3.767214,0.654527 5.671875,0.626953 1.906366,-0.02864 3.809874,-0.298947 5.673828,-0.78125 1.596775,-0.416729 3.139286,-1.078022 4.591797,-1.951172 v 0.002 c 1.369129,-0.818591 2.622486,-1.837184 3.748047,-3.02539 1.536841,-1.627063 2.804876,-3.476989 3.273437,-4.466797 0.396458,-0.836681 0.406322,-1.942218 0.02539,-2.785156 -0.47572,-1.051709 -1.756573,-2.971824 -3.316406,-4.669922 h -0.002 v -0.002 C 36.91199,16.746433 35.632877,15.700768 34.25,14.880859 l -0.0039,-0.002 c -1.456205,-0.87484 -3.013333,-1.507057 -4.619141,-1.894531 h -0.002 c -1.85942,-0.455458 -3.765909,-0.654518 -5.669922,-0.626953 z m 0.01563,1 c 1.825335,-0.02643 3.645994,0.163444 5.417969,0.597656 h 0.002 v 0.002 c 1.510171,0.364224 2.973579,0.957597 4.34375,1.78125 h 0.002 c 1.295731,0.767769 2.502418,1.753819 3.568359,2.904297 1.485604,1.617619 2.762458,3.568254 3.140625,4.404297 0.211069,0.46706 0.201964,1.481995 -0.01758,1.945312 -0.367437,0.776191 -1.634547,2.660098 -3.095703,4.207032 -1.066437,1.125791 -2.248288,2.084108 -3.535156,2.853515 h -0.002 c -1.375486,0.826849 -2.828903,1.448574 -4.328125,1.839844 -1.792042,0.463696 -3.61587,0.722637 -5.4375,0.75 -1.825335,0.02643 -3.645994,-0.163444 -5.417969,-0.597656 h -0.002 v -0.002 c -1.510171,-0.364224 -2.973579,-0.957597 -4.34375,-1.78125 h -0.002 C 12.967941,31.49395 11.761254,30.5079 10.695313,29.357422 9.2097088,27.739803 7.9328554,25.789168 7.5546875,24.953125 7.3436192,24.486065 7.3527243,23.47113 7.5722656,23.007812 c 0.3674378,-0.77619 1.6345472,-2.660097 3.0957034,-4.207031 1.066437,-1.125791 2.248288,-2.084108 3.535156,-2.853515 h 0.002 c 1.375486,-0.826849 2.828903,-1.448574 4.328125,-1.839844 1.792042,-0.463696 3.61587,-0.722637 5.4375,-0.75 z m 0.05664,4.572265 c -1.563353,0.02872 -3.125478,0.242366 -4.650391,0.642579 h -0.002 c -1.188706,0.31844 -2.342399,0.795546 -3.419922,1.447265 -0.989725,0.594414 -1.88981,1.321792 -2.710937,2.1875 -0.458765,0.480837 -0.872454,0.997764 -1.267578,1.519531 l -0.21875,0.28711 0.205078,0.296875 c 0.418545,0.609077 0.872761,1.156978 1.347656,1.671875 0.798896,0.868592 1.701144,1.610658 2.693359,2.207031 h 0.002 l 0.002,0.002 c 1.054762,0.624311 2.195487,1.086307 3.363282,1.376953 l 0.002,0.002 h 0.0039 c 1.51389,0.357176 3.054332,0.528811 4.595703,0.5 1.563353,-0.02872 3.125478,-0.242365 4.650391,-0.642578 h 0.002 c 1.18813,-0.318286 2.340895,-0.79603 3.417969,-1.447265 0.990234,-0.594557 1.891405,-1.321414 2.71289,-2.1875 0.458765,-0.480837 0.872454,-0.997764 1.267578,-1.519532 l 0.21875,-0.287109 -0.205078,-0.296875 C 35.618564,23.080376 35.164348,22.532475 34.689453,22.017578 33.890557,21.148986 32.988309,20.40692 31.996094,19.810547 h -0.002 l -0.002,-0.002 c -1.054761,-0.624311 -2.195486,-1.086307 -3.363281,-1.376953 l -0.002,-0.002 h -0.0039 c -1.51389,-0.357175 -3.054332,-0.52881 -4.595703,-0.5 z m 0.01953,1 c 1.45398,-0.02718 2.910215,0.13414 4.345703,0.472657 6.38e-4,1.5e-4 0.0013,-1.51e-4 0.002,0 1.07214,0.267447 2.120441,0.694947 3.087891,1.267578 0.906865,0.545387 1.734235,1.224673 2.470703,2.02539 0.3674,0.398348 0.7004,0.829153 1.025391,1.271485 -0.307582,0.39472 -0.613358,0.788885 -0.945313,1.136719 h -0.002 v 0.002 c -0.762513,0.803912 -1.59019,1.470136 -2.501953,2.017578 h -0.002 v 0.002 c -0.991735,0.599832 -2.055792,1.040381 -3.158203,1.335937 -1.447084,0.379787 -2.931372,0.582099 -4.416016,0.609375 -1.45398,0.02718 -2.910215,-0.134139 -4.345703,-0.472656 h -0.002 c -1.071322,-0.267243 -2.119101,-0.693654 -3.085938,-1.265625 l -0.002,-0.002 c -0.906865,-0.545387 -1.734235,-1.224673 -2.470703,-2.025391 -0.3674,-0.398347 -0.7004,-0.829152 -1.025391,-1.271484 0.307582,-0.39472 0.613358,-0.788885 0.945313,-1.136719 h 0.002 v -0.002 c 0.762513,-0.803912 1.59019,-1.470136 2.501953,-2.017578 h 0.002 v -0.002 c 0.991735,-0.599832 2.055792,-1.040381 3.158203,-1.335938 1.447084,-0.379786 2.931372,-0.582098 4.416016,-0.609375 z"
     id="path14" />
  <linearGradient
     id="_lgradient_6"
     x1="0"
     y1="0.5"
     x2="1"
     y2="0.5"
     gradientTransform="matrix(16,0,0,12,16,18)"
     gradientUnits="userSpaceOnUse">
    <stop
       offset="0%"
       stop-opacity="1"
       style="stop-color:rgb(178,254,250)"
       id="stop16" />
    <stop
       offset="98.26086956521739%"
       stop-opacity="1"
       style="stop-color:rgb(14,210,247)"
       id="stop18" />
  </linearGradient>
  <path
     style="color:#000000;fill:url(#linearGradient1235);fill-rule:evenodd;-inkscape-stroke:none"
     d="m 23.150391,17.75 v 5.400391 H 15.75 v 1.699218 h 7.400391 V 30.25 h 1.699218 V 24.849609 H 32.25 V 23.150391 H 24.849609 V 17.75 Z m 0.5,0.5 h 0.699218 v 5.400391 h 0.25 H 31.75 v 0.699218 H 24.349609 V 29.75 H 23.650391 V 24.349609 H 16.25 v -0.699218 h 7.400391 z"
     id="path21" />
</svg>
