<?xml version="1.0" encoding="UTF-8" standalone="no"?>
<!-- Generator: Gravit.io -->

<svg
   style="isolation:isolate"
   viewBox="0 0 48 48"
   width="48pt"
   height="48pt"
   version="1.1"
   id="svg9"
   sodipodi:docname="noisetorch.svg"
   inkscape:version="1.1.2 (0a00cf5339, 2022-02-04)"
   xmlns:inkscape="http://www.inkscape.org/namespaces/inkscape"
   xmlns:sodipodi="http://sodipodi.sourceforge.net/DTD/sodipodi-0.dtd"
   xmlns:xlink="http://www.w3.org/1999/xlink"
   xmlns="http://www.w3.org/2000/svg"
   xmlns:svg="http://www.w3.org/2000/svg">
  <defs
     id="defs13">
    <linearGradient
       inkscape:collect="always"
       xlink:href="#_lgradient_14"
       id="linearGradient872"
       x1="-12.025727"
       y1="6.1170783"
       x2="-0.085100174"
       y2="6.1170783"
       gradientUnits="userSpaceOnUse"
       gradientTransform="matrix(3.8358211,0,0,3.8371386,-0.00544341,-0.00268054)" />
    <linearGradient
       id="_lgradient_1"
       x1="0.18336116"
       y1="0.24917752"
       x2="0.9027437"
       y2="0.90347725"
       gradientTransform="matrix(24.617266,0,0,24.816118,10.841288,10.089605)"
       gradientUnits="userSpaceOnUse">
      <stop
         offset="2.608695652173913%"
         stop-opacity="1"
         style="stop-color:rgb(179,255,171)"
         id="stop2-3" />
      <stop
         offset="98.69565217391305%"
         stop-opacity="1"
         style="stop-color:rgb(18,255,247)"
         id="stop4-6" />
    </linearGradient>
    <linearGradient
       inkscape:collect="always"
       xlink:href="#_lgradient_14"
       id="linearGradient15"
       x1="-9.6850061"
       y1="45.161198"
       x2="11.98815"
       y2="21.735205"
       gradientUnits="userSpaceOnUse"
       gradientTransform="matrix(1.1147442,0,0,1.1150348,-0.01237238,-3.3277956)" />
    <linearGradient
       inkscape:collect="always"
       xlink:href="#_lgradient_14"
       id="linearGradient1192"
       x1="10.469201"
       y1="24.5"
       x2="37.531174"
       y2="24.5"
       gradientUnits="userSpaceOnUse" />
  </defs>
  <sodipodi:namedview
     id="namedview11"
     pagecolor="#ffffff"
     bordercolor="#666666"
     borderopacity="1.0"
     inkscape:pageshadow="2"
     inkscape:pageopacity="0.0"
     inkscape:pagecheckerboard="0"
     inkscape:document-units="pt"
     showgrid="false"
     inkscape:zoom="5.109375"
     inkscape:cx="32"
     inkscape:cy="32"
     inkscape:window-width="1056"
     inkscape:window-height="545"
     inkscape:window-x="354"
     inkscape:window-y="185"
     inkscape:window-maximized="0"
     inkscape:current-layer="svg9" />
  <linearGradient
     id="_lgradient_14"
     x1="0"
     y1="0.5"
     x2="0.5232511281487233"
     y2="0.9680851063829785"
     gradientTransform="matrix(27.0617,0,0,29.579067,10.46922,9.7104664)"
     gradientUnits="userSpaceOnUse">
    <stop
       offset="0%"
       stop-opacity="1"
       style="stop-color:rgb(0,255,169)"
       id="stop2" />
    <stop
       offset="100%"
       stop-opacity="1"
       style="stop-color:rgb(240,116,179)"
       id="stop4" />
  </linearGradient>
  <rect
     x="-46.783188"
     y="1.2253767"
     height="45.80014"
     rx="6.1837621"
     shape-rendering="crispEdges"
     id="rect5-6-7-3"
     ry="6.8055277"
     transform="matrix(0.00524063,-0.99998627,0.99998801,0.00489691,0,0)"
     style="isolation:isolate;fill:#ff00cd;fill-opacity:0.13470298;stroke:url(#linearGradient872);stroke-width:2.0301;stroke-miterlimit:4;stroke-dasharray:none;stroke-opacity:1"
     width="45.801998" />
  <rect
     x="-15.686804"
     y="17.260084"
     height="33.345856"
     rx="6.7920032"
     shape-rendering="crispEdges"
     id="rect5-6-6-6-6"
     style="isolation:isolate;fill:#ff00cd;fill-opacity:0.13470298;stroke:url(#linearGradient15);stroke-width:1.67233;stroke-miterlimit:4;stroke-dasharray:none;stroke-opacity:1"
     ry="7.4743071"
     transform="matrix(0.72446484,-0.68931175,0.68622417,0.72739012,0,0)"
     width="33.338203" />
  <path
     style="color:#000000;fill:url(#linearGradient1192);fill-rule:evenodd;-inkscape-stroke:none"
     d="m 23.125,9.2109375 c -2.070405,0 -4.054044,0.8196675 -5.519531,2.2851565 -1.465489,1.465487 -2.28711,3.451079 -2.28711,5.521484 v 6.783203 c 0,2.070405 0.821621,4.055997 2.28711,5.521485 1.465487,1.465487 3.449125,2.285156 5.519531,2.285156 h 1.75 c 2.070406,0 4.054044,-0.819669 5.519531,-2.285156 1.465489,-1.465488 2.28711,-3.45108 2.28711,-5.521485 v -6.783203 c 0,-2.070405 -0.821621,-4.055997 -2.28711,-5.521484 C 28.929044,10.030605 26.945405,9.2109375 24.875,9.2109375 Z m 0,1.0000005 h 1.75 c 1.806337,0 3.53406,0.713746 4.8125,1.992187 1.278441,1.27844 1.994141,3.008117 1.994141,4.814453 v 6.783203 c 0,1.806336 -0.7157,3.536014 -1.994141,4.814453 -1.27844,1.27844 -3.006164,1.992188 -4.8125,1.992188 h -1.75 c -1.806336,0 -3.53406,-0.713748 -4.8125,-1.992188 -1.278441,-1.278439 -1.994141,-3.008117 -1.994141,-4.814453 v -6.783203 c 0,-1.806336 0.7157,-3.536013 1.994141,-4.814453 1.27844,-1.278441 3.006163,-1.992188 4.8125,-1.992187 z m 0,1.517578 c -1.403282,0 -2.745196,0.555743 -3.738281,1.548828 -0.993085,0.993085 -1.550781,2.336952 -1.550782,3.740234 v 6.783203 c 0,1.403282 0.557697,2.747149 1.550782,3.740235 0.993085,0.993085 2.334999,1.548828 3.738281,1.548828 h 1.75 c 1.403282,0 2.747149,-0.555743 3.740234,-1.548828 0.993086,-0.993086 1.548828,-2.336953 1.548828,-3.740235 v -6.783203 c 0,-1.403282 -0.555742,-2.747149 -1.548828,-3.740234 C 27.622149,12.284259 26.278282,11.728516 24.875,11.728516 Z m 0,1 h 1.75 c 1.139256,0 2.224419,0.449028 3.03125,1.255859 0.806831,0.806831 1.257812,1.893947 1.257812,3.033203 v 6.783203 c 0,1.139256 -0.450981,2.226372 -1.257812,3.033203 -0.806831,0.806831 -1.891994,1.25586 -3.03125,1.25586 h -1.75 c -1.139256,0 -2.224419,-0.449029 -3.03125,-1.25586 -0.806831,-0.806831 -1.257813,-1.893947 -1.257813,-3.033203 v -6.783203 c 0,-1.139256 0.450982,-2.226372 1.257813,-3.033203 0.806831,-0.806831 1.891994,-1.255859 3.03125,-1.255859 z m -11.40625,9.697265 c -0.964408,0.0052 -1.7542109,0.802852 -1.75,1.767578 0.00661,1.640082 0.403344,3.260755 1.164063,4.722657 0.756041,1.44634 1.808114,2.72006 3.074218,3.75 v 0.002 c 1.322244,1.068217 2.821431,1.902911 4.431641,2.457031 1.166635,0.400581 2.381764,0.614247 3.603515,0.744141 v 1.033203 h -2.154296 c -0.617928,0 -1.128907,0.510979 -1.128907,1.128906 v 0.628906 c 0,0.617928 0.510979,1.128907 1.128907,1.128906 h 3.617187 0.589844 3.617187 c 0.617928,0 1.128907,-0.510978 1.128907,-1.128906 V 38.03125 c 0,-0.617927 -0.510979,-1.128906 -1.128907,-1.128906 h -2.154297 v -2.941407 c 0,-0.802799 -0.660091,-1.464843 -1.46289,-1.464843 h -0.320313 c -1.423632,0 -2.84074,-0.236752 -4.191406,-0.703125 h -0.002 c -1.220285,-0.414777 -2.352475,-1.047367 -3.359375,-1.861328 -0.895756,-0.723723 -1.632107,-1.625314 -2.173828,-2.648438 -0.497094,-0.953252 -0.755838,-2.02064 -0.761719,-3.107422 -0.0052,-0.965056 -0.801977,-1.755281 -1.767578,-1.75 z m 8.646484,0.195313 c -0.617927,0 -1.128906,0.510978 -1.128906,1.128906 v 0.628906 c 0,0.617928 0.510978,1.13086 1.128906,1.13086 h 7.269532 c 0.617928,0 1.128906,-0.512933 1.128906,-1.13086 V 23.75 c 0,-0.617927 -0.510979,-1.128906 -1.128906,-1.128906 z m 15.947266,0 c -0.964301,-0.02452 -1.774371,0.750433 -1.798828,1.714843 -0.02365,0.790795 -0.182696,1.569831 -0.46875,2.300782 -0.300306,0.753706 -0.725984,1.457268 -1.246094,2.078125 -0.5681,0.675741 -1.224597,1.268659 -1.955078,1.765625 -0.789193,0.53617 -1.645555,0.968741 -2.541016,1.28125 v 0.002 h -0.002 c -0.910813,0.323108 -1.394178,1.335769 -1.070312,2.246094 0.323269,0.908649 1.333408,1.392299 2.242187,1.068359 1.184732,-0.41677 2.304881,-0.982825 3.339844,-1.685547 l 0.002,-0.002 c 1.000653,-0.673953 1.905083,-1.485083 2.683594,-2.414063 v -0.002 c 0.756023,-0.907227 1.374709,-1.933172 1.810547,-3.035156 0.4503,-1.125752 0.689624,-2.311409 0.722656,-3.513672 v -0.002 -0.002 c 0.01922,-0.964647 -0.754922,-1.776272 -1.71875,-1.800781 z m -24.587891,0.804687 c 0.423984,-0.0023 0.759412,0.331329 0.761719,0.75586 0.0067,1.24178 0.302215,2.466051 0.875,3.564453 l 0.002,0.002 c 0.603561,1.140794 1.425551,2.151602 2.429688,2.96289 1.094406,0.8847 2.330194,1.573618 3.664062,2.027344 1.456198,0.502812 2.983308,0.757813 4.517578,0.757813 h 0.320313 c 0.260786,0 0.46289,0.204056 0.46289,0.464843 v 3.941407 h 3.154297 c 0.07687,0 0.128907,0.05204 0.128907,0.128906 v 0.628906 c 0,0.07687 -0.05204,0.128907 -0.128907,0.128906 h -3.617187 -0.589844 -3.617187 c -0.07687,0 -0.128907,-0.05204 -0.128907,-0.128906 V 38.03125 c 0,-0.07687 0.05204,-0.128906 0.128907,-0.128906 h 3.154296 v -0.5 -2.400391 l -0.46289,-0.03516 c -1.298607,-0.100597 -2.579,-0.364852 -3.814453,-0.789063 -1.498195,-0.515572 -2.8944,-1.291605 -4.126953,-2.287109 -1.162758,-0.945869 -2.126967,-2.113341 -2.81836,-3.435547 v -0.002 c -0.686212,-1.319359 -1.04481,-2.782832 -1.050781,-4.263672 -0.0023,-0.423983 0.331329,-0.761365 0.755859,-0.763672 z m 8.640625,0.195313 h 7.269532 c 0.07687,0 0.128906,0.05204 0.128906,0.128906 v 0.628906 c 0,0.07686 -0.05204,0.13086 -0.128906,0.13086 h -7.269532 c -0.07686,0 -0.128906,-0.054 -0.128906,-0.13086 V 23.75 c 0,-0.07687 0.05204,-0.128906 0.128906,-0.128906 z m 15.921875,0 c 0.421983,0.01073 0.752609,0.356312 0.744141,0.78125 -0.03031,1.087202 -0.245268,2.153207 -0.650391,3.166015 v 0.002 c -0.39484,0.999066 -0.959502,1.934607 -1.65039,2.763672 -0.718727,0.857641 -1.552346,1.606331 -2.476563,2.228516 v 0.002 c -0.965252,0.655644 -2.010605,1.181872 -3.115234,1.570313 v 0.002 h -0.002 c -0.397732,0.141774 -0.822402,-0.06056 -0.964844,-0.460938 -0.141847,-0.398706 0.0609,-0.828097 0.462891,-0.970703 0.979066,-0.341936 1.910578,-0.81292 2.769531,-1.396484 l 0.002,-0.002 c 0.805112,-0.54774 1.530557,-1.200696 2.158203,-1.947266 0.58704,-0.700445 1.06874,-1.494676 1.410156,-2.351563 v -0.002 l 0.002,-0.002 c 0.329582,-0.84077 0.510251,-1.734153 0.53711,-2.640625 v -0.002 c 0.01078,-0.425174 0.35193,-0.750953 0.773437,-0.740234 z"
     id="path7" />
</svg>
