<?xml version="1.0" encoding="UTF-8" standalone="no"?>
<!-- Generator: Gravit.io -->

<svg
   style="isolation:isolate"
   viewBox="0 0 48 48"
   width="48pt"
   height="48pt"
   version="1.1"
   id="svg9"
   sodipodi:docname="notepadqq.svg"
   inkscape:version="1.1.2 (0a00cf5339, 2022-02-04)"
   xmlns:inkscape="http://www.inkscape.org/namespaces/inkscape"
   xmlns:sodipodi="http://sodipodi.sourceforge.net/DTD/sodipodi-0.dtd"
   xmlns:xlink="http://www.w3.org/1999/xlink"
   xmlns="http://www.w3.org/2000/svg"
   xmlns:svg="http://www.w3.org/2000/svg">
  <defs
     id="defs13">
    <linearGradient
       inkscape:collect="always"
       xlink:href="#_lgradient_53"
       id="linearGradient872"
       x1="-12.025727"
       y1="6.1170783"
       x2="-0.085100174"
       y2="6.1170783"
       gradientUnits="userSpaceOnUse"
       gradientTransform="matrix(3.8358211,0,0,3.8371386,-0.00544341,-0.00268054)" />
    <linearGradient
       id="_lgradient_1"
       x1="0.18336116"
       y1="0.24917752"
       x2="0.9027437"
       y2="0.90347725"
       gradientTransform="matrix(24.617266,0,0,24.816118,10.841288,10.089605)"
       gradientUnits="userSpaceOnUse">
      <stop
         offset="2.608695652173913%"
         stop-opacity="1"
         style="stop-color:rgb(179,255,171)"
         id="stop2-3" />
      <stop
         offset="98.69565217391305%"
         stop-opacity="1"
         style="stop-color:rgb(18,255,247)"
         id="stop4-6" />
    </linearGradient>
    <linearGradient
       inkscape:collect="always"
       xlink:href="#_lgradient_53"
       id="linearGradient15"
       x1="-9.6850061"
       y1="45.161198"
       x2="11.98815"
       y2="21.735205"
       gradientUnits="userSpaceOnUse"
       gradientTransform="matrix(1.1147442,0,0,1.1150348,-0.01237238,-3.3277956)" />
    <linearGradient
       inkscape:collect="always"
       xlink:href="#_lgradient_53"
       id="linearGradient950"
       x1="34.426224"
       y1="23.511024"
       x2="14.387684"
       y2="22.820454"
       gradientUnits="userSpaceOnUse" />
  </defs>
  <sodipodi:namedview
     id="namedview11"
     pagecolor="#ffffff"
     bordercolor="#666666"
     borderopacity="1.0"
     inkscape:pageshadow="2"
     inkscape:pageopacity="0.0"
     inkscape:pagecheckerboard="0"
     inkscape:document-units="pt"
     showgrid="false"
     inkscape:zoom="10.21875"
     inkscape:cx="31.95107"
     inkscape:cy="33.859327"
     inkscape:window-width="1600"
     inkscape:window-height="836"
     inkscape:window-x="0"
     inkscape:window-y="0"
     inkscape:window-maximized="1"
     inkscape:current-layer="svg9" />
  <linearGradient
     id="_lgradient_53"
     x1="0.9941176470588236"
     y1="0.4801559760374085"
     x2="0.00018059855521146417"
     y2="0.45213064394988733"
     gradientTransform="matrix(20.160775,0,0,24.640949,14.384043,11.679525)"
     gradientUnits="userSpaceOnUse">
    <stop
       offset="0%"
       stop-opacity="1"
       style="stop-color:rgb(17,153,142)"
       id="stop2" />
    <stop
       offset="99.1304347826087%"
       stop-opacity="1"
       style="stop-color:rgb(56,239,125)"
       id="stop4" />
  </linearGradient>
  <rect
     x="-46.783188"
     y="1.2253767"
     height="45.80014"
     rx="6.1837621"
     shape-rendering="crispEdges"
     id="rect5-6-7-3"
     ry="6.8055277"
     transform="matrix(0.00524063,-0.99998627,0.99998801,0.00489691,0,0)"
     style="isolation:isolate;fill:#00ff94;fill-opacity:0.13470298;stroke:url(#linearGradient872);stroke-width:2.0301;stroke-miterlimit:4;stroke-dasharray:none;stroke-opacity:1"
     width="45.801998" />
  <rect
     x="-15.686804"
     y="17.260084"
     height="33.345856"
     rx="6.7920032"
     shape-rendering="crispEdges"
     id="rect5-6-6-6-6"
     style="isolation:isolate;fill:#00ff94;fill-opacity:0.13470298;stroke:url(#linearGradient15);stroke-width:1.67233;stroke-miterlimit:4;stroke-dasharray:none;stroke-opacity:1"
     ry="7.4743071"
     transform="matrix(0.72446484,-0.68931175,0.68622417,0.72739012,0,0)"
     width="33.338203" />
  <path
     style="color:#000000;fill:url(#linearGradient950);fill-rule:evenodd;-inkscape-stroke:none"
     d="m 16.064453,11.179688 c -1.197926,0 -2.179687,0.981762 -2.179687,2.179687 v 2.800781 1.679688 12.320312 2.800781 1.679688 c 0,1.197925 0.981761,2.179687 2.179687,2.179687 H 30.625 c 2.434049,0 4.419922,-1.985873 4.419922,-4.419921 V 15.599609 c 0,-2.434048 -1.985873,-4.419921 -4.419922,-4.419921 z m 0,1 H 30.625 c 1.892674,0 3.419922,1.527248 3.419922,3.419921 v 16.800782 c 0,1.892673 -1.527248,3.419921 -3.419922,3.419921 H 16.064453 c -0.656864,0 -1.179687,-0.522824 -1.179687,-1.179687 V 32.960937 30.160156 17.839844 16.160156 13.359375 c 0,-0.656863 0.522823,-1.179687 1.179687,-1.179687 z m 0.06055,1.240234 v 2.740234 1.619141 h 12.259766 c 0.347733,0 0.61914,0.27336 0.61914,0.621094 0,0.347732 -0.271408,0.61914 -0.61914,0.61914 H 16.125 v 0.5 9.460938 h 12.259766 c 0.347732,0 0.61914,0.271408 0.61914,0.61914 0,0.347734 -0.271407,0.621094 -0.61914,0.621094 H 16.125 v 2.740234 1.619141 h 13.939453 c 1.507058,0 2.740235,-1.233177 2.740234,-2.740234 V 16.160156 c 0,-1.507057 -1.233176,-2.740234 -2.740234,-2.740234 z m 1,1 h 12.939453 c 0.965996,0 1.740235,0.77424 1.740234,1.740234 v 15.679688 c 0,0.965994 -0.774238,1.740234 -1.740234,1.740234 H 17.125 v -0.619141 -1.740234 h 11.259766 c 0.888793,0 1.61914,-0.732299 1.61914,-1.621094 0,-0.888794 -0.730346,-1.61914 -1.61914,-1.61914 H 17.125 v -7.960938 h 11.259766 c 0.888794,0 1.61914,-0.730346 1.61914,-1.61914 0,-0.888795 -0.730347,-1.621094 -1.61914,-1.621094 H 17.125 v -0.619141 z m 0.119141,6.839844 v 0.5 3.859375 h 1.560546 v -2.798829 h 0.619141 c 0.0419,0 0.06055,0.01865 0.06055,0.06055 v 2.738282 h 1.560547 v -2.738282 c 0,-0.446677 -0.209472,-0.836424 -0.498047,-1.125 -0.288575,-0.288575 -0.67637,-0.496093 -1.123047,-0.496093 z m 5.541015,0 c -0.888854,0 -1.621094,0.732239 -1.621094,1.621093 V 24 c 0,0.888854 0.73224,1.619141 1.621094,1.619141 h 0.619141 v 1.121093 h 1.560547 v -5.480468 z m 3.919922,0 c -0.888854,0 -1.621094,0.732239 -1.621094,1.621093 V 24 c 0,0.888854 0.73224,1.619141 1.621094,1.619141 h 0.619141 v 1.121093 h 1.560547 v -5.480468 z m -3.919922,1.560546 h 0.619141 v 1.240235 h -0.619141 c 0.03433,0 1.04e-4,-0.0014 -0.0293,-0.03125 -0.0294,-0.02985 -0.03125,-0.07043 -0.03125,-0.0293 v -1.119141 c 0,0.02666 9.07e-4,-0.0068 0.02734,-0.0332 0.02644,-0.02644 0.05986,-0.02734 0.0332,-0.02734 z m 3.919922,0 h 0.619141 v 1.240235 h -0.619141 c 0.03433,0 1.04e-4,-0.0014 -0.0293,-0.03125 -0.0294,-0.02985 -0.03125,-0.07043 -0.03125,-0.0293 v -1.119141 c 0,0.02666 0.0029,-0.0068 0.0293,-0.0332 0.02644,-0.02644 0.05791,-0.02734 0.03125,-0.02734 z"
     id="path7" />
</svg>
