<?xml version="1.0" encoding="UTF-8" standalone="no"?>
<svg
   width="48"
   height="48"
   viewBox="0 0 48 48"
   fill="none"
   version="1.1"
   id="svg18"
   sodipodi:docname="notion-desktop.svg"
   inkscape:version="1.1.2 (0a00cf5339, 2022-02-04)"
   xmlns:inkscape="http://www.inkscape.org/namespaces/inkscape"
   xmlns:sodipodi="http://sodipodi.sourceforge.net/DTD/sodipodi-0.dtd"
   xmlns:xlink="http://www.w3.org/1999/xlink"
   xmlns="http://www.w3.org/2000/svg"
   xmlns:svg="http://www.w3.org/2000/svg">
  <sodipodi:namedview
     id="namedview20"
     pagecolor="#ffffff"
     bordercolor="#666666"
     borderopacity="1.0"
     inkscape:pageshadow="2"
     inkscape:pageopacity="0.0"
     inkscape:pagecheckerboard="0"
     showgrid="false"
     inkscape:zoom="8.4387097"
     inkscape:cx="18.308486"
     inkscape:cy="20.737768"
     inkscape:window-width="1600"
     inkscape:window-height="836"
     inkscape:window-x="0"
     inkscape:window-y="0"
     inkscape:window-maximized="1"
     inkscape:current-layer="svg18" />
  <rect
     x="-46.788307"
     y="1.2202586"
     height="45.810375"
     rx="6.1851444"
     shape-rendering="crispEdges"
     id="rect5-6-7-3"
     ry="6.8070488"
     transform="matrix(0.00524063,-0.99998627,0.99998801,0.00489691,0,0)"
     style="isolation:isolate;fill:#6d7c92;fill-opacity:0.13470298;stroke:url(#linearGradient872);stroke-width:2.03055;stroke-miterlimit:4;stroke-dasharray:none;stroke-opacity:1"
     width="45.812237" />
  <rect
     x="-15.69053"
     y="17.256357"
     height="33.35331"
     rx="6.7935209"
     shape-rendering="crispEdges"
     id="rect5-6-6-6-6"
     style="isolation:isolate;fill:#6d7c92;fill-opacity:0.13470298;stroke:url(#linearGradient15);stroke-width:1.6727;stroke-miterlimit:4;stroke-dasharray:none;stroke-opacity:1"
     ry="7.4759774"
     transform="matrix(0.72446484,-0.68931175,0.68622417,0.72739012,0,0)"
     width="33.345654" />
  <g
     id="g861"
     transform="matrix(0.07859426,0,0,0.07859426,11.817889,11.817903)"
     style="fill:none;stroke:url(#linearGradient1217);stroke-width:12.7236">
    <path
       style="color:#000000;clip-rule:evenodd;fill:url(#linearGradient1217);fill-rule:evenodd;stroke:none;-inkscape-stroke:none"
       d="M 226.75391,3.1699219 23.966797,15.609375 C 15.133831,16.151259 8.1386719,23.589863 8.1386719,32.439453 V 223.41406 c 0,3.69914 1.2173565,7.29914 3.4628911,10.23828 l 50.878906,66.58594 c 3.438041,4.49924 8.927824,6.97813 14.576172,6.58203 L 286.17773,292.18555 c 8.77399,-0.61407 15.6836,-8.02505 15.6836,-16.82032 V 66.830078 c 0,-5.051922 -2.2712,-9.849034 -6.17969,-13.048828 L 238.4668,6.9511719 v 0.00195 c -3.28673,-2.6908714 -7.47359,-4.0432407 -11.71289,-3.7832 z m 0.77929,12.6992191 c 1.04269,-0.06396 2.06578,0.266812 2.87305,0.927734 h 0.002 l 57.21289,46.830078 c 0.96351,0.788802 1.51758,1.957853 1.51758,3.203125 V 275.36523 c 0,2.23273 -1.62161,3.97298 -3.84961,4.12891 L 76.166016,294.12695 c -1.395576,0.0979 -2.726563,-0.50123 -3.576172,-1.61328 v -0.002 L 21.710937,225.92773 h 0.002 c -0.552263,-0.72284 -0.851563,-1.60481 -0.851563,-2.51367 V 32.439453 c 0,-2.248998 1.639943,-3.993144 3.884766,-4.130859 z m -1.11328,8.361328 -191.570311,11.75 42.550782,39.777343 2.738281,-0.171875 L 274.23047,63.361328 Z M 222.2207,37.234375 241.11328,52.697266 82.080078,62.714844 65.128906,46.871094 Z M 280.86133,71.236328 80.015625,83.886719 V 285.5625 l 6.806641,-0.47656 194.039064,-13.57813 z M 268.13867,84.787109 V 259.64258 L 92.740234,271.91797 V 95.833984 Z"
       id="path2" />
    <path
       style="color:#000000;fill:url(#linearGradient1217);stroke:none;-inkscape-stroke:none"
       d="m 218.74414,98.292969 c -10.34167,0 -18.86133,8.519661 -18.86133,18.861331 0,8.76956 6.1508,16.1713 14.32031,18.23632 v 38.09961 l -44.16601,-59.86914 v -0.002 c -4.8937,-6.63295 -12.21199,-10.52403 -19.83789,-11.33594 -1.10459,-0.20149 -2.2367,-0.33789 -3.39844,-0.33789 h -29.18359 c -10.34179,0 -18.861331,8.51955 -18.861331,18.86133 0,10.34229 8.520161,18.86133 18.861331,18.86133 h 1.23242 v 85.29687 c -9.66189,0.76682 -17.4043,8.87006 -17.4043,18.71289 0,10.34168 8.51966,18.86133 18.86133,18.86133 h 34.57617 c 10.34117,0 18.86133,-8.51904 18.86133,-18.86133 0,-9.7632 -7.61895,-17.80731 -17.16992,-18.6875 v -34.06836 l 44.16601,59.86915 c 9.25407,12.5436 27.11559,15.24016 39.66016,5.98632 7.53331,-5.55761 11.56017,-14.22122 11.52539,-22.95312 V 135.0605 c 7.63055,-2.42055 13.26563,-9.52261 13.26563,-17.90625 0,-10.34167 -8.51966,-18.861331 -18.86133,-18.861331 z m 0,12.722661 h 27.58594 c 3.46631,0 6.13867,2.67235 6.13867,6.13867 0,3.46481 -2.67297,6.13867 -6.13867,6.13867 h -7.12696 v 110.56836 0.0137 c 0.0192,4.82409 -2.14673,9.55573 -6.35742,12.66211 -7.01101,5.17186 -16.69505,3.71052 -21.86718,-3.29883 v -0.002 l -67.12891,-90.9961 v 85.29883 h 11.0332 c 3.4642,0 6.13867,2.67447 6.13867,6.13867 0,3.4657 -2.67385,6.13868 -6.13867,6.13868 h -34.57617 c -3.46631,0 -6.13867,-2.67236 -6.13867,-6.13868 0,-3.46481 2.67297,-6.13867 6.13867,-6.13867 h 11.26758 V 126.94531 h -13.95703 c -3.46482,0 -6.13672,-2.67297 -6.13672,-6.13867 0,-3.4642 2.67252,-6.13867 6.13672,-6.13867 h 29.18359 c 0.4254,0 0.83361,0.0424 1.23438,0.12305 l 0.32421,0.0664 0.32813,0.0312 c 4.28293,0.40834 8.33717,2.52769 11.10937,6.28516 l 67.12891,90.99609 v -88.87695 h -8.18164 c -3.4657,0 -6.13672,-2.67386 -6.13672,-6.13867 0,-3.46632 2.67041,-6.13868 6.13672,-6.13867 z"
       id="path4" />
  </g>
  <defs
     id="defs16">
    <linearGradient
       id="paint0_linear"
       x1="241.12601"
       y1="66.357597"
       x2="9.9386902"
       y2="307.858"
       gradientUnits="userSpaceOnUse">
      <stop
         stop-color="#D7DDE8"
         id="stop6" />
      <stop
         offset="1"
         stop-color="#757F9A"
         id="stop8" />
    </linearGradient>
    <linearGradient
       id="paint1_linear"
       x1="241.12601"
       y1="66.357597"
       x2="9.9386902"
       y2="307.858"
       gradientUnits="userSpaceOnUse">
      <stop
         stop-color="#D7DDE8"
         id="stop11" />
      <stop
         offset="1"
         stop-color="#757F9A"
         id="stop13" />
    </linearGradient>
    <linearGradient
       inkscape:collect="always"
       xlink:href="#paint0_linear"
       id="linearGradient872"
       x1="-12.025727"
       y1="6.1170783"
       x2="-0.085100174"
       y2="6.1170783"
       gradientUnits="userSpaceOnUse"
       gradientTransform="matrix(3.8366785,0,0,3.8379962,-1.0591751e-4,-0.00807312)" />
    <linearGradient
       id="_lgradient_1"
       x1="0.18336116"
       y1="0.24917752"
       x2="0.9027437"
       y2="0.90347725"
       gradientTransform="matrix(24.617266,0,0,24.816118,10.841288,10.089605)"
       gradientUnits="userSpaceOnUse">
      <stop
         offset="2.608695652173913%"
         stop-opacity="1"
         style="stop-color:rgb(179,255,171)"
         id="stop2" />
      <stop
         offset="98.69565217391305%"
         stop-opacity="1"
         style="stop-color:rgb(18,255,247)"
         id="stop4" />
    </linearGradient>
    <linearGradient
       inkscape:collect="always"
       xlink:href="#paint0_linear"
       id="linearGradient15"
       x1="-9.6850061"
       y1="45.161198"
       x2="11.98815"
       y2="21.735205"
       gradientUnits="userSpaceOnUse"
       gradientTransform="matrix(1.1149933,0,0,1.115284,-0.0125952,-3.3361236)" />
    <linearGradient
       inkscape:collect="always"
       xlink:href="#paint0_linear"
       id="linearGradient1217"
       x1="14.5"
       y1="154.99988"
       x2="295.5"
       y2="154.99988"
       gradientUnits="userSpaceOnUse" />
  </defs>
</svg>
