<?xml version="1.0" encoding="UTF-8" standalone="no"?>
<!-- Generator: Gravit.io -->

<svg
   style="isolation:isolate"
   viewBox="0 0 48 48"
   width="48pt"
   height="48pt"
   version="1.1"
   id="svg16"
   sodipodi:docname="nut-monitor.svg"
   inkscape:version="1.1.2 (0a00cf5339, 2022-02-04)"
   xmlns:inkscape="http://www.inkscape.org/namespaces/inkscape"
   xmlns:sodipodi="http://sodipodi.sourceforge.net/DTD/sodipodi-0.dtd"
   xmlns:xlink="http://www.w3.org/1999/xlink"
   xmlns="http://www.w3.org/2000/svg"
   xmlns:svg="http://www.w3.org/2000/svg">
  <defs
     id="defs20">
    <linearGradient
       inkscape:collect="always"
       xlink:href="#_lgradient_23"
       id="linearGradient872"
       x1="-12.025727"
       y1="6.1170783"
       x2="-0.085100174"
       y2="6.1170783"
       gradientUnits="userSpaceOnUse"
       gradientTransform="matrix(3.8358211,0,0,3.8371386,-0.00544341,-0.00268054)" />
    <linearGradient
       id="_lgradient_1"
       x1="0.18336116"
       y1="0.24917752"
       x2="0.9027437"
       y2="0.90347725"
       gradientTransform="matrix(24.617266,0,0,24.816118,10.841288,10.089605)"
       gradientUnits="userSpaceOnUse">
      <stop
         offset="2.608695652173913%"
         stop-opacity="1"
         style="stop-color:rgb(179,255,171)"
         id="stop2-3" />
      <stop
         offset="98.69565217391305%"
         stop-opacity="1"
         style="stop-color:rgb(18,255,247)"
         id="stop4-6" />
    </linearGradient>
    <linearGradient
       inkscape:collect="always"
       xlink:href="#_lgradient_23"
       id="linearGradient15"
       x1="-9.6850061"
       y1="45.161198"
       x2="11.98815"
       y2="21.735205"
       gradientUnits="userSpaceOnUse"
       gradientTransform="matrix(1.1147442,0,0,1.1150348,-0.01237238,-3.3277956)" />
    <linearGradient
       inkscape:collect="always"
       xlink:href="#_lgradient_23"
       id="linearGradient980"
       x1="17.591797"
       y1="21.554688"
       x2="46.408203"
       y2="21.554688"
       gradientUnits="userSpaceOnUse" />
    <linearGradient
       inkscape:collect="always"
       xlink:href="#_lgradient_22"
       id="linearGradient1006"
       x1="13.194204"
       y1="28.472631"
       x2="34.805798"
       y2="28.472631"
       gradientUnits="userSpaceOnUse" />
  </defs>
  <sodipodi:namedview
     id="namedview18"
     pagecolor="#ffffff"
     bordercolor="#666666"
     borderopacity="1.0"
     inkscape:pageshadow="2"
     inkscape:pageopacity="0.0"
     inkscape:pagecheckerboard="0"
     inkscape:document-units="pt"
     showgrid="false"
     inkscape:zoom="10.21875"
     inkscape:cx="31.95107"
     inkscape:cy="32"
     inkscape:window-width="1600"
     inkscape:window-height="836"
     inkscape:window-x="0"
     inkscape:window-y="0"
     inkscape:window-maximized="1"
     inkscape:current-layer="svg16" />
  <linearGradient
     id="_lgradient_22"
     x1="0"
     y1="0.5"
     x2="1"
     y2="0.5"
     gradientTransform="matrix(21.611592,0,0,13.207084,13.194204,21.869089)"
     gradientUnits="userSpaceOnUse">
    <stop
       offset="0%"
       stop-opacity="1"
       style="stop-color:rgb(117,127,154)"
       id="stop2" />
    <stop
       offset="98.69565217391305%"
       stop-opacity="1"
       style="stop-color:rgb(215,221,232)"
       id="stop4" />
  </linearGradient>
  <rect
     x="-46.783188"
     y="1.2253767"
     height="45.80014"
     rx="6.1837621"
     shape-rendering="crispEdges"
     id="rect5-6-7-3"
     ry="6.8055277"
     transform="matrix(0.00524063,-0.99998627,0.99998801,0.00489691,0,0)"
     style="isolation:isolate;fill:#ffc400;fill-opacity:0.13470298;stroke:url(#linearGradient872);stroke-width:2.0301;stroke-miterlimit:4;stroke-dasharray:none;stroke-opacity:1"
     width="45.801998" />
  <rect
     x="-15.686804"
     y="17.260084"
     height="33.345856"
     rx="6.7920032"
     shape-rendering="crispEdges"
     id="rect5-6-6-6-6"
     style="isolation:isolate;fill:#ffc400;fill-opacity:0.13470298;stroke:url(#linearGradient15);stroke-width:1.67233;stroke-miterlimit:4;stroke-dasharray:none;stroke-opacity:1"
     ry="7.4743071"
     transform="matrix(0.72446484,-0.68931175,0.68622417,0.72739012,0,0)"
     width="33.338203" />
  <linearGradient
     id="_lgradient_23"
     x1="0"
     y1="0.5"
     x2="1"
     y2="0.5"
     gradientTransform="matrix(21.611592,0,0,13.807406,13.194204,9.2623269)"
     gradientUnits="userSpaceOnUse">
    <stop
       offset="0%"
       stop-opacity="1"
       style="stop-color:rgb(247,242,6)"
       id="stop9" />
    <stop
       offset="97.82608695652173%"
       stop-opacity="1"
       style="stop-color:rgb(255,187,36)"
       id="stop11" />
  </linearGradient>
  <path
     id="path14"
     style="fill:none;stroke-width:1.33333333;stroke:url(#linearGradient980);stroke-miterlimit:4;stroke-dasharray:none"
     d="M 27.197266 12.349609 C 26.313591 12.349609 25.595703 13.067497 25.595703 13.951172 L 25.595703 16.351562 L 20.794922 16.351562 C 19.027574 16.351563 17.591797 17.785386 17.591797 19.552734 L 17.591797 27.558594 L 17.591797 29.158203 L 20.794922 29.158203 L 20.794922 27.558594 L 20.794922 21.154297 C 20.794922 20.270622 21.510857 19.552734 22.394531 19.552734 L 41.605469 19.552734 C 42.489143 19.552734 43.205078 20.270622 43.205078 21.154297 L 43.205078 27.558594 L 43.205078 29.158203 L 46.408203 29.158203 L 46.408203 27.558594 L 46.408203 19.552734 C 46.408203 17.785386 44.972426 16.351562 43.205078 16.351562 L 38.404297 16.351562 L 38.404297 13.951172 C 38.404297 13.067497 37.686409 12.349609 36.802734 12.349609 L 27.197266 12.349609 z M 23.996094 27.558594 C 23.112419 27.558594 22.394531 28.27453 22.394531 29.158203 C 22.394531 30.041876 23.112419 30.759766 23.996094 30.759766 C 24.879767 30.759766 25.595703 30.041876 25.595703 29.158203 C 25.595703 28.27453 24.879767 27.558594 23.996094 27.558594 z M 28.798828 27.558594 C 27.915153 27.558594 27.197266 28.27453 27.197266 29.158203 C 27.197266 30.041876 27.915153 30.759766 28.798828 30.759766 L 35.201172 30.759766 C 36.084847 30.759766 36.802734 30.041876 36.802734 29.158203 C 36.802734 28.27453 36.084847 27.558594 35.201172 27.558594 L 28.798828 27.558594 z M 40.003906 27.558594 C 39.120233 27.558594 38.404297 28.27453 38.404297 29.158203 C 38.404297 30.041876 39.120233 30.759766 40.003906 30.759766 C 40.887581 30.759766 41.605469 30.041876 41.605469 29.158203 C 41.605469 28.27453 40.887581 27.558594 40.003906 27.558594 z "
     transform="scale(0.75)" />
  <path
     style="color:#000000;fill:url(#linearGradient1006);-inkscape-stroke:none"
     d="m 12.693359,21.369141 v 1.701171 9.605469 c 0,1.596041 1.306303,2.900391 2.902344,2.900391 h 16.808594 c 1.596041,0 2.902344,-1.30435 2.902344,-2.900391 v -9.605469 -1.701171 h -3.402344 v 1.701171 8.404297 c 0,0.392225 -0.308947,0.701172 -0.701172,0.701172 h -14.40625 c -0.392225,0 -0.701172,-0.308947 -0.701172,-0.701172 v -8.404297 -1.701171 z m 1,1 h 1.402344 v 0.701171 8.404297 c 0,0.933286 0.767886,1.701172 1.701172,1.701172 h 14.40625 c 0.933286,0 1.701172,-0.767886 1.701172,-1.701172 v -8.404297 -0.701171 h 1.402344 v 0.701171 9.605469 c 0,1.054979 -0.847366,1.900391 -1.902344,1.900391 H 15.595703 c -1.054978,0 -1.902344,-0.845412 -1.902344,-1.900391 v -9.605469 z"
     id="path7" />
</svg>
