<?xml version="1.0" encoding="UTF-8" standalone="no"?>
<!-- Generator: Gravit.io -->

<svg
   style="isolation:isolate"
   viewBox="0 0 48 48"
   width="48pt"
   height="48pt"
   version="1.1"
   id="svg16"
   sodipodi:docname="octave.svg"
   inkscape:version="1.1.2 (0a00cf5339, 2022-02-04)"
   xmlns:inkscape="http://www.inkscape.org/namespaces/inkscape"
   xmlns:sodipodi="http://sodipodi.sourceforge.net/DTD/sodipodi-0.dtd"
   xmlns:xlink="http://www.w3.org/1999/xlink"
   xmlns="http://www.w3.org/2000/svg"
   xmlns:svg="http://www.w3.org/2000/svg">
  <defs
     id="defs20">
    <linearGradient
       inkscape:collect="always"
       xlink:href="#_lgradient_20"
       id="linearGradient872"
       x1="-12.025727"
       y1="6.1170783"
       x2="-0.085100174"
       y2="6.1170783"
       gradientUnits="userSpaceOnUse"
       gradientTransform="matrix(3.8358211,0,0,3.8371386,-0.00544341,-0.00268054)" />
    <linearGradient
       id="_lgradient_1"
       x1="0.18336116"
       y1="0.24917752"
       x2="0.9027437"
       y2="0.90347725"
       gradientTransform="matrix(24.617266,0,0,24.816118,10.841288,10.089605)"
       gradientUnits="userSpaceOnUse">
      <stop
         offset="2.608695652173913%"
         stop-opacity="1"
         style="stop-color:rgb(179,255,171)"
         id="stop2-3" />
      <stop
         offset="98.69565217391305%"
         stop-opacity="1"
         style="stop-color:rgb(18,255,247)"
         id="stop4-6" />
    </linearGradient>
    <linearGradient
       inkscape:collect="always"
       xlink:href="#_lgradient_20"
       id="linearGradient15"
       x1="-9.6850061"
       y1="45.161198"
       x2="11.98815"
       y2="21.735205"
       gradientUnits="userSpaceOnUse"
       gradientTransform="matrix(1.1147442,0,0,1.1150348,-0.01237238,-3.3277956)" />
    <linearGradient
       inkscape:collect="always"
       xlink:href="#_lgradient_19"
       id="linearGradient921"
       x1="11.394916"
       y1="24.381306"
       x2="35.107674"
       y2="24.381306"
       gradientUnits="userSpaceOnUse"
       gradientTransform="scale(1.3333333)" />
    <linearGradient
       inkscape:collect="always"
       xlink:href="#_lgradient_20"
       id="linearGradient998"
       x1="8.0254564"
       y1="22.664997"
       x2="35.947063"
       y2="22.664997"
       gradientUnits="userSpaceOnUse" />
  </defs>
  <sodipodi:namedview
     id="namedview18"
     pagecolor="#ffffff"
     bordercolor="#666666"
     borderopacity="1.0"
     inkscape:pageshadow="2"
     inkscape:pageopacity="0.0"
     inkscape:pagecheckerboard="0"
     inkscape:document-units="pt"
     showgrid="false"
     inkscape:zoom="10.21875"
     inkscape:cx="31.95107"
     inkscape:cy="32"
     inkscape:window-width="1600"
     inkscape:window-height="836"
     inkscape:window-x="0"
     inkscape:window-y="0"
     inkscape:window-maximized="1"
     inkscape:current-layer="svg16" />
  <linearGradient
     id="_lgradient_19"
     x1="0"
     y1="0.5"
     x2="0.9074880558539661"
     y2="0.9200778838291643"
     gradientTransform="matrix(23.713007,0,0,24.412211,11.394665,12.175199)"
     gradientUnits="userSpaceOnUse">
    <stop
       offset="0%"
       stop-opacity="1"
       style="stop-color:rgb(0,196,255)"
       id="stop2" />
    <stop
       offset="83.88839793817618%"
       stop-opacity="1"
       style="stop-color:rgb(0,114,255)"
       id="stop4" />
  </linearGradient>
  <rect
     x="-46.783188"
     y="1.2253767"
     height="45.80014"
     rx="6.1837621"
     shape-rendering="crispEdges"
     id="rect5-6-7-3"
     ry="6.8055277"
     transform="matrix(0.00524063,-0.99998627,0.99998801,0.00489691,0,0)"
     style="isolation:isolate;fill:#ff6700;fill-opacity:0.13470298;stroke:url(#linearGradient872);stroke-width:2.0301;stroke-miterlimit:4;stroke-dasharray:none;stroke-opacity:1"
     width="45.801998" />
  <rect
     x="-15.686804"
     y="17.260084"
     height="33.345856"
     rx="6.7920032"
     shape-rendering="crispEdges"
     id="rect5-6-6-6-6"
     style="isolation:isolate;fill:#ff6700;fill-opacity:0.13470298;stroke:url(#linearGradient15);stroke-width:1.67233;stroke-miterlimit:4;stroke-dasharray:none;stroke-opacity:1"
     ry="7.4743071"
     transform="matrix(0.72446484,-0.68931175,0.68622417,0.72739012,0,0)"
     width="33.338203" />
  <path
     id="path7"
     style="color:#000000;fill:url(#linearGradient921);fill-rule:evenodd;stroke-width:1.33333;-inkscape-stroke:none"
     d="M 30.537109 15.568359 C 27.127883 15.568359 23.791979 16.59398 20.974609 18.521484 C 18.321113 20.337394 16.238497 22.86026 14.970703 25.804688 L 16.539062 25.804688 C 17.714023 23.335296 19.454715 21.177777 21.726562 19.623047 C 24.321322 17.84784 27.395623 16.900391 30.537109 16.900391 C 31.921609 16.900391 33.281582 17.14309 34.605469 17.527344 L 34.605469 17.251953 C 34.605469 16.84546 34.726033 16.46628 34.931641 16.148438 C 33.501854 15.766818 32.025938 15.568359 30.537109 15.568359 z M 30.537109 19.634766 C 27.950883 19.634766 25.409607 20.416828 23.273438 21.876953 C 21.774945 22.901211 20.55985 24.25747 19.634766 25.804688 L 21.154297 25.804688 C 21.938322 24.707123 22.904548 23.74464 24.025391 22.978516 C 25.937849 21.671302 28.219996 20.968749 30.537109 20.96875 C 31.72845 20.96875 33.350629 21.266355 34.638672 21.677734 C 34.618002 21.561538 34.605469 21.442404 34.605469 21.320312 L 34.605469 20.390625 C 33.280721 19.976054 31.816201 19.634766 30.537109 19.634766 z M 44.201172 25.576172 C 43.837966 25.57087 43.472984 25.645965 43.123047 25.8125 L 43.119141 25.8125 C 41.848377 26.417719 41.17728 27.864955 41.705078 29.111328 C 41.73384 29.245097 42.076172 30.864554 42.076172 32.507812 C 42.076172 32.91777 42.097536 33.527455 42.101562 34.035156 L 43.404297 34.035156 C 43.408166 33.460361 43.408203 32.839528 43.408203 32.507812 C 43.408203 30.599523 42.994141 28.773437 42.994141 28.773438 L 42.978516 28.701172 L 42.947266 28.632812 C 42.695452 28.102631 42.971277 27.362409 43.695312 27.017578 C 44.30991 26.725091 45.189316 27.082681 45.640625 27.966797 C 45.662585 28.06781 46.142578 30.246578 46.142578 32.507812 C 46.142578 33.023983 46.095587 33.533823 46.042969 34.042969 C 46.550827 34.079602 47.007171 34.300946 47.34375 34.642578 C 47.432262 33.933127 47.476562 33.219279 47.476562 32.507812 C 47.476562 29.999723 46.931641 27.572266 46.931641 27.572266 L 46.916016 27.5 L 46.882812 27.431641 C 46.355325 26.324485 45.290789 25.592076 44.201172 25.576172 z M 19.335938 28.857422 L 19.541016 28.9375 L 19.572266 28.857422 L 19.335938 28.857422 z M 14.650391 38.611328 C 14.669776 38.668298 14.686208 38.724731 14.712891 38.783203 C 14.753277 38.87171 14.80041 38.96643 14.892578 39.070312 C 14.905911 39.085299 14.950557 39.093388 14.966797 39.109375 C 16.234814 42.109471 18.320208 44.701678 21.025391 46.529297 C 23.8313 48.434894 27.148595 49.451172 30.537109 49.451172 C 34.246271 49.451172 37.851701 48.206764 40.802734 45.962891 C 40.9914 45.871304 41.03911 45.803289 41.103516 45.736328 C 41.175556 45.661421 41.245618 45.581752 41.320312 45.490234 C 41.384583 45.41149 41.453547 45.31192 41.521484 45.222656 L 39.591797 45.222656 C 36.951263 47.097631 33.781816 48.117187 30.537109 48.117188 C 27.41524 48.117188 24.359897 47.179063 21.775391 45.423828 L 21.773438 45.423828 C 19.283369 43.741959 17.339899 41.372321 16.171875 38.611328 L 14.650391 38.611328 z M 19.277344 38.611328 C 20.244964 40.42379 21.599541 42.006627 23.314453 43.162109 C 25.439666 44.611119 27.962245 45.380859 30.537109 45.380859 C 32.896659 45.380859 35.174764 44.688895 37.167969 43.460938 C 37.155989 43.371713 37.146484 43.28194 37.146484 43.189453 L 37.146484 41.958984 C 35.216063 43.318382 32.911194 44.046875 30.537109 44.046875 C 28.228799 44.046875 25.96615 43.357159 24.064453 42.060547 L 24.064453 42.056641 L 24.0625 42.056641 C 22.722684 41.15419 21.600123 39.972794 20.75 38.611328 L 19.277344 38.611328 z "
     transform="scale(0.75)" />
  <linearGradient
     id="_lgradient_20"
     x1="0"
     y1="0.5"
     x2="1"
     y2="0.5"
     gradientTransform="matrix(27.921608,0,0,22.505398,8.0254567,11.41259)"
     gradientUnits="userSpaceOnUse">
    <stop
       offset="0%"
       stop-opacity="1"
       style="stop-color:rgb(255,224,49)"
       id="stop9" />
    <stop
       offset="98.69565217391305%"
       stop-opacity="1"
       style="stop-color:rgb(252,82,82)"
       id="stop11" />
  </linearGradient>
  <path
     style="color:#000000;fill:url(#linearGradient998);fill-rule:evenodd;-inkscape-stroke:none"
     d="m 27.478516,10.912109 c -1.11279,0 -2.025391,0.912603 -2.025391,2.025391 v 3.052734 c 0,1.112393 0.912602,2.025391 2.025391,2.025391 h 3.052734 c 1.112395,0 2.025391,-0.912998 2.025391,-2.025391 V 12.9375 c 0,-1.112788 -0.912996,-2.025391 -2.025391,-2.025391 z m 0,1 h 3.052734 c 0.571045,0 1.025391,0.453579 1.025391,1.025391 v 3.052734 c 0,0.571044 -0.454345,1.025391 -1.025391,1.025391 h -3.052734 c -0.571814,0 -1.025391,-0.454347 -1.025391,-1.025391 V 12.9375 c 0,-0.571812 0.453578,-1.025391 1.025391,-1.025391 z m 0.763671,0.525391 c -0.691408,0 -1.263671,0.572264 -1.263671,1.263672 v 1.525391 c 0,0.691408 0.571802,1.263671 1.263671,1.263671 h 1.525391 c 0.69187,0 1.263672,-0.571804 1.263672,-1.263671 v -1.525391 c 0,-0.691868 -0.572264,-1.263672 -1.263672,-1.263672 z m 0,1 h 1.525391 c 0.150893,0 0.263672,0.113239 0.263672,0.263672 v 1.525391 c 0,0.150433 -0.11324,0.263671 -0.263672,0.263671 h -1.525391 c -0.150431,0 -0.263671,-0.112778 -0.263671,-0.263671 v -1.525391 c 0,-0.150893 0.112778,-0.263672 0.263671,-0.263672 z m -17.546874,5.416016 c -0.9024442,0 -1.6445318,0.742726 -1.6445317,1.644531 0,0.902137 0.742088,1.644531 1.6445317,1.644531 h 4.195312 c 0.150893,0 0.263672,0.11324 0.263672,0.263672 v 3.501953 c 0,0.150433 -0.112778,0.261719 -0.263672,0.261719 h -3.814453 c -0.150894,0 -0.261719,-0.111286 -0.261719,-0.261719 V 25.144531 C 10.814453,24.242394 10.072058,23.5 9.1699219,23.5 c -0.9021364,0 -1.6445313,0.742394 -1.6445313,1.644531 v 2.289063 c 0,1.112393 0.9123711,2.02539 2.0253907,2.02539 h 6.8671877 c 1.113019,0 2.02539,-0.912997 2.02539,-2.02539 v -6.554688 c 0,-1.112789 -0.912601,-2.02539 -2.02539,-2.02539 z m 0,1 h 5.722656 c 0.571813,0 1.02539,0.453577 1.02539,1.02539 v 6.554688 c 0,0.571043 -0.453807,1.02539 -1.02539,1.02539 H 9.5507813 c -0.5715836,0 -1.0253907,-0.454347 -1.0253907,-1.02539 v -2.289063 c 0,-0.361316 0.2832161,-0.644531 0.6445313,-0.644531 0.3613153,0 0.6445312,0.283216 0.6445312,0.644531 v 0.763672 c 0,0.691869 0.5703119,1.261719 1.2617189,1.261719 h 3.814453 c 0.691407,0 1.263672,-0.569851 1.263672,-1.261719 V 22.40625 c 0,-0.691868 -0.572264,-1.263672 -1.263672,-1.263672 h -4.195312 c -0.361008,0 -0.644532,-0.283216 -0.644532,-0.644531 0,-0.360484 0.283524,-0.644531 0.644532,-0.644531 z m 19.376953,5.171875 c -0.902137,0 -1.644532,0.742088 -1.644532,1.644531 0,0.902444 0.742395,1.644531 1.644532,1.644531 h 2.822265 c 0.150433,0 0.263672,0.11324 0.263672,0.263672 v 2.287109 c 0,0.150433 -0.113239,0.263672 -0.263672,0.263672 h -1.982422 c -0.150432,0 -0.263672,-0.112779 -0.263672,-0.263672 v -0.228515 c 0,-0.902444 -0.740774,-1.644531 -1.642578,-1.644532 -0.902136,0 -1.646484,0.742087 -1.646484,1.644532 v 1.755859 c 0,1.113019 0.91495,2.025391 2.027344,2.025391 h 5.035156 c 1.112789,0 2.025391,-0.912602 2.025391,-2.025391 v -5.341797 c 0,-1.112788 -0.912602,-2.02539 -2.025391,-2.02539 z m 0,1 h 4.349609 c 0.571814,0 1.025391,0.453577 1.025391,1.02539 v 5.341797 c 0,0.571814 -0.453577,1.025391 -1.025391,1.025391 h -5.035156 c -0.571045,0 -1.027344,-0.453808 -1.027344,-1.025391 v -1.755859 c 0,-0.361009 0.285168,-0.644531 0.646484,-0.644532 0.360484,0 0.642579,0.283523 0.642578,0.644532 v 0.228515 c 0,0.691408 0.571804,1.263672 1.263672,1.263672 h 1.982422 c 0.691869,0 1.263672,-0.571803 1.263672,-1.263672 v -2.287109 c 0,-0.691869 -0.571803,-1.263672 -1.263672,-1.263672 h -2.822265 c -0.361314,0 -0.644532,-0.283523 -0.644532,-0.644531 0,-0.361006 0.283218,-0.644531 0.644532,-0.644531 z"
     id="path14" />
</svg>
