<?xml version="1.0" encoding="UTF-8" standalone="no"?>
<!-- Generator: Gravit.io -->

<svg
   style="isolation:isolate"
   viewBox="0 0 48 48"
   width="48pt"
   height="48pt"
   version="1.1"
   id="svg11"
   sodipodi:docname="odio.svg"
   inkscape:version="1.1.2 (0a00cf5339, 2022-02-04)"
   xmlns:inkscape="http://www.inkscape.org/namespaces/inkscape"
   xmlns:sodipodi="http://sodipodi.sourceforge.net/DTD/sodipodi-0.dtd"
   xmlns:xlink="http://www.w3.org/1999/xlink"
   xmlns="http://www.w3.org/2000/svg"
   xmlns:svg="http://www.w3.org/2000/svg">
  <defs
     id="defs15">
    <linearGradient
       inkscape:collect="always"
       xlink:href="#_lgradient_7"
       id="linearGradient872"
       x1="-12.025727"
       y1="6.1170783"
       x2="-0.085100174"
       y2="6.1170783"
       gradientUnits="userSpaceOnUse"
       gradientTransform="matrix(3.8358211,0,0,3.8371386,0.01768518,-0.02604361)" />
    <linearGradient
       id="_lgradient_1"
       x1="0.18336116"
       y1="0.24917752"
       x2="0.9027437"
       y2="0.90347725"
       gradientTransform="matrix(24.617266,0,0,24.816118,10.841288,10.089605)"
       gradientUnits="userSpaceOnUse">
      <stop
         offset="2.608695652173913%"
         stop-opacity="1"
         style="stop-color:rgb(179,255,171)"
         id="stop2-3" />
      <stop
         offset="98.69565217391305%"
         stop-opacity="1"
         style="stop-color:rgb(18,255,247)"
         id="stop4-6" />
    </linearGradient>
    <linearGradient
       inkscape:collect="always"
       xlink:href="#_lgradient_7"
       id="linearGradient15"
       x1="-9.6850061"
       y1="45.161198"
       x2="11.98815"
       y2="21.735205"
       gradientUnits="userSpaceOnUse"
       gradientTransform="matrix(1.1147442,0,0,1.1150348,-0.0133284,-3.3606551)" />
    <linearGradient
       inkscape:collect="always"
       xlink:href="#_lgradient_7"
       id="linearGradient1849"
       x1="11"
       y1="24"
       x2="37"
       y2="24"
       gradientUnits="userSpaceOnUse" />
  </defs>
  <sodipodi:namedview
     id="namedview13"
     pagecolor="#ffffff"
     bordercolor="#666666"
     borderopacity="1.0"
     inkscape:pageshadow="2"
     inkscape:pageopacity="0.0"
     inkscape:pagecheckerboard="0"
     inkscape:document-units="pt"
     showgrid="false"
     inkscape:zoom="5.109375"
     inkscape:cx="31.217125"
     inkscape:cy="47.070336"
     inkscape:window-width="1056"
     inkscape:window-height="545"
     inkscape:window-x="389"
     inkscape:window-y="84"
     inkscape:window-maximized="0"
     inkscape:current-layer="svg11" />
  <linearGradient
     id="_lgradient_7"
     x1="-0.014458464773922156"
     y1="0.009839246119734024"
     x2="1.0164565923220248"
     y2="1.0722930524759795"
     gradientTransform="matrix(47.058,0,0,46.985,0.495,0.559)"
     gradientUnits="userSpaceOnUse">
    <stop
       offset="1.3043478260869565%"
       stop-opacity="1"
       style="stop-color:rgb(254,172,94)"
       id="stop2" />
    <stop
       offset="53.04347826086957%"
       stop-opacity="1"
       style="stop-color:rgb(199,121,208)"
       id="stop4" />
    <stop
       offset="99.56521739130434%"
       stop-opacity="1"
       style="stop-color:rgb(75,192,200)"
       id="stop6" />
  </linearGradient>
  <rect
     x="-46.760059"
     y="1.2020136"
     height="45.80014"
     rx="6.1837621"
     shape-rendering="crispEdges"
     id="rect5-6-7-3"
     ry="6.8055277"
     transform="matrix(0.00524063,-0.99998627,0.99998801,0.00489691,0,0)"
     style="isolation:isolate;fill:#00ceff;fill-opacity:0.13470298;stroke:url(#linearGradient872);stroke-width:2.0301;stroke-miterlimit:4;stroke-dasharray:none;stroke-opacity:1"
     width="45.801998" />
  <rect
     x="-15.687759"
     y="17.227224"
     height="33.345856"
     rx="6.7920032"
     shape-rendering="crispEdges"
     id="rect5-6-6-6-6"
     style="isolation:isolate;fill:#00ceff;fill-opacity:0.13470298;stroke:url(#linearGradient15);stroke-width:1.67233;stroke-miterlimit:4;stroke-dasharray:none;stroke-opacity:1"
     ry="7.4743071"
     transform="matrix(0.72446484,-0.68931175,0.68622417,0.72739012,0,0)"
     width="33.338203" />
  <path
     style="color:#000000;fill:url(#linearGradient1849);fill-rule:evenodd;-inkscape-stroke:none"
     d="m 24,13.5 c -0.405802,0 -0.779552,0.167079 -1.054688,0.427734 l -0.0098,0.0078 -0.0078,0.0098 C 22.667079,14.220448 22.5,14.594198 22.5,15 v 18 c 0,0.405802 0.167079,0.779552 0.427734,1.054687 l 0.0078,0.0098 0.0098,0.0078 C 23.220448,34.332921 23.594198,34.5 24,34.5 c 0.405802,0 0.779552,-0.167079 1.054687,-0.427734 l 0.0098,-0.0078 0.0078,-0.0098 C 25.332921,33.779552 25.5,33.405802 25.5,33 V 15 c 0,-0.405802 -0.167079,-0.779552 -0.427734,-1.054687 l -0.0078,-0.0098 -0.0098,-0.0078 C 24.779552,13.667079 24.405802,13.5 24,13.5 Z m -8,1 c -0.405802,0 -0.779552,0.167079 -1.054687,0.427734 l -0.0098,0.0078 -0.0078,0.0098 C 14.667079,15.220448 14.5,15.594198 14.5,16 v 16 c 0,0.405802 0.167079,0.779552 0.427734,1.054687 l 0.0078,0.0098 0.0098,0.0078 C 15.220448,33.332921 15.594198,33.5 16,33.5 c 0.405802,0 0.779552,-0.167079 1.054687,-0.427734 l 0.0098,-0.0078 0.0078,-0.0098 C 17.332921,32.779552 17.5,32.405802 17.5,32 V 16 c 0,-0.405802 -0.167079,-0.779552 -0.427734,-1.054687 l -0.0078,-0.0098 -0.0098,-0.0078 C 16.779552,14.667079 16.405802,14.5 16,14.5 Z m 8,0 c 0.129765,0 0.250713,0.05335 0.353516,0.146484 C 24.44665,14.749287 24.5,14.870235 24.5,15 v 18 c 0,0.129765 -0.05335,0.250713 -0.146484,0.353516 C 24.250713,33.44665 24.129765,33.5 24,33.5 23.870235,33.5 23.749287,33.44665 23.646484,33.353516 23.55335,33.250713 23.5,33.129765 23.5,33 V 15 c 0,-0.129765 0.05335,-0.250713 0.146484,-0.353516 C 23.749287,14.55335 23.870235,14.5 24,14.5 Z m -8,1 c 0.129765,0 0.250713,0.05335 0.353516,0.146484 C 16.44665,15.749287 16.5,15.870235 16.5,16 v 16 c 0,0.129765 -0.05335,0.250713 -0.146484,0.353516 C 16.250713,32.44665 16.129765,32.5 16,32.5 15.870235,32.5 15.749287,32.44665 15.646484,32.353516 15.55335,32.250713 15.5,32.129765 15.5,32 V 16 c 0,-0.129765 0.05335,-0.250713 0.146484,-0.353516 C 15.749287,15.55335 15.870235,15.5 16,15.5 Z m 4,1 c -0.405802,0 -0.779552,0.167079 -1.054688,0.427734 l -0.0098,0.0078 -0.0078,0.0098 C 18.667079,17.220448 18.5,17.594198 18.5,18 v 12 c 0,0.405802 0.167079,0.779552 0.427734,1.054687 l 0.0078,0.0098 0.0098,0.0078 C 19.220448,31.332921 19.594198,31.5 20,31.5 c 0.405802,0 0.779552,-0.167079 1.054687,-0.427734 l 0.0098,-0.0078 0.0078,-0.0098 C 21.332921,30.779552 21.5,30.405802 21.5,30 V 18 c 0,-0.405802 -0.167079,-0.779552 -0.427734,-1.054688 l -0.0078,-0.0098 -0.0098,-0.0078 C 20.779552,16.667079 20.405802,16.5 20,16.5 Z m 16,0 c -0.405802,0 -0.779552,0.167079 -1.054688,0.427734 l -0.0098,0.0078 -0.0078,0.0098 C 34.667079,17.220448 34.5,17.594198 34.5,18 v 12 c 0,0.405802 0.167079,0.779552 0.427734,1.054687 l 0.0078,0.0098 0.0098,0.0078 C 35.220448,31.332921 35.594198,31.5 36,31.5 c 0.405802,0 0.779552,-0.167079 1.054687,-0.427734 l 0.0098,-0.0078 0.0078,-0.0098 C 37.332921,30.779552 37.5,30.405802 37.5,30 V 18 c 0,-0.405802 -0.167079,-0.779552 -0.427734,-1.054688 l -0.0078,-0.0098 -0.0098,-0.0078 C 36.779552,16.667079 36.405802,16.5 36,16.5 Z m -16,1 c 0.129765,0 0.250713,0.05335 0.353516,0.146484 C 20.44665,17.749287 20.5,17.870235 20.5,18 v 12 c 0,0.129765 -0.05335,0.250713 -0.146484,0.353516 C 20.250713,30.44665 20.129765,30.5 20,30.5 19.870235,30.5 19.749287,30.44665 19.646484,30.353516 19.55335,30.250713 19.5,30.129765 19.5,30 V 18 c 0,-0.129765 0.05335,-0.250713 0.146484,-0.353516 C 19.749287,17.55335 19.870235,17.5 20,17.5 Z m 8,0 c -0.405802,0 -0.779552,0.167079 -1.054688,0.427734 l -0.0098,0.0078 -0.0078,0.0098 C 26.667079,18.220448 26.5,18.594198 26.5,19 v 10 c 0,0.405802 0.167079,0.779552 0.427734,1.054687 l 0.0078,0.0098 0.0098,0.0078 C 27.220448,30.332921 27.594198,30.5 28,30.5 c 0.405802,0 0.779552,-0.167079 1.054687,-0.427734 l 0.0098,-0.0078 0.0078,-0.0098 C 29.332921,29.779552 29.5,29.405802 29.5,29 V 19 c 0,-0.405802 -0.167079,-0.779552 -0.427734,-1.054688 l -0.0078,-0.0098 -0.0098,-0.0078 C 28.779552,17.667079 28.405802,17.5 28,17.5 Z m 8,0 c 0.129765,0 0.250713,0.05335 0.353516,0.146484 C 36.44665,17.749287 36.5,17.870235 36.5,18 v 12 c 0,0.129765 -0.05335,0.250713 -0.146484,0.353516 C 36.250713,30.44665 36.129765,30.5 36,30.5 35.870235,30.5 35.749287,30.44665 35.646484,30.353516 35.55335,30.250713 35.5,30.129765 35.5,30 V 18 c 0,-0.129765 0.05335,-0.250713 0.146484,-0.353516 C 35.749287,17.55335 35.870235,17.5 36,17.5 Z m -8,1 c 0.129765,0 0.250713,0.05335 0.353516,0.146484 C 28.44665,18.749287 28.5,18.870235 28.5,19 v 10 c 0,0.129765 -0.05335,0.250713 -0.146484,0.353516 C 28.250713,29.44665 28.129765,29.5 28,29.5 27.870235,29.5 27.749287,29.44665 27.646484,29.353516 27.55335,29.250713 27.5,29.129765 27.5,29 V 19 c 0,-0.129765 0.05335,-0.250713 0.146484,-0.353516 C 27.749287,18.55335 27.870235,18.5 28,18.5 Z m -16,1 c -0.405802,0 -0.779552,0.167079 -1.054687,0.427734 l -0.0098,0.0078 -0.0078,0.0098 C 10.667079,20.220448 10.5,20.594198 10.5,21 v 6 c 0,0.405802 0.167079,0.779552 0.427734,1.054687 l 0.0078,0.0098 0.0098,0.0078 C 11.220448,28.332921 11.594198,28.5 12,28.5 c 0.405802,0 0.779552,-0.167079 1.054688,-0.427734 l 0.0098,-0.0078 0.0078,-0.0098 C 13.332921,27.779552 13.5,27.405802 13.5,27 v -6 c 0,-0.405802 -0.167079,-0.779552 -0.427734,-1.054688 l -0.0078,-0.0098 -0.0098,-0.0078 C 12.779552,19.667079 12.405802,19.5 12,19.5 Z m 20,0 c -0.405802,0 -0.779552,0.167079 -1.054688,0.427734 l -0.0098,0.0078 -0.0078,0.0098 C 30.667079,20.220448 30.5,20.594198 30.5,21 v 6 c 0,0.405802 0.167079,0.779552 0.427734,1.054687 l 0.0078,0.0098 0.0098,0.0078 C 31.220448,28.332921 31.594198,28.5 32,28.5 c 0.405802,0 0.779552,-0.167079 1.054687,-0.427734 l 0.0098,-0.0078 0.0078,-0.0098 C 33.332921,27.779552 33.5,27.405802 33.5,27 v -6 c 0,-0.405802 -0.167079,-0.779552 -0.427734,-1.054688 l -0.0078,-0.0098 -0.0098,-0.0078 C 32.779552,19.667079 32.405802,19.5 32,19.5 Z m -20,1 c 0.129765,0 0.250713,0.05335 0.353516,0.146484 C 12.44665,20.749287 12.5,20.870235 12.5,21 v 6 c 0,0.129765 -0.05335,0.250713 -0.146484,0.353516 C 12.250713,27.44665 12.129765,27.5 12,27.5 11.870235,27.5 11.749287,27.44665 11.646484,27.353516 11.55335,27.250713 11.5,27.129765 11.5,27 v -6 c 0,-0.129765 0.05335,-0.250713 0.146484,-0.353516 C 11.749287,20.55335 11.870235,20.5 12,20.5 Z m 20,0 c 0.129765,0 0.250713,0.05335 0.353516,0.146484 C 32.44665,20.749287 32.5,20.870235 32.5,21 v 6 c 0,0.129765 -0.05335,0.250713 -0.146484,0.353516 C 32.250713,27.44665 32.129765,27.5 32,27.5 31.870235,27.5 31.749287,27.44665 31.646484,27.353516 31.55335,27.250713 31.5,27.129765 31.5,27 v -6 c 0,-0.129765 0.05335,-0.250713 0.146484,-0.353516 C 31.749287,20.55335 31.870235,20.5 32,20.5 Z"
     id="path9" />
</svg>
