<?xml version="1.0" encoding="UTF-8" standalone="no"?>
<!-- Created with Inkscape (http://www.inkscape.org/) -->

<svg
   id="svg2"
   height="48pt"
   width="48pt"
   version="1.0"
   sodipodi:docname="onboard.svg"
   inkscape:version="1.1.2 (0a00cf5339, 2022-02-04)"
   viewBox="0 0 48 48"
   xmlns:inkscape="http://www.inkscape.org/namespaces/inkscape"
   xmlns:sodipodi="http://sodipodi.sourceforge.net/DTD/sodipodi-0.dtd"
   xmlns:xlink="http://www.w3.org/1999/xlink"
   xmlns="http://www.w3.org/2000/svg"
   xmlns:svg="http://www.w3.org/2000/svg"
   xmlns:rdf="http://www.w3.org/1999/02/22-rdf-syntax-ns#"
   xmlns:cc="http://creativecommons.org/ns#"
   xmlns:dc="http://purl.org/dc/elements/1.1/">
  <defs
     id="defs1">
    <linearGradient
       id="linearGradient8"
       inkscape:collect="always">
      <stop
         style="stop-color:#c6c6c6;stop-opacity:1;"
         offset="0"
         id="stop8" />
      <stop
         style="stop-color:#696969;stop-opacity:1;"
         offset="1"
         id="stop9" />
    </linearGradient>
    <linearGradient
       id="linearGradient6"
       inkscape:collect="always">
      <stop
         style="stop-color:#ffc800;stop-opacity:1;"
         offset="0"
         id="stop6" />
      <stop
         style="stop-color:#ff5700;stop-opacity:1;"
         offset="1"
         id="stop7" />
    </linearGradient>
    <linearGradient
       id="linearGradient4"
       inkscape:collect="always">
      <stop
         style="stop-color:#afc4f8;stop-opacity:1;"
         offset="0"
         id="stop4" />
      <stop
         style="stop-color:#0090ff;stop-opacity:1;"
         offset="1"
         id="stop5" />
    </linearGradient>
    <linearGradient
       inkscape:collect="always"
       xlink:href="#linearGradient4"
       id="linearGradient872"
       x1="-12.025727"
       y1="6.1170783"
       x2="-0.085100174"
       y2="6.1170783"
       gradientUnits="userSpaceOnUse"
       gradientTransform="matrix(3.8452688,0,0,3.8271339,0.05396831,0.05959621)" />
    <linearGradient
       id="_lgradient_1"
       x1="0.18336116"
       y1="0.24917752"
       x2="0.9027437"
       y2="0.90347725"
       gradientTransform="matrix(24.617266,0,0,24.816118,10.841288,10.089605)"
       gradientUnits="userSpaceOnUse">
      <stop
         offset="2.608695652173913%"
         stop-opacity="1"
         style="stop-color:rgb(179,255,171)"
         id="stop2" />
      <stop
         offset="98.69565217391305%"
         stop-opacity="1"
         style="stop-color:rgb(18,255,247)"
         id="stop4-3" />
    </linearGradient>
    <linearGradient
       inkscape:collect="always"
       xlink:href="#linearGradient4"
       id="linearGradient15-6"
       x1="-9.6850061"
       y1="45.161198"
       x2="11.98815"
       y2="21.735205"
       gradientUnits="userSpaceOnUse"
       gradientTransform="matrix(1.1145269,0,0,1.1151225,0.07372068,-3.3275316)" />
    <linearGradient
       inkscape:collect="always"
       xlink:href="#linearGradient8"
       id="linearGradient1157"
       x1="24.342827"
       y1="18.513514"
       x2="34.630142"
       y2="18.513514"
       gradientUnits="userSpaceOnUse" />
    <linearGradient
       inkscape:collect="always"
       xlink:href="#linearGradient8"
       id="linearGradient1159"
       x1="13.369856"
       y1="29.486485"
       x2="23.657173"
       y2="29.486485"
       gradientUnits="userSpaceOnUse" />
    <linearGradient
       inkscape:collect="always"
       xlink:href="#linearGradient4"
       id="linearGradient1193"
       x1="24.342827"
       y1="29.486485"
       x2="34.630142"
       y2="29.486485"
       gradientUnits="userSpaceOnUse" />
    <linearGradient
       inkscape:collect="always"
       xlink:href="#linearGradient4"
       id="linearGradient1195"
       x1="14.904085"
       y1="16.978292"
       x2="18.284931"
       y2="16.978292"
       gradientUnits="userSpaceOnUse" />
    <linearGradient
       inkscape:collect="always"
       xlink:href="#linearGradient6"
       id="linearGradient1247"
       x1="26.290573"
       y1="28.237547"
       x2="29.348766"
       y2="28.237547"
       gradientUnits="userSpaceOnUse" />
    <linearGradient
       inkscape:collect="always"
       xlink:href="#linearGradient6"
       id="linearGradient1249"
       x1="13.369856"
       y1="18.513514"
       x2="23.657173"
       y2="18.513514"
       gradientUnits="userSpaceOnUse" />
  </defs>
  <sodipodi:namedview
     id="namedview1"
     pagecolor="#ffffff"
     bordercolor="#666666"
     borderopacity="1.0"
     inkscape:showpageshadow="2"
     inkscape:pageopacity="0.0"
     inkscape:pagecheckerboard="0"
     inkscape:deskcolor="#d1d1d1"
     inkscape:document-units="pt"
     showguides="true"
     inkscape:current-layer="svg2"
     inkscape:pageshadow="2"
     showgrid="false"
     inkscape:zoom="5.4193106"
     inkscape:cx="34.321709"
     inkscape:cy="27.955586"
     inkscape:window-width="1085"
     inkscape:window-height="545"
     inkscape:window-x="304"
     inkscape:window-y="99"
     inkscape:window-maximized="0" />
  <metadata
     id="metadata7">
    <rdf:RDF>
      <cc:Work
         rdf:about="">
        <dc:format>image/svg+xml</dc:format>
        <dc:type
           rdf:resource="http://purl.org/dc/dcmitype/StillImage" />
        <cc:license
           rdf:resource="https://www.gnu.org/licenses/gpl.txt" />
        <dc:creator>
          <cc:Agent>
            <dc:title>Onboard Devel Team at https://launchpad.net/~onboard</dc:title>
          </cc:Agent>
        </dc:creator>
        <dc:rights>
          <cc:Agent>
            <dc:title>GPL-3+ license</dc:title>
          </cc:Agent>
        </dc:rights>
        <dc:publisher>
          <cc:Agent>
            <dc:title>Onboard Devel Team</dc:title>
          </cc:Agent>
        </dc:publisher>
        <dc:source>https://launchpad.net/onboard</dc:source>
        <dc:relation>This file is part of Onboard</dc:relation>
        <dc:contributor>
          <cc:Agent>
            <dc:title>Copyright © 2016, Francesco Fumanti &lt;francesco.fumanti@gmx.net&gt;
Copyright © 2015, marmuta &lt;marmvta@gmail.com&gt;
Copyright © 2006, Chris Jones &lt;cej105@soton.ac.uk&gt;</dc:title>
          </cc:Agent>
        </dc:contributor>
      </cc:Work>
    </rdf:RDF>
  </metadata>
  <rect
     x="-46.838989"
     y="1.2844515"
     height="45.680725"
     rx="6.1989927"
     shape-rendering="crispEdges"
     id="rect5-6-7-3"
     ry="6.7877836"
     transform="matrix(0.00521413,-0.99998641,0.99998789,0.0049218,0,0)"
     style="isolation:isolate;fill:#00bfff;fill-opacity:0.13470298;stroke:url(#linearGradient872);stroke-width:2.02995;stroke-miterlimit:4;stroke-dasharray:none;stroke-opacity:1"
     width="45.91481" />
  <rect
     x="-15.597655"
     y="17.261967"
     height="33.348476"
     rx="6.790679"
     shape-rendering="crispEdges"
     id="rect5-6-6-6-6"
     style="isolation:isolate;fill:#00bfff;fill-opacity:0.13470298;stroke:url(#linearGradient15-6);stroke-width:1.67223;stroke-miterlimit:4;stroke-dasharray:none;stroke-opacity:1"
     ry="7.4748945"
     transform="matrix(0.72271671,-0.69114438,0.68438107,0.72912451,0,0)"
     width="33.331703" />
  <path
     style="color:#000000;fill:url(#linearGradient1249);stroke-linejoin:round;-inkscape-stroke:none"
     d="m 15.083984,12.994141 c -1.151079,0 -2.089843,0.938764 -2.089843,2.089843 v 6.857422 c 0,1.15108 0.938631,2.089844 2.089843,2.089844 h 6.857422 c 1.151212,0 2.089844,-0.938632 2.089844,-2.089844 v -6.857422 c 0,-1.151212 -0.938764,-2.089843 -2.089844,-2.089843 z m 0,0.75 h 6.857422 c 0.748641,0 1.339844,0.591335 1.339844,1.339843 v 6.857422 c 0,0.748508 -0.591336,1.339844 -1.339844,1.339844 h -6.857422 c -0.748508,0 -1.339843,-0.591203 -1.339843,-1.339844 v -6.857422 c 0,-0.74864 0.591203,-1.339843 1.339843,-1.339843 z m 0.685547,0.279297 c -0.961042,-1e-6 -1.746094,0.785051 -1.746093,1.746093 v 5.486328 c -1e-6,0.961043 0.784886,1.748047 1.746093,1.748047 h 5.486328 c 0.961208,0 1.748047,-0.786839 1.748047,-1.748047 v -5.486328 c 0,-0.961207 -0.787004,-1.746093 -1.748047,-1.746093 z m 0,0.75 h 5.486328 c 0.558736,0 0.998047,0.437524 0.998047,0.996093 v 5.486328 c 0,0.558571 -0.439476,0.998047 -0.998047,0.998047 h -5.486328 c -0.558569,0 -0.996093,-0.439311 -0.996093,-0.998047 v -5.486328 c 0,-0.558734 0.437359,-0.996094 0.996093,-0.996093 z"
     id="rect1" />
  <path
     style="color:#000000;-inkscape-font-specification:'SF Compact Rounded, Bold';fill:url(#linearGradient1195);-inkscape-stroke:none"
     d="m 16.595703,14.611328 c -0.610167,0 -1.147216,0.200351 -1.515625,0.587891 -0.368409,0.38754 -0.550781,0.936793 -0.550781,1.560547 v 0.457031 c 0,0.617011 0.180551,1.160599 0.548828,1.544922 0.368277,0.384323 0.905674,0.583984 1.517578,0.583984 0.609178,0 1.145407,-0.198167 1.513672,-0.582031 0.368265,-0.383864 0.550781,-0.928324 0.550781,-1.546875 v -0.457031 c 0,-0.622215 -0.18133,-1.17063 -0.548828,-1.558594 C 17.74383,14.813208 17.2062,14.611328 16.595703,14.611328 Z m 0,0.75 c 0.452856,0 0.75953,0.132535 0.970703,0.355469 0.211174,0.222933 0.34375,0.562621 0.34375,1.042969 v 0.457031 c 0,0.475593 -0.131391,0.808025 -0.341797,1.027344 -0.210406,0.219318 -0.518481,0.351562 -0.972656,0.351562 -0.457058,0 -0.766169,-0.132002 -0.976562,-0.351562 -0.210394,-0.219561 -0.339844,-0.553016 -0.339844,-1.027344 v -0.457031 c 0,-0.481613 0.132085,-0.820313 0.34375,-1.042969 0.211665,-0.222657 0.519471,-0.355469 0.972656,-0.355469 z m 0,0.0078 c -0.337832,0 -0.664155,0.154897 -0.861328,0.416015 -0.197173,0.261119 -0.277344,0.595862 -0.277344,0.96875 v 0.462891 c 0,0.369431 0.08123,0.702358 0.279297,0.960937 0.198062,0.25858 0.523005,0.410157 0.859375,0.410157 0.335535,0 0.659978,-0.151692 0.857422,-0.410157 0.197444,-0.258465 0.277344,-0.591506 0.277344,-0.960937 v -0.462891 c 0,-0.373441 -0.08056,-0.708145 -0.277344,-0.96875 -0.196785,-0.260604 -0.521236,-0.416015 -0.857422,-0.416015 z m 0,0.75 c 0.137975,0 0.194921,0.03131 0.259766,0.117187 0.06485,0.08587 0.125,0.256976 0.125,0.517578 v 0.462891 c 0,0.256195 -0.05956,0.422755 -0.123047,0.505859 -0.06348,0.0831 -0.120289,0.115235 -0.261719,0.115235 -0.1434,0 -0.200104,-0.0342 -0.263672,-0.117188 -0.06357,-0.08299 -0.125,-0.247711 -0.125,-0.503906 v -0.462891 c 0,-0.261155 0.0625,-0.432217 0.126953,-0.517578 0.06446,-0.08536 0.119781,-0.117187 0.261719,-0.117187 z"
     id="text4831" />
  <path
     style="color:#000000;-inkscape-font-specification:'SF Compact Rounded, Bold';fill:url(#linearGradient1247);-inkscape-stroke:none"
     d="m 26.830078,25.947266 c -0.242351,0 -0.489911,0.07204 -0.666016,0.246093 -0.176104,0.174053 -0.248046,0.420369 -0.248046,0.660157 v 2.767578 c 0,0.240632 0.07322,0.488071 0.25,0.662109 0.17678,0.174039 0.422712,0.244141 0.664062,0.244141 h 1.185547 c 0.467787,0 0.888607,-0.126485 1.203125,-0.382813 0.314518,-0.256327 0.505859,-0.650309 0.505859,-1.078125 0,-0.416772 -0.230283,-0.739586 -0.537109,-0.978515 0.210288,-0.222218 0.353516,-0.501504 0.353516,-0.826172 0,-0.387274 -0.170329,-0.7484 -0.458985,-0.978516 -0.288655,-0.230116 -0.669321,-0.335937 -1.09375,-0.335937 z m 0,0.75 h 0.0039 v 1.402343 0.154297 1.523438 h -0.0039 c -0.109359,0 -0.133784,-0.02253 -0.138672,-0.02734 -0.0049,-0.0048 -0.02539,-0.02446 -0.02539,-0.128906 v -2.767578 c 0,-0.102484 0.01983,-0.121455 0.02539,-0.126954 0.0056,-0.0055 0.03031,-0.0293 0.138672,-0.0293 z m 1.320313,0.04492 c 0.186991,0.02637 0.376213,0.0563 0.464843,0.126954 0.119572,0.09532 0.175782,0.201919 0.175782,0.392578 0,0.143504 -0.128375,0.159655 -0.189454,0.234375 0.0026,-0.02671 0.0332,-0.04807 0.0332,-0.07422 0,-0.220607 -0.08756,-0.449927 -0.257813,-0.601563 -0.06168,-0.05493 -0.152883,-0.04508 -0.226562,-0.07813 z m -0.566407,0.611329 h 0.167969 c 0.09394,0 0.122006,0.02468 0.125,0.02734 0.003,0.0027 0.0078,-0.0077 0.0078,0.04102 0,0.0523 0.0015,0.03503 -0.0059,0.04102 -0.0073,0.006 -0.06741,0.04102 -0.224609,0.04102 h -0.07031 z m 0.523438,0.765625 v 0.08398 c -0.0465,-0.01267 -0.086,-0.03801 -0.134766,-0.04492 0.04589,-0.01154 0.09182,-0.02165 0.134766,-0.03906 z m 0.572265,0.632812 c 0.112175,0.09196 0.294922,0.117662 0.294922,0.314453 0,0.223061 -0.07659,0.372276 -0.228515,0.496094 -0.05562,0.04533 -0.187224,0.04451 -0.267578,0.07813 0.198539,-0.161735 0.302734,-0.418127 0.302734,-0.650391 0,-0.08662 -0.0771,-0.152881 -0.101563,-0.238281 z m -1.095703,0.09766 h 0.212891 c 0.138645,0 0.191555,0.03316 0.207031,0.04687 0.01548,0.01371 0.02734,0.02026 0.02734,0.09375 0,0.07349 -0.0014,0.05829 -0.01953,0.07227 -0.01814,0.01398 -0.107064,0.05859 -0.306641,0.05859 h -0.121094 z"
     id="text4835" />
  <path
     style="color:#000000;fill:url(#linearGradient1157);stroke-linejoin:round;-inkscape-stroke:none"
     d="m 26.056641,12.869141 c -1.218153,0 -2.212891,0.99669 -2.212891,2.214843 v 6.857422 c 0,1.218154 0.994561,2.214844 2.212891,2.214844 h 6.859375 c 1.218329,0 2.214843,-0.996515 2.214843,-2.214844 v -6.857422 c 0,-1.218329 -0.99669,-2.214843 -2.214843,-2.214843 z m 0,1 h 6.859375 c 0.681567,0 1.214843,0.533453 1.214843,1.214843 v 6.857422 c 0,0.681391 -0.533453,1.214844 -1.214843,1.214844 h -6.859375 c -0.681391,0 -1.212891,-0.533277 -1.212891,-1.214844 v -6.857422 c 0,-0.681566 0.531324,-1.214843 1.212891,-1.214843 z m 0.685546,0.0293 c -1.028092,-1e-6 -1.871093,0.843 -1.871093,1.871093 v 5.486328 c 0,1.028094 0.84278,1.873047 1.871093,1.873047 h 5.488282 c 1.028313,0 1.871093,-0.844732 1.871093,-1.873047 v -5.486328 c 0,-1.028313 -0.843,-1.871093 -1.871093,-1.871093 z m 0,1 h 5.488282 c 0.491683,0 0.871093,0.37963 0.871093,0.871093 v 5.486328 c 0,0.491465 -0.37963,0.873047 -0.871093,0.873047 h -5.488282 c -0.491463,0 -0.871093,-0.381362 -0.871093,-0.873047 v -5.486328 c 0,-0.491683 0.37941,-0.871094 0.871093,-0.871093 z"
     id="path2" />
  <path
     style="color:#000000;fill:url(#linearGradient1159);stroke-linejoin:round;-inkscape-stroke:none"
     d="m 15.083984,23.84375 c -1.218153,0 -2.214843,0.994738 -2.214843,2.212891 v 6.859375 c 0,1.218153 0.996514,2.214843 2.214843,2.214843 h 6.857422 c 1.218329,0 2.214844,-0.996514 2.214844,-2.214843 v -6.859375 c 0,-1.21833 -0.99669,-2.212891 -2.214844,-2.212891 z m 0,1 h 6.857422 c 0.681567,0 1.214844,0.5315 1.214844,1.212891 v 6.859375 c 0,0.68139 -0.533453,1.214843 -1.214844,1.214843 h -6.857422 c -0.68139,0 -1.214843,-0.533276 -1.214843,-1.214843 v -6.859375 c 0,-0.681567 0.533277,-1.212891 1.214843,-1.212891 z m 0.685547,0.02734 c -1.028093,0 -1.871093,0.843001 -1.871093,1.871093 v 5.488282 c -1e-6,1.028093 0.84278,1.871093 1.871093,1.871093 h 5.486328 c 1.028315,0 1.873047,-0.84278 1.873047,-1.871093 v -5.488282 c 0,-1.028313 -0.844953,-1.871093 -1.873047,-1.871093 z m 0,1 h 5.486328 c 0.491685,0 0.873047,0.37963 0.873047,0.871093 v 5.488282 c 0,0.491463 -0.381582,0.871093 -0.873047,0.871093 h -5.486328 c -0.491463,0 -0.871093,-0.37941 -0.871093,-0.871093 v -5.488282 c 0,-0.491683 0.37941,-0.871093 0.871093,-0.871093 z"
     id="path3" />
  <path
     style="color:#000000;fill:url(#linearGradient1193);stroke-linejoin:round;-inkscape-stroke:none"
     d="m 26.056641,23.96875 c -1.15108,0 -2.087891,0.936811 -2.087891,2.087891 v 6.859375 c 0,1.15108 0.936679,2.089843 2.087891,2.089843 h 6.859375 c 1.151212,0 2.089843,-0.938631 2.089843,-2.089843 v -6.859375 c 0,-1.151212 -0.938763,-2.087891 -2.089843,-2.087891 z m 0,0.75 h 6.859375 c 0.74864,0 1.339843,0.589382 1.339843,1.337891 v 6.859375 c 0,0.748508 -0.591335,1.339843 -1.339843,1.339843 h -6.859375 c -0.748509,0 -1.337891,-0.591203 -1.337891,-1.339843 v -6.859375 c 0,-0.74864 0.589251,-1.337891 1.337891,-1.337891 z m 0.685546,0.277344 c -0.961042,0 -1.746093,0.785051 -1.746093,1.746093 v 5.488282 c 0,0.961042 0.784886,1.746093 1.746093,1.746093 h 5.488282 c 0.961207,0 1.746093,-0.784886 1.746093,-1.746093 v -5.488282 c 0,-0.961207 -0.785051,-1.746093 -1.746093,-1.746093 z m 0,0.75 h 5.488282 c 0.558734,0 0.996093,0.437524 0.996093,0.996093 v 5.488282 c 0,0.558569 -0.437524,0.996093 -0.996093,0.996093 h -5.488282 c -0.558569,0 -0.996093,-0.437359 -0.996093,-0.996093 v -5.488282 c 0,-0.558734 0.437359,-0.996093 0.996093,-0.996093 z"
     id="path4" />
</svg>
