<?xml version="1.0" encoding="UTF-8" standalone="no"?>
<!-- Generator: Gravit.io -->

<svg
   style="isolation:isolate"
   viewBox="0 0 48 48"
   width="48pt"
   height="48pt"
   version="1.1"
   id="svg23"
   sodipodi:docname="onlyoffice.svg"
   inkscape:version="1.1.2 (0a00cf5339, 2022-02-04)"
   xmlns:inkscape="http://www.inkscape.org/namespaces/inkscape"
   xmlns:sodipodi="http://sodipodi.sourceforge.net/DTD/sodipodi-0.dtd"
   xmlns:xlink="http://www.w3.org/1999/xlink"
   xmlns="http://www.w3.org/2000/svg"
   xmlns:svg="http://www.w3.org/2000/svg">
  <defs
     id="defs27">
    <linearGradient
       inkscape:collect="always"
       xlink:href="#_lgradient_15"
       id="linearGradient872"
       x1="-12.025727"
       y1="6.1170783"
       x2="-0.085100174"
       y2="6.1170783"
       gradientUnits="userSpaceOnUse"
       gradientTransform="matrix(3.8358211,0,0,3.8371386,-0.00544341,-0.00268054)" />
    <linearGradient
       id="_lgradient_1"
       x1="0.18336116"
       y1="0.24917752"
       x2="0.9027437"
       y2="0.90347725"
       gradientTransform="matrix(24.617266,0,0,24.816118,10.841288,10.089605)"
       gradientUnits="userSpaceOnUse">
      <stop
         offset="2.608695652173913%"
         stop-opacity="1"
         style="stop-color:rgb(179,255,171)"
         id="stop2-3" />
      <stop
         offset="98.69565217391305%"
         stop-opacity="1"
         style="stop-color:rgb(18,255,247)"
         id="stop4-6" />
    </linearGradient>
    <linearGradient
       inkscape:collect="always"
       xlink:href="#_lgradient_15"
       id="linearGradient15"
       x1="-9.6850061"
       y1="45.161198"
       x2="11.98815"
       y2="21.735205"
       gradientUnits="userSpaceOnUse"
       gradientTransform="matrix(1.1147442,0,0,1.1150348,-0.01237238,-3.3277956)" />
    <linearGradient
       inkscape:collect="always"
       xlink:href="#_lgradient_17"
       id="linearGradient1152"
       x1="11.233469"
       y1="16.902893"
       x2="36.766533"
       y2="16.902893"
       gradientUnits="userSpaceOnUse" />
    <linearGradient
       inkscape:collect="always"
       xlink:href="#_lgradient_16"
       id="linearGradient1182"
       x1="15.339301"
       y1="33.997257"
       x2="48.660702"
       y2="33.997257"
       gradientUnits="userSpaceOnUse" />
    <linearGradient
       inkscape:collect="always"
       xlink:href="#_lgradient_15"
       id="linearGradient1212"
       x1="15.251136"
       y1="42.048038"
       x2="48.748859"
       y2="42.048038"
       gradientUnits="userSpaceOnUse" />
  </defs>
  <sodipodi:namedview
     id="namedview25"
     pagecolor="#ffffff"
     bordercolor="#666666"
     borderopacity="1.0"
     inkscape:pageshadow="2"
     inkscape:pageopacity="0.0"
     inkscape:pagecheckerboard="0"
     inkscape:document-units="pt"
     showgrid="false"
     inkscape:zoom="1"
     inkscape:cx="31.5"
     inkscape:cy="32"
     inkscape:window-width="1600"
     inkscape:window-height="836"
     inkscape:window-x="0"
     inkscape:window-y="0"
     inkscape:window-maximized="1"
     inkscape:current-layer="svg23" />
  <linearGradient
     id="_lgradient_15"
     x1="0"
     y1="0.5"
     x2="1"
     y2="0.5"
     gradientTransform="matrix(27.20477,0,0,11.5775,10.397615,25.583157)"
     gradientUnits="userSpaceOnUse">
    <stop
       offset="0%"
       stop-opacity="1"
       style="stop-color:rgb(255,224,49)"
       id="stop2" />
    <stop
       offset="100%"
       stop-opacity="1"
       style="stop-color:rgb(250,0,117)"
       id="stop4" />
  </linearGradient>
  <rect
     x="-46.783188"
     y="1.2253767"
     height="45.80014"
     rx="6.1837621"
     shape-rendering="crispEdges"
     id="rect5-6-7-3"
     ry="6.8055277"
     transform="matrix(0.00524063,-0.99998627,0.99998801,0.00489691,0,0)"
     style="isolation:isolate;fill:#ff5500;fill-opacity:0.13470298;stroke:url(#linearGradient872);stroke-width:2.0301;stroke-miterlimit:4;stroke-dasharray:none;stroke-opacity:1"
     width="45.801998" />
  <rect
     x="-15.686804"
     y="17.260084"
     height="33.345856"
     rx="6.7920032"
     shape-rendering="crispEdges"
     id="rect5-6-6-6-6"
     style="isolation:isolate;fill:#ff5500;fill-opacity:0.13470298;stroke:url(#linearGradient15);stroke-width:1.67233;stroke-miterlimit:4;stroke-dasharray:none;stroke-opacity:1"
     ry="7.4743071"
     transform="matrix(0.72446484,-0.68931175,0.68622417,0.72739012,0,0)"
     width="33.338203" />
  <path
     style="color:#000000;fill:url(#linearGradient1212);-inkscape-stroke:none"
     d="m 21.394531,34.582031 -0.320312,0.160156 -5.09961,2.542969 v -0.002 c -0.799285,0.398024 -1.364838,1.04437 -1.388671,1.820313 -0.02383,0.775942 0.500096,1.453859 1.273437,1.90039 l 13.476562,7.775391 c 1.55676,0.898882 3.771366,0.898882 5.328125,0 l 13.476563,-7.775391 c 0.773338,-0.446531 1.297271,-1.124449 1.273437,-1.90039 -0.02383,-0.775942 -0.589388,-1.422289 -1.388671,-1.820313 v 0.002 l -5.419922,-2.703125 -5.113282,2.953125 2.382813,1.183594 1.28125,0.638672 -8.710938,5.019531 c -0.157968,0.09088 -0.732656,0.09088 -0.890625,0 L 22.84375,39.357422 24.125,38.71875 26.507812,37.535156 Z m -0.04883,1.511719 2.341797,1.351562 -0.15625,0.07813 -1.591797,0.792969 c -0.35639,0.177475 -0.695074,0.523283 -0.708984,0.992188 -0.01391,0.468905 0.303541,0.832826 0.648437,1.03125 l 9.011719,5.193359 c 0.699525,0.402446 1.519225,0.402446 2.21875,0 l 9.011719,-5.193359 c 0.344897,-0.198424 0.662347,-0.562344 0.648437,-1.03125 -0.01391,-0.468906 -0.352592,-0.814714 -0.708984,-0.992188 l -1.591797,-0.792969 -0.15625,-0.07813 2.339844,-1.351562 4.779297,2.384766 c 0.530008,0.263931 0.645926,0.518703 0.65039,0.664062 0.0045,0.145359 -0.09648,0.408929 -0.609375,0.705078 l -13.476562,7.775391 c -1.015719,0.586482 -2.976469,0.586482 -3.992188,0 L 16.527344,39.847656 c -0.512898,-0.29615 -0.61384,-0.55972 -0.609375,-0.705078 0.0045,-0.145358 0.120379,-0.400131 0.65039,-0.664062 z"
     id="path7"
     transform="scale(0.75)" />
  <linearGradient
     id="_lgradient_16"
     x1="0.39980158730156745"
     y1="0.20242151662881497"
     x2="0.36506834215163786"
     y2="1.11853149718325"
     gradientTransform="matrix(36.075695,0,0,15.678845,13.962152,25.796065)"
     gradientUnits="userSpaceOnUse">
    <stop
       offset="0%"
       stop-opacity="1"
       style="stop-color:rgb(67,233,123)"
       id="stop9" />
    <stop
       offset="97.82608695652173%"
       stop-opacity="1"
       style="stop-color:rgb(56,249,215)"
       id="stop11" />
  </linearGradient>
  <path
     style="color:#000000;fill:url(#linearGradient1182);-inkscape-stroke:none"
     d="m 20.960937,26.544922 -0.326171,0.175781 -4.619141,2.478516 c -0.789465,0.424224 -1.332321,1.094923 -1.34375,1.873047 -0.01143,0.778123 0.511265,1.464131 1.287109,1.912109 l 13.376953,7.722656 c 1.55676,0.898883 3.771366,0.898883 5.328125,0 l 13.376954,-7.722656 c 0.775846,-0.447978 1.298538,-1.133986 1.287109,-1.912109 -0.01143,-0.778124 -0.554284,-1.448824 -1.34375,-1.873047 l -4.945313,-2.654297 -5.011718,2.890625 1.773437,0.955078 1.496094,0.806641 -8.853516,5.107421 c -0.15772,0.09107 -0.728998,0.09107 -0.886718,0 l -8.853516,-5.107421 1.496094,-0.806641 1.773437,-0.955078 z m -0.02344,1.527344 2.296875,1.324218 -1.423828,0.767578 c -0.353845,0.19003 -0.676246,0.548263 -0.683594,1.009766 -0.0073,0.461503 0.302334,0.830292 0.650391,1.03125 l 9.111328,5.255859 c 0.699773,0.404055 1.522883,0.404055 2.222656,0 l 9.111328,-5.255859 c 0.348047,-0.200964 0.657739,-0.569763 0.650391,-1.03125 -0.0073,-0.460873 -0.328363,-0.817586 -0.681641,-1.007812 L 40.765625,29.396484 43.0625,28.072266 47.351562,30.375 c 0.519195,0.278992 0.640082,0.546826 0.642579,0.716797 0.0025,0.169971 -0.1107,0.441623 -0.621094,0.736328 l -13.376953,7.722656 c -1.015719,0.586482 -2.976469,0.586482 -3.992188,0 L 16.626953,31.828125 c -0.510393,-0.294704 -0.62359,-0.566356 -0.621094,-0.736328 0.0025,-0.169972 0.123385,-0.437806 0.642578,-0.716797 z"
     id="path14"
     transform="scale(0.75)" />
  <linearGradient
     id="_lgradient_17"
     x1="-0.000038208333333289435"
     y1="0.5000000833333331"
     x2="0.9999618333333335"
     y2="0.5000000833333331"
     gradientTransform="matrix(26.908773,0,0,14.268377,10.545613,9.7271623)"
     gradientUnits="userSpaceOnUse">
    <stop
       offset="0%"
       stop-opacity="1"
       style="stop-color:rgb(0,198,255)"
       id="stop16" />
    <stop
       offset="98.69565217391305%"
       stop-opacity="1"
       style="stop-color:rgb(0,114,255)"
       id="stop18" />
  </linearGradient>
  <path
     style="color:#000000;fill:url(#linearGradient1152);-inkscape-stroke:none"
     d="m 24,9.796875 c -0.706967,0 -1.414241,0.1687662 -1.998047,0.505859 l -9.958984,5.751953 c -0.583791,0.337085 -0.972656,0.858 -0.972656,1.44336 0,0.585359 0.388865,1.104322 0.972656,1.441406 l 8.34375,4.816406 c 0.877093,0.506969 2.013416,0.200633 2.519531,-0.677734 0.506039,-0.878234 0.203284,-2.016456 -0.673828,-2.523438 l -5.304688,-3.058593 6.740235,-3.892578 c 0.118626,-0.0685 0.545436,-0.0685 0.664062,0 l 6.740235,3.892578 -5.304688,3.058593 c -0.877112,0.506982 -1.179867,1.645204 -0.673828,2.523438 0.506115,0.878367 1.642438,1.184703 2.519531,0.677734 l 8.34375,-4.816406 c 0.583791,-0.337084 0.972657,-0.856047 0.972656,-1.441406 0,-0.58536 -0.388865,-1.106275 -0.972656,-1.44336 L 25.998047,10.302734 C 25.414241,9.9656412 24.706967,9.796875 24,9.796875 Z m 0,1.042969 c 0.558416,0 1.117174,0.11016 1.498047,0.330078 l 9.958984,5.751953 c 0.380888,0.219927 0.472656,0.430959 0.472656,0.576172 0,0.145213 -0.09177,0.354292 -0.472656,0.574219 l -8.34375,4.818359 c -0.407799,0.235712 -0.915777,0.09806 -1.152344,-0.3125 -0.236642,-0.410695 -0.10114,-0.920548 0.306641,-1.15625 l 5.472656,-3.15625 c 0.262232,-0.151414 0.490235,-0.425743 0.490235,-0.767578 0,-0.341836 -0.228003,-0.618117 -0.490235,-0.769531 l -6.908203,-3.990235 c -0.524493,-0.302846 -1.139569,-0.302846 -1.664062,0 l -6.908203,3.990235 c -0.262232,0.151414 -0.490235,0.427695 -0.490235,0.769531 0,0.341835 0.228003,0.616164 0.490235,0.767578 l 5.472656,3.15625 c 0.407781,0.235702 0.543283,0.745555 0.30664,1.15625 -0.236566,0.410562 -0.744544,0.548212 -1.152343,0.3125 l -8.34375,-4.818359 c -0.380888,-0.219927 -0.472656,-0.429006 -0.472656,-0.574219 0,-0.145213 0.09177,-0.356245 0.472656,-0.576172 l 9.958984,-5.751953 C 22.882826,10.950004 23.441584,10.839844 24,10.839844 Z"
     id="path21" />
</svg>
