<?xml version="1.0" encoding="UTF-8" standalone="no"?>
<!-- Generator: Gravit.io -->

<svg
   style="isolation:isolate"
   viewBox="0 0 48 48"
   width="48pt"
   height="48pt"
   version="1.1"
   id="svg21"
   sodipodi:docname="openbroadcaster.svg"
   inkscape:version="1.1.2 (0a00cf5339, 2022-02-04)"
   xmlns:inkscape="http://www.inkscape.org/namespaces/inkscape"
   xmlns:sodipodi="http://sodipodi.sourceforge.net/DTD/sodipodi-0.dtd"
   xmlns:xlink="http://www.w3.org/1999/xlink"
   xmlns="http://www.w3.org/2000/svg"
   xmlns:svg="http://www.w3.org/2000/svg">
  <defs
     id="defs25">
    <linearGradient
       inkscape:collect="always"
       xlink:href="#_lgradient_17"
       id="linearGradient872"
       x1="-12.025727"
       y1="6.1170783"
       x2="-0.085100174"
       y2="6.1170783"
       gradientUnits="userSpaceOnUse"
       gradientTransform="matrix(3.8358211,0,0,3.8371386,-0.00544341,-0.00268054)" />
    <linearGradient
       id="_lgradient_1"
       x1="0.18336116"
       y1="0.24917752"
       x2="0.9027437"
       y2="0.90347725"
       gradientTransform="matrix(24.617266,0,0,24.816118,10.841288,10.089605)"
       gradientUnits="userSpaceOnUse">
      <stop
         offset="2.608695652173913%"
         stop-opacity="1"
         style="stop-color:rgb(179,255,171)"
         id="stop2-3" />
      <stop
         offset="98.69565217391305%"
         stop-opacity="1"
         style="stop-color:rgb(18,255,247)"
         id="stop4-6" />
    </linearGradient>
    <linearGradient
       inkscape:collect="always"
       xlink:href="#_lgradient_17"
       id="linearGradient15"
       x1="-9.6850061"
       y1="45.161198"
       x2="11.98815"
       y2="21.735205"
       gradientUnits="userSpaceOnUse"
       gradientTransform="matrix(1.1147442,0,0,1.1150348,-0.01237238,-3.3277956)" />
    <linearGradient
       inkscape:collect="always"
       xlink:href="#_lgradient_17"
       id="linearGradient1605"
       x1="14.535123"
       y1="23.157799"
       x2="39.607468"
       y2="23.157799"
       gradientUnits="userSpaceOnUse" />
  </defs>
  <sodipodi:namedview
     id="namedview23"
     pagecolor="#ffffff"
     bordercolor="#666666"
     borderopacity="1.0"
     inkscape:pageshadow="2"
     inkscape:pageopacity="0.0"
     inkscape:pagecheckerboard="0"
     inkscape:document-units="pt"
     showgrid="false"
     inkscape:zoom="10.21875"
     inkscape:cx="31.95107"
     inkscape:cy="32"
     inkscape:window-width="1600"
     inkscape:window-height="836"
     inkscape:window-x="0"
     inkscape:window-y="0"
     inkscape:window-maximized="1"
     inkscape:current-layer="svg21" />
  <linearGradient
     id="_lgradient_17"
     x1="0"
     y1="0.5"
     x2="1"
     y2="0.5"
     gradientTransform="matrix(24.365277,0,0,26.503642,14.74216,9.8813539)"
     gradientUnits="userSpaceOnUse">
    <stop
       offset="0%"
       stop-opacity="1"
       style="stop-color:rgb(117,127,154)"
       id="stop2" />
    <stop
       offset="98.69565217391305%"
       stop-opacity="1"
       style="stop-color:rgb(215,221,232)"
       id="stop4" />
  </linearGradient>
  <linearGradient
     id="_lgradient_18"
     x1="12.425303"
     y1="21.214132"
     x2="42.268353"
     y2="21.214132"
     gradientTransform="matrix(0.83715789,0,0,0.91593574,4.1597915,3.7254546)"
     gradientUnits="userSpaceOnUse"
     xlink:href="#_lgradient_17">
    <stop
       offset="0%"
       stop-opacity="1"
       style="stop-color:rgb(117,127,154)"
       id="stop7" />
    <stop
       offset="98.69565217391305%"
       stop-opacity="1"
       style="stop-color:rgb(215,221,232)"
       id="stop9" />
  </linearGradient>
  <g
     id="g850">
    <rect
       x="-46.783188"
       y="1.2253767"
       height="45.80014"
       rx="6.1837621"
       shape-rendering="crispEdges"
       id="rect5-6-7-3"
       ry="6.8055277"
       transform="matrix(0.00524063,-0.99998627,0.99998801,0.00489691,0,0)"
       style="isolation:isolate;fill:#70788f;fill-opacity:0.134703;stroke:url(#linearGradient872);stroke-width:2.0301;stroke-miterlimit:4;stroke-dasharray:none;stroke-opacity:1"
       width="45.801998" />
    <rect
       x="-15.686804"
       y="17.260084"
       height="33.345856"
       rx="6.7920032"
       shape-rendering="crispEdges"
       id="rect5-6-6-6-6"
       style="isolation:isolate;fill:#70788f;fill-opacity:0.134703;stroke:url(#linearGradient15);stroke-width:1.67233;stroke-miterlimit:4;stroke-dasharray:none;stroke-opacity:1"
       ry="7.4743071"
       transform="matrix(0.72446484,-0.68931175,0.68622417,0.72739012,0,0)"
       width="33.338203" />
  </g>
  <path
     style="color:#000000;vector-effect:non-scaling-stroke;fill:url(#linearGradient1605);-inkscape-stroke:none;fill-opacity:1.0"
     d="m 20.322266,9.4335938 c -0.04989,0.024735 -0.07761,0.079744 -0.126954,0.1054687 l -0.0078,-0.00977 c -0.04786,0.0485 -0.12268,0.1162633 -0.175781,0.1640625 -2.220612,1.2420446 -3.888995,3.4197736 -4.40625,5.9160156 l 0.0293,0.0059 c -0.47673,2.076714 -0.128821,4.274486 0.808593,6.164063 l 0.125,0.25 0.277344,0.02539 c 0.560929,0.05179 1.103717,0.0951 1.625,0.1875 1.62124,0.343064 3.120636,1.312524 4.0625,2.667969 l 0.0039,0.0039 0.0039,0.0059 c 1.257917,1.716442 1.548703,4.137405 0.796875,6.15039 v 0.002 0.002 c -0.677751,1.847599 -2.236606,3.361294 -4.09961,3.978515 l -0.0039,0.002 -0.0059,0.002 c -1.379041,0.490502 -2.913771,0.424232 -4.345703,0.0059 l -0.347657,0.935547 c 0.02162,0.0098 0.04667,0.0099 0.06836,0.01953 l -0.002,0.0059 c 0.0145,0.0042 0.03039,0.0036 0.04492,0.0078 1.74534,0.766099 3.708939,1.07291 5.601563,0.677734 2.502061,-0.476641 4.790994,-2.039453 6.072265,-4.259765 l 0.136719,-0.236328 -0.125,-0.244141 c -0.806715,-1.556276 -1.02479,-3.438925 -0.515625,-5.126953 v -0.0039 l 0.002,-0.0059 c 0.59831,-2.114296 2.355764,-3.853104 4.458985,-4.457031 l 0.0039,-0.002 h 0.0039 c 1.67692,-0.508256 3.577317,-0.288231 5.111328,0.576172 l 0.002,0.002 h 0.002 c 1.583223,0.875429 2.759645,2.446372 3.224609,4.205078 l 0.982422,-0.142578 c -0.0011,-0.0387 -0.02154,-0.07276 -0.02344,-0.111328 l 0.0078,-0.002 c -0.003,-0.01136 -0.01257,-0.01991 -0.01563,-0.03125 -0.08267,-1.499413 -0.704695,-2.899121 -1.5,-4.076172 l -0.002,-0.002 v -0.002 c -1.633996,-2.371479 -4.393972,-3.834217 -7.25,-3.93164 l -0.302735,-0.0098 -0.15039,0.263672 c -1.166138,2.068718 -3.516123,3.45205 -5.884766,3.345703 h -0.01367 -0.01563 c -3.047941,0.04342 -5.924175,-2.455155 -6.40039,-5.455078 v -0.0078 l -0.002,-0.0078 c -0.378905,-1.970467 0.24983,-4.144132 1.625,-5.626953 l 0.0078,-0.0098 0.0078,-0.0098 c 0.300037,-0.357874 0.758438,-0.656793 1.203125,-1.107422 z m -3.117188,5.0273442 c -0.165041,0.895189 -0.304264,1.806668 -0.132812,2.705078 0.285925,1.79064 1.275031,3.387661 2.644531,4.53125 -0.356326,-0.132481 -0.674387,-0.357207 -1.046875,-0.435547 h -0.0078 l -0.0078,-0.002 c -0.474557,-0.08458 -0.933884,-0.120613 -1.388672,-0.16211 -0.761262,-1.648174 -1.056131,-3.515865 -0.65625,-5.257812 l -0.964844,-0.222656 0.939453,0.195312 c 0.100983,-0.487338 0.427822,-0.890494 0.621094,-1.351562 z m 13.798828,5.455078 c 1.788962,0.112263 3.400794,0.951783 4.759766,2.121093 C 34.011737,21.090852 31.907916,20.839463 30,21.416016 c -0.395614,0.11376 -0.67623,0.440001 -1.044922,0.617187 0.809157,-0.571879 1.51333,-1.276166 2.048828,-2.117187 z m -3.166015,2.779296 c -1.363599,0.976561 -2.516234,2.225185 -2.980469,3.863282 -0.552232,1.8362 -0.307425,3.808055 0.480469,5.517578 -1.141585,1.870989 -3.120166,3.242148 -5.279297,3.652344 h -0.0059 l -0.0039,0.002 c -0.01793,0.0038 -0.03674,-0.0017 -0.05469,0.002 1.939287,-0.801101 3.554767,-2.334348 4.28125,-4.3125 0.87113,-2.332413 0.547878,-5.074346 -0.925782,-7.087891 -0.367525,-0.527585 -0.88341,-0.912247 -1.371093,-1.324219 0.787724,0.28877 1.623282,0.457955 2.482421,0.447266 1.184919,0.04975 2.327112,-0.259386 3.376954,-0.759766 z"
     id="path12" />
  <linearGradient
     id="_lgradient_19"
     x1="0"
     y1="0.5"
     x2="1"
     y2="0.5"
     gradientTransform="matrix(48,0,0,47.7,0,0)"
     gradientUnits="userSpaceOnUse">
    <stop
       offset="0%"
       stop-opacity="1"
       style="stop-color:rgb(117,127,154)"
       id="stop14" />
    <stop
       offset="98.69565217391305%"
       stop-opacity="1"
       style="stop-color:rgb(215,221,232)"
       id="stop16" />
  </linearGradient>
</svg>
