<?xml version="1.0" encoding="UTF-8" standalone="no"?>
<!-- Generator: Gravit.io -->

<svg
   style="isolation:isolate"
   viewBox="0 0 48 48"
   width="48pt"
   height="48pt"
   version="1.1"
   id="svg16"
   sodipodi:docname="openlp.svg"
   inkscape:version="1.1.2 (0a00cf5339, 2022-02-04)"
   xmlns:inkscape="http://www.inkscape.org/namespaces/inkscape"
   xmlns:sodipodi="http://sodipodi.sourceforge.net/DTD/sodipodi-0.dtd"
   xmlns:xlink="http://www.w3.org/1999/xlink"
   xmlns="http://www.w3.org/2000/svg"
   xmlns:svg="http://www.w3.org/2000/svg">
  <defs
     id="defs20">
    <linearGradient
       inkscape:collect="always"
       xlink:href="#_lgradient_17"
       id="linearGradient872"
       x1="-12.025727"
       y1="6.1170783"
       x2="-0.085100174"
       y2="6.1170783"
       gradientUnits="userSpaceOnUse"
       gradientTransform="matrix(3.8358211,0,0,3.8371386,0.01768518,-0.02604361)" />
    <linearGradient
       id="_lgradient_1"
       x1="0.18336116"
       y1="0.24917752"
       x2="0.9027437"
       y2="0.90347725"
       gradientTransform="matrix(24.617266,0,0,24.816118,10.841288,10.089605)"
       gradientUnits="userSpaceOnUse">
      <stop
         offset="2.608695652173913%"
         stop-opacity="1"
         style="stop-color:rgb(179,255,171)"
         id="stop2-3" />
      <stop
         offset="98.69565217391305%"
         stop-opacity="1"
         style="stop-color:rgb(18,255,247)"
         id="stop4-6" />
    </linearGradient>
    <linearGradient
       inkscape:collect="always"
       xlink:href="#_lgradient_17"
       id="linearGradient15"
       x1="-9.6850061"
       y1="45.161198"
       x2="11.98815"
       y2="21.735205"
       gradientUnits="userSpaceOnUse"
       gradientTransform="matrix(1.1147442,0,0,1.1150348,-0.0133284,-3.3606551)" />
    <linearGradient
       inkscape:collect="always"
       xlink:href="#_lgradient_17"
       id="linearGradient984"
       x1="10.167263"
       y1="23.983475"
       x2="37.977352"
       y2="23.983475"
       gradientUnits="userSpaceOnUse" />
  </defs>
  <sodipodi:namedview
     id="namedview18"
     pagecolor="#ffffff"
     bordercolor="#666666"
     borderopacity="1.0"
     inkscape:pageshadow="2"
     inkscape:pageopacity="0.0"
     inkscape:pagecheckerboard="0"
     inkscape:document-units="pt"
     showgrid="false"
     inkscape:zoom="5.109375"
     inkscape:cx="32"
     inkscape:cy="32"
     inkscape:window-width="1056"
     inkscape:window-height="545"
     inkscape:window-x="318"
     inkscape:window-y="102"
     inkscape:window-maximized="0"
     inkscape:current-layer="svg16" />
  <linearGradient
     id="_lgradient_16"
     x1="-0.10818873365485009"
     y1="0.45786142571618904"
     x2="1.2497627268004412"
     y2="0.8644801450673443"
     gradientTransform="matrix(39.283,0,0,35.18,4,6.393)"
     gradientUnits="userSpaceOnUse">
    <stop
       offset="0%"
       stop-opacity="1"
       style="stop-color:rgb(0,196,255)"
       id="stop2" />
    <stop
       offset="83.88839793817618%"
       stop-opacity="1"
       style="stop-color:rgb(0,114,255)"
       id="stop4" />
  </linearGradient>
  <rect
     x="-46.760059"
     y="1.2020136"
     height="45.80014"
     rx="6.1837621"
     shape-rendering="crispEdges"
     id="rect5-6-7-3"
     ry="6.8055277"
     transform="matrix(0.00524063,-0.99998627,0.99998801,0.00489691,0,0)"
     style="isolation:isolate;fill:#00c6ff;fill-opacity:0.13470298;stroke:url(#linearGradient872);stroke-width:2.0301;stroke-miterlimit:4;stroke-dasharray:none;stroke-opacity:1"
     width="45.801998" />
  <rect
     x="-15.687759"
     y="17.227224"
     height="33.345856"
     rx="6.7920032"
     shape-rendering="crispEdges"
     id="rect5-6-6-6-6"
     style="isolation:isolate;fill:#00c6ff;fill-opacity:0.13470298;stroke:url(#linearGradient15);stroke-width:1.67233;stroke-miterlimit:4;stroke-dasharray:none;stroke-opacity:1"
     ry="7.4743071"
     transform="matrix(0.72446484,-0.68931175,0.68622417,0.72739012,0,0)"
     width="33.338203" />
  <linearGradient
     id="_lgradient_17"
     x1="0"
     y1="0.5"
     x2="0.9074880558539661"
     y2="0.9200778838291643"
     gradientTransform="matrix(42.201,-22.87,22.727,41.938,-8.464,14.316)"
     gradientUnits="userSpaceOnUse">
    <stop
       offset="0%"
       stop-opacity="1"
       style="stop-color:rgb(0,196,255)"
       id="stop9" />
    <stop
       offset="83.88839793817618%"
       stop-opacity="1"
       style="stop-color:rgb(0,114,255)"
       id="stop11" />
  </linearGradient>
  <path
     style="color:#000000;fill:url(#linearGradient984);-inkscape-stroke:none"
     d="m 25.388672,9.6386719 c -2.812361,-0.2576201 -5.662716,0.3136818 -8.179688,1.6777341 -3.356542,1.818728 -5.857695,4.903046 -6.945312,8.564453 -1.0875792,3.661876 -0.6767535,7.608296 1.142578,10.964844 1.509511,2.786145 3.894856,4.995681 6.787109,6.289063 2.892573,1.292924 6.1358,1.596649 9.21875,0.861328 C 28.297744,37.785816 28.852899,36.884998 28.642578,36 28.43153,35.115408 27.531415,34.559226 26.646484,34.769531 v 0.002 c -2.217096,0.52941 -4.529275,0.29229 -6.638672,-0.544922 l 13.140625,-4.109375 c -0.435964,0.645481 -0.830557,1.322325 -1.398437,1.867188 -0.65698,0.630608 -0.678729,1.690546 -0.04883,2.347656 0.630463,0.65683 1.690506,0.679594 2.347656,0.04883 v -0.002 c 2.27512,-2.1881 3.7699,-5.060015 4.257813,-8.177734 0.482504,-3.115277 -0.06613,-6.306552 -1.570313,-9.082031 -1.81874,-3.356565 -4.901198,-5.857126 -8.5625,-6.945313 C 27.258481,9.9019248 26.326126,9.7245452 25.388672,9.6386719 Z m -0.0918,0.9960941 c 0.872391,0.0799 1.740012,0.245024 2.591797,0.498047 3.407229,1.012673 6.276399,3.339583 7.96875,6.46289 1.399706,2.582699 1.910088,5.553198 1.460937,8.453125 -0.454475,2.901402 -1.845543,5.573014 -3.96289,7.609375 -0.266394,0.255698 -0.675641,0.247174 -0.931641,-0.01953 -0.255402,-0.266435 -0.247024,-0.675786 0.01953,-0.931641 1.126714,-1.081045 1.938059,-2.400613 2.570313,-3.808594 0.254942,-0.571006 0.508061,-1.144473 0.671875,-1.748046 l 0.08594,-0.316407 -0.06055,-0.04883 c 0.07819,-0.322045 0.256783,-0.608299 0.308594,-0.9375 v -0.002 c 0.403004,-2.616803 -0.05893,-5.29551 -1.320312,-7.623047 -1.526173,-2.816618 -4.112945,-4.913578 -7.185547,-5.826172 -2.950051,-0.876368 -6.102248,-0.52771 -8.84375,0.847657 l -0.0625,-0.04883 -0.289063,0.15625 c -0.0016,8.68e-4 -0.0023,0.003 -0.0039,0.0039 -4.6e-4,2.47e-4 -0.0015,-2.48e-4 -0.002,0 -0.0029,0.0016 -0.0049,0.0043 -0.0078,0.0059 -1.093712,0.590024 -2.091815,1.342986 -2.955078,2.236328 l -0.433593,0.451172 0.08789,0.05273 c -0.184363,0.2121 -0.348413,0.420095 -0.517578,0.644532 l -0.0957,-0.04687 -0.244141,0.347656 c -0.730618,1.037007 -1.293237,2.182094 -1.667968,3.394531 l -0.146485,0.46875 0.117188,0.03906 c -0.06172,0.237348 -0.02139,0.48124 -0.06836,0.720703 l -0.195312,-0.04687 -0.08789,0.53125 c -0.09852,0.60681 -0.148858,1.219504 -0.154297,1.833984 v 0.0039 0.002 c 0.0013,0.66763 0.05673,1.335212 0.167969,1.99414 l 0.06445,0.376953 0.232422,0.02344 c 0.05339,0.25868 0.163993,0.500737 0.234375,0.755859 h -0.287109 l 0.21875,0.660156 c 0.164389,0.49397 0.475121,0.919312 0.701172,1.386719 0.08444,0.175632 0.07663,0.378682 0.169922,0.550781 0.08111,0.149684 0.221527,0.25277 0.308593,0.398438 0.155789,0.260736 0.234823,0.561716 0.410157,0.810547 l 0.166015,0.236328 0.220703,-0.01953 c 0.09798,0.129699 0.195853,0.257353 0.298828,0.382812 l -0.25,0.04492 0.63086,0.673828 c 0.127137,0.135613 0.304484,0.210455 0.4375,0.339844 0.318049,0.310052 0.694389,0.53329 1.044922,0.806641 0.516308,0.402306 0.972314,0.882916 1.548828,1.197265 l 0.185547,0.101563 0.160156,-0.05078 c 0.192329,0.0985 0.336981,0.267123 0.535156,0.355469 2.424106,1.085709 5.147083,1.342417 7.734375,0.72461 0.358436,-0.08518 0.707371,0.129506 0.792969,0.488281 0.08395,0.357692 -0.130032,0.705956 -0.488281,0.791015 -2.868522,0.684178 -5.888511,0.402298 -8.580079,-0.800781 -2.691884,-1.203779 -4.911598,-3.260623 -6.316406,-5.853515 -1.692919,-3.123326 -2.074622,-6.797265 -1.0625,-10.205079 1.012083,-3.407123 3.339562,-6.274434 6.462891,-7.966796 2.342065,-1.269264 4.994156,-1.802213 7.611328,-1.5625 z m -2.376953,2.322265 c 1.434838,-0.149338 2.89957,-0.02014 4.308594,0.398438 2.818612,0.837156 5.19206,2.760476 6.591796,5.34375 1.156987,2.134908 1.580838,4.592287 1.210938,6.99414 -0.02421,0.153688 -0.114005,0.285425 -0.144531,0.4375 L 19.599609,13.984375 c 1.071545,-0.47686 2.166952,-0.907302 3.320313,-1.027344 z m -4.365235,1.472657 15.998047,12.71289 c -0.130214,0.429475 -0.237704,0.864239 -0.417968,1.273438 -0.056,0.127977 -0.08953,0.264791 -0.150391,0.390625 l -15.238281,4.767578 c -0.509161,-0.283082 -0.99352,-0.597778 -1.449219,-0.955078 -0.17034,-0.133421 -0.349379,-0.253224 -0.511719,-0.396485 l 14.390625,-2.560547 -0.132812,-0.990234 -16.054688,1.451172 c -0.119758,-0.17683 -0.278937,-0.319777 -0.388672,-0.503906 -0.162009,-0.271904 -0.289664,-0.559242 -0.427734,-0.84375 -0.09613,-0.199224 -0.109703,-0.421327 -0.193359,-0.625 l 16.769531,0.05273 0.05078,-0.998047 -17.654297,-1.75 c -0.114686,-0.849951 0.023,-1.689186 0.107422,-2.546875 l 18.939453,4.558594 0.273438,-0.960938 -0.03906,-0.01172 -18.710937,-6.179688 c 0.28862,-0.81147 0.726426,-1.539255 1.1875,-2.253906 l 16.667968,8.091797 0.476563,-0.878907 -15.339844,-9.308593 c 0.591118,-0.543606 1.143388,-1.127509 1.847656,-1.535156 z m -2.662109,2.210937 6.494141,3.941406 -7.017578,-3.408203 c 0.155689,-0.199237 0.354478,-0.345033 0.523437,-0.533203 z m -2.488281,4.623047 7.279297,2.404297 -7.337891,-1.765625 c 0.04082,-0.212261 0.0052,-0.428171 0.05859,-0.638672 z m 0.0625,5.228515 6.826172,0.677735 -6.625,-0.02148 c -0.06665,-0.219896 -0.148424,-0.43314 -0.201172,-0.65625 z m 6.078125,4.22461 -3.597656,0.638672 C 15.86395,31.263599 15.799003,31.157193 15.71875,31.0625 Z"
     id="path14" />
</svg>
