<?xml version="1.0" encoding="UTF-8" standalone="no"?>
<!-- Generator: Gravit.io -->

<svg
   style="isolation:isolate"
   viewBox="0 0 48 48"
   width="48pt"
   height="48pt"
   version="1.1"
   id="svg26"
   sodipodi:docname="openrgb.svg"
   inkscape:version="1.1.2 (0a00cf5339, 2022-02-04)"
   xmlns:inkscape="http://www.inkscape.org/namespaces/inkscape"
   xmlns:sodipodi="http://sodipodi.sourceforge.net/DTD/sodipodi-0.dtd"
   xmlns:xlink="http://www.w3.org/1999/xlink"
   xmlns="http://www.w3.org/2000/svg"
   xmlns:svg="http://www.w3.org/2000/svg">
  <defs
     id="defs30">
    <linearGradient
       inkscape:collect="always"
       xlink:href="#_lgradient_1"
       id="linearGradient872"
       x1="-12.025727"
       y1="6.1170783"
       x2="-0.085100174"
       y2="6.1170783"
       gradientUnits="userSpaceOnUse"
       gradientTransform="matrix(3.8358211,0,0,3.8371386,-0.00544341,-0.00268054)" />
    <linearGradient
       id="_lgradient_1-3"
       x1="0.18336116"
       y1="0.24917752"
       x2="0.9027437"
       y2="0.90347725"
       gradientTransform="matrix(24.617266,0,0,24.816118,10.841288,10.089605)"
       gradientUnits="userSpaceOnUse">
      <stop
         offset="2.608695652173913%"
         stop-opacity="1"
         style="stop-color:rgb(179,255,171)"
         id="stop2-6" />
      <stop
         offset="98.69565217391305%"
         stop-opacity="1"
         style="stop-color:rgb(18,255,247)"
         id="stop4-7" />
    </linearGradient>
    <linearGradient
       inkscape:collect="always"
       xlink:href="#_lgradient_1"
       id="linearGradient15"
       x1="-9.6850061"
       y1="45.161198"
       x2="11.98815"
       y2="21.735205"
       gradientUnits="userSpaceOnUse"
       gradientTransform="matrix(1.1147442,0,0,1.1150348,-0.01237238,-3.3277956)" />
    <linearGradient
       inkscape:collect="always"
       xlink:href="#_lgradient_1"
       id="linearGradient1039"
       x1="19.102039"
       y1="34.974945"
       x2="28.70982"
       y2="34.974945"
       gradientUnits="userSpaceOnUse" />
    <linearGradient
       inkscape:collect="always"
       xlink:href="#_lgradient_2"
       id="linearGradient1069"
       x1="10.673282"
       y1="21.338419"
       x2="37.326717"
       y2="21.338419"
       gradientUnits="userSpaceOnUse" />
  </defs>
  <sodipodi:namedview
     id="namedview28"
     pagecolor="#ffffff"
     bordercolor="#666666"
     borderopacity="1.0"
     inkscape:pageshadow="2"
     inkscape:pageopacity="0.0"
     inkscape:pagecheckerboard="0"
     inkscape:document-units="pt"
     showgrid="false"
     inkscape:zoom="10.21875"
     inkscape:cx="31.95107"
     inkscape:cy="32"
     inkscape:window-width="1600"
     inkscape:window-height="836"
     inkscape:window-x="0"
     inkscape:window-y="0"
     inkscape:window-maximized="1"
     inkscape:current-layer="svg26" />
  <linearGradient
     id="_lgradient_1"
     x1="-0.000038208333333289435"
     y1="0.5000000833333331"
     x2="0.9999618333333335"
     y2="0.5000000833333331"
     gradientTransform="matrix(9.6077801,0,0,7.5256763,19.102039,31.212106)"
     gradientUnits="userSpaceOnUse">
    <stop
       offset="0%"
       stop-opacity="1"
       style="stop-color:rgb(211,0,220)"
       id="stop2" />
    <stop
       offset="98.33333333333333%"
       stop-opacity="1"
       style="stop-color:rgb(69,250,218)"
       id="stop4" />
  </linearGradient>
  <rect
     x="-46.783188"
     y="1.2253767"
     height="45.80014"
     rx="6.1837621"
     shape-rendering="crispEdges"
     id="rect5-6-7-3"
     ry="6.8055277"
     transform="matrix(0.00524063,-0.99998627,0.99998801,0.00489691,0,0)"
     style="isolation:isolate;fill:#00c5ff;fill-opacity:0.13470298;stroke:url(#linearGradient872);stroke-width:2.0301;stroke-miterlimit:4;stroke-dasharray:none;stroke-opacity:1"
     width="45.801998" />
  <rect
     x="-15.686804"
     y="17.260084"
     height="33.345856"
     rx="6.7920032"
     shape-rendering="crispEdges"
     id="rect5-6-6-6-6"
     style="isolation:isolate;fill:#00c5ff;fill-opacity:0.13470298;stroke:url(#linearGradient15);stroke-width:1.67233;stroke-miterlimit:4;stroke-dasharray:none;stroke-opacity:1"
     ry="7.4743071"
     transform="matrix(0.72446484,-0.68931175,0.68622417,0.72739012,0,0)"
     width="33.338203" />
  <path
     style="color:#000000;fill:url(#linearGradient1039);fill-rule:evenodd;-inkscape-stroke:none"
     d="m 20.355469,30.712891 c -0.962893,0 -1.753907,0.791013 -1.753907,1.753906 v 3.191406 c 10e-7,0.844418 0.650042,1.4644 1.449219,1.626953 v 0.826172 c 0,0.616711 0.510241,1.126953 1.126953,1.126953 h 5.017578 c 0.616713,0 1.126954,-0.510241 1.126954,-1.126953 v -0.699219 h 0.132812 c 0.962893,0 1.753906,-0.791013 1.753906,-1.753906 v -3.191406 c 0,-0.962893 -0.791013,-1.753906 -1.753906,-1.753906 z m 0,1 h 7.099609 c 0.42183,0 0.753906,0.332076 0.753906,0.753906 v 3.191406 c 0,0.42183 -0.332076,0.753906 -0.753906,0.753906 h -1.132812 v 1.699219 c 0,0.07565 -0.0513,0.126953 -0.126954,0.126953 h -5.017578 c -0.07565,0 -0.126953,-0.0513 -0.126953,-0.126953 v -1.699219 h -0.695312 c -0.42183,0 -0.753906,-0.332076 -0.753907,-0.753906 v -3.191406 c 0,-0.42183 0.332077,-0.753906 0.753907,-0.753906 z m 1.255859,0.880859 c -0.616712,0 -1.126953,0.510241 -1.126953,1.126953 v 0.683594 c 0,0.616712 0.510242,1.126953 1.126953,1.126953 h 0.320313 v 1.824219 h 3.509765 V 35.53125 h 0.759766 c 0.616711,0 1.126953,-0.510241 1.126953,-1.126953 v -0.683594 c 0,-0.616712 -0.510241,-1.126953 -1.126953,-1.126953 z m 0,1 h 4.589844 c 0.07565,0 0.126953,0.0513 0.126953,0.126953 v 0.683594 c 0,0.07565 -0.0513,0.126953 -0.126953,0.126953 h -1.759766 v 1.824219 H 22.931641 V 34.53125 h -1.320313 c -0.07565,0 -0.126953,-0.0513 -0.126953,-0.126953 v -0.683594 c 0,-0.07565 0.0513,-0.126953 0.126953,-0.126953 z"
     id="path7" />
  <linearGradient
     id="_lgradient_2"
     x1="0"
     y1="0.5"
     x2="1"
     y2="0.5"
     gradientTransform="matrix(26.653437,0,0,24.152404,10.673282,9.2622173)"
     gradientUnits="userSpaceOnUse">
    <stop
       offset="0%"
       stop-opacity="1"
       style="stop-color:rgb(171,71,188)"
       id="stop9" />
    <stop
       offset="20.416666666666668%"
       stop-opacity="1"
       style="stop-color:rgb(253,59,45)"
       id="stop11" />
    <stop
       offset="38.75%"
       stop-opacity="1"
       style="stop-color:rgb(255,142,19)"
       id="stop13" />
    <stop
       offset="57.91666666666667%"
       stop-opacity="1"
       style="stop-color:rgb(255,193,7)"
       id="stop15" />
    <stop
       offset="72.08333333333333%"
       stop-opacity="1"
       style="stop-color:rgb(83,221,34)"
       id="stop17" />
    <stop
       offset="85%"
       stop-opacity="1"
       style="stop-color:rgb(66,255,253)"
       id="stop19" />
    <stop
       offset="98.75%"
       stop-opacity="1"
       style="stop-color:rgb(3,154,244)"
       id="stop21" />
  </linearGradient>
  <path
     style="color:#000000;fill:url(#linearGradient1069);fill-rule:evenodd;-inkscape-stroke:none"
     d="m 24,8.7617188 c -3.666008,0 -7.184816,1.4608532 -9.779297,4.0488282 -2.587976,2.594481 -4.046875,6.113289 -4.046875,9.779297 0,4.060072 1.793985,7.924591 4.888672,10.548828 l 0.01172,0.0098 0.789062,0.585938 0.402344,0.527344 0.878906,-1.257813 3.953125,-5.671875 0.302735,-0.433594 0.472656,-0.673828 -1.089844,-0.759765 c -0.703251,-0.788604 -1.103516,-1.81332 -1.103516,-2.875 0,-1.142896 0.458431,-2.248885 1.265625,-3.056641 0.807759,-0.807194 1.911794,-1.263672 3.054688,-1.263672 1.142894,0 2.246932,0.456479 3.054687,1.263672 0.807195,0.807756 1.265625,1.913745 1.265625,3.056641 0,1.132698 -0.447316,2.221196 -1.240234,3.029297 l -0.441406,0.449218 -0.509766,0.458985 0.02539,0.02734 -0.02344,0.02344 0.423828,0.417969 0.296875,0.353515 3.228516,4.632813 -0.03711,0.0293 0.36914,0.447265 0.400391,0.574219 0.976562,1.037109 1.976563,-1.52539 -0.0918,-0.132813 c 2.623638,-2.584827 4.152344,-6.105253 4.152344,-9.822265 0,-3.666008 -1.458899,-7.184816 -4.046875,-9.779297 C 31.184816,10.222569 27.666008,8.7617187 24,8.7617188 Z m 0,1 c 3.400043,0 6.662846,1.3550442 9.070312,3.7558592 2.401543,2.40758 3.75586,5.67167 3.75586,9.072266 0,3.587147 -1.505945,6.999311 -4.125,9.417968 l -0.304688,0.283204 0.220703,0.349609 0.0059,0.01172 -0.220703,-0.31836 -0.50586,0.390625 -0.304687,-0.324218 -0.382813,-0.546875 -0.0059,-0.0059 -3.556641,-5.105469 -0.11914,-0.144531 0.01758,-0.01758 -0.0039,-0.0039 0.251953,-0.257813 c 0.975614,-0.994295 1.527343,-2.33259 1.527343,-3.728515 0,-1.409562 -0.563389,-2.767776 -1.558593,-3.763672 C 26.765822,17.830969 25.409561,17.269531 24,17.269531 c -1.409561,0 -2.765821,0.561438 -3.761719,1.556641 -0.995204,0.995896 -1.558594,2.35411 -1.558594,3.763672 0,1.322967 0.495457,2.598684 1.378907,3.574218 l 0.03906,0.04102 0.382813,0.265625 -0.203125,0.289063 -3.953125,5.671875 -0.183594,0.263671 -0.431641,-0.320312 -0.002,-0.002 c -2.869353,-2.434234 -4.533203,-6.018767 -4.533203,-9.783203 0,-3.400596 1.354317,-6.664686 3.75586,-9.072266 C 17.337154,11.116766 20.599957,9.7617187 24,9.7617188 Z m -0.441406,0.6972652 -0.539063,0.04492 c -2.400091,0.194938 -4.689305,1.100584 -6.572265,2.595703 l -0.40625,0.324219 0.33789,0.394531 3.638672,4.230469 0.375,-0.28125 c 0.8028,-0.601955 1.744262,-0.992565 2.738281,-1.136719 l 0.427735,-0.0625 z m 0.882812,0 v 6.109375 l 0.427735,0.0625 c 1.033016,0.149973 2.009857,0.566173 2.832031,1.208985 l 0.376953,0.292968 3.974609,-4.626953 -0.398437,-0.324218 c -1.90195,-1.544189 -4.230519,-2.479523 -6.673828,-2.677735 z m -1.882812,1.167969 v 4.191406 c -0.826295,0.177225 -1.604429,0.503592 -2.314453,0.960938 l -2.716797,-3.160156 c 1.491074,-1.072109 3.209301,-1.751192 5.03125,-1.992188 z m 2.882812,0 c 1.86262,0.246259 3.617699,0.952466 5.13086,2.066406 l -2.714844,3.16211 c -0.736597,-0.493763 -1.549521,-0.845067 -2.416016,-1.03125 z m -10.046875,2.396485 -0.380859,0.421875 c -1.712082,1.89323 -2.781885,4.271419 -3.064453,6.796874 l -0.0625,0.554688 h 6.130859 l 0.08008,-0.400391 c 0.17432,-0.86407 0.536563,-1.681852 1.0625,-2.390625 l 0.238281,-0.320312 z m 17.300781,0.0918 -0.373046,0.433594 -3.640625,4.234375 0.228515,0.318359 c 0.48837,0.686264 0.825362,1.468901 0.992188,2.294922 l 0.08008,0.400391 h 6.130859 l -0.0625,-0.554688 c -0.277344,-2.481054 -1.314769,-4.820954 -2.974609,-6.697265 z m -17.259765,1.490235 2.746094,3.199218 c -0.399751,0.615985 -0.696937,1.284365 -0.886719,1.992188 h -4.199219 c 0.315231,-1.907804 1.115764,-3.68461 2.339844,-5.191406 z m 17.210937,0.09961 c 1.178775,1.485757 1.951776,3.226264 2.259766,5.091797 h -4.197266 c -0.178926,-0.667713 -0.450372,-1.301424 -0.816406,-1.888672 z m -20.783203,6.972656 0.02734,0.525391 c 0.155701,3.062336 1.470029,5.954712 3.666016,8.085937 l 0.421875,0.410157 3.537109,-5.074219 -0.230469,-0.291016 c -0.729592,-0.915895 -1.175259,-2.030644 -1.28125,-3.201172 l -0.04102,-0.455078 z m 18.173828,0 -0.04102,0.455078 c -0.107698,1.186992 -0.56458,2.315807 -1.310547,3.238282 l -0.236328,0.292968 3.533203,5.070313 0.421875,-0.40625 c 2.21893,-2.134543 3.548074,-5.044437 3.705078,-8.125 l 0.02734,-0.525391 h -0.527344 z m -17.021484,1 h 4.101562 c 0.168365,1.061238 0.567694,2.060995 1.1875,2.9375 l -2.406249,3.451172 c -1.628222,-1.769205 -2.641603,-3.991497 -2.882813,-6.388672 z m 17.867187,0 h 4.09961 c -0.243347,2.414792 -1.26736,4.653086 -2.916016,6.427735 l -2.402344,-3.447266 c 0.636242,-0.88598 1.046999,-1.900721 1.21875,-2.980469 z"
     id="path24" />
</svg>
