<?xml version="1.0" encoding="UTF-8" standalone="no"?>
<!-- Generator: Gravit.io -->

<svg
   style="isolation:isolate"
   viewBox="0 0 48 48"
   width="48pt"
   height="48pt"
   version="1.1"
   id="svg9"
   sodipodi:docname="org.gabmus.gfeeds.svg"
   inkscape:version="1.1.2 (0a00cf5339, 2022-02-04)"
   xmlns:inkscape="http://www.inkscape.org/namespaces/inkscape"
   xmlns:sodipodi="http://sodipodi.sourceforge.net/DTD/sodipodi-0.dtd"
   xmlns:xlink="http://www.w3.org/1999/xlink"
   xmlns="http://www.w3.org/2000/svg"
   xmlns:svg="http://www.w3.org/2000/svg">
  <defs
     id="defs13">
    <linearGradient
       inkscape:collect="always"
       xlink:href="#_lgradient_4"
       id="linearGradient872"
       x1="-12.025727"
       y1="6.1170783"
       x2="-0.085100174"
       y2="6.1170783"
       gradientUnits="userSpaceOnUse"
       gradientTransform="matrix(3.8358211,0,0,3.8371386,-0.00544341,-0.00268054)" />
    <linearGradient
       id="_lgradient_1"
       x1="0.18336116"
       y1="0.24917752"
       x2="0.9027437"
       y2="0.90347725"
       gradientTransform="matrix(24.617266,0,0,24.816118,10.841288,10.089605)"
       gradientUnits="userSpaceOnUse">
      <stop
         offset="2.608695652173913%"
         stop-opacity="1"
         style="stop-color:rgb(179,255,171)"
         id="stop2-3" />
      <stop
         offset="98.69565217391305%"
         stop-opacity="1"
         style="stop-color:rgb(18,255,247)"
         id="stop4-6" />
    </linearGradient>
    <linearGradient
       inkscape:collect="always"
       xlink:href="#_lgradient_4"
       id="linearGradient15"
       x1="-9.6850061"
       y1="45.161198"
       x2="11.98815"
       y2="21.735205"
       gradientUnits="userSpaceOnUse"
       gradientTransform="matrix(1.1147442,0,0,1.1150348,-0.01237238,-3.3277956)" />
    <linearGradient
       inkscape:collect="always"
       xlink:href="#_lgradient_4"
       id="linearGradient896"
       x1="12.44039"
       y1="24"
       x2="35.559601"
       y2="24"
       gradientUnits="userSpaceOnUse" />
  </defs>
  <sodipodi:namedview
     id="namedview11"
     pagecolor="#ffffff"
     bordercolor="#666666"
     borderopacity="1.0"
     inkscape:pageshadow="2"
     inkscape:pageopacity="0.0"
     inkscape:pagecheckerboard="0"
     inkscape:document-units="pt"
     showgrid="false"
     inkscape:zoom="10.21875"
     inkscape:cx="31.95107"
     inkscape:cy="32"
     inkscape:window-width="1600"
     inkscape:window-height="836"
     inkscape:window-x="0"
     inkscape:window-y="0"
     inkscape:window-maximized="1"
     inkscape:current-layer="svg9" />
  <linearGradient
     id="_lgradient_4"
     x1="0.05681818181818182"
     y1="0.9542682926829268"
     x2="0.9624202551834131"
     y2="0.05929075738125844"
     gradientTransform="matrix(23.119213,0,0,21.542679,12.440394,13.228415)"
     gradientUnits="userSpaceOnUse">
    <stop
       offset="0%"
       stop-opacity="1"
       style="stop-color:rgb(241,39,17)"
       id="stop2" />
    <stop
       offset="99.1304347826087%"
       stop-opacity="1"
       style="stop-color:rgb(245,175,25)"
       id="stop4" />
  </linearGradient>
  <rect
     x="-46.783188"
     y="1.2253767"
     height="45.80014"
     rx="6.1837621"
     shape-rendering="crispEdges"
     id="rect5-6-7-3"
     ry="6.8055277"
     transform="matrix(0.00524063,-0.99998627,0.99998801,0.00489691,0,0)"
     style="isolation:isolate;fill:#ff5600;fill-opacity:0.13470298;stroke:url(#linearGradient872);stroke-width:2.0301;stroke-miterlimit:4;stroke-dasharray:none;stroke-opacity:1"
     width="45.801998" />
  <rect
     x="-15.686804"
     y="17.260084"
     height="33.345856"
     rx="6.7920032"
     shape-rendering="crispEdges"
     id="rect5-6-6-6-6"
     style="isolation:isolate;fill:#ff5600;fill-opacity:0.13470298;stroke:url(#linearGradient15);stroke-width:1.67233;stroke-miterlimit:4;stroke-dasharray:none;stroke-opacity:1"
     ry="7.4743071"
     transform="matrix(0.72446484,-0.68931175,0.68622417,0.72739012,0,0)"
     width="33.338203" />
  <path
     style="color:#000000;fill:url(#linearGradient896);fill-rule:evenodd;-inkscape-stroke:none"
     d="m 15.068359,12.728516 c -1.720693,0 -3.128906,1.40626 -3.128906,3.126953 v 11.560547 c 0,0.850515 0.699984,1.550781 1.550781,1.550781 0.850798,0 1.552735,-0.699984 1.552735,-1.550781 V 16.90625 c 0,-0.599581 0.477235,-1.076172 1.076172,-1.076172 h 15.761718 c 0.598937,0 1.076172,0.476591 1.076172,1.076172 v 2.101562 c 0,0.850798 0.701937,1.550782 1.552735,1.550782 0.850797,0 1.550781,-0.700266 1.550781,-1.550782 v -3.152343 c 0,-1.720693 -1.408213,-3.126953 -3.128906,-3.126953 z m 0,1 h 17.863282 c 1.179535,0 2.128906,0.947418 2.128906,2.126953 v 3.152343 c 0,0.30938 -0.241684,0.550782 -0.550781,0.550782 -0.309097,0 -0.552735,-0.241685 -0.552735,-0.550782 V 16.90625 c 0,-1.140753 -0.935758,-2.076172 -2.076172,-2.076172 H 16.119141 c -1.140414,0 -2.076172,0.935419 -2.076172,2.076172 v 10.509766 c 0,0.309097 -0.243638,0.550781 -0.552735,0.550781 -0.309097,0 -0.550781,-0.241402 -0.550781,-0.550781 V 15.855469 c 0,-1.179535 0.949371,-2.126953 2.128906,-2.126953 z m 2.404297,5.568359 c -0.705948,0.0088 -1.280578,0.597083 -1.273437,1.302734 0.0064,0.706332 0.597291,1.28301 1.302734,1.273438 h 0.199219 c 1.903752,0 3.736844,0.709715 5.142578,1.992187 1.410572,1.282213 2.288281,3.04265 2.460937,4.941407 0.06563,0.702697 0.700481,1.22549 1.402344,1.160156 0.702023,-0.06606 1.229634,-0.698372 1.164063,-1.400391 -0.237831,-2.534971 -1.40822,-4.893919 -3.292969,-6.607422 -1.883256,-1.712098 -4.336352,-2.662109 -6.882813,-2.662109 h -0.01172 -0.207032 z m 0.01367,1 h 0.197266 0.01172 c 2.297747,0 4.509258,0.857095 6.208985,2.402344 1.699218,1.544828 2.755989,3.67236 2.970703,5.960937 0.01511,0.161752 -0.09408,0.296909 -0.259766,0.3125 -0.164859,0.01535 -0.299409,-0.09674 -0.314453,-0.257812 -0.195235,-2.147067 -1.188966,-4.138192 -2.783203,-5.587891 -1.589923,-1.450511 -3.663968,-2.253906 -5.816406,-2.253906 h -0.208985 -0.0039 c -0.164232,0.0022 -0.287577,-0.118876 -0.289062,-0.283203 -0.0017,-0.164024 0.123382,-0.290932 0.287109,-0.292969 z m 0.1875,2.152344 -0.246094,0.0059 c -0.705281,0.01436 -1.278105,0.608462 -1.263672,1.314453 0.01436,0.705281 0.608642,1.276165 1.314454,1.261719 h 0.002 l 0.224609,-0.0059 c 6.52e-4,0 0.0013,-10e-7 0.002,0 1.067302,4.66e-4 2.096783,0.382529 2.910156,1.078125 0.812218,0.694165 1.347287,1.658505 1.517579,2.714843 0.109367,0.695637 0.77536,1.178273 1.470703,1.06836 0.696086,-0.110959 1.180093,-0.774259 1.072265,-1.470703 -0.260369,-1.661707 -1.107751,-3.177815 -2.390625,-4.269532 -1.278433,-1.097313 -2.907541,-1.697265 -4.591797,-1.697265 z m 16.835938,0.263672 c -0.850516,0 -1.552735,0.69803 -1.552735,1.548828 v 6.832031 c 0,0.599581 -0.477235,1.076172 -1.076172,1.076172 H 19.796875 c -0.850777,0 -1.550781,0.700265 -1.550781,1.550781 0,0.850516 0.699721,1.550781 1.550781,1.550781 h 13.134766 c 1.720693,0 3.128906,-1.40626 3.128906,-3.126953 v -7.882812 c 0,-0.850515 -0.700266,-1.548828 -1.550781,-1.548828 z m -16.826172,0.736328 h 0.01172 c 1.447164,0 2.843006,0.513968 3.939454,1.455078 l 0.002,0.002 c 1.101639,0.936734 1.82922,2.237571 2.052734,3.664062 0.0239,0.160664 -0.07908,0.304389 -0.240234,0.330079 -0.162923,0.02575 -0.300893,-0.07601 -0.326172,-0.238282 v -0.002 c -0.207486,-1.287063 -0.860454,-2.466012 -1.855469,-3.316406 -0.993362,-0.849522 -2.255616,-1.318359 -3.5625,-1.318359 h -0.0059 l -0.240235,0.0059 c -0.163863,0.0034 -0.291574,-0.118809 -0.294922,-0.283203 -0.0034,-0.164668 0.118809,-0.289622 0.283204,-0.292969 z m 16.826172,0.263672 c 0.309379,0 0.550781,0.239448 0.550781,0.548828 v 7.882812 c 0,1.179535 -0.949371,2.126953 -2.128906,2.126953 H 19.796875 c -0.309817,0 -0.550781,-0.241402 -0.550781,-0.550781 0,-0.309379 0.240681,-0.550781 0.550781,-0.550781 h 12.083984 c 1.140414,0 2.076172,-0.935419 2.076172,-2.076172 v -6.832031 c 0,-0.309097 0.243355,-0.548828 0.552735,-0.548828 z m -16.814454,3.203125 c -1.430604,0 -2.601562,1.170958 -2.601562,2.601562 0,1.430604 1.170958,2.601563 2.601562,2.601563 1.430604,0 2.601563,-1.170959 2.601563,-2.601563 0,-1.430604 -1.170959,-2.601562 -2.601563,-2.601562 z m 0,1 c 0.889185,0 1.601563,0.712377 1.601563,1.601562 0,0.889184 -0.712378,1.601563 -1.601563,1.601563 -0.889185,0 -1.601562,-0.712379 -1.601562,-1.601563 0,-0.889185 0.712377,-1.601562 1.601562,-1.601562 z m -4.205078,2.152343 c -0.850797,0 -1.550781,0.700267 -1.550781,1.550782 0,0.967358 0.384942,1.898465 1.074219,2.582031 0.682983,0.687575 1.614188,1.070312 2.580078,1.070312 h 0.03711 l 0.123047,-0.0059 h -0.02734 c 0.815867,0.0048 1.417968,-0.729747 1.417968,-1.544922 0,-0.648834 -0.446443,-1.1269 -1.013672,-1.349609 l -0.03711,-0.201172 h -0.416016 -0.08594 c -0.15204,-0.003 -0.287286,-0.06334 -0.388672,-0.164063 -0.104336,-0.109477 -0.160156,-0.242349 -0.160156,-0.386718 0,-0.850798 -0.701937,-1.550782 -1.552735,-1.550782 z m 0,1 c 0.309097,0 0.552735,0.241685 0.552735,0.550782 0,0.410335 0.164093,0.800791 0.445312,1.089843 l 0.002,0.002 0.0039,0.002 c 0.287089,0.287089 0.673986,0.449176 1.078125,0.457031 h 0.0059 0.09961 c 0.239702,0 0.466797,0.219632 0.466797,0.550781 0,0.34472 -0.218604,0.546053 -0.412109,0.544922 h -0.01367 l -0.111328,0.0059 h -0.01367 c -0.703126,0 -1.379693,-0.279452 -1.873047,-0.777343 h -0.002 l -0.002,-0.002 c -0.498164,-0.494036 -0.777344,-1.16992 -0.777344,-1.873046 0,-0.30938 0.241684,-0.550782 0.550781,-0.550782 z"
     id="path7" />
</svg>
