<?xml version="1.0" encoding="UTF-8" standalone="no"?>
<!-- Generator: Gravit.io -->

<svg
   style="isolation:isolate"
   viewBox="0 0 48 48"
   width="48pt"
   height="48pt"
   version="1.1"
   id="svg20"
   sodipodi:docname="org.gnome.Snapshot.svg"
   inkscape:version="1.1.2 (0a00cf5339, 2022-02-04)"
   xmlns:inkscape="http://www.inkscape.org/namespaces/inkscape"
   xmlns:sodipodi="http://sodipodi.sourceforge.net/DTD/sodipodi-0.dtd"
   xmlns:xlink="http://www.w3.org/1999/xlink"
   xmlns="http://www.w3.org/2000/svg"
   xmlns:svg="http://www.w3.org/2000/svg">
  <defs
     id="defs24">
    <linearGradient
       inkscape:collect="always"
       xlink:href="#_lgradient_9"
       id="linearGradient872"
       x1="-12.025727"
       y1="6.1170783"
       x2="-0.085100174"
       y2="6.1170783"
       gradientUnits="userSpaceOnUse"
       gradientTransform="matrix(3.8358211,0,0,3.8371386,-0.00544341,-0.00268054)" />
    <linearGradient
       id="_lgradient_1"
       x1="0.18336116"
       y1="0.24917752"
       x2="0.9027437"
       y2="0.90347725"
       gradientTransform="matrix(24.617266,0,0,24.816118,10.841288,10.089605)"
       gradientUnits="userSpaceOnUse">
      <stop
         offset="2.608695652173913%"
         stop-opacity="1"
         style="stop-color:rgb(179,255,171)"
         id="stop2-3" />
      <stop
         offset="98.69565217391305%"
         stop-opacity="1"
         style="stop-color:rgb(18,255,247)"
         id="stop4-6" />
    </linearGradient>
    <linearGradient
       inkscape:collect="always"
       xlink:href="#_lgradient_9"
       id="linearGradient15"
       x1="-9.6850061"
       y1="45.161198"
       x2="11.98815"
       y2="21.735205"
       gradientUnits="userSpaceOnUse"
       gradientTransform="matrix(1.1147442,0,0,1.1150348,-0.01237238,-3.3277956)" />
    <linearGradient
       inkscape:collect="always"
       xlink:href="#_lgradient_9"
       id="linearGradient1135"
       x1="12.657079"
       y1="21.728434"
       x2="35.600922"
       y2="21.728434"
       gradientUnits="userSpaceOnUse" />
  </defs>
  <sodipodi:namedview
     id="namedview22"
     pagecolor="#ffffff"
     bordercolor="#666666"
     borderopacity="1.0"
     inkscape:pageshadow="2"
     inkscape:pageopacity="0.0"
     inkscape:pagecheckerboard="0"
     inkscape:document-units="pt"
     showgrid="false"
     inkscape:zoom="7.2257474"
     inkscape:cx="32.038208"
     inkscape:cy="31.969011"
     inkscape:window-width="1600"
     inkscape:window-height="836"
     inkscape:window-x="0"
     inkscape:window-y="0"
     inkscape:window-maximized="1"
     inkscape:current-layer="svg20" />
  <linearGradient
     id="_lgradient_8"
     x1="0.13281250000000006"
     y1="0.14338235294117652"
     x2="0.9999999999999998"
     y2="1"
     gradientTransform="matrix(36.645,0,0,11.375,5.806,36.625)"
     gradientUnits="userSpaceOnUse">
    <stop
       offset="0%"
       stop-opacity="1"
       style="stop-color:rgb(243,137,95)"
       id="stop2" />
    <stop
       offset="66.47858673673248%"
       stop-opacity="1"
       style="stop-color:rgb(150,34,170)"
       id="stop4" />
    <stop
       offset="100%"
       stop-opacity="1"
       style="stop-color:rgb(74,30,239)"
       id="stop6" />
  </linearGradient>
  <linearGradient
     id="_lgradient_9"
     x1="0.260429186698718"
     y1="0.06287560096153848"
     x2="0.8062429141946263"
     y2="0.9372874258387889"
     gradientTransform="matrix(40.258,0,0,40.258,4,0)"
     gradientUnits="userSpaceOnUse">
    <stop
       offset="0%"
       stop-opacity="1"
       style="stop-color:rgb(135,154,242)"
       id="stop11" />
    <stop
       offset="47.91666666666667%"
       stop-opacity="1"
       style="stop-color:rgb(211,32,139)"
       id="stop13" />
    <stop
       offset="97.91666666666666%"
       stop-opacity="1"
       style="stop-color:rgb(253,160,0)"
       id="stop15" />
  </linearGradient>
  <rect
     x="-46.783188"
     y="1.2253767"
     height="45.80014"
     rx="6.1837621"
     shape-rendering="crispEdges"
     id="rect5-6-7-3"
     ry="6.8055277"
     transform="matrix(0.00524063,-0.99998627,0.99998801,0.00489691,0,0)"
     style="isolation:isolate;fill:#ff4900;fill-opacity:0.13470298;stroke:url(#linearGradient872);stroke-width:2.0301;stroke-miterlimit:4;stroke-dasharray:none;stroke-opacity:1"
     width="45.801998" />
  <rect
     x="-15.686804"
     y="17.260084"
     height="33.345856"
     rx="6.7920032"
     shape-rendering="crispEdges"
     id="rect5-6-6-6-6"
     style="isolation:isolate;fill:#ff4900;fill-opacity:0.13470298;stroke:url(#linearGradient15);stroke-width:1.67233;stroke-miterlimit:4;stroke-dasharray:none;stroke-opacity:1"
     ry="7.4743071"
     transform="matrix(0.72446484,-0.68931175,0.68622417,0.72739012,0,0)"
     width="33.338203" />
  <path
     style="color:#000000;fill:url(#linearGradient1135);-inkscape-stroke:none"
     d="m 24.128906,7.5507812 c -3.174443,0 -6.218346,1.263355 -8.464843,3.5039068 l -0.002,0.002 c -2.240551,2.246498 -3.505859,5.290399 -3.505859,8.464843 0,0.589007 0.04257,1.1835 0.128906,1.767578 0.133234,0.910834 0.993961,1.54965 1.904297,1.414063 0.910377,-0.135587 1.549247,-0.995462 1.416016,-1.90625 -0.06188,-0.426041 -0.0957,-0.848299 -0.0957,-1.275391 0,-2.285951 0.907412,-4.475233 2.52539,-6.09375 1.486177,-1.485682 3.472963,-2.281122 5.554688,-2.416015 -0.308296,0.193587 -0.548828,0.477226 -0.548828,0.863281 0,0.594935 0.492276,1.087891 1.08789,1.087891 0.595614,0 1.087891,-0.492956 1.087891,-1.087891 0,-0.386055 -0.240533,-0.669694 -0.548828,-0.863281 2.081724,0.134893 4.06851,0.930333 5.554687,2.416015 0.614624,0.614828 1.021365,1.371288 1.419922,2.125 -1.059667,-1.861057 -2.692027,-3.3385 -4.736328,-4.023437 -0.565296,-0.190865 -1.190874,0.120808 -1.380859,0.685547 h 0.002 c -0.191263,0.565424 0.11833,1.190697 0.683593,1.380859 1.67883,0.563142 3.056588,1.77592 3.828125,3.373047 v 0.002 c 0.260993,0.535562 0.918638,0.763238 1.455079,0.503906 0.513683,-0.248327 0.718103,-0.863648 0.507812,-1.384765 0.469817,1.076881 0.746094,2.233633 0.746094,3.43164 0,2.285951 -0.907412,4.477186 -2.525391,6.095703 -1.618517,1.617979 -3.807799,2.523438 -6.09375,2.523438 -2.252004,0 -4.420507,-0.884057 -6.027344,-2.462891 -0.65732,-0.643589 -1.726931,-0.632495 -2.371093,0.02539 -0.644076,0.6578 -0.632707,1.72753 0.02539,2.371094 1.426883,1.399527 3.21534,2.232764 5.103516,2.777343 -0.04702,0.06431 -0.09029,0.132659 -0.138672,0.195313 -0.270383,0.345501 -0.578555,0.661677 -0.921875,0.945312 -0.274168,0.220592 -0.57162,0.410091 -0.884766,0.560547 h -4.050781 c -0.919833,0 -1.675781,0.755949 -1.675781,1.675782 0,0.920165 0.755811,1.677734 1.675781,1.677734 h 18.53125 c 0.920302,0 1.677735,-0.757433 1.677735,-1.677734 0,-0.91997 -0.757569,-1.675782 -1.677735,-1.675782 h -4.052734 c -0.0079,-0.0038 -0.01788,-0.008 -0.02539,-0.01172 -0.339262,-0.169632 -0.651226,-0.375685 -0.945312,-0.621094 l -0.0039,-0.0039 c -0.321924,-0.274629 -0.614274,-0.586794 -0.875,-0.929688 v -0.002 c -0.0343,-0.04484 -0.06602,-0.09472 -0.09961,-0.140625 1.929327,-0.556465 3.757053,-1.413224 5.203125,-2.855469 2.240552,-2.246498 3.505859,-5.292353 3.505859,-8.466797 0,-3.174444 -1.265307,-6.218345 -3.505859,-8.464843 v -0.002 C 30.349205,8.8141362 27.30335,7.5507813 24.128906,7.5507812 Z m 0,1.0000001 c 2.908877,0 5.699952,1.1585291 7.759766,3.2128907 2.053632,2.0597 3.212891,4.849487 3.21289,7.757812 0,2.908877 -1.158528,5.699952 -3.21289,7.759766 -2.059814,2.054362 -4.850889,3.212891 -7.759766,3.212891 -2.869357,0 -5.626204,-1.125839 -7.673828,-3.134766 -0.270871,-0.264889 -0.27723,-0.685862 -0.01172,-0.957031 0.265429,-0.271084 0.688476,-0.274623 0.958985,-0.0098 1.794246,1.761963 4.213816,2.748047 6.726562,2.748047 2.550386,0 4.995222,-1.011448 6.800781,-2.816406 h 0.002 c 1.804958,-1.80556 2.816406,-4.252348 2.816406,-6.802735 0,-2.550386 -1.011448,-4.995221 -2.816406,-6.800781 h -0.002 c -1.805559,-1.804958 -4.250394,-2.8164061 -6.800781,-2.8164061 -2.550386,0 -4.995222,1.0114481 -6.800781,2.8164061 -1.804958,1.80556 -2.818359,4.250395 -2.818359,6.800781 0,0.479078 0.03739,0.951188 0.105468,1.419922 0.05485,0.374951 -0.196903,0.71558 -0.572265,0.771485 -0.375402,0.05591 -0.712738,-0.193454 -0.767578,-0.56836 v -0.002 c -0.07895,-0.534102 -0.119141,-1.08052 -0.119141,-1.621094 0,-2.908877 1.160482,-5.699951 3.214844,-7.759765 2.059624,-2.0531457 4.849856,-3.2109377 7.757812,-3.2109377 z m 0,3.2343747 c 0.05409,0 0.08789,0.03517 0.08789,0.08984 0,0.05363 -0.0338,0.08789 -0.08789,0.08789 -0.05409,0 -0.08789,-0.03426 -0.08789,-0.08789 0,-0.05468 0.0338,-0.08984 0.08789,-0.08984 z m 2.458985,0.69336 c 1.977641,0.662603 3.603144,2.098869 4.509765,3.978515 v 0.002 c 0.02455,0.05038 0.0093,0.09184 -0.03906,0.115235 -0.0476,0.02301 -0.09482,0.0065 -0.119141,-0.04102 -0.888066,-1.838348 -2.476837,-3.238212 -4.410156,-3.886719 -0.04986,-0.01779 -0.07177,-0.06081 -0.05469,-0.111328 v -0.002 c 0.01746,-0.05191 0.06078,-0.07241 0.113282,-0.05469 z m -2.458985,2.130859 c -1.457342,0 -2.859367,0.582024 -3.888672,1.611328 -1.029177,1.029805 -1.611328,2.433796 -1.611328,3.890625 0,1.457342 0.582024,2.859368 1.611328,3.888672 1.029305,1.029304 2.43133,1.611328 3.888672,1.611328 1.457343,0 2.859368,-0.582024 3.888672,-1.611328 1.029305,-1.029304 1.611328,-2.43133 1.611328,-3.888672 0,-1.456829 -0.58215,-2.86082 -1.611328,-3.890625 -1.029304,-1.029304 -2.431329,-1.611328 -3.888672,-1.611328 z m 0,1 c 1.190505,0 2.340469,0.477187 3.181641,1.318359 0.841298,0.841811 1.318359,1.993718 1.318359,3.183594 0,1.190503 -0.477187,2.340469 -1.318359,3.181641 -0.841172,0.841172 -1.991136,1.318359 -3.181641,1.318359 -1.190503,0 -2.340469,-0.477187 -3.18164,-1.318359 -0.841172,-0.841172 -1.31836,-1.991138 -1.31836,-3.181641 0,-1.189876 0.477061,-2.341783 1.31836,-3.183594 0.841172,-0.841172 1.991137,-1.318359 3.18164,-1.318359 z m 0,0.177734 c -1.145396,0 -2.247519,0.459039 -3.058594,1.263672 l -0.002,0.002 c -0.804495,0.810937 -1.263671,1.912923 -1.263672,3.058594 0,1.146166 0.459392,2.247229 1.263672,3.058594 h 0.002 v 0.002 c 0.811075,0.804633 1.913198,1.263672 3.058594,1.263672 1.145891,0 2.247612,-0.459132 3.058594,-1.263672 v -0.002 h 0.002 c 0.80428,-0.811365 1.263672,-1.912428 1.263672,-3.058594 0,-1.145671 -0.459178,-2.247657 -1.263672,-3.058594 l -0.002,-0.002 c -0.810982,-0.804539 -1.912703,-1.263672 -3.058594,-1.263672 z m 0,1 c 0.878464,0 1.729439,0.353538 2.353516,0.972657 0.617964,0.623943 0.970703,1.474935 0.970703,2.351562 0,0.877273 -0.352523,1.726908 -0.970703,2.351563 -3.91e-4,3.87e-4 -0.0016,-3.88e-4 -0.002,0 -3.88e-4,3.91e-4 3.88e-4,0.0016 0,0.002 -0.623899,0.617921 -1.474015,0.970703 -2.351563,0.970703 -0.876903,0 -1.727757,-0.352876 -2.351562,-0.970703 l -0.002,-0.002 c -0.618181,-0.624655 -0.970704,-1.47429 -0.970704,-2.351563 0,-0.877543 0.353494,-1.729395 0.972657,-2.353516 0.623805,-0.617828 1.474659,-0.970703 2.351562,-0.970703 z m 0,0.175782 c -0.830441,0 -1.634531,0.32798 -2.224609,0.923828 -0.595393,0.589622 -0.921875,1.393895 -0.921875,2.224609 0,0.831175 0.326617,1.635123 0.921875,2.224609 0.589927,0.595019 1.393896,0.921876 2.224609,0.921875 0.830973,0 1.634938,-0.330034 2.22461,-0.925781 0.593567,-0.589244 0.921875,-1.390773 0.921875,-2.220703 0,-0.830713 -0.326481,-1.634987 -0.921875,-2.224609 -0.589773,-0.596224 -1.394167,-0.923828 -2.22461,-0.923828 z m 0,1 c 0.5684,0 1.117326,0.225554 1.515625,0.628906 l 0.002,0.002 0.002,0.002 c 0.403046,0.39845 0.626954,0.947496 0.626954,1.515625 0,0.568805 -0.223773,1.115089 -0.626954,1.513672 l -0.002,0.002 -0.002,0.002 c -0.398449,0.403045 -0.947496,0.628906 -1.515625,0.628906 -0.568127,0 -1.116342,-0.225483 -1.515625,-0.628906 l -0.002,-0.002 -0.002,-0.002 c -0.40318,-0.398583 -0.626953,-0.944868 -0.626953,-1.513672 0,-0.568128 0.223908,-1.117175 0.626953,-1.515625 l 0.002,-0.002 0.002,-0.002 c 0.399132,-0.40373 0.947227,-0.628906 1.515625,-0.628906 z m 0,0.177734 c -0.519259,0 -1.022689,0.204329 -1.394531,0.576172 -0.371486,0.371485 -0.576172,0.874555 -0.576172,1.394531 0,0.519731 0.205771,1.021466 0.576172,1.392578 0.371764,0.372531 0.875043,0.578125 1.394531,0.578125 0.519489,0 1.022768,-0.205596 1.394531,-0.578125 0.370401,-0.371112 0.576172,-0.872846 0.576172,-1.392578 0,-0.519977 -0.204686,-1.023046 -0.576172,-1.394531 -0.371841,-0.371842 -0.875271,-0.576172 -1.394531,-0.576172 z m 0,1 c 0.256971,0 0.506519,0.102221 0.6875,0.283203 0.181337,0.181336 0.283203,0.431248 0.283203,0.6875 0,0.257017 -0.101623,0.50592 -0.283203,0.6875 -0.181059,0.181432 -0.430757,0.283203 -0.6875,0.283203 -0.256741,0 -0.506442,-0.101772 -0.6875,-0.283203 -0.181579,-0.181579 -0.283203,-0.430483 -0.283203,-0.6875 0,-0.256252 0.101867,-0.506164 0.283203,-0.6875 0.18098,-0.18098 0.43053,-0.283203 0.6875,-0.283203 z m -2.318359,12.099609 c 0.269597,0.05357 0.544492,0.08013 0.818359,0.115235 -0.169747,0.257312 -0.324521,0.52349 -0.513672,0.767578 v 0.002 c -0.155872,0.202847 -0.323023,0.397945 -0.5,0.583984 l -0.802734,0.84375 h 6.634766 l -0.804688,-0.84375 c -0.197303,-0.206954 -0.383489,-0.424681 -0.556641,-0.652343 -0.170385,-0.22469 -0.309164,-0.466887 -0.46289,-0.701172 0.275829,-0.03528 0.552781,-0.06122 0.824219,-0.115235 0.08206,0.11772 0.160852,0.235047 0.25,0.351563 0.302366,0.397657 0.643407,0.764632 1.02539,1.089844 h 0.002 l 0.002,0.002 c 0.352109,0.294456 0.733124,0.546248 1.144532,0.751953 0.05483,0.02742 0.105001,0.05063 0.152343,0.07227 l 0.09961,0.04492 h 4.271484 c 0.379251,0 0.677735,0.297474 0.677735,0.675782 0,0.379113 -0.29862,0.677734 -0.677735,0.677734 h -18.53125 c -0.378308,0 -0.675781,-0.298485 -0.675781,-0.677734 0,-0.378444 0.297336,-0.675782 0.675781,-0.675782 h 4.271485 l 0.09961,-0.04492 c 0.03188,-0.01444 0.06168,-0.02712 0.0918,-0.04102 l 0.002,-0.002 0.0039,-0.002 c 0.398694,-0.189853 0.764588,-0.428703 1.097656,-0.697266 l 0.0039,-0.002 0.002,-0.002 c 0.396857,-0.327865 0.756847,-0.693669 1.074219,-1.09961 l 0.002,-0.002 v -0.002 c 0.105835,-0.137042 0.200971,-0.277723 0.298828,-0.417969 z m 1.972656,0.185547 c 0.119271,0.0036 0.22604,0.06836 0.345703,0.06836 0.11912,0 0.225031,-0.06481 0.34375,-0.06836 0.230298,0.386178 0.474628,0.764222 0.744141,1.126953 h -2.1875 c 0.271127,-0.362268 0.522086,-0.739446 0.753906,-1.126953 z"
     id="path18" />
</svg>
