<?xml version="1.0" encoding="UTF-8" standalone="no"?>
<!-- Generator: Gravit.io -->

<svg
   style="isolation:isolate"
   viewBox="0 0 48 48"
   width="48pt"
   height="48pt"
   version="1.1"
   id="svg9"
   sodipodi:docname="org.gnome.Extensions.svg"
   inkscape:version="1.1.2 (0a00cf5339, 2022-02-04)"
   xmlns:inkscape="http://www.inkscape.org/namespaces/inkscape"
   xmlns:sodipodi="http://sodipodi.sourceforge.net/DTD/sodipodi-0.dtd"
   xmlns:xlink="http://www.w3.org/1999/xlink"
   xmlns="http://www.w3.org/2000/svg"
   xmlns:svg="http://www.w3.org/2000/svg">
  <defs
     id="defs13">
    <linearGradient
       inkscape:collect="always"
       xlink:href="#_lgradient_6"
       id="linearGradient872"
       x1="-12.025727"
       y1="6.1170783"
       x2="-0.085100174"
       y2="6.1170783"
       gradientUnits="userSpaceOnUse"
       gradientTransform="matrix(3.8358211,0,0,3.8371386,-0.00544341,-0.00268054)" />
    <linearGradient
       id="_lgradient_1"
       x1="0.18336116"
       y1="0.24917752"
       x2="0.9027437"
       y2="0.90347725"
       gradientTransform="matrix(24.617266,0,0,24.816118,10.841288,10.089605)"
       gradientUnits="userSpaceOnUse">
      <stop
         offset="2.608695652173913%"
         stop-opacity="1"
         style="stop-color:rgb(179,255,171)"
         id="stop2-3" />
      <stop
         offset="98.69565217391305%"
         stop-opacity="1"
         style="stop-color:rgb(18,255,247)"
         id="stop4-6" />
    </linearGradient>
    <linearGradient
       inkscape:collect="always"
       xlink:href="#_lgradient_6"
       id="linearGradient15"
       x1="-9.6850061"
       y1="45.161198"
       x2="11.98815"
       y2="21.735205"
       gradientUnits="userSpaceOnUse"
       gradientTransform="matrix(1.1147442,0,0,1.1150348,-0.01237238,-3.3277956)" />
    <linearGradient
       inkscape:collect="always"
       xlink:href="#_lgradient_6"
       id="linearGradient932"
       x1="10.09033"
       y1="23.49979"
       x2="37.909657"
       y2="23.49979"
       gradientUnits="userSpaceOnUse" />
  </defs>
  <sodipodi:namedview
     id="namedview11"
     pagecolor="#ffffff"
     bordercolor="#666666"
     borderopacity="1.0"
     inkscape:pageshadow="2"
     inkscape:pageopacity="0.0"
     inkscape:pagecheckerboard="0"
     inkscape:document-units="pt"
     showgrid="false"
     inkscape:zoom="10.21875"
     inkscape:cx="31.95107"
     inkscape:cy="32"
     inkscape:window-width="1600"
     inkscape:window-height="836"
     inkscape:window-x="0"
     inkscape:window-y="0"
     inkscape:window-maximized="1"
     inkscape:current-layer="svg9" />
  <linearGradient
     id="_lgradient_6"
     x1="0"
     y1="0.5"
     x2="1"
     y2="0.5"
     gradientTransform="matrix(27.819348,0,0,23.676633,10.090326,11.661304)"
     gradientUnits="userSpaceOnUse">
    <stop
       offset="0%"
       stop-opacity="1"
       style="stop-color:rgb(67,233,123)"
       id="stop2" />
    <stop
       offset="97.82608695652173%"
       stop-opacity="1"
       style="stop-color:rgb(56,249,215)"
       id="stop4" />
  </linearGradient>
  <rect
     x="-46.783188"
     y="1.2253767"
     height="45.80014"
     rx="6.1837621"
     shape-rendering="crispEdges"
     id="rect5-6-7-3"
     ry="6.8055277"
     transform="matrix(0.00524063,-0.99998627,0.99998801,0.00489691,0,0)"
     style="isolation:isolate;fill:#00ff3b;fill-opacity:0.13470298;stroke:url(#linearGradient872);stroke-width:2.0301;stroke-miterlimit:4;stroke-dasharray:none;stroke-opacity:1"
     width="45.801998" />
  <rect
     x="-15.686804"
     y="17.260084"
     height="33.345856"
     rx="6.7920032"
     shape-rendering="crispEdges"
     id="rect5-6-6-6-6"
     style="isolation:isolate;fill:#00ff3b;fill-opacity:0.13470298;stroke:url(#linearGradient15);stroke-width:1.67233;stroke-miterlimit:4;stroke-dasharray:none;stroke-opacity:1"
     ry="7.4743071"
     transform="matrix(0.72446484,-0.68931175,0.68622417,0.72739012,0,0)"
     width="33.338203" />
  <path
     style="color:#000000;fill:url(#linearGradient932);fill-rule:evenodd;-inkscape-stroke:none"
     d="m 27.164062,11.162109 c -0.405693,-0.0069 -0.808763,0.05474 -1.191406,0.177735 h -0.002 c -0.466855,0.150829 -0.8777,0.418849 -1.205078,0.767578 l -0.002,0.002 -0.002,0.002 c -0.39319,0.430283 -0.618411,0.985037 -0.640625,1.5625 v 0.0078 0.02734 0.02539 0.02734 0.0059 c 0.0073,0.36271 0.08772,0.726561 0.251953,1.0625 0.115599,0.237739 0.257956,0.46823 0.427734,0.685547 0.05543,0.07208 0.119986,0.154451 0.197266,0.240234 0.03072,0.03631 0.05209,0.07306 0.07227,0.111329 0.0032,0.01603 0.0098,0.04491 0.0098,0.04492 0,0.0095 -0.0069,0.04902 -0.01563,0.08399 -0.0365,0.09642 -0.104489,0.19054 -0.199219,0.265625 -7.8e-4,6.18e-4 -0.0012,0.0013 -0.002,0.002 -0.141743,0.107128 -0.301831,0.181308 -0.476562,0.21875 h -0.0039 l -0.0039,0.002 c -0.16798,0.03839 -0.341539,0.05816 -0.515625,0.05859 l -0.246094,-0.01172 h -0.0039 c -0.195889,-0.01032 -0.391144,-0.04097 -0.564453,-0.0957 l -0.0059,-0.002 -0.0078,-0.002 c -0.131039,-0.03685 -0.26229,-0.101045 -0.371094,-0.181641 -0.06713,-0.04962 -0.119872,-0.116894 -0.15625,-0.185547 0.155495,-0.169937 0.300125,-0.350354 0.417969,-0.548828 l 0.002,-0.002 0.002,-0.0039 c 0.154014,-0.267847 0.280853,-0.55482 0.375,-0.857422 l 0.002,-0.002 v -0.002 c 0.07996,-0.261663 0.114216,-0.522051 0.121093,-0.777344 v -0.0059 -0.0078 c 0,-0.183707 -0.0216,-0.359199 -0.05664,-0.527344 v -0.002 l -0.002,-0.002 c -0.104838,-0.486747 -0.356387,-0.920363 -0.701172,-1.257813 l -0.002,-0.002 -0.002,-0.002 c -0.303517,-0.2894 -0.663993,-0.513857 -1.066406,-0.65039 l -0.002,-0.002 C 21.153302,11.264642 20.68501,11.189522 20.208984,11.203125 l -0.376953,0.01172 h -0.03125 l -0.01367,0.002 c -1.378022,0.07997 -2.730706,0.374426 -4.013671,0.859375 l 0.18164,0.480469 -0.214844,-0.466797 -0.980468,0.451172 -0.01563,0.0078 c -0.355332,0.19513 -0.62828,0.47467 -0.8125,0.789063 l -0.02734,0.04883 -0.01758,0.05469 c -0.06256,0.19812 -0.0677,0.385426 -0.05078,0.554688 l 0.498046,-0.05078 -0.496093,0.0625 0.425781,3.421874 0.09375,0.736329 0.002,0.0039 c 0.06966,0.445001 0.116056,0.895104 0.126953,1.341797 v 0.07617 0.02344 c 0,0.118841 -0.04348,0.233038 -0.08008,0.347656 -0.01853,-0.01154 -0.07691,-0.06055 -0.244141,-0.06055 l 0.214844,0.04883 -0.0957,-0.04687 -0.0059,-0.002 c -0.351306,-0.181695 -0.724704,-0.307789 -1.09961,-0.386718 l -0.0098,-0.002 -0.0098,-0.002 c -0.08902,-0.01489 -0.125094,-0.01465 -0.107422,-0.01172 l -0.02539,-0.0039 -0.236329,-0.01367 h -0.01563 c 0.09298,0 0.04228,-0.0059 -0.06445,-0.0059 h -0.0039 -0.0039 c -0.466462,0.0071 -0.930468,0.118817 -1.347656,0.341797 v 0.002 c -0.488969,0.262201 -0.899432,0.652209 -1.19336,1.121094 l -0.002,0.002 c -0.2317914,0.37227 -0.3813159,0.784447 -0.4570312,1.203125 -1.075e-4,5.94e-4 1.071e-4,0.0014 0,0.002 -0.077235,0.372321 -0.109375,0.745771 -0.109375,1.113281 0,0.218221 0.013857,0.431773 0.039063,0.648438 0.075203,0.738358 0.3679727,1.432622 0.8281247,2.007812 l 0.0039,0.0039 0.002,0.0039 c 0.283684,0.34042 0.643539,0.610573 1.052734,0.794922 0.342302,0.159624 0.719544,0.248047 1.107422,0.248047 0.01776,0 0.0729,0.01655 0.216797,-0.03125 l -0.136719,0.02539 0.126953,-0.0059 c 0.09127,0 0.154289,-0.01174 0.189453,-0.01758 l 0.0039,-0.002 h 0.0039 c 0.378344,-0.06936 0.73877,-0.210003 1.078125,-0.390625 0.009,0.07339 0.03884,0.145908 0.03711,0.21875 v 0.01563 0.01758 c 0.01754,0.397388 0.0293,0.798719 0.0293,1.191406 v 0.002 c 0.0058,1.890744 -0.20894,3.776764 -0.626953,5.617188 l -0.0957,0.419922 0.402344,0.15625 c 1.698109,0.662383 3.455816,1.162878 5.249999,1.49414 0.387843,0.08189 0.778038,0.126441 1.167969,0.132813 h 0.0039 0.0039 c 0.303398,0 0.602539,-0.03366 0.894531,-0.101563 l 0.002,-0.002 h 0.0039 c 0.459784,-0.113178 0.894478,-0.33296 1.25586,-0.658203 0.419932,-0.37573 0.70904,-0.884485 0.798828,-1.453125 0.02005,-0.114542 0.03714,-0.245154 0.0293,-0.394531 -0.0064,-0.195275 -0.05215,-0.378504 -0.103516,-0.558594 -0.0011,-0.0038 -8.61e-4,-0.008 -0.002,-0.01172 v -0.0078 -0.04297 l -0.0039,-0.0078 -0.0039,-0.01563 -0.0059,-0.01953 -0.002,-0.01172 h -0.002 c -6.9e-5,-2.22e-4 6.2e-5,-0.0018 0,-0.002 l -0.002,-0.002 v -0.002 l -0.002,-0.0059 c -9.74e-4,-0.0028 -0.003,-0.0071 -0.0039,-0.0098 -7.29e-4,-0.002 -0.0012,-0.0059 -0.002,-0.0078 l -0.138672,-0.417969 -0.04492,0.01172 c -0.04978,-0.10893 -0.085,-0.22412 -0.144531,-0.328125 -0.0025,-0.0043 -0.0034,-0.0094 -0.0059,-0.01367 -1.2e-5,-2.4e-5 -0.0037,-0.0035 -0.0039,-0.0039 -0.0021,-0.0036 -0.0018,-0.0082 -0.0039,-0.01172 l -0.0078,-0.01172 c -0.0053,-0.0095 -0.01036,-0.01788 -0.01563,-0.02734 l -0.0098,-0.01758 c -0.07001,-0.126454 -0.13744,-0.253579 -0.191406,-0.375 l -0.0059,-0.01563 -0.0098,-0.01563 c -0.02051,-0.03873 -0.04254,-0.108995 -0.06445,-0.185547 0,-0.03173 0.0078,-0.06182 0.01758,-0.08203 2.23e-4,-4.6e-4 -2.25e-4,-0.0015 0,-0.002 0.0448,-0.08368 0.116548,-0.163315 0.189453,-0.212891 0.129985,-0.08778 0.277714,-0.151844 0.433594,-0.185547 l 0.0078,-0.002 0.0078,-0.002 c 0.218949,-0.05473 0.436703,-0.07813 0.666015,-0.07813 h 0.0059 0.04687 c 0.202769,0 0.405091,0.02038 0.601562,0.06055 6.32e-4,1.29e-4 0.0013,-1.3e-4 0.002,0 0.136477,0.03052 0.267554,0.0816 0.38086,0.150391 0.06405,0.03899 0.111817,0.09033 0.152344,0.152343 0.0078,0.01687 0.01141,0.03057 0.01367,0.04297 -0.0105,0.05329 -0.02308,0.09842 -0.04102,0.128906 l -0.0078,0.01172 -0.179687,0.341797 -0.152344,0.275391 c -0.182257,0.330763 -0.310777,0.694251 -0.375,1.078125 -0.0104,0.04285 -0.02344,0.09662 -0.02344,0.18164 l 0.002,-0.03906 -0.01367,0.173828 v 0.01758 c 0,-0.01475 -9.56e-4,0.06472 0.0039,0.140625 0.01735,0.380149 0.130713,0.75378 0.341797,1.080078 0.205243,0.331627 0.485144,0.598083 0.802734,0.792969 l 0.0059,0.002 0.0039,0.002 c 0.228262,0.134272 0.46565,0.243945 0.710937,0.326172 6.15e-4,2.11e-4 0.0013,-2.11e-4 0.002,0 0.0014,4.58e-4 0.0025,0.0015 0.0039,0.002 0.791587,0.271569 1.616417,0.404741 2.451172,0.398438 0.49028,-2.33e-4 0.97889,-0.04394 1.458984,-0.125 h 0.002 c 1.298238,-0.221651 2.517866,-0.7787 3.53711,-1.607422 l 0.002,-0.002 c 0.378722,-0.306064 0.564223,-0.784976 0.5,-1.257813 v -0.002 l -0.539063,-4.066406 -0.07031,-0.5 0.0039,0.07031 c 0,-0.01921 -0.0039,-0.01948 -0.0059,-0.03711 v -0.03516 l -0.0078,-0.04102 C 33.35072,27.80697 33.306105,27.36771 33.294922,26.931641 v -0.105469 -0.01172 c 0,-0.11102 0.03567,-0.206257 0.06836,-0.302734 0.01976,0.0073 0.03866,0.01132 0.05859,0.01953 l 0.0918,0.03711 h 0.0039 l 0.07422,0.03125 c 0.346702,0.160016 0.713209,0.271322 1.083984,0.337891 0.0014,2.53e-4 0.0025,0.0017 0.0039,0.002 0.04149,0.0085 0.09146,0.01953 0.181641,0.01953 h -0.02734 l 0.226563,0.01172 h 0.01367 c -0.09298,0 -0.0699,0.0059 0.05859,0.0059 h 0.0039 0.0039 c 0.446581,-0.007 0.88989,-0.104553 1.298828,-0.294921 h 0.002 l 0.0039,-0.002 c 0.493652,-0.236395 0.924599,-0.591349 1.251954,-1.037109 l 0.002,-0.0039 0.0039,-0.0039 c 0.259543,-0.368824 0.450236,-0.787377 0.554687,-1.230469 0.09738,-0.390728 0.152344,-0.791838 0.152344,-1.195313 0,-0.164104 -0.0072,-0.336423 -0.0332,-0.517578 -0.08177,-0.81087 -0.419904,-1.577347 -0.964844,-2.183594 l -0.0039,-0.0039 -0.0039,-0.0039 c -0.312805,-0.333658 -0.690412,-0.599196 -1.113281,-0.775391 l -0.002,-0.002 c -0.356885,-0.146951 -0.746256,-0.232422 -1.144531,-0.232422 h -0.06641 l -0.167969,0.01367 0.03906,-0.002 c -0.02213,0 -0.08521,-0.001 -0.167969,0.01367 -0.385041,0.05951 -0.768831,0.163921 -1.138672,0.332031 l -0.05078,0.02148 h -0.01367 l -0.09766,0.04297 c -0.01963,0.0087 -0.05376,0.01532 -0.07813,0.02344 -0.01506,-0.07949 -0.02093,-0.150739 -0.02148,-0.226563 0.01138,-0.25927 0.03196,-0.505613 0.07422,-0.753906 l 0.0059,-0.04102 v -0.01172 l 0.0059,-0.02344 0.002,-0.01367 c 0.281418,-1.945978 0.431526,-3.90917 0.4375,-5.875 v -0.357421 l -0.335938,-0.117188 c -1.797274,-0.627237 -3.656218,-1.061717 -5.544921,-1.291016 -0.287001,-0.03799 -0.574499,-0.05633 -0.859375,-0.0625 z m -0.01953,1 c 0.257741,0.0056 0.512075,0.02219 0.75586,0.05469 h 0.002 0.0039 c 1.692917,0.205529 3.350882,0.619052 4.970703,1.158203 -0.02306,1.7833 -0.143147,3.567201 -0.398437,5.335937 l -0.01758,0.09375 v 0.06055 0.0059 c -0.04248,0.273942 -0.07075,0.541571 -0.08203,0.80664 v 0.01172 0.0098 c 0,0.151719 0.0156,0.300619 0.04492,0.447265 0.03973,0.198602 0.126956,0.378983 0.244141,0.533203 0.119532,0.159388 0.268203,0.230689 0.384765,0.269532 l 0.07617,0.02539 h 0.08203 c -0.09298,0 -0.08167,0.0059 0.04687,0.0059 h 0.04883 l 0.04883,-0.0098 c -0.04558,0.0091 -0.0031,0.0071 0.08594,-0.0078 l 0.01172,-0.002 0.01367,-0.0039 c 0.08033,-0.01786 0.182867,-0.05449 0.28125,-0.08789 h 0.03906 l 0.259766,-0.105469 0.0098,-0.0039 c 0.278156,-0.126436 0.576536,-0.210497 0.886718,-0.257813 h 0.0059 0.02148 l 0.146484,-0.01172 h 0.02734 c 0.252817,0 0.516818,0.05656 0.763672,0.158203 0.285102,0.11922 0.543086,0.30087 0.761719,0.533204 0.399664,0.446635 0.652813,1.015554 0.71289,1.611328 l 0.002,0.01172 0.002,0.01367 c 0.01797,0.116753 0.02344,0.243159 0.02344,0.390625 0,0.317345 -0.0415,0.638671 -0.121094,0.957032 l -0.002,0.0039 v 0.0039 c -0.07301,0.311532 -0.212233,0.612526 -0.40039,0.880859 -0.227773,0.308599 -0.525593,0.555417 -0.869141,0.720704 -5.78e-4,2.69e-4 -0.0014,-2.69e-4 -0.002,0 -8.37e-4,4.02e-4 -0.0011,0.0016 -0.002,0.002 -0.276034,0.127824 -0.577789,0.19413 -0.886719,0.199218 0.03049,-4.58e-4 -0.01303,-0.0026 -0.02539,-0.0039 l -0.02734,-0.002 -0.199219,-0.01172 h -0.01367 c 0.03684,0 0.02045,0.0014 0.0039,-0.002 h -0.0059 l -0.0039,-0.002 c -0.290701,-0.05191 -0.576192,-0.140184 -0.84375,-0.263672 l -0.0078,-0.0039 -0.285156,-0.119141 h -0.03516 c -0.09204,-0.03313 -0.181918,-0.0677 -0.28711,-0.08984 h -0.0039 -0.002 c -0.09225,-0.01839 -0.15791,-0.01563 -0.1875,-0.01563 -0.0146,0 -0.08954,0.0061 -0.171875,0.02539 -0.136021,0.03335 -0.224386,0.09125 -0.28125,0.136719 l -0.0098,0.0078 -0.0078,0.0059 c -0.0984,0.08609 -0.176901,0.187758 -0.236328,0.30664 -0.137455,0.274906 -0.201172,0.574044 -0.201172,0.869141 v 0.01172 0.125 0.0059 c 0.01177,0.458999 0.06403,0.915099 0.136719,1.361328 0,0.01819 0.0041,0.01835 0.0059,0.03516 v 0.02734 0.002 0.002 c 9.74e-4,0.0058 9.7e-4,0.01183 0.002,0.01758 l 0.07422,0.509765 0.539062,4.066407 c 0.01776,0.1294 -0.03399,0.263396 -0.138672,0.347656 v 0.002 h -0.002 c -0.886253,0.721112 -1.950463,1.205909 -3.078125,1.398437 -0.429525,0.07242 -0.863797,0.111329 -1.294922,0.111329 h -0.002 -0.002 c -0.725812,0.0055 -1.436663,-0.109587 -2.123047,-0.345704 h -0.002 l -0.002,-0.002 c -0.176138,-0.05871 -0.349619,-0.137066 -0.519531,-0.236328 -0.200951,-0.123311 -0.366449,-0.282939 -0.480469,-0.46875 l -0.0039,-0.0039 -0.002,-0.0059 c -0.115511,-0.177392 -0.179007,-0.377163 -0.1875,-0.59375 v -0.03125 l -0.0059,-0.03125 c 0.01177,0.07084 0.0078,0.0655 0.0078,-0.02539 l -0.002,0.03906 0.01367,-0.164062 0.002,-0.0098 0.0039,-0.02148 c 0.04362,-0.271409 0.135416,-0.530042 0.269531,-0.773438 l 0.15625,-0.28125 0.167969,-0.322265 c 0.09742,-0.165607 0.15041,-0.342533 0.175781,-0.511719 l 0.002,-0.01172 0.01172,-0.111328 -0.0039,-0.03906 c -0.01055,-0.179908 -0.06451,-0.347534 -0.140625,-0.490235 l -0.0059,-0.01172 -0.0078,-0.01172 c -0.123742,-0.203282 -0.294749,-0.376253 -0.498047,-0.5 -0.216451,-0.131417 -0.451318,-0.220918 -0.691406,-0.273438 l -0.0039,-0.002 h -0.0039 c -0.264619,-0.05428 -0.534588,-0.08008 -0.804687,-0.08008 h -0.04687 -0.0059 c -0.300105,0 -0.599763,0.03366 -0.898437,0.107422 -0.279281,0.06119 -0.54437,0.172888 -0.779297,0.332031 v 0.002 c -0.221259,0.150457 -0.396394,0.352226 -0.517578,0.585938 l -0.002,0.002 -0.002,0.0039 c -0.08462,0.169234 -0.123047,0.350622 -0.123047,0.53125 0,0.0296 -0.0053,0.08858 0.01563,0.19336 l 0.002,0.01367 0.0039,0.01563 c 0.03364,0.127794 0.07843,0.274796 0.160156,0.429688 3.27e-4,6.19e-4 -3.27e-4,0.0013 0,0.002 0.05846,0.12842 0.121743,0.244193 0.183594,0.357422 v 0.08984 l 0.09375,0.09375 c 0.08783,0.156242 0.161958,0.318671 0.220703,0.490234 v 0.546875 l 0.09766,-0.02344 c -9.39e-4,0.03534 -0.0026,0.07386 -0.01367,0.136718 v 0.0039 0.0059 c -0.05227,0.331048 -0.225636,0.637225 -0.480469,0.865234 -0.229011,0.20611 -0.512953,0.353036 -0.820313,0.429688 -6.26e-4,1.46e-4 -0.0013,-1.45e-4 -0.002,0 -0.213937,0.0496 -0.432374,0.0756 -0.658203,0.07617 -0.328253,-0.0054 -0.65593,-0.04287 -0.986328,-0.113282 l -0.0078,-0.002 -0.0059,-0.002 c -1.610747,-0.297286 -3.181315,-0.76595 -4.71289,-1.339844 0.367437,-1.763936 0.605157,-3.558655 0.599609,-5.367187 -3.7e-5,-0.403181 -0.0139,-0.808143 -0.03125,-1.207031 0.0063,-0.309206 -0.04365,-0.616076 -0.144531,-0.904297 l -0.002,-0.0039 -0.002,-0.0059 c -0.03669,-0.09782 -0.08619,-0.143882 -0.132813,-0.201172 -0.0021,-0.007 -0.0097,-0.0331 -0.0098,-0.0332 -7.9e-5,-1.19e-4 -0.02041,-0.01924 -0.02734,-0.02539 -0.01177,-0.01263 -0.02125,-0.03687 -0.0332,-0.04883 l 0.01367,0.0332 c -0.05389,-0.04768 -0.145924,-0.13058 -0.146484,-0.13086 -7.37e-4,-3.68e-4 -0.143978,-0.04678 -0.144531,-0.04687 -8e-5,-1.3e-5 -0.0087,-0.0017 -0.01172,-0.002 l -0.07617,-0.01172 h -0.03711 c -0.01112,0 -0.121164,0.0013 -0.242188,0.05469 -0.05205,0.01636 -0.101029,0.03764 -0.15039,0.05859 h -0.04297 l -0.240234,0.125 -0.0078,0.0039 c -0.264669,0.149812 -0.555135,0.255486 -0.855469,0.310547 h 0.0078 c -0.03586,0.006 -0.04563,0.0039 -0.02539,0.0039 h -0.0098 l -0.208985,0.0098 c -0.234153,-0.0018 -0.466195,-0.05424 -0.675781,-0.152344 l -0.0039,-0.002 h -0.0039 C 11.653917,25.68585 11.42449,25.507997 11.236328,25.283203 10.893807,24.853188 10.677851,24.342764 10.623047,23.804687 v -0.0039 -0.0039 c -0.02155,-0.183149 -0.0332,-0.357411 -0.0332,-0.539063 0,-0.314562 0.02714,-0.623993 0.08984,-0.921875 l 0.002,-0.0059 0.002,-0.0078 c 0.0545,-0.302225 0.164241,-0.59924 0.322265,-0.853516 0.203268,-0.32426 0.490507,-0.595679 0.81836,-0.771484 0.268861,-0.143703 0.57451,-0.219555 0.888672,-0.22461 -0.02225,4.42e-4 0.01827,0.0026 0.0293,0.0039 l 0.195312,0.01172 c 0.01371,0.0011 0.04337,0.0048 0.04102,0.0039 0.29506,0.06279 0.581501,0.161722 0.841797,0.296875 l 0.0078,0.0039 0.222656,0.105468 H 14.125 c 0.135533,0.05274 0.271767,0.110822 0.40625,0.123047 l 0.02344,0.002 h 0.148437 l 0.08984,-0.03711 c 0.05098,-0.02039 0.123206,-0.05581 0.189453,-0.105469 l 0.0078,-0.0039 0.0059,-0.0059 c 0.100467,-0.08037 0.189514,-0.179139 0.257812,-0.292969 l 0.01367,-0.02148 0.0098,-0.02148 c 0.138502,-0.292395 0.208984,-0.607978 0.208984,-0.923828 v -0.02344 -0.0957 l -0.002,-0.0059 c -0.01243,-0.509724 -0.0604,-1.017696 -0.140625,-1.517578 l 0.0059,0.08008 c 0,-0.01184 -0.02302,-0.182519 -0.05859,-0.253906 l 0.04883,0.160156 -0.08399,-0.650391 -0.423828,-3.408203 c -0.0041,-0.04099 5.69e-4,-0.06388 0.0039,-0.09375 0.09705,-0.150067 0.210646,-0.276714 0.388671,-0.375 9.11e-4,-5.02e-4 0.001,-0.0015 0.002,-0.002 l 0.90039,-0.414062 h 0.002 c 1.190641,-0.44985 2.441791,-0.722993 3.714844,-0.796875 h 0.0039 l 0.376953,-0.01172 h 0.0059 0.0078 c 0.352636,-0.01008 0.702107,0.04523 1.041016,0.158203 0.257229,0.08769 0.485938,0.229153 0.689453,0.421875 0.211602,0.2071 0.362934,0.471182 0.423828,0.753906 0.02361,0.114395 0.03516,0.221102 0.03516,0.320313 -0.0058,0.176969 -0.02919,0.339862 -0.07813,0.5 -0.07147,0.228603 -0.169564,0.449872 -0.287109,0.654297 -0.09141,0.152874 -0.202037,0.298749 -0.328125,0.429687 l -0.0098,0.0098 -0.0098,0.01172 c -0.05082,0.05929 -0.08723,0.105356 -0.107422,0.128906 l -0.107422,0.125 -0.01953,0.28125 0.002,0.0332 c 0.0098,0.156989 0.04904,0.312941 0.117187,0.458984 l 0.002,0.0059 0.0039,0.0059 c 0.10559,0.211175 0.261819,0.401852 0.46289,0.550781 0.209633,0.155285 0.445157,0.268098 0.691407,0.337891 0.27149,0.08441 0.545969,0.125304 0.80664,0.138672 h 0.002 l 0.279297,0.01367 h 0.0098 c 0.247468,0 0.496294,-0.02734 0.738281,-0.08203 l 0.0039,-0.002 c 0.318527,-0.06892 0.618772,-0.206862 0.876953,-0.404297 l 0.002,-0.002 0.002,-0.002 c 0.233531,-0.183489 0.423346,-0.427384 0.529297,-0.71875 l 0.0039,-0.01172 0.0039,-0.01367 c 0.03482,-0.11315 0.0625,-0.240265 0.0625,-0.394532 0,-0.153883 -0.03195,-0.279607 -0.0625,-0.378906 L 26.005859,15.5 25.992187,15.46875 c -0.06046,-0.129563 -0.137865,-0.249943 -0.230468,-0.359375 l -0.0078,-0.0078 -0.0059,-0.0078 c -0.04556,-0.04971 -0.09706,-0.11446 -0.15625,-0.191406 l -0.002,-0.002 C 25.464021,14.739338 25.35896,14.566699 25.273437,14.390625 h -0.002 c -0.0962,-0.196772 -0.145806,-0.413387 -0.15039,-0.642578 v -0.01367 -0.02344 -0.002 c 0.01371,-0.345192 0.145104,-0.666016 0.378906,-0.921875 0.215841,-0.228263 0.477688,-0.398982 0.777344,-0.496093 0.279668,-0.08989 0.575072,-0.133639 0.867187,-0.128907 z m -0.002,0.775391 c -0.218123,-0.0071 -0.429665,0.02734 -0.625,0.08984 h -0.0039 l -0.002,0.002 c -0.163089,0.05436 -0.311331,0.151939 -0.435547,0.292969 -0.09875,0.107707 -0.152451,0.232661 -0.169922,0.320312 l -0.0098,0.04687 v 0.04492 0.0059 0.01172 h 0.002 c 0.0035,0.1353 0.04256,0.227301 0.04883,0.246094 l 0.0098,0.0332 0.01758,0.0332 c 0.06226,0.124509 0.139627,0.246809 0.234375,0.365235 l -0.0059,-0.0039 c 0.02937,0.03775 0.07733,0.104781 0.146484,0.183594 0.150261,0.174497 0.275854,0.375589 0.367188,0.585938 0.09124,0.22573 0.138672,0.473912 0.138672,0.722656 0,0.228552 -0.03855,0.455829 -0.113282,0.666015 -0.157966,0.432895 -0.431222,0.813433 -0.794921,1.089844 h -0.002 v 0.002 c -0.341824,0.261395 -0.74242,0.443506 -1.171875,0.541016 -0.30472,0.0683 -0.617643,0.101562 -0.939453,0.101562 h -0.0078 l -0.283203,-0.01172 h -0.0059 c -0.337042,-0.0158 -0.669675,-0.07418 -0.99414,-0.169922 h -0.002 c -0.332168,-0.09562 -0.653854,-0.253653 -0.9375,-0.460938 l -0.002,-0.002 c -0.29214,-0.216091 -0.531715,-0.508742 -0.699218,-0.84375 -0.122266,-0.256344 -0.186704,-0.545679 -0.19336,-0.841797 -1.4e-5,-6.52e-4 1.4e-5,-0.0013 0,-0.002 l 0.01172,-0.232422 c -4.36e-4,-0.002 0.007,-0.03524 0.0059,-0.0293 l 0.002,-0.01172 0.002,-0.01367 c 0.02365,-0.161619 0.08854,-0.32339 0.185547,-0.466797 l 0.002,-0.002 0.002,-0.0039 c 0.0685,-0.105032 0.15699,-0.214492 0.251953,-0.314454 l 0.0039,-0.0039 0.0039,-0.0039 c 0.06856,-0.0754 0.149497,-0.172995 0.21875,-0.298828 0.08987,-0.152363 0.158906,-0.313959 0.208985,-0.478516 l 0.002,-0.0039 v -0.0039 c 0.01529,-0.05352 0.04297,-0.142737 0.04297,-0.273438 0,-0.0094 -0.02329,-0.119176 -0.04687,-0.199219 -0.02615,-0.08346 -0.07085,-0.204627 -0.195313,-0.314453 -0.113009,-0.105501 -0.240411,-0.183677 -0.349609,-0.230468 l -0.02344,-0.0098 -0.02539,-0.0078 c -0.240382,-0.07512 -0.493904,-0.113204 -0.75,-0.105468 l -0.38086,0.01367 H 19.875 c -1.341321,0.08035 -2.65808,0.388571 -3.894531,0.914062 l -0.34961,0.148438 0.398438,3.152343 0.08203,0.640625 0.002,0.0059 c 0.08496,0.5381 0.13122,1.085827 0.148438,1.636718 v 0.01367 0.0918 0.0039 c 0.005,0.450608 -0.102818,0.903322 -0.308594,1.310547 -2.91e-4,5.75e-4 2.91e-4,0.0014 0,0.002 -0.114393,0.217504 -0.27419,0.409215 -0.472656,0.566407 -0.209094,0.164605 -0.457774,0.27152 -0.716797,0.30664 l -0.02734,0.0039 -0.02539,0.0059 h -0.002 l -0.08984,0.0039 h -0.06641 c -0.319937,-0.01454 -0.636882,-0.09728 -0.921875,-0.242187 l -0.0098,-0.0059 -0.152344,-0.06836 -0.02344,-0.0078 c 0.08254,0.02753 0.05702,0.02174 0.01758,0.0039 -0.186037,-0.0952 -0.377985,-0.164297 -0.570313,-0.207032 l -0.03906,-0.0078 -0.148438,-0.0098 h -0.01563 c -0.171804,0 -0.341587,0.04381 -0.505859,0.140625 -0.20976,0.113523 -0.384704,0.275303 -0.507813,0.46875 -0.121725,0.19129 -0.196507,0.40355 -0.230468,0.619141 -0.05159,0.257223 -0.08008,0.516235 -0.08008,0.77539 0,0.139764 0.0075,0.286402 0.02734,0.439454 8.4e-5,8.55e-4 0.0019,0.0011 0.002,0.002 0.03902,0.393041 0.185102,0.770929 0.435547,1.083984 l 0.0059,0.0059 0.0039,0.0039 c 0.107205,0.126696 0.251462,0.234856 0.412109,0.30664 0.114082,0.05356 0.219623,0.07847 0.304688,0.08789 l 0.05859,0.0059 0.123047,-0.01563 0.01563,-0.0039 c 0.203847,-0.0392 0.381563,-0.117466 0.542969,-0.205078 l 0.0332,-0.01172 0.173828,-0.08594 c 0.175357,-0.08768 0.350532,-0.155902 0.53125,-0.205078 0.0014,-3.76e-4 0.0025,-0.0016 0.0039,-0.002 0.119139,-0.02891 0.240576,-0.04297 0.367187,-0.04297 h 0.04102 l 0.01758,-0.002 0.189453,0.02344 c 0.01674,0.0028 0.03393,0.005 0.05078,0.0078 0.247336,0.06158 0.464189,0.184893 0.642578,0.363281 0.157494,0.1633 0.28383,0.360784 0.371094,0.574219 0.131127,0.367222 0.199219,0.75493 0.199219,1.15039 v 0.0098 0.01172 c 0.01755,0.409377 0.0293,0.821757 0.0293,1.226562 0,1.505996 -0.121369,3.01126 -0.371094,4.492188 l -0.07227,0.423828 0.408203,0.134765 c 1.155603,0.379183 2.32866,0.673922 3.523438,0.896485 0.0013,2.66e-4 0.0026,-2.65e-4 0.0039,0 0.002,3.77e-4 0.0038,0.0016 0.0059,0.002 0.280389,0.05809 0.562016,0.09114 0.84961,0.09766 h 0.0059 0.0059 c 0.145007,0 0.299771,-0.0161 0.457031,-0.05664 0.175079,-0.04219 0.343543,-0.127336 0.484375,-0.248046 l 0.01367,-0.01172 0.01367,-0.01367 c 0.07673,-0.07674 0.15665,-0.208458 0.1875,-0.316406 l 0.01758,-0.06836 v -0.07031 c 0,-0.03258 -0.0085,-0.0213 -0.01172,-0.04687 v -0.07813 l -0.02734,-0.08203 c -0.03154,-0.0901 -0.08361,-0.187019 -0.130859,-0.283204 v -0.113281 l -0.105469,-0.105469 c -0.08659,-0.159274 -0.171872,-0.318474 -0.244141,-0.472656 l -0.002,-0.0039 -0.002,-0.0039 c -0.102199,-0.209509 -0.174764,-0.416935 -0.21875,-0.63086 -0.02205,-0.110274 -0.0332,-0.223312 -0.0332,-0.351562 0,-0.30069 0.07126,-0.595645 0.208984,-0.871094 0.180325,-0.36065 0.44587,-0.661165 0.779297,-0.886719 0.31468,-0.213171 0.667072,-0.366139 1.033203,-0.453125 0.35574,-0.08085 0.721351,-0.125 1.078125,-0.125 h 0.04102 c 0.328273,0 0.657498,0.03355 0.972656,0.09766 0.332097,0.07094 0.650772,0.198018 0.947266,0.371093 0.315585,0.195254 0.579922,0.461077 0.759766,0.773438 l 0.002,0.002 0.002,0.002 c 0.167132,0.283196 0.257006,0.613547 0.261719,0.949219 v 0.0293 l -0.0039,0.0918 v 0.0039 l -0.0059,0.02539 -0.0039,0.03125 c -0.03372,0.279403 -0.120649,0.545167 -0.253907,0.796875 l -0.05859,0.109375 v 0.002 l -0.126953,0.230468 -0.152344,0.277344 c -0.08692,0.156901 -0.144745,0.321409 -0.177735,0.486328 l -0.05273,0.263672 0.189453,0.189453 c 0.01183,0.01183 0.05676,0.05737 0.117188,0.09766 l 0.0098,0.0059 0.0098,0.0059 c 0.125191,0.07511 0.252101,0.130457 0.375,0.173828 h 0.002 0.002 c 0.60314,0.207539 1.23523,0.313128 1.873047,0.306641 0.391889,-3.13e-4 0.781497,-0.03312 1.171875,-0.103516 0.818686,-0.142178 1.60089,-0.45227 2.292969,-0.917968 l 0.255859,-0.171875 -0.507812,-3.851563 -0.07227,-0.490234 -0.002,-0.0059 c -0.09029,-0.513517 -0.141045,-1.033273 -0.152344,-1.558593 v -0.02344 -0.125 c 0,-0.419726 0.09532,-0.832833 0.279297,-1.212891 0.108007,-0.204788 0.252815,-0.392396 0.423828,-0.544921 h 0.002 v -0.002 c 0.17574,-0.158594 0.394527,-0.268876 0.640625,-0.328125 0.105328,-0.02528 0.230278,-0.04102 0.345703,-0.04102 0.107171,0 0.21404,0.01112 0.306641,0.03125 l 0.0098,0.002 0.0078,0.002 c 0.195322,0.03506 0.379638,0.08868 0.560547,0.164063 l 0.002,0.002 0.210938,0.08398 -0.03711,-0.01758 c 0.0075,0.0038 0.04179,0.01746 0.07031,0.0293 0.193042,0.09049 0.391435,0.15622 0.589844,0.197265 l 0.02734,0.0059 0.189453,0.01758 0.03711,-0.002 c 0.161851,-0.009 0.332502,-0.0471 0.498047,-0.125 h 0.002 0.002 c 0.230429,-0.110606 0.41552,-0.273832 0.558594,-0.458985 l 0.0078,-0.0098 0.0059,-0.01172 c 0.128647,-0.184932 0.227905,-0.395664 0.279296,-0.626953 0.06022,-0.244952 0.0957,-0.500388 0.0957,-0.759766 0,-0.110177 -0.0081,-0.216785 -0.02148,-0.322265 -0.04034,-0.436611 -0.221013,-0.849954 -0.517578,-1.177735 l -0.002,-0.0039 -0.0039,-0.0039 c -0.129212,-0.137826 -0.295736,-0.255951 -0.492188,-0.333985 -0.118458,-0.05206 -0.225811,-0.06989 -0.330078,-0.08203 l -0.05859,-0.04102 -0.205078,0.03516 c -0.218216,0.03637 -0.434787,0.101444 -0.642578,0.197265 -0.0019,8.81e-4 -0.004,0.0011 -0.0059,0.002 -0.0014,6.31e-4 -0.0025,0.0013 -0.0039,0.002 l -0.1875,0.06836 -0.0098,0.0039 c -0.183956,0.07665 -0.360363,0.131301 -0.548828,0.166016 h -0.0059 l -0.0059,0.002 c -0.09694,0.02019 -0.215935,0.02962 -0.339844,0.03516 -0.111521,-7.33e-4 -0.216287,-0.01316 -0.324219,-0.03906 h -0.002 c -0.342113,-0.08103 -0.650699,-0.274815 -0.861328,-0.546875 l -0.002,-0.002 -0.002,-0.002 c -0.198391,-0.250352 -0.337076,-0.553718 -0.398438,-0.865235 -0.03982,-0.199096 -0.05992,-0.413943 -0.06055,-0.621094 0.01138,-0.336672 0.04429,-0.67425 0.09961,-1.011718 l 0.002,-0.0098 0.0059,-0.04687 v -0.0098 c 0.208976,-1.429442 0.340713,-2.86936 0.394532,-4.310546 l 0.01563,-0.390625 -0.376953,-0.109375 c -1.289764,-0.373669 -2.604853,-0.643414 -3.939454,-0.800782 -0.0019,-2.81e-4 -0.0039,-0.0017 -0.0059,-0.002 -0.213127,-0.03073 -0.434829,-0.05013 -0.65625,-0.05078 z m -0.0293,1 h 0.0078 0.0098 c 0.171831,0 0.356236,0.01637 0.53711,0.04297 h 0.0078 l 0.0059,0.002 c 1.144753,0.134676 2.271845,0.384445 3.386718,0.6875 -0.06093,1.269378 -0.163315,2.538084 -0.347656,3.796875 v 0.0059 l -0.0039,0.0332 c -0.06263,0.382068 -0.100723,0.765564 -0.113281,1.148438 v 0.0078 0.0078 c 0,0.275204 0.02582,0.554848 0.08008,0.826172 0.09259,0.468557 0.297879,0.910819 0.595703,1.287109 3.72e-4,4.71e-4 -3.73e-4,0.0015 0,0.002 0.357407,0.459478 0.862177,0.772662 1.417969,0.904297 0.184738,0.04433 0.374044,0.06836 0.566406,0.06836 h 0.0098 l 0.0098,-0.002 c 0.151862,-0.0063 0.322808,-0.01842 0.501953,-0.05469 0.0014,-2.63e-4 0.0025,-0.0017 0.0039,-0.002 0.259818,-0.04819 0.509114,-0.122287 0.75,-0.222657 l 0.183594,-0.06836 0.01367,-0.0059 0.01367,-0.0059 0.02539,-0.01172 c 0.117165,-0.0544 0.247291,-0.09224 0.376953,-0.115235 0.01805,0.0038 0.04389,0.0093 0.04492,0.0098 l 0.01563,0.0059 0.01563,0.0078 c 0.04353,0.01658 0.08545,0.04633 0.128906,0.0918 0.149327,0.167074 0.241904,0.375734 0.261719,0.597656 v 0.0098 l 0.002,0.01172 c 0.009,0.06715 0.01367,0.131211 0.01367,0.205078 0,0.173951 -0.02407,0.35409 -0.06836,0.53125 l -0.002,0.0059 -0.002,0.0059 c -0.01894,0.08524 -0.0617,0.178753 -0.119141,0.263672 -0.05566,0.06819 -0.124599,0.126229 -0.185547,0.15625 -5.1e-4,2.4e-4 -0.0014,-2.38e-4 -0.002,0 -6.9e-4,3.37e-4 -0.0013,0.0016 -0.002,0.002 -0.02887,0.01312 -0.06502,0.01914 -0.103515,0.02344 l -0.02734,-0.002 c -0.132114,-0.02822 -0.255389,-0.06539 -0.371094,-0.121093 l -0.02734,-0.01563 -0.01563,-0.0039 -0.0098,-0.0059 -0.21875,-0.08789 -0.0078,-0.002 c -0.237478,-0.09836 -0.484972,-0.171275 -0.742187,-0.21875 -0.002,-4.35e-4 -0.0039,4.3e-4 -0.0059,0 -0.177583,-0.03807 -0.35041,-0.05469 -0.513672,-0.05469 -0.192361,0 -0.389455,0.02262 -0.580078,0.06836 -0.392299,0.09445 -0.764996,0.278247 -1.074218,0.556641 -0.265255,0.236579 -0.484487,0.520338 -0.648438,0.833984 l -0.0039,0.0059 -0.002,0.0078 c -0.252229,0.51809 -0.382813,1.083657 -0.382813,1.65625 v 0.125 0.04102 0.0039 c 0.01228,0.570995 0.06838,1.137947 0.166016,1.697266 l 0.002,0.01172 c 1.12e-4,6.38e-4 -1.12e-4,0.0013 0,0.002 l 0.06836,0.460938 0.417969,3.162109 c -0.511526,0.301571 -1.053875,0.55427 -1.642578,0.65625 h -0.002 c -0.329804,0.05947 -0.661853,0.08789 -1.001953,0.08789 h -0.002 -0.002 c -0.463949,0.0047 -0.919435,-0.08962 -1.365234,-0.224609 l 0.05469,-0.09961 0.251953,-0.455078 v -0.08203 c 0.139246,-0.30166 0.258527,-0.614408 0.300781,-0.953125 -0.0012,0.0019 0.0079,-0.03759 0.0039,-0.02148 l 0.01367,-0.04687 0.0078,-0.193359 v -0.0625 -0.002 c -0.0071,-0.503383 -0.140851,-1.001443 -0.398438,-1.439453 l -0.002,-0.002 c -0.26902,-0.466249 -0.65256,-0.849441 -1.103516,-1.126953 l -0.0059,-0.002 -0.0039,-0.0039 c -0.387328,-0.227054 -0.810191,-0.393745 -1.25586,-0.488281 l -0.002,-0.002 h -0.002 c -0.383285,-0.07796 -0.77803,-0.117188 -1.171875,-0.117188 h -0.04102 c -0.436372,0 -0.875213,0.05171 -1.300781,0.148438 l -0.002,0.002 H 22.5 c -0.484673,0.114436 -0.949129,0.316407 -1.367188,0.599609 -0.471557,0.318994 -0.8556,0.752216 -1.113281,1.267578 -0.205577,0.411155 -0.314453,0.861418 -0.314453,1.31836 0,0.17954 0.01561,0.363153 0.05273,0.548828 v 0.002 c 0.06261,0.306099 0.166602,0.594072 0.300782,0.869141 0.08155,0.173494 0.170257,0.338644 0.257812,0.5 v 0.01367 l 0.01172,0.02148 c -0.0056,1.2e-4 -0.0099,0.0019 -0.01563,0.002 -0.227869,-0.0055 -0.450297,-0.03133 -0.673828,-0.07813 l -0.0039,-0.002 h -0.0059 c -1.029443,-0.191405 -2.032893,-0.462193 -3.027344,-0.771484 0.209815,-1.388833 0.345704,-2.79031 0.345704,-4.195313 0,-0.416687 -0.01183,-0.835595 -0.0293,-1.248047 0,-0.512042 -0.08774,-1.020147 -0.261719,-1.501953 l -0.002,-0.0098 -0.0039,-0.0078 c -0.136718,-0.338198 -0.336872,-0.648002 -0.589844,-0.908203 l -0.0039,-0.002 -0.002,-0.002 C 15.748771,24.000725 15.36507,23.782273 14.939453,23.677734 l -0.01953,-0.0059 -0.01758,-0.002 c -0.03516,-0.0058 -0.07174,-0.01163 -0.107422,-0.01758 l -0.01172,-0.002 -0.242187,-0.0293 h -0.0293 c 0.01716,0 -0.05735,-0.006 -0.16211,0.0059 -0.184074,0.0037 -0.3724,0.02084 -0.5625,0.06836 l -0.0059,0.002 h -0.0039 c -0.255806,0.06914 -0.494906,0.166398 -0.720703,0.279296 l -0.142578,0.07031 0.06641,-0.02734 c -0.113419,0.03768 -0.161574,0.07493 -0.113281,0.05078 l -0.01172,0.0059 -0.0098,0.0059 c -0.07867,0.04447 -0.147621,0.06619 -0.216797,0.08594 -0.0058,-0.0046 -0.01258,-0.0078 -0.01953,-0.01563 -0.125465,-0.158751 -0.202301,-0.345108 -0.222656,-0.552735 v -0.0098 l -0.002,-0.0098 c -0.01374,-0.100738 -0.01953,-0.207202 -0.01953,-0.322266 0,-0.196648 0.02174,-0.393086 0.0625,-0.591796 l 0.002,-0.01367 0.002,-0.01172 c 0.01386,-0.09011 0.04503,-0.172876 0.08789,-0.240234 0.03919,-0.06158 0.08617,-0.104401 0.140625,-0.132813 l 0.01563,-0.0078 0.0078,-0.0059 0.0039,-0.002 c 8.49e-4,1.96e-4 0.0011,0.0018 0.002,0.002 0.0012,2.9e-4 0.0027,-2.92e-4 0.0039,0 0.115304,0.02703 0.2199,0.06302 0.320313,0.115235 l 0.0039,0.002 0.0039,0.002 c -0.108466,-0.05405 -0.03715,0.0026 0.107422,0.05078 l -0.04687,-0.01953 0.117188,0.05469 -0.02149,-0.01172 c 0.413449,0.210228 0.868707,0.328638 1.330079,0.349609 l 0.0098,0.002 h 0.123047 l 0.216797,-0.0098 0.04297,-0.01367 c 0.438745,-0.05982 0.852403,-0.236741 1.199218,-0.509766 v -0.002 c 0.308116,-0.243627 0.563046,-0.546829 0.744141,-0.894531 l 0.002,-0.002 v -0.0039 c 0.279007,-0.55121 0.42284,-1.161214 0.416016,-1.77539 v -0.08398 -0.03711 -0.0078 c -0.01816,-0.580991 -0.067,-1.16607 -0.158203,-1.748047 l -0.002,-0.01367 -0.08203,-0.617188 -0.292969,-2.33789 c 1.030994,-0.39708 2.102033,-0.685756 3.207032,-0.751954 l 0.359375,-0.01172 c 0.08953,-0.0027 0.184417,0.02231 0.279297,0.04101 -0.01308,0.0265 -0.02188,0.0586 -0.03711,0.08399 l -0.0059,0.0098 -0.0059,0.0098 c -0.01243,0.02309 -0.03596,0.05655 -0.08398,0.109375 -0.126711,0.134132 -0.246869,0.282153 -0.353516,0.445312 -5.14e-4,7.88e-4 -0.0014,0.0012 -0.002,0.002 -0.171129,0.255064 -0.291952,0.549818 -0.339843,0.867187 -0.0049,0.02762 -0.01468,0.07031 -0.0059,0.03516 l -0.01172,0.04687 -0.01367,0.253907 0.01367,-0.0918 c -0.0248,0.09952 -0.02148,0.167726 -0.02148,0.191406 v 0.0039 0.0039 c 0.007,0.441777 0.105694,0.880666 0.298828,1.28125 l 0.002,0.0039 0.002,0.002 c 0.234568,0.469137 0.572972,0.886662 1.001954,1.203125 l 0.002,0.002 c 0.37757,0.276434 0.801288,0.484126 1.248047,0.613281 0.397653,0.11734 0.811833,0.189269 1.232421,0.208984 l 0.0098,0.002 h 0.01953 l 0.285157,0.01172 h 0.02734 c 0.38847,0 0.776319,-0.0394 1.158203,-0.125 0.563956,-0.127561 1.098074,-0.370954 1.560547,-0.724609 0.522763,-0.397706 0.910036,-0.937661 1.13086,-1.544922 v -0.002 l 0.002,-0.002 c 0.11467,-0.322525 0.169922,-0.662281 0.169922,-1.001953 0,-0.3766 -0.07083,-0.754588 -0.214844,-1.107422 l -0.002,-0.0039 -0.002,-0.0039 c -0.13346,-0.309063 -0.313525,-0.595127 -0.529297,-0.845703 l -0.002,-0.002 -0.0039,-0.0039 c -0.0017,-0.0019 -0.006,-0.0095 -0.0078,-0.01172 0.0065,8.8e-5 0.01295,-0.0022 0.01953,-0.002 z m -13.15625,6.910156 c 0.02289,0.01259 0.04713,0.01038 0.07031,0.02148 -0.007,-0.0045 -0.05581,-0.01326 -0.05274,-0.01172 z m 0.529297,3.767578 c -0.07081,0.01176 -0.0655,0.0059 0.02539,0.0059 l -0.04492,-0.0039 z m 18.708984,1.84375 c 0.0039,8.35e-4 0.0079,0.003 0.01172,0.0039 4.76e-4,-1.4e-5 -0.0045,0 -0.0039,0 0.02959,0 0.02524,0.0027 -0.0078,-0.0039 z m -10.132812,6.136719 0.06641,0.05273 -0.419922,0.05078 z"
     id="path7" />
</svg>
