<?xml version="1.0" encoding="UTF-8" standalone="no"?>
<!-- Generator: Gravit.io -->

<svg
   style="isolation:isolate"
   viewBox="0 0 48 48"
   width="48pt"
   height="48pt"
   version="1.1"
   id="svg16"
   sodipodi:docname="org.gnome.Fractal.svg"
   inkscape:version="1.1.2 (0a00cf5339, 2022-02-04)"
   xmlns:inkscape="http://www.inkscape.org/namespaces/inkscape"
   xmlns:sodipodi="http://sodipodi.sourceforge.net/DTD/sodipodi-0.dtd"
   xmlns:xlink="http://www.w3.org/1999/xlink"
   xmlns="http://www.w3.org/2000/svg"
   xmlns:svg="http://www.w3.org/2000/svg">
  <defs
     id="defs20">
    <linearGradient
       inkscape:collect="always"
       xlink:href="#_lgradient_2"
       id="linearGradient872"
       x1="-12.025727"
       y1="6.1170783"
       x2="-0.085100174"
       y2="6.1170783"
       gradientUnits="userSpaceOnUse"
       gradientTransform="matrix(3.8358211,0,0,3.8371386,-0.00544341,-0.00268054)" />
    <linearGradient
       id="_lgradient_1-3"
       x1="0.18336116"
       y1="0.24917752"
       x2="0.9027437"
       y2="0.90347725"
       gradientTransform="matrix(24.617266,0,0,24.816118,10.841288,10.089605)"
       gradientUnits="userSpaceOnUse">
      <stop
         offset="2.608695652173913%"
         stop-opacity="1"
         style="stop-color:rgb(179,255,171)"
         id="stop2-6" />
      <stop
         offset="98.69565217391305%"
         stop-opacity="1"
         style="stop-color:rgb(18,255,247)"
         id="stop4-7" />
    </linearGradient>
    <linearGradient
       inkscape:collect="always"
       xlink:href="#_lgradient_2"
       id="linearGradient15"
       x1="-9.6850061"
       y1="45.161198"
       x2="11.98815"
       y2="21.735205"
       gradientUnits="userSpaceOnUse"
       gradientTransform="matrix(1.1147442,0,0,1.1150348,-0.01237238,-3.3277956)" />
    <linearGradient
       inkscape:collect="always"
       xlink:href="#_lgradient_1"
       id="linearGradient997"
       x1="11.956265"
       y1="25.410938"
       x2="36.044224"
       y2="25.410938"
       gradientUnits="userSpaceOnUse" />
  </defs>
  <sodipodi:namedview
     id="namedview18"
     pagecolor="#ffffff"
     bordercolor="#666666"
     borderopacity="1.0"
     inkscape:pageshadow="2"
     inkscape:pageopacity="0.0"
     inkscape:pagecheckerboard="0"
     inkscape:document-units="pt"
     showgrid="false"
     inkscape:zoom="10.21875"
     inkscape:cx="31.95107"
     inkscape:cy="32"
     inkscape:window-width="1600"
     inkscape:window-height="836"
     inkscape:window-x="0"
     inkscape:window-y="0"
     inkscape:window-maximized="1"
     inkscape:current-layer="svg16" />
  <linearGradient
     id="_lgradient_1"
     x1="0.02327127659574467"
     y1="0.0359267892922461"
     x2="1.1329963754471852"
     y2="0.8137143193440098"
     gradientTransform="matrix(50.133333,0,0,51.029333,3.3333333,6.4853333)"
     gradientUnits="userSpaceOnUse">
    <stop
       offset="0%"
       stop-opacity="1"
       style="stop-color:rgb(22,181,228)"
       id="stop2" />
    <stop
       offset="98.26086956521739%"
       stop-opacity="1"
       style="stop-color:rgb(245,32,250)"
       id="stop4" />
  </linearGradient>
  <rect
     x="-46.783188"
     y="1.2253767"
     height="45.80014"
     rx="6.1837621"
     shape-rendering="crispEdges"
     id="rect5-6-7-3"
     ry="6.8055277"
     transform="matrix(0.00524063,-0.99998627,0.99998801,0.00489691,0,0)"
     style="isolation:isolate;fill:#0067ff;fill-opacity:0.13470298;stroke:url(#linearGradient872);stroke-width:2.0301;stroke-miterlimit:4;stroke-dasharray:none;stroke-opacity:1"
     width="45.801998" />
  <rect
     x="-15.686804"
     y="17.260084"
     height="33.345856"
     rx="6.7920032"
     shape-rendering="crispEdges"
     id="rect5-6-6-6-6"
     style="isolation:isolate;fill:#0067ff;fill-opacity:0.13470298;stroke:url(#linearGradient15);stroke-width:1.67233;stroke-miterlimit:4;stroke-dasharray:none;stroke-opacity:1"
     ry="7.4743071"
     transform="matrix(0.72446484,-0.68931175,0.68622417,0.72739012,0,0)"
     width="33.338203" />
  <linearGradient
     id="_lgradient_2"
     x1="-0.3581776520926892"
     y1="0.020161290322580627"
     x2="0.9978597871440014"
     y2="0.988828668135209"
     gradientTransform="matrix(31.016,0,0,31,14.484,4.864)"
     gradientUnits="userSpaceOnUse">
    <stop
       offset="0%"
       stop-opacity="1"
       style="stop-color:rgb(22,181,228)"
       id="stop9" />
    <stop
       offset="98.26086956521739%"
       stop-opacity="1"
       style="stop-color:rgb(245,32,250)"
       id="stop11" />
  </linearGradient>
  <path
     style="color:#000000;fill:url(#linearGradient997);-inkscape-stroke:none"
     d="m 13.076172,14.191406 c -0.889277,0 -1.619141,0.732259 -1.619141,1.621094 v 5.691406 c 0,0.888834 0.730306,1.619141 1.619141,1.619141 0.888834,0 1.621094,-0.730307 1.621094,-1.619141 v -4.072265 h 5.193359 c -0.949295,1.19933 -1.618643,2.610084 -1.710938,4.246093 -0.09897,1.75463 0.55577,3.5703 1.685547,4.988282 1.129778,1.417982 2.76008,2.451244 4.63086,2.529296 2.562633,0.107303 5.08256,-2.03202 5.15039,-4.738281 0.04556,-1.79201 -1.277273,-3.532374 -3.21875,-3.542969 -0.618525,-0.0038 -1.234648,0.184779 -1.722656,0.5625 -0.488008,0.377722 -0.840103,0.978842 -0.828125,1.685547 v 0.002 c 0.01,0.44584 0.172476,0.876401 0.464844,1.214844 0.292368,0.338444 0.744137,0.583149 1.257812,0.560547 0.319073,-0.01403 0.619356,-0.134083 0.859375,-0.349609 0.24002,-0.215527 0.417553,-0.56048 0.388672,-0.941407 -0.0168,-0.212606 -0.111981,-0.398097 -0.25,-0.5625 0.05546,0.03374 0.127846,0.03373 0.171875,0.07617 0.262802,0.253798 0.375043,0.642807 0.339844,1.072266 -0.0352,0.429459 -0.233022,0.868857 -0.494141,1.126953 -0.456283,0.450593 -1.137416,0.630642 -1.849609,0.564453 -0.712193,-0.06619 -1.424546,-0.391281 -1.855469,-0.84375 -0.703241,-0.73857 -0.966927,-1.808009 -0.853515,-2.892578 0.113411,-1.084569 0.613644,-2.154552 1.33789,-2.820312 0.935787,-0.860059 2.439471,-1.277434 3.664063,-1.265625 1.651168,0.01644 3.349743,0.783384 4.486328,2.054687 2.265495,2.534138 2.155757,6.290697 0.53125,9.158203 h -0.177735 -9.011718 l -2.121094,2.966797 -2.701172,-2.966797 h -3.367187 v -2.580078 c 0,-0.888834 -0.731817,-1.621095 -1.621094,-1.621094 -0.889277,0 -1.619141,0.73226 -1.619141,1.621094 V 30.9375 c 0,0.888834 0.730306,1.619141 1.619141,1.619141 h 3.554687 l 3.269532,3.591796 c 0.297492,0.326283 0.713601,0.505019 1.125,0.480469 0.411398,-0.02455 0.80218,-0.252109 1.058593,-0.611328 l 2.470703,-3.460937 h 5.550782 l 0.0918,0.404296 0.486328,-0.404296 h 4.115234 c 0.516609,0 0.960959,-0.264383 1.261719,-0.617188 0.300759,-0.352805 0.484375,-0.804233 0.484375,-1.283203 V 16.091797 c 0,-0.47897 -0.183616,-0.930398 -0.484375,-1.283203 -0.30076,-0.352805 -0.74511,-0.617188 -1.261719,-0.617188 h -10.146484 -0.517578 -0.002 z m 0,1 H 22.375 c -0.03969,0.02388 -0.07003,0.05959 -0.109375,0.08399 -0.215127,0.133299 -0.389949,0.30845 -0.59375,0.457031 -0.310268,0.226308 -0.63068,0.438707 -0.910156,0.699219 h -7.064453 v 5.072265 c 0,0.348067 -0.273028,0.619141 -0.621094,0.619141 -0.348068,0 -0.619141,-0.271074 -0.619141,-0.619141 V 15.8125 c 0,-0.348068 0.271515,-0.621094 0.619141,-0.621094 z m 11.691406,0 h 10.03125 c 0.172986,0 0.35274,0.09059 0.501953,0.265625 0.149214,0.175035 0.244141,0.424141 0.244141,0.634766 V 30.65625 c 0,0.210624 -0.09493,0.459731 -0.244141,0.634766 -0.149213,0.175034 -0.328967,0.265625 -0.501953,0.265625 h -3.185547 c 0.437115,-0.475363 0.902167,-0.930225 1.236328,-1.482422 l 0.458985,-0.757813 h -0.07813 c 1.557736,-3.137475 1.524021,-7.068624 -0.939453,-9.824219 -1.330495,-1.488196 -3.272917,-2.369255 -5.222657,-2.388671 -1.447517,-0.01396 -3.15331,0.429807 -4.349609,1.529296 -0.940641,0.864681 -1.518976,2.140357 -1.65625,3.453125 -0.137274,1.312769 0.175966,2.690887 1.123047,3.685547 0.633441,0.665113 1.546938,1.063087 2.486328,1.150391 0.93939,0.0873 1.934769,-0.14677 2.646484,-0.849609 0.464889,-0.459509 0.735051,-1.098821 0.789063,-1.757813 0.05401,-0.658991 -0.122506,-1.368906 -0.644531,-1.873047 -0.304426,-0.293487 -0.704281,-0.455376 -1.123047,-0.501953 0.02989,-0.0013 0.05224,-0.02557 0.08203,-0.02539 1.343482,0.0073 2.257468,1.225178 2.224609,2.517579 -0.05205,2.076648 -2.150148,3.847662 -4.109375,3.765625 -1.526217,-0.06368 -2.905122,-0.917395 -3.890625,-2.154297 -0.985502,-1.236903 -1.551279,-2.845487 -1.46875,-4.308594 0.104807,-1.857809 1.049591,-3.406732 2.375,-4.611328 0.917971,-0.832382 2.006552,-1.523172 3.214844,-1.931641 z m 0.705078,7.025391 c -0.05417,0.02658 -0.110641,0.02908 -0.162109,0.0625 0.0038,-0.003 0.002,-0.0088 0.0059,-0.01172 0.04039,-0.03126 0.111003,-0.02309 0.15625,-0.05078 z m -12.396484,3.898437 c 0.347623,0 0.621094,0.273028 0.621094,0.621094 v 3.580078 h 3.925781 l 3.236328,3.554688 2.541016,-3.554688 h 7.894531 c -0.323786,0.416761 -0.573132,0.894564 -0.96875,1.240235 -3.02e-4,2.64e-4 -0.0017,-2.64e-4 -0.002,0 H 29.875 24.039062 L 21.269531,35.4375 c -0.102669,0.143833 -0.207215,0.187543 -0.304687,0.193359 -0.09747,0.0058 -0.20493,-0.02542 -0.324219,-0.15625 l -3.568359,-3.917968 h -3.996094 c -0.348068,0 -0.619141,-0.271074 -0.619141,-0.619141 v -4.201172 c 0,-0.348066 0.271515,-0.621094 0.619141,-0.621094 z"
     id="path14" />
</svg>
