<?xml version="1.0" encoding="UTF-8" standalone="no"?>
<!-- Generator: Gravit.io -->

<svg
   style="isolation:isolate"
   viewBox="0 0 48 48"
   width="48pt"
   height="48pt"
   version="1.1"
   id="svg9"
   sodipodi:docname="org.xfce.workspaces.svg"
   inkscape:version="1.1.2 (0a00cf5339, 2022-02-04)"
   xmlns:inkscape="http://www.inkscape.org/namespaces/inkscape"
   xmlns:sodipodi="http://sodipodi.sourceforge.net/DTD/sodipodi-0.dtd"
   xmlns:xlink="http://www.w3.org/1999/xlink"
   xmlns="http://www.w3.org/2000/svg"
   xmlns:svg="http://www.w3.org/2000/svg">
  <defs
     id="defs13">
    <linearGradient
       inkscape:collect="always"
       xlink:href="#_lgradient_15"
       id="linearGradient872"
       x1="-12.025727"
       y1="6.1170783"
       x2="-0.085100174"
       y2="6.1170783"
       gradientUnits="userSpaceOnUse"
       gradientTransform="matrix(3.8358211,0,0,3.8371386,-0.00544341,-0.00268054)" />
    <linearGradient
       id="_lgradient_1"
       x1="0.18336116"
       y1="0.24917752"
       x2="0.9027437"
       y2="0.90347725"
       gradientTransform="matrix(24.617266,0,0,24.816118,10.841288,10.089605)"
       gradientUnits="userSpaceOnUse">
      <stop
         offset="2.608695652173913%"
         stop-opacity="1"
         style="stop-color:rgb(179,255,171)"
         id="stop2-3" />
      <stop
         offset="98.69565217391305%"
         stop-opacity="1"
         style="stop-color:rgb(18,255,247)"
         id="stop4-6" />
    </linearGradient>
    <linearGradient
       inkscape:collect="always"
       xlink:href="#_lgradient_15"
       id="linearGradient15"
       x1="-9.6850061"
       y1="45.161198"
       x2="11.98815"
       y2="21.735205"
       gradientUnits="userSpaceOnUse"
       gradientTransform="matrix(1.1147442,0,0,1.1150348,-0.01237238,-3.3277956)" />
    <linearGradient
       inkscape:collect="always"
       xlink:href="#_lgradient_15"
       id="linearGradient1112"
       x1="13.337559"
       y1="24"
       x2="34.662441"
       y2="24"
       gradientUnits="userSpaceOnUse" />
  </defs>
  <sodipodi:namedview
     id="namedview11"
     pagecolor="#ffffff"
     bordercolor="#666666"
     borderopacity="1.0"
     inkscape:pageshadow="2"
     inkscape:pageopacity="0.0"
     inkscape:pagecheckerboard="0"
     inkscape:document-units="pt"
     showgrid="false"
     inkscape:zoom="7.2257474"
     inkscape:cx="32.038208"
     inkscape:cy="31.969011"
     inkscape:window-width="1600"
     inkscape:window-height="836"
     inkscape:window-x="0"
     inkscape:window-y="0"
     inkscape:window-maximized="1"
     inkscape:current-layer="svg9" />
  <linearGradient
     id="_lgradient_15"
     x1="0.2789473684210526"
     y1="0.28157894736842104"
     x2="0.7494973512639425"
     y2="0.8023209283812192"
     gradientTransform="matrix(21.324882,0,0,21.324882,13.337559,13.337559)"
     gradientUnits="userSpaceOnUse">
    <stop
       offset="0%"
       stop-opacity="1"
       style="stop-color:rgb(78,84,200)"
       id="stop2" />
    <stop
       offset="83.88839793817618%"
       stop-opacity="1"
       style="stop-color:rgb(0,114,255)"
       id="stop4" />
  </linearGradient>
  <rect
     x="-46.783188"
     y="1.2253767"
     height="45.80014"
     rx="6.1837621"
     shape-rendering="crispEdges"
     id="rect5-6-7-3"
     ry="6.8055277"
     transform="matrix(0.00524063,-0.99998627,0.99998801,0.00489691,0,0)"
     style="isolation:isolate;fill:#8900ff;fill-opacity:0.13470298;stroke:url(#linearGradient872);stroke-width:2.0301;stroke-miterlimit:4;stroke-dasharray:none;stroke-opacity:1"
     width="45.801998" />
  <rect
     x="-15.686804"
     y="17.260084"
     height="33.345856"
     rx="6.7920032"
     shape-rendering="crispEdges"
     id="rect5-6-6-6-6"
     style="isolation:isolate;fill:#8900ff;fill-opacity:0.13470298;stroke:url(#linearGradient15);stroke-width:1.67233;stroke-miterlimit:4;stroke-dasharray:none;stroke-opacity:1"
     ry="7.4743071"
     transform="matrix(0.72446484,-0.68931175,0.68622417,0.72739012,0,0)"
     width="33.338203" />
  <path
     style="color:#000000;fill:url(#linearGradient1112);fill-rule:evenodd;-inkscape-stroke:none"
     d="m 14.808594,12.837891 c -1.082341,0 -1.970703,0.888362 -1.970703,1.970703 v 7.353515 c 0,1.08234 0.888362,1.970703 1.970703,1.970703 h 1.078125 c -0.738019,0.285584 -1.333985,0.870525 -1.333985,1.705079 v 7.353515 c 0,1.082341 0.888364,1.970703 1.970703,1.970703 h 16.667969 c 1.082341,0 1.970703,-0.888362 1.970703,-1.970703 v -7.353515 -1.470704 -6.373046 c 0,-1.08234 -0.888362,-1.970704 -1.970703,-1.970704 h -7.353515 c -0.834554,0 -1.419495,0.595967 -1.705079,1.333985 v -2.548828 c 0,-1.082341 -0.888363,-1.970703 -1.970703,-1.970703 z m 0,1 h 7.353515 c 0.541043,0 0.970704,0.429659 0.970703,0.970703 v 7.353515 c 0,0.541043 -0.42966,0.970704 -0.970703,0.970703 h -7.353515 c -0.541044,0 -0.970703,-0.42966 -0.970703,-0.970703 v -7.353515 c 0,-0.541044 0.429659,-0.970703 0.970703,-0.970703 z m -0.5,0.470703 v 0.5 7.853515 h 8.353515 v -8.353515 z m 1,1 h 6.353515 v 6.353515 h -6.353515 z m 10.529297,1.714843 h 7.353515 c 0.541044,0 0.970703,0.429661 0.970703,0.970704 v 6.373046 1.470704 7.353515 c 0,0.541044 -0.429659,0.970703 -0.970703,0.970703 H 16.523437 c -0.541042,0 -0.970703,-0.429659 -0.970703,-0.970703 v -7.353515 c 0,-0.541042 0.429661,-0.970704 0.970703,-0.970704 h 8.34375 v -6.873046 c 0,-0.541043 0.429661,-0.970704 0.970704,-0.970704 z m -0.5,0.470704 v 7.373046 h 0.5 7.853515 v -7.373046 z m 1,1 h 6.353515 v 5.373046 h -6.353515 z m -2.470704,4.304687 v 1.068359 h -1.068359 c 0.518894,-0.200791 0.867568,-0.549465 1.068359,-1.068359 z m -7.84375,2.539063 v 8.353515 h 8.84375 v -8.353515 h -0.5 z m 9.314454,0 v 0.5 7.853515 h 8.353515 v -8.353515 z m -8.314454,1 h 6.84375 v 6.353515 h -6.84375 z m 9.314454,0 h 6.353515 v 6.353515 h -6.353515 z"
     id="path7" />
</svg>
