<?xml version="1.0" encoding="UTF-8" standalone="no"?>
<!-- Generator: Gravit.io -->

<svg
   style="isolation:isolate"
   viewBox="0 0 48 48"
   width="48pt"
   height="48pt"
   version="1.1"
   id="svg3"
   sodipodi:docname="org.xfce.panel.svg"
   inkscape:version="1.1.2 (0a00cf5339, 2022-02-04)"
   xmlns:inkscape="http://www.inkscape.org/namespaces/inkscape"
   xmlns:sodipodi="http://sodipodi.sourceforge.net/DTD/sodipodi-0.dtd"
   xmlns:xlink="http://www.w3.org/1999/xlink"
   xmlns="http://www.w3.org/2000/svg"
   xmlns:svg="http://www.w3.org/2000/svg">
  <defs
     id="defs3">
    <linearGradient
       inkscape:collect="always"
       xlink:href="#_lgradient_0"
       id="linearGradient872"
       x1="-12.025727"
       y1="6.1170783"
       x2="-0.085100174"
       y2="6.1170783"
       gradientUnits="userSpaceOnUse"
       gradientTransform="matrix(3.8358211,0,0,3.8371386,-0.00544341,-0.00268054)" />
    <linearGradient
       inkscape:collect="always"
       xlink:href="#_lgradient_0"
       id="linearGradient15"
       x1="-9.6850061"
       y1="45.161198"
       x2="11.98815"
       y2="21.735205"
       gradientUnits="userSpaceOnUse"
       gradientTransform="matrix(1.1147442,0,0,1.1150348,-0.01237238,-3.3277956)" />
    <linearGradient
       inkscape:collect="always"
       xlink:href="#_lgradient_0"
       id="linearGradient999"
       x1="13.136153"
       y1="24"
       x2="34.863846"
       y2="24"
       gradientUnits="userSpaceOnUse" />
  </defs>
  <sodipodi:namedview
     id="namedview3"
     pagecolor="#505050"
     bordercolor="#ffffff"
     borderopacity="1"
     inkscape:showpageshadow="0"
     inkscape:pageopacity="0"
     inkscape:pagecheckerboard="1"
     inkscape:deskcolor="#505050"
     inkscape:document-units="pt"
     inkscape:zoom="6.7109375"
     inkscape:cx="31.962747"
     inkscape:cy="32.037253"
     inkscape:window-width="1600"
     inkscape:window-height="836"
     inkscape:window-x="0"
     inkscape:window-y="0"
     inkscape:window-maximized="1"
     inkscape:current-layer="svg3"
     inkscape:pageshadow="2"
     showgrid="false" />
  <linearGradient
     id="_lgradient_0"
     x1="-0.09999999999999996"
     y1="1.1"
     x2="0.9883726647000989"
     y2="0.04272369714847657"
     gradientTransform="matrix(21.727695,0,0,21.727695,13.136152,13.136152)"
     gradientUnits="userSpaceOnUse">
    <stop
       offset="0%"
       stop-opacity="1"
       style="stop-color:rgb(84,51,255)"
       id="stop1" />
    <stop
       offset="51.73913043478261%"
       stop-opacity="1"
       style="stop-color:rgb(32,189,255)"
       id="stop2" />
    <stop
       offset="98.26086956521739%"
       stop-opacity="1"
       style="stop-color:rgb(165,254,203)"
       id="stop3" />
  </linearGradient>
  <rect
     x="-46.783188"
     y="1.2253767"
     height="45.80014"
     rx="6.1837621"
     shape-rendering="crispEdges"
     id="rect5-6-7-3"
     ry="6.8055277"
     transform="matrix(0.00524063,-0.99998627,0.99998801,0.00489691,0,0)"
     style="isolation:isolate;fill:#00c3ff;fill-opacity:0.13470298;stroke:url(#linearGradient872);stroke-width:2.0301;stroke-miterlimit:4;stroke-dasharray:none;stroke-opacity:1"
     width="45.801998" />
  <rect
     x="-15.686804"
     y="17.260084"
     height="33.345856"
     rx="6.7920032"
     shape-rendering="crispEdges"
     id="rect5-6-6-6-6"
     style="isolation:isolate;fill:#00c3ff;fill-opacity:0.13470298;stroke:url(#linearGradient15);stroke-width:1.67233;stroke-miterlimit:4;stroke-dasharray:none;stroke-opacity:1"
     ry="7.4743071"
     transform="matrix(0.72446484,-0.68931175,0.68622417,0.72739012,0,0)"
     width="33.338203" />
  <path
     style="color:#000000;fill:url(#linearGradient999);fill-rule:evenodd;-inkscape-stroke:none"
     d="m 14.652344,12.636719 c -1.107386,0 -2.015625,0.908239 -2.015625,2.015625 v 11.36914 c 0,0.688729 0.568527,1.257813 1.257812,1.257813 0.689115,0 1.257813,-0.568698 1.257813,-1.257813 V 15.158203 c 0,-0.0092 -0.0033,-0.0059 0.0059,-0.0059 h 17.683594 c 0.0092,0 0.0059,-0.0033 0.0059,0.0059 v 4.294922 c 0,0.689285 0.569083,1.257812 1.257813,1.257812 0.6889,0 1.257812,-0.568913 1.257812,-1.257812 v -4.800781 c 0,-1.107386 -0.908239,-2.015625 -2.015625,-2.015625 z m 0,1 h 18.695312 c 0.566129,0 1.015625,0.449496 1.015625,1.015625 v 4.800781 c 0,0.14834 -0.109472,0.257813 -0.257812,0.257812 -0.147544,0 -0.257813,-0.109858 -0.257813,-0.257812 v -4.294922 c 0,-0.548976 -0.456883,-1.005859 -1.005859,-1.005859 H 15.158203 c -0.548976,0 -1.005859,0.456883 -1.005859,1.005859 v 10.863281 c 0,0.147161 -0.110654,0.257813 -0.257813,0.257813 -0.147956,0 -0.257812,-0.110266 -0.257812,-0.257813 v -11.36914 c 0,-0.566129 0.449496,-1.015625 1.015625,-1.015625 z m 19.453125,9.105468 c -0.689115,0 -1.257813,0.568699 -1.257813,1.257813 v 8.841797 c 0,0.0092 0.0033,0.0059 -0.0059,0.0059 h -7.583985 v -1.021484 h 5.310547 c 0.68873,0 1.257813,-0.569083 1.257813,-1.257813 0,-0.6889 -0.569083,-1.257812 -1.257813,-1.257812 h -15.158203 -0.257812 -0.5 -0.5 v 0.105469 c -0.275163,0.04353 -0.570583,0.05778 -0.794922,0.169921 -0.365366,0.182643 -0.720703,0.50264 -0.720703,0.982422 v 2.779297 c 0,1.107386 0.908239,2.015625 2.015625,2.015625 h 18.695312 c 1.107386,0 2.015625,-0.908239 2.015625,-2.015625 V 24 c 0,-0.688729 -0.568527,-1.257813 -1.257812,-1.257813 z m 0,1 c 0.147956,0 0.257812,0.110268 0.257812,0.257813 v 9.347656 c 0,0.566129 -0.449496,1.015625 -1.015625,1.015625 H 14.652344 c -0.566129,0 -1.015625,-0.449496 -1.015625,-1.015625 v -2.779297 c 0,0.06116 -0.01553,0.0038 0.167969,-0.08789 0.07529,-0.03763 0.234908,-0.04183 0.347656,-0.07031 v 0.158203 0.757813 0.5 1.015625 c 0,0.548976 0.456883,1.005859 1.005859,1.005859 h 8.583984 v -3.021484 h -8.332031 -0.257812 v -0.515625 h 0.257812 15.158203 c 0.147546,0 0.257813,0.109473 0.257813,0.257812 0,0.147546 -0.110267,0.257813 -0.257813,0.257813 h -6.310547 v 3.021484 h 0.5 8.083985 c 0.548976,0 1.005859,-0.456883 1.005859,-1.005859 V 24 c 0,-0.147159 0.110654,-0.257813 0.257813,-0.257813 z m -17.300782,8.083985 h 0.201172 c -0.04353,0.0762 -0.07465,0.154701 -0.09961,0.240234 -0.02028,-0.08778 -0.06186,-0.161237 -0.101563,-0.240234 z m 2.03125,0 h 0.121094 c -0.02461,0.04689 -0.04264,0.09421 -0.06055,0.144531 -0.0197,-0.0495 -0.0343,-0.09862 -0.06055,-0.144531 z m 1.982422,0 h 1.923828 v 1.021484 h -1.949218 c 0.102392,-0.169695 0.226562,-0.331064 0.226562,-0.541015 0,-0.186063 -0.119323,-0.324599 -0.201172,-0.480469 z m -4.953125,0.330078 c 0.08201,0 0.132813,0.04931 0.132813,0.130859 0,0.08155 -0.0508,0.132813 -0.132813,0.132813 -0.08116,0 -0.130859,-0.05126 -0.130859,-0.132813 0,-0.08155 0.0497,-0.130859 0.130859,-0.130859 z m 4.021485,0.01758 c 0.08201,0 0.132812,0.05126 0.132812,0.132813 0,0.08155 -0.0508,0.130859 -0.132812,0.130859 -0.08116,0 -0.13086,-0.04931 -0.13086,-0.130859 0,-0.08155 0.0497,-0.132813 0.13086,-0.132813 z m -1.964844,0.03711 c 0.08201,0 0.130859,0.05126 0.130859,0.132813 0,0.08155 -0.04885,0.130859 -0.130859,0.130859 -0.08116,0 -0.132813,-0.04931 -0.132813,-0.130859 0,-0.08155 0.05166,-0.132813 0.132813,-0.132813 z m -1.041016,0.353516 c 0.02387,0.103399 0.06868,0.192332 0.119141,0.283203 h -0.236328 c 0.0549,-0.08749 0.08775,-0.182401 0.117187,-0.283203 z m 2.03125,0.115234 c 0.02297,0.05762 0.03854,0.115287 0.07031,0.167969 h -0.140625 c 0.02992,-0.05386 0.0494,-0.109384 0.07031,-0.167969 z"
     id="path3" />
</svg>
