<?xml version="1.0" encoding="UTF-8" standalone="no"?>
<!-- Generator: Gravit.io -->

<svg
   style="isolation:isolate"
   viewBox="0 0 48 48"
   width="48pt"
   height="48pt"
   version="1.1"
   id="svg9"
   sodipodi:docname="org.kde.kalendar.svg"
   inkscape:version="1.1.2 (0a00cf5339, 2022-02-04)"
   xmlns:inkscape="http://www.inkscape.org/namespaces/inkscape"
   xmlns:sodipodi="http://sodipodi.sourceforge.net/DTD/sodipodi-0.dtd"
   xmlns:xlink="http://www.w3.org/1999/xlink"
   xmlns="http://www.w3.org/2000/svg"
   xmlns:svg="http://www.w3.org/2000/svg">
  <defs
     id="defs13">
    <linearGradient
       inkscape:collect="always"
       xlink:href="#_lgradient_27"
       id="linearGradient872"
       x1="-12.025727"
       y1="6.1170783"
       x2="-0.085100174"
       y2="6.1170783"
       gradientUnits="userSpaceOnUse"
       gradientTransform="matrix(3.8358211,0,0,3.8371386,-0.00544341,-0.00268054)" />
    <linearGradient
       id="_lgradient_1"
       x1="0.18336116"
       y1="0.24917752"
       x2="0.9027437"
       y2="0.90347725"
       gradientTransform="matrix(24.617266,0,0,24.816118,10.841288,10.089605)"
       gradientUnits="userSpaceOnUse">
      <stop
         offset="2.608695652173913%"
         stop-opacity="1"
         style="stop-color:rgb(179,255,171)"
         id="stop2-3" />
      <stop
         offset="98.69565217391305%"
         stop-opacity="1"
         style="stop-color:rgb(18,255,247)"
         id="stop4-6" />
    </linearGradient>
    <linearGradient
       inkscape:collect="always"
       xlink:href="#_lgradient_27"
       id="linearGradient15"
       x1="-9.6850061"
       y1="45.161198"
       x2="11.98815"
       y2="21.735205"
       gradientUnits="userSpaceOnUse"
       gradientTransform="matrix(1.1147442,0,0,1.1150348,-0.01237238,-3.3277956)" />
    <linearGradient
       inkscape:collect="always"
       xlink:href="#_lgradient_27"
       id="linearGradient1442"
       x1="21.410582"
       y1="36.153545"
       x2="8.4897814"
       y2="16.949064"
       gradientUnits="userSpaceOnUse" />
  </defs>
  <sodipodi:namedview
     id="namedview11"
     pagecolor="#ffffff"
     bordercolor="#666666"
     borderopacity="1.0"
     inkscape:pageshadow="2"
     inkscape:pageopacity="0.0"
     inkscape:pagecheckerboard="0"
     inkscape:document-units="pt"
     showgrid="false"
     inkscape:zoom="10.21875"
     inkscape:cx="31.95107"
     inkscape:cy="28.672783"
     inkscape:window-width="1600"
     inkscape:window-height="836"
     inkscape:window-x="0"
     inkscape:window-y="0"
     inkscape:window-maximized="1"
     inkscape:current-layer="svg9" />
  <linearGradient
     id="_lgradient_27"
     x1="0.5819638936634305"
     y1="0.7783106944169678"
     x2="0.2761894372629943"
     y2="0.32136112200255573"
     gradientTransform="matrix(42.255982,0,0,42.027571,-3.1808747,3.443036)"
     gradientUnits="userSpaceOnUse">
    <stop
       offset="0%"
       stop-opacity="1"
       style="stop-color:rgb(27,206,137)"
       id="stop2" />
    <stop
       offset="100%"
       stop-opacity="1"
       style="stop-color:rgb(78,142,213)"
       id="stop4" />
  </linearGradient>
  <rect
     x="-46.783188"
     y="1.2253767"
     height="45.80014"
     rx="6.1837621"
     shape-rendering="crispEdges"
     id="rect5-6-7-3"
     ry="6.8055277"
     transform="matrix(0.00524063,-0.99998627,0.99998801,0.00489691,0,0)"
     style="isolation:isolate;fill:#00b3ff;fill-opacity:0.13470298;stroke:url(#linearGradient872);stroke-width:2.0301;stroke-miterlimit:4;stroke-dasharray:none;stroke-opacity:1"
     width="45.801998" />
  <rect
     x="-15.686804"
     y="17.260084"
     height="33.345856"
     rx="6.7920032"
     shape-rendering="crispEdges"
     id="rect5-6-6-6-6"
     style="isolation:isolate;fill:#00b3ff;fill-opacity:0.13470298;stroke:url(#linearGradient15);stroke-width:1.67233;stroke-miterlimit:4;stroke-dasharray:none;stroke-opacity:1"
     ry="7.4743071"
     transform="matrix(0.72446484,-0.68931175,0.68622417,0.72739012,0,0)"
     width="33.338203" />
  <path
     style="color:#000000;fill:url(#linearGradient1442);fill-rule:evenodd;-inkscape-stroke:none"
     d="m 15.320313,12.080078 c -0.774509,0 -1.414063,0.637601 -1.414063,1.41211 v 0.914062 c 0,0.774509 0.639554,1.414062 1.414063,1.414063 h 0.708984 c -0.530491,0.05247 -1.054316,0.214889 -1.433594,0.601562 -0.441978,0.433524 -0.689453,1.025114 -0.689453,1.638672 v 5.482422 c 0,0.613558 0.247475,1.205148 0.689453,1.638672 0.405754,0.413667 0.961881,0.617593 1.533203,0.646484 -0.57104,0.02907 -1.127633,0.231052 -1.533203,0.644531 -0.441978,0.433524 -0.689453,1.025113 -0.689453,1.638672 v 5.482422 c 0,0.613559 0.247475,1.205148 0.689453,1.638672 0.433524,0.441978 1.025115,0.6875 1.638672,0.6875 h 5.482422 c 0.613557,0 1.205148,-0.245523 1.638672,-0.6875 0.414101,-0.406181 0.616052,-0.96318 0.644531,-1.535156 0.02848,0.571976 0.23043,1.128975 0.644531,1.535156 0.433524,0.441977 1.025115,0.6875 1.638672,0.6875 h 5.482422 c 0.613557,0 1.205148,-0.245522 1.638672,-0.6875 0.441978,-0.433524 0.689453,-1.025113 0.689453,-1.638672 v -5.482422 c 0,-0.613559 -0.247475,-1.205148 -0.689453,-1.638672 -0.40557,-0.413479 -0.962163,-0.615463 -1.533203,-0.644531 0.571322,-0.02889 1.127449,-0.232817 1.533203,-0.646484 0.441978,-0.433524 0.689453,-1.025114 0.689453,-1.638672 v -5.482422 c 0,-0.613558 -0.247475,-1.205148 -0.689453,-1.638672 -0.379278,-0.386673 -0.903103,-0.549095 -1.433594,-0.601562 h 0.708984 c 0.774509,-1e-6 1.414063,-0.639554 1.414063,-1.414063 v -0.914062 c 0,-0.774509 -0.639554,-1.41211 -1.414063,-1.41211 h -7.308593 c -0.734302,0 -1.309467,0.588906 -1.371094,1.308594 -0.06163,-0.719688 -0.636792,-1.308594 -1.371094,-1.308594 z m 0,1 h 7.308593 c 0.237806,0 0.414063,0.174303 0.414063,0.41211 v 0.914062 c 0,0.237806 -0.176257,0.414062 -0.414063,0.414063 h -7.308593 c -0.237807,0 -0.414063,-0.176257 -0.414063,-0.414063 v -0.914062 c 0,-0.237807 0.176256,-0.41211 0.414063,-0.41211 z m 10.050781,0 h 7.308593 c 0.237807,0 0.414063,0.174303 0.414063,0.41211 v 0.914062 c 0,0.237806 -0.176256,0.414062 -0.414063,0.414063 h -7.308593 c -0.237806,0 -0.414063,-0.176257 -0.414063,-0.414063 v -0.914062 c 0,-0.237807 0.176257,-0.41211 0.414063,-0.41211 z M 24,14.509766 c 0.06153,0.71978 0.636725,1.310546 1.371094,1.310547 h 0.707031 c -0.530491,0.05247 -1.054316,0.214889 -1.433594,0.601562 C 24.230429,16.828056 24.028479,17.385056 24,17.957031 23.971521,17.385056 23.769571,16.828056 23.355469,16.421875 22.976191,16.035202 22.452366,15.87278 21.921875,15.820313 h 0.707031 c 0.734369,-1e-6 1.309562,-0.590767 1.371094,-1.310547 z m -7.765625,2.224609 h 5.482422 c 0.352155,0 0.687614,0.138103 0.929687,0.386719 l 0.0039,0.0059 0.0059,0.0039 c 0.248616,0.242073 0.386719,0.577534 0.386719,0.929688 v 5.482422 c 0,0.352154 -0.138103,0.687615 -0.386719,0.929687 l -0.0059,0.0059 -0.0039,0.0039 c -0.242073,0.248615 -0.577532,0.388672 -0.929687,0.388672 h -5.482422 c -0.352155,0 -0.687615,-0.140057 -0.929687,-0.388672 l -0.0059,-0.0039 -0.0039,-0.0059 C 15.046307,24.230583 14.90625,23.895123 14.90625,23.542969 v -5.482422 c 0,-0.352154 0.140057,-0.687615 0.388672,-0.929688 l 0.0039,-0.0039 0.0059,-0.0059 c 0.242072,-0.248615 0.577532,-0.386719 0.929687,-0.386719 z m 10.048828,0 h 5.482422 c 0.352155,0 0.687615,0.138104 0.929687,0.386719 l 0.0059,0.0059 0.0039,0.0039 c 0.248615,0.242073 0.388672,0.577534 0.388672,0.929688 v 5.482422 c 0,0.352154 -0.140057,0.687614 -0.388672,0.929687 l -0.0039,0.0059 -0.0059,0.0039 c -0.242072,0.248615 -0.577532,0.388672 -0.929687,0.388672 h -5.482422 c -0.352155,0 -0.687614,-0.140057 -0.929687,-0.388672 l -0.0039,-0.0039 -0.0059,-0.0059 c -0.248616,-0.242072 -0.386719,-0.577533 -0.386719,-0.929687 v -5.482422 c 0,-0.352154 0.138103,-0.687615 0.386719,-0.929688 l 0.0059,-0.0039 0.0039,-0.0059 c 0.242073,-0.248616 0.577532,-0.386719 0.929687,-0.386719 z m -10.548828,0.826172 v 6.482422 h 6.482422 v -6.482422 h -0.5 z m 10.048828,0 v 6.482422 h 6.482422 v -6.482422 h -0.5 z m -9.048828,1 h 4.482422 v 4.482422 h -4.482422 z m 10.048828,0 h 4.482422 v 4.482422 H 26.783203 Z M 24,23.646484 c 0.02848,0.571976 0.230429,1.128975 0.644531,1.535157 0.405754,0.413666 0.961881,0.617593 1.533203,0.646484 -0.571039,0.02907 -1.127633,0.231052 -1.533203,0.644531 -0.414102,0.406182 -0.616052,0.96318 -0.644531,1.535156 -0.02848,-0.571976 -0.230429,-1.128974 -0.644531,-1.535156 -0.40557,-0.413479 -0.962164,-0.615462 -1.533203,-0.644531 0.571322,-0.02889 1.127449,-0.232818 1.533203,-0.646484 C 23.769571,24.775459 23.971521,24.21846 24,23.646484 Z m -7.765625,3.136719 h 5.482422 c 0.352155,0 0.687614,0.140057 0.929687,0.388672 l 0.0039,0.0039 0.0059,0.0059 c 0.248616,0.242072 0.386719,0.577532 0.386719,0.929687 v 5.482422 c 0,0.352155 -0.138103,0.687614 -0.386719,0.929687 l -0.0059,0.0039 -0.0039,0.0059 c -0.242073,0.248616 -0.577532,0.386719 -0.929687,0.386719 h -5.482422 c -0.352155,0 -0.687615,-0.138103 -0.929687,-0.386719 l -0.0059,-0.0059 -0.0039,-0.0039 C 15.046307,34.281364 14.90625,33.945905 14.90625,33.59375 v -5.482422 c 0,-0.352155 0.140057,-0.687615 0.388672,-0.929687 l 0.0039,-0.0059 0.0059,-0.0039 c 0.242072,-0.248615 0.577532,-0.388672 0.929687,-0.388672 z m 10.048828,0 h 5.482422 c 0.352155,0 0.687615,0.140057 0.929687,0.388672 l 0.0059,0.0039 0.0039,0.0059 c 0.248615,0.242072 0.388672,0.577532 0.388672,0.929687 v 5.482422 c 0,0.352155 -0.140057,0.687614 -0.388672,0.929687 l -0.0039,0.0039 -0.0059,0.0059 c -0.242072,0.248616 -0.577532,0.386719 -0.929687,0.386719 h -5.482422 c -0.352155,0 -0.687614,-0.138103 -0.929687,-0.386719 l -0.0039,-0.0059 -0.0059,-0.0039 C 25.095134,34.281364 24.957031,33.945905 24.957031,33.59375 v -5.482422 c 0,-0.352155 0.138103,-0.687615 0.386719,-0.929687 l 0.0059,-0.0059 0.0039,-0.0039 c 0.242073,-0.248615 0.577532,-0.388672 0.929687,-0.388672 z m -10.548828,0.828125 v 6.482422 h 6.482422 v -6.482422 h -0.5 z m 10.048828,0 v 6.482422 h 6.482422 v -6.482422 h -0.5 z m -9.048828,1 h 3.625 l -1.988281,2.398438 -0.91211,-1.09961 -0.724609,0.603516 z m 4.214844,0 h 0.267578 v 0.222656 z m 5.833984,0 h 4.482422 v 4.482422 h -4.482422 z m -5.566406,1.962891 v 2.519531 h -2.523438 c 0.267794,-0.0774 0.549538,-0.139755 0.732422,-0.363281 z m -4.482422,1.457031 0.574219,0.689453 c 0.180773,0.233941 0.471779,0.295955 0.746093,0.373047 h -1.320312 z"
     id="path7" />
</svg>
