<?xml version="1.0" encoding="UTF-8" standalone="no"?>
<!-- Generator: Gravit.io -->

<svg
   style="isolation:isolate"
   viewBox="0 0 48 48"
   width="48pt"
   height="48pt"
   version="1.1"
   id="svg27"
   sodipodi:docname="pdfarranger.svg"
   inkscape:version="1.1.2 (0a00cf5339, 2022-02-04)"
   xmlns:inkscape="http://www.inkscape.org/namespaces/inkscape"
   xmlns:sodipodi="http://sodipodi.sourceforge.net/DTD/sodipodi-0.dtd"
   xmlns:xlink="http://www.w3.org/1999/xlink"
   xmlns="http://www.w3.org/2000/svg"
   xmlns:svg="http://www.w3.org/2000/svg">
  <defs
     id="defs31">
    <linearGradient
       id="_lgradient_5"
       x1="0"
       y1="0.5"
       x2="1"
       y2="0.5"
       gradientTransform="matrix(16.218668,0,0,23.005203,9.4053222,12.4974)"
       gradientUnits="userSpaceOnUse">
      <stop
         offset="0%"
         stop-opacity="1"
         style="stop-color:rgb(84,51,255)"
         id="stop2" />
      <stop
         offset="51.73913043478261%"
         stop-opacity="1"
         style="stop-color:rgb(32,189,255)"
         id="stop4" />
      <stop
         offset="98.26086956521739%"
         stop-opacity="1"
         style="stop-color:rgb(165,254,203)"
         id="stop6" />
    </linearGradient>
    <linearGradient
       id="_lgradient_6"
       x1="0.39060599"
       y1="0.6402967"
       x2="0.97126168"
       y2="0.034928747"
       gradientTransform="matrix(17.106433,0,0,20.940633,15.009154,13.087276)"
       gradientUnits="userSpaceOnUse">
      <stop
         offset="0%"
         stop-opacity="1"
         style="stop-color:rgb(211,0,220)"
         id="stop11" />
      <stop
         offset="100%"
         stop-opacity="1"
         style="stop-color:rgb(135,0,255)"
         id="stop13" />
    </linearGradient>
    <linearGradient
       id="_lgradient_7"
       x1="0.031182563"
       y1="0.10866628"
       x2="0.95837951"
       y2="0.97519469"
       gradientTransform="matrix(20.224524,0,0,23.005203,17.494895,12.4974)"
       gradientUnits="userSpaceOnUse">
      <stop
         offset="0%"
         stop-opacity="1"
         style="stop-color:rgb(165,248,106)"
         id="stop18" />
      <stop
         offset="97.91666666666666%"
         stop-opacity="1"
         style="stop-color:rgb(47,206,146)"
         id="stop20" />
    </linearGradient>
    <linearGradient
       inkscape:collect="always"
       xlink:href="#_lgradient_7"
       id="linearGradient872"
       x1="-12.025727"
       y1="6.1170783"
       x2="-0.085100174"
       y2="6.1170783"
       gradientUnits="userSpaceOnUse"
       gradientTransform="matrix(3.8358211,0,0,3.8371386,-0.00544341,-0.00268054)" />
    <linearGradient
       id="_lgradient_1"
       x1="0.18336116"
       y1="0.24917752"
       x2="0.9027437"
       y2="0.90347725"
       gradientTransform="matrix(24.617266,0,0,24.816118,10.841288,10.089605)"
       gradientUnits="userSpaceOnUse">
      <stop
         offset="2.608695652173913%"
         stop-opacity="1"
         style="stop-color:rgb(179,255,171)"
         id="stop2-3" />
      <stop
         offset="98.69565217391305%"
         stop-opacity="1"
         style="stop-color:rgb(18,255,247)"
         id="stop4-6" />
    </linearGradient>
    <linearGradient
       inkscape:collect="always"
       xlink:href="#_lgradient_7"
       id="linearGradient15"
       x1="-9.6850061"
       y1="45.161198"
       x2="11.98815"
       y2="21.735205"
       gradientUnits="userSpaceOnUse"
       gradientTransform="matrix(1.1147442,0,0,1.1150348,-0.01237238,-3.3277956)" />
    <linearGradient
       inkscape:collect="always"
       xlink:href="#_lgradient_7"
       id="linearGradient972"
       x1="17.494896"
       y1="24.000002"
       x2="37.719418"
       y2="24.000002"
       gradientUnits="userSpaceOnUse" />
    <linearGradient
       inkscape:collect="always"
       xlink:href="#_lgradient_6"
       id="linearGradient1002"
       x1="15.008865"
       y1="23.410269"
       x2="32.001816"
       y2="23.410269"
       gradientUnits="userSpaceOnUse" />
    <linearGradient
       inkscape:collect="always"
       xlink:href="#_lgradient_5"
       id="linearGradient1032"
       x1="9.4053221"
       y1="23.999989"
       x2="23.558048"
       y2="23.999989"
       gradientUnits="userSpaceOnUse" />
  </defs>
  <sodipodi:namedview
     id="namedview29"
     pagecolor="#ffffff"
     bordercolor="#666666"
     borderopacity="1.0"
     inkscape:pageshadow="2"
     inkscape:pageopacity="0.0"
     inkscape:pagecheckerboard="0"
     inkscape:document-units="pt"
     showgrid="false"
     inkscape:zoom="10.21875"
     inkscape:cx="31.95107"
     inkscape:cy="32"
     inkscape:window-width="1600"
     inkscape:window-height="836"
     inkscape:window-x="0"
     inkscape:window-y="0"
     inkscape:window-maximized="1"
     inkscape:current-layer="svg27" />
  <rect
     x="-46.783188"
     y="1.2253767"
     height="45.80014"
     rx="6.1837621"
     shape-rendering="crispEdges"
     id="rect5-6-7-3"
     ry="6.8055277"
     transform="matrix(0.00524063,-0.99998627,0.99998801,0.00489691,0,0)"
     style="isolation:isolate;fill:#00ff45;fill-opacity:0.13470298;stroke:url(#linearGradient872);stroke-width:2.0301;stroke-miterlimit:4;stroke-dasharray:none;stroke-opacity:1"
     width="45.801998" />
  <rect
     x="-15.686804"
     y="17.260084"
     height="33.345856"
     rx="6.7920032"
     shape-rendering="crispEdges"
     id="rect5-6-6-6-6"
     style="isolation:isolate;fill:#00ff45;fill-opacity:0.13470298;stroke:url(#linearGradient15);stroke-width:1.67233;stroke-miterlimit:4;stroke-dasharray:none;stroke-opacity:1"
     ry="7.4743071"
     transform="matrix(0.72446484,-0.68931175,0.68622417,0.72739012,0,0)"
     width="33.338203" />
  <path
     style="color:#000000;fill:url(#linearGradient1032);-inkscape-stroke:none"
     d="m 23.132812,12.248047 v 0.0332 c -0.131634,0.01322 -0.263929,0.01635 -0.394531,0.05273 l -1.882812,0.511719 0.06641,0.492188 h 1.419922 l 0.07227,-0.06641 c 0.04179,-0.03883 0.08445,-0.07678 0.128907,-0.111328 0.301489,-0.234033 0.658499,-0.374598 1.035156,-0.40625 v -0.0059 h 0.05469 v -0.25 l -0.05469,0.05469 v -0.296875 c -0.06337,-0.0052 -0.128125,-0.0078 -0.195313,-0.0078 z m -1.488281,1.183594 c -0.0088,0.01439 -0.01818,0.02911 -0.02734,0.04492 l 0.433594,0.251953 c 0.0067,-0.01153 0.01384,-0.02454 0.02148,-0.03711 z m -0.166015,0.322265 c -0.01042,0.02435 -0.0156,0.04002 -0.01758,0.04492 l 0.462891,0.1875 c 4.2e-4,-0.001 -3.99e-4,-9.6e-4 0,-0.002 0.0077,-0.01923 0.01212,-0.02937 0.01367,-0.0332 7.9e-5,-1.94e-4 -6.5e-5,-0.0018 0,-0.002 z m -5.97461,0.550782 -0.447265,0.123046 -4.070313,1.109375 C 10.459382,15.68148 9.99568,15.995534 9.6679688,16.435547 9.3345043,16.874321 9.15625,17.409818 9.15625,17.958984 c 0,0.219891 0.024209,0.437455 0.082031,0.654297 l 4.0273437,15.277344 c 0.140967,0.535148 0.449451,1.008356 0.880859,1.34375 0.430221,0.33447 0.957921,0.517578 1.5,0.517578 0.215996,0 0.42986,-0.02687 0.642578,-0.08594 l 6.214844,-1.691407 -0.06641,-0.492187 h -5.152344 c -0.274569,0 -0.544407,-0.05631 -0.794922,-0.164063 l -0.08008,-0.03516 -0.705078,0.191406 -0.002,0.002 c -0.01708,0.005 -0.03051,0.0059 -0.05664,0.0059 -0.09951,0 -0.197509,-0.07 -0.226562,-0.179688 L 11.396484,18.025391 v -0.002 c -0.006,-0.02195 -0.0078,-0.03869 -0.0078,-0.06445 0,-0.103429 0.07588,-0.202168 0.175781,-0.230468 l 3.695313,-1.00586 v -1.351562 c 0,-0.211998 0.03566,-0.422533 0.101562,-0.625 z m 1.78711,0.302734 c -0.200178,0 -0.390322,0.07853 -0.535157,0.214844 l -0.0059,0.0059 -0.0059,0.0039 C 16.60786,14.97683 16.529297,15.16985 16.529297,15.371094 V 16.375 l 4.689453,-1.277344 -0.06641,-0.490234 z m -2.472657,0.402344 c -0.01845,0.120928 -0.05859,0.237158 -0.05859,0.361328 v 0.96875 l -3.330078,0.90625 c -0.31655,0.08967 -0.541016,0.379812 -0.541016,0.71289 0,0.06863 0.0089,0.134685 0.02539,0.195313 l 4.021484,15.277344 h 0.002 c 0.08657,0.326822 0.380246,0.550781 0.708984,0.550781 0.0659,0 0.134124,-0.0088 0.197266,-0.02734 l 0.566406,-0.154297 c 0.279608,0.105081 0.571074,0.181641 0.875,0.181641 h 3.28711 l -4.414063,1.203125 h -0.002 c -0.16771,0.04672 -0.333547,0.06641 -0.509766,0.06641 -0.428855,0 -0.849663,-0.144906 -1.193359,-0.412109 C 14.110614,34.573562 13.863861,34.195921 13.75,33.763672 L 9.7226563,18.484375 C 9.6766646,18.311899 9.65625,18.140211 9.65625,17.958984 c 0,-0.441191 0.1426891,-0.871276 0.410156,-1.222656 l 0.002,-0.002 c 0.260429,-0.349673 0.629551,-0.599336 1.048829,-0.714844 z m 2.472657,0.09766 h 1.988281 l -2.25,0.613281 v -0.349609 c 0,-0.06744 0.02752,-0.132895 0.07617,-0.1875 0.05443,-0.04853 0.117102,-0.07617 0.185547,-0.07617 z"
     id="path9" />
  <path
     style="color:#000000;fill:url(#linearGradient1002);-inkscape-stroke:none"
     d="m 17.285156,12.837891 c -0.667988,0 -1.313021,0.268123 -1.785156,0.746093 -0.472148,0.472147 -0.740234,1.118302 -0.740234,1.78711 v 16.078125 c 0,0.667926 0.267292,1.315126 0.738281,1.787109 4.39e-4,4.46e-4 0.0015,-4.45e-4 0.002,0 4.4e-4,4.41e-4 -4.4e-4,0.0015 0,0.002 0.472087,0.477621 1.117428,0.744141 1.785156,0.744141 H 24.6875 l 0.06445,-0.490235 -5.544922,-1.511718 v 0.002 C 19.022364,31.931831 18.848972,31.853168 18.6875,31.751953 l -0.06055,-0.03906 h -1.335937 c -0.06803,0 -0.132225,-0.02821 -0.1875,-0.07813 -0.04784,-0.05454 -0.07422,-0.118953 -0.07422,-0.185547 V 15.371094 c 0,-0.06744 0.02752,-0.132895 0.07617,-0.1875 0.05443,-0.04853 0.117106,-0.07617 0.185547,-0.07617 h 4.318359 l 0.230469,-0.871094 c 0.09895,-0.375645 0.296962,-0.709109 0.572265,-0.964844 l 0.466797,-0.433593 z m 8.91211,0 -0.06445,0.490234 6.25,1.703125 -0.142578,-0.439453 C 32.118205,14.21602 31.909569,13.868553 31.625,13.583984 31.152865,13.106014 30.507832,12.837891 29.839844,12.837891 Z m -8.91211,0.5 h 4.529297 c -0.174249,0.246225 -0.380536,0.473671 -0.458984,0.771484 l -0.13086,0.498047 h -3.933593 c -0.200182,0 -0.390325,0.07853 -0.535157,0.214844 l -0.0059,0.0059 -0.0059,0.0039 c -0.136278,0.144797 -0.214844,0.337816 -0.214844,0.539063 v 16.078125 c 0,0.201244 0.07905,0.392833 0.214844,0.537109 l 0.0059,0.0059 0.0059,0.0059 c 0.144275,0.135783 0.33391,0.214844 0.535157,0.214844 h 1.214843 c 0.179238,0.103523 0.366629,0.194199 0.570313,0.25 l 3.740234,1.019531 h -5.53125 c -0.534738,0 -1.054467,-0.215245 -1.43164,-0.597656 -0.377276,-0.377275 -0.59375,-0.901006 -0.59375,-1.435547 V 15.371094 c 0,-0.534541 0.216474,-1.056319 0.59375,-1.433594 v -0.002 c 0.377173,-0.382411 0.896902,-0.597656 1.43164,-0.597656 z m 10.785156,0 h 1.769532 c 0.534738,0 1.054467,0.215245 1.43164,0.597656 v 0.002 c 0.09171,0.09171 0.127534,0.220795 0.199219,0.328125 z"
     id="path16" />
  <path
     style="color:#000000;fill:url(#linearGradient972);fill-rule:evenodd;-inkscape-stroke:none"
     d="m 23.742187,12.248047 c -0.547388,0 -1.075379,0.183416 -1.505859,0.517578 -0.431291,0.335303 -0.739874,0.808526 -0.880859,1.34375 l -4.027344,15.277344 c -0.05827,0.216759 -0.08398,0.435269 -0.08398,0.654297 0,0.549427 0.18096,1.084799 0.513671,1.523437 0.328078,0.439622 0.791277,0.755984 1.31836,0.900391 l 11.755859,3.201172 c 0.210973,0.06065 0.428925,0.08594 0.640625,0.08594 0.546867,0 1.075761,-0.183204 1.50586,-0.517578 0.43129,-0.335303 0.739872,-0.808527 0.880859,-1.34375 l 4.027344,-15.277344 c 0.05788,-0.216995 0.08203,-0.434626 0.08203,-0.654297 0,-0.549016 -0.178465,-1.084709 -0.511719,-1.523437 l -0.002,-0.002 c -0.327562,-0.438768 -0.790271,-0.754291 -1.316406,-0.898438 l -11.75586,-3.201172 c -0.21097,-0.06065 -0.429447,-0.08594 -0.640625,-0.08594 z m 0,0.5 c 0.169887,0 0.343664,0.0209 0.501954,0.06641 h 0.002 0.002 l 11.757812,3.203125 c 0.42031,0.115153 0.78974,0.366302 1.050782,0.716797 v 0.002 h 0.002 c 0.267432,0.351332 0.410156,0.781525 0.410156,1.222656 0,0.181445 -0.02044,0.353067 -0.06641,0.525391 v 0.002 L 33.375,33.763672 c -0.113842,0.432174 -0.360498,0.809799 -0.703125,1.076172 -0.343821,0.267299 -0.764531,0.412109 -1.199219,0.412109 -0.170539,0 -0.343662,-0.0209 -0.501953,-0.06641 h -0.002 L 19.207031,31.982422 c -0.420258,-0.11514 -0.787028,-0.365986 -1.048828,-0.716797 l -0.002,-0.002 c -0.267048,-0.351517 -0.412109,-0.781723 -0.412109,-1.222656 0,-0.181445 0.02199,-0.353464 0.06836,-0.525391 l 4.027344,-15.279297 c 0.11384,-0.432173 0.360497,-0.809799 0.703125,-1.076172 0.344617,-0.267511 0.763874,-0.412109 1.199218,-0.412109 z m 0,1.269531 c -0.33173,0 -0.633997,0.224933 -0.71289,0.556641 l -4.025391,15.273437 c -0.01765,0.06568 -0.02539,0.128895 -0.02539,0.19336 0,0.333119 0.222883,0.62111 0.539062,0.710937 l 0.002,0.002 11.761719,3.203125 h 0.002 c 0.06093,0.01562 0.124593,0.02539 0.189453,0.02539 0.331441,0 0.632044,-0.224933 0.710938,-0.556641 v 0.0059 l 4.027343,-15.279297 -0.002,0.002 c 0.01642,-0.06053 0.02734,-0.127285 0.02734,-0.195313 0,-0.332669 -0.22428,-0.621207 -0.541016,-0.710937 v -0.002 L 23.931641,14.042969 h -0.002 c -0.0609,-0.0156 -0.122849,-0.02539 -0.1875,-0.02539 z m 0,0.5 c 0.01559,0 0.03335,0.0018 0.06445,0.0098 l 11.753906,3.201172 c 0.09972,0.02825 0.175781,0.126628 0.175781,0.230468 0,0.02635 -0.0038,0.04242 -0.0098,0.06445 v 0.002 l -0.451171,1.708984 -12.210938,-3.328125 0.09766,-0.375 7.027344,1.916016 0.351563,-1.341797 -7.025391,-1.914063 c 0.02493,-0.104802 0.118245,-0.173828 0.226562,-0.173828 z m -0.121093,0.720703 6.310547,1.720703 -0.09766,0.373047 -6.3125,-1.720703 z m -0.453125,1.714844 11.748047,3.201172 -0.210938,0.800781 -6.115234,-1.666016 -0.677735,2.572266 -5.630859,-1.537109 z m 5.777343,2.951172 5.865235,1.597656 -0.0918,0.349609 -5.728516,-1.560546 -0.06445,0.24414 -1.763672,6.691406 5.728516,1.560547 -0.324219,1.230469 -12.214844,-3.328125 0.09961,-0.373047 3.630859,0.990235 0.226563,-0.859375 2.716797,0.742187 1.142578,-4.339844 -6.345703,-1.730468 0.09766,-0.373047 6.347656,1.730468 z m 0.398438,1.001953 5.013672,1.365234 -0.486328,1.847657 c 0.0027,-0.08496 0.0048,-0.173095 -0.04297,-0.244141 l -0.002,-0.002 -0.669922,-0.964844 c -0.02064,-0.02971 -0.0645,-0.02397 -0.0918,-0.04687 l -0.01367,-0.146484 -0.248047,0.02148 c -0.0094,8e-4 -0.02109,0.0034 -0.03711,0.0059 h -0.002 -0.002 c -0.156754,0.02586 -0.280218,0.14493 -0.31836,0.292969 l -0.04883,0.185547 v 0.002 c -0.489069,-0.14964 -0.999716,0.01007 -1.357422,0.34961 l -0.02344,0.02344 -0.0078,-0.03125 v -0.002 c -0.144291,-0.481678 -0.522518,-0.852831 -1.003906,-0.984375 l -1.025391,-0.279297 z m -7.416016,0.759766 5.63086,1.535156 -0.888672,3.373047 -2.716797,-0.740235 -0.226563,0.857422 -2.914062,-0.794922 z m 7.371094,1.238281 0.572266,0.15625 c 0.316353,0.08645 0.557332,0.322321 0.654297,0.642578 2.92e-4,9.65e-4 0.0017,9.87e-4 0.002,0.002 L 31,25.396484 l 0.002,0.002 c 0.04603,0.153432 0.134571,0.285478 0.244141,0.398438 0.10957,0.11296 0.239428,0.207609 0.402343,0.251953 l 0.482422,0.134766 0.123047,-0.470703 0.478516,0.6875 -0.751953,0.355468 0.123047,-0.472656 L 31.625,26.152344 c -0.238882,-0.06522 -0.362416,-0.140168 -0.445313,-0.228516 -0.0829,-0.08835 -0.137521,-0.207086 -0.193359,-0.392578 v -0.002 l -0.550781,-1.791016 c -0.08462,-0.278602 -0.304895,-0.498844 -0.585938,-0.576172 l -0.576172,-0.158203 z m -0.603516,0.460937 1.021485,0.279297 c 0.116768,0.03213 0.203881,0.117108 0.240234,0.238281 l 0.002,0.002 0.169922,0.552734 -0.132812,0.125 -0.28711,0.271484 c -0.07197,0.06773 -0.268473,0.111307 -0.36914,0.08203 l -0.978516,-0.283204 z m 4.175782,0.0098 0.476562,0.6875 -0.75,0.355469 0.123047,-0.472657 -0.480469,-0.130859 c -0.252897,-0.06903 -0.551861,-0.02919 -0.763672,0.171875 l -0.02344,0.02344 -0.02539,-0.08594 c 0.24037,-0.207914 0.534544,-0.312046 0.820313,-0.224609 l 0.498047,0.152343 z m 0.960937,0.894531 -0.578125,2.189453 c 0.0027,-0.08683 0.0043,-0.177157 -0.04492,-0.248047 l -0.669922,-0.964843 c -0.088,-0.126573 -0.242573,-0.193508 -0.396484,-0.166016 h -0.002 c -0.151463,0.02811 -0.273893,0.144643 -0.3125,0.292969 l -0.05078,0.191406 c -0.037,-0.01068 -0.110595,-0.05206 -0.171875,-0.115234 -0.06091,-0.0628 -0.107925,-0.141937 -0.123047,-0.189453 v -0.002 c -1.75e-4,-5.62e-4 -0.0018,-0.0014 -0.002,-0.002 l -0.128907,-0.464843 0.46875,-0.441407 c 0.09021,-0.08563 0.144383,-0.09223 0.289063,-0.05273 h 0.002 l -0.05273,0.199219 c -0.03793,0.145639 0.008,0.306681 0.126953,0.408203 l 0.002,0.002 h 0.002 c 0.04371,0.03618 0.0935,0.06447 0.154297,0.08008 0.0842,0.02184 0.180471,0.01868 0.269531,-0.02344 l 1.052735,-0.496094 0.002,-0.002 c 0.08558,-0.03983 0.126093,-0.118877 0.164062,-0.195313 z m -3.789062,0.929688 0.02539,0.08594 c -0.229802,0.191421 -0.563681,0.273093 -0.873047,0.19336 l -0.539062,-0.138672 0.02539,-0.09375 0.519531,0.15039 c 0.293531,0.08536 0.611153,0.01451 0.841797,-0.197265 z m 0.445312,0.412109 0.01953,0.06445 c 0.06501,0.21559 0.149468,0.420253 0.308594,0.589844 0.159541,0.170032 0.380834,0.288609 0.675781,0.369141 h 0.002 l -0.05078,0.199218 -0.002,0.002 c -0.03799,0.147373 0.01341,0.305894 0.126953,0.404297 l 0.002,0.002 0.0039,0.002 c 0.03678,0.03044 0.08416,0.06227 0.146484,0.08008 h 0.002 0.002 c 0.09279,0.02469 0.187472,0.01385 0.269532,-0.02344 h 0.002 l 1.052734,-0.496094 c 0.08399,-0.03829 0.126225,-0.118956 0.166016,-0.197265 l -0.429688,1.632812 -5.013672,-1.365234 0.308594,-1.167969 0.990234,0.25586 c 0.475122,0.122454 1.013223,0.03143 1.388672,-0.324219 z m -10.029297,1.626953 11.746094,3.199219 -0.210937,0.802734 -1.357422,-0.36914 -0.226563,0.855468 -10.386719,-2.830078 z m -0.798828,2.078125 11.105469,3.025391 0.224609,-0.857422 1.109375,0.302734 -0.40039,1.519532 -0.002,0.002 c -0.02493,0.104801 -0.117183,0.173828 -0.22461,0.173828 -0.01654,0 -0.03338,-0.0018 -0.06445,-0.0098 L 19.654297,30.271484 c -0.09909,-0.02815 -0.175781,-0.127078 -0.175781,-0.230468 0,-0.01747 0.0034,-0.04827 0.0078,-0.06445 v -0.002 z"
     id="path23" />
</svg>
