<?xml version="1.0" encoding="UTF-8" standalone="no"?>
<!-- Generator: Gravit.io -->

<svg
   style="isolation:isolate"
   viewBox="0 0 48 48"
   width="48pt"
   height="48pt"
   version="1.1"
   id="svg16"
   sodipodi:docname="peazip.svg"
   inkscape:version="1.1.2 (0a00cf5339, 2022-02-04)"
   xmlns:inkscape="http://www.inkscape.org/namespaces/inkscape"
   xmlns:sodipodi="http://sodipodi.sourceforge.net/DTD/sodipodi-0.dtd"
   xmlns:xlink="http://www.w3.org/1999/xlink"
   xmlns="http://www.w3.org/2000/svg"
   xmlns:svg="http://www.w3.org/2000/svg">
  <defs
     id="defs20">
    <linearGradient
       inkscape:collect="always"
       xlink:href="#_lgradient_19"
       id="linearGradient872"
       x1="-12.025727"
       y1="6.1170783"
       x2="-0.085100174"
       y2="6.1170783"
       gradientUnits="userSpaceOnUse"
       gradientTransform="matrix(3.8358211,0,0,3.8371386,-0.00544341,-0.00268054)" />
    <linearGradient
       id="_lgradient_1"
       x1="0.18336116"
       y1="0.24917752"
       x2="0.9027437"
       y2="0.90347725"
       gradientTransform="matrix(24.617266,0,0,24.816118,10.841288,10.089605)"
       gradientUnits="userSpaceOnUse">
      <stop
         offset="2.608695652173913%"
         stop-opacity="1"
         style="stop-color:rgb(179,255,171)"
         id="stop2-3" />
      <stop
         offset="98.69565217391305%"
         stop-opacity="1"
         style="stop-color:rgb(18,255,247)"
         id="stop4-6" />
    </linearGradient>
    <linearGradient
       inkscape:collect="always"
       xlink:href="#_lgradient_19"
       id="linearGradient15"
       x1="-9.6850061"
       y1="45.161198"
       x2="11.98815"
       y2="21.735205"
       gradientUnits="userSpaceOnUse"
       gradientTransform="matrix(1.1147442,0,0,1.1150348,-0.01237238,-3.3277956)" />
    <linearGradient
       inkscape:collect="always"
       xlink:href="#_lgradient_19"
       id="linearGradient957"
       x1="12.665521"
       y1="23.999994"
       x2="35.33448"
       y2="23.999994"
       gradientUnits="userSpaceOnUse"
       gradientTransform="scale(1.3333333)" />
    <linearGradient
       inkscape:collect="always"
       xlink:href="#_lgradient_20"
       id="linearGradient987"
       x1="16.915951"
       y1="24"
       x2="31.084049"
       y2="24"
       gradientUnits="userSpaceOnUse" />
  </defs>
  <sodipodi:namedview
     id="namedview18"
     pagecolor="#ffffff"
     bordercolor="#666666"
     borderopacity="1.0"
     inkscape:pageshadow="2"
     inkscape:pageopacity="0.0"
     inkscape:pagecheckerboard="0"
     inkscape:document-units="pt"
     showgrid="false"
     showguides="false"
     inkscape:zoom="10.21875"
     inkscape:cx="32.04893"
     inkscape:cy="28.085627"
     inkscape:window-width="1600"
     inkscape:window-height="836"
     inkscape:window-x="0"
     inkscape:window-y="0"
     inkscape:window-maximized="1"
     inkscape:current-layer="svg16" />
  <linearGradient
     id="_lgradient_19"
     x1="0.46354166666666674"
     y1="0.9791666666666665"
     x2="0.6417331560283686"
     y2="0.005762411347517649"
     gradientTransform="matrix(22.668959,0,0,22.668959,12.665521,12.665521)"
     gradientUnits="userSpaceOnUse">
    <stop
       offset="0%"
       stop-opacity="1"
       style="stop-color:rgb(165,248,106)"
       id="stop2" />
    <stop
       offset="97.91666666666666%"
       stop-opacity="1"
       style="stop-color:rgb(47,206,146)"
       id="stop4" />
  </linearGradient>
  <rect
     x="-46.783188"
     y="1.2253767"
     height="45.80014"
     rx="6.1837621"
     shape-rendering="crispEdges"
     id="rect5-6-7-3"
     ry="6.8055277"
     transform="matrix(0.00524063,-0.99998627,0.99998801,0.00489691,0,0)"
     style="isolation:isolate;fill:#00ff5e;fill-opacity:0.13470298;stroke:url(#linearGradient872);stroke-width:2.0301;stroke-miterlimit:4;stroke-dasharray:none;stroke-opacity:1"
     width="45.801998" />
  <rect
     x="-15.686804"
     y="17.260084"
     height="33.345856"
     rx="6.7920032"
     shape-rendering="crispEdges"
     id="rect5-6-6-6-6"
     style="isolation:isolate;fill:#00ff5e;fill-opacity:0.13470298;stroke:url(#linearGradient15);stroke-width:1.67233;stroke-miterlimit:4;stroke-dasharray:none;stroke-opacity:1"
     ry="7.4743071"
     transform="matrix(0.72446484,-0.68931175,0.68622417,0.72739012,0,0)"
     width="33.338203" />
  <path
     id="path7"
     style="color:#000000;fill:url(#linearGradient957);fill-rule:evenodd;stroke-width:1.33333;-inkscape-stroke:none"
     d="m 20.40625,16.220703 c -2.303343,0 -4.185547,1.882204 -4.185547,4.185547 v 13.001953 1.037109 0.337891 5.445313 3.365234 c 0,2.303343 1.882204,4.185547 4.185547,4.185547 h 3.677734 1.259766 5.216797 13.033203 c 2.303343,0 4.185547,-1.882204 4.185547,-4.185547 V 31.28125 29.904297 23.771484 20.40625 c 0,-2.303343 -1.882204,-4.185547 -4.185547,-4.185547 h -3.677734 c -0.12024,0 -0.239689,0.02594 -0.359375,0.04687 -0.119654,-0.02092 -0.239107,-0.04687 -0.359375,-0.04687 z m 0,1.333985 h 18.791016 c 0.07079,0 0.133331,0.0093 0.185546,0.02344 l 0.173829,0.04687 0.175781,-0.04883 c 0.05213,-0.01412 0.112764,-0.02148 0.183594,-0.02148 h 3.677734 c 1.58186,0 2.851562,1.269702 2.851562,2.851562 v 3.365234 6.132813 1.376953 12.3125 c 0,1.58186 -1.269702,2.851562 -2.851562,2.851562 H 30.560547 25.34375 24.083984 20.40625 c -1.58186,0 -2.851563,-1.269702 -2.851562,-2.851562 V 40.228516 34.783203 34.445312 33.408203 20.40625 c 0,-1.58186 1.269702,-2.851563 2.851562,-2.851562 z m 1.470703,1.419921 c -1.526207,0 -2.777344,1.250899 -2.777344,2.777344 v 11.65625 0.28125 l 1.300782,0.201172 C 22.202,27.75064 27.538125,21.936286 34.28125,20.28125 l -0.1875,-1.306641 z m 0,1.332032 h 9.021485 c -5.075224,2.437338 -8.03674,5.317938 -10.466797,10.304687 v -8.859375 c 0,-0.804675 0.640396,-1.445312 1.445312,-1.445312 z m 18.222656,0.320312 c -10.854551,0.806352 -19.30797,8.33257 -19.472656,19.490235 0,0.839863 0.05291,1.680679 0.164063,2.517578 l 0.06836,0.505859 0.505859,0.06836 c 0.84297,0.111094 1.689209,0.164063 2.535157,0.164063 5.163933,0 10.114807,-2.056875 13.765625,-5.701172 3.650933,-3.657453 5.707031,-8.619055 5.707031,-13.789063 0,-0.839864 -0.05291,-1.680678 -0.164063,-2.517578 l -0.06836,-0.505859 -0.505859,-0.06836 c -0.842968,-0.111094 -1.689209,-0.164063 -2.535157,-0.164063 z m 0,1.333985 c 0.610695,0 1.216466,0.05854 1.822266,0.11914 0.06023,0.599156 0.117187,1.198708 0.117187,1.802734 0,4.816919 -1.912829,9.438004 -5.314453,12.845704 -3.401741,3.395666 -8.01382,5.310546 -12.824218,5.310546 -0.610695,0 -1.216466,-0.05854 -1.822266,-0.11914 -0.06023,-0.599156 -0.117187,-1.198708 -0.117187,-1.802734 0.629989,-10.654247 8.21113,-18.010084 18.138671,-18.15625 z m 3.5,8.148437 c -0.990557,3.140019 -2.726343,6.028849 -5.09375,8.400391 -2.467657,2.463998 -5.493355,4.243355 -8.78125,5.208984 l 0.1875,1.306641 h 0.648438 11.5625 c 1.526207,0 2.777344,-1.250899 2.777344,-2.777344 V 31.28125 30.310547 Z m -0.03125,3.279297 v 8.859375 c 0,0.804675 -0.640396,1.445312 -1.445312,1.445312 h -9.019531 c 2.312138,-1.07421 4.506116,-2.403374 6.34375,-4.238281 v -0.002 c 1.761748,-1.764471 3.058368,-3.858602 4.121093,-6.064453 z"
     transform="scale(0.75)"
     sodipodi:nodetypes="ssccccsscccsscccssscsscscccssscccsscccssccccscsscccccssccsscccccscsccccccscsccccccccssccccsscccc" />
  <linearGradient
     id="_lgradient_20"
     x1="0.09583333333333333"
     y1="0.9333333333333333"
     x2="0.9227138643067848"
     y2="0.08949115044247813"
     gradientTransform="matrix(14.168099,0,0,14.168099,16.915951,16.915951)"
     gradientUnits="userSpaceOnUse">
    <stop
       offset="0%"
       stop-opacity="1"
       style="stop-color:rgb(247,242,6)"
       id="stop9" />
    <stop
       offset="98.26086956521739%"
       stop-opacity="1"
       style="stop-color:rgb(255,187,36)"
       id="stop11" />
  </linearGradient>
  <path
     style="color:#000000;fill:url(#linearGradient987);fill-rule:evenodd;-inkscape-stroke:none"
     d="m 29.667969,16.416016 c -1.05261,0 -1.917969,0.863406 -1.917969,1.916015 0,1.05261 0.865359,1.917969 1.917969,1.917969 1.052609,0 1.916015,-0.865359 1.916015,-1.917969 0,-1.052609 -0.863406,-1.916015 -1.916015,-1.916015 z m 0,1 c 0.511547,0 0.916015,0.404468 0.916015,0.916015 0,0.511547 -0.404468,0.917969 -0.916015,0.917969 -0.511547,0 -0.917969,-0.406422 -0.917969,-0.917969 0,-0.511547 0.406422,-0.916015 0.917969,-0.916015 z M 24,21.138672 c -1.573995,0 -2.861328,1.287333 -2.861328,2.861328 0,1.573995 1.287333,2.861328 2.861328,2.861328 1.573995,0 2.861328,-1.287333 2.861328,-2.861328 0,-1.573995 -1.287333,-2.861328 -2.861328,-2.861328 z m 0,1 c 1.032932,0 1.861328,0.828396 1.861328,1.861328 0,1.032932 -0.828396,1.861328 -1.861328,1.861328 -1.032932,0 -1.861328,-0.828396 -1.861328,-1.861328 0,-1.032932 0.828396,-1.861328 1.861328,-1.861328 z M 18.332031,27.75 c -1.052609,0 -1.916015,0.865359 -1.916015,1.917969 0,1.052609 0.863406,1.916015 1.916015,1.916015 1.05261,0 1.917969,-0.863406 1.917969,-1.916015 C 20.25,28.615359 19.384641,27.75 18.332031,27.75 Z m 0,1 c 0.511547,0 0.917969,0.406422 0.917969,0.917969 0,0.511547 -0.406422,0.916015 -0.917969,0.916015 -0.511547,0 -0.916015,-0.404468 -0.916015,-0.916015 0,-0.511547 0.404468,-0.917969 0.916015,-0.917969 z"
     id="path14" />
</svg>
