<?xml version="1.0" encoding="UTF-8" standalone="no"?>
<!-- Generator: Gravit.io -->

<svg
   style="isolation:isolate"
   viewBox="0 0 48 48"
   width="48pt"
   height="48pt"
   version="1.1"
   id="svg9"
   sodipodi:docname="peek.svg"
   inkscape:version="1.1.2 (0a00cf5339, 2022-02-04)"
   xmlns:inkscape="http://www.inkscape.org/namespaces/inkscape"
   xmlns:sodipodi="http://sodipodi.sourceforge.net/DTD/sodipodi-0.dtd"
   xmlns:xlink="http://www.w3.org/1999/xlink"
   xmlns="http://www.w3.org/2000/svg"
   xmlns:svg="http://www.w3.org/2000/svg">
  <defs
     id="defs13">
    <linearGradient
       inkscape:collect="always"
       xlink:href="#_lgradient_65"
       id="linearGradient872"
       x1="-12.025727"
       y1="6.1170783"
       x2="-0.085100174"
       y2="6.1170783"
       gradientUnits="userSpaceOnUse"
       gradientTransform="matrix(3.8358211,0,0,3.8371386,-0.00544341,-0.00268054)" />
    <linearGradient
       id="_lgradient_1"
       x1="0.18336116"
       y1="0.24917752"
       x2="0.9027437"
       y2="0.90347725"
       gradientTransform="matrix(24.617266,0,0,24.816118,10.841288,10.089605)"
       gradientUnits="userSpaceOnUse">
      <stop
         offset="2.608695652173913%"
         stop-opacity="1"
         style="stop-color:rgb(179,255,171)"
         id="stop2-3" />
      <stop
         offset="98.69565217391305%"
         stop-opacity="1"
         style="stop-color:rgb(18,255,247)"
         id="stop4-6" />
    </linearGradient>
    <linearGradient
       inkscape:collect="always"
       xlink:href="#_lgradient_65"
       id="linearGradient15"
       x1="-9.6850061"
       y1="45.161198"
       x2="11.98815"
       y2="21.735205"
       gradientUnits="userSpaceOnUse"
       gradientTransform="matrix(1.1147442,0,0,1.1150348,-0.01237238,-3.3277956)" />
    <linearGradient
       inkscape:collect="always"
       xlink:href="#_lgradient_65"
       id="linearGradient1292"
       x1="9.7975845"
       y1="24"
       x2="38.202415"
       y2="24"
       gradientUnits="userSpaceOnUse" />
  </defs>
  <sodipodi:namedview
     id="namedview11"
     pagecolor="#ffffff"
     bordercolor="#666666"
     borderopacity="1.0"
     inkscape:pageshadow="2"
     inkscape:pageopacity="0.0"
     inkscape:pagecheckerboard="0"
     inkscape:document-units="pt"
     showgrid="false"
     inkscape:zoom="10.21875"
     inkscape:cx="31.95107"
     inkscape:cy="32"
     inkscape:window-width="1600"
     inkscape:window-height="836"
     inkscape:window-x="0"
     inkscape:window-y="0"
     inkscape:window-maximized="1"
     inkscape:current-layer="svg9" />
  <linearGradient
     id="_lgradient_65"
     x1="0"
     y1="0.5"
     x2="1"
     y2="0.5"
     gradientTransform="matrix(28.40483,0,0,28.40483,9.797585,9.797585)"
     gradientUnits="userSpaceOnUse">
    <stop
       offset="0%"
       stop-opacity="1"
       style="stop-color:rgb(255,95,109)"
       id="stop2" />
    <stop
       offset="98.26086956521739%"
       stop-opacity="1"
       style="stop-color:rgb(255,195,113)"
       id="stop4" />
  </linearGradient>
  <rect
     x="-46.783188"
     y="1.2253767"
     height="45.80014"
     rx="6.1837621"
     shape-rendering="crispEdges"
     id="rect5-6-7-3"
     ry="6.8055277"
     transform="matrix(0.00524063,-0.99998627,0.99998801,0.00489691,0,0)"
     style="isolation:isolate;fill:#ff0069;fill-opacity:0.13470298;stroke:url(#linearGradient872);stroke-width:2.0301;stroke-miterlimit:4;stroke-dasharray:none;stroke-opacity:1"
     width="45.801998" />
  <rect
     x="-15.686804"
     y="17.260084"
     height="33.345856"
     rx="6.7920032"
     shape-rendering="crispEdges"
     id="rect5-6-6-6-6"
     style="isolation:isolate;fill:#ff0069;fill-opacity:0.13470298;stroke:url(#linearGradient15);stroke-width:1.67233;stroke-miterlimit:4;stroke-dasharray:none;stroke-opacity:1"
     ry="7.4743071"
     transform="matrix(0.72446484,-0.68931175,0.68622417,0.72739012,0,0)"
     width="33.338203" />
  <path
     style="color:#000000;fill:url(#linearGradient1292);fill-rule:evenodd;-inkscape-stroke:none"
     d="m 24,9.296875 c -3.897838,0 -7.639734,1.552239 -10.398437,4.304688 C 10.849114,16.360266 9.296875,20.102162 9.296875,24 c 0,1.307764 0.1761296,2.608832 0.5136719,3.865234 l 0.1035156,0.388672 2.2441405,-0.109375 h 0.359375 3.302735 l -1.185547,5.779297 -0.283203,1.169922 0.238281,0.199219 c 2.640382,2.202404 5.975051,3.410156 9.410156,3.410156 3.897838,0 7.639734,-1.552239 10.398437,-4.304688 C 37.150886,31.639734 38.703125,27.897838 38.703125,24 c 0,-3.897838 -1.552239,-7.639734 -4.304688,-10.398437 C 31.639734,10.849114 27.897838,9.296875 24,9.296875 Z m 0,1 c 3.632456,0 7.119678,1.445821 9.691406,4.011719 2.565898,2.571728 4.011719,6.05895 4.011719,9.691406 0,3.632456 -1.445821,7.119678 -4.011719,9.691406 -2.571728,2.565898 -6.05895,4.011719 -9.691406,4.011719 -3.102585,0 -6.09463,-1.099149 -8.517578,-3.033203 l 0.126953,-0.529297 1.4375,-6.996094 h -4.529297 -0.382812 l -1.41211,0.07031 C 10.471119,26.161412 10.296875,25.086401 10.296875,24 c 0,-3.632456 1.445821,-7.119678 4.011719,-9.691406 C 16.880322,11.742696 20.367544,10.296875 24,10.296875 Z m 0,1.417969 c -3.257345,0 -6.382227,1.298682 -8.6875,3.597656 -2.298974,2.305273 -3.597656,5.430155 -3.597656,8.6875 0,0.364751 0.0035,0.793746 0.01953,1.244141 l 0.01758,0.482421 h 0.765625 4.8125 l 1.896484,-9.240234 h -0.002 c 0.05674,-0.273073 0.270094,-0.488583 0.542969,-0.548828 l 0.002,-0.002 c 0.963985,-0.214219 1.934412,-0.386239 2.917969,-0.523438 0.723999,-0.09495 1.44243,-0.160134 2.164062,-0.177734 0.252184,-0.0058 0.503676,-0.0058 0.75586,0 h 0.0059 0.0059 c 0.212107,0 0.435965,0.01191 0.65625,0.0293 h 0.002 c 0.307373,0.0232 0.604521,0.05817 0.90039,0.109375 h 0.0059 l 0.0039,0.002 c 0.255931,0.03895 0.510929,0.09511 0.769531,0.164063 h 0.002 c 0.320544,0.08435 0.625074,0.19057 0.925782,0.324218 l 0.0039,0.002 h 0.0039 c 0.262931,0.112685 0.510907,0.254241 0.753906,0.419922 h 0.002 c 0.211259,0.142599 0.41097,0.309533 0.603516,0.496094 0.17801,0.17801 0.346077,0.377513 0.482422,0.582031 l 0.002,0.0039 0.002,0.0039 c 0.143191,0.206829 0.264886,0.429185 0.359375,0.660156 l 0.002,0.0039 0.002,0.0059 c 0.107667,0.247634 0.190622,0.502968 0.257813,0.777343 0.06566,0.297852 0.108634,0.606604 0.125,0.91211 v 0.002 0.002 c 0.02223,0.355731 0.01143,0.718545 -0.01758,1.089844 -0.0573,0.649839 -0.187795,1.29207 -0.392578,1.912109 v 0.002 h -0.002 c -0.172295,0.528 -0.423199,1.03785 -0.736329,1.501953 -0.298838,0.43672 -0.665496,0.837878 -1.078125,1.183594 -0.446602,0.367182 -0.934912,0.680187 -1.458984,0.919922 h -0.002 l -0.002,0.002 c -0.472201,0.221878 -0.967638,0.398557 -1.478516,0.523438 h -0.002 -0.002 c -0.621792,0.156901 -1.260425,0.268161 -1.904297,0.326171 h -0.002 -0.002 c -0.589252,0.05835 -1.186316,0.08187 -1.785156,0.07617 -0.715465,-0.01173 -1.439943,-0.07059 -2.171875,-0.142578 l -0.02734,-0.0039 -1.929688,0.02344 -1.43164,6.992188 0.287109,0.185547 c 1.974595,1.273343 4.284213,1.958984 6.654297,1.958984 3.257345,0 6.382227,-1.298682 8.6875,-3.597656 2.298974,-2.305273 3.597656,-5.430155 3.597656,-8.6875 0,-3.257345 -1.298682,-6.382227 -3.597656,-8.6875 C 30.382227,13.013526 27.257345,11.714844 24,11.714844 Z m 0,1 c 2.99171,0 5.861844,1.191852 7.980469,3.304687 2.112835,2.118625 3.304687,4.988759 3.304687,7.980469 0,2.99171 -1.191852,5.861844 -3.304687,7.980469 C 29.861844,34.093304 26.99171,35.285156 24,35.285156 c -2.066356,0 -4.065953,-0.606369 -5.816406,-1.664062 l 1.125,-5.482422 1.095703,-0.01172 c 0.725043,0.07072 1.456543,0.132389 2.197265,0.144531 h 0.002 0.002 c 0.632735,0.0062 1.26622,-0.01962 1.896484,-0.08203 l -0.0039,0.002 c 0.696515,-0.06275 1.386276,-0.182606 2.05664,-0.351562 0.57555,-0.140689 1.1303,-0.339231 1.660157,-0.587891 l 0.0039,-0.002 c 0.60975,-0.279388 1.171127,-0.639813 1.677734,-1.056641 l 0.002,-0.002 v -0.002 c 0.48111,-0.403092 0.912033,-0.869427 1.265625,-1.386719 v -0.002 l 0.002,-0.002 c 0.363422,-0.538645 0.655035,-1.128378 0.857421,-1.748047 v -0.002 c 0.229607,-0.69568 0.375755,-1.416415 0.439454,-2.142578 v -0.002 l 0.002,-0.002 c 0.03133,-0.401004 0.04336,-0.81009 0.01758,-1.226563 -0.01972,-0.368077 -0.0722,-0.732112 -0.150391,-1.083984 v -0.0059 l -0.002,-0.0059 c -0.07702,-0.314517 -0.174722,-0.622553 -0.306641,-0.927734 l -0.002,-0.0039 C 31.898996,17.349892 31.744193,17.0655 31.5625,16.802734 31.385455,16.538102 31.178227,16.293461 30.958984,16.074219 l -0.002,-0.0039 -0.0039,-0.002 c -0.228244,-0.221723 -0.472764,-0.427283 -0.742188,-0.609375 l -0.002,-0.002 C 29.922443,15.261838 29.61738,15.08957 29.291016,14.949219 l -0.0059,-0.002 c -0.349598,-0.154995 -0.704507,-0.278641 -1.070312,-0.375 h -0.002 c -0.284732,-0.07587 -0.575563,-0.139981 -0.875,-0.185547 h 0.01172 c -0.332021,-0.05746 -0.663501,-0.09398 -0.996093,-0.119141 h -0.002 c -0.234633,-0.01849 -0.478065,-0.0328 -0.720703,-0.0332 -0.267563,-0.0062 -0.53517,-0.0062 -0.802734,0 -0.765088,0.01866 -1.520853,0.0871 -2.271484,0.185547 l -0.002,0.002 h -0.002 c -1.009513,0.14072 -2.007117,0.318422 -3,0.539063 -0.657835,0.145236 -1.169989,0.664628 -1.30664,1.322265 l -1.730469,8.443359 H 12.726563 C 12.722176,24.477847 12.714844,24.215183 12.714844,24 c 0,-2.99171 1.191852,-5.861844 3.304687,-7.980469 C 18.138156,13.906696 21.00829,12.714844 24,12.714844 Z m 0.892578,3.9375 c -0.671203,0.01864 -1.342569,0.07471 -2.007812,0.167968 -0.687908,0.09222 -1.361967,0.208165 -2.03125,0.335938 l -0.328125,0.06445 -1.63086,7.955078 v 0.525391 l 0.47461,0.02539 1.197265,0.06055 h 0.01367 c -0.01037,0 0.04009,0.0023 0.06641,0.0039 0.723478,0.07683 1.311917,0.0507 1.984375,0.0625 h 0.002 0.002 c 0.550672,0.0062 1.093813,-0.01862 1.634765,-0.06836 h 0.002 0.002 c 0.571985,-0.05657 1.138463,-0.151918 1.701172,-0.291015 h 0.002 c 0.421263,-0.105319 0.829721,-0.255184 1.222657,-0.435547 h 0.002 l 0.002,-0.002 c 0.410148,-0.191844 0.799179,-0.431749 1.154297,-0.726563 v -0.002 h 0.002 c 0.305732,-0.258174 0.577249,-0.556788 0.802734,-0.884766 l 0.002,-0.002 0.002,-0.002 c 0.237058,-0.352201 0.425445,-0.737273 0.560546,-1.142578 v -0.002 -0.002 c 0.168177,-0.517465 0.280441,-1.050742 0.326172,-1.597657 v -0.002 c 0.02598,-0.293265 0.03252,-0.586045 0.01953,-0.884765 v -0.0059 l -0.002,-0.0039 c -0.01399,-0.223813 -0.04674,-0.447179 -0.09375,-0.662109 l -0.002,-0.002 v -0.0039 c -0.04133,-0.17909 -0.09988,-0.358318 -0.179687,-0.535156 -0.06368,-0.156654 -0.143367,-0.302942 -0.230469,-0.433594 -0.09623,-0.144354 -0.20223,-0.26473 -0.308594,-0.371093 -0.122553,-0.122554 -0.258353,-0.236861 -0.410156,-0.335938 l -0.0039,-0.002 c -0.160048,-0.106503 -0.33027,-0.207116 -0.523438,-0.292969 h -0.002 l -0.0039,-0.002 c -0.229476,-0.09834 -0.470876,-0.186107 -0.728516,-0.253906 h -0.002 c -0.195963,-0.05057 -0.403145,-0.09566 -0.61914,-0.128906 -0.260477,-0.04559 -0.529652,-0.07839 -0.792969,-0.09766 h -0.002 -0.002 c -0.183678,-0.01185 -0.37772,-0.02489 -0.582032,-0.02539 -0.232304,-0.0062 -0.4591,-0.0062 -0.691406,0 z m 0.02734,1 c 0.21492,-0.0058 0.423753,-0.0058 0.638672,0 h 0.0059 0.0078 c 0.164636,0 0.339593,0.01145 0.52539,0.02344 0.232256,0.01699 0.470351,0.04495 0.69336,0.08398 l 0.0059,0.002 h 0.0059 c 0.178449,0.02704 0.354237,0.06615 0.529297,0.111328 0.200804,0.05299 0.393136,0.122452 0.585938,0.205078 0.129223,0.05794 0.246094,0.124347 0.373047,0.208984 l 0.0039,0.002 0.002,0.002 c 0.08845,0.0575 0.168057,0.125087 0.25,0.207031 0.07494,0.07494 0.136739,0.145535 0.185547,0.21875 0.05593,0.08389 0.108281,0.178908 0.140625,0.259765 l 0.0039,0.01172 0.0059,0.0098 c 0.04994,0.108964 0.08704,0.226752 0.117188,0.357422 0.03678,0.169369 0.06211,0.343277 0.07227,0.503906 3.8e-5,6.1e-4 -3.9e-5,0.0013 0,0.002 0.01059,0.253131 0.0063,0.49931 -0.01563,0.746094 v 0.002 c -0.03898,0.467733 -0.135358,0.926101 -0.28125,1.375 -0.106549,0.318393 -0.254272,0.621358 -0.439454,0.896484 -0.172167,0.249752 -0.383345,0.480083 -0.61914,0.679688 -0.284383,0.23609 -0.595871,0.431499 -0.933594,0.589844 -5.69e-4,2.61e-4 -0.0014,-2.62e-4 -0.002,0 -8.24e-4,3.86e-4 -0.0011,0.0016 -0.002,0.002 -0.343101,0.157228 -0.693979,0.283355 -1.044922,0.371093 -0.512439,0.12657 -1.033242,0.213477 -1.560547,0.265625 -0.508666,0.04666 -1.014365,0.07015 -1.525391,0.06445 -0.705476,-0.01238 -1.252162,0.01157 -1.894531,-0.05664 l -0.02734,-0.0039 h -0.02539 c 0.005,0 -0.02968,-0.0059 -0.121094,-0.0059 h 0.02539 l -0.603516,-0.03125 1.367188,-6.671875 c 0.54915,-0.101201 1.097947,-0.199191 1.652343,-0.273437 h 0.002 c 0.628082,-0.08805 1.262275,-0.140587 1.896485,-0.158203 z"
     id="path7" />
</svg>
