<?xml version="1.0" encoding="UTF-8" standalone="no"?>
<!-- Generator: Gravit.io -->

<svg
   style="isolation:isolate"
   viewBox="0 0 48 48"
   width="48pt"
   height="48pt"
   version="1.1"
   id="svg9"
   sodipodi:docname="pgadmin.svg"
   inkscape:version="1.1.2 (0a00cf5339, 2022-02-04)"
   xmlns:inkscape="http://www.inkscape.org/namespaces/inkscape"
   xmlns:sodipodi="http://sodipodi.sourceforge.net/DTD/sodipodi-0.dtd"
   xmlns:xlink="http://www.w3.org/1999/xlink"
   xmlns="http://www.w3.org/2000/svg"
   xmlns:svg="http://www.w3.org/2000/svg">
  <defs
     id="defs13">
    <linearGradient
       inkscape:collect="always"
       xlink:href="#_lgradient_9"
       id="linearGradient872"
       x1="-12.025727"
       y1="6.1170783"
       x2="-0.085100174"
       y2="6.1170783"
       gradientUnits="userSpaceOnUse"
       gradientTransform="matrix(3.8358211,0,0,3.8371386,-0.00544341,-0.00268054)" />
    <linearGradient
       id="_lgradient_1"
       x1="0.18336116"
       y1="0.24917752"
       x2="0.9027437"
       y2="0.90347725"
       gradientTransform="matrix(24.617266,0,0,24.816118,10.841288,10.089605)"
       gradientUnits="userSpaceOnUse">
      <stop
         offset="2.608695652173913%"
         stop-opacity="1"
         style="stop-color:rgb(179,255,171)"
         id="stop2-3" />
      <stop
         offset="98.69565217391305%"
         stop-opacity="1"
         style="stop-color:rgb(18,255,247)"
         id="stop4-6" />
    </linearGradient>
    <linearGradient
       inkscape:collect="always"
       xlink:href="#_lgradient_9"
       id="linearGradient15"
       x1="-9.6850061"
       y1="45.161198"
       x2="11.98815"
       y2="21.735205"
       gradientUnits="userSpaceOnUse"
       gradientTransform="matrix(1.1147442,0,0,1.1150348,-0.01237238,-3.3277956)" />
    <linearGradient
       inkscape:collect="always"
       xlink:href="#_lgradient_9"
       id="linearGradient1004"
       x1="10.014229"
       y1="27.074184"
       x2="37.985394"
       y2="27.074184"
       gradientUnits="userSpaceOnUse" />
  </defs>
  <sodipodi:namedview
     id="namedview11"
     pagecolor="#ffffff"
     bordercolor="#666666"
     borderopacity="1.0"
     inkscape:pageshadow="2"
     inkscape:pageopacity="0.0"
     inkscape:pagecheckerboard="0"
     inkscape:document-units="pt"
     showgrid="false"
     inkscape:zoom="10.21875"
     inkscape:cx="31.95107"
     inkscape:cy="32"
     inkscape:window-width="1600"
     inkscape:window-height="836"
     inkscape:window-x="0"
     inkscape:window-y="0"
     inkscape:window-maximized="1"
     inkscape:current-layer="svg9" />
  <linearGradient
     id="_lgradient_9"
     x1="0.061897106109324806"
     y1="0.14716151924516707"
     x2="0.9904248356713994"
     y2="0.9865808764728623"
     gradientTransform="matrix(27.971237,0,0,25.967426,10.014306,14.090018)"
     gradientUnits="userSpaceOnUse">
    <stop
       offset="0%"
       stop-opacity="1"
       style="stop-color:rgb(22,181,228)"
       id="stop2" />
    <stop
       offset="98.26086956521739%"
       stop-opacity="1"
       style="stop-color:rgb(245,32,250)"
       id="stop4" />
  </linearGradient>
  <rect
     x="-46.783188"
     y="1.2253767"
     height="45.80014"
     rx="6.1837621"
     shape-rendering="crispEdges"
     id="rect5-6-7-3"
     ry="6.8055277"
     transform="matrix(0.00524063,-0.99998627,0.99998801,0.00489691,0,0)"
     style="isolation:isolate;fill:#f300ff;fill-opacity:0.13470298;stroke:url(#linearGradient872);stroke-width:2.0301;stroke-miterlimit:4;stroke-dasharray:none;stroke-opacity:1"
     width="45.801998" />
  <rect
     x="-15.686804"
     y="17.260084"
     height="33.345856"
     rx="6.7920032"
     shape-rendering="crispEdges"
     id="rect5-6-6-6-6"
     style="isolation:isolate;fill:#f300ff;fill-opacity:0.13470298;stroke:url(#linearGradient15);stroke-width:1.67233;stroke-miterlimit:4;stroke-dasharray:none;stroke-opacity:1"
     ry="7.4743071"
     transform="matrix(0.72446484,-0.68931175,0.68622417,0.72739012,0,0)"
     width="33.338203" />
  <path
     style="color:#000000;fill:url(#linearGradient1004);fill-rule:evenodd;-inkscape-stroke:none"
     d="m 33.601562,13.611328 c -0.66096,-0.03796 -1.329823,-0.01879 -1.988281,0.06445 -0.499827,0.05724 -0.982682,0.144869 -1.460937,0.25 l -0.002,0.002 h -0.002 c -0.608862,0.136858 -1.210575,0.297153 -1.802734,0.484375 l -0.589844,0.183594 C 27.327358,14.449158 26.88447,14.333984 26.423828,14.333984 h -4.863281 c -0.457113,0 -0.896383,0.113121 -1.322266,0.257813 l -0.585937,-0.179688 c -0.705376,-0.216946 -1.41804,-0.403611 -2.138672,-0.552734 h -0.0039 c -0.558048,-0.120351 -1.119794,-0.196583 -1.677735,-0.240234 h -0.002 c -0.704391,-0.05805 -1.41014,-0.02572 -2.099609,0.07617 h -0.002 c -0.580339,0.08791 -1.138134,0.277577 -1.654297,0.552734 -0.243231,0.128406 -0.475512,0.279454 -0.689453,0.451172 -0.0011,9.04e-4 -0.0028,0.001 -0.0039,0.002 -0.221892,0.168136 -0.417176,0.356907 -0.58789,0.546875 l -0.002,0.0039 -0.0039,0.002 c -0.18621,0.21465 -0.340985,0.438188 -0.478515,0.660157 v 0.002 h -0.002 c -0.152556,0.249513 -0.272692,0.509522 -0.3730472,0.769531 h -0.00195 v 0.002 c -0.1715922,0.449378 -0.2896229,0.917261 -0.3496093,1.390625 l -0.00195,0.0039 v 0.0039 c -0.063348,0.564574 -0.082397,1.131741 -0.050781,1.695313 2.91e-5,6.47e-4 -2.92e-5,0.0013 0,0.002 7.3e-5,0.0013 -7.36e-5,0.0026 0,0.0039 0.062234,1.37585 0.2432345,2.743541 0.5273441,4.085938 v 0.002 0.002 c 0.125368,0.574863 0.282785,1.141566 0.484375,1.703125 0.172952,0.505698 0.391792,0.998257 0.654297,1.472656 0.47599,0.910082 1.16819,1.683251 2.015625,2.261719 l 0.0078,0.0039 0.0078,0.0059 c 0.859933,0.543704 1.865995,0.831529 2.888671,0.818359 0.639351,-0.0066 1.266284,-0.09838 1.876953,-0.267578 h 0.002 c 0.19616,-0.05522 0.39177,-0.127203 0.58789,-0.197266 0.38031,0.327212 0.859413,0.461259 1.347656,0.556641 v 2.181641 h -0.0957 c -0.762915,0 -1.496479,0.303121 -2.037109,0.84375 -0.540629,0.54063 -0.84375,1.274193 -0.84375,2.037109 v 2.380859 c 0,0.762915 0.30312,1.49648 0.84375,2.03711 0.54063,0.54063 1.274194,0.84375 2.037109,0.84375 h 5.355469 c 0.762915,0 1.498433,-0.303119 2.039063,-0.84375 0.540631,-0.54063 0.841796,-1.274195 0.841796,-2.03711 v -2.380859 -4.166016 c 0,-0.256804 0.062,-0.484887 0.126954,-0.607422 0.06495,-0.122534 0.0851,-0.08203 0.0039,-0.08203 h 0.09961 l 0.0918,-0.03906 c 0,0 0.577636,-0.290284 1.072266,-0.708985 0.180955,0.06315 0.361443,0.130847 0.542968,0.181641 0.607511,0.170103 1.240496,0.261175 1.875,0.267578 1.027943,0.01315 2.027401,-0.276303 2.890625,-0.818359 l 0.0078,-0.0039 0.0078,-0.0059 c 0.848567,-0.578802 1.543075,-1.351491 2.019532,-2.261719 l 0.002,-0.0039 c 0.254273,-0.47163 0.472155,-0.961922 0.65039,-1.464844 v -0.002 c 0.193806,-0.5575 0.358188,-1.123625 0.484375,-1.705078 v -0.002 c 0.285474,-1.345977 0.459427,-2.717077 0.527344,-4.091797 0.0318,-0.643485 0.006,-1.293115 -0.09766,-1.945312 -0.08041,-0.534856 -0.241802,-1.057769 -0.482422,-1.546875 -0.135938,-0.27745 -0.298138,-0.540095 -0.480469,-0.783203 l -0.002,-0.0039 -0.002,-0.002 C 37.227588,15.26749 37.025185,15.043007 36.796875,14.841797 l -0.0039,-0.002 -0.002,-0.0039 c -0.229028,-0.195367 -0.479246,-0.36841 -0.742188,-0.517579 -0.281446,-0.164569 -0.573205,-0.293913 -0.869141,-0.394531 -0.508678,-0.172148 -1.038702,-0.278746 -1.576171,-0.3125 z m -0.06055,0.998047 c 0.447431,0.0281 0.8901,0.117623 1.316406,0.261719 0.239683,0.08149 0.470225,0.1835 0.6875,0.310547 l 0.0039,0.002 0.002,0.002 c 0.20805,0.117615 0.406009,0.257094 0.587891,0.412109 4.05e-4,3.46e-4 0.0015,-3.46e-4 0.002,0 0.170538,0.151088 0.331558,0.325436 0.476562,0.513672 0.144345,0.19301 0.271878,0.402336 0.378907,0.621094 0.19529,0.396966 0.325499,0.821172 0.390625,1.257812 l 0.002,0.002 v 0.0039 c 0.09141,0.574965 0.114839,1.153413 0.08594,1.738281 -0.06539,1.323607 -0.233862,2.639992 -0.507812,3.931641 l 0.002,-0.002 c -0.116626,0.537397 -0.270809,1.065393 -0.453125,1.589844 -0.16142,0.454811 -0.358124,0.898476 -0.587891,1.324219 v 0.0039 l -0.002,0.002 c -0.397959,0.762396 -0.978889,1.407235 -1.693359,1.896485 -0.702346,0.438799 -1.508837,0.672715 -2.337891,0.662109 h -0.002 c -0.545047,-0.0055 -1.091994,-0.08396 -1.615234,-0.230469 -0.253396,-0.07086 -0.497026,-0.150529 -0.732422,-0.24414 l -0.326172,-0.128907 -0.232422,0.261719 c -0.03031,0.03403 -0.05738,0.06323 -0.08398,0.08984 -0.352069,0.352068 -0.890625,0.587891 -0.890625,0.587891 l 0.189453,-0.03711 c -0.429347,0 -0.723285,0.30494 -0.886719,0.613281 -0.163434,0.308342 -0.244141,0.67595 -0.244141,1.076172 v 4.166016 2.380859 c 0,0.498765 -0.19676,0.978011 -0.548828,1.330078 -0.352067,0.352069 -0.833265,0.550782 -1.332031,0.550782 h -5.355469 c -0.498765,0 -0.978009,-0.198713 -1.330078,-0.550782 -0.352067,-0.352067 -0.550781,-0.831314 -0.550781,-1.330078 v -2.380859 c 0,-0.498765 0.198713,-0.978009 0.550781,-1.330078 0.352069,-0.352068 0.831313,-0.550781 1.330078,-0.550781 h 1.095703 v -3.97461 h -0.5 c -0.498764,0 -0.979962,-0.198713 -1.332031,-0.550781 -0.02853,-0.02853 -0.05382,-0.05774 -0.07813,-0.08594 l -0.232422,-0.269531 -0.332031,0.132813 c -0.236019,0.09386 -0.480992,0.173357 -0.732422,0.24414 -0.530751,0.146891 -1.068365,0.224922 -1.61914,0.230469 h -0.002 c -0.822435,0.01059 -1.636959,-0.22494 -2.332031,-0.662109 -0.714058,-0.489335 -1.296131,-1.134456 -1.693359,-1.896485 l -0.002,-0.0059 -0.0039,-0.0039 c -0.234869,-0.423773 -0.429084,-0.865444 -0.583985,-1.31836 v -0.0039 l -0.002,-0.0039 c -0.186299,-0.51788 -0.333107,-1.042612 -0.451172,-1.583985 l 0.002,0.002 c -0.273725,-1.293335 -0.448401,-2.609171 -0.507812,-3.929688 v -0.0039 -0.002 c -0.02848,-0.501987 -0.01025,-1.012613 0.04687,-1.525391 0.04952,-0.390767 0.149141,-0.785444 0.292969,-1.162109 0.08241,-0.21315 0.1768,-0.414407 0.291015,-0.601563 l 0.002,-0.002 c 0.116458,-0.187767 0.23859,-0.36311 0.376953,-0.523437 l 0.0059,-0.0039 c 3.4e-4,-3.92e-4 -3.41e-4,-0.0016 0,-0.002 0.140493,-0.155716 0.292255,-0.300855 0.451172,-0.419922 l 0.0078,-0.0059 0.0059,-0.0059 c 0.161729,-0.130098 0.340573,-0.246107 0.533203,-0.347657 h 0.002 c 0.418647,-0.223172 0.870137,-0.374759 1.333984,-0.445312 0.622753,-0.09203 1.253324,-0.121537 1.873047,-0.07031 h 0.002 c 0.522108,0.04078 1.041864,0.112712 1.550781,0.222657 h 0.002 0.002 c 0.687956,0.142236 1.372493,0.320739 2.050781,0.529297 l 0.857422,0.263671 0.164062,-0.06641 c 0.371133,-0.150708 0.772404,-0.230469 1.181641,-0.230469 h 4.863281 c 0.411783,0 0.813944,0.08002 1.1875,0.232422 l 0.166016,0.06836 0.867187,-0.267578 0.002,-0.002 c 0.562992,-0.178 1.138742,-0.332027 1.720703,-0.46289 0.456619,-0.100375 0.906598,-0.182092 1.365235,-0.234375 h 0.002 0.0039 c 0.593057,-0.07498 1.200275,-0.09308 1.802735,-0.05859 z m -0.08984,1.427734 c -0.514199,-0.03249 -1.0316,-0.01165 -1.541016,0.05273 -0.410244,0.05011 -0.818778,0.118725 -1.222656,0.207031 l -0.0039,0.002 h -0.002 c -0.34968,0.0806 -0.700295,0.169267 -1.050782,0.267578 l -0.5625,0.15625 0.242188,0.53125 c 0.172571,0.378447 0.259766,0.797536 0.259765,1.228516 v 1.822265 c 0,0.310009 -0.204183,0.590072 -0.5,0.6875 l 0.02539,-0.0078 c -0.206957,0.05546 -0.370262,0.183006 -0.478516,0.3125 l -0.03125,0.03711 -0.02148,0.04297 c -0.130347,0.235132 -0.200574,0.495322 -0.208984,0.759766 v 0.0039 0.002 c -0.0082,0.400349 -0.32998,0.711292 -0.730469,0.703125 -0.400343,-0.0082 -0.708991,-0.329452 -0.701172,-0.730469 0.01068,-0.55013 0.171041,-1.078689 0.462891,-1.550781 0.152635,-0.226615 0.334303,-0.423311 0.546875,-0.578125 l 0.205078,-0.150391 v -1.353515 c 0,-0.451433 -0.181157,-0.888377 -0.507813,-1.208985 -0.320267,-0.325478 -0.755602,-0.507812 -1.207031,-0.507812 h -4.863281 c -0.451429,0 -0.88676,0.181481 -1.207031,0.507812 -0.326661,0.320609 -0.509766,0.757551 -0.509766,1.208985 v 1.359375 l 0.197266,0.148437 c 0.219208,0.168277 0.407126,0.365354 0.5625,0.587891 0.285151,0.464728 0.4464,0.994529 0.457031,1.537109 0.0078,0.401015 -0.300826,0.722298 -0.701172,0.730469 -0.400489,0.0082 -0.722297,-0.302774 -0.730469,-0.703125 v -0.002 -0.0039 c -0.0082,-0.249849 -0.06735,-0.512654 -0.210937,-0.751953 l -0.01172,-0.01953 -0.01367,-0.01758 C 19.260284,21.16693 19.074101,21.04641 18.894531,20.982422 h -0.002 c -0.286307,-0.100225 -0.480469,-0.373141 -0.480469,-0.677735 v -1.822265 c 0,-0.430981 0.08935,-0.849077 0.261719,-1.226563 l 0.242188,-0.53125 -0.5625,-0.158203 c -0.442057,-0.124385 -0.889121,-0.234933 -1.339844,-0.330078 -0.453931,-0.09642 -0.910337,-0.161418 -1.376953,-0.193359 l 0.0039,0.002 c -0.513103,-0.03928 -1.03651,-0.01983 -1.548828,0.05859 -0.304612,0.04484 -0.602834,0.142024 -0.878906,0.291015 -0.113093,0.06077 -0.219756,0.129915 -0.320313,0.207031 l -0.0078,0.0059 -0.0078,0.0059 c -0.07964,0.06604 -0.164313,0.147773 -0.246094,0.242188 -0.102196,0.105068 -0.178164,0.215408 -0.236328,0.316406 -0.07215,0.123071 -0.139062,0.253821 -0.193359,0.392578 l -0.002,0.002 v 0.0039 c -0.09732,0.25726 -0.169252,0.525085 -0.205078,0.804688 v 0.002 0.002 c -0.05239,0.424266 -0.06482,0.854038 -0.03906,1.283203 3.2e-5,6.44e-4 -3.2e-5,0.0013 0,0.002 7.9e-5,0.0013 -7.9e-5,0.0026 0,0.0039 0.06214,1.238862 0.217713,2.472153 0.478516,3.695312 v 0.002 c 0.101956,0.476216 0.234213,0.951922 0.40039,1.417969 0.136058,0.389424 0.306209,0.762914 0.50586,1.125 0.280643,0.543916 0.689762,1.018361 1.201172,1.369141 l 0.01172,0.0078 0.01172,0.0059 c 0.457211,0.279808 0.985081,0.427832 1.525391,0.419921 h 0.002 c 0.414619,-0.0065 0.834421,-0.06075 1.242187,-0.177734 0.305069,-0.08814 0.605016,-0.189939 0.900391,-0.308594 l 0.314453,-0.125 v -0.730468 c 0,-0.386496 0.302959,-0.689454 0.689453,-0.689454 0.386496,0 0.691407,0.302958 0.691406,0.689454 v 1.691406 h 0.5 c 0.498764,0 0.978011,0.19676 1.330079,0.548828 0.352068,0.352067 0.550781,0.833267 0.550781,1.332031 v 5.355469 c 0,0.386494 -0.304911,0.689453 -0.691406,0.689453 -0.360236,0 -0.647086,-0.26655 -0.683594,-0.611328 l -0.07227,-0.681641 -0.626953,0.275391 c -0.505454,0.221967 -0.902344,0.699135 -0.902344,1.28125 0,1.126323 1.083032,1.927734 2.285157,1.927734 h 1.785156 c 1.256271,0 2.285156,-1.029517 2.285156,-2.285156 v -0.595703 -1.392578 h -0.5 -0.59375 -0.298828 c -0.05798,0 -0.09375,-0.03772 -0.09375,-0.0957 0,-0.05798 0.03577,-0.09375 0.09375,-0.09375 h 0.298828 1.09375 v -1.595703 h -1.09375 -0.298828 c -0.05798,0 -0.09375,-0.03772 -0.09375,-0.0957 0,-0.05798 0.03577,-0.0957 0.09375,-0.0957 h 0.298828 1.09375 v -1.59375 h -1.09375 -0.298828 c -0.05798,0 -0.09375,-0.03772 -0.09375,-0.0957 0,-0.05798 0.03577,-0.0957 0.09375,-0.0957 h 0.298828 1.054688 l 0.05469,-0.4375 c 0.05173,-0.412439 0.238818,-0.799365 0.535156,-1.095703 0.352068,-0.352068 0.831315,-0.548828 1.330078,-0.548828 h 0.5 v -1.691406 c 0,-0.386496 0.304911,-0.689453 0.691407,-0.689454 0.386494,0 0.689453,0.302958 0.689453,0.689454 v 0.730468 l 0.314453,0.126953 c 0.293353,0.117973 0.591937,0.21891 0.896484,0.306641 l 0.002,0.002 c 0.411843,0.116232 0.831572,0.169179 1.246094,0.175781 h 0.002 c 0.540314,0.008 1.065123,-0.141411 1.523438,-0.417968 l 0.01367,-0.0078 0.01367,-0.0098 c 0.505772,-0.351156 0.91381,-0.824193 1.199218,-1.365235 0.193707,-0.360914 0.362962,-0.736534 0.5,-1.126953 v -0.002 c 0.165001,-0.464748 0.297645,-0.939879 0.404297,-1.412109 l 0.002,-0.0039 v -0.0039 c 0.25419,-1.2206 0.416467,-2.456292 0.472657,-3.699219 0.03212,-0.491947 0.0051,-0.975184 -0.06641,-1.447265 v -0.002 c -0.04445,-0.303744 -0.14009,-0.584867 -0.265625,-0.845704 -0.06609,-0.146688 -0.147418,-0.278655 -0.236328,-0.396484 l -0.002,-0.002 c -0.08086,-0.105438 -0.17105,-0.20225 -0.265625,-0.289063 l -0.01367,-0.01367 -0.01563,-0.01172 c -0.09534,-0.07467 -0.198569,-0.149826 -0.314453,-0.21875 l -0.0078,-0.0039 -0.0059,-0.0039 c -0.142531,-0.07856 -0.291643,-0.146495 -0.449219,-0.199218 -0.305019,-0.106066 -0.622111,-0.170088 -0.945312,-0.191407 z m -0.06445,0.998047 c 0.236222,0.01558 0.464898,0.06262 0.683593,0.138672 h 0.0039 l 0.0039,0.002 c 0.09099,0.03018 0.180438,0.06953 0.275391,0.121094 0.06009,0.03598 0.122574,0.08112 0.189453,0.132812 0.04698,0.04463 0.09781,0.0983 0.134765,0.146485 l -0.0039,-0.002 c 0.05614,0.07439 0.09399,0.135495 0.125,0.205078 l 0.0039,0.0078 0.0039,0.0078 c 0.09033,0.186584 0.151808,0.372955 0.179687,0.564453 v 0.002 0.002 c 0.06242,0.411517 0.08436,0.823845 0.05664,1.240235 v 0.0059 0.0039 c -0.05347,1.187478 -0.20886,2.371979 -0.453125,3.544922 -0.09882,0.436267 -0.219911,0.868965 -0.369141,1.289063 l -0.002,0.002 c -0.118759,0.338603 -0.266077,0.668886 -0.4375,0.988281 v 0.002 h -0.002 c -0.210351,0.400117 -0.512856,0.744896 -0.875,1 -0.30362,0.180231 -0.635692,0.27654 -0.978516,0.271484 -0.338259,-0.0054 -0.671041,-0.04933 -0.988281,-0.138671 h -0.002 c -0.166096,-0.04788 -0.323512,-0.108915 -0.484375,-0.166016 v -0.03711 c 0,-0.927558 -0.761897,-1.689453 -1.689453,-1.689454 -0.927557,0 -1.691407,0.761896 -1.691407,1.689454 v 0.898437 c -0.557478,0.109036 -1.129213,0.226869 -1.537109,0.634766 -0.336043,0.336042 -0.468942,0.793782 -0.605469,1.240234 h -0.332031 -0.298828 c -0.498988,0 -0.857424,0.376687 -0.986328,0.837891 v -0.03906 c 0,-0.762915 -0.303119,-1.498433 -0.84375,-2.039062 -0.407896,-0.407897 -0.979631,-0.52573 -1.53711,-0.634766 v -0.898437 c 10e-7,-0.927558 -0.763849,-1.689454 -1.691406,-1.689454 -0.927556,0 -1.689453,0.761896 -1.689453,1.689454 v 0.03516 c -0.163082,0.05783 -0.323557,0.119246 -0.492187,0.167969 -0.309451,0.08858 -0.642312,0.13333 -0.980469,0.138671 -0.344266,0.005 -0.685015,-0.09288 -0.980469,-0.271484 -0.36618,-0.254902 -0.667766,-0.597926 -0.871094,-0.994141 l -0.0039,-0.0078 -0.0039,-0.0059 c -0.174881,-0.316557 -0.321573,-0.642804 -0.439453,-0.980469 v -0.002 l -0.002,-0.002 c -0.150222,-0.4213 -0.272041,-0.856099 -0.365235,-1.291016 v -0.002 c -0.249169,-1.169125 -0.397605,-2.35271 -0.457031,-3.542969 v -0.002 -0.0039 c -0.02253,-0.370465 -0.01157,-0.740001 0.0332,-1.103516 V 18.5 c 0.0247,-0.191492 0.07505,-0.380253 0.146485,-0.570313 v -0.002 c 5.18e-4,-0.0014 0.0014,-0.0025 0.002,-0.0039 0.03122,-0.07881 0.07291,-0.163894 0.121093,-0.246094 l 0.002,-0.0039 0.002,-0.002 c 0.03595,-0.06268 0.06589,-0.101237 0.08789,-0.123047 l 0.01563,-0.01758 0.01563,-0.01758 c 0.03249,-0.03887 0.0744,-0.07775 0.13086,-0.125 0.0546,-0.04114 0.11309,-0.07864 0.177734,-0.113281 l 0.002,-0.002 c 0.172559,-0.09313 0.35816,-0.153597 0.550781,-0.18164 h 0.002 0.002 c 0.436321,-0.06679 0.884774,-0.08412 1.320312,-0.05078 h 0.002 0.002 c 0.42013,0.02876 0.829271,0.08695 1.238282,0.173828 0.279383,0.05898 0.555483,0.134084 0.832031,0.205078 -0.09788,0.350613 -0.226563,0.695376 -0.226563,1.0625 v 1.822265 c 0,0.728011 0.463147,1.380468 1.148438,1.621094 0.0086,0.0031 0.0041,0.0022 0.0078,0.0039 0.0319,0.0624 0.05722,0.138333 0.06055,0.240235 v -0.0059 c 0.01921,0.941077 0.807873,1.700851 1.75,1.681641 0.941083,-0.01921 1.700006,-0.808398 1.681641,-1.75 -0.0143,-0.729838 -0.229119,-1.437694 -0.609375,-2.052734 l -0.0078,-0.01172 -0.0059,-0.0098 c -0.165941,-0.240803 -0.380654,-0.431406 -0.59375,-0.621093 v -0.917969 c 0,-0.190951 0.07643,-0.371193 0.208984,-0.5 l 0.0039,-0.0039 0.0059,-0.0059 c 0.127956,-0.13169 0.307096,-0.207031 0.498047,-0.207031 h 4.863281 c 0.190951,0 0.3689,0.07447 0.498047,0.207031 l 0.0059,0.0059 0.0039,0.0039 c 0.132555,0.128808 0.207031,0.30905 0.207031,0.5 v 0.912109 c -0.215764,0.192288 -0.432922,0.386479 -0.589844,0.621094 l -0.0039,0.0059 -0.0059,0.0078 c -0.386201,0.621164 -0.600968,1.331404 -0.615234,2.066406 -0.01836,0.9416 0.740557,1.730794 1.681641,1.75 0.94213,0.01921 1.730794,-0.740563 1.75,-1.681641 v 0.0059 c 0.003,-0.09428 0.03167,-0.177332 0.06836,-0.257813 0.674861,-0.245207 1.146485,-0.878217 1.146484,-1.607422 v -1.822265 c 0,-0.368505 -0.127969,-0.714651 -0.226562,-1.066406 0.185533,-0.04752 0.370171,-0.0976 0.556641,-0.140625 l 0.0059,-0.002 c 0.372005,-0.08114 0.749516,-0.145363 1.126953,-0.191406 h 0.002 0.002 c 0.450476,-0.05693 0.903885,-0.07491 1.34961,-0.04687 z M 23.310547,30.496094 c 0.08051,0.288041 0.245774,0.493343 0.503906,0.634765 -0.258132,0.141423 -0.4234,0.346725 -0.503906,0.634766 z m 0,1.785156 c 0.08026,0.2878 0.244307,0.495094 0.501953,0.636719 -0.257139,0.141579 -0.421658,0.345524 -0.501953,0.632812 z m 0,1.785156 c 0.128701,0.461504 0.487124,0.837891 0.986328,0.837891 h 0.298828 0.09375 v 0.392578 0.595703 c 0,0.71425 -0.57035,1.285156 -1.285156,1.285156 h -1.785156 c -0.5825,0 -0.935314,-0.292434 -1.113282,-0.621093 0.298535,0.263795 0.687025,0.429687 1.113282,0.429687 0.927557,0 1.691406,-0.761896 1.691406,-1.689453 z"
     id="path7" />
</svg>
