<?xml version="1.0" encoding="UTF-8" standalone="no"?>
<!-- Generator: Gravit.io -->

<svg
   style="isolation:isolate"
   viewBox="0 0 48 48"
   width="48pt"
   height="48pt"
   version="1.1"
   id="svg11"
   sodipodi:docname="picard.svg"
   inkscape:version="1.1.2 (0a00cf5339, 2022-02-04)"
   xmlns:inkscape="http://www.inkscape.org/namespaces/inkscape"
   xmlns:sodipodi="http://sodipodi.sourceforge.net/DTD/sodipodi-0.dtd"
   xmlns:xlink="http://www.w3.org/1999/xlink"
   xmlns="http://www.w3.org/2000/svg"
   xmlns:svg="http://www.w3.org/2000/svg">
  <defs
     id="defs15">
    <linearGradient
       inkscape:collect="always"
       xlink:href="#_lgradient_6"
       id="linearGradient872"
       x1="-12.025727"
       y1="6.1170783"
       x2="-0.085100174"
       y2="6.1170783"
       gradientUnits="userSpaceOnUse"
       gradientTransform="matrix(3.8358211,0,0,3.8371386,-0.00544341,-0.00268054)" />
    <linearGradient
       id="_lgradient_1"
       x1="0.18336116"
       y1="0.24917752"
       x2="0.9027437"
       y2="0.90347725"
       gradientTransform="matrix(24.617266,0,0,24.816118,10.841288,10.089605)"
       gradientUnits="userSpaceOnUse">
      <stop
         offset="2.608695652173913%"
         stop-opacity="1"
         style="stop-color:rgb(179,255,171)"
         id="stop2-3" />
      <stop
         offset="98.69565217391305%"
         stop-opacity="1"
         style="stop-color:rgb(18,255,247)"
         id="stop4-6" />
    </linearGradient>
    <linearGradient
       inkscape:collect="always"
       xlink:href="#_lgradient_6"
       id="linearGradient15"
       x1="-9.6850061"
       y1="45.161198"
       x2="11.98815"
       y2="21.735205"
       gradientUnits="userSpaceOnUse"
       gradientTransform="matrix(1.1147442,0,0,1.1150348,-0.01237238,-3.3277956)" />
    <linearGradient
       inkscape:collect="always"
       xlink:href="#_lgradient_6"
       id="linearGradient934"
       x1="45.333534"
       y1="26.174307"
       x2="10.514412"
       y2="26.336256"
       gradientUnits="userSpaceOnUse" />
  </defs>
  <sodipodi:namedview
     id="namedview13"
     pagecolor="#ffffff"
     bordercolor="#666666"
     borderopacity="1.0"
     inkscape:pageshadow="2"
     inkscape:pageopacity="0.0"
     inkscape:pagecheckerboard="0"
     inkscape:document-units="pt"
     showgrid="false"
     inkscape:zoom="10.21875"
     inkscape:cx="31.95107"
     inkscape:cy="32"
     inkscape:window-width="1600"
     inkscape:window-height="836"
     inkscape:window-x="0"
     inkscape:window-y="0"
     inkscape:window-maximized="1"
     inkscape:current-layer="svg11" />
  <linearGradient
     id="_lgradient_6"
     x1="1.2672628380499602"
     y1="0.6059574406886424"
     x2="0.018005111419352904"
     y2="0.6115766624256946"
     gradientTransform="matrix(27.871848,0,0,28.820325,10.012576,8.7104171)"
     gradientUnits="userSpaceOnUse">
    <stop
       offset="0%"
       stop-opacity="1"
       style="stop-color:rgb(249,212,35)"
       id="stop2" />
    <stop
       offset="51.56237565086822%"
       stop-opacity="1"
       style="stop-color:rgb(255,78,80)"
       id="stop4" />
    <stop
       offset="99.1304347826087%"
       stop-opacity="1"
       style="stop-color:rgb(138,35,135)"
       id="stop6" />
  </linearGradient>
  <rect
     x="-46.783188"
     y="1.2253767"
     height="45.80014"
     rx="6.1837621"
     shape-rendering="crispEdges"
     id="rect5-6-7-3"
     ry="6.8055277"
     transform="matrix(0.00524063,-0.99998627,0.99998801,0.00489691,0,0)"
     style="isolation:isolate;fill:#d300ff;fill-opacity:0.13470298;stroke:url(#linearGradient872);stroke-width:2.0301;stroke-miterlimit:4;stroke-dasharray:none;stroke-opacity:1"
     width="45.801998" />
  <rect
     x="-15.686804"
     y="17.260084"
     height="33.345856"
     rx="6.7920032"
     shape-rendering="crispEdges"
     id="rect5-6-6-6-6"
     style="isolation:isolate;fill:#d300ff;fill-opacity:0.13470298;stroke:url(#linearGradient15);stroke-width:1.67233;stroke-miterlimit:4;stroke-dasharray:none;stroke-opacity:1"
     ry="7.4743071"
     transform="matrix(0.72446484,-0.68931175,0.68622417,0.72739012,0,0)"
     width="33.338203" />
  <path
     style="color:#000000;fill:url(#linearGradient934);fill-rule:evenodd;-inkscape-stroke:none"
     d="m 23.900391,8.1894531 c -0.496696,0.00198 -0.992089,0.1268052 -1.414063,0.375 l -7.767578,4.5644529 -0.01953,0.01367 c -0.82519,0.592669 -1.01828,1.75667 -0.427735,2.582031 0.591802,0.825015 1.756646,1.014683 2.582032,0.421875 l -0.04687,0.0293 7.251953,-4.080078 4.732422,2.732422 c -0.07871,-0.01241 -0.156199,-0.0332 -0.236329,-0.0332 -0.521067,0 -1.007838,0.269489 -1.285156,0.708984 -0.166278,0.262643 -0.24422,0.560564 -0.236328,0.851563 3.4e-5,0.0012 -3.7e-5,0.0027 0,0.0039 v 0.0039 c 0.0032,0.09853 0.02886,0.194684 0.05078,0.291016 v 0.0625 l 0.02148,0.0625 c -0.04365,0.03242 -0.08632,0.06585 -0.132813,0.09375 -0.376867,0.222761 -0.786685,0.239136 -0.892578,0.238281 -0.446884,-0.173483 -0.885384,-0.297422 -1.261719,-0.345703 h -0.002 -0.002 c -0.552317,-0.0664 -1.700477,-0.276103 -2.654297,-0.244141 h -0.0078 -0.0059 c -0.575727,0.03513 -1.205655,0.289704 -1.800781,0.732422 L 20.160156,17.054687 16.53125,18.822266 14.679688,28.888672 18.142578,28 l 2.917969,2.089844 1.853515,-10.06836 -1.384765,-1.492187 c 0.235154,-0.131319 0.469838,-0.322076 0.71289,-0.339844 h 0.002 c 1.056453,-0.08058 1.657439,0.125637 2.722656,0.294922 0.214171,0.0489 0.442011,0.120479 0.671875,0.224609 h 0.002 c 0.128033,0.0583 0.246554,0.120562 0.357422,0.189453 0.11109,0.06882 0.219307,0.14854 0.324219,0.234375 0.05724,0.04684 0.234097,0.314864 0.388671,0.542969 -0.04649,0.110492 -0.10779,0.217039 -0.126953,0.332031 l -0.002,0.0059 c -3.07e-4,0.002 3e-4,0.0039 0,0.0059 v 0.002 c -0.01353,0.08906 -0.01927,0.178643 -0.01758,0.265625 v 0.0098 c 4.9e-5,0.0019 -5.5e-5,0.004 0,0.0059 0.003,0.101433 0.01694,0.198324 0.03711,0.289063 0.02128,0.09612 0.05337,0.189858 0.0918,0.277344 0.07854,0.180341 0.192269,0.345462 0.335938,0.484375 h 0.002 c 0.0694,0.06667 0.148196,0.132156 0.238281,0.189453 0.243464,0.154665 0.527544,0.238281 0.816406,0.238281 0.521339,0 1.008366,-0.26906 1.28711,-0.708984 0.112661,-0.17758 0.182645,-0.371233 0.214844,-0.564454 v -0.002 c 0.04771,-0.291937 0.0099,-0.590413 -0.107422,-0.859375 v -0.002 c -0.01669,-0.03783 -0.06217,-0.05909 -0.08203,-0.0957 l 0.189454,-0.142578 h -0.3125 c -0.111574,-0.156438 -0.203877,-0.326985 -0.375,-0.435547 -0.09255,-0.05861 -0.188018,-0.103417 -0.279297,-0.136719 h -0.002 c -0.09466,-0.03464 -0.18994,-0.05912 -0.28711,-0.07422 l -0.03906,-0.0059 h -0.03906 l 0.08008,0.0078 c -0.08513,-0.01408 -0.172983,-0.01858 -0.261718,-0.01758 -0.08437,-0.128274 -0.218748,-0.256365 -0.324219,-0.400391 0.03766,-0.01807 0.06968,-0.03127 0.132812,-0.07031 0.13596,-0.08361 0.265479,-0.178632 0.390625,-0.285156 v -0.002 h 0.002 c 0.05618,-0.0481 0.108827,-0.11159 0.164063,-0.166016 0.04044,0.0035 0.07538,0.01758 0.117187,0.01758 0.131777,0 0.258941,-0.0174 0.38086,-0.04883 0.122944,-0.03143 0.242778,-0.07775 0.353515,-0.138671 0.22094,-0.121468 0.411944,-0.29882 0.550782,-0.517579 0.0566,-0.08839 0.100467,-0.178856 0.134765,-0.267578 v -0.002 c 0.107636,-0.277333 0.131668,-0.58281 0.06641,-0.876953 v -0.002 c -0.04443,-0.196604 -0.126754,-0.380859 -0.240235,-0.542969 l -0.002,-0.002 v -0.002 c -0.01467,-0.02054 -0.03327,-0.03698 -0.04883,-0.05664 l 2.767578,1.597657 c -0.146996,-0.04642 -0.283033,-0.126953 -0.439453,-0.126954 h -0.580078 l 0.04297,0.294922 c -0.268857,0.120263 -0.586469,0.155546 -0.748047,0.41211 -3.63e-4,5.73e-4 3.62e-4,0.0014 0,0.002 -0.337413,0.533981 -0.235131,1.173938 0.115234,1.664062 -0.194419,0.766521 -0.244067,1.731997 -0.113281,2.53125 -0.04279,0.04881 -0.08824,0.100931 -0.132813,0.171875 -0.02158,0.03394 -0.02853,0.07065 -0.04687,0.105469 -0.38324,0.04611 -0.735371,0.05567 -1.060547,0.267578 -0.340763,0.221175 -0.468142,0.350987 -1.34375,0.365235 -0.4094,-0.0395 -0.986661,-0.02989 -1.279296,-0.01953 h -0.002 c -0.236149,0.0095 -0.460868,0.01736 -0.761718,0.002 -0.01579,-8.64e-4 0.01927,0.01394 -0.01172,-0.0098 -0.03099,-0.0237 -0.106221,-0.100593 -0.216797,-0.226563 -0.31563,-0.359373 -0.907016,-0.934294 -1.921875,-1.007812 l -0.535156,-0.03906 v 1.66211 l 0.453125,0.04297 c 0.406638,0.03701 0.502282,0.16309 0.748047,0.44336 0.248508,0.283275 0.683184,0.76064 1.394531,0.798828 0.373476,0.02037 0.667708,0.01167 0.912109,0.002 0.407036,-0.01382 1.094105,-0.01634 1.560547,0.09961 v 0.002 c -0.08683,-0.02139 0.123305,0.06562 0.320313,0.21875 0.197007,0.15313 0.440471,0.365733 0.683593,0.599609 0.443067,0.426215 0.846301,0.910089 1.048829,1.216797 -0.216813,0.624432 -0.09536,1.32953 0.46289,1.724609 4.78e-4,3.39e-4 -4.78e-4,0.0016 0,0.002 0.02435,0.01759 0.04898,0.03408 0.0625,0.04297 l 0.002,0.002 0.0039,0.002 c 0.244043,0.155039 0.528138,0.236329 0.814453,0.236328 0.521338,0 1.007501,-0.269045 1.285156,-0.708984 0.215553,-0.338998 0.288252,-0.752676 0.201172,-1.144531 -0.08813,-0.394226 -0.331963,-0.738815 -0.673828,-0.955078 h -0.002 v -0.002 c -0.240989,-0.151208 -0.522018,-0.234375 -0.810547,-0.234375 -0.02934,0 -0.05355,0.0081 -0.08203,0.0098 -0.4017,-0.570293 -0.979579,-1.129043 -1.566406,-1.640625 0.04459,-0.02806 0.124946,-0.0586 0.164063,-0.08398 0.03866,-0.02511 0.03249,-0.02343 0.125,-0.03125 0.03989,-0.0034 0.146407,-0.01534 0.214843,-0.01953 0.08754,0.111026 0.141393,0.243121 0.261719,0.328125 7.87e-4,5.55e-4 0.0012,0.0014 0.002,0.002 0.02486,0.01779 0.04987,0.034 0.06055,0.04102 l 0.0039,0.002 0.0039,0.002 c 0.241193,0.152282 0.522864,0.238281 0.8125,0.238281 0.521337,0 1.007501,-0.269045 1.285156,-0.708985 0.215289,-0.33953 0.288289,-0.754463 0.201172,-1.146484 -0.088,-0.393647 -0.332214,-0.739321 -0.673828,-0.955078 -0.11114,-0.07017 -0.246946,-0.06822 -0.371094,-0.107422 -0.02829,-0.432012 0.01013,-1.225382 0.105469,-1.681641 0.323661,-0.110674 0.678354,-0.180459 0.865234,-0.476562 0.216531,-0.339043 0.290245,-0.753505 0.203125,-1.146484 -0.0714,-0.319373 -0.30058,-0.561564 -0.544922,-0.773438 l 1.669922,0.964844 v 10.677734 l -8.445312,4.90625 C 25.37799,34.3195 24.91321,35.371052 25.125,36.349609 l 0.103516,0.478516 c 0.105975,0.489647 0.408343,0.897872 0.830078,1.085937 0.421734,0.188066 0.928166,0.140845 1.363281,-0.107421 l 9.539062,-5.445313 c 0.850284,-0.485151 1.423829,-1.470418 1.423829,-2.449219 V 17.734375 c 0,-0.977937 -0.570019,-1.966071 -1.417969,-2.455078 L 25.318359,8.5546875 C 24.894199,8.30941 24.397086,8.1874693 23.900391,8.1894531 Z m 2.68164,11.8320309 -0.0059,0.02734 v 0.04297 z M 24.818359,9.4199219 36.466797,16.146484 c 0.441515,0.254619 0.917969,1.078577 0.917969,1.587891 v 12.177734 c 0,0.50845 -0.47622,1.32998 -0.917969,1.582032 L 26.925781,36.9375 c -0.210902,0.120336 -0.353663,0.11142 -0.458984,0.06445 -0.105321,-0.04697 -0.208411,-0.147485 -0.259766,-0.384766 l -0.103515,-0.480468 c -0.10287,-0.475301 0.221832,-1.210693 0.642578,-1.455078 l 8.943359,-5.197266 V 17.654297 l -11.623047,-6.708984 -7.773437,4.371093 -0.02344,0.01758 c -0.387019,0.277965 -0.910427,0.192131 -1.185547,-0.191406 -0.274178,-0.383199 -0.186671,-0.904784 0.197266,-1.183594 l 7.710937,-4.5312496 c 0.437812,-0.2575103 1.386314,-0.2621675 1.826172,-0.00781 z m 3.701172,6.7500001 h 0.0059 c 0.02665,-0.0058 0.06634,-0.0019 0.105468,0.02148 0.0014,8.32e-4 0.0025,-8.86e-4 0.0039,0 l 0.0039,0.0039 c 0.02843,0.02014 0.05389,0.05946 0.06055,0.09375 v 0.002 c 0.0027,0.01419 -0.0056,0.02931 -0.0078,0.04492 l -0.136719,0.128907 c -0.0342,0 -0.05703,-0.0095 -0.07617,-0.02148 h -0.002 c -0.01453,-0.0091 -0.03154,-0.02372 -0.04492,-0.04297 -0.008,-0.01171 -0.01421,-0.02715 -0.01953,-0.05078 v -0.0078 c -0.0045,-0.02968 8.79e-4,-0.07512 0.01953,-0.105469 0.02714,-0.04157 0.0582,-0.05952 0.08789,-0.06641 z m -17.167968,1.726562 c -1.014719,0.01751 -1.8398442,0.856888 -1.8398442,1.871094 v 9.71875 c 0,0.980678 0.5780722,1.964143 1.4335942,2.441406 l 7.671874,4.275391 c 0.868096,0.522084 2.010209,0.23837 2.533204,-0.628906 0.522812,-0.868431 0.239695,-2.01207 -0.626954,-2.539063 l -0.0098,-0.0059 -0.0098,-0.0039 -7.294922,-4.001954 v -9.302734 c 0,-1.014903 -0.843047,-1.842607 -1.857421,-1.824219 z m 20.802734,0.351563 h 0.002 l 0.0039,0.0039 c 0.03821,0.02686 0.02563,0.07776 0.02734,0.125 l -0.109375,0.144531 c -0.02614,0 -0.05384,-0.0069 -0.08008,-0.02344 -0.02768,-0.0175 -0.05469,-0.05575 -0.0625,-0.08984 l -0.002,-0.0059 c -0.0071,-0.03258 0.0023,-0.07706 0.01953,-0.105469 0.05278,-0.08411 0.124506,-0.09636 0.201172,-0.04883 z m -12.222656,0.0293 0.101562,0.109375 0.222656,0.242187 0.002,-0.002 1.582032,1.707031 -1.478516,8.025391 L 18.345703,26.916016 15.947266,27.53125 17.423828,19.5 Z M 19.384766,18.8125 c -0.04789,0.0076 -0.118205,0.06193 -0.183594,0.09961 -0.403526,0.105531 -0.747276,0.382326 -0.826172,0.804688 v 0.002 c -0.108803,0.588474 0.288976,1.165516 0.876953,1.275391 0.593249,0.109157 1.167476,-0.285827 1.277344,-0.876954 0.108867,-0.588823 -0.28639,-1.168156 -0.876953,-1.277343 h -0.002 c 0.09755,0.01742 0.04088,0.006 -0.03125,-0.01172 -0.03608,-0.01108 -0.07921,-0.04038 -0.234375,-0.01563 z m -8.015625,0.08398 c 0.472875,-0.0086 0.839843,0.350588 0.839843,0.824219 v 9.894531 l 7.796875,4.279297 c 0.401678,0.24715 0.528956,0.762338 0.28711,1.164063 -0.243749,0.404206 -0.755483,0.530485 -1.160157,0.287109 l -0.0078,-0.0039 -7.691406,-4.28711 C 10.99066,30.807592 10.511719,29.994185 10.511719,29.486328 v -9.71875 c 0,-0.473044 0.383606,-0.862918 0.857422,-0.871094 z m 8.082031,0.925782 h 0.01563 c 0.005,9.65e-4 -0.0015,9.46e-4 0.0039,0.002 0.05545,0.01025 0.08675,0.05413 0.07617,0.111328 -0.0082,0.04408 -0.06285,0.08391 -0.111328,0.07617 -0.05804,-0.01085 -0.08681,-0.05378 -0.07617,-0.111328 0.01027,-0.04769 0.04634,-0.07813 0.0918,-0.07813 z m 8.632812,0.289062 c 0.02614,0 0.0587,0.0093 0.07813,0.02148 l 0.0059,0.0039 c 0.0161,0.01031 0.02486,0.01864 0.03516,0.0332 l 0.0059,0.0098 c 0.0092,0.01359 0.01628,0.02916 0.01953,0.04297 l 0.002,0.01563 c 0.002,0.01411 0.0025,0.03035 0,0.04492 -0.0031,0.01507 -0.0088,0.03489 -0.02148,0.05469 -0.01191,0.01868 -0.03107,0.0359 -0.04492,0.04492 -0.02419,0.01502 -0.05322,0.02344 -0.07617,0.02344 l -0.08398,-0.25 c 0.02651,-0.01967 0.05115,-0.04492 0.08008,-0.04492 z m 3.94336,2.503906 h 0.002 l 0.0039,0.0039 c 0.05093,0.0358 0.05232,0.109641 0.03516,0.167968 l -0.11914,0.101563 c -0.02616,0 -0.05187,-0.0068 -0.07813,-0.02344 -0.02972,-0.01878 -0.05926,-0.05961 -0.06641,-0.0918 -0.0077,-0.03439 0.001,-0.08115 0.01953,-0.111328 0.05195,-0.08279 0.124728,-0.09566 0.203125,-0.04687 z m -4.449219,2.007813 c -0.536941,0 -1.033552,0.283494 -1.308594,0.74414 h -0.002 c -0.205162,0.345088 -0.265489,0.761082 -0.166016,1.152344 0.04263,0.169568 0.186035,0.27728 0.28125,0.419922 -0.620801,1.216054 -1.603579,1.787881 -2.111328,2.03125 l 0.05664,-0.02344 c -0.06617,0.02217 -0.119751,0.0494 -0.166016,0.07813 l 0.06055,-0.03125 c -0.140734,0.06306 -0.238626,0.07851 -0.341797,0.09961 l -0.398437,0.08203 v 1.634766 L 24.037109,30.75 c -0.03652,0.004 0.123314,-0.0096 0.28125,-0.04297 0.13564,-0.02868 0.319714,-0.08934 0.513672,-0.169922 0.407161,-0.103401 0.623064,-0.102518 0.730469,-0.08398 0.107405,0.01853 0.137838,0.04256 0.267578,0.130859 l 0.002,0.002 h 0.002 c 0.166814,0.112254 0.499086,0.334225 0.960938,0.359375 0.036,0.0023 0.06462,0.0039 0.08008,0.0039 0.348094,0 0.676555,-0.105702 1.060547,-0.214844 0.323629,-0.09199 0.584801,-0.181139 0.785156,-0.251953 0.220273,0.119814 0.426766,0.279297 0.683594,0.279297 0.364202,0 0.715052,-0.132317 0.990234,-0.369141 0.304983,-0.26218 0.49698,-0.635755 0.527344,-1.037109 0.03131,-0.40237 -0.1006,-0.80207 -0.363281,-1.107422 -0.287977,-0.335499 -0.709842,-0.53125 -1.154297,-0.53125 -0.361483,0 -0.713041,0.129097 -0.990235,0.367187 -0.254613,0.218154 -0.259403,0.548215 -0.330078,0.853516 -0.164753,0.05481 -0.392507,0.127425 -0.648437,0.199219 -0.155351,0.04358 -0.30702,0.08265 -0.421875,0.109375 -0.108369,0.02522 -0.210568,0.02786 -0.13086,0.03125 -0.02187,-3.09e-4 0.03054,0.02479 -0.115234,-0.07422 -0.0045,-0.003 -0.01562,-0.01789 -0.01758,-0.01953 0.432099,-0.448892 0.904611,-0.936912 1.269531,-1.746094 0.326506,-0.11671 0.681641,-0.203736 0.865235,-0.511719 0.426968,-0.716698 0.188602,-1.657131 -0.527344,-2.085937 v -0.002 h -0.002 c -0.08976,-0.05342 -0.198819,-0.04811 -0.296875,-0.08203 l -0.0078,-0.132812 z M 27.576172,26 c 0.02344,0 0.05242,0.0076 0.07617,0.02148 0.0334,0.02004 0.05791,0.05438 0.06641,0.08789 l 0.002,0.0039 c 0.008,0.0323 0.0013,0.07569 -0.01758,0.107422 -0.0238,0.03999 -0.08079,0.07227 -0.125,0.07227 -0.02892,0 -0.05705,-0.0088 -0.07813,-0.02148 -0.06374,-0.03824 -0.08928,-0.133572 -0.04883,-0.201172 C 27.474545,26.03242 27.527613,26 27.576172,26 Z m 4.451172,0.814453 h 0.002 l 0.0039,0.0039 c 0.05916,0.0416 0.07572,0.135506 0.04102,0.195313 l -0.002,0.0039 c -0.02748,0.04325 -0.07863,0.07031 -0.123047,0.07031 l -0.142578,-0.125 c -0.0041,-0.03191 0.0013,-0.07485 0.01758,-0.101563 0.05195,-0.08279 0.124728,-0.09566 0.203125,-0.04687 z m -2.623047,2.277344 c 0.04153,0 0.08281,0.01821 0.109375,0.04883 l 0.002,0.002 c 0.05082,0.05933 0.0424,0.157331 -0.01563,0.207031 -0.02726,0.02131 -0.0759,0.03516 -0.0957,0.03516 -0.0436,0 -0.08774,-0.02142 -0.111328,-0.04883 v -0.002 c -0.02099,-0.02448 -0.0376,-0.07285 -0.03516,-0.105468 0.0025,-0.03272 0.0231,-0.07783 0.05078,-0.101563 l 0.002,-0.002 c 0.02544,-0.02166 0.07103,-0.0332 0.09375,-0.0332 z"
     id="path9" />
</svg>
