<?xml version="1.0" encoding="UTF-8" standalone="no"?>
<!-- Generator: Gravit.io -->

<svg
   style="isolation:isolate"
   viewBox="0 0 48 48"
   width="48pt"
   height="48pt"
   version="1.1"
   id="svg16"
   sodipodi:docname="pidgin.svg"
   inkscape:version="1.1.2 (0a00cf5339, 2022-02-04)"
   xmlns:inkscape="http://www.inkscape.org/namespaces/inkscape"
   xmlns:sodipodi="http://sodipodi.sourceforge.net/DTD/sodipodi-0.dtd"
   xmlns:xlink="http://www.w3.org/1999/xlink"
   xmlns="http://www.w3.org/2000/svg"
   xmlns:svg="http://www.w3.org/2000/svg">
  <defs
     id="defs20">
    <linearGradient
       inkscape:collect="always"
       xlink:href="#_lgradient_23"
       id="linearGradient872"
       x1="-12.025727"
       y1="6.1170783"
       x2="-0.085100174"
       y2="6.1170783"
       gradientUnits="userSpaceOnUse"
       gradientTransform="matrix(3.8358211,0,0,3.8371386,-0.00544341,-0.00268054)" />
    <linearGradient
       id="_lgradient_1"
       x1="0.18336116"
       y1="0.24917752"
       x2="0.9027437"
       y2="0.90347725"
       gradientTransform="matrix(24.617266,0,0,24.816118,10.841288,10.089605)"
       gradientUnits="userSpaceOnUse">
      <stop
         offset="2.608695652173913%"
         stop-opacity="1"
         style="stop-color:rgb(179,255,171)"
         id="stop2-3" />
      <stop
         offset="98.69565217391305%"
         stop-opacity="1"
         style="stop-color:rgb(18,255,247)"
         id="stop4-6" />
    </linearGradient>
    <linearGradient
       inkscape:collect="always"
       xlink:href="#_lgradient_23"
       id="linearGradient15"
       x1="-9.6850061"
       y1="45.161198"
       x2="11.98815"
       y2="21.735205"
       gradientUnits="userSpaceOnUse"
       gradientTransform="matrix(1.1147442,0,0,1.1150348,-0.01237238,-3.3277956)" />
    <linearGradient
       inkscape:collect="always"
       xlink:href="#_lgradient_23"
       id="linearGradient885"
       x1="11.748771"
       y1="18.803457"
       x2="27.418468"
       y2="18.803457"
       gradientUnits="userSpaceOnUse" />
    <linearGradient
       inkscape:collect="always"
       xlink:href="#_lgradient_23"
       id="linearGradient915"
       x1="35.56068"
       y1="27.177666"
       x2="19.584007"
       y2="27.390116"
       gradientUnits="userSpaceOnUse" />
  </defs>
  <sodipodi:namedview
     id="namedview18"
     pagecolor="#ffffff"
     bordercolor="#666666"
     borderopacity="1.0"
     inkscape:pageshadow="2"
     inkscape:pageopacity="0.0"
     inkscape:pagecheckerboard="0"
     inkscape:document-units="pt"
     showgrid="false"
     inkscape:zoom="10.21875"
     inkscape:cx="31.95107"
     inkscape:cy="24.171254"
     inkscape:window-width="1600"
     inkscape:window-height="836"
     inkscape:window-x="0"
     inkscape:window-y="0"
     inkscape:window-maximized="1"
     inkscape:current-layer="svg16" />
  <linearGradient
     id="_lgradient_22"
     x1="-0.000038208333333289435"
     y1="0.5000000833333331"
     x2="0.9999618333333335"
     y2="0.5000000833333331"
     gradientTransform="matrix(15.66963,0,0,15.91949,11.748832,10.843807)"
     gradientUnits="userSpaceOnUse">
    <stop
       offset="0%"
       stop-opacity="1"
       style="stop-color:rgb(211,0,220)"
       id="stop2" />
    <stop
       offset="100%"
       stop-opacity="1"
       style="stop-color:rgb(135,0,255)"
       id="stop4" />
  </linearGradient>
  <rect
     x="-46.783188"
     y="1.2253767"
     height="45.80014"
     rx="6.1837621"
     shape-rendering="crispEdges"
     id="rect5-6-7-3"
     ry="6.8055277"
     transform="matrix(0.00524063,-0.99998627,0.99998801,0.00489691,0,0)"
     style="isolation:isolate;fill:#db00ff;fill-opacity:0.13470298;stroke:url(#linearGradient872);stroke-width:2.0301;stroke-miterlimit:4;stroke-dasharray:none;stroke-opacity:1"
     width="45.801998" />
  <rect
     x="-15.686804"
     y="17.260084"
     height="33.345856"
     rx="6.7920032"
     shape-rendering="crispEdges"
     id="rect5-6-6-6-6"
     style="isolation:isolate;fill:#db00ff;fill-opacity:0.13470298;stroke:url(#linearGradient15);stroke-width:1.67233;stroke-miterlimit:4;stroke-dasharray:none;stroke-opacity:1"
     ry="7.4743071"
     transform="matrix(0.72446484,-0.68931175,0.68622417,0.72739012,0,0)"
     width="33.338203" />
  <path
     style="color:#000000;fill:url(#linearGradient885);fill-rule:evenodd;-inkscape-stroke:none"
     d="m 19.611328,10.34375 c -2.1917,0 -4.294612,0.873346 -5.845703,2.419922 v 0.002 c -1.546693,1.550645 -2.419922,3.652134 -2.419922,5.84375 0,1.458396 0.385873,2.890984 1.119141,4.154297 l -0.04883,-0.08203 -1.074219,3.105468 c -0.14302,0.412896 -0.142355,0.883977 0.173828,1.203125 0.316183,0.319149 0.785199,0.322421 1.199219,0.183594 l 3.255859,-1.09375 c 1.146435,0.575194 2.41088,0.876953 3.693359,0.876953 0.327725,0 0.652303,-0.0183 0.976563,-0.05664 0.665506,-0.08107 1.149437,-0.697482 1.070312,-1.363282 -0.07895,-0.664424 -0.694171,-1.150107 -1.359375,-1.070312 h -0.002 c -0.230886,0.02683 -0.455444,0.03906 -0.685547,0.03906 -0.898022,0 -1.787756,-0.209553 -2.591796,-0.613281 l -0.02734,-0.01367 -1.066406,-0.382812 -0.66211,0.115234 -0.697265,0.167969 0.126953,-0.384766 0.394531,-1.011719 -0.421875,-0.902343 -0.01172,-0.01953 c -0.505186,-0.867983 -0.767578,-1.847851 -0.767578,-2.851562 0,-1.504417 0.594615,-2.946179 1.660156,-4.011719 1.065605,-1.065116 2.507411,-1.660156 4.011719,-1.660156 1.413021,0 2.775017,0.526384 3.822266,1.478516 0.522801,0.477863 1.349453,0.440232 1.828125,-0.08203 0.479592,-0.52421 0.440305,-1.353071 -0.08398,-1.832031 C 23.656411,11.116112 21.67187,10.34375 19.611328,10.34375 Z m 0,1 c 1.810976,0 3.554558,0.677622 4.892578,1.896484 0.126092,0.11519 0.133022,0.29392 0.01953,0.417969 -0.114872,0.125334 -0.292571,0.132839 -0.416015,0.01953 v -0.002 h -0.002 c -1.230677,-1.1189 -2.832443,-1.738281 -4.494141,-1.738281 -1.768814,0 -3.466112,0.701061 -4.71875,1.953125 -1.252701,1.2527 -1.953125,2.950044 -1.953125,4.71875 0,1.178723 0.310308,2.334908 0.904297,3.355469 l -0.02148,-0.04102 0.232422,0.494141 -0.25,0.636718 -0.701172,2.117188 2.416015,-0.580078 0.371094,-0.06445 0.789062,0.283203 -0.05469,-0.02539 c 0.943394,0.473701 1.984881,0.720703 3.039062,0.720703 0.268964,0 0.535475,-0.0155 0.804688,-0.04687 h 0.002 c 0.12764,-0.01553 0.230696,0.06573 0.246094,0.195313 0.01532,0.128874 -0.07022,0.236476 -0.197266,0.251953 -0.285146,0.03364 -0.567419,0.05078 -0.855469,0.05078 -1.125304,0 -2.234232,-0.264149 -3.242187,-0.769531 h -0.002 L 16.050781,25 l -0.199218,0.06641 -3.455079,1.160156 c -0.210896,0.07072 -0.219496,0.01248 -0.171875,0.06055 0.04762,0.04807 -0.01039,0.03855 0.0625,-0.171875 l 1.22461,-3.541015 -0.181641,-0.3125 -0.002,-0.002 c -0.644112,-1.110613 -0.982422,-2.369134 -0.982422,-3.650391 0,-1.925496 0.767291,-3.772964 2.126953,-5.136719 1.364482,-1.360509 3.212711,-2.128906 5.138672,-2.128906 z m 6.228516,3.691406 c -0.630918,0.230151 -0.961456,0.942378 -0.730469,1.572266 0.237221,0.651801 0.357422,1.340583 0.357422,2.033203 0.0034,1.925233 -0.939901,3.733961 -2.517578,4.833984 h 0.002 c -0.551505,0.384194 -0.693347,1.157684 -0.308594,1.708985 0.384257,0.550591 1.157525,0.686056 1.707031,0.300781 2.23711,-1.559132 3.572295,-4.116266 3.56836,-6.84375 0,-0.979224 -0.169678,-1.955162 -0.50586,-2.875 -0.231208,-0.630494 -0.941487,-0.960004 -1.572265,-0.730469 z m 0.341797,0.939453 c 0.120786,-0.04395 0.245732,0.01439 0.291015,0.134766 0.295102,0.807436 0.445313,1.667551 0.445313,2.53125 0.0035,2.40079 -1.170632,4.650999 -3.140625,6.023437 v 0.002 h -0.002 c -0.107239,0.07519 -0.238416,0.05147 -0.3125,-0.05469 -0.07359,-0.105449 -0.05089,-0.240135 0.05859,-0.316406 1.846105,-1.287182 2.949318,-3.403344 2.945313,-5.65625 -2.24e-4,-0.808432 -0.140213,-1.612602 -0.417969,-2.375 v -0.002 c -0.04487,-0.122348 0.01043,-0.242467 0.132813,-0.28711 z m -10.03125,1.046875 c -0.871127,0 -1.589844,0.716469 -1.589844,1.587891 0,0.871713 0.718717,1.587891 1.589844,1.587891 0.871126,0 1.58789,-0.716472 1.58789,-1.587891 0,-0.871127 -0.716764,-1.587891 -1.58789,-1.587891 z m 3.800781,0 c -0.871127,0 -1.587891,0.716469 -1.587891,1.587891 0,0.871713 0.716764,1.587891 1.587891,1.587891 0.871127,0 1.58789,-0.716472 1.58789,-1.587891 0,-0.871127 -0.716763,-1.587891 -1.58789,-1.587891 z m 3.800781,0 c -0.871127,0 -1.58789,0.716764 -1.587891,1.587891 10e-7,0.871419 0.716764,1.587891 1.587891,1.587891 0.871127,0 1.587891,-0.716472 1.587891,-1.587891 0,-0.871127 -0.716764,-1.587891 -1.587891,-1.587891 z m -7.601562,1 c 0.329902,0 0.58789,0.257989 0.58789,0.587891 0,0.330672 -0.257988,0.587891 -0.58789,0.587891 -0.329902,0 -0.589844,-0.257513 -0.589844,-0.587891 0,-0.329607 0.259942,-0.587891 0.589844,-0.587891 z m 3.800781,0 c 0.329902,0 0.58789,0.257989 0.58789,0.587891 0,0.330672 -0.257988,0.587891 -0.58789,0.587891 -0.329902,0 -0.587891,-0.257513 -0.587891,-0.587891 0,-0.329607 0.257989,-0.587891 0.587891,-0.587891 z m 3.800781,0 c 0.329902,0 0.587891,0.25799 0.587891,0.587891 0,0.330671 -0.257989,0.587891 -0.587891,0.587891 -0.329902,0 -0.58789,-0.257219 -0.587891,-0.587891 0,-0.329902 0.257989,-0.587891 0.587891,-0.587891 z"
     id="path7" />
  <linearGradient
     id="_lgradient_23"
     x1="-0.000038208333333289435"
     y1="0.5000000833333331"
     x2="0.9999618333333335"
     y2="0.5000000833333331"
     gradientTransform="matrix(-15.370433,0,0,15.848405,35.375819,18.34176)"
     gradientUnits="userSpaceOnUse">
    <stop
       offset="0%"
       stop-opacity="1"
       style="stop-color:rgb(211,0,220)"
       id="stop9" />
    <stop
       offset="100%"
       stop-opacity="1"
       style="stop-color:rgb(135,0,255)"
       id="stop11" />
  </linearGradient>
  <path
     style="color:#000000;fill:url(#linearGradient915);fill-rule:evenodd;-inkscape-stroke:none"
     d="m 29.035156,17.84375 c -0.393549,-0.02179 -0.763205,0.07418 -1.060547,0.28125 -0.297341,0.20707 -0.52539,0.557207 -0.52539,0.957031 0,0.394341 0.189083,0.727863 0.441406,0.988281 0.252323,0.260419 0.582122,0.459191 0.960937,0.556641 1.165989,0.299289 2.044666,0.771228 2.671875,1.398438 1.065116,1.065603 1.66211,2.50741 1.66211,4.011718 0,1.003549 -0.264275,1.983459 -0.769531,2.851563 l -0.0098,0.01758 -0.423828,0.904297 0.396484,1.011719 0.126953,0.384765 -0.697265,-0.167969 -0.66211,-0.115234 -1.066406,0.380859 -0.02734,0.01367 c -0.804667,0.403798 -1.694347,0.615235 -2.591797,0.615235 -0.230022,0 -0.455338,-0.01434 -0.685546,-0.04102 h -0.0039 c -0.663748,-0.07861 -1.278433,0.406615 -1.357422,1.070313 -0.07912,0.665799 0.402853,1.28221 1.06836,1.363281 h 0.002 c 0.323897,0.03837 0.648838,0.05859 0.976562,0.05859 1.28248,0 2.546924,-0.301761 3.69336,-0.876954 l 3.255859,1.09375 c 0.41402,0.138827 0.883036,0.135556 1.199219,-0.183593 0.316183,-0.319149 0.316848,-0.79023 0.173828,-1.203125 l -1.076172,-3.105469 -0.04687,0.08203 c 0.733263,-1.263313 1.119141,-2.695901 1.119141,-4.154297 0,-2.191701 -0.873271,-4.295101 -2.419922,-5.845703 h -0.002 c -0.720503,-0.718527 -1.546076,-1.282378 -2.3125,-1.679687 -0.766425,-0.39731 -1.450166,-0.637253 -2.009766,-0.667969 z m -0.05469,1 c 0.281227,0.01544 0.920641,0.20069 1.603515,0.554687 0.682452,0.353779 1.432815,0.868437 2.066407,1.5 1.360434,1.36391 2.128906,3.21271 2.128906,5.138672 0,1.282116 -0.339426,2.541184 -0.984375,3.652344 l -0.183594,0.3125 1.226563,3.541016 c 0.07289,0.21043 0.01293,0.21799 0.06055,0.169922 0.04714,-0.04758 0.03477,0.0088 -0.169921,-0.05859 h -0.002 l -3.652343,-1.226563 -0.185547,0.09375 -0.183594,0.0918 c -1.008416,0.505945 -2.118196,0.771485 -3.244141,0.771485 -0.28805,0 -0.572963,-0.01716 -0.857421,-0.05078 -0.127047,-0.01548 -0.210629,-0.123077 -0.195313,-0.251953 v -0.002 c 0.01512,-0.12871 0.11943,-0.208788 0.246094,-0.193359 h 0.002 c 0.269213,0.03137 0.535232,0.04687 0.804687,0.04687 1.053693,0 2.095236,-0.247072 3.039063,-0.720703 l -0.05469,0.02344 0.789063,-0.28125 0.371094,0.06445 2.416015,0.580078 -0.701172,-2.117187 -0.25,-0.636719 0.232422,-0.494141 -0.02148,0.03906 c 0.593919,-1.02044 0.904297,-2.174631 0.904297,-3.353516 0,-1.768814 -0.703014,-3.466112 -1.955078,-4.71875 -0.780357,-0.780357 -1.834128,-1.327808 -3.128907,-1.660156 -0.188277,-0.04843 -0.372503,-0.159679 -0.492187,-0.283203 -0.119684,-0.123524 -0.160156,-0.248065 -0.160156,-0.292969 0,-0.03995 0.0095,-0.07669 0.0957,-0.136719 0.0862,-0.06003 0.244497,-0.112137 0.435547,-0.101562 z m -1.806641,5.605469 c -0.871127,0 -1.589844,0.716469 -1.589844,1.58789 0,0.871713 0.718717,1.587891 1.589844,1.587891 0.871127,0 1.587891,-0.716473 1.587891,-1.587891 0,-0.871126 -0.716765,-1.58789 -1.587891,-1.58789 z m 3.800781,0 c -0.871126,0 -1.58789,0.716469 -1.58789,1.58789 0,0.871713 0.716763,1.587891 1.58789,1.587891 0.871127,0 1.587891,-0.716473 1.587891,-1.587891 0,-0.871126 -0.716764,-1.58789 -1.587891,-1.58789 z m -3.800781,1 c 0.329903,0 0.587891,0.257986 0.587891,0.58789 0,0.330672 -0.257989,0.587891 -0.587891,0.587891 -0.329903,0 -0.589844,-0.257514 -0.589844,-0.587891 0,-0.329609 0.25994,-0.58789 0.589844,-0.58789 z m 3.800781,0 c 0.329903,0 0.587891,0.257986 0.587891,0.58789 0,0.330672 -0.257989,0.587891 -0.587891,0.587891 -0.329903,0 -0.58789,-0.257514 -0.58789,-0.587891 0,-0.329609 0.257986,-0.58789 0.58789,-0.58789 z m -10.541015,1.839843 c -0.278662,0 -0.556075,0.122811 -0.730469,0.339844 -0.174394,0.217034 -0.233915,0.514956 -0.173828,0.78711 0.340011,1.542853 1.519395,3.293612 3.246094,4.496093 0.549507,0.385277 1.322775,0.249811 1.707031,-0.300781 0.38496,-0.551596 0.242129,-1.324717 -0.308594,-1.708984 -0.707204,-0.49266 -1.420024,-1.432193 -2.076172,-2.841797 -0.226989,-0.488077 -0.670985,-0.771485 -1.208984,-0.771485 z m 0.115234,1 h 0.339844 c 0.04766,0 0.280562,0.147932 0.300781,0.191407 0.700249,1.504915 1.484846,2.594867 2.414063,3.242187 h -0.002 c 0.109207,0.0762 0.133931,0.211258 0.06055,0.316406 -0.07409,0.106156 -0.207213,0.127924 -0.314453,0.05273 -1.485753,-1.034686 -2.504458,-2.605677 -2.798828,-3.802735 z"
     id="path14" />
</svg>
