<?xml version="1.0" encoding="UTF-8" standalone="no"?>
<!-- Generator: Gravit.io -->

<svg
   style="isolation:isolate"
   viewBox="0 0 48 48"
   width="48pt"
   height="48pt"
   version="1.1"
   id="svg41"
   sodipodi:docname="pinta.svg"
   inkscape:version="1.1.2 (0a00cf5339, 2022-02-04)"
   xmlns:inkscape="http://www.inkscape.org/namespaces/inkscape"
   xmlns:sodipodi="http://sodipodi.sourceforge.net/DTD/sodipodi-0.dtd"
   xmlns:xlink="http://www.w3.org/1999/xlink"
   xmlns="http://www.w3.org/2000/svg"
   xmlns:svg="http://www.w3.org/2000/svg">
  <defs
     id="defs45">
    <linearGradient
       inkscape:collect="always"
       xlink:href="#_lgradient_90"
       id="linearGradient1074"
       x1="25.853588"
       y1="16.276714"
       x2="30.178629"
       y2="16.276714"
       gradientUnits="userSpaceOnUse"
       gradientTransform="translate(-0.03669718)" />
    <linearGradient
       id="_lgradient_90"
       x1="0"
       y1="0.5"
       x2="0.90748805"
       y2="0.92007786"
       gradientTransform="matrix(4.3250395,0,0,4.3250395,25.853588,14.114195)"
       gradientUnits="userSpaceOnUse">
      <stop
         offset="0%"
         stop-opacity="1"
         style="stop-color:rgb(247,241,7)"
         id="stop34-3" />
      <stop
         offset="83.88839793817618%"
         stop-opacity="1"
         style="stop-color:rgb(255,187,36)"
         id="stop36-6" />
    </linearGradient>
    <linearGradient
       inkscape:collect="always"
       xlink:href="#_lgradient_89"
       id="linearGradient1100"
       x1="18.439236"
       y1="16.894579"
       x2="22.764275"
       y2="16.894579"
       gradientUnits="userSpaceOnUse"
       gradientTransform="translate(-0.03669718)" />
    <linearGradient
       id="_lgradient_89"
       x1="0"
       y1="0.5"
       x2="0.90748805"
       y2="0.92007786"
       gradientTransform="matrix(4.3250395,0,0,4.3250395,18.439235,14.732058)"
       gradientUnits="userSpaceOnUse">
      <stop
         offset="0%"
         stop-opacity="1"
         style="stop-color:rgb(0,255,216)"
         id="stop27-7" />
      <stop
         offset="83.88839793817618%"
         stop-opacity="1"
         style="stop-color:rgb(0,255,184)"
         id="stop29-5" />
    </linearGradient>
    <linearGradient
       inkscape:collect="always"
       xlink:href="#_lgradient_88"
       id="linearGradient1126"
       x1="14.114195"
       y1="23.073206"
       x2="18.439236"
       y2="23.073206"
       gradientUnits="userSpaceOnUse"
       gradientTransform="translate(-0.03669718)" />
    <linearGradient
       id="_lgradient_88"
       x1="0"
       y1="0.5"
       x2="1"
       y2="0.5"
       gradientTransform="matrix(4.3250395,0,0,4.3250395,14.114195,20.910686)"
       gradientUnits="userSpaceOnUse">
      <stop
         offset="0%"
         stop-opacity="1"
         style="stop-color:rgb(255,229,59)"
         id="stop20-3" />
      <stop
         offset="98.69565217391305%"
         stop-opacity="1"
         style="stop-color:rgb(255,0,91)"
         id="stop22-5" />
    </linearGradient>
    <linearGradient
       inkscape:collect="always"
       xlink:href="#_lgradient_87"
       id="linearGradient1170"
       x1="17.203508"
       y1="29.869696"
       x2="21.528549"
       y2="29.869696"
       gradientUnits="userSpaceOnUse"
       gradientTransform="translate(-0.03669718)" />
    <linearGradient
       id="_lgradient_87"
       x1="0"
       y1="0.5"
       x2="1"
       y2="0.5"
       gradientTransform="matrix(4.3250395,0,0,4.3250395,17.203509,27.707177)"
       gradientUnits="userSpaceOnUse">
      <stop
         offset="0%"
         stop-opacity="1"
         style="stop-color:rgb(84,51,255)"
         id="stop11-6" />
      <stop
         offset="51.73913043478261%"
         stop-opacity="1"
         style="stop-color:rgb(32,189,255)"
         id="stop13-2" />
      <stop
         offset="98.26086956521739%"
         stop-opacity="1"
         style="stop-color:rgb(165,254,203)"
         id="stop15-9" />
    </linearGradient>
    <linearGradient
       inkscape:collect="always"
       xlink:href="#_lgradient_30"
       id="linearGradient1048"
       x1="9.4802055"
       y1="23.999998"
       x2="38.519794"
       y2="23.999998"
       gradientUnits="userSpaceOnUse"
       gradientTransform="translate(-0.03669718)" />
    <linearGradient
       id="_lgradient_86"
       x1="0"
       y1="0.5"
       x2="1"
       y2="0.5"
       gradientTransform="matrix(29.039551,0,0,29.039551,9.4802243,9.4802243)"
       gradientUnits="userSpaceOnUse">
      <stop
         offset="0%"
         stop-opacity="1"
         style="stop-color:rgb(34,216,143)"
         id="stop2-1" />
      <stop
         offset="51.73913043478261%"
         stop-opacity="1"
         style="stop-color:rgb(147,135,218)"
         id="stop4-2" />
      <stop
         offset="98.69565217391305%"
         stop-opacity="1"
         style="stop-color:rgb(255,89,230)"
         id="stop6-7" />
    </linearGradient>
    <linearGradient
       inkscape:collect="always"
       xlink:href="#_lgradient_30"
       id="linearGradient15"
       x1="-9.6850061"
       y1="45.161198"
       x2="11.98815"
       y2="21.735205"
       gradientUnits="userSpaceOnUse"
       gradientTransform="matrix(1.1147442,0,0,1.1150348,-0.03906579,-3.3530916)" />
    <linearGradient
       inkscape:collect="always"
       xlink:href="#_lgradient_30"
       id="linearGradient872"
       x1="-12.025727"
       y1="6.1170783"
       x2="-0.085100174"
       y2="6.1170783"
       gradientUnits="userSpaceOnUse"
       gradientTransform="matrix(3.8358211,0,0,3.8371386,-0.00562311,-0.03937722)" />
  </defs>
  <sodipodi:namedview
     id="namedview43"
     pagecolor="#ffffff"
     bordercolor="#666666"
     borderopacity="1.0"
     inkscape:pageshadow="2"
     inkscape:pageopacity="0.0"
     inkscape:pagecheckerboard="0"
     inkscape:document-units="pt"
     showgrid="false"
     inkscape:zoom="10.21875"
     inkscape:cx="31.95107"
     inkscape:cy="32"
     inkscape:window-width="1600"
     inkscape:window-height="836"
     inkscape:window-x="0"
     inkscape:window-y="0"
     inkscape:window-maximized="1"
     inkscape:current-layer="svg41" />
  <linearGradient
     id="_lgradient_30"
     x1="0"
     y1="0.5"
     x2="1"
     y2="0.5"
     gradientTransform="matrix(47,0,0,47,0.5,0.5)"
     gradientUnits="userSpaceOnUse">
    <stop
       offset="0%"
       stop-opacity="1"
       style="stop-color:rgb(220,80,141)"
       id="stop2" />
    <stop
       offset="50.416666666666664%"
       stop-opacity="1"
       style="stop-color:rgb(245,139,123)"
       id="stop4" />
    <stop
       offset="97.91666666666666%"
       stop-opacity="1"
       style="stop-color:rgb(56,249,215)"
       id="stop6" />
  </linearGradient>
  <rect
     x="-46.783367"
     y="1.1886801"
     height="45.80014"
     rx="6.1837621"
     shape-rendering="crispEdges"
     id="rect5-6-7-3"
     ry="6.8055277"
     transform="matrix(0.00524063,-0.99998627,0.99998801,0.00489691,0,0)"
     style="isolation:isolate;fill:#ff00e2;fill-opacity:0.13470298;stroke:url(#linearGradient872);stroke-width:2.0301;stroke-miterlimit:4;stroke-dasharray:none;stroke-opacity:1"
     width="45.801998" />
  <rect
     x="-15.713497"
     y="17.234789"
     height="33.345856"
     rx="6.7920032"
     shape-rendering="crispEdges"
     id="rect5-6-6-6-6"
     style="isolation:isolate;fill:#ff00e2;fill-opacity:0.13470298;stroke:url(#linearGradient15);stroke-width:1.67233;stroke-miterlimit:4;stroke-dasharray:none;stroke-opacity:1"
     ry="7.4743071"
     transform="matrix(0.72446484,-0.68931175,0.68622417,0.72739012,0,0)"
     width="33.338203" />
  <path
     style="color:#000000;isolation:isolate;fill:url(#linearGradient1048);fill-rule:evenodd;-inkscape-stroke:none;fill-opacity:1.0"
     d="M 23.963303,8.9804688 C 19.980817,8.9740763 16.152924,10.558957 13.334397,13.371094 10.52226,16.189621 8.9373791,20.017514 8.9437716,24 c -0.00639,3.982486 1.5784844,7.810381 4.3906254,10.628906 2.818526,2.812136 6.648264,4.397039 10.636718,4.390625 1.158196,-1.57e-4 2.314035,-0.140227 3.44336,-0.408203 l 0.0078,-0.002 0.0078,-0.002 c 0.840992,-0.228066 1.576788,-0.741514 2.082031,-1.453125 l 0.002,-0.0039 0.0039,-0.0059 c 0.44129,-0.647699 0.669374,-1.417137 0.648438,-2.207031 -0.0073,-0.457036 -0.08507,-0.909494 -0.230469,-1.345703 -0.100883,-0.333171 -0.230215,-0.657473 -0.371094,-0.964844 l -0.002,-0.0039 -0.002,-0.0059 C 29.296752,32.069901 29.012119,31.529764 28.709397,31 v -0.002 l -0.002,-0.0039 c -0.150637,-0.257339 -0.276999,-0.532921 -0.414063,-0.800782 0.08494,0.0064 0.171183,0.0055 0.255859,0.01367 h 0.0059 0.0059 c 0.774355,0.05621 1.558109,0.09526 2.34375,0.101563 0.739862,0.0125 1.48172,-0.04623 2.207031,-0.154297 0.851061,-0.12535 1.6735,-0.38886 2.441407,-0.769531 l 0.0039,-0.002 h 0.002 c 0.913532,-0.463483 1.703793,-1.146655 2.294922,-1.986328 l 0.0039,-0.0059 0.0039,-0.0059 c 0.613886,-0.920828 0.992112,-1.979839 1.105469,-3.080079 l 0.002,-0.0078 v -0.0078 c 0.006,-0.08467 0.01367,-0.17867 0.01367,-0.289062 0.0064,-3.982486 -1.578488,-7.810379 -4.390625,-10.628906 C 31.773682,10.558957 27.945789,8.9740749 23.963303,8.9804688 Z m 0,1 c 3.716076,-0.00597 7.290858,1.4726042 9.921875,4.0976562 2.625052,2.631017 4.10362,6.205799 4.097656,9.921875 0,0.05756 -0.0042,0.123036 -0.0098,0.201172 -1.11e-4,0.0016 -0.0018,0.0023 -0.002,0.0039 -0.09706,0.935068 -0.419313,1.837089 -0.939453,2.619141 -0.495147,0.701739 -1.158079,1.275761 -1.921875,1.664062 -5.62e-4,2.79e-4 -0.0014,-2.78e-4 -0.002,0 -8.28e-4,4.21e-4 -0.0011,0.0015 -0.002,0.002 -0.676758,0.334999 -1.397074,0.564601 -2.138672,0.673828 l -0.002,0.002 c -0.680886,0.101536 -1.370207,0.154381 -2.048828,0.142578 h -0.002 -0.002 c -0.75512,-0.0061 -1.513486,-0.04311 -2.267578,-0.09766 h -0.01172 c -0.395008,-0.03785 -0.787778,-0.05816 -1.177735,-0.06445 l -0.824218,-0.01172 0.36914,0.736328 c 0.0059,0.01169 0.01321,0.02446 0.01953,0.03711 0.250073,0.536894 0.519831,1.071801 0.824218,1.591797 0.28774,0.503759 0.557801,1.019982 0.810547,1.542969 0.128956,0.281357 0.244233,0.569968 0.328125,0.849609 l 0.002,0.0078 0.0039,0.0078 c 0.113688,0.341066 0.172321,0.691602 0.177734,1.048828 v 0.002 0.0039 c 0.01566,0.579604 -0.151737,1.139725 -0.474609,1.615234 -0.371135,0.520508 -0.905966,0.895049 -1.519532,1.0625 -1.053563,0.249084 -2.129261,0.378906 -3.203125,0.378906 -3.722465,0.006 -7.296716,-1.472603 -9.927734,-4.097656 C 11.416373,31.29086 9.9378068,27.716076 9.9437716,24 c -0.00596,-3.716076 1.4726044,-7.290858 4.0976564,-9.921875 2.631017,-2.625052 6.205799,-4.103621 9.921875,-4.0976562 z m 0,1.4707032 c -6.943116,0 -12.548828,5.606274 -12.548828,12.548828 0,6.943147 5.605681,12.548828 12.548828,12.548828 0.994402,0 1.905647,-0.117608 2.828125,-0.333984 l 0.02539,-0.0059 0.02539,-0.0078 c 0.457522,-0.158223 0.794946,-0.578406 0.845703,-1.007813 0.05076,-0.429406 -0.07683,-0.834492 -0.251953,-1.261718 -0.350242,-0.854453 -0.960678,-1.816359 -1.441406,-2.753907 -0.480728,-0.937547 -0.789549,-1.840612 -0.697266,-2.382812 0.04614,-0.2711 0.152361,-0.465962 0.427735,-0.66211 0.272837,-0.194341 0.742665,-0.370806 1.457031,-0.46289 1.203355,-0.01538 3.294808,0.321254 5.210937,0.08789 0.965245,-0.117556 1.903876,-0.382846 2.66211,-0.966796 0.758234,-0.58395 1.298662,-1.494598 1.453125,-2.730469 l 0.0039,-0.0293 V 24 c 7e-6,-6.942523 -5.606298,-12.548828 -12.548821,-12.548828 z m 0,1 c 6.395365,0 11.526299,5.128277 11.542969,11.519531 -0.13297,0.999084 -0.513254,1.605849 -1.060547,2.027344 -0.554627,0.427143 -1.313985,0.662858 -2.173828,0.767578 -1.719686,0.209439 -3.755745,-0.119927 -5.146485,-0.0957 h -0.02734 l -0.02539,0.0039 c -0.829447,0.104381 -1.459975,0.311348 -1.927734,0.644531 -0.46776,0.333184 -0.747341,0.811006 -0.832032,1.308594 -0.169381,0.995177 0.2845,2.01421 0.792969,3.005859 0.508469,0.99165 1.112271,1.965308 1.404297,2.677735 0.146013,0.356213 0.198021,0.643572 0.183594,0.765625 -0.0138,0.116746 -0.0046,0.113714 -0.171875,0.171875 -0.842941,0.19483 -1.656517,0.300784 -2.558598,0.300784 -6.406383,0 -11.548828,-5.142445 -11.548828,-11.548828 0,-6.405741 5.142414,-11.548828 11.548828,-11.548828 z"
     id="path9-0" />
  <path
     style="color:#000000;isolation:isolate;fill:url(#linearGradient1170);-inkscape-stroke:none"
     d="m 19.328537,27.207031 c -1.464241,0 -2.662109,1.197869 -2.662109,2.66211 0,1.46424 1.197868,2.662109 2.662109,2.662109 1.464241,0 2.664063,-1.197869 2.664063,-2.662109 0,-1.464241 -1.199822,-2.66211 -2.664063,-2.66211 z m 0,1 c 0.923179,0 1.664063,0.738931 1.664063,1.66211 0,0.923177 -0.740884,1.662109 -1.664063,1.662109 -0.923178,0 -1.662109,-0.738932 -1.662109,-1.662109 0,-0.923179 0.738931,-1.66211 1.662109,-1.66211 z"
     id="path18-9" />
  <path
     style="color:#000000;isolation:isolate;fill:url(#linearGradient1126);-inkscape-stroke:none"
     d="m 16.240647,20.410156 c -1.464241,0 -2.664063,1.197869 -2.664063,2.66211 0,1.464241 1.199822,2.664062 2.664063,2.664062 1.464241,0 2.662109,-1.199821 2.662109,-2.664062 0,-1.464241 -1.197868,-2.66211 -2.662109,-2.66211 z m 0,1 c 0.923178,0 1.662109,0.738931 1.662109,1.66211 0,0.923178 -0.738931,1.664062 -1.662109,1.664062 -0.923179,0 -1.664063,-0.740884 -1.664063,-1.664062 0,-0.923179 0.740884,-1.66211 1.664063,-1.66211 z"
     id="path25-3" />
  <path
     style="color:#000000;isolation:isolate;fill:url(#linearGradient1100);-inkscape-stroke:none"
     d="m 20.564865,14.232422 c -1.46424,0 -2.662109,1.197868 -2.662109,2.662109 0,1.464241 1.197869,2.66211 2.662109,2.66211 1.464241,0 2.66211,-1.197869 2.66211,-2.66211 0,-1.46424 -1.197869,-2.662109 -2.66211,-2.662109 z m 0,1 c 0.923179,0 1.66211,0.73893 1.66211,1.662109 0,0.923179 -0.738931,1.66211 -1.66211,1.66211 -0.923178,0 -1.662109,-0.738931 -1.662109,-1.66211 0,-0.923178 0.738931,-1.662109 1.662109,-1.662109 z"
     id="path32-6" />
  <path
     style="color:#000000;isolation:isolate;fill:url(#linearGradient1074);-inkscape-stroke:none"
     d="m 27.978928,13.613281 c -1.464241,0 -2.662109,1.199822 -2.662109,2.664063 0,1.464241 1.197868,2.662109 2.662109,2.662109 1.464241,0 2.662109,-1.197868 2.662109,-2.662109 0,-1.464241 -1.197868,-2.664063 -2.662109,-2.664063 z m 0,1 c 0.923179,0 1.662109,0.740884 1.662109,1.664063 0,0.923178 -0.73893,1.662109 -1.662109,1.662109 -0.923179,0 -1.662109,-0.738931 -1.662109,-1.662109 0,-0.923179 0.73893,-1.664063 1.662109,-1.664063 z"
     id="path39-0" />
  <linearGradient
     id="_lgradient_31"
     x1="0"
     y1="0.5"
     x2="1"
     y2="0.5"
     gradientTransform="matrix(7,0,0,7,13,30)"
     gradientUnits="userSpaceOnUse">
    <stop
       offset="0%"
       stop-opacity="1"
       style="stop-color:rgb(84,51,255)"
       id="stop11" />
    <stop
       offset="51.73913043478261%"
       stop-opacity="1"
       style="stop-color:rgb(32,189,255)"
       id="stop13" />
    <stop
       offset="98.26086956521739%"
       stop-opacity="1"
       style="stop-color:rgb(165,254,203)"
       id="stop15" />
  </linearGradient>
  <linearGradient
     id="_lgradient_32"
     x1="0"
     y1="0.5"
     x2="1"
     y2="0.5"
     gradientTransform="matrix(7,0,0,7,8,19)"
     gradientUnits="userSpaceOnUse">
    <stop
       offset="0%"
       stop-opacity="1"
       style="stop-color:rgb(255,229,59)"
       id="stop20" />
    <stop
       offset="98.69565217391305%"
       stop-opacity="1"
       style="stop-color:rgb(255,0,91)"
       id="stop22" />
  </linearGradient>
  <linearGradient
     id="_lgradient_33"
     x1="0"
     y1="0.5"
     x2="0.9074880558539661"
     y2="0.9200778838291643"
     gradientTransform="matrix(7,0,0,7,15,9)"
     gradientUnits="userSpaceOnUse">
    <stop
       offset="0%"
       stop-opacity="1"
       style="stop-color:rgb(0,255,216)"
       id="stop27" />
    <stop
       offset="83.88839793817618%"
       stop-opacity="1"
       style="stop-color:rgb(0,255,184)"
       id="stop29" />
  </linearGradient>
  <linearGradient
     id="_lgradient_34"
     x1="0"
     y1="0.5"
     x2="0.9074880558539661"
     y2="0.9200778838291643"
     gradientTransform="matrix(7,0,0,7,27,8)"
     gradientUnits="userSpaceOnUse">
    <stop
       offset="0%"
       stop-opacity="1"
       style="stop-color:rgb(247,241,7)"
       id="stop34" />
    <stop
       offset="83.88839793817618%"
       stop-opacity="1"
       style="stop-color:rgb(255,187,36)"
       id="stop36" />
  </linearGradient>
</svg>
