<?xml version="1.0" encoding="UTF-8" standalone="no"?>
<!-- Generator: Gravit.io -->

<svg
   style="isolation:isolate"
   viewBox="0 0 48 48"
   width="48pt"
   height="48pt"
   version="1.1"
   id="svg9"
   sodipodi:docname="plasma-search.svg"
   inkscape:version="1.1.2 (0a00cf5339, 2022-02-04)"
   xmlns:inkscape="http://www.inkscape.org/namespaces/inkscape"
   xmlns:sodipodi="http://sodipodi.sourceforge.net/DTD/sodipodi-0.dtd"
   xmlns:xlink="http://www.w3.org/1999/xlink"
   xmlns="http://www.w3.org/2000/svg"
   xmlns:svg="http://www.w3.org/2000/svg">
  <defs
     id="defs13">
    <linearGradient
       inkscape:collect="always"
       xlink:href="#_lgradient_1"
       id="linearGradient872"
       x1="-12.025727"
       y1="6.1170783"
       x2="-0.085100174"
       y2="6.1170783"
       gradientUnits="userSpaceOnUse"
       gradientTransform="matrix(3.8358211,0,0,3.8371386,-0.00544341,-0.00268054)" />
    <linearGradient
       id="_lgradient_1-3"
       x1="0.18336116"
       y1="0.24917752"
       x2="0.9027437"
       y2="0.90347725"
       gradientTransform="matrix(24.617266,0,0,24.816118,10.841288,10.089605)"
       gradientUnits="userSpaceOnUse">
      <stop
         offset="2.608695652173913%"
         stop-opacity="1"
         style="stop-color:rgb(179,255,171)"
         id="stop2-6" />
      <stop
         offset="98.69565217391305%"
         stop-opacity="1"
         style="stop-color:rgb(18,255,247)"
         id="stop4-7" />
    </linearGradient>
    <linearGradient
       inkscape:collect="always"
       xlink:href="#_lgradient_1"
       id="linearGradient15"
       x1="-9.6850061"
       y1="45.161198"
       x2="11.98815"
       y2="21.735205"
       gradientUnits="userSpaceOnUse"
       gradientTransform="matrix(1.1147442,0,0,1.1150348,-0.01237238,-3.3277956)" />
    <linearGradient
       inkscape:collect="always"
       xlink:href="#_lgradient_1"
       id="linearGradient860"
       x1="12.913029"
       y1="22.933458"
       x2="36.971909"
       y2="22.933458"
       gradientUnits="userSpaceOnUse" />
  </defs>
  <sodipodi:namedview
     id="namedview11"
     pagecolor="#ffffff"
     bordercolor="#666666"
     borderopacity="1.0"
     inkscape:pageshadow="2"
     inkscape:pageopacity="0.0"
     inkscape:pagecheckerboard="0"
     inkscape:document-units="pt"
     showgrid="false"
     inkscape:zoom="10.21875"
     inkscape:cx="31.95107"
     inkscape:cy="32"
     inkscape:window-width="1600"
     inkscape:window-height="836"
     inkscape:window-x="0"
     inkscape:window-y="0"
     inkscape:window-maximized="1"
     inkscape:current-layer="svg9" />
  <linearGradient
     id="_lgradient_1"
     x1="0.038573404925678845"
     y1="0.12255840345239852"
     x2="0.9046571774109027"
     y2="0.9051506286909934"
     gradientTransform="matrix(-24.058858,0,0,24.674624,36.971891,10.596145)"
     gradientUnits="userSpaceOnUse">
    <stop
       offset="2.608695652173913%"
       stop-opacity="1"
       style="stop-color:rgb(179,255,171)"
       id="stop2" />
    <stop
       offset="98.69565217391305%"
       stop-opacity="1"
       style="stop-color:rgb(18,255,247)"
       id="stop4" />
  </linearGradient>
  <rect
     x="-46.783188"
     y="1.2253767"
     height="45.80014"
     rx="6.1837621"
     shape-rendering="crispEdges"
     id="rect5-6-7-3"
     ry="6.8055277"
     transform="matrix(0.00524063,-0.99998627,0.99998801,0.00489691,0,0)"
     style="isolation:isolate;fill:#00ffc3;fill-opacity:0.134703;stroke:url(#linearGradient872);stroke-width:2.0301;stroke-miterlimit:4;stroke-dasharray:none;stroke-opacity:1"
     width="45.801998" />
  <rect
     x="-15.686804"
     y="17.260084"
     height="33.345856"
     rx="6.7920032"
     shape-rendering="crispEdges"
     id="rect5-6-6-6-6"
     style="isolation:isolate;fill:#00ffc3;fill-opacity:0.134703;stroke:url(#linearGradient15);stroke-width:1.67233;stroke-miterlimit:4;stroke-dasharray:none;stroke-opacity:1"
     ry="7.4743071"
     transform="matrix(0.72446484,-0.68931175,0.68622417,0.72739012,0,0)"
     width="33.338203" />
  <path
     style="color:#000000;fill:url(#linearGradient860);fill-rule:evenodd;-inkscape-stroke:none"
     d="m 27.488281,10.095703 c -2.645292,0 -5.185806,1.052921 -7.060547,2.921875 v 0.002 h -0.002 c -1.868954,1.874741 -2.921875,4.415255 -2.921875,7.060547 0,2.645293 1.052921,5.185806 2.921875,7.060547 h 0.002 c 0.385325,0.384135 0.895334,0.575508 1.332032,0.888672 -0.501036,-0.114428 -1.025742,-0.06223 -1.392579,0.341797 l -3.99414,4.398437 c -0.05129,0.05523 -0.100393,0.07617 -0.177735,0.07617 -0.05215,0 -0.108036,-0.01885 -0.144531,-0.05078 v -0.002 l -0.662109,-0.574219 -0.0039,-0.002 c -0.03283,-0.02777 -0.04687,-0.05785 -0.04687,-0.107422 0,-0.03 0.0147,-0.06555 0.03906,-0.09766 L 19.375,27.607422 c 0.539131,-0.593791 0.496582,-1.527027 -0.09766,-2.066406 -0.593462,-0.538681 -1.525855,-0.495507 -2.066407,0.0957 l -3.998046,4.410156 c -0.518362,0.565273 -0.800782,1.302049 -0.800782,2.0625 0,0.891391 0.386287,1.743722 1.064454,2.324219 l 0.660156,0.572265 c 0.575321,0.49687 1.307494,0.765625 2.058593,0.765625 0.791511,0 1.525263,-0.334536 2.103516,-0.863281 h 0.08594 l 4.146484,-4.574219 c 0.457628,-0.504023 0.407091,-1.214928 0.04492,-1.759765 1.507063,0.870389 3.143799,1.490234 4.912109,1.490234 2.633416,0 5.161843,-1.042486 7.03125,-2.894531 1.870058,-1.852689 2.929979,-4.375024 2.953125,-7.007813 v -0.002 c 0.005,-0.80193 -0.651337,-1.466016 -1.453125,-1.472656 -0.619947,-0.0051 -1.059025,0.43593 -1.273437,0.984375 -0.03436,-0.615645 -0.173398,-1.188499 -0.359375,-1.777344 0.38605,0.482506 0.986102,0.766001 1.591797,0.53711 0.750899,-0.283766 1.135271,-1.135966 0.851562,-1.886719 l -0.002,-0.0039 -0.002,-0.0039 C 36.683666,16.177994 36.523343,15.81635 36.34375,15.46875 c -0.370335,-0.713328 -1.26471,-0.996396 -1.976563,-0.623047 -0.4965,0.260402 -0.674665,0.776142 -0.673828,1.304688 -0.300444,-0.473776 -0.72302,-0.833847 -1.117187,-1.222657 0.56423,0.242285 1.219683,0.214576 1.646484,-0.267578 0.53124,-0.600132 0.475286,-1.53113 -0.125,-2.0625 v -0.002 c -1.823359,-1.609188 -4.178032,-2.5 -6.609375,-2.5 z m 0,1 c 2.186899,0 4.306945,0.802351 5.947266,2.25 0.194715,0.172361 0.211556,0.457481 0.03906,0.652344 -0.172361,0.194715 -0.457479,0.211556 -0.652343,0.03906 -1.471085,-1.295258 -3.369798,-2.017578 -5.333985,-2.017578 -2.138233,0 -4.190404,0.849646 -5.697265,2.361328 -1.512906,1.507041 -2.363282,3.560064 -2.363282,5.699219 0,2.139156 0.850376,4.190225 2.363282,5.697266 1.506933,1.512172 3.558663,2.363281 5.697265,2.363281 2.127053,0 4.166935,-0.838814 5.673828,-2.339844 1.512678,-1.495088 2.36719,-3.529088 2.384766,-5.65625 0.0016,-0.260867 0.204088,-0.459191 0.464844,-0.457031 0.260407,0.0022 0.462554,0.206532 0.460937,0.466797 -0.02134,2.3696 -0.975122,4.639174 -2.65625,6.304687 -1.682239,1.666616 -3.958445,2.605469 -6.328125,2.605469 -2.379241,0 -4.665727,-0.948897 -6.353515,-2.630859 -1.682693,-1.687903 -2.63086,-3.973722 -2.63086,-6.353516 0,-2.379793 0.948167,-4.665614 2.63086,-6.353515 1.687788,-1.681962 3.974274,-2.63086 6.353515,-2.63086 z m -0.955078,2.683594 c 0.82048,-0.124157 1.66535,-0.0871 2.484375,0.115234 1.637592,0.405194 3.054486,1.448571 3.925781,2.892578 h 0.002 c 0.871329,1.443552 1.133187,3.184215 0.728516,4.822266 -0.405193,1.637592 -1.448571,3.056439 -2.892578,3.927734 -1.443552,0.871329 -3.184215,1.133187 -4.822266,0.728516 -0.679382,-0.168057 -1.330455,-0.444163 -1.916015,-0.824219 h -0.002 l -0.002,-0.002 c -0.154675,-0.09875 -0.19575,-0.289309 -0.0957,-0.445312 0.09971,-0.155131 0.294703,-0.197104 0.449219,-0.09961 h 0.002 c 0.530512,0.341577 1.113376,0.590359 1.720703,0.740235 1.473711,0.364361 3.033395,0.129706 4.332032,-0.654297 1.298542,-0.783947 2.231875,-2.053965 2.595703,-3.527344 0.364362,-1.473711 0.129706,-3.033394 -0.654297,-4.332031 -0.783946,-1.298543 -2.053965,-2.231876 -3.527344,-2.595703 -1.473711,-0.364363 -3.033394,-0.129706 -4.332031,0.654297 -1.298542,0.783945 -2.233829,2.053964 -2.597656,3.527343 -0.107489,0.434187 -0.16108,0.877684 -0.166016,1.320313 -0.0025,0.184695 -0.144775,0.32601 -0.330078,0.324218 -0.185229,-0.002 -0.320787,-0.142226 -0.31836,-0.326171 v -0.002 -0.002 c 0.002,-0.496102 0.06457,-0.989519 0.183594,-1.470703 0.405194,-1.637592 1.450524,-3.056438 2.894531,-3.927734 0.721776,-0.435664 1.517411,-0.719593 2.337891,-0.84375 z m 0.246094,1.630859 c 0.60779,-0.09172 1.233315,-0.0645 1.841797,0.08594 1.216196,0.30032 2.2655,1.071523 2.912109,2.142578 0.646552,1.07096 0.839946,2.357254 0.539063,3.574219 -0.30032,1.216195 -1.071523,2.265499 -2.142579,2.912109 -1.070959,0.646552 -2.359207,0.839946 -3.576171,0.539062 -0.501568,-0.123776 -0.98321,-0.329946 -1.419922,-0.611328 -0.611589,-0.391346 -1.439542,-0.210245 -1.832032,0.400391 -0.179233,0.279476 -0.207117,0.606249 -0.160156,0.914062 -0.13645,-0.117296 -0.31552,-0.168538 -0.443359,-0.296875 h -0.002 c -0.148069,-0.147494 -0.208455,-0.352836 -0.341797,-0.511718 0.306297,0.04952 0.629625,0.02519 0.910156,-0.150391 0.615606,-0.385301 0.806067,-1.211849 0.419922,-1.826172 -0.108718,-0.172937 -0.203308,-0.340969 -0.283203,-0.519531 v -0.002 l -0.002,-0.0039 c -0.302485,-0.659485 -1.097299,-0.948082 -1.75586,-0.644532 -0.296041,0.136635 -0.489648,0.391977 -0.617187,0.669922 C 20.720368,21.729458 20.661076,21.367457 20.611328,21 c 0.227339,0.192786 0.496673,0.348108 0.814453,0.351562 0.725151,0.007 1.330202,-0.584788 1.339844,-1.310546 0.004,-0.369322 0.04864,-0.737972 0.136719,-1.09375 0.30032,-1.216196 1.073477,-2.265501 2.144531,-2.91211 0.53548,-0.323276 1.124632,-0.533275 1.732422,-0.625 z m 8.052734,0.320313 c 0.231589,-0.121463 0.501868,-0.03614 0.623047,0.197265 0.160353,0.310361 0.307649,0.639016 0.439453,0.970703 0.09235,0.244368 -0.02531,0.505365 -0.269531,0.597657 -0.244368,0.09235 -0.507319,-0.02531 -0.599609,-0.269532 v -0.002 c -0.110668,-0.291233 -0.239073,-0.583706 -0.386719,-0.867187 v -0.002 h -0.002 c -0.121986,-0.230238 -0.03709,-0.50311 0.195312,-0.625 z m -12.970703,6.589843 c 0.171622,-0.07911 0.353915,-0.01091 0.429688,0.154297 0.102202,0.227805 0.218772,0.438718 0.345703,0.640625 0.09767,0.155385 0.05388,0.346798 -0.103516,0.445313 -0.156674,0.09806 -0.348722,0.05301 -0.447266,-0.105469 l -0.002,-0.002 -0.002,-0.0039 C 21.941454,23.230654 21.81583,22.996358 21.701172,22.75 c -0.07781,-0.167653 -0.0095,-0.351402 0.160156,-0.429688 z m -0.625,1.664063 c 3.01e-4,4.84e-4 0.0017,-4.84e-4 0.002,0 0.0011,0.0017 8.4e-4,0.0041 0.002,0.0059 z m -2.630859,2.296875 c 0.19197,0.174248 0.205993,0.459686 0.0293,0.654297 l -3.847657,4.240234 h -0.01367 l -0.150391,0.171875 c -0.179224,0.207529 -0.285156,0.475837 -0.285156,0.761719 0,0.335283 0.149276,0.656961 0.402343,0.871094 l 0.654297,0.568359 c 0.22708,0.197815 0.512908,0.296875 0.800781,0.296875 0.340498,0 0.675552,-0.141879 0.910157,-0.394531 l 0.002,-0.0039 4,-4.404297 c 0.176809,-0.194733 0.462503,-0.209246 0.654297,-0.03516 0.19197,0.174249 0.205992,0.459689 0.0293,0.654297 l -3.84961,4.246094 h -0.0039 l -0.148438,0.162109 c -0.404427,0.444426 -0.985741,0.701172 -1.59375,0.701172 -0.513419,0 -1.011986,-0.18267 -1.404296,-0.521484 l -0.66211,-0.574219 c -0.453079,-0.387097 -0.716797,-0.963299 -0.716797,-1.566406 0,-0.514193 0.189888,-1.008557 0.539063,-1.388672 h 0.002 l 3.998047,-4.410156 c 0.175419,-0.190077 0.462129,-0.203726 0.654297,-0.0293 z"
     id="path7" />
</svg>
