<?xml version="1.0" encoding="UTF-8" standalone="no"?>
<!-- Generator: Gravit.io -->

<svg
   style="isolation:isolate"
   viewBox="0 0 48 48"
   width="48pt"
   height="48pt"
   version="1.1"
   id="svg32"
   sodipodi:docname="playonlinux.svg"
   inkscape:version="1.1.2 (0a00cf5339, 2022-02-04)"
   xmlns:inkscape="http://www.inkscape.org/namespaces/inkscape"
   xmlns:sodipodi="http://sodipodi.sourceforge.net/DTD/sodipodi-0.dtd"
   xmlns:xlink="http://www.w3.org/1999/xlink"
   xmlns="http://www.w3.org/2000/svg"
   xmlns:svg="http://www.w3.org/2000/svg">
  <defs
     id="defs36">
    <linearGradient
       inkscape:collect="always"
       xlink:href="#_lgradient_13"
       id="linearGradient872"
       x1="-12.025727"
       y1="6.1170783"
       x2="-0.085100174"
       y2="6.1170783"
       gradientUnits="userSpaceOnUse"
       gradientTransform="matrix(3.8358211,0,0,3.8371386,-0.00544341,-0.00268054)" />
    <linearGradient
       id="_lgradient_1"
       x1="0.18336116"
       y1="0.24917752"
       x2="0.9027437"
       y2="0.90347725"
       gradientTransform="matrix(24.617266,0,0,24.816118,10.841288,10.089605)"
       gradientUnits="userSpaceOnUse">
      <stop
         offset="2.608695652173913%"
         stop-opacity="1"
         style="stop-color:rgb(179,255,171)"
         id="stop2-3" />
      <stop
         offset="98.69565217391305%"
         stop-opacity="1"
         style="stop-color:rgb(18,255,247)"
         id="stop4-6" />
    </linearGradient>
    <linearGradient
       inkscape:collect="always"
       xlink:href="#_lgradient_13"
       id="linearGradient15"
       x1="-9.6850061"
       y1="45.161198"
       x2="11.98815"
       y2="21.735205"
       gradientUnits="userSpaceOnUse"
       gradientTransform="matrix(1.1147442,0,0,1.1150348,-0.01237238,-3.3277956)" />
    <linearGradient
       inkscape:collect="always"
       xlink:href="#_lgradient_10"
       id="linearGradient1117"
       x1="31.779297"
       y1="38.608471"
       x2="51.224724"
       y2="38.608471"
       gradientUnits="userSpaceOnUse" />
    <linearGradient
       inkscape:collect="always"
       xlink:href="#_lgradient_11"
       id="linearGradient1147"
       x1="28.740234"
       y1="23.18457"
       x2="48.189453"
       y2="23.18457"
       gradientUnits="userSpaceOnUse" />
    <linearGradient
       inkscape:collect="always"
       xlink:href="#_lgradient_12"
       id="linearGradient1177"
       x1="12.775283"
       y1="25.707031"
       x2="33.478516"
       y2="25.707031"
       gradientUnits="userSpaceOnUse" />
    <linearGradient
       inkscape:collect="always"
       xlink:href="#_lgradient_13"
       id="linearGradient1207"
       x1="11.926377"
       y1="30.638678"
       x2="26.85895"
       y2="30.638678"
       gradientUnits="userSpaceOnUse" />
  </defs>
  <sodipodi:namedview
     id="namedview34"
     pagecolor="#ffffff"
     bordercolor="#666666"
     borderopacity="1.0"
     inkscape:pageshadow="2"
     inkscape:pageopacity="0.0"
     inkscape:pagecheckerboard="0"
     inkscape:document-units="pt"
     showgrid="false"
     inkscape:zoom="10.21875"
     inkscape:cx="31.95107"
     inkscape:cy="24.171254"
     inkscape:window-width="1600"
     inkscape:window-height="836"
     inkscape:window-x="0"
     inkscape:window-y="0"
     inkscape:window-maximized="1"
     inkscape:current-layer="svg32" />
  <linearGradient
     id="_lgradient_10"
     x1="0"
     y1="0.5"
     x2="1"
     y2="0.5"
     gradientTransform="matrix(15.661856,0,0,15.026205,22.756908,21.298191)"
     gradientUnits="userSpaceOnUse">
    <stop
       offset="0%"
       stop-opacity="1"
       style="stop-color:rgb(247,242,6)"
       id="stop2" />
    <stop
       offset="97.82608695652173%"
       stop-opacity="1"
       style="stop-color:rgb(255,187,36)"
       id="stop4" />
  </linearGradient>
  <rect
     x="-46.783188"
     y="1.2253767"
     height="45.80014"
     rx="6.1837621"
     shape-rendering="crispEdges"
     id="rect5-6-7-3"
     ry="6.8055277"
     transform="matrix(0.00524063,-0.99998627,0.99998801,0.00489691,0,0)"
     style="isolation:isolate;fill:#00c4ff;fill-opacity:0.13470298;stroke:url(#linearGradient872);stroke-width:2.0301;stroke-miterlimit:4;stroke-dasharray:none;stroke-opacity:1"
     width="45.801998" />
  <rect
     x="-15.686804"
     y="17.260084"
     height="33.345856"
     rx="6.7920032"
     shape-rendering="crispEdges"
     id="rect5-6-6-6-6"
     style="isolation:isolate;fill:#00c4ff;fill-opacity:0.13470298;stroke:url(#linearGradient15);stroke-width:1.67233;stroke-miterlimit:4;stroke-dasharray:none;stroke-opacity:1"
     ry="7.4743071"
     transform="matrix(0.72446484,-0.68931175,0.68622417,0.72739012,0,0)"
     width="33.338203" />
  <path
     style="fill:url(#_lgradient_10);stroke-width:0.626875"
     d="M 35.891832,31.296851"
     id="path980" />
  <path
     style="color:#000000;fill:url(#linearGradient1117);-inkscape-stroke:none"
     d="m 44.871094,28.056641 -0.257813,0.240234 c -0.558797,0.520327 -1.156638,0.991994 -1.792969,1.40625 l -0.0059,0.0039 -0.0059,0.0039 c -0.80936,0.550154 -1.662164,1.031834 -2.548828,1.449219 l 0.314453,1.269531 c 2.305197,-0.110688 4.459634,0.29197 5.609375,1.066407 0.57487,0.387218 0.893852,0.822459 0.996093,1.359375 0.102242,0.536915 -0.01409,1.244215 -0.550781,2.173828 h 0.002 c -0.87149,1.506223 -1.663677,1.946292 -2.335937,2.023437 l -0.890625,0.101563 0.355469,0.824219 c 0.268752,0.622791 0.281132,1.52644 -0.585938,3.03125 -0.461497,0.800024 -0.945403,1.181172 -1.421875,1.333984 -0.476472,0.152812 -1.004633,0.09662 -1.617187,-0.185547 -1.22511,-0.564329 -2.653708,-2.080013 -3.75,-3.988281 l -1.244141,0.345703 c 0.0026,0.130921 0.0039,0.262338 0.0039,0.394531 v 0.002 0.0039 c 0.0081,1.028347 -0.081,2.056922 -0.265625,3.068359 v 0.0039 0.0039 c -0.06974,0.408502 -0.163039,0.810647 -0.27539,1.208985 l -0.101563,0.363281 0.257813,0.273438 c 0.424577,0.453203 0.877777,0.878441 1.357421,1.271484 0.663939,0.546988 1.39827,1.003225 2.179688,1.353516 l 0.002,0.002 c 0.908148,0.403621 1.891603,0.623534 2.888672,0.632812 h 0.002 c 1.3062,0.0093 2.583786,-0.381064 3.658203,-1.11914 h 0.002 l 0.002,-0.002 c 0.995212,-0.693908 1.806078,-1.607869 2.388672,-2.662109 0.398502,-0.675245 0.718365,-1.390432 0.964844,-2.138672 l 0.002,-0.0059 0.002,-0.0039 c 0.113374,-0.362793 0.192403,-0.746514 0.257813,-1.13086 0.893426,-0.770119 1.670571,-1.670181 2.236328,-2.707031 0.348878,-0.593183 0.625205,-1.225364 0.830078,-1.875 0.229484,-0.715983 0.348205,-1.460215 0.357422,-2.203125 v -0.002 -0.002 c 0.0093,-1.472668 -0.483857,-2.902466 -1.386719,-4.056641 l -0.0039,-0.0059 -0.0039,-0.0039 c -0.77604,-0.958636 -1.76841,-1.7254 -2.890625,-2.236328 -0.765996,-0.354635 -1.570243,-0.623038 -2.390625,-0.808593 z m 0.326172,1.472656 c 0.635193,0.161313 1.261734,0.353488 1.851562,0.626953 h 0.002 l 0.0039,0.002 c 0.932251,0.42444 1.757972,1.062809 2.402344,1.857422 0.71588,0.917725 1.108944,2.056459 1.101563,3.222656 -0.0079,0.609866 -0.10688,1.22191 -0.294922,1.808594 v 0.002 h -0.002 c -0.177792,0.564291 -0.416439,1.110241 -0.714844,1.615234 l -0.0059,0.0098 -0.0059,0.01172 c -0.519254,0.953256 -1.216068,1.798805 -2.052734,2.488281 l -0.02539,0.01953 -0.02148,0.02344 c 0.07506,-0.07506 0.05778,-0.06756 -0.05078,0.04102 l -0.158204,0.15625 -0.03125,0.222657 c -0.05254,0.375322 -0.144195,0.758774 -0.259765,1.128906 -1.9e-4,6.08e-4 1.9e-4,0.0013 0,0.002 -0.219539,0.664178 -0.501174,1.292391 -0.84961,1.880859 l -0.0039,0.0098 -0.0059,0.0078 c -0.486841,0.882399 -1.161507,1.639458 -1.986328,2.214843 -4.04e-4,2.82e-4 4.03e-4,0.0017 0,0.002 -0.846737,0.580575 -1.858628,0.889794 -2.890625,0.882813 -0.808332,-0.0075 -1.610615,-0.187617 -2.357422,-0.519531 -0.671207,-0.301152 -1.30705,-0.694621 -1.878906,-1.166016 v -0.002 h -0.002 c -0.346455,-0.283901 -0.664771,-0.600085 -0.980468,-0.919922 0.07755,-0.312338 0.156592,-0.625054 0.210937,-0.943359 0.110187,-0.605169 0.111862,-1.221354 0.158203,-1.833985 0.972795,1.307908 2.036286,2.439098 3.228516,2.988282 0.828647,0.381704 1.728786,0.517164 2.580078,0.24414 0.851293,-0.273023 1.59452,-0.934677 2.171875,-1.935547 v -0.002 c 0.819108,-1.420765 0.933582,-2.57788 0.730469,-3.5625 0.95552,-0.315704 1.900662,-0.995338 2.722656,-2.416015 h 0.002 c 0.643484,-1.114593 0.882598,-2.157606 0.705078,-3.089844 -0.177519,-0.932238 -0.773133,-1.686415 -1.560547,-2.216797 -1.062172,-0.715453 -2.534013,-1.016721 -4.107421,-1.160156 0.236576,-0.146058 0.494059,-0.253691 0.724609,-0.410157 l 0.0059,-0.0039 c 0.584794,-0.381122 1.121896,-0.826729 1.644532,-1.287109 z m -11.13086,0.121094 -0.626953,0.0059 c -0.0012,1.1e-5 -0.02058,-7.02e-4 -0.05859,0 -0.542625,0.01001 -1.085338,0.08778 -1.578125,0.351562 l -0.167968,0.08984 -0.765625,1.328125 2.310546,1.330078 0.972657,-1.693359 -0.0078,-0.189453 c -0.0073,-0.205942 -0.02146,-0.404776 -0.03516,-0.597656 z m 14.310547,12.507812 -0.04687,0.04297 c 0.0051,-0.0042 0.0067,-0.01144 0.01172,-0.01563 -0.01123,0.01412 -0.03886,0.04667 0.03516,-0.02734 z"
     id="path978"
     transform="scale(0.75)" />
  <linearGradient
     id="_lgradient_11"
     x1="0"
     y1="0.5"
     x2="1"
     y2="0.5"
     gradientTransform="matrix(14.870113,0,0,15.490092,21.272467,9.6571139)"
     gradientUnits="userSpaceOnUse">
    <stop
       offset="0%"
       stop-opacity="1"
       style="stop-color:rgb(255,229,59)"
       id="stop9" />
    <stop
       offset="98.69565217391305%"
       stop-opacity="1"
       style="stop-color:rgb(255,0,91)"
       id="stop11" />
  </linearGradient>
  <path
     style="fill:url(#_lgradient_11);stroke-width:0.626875"
     d="M 31.171461,12.145816"
     id="path953" />
  <path
     style="fill:url(#_lgradient_11);stroke-width:0.626875"
     d="m 23.047155,22.119405 -0.520307,0.946582 c -0.03761,-0.07522 0.526576,-0.846282 0.520307,-0.946582 z"
     id="path951" />
  <path
     style="color:#000000;fill:url(#linearGradient1147);-inkscape-stroke:none"
     d="m 35.150391,12.210938 c -1.459223,0 -2.881742,0.481299 -4.029297,1.376953 l -0.0059,0.0039 -0.0059,0.0059 c -0.943461,0.771098 -1.710619,1.746328 -2.214844,2.871094 -2.58e-4,5.63e-4 2.59e-4,0.0014 0,0.002 -0.352117,0.76793 -0.622954,1.56957 -0.804687,2.392578 l -0.07422,0.335938 0.228516,0.253906 c 0.163943,0.181988 0.323053,0.364189 0.470703,0.546875 0.476935,0.606808 0.918291,1.231606 1.308593,1.884766 0.414575,0.693695 0.785909,1.410381 1.115235,2.146484 l 1.27539,-0.316406 c -0.12377,-1.870869 0.07587,-3.667218 0.56836,-4.921875 0.492484,-1.254658 1.149432,-1.889846 2.111328,-1.90625 0.472587,-0.0081 1.074307,0.149182 1.810547,0.574218 v -0.002 c 1.481069,0.857217 1.908044,1.630912 1.984375,2.291016 l 0.103515,0.890625 0.822266,-0.355469 c 0.607474,-0.262345 1.495622,-0.275904 2.976563,0.578125 1.164392,0.671587 1.453202,1.327464 1.378906,2.101563 -0.0743,0.774098 -0.653128,1.759731 -1.638672,2.705078 -1.971088,1.890693 -5.455148,3.564035 -8.445313,3.820312 -0.207465,0.01794 -0.417284,0.02931 -0.621093,0.0332 h -0.03906 l -0.699219,0.09961 0.04687,0.623047 c 0.01257,0.166433 0.02119,0.327893 0.0293,0.490234 l -0.779297,1.355469 1.261719,0.724609 c 0.160704,0.308572 0.31596,0.621038 0.457031,0.94336 l 0.201172,0.457031 0.496094,-0.06445 c 0.0045,-5.87e-4 0.05178,-0.0063 0.08008,-0.0098 l 0.0078,-0.002 c 1.645817,-0.156662 3.259734,-0.536304 4.794922,-1.134766 1.488808,-0.560103 2.909593,-1.293784 4.228515,-2.189453 1.303945,-0.84959 2.468538,-1.907449 3.447266,-3.130859 l 0.002,-0.002 c 0.510486,-0.644823 0.940171,-1.356483 1.265625,-2.115235 0.377096,-0.873759 0.580559,-1.814002 0.589844,-2.765625 v -0.002 -0.0039 c 0,-1.295698 -0.391573,-2.555185 -1.117188,-3.625 l -0.002,-0.002 -0.002,-0.0039 C 47.049663,18.180031 46.145586,17.369109 45.095703,16.792969 44.424055,16.404943 43.716842,16.083292 42.980469,15.84375 h -0.002 -0.002 c -0.355643,-0.113503 -0.731693,-0.194071 -1.109375,-0.259766 -0.765084,-0.876157 -1.645431,-1.634464 -2.666015,-2.195312 -0.589623,-0.338626 -1.210653,-0.615139 -1.84961,-0.828125 l -0.0059,-0.002 -0.0059,-0.002 C 36.633837,12.336588 35.892638,12.22012 35.158203,12.210938 h -0.0039 z m -0.0039,1.332031 c 0.600402,0.0079 1.212154,0.107084 1.791016,0.287109 0.0012,3.83e-4 0.0027,-3.83e-4 0.0039,0 0.557196,0.18656 1.098055,0.426602 1.605469,0.71875 l 0.0059,0.0039 0.0059,0.002 c 0.948156,0.520707 1.776091,1.200852 2.466797,2.031249 l -0.08398,-0.126953 c 0.04233,0.08426 0.114223,0.172882 0.150391,0.208985 l 0.15625,0.15625 0.220703,0.03125 c 0.365203,0.05217 0.736341,0.142693 1.097656,0.257812 0.647771,0.21072 1.274982,0.49082 1.871094,0.835938 l 0.0059,0.0039 0.0078,0.0039 c 0.86963,0.476406 1.619716,1.151901 2.1875,1.96875 0.576329,0.851259 0.884383,1.843376 0.884765,2.869141 -0.008,0.7689 -0.172693,1.532954 -0.480468,2.246094 h -0.002 v 0.002 c -0.276221,0.644514 -0.646081,1.254425 -1.087891,1.8125 -0.892014,1.114549 -1.948626,2.076743 -3.132813,2.847656 l -0.0059,0.0039 -0.0059,0.0039 c -1.234264,0.838978 -2.56543,1.523771 -3.962891,2.048829 l -0.0039,0.002 -0.0039,0.002 c -1.314396,0.512391 -2.701305,0.809975 -4.109375,0.972656 -0.112446,-0.23759 -0.217963,-0.477121 -0.34375,-0.710937 l -0.0918,-0.166016 -0.449219,-0.259766 0.308594,-0.537109 -0.0078,-0.189453 c -6.1e-4,-0.01725 -0.0032,-0.03358 -0.0039,-0.05078 0.01967,-0.0016 0.03892,-0.0022 0.05859,-0.0039 3.378048,-0.289521 7.012538,-2.035597 9.253906,-4.185547 1.120684,-1.074974 1.920584,-2.26588 2.042969,-3.541015 0.122384,-1.275135 -0.574897,-2.541405 -2.03711,-3.384766 -1.396629,-0.805408 -2.538216,-0.920322 -3.509765,-0.722656 -0.313294,-0.939606 -0.980965,-1.869761 -2.376953,-2.677734 v -0.002 c -0.886033,-0.511512 -1.72186,-0.763304 -2.501954,-0.749999 -1.587571,0.02707 -2.726695,1.217793 -3.328125,2.749999 -0.328964,0.838073 -0.513837,1.813208 -0.611328,2.84375 -0.418564,-0.694133 -0.881186,-1.35274 -1.375,-1.980468 l -0.002,-0.0039 -0.0039,-0.0039 c -0.08552,-0.105814 -0.1726,-0.201844 -0.259766,-0.302734 0.157647,-0.62493 0.34536,-1.245657 0.615235,-1.833985 l 0.002,-0.002 0.002,-0.0039 c 0.414271,-0.92646 1.049176,-1.735237 1.839844,-2.382812 0.906411,-0.704906 2.036312,-1.090938 3.197265,-1.091797 z"
     id="path949"
     transform="scale(0.75)" />
  <linearGradient
     id="_lgradient_12"
     x1="0.39980158730156745"
     y1="0.20242151662881497"
     x2="0.36506834215163786"
     y2="1.11853149718325"
     gradientTransform="matrix(15.527705,0,0,15.039369,9.5818665,11.957747)"
     gradientUnits="userSpaceOnUse">
    <stop
       offset="0%"
       stop-opacity="1"
       style="stop-color:rgb(67,233,123)"
       id="stop16" />
    <stop
       offset="97.82608695652173%"
       stop-opacity="1"
       style="stop-color:rgb(56,249,215)"
       id="stop18" />
  </linearGradient>
  <path
     style="fill:url(#_lgradient_12);stroke-width:0.626875"
     d="M 12.014143,17.154544"
     id="path924" />
  <path
     style="color:#000000;fill:url(#linearGradient1177);-inkscape-stroke:none"
     d="m 22.888672,15.277344 c -1.367831,0 -2.706545,0.42643 -3.816406,1.228515 l -0.002,0.002 -0.0039,0.002 c -1.002069,0.740267 -1.833549,1.689915 -2.439453,2.78125 -4.28e-4,7.48e-4 -0.0015,0.0012 -0.002,0.002 -0.388011,0.679347 -0.708643,1.390211 -0.949219,2.138672 -0.125098,0.376896 -0.198895,0.756288 -0.265625,1.130859 -0.872586,0.758636 -1.629174,1.639806 -2.191406,2.644531 -0.690083,1.148463 -1.072891,2.451537 -1.109375,3.783203 v 0.0059 0.0078 c -0.0093,1.535093 0.52052,3.027229 1.509766,4.203125 0.80117,0.946839 1.813133,1.702388 2.951171,2.203125 0.647262,0.292149 1.312227,0.524676 1.986329,0.705078 l 0.359375,0.0957 0.269531,-0.255859 c 0.244124,-0.229917 0.490529,-0.447551 0.742187,-0.650391 l 0.002,-0.002 c 0.594053,-0.473477 1.219177,-0.905166 1.875,-1.289062 l 0.0039,-0.002 0.002,-0.002 c 0.454426,-0.272112 0.919522,-0.526916 1.394531,-0.763672 l -0.291016,-1.261719 c -2.150192,-0.01905 -4.113197,-0.507576 -5.169921,-1.277344 -0.528363,-0.384884 -0.825351,-0.805803 -0.923829,-1.287109 -0.09848,-0.481306 -0.0078,-1.080818 0.445313,-1.865235 h -0.002 c 0.865785,-1.496438 1.650776,-1.934078 2.318359,-2.011718 l 0.892578,-0.103516 -0.357422,-0.824219 c -0.267289,-0.617153 -0.280926,-1.514693 0.582032,-3.013672 v -0.002 c 0.750173,-1.298467 1.476829,-1.672083 2.230468,-1.65039 1.198809,0.03451 2.850844,1.416501 4.144532,3.52539 1.293687,2.108889 2.241574,4.846989 2.376953,7.173828 l 0.03906,0.671875 0.671875,-0.04492 c 0.133324,-0.009 0.268746,-0.01404 0.404297,-0.01953 l 2.613281,1.5 0.972657,-1.693359 -0.0078,-0.189453 c -0.06073,-1.717807 -0.364726,-3.417776 -0.902344,-5.056641 -0.508643,-1.610333 -1.204694,-3.160287 -2.074218,-4.615234 -0.427154,-0.714829 -0.905089,-1.388687 -1.41211,-2.033203 l -0.002,-0.0039 -0.0039,-0.0039 c -0.516,-0.638442 -1.083087,-1.234442 -1.707031,-1.779297 -0.659366,-0.578073 -1.39701,-1.052319 -2.183594,-1.427734 h -0.002 l -0.002,-0.002 C 24.93201,15.517145 23.918944,15.286619 22.894531,15.277344 h -0.002 z m -0.0059,1.332031 h 0.002 c 0.830489,0.0078 1.656665,0.197441 2.404296,0.548828 0.682961,0.326371 1.315134,0.735721 1.875,1.226563 0.562937,0.49158 1.080501,1.033359 1.550782,1.615234 0.476935,0.606808 0.918291,1.231606 1.308593,1.884766 0.817665,1.368172 1.471758,2.826537 1.949219,4.339843 l 0.002,0.0039 0.002,0.002 c 0.482407,1.47056 0.739854,2.996495 0.808594,4.535156 l -0.09766,0.169922 -1.789063,-1.027344 -0.1875,0.0059 c -0.01996,6.12e-4 -0.04054,0.0013 -0.06055,0.002 -0.265881,-2.439717 -1.148566,-5.031164 -2.441407,-7.138672 -1.407443,-2.294326 -3.195413,-4.101299 -5.240234,-4.160157 -1.286479,-0.03703 -2.524877,0.756121 -3.425781,2.316407 v 0.002 c -0.814555,1.414096 -0.928373,2.566668 -0.726563,3.546875 -0.949751,0.316042 -1.888763,0.993365 -2.705078,2.404297 h -0.002 c -0.567589,0.982554 -0.770092,1.938918 -0.59375,2.800781 0.176342,0.861863 0.721508,1.571826 1.443359,2.097656 0.988509,0.720077 2.371849,1.078772 3.859375,1.292969 -0.594676,0.366741 -1.179557,0.750582 -1.722656,1.183594 v 0.002 h -0.002 c -0.178306,0.143635 -0.343272,0.298082 -0.511719,0.449219 -0.499389,-0.148039 -0.994302,-0.304998 -1.46875,-0.519532 l -0.0039,-0.002 h -0.0039 c -0.951544,-0.418679 -1.796901,-1.052054 -2.466797,-1.84375 -0.780978,-0.928332 -1.200803,-2.107868 -1.195313,-3.328125 0.03129,-1.102423 0.346877,-2.183433 0.921875,-3.136719 l 0.0059,-0.0098 0.0059,-0.0098 c 0.521086,-0.93329 1.204196,-1.761611 2.025391,-2.443359 l -0.126953,0.08203 c 0.158368,-0.07956 0.18001,-0.121471 0.214843,-0.15625 l 0.154297,-0.154297 0.0332,-0.21289 c 0.06304,-0.394009 0.147438,-0.778248 0.265625,-1.132813 v -0.0039 l 0.002,-0.0039 c 0.210509,-0.654918 0.490945,-1.279564 0.837891,-1.886719 l 0.002,-0.0039 0.0039,-0.0039 c 0.513262,-0.926936 1.218517,-1.729113 2.06836,-2.357422 7.47e-4,-5.52e-4 0.0012,-0.0014 0.002,-0.002 0.876745,-0.631762 1.938315,-0.97339 3.023437,-0.974609 z"
     id="path922"
     transform="scale(0.75)" />
  <linearGradient
     id="_lgradient_13"
     x1="0"
     y1="0.5"
     x2="1"
     y2="0.5"
     gradientTransform="matrix(14.9328,0,0,15.408599,11.926381,22.934336)"
     gradientUnits="userSpaceOnUse">
    <stop
       offset="0%"
       stop-opacity="1"
       style="stop-color:rgb(84,51,255)"
       id="stop23" />
    <stop
       offset="51.73913043478261%"
       stop-opacity="1"
       style="stop-color:rgb(32,189,255)"
       id="stop25" />
    <stop
       offset="98.26086956521739%"
       stop-opacity="1"
       style="stop-color:rgb(165,254,203)"
       id="stop27" />
  </linearGradient>
  <path
     style="color:#000000;fill:url(#linearGradient1207);fill-rule:evenodd;-inkscape-stroke:none"
     d="m 23.03125,22.435547 c -1.274646,0.03902 -2.540967,0.265973 -3.75,0.667969 -1.203774,0.375369 -2.35403,0.89823 -3.431641,1.542968 -0.535833,0.313658 -1.045823,0.666867 -1.527343,1.050782 h -0.002 c -0.473702,0.381592 -0.919678,0.809497 -1.322266,1.271484 l -0.002,0.002 c -0.422887,0.490011 -0.780065,1.035162 -1.056641,1.621094 -2.78e-4,5.79e-4 2.78e-4,0.0014 0,0.002 -3.86e-4,8.18e-4 -0.0016,0.0011 -0.002,0.002 -0.331719,0.692552 -0.504779,1.448358 -0.511719,2.214844 v 0.002 0.002 c 0,1.022543 0.329584,2.018447 0.921875,2.847656 l 0.002,0.0039 0.002,0.002 c 0.550074,0.747014 1.26196,1.369619 2.076171,1.818359 0.504167,0.291405 1.035086,0.53111 1.587891,0.710938 l 0.002,0.002 c 0.272114,0.08684 0.553233,0.14209 0.833984,0.189453 0.564941,0.647839 1.2159,1.212635 1.960938,1.626953 0.854141,0.5105 1.823492,0.798803 2.822266,0.826172 l 0.0059,0.002 h 0.0059 c 1.145893,0.007 2.256302,-0.391319 3.136719,-1.125 l 0.0039,-0.0039 0.002,-0.002 c 0.702108,-0.599859 1.258211,-1.353326 1.632813,-2.195313 v -0.002 c 0.344587,-0.749233 0.584152,-1.540185 0.722656,-2.349609 v -0.0039 c 0.149268,-0.81911 0.221253,-1.650696 0.214844,-2.482422 -1.4e-4,-1.131285 -0.123527,-2.266451 -0.369141,-3.373046 -0.241821,-1.150287 -0.645912,-2.25498 -1.201172,-3.28711 l -0.880859,0.47461 c 0.510428,0.948794 0.88145,1.963217 1.103516,3.019531 v 0.002 l 0.002,0.0039 c 0.230108,1.035488 0.345703,2.101269 0.345703,3.16211 v 0.002 0.002 c 0.0061,0.771126 -0.06072,1.544 -0.199219,2.302734 v 0.002 l -0.002,0.002 c -0.124769,0.730791 -0.338117,1.441561 -0.644531,2.107422 v 0.0039 l -0.002,0.002 c -0.314566,0.709202 -0.784622,1.344084 -1.371094,1.845703 -0.697612,0.579976 -1.577192,0.895107 -2.484375,0.890625 -0.826125,-0.02373 -1.628729,-0.26005 -2.337891,-0.685547 l -0.0078,-0.0059 -0.0078,-0.0039 C 18.617976,36.766702 18.009586,36.257955 17.5,35.648437 l -0.08984,-0.177734 -0.259765,-0.03711 c -0.280767,-0.04011 -0.561933,-0.102546 -0.828125,-0.1875 -0.484982,-0.157961 -0.954044,-0.368541 -1.400391,-0.626953 l -0.0039,-0.002 -0.0059,-0.0039 c -0.687434,-0.378088 -1.289761,-0.905522 -1.753906,-1.535156 -0.471032,-0.661002 -0.731611,-1.454594 -0.732422,-2.259766 v -0.002 c 0,-6.3e-4 0,-0.0013 0,-0.002 0.0062,-0.622398 0.147706,-1.230084 0.416016,-1.789062 v -0.002 -0.002 c 0.237202,-0.50333 0.546081,-0.972357 0.912109,-1.396484 0.361361,-0.414545 0.763564,-0.801631 1.191407,-1.146484 l 0.002,-0.002 c 0.445617,-0.355132 0.91479,-0.679113 1.40625,-0.966796 l 0.002,-0.002 h 0.002 c 1.014629,-0.607562 2.094468,-1.099981 3.220703,-1.451171 h 0.0059 l 0.0039,-0.002 c 1.120083,-0.373361 2.295237,-0.584991 3.474609,-0.621093 z m 0.0918,2.503906 c -2.57874,0.05374 -5.565627,1.281809 -7.441406,2.892578 -0.93789,0.805385 -1.623645,1.719182 -1.732422,2.732422 -0.108777,1.01324 0.471598,2.021079 1.707031,2.734375 h 0.002 c 1.047771,0.602812 1.902711,0.689771 2.630859,0.541016 0.236036,0.70412 0.736744,1.401463 1.78125,2.005859 h 0.002 c 1.134194,0.65539 2.255686,0.602979 3.042968,-0.0059 0.787283,-0.608838 1.248119,-1.636009 1.50586,-2.832032 0.515482,-2.392045 0.202021,-5.540728 -1.044922,-7.810546 l -0.441406,0.24414 z m -0.322266,1.076172 c 0.964272,1.974219 1.279086,4.761115 0.84375,6.78125 -0.228635,1.060962 -0.655208,1.87505 -1.142578,2.251953 -0.48737,0.376903 -1.026539,0.453522 -1.929687,-0.06836 -1.109184,-0.641821 -1.433176,-1.221861 -1.490235,-1.714844 l -0.07617,-0.669922 -0.61914,0.267578 c -0.455899,0.197343 -1.118862,0.207899 -2.230469,-0.43164 v 0.002 c -1.027272,-0.593112 -1.278209,-1.155246 -1.212891,-1.763672 0.06532,-0.608426 0.561433,-1.368034 1.390625,-2.080078 1.57994,-1.356726 4.257115,-2.4291 6.466797,-2.574219 z m -6.08789,10.257812 c 0.0042,0.0051 0.0114,0.0067 0.01563,0.01172 0.0034,0.0037 0.0147,0.02251 0.01563,0.02344 z"
     id="path30" />
</svg>
