<?xml version="1.0" encoding="UTF-8" standalone="no"?>
<!-- Generator: Gravit.io -->

<svg
   style="isolation:isolate"
   viewBox="0 0 48 48"
   width="48pt"
   height="48pt"
   version="1.1"
   id="svg11"
   sodipodi:docname="preferences-desktop-keyboard.svg"
   inkscape:version="1.1.2 (0a00cf5339, 2022-02-04)"
   xmlns:inkscape="http://www.inkscape.org/namespaces/inkscape"
   xmlns:sodipodi="http://sodipodi.sourceforge.net/DTD/sodipodi-0.dtd"
   xmlns:xlink="http://www.w3.org/1999/xlink"
   xmlns="http://www.w3.org/2000/svg"
   xmlns:svg="http://www.w3.org/2000/svg">
  <defs
     id="defs15">
    <linearGradient
       inkscape:collect="always"
       xlink:href="#_lgradient_72"
       id="linearGradient872"
       x1="-12.025727"
       y1="6.1170783"
       x2="-0.085100174"
       y2="6.1170783"
       gradientUnits="userSpaceOnUse"
       gradientTransform="matrix(3.8358211,0,0,3.8371386,-0.00544341,-0.00268054)" />
    <linearGradient
       id="_lgradient_21"
       x1="0"
       y1="0.5"
       x2="1"
       y2="0.5"
       gradientTransform="matrix(28.183272,0,0,28.298876,9.8766106,9.8505561)"
       gradientUnits="userSpaceOnUse">
      <stop
         offset="0%"
         stop-opacity="1"
         style="stop-color:rgb(255,224,49)"
         id="stop2-3" />
      <stop
         offset="98.69565217391305%"
         stop-opacity="1"
         style="stop-color:rgb(252,82,82)"
         id="stop4-6" />
    </linearGradient>
    <linearGradient
       inkscape:collect="always"
       xlink:href="#_lgradient_72"
       id="linearGradient15"
       x1="-9.6850061"
       y1="45.161198"
       x2="11.98815"
       y2="21.735205"
       gradientUnits="userSpaceOnUse"
       gradientTransform="matrix(1.1147442,0,0,1.1150348,-0.01237238,-3.3277956)" />
    <linearGradient
       inkscape:collect="always"
       xlink:href="#_lgradient_72"
       id="linearGradient934"
       x1="10.859975"
       y1="24"
       x2="37.140026"
       y2="24"
       gradientUnits="userSpaceOnUse" />
  </defs>
  <sodipodi:namedview
     id="namedview13"
     pagecolor="#ffffff"
     bordercolor="#666666"
     borderopacity="1.0"
     inkscape:pageshadow="2"
     inkscape:pageopacity="0.0"
     inkscape:pagecheckerboard="0"
     inkscape:document-units="pt"
     showgrid="false"
     inkscape:zoom="10.21875"
     inkscape:cx="31.95107"
     inkscape:cy="32"
     inkscape:window-width="1600"
     inkscape:window-height="836"
     inkscape:window-x="0"
     inkscape:window-y="0"
     inkscape:window-maximized="1"
     inkscape:current-layer="svg11" />
  <linearGradient
     id="_lgradient_72"
     x1="0"
     y1="0.5"
     x2="1"
     y2="0.5"
     gradientTransform="matrix(26.280049,0,0,16.723668,10.859975,15.638166)"
     gradientUnits="userSpaceOnUse">
    <stop
       offset="0%"
       stop-opacity="1"
       style="stop-color:rgb(84,51,255)"
       id="stop2" />
    <stop
       offset="51.73913043478261%"
       stop-opacity="1"
       style="stop-color:rgb(32,189,255)"
       id="stop4" />
    <stop
       offset="98.26086956521739%"
       stop-opacity="1"
       style="stop-color:rgb(165,254,203)"
       id="stop6" />
  </linearGradient>
  <rect
     x="-46.783188"
     y="1.2253767"
     height="45.80014"
     rx="6.1837621"
     shape-rendering="crispEdges"
     id="rect5-6-7-3"
     ry="6.8055277"
     transform="matrix(0.00524063,-0.99998627,0.99998801,0.00489691,0,0)"
     style="isolation:isolate;fill:#00ffdb;fill-opacity:0.13470298;stroke:url(#linearGradient872);stroke-width:2.0301;stroke-miterlimit:4;stroke-dasharray:none;stroke-opacity:1"
     width="45.801998" />
  <rect
     x="-15.686804"
     y="17.260084"
     height="33.345856"
     rx="6.7920032"
     shape-rendering="crispEdges"
     id="rect5-6-6-6-6"
     style="isolation:isolate;fill:#00ffdb;fill-opacity:0.13470298;stroke:url(#linearGradient15);stroke-width:1.67233;stroke-miterlimit:4;stroke-dasharray:none;stroke-opacity:1"
     ry="7.4743071"
     transform="matrix(0.72446484,-0.68931175,0.68622417,0.72739012,0,0)"
     width="33.338203" />
  <path
     style="color:#000000;fill:url(#linearGradient934);fill-rule:evenodd;-inkscape-stroke:none"
     d="m 12.652344,15.138672 c -1.259616,0 -2.292969,1.0314 -2.292969,2.291015 v 5.972657 c 0,0.929921 0.765392,1.695312 1.695313,1.695312 0.92992,0 1.695312,-0.765391 1.695312,-1.695312 V 18.625 c 0,-0.05916 0.03654,-0.09766 0.0957,-0.09766 h 20.308594 c 0.05917,0 0.0957,0.03849 0.0957,0.09766 v 1.193359 c 0,0.929921 0.765392,1.695313 1.695312,1.695313 0.929921,0 1.695313,-0.765392 1.695313,-1.695313 v -2.388672 c 0,-1.259615 -1.033353,-2.291015 -2.292969,-2.291015 z m 0,1 h 22.695312 c 0.718554,0 1.292969,0.572461 1.292969,1.291015 v 2.388672 c 0,0.388858 -0.306455,0.695313 -0.695313,0.695313 -0.388857,0 -0.695312,-0.306455 -0.695312,-0.695313 V 18.625 c 0,-0.600225 -0.495477,-1.097656 -1.095703,-1.097656 H 13.845703 C 13.245477,17.527344 12.75,18.024775 12.75,18.625 v 4.777344 c 0,0.388858 -0.306455,0.695312 -0.695312,0.695312 -0.388858,0 -0.695313,-0.306454 -0.695313,-0.695312 v -5.972657 c 0,-0.718554 0.574415,-1.291015 1.292969,-1.291015 z m 3.583984,2.583984 c -0.600226,0 -1.097656,0.495477 -1.097656,1.095703 v 1.195313 c 0,0.600226 0.49743,1.097656 1.097656,1.097656 h 1.193359 c 0.600227,0 1.097657,-0.497431 1.097657,-1.097656 v -1.195313 c 0,-0.600225 -0.49743,-1.095703 -1.097657,-1.095703 z m 3.582031,0 c -0.600226,0 -1.095703,0.495477 -1.095703,1.095703 v 1.195313 c 0,0.600226 0.495477,1.097656 1.095703,1.097656 h 1.195313 c 0.600226,0 1.097656,-0.49743 1.097656,-1.097656 v -1.195313 c 0,-0.600226 -0.49743,-1.095703 -1.097656,-1.095703 z m 3.583985,0 c -0.600227,0 -1.097657,0.495477 -1.097657,1.095703 v 1.195313 c 0,0.600226 0.49743,1.097656 1.097657,1.097656 h 1.195312 c 0.600227,0 1.097656,-0.49743 1.097656,-1.097656 v -1.195313 c 0,-0.600226 -0.497429,-1.095703 -1.097656,-1.095703 z m 3.583984,0 c -0.600226,0 -1.097656,0.495477 -1.097656,1.095703 v 1.195313 c 0,0.600226 0.49743,1.097656 1.097656,1.097656 h 1.195313 c 0.600226,0 1.095703,-0.49743 1.095703,-1.097656 v -1.195313 c 0,-0.600226 -0.495477,-1.095703 -1.095703,-1.095703 z m 3.583984,0 c -0.600226,0 -1.097656,0.495478 -1.097656,1.095703 v 1.195313 c 0,0.600225 0.49743,1.097656 1.097656,1.097656 h 1.19336 c 0.600226,0 1.097656,-0.49743 1.097656,-1.097656 v -1.195313 c 0,-0.600226 -0.49743,-1.095703 -1.097656,-1.095703 z m -14.333984,1 h 1.193359 c 0.05916,0 0.09766,0.03654 0.09766,0.0957 v 1.195313 c 0,0.05916 -0.03849,0.09766 -0.09766,0.09766 h -1.193359 c -0.05916,0 -0.09766,-0.03849 -0.09766,-0.09766 v -1.195313 c 0,-0.05916 0.03849,-0.0957 0.09766,-0.0957 z m 3.582031,0 h 1.195313 c 0.05916,0 0.09766,0.03654 0.09766,0.0957 v 1.195313 c 0,0.05916 -0.03849,0.09766 -0.09766,0.09766 h -1.195313 c -0.05916,0 -0.0957,-0.03849 -0.0957,-0.09766 v -1.195313 c 0,-0.05916 0.03654,-0.0957 0.0957,-0.0957 z m 3.583985,0 h 1.195312 c 0.05916,0 0.09766,0.03654 0.09766,0.0957 v 1.195313 c 0,0.05916 -0.03849,0.09766 -0.09766,0.09766 h -1.195312 c -0.05916,0 -0.09766,-0.03849 -0.09766,-0.09766 v -1.195313 c 0,-0.05916 0.03849,-0.0957 0.09766,-0.0957 z m 3.583984,0 h 1.195313 c 0.05916,0 0.0957,0.03654 0.0957,0.0957 v 1.195313 c 0,0.05916 -0.03654,0.09766 -0.0957,0.09766 h -1.195313 c -0.05916,0 -0.09766,-0.03849 -0.09766,-0.09766 v -1.195313 c 0,-0.05916 0.03849,-0.0957 0.09766,-0.0957 z m 3.583984,0 h 1.19336 c 0.05916,0 0.09766,0.03654 0.09766,0.0957 v 1.195313 c 0,0.05916 -0.03849,0.09766 -0.09766,0.09766 h -1.19336 c -0.05916,0 -0.09766,-0.03849 -0.09766,-0.09766 v -1.195313 c 0,-0.05916 0.03849,-0.0957 0.09766,-0.0957 z m -14.333984,2.582031 c -0.600226,0 -1.097656,0.49743 -1.097656,1.097657 v 1.195312 c 0,0.600227 0.49743,1.097656 1.097656,1.097656 h 1.193359 c 0.600227,0 1.097657,-0.497431 1.097657,-1.097656 v -1.195312 c 0,-0.600225 -0.49743,-1.097657 -1.097657,-1.097657 z m 3.582031,0 c -0.600226,0 -1.095703,0.49743 -1.095703,1.097657 v 1.195312 c 0,0.600227 0.495477,1.097656 1.095703,1.097656 h 1.195313 c 0.600226,0 1.097656,-0.497429 1.097656,-1.097656 v -1.195312 c 0,-0.600227 -0.49743,-1.097657 -1.097656,-1.097657 z m 3.583985,0 c -0.600227,0 -1.097657,0.49743 -1.097657,1.097657 v 1.195312 c 0,0.600227 0.49743,1.097656 1.097657,1.097656 h 1.195312 c 0.600227,0 1.097656,-0.497429 1.097656,-1.097656 v -1.195312 c 0,-0.600227 -0.497429,-1.097657 -1.097656,-1.097657 z m 3.583984,0 c -0.600226,0 -1.097656,0.49743 -1.097656,1.097657 v 1.195312 c 0,0.600227 0.49743,1.097656 1.097656,1.097656 h 1.195313 c 0.600226,0 1.095703,-0.497429 1.095703,-1.097656 v -1.195312 c 0,-0.600227 -0.495477,-1.097657 -1.095703,-1.097657 z m 3.583984,0 c -0.600226,0 -1.097656,0.497432 -1.097656,1.097657 v 1.195312 c 0,0.600225 0.49743,1.097656 1.097656,1.097656 h 1.19336 c 0.600226,0 1.097656,-0.497429 1.097656,-1.097656 v -1.195312 c 0,-0.600227 -0.49743,-1.097657 -1.097656,-1.097657 z m 5.375,0.597657 c -0.92992,0 -1.695312,0.765391 -1.695312,1.695312 V 29.375 c 0,0.05916 -0.03654,0.09766 -0.0957,0.09766 H 13.845703 c -0.05917,0 -0.0957,-0.03849 -0.0957,-0.09766 v -1.193359 c 0,-0.929921 -0.765392,-1.695313 -1.695312,-1.695313 -0.929921,0 -1.695313,0.765392 -1.695313,1.695313 v 2.388671 c 0,1.259616 1.033353,2.291016 2.292969,2.291016 h 22.695312 c 1.259616,0 2.292969,-1.0314 2.292969,-2.291016 v -5.972656 c 0,-0.929921 -0.765392,-1.695312 -1.695313,-1.695312 z m -19.708984,0.402343 h 1.193359 c 0.05916,0 0.09766,0.03849 0.09766,0.09766 v 1.195312 c 0,0.05916 -0.03849,0.09766 -0.09766,0.09766 h -1.193359 c -0.05916,0 -0.09766,-0.03849 -0.09766,-0.09766 v -1.195312 c 0,-0.05916 0.03849,-0.09766 0.09766,-0.09766 z m 3.582031,0 h 1.195313 c 0.05916,0 0.09766,0.03849 0.09766,0.09766 v 1.195312 c 0,0.05916 -0.03849,0.09766 -0.09766,0.09766 h -1.195313 c -0.05916,0 -0.0957,-0.03849 -0.0957,-0.09766 v -1.195312 c 0,-0.05916 0.03654,-0.09766 0.0957,-0.09766 z m 3.583985,0 h 1.195312 c 0.05916,0 0.09766,0.03849 0.09766,0.09766 v 1.195312 c 0,0.05916 -0.03849,0.09766 -0.09766,0.09766 h -1.195312 c -0.05916,0 -0.09766,-0.03849 -0.09766,-0.09766 v -1.195312 c 0,-0.05916 0.03849,-0.09766 0.09766,-0.09766 z m 3.583984,0 h 1.195313 c 0.05916,0 0.0957,0.03849 0.0957,0.09766 v 1.195312 c 0,0.05916 -0.03654,0.09766 -0.0957,0.09766 h -1.195313 c -0.05916,0 -0.09766,-0.03849 -0.09766,-0.09766 v -1.195312 c 0,-0.05916 0.03849,-0.09766 0.09766,-0.09766 z m 3.583984,0 h 1.19336 c 0.05916,0 0.09766,0.03849 0.09766,0.09766 v 1.195312 c 0,0.05916 -0.03849,0.09766 -0.09766,0.09766 h -1.19336 c -0.05916,0 -0.09766,-0.03849 -0.09766,-0.09766 v -1.195312 c 0,-0.05916 0.03849,-0.09766 0.09766,-0.09766 z m 5.375,0.597657 c 0.388858,0 0.695313,0.306454 0.695313,0.695312 v 5.972656 c 0,0.718555 -0.574415,1.291016 -1.292969,1.291016 H 12.652344 c -0.718554,0 -1.292969,-0.572461 -1.292969,-1.291016 v -2.388671 c 0,-0.388858 0.306455,-0.695313 0.695313,-0.695313 0.388857,0 0.695312,0.306455 0.695312,0.695313 V 29.375 c 0,0.600225 0.495477,1.097656 1.095703,1.097656 h 20.308594 c 0.600226,0 1.095703,-0.497431 1.095703,-1.097656 v -4.777344 c 0,-0.388858 0.306455,-0.695312 0.695312,-0.695312 z m -20.904296,1.986328 c -0.600227,0 -1.097657,0.49743 -1.097657,1.097656 v 1.195313 c 0,0.600226 0.49743,1.095703 1.097657,1.095703 h 1.195312 c 0.600226,0 1.095703,-0.495477 1.095703,-1.095703 v -1.195313 c 0,-0.600226 -0.495477,-1.097656 -1.095703,-1.097656 z m 3.583984,0 c -0.600226,0 -1.097656,0.49743 -1.097656,1.097656 v 1.195313 c 0,0.600226 0.49743,1.095703 1.097656,1.095703 h 10.75 c 0.600226,0 1.097656,-0.495477 1.097656,-1.095703 v -1.195313 c 0,-0.600226 -0.49743,-1.097656 -1.097656,-1.097656 z m 13.138672,0 c -0.600226,0 -1.095703,0.49743 -1.095703,1.097656 v 1.195313 c 0,0.600226 0.495477,1.095703 1.095703,1.095703 h 1.195312 c 0.600227,0 1.097657,-0.495477 1.097657,-1.095703 v -1.195313 c 0,-0.600226 -0.49743,-1.097656 -1.097657,-1.097656 z m -16.722656,1 h 1.195312 c 0.05916,0 0.0957,0.03849 0.0957,0.09766 v 1.195313 c 0,0.05916 -0.03654,0.0957 -0.0957,0.0957 h -1.195312 c -0.05916,0 -0.09766,-0.03654 -0.09766,-0.0957 v -1.195313 c 0,-0.05916 0.03849,-0.09766 0.09766,-0.09766 z m 3.583984,0 h 10.75 c 0.05916,0 0.09766,0.03849 0.09766,0.09766 v 1.195313 c 0,0.05916 -0.03849,0.0957 -0.09766,0.0957 h -10.75 c -0.05916,0 -0.09766,-0.03654 -0.09766,-0.0957 v -1.195313 c 0,-0.05916 0.03849,-0.09766 0.09766,-0.09766 z m 13.138672,0 h 1.195312 c 0.05916,0 0.09766,0.03849 0.09766,0.09766 v 1.195313 c 0,0.05916 -0.03849,0.0957 -0.09766,0.0957 h -1.195312 c -0.05916,0 -0.0957,-0.03654 -0.0957,-0.0957 v -1.195313 c 0,-0.05916 0.03654,-0.09766 0.0957,-0.09766 z"
     id="path9" />
</svg>
