<?xml version="1.0" encoding="UTF-8" standalone="no"?>
<!-- Generator: Gravit.io -->

<svg
   style="isolation:isolate"
   viewBox="0 0 48 48"
   width="48pt"
   height="48pt"
   version="1.1"
   id="svg9"
   sodipodi:docname="preferences-system-privacy.svg"
   inkscape:version="1.1.2 (0a00cf5339, 2022-02-04)"
   xmlns:inkscape="http://www.inkscape.org/namespaces/inkscape"
   xmlns:sodipodi="http://sodipodi.sourceforge.net/DTD/sodipodi-0.dtd"
   xmlns:xlink="http://www.w3.org/1999/xlink"
   xmlns="http://www.w3.org/2000/svg"
   xmlns:svg="http://www.w3.org/2000/svg">
  <defs
     id="defs13">
    <linearGradient
       inkscape:collect="always"
       xlink:href="#_lgradient_0"
       id="linearGradient872"
       x1="-12.025727"
       y1="6.1170783"
       x2="-0.085100174"
       y2="6.1170783"
       gradientUnits="userSpaceOnUse"
       gradientTransform="matrix(3.8358211,0,0,3.8371386,-0.00544341,-0.00268054)" />
    <linearGradient
       id="_lgradient_21"
       x1="0"
       y1="0.5"
       x2="1"
       y2="0.5"
       gradientTransform="matrix(28.183272,0,0,28.298876,9.8766106,9.8505561)"
       gradientUnits="userSpaceOnUse">
      <stop
         offset="0%"
         stop-opacity="1"
         style="stop-color:rgb(255,224,49)"
         id="stop2-3" />
      <stop
         offset="98.69565217391305%"
         stop-opacity="1"
         style="stop-color:rgb(252,82,82)"
         id="stop4-6" />
    </linearGradient>
    <linearGradient
       inkscape:collect="always"
       xlink:href="#_lgradient_0"
       id="linearGradient15"
       x1="-9.6850061"
       y1="45.161198"
       x2="11.98815"
       y2="21.735205"
       gradientUnits="userSpaceOnUse"
       gradientTransform="matrix(1.1147442,0,0,1.1150348,-0.01237238,-3.3277956)" />
    <linearGradient
       inkscape:collect="always"
       xlink:href="#_lgradient_0"
       id="linearGradient968"
       x1="34.584431"
       y1="14.270115"
       x2="12.151487"
       y2="40.447796"
       gradientUnits="userSpaceOnUse" />
  </defs>
  <sodipodi:namedview
     id="namedview11"
     pagecolor="#ffffff"
     bordercolor="#666666"
     borderopacity="1.0"
     inkscape:pageshadow="2"
     inkscape:pageopacity="0.0"
     inkscape:pagecheckerboard="0"
     inkscape:document-units="pt"
     showgrid="false"
     inkscape:zoom="10.21875"
     inkscape:cx="31.95107"
     inkscape:cy="32"
     inkscape:window-width="1600"
     inkscape:window-height="836"
     inkscape:window-x="0"
     inkscape:window-y="0"
     inkscape:window-maximized="1"
     inkscape:current-layer="svg9" />
  <linearGradient
     id="_lgradient_0"
     x1="0.061897106109324806"
     y1="0.14716151924516707"
     x2="0.9904248356713994"
     y2="0.9865808764728623"
     gradientTransform="matrix(-24.159692,0,0,31.185465,36.079846,9.6808149)"
     gradientUnits="userSpaceOnUse">
    <stop
       offset="0%"
       stop-opacity="1"
       style="stop-color:rgb(22,181,228)"
       id="stop2" />
    <stop
       offset="98.26086956521739%"
       stop-opacity="1"
       style="stop-color:rgb(245,32,250)"
       id="stop4" />
  </linearGradient>
  <rect
     x="-46.783188"
     y="1.2253767"
     height="45.80014"
     rx="6.1837621"
     shape-rendering="crispEdges"
     id="rect5-6-7-3"
     ry="6.8055277"
     transform="matrix(0.00524063,-0.99998627,0.99998801,0.00489691,0,0)"
     style="isolation:isolate;fill:#b900ff;fill-opacity:0.13470298;stroke:url(#linearGradient872);stroke-width:2.0301;stroke-miterlimit:4;stroke-dasharray:none;stroke-opacity:1"
     width="45.801998" />
  <rect
     x="-15.686804"
     y="17.260084"
     height="33.345856"
     rx="6.7920032"
     shape-rendering="crispEdges"
     id="rect5-6-6-6-6"
     style="isolation:isolate;fill:#b900ff;fill-opacity:0.13470298;stroke:url(#linearGradient15);stroke-width:1.67233;stroke-miterlimit:4;stroke-dasharray:none;stroke-opacity:1"
     ry="7.4743071"
     transform="matrix(0.72446484,-0.68931175,0.68622417,0.72739012,0,0)"
     width="33.338203" />
  <path
     style="color:#000000;fill:url(#linearGradient968);fill-rule:evenodd;-inkscape-stroke:none"
     d="M 24.177734,9.0546875 23.857422,9.2597656 C 22.645075,10.034873 21.386794,10.74508 20.099609,11.388672 h -0.002 c -0.86463,0.435615 -1.742058,0.82347 -2.644531,1.166016 -0.757906,0.287481 -1.525232,0.523548 -2.3125,0.699218 h -0.0039 -0.0039 c -0.638984,0.153357 -1.292352,0.243945 -1.951172,0.269532 h -0.0039 -0.0059 c -0.466573,0.02744 -0.909583,0.22657 -1.240234,0.566406 l -0.0039,0.002 -0.002,0.0039 c -0.324075,0.342594 -0.505859,0.796551 -0.505859,1.269531 V 20.0625 c 0,1.011428 0.830369,1.841797 1.841797,1.841797 1.011427,0 1.84375,-0.830369 1.84375,-1.841797 v -3.054688 c 0.288602,-0.05041 0.5789,-0.09774 0.859375,-0.162109 C 16.919693,16.625883 17.847156,16.343087 18.759766,16 h 0.002 0.002 c 1.013296,-0.387636 2.014579,-0.822839 2.984375,-1.314453 l 0.002,-0.002 c 0.7177,-0.358902 1.41597,-0.741542 2.111328,-1.136719 0.545423,0.398383 1.096149,0.782986 1.673828,1.136719 0.880871,0.543662 1.804612,1.012078 2.769531,1.398437 0.0012,4.9e-4 0.0027,-4.89e-4 0.0039,0 8.16e-4,3.27e-4 0.0011,0.0016 0.002,0.002 1.457358,0.602343 3.013444,0.897439 4.583984,1.023438 v 7.646484 c -0.0135,1.318476 -0.24407,2.625262 -0.68164,3.867188 l -0.002,0.002 c -0.468174,1.346 -1.117235,2.619771 -1.929687,3.783203 l -0.002,0.002 v 0.002 c -0.806234,1.170338 -1.768512,2.222667 -2.867188,3.132813 l -0.002,0.002 -0.002,0.002 c -0.990127,0.837799 -2.12383,1.498862 -3.335937,1.974609 -0.170058,-0.08847 -0.340933,-0.176857 -0.503907,-0.279297 -0.433738,-0.271896 -0.853166,-0.568202 -1.24414,-0.888671 -0.914236,-0.75098 -1.75739,-1.593588 -2.507813,-2.513672 v -0.002 l -0.002,-0.002 c -0.820267,-0.984319 -1.555642,-2.041795 -2.199219,-3.158203 l -0.002,-0.002 C 16.993443,29.618794 16.484418,28.49493 16.099609,27.333984 l -0.416015,-1.253906 c -0.318651,-0.960533 -1.369374,-1.488631 -2.330078,-1.169922 -0.960534,0.318652 -1.488631,1.369375 -1.169922,2.330078 l 0.390625,1.177735 v 0.0078 l 0.02734,0.07813 c 0.473727,1.400585 1.084158,2.746537 1.826171,4.017578 0.738455,1.291784 1.593031,2.522523 2.542969,3.664063 0.905497,1.097572 1.915531,2.114161 3.023438,3.015625 0.512799,0.422465 1.053379,0.810972 1.621093,1.164062 0.535574,0.338061 1.103401,0.625121 1.691407,0.863282 0.425871,0.175903 0.905575,0.184644 1.341796,0.01758 l 0.595704,-0.220703 h 0.01758 l 0.08594,-0.03516 c 1.60759,-0.623634 3.104817,-1.509365 4.427735,-2.617187 l 0.002,-0.002 c 1.348915,-1.122135 2.534377,-2.423653 3.52539,-3.861328 l 0.002,-0.0039 c 1.005187,-1.439642 1.80282,-3.008613 2.38086,-4.660156 0.575174,-1.628505 0.880657,-3.341075 0.894531,-5.068359 v -0.002 -0.01563 -8.09375 c 0,-0.846422 -0.264596,-1.617362 -0.722656,-2.191407 -0.45806,-0.574044 -1.13562,-0.95345 -1.886719,-0.93164 h 0.01953 c -1.472745,-0.01286 -2.926474,-0.309164 -4.291015,-0.869141 -0.775032,-0.31913 -1.522807,-0.695071 -2.238282,-1.130859 v -0.002 c -1.065711,-0.647274 -2.068264,-1.39911 -3,-2.2324222 z m -0.08594,1.2187505 c 0.895434,0.775084 1.833325,1.505793 2.849609,2.123046 0.76095,0.463487 1.556716,0.864576 2.378906,1.203125 1.480931,0.607741 3.061208,0.92938 4.66211,0.94336 h 0.0078 H 34 c 0.404539,-0.01175 0.776222,0.178787 1.076172,0.554687 0.29995,0.3759 0.503906,0.932988 0.503906,1.56836 v 8.09375 0.01367 c -0.01339,1.613494 -0.299466,3.21578 -0.837891,4.740235 -0.548928,1.568368 -1.306518,3.059247 -2.259765,4.423828 h -0.002 v 0.002 c -0.940751,1.365395 -2.063916,2.599711 -3.34375,3.664063 h -0.002 v 0.002 c -1.234323,1.033987 -2.631506,1.857818 -4.128907,2.441406 l -0.71289,0.265625 h -0.002 c -0.194614,0.07453 -0.411974,0.0713 -0.603516,-0.0078 l -0.002,-0.002 h -0.002 c -0.537764,-0.217666 -1.054,-0.480033 -1.53711,-0.785156 h -0.002 l -0.002,-0.002 c -0.531666,-0.33067 -1.036181,-0.692673 -1.515625,-1.087891 l -0.002,-0.002 c -1.053041,-0.856822 -2.016601,-1.827 -2.882813,-2.876953 h -0.002 v -0.002 c -0.914109,-1.098246 -1.737081,-2.282569 -2.447265,-3.525391 v -0.002 l -0.002,-0.002 c -0.705368,-1.208268 -1.28453,-2.489242 -1.736328,-3.822266 l -0.421875,-1.269531 c -0.148379,-0.447267 0.08772,-0.91797 0.535156,-1.066406 0.447268,-0.148379 0.917971,0.08772 1.066406,0.535156 l 0.416016,1.253906 c 0.407092,1.228177 0.944354,2.415821 1.599609,3.533204 0.671268,1.163953 1.438355,2.267042 2.294922,3.294921 0.792446,0.971165 1.68075,1.858713 2.644531,2.650391 0.427361,0.350295 0.880637,0.671286 1.345703,0.962891 0.247931,0.155841 0.513498,0.306053 0.791016,0.4375 l 0.1875,0.08789 0.36914,-0.132812 0.0059,-0.002 c 1.332794,-0.516371 2.575736,-1.249331 3.666015,-2.171875 1.167155,-0.967539 2.190143,-2.086882 3.046875,-3.330078 l 0.002,-0.002 c 0.864265,-1.238052 1.554853,-2.592518 2.052734,-4.023437 v -0.002 c 0.47407,-1.346158 0.724328,-2.762937 0.738281,-4.19336 v -0.002 -8.519531 l -0.474609,-0.02148 c -1.627304,-0.0778 -3.228976,-0.434526 -4.732422,-1.056641 l -0.002,-0.002 h -0.0039 c -0.9121,-0.364841 -1.785679,-0.808611 -2.621094,-1.324219 -0.644073,-0.394329 -1.261832,-0.815514 -1.867188,-1.269531 l -0.265625,-0.197266 -0.285156,0.164063 c -0.769937,0.444705 -1.545419,0.86353 -2.341797,1.261719 h -0.002 -0.002 c -0.934656,0.47391 -1.903712,0.896557 -2.888672,1.273437 -0.87252,0.328016 -1.757155,0.596958 -2.667969,0.806641 -0.398091,0.09137 -0.800367,0.168467 -1.207031,0.226562 l -0.427734,0.0625 V 20.0625 c 0,0.470365 -0.373385,0.841797 -0.84375,0.841797 -0.470365,0 -0.841797,-0.371432 -0.841797,-0.841797 v -4.697266 c 0,-0.210687 0.08584,-0.426173 0.230469,-0.580078 0.151987,-0.155221 0.361688,-0.250482 0.578125,-0.263672 h 0.002 c 0.717591,-0.02851 1.429458,-0.12611 2.126953,-0.292968 l 0.0078,-0.002 c 0.834033,-0.186525 1.64682,-0.434193 2.44336,-0.736329 0.936345,-0.355402 1.844625,-0.758744 2.738281,-1.208984 v 0.002 c 1.212595,-0.606297 2.392734,-1.287368 3.544922,-2.009765 z m -0.345703,4.167968 c -0.381699,0.06476 -0.738044,0.273302 -0.976563,0.611328 -0.475376,0.673698 -0.316195,1.620267 0.357422,2.095703 1.092525,0.774449 2.26874,1.411779 3.507813,1.896485 0.831505,0.329013 1.697227,0.56715 2.570312,0.771484 v 5.501953 c 0,0.826204 0.679657,1.50586 1.505859,1.50586 0.826203,0 1.50586,-0.679657 1.50586,-1.50586 v -6.710937 c 0,-0.361962 -0.130958,-0.708426 -0.359375,-0.976563 -0.231675,-0.271965 -0.551388,-0.449936 -0.900391,-0.509765 l -0.0039,-0.002 h -0.002 c -1.099066,-0.17559 -2.178879,-0.468025 -3.210938,-0.876954 -1.017483,-0.401809 -1.9815,-0.919783 -2.867187,-1.546874 -0.337803,-0.238802 -0.745254,-0.318664 -1.126953,-0.253907 z m 0.548828,1.070313 c 0.953133,0.674845 1.988348,1.229798 3.078125,1.660156 1.100129,0.435899 2.246907,0.746682 3.414062,0.933594 5.81e-4,9.9e-5 0.0014,-1.02e-4 0.002,0 0.0014,2.26e-4 0.0025,0.0017 0.0039,0.002 0.118334,0.02175 0.22702,0.08299 0.302734,0.171875 0.08029,0.09426 0.121094,0.206894 0.121094,0.328125 v 6.710937 c 0,0.285142 -0.220718,0.50586 -0.50586,0.50586 -0.285141,0 -0.505859,-0.220718 -0.505859,-0.50586 v -6.279297 l -0.398437,-0.08203 C 28.846956,18.754649 27.907834,18.473676 27.001953,18.115234 L 27,18.113281 c -1.162885,-0.454759 -2.267236,-1.052763 -3.294922,-1.78125 -0.229686,-0.162111 -0.283996,-0.469493 -0.119141,-0.703125 0.163195,-0.231277 0.473235,-0.283844 0.708985,-0.117187 z M 24,21.082031 c -1.628896,0 -2.960938,1.332041 -2.960938,2.960938 0,0.964229 0.512088,1.775199 1.230469,2.316406 v 1.785156 c 0,0.723117 0.597196,1.320313 1.320313,1.320313 h 0.820312 c 0.723117,0 1.320313,-0.597196 1.320313,-1.320313 v -1.785156 c 0.718381,-0.541207 1.230468,-1.352177 1.230468,-2.316406 0,-1.628897 -1.332041,-2.960938 -2.960937,-2.960938 z m 0,1 c 1.087725,0 1.960937,0.873213 1.960937,1.960938 0,0.728598 -0.396121,1.359527 -0.982421,1.699218 l -0.248047,0.144532 v 0.287109 1.970703 c 0,0.182871 -0.137442,0.320313 -0.320313,0.320313 h -0.820312 c -0.182871,0 -0.320313,-0.137442 -0.320313,-0.320313 v -2.257812 l -0.248047,-0.144532 c -0.5863,-0.339691 -0.982422,-0.97062 -0.982422,-1.699218 0,-1.087725 0.873213,-1.960938 1.960938,-1.960938 z m -6.511719,2.478516 c -0.783337,0.25878 -1.213643,1.117705 -0.955078,1.90039 0.657596,2.006149 1.633237,3.219736 2.798828,4.851563 v 0.002 h 0.002 c 1.219604,1.688683 1.417548,1.953981 3.060547,3.240234 0.649628,0.51192 1.607169,0.399696 2.119141,-0.25 0.511919,-0.649627 0.397743,-1.607167 -0.251953,-2.11914 -1.484063,-1.163184 -1.370621,-1.091153 -2.478516,-2.628906 l -0.002,-0.002 c -1.071451,-1.498463 -1.845395,-2.391652 -2.394531,-4.039062 h 0.002 C 19.129891,24.73229 18.270967,24.30198 17.488281,24.560547 Z m 0.3125,0.949219 c 0.269601,-0.08906 0.547869,0.05136 0.636719,0.320312 h 0.002 v 0.002 c 0.604848,1.814545 1.48101,2.840366 2.529297,4.306641 h 0.002 v 0.002 c 1.103241,1.531165 1.180447,1.661023 2.671875,2.830078 0.224079,0.176578 0.26257,0.490697 0.08594,0.714844 -0.176577,0.224077 -0.490697,0.260616 -0.714844,0.08398 -1.628614,-1.274857 -1.647923,-1.348112 -2.869141,-3.039062 v -0.002 c -1.1822,-1.654995 -2.058221,-2.736293 -2.662109,-4.580079 v -0.002 c -0.08906,-0.269601 0.04941,-0.547869 0.318359,-0.636718 z"
     id="path7" />
</svg>
