<?xml version="1.0" encoding="UTF-8" standalone="no"?>
<!-- Generator: Gravit.io -->

<svg
   style="isolation:isolate"
   viewBox="0 0 48 48"
   width="48pt"
   height="48pt"
   version="1.1"
   id="svg9"
   sodipodi:docname="preferences-desktop-user-password.svg"
   inkscape:version="1.1.2 (0a00cf5339, 2022-02-04)"
   xmlns:inkscape="http://www.inkscape.org/namespaces/inkscape"
   xmlns:sodipodi="http://sodipodi.sourceforge.net/DTD/sodipodi-0.dtd"
   xmlns:xlink="http://www.w3.org/1999/xlink"
   xmlns="http://www.w3.org/2000/svg"
   xmlns:svg="http://www.w3.org/2000/svg">
  <defs
     id="defs13">
    <linearGradient
       inkscape:collect="always"
       xlink:href="#_lgradient_22"
       id="linearGradient872"
       x1="-12.025727"
       y1="6.1170783"
       x2="-0.085100174"
       y2="6.1170783"
       gradientUnits="userSpaceOnUse"
       gradientTransform="matrix(3.8358211,0,0,3.8371386,-0.00544341,-0.00268054)" />
    <linearGradient
       id="_lgradient_21"
       x1="0"
       y1="0.5"
       x2="1"
       y2="0.5"
       gradientTransform="matrix(28.183272,0,0,28.298876,9.8766106,9.8505561)"
       gradientUnits="userSpaceOnUse">
      <stop
         offset="0%"
         stop-opacity="1"
         style="stop-color:rgb(255,224,49)"
         id="stop2-3" />
      <stop
         offset="98.69565217391305%"
         stop-opacity="1"
         style="stop-color:rgb(252,82,82)"
         id="stop4-6" />
    </linearGradient>
    <linearGradient
       inkscape:collect="always"
       xlink:href="#_lgradient_22"
       id="linearGradient15"
       x1="-9.6850061"
       y1="45.161198"
       x2="11.98815"
       y2="21.735205"
       gradientUnits="userSpaceOnUse"
       gradientTransform="matrix(1.1147442,0,0,1.1150348,-0.01237238,-3.3277956)" />
    <linearGradient
       inkscape:collect="always"
       xlink:href="#_lgradient_22"
       id="linearGradient986"
       x1="12.994283"
       y1="21.321901"
       x2="35.005718"
       y2="21.321901"
       gradientUnits="userSpaceOnUse" />
  </defs>
  <sodipodi:namedview
     id="namedview11"
     pagecolor="#ffffff"
     bordercolor="#666666"
     borderopacity="1.0"
     inkscape:pageshadow="2"
     inkscape:pageopacity="0.0"
     inkscape:pagecheckerboard="0"
     inkscape:document-units="pt"
     showgrid="false"
     inkscape:zoom="1"
     inkscape:cx="32.5"
     inkscape:cy="32"
     inkscape:window-width="1600"
     inkscape:window-height="836"
     inkscape:window-x="0"
     inkscape:window-y="0"
     inkscape:window-maximized="1"
     inkscape:current-layer="svg9" />
  <linearGradient
     id="_lgradient_22"
     x1="0.41703096539162116"
     y1="0.019248826291079567"
     x2="0.679538131811658"
     y2="0.9641320015277046"
     gradientTransform="matrix(22.011433,0,0,26.65237,12.994283,7.9957405)"
     gradientUnits="userSpaceOnUse">
    <stop
       offset="28.000000000000004%"
       stop-opacity="1"
       style="stop-color:rgb(0,205,215)"
       id="stop2" />
    <stop
       offset="94%"
       stop-opacity="1"
       style="stop-color:rgb(32,134,215)"
       id="stop4" />
  </linearGradient>
  <rect
     x="-46.783188"
     y="1.2253767"
     height="45.80014"
     rx="6.1837621"
     shape-rendering="crispEdges"
     id="rect5-6-7-3"
     ry="6.8055277"
     transform="matrix(0.00524063,-0.99998627,0.99998801,0.00489691,0,0)"
     style="isolation:isolate;fill:#00beff;fill-opacity:0.13470298;stroke:url(#linearGradient872);stroke-width:2.0301;stroke-miterlimit:4;stroke-dasharray:none;stroke-opacity:1"
     width="45.801998" />
  <rect
     x="-15.686804"
     y="17.260084"
     height="33.345856"
     rx="6.7920032"
     shape-rendering="crispEdges"
     id="rect5-6-6-6-6"
     style="isolation:isolate;fill:#00beff;fill-opacity:0.13470298;stroke:url(#linearGradient15);stroke-width:1.67233;stroke-miterlimit:4;stroke-dasharray:none;stroke-opacity:1"
     ry="7.4743071"
     transform="matrix(0.72446484,-0.68931175,0.68622417,0.72739012,0,0)"
     width="33.338203" />
  <path
     style="color:#000000;fill:url(#linearGradient986);fill-rule:evenodd;-inkscape-stroke:none"
     d="m 23.792969,7.5039062 c -0.520796,-0.025101 -1.040264,0.012078 -1.550782,0.1054688 h -0.0039 l -0.002,0.00195 c -0.511074,0.099722 -1.01206,0.2557043 -1.488281,0.46875 -0.512887,0.2288469 -1.003444,0.5137243 -1.457031,0.8554688 -0.517388,0.3895628 -0.997244,0.8276557 -1.429688,1.3027341 l -0.002,0.002 -0.002,0.002 c -0.252775,0.284372 -0.478432,0.59333 -0.666016,0.929687 -0.18261,0.317374 -0.342182,0.649936 -0.472656,0.996094 -5.39e-4,0.0013 -0.0014,0.0026 -0.002,0.0039 -7.24e-4,0.0019 -0.0012,0.0039 -0.002,0.0059 -0.137517,0.345609 -0.24293,0.702672 -0.322266,1.056641 -0.08275,0.369205 -0.126438,0.743516 -0.132812,1.119141 v 0.0059 0.01563 2.896484 0.07813 h -0.949219 c -1.54951,0 -2.816406,1.266897 -2.816406,2.816407 V 23.0625 c 0,0.84932 0.675183,1.502997 1.501953,1.59375 -0.826446,0.09107 -1.501953,0.74271 -1.501953,1.591797 0,0.849087 0.675507,1.502682 1.501953,1.59375 -0.82677,0.09075 -1.501953,0.74443 -1.501953,1.59375 v 2.896484 c 0,1.54951 1.266896,2.816406 2.816406,2.816406 h 17.378906 c 1.54951,0 2.816406,-1.266896 2.816406,-2.816406 V 20.166016 c 0,-1.54951 -1.266896,-2.816407 -2.816406,-2.816407 H 30.582031 V 17.271484 14.375 c 0,-1.504083 -0.513606,-2.959593 -1.453125,-4.130859 h -0.002 v -0.002 C 28.788498,9.8237346 28.416388,9.4463235 28.003906,9.1015625 27.614302,8.7749742 27.189343,8.5004692 26.744141,8.2714844 l -0.002,-0.00195 C 26.295301,8.0368805 25.824903,7.8626558 25.339844,7.7382812 24.833401,7.6085804 24.315128,7.5287711 23.792969,7.5039062 Z m -0.04883,0.9980469 c 0.450976,0.021475 0.904134,0.091491 1.347656,0.2050782 0.417752,0.1071162 0.816434,0.2557636 1.191406,0.4511718 v 0.00195 h 0.002 c 0.387561,0.199163 0.750507,0.4342077 1.078125,0.7089843 0.36371,0.3039964 0.68761,0.6326284 0.986328,1.0019534 0.797152,0.994753 1.232422,2.2285 1.232422,3.503906 v 2.896484 1.078125 h 0.5 2.607422 c 1.008448,0 1.816406,0.807959 1.816406,1.816407 v 12.166015 c 0,1.008448 -0.807958,1.816406 -1.816406,1.816406 H 15.310547 c -1.008448,0 -1.816406,-0.807958 -1.816406,-1.816406 v -2.896484 c 0,-0.368958 0.289245,-0.658203 0.658203,-0.658203 0.368958,0 0.658203,0.289244 0.658203,0.658203 v 1.736328 c 0,0.910021 0.750136,1.660156 1.660156,1.660156 h 13.242188 v -4.826172 c 0,-0.224376 0.166092,-0.388671 0.36914,-0.388672 0.203047,0 0.369141,0.164296 0.369141,0.388672 v 4.826172 h 1.078125 c 0.91002,0 1.660156,-0.750135 1.660156,-1.660156 v -9.845703 c 0,-0.910021 -0.750136,-1.660156 -1.660156,-1.660156 H 16.470703 c -0.91002,0 -1.660156,0.750135 -1.660156,1.660156 V 23.0625 c 0,0.368958 -0.289245,0.658203 -0.658203,0.658203 -0.368958,0 -0.658203,-0.289245 -0.658203,-0.658203 v -2.896484 c 0,-1.008448 0.807958,-1.816407 1.816406,-1.816407 h 1.949219 V 17.271484 14.375 v -0.0039 -0.0078 c 0.0057,-0.305304 0.04209,-0.609974 0.109375,-0.910156 0.07051,-0.3146 0.161939,-0.625549 0.277343,-0.914062 l 0.002,-0.0059 0.002,-0.0039 c 0.111105,-0.296282 0.248768,-0.585496 0.410156,-0.865234 l 0.002,-0.002 0.002,-0.0039 c 0.147506,-0.264493 0.326128,-0.512359 0.535156,-0.748047 l 0.0039,-0.002 c 3.61e-4,-4.06e-4 -3.62e-4,-0.0015 0,-0.002 0.389139,-0.426992 0.823205,-0.821112 1.289062,-1.171875 0.391396,-0.2948882 0.815893,-0.5425749 1.263672,-0.7421875 h 0.002 c 0.402361,-0.180003 0.826925,-0.3127539 1.263672,-0.3984375 0.439449,-0.08039 0.881511,-0.11304 1.322266,-0.091797 z m -0.06641,1.3183594 c -0.339983,-0.019642 -0.677446,0.00685 -1.003906,0.064453 l -0.0059,0.00195 h -0.0039 c -0.332476,0.06519 -0.660908,0.1682982 -0.972656,0.3046872 l -0.0039,0.002 -0.002,0.002 c -0.350178,0.159172 -0.688897,0.356027 -0.998047,0.58789 -0.40202,0.303061 -0.772622,0.642194 -1.105469,1.00586 -0.145773,0.159656 -0.271907,0.335482 -0.376953,0.523437 -2.94e-4,5.15e-4 2.94e-4,0.0014 0,0.002 -8.87e-4,0.0016 -0.003,0.0023 -0.0039,0.0039 -0.125333,0.220044 -0.233284,0.448027 -0.322266,0.681641 -5.61e-4,0.0014 -0.0014,0.0025 -0.002,0.0039 -7.22e-4,0.0019 -0.0012,0.004 -0.002,0.0059 -0.09868,0.245501 -0.167631,0.492013 -0.222656,0.730468 -0.04773,0.204564 -0.07617,0.418048 -0.07617,0.640625 v 2.890625 1.078125 h 9.689453 v -0.5 V 17.271484 14.375 c 0,-0.977172 -0.334486,-1.922412 -0.945313,-2.677734 C 27.081853,11.402328 26.81578,11.130683 26.523437,10.888672 26.270544,10.674684 25.991325,10.484368 25.6875,10.332031 25.392674,10.181343 25.081806,10.064351 24.765625,9.9804688 h -0.002 -0.0039 C 24.406531,9.8905574 24.045215,9.8393443 23.681641,9.8203125 Z m -0.05469,0.9980465 h 0.002 0.002 c 0.307049,0.01589 0.604034,0.05891 0.886719,0.13086 0.249999,0.06663 0.493525,0.158323 0.71875,0.273437 h 0.002 l 0.002,0.002 c 0.227566,0.113783 0.444752,0.258389 0.642578,0.425782 l 0.002,0.002 0.002,0.002 c 0.238879,0.197333 0.459549,0.423754 0.660157,0.671875 0.466574,0.576946 0.722656,1.299844 0.722656,2.048828 v 2.896484 0.07813 h -7.689453 v -0.07813 -2.890625 c 0,-0.136556 0.01742,-0.271076 0.05078,-0.414062 v -0.002 c 0.04848,-0.210086 0.106784,-0.410016 0.179688,-0.589844 l 0.002,-0.0059 0.002,-0.0059 c 0.07168,-0.189434 0.158594,-0.374219 0.261719,-0.554687 l 0.002,-0.002 0.002,-0.002 c 0.06806,-0.122502 0.148221,-0.234789 0.24414,-0.339844 0.292419,-0.319494 0.616239,-0.61843 0.966797,-0.882813 0.245341,-0.184006 0.519672,-0.344592 0.804688,-0.474609 l 0.0059,-0.002 c 0.242719,-0.105693 0.503398,-0.186061 0.759766,-0.236328 0.259806,-0.04518 0.519238,-0.06528 0.765625,-0.05078 z m -7.152344,9.847657 h 15.058594 c 0.368958,0 0.660156,0.291198 0.660156,0.660156 v 9.845703 c 0,0.368958 -0.291198,0.660156 -0.660156,0.660156 h -0.07813 v -3.826172 c 0,-0.754553 -0.612955,-1.388671 -1.369141,-1.388672 -0.756186,10e-7 -1.36914,0.634119 -1.36914,1.388672 v 3.826172 H 16.470703 c -0.368958,0 -0.660156,-0.291198 -0.660156,-0.660156 v -1.736328 c 0,-0.848759 -0.674007,-1.502242 -1.5,-1.59375 0.82567,-0.09182 1.5,-0.745223 1.5,-1.59375 0,-0.848527 -0.67433,-1.499977 -1.5,-1.591797 0.825993,-0.09151 1.5,-0.744991 1.5,-1.59375 v -1.736328 c 0,-0.368958 0.291198,-0.660156 0.660156,-0.660156 z M 24,22.5625 c -1.442983,0 -2.625,1.182017 -2.625,2.625 0,0.839655 0.444077,1.542782 1.0625,2.023437 v 1.515625 c 0,0.660938 0.547375,1.208985 1.208984,1.208985 h 0.707032 c 0.661609,0 1.208984,-0.548047 1.208984,-1.208985 v -1.515625 c 0.618423,-0.480655 1.0625,-1.183782 1.0625,-2.023437 0,-1.442983 -1.182017,-2.625 -2.625,-2.625 z m 0,1 c 0.901811,0 1.625,0.723189 1.625,1.625 0,0.604045 -0.329135,1.125509 -0.814453,1.40625 L 24.5625,26.738281 v 0.28711 1.701171 c 0,0.11989 -0.08861,0.208985 -0.208984,0.208985 h -0.707032 c -0.120374,0 -0.208984,-0.0891 -0.208984,-0.208985 V 26.738281 L 23.189453,26.59375 C 22.704135,26.313009 22.375,25.791545 22.375,25.1875 c 0,-0.901811 0.723189,-1.625 1.625,-1.625 z m 6.082031,0.158203 c -0.750148,0 -1.36914,0.618992 -1.36914,1.369141 0,0.750148 0.618992,1.36914 1.36914,1.36914 0.750148,0 1.369141,-0.618992 1.369141,-1.36914 0,-0.750149 -0.618993,-1.369141 -1.369141,-1.369141 z m 0,1 c 0.209086,0 0.369141,0.160054 0.369141,0.369141 0,0.209086 -0.160055,0.36914 -0.369141,0.36914 -0.209087,0 -0.36914,-0.160054 -0.36914,-0.36914 0,-0.209087 0.160053,-0.369141 0.36914,-0.369141 z m -15.929687,0.869141 c 0.368958,0 0.658203,0.289244 0.658203,0.658203 0,0.36896 -0.289245,0.660156 -0.658203,0.660156 -0.368959,0 -0.658203,-0.291197 -0.658203,-0.660156 0,-0.368958 0.289244,-0.658203 0.658203,-0.658203 z"
     id="path7" />
</svg>
