<?xml version="1.0" encoding="UTF-8" standalone="no"?>
<!-- Generator: Gravit.io -->

<svg
   style="isolation:isolate"
   viewBox="0 0 48 48"
   width="48pt"
   height="48pt"
   version="1.1"
   id="svg20"
   sodipodi:docname="protonmail.svg"
   inkscape:version="1.1.2 (0a00cf5339, 2022-02-04)"
   xmlns:inkscape="http://www.inkscape.org/namespaces/inkscape"
   xmlns:sodipodi="http://sodipodi.sourceforge.net/DTD/sodipodi-0.dtd"
   xmlns:xlink="http://www.w3.org/1999/xlink"
   xmlns="http://www.w3.org/2000/svg"
   xmlns:svg="http://www.w3.org/2000/svg">
  <defs
     id="defs24">
    <linearGradient
       inkscape:collect="always"
       id="linearGradient1314">
      <stop
         style="stop-color:#6d44de;stop-opacity:1"
         offset="0"
         id="stop1310" />
      <stop
         style="stop-color:#c651fb;stop-opacity:1"
         offset="1"
         id="stop1312" />
    </linearGradient>
    <linearGradient
       inkscape:collect="always"
       id="linearGradient860">
      <stop
         style="stop-color:#5b64ed;stop-opacity:1;"
         offset="0"
         id="stop856" />
      <stop
         style="stop-color:#a514ff;stop-opacity:1"
         offset="0.43200612"
         id="stop1248" />
      <stop
         style="stop-color:#ff860b;stop-opacity:1"
         offset="1"
         id="stop858" />
    </linearGradient>
    <linearGradient
       id="_lgradient_3"
       x1="0.012664256"
       y1="-0.0061564781"
       x2="0.97542095"
       y2="1.5091842"
       gradientTransform="matrix(48,0,0,42.5,0,2.75)"
       gradientUnits="userSpaceOnUse">
      <stop
         offset="2.1739130434782608%"
         stop-opacity="1"
         style="stop-color:rgb(91,100,237)"
         id="stop2" />
      <stop
         offset="51.66666666666667%"
         stop-opacity="1"
         style="stop-color:rgb(198,116,251)"
         id="stop4" />
      <stop
         offset="98.33333333333333%"
         stop-opacity="1"
         style="stop-color:rgb(249,162,78)"
         id="stop6" />
    </linearGradient>
    <linearGradient
       id="_lgradient_4"
       x1="1.0292969"
       y1="1.0688416"
       x2="-0.010366589"
       y2="0.13682805"
       gradientTransform="matrix(18.583706,0,0,18.389336,12.622249,15.68474)"
       gradientUnits="userSpaceOnUse">
      <stop
         offset="0%"
         stop-opacity="1"
         style="stop-color:rgb(199,81,251)"
         id="stop11" />
      <stop
         offset="97.5%"
         stop-opacity="1"
         style="stop-color:rgb(109,68,222)"
         id="stop13" />
    </linearGradient>
    <linearGradient
       inkscape:collect="always"
       xlink:href="#_lgradient_4"
       id="linearGradient872"
       x1="-12.025727"
       y1="6.1170783"
       x2="-0.085100174"
       y2="6.1170783"
       gradientUnits="userSpaceOnUse"
       gradientTransform="matrix(3.8358211,0,0,3.8371386,-0.00544341,-0.00268054)" />
    <linearGradient
       id="_lgradient_21"
       x1="0"
       y1="0.5"
       x2="1"
       y2="0.5"
       gradientTransform="matrix(28.183272,0,0,28.298876,9.8766106,9.8505561)"
       gradientUnits="userSpaceOnUse">
      <stop
         offset="0%"
         stop-opacity="1"
         style="stop-color:rgb(255,224,49)"
         id="stop2-3" />
      <stop
         offset="98.69565217391305%"
         stop-opacity="1"
         style="stop-color:rgb(252,82,82)"
         id="stop4-6" />
    </linearGradient>
    <linearGradient
       inkscape:collect="always"
       xlink:href="#_lgradient_4"
       id="linearGradient15"
       x1="-9.6850061"
       y1="45.161198"
       x2="11.98815"
       y2="21.735205"
       gradientUnits="userSpaceOnUse"
       gradientTransform="matrix(1.1147442,0,0,1.1150348,-0.01237238,-3.3277956)" />
    <linearGradient
       inkscape:collect="always"
       xlink:href="#linearGradient860"
       id="linearGradient862"
       x1="13.143263"
       y1="19.910812"
       x2="36.534725"
       y2="42.146389"
       gradientUnits="userSpaceOnUse" />
    <linearGradient
       inkscape:collect="always"
       xlink:href="#linearGradient1314"
       id="linearGradient1316"
       x1="12.123056"
       y1="24.58793"
       x2="29.971371"
       y2="36.475136"
       gradientUnits="userSpaceOnUse" />
  </defs>
  <sodipodi:namedview
     id="namedview22"
     pagecolor="#ffffff"
     bordercolor="#666666"
     borderopacity="1.0"
     inkscape:pageshadow="2"
     inkscape:pageopacity="0.0"
     inkscape:pagecheckerboard="0"
     inkscape:document-units="pt"
     showgrid="false"
     inkscape:zoom="14.451495"
     inkscape:cx="29.512518"
     inkscape:cy="27.540404"
     inkscape:window-width="1600"
     inkscape:window-height="836"
     inkscape:window-x="0"
     inkscape:window-y="0"
     inkscape:window-maximized="1"
     inkscape:current-layer="svg20" />
  <rect
     x="-46.783188"
     y="1.2253767"
     height="45.80014"
     rx="6.1837621"
     shape-rendering="crispEdges"
     id="rect5-6-7-3"
     ry="6.8055277"
     transform="matrix(0.00524063,-0.99998627,0.99998801,0.00489691,0,0)"
     style="isolation:isolate;fill:#d200ff;fill-opacity:0.13470298;stroke:url(#linearGradient872);stroke-width:2.0301;stroke-miterlimit:4;stroke-dasharray:none;stroke-opacity:1"
     width="45.801998" />
  <rect
     x="-15.686804"
     y="17.260084"
     height="33.345856"
     rx="6.7920032"
     shape-rendering="crispEdges"
     id="rect5-6-6-6-6"
     style="isolation:isolate;fill:#d200ff;fill-opacity:0.13470298;stroke:url(#linearGradient15);stroke-width:1.67233;stroke-miterlimit:4;stroke-dasharray:none;stroke-opacity:1"
     ry="7.4743071"
     transform="matrix(0.72446484,-0.68931175,0.68622417,0.72739012,0,0)"
     width="33.338203" />
  <path
     style="color:#000000;fill:url(#linearGradient862);-inkscape-stroke:none;fill-opacity:1"
     d="m 14.171875,13.425781 c -0.547001,0 -1.068406,0.222703 -1.453125,0.607422 l -0.002,0.002 c -0.382086,0.38835 -0.59375,0.912103 -0.59375,1.455078 v 1.28711 l 2.896484,2.464843 V 17.322266 L 22.541016,23.726562 29.3125,17.957031 28.664062,17.195312 24,21.167969 l -8.509766,-7.25 -0.002,-0.002 c -0.363938,-0.312939 -0.830696,-0.490235 -1.316406,-0.490235 z m 19.574219,0 -0.02539,0.002 -0.02344,0.002 h -0.05273 l -0.02734,0.0039 c -0.414133,0.04392 -0.8051,0.21443 -1.117187,0.49414 l -1.792969,1.527344 v 3.804688 l 2.273438,-1.9375 v 13.570312 0.0098 0.002 c 0.0029,0.212243 -0.07928,0.41493 -0.222657,0.566406 -0.133642,0.131294 -0.312122,0.207031 -0.5,0.207031 h -0.0039 -1.546875 v 2.896485 h 1.546875 c 0.967167,0 1.893169,-0.385724 2.574219,-1.072266 l 0.002,-0.002 0.002,-0.002 c 0.678168,-0.700044 1.049369,-1.63776 1.044922,-2.609375 v -0.0039 -15.398438 c 0,-0.546439 -0.21852,-1.072037 -0.605469,-1.458984 -0.383731,-0.383733 -0.906222,-0.601563 -1.453125,-0.601563 z m -19.574219,1 c 0.243495,0 0.478361,0.08796 0.664063,0.248047 l 0.002,0.002 8.392578,7.150391 -0.689453,0.58789 -8.521485,-7.257812 v 1.923828 l -0.896484,-0.763672 v -0.826172 c 0,-0.281032 0.109551,-0.552623 0.304687,-0.751953 0.202878,-0.201908 0.46713,-0.3125 0.744141,-0.3125 z m 19.625,0 h 0.02148 c 0.277987,0 0.551456,0.113955 0.746094,0.308594 0.200905,0.200904 0.3125,0.473503 0.3125,0.751953 v 15.404297 c 0.004,0.713807 -0.26626,1.39577 -0.761719,1.908203 -0.494463,0.497454 -1.160644,0.775391 -1.861328,0.775391 h -0.546875 v -0.896485 h 0.546875 0.0039 c 0.454723,0 0.891903,-0.180963 1.212891,-0.501953 l 0.0039,-0.0039 0.002,-0.0039 c 0.327526,-0.340625 0.509887,-0.79832 0.503907,-1.275391 -8e-6,-6.32e-4 8e-6,-0.0013 0,-0.002 V 15.15625 l -2.273438,1.9375 v -1.177734 l 1.455078,-1.238282 0.0039,-0.0059 c 0.151191,-0.135763 0.343452,-0.219065 0.552734,-0.242187 h 0.0293 z"
     id="path9" />
  <path
     style="color:#000000;fill:url(#linearGradient1316);fill-rule:evenodd;-inkscape-stroke:none;fill-opacity:1"
     d="m 31.705078,14.601563 -10.087891,8.599609 -0.0078,0.0059 -0.0293,0.01758 -0.03125,0.03125 c -0.03797,0.03657 -0.07603,0.04573 -0.119141,0.05273 -0.06257,-0.009 -0.128027,-0.03143 -0.179687,-0.07617 l -9.126953,-7.767578 v 15.427734 0.01953 0.0059 c 0.01107,0.481531 0.12145,0.956324 0.333984,1.392578 0.19234,0.400052 0.445531,0.766182 0.75586,1.08789 0.306545,0.322679 0.666481,0.597744 1.068359,0.804688 0.441255,0.236784 0.928412,0.359901 1.419922,0.371094 h 0.0059 0.02539 15.972656 v -0.5 z m -1,2.166015 v 16.806641 h -14.972656 -0.0078 c -0.34143,-0.0078 -0.677317,-0.09383 -0.974609,-0.253907 l -0.0039,-0.002 -0.0039,-0.002 C 14.443993,33.16328 14.170415,32.95611 13.9375,32.710937 l -0.002,-0.002 v -0.002 c -0.23757,-0.245763 -0.429904,-0.521285 -0.578125,-0.830078 v -0.002 l -0.002,-0.002 c -0.147762,-0.3033 -0.224528,-0.633205 -0.232422,-0.976563 v -0.0039 -13.263672 l 7.427734,6.320313 c -0.0036,-0.0038 0.0082,0.01014 0.0039,0.0059 l 0.0098,0.0098 0.0098,0.0078 c 0.224811,0.20233 0.515355,0.330255 0.832031,0.345703 l 0.02539,0.002 0.02539,-0.002 c 0.293393,-0.01589 0.575277,-0.139686 0.785156,-0.341797 l -0.06836,0.05469 c 0.05636,-0.03765 0.0652,-0.04608 0.03711,-0.02734 l 0.02344,-0.01758 z m -0.894531,1.939453 -6.962891,5.933594 -0.0059,0.0059 c -0.385457,0.354926 -0.893153,0.553656 -1.416016,0.56836 -0.532597,-0.01899 -1.046129,-0.21718 -1.441406,-0.566407 l -0.0039,-0.002 -5.962891,-5.076172 v 11.316407 l 0.002,0.0098 c 0.0071,0.206709 0.05548,0.406445 0.142578,0.587891 h 0.002 v 0.002 c 0.105299,0.216451 0.244522,0.421338 0.419921,0.603516 0.001,0.0011 9.2e-4,0.0028 0.002,0.0039 0.16286,0.173533 0.356218,0.314241 0.570312,0.423828 0.184767,0.105293 0.383467,0.153181 0.566406,0.160156 h 0.0098 14.078125 v -0.5 z m -1,2.166016 V 31.677734 H 15.759766 c -0.05858,-0.0022 -0.08981,-0.01383 -0.109375,-0.02539 l -0.01563,-0.0078 -0.01563,-0.0098 c -0.117654,-0.05882 -0.2211,-0.134541 -0.308594,-0.228516 l -0.002,-0.0039 -0.0039,-0.0039 c -0.09747,-0.100826 -0.175722,-0.215638 -0.240235,-0.347656 -0.02668,-0.05559 -0.04452,-0.1212 -0.04687,-0.189453 v -9.126953 l 4.304688,3.664062 c 0.577519,0.510237 1.319477,0.799937 2.089843,0.822266 h 0.01172 0.01367 c 0.76982,-0.01685 1.509687,-0.314015 2.078125,-0.835937 z"
     id="path16" />
</svg>
