<?xml version="1.0" encoding="UTF-8" standalone="no"?>
<svg
   style="isolation:isolate"
   viewBox="0 0 48 48"
   width="48pt"
   height="48pt"
   version="1.1"
   id="svg9"
   sodipodi:docname="pureref.svg"
   inkscape:version="1.1.2 (0a00cf5339, 2022-02-04)"
   xmlns:inkscape="http://www.inkscape.org/namespaces/inkscape"
   xmlns:sodipodi="http://sodipodi.sourceforge.net/DTD/sodipodi-0.dtd"
   xmlns:xlink="http://www.w3.org/1999/xlink"
   xmlns="http://www.w3.org/2000/svg"
   xmlns:svg="http://www.w3.org/2000/svg">
  <sodipodi:namedview
     id="namedview9"
     pagecolor="#ffffff"
     bordercolor="#666666"
     borderopacity="1.0"
     inkscape:pageshadow="2"
     inkscape:pageopacity="0.0"
     inkscape:pagecheckerboard="0"
     inkscape:document-units="pt"
     showgrid="false"
     width="48pt"
     inkscape:zoom="10.418419"
     inkscape:cx="30.570856"
     inkscape:cy="31.386719"
     inkscape:window-width="1600"
     inkscape:window-height="836"
     inkscape:window-x="0"
     inkscape:window-y="0"
     inkscape:window-maximized="1"
     inkscape:current-layer="svg9" />
  <defs
     id="defs13">
    <linearGradient
       xlink:href="#_lgradient_1"
       id="linearGradient31258"
       x1="12.150736"
       y1="13.284685"
       x2="63.166992"
       y2="70.070312"
       gradientUnits="userSpaceOnUse"
       gradientTransform="matrix(0.35126324,0,0,0.35126324,12.2506,8.2416377)" />
    <linearGradient
       inkscape:collect="always"
       xlink:href="#_lgradient_1"
       id="linearGradient872"
       x1="-12.025727"
       y1="6.1170783"
       x2="-0.085100174"
       y2="6.1170783"
       gradientUnits="userSpaceOnUse"
       gradientTransform="matrix(3.8354158,0,0,3.8367332,-0.00796519,-1.3110749e-4)" />
    <linearGradient
       id="_lgradient_21"
       x1="0"
       y1="0.5"
       x2="1"
       y2="0.5"
       gradientTransform="matrix(28.183272,0,0,28.298876,9.8766106,9.8505561)"
       gradientUnits="userSpaceOnUse">
      <stop
         offset="0%"
         stop-opacity="1"
         style="stop-color:rgb(255,224,49)"
         id="stop2-3" />
      <stop
         offset="98.69565217391305%"
         stop-opacity="1"
         style="stop-color:rgb(252,82,82)"
         id="stop4-6" />
    </linearGradient>
    <linearGradient
       inkscape:collect="always"
       xlink:href="#_lgradient_1"
       id="linearGradient15"
       x1="-9.6850061"
       y1="45.161198"
       x2="11.98815"
       y2="21.735205"
       gradientUnits="userSpaceOnUse"
       gradientTransform="matrix(1.1146264,0,0,1.114917,-0.01226592,-3.3238595)" />
    <linearGradient
       inkscape:collect="always"
       xlink:href="#_lgradient_1"
       id="linearGradient964"
       x1="13.506778"
       y1="22.295254"
       x2="36.861668"
       y2="22.295254"
       gradientUnits="userSpaceOnUse" />
  </defs>
  <linearGradient
     id="_lgradient_1"
     x1="0.67180997"
     y1="0.020570019"
     x2="0.42214948"
     y2="0.96016449"
     gradientTransform="matrix(42,0,0,42,62.548828,3)"
     gradientUnits="userSpaceOnUse">
    <stop
       offset="0%"
       stop-opacity="1"
       style="stop-color:rgb(26,108,255)"
       id="stop2" />
    <stop
       offset="100%"
       stop-opacity="1"
       style="stop-color:rgb(197,34,255)"
       id="stop4" />
  </linearGradient>
  <rect
     x="-46.780766"
     y="1.2277964"
     height="45.7953"
     rx="6.1831088"
     shape-rendering="crispEdges"
     id="rect5-6-7-3"
     ry="6.8048086"
     transform="matrix(0.00524063,-0.99998627,0.99998801,0.00489691,0,0)"
     style="isolation:isolate;fill:#0083ff;fill-opacity:0.13470298;stroke:url(#linearGradient872);stroke-width:2.02989;stroke-miterlimit:4;stroke-dasharray:none;stroke-opacity:1"
     width="45.797157" />
  <rect
     x="-15.685041"
     y="17.261845"
     height="33.342331"
     rx="6.7912855"
     shape-rendering="crispEdges"
     id="rect5-6-6-6-6"
     style="isolation:isolate;fill:#0083ff;fill-opacity:0.13470298;stroke:url(#linearGradient15);stroke-width:1.67215;stroke-miterlimit:4;stroke-dasharray:none;stroke-opacity:1"
     ry="7.4735174"
     transform="matrix(0.72446484,-0.68931176,0.68622417,0.72739012,0,0)"
     width="33.334682" />
  <path
     style="color:#000000;fill:url(#linearGradient964);-inkscape-stroke:none"
     d="M 24.28125,9.1054688 C 18.059929,9.1047072 13.005095,14.159388 13.005859,20.380859 v 6.986328 8.117188 h 7.791016 v -4.527344 c 1.128717,0.380761 2.286213,0.690979 3.480469,0.701172 h 0.002 0.002 c 1.294755,1.65e-4 2.513449,-0.283426 3.669922,-0.685547 l 1.662109,1.935547 2.34961,2.736328 5.603515,-4.822265 -2.355469,-2.728516 -1.455078,-1.691406 c 1.11201,-1.747548 1.801068,-3.796936 1.800782,-6.019532 C 35.557392,14.338657 30.757589,9.4851246 24.78125,9.2089844 V 9.1054688 Z m -0.0098,1.0019532 h 0.0098 c 5.680803,-6.96e-4 10.276097,4.594405 10.275391,10.27539 2.78e-4,2.160921 -0.665383,4.162526 -1.802735,5.816407 l -0.21875,0.316406 1.919922,2.230469 1.701172,1.970703 -4.087891,3.517578 -1.695312,-1.978516 -2.074219,-2.414062 -0.330078,0.126953 c -1.145672,0.440896 -2.38463,0.689112 -3.683594,0.689453 -1.303768,-0.01113 -2.593807,-0.272095 -3.800781,-0.765625 l -0.6875,-0.28125 v 0.783203 0.525391 3.564453 h -5.791016 v -7.117188 -6.986328 c -6.97e-4,-5.677518 4.589656,-10.268531 10.265625,-10.273437 z m -0.490234,0.5625 v 0.101562 c -5.112865,0.275067 -9.213025,4.430555 -9.212891,9.611328 v 5.560547 0.02539 1.398437 6.554688 h 4.296875 v -5.652344 c 1.603169,1.107233 3.450569,1.817064 5.414063,1.824219 h 0.002 c 5.357978,9.9e-5 9.712974,-4.354781 9.712891,-9.712891 8.3e-5,-5.358096 -4.354914,-9.71102 -9.712891,-9.710937 z m 0.5,1 c 4.817501,-7.5e-5 8.712965,3.89332 8.712891,8.710937 7.4e-5,4.816967 -3.894359,8.711903 -8.710938,8.712891 -2.049622,-0.0075 -4.029967,-0.741953 -5.59375,-2.068359 l -0.824219,-0.697266 v 6.59375 h -2.296875 v -5.554688 -1.398437 -0.02539 -5.560547 c -1.25e-4,-4.817626 3.895393,-8.712979 8.712891,-8.71289 z m 0,2.296875 c -3.537733,-6.4e-4 -6.416567,2.878214 -6.416016,6.416015 -5.51e-4,3.537802 2.878282,6.416656 6.416016,6.416016 3.537734,6.41e-4 6.416567,-2.878214 6.416016,-6.416016 5.51e-4,-3.537801 -2.878282,-6.416656 -6.416016,-6.416015 z m 0,1 c 2.997161,-5.43e-4 5.416483,2.418759 5.416016,5.416015 4.67e-4,2.997257 -2.418854,5.416559 -5.416016,5.416016 -2.997161,5.42e-4 -5.416483,-2.418759 -5.416016,-5.416016 -4.67e-4,-2.997256 2.418855,-5.416557 5.416016,-5.416015 z m -0.0059,0.931641 -0.433594,0.0039 -0.0098,0.07813 c -0.112047,0.01191 -0.225003,0.01092 -0.335937,0.03125 -0.255257,0.04465 -0.506259,0.111226 -0.75,0.199218 -0.4922,0.177652 -0.94985,0.441994 -1.351563,0.777344 h -0.002 c -0.200336,0.168051 -0.384684,0.35435 -0.552734,0.554688 -0.33571,0.402146 -0.59968,0.860707 -0.777344,1.353515 -0.08842,0.244926 -0.154564,0.495414 -0.199219,0.751953 -0.04647,0.254812 -0.0704,0.512473 -0.07227,0.771485 v 0.0039 0.0039 c 0.0019,0.260312 0.02534,0.519337 0.07227,0.775391 0.03803,0.217389 0.10038,0.429332 0.169922,0.638672 v 0.04492 l 0.03125,0.08398 c 0.179281,0.487365 0.441229,0.938446 0.775391,1.335938 0.168016,0.200605 0.352364,0.386391 0.552734,0.554687 0.197996,0.167798 0.410768,0.318127 0.634766,0.449219 l 0.117187,0.06836 h 0.04102 c 0.183098,0.0956 0.367862,0.188303 0.5625,0.257813 0.220196,0.08003 0.445822,0.14281 0.675781,0.1875 0.0344,0.0084 0.06893,0.01587 0.103516,0.02344 l 0.01172,0.0039 0.01367,0.002 c 0.239446,0.03913 0.481989,0.05866 0.72461,0.05859 h 0.002 c 0.223179,-7.66e-4 0.445512,-0.02467 0.666015,-0.05859 0.0098,3.2e-5 0.01952,3.2e-5 0.0293,0 h 0.05664 l 0.05664,-0.01367 c 0.0048,-0.0011 0.0089,-0.0028 0.01367,-0.0039 l 0.02344,-0.0059 c 0.212693,-0.04217 0.422567,-0.0994 0.626953,-0.171875 h 0.002 0.002 c 0.02085,-0.0076 0.04177,-0.01556 0.0625,-0.02344 l 0.0039,-0.002 c 0.200604,-0.07474 0.394191,-0.166966 0.582031,-0.269531 7.6e-4,-4.15e-4 0.0012,-0.0015 0.002,-0.002 l 0.03711,-0.01172 0.0332,-0.01953 c 0.02718,-0.01439 0.05516,-0.02802 0.08203,-0.04297 l 0.0078,-0.0059 0.0098,-0.0039 c 0.006,-0.0036 0.0116,-0.008 0.01758,-0.01172 l 0.0059,-0.0039 c 0.195141,-0.117539 0.381592,-0.248736 0.556641,-0.394532 l 0.01758,-0.01563 0.01563,-0.01563 -0.02539,0.02148 c 0.200638,-0.168261 0.386427,-0.354049 0.554688,-0.554688 l -0.02148,0.02539 0.01758,-0.01758 0.01563,-0.01953 c 0.146927,-0.178602 0.274942,-0.371266 0.392578,-0.570313 l 0.02734,-0.02539 0.03906,-0.06836 c 0.121122,-0.21397 0.224126,-0.437065 0.308594,-0.667969 l 0.002,-0.0039 c 0.0079,-0.02097 0.01587,-0.04141 0.02344,-0.0625 v -0.002 -0.002 c 0.0741,-0.211677 0.132188,-0.42808 0.173829,-0.648438 l 0.002,-0.0059 c 0.0027,-0.01248 0.0052,-0.02656 0.0078,-0.03906 l 0.002,-0.0078 0.002,-0.0078 c 0.04376,-0.25143 0.06598,-0.506508 0.06641,-0.761718 -3e-6,-0.0024 -3e-6,-0.0054 0,-0.0078 v -0.0078 c -3e-6,-0.0024 -3e-6,-0.0054 0,-0.0078 v -0.0078 c -3e-6,-0.0024 -3e-6,-0.0054 0,-0.0078 v -0.002 c -3e-6,-0.0024 -3e-6,-0.0035 0,-0.0059 v -0.0098 c -3e-6,-0.0024 -3e-6,-0.0035 0,-0.0059 v -0.0098 c -3e-6,-0.0024 -3e-6,-0.0035 0,-0.0059 v -0.002 c -3e-6,-0.0024 -3e-6,-0.0054 0,-0.0078 v -0.0078 c -3e-6,-0.0024 -3e-6,-0.0054 0,-0.0078 v -0.0078 c -3e-6,-0.0024 -3e-6,-0.0054 0,-0.0078 -3e-6,-0.0024 -3e-6,-0.0054 0,-0.0078 v -0.0098 l -0.002,-0.01172 c -0.0022,-0.05153 -0.0038,-0.102876 -0.0078,-0.154297 l -0.002,-0.0078 v -0.0059 c -0.0019,-0.01758 -0.0038,-0.03517 -0.0059,-0.05273 l -0.002,-0.02148 c -0.01206,-0.146583 -0.03219,-0.292803 -0.05859,-0.4375 v -0.0059 l -0.002,-0.0059 c -0.0076,-0.03654 -0.01489,-0.07304 -0.02344,-0.109375 v -0.002 c -0.01123,-0.04847 -0.02427,-0.09647 -0.03711,-0.144531 l -0.002,-0.0078 c -0.02058,-0.08059 -0.04333,-0.160917 -0.06836,-0.240234 L 28.5625,19.0625 c -0.01262,-0.04285 -0.02516,-0.08645 -0.03906,-0.128906 l -0.002,-0.0039 -0.002,-0.0039 c -0.01318,-0.0379 -0.02683,-0.07575 -0.04102,-0.113281 l -0.002,-0.0059 c -0.0247,-0.06767 -0.05019,-0.134771 -0.07813,-0.201172 l -0.01172,-0.02539 -0.01367,-0.02539 c -0.003,-0.0053 -0.0067,-0.0103 -0.0098,-0.01563 -0.01997,-0.04603 -0.03904,-0.09138 -0.06055,-0.136718 l -0.0039,-0.0078 -0.0059,-0.0078 c -0.0071,-0.01359 -0.01428,-0.0275 -0.02148,-0.04102 l -0.01367,-0.0332 -0.01563,-0.03125 c -0.03632,-0.06583 -0.07565,-0.131392 -0.115234,-0.195313 l -0.01172,-0.01953 c -0.01326,-0.02311 -0.02734,-0.04549 -0.04102,-0.06836 v -0.002 -0.002 c -0.02873,-0.04739 -0.05938,-0.09433 -0.08984,-0.140625 l -0.0078,-0.0098 -0.0078,-0.01172 c -0.01132,-0.0154 -0.02169,-0.02967 -0.0332,-0.04492 l -0.0039,-0.0059 c -0.0328,-0.04466 -0.06713,-0.08745 -0.101563,-0.130859 -0.0015,-0.0018 -0.0024,-0.004 -0.0039,-0.0059 l -0.01172,-0.01953 -0.01563,-0.01953 c -0.02406,-0.03017 -0.04939,-0.0603 -0.07422,-0.08984 v -0.002 c -0.08368,-0.09885 -0.171751,-0.193924 -0.263672,-0.285156 l -0.0078,-0.0078 c -0.03867,-0.04003 -0.07901,-0.07862 -0.119141,-0.117187 l -0.0059,-0.0059 -0.0059,-0.0059 c -0.01611,-0.01453 -0.03251,-0.02868 -0.04883,-0.04297 l -0.01563,-0.01367 -0.0078,-0.0078 -0.0078,-0.0059 c -0.061,-0.05288 -0.123734,-0.104786 -0.1875,-0.154297 l -0.01172,-0.0098 c -0.02039,-0.01655 -0.04182,-0.03264 -0.0625,-0.04883 l -0.0078,-0.0078 -0.0098,-0.0059 c -0.04118,-0.0293 -0.08285,-0.05805 -0.125,-0.08594 l -0.01563,-0.01172 c -0.04083,-0.02886 -0.08323,-0.05651 -0.125,-0.08398 l -0.0098,-0.0059 -0.0098,-0.0078 c -0.0063,-0.0037 -0.01325,-0.0061 -0.01953,-0.0098 l -0.0039,-0.0059 -0.06641,-0.03906 c -0.07017,-0.04097 -0.140598,-0.08009 -0.212891,-0.117188 l -0.01563,-0.0078 c -0.02176,-0.01199 -0.0425,-0.02353 -0.06445,-0.03516 l -0.0098,-0.0059 -0.0078,-0.0039 c -0.04909,-0.02363 -0.09852,-0.04653 -0.148438,-0.06836 l -0.01367,-0.0059 c -7.65e-4,-4.11e-4 -0.0012,-0.0015 -0.002,-0.002 l -0.01953,-0.01172 -0.02148,-0.0078 c -0.03214,-0.01356 -0.06521,-0.02625 -0.09766,-0.03906 l -0.01367,-0.01367 -0.103515,-0.03711 c -0.07919,-0.02886 -0.159544,-0.05573 -0.240235,-0.08008 l -0.0039,-0.002 c -0.0819,-0.02526 -0.164831,-0.04783 -0.248047,-0.06836 l -0.01367,-0.0039 C 25.305783,16.022821 25.259039,16.010877 25.212891,16 h -0.0039 c -0.03317,-0.0081 -0.06626,-0.01614 -0.09961,-0.02344 l -0.05078,-0.01172 h -0.05469 c -0.0019,-3.24e-4 -0.004,3.21e-4 -0.0059,0 -0.113369,-0.01913 -0.227282,-0.03652 -0.341797,-0.04687 l -0.02344,-0.0039 c -0.01686,-0.0022 -0.03389,-0.0039 -0.05078,-0.0059 l -0.01172,-0.002 h -0.0098 c -0.05168,-0.0037 -0.10447,-0.0059 -0.15625,-0.0078 h -0.0059 -0.0059 c -0.03938,-5.19e-4 -0.07781,-5.19e-4 -0.117187,0 z m 0.439453,1.035156 c 0.0571,0.0077 0.115211,0.01295 0.171875,0.02344 l 0.04492,0.0078 h 0.01367 c 0.01047,0.0024 0.02081,0.0053 0.03125,0.0078 h 0.002 0.002 c 0.04038,0.0095 0.08108,0.02033 0.121093,0.03125 l 0.0059,0.002 0.0078,0.002 c 0.06936,0.01688 0.136884,0.03553 0.205078,0.05664 h 0.002 l 0.002,0.002 c 0.03021,0.0091 0.05989,0.01939 0.08984,0.0293 l 0.0039,0.0039 0.105468,0.03711 c 0.04538,0.01656 0.09012,0.0343 0.134766,0.05273 0.0057,0.0031 0.01189,0.0066 0.01758,0.0098 l 0.01953,0.0098 0.02148,0.0098 c 0.04184,0.01813 0.08391,0.03884 0.125,0.05859 5.28e-4,2.54e-4 0.0014,-2.54e-4 0.002,0 0.01515,0.0081 0.0299,0.01703 0.04492,0.02539 l 0.0078,0.0039 0.0098,0.0039 c 0.03978,0.02022 0.07821,0.04272 0.117187,0.06445 l 0.0059,0.0059 0.06836,0.03906 c 0.02335,0.01313 0.04727,0.02735 0.07031,0.04102 0.03022,0.02016 0.06026,0.0414 0.08984,0.0625 l 0.0078,0.0059 0.0078,0.0039 c 0.03707,0.0243 0.07326,0.05048 0.109375,0.07617 0.01319,0.01046 0.02603,0.0206 0.03906,0.03125 l 0.0059,0.0039 0.0059,0.0059 c 0.04947,0.03814 0.09718,0.07644 0.144531,0.117187 0.002,0.0019 0.0039,0.004 0.0059,0.0059 0.0011,9.37e-4 0.0028,0.001 0.0039,0.002 l 0.0039,0.0059 0.0098,0.0078 c 0.01735,0.01503 0.03373,0.02955 0.05078,0.04492 0.02946,0.02856 0.0575,0.05831 0.08594,0.08789 l 0.0059,0.0039 0.0039,0.0059 c 0.07419,0.07318 0.145559,0.148983 0.21289,0.228515 h -0.002 c 0.01335,0.01588 0.02795,0.03076 0.04102,0.04687 0.0012,0.0014 0.0028,0.0025 0.0039,0.0039 l 0.01172,0.01953 0.01563,0.02148 c 0.03336,0.04145 0.06623,0.08402 0.09766,0.126953 l 0.002,0.002 0.0039,0.0039 c 0.0048,0.0063 0.0089,0.0132 0.01367,0.01953 0.02367,0.03597 0.04799,0.07255 0.07031,0.109375 0.01289,0.02162 0.02469,0.04451 0.03711,0.06641 l 0.0059,0.0098 0.0059,0.0078 c 0.02932,0.04681 0.05693,0.09443 0.08398,0.142578 l 0.0039,0.01172 0.01758,0.0332 c 0.01141,0.02088 0.02222,0.04139 0.0332,0.0625 0.01713,0.03658 0.03298,0.07222 0.04883,0.109375 l 0.01172,0.0293 0.01563,0.02539 c 0.0012,0.002 0.0027,0.0038 0.0039,0.0059 0.0187,0.04537 0.03597,0.0906 0.05273,0.136719 l 0.002,0.0039 v 0.0039 c 0.01163,0.03064 0.02439,0.06084 0.03516,0.0918 0.01061,0.03274 0.01966,0.06657 0.0293,0.09961 l 0.002,0.0059 0.002,0.0059 c 0.02122,0.0666 0.04142,0.133414 0.05859,0.201172 v 0.0039 l 0.002,0.0039 c 0.01071,0.03982 0.02001,0.07897 0.0293,0.11914 v 0.002 c 0.0068,0.02871 0.0135,0.05901 0.01953,0.08789 0.02024,0.113474 0.03406,0.228823 0.04297,0.34375 l 0.002,0.0098 0.002,0.01172 c 0.0018,0.01453 0.0023,0.02842 0.0039,0.04297 0.0027,0.03546 0.0062,0.07189 0.0078,0.107422 v 0.0078 c 0,6.15e-4 -1e-6,0.0013 0,0.002 5.6e-5,0.0013 -5.5e-5,0.0026 0,0.0039 v 0.002 c -3e-6,0.0031 -3e-6,0.0067 0,0.0098 v 0.0059 c -3e-6,0.0031 -3e-6,0.0067 0,0.0098 -2e-6,0.0025 -3e-6,0.0054 0,0.0078 v 0.0059 c -3e-6,0.0031 -3e-6,0.0067 0,0.0098 v 0.0059 c -3e-6,0.0031 -3e-6,0.0067 0,0.0098 -2e-6,0.0025 -3e-6,0.0054 0,0.0078 v 0.0078 c -2e-6,0.0025 -3e-6,0.0054 0,0.0078 v 0.0078 c -2e-6,0.0025 -3e-6,0.0054 0,0.0078 -4.43e-4,0.197644 -0.01884,0.395124 -0.05273,0.589843 -0.0013,0.0059 -0.0026,0.01167 -0.0039,0.01758 l -0.002,0.0078 v 0.0078 c -0.0325,0.175452 -0.07972,0.349162 -0.138672,0.517578 -0.0058,0.0161 -0.01155,0.03282 -0.01758,0.04883 v 0.002 l -0.002,0.002 c -0.06195,0.169851 -0.139062,0.334018 -0.226563,0.492188 l -0.01367,0.02344 c -0.0061,0.01003 -0.01328,0.01933 -0.01953,0.0293 l -0.0039,0.0098 -0.0059,0.0078 c -0.09491,0.165772 -0.203474,0.32271 -0.324219,0.470703 l -0.01367,0.01563 c -0.130737,0.155893 -0.275749,0.300905 -0.431641,0.431641 l -0.01563,0.01367 c -0.134597,0.111287 -0.276026,0.212853 -0.425781,0.302734 l -0.0039,0.002 -0.002,0.002 c -4.95e-4,3.06e-4 -0.0015,-3.05e-4 -0.002,0 -0.01044,0.0058 -0.02075,0.01188 -0.03125,0.01758 l -0.02539,0.0078 -0.04102,0.02344 c -0.161838,0.09176 -0.331462,0.171548 -0.505859,0.236329 h -0.002 l -0.002,0.002 c -0.01715,0.0065 -0.03353,0.01132 -0.05078,0.01758 -0.163577,0.0578 -0.331593,0.103894 -0.501953,0.136719 h -0.0078 l -0.04297,0.0059 c -0.192743,0.03355 -0.388346,0.05195 -0.583984,0.05273 -0.184608,5.1e-5 -0.368502,-0.01577 -0.550782,-0.04492 -0.0222,-0.005 -0.04431,-0.0083 -0.06641,-0.01367 l -0.01367,-0.0039 -0.01172,-0.002 c -0.185534,-0.03494 -0.367484,-0.0859 -0.544922,-0.15039 h -0.002 -0.002 C 22.895159,23.629259 22.711252,23.54342 22.535156,23.443359 L 22.5,23.423828 c -0.161759,-0.09723 -0.316997,-0.204035 -0.460938,-0.326172 l -0.002,-0.002 C 21.881425,22.96494 21.736015,22.81993 21.605469,22.664062 21.352267,22.362873 21.15655,22.018361 21.017578,21.650391 l -0.01367,-0.03711 c -0.0687,-0.190305 -0.121554,-0.386608 -0.15625,-0.585937 v -0.002 -0.002 c -0.03599,-0.196398 -0.05475,-0.396051 -0.05664,-0.595703 v -0.0078 c 0.0019,-0.199652 0.02065,-0.399304 0.05664,-0.595703 v -0.002 -0.002 c 0.0347,-0.199328 0.08755,-0.395633 0.15625,-0.585937 0.137742,-0.38207 0.341541,-0.73686 0.601563,-1.048828 l 0.002,-0.002 c 0.129804,-0.154494 0.273189,-0.297991 0.427734,-0.427735 0.312467,-0.260847 0.667873,-0.465475 1.050781,-0.603515 0.190303,-0.0687 0.386612,-0.121556 0.585938,-0.15625 h 0.002 0.002 c 0.19895,-0.03646 0.401258,-0.05518 0.603516,-0.05664 l 0.435547,-0.0039 z"
     id="path1192" />
</svg>
