<?xml version="1.0" encoding="UTF-8" standalone="no"?>
<!-- Generator: Gravit.io -->

<svg
   style="isolation:isolate"
   viewBox="0 0 48 48"
   width="48pt"
   height="48pt"
   version="1.1"
   id="svg16"
   sodipodi:docname="putty.svg"
   inkscape:version="1.1.2 (0a00cf5339, 2022-02-04)"
   xmlns:inkscape="http://www.inkscape.org/namespaces/inkscape"
   xmlns:sodipodi="http://sodipodi.sourceforge.net/DTD/sodipodi-0.dtd"
   xmlns:xlink="http://www.w3.org/1999/xlink"
   xmlns="http://www.w3.org/2000/svg"
   xmlns:svg="http://www.w3.org/2000/svg">
  <defs
     id="defs20">
    <linearGradient
       inkscape:collect="always"
       xlink:href="#_lgradient_51"
       id="linearGradient872"
       x1="-12.025727"
       y1="6.1170783"
       x2="-0.085100174"
       y2="6.1170783"
       gradientUnits="userSpaceOnUse"
       gradientTransform="matrix(3.8358211,0,0,3.8371386,-0.00544341,-0.00268054)" />
    <linearGradient
       id="_lgradient_21"
       x1="0"
       y1="0.5"
       x2="1"
       y2="0.5"
       gradientTransform="matrix(28.183272,0,0,28.298876,9.8766106,9.8505561)"
       gradientUnits="userSpaceOnUse">
      <stop
         offset="0%"
         stop-opacity="1"
         style="stop-color:rgb(255,224,49)"
         id="stop2-3" />
      <stop
         offset="98.69565217391305%"
         stop-opacity="1"
         style="stop-color:rgb(252,82,82)"
         id="stop4-6" />
    </linearGradient>
    <linearGradient
       inkscape:collect="always"
       xlink:href="#_lgradient_51"
       id="linearGradient15"
       x1="-9.6850061"
       y1="45.161198"
       x2="11.98815"
       y2="21.735205"
       gradientUnits="userSpaceOnUse"
       gradientTransform="matrix(1.1147442,0,0,1.1150348,-0.01237238,-3.3277956)" />
    <linearGradient
       inkscape:collect="always"
       xlink:href="#_lgradient_51"
       id="linearGradient1236"
       x1="13.901464"
       y1="24.281904"
       x2="34.420433"
       y2="24.281904"
       gradientUnits="userSpaceOnUse" />
    <linearGradient
       inkscape:collect="always"
       xlink:href="#_lgradient_50"
       id="linearGradient1262"
       x1="21.324327"
       y1="21.345188"
       x2="29.400293"
       y2="25.210262"
       gradientUnits="userSpaceOnUse" />
  </defs>
  <sodipodi:namedview
     id="namedview18"
     pagecolor="#ffffff"
     bordercolor="#666666"
     borderopacity="1.0"
     inkscape:pageshadow="2"
     inkscape:pageopacity="0.0"
     inkscape:pagecheckerboard="0"
     inkscape:document-units="pt"
     showgrid="false"
     inkscape:zoom="10.21875"
     inkscape:cx="31.95107"
     inkscape:cy="32"
     inkscape:window-width="1600"
     inkscape:window-height="836"
     inkscape:window-x="0"
     inkscape:window-y="0"
     inkscape:window-maximized="1"
     inkscape:current-layer="svg16" />
  <linearGradient
     id="_lgradient_50"
     x1="0"
     y1="0.5"
     x2="1"
     y2="0.5"
     gradientTransform="matrix(8.0759661,3.8650732,-5.3799737,11.240392,24.014314,15.724993)"
     gradientUnits="userSpaceOnUse">
    <stop
       offset="0%"
       stop-opacity="1"
       style="stop-color:rgb(255,229,59)"
       id="stop2" />
    <stop
       offset="98.69565217391305%"
       stop-opacity="1"
       style="stop-color:rgb(255,0,91)"
       id="stop4" />
  </linearGradient>
  <rect
     x="-46.783188"
     y="1.2253767"
     height="45.80014"
     rx="6.1837621"
     shape-rendering="crispEdges"
     id="rect5-6-7-3"
     ry="6.8055277"
     transform="matrix(0.00524063,-0.99998627,0.99998801,0.00489691,0,0)"
     style="isolation:isolate;fill:#9d00ff;fill-opacity:0.13470298;stroke:url(#linearGradient872);stroke-width:2.0301;stroke-miterlimit:4;stroke-dasharray:none;stroke-opacity:1"
     width="45.801998" />
  <rect
     x="-15.686804"
     y="17.260084"
     height="33.345856"
     rx="6.7920032"
     shape-rendering="crispEdges"
     id="rect5-6-6-6-6"
     style="isolation:isolate;fill:#9d00ff;fill-opacity:0.13470298;stroke:url(#linearGradient15);stroke-width:1.67233;stroke-miterlimit:4;stroke-dasharray:none;stroke-opacity:1"
     ry="7.4743071"
     transform="matrix(0.72446484,-0.68931175,0.68622417,0.72739012,0,0)"
     width="33.338203" />
  <linearGradient
     id="_lgradient_51"
     x1="0.22078557924020603"
     y1="0.04723996636961164"
     x2="0.9022490870014594"
     y2="0.9061460265379022"
     gradientTransform="matrix(20.518969,0,0,23.021283,13.901464,12.771263)"
     gradientUnits="userSpaceOnUse">
    <stop
       offset="2.608695652173913%"
       stop-opacity="1"
       style="stop-color:rgb(237,184,212)"
       id="stop9" />
    <stop
       offset="98.69565217391305%"
       stop-opacity="1"
       style="stop-color:rgb(162,110,245)"
       id="stop11" />
  </linearGradient>
  <path
     style="color:#000000;fill:url(#linearGradient1236);fill-rule:evenodd;-inkscape-stroke:none"
     d="m 18.40625,12.271484 c -1.099296,0 -2.001953,0.902656 -2.001953,2.001954 v 7.341796 c 0,0.787238 0.532838,1.339925 1.199219,1.666016 h -2.201172 c -1.099297,0 -2,0.902657 -2,2.001953 v 9.007813 c 0,1.099297 0.900704,2.001953 2,2.001953 h 16.015625 c 1.099296,0 2.001953,-0.902656 2.001953,-2.001953 v -9.007813 c 0,-0.78687 -0.53334,-1.341693 -1.199219,-1.667969 h 0.699219 c 1.099296,0 2,-0.900703 2,-2 v -7.341796 c 0,-1.099298 -0.900704,-2.001954 -2,-2.001954 z m 0,1 h 14.513672 c 0.558234,0 1,0.443718 1,1.001954 v 7.341796 c 0,0.558234 -0.441766,1 -1,1 h -2.001953 c -0.281979,0 -0.501953,-0.218021 -0.501953,-0.5 0,-0.281979 0.219974,-0.501953 0.501953,-0.501953 h 1 c 0.546786,0 1,-0.453214 1,-1 v -5.339843 c 0,-0.546786 -0.453213,-1.000001 -1,-1 H 19.40625 c -0.546787,-1e-6 -1,0.453214 -1,1 v 5.339843 c 0,0.546786 0.453214,1 1,1 h 1.001953 c 0.281979,0 0.5,0.219974 0.5,0.501953 0,0.281979 -0.218021,0.5 -0.5,0.5 H 18.40625 c -0.558234,0 -1.001953,-0.441766 -1.001953,-1 v -7.341796 c 0,-0.558236 0.443719,-1.001954 1.001953,-1.001954 z m 1,2.001954 h 12.511719 v 5.339843 h -1 c -0.823042,0 -1.501953,0.678912 -1.501953,1.501953 0,0.511575 0.303353,0.894532 0.699218,1.166016 h -0.199218 c -0.823042,0 -1.5,0.678911 -1.5,1.501953 0,0.823041 0.676958,1.5 1.5,1.5 h 0.5 c 0,0 0.002,0 0.002,0 v 7.007813 c 0,0 -0.002,0 -0.002,0 H 16.404297 c 0,0 -0.002,0 -0.002,0 v -7.007813 c 0,0 0.002,0 0.002,0 h 2.001953 c 0.823042,0 1.5,-0.676959 1.5,-1.5 0,-0.511733 -0.303149,-0.896514 -0.699219,-1.167969 h 1.201172 c 0.823042,0 1.5,-0.676959 1.5,-1.5 0,-0.823041 -0.676958,-1.501953 -1.5,-1.501953 H 19.40625 Z m -4.003906,9.007812 h 3.003906 c 0.281979,0 0.5,0.219974 0.5,0.501953 0,0.281978 -0.218021,0.5 -0.5,0.5 h -2.001953 c -0.546786,0 -1.001953,0.453214 -1.001953,1 v 7.007813 c 0,0.546786 0.455166,1 1.001953,1 h 14.011719 c 0.546787,0 1.001953,-0.453214 1.001953,-1 v -7.007813 c 0,-0.546786 -0.455167,-1 -1.001953,-1 h -0.5 c -0.28198,0 -0.5,-0.218022 -0.5,-0.5 0,-0.281979 0.21802,-0.501953 0.5,-0.501953 h 1.501953 c 0.558234,0 1.001953,0.443719 1.001953,1.001953 v 9.007813 c 0,0.558235 -0.443719,1.001953 -1.001953,1.001953 H 15.402344 c -0.558235,0 -1,-0.443718 -1,-1.001953 v -9.007813 c 0,-0.558234 0.441766,-1.001953 1,-1.001953 z"
     id="path14" />
  <path
     style="color:#000000;fill:url(#linearGradient1262);-inkscape-stroke:none"
     d="m 29.212891,17.738281 c 0,0 0.03516,0.498047 0.03516,0.498047 0,0 0.322265,0.380859 0.322265,0.380859 l -0.0039,0.0039 c 0,0 -0.318359,-0.384766 -0.318359,-0.384766 l -0.335938,-0.367187 c 0.02529,-0.019 0.09379,-0.07033 0.09375,-0.07031 -8.5e-5,4.7e-5 0.02045,-0.01131 0.02539,-0.01367 -0.01363,0.0054 -0.02997,0.01191 -0.05469,0.02148 -0.05677,0.02199 -0.139831,0.05256 -0.242187,0.0918 -0.204711,0.07847 -0.487354,0.186198 -0.798828,0.304688 l -0.002,0.002 -5.623047,2.158203 c -0.423973,0.163041 -0.766757,0.492211 -0.847656,0.919922 -0.0809,0.427711 0.118168,0.857417 0.453125,1.164063 l 2.232421,2.042968 -2.990234,3.449219 -0.02539,0.02344 0.523438,0.830078 1.128906,-0.429688 5.623047,-2.160156 c 0.423931,-0.163025 0.766626,-0.49019 0.847656,-0.917969 0.08103,-0.427778 -0.117836,-0.859378 -0.453125,-1.166015 l -2.216797,-2.029297 3.460938,-3.679688 -0.279297,-0.339844 c -0.03889,-0.04739 -0.07507,-0.08873 -0.105469,-0.123046 -0.0152,-0.01716 -0.02718,-0.03262 -0.04492,-0.05078 -0.0089,-0.0091 -0.01742,-0.01683 -0.04102,-0.03711 -0.0118,-0.01014 -0.06774,-0.0504 -0.06836,-0.05078 -3.11e-4,-1.9e-4 -0.124796,-0.05463 -0.125,-0.05469 -1.01e-4,-2.8e-5 -0.169847,-0.01563 -0.169921,-0.01563 z m -0.16211,0.03711 c -4.79e-4,1.95e-4 -0.005,0.0032 -0.01172,0.0059 0.0022,-9.89e-4 0.0066,-0.0014 0.0078,-0.002 0.0053,-0.0023 0.0041,-0.004 0.0039,-0.0039 z m -1.232422,1.544921 -2.65625,2.824219 2.964844,2.712891 c 0.156666,0.143278 0.151033,0.21622 0.146484,0.240234 -0.0045,0.02401 -0.02647,0.09568 -0.224609,0.171875 l -4.876953,1.875 2.369141,-2.734375 -2.949219,-2.699219 C 22.4353,21.567668 22.440758,21.492831 22.445312,21.46875 c 0.0046,-0.02408 0.02651,-0.09569 0.22461,-0.171875 z"
     id="path7" />
</svg>
