<?xml version="1.0" encoding="UTF-8" standalone="no"?>
<!-- Generator: Gravit.io -->

<svg
   style="isolation:isolate"
   viewBox="0 0 48 48"
   width="48pt"
   height="48pt"
   version="1.1"
   id="svg16"
   sodipodi:docname="qbittorrent.svg"
   inkscape:version="1.1.2 (0a00cf5339, 2022-02-04)"
   xmlns:inkscape="http://www.inkscape.org/namespaces/inkscape"
   xmlns:sodipodi="http://sodipodi.sourceforge.net/DTD/sodipodi-0.dtd"
   xmlns:xlink="http://www.w3.org/1999/xlink"
   xmlns="http://www.w3.org/2000/svg"
   xmlns:svg="http://www.w3.org/2000/svg"
   xmlns:rdf="http://www.w3.org/1999/02/22-rdf-syntax-ns#"
   xmlns:cc="http://creativecommons.org/ns#"
   xmlns:dc="http://purl.org/dc/elements/1.1/">
  <metadata
     id="metadata22">
    <rdf:RDF>
      <cc:Work
         rdf:about="">
        <dc:format>image/svg+xml</dc:format>
        <dc:type
           rdf:resource="http://purl.org/dc/dcmitype/StillImage" />
      </cc:Work>
    </rdf:RDF>
  </metadata>
  <defs
     id="defs20">
    <linearGradient
       inkscape:collect="always"
       xlink:href="#_lgradient_9"
       id="linearGradient872"
       x1="-12.025727"
       y1="6.1170783"
       x2="-0.085100174"
       y2="6.1170783"
       gradientUnits="userSpaceOnUse"
       gradientTransform="matrix(3.8358211,0,0,3.8371386,-0.00544341,-0.00268054)" />
    <linearGradient
       id="_lgradient_21"
       x1="0"
       y1="0.5"
       x2="1"
       y2="0.5"
       gradientTransform="matrix(28.183272,0,0,28.298876,9.8766106,9.8505561)"
       gradientUnits="userSpaceOnUse">
      <stop
         offset="0%"
         stop-opacity="1"
         style="stop-color:rgb(255,224,49)"
         id="stop2-3" />
      <stop
         offset="98.69565217391305%"
         stop-opacity="1"
         style="stop-color:rgb(252,82,82)"
         id="stop4-6" />
    </linearGradient>
    <linearGradient
       inkscape:collect="always"
       xlink:href="#_lgradient_9"
       id="linearGradient15"
       x1="-9.6850061"
       y1="45.161198"
       x2="11.98815"
       y2="21.735205"
       gradientUnits="userSpaceOnUse"
       gradientTransform="matrix(1.1147442,0,0,1.1150348,-0.01237238,-3.3277956)" />
    <linearGradient
       inkscape:collect="always"
       xlink:href="#_lgradient_9"
       id="linearGradient1264"
       x1="8.9663086"
       y1="24"
       x2="39.033691"
       y2="24"
       gradientUnits="userSpaceOnUse"
       gradientTransform="scale(1.3333333)" />
  </defs>
  <sodipodi:namedview
     pagecolor="#ffffff"
     bordercolor="#666666"
     borderopacity="1"
     objecttolerance="10"
     gridtolerance="10"
     guidetolerance="10"
     inkscape:pageopacity="0"
     inkscape:pageshadow="2"
     inkscape:window-width="1600"
     inkscape:window-height="836"
     id="namedview18"
     showgrid="false"
     showguides="true"
     inkscape:guide-bbox="true"
     inkscape:zoom="28.112274"
     inkscape:cx="26.803239"
     inkscape:cy="33.686353"
     inkscape:window-x="0"
     inkscape:window-y="0"
     inkscape:window-maximized="1"
     inkscape:current-layer="svg16"
     inkscape:pagecheckerboard="0"
     inkscape:document-units="pt" />
  <linearGradient
     id="_lgradient_9"
     x1="0"
     y1="0.5"
     x2="1"
     y2="0.5">
    <stop
       offset="0%"
       stop-opacity="1"
       style="stop-color:rgb(178,254,250)"
       id="stop2" />
    <stop
       offset="98.26086956521739%"
       stop-opacity="1"
       style="stop-color:rgb(14,210,247)"
       id="stop4" />
  </linearGradient>
  <linearGradient
     id="_lgradient_10"
     x1="0"
     y1="0.5"
     x2="1"
     y2="0.5"
     gradientTransform="matrix(40.089876,0,0,40.089876,11.955062,11.955062)"
     gradientUnits="userSpaceOnUse">
    <stop
       offset="0%"
       stop-opacity="1"
       style="stop-color:rgb(178,254,250)"
       id="stop9" />
    <stop
       offset="98.26086956521739%"
       stop-opacity="1"
       style="stop-color:rgb(14,210,247)"
       id="stop11" />
  </linearGradient>
  <rect
     x="-46.783188"
     y="1.2253767"
     height="45.80014"
     rx="6.1837621"
     shape-rendering="crispEdges"
     id="rect5-6-7-3"
     ry="6.8055277"
     transform="matrix(0.00524063,-0.99998627,0.99998801,0.00489691,0,0)"
     style="isolation:isolate;fill:#00c1ff;fill-opacity:0.13470298;stroke:url(#linearGradient872);stroke-width:2.0301;stroke-miterlimit:4;stroke-dasharray:none;stroke-opacity:1"
     width="45.801998" />
  <rect
     x="-15.686804"
     y="17.260084"
     height="33.345856"
     rx="6.7920032"
     shape-rendering="crispEdges"
     id="rect5-6-6-6-6"
     style="isolation:isolate;fill:#00c1ff;fill-opacity:0.13470298;stroke:url(#linearGradient15);stroke-width:1.67233;stroke-miterlimit:4;stroke-dasharray:none;stroke-opacity:1"
     ry="7.4743071"
     transform="matrix(0.72446484,-0.68931175,0.68622417,0.72739012,0,0)"
     width="33.338203" />
  <path
     id="path860"
     style="color:#000000;isolation:isolate;fill:url(#linearGradient1264);stroke-width:1.33333;stroke-linecap:round;stroke-linejoin:round;-inkscape-stroke:none"
     d="m 31.974609,11.289062 c -3.815334,0 -7.552032,1.061179 -10.796875,3.054688 -6.143906,3.763121 -9.888671,10.477311 -9.888672,17.681641 0,3.807262 1.060903,7.551583 3.054688,10.796875 3.763121,6.143908 10.477311,9.888672 17.681641,9.888672 2.174454,0 4.340798,-0.343875 6.412109,-1.025391 1.218768,-0.397349 1.891339,-1.726998 1.494141,-2.945313 -0.39726,-1.218489 -1.722241,-1.895525 -2.941407,-1.498046 -0.0013,6.47e-4 -0.0026,0.0013 -0.0039,0.002 -1.602245,0.528741 -3.277169,0.794922 -4.960937,0.794921 -5.581838,0 -10.778381,-2.902987 -13.697266,-7.658203 -1.547504,-2.517701 -2.367188,-5.413932 -2.367187,-8.355468 0,-5.581838 2.902987,-10.778381 7.658203,-13.697266 2.518238,-1.547835 5.405244,-2.367188 8.355468,-2.367187 5.581838,0 10.778381,2.902987 13.697266,7.658203 1.547504,2.5177 2.367188,5.413932 2.367187,8.355468 0,3.778059 -1.325983,7.426771 -3.740234,10.322266 h 0.0039 c -0.825424,0.985409 -0.697112,2.472915 0.289063,3.294922 0.985059,0.821077 2.465962,0.691271 3.292969,-0.289063 0.0013,-0.0019 0.0026,-0.0039 0.0039,-0.0059 3.115223,-3.736539 4.822266,-8.45576 4.822266,-13.322266 0,-3.814532 -1.061991,-7.550555 -3.054688,-10.794921 v -0.002 C 45.893067,15.03382 39.178939,11.289062 31.974609,11.289062 Z m 0,1.333985 c 6.742906,0 13.0229,3.503584 16.542969,9.251953 0.0013,6.55e-4 0.0026,0.0013 0.0039,0.002 1.865139,3.035896 2.855469,6.529779 2.855469,10.097656 0,4.552639 -1.597204,8.969227 -4.509765,12.464844 -0.362323,0.429496 -0.992095,0.487145 -1.421876,0.128906 -0.428659,-0.357301 -0.486949,-0.979622 -0.123046,-1.414062 0.0013,-0.0013 0.0026,-0.0026 0.0039,-0.0039 2.613683,-3.134683 4.046875,-7.086212 4.046875,-11.175782 0,-3.188869 -0.890021,-6.325349 -2.566406,-9.052734 -3.161408,-5.150313 -8.787817,-8.294922 -14.832032,-8.294922 -3.196885,0 -6.325887,0.890352 -9.052734,2.566406 -5.150313,3.161408 -8.294922,8.787817 -8.294922,14.832032 0,3.188869 0.890021,6.325347 2.566406,9.052734 3.161408,5.150313 8.787817,8.294922 14.832032,8.294922 1.823232,0 3.637176,-0.290092 5.375,-0.863281 0.533098,-0.173803 1.089649,0.110755 1.263671,0.644531 0.17408,0.533949 -0.107134,1.087788 -0.640624,1.261719 -6.51e-4,-10e-7 -0.0013,-10e-7 -0.002,0 -1.936929,0.637573 -3.961975,0.960937 -5.996093,0.960937 -6.742906,0 -13.0229,-3.503582 -16.542969,-9.251953 -0.0013,-6.55e-4 -0.0026,-0.0013 -0.0039,-0.002 -1.864863,-3.035448 -2.855469,-6.538411 -2.855469,-10.097656 0,-6.742906 3.503584,-13.0229 9.251953,-16.542969 6.55e-4,-0.0013 0.0013,-0.0026 0.002,-0.0039 3.035896,-1.865139 6.529779,-2.855469 10.097656,-2.855469 z m 2.447266,5.345703 c -1.282539,0 -2.335937,1.055352 -2.335937,2.337891 v 16.703125 0.835937 c 0,0.820563 0.67755,1.503906 1.5,1.503906 h 1.671874 c 0.700024,0 1.20736,-0.534432 1.369141,-1.1875 0.840832,0.344206 1.751516,0.550782 2.710938,0.550782 3.977964,0 7.242187,-3.266497 7.242187,-7.244141 0,-3.977641 -3.264543,-7.242188 -7.242187,-7.242188 -0.913299,0 -1.772641,0.212086 -2.580079,0.525391 v -4.445312 c 0,-1.28254 -1.053398,-2.337891 -2.335937,-2.337891 z m 0,1.333984 c 0.561593,0 1.001953,0.442312 1.001953,1.003907 0,2.299479 0,4.598958 0,6.898437 1.098959,-0.940691 2.687696,-1.626942 3.914063,-1.644531 3.248917,0 5.910156,2.659288 5.910156,5.908203 0,3.248917 -2.661559,5.912109 -5.910156,5.912109 -1.623542,-0.134855 -2.805062,-0.740653 -3.914063,-1.646484 0,0.703776 0,1.407552 0,2.111328 0,0.101507 -0.0664,0.169922 -0.166016,0.169922 h -1.671874 c -0.09961,0 -0.166016,-0.06842 -0.166016,-0.169922 -0.01167,-5.915731 0,-11.704912 0,-17.539062 0,-0.561596 0.440358,-1.003907 1.001953,-1.003907 z m -5.679687,4.511719 c -0.57134,0 -0.979308,0.38135 -1.232422,0.857422 -0.877354,-0.380013 -1.836462,-0.599609 -2.847657,-0.599609 -3.977644,0 -7.242187,3.264544 -7.242187,7.242187 0,3.977644 3.264223,7.246094 7.242187,7.246094 0.913372,0 1.772624,-0.213828 2.580079,-0.527344 v 4.824219 c 0,1.282539 1.053398,2.337892 2.335937,2.33789 1.282539,0 2.335937,-1.055353 2.335937,-2.33789 v -16.96875 -0.570313 c 0,-0.820562 -0.677552,-1.503906 -1.5,-1.503906 z m 0,1.333985 h 1.671874 c 0.09963,0 0.166016,0.06842 0.166016,0.169921 v 0.570313 c -0.0549,5.609186 0,11.238862 0,16.96875 0,0.561595 -0.440358,1.003906 -1.001953,1.003906 -0.561596,0 -1.001953,-0.442313 -1.001953,-1.003906 L 28.5,35.648438 c -0.182934,0.162497 -0.37277,0.318905 -0.576172,0.458984 -0.949484,0.651093 -2.031349,1.119142 -3.261719,1.11914 -3.248597,0 -5.910156,-2.663192 -5.910156,-5.912109 0,-3.248915 2.661239,-5.908203 5.910156,-5.908203 1.233851,0 2.318544,0.471123 3.269532,1.125 0.200261,0.138189 0.387957,0.291384 0.568359,0.451172 v -1.699219 c 0.09727,0.02901 0.173226,-0.09639 0.242188,-0.134765 z m -4.080079,2.169921 c -2.210534,-0.03081 -3.998046,1.785346 -3.998047,3.996094 0,2.210749 1.788614,4.092582 3.998047,4 2.616407,-0.109635 3.757858,-2.010003 3.750551,-3.85578 -0.008,-2.015752 -1.391978,-4.10744 -3.750551,-4.140314 z m 14.675782,0.152344 c -2.74777,0.124309 -3.95979,2.169468 -3.893768,4.085325 0.06677,1.937423 1.446332,3.875999 3.893768,3.910769 2.210526,0.0314 3.998047,-1.787296 3.998047,-3.998047 0,-2.210748 -1.789557,-4.097959 -3.998047,-3.998047 z m -14.675782,1.179688 c 1.42512,0 2.463572,1.071999 2.580079,2.458984 v 0.412109 c -0.116441,1.38738 -1.155451,2.460938 -2.580079,2.460938 -1.506254,0 -2.664062,-1.161092 -2.664062,-2.667969 0,-1.506877 1.157185,-2.664062 2.664062,-2.664062 z m 14.675782,0.154297 c 1.506877,0 2.664062,1.157186 2.664062,2.664062 0,1.506879 -1.157185,2.664063 -2.664062,2.664062 -1.425122,0 -2.463571,-1.071996 -2.580079,-2.458984 v -0.410156 c 0.116507,-1.386987 1.154957,-2.458984 2.580079,-2.458984 z"
     transform="scale(0.75)"
     sodipodi:nodetypes="scscscsccscscscsccsccsccssccscsccscscscscsccsccsccssscssscssscssscccscccssccsscssscssscssscssccscccsssccccsssssssssssccssssssccs" />
</svg>
