<?xml version="1.0" encoding="UTF-8" standalone="no"?>
<!-- Generator: Gravit.io -->

<svg
   style="isolation:isolate"
   viewBox="0 0 48 48"
   width="48pt"
   height="48pt"
   version="1.1"
   id="svg9"
   sodipodi:docname="qdbusviewer.svg"
   inkscape:version="1.1.2 (0a00cf5339, 2022-02-04)"
   xmlns:inkscape="http://www.inkscape.org/namespaces/inkscape"
   xmlns:sodipodi="http://sodipodi.sourceforge.net/DTD/sodipodi-0.dtd"
   xmlns:xlink="http://www.w3.org/1999/xlink"
   xmlns="http://www.w3.org/2000/svg"
   xmlns:svg="http://www.w3.org/2000/svg">
  <defs
     id="defs13">
    <linearGradient
       inkscape:collect="always"
       xlink:href="#_lgradient_0"
       id="linearGradient872"
       x1="-12.025727"
       y1="6.1170783"
       x2="-0.085100174"
       y2="6.1170783"
       gradientUnits="userSpaceOnUse"
       gradientTransform="matrix(3.8358211,0,0,3.8371386,-0.00562208,-0.03937722)" />
    <linearGradient
       id="_lgradient_21"
       x1="0"
       y1="0.5"
       x2="1"
       y2="0.5"
       gradientTransform="matrix(28.183272,0,0,28.298876,9.8766106,9.8505561)"
       gradientUnits="userSpaceOnUse">
      <stop
         offset="0%"
         stop-opacity="1"
         style="stop-color:rgb(255,224,49)"
         id="stop2-3" />
      <stop
         offset="98.69565217391305%"
         stop-opacity="1"
         style="stop-color:rgb(252,82,82)"
         id="stop4-6" />
    </linearGradient>
    <linearGradient
       inkscape:collect="always"
       xlink:href="#_lgradient_0"
       id="linearGradient15"
       x1="-9.6850061"
       y1="45.161198"
       x2="11.98815"
       y2="21.735205"
       gradientUnits="userSpaceOnUse"
       gradientTransform="matrix(1.1147442,0,0,1.1150348,-0.03906508,-3.3530924)" />
    <linearGradient
       inkscape:collect="always"
       xlink:href="#_lgradient_0"
       id="linearGradient986"
       x1="12.200885"
       y1="24"
       x2="35.799114"
       y2="24"
       gradientUnits="userSpaceOnUse" />
  </defs>
  <sodipodi:namedview
     id="namedview11"
     pagecolor="#ffffff"
     bordercolor="#666666"
     borderopacity="1.0"
     inkscape:pageshadow="2"
     inkscape:pageopacity="0.0"
     inkscape:pagecheckerboard="0"
     inkscape:document-units="pt"
     showgrid="false"
     inkscape:zoom="10.21875"
     inkscape:cx="31.95107"
     inkscape:cy="32"
     inkscape:window-width="1600"
     inkscape:window-height="836"
     inkscape:window-x="0"
     inkscape:window-y="0"
     inkscape:window-maximized="1"
     inkscape:current-layer="svg9" />
  <linearGradient
     id="_lgradient_0"
     x1="0"
     y1="0.5"
     x2="1"
     y2="0.5"
     gradientTransform="matrix(23.59823,0,0,21.452799,12.200885,13.273349)"
     gradientUnits="userSpaceOnUse">
    <stop
       offset="0%"
       stop-opacity="1"
       style="stop-color:rgb(67,233,123)"
       id="stop2" />
    <stop
       offset="97.82608695652173%"
       stop-opacity="1"
       style="stop-color:rgb(56,249,215)"
       id="stop4" />
  </linearGradient>
  <rect
     x="-46.783367"
     y="1.1886801"
     height="45.80014"
     rx="6.1837621"
     shape-rendering="crispEdges"
     id="rect5-6-7-3"
     ry="6.8055277"
     transform="matrix(0.00524063,-0.99998627,0.99998801,0.00489691,0,0)"
     style="isolation:isolate;fill:#00ffd4;fill-opacity:0.13470298;stroke:url(#linearGradient872);stroke-width:2.0301;stroke-miterlimit:4;stroke-dasharray:none;stroke-opacity:1"
     width="45.801998" />
  <rect
     x="-15.713496"
     y="17.234787"
     height="33.345856"
     rx="6.7920032"
     shape-rendering="crispEdges"
     id="rect5-6-6-6-6"
     style="isolation:isolate;fill:#00ffd4;fill-opacity:0.13470298;stroke:url(#linearGradient15);stroke-width:1.67233;stroke-miterlimit:4;stroke-dasharray:none;stroke-opacity:1"
     ry="7.4743071"
     transform="matrix(0.72446484,-0.68931175,0.68622417,0.72739012,0,0)"
     width="33.338203" />
  <path
     style="color:#000000;fill:url(#linearGradient986);fill-rule:evenodd;-inkscape-stroke:none"
     d="m 18.191406,12.773438 c -0.783708,0 -1.629925,0.349964 -2.183594,0.904296 l -3.402343,3.402344 c -0.553975,0.553975 -0.904297,1.400225 -0.904297,2.183594 v 3.664062 c 0,0.862532 0.709734,1.572266 1.572266,1.572266 0.862531,0 1.572265,-0.709452 1.572265,-1.572266 v -3.308593 c 0,-0.105273 0.158424,-0.488502 0.232422,-0.5625 l 2.904297,-2.904297 c 0.07435,-0.07417 0.457792,-0.234375 0.5625,-0.234375 h 13.5 c 0.616955,0 1.109375,0.491764 1.109375,1.109375 v 2.68164 c 0,0.862814 0.709734,1.572266 1.572265,1.572266 0.862532,0 1.572266,-0.709734 1.572266,-1.572266 v -3.753906 c 0,-1.750328 -1.430789,-3.181641 -3.181641,-3.18164 z m 0,1 h 14.925781 c 1.209468,0 2.181641,0.972653 2.181641,2.18164 v 3.753906 c 0,0.321396 -0.25087,0.572266 -0.572266,0.572266 -0.321396,0 -0.572265,-0.251153 -0.572265,-0.572266 v -2.68164 c 0,-1.158782 -0.950942,-2.109375 -2.109375,-2.109375 h -13.5 c -0.487758,0 -0.923185,0.181823 -1.267578,0.52539 l -2.90625,2.90625 c -0.344745,0.344746 -0.525391,0.782339 -0.525391,1.269532 v 3.308593 c 0,0.321113 -0.250869,0.572266 -0.572265,0.572266 -0.321396,0 -0.572266,-0.25087 -0.572266,-0.572266 v -3.664062 c 0,-0.400559 0.327817,-1.193052 0.611328,-1.476563 l 3.402344,-3.402343 c 0.282813,-0.283153 1.07534,-0.611329 1.476562,-0.611328 z m -2.458984,5.46289 v 9.527344 h 2.916015 c 1.591392,0 2.889006,-0.400277 3.802735,-1.253906 0.91318,-0.853501 1.357422,-2.093097 1.357422,-3.591797 0,-1.415494 -0.430755,-2.603261 -1.308594,-3.441407 h -0.002 c -0.878764,-0.838645 -2.107802,-1.240234 -3.587891,-1.240234 z m 7.572265,0 3.232422,9.527344 h 2.689453 l 3.238282,-9.527344 h -2.890625 l -1.695313,5.328125 -1.683594,-5.328125 z m -6.572265,1 h 2.177734 c 1.304165,0 2.23746,0.332089 2.898438,0.962891 0.661902,0.631973 1,1.49794 1,2.71875 0,1.308985 -0.354259,2.221279 -1.039063,2.861328 -0.684255,0.639249 -1.694594,0.984375 -3.121094,0.984375 h -1.916015 z m 7.96875,0 h 0.761719 l 1.492187,4.724609 c 0.08532,0.286261 0.176483,0.62483 0.269531,1.013672 h -0.002 c 0.09381,0.393394 0.151955,0.669706 0.169922,0.789063 l 0.992188,-0.01563 c 0.03512,-0.29326 0.1758,-0.917786 0.421875,-1.802735 l 1.5,-4.708984 h 0.761718 l -2.558593,7.527344 h -1.25586 z m -7.160156,0.482422 v 6.552734 h 1.277343 c 0.960591,0 1.775345,-0.272066 2.324219,-0.861328 0.548875,-0.589262 0.789063,-1.432465 0.789063,-2.445312 0,-0.98926 -0.218489,-1.808848 -0.732422,-2.390625 -0.513933,-0.581777 -1.292113,-0.855469 -2.195313,-0.855469 z m 1,1 h 0.46289 c 0.714532,0 1.150379,0.183711 1.445313,0.517578 0.294933,0.333867 0.482422,0.886487 0.482422,1.728516 0,0.857604 -0.197281,1.417708 -0.519532,1.763672 -0.322251,0.345963 -0.812089,0.542968 -1.59375,0.542968 H 18.541016 Z M 34.726562,23.5 c -0.862531,0 -1.572265,0.709452 -1.572265,1.572266 v 3.308593 c 0,0.105273 -0.158424,0.488502 -0.232422,0.5625 l -2.90625,2.904297 c -0.07595,0.07445 -0.456149,0.234375 -0.560547,0.234375 h -13.5 c -0.616955,0 -1.109375,-0.491764 -1.109375,-1.109375 v -2.68164 c 0,-0.862814 -0.709734,-1.572266 -1.572265,-1.572266 -0.862532,0 -1.572266,0.709734 -1.572266,1.572266 v 3.753906 c 0,1.750328 1.430789,3.181641 3.181641,3.18164 h 14.925781 c 0.783708,0 1.629925,-0.349964 2.183593,-0.904296 l 3.402344,-3.402344 c 0.553975,-0.553975 0.904297,-1.400225 0.904297,-2.183594 V 25.072266 C 36.298828,24.209734 35.589094,23.5 34.726562,23.5 Z m 0,1 c 0.321396,0 0.572266,0.25087 0.572266,0.572266 v 3.664062 c 0,0.400559 -0.327817,1.193052 -0.611328,1.476563 l -3.402344,3.402343 c -0.282813,0.283153 -1.07534,0.611328 -1.476562,0.611328 H 14.882813 c -1.209468,0 -2.181641,-0.972653 -2.181641,-2.18164 v -3.753906 c 0,-0.321396 0.25087,-0.572266 0.572266,-0.572266 0.321396,0 0.572265,0.251153 0.572265,0.572266 v 2.68164 c 0,1.158782 0.950942,2.109375 2.109375,2.109375 h 13.5 c 0.487758,0 0.923185,-0.181823 1.267578,-0.52539 l 2.90625,-2.90625 c 0.344745,-0.344746 0.525391,-0.782339 0.525391,-1.269532 v -3.308593 c 0,-0.321113 0.250869,-0.572266 0.572265,-0.572266 z"
     id="path7" />
</svg>
