<?xml version="1.0" encoding="UTF-8" standalone="no"?>
<!-- Generator: Gravit.io -->

<svg
   style="isolation:isolate"
   viewBox="0 0 48 48"
   width="48pt"
   height="48pt"
   version="1.1"
   id="svg9"
   sodipodi:docname="qemu.svg"
   inkscape:version="1.1.2 (0a00cf5339, 2022-02-04)"
   xmlns:inkscape="http://www.inkscape.org/namespaces/inkscape"
   xmlns:sodipodi="http://sodipodi.sourceforge.net/DTD/sodipodi-0.dtd"
   xmlns:xlink="http://www.w3.org/1999/xlink"
   xmlns="http://www.w3.org/2000/svg"
   xmlns:svg="http://www.w3.org/2000/svg">
  <defs
     id="defs13">
    <linearGradient
       inkscape:collect="always"
       xlink:href="#_lgradient_9"
       id="linearGradient872"
       x1="-12.025727"
       y1="6.1170783"
       x2="-0.085100174"
       y2="6.1170783"
       gradientUnits="userSpaceOnUse"
       gradientTransform="matrix(3.8358211,0,0,3.8371386,-0.00544341,-0.00268054)" />
    <linearGradient
       id="_lgradient_21"
       x1="0"
       y1="0.5"
       x2="1"
       y2="0.5"
       gradientTransform="matrix(28.183272,0,0,28.298876,9.8766106,9.8505561)"
       gradientUnits="userSpaceOnUse">
      <stop
         offset="0%"
         stop-opacity="1"
         style="stop-color:rgb(255,224,49)"
         id="stop2-3" />
      <stop
         offset="98.69565217391305%"
         stop-opacity="1"
         style="stop-color:rgb(252,82,82)"
         id="stop4-6" />
    </linearGradient>
    <linearGradient
       inkscape:collect="always"
       xlink:href="#_lgradient_9"
       id="linearGradient15"
       x1="-9.6850061"
       y1="45.161198"
       x2="11.98815"
       y2="21.735205"
       gradientUnits="userSpaceOnUse"
       gradientTransform="matrix(1.1147442,0,0,1.1150348,-0.01237238,-3.3277956)" />
    <linearGradient
       inkscape:collect="always"
       xlink:href="#_lgradient_9"
       id="linearGradient891"
       x1="9.9644003"
       y1="24"
       x2="38.035599"
       y2="24"
       gradientUnits="userSpaceOnUse" />
  </defs>
  <sodipodi:namedview
     id="namedview11"
     pagecolor="#ffffff"
     bordercolor="#666666"
     borderopacity="1.0"
     inkscape:pageshadow="2"
     inkscape:pageopacity="0.0"
     inkscape:pagecheckerboard="0"
     inkscape:document-units="pt"
     showgrid="false"
     inkscape:zoom="10.21875"
     inkscape:cx="31.95107"
     inkscape:cy="32"
     inkscape:window-width="1600"
     inkscape:window-height="836"
     inkscape:window-x="0"
     inkscape:window-y="0"
     inkscape:window-maximized="1"
     inkscape:current-layer="svg9" />
  <linearGradient
     id="_lgradient_9"
     x1="0"
     y1="0.5"
     x2="1"
     y2="0.5"
     gradientTransform="matrix(28.071199,0,0,28.071199,9.9644003,9.9644003)"
     gradientUnits="userSpaceOnUse">
    <stop
       offset="0%"
       stop-opacity="1"
       style="stop-color:rgb(255,224,49)"
       id="stop2" />
    <stop
       offset="98.69565217391305%"
       stop-opacity="1"
       style="stop-color:rgb(252,82,82)"
       id="stop4" />
  </linearGradient>
  <rect
     x="-46.783188"
     y="1.2253767"
     height="45.80014"
     rx="6.1837621"
     shape-rendering="crispEdges"
     id="rect5-6-7-3"
     ry="6.8055277"
     transform="matrix(0.00524063,-0.99998627,0.99998801,0.00489691,0,0)"
     style="isolation:isolate;fill:#ff6f00;fill-opacity:0.134703;stroke:url(#linearGradient872);stroke-width:2.0301;stroke-miterlimit:4;stroke-dasharray:none;stroke-opacity:1"
     width="45.801998" />
  <rect
     x="-15.686804"
     y="17.260084"
     height="33.345856"
     rx="6.7920032"
     shape-rendering="crispEdges"
     id="rect5-6-6-6-6"
     style="isolation:isolate;fill:#ff6f00;fill-opacity:0.134703;stroke:url(#linearGradient15);stroke-width:1.67233;stroke-miterlimit:4;stroke-dasharray:none;stroke-opacity:1"
     ry="7.4743071"
     transform="matrix(0.72446484,-0.68931175,0.68622417,0.72739012,0,0)"
     width="33.338203" />
  <path
     style="color:#000000;fill:url(#linearGradient891);fill-rule:evenodd;-inkscape-stroke:none"
     d="m 24,9.4648438 c -3.853614,0 -7.551897,1.5326912 -10.279297,4.2539062 v 0.002 h -0.002 C 10.997535,16.448103 9.4648437,20.146386 9.4648438,24 c 0,3.853614 1.5326912,7.551897 4.2539062,10.279297 h 0.002 v 0.002 c 2.7274,2.721215 6.425683,4.253906 10.279297,4.253906 3.421904,0 6.679394,-1.278756 9.285156,-3.455078 l 1.814453,1.814453 c 0.656842,0.65684 1.737786,0.658684 2.394532,0.002 0.656743,-0.656743 0.652949,-1.737692 -0.0039,-2.394531 l -1.875,-1.875 C 37.460359,30.135911 38.535156,27.136032 38.535156,24 c 0,-3.853614 -1.532691,-7.551897 -4.253906,-10.279297 h -0.002 v -0.002 C 31.551897,10.997535 27.853614,9.4648437 24,9.4648438 Z m 0,1.0000002 c 3.588232,0 7.033794,1.428227 9.574219,3.96289 2.533441,2.540236 3.960937,5.984958 3.960937,9.572266 0,3.065865 -1.042938,6.026287 -2.927734,8.408203 l -0.275391,0.349609 0.314453,0.314454 2.136719,2.136718 c 0.274892,0.274885 0.276498,0.707877 0.0039,0.980469 -0.272589,0.272583 -0.705585,0.270977 -0.980468,-0.0039 l -2.419922,-2.419922 -0.353516,0.316406 C 30.555683,36.298033 27.340596,37.535156 24,37.535156 c -3.587308,0 -7.03203,-1.427496 -9.572266,-3.960937 l -0.002,-0.002 C 11.89234,31.03203 10.464844,27.587308 10.464844,24 c 0,-3.588232 1.428227,-7.033794 3.96289,-9.574219 C 16.96797,11.89234 20.412692,10.464844 24,10.464844 Z m 0,1.388672 c -3.220646,0 -6.310551,1.283575 -8.589844,3.55664 -2.273065,2.279293 -3.55664,5.369198 -3.55664,8.589844 0,3.220646 1.283575,6.310551 3.55664,8.589844 2.279293,2.273065 5.369198,3.55664 8.589844,3.55664 3.220646,0 6.310551,-1.283575 8.589844,-3.55664 2.273065,-2.279293 3.55664,-5.369198 3.55664,-8.589844 0,-3.220646 -1.283575,-6.310551 -3.55664,-8.589844 C 30.310551,13.137091 27.220646,11.853516 24,11.853516 Z m 0,1 c 2.955012,0 5.790169,1.176745 7.882812,3.263671 2.086927,2.092644 3.263672,4.927801 3.263672,7.882813 0,2.955012 -1.176745,5.790169 -3.263672,7.882812 -2.092643,2.086927 -4.9278,3.263672 -7.882812,3.263672 -2.955012,0 -5.790169,-1.176745 -7.882813,-3.263672 C 14.030261,29.790169 12.853516,26.955012 12.853516,24 c 0,-2.955012 1.176745,-5.790169 3.263671,-7.882813 0.874933,-0.872541 1.936309,-1.482584 3.025391,-2.017578 -0.07736,0.167917 -0.119224,0.349112 -0.0957,0.435547 0.0301,0.110598 0.06849,0.183361 0.107422,0.253907 -0.159293,0.170567 -0.314984,0.345389 -0.410156,0.53125 -0.774914,1.211368 -1.177674,2.272183 -1.433594,3.546874 -0.329398,1.642658 -0.405812,3.520745 -0.373047,5.107422 v 0.01367 l 0.002,0.01367 c 0.03855,0.499122 0.185042,1.096996 0.697266,1.492188 l -0.01172,-0.0098 c 0.956055,0.78529 1.781159,1.807805 2.634766,2.814453 1.679512,2.276447 3.130533,4.196386 4.05664,6.167969 l 0.947266,-0.28711 c -0.103539,-0.672123 -0.241211,-1.761115 -0.304688,-2.583984 l -0.002,-0.0293 -0.0059,-0.0293 C 24.64699,29.98597 24.09725,28.807783 23.630859,27.644531 23.164469,26.48128 22.772105,25.33493 22.707031,23.748047 c -0.0086,-0.217834 0.161394,-0.816735 0.478516,-1.398438 0.317122,-0.581702 0.766453,-1.177999 1.199219,-1.558593 0.673091,-0.591643 1.262064,-0.78505 1.957031,-0.826172 0.694967,-0.04112 1.500457,0.101671 2.464844,0.24414 5.21e-4,5.1e-4 -0.0062,8.02e-4 0.02344,0.0059 0.0674,0.01145 0.131932,0.0214 0.181641,0.03125 l 0.02539,0.0039 0.02734,0.0039 c 0.219987,0.0196 0.619739,0.08272 1.009766,0.0957 0.195013,0.0065 0.389032,0.004 0.591797,-0.04297 0.120354,-0.02787 0.235407,-0.16165 0.359375,-0.253907 0.03626,0.02943 0.07211,0.06031 0.111328,0.08789 0.0619,0.04353 0.11072,0.09444 0.279297,0.130859 l 0.671875,0.144532 -0.07031,-0.683594 c -0.06351,-0.6192 -0.427824,-1.094419 -0.839844,-1.402344 C 30.77203,18.026873 30.315376,17.849551 29.919922,17.708984 29.392187,17.459772 28.839237,17.352158 28.458984,17.1875 28.070101,17.019104 27.901207,16.907264 27.851562,16.486328 l -0.0098,-0.07617 -0.03125,-0.06836 c -0.03798,-0.085 -0.08105,-0.185081 -0.142578,-0.292969 l -0.01563,-0.02734 -0.01953,-0.02734 0.04297,-0.02344 -0.396484,-0.46875 c -0.548288,-0.646418 -1.305056,-1.108771 -2.13086,-1.291015 -0.70822,-0.243358 -1.505355,-0.490784 -2.296875,-0.59375 l -0.40625,-0.05274 -0.0059,0.01758 c -0.06298,-0.05179 -0.08581,-0.09875 -0.177734,-0.144531 -0.232827,-0.115957 -0.621377,-0.11873 -0.896485,0.06055 l 0.212891,-0.07617 c -0.2156,0.02551 -0.240492,0.03943 -0.292969,0.05469 l 0.002,-0.08203 C 22.182609,13.164997 23.060278,12.853516 24,12.853516 Z m -4.150391,0.826172 c -0.01145,0.0057 -0.01562,0.0014 -0.02734,0.0078 -0.03587,0.01949 -0.03812,0.08779 -0.07227,0.117188 -0.0035,-6.39e-4 -0.0063,-0.0033 -0.0098,-0.0039 -0.06273,-0.01096 -0.176442,0.06533 -0.271484,0.08008 0.133057,-0.05965 0.245587,-0.146775 0.380859,-0.201171 z m 1.22461,0.43164 -0.0039,0.07813 -0.03516,-0.01953 c 0.0156,-0.0204 0.02494,-0.03671 0.03906,-0.05859 z m 0.78125,0.259766 c 0.02493,0.02073 0.05771,0.04516 0.125,0.117187 0.08845,0.09468 0.132328,0.269228 0.507812,0.34375 0.159202,0.0316 0.348277,-0.06252 0.480469,-0.160156 0.623601,0.106562 1.289114,0.285539 1.904297,0.498047 l 0.0098,0.0039 c -0.05691,-0.0033 -0.115635,-0.03496 -0.171875,-0.0332 -0.490059,0.01495 -1.015226,0.26698 -1.167968,0.785156 -0.122006,0.413528 0.03026,0.816372 0.265625,1.121094 0.08093,0.104774 0.230932,0.154509 0.333984,0.244141 l -0.494141,-0.06055 -0.345703,0.908203 c 0.01864,0.01281 0.05823,0.04572 0.09375,0.07813 L 23.5,18.3125 l 3.220703,0.626953 0.107422,0.02734 0.402344,0.08984 c -0.309823,-0.02537 -0.639643,-0.108047 -0.947266,-0.08984 -0.867015,0.0513 -1.738102,0.349342 -2.560547,1.072265 -0.558086,0.490807 -1.04807,1.160685 -1.414062,1.832032 -0.365993,0.671346 -0.623305,1.312618 -0.59961,1.916015 v 0.002 c 0.0711,1.733877 0.514473,3.032147 0.994141,4.228516 0.479139,1.19505 0.984731,2.289854 1.263672,3.708984 3.08e-4,0.0016 0.0016,0.0023 0.002,0.0039 0.01288,0.161278 0.03968,0.318241 0.05664,0.490234 -0.893439,-1.470411 -1.770785,-2.902252 -2.966797,-4.523437 l -0.0098,-0.01367 -0.01172,-0.01367 c -0.846607,-0.997786 -1.706158,-2.079128 -2.777343,-2.958985 l -0.0059,-0.0039 -0.0059,-0.0059 C 18.04096,24.5414 17.969581,24.308971 17.939453,23.933594 c -0.03071,-1.532523 0.047,-3.349219 0.351563,-4.869141 v -0.002 c 0.240347,-1.196325 0.576271,-2.093726 1.304687,-3.226562 l 0.01367,-0.02344 0.01172,-0.02344 c 0.04686,-0.09298 0.102658,-0.135166 0.152343,-0.203125 l 0.08398,0.0078 h 0.246094 l 0.148437,-0.154297 c 0.112475,-0.117659 0.09298,-0.218407 0.0957,-0.316406 l 0.01563,0.0059 0.0039,-0.07226 c -0.0013,-0.01788 0.02358,-0.05487 0.02148,-0.06836 -0.0034,-0.02202 -0.0095,-0.02571 -0.01367,-0.04297 l 0.02539,-0.388672 c 0.008,-0.0011 9.91e-4,-9.68e-4 0.0098,-0.002 0.09905,-0.01113 0.23958,-0.0083 0.439453,-0.09961 0.01007,-0.0046 0.01134,-0.02756 0.02148,-0.0332 0.09532,0.03757 0.195499,0.08102 0.291015,0.08008 0.26812,-0.0026 0.313432,-0.06166 0.535157,-0.08789 l 0.115234,-0.01367 z m 2.884765,1.767578 h 0.002 c 0.128985,-0.004 0.306717,0.02682 0.492188,0.101562 v -0.002 c 0.245976,0.09952 0.445938,0.258813 0.552734,0.398438 0.106797,0.139625 0.10158,0.225744 0.09961,0.232422 -0.0012,0.0041 0.01022,0.02245 -0.121094,0.04883 -0.131311,0.02638 -0.364801,0.01186 -0.611328,-0.08789 -0.247535,-0.09993 -0.446611,-0.257133 -0.552735,-0.394531 -0.106123,-0.137399 -0.101833,-0.219023 -0.09961,-0.226563 0.0025,-0.0086 0.02358,-0.06376 0.238281,-0.07031 z m 1.921875,0.228515 0.144532,0.195313 c 0.02805,0.05113 0.05767,0.111118 0.0918,0.1875 l -0.04102,-0.146484 c 0.06398,0.542498 0.377011,0.894431 0.730469,1.166015 l -0.263672,-0.04883 v -0.03711 l -0.44336,-0.05078 c -0.08258,-0.0095 -0.166012,-0.02467 -0.255859,-0.04492 l -0.234375,-0.05273 c 0.164994,-0.126102 0.391869,-0.168568 0.455078,-0.382812 0.08546,-0.289651 -0.06624,-0.536211 -0.183594,-0.785157 z"
     id="path7" />
</svg>
