<?xml version="1.0" encoding="UTF-8" standalone="no"?>
<!-- Generator: Gravit.io -->

<svg
   style="isolation:isolate"
   viewBox="0 0 48 48"
   width="48pt"
   height="48pt"
   version="1.1"
   id="svg11"
   sodipodi:docname="qmmp.svg"
   inkscape:version="1.1.2 (0a00cf5339, 2022-02-04)"
   xmlns:inkscape="http://www.inkscape.org/namespaces/inkscape"
   xmlns:sodipodi="http://sodipodi.sourceforge.net/DTD/sodipodi-0.dtd"
   xmlns:xlink="http://www.w3.org/1999/xlink"
   xmlns="http://www.w3.org/2000/svg"
   xmlns:svg="http://www.w3.org/2000/svg">
  <defs
     id="defs15">
    <linearGradient
       id="linearGradient1117"
       x1="0.06249999999999997"
       y1="0.7198018836902161"
       x2="0.9047746781115881"
       y2="0.21553536941067242"
       gradientTransform="matrix(32.768244,0,0,25.623401,7.6158779,12.21019)"
       gradientUnits="userSpaceOnUse">
      <stop
         offset="0%"
         stop-opacity="1"
         style="stop-color:rgb(84,51,255)"
         id="stop1111" />
      <stop
         offset="1"
         stop-opacity="1"
         style="stop-color:rgb(233,72,255)"
         id="stop1113" />
    </linearGradient>
    <linearGradient
       id="linearGradient1109"
       x1="0.06249999999999997"
       y1="0.7198018836902161"
       x2="0.9047746781115881"
       y2="0.21553536941067242"
       gradientTransform="matrix(32.768244,0,0,25.623401,7.6158779,12.21019)"
       gradientUnits="userSpaceOnUse">
      <stop
         offset="0%"
         stop-opacity="1"
         style="stop-color:rgb(84,51,255)"
         id="stop1103" />
      <stop
         offset="1"
         stop-opacity="1"
         style="stop-color:rgb(233,72,255)"
         id="stop1105" />
    </linearGradient>
    <linearGradient
       inkscape:collect="always"
       xlink:href="#_lgradient_16"
       id="linearGradient872"
       x1="-12.025727"
       y1="6.1170783"
       x2="-0.085100174"
       y2="6.1170783"
       gradientUnits="userSpaceOnUse"
       gradientTransform="matrix(3.8358211,0,0,3.8371386,-0.00544341,-0.00268054)" />
    <linearGradient
       id="_lgradient_21"
       x1="0"
       y1="0.5"
       x2="1"
       y2="0.5"
       gradientTransform="matrix(28.183272,0,0,28.298876,9.8766106,9.8505561)"
       gradientUnits="userSpaceOnUse">
      <stop
         offset="0%"
         stop-opacity="1"
         style="stop-color:rgb(255,224,49)"
         id="stop2-3" />
      <stop
         offset="98.69565217391305%"
         stop-opacity="1"
         style="stop-color:rgb(252,82,82)"
         id="stop4-6" />
    </linearGradient>
    <linearGradient
       inkscape:collect="always"
       xlink:href="#_lgradient_16"
       id="linearGradient15"
       x1="-9.6850061"
       y1="45.161198"
       x2="11.98815"
       y2="21.735205"
       gradientUnits="userSpaceOnUse"
       gradientTransform="matrix(1.1147442,0,0,1.1150348,-0.01237238,-3.3277956)" />
    <linearGradient
       inkscape:collect="always"
       xlink:href="#_lgradient_16"
       id="linearGradient1042"
       x1="9.6638927"
       y1="30.653963"
       x2="23.233826"
       y2="24.301126"
       gradientUnits="userSpaceOnUse" />
  </defs>
  <sodipodi:namedview
     id="namedview13"
     pagecolor="#ffffff"
     bordercolor="#666666"
     borderopacity="1.0"
     inkscape:pageshadow="2"
     inkscape:pageopacity="0.0"
     inkscape:pagecheckerboard="0"
     inkscape:document-units="pt"
     showgrid="false"
     inkscape:zoom="10.21875"
     inkscape:cx="22.948012"
     inkscape:cy="29.455657"
     inkscape:window-width="1600"
     inkscape:window-height="836"
     inkscape:window-x="0"
     inkscape:window-y="0"
     inkscape:window-maximized="1"
     inkscape:current-layer="svg11" />
  <linearGradient
     id="_lgradient_16"
     x1="0.06249999999999997"
     y1="0.7198018836902161"
     x2="0.9047746781115881"
     y2="0.21553536941067242"
     gradientTransform="matrix(32.768244,0,0,25.623401,7.6158779,12.21019)"
     gradientUnits="userSpaceOnUse">
    <stop
       offset="0%"
       stop-opacity="1"
       style="stop-color:rgb(84,51,255)"
       id="stop2" />
    <stop
       offset="49.166666666666664%"
       stop-opacity="1"
       style="stop-color:rgb(233,72,255)"
       id="stop4" />
    <stop
       offset="97.08333333333333%"
       stop-opacity="1"
       style="stop-color:rgb(255,0,91)"
       id="stop6" />
  </linearGradient>
  <rect
     x="-46.783188"
     y="1.2253767"
     height="45.80014"
     rx="6.1837621"
     shape-rendering="crispEdges"
     id="rect5-6-7-3"
     ry="6.8055277"
     transform="matrix(0.00524063,-0.99998627,0.99998801,0.00489691,0,0)"
     style="isolation:isolate;fill:#ff0060;fill-opacity:0.13470298;stroke:url(#linearGradient872);stroke-width:2.0301;stroke-miterlimit:4;stroke-dasharray:none;stroke-opacity:1"
     width="45.801998" />
  <rect
     x="-15.686804"
     y="17.260084"
     height="33.345856"
     rx="6.7920032"
     shape-rendering="crispEdges"
     id="rect5-6-6-6-6"
     style="isolation:isolate;fill:#ff0060;fill-opacity:0.13470298;stroke:url(#linearGradient15);stroke-width:1.67233;stroke-miterlimit:4;stroke-dasharray:none;stroke-opacity:1"
     ry="7.4743071"
     transform="matrix(0.72446484,-0.68931175,0.68622417,0.72739012,0,0)"
     width="33.338203" />
  <path
     style="color:#000000;fill:url(#linearGradient1042);fill-rule:evenodd;-inkscape-stroke:none;fill-opacity:1.0"
     d="m 19.845703,11.886719 c -0.259751,0.04672 -0.501148,0.192288 -0.662109,0.423828 -0.322479,0.463438 -0.205986,1.109932 0.257812,1.431641 0.987609,0.687751 1.853016,1.53455 2.552735,2.507812 l 0.121093,0.169922 c -0.303821,0.442289 -0.488138,0.979005 -0.552734,1.572265 -0.07996,-8.77e-4 -0.160322,-0.0011 -0.240234,-0.002 C 21.093888,17.807269 20.844578,17.643719 20.640625,17.5 19.606042,16.699818 18.151673,16.700597 17,16.785156 c -1.167386,0.03521 -2.326739,0.152768 -3.472656,0.347656 -1.341371,0.240266 -2.662258,0.602085 -3.808594,1.252001 -0.617735,0.34613 -1.1607041,0.81483 -1.5996094,1.363281 l -0.00391,0.0039 -0.00391,0.0059 c -0.544807,0.736336 -1.0655224,1.866344 -0.7011719,2.941407 l 0.00195,0.0078 0.00195,0.0059 c 0.1344253,0.347004 0.3416801,0.658998 0.6113281,0.914062 6.504e-4,6.36e-4 0.0013,0.0013 0.00195,0.002 6.652e-4,6.28e-4 0.00129,0.0013 0.00195,0.002 0.323279,0.315303 0.6898054,0.584981 1.0917969,0.804688 0.4908195,0.276904 1.0080043,0.507918 1.5332033,0.71289 0.01016,0.08045 0.01342,0.165892 0.0293,0.240235 v 0.002 0.002 c 0.07179,0.313495 0.207307,0.613827 0.390625,0.876953 0.195548,0.278395 0.428907,0.533238 0.691406,0.757813 l 0.03125,0.02734 0.03711,0.01953 c 0.547533,0.274593 0.966681,0.409202 1.482422,0.720703 l 0.04297,0.08594 h 0.173828 c 0.0058,0.0015 0.01175,0.0024 0.01758,0.0039 -0.01751,0.127683 -0.03906,0.25773 -0.03906,0.378906 v 0.0059 0.0078 c 0.03066,0.741883 0.324496,1.454945 0.84375,1.998047 h 0.002 l 0.002,0.002 c 0.938046,0.955598 1.904946,1.705512 2.863281,2.617187 -0.0535,0.511112 -0.100034,1.027216 -0.130859,1.53711 -0.02073,0.341359 -0.03516,0.68367 -0.03516,1.03125 0,0.187562 0.0062,0.365587 0.01367,0.544921 l 0.002,0.002 v 0.002 c 0.01468,0.26654 0.05045,0.536252 0.11914,0.802734 l 0.002,0.0039 v 0.0039 c 0.182153,0.685903 0.717113,0.991581 1.257813,1.293015 h 0.0039 l 0.0059,0.002 c 0.211654,0.07175 0.437717,0.06328 0.650391,0.05469 h 0.0039 0.002 c 0.587501,-0.03225 1.211681,-0.05212 1.81836,-0.207031 0.606679,-0.154914 1.20045,-0.459334 1.664062,-1.035157 l 0.02539,-0.0293 0.01563,-0.03516 c 0.295929,-0.609803 0.397006,-1.142424 0.277344,-1.787109 0.167481,-0.04905 0.34077,-0.07664 0.49414,-0.173828 0.221872,-0.141677 0.418814,-0.324546 0.597657,-0.521485 0.175244,0.190208 0.365087,0.371294 0.591796,0.515625 l 0.0039,0.002 0.0039,0.002 c 0.153308,0.09239 0.336498,0.124666 0.511719,0.173828 -0.153531,1.089979 0.102024,1.993309 0.83789,2.498047 1.806131,0.714527 4.218491,0.755615 4.599608,-0.191442 l 0.002,-0.002 c 0.35478,-0.596275 0.371742,-1.255886 0.39063,-1.923815 0,-0.3531 -0.01566,-0.698152 -0.03711,-1.046875 -0.03092,-0.511433 -0.07519,-1.02083 -0.128906,-1.527344 0.650971,-0.620618 1.381651,-1.24961 2.091797,-1.863281 l 0.002,-0.002 0.002,-0.002 c 0.267218,-0.239311 0.529122,-0.492697 0.777344,-0.761719 0.512088,-0.535959 0.807227,-1.242396 0.837891,-1.984375 v -0.0059 -0.0078 c 0,-0.126349 -0.02123,-0.253477 -0.03906,-0.380859 0.01902,-0.0052 0.03983,-0.0082 0.05859,-0.01367 0.275507,-0.07762 0.491616,-0.261396 0.689453,-0.457031 0.297238,-0.04836 0.690978,-0.06999 1.029297,-0.375 l 0.0098,-0.0078 0.0078,-0.0078 c 0.414155,-0.427743 0.879252,-0.980688 1.041016,-1.726563 0.972195,-0.50305 1.88206,-1.010537 2.685553,-1.669961 l 0.002,-0.002 c 0.276339,-0.261237 0.489255,-0.579274 0.625,-0.929687 l 0.01172,-0.0293 0.0059,-0.03125 c 0.193668,-1.059554 -0.03371,-1.861682 -0.728516,-2.871094 l -0.0059,-0.0098 -0.0078,-0.0078 c -0.433359,-0.550375 -0.969475,-1.01405 -1.586407,-1.359726 l -0.002,-0.002 c -2.247764,-1.196975 -4.903384,-1.526551 -7.294875,-1.605422 h -0.002 c -0.878807,-0.02303 -1.811716,-0.137255 -2.759766,0.220703 l -0.01367,0.0059 -0.01563,0.0078 c -0.293244,0.143427 -0.577512,0.303274 -0.855469,0.494141 -0.222514,0.148292 -0.444339,0.308658 -0.660156,0.476562 -0.155219,3.55e-4 -0.311178,0.0024 -0.466797,0.0039 -0.01793,-0.645923 -0.263893,-1.194719 -0.58789,-1.664063 l 0.04492,-0.06445 0.002,-0.002 c 0.699163,-0.971937 1.564413,-1.818783 2.550781,-2.505859 0.463802,-0.321719 0.580293,-0.968203 0.257812,-1.431641 -0.321921,-0.463079 -0.968525,-0.579758 -1.43164,-0.257813 -1.182144,0.814503 -2.214483,1.834291 -3.048828,3.001954 l -0.160157,0.216796 c -0.0091,4.99e-4 -0.01822,0.0013 -0.02734,0.002 l -0.158203,-0.220704 -0.002,-0.002 c -0.834697,-1.166624 -1.867447,-2.18407 -3.048828,-2.998047 h -0.002 C 20.381969,11.892658 20.10473,11.840084 19.845608,11.886695 Z m 0.378906,0.726562 h 0.002 c 1.116612,0.769162 2.093309,1.733912 2.882813,2.837891 h 0.002 l 0.400391,0.552734 0.210937,-0.03906 c 0.107392,-0.02313 0.202853,-0.01326 0.298828,-0.01953 l 0.179688,0.0059 0.365234,-0.5 c 0.788776,-1.103888 1.766202,-2.068729 2.882813,-2.837891 h 0.002 c 0.159483,-0.110868 0.369577,-0.07358 0.480469,0.08594 0.111699,0.160523 0.07422,0.371326 -0.08594,0.482422 -1.049482,0.730839 -1.972571,1.632035 -2.71875,2.669922 v 0.002 l -0.289062,0.408203 0.177734,0.201172 c 0.333089,0.380424 0.556641,0.953905 0.556641,1.599609 v 0.605469 l 0.345703,-0.0039 c 0.297944,-0.0041 0.595731,-0.0078 0.890625,-0.0078 h 0.138672 c 0.224754,-0.222786 0.548064,-0.422084 0.787154,-0.593809 h 0.002 l 0.002,-0.002 c 0.23869,-0.163903 0.487148,-0.302147 0.75,-0.431641 0.757311,-0.282887 1.575456,-0.201751 2.488281,-0.177734 2.519421,0.08036 4.828286,0.44949 6.980469,1.519531 h 0.002 c 0.535239,0.299531 1.001199,0.702077 1.378907,1.179688 0.630807,0.918836 0.769744,1.418822 0.613281,2.314453 -0.09922,0.243726 -0.244441,0.470443 -0.441406,0.65625 l -0.002,0.002 -0.002,0.002 c -0.809999,0.767958 -1.629603,0.968367 -2.666019,1.632813 l -0.13086,0.08789 -0.01758,0.158203 c -0.0664,0.607847 -0.473848,1.05821 -0.919922,1.519531 -0.151297,0.133422 -0.39119,0.166106 -0.734375,0.226563 l -0.125,0.02148 -0.08203,0.09961 c -0.129097,0.160347 -0.300892,0.27789 -0.5,0.333984 h -0.002 -0.002 c -0.104637,0.03059 -0.204699,0.05313 -0.296875,0.06445 l -0.382813,0.04687 0.09375,0.375 c 0.0135,0.05399 0.02392,0.09722 0.02734,0.125 l 0.002,0.01563 0.002,0.01563 c 0.02776,0.126285 0.03839,0.255097 0.03906,0.396485 -0.02455,0.578684 -0.251225,1.125378 -0.646485,1.539062 l -0.002,0.002 -0.002,0.002 c -0.232615,0.252384 -0.480023,0.492915 -0.734375,0.720703 -0.739169,0.638712 -1.519764,1.302198 -2.21289,1.970704 l -0.002,0.002 -0.002,0.002 -0.0098,0.0098 -0.128907,0.117188 0.01953,0.171875 c 0.06148,0.551972 0.110745,1.111101 0.144531,1.669922 0.02087,0.33941 0.0332,0.670828 0.0332,1.005859 0,0.172716 6.18e-4,0.342262 -0.01172,0.503906 l -0.002,0.0078 v 0.0078 c -0.0065,0.209424 -0.04283,0.424669 -0.09961,0.638672 v 0.0059 l -0.002,0.0059 c -0.03059,0.133581 -0.08895,0.261989 -0.167969,0.386719 -0.134872,0.208978 -0.354421,0.359755 -0.595703,0.423828 -1.416663,0.133104 -2.466235,-0.03019 -3.042969,-0.425781 -0.582541,-0.399571 -0.803275,-1.008654 -0.560547,-2.09961 l 0.08594,-0.380859 -0.388672,-0.0332 c -0.171166,-0.01497 -0.347557,-0.07706 -0.513672,-0.175781 l -0.002,-0.002 c -0.195433,-0.12477 -0.371527,-0.281007 -0.523438,-0.457031 v -0.002 l -0.002,-0.002 c -0.05392,-0.06051 -0.106812,-0.124409 -0.162109,-0.193359 l -0.25,-0.3125 -0.269531,0.298828 c -0.196063,0.262176 -0.487726,0.488506 -0.714879,0.675862 -0.161145,0.101765 -0.33682,0.161831 -0.523438,0.183594 l -0.410156,0.04883 0.125,0.394531 c 0.21368,0.672335 0.107039,0.926292 -0.203125,1.568359 -0.355542,0.425202 -0.772135,0.652788 -1.267578,0.779297 -0.507996,0.129716 -1.087437,0.15492 -1.681641,0.1875 -0.156762,0.0063 -0.31788,-0.008 -0.470703,-0.04102 -0.242301,-0.06204 -0.450111,-0.210429 -0.589844,-0.427735 l -0.002,-0.0039 c -0.258308,-0.508078 -0.25405,-1.076439 -0.281345,-1.554774 0,-0.328266 0.01297,-0.657116 0.0332,-0.990235 0.03379,-0.558986 0.08108,-1.124727 0.142579,-1.683594 L 17.935547,32.625 c -1.010594,-0.999075 -2.228761,-1.958089 -3.086028,-2.822355 -0.40174,-0.42019 -0.629752,-0.971974 -0.654296,-1.550781 6.96e-4,-0.134918 0.01173,-0.27215 0.03906,-0.396484 0.01285,-0.052 0.02468,-0.101984 0.03516,-0.138672 L 14.375,27.349609 13.998047,27.285156 C 13.357482,27.156115 12.712184,26.722268 12.1875,26.486328 11.978734,26.30435 11.790585,26.100352 11.634766,25.878906 l -0.002,-0.002 c -0.131532,-0.189376 -0.229951,-0.410552 -0.28125,-0.630859 v -0.002 c -0.02463,-0.115833 -0.04102,-0.232079 -0.04102,-0.326172 v -0.238282 l -0.224609,-0.08203 c -0.56114,-0.207394 -1.1076081,-0.46176 -1.6289067,-0.755859 l -0.00391,-0.002 h -0.00195 C 9.1002899,23.648569 8.7826334,23.413031 8.5019531,23.138672 l -0.00195,-0.002 -0.00391,-0.0039 c -0.193918,-0.182571 -0.3397204,-0.403309 -0.4394525,-0.65621 -0.2434094,-0.72506 0.1410782,-1.682143 0.6015625,-2.30664 0.3857692,-0.480655 0.8608233,-0.891639 1.3964849,-1.191406 h 0.002 v -0.002 c 1.132608,-0.650049 2.3697,-0.924596 3.585937,-1.171829 1.120844,-0.190624 2.254359,-0.304237 3.394531,-0.33789 l 0.0078,-0.002 h 0.0078 c 0.912756,-0.06981 1.65927,-0.06088 2.482422,0.177734 0.253195,0.12603 0.496787,0.269225 0.728516,0.425781 l 0.002,0.002 0.0039,0.002 c 0.393225,0.201654 0.636794,0.421508 0.95703,0.597653 0.184947,0.002 0.368815,0.0039 0.554688,0.0059 l 0.34375,0.0039 0.002,-0.341796 c 0.0043,-0.709913 0.248099,-1.34277 0.613281,-1.773438 l 0.169922,-0.203125 -0.359375,-0.507812 -0.002,-0.002 c -0.74618,-1.037887 -1.669267,-1.939083 -2.71875,-2.669922 -0.160133,-0.111075 -0.197636,-0.321899 -0.08594,-0.482422 0.110891,-0.159516 0.320987,-0.196805 0.480468,-0.08594 z m 8.28125,6.595703 h -0.002 v 0.002 c -0.19564,0.132508 -0.388206,0.267512 -0.582031,0.417969 -0.127161,0.09839 -0.231143,0.233337 -0.335938,0.365235 -2.260279,0.178051 -4.796886,0.170208 -7.154299,0.01948 -0.106716,-0.133523 -0.20959,-0.270356 -0.351563,-0.375 -0.191619,-0.148574 -0.38918,-0.291127 -0.589844,-0.419922 l -0.0039,-0.002 -0.0059,-0.002 c -0.80894,-0.486312 -1.50587,-0.438724 -2.398438,-0.373047 -1.073638,0.04148 -2.148279,0.146509 -3.210937,0.328125 -1.148817,0.162184 -2.178552,0.549922 -3.140625,1.017578 -0.375531,0.207411 -0.709609,0.489896 -0.9785159,0.828125 l -0.00391,0.002 -0.00195,0.0039 C 9.5617299,21.263981 9.4393165,21.544104 9.375,21.835937 c -0.1467093,0.160787 0.065016,0.211953 0.097656,0.31836 0.1919601,0.184343 0.4082479,0.348179 0.6503911,0.480469 0.484026,0.270461 0.988792,0.498331 1.513672,0.689453 0.211017,0.08352 0.417872,0.203759 0.609375,0.345703 l 0.002,0.002 0.0039,0.0039 c 0.160301,0.112158 0.293898,0.264477 0.404297,0.451172 0.08016,0.135424 0.125,0.292827 0.125,0.439453 0,0.09923 -0.0092,0.179085 -0.0332,0.261719 0.0011,0.466348 0.238618,0.431323 0.578127,0.597656 0.65072,0.242762 1.2396,0.376723 1.6875,0.589844 0.430663,0.20492 0.726653,0.490215 0.958984,1.03125 -0.102613,0.495951 -0.205123,0.746947 -0.388658,1.128986 -0.0034,0.01727 -0.0078,0.0015 -0.0078,0.04492 v 0.01758 l 0.002,0.01563 c 0.02199,0.232412 0.125926,0.449223 0.292969,0.615235 0.915217,0.932982 2.00092,1.748075 2.904297,2.65039 0.118082,0.118083 0.224106,0.243425 0.328125,0.378906 l 0.002,0.002 0.002,0.0039 c 0.145955,0.182701 0.225527,0.401255 0.226562,0.628906 -0.08123,0.669505 -0.143761,1.34654 -0.177734,2.025391 l 0.002,-0.0059 c -0.0208,0.307216 -0.03516,0.612428 -0.03516,0.925782 0,0.08943 -3.5e-5,0.187745 0.0078,0.298828 l 0.02344,0.33789 0.33789,-0.02148 c 0.219937,-0.01457 0.445266,-0.04384 0.660157,-0.08008 0.361029,0.07463 0.518202,-0.168111 0.740235,-0.263716 l 0.119141,-0.171875 -0.0957,-0.183594 c -0.178495,-0.339297 -0.348692,-0.54041 -0.333985,-0.908203 l 0.002,-0.01563 -0.002,-0.01563 c -0.0282,-0.546722 -0.04064,-0.755651 0.261719,-1.169922 0.266014,-0.146058 0.493772,-0.299719 0.722656,-0.271484 0.231663,0.0378 0.434887,0.0677 0.638676,0.0996 0.01784,0.0025 0.0095,0.0078 0.0332,0.0078 h 0.201172 l 0.08398,-0.152344 0.002,-0.002 0.01172,-0.01367 c 0.298303,-0.36533 0.579636,-0.738521 0.884766,-1.052734 0.151558,-0.136789 0.353623,-0.194161 0.552734,-0.199219 0.833143,0.450644 1.219561,0.849783 1.675784,1.433596 0.316704,-0.0717 0.648269,-0.102599 0.957031,-0.13476 0.09462,0.01479 0.288726,0.11995 0.55664,0.273437 0.425606,0.87705 0.250409,1.394906 0.045,2.103515 -0.0231,0.05833 -0.05605,0.166127 -0.01172,0.292969 0.04433,0.126842 0.147841,0.204704 0.220703,0.240234 0.145723,0.07106 0.259612,0.07868 0.455078,0.09961 0.215453,0.03489 0.43247,0.05653 0.640625,0.07031 l 0.33789,0.02148 0.02539,-0.335937 c 0.0082,-0.107893 0.0078,-0.211351 0.0078,-0.300781 0,-0.308235 -0.0081,-0.619354 -0.0293,-0.925782 l 0.002,0.002 c -0.04102,-0.648035 -0.105189,-1.296086 -0.1875,-1.9375 -0.0057,-0.07947 -0.0032,-0.151244 0.0059,-0.216797 v -0.002 c 0.0251,-0.174683 0.101349,-0.346129 0.214844,-0.486329 l 0.0059,-0.0059 0.0039,-0.0059 c 0.0979,-0.13356 0.201729,-0.257205 0.3125,-0.375 l 0.002,-0.002 c 0.697241,-0.661728 1.539839,-1.382302 2.292968,-2.041016 l -0.0039,0.0059 c 0.230859,-0.194406 0.442138,-0.408473 0.638672,-0.625 0.163462,-0.162381 0.265367,-0.372986 0.287109,-0.603515 v -0.01563 -0.01563 c 0,-0.01365 -0.01591,-0.131221 -0.04297,-0.185547 l 0.03711,0.15039 v -0.101562 l -0.05078,-0.08203 c -0.22081,-0.361467 -0.409892,-0.6493 -0.378906,-1.003907 l 0.002,-0.0078 v -0.0059 c 0.0062,-0.124194 0.01722,-0.227042 0.03125,-0.330079 0.168926,-0.243705 0.415005,-0.386856 0.791015,-0.517578 0.395193,-0.13739 0.891879,-0.256187 1.384766,-0.529297 l 0.0039,-0.0039 0.0059,-0.002 c 1.08462,-0.367668 1.007698,-0.901869 1.550815,-1.931693 l 0.0098,-0.0059 0.0098,-0.0078 c 0.140072,-0.111132 0.304624,-0.20919 0.476563,-0.289063 l 0.01367,-0.0059 0.01172,-0.0078 c 0.03654,-0.02088 0.07762,-0.03974 0.107422,-0.05078 h -0.0039 c 0.858085,-0.279273 1.47951,-0.64969 2.138719,-1.156297 l 0.134765,-0.126953 -0.03516,-0.183594 c -0.0594,-0.303789 -0.192433,-0.583386 -0.373807,-0.821951 l -0.002,-0.0039 -0.0039,-0.002 c -0.269356,-0.338805 -0.599003,-0.61517 -0.970662,-0.828084 -1.935699,-1.019265 -4.263977,-1.265866 -6.355563,-1.337891 -0.972949,-0.151964 -1.639259,-0.01328 -2.415922,0.373047 z m 2.39453,0.30859 c 2.211784,0.0664 4.13796,0.32698 6.037203,1.248047 0.302003,0.17301 0.563132,0.391815 0.775391,0.658203 5.74e-4,7.21e-4 0.0014,0.0012 0.002,0.002 0.07966,0.105915 0.115144,0.23264 0.160156,0.355469 -0.485642,0.410078 -1.191157,0.654914 -1.714891,0.873047 h -0.002 l -0.002,0.002 c -0.07561,0.028 -0.13882,0.06195 -0.195313,0.09375 -0.203282,0.09539 -0.403308,0.212682 -0.585937,0.355469 -0.625549,0.454566 -0.727542,1.025994 -0.804693,1.634765 -0.251597,0.03722 -0.535958,0.197011 -0.699181,0.26363 -0.392487,0.217478 -0.837464,0.329496 -1.277344,0.482422 -0.43988,0.152926 -0.89903,0.364117 -1.1875,0.826172 l -0.05078,0.08398 v 0.117188 c -0.02264,0.149837 -0.03266,0.292099 -0.03906,0.421875 -0.04641,0.552463 0.222251,0.940308 0.423828,1.265625 -0.01081,0.056 -0.03878,0.124973 -0.07813,0.164062 l -0.0059,0.0059 -0.0078,0.0078 c -0.18494,0.204615 -0.378832,0.399507 -0.583984,0.572266 l -0.0039,0.002 -0.002,0.002 c -0.749059,0.655153 -1.598781,1.379324 -2.316407,2.060547 l -0.0059,0.0078 -0.0059,0.0059 c -0.128996,0.136083 -0.252712,0.281986 -0.369141,0.439453 -0.187865,0.232068 -0.319845,0.515598 -0.363281,0.822266 -0.03323,0.759982 0.124336,1.618667 0.177794,2.293037 v 0.002 c 0.01736,0.250587 0.01998,0.511858 0.02148,0.773438 -0.07712,-0.0091 -0.156032,-0.01307 -0.230469,-0.02539 l -0.0098,-0.002 -0.0098,-0.002 c -0.02323,-0.0025 -0.01098,-10e-4 -0.03125,-0.0039 0.04361,-0.109673 0.0942,-0.111967 0.07031,-0.28125 l -0.0098,0.140625 c 0.07278,-0.253767 0.09894,-0.495081 0.13086,-0.664063 l 0.0059,-0.03125 v -0.01758 l 0.002,-0.01172 c 0.03362,-1.397812 -0.334874,-1.70209 -1.402338,-2.13476 -0.270371,-0.04226 -0.49513,0.0144 -0.84961,0.07227 -0.463776,-0.591786 -0.982016,-1.123439 -1.707031,-1.380859 l -0.04883,-0.01563 -0.05078,-0.0039 c -0.400389,-0.01763 -0.797725,0.124914 -1.09961,0.40039 l -0.0059,0.0059 -0.0078,0.0078 c -0.315903,0.323348 -0.578932,0.671458 -0.839843,0.996094 -0.145572,-0.02391 -0.290699,-0.04813 -0.441407,-0.07031 h -0.0039 l -0.0039,-0.002 c -1.421808,0.103632 -1.730128,0.836059 -1.749992,2.136712 -0.01148,0.400344 0.14911,0.60671 0.277344,0.84375 -0.04357,0.0086 -0.110305,0.01846 -0.140625,0.02344 h -0.002 c -0.07663,0.01294 -0.152979,0.01699 -0.230468,0.02734 0.0028,-0.254944 0.01169,-0.507644 0.0293,-0.767578 v -0.0039 -0.002 c 0.03366,-0.672669 0.096,-1.346223 0.177734,-2.013672 l 0.002,-0.02148 v -0.02148 c 0,-0.39063 -0.138827,-0.760515 -0.376953,-1.058593 -0.116246,-0.151129 -0.240096,-0.29869 -0.382813,-0.441407 -0.951272,-0.950154 -2.037949,-1.766674 -2.902343,-2.648437 l -0.002,-0.002 -0.002,-0.002 c -0.05043,-0.05012 -0.0783,-0.115748 -0.08789,-0.181641 2.31e-4,-0.008 0.002,-2.98e-4 0.002,-0.0098 v -0.01367 l -0.0059,0.01367 c -1.57e-4,-0.0014 -0.0018,-0.0025 -0.002,-0.0039 v 0.0078 l -0.03516,0.07813 c 0.322847,-0.418024 0.420073,-0.869371 0.462891,-1.25586 l 0.0078,-0.08203 -0.0293,-0.07813 c -0.294259,-0.757457 -0.799849,-1.195631 -1.357421,-1.460938 -0.658703,-0.303232 -1.280653,-0.440373 -1.867188,-0.644513 0.0066,-0.06254 0.02539,-0.125756 0.02539,-0.1875 0,-0.279361 -0.08104,-0.55116 -0.220703,-0.787109 -0.351078,-0.56858 -0.815756,-0.806139 -1.367235,-1.093743 l -0.002,-0.002 -0.0039,-0.002 c -0.709447,-0.21127 -1.18988,-0.529397 -1.744188,-0.886766 0.133145,-0.481076 0.583046,-0.749025 0.937547,-1.011766 l 0.002,-0.002 h 0.002 c 0.922289,-0.531056 1.96191,-0.747074 2.917969,-0.9375 1.03041,-0.176104 2.076309,-0.279872 3.123047,-0.320313 h 0.0059 0.0059 c 0.903736,-0.06652 1.349587,-0.120315 2.007812,0.275391 0.179821,0.115808 0.362279,0.245531 0.539063,0.382813 l 0.002,0.0039 0.0039,0.002 c 0.120598,0.08889 0.234503,0.210718 0.326172,0.347656 l 0.08594,0.128906 c 2.661602,0.0873 5.39108,0.08333 7.697263,-5e-5 l 0.160156,-0.02148 0.08398,-0.136719 c 0.693794,-0.882501 1.986928,-1.038915 2.873159,-0.988111 z"
     id="path9"
     sodipodi:nodetypes="cccccccccccccccccccccccccccccccccscccccccsccccccccscccsccccccccccccccccccccccscccccccccccccccccccccccccccccccccccccccccccccccccccccccccsccscccccccccccccccccccccccccccccccccccccccccsccccccccsccccccccccccccccscccccccccccccccccccsccccccccccccccccccccsccccccccccccccccccccccccccccccccccccsccsccsccccccccccscccccccccccccsccccccccccssccccscccccccccccccccsccccccccsccscccccccccccccccccccscccccccccscccccccccccccccccccccccccscccccccccccccccccccccccccsccccccsccccccccccsccccccccccccccccccccccc" />
</svg>
