<?xml version="1.0" encoding="UTF-8" standalone="no"?>
<!-- Generator: Gravit.io -->

<svg
   style="isolation:isolate"
   viewBox="0 0 48 48"
   width="48pt"
   height="48pt"
   version="1.1"
   id="svg9"
   sodipodi:docname="qt.svg"
   inkscape:version="1.1.2 (0a00cf5339, 2022-02-04)"
   xmlns:inkscape="http://www.inkscape.org/namespaces/inkscape"
   xmlns:sodipodi="http://sodipodi.sourceforge.net/DTD/sodipodi-0.dtd"
   xmlns:xlink="http://www.w3.org/1999/xlink"
   xmlns="http://www.w3.org/2000/svg"
   xmlns:svg="http://www.w3.org/2000/svg">
  <defs
     id="defs13">
    <linearGradient
       inkscape:collect="always"
       xlink:href="#_lgradient_3"
       id="linearGradient872"
       x1="-12.025727"
       y1="6.1170783"
       x2="-0.085100174"
       y2="6.1170783"
       gradientUnits="userSpaceOnUse"
       gradientTransform="matrix(3.8358211,0,0,3.8371386,-0.00544341,-0.00268054)" />
    <linearGradient
       id="_lgradient_21"
       x1="0"
       y1="0.5"
       x2="1"
       y2="0.5"
       gradientTransform="matrix(28.183272,0,0,28.298876,9.8766106,9.8505561)"
       gradientUnits="userSpaceOnUse">
      <stop
         offset="0%"
         stop-opacity="1"
         style="stop-color:rgb(255,224,49)"
         id="stop2-3" />
      <stop
         offset="98.69565217391305%"
         stop-opacity="1"
         style="stop-color:rgb(252,82,82)"
         id="stop4-6" />
    </linearGradient>
    <linearGradient
       inkscape:collect="always"
       xlink:href="#_lgradient_3"
       id="linearGradient15"
       x1="-9.6850061"
       y1="45.161198"
       x2="11.98815"
       y2="21.735205"
       gradientUnits="userSpaceOnUse"
       gradientTransform="matrix(1.1147442,0,0,1.1150348,-0.01237238,-3.3277956)" />
    <linearGradient
       inkscape:collect="always"
       xlink:href="#_lgradient_3"
       id="linearGradient986"
       x1="12.472907"
       y1="24"
       x2="35.527092"
       y2="24"
       gradientUnits="userSpaceOnUse" />
  </defs>
  <sodipodi:namedview
     id="namedview11"
     pagecolor="#ffffff"
     bordercolor="#666666"
     borderopacity="1.0"
     inkscape:pageshadow="2"
     inkscape:pageopacity="0.0"
     inkscape:pagecheckerboard="0"
     inkscape:document-units="pt"
     showgrid="false"
     inkscape:zoom="10.21875"
     inkscape:cx="31.95107"
     inkscape:cy="32"
     inkscape:window-width="1600"
     inkscape:window-height="836"
     inkscape:window-x="0"
     inkscape:window-y="0"
     inkscape:window-maximized="1"
     inkscape:current-layer="svg9" />
  <linearGradient
     id="_lgradient_3"
     x1="0"
     y1="0.5"
     x2="1"
     y2="0.5"
     gradientTransform="matrix(23.054185,0,0,20.95835,12.472908,13.520825)"
     gradientUnits="userSpaceOnUse">
    <stop
       offset="0%"
       stop-opacity="1"
       style="stop-color:rgb(67,233,123)"
       id="stop2" />
    <stop
       offset="97.82608695652173%"
       stop-opacity="1"
       style="stop-color:rgb(56,249,215)"
       id="stop4" />
  </linearGradient>
  <rect
     x="-46.783188"
     y="1.2253767"
     height="45.80014"
     rx="6.1837621"
     shape-rendering="crispEdges"
     id="rect5-6-7-3"
     ry="6.8055277"
     transform="matrix(0.00524063,-0.99998627,0.99998801,0.00489691,0,0)"
     style="isolation:isolate;fill:#00ffaf;fill-opacity:0.13470298;stroke:url(#linearGradient872);stroke-width:2.0301;stroke-miterlimit:4;stroke-dasharray:none;stroke-opacity:1"
     width="45.801998" />
  <rect
     x="-15.686804"
     y="17.260084"
     height="33.345856"
     rx="6.7920032"
     shape-rendering="crispEdges"
     id="rect5-6-6-6-6"
     style="isolation:isolate;fill:#00ffaf;fill-opacity:0.13470298;stroke:url(#linearGradient15);stroke-width:1.67233;stroke-miterlimit:4;stroke-dasharray:none;stroke-opacity:1"
     ry="7.4743071"
     transform="matrix(0.72446484,-0.68931175,0.68622417,0.72739012,0,0)"
     width="33.338203" />
  <path
     style="color:#000000;fill:url(#linearGradient986);fill-rule:evenodd;-inkscape-stroke:none"
     d="m 18.326172,13.021484 c -0.769875,0 -1.598513,0.342655 -2.142578,0.886719 l -3.324219,3.322266 c -0.544065,0.544065 -0.886719,1.372703 -0.886719,2.142578 v 3.578125 c 0,0.848981 0.699847,1.548828 1.548828,1.548828 0.848981,0 1.546875,-0.699847 1.546875,-1.548828 V 19.71875 c 0,-0.0978 0.155644,-0.47205 0.22461,-0.541016 l 2.83789,-2.83789 c 0.06897,-0.06897 0.443216,-0.222657 0.541016,-0.222657 h 13.1875 c 0.597144,0 1.072266,0.475122 1.072266,1.072266 v 2.619141 c 0,0.84898 0.697894,1.546875 1.546875,1.546875 0.848981,0 1.548828,-0.697895 1.548828,-1.546875 v -3.667969 c 0,-1.716657 -1.402485,-3.119141 -3.119141,-3.119141 z m 0,1 h 14.582031 c 1.175594,0 2.119141,0.943547 2.119141,2.119141 v 3.667969 c 0,0.307918 -0.240909,0.546875 -0.548828,0.546875 -0.307918,0 -0.546875,-0.238957 -0.546875,-0.546875 v -2.619141 c 0,-1.138206 -0.93406,-2.072265 -2.072266,-2.072265 h -13.1875 c -0.48065,0 -0.908326,0.175903 -1.248047,0.515625 l -2.83789,2.83789 c -0.339722,0.339722 -0.517579,0.767397 -0.517579,1.248047 v 3.232422 c 0,0.307919 -0.238957,0.548828 -0.546875,0.548828 -0.307919,0 -0.548828,-0.240909 -0.548828,-0.548828 v -3.578125 c 0,-0.387024 0.32044,-1.162237 0.59375,-1.435547 l 3.324219,-3.322266 c 0.27331,-0.273309 1.048521,-0.59375 1.435547,-0.59375 z M 20.875,18.259766 c -1.54604,0 -2.681331,0.456763 -3.34375,1.390625 -0.662419,0.933861 -0.841797,2.213269 -0.841797,3.826171 0,1.612181 0.175082,2.889707 0.835938,3.824219 0.660855,0.934512 1.797176,1.390625 3.349609,1.390625 h 0.542969 l 1.277343,2.212891 2.337891,-0.875 -1.232422,-2.261719 c 0.437528,-0.373784 0.769697,-0.863616 0.939453,-1.472656 0.222808,-0.799376 0.283203,-1.74986 0.283203,-2.81836 0,-1.610929 -0.169836,-2.888948 -0.822265,-3.824218 C 23.548743,18.717073 22.421286,18.259766 20.875,18.259766 Z m 5.259766,0.52539 v 0.5 1.595703 h -1.0625 v 2.046875 h 1.0625 v 2.644532 c 0,1.085791 0.09644,1.849966 0.537109,2.40625 0.440669,0.556283 1.150868,0.71289 1.976562,0.71289 h 1.681641 l -0.130859,-2.046875 h -1.242188 c -0.115284,0 -0.150832,-0.02127 -0.154297,-0.02344 -0.0035,-0.0022 -0.006,0.0065 -0.0293,-0.05273 -0.0465,-0.118407 -0.08203,-0.481302 -0.08203,-0.996093 v -2.644532 h 1.572266 V 20.880859 H 28.691406 V 18.785156 Z M 20.875,19.259766 c 1.366398,0 2.061775,0.328239 2.505859,0.964843 0.444085,0.636605 0.642578,1.719135 0.642578,3.251953 0,1.027334 -0.06729,1.909273 -0.246093,2.550782 -0.178806,0.641509 -0.436064,1.00548 -0.81836,1.189453 l -0.472656,0.228515 1.119141,2.050782 -0.466797,0.175781 -1.144531,-1.980469 H 20.875 c -1.37335,0 -2.082481,-0.329434 -2.533203,-0.966797 -0.450722,-0.637362 -0.652344,-1.716477 -0.652344,-3.248047 0,-1.530846 0.205639,-2.610033 0.658203,-3.248046 0.452565,-0.638014 1.161224,-0.96875 2.527344,-0.96875 z m 6.259766,0.52539 h 0.55664 v 2.095703 h 1.572266 v 0.04687 h -1.572266 v 3.644532 c 0,0.533125 -0.0069,0.955777 0.152344,1.361328 0.07964,0.202775 0.223257,0.406328 0.429687,0.535156 0.206431,0.128828 0.444945,0.175781 0.683594,0.175781 h 0.304688 l 0.0039,0.04687 h -0.617188 c -0.712122,0 -1.009482,-0.10433 -1.191406,-0.333984 -0.181924,-0.229654 -0.322265,-0.775115 -0.322265,-1.785156 v -3.644532 h -1.0625 v -0.04687 h 1.0625 z m -6.271485,0.04687 c -0.949391,0 -1.712578,0.357364 -2.115234,1.029297 -0.402656,0.671933 -0.488281,1.534735 -0.488281,2.615234 0,1.0795 0.08124,1.940444 0.482421,2.613282 0.40118,0.672837 1.166176,1.029297 2.121094,1.029297 0.954918,0 1.715819,-0.357871 2.113281,-1.03125 0.397463,-0.67338 0.47461,-1.532829 0.47461,-2.611329 0,-1.079541 -0.07951,-1.940845 -0.478516,-2.613281 -0.399006,-0.672435 -1.160213,-1.03125 -2.109375,-1.03125 z m 0,1 c 0.7427,0 1.025246,0.165535 1.248047,0.541016 0.222801,0.375481 0.339844,1.087224 0.339844,2.103515 0,1.017334 -0.114867,1.728979 -0.335938,2.103516 -0.22107,0.374537 -0.501911,0.539063 -1.251953,0.539063 -0.750042,0 -1.038078,-0.165937 -1.261719,-0.541016 -0.22364,-0.375079 -0.341796,-1.085229 -0.341796,-2.101563 0,-1.015333 0.120395,-1.725579 0.345703,-2.101562 0.225308,-0.375983 0.514819,-0.542969 1.257812,-0.542969 z M 34.478516,23.5 c -0.848981,0 -1.546875,0.699847 -1.546875,1.548828 v 3.232422 c 0,0.0978 -0.155644,0.47205 -0.22461,0.541016 l -2.83789,2.83789 c -0.06897,0.06897 -0.443216,0.222657 -0.541016,0.222656 h -13.1875 c -0.597144,0 -1.072266,-0.475121 -1.072266,-1.072265 v -2.619141 c 0,-0.84898 -0.697894,-1.546875 -1.546875,-1.546875 -0.848981,0 -1.548828,0.697895 -1.548828,1.546875 v 3.667969 c 0,1.716657 1.402485,3.119141 3.119141,3.119141 h 14.582031 c 0.769875,0 1.598513,-0.342655 2.142578,-0.886719 l 3.324219,-3.322266 c 0.544065,-0.544065 0.886719,-1.372703 0.886719,-2.142578 V 25.048828 C 36.027344,24.199847 35.327497,23.5 34.478516,23.5 Z m 0,1 c 0.307919,0 0.548828,0.240909 0.548828,0.548828 v 3.578125 c 0,0.387024 -0.32044,1.162237 -0.59375,1.435547 l -3.324219,3.322266 c -0.27331,0.273309 -1.048521,0.59375 -1.435547,0.59375 H 15.091797 c -1.175594,0 -2.119141,-0.943547 -2.119141,-2.119141 v -3.667969 c 0,-0.307918 0.240909,-0.546875 0.548828,-0.546875 0.307918,0 0.546875,0.238957 0.546875,0.546875 v 2.619141 c 0,1.138206 0.93406,2.072265 2.072266,2.072265 h 13.1875 c 0.48065,0 0.908326,-0.175903 1.248047,-0.515625 l 2.83789,-2.83789 c 0.339722,-0.339722 0.517579,-0.767397 0.517579,-1.248047 v -3.232422 c 0,-0.307919 0.238957,-0.548828 0.546875,-0.548828 z"
     id="path7" />
</svg>
