<?xml version="1.0" encoding="UTF-8" standalone="no"?>
<!-- Generator: Gravit.io -->

<svg
   style="isolation:isolate"
   viewBox="0 0 48 48"
   width="48pt"
   height="48pt"
   version="1.1"
   id="svg14"
   sodipodi:docname="quodlibet.svg"
   inkscape:version="1.1.2 (0a00cf5339, 2022-02-04)"
   xmlns:inkscape="http://www.inkscape.org/namespaces/inkscape"
   xmlns:sodipodi="http://sodipodi.sourceforge.net/DTD/sodipodi-0.dtd"
   xmlns:xlink="http://www.w3.org/1999/xlink"
   xmlns="http://www.w3.org/2000/svg"
   xmlns:svg="http://www.w3.org/2000/svg">
  <defs
     id="defs18">
    <linearGradient
       inkscape:collect="always"
       xlink:href="#_lgradient_4"
       id="linearGradient872"
       x1="-12.025727"
       y1="6.1170783"
       x2="-0.085100174"
       y2="6.1170783"
       gradientUnits="userSpaceOnUse"
       gradientTransform="matrix(3.8358211,0,0,3.8371386,-0.00544341,-0.00268054)" />
    <linearGradient
       id="_lgradient_21"
       x1="0"
       y1="0.5"
       x2="1"
       y2="0.5"
       gradientTransform="matrix(28.183272,0,0,28.298876,9.8766106,9.8505561)"
       gradientUnits="userSpaceOnUse">
      <stop
         offset="0%"
         stop-opacity="1"
         style="stop-color:rgb(255,224,49)"
         id="stop2-3" />
      <stop
         offset="98.69565217391305%"
         stop-opacity="1"
         style="stop-color:rgb(252,82,82)"
         id="stop4-6" />
    </linearGradient>
    <linearGradient
       inkscape:collect="always"
       xlink:href="#_lgradient_4"
       id="linearGradient15"
       x1="-9.6850061"
       y1="45.161198"
       x2="11.98815"
       y2="21.735205"
       gradientUnits="userSpaceOnUse"
       gradientTransform="matrix(1.1147442,0,0,1.1150348,-0.01237238,-3.3277956)" />
  </defs>
  <sodipodi:namedview
     id="namedview16"
     pagecolor="#ffffff"
     bordercolor="#666666"
     borderopacity="1.0"
     inkscape:pageshadow="2"
     inkscape:pageopacity="0.0"
     inkscape:pagecheckerboard="0"
     inkscape:document-units="pt"
     showgrid="false"
     inkscape:zoom="7.2257474"
     inkscape:cx="32.038208"
     inkscape:cy="31.969011"
     inkscape:window-width="1600"
     inkscape:window-height="836"
     inkscape:window-x="0"
     inkscape:window-y="0"
     inkscape:window-maximized="1"
     inkscape:current-layer="svg14" />
  <linearGradient
     id="_lgradient_3"
     x1="0"
     y1="0.5"
     x2="1"
     y2="0.5"
     gradientTransform="matrix(17.71618,0,0,31.414142,17.83471,8.2895871)"
     gradientUnits="userSpaceOnUse">
    <stop
       offset="6%"
       stop-opacity="1"
       style="stop-color:rgb(43,134,208)"
       id="stop2" />
    <stop
       offset="89%"
       stop-opacity="1"
       style="stop-color:rgb(33,215,137)"
       id="stop4" />
  </linearGradient>
  <linearGradient
     id="_lgradient_4"
     x1="13.525139"
     y1="18.30906"
     x2="49.38066"
     y2="18.30906"
     gradientTransform="matrix(0.53280445,0,0,0.91465548,9.9385916,7.242449)"
     gradientUnits="userSpaceOnUse">
    <stop
       offset="6%"
       stop-opacity="1"
       style="stop-color:rgb(43,134,208)"
       id="stop7" />
    <stop
       offset="89%"
       stop-opacity="1"
       style="stop-color:rgb(33,215,137)"
       id="stop9" />
  </linearGradient>
  <rect
     x="-46.783188"
     y="1.2253767"
     height="45.80014"
     rx="6.1837621"
     shape-rendering="crispEdges"
     id="rect5-6-7-3"
     ry="6.8055277"
     transform="matrix(0.00524063,-0.99998627,0.99998801,0.00489691,0,0)"
     style="isolation:isolate;fill:#00ffac;fill-opacity:0.13470298;stroke:url(#linearGradient872);stroke-width:2.0301;stroke-miterlimit:4;stroke-dasharray:none;stroke-opacity:1"
     width="45.801998" />
  <rect
     x="-15.686804"
     y="17.260084"
     height="33.345856"
     rx="6.7920032"
     shape-rendering="crispEdges"
     id="rect5-6-6-6-6"
     style="isolation:isolate;fill:#00ffac;fill-opacity:0.13470298;stroke:url(#linearGradient15);stroke-width:1.67233;stroke-miterlimit:4;stroke-dasharray:none;stroke-opacity:1"
     ry="7.4743071"
     transform="matrix(0.72446484,-0.68931175,0.68622417,0.72739012,0,0)"
     width="33.338203" />
  <path
     style="color:#000000;vector-effect:non-scaling-stroke;fill:url(#_lgradient_4);-inkscape-stroke:none"
     d="m 20.994141,7.796875 c -1.441646,-0.064595 -2.645569,0.7270184 -3.242188,1.8125 -0.595519,1.083481 -0.585137,2.503678 0.328125,3.59375 0.865364,1.268579 2.270742,2.256605 3.826172,2.716797 1.302843,0.385461 2.693484,0.259071 3.955078,-0.308594 0.0018,7.750348 0.0332,16.357551 0.0332,24.052734 v 0.386719 l 0.373047,0.0957 c 0.50005,0.129779 1.035306,-0.02583 1.298828,-0.373047 0.263522,-0.347212 0.316938,-0.743075 0.34961,-1.136718 0.03267,-0.393643 0.02529,-0.799294 0.0332,-1.150391 0.0079,-0.351097 0.04648,-0.653425 0.08594,-0.753906 l 0.01563,-0.03906 0.0078,-0.04297 c 0.326655,-1.576913 1.292291,-2.79282 2.501953,-3.947266 1.209662,-1.154446 2.650315,-2.221611 3.818359,-3.501953 1.991384,-2.177294 2.256883,-5.50658 0.50586,-7.923828 -0.187717,-0.259296 -0.68622,-1.081287 -1.083985,-1.744141 -0.198882,-0.331427 -0.377035,-0.627422 -0.496094,-0.818359 -0.05953,-0.09547 -0.08476,-0.142079 -0.152343,-0.226563 -0.0084,-0.01056 -0.01766,-0.02272 -0.03516,-0.04102 -0.0087,-0.0091 -0.0186,-0.02078 -0.03516,-0.03516 -0.01656,-0.01438 -0.07952,-0.05632 -0.08008,-0.05664 -2.8e-4,-1.62e-4 -0.08765,-0.03898 -0.08789,-0.03906 -2.36e-4,-8.2e-5 -0.159964,-0.0293 -0.160156,-0.0293 -1.91e-4,-1e-6 -0.242041,0.06047 -0.242187,0.06055 -1.47e-4,8e-5 -0.185446,0.173668 -0.185547,0.173828 -1.02e-4,1.61e-4 -0.0644,0.154054 -0.06445,0.154297 -5.6e-5,2.43e-4 -0.01171,0.09733 -0.01172,0.09766 -2.1e-5,6.52e-4 0.0022,0.07945 0.0059,0.101563 0.02956,0.176901 0.04222,0.141255 0.06055,0.181641 l 0.0039,0.0078 0.0039,0.0059 c 1.001782,2.03245 2.16435,4.173029 1.628906,6.208985 -1.69e-4,6.41e-4 1.69e-4,0.0013 0,0.002 -0.695507,2.486981 -3.279798,4.142677 -5.972656,4.544922 -0.07359,0.01036 -0.06812,0.0066 -0.107422,0.0078 -0.0026,-0.05669 -0.04035,-0.283063 -0.07227,-0.789062 V 11.996094 l -0.03711,-0.0918 C 26.713873,9.3578616 23.787938,7.7267403 20.994141,7.796875 Z m 0.316406,1.7285156 h 0.002 c 1.067643,-0.047317 2.30004,0.3502971 3.189453,1.0292974 0.877713,0.670067 1.394484,1.559363 1.289063,2.578125 -0.261511,0.850111 -0.951781,1.226728 -1.882813,1.3125 -0.947182,0.08726 -2.067664,-0.206269 -2.759766,-0.667969 l -0.0332,-0.02149 -0.03711,-0.01758 c -0.74249,-0.339671 -1.455185,-1.17256 -1.693359,-1.974609 -0.119088,-0.401024 -0.125378,-0.780814 -0.01367,-1.101563 0.111437,-0.319978 0.333643,-0.603822 0.78125,-0.8398434 0.339232,-0.1767188 0.743121,-0.2727343 1.158203,-0.296875 z m -2.435547,0.3125 c -0.07117,0.1003968 -0.198747,0.1700914 -0.251953,0.2773434 0.004,-0.0074 0.0018,-0.01608 0.0059,-0.02344 0.05658,-0.1029396 0.175431,-0.1591281 0.246094,-0.2539064 z m -0.449219,1.1035154 c -0.01697,0.207752 -0.02896,0.410618 0,0.617188 -0.03808,-0.211519 -0.02788,-0.406767 0,-0.617188 z m 8.089844,0.851563 c 0.08686,0.149251 0.217541,0.279085 0.285156,0.435547 v 1.78125 l -0.724609,0.496093 c -0.04973,0.0341 -0.113258,0.02717 -0.164063,0.05859 0.361877,-0.320093 0.71324,-0.663159 0.863282,-1.191406 l 0.01172,-0.03711 0.0039,-0.03906 c 0.06635,-0.544531 -0.107599,-1.025862 -0.275391,-1.503906 z m -5.923828,2.816406 c 0.013,0.0087 0.03178,0.01097 0.04492,0.01953 0.0096,0.0045 0.01573,0.01511 0.02539,0.01953 z m 14.394531,10.132812 c 0.04115,1.361763 -0.38098,2.73093 -1.345703,3.785157 -1.075621,1.179033 -2.497828,2.237517 -3.769531,3.451172 -1.261182,1.203613 -2.378997,2.592208 -2.773438,4.429687 -0.124743,0.342037 -0.1402,0.69118 -0.148437,1.056641 -0.0086,0.379651 -0.0027,0.769601 -0.0293,1.089843 -0.0047,0.05718 -0.01976,0.05806 -0.02734,0.109375 -9.65e-4,-2.910206 -0.0057,-5.950338 -0.01172,-9.005859 0.01391,0.234474 -0.0065,0.502026 0.101563,0.724609 0.09513,0.195906 0.33016,0.386045 0.544922,0.435547 0.214762,0.0495 0.393415,0.02728 0.597656,-0.002 h 0.002 0.002 c 2.997213,-0.447707 5.959409,-2.285133 6.791016,-5.273437 v -0.0039 l 0.002,-0.002 c 0.07097,-0.269305 0.03699,-0.529256 0.06445,-0.794922 z"
     id="path12" />
</svg>
