<?xml version="1.0" encoding="UTF-8" standalone="no"?>
<svg
   width="48"
   height="48"
   viewBox="0 0 12.69975 12.69975"
   version="1.1"
   id="svg12"
   sodipodi:docname="qv4l2.svg"
   inkscape:version="1.1.2 (0a00cf5339, 2022-02-04)"
   xmlns:inkscape="http://www.inkscape.org/namespaces/inkscape"
   xmlns:sodipodi="http://sodipodi.sourceforge.net/DTD/sodipodi-0.dtd"
   xmlns:xlink="http://www.w3.org/1999/xlink"
   xmlns="http://www.w3.org/2000/svg"
   xmlns:svg="http://www.w3.org/2000/svg"
   xmlns:rdf="http://www.w3.org/1999/02/22-rdf-syntax-ns#"
   xmlns:cc="http://creativecommons.org/ns#"
   xmlns:dc="http://purl.org/dc/elements/1.1/">
  <metadata
     id="metadata18">
    <rdf:RDF>
      <cc:Work
         rdf:about="">
        <dc:format>image/svg+xml</dc:format>
        <dc:type
           rdf:resource="http://purl.org/dc/dcmitype/StillImage" />
      </cc:Work>
    </rdf:RDF>
  </metadata>
  <defs
     id="defs16">
    <linearGradient
       inkscape:collect="always"
       id="linearGradient824">
      <stop
         style="stop-color:#00ff66;stop-opacity:1"
         offset="0"
         id="stop820" />
      <stop
         style="stop-color:#00ffcc;stop-opacity:1"
         offset="1"
         id="stop822" />
    </linearGradient>
    <linearGradient
       inkscape:collect="always"
       xlink:href="#linearGradient824"
       id="linearGradient872"
       x1="-12.025727"
       y1="6.1170783"
       x2="-0.085100174"
       y2="6.1170783"
       gradientUnits="userSpaceOnUse"
       gradientTransform="matrix(1.0151011,0,0,1.0154498,-2.833137e-5,-0.00213593)" />
    <linearGradient
       id="_lgradient_21"
       x1="0"
       y1="0.5"
       x2="1"
       y2="0.5"
       gradientTransform="matrix(28.183272,0,0,28.298876,9.8766106,9.8505561)"
       gradientUnits="userSpaceOnUse">
      <stop
         offset="0%"
         stop-opacity="1"
         style="stop-color:rgb(255,224,49)"
         id="stop2" />
      <stop
         offset="98.69565217391305%"
         stop-opacity="1"
         style="stop-color:rgb(252,82,82)"
         id="stop4" />
    </linearGradient>
    <linearGradient
       inkscape:collect="always"
       xlink:href="#linearGradient824"
       id="linearGradient15"
       x1="-9.6850061"
       y1="45.161198"
       x2="11.98815"
       y2="21.735205"
       gradientUnits="userSpaceOnUse"
       gradientTransform="matrix(0.29500282,0,0,0.29507973,-0.00281132,-0.88217106)" />
    <linearGradient
       inkscape:collect="always"
       xlink:href="#linearGradient824"
       id="linearGradient879"
       x1="1.3223143"
       y1="6.349875"
       x2="11.377436"
       y2="6.349875"
       gradientUnits="userSpaceOnUse"
       gradientTransform="matrix(0.75016758,0,0,0.75016758,1.5865854,1.5864045)" />
    <linearGradient
       inkscape:collect="always"
       xlink:href="#linearGradient824"
       id="linearGradient909"
       x1="4.966702"
       y1="6.349875"
       x2="8.5904951"
       y2="6.349875"
       gradientUnits="userSpaceOnUse"
       gradientTransform="matrix(0.75016758,0,0,0.75016758,1.5862526,1.5864045)" />
  </defs>
  <sodipodi:namedview
     pagecolor="#ffffff"
     bordercolor="#666666"
     borderopacity="1"
     objecttolerance="10"
     gridtolerance="10"
     guidetolerance="10"
     inkscape:pageopacity="0"
     inkscape:pageshadow="2"
     inkscape:window-width="1600"
     inkscape:window-height="836"
     id="namedview14"
     showgrid="true"
     fit-margin-top="0"
     fit-margin-left="0"
     fit-margin-right="0"
     fit-margin-bottom="0"
     showborder="false"
     inkscape:zoom="8"
     inkscape:cx="28.0625"
     inkscape:cy="18"
     inkscape:window-x="0"
     inkscape:window-y="0"
     inkscape:window-maximized="1"
     inkscape:current-layer="svg12"
     inkscape:pagecheckerboard="0"
     width="48px" />
  <rect
     x="-12.379162"
     y="0.32285386"
     height="12.120423"
     rx="1.6364537"
     shape-rendering="crispEdges"
     id="rect5-6-7-3"
     ry="1.8009961"
     transform="matrix(0.00524063,-0.99998627,0.99998801,0.00489692,0,0)"
     style="isolation:isolate;fill:#00ffa0;fill-opacity:0.134703;stroke:url(#linearGradient872);stroke-width:0.53724;stroke-miterlimit:4;stroke-dasharray:none;stroke-opacity:1"
     width="12.120915" />
  <rect
     x="-4.1508498"
     y="4.5661488"
     height="8.8245554"
     rx="1.797417"
     shape-rendering="crispEdges"
     id="rect5-6-6-6-6"
     style="isolation:isolate;fill:#00ffa0;fill-opacity:0.134703;stroke:url(#linearGradient15);stroke-width:0.442561;stroke-miterlimit:4;stroke-dasharray:none;stroke-opacity:1"
     ry="1.97798"
     transform="matrix(0.72446484,-0.68931175,0.68622416,0.72739013,0,0)"
     width="8.8225307" />
  <path
     style="color:#000000;fill:url(#linearGradient909);stroke-width:0.750168;-inkscape-stroke:none;paint-order:stroke markers fill"
     d="M 5.2125509,4.4727915 V 8.2280249 L 8.2176168,6.3496756 8.0828211,6.2661608 Z M 5.4118142,4.8302932 7.842533,6.3496756 5.4118142,7.869058 Z"
     id="path10" />
  <path
     style="color:#000000;fill:url(#linearGradient879);stroke-width:0.750168;-inkscape-stroke:none"
     d="m 6.0040762,2.4786937 c -0.2759314,0 -0.5125521,0.1996189 -0.5582302,0.4717851 L 5.363796,3.4339852 C 5.2230388,3.4813155 5.0863518,3.5389982 4.9535485,3.6068754 L 4.5652782,3.3270277 c -0.0959,-0.069048 -0.2116938,-0.1054923 -0.3296635,-0.1054923 -0.1504431,0 -0.2945536,0.059674 -0.3999916,0.1670295 L 3.3653032,3.8574197 C 3.1708697,4.0518536 3.1436538,4.3606876 3.3037659,4.5856097 L 3.5880092,4.9841362 C 3.5219234,5.1173802 3.4665986,5.2550823 3.4209796,5.3958492 L 2.9506597,5.4764337 C 2.6784946,5.5221133 2.4788746,5.7587319 2.4788746,6.0346638 v 0.6622573 c 0,0.275932 0.1996191,0.5125522 0.4717851,0.5582302 l 0.4835065,0.08205 C 3.4816398,7.4783858 3.5389127,7.6157366 3.6070564,7.748914 L 3.3286738,8.1342539 v 0.00146 C 3.1687758,8.3603326 3.193778,8.6693798 3.3902108,8.8639038 l 0.4688548,0.468855 c 0.1062008,0.106202 0.2480838,0.1655642 0.3985265,0.1655642 0.1179698,0 0.2328078,-0.036811 0.3281983,-0.1054923 v 0.0015 L 4.9843169,9.110091 C 5.1125837,9.173728 5.244478,9.2290991 5.3799131,9.2741901 l 0.079119,0.4747151 c 0.045674,0.2721678 0.2822983,0.4717858 0.5582301,0.4717858 h 0.6651876 c 0.2759311,0 0.511087,-0.199619 0.556765,-0.4717858 L 7.3212647,9.272725 C 7.4622985,9.2258321 7.5990692,9.1692057 7.7315127,9.1027648 l 0.3926658,0.2798478 c 0.095902,0.069053 0.21023,0.1054923 0.3281983,0.1054923 0.1504447,0 0.2937913,-0.060831 0.3999917,-0.1670293 L 9.3212236,8.8521878 c 0.1944336,-0.1944341 0.221649,-0.5032679 0.061537,-0.72819 L 9.1029128,7.7313319 C 9.1694752,7.5983064 9.2264324,7.4603476 9.272873,7.3196188 L 9.7490531,7.2390344 C 10.021218,7.1933544 10.220839,6.9582009 10.220839,6.6822694 V 6.0200121 6.0185492 C 10.223989,5.7424057 10.023729,5.5059276 9.751984,5.4603191 L 9.2758032,5.3797323 C 9.2288269,5.2382444 9.1724863,5.1008665 9.1058437,4.9680193 L 9.3856907,4.5753535 C 9.5455889,4.3507344 9.5205858,4.0416878 9.3241545,3.8471635 L 8.8552998,3.3783087 C 8.7490976,3.2721077 8.6057502,3.2112792 8.4553074,3.2112792 c -0.1179694,0 -0.2313425,0.036812 -0.3267332,0.1054923 L 7.7344432,3.5966192 C 7.5962292,3.5271938 7.4527086,3.4686543 7.3051481,3.4207987 L 7.2260288,2.9504788 C 7.1803546,2.6783106 6.9437297,2.4786937 6.6677987,2.4786937 Z m 0,0.1992632 h 0.6637225 c 0.1810265,0 0.331944,0.1277331 0.3618973,0.3062207 l 0.098166,0.5846033 0.060072,0.017582 c 0.1777971,0.053187 0.3494523,0.1239952 0.514275,0.2109846 l 0.054212,0.029304 0.4879019,-0.3487106 c 0.062181,-0.04477 0.1335652,-0.067398 0.2109847,-0.067398 0.09852,0 0.1890552,0.038143 0.2593352,0.1084227 L 9.1849624,3.9878197 C 9.3131308,4.1147428 9.3293449,4.3138192 9.2245262,4.46107 l -0.3472496,0.4849717 0.027838,0.054211 c 0.083726,0.1583186 0.1532147,0.3243715 0.2065891,0.496693 l 0.017584,0.058607 0.5889986,0.1010968 h 0.0015 c 0.1784882,0.029956 0.3043107,0.180165 0.3018257,0.3604321 v 0.6651876 c 0,0.1810273 -0.1277305,0.3319395 -0.3062209,0.3618973 L 9.1263555,7.1423331 9.1073088,7.20094 C 9.0557622,7.3707388 8.986304,7.5370419 8.9021845,7.697633 L 8.8743465,7.751844 9.2215918,8.2397459 C 9.3261972,8.3866938 9.3090453,8.584518 9.1820352,8.7115314 L 8.7117123,9.1818512 c -0.070281,0.070276 -0.1608168,0.1069574 -0.2593352,0.1069574 -0.077422,0 -0.1507789,-0.022993 -0.2124499,-0.067395 L 7.7534904,8.8741654 7.6992791,8.9020036 C 7.5409612,8.9857293 7.3749075,9.0552174 7.2025861,9.1085929 l -0.058607,0.017584 -0.099632,0.5889993 C 7.0143912,9.8936658 6.8634771,10.021397 6.6824504,10.021397 H 6.0172627 c -0.1810278,0 -0.3334092,-0.1277327 -0.3633624,-0.3062209 L 5.5557338,9.1261746 5.4985921,9.1085906 C 5.332085,9.0566547 5.1699582,8.9898299 5.0165509,8.9093295 L 4.9623396,8.8814912 4.4700421,9.2316669 v 0.0015 c -0.062181,0.04477 -0.1350297,0.067395 -0.2124498,0.067395 -0.09852,0 -0.1875912,-0.038146 -0.2578701,-0.1084225 L 3.5294023,8.7232527 v -0.00146 C 3.4012342,8.5948651 3.3850202,8.3972532 3.4898427,8.2500025 L 3.8356231,7.7679612 3.8063196,7.7137499 C 3.7210465,7.5553867 3.6515,7.3888717 3.5982653,7.218522 L 3.5806833,7.1613803 2.9843586,7.0602836 C 2.8058687,7.0303273 2.6781378,6.8779488 2.6781378,6.6969211 V 6.0346638 c 0,-0.1810276 0.12773,-0.3334048 0.3062208,-0.3633624 l 0.5831381,-0.098166 0.019047,-0.058607 C 3.6383855,5.3422312 3.7050775,5.1760851 3.7887376,5.0163699 L 3.8165759,4.9621586 3.4664,4.4698611 C 3.3617944,4.3229137 3.3789465,4.1250895 3.5059596,3.9980761 l 0.471785,-0.47032 c 0.067891,-0.069126 0.1593492,-0.1084226 0.2578701,-0.1084226 0.07742,0 0.1522427,0.024459 0.213915,0.068863 l 0.4835065,0.3472456 0.054212,-0.029304 C 5.1456114,3.7208659 5.3121261,3.6513188 5.4824753,3.5980843 l 0.057142,-0.017582 0.102562,-0.5963247 C 5.6721352,2.805688 5.8230489,2.6779569 6.0040762,2.6779569 Z m 0.00293,0.2256364 c -0.065532,0 -0.126255,0.050664 -0.1377261,0.1172137 l -0.114283,0.6666528 c -0.00787,0.042818 -0.041402,0.078878 -0.08498,0.090841 -0.2401349,0.062274 -0.4694389,0.1601987 -0.6813046,0.2871735 -0.039232,0.023027 -0.088597,0.02196 -0.1260047,-0.0044 l -0.5421131,-0.3868011 -0.00147,-0.00147 c -0.021004,-0.015269 -0.049707,-0.026373 -0.080584,-0.026373 -0.021104,0 -0.070006,0.011399 -0.1010968,0.04249 L 3.6685935,4.1577802 c -0.050656,0.050524 -0.056417,0.1226338 -0.016117,0.180216 v 0.00146 l 0.3926659,0.5509043 v 0.00146 c 0.026293,0.036473 0.028663,0.08276 0.00586,0.1216092 -0.1263623,0.2149872 -0.2193484,0.4468131 -0.2798461,0.6871694 -0.010828,0.043311 -0.046712,0.075773 -0.092306,0.083515 L 3.0239188,5.8954671 C 2.9561754,5.9058841 2.90524,5.9683771 2.90524,6.0346583 v 0.6622573 c 0,0.06628 0.050999,0.1287518 0.1186788,0.1391913 l 0.663722,0.1128237 c 0.043315,0.00749 0.080235,0.041015 0.092306,0.08498 0.062381,0.2407738 0.1597628,0.4718844 0.2871735,0.6842349 0.022193,0.039001 0.021654,0.087567 -0.0044,0.1245396 l -0.389735,0.5450437 -0.00146,0.00293 c -0.033697,0.053116 -0.028917,0.1278566 0.019048,0.1758206 l 0.4688552,0.4703227 c 0.034386,0.03429 0.07794,0.041025 0.1010968,0.041025 0.034,0 0.058118,-0.011932 0.074723,-0.021978 l 0.00293,-0.00146 0.5552998,-0.3955962 c 0.017249,-0.012748 0.041525,-0.020513 0.064467,-0.020513 0.018982,0 0.039963,0.0063 0.057142,0.016117 0.2106855,0.1208583 0.4367807,0.2133727 0.6710483,0.273987 0.04252,0.010839 0.075804,0.045442 0.083515,0.090841 l 0.1098877,0.6607928 c 0.010428,0.06771 0.072915,0.1186787 0.1391913,0.1186787 h 0.6637225 c 0.066282,0 0.1272917,-0.050989 0.1377261,-0.1186787 L 6.9329946,9.0177521 c 0.00649,-0.042156 0.038739,-0.078548 0.08205,-0.089375 0.2399959,-0.062039 0.4712978,-0.1567388 0.6857001,-0.2842432 0.039231,-0.023027 0.088015,-0.02088 0.1230743,0.0044 h 0.00146 L 8.3717902,9.038265 c 0.020987,0.01524 0.049707,0.026373 0.080585,0.026373 0.021065,0 0.069999,-0.01138 0.1010968,-0.04249 L 9.0223262,8.5532929 c 0.050655,-0.050525 0.05642,-0.124099 0.016119,-0.1816812 L 8.64871,7.8236377 C 8.621948,7.7856457 8.62097,7.7388667 8.64431,7.6990981 c 0.1278563,-0.2147337 0.2220904,-0.445267 0.2842432,-0.6857 0.010839,-0.042521 0.04545,-0.074343 0.090841,-0.08205 l 0.6607926,-0.111353 c 0.019362,-0.00298 0.017861,-0.029216 0.033697,-0.039559 h 0.086445 v -0.761889 c 0,-0.066276 -0.050989,-0.1287569 -0.1186787,-0.1391912 l -0.6607917,-0.1113533 -0.00147,-0.00147 c -0.042155,-0.00649 -0.078548,-0.037274 -0.089375,-0.080584 v -0.00146 C 8.86787,5.4440543 8.7736369,5.2135222 8.6457796,4.9987879 c -0.023028,-0.039232 -0.02088,-0.088016 0.0044,-0.1230744 l 0.3912007,-0.5494391 0.00146,-0.00293 C 9.0765519,4.2702061 9.0717613,4.1954909 9.0237911,4.1475207 L 8.5549364,3.6772008 c -0.034455,-0.034523 -0.078489,-0.041022 -0.1010942,-0.041022 -0.034421,0 -0.058562,0.012294 -0.074723,0.021978 l -0.00293,0.00146 -0.5465088,0.394131 v -0.00146 c -0.037543,0.026448 -0.083618,0.028353 -0.123078,0.00586 C 7.4872851,3.9288476 7.2503515,3.8316758 7.0033228,3.7695094 6.9600123,3.7586818 6.9275494,3.7227968 6.9198081,3.6772036 L 6.8099203,3.0222721 C 6.7994908,2.9545619 6.7370104,2.9035933 6.670729,2.9035933 Z m 0.048351,0.1977981 h 0.5670212 l 0.1010968,0.6095112 c 0.020618,0.1214327 0.1109335,0.2204034 0.2314971,0.2505442 0.2288383,0.057589 0.447562,0.1469975 0.6505359,0.2666611 0.105192,0.061742 0.2377768,0.057746 0.3384546,-0.013186 h 0.00146 L 8.4494467,3.8530241 8.8494384,4.2530158 8.4890063,4.759965 c -0.072423,0.100453 -0.076715,0.2341855 -0.014652,0.3399197 0.1177236,0.1977147 0.2061236,0.4106012 0.2637308,0.6329538 0.030045,0.1201816 0.1278865,0.2109105 0.2490791,0.230032 l 0.6139066,0.104027 v 0.5157403 h -0.0015 v 0.051281 L 8.9856993,6.7350155 C 8.8640637,6.7556679 8.7667501,6.8468448 8.7366202,6.9650475 8.679013,7.1873997 8.5906121,7.400287 8.4728894,7.5980014 v 0.00146 c -0.061752,0.1051984 -0.057728,0.2377822 0.013186,0.3384545 h 0.00146 L 8.8479732,8.4463354 8.4465164,8.8477922 7.9410323,8.4873602 h -0.00147 C 7.8392628,8.4158372 7.706392,8.4109145 7.6011126,8.4727085 h -0.00147 C 7.4019326,8.5904316 7.1890461,8.6788325 6.9666936,8.7364392 6.8461287,8.7665802 6.7553875,8.865264 6.7366617,8.9869835 L 6.6340997,9.5994253 H 6.0670785 L 5.9645166,8.9855184 C 5.9438585,8.8638904 5.8541528,8.7665694 5.7359499,8.7364392 5.5195608,8.6804508 5.3105664,8.5938469 5.1147174,8.4814995 5.0657187,8.4534982 5.0114452,8.4404747 4.957944,8.4404747 c -0.062145,0 -0.1264466,0.017785 -0.1816812,0.058607 L 4.2649182,8.8609788 3.8649265,8.4609871 4.2238934,7.9569682 c 0.071342,-0.101256 0.076714,-0.2356505 0.014652,-0.3413848 h -0.00146 C 4.1189095,7.4186334 4.0292748,7.2046409 3.9718839,6.9826295 l -0.00146,-0.00146 C 3.9383614,6.8644043 3.8418999,6.774929 3.7213397,6.7540628 L 3.1030375,6.6485705 V 6.0815493 L 3.7125487,5.9804525 C 3.8339814,5.9598347 3.9329522,5.8695195 3.963093,5.7489554 4.0191981,5.5260505 4.1061318,5.3109264 4.2224282,5.1130712 4.2844437,5.0074125 4.276843,4.8749843 4.2063113,4.7760819 v -0.00147 L 3.8429489,4.263272 4.2429406,3.8632804 4.7469594,4.2222472 h 0.00146 c 0.1012558,0.071339 0.2341852,0.076713 0.3399197,0.014652 l 0.00146,-0.00146 C 5.2867583,4.1172635 5.4992863,4.0276286 5.7212981,3.9702378 h 0.00146 V 3.968775 C 5.8395309,3.93672 5.9304639,3.8402531 5.9513301,3.7196936 Z"
     id="path2-3" />
</svg>
