<?xml version="1.0" encoding="UTF-8" standalone="no"?>
<svg
   width="48"
   height="48"
   viewBox="0 0 12.69975 12.69975"
   version="1.1"
   id="svg12"
   sodipodi:docname="qvidcap.svg"
   inkscape:version="1.1.2 (0a00cf5339, 2022-02-04)"
   xmlns:inkscape="http://www.inkscape.org/namespaces/inkscape"
   xmlns:sodipodi="http://sodipodi.sourceforge.net/DTD/sodipodi-0.dtd"
   xmlns:xlink="http://www.w3.org/1999/xlink"
   xmlns="http://www.w3.org/2000/svg"
   xmlns:svg="http://www.w3.org/2000/svg"
   xmlns:rdf="http://www.w3.org/1999/02/22-rdf-syntax-ns#"
   xmlns:cc="http://creativecommons.org/ns#"
   xmlns:dc="http://purl.org/dc/elements/1.1/">
  <metadata
     id="metadata18">
    <rdf:RDF>
      <cc:Work
         rdf:about="">
        <dc:format>image/svg+xml</dc:format>
        <dc:type
           rdf:resource="http://purl.org/dc/dcmitype/StillImage" />
      </cc:Work>
    </rdf:RDF>
  </metadata>
  <defs
     id="defs16">
    <linearGradient
       inkscape:collect="always"
       id="linearGradient1347">
      <stop
         style="stop-color:#0effce;stop-opacity:1"
         offset="0"
         id="stop1343" />
      <stop
         style="stop-color:#00fb23;stop-opacity:1"
         offset="1"
         id="stop1345" />
    </linearGradient>
    <linearGradient
       inkscape:collect="always"
       xlink:href="#linearGradient1347"
       id="linearGradient872"
       x1="-12.025727"
       y1="6.1170783"
       x2="-0.085100174"
       y2="6.1170783"
       gradientUnits="userSpaceOnUse"
       gradientTransform="matrix(1.0151012,0,0,1.0154499,-2.7985832e-5,-0.00213601)" />
    <linearGradient
       id="_lgradient_21"
       x1="0"
       y1="0.5"
       x2="1"
       y2="0.5"
       gradientTransform="matrix(28.183272,0,0,28.298876,9.8766106,9.8505561)"
       gradientUnits="userSpaceOnUse">
      <stop
         offset="0%"
         stop-opacity="1"
         style="stop-color:rgb(255,224,49)"
         id="stop2" />
      <stop
         offset="98.69565217391305%"
         stop-opacity="1"
         style="stop-color:rgb(252,82,82)"
         id="stop4" />
    </linearGradient>
    <linearGradient
       inkscape:collect="always"
       xlink:href="#linearGradient1347"
       id="linearGradient15"
       x1="-9.6850061"
       y1="45.161198"
       x2="11.98815"
       y2="21.735205"
       gradientUnits="userSpaceOnUse"
       gradientTransform="matrix(0.29500285,0,0,0.29507975,-0.00333242,-0.88266539)" />
    <linearGradient
       inkscape:collect="always"
       xlink:href="#linearGradient1347"
       id="linearGradient1115"
       x1="4.5840096"
       y1="6.3503528"
       x2="8.1166821"
       y2="6.3503528"
       gradientUnits="userSpaceOnUse" />
    <linearGradient
       inkscape:collect="always"
       xlink:href="#linearGradient1347"
       id="linearGradient1117"
       x1="5.5190272"
       y1="6.3503528"
       x2="7.181664"
       y2="6.3503528"
       gradientUnits="userSpaceOnUse" />
    <linearGradient
       inkscape:collect="always"
       xlink:href="#linearGradient1347"
       id="linearGradient1119"
       x1="2.489072"
       y1="6.3524653"
       x2="10.215787"
       y2="6.3524653"
       gradientUnits="userSpaceOnUse" />
  </defs>
  <sodipodi:namedview
     pagecolor="#ffffff"
     bordercolor="#666666"
     borderopacity="1"
     objecttolerance="10"
     gridtolerance="10"
     guidetolerance="10"
     inkscape:pageopacity="0"
     inkscape:pageshadow="2"
     inkscape:window-width="1600"
     inkscape:window-height="836"
     id="namedview14"
     showgrid="true"
     fit-margin-top="0"
     fit-margin-left="0"
     fit-margin-right="0"
     fit-margin-bottom="0"
     showborder="false"
     inkscape:zoom="8"
     inkscape:cx="22.9375"
     inkscape:cy="23"
     inkscape:window-x="0"
     inkscape:window-y="0"
     inkscape:window-maximized="1"
     inkscape:current-layer="svg12"
     inkscape:pagecheckerboard="0" />
  <rect
     x="-12.379162"
     y="0.32285371"
     height="12.120423"
     rx="1.6364539"
     shape-rendering="crispEdges"
     id="rect5-6-7-3"
     ry="1.8009962"
     transform="matrix(0.00524065,-0.99998627,0.99998801,0.00489689,0,0)"
     style="isolation:isolate;fill:#00ffd7;fill-opacity:0.13470298;stroke:url(#linearGradient872);stroke-width:0.53724;stroke-miterlimit:4;stroke-dasharray:none;stroke-opacity:1"
     width="12.120915" />
  <rect
     x="-4.151371"
     y="4.5656548"
     height="8.8245554"
     rx="1.797417"
     shape-rendering="crispEdges"
     id="rect5-6-6-6-6"
     style="isolation:isolate;fill:#00ffd7;fill-opacity:0.13470298;stroke:url(#linearGradient15);stroke-width:0.442561;stroke-miterlimit:4;stroke-dasharray:none;stroke-opacity:1"
     ry="1.9779801"
     transform="matrix(0.72446485,-0.68931175,0.68622416,0.72739013,0,0)"
     width="8.8225307" />
  <path
     style="color:#000000;fill:url(#linearGradient1119);-inkscape-stroke:none"
     d="M 5.6132812,2.3339844 4.953125,2.5117188 C 4.6444416,2.5944301 4.4371998,2.8908804 4.4667969,3.2089844 l 0.042969,0.4648437 C 4.406639,3.7445988 4.3072556,3.8216355 4.2128906,3.9042969 L 3.7890625,3.7441406 C 3.6603063,3.6953492 3.5208832,3.6891836 3.3886719,3.7246094 3.2199903,3.7698076 3.0745516,3.8806191 2.9882813,4.0332031 L 2.6445313,4.625 C 2.4848569,4.9015642 2.5477019,5.2567493 2.7949219,5.4609375 l 0.359375,0.2949219 C 3.1309528,5.8808141 3.113756,6.0066135 3.1054688,6.1328125 l -0.4082032,0.1875 C 2.405915,6.4532558 2.25307,6.778625 2.3359375,7.0878906 L 2.5117188,7.75 C 2.5945861,8.0592658 2.892149,8.2649179 3.2109375,8.234375 L 3.6738281,8.1914063 C 3.7449635,8.2951524 3.8230866,8.3933972 3.90625,8.4882813 L 3.7460938,8.9121094 h -0.00195 c -0.111777,0.2998258 0.010168,0.6396134 0.2890625,0.7988281 l 0.59375,0.3437505 c 0.1506477,0.08697 0.329366,0.1116 0.4980469,0.06641 0.132212,-0.03543 0.249534,-0.112988 0.3359375,-0.2187502 L 5.7558594,9.5449219 c 0.1186875,0.022157 0.2375698,0.038053 0.3574218,0.046875 l 0.1894532,0.4160161 c 0.1329414,0.291351 0.4583117,0.444196 0.7675781,0.361328 L 7.734375,10.193359 C 8.043645,10.110496 8.2492927,9.812929 8.21875,9.4941406 L 8.1777344,9.0390625 c 0.1037915,-0.07054 0.202051,-0.1486054 0.296875,-0.2304687 L 8.9023438,8.96875 c 0.1287598,0.048794 0.2701351,0.054956 0.4023437,0.019531 C 9.4733721,8.9430825 9.6161476,8.8322835 9.703125,8.6816406 l 0.341797,-0.59375 C 10.204595,7.8113281 10.141759,7.4561409 9.8945313,7.2519531 L 9.5410156,6.9609375 c 0.023774,-0.1240363 0.039678,-0.248999 0.048828,-0.375 L 10.007813,6.3964844 C 10.299162,6.2635408 10.452007,5.9362189 10.369141,5.6269531 L 10.191406,4.9667969 C 10.11134,4.6567358 9.8158132,4.450024 9.4980469,4.4804687 L 9.0410156,4.5234375 C 8.970161,4.4191791 8.8947787,4.3178645 8.8125,4.2226562 L 8.9726563,3.796875 C 9.0844315,3.4970522 8.9624963,3.1553079 8.6835938,2.9960938 L 8.0917969,2.6542969 C 7.9411478,2.5673197 7.7604784,2.5426926 7.5917969,2.5878906 7.4595856,2.6233164 7.3422645,2.6989172 7.2558594,2.8046875 L 6.9648437,3.1582031 C 6.8338522,3.1329846 6.7020074,3.114313 6.5683594,3.1054688 L 6.3828125,2.6972656 C 6.2498708,2.4059128 5.9225466,2.2511171 5.6132812,2.3339844 Z m 0.091797,0.3417969 C 5.8514099,2.6365718 5.9996431,2.7059938 6.0625,2.84375 l 0.2734375,0.5976563 0.109375,0.00391 C 6.6316871,3.4506951 6.8168293,3.4739287 7,3.515625 l 0.1054687,0.025391 0.4238282,-0.5117187 v -0.00195 c 0.040388,-0.04944 0.091701,-0.082837 0.1542968,-0.099609 0.07954,-0.021313 0.1580155,-0.010581 0.2304688,0.03125 l 0.5957031,0.34375 C 8.6403719,3.3772922 8.6953897,3.532168 8.6425781,3.6738281 L 8.4101563,4.2929687 8.484375,4.3730469 C 8.6069596,4.5050933 8.7156335,4.6489708 8.8125,4.8027344 l 0.058594,0.091797 0.6601562,-0.0625 c 0.1507314,-0.014441 0.2834611,0.0771 0.3203125,0.2226563 v 0.00195 L 10.029297,5.71875 c 0.01266,0.047262 -0.046045,0.070633 -0.054688,0.1152344 L 9.7734375,5.078125 C 9.7469075,4.9791211 9.6427995,4.9063921 9.5371094,4.9179687 l -0.6875,0.064453 h -0.00195 c -0.013947,0.00153 -0.029141,-0.00518 -0.037109,-0.019531 v -0.00195 h -0.00195 C 8.6793134,4.7323788 8.5195983,4.5225943 8.3300781,4.3378906 v -0.00195 C 8.318362,4.3232131 8.3133968,4.3060395 8.3183594,4.2929687 v -0.00195 L 8.5625,3.6386719 l 0.00195,-0.00586 C 8.5933404,3.5406784 8.556306,3.4278108 8.4648438,3.375 L 7.8710937,3.0332031 c -0.064898,-0.037469 -0.1314422,-0.032686 -0.1660156,-0.023437 -0.05326,0.01427 -0.084844,0.043177 -0.1035156,0.0625 L 7.5957031,3.078125 7.15625,3.6171875 C 7.1438278,3.6320778 7.1280091,3.635996 7.109375,3.6308594 6.8493557,3.5586445 6.5823937,3.5251721 6.3125,3.5292969 h -0.00195 c -0.01641,2.76e-4 -0.031113,-0.010009 -0.039063,-0.027344 L 5.9863281,2.8789063 C 5.9435024,2.7815779 5.8295161,2.7293336 5.7304687,2.7558594 L 5.0683594,2.9335938 C 4.9692827,2.96014 4.8966182,3.0641909 4.9082031,3.1699219 l -0.00195,-0.00391 0.066406,0.6953125 c 0.00146,0.016099 -0.00711,0.033409 -0.023437,0.042969 C 4.7206467,4.0338988 4.511764,4.1972271 4.3300781,4.3847656 4.3172857,4.3977437 4.2982747,4.402737 4.28125,4.3964844 L 3.640625,4.15625 C 3.6027165,4.1410765 3.5514258,4.1356748 3.5039063,4.1484375 3.4733189,4.1566326 3.4023965,4.1923992 3.3691406,4.25 L 3.0273438,4.84375 c -0.056192,0.097107 -0.035882,0.2081831 0.048828,0.2792969 l 0.5390625,0.4453125 c 0.01369,0.01117 0.02026,0.026152 0.015625,0.042969 C 3.560333,5.866565 3.5272547,6.130072 3.53125,6.3925781 v 0.00195 c 2.761e-4,0.016409 -0.00805,0.03111 -0.025391,0.039063 L 2.8828125,6.7167969 C 2.7854636,6.759631 2.7332365,6.8755543 2.7597656,6.9746094 L 2.9375,7.6367187 c 0.026538,0.099046 0.1286585,0.1717385 0.234375,0.1601563 l -0.00195,0.00195 0.6933594,-0.066406 c 0.016098,-0.00146 0.033407,0.00711 0.042969,0.023437 0.1296019,0.2285718 0.2929272,0.4374537 0.4804687,0.6191406 0.012978,0.012792 0.01797,0.031809 0.011719,0.048828 L 4.15625,9.0742188 l -0.00195,0.00391 c -0.028874,0.092103 0.00814,0.2050064 0.099609,0.2578125 l 0.59375,0.3417969 c 0.064464,0.037014 0.1312353,0.033424 0.1679688,0.023437 0.051458,-0.014334 0.08275,-0.042915 0.1015625,-0.0625 l 0.00391,-0.00586 0.4511719,-0.5449219 c 0.00282,-0.00354 0.012719,-0.00937 0.021484,-0.011719 0.00649,-0.00174 0.016888,-0.00172 0.023437,0 0.248506,0.065846 0.5050752,0.097913 0.7617187,0.095703 0.015622,-1.908e-4 0.029129,0.00956 0.037109,0.025391 L 6.703125,9.8261719 c 0.042777,0.097416 0.1570976,0.1494478 0.2558594,0.1230469 h 0.00195 L 7.6210937,9.7714844 C 7.7195977,9.7450819 7.7937105,9.6440762 7.7832031,9.5390625 v -0.00195 L 7.7167969,8.8476563 v -0.00195 C 7.7152684,8.831756 7.7239283,8.816562 7.7382812,8.8085938 7.9672919,8.6790587 8.178314,8.5181349 8.3632813,8.328125 8.3760745,8.315147 8.3945764,8.311233 8.4082031,8.3164063 l 0.6503907,0.2421875 c 0.037569,0.014211 0.086646,0.020212 0.1328125,0.00781 0.030527,-0.00818 0.099552,-0.045891 0.1328125,-0.1035157 l 0.34375,-0.59375 C 9.7241795,7.7720212 9.70384,7.6629033 9.6191406,7.5917969 h -0.00195 L 9.0839844,7.1484375 c -0.014895,-0.012427 -0.020761,-0.026291 -0.015625,-0.044922 0.07207,-0.2551919 0.1058382,-0.5181554 0.1035156,-0.78125 -1.978e-4,-0.016192 0.00838,-0.031263 0.025391,-0.039063 l 0.6289063,-0.2851562 0.00195,-0.00195 c 0.016838,-0.00769 0.0076,-0.033333 0.021484,-0.044922 l 0.082031,-0.023437 c -0.030755,0.049232 -0.01302,0.1222945 -0.070312,0.1484375 l -0.6035156,0.2734375 -0.00391,0.109375 c -0.00586,0.1778692 -0.030239,0.3585172 -0.070312,0.5371093 l -0.025391,0.1054688 0.5117188,0.421875 c 0.1160588,0.095854 0.1452533,0.2588702 0.070312,0.3886719 l -0.3417969,0.59375 C 9.3566041,8.5783139 9.2924281,8.6271255 9.2128906,8.6484375 9.150292,8.6652106 9.0859977,8.6608993 9.0273438,8.6386719 L 8.40625,8.40625 8.3261719,8.4804688 C 8.1941255,8.6030534 8.0502478,8.7136803 7.8964844,8.8105469 l -0.089844,0.056641 0.060547,0.6601563 C 7.8816288,9.6780741 7.7889051,9.812357 7.6425781,9.8515625 L 6.9804687,10.029297 C 6.8341366,10.068507 6.6859033,9.9990827 6.6230469,9.8613281 L 6.3496094,9.2578125 6.2402344,9.2539063 C 6.0644331,9.2467654 5.8904418,9.2257169 5.7207031,9.1875 L 5.6152344,9.1640625 5.1894531,9.6796875 H 5.1875 c -0.040391,0.04944 -0.091701,0.082836 -0.1542969,0.099609 -0.079541,0.021311 -0.1580153,0.01058 -0.2304687,-0.03125 L 4.2089844,9.40625 C 4.0783826,9.3316923 4.0233611,9.1768136 4.0761719,9.0351563 L 4.3085937,8.4199219 4.2324219,8.3398438 C 4.108295,8.2081271 3.9983669,8.0636857 3.9023438,7.9121094 L 3.84375,7.8222656 3.1777344,7.8828125 C 3.0270028,7.897254 2.8927251,7.8045352 2.8535156,7.6582031 L 2.6757813,6.9980469 C 2.6365716,6.8517145 2.7059918,6.7034841 2.84375,6.640625 l 0.5976563,-0.2734375 0.00391,-0.109375 C 3.450834,6.0766593 3.4720319,5.8975844 3.5117188,5.7207031 L 3.5351563,5.6152344 3.0195313,5.1894531 C 2.9034758,5.0935986 2.8762315,4.9305819 2.9511719,4.8007812 l 0.34375,-0.59375 c 0.039395,-0.069677 0.1040526,-0.121265 0.1835937,-0.1425781 0.062596,-0.016773 0.1268909,-0.012462 0.1855469,0.00977 l 0.6191406,0.234375 0.080078,-0.076172 C 4.4949981,4.1082949 4.637487,3.9964129 4.7890625,3.9003906 l 0.091797,-0.056641 -0.0625,-0.6660156 v -0.00195 C 4.8039179,3.02505 4.8966368,2.8927251 5.0429687,2.8535156 Z m 0.00586,0.4511718 0.2402344,0.5234375 c 0.064944,0.1416188 0.207313,0.2331253 0.3652343,0.2304688 0.2365492,-0.00362 0.4716913,0.026653 0.6992188,0.089844 0.1486317,0.040971 0.3104277,-0.00741 0.4101562,-0.1269531 l 0.00195,-0.00195 L 7.7929687,3.3945313 8.1914063,3.625 7.9882812,4.1679687 c -0.056033,0.1475825 -0.016844,0.3109128 0.09375,0.4199219 v 0.00195 h 0.00195 C 8.2489721,4.750453 8.3884656,4.9324642 8.5019531,5.1328125 8.5786145,5.2709007 8.730544,5.3510988 8.8867188,5.3339844 L 9.4609375,5.2792969 9.5644531,5.6621094 H 9.5625 l 0.015625,0.060547 -0.5273437,0.2402344 c -0.141945,0.065098 -0.232362,0.2082839 -0.2304688,0.3632813 0.00204,0.2307799 -0.029077,0.459555 -0.091797,0.6816406 v 0.00195 c -0.040978,0.1486371 0.00937,0.3104295 0.1289063,0.4101563 L 9.3046875,7.7910156 9.0761719,8.1894531 8.5332031,7.9863281 C 8.3856216,7.9303 8.220338,7.9694937 8.1113281,8.0800781 v 0.00195 C 7.9507185,8.2470194 7.766755,8.3865132 7.5664062,8.5 7.4288705,8.5763544 7.3509051,8.7272971 7.3671875,8.8828125 L 7.4199219,9.4589844 6.9785156,9.578125 6.7382812,9.0507813 C 6.6731806,8.9088484 6.5299987,8.8184193 6.375,8.8203125 6.1511784,8.82224 5.9261507,8.7924342 5.7070312,8.734375 c -0.069536,-0.018306 -0.1392963,-0.017634 -0.2050781,0 -0.075223,0.020156 -0.1482099,0.062962 -0.203125,0.1308594 L 4.9257812,9.3164063 4.5273437,9.0859375 4.7285156,8.546875 l 0.00195,-0.00195 C 4.7845807,8.397591 4.7453567,8.2340082 4.6347656,8.125 v -0.00195 C 4.4692635,7.9630208 4.3257761,7.7796522 4.2128906,7.5800781 h -0.00195 V 7.578125 C 4.1335704,7.4459973 3.9868965,7.366818 3.8320313,7.3808594 L 3.2480469,7.4355469 3.1289063,6.9941406 3.6523438,6.7539062 C 3.7934175,6.6892069 3.886689,6.5458842 3.8847656,6.3886719 v -0.00195 C 3.8814431,6.1568416 3.9097538,5.9256553 3.9707031,5.7050781 4.0119906,5.5552807 3.9586587,5.3948411 3.8398438,5.296875 L 3.3886719,4.9238281 3.6191406,4.5253906 4.1582031,4.7265625 h 0.00195 c 0.1473252,0.054107 0.3109107,0.016844 0.4199219,-0.09375 l 0.00195,-0.00195 C 4.7420567,4.4653597 4.9254258,4.3218698 5.125,4.2089844 h 0.00195 C 5.2590842,4.1316176 5.33826,3.9829896 5.3242187,3.828125 L 5.2695312,3.2460938 Z"
     id="path1019" />
  <path
     style="color:#000000;fill:url(#linearGradient1115);-inkscape-stroke:none;paint-order:stroke markers fill"
     d="M 5.8476562,4.4746094 C 4.8132876,4.7517706 4.1974312,5.8191515 4.4746094,6.8535156 4.7517663,7.8878686 5.8191612,8.5037139 6.8535156,8.2265625 7.8878685,7.9494055 8.503714,6.8820106 8.2265625,5.8476562 7.9494238,4.8132816 6.8820264,4.1974537 5.8476562,4.4746094 Z m 0.091797,0.3398437 c 0.850213,-0.2278114 1.7194682,0.2747833 1.9472656,1.125 0.227808,0.8501998 -0.2748013,1.7194531 -1.125,1.9472656 -0.8501998,0.227808 -1.7194532,-0.2748013 -1.9472656,-1.125 -0.2278299,-0.850208 0.2747883,-1.7194495 1.125,-1.9472656 z m 0.042969,0.1621094 C 5.2252186,5.1794549 4.7736709,5.9615465 4.9765625,6.71875 5.1794549,7.4759533 5.9615465,7.927501 6.71875,7.7246094 7.4759534,7.521717 7.927501,6.7396255 7.7246094,5.9824219 7.5217169,5.2252185 6.7396254,4.7736708 5.9824219,4.9765625 Z m 0.091797,0.3398437 C 6.6472674,5.1628586 7.2312174,5.5011703 7.3847656,6.0742187 7.5383132,6.6472674 7.2000016,7.2312175 6.6269531,7.3847656 6.0539045,7.5383132 5.4699544,7.2000016 5.3164062,6.6269531 5.1628587,6.0539045 5.5011703,5.4699544 6.0742187,5.3164062 Z"
     id="path1025" />
  <path
     style="color:#000000;fill:url(#linearGradient1117);-inkscape-stroke:none;paint-order:stroke markers fill"
     d="M 6.0898437,5.3769531 C 5.5542784,5.5204684 5.2334334,6.0757639 5.3769531,6.6113281 5.5204637,7.1468761 6.0757746,7.4677089 6.6113281,7.3242187 7.1468762,7.1807082 7.467709,6.6253973 7.3242187,6.0898437 7.1807283,5.5542717 6.6254146,5.2334583 6.0898437,5.3769531 Z m 0.091797,0.3398438 c 0.072727,-0.019486 0.095219,0.090857 0.1660156,0.095703 -0.059827,0.089257 -0.1780136,0.1454134 -0.1484375,0.2558594 0.054361,0.202909 0.2677981,0.3258604 0.4707032,0.2714843 0.1094607,-0.029326 0.09881,-0.1586845 0.1464843,-0.2539062 0.039592,0.058891 0.1465306,0.022976 0.1660157,0.095703 C 7.0765726,6.5330428 6.8709298,6.8882578 6.5195312,6.9824219 6.1681291,7.0765726 5.810961,6.8709298 5.7167969,6.5195312 5.6226267,6.1681217 5.8302303,5.8109641 6.1816406,5.7167969 Z M 6.5625,5.9394531 c 0.01874,-0.00502 0.034038,0.00275 0.039063,0.021484 0.00502,0.018743 -0.00469,0.034041 -0.023437,0.039063 -0.018743,0.00502 -0.032088,-0.00469 -0.037109,-0.023437 -0.00502,-0.018741 0.00274,-0.032089 0.021484,-0.037109 z"
     id="path1022" />
</svg>
