<?xml version="1.0" encoding="UTF-8" standalone="no"?>
<!-- Generator: Gravit.io -->

<svg
   style="isolation:isolate"
   viewBox="0 0 48 48"
   width="48pt"
   height="48pt"
   version="1.1"
   id="svg9"
   sodipodi:docname="radiotray.svg"
   inkscape:version="1.1.2 (0a00cf5339, 2022-02-04)"
   xmlns:inkscape="http://www.inkscape.org/namespaces/inkscape"
   xmlns:sodipodi="http://sodipodi.sourceforge.net/DTD/sodipodi-0.dtd"
   xmlns:xlink="http://www.w3.org/1999/xlink"
   xmlns="http://www.w3.org/2000/svg"
   xmlns:svg="http://www.w3.org/2000/svg">
  <defs
     id="defs13">
    <linearGradient
       inkscape:collect="always"
       xlink:href="#_lgradient_9"
       id="linearGradient872"
       x1="-12.025727"
       y1="6.1170783"
       x2="-0.085100174"
       y2="6.1170783"
       gradientUnits="userSpaceOnUse"
       gradientTransform="matrix(3.8358211,0,0,3.8371386,-0.00544341,-0.00268054)" />
    <linearGradient
       id="_lgradient_21"
       x1="0"
       y1="0.5"
       x2="1"
       y2="0.5"
       gradientTransform="matrix(28.183272,0,0,28.298876,9.8766106,9.8505561)"
       gradientUnits="userSpaceOnUse">
      <stop
         offset="0%"
         stop-opacity="1"
         style="stop-color:rgb(255,224,49)"
         id="stop2-3" />
      <stop
         offset="98.69565217391305%"
         stop-opacity="1"
         style="stop-color:rgb(252,82,82)"
         id="stop4-6" />
    </linearGradient>
    <linearGradient
       inkscape:collect="always"
       xlink:href="#_lgradient_9"
       id="linearGradient15"
       x1="-9.6850061"
       y1="45.161198"
       x2="11.98815"
       y2="21.735205"
       gradientUnits="userSpaceOnUse"
       gradientTransform="matrix(1.1147442,0,0,1.1150348,-0.01237238,-3.3277956)" />
    <linearGradient
       inkscape:collect="always"
       xlink:href="#_lgradient_9"
       id="linearGradient1783"
       x1="11.32546"
       y1="24"
       x2="36.674541"
       y2="24"
       gradientUnits="userSpaceOnUse" />
  </defs>
  <sodipodi:namedview
     id="namedview11"
     pagecolor="#ffffff"
     bordercolor="#666666"
     borderopacity="1.0"
     inkscape:pageshadow="2"
     inkscape:pageopacity="0.0"
     inkscape:pagecheckerboard="0"
     inkscape:document-units="pt"
     showgrid="false"
     width="48pt"
     inkscape:zoom="49.547982"
     inkscape:cx="41.020843"
     inkscape:cy="39.43652"
     inkscape:window-width="1600"
     inkscape:window-height="836"
     inkscape:window-x="0"
     inkscape:window-y="0"
     inkscape:window-maximized="1"
     inkscape:current-layer="svg9" />
  <linearGradient
     id="_lgradient_9"
     x1="0.67180997"
     y1="0.020570019"
     x2="0.42214948"
     y2="0.96016449"
     gradientTransform="matrix(25.349079,0,0,18.458067,11.325461,14.770966)"
     gradientUnits="userSpaceOnUse">
    <stop
       offset="0%"
       stop-opacity="1"
       style="stop-color:rgb(26,108,255)"
       id="stop2" />
    <stop
       offset="100%"
       stop-opacity="1"
       style="stop-color:rgb(197,34,255)"
       id="stop4" />
  </linearGradient>
  <rect
     x="-46.783188"
     y="1.2253767"
     height="45.80014"
     rx="6.1837621"
     shape-rendering="crispEdges"
     id="rect5-6-7-3"
     ry="6.8055277"
     transform="matrix(0.00524063,-0.99998627,0.99998801,0.00489691,0,0)"
     style="isolation:isolate;fill:#b500ff;fill-opacity:0.13470298;stroke:url(#linearGradient872);stroke-width:2.0301;stroke-miterlimit:4;stroke-dasharray:none;stroke-opacity:1"
     width="45.801998" />
  <rect
     x="-15.686804"
     y="17.260084"
     height="33.345856"
     rx="6.7920032"
     shape-rendering="crispEdges"
     id="rect5-6-6-6-6"
     style="isolation:isolate;fill:#b500ff;fill-opacity:0.13470298;stroke:url(#linearGradient15);stroke-width:1.67233;stroke-miterlimit:4;stroke-dasharray:none;stroke-opacity:1"
     ry="7.4743071"
     transform="matrix(0.72446484,-0.68931175,0.68622417,0.72739012,0,0)"
     width="33.338203" />
  <path
     style="color:#000000;fill:url(#linearGradient1783);fill-rule:evenodd;-inkscape-stroke:none"
     d="m 13.294922,14.271484 c -1.357341,0 -2.46875,1.111409 -2.46875,2.46875 v 2.337891 c 0,0.74601 0.615317,1.361328 1.361328,1.361328 0.746011,0 1.361328,-0.615318 1.361328,-1.361328 v -1.599609 c 0,-0.272873 0.211501,-0.484375 0.484375,-0.484375 h 19.933594 c 0.272874,0 0.484375,0.211502 0.484375,0.484375 v 0.224609 c -0.248151,-0.18643 -0.52241,-0.355469 -0.853516,-0.355469 h -8.367187 c -0.813937,0 -1.484375,0.67044 -1.484375,1.484375 v 2.884766 c -0.280663,-0.632956 -0.656792,-1.225733 -1.15625,-1.722656 -1.059133,-1.06391 -2.503007,-1.66211 -4.003907,-1.66211 -1.5009,0 -2.946726,0.5982 -4.005859,1.66211 -0.643467,0.6402 -1.046563,1.439445 -1.320312,2.289062 -0.02456,-0.04594 -0.01918,-0.06083 -0.05078,-0.109375 -0.177035,-0.271969 -0.578547,-0.53083 -1.035156,-0.519531 -0.292321,0.0072 -0.608923,0.112782 -0.847656,0.335937 -0.238733,0.223156 -0.39222,0.531466 -0.486328,0.902344 l -0.01367,0.06055 v 8.306641 c 0,1.357341 1.111409,2.46875 2.46875,2.46875 h 21.410156 c 1.357341,0 2.46875,-1.111409 2.46875,-2.46875 v -1.845704 c 0,-0.74601 -0.615317,-1.361328 -1.361328,-1.361328 -0.746011,0 -1.361328,0.615319 -1.361328,1.361328 v 1.107422 c 0,0.272873 -0.211501,0.484375 -0.484375,0.484375 H 14.033203 c -0.272874,0 -0.484375,-0.211502 -0.484375,-0.484375 v -4.054687 c 0.272747,0.555429 0.58504,1.095117 1.03125,1.539062 1.059133,1.06391 2.504959,1.66211 4.005859,1.66211 0.755767,0 1.505447,-0.150441 2.207032,-0.447266 0.624844,-0.262398 0.922568,-0.997422 0.658203,-1.621094 -0.264375,-0.623704 -0.996581,-0.922419 -1.621094,-0.660156 l -0.002,0.002 c -0.389519,0.165125 -0.816638,0.25 -1.242188,0.25 -0.180566,0 -0.304857,-0.169382 -0.480468,-0.199219 l 3.298828,-1.177734 c -0.07829,0.514265 0.08446,1.047708 0.570312,1.294922 0.604345,0.307503 1.357406,0.06022 1.664063,-0.544922 0.405274,-0.794335 0.615234,-1.673511 0.615234,-2.564453 0,-0.335201 -0.135155,-0.642764 -0.193359,-0.96875 0.265241,0.411136 0.648979,0.730469 1.169922,0.730469 h 1.96875 c 0.258906,0 0.552123,-0.07787 0.791015,-0.283203 0.238893,-0.205333 0.395364,-0.522437 0.44336,-0.890625 0.04872,-0.373774 -0.112713,-0.72264 -0.347657,-0.947266 -0.234943,-0.224626 -0.546278,-0.355469 -0.886718,-0.355469 h -0.976563 v -1.460937 h 2.914063 c -0.137952,0.180465 -0.273837,0.364202 -0.332032,0.61914 l -0.01367,0.05469 v 1.779297 c 0,0.813936 0.670439,1.484375 1.484375,1.484375 h 3.322265 c 0.331106,0 0.605365,-0.169039 0.853516,-0.355469 v 2.070312 c 0,0.746011 0.615317,1.361329 1.361328,1.361329 0.746011,0 1.361328,-0.615318 1.361328,-1.361329 v -8.736328 c 0,-1.357341 -1.111409,-2.46875 -2.46875,-2.46875 z m 0,1 h 21.410156 c 0.816279,0 1.46875,0.652472 1.46875,1.46875 v 8.736328 c 0,0.204949 -0.15638,0.361329 -0.361328,0.361329 -0.204948,0 -0.361328,-0.15638 -0.361328,-0.361329 v -7.998046 c 0,-0.813936 -0.670439,-1.484375 -1.484375,-1.484375 H 14.033203 c -0.813936,0 -1.484375,0.670439 -1.484375,1.484375 v 1.599609 c 0,0.204947 -0.15638,0.361328 -0.361328,0.361328 -0.204948,0 -0.361328,-0.156381 -0.361328,-0.361328 v -2.337891 c 0,-0.816278 0.652471,-1.46875 1.46875,-1.46875 z m 11.935547,3.076172 h 8.367187 c 0.272875,0 0.484375,0.211502 0.484375,0.484375 v 3.445313 c 0,0.272875 -0.2115,0.484375 -0.484375,0.484375 h -3.322265 c -0.272875,0 -0.484375,-0.2115 -0.484375,-0.484375 v -1.636719 c 0.04396,-0.165561 0.09697,-0.252486 0.126953,-0.279297 0.03272,-0.02925 0.05644,-0.04237 0.138672,-0.04687 0.143505,-0.0079 0.131594,0.01338 0.15625,0.04492 0.02465,0.03155 0.05469,0.123484 0.05469,0.195312 v 1.730469 h 3.337891 v -3.460937 h -8.382813 v 3.460937 h 1.976563 c 0.06711,0 0.151766,0.03462 0.197265,0.07813 0.0455,0.0435 0.04888,0.06534 0.04492,0.0957 -0.02394,0.183686 -0.07148,0.23586 -0.101562,0.261719 -0.03009,0.02586 -0.07074,0.04102 -0.140625,0.04102 h -1.96875 c -0.272875,0 -0.484375,-0.2115 -0.484375,-0.484375 v -3.445313 c 0,-0.272873 0.2115,-0.484375 0.484375,-0.484375 z m -6.644532,0.984375 c 1.235264,0 2.426632,0.494457 3.296875,1.369141 h 0.002 v 0.002 c 0.874683,0.870243 1.36914,2.061612 1.36914,3.296875 0,0.733367 -0.17281,1.458553 -0.505859,2.111328 h -0.002 c -0.0625,0.12334 -0.197181,0.167127 -0.31836,0.105469 -0.120717,-0.06142 -0.166326,-0.198319 -0.103515,-0.322266 0.295705,-0.58583 0.453125,-1.234622 0.453125,-1.894531 0,-1.110913 -0.440637,-2.177603 -1.228516,-2.960938 -0.783513,-0.78911 -1.851055,-1.230468 -2.962891,-1.230468 -1.110914,0 -2.177602,0.440635 -2.960937,1.228515 -0.789109,0.783513 -1.230469,1.851056 -1.230469,2.962891 0,1.110914 0.440637,2.177603 1.228516,2.960937 3.88e-4,3.92e-4 0.0016,-3.9e-4 0.002,0 3.91e-4,3.89e-4 -3.91e-4,0.0016 0,0.002 0.783335,0.78788 1.850023,1.228515 2.960937,1.228515 0.558237,0 1.115202,-0.111767 1.63086,-0.330078 h 0.002 c 0.125038,-0.05134 0.257239,0.0031 0.310547,0.128906 0.05361,0.126464 2.97e-4,0.255976 -0.125,0.308594 -0.578172,0.244612 -1.195926,0.369141 -1.81836,0.369141 -1.235264,0 -2.428584,-0.494457 -3.298828,-1.369141 l -0.002,-0.002 C 14.410473,26.426632 13.917969,25.235263 13.917969,24 c 0,-1.235263 0.492504,-2.426632 1.367187,-3.296875 l 0.002,-0.002 c 0.870244,-0.874684 2.063564,-1.369141 3.298828,-1.369141 z m 12.44336,0.492188 h 1.576172 v 1.460937 h -1.337891 v -0.730469 c 0,-0.23097 -0.07898,-0.489402 -0.238281,-0.730468 z m -12.44336,0.984375 c 0.12768,0 0.214384,0.125602 0.339844,0.140625 l -2.660156,0.951172 c 0.03855,-0.04273 0.02341,-0.113548 0.06445,-0.154297 v -0.002 h 0.002 c 0.594688,-0.598937 1.406727,-0.935547 2.253906,-0.935547 z m 1.253907,0.876953 0.07617,0.216797 -3.78125,1.349609 -0.07813,-0.214844 z m 1.009765,0.08008 c 0.589279,0.593264 0.927735,1.394498 0.927735,2.234375 0,0.02114 -0.0152,0.03944 -0.01563,0.06055 -0.231728,-0.284084 -0.562732,-0.436676 -0.929688,-0.359375 0.02895,-0.163088 0.08608,-0.325153 0.02734,-0.490235 l -0.08203,-0.232421 c -0.05386,-0.151389 -0.19175,-0.22816 -0.302735,-0.332032 0.280598,-0.215607 0.423244,-0.526547 0.375,-0.880859 z m -8.65039,0.888672 c 0.18231,-0.0045 0.121308,-0.0083 0.169922,0.06641 0.0372,0.05715 0.104292,0.229824 0.179687,0.400391 v 7.40039 c 0,0.813936 0.670439,1.484375 1.484375,1.484375 h 19.933594 c 0.813936,0 1.484375,-0.670439 1.484375,-1.484375 v -1.107422 c 0,-0.204947 0.15638,-0.361328 0.361328,-0.361328 0.204948,0 0.361328,0.156382 0.361328,0.361328 v 1.845704 c 0,0.816278 -0.652471,1.46875 -1.46875,1.46875 H 13.294922 c -0.816279,0 -1.46875,-0.652472 -1.46875,-1.46875 v -8.154297 c 0.06046,-0.210167 0.132188,-0.33854 0.181641,-0.384766 0.05372,-0.05021 0.08797,-0.06385 0.191406,-0.06641 z m 7.640625,0.667969 0.07617,0.216796 -2.582032,0.923829 -0.07617,-0.216797 z m -4.392578,0.550781 c 0.231908,0.253022 0.539661,0.385999 0.884765,0.316406 -0.0088,0.130559 -0.06594,0.255004 -0.01953,0.384766 l 0.08203,0.230468 c 0.06389,0.178617 0.217174,0.281546 0.357422,0.392579 -0.347371,0.226544 -0.533587,0.614919 -0.433594,1.02539 C 15.734707,25.630269 15.394531,24.8356 15.394531,24 c 0,-0.04772 0.05061,-0.07948 0.05274,-0.126953 z m 11.505859,0.365234 c -0.716507,0 -1.409078,0.282954 -1.917969,0.796875 -0.513921,0.508891 -0.796875,1.201462 -0.796875,1.917969 0,0.715265 0.284648,1.407368 0.796875,1.916016 0.508941,0.514274 1.201203,0.798828 1.917969,0.798828 0.715886,0 1.409199,-0.283801 1.917969,-0.796875 0.349546,-0.346615 0.424038,-0.84002 0.542968,-1.306641 0.118779,0.466026 0.194141,0.958297 0.542969,1.304688 0.508942,0.514273 1.201203,0.798828 1.917969,0.798828 0.716766,0 1.410981,-0.284554 1.919922,-0.798828 0.512226,-0.508648 0.794922,-1.200752 0.794922,-1.916016 0,-0.716507 -0.281001,-1.409078 -0.794922,-1.917969 -0.508891,-0.513922 -1.203414,-0.796875 -1.919922,-0.796875 -0.716507,0 -1.409077,0.282955 -1.917969,0.796875 -0.35057,0.347139 -0.423999,0.840913 -0.542969,1.308594 C 29.29503,25.875821 29.22001,25.382387 28.869141,25.035156 28.360493,24.522929 27.66839,24.238281 26.953125,24.238281 Z m -5.916016,0.402344 0.07813,0.214844 -3.78125,1.351562 -0.07813,-0.216797 z m 5.916016,0.597656 c 0.454083,0 0.891125,0.18031 1.208984,0.501953 l 0.002,0.002 0.0039,0.002 c 0.321642,0.317857 0.5,0.754901 0.5,1.208984 0,0.454083 -0.178357,0.891125 -0.5,1.208984 l -0.0039,0.002 -0.002,0.0039 c -0.317859,0.321643 -0.754901,0.5 -1.208984,0.5 -0.454083,0 -0.891127,-0.178358 -1.208984,-0.5 l -0.002,-0.0039 -0.002,-0.002 c -0.321643,-0.317859 -0.501953,-0.754901 -0.501953,-1.208984 0,-0.454083 0.180311,-0.891127 0.501953,-1.208984 l 0.002,-0.002 0.002,-0.002 c 0.317857,-0.321642 0.754901,-0.501953 1.208984,-0.501953 z m 4.921875,0 c 0.454083,0 0.89308,0.180311 1.210937,0.501953 l 0.002,0.002 0.002,0.002 c 0.321642,0.317857 0.5,0.754901 0.5,1.208984 0,0.454083 -0.178357,0.891125 -0.5,1.208984 l -0.002,0.002 -0.002,0.0039 c -0.317857,0.321642 -0.756854,0.5 -1.210937,0.5 -0.454083,0 -0.891125,-0.178357 -1.208984,-0.5 l -0.002,-0.0039 -0.002,-0.002 c -0.321643,-0.317859 -0.501953,-0.754901 -0.501953,-1.208984 0,-0.454083 0.180311,-0.891127 0.501953,-1.208984 l 0.002,-0.002 0.002,-0.002 c 0.317859,-0.321643 0.754901,-0.501953 1.208984,-0.501953 z m -4.921875,0.476563 c -0.33022,0 -0.644583,0.132864 -0.875,0.363281 -0.230404,0.230412 -0.363281,0.544772 -0.363281,0.875 0,0.33022 0.132864,0.644583 0.363281,0.875 0.230412,0.230404 0.544772,0.363281 0.875,0.363281 0.33022,0 0.644583,-0.132864 0.875,-0.363281 0.230404,-0.230412 0.363281,-0.544772 0.363281,-0.875 0,-0.33022 -0.132864,-0.644583 -0.363281,-0.875 -0.230412,-0.230404 -0.544772,-0.363281 -0.875,-0.363281 z m 4.921875,0 c -0.33022,0 -0.644583,0.132864 -0.875,0.363281 -0.230404,0.230412 -0.363281,0.544772 -0.363281,0.875 0,0.33022 0.132864,0.644583 0.363281,0.875 0.230412,0.230404 0.544772,0.363281 0.875,0.363281 0.33022,0 0.644583,-0.132864 0.875,-0.363281 0.230404,-0.230412 0.363281,-0.544772 0.363281,-0.875 0,-0.33022 -0.132864,-0.644583 -0.363281,-0.875 -0.230412,-0.230404 -0.544772,-0.363281 -0.875,-0.363281 z m -4.921875,1 c 0.06354,0 0.122741,0.02509 0.167969,0.07031 0.04522,0.04522 0.07031,0.104417 0.07031,0.167969 0,0.06354 -0.02509,0.122741 -0.07031,0.167969 -0.04522,0.04522 -0.104417,0.07031 -0.167969,0.07031 -0.06354,0 -0.122741,-0.02509 -0.167969,-0.07031 -0.04522,-0.04522 -0.07031,-0.104417 -0.07031,-0.167969 0,-0.06354 0.02509,-0.122741 0.07031,-0.167969 0.04522,-0.04522 0.104417,-0.07031 0.167969,-0.07031 z m 4.921875,0 c 0.06354,0 0.122741,0.02509 0.167969,0.07031 0.04522,0.04522 0.07031,0.104417 0.07031,0.167969 0,0.06354 -0.02509,0.122741 -0.07031,0.167969 -0.04522,0.04522 -0.104417,0.07031 -0.167969,0.07031 -0.06354,0 -0.122741,-0.02509 -0.167969,-0.07031 -0.04522,-0.04522 -0.07031,-0.104417 -0.07031,-0.167969 0,-0.06354 0.02509,-0.122741 0.07031,-0.167969 0.04522,-0.04522 0.104417,-0.07031 0.167969,-0.07031 z"
     id="path7" />
</svg>
