<?xml version="1.0" encoding="UTF-8" standalone="no"?>
<!-- Generator: Gravit.io -->

<svg
   style="isolation:isolate"
   viewBox="0 0 48 48"
   width="48pt"
   height="48pt"
   version="1.1"
   id="svg16"
   sodipodi:docname="raspberry.svg"
   inkscape:version="1.1.2 (0a00cf5339, 2022-02-04)"
   xmlns:inkscape="http://www.inkscape.org/namespaces/inkscape"
   xmlns:sodipodi="http://sodipodi.sourceforge.net/DTD/sodipodi-0.dtd"
   xmlns:xlink="http://www.w3.org/1999/xlink"
   xmlns="http://www.w3.org/2000/svg"
   xmlns:svg="http://www.w3.org/2000/svg">
  <defs
     id="defs20">
    <linearGradient
       inkscape:collect="always"
       xlink:href="#_lgradient_7"
       id="linearGradient872"
       x1="-12.025727"
       y1="6.1170783"
       x2="-0.085100174"
       y2="6.1170783"
       gradientUnits="userSpaceOnUse"
       gradientTransform="matrix(3.8358211,0,0,3.8371386,-0.00544341,-0.00268054)" />
    <linearGradient
       id="_lgradient_21"
       x1="0"
       y1="0.5"
       x2="1"
       y2="0.5"
       gradientTransform="matrix(28.183272,0,0,28.298876,9.8766106,9.8505561)"
       gradientUnits="userSpaceOnUse">
      <stop
         offset="0%"
         stop-opacity="1"
         style="stop-color:rgb(255,224,49)"
         id="stop2-7" />
      <stop
         offset="98.69565217391305%"
         stop-opacity="1"
         style="stop-color:rgb(252,82,82)"
         id="stop4-5" />
    </linearGradient>
    <linearGradient
       inkscape:collect="always"
       xlink:href="#_lgradient_7"
       id="linearGradient15"
       x1="-9.6850061"
       y1="45.161198"
       x2="11.98815"
       y2="21.735205"
       gradientUnits="userSpaceOnUse"
       gradientTransform="matrix(1.1147442,0,0,1.1150348,-0.01237238,-3.3277956)" />
    <linearGradient
       inkscape:collect="always"
       xlink:href="#_lgradient_7"
       id="linearGradient1063"
       x1="12.959569"
       y1="27.169041"
       x2="35.040432"
       y2="27.169041"
       gradientUnits="userSpaceOnUse"
       gradientTransform="matrix(1.0652954,0,0,1.0652954,-1.5635419,-1.7728448)" />
    <linearGradient
       inkscape:collect="always"
       xlink:href="#_lgradient_6"
       id="linearGradient7793"
       x1="19.455175"
       y1="18.083586"
       x2="44.545444"
       y2="18.083586"
       gradientUnits="userSpaceOnUse"
       gradientTransform="matrix(0.75,0,0,0.75,-0.28467425,-1.1825922)" />
  </defs>
  <sodipodi:namedview
     id="namedview18"
     pagecolor="#ffffff"
     bordercolor="#666666"
     borderopacity="1.0"
     inkscape:pageshadow="2"
     inkscape:pageopacity="0.0"
     inkscape:pagecheckerboard="0"
     inkscape:document-units="pt"
     showgrid="false"
     width="48pt"
     showguides="false"
     inkscape:zoom="22.627417"
     inkscape:cx="40.106213"
     inkscape:cy="19.091883"
     inkscape:window-width="1600"
     inkscape:window-height="836"
     inkscape:window-x="0"
     inkscape:window-y="0"
     inkscape:window-maximized="1"
     inkscape:current-layer="svg16" />
  <linearGradient
     id="_lgradient_6"
     x1="0.52260035"
     y1="0.22580998"
     x2="0.53418493"
     y2="1.1236743"
     gradientTransform="matrix(25.090139,0,0,10.74745,19.454859,12.983307)"
     gradientUnits="userSpaceOnUse">
    <stop
       offset="0%"
       stop-opacity="1"
       style="stop-color:rgb(165,248,106)"
       id="stop2" />
    <stop
       offset="97.91666666666666%"
       stop-opacity="1"
       style="stop-color:rgb(47,206,146)"
       id="stop4" />
  </linearGradient>
  <rect
     x="-46.783188"
     y="1.2253767"
     height="45.80014"
     rx="6.1837621"
     shape-rendering="crispEdges"
     id="rect5-6-7-3"
     ry="6.8055277"
     transform="matrix(0.00524063,-0.99998627,0.99998801,0.00489691,0,0)"
     style="isolation:isolate;fill:#ff0079;fill-opacity:0.13470298;stroke:url(#linearGradient872);stroke-width:2.0301;stroke-miterlimit:4;stroke-dasharray:none;stroke-opacity:1"
     width="45.801998" />
  <rect
     x="-15.686804"
     y="17.260084"
     height="33.345856"
     rx="6.7920032"
     shape-rendering="crispEdges"
     id="rect5-6-6-6-6"
     style="isolation:isolate;fill:#ff0079;fill-opacity:0.13470298;stroke:url(#linearGradient15);stroke-width:1.67233;stroke-miterlimit:4;stroke-dasharray:none;stroke-opacity:1"
     ry="7.4743071"
     transform="matrix(0.72446484,-0.68931175,0.68622417,0.72739012,0,0)"
     width="33.338203" />
  <path
     style="color:#000000;fill:url(#linearGradient7793);-inkscape-stroke:none"
     d="m 17.623047,8.0703125 c -0.246183,0.05588 -0.351964,0.2156533 -0.408203,0.3085938 -0.0055,0.00916 -0.0048,0.012749 -0.0098,0.021484 -0.01807,-0.00515 -0.03015,-0.00861 -0.04883,-0.013672 -0.104489,-0.028338 -0.212253,-0.05533 -0.34375,-0.066406 -0.06575,-0.00554 -0.137779,-0.0089 -0.238281,0.011719 -0.100503,0.020619 -0.2603,0.077655 -0.371094,0.2421875 -0.01972,0.02937 0.0044,0.034478 -0.0098,0.0625 -0.03514,-0.013802 -0.05931,-0.03125 -0.162109,-0.03125 -0.278487,-1e-7 -0.437935,4.839e-4 -0.625,0.050781 -0.09353,0.025149 -0.224472,0.064492 -0.341797,0.2167969 -0.05045,0.065498 -0.02718,0.1248618 -0.04297,0.1992187 -0.02504,-0.00603 -0.03058,-0.00726 -0.05859,-0.013672 -0.126177,-0.028864 -0.286928,-0.067096 -0.498047,-0.03125 -0.21112,0.035846 -0.465735,0.2050139 -0.583985,0.4296875 l -0.109375,0.2070312 0.08984,0.2167969 c 0.09266,0.223481 0.116575,0.316761 0.183594,0.466797 -0.344056,0.426818 -0.172354,0.702518 -0.03121,1.078132 l 0.002,0.002 c 0.03919,0.0297 0.05919,0.03969 0.08594,0.05664 -0.03317,0.05384 -0.116064,0.08525 -0.134766,0.140625 -0.05876,0.173983 -0.06423,0.374889 0.03125,0.574219 0.118881,0.249041 0.277196,0.341147 0.419922,0.445312 -0.126075,0.581364 0.03879,0.678197 0.400436,1.031344 -0.04338,0.598613 0.199218,0.776779 0.722658,1.097704 -0.07609,0.589746 0.04195,0.688331 0.580066,0.941453 0.111504,0.05245 0.209376,0.01114 0.300781,0.0078 -0.0081,0.124006 0.01933,0.30509 0.126953,0.427735 0.231044,0.263287 0.43825,0.230468 0.640625,0.230468 0.11106,0 0.29014,0.01639 0.460938,0.02734 l -0.03516,0.310547 0.701172,-0.177734 c 0.443208,-0.112039 0.899593,-0.165831 1.355469,-0.15625 h 0.0059 0.0059 c 1.169873,0.317232 1.926909,-0.431659 3.005859,-0.685556 l 0.07031,-0.306641 c 0.08217,-0.360959 -0.0878,-0.646589 -0.199219,-0.810547 -0.03846,-0.0566 -0.03313,-0.04416 -0.06055,-0.08594 0.284103,0.111463 0.566473,0.261355 0.888672,0.144531 0.248763,-0.09244 0.53242,-0.578334 0.576171,-0.63867 h 0.002 c 0.02331,-0.01564 0.0343,-0.04366 0.05664,-0.06055 0.318445,0.527234 0.428308,0.588715 0.939458,0.712893 0.344035,-0.104317 0.616636,-0.363063 0.923828,-0.546875 -0.01337,0.0182 -0.0297,0.02847 -0.04297,0.04687 -0.207396,0.231214 -0.328631,0.50158 -0.365234,0.724609 -0.03727,0.22711 -0.03096,0.383191 -0.06445,0.583985 0.707414,1.601791 4.733611,1.606264 5.023419,0.865253 0.193597,0 0.402977,0.03084 0.626953,-0.234375 0.100302,-0.118768 0.121594,-0.282871 0.117188,-0.402344 0.08017,0.0023 0.152302,0.0094 0.259765,-0.0078 0.162405,-0.02607 0.440532,-0.133088 0.558594,-0.402344 0.07123,-0.161967 0.05687,-0.360925 0.0078,-0.521484 0.608981,-0.275049 0.913478,-0.546144 0.671884,-1.064453 0.471398,-0.293949 0.618174,-0.522568 0.374997,-0.994141 0.133174,-0.101109 0.280085,-0.19018 0.390625,-0.429688 h 0.002 c 0.09034,-0.19631 0.08287,-0.388098 0.02734,-0.55664 -0.01669,-0.05065 -0.09434,-0.08258 -0.123047,-0.132813 0.02306,-0.01544 0.03831,-0.02212 0.07227,-0.04883 0.198984,-0.155923 0.186437,-0.280001 0.195313,-0.34375 0.0089,-0.06375 0.0059,-0.100673 0.0039,-0.134765 0.03568,-0.26121 -0.163438,-0.445277 -0.21875,-0.57422 0.0624,-0.14444 0.0837,-0.233383 0.169922,-0.449219 L 33.658203,9.8222656 33.554687,9.6210938 C 33.443418,9.4011874 33.193481,9.2280915 32.984375,9.1914063 c -0.209106,-0.036685 -0.362599,7.682e-4 -0.482422,0.029297 -0.0077,0.00183 -0.0082,0.0021 -0.01563,0.00391 -0.01594,-0.063812 0.0055,-0.1124956 -0.03711,-0.1699219 -0.113061,-0.1524155 -0.245535,-0.1968898 -0.337891,-0.2226562 -0.184711,-0.051533 -0.332593,-0.048828 -0.59375,-0.048828 -0.08178,0.033847 -0.118882,-0.014627 -0.126994,-0.015625 -0.106201,-0.1638718 -0.268197,-0.2264378 -0.369141,-0.2480468 -0.100943,-0.021609 -0.17206,-0.017197 -0.236328,-0.011719 -0.128534,0.010956 -0.231201,0.036917 -0.330078,0.064453 -0.03196,0.014509 -0.04177,-0.049499 -0.05274,-0.062499 -0.04063,-0.055994 -0.0995,-0.1247885 -0.203125,-0.1835937 -0.103622,-0.058805 -0.259955,-0.090351 -0.390625,-0.066406 -0.145719,0.026691 -0.247902,0.096932 -0.322266,0.1640625 v 0.00195 c 0.01844,-0.016662 -0.06506,0.042369 -0.0957,0.064453 -0.41645,-0.3503331 -0.691567,-0.1712103 -1.128906,0.021484 -0.01358,0.00777 -0.02376,0.015594 -0.03711,0.023437 -0.05547,-0.05266 -0.107662,-0.1091152 -0.205078,-0.1425782 -0.13249,-0.045511 -0.294159,-0.037316 -0.412109,0.00586 -0.22573,0.082008 -0.300144,0.2121831 -0.390625,0.328125 -0.01578,-0.0085 -0.01709,-0.019636 -0.03516,-0.027344 -0.11487,-0.049021 -0.280938,-0.057408 -0.404297,-0.015625 -0.199107,0.06791 -0.281137,0.1604394 -0.369141,0.2460937 -0.088,0.085654 -0.164594,0.1744968 -0.236328,0.2597656 -0.0095,0.011297 -0.01612,0.018196 -0.02539,0.029297 -0.673317,-0.059749 -0.905176,0.4304688 -1.18745,0.9296867 -0.05293,-8.94e-4 -0.09674,-0.02878 -0.146484,-0.01367 -0.275849,0.08376 -0.326482,0.25187 -0.365234,0.339843 -0.03875,0.08797 -0.05653,0.156737 -0.07227,0.226563 -0.03146,0.139652 -0.04892,0.279735 -0.06836,0.396484 -0.01944,0.116749 -0.05929,0.22805 -0.03516,0.175782 v 0.002 c -0.02505,0.0545 -0.129259,0.197619 -0.210937,0.3125 -0.123942,-0.170338 -0.257664,-0.345984 -0.292969,-0.419922 0.0247,0.05167 -0.01633,-0.06272 -0.03711,-0.183594 -0.02078,-0.120874 -0.04063,-0.265765 -0.07422,-0.410156 -0.01679,-0.0722 -0.03312,-0.142222 -0.07422,-0.232422 -0.0411,-0.0902 -0.10196,-0.260743 -0.373047,-0.339844 -0.05941,-0.017334 -0.111716,0.01122 -0.173828,0.01563 C 22.851221,9.3408104 22.32087,9.1033009 21.732405,9.0156789 21.655635,8.9277439 21.571562,8.8354595 21.478499,8.7481008 21.385439,8.6607418 21.298586,8.5676824 21.099592,8.502007 20.977942,8.462187 20.817249,8.468865 20.703108,8.515679 20.673398,8.527866 20.666578,8.544368 20.642558,8.558648 20.544387,8.4346979 20.450868,8.2909843 20.207031,8.2050781 19.993355,8.1298393 19.727006,8.2518034 19.583984,8.3730469 19.554085,8.3555561 19.531109,8.337506 19.5,8.3203125 19.378414,8.2531138 19.252888,8.1896696 19.119141,8.140625 18.985394,8.0915804 18.873889,7.9731392 18.535156,8.1171875 c -0.07987,0.033925 -0.152163,0.1189293 -0.21875,0.1992188 -0.05719,-0.039919 -0.159389,-0.1115329 -0.136719,-0.091797 -0.113654,-0.098902 -0.324049,-0.2070929 -0.55664,-0.1542969 z m 0.273437,1.1640625 c 0.54763,0.3064831 0.804718,0.1254833 1.19336,0.00586 0.377285,0.2556188 0.374985,0.3017972 0.982415,0.1347654 0.07999,0.106361 0.151647,0.2220022 0.332031,0.3378906 v 0.00195 c 0.08471,0.054106 0.226008,0.092893 0.349609,0.076172 0.110823,-0.014993 0.182603,-0.062779 0.236328,-0.1035156 0.368816,0.5059886 0.458069,0.4688316 1.011766,0.4648866 0.01214,0.0095 0.03683,0.03249 0.04687,0.04101 0.0059,0.0233 0.01217,0.04144 0.01953,0.07813 0.02276,0.113525 0.04615,0.267623 0.07813,0.417969 0.0605,0.428361 0.374389,0.51991 0.652344,0.664063 0.0158,0.07723 0.01711,0.142955 0.06641,0.246093 0.145817,0.305378 0.345478,0.510691 0.462891,0.681641 0.117413,0.17095 0.114108,0.226593 0.115234,0.222656 -0.0943,0.328463 -0.03136,0.577877 -0.01953,0.66211 -0.0021,0.0018 0.0096,-0.01232 -0.01367,0.0039 -0.20091,0.133942 -0.270261,0.248218 -0.376953,0.384766 -0.03103,0.03972 -0.04882,0.08085 -0.07617,0.117187 -0.05858,-7.7e-4 -0.126062,0.0055 -0.328125,-0.107422 -1.707187,-1.408082 -3.068112,-1.983641 -5.228515,-2.132812 1.492628,1.294263 3.458848,2.544501 4.218752,3.519531 -0.350007,0.125621 -0.681106,0.297134 -1,0.490234 -0.30643,-0.03169 -0.614961,-0.05629 -0.925782,-0.05664 h -0.0039 c -0.445991,-0.0091 -0.884434,0.06275 -1.318359,0.15039 -0.01409,-0.0075 -0.02767,-0.02928 -0.04102,-0.03516 -0.184695,-0.08139 -0.321225,-0.08203 -0.509766,-0.08203 -0.04313,0 -0.180425,-0.0077 -0.269531,-0.01563 7.66e-4,-0.108194 -0.0081,-0.234456 -0.08008,-0.34375 -0.16169,-0.245523 -0.410768,-0.306012 -0.572266,-0.326172 -0.04038,-0.005 -0.06469,-9.6e-5 -0.101562,-0.002 1.09e-4,-4.37e-4 0.0019,-0.0058 0.002,-0.0059 -0.0315,-0.508071 -0.373658,-0.612264 -0.824227,-0.822265 0.06876,-0.655609 -0.509901,-0.989099 -0.732453,-1.144521 l 0.43164,-0.253907 c -0.127245,-0.217496 -0.278857,-0.31319 -0.417969,-0.417968 0.164095,-0.198667 0.202346,-0.536211 0.121094,-0.732422 -0.06351,-0.153369 -0.151616,-0.229198 -0.236328,-0.310547 0.006,-0.01053 0.02257,-0.01701 0.02734,-0.02734 0.04411,-0.09561 0.04883,-0.17105 0.04883,-0.226562 0,-0.329461 -0.130534,-0.478661 -0.234375,-0.701172 0.03636,0.0078 0.05543,0.01523 0.09766,0.02148 0.147873,0.0219 0.390101,0.04186 0.617188,-0.1367183 0.102236,-0.080591 0.116727,-0.2271934 0.169922,-0.359375 0.469125,0.2172694 0.737726,0.1696363 1.144528,-0.042972 0.05448,-0.087364 0.01069,-0.1048885 0.02539,-0.1757812 0.412146,0.1573571 0.68913,0.062722 0.859319,-0.1601025 z m 10.765625,0.2050781 c 0.42309,0.3733777 0.679758,0.2156299 1.107422,0.00195 8.85e-4,-5.617e-4 0.0011,-0.00139 0.002,-0.00195 0.07321,0.1711599 0.328817,0.1702818 0.437495,0.226562 0.13912,0 0.148231,-0.019078 0.185547,-0.029297 0.03732,-0.010219 0.07128,-0.021802 0.107422,-0.033203 0.01519,-0.00479 0.03122,-0.00871 0.04687,-0.013672 0.01567,0.060137 -0.02178,0.070565 0.02148,0.1425781 0.35513,0.3630028 0.52307,0.2047176 0.894532,0.1191412 0.05283,-0.026427 0.09559,-0.046982 0.130859,-0.064453 0.02674,0.00118 0.02752,5.159e-4 0.04883,0.00195 0.05077,0.1245133 0.06118,0.2622256 0.15625,0.3398436 0.222431,0.181376 0.465939,0.162794 0.609375,0.140625 0.01826,-0.0028 0.02402,-0.0066 0.04102,-0.0098 -0.09186,0.209879 -0.208985,0.343869 -0.208985,0.648437 10e-7,0.05326 0.0035,0.125111 0.04492,0.21875 0.0043,0.0098 0.01991,0.0173 0.02539,0.02734 -0.07906,0.07932 -0.161837,0.152022 -0.220703,0.298828 -0.07582,0.189095 -0.03755,0.507309 0.115234,0.705078 -0.130258,0.10172 -0.271275,0.195143 -0.390625,0.40625 l -0.0059,0.0098 -0.0059,0.01172 0.445313,0.224609 h 0.002 c -0.01638,0.09644 -0.03079,0.175403 -0.04492,0.255906 -0.267996,0.324874 -0.612579,0.507012 -0.671943,0.843754 -0.6179,0.136847 -0.558789,0.378095 -0.769485,0.791016 -0.289239,-0.0046 -0.472604,0.236499 -0.623044,0.330125 -0.06542,0.10271 -0.07046,0.216737 -0.07227,0.318359 -0.06894,0.0064 -0.188162,0.01367 -0.220703,0.01367 -0.159677,0 -0.28424,0.005 -0.439453,0.06055 -0.07086,0.02537 -0.110933,0.146747 -0.185547,0.22461 -0.327438,-0.07282 -0.651083,-0.167131 -0.990234,-0.164063 h -0.002 -0.002 c -0.462302,0.0082 -0.915851,0.08724 -1.363282,0.1875 -0.06085,-0.03172 -0.121723,-0.06489 -0.183593,-0.0957 -0.07636,-0.07266 -0.154159,-0.150658 -0.21875,-0.220703 h -0.002 c -0.0176,-0.01899 -0.01441,-0.0073 -0.0293,-0.02149 0.0079,-0.09833 0.02344,-0.245375 0.03125,-0.292968 0.01562,-0.09519 0.01081,-0.104434 0.121093,-0.22461 l 0.02148,-0.02344 0.01758,-0.02539 c 1.843683,-2.240908 1.719645,-1.960247 3.210893,-3.92188 -1.124617,0.412135 -2.109403,0.864423 -3.253946,1.695401 -0.604967,0.440264 -1.12038,0.762133 -1.615234,0.978515 -0.07789,-0.106619 -0.136651,-0.204181 -0.300781,-0.318359 v -0.002 c -0.01637,-0.01136 -4.93e-4,0.0045 -0.0059,0 0.01213,-0.08485 0.0697,-0.31975 -0.01758,-0.634766 0.0013,0.0046 -9.69e-4,-0.04709 0.107422,-0.210937 0.108391,-0.163844 0.293157,-0.363159 0.429687,-0.660157 0.04566,-0.09887 0.04583,-0.161067 0.06055,-0.234375 0.13539,-0.0051 0.275273,-0.045 0.347657,-0.105468 0.251896,-0.323444 0.281857,-0.68764 0.353518,-1.017573 0.0045,-0.0039 0.01649,-0.01541 0.02148,-0.01953 0.456511,0.142849 0.455248,-0.03804 0.777437,-0.248099 0.05623,-0.06496 0.111793,-0.1321279 0.166016,-0.1972653 0.05279,0.036472 0.10612,0.076442 0.203125,0.089844 0.127148,0.017566 0.272814,-0.026011 0.357422,-0.082031 0.148237,-0.098726 0.197053,-0.1880475 0.267578,-0.28125 0.533382,0.2426306 0.661045,-0.00193 0.92773,-0.1582029 z"
     id="path7"
     sodipodi:nodetypes="scccssccsscccscccccccsccccscssccccccccsccccccccsccsccccccccsccccccccssccsccssccsccccccsccccsscccscsccccscssccscscccsscccscccccscccccccscccscccccscccscccccccccsccscccccccccccssccccccccsccscccccccccccsccccccccccsccccccccccscccccccscccc" />
  <linearGradient
     id="_lgradient_7"
     x1="0.50917715"
     y1="0.98516738"
     x2="0.4803189"
     y2="0.032353707"
     gradientTransform="matrix(22.080422,0,0,21.643378,12.959568,16.347436)"
     gradientUnits="userSpaceOnUse">
    <stop
       offset="0%"
       stop-opacity="1"
       style="stop-color:rgb(252,73,136)"
       id="stop9" />
    <stop
       offset="98.26086956521739%"
       stop-opacity="1"
       style="stop-color:rgb(234,51,62)"
       id="stop11" />
  </linearGradient>
  <path
     style="color:#000000;fill:url(#linearGradient1063);fill-rule:evenodd;-inkscape-stroke:none"
     d="m 24.09375,15.195313 c -1.124293,-0.107112 -2.270379,0.103048 -3.376953,0.751953 -1.224594,-0.08526 -2.454541,0.0047 -3.546875,0.476562 -1.132663,0.489276 -2.099028,1.401642 -2.648438,2.802734 l -0.0039,0.0078 -0.002,0.0098 c -0.192599,0.545016 -0.302177,1.111447 -0.371094,1.683593 -1.250902,1.166336 -2.32964,2.60007 -2.433593,4.587891 l -0.002,0.01758 v 0.01563 c 0.01094,0.875499 0.230802,1.741277 0.652344,2.513672 l 0.002,0.002 c 0.331264,0.602339 0.763936,1.138801 1.238282,1.632813 -0.167389,1.864826 0.08761,3.796723 1.71875,5.259765 l 0.01172,0.0098 0.01172,0.0098 c 1.187466,0.946761 2.673131,1.449452 4.166016,1.789063 0.288065,0.27984 0.582573,0.557165 0.896484,0.816406 l 0.01172,0.0078 0.01172,0.0078 c 1.230829,0.912885 2.57216,1.501814 3.949219,1.53711 1.377059,0.03529 2.762546,-0.511297 3.96875,-1.736329 l 0.002,-0.002 0.002,-0.002 c 0.230779,-0.238906 0.448966,-0.495574 0.66211,-0.757812 2.630741,-0.143987 4.717588,-1.898703 5.492187,-4.509766 v -0.0039 l 0.002,-0.0059 c 0.240098,-0.860621 0.374068,-1.742193 0.431641,-2.630859 1.86217,-3.466583 1.185685,-6.262177 -1.068406,-8.74028 -0.648764,-2.820247 -2.25142,-4.510974 -5.052783,-4.763664 h -0.002 -0.002 c -0.513683,0.0091 -1.019131,0.09137 -1.515625,0.207031 -1.002714,-0.474837 -2.084367,-0.887371 -3.205078,-0.99414 z m -0.05469,1.048828 c 1.256173,0.321223 3.018069,1.123046 3.455079,0.98633 v 0.976562 L 26.580078,17.693359 C 25.254601,16.949186 23.863735,16.695181 22.4375,16.976562 l -0.03711,0.0078 -0.03516,0.01367 c -0.194206,0.06778 -0.38981,0.150216 -0.580078,0.259765 l -0.609375,0.351563 c -1.911446,-0.09921 -3.830717,-0.12085 -4.818357,1.738265 -0.504405,1.060999 -0.5684,1.864279 -0.5684,2.994145 2.183439,-1.210551 3.865886,-3.003768 5.406249,-4.689453 l 0.492188,0.457031 c 1.179036,1.098508 2.552481,1.362666 3.976562,0.917969 l 0.03906,-0.01172 0.03711,-0.01953 c 0.277561,-0.137491 0.534054,-0.234641 0.796875,-0.351563 l 0.957032,-0.425781 v 0.0918 0.609375 l 0.376953,-0.05078 c 1.215061,1.40014 2.6497,2.166561 4.423922,2.754 l -0.03711,1.236328 c -0.03089,1.024482 0.04808,2.134204 0.228516,3.048828 l 0.002,0.0039 v 0.002 c 0.135748,0.643558 0.332691,1.274042 0.59375,1.88086 l 0.431641,1.005859 0.52539,-0.960937 c 0.09159,-0.167975 0.17639,-0.342125 0.253907,-0.523438 0.199141,-0.46062 0.301212,-0.95905 0.30664,-1.46289 v -0.0078 -0.0098 c -0.0165,-0.702991 -0.198912,-1.39059 -0.533203,-2.011718 l -0.002,-0.002 C 33.86586,23.446698 33.636615,23.090482 33.375,22.755859 h 0.002 c -0.05663,-0.07288 -0.11503,-0.145342 -0.175781,-0.21875 L 32.306688,21.455078 32.103563,20.691406 C 32.019313,20.37425 31.90749,20.072419 31.779344,19.783203 v -0.002 l -0.002,-0.002 c -0.371201,-0.82594 -0.913877,-1.415593 -1.585938,-1.736328 -0.554698,-0.264725 -1.19691,-0.258408 -1.845703,-0.216797 l -0.433594,-0.652344 c 0.304261,-0.05188 0.60678,-0.1193 0.916016,-0.125 2.56615,0.262868 3.473152,1.956344 4.054728,4.084078 l 0.0332,0.150391 0.107421,0.107422 c 2.173179,2.188638 2.500085,5.274586 0.970704,7.625 l -0.08789,0.125 -0.0078,0.152344 c -0.04636,0.858742 -0.186166,1.708174 -0.417968,2.539062 -0.695709,2.333941 -2.438575,3.769127 -4.753907,3.78711 l -0.257812,0.002 -0.158203,0.203125 c -0.223574,0.286759 -0.46625,0.562515 -0.720703,0.826172 -4.29e-4,4.35e-4 -0.0015,-4.36e-4 -0.002,0 -9.82e-4,10e-4 -9.72e-4,0.0029 -0.002,0.0039 -1.036509,1.050771 -2.092764,1.443875 -3.179687,1.416015 -1.086483,-0.02785 -2.229628,-0.505038 -3.335938,-1.324218 -0.313999,-0.260284 -0.618726,-0.539247 -0.916015,-0.832032 l -0.109375,-0.109375 -0.150391,-0.0332 c -1.459367,-0.32012 -2.84052,-0.803566 -3.867187,-1.615234 -1.393394,-1.255274 -1.577501,-2.808395 -1.378906,-4.591797 l 0.0293,-0.257812 L 14.492188,29.125 c -0.472307,-0.463146 -0.876717,-0.993283 -1.195313,-1.572266 v -0.002 c -0.33273,-0.610331 -0.506541,-1.299994 -0.517578,-2 0.09609,-1.697088 0.997574,-2.888881 2.212891,-3.988281 l 0.152343,-0.138672 0.01953,-0.205078 c 0.05348,-0.551949 0.171952,-1.092586 0.353515,-1.609375 0.45605,-1.158018 1.17091,-1.816829 2.074219,-2.207031 0.905244,-0.391038 2.015896,-0.488097 3.173828,-0.394532 l 0.179687,0.01367 0.150391,-0.0957 c 0.956975,-0.611836 1.946836,-0.784406 2.943359,-0.68164 z m 0.328125,1.75 c 0.07392,0.01301 0.148867,0.06522 0.222657,0.08203 -0.345165,0.03421 -0.70763,0.03837 -1.019532,-0.06836 0.264322,-8.4e-4 0.53683,-0.05944 0.796875,-0.01367 z m -5.730468,0.802734 c -0.133761,0.134036 -0.114846,0.125952 -0.267578,0.273437 -0.350761,0.338712 -0.714001,0.576263 -1.101563,0.902344 0.211911,-0.59563 0.770463,-0.887935 1.140626,-1.140625 0.07647,-0.02066 0.15818,-0.02434 0.228515,-0.03516 z m 11.095703,0.207033 c 0.163691,0.07812 0.269182,0.334021 0.412109,0.464844 -0.04458,-0.03281 -0.09679,-0.05177 -0.140625,-0.08594 L 30,19.378906 c -0.132668,-0.07733 -0.178387,-0.249999 -0.26758,-0.374998 z m -2.429688,2.740233 c -1.085306,0.3685 -1.772116,1.160083 -2.126953,2.019531 -0.354836,0.859448 -0.416018,1.785677 -0.353515,2.574219 l 0.0293,0.355468 0.337891,0.109375 c 1.628907,0.852969 2.633869,1.619355 4.462891,0.365235 0.85206,-0.660565 1.394555,-1.287064 2.06054,-2.058587 l -0.02539,-0.230469 c -0.05092,-0.468707 -0.07302,-0.940697 -0.07031,-1.414062 v -0.002 -0.002 c 0,-0.320027 0.0082,-0.638657 0.02734,-0.96289 L 31.664062,22.162109 31.367187,22 c -1.38642,-0.676944 -2.682345,-0.716465 -4.064455,-0.255859 z m -9.660156,0.351566 c -0.306391,0.263395 -0.603007,0.520076 -1.521484,0.757813 l -0.527344,0.136718 0.148438,0.525391 c 0.21148,0.92721 0.31451,1.642743 0.337889,2.498043 l 0.113281,0.128906 c 0.775054,0.887906 1.570767,1.954558 2.88086,2.505859 l 0.01953,0.0078 0.02148,0.0078 c 0.332325,0.108737 0.682863,0.16844 1.042969,0.16211 l 0.203125,-0.0039 0.148438,-0.136719 c 1.016119,-0.955392 1.729447,-1.647746 2.921875,-2.015625 l 0.363281,-0.0918 0.03711,-0.375 c 0,0 0.05664,-0.564016 0.05664,-0.921875 v -0.02539 l -0.002,-0.02539 c -0.410339,-3.018096 -3.736826,-4.829644 -6.244088,-3.134741 z m -2.83789,0.328125 -0.666016,0.962891 c -0.870292,1.259103 -0.757382,2.592171 -0.320313,3.789062 l 0.01367,0.03906 0.01953,0.03516 c 0.197312,0.357533 0.430433,0.695024 0.697265,1.003906 l 0.84961,0.982422 -0.0293,-0.0039 -0.09375,0.490234 c -0.06874,0.360982 -0.09602,0.722335 -0.101563,1.076172 -0.0054,2.147142 2.105382,4.009292 3.929689,4.107418 l 0.574218,0.01367 -0.0293,-0.572266 c -0.03144,-0.652152 -0.113055,-1.302864 -0.253906,-1.943359 l -0.002,-0.0059 v -0.0039 c -0.228378,-0.950604 -0.647692,-1.694614 -1.259766,-2.208984 -0.612073,-0.51437 -1.387367,-0.78317 -2.267578,-0.892578 l -0.33789,-0.04102 -0.04297,-1.363281 c -0.04518,-1.434551 -0.03659,-2.941158 -0.390625,-4.330078 z m 14.517578,0.0332 c 0.411849,0.02043 0.820813,0.189803 1.248046,0.388672 -0.0072,0.205304 -0.01953,0.411077 -0.01953,0.615234 -0.0024,0.430368 0.02789,0.859145 0.06641,1.28711 -0.505185,0.56711 -1.06219,1.123266 -1.578125,1.548833 -0.819512,0.486619 -1.261255,0.460779 -1.966796,0.25 l -0.01563,-0.0098 -0.01758,-0.0098 c -0.291575,-0.162379 -0.708978,-0.361566 -1.11914,-0.542969 -0.01863,-0.600118 0.0094,-1.255344 0.240234,-1.814453 0.265118,-0.642142 0.694304,-1.147758 1.484375,-1.416016 0.639576,-0.217159 1.1711,-0.322004 1.677735,-0.296875 z m -6.500013,2.859378 c -0.0023,0.134729 -0.01562,0.258742 -0.0293,0.435547 -1.143647,0.286899 -2.070094,1.287291 -2.796877,1.986364 -0.174049,-0.0099 -0.34763,-0.0274 -0.521485,-0.08203 -0.94011,-0.401481 -1.621724,-1.228356 -2.380859,-2.103516 -0.01655,-0.641249 -0.119981,-1.270104 -0.265625,-1.890625 0.656012,-0.252971 1.251528,-0.537492 1.507812,-0.757812 1.62374,-1.16212 4.278019,0.505807 4.486334,2.412072 z m -5.703112,0.417969 0.0039,0.0078 0.002,0.0332 c -1.5e-5,-0.01395 -0.0058,-0.02707 -0.0059,-0.04102 z m 6.90625,1.507812 c -1.959898,-0.02807 -3.469083,2.345872 -4.074222,3.724614 0.0098,-0.0231 0.0079,-0.01731 -0.03125,0.04102 -0.0391,0.05833 -0.149663,0.205999 -0.13086,0.447266 0.0188,0.241267 0.168499,0.406968 0.285157,0.501953 0.116658,0.09499 0.240342,0.163607 0.410156,0.25 1.185111,0.602928 2.352406,0.968623 3.535156,0.94336 1.182751,-0.02526 2.357827,-0.453087 3.507813,-1.339844 l 0.002,-0.002 0.554687,-0.431641 c 0.143951,-0.451675 0.369261,-0.896551 0.537108,-1.250047 -1.525842,-1.328022 -2.99949,-2.86182 -4.595745,-2.884681 z M 31,28.283203 30.769531,28.478516 c -0.79731,0.671207 -1.427819,1.512874 -1.839844,2.470703 -0.55029,1.194322 -0.595125,2.391077 -0.730468,3.433593 l -0.103516,0.789063 0.767578,-0.205078 c 1.756528,-0.468729 3.360373,-1.6944 3.990235,-3.242188 l 0.01172,-0.0293 0.0078,-0.03125 c 0.161951,-0.589722 0.278579,-1.190758 0.345703,-1.798828 l 0.02539,-0.236328 -0.158204,-0.175781 c -0.541993,-0.606639 -1.211186,-0.870803 -1.800781,-1.072266 z m -6.992188,0.03125 c 1.281989,0.130433 2.324863,1.079283 3.322266,2.058594 -0.04797,0.114998 -0.09283,0.23105 -0.136719,0.347656 L 26.875,30.966797 c -1.007203,0.776265 -1.931723,1.098908 -2.878906,1.11914 -0.937211,0.02002 -1.920195,-0.276596 -2.994141,-0.818359 0.571603,-1.276657 1.383542,-2.183915 2.474609,-2.845703 0.164601,-0.06481 0.344323,-0.100151 0.53125,-0.107422 z m 7.244141,1.251953 c 0.31671,0.125139 0.610024,0.270501 0.849609,0.486328 -0.06074,0.430771 -0.132225,0.861265 -0.246093,1.283203 -0.360112,0.870359 -1.319089,1.631148 -2.388672,2.150391 0.09163,-0.717076 0.132973,-1.452179 0.43164,-2.097656 l 0.002,-0.0059 0.0039,-0.0078 c 0.299909,-0.69929 0.794269,-1.283179 1.347656,-1.808594 z M 17.447266,31 c 0.413159,0.347208 0.717943,0.850075 0.908203,1.640625 1.73e-4,7.21e-4 -1.73e-4,0.0012 0,0.002 0.06639,0.30336 0.08231,0.616496 0.121093,0.925781 -0.687183,-0.279999 -1.507527,-0.735874 -2.017578,-1.607422 -0.271349,-0.463667 -0.172957,-0.921045 -0.195313,-1.410203 0.442295,0.07708 0.848028,0.304827 1.183595,0.449219 z m 4.621093,3.710937 h -0.002 c -0.291848,0.08776 -0.579776,0.194536 -0.861328,0.330079 l -0.6875,0.332031 0.546875,0.53125 c 1.088331,0.977665 2.490681,1.814605 3.9375,1.511694 1.084027,-0.295127 1.694415,-0.833585 2.404304,-1.496094 l 0.515625,-0.56836 -0.714844,-0.283203 C 26.799217,34.906623 26.382755,34.77556 25.960897,34.669897 h -0.002 c -1.376789,-0.350668 -2.559752,-0.256191 -3.890538,0.04104 z m 3.630866,0.992188 h 0.002 c 0.05225,0.01308 0.100444,0.03493 0.152344,0.04883 -0.365603,0.249669 -0.736165,0.544321 -1.085938,0.623047 -0.526042,0.1184 -1.056662,0.05695 -1.726562,-0.324219 -0.162194,-0.105854 -0.305393,-0.235834 -0.470704,-0.349609 1.072129,-0.311481 2.088334,-0.195066 3.12886,0.002 z"
     id="path14"
     sodipodi:nodetypes="ccccccccccccccccccccsccccccccccccccccccccccccccccccccccccccccccccccccccccccccccsccccccccccsccsccscccccccccccccccscccccsccssscccsccsccccccccccscccscccccccccccccccscccccccccccccccccccsccccccccccccccsscccccccccccccccccscsssccccccsccccccccccccccscsccccscccccccscccccscccccccccccccccscccccc" />
</svg>
