<?xml version="1.0" encoding="UTF-8" standalone="no"?>
<!-- Generator: Gravit.io -->

<svg
   style="isolation:isolate"
   viewBox="0 0 48 48"
   width="48pt"
   height="48pt"
   version="1.1"
   id="svg11"
   sodipodi:docname="rclone-browser.svg"
   inkscape:version="1.1.2 (0a00cf5339, 2022-02-04)"
   xmlns:inkscape="http://www.inkscape.org/namespaces/inkscape"
   xmlns:sodipodi="http://sodipodi.sourceforge.net/DTD/sodipodi-0.dtd"
   xmlns:xlink="http://www.w3.org/1999/xlink"
   xmlns="http://www.w3.org/2000/svg"
   xmlns:svg="http://www.w3.org/2000/svg">
  <defs
     id="defs15">
    <linearGradient
       inkscape:collect="always"
       xlink:href="#_lgradient_67"
       id="linearGradient872"
       x1="-12.025727"
       y1="6.1170783"
       x2="-0.085100174"
       y2="6.1170783"
       gradientUnits="userSpaceOnUse"
       gradientTransform="matrix(3.8358211,0,0,3.8371386,-0.00544341,-0.00268054)" />
    <linearGradient
       id="_lgradient_21"
       x1="0"
       y1="0.5"
       x2="1"
       y2="0.5"
       gradientTransform="matrix(28.183272,0,0,28.298876,9.8766106,9.8505561)"
       gradientUnits="userSpaceOnUse">
      <stop
         offset="0%"
         stop-opacity="1"
         style="stop-color:rgb(255,224,49)"
         id="stop2-3" />
      <stop
         offset="98.69565217391305%"
         stop-opacity="1"
         style="stop-color:rgb(252,82,82)"
         id="stop4-6" />
    </linearGradient>
    <linearGradient
       inkscape:collect="always"
       xlink:href="#_lgradient_67"
       id="linearGradient15"
       x1="-9.6850061"
       y1="45.161198"
       x2="11.98815"
       y2="21.735205"
       gradientUnits="userSpaceOnUse"
       gradientTransform="matrix(1.1147442,0,0,1.1150348,-0.01237238,-3.3277956)" />
    <linearGradient
       inkscape:collect="always"
       xlink:href="#_lgradient_67"
       id="linearGradient952"
       x1="10.112809"
       y1="22.632938"
       x2="37.88681"
       y2="22.632938"
       gradientUnits="userSpaceOnUse" />
  </defs>
  <sodipodi:namedview
     id="namedview13"
     pagecolor="#ffffff"
     bordercolor="#666666"
     borderopacity="1.0"
     inkscape:pageshadow="2"
     inkscape:pageopacity="0.0"
     inkscape:pagecheckerboard="0"
     inkscape:document-units="pt"
     showgrid="false"
     inkscape:zoom="10.21875"
     inkscape:cx="31.95107"
     inkscape:cy="32"
     inkscape:window-width="1600"
     inkscape:window-height="836"
     inkscape:window-x="0"
     inkscape:window-y="0"
     inkscape:window-maximized="1"
     inkscape:current-layer="svg11" />
  <linearGradient
     id="_lgradient_67"
     x1="0.05347088281113288"
     y1="0.7162921348314606"
     x2="0.8802091406195002"
     y2="0.41041065924231884"
     gradientTransform="matrix(27.77423,0,0,26.596799,10.112809,9.3344171)"
     gradientUnits="userSpaceOnUse">
    <stop
       offset="0%"
       stop-opacity="1"
       style="stop-color:rgb(84,51,255)"
       id="stop2" />
    <stop
       offset="51.73913043478261%"
       stop-opacity="1"
       style="stop-color:rgb(32,189,255)"
       id="stop4" />
    <stop
       offset="98.26086956521739%"
       stop-opacity="1"
       style="stop-color:rgb(165,254,203)"
       id="stop6" />
  </linearGradient>
  <rect
     x="-46.783188"
     y="1.2253767"
     height="45.80014"
     rx="6.1837621"
     shape-rendering="crispEdges"
     id="rect5-6-7-3"
     ry="6.8055277"
     transform="matrix(0.00524063,-0.99998627,0.99998801,0.00489691,0,0)"
     style="isolation:isolate;fill:#00b9ff;fill-opacity:0.13470298;stroke:url(#linearGradient872);stroke-width:2.0301;stroke-miterlimit:4;stroke-dasharray:none;stroke-opacity:1"
     width="45.801998" />
  <rect
     x="-15.686804"
     y="17.260084"
     height="33.345856"
     rx="6.7920032"
     shape-rendering="crispEdges"
     id="rect5-6-6-6-6"
     style="isolation:isolate;fill:#00b9ff;fill-opacity:0.13470298;stroke:url(#linearGradient15);stroke-width:1.67233;stroke-miterlimit:4;stroke-dasharray:none;stroke-opacity:1"
     ry="7.4743071"
     transform="matrix(0.72446484,-0.68931175,0.68622417,0.72739012,0,0)"
     width="33.338203" />
  <path
     style="color:#000000;fill:url(#linearGradient952);fill-rule:evenodd;-inkscape-stroke:none"
     d="m 18.578125,10.070313 c -1.966226,1.182655 -3.381258,3.102774 -3.935547,5.330078 l -0.002,0.0078 -0.002,0.0078 c -0.193591,0.902575 -0.45263,2.678375 -0.263672,3.939453 l 0.103516,0.6875 0.310547,-0.158203 c -0.977456,0.431128 -1.889689,1.016457 -2.65625,1.789062 -1.615458,1.621801 -2.5195318,3.815433 -2.5195317,6.103516 0,2.294616 0.9088667,4.49871 2.5312497,6.121093 1.622384,1.622384 3.828431,2.533204 6.123047,2.533204 h 6.068359 L 19.638578,33.0156 h -1.371094 c -1.39011,0 -2.723922,-0.552047 -3.705078,-1.533203 -0.980686,-0.981231 -1.533203,-2.315099 -1.533203,-3.705078 0,-1.384926 0.545611,-2.713984 1.521484,-3.695313 0.975465,-0.980918 2.304095,-1.537003 3.679688,-1.542969 h 0.002 3.564453 l 1.708984,-1.708984 -1.708984,-1.708984 H 18.21675 c -1.11692,0.0065 -2.208614,0.2442 -3.224609,0.660156 0.947115,-0.434492 1.80464,-0.692633 2.763671,-0.878913 -0.031,-0.929463 0.07004,-1.915299 0.207044,-2.691407 0.338179,-1.342756 1.192099,-2.499803 2.376953,-3.21289 1.189023,-0.71505 2.61762,-0.927454 3.966797,-0.591797 1.343228,0.334034 2.500024,1.18543 3.216796,2.369141 0.716884,1.18444 0.936812,2.608326 0.609375,3.945312 l -0.859375,3.458984 1.244141,2.06836 2.070313,-1.244141 0.863281,-3.472656 C 31.739405,17.16472 31.4407,14.707808 30.445277,13.009687 29.261131,11.050487 27.351046,9.6440778 25.130824,9.0917179 22.800046,8.6169117 20.558902,8.8989222 18.578125,10.070313 Z m 6.310547,-0.0078 c 1.964736,0.488799 3.653578,1.731573 4.701172,3.464844 1.047567,1.726692 1.366879,3.804511 0.890625,5.765625 l -0.763672,3.068359 -0.857422,0.515625 -0.515625,-0.857422 0.759766,-3.060547 c 0.390975,-1.596428 0.12921,-3.292437 -0.72461,-4.703125 -0.853932,-1.410223 -2.233478,-2.422784 -3.832031,-2.820312 -1.605755,-0.39949 -3.305793,-0.145036 -4.722656,0.707031 -1.416709,0.852626 -2.438362,2.235887 -2.837891,3.841797 L 16.982422,16 l -0.002,0.01563 c -0.126886,0.705676 -0.181829,1.401392 -0.197266,2.107422 -0.47383,0.107373 -0.924856,0.280924 -1.375,0.458984 -0.02305,-0.991561 0.06817,-2.284693 0.208985,-2.945312 0.491657,-1.967872 1.740391,-3.664704 3.476562,-4.708985 1.849331,-1.0073631 3.814996,-1.3423749 5.794969,-0.865239 z m 6.863281,8.755859 -0.798828,3.509766 1.820312,1.185547 c 1.130746,0.807675 1.897019,2.03141 2.125,3.40039 0.227983,1.368437 -0.09861,2.775556 -0.90625,3.90625 -0.8052,1.126736 -2.022585,1.891782 -3.386718,2.123047 -1.363446,0.231149 -2.767375,-0.08835 -3.890625,-0.882812 l -2.902344,-2.072266 -2.382813,0.396485 0.396485,2.382812 2.912109,2.080078 c 2.096242,1.136397 4.491117,1.762965 6.437547,1.460938 2.256509,-0.38155 4.26622,-1.640548 5.595703,-3.501953 1.333806,-1.867201 1.874937,-4.190515 1.498047,-6.453125 -0.97233,-4.153074 -3.224231,-5.437623 -6.517625,-7.535157 z M 18.21875,20.121094 h 3.164062 l 0.708985,0.708984 -0.708985,0.708984 h -3.152343 -0.002 c -1.643197,0.0065 -3.224144,0.668818 -4.386719,1.837891 -1.162627,1.169126 -1.8125,2.752688 -1.8125,4.400391 0,1.654604 0.572834,3.331982 1.824219,4.412109 1.321947,1.141032 2.959926,1.804258 4.414109,1.826172 H 19.3125 l 1.947266,1.416016 h -2.992188 c -2.030198,0 -3.981862,-0.806081 -5.416015,-2.240235 -1.434154,-1.434153 -2.238282,-3.383865 -2.238282,-5.414062 0,-2.024779 0.799391,-3.963701 2.228516,-5.398438 1.42183,-1.433039 3.359895,-2.245013 5.376953,-2.257812 z m 14.193359,0.302734 1.767578,1.125 c 1.651234,1.180047 2.769921,2.968866 3.103516,4.96875 0.333154,2.000045 -0.146134,4.055092 -1.326172,5.707031 -1.176825,1.647669 -2.952183,2.760422 -4.949219,3.097657 -2.103481,0.110078 -4.252235,-0.307455 -5.6895,-1.289063 -0.857568,-0.613877 -1.716101,-1.22673 -2.574265,-1.839891 l -0.164063,-0.986328 0.988281,-0.164062 2.564453,1.832031 c 1.54833,0.792616 3.208746,1.275302 4.640671,1.054687 1.625462,-0.275568 3.075248,-1.186853 4.033204,-2.527343 0.961494,-1.346091 1.349804,-3.021621 1.078125,-4.652344 -0.27168,-1.631375 -1.183255,-3.089323 -2.529297,-4.050781 l -0.0078,-0.0059 -1.263672,-0.822265 z"
     id="path9"
     sodipodi:nodetypes="ccccccccsssccscsscccccccccccccccccccccccccccccccccccccccccccscccccccccccccccsscsccssscccccccccccccccccccc" />
</svg>
