<?xml version="1.0" encoding="UTF-8" standalone="no"?>
<!-- Generator: Gravit.io -->

<svg
   style="isolation:isolate"
   viewBox="0 0 48 48"
   width="48pt"
   height="48pt"
   version="1.1"
   id="svg9"
   sodipodi:docname="rdm.svg"
   inkscape:version="1.1.2 (0a00cf5339, 2022-02-04)"
   xmlns:inkscape="http://www.inkscape.org/namespaces/inkscape"
   xmlns:sodipodi="http://sodipodi.sourceforge.net/DTD/sodipodi-0.dtd"
   xmlns:xlink="http://www.w3.org/1999/xlink"
   xmlns="http://www.w3.org/2000/svg"
   xmlns:svg="http://www.w3.org/2000/svg">
  <defs
     id="defs13">
    <linearGradient
       inkscape:collect="always"
       xlink:href="#_lgradient_1"
       id="linearGradient872"
       x1="-12.025727"
       y1="6.1170783"
       x2="-0.085100174"
       y2="6.1170783"
       gradientUnits="userSpaceOnUse"
       gradientTransform="matrix(3.8358211,0,0,3.8371386,-0.00544341,-0.00268054)" />
    <linearGradient
       id="_lgradient_21"
       x1="0"
       y1="0.5"
       x2="1"
       y2="0.5"
       gradientTransform="matrix(28.183272,0,0,28.298876,9.8766106,9.8505561)"
       gradientUnits="userSpaceOnUse">
      <stop
         offset="0%"
         stop-opacity="1"
         style="stop-color:rgb(255,224,49)"
         id="stop2-3" />
      <stop
         offset="98.69565217391305%"
         stop-opacity="1"
         style="stop-color:rgb(252,82,82)"
         id="stop4-6" />
    </linearGradient>
    <linearGradient
       inkscape:collect="always"
       xlink:href="#_lgradient_1"
       id="linearGradient15"
       x1="-9.6850061"
       y1="45.161198"
       x2="11.98815"
       y2="21.735205"
       gradientUnits="userSpaceOnUse"
       gradientTransform="matrix(1.1147442,0,0,1.1150348,-0.01237238,-3.3277956)" />
    <linearGradient
       inkscape:collect="always"
       xlink:href="#_lgradient_1"
       id="linearGradient970"
       x1="11.050661"
       y1="23.581989"
       x2="36.949341"
       y2="23.581989"
       gradientUnits="userSpaceOnUse" />
  </defs>
  <sodipodi:namedview
     id="namedview11"
     pagecolor="#ffffff"
     bordercolor="#666666"
     borderopacity="1.0"
     inkscape:pageshadow="2"
     inkscape:pageopacity="0.0"
     inkscape:pagecheckerboard="0"
     inkscape:document-units="pt"
     showgrid="false"
     inkscape:zoom="10.21875"
     inkscape:cx="31.95107"
     inkscape:cy="32"
     inkscape:window-width="1600"
     inkscape:window-height="836"
     inkscape:window-x="0"
     inkscape:window-y="0"
     inkscape:window-maximized="1"
     inkscape:current-layer="svg9" />
  <linearGradient
     id="_lgradient_1"
     x1="0"
     y1="0.5"
     x2="1"
     y2="0.5"
     gradientTransform="matrix(25.898681,0,0,26.689697,11.050659,10.23701)"
     gradientUnits="userSpaceOnUse">
    <stop
       offset="0%"
       stop-opacity="1"
       style="stop-color:rgb(255,229,59)"
       id="stop2" />
    <stop
       offset="98.69565217391305%"
       stop-opacity="1"
       style="stop-color:rgb(255,0,91)"
       id="stop4" />
  </linearGradient>
  <rect
     x="-46.783188"
     y="1.2253767"
     height="45.80014"
     rx="6.1837621"
     shape-rendering="crispEdges"
     id="rect5-6-7-3"
     ry="6.8055277"
     transform="matrix(0.00524063,-0.99998627,0.99998801,0.00489691,0,0)"
     style="isolation:isolate;fill:#ff8b00;fill-opacity:0.13470298;stroke:url(#linearGradient872);stroke-width:2.0301;stroke-miterlimit:4;stroke-dasharray:none;stroke-opacity:1"
     width="45.801998" />
  <rect
     x="-15.686804"
     y="17.260084"
     height="33.345856"
     rx="6.7920032"
     shape-rendering="crispEdges"
     id="rect5-6-6-6-6"
     style="isolation:isolate;fill:#ff8b00;fill-opacity:0.13470298;stroke:url(#linearGradient15);stroke-width:1.67233;stroke-miterlimit:4;stroke-dasharray:none;stroke-opacity:1"
     ry="7.4743071"
     transform="matrix(0.72446484,-0.68931175,0.68622417,0.72739012,0,0)"
     width="33.338203" />
  <path
     style="color:#000000;fill:url(#linearGradient970);fill-rule:evenodd;-inkscape-stroke:none"
     d="m 23.853516,9.7167969 c -0.474423,-0.00185 -0.948236,0.1146573 -1.355469,0.3496091 l -11.224609,6.478516 0.05273,-0.02539 c -0.07831,0.03377 -0.149046,0.08323 -0.21875,0.132813 -0.01584,0.0085 -0.02827,0.01006 -0.04492,0.02148 -0.002,0.0014 -0.0038,0.0044 -0.0059,0.0059 -0.0065,0.0046 -0.01294,0.01243 -0.01953,0.01758 -0.02122,0.01658 -0.04379,0.03203 -0.06445,0.05469 -0.02911,0.03192 -0.0777,0.114385 -0.07813,0.115234 l 0.152344,-0.175781 0.002,-0.002 0.0039,-0.0039 c -4.76e-4,3.32e-4 4.76e-4,0.0016 0,0.002 -0.216754,0.151668 -0.311257,0.430576 -0.357421,0.708984 l -0.08203,-0.01172 c -0.01349,0.04614 -0.01075,0.09399 -0.01953,0.140625 l 0.03711,-0.002 c 8.3e-5,0.0032 -0.004,0.0046 -0.0039,0.0078 l -0.0332,-0.0059 c -0.02047,0.108698 -0.04297,0.217289 -0.04297,0.328125 v 12.933593 c 0,0.940919 0.548855,1.877703 1.371094,2.335938 l 7.28125,4.058594 -0.01367,-0.0098 c 0.834529,0.502765 1.932808,0.230968 2.435547,-0.603516 0.502236,-0.834959 0.22995,-1.934558 -0.603516,-2.441406 l -0.0078,-0.0059 -6.908203,-3.791016 V 19.015625 l 9.597656,-5.541016 6.859375,3.857422 -0.04687,-0.0293 c 0.793736,0.56976 1.913883,0.387025 2.482422,-0.40625 0.567929,-0.793254 0.381506,-1.911579 -0.41211,-2.480468 l -0.01953,-0.01367 -7.359375,-4.326172 C 24.801894,9.8381015 24.327939,9.718644 23.853516,9.7167969 Z m -0.855469,1.2148441 c 0.406771,-0.234686 1.298991,-0.231622 1.703125,0.0059 l 7.302734,4.292969 c 0.353775,0.255076 0.43356,0.732972 0.181641,1.083984 -0.252068,0.351707 -0.732092,0.431181 -1.087891,0.175781 l -0.02148,-0.01563 -7.378906,-4.15039 -10.591797,6.113281 v 12.486328 l 7.396484,4.056641 v 0.002 c 0.370324,0.226584 0.48801,0.700602 0.265625,1.070312 -0.223402,0.370819 -0.691724,0.487048 -1.0625,0.263672 l -0.0078,-0.0059 -7.28711,-4.0625 C 12.000915,32.019976 11.550781,31.255223 11.550781,30.787109 V 17.853516 c 0,-0.0829 0.0095,-0.146583 0.02149,-0.1875 l -0.669922,-0.0957 0.664062,-0.04297 c -0.0284,0.01339 -0.06073,0.03279 -0.08398,0.03906 l 0.105469,-0.0293 0.06641,-0.05469 0.05078,-0.03516 0.01563,-0.0098 0.02734,-0.01172 z m -11.410156,6.529296 c 0.0088,0.06809 -0.03083,0.08537 0.03516,0.03906 -0.0177,0.01177 -0.03052,0.01525 -0.04687,0.02344 L 11.28125,17.480469 Z M 35.625,20.203125 c -0.980632,0.125901 -1.730469,0.979812 -1.730469,1.96875 v 8.158203 l -6.908203,3.791016 -0.0078,0.0059 C 26.14505,34.633801 25.872764,35.7334 26.375,36.568359 c 0.502739,0.834484 1.601018,1.106281 2.435547,0.603516 l -0.01367,0.0098 7.28125,-4.058594 c 0.822239,-0.458235 1.371094,-1.395019 1.371094,-2.335938 v -8.972656 c 0,-0.972505 -0.86093,-1.734201 -1.824219,-1.611328 z m -20.748047,0.0332 v 6.691406 h 2.205078 v -1.96875 l 1.22461,1.96875 H 20.138672 20.878906 22.25 c 1.08934,0 2.004232,-0.27757 2.652344,-0.882812 0.64772,-0.604877 0.958984,-1.485628 0.958984,-2.517578 0,-0.977176 -0.303587,-1.82275 -0.925781,-2.416016 -0.622577,-0.594529 -1.492659,-0.875 -2.509766,-0.875 h -2.287109 v 5.617188 c -0.238594,-0.347537 -0.661944,-0.975381 -1.22461,-1.814454 0.179481,-0.135936 0.397133,-0.234712 0.525391,-0.416015 0.241974,-0.343255 0.367188,-0.755376 0.367188,-1.181641 0,-0.681433 -0.252586,-1.301293 -0.753907,-1.68164 -0.504268,-0.382584 -1.183713,-0.523438 -2.017578,-0.523438 z m 11.162109,0 v 6.691406 h 2.080079 v -1.501953 l 0.460937,1.501953 h 1.474609 0.361329 l 0.582031,-1.765625 v 1.765625 h 2.125 v -6.691406 h -2.503906 l -1.064454,3.240234 -1.003906,-3.240234 z m 9.712891,0.958984 c 0.427503,-0.05368 0.697266,0.182161 0.697266,0.619141 v 8.972656 c 0,0.468114 -0.450134,1.232867 -0.859375,1.460938 l -7.28711,4.0625 -0.0078,0.0059 c -0.370776,0.223376 -0.839098,0.107147 -1.0625,-0.263672 -0.222385,-0.36971 -0.104699,-0.843728 0.265625,-1.070312 6.37e-4,-3.9e-4 -6.38e-4,-0.0016 0,-0.002 l 7.396484,-4.056641 v -8.751953 c 0,-0.454238 0.410812,-0.919223 0.857422,-0.976563 z m -19.875,0.04102 h 0.205078 v 0.488281 2.019532 0.01758 2.166015 h -0.205078 z m 1.125,0 h 0.0332 c 0.485241,0 0.701176,0.120288 0.962891,0.21875 -0.288325,-0.157104 -0.613276,-0.214436 -0.996094,-0.21875 z m 4.136719,0 h 0.207031 v 4.691406 h -0.207031 z m 5.90039,0 h 0.775391 l 0.07031,0.226563 h -0.845704 z m 4.304688,0 h 0.779297 v 4.691406 h -0.125 v -2.193359 c 0,-0.121585 0.0017,-0.264783 0.0059,-0.427734 l 0.002,-0.002 c 0.0035,-0.151417 0.01972,-0.597015 0.05078,-1.3125 l 0.02344,-0.521484 h -0.8125 z m -8.367188,0.181641 c 0.479396,0.08681 0.985437,0.146584 1.267579,0.416015 0.405936,0.387063 0.617187,0.910952 0.617187,1.69336 0,0.842207 -0.223471,1.395723 -0.642578,1.787109 -0.265051,0.247519 -0.791794,0.290159 -1.246094,0.388672 0.382998,-0.09355 0.807557,-0.124545 1.064453,-0.400391 0.403909,-0.4337 0.570313,-1.042445 0.570313,-1.74414 0,-0.684771 -0.151947,-1.277465 -0.53125,-1.707032 -0.26262,-0.29742 -0.694507,-0.347085 -1.09961,-0.433593 z m -4.904296,0.05273 c 0.09598,0.04049 0.31354,0.03783 0.376953,0.08594 0.240755,0.182658 0.357422,0.418941 0.357422,0.884765 0,0.24297 -0.05757,0.426691 -0.183594,0.605469 -0.109539,0.154842 -0.283164,0.274341 -0.494141,0.382812 0.287924,-0.228817 0.460938,-0.593125 0.460938,-0.957031 0,-0.384587 -0.182187,-0.795505 -0.517578,-1.001953 z m 8.966796,0.414063 0.0059,0.105468 c 0.04916,0.905234 0.07422,1.514592 0.07422,1.791016 v 2.146484 h -0.08008 z m -4.693359,0.339843 h 0.142578 c 0.445298,0 0.679473,0.107441 0.839844,0.289063 0.160371,0.181622 0.279297,0.507317 0.279297,1.044922 0,0.546478 -0.125427,0.872114 -0.302735,1.0625 -0.177307,0.190386 -0.449669,0.310547 -0.941406,0.310547 h -0.01758 z m -5.263672,0.02148 c 0.218222,0.01861 0.42586,0.05097 0.466797,0.07617 0.03564,0.02194 0.04102,-0.0053 0.04102,0.15039 0,0.161443 -0.01669,0.158715 -0.06055,0.189453 -0.0384,0.02651 -0.230161,0.06204 -0.447266,0.08008 z m 0.9375,1.257812 -0.517578,0.226563 0.332031,0.496093 c 0.586272,0.875902 0.840485,1.247688 1.148438,1.701172 h -0.121094 l -1.357422,-2.183593 h -0.279297 -0.18164 c 0.371067,-0.0067 0.695455,-0.06945 0.976562,-0.240235 z m 11.195313,2.083985 h 0.589843 l -0.111328,0.339843 h -0.375 z"
     id="path7" />
</svg>
