<?xml version="1.0" encoding="UTF-8" standalone="no"?>
<!-- Generator: Gravit.io -->

<svg
   style="isolation:isolate"
   viewBox="0 0 48 48"
   width="48pt"
   height="48pt"
   version="1.1"
   id="svg16"
   sodipodi:docname="renderdoc.svg"
   inkscape:version="1.1.2 (0a00cf5339, 2022-02-04)"
   xmlns:inkscape="http://www.inkscape.org/namespaces/inkscape"
   xmlns:sodipodi="http://sodipodi.sourceforge.net/DTD/sodipodi-0.dtd"
   xmlns:xlink="http://www.w3.org/1999/xlink"
   xmlns="http://www.w3.org/2000/svg"
   xmlns:svg="http://www.w3.org/2000/svg">
  <defs
     id="defs20">
    <linearGradient
       inkscape:collect="always"
       xlink:href="#_lgradient_14"
       id="linearGradient872"
       x1="-12.025727"
       y1="6.1170783"
       x2="-0.085100174"
       y2="6.1170783"
       gradientUnits="userSpaceOnUse"
       gradientTransform="matrix(3.8358211,0,0,3.8371386,-0.00544341,-0.00268054)" />
    <linearGradient
       id="_lgradient_21"
       x1="0"
       y1="0.5"
       x2="1"
       y2="0.5"
       gradientTransform="matrix(28.183272,0,0,28.298876,9.8766106,9.8505561)"
       gradientUnits="userSpaceOnUse">
      <stop
         offset="0%"
         stop-opacity="1"
         style="stop-color:rgb(255,224,49)"
         id="stop2-3" />
      <stop
         offset="98.69565217391305%"
         stop-opacity="1"
         style="stop-color:rgb(252,82,82)"
         id="stop4-6" />
    </linearGradient>
    <linearGradient
       inkscape:collect="always"
       xlink:href="#_lgradient_14"
       id="linearGradient15"
       x1="-9.6850061"
       y1="45.161198"
       x2="11.98815"
       y2="21.735205"
       gradientUnits="userSpaceOnUse"
       gradientTransform="matrix(1.1147442,0,0,1.1150348,-0.01237238,-3.3277956)" />
    <linearGradient
       inkscape:collect="always"
       xlink:href="#_lgradient_13"
       id="linearGradient1073"
       x1="10.583491"
       y1="22.012028"
       x2="37.416508"
       y2="22.012028"
       gradientUnits="userSpaceOnUse" />
  </defs>
  <sodipodi:namedview
     id="namedview18"
     pagecolor="#ffffff"
     bordercolor="#666666"
     borderopacity="1.0"
     inkscape:pageshadow="2"
     inkscape:pageopacity="0.0"
     inkscape:pagecheckerboard="0"
     inkscape:document-units="pt"
     showgrid="false"
     inkscape:zoom="10.21875"
     inkscape:cx="31.95107"
     inkscape:cy="32"
     inkscape:window-width="1600"
     inkscape:window-height="836"
     inkscape:window-x="0"
     inkscape:window-y="0"
     inkscape:window-maximized="1"
     inkscape:current-layer="svg16" />
  <linearGradient
     id="_lgradient_13"
     x1="0.11328125000000006"
     y1="0.8623455924838432"
     x2="0.7016385508849554"
     y2="0.21233010034243582"
     gradientTransform="matrix(26.833018,0,0,17.066758,10.583491,13.478649)"
     gradientUnits="userSpaceOnUse">
    <stop
       offset="0%"
       stop-opacity="1"
       style="stop-color:rgb(0,255,216)"
       id="stop2" />
    <stop
       offset="98.26086956521739%"
       stop-opacity="1"
       style="stop-color:rgb(0,255,184)"
       id="stop4" />
  </linearGradient>
  <rect
     x="-46.783188"
     y="1.2253767"
     height="45.80014"
     rx="6.1837621"
     shape-rendering="crispEdges"
     id="rect5-6-7-3"
     ry="6.8055277"
     transform="matrix(0.00524063,-0.99998627,0.99998801,0.00489691,0,0)"
     style="isolation:isolate;fill:#00ffc7;fill-opacity:0.13470298;stroke:url(#linearGradient872);stroke-width:2.0301;stroke-miterlimit:4;stroke-dasharray:none;stroke-opacity:1"
     width="45.801998" />
  <rect
     x="-15.686804"
     y="17.260084"
     height="33.345856"
     rx="6.7920032"
     shape-rendering="crispEdges"
     id="rect5-6-6-6-6"
     style="isolation:isolate;fill:#00ffc7;fill-opacity:0.13470298;stroke:url(#linearGradient15);stroke-width:1.67233;stroke-miterlimit:4;stroke-dasharray:none;stroke-opacity:1"
     ry="7.4743071"
     transform="matrix(0.72446484,-0.68931175,0.68622417,0.72739012,0,0)"
     width="33.338203" />
  <path
     style="color:#000000;fill:url(#linearGradient1073);-inkscape-stroke:none"
     d="m 23.939453,12.978516 c -4.114783,0 -7.460937,3.346087 -7.460937,7.460937 0,1.763249 0.66764,3.306955 1.691406,4.580078 -3.443804,1.010874 -6.308823,2.840979 -7.996094,5.238281 l 0.63086,0.736329 C 14.374238,29.228895 18.977331,28.15625 24,28.15625 c 5.022669,0 9.626593,1.072685 13.195312,2.837891 l 0.63086,-0.736329 c -1.706627,-2.424487 -4.644481,-4.227749 -8.132813,-5.226562 1.01828,-1.275114 1.707032,-2.834458 1.707032,-4.591797 0,-4.11485 -3.346869,-7.460937 -7.460938,-7.460937 z m 0,1 c 3.573569,0 6.460938,2.886613 6.460938,6.460937 0,1.740946 -0.686234,3.313162 -1.802735,4.474609 l 0.359375,0.347657 -0.11914,0.484375 c 2.711317,0.673181 4.827823,2.007634 6.513671,3.564453 C 32.014739,28.033924 28.224301,27.15625 24,27.15625 c -4.242071,0 -8.048582,0.883356 -11.394531,2.169922 1.658408,-1.565086 3.736087,-2.916961 6.419922,-3.597656 l 0.83789,-0.212891 -0.601562,-0.619141 c -1.130079,-1.164322 -1.783203,-2.69723 -1.783203,-4.457031 0,-3.574324 2.886546,-6.460937 6.460937,-6.460937 z m 0,1.980468 c -2.46865,0 -4.482422,2.011702 -4.482422,4.480469 0,2.46944 2.013772,4.482422 4.482422,4.482422 2.467977,0 4.480469,-2.012982 4.480469,-4.482422 0,-2.468767 -2.012493,-4.480469 -4.480469,-4.480469 z m 0,1 c 1.927373,0 3.480469,1.552349 3.480469,3.480469 0,1.928982 -1.553096,3.482422 -3.480469,3.482422 -1.928235,0 -3.482422,-1.55344 -3.482422,-3.482422 0,-1.92812 1.554186,-3.480469 3.482422,-3.480469 z"
     id="path7" />
  <linearGradient
     id="_lgradient_14"
     x1="0.031182562838213412"
     y1="0.10866627890091946"
     x2="0.9583795358695032"
     y2="0.9751947012019755"
     gradientTransform="matrix(45.913,0,0,48,1.043,0)"
     gradientUnits="userSpaceOnUse">
    <stop
       offset="0%"
       stop-opacity="1"
       style="stop-color:rgb(165,248,106)"
       id="stop9" />
    <stop
       offset="97.91666666666666%"
       stop-opacity="1"
       style="stop-color:rgb(47,206,146)"
       id="stop11" />
  </linearGradient>
</svg>
