<?xml version="1.0" encoding="UTF-8" standalone="no"?>
<!-- Generator: Gravit.io -->

<svg
   style="isolation:isolate"
   viewBox="0 0 48 48"
   width="48pt"
   height="48pt"
   version="1.1"
   id="svg9"
   sodipodi:docname="robo3t.svg"
   inkscape:version="1.1.2 (0a00cf5339, 2022-02-04)"
   xmlns:inkscape="http://www.inkscape.org/namespaces/inkscape"
   xmlns:sodipodi="http://sodipodi.sourceforge.net/DTD/sodipodi-0.dtd"
   xmlns:xlink="http://www.w3.org/1999/xlink"
   xmlns="http://www.w3.org/2000/svg"
   xmlns:svg="http://www.w3.org/2000/svg">
  <defs
     id="defs13">
    <linearGradient
       inkscape:collect="always"
       xlink:href="#_lgradient_6"
       id="linearGradient872"
       x1="-12.025727"
       y1="6.1170783"
       x2="-0.085100174"
       y2="6.1170783"
       gradientUnits="userSpaceOnUse"
       gradientTransform="matrix(3.8358211,0,0,3.8371386,-0.00544341,-0.00268054)" />
    <linearGradient
       id="_lgradient_21"
       x1="0"
       y1="0.5"
       x2="1"
       y2="0.5"
       gradientTransform="matrix(28.183272,0,0,28.298876,9.8766106,9.8505561)"
       gradientUnits="userSpaceOnUse">
      <stop
         offset="0%"
         stop-opacity="1"
         style="stop-color:rgb(255,224,49)"
         id="stop2-3" />
      <stop
         offset="98.69565217391305%"
         stop-opacity="1"
         style="stop-color:rgb(252,82,82)"
         id="stop4-6" />
    </linearGradient>
    <linearGradient
       inkscape:collect="always"
       xlink:href="#_lgradient_6"
       id="linearGradient15"
       x1="-9.6850061"
       y1="45.161198"
       x2="11.98815"
       y2="21.735205"
       gradientUnits="userSpaceOnUse"
       gradientTransform="matrix(1.1147442,0,0,1.1150348,-0.01237238,-3.3277956)" />
    <linearGradient
       inkscape:collect="always"
       xlink:href="#_lgradient_6"
       id="linearGradient986"
       x1="11.801038"
       y1="22.639183"
       x2="36.199249"
       y2="22.639183"
       gradientUnits="userSpaceOnUse" />
  </defs>
  <sodipodi:namedview
     id="namedview11"
     pagecolor="#ffffff"
     bordercolor="#666666"
     borderopacity="1.0"
     inkscape:pageshadow="2"
     inkscape:pageopacity="0.0"
     inkscape:pagecheckerboard="0"
     inkscape:document-units="pt"
     showgrid="false"
     inkscape:zoom="10.21875"
     inkscape:cx="31.95107"
     inkscape:cy="32"
     inkscape:window-width="1600"
     inkscape:window-height="836"
     inkscape:window-x="0"
     inkscape:window-y="0"
     inkscape:window-maximized="1"
     inkscape:current-layer="svg9" />
  <linearGradient
     id="_lgradient_6"
     x1="0.49999583277241255"
     y1="0.03909465020576136"
     x2="0.5364393547473191"
     y2="0.99332278455627"
     gradientTransform="matrix(24.397846,0,0,30.842385,11.801126,7.2179898)"
     gradientUnits="userSpaceOnUse">
    <stop
       offset="0%"
       stop-opacity="1"
       style="stop-color:rgb(17,153,142)"
       id="stop2" />
    <stop
       offset="99.1304347826087%"
       stop-opacity="1"
       style="stop-color:rgb(56,239,125)"
       id="stop4" />
  </linearGradient>
  <rect
     x="-46.783188"
     y="1.2253767"
     height="45.80014"
     rx="6.1837621"
     shape-rendering="crispEdges"
     id="rect5-6-7-3"
     ry="6.8055277"
     transform="matrix(0.00524063,-0.99998627,0.99998801,0.00489691,0,0)"
     style="isolation:isolate;fill:#00ff69;fill-opacity:0.13470298;stroke:url(#linearGradient872);stroke-width:2.0301;stroke-miterlimit:4;stroke-dasharray:none;stroke-opacity:1"
     width="45.801998" />
  <rect
     x="-15.686804"
     y="17.260084"
     height="33.345856"
     rx="6.7920032"
     shape-rendering="crispEdges"
     id="rect5-6-6-6-6"
     style="isolation:isolate;fill:#00ff69;fill-opacity:0.13470298;stroke:url(#linearGradient15);stroke-width:1.67233;stroke-miterlimit:4;stroke-dasharray:none;stroke-opacity:1"
     ry="7.4743071"
     transform="matrix(0.72446484,-0.68931175,0.68622417,0.72739012,0,0)"
     width="33.338203" />
  <path
     style="color:#000000;fill:url(#linearGradient986);fill-rule:evenodd;-inkscape-stroke:none"
     d="m 23.921875,6.71875 c -0.976023,0 -1.907486,0.4004937 -2.580078,1.0976562 -1.507612,1.5365028 -2.923334,3.1658478 -4.232422,4.8808598 -1.179898,1.523152 -2.232356,3.146764 -3.146484,4.839843 -0.819981,1.510859 -1.481406,3.108417 -1.970703,4.763672 h -0.002 c -0.442924,1.511116 -0.675164,3.079832 -0.689453,4.65625 v 0.002 c -0.0075,2.070631 0.454841,4.11577 1.363282,5.976563 0.480213,0.975895 1.147689,1.845552 1.955078,2.570312 0.793377,0.712094 1.696298,1.297105 2.671875,1.740235 h 0.002 c 0.984326,0.444688 2.020357,0.782903 3.082031,0.988281 1.08361,0.217948 2.188221,0.326172 3.292969,0.326172 1.1409,0 2.280924,-0.116844 3.396484,-0.333985 h 0.002 c 1.098206,-0.218005 2.175149,-0.554293 3.203125,-1.005859 1.003184,-0.434575 1.944995,-1.016454 2.791016,-1.714844 0.842649,-0.693823 1.560328,-1.538149 2.099609,-2.496093 l 0.002,-0.002 v -0.002 c 1.02123,-1.851839 1.551569,-3.931534 1.53711,-6.041015 C 36.684237,25.415586 36.451204,23.879005 36,22.394531 35.496025,20.753915 34.827601,19.16958 34,17.666016 h -0.002 C 33.063472,15.974688 31.999755,14.34606 30.814453,12.810547 l -0.002,-0.0039 C 29.483227,11.065621 28.04659,9.402651 26.519531,7.8320312 25.841247,7.120828 24.904539,6.71875 23.921875,6.71875 Z m 0,1 c 0.710694,0 1.381038,0.2868476 1.873047,0.8027344 l 0.002,0.00195 0.002,0.00195 c 1.501925,1.5444624 2.914029,3.1789274 4.220703,4.8906254 v 0.002 h 0.002 c 1.154215,1.494877 2.190258,3.083206 3.101563,4.732422 0.793616,1.44208 1.43615,2.960901 1.919922,4.535156 0.423213,1.392385 0.642172,2.833337 0.65625,4.289062 0.01294,1.937 -0.473481,3.846773 -1.41211,5.548828 -0.476237,0.844843 -1.112107,1.594043 -1.861328,2.210938 -0.775676,0.640502 -1.638524,1.17428 -2.552734,1.570312 h -0.002 c -0.960226,0.422091 -1.970181,0.736977 -3,0.941407 -1.05534,0.205298 -2.130892,0.314453 -3.203125,0.314453 -1.039026,0 -2.077806,-0.101909 -3.095703,-0.306641 l -0.002,-0.002 h -0.002 c -0.981757,-0.189628 -1.94536,-0.501327 -2.863281,-0.916016 -0.885532,-0.402229 -1.70291,-0.93242 -2.417969,-1.574218 -0.714888,-0.641726 -1.302753,-1.409147 -1.724609,-2.265625 l -0.002,-0.002 C 12.72145,30.774501 12.294388,28.88434 12.300781,26.966797 v -0.002 c 3e-6,-6.52e-4 -2e-6,-0.0013 0,-0.002 0.01379,-1.482089 0.234146,-2.958177 0.650391,-4.378907 v -0.002 c 0.469434,-1.587606 1.103787,-3.120774 1.890625,-4.570312 h 0.002 c 0.889494,-1.647453 1.910244,-3.225563 3.056641,-4.705078 l 0.002,-0.002 0.002,-0.002 c 1.284248,-1.682468 2.673883,-3.280518 4.154297,-4.7890621 v -0.00195 l 0.002,-0.00195 C 22.545037,8.0075766 23.220392,7.71875 23.921875,7.71875 Z m 0,1.1152344 c -0.40668,0 -0.785926,0.169297 -1.060547,0.453125 -1.452545,1.4812226 -2.813827,3.0484516 -4.074219,4.7011716 -1.108579,1.437857 -2.097915,2.960642 -2.96289,4.554688 h 0.002 c -0.757343,1.38497 -1.363813,2.84231 -1.804688,4.351562 -0.393318,1.327404 -0.597911,2.69845 -0.605468,4.078125 -0.0076,1.740601 0.38454,3.45993 1.144531,5.023438 v 0.002 c 0.360299,0.735672 0.85901,1.388709 1.470703,1.93164 0.634918,0.567356 1.354899,1.038636 2.134766,1.390625 0.839296,0.383442 1.714425,0.662749 2.61914,0.839844 0.948891,0.189369 1.912366,0.285157 2.882813,0.285156 0.998873,0 2.003932,-0.10206 2.986328,-0.298828 0.954909,-0.183688 1.87814,-0.4773 2.763672,-0.865234 0.832281,-0.356879 1.605843,-0.831897 2.296875,-1.404297 l 0.002,-0.002 c 0.64417,-0.530965 1.184432,-1.17175 1.595703,-1.902344 h 0.002 v -0.002 c 0.844723,-1.52633 1.283775,-3.240573 1.269531,-4.990234 -0.0075,-1.348487 -0.220587,-2.685812 -0.607422,-3.970703 C 33.52258,21.51 32.909642,20.065664 32.146484,18.689453 l -0.002,-0.002 c -0.879834,-1.601353 -1.887932,-3.137266 -3.009765,-4.587891 v -0.002 C 27.849224,12.42182 26.471069,10.81698 25,9.3027344 24.720308,9.0019137 24.330406,8.8339844 23.921875,8.8339844 Z m 0,1 c 0.127742,0 0.258193,0.05627 0.345703,0.1503906 l 0.0039,0.00391 0.0039,0.00391 c 1.445163,1.4870135 2.800938,3.0650875 4.066406,4.7148435 v 0.002 h 0.002 c 1.090991,1.410609 2.070559,2.906048 2.925781,4.462891 0.730167,1.316368 1.316606,2.695202 1.75,4.126953 0.360423,1.197774 0.557477,2.441119 0.564453,3.6875 0.01315,1.578256 -0.382066,3.122302 -1.144531,4.5 -0.350151,0.620931 -0.809518,1.164673 -1.361328,1.619141 -0.61938,0.513343 -1.312261,0.938882 -2.056641,1.257812 l -0.002,0.002 h -0.002 c -0.821034,0.359679 -1.674273,0.629846 -2.552734,0.798828 l -0.002,0.002 h -0.002 c -0.919763,0.184464 -1.860699,0.279297 -2.792968,0.279296 -0.905189,0 -1.80302,-0.08911 -2.6875,-0.265625 h -0.002 C 20.148255,35.0173 19.347716,34.76086 18.580078,34.410156 h -0.002 c -0.685836,-0.309273 -1.318917,-0.726051 -1.880859,-1.228515 h -0.002 c -0.516331,-0.45829 -0.93355,-1.004825 -1.236328,-1.623047 -0.692968,-1.425625 -1.0499,-2.992082 -1.042968,-4.580078 0.007,-1.285198 0.197309,-2.564265 0.564453,-3.802735 l 0.002,-0.002 c 0.420333,-1.438932 0.997347,-2.829526 1.720703,-4.152344 0.8409,-1.549678 1.80057,-3.030059 2.876953,-4.425781 l 0.002,-0.002 c 1.234736,-1.619079 2.567875,-3.154989 3.992188,-4.6074219 l 0.002,-0.00195 0.002,-0.00195 c 0.09103,-0.094644 0.217014,-0.1484375 0.34375,-0.1484375 z M 24,16.208984 c -2.994924,0 -5.435547,2.440623 -5.435547,5.435547 0,2.994329 2.440623,5.435547 5.435547,5.435547 2.994923,0 5.435547,-2.441218 5.435547,-5.435547 0,-2.994924 -2.440624,-5.435547 -5.435547,-5.435547 z m 0,1 c 2.453671,0 4.435547,1.981875 4.435547,4.435547 0,2.452946 -1.981876,4.435547 -4.435547,4.435547 -2.453672,0 -4.435547,-1.982601 -4.435547,-4.435547 0,-2.453672 1.981875,-4.435547 4.435547,-4.435547 z m 0,1.115235 c -0.879534,0 -1.72629,0.347383 -2.349609,0.970703 v 0.002 c -0.62237,0.623149 -0.970704,1.467829 -0.970704,2.347656 0,0.879285 0.348334,1.726461 0.970704,2.34961 0.623319,0.623318 1.470075,0.970703 2.349609,0.970703 0.879533,0 1.72681,-0.347126 2.349609,-0.970703 0.623173,-0.623173 0.970703,-1.470325 0.970703,-2.34961 0,-0.879276 -0.348264,-1.724595 -0.970703,-2.347656 C 25.726809,18.673296 24.879533,18.324219 24,18.324219 Z m 0,1 c 0.615694,0 1.206728,0.243294 1.640625,0.677734 l 0.002,0.002 c 0.434847,0.434847 0.677735,1.025226 0.677734,1.640625 0,0.614622 -0.242887,1.207732 -0.677734,1.642578 h -0.002 C 25.206728,23.721549 24.615693,23.964844 24,23.964844 c -0.615694,0 -1.207879,-0.243036 -1.642578,-0.677735 -0.434327,-0.43487 -0.677735,-1.027956 -0.677735,-1.642578 0,-0.614773 0.244235,-1.205877 0.677735,-1.640625 C 22.792121,19.569207 23.384305,19.324219 24,19.324219 Z m 0,0.763672 c -0.854564,0 -1.558594,0.702076 -1.558594,1.55664 0,0.854211 0.70403,1.558594 1.558594,1.558594 0.854564,0 1.556641,-0.704761 1.556641,-1.558594 0,-0.854187 -0.702078,-1.55664 -1.556641,-1.55664 z m 0,1 c 0.313085,0 0.556641,0.243177 0.556641,0.55664 0,0.312497 -0.243556,0.558594 -0.556641,0.558594 -0.313086,0 -0.558594,-0.246475 -0.558594,-0.558594 0,-0.313086 0.245507,-0.55664 0.558594,-0.55664 z m -4.230469,6.404296 c -0.671395,0 -1.205078,0.568587 -1.205078,1.234375 v 1.34961 c 0,0.665788 0.533682,1.234375 1.205078,1.234375 0.390086,0 0.690819,-0.215962 0.910156,-0.507813 v 0.6875 c 0,0.66508 0.534814,1.232422 1.205079,1.232422 0.388884,0 0.690388,-0.215612 0.910156,-0.505859 v 0.621094 c 0,0.67929 0.511045,1.294921 1.205078,1.294921 0.694033,0 1.205078,-0.615631 1.205078,-1.294921 v -0.636719 c 0.2149,0.299315 0.513014,0.521484 0.910156,0.521484 0.701391,0 1.205078,-0.630553 1.205078,-1.314453 v -0.605469 c 0.219525,0.291804 0.520071,0.507813 0.910157,0.507813 0.671396,0 1.205078,-0.568587 1.205078,-1.234375 v -1.34961 c 0,-0.665788 -0.533683,-1.234374 -1.205078,-1.234375 -0.539068,0 -0.909781,0.403136 -1.066407,0.892579 -0.166085,-0.483837 -0.508866,-0.892578 -1.048828,-0.892579 -0.546633,0 -0.892997,0.417616 -1.054687,0.910157 C 24.901134,27.908456 24.546595,27.492188 24,27.492187 c -0.536793,10e-7 -0.884632,0.403769 -1.050781,0.884766 -0.158454,-0.485768 -0.528565,-0.884766 -1.064453,-0.884766 -0.529907,0 -0.895498,0.391537 -1.058594,0.869141 -0.16351,-0.476926 -0.526681,-0.86914 -1.056641,-0.869141 z m 0,1 c 0.106598,0 0.205078,0.08728 0.205078,0.234375 v 1.34961 c 0,0.14709 -0.09848,0.234375 -0.205078,0.234375 -0.106597,0 -0.205078,-0.08783 -0.205078,-0.234375 v -1.34961 c 0,-0.146548 0.09848,-0.234374 0.205078,-0.234375 z m 2.115235,0 c 0.108297,0 0.205078,0.08718 0.205078,0.230469 v 2.767578 c 0,0.143294 -0.09735,0.232422 -0.205078,0.232422 -0.107729,0 -0.205078,-0.08913 -0.205079,-0.232422 v -2.767578 c 0,-0.143293 0.09678,-0.230468 0.205079,-0.230469 z m 2.115234,0 c 0.08396,0 0.205078,0.0949 0.205078,0.292969 v 4.052735 c 0,0.199091 -0.121118,0.294922 -0.205078,0.294921 -0.08396,0 -0.205078,-0.09583 -0.205078,-0.294921 v -4.052735 c 0,-0.198068 0.121116,-0.292968 0.205078,-0.292969 z m 2.115234,0 c 0.0766,0 0.205079,0.09821 0.205078,0.3125 v 2.603516 c 0,0.214293 -0.128475,0.314453 -0.205078,0.314453 -0.0766,0 -0.205078,-0.10016 -0.205078,-0.314453 v -2.603516 c 0,-0.214291 0.128475,-0.3125 0.205078,-0.3125 z m 2.115235,0 c 0.106598,0 0.205078,0.08783 0.205078,0.234375 v 1.34961 c 0,0.146549 -0.09848,0.234375 -0.205078,0.234375 -0.106597,0 -0.205078,-0.08783 -0.205078,-0.234375 v -1.34961 c 0,-0.146548 0.09848,-0.234375 0.205078,-0.234375 z"
     id="path7" />
</svg>
