<?xml version="1.0" encoding="UTF-8" standalone="no"?>
<!-- Generator: Gravit.io -->

<svg
   style="isolation:isolate"
   viewBox="0 0 48 48"
   width="48pt"
   height="48pt"
   version="1.1"
   id="svg9"
   sodipodi:docname="scribus.svg"
   inkscape:version="1.1.2 (0a00cf5339, 2022-02-04)"
   xmlns:inkscape="http://www.inkscape.org/namespaces/inkscape"
   xmlns:sodipodi="http://sodipodi.sourceforge.net/DTD/sodipodi-0.dtd"
   xmlns:xlink="http://www.w3.org/1999/xlink"
   xmlns="http://www.w3.org/2000/svg"
   xmlns:svg="http://www.w3.org/2000/svg">
  <defs
     id="defs13">
    <linearGradient
       inkscape:collect="always"
       xlink:href="#_lgradient_34"
       id="linearGradient872"
       x1="-12.025727"
       y1="6.1170783"
       x2="-0.085100174"
       y2="6.1170783"
       gradientUnits="userSpaceOnUse"
       gradientTransform="matrix(3.8358211,0,0,3.8371386,-0.00544341,-0.00268054)" />
    <linearGradient
       id="_lgradient_21"
       x1="0"
       y1="0.5"
       x2="1"
       y2="0.5"
       gradientTransform="matrix(28.183272,0,0,28.298876,9.8766106,9.8505561)"
       gradientUnits="userSpaceOnUse">
      <stop
         offset="0%"
         stop-opacity="1"
         style="stop-color:rgb(255,224,49)"
         id="stop2-3" />
      <stop
         offset="98.69565217391305%"
         stop-opacity="1"
         style="stop-color:rgb(252,82,82)"
         id="stop4-6" />
    </linearGradient>
    <linearGradient
       inkscape:collect="always"
       xlink:href="#_lgradient_34"
       id="linearGradient15"
       x1="-9.6850061"
       y1="45.161198"
       x2="11.98815"
       y2="21.735205"
       gradientUnits="userSpaceOnUse"
       gradientTransform="matrix(1.1147442,0,0,1.1150348,-0.01237238,-3.3277956)" />
    <linearGradient
       inkscape:collect="always"
       xlink:href="#_lgradient_34"
       id="linearGradient950"
       x1="14.55423"
       y1="23.024759"
       x2="37.600647"
       y2="23.024759"
       gradientUnits="userSpaceOnUse"
       gradientTransform="matrix(0.92079576,0,0,0.92079576,2.0945757,1.3697624)" />
  </defs>
  <sodipodi:namedview
     id="namedview11"
     pagecolor="#ffffff"
     bordercolor="#666666"
     borderopacity="1.0"
     inkscape:pageshadow="2"
     inkscape:pageopacity="0.0"
     inkscape:pagecheckerboard="0"
     inkscape:document-units="pt"
     showgrid="false"
     inkscape:zoom="10.21875"
     inkscape:cx="31.95107"
     inkscape:cy="32"
     inkscape:window-width="1600"
     inkscape:window-height="836"
     inkscape:window-x="0"
     inkscape:window-y="0"
     inkscape:window-maximized="1"
     inkscape:current-layer="svg9" />
  <linearGradient
     id="_lgradient_34"
     x1="0"
     y1="0.5"
     x2="1"
     y2="0.5"
     gradientTransform="matrix(23.046255,0,0,26.418878,14.554233,9.8153386)"
     gradientUnits="userSpaceOnUse">
    <stop
       offset="0%"
       stop-opacity="1"
       style="stop-color:rgb(88,0,226)"
       id="stop2" />
    <stop
       offset="100%"
       stop-opacity="1"
       style="stop-color:rgb(255,0,230)"
       id="stop4" />
  </linearGradient>
  <rect
     x="-46.783188"
     y="1.2253767"
     height="45.80014"
     rx="6.1837621"
     shape-rendering="crispEdges"
     id="rect5-6-7-3"
     ry="6.8055277"
     transform="matrix(0.00524063,-0.99998627,0.99998801,0.00489691,0,0)"
     style="isolation:isolate;fill:#ce00ff;fill-opacity:0.13470298;stroke:url(#linearGradient872);stroke-width:2.0301;stroke-miterlimit:4;stroke-dasharray:none;stroke-opacity:1"
     width="45.801998" />
  <rect
     x="-15.686804"
     y="17.260084"
     height="33.345856"
     rx="6.7920032"
     shape-rendering="crispEdges"
     id="rect5-6-6-6-6"
     style="isolation:isolate;fill:#ce00ff;fill-opacity:0.13470298;stroke:url(#linearGradient15);stroke-width:1.67233;stroke-miterlimit:4;stroke-dasharray:none;stroke-opacity:1"
     ry="7.4743071"
     transform="matrix(0.72446484,-0.68931175,0.68622417,0.72739012,0,0)"
     width="33.338203" />
  <path
     style="color:#000000;fill:url(#linearGradient950);fill-rule:evenodd;-inkscape-stroke:none"
     d="m 28.619141,9.9160156 c -0.392046,0.03545 -0.770971,0.2203614 -1.041016,0.5429684 -0.541665,0.646948 -0.451096,1.624553 0.195312,2.166016 l 0.832032,0.695313 c -0.424488,0.49575 -0.875301,0.973698 -1.398438,1.36914 -0.651593,0.488436 -1.361689,0.902923 -2.109375,1.222656 h -0.002 c -0.840447,0.363034 -1.724011,0.633156 -2.625,0.81836 -1.0391,0.211855 -2.098821,0.338517 -3.164062,0.378906 h -0.002 -0.002 c -0.339879,0.01545 -0.663466,0.144449 -0.923828,0.365234 -0.266698,0.221815 -0.447334,0.527461 -0.515625,0.861328 l -1.283203,6.257813 c -0.168542,0.825174 0.371723,1.644643 1.197266,1.8125 0.824931,0.168648 1.641996,-0.372053 1.810547,-1.197266 l 1.052734,-5.130859 c 0.819121,-0.07429 1.638442,-0.173319 2.443359,-0.337891 1.104764,-0.224154 2.183365,-0.560933 3.21875,-1.003906 0.979383,-0.419736 1.904359,-0.957808 2.753907,-1.597656 h 0.002 c 0.713505,-0.538582 1.322941,-1.184597 1.898437,-1.857422 l 0.488281,0.40625 c -0.921097,1.148615 -1.705656,2.407003 -2.173828,3.806641 -0.267966,0.798538 -0.466394,1.619722 -0.589843,2.457031 -0.133043,0.884081 -0.197266,1.77249 -0.197266,2.660156 v 0.002 0.002 c 0.0045,0.692228 0.05626,1.38312 0.121094,2.072266 l -6.570313,2.730469 2.175781,-2.861328 c 0.521932,-0.660807 0.40471,-1.634343 -0.257812,-2.154297 -0.66243,-0.518523 -1.633782,-0.40454 -2.152344,0.257812 l -0.0098,0.01367 -7.642578,11.142578 16.673828,-6.714844 c 0.315268,-0.12761 0.58422,-0.357375 0.755859,-0.658203 0.179052,-0.305505 0.240538,-0.652725 0.195312,-0.984375 l -0.002,-0.0039 v -0.0039 c -0.141039,-0.941936 -0.211572,-1.895018 -0.216797,-2.84375 v -0.002 c -3e-6,-6.48e-4 4e-6,-0.0013 0,-0.002 1.94e-4,-0.733317 0.05524,-1.468579 0.160157,-2.199219 v -0.0039 c 0.09885,-0.6509 0.256928,-1.300265 0.464843,-1.929688 l 0.002,-0.0039 c 0.34999,-1.03528 0.933912,-1.966611 1.611328,-2.820313 l 0.904297,0.753907 c 0.645053,0.540349 1.621717,0.452065 2.162109,-0.19336 0.541304,-0.646662 0.453375,-1.624281 -0.193359,-2.166015 l -0.002,-0.002 -6.923828,-5.77539 C 29.417481,9.9940115 29.011186,9.8805653 28.619141,9.9160156 Z m 0.478515,1.1152344 6.925781,5.775391 c 0.233155,0.195301 0.262942,0.52769 0.07031,0.757812 -0.194575,0.232394 -0.525283,0.261826 -0.753906,0.07031 l -1.71875,-1.433594 -0.38086,0.4375 h -0.002 c -0.89229,1.028308 -1.571305,2.224351 -2.005859,3.511719 v 0.002 0.002 c -0.225796,0.682764 -0.397849,1.386743 -0.50586,2.099609 l -0.002,0.002 v 0.002 c -0.111926,0.778133 -0.169922,1.563823 -0.169922,2.34961 v 0.002 c 0.0053,0.996094 0.0799,1.9977 0.228516,2.990234 l -0.002,-0.0059 c 0.01671,0.122556 -0.007,0.248329 -0.06445,0.345703 l -0.002,0.0039 -0.002,0.0039 c -0.05628,0.09977 -0.148323,0.181035 -0.265625,0.228515 l -13.601563,5.47461 5.742188,-8.373047 c 0.182808,-0.233499 0.510034,-0.272675 0.748046,-0.08789 0.237035,0.186028 0.275966,0.512403 0.08984,0.748047 l -0.002,0.0039 -4.433594,5.826172 10.671875,-4.435547 -0.04102,-0.373047 c -0.08608,-0.779829 -0.13163,-1.564541 -0.136719,-2.349609 9.3e-5,-0.839759 0.06009,-1.678711 0.185547,-2.511719 0.114638,-0.777549 0.299211,-1.541298 0.548828,-2.285156 0.475885,-1.422697 1.230095,-2.738332 2.212891,-3.875 L 32.798828,15.513672 32.408203,15.1875 30.851562,13.890625 30.5,14.339844 c -0.595508,0.748985 -1.278216,1.42126 -2.044922,2 -0.786013,0.591996 -1.640306,1.088869 -2.544922,1.476562 -0.972834,0.416212 -1.985411,0.732746 -3.023437,0.94336 h -0.002 c -0.890263,0.1821 -1.794922,0.30933 -2.699219,0.375 l -0.376953,0.02734 -1.199219,5.845703 c -0.06022,0.294837 -0.338729,0.478091 -0.632813,0.417969 -0.294503,-0.05988 -0.478196,-0.335986 -0.417968,-0.630859 l 1.285156,-6.257813 c 0.02469,-0.120712 0.08134,-0.216674 0.175781,-0.294922 l 0.002,-0.002 0.002,-0.002 c 0.08989,-0.07667 0.209452,-0.122774 0.322266,-0.128906 1.118957,-0.04243 2.232833,-0.175523 3.326172,-0.398438 0.962308,-0.197808 1.911332,-0.488222 2.820312,-0.880859 0.824032,-0.352623 1.60288,-0.806651 2.316407,-1.341797 h 0.002 v -0.002 c 0.690735,-0.522131 1.316624,-1.130179 1.851562,-1.8125 l 0.369141,-0.466797 -1.615234,-1.349609 c -0.233481,-0.195574 -0.263615,-0.526939 -0.07031,-0.757813 0.193839,-0.231568 0.522744,-0.259863 0.751953,-0.06836 z m -4.455078,10.287109 c -0.388578,0.06463 -0.751283,0.276711 -0.996094,0.619141 -0.488644,0.685321 -0.329783,1.651485 0.355469,2.140625 0.685073,0.489774 1.653295,0.329984 2.142578,-0.355469 0.489356,-0.685252 0.328385,-1.653587 -0.357422,-2.142578 -0.342464,-0.244835 -0.755953,-0.326348 -1.144531,-0.261719 z m 0.5625,1.076172 h 0.002 c 0.244807,0.174551 0.298265,0.500733 0.123047,0.746094 -0.174258,0.244124 -0.501589,0.299802 -0.746094,0.125 -0.244325,-0.174402 -0.299896,-0.502755 -0.125,-0.748047 0.174955,-0.244719 0.501447,-0.29795 0.746094,-0.123047 z"
     id="path7" />
</svg>
