<?xml version="1.0" encoding="UTF-8" standalone="no"?>
<!-- Generator: Gravit.io -->

<svg
   style="isolation:isolate"
   viewBox="0 0 48 48"
   width="48pt"
   height="48pt"
   version="1.1"
   id="svg9"
   sodipodi:docname="simplenote.svg"
   inkscape:version="1.1.2 (0a00cf5339, 2022-02-04)"
   xmlns:inkscape="http://www.inkscape.org/namespaces/inkscape"
   xmlns:sodipodi="http://sodipodi.sourceforge.net/DTD/sodipodi-0.dtd"
   xmlns:xlink="http://www.w3.org/1999/xlink"
   xmlns="http://www.w3.org/2000/svg"
   xmlns:svg="http://www.w3.org/2000/svg">
  <defs
     id="defs13">
    <linearGradient
       inkscape:collect="always"
       xlink:href="#_lgradient_8"
       id="linearGradient872"
       x1="-12.025727"
       y1="6.1170783"
       x2="-0.085100174"
       y2="6.1170783"
       gradientUnits="userSpaceOnUse"
       gradientTransform="matrix(3.8358211,0,0,3.8371386,-0.00544341,-0.00268054)" />
    <linearGradient
       id="_lgradient_21"
       x1="0"
       y1="0.5"
       x2="1"
       y2="0.5"
       gradientTransform="matrix(28.183272,0,0,28.298876,9.8766106,9.8505561)"
       gradientUnits="userSpaceOnUse">
      <stop
         offset="0%"
         stop-opacity="1"
         style="stop-color:rgb(255,224,49)"
         id="stop2-3" />
      <stop
         offset="98.69565217391305%"
         stop-opacity="1"
         style="stop-color:rgb(252,82,82)"
         id="stop4-6" />
    </linearGradient>
    <linearGradient
       inkscape:collect="always"
       xlink:href="#_lgradient_8"
       id="linearGradient15"
       x1="-9.6850061"
       y1="45.161198"
       x2="11.98815"
       y2="21.735205"
       gradientUnits="userSpaceOnUse"
       gradientTransform="matrix(1.1147442,0,0,1.1150348,-0.01237238,-3.3277956)" />
    <linearGradient
       inkscape:collect="always"
       xlink:href="#_lgradient_8"
       id="linearGradient977"
       x1="9.4709587"
       y1="24"
       x2="38.529041"
       y2="24"
       gradientUnits="userSpaceOnUse" />
  </defs>
  <sodipodi:namedview
     id="namedview11"
     pagecolor="#ffffff"
     bordercolor="#666666"
     borderopacity="1.0"
     inkscape:pageshadow="2"
     inkscape:pageopacity="0.0"
     inkscape:pagecheckerboard="0"
     inkscape:document-units="pt"
     showgrid="false"
     inkscape:zoom="3.6128737"
     inkscape:cx="31.969011"
     inkscape:cy="31.969011"
     inkscape:window-width="1056"
     inkscape:window-height="545"
     inkscape:window-x="285"
     inkscape:window-y="169"
     inkscape:window-maximized="0"
     inkscape:current-layer="svg9" />
  <linearGradient
     id="_lgradient_8"
     x1="0"
     y1="0.5"
     x2="0.9074880558539661"
     y2="0.9200778838291643"
     gradientTransform="matrix(29.058084,0,0,29.058084,9.4709591,9.4709591)"
     gradientUnits="userSpaceOnUse">
    <stop
       offset="0%"
       stop-opacity="1"
       style="stop-color:rgb(0,196,255)"
       id="stop2" />
    <stop
       offset="83.88839793817618%"
       stop-opacity="1"
       style="stop-color:rgb(0,114,255)"
       id="stop4" />
  </linearGradient>
  <rect
     x="-46.783188"
     y="1.2253767"
     height="45.80014"
     rx="6.1837621"
     shape-rendering="crispEdges"
     id="rect5-6-7-3"
     ry="6.8055277"
     transform="matrix(0.00524063,-0.99998627,0.99998801,0.00489691,0,0)"
     style="isolation:isolate;fill:#0094ff;fill-opacity:0.13470298;stroke:url(#linearGradient872);stroke-width:2.0301;stroke-miterlimit:4;stroke-dasharray:none;stroke-opacity:1"
     width="45.801998" />
  <rect
     x="-15.686804"
     y="17.260084"
     height="33.345856"
     rx="6.7920032"
     shape-rendering="crispEdges"
     id="rect5-6-6-6-6"
     style="isolation:isolate;fill:#0094ff;fill-opacity:0.13470298;stroke:url(#linearGradient15);stroke-width:1.67233;stroke-miterlimit:4;stroke-dasharray:none;stroke-opacity:1"
     ry="7.4743071"
     transform="matrix(0.72446484,-0.68931175,0.68622417,0.72739012,0,0)"
     width="33.338203" />
  <path
     style="color:#000000;fill:url(#linearGradient977);fill-rule:evenodd;-inkscape-stroke:none"
     d="m 24.017578,8.9707031 c -5.228144,0 -10.099558,2.7187189 -12.830078,7.1777339 -1.4459939,2.354286 -2.2167969,5.066064 -2.2167969,7.833985 0,3.531342 1.2395469,6.954725 3.4999999,9.666015 l 0.002,0.002 c 0.605326,0.717549 1.691151,0.815785 2.41211,0.214843 0.721348,-0.601265 0.815458,-1.691044 0.21289,-2.412109 v -0.002 c -1.746705,-2.095512 -2.705078,-4.734776 -2.705078,-7.46875 0,-2.129088 0.590931,-4.22469 1.710938,-6.046875 2.112625,-3.441723 5.874016,-5.542969 9.914062,-5.542969 2.135394,0 4.224286,0.590683 6.046875,1.710938 3.441723,2.112625 5.542969,5.874016 5.542969,9.914062 0,2.129088 -0.590931,4.22469 -1.710938,6.046875 -2.112625,3.441723 -5.874016,5.542969 -9.914062,5.542969 -1.21891,0 -2.432383,-0.191613 -3.591797,-0.574219 h -0.002 c -0.892036,-0.290825 -1.863373,0.203367 -2.154297,1.095703 -0.290824,0.892035 0.201413,1.863372 1.09375,2.154297 1.503633,0.494946 3.075839,0.746094 4.654297,0.746094 5.227629,0 10.099405,-2.717548 12.830078,-7.175781 v -0.002 c 1.446201,-2.354624 2.216797,-5.071905 2.216797,-7.833984 0,-5.227629 -2.717548,-10.099405 -7.175781,-12.830078 h -0.002 C 29.497277,9.7415061 26.785499,8.9707031 24.017578,8.9707031 Z m 0,1 c 2.583003,0 5.114715,0.7181229 7.3125,2.0683599 v 0.002 c 4.16154,2.548358 6.699219,7.094924 6.699219,11.976562 0,2.576739 -0.71833,5.115052 -2.06836,7.3125 h -0.002 c -2.548358,4.16154 -7.094924,6.699219 -11.976562,6.699219 -1.472639,0 -2.939627,-0.233765 -4.341797,-0.695313 h -0.002 c -0.377744,-0.123154 -0.57833,-0.51844 -0.455078,-0.896484 0.123153,-0.377742 0.518439,-0.576377 0.896484,-0.453125 l -0.002,-0.002 c 1.262092,0.416489 2.580625,0.625 3.904297,0.625 4.386789,0 8.471113,-2.281493 10.765625,-6.019531 1.216747,-1.979577 1.859375,-4.255939 1.859375,-6.570313 0,-4.386789 -2.281493,-8.471113 -6.019531,-10.765625 -1.979174,-1.216499 -4.250137,-1.859375 -6.570313,-1.859375 -4.386789,0 -8.471113,2.281493 -10.765625,6.019531 -1.216747,1.979577 -1.859375,4.255939 -1.859375,6.570313 0,2.968094 1.04054,5.836238 2.9375,8.111328 0.258067,0.308086 0.217708,0.748855 -0.08594,1.001953 -0.30455,0.253852 -0.751084,0.214481 -1.007813,-0.08984 -2.109266,-2.53094 -3.2656249,-5.72704 -3.2656249,-9.023437 0,-2.583003 0.7181229,-5.114715 2.0683599,-7.3125 h 0.002 c 2.548358,-4.16154 7.094925,-6.6992189 11.976562,-6.6992189 z m -0.525391,3.8828129 -0.04102,0.0078 c -1.001741,0.167588 -2.053799,0.440363 -2.742188,1.222656 -0.495394,0.561293 -0.801358,1.350104 -0.855468,2.009766 -0.09614,1.198609 0.317259,2.116589 0.941406,2.757812 0.624146,0.641224 1.420827,1.041388 2.142578,1.419922 1.50166,0.786902 3.048688,1.583412 4.572266,2.376953 0.770215,0.401439 1.4317,0.800938 1.912109,1.322266 0.921387,0.997377 1.480914,2.23804 1.367187,4.167969 l -0.07422,1.28125 0.921875,-0.892578 c 0.305102,-0.295382 0.545824,-0.664744 0.748047,-1.035157 0.531143,-0.972385 0.912718,-2.235184 1.070312,-3.632812 l 0.125,-0.03516 v -1.869141 l -0.0039,-0.03125 c -0.668794,-5.34219 -4.411262,-8.656689 -9.525391,-9.068359 l -0.02148,-0.002 z m 0.111329,1 h 0.373046 c 4.72824,0.383737 7.97965,3.244068 8.603516,8.179687 v 1.367188 c -0.0096,0.06716 -0.03795,0.146832 -0.03125,0.193359 l -0.0039,-0.111328 c -0.09872,1.273379 -0.496267,2.333495 -0.949219,3.232422 -0.19876,-1.377348 -0.646278,-2.563284 -1.439453,-3.421875 -0.61411,-0.666418 -1.383463,-1.11422 -2.183594,-1.53125 -1.526307,-0.794964 -3.074892,-1.592298 -4.572265,-2.376953 -0.725703,-0.380607 -1.423144,-0.752202 -1.888672,-1.230469 -0.465529,-0.478268 -0.738497,-1.028176 -0.66211,-1.980469 0.02882,-0.344635 0.331422,-1.112806 0.609375,-1.427734 0.409564,-0.465433 1.228345,-0.737554 2.144532,-0.892578 z m -6.041016,1.347656 -0.824219,0.697265 c -0.93526,0.791168 -1.671742,1.986541 -2.15625,3.236329 -0.367614,0.948154 -0.66675,2.009961 -0.726562,3.191406 l -0.002,0.01367 v 0.792968 l 0.002,0.01367 c 0.149671,2.757501 1.316225,4.845188 2.763672,6.419922 1.482252,1.612738 3.637543,2.713109 6.310546,3.011719 l 0.0293,0.002 h 1.308594 l 0.03906,-0.0059 c 1.154279,-0.180044 2.140948,-0.721833 2.882812,-1.503907 0.799758,-0.842776 1.822801,-2.434797 1.326172,-4.242187 -0.368579,-1.340149 -1.594432,-2.081881 -2.660156,-2.650391 h -0.002 C 24.227742,24.311588 22.680811,23.548297 21.0625,22.689453 20.243007,22.255067 19.500158,21.865392 18.988281,21.353516 v -0.002 C 18.353861,20.717669 17.784947,19.609 17.626953,18.662109 17.579702,18.379083 17.559367,17.84016 17.560547,17.28125 Z m -0.923828,2.591797 c 0.0015,0.0091 4.46e-4,0.02417 0.002,0.0332 0.197967,1.186457 0.819721,2.414153 1.640625,3.234375 0.666186,0.666184 1.501111,1.083581 2.3125,1.513672 1.63498,0.86769 3.182869,1.629572 4.791016,2.486328 1.015557,0.541748 1.929216,1.170251 2.166015,2.03125 0.359181,1.307172 -0.433671,2.601933 -1.08789,3.291015 -0.595429,0.627701 -1.363737,1.048354 -2.298829,1.197266 h -1.136718 c -2.456763,-0.277706 -4.36487,-1.26739 -5.671875,-2.689453 -1.333653,-1.450934 -2.365887,-3.291978 -2.501953,-5.798828 v -0.714844 c 0.05279,-1.042709 0.31901,-1.995933 0.662109,-2.880859 0.26253,-0.677195 0.721632,-1.147956 1.123047,-1.703125 z"
     id="path7" />
</svg>
