<?xml version="1.0" encoding="UTF-8" standalone="no"?>
<!-- Generator: Gravit.io -->

<svg
   style="isolation:isolate"
   viewBox="0 0 48 48"
   width="48pt"
   height="48pt"
   version="1.1"
   id="svg9"
   sodipodi:docname="skrooge.svg"
   inkscape:version="1.1.2 (0a00cf5339, 2022-02-04)"
   xmlns:inkscape="http://www.inkscape.org/namespaces/inkscape"
   xmlns:sodipodi="http://sodipodi.sourceforge.net/DTD/sodipodi-0.dtd"
   xmlns:xlink="http://www.w3.org/1999/xlink"
   xmlns="http://www.w3.org/2000/svg"
   xmlns:svg="http://www.w3.org/2000/svg">
  <defs
     id="defs13">
    <linearGradient
       inkscape:collect="always"
       xlink:href="#_lgradient_6"
       id="linearGradient872"
       x1="-12.025727"
       y1="6.1170783"
       x2="-0.085100174"
       y2="6.1170783"
       gradientUnits="userSpaceOnUse"
       gradientTransform="matrix(3.8358211,0,0,3.8371386,-0.00544341,-0.00268054)" />
    <linearGradient
       id="_lgradient_21"
       x1="0"
       y1="0.5"
       x2="1"
       y2="0.5"
       gradientTransform="matrix(28.183272,0,0,28.298876,9.8766106,9.8505561)"
       gradientUnits="userSpaceOnUse">
      <stop
         offset="0%"
         stop-opacity="1"
         style="stop-color:rgb(255,224,49)"
         id="stop2-3" />
      <stop
         offset="98.69565217391305%"
         stop-opacity="1"
         style="stop-color:rgb(252,82,82)"
         id="stop4-6" />
    </linearGradient>
    <linearGradient
       inkscape:collect="always"
       xlink:href="#_lgradient_6"
       id="linearGradient15"
       x1="-9.6850061"
       y1="45.161198"
       x2="11.98815"
       y2="21.735205"
       gradientUnits="userSpaceOnUse"
       gradientTransform="matrix(1.1147442,0,0,1.1150348,-0.01237238,-3.3277956)" />
    <linearGradient
       inkscape:collect="always"
       xlink:href="#_lgradient_6"
       id="linearGradient914"
       x1="9.4444389"
       y1="24"
       x2="38.555561"
       y2="24"
       gradientUnits="userSpaceOnUse" />
  </defs>
  <sodipodi:namedview
     id="namedview11"
     pagecolor="#ffffff"
     bordercolor="#666666"
     borderopacity="1.0"
     inkscape:pageshadow="2"
     inkscape:pageopacity="0.0"
     inkscape:pagecheckerboard="0"
     inkscape:document-units="pt"
     showgrid="false"
     inkscape:zoom="5.109375"
     inkscape:cx="32"
     inkscape:cy="32"
     inkscape:window-width="1056"
     inkscape:window-height="545"
     inkscape:window-x="369"
     inkscape:window-y="92"
     inkscape:window-maximized="0"
     inkscape:current-layer="svg9" />
  <linearGradient
     id="_lgradient_6"
     x1="0"
     y1="0.5"
     x2="0.9074880558539661"
     y2="0.9200778838291643"
     gradientTransform="matrix(29.111121,0,0,29.111121,9.4444394,9.4444394)"
     gradientUnits="userSpaceOnUse">
    <stop
       offset="0%"
       stop-opacity="1"
       style="stop-color:rgb(247,241,7)"
       id="stop2" />
    <stop
       offset="83.88839793817618%"
       stop-opacity="1"
       style="stop-color:rgb(255,187,36)"
       id="stop4" />
  </linearGradient>
  <rect
     x="-46.783188"
     y="1.2253767"
     height="45.80014"
     rx="6.1837621"
     shape-rendering="crispEdges"
     id="rect5-6-7-3"
     ry="6.8055277"
     transform="matrix(0.00524063,-0.99998627,0.99998801,0.00489691,0,0)"
     style="isolation:isolate;fill:#ffe200;fill-opacity:0.13470298;stroke:url(#linearGradient872);stroke-width:2.0301;stroke-miterlimit:4;stroke-dasharray:none;stroke-opacity:1"
     width="45.801998" />
  <rect
     x="-15.686804"
     y="17.260084"
     height="33.345856"
     rx="6.7920032"
     shape-rendering="crispEdges"
     id="rect5-6-6-6-6"
     style="isolation:isolate;fill:#ffe200;fill-opacity:0.13470298;stroke:url(#linearGradient15);stroke-width:1.67233;stroke-miterlimit:4;stroke-dasharray:none;stroke-opacity:1"
     ry="7.4743071"
     transform="matrix(0.72446484,-0.68931175,0.68622417,0.72739012,0,0)"
     width="33.338203" />
  <path
     style="color:#000000;fill:url(#linearGradient914);fill-rule:evenodd;-inkscape-stroke:none"
     d="M 24,8.9453125 C 15.69593,8.9453125 8.9453125,15.69593 8.9453125,24 8.9453125,32.30407 15.69593,39.054687 24,39.054687 32.30407,39.054687 39.054687,32.30407 39.054687,24 39.054687,15.69593 32.30407,8.9453125 24,8.9453125 Z m 0,1 C 31.762826,9.9453125 38.054687,16.237174 38.054687,24 38.054687,31.762826 31.762826,38.054687 24,38.054687 16.237174,38.054687 9.9453125,31.762826 9.9453125,24 9.9453125,16.237174 16.237174,9.9453125 24,9.9453125 Z m 0,0.8183595 c -3.510356,0 -6.876217,1.393795 -9.359375,3.876953 -2.483158,2.483158 -3.876953,5.849019 -3.876953,9.359375 0,3.510356 1.393795,6.876217 3.876953,9.359375 2.483158,2.483158 5.849019,3.876953 9.359375,3.876953 3.510356,0 6.876217,-1.393795 9.359375,-3.876953 2.483158,-2.483158 3.876953,-5.849019 3.876953,-9.359375 0,-3.510356 -1.393795,-6.876217 -3.876953,-9.359375 C 30.876217,12.157467 27.510356,10.763672 24,10.763672 Z m 0,1.910156 c 6.256306,0 11.326172,5.069866 11.326172,11.326172 0,6.256306 -5.069866,11.326172 -11.326172,11.326172 -6.256306,0 -11.326172,-5.069866 -11.326172,-11.326172 0,-6.256306 5.069866,-11.326172 11.326172,-11.326172 z m 0,0.81836 c -2.783045,0 -5.45614,1.108989 -7.429688,3.076171 h -0.002 v 0.002 C 14.601177,18.54386 13.492188,21.216955 13.492188,24 c 0,2.783045 1.108989,5.45614 3.076171,7.429687 v 0.002 h 0.002 c 1.973548,1.967182 4.646643,3.076171 7.429688,3.076171 2.783045,0 5.45614,-1.108989 7.429687,-3.076171 h 0.002 v -0.002 C 33.398823,29.45614 34.507812,26.783045 34.507812,24 c 0,-2.783045 -1.108989,-5.45614 -3.076171,-7.429688 v -0.002 h -0.002 C 29.45614,14.601177 26.783045,13.492188 24,13.492188 Z m 0,1 c 2.517599,0 4.937975,1.004284 6.724609,2.785156 1.779655,1.786445 2.783203,4.205975 2.783203,6.722656 0,2.516681 -1.003548,4.936211 -2.783203,6.722656 -3.91e-4,3.9e-4 -0.0016,-3.89e-4 -0.002,0 -3.89e-4,3.91e-4 3.9e-4,0.0016 0,0.002 -1.786445,1.779655 -4.205975,2.783203 -6.722656,2.783203 -2.516681,0 -4.936211,-1.003548 -6.722656,-2.783203 l -0.002,-0.002 C 15.495736,28.936211 14.492187,26.516681 14.492188,24 c 0,-2.517599 1.004284,-4.937975 2.785156,-6.724609 C 19.063789,15.495736 21.483319,14.492187 24,14.492188 Z m 1.611328,1.730468 c -3.235093,0.0043 -6.072651,2.040304 -7.212891,5.039063 h -1.544921 l -0.892578,2.677734 h 1.874999 c -2.51e-4,0.0189 -0.0018,0.03775 -0.002,0.05664 v 0.0059 0.0039 c 2.34e-4,0.01818 0.0016,0.0365 0.002,0.05469 h -0.421875 l -0.892578,2.677734 h 1.871094 c 1.141511,3.000499 3.981709,5.037196 7.21875,5.039063 2.393757,-0.0013 4.653988,-1.103827 6.126953,-2.990235 l 0.63086,-0.808593 h -3.574219 l -0.132813,0.09961 c -0.880073,0.659779 -1.94869,1.017453 -3.048828,1.019531 -1.707145,-0.0023 -3.139996,-0.97954 -4.076172,-2.359375 h 6.675782 l 0.892578,-2.677734 h -8.587891 c -4.63e-4,-0.02025 -0.0037,-0.04033 -0.0039,-0.06055 v -0.002 c -7e-6,-6.5e-4 6e-6,-0.0013 0,-0.002 1.5e-5,-0.01885 0.0037,-0.03778 0.0039,-0.05664 h 8.253906 l 0.894532,-2.677734 h -8.132813 c 0.936836,-1.38123 2.369209,-2.358443 4.078125,-2.359375 1.099654,0.0022 2.169577,0.360093 3.048828,1.019531 l 0.132813,0.09961 h 3.570312 l -0.630859,-0.808593 c -1.471665,-1.884457 -3.727903,-2.986995 -6.119141,-2.990235 z m 0,1 h 0.002 c 1.645386,0.0027 3.116127,0.738153 4.335938,1.798828 h -0.878907 c -1.0171,-0.707828 -2.213967,-1.11667 -3.457031,-1.11914 h -0.002 c -2.421973,0.0013 -4.616686,1.437771 -5.585937,3.658203 l -0.304688,0.701172 h 8.556641 l -0.226563,0.677734 h -8.460937 l -0.04492,0.451172 c -0.02043,0.202343 -0.03125,0.40527 -0.03125,0.609375 v 0.002 0.002 c 0.002,0.204098 0.01467,0.409347 0.03711,0.611328 l 0.05078,0.445313 h 8.117188 l -0.226563,0.677734 h -7.767578 l 0.304688,0.701172 c 0.968617,2.218509 3.161955,3.654937 5.582031,3.658203 h 0.002 c 1.244249,-0.0019 2.440942,-0.410897 3.458985,-1.11914 h 0.882812 c -1.221086,1.061708 -2.694351,1.797472 -4.341797,1.798828 -2.940103,-0.0017 -5.540409,-1.893608 -6.445312,-4.691407 l -0.111328,-0.347656 h -1.148438 l 0.226563,-0.677734 h 0.773437 l -0.04883,-0.544922 c -0.01496,-0.170011 -0.02296,-0.340195 -0.02539,-0.511719 v -0.0059 c -1.7e-5,-0.0013 1.7e-5,-0.0026 0,-0.0039 0.0013,-0.171601 0.0096,-0.343682 0.02344,-0.513672 l 0.04297,-0.541016 h -1.552735 l 0.226563,-0.677734 h 1.486328 l 0.113281,-0.347657 c 0.903535,-2.795363 3.499871,-4.686645 6.4375,-4.691406 z"
     id="path7" />
</svg>
