<?xml version="1.0" encoding="UTF-8" standalone="no"?>
<!-- Generator: Gravit.io -->

<svg
   style="isolation:isolate"
   viewBox="0 0 48 48"
   width="48pt"
   height="48pt"
   version="1.1"
   id="svg32"
   sodipodi:docname="slack.svg"
   inkscape:version="1.1.2 (0a00cf5339, 2022-02-04)"
   xmlns:inkscape="http://www.inkscape.org/namespaces/inkscape"
   xmlns:sodipodi="http://sodipodi.sourceforge.net/DTD/sodipodi-0.dtd"
   xmlns:xlink="http://www.w3.org/1999/xlink"
   xmlns="http://www.w3.org/2000/svg"
   xmlns:svg="http://www.w3.org/2000/svg">
  <defs
     id="defs36">
    <linearGradient
       inkscape:collect="always"
       xlink:href="#_lgradient_2"
       id="linearGradient872"
       x1="-12.025727"
       y1="6.1170783"
       x2="-0.085100174"
       y2="6.1170783"
       gradientUnits="userSpaceOnUse"
       gradientTransform="matrix(3.8358211,0,0,3.8371386,-0.00562311,-0.03937722)" />
    <linearGradient
       id="_lgradient_21"
       x1="0"
       y1="0.5"
       x2="1"
       y2="0.5"
       gradientTransform="matrix(28.183272,0,0,28.298876,9.8766106,9.8505561)"
       gradientUnits="userSpaceOnUse">
      <stop
         offset="0%"
         stop-opacity="1"
         style="stop-color:rgb(255,224,49)"
         id="stop2-3" />
      <stop
         offset="98.69565217391305%"
         stop-opacity="1"
         style="stop-color:rgb(252,82,82)"
         id="stop4-6" />
    </linearGradient>
    <linearGradient
       inkscape:collect="always"
       xlink:href="#_lgradient_2"
       id="linearGradient15"
       x1="-9.6850061"
       y1="45.161198"
       x2="11.98815"
       y2="21.735205"
       gradientUnits="userSpaceOnUse"
       gradientTransform="matrix(1.1147442,0,0,1.1150348,-0.03906579,-3.3530916)" />
    <linearGradient
       inkscape:collect="always"
       xlink:href="#_lgradient_1"
       id="linearGradient901"
       x1="24.691971"
       y1="16.744377"
       x2="38.025112"
       y2="16.744377"
       gradientUnits="userSpaceOnUse" />
    <linearGradient
       inkscape:collect="always"
       xlink:href="#_lgradient_3"
       id="linearGradient931"
       x1="9.9752703"
       y1="16.720928"
       x2="23.275465"
       y2="16.720928"
       gradientUnits="userSpaceOnUse" />
    <linearGradient
       inkscape:collect="always"
       xlink:href="#_lgradient_2"
       id="linearGradient961"
       x1="24.691969"
       y1="31.112322"
       x2="38.024887"
       y2="31.112322"
       gradientUnits="userSpaceOnUse" />
    <linearGradient
       inkscape:collect="always"
       xlink:href="#_lgradient_0"
       id="linearGradient991"
       x1="9.9755297"
       y1="31.207462"
       x2="23.308189"
       y2="31.207462"
       gradientUnits="userSpaceOnUse" />
  </defs>
  <sodipodi:namedview
     id="namedview34"
     pagecolor="#ffffff"
     bordercolor="#666666"
     borderopacity="1.0"
     inkscape:pageshadow="2"
     inkscape:pageopacity="0.0"
     inkscape:pagecheckerboard="0"
     inkscape:document-units="pt"
     showgrid="false"
     inkscape:zoom="10.21875"
     inkscape:cx="32.04893"
     inkscape:cy="32"
     inkscape:window-width="1600"
     inkscape:window-height="836"
     inkscape:window-x="0"
     inkscape:window-y="0"
     inkscape:window-maximized="1"
     inkscape:current-layer="svg32" />
  <linearGradient
     id="_lgradient_0"
     x1="0"
     y1="0.5"
     x2="1"
     y2="0.5"
     gradientTransform="matrix(13.332919,0,0,14.101946,9.97527,24.156489)"
     gradientUnits="userSpaceOnUse">
    <stop
       offset="0%"
       stop-opacity="1"
       style="stop-color:rgb(135,154,242)"
       id="stop2" />
    <stop
       offset="47.91666666666667%"
       stop-opacity="1"
       style="stop-color:rgb(211,32,139)"
       id="stop4" />
    <stop
       offset="97.91666666666666%"
       stop-opacity="1"
       style="stop-color:rgb(253,160,0)"
       id="stop6" />
  </linearGradient>
  <rect
     x="-46.783367"
     y="1.1886801"
     height="45.80014"
     rx="6.1837621"
     shape-rendering="crispEdges"
     id="rect5-6-7-3"
     ry="6.8055277"
     transform="matrix(0.00524063,-0.99998627,0.99998801,0.00489691,0,0)"
     style="isolation:isolate;fill:#ffd700;fill-opacity:0.13470298;stroke:url(#linearGradient872);stroke-width:2.0301;stroke-miterlimit:4;stroke-dasharray:none;stroke-opacity:1"
     width="45.801998" />
  <rect
     x="-15.713497"
     y="17.234789"
     height="33.345856"
     rx="6.7920032"
     shape-rendering="crispEdges"
     id="rect5-6-6-6-6"
     style="isolation:isolate;fill:#ffd700;fill-opacity:0.13470298;stroke:url(#linearGradient15);stroke-width:1.67233;stroke-miterlimit:4;stroke-dasharray:none;stroke-opacity:1"
     ry="7.4743071"
     transform="matrix(0.72446484,-0.68931175,0.68622417,0.72739012,0,0)"
     width="33.338203" />
  <path
     style="color:#000000;fill:url(#linearGradient991);fill-rule:evenodd;-inkscape-stroke:none"
     d="m 20.541016,23.65625 c -1.720112,0 -3.044762,1.478429 -3.207032,3.28125 v -1.175781 c 0,-0.503328 -0.197503,-0.995459 -0.564453,-1.355469 -0.357071,-0.356089 -0.841087,-0.558594 -1.349609,-0.558594 h -2.162109 c -0.755681,0 -1.492954,0.229507 -2.113282,0.654297 l -0.002,0.002 c -0.619009,0.430616 -1.097207,1.037395 -1.3671874,1.746094 -0.1449392,0.376023 -0.236042,0.766194 -0.28125,1.160156 l -0.00195,0.0059 v 0.0059 c -0.032905,0.361952 -0.019775,0.739679 0.0625,1.113281 0.075585,0.368612 0.2096306,0.719247 0.390625,1.041016 l 0.00195,0.0039 0.00195,0.002 c 0.1967602,0.34105 0.4381882,0.654319 0.7128902,0.929688 6.51e-4,6.66e-4 0.0013,0.0013 0.002,0.002 6.42e-4,6.43e-4 0.0013,0.0013 0.002,0.002 0.280058,0.285916 0.596682,0.522425 0.933593,0.716797 h 0.002 l 0.002,0.002 c 0.32071,0.180399 0.669828,0.314895 1.037109,0.390625 0.0013,2.83e-4 0.0026,-2.82e-4 0.0039,0 0.368599,0.08146 0.748358,0.103062 1.126953,0.0625 h 0.002 0.002 c 0.393354,-0.04514 0.791783,-0.137077 1.173828,-0.291016 0.694752,-0.276551 1.285033,-0.760802 1.697265,-1.378906 0.388352,-0.54861 0.575114,-1.204546 0.625,-1.875 v 6.992188 c 0,1.963768 1.436463,3.623046 3.269532,3.623046 1.833067,0 3.267578,-1.659278 3.267578,-3.623046 V 27.28125 c 0,-1.963768 -1.434511,-3.625 -3.267578,-3.625 z m 0,1 c 1.221999,0 2.267578,1.141006 2.267578,2.625 v 7.853516 c 0,1.483994 -1.045579,2.623046 -2.267578,2.623046 -1.222001,0 -2.269532,-1.139052 -2.269532,-2.623046 V 27.28125 c 0,-1.483995 1.047531,-2.625 2.269532,-2.625 z m -7.283203,0.191406 h 2.162109 c 0.238578,0 0.475848,0.09889 0.644531,0.267578 l 0.002,0.002 0.002,0.002 c 0.169435,0.165751 0.265625,0.398792 0.265625,0.642578 v 2.162109 0.01367 c -0.0098,0.539605 -0.186046,1.060823 -0.503906,1.507812 l -0.0059,0.0059 -0.0039,0.0078 c -0.30047,0.453168 -0.734296,0.808373 -1.240235,1.009766 h -0.002 c -0.282446,0.11397 -0.594481,0.187863 -0.912109,0.224609 -0.274586,0.02942 -0.547266,0.01315 -0.808594,-0.04492 h -0.0039 l -0.0059,-0.002 c -0.260922,-0.05315 -0.51594,-0.149347 -0.753906,-0.283203 -0.267742,-0.15487 -0.507939,-0.33695 -0.716797,-0.550781 l -0.002,-0.002 -0.002,-0.002 C 11.159761,29.595309 10.970825,29.349228 10.818359,29.085937 10.684503,28.84797 10.586354,28.592955 10.533203,28.332031 l -0.002,-0.0039 v -0.0039 c -0.05652,-0.254356 -0.06786,-0.529058 -0.04297,-0.806641 1.2e-4,-0.0013 -1.22e-4,-0.0026 0,-0.0039 0.03697,-0.314117 0.110328,-0.620276 0.220703,-0.90625 v -0.002 c 0.19718,-0.517597 0.546853,-0.962029 1.001954,-1.279297 0.454907,-0.311513 0.993574,-0.478516 1.546875,-0.478516 z m 7.283203,0.564453 -0.01172,0.002 c -0.387208,0.0092 -0.750202,0.186762 -0.998047,0.478516 -0.328399,0.382562 -0.507812,0.869879 -0.507813,1.371094 v 0.01758 7.853516 0.01758 c 0,0.501215 0.179415,0.986578 0.507813,1.36914 0.247821,0.291728 0.610722,0.471316 0.998047,0.480469 h 0.01172 0.01172 c 0.387211,-0.0092 0.750202,-0.188713 0.998047,-0.480469 0.328396,-0.382561 0.50586,-0.867925 0.50586,-1.36914 v -0.01758 -7.853516 -0.01758 c 0,-0.499737 -0.178782,-0.988129 -0.513672,-1.371094 -0.247753,-0.290881 -0.606056,-0.469215 -0.990235,-0.478516 z m -7.283203,0.1875 c -0.816074,0 -1.549166,0.508675 -1.845704,1.265625 l -0.002,0.0078 -0.0039,0.0078 c -0.08174,0.231573 -0.138254,0.467972 -0.166016,0.710938 l 0.002,-0.002 c -0.0236,0.196716 -0.01665,0.395506 0.02344,0.58789 v 0.002 l 0.002,0.002 c 0.04148,0.19083 0.114173,0.36599 0.205078,0.52539 2.94e-4,5.15e-4 -2.94e-4,0.0014 0,0.002 0.113834,0.205071 0.257976,0.399276 0.435547,0.570313 0.168681,0.168017 0.355577,0.312634 0.558594,0.43164 l 0.0098,0.0059 0.01172,0.0059 c 0.15057,0.07887 0.31834,0.14979 0.509766,0.191406 h 0.0039 0.002 c 0.192521,0.04011 0.388335,0.04874 0.582032,0.02539 0.243809,-0.02247 0.485166,-0.07986 0.71875,-0.171875 h 0.002 l 0.002,-0.002 c 0.37103,-0.14999 0.678199,-0.414847 0.894531,-0.742188 0.228169,-0.31665 0.369088,-0.697411 0.376953,-1.101562 v -0.0059 -2.316407 h -0.5 z m 7.283203,0.81836 c 0.08868,0.0058 0.177634,0.04459 0.242187,0.121093 l 0.0039,0.0039 0.0039,0.0039 c 0.176603,0.200686 0.265625,0.447277 0.265625,0.716797 v 0.01758 7.853516 0.01758 c 0,0.269521 -0.09031,0.517162 -0.263672,0.71875 l -0.002,0.002 -0.002,0.002 c -0.06459,0.07655 -0.151523,0.1152 -0.248046,0.121094 -0.09646,-0.0059 -0.185372,-0.0445 -0.25,-0.121094 v -0.002 l -0.002,-0.002 c -0.173365,-0.201588 -0.265625,-0.449229 -0.265625,-0.71875 v -0.01758 -7.853516 -0.01758 c 0,-0.269521 0.09226,-0.519116 0.265625,-0.720703 l 0.002,-0.002 v -0.002 c 0.0646,-0.07657 0.153442,-0.115219 0.25,-0.121093 z m -7.283203,0.18164 h 1.322265 v 1.302735 c -0.0036,0.186753 -0.07223,0.382766 -0.189453,0.542968 l -0.0078,0.01172 -0.0078,0.01172 c -0.110569,0.169802 -0.267523,0.300801 -0.441406,0.371094 -0.14705,0.05729 -0.29707,0.09239 -0.445313,0.105468 h -0.0098 l -0.0098,0.002 c -0.08428,0.01054 -0.176323,0.0061 -0.261719,-0.01172 -0.07235,-0.01616 -0.154583,-0.04905 -0.242187,-0.09375 -0.1307,-0.0775 -0.245097,-0.165019 -0.353516,-0.273438 l -0.0039,-0.0039 -0.0039,-0.002 c -0.0993,-0.09517 -0.186039,-0.21366 -0.257813,-0.34375 l -0.002,-0.002 -0.002,-0.0039 c -0.04893,-0.08563 -0.08084,-0.166777 -0.09766,-0.244141 -0.01766,-0.08662 -0.02105,-0.165713 -0.0098,-0.259766 v -0.002 -0.002 c 0.01844,-0.161425 0.0556,-0.317665 0.111328,-0.478516 0.148289,-0.37519 0.51368,-0.626953 0.91211,-0.626953 z"
     id="path9" />
  <linearGradient
     id="_lgradient_1"
     x1="0.031182562838213412"
     y1="0.10866627890091946"
     x2="0.9583795358695032"
     y2="0.9751947012019755"
     gradientTransform="matrix(13.332919,0,0,13.440442,24.69197,10.024156)"
     gradientUnits="userSpaceOnUse">
    <stop
       offset="0%"
       stop-opacity="1"
       style="stop-color:rgb(165,248,106)"
       id="stop11" />
    <stop
       offset="97.91666666666666%"
       stop-opacity="1"
       style="stop-color:rgb(47,206,146)"
       id="stop13" />
  </linearGradient>
  <path
     style="color:#000000;fill:url(#linearGradient901);fill-rule:evenodd;-inkscape-stroke:none"
     d="m 27.460937,9.5234375 c -1.824524,0 -3.269531,1.6158555 -3.269531,3.5390625 v 7.257812 c 0,1.923207 1.445007,3.53711 3.269531,3.53711 1.719312,0 3.055421,-1.448012 3.208985,-3.222656 v 1.410156 c 0,0.504202 0.198898,0.99382 0.5625,1.357422 0.357245,0.357245 0.842152,0.5625 1.351562,0.5625 h 2.16211 0.02539 0.0059 c 0.740208,-0.02019 1.457597,-0.265182 2.0625,-0.69336 0.618086,-0.412219 1.104074,-1.000866 1.380859,-1.689453 l 0.002,-0.0039 v -0.0039 c 0.142336,-0.37525 0.241033,-0.772959 0.28125,-1.175782 0.04098,-0.375633 0.02092,-0.754786 -0.05273,-1.123046 v -0.002 c -0.07541,-0.370193 -0.21283,-0.721896 -0.394531,-1.044921 v -0.002 l -0.002,-0.002 c -0.199066,-0.345049 -0.442766,-0.653132 -0.71289,-0.929687 l -0.002,-0.002 -0.002,-0.002 C 37.063876,17.017 36.750414,16.775083 36.40625,16.582031 36.079506,16.39143 35.725661,16.253144 35.355469,16.177734 34.992347,16.103766 34.614907,16.084862 34.236328,16.125 h -0.0039 c -0.403628,0.04007 -0.801343,0.137483 -1.173828,0.28125 l -0.0039,0.002 -0.0039,0.002 c -0.688191,0.280622 -1.280235,0.75977 -1.693359,1.384766 -0.392506,0.549194 -0.581292,1.209937 -0.628906,1.884765 V 13.0625 c 0,-1.923207 -1.443055,-3.5390625 -3.267579,-3.5390625 z m 0,1.0000005 c 1.230544,0 2.267579,1.109174 2.267579,2.539062 v 7.257812 c 0,1.429888 -1.037035,2.53711 -2.267579,2.53711 -1.230544,0 -2.269531,-1.107222 -2.269531,-2.53711 V 13.0625 c 0,-1.429888 1.038987,-2.539062 2.269531,-2.539062 z m -0.01367,0.753906 c -0.389711,0.0091 -0.753494,0.183915 -1.007813,0.472656 -0.323353,0.357342 -0.496094,0.820351 -0.496094,1.294922 v 0.01758 7.257812 0.01172 c 0,0.474571 0.172741,0.93758 0.496094,1.294922 0.254288,0.288702 0.613899,0.460735 0.996094,0.478516 l 0.02344,0.002 0.02344,-0.002 c 0.382205,-0.01778 0.74376,-0.189814 0.998047,-0.478516 0.323352,-0.357341 0.496093,-0.820351 0.496093,-1.294922 v -0.01172 -7.257812 -0.01758 c 0,-0.474571 -0.172741,-0.93758 -0.496093,-1.294922 -0.254295,-0.288715 -0.619939,-0.463658 -1.009766,-0.472656 h -0.01172 z m 0.01172,1.005859 c 0.105641,0.006 0.203633,0.04718 0.273438,0.126953 l 0.002,0.0039 0.0039,0.0039 c 0.153026,0.167955 0.238281,0.390708 0.238281,0.626953 v 0.01758 7.257812 0.01172 c 0,0.236245 -0.08526,0.458998 -0.238281,0.626953 l -0.0039,0.0039 -0.002,0.0039 c -0.067,0.07658 -0.166356,0.117254 -0.273438,0.128906 C 27.35196,21.08402 27.25447,21.043334 27.1875,20.966797 l -0.0039,-0.0039 -0.0039,-0.0039 c -0.153026,-0.167955 -0.236328,-0.390708 -0.236328,-0.626953 v -0.01172 -7.257812 -0.01758 c 0,-0.236245 0.0833,-0.458998 0.236328,-0.626953 l 0.0039,-0.0039 0.0039,-0.0039 c 0.06976,-0.07973 0.165775,-0.120887 0.271484,-0.126953 z m 6.875,4.835938 h 0.002 0.002 c 0.274586,-0.02942 0.549675,-0.01527 0.816406,0.03906 0.260923,0.05315 0.513799,0.150465 0.748047,0.287109 l 0.0039,0.002 0.0059,0.002 c 0.260183,0.145102 0.504183,0.33426 0.71875,0.548828 0.21775,0.223496 0.404493,0.463333 0.554688,0.722656 0.13339,0.237508 0.232126,0.493575 0.285156,0.753906 0.05458,0.273896 0.06814,0.547923 0.03906,0.814453 v 0.0039 0.002 c -0.03003,0.305374 -0.106284,0.617624 -0.21875,0.916015 -0.201344,0.499358 -0.557378,0.934423 -1.009766,1.234375 l -0.0059,0.0059 -0.0078,0.0039 C 35.822013,22.771925 35.292667,22.950044 34.75,22.964844 h -0.0039 -2.16211 c -0.238578,0 -0.475847,-0.100848 -0.644531,-0.269532 -0.174015,-0.174015 -0.269531,-0.406605 -0.269531,-0.65039 v -2.15625 -0.01563 c 0.0098,-0.539661 0.186971,-1.065885 0.501953,-1.503906 l 0.0059,-0.0098 0.0059,-0.0078 c 0.298724,-0.455431 0.730346,-0.804838 1.240234,-1.013671 0.291392,-0.112068 0.603562,-0.188594 0.910156,-0.21875 z m 0.08789,0.746093 -0.0059,0.002 c -0.242963,0.02777 -0.481381,0.08262 -0.708985,0.167969 l -0.01172,0.0039 -0.0098,0.0039 c -0.362793,0.154381 -0.664694,0.416632 -0.88086,0.742187 -0.237259,0.319693 -0.373203,0.704351 -0.380859,1.105469 v 0.0039 2.316406 h 0.5 1.820313 0.0098 c 0.387178,-0.01518 0.764269,-0.149727 1.082031,-0.382812 0.339466,-0.214505 0.600958,-0.526284 0.751954,-0.888672 l 0.002,-0.0078 0.0039,-0.0078 c 0.08464,-0.225703 0.139974,-0.464235 0.167969,-0.705078 0.02559,-0.20465 0.0068,-0.397283 -0.0293,-0.574219 -0.0361,-0.206726 -0.111476,-0.389899 -0.201172,-0.546875 -0.118306,-0.207034 -0.265004,-0.394817 -0.423828,-0.560547 l -0.0078,-0.0078 -0.0078,-0.0078 C 35.92585,18.362451 35.741699,18.221491 35.537109,18.101562 l -0.002,-0.002 -0.002,-0.002 c -0.168922,-0.09652 -0.351814,-0.160605 -0.535156,-0.199219 -0.19416,-0.04214 -0.385614,-0.04844 -0.56836,-0.0332 z m 0.09766,0.996094 c 0.09577,-0.0074 0.194526,-0.0022 0.267578,0.01367 h 0.002 0.002 c 0.09348,0.01947 0.166797,0.04856 0.240234,0.08984 0.131056,0.07682 0.247379,0.167204 0.359375,0.273437 0.10672,0.112595 0.204488,0.238225 0.271484,0.355469 0.04893,0.08563 0.07637,0.155461 0.08789,0.224609 l 0.002,0.0098 0.002,0.0098 c 0.02108,0.101156 0.02468,0.185438 0.01563,0.257812 v 0.002 0.002 c -0.01835,0.160583 -0.05545,0.31471 -0.107422,0.457032 -0.07973,0.189928 -0.201546,0.335102 -0.365234,0.435546 l -0.01953,0.01367 -0.01953,0.01367 c -0.156864,0.118605 -0.343266,0.183575 -0.542968,0.191406 h -1.291016 v -1.300781 c 0.0038,-0.200899 0.06692,-0.382165 0.185547,-0.539062 l 0.0098,-0.01367 0.0098,-0.01367 c 0.109535,-0.168214 0.2666,-0.299686 0.445313,-0.376953 0.138832,-0.05053 0.289059,-0.08685 0.445312,-0.105469 z"
     id="path16" />
  <linearGradient
     id="_lgradient_2"
     x1="0"
     y1="0.5"
     x2="1.0000000000000002"
     y2="0.5"
     gradientTransform="matrix(13.332919,0,0,13.911442,24.69197,24.156489)"
     gradientUnits="userSpaceOnUse">
    <stop
       offset="0%"
       stop-opacity="1"
       style="stop-color:rgb(247,242,6)"
       id="stop18" />
    <stop
       offset="98.26086956521739%"
       stop-opacity="1"
       style="stop-color:rgb(255,187,36)"
       id="stop20" />
  </linearGradient>
  <path
     style="color:#000000;fill:url(#linearGradient961);fill-rule:evenodd;-inkscape-stroke:none"
     d="m 27.730469,23.65625 c -1.923207,0 -3.539063,1.443053 -3.539063,3.267578 0,1.824524 1.615856,3.269531 3.539063,3.269531 h 7.257812 c 1.923208,0 3.53711,-1.445007 3.53711,-3.269531 0,-1.824524 -1.613902,-3.267578 -3.53711,-3.267578 z m 0,1 h 7.257812 c 1.429889,0 2.53711,1.037034 2.53711,2.267578 0,1.230543 -1.107221,2.269531 -2.53711,2.269531 h -7.257812 c -1.429888,0 -2.539063,-1.038988 -2.539063,-2.269531 0,-1.230544 1.109175,-2.267578 2.539063,-2.267578 z m -0.01367,0.751953 c -0.47457,0 -0.93758,0.17274 -1.294922,0.496094 -0.287867,0.254226 -0.460763,0.614504 -0.478516,0.996094 l -0.002,0.02344 0.002,0.01758 v 0.0059 c 0.01775,0.381595 0.19065,0.741868 0.478516,0.996093 0.357342,0.323354 0.82035,0.498047 1.294922,0.498047 h 0.01172 7.257812 0.01758 c 0.474572,0 0.937581,-0.174693 1.294922,-0.498047 0.287893,-0.254246 0.463673,-0.618605 0.472656,-1.007812 v -0.01172 -0.01172 c -0.009,-0.389096 -0.184735,-0.753541 -0.472656,-1.007812 -0.357342,-0.323354 -0.820352,-0.496094 -1.294922,-0.496094 h -0.01758 -7.257812 z m 0,1 h 0.01172 7.257812 0.01758 c 0.236246,0 0.458998,0.0833 0.626953,0.236328 l 0.0039,0.0039 0.0039,0.0039 c 0.07973,0.06976 0.120888,0.165777 0.126953,0.271484 -0.006,0.105642 -0.04718,0.203634 -0.126953,0.273438 l -0.0039,0.002 -0.0039,0.0039 c -0.167956,0.153026 -0.390708,0.238281 -0.626953,0.238281 h -0.01758 -7.257812 -0.01172 c -0.236245,0 -0.458998,-0.08526 -0.626953,-0.238281 l -0.0039,-0.0039 -0.0039,-0.002 c -0.07658,-0.067 -0.117254,-0.166355 -0.128906,-0.273438 0.01168,-0.107022 0.05237,-0.204512 0.128906,-0.271484 l 0.0039,-0.0039 0.0039,-0.0039 c 0.167955,-0.153026 0.390707,-0.236328 0.626953,-0.236328 z m -1.605469,4.298828 c -0.513168,0 -0.995573,0.208433 -1.353516,0.558594 l -0.0039,0.0039 -0.0039,0.0039 c -0.350158,0.357941 -0.558594,0.840345 -0.558594,1.353516 v 2.15625 0.03125 0.0059 c 0.02018,0.739993 0.263577,1.457892 0.69336,2.058594 0.413078,0.624446 1.003967,1.102162 1.685546,1.382813 l 0.0059,0.002 0.0078,0.0039 c 0.380082,0.144169 0.771458,0.234084 1.171875,0.279297 h 0.002 c 0.375635,0.04098 0.754788,0.02092 1.123047,-0.05273 l 0.0059,-0.002 h 0.0039 c 0.357722,-0.07949 0.710993,-0.209122 1.039062,-0.404296 h 0.002 c 0.336164,-0.194587 0.649213,-0.429174 0.929687,-0.703125 l 0.0039,-0.0039 0.0039,-0.0039 c 0.273951,-0.280474 0.508538,-0.593523 0.703125,-0.929687 v -0.002 c 0.195172,-0.328066 0.324806,-0.681332 0.404296,-1.039062 v -0.0059 l 0.002,-0.0039 c 0.07365,-0.368259 0.09371,-0.747412 0.05273,-1.123047 v -0.002 C 31.986041,33.877524 31.894942,33.485401 31.75,33.109375 v -0.002 c -0.268756,-0.70461 -0.741634,-1.311882 -1.363281,-1.738281 -0.625635,-0.430544 -1.36346,-0.66211 -2.119141,-0.66211 z m 0,1 h 2.15625 c 0.5533,0 1.091446,0.16693 1.552734,0.484375 v 0.002 c 0.452009,0.309528 0.797595,0.750423 0.996094,1.271485 v 0.002 0.002 c 0.111777,0.289603 0.186125,0.597674 0.222656,0.916016 l -0.002,-0.002 c 0.02894,0.265257 0.01487,0.537949 -0.03906,0.810547 -0.06065,0.271104 -0.154338,0.5226 -0.285156,0.742188 v 0.0039 l -0.002,0.002 c -0.154422,0.267666 -0.339101,0.513031 -0.552734,0.732422 -0.219389,0.21363 -0.462806,0.398314 -0.730469,0.552734 h -0.0039 l -0.0039,0.002 c -0.219585,0.130816 -0.471076,0.224499 -0.742188,0.285156 -0.271943,0.05381 -0.543933,0.06772 -0.808593,0.03906 -0.320032,-0.03614 -0.625688,-0.106324 -0.919922,-0.216797 -0.505615,-0.208518 -0.937092,-0.559412 -1.236328,-1.015625 l -0.0059,-0.0078 -0.0078,-0.0098 c -0.314983,-0.438022 -0.493013,-0.967098 -0.507813,-1.509765 v -0.0098 -2.15625 c 0,-0.244365 0.09861,-0.469469 0.271485,-0.648437 0.178968,-0.172879 0.404072,-0.271485 0.648437,-0.271485 z m -0.166016,0.753906 v 0.5 1.820313 0.0098 c 0.01518,0.38719 0.149282,0.766954 0.384766,1.08789 0.212625,0.331038 0.514606,0.595811 0.876953,0.75 l 0.01367,0.0059 0.01172,0.0039 c 0.229431,0.08343 0.467973,0.140207 0.710937,0.167969 h 0.0078 0.0059 c 0.181482,0.01513 0.372068,0.0088 0.564453,-0.03125 h 0.002 l 0.0039,-0.002 c 0.173652,-0.03775 0.354698,-0.09794 0.53125,-0.203125 0.197116,-0.115551 0.388944,-0.258363 0.560547,-0.435546 0.176111,-0.170565 0.318436,-0.360758 0.433593,-0.556641 l 0.002,-0.002 c 0.105822,-0.177091 0.165253,-0.360954 0.203125,-0.535156 l 0.002,-0.002 v -0.002 c 0.03997,-0.192173 0.04639,-0.382853 0.03125,-0.564453 v -0.0059 -0.0078 c -0.02741,-0.246707 -0.08388,-0.487744 -0.175782,-0.722656 -0.289252,-0.76613 -1.027721,-1.275391 -1.847656,-1.275391 z m 1,1 h 1.322266 c 0.407236,0 0.768933,0.24968 0.912109,0.628907 l 0.002,0.0039 v 0.002 c 0.05748,0.145917 0.09386,0.29711 0.113281,0.464844 0.0077,0.09588 0.0038,0.183639 -0.01367,0.269531 -0.0204,0.09384 -0.05238,0.178447 -0.08594,0.234375 l -0.002,0.002 v 0.002 c -0.08129,0.138667 -0.172178,0.258348 -0.271484,0.353516 l -0.0078,0.0078 -0.0078,0.0078 c -0.09517,0.0993 -0.214841,0.190191 -0.353516,0.271484 h -0.002 l -0.002,0.002 c -0.05594,0.03356 -0.140547,0.06554 -0.234375,0.08594 -0.08507,0.01734 -0.172401,0.02112 -0.267578,0.01367 -0.155839,-0.01854 -0.306032,-0.05548 -0.453125,-0.107422 -0.177513,-0.07741 -0.332427,-0.206071 -0.433594,-0.367188 l -0.01172,-0.01758 -0.01172,-0.01758 C 27.020472,35.147036 26.953154,34.95191 26.945312,34.751953 Z"
     id="path23" />
  <linearGradient
     id="_lgradient_3"
     x1="0.0484539054073202"
     y1="0.978586981367024"
     x2="0.9123854598403957"
     y2="0.09467854761536354"
     gradientTransform="matrix(13.300194,0,0,13.487192,9.97527,9.9774066)"
     gradientUnits="userSpaceOnUse">
    <stop
       offset="0%"
       stop-opacity="1"
       style="stop-color:rgb(59,228,234)"
       id="stop25" />
    <stop
       offset="98.26086956521739%"
       stop-opacity="1"
       style="stop-color:rgb(26,147,237)"
       id="stop27" />
  </linearGradient>
  <path
     style="color:#000000;fill:url(#linearGradient931);fill-rule:evenodd;-inkscape-stroke:none"
     d="m 20.214844,9.4980469 c -0.375637,-0.040979 -0.754788,-0.020917 -1.123047,0.052734 l -0.0039,0.00195 h -0.0059 c -0.358306,0.079624 -0.71175,0.2091325 -1.042969,0.4023437 -0.337585,0.1950119 -0.653186,0.4305299 -0.93164,0.7089849 l -0.002,0.002 -0.002,0.002 c -0.26958,0.275998 -0.510438,0.587047 -0.703125,0.929687 -4.33e-4,7.27e-4 -0.0015,0.0012 -0.002,0.002 -0.192348,0.323439 -0.327103,0.679465 -0.402343,1.048829 h -0.002 c -0.07327,0.366342 -0.09286,0.74348 -0.05274,1.117187 0.03935,0.400082 0.130046,0.795301 0.275391,1.171875 0.270083,0.708069 0.749692,1.31471 1.371094,1.740234 0.604051,0.41914 1.321711,0.630647 2.054687,0.642578 H 13.378906 13.375 c -0.96816,-0.0051 -1.912933,0.301952 -2.660156,0.888672 -0.766,0.596082 -1.2261983,1.484616 -1.2402346,2.425782 v 0.0078 0.0078 c 0.014006,0.945439 0.4755534,1.830725 1.2402346,2.425781 0.747223,0.58672 1.691995,0.893755 2.660156,0.888672 h 6.5 c 0.969014,0.0051 1.914576,-0.302896 2.662109,-0.890625 0.763342,-0.595041 1.224286,-1.479315 1.238282,-2.423828 v -0.0078 -0.0078 c -0.01402,-0.940248 -0.473626,-1.827759 -1.238282,-2.423829 -0.733707,-0.576859 -1.663058,-0.866734 -2.613281,-0.873046 h 1.9375 c 0.509415,0 0.996272,-0.203302 1.353516,-0.560547 0.36104,-0.36104 0.560547,-0.851332 0.560547,-1.359375 v -2.15625 -0.02734 -0.0059 C 23.761905,12.486791 23.518264,11.770019 23.089844,11.169922 22.676655,10.54377 22.08554,10.064177 21.396484,9.7832031 l -0.0059,-0.00195 -0.0039,-0.00195 C 21.008312,9.6332451 20.612721,9.543257 20.21875,9.4980469 h -0.002 z m -0.111328,0.9941411 c 0.316252,0.03629 0.630206,0.109256 0.916015,0.21875 0.51052,0.208765 0.943181,0.557809 1.242188,1.013671 l 0.0059,0.0078 0.0059,0.0098 c 0.314983,0.438022 0.492142,0.9662 0.501954,1.505859 v 0.01367 2.15625 c 0,0.251633 -0.091,0.475767 -0.267579,0.652343 -0.168683,0.168685 -0.407905,0.267579 -0.646484,0.267579 h -2.162109 c -0.5533,0 -1.089185,-0.166746 -1.542969,-0.482422 l -0.002,-0.002 h -0.002 c -0.453403,-0.310483 -0.80444,-0.754966 -1.001953,-1.273438 v -0.002 c -0.111777,-0.289603 -0.184072,-0.597311 -0.214844,-0.910156 v -0.002 -0.002 c -0.02907,-0.266534 -0.01552,-0.54251 0.03906,-0.816407 v -0.002 c 0.05323,-0.260279 0.151255,-0.511563 0.285157,-0.736328 l 0.0039,-0.0059 0.002,-0.0059 c 0.144235,-0.258628 0.33244,-0.504393 0.548828,-0.726562 l 0.002,-0.002 c 6.51e-4,-6.68e-4 0.0013,-0.0013 0.002,-0.002 0.210889,-0.210166 0.455011,-0.392465 0.722657,-0.546875 v -0.002 h 0.002 c 0.228539,-0.133314 0.480811,-0.226454 0.751953,-0.287109 0.271296,-0.05368 0.544525,-0.06745 0.808594,-0.03906 z m -0.08789,0.746093 c -0.182627,-0.01522 -0.373972,-0.0091 -0.568359,0.0332 -0.183348,0.03861 -0.364292,0.104657 -0.533204,0.201172 h -0.0039 l -0.002,0.002 c -0.204582,0.119929 -0.392788,0.263883 -0.5625,0.433594 -0.163536,0.163536 -0.310782,0.354399 -0.429687,0.56836 -0.09697,0.163787 -0.16803,0.344628 -0.203125,0.542968 -0.03541,0.174468 -0.05367,0.364678 -0.0293,0.566407 7e-5,6.27e-4 -7e-5,0.0013 0,0.002 0.02756,0.246691 0.08369,0.489731 0.175781,0.724609 0.290348,0.763803 1.025255,1.271484 1.839844,1.271484 h 2.322265 v -0.5 -1.816406 -0.0039 c -0.0078,-0.395751 -0.142831,-0.779439 -0.380859,-1.101563 -0.215504,-0.333089 -0.522506,-0.593603 -0.880859,-0.746093 l -0.0098,-0.0039 -0.0098,-0.0039 c -0.227618,-0.08536 -0.466018,-0.140207 -0.708984,-0.167969 l -0.0078,-0.002 z m -0.08789,0.996094 c 0.158329,0.01886 0.30885,0.05775 0.449219,0.109375 0.178885,0.07862 0.337762,0.209502 0.435547,0.365234 l 0.01172,0.01953 0.01367,0.01563 c 0.116246,0.153744 0.179801,0.345678 0.183593,0.539062 v 1.300781 h -1.322265 c -0.399408,0 -0.763072,-0.249679 -0.90625,-0.628906 v -0.002 l -0.002,-0.0039 c -0.05868,-0.148952 -0.09612,-0.302615 -0.115235,-0.47461 v -0.002 -0.0039 c -0.009,-0.07231 -0.0035,-0.156464 0.01758,-0.257812 l 0.002,-0.0078 v -0.0078 c 0.01133,-0.06513 0.04218,-0.148416 0.08203,-0.214844 l 0.0059,-0.0078 0.0039,-0.0078 c 0.06752,-0.122379 0.161967,-0.245951 0.265625,-0.34961 0.110785,-0.110784 0.226979,-0.198586 0.361328,-0.277343 0.07396,-0.04178 0.146114,-0.06828 0.240235,-0.08789 l 0.002,-0.002 h 0.0039 c 0.07335,-0.01595 0.17104,-0.02132 0.267578,-0.01367 z m -6.554687,6.085937 h 0.002 6.501953 0.002 c 0.753497,-0.0046 1.482881,0.238915 2.041016,0.677735 h 0.002 c 0.538104,0.418739 0.837565,1.021574 0.849609,1.644531 -0.01206,0.629049 -0.310193,1.224771 -0.849609,1.644531 h -0.002 c -0.558125,0.438812 -1.287488,0.682333 -2.041016,0.677735 h -0.002 -6.501953 -0.002 c -0.753528,0.0046 -1.484844,-0.238923 -2.042969,-0.677735 h -0.002 c -0.539417,-0.41976 -0.837547,-1.015485 -0.849609,-1.644531 0.01204,-0.622957 0.311505,-1.225792 0.849609,-1.644531 h 0.002 c 0.558125,-0.438812 1.289441,-0.682332 2.042969,-0.677735 z m -0.0039,0.587891 c -0.560207,-0.0066 -1.099437,0.17872 -1.53125,0.513672 -0.377206,0.292646 -0.610515,0.732331 -0.626953,1.203125 l -0.002,0.01758 0.002,0.01758 c 0.01628,0.473744 0.249746,0.916338 0.626953,1.208985 0.434328,0.336901 0.974918,0.514434 1.53125,0.507812 h 0.0059 6.5 0.0059 c 0.556271,0.0066 1.098856,-0.170895 1.533203,-0.507812 0.377206,-0.292646 0.610681,-0.735235 0.626954,-1.208985 V 20.642578 20.625 c -0.01644,-0.470788 -0.249747,-0.910478 -0.626954,-1.203125 -0.431794,-0.334936 -0.972935,-0.52034 -1.533203,-0.513672 h -0.0059 -6.5 z m -0.01172,1 h 0.0039 0.01367 6.5 0.01563 0.002 c 0.330306,-0.0039 0.657458,0.110188 0.908203,0.304688 0.148446,0.115167 0.219282,0.271419 0.230469,0.429687 -0.01127,0.164852 -0.08196,0.32033 -0.230469,0.435547 -0.248191,0.192518 -0.573901,0.302776 -0.908203,0.298828 h -0.002 -0.01563 -6.5 -0.01367 -0.0039 c -0.334242,0.004 -0.658039,-0.106294 -0.90625,-0.298828 -0.149304,-0.115833 -0.221829,-0.27163 -0.232422,-0.4375 0.01162,-0.157696 0.08449,-0.312962 0.232422,-0.427734 0.250725,-0.194484 0.575884,-0.30859 0.90625,-0.304688 z"
     id="path30" />
</svg>
