<?xml version="1.0" encoding="UTF-8" standalone="no"?>
<svg
   viewBox="0 0 64 64"
   style="display:inline;enable-background:new"
   version="1.0"
   id="svg11300"
   height="64"
   width="64"
   sodipodi:docname="sm.puri.Chatty.svg"
   inkscape:version="1.1.2 (0a00cf5339, 2022-02-04)"
   xmlns:inkscape="http://www.inkscape.org/namespaces/inkscape"
   xmlns:sodipodi="http://sodipodi.sourceforge.net/DTD/sodipodi-0.dtd"
   xmlns:xlink="http://www.w3.org/1999/xlink"
   xmlns="http://www.w3.org/2000/svg"
   xmlns:svg="http://www.w3.org/2000/svg"
   xmlns:rdf="http://www.w3.org/1999/02/22-rdf-syntax-ns#"
   xmlns:cc="http://creativecommons.org/ns#"
   xmlns:dc="http://purl.org/dc/elements/1.1/">
  <sodipodi:namedview
     pagecolor="#000000"
     bordercolor="#666666"
     borderopacity="1"
     objecttolerance="10"
     gridtolerance="10"
     guidetolerance="10"
     inkscape:pageopacity="0"
     inkscape:pageshadow="2"
     inkscape:window-width="1056"
     inkscape:window-height="545"
     id="namedview25"
     showgrid="false"
     inkscape:object-paths="true"
     inkscape:zoom="5.2149125"
     inkscape:cx="31.735911"
     inkscape:cy="35.379309"
     inkscape:window-x="180"
     inkscape:window-y="130"
     inkscape:window-maximized="0"
     inkscape:current-layer="layer9"
     units="px"
     inkscape:pagecheckerboard="0" />
  <title
     id="title4162">Adwaita Icon Template</title>
  <defs
     id="defs3">
    <linearGradient
       inkscape:collect="always"
       id="linearGradient918">
      <stop
         style="stop-color:#6a676b;stop-opacity:1"
         offset="0"
         id="stop914" />
      <stop
         style="stop-color:#f5f4f6;stop-opacity:1"
         offset="1"
         id="stop916" />
    </linearGradient>
    <linearGradient
       inkscape:collect="always"
       id="linearGradient883">
      <stop
         style="stop-color:#02c56c;stop-opacity:1"
         offset="0"
         id="stop879" />
      <stop
         style="stop-color:#8ee4bd;stop-opacity:1"
         offset="1"
         id="stop881" />
    </linearGradient>
    <linearGradient
       inkscape:collect="always"
       xlink:href="#linearGradient918"
       id="linearGradient928"
       x1="7.99998"
       y1="225.09837"
       x2="91.207031"
       y2="224.28973"
       gradientUnits="userSpaceOnUse"
       gradientTransform="matrix(0.25931633,0,0,0.25890578,15.178546,206.58319)" />
    <linearGradient
       inkscape:collect="always"
       xlink:href="#linearGradient883"
       id="linearGradient872"
       x1="-12.025727"
       y1="6.1170783"
       x2="-0.085100174"
       y2="6.1170783"
       gradientUnits="userSpaceOnUse"
       gradientTransform="matrix(5.114428,0,0,5.1161846,-236.00444,1.2332162)" />
    <linearGradient
       id="_lgradient_21"
       x1="0"
       y1="0.5"
       x2="1"
       y2="0.5"
       gradientTransform="matrix(28.183272,0,0,28.298876,9.8766106,9.8505561)"
       gradientUnits="userSpaceOnUse">
      <stop
         offset="0%"
         stop-opacity="1"
         style="stop-color:rgb(255,224,49)"
         id="stop2" />
      <stop
         offset="98.69565217391305%"
         stop-opacity="1"
         style="stop-color:rgb(252,82,82)"
         id="stop4" />
    </linearGradient>
    <linearGradient
       inkscape:collect="always"
       xlink:href="#linearGradient883"
       id="linearGradient15"
       x1="-9.6850061"
       y1="45.161198"
       x2="11.98815"
       y2="21.735205"
       gradientUnits="userSpaceOnUse"
       gradientTransform="matrix(1.4863256,0,0,1.486713,-161.96687,166.53819)" />
    <linearGradient
       inkscape:collect="always"
       xlink:href="#linearGradient918"
       id="linearGradient1109"
       x1="15.912109"
       y1="35.568302"
       x2="38.921921"
       y2="35.568302"
       gradientUnits="userSpaceOnUse" />
    <linearGradient
       inkscape:collect="always"
       xlink:href="#linearGradient883"
       id="linearGradient1139"
       x1="24.208984"
       y1="265.61423"
       x2="47.638676"
       y2="265.61423"
       gradientUnits="userSpaceOnUse" />
  </defs>
  <metadata
     id="metadata4">
    <rdf:RDF>
      <cc:Work
         rdf:about="">
        <dc:format>image/svg+xml</dc:format>
        <dc:type
           rdf:resource="http://purl.org/dc/dcmitype/StillImage" />
        <dc:creator>
          <cc:Agent>
            <dc:title>GNOME Design Team</dc:title>
          </cc:Agent>
        </dc:creator>
        <dc:source />
        <cc:license
           rdf:resource="http://creativecommons.org/licenses/by-sa/4.0/" />
        <dc:title>Adwaita Icon Template</dc:title>
        <dc:subject>
          <rdf:Bag />
        </dc:subject>
        <dc:date />
        <dc:rights>
          <cc:Agent>
            <dc:title />
          </cc:Agent>
        </dc:rights>
        <dc:publisher>
          <cc:Agent>
            <dc:title />
          </cc:Agent>
        </dc:publisher>
        <dc:identifier />
        <dc:relation />
        <dc:language />
        <dc:coverage />
        <dc:description />
        <dc:contributor>
          <cc:Agent>
            <dc:title />
          </cc:Agent>
        </dc:contributor>
      </cc:Work>
      <cc:License
         rdf:about="http://creativecommons.org/licenses/by-sa/4.0/">
        <cc:permits
           rdf:resource="http://creativecommons.org/ns#Reproduction" />
        <cc:permits
           rdf:resource="http://creativecommons.org/ns#Distribution" />
        <cc:requires
           rdf:resource="http://creativecommons.org/ns#Notice" />
        <cc:requires
           rdf:resource="http://creativecommons.org/ns#Attribution" />
        <cc:permits
           rdf:resource="http://creativecommons.org/ns#DerivativeWorks" />
        <cc:requires
           rdf:resource="http://creativecommons.org/ns#ShareAlike" />
      </cc:License>
    </rdf:RDF>
  </metadata>
  <g
     transform="translate(0,-236)"
     style="display:inline"
     id="layer1">
    <g
       style="display:inline"
       id="layer9">
      <rect
         x="-298.37476"
         y="2.8706257"
         height="61.066853"
         rx="8.2450161"
         shape-rendering="crispEdges"
         id="rect5-6-7-3"
         ry="9.0740366"
         transform="matrix(0.00524063,-0.99998627,0.99998801,0.00489691,0,0)"
         style="isolation:isolate;fill:#00ff7c;fill-opacity:0.134703;stroke:url(#linearGradient872);stroke-width:2.7068;stroke-miterlimit:4;stroke-dasharray:none;stroke-opacity:1"
         width="61.069328" />
      <rect
         x="-182.8661"
         y="193.98869"
         height="44.46114"
         rx="9.0560036"
         shape-rendering="crispEdges"
         id="rect5-6-6-6-6"
         style="isolation:isolate;fill:#00ff7c;fill-opacity:0.134703;stroke:url(#linearGradient15);stroke-width:2.22977;stroke-miterlimit:4;stroke-dasharray:none;stroke-opacity:1"
         ry="9.9657421"
         transform="matrix(0.72446484,-0.68931175,0.68622417,0.72739012,0,0)"
         width="44.450935" />
      <path
         style="color:#000000;fill:url(#linearGradient1109);stroke-linecap:round;stroke-linejoin:round;-inkscape-stroke:none"
         d="m 21.402344,22.59375 c -3.316104,0 -5.990235,2.772078 -5.990235,6.099609 v 10.644532 c 0,3.327531 2.674345,6.097656 5.990235,6.097656 1.01035,1.49e-4 1.840474,-0.829494 1.841797,-1.839844 1.48e-4,-1.01137 -0.830427,-1.841945 -1.841797,-1.841797 -1.290631,0 -2.308594,-1.010263 -2.308594,-2.416015 V 28.693359 c 0,-1.405763 1.017961,-2.416015 2.308594,-2.416015 h 2.80664 a 0.50005,0.50005 0 0 0 0.5,-0.5 V 23.09375 a 0.50005,0.50005 0 0 0 -0.5,-0.5 z m 0,1 h 2.30664 v 1.683594 h -2.30664 c -1.828775,0 -3.308594,1.507782 -3.308594,3.416015 v 10.644532 c 0,1.908224 1.479817,3.416015 3.308594,3.416015 0.470826,-6.9e-5 0.841866,0.37097 0.841797,0.841797 -6.16e-4,0.470321 -0.371476,0.839913 -0.841797,0.839844 -2.759003,0 -4.990235,-2.304434 -4.990235,-5.097656 V 28.693359 c 0,-2.793222 2.231447,-5.099609 4.990235,-5.099609 z M 36.537109,38.773437 A 0.50005,0.50005 0 0 0 36.1875,39.136719 c -0.0093,0.03816 -0.01662,0.07656 -0.02344,0.115234 a 0.50005,0.50005 0 0 0 -0.0078,0.08594 c 0,1.406015 -1.017091,2.416569 -2.306641,2.416015 L 27.400391,41.75 c -0.435552,-5.73e-4 -0.856613,0.152662 -1.189454,0.433594 l -3.68164,3.109375 a 0.50005,0.50005 0 0 0 0,0.002 c -0.772063,0.652884 -0.869619,1.821634 -0.216797,2.59375 0.652339,0.771575 1.821405,0.872476 2.59375,0.220703 l 3.167969,-2.675781 5.773437,0.002 h 0.002 c 2.50102,8.23e-4 4.637694,-1.574342 5.535157,-3.775391 a 0.50005,0.50005 0 0 0 -0.111329,-0.544922 l -2.248046,-2.216797 a 0.50005,0.50005 0 0 0 -0.488282,-0.125 z m 0.619141,0.564454 -0.0039,0.03516 -0.0039,0.002 c 1.43e-4,-0.01323 0.0078,-0.02384 0.0078,-0.03711 z m -0.177734,0.917968 1.287109,1.269532 c -0.813298,1.687799 -2.446994,2.910804 -4.416016,2.910156 h -0.002 l -5.957031,-0.002 a 0.50005,0.50005 0 0 0 -0.322266,0.117187 l -3.30664,2.792969 c -0.359771,0.303606 -0.881974,0.260189 -1.185547,-0.09961 a 0.50005,0.50005 0 0 0 -0.002,0 c -0.303409,-0.358853 -0.258189,-0.881397 0.09961,-1.185547 l 3.681641,-3.109375 C 27.007711,42.82072 27.201168,42.749738 27.400391,42.75 l 6.449218,0.0039 c 1.514843,6.51e-4 2.736251,-1.057818 3.128907,-2.498047 z"
         id="rect1811"
         transform="translate(0,236)" />
      <path
         style="color:#000000;fill:url(#linearGradient1139);stroke-linecap:round;stroke-linejoin:round;-inkscape-stroke:none"
         d="m 29.701172,252.38086 c -3.315888,0 -5.992188,2.76991 -5.992188,6.09766 v 10.64453 c 0,3.32773 2.676085,6.09961 5.992188,6.09961 h 6.228515 l 3.138672,3.09375 c 0.720321,0.71088 1.895483,0.70362 2.605469,-0.0176 0.709138,-0.72002 0.701866,-1.8938 -0.01758,-2.60352 l -3.677734,-3.625 c -0.344183,-0.33965 -0.809414,-0.53087 -1.292969,-0.53125 h -6.984375 c -1.290638,0 -2.308594,-1.01027 -2.308594,-2.41601 v -10.64453 c 0,-1.40576 1.017956,-2.41602 2.308594,-2.41602 h 12.445312 c 1.290644,0 2.308594,1.01026 2.308594,2.41602 v 10.64453 c 0,1.40574 -1.01795,2.41601 -2.308594,2.41601 -1.010351,0.001 -1.839995,0.83145 -1.839843,1.8418 -1.52e-4,1.01035 0.829492,1.84047 1.839843,1.8418 3.316106,0 5.992188,-2.77188 5.992188,-6.09961 v -10.64453 c 0,-3.32775 -2.676297,-6.09766 -5.992188,-6.09766 z m 0,1 h 12.445312 c 2.759004,0 4.992188,2.30465 4.992188,5.09766 v 10.64453 c 0,2.793 -2.2334,5.09961 -4.992188,5.09961 -0.470321,-6.2e-4 -0.839914,-0.37148 -0.839843,-0.8418 -7.1e-5,-0.47032 0.369522,-0.84118 0.839843,-0.8418 1.828788,0 3.308594,-1.5078 3.308594,-3.41601 v -10.64453 c 0,-1.90823 -1.479806,-3.41602 -3.308594,-3.41602 H 29.701172 c -1.828783,0 -3.308594,1.50779 -3.308594,3.41602 v 10.64453 c 0,1.90821 1.479811,3.41601 3.308594,3.41601 h 6.984375 c 0.221268,1.7e-4 0.432351,0.0868 0.589844,0.24219 l 3.677734,3.625 c 0.334909,0.33038 0.339877,0.85428 0.0098,1.18945 -0.330537,0.33576 -0.856059,0.34072 -1.191407,0.01 l -3.285156,-3.23828 a 0.50005,0.50005 0 0 0 -0.351562,-0.14453 h -6.433594 c -2.758785,0 -4.992188,-2.30661 -4.992188,-5.09961 v -10.64453 c 0,-2.79301 2.233188,-5.09766 4.992188,-5.09766 z"
         id="rect1819" />
      <g
         id="g1827"
         transform="matrix(0.25931633,0,0,-0.25890578,22.439406,317.91268)"
         style="fill:#000000;fill-opacity:1" />
      <path
         style="color:#000000;fill:url(#linearGradient928);stroke-linecap:round;stroke-linejoin:bevel;-inkscape-stroke:none"
         d="m 33.849609,259.41797 c -0.842667,0 -1.537114,0.69254 -1.537109,1.53515 3e-6,0.84262 0.694448,1.53516 1.537109,1.53516 0.842661,0 1.537107,-0.69254 1.53711,-1.53516 5e-6,-0.84261 -0.694443,-1.53515 -1.53711,-1.53515 z m 4.148438,0 c -0.84265,0 -1.537104,0.69256 -1.53711,1.53515 -3e-6,0.84261 0.694454,1.53516 1.53711,1.53516 0.842655,0 1.537112,-0.69255 1.537109,-1.53516 -5e-6,-0.84259 -0.694459,-1.53515 -1.537109,-1.53515 z m -4.148438,1 c 0.303081,0 0.537112,0.23384 0.53711,0.53515 -10e-7,0.30132 -0.234031,0.53516 -0.53711,0.53516 -0.303078,0 -0.537108,-0.23384 -0.537109,-0.53516 -2e-6,-0.30131 0.234029,-0.53515 0.537109,-0.53515 z m 4.148438,0 c 0.303068,0 0.537107,0.23385 0.537109,0.53515 10e-7,0.30131 -0.234039,0.53516 -0.537109,0.53516 -0.30307,0 -0.537111,-0.23385 -0.53711,-0.53516 2e-6,-0.3013 0.234042,-0.53515 0.53711,-0.53515 z m -5.185547,2.625 a 0.5,0.5 0 0 0 -0.5,0.5 c -10e-7,1.28809 0.689903,2.47932 1.806641,3.12305 1.116737,0.64372 2.492638,0.64372 3.609375,0 1.116737,-0.64373 1.806641,-1.83496 1.80664,-3.12305 a 0.5,0.5 0 0 0 -0.5,-0.5 0.5,0.5 0 0 0 -0.5,0.5 c 10e-7,0.93186 -0.49584,1.79156 -1.304687,2.25781 -0.808847,0.46625 -1.804434,0.46625 -2.613282,0 -0.808847,-0.46625 -1.304688,-1.32595 -1.304687,-2.25781 a 0.5,0.5 0 0 0 -0.5,-0.5 z"
         id="path1829" />
    </g>
  </g>
</svg>
