<?xml version="1.0" encoding="UTF-8" standalone="no"?>
<!-- Generator: Gravit.io -->

<svg
   style="isolation:isolate"
   viewBox="0 0 48 48"
   width="48pt"
   height="48pt"
   version="1.1"
   id="svg20"
   sodipodi:docname="smplayer.svg"
   inkscape:version="1.1.2 (0a00cf5339, 2022-02-04)"
   xmlns:inkscape="http://www.inkscape.org/namespaces/inkscape"
   xmlns:sodipodi="http://sodipodi.sourceforge.net/DTD/sodipodi-0.dtd"
   xmlns:xlink="http://www.w3.org/1999/xlink"
   xmlns="http://www.w3.org/2000/svg"
   xmlns:svg="http://www.w3.org/2000/svg">
  <defs
     id="defs24">
    <linearGradient
       inkscape:collect="always"
       xlink:href="#_lgradient_2"
       id="linearGradient872"
       x1="-12.025727"
       y1="6.1170783"
       x2="-0.085100174"
       y2="6.1170783"
       gradientUnits="userSpaceOnUse"
       gradientTransform="matrix(3.8358211,0,0,3.8371386,-0.00544341,-0.00268054)" />
    <linearGradient
       id="_lgradient_21"
       x1="0"
       y1="0.5"
       x2="1"
       y2="0.5"
       gradientTransform="matrix(28.183272,0,0,28.298876,9.8766106,9.8505561)"
       gradientUnits="userSpaceOnUse">
      <stop
         offset="0%"
         stop-opacity="1"
         style="stop-color:rgb(255,224,49)"
         id="stop2-3" />
      <stop
         offset="98.69565217391305%"
         stop-opacity="1"
         style="stop-color:rgb(252,82,82)"
         id="stop4-6" />
    </linearGradient>
    <linearGradient
       inkscape:collect="always"
       xlink:href="#_lgradient_2"
       id="linearGradient15"
       x1="-9.6850061"
       y1="45.161198"
       x2="11.98815"
       y2="21.735205"
       gradientUnits="userSpaceOnUse"
       gradientTransform="matrix(1.1147442,0,0,1.1150348,-0.01237238,-3.3277956)" />
    <linearGradient
       inkscape:collect="always"
       xlink:href="#_lgradient_2"
       id="linearGradient925"
       x1="11.594505"
       y1="17.3748"
       x2="36.405499"
       y2="17.3748"
       gradientUnits="userSpaceOnUse"
       gradientTransform="scale(1.3333333)" />
    <linearGradient
       inkscape:collect="always"
       xlink:href="#_lgradient_3"
       id="linearGradient984"
       x1="11.594502"
       y1="29.002626"
       x2="36.405499"
       y2="29.002626"
       gradientUnits="userSpaceOnUse" />
  </defs>
  <sodipodi:namedview
     id="namedview22"
     pagecolor="#ffffff"
     bordercolor="#666666"
     borderopacity="1.0"
     inkscape:pageshadow="2"
     inkscape:pageopacity="0.0"
     inkscape:pagecheckerboard="0"
     inkscape:document-units="pt"
     showgrid="false"
     inkscape:zoom="3.6128737"
     inkscape:cx="31.969011"
     inkscape:cy="31.969011"
     inkscape:window-width="1056"
     inkscape:window-height="545"
     inkscape:window-x="286"
     inkscape:window-y="92"
     inkscape:window-maximized="0"
     inkscape:current-layer="svg20" />
  <linearGradient
     id="_lgradient_2"
     x1="0"
     y1="0.5"
     x2="1"
     y2="0.5"
     gradientTransform="matrix(24.810995,0,0,15.511524,11.594502,9.6190364)"
     gradientUnits="userSpaceOnUse">
    <stop
       offset="0%"
       stop-opacity="1"
       style="stop-color:rgb(135,154,242)"
       id="stop2" />
    <stop
       offset="47.91666666666667%"
       stop-opacity="1"
       style="stop-color:rgb(211,32,139)"
       id="stop4" />
    <stop
       offset="97.91666666666666%"
       stop-opacity="1"
       style="stop-color:rgb(253,160,0)"
       id="stop6" />
  </linearGradient>
  <rect
     x="-46.783188"
     y="1.2253767"
     height="45.80014"
     rx="6.1837621"
     shape-rendering="crispEdges"
     id="rect5-6-7-3"
     ry="6.8055277"
     transform="matrix(0.00524063,-0.99998627,0.99998801,0.00489691,0,0)"
     style="isolation:isolate;fill:#ff6900;fill-opacity:0.13470298;stroke:url(#linearGradient872);stroke-width:2.0301;stroke-miterlimit:4;stroke-dasharray:none;stroke-opacity:1"
     width="45.801998" />
  <rect
     x="-15.686804"
     y="17.260084"
     height="33.345856"
     rx="6.7920032"
     shape-rendering="crispEdges"
     id="rect5-6-6-6-6"
     style="isolation:isolate;fill:#ff6900;fill-opacity:0.13470298;stroke:url(#linearGradient15);stroke-width:1.67233;stroke-miterlimit:4;stroke-dasharray:none;stroke-opacity:1"
     ry="7.4743071"
     transform="matrix(0.72446484,-0.68931175,0.68622417,0.72739012,0,0)"
     width="33.338203" />
  <path
     id="path9"
     style="color:#000000;fill:url(#linearGradient925);fill-rule:evenodd;stroke-width:1.33333;-inkscape-stroke:none"
     d="M 32 12.158203 C 27.439929 12.158203 23.060362 13.970886 19.833984 17.197266 C 16.607604 20.423646 14.791016 24.807116 14.791016 29.367188 C 14.791016 30.049988 14.835529 30.721567 14.914062 31.392578 L 15.148438 33.429688 L 15.458984 33.392578 L 15.458984 31.433594 L 16.261719 31.433594 L 16.240234 31.240234 C 16.167128 30.615561 16.125 29.993854 16.125 29.367188 C 16.125 25.160714 17.799031 21.116986 20.775391 18.140625 C 23.751756 15.164201 27.793528 13.492188 32 13.492188 C 36.206472 13.492188 40.248247 15.164264 43.224609 18.140625 C 46.200969 21.116986 47.875 25.160714 47.875 29.367188 C 47.875 30.060334 47.824913 30.748445 47.736328 31.433594 L 48.541016 31.433594 L 48.541016 33.900391 L 48.724609 33.927734 L 49.021484 31.900391 C 49.143004 31.064047 49.208984 30.220941 49.208984 29.367188 C 49.208984 24.807116 47.392396 20.423646 44.166016 17.197266 C 40.939549 13.970952 36.560071 12.158203 32 12.158203 z M 32 14.916016 C 28.170335 14.916016 24.492548 16.439092 21.783203 19.148438 C 19.073856 21.857784 17.548828 25.537522 17.548828 29.367188 C 17.548828 29.939785 17.585711 30.507806 17.650391 31.068359 L 17.650391 31.070312 L 17.691406 31.433594 L 19.035156 31.433594 L 18.974609 30.916016 C 18.915236 30.40143 18.882812 29.883519 18.882812 29.367188 C 18.882812 25.891401 20.266956 22.551404 22.726562 20.091797 C 24.513569 18.30479 26.825426 17.328054 29.255859 16.794922 C 28.861351 17.027866 28.446135 17.227693 28.117188 17.556641 C 27.089597 18.584233 26.507813 19.980732 26.507812 21.439453 C 26.507812 22.898176 27.089596 24.294675 28.117188 25.322266 C 28.751818 25.956898 29.54679 26.349176 30.390625 26.611328 C 29.980273 26.884793 29.738946 27.202655 29.498047 27.634766 C 29.224292 26.964395 28.823504 26.348893 28.302734 25.828125 C 27.275142 24.800534 25.878645 24.21875 24.419922 24.21875 C 22.961201 24.21875 21.5647 24.800533 20.537109 25.828125 C 19.509517 26.855716 18.927734 28.252216 18.927734 29.710938 C 18.927734 30.300014 19.02414 30.880512 19.207031 31.433594 L 20.632812 31.433594 C 20.3883 30.897136 20.259765 30.309265 20.259766 29.710938 C 20.259766 28.60586 20.700421 27.549579 21.478516 26.771484 C 22.25661 25.99339 23.314845 25.552734 24.419922 25.552734 C 25.525001 25.552734 26.581279 25.993388 27.359375 26.771484 C 27.595208 27.007318 27.557702 27.381469 27.728516 27.662109 L 26.117188 26.740234 C 25.60427 26.446038 25.019707 26.287109 24.419922 26.287109 C 23.513277 26.287109 22.64065 26.64646 21.998047 27.289062 C 21.355444 27.931665 20.994141 28.804292 20.994141 29.710938 C 20.994141 30.314807 21.156281 30.908709 21.460938 31.433594 L 23.935547 31.433594 C 23.790958 31.120895 23.708984 30.773759 23.708984 30.404297 C 23.708984 29.147421 24.649067 28.119225 25.861328 27.978516 L 27.767578 27.757812 C 28.125822 28.38175 28.576172 28.976908 28.576172 29.710938 C 28.576172 29.817791 28.570453 29.930011 28.564453 30.048828 L 28.564453 30.083984 L 28.568359 30.117188 C 28.573959 30.222774 28.576172 30.319374 28.576172 30.404297 C 28.576172 30.77395 28.493465 31.121493 28.347656 31.433594 L 29.681641 31.433594 C 29.714356 31.309752 29.744183 31.184093 29.767578 31.056641 C 29.89144 31.193032 30.027258 31.318719 30.169922 31.433594 L 33.720703 31.433594 C 33.971483 31.217357 34.194572 30.961708 34.388672 30.681641 C 34.451066 30.92925 34.466557 31.187693 34.525391 31.433594 L 35.958984 31.433594 L 35.828125 31.154297 L 35.826172 31.154297 C 35.559731 30.597733 35.423828 29.985658 35.423828 29.367188 C 35.423828 28.262109 35.86252 27.205801 36.640625 26.427734 C 37.418721 25.64964 38.474999 25.208984 39.580078 25.208984 C 40.685155 25.208984 41.74339 25.64964 42.521484 26.427734 C 42.95162 26.857872 42.989173 27.491149 43.195312 28.052734 L 41.908203 26.857422 C 41.817776 26.773249 41.674333 26.799803 41.576172 26.726562 L 41.59375 26.693359 C 41.547483 26.683626 41.504827 26.686887 41.458984 26.679688 C 40.891674 26.289119 40.27665 25.943359 39.580078 25.943359 C 38.673433 25.943359 37.800806 26.30271 37.158203 26.945312 C 36.515599 27.587917 36.158203 28.460542 36.158203 29.367188 C 36.158203 29.87174 36.268334 30.376881 36.492188 30.841797 L 36.646484 31.166016 L 36.083984 31.433594 L 38.759766 31.433594 C 38.614894 31.120895 38.53125 30.773759 38.53125 30.404297 C 38.53125 29.05138 39.615906 27.966797 40.966797 27.966797 C 41.100356 27.966797 41.217117 27.976794 41.318359 27.998047 L 43.349609 28.423828 C 43.436636 28.760636 43.740234 29.012877 43.740234 29.367188 C 43.740234 30.093072 43.548408 30.805374 43.191406 31.433594 L 44.666016 31.433594 C 44.931331 30.780494 45.072266 30.08044 45.072266 29.367188 C 45.072266 27.908465 44.490481 26.511967 43.462891 25.484375 C 42.4353 24.456784 41.038799 23.875 39.580078 23.875 C 38.204308 23.875 36.89032 24.400939 35.882812 25.322266 C 36.910404 24.294675 37.492188 22.898176 37.492188 21.439453 C 37.492188 19.980732 36.910403 18.584233 35.882812 17.556641 C 35.553864 17.227693 35.138649 17.027866 34.744141 16.794922 C 37.174574 17.328054 39.486431 18.30479 41.273438 20.091797 C 43.733044 22.551404 45.117188 25.891401 45.117188 29.367188 C 45.117188 30.01806 45.072519 30.664985 44.974609 31.304688 L 44.974609 31.306641 L 44.955078 31.433594 L 46.300781 31.433594 C 46.401994 30.74675 46.451172 30.056256 46.451172 29.367188 C 46.451172 25.537522 44.926144 21.857784 42.216797 19.148438 C 39.507398 16.439147 35.829665 14.916016 32 14.916016 z M 32 17.283203 C 33.105079 17.283203 34.161357 17.721904 34.939453 18.5 C 35.717549 19.278096 36.158203 20.334376 36.158203 21.439453 C 36.158203 22.544532 35.717548 23.602765 34.939453 24.380859 C 34.828933 24.491379 34.713837 24.596231 34.591797 24.695312 C 34.458584 24.800273 34.317822 24.894197 34.171875 24.974609 L 34.15625 24.982422 L 34.140625 24.992188 C 33.506812 25.38659 32.766407 25.599609 32 25.599609 C 31.649724 25.599609 31.401614 25.297989 31.068359 25.212891 L 30.632812 23.177734 C 30.610559 23.073588 30.599609 22.950392 30.599609 22.814453 C 30.599609 21.460701 31.682311 20.376953 33.033203 20.376953 C 33.406218 20.376953 33.751998 20.460847 34.056641 20.611328 L 36.001953 21.572266 L 34.931641 19.685547 C 34.791081 19.437555 34.618127 19.21383 34.421875 19.017578 C 33.779272 18.374974 32.906645 18.015625 32 18.015625 C 31.093355 18.015625 30.220728 18.374974 29.578125 19.017578 C 28.935521 19.660181 28.576172 20.532808 28.576172 21.439453 C 28.576172 22.137028 28.922405 22.752315 29.314453 23.320312 C 29.321786 23.366112 29.318258 23.408914 29.328125 23.455078 L 29.361328 23.4375 C 29.434715 23.535607 29.407841 23.681131 29.492188 23.771484 L 30.693359 25.056641 C 30.128718 24.850669 29.492692 24.813005 29.060547 24.380859 C 28.282452 23.602765 27.841797 22.544532 27.841797 21.439453 C 27.841797 20.334376 28.282451 19.278096 29.060547 18.5 C 29.838594 17.721901 30.894921 17.283203 32 17.283203 z M 32 19.349609 C 32.056613 19.349609 32.094349 19.407576 32.150391 19.412109 C 31.541528 19.579873 30.900331 19.692098 30.455078 20.117188 C 30.492558 20.072788 30.480111 20.002308 30.521484 19.960938 C 30.91267 19.569756 31.445556 19.349609 32 19.349609 z M 35.689453 25.498047 C 35.117438 26.073262 34.724789 26.772224 34.455078 27.523438 C 34.181883 27.076131 33.869796 26.791511 33.414062 26.53125 C 33.893536 26.396175 34.413175 26.390336 34.837891 26.126953 C 35.045741 26.01058 35.242084 25.880177 35.423828 25.736328 L 35.427734 25.734375 L 35.429688 25.732422 C 35.519461 25.659529 35.60332 25.576739 35.689453 25.498047 z M 32 27.275391 C 32.970815 27.275391 33.744141 28.050671 33.744141 29.021484 C 33.744141 29.992299 32.970815 30.767578 32 30.767578 C 31.029185 30.767578 30.255859 29.992299 30.255859 29.021484 C 30.255859 28.050671 31.029185 27.275391 32 27.275391 z M 32 27.320312 C 31.546545 27.320312 31.113314 27.503872 30.796875 27.820312 C 30.480423 28.136755 30.298828 28.568036 30.298828 29.021484 C 30.298828 29.47494 30.480438 29.908172 30.796875 30.224609 C 31.113318 30.54106 31.546552 30.720703 32 30.720703 C 32.453456 30.720703 32.886688 30.541045 33.203125 30.224609 C 33.519576 29.908167 33.701172 29.474932 33.701172 29.021484 C 33.701172 28.568028 33.519564 28.13675 33.203125 27.820312 C 32.886682 27.503862 32.453448 27.320312 32 27.320312 z M 38.273438 27.818359 C 37.831444 28.280765 37.701931 28.942553 37.539062 29.580078 C 37.531329 29.507011 37.492187 29.440704 37.492188 29.367188 C 37.492188 28.812744 37.710375 28.279859 38.101562 27.888672 C 38.146936 27.843285 38.224416 27.859053 38.273438 27.818359 z M 23.257812 28.101562 C 22.796914 28.682653 22.514218 29.395397 22.460938 30.177734 C 22.423271 30.018862 22.328125 29.874963 22.328125 29.710938 C 22.328125 29.156492 22.548265 28.62361 22.939453 28.232422 C 23.02336 28.148515 23.162018 28.169229 23.257812 28.101562 z M 32 28.654297 C 32.097907 28.654297 32.190262 28.694165 32.259766 28.763672 C 32.329272 28.833179 32.367188 28.923587 32.367188 29.021484 C 32.367188 29.119391 32.329272 29.211745 32.259766 29.28125 C 32.190259 29.350757 32.097897 29.388672 32 29.388672 C 31.902093 29.388672 31.80974 29.350757 31.740234 29.28125 C 31.670728 29.211743 31.632812 29.119382 31.632812 29.021484 C 31.632812 28.923578 31.670728 28.833176 31.740234 28.763672 C 31.809741 28.694165 31.9021 28.654297 32 28.654297 z "
     transform="scale(0.75)" />
  <linearGradient
     id="_lgradient_3"
     x1="-0.004158951340708782"
     y1="0.018069209682748173"
     x2="0.9136523181136325"
     y2="0.9145091657514312"
     gradientTransform="matrix(24.810995,0,0,10.85481,11.594502,23.575221)"
     gradientUnits="userSpaceOnUse">
    <stop
       offset="1.3043478260869565%"
       stop-opacity="1"
       style="stop-color:rgb(223,87,255)"
       id="stop11" />
    <stop
       offset="52.083333333333336%"
       stop-opacity="1"
       style="stop-color:rgb(36,30,252)"
       id="stop13" />
    <stop
       offset="97.91666666666666%"
       stop-opacity="1"
       style="stop-color:rgb(14,175,254)"
       id="stop15" />
  </linearGradient>
  <path
     style="color:#000000;fill:url(#linearGradient984);fill-rule:evenodd;-inkscape-stroke:none"
     d="m 11.09375,23.076172 v 0.5 11.353515 h 25.8125 V 23.076172 Z m 1,1 h 23.8125 v 9.853515 H 12.09375 Z M 12.644531,24.625 v 2.035156 h 0.5 1.792969 V 24.625 Z m 2.326172,0 v 2.035156 h 0.5 2.050781 V 24.625 Z m 2.585938,0 v 2.035156 h 0.5 2.048828 V 24.625 Z m 2.583984,0 v 2.035156 h 0.5 2.050781 V 24.625 Z m 2.583984,0 v 2.035156 h 0.5 2.050782 V 24.625 Z m 2.583985,0 v 2.035156 h 0.5 2.050781 V 24.625 Z m 2.585937,0 v 2.035156 h 0.5 2.048828 V 24.625 Z m 2.583985,0 v 2.035156 h 0.5 2.050781 V 24.625 Z m 2.583984,0 v 2.035156 h 0.5 1.792969 V 24.625 Z m -19.417969,1 H 13.9375 v 0.03516 h -0.292969 z m 2.326172,0 h 0.550781 v 0.03516 h -0.550781 z m 2.585938,0 h 0.548828 v 0.03516 h -0.548828 z m 2.583984,0 h 0.550781 v 0.03516 h -0.550781 z m 2.583984,0 h 0.550782 v 0.03516 h -0.550782 z m 2.583985,0 h 0.550781 v 0.03516 h -0.550781 z m 2.585937,0 h 0.548828 v 0.03516 h -0.548828 z m 2.583985,0 h 0.550781 v 0.03516 h -0.550781 z m 2.583984,0 h 0.292969 v 0.03516 H 34.0625 Z M 12.644531,26.693359 V 31.3125 h 6.169922 v -4.619141 h -0.5 z m 6.203125,0 V 31.3125 h 5.134766 v -4.619141 h -0.5 z m 5.169922,0 V 31.3125 h 5.134766 v -4.619141 h -0.5 z m 5.167969,0 v 0.5 4.119141 h 6.169922 v -4.619141 z m -15.541016,1 h 4.169922 V 30.3125 h -4.169922 z m 6.203125,0 h 3.134766 V 30.3125 h -3.134766 z m 5.169922,0 h 3.134766 V 30.3125 h -3.134766 z m 5.167969,0 h 4.169922 V 30.3125 h -4.169922 z m -17.541016,3.652344 v 0.5 1.533203 H 14.9375 v -2.033203 z m 2.326172,0 v 0.5 1.533203 h 2.550781 v -2.033203 z m 2.585938,0 v 0.5 1.533203 h 2.548828 v -2.033203 z m 2.583984,0 v 0.5 1.533203 h 2.550781 v -2.033203 z m 2.583984,0 v 0.5 1.533203 h 2.550782 v -2.033203 z m 2.583985,0 v 0.5 1.533203 h 2.550781 v -2.033203 z m 2.585937,0 v 0.5 1.533203 h 2.548828 v -2.033203 z m 2.583985,0 v 0.5 1.533203 h 2.550781 v -2.033203 z m 2.583984,0 v 0.5 1.533203 h 2.292969 v -2.033203 z m -19.417969,1 H 13.9375 v 0.0332 h -0.292969 z m 2.326172,0 h 0.550781 v 0.0332 h -0.550781 z m 2.585938,0 h 0.548828 v 0.0332 h -0.548828 z m 2.583984,0 h 0.550781 v 0.0332 h -0.550781 z m 2.583984,0 h 0.550782 v 0.0332 h -0.550782 z m 2.583985,0 h 0.550781 v 0.0332 h -0.550781 z m 2.585937,0 h 0.548828 v 0.0332 h -0.548828 z m 2.583985,0 h 0.550781 v 0.0332 h -0.550781 z m 2.583984,0 h 0.292969 v 0.0332 H 34.0625 Z"
     id="path18" />
</svg>
