<?xml version="1.0" encoding="UTF-8" standalone="no"?>
<!-- Generator: Gravit.io -->

<svg
   style="isolation:isolate"
   viewBox="0 0 48 48"
   width="48pt"
   height="48pt"
   version="1.1"
   id="svg20"
   sodipodi:docname="soulseek.svg"
   inkscape:version="1.1.2 (0a00cf5339, 2022-02-04)"
   xmlns:inkscape="http://www.inkscape.org/namespaces/inkscape"
   xmlns:sodipodi="http://sodipodi.sourceforge.net/DTD/sodipodi-0.dtd"
   xmlns:xlink="http://www.w3.org/1999/xlink"
   xmlns="http://www.w3.org/2000/svg"
   xmlns:svg="http://www.w3.org/2000/svg">
  <defs
     id="defs24">
    <linearGradient
       inkscape:collect="always"
       xlink:href="#_lgradient_18"
       id="linearGradient872"
       x1="-12.025727"
       y1="6.1170783"
       x2="-0.085100174"
       y2="6.1170783"
       gradientUnits="userSpaceOnUse"
       gradientTransform="matrix(3.8358211,0,0,3.8371386,-0.00544341,-0.00268054)" />
    <linearGradient
       id="_lgradient_21"
       x1="0"
       y1="0.5"
       x2="1"
       y2="0.5"
       gradientTransform="matrix(28.183272,0,0,28.298876,9.8766106,9.8505561)"
       gradientUnits="userSpaceOnUse">
      <stop
         offset="0%"
         stop-opacity="1"
         style="stop-color:rgb(255,224,49)"
         id="stop2-3" />
      <stop
         offset="98.69565217391305%"
         stop-opacity="1"
         style="stop-color:rgb(252,82,82)"
         id="stop4-6" />
    </linearGradient>
    <linearGradient
       inkscape:collect="always"
       xlink:href="#_lgradient_18"
       id="linearGradient15"
       x1="-9.6850061"
       y1="45.161198"
       x2="11.98815"
       y2="21.735205"
       gradientUnits="userSpaceOnUse"
       gradientTransform="matrix(1.1147442,0,0,1.1150348,-0.01237238,-3.3277956)" />
    <linearGradient
       inkscape:collect="always"
       xlink:href="#_lgradient_18"
       id="linearGradient1068"
       x1="8.8224068"
       y1="25.219023"
       x2="40.322193"
       y2="25.219023"
       gradientUnits="userSpaceOnUse" />
  </defs>
  <sodipodi:namedview
     id="namedview22"
     pagecolor="#ffffff"
     bordercolor="#666666"
     borderopacity="1.0"
     inkscape:pageshadow="2"
     inkscape:pageopacity="0.0"
     inkscape:pagecheckerboard="0"
     inkscape:document-units="pt"
     showgrid="false"
     inkscape:zoom="5.109375"
     inkscape:cx="32"
     inkscape:cy="32"
     inkscape:window-width="1056"
     inkscape:window-height="545"
     inkscape:window-x="296"
     inkscape:window-y="78"
     inkscape:window-maximized="0"
     inkscape:current-layer="svg20" />
  <linearGradient
     id="_lgradient_17"
     x1="-0.21256620467255616"
     y1="1.429075947484992"
     x2="0.8725238050266274"
     y2="0.8326260436705316"
     gradientTransform="matrix(31.5,0,0,27,8.8221939,11.719023)"
     gradientUnits="userSpaceOnUse">
    <stop
       offset="1.3043478260869565%"
       stop-opacity="1"
       style="stop-color:rgb(223,87,255)"
       id="stop2" />
    <stop
       offset="52.083333333333336%"
       stop-opacity="1"
       style="stop-color:rgb(36,30,252)"
       id="stop4" />
    <stop
       offset="97.91666666666666%"
       stop-opacity="1"
       style="stop-color:rgb(14,175,254)"
       id="stop6" />
  </linearGradient>
  <rect
     x="-46.783188"
     y="1.2253767"
     height="45.80014"
     rx="6.1837621"
     shape-rendering="crispEdges"
     id="rect5-6-7-3"
     ry="6.8055277"
     transform="matrix(0.00524063,-0.99998627,0.99998801,0.00489691,0,0)"
     style="isolation:isolate;fill:#8d00ff;fill-opacity:0.13470298;stroke:url(#linearGradient872);stroke-width:2.0301;stroke-miterlimit:4;stroke-dasharray:none;stroke-opacity:1"
     width="45.801998" />
  <rect
     x="-15.686804"
     y="17.260084"
     height="33.345856"
     rx="6.7920032"
     shape-rendering="crispEdges"
     id="rect5-6-6-6-6"
     style="isolation:isolate;fill:#8d00ff;fill-opacity:0.13470298;stroke:url(#linearGradient15);stroke-width:1.67233;stroke-miterlimit:4;stroke-dasharray:none;stroke-opacity:1"
     ry="7.4743071"
     transform="matrix(0.72446484,-0.68931175,0.68622417,0.72739012,0,0)"
     width="33.338203" />
  <path
     style="color:#000000;fill:url(#linearGradient1068);-inkscape-stroke:none"
     d="m 21.628906,11.144531 -0.27539,0.109375 c -0.18511,0.07264 -0.241175,0.167807 -0.291016,0.240235 -0.04984,0.07243 -0.0824,0.138732 -0.111328,0.208984 -0.05785,0.140505 -0.09875,0.292872 -0.123047,0.458984 -0.03901,0.2651 -0.227565,0.840277 0.09375,1.876954 0.532361,1.710221 0.963852,2.796614 1.037109,4.023437 l -0.002,-0.002 c 0.0819,1.480189 -0.973362,3.166951 -3.169922,3.277344 -3.902879,-0.360116 -5.01672,-0.766779 -8.9960934,-3.070313 l 0.013672,0.0098 C 9.5896903,18.143674 9.4116273,18.04084 9.1738281,17.998047 9.0549286,17.976651 8.9061561,17.971873 8.75,18.037109 c -0.1561561,0.06524 -0.2867098,0.207681 -0.3476562,0.339844 -0.121893,0.264325 -0.091185,0.471861 -0.054687,0.712891 0.036497,0.24103 0.106683,0.516031 0.2070312,0.851562 v 0.002 c 0.6030726,2.014985 2.4148155,4.292859 4.3945315,5.765625 1.619494,1.204938 4.463074,2.662222 6.71875,3.544922 0.491721,0.192288 0.816569,0.36587 0.976562,0.494141 0.159994,0.128271 0.148438,0.14782 0.148438,0.195312 0,0.05763 -0.04343,0.330741 -0.134766,0.65625 -0.09133,0.32551 -0.225809,0.726658 -0.388672,1.148438 -0.325725,0.84356 -0.770774,1.77997 -1.197265,2.416015 -0.165983,0.247357 -0.298721,0.43982 -0.404297,0.648438 -0.105577,0.208618 -0.177016,0.453935 -0.167969,0.705078 0.01809,0.502287 0.248937,0.911744 0.628906,1.724609 0.280887,0.600815 0.481515,1.006863 0.746094,1.328125 0.264579,0.321263 0.617264,0.524526 0.998047,0.63086 l 0.134765,-0.482422 0.0059,0.5 c 0.67768,-0.008 1.506095,-0.186547 2.261719,-0.632813 0.755623,-0.446265 1.434025,-1.189659 1.671875,-2.253906 l 0.0078,-0.03516 0.0039,-0.03516 c 0.08411,-1.080672 0.240261,-2.341907 0.414063,-3.402344 0.0869,-0.530218 0.178852,-1.012431 0.265625,-1.390625 0.08677,-0.378194 0.184969,-0.672874 0.216797,-0.736328 0.08685,-0.173389 0.162604,-0.256558 0.480468,-0.378906 0.317865,-0.122349 0.863624,-0.233199 1.703125,-0.337891 0.449634,-0.05637 1.166476,-0.263939 2.033204,-0.542969 0.866727,-0.279029 1.842514,-0.627859 2.65039,-0.957031 h 0.002 l 0.0039,-0.002 c 3.353742,-1.421502 7.159809,-4.801405 8.080078,-8.775391 l 0.115234,-0.496094 -0.496094,-0.105468 c -0.259099,-0.05572 -0.27379,-8.45e-4 -0.365234,0.02148 -0.09144,0.02233 -0.191246,0.05232 -0.302734,0.08984 -0.222977,0.07505 -0.492768,0.179245 -0.769532,0.298828 -2.476156,1.072806 -5.821743,1.937407 -7.580078,1.798828 -1.17724,-0.09245 -2.263234,-0.172373 -2.986328,-0.439453 -0.723093,-0.26708 -1.080533,-0.585306 -1.136719,-1.480469 l -0.002,-0.01172 -0.002,-0.01172 c -0.03954,-0.354104 0.0027,-0.621837 0.02148,-0.669922 0.01731,-0.0023 0.06935,-0.01297 0.210938,0.02734 0.57618,0.164287 1.267235,0.208765 1.861328,0.171875 0.297047,-0.01844 0.564741,-0.05452 0.804688,-0.132813 0.119973,-0.03915 0.234876,-0.085 0.355468,-0.179687 0.120593,-0.09469 0.265625,-0.285557 0.265625,-0.519532 0,-0.236749 -0.06336,-0.268184 -0.101562,-0.333984 -0.0382,-0.0658 -0.07988,-0.124405 -0.126953,-0.185547 -0.09415,-0.122284 -0.210518,-0.251853 -0.341797,-0.380859 v -0.002 C 29.93297,16.903325 29.572949,16.667682 29.283203,16.421875 28.993984,16.176514 28.805994,15.939333 28.761719,15.757813 v -0.002 C 28.57021,14.961877 28.188298,14.32852 27.554687,13.841797 26.920615,13.354718 26.070646,12.985922 24.853516,12.521484 h -0.002 l -0.0039,-0.002 C 23.898147,12.169712 22.785118,12.1183 21.857422,11.335938 Z m 0.19336,1.277344 c 1.035603,0.614643 2.101712,0.825831 2.673828,1.035156 7.73e-4,2.95e-4 0.0012,-2.95e-4 0.002,0 9.79e-4,3.59e-4 0.0029,0.0016 0.0039,0.002 1.189303,0.454088 1.967758,0.810437 2.443359,1.175782 0.476677,0.36617 0.689122,0.713267 0.84375,1.355468 v 0.002 c 0.129172,0.535352 0.499404,0.897917 0.847657,1.193359 0.343643,0.291531 0.691419,0.531645 0.882812,0.716797 -0.07688,0.0103 -0.11578,0.02571 -0.205078,0.03125 -0.484905,0.03011 -1.117618,-0.01905 -1.523437,-0.134766 -0.272025,-0.07745 -0.532382,-0.105757 -0.78711,-0.0332 -0.254727,0.07255 -0.471373,0.267851 -0.582031,0.476562 -0.218923,0.412911 -0.176421,0.829203 -0.128906,1.25586 0.08102,1.216959 0.836901,1.998133 1.783203,2.347656 0.949405,0.35067 2.088149,0.404545 3.253906,0.496094 2.149212,0.169385 5.469038,-0.756077 8.056641,-1.876953 0.02005,-0.0087 0.0347,-0.013 0.05469,-0.02148 -1.175247,3.123477 -4.315352,5.96666 -7.103515,7.148438 -0.774205,0.315235 -1.730146,0.656627 -2.572266,0.927734 -0.844021,0.27172 -1.615196,0.474275 -1.851563,0.503906 -0.867139,0.108203 -1.467319,0.217462 -1.9375,0.398438 -0.470634,0.181151 -0.826476,0.485671 -1.015625,0.863281 -0.125671,0.250546 -0.203085,0.552164 -0.296875,0.960938 -0.09379,0.408773 -0.187994,0.906016 -0.277343,1.451172 -0.175395,1.070156 -0.330071,2.320335 -0.417969,3.421875 -0.174528,0.770115 -0.63005,1.268168 -1.201172,1.605468 -0.548973,0.32422 -1.195537,0.455264 -1.691406,0.472657 -0.188053,-0.05976 -0.298187,-0.10637 -0.427735,-0.263672 -0.149671,-0.181737 -0.342122,-0.53105 -0.615234,-1.115235 -0.381029,-0.815132 -0.530249,-1.201678 -0.535156,-1.33789 -0.0025,-0.06811 0.0041,-0.101353 0.0625,-0.216797 0.05842,-0.115444 0.176233,-0.293326 0.34375,-0.542969 0.497507,-0.741953 0.953554,-1.719093 1.298828,-2.613281 0.172637,-0.447094 0.315427,-0.870869 0.417969,-1.236328 0.102542,-0.365459 0.171875,-0.650869 0.171875,-0.927735 0,-0.374506 -0.219432,-0.73088 -0.523438,-0.974609 -0.304006,-0.243729 -0.700051,-0.436773 -1.236328,-0.646484 -2.170319,-0.849298 -5.011825,-2.318955 -6.486328,-3.416016 -1.808281,-1.345231 -3.534277,-3.582989 -4.0332031,-5.25 -0.060925,-0.203713 -0.083722,-0.327275 -0.1152344,-0.46875 3.9218385,2.262969 5.3809675,2.791956 9.3398435,3.154297 l 0.0332,0.0039 0.03516,-0.002 c 2.725659,-0.11913 4.262125,-2.318594 4.15039,-4.337891 v -0.002 c -0.08474,-1.419174 -0.55844,-2.585944 -1.080078,-4.261718 -0.2493,-0.804331 -0.126033,-0.936514 -0.05469,-1.320313 z"
     id="path9" />
  <linearGradient
     id="_lgradient_18"
     x1="1.2865164326521583"
     y1="1.3433799792779624"
     x2="0.28379752519025203"
     y2="0.11797189642323191"
     gradientTransform="matrix(-48,0,0,46.985,48,0.508)"
     gradientUnits="userSpaceOnUse">
    <stop
       offset="1.3043478260869565%"
       stop-opacity="1"
       style="stop-color:rgb(223,87,255)"
       id="stop11" />
    <stop
       offset="52.083333333333336%"
       stop-opacity="1"
       style="stop-color:rgb(36,30,252)"
       id="stop13" />
    <stop
       offset="97.91666666666666%"
       stop-opacity="1"
       style="stop-color:rgb(14,175,254)"
       id="stop15" />
  </linearGradient>
</svg>
