<?xml version="1.0" encoding="UTF-8" standalone="no"?>
<!-- Generator: Gravit.io -->

<svg
   style="isolation:isolate"
   viewBox="0 0 48 48"
   width="48pt"
   height="48pt"
   version="1.1"
   id="svg27"
   sodipodi:docname="soundkonverter.svg"
   inkscape:version="1.1.2 (0a00cf5339, 2022-02-04)"
   xmlns:inkscape="http://www.inkscape.org/namespaces/inkscape"
   xmlns:sodipodi="http://sodipodi.sourceforge.net/DTD/sodipodi-0.dtd"
   xmlns:xlink="http://www.w3.org/1999/xlink"
   xmlns="http://www.w3.org/2000/svg"
   xmlns:svg="http://www.w3.org/2000/svg">
  <defs
     id="defs31">
    <linearGradient
       inkscape:collect="always"
       xlink:href="#_lgradient_76"
       id="linearGradient872"
       x1="-12.025727"
       y1="6.1170783"
       x2="-0.085100174"
       y2="6.1170783"
       gradientUnits="userSpaceOnUse"
       gradientTransform="matrix(3.8358211,0,0,3.8371386,-0.00544341,-0.00268054)" />
    <linearGradient
       id="_lgradient_21"
       x1="0"
       y1="0.5"
       x2="1"
       y2="0.5"
       gradientTransform="matrix(28.183272,0,0,28.298876,9.8766106,9.8505561)"
       gradientUnits="userSpaceOnUse">
      <stop
         offset="0%"
         stop-opacity="1"
         style="stop-color:rgb(255,224,49)"
         id="stop2-3" />
      <stop
         offset="98.69565217391305%"
         stop-opacity="1"
         style="stop-color:rgb(252,82,82)"
         id="stop4-6" />
    </linearGradient>
    <linearGradient
       inkscape:collect="always"
       xlink:href="#_lgradient_76"
       id="linearGradient15"
       x1="-9.6850061"
       y1="45.161198"
       x2="11.98815"
       y2="21.735205"
       gradientUnits="userSpaceOnUse"
       gradientTransform="matrix(1.1147442,0,0,1.1150348,-0.01237238,-3.3277956)" />
    <linearGradient
       inkscape:collect="always"
       xlink:href="#_lgradient_76"
       id="linearGradient914"
       x1="10.701205"
       y1="24"
       x2="37.298794"
       y2="24"
       gradientUnits="userSpaceOnUse" />
  </defs>
  <sodipodi:namedview
     id="namedview29"
     pagecolor="#ffffff"
     bordercolor="#666666"
     borderopacity="1.0"
     inkscape:pageshadow="2"
     inkscape:pageopacity="0.0"
     inkscape:pagecheckerboard="0"
     inkscape:document-units="pt"
     showgrid="false"
     inkscape:zoom="40.875"
     inkscape:cx="31.987768"
     inkscape:cy="26.12844"
     inkscape:window-width="1600"
     inkscape:window-height="836"
     inkscape:window-x="0"
     inkscape:window-y="0"
     inkscape:window-maximized="1"
     inkscape:current-layer="svg27" />
  <linearGradient
     id="_lgradient_74"
     x1="0"
     y1="0.5"
     x2="0.9074880558539661"
     y2="0.9200778838291643"
     gradientTransform="matrix(26.031685,0,0,26.031685,10.984158,10.984158)"
     gradientUnits="userSpaceOnUse">
    <stop
       offset="2.1739130434782608%"
       stop-opacity="1"
       style="stop-color:rgb(242,79,92)"
       id="stop2" />
    <stop
       offset="49.56521739130435%"
       stop-opacity="1"
       style="stop-color:rgb(208,103,207)"
       id="stop4" />
    <stop
       offset="98.26086956521739%"
       stop-opacity="1"
       style="stop-color:rgb(49,193,233)"
       id="stop6" />
  </linearGradient>
  <rect
     x="-46.783188"
     y="1.2253767"
     height="45.80014"
     rx="6.1837621"
     shape-rendering="crispEdges"
     id="rect5-6-7-3"
     ry="6.8055277"
     transform="matrix(0.00524063,-0.99998627,0.99998801,0.00489691,0,0)"
     style="isolation:isolate;fill:#ff009d;fill-opacity:0.13470298;stroke:url(#linearGradient872);stroke-width:2.0301;stroke-miterlimit:4;stroke-dasharray:none;stroke-opacity:1"
     width="45.801998" />
  <rect
     x="-15.686804"
     y="17.260084"
     height="33.345856"
     rx="6.7920032"
     shape-rendering="crispEdges"
     id="rect5-6-6-6-6"
     style="isolation:isolate;fill:#ff009d;fill-opacity:0.13470298;stroke:url(#linearGradient15);stroke-width:1.67233;stroke-miterlimit:4;stroke-dasharray:none;stroke-opacity:1"
     ry="7.4743071"
     transform="matrix(0.72446484,-0.68931175,0.68622417,0.72739012,0,0)"
     width="33.338203" />
  <path
     style="color:#000000;fill:url(#linearGradient914);fill-rule:evenodd;-inkscape-stroke:none"
     d="m 24,10.484375 c -2.238905,0 -4.405899,0.64035 -6.373047,1.699219 0.02262,-0.779219 -0.444401,-1.511384 -1.232422,-1.667969 -0.877485,-0.174362 -1.741592,0.403454 -1.916015,1.28125 l -0.53125,2.642578 c -0.17516,0.873379 0.305582,1.760904 1.132812,2.091797 l 2.65625,1.0625 c 0.829734,0.331569 1.786019,-0.07823 2.119141,-0.908203 0.258409,-0.643822 -0.02166,-1.282923 -0.50586,-1.730469 1.444108,-0.744285 3.01565,-1.207031 4.650391,-1.207031 1.738365,0 3.4417,0.436092 4.957031,1.277344 h 0.002 v 0.002 c 0.783243,0.433784 1.784763,0.146893 2.21875,-0.636719 0.433783,-0.783242 0.146892,-1.784762 -0.636718,-2.21875 v -0.002 h -0.002 C 28.535695,11.065427 26.286206,10.484375 24,10.484375 Z m 0,1 c 2.11654,0 4.200532,0.539191 6.056641,1.5625 0.308225,0.172035 0.417468,0.549939 0.246093,0.859375 -0.171532,0.309719 -0.549288,0.417829 -0.859375,0.246094 C 27.7783,13.227969 25.906067,12.748047 24,12.748047 c -2.093074,0 -4.141788,0.580877 -5.919922,1.685547 l -0.839844,0.523437 1.332032,0.53125 c 0.331077,0.133463 0.485079,0.49643 0.353515,0.824219 -0.132051,0.329005 -0.492514,0.483726 -0.818359,0.353516 l -2.65625,-1.0625 c -0.332877,-0.133151 -0.59388,-0.615557 -0.523438,-0.966797 l 0.53125,-2.642578 v -0.002 c 0.06892,-0.346825 0.395052,-0.563119 0.742188,-0.494141 0.346823,0.06892 0.563118,0.393098 0.49414,0.740234 l -0.355468,1.789063 0.982422,-0.613281 0.06641,-0.04297 v 0.002 C 19.374916,12.137766 21.665504,11.484375 24,11.484375 Z m 8.810547,3.154297 c -0.895291,0 -1.630859,0.735568 -1.63086,1.630859 10e-7,0.895291 0.735569,1.632813 1.63086,1.632813 0.895291,0 1.632812,-0.737522 1.632812,-1.632813 0,-0.895291 -0.737521,-1.630859 -1.632812,-1.630859 z m 0,1 c 0.354229,0 0.632812,0.27663 0.632812,0.630859 0,0.354228 -0.278583,0.632813 -0.632812,0.632813 -0.354228,0 -0.63086,-0.278585 -0.63086,-0.632813 0,-0.354229 0.276632,-0.630859 0.63086,-0.630859 z M 13.5625,18.085937 C 12.730219,17.755295 11.772272,18.167162 11.441406,19 c -0.634657,1.587313 -0.957031,3.285417 -0.957031,5 0,2.249249 0.557628,4.464443 1.632813,6.439453 0.425344,0.788185 1.425572,1.085513 2.21289,0.658203 C 15.1178,30.67013 15.412019,29.669867 14.982422,28.882812 14.17351,27.382746 13.748047,25.70408 13.748047,24 c 0,-1.301592 0.242002,-2.590383 0.726562,-3.791016 l 0.002,-0.002 C 14.807206,19.37475 14.39534,18.416803 13.5625,18.085937 Z m 21.005859,0.234375 c -0.838919,0.312875 -1.270459,1.259685 -0.957031,2.097657 l -0.002,-0.002 c 0.426457,1.149812 0.642578,2.358116 0.642578,3.583984 0,1.614019 -0.377807,3.20641 -1.111328,4.646484 -0.406165,0.797059 -0.08278,1.786854 0.714844,2.19336 0.797503,0.406444 1.787439,0.08724 2.191406,-0.710938 0.970186,-1.899212 1.46875,-4.002059 1.46875,-6.128906 0,-1.610192 -0.287699,-3.20725 -0.845703,-4.716797 v -0.002 c -0.312607,-0.840637 -1.261963,-1.274064 -2.101563,-0.960938 z m -21.375,0.695313 c 0.329531,0.130914 0.484652,0.492176 0.353516,0.822266 l 0.002,-0.0039 C 13.014758,21.15729 12.748047,22.573927 12.748047,24 c 0,1.871595 0.467447,3.713577 1.355469,5.359375 l 0.002,0.002 c 0.170262,0.311934 0.05736,0.688485 -0.253906,0.857422 -0.311671,0.169156 -0.685791,0.0569 -0.853516,-0.253906 h -0.002 v -0.002 C 12.000862,28.13558 11.484375,26.084738 11.484375,24 c 0,-1.589659 0.299493,-3.162797 0.886719,-4.630859 0.130914,-0.329531 0.492176,-0.484651 0.822265,-0.353516 z m 21.72461,0.240234 c 0.331825,-0.123753 0.690182,0.04082 0.814453,0.375 0.516776,1.398674 0.783203,2.878816 0.783203,4.369141 0,1.970309 -0.462073,3.919244 -1.359375,5.675781 h -0.002 c -0.158545,0.31326 -0.528373,0.435163 -0.845703,0.273438 -0.316585,-0.161346 -0.437892,-0.53555 -0.277344,-0.84961 0.805742,-1.581861 1.220703,-3.329514 1.220703,-5.099609 0,-1.343343 -0.237403,-2.670696 -0.705078,-3.931641 v -0.002 c -0.123452,-0.330057 0.0386,-0.686541 0.371094,-0.810547 z m -6.339844,11.123047 c -0.39618,0.132481 -0.741145,0.413196 -0.941406,0.8125 -0.376838,0.751386 -0.06757,1.633982 0.628906,2.076172 -1.341137,0.618982 -2.78406,0.984375 -4.265625,0.984375 -1.597378,0 -3.171956,-0.372578 -4.595703,-1.089844 h -0.002 c -0.800886,-0.402874 -1.79059,-0.07412 -2.19336,0.726563 -0.402876,0.800886 -0.07412,1.79059 0.726563,2.193359 1.88152,0.94664 3.96123,1.433594 6.064453,1.433594 1.85069,0 3.659788,-0.428931 5.349609,-1.160156 0.178401,0.540834 0.529436,1.010974 1.123047,1.128906 0.877485,0.174362 1.743547,-0.403452 1.917969,-1.28125 l 0.513672,-2.568359 c 0.173352,-0.868363 -0.26584,-1.766535 -1.058594,-2.16211 l -2.025391,-1.009765 c -0.399363,-0.199682 -0.846007,-0.216466 -1.242187,-0.08398 z m -12.902344,0.541016 c -0.89529,0 -1.632812,0.735569 -1.632812,1.630859 0,0.895292 0.737522,1.632813 1.632812,1.632813 0.895291,0 1.63086,-0.737521 1.63086,-1.632813 0,-0.89529 -0.735569,-1.630859 -1.63086,-1.630859 z m 13.697266,0.4375 2.027344,1.011719 c 0.325476,0.162408 0.594557,0.712103 0.523437,1.068359 l -0.513672,2.570312 c -0.06892,0.346824 -0.395053,0.563119 -0.742187,0.494141 -0.336975,-0.06695 -0.55047,-0.377324 -0.498047,-0.710937 l 0.148437,-0.945313 -0.861328,0.417969 C 27.758839,36.086922 25.893873,36.515625 24,36.515625 c -1.948661,0 -3.874958,-0.452549 -5.615234,-1.328125 -0.317553,-0.15974 -0.440886,-0.532267 -0.28125,-0.849609 0.15974,-0.317554 0.532266,-0.440885 0.849609,-0.28125 v -0.002 c 1.564236,0.788043 3.294092,1.197266 5.046875,1.197266 1.816832,0 3.606077,-0.436857 5.216797,-1.283203 l 0.002,-0.002 1.248047,-0.648438 -0.875,-0.439453 -0.777344,-0.390625 c -0.318276,-0.160105 -0.442969,-0.53299 -0.285156,-0.847656 0.158594,-0.316223 0.531038,-0.439559 0.84375,-0.283203 z m -13.697266,0.5625 c 0.354228,0 0.63086,0.276631 0.63086,0.630859 0,0.35423 -0.276632,0.632813 -0.63086,0.632813 -0.354228,0 -0.632812,-0.278583 -0.632812,-0.632813 0,-0.354228 0.278584,-0.630859 0.632812,-0.630859 z"
     id="path9" />
  <linearGradient
     id="_lgradient_75"
     x1="-0.46697593715805014"
     y1="0.048950684222416066"
     x2="1.200536456816469"
     y2="1.2873238795318682"
     gradientTransform="matrix(12.008529,0,0,12.008529,17.995736,17.995657)"
     gradientUnits="userSpaceOnUse">
    <stop
       offset="2.1739130434782608%"
       stop-opacity="1"
       style="stop-color:rgb(242,79,92)"
       id="stop11" />
    <stop
       offset="49.56521739130435%"
       stop-opacity="1"
       style="stop-color:rgb(208,103,207)"
       id="stop13" />
    <stop
       offset="98.26086956521739%"
       stop-opacity="1"
       style="stop-color:rgb(49,193,233)"
       id="stop15" />
  </linearGradient>
  <linearGradient
     id="_lgradient_76"
     x1="2.7992491"
     y1="14.525286"
     x2="38.761382"
     y2="40.952004"
     gradientTransform="matrix(0.56590976,0,0,0.56590265,10.418252,10.418173)"
     gradientUnits="userSpaceOnUse">
    <stop
       offset="2.1739130434782608%"
       stop-opacity="1"
       style="stop-color:rgb(242,79,92)"
       id="stop18" />
    <stop
       offset="49.56521739130435%"
       stop-opacity="1"
       style="stop-color:rgb(208,103,207)"
       id="stop20" />
    <stop
       offset="98.26086956521739%"
       stop-opacity="1"
       style="stop-color:rgb(49,193,233)"
       id="stop22" />
  </linearGradient>
  <path
     style="color:#000000;vector-effect:non-scaling-stroke;fill:url(#_lgradient_76);-inkscape-stroke:none"
     d="m 28.208984,17.535156 -5.488281,1.154297 c -0.88066,0.183784 -1.519531,0.967327 -1.519531,1.867188 v 4.597656 c -0.295558,-0.105031 -0.553098,-0.292969 -0.882813,-0.292969 -1.551224,0 -2.822265,1.268494 -2.822265,2.820313 0,1.551371 1.270894,2.822265 2.822265,2.822265 1.547222,0 2.813453,-1.262587 2.820313,-2.808594 v -0.002 -0.0039 -4.873047 l 5.427734,-1.154297 v 1.990235 c -0.295731,-0.105245 -0.554782,-0.292969 -0.884765,-0.292969 -1.551819,0 -2.820313,1.271041 -2.820313,2.822266 0,1.551671 1.268641,2.820312 2.820313,2.820312 0.303809,0 0.604928,-0.04692 0.892578,-0.142578 h 0.002 c 0.50214,-0.167773 0.779215,-0.724058 0.611328,-1.226563 -0.166906,-0.50304 -0.722103,-0.78117 -1.224609,-0.613281 -0.08986,0.02995 -0.18412,0.04492 -0.28125,0.04492 -0.491576,0 -0.882813,-0.39047 -0.882813,-0.882812 0,-0.491575 0.391237,-0.884766 0.882813,-0.884766 0.491574,0 0.884765,0.393191 0.884765,0.884766 v 0.002 c 0,0.529199 0.439551,0.970703 0.96875,0.970703 0.529199,0 0.96875,-0.441503 0.96875,-0.970703 v -6.78125 c 0,-0.422735 -0.184154,-0.756462 -0.407479,-1.106344 -0.436722,-0.684211 -1.267195,-0.891309 -1.88749,-0.760848 z m 0.357422,1.90625 v 0.238281 l -5.427734,1.154297 v -0.251953 z m -0.158203,5.158203 c 0.114566,0.05306 0.258812,0.04434 0.359375,0.119141 l 0.0957,0.07031 c -0.12639,-0.106623 -0.30394,-0.118577 -0.455078,-0.189453 z m 0.632813,0.322266 0.46289,0.34375 v 0.765625 c -0.03916,-0.421706 -0.189504,-0.813192 -0.46289,-1.109375 z m -8.011719,1.173828 c 0.119468,0.05416 0.268554,0.04518 0.373047,0.123047 l 0.09961,0.07422 c -0.131238,-0.111207 -0.314719,-0.124832 -0.472656,-0.197266 z m 0.646484,0.326172 0.462891,0.345703 v 0.763672 c -0.03925,-0.422221 -0.188897,-0.813069 -0.462891,-1.109375 z m -1.357422,0.376953 c 0.491576,0 0.882813,0.391237 0.882813,0.882813 0,0.491574 -0.391237,0.884765 -0.882813,0.884765 -0.491574,0 -0.884765,-0.393191 -0.884765,-0.884765 0,-0.491576 0.393191,-0.882813 0.884765,-0.882813 z"
     id="path25"
     sodipodi:nodetypes="scscsssccccccsssccccsssssssssscccccsccssccccsscssccccsssss" />
</svg>
