<?xml version="1.0" encoding="UTF-8" standalone="no"?>
<!-- Generator: Gravit.io -->

<svg
   style="isolation:isolate"
   viewBox="0 0 48 48"
   width="48pt"
   height="48pt"
   version="1.1"
   id="svg27"
   sodipodi:docname="spek.svg"
   inkscape:version="1.1.2 (0a00cf5339, 2022-02-04)"
   xmlns:inkscape="http://www.inkscape.org/namespaces/inkscape"
   xmlns:sodipodi="http://sodipodi.sourceforge.net/DTD/sodipodi-0.dtd"
   xmlns:xlink="http://www.w3.org/1999/xlink"
   xmlns="http://www.w3.org/2000/svg"
   xmlns:svg="http://www.w3.org/2000/svg">
  <defs
     id="defs31">
    <linearGradient
       inkscape:collect="always"
       xlink:href="#_lgradient_5"
       id="linearGradient872"
       x1="-12.025727"
       y1="6.1170783"
       x2="-0.085100174"
       y2="6.1170783"
       gradientUnits="userSpaceOnUse"
       gradientTransform="matrix(3.8358211,0,0,3.8371386,-0.00544341,-0.00268054)" />
    <linearGradient
       id="_lgradient_21"
       x1="0"
       y1="0.5"
       x2="1"
       y2="0.5"
       gradientTransform="matrix(28.183272,0,0,28.298876,9.8766106,9.8505561)"
       gradientUnits="userSpaceOnUse">
      <stop
         offset="0%"
         stop-opacity="1"
         style="stop-color:rgb(255,224,49)"
         id="stop2-3" />
      <stop
         offset="98.69565217391305%"
         stop-opacity="1"
         style="stop-color:rgb(252,82,82)"
         id="stop4-6" />
    </linearGradient>
    <linearGradient
       inkscape:collect="always"
       xlink:href="#_lgradient_5"
       id="linearGradient15"
       x1="-9.6850061"
       y1="45.161198"
       x2="11.98815"
       y2="21.735205"
       gradientUnits="userSpaceOnUse"
       gradientTransform="matrix(1.1147442,0,0,1.1150348,-0.01237238,-3.3277956)" />
    <linearGradient
       inkscape:collect="always"
       xlink:href="#_lgradient_6"
       id="linearGradient1045"
       x1="12.834705"
       y1="27.204554"
       x2="35.165295"
       y2="27.204554"
       gradientUnits="userSpaceOnUse" />
    <linearGradient
       inkscape:collect="always"
       xlink:href="#_lgradient_7"
       id="linearGradient1075"
       x1="12.755266"
       y1="13.829543"
       x2="39.311977"
       y2="31.122023"
       gradientUnits="userSpaceOnUse" />
  </defs>
  <sodipodi:namedview
     id="namedview29"
     pagecolor="#ffffff"
     bordercolor="#666666"
     borderopacity="1.0"
     inkscape:pageshadow="2"
     inkscape:pageopacity="0.0"
     inkscape:pagecheckerboard="0"
     inkscape:document-units="pt"
     showgrid="false"
     inkscape:zoom="5.109375"
     inkscape:cx="32"
     inkscape:cy="32"
     inkscape:window-width="1056"
     inkscape:window-height="545"
     inkscape:window-x="298"
     inkscape:window-y="57"
     inkscape:window-maximized="0"
     inkscape:current-layer="svg27" />
  <linearGradient
     id="_lgradient_5"
     x1="0"
     y1="0.5"
     x2="1"
     y2="0.5"
     gradientTransform="matrix(35,0,0,31,6.5,12.5)"
     gradientUnits="userSpaceOnUse">
    <stop
       offset="0%"
       stop-opacity="1"
       style="stop-color:rgb(238,205,163)"
       id="stop2" />
    <stop
       offset="98.26086956521739%"
       stop-opacity="1"
       style="stop-color:rgb(239,98,159)"
       id="stop4" />
  </linearGradient>
  <rect
     x="-46.783188"
     y="1.2253767"
     height="45.80014"
     rx="6.1837621"
     shape-rendering="crispEdges"
     id="rect5-6-7-3"
     ry="6.8055277"
     transform="matrix(0.00524063,-0.99998627,0.99998801,0.00489691,0,0)"
     style="isolation:isolate;fill:#ff00da;fill-opacity:0.13470298;stroke:url(#linearGradient872);stroke-width:2.0301;stroke-miterlimit:4;stroke-dasharray:none;stroke-opacity:1"
     width="45.801998" />
  <rect
     x="-15.686804"
     y="17.260084"
     height="33.345856"
     rx="6.7920032"
     shape-rendering="crispEdges"
     id="rect5-6-6-6-6"
     style="isolation:isolate;fill:#ff00da;fill-opacity:0.13470298;stroke:url(#linearGradient15);stroke-width:1.67233;stroke-miterlimit:4;stroke-dasharray:none;stroke-opacity:1"
     ry="7.4743071"
     transform="matrix(0.72446484,-0.68931175,0.68622417,0.72739012,0,0)"
     width="33.338203" />
  <linearGradient
     id="_lgradient_6"
     x1="0"
     y1="0.5"
     x2="1"
     y2="0.5"
     gradientTransform="matrix(14.5,0,0,12.711,16.75,26.289)"
     gradientUnits="userSpaceOnUse">
    <stop
       offset="0%"
       stop-opacity="1"
       style="stop-color:rgb(248,171,149)"
       id="stop9" />
    <stop
       offset="48.75%"
       stop-opacity="1"
       style="stop-color:rgb(241,125,173)"
       id="stop11" />
    <stop
       offset="98.33333333333333%"
       stop-opacity="1"
       style="stop-color:rgb(238,115,200)"
       id="stop13" />
  </linearGradient>
  <path
     style="color:#000000;fill:url(#linearGradient1045);-inkscape-stroke:none"
     d="m 24,16.814453 c -1.5255,0 -3.039244,0.266759 -4.472656,0.791016 -1.357211,0.498974 -2.609535,1.23814 -3.695313,2.183593 -1.065265,0.917871 -1.930132,2.037682 -2.546875,3.304688 -0.626562,1.280745 -0.951172,2.689862 -0.951172,4.111328 0,1.429702 0.33279,2.83142 0.951172,4.115234 v 0.002 c 0.616705,1.260221 1.481633,2.380977 2.546875,3.298828 1.08565,0.945343 2.337904,1.684546 3.695313,2.183593 1.4336,0.524327 2.947368,0.789063 4.472656,0.789063 1.525288,0 3.039056,-0.264736 4.472656,-0.789063 1.357409,-0.499047 2.609663,-1.23825 3.695313,-2.183593 l 0.002,-0.002 c 1.064279,-0.917513 1.928622,-2.037482 2.544922,-3.296875 v -0.002 c 0.618382,-1.283814 0.951172,-2.685532 0.951172,-4.115234 0,-1.429702 -0.33279,-2.83142 -0.951172,-4.115234 v -0.002 C 34.098589,21.828588 33.234334,20.708644 32.169922,19.791016 31.083675,18.844715 29.830713,18.104754 28.472656,17.605469 27.039244,17.081212 25.5255,16.814453 24,16.814453 Z m 0,1 c 1.409293,0 2.806165,0.246689 4.128906,0.730469 1.24436,0.457703 2.389609,1.134755 3.382813,2 h 0.002 l 0.002,0.002 c 0.963458,0.83015 1.743524,1.841726 2.300781,2.980469 0.554327,1.152267 0.84961,2.403756 0.84961,3.677734 0,1.275412 -0.296027,2.5283 -0.851563,3.681641 -0.557086,1.137062 -1.336333,2.147242 -2.298828,2.976562 h -0.002 l -0.002,0.002 c -0.993757,0.865727 -2.139987,1.542361 -3.384766,2 C 26.804939,36.348506 25.408858,36.59375 24,36.59375 c -1.408858,0 -2.804939,-0.245244 -4.126953,-0.728516 h -0.002 c -1.244163,-0.457631 -2.389481,-1.134643 -3.382813,-2 l -0.002,-0.002 h -0.002 c -0.962495,-0.82932 -1.741742,-1.8395 -2.298828,-2.976562 v -0.002 c -4.06e-4,-8.29e-4 -0.0015,-0.0011 -0.002,-0.002 -0.554327,-1.152267 -0.84961,-2.403755 -0.84961,-3.677734 0,-1.270246 0.290049,-2.528689 0.84961,-3.671875 v -0.002 c 0.557173,-1.14463 1.337212,-2.15413 2.300781,-2.984375 l 0.002,-0.002 h 0.002 c 0.993204,-0.865245 2.138453,-1.542297 3.382813,-2 C 21.193835,18.061142 22.590707,17.814453 24,17.814453 Z m 0,0.914063 c -1.302343,0 -2.591734,0.228119 -3.814453,0.675781 -1.133904,0.415989 -2.188768,1.035818 -3.103516,1.835937 -0.866928,0.745796 -1.573015,1.659954 -2.074218,2.689453 -0.499327,1.019173 -0.759766,2.139938 -0.759766,3.275391 0,1.135454 0.260439,2.256217 0.759766,3.275391 0.501027,1.029137 1.205755,1.9438 2.072265,2.689453 4.27e-4,3.73e-4 0.0015,-3.73e-4 0.002,0 0.914748,0.800119 1.969612,1.419949 3.103516,1.835937 1.22294,0.447743 2.51236,0.673828 3.814453,0.673828 1.302093,0 2.591513,-0.226085 3.814453,-0.673828 1.133904,-0.415988 2.188768,-1.035818 3.103516,-1.835937 h 0.002 c 0.86651,-0.745653 1.571238,-1.660316 2.072265,-2.689453 0.499327,-1.019174 0.759766,-2.139937 0.759766,-3.275391 0,-1.135453 -0.260439,-2.256218 -0.759766,-3.275391 -0.501027,-1.029138 -1.205755,-1.9438 -2.072265,-2.689453 -4.27e-4,-3.73e-4 -0.0015,3.73e-4 -0.002,0 C 30.003221,20.440115 28.948357,19.820286 27.814453,19.404297 26.591734,18.956635 25.302343,18.728516 24,18.728516 Z m 0,1 c 1.18585,0 2.358346,0.207978 3.470703,0.615234 1.022001,0.374936 1.970701,0.930663 2.791016,1.648437 l 0.002,0.002 0.002,0.002 c 0.764842,0.657287 1.385724,1.462377 1.828125,2.371093 v 0.002 c 0.432151,0.882061 0.658203,1.853236 0.658203,2.835937 0,0.982702 -0.226052,1.953875 -0.658203,2.835938 v 0.002 c -0.442401,0.908716 -1.063283,1.713807 -1.828125,2.371093 l -0.002,0.002 -0.002,0.002 c -0.820315,0.717774 -1.769015,1.273502 -2.791016,1.648437 -0.459406,0.168198 -0.956821,0.154653 -1.433594,0.253906 0.53983,-0.212073 1.057118,-0.485184 1.509766,-0.861328 l 0.002,-0.002 0.002,-0.002 c 0.469597,-0.398444 0.863886,-0.890965 1.138672,-1.453125 0.283339,-0.566677 0.435547,-1.197239 0.435547,-1.837891 0,-0.64065 -0.152436,-1.264459 -0.433594,-1.833984 -0.269654,-0.546404 -0.659945,-1.026409 -1.11914,-1.421875 0.768957,-0.194701 1.394531,-0.790903 1.394531,-1.617187 0,-0.974973 -0.802372,-1.775391 -1.777344,-1.775391 -0.974973,0 -1.775391,0.800418 -1.775391,1.775391 0,0.232283 0.165594,0.3936 0.248047,0.597656 C 25.125855,25.722532 24.571086,25.60684 24,25.615234 c -0.571086,-0.0084 -1.125855,0.107298 -1.662109,0.273438 0.08245,-0.204056 0.248046,-0.365373 0.248046,-0.597656 0,-0.974973 -0.800417,-1.775391 -1.77539,-1.775391 -0.974972,0 -1.777344,0.800418 -1.777344,1.775391 0,0.826284 0.625574,1.422486 1.394531,1.617187 -0.459195,0.395466 -0.849486,0.875471 -1.11914,1.421875 -0.281898,0.571026 -0.433594,1.198803 -0.433594,1.833984 0,0.640653 0.15221,1.271215 0.435547,1.837891 0.274786,0.56216 0.669075,1.054681 1.138672,1.453125 l 0.002,0.002 0.002,0.002 c 0.452648,0.376144 0.969936,0.649255 1.509766,0.861328 -0.476773,-0.09925 -0.974188,-0.08571 -1.433594,-0.253906 -1.022001,-0.374935 -1.970701,-0.930663 -2.791016,-1.648437 l -0.002,-0.002 -0.002,-0.002 C 16.969533,31.756776 16.348651,30.951685 15.90625,30.042969 v -0.002 c -0.432151,-0.882063 -0.658203,-1.853236 -0.658203,-2.835938 0,-0.982701 0.226052,-1.953876 0.658203,-2.835937 v -0.002 c 0.442401,-0.908716 1.063283,-1.713806 1.828125,-2.371093 l 0.002,-0.002 0.002,-0.002 C 18.558596,21.274413 19.507296,20.718686 20.529297,20.34375 21.641654,19.936494 22.81415,19.728516 24,19.728516 Z m -3.189453,4.787109 c 0.435005,0 0.775391,0.340388 0.77539,0.775391 0,0.435005 -0.340385,0.77539 -0.77539,0.77539 -0.435002,0 -0.777344,-0.340385 -0.777344,-0.77539 0,-0.435003 0.342342,-0.775391 0.777344,-0.775391 z m 6.378906,0 c 0.435002,0 0.777344,0.340388 0.777344,0.775391 0,0.435005 -0.342342,0.77539 -0.777344,0.77539 -0.435005,0 -0.77539,-0.340385 -0.775391,-0.77539 0,-0.435003 0.340386,-0.775391 0.775391,-0.775391 z m -3.197266,2.097656 H 24 h 0.0078 c 1.059748,-0.01719 2.083313,0.348153 2.898438,1.03125 0.370279,0.314657 0.67903,0.702153 0.888672,1.126953 0.216482,0.438515 0.330078,0.910353 0.330078,1.392578 0,0.482228 -0.115777,0.962024 -0.330078,1.390625 v 0.002 l -0.002,0.0039 c -0.209189,0.429387 -0.515494,0.81463 -0.884766,1.128906 -4.42e-4,3.67e-4 -0.0015,-3.67e-4 -0.002,0 -0.815308,0.676984 -1.839502,1.044672 -2.900391,1.033203 H 24 h -0.0059 c -1.060889,0.01147 -2.085083,-0.356219 -2.900391,-1.033203 h -0.002 C 20.722525,32.375177 20.41622,31.989934 20.207031,31.560547 l -0.002,-0.0039 v -0.002 C 19.990778,31.126085 19.875,30.646289 19.875,30.164062 c 0,-0.474934 0.114338,-0.955564 0.330078,-1.392578 0.210043,-0.425612 0.5194,-0.813927 0.890625,-1.128906 0.814786,-0.681976 1.83764,-1.046467 2.896484,-1.029297 z m -0.167968,0.277344 c -0.936592,0.02271 -1.835849,0.366119 -2.554688,0.962891 l -0.002,0.002 -0.002,0.002 c -0.341411,0.288301 -0.616625,0.644215 -0.8125,1.035156 -0.202489,0.397202 -0.302734,0.832004 -0.302734,1.271484 0,0.436778 0.100601,0.871992 0.300781,1.267579 0.197259,0.402104 0.475634,0.756856 0.814453,1.042968 h 0.002 c 0.766593,0.64365 1.736584,0.98321 2.732422,0.970703 0.995838,0.01251 1.965829,-0.327053 2.732422,-0.970703 h 0.002 c 0.338819,-0.286112 0.617194,-0.640864 0.814453,-1.042968 0.200173,-0.395582 0.300781,-0.830797 0.300781,-1.267579 0,-0.439476 -0.100238,-0.874277 -0.302734,-1.271484 -0.195875,-0.390941 -0.471089,-0.746855 -0.8125,-1.035156 l -0.002,-0.002 -0.002,-0.002 c -0.766773,-0.636567 -1.738844,-0.984703 -2.742188,-0.962891 -0.05409,-9.06e-4 -0.10869,-0.0013 -0.164062,0 z m 0.02344,1 c 0.0463,-0.0011 0.09221,-0.0011 0.140625,0 H 24 h 0.01172 c 0.756043,-0.01644 1.490943,0.245986 2.076172,0.730469 0.09685,0.08178 0.153555,0.201654 0.236328,0.300781 -0.224761,-0.142345 -0.445374,-0.302734 -0.728516,-0.302734 -0.798794,0 -1.457031,0.658237 -1.457031,1.457031 0,0.798794 0.658237,1.457031 1.457031,1.457031 0.36518,0 0.682496,-0.166907 0.939453,-0.392578 -0.125433,0.207335 -0.260676,0.410796 -0.447265,0.568359 -0.583642,0.489441 -1.318533,0.749319 -2.080079,0.738282 H 24 h -0.0078 c -0.761545,0.01104 -1.496436,-0.248841 -2.080078,-0.738282 -0.186589,-0.157563 -0.321832,-0.361024 -0.447265,-0.568359 0.256957,0.225671 0.574273,0.392578 0.939453,0.392578 0.798794,0 1.457031,-0.658237 1.457031,-1.457031 0,-0.798794 -0.658237,-1.457031 -1.457031,-1.457031 -0.283142,0 -0.503755,0.160389 -0.728516,0.302734 0.08277,-0.09913 0.139482,-0.219 0.236328,-0.300781 0.548591,-0.454152 1.229903,-0.713357 1.935547,-0.730469 z m -1.443359,1.728516 c 0.257733,0 0.457031,0.199299 0.457031,0.457031 0,0.257733 -0.199298,0.457031 -0.457031,0.457031 -0.257732,0 -0.457031,-0.199298 -0.457031,-0.457031 0,-0.257732 0.199299,-0.457031 0.457031,-0.457031 z m 3.191406,0 c 0.257732,0 0.457031,0.199299 0.457031,0.457031 0,0.257733 -0.199299,0.457031 -0.457031,0.457031 -0.257733,0 -0.457031,-0.199298 -0.457031,-0.457031 0,-0.257732 0.199298,-0.457031 0.457031,-0.457031 z M 24,34.720703 c 0.0021,-2e-5 0.0038,0.002 0.0059,0.002 h -0.01172 c 0.0021,2.3e-5 0.0038,-0.002 0.0059,-0.002 z"
     id="path956" />
  <linearGradient
     id="_lgradient_7"
     x1="0.13281250000000006"
     y1="0.14338235294117652"
     x2="0.9999999999999998"
     y2="1"
     gradientTransform="matrix(30.623955,0,0,20.186929,8.6880222,10.935094)"
     gradientUnits="userSpaceOnUse">
    <stop
       offset="0%"
       stop-opacity="1"
       style="stop-color:rgb(243,137,95)"
       id="stop18" />
    <stop
       offset="66.47858673673248%"
       stop-opacity="1"
       style="stop-color:rgb(150,34,170)"
       id="stop20" />
    <stop
       offset="100%"
       stop-opacity="1"
       style="stop-color:rgb(74,30,239)"
       id="stop22" />
  </linearGradient>
  <path
     style="color:#000000;fill:url(#linearGradient1075);fill-rule:evenodd;-inkscape-stroke:none"
     d="m 24.009766,10.435547 c -1.059596,0.0065 -2.121192,0.07211 -3.177735,0.208984 -0.900381,0.117697 -1.791807,0.29516 -2.669922,0.544922 -0.772545,0.217476 -1.523953,0.49405 -2.253906,0.822266 -0.676499,0.305088 -1.331843,0.669354 -1.947265,1.080078 h -0.002 c -0.600424,0.403813 -1.166312,0.85378 -1.693359,1.34375 l -0.0039,0.002 -0.002,0.0039 c -0.525864,0.502712 -1.017514,1.050209 -1.457032,1.626953 h -0.002 c -0.473211,0.622994 -0.8831341,1.279766 -1.2460935,1.964844 h -0.00195 v 0.002 c -0.3947907,0.760727 -0.7363768,1.549298 -1.0175781,2.357422 v 0.002 h -0.00195 c -0.094986,0.278532 -0.1584384,0.555333 -0.2070312,0.835938 -0.049331,0.278455 -0.080078,0.562853 -0.080078,0.851562 v 0.01172 l -0.013672,3.740234 v 0.01172 c -0.017242,0.14286 -0.029984,0.28643 -0.03125,0.429688 L 8.1875,27.558594 v 0.03516 c 0,1.057744 0.4249614,2.072552 1.1816406,2.822266 3.885e-4,3.88e-4 0.00156,-3.89e-4 0.00195,0 3.92e-4,3.88e-4 -3.922e-4,0.0016 0,0.002 0.7512542,0.750218 1.7788052,1.177762 2.8515622,1.185547 l 1.947266,0.01758 c 0.465262,0.0097 0.906062,-0.202041 1.191406,-0.56836 C 15.647699,30.6851 15.739442,30.196631 15.601563,29.75 l 0.002,0.0039 c -0.271288,-0.904291 -0.513073,-1.795808 -0.519532,-2.65625 0.0062,-0.935696 0.273243,-1.903012 0.582032,-2.867187 v -0.002 -0.002 c 0.135721,-0.43966 0.05619,-0.923529 -0.216797,-1.296875 -0.274262,-0.377952 -0.712388,-0.595703 -1.177735,-0.595703 l -1.955078,-0.02539 h -0.03711 c -0.379402,0 -0.723867,0.149783 -1.082031,0.25 l 0.002,-0.44336 v -0.002 c 0,-0.127418 0.01521,-0.258895 0.03906,-0.404297 0.02151,-0.131166 0.05216,-0.255078 0.0957,-0.382812 v -0.002 c 0.231889,-0.670169 0.515324,-1.322602 0.841797,-1.951172 l 0.002,-0.002 c 0.286845,-0.542867 0.61493,-1.060398 0.988282,-1.554688 v -0.002 c 0.340023,-0.448375 0.728127,-0.875212 1.138672,-1.265625 0.409645,-0.383169 0.848087,-0.734662 1.310546,-1.042969 0.485379,-0.323178 0.988663,-0.603591 1.523438,-0.847656 l 0.002,-0.002 c 0.592527,-0.268906 1.20666,-0.489525 1.833984,-0.667969 0.731817,-0.204142 1.482255,-0.358109 2.238282,-0.457031 0.927565,-0.118359 1.870674,-0.175358 2.816406,-0.181641 0.933475,-0.0062 1.868592,0.04978 2.804687,0.16211 0.750009,0.09267 1.493927,0.241486 2.22461,0.445312 h 0.002 c 0.624901,0.171541 1.231202,0.391947 1.826172,0.66211 0.523044,0.238302 1.032526,0.519014 1.501953,0.833984 h 0.002 c 0.461966,0.307977 0.894694,0.660902 1.298828,1.044922 0.408924,0.388872 0.787785,0.813488 1.128906,1.269531 h -0.002 c 0.369728,0.497475 0.700031,1.016449 0.978516,1.5625 0.325029,0.637792 0.599625,1.294389 0.832031,1.970703 0.04057,0.142093 0.07435,0.276687 0.0957,0.41211 l 0.002,0.01172 0.002,0.0098 c 0.02664,0.13056 0.04341,0.271733 0.04883,0.412109 l 0.0059,0.40625 c -0.352028,-0.09661 -0.690109,-0.24414 -1.0625,-0.24414 h -0.03711 l -1.955079,0.02539 c -0.465657,0 -0.903123,0.217617 -1.177734,0.595703 -0.271635,0.372795 -0.353786,0.856192 -0.216797,1.296875 v 0.002 l 0.002,0.002 c 0.308217,0.964358 0.573908,1.931478 0.580078,2.867187 -0.0064,0.858599 -0.247559,1.747862 -0.517578,2.650391 -4.03e-4,0.0013 3.99e-4,0.0026 0,0.0039 v 0.002 c -0.136553,0.446061 -0.04456,0.933218 0.240235,1.298828 0.284935,0.367034 0.72581,0.57809 1.191406,0.56836 l 1.945312,-0.01758 c 1.073479,-0.0073 2.1014,-0.435194 2.853516,-1.185547 l 0.002,-0.002 c 0.755936,-0.749697 1.181641,-1.764522 1.181641,-2.822266 v -0.0332 l -0.002,-0.171875 0.0098,-0.0059 -0.02148,-1.115234 c 0,-0.02989 -0.0013,-0.05372 -0.002,-0.07031 l 0.002,0.0098 -0.07617,-4.130859 v -0.0078 -0.0059 c -0.0069,-0.277711 -0.03551,-0.554261 -0.08398,-0.830078 l -0.002,-0.0059 c -0.04408,-0.279249 -0.114653,-0.557084 -0.199219,-0.818359 v -0.002 -0.002 c -0.274698,-0.821467 -0.610855,-1.616362 -1.00586,-2.390625 v -0.002 l -0.002,-0.002 c -0.356591,-0.686768 -0.768129,-1.347188 -1.232422,-1.97461 v -0.002 h -0.002 c -0.440034,-0.584059 -0.927161,-1.127234 -1.451172,-1.634765 l -0.002,-0.002 -0.002,-0.0039 C 35.22041,13.905015 34.658578,13.447557 34.052734,13.046875 l -0.0039,-0.002 c -0.612014,-0.40862 -1.259827,-0.773278 -1.935547,-1.078125 h -0.002 C 31.385384,11.637531 30.63276,11.366935 29.861328,11.15625 28.993167,10.914004 28.09744,10.730472 27.197266,10.625 h -0.002 c -1.05393,-0.129954 -2.115654,-0.195985 -3.185546,-0.189453 z m 0.0059,1 c 1.025916,-0.0063 2.044768,0.05655 3.058594,0.181641 h 0.002 0.002 c 0.843474,0.09872 1.690473,0.272252 2.513672,0.501953 h 0.002 0.002 c 0.72325,0.197306 1.425145,0.450022 2.103516,0.757812 h 0.002 v 0.002 c 0.623901,0.281368 1.224351,0.618799 1.794922,1 h 0.002 c 0.549437,0.363064 1.06626,0.784417 1.548828,1.238282 0.490409,0.474985 0.941705,0.978758 1.347656,1.517578 0.43167,0.583725 0.814703,1.196951 1.146485,1.835937 0.372633,0.730685 0.686915,1.479235 0.945312,2.251953 0.07088,0.219893 0.128579,0.449685 0.162109,0.664063 l 0.002,0.0059 v 0.0039 c 0.04095,0.23069 0.06449,0.460705 0.07031,0.689453 1.6e-5,6.42e-4 -1.6e-5,0.0013 0,0.002 l 0.07617,4.142578 v 0.0059 c 6.38e-4,0.01659 0,0.02796 0,0.03125 v 0.0039 l 0.0098,0.5 -0.0039,0.002 0.0078,0.791016 v 0.0293 c 0,0.791535 -0.316849,1.548891 -0.886719,2.113281 v 0.002 h -0.002 c -0.563264,0.562718 -1.341501,0.889036 -2.154297,0.894532 h -0.002 l -1.955078,0.01953 h -0.002 c -0.146884,0.0031 -0.291328,-0.06575 -0.382813,-0.183594 v -0.002 c -0.09166,-0.117675 -0.117526,-0.253268 -0.07422,-0.392578 l 0.002,-0.002 v -0.002 c 0.275025,-0.918891 0.553569,-1.901727 0.560546,-2.941407 v -0.0039 -0.002 c -0.007,-1.118075 -0.313361,-2.180682 -0.628906,-3.167969 l 0.002,0.0039 c -0.04527,-0.145628 -0.02271,-0.285535 0.06836,-0.410156 l 0.002,-0.002 c 0.07756,-0.106793 0.223594,-0.183594 0.36914,-0.183594 h 0.0039 l 1.958984,-0.02539 h 0.0293 c 0.474841,0 0.938405,0.109022 1.357422,0.310547 l 0.84375,0.40625 -0.126953,-0.890625 -0.01758,-1.021485 v -0.0059 c -0.0073,-0.188087 -0.02918,-0.377183 -0.06641,-0.5625 -0.0303,-0.187952 -0.07442,-0.364359 -0.123047,-0.533203 L 37.582031,21 l -0.0039,-0.01172 C 37.330365,20.265376 37.034811,19.560347 36.685547,18.875 36.378351,18.272653 36.017562,17.706004 35.619141,17.169922 35.244426,16.668968 34.82873,16.201203 34.378906,15.773438 33.937715,15.354205 33.460562,14.965453 32.947266,14.623047 l -0.002,-0.002 c -0.518844,-0.347937 -1.076125,-0.65314 -1.644531,-0.91211 -0.640707,-0.29093 -1.298843,-0.529201 -1.974609,-0.714843 -0.77882,-0.217254 -1.570089,-0.37588 -2.369141,-0.47461 h -0.002 c -0.975974,-0.117194 -1.953043,-0.17645 -2.931641,-0.169922 -0.981024,0.0065 -1.965105,0.06537 -2.9375,0.189454 -0.805152,0.105248 -1.603784,0.269561 -2.380859,0.486328 h -0.002 c -0.672771,0.191277 -1.333913,0.42889 -1.976563,0.720703 v 0.002 h -0.002 c -0.583359,0.26607 -1.134487,0.573175 -1.664062,0.925781 -0.5125,0.341667 -0.995151,0.728865 -1.443359,1.148438 h -0.002 v 0.002 c -0.447851,0.42589 -0.870493,0.891276 -1.246093,1.386718 v 0.002 c -0.406598,0.538144 -0.765805,1.101942 -1.078125,1.693359 v 0.002 l -0.002,0.002 C 10.940033,19.581874 10.637445,20.280737 10.388672,21 v 0.002 c -0.06077,0.177856 -0.107966,0.357719 -0.138672,0.544922 -0.02847,0.173598 -0.05078,0.362065 -0.05078,0.566406 l -0.0078,1.859375 0.720703,-0.349609 c 0.422027,-0.204402 0.889141,-0.314453 1.367188,-0.314453 h 0.0293 l 1.958984,0.02539 h 0.0039 c 0.146518,0 0.29243,0.07759 0.369141,0.183594 l 0.002,0.002 c 0.09098,0.124069 0.113631,0.265457 0.06836,0.41211 -0.31561,0.985877 -0.620022,2.046142 -0.626954,3.162109 v 0.002 0.0039 c 0.007,1.039666 0.284816,2.022302 0.560547,2.941407 l 0.002,0.002 v 0.002 c 0.04332,0.140327 0.01906,0.275333 -0.07226,0.392578 -0.09235,0.118559 -0.236872,0.188594 -0.382813,0.185547 h -0.0039 l -1.955078,-0.01953 c -0.812811,-0.0055 -1.593853,-0.332135 -2.15625,-0.894532 l -0.002,-0.002 C 9.5038182,29.142658 9.1875,28.385285 9.1875,27.59375 v -0.0293 l 0.013672,-1.279297 v -0.002 c 0.0011,-0.124276 0.00873,-0.245362 0.025391,-0.365234 l 0.00586,-0.0332 0.013672,-3.789063 v -0.01367 c 0,-0.221032 0.023391,-0.446398 0.064453,-0.677734 v -0.002 -0.002 C 9.35255,21.157838 9.4057474,20.937858 9.4804688,20.71875 9.7447576,19.959614 10.065392,19.21746 10.4375,18.5 v -0.002 c 3.95e-4,-7.62e-4 0.0016,-0.0012 0.002,-0.002 0.339601,-0.640534 0.72123,-1.246981 1.158203,-1.822266 0.406468,-0.533374 0.864961,-1.04272 1.353516,-1.509765 0.486826,-0.452079 1.009968,-0.869174 1.564453,-1.242188 0.569978,-0.380395 1.177717,-0.718129 1.802734,-1 v 0.002 c 0.688194,-0.309439 1.39384,-0.569938 2.117188,-0.773437 0.826618,-0.235116 1.668723,-0.403643 2.52539,-0.515625 v 0.002 c 1.011848,-0.131085 2.031855,-0.194905 3.054688,-0.201172 z M 12.273438,24.222656 c -0.552217,0 -1.090579,0.214544 -1.488282,0.611328 -0.301693,0.291231 -0.509222,0.664179 -0.591797,1.070313 l -0.0098,0.04687 -0.0039,1.148437 -0.0059,0.871094 0.0098,0.05273 c 0.083,0.39321 0.280474,0.75887 0.572265,1.046875 0.392875,0.393016 0.929714,0.619141 1.492188,0.619141 l 1.300781,0.01172 -0.105469,-0.59375 c -0.118167,-0.657841 -0.180964,-1.3364 -0.1875,-2.007813 v -0.0078 c 0.0066,-0.762061 0.08709,-1.517498 0.236329,-2.263672 l 0.11914,-0.59375 -1.308594,-0.01172 z m 23.423828,0 -1.310547,0.01172 0.11914,0.59375 c 0.150259,0.748227 0.231548,1.508226 0.238282,2.273437 -0.0072,0.671069 -0.07,1.348362 -0.1875,2.00586 l -0.107422,0.59375 1.300781,-0.01172 c 0.562214,0 1.099362,-0.224509 1.492187,-0.617187 0.396069,-0.389475 0.617188,-0.922428 0.617188,-1.472657 v -0.02734 l -0.002,-0.002 -0.01172,-1.265625 c 0,-0.557824 -0.235573,-1.085795 -0.634766,-1.470703 -0.397574,-0.395925 -0.934731,-0.611328 -1.486328,-0.611328 z m -23.423828,1 h 0.02344 l 0.152344,0.002 c -0.09541,0.618103 -0.188304,1.237242 -0.19336,1.867188 v 0.0039 0.0059 c 0.0048,0.531734 0.07873,1.061041 0.148438,1.589844 L 12.25,28.689453 h -0.002 c -0.295643,0 -0.579708,-0.120285 -0.785156,-0.326172 l -0.002,-0.002 -0.002,-0.002 C 11.31609,28.218951 11.21995,28.034084 11.173828,27.839844 l 0.0059,-0.734375 0.0039,-1.019532 c 0.04462,-0.199257 0.143255,-0.389837 0.296875,-0.537109 l 0.0039,-0.0039 0.0039,-0.0039 c 0.200434,-0.200862 0.492883,-0.31836 0.785157,-0.31836 z m 23.427734,0 h 0.02344 c 0.292274,0 0.584723,0.117498 0.785157,0.31836 l 0.0039,0.0039 0.0039,0.0039 c 0.210464,0.201694 0.328125,0.47367 0.328125,0.755859 v 0.0039 l 0.01367,1.271484 v 0.01953 c 0,0.27829 -0.119134,0.562448 -0.320313,0.759766 l -0.002,0.002 -0.002,0.002 C 36.329708,28.569168 36.045643,28.689453 35.75,28.689453 h -0.002 l -0.152344,0.002 c 0.06946,-0.528588 0.143136,-1.058322 0.148438,-1.589844 v -0.0059 -0.0039 c -0.0055,-0.629572 -0.09973,-1.248872 -0.195313,-1.867188 z"
     id="path25" />
</svg>
