<?xml version="1.0" encoding="UTF-8" standalone="no"?>
<!-- Generator: Gravit.io -->

<svg
   style="isolation:isolate"
   viewBox="0 0 48 48"
   width="48px"
   height="48px"
   version="1.1"
   id="svg30"
   sodipodi:docname="spotify-client.svg"
   inkscape:version="1.1.2 (0a00cf5339, 2022-02-04)"
   xmlns:inkscape="http://www.inkscape.org/namespaces/inkscape"
   xmlns:sodipodi="http://sodipodi.sourceforge.net/DTD/sodipodi-0.dtd"
   xmlns:xlink="http://www.w3.org/1999/xlink"
   xmlns="http://www.w3.org/2000/svg"
   xmlns:svg="http://www.w3.org/2000/svg">
  <defs
     id="defs34">
    <linearGradient
       inkscape:collect="always"
       xlink:href="#_lgradient_5"
       id="linearGradient872"
       x1="-12.025727"
       y1="6.1170783"
       x2="-0.085100174"
       y2="6.1170783"
       gradientUnits="userSpaceOnUse"
       gradientTransform="matrix(3.8498555,0,0,3.8367335,0.08236272,-6.0286975e-4)" />
    <linearGradient
       id="_lgradient_21"
       x1="0"
       y1="0.5"
       x2="1"
       y2="0.5"
       gradientTransform="matrix(28.183272,0,0,28.298876,9.8766106,9.8505561)"
       gradientUnits="userSpaceOnUse">
      <stop
         offset="0%"
         stop-opacity="1"
         style="stop-color:rgb(255,224,49)"
         id="stop2-3" />
      <stop
         offset="98.69565217391305%"
         stop-opacity="1"
         style="stop-color:rgb(252,82,82)"
         id="stop4-6" />
    </linearGradient>
    <linearGradient
       inkscape:collect="always"
       xlink:href="#_lgradient_5"
       id="linearGradient15"
       x1="-9.6850061"
       y1="45.161198"
       x2="11.98815"
       y2="21.735205"
       gradientUnits="userSpaceOnUse"
       gradientTransform="matrix(1.1166224,0,0,1.1171399,0.04959723,-3.3958336)" />
    <linearGradient
       inkscape:collect="always"
       xlink:href="#_lgradient_5"
       id="linearGradient1070"
       x1="10.315461"
       y1="18.66287"
       x2="37.999954"
       y2="18.66287"
       gradientUnits="userSpaceOnUse" />
    <linearGradient
       inkscape:collect="always"
       xlink:href="#_lgradient_5"
       id="linearGradient1072"
       x1="11.663297"
       y1="24.649244"
       x2="36.660023"
       y2="24.649244"
       gradientUnits="userSpaceOnUse" />
    <linearGradient
       inkscape:collect="always"
       xlink:href="#_lgradient_5"
       id="linearGradient1074"
       x1="12.985205"
       y1="30.575361"
       x2="34.323975"
       y2="30.575361"
       gradientUnits="userSpaceOnUse" />
  </defs>
  <sodipodi:namedview
     id="namedview32"
     pagecolor="#ffffff"
     bordercolor="#666666"
     borderopacity="1.0"
     inkscape:pageshadow="2"
     inkscape:pageopacity="0.0"
     inkscape:pagecheckerboard="0"
     showgrid="false"
     inkscape:zoom="4.817165"
     inkscape:cx="23.976758"
     inkscape:cy="23.976758"
     inkscape:window-width="1076"
     inkscape:window-height="545"
     inkscape:window-x="279"
     inkscape:window-y="108"
     inkscape:window-maximized="0"
     inkscape:current-layer="svg30" />
  <linearGradient
     id="_lgradient_2"
     x1="0"
     y1="0.5"
     x2="1"
     y2="0.5"
     gradientTransform="matrix(44,0,0,44,2,2)"
     gradientUnits="userSpaceOnUse">
    <stop
       offset="0%"
       stop-opacity="1"
       style="stop-color:rgb(67,233,123)"
       id="stop2" />
    <stop
       offset="97.82608695652173%"
       stop-opacity="1"
       style="stop-color:rgb(56,249,215)"
       id="stop4" />
  </linearGradient>
  <linearGradient
     id="_lgradient_3"
     x1="0"
     y1="0.5"
     x2="1"
     y2="0.5"
     gradientTransform="matrix(22.455,1.966,-0.461,5.891,12.722,26.603)"
     gradientUnits="userSpaceOnUse">
    <stop
       offset="0%"
       stop-opacity="1"
       style="stop-color:rgb(67,233,123)"
       id="stop9" />
    <stop
       offset="97.82608695652173%"
       stop-opacity="1"
       style="stop-color:rgb(56,249,215)"
       id="stop11" />
  </linearGradient>
  <rect
     x="-46.866531"
     y="1.2273247"
     height="45.795303"
     rx="6.206387"
     shape-rendering="crispEdges"
     id="rect5-6-7-3"
     ry="6.8048091"
     transform="matrix(0.00522098,-0.99998637,0.99998792,0.00491535,0,0)"
     style="isolation:isolate;fill:#00ffa3;fill-opacity:0.13470298;stroke:url(#linearGradient872);stroke-width:2.0337;stroke-miterlimit:4;stroke-dasharray:none;stroke-opacity:1"
     width="45.969578" />
  <rect
     x="-15.651243"
     y="17.230915"
     height="33.40881"
     rx="6.8034463"
     shape-rendering="crispEdges"
     id="rect5-6-6-6-6"
     style="isolation:isolate;fill:#00ffa3;fill-opacity:0.13470298;stroke:url(#linearGradient15);stroke-width:1.67532;stroke-miterlimit:4;stroke-dasharray:none;stroke-opacity:1"
     ry="7.4884181"
     transform="matrix(0.72316987,-0.69067021,0.6848587,0.72867589,0,0)"
     width="33.394371" />
  <path
     style="color:#000000;fill:url(#linearGradient1074);-inkscape-stroke:none"
     d="m 23.748047,27.068359 c -1.931774,-0.189492 -3.879577,-0.144772 -5.796875,0.117188 h -0.002 c -0.820637,0.114435 -1.636929,0.289111 -2.431641,0.53125 -0.707878,0.213247 -1.400418,0.512368 -2.050781,0.888672 v 0.002 h -0.002 c -0.926704,0.540352 -1.246779,1.745341 -0.744141,2.703125 0.50164,0.958395 1.699326,1.329768 2.626953,0.791015 l 0.0059,-0.002 0.0039,-0.0039 c 0.375957,-0.229351 0.787439,-0.403625 1.21875,-0.533203 h 0.002 c 0.617175,-0.186499 1.23653,-0.324693 1.871094,-0.414063 1.641308,-0.218971 3.305389,-0.250208 4.955078,-0.0957 h 0.002 l 0.212891,0.01758 0.0078,0.002 h 0.0059 c 1.723506,0.15055 3.421015,0.505239 5.066407,1.060546 h 0.002 c 0.62054,0.209085 1.239237,0.475871 1.826172,0.78711 h 0.002 c 0.399867,0.209541 0.777222,0.472586 1.115234,0.785156 l 0.002,0.002 c 0.793909,0.722832 2.042398,0.61845 2.720703,-0.216797 0.678421,-0.835408 0.59637,-2.076245 -0.197265,-2.798828 -0.580164,-0.527325 -1.227342,-0.974807 -1.910156,-1.332031 -0.760117,-0.407867 -1.555354,-0.757406 -2.38086,-1.027344 l -0.0039,-0.002 c -1.921867,-0.648763 -3.909907,-1.068736 -5.919922,-1.244141 l -0.203125,-0.01758 z m -0.09375,0.996094 h 0.0039 l 0.208984,0.01758 c 1.930577,0.168473 3.842526,0.572803 5.691407,1.197266 h 0.002 l 0.0039,0.002 c 0.765006,0.249876 1.508052,0.575538 2.222656,0.958984 h 0.002 l 0.0039,0.002 c 0.609417,0.318367 1.186645,0.720012 1.703125,1.189454 0.389875,0.35497 0.437923,1.009111 0.0957,1.429687 -0.340629,0.419441 -0.877779,0.460967 -1.267578,0.109375 l -0.0039,-0.002 c -0.404065,-0.373101 -0.852728,-0.684166 -1.324218,-0.931641 l -0.0039,-0.002 c -0.633906,-0.335879 -1.300561,-0.623154 -1.972656,-0.849609 -1.720605,-0.580692 -3.496337,-0.951926 -5.298828,-1.109375 h -0.0039 l -0.21875,-0.01953 h -0.0039 c -1.72303,-0.16108 -3.460388,-0.129246 -5.175782,0.09961 h -0.002 -0.002 c -0.687967,0.09665 -1.359932,0.246177 -2.025391,0.447266 -0.500687,0.150421 -0.993082,0.358024 -1.453124,0.638671 l 0.0098,-0.0059 c -0.446372,0.259247 -0.979921,0.102978 -1.238281,-0.390625 -0.259361,-0.494215 -0.08397,-1.115353 0.361328,-1.375 0.58247,-0.336786 1.205175,-0.6064 1.837891,-0.796875 h 0.002 c 0.74068,-0.225676 1.50662,-0.390475 2.277343,-0.498047 1.843407,-0.251863 3.715416,-0.293392 5.56836,-0.111328 z"
     id="path14" />
  <linearGradient
     id="_lgradient_4"
     x1="0"
     y1="0.5"
     x2="1"
     y2="0.5"
     gradientTransform="matrix(26.305,2.303,-0.461,5.891,11.305,20.458)"
     gradientUnits="userSpaceOnUse">
    <stop
       offset="0%"
       stop-opacity="1"
       style="stop-color:rgb(67,233,123)"
       id="stop16" />
    <stop
       offset="97.82608695652173%"
       stop-opacity="1"
       style="stop-color:rgb(56,249,215)"
       id="stop18" />
  </linearGradient>
  <path
     style="color:#000000;fill:url(#linearGradient1072);-inkscape-stroke:none"
     d="m 24.212891,21.087891 c -2.250271,-0.216708 -4.517509,-0.200937 -6.746094,0.03125 h -0.002 c -0.951722,0.101312 -1.896954,0.264376 -2.816406,0.492187 -0.816196,0.201182 -1.61483,0.486303 -2.365235,0.851563 -1.032341,0.503865 -1.427567,1.778574 -0.826172,2.746093 0.601384,0.967502 1.881968,1.309728 2.914063,0.804688 l 0.0039,-0.002 0.002,-0.002 c 0.446868,-0.227563 0.936896,-0.400136 1.449219,-0.525391 h 0.002 c 0.726186,-0.179605 1.457942,-0.311071 2.207031,-0.390625 1.929051,-0.196641 3.887742,-0.201548 5.832031,-0.02148 h 0.002 l 0.253906,0.02148 0.01172,0.002 c 2.031414,0.178056 4.034549,0.560456 5.978515,1.144531 h 0.002 c 0.737298,0.21993 1.471168,0.498578 2.167969,0.822266 h 0.002 v 0.002 c 0.481264,0.220541 0.934407,0.491946 1.339844,0.814453 l 0.002,0.002 h 0.002 c 0.902737,0.709017 2.222386,0.642193 3.003906,-0.18164 0.781714,-0.824183 0.650114,-2.148413 -0.253906,-2.857422 -0.680052,-0.532306 -1.435393,-0.98444 -2.230469,-1.347656 -0.887875,-0.41632 -1.81829,-0.776814 -2.779296,-1.056641 -2.248624,-0.675805 -4.56975,-1.123118 -6.91211,-1.328125 l -0.238281,-0.02148 z m -0.0918,0.996093 h 0.0039 l 0.244141,0.02148 c 2.273635,0.198992 4.529519,0.632868 6.71289,1.289062 h 0.002 l 0.002,0.002 c 0.907496,0.263999 1.791847,0.604882 2.638672,1.001953 l 0.002,0.002 h 0.002 c 0.728549,0.332287 1.417092,0.746259 2.033203,1.228515 0.495979,0.38899 0.54277,0.964997 0.146484,1.382813 -0.396643,0.418866 -1.167349,0.472573 -1.662109,0.08398 -0.473296,-0.376183 -0.993986,-0.688557 -1.541016,-0.939453 l -0.002,-0.002 C 31.96316,25.810692 31.185651,25.514998 30.402344,25.28125 h -0.002 C 28.39155,24.677822 26.321894,24.28357 24.224609,24.099609 l -0.01172,-0.002 -0.251954,-0.02148 h -0.0039 c -2.006425,-0.185567 -4.029785,-0.179789 -6.023437,0.02344 h -0.002 c -0.796239,0.08446 -1.574561,0.223822 -2.34375,0.414063 -0.572235,0.140025 -1.131903,0.335413 -1.65625,0.601562 -0.561904,0.274959 -1.316385,0.0629 -1.625,-0.433593 -0.308604,-0.49648 -0.147595,-1.044226 0.414062,-1.31836 0.683593,-0.332739 1.416212,-0.596432 2.166016,-0.78125 h 0.002 c 0.872545,-0.216188 1.773364,-0.372062 2.68164,-0.46875 2.165475,-0.225611 4.366982,-0.239997 6.550782,-0.0293 z"
     id="path21" />
  <linearGradient
     id="_lgradient_5"
     x1="0"
     y1="0.5"
     x2="1"
     y2="0.5"
     gradientTransform="matrix(29.133,2.55,-0.461,5.891,9.888,14.314)"
     gradientUnits="userSpaceOnUse">
    <stop
       offset="0%"
       stop-opacity="1"
       style="stop-color:rgb(67,233,123)"
       id="stop23" />
    <stop
       offset="97.82608695652173%"
       stop-opacity="1"
       style="stop-color:rgb(56,249,215)"
       id="stop25" />
  </linearGradient>
  <path
     style="color:#000000;fill:url(#linearGradient1070);-inkscape-stroke:none"
     d="m 16.730469,15.03125 c -1.049446,0.09272 -2.089649,0.24806 -3.101563,0.466797 -0.894593,0.192586 -1.771388,0.468209 -2.59375,0.824219 -0.553653,0.240964 -0.963213,0.670074 -1.1328122,1.183593 -0.1695995,0.51352 -0.086026,1.102959 0.2500002,1.587891 0.671622,0.97056 2.022155,1.298643 3.128906,0.816406 l 0.0039,-0.002 0.0039,-0.002 c 0.496389,-0.225968 1.041476,-0.395796 1.613281,-0.517578 h 0.002 c 0.806893,-0.173672 1.619525,-0.298868 2.453125,-0.373047 2.140239,-0.178518 4.313446,-0.166139 6.472656,0.0332 h 0.002 l 0.283203,0.02344 0.01172,0.002 c 2.256661,0.197347 4.48482,0.599581 6.648438,1.205078 0.821381,0.227999 1.641719,0.515532 2.419921,0.847656 h 0.002 c 0.540431,0.227699 1.049358,0.508831 1.503906,0.837891 l 0.002,0.002 h 0.002 c 0.981081,0.700232 2.363988,0.657651 3.216797,-0.154297 h 0.002 c 0.426171,-0.40638 0.625175,-0.967353 0.564453,-1.503906 -0.06072,-0.536553 -0.369248,-1.039032 -0.859375,-1.388672 h -0.002 c -0.754838,-0.536936 -1.586665,-0.994875 -2.464844,-1.363281 -0.984717,-0.42348 -2.012546,-0.791369 -3.074218,-1.080079 -2.486575,-0.693729 -5.052939,-1.162066 -7.638672,-1.388671 l -0.265625,-0.02344 h -0.0039 c -2.486573,-0.237584 -4.988875,-0.244645 -7.447265,-0.0332 z m 0.08789,0.996094 c 2.400316,-0.206447 4.843398,-0.198845 7.269532,0.0332 h 0.002 l 0.271484,0.02344 c 2.524981,0.221282 5.032669,0.67972 7.460938,1.357422 h 0.002 0.002 c 1.012325,0.27529 1.996125,0.626684 2.941406,1.033203 h 0.002 l 0.002,0.002 c 0.813783,0.341078 1.583752,0.765994 2.275391,1.257813 0.287873,0.205359 0.422941,0.455304 0.449219,0.6875 0.02628,0.232196 -0.04384,0.456396 -0.263672,0.666016 -0.440301,0.419204 -1.366189,0.475459 -1.94336,0.06641 l -0.0039,-0.002 c -0.522055,-0.377477 -1.095625,-0.691697 -1.697265,-0.945313 h -0.002 c -0.818728,-0.34933 -1.677588,-0.650869 -2.541015,-0.890625 h -0.002 c -2.223798,-0.622213 -4.511432,-1.035684 -6.828125,-1.238281 h -0.002 l -0.01172,-0.002 -0.277344,-0.02344 h -0.002 c -2.216143,-0.204484 -4.447374,-0.216631 -6.646484,-0.0332 h -0.002 -0.002 c -0.875719,0.07784 -1.731647,0.208433 -2.578125,0.390625 -0.629552,0.134195 -1.245261,0.324161 -1.820312,0.585938 l 0.0078,-0.0039 c -0.651247,0.283763 -1.557873,0.03664 -1.90625,-0.466796 v -0.002 c -0.173973,-0.251067 -0.195947,-0.482394 -0.123046,-0.703125 0.0729,-0.22073 0.255684,-0.438043 0.582031,-0.580078 0.757636,-0.327989 1.572844,-0.586211 2.40625,-0.765625 0.968084,-0.209262 1.967963,-0.357983 2.978515,-0.447265 z"
     id="path28" />
</svg>
