<?xml version="1.0" encoding="UTF-8" standalone="no"?>
<!-- Generator: Gravit.io -->

<svg
   style="isolation:isolate"
   viewBox="0 0 48 48"
   width="48pt"
   height="48pt"
   version="1.1"
   id="svg18"
   sodipodi:docname="sqldeveloper.svg"
   inkscape:version="1.1.2 (0a00cf5339, 2022-02-04)"
   xmlns:inkscape="http://www.inkscape.org/namespaces/inkscape"
   xmlns:sodipodi="http://sodipodi.sourceforge.net/DTD/sodipodi-0.dtd"
   xmlns:xlink="http://www.w3.org/1999/xlink"
   xmlns="http://www.w3.org/2000/svg"
   xmlns:svg="http://www.w3.org/2000/svg">
  <defs
     id="defs22">
    <linearGradient
       inkscape:collect="always"
       xlink:href="#_lgradient_0"
       id="linearGradient872"
       x1="-12.025727"
       y1="6.1170783"
       x2="-0.085100174"
       y2="6.1170783"
       gradientUnits="userSpaceOnUse"
       gradientTransform="matrix(3.8358211,0,0,3.8371386,-0.00544341,-0.00268054)" />
    <linearGradient
       id="_lgradient_21"
       x1="0"
       y1="0.5"
       x2="1"
       y2="0.5"
       gradientTransform="matrix(28.183272,0,0,28.298876,9.8766106,9.8505561)"
       gradientUnits="userSpaceOnUse">
      <stop
         offset="0%"
         stop-opacity="1"
         style="stop-color:rgb(255,224,49)"
         id="stop2-3" />
      <stop
         offset="98.69565217391305%"
         stop-opacity="1"
         style="stop-color:rgb(252,82,82)"
         id="stop4-6" />
    </linearGradient>
    <linearGradient
       inkscape:collect="always"
       xlink:href="#_lgradient_0"
       id="linearGradient15"
       x1="-9.6850061"
       y1="45.161198"
       x2="11.98815"
       y2="21.735205"
       gradientUnits="userSpaceOnUse"
       gradientTransform="matrix(1.1147442,0,0,1.1150348,-0.01237238,-3.3277956)" />
    <linearGradient
       inkscape:collect="always"
       xlink:href="#_lgradient_0"
       id="linearGradient946"
       x1="13.03425"
       y1="23.118738"
       x2="34.448143"
       y2="23.118738"
       gradientUnits="userSpaceOnUse" />
    <linearGradient
       inkscape:collect="always"
       xlink:href="#_lgradient_1"
       id="linearGradient1082"
       x1="20.634863"
       y1="27.809498"
       x2="36.270767"
       y2="27.809498"
       gradientUnits="userSpaceOnUse" />
  </defs>
  <sodipodi:namedview
     id="namedview20"
     pagecolor="#ffffff"
     bordercolor="#666666"
     borderopacity="1.0"
     inkscape:pageshadow="2"
     inkscape:pageopacity="0.0"
     inkscape:pagecheckerboard="0"
     inkscape:document-units="pt"
     showgrid="false"
     inkscape:zoom="3.6128737"
     inkscape:cx="31.969011"
     inkscape:cy="31.969011"
     inkscape:window-width="1056"
     inkscape:window-height="545"
     inkscape:window-x="272"
     inkscape:window-y="99"
     inkscape:window-maximized="0"
     inkscape:current-layer="svg18" />
  <linearGradient
     id="_lgradient_0"
     x1="-0.014458464773922156"
     y1="0.009839246119734024"
     x2="1.0164565923220248"
     y2="1.0722930524759795"
     gradientTransform="matrix(21.414414,0,0,23.453857,13.03425,11.391798)"
     gradientUnits="userSpaceOnUse">
    <stop
       offset="1.3043478260869565%"
       stop-opacity="1"
       style="stop-color:rgb(254,172,94)"
       id="stop2" />
    <stop
       offset="53.04347826086957%"
       stop-opacity="1"
       style="stop-color:rgb(199,121,208)"
       id="stop4" />
    <stop
       offset="99.56521739130434%"
       stop-opacity="1"
       style="stop-color:rgb(75,192,200)"
       id="stop6" />
  </linearGradient>
  <rect
     x="-46.783188"
     y="1.2253767"
     height="45.80014"
     rx="6.1837621"
     shape-rendering="crispEdges"
     id="rect5-6-7-3"
     ry="6.8055277"
     transform="matrix(0.00524063,-0.99998627,0.99998801,0.00489691,0,0)"
     style="isolation:isolate;fill:#ff9f00;fill-opacity:0.13470298;stroke:url(#linearGradient872);stroke-width:2.0301;stroke-miterlimit:4;stroke-dasharray:none;stroke-opacity:1"
     width="45.801998" />
  <rect
     x="-15.686804"
     y="17.260084"
     height="33.345856"
     rx="6.7920032"
     shape-rendering="crispEdges"
     id="rect5-6-6-6-6"
     style="isolation:isolate;fill:#ff9f00;fill-opacity:0.13470298;stroke:url(#linearGradient15);stroke-width:1.67233;stroke-miterlimit:4;stroke-dasharray:none;stroke-opacity:1"
     ry="7.4743071"
     transform="matrix(0.72446484,-0.68931175,0.68622417,0.72739012,0,0)"
     width="33.338203" />
  <path
     style="color:#000000;fill:url(#linearGradient946);fill-rule:evenodd;-inkscape-stroke:none"
     d="m 23.740234,10.892578 c -2.999761,0 -5.723723,0.398768 -7.753906,1.208985 -1.015091,0.405108 -1.861169,0.913333 -2.472656,1.55664 -0.611487,0.643307 -0.978516,1.441139 -0.978516,2.322266 v 14.277343 c 0,0.881467 0.36486,1.678461 0.97461,2.322266 0.609749,0.643805 1.454874,1.153692 2.46875,1.558594 2.027751,0.809804 4.751053,1.207031 7.761718,1.207031 0.492905,0 0.979756,-0.0115 1.455078,-0.03711 l 0.181641,-0.953125 c -1.350954,-0.619654 -2.480087,-1.640648 -3.236328,-2.910157 l -0.132813,-0.224609 -0.259765,-0.01953 C 20.248191,31.088975 18.905322,30.837261 17.882812,30.496094 17.263891,30.289469 16.825881,30.056672 16.59375,29.882812 v -2.751953 c 1.177746,0.407061 2.461113,0.753623 3.96875,0.917969 l 0.542969,0.05859 0.01172,-0.546875 c 0.01904,-1.005354 0.239926,-1.958128 0.628907,-2.820313 l 0.04492,-0.09766 v -0.560547 l -0.451172,-0.04492 c -1.330827,-0.131602 -2.527189,-0.369244 -3.457032,-0.679687 -0.619117,-0.20669 -1.057413,-0.437538 -1.289062,-0.611328 v -2.736328 c 1.962985,0.677618 4.40181,1.060546 7.146484,1.060546 0.565374,0 1.124166,-0.01635 1.664063,-0.05273 l 0.08594,-0.0059 0.08008,-0.0332 c 0.875762,-0.38047 1.842345,-0.589844 2.861329,-0.589844 0.330143,0 0.654438,0.02191 0.96875,0.06641 l 0.08984,0.01367 0.08984,-0.01953 c 0.477389,-0.109027 0.885392,-0.262495 1.308594,-0.40625 v 0.761718 l 0.310547,0.126954 c 1.119653,0.458395 2.101498,1.187522 2.863281,2.105468 l 0.884766,1.066407 v -8.123047 c 0,-0.881127 -0.367029,-1.678959 -0.978516,-2.322266 -0.611487,-0.643307 -1.457565,-1.151532 -2.472656,-1.55664 -2.030183,-0.810217 -4.756099,-1.208985 -7.75586,-1.208985 z m 0,1 c 2.909563,0 5.538812,0.400025 7.384766,1.136719 0.922977,0.368347 1.646409,0.821028 2.119141,1.318359 0.472731,0.497331 0.703125,1.019148 0.703125,1.632813 V 21.5625 c -0.617001,-0.554637 -1.295664,-1.03111 -2.058594,-1.382813 v -1.560546 l -0.689453,0.283203 c -0.529938,0.216595 -1.131072,0.399521 -1.789063,0.552734 -0.32231,-0.04 -0.647616,-0.06641 -0.978515,-0.06641 -1.155449,0 -2.259219,0.237193 -3.259766,0.671875 l 0.164062,-0.03906 c -0.511875,0.0345 -1.047803,0.04883 -1.595703,0.04883 -2.949082,0 -5.607665,-0.412357 -7.457031,-1.167968 l -0.689453,-0.28125 v 4.5625 l 0.130859,0.142578 c 0.05433,0.05901 0.116669,0.115613 0.195313,0.177734 0.383399,0.304076 0.932763,0.564462 1.646484,0.802735 0.877,0.2928 1.986108,0.475086 3.136719,0.61914 -0.235152,0.645662 -0.388993,1.322811 -0.455078,2.03125 -1.503379,-0.194932 -2.902021,-0.478311 -3.966797,-0.912109 l -0.6875,-0.28125 v 4.558594 l 0.130859,0.142578 c 0.05433,0.05901 0.116669,0.115613 0.195313,0.177734 0.382856,0.302986 0.932545,0.564389 1.646484,0.802734 1.067209,0.356081 2.416795,0.587364 3.878906,0.712891 0.550302,0.861143 1.277677,1.568212 2.097657,2.173828 -2.836789,-0.01874 -5.394908,-0.404816 -7.19336,-1.123047 -0.921391,-0.367967 -1.642313,-0.819133 -2.113281,-1.316406 -0.470967,-0.497272 -0.701172,-1.019096 -0.701172,-1.634766 V 15.980469 c 0,-0.613665 0.230394,-1.135482 0.703125,-1.632813 0.472732,-0.497331 1.196164,-0.950012 2.119141,-1.318359 1.845954,-0.736694 4.473249,-1.136719 7.382812,-1.136719 z m 0,2.058594 c -2.355684,0 -4.542924,0.303839 -6.162109,0.84375 -0.706319,0.23544 -1.254219,0.493523 -1.638672,0.791016 l -0.509765,0.394531 0.509765,0.394531 c 0.384727,0.298359 0.932353,0.557529 1.638672,0.792969 1.618978,0.539295 3.80635,0.841797 6.162109,0.841797 2.355759,0 4.545085,-0.302502 6.164063,-0.841797 0.706319,-0.23544 1.253945,-0.49461 1.638672,-0.792969 l 0.509765,-0.394531 -0.509765,-0.394531 c -0.384453,-0.297493 -0.932353,-0.555576 -1.638672,-0.791016 -1.619185,-0.539911 -3.808379,-0.84375 -6.164063,-0.84375 z m 0,1 c 2.268368,0 4.38136,0.302085 5.847657,0.791016 0.240326,0.08011 0.316211,0.154671 0.505859,0.238281 -0.189768,0.08372 -0.265247,0.158077 -0.505859,0.238281 -1.466446,0.488222 -3.580108,0.791016 -5.847657,0.791016 -2.267549,0 -4.379257,-0.302794 -5.845703,-0.791016 h -0.002 c -0.239421,-0.07988 -0.314897,-0.154923 -0.503906,-0.238281 0.189648,-0.08361 0.265533,-0.158173 0.505859,-0.238281 1.466296,-0.488931 3.577335,-0.791016 5.845703,-0.791016 z"
     id="path9" />
  <linearGradient
     id="_lgradient_1"
     x1="0"
     y1="0.5"
     x2="0.9074880558539661"
     y2="0.9200778838291643"
     gradientTransform="matrix(15.635904,0,0,15.635904,20.634863,19.991546)"
     gradientUnits="userSpaceOnUse">
    <stop
       offset="0%"
       stop-opacity="1"
       style="stop-color:rgb(0,255,216)"
       id="stop11" />
    <stop
       offset="83.88839793817618%"
       stop-opacity="1"
       style="stop-color:rgb(0,255,184)"
       id="stop13" />
  </linearGradient>
  <path
     style="color:#000000;fill:url(#linearGradient1082);fill-rule:evenodd;-inkscape-stroke:none"
     d="m 28.453125,19.492187 c -2.20181,0 -4.320398,0.875088 -5.878906,2.433594 -1.562967,1.562968 -2.439453,3.676123 -2.439453,5.882813 0,2.206689 0.876486,4.321799 2.439453,5.884765 1.558508,1.558508 3.677096,2.433594 5.878906,2.433594 2.206689,0 4.324306,-0.875086 5.882812,-2.433594 v -0.002 c 1.557356,-1.562896 2.435547,-3.676123 2.435547,-5.882812 0,-2.20669 -0.878192,-4.319916 -2.435547,-5.882813 -1.558506,-1.558507 -3.676123,-2.433593 -5.882812,-2.433594 z m 0,1 c 1.942033,0 3.805165,0.770009 5.175781,2.140625 1.371768,1.37665 2.142578,3.233748 2.142578,5.175782 0,1.942032 -0.77081,3.801085 -2.142578,5.177734 -1.370616,1.370617 -3.233748,2.140625 -5.175781,2.140625 -1.936488,0 -3.801258,-0.770008 -5.171875,-2.140625 -1.376578,-1.376578 -2.146484,-3.235702 -2.146484,-5.177734 0,-1.942034 0.769905,-3.799202 2.146484,-5.175782 1.370617,-1.370616 3.235388,-2.140624 5.171875,-2.140625 z m 0,0.5625 c -1.790529,10e-7 -3.507604,0.714402 -4.773438,1.97461 v 0.002 c -1.266448,1.266449 -1.980468,2.986816 -1.980468,4.777344 0,1.790528 0.714019,3.512849 1.980468,4.779297 1.265833,1.260208 2.982909,1.976562 4.773438,1.976562 1.790527,0 3.510985,-0.715832 4.777344,-1.976562 1.266971,-1.266972 1.976562,-2.989817 1.976562,-4.779297 0,-1.78948 -0.709591,-3.510372 -1.976562,-4.777344 v -0.002 c -1.266359,-1.260731 -2.986817,-1.974609 -4.777344,-1.97461 z m 0,1 c 1.523728,10e-7 2.991396,0.610091 4.070312,1.683594 1.061216,1.061216 1.650984,2.500885 1.669922,4 L 33.533203,27.373047 30,25.410156 25.724609,23.033203 v 4.775391 4.77539 L 30,30.208984 34.193359,27.878906 c -0.01892,1.499138 -0.608692,2.940724 -1.669922,4.001953 -1.078916,1.073504 -2.546584,1.683594 -4.070312,1.683594 -1.524282,0 -2.986858,-0.608842 -4.066406,-1.683594 -1.078935,-1.078933 -1.6875,-2.547984 -1.6875,-4.072265 0,-1.524281 0.608565,-2.991378 1.6875,-4.070313 1.079548,-1.074751 2.542124,-1.683593 4.066406,-1.683594 z m -1.728516,2.679688 2.789063,1.548828 2.748047,1.525391 -2.748047,1.527343 -2.789063,1.548829 v -3.076172 z"
     id="path16" />
</svg>
