<?xml version="1.0" encoding="UTF-8" standalone="no"?>
<!-- Generator: Gravit.io -->

<svg
   style="isolation:isolate"
   viewBox="0 0 48 48"
   width="48pt"
   height="48pt"
   version="1.1"
   id="svg9"
   sodipodi:docname="stage.svg"
   inkscape:version="1.1.2 (0a00cf5339, 2022-02-04)"
   xmlns:inkscape="http://www.inkscape.org/namespaces/inkscape"
   xmlns:sodipodi="http://sodipodi.sourceforge.net/DTD/sodipodi-0.dtd"
   xmlns:xlink="http://www.w3.org/1999/xlink"
   xmlns="http://www.w3.org/2000/svg"
   xmlns:svg="http://www.w3.org/2000/svg">
  <defs
     id="defs13">
    <linearGradient
       inkscape:collect="always"
       xlink:href="#_lgradient_43"
       id="linearGradient872"
       x1="-12.025727"
       y1="6.1170783"
       x2="-0.085100174"
       y2="6.1170783"
       gradientUnits="userSpaceOnUse"
       gradientTransform="matrix(3.8358211,0,0,3.8371386,-0.00544341,-0.00268054)" />
    <linearGradient
       inkscape:collect="always"
       xlink:href="#_lgradient_43"
       id="linearGradient15"
       x1="-9.6850061"
       y1="45.161198"
       x2="11.98815"
       y2="21.735205"
       gradientUnits="userSpaceOnUse"
       gradientTransform="matrix(1.1147442,0,0,1.1150348,-0.01237238,-3.3277956)" />
    <linearGradient
       inkscape:collect="always"
       xlink:href="#_lgradient_43"
       id="linearGradient1184"
       x1="12.391401"
       y1="24"
       x2="35.608601"
       y2="24"
       gradientUnits="userSpaceOnUse" />
  </defs>
  <sodipodi:namedview
     id="namedview11"
     pagecolor="#ffffff"
     bordercolor="#666666"
     borderopacity="1.0"
     inkscape:pageshadow="2"
     inkscape:pageopacity="0.0"
     inkscape:pagecheckerboard="0"
     inkscape:document-units="pt"
     showgrid="false"
     inkscape:zoom="10.21875"
     inkscape:cx="31.95107"
     inkscape:cy="32"
     inkscape:window-width="1600"
     inkscape:window-height="836"
     inkscape:window-x="0"
     inkscape:window-y="0"
     inkscape:window-maximized="1"
     inkscape:current-layer="svg9" />
  <linearGradient
     id="_lgradient_43"
     x1="0.06818181818176848"
     y1="0.2329545454545455"
     x2="0.9384302091713563"
     y2="0.7793895816572807"
     gradientTransform="matrix(22.733505,0,0,21.28243,12.633248,13.358785)"
     gradientUnits="userSpaceOnUse">
    <stop
       offset="0%"
       stop-opacity="1"
       style="stop-color:rgb(48,207,208)"
       id="stop2" />
    <stop
       offset="98.26086956521739%"
       stop-opacity="1"
       style="stop-color:rgb(51,8,103)"
       id="stop4" />
  </linearGradient>
  <rect
     x="-46.783188"
     y="1.2253767"
     height="45.80014"
     rx="6.1837621"
     shape-rendering="crispEdges"
     id="rect5-6-7-3"
     ry="6.8055277"
     transform="matrix(0.00524063,-0.99998627,0.99998801,0.00489691,0,0)"
     style="isolation:isolate;fill:#0500ff;fill-opacity:0.13470298;stroke:url(#linearGradient872);stroke-width:2.0301;stroke-miterlimit:4;stroke-dasharray:none;stroke-opacity:1"
     width="45.801998" />
  <rect
     x="-15.686804"
     y="17.260084"
     height="33.345856"
     rx="6.7920032"
     shape-rendering="crispEdges"
     id="rect5-6-6-6-6"
     style="isolation:isolate;fill:#0500ff;fill-opacity:0.13470298;stroke:url(#linearGradient15);stroke-width:1.67233;stroke-miterlimit:4;stroke-dasharray:none;stroke-opacity:1"
     ry="7.4743071"
     transform="matrix(0.72446484,-0.68931175,0.68622417,0.72739012,0,0)"
     width="33.338203" />
  <path
     style="color:#000000;fill:url(#linearGradient1184);fill-rule:evenodd;-inkscape-stroke:none"
     d="m 14.568359,12.859375 c -1.338521,0 -2.435546,1.095072 -2.435546,2.433594 v 0.726562 c 0,0.671028 0.555534,1.22461 1.226562,1.22461 0.671027,0 1.224609,-0.553582 1.224609,-1.22461 v -0.242187 c 0,-0.263465 0.203334,-0.466797 0.466797,-0.466797 h 17.898438 c 0.263463,0 0.466797,0.203332 0.466797,0.466797 v 5.078125 c 0,0.671027 0.553582,1.226562 1.224609,1.226562 0.671028,0 1.226563,-0.555535 1.226562,-1.226562 v -5.5625 c 0,-1.338522 -1.097025,-2.433594 -2.435546,-2.433594 z m 0,1 h 18.863282 c 0.797459,0 1.435546,0.636135 1.435546,1.433594 v 5.5625 c 0,0.129964 -0.0966,0.226562 -0.226562,0.226562 -0.129964,0 -0.224609,-0.0966 -0.224609,-0.226562 v -5.078125 c 0,-0.804527 -0.662272,-1.466797 -1.466797,-1.466797 H 15.050781 c -0.804525,0 -1.466797,0.66227 -1.466797,1.466797 v 0.242187 c 0,0.129964 -0.09464,0.22461 -0.224609,0.22461 -0.129966,0 -0.226562,-0.09465 -0.226562,-0.22461 v -0.726562 c 0,-0.797459 0.638087,-1.433594 1.435546,-1.433594 z m 5.441407,4.320312 c -1.739588,0 -3.160157,1.42057 -3.160157,3.160157 0,1.739587 1.420569,3.160156 3.160157,3.160156 1.739587,0 3.160156,-1.420569 3.160156,-3.160156 v -0.5 h -2.660156 v -2.660157 z m 4.15625,0 v 0.5 1.830079 h 6.984375 v -2.330079 z m 1,1 h 4.984375 v 0.330079 h -4.984375 z m -5.65625,0.207032 v 2.453125 h 2.453125 C 21.716117,22.761615 21.012921,23.5 20.009766,23.5 c -1.19932,0 -2.160157,-0.960836 -2.160157,-2.160156 0,-1.003156 0.738386,-1.706352 1.660157,-1.953125 z m -6.150391,1.210937 c -0.671028,0 -1.226563,0.555535 -1.226562,1.226563 v 10.882812 c -1e-6,1.338522 1.097025,2.433594 2.435546,2.433594 h 11.367188 c 0.368447,0 0.709734,-0.107985 0.982422,-0.3125 0.272687,-0.204515 0.484375,-0.531507 0.484375,-0.912109 0,-0.380603 -0.211688,-0.709547 -0.484375,-0.914063 -0.272688,-0.204515 -0.613975,-0.3125 -0.982422,-0.3125 h -4.232422 -6.652344 c -0.263463,0 -0.466797,-0.203332 -0.466797,-0.466797 V 21.824219 c 0,-0.671028 -0.553582,-1.226563 -1.224609,-1.226563 z m 10.806641,0.90625 v 0.5 1.830078 h 6.984375 v -2.330078 z m -10.806641,0.09375 c 0.129964,0 0.224609,0.0966 0.224609,0.226563 v 10.398437 c 0,0.804527 0.662272,1.466797 1.466797,1.466797 h 6.652344 4.232422 c 0.165548,0 0.305307,0.05515 0.382812,0.113281 0.07751,0.05813 0.08398,0.09339 0.08398,0.113282 0,0.01989 -0.0065,0.05515 -0.08398,0.113281 -0.07751,0.05813 -0.217264,0.111328 -0.382812,0.111328 H 14.568359 c -0.797459,0 -1.435547,-0.636135 -1.435546,-1.433594 V 21.824219 c 0,-0.129966 0.0966,-0.226563 0.226562,-0.226563 z m 11.806641,0.90625 h 4.984375 v 0.330078 h -4.984375 z m -8.316407,2.326172 v 0.5 1.830078 h 11.640625 v -2.330078 z m 17.791016,0.605469 c -0.671027,0 -1.224609,0.553582 -1.224609,1.224609 v 5.5625 c 0,0.263465 -0.203334,0.466797 -0.466797,0.466797 h -2.66211 c -0.368447,0 -0.709734,0.107984 -0.982422,0.3125 -0.272687,0.204516 -0.484375,0.533461 -0.484375,0.914063 0,0.380602 0.211688,0.707594 0.484375,0.912109 0.272688,0.204515 0.613975,0.3125 0.982422,0.3125 h 3.144532 c 1.338521,0 2.435547,-1.095072 2.435546,-2.433594 v -6.046875 c 0,-0.671027 -0.555534,-1.224609 -1.226562,-1.224609 z m -16.791016,0.394531 h 9.640625 v 0.330078 h -9.640625 z m 16.791016,0.605469 c 0.129966,0 0.226562,0.09464 0.226562,0.224609 v 6.046875 c 0,0.797459 -0.638087,1.433594 -1.435546,1.433594 h -3.144532 c -0.165548,0 -0.305307,-0.0532 -0.382812,-0.111328 -0.0775,-0.05813 -0.08398,-0.09339 -0.08398,-0.113281 0,-0.01989 0.0065,-0.05515 0.08398,-0.113282 0.0775,-0.05813 0.217264,-0.113281 0.382812,-0.113281 h 2.66211 c 0.804525,0 1.466797,-0.66227 1.466797,-1.466797 v -5.5625 c 0,-0.129965 0.09464,-0.224609 0.224609,-0.224609 z m -17.791016,1.054687 v 0.5 1.830078 h 14.300782 v -2.330078 z m 1,1 h 12.300782 v 0.330078 H 17.849609 Z"
     id="path7" />
</svg>
