<?xml version="1.0" encoding="UTF-8" standalone="no"?>
<svg
   width="48"
   height="48"
   version="1.1"
   viewBox="0 0 48 48"
   xml:space="preserve"
   id="svg19"
   sodipodi:docname="steam_icon_440.svg"
   inkscape:version="1.1.2 (0a00cf5339, 2022-02-04)"
   xmlns:inkscape="http://www.inkscape.org/namespaces/inkscape"
   xmlns:sodipodi="http://sodipodi.sourceforge.net/DTD/sodipodi-0.dtd"
   xmlns:xlink="http://www.w3.org/1999/xlink"
   xmlns="http://www.w3.org/2000/svg"
   xmlns:svg="http://www.w3.org/2000/svg"><sodipodi:namedview
     id="namedview21"
     pagecolor="#ffffff"
     bordercolor="#666666"
     borderopacity="1.0"
     inkscape:pageshadow="2"
     inkscape:pageopacity="0.0"
     inkscape:pagecheckerboard="0"
     showgrid="false"
     width="48px"
     showguides="false"
     inkscape:zoom="10.276619"
     inkscape:cx="22.526864"
     inkscape:cy="24.521684"
     inkscape:window-width="1600"
     inkscape:window-height="836"
     inkscape:window-x="0"
     inkscape:window-y="0"
     inkscape:window-maximized="1"
     inkscape:current-layer="svg19" /><defs
     id="defs14"><linearGradient
       inkscape:collect="always"
       id="linearGradient911"><stop
         style="stop-color:#ffcf11;stop-opacity:1;"
         offset="0"
         id="stop907" /><stop
         style="stop-color:#9e5421;stop-opacity:1"
         offset="1"
         id="stop909" /></linearGradient><linearGradient
       inkscape:collect="always"
       xlink:href="#linearGradient911"
       id="linearGradient872"
       x1="-12.025727"
       y1="6.1170783"
       x2="-0.085100174"
       y2="6.1170783"
       gradientUnits="userSpaceOnUse"
       gradientTransform="matrix(3.8366785,0,0,3.8379962,-1.0591751e-4,-0.00807312)" /><linearGradient
       inkscape:collect="always"
       xlink:href="#linearGradient911"
       id="linearGradient15"
       x1="-9.6850061"
       y1="45.161198"
       x2="11.98815"
       y2="21.735205"
       gradientUnits="userSpaceOnUse"
       gradientTransform="matrix(1.1149933,0,0,1.115284,-0.0125952,-3.3361236)" /><linearGradient
       inkscape:collect="always"
       xlink:href="#linearGradient911"
       id="linearGradient913"
       x1="9.08149"
       y1="24.000008"
       x2="38.919839"
       y2="24.000008"
       gradientUnits="userSpaceOnUse" /></defs><rect
     x="-46.788307"
     y="1.2202586"
     height="45.810375"
     rx="6.1851444"
     shape-rendering="crispEdges"
     id="rect5-6-7-3"
     ry="6.8070488"
     transform="matrix(0.00524063,-0.99998627,0.99998801,0.00489691,0,0)"
     style="isolation:isolate;fill:#fbff00;fill-opacity:0.13470298;stroke:url(#linearGradient872);stroke-width:2.03055;stroke-miterlimit:4;stroke-dasharray:none;stroke-opacity:1"
     width="45.812237" /><rect
     x="-15.69053"
     y="17.256357"
     height="33.35331"
     rx="6.7935209"
     shape-rendering="crispEdges"
     id="rect5-6-6-6-6"
     style="isolation:isolate;fill:#fbff00;fill-opacity:0.13470298;stroke:url(#linearGradient15);stroke-width:1.6727;stroke-miterlimit:4;stroke-dasharray:none;stroke-opacity:1"
     ry="7.4759774"
     transform="matrix(0.72446484,-0.68931175,0.68622417,0.72739012,0,0)"
     width="33.345654" /><path
     style="color:#000000;isolation:isolate;fill:url(#linearGradient913);-inkscape-stroke:none;fill-opacity:1"
     d="m 23.890625,8.9296875 c -3.329391,-0.2297544 -6.617012,1.0949805 -9.21875,3.1308595 -2.601738,2.035879 -4.537218,4.786267 -5.1191406,7.541015 l -0.109375,0.513672 9.4726566,1.525391 0.179687,-0.25 c 0.704396,-0.975749 1.176895,-1.756888 3.556641,-2.394531 l 0.316406,-0.08594 0.04883,-0.324219 1.412109,-9.6191401 z m 3.746094,0.4628906 -0.08789,0.5175782 C 27.031663,12.968791 26.602866,16.02641 26.197266,19.082031 l -0.04102,0.306641 0.257812,0.173828 c 1.044775,0.704349 2.068032,1.162181 2.785157,3.53125 l 0.0918,0.300781 0.3125,0.04883 9.273437,1.417969 0.02734,-0.552734 C 39.236311,17.465929 34.205283,10.827147 28.148437,9.5039063 Z m -4.371094,0.6171879 -1.201172,8.171875 c -2.033794,0.633384 -2.930643,1.53153 -3.558594,2.378906 L 10.753906,19.3125 c 0.639513,-2.294529 2.255343,-4.680873 4.535157,-6.464844 2.292784,-1.79412 5.141594,-2.8700575 7.976562,-2.83789 z m 5.175781,0.701172 c 5.086654,1.42337 9.380451,7.068612 9.382813,12.978515 l -7.837891,-1.199219 c -0.743441,-2.089574 -1.859591,-2.958905 -2.755859,-3.554687 0.365752,-2.745233 0.758772,-5.487626 1.210937,-8.224609 z M 9.1210938,23.140625 9.0957031,23.697266 C 8.7815385,30.455169 13.717779,37.163932 19.712891,38.460937 l 0.513671,0.111329 0.08594,-0.517579 c 0.503457,-3.014796 0.907869,-5.624746 1.302734,-8.646484 l 0.04687,-0.357422 -0.324218,-0.15625 c -1.007236,-0.489527 -2.478842,-1.663435 -2.839844,-3.927734 l -0.05664,-0.357422 -0.359375,-0.05664 z m 1.0546872,1.177734 7.445313,1.171875 c 0.479362,2.178667 1.831083,3.416391 2.96289,4.054688 -0.35239,2.670022 -0.725323,5.065518 -1.162109,7.707031 -5.006494,-1.404247 -9.22898,-7.097379 -9.246094,-12.933594 z m 18.816406,1.984375 -0.171875,0.275391 c -0.657328,1.05463 -1.294132,2.287921 -3.761718,2.779297 l -0.347657,0.06836 -0.04883,0.351563 -1.328125,9.265625 0.541016,0.03125 c 6.781932,0.400295 12.650259,-4.736943 14.355469,-10.740235 l 0.15039,-0.53125 -0.542968,-0.09766 c -3.020025,-0.543113 -5.502884,-0.924383 -8.523438,-1.357422 z m 0.460938,1.080078 c 2.65716,0.38246 4.953239,0.743787 7.566406,1.205079 -1.720144,5.155868 -6.731314,9.457158 -12.52539,9.410156 l 1.115234,-7.779297 c 2.270526,-0.575207 3.231042,-1.867069 3.84375,-2.835938 z"
     id="frame" /></svg>
