<?xml version="1.0" encoding="UTF-8" standalone="no"?>
<!-- Generator: Gravit.io -->

<svg
   style="isolation:isolate"
   viewBox="0 0 48 48"
   width="48pt"
   height="48pt"
   version="1.1"
   id="svg9"
   sodipodi:docname="steam.svg"
   inkscape:version="1.1.2 (0a00cf5339, 2022-02-04)"
   xmlns:inkscape="http://www.inkscape.org/namespaces/inkscape"
   xmlns:sodipodi="http://sodipodi.sourceforge.net/DTD/sodipodi-0.dtd"
   xmlns:xlink="http://www.w3.org/1999/xlink"
   xmlns="http://www.w3.org/2000/svg"
   xmlns:svg="http://www.w3.org/2000/svg">
  <defs
     id="defs13">
    <linearGradient
       inkscape:collect="always"
       xlink:href="#_lgradient_14"
       id="linearGradient872"
       x1="-12.025727"
       y1="6.1170783"
       x2="-0.085100174"
       y2="6.1170783"
       gradientUnits="userSpaceOnUse"
       gradientTransform="matrix(3.8358211,0,0,3.8371386,-0.00544341,-0.00268054)" />
    <linearGradient
       id="_lgradient_21"
       x1="0"
       y1="0.5"
       x2="1"
       y2="0.5"
       gradientTransform="matrix(28.183272,0,0,28.298876,9.8766106,9.8505561)"
       gradientUnits="userSpaceOnUse">
      <stop
         offset="0%"
         stop-opacity="1"
         style="stop-color:rgb(255,224,49)"
         id="stop2-3" />
      <stop
         offset="98.69565217391305%"
         stop-opacity="1"
         style="stop-color:rgb(252,82,82)"
         id="stop4-6" />
    </linearGradient>
    <linearGradient
       inkscape:collect="always"
       xlink:href="#_lgradient_14"
       id="linearGradient15"
       x1="-9.6850061"
       y1="45.161198"
       x2="11.98815"
       y2="21.735205"
       gradientUnits="userSpaceOnUse"
       gradientTransform="matrix(1.1147442,0,0,1.1150348,-0.01237238,-3.3277956)" />
    <linearGradient
       inkscape:collect="always"
       xlink:href="#_lgradient_14"
       id="linearGradient968"
       x1="12.566977"
       y1="24"
       x2="35.433022"
       y2="24"
       gradientUnits="userSpaceOnUse" />
  </defs>
  <sodipodi:namedview
     id="namedview11"
     pagecolor="#ffffff"
     bordercolor="#666666"
     borderopacity="1.0"
     inkscape:pageshadow="2"
     inkscape:pageopacity="0.0"
     inkscape:pagecheckerboard="0"
     inkscape:document-units="pt"
     showgrid="false"
     inkscape:zoom="7.2257474"
     inkscape:cx="32.038208"
     inkscape:cy="31.969011"
     inkscape:window-width="1600"
     inkscape:window-height="836"
     inkscape:window-x="0"
     inkscape:window-y="0"
     inkscape:window-maximized="1"
     inkscape:current-layer="svg9" />
  <linearGradient
     id="_lgradient_14"
     x1="-0.000038208333333289435"
     y1="0.5000000833333331"
     x2="0.9999618333333335"
     y2="0.5000000833333331"
     gradientTransform="matrix(22.866046,0,0,22.866046,12.566977,12.566977)"
     gradientUnits="userSpaceOnUse">
    <stop
       offset="0%"
       stop-opacity="1"
       style="stop-color:rgb(211,0,220)"
       id="stop2" />
    <stop
       offset="100%"
       stop-opacity="1"
       style="stop-color:rgb(135,0,255)"
       id="stop4" />
  </linearGradient>
  <rect
     x="-46.783188"
     y="1.2253767"
     height="45.80014"
     rx="6.1837621"
     shape-rendering="crispEdges"
     id="rect5-6-7-3"
     ry="6.8055277"
     transform="matrix(0.00524063,-0.99998627,0.99998801,0.00489691,0,0)"
     style="isolation:isolate;fill:#e000ff;fill-opacity:0.13470298;stroke:url(#linearGradient872);stroke-width:2.0301;stroke-miterlimit:4;stroke-dasharray:none;stroke-opacity:1"
     width="45.801998" />
  <rect
     x="-15.686804"
     y="17.260084"
     height="33.345856"
     rx="6.7920032"
     shape-rendering="crispEdges"
     id="rect5-6-6-6-6"
     style="isolation:isolate;fill:#e000ff;fill-opacity:0.13470298;stroke:url(#linearGradient15);stroke-width:1.67233;stroke-miterlimit:4;stroke-dasharray:none;stroke-opacity:1"
     ry="7.4743071"
     transform="matrix(0.72446484,-0.68931175,0.68622417,0.72739012,0,0)"
     width="33.338203" />
  <path
     style="color:#000000;fill:url(#linearGradient968);fill-rule:evenodd;-inkscape-stroke:none"
     d="m 15.902344,12.066406 c -2.110927,0 -3.835938,1.725011 -3.835938,3.835938 v 6.34375 c 0,1.03767 0.663898,2.044482 1.617188,2.453125 l 5.072265,2.173828 c -0.02075,0.05954 -0.03901,0.119041 -0.05664,0.179687 l -3.714844,-1.236328 c -0.745364,-0.24798 -1.494876,-0.163594 -2.046875,0.234375 -0.551999,0.39797 -0.871094,1.083361 -0.871094,1.869141 v 4.177734 c 0,2.110927 1.725011,3.835938 3.835938,3.835938 h 16.195312 c 2.110927,0 3.835938,-1.725011 3.835938,-3.835938 V 15.902344 c 0,-2.110927 -1.725011,-3.835938 -3.835938,-3.835938 z m 0,1 h 16.195312 c 1.569552,0 2.835938,1.266386 2.835938,2.835938 v 16.195312 c 0,1.569552 -1.266386,2.835938 -2.835938,2.835938 H 15.902344 c -1.569552,0 -2.835938,-1.266386 -2.835938,-2.835938 v -4.177734 c 0,-0.529016 0.188903,-0.864738 0.455078,-1.056641 0.266176,-0.191902 0.64665,-0.264599 1.148438,-0.09766 l 4.77539,1.589844 0.07031,-0.613282 c 0.03667,-0.322867 0.134275,-0.636121 0.285156,-0.921875 l 0.251953,-0.478515 -0.498047,-0.214844 -5.476562,-2.347656 C 13.582283,23.566746 13.066406,22.78618 13.066406,22.246094 v -6.34375 c 0,-1.569552 1.266386,-2.835938 2.835938,-2.835938 z m 0.951172,0.90625 c -1.585328,0 -2.88086,1.295532 -2.88086,2.88086 v 5.08789 c 0,0.511752 0.270932,0.923209 0.740235,1.125 l 5.654296,2.421875 0.53711,0.230469 0.195312,-0.08008 c 0.222901,-0.09261 0.457561,-0.155721 0.697266,-0.183594 l 0.246094,-0.02734 0.126953,-0.214843 0.216797,-0.367188 3.097656,-5.240234 0.248047,-0.423828 0.01563,-0.08594 c 0.123012,-0.649436 0.439144,-1.253596 0.912109,-1.726562 0.620283,-0.620283 1.463956,-0.966797 2.341797,-0.966797 0.877841,0 1.721515,0.346514 2.341797,0.966797 0.620282,0.620282 0.96875,1.465909 0.96875,2.34375 0,0.87784 -0.348468,1.721514 -0.96875,2.341796 -0.476691,0.476691 -1.085017,0.793126 -1.740234,0.914063 l -0.15625,0.0293 -0.289063,0.296875 -4.462891,4.599609 -0.0039,0.195313 c -0.01437,0.670098 -0.288884,1.308053 -0.759765,1.783203 -0.486512,0.48651 -1.150308,0.757812 -1.837891,0.757812 -0.6867,0 -1.349598,-0.270522 -1.835938,-0.755859 l -0.002,-0.002 c -0.08591,-0.08689 -0.163866,-0.178644 -0.236328,-0.275391 l -0.09375,-0.125 -0.832031,-0.277344 -3.107422,-1.039062 c -0.495688,-0.165756 -1.019699,-0.111811 -1.408203,0.167969 -0.388504,0.279779 -0.605469,0.760443 -0.605469,1.283203 v 1.539062 c 0,1.585328 1.295532,2.88086 2.88086,2.88086 h 14.292968 c 1.585328,0 2.88086,-1.295532 2.88086,-2.88086 V 16.853516 c 0,-1.585328 -1.295532,-2.88086 -2.88086,-2.88086 z m 0,1 h 14.292968 c 1.044266,0 1.88086,0.836594 1.88086,1.88086 v 1.416015 c -0.212294,-0.594879 -0.519451,-1.152263 -0.97461,-1.607422 -0.808844,-0.808844 -1.90879,-1.259765 -3.050781,-1.259765 -1.141991,0 -2.241937,0.450921 -3.050781,1.259765 -0.616982,0.616983 -1.025591,1.403569 -1.185547,2.248047 l 0.06055,-0.160156 -0.203125,0.345703 -3.097656,5.240234 -0.117188,0.197266 c -0.154091,0.03055 -0.305069,0.06906 -0.453125,0.119141 l -0.193359,-0.08203 -5.654297,-2.423828 c -0.01374,-0.0059 -0.134766,-0.190912 -0.134766,-0.205078 v -5.08789 c 0,-1.044266 0.836594,-1.88086 1.88086,-1.88086 z m 12.148437,1.857422 c -0.766411,0 -1.496769,0.305252 -2.037109,0.839844 l -0.002,0.002 -0.002,0.002 c -0.416848,0.421002 -0.641655,0.979451 -0.74414,1.558594 l -0.0059,-0.02344 -0.06641,0.115235 -0.0059,0.07422 c -9.8e-5,8.86e-4 -0.0019,0.0011 -0.002,0.002 l -0.01367,0.121093 0.0059,0.01563 c -0.0036,0.05839 -0.0098,0.116975 -0.0098,0.175782 0,0.766411 0.307203,1.496769 0.841796,2.037109 l 0.002,0.002 0.002,0.002 c 0.54034,0.534593 1.270698,0.839844 2.037109,0.839844 0.766411,0 1.496769,-0.305251 2.037109,-0.839844 l 0.002,-0.002 0.002,-0.002 c 0.534593,-0.54034 0.841797,-1.270698 0.841797,-2.037109 0,-0.766412 -0.307205,-1.498722 -0.841797,-2.039063 l -0.002,-0.002 -0.002,-0.002 c -0.54034,-0.534592 -1.270698,-0.839844 -2.037109,-0.839844 z m 0,1.953125 c 0.518346,0 0.929688,0.411342 0.929688,0.929688 0,0.518347 -0.411342,0.929687 -0.929688,0.929687 -0.518347,0 -0.929687,-0.41134 -0.929687,-0.929687 0,-0.518346 0.41134,-0.929688 0.929687,-0.929688 z m -1.660156,0.283203 c -0.02413,0.05997 -0.05419,0.113077 -0.07227,0.175781 l -0.0078,-0.0059 c 0.01714,-0.06131 0.05693,-0.110759 0.08008,-0.169922 z m -1.742188,1.179688 -3.052734,5.167968 0.533203,0.220704 c 0.315626,0.129846 0.605731,0.320575 0.851563,0.566406 0.158505,0.158506 0.296202,0.338448 0.408203,0.53125 l 0.332031,0.570312 4.064453,-4.195312 -0.761719,-0.246094 C 27.483193,22.701525 27.031377,22.425909 26.660156,22.054687 26.383926,21.778457 26.161397,21.457827 26,21.109375 Z m 7.427735,0.910156 v 9.990234 c 0,1.044266 -0.836594,1.88086 -1.88086,1.88086 H 16.853516 c -1.044266,0 -1.88086,-0.836594 -1.88086,-1.88086 v -1.539062 c 0,-0.266118 0.08729,-0.399084 0.189453,-0.472656 0.102163,-0.07357 0.255592,-0.113639 0.507813,-0.0293 l 3.107422,1.037109 0.554687,0.185547 c 0.07018,0.08502 0.138583,0.171061 0.216797,0.25 v 0.002 c 0.675845,0.675845 1.593774,1.050781 2.544922,1.050781 0.951149,0 1.869076,-0.374937 2.544922,-1.050781 h 0.002 v -0.002 c 0.590278,-0.594789 0.918242,-1.385303 0.996094,-2.21875 L 29.875,23.992187 30.048828,23.814453 c 0.73956,-0.190596 1.454396,-0.503223 2.003906,-1.052734 0.455159,-0.455159 0.762316,-1.01059 0.97461,-1.605469 z m -7.44336,1.080078 c 0.127389,0.173194 0.213351,0.371554 0.367188,0.525391 0.306957,0.306957 0.708699,0.465025 1.085937,0.664062 L 24.8125,25.720703 C 24.750528,25.647806 24.706711,25.56218 24.638672,25.494141 24.436271,25.29174 24.178021,25.174666 23.9375,25.027344 Z m -3.490234,3.630859 c -0.575645,10e-7 -1.12705,0.230207 -1.53125,0.640625 -0.09797,0.09739 -0.186487,0.202466 -0.263672,0.316407 l -0.0098,0.01367 -0.01563,0.02539 -0.0039,0.0059 -0.208984,0.304687 0.08984,0.08594 c -0.10047,0.252049 -0.222657,0.499272 -0.222657,0.77539 0,0.05305 0.0011,0.108336 0.0059,0.166016 l 0.002,0.0293 c 5.5e-5,6.01e-4 -5.5e-5,0.0014 0,0.002 0.04621,0.502997 0.268465,0.977449 0.628906,1.33789 0.403925,0.403925 0.953652,0.632813 1.529297,0.632813 0.575646,0 1.127325,-0.228889 1.53125,-0.632813 0.40726,-0.40726 0.636719,-0.95951 0.636719,-1.535156 0,-0.574135 -0.230277,-1.125379 -0.638672,-1.529297 -0.403918,-0.408394 -0.955161,-0.638671 -1.529297,-0.638672 z m 0,1.716797 c 0.255387,0 0.453125,0.195785 0.453125,0.451172 0,0.255387 -0.197738,0.453125 -0.453125,0.453125 -0.255387,0 -0.451172,-0.197738 -0.451172,-0.453125 0,-0.255387 0.195785,-0.451172 0.451172,-0.451172 z"
     id="path7" />
</svg>
