<?xml version="1.0" encoding="UTF-8" standalone="no"?>
<!-- Generator: Gravit.io -->

<svg
   style="isolation:isolate"
   viewBox="0 0 48 48"
   width="48pt"
   height="48pt"
   version="1.1"
   id="svg16"
   sodipodi:docname="strawberry.svg"
   inkscape:version="1.1.2 (0a00cf5339, 2022-02-04)"
   xmlns:inkscape="http://www.inkscape.org/namespaces/inkscape"
   xmlns:sodipodi="http://sodipodi.sourceforge.net/DTD/sodipodi-0.dtd"
   xmlns:xlink="http://www.w3.org/1999/xlink"
   xmlns="http://www.w3.org/2000/svg"
   xmlns:svg="http://www.w3.org/2000/svg">
  <defs
     id="defs20">
    <linearGradient
       inkscape:collect="always"
       xlink:href="#_lgradient_17"
       id="linearGradient872"
       x1="-12.025727"
       y1="6.1170783"
       x2="-0.085100174"
       y2="6.1170783"
       gradientUnits="userSpaceOnUse"
       gradientTransform="matrix(3.8358211,0,0,3.8371386,-0.00544341,-0.00268054)" />
    <linearGradient
       id="_lgradient_21"
       x1="0"
       y1="0.5"
       x2="1"
       y2="0.5"
       gradientTransform="matrix(28.183272,0,0,28.298876,9.8766106,9.8505561)"
       gradientUnits="userSpaceOnUse">
      <stop
         offset="0%"
         stop-opacity="1"
         style="stop-color:rgb(255,224,49)"
         id="stop2-3" />
      <stop
         offset="98.69565217391305%"
         stop-opacity="1"
         style="stop-color:rgb(252,82,82)"
         id="stop4-6" />
    </linearGradient>
    <linearGradient
       inkscape:collect="always"
       xlink:href="#_lgradient_17"
       id="linearGradient15"
       x1="-9.6850061"
       y1="45.161198"
       x2="11.98815"
       y2="21.735205"
       gradientUnits="userSpaceOnUse"
       gradientTransform="matrix(1.1147442,0,0,1.1150348,-0.01237238,-3.3277956)" />
    <linearGradient
       inkscape:collect="always"
       xlink:href="#_lgradient_16"
       id="linearGradient906"
       x1="17.319824"
       y1="19.7001"
       x2="46.285156"
       y2="19.7001"
       gradientUnits="userSpaceOnUse" />
    <linearGradient
       inkscape:collect="always"
       xlink:href="#_lgradient_17"
       id="linearGradient936"
       x1="12.03241"
       y1="28.148809"
       x2="35.967587"
       y2="28.148809"
       gradientUnits="userSpaceOnUse" />
  </defs>
  <sodipodi:namedview
     id="namedview18"
     pagecolor="#ffffff"
     bordercolor="#666666"
     borderopacity="1.0"
     inkscape:pageshadow="2"
     inkscape:pageopacity="0.0"
     inkscape:pagecheckerboard="0"
     inkscape:document-units="pt"
     showgrid="false"
     inkscape:zoom="5.109375"
     inkscape:cx="32"
     inkscape:cy="32.097859"
     inkscape:window-width="1600"
     inkscape:window-height="836"
     inkscape:window-x="0"
     inkscape:window-y="0"
     inkscape:window-maximized="1"
     inkscape:current-layer="svg16" />
  <linearGradient
     id="_lgradient_16"
     x1="0.18336115895060273"
     y1="0.24917751794896525"
     x2="0.9027436828643176"
     y2="0.9034772483231972"
     gradientTransform="matrix(28.965879,0,0,14.193121,17.319515,13.155144)"
     gradientUnits="userSpaceOnUse">
    <stop
       offset="2.608695652173913%"
       stop-opacity="1"
       style="stop-color:rgb(179,255,171)"
       id="stop2" />
    <stop
       offset="98.69565217391305%"
       stop-opacity="1"
       style="stop-color:rgb(18,255,247)"
       id="stop4" />
  </linearGradient>
  <rect
     x="-46.783188"
     y="1.2253767"
     height="45.80014"
     rx="6.1837621"
     shape-rendering="crispEdges"
     id="rect5-6-7-3"
     ry="6.8055277"
     transform="matrix(0.00524063,-0.99998627,0.99998801,0.00489691,0,0)"
     style="isolation:isolate;fill:#ff0068;fill-opacity:0.13470298;stroke:url(#linearGradient872);stroke-width:2.0301;stroke-miterlimit:4;stroke-dasharray:none;stroke-opacity:1"
     width="45.801998" />
  <rect
     x="-15.686804"
     y="17.260084"
     height="33.345856"
     rx="6.7920032"
     shape-rendering="crispEdges"
     id="rect5-6-6-6-6"
     style="isolation:isolate;fill:#ff0068;fill-opacity:0.13470298;stroke:url(#linearGradient15);stroke-width:1.67233;stroke-miterlimit:4;stroke-dasharray:none;stroke-opacity:1"
     ry="7.4743071"
     transform="matrix(0.72446484,-0.68931175,0.68622417,0.72739012,0,0)"
     width="33.338203" />
  <path
     style="color:#000000;fill:url(#linearGradient906);-inkscape-stroke:none"
     d="m 32.078125,12.490234 c -0.915386,-0.0086 -1.789834,0.314985 -2.476563,0.890625 l -0.0078,0.0059 -0.0059,0.0059 c -0.948604,0.839148 -1.688981,1.883305 -2.164063,3.052734 -0.462342,1.101404 -0.624102,2.290926 -0.689453,3.484375 -0.504302,-0.653359 -0.922643,-1.375472 -1.550781,-1.916015 l -0.002,-0.002 c -0.575429,-0.503218 -1.204954,-0.934082 -1.871094,-1.285157 -0.617635,-0.331181 -1.282294,-0.572474 -1.97461,-0.710937 -0.0364,-0.0073 -0.118621,-0.0293 -0.257812,-0.0293 l 0.06836,0.0039 -0.351562,-0.03711 h -0.16211 c -0.807165,0 -1.583595,0.264108 -2.228515,0.726562 -0.679508,0.47742 -1.183023,1.163679 -1.427735,1.958985 l -0.002,0.002 v 0.002 c -0.22037,0.734569 -0.329534,1.498233 -0.320312,2.263672 0.0092,1.195123 0.233163,2.381128 0.675781,3.492187 0.308572,0.784903 0.704435,1.53126 1.179688,2.22461 l 0.386718,0.5625 0.552735,-0.398438 c 0.66078,-0.47518 1.350266,-0.91429 2.060547,-1.314453 l 0.640625,-0.361328 -0.423829,-0.601562 C 21.396874,24.040839 21.1228,23.531835 20.910156,22.996094 20.646011,22.31686 20.509521,21.599508 20.501953,20.873047 v -0.002 -0.002 c -0.0066,-0.351399 0.05054,-0.703545 0.150391,-1.058594 0.0012,2.52e-4 0.0027,-2.54e-4 0.0039,0 0.284418,0.06154 0.573165,0.170523 0.830078,0.3125 l 0.0059,0.002 0.0059,0.0039 c 0.418622,0.220728 0.811367,0.485297 1.164062,0.792969 l 0.002,0.002 0.002,0.002 c 0.810579,0.6938 1.476244,1.542829 1.976562,2.494141 l 0.259766,0.49414 0.533203,-0.169921 c 1.485278,-0.475275 3.023253,-0.772782 4.576172,-0.884766 l 0.730468,-0.05273 -0.173828,-1.027344 v -0.0039 c -0.07547,-0.407541 -0.109375,-0.819906 -0.109375,-1.238282 v -0.002 -0.0039 c -0.0076,-0.894862 0.17707,-1.788638 0.521485,-2.615234 l 0.002,-0.002 c 0.248281,-0.602964 0.626083,-1.123626 1.099609,-1.560546 0.172591,0.17903 0.325733,0.360016 0.447266,0.560546 l 0.002,0.0039 0.0039,0.0059 c 0.204555,0.325772 0.372203,0.659956 0.496094,1.009766 l 0.002,0.0059 0.002,0.0039 c 0.34096,0.914393 0.513599,1.880309 0.50586,2.855469 v 0.0039 0.002 c 0,0.383092 -0.02537,0.767471 -0.07227,1.142579 l -0.117188,0.941406 0.66211,0.08398 c 0.632518,0.07935 1.242986,0.284333 1.867187,0.419922 l -0.0059,0.08398 0.04883,-0.07422 c 0.724537,0.158906 1.459459,0.257752 2.167969,0.488281 l 0.546875,0.177734 0.255859,-0.515625 c 0.500369,-1.00281 1.19538,-1.899804 2.044922,-2.626953 l 0.002,-0.002 0.002,-0.002 c 0.355985,-0.31054 0.740375,-0.573689 1.15625,-0.792969 l 0.0039,-0.002 h 0.002 c 0.270498,-0.145651 0.559344,-0.254912 0.84375,-0.316406 h 0.0039 c 0.09725,0.347611 0.150058,0.700395 0.150391,1.066406 -0.008,0.724384 -0.145873,1.437923 -0.416016,2.113281 l -0.002,0.0039 v 0.0039 c -0.212631,0.549729 -0.497962,1.072394 -0.841797,1.554687 l -0.453125,0.634766 0.697266,0.347656 c 0.737773,0.368957 1.459937,0.765977 2.164062,1.195313 l 0.544922,0.333984 0.355469,-0.53125 c 0.448668,-0.668086 0.828902,-1.383014 1.125,-2.136719 v -0.002 c 0.431713,-1.106267 0.664811,-2.291108 0.673828,-3.490234 v -0.0039 -0.002 c 0,-0.754734 -0.09847,-1.516402 -0.320313,-2.255859 l -0.002,-0.0059 -0.002,-0.0059 C 46.374266,17.84248 45.876867,17.159388 45.207031,16.681641 44.56079,16.217153 43.78131,15.953125 42.972656,15.953125 h -0.162109 l -0.351563,0.03711 0.06836,-0.0039 c -0.139478,0 -0.211926,0.02003 -0.244141,0.02539 l -0.01172,0.002 -0.01172,0.002 c -0.682384,0.138323 -1.342866,0.37909 -1.958985,0.708984 -4.77e-4,2.49e-4 -0.0015,-2.48e-4 -0.002,0 -0.674639,0.35096 -1.305957,0.782687 -1.880859,1.285157 -0.491237,0.422344 -0.853881,0.960249 -1.269532,1.453125 -0.106241,-0.96658 -0.160738,-1.944731 -0.503906,-2.861329 l -0.002,-0.002 C 36.427125,16.007548 36.148219,15.430585 35.802734,14.892578 35.486539,14.373266 35.10672,13.906742 34.675781,13.494141 l -0.0059,-0.0039 -0.0059,-0.0059 c -0.707546,-0.6469 -1.630882,-1.001724 -2.585937,-0.994141 z m -0.0098,1.330079 h 0.0078 0.0078 c 0.616245,-0.0066 1.212127,0.22474 1.675782,0.646484 0.352537,0.338623 0.656546,0.708552 0.908203,1.123047 l 0.0059,0.0078 0.0039,0.0078 c 0.2889,0.448554 0.527069,0.942048 0.712891,1.453125 l 0.002,0.002 v 0.0039 c 0.449049,1.197467 0.67197,2.466875 0.664063,3.746094 v 0.002 0.002 c 0,0.04249 -0.0023,0.0728 -0.0039,0.0957 l -0.07813,1.142578 c -0.388975,-0.08118 -0.769358,-0.20085 -1.162109,-0.261718 0.03064,-0.325416 0.06036,-0.651075 0.06055,-0.980469 v -0.002 c 0.0088,-1.137401 -0.19135,-2.264006 -0.587891,-3.328125 -0.159678,-0.448645 -0.370861,-0.867341 -0.615234,-1.257813 l -0.002,-0.0039 C 33.467635,15.88902 33.2288,15.605752 32.974609,15.351563 l -0.01758,-0.01953 -0.01953,-0.01563 c -0.22622,-0.193899 -0.533746,-0.305462 -0.861328,-0.298828 -0.30868,-0.007 -0.605982,0.08639 -0.833985,0.279297 l -0.0078,0.0078 -0.0078,0.0059 c -0.644201,0.577886 -1.145676,1.291245 -1.476562,2.09375 -0.409799,0.98352 -0.631407,2.05003 -0.623047,3.132812 v 0.0059 c 2.26e-4,0.369257 0.0467,0.745136 0.09766,1.121093 -1.262292,0.133772 -2.511426,0.36085 -3.730468,0.720704 -0.539113,-0.90687 -1.149801,-1.775036 -1.957032,-2.466797 l -0.002,-0.002 C 23.101279,19.537825 22.624593,19.218017 22.123047,18.953125 21.749659,18.747636 21.340676,18.589697 20.912109,18.5 l -0.03711,-0.0078 -0.255859,-0.02344 -0.05078,0.002 c -0.271011,0.01694 -0.51587,0.123075 -0.699218,0.25 -0.23926,0.165643 -0.391625,0.39462 -0.47461,0.626953 l -0.0078,0.01758 -0.0039,0.01953 c -0.141697,0.481774 -0.222251,0.984423 -0.21289,1.503906 7e-6,6.42e-4 -7e-6,0.0013 0,0.002 v 0.002 c 0.0097,0.882799 0.175479,1.758427 0.498047,2.587891 v 0.002 l 0.002,0.002 c 0.165338,0.41728 0.409922,0.792398 0.636719,1.177734 -0.338738,0.203259 -0.669982,0.416636 -0.998047,0.636719 -0.268209,-0.452091 -0.54579,-0.900646 -0.738282,-1.390625 l -0.002,-0.002 c -0.379204,-0.95188 -0.574234,-1.978144 -0.582031,-3.013672 v -0.002 c -0.0075,-0.626386 0.08373,-1.256288 0.265625,-1.863281 1.87e-4,-6.24e-4 -1.87e-4,-0.0013 0,-0.002 0.158117,-0.510562 0.477772,-0.947648 0.919922,-1.257813 l 0.0039,-0.002 0.002,-0.002 c 0.42809,-0.30769 0.938371,-0.478516 1.455078,-0.478516 h 0.0918 l 0.31836,0.0332 h 0.03516 c -0.0553,0 -0.0514,-0.0037 -0.0039,0.0059 0.563902,0.11278 1.10451,0.308808 1.609375,0.580078 h 0.0039 l 0.002,0.002 c 0.574539,0.302798 1.117515,0.675823 1.615234,1.111328 l 0.002,0.002 0.002,0.002 c 0.992082,0.852952 1.824694,1.877924 2.451172,3.023438 l 1.246093,-0.396485 c -0.04157,-0.365553 -0.0625,-0.732227 -0.0625,-1.103515 v -0.002 -0.002 c -0.0078,-1.23528 0.236097,-2.454528 0.712891,-3.587891 v -0.0039 l 0.002,-0.0039 c 0.395868,-0.974443 1.014633,-1.840002 1.806641,-2.542968 0.451421,-0.375933 1.014108,-0.588581 1.603515,-0.582031 z m 10.8125,3.464843 h 0.0918 c 0.516709,0 1.029566,0.171274 1.457031,0.478516 v 0.002 h 0.002 c 0.435087,0.309834 0.756982,0.750113 0.923828,1.267578 0.179228,0.600381 0.263672,1.2302 0.263672,1.865234 -0.0085,1.030227 -0.211116,2.05624 -0.583985,3.011719 -0.18513,0.47099 -0.448796,0.905088 -0.705078,1.341797 -0.345683,-0.199591 -0.694549,-0.39253 -1.046875,-0.578125 0.230059,-0.389971 0.48015,-0.768642 0.644531,-1.193359 0.331803,-0.831631 0.498604,-1.708994 0.507813,-2.591797 v -0.0039 -0.0039 c 0,-0.504284 -0.06856,-1.005381 -0.212891,-1.496093 l -0.0039,-0.01953 -0.0078,-0.01758 c -0.09035,-0.25297 -0.253127,-0.460785 -0.474609,-0.617187 -0.199493,-0.146428 -0.430466,-0.242216 -0.693359,-0.259766 l -0.05273,-0.002 -0.259765,0.02344 -0.03711,0.0078 c -0.42931,0.08985 -0.838092,0.24695 -1.214843,0.449219 -0.505235,0.266397 -0.974856,0.589074 -1.40625,0.964843 -7.03e-4,6.02e-4 -0.0013,0.0014 -0.002,0.002 -6.86e-4,5.98e-4 -0.0013,0.0014 -0.002,0.002 -0.843262,0.722627 -1.472839,1.641108 -2.021484,2.599609 -0.442509,-0.134593 -0.902407,-0.19408 -1.351563,-0.302734 l 0.582032,-0.894532 c 0.557095,-0.856581 1.234471,-1.630584 2.011718,-2.298828 l 0.002,-0.002 0.002,-0.002 c 0.497296,-0.435134 1.039627,-0.807012 1.621093,-1.109375 l 0.0059,-0.002 0.0039,-0.002 c 0.505264,-0.271485 1.045913,-0.467445 1.601563,-0.580078 l -0.02344,0.0039 c 0.06846,-0.01139 0.08097,-0.0098 0.02539,-0.0098 h 0.03516 z"
     id="path7"
     transform="scale(0.75)" />
  <linearGradient
     id="_lgradient_17"
     x1="0.5180870166680417"
     y1="0.03333118384844386"
     x2="0.5073273481398528"
     y2="0.9681890995036899"
     gradientTransform="matrix(23.935163,0,0,23.088987,12.032104,16.604315)"
     gradientUnits="userSpaceOnUse">
    <stop
       offset="0%"
       stop-opacity="1"
       style="stop-color:rgb(244,97,51)"
       id="stop9" />
    <stop
       offset="98.75%"
       stop-opacity="1"
       style="stop-color:rgb(240,80,129)"
       id="stop11" />
  </linearGradient>
  <path
     style="color:#000000;fill:url(#linearGradient936);fill-rule:evenodd;-inkscape-stroke:none"
     d="m 23.566406,16.103516 c -1.767598,0 -3.529038,0.299877 -5.199219,0.884765 h -0.002 c -1.728724,0.615089 -3.352642,1.50212 -4.802734,2.615235 -0.587507,0.446208 -1.00506,1.078832 -1.183594,1.792968 l -0.662109,2.652344 v 0.07422 l 0.01367,-0.115235 c -0.140974,0.604175 -0.210424,1.224769 -0.197266,1.845704 2.8e-5,0.0013 -2.8e-5,0.0026 0,0.0039 4.69e-4,0.431522 0.02768,0.863317 0.08008,1.289062 v 0.002 c 0.05369,0.422833 0.141838,0.842546 0.271485,1.251954 v 0.002 l 0.002,0.0039 c 0.440646,1.341096 0.964397,2.64959 1.564453,3.919922 0.464715,0.981065 1.007311,1.917856 1.626953,2.808594 v 0.002 h 0.002 c 0.202916,0.288008 0.415006,0.564766 0.625,0.832031 l 0.0039,0.0059 0.002,0.0039 c 0.203979,0.248599 0.411215,0.495006 0.634765,0.738281 h 0.002 l 0.002,0.002 c 0.529896,0.569147 1.112256,1.092891 1.736328,1.552734 0.570881,0.424588 1.186634,0.781618 1.833985,1.072266 0.624397,0.278985 1.281601,0.491398 1.958984,0.630859 0.695199,0.145665 1.407688,0.21875 2.121094,0.21875 0.725373,0 1.446894,-0.07213 2.15625,-0.224609 0.683235,-0.145934 1.345385,-0.365926 1.980469,-0.650391 h 0.002 c 0.656045,-0.298201 1.278841,-0.670138 1.855469,-1.107422 0.634528,-0.477531 1.224572,-1.01347 1.755859,-1.603515 0.8777,-0.968721 1.631431,-2.048541 2.242187,-3.205078 0.843163,-1.603287 1.552468,-3.271046 2.121094,-4.996094 l 0.002,-0.0039 v -0.002 c 0.129647,-0.409408 0.217792,-0.82912 0.271485,-1.251954 v -0.002 c 0.05239,-0.425737 0.07961,-0.85754 0.08008,-1.289062 v -0.0039 c 0.01316,-0.620937 -0.05629,-1.24153 -0.197266,-1.845704 l 0.01367,0.115235 v -0.07422 l -0.662109,-2.652344 v -0.002 c -0.188499,-0.746457 -0.655102,-1.390305 -1.292969,-1.810547 h -0.002 c -1.671869,-1.093145 -3.47136,-1.961807 -5.361328,-2.591797 h -0.002 c -1.741099,-0.57605 -3.559917,-0.88218 -5.394532,-0.888671 z m -0.002,1 c 1.725598,0.0061 3.440939,0.294491 5.083984,0.83789 1.809298,0.6031 3.531268,1.432629 5.13086,2.478516 0.431647,0.284379 0.745029,0.721487 0.871094,1.220703 l 0.632812,2.53125 v 0.0078 l 0.01367,0.05664 c 0.122965,0.526991 0.181559,1.06426 0.169922,1.599609 v 0.0039 0.0059 c 0,0.395019 -0.02449,0.791416 -0.07227,1.179688 -0.04698,0.36919 -0.123188,0.727319 -0.232422,1.072265 -0.550987,1.670761 -1.237632,3.284248 -2.054687,4.837891 -0.572004,1.083154 -1.276714,2.093923 -2.097656,3 h -0.002 c -0.487416,0.541575 -1.029991,1.036123 -1.615234,1.476562 v 0.002 h -0.002 c -0.516516,0.39184 -1.074446,0.724715 -1.662109,0.992188 -5.68e-4,2.54e-4 -0.0014,-2.54e-4 -0.002,0 -8.13e-4,3.7e-4 -0.0011,0.0016 -0.002,0.002 -0.571623,0.255717 -1.165988,0.45145 -1.777343,0.582031 h -0.002 C 25.308328,39.127157 24.658706,39.193359 24,39.193359 c -0.645509,0 -1.290048,-0.06611 -1.916016,-0.197265 h -0.002 C 21.476607,38.871447 20.887937,38.68075 20.330078,38.431641 h -0.002 c -0.584352,-0.262492 -1.138276,-0.585189 -1.648438,-0.964844 h -0.002 C 18.106465,37.045861 17.569369,36.562644 17.080078,36.037109 16.878943,35.818114 16.687787,35.589798 16.492187,35.351562 16.287848,35.091495 16.0849,34.828908 15.898438,34.564453 l -0.002,-0.0039 c -0.58724,-0.844579 -1.102364,-1.731946 -1.542968,-2.66211 h 0.002 c -0.582084,-1.232283 -1.090312,-2.500991 -1.517578,-3.800781 l -0.002,-0.0039 c -0.108556,-0.343729 -0.183664,-0.700591 -0.230469,-1.068359 v -0.002 c -0.04763,-0.387646 -0.07227,-0.783367 -0.07227,-1.177734 v -0.0059 -0.0039 c -0.01164,-0.535352 0.04696,-1.072619 0.169922,-1.599609 l 0.01367,-0.05664 v -0.0078 l 0.632812,-2.533203 c 0.123447,-0.493791 0.411847,-0.929537 0.81836,-1.238281 v -0.002 h 0.002 c 1.367863,-1.050324 2.901274,-1.886843 4.53125,-2.466796 1.561838,-0.546484 3.210368,-0.827907 4.863281,-0.828125 z m -0.0039,0.888671 c -1.553345,0 -3.094531,0.260404 -4.556641,0.769532 h -0.002 l -0.002,0.002 c -1.544111,0.551468 -2.989429,1.343733 -4.287109,2.341797 -0.258872,0.18873 -0.423152,0.453844 -0.5,0.732422 l -0.002,0.0059 -0.642579,2.59375 v 0.002 c -0.111128,0.458421 -0.159797,0.932234 -0.146484,1.402344 5.5e-5,0.0019 -5.7e-5,0.0039 0,0.0059 4.91e-4,0.351248 0.02056,0.705903 0.06641,1.0625 0.03568,0.31397 0.10577,0.618924 0.195313,0.908203 v 0.0039 l 0.002,0.0039 c 0.415399,1.265367 0.906529,2.498638 1.46875,3.693359 l 0.002,0.002 c 0.421125,0.887601 0.913053,1.730012 1.46875,2.53125 0.178459,0.257688 0.367889,0.506073 0.5625,0.746094 0.173934,0.220349 0.362484,0.433252 0.546875,0.636719 l 0.002,0.002 v 0.002 c 0.444151,0.483925 0.940063,0.9265 1.46875,1.316406 v -0.002 c 0.463482,0.342573 0.959915,0.632729 1.482422,0.867188 h 0.002 0.002 c 0.497774,0.21902 1.020524,0.394997 1.56836,0.503906 6.33e-4,1.34e-4 0.0013,-1.34e-4 0.002,0 0.569544,0.120469 1.157105,0.181641 1.738281,0.181641 0.592334,0 1.181072,-0.06057 1.763672,-0.1875 0.545121,-0.114409 1.081003,-0.289066 1.591797,-0.517579 h 0.002 l 0.002,-0.002 c 0.530099,-0.241564 1.032165,-0.542659 1.5,-0.896484 l 0.0039,-0.002 c 0.542287,-0.403772 1.037114,-0.860286 1.490235,-1.359375 h 0.002 c 0.770209,-0.855063 1.427916,-1.801854 1.96875,-2.81836 v -0.002 c 0.793478,-1.50377 1.459421,-3.07729 1.990234,-4.695312 l 0.002,-0.0039 v -0.0039 c 0.08954,-0.289275 0.159631,-0.594238 0.195313,-0.908203 0.04585,-0.356597 0.06592,-0.711252 0.06641,-1.0625 v -0.0059 c 0.01331,-0.470111 -0.03535,-0.94392 -0.146484,-1.402344 v -0.0078 l -0.839844,-3.074219 -0.164063,-0.103516 c -0.042,-0.02672 -0.802436,-0.52486 -1.628906,-1.066406 l -0.02734,-0.01758 -0.0293,-0.01367 c 0,0 -1.634895,-0.796918 -3.375,-1.376953 C 26.819596,18.2656 25.19473,17.998699 23.5625,17.992187 Z m -0.0039,1 c 1.525987,0.0061 3.047087,0.254051 4.49414,0.734375 1.645217,0.548406 3.209595,1.307293 3.232422,1.31836 0.723077,0.473787 1.247999,0.817549 1.445313,0.945312 l 0.572265,2.09375 c -0.216692,-0.35933 -0.576995,-0.669922 -1.042969,-0.669922 -0.46862,0 -0.834535,0.311884 -1.050781,0.673829 -0.216246,0.361944 -0.328125,0.810591 -0.328125,1.296875 0,0.486284 0.111879,0.932977 0.328125,1.294921 0.216246,0.361945 0.582161,0.673829 1.050781,0.673829 0.468621,0 0.832583,-0.311884 1.048829,-0.673829 0.168932,-0.282752 0.217947,-0.647018 0.255859,-1.011718 2.8e-4,0.0506 0.01711,0.09998 0.01563,0.15039 v 0.0078 0.0078 c 0,0.321214 -0.01768,0.639436 -0.05859,0.955078 v 0.0039 0.0039 c -0.02724,0.239667 -0.08417,0.48737 -0.158203,0.726562 -0.513088,1.56244 -1.154521,3.080693 -1.919922,4.53125 -0.503374,0.945828 -1.115905,1.824334 -1.830078,2.617188 -0.413606,0.45532 -0.86024,0.865926 -1.347656,1.228516 l -0.002,0.002 -0.002,0.002 c -0.411951,0.311904 -0.851853,0.574351 -1.314454,0.785156 -0.444975,0.198921 -0.913255,0.351803 -1.386718,0.451172 h -0.002 -0.002 C 25.043855,37.252186 24.526215,37.306641 24,37.306641 c -0.512859,0 -1.031873,-0.0544 -1.53125,-0.160157 h -0.0039 -0.0039 c -0.467025,-0.09225 -0.921051,-0.243214 -1.363281,-0.4375 l -0.0039,-0.002 c -0.457457,-0.205602 -0.891381,-0.45759 -1.294922,-0.755859 -0.477916,-0.352463 -0.927292,-0.754853 -1.326172,-1.189453 -0.177951,-0.19643 -0.352732,-0.396016 -0.503906,-0.587891 l -0.002,-0.002 -0.002,-0.002 c -0.18254,-0.225133 -0.356568,-0.45493 -0.517578,-0.6875 -0.525892,-0.758263 -0.990232,-1.553354 -1.386719,-2.388672 l -0.002,-0.002 c -0.543362,-1.154883 -1.018295,-2.346102 -1.419922,-3.56836 -0.07404,-0.239187 -0.130969,-0.4869 -0.158203,-0.726562 v -0.0039 -0.0039 c -0.04092,-0.315642 -0.05859,-0.633864 -0.05859,-0.955078 v -0.0078 -0.0078 c -0.01124,-0.382307 0.0281,-0.771602 0.117188,-1.140625 v -0.0039 l 0.638671,-2.570312 c 0.0232,-0.08409 0.0729,-0.155849 0.125,-0.19336 l 0.0059,-0.0039 0.0059,-0.0039 c 1.215885,-0.936232 2.571355,-1.678314 4.017578,-2.195313 1.355162,-0.471887 2.784626,-0.714409 4.22461,-0.714844 z m 0.257812,2.126954 c -0.468621,0 -0.832582,0.311883 -1.048828,0.673828 -0.216246,0.361944 -0.328125,0.808638 -0.328125,1.294922 0,0.486284 0.111879,0.932977 0.328125,1.294921 0.216246,0.361945 0.580208,0.673829 1.048828,0.673829 0.468621,0 0.832582,-0.311884 1.048828,-0.673829 0.216246,-0.361944 0.328125,-0.808637 0.328125,-1.294921 0,-0.486284 -0.111879,-0.932978 -0.328125,-1.294922 -0.216246,-0.361945 -0.580207,-0.673828 -1.048828,-0.673828 z m 0,1 c 0.01581,0 0.08994,0.01572 0.191406,0.185546 0.101464,0.169826 0.185547,0.458543 0.185547,0.783204 0,0.324661 -0.08408,0.611425 -0.185547,0.78125 -0.101463,0.169825 -0.175598,0.1875 -0.191406,0.1875 -0.01581,0 -0.08994,-0.01768 -0.191406,-0.1875 -0.101463,-0.169826 -0.185547,-0.45659 -0.185547,-0.78125 0,-0.32466 0.08408,-0.613378 0.185547,-0.783204 0.101463,-0.169825 0.175599,-0.185546 0.191406,-0.185546 z m -3.832031,0.666015 c -0.468621,0 -0.832582,0.311884 -1.048828,0.673828 -0.216246,0.361945 -0.328125,0.808638 -0.328125,1.294922 0,0.486284 0.111879,0.932978 0.328125,1.294922 0.216246,0.361944 0.580207,0.675781 1.048828,0.675781 0.468621,0 0.834535,-0.313837 1.050781,-0.675781 0.216246,-0.361944 0.328125,-0.808638 0.328125,-1.294922 0,-0.486284 -0.111879,-0.932977 -0.328125,-1.294922 -0.216246,-0.361944 -0.582161,-0.673828 -1.050781,-0.673828 z m 8.179687,0 c -0.46862,0 -0.834535,0.311884 -1.050781,0.673828 -0.216246,0.361945 -0.328125,0.808638 -0.328125,1.294922 0,0.486284 0.111879,0.932978 0.328125,1.294922 0.216246,0.361945 0.582161,0.675781 1.050781,0.675781 0.468621,0 0.832583,-0.313837 1.048828,-0.675781 0.216246,-0.361944 0.328125,-0.808638 0.328125,-1.294922 0,-0.486284 -0.111879,-0.932977 -0.328125,-1.294922 -0.216245,-0.361944 -0.580207,-0.673828 -1.048828,-0.673828 z m -11.953125,0.628906 c -0.46862,0 -0.834535,0.311884 -1.050781,0.673829 -0.216246,0.361944 -0.328125,0.810591 -0.328125,1.296875 0,0.486284 0.111879,0.932977 0.328125,1.294921 0.216246,0.361945 0.582161,0.673829 1.050781,0.673829 0.468621,0 0.832582,-0.311884 1.048828,-0.673829 0.216247,-0.361944 0.328125,-0.808637 0.328125,-1.294921 0,-0.486284 -0.111878,-0.934931 -0.328125,-1.296875 -0.216246,-0.361945 -0.580207,-0.673829 -1.048828,-0.673829 z m 3.773438,0.371094 c 0.01581,0 0.08994,0.01768 0.191406,0.1875 0.101463,0.169825 0.1875,0.45659 0.1875,0.78125 0,0.32466 -0.08604,0.613378 -0.1875,0.783203 -0.101463,0.169826 -0.175599,0.1875 -0.191406,0.1875 -0.01581,0 -0.08994,-0.01767 -0.191406,-0.1875 -0.101464,-0.169825 -0.185547,-0.458543 -0.185547,-0.783203 0,-0.32466 0.08408,-0.611425 0.185547,-0.78125 0.101463,-0.169825 0.175598,-0.1875 0.191406,-0.1875 z m 8.179687,0 c 0.01581,0 0.08994,0.01768 0.191407,0.1875 0.101463,0.169825 0.185546,0.45659 0.185546,0.78125 0,0.32466 -0.08408,0.613378 -0.185546,0.783203 -0.101464,0.169826 -0.1756,0.1875 -0.191407,0.1875 -0.01581,0 -0.08994,-0.01767 -0.191406,-0.1875 -0.101463,-0.169825 -0.1875,-0.458542 -0.1875,-0.783203 0,-0.324661 0.08604,-0.611425 0.1875,-0.78125 0.101463,-0.169825 0.175598,-0.1875 0.191406,-0.1875 z m 5.214844,0.580078 0.08398,0.308594 c 0.0032,0.01326 8.22e-4,0.02771 0.0039,0.04102 -0.03059,-0.116787 -0.04176,-0.24285 -0.08789,-0.34961 z m -17.167969,0.04883 c 0.01581,0 0.08994,0.01767 0.191407,0.1875 0.101463,0.169826 0.185546,0.458544 0.185546,0.783204 0,0.32466 -0.08408,0.611424 -0.185546,0.78125 -0.101464,0.169825 -0.175599,0.1875 -0.191407,0.1875 -0.01581,0 -0.08994,-0.01768 -0.191406,-0.1875 -0.101463,-0.169826 -0.1875,-0.45659 -0.1875,-0.78125 0,-0.32466 0.08604,-0.613378 0.1875,-0.783204 0.101463,-0.169825 0.1756,-0.1875 0.191406,-0.1875 z m 16.048828,0 c 0.01581,0 0.08994,0.01767 0.191407,0.1875 0.101463,0.169826 0.185547,0.458544 0.185547,0.783204 0,0.32466 -0.08408,0.611424 -0.185547,0.78125 -0.101464,0.169825 -0.1756,0.1875 -0.191407,0.1875 -0.01581,0 -0.08994,-0.01768 -0.191406,-0.1875 -0.101463,-0.169826 -0.1875,-0.45659 -0.1875,-0.78125 0,-0.32466 0.08604,-0.613378 0.1875,-0.783204 0.101464,-0.169825 0.1756,-0.1875 0.191406,-0.1875 z m -8.443359,2.367188 c -0.468621,0 -0.832582,0.311884 -1.048828,0.673828 C 22.549379,27.817023 22.4375,28.263715 22.4375,28.75 c 0,0.486284 0.111879,0.932978 0.328125,1.294922 0.216246,0.361944 0.580207,0.673828 1.048828,0.673828 0.468621,0 0.832582,-0.311884 1.048828,-0.673828 0.216246,-0.361945 0.328125,-0.808638 0.328125,-1.294922 0,-0.486284 -0.111879,-0.932977 -0.328125,-1.294922 -0.216246,-0.361944 -0.580207,-0.673828 -1.048828,-0.673828 z m -5.851562,0.388672 c -0.468621,0 -0.832583,0.311884 -1.048829,0.673828 -0.216245,0.361944 -0.328124,0.810591 -0.328125,1.296875 0,0.486284 0.11188,0.932977 0.328125,1.294922 0.216246,0.361944 0.580208,0.673828 1.048829,0.673828 0.46862,0 0.834535,-0.311884 1.050781,-0.673828 0.216246,-0.361944 0.328125,-0.808638 0.328125,-1.294922 0,-0.486285 -0.111879,-0.934931 -0.328125,-1.296875 -0.216246,-0.361944 -0.582161,-0.673828 -1.050781,-0.673828 z m 11.777343,0 c -0.46862,0 -0.832582,0.311884 -1.048828,0.673828 -0.216246,0.361944 -0.328125,0.81059 -0.328125,1.296875 0,0.486284 0.111879,0.932978 0.328125,1.294922 0.216246,0.361944 0.580208,0.673828 1.048828,0.673828 0.468621,0 0.834536,-0.311884 1.050782,-0.673828 0.216245,-0.361945 0.328125,-0.808638 0.328125,-1.294922 0,-0.486284 -0.111879,-0.934931 -0.328125,-1.296875 -0.216246,-0.361944 -0.582161,-0.673828 -1.050782,-0.673828 z m -5.925781,0.611328 c 0.01581,0 0.08994,0.01572 0.191406,0.185547 0.101464,0.169825 0.185547,0.458542 0.185547,0.783203 0,0.32466 -0.08408,0.611425 -0.185547,0.78125 -0.101463,0.169825 -0.175598,0.1875 -0.191406,0.1875 -0.01581,0 -0.08994,-0.01768 -0.191406,-0.1875 C 23.521584,29.361425 23.4375,29.07466 23.4375,28.75 c 0,-0.324661 0.08408,-0.613378 0.185547,-0.783203 0.101463,-0.169826 0.175599,-0.185547 0.191406,-0.185547 z m -5.851562,0.388672 c 0.01581,0 0.08994,0.01768 0.191406,0.1875 0.101463,0.169825 0.1875,0.458542 0.1875,0.783203 0,0.32466 -0.08604,0.611425 -0.1875,0.78125 -0.101463,0.169825 -0.1756,0.1875 -0.191406,0.1875 -0.01581,0 -0.08994,-0.01768 -0.191407,-0.1875 -0.101463,-0.169825 -0.185547,-0.45659 -0.185547,-0.78125 0,-0.324661 0.08408,-0.613378 0.185547,-0.783203 0.101463,-0.169825 0.175599,-0.1875 0.191407,-0.1875 z m 11.777343,0 c 0.01581,0 0.08994,0.01768 0.191407,0.1875 0.101463,0.169825 0.1875,0.458542 0.1875,0.783203 0,0.32466 -0.08604,0.611425 -0.1875,0.78125 -0.101464,0.169825 -0.175599,0.1875 -0.191407,0.1875 -0.01581,0 -0.08994,-0.01768 -0.191406,-0.1875 -0.101463,-0.169825 -0.185547,-0.45659 -0.185547,-0.78125 0,-0.324661 0.08408,-0.613378 0.185547,-0.783203 0.101463,-0.169825 0.175599,-0.1875 0.191406,-0.1875 z m -7.68164,3.628906 c -0.468621,0 -0.832582,0.311884 -1.048828,0.673828 -0.216246,0.361944 -0.328125,0.808638 -0.328125,1.294922 0,0.486285 0.111879,0.932978 0.328125,1.294922 0.216246,0.361944 0.580207,0.673828 1.048828,0.673828 0.46862,0 0.834535,-0.311884 1.050781,-0.673828 0.216246,-0.361944 0.328125,-0.808637 0.328125,-1.294922 0,-0.486284 -0.111879,-0.932978 -0.328125,-1.294922 -0.216246,-0.361944 -0.582161,-0.673828 -1.050781,-0.673828 z m 4.464843,0 c -0.46862,0 -0.834535,0.311884 -1.050781,0.673828 -0.216246,0.361944 -0.328125,0.808638 -0.328125,1.294922 0,0.486285 0.111879,0.932978 0.328125,1.294922 0.216246,0.361944 0.582161,0.673828 1.050781,0.673828 0.468621,0 0.832583,-0.311884 1.048829,-0.673828 0.216246,-0.361944 0.328125,-0.808637 0.328125,-1.294922 0,-0.486284 -0.111879,-0.932978 -0.328125,-1.294922 -0.216246,-0.361944 -0.580208,-0.673828 -1.048829,-0.673828 z m -4.464843,1 c 0.01581,0 0.08994,0.01572 0.191406,0.185547 0.101463,0.169825 0.1875,0.458542 0.1875,0.783203 0,0.324661 -0.08604,0.611425 -0.1875,0.78125 -0.101463,0.169825 -0.175599,0.1875 -0.191406,0.1875 -0.01581,0 -0.08994,-0.01767 -0.191407,-0.1875 -0.101463,-0.169825 -0.185546,-0.456589 -0.185546,-0.78125 0,-0.324661 0.08408,-0.613378 0.185546,-0.783203 0.101464,-0.169825 0.1756,-0.185547 0.191407,-0.185547 z m 4.464843,0 c 0.01581,0 0.08994,0.01572 0.191407,0.185547 0.101463,0.169825 0.185547,0.458542 0.185547,0.783203 0,0.324661 -0.08408,0.611425 -0.185547,0.78125 -0.101463,0.169825 -0.175599,0.1875 -0.191407,0.1875 -0.01581,0 -0.08994,-0.01767 -0.191406,-0.1875 -0.101463,-0.169825 -0.1875,-0.456589 -0.1875,-0.78125 0,-0.324661 0.08604,-0.613378 0.1875,-0.783203 0.101463,-0.169825 0.175599,-0.185547 0.191406,-0.185547 z"
     id="path14" />
</svg>
