<?xml version="1.0" encoding="UTF-8" standalone="no"?>
<!-- Generator: Gravit.io -->

<svg
   style="isolation:isolate"
   viewBox="0 0 48 48"
   width="48pt"
   height="48pt"
   version="1.1"
   id="svg9"
   sodipodi:docname="stremio.svg"
   inkscape:version="1.1.2 (0a00cf5339, 2022-02-04)"
   xmlns:inkscape="http://www.inkscape.org/namespaces/inkscape"
   xmlns:sodipodi="http://sodipodi.sourceforge.net/DTD/sodipodi-0.dtd"
   xmlns:xlink="http://www.w3.org/1999/xlink"
   xmlns="http://www.w3.org/2000/svg"
   xmlns:svg="http://www.w3.org/2000/svg">
  <defs
     id="defs13">
    <linearGradient
       inkscape:collect="always"
       xlink:href="#_lgradient_12"
       id="linearGradient872"
       x1="-12.025727"
       y1="6.1170783"
       x2="-0.085100174"
       y2="6.1170783"
       gradientUnits="userSpaceOnUse"
       gradientTransform="matrix(3.8358211,0,0,3.8371386,-0.00544341,-0.00268054)" />
    <linearGradient
       id="_lgradient_21"
       x1="0"
       y1="0.5"
       x2="1"
       y2="0.5"
       gradientTransform="matrix(28.183272,0,0,28.298876,9.8766106,9.8505561)"
       gradientUnits="userSpaceOnUse">
      <stop
         offset="0%"
         stop-opacity="1"
         style="stop-color:rgb(255,224,49)"
         id="stop2-3" />
      <stop
         offset="98.69565217391305%"
         stop-opacity="1"
         style="stop-color:rgb(252,82,82)"
         id="stop4-6" />
    </linearGradient>
    <linearGradient
       inkscape:collect="always"
       xlink:href="#_lgradient_12"
       id="linearGradient15"
       x1="-9.6850061"
       y1="45.161198"
       x2="11.98815"
       y2="21.735205"
       gradientUnits="userSpaceOnUse"
       gradientTransform="matrix(1.1147442,0,0,1.1150348,-0.01237238,-3.3277956)" />
    <linearGradient
       inkscape:collect="always"
       xlink:href="#_lgradient_12"
       id="linearGradient878"
       x1="8.0086889"
       y1="24"
       x2="39.99131"
       y2="24"
       gradientUnits="userSpaceOnUse" />
  </defs>
  <sodipodi:namedview
     id="namedview11"
     pagecolor="#ffffff"
     bordercolor="#666666"
     borderopacity="1.0"
     inkscape:pageshadow="2"
     inkscape:pageopacity="0.0"
     inkscape:pagecheckerboard="0"
     inkscape:document-units="pt"
     showgrid="false"
     inkscape:zoom="10.21875"
     inkscape:cx="31.95107"
     inkscape:cy="32"
     inkscape:window-width="1600"
     inkscape:window-height="836"
     inkscape:window-x="0"
     inkscape:window-y="0"
     inkscape:window-maximized="1"
     inkscape:current-layer="svg9" />
  <linearGradient
     id="_lgradient_12"
     x1="0.494317939921004"
     y1="0.8488994592628899"
     x2="0.49431793992100387"
     y2="0.18570214000285068"
     gradientTransform="matrix(31.982535,0,0,31.512225,8.0087326,8.244251)"
     gradientUnits="userSpaceOnUse">
    <stop
       offset="0%"
       stop-opacity="1"
       style="stop-color:rgb(26,108,255)"
       id="stop2" />
    <stop
       offset="100%"
       stop-opacity="1"
       style="stop-color:rgb(197,34,255)"
       id="stop4" />
  </linearGradient>
  <rect
     x="-46.783188"
     y="1.2253767"
     height="45.80014"
     rx="6.1837621"
     shape-rendering="crispEdges"
     id="rect5-6-7-3"
     ry="6.8055277"
     transform="matrix(0.00524063,-0.99998627,0.99998801,0.00489691,0,0)"
     style="isolation:isolate;fill:#c700ff;fill-opacity:0.13470298;stroke:url(#linearGradient872);stroke-width:2.0301;stroke-miterlimit:4;stroke-dasharray:none;stroke-opacity:1"
     width="45.801998" />
  <rect
     x="-15.686804"
     y="17.260084"
     height="33.345856"
     rx="6.7920032"
     shape-rendering="crispEdges"
     id="rect5-6-6-6-6"
     style="isolation:isolate;fill:#c700ff;fill-opacity:0.13470298;stroke:url(#linearGradient15);stroke-width:1.67233;stroke-miterlimit:4;stroke-dasharray:none;stroke-opacity:1"
     ry="7.4743071"
     transform="matrix(0.72446484,-0.68931175,0.68622417,0.72739012,0,0)"
     width="33.338203" />
  <path
     style="color:#000000;fill:url(#linearGradient878);fill-rule:evenodd;-inkscape-stroke:none"
     d="m 24,7.7324219 c -1.114399,0 -2.228803,0.3688121 -3.095703,1.1035156 L 8.2324219,19.576172 c -0.8327356,0.672032 -0.9624468,1.908473 -0.2890625,2.742187 0.6742878,0.834833 1.9124395,0.963567 2.7480466,0.289063 l 0.0059,-0.0039 0.0059,-0.0039 11.960937,-10.201171 c 0.712589,-0.607963 1.959287,-0.607963 2.671875,0 l 11.966797,10.205078 0.0059,0.0039 c 0.835607,0.674504 2.073759,0.54577 2.748047,-0.289063 0.673384,-0.833714 0.543673,-2.070155 -0.289063,-2.742187 L 27.095703,8.8359375 C 26.228803,8.101234 25.114399,7.7324219 24,7.7324219 Z m 0,1.0234375 c 0.892958,0 1.785978,0.2796962 2.449219,0.8417969 l 12.685547,10.7539057 0.0059,0.0039 c 0.410277,0.331101 0.472782,0.922277 0.138672,1.335937 -0.332231,0.411333 -0.923901,0.47321 -1.339844,0.140625 L 25.984375,11.638672 c -1.11922,-0.95489 -2.84953,-0.95489 -3.96875,0 L 10.060547,21.832031 C 9.6446039,22.164616 9.0529333,22.102739 8.7207031,21.691406 8.3865928,21.277746 8.4490978,20.68657 8.859375,20.355469 l 0.00586,-0.0039 L 21.550781,9.5976563 C 22.214022,9.0355556 23.107042,8.7558594 24,8.7558594 Z m -3.089844,8.4179686 c -0.452169,-0.06962 -0.883357,-0.01103 -1.261719,0.191406 -0.756723,0.404868 -1.15039,1.302275 -1.15039,2.417969 v 2.035156 c 0,0.872411 0.717432,1.591797 1.589844,1.591797 0.872411,0 1.591796,-0.719386 1.591796,-1.591797 v -0.664062 l 3.681641,2.455078 c 0.229697,0.153131 0.279297,0.289307 0.279297,0.390625 0,0.101318 -0.0496,0.237494 -0.279297,0.390625 l -3.681641,2.455078 v -0.664062 c 0,-0.872411 -0.719385,-1.591797 -1.591796,-1.591797 -0.872412,0 -1.589844,0.719386 -1.589844,1.591797 v 2.035156 c 0,1.115694 0.393667,2.013101 1.15039,2.417969 0.756724,0.404867 1.722258,0.234124 2.650391,-0.384766 l 5.728516,-3.818359 c 0.93842,-0.62575 1.474609,-1.51112 1.474609,-2.431641 0,-0.920521 -0.536189,-1.805891 -1.474609,-2.431641 L 22.298828,17.75 c -0.464067,-0.309445 -0.936503,-0.506548 -1.388672,-0.576172 z m -0.128906,0.986328 c 0.271287,0.0448 0.592467,0.174872 0.962891,0.421875 l 5.728515,3.81836 c 0.730561,0.487146 1.029297,1.060135 1.029297,1.599609 0,0.539474 -0.298736,1.112463 -1.029297,1.599609 l -5.728515,3.81836 c -0.740848,0.494006 -1.287,0.516776 -1.625,0.335937 -0.338001,-0.180839 -0.621094,-0.646536 -0.621094,-1.537109 v -2.035156 c 0,-0.331348 0.258494,-0.591797 0.589844,-0.591797 0.331348,0 0.591796,0.260449 0.591796,0.591797 v 2.533203 l 5.236329,-3.492188 C 26.353621,24.93092 26.640625,24.482389 26.640625,24 c 0,-0.482389 -0.287004,-0.93092 -0.724609,-1.222656 l -5.236329,-3.492188 v 2.533203 c 0,0.331348 -0.260448,0.591797 -0.591796,0.591797 -0.33135,0 -0.589844,-0.260449 -0.589844,-0.591797 v -2.035156 c 0,-0.890573 0.283093,-1.35627 0.621094,-1.537109 0.169,-0.09042 0.390822,-0.130734 0.662109,-0.08594 z M 9.2558594,24.970703 c -0.4985804,0.05229 -0.9753561,0.293521 -1.3125,0.710938 -0.6733843,0.833714 -0.5436731,2.070155 0.2890625,2.742187 L 20.904297,39.164062 c 1.733801,1.469407 4.457605,1.469407 6.191406,0 L 39.767578,28.423828 c 0.832736,-0.672032 0.962447,-1.908473 0.289063,-2.742187 -0.674288,-0.834833 -1.91244,-0.963567 -2.748047,-0.289063 l -0.0059,0.0039 -0.0059,0.0039 -11.960938,10.201171 c -0.712588,0.607963 -1.959286,0.607963 -2.671875,0 l -11.966796,-10.205078 -0.0059,-0.0039 C 10.273603,25.055326 9.7544397,24.918411 9.2558594,24.970703 Z m 0.1054687,0.988281 c 0.2407197,-0.02516 0.4918586,0.04318 0.6992189,0.208985 l 11.955078,10.193359 c 1.11922,0.95489 2.84953,0.95489 3.96875,0 L 37.939453,26.167969 c 0.415943,-0.332585 1.007613,-0.270708 1.339844,0.140625 0.33411,0.41366 0.271605,1.004836 -0.138672,1.335937 l -0.0059,0.0039 -12.685547,10.753907 c -1.326482,1.124201 -3.571956,1.124201 -4.898438,0 L 8.8652344,27.648437 8.859375,27.644531 C 8.4490978,27.31343 8.3865928,26.722254 8.7207031,26.308594 8.8873065,26.102323 9.1191892,25.98429 9.3613281,25.958984 Z"
     id="path7" />
</svg>
