<?xml version="1.0" encoding="UTF-8" standalone="no"?>
<!-- Generator: Gravit.io -->

<svg
   style="isolation:isolate"
   viewBox="0 0 48 48"
   width="48px"
   height="48px"
   version="1.1"
   id="svg11"
   sodipodi:docname="sublime-text.svg"
   inkscape:version="1.1.2 (0a00cf5339, 2022-02-04)"
   xmlns:inkscape="http://www.inkscape.org/namespaces/inkscape"
   xmlns:sodipodi="http://sodipodi.sourceforge.net/DTD/sodipodi-0.dtd"
   xmlns:xlink="http://www.w3.org/1999/xlink"
   xmlns="http://www.w3.org/2000/svg"
   xmlns:svg="http://www.w3.org/2000/svg">
  <defs
     id="defs15">
    <linearGradient
       inkscape:collect="always"
       xlink:href="#g"
       id="linearGradient872"
       x1="-12.025727"
       y1="6.1170783"
       x2="-0.085100174"
       y2="6.1170783"
       gradientUnits="userSpaceOnUse"
       gradientTransform="matrix(3.8366785,0,0,3.8379962,-1.0591751e-4,-0.00807312)" />
    <linearGradient
       inkscape:collect="always"
       xlink:href="#g"
       id="linearGradient15"
       x1="-9.6850061"
       y1="45.161198"
       x2="11.98815"
       y2="21.735205"
       gradientUnits="userSpaceOnUse"
       gradientTransform="matrix(1.1149933,0,0,1.115284,-0.0125952,-3.3361236)" />
    <linearGradient
       inkscape:collect="always"
       xlink:href="#g"
       id="linearGradient862"
       x1="13.315977"
       y1="24"
       x2="34.684025"
       y2="24"
       gradientUnits="userSpaceOnUse" />
  </defs>
  <sodipodi:namedview
     id="namedview13"
     pagecolor="#ffffff"
     bordercolor="#666666"
     borderopacity="1.0"
     inkscape:pageshadow="2"
     inkscape:pageopacity="0.0"
     inkscape:pagecheckerboard="0"
     showgrid="false"
     inkscape:zoom="13.625"
     inkscape:cx="23.963303"
     inkscape:cy="24"
     inkscape:window-width="1600"
     inkscape:window-height="836"
     inkscape:window-x="0"
     inkscape:window-y="0"
     inkscape:window-maximized="1"
     inkscape:current-layer="svg11" />
  <linearGradient
     id="g"
     x1="0"
     y1="0.01"
     x2="1.02"
     y2="1.07"
     gradientTransform="matrix(21.368045,0,0,30.268057,13.315977,8.8659719)"
     gradientUnits="userSpaceOnUse">
    <stop
       offset="0%"
       stop-opacity="1"
       style="stop-color:rgb(249,212,35)"
       id="stop2" />
    <stop
       offset="50%"
       stop-opacity="1"
       style="stop-color:rgb(255,78,80)"
       id="stop4" />
    <stop
       offset="100%"
       stop-opacity="1"
       style="stop-color:rgb(138,35,135)"
       id="stop6" />
  </linearGradient>
  <rect
     x="-46.788307"
     y="1.2202586"
     height="45.810375"
     rx="6.1851444"
     shape-rendering="crispEdges"
     id="rect5-6-7-3"
     ry="6.8070488"
     transform="matrix(0.00524063,-0.99998627,0.99998801,0.00489691,0,0)"
     style="isolation:isolate;fill:#ff6f00;fill-opacity:0.134703;stroke:url(#linearGradient872);stroke-width:2.03055;stroke-miterlimit:4;stroke-dasharray:none;stroke-opacity:1"
     width="45.812237" />
  <rect
     x="-15.69053"
     y="17.256357"
     height="33.35331"
     rx="6.7935209"
     shape-rendering="crispEdges"
     id="rect5-6-6-6-6"
     style="isolation:isolate;fill:#ff6f00;fill-opacity:0.134703;stroke:url(#linearGradient15);stroke-width:1.6727;stroke-miterlimit:4;stroke-dasharray:none;stroke-opacity:1"
     ry="7.4759774"
     transform="matrix(0.72446484,-0.68931175,0.68622417,0.72739012,0,0)"
     width="33.345654" />
  <path
     style="color:#000000;fill:url(#linearGradient862);-inkscape-stroke:none"
     d="m 23.619141,8.3652344 c -3.11617,0 -5.657247,0.9209193 -7.509766,2.7734376 -1.829485,1.829485 -2.771484,4.031828 -2.771484,6.507812 0,1.776889 0.353923,3.331223 1.083984,4.634766 h 0.002 c 0.71758,1.279518 1.632308,2.245148 2.740234,2.857422 1.041508,0.57557 2.161191,1.074967 3.361329,1.498047 h 0.002 c 1.196248,0.421103 2.314909,0.729113 3.361328,0.921875 0.970494,0.178775 1.761447,0.463328 2.376953,0.83789 0.587373,0.35693 0.78125,0.685222 0.78125,1.115235 0,0.913667 -0.253262,1.494 -0.748047,1.898437 -0.494785,0.404438 -1.304136,0.648438 -2.478516,0.648438 -0.470862,0 -1.027903,-0.167542 -1.667968,-0.548828 h -0.002 C 21.491407,31.11645 21.00253,30.710801 20.677734,30.316406 l -0.01563,-0.01758 -0.01758,-0.01758 c -1.369335,-1.369335 -2.434501,-2.150391 -3.480469,-2.150391 -0.891686,0 -1.735768,0.395397 -2.470703,1.101563 l -0.002,0.002 c -1.18545,1.157881 -1.875,2.101701 -1.875,3.064453 0,0.851243 0.418431,1.715413 1.154297,2.621094 l 0.337891,0.412109 c 0.625191,0.893131 1.666065,1.747397 3.111328,2.621094 0.75393,0.491675 1.704884,0.885367 2.859375,1.201172 1.168377,0.320222 2.404196,0.480469 3.701172,0.480469 2.553428,0 4.968701,-0.742719 7.205078,-2.205079 1.199933,-0.771385 2.169399,-1.866241 2.898437,-3.253906 0.73677,-1.40301 1.09961,-3.020314 1.09961,-4.824219 0,-1.80265 -0.35379,-3.356519 -1.087891,-4.636718 -0.720597,-1.257279 -1.64562,-2.180099 -2.765625,-2.710938 -1.044192,-0.494617 -2.180801,-0.911311 -3.408203,-1.251953 -1.217823,-0.338585 -2.344347,-0.589938 -3.382813,-0.753906 -0.961384,-0.151709 -1.73931,-0.438009 -2.347656,-0.84375 -0.577737,-0.385326 -0.798828,-0.78704 -0.798828,-1.367188 0,-0.605099 0.193883,-0.986499 0.654297,-1.318359 0.477301,-0.344525 1.083648,-0.527344 1.873047,-0.527344 0.798141,0 1.408827,0.159472 1.871094,0.44336 0.158903,0.114914 0.342782,0.26687 0.550781,0.46289 h 0.002 c 0.233685,0.219652 0.370776,0.350049 0.525391,0.453125 l 0.0039,0.002 0.0039,0.002 c 0.871747,0.562418 1.635477,0.88086 2.355469,0.88086 1.193262,0 2.264131,-0.817336 3.21875,-2.220703 v -0.002 C 33.116913,14.991723 33.5,14.210608 33.5,13.476563 c 0,-0.792868 -0.529985,-1.515829 -1.400391,-2.330079 l -0.01953,-0.01758 -1.001953,-0.761718 C 30.467443,9.8529291 29.5109,9.4329388 28.158203,9.0097656 26.780478,8.5779507 25.266409,8.3652344 23.619141,8.3652344 Z m 0,1 c 1.561127,0 2.972606,0.2023016 4.240234,0.5996094 1.293843,0.4047612 2.169285,0.8269722 2.574219,1.1679692 l 0.0098,0.0078 0.978516,0.744141 C 32.19965,12.615453 32.5,13.201755 32.5,13.476563 c 0,0.334534 -0.258679,1.023073 -0.875,1.921875 v 0.002 c -0.862567,1.268481 -1.661896,1.785156 -2.392578,1.785156 -0.402532,0 -1.029144,-0.216005 -1.814453,-0.722656 -0.01064,-0.0078 -0.171766,-0.139988 -0.388672,-0.34375 h -0.002 C 26.788843,15.89445 26.567039,15.705808 26.355469,15.554688 l -0.01367,-0.0098 -0.01367,-0.0078 c -0.659447,-0.408229 -1.472643,-0.595703 -2.408203,-0.595703 -0.947738,0 -1.785925,0.230972 -2.457031,0.714844 -0.688243,0.496075 -1.070313,1.265394 -1.070313,2.130859 0,0.889229 0.459409,1.675837 1.244141,2.199219 0.754123,0.502969 1.675057,0.830988 2.746093,1 0.992766,0.156752 2.083903,0.400291 3.271485,0.730469 1.178004,0.326932 2.261007,0.723861 3.248047,1.191406 0.910039,0.431323 1.681158,1.180739 2.324218,2.302734 0.629557,1.097886 0.957032,2.468801 0.957032,4.140625 0,1.670571 -0.331354,3.115844 -0.984375,4.359375 -0.660753,1.257688 -1.509575,2.205096 -2.554688,2.876954 l -0.002,0.002 v 0.002 c -2.09229,1.369029 -4.299264,2.042969 -6.662109,2.042969 -1.215338,0 -2.358879,-0.150226 -3.435547,-0.445313 h -0.002 c -1.087311,-0.297428 -1.949122,-0.663022 -2.583985,-1.078125 l -0.0078,-0.0039 -0.0078,-0.0059 c -1.382346,-0.834624 -2.31862,-1.635417 -2.814453,-2.34375 l -0.01172,-0.01563 -0.01172,-0.01367 -0.359375,-0.439454 v -0.002 c -0.652791,-0.803969 -0.929688,-1.477467 -0.929688,-1.988281 0,-0.400905 0.459217,-1.260492 1.572266,-2.347656 0.599345,-0.575081 1.169994,-0.820313 1.77539,-0.820313 0.45073,0 1.4701,0.554084 2.773438,1.857422 l -0.03125,-0.03516 c 0.423293,0.513999 1.002416,0.978555 1.732422,1.414062 0.74768,0.445795 1.475837,0.691407 2.18164,0.691407 1.310613,0 2.363618,-0.261868 3.111329,-0.873047 0.747711,-0.611179 1.115234,-1.556263 1.115234,-2.673828 0,-0.799417 -0.486621,-1.497745 -1.261719,-1.96875 -0.746963,-0.45456 -1.654106,-0.773351 -2.714844,-0.96875 -0.984812,-0.181413 -2.055232,-0.474028 -3.210937,-0.88086 -1.151814,-0.406044 -2.223167,-0.882734 -3.212891,-1.429687 -0.923306,-0.510247 -1.705485,-1.320636 -2.351562,-2.472656 -0.632409,-1.129184 -0.957031,-2.500398 -0.957031,-4.144532 0,-2.227921 0.807392,-4.129657 2.478515,-5.800781 1.649278,-1.649277 3.879851,-2.4804686 6.802735,-2.4804686 z"
     id="path9" />
</svg>
