<?xml version="1.0" encoding="UTF-8" standalone="no"?>
<!-- Generator: Gravit.io -->

<svg
   style="isolation:isolate"
   viewBox="0 0 48 48"
   width="48pt"
   height="48pt"
   version="1.1"
   id="svg16"
   sodipodi:docname="superslicer.svg"
   inkscape:version="1.1.2 (0a00cf5339, 2022-02-04)"
   xmlns:inkscape="http://www.inkscape.org/namespaces/inkscape"
   xmlns:sodipodi="http://sodipodi.sourceforge.net/DTD/sodipodi-0.dtd"
   xmlns:xlink="http://www.w3.org/1999/xlink"
   xmlns="http://www.w3.org/2000/svg"
   xmlns:svg="http://www.w3.org/2000/svg">
  <defs
     id="defs20">
    <linearGradient
       inkscape:collect="always"
       xlink:href="#_lgradient_24"
       id="linearGradient872"
       x1="-12.025727"
       y1="6.1170783"
       x2="-0.085100174"
       y2="6.1170783"
       gradientUnits="userSpaceOnUse"
       gradientTransform="matrix(3.8358211,0,0,3.8371386,-0.00544341,-0.00268054)" />
    <linearGradient
       id="_lgradient_21"
       x1="0"
       y1="0.5"
       x2="1"
       y2="0.5"
       gradientTransform="matrix(28.183272,0,0,28.298876,9.8766106,9.8505561)"
       gradientUnits="userSpaceOnUse">
      <stop
         offset="0%"
         stop-opacity="1"
         style="stop-color:rgb(255,224,49)"
         id="stop2-3" />
      <stop
         offset="98.69565217391305%"
         stop-opacity="1"
         style="stop-color:rgb(252,82,82)"
         id="stop4-6" />
    </linearGradient>
    <linearGradient
       inkscape:collect="always"
       xlink:href="#_lgradient_24"
       id="linearGradient15"
       x1="-9.6850061"
       y1="45.161198"
       x2="11.98815"
       y2="21.735205"
       gradientUnits="userSpaceOnUse"
       gradientTransform="matrix(1.1147442,0,0,1.1150348,-0.01237238,-3.3277956)" />
    <linearGradient
       inkscape:collect="always"
       xlink:href="#_lgradient_23"
       id="linearGradient1029"
       x1="15.302678"
       y1="19.34293"
       x2="34.608723"
       y2="19.34293"
       gradientUnits="userSpaceOnUse" />
    <linearGradient
       inkscape:collect="always"
       xlink:href="#_lgradient_24"
       id="linearGradient1059"
       x1="13.059981"
       y1="28.425068"
       x2="32.366028"
       y2="28.425068"
       gradientUnits="userSpaceOnUse" />
  </defs>
  <sodipodi:namedview
     id="namedview18"
     pagecolor="#ffffff"
     bordercolor="#666666"
     borderopacity="1.0"
     inkscape:pageshadow="2"
     inkscape:pageopacity="0.0"
     inkscape:pagecheckerboard="0"
     inkscape:document-units="pt"
     showgrid="false"
     inkscape:zoom="7.2257474"
     inkscape:cx="32.038208"
     inkscape:cy="31.969011"
     inkscape:window-width="1600"
     inkscape:window-height="836"
     inkscape:window-x="0"
     inkscape:window-y="0"
     inkscape:window-maximized="1"
     inkscape:current-layer="svg16" />
  <linearGradient
     id="_lgradient_23"
     x1="0.031182562838213412"
     y1="0.10866627890091946"
     x2="0.9583795358695032"
     y2="0.9751947012019755"
     gradientTransform="matrix(19.305721,0,0,19.305721,15.302678,9.6899068)"
     gradientUnits="userSpaceOnUse">
    <stop
       offset="0%"
       stop-opacity="1"
       style="stop-color:rgb(199,81,251)"
       id="stop2" />
    <stop
       offset="97.5%"
       stop-opacity="1"
       style="stop-color:rgb(109,68,222)"
       id="stop4" />
  </linearGradient>
  <rect
     x="-46.783188"
     y="1.2253767"
     height="45.80014"
     rx="6.1837621"
     shape-rendering="crispEdges"
     id="rect5-6-7-3"
     ry="6.8055277"
     transform="matrix(0.00524063,-0.99998627,0.99998801,0.00489691,0,0)"
     style="isolation:isolate;fill:#0085ff;fill-opacity:0.13470298;stroke:url(#linearGradient872);stroke-width:2.0301;stroke-miterlimit:4;stroke-dasharray:none;stroke-opacity:1"
     width="45.801998" />
  <rect
     x="-15.686804"
     y="17.260084"
     height="33.345856"
     rx="6.7920032"
     shape-rendering="crispEdges"
     id="rect5-6-6-6-6"
     style="isolation:isolate;fill:#0085ff;fill-opacity:0.13470298;stroke:url(#linearGradient15);stroke-width:1.67233;stroke-miterlimit:4;stroke-dasharray:none;stroke-opacity:1"
     ry="7.4743071"
     transform="matrix(0.72446484,-0.68931175,0.68622417,0.72739012,0,0)"
     width="33.338203" />
  <path
     style="color:#000000;fill:url(#linearGradient1029);-inkscape-stroke:none"
     d="m 26.066406,9.1894531 c -2.984366,0 -5.854922,1.1819719 -7.970703,3.2910159 l -0.002,0.002 c -2.109042,2.115781 -3.291016,4.98829 -3.291016,7.972656 0,3.335238 1.475783,6.501888 4.029297,8.642578 0.322316,0.270811 0.735045,0.413128 1.160156,0.396485 h 0.0059 0.0059 c 0.412551,-0.02503 0.815354,-0.19426 1.119141,-0.498047 l 5.597656,-5.605469 -2.392578,-2.392578 -0.353516,0.353515 -3.988281,3.980469 c -1.113395,-1.389621 -1.791016,-3.083136 -1.791016,-4.876953 0,-2.086271 0.827574,-4.095507 2.300782,-5.574219 1.478526,-1.47199 3.484959,-2.298828 5.570312,-2.298828 1.793817,0 3.489286,0.67762 4.878906,1.791016 l -1.912109,1.914062 2.398438,2.398438 3.177734,-3.175781 c 0.30379,-0.30379 0.473013,-0.706602 0.498047,-1.119141 v -0.0059 -0.0039 c 0.01661,-0.424466 -0.127475,-0.837916 -0.398438,-1.160156 -2.140128,-2.553575 -5.30734,-4.0312499 -8.642578,-4.0312499 z m 0,0.9999999 c 3.040098,0 5.926845,1.346982 7.876953,3.673828 0.110094,0.130631 0.167695,0.303003 0.16211,0.47461 -0.013,0.181656 -0.08022,0.33998 -0.205078,0.464843 l -2.46875,2.46875 -0.984375,-0.984375 2.011718,-2.013671 -0.382812,-0.351563 c -1.636142,-1.509522 -3.785875,-2.339844 -6.009766,-2.339844 -2.350475,0 -4.612483,0.931187 -6.279297,2.591797 v 0.002 c -1.660609,1.666814 -2.591796,3.928822 -2.591797,6.279297 0,2.223891 0.828371,4.37167 2.337891,6.007813 l 0.353516,0.382812 4.439453,-4.435547 0.980469,0.980469 -4.890625,4.898437 c -0.125937,0.125938 -0.285109,0.192941 -0.46875,0.205079 -0.170965,0.0051 -0.340424,-0.05265 -0.470704,-0.16211 h -0.002 v -0.002 c -2.326906,-1.950718 -3.671875,-4.834902 -3.671875,-7.875 0,-2.72019 1.078511,-5.339949 3,-7.267578 1.927444,-1.920271 4.544401,-2.998047 7.263672,-2.998047 z"
     id="path7" />
  <linearGradient
     id="_lgradient_24"
     x1="-0.000038208333333289435"
     y1="0.5000000833333331"
     x2="0.9999618333333335"
     y2="0.5000000833333331"
     gradientTransform="matrix(19.305721,0,0,19.305721,13.060304,18.77237)"
     gradientUnits="userSpaceOnUse">
    <stop
       offset="0%"
       stop-opacity="1"
       style="stop-color:rgb(0,198,255)"
       id="stop9" />
    <stop
       offset="98.69565217391305%"
       stop-opacity="1"
       style="stop-color:rgb(0,114,255)"
       id="stop11" />
  </linearGradient>
  <path
     style="color:#000000;fill:url(#linearGradient1059);-inkscape-stroke:none"
     d="m 27.664062,18.273437 c -0.41255,0.02503 -0.8134,0.19426 -1.117187,0.498047 v 0.002 l -2.609375,2.613282 2.394531,2.392578 0.353516,-0.351563 0.996094,-0.99414 c 1.114402,1.38995 1.792968,3.08424 1.792968,4.878906 0,2.085352 -0.826838,4.093739 -2.298828,5.572266 -3.91e-4,3.89e-4 -0.0016,-3.9e-4 -0.002,0 -3.89e-4,3.91e-4 3.9e-4,0.0016 0,0.002 -1.478526,1.471991 -3.486912,2.298828 -5.572266,2.298828 -1.794064,0 -3.487236,-0.679279 -4.876953,-1.792969 l 2.324219,-2.324219 -2.398437,-2.398437 -3.589844,3.58789 c -0.30379,0.30379 -0.473013,0.706602 -0.498047,1.119141 l -0.002,0.0059 v 0.0039 c -0.01661,0.424247 0.127747,0.837989 0.398437,1.160156 2.140128,2.553575 5.307341,4.03125 8.642578,4.03125 2.984367,0 5.856876,-1.181972 7.972657,-3.291016 v -0.002 c 2.109042,-2.115781 3.291015,-4.98829 3.291015,-7.972656 0,-3.334761 -1.476455,-6.499948 -4.029297,-8.640625 -0.322315,-0.27081 -0.735044,-0.415081 -1.160156,-0.398438 h -0.0059 z m 0.05469,1.001954 c 0.171607,-0.0056 0.343842,0.05224 0.474609,0.162109 2.326907,1.950718 3.671875,4.834902 3.671875,7.875 0,2.719638 -1.077289,5.338107 -2.998047,7.265625 -1.927628,1.92149 -4.545435,3 -7.265625,3 -3.040097,0 -5.924892,-1.345029 -7.874999,-3.671875 l -0.002,-0.002 c -0.109682,-0.130144 -0.167187,-0.299741 -0.162109,-0.470703 0.01214,-0.183652 0.07914,-0.342816 0.205078,-0.46875 l 2.882813,-2.88086 0.984375,0.984375 -2.423828,2.425782 0.382812,0.353515 c 1.636142,1.509522 3.783922,2.337891 6.007812,2.337891 2.350476,0 4.612484,-0.931186 6.279297,-2.591797 l 0.002,-0.002 c 1.66061,-1.666814 2.591797,-3.928822 2.591797,-6.279297 0,-2.223891 -0.830323,-4.37167 -2.339843,-6.007813 l -0.351563,-0.380859 -1.451172,1.443359 -0.980469,-0.980468 1.902344,-1.908203 c 0.125298,-0.125298 0.282396,-0.190474 0.464844,-0.203125 z"
     id="path14" />
</svg>
