<?xml version="1.0" encoding="UTF-8" standalone="no"?>
<!-- Generator: Gravit.io -->

<svg
   style="isolation:isolate"
   viewBox="0 0 48 48"
   width="48pt"
   height="48pt"
   version="1.1"
   id="svg18"
   sodipodi:docname="synaptic.svg"
   inkscape:version="1.1.2 (0a00cf5339, 2022-02-04)"
   xmlns:inkscape="http://www.inkscape.org/namespaces/inkscape"
   xmlns:sodipodi="http://sodipodi.sourceforge.net/DTD/sodipodi-0.dtd"
   xmlns:xlink="http://www.w3.org/1999/xlink"
   xmlns="http://www.w3.org/2000/svg"
   xmlns:svg="http://www.w3.org/2000/svg">
  <defs
     id="defs22">
    <linearGradient
       inkscape:collect="always"
       xlink:href="#_lgradient_1"
       id="linearGradient872"
       x1="-12.025727"
       y1="6.1170783"
       x2="-0.085100174"
       y2="6.1170783"
       gradientUnits="userSpaceOnUse"
       gradientTransform="matrix(3.8358211,0,0,3.8371386,-0.00544341,-0.00268054)" />
    <linearGradient
       id="_lgradient_21"
       x1="0"
       y1="0.5"
       x2="1"
       y2="0.5"
       gradientTransform="matrix(28.183272,0,0,28.298876,9.8766106,9.8505561)"
       gradientUnits="userSpaceOnUse">
      <stop
         offset="0%"
         stop-opacity="1"
         style="stop-color:rgb(255,224,49)"
         id="stop2-3" />
      <stop
         offset="98.69565217391305%"
         stop-opacity="1"
         style="stop-color:rgb(252,82,82)"
         id="stop4-6" />
    </linearGradient>
    <linearGradient
       inkscape:collect="always"
       xlink:href="#_lgradient_1"
       id="linearGradient15"
       x1="-9.6850061"
       y1="45.161198"
       x2="11.98815"
       y2="21.735205"
       gradientUnits="userSpaceOnUse"
       gradientTransform="matrix(1.1147442,0,0,1.1150348,-0.01237238,-3.3277956)" />
    <linearGradient
       inkscape:collect="always"
       xlink:href="#_lgradient_1"
       id="linearGradient1055"
       x1="11.079474"
       y1="24.6996"
       x2="36.920525"
       y2="24.6996"
       gradientUnits="userSpaceOnUse" />
    <linearGradient
       inkscape:collect="always"
       xlink:href="#_lgradient_0"
       id="linearGradient1085"
       x1="17.961773"
       y1="20.313183"
       x2="30.588985"
       y2="20.313183"
       gradientUnits="userSpaceOnUse" />
  </defs>
  <sodipodi:namedview
     id="namedview20"
     pagecolor="#ffffff"
     bordercolor="#666666"
     borderopacity="1.0"
     inkscape:pageshadow="2"
     inkscape:pageopacity="0.0"
     inkscape:pagecheckerboard="0"
     inkscape:document-units="pt"
     showgrid="false"
     inkscape:zoom="10.21875"
     inkscape:cx="31.95107"
     inkscape:cy="32"
     inkscape:window-width="1600"
     inkscape:window-height="836"
     inkscape:window-x="0"
     inkscape:window-y="0"
     inkscape:window-maximized="1"
     inkscape:current-layer="svg18" />
  <linearGradient
     id="_lgradient_0"
     x1="0.05097071143265408"
     y1="0.9093686270790043"
     x2="0.9536247734808043"
     y2="0.1958093215343868"
     gradientTransform="matrix(12.627545,0,0,17.970647,17.961323,11.327787)"
     gradientUnits="userSpaceOnUse">
    <stop
       offset="0%"
       stop-opacity="1"
       style="stop-color:rgb(126,235,218)"
       id="stop2" />
    <stop
       offset="49.56869043334445%"
       stop-opacity="1"
       style="stop-color:rgb(115,255,68)"
       id="stop4" />
    <stop
       offset="98.69565217391305%"
       stop-opacity="1"
       style="stop-color:rgb(255,205,62)"
       id="stop6" />
  </linearGradient>
  <rect
     x="-46.783188"
     y="1.2253767"
     height="45.80014"
     rx="6.1837621"
     shape-rendering="crispEdges"
     id="rect5-6-7-3"
     ry="6.8055277"
     transform="matrix(0.00524063,-0.99998627,0.99998801,0.00489691,0,0)"
     style="isolation:isolate;fill:#ff00e0;fill-opacity:0.13470298;stroke:url(#linearGradient872);stroke-width:2.0301;stroke-miterlimit:4;stroke-dasharray:none;stroke-opacity:1"
     width="45.801998" />
  <rect
     x="-15.686804"
     y="17.260084"
     height="33.345856"
     rx="6.7920032"
     shape-rendering="crispEdges"
     id="rect5-6-6-6-6"
     style="isolation:isolate;fill:#ff00e0;fill-opacity:0.13470298;stroke:url(#linearGradient15);stroke-width:1.67233;stroke-miterlimit:4;stroke-dasharray:none;stroke-opacity:1"
     ry="7.4743071"
     transform="matrix(0.72446484,-0.68931175,0.68622417,0.72739012,0,0)"
     width="33.338203" />
  <linearGradient
     id="_lgradient_1"
     x1="0"
     y1="0.5"
     x2="1"
     y2="0.5"
     gradientTransform="matrix(25.841073,0,0,-26.63033,11.079454,38.014898)"
     gradientUnits="userSpaceOnUse">
    <stop
       offset="0%"
       stop-opacity="1"
       style="stop-color:rgb(175,104,229)"
       id="stop11" />
    <stop
       offset="98.26086956521739%"
       stop-opacity="1"
       style="stop-color:rgb(250,172,128)"
       id="stop13" />
  </linearGradient>
  <path
     style="color:#000000;fill:url(#linearGradient1085);fill-rule:evenodd;-inkscape-stroke:none"
     d="m 22.732422,10.828125 c -0.725857,0 -1.269531,0.639461 -1.269531,1.355469 v 8.376953 h -1.996094 c -0.853242,0 -1.571105,0.283555 -1.871094,0.904297 -0.299989,0.620742 -0.07493,1.360546 0.455078,2.029297 l 4.150391,5.236328 c 0.545983,0.688907 1.305051,1.068359 2.074219,1.068359 0.769167,0 1.528235,-0.379452 2.074218,-1.068359 L 30.5,23.494141 c 0.530009,-0.668751 0.755067,-1.408555 0.455078,-2.029297 -0.299989,-0.620742 -1.017852,-0.904297 -1.871094,-0.904297 h -1.996093 v -3.207031 c 0,-0.715733 -0.54323,-1.355469 -1.269532,-1.355469 -0.726135,0 -1.271484,0.639334 -1.271484,1.355469 v 5.919921 h 2.554687 l -2.826171,3.986329 -2.826172,-3.986329 h 2.554687 V 12.183594 c 0,-0.716409 -0.545794,-1.355469 -1.271484,-1.355469 z m 0,1 c 0.124891,0 0.271484,0.127039 0.271484,0.355469 v 10.089843 h -1.980469 c -0.259599,0 -0.581853,0.100089 -0.736328,0.398438 -0.154474,0.298349 -0.05081,0.619967 0.09961,0.832031 l 3.167968,4.466797 c 0.160289,0.22598 0.427893,0.394531 0.720704,0.394531 0.292811,0 0.560414,-0.168551 0.720703,-0.394531 l 3.167968,-4.466797 c 0.150417,-0.212064 0.254084,-0.53368 0.09961,-0.832031 -0.154474,-0.298351 -0.476729,-0.398438 -0.736328,-0.398438 h -1.980469 v -4.919921 c 0,-0.227567 0.14704,-0.355469 0.271484,-0.355469 0.125414,0 0.269532,0.127501 0.269532,0.355469 v 4.207031 h 2.996093 c 0.641236,0 0.899486,0.19248 0.970703,0.339844 0.07122,0.147363 0.06047,0.470015 -0.33789,0.972656 l -4.152344,5.236328 c -0.382387,0.482486 -0.84056,0.689453 -1.289062,0.689453 -0.448503,0 -0.906676,-0.206967 -1.289063,-0.689453 l -4.152344,-5.236328 c -0.398361,-0.502641 -0.409107,-0.825293 -0.33789,-0.972656 0.07122,-0.147364 0.329467,-0.339844 0.970703,-0.339844 h 2.996094 v -9.376953 c 0,-0.228832 0.143673,-0.355469 0.269531,-0.355469 z"
     id="path9" />
  <path
     style="color:#000000;fill:url(#linearGradient1055);fill-rule:evenodd;-inkscape-stroke:none"
     d="m 20.539062,10.939453 c -0.441164,-0.109507 -0.923249,-0.05176 -1.339843,0.199219 l -7.25,4.041016 c -0.82087,0.457471 -1.369141,1.390726 -1.369141,2.330078 v 12.90625 c 0,0.161967 0.01837,0.319225 0.06055,0.470703 L 10.625,30.697266 c -0.04054,0.371833 0.187253,0.693982 0.457031,0.882812 h -0.002 l -0.002,-0.002 -0.154297,-0.175781 c 4.3e-4,8.5e-4 0.04995,0.08482 0.08008,0.117187 0.02173,0.02334 0.04474,0.03827 0.06641,0.05469 6.94e-4,5.64e-4 0.0013,0.0014 0.002,0.002 0.0042,0.0032 0.0095,0.0068 0.01367,0.0098 0.0034,0.0024 0.0064,0.0075 0.0098,0.0098 0.0131,0.0088 0.02098,0.0088 0.0332,0.01563 0.07119,0.05127 0.144207,0.102051 0.22461,0.136719 l -0.05274,-0.02734 10.621094,6.132813 -0.0078,0.283203 0.521485,0.01172 L 22.5,38.1875 c 0.813104,0.469092 1.896154,0.463629 2.705078,-0.01172 l 7.34375,-4.316406 0.01758,-0.01172 c 0.793022,-0.568461 0.979711,-1.68655 0.41211,-2.478515 C 32.410761,30.576962 31.292188,30.395631 30.5,30.964844 l 0.04687,-0.03125 -5.035156,2.833984 0.03906,-1.636719 c 0.02376,-0.956624 -0.743027,-1.762574 -1.699219,-1.787109 -0.956348,-0.02375 -1.761409,0.742784 -1.785156,1.699219 l -0.04297,1.769531 -7.896484,-4.556641 v -8.945312 l 1.244141,0.8125 c 0.803213,0.520705 1.890687,0.287478 2.412109,-0.515625 0.520706,-0.803213 0.289791,-1.891243 -0.513672,-2.41211 l -1.628906,-1.058593 5.378906,-2.951172 0.0098,-0.0059 c 0.832005,-0.505961 1.103879,-1.603717 0.601562,-2.4375 -0.250679,-0.416749 -0.650632,-0.693228 -1.091797,-0.802735 z m 6.921875,0 c -0.441138,0.109481 -0.84083,0.386164 -1.091796,0.802735 -0.502316,0.833783 -0.230444,1.93154 0.601562,2.4375 l 0.0098,0.0059 5.335937,2.925781 -1.654297,0.9375 -0.0098,0.0059 c -0.80945,0.508187 -1.056445,1.592888 -0.546875,2.402344 0.509519,0.811429 1.596766,1.056118 2.408203,0.544922 l 1.359375,-0.767578 v 5.871094 c 0,0.987333 0.74596,1.841045 1.724609,1.966797 0.962074,0.122616 1.822266,-0.63844 1.822266,-1.609375 v -8.953125 c 0,-0.939621 -0.548991,-1.872585 -1.369141,-2.330078 l -7.25,-4.041016 c -5.94e-4,-3.58e-4 -0.0014,3.57e-4 -0.002,0 -0.416003,-0.250196 -0.897381,-0.308544 -1.337891,-0.199219 z m 0.824219,1.054688 0.0059,0.0059 7.273437,4.052734 c 0.407457,0.227287 0.855469,0.990754 0.855469,1.457032 v 8.953125 c 0,0.436095 -0.267386,0.671726 -0.695313,0.617187 -0.444283,-0.05709 -0.851562,-0.521976 -0.851562,-0.974609 v -7.582032 l -0.746094,0.419922 -2.136719,1.205078 -0.0098,0.0078 c -0.354846,0.223549 -0.80666,0.119026 -1.027344,-0.232422 -0.221769,-0.352283 -0.119548,-0.801738 0.230469,-1.021484 l 3.185547,-1.804688 -6.878907,-3.773437 c -0.370616,-0.22538 -0.487833,-0.697567 -0.265625,-1.066406 0.222596,-0.36948 0.691881,-0.485988 1.060547,-0.263672 z m -8.570312,0.002 c 0.369435,-0.222568 0.836561,-0.107406 1.058593,0.261719 0.222209,0.368839 0.106944,0.841026 -0.263671,1.066406 l -6.816407,3.740234 3.03125,1.970703 h 0.002 c 0.349193,0.226373 0.445286,0.679855 0.21875,1.029297 -0.226538,0.348918 -0.680112,0.443705 -1.029296,0.21875 l -2.113282,-1.375 -0.675781,-0.08398 v 0.564453 10.443359 l 9.855469,5.689453 0.08398,-3.453125 c 0.01031,-0.415393 0.344286,-0.734928 0.759766,-0.724609 0.415639,0.01066 0.734921,0.346514 0.724609,0.761719 L 24.46875,35.5 l 6.591797,-3.707031 0.02344,-0.01563 c 0.353653,-0.254111 0.831003,-0.176428 1.082032,0.173828 0.250739,0.349853 0.17073,0.827963 -0.181641,1.082031 l -7.285156,4.28125 C 24.296438,37.551139 23.405413,37.554202 23,37.320312 l -0.06055,-0.03516 -0.224609,-0.130859 h -0.002 L 11.775391,30.839844 11.75,30.828125 c -0.009,-0.0039 -0.01579,-0.0091 -0.02344,-0.01367 l -0.04883,-0.0332 -0.05078,-0.04297 0.002,-0.02734 -0.02539,-0.09375 c -0.01348,-0.0484 -0.02344,-0.115575 -0.02344,-0.201171 v -12.90625 c 0,-0.466548 0.447596,-1.229724 0.855469,-1.457032 L 19.707031,12 Z M 11.625,30.751953 c 0.0098,0.0055 0.0149,0.0067 0.02539,0.01367 -0.06468,-0.04558 -0.02369,-0.02832 -0.03125,0.04102 z"
     id="path16" />
</svg>
