<?xml version="1.0" encoding="UTF-8" standalone="no"?>
<!-- Generator: Gravit.io -->

<svg
   style="isolation:isolate"
   viewBox="0 0 48 48"
   width="48pt"
   height="48pt"
   version="1.1"
   id="svg9"
   sodipodi:docname="syncplay.svg"
   inkscape:version="1.1.2 (0a00cf5339, 2022-02-04)"
   xmlns:inkscape="http://www.inkscape.org/namespaces/inkscape"
   xmlns:sodipodi="http://sodipodi.sourceforge.net/DTD/sodipodi-0.dtd"
   xmlns:xlink="http://www.w3.org/1999/xlink"
   xmlns="http://www.w3.org/2000/svg"
   xmlns:svg="http://www.w3.org/2000/svg">
  <defs
     id="defs13">
    <linearGradient
       inkscape:collect="always"
       xlink:href="#_lgradient_4"
       id="linearGradient872"
       x1="-12.025727"
       y1="6.1170783"
       x2="-0.085100174"
       y2="6.1170783"
       gradientUnits="userSpaceOnUse"
       gradientTransform="matrix(3.8358211,0,0,3.8371386,-0.00544341,-0.00268054)" />
    <linearGradient
       id="_lgradient_21"
       x1="0"
       y1="0.5"
       x2="1"
       y2="0.5"
       gradientTransform="matrix(28.183272,0,0,28.298876,9.8766106,9.8505561)"
       gradientUnits="userSpaceOnUse">
      <stop
         offset="0%"
         stop-opacity="1"
         style="stop-color:rgb(255,224,49)"
         id="stop2-3" />
      <stop
         offset="98.69565217391305%"
         stop-opacity="1"
         style="stop-color:rgb(252,82,82)"
         id="stop4-6" />
    </linearGradient>
    <linearGradient
       inkscape:collect="always"
       xlink:href="#_lgradient_4"
       id="linearGradient15"
       x1="-9.6850061"
       y1="45.161198"
       x2="11.98815"
       y2="21.735205"
       gradientUnits="userSpaceOnUse"
       gradientTransform="matrix(1.1147442,0,0,1.1150348,-0.01237238,-3.3277956)" />
    <linearGradient
       inkscape:collect="always"
       xlink:href="#_lgradient_4"
       id="linearGradient880"
       x1="10.41122"
       y1="23.290495"
       x2="35.074062"
       y2="23.290495"
       gradientUnits="userSpaceOnUse" />
  </defs>
  <sodipodi:namedview
     id="namedview11"
     pagecolor="#ffffff"
     bordercolor="#666666"
     borderopacity="1.0"
     inkscape:pageshadow="2"
     inkscape:pageopacity="0.0"
     inkscape:pagecheckerboard="0"
     inkscape:document-units="pt"
     showgrid="false"
     inkscape:zoom="10.21875"
     inkscape:cx="31.95107"
     inkscape:cy="32"
     inkscape:window-width="1600"
     inkscape:window-height="836"
     inkscape:window-x="0"
     inkscape:window-y="0"
     inkscape:window-maximized="1"
     inkscape:current-layer="svg9" />
  <linearGradient
     id="_lgradient_4"
     x1="0"
     y1="0.5"
     x2="1"
     y2="0.5"
     gradientTransform="matrix(24.662672,0,0,25.328042,11.238633,10.946028)"
     gradientUnits="userSpaceOnUse">
    <stop
       offset="0%"
       stop-opacity="1"
       style="stop-color:rgb(255,229,59)"
       id="stop2" />
    <stop
       offset="98.69565217391305%"
       stop-opacity="1"
       style="stop-color:rgb(255,0,91)"
       id="stop4" />
  </linearGradient>
  <rect
     x="-46.783188"
     y="1.2253767"
     height="45.80014"
     rx="6.1837621"
     shape-rendering="crispEdges"
     id="rect5-6-7-3"
     ry="6.8055277"
     transform="matrix(0.00524063,-0.99998627,0.99998801,0.00489691,0,0)"
     style="isolation:isolate;fill:#ff6f00;fill-opacity:0.134703;stroke:url(#linearGradient872);stroke-width:2.0301;stroke-miterlimit:4;stroke-dasharray:none;stroke-opacity:1"
     width="45.801998" />
  <rect
     x="-15.686804"
     y="17.260084"
     height="33.345856"
     rx="6.7920032"
     shape-rendering="crispEdges"
     id="rect5-6-6-6-6"
     style="isolation:isolate;fill:#ff6f00;fill-opacity:0.134703;stroke:url(#linearGradient15);stroke-width:1.67233;stroke-miterlimit:4;stroke-dasharray:none;stroke-opacity:1"
     ry="7.4743071"
     transform="matrix(0.72446484,-0.68931175,0.68622417,0.72739012,0,0)"
     width="33.338203" />
  <path
     style="color:#000000;fill:url(#linearGradient880);fill-rule:evenodd;-inkscape-stroke:none"
     d="m 35.169922,10.0625 -0.453125,0.07031 c -2.076945,0.321234 -4.143286,0.736646 -6.183594,1.257812 -1.633648,0.41126 -3.245504,0.910762 -4.824219,1.5 -1.417342,0.524615 -2.79574,1.145097 -4.128906,1.853516 h -0.002 c -1.201653,0.645747 -2.347581,1.393985 -3.425781,2.236328 -0.99017,0.775162 -1.900163,1.655854 -2.708985,2.623047 -0.773798,0.92173 -1.433525,1.934127 -1.96289,3.015625 -0.529529,1.07614 -0.922391,2.20704 -1.183594,3.371093 v 0.0039 0.002 c -0.260146,1.215904 -0.3902871,2.449324 -0.3847656,3.689453 0,0.655114 0.033869,1.308884 0.095704,1.960937 l 0.02148,0.240235 0.201172,0.130859 c 1.125225,0.735296 2.286158,1.410396 3.484375,2.023438 0.986615,0.504518 2.005573,0.947433 3.046875,1.328125 0.94823,0.344297 1.92378,0.615225 2.910156,0.8125 h 0.002 0.002 c 0.913905,0.17597 1.846829,0.273437 2.783203,0.273437 1.27264,0.0055 2.53497,-0.189882 3.746094,-0.585937 l 0.0039,-0.002 h 0.002 c 1.199472,-0.407476 2.330833,-1.003611 3.341797,-1.767578 v -0.002 l 0.002,-0.002 c 1.075508,-0.825125 2.03141,-1.791523 2.84961,-2.871094 0.807624,-1.071772 1.099497,-2.265793 0.982422,-3.185547 -0.05854,-0.459876 -0.214334,-0.888553 -0.595703,-1.152343 -0.07059,-0.04883 -0.171627,0.04129 -0.251954,0.01367 0.522811,-0.514734 1.033606,-1.044456 1.419922,-1.669922 l 0.002,-0.002 c 0.493567,-0.807125 0.858281,-1.678737 1.095704,-2.587891 h 0.002 v -0.002 c 0.284851,-1.120828 0.07359,-2.072911 -0.548828,-2.574219 -0.311212,-0.250654 -0.73827,-0.354953 -1.138672,-0.259766 -0.179846,0.04275 -0.310185,0.233203 -0.470703,0.341797 0.37996,-0.517843 0.791581,-1.012831 1.111328,-1.572265 v -0.002 c 0.498262,-0.870825 0.888035,-1.798186 1.167968,-2.763672 l 0.002,-0.002 v -0.002 c 0.259685,-0.923328 0.392578,-1.876933 0.392578,-2.835938 0,-0.831196 -0.09829,-1.657073 -0.294922,-2.460937 z m -0.804688,1.160156 c 0.109472,0.576144 0.208985,1.154932 0.208985,1.746094 0,0.866635 -0.120253,1.728126 -0.355469,2.564453 -0.258698,0.89104 -0.616822,1.74384 -1.074219,2.542969 -0.511782,0.895619 -1.109209,1.738863 -1.78125,2.517578 l -0.002,0.002 c -0.704401,0.823418 -1.462873,1.595586 -2.273437,2.3125 l 0.486328,0.851563 c 0.884411,-0.287109 1.701104,-0.749442 2.40625,-1.361329 0.430951,-0.371915 0.812345,-0.788852 1.146484,-1.240234 l 0.002,-0.002 c 0.185781,-0.253436 0.360348,-0.351743 0.47461,-0.378906 0.114261,-0.02716 0.184275,-0.01013 0.279296,0.06641 0.189689,0.152777 0.42596,0.678052 0.207032,1.544922 -0.213489,0.817507 -0.541171,1.596786 -0.982422,2.318359 -0.434946,0.703665 -0.972626,1.33483 -1.59961,1.878906 -0.671061,0.571728 -1.409548,1.04677 -2.203125,1.421875 l -1.068359,0.322266 -0.09375,0.210938 c -0.0078,0.01775 -0.01732,0.03991 -0.0293,0.06641 l -0.376953,0.832031 0.904297,-0.130859 c 0.22035,-0.03221 0.433977,-0.08676 0.638672,-0.15625 0.436146,-0.140082 0.85549,-0.315484 1.257812,-0.525391 0.49527,-0.250816 0.976647,-0.532209 1.4375,-0.830078 l 0.002,-0.002 c 0.222356,-0.145423 0.218076,-0.103967 0.244141,-0.08594 0.02607,0.01803 0.138775,0.166306 0.175781,0.457032 0.07401,0.581451 -0.135927,1.585732 -0.791015,2.455078 h 0.002 c -0.765488,1.010019 -1.657074,1.912079 -2.660156,2.68164 -0.922493,0.696752 -1.956652,1.242196 -3.052735,1.615235 -0.0012,4.02e-4 -0.0027,-4.02e-4 -0.0039,0 -8.38e-4,2.85e-4 -0.0011,0.0017 -0.002,0.002 -1.107025,0.361316 -2.261559,0.540409 -3.427735,0.535156 h -0.002 c -0.86727,0 -1.737002,-0.09089 -2.59375,-0.255859 -0.93681,-0.187576 -1.863655,-0.445402 -2.761718,-0.771485 -1.003455,-0.366962 -1.985351,-0.792447 -2.933594,-1.277343 -1.093673,-0.559555 -2.147869,-1.180916 -3.179688,-1.845704 -0.04498,-0.540476 -0.07813,-1.08095 -0.07813,-1.61914 v -0.002 c -0.0053,-1.166444 0.116258,-2.327858 0.361329,-3.47461 0.244698,-1.090502 0.610246,-2.145986 1.103515,-3.148437 h 0.002 v -0.002 c 0.493434,-1.00809 1.10817,-1.95258 1.830078,-2.8125 0.763869,-0.913438 1.624144,-1.746974 2.558594,-2.478516 1.032674,-0.806775 2.130234,-1.521915 3.28125,-2.140625 l 0.002,-0.002 c 1.294082,-0.687521 2.63115,-1.288124 4.00586,-1.796875 h 0.002 c 1.544089,-0.576315 3.121605,-1.066257 4.720703,-1.46875 h 0.002 c 1.840842,-0.470215 3.708045,-0.832145 5.583984,-1.136719 z m -0.248047,0.394532 -0.537109,0.0957 c -1.579681,0.277137 -3.154111,0.614451 -4.710937,1.007812 -1.585324,0.400503 -3.146191,0.890304 -4.679688,1.457031 -1.357981,0.502957 -2.682411,1.100113 -3.960937,1.78125 h -0.002 c -1.129426,0.606856 -2.215055,1.309639 -3.228515,2.103516 -0.912803,0.714368 -1.751414,1.52584 -2.5,2.421875 -0.701799,0.838736 -1.300195,1.756949 -1.785156,2.738281 v 0.002 c -0.47951,0.976146 -0.839655,2.004884 -1.06836,3.06836 -0.244064,1.113158 -0.364906,2.252112 -0.359375,3.392578 0,0.383732 0.01259,0.766718 0.03516,1.15039 l 0.01563,0.257813 0.216796,0.136719 c 0.903001,0.568555 1.833474,1.098742 2.78711,1.583984 0.936827,0.482438 1.901757,0.902668 2.894531,1.261719 0.882845,0.322577 1.78702,0.571242 2.707031,0.751953 0.828989,0.165797 1.675814,0.251953 2.523438,0.251953 1.124602,0.0056 2.239993,-0.167181 3.308593,-0.519531 v -0.002 c 1.058662,-0.352887 2.053171,-0.878375 2.94336,-1.554688 h 0.002 v -0.002 c 0.976202,-0.74785 1.843014,-1.625511 2.583984,-2.605469 l 0.002,-0.002 c 0.277863,-0.363055 0.535788,-0.73546 0.78711,-1.115234 l -0.669922,-0.705078 c -0.229428,0.135571 -0.467718,0.26218 -0.712891,0.384765 h -0.002 l -0.0039,0.002 c -0.420779,0.218182 -0.858947,0.400899 -1.314453,0.552735 -0.376066,0.123531 -0.768151,0.198382 -1.169922,0.228515 l -0.804688,0.05859 -0.136718,0.171875 c -1.208199,1.518047 -3.068227,2.490235 -5.16211,2.490235 -3.647803,0 -6.59375,-2.945946 -6.59375,-6.59375 0,-3.647216 2.945993,-6.59375 6.59375,-6.59375 0.897455,0 1.672617,0.355749 2.451172,0.679687 -0.756152,-0.314415 -1.582603,-0.496094 -2.451172,-0.496094 -3.534933,0 -6.410156,2.875223 -6.410156,6.410157 0,3.534933 2.875223,6.412109 6.410156,6.412109 3.534934,0 6.41211,-2.877176 6.41211,-6.412109 0,-1.683607 -0.684651,-3.192661 -1.75,-4.337891 0.362873,0.39057 0.839448,0.670461 1.099609,1.140625 l 0.300781,0.542969 0.466797,-0.410157 c 0.864811,-0.759441 1.681125,-1.575585 2.431641,-2.449218 0.658788,-0.766694 1.238006,-1.590488 1.742187,-2.462891 l 0.002,-0.002 c 0.44332,-0.77725 0.787978,-1.600525 1.035157,-2.457031 v -0.002 c 0.226703,-0.802181 0.34375,-1.63061 0.34375,-2.46875 0,-0.267447 -0.01192,-0.533511 -0.03516,-0.800782 z m -0.923828,1.199218 c 8.71e-4,0.04886 0.0059,0.09763 0.0059,0.146485 0,0.745547 -0.102476,1.479793 -0.304688,2.195312 -0.225691,0.781544 -0.540145,1.529394 -0.943359,2.236328 -0.474301,0.820378 -1.016446,1.59127 -1.632813,2.308594 -0.600076,0.698514 -1.269243,1.339372 -1.951172,1.964844 -1.361238,-2.02626 -3.632125,-3.392578 -6.251953,-3.392578 -4.188201,0 -7.59375,3.406107 -7.59375,7.59375 0,4.188154 3.405596,7.59375 7.59375,7.59375 2.302873,0 4.334146,-1.069269 5.726563,-2.691407 l 0.451172,-0.03125 c 0.477408,-0.03581 0.950932,-0.126283 1.410156,-0.277343 h 0.002 c 0.08042,-0.02681 0.154723,-0.069 0.234375,-0.09766 -0.566216,0.658661 -1.138899,1.315747 -1.828125,1.84375 -0.80223,0.609124 -1.700176,1.082694 -2.652344,1.400391 -0.965384,0.318316 -1.97287,0.475931 -2.992187,0.470703 h -0.002 c -0.780057,0 -1.560474,-0.07928 -2.326172,-0.232422 h -0.002 c -0.872,-0.17119 -1.726368,-0.406855 -2.558594,-0.710937 h -0.002 C 16.622924,32.792042 15.696155,32.38693 14.796875,31.923828 h -0.002 c -0.849746,-0.432326 -1.674862,-0.910786 -2.484375,-1.412109 -0.01226,-0.275563 -0.02539,-0.550636 -0.02539,-0.826172 v -0.002 c -0.0053,-1.0688 0.107515,-2.138506 0.335938,-3.179688 v -0.002 c 0.211079,-0.981519 0.544383,-1.931951 0.988281,-2.835937 v -0.002 c 0.449727,-0.909741 1.005667,-1.761535 1.65625,-2.539062 0.703129,-0.841624 1.49176,-1.602077 2.349609,-2.273438 v -0.002 c 0.96615,-0.756817 2.002845,-1.428854 3.083985,-2.009765 v 0.002 c 1.239977,-0.6606 2.521443,-1.239712 3.835937,-1.726563 1.501906,-0.555052 3.031019,-1.034439 4.580078,-1.425781 1.348842,-0.34081 2.711891,-0.620482 4.078125,-0.873047 z m -8.576172,7.152344 c 0.725062,0.308509 1.305745,0.72814 1.869141,1.261719 -0.548343,-0.516531 -1.166137,-0.962549 -1.869141,-1.261719 z m -2.501953,0.490234 c 2.994482,0 5.41211,2.415675 5.41211,5.410157 0,2.994481 -2.417628,5.412109 -5.41211,5.412109 -2.994481,0 -5.410156,-2.417628 -5.410156,-5.412109 0,-2.994482 2.415675,-5.410157 5.410156,-5.410157 z m -1.757812,1.365235 c -0.287042,-0.007 -0.564092,0.09692 -0.773438,0.294922 -0.210456,0.198078 -0.332031,0.47501 -0.332031,0.765625 v 2.984375 2.984375 c 0,0.385184 0.214313,0.738163 0.546875,0.923828 0.332243,0.185109 0.736378,0.185787 1.068359,0 l 2.669922,-1.492188 2.669922,-1.492187 c 0.3319,-0.185742 0.546875,-0.539557 0.546875,-0.923828 0,-0.384272 -0.214298,-0.737708 -0.546875,-0.923829 l -2.669922,-1.492187 -2.669922,-1.492188 h -0.002 c -0.155144,-0.08619 -0.329087,-0.132981 -0.507812,-0.136718 z m 12.439453,0.314453 c -0.185917,0.19123 -0.375729,0.37507 -0.568359,0.546875 -0.859332,0.73955 -1.876859,1.271826 -2.97461,1.548828 v 0.002 l -0.689453,0.175781 0.06836,0.449219 c 0.05055,0.328319 0.07617,0.664167 0.07617,1.007813 0,0.403277 -0.03516,0.796601 -0.105468,1.177734 l -0.181641,0.984375 0.894531,-0.445313 c 0.701247,-0.348589 1.351221,-0.781306 1.945313,-1.285156 l 0.002,-0.002 0.002,-0.002 c 0.594432,-0.512036 1.111009,-1.11544 1.523437,-1.787109 v -0.002 c 0.358056,-0.586974 0.639764,-1.218335 0.84375,-1.871093 z m -12.462891,0.683594 h 0.002 0.002 c 0.0138,2.34e-4 0.02931,0.0056 0.04102,0.01172 l 2.669922,1.492188 2.669922,1.492187 c 0.02705,0.01514 0.03516,0.03363 0.03516,0.05078 0,0.01715 -0.0074,0.03526 -0.03516,0.05078 l -2.669922,1.492187 -2.669922,1.492188 c -0.02704,0.01513 -0.06671,0.01513 -0.09375,0 -0.02597,-0.0145 -0.0332,-0.03455 -0.0332,-0.05078 v -2.984375 -2.984375 c 0,-0.01183 0.0037,-0.02403 0.01758,-0.03711 v -0.002 c 0.01391,-0.01316 0.03916,-0.02405 0.06445,-0.02344 z m 11.632813,1.095703 c -0.01278,0.02147 -0.01824,0.04704 -0.03125,0.06836 h 0.002 c -0.356677,0.580875 -0.807261,1.106585 -1.322266,1.550781 -0.285937,0.242504 -0.6195,0.41221 -0.93164,0.615235 0.0036,-0.09572 0.02539,-0.186679 0.02539,-0.283203 0,-0.252922 -0.0324,-0.4972 -0.05664,-0.744141 0.850512,-0.234047 1.584199,-0.721379 2.314453,-1.207031 z"
     id="path7" />
</svg>
