<?xml version="1.0" encoding="UTF-8" standalone="no"?>
<!-- Generator: Gravit.io -->

<svg
   style="isolation:isolate"
   viewBox="0 0 48 48"
   width="48pt"
   height="48pt"
   version="1.1"
   id="svg9"
   sodipodi:docname="system-log-out.svg"
   inkscape:version="1.1.2 (0a00cf5339, 2022-02-04)"
   xmlns:inkscape="http://www.inkscape.org/namespaces/inkscape"
   xmlns:sodipodi="http://sodipodi.sourceforge.net/DTD/sodipodi-0.dtd"
   xmlns:xlink="http://www.w3.org/1999/xlink"
   xmlns="http://www.w3.org/2000/svg"
   xmlns:svg="http://www.w3.org/2000/svg">
  <defs
     id="defs13">
    <linearGradient
       inkscape:collect="always"
       xlink:href="#_lgradient_56"
       id="linearGradient872"
       x1="-12.025727"
       y1="6.1170783"
       x2="-0.085100174"
       y2="6.1170783"
       gradientUnits="userSpaceOnUse"
       gradientTransform="matrix(3.8358211,0,0,3.8371386,-0.00544341,-0.00268054)" />
    <linearGradient
       inkscape:collect="always"
       xlink:href="#_lgradient_56"
       id="linearGradient15"
       x1="-9.6850061"
       y1="45.161198"
       x2="11.98815"
       y2="21.735205"
       gradientUnits="userSpaceOnUse"
       gradientTransform="matrix(1.1147442,0,0,1.1150348,-0.01237238,-3.3277956)" />
    <linearGradient
       inkscape:collect="always"
       xlink:href="#_lgradient_56"
       id="linearGradient878"
       x1="9.758152"
       y1="24.053446"
       x2="38.168339"
       y2="24.053446"
       gradientUnits="userSpaceOnUse" />
  </defs>
  <sodipodi:namedview
     id="namedview11"
     pagecolor="#ffffff"
     bordercolor="#666666"
     borderopacity="1.0"
     inkscape:pageshadow="2"
     inkscape:pageopacity="0.0"
     inkscape:pagecheckerboard="0"
     inkscape:document-units="pt"
     showgrid="false"
     inkscape:zoom="10.21875"
     inkscape:cx="31.95107"
     inkscape:cy="32"
     inkscape:window-width="1600"
     inkscape:window-height="836"
     inkscape:window-x="0"
     inkscape:window-y="0"
     inkscape:window-maximized="1"
     inkscape:current-layer="svg9" />
  <linearGradient
     id="_lgradient_56"
     x1="0.21874999649848828"
     y1="0.17506041551987891"
     x2="1.098990208503709"
     y2="1.1181589937900303"
     gradientTransform="matrix(28.410545,0,0,28.528155,9.7584298,9.7890978)"
     gradientUnits="userSpaceOnUse">
    <stop
       offset="0%"
       stop-opacity="1"
       style="stop-color:rgb(252,203,144)"
       id="stop2" />
    <stop
       offset="83.91304347826087%"
       stop-opacity="1"
       style="stop-color:rgb(213,126,235)"
       id="stop4" />
  </linearGradient>
  <rect
     x="-46.783188"
     y="1.2253767"
     height="45.80014"
     rx="6.1837621"
     shape-rendering="crispEdges"
     id="rect5-6-7-3"
     ry="6.8055277"
     transform="matrix(0.00524063,-0.99998627,0.99998801,0.00489691,0,0)"
     style="isolation:isolate;fill:#b200ff;fill-opacity:0.13470298;stroke:url(#linearGradient872);stroke-width:2.0301;stroke-miterlimit:4;stroke-dasharray:none;stroke-opacity:1"
     width="45.801998" />
  <rect
     x="-15.686804"
     y="17.260084"
     height="33.345856"
     rx="6.7920032"
     shape-rendering="crispEdges"
     id="rect5-6-6-6-6"
     style="isolation:isolate;fill:#b200ff;fill-opacity:0.13470298;stroke:url(#linearGradient15);stroke-width:1.67233;stroke-miterlimit:4;stroke-dasharray:none;stroke-opacity:1"
     ry="7.4743071"
     transform="matrix(0.72446484,-0.68931175,0.68622417,0.72739012,0,0)"
     width="33.338203" />
  <path
     style="color:#000000;fill:url(#linearGradient878);fill-rule:evenodd;-inkscape-stroke:none"
     d="m 24.919922,9.3164063 c -3.90566,-0.2384561 -7.75117,1.0871757 -10.685547,3.6777347 v 0.002 c -2.928118,2.598101 -4.7113928,6.252594 -4.9492187,10.158203 -0.2378253,3.904978 1.0870827,7.751692 3.6777347,10.685547 l 0.002,0.002 c 2.598101,2.928117 6.252649,4.710769 10.158203,4.949219 3.71783,0.22652 7.387589,-0.96306 10.267578,-3.322266 2.880693,-2.365544 4.761583,-5.733928 5.261719,-9.421875 0.133463,-0.97846 -0.561005,-1.892192 -1.539063,-2.023438 -0.977103,-0.13195 -1.889647,0.560465 -2.023437,1.53711 -0.381348,2.793643 -1.797557,5.344821 -3.976563,7.132812 -2.179158,1.787537 -4.958386,2.680978 -7.771484,2.509766 -2.954468,-0.180448 -5.718557,-1.530111 -7.685547,-3.746094 -1.959799,-2.220979 -2.963035,-5.130107 -2.783203,-8.083984 0.179827,-2.953814 1.529444,-5.718625 3.74414,-7.685547 2.221831,-1.960063 5.12966,-2.963642 8.083985,-2.783203 0.984567,0.06018 1.844135,-0.701259 1.904297,-1.685547 0.06018,-0.984566 -0.701258,-1.8421833 -1.685547,-1.9023437 z m -0.06055,0.9980467 c 0.443997,0.02714 0.775167,0.40003 0.748047,0.84375 -0.02714,0.443997 -0.40003,0.775167 -0.84375,0.748047 -3.219555,-0.196638 -6.389101,0.896813 -8.808594,3.03125 l -0.002,0.002 C 13.54054,17.081515 12.071004,20.092962 11.875,23.3125 c -0.195999,3.219431 0.896087,6.389627 3.03125,8.808594 h 0.002 c 2.14206,2.413215 5.153636,3.883448 8.373047,4.080078 3.063728,0.186466 6.089978,-0.786302 8.464844,-2.734375 2.375019,-1.948831 3.920693,-4.727572 4.335937,-7.769531 0.06021,-0.439516 0.456955,-0.74126 0.898438,-0.681641 0.440527,0.05911 0.740217,0.45272 0.679687,0.896484 -0.466201,3.437718 -2.216602,6.577748 -4.902344,8.783203 -2.685233,2.199668 -6.10623,3.308836 -9.572265,3.097657 -3.640836,-0.222288 -7.049933,-1.884772 -9.472656,-4.615235 -2.415624,-2.735639 -3.651387,-6.320737 -3.429688,-9.960937 0.2217,-3.640784 1.884771,-7.049933 4.615235,-9.472656 2.736178,-2.41502 6.320736,-3.651937 9.960937,-3.429688 z m 5.453125,0.902344 c -0.447587,0.109881 -0.8541,0.390522 -1.109375,0.8125 -0.50969,0.842515 -0.236384,1.953645 0.605469,2.464844 2.045385,1.244184 3.635495,3.100955 4.544922,5.314453 v 0.002 c 0.378979,0.911555 1.439055,1.351478 2.351562,0.974609 0.911796,-0.376575 1.348308,-1.436407 0.970703,-2.347656 C 36.4753,15.520074 34.366791,13.058319 31.669922,11.421875 31.248116,11.166286 30.760087,11.106916 30.3125,11.216797 Z m 0.839844,1.060547 c 2.514312,1.525669 4.480642,3.821685 5.599609,6.541015 v 0.002 c 0.171426,0.412329 -0.01812,0.871038 -0.429687,1.041016 -0.411508,0.169954 -0.873442,-0.02309 -1.044922,-0.435547 -0.990617,-2.410161 -2.723566,-4.431317 -4.949219,-5.785156 h -0.002 c -0.381007,-0.230868 -0.498164,-0.713585 -0.267578,-1.09375 0.230266,-0.380638 0.71277,-0.500382 1.09375,-0.269531 z m -8.78125,4.146484 c -0.887012,-0.01267 -1.629904,0.253854 -1.929688,0.892578 -0.299783,0.638724 -0.03156,1.382249 0.544922,2.056641 l 1.568359,1.833984 -2.43164,2.080078 c -0.564252,0.48214 -0.63025,1.34434 -0.148438,1.908203 0.48196,0.564034 1.344092,0.632414 1.908203,0.150391 l 4.490235,-3.839844 -1.830078,-2.142578 5.125,-0.207031 -1.003907,5.03125 -1.830078,-2.142578 -7.445312,6.363281 -0.50586,-0.589844 0.84375,-0.80664 C 20.289878,26.529563 20.357024,25.667626 19.875,25.103516 19.39304,24.539483 18.530908,24.4711 17.966797,24.953125 l -0.0098,0.0098 -1.753906,1.675781 c -0.38722,0.330054 -0.455887,0.852053 -0.355469,1.30664 0.03748,0.328664 0.15826,0.654611 0.388672,0.923829 v 0.002 l 1.744141,2.03125 c 0.213911,0.249562 0.489798,0.40909 0.77539,0.505859 0.452477,0.203402 1.015117,0.237788 1.425782,-0.113281 l 6.351562,-5.433594 1.570313,1.835938 c 0.576447,0.674347 1.267691,1.056075 1.945312,0.859375 0.677622,-0.196701 1.057968,-0.889225 1.183594,-1.767579 l 0.976562,-6.83789 c 0.260483,-1.821248 -1.090626,-3.403426 -2.929687,-3.429688 z m -0.01367,1 6.90625,0.09766 c 1.302442,0.0186 2.139571,0.999121 1.955078,2.289063 l -0.976563,6.83789 c -0.09686,0.677241 -0.334742,0.909186 -0.472656,0.949219 -0.137914,0.04003 -0.4618,-0.0289 -0.90625,-0.548828 l -2.21875,-2.597656 -7.113281,6.082031 c -0.04211,0.036 -0.163113,0.06953 -0.375,-0.0293 l -0.03125,-0.01367 -0.0332,-0.01172 C 18.955119,30.436227 18.835026,30.36059 18.740234,30.25 h -0.002 l -1.74414,-2.03125 h 0.002 c -0.103468,-0.120893 -0.15779,-0.260139 -0.169922,-0.404297 l -0.0039,-0.03711 -0.0098,-0.03711 c -0.04976,-0.208079 -8.6e-4,-0.305815 0.03906,-0.339843 l 0.0098,-0.0098 1.755859,-1.675781 c 0.152458,-0.130273 0.367712,-0.113468 0.498047,0.03906 0.130272,0.152457 0.112986,0.367905 -0.03906,0.498047 l -0.0098,0.0098 -1.558594,1.488281 0.308594,0.359375 1.464844,1.707031 7.441406,-6.361328 1.480469,1.730469 c 0.171151,0.200099 0.460557,0.391565 0.800781,0.302734 0.340224,-0.08883 0.498983,-0.396322 0.550781,-0.654297 l 1.107422,-5.546875 c 0.05615,-0.282952 -0.0114,-0.590944 -0.199218,-0.810547 -0.187814,-0.219602 -0.48134,-0.333949 -0.769532,-0.322265 l -5.65039,0.230469 c -0.26315,0.01069 -0.59167,0.119391 -0.732422,0.441406 -0.140752,0.322015 0.0024,0.637475 0.173828,0.83789 l 1.480469,1.730469 -3.732422,3.191406 c -0.152458,0.130273 -0.367712,0.113468 -0.498047,-0.03906 -0.130483,-0.152704 -0.11326,-0.369844 0.03906,-0.5 l 3.19336,-2.728516 -2.21875,-2.595703 c -0.444412,-0.519888 -0.463421,-0.850337 -0.402344,-0.980469 0.06108,-0.130131 0.32798,-0.328123 1.011719,-0.318359 z"
     id="path7" />
</svg>
