<?xml version="1.0" encoding="UTF-8" standalone="no"?>
<!-- Generator: Gravit.io -->

<svg
   style="isolation:isolate"
   viewBox="0 0 48 48"
   width="48pt"
   height="48pt"
   version="1.1"
   id="svg2"
   sodipodi:docname="system-switch-user.svg"
   inkscape:version="1.1.2 (0a00cf5339, 2022-02-04)"
   xmlns:inkscape="http://www.inkscape.org/namespaces/inkscape"
   xmlns:sodipodi="http://sodipodi.sourceforge.net/DTD/sodipodi-0.dtd"
   xmlns:xlink="http://www.w3.org/1999/xlink"
   xmlns="http://www.w3.org/2000/svg"
   xmlns:svg="http://www.w3.org/2000/svg">
  <defs
     id="defs2">
    <linearGradient
       id="_lgradient_9"
       x1="0"
       y1="0.5"
       x2="0.88699901"
       y2="0.011344648"
       gradientTransform="matrix(12.322,0,0,12.615446,17.839,16.687793)"
       gradientUnits="userSpaceOnUse">
      <stop
         offset="0%"
         stop-opacity="1"
         style="stop-color:rgb(84,51,255)"
         id="stop4" />
      <stop
         offset="49.166666666666664%"
         stop-opacity="1"
         style="stop-color:rgb(233,72,255)"
         id="stop5" />
      <stop
         offset="97.08333333333333%"
         stop-opacity="1"
         style="stop-color:rgb(255,0,91)"
         id="stop6" />
    </linearGradient>
    <linearGradient
       inkscape:collect="always"
       xlink:href="#_lgradient_0"
       id="linearGradient872"
       x1="-12.025727"
       y1="6.1170783"
       x2="-0.085100174"
       y2="6.1170783"
       gradientUnits="userSpaceOnUse"
       gradientTransform="matrix(3.8358211,0,0,3.8371386,-0.00544341,-0.00268054)" />
    <linearGradient
       inkscape:collect="always"
       xlink:href="#_lgradient_0"
       id="linearGradient15"
       x1="-9.6850061"
       y1="45.161198"
       x2="11.98815"
       y2="21.735205"
       gradientUnits="userSpaceOnUse"
       gradientTransform="matrix(1.1147442,0,0,1.1150348,-0.01237238,-3.3277956)" />
    <linearGradient
       inkscape:collect="always"
       xlink:href="#_lgradient_0"
       id="linearGradient967"
       x1="11.384554"
       y1="24"
       x2="36.615444"
       y2="24"
       gradientUnits="userSpaceOnUse" />
    <linearGradient
       inkscape:collect="always"
       xlink:href="#_lgradient_9"
       id="linearGradient997"
       x1="17.839001"
       y1="22.995516"
       x2="30.160999"
       y2="22.995516"
       gradientUnits="userSpaceOnUse" />
  </defs>
  <sodipodi:namedview
     id="namedview2"
     pagecolor="#505050"
     bordercolor="#ffffff"
     borderopacity="1"
     inkscape:showpageshadow="0"
     inkscape:pageopacity="0"
     inkscape:pagecheckerboard="1"
     inkscape:deskcolor="#505050"
     inkscape:document-units="pt"
     inkscape:zoom="6.7109375"
     inkscape:cx="31.962747"
     inkscape:cy="32.037253"
     inkscape:window-width="1600"
     inkscape:window-height="836"
     inkscape:window-x="0"
     inkscape:window-y="0"
     inkscape:window-maximized="1"
     inkscape:current-layer="svg2"
     inkscape:pageshadow="2"
     showgrid="false" />
  <linearGradient
     id="_lgradient_0"
     x1="0"
     y1="0.5"
     x2="1"
     y2="0.5"
     gradientTransform="matrix(25.230893,0,0,25.230893,11.384554,11.384554)"
     gradientUnits="userSpaceOnUse">
    <stop
       offset="0%"
       stop-opacity="1"
       style="stop-color:rgb(88,0,226)"
       id="stop1" />
    <stop
       offset="100%"
       stop-opacity="1"
       style="stop-color:rgb(255,0,230)"
       id="stop2" />
  </linearGradient>
  <rect
     x="-46.783188"
     y="1.2253767"
     height="45.80014"
     rx="6.1837621"
     shape-rendering="crispEdges"
     id="rect5-6-7-3"
     ry="6.8055277"
     transform="matrix(0.00524063,-0.99998627,0.99998801,0.00489691,0,0)"
     style="isolation:isolate;fill:#f800ff;fill-opacity:0.13470298;stroke:url(#linearGradient872);stroke-width:2.0301;stroke-miterlimit:4;stroke-dasharray:none;stroke-opacity:1"
     width="45.801998" />
  <rect
     x="-15.686804"
     y="17.260084"
     height="33.345856"
     rx="6.7920032"
     shape-rendering="crispEdges"
     id="rect5-6-6-6-6"
     style="isolation:isolate;fill:#f800ff;fill-opacity:0.13470298;stroke:url(#linearGradient15);stroke-width:1.67233;stroke-miterlimit:4;stroke-dasharray:none;stroke-opacity:1"
     ry="7.4743071"
     transform="matrix(0.72446484,-0.68931175,0.68622417,0.72739012,0,0)"
     width="33.338203" />
  <path
     style="color:#000000;fill:url(#linearGradient967);fill-rule:evenodd;-inkscape-stroke:none"
     d="m 24,10.884766 c -2.166156,0 -4.261446,0.619039 -6.166016,1.640625 0.01038,-0.753179 -0.43813,-1.457754 -1.201172,-1.609375 -0.858648,-0.170619 -1.706272,0.394945 -1.876953,1.253906 l -0.513671,2.560547 c -0.171383,0.854543 0.298035,1.721167 1.107421,2.044922 l 2.574219,1.029296 c 0.811959,0.324466 1.746299,-0.07653 2.072266,-0.888671 0.249816,-0.622412 -0.01734,-1.236762 -0.478516,-1.675782 C 20.910694,14.52561 22.42434,14.078125 24,14.078125 c 1.682309,0 3.332415,0.424187 4.798828,1.238281 0.766426,0.42447 1.747201,0.143747 2.171875,-0.623047 0.424471,-0.766426 0.143748,-1.747201 -0.623047,-2.171875 h -0.002 C 28.401699,11.449716 26.218487,10.884766 24,10.884766 Z m 0,1 c 2.048821,0 4.066536,0.521137 5.863281,1.511718 0.292902,0.162218 0.394845,0.51923 0.232422,0.8125 -0.162217,0.292902 -0.519231,0.394844 -0.8125,0.232422 C 27.667062,13.544189 25.850011,13.078125 24,13.078125 c -2.031535,0 -4.018268,0.564516 -5.744141,1.636719 l -0.841797,0.523437 1.320313,0.527344 c 0.311829,0.126902 0.45813,0.468038 0.333984,0.777344 -0.124897,0.311179 -0.465365,0.457092 -0.773437,0.333984 L 15.720703,15.847656 C 15.405671,15.721643 15.155991,15.26014 15.222656,14.927734 l 0.513672,-2.5625 c 0.06517,-0.327988 0.372872,-0.533985 0.701172,-0.46875 0.327987,0.06517 0.533985,0.372874 0.46875,0.701172 l -0.353516,1.769532 0.982422,-0.613282 0.06445,-0.04101 0.002,-0.002 C 19.523755,12.516066 21.741053,11.884766 24,11.884766 Z m 8.541016,3.02539 c -0.876073,0 -1.597657,0.721584 -1.597657,1.597656 0,0.876072 0.721584,1.597657 1.597657,1.597657 0.876071,0 1.595703,-0.721585 1.595703,-1.597657 0,-0.876072 -0.719632,-1.597656 -1.595703,-1.597656 z m 0,1 c 0.335009,0 0.595703,0.262646 0.595703,0.597656 0,0.33501 -0.260694,0.597657 -0.595703,0.597657 -0.335011,0 -0.597657,-0.262647 -0.597657,-0.597657 0,-0.33501 0.262646,-0.597656 0.597657,-0.597656 z m -18.652344,2.34375 c -0.814403,-0.323541 -1.750456,0.07957 -2.074219,0.894531 -0.615856,1.540311 -0.929687,3.187812 -0.929687,4.851563 0,2.182574 0.540656,4.33153 1.583984,6.248047 0.416223,0.771282 1.395601,1.062665 2.166016,0.644531 0.770813,-0.418353 1.059044,-1.397816 0.638672,-2.167969 -0.7828,-1.451672 -1.195313,-3.07554 -1.195313,-4.724609 0,-1.259637 0.236185,-2.506156 0.705078,-3.667969 v -0.002 -0.002 c 0.323541,-0.814403 -0.07957,-1.750456 -0.894531,-2.074219 z m 20.349609,0.226563 c -0.820904,0.306155 -1.244207,1.23273 -0.9375,2.052734 0.412257,1.112188 0.621094,2.281093 0.621094,3.466797 0,1.561968 -0.366327,3.102499 -1.076172,4.496094 -0.397427,0.779964 -0.08126,1.748717 0.699219,2.146484 0.780356,0.397703 1.749217,0.08577 2.144531,-0.695312 0.940911,-1.842554 1.425781,-3.884051 1.425781,-5.947266 0,-1.562493 -0.278846,-3.113318 -0.820312,-4.578125 -0.305888,-0.822566 -1.235058,-1.247813 -2.056641,-0.941406 z m -20.71875,0.703125 c 0.311652,0.123811 0.458017,0.46318 0.333985,0.77539 l 0.002,-0.002 C 13.337067,21.241516 13.078125,22.615882 13.078125,24 c 0,1.816584 0.454498,3.603769 1.316406,5.201172 v 0.002 h 0.002 c 0.161036,0.295028 0.05608,0.650785 -0.238281,0.810547 -0.294766,0.159981 -0.649991,0.05366 -0.808594,-0.240235 l -0.002,-0.002 C 12.384282,28.002667 11.884766,26.018064 11.884766,24 c 0,-1.538826 0.288997,-3.061362 0.857422,-4.482422 h 0.002 c 0.123811,-0.311652 0.463181,-0.458017 0.77539,-0.333984 z m 21.06836,0.232422 c 0.313806,-0.117033 0.651979,0.03741 0.769531,0.353515 0.500679,1.354469 0.757812,2.787197 0.757812,4.230469 0,1.907291 -0.447827,3.793832 -1.316406,5.494141 -0.149891,0.296163 -0.500598,0.410798 -0.800781,0.257812 -0.299438,-0.152607 -0.413528,-0.50577 -0.261719,-0.802734 0.782066,-1.535381 1.185547,-3.231175 1.185547,-4.949219 0,-1.303826 -0.229671,-2.59254 -0.683594,-3.816406 h -0.002 c -0.116732,-0.312093 0.03708,-0.650292 0.351563,-0.767578 z m -6.154297,10.751953 c -0.387751,0.12966 -0.727868,0.406141 -0.923828,0.796875 -0.364644,0.727071 -0.06501,1.571699 0.599609,2.009765 -1.293056,0.593735 -2.682018,0.947266 -4.109375,0.947266 -1.545849,0 -3.069478,-0.360575 -4.447266,-1.054688 h -0.002 c -0.783688,-0.394223 -1.752366,-0.07449 -2.146484,0.708985 -0.394223,0.783688 -0.07254,1.754319 0.710937,2.148437 1.825814,0.918612 3.843865,1.390625 5.884766,1.390625 1.790064,0 3.538507,-0.416017 5.173828,-1.121093 0.177845,0.522808 0.521899,0.975458 1.097656,1.089843 0.858648,0.170619 1.70432,-0.394945 1.875,-1.253906 l 0.498047,-2.490234 c 0.169593,-0.849528 -0.257649,-1.722383 -1.033203,-2.109375 L 29.648437,30.25 c -0.390814,-0.195408 -0.827093,-0.211692 -1.214843,-0.08203 z m -12.501953,0.523437 c -0.876072,0 -1.597657,0.719631 -1.597657,1.595703 0,0.876072 0.721585,1.597657 1.597657,1.597657 0.876072,0 1.597656,-0.721585 1.597656,-1.597657 0,-0.876072 -0.721584,-1.595703 -1.597656,-1.595703 z m 13.269531,0.453125 1.96289,0.980469 c 0.308276,0.153825 0.56736,0.682112 0.5,1.019531 l -0.498046,2.490235 c -0.06517,0.327988 -0.372873,0.533985 -0.701172,0.46875 -0.318663,-0.06331 -0.520255,-0.356542 -0.470703,-0.671875 l 0.148437,-0.945313 -0.859375,0.417969 C 27.639343,35.701208 25.833291,36.115234 24,36.115234 c -1.886339,0 -3.750978,-0.437607 -5.435547,-1.285156 -0.30035,-0.151087 -0.416607,-0.504545 -0.265625,-0.804687 0.151088,-0.30035 0.502592,-0.416608 0.802734,-0.265625 1.518278,0.764889 3.197184,1.162109 4.898438,1.162109 1.763388,0 3.499131,-0.424643 5.0625,-1.246094 l 0.002,-0.002 1.236328,-0.642578 -0.875,-0.439453 -0.751953,-0.376953 c -0.301075,-0.151452 -0.418744,-0.505216 -0.269531,-0.802735 0.149995,-0.299081 0.501255,-0.415388 0.796875,-0.267578 z m -13.269531,0.546875 c 0.33501,0 0.597656,0.260693 0.597656,0.595703 0,0.335009 -0.262646,0.597657 -0.597656,0.597657 -0.335009,0 -0.597657,-0.262648 -0.597657,-0.597657 0,-0.33501 0.262648,-0.595703 0.597657,-0.595703 z"
     id="path2" />
  <path
     style="color:#000000;isolation:isolate;fill:url(#linearGradient997);fill-rule:evenodd;-inkscape-stroke:none"
     d="m 24,16.1875 c -0.915851,0 -1.796019,0.366331 -2.443359,1.013672 -0.646929,0.646911 -1.009766,1.525321 -1.009766,2.439453 0,0.914684 0.361724,1.795318 1.009766,2.443359 0.246075,0.246075 0.525749,0.451813 0.828125,0.611328 l -0.05469,-0.0332 0.320313,0.22461 5.873046,4.154297 c -0.04101,-0.02206 0.01758,0.09661 0.01758,0.0332 v 0.609375 H 19.458984 V 27.09375 c 0,0.07464 0.06733,-0.04584 0.0039,-0.0059 l 3.064453,-1.929688 c 0.489351,-0.308504 0.639734,-0.968551 0.333984,-1.458984 -0.308217,-0.492734 -0.972083,-0.641476 -1.462891,-0.332032 v -0.002 l -3.113281,1.957032 c -0.586514,0.368618 -0.945312,1.016313 -0.945312,1.708984 v 1.431641 c 0,0.73432 0.605524,1.339843 1.339843,1.339843 h 10.640625 c 0.73432,0 1.339844,-0.605524 1.339844,-1.339843 v -1.41211 c 0,-0.684386 -0.336718,-1.337102 -0.896484,-1.732422 l -4.001953,-2.826172 c 0.226803,-0.13948 0.488219,-0.216735 0.679687,-0.408203 0.647458,-0.647457 1.011719,-1.527508 1.011719,-2.443359 0,-0.915299 -0.365369,-1.793126 -1.011719,-2.439453 C 25.794532,16.554299 24.915852,16.1875 24,16.1875 Z m 0,1 c 0.64956,0 1.27438,0.260709 1.734375,0.720703 0.459788,0.459333 0.71875,1.082863 0.71875,1.732422 0,0.649559 -0.259341,1.276919 -0.71875,1.736328 -0.286816,0.286815 -0.638021,0.495553 -1.019531,0.611328 l -0.976563,0.296875 5.447266,3.84961 c 0.198257,0.140013 0.474609,0.673443 0.474609,0.916015 v 1.41211 c 0,0.193737 -0.146106,0.339843 -0.339844,0.339843 H 18.679687 c -0.193737,0 -0.339843,-0.146107 -0.339843,-0.339843 V 27.03125 c 0,-0.234288 0.277627,-0.738252 0.476562,-0.863281 l 3.113281,-1.955078 h 0.002 c 0.03465,-0.02185 0.06225,-0.016 0.08203,0.01563 0.02085,0.03345 0.01213,0.0641 -0.01953,0.08398 l -3.064454,1.929687 c -0.324511,0.204524 -0.470703,0.467571 -0.470703,0.851563 v 0.808594 c 0,0.425361 0.355889,0.78125 0.78125,0.78125 h 9.519532 c 0.425361,0 0.78125,-0.355889 0.78125,-0.78125 v -0.828125 c 0,-0.375716 -0.133485,-0.63276 -0.439454,-0.84961 l -5.875,-4.154297 -0.345703,-0.24414 -0.0293,-0.01563 c -0.215405,-0.113636 -0.413816,-0.259521 -0.58789,-0.433594 -0.458826,-0.458825 -0.716797,-1.085601 -0.716797,-1.736328 0,-0.650727 0.257593,-1.273672 0.716797,-1.732422 C 22.723198,17.448677 23.350441,17.1875 24,17.1875 Z m 0,0.146484 c -0.609686,0 -1.197731,0.242113 -1.630859,0.677735 -0.432207,0.432207 -0.675782,1.018339 -0.675782,1.628906 0,0.610567 0.24209,1.199824 0.675782,1.632812 0.433162,0.433162 1.020292,0.673829 1.630859,0.673829 0.609685,0 1.196687,-0.240654 1.628906,-0.671875 v -0.002 c 4.43e-4,-4.41e-4 0.0015,4.43e-4 0.002,0 0.436149,-0.432952 0.675782,-1.023124 0.675782,-1.632812 0,-0.609061 -0.241954,-1.194903 -0.675782,-1.626953 C 25.198317,17.577625 24.610568,17.333984 24,17.333984 Z m 0,1 c 0.347109,0 0.67757,0.136529 0.921875,0.382813 l 0.002,0.002 v 0.002 c 0.246474,0.244493 0.382813,0.572814 0.382813,0.919922 0,0.347109 -0.137828,0.681206 -0.382813,0.923828 v 0.002 c -0.244449,0.244449 -0.576719,0.38086 -0.923828,0.38086 -0.347108,0 -0.680145,-0.137176 -0.923828,-0.38086 h -0.002 c -0.243154,-0.242759 -0.38086,-0.578671 -0.38086,-0.925781 0,-0.347108 0.138175,-0.677237 0.382813,-0.921875 v -0.002 C 23.319714,18.471281 23.652892,18.333984 24,18.333984 Z"
     id="path6" />
</svg>
