<?xml version="1.0" encoding="UTF-8" standalone="no"?>
<!-- Generator: Gravit.io -->

<svg
   style="isolation:isolate"
   viewBox="0 0 48 48"
   width="48pt"
   height="48pt"
   version="1.1"
   id="svg11"
   sodipodi:docname="system-shutdown.svg"
   inkscape:version="1.1.2 (0a00cf5339, 2022-02-04)"
   xmlns:inkscape="http://www.inkscape.org/namespaces/inkscape"
   xmlns:sodipodi="http://sodipodi.sourceforge.net/DTD/sodipodi-0.dtd"
   xmlns:xlink="http://www.w3.org/1999/xlink"
   xmlns="http://www.w3.org/2000/svg"
   xmlns:svg="http://www.w3.org/2000/svg">
  <defs
     id="defs15">
    <linearGradient
       inkscape:collect="always"
       xlink:href="#_lgradient_58"
       id="linearGradient872"
       x1="-12.025727"
       y1="6.1170783"
       x2="-0.085100174"
       y2="6.1170783"
       gradientUnits="userSpaceOnUse"
       gradientTransform="matrix(3.8358211,0,0,3.8371386,-0.00544341,-0.00268054)" />
    <linearGradient
       inkscape:collect="always"
       xlink:href="#_lgradient_58"
       id="linearGradient15"
       x1="-9.6850061"
       y1="45.161198"
       x2="11.98815"
       y2="21.735205"
       gradientUnits="userSpaceOnUse"
       gradientTransform="matrix(1.1147442,0,0,1.1150348,-0.01237238,-3.3277956)" />
    <linearGradient
       inkscape:collect="always"
       xlink:href="#_lgradient_58"
       id="linearGradient1024"
       x1="9.5686874"
       y1="24.000002"
       x2="38.430878"
       y2="24.000002"
       gradientUnits="userSpaceOnUse" />
  </defs>
  <sodipodi:namedview
     id="namedview13"
     pagecolor="#ffffff"
     bordercolor="#666666"
     borderopacity="1.0"
     inkscape:pageshadow="2"
     inkscape:pageopacity="0.0"
     inkscape:pagecheckerboard="0"
     inkscape:document-units="pt"
     showgrid="false"
     inkscape:zoom="10.21875"
     inkscape:cx="31.95107"
     inkscape:cy="32"
     inkscape:window-width="1600"
     inkscape:window-height="836"
     inkscape:window-x="0"
     inkscape:window-y="0"
     inkscape:window-maximized="1"
     inkscape:current-layer="svg11" />
  <linearGradient
     id="_lgradient_58"
     x1="-0.014458464773922156"
     y1="0.009839246119734024"
     x2="1.0164565923220248"
     y2="1.0722930524759795"
     gradientTransform="matrix(28.862214,0,0,28.980603,9.5688087,9.5096925)"
     gradientUnits="userSpaceOnUse">
    <stop
       offset="0%"
       stop-opacity="1"
       style="stop-color:rgb(249,212,35)"
       id="stop2" />
    <stop
       offset="51.56237565086822%"
       stop-opacity="1"
       style="stop-color:rgb(255,78,80)"
       id="stop4" />
    <stop
       offset="99.1304347826087%"
       stop-opacity="1"
       style="stop-color:rgb(138,35,135)"
       id="stop6" />
  </linearGradient>
  <rect
     x="-46.783188"
     y="1.2253767"
     height="45.80014"
     rx="6.1837621"
     shape-rendering="crispEdges"
     id="rect5-6-7-3"
     ry="6.8055277"
     transform="matrix(0.00524063,-0.99998627,0.99998801,0.00489691,0,0)"
     style="isolation:isolate;fill:#ff006e;fill-opacity:0.13470298;stroke:url(#linearGradient872);stroke-width:2.0301;stroke-miterlimit:4;stroke-dasharray:none;stroke-opacity:1"
     width="45.801998" />
  <rect
     x="-15.686804"
     y="17.260084"
     height="33.345856"
     rx="6.7920032"
     shape-rendering="crispEdges"
     id="rect5-6-6-6-6"
     style="isolation:isolate;fill:#ff006e;fill-opacity:0.13470298;stroke:url(#linearGradient15);stroke-width:1.67233;stroke-miterlimit:4;stroke-dasharray:none;stroke-opacity:1"
     ry="7.4743071"
     transform="matrix(0.72446484,-0.68931175,0.68622417,0.72739012,0,0)"
     width="33.338203" />
  <path
     style="color:#000000;fill:url(#linearGradient1024);fill-rule:evenodd;-inkscape-stroke:none"
     d="m 23.890625,9.0097656 c -3.674405,0.019137 -7.213306,1.3899304 -9.943359,3.8457034 l -0.002,0.002 c -2.729563,2.461708 -4.4633391,5.834896 -4.8652349,9.490234 -0.1042517,0.946016 0.5867702,1.809765 1.5332029,1.914063 0.946334,0.104192 1.809799,-0.587068 1.914063,-1.533203 0.307217,-2.806305 1.642822,-5.4063 3.740234,-7.291016 2.097416,-1.890629 4.816046,-2.942734 7.640625,-2.960937 0.950998,-0.0052 1.72978,-0.790665 1.724609,-1.742188 -0.0043,-0.9515483 -0.790662,-1.7297808 -1.742187,-1.7246094 z m 0.0059,1.0000004 c 0.409946,-0.0022 0.734472,0.318593 0.736328,0.728515 v 0.002 c 0.0022,0.409946 -0.318044,0.734097 -0.728515,0.736329 h -0.002 c -3.069495,0.01926 -6.022718,1.161569 -8.302735,3.216796 -2.280505,2.049243 -3.732349,4.87431 -4.066406,7.925782 -0.04495,0.407935 -0.401576,0.695418 -0.810547,0.65039 -0.407637,-0.04492 -0.695358,-0.404444 -0.65039,-0.8125 0.37503,-3.410989 1.994366,-6.558916 4.542968,-8.857422 2.54811,-2.292108 5.852332,-3.571985 9.28125,-3.589843 z m 5.695313,0.578125 c -0.445382,0.13868 -0.838139,0.444785 -1.070313,0.886718 -0.464279,0.882893 -0.119249,1.990227 0.763672,2.455079 2.155179,1.13757 3.8837,2.924843 4.945313,5.117187 l 0.002,0.002 c 0.438996,0.897413 1.535435,1.275806 2.433594,0.839844 0.899264,-0.436521 1.277287,-1.535363 0.83789,-2.433594 -1.398436,-2.8842 -3.690382,-5.250734 -6.527344,-6.74414 -0.441796,-0.232324 -0.939384,-0.261728 -1.384765,-0.123047 z m 0.919922,1.007812 c 2.648803,1.394358 4.788866,3.604361 6.09375,6.296875 v 0.002 c 0.201874,0.412678 0.03664,0.895885 -0.375,1.095703 -0.411167,0.200164 -0.897642,0.03201 -1.09961,-0.380859 C 33.97632,16.225922 32.093835,14.28104 29.751953,13.044922 H 29.75 c -0.404728,-0.212628 -0.556254,-0.699409 -0.34375,-1.103516 0.212689,-0.404845 0.701582,-0.558091 1.105469,-0.345703 z m -6.492188,4.505859 c -0.951266,0 -1.732422,0.781156 -1.732422,1.732422 V 24 c 0,0.951267 0.781157,1.732422 1.732422,1.732422 0.951267,0 1.732422,-0.781155 1.732422,-1.732422 v -6.166016 c 0,-0.951266 -0.781155,-1.732421 -1.732422,-1.732422 z m 0,1 c 0.410204,0 0.732422,0.32222 0.732422,0.732422 V 24 c 0,0.410204 -0.322217,0.732422 -0.732422,0.732422 -0.410203,0 -0.732422,-0.322218 -0.732422,-0.732422 v -6.166016 c 0,-0.410202 0.32222,-0.732422 0.732422,-0.732422 z m 4.0625,1.955079 c -0.444759,-0.01104 -0.893579,0.14628 -1.238281,0.474609 -0.689922,0.656334 -0.717053,1.761926 -0.06055,2.451172 l 0.002,0.002 c 0.124531,0.12972 0.244037,0.281783 0.355469,0.443359 l 0.002,0.002 0.002,0.0039 c 0.451127,0.635925 0.691407,1.398548 0.691406,2.177734 0,1.248059 -0.610356,2.413299 -1.630859,3.134766 -0.636758,0.446275 -1.400502,0.6875 -2.179687,0.6875 -1.248061,0 -2.413298,-0.610357 -3.134766,-1.63086 -0.446275,-0.636758 -0.6875,-1.400502 -0.6875,-2.179687 0,-0.982117 0.376489,-1.926227 1.046875,-2.634766 0.655759,-0.68936 0.628652,-1.79471 -0.06055,-2.451172 -0.689885,-0.6563 -1.797313,-0.628874 -2.453125,0.06055 v 0.002 c -1.284311,1.357132 -2,3.156944 -2,5.023438 0,1.491071 0.4651,2.946255 1.318359,4.169922 v 0.002 c 1.363763,1.946339 3.594593,3.103515 5.970704,3.103515 1.491071,0 2.948208,-0.463146 4.171875,-1.316406 1.946339,-1.363762 3.105468,-3.594592 3.105468,-5.970703 0,-1.490482 -0.463793,-2.946556 -1.316406,-4.169922 v -0.002 C 29.780069,20.140189 29.548485,19.85665 29.296875,19.591797 28.968716,19.247275 28.52679,19.067681 28.082031,19.056641 Z m -0.548828,1.199218 c 0.297168,-0.283053 0.75567,-0.272132 1.039063,0.02539 0.216662,0.228065 0.415973,0.473289 0.591796,0.728516 l 0.002,0.002 c 0.737589,1.057783 1.136718,2.315944 1.136718,3.599609 0,2.051135 -1.000372,3.975681 -2.679687,5.152344 -1.057332,0.736622 -2.31487,1.134765 -3.597656,1.134765 -2.050631,0 -3.973649,-0.999166 -5.150391,-2.677734 -0.737589,-1.057783 -1.138672,-2.313992 -1.138672,-3.597656 0,-1.611175 0.618434,-3.164978 1.726563,-4.335938 0.282789,-0.295523 0.739749,-0.308274 1.037109,-0.02539 0.297375,0.283249 0.308114,0.741852 0.02539,1.039062 h -0.002 c -0.84647,0.894644 -1.320312,2.084593 -1.320312,3.322266 0,0.984313 0.302226,1.947802 0.867187,2.753906 h 0.002 c 0.906505,1.284215 2.378064,2.056641 3.953125,2.056641 0.984313,0 1.947802,-0.304179 2.753906,-0.869141 h 0.002 c 1.284215,-0.906505 2.054687,-2.378066 2.054687,-3.953125 10e-7,-0.984314 -0.302557,-1.948922 -0.875,-2.755859 -0.134436,-0.194544 -0.284934,-0.385267 -0.455078,-0.5625 h 0.002 c -0.283204,-0.297328 -0.272488,-0.753732 0.02539,-1.03711 z m 9.798828,3.060547 c -0.948001,-0.07598 -1.78679,0.64493 -1.863281,1.59375 -0.224485,2.882865 -1.536454,5.584697 -3.664063,7.552735 -2.127626,1.968055 -4.916971,3.060546 -7.8125,3.060546 l -0.392578,-0.0059 c -0.951469,-0.01465 -1.745122,0.756042 -1.759765,1.707031 -0.01383,0.950962 0.756036,1.745123 1.707031,1.759766 l 0.410156,0.0059 h 0.02344 c 3.769928,0 7.405341,-1.422488 10.173828,-3.980468 2.768402,-2.557901 4.477992,-6.072097 4.771484,-9.830079 v -0.002 c 0.07159,-0.946993 -0.646321,-1.785465 -1.59375,-1.861328 z m -0.08008,0.996094 c 0.407876,0.03266 0.708507,0.383938 0.677734,0.791016 -0.274217,3.504942 -1.869838,6.785014 -4.453125,9.171875 -2.583669,2.387216 -5.977716,3.714843 -9.496093,3.714843 h -0.01563 l -0.402344,-0.0059 c -0.410476,-0.0063 -0.728626,-0.333632 -0.722656,-0.744141 0.0063,-0.410479 0.334139,-0.728968 0.74414,-0.722656 l 0.404297,0.0059 h 0.0039 c 3.14723,0 6.180237,-1.187617 8.492188,-3.326171 2.311499,-2.138137 3.735902,-5.072521 3.980469,-8.207032 0.03327,-0.412648 0.38104,-0.710278 0.787109,-0.677734 z m -26.271484,2.828125 c -0.889192,0.342064 -1.3380292,1.353326 -0.996094,2.242187 v 0.002 h 0.00195 c 1.2181209,3.144152 3.4555369,5.791674 6.3574219,7.513671 0.818365,0.484989 1.889893,0.210282 2.375,-0.607421 0.485214,-0.817883 0.211244,-1.889833 -0.607422,-2.375 -2.234455,-1.324122 -3.952806,-3.355855 -4.886719,-5.779297 -0.342062,-0.889193 -1.355279,-1.338029 -2.24414,-0.996094 z m 0.359375,0.933594 c 0.383817,-0.147651 0.803649,0.03839 0.951172,0.421875 1.01457,2.632744 2.883446,4.842968 5.310546,6.28125 0.35289,0.209133 0.4669,0.651466 0.257813,1.003906 -0.208811,0.351974 -0.651038,0.463614 -1.003906,0.255859 -2.70876,-1.607395 -4.800039,-4.076814 -5.9375,-7.011718 v -0.002 c -0.146254,-0.38328 0.03905,-0.801948 0.421875,-0.949218 z"
     id="path9" />
</svg>
