<?xml version="1.0" encoding="UTF-8" standalone="no"?>
<!-- Generator: Gravit.io -->

<svg
   style="isolation:isolate"
   viewBox="0 0 48 48"
   width="48pt"
   height="48pt"
   version="1.1"
   id="svg9"
   sodipodi:docname="tagainijisho.svg"
   inkscape:version="1.1.2 (0a00cf5339, 2022-02-04)"
   xmlns:inkscape="http://www.inkscape.org/namespaces/inkscape"
   xmlns:sodipodi="http://sodipodi.sourceforge.net/DTD/sodipodi-0.dtd"
   xmlns:xlink="http://www.w3.org/1999/xlink"
   xmlns="http://www.w3.org/2000/svg"
   xmlns:svg="http://www.w3.org/2000/svg">
  <defs
     id="defs13">
    <linearGradient
       inkscape:collect="always"
       xlink:href="#_lgradient_8"
       id="linearGradient872"
       x1="-12.025727"
       y1="6.1170783"
       x2="-0.085100174"
       y2="6.1170783"
       gradientUnits="userSpaceOnUse"
       gradientTransform="matrix(3.8358211,0,0,3.8371386,-0.00544341,-0.00268054)" />
    <linearGradient
       inkscape:collect="always"
       xlink:href="#_lgradient_8"
       id="linearGradient15"
       x1="-9.6850061"
       y1="45.161198"
       x2="11.98815"
       y2="21.735205"
       gradientUnits="userSpaceOnUse"
       gradientTransform="matrix(1.1147442,0,0,1.1150348,-0.01237238,-3.3277956)" />
    <linearGradient
       inkscape:collect="always"
       xlink:href="#_lgradient_8"
       id="linearGradient1022"
       x1="11.43027"
       y1="24"
       x2="36.569729"
       y2="24"
       gradientUnits="userSpaceOnUse" />
  </defs>
  <sodipodi:namedview
     id="namedview11"
     pagecolor="#ffffff"
     bordercolor="#666666"
     borderopacity="1.0"
     inkscape:pageshadow="2"
     inkscape:pageopacity="0.0"
     inkscape:pagecheckerboard="0"
     inkscape:document-units="pt"
     showgrid="false"
     inkscape:zoom="1"
     inkscape:cx="32.5"
     inkscape:cy="32"
     inkscape:window-width="1600"
     inkscape:window-height="836"
     inkscape:window-x="0"
     inkscape:window-y="0"
     inkscape:window-maximized="1"
     inkscape:current-layer="svg9" />
  <linearGradient
     id="_lgradient_8"
     x1="0"
     y1="0.5"
     x2="1"
     y2="0.5"
     gradientTransform="matrix(25.13946,0,0,19.016664,11.43027,14.491935)"
     gradientUnits="userSpaceOnUse">
    <stop
       offset="6%"
       stop-opacity="1"
       style="stop-color:rgb(43,134,208)"
       id="stop2" />
    <stop
       offset="89%"
       stop-opacity="1"
       style="stop-color:rgb(33,215,137)"
       id="stop4" />
  </linearGradient>
  <rect
     x="-46.783188"
     y="1.2253767"
     height="45.80014"
     rx="6.1837621"
     shape-rendering="crispEdges"
     id="rect5-6-7-3"
     ry="6.8055277"
     transform="matrix(0.00524063,-0.99998627,0.99998801,0.00489691,0,0)"
     style="isolation:isolate;fill:#00bfff;fill-opacity:0.13470298;stroke:url(#linearGradient872);stroke-width:2.0301;stroke-miterlimit:4;stroke-dasharray:none;stroke-opacity:1"
     width="45.801998" />
  <rect
     x="-15.686804"
     y="17.260084"
     height="33.345856"
     rx="6.7920032"
     shape-rendering="crispEdges"
     id="rect5-6-6-6-6"
     style="isolation:isolate;fill:#00bfff;fill-opacity:0.13470298;stroke:url(#linearGradient15);stroke-width:1.67233;stroke-miterlimit:4;stroke-dasharray:none;stroke-opacity:1"
     ry="7.4743071"
     transform="matrix(0.72446484,-0.68931175,0.68622417,0.72739012,0,0)"
     width="33.338203" />
  <path
     style="color:#000000;fill:url(#linearGradient1022);-inkscape-stroke:none"
     d="m 13.0625,13.992188 -0.148437,0.175781 c -0.758351,0.891298 -1.407696,1.87174 -1.931641,2.917968 l -0.361328,0.722657 h 6.958984 l -2.615234,11.974609 h 3.908203 l 0.30664,-1.410156 h 7.580079 l -0.226563,1.818359 h -6.767578 -5.632812 -3.183594 l 0.429687,0.748047 c 0.608153,1.061223 1.346829,2.041763 2.199219,2.917969 l 0.146484,0.15039 h 20.519532 l 0.146484,-0.15039 c 0.859143,-0.875208 1.605101,-1.854314 2.21875,-2.916016 l 0.433594,-0.75 h -6.66211 L 31.789062,18.921875 H 21.244141 l 0.242187,-1.113281 h 15.898438 l -0.369141,-0.726563 c -0.533892,-1.047847 -1.192117,-2.028397 -1.960938,-2.917968 l -0.15039,-0.171875 z m 0.496094,1 h 20.855468 c 0.469482,0.560547 0.847558,1.188079 1.220704,1.816406 H 20.679687 l -0.677734,3.113281 H 30.65625 l -1.408203,11.269531 h 5.923828 c -0.426355,0.631863 -0.852106,1.264459 -1.378906,1.816406 H 14.179688 c -0.522536,-0.55251 -0.946624,-1.184967 -1.369141,-1.816406 h 1.322266 5.632812 7.650391 l 0.476562,-3.818359 h -9.519531 l -0.306641,1.410156 h -1.859375 l 2.615235,-11.974609 h -6.464844 c 0.366772,-0.628242 0.738152,-1.25462 1.201172,-1.816406 z m 6.044922,6.746093 -0.08398,0.394531 -0.748047,3.423829 h 9.34961 l 0.476562,-3.81836 z m 0.80664,1 h 7.054688 l -0.226563,1.81836 h -7.224609 z"
     id="path7" />
</svg>
