<?xml version="1.0" encoding="UTF-8" standalone="no"?>
<!-- Generator: Gravit.io -->

<svg
   style="isolation:isolate"
   viewBox="0 0 48 48"
   width="48pt"
   height="48pt"
   version="1.1"
   id="svg13"
   sodipodi:docname="tagstudio.svg"
   inkscape:version="1.1.2 (0a00cf5339, 2022-02-04)"
   xmlns:inkscape="http://www.inkscape.org/namespaces/inkscape"
   xmlns:sodipodi="http://sodipodi.sourceforge.net/DTD/sodipodi-0.dtd"
   xmlns:xlink="http://www.w3.org/1999/xlink"
   xmlns="http://www.w3.org/2000/svg"
   xmlns:svg="http://www.w3.org/2000/svg">
  <defs
     id="defs17">
    <linearGradient
       inkscape:collect="always"
       xlink:href="#_lgradient_5"
       id="linearGradient872"
       x1="-12.025727"
       y1="6.1170783"
       x2="0.38947898"
       y2="6.0763369"
       gradientUnits="userSpaceOnUse"
       gradientTransform="matrix(3.8358211,0,0,3.8371386,0.01768518,-0.02604361)" />
    <linearGradient
       id="_lgradient_21"
       x1="0"
       y1="0.5"
       x2="1"
       y2="0.5"
       gradientTransform="matrix(28.183272,0,0,28.298876,9.8766106,9.8505561)"
       gradientUnits="userSpaceOnUse">
      <stop
         offset="0%"
         stop-opacity="1"
         style="stop-color:rgb(255,224,49)"
         id="stop2-3" />
      <stop
         offset="98.69565217391305%"
         stop-opacity="1"
         style="stop-color:rgb(252,82,82)"
         id="stop4-6" />
    </linearGradient>
    <linearGradient
       inkscape:collect="always"
       xlink:href="#_lgradient_5"
       id="linearGradient15"
       x1="-9.6850061"
       y1="45.161198"
       x2="15.845584"
       y2="18.46389"
       gradientUnits="userSpaceOnUse"
       gradientTransform="matrix(1.1147442,0,0,1.1150348,-0.0133284,-3.3606551)" />
    <linearGradient
       inkscape:collect="always"
       xlink:href="#_lgradient_5"
       id="linearGradient1471"
       x1="12.319497"
       y1="25.871054"
       x2="40.756222"
       y2="25.871054"
       gradientUnits="userSpaceOnUse" />
  </defs>
  <sodipodi:namedview
     id="namedview15"
     pagecolor="#ffffff"
     bordercolor="#666666"
     borderopacity="1.0"
     inkscape:pageshadow="2"
     inkscape:pageopacity="0.0"
     inkscape:pagecheckerboard="0"
     inkscape:document-units="pt"
     showgrid="false"
     inkscape:zoom="5.109375"
     inkscape:cx="32"
     inkscape:cy="32"
     inkscape:window-width="1056"
     inkscape:window-height="545"
     inkscape:window-x="240"
     inkscape:window-y="166"
     inkscape:window-maximized="0"
     inkscape:current-layer="svg13" />
  <linearGradient
     id="_lgradient_5"
     x1="0.06921675290635927"
     y1="0.049546223014837076"
     x2="0.8324333126974197"
     y2="0.7930922529143754"
     gradientTransform="matrix(26.51113,0,0,26.51113,12.31957,12.615522)"
     gradientUnits="userSpaceOnUse">
    <stop
       offset="0%"
       stop-opacity="1"
       style="stop-color:rgb(198,42,255)"
       id="stop2" />
    <stop
       offset="48.333333333333336%"
       stop-opacity="1"
       style="stop-color:rgb(14,207,252)"
       id="stop4" />
    <stop
       offset="99.58333333333333%"
       stop-opacity="1"
       style="stop-color:rgb(64,255,196)"
       id="stop6" />
    <stop
       offset="100%"
       stop-opacity="1"
       style="stop-color:rgb(0,0,0)"
       id="stop8" />
  </linearGradient>
  <rect
     x="-46.760059"
     y="1.2020136"
     height="45.80014"
     rx="6.1837621"
     shape-rendering="crispEdges"
     id="rect5-6-7-3"
     ry="6.8055277"
     transform="matrix(0.00524063,-0.99998627,0.99998801,0.00489691,0,0)"
     style="isolation:isolate;fill:#00c2ff;fill-opacity:0.13470298;stroke:url(#linearGradient872);stroke-width:2.0301;stroke-miterlimit:4;stroke-dasharray:none;stroke-opacity:1"
     width="45.801998" />
  <rect
     x="-15.687759"
     y="17.227224"
     height="33.345856"
     rx="6.7920032"
     shape-rendering="crispEdges"
     id="rect5-6-6-6-6"
     style="isolation:isolate;fill:#00c2ff;fill-opacity:0.13470298;stroke:url(#linearGradient15);stroke-width:1.67233;stroke-miterlimit:4;stroke-dasharray:none;stroke-opacity:1"
     ry="7.4743071"
     transform="matrix(0.72446484,-0.68931175,0.68622417,0.72739012,0,0)"
     width="33.338203" />
  <path
     style="color:#000000;fill:url(#linearGradient1471);fill-rule:evenodd;-inkscape-stroke:none"
     d="m 15.345703,12.115234 c -0.938382,-0.0054 -1.83652,0.365066 -2.501953,1.017579 l -0.0039,0.002 -0.0039,0.0039 c -0.653413,0.666351 -1.022151,1.566031 -1.015625,2.505859 v 0.0078 0.117187 l 0.339843,8.28711 c 0.04436,1.096933 0.4948,2.139331 1.273438,2.917968 l 0.002,0.002 11.914062,11.908204 c 0.473641,0.479573 1.118134,0.742187 1.783203,0.742187 0.665949,0 1.311343,-0.263359 1.785157,-0.744141 l 9.667968,-9.667968 c 0.480782,-0.473814 0.744141,-1.121161 0.744141,-1.78711 0,-0.665948 -0.263359,-1.311343 -0.744141,-1.785156 L 26.679687,13.730469 C 25.90059,12.951372 24.857404,12.498986 23.759766,12.455078 l -8.28711,-0.339844 h -0.115234 -0.0078 z m -0.0039,1 h 0.002 0.01367 0.0957 l 8.265625,0.339844 c 0.84925,0.03397 1.653489,0.382005 2.253906,0.982422 l 11.910156,11.916016 0.002,0.002 c 0.286851,0.282694 0.445312,0.670205 0.445312,1.072265 0,0.402061 -0.158461,0.791525 -0.445312,1.074219 l -0.002,0.002 -9.675781,9.675781 c -0.282694,0.286852 -0.672158,0.447266 -1.074219,0.447266 -0.40206,0 -0.791524,-0.160414 -1.074218,-0.447266 L 14.142578,26.267578 c -0.600417,-0.600417 -0.950405,-1.402705 -0.984375,-2.251953 l -0.33789,-8.267578 v -0.0957 -0.01172 -0.002 c -0.0047,-0.671801 0.260267,-1.315718 0.728515,-1.794922 0.479058,-0.467421 1.121766,-0.733145 1.792969,-0.728516 z m -0.01367,0.669922 c -0.486211,0 -0.951096,0.187004 -1.300781,0.521485 l -0.0098,0.0078 -0.0059,0.0078 c -0.33448,0.349685 -0.523438,0.816523 -0.523438,1.302734 v 0.09375 l 0.333985,8.269531 c 0.02743,0.678869 0.312408,1.324126 0.791015,1.802735 l 11.916016,11.914062 c 0.15514,0.155135 0.371688,0.251953 0.603515,0.251953 0.231822,0 0.448379,-0.09682 0.603516,-0.251953 l 9.673828,-9.671875 c 0.15514,-0.155142 0.251953,-0.373642 0.251953,-0.605469 0,-0.231822 -0.09681,-0.448376 -0.251953,-0.603515 L 25.494141,14.910156 C 25.015533,14.43155 24.372229,14.146569 23.693359,14.119141 l -8.271484,-0.333985 z m 0,1 h 0.07422 l 2.287109,0.0918 c -0.80151,0.08802 -1.566026,0.392199 -2.140625,0.966797 -0.574623,0.574624 -0.880747,1.339075 -0.96875,2.140625 l -0.0918,-2.287109 V 15.625 c 0,-0.22219 0.09168,-0.440171 0.242188,-0.601562 0.161083,-0.148643 0.376962,-0.238282 0.597656,-0.238282 z m 3.306641,0.13086 5.017578,0.201172 c 0.422515,0.01707 0.834616,0.199851 1.134765,0.5 l 11.8125,11.810546 -9.466797,9.466797 -11.812499,-11.810547 c -0.300149,-0.300149 -0.480976,-0.71225 -0.498047,-1.134765 l -0.203125,-5.019532 c 0.120955,0.728044 0.401915,1.421447 0.929687,1.949219 0.666766,0.666765 1.573026,1.042969 2.517578,1.042969 0.944552,0 1.850813,-0.376203 2.517578,-1.042969 C 21.25075,20.212141 21.625,19.30588 21.625,18.361328 c 0,-0.944552 -0.374251,-1.850812 -1.041016,-2.517578 -0.527542,-0.527542 -1.221536,-0.806636 -1.949218,-0.927734 z m -0.56836,0.886718 c 0.679713,0 1.329475,0.268928 1.808594,0.748047 0.47912,0.479121 0.75,1.130835 0.75,1.810547 0,0.679712 -0.270881,1.331428 -0.75,1.810547 -0.479119,0.479119 -1.128881,0.75 -1.808594,0.75 -0.679712,0 -1.331426,-0.27088 -1.810547,-0.75 -0.479119,-0.479119 -0.75,-1.130835 -0.75,-1.810547 0,-0.679712 0.270881,-1.331426 0.75,-1.810547 0.479121,-0.479119 1.130835,-0.748047 1.810547,-0.748047 z m 0,0.667969 c -0.498442,0 -0.981167,0.196011 -1.33789,0.552734 -0.356723,0.356724 -0.552735,0.839449 -0.552735,1.337891 0,0.498442 0.196011,0.981167 0.552735,1.337891 0.356723,0.356723 0.839449,0.552734 1.33789,0.552734 0.498441,0 0.981167,-0.19601 1.337891,-0.552734 0.356724,-0.356724 0.552734,-0.83945 0.552734,-1.337891 0,-0.498441 -0.196011,-0.981167 -0.552734,-1.337891 -0.356724,-0.356723 -0.839449,-0.552734 -1.337891,-0.552734 z m 0,1 c 0.235814,0 0.464704,0.09361 0.63086,0.259766 0.166156,0.166156 0.259765,0.395043 0.259765,0.630859 0,0.235815 -0.09361,0.464704 -0.259765,0.630859 -0.166156,0.166156 -0.395045,0.259766 -0.63086,0.259766 -0.235816,0 -0.464703,-0.09361 -0.630859,-0.259766 -0.166156,-0.166155 -0.259766,-0.395045 -0.259766,-0.630859 0,-0.235815 0.09361,-0.464703 0.259766,-0.630859 0.166156,-0.166157 0.395044,-0.259766 0.630859,-0.259766 z m 8.384766,1.203125 c -0.271206,-2.1e-5 -0.541829,0.100944 -0.746094,0.304688 v 0.002 l -1.181641,1.179687 c -0.407486,0.408531 -0.406266,1.08592 0.002,1.494141 l 7.523437,7.52539 c 0.408523,0.408523 1.085617,0.408522 1.494141,0 l 1.18164,-1.18164 c 0.408522,-0.408523 0.408523,-1.083665 0,-1.492188 l -7.527343,-7.52539 c -0.204111,-0.20411 -0.474889,-0.30662 -0.746094,-0.306641 z m -0.04102,1.013672 c 0.02646,-0.02639 0.05442,-0.02566 0.08008,0 l 7.525391,7.525391 c 0.02535,0.02535 0.02536,0.05277 0,0.07813 l -1.179688,1.18164 c -0.02536,0.02536 -0.05472,0.02536 -0.08008,0 l -7.523437,-7.527344 c -0.02566,-0.02566 -0.02639,-0.05167 0,-0.07813 z m -2.740234,1.767578 c -0.271206,-2.1e-5 -0.541828,0.100944 -0.746094,0.304688 v 0.002 l -1.181641,1.179687 c -0.407485,0.408532 -0.406266,1.08592 0.002,1.494141 l 5.298828,5.298828 c 0.408523,0.408523 1.085617,0.408521 1.49414,0 l 1.179688,-1.179688 c 0.408521,-0.408522 0.408521,-1.085617 0,-1.49414 l -5.300781,-5.298828 c -0.204111,-0.204111 -0.474888,-0.30662 -0.746094,-0.306641 z m -0.04102,1.013672 c 0.02646,-0.02639 0.05442,-0.02566 0.08008,0 l 5.300782,5.298828 c 0.02536,0.02536 0.02536,0.05472 0,0.08008 l -1.179688,1.179688 c -0.02536,0.02536 -0.05472,0.02536 -0.08008,0 l -5.298828,-5.300782 c -0.02566,-0.02566 -0.02639,-0.05166 0,-0.07813 z m -2.740234,2.324219 c -0.271206,-2.2e-5 -0.541828,0.100944 -0.746094,0.304687 l -1.181641,1.181641 c -0.407488,0.408531 -0.406267,1.083967 0.002,1.492187 l 3.646484,3.648438 c 0.408277,0.409323 1.085864,0.409325 1.494141,0 l 1.179687,-1.179688 c 0.409323,-0.408277 0.409323,-1.085863 0,-1.49414 l -3.648437,-3.646485 c -0.204111,-0.204111 -0.474888,-0.306619 -0.746094,-0.30664 z m -0.04102,1.013672 c 0.02646,-0.02639 0.05442,-0.02566 0.08008,0 l 3.648438,3.646484 c 0.02567,0.0256 0.02567,0.05252 0,0.07813 v 0.002 l -1.179688,1.179688 h -0.002 c -0.0256,0.02567 -0.05252,0.02567 -0.07813,0 l -3.646484,-3.648438 c -0.02503,-0.02503 -0.02448,-0.05225 0,-0.07813 v -0.002 z"
     id="path11" />
</svg>
