<?xml version="1.0" encoding="UTF-8" standalone="no"?>
<!-- Generator: Gravit.io -->

<svg
   style="isolation:isolate"
   viewBox="0 0 48 48"
   width="48pt"
   height="48pt"
   version="1.1"
   id="svg9"
   sodipodi:docname="tdewalletmanager.svg"
   inkscape:version="1.1.2 (0a00cf5339, 2022-02-04)"
   xmlns:inkscape="http://www.inkscape.org/namespaces/inkscape"
   xmlns:sodipodi="http://sodipodi.sourceforge.net/DTD/sodipodi-0.dtd"
   xmlns:xlink="http://www.w3.org/1999/xlink"
   xmlns="http://www.w3.org/2000/svg"
   xmlns:svg="http://www.w3.org/2000/svg">
  <defs
     id="defs13">
    <linearGradient
       inkscape:collect="always"
       xlink:href="#_lgradient_16"
       id="linearGradient872"
       x1="-12.025727"
       y1="6.1170783"
       x2="-0.085100174"
       y2="6.1170783"
       gradientUnits="userSpaceOnUse"
       gradientTransform="matrix(3.8358211,0,0,3.8371386,-0.00544341,-0.00268054)" />
    <linearGradient
       inkscape:collect="always"
       xlink:href="#_lgradient_16"
       id="linearGradient15"
       x1="-9.6850061"
       y1="45.161198"
       x2="11.98815"
       y2="21.735205"
       gradientUnits="userSpaceOnUse"
       gradientTransform="matrix(1.1147442,0,0,1.1150348,-0.01237238,-3.3277956)" />
    <linearGradient
       inkscape:collect="always"
       xlink:href="#_lgradient_16"
       id="linearGradient878"
       x1="11.328559"
       y1="21.444693"
       x2="36.67144"
       y2="21.444693"
       gradientUnits="userSpaceOnUse" />
  </defs>
  <sodipodi:namedview
     id="namedview11"
     pagecolor="#ffffff"
     bordercolor="#666666"
     borderopacity="1.0"
     inkscape:pageshadow="2"
     inkscape:pageopacity="0.0"
     inkscape:pagecheckerboard="0"
     inkscape:document-units="pt"
     showgrid="false"
     inkscape:zoom="10.21875"
     inkscape:cx="31.95107"
     inkscape:cy="32"
     inkscape:window-width="1600"
     inkscape:window-height="836"
     inkscape:window-x="0"
     inkscape:window-y="0"
     inkscape:window-maximized="1"
     inkscape:current-layer="svg9" />
  <linearGradient
     id="_lgradient_16"
     x1="0"
     y1="0.5"
     x2="1"
     y2="0.5"
     gradientTransform="matrix(25.342883,0,0,22.224653,11.328559,10.332415)"
     gradientUnits="userSpaceOnUse">
    <stop
       offset="0%"
       stop-opacity="1"
       style="stop-color:rgb(255,95,109)"
       id="stop2" />
    <stop
       offset="98.26086956521739%"
       stop-opacity="1"
       style="stop-color:rgb(255,195,113)"
       id="stop4" />
  </linearGradient>
  <rect
     x="-46.783188"
     y="1.2253767"
     height="45.80014"
     rx="6.1837621"
     shape-rendering="crispEdges"
     id="rect5-6-7-3"
     ry="6.8055277"
     transform="matrix(0.00524063,-0.99998627,0.99998801,0.00489691,0,0)"
     style="isolation:isolate;fill:#ff9b00;fill-opacity:0.13470298;stroke:url(#linearGradient872);stroke-width:2.0301;stroke-miterlimit:4;stroke-dasharray:none;stroke-opacity:1"
     width="45.801998" />
  <rect
     x="-15.686804"
     y="17.260084"
     height="33.345856"
     rx="6.7920032"
     shape-rendering="crispEdges"
     id="rect5-6-6-6-6"
     style="isolation:isolate;fill:#ff9b00;fill-opacity:0.13470298;stroke:url(#linearGradient15);stroke-width:1.67233;stroke-miterlimit:4;stroke-dasharray:none;stroke-opacity:1"
     ry="7.4743071"
     transform="matrix(0.72446484,-0.68931175,0.68622417,0.72739012,0,0)"
     width="33.338203" />
  <path
     style="color:#000000;fill:url(#linearGradient878);fill-rule:evenodd;-inkscape-stroke:none"
     d="m 23.972656,9.8242188 c -0.790454,0.027992 -1.572286,0.3215082 -2.171875,0.8750002 l -6.394531,5.904297 h -2.222656 c -1.293945,0 -2.355469,1.061526 -2.355469,2.355468 v 11.744141 c 0,1.293943 1.061525,2.353516 2.355469,2.353516 h 7.726562 c 0.782583,0 1.425782,-0.643791 1.425781,-1.425782 10e-7,-0.781989 -0.643197,-1.427734 -1.425781,-1.427734 h -7.109375 c -0.07018,0 -0.117187,-0.04897 -0.117187,-0.119141 V 19.576172 c 0,-0.07017 0.04701,-0.117188 0.117187,-0.117188 h 20.398438 c 0.07017,0 0.117187,0.04701 0.117187,0.117188 v 1.355469 h -5.0625 c -1.63493,0 -2.972656,1.337173 -2.972656,2.972656 v 1.853515 c 0,1.635483 1.337726,2.972657 2.972656,2.972657 h 5.0625 v 1.353515 c 0,0.07017 -0.04701,0.119141 -0.117187,0.119141 h -7.109375 c -0.782584,0 -1.425782,0.645745 -1.425782,1.427734 0,0.781991 0.643199,1.425782 1.425782,1.425782 h 7.726562 c 1.293944,0 2.355469,-1.059573 2.355469,-2.353516 V 18.958984 c 0,-1.293942 -1.061524,-2.355468 -2.355469,-2.355468 h -0.373047 l -0.666015,-0.689453 -2.75,-3.666016 C 30.158703,11.090428 28.617766,10.870475 27.345703,11.462891 L 26.199219,10.544922 C 25.562014,10.034969 24.763111,9.7962269 23.972656,9.8242188 Z m 0.03516,1.0195312 c 0.566048,-0.02005 1.138155,0.139693 1.566407,0.482422 l 1.583984,1.265625 0.304688,-0.207031 c 0.886292,-0.600446 2.117341,-0.398461 2.763671,0.46289 l 2.78711,3.716797 1.005859,1.039063 h 0.796875 c 0.752494,0 1.355469,0.602977 1.355469,1.355468 v 11.744141 c 0,0.752493 -0.602975,1.353516 -1.355469,1.353516 h -7.726562 c -0.241692,0 -0.425782,-0.184553 -0.425782,-0.425782 0,-0.241227 0.184091,-0.427734 0.425782,-0.427734 h 7.109375 c 0.61197,0 1.117187,-0.50717 1.117187,-1.119141 v -2.353515 h -6.0625 c -1.093651,0 -1.972656,-0.878502 -1.972656,-1.972657 v -1.853515 c 0,-1.094155 0.879005,-1.972656 1.972656,-1.972656 h 6.0625 v -0.5 -1.855469 c 0,-0.611971 -0.505217,-1.117188 -1.117187,-1.117188 H 13.800781 c -0.61197,0 -1.117187,0.505217 -1.117187,1.117188 v 10.507812 c 0,0.611971 0.505217,1.119141 1.117187,1.119141 h 7.109375 c 0.241691,0 0.425782,0.186507 0.425781,0.427734 0,0.241229 -0.184089,0.425782 -0.425781,0.425782 h -7.726562 c -0.752494,0 -1.355469,-0.601023 -1.355469,-1.353516 V 18.958984 c 0,-0.752491 0.602975,-1.355468 1.355469,-1.355468 h 2.613281 l 6.681641,-6.167969 c 0.403037,-0.372052 0.963249,-0.571743 1.529296,-0.591797 z m 0.0332,0.957031 c -0.451322,0.01606 -0.89708,0.185982 -1.246094,0.507813 l -5.738281,5.294922 h 1.279296 1.820313 L 26.441406,13.115234 25.320312,12.21875 C 24.949237,11.922256 24.492337,11.784722 24.041016,11.800781 Z M 24.697266,13 l 0.08789,0.07031 -4.949219,3.533203 h -0.21875 l 3.855469,-3.560547 C 23.777783,12.761607 24.372907,12.740834 24.697266,13 Z m 4.048828,0.136719 c -0.441235,-0.06838 -0.907253,0.02768 -1.294922,0.304687 l -5.828125,4.16211 h 1.560547 9.542968 l -2.83789,-3.785157 c -0.285778,-0.381283 -0.701343,-0.613261 -1.142578,-0.68164 z m -0.714844,1.11914 c 0.334469,-0.238996 0.809834,-0.167178 1.056641,0.16211 l 1.638671,2.185547 h -5.982421 z m 1.841797,8.529297 c -0.952785,0 -1.738281,0.782967 -1.738281,1.736328 v 0.617188 c 0,0.953361 0.785495,1.738281 1.738281,1.738281 h 5.443359 v -4.091797 h -0.5 z m 1.53125,1 h 2.912109 v 2.091797 h -2.912109 c 0.302368,-0.262596 0.513672,-0.61932 0.513672,-1.046875 0,-0.427555 -0.211304,-0.782326 -0.513672,-1.044922 z m -0.914063,0.619141 c 0.240884,0 0.427735,0.184897 0.427735,0.425781 0,0.240883 -0.186852,0.427735 -0.427735,0.427734 -0.241689,0 -0.427734,-0.186507 -0.427734,-0.427734 0,-0.241228 0.186044,-0.425781 0.427734,-0.425781 z m -1.257812,0.02148 c -0.02742,0.0811 -0.08531,0.143832 -0.09766,0.230469 v -0.134766 c 0,-0.05402 0.08702,-0.04522 0.09766,-0.0957 z m -0.09766,0.578125 c 0.01227,0.08624 0.06849,0.149707 0.0957,0.230469 -0.0104,-0.04995 -0.0957,-0.0423 -0.0957,-0.0957 z M 24,30.203125 c -0.782335,0 -1.427734,0.645401 -1.427734,1.427734 0,0.782335 0.6454,1.425782 1.427734,1.425782 0.782334,0 1.427734,-0.643447 1.427734,-1.425782 0,-0.782333 -0.645399,-1.427734 -1.427734,-1.427734 z m 0,1 c 0.240884,0 0.427734,0.186851 0.427734,0.427734 0,0.240885 -0.186849,0.425782 -0.427734,0.425782 -0.240885,0 -0.427734,-0.184897 -0.427734,-0.425782 0,-0.240883 0.18685,-0.427734 0.427734,-0.427734 z"
     id="path7" />
</svg>
