<?xml version="1.0" encoding="UTF-8" standalone="no"?>
<!-- Generator: Gravit.io -->

<svg
   style="isolation:isolate"
   viewBox="0 0 48 48"
   width="48pt"
   height="48pt"
   version="1.1"
   id="svg9"
   sodipodi:docname="teamspeak.svg"
   inkscape:version="1.1.2 (0a00cf5339, 2022-02-04)"
   xmlns:inkscape="http://www.inkscape.org/namespaces/inkscape"
   xmlns:sodipodi="http://sodipodi.sourceforge.net/DTD/sodipodi-0.dtd"
   xmlns:xlink="http://www.w3.org/1999/xlink"
   xmlns="http://www.w3.org/2000/svg"
   xmlns:svg="http://www.w3.org/2000/svg">
  <defs
     id="defs13">
    <linearGradient
       inkscape:collect="always"
       xlink:href="#_lgradient_11"
       id="linearGradient872"
       x1="-12.025727"
       y1="6.1170783"
       x2="-0.085100174"
       y2="6.1170783"
       gradientUnits="userSpaceOnUse"
       gradientTransform="matrix(3.8358211,0,0,3.8371386,-0.00562311,-0.03937722)" />
    <linearGradient
       inkscape:collect="always"
       xlink:href="#_lgradient_11"
       id="linearGradient15"
       x1="-9.6850061"
       y1="45.161198"
       x2="11.98815"
       y2="21.735205"
       gradientUnits="userSpaceOnUse"
       gradientTransform="matrix(1.1147442,0,0,1.1150348,-0.03906579,-3.3530916)" />
    <linearGradient
       inkscape:collect="always"
       xlink:href="#_lgradient_11"
       id="linearGradient1314"
       x1="9.6741266"
       y1="23.59362"
       x2="37.887363"
       y2="23.59362"
       gradientUnits="userSpaceOnUse" />
  </defs>
  <sodipodi:namedview
     id="namedview11"
     pagecolor="#ffffff"
     bordercolor="#666666"
     borderopacity="1.0"
     inkscape:pageshadow="2"
     inkscape:pageopacity="0.0"
     inkscape:pagecheckerboard="0"
     inkscape:document-units="pt"
     showgrid="false"
     inkscape:zoom="10.21875"
     inkscape:cx="31.95107"
     inkscape:cy="32"
     inkscape:window-width="1600"
     inkscape:window-height="836"
     inkscape:window-x="0"
     inkscape:window-y="0"
     inkscape:window-maximized="1"
     inkscape:current-layer="svg9" />
  <linearGradient
     id="_lgradient_11"
     x1="-0.000038208333333289435"
     y1="0.5000000833333331"
     x2="0.9999618333333335"
     y2="0.5000000833333331"
     gradientTransform="matrix(45.141184,0,0,45.141184,1.2101518,1.4052045)"
     gradientUnits="userSpaceOnUse">
    <stop
       offset="0%"
       stop-opacity="1"
       style="stop-color:rgb(0,198,255)"
       id="stop2" />
    <stop
       offset="98.69565217391305%"
       stop-opacity="1"
       style="stop-color:rgb(0,114,255)"
       id="stop4" />
  </linearGradient>
  <rect
     x="-46.783367"
     y="1.1886801"
     height="45.80014"
     rx="6.1837621"
     shape-rendering="crispEdges"
     id="rect5-6-7-3"
     ry="6.8055277"
     transform="matrix(0.00524063,-0.99998627,0.99998801,0.00489691,0,0)"
     style="isolation:isolate;fill:#00d8ff;fill-opacity:0.13470298;stroke:url(#linearGradient872);stroke-width:2.0301;stroke-miterlimit:4;stroke-dasharray:none;stroke-opacity:1"
     width="45.801998" />
  <rect
     x="-15.713497"
     y="17.234789"
     height="33.345856"
     rx="6.7920032"
     shape-rendering="crispEdges"
     id="rect5-6-6-6-6"
     style="isolation:isolate;fill:#00d8ff;fill-opacity:0.13470298;stroke:url(#linearGradient15);stroke-width:1.67233;stroke-miterlimit:4;stroke-dasharray:none;stroke-opacity:1"
     ry="7.4743071"
     transform="matrix(0.72446484,-0.68931175,0.68622417,0.72739012,0,0)"
     width="33.338203" />
  <path
     style="color:#000000;fill:url(#linearGradient1314);fill-rule:evenodd;-inkscape-stroke:none"
     d="m 23.271484,9.5722656 c -1.281717,0.065552 -2.600746,0.311392 -3.953125,0.7382814 l -0.002,0.002 h -0.002 c -2.284975,0.745994 -4.212889,2.09806 -5.832031,3.908203 l -0.0098,0.0098 -0.0078,0.01172 c -0.119578,0.150083 -0.241883,0.332972 -0.302735,0.576171 -0.05623,0.224751 -0.0094,0.514748 0.128907,0.759766 -0.01036,0.01692 0.0071,-0.01995 -0.01953,0.01563 l -0.002,0.002 -0.002,0.0039 c -1.150332,1.580244 -1.945736,3.361374 -2.283203,5.289063 -0.01371,0.07268 -0.02298,0.07496 -0.01172,0.06055 0.01161,-0.01487 0.01915,-0.01332 -0.04297,0.01758 -0.898993,0.437234 -1.4943946,1.267617 -1.6562505,2.261719 -0.1089124,0.636274 -0.016228,1.176548 -0.050781,1.505859 l -0.00195,0.02734 v 0.02539 c 0,0.461759 -0.00402,0.792966 -0.039063,1.003907 l -0.00781,0.04102 v 0.04102 c 0,0.985382 0.3278898,1.844892 0.9374999,2.429687 0.606117,0.581444 1.468425,0.864166 2.4375,0.816407 0.312169,-0.0023 0.619491,-0.09958 0.837891,-0.3125 0.219863,-0.214349 0.319316,-0.517281 0.320312,-0.804688 0.0459,-1.139306 0.04687,-2.250525 0.04687,-3.376953 0,-1.191407 -0.0403,-2.40524 0.175782,-3.505859 v -0.002 l 0.002,-0.002 c 1.253893,-6.556068 8.736394,-10.138579 14.488281,-6.978515 3.541771,1.960396 5.26963,4.937281 5.404297,9.027343 0.04541,1.550363 -0.002,3.115655 -0.002,4.695313 0,0.265133 0.05608,0.536368 0.21289,0.771484 0.156815,0.235117 0.415531,0.405595 0.697266,0.476563 l 0.0059,0.002 0.0078,0.002 c 1.630035,0.365156 3.279948,-0.769838 3.558593,-2.439453 v -0.0059 l 0.002,-0.0039 c 0.149709,-1.025594 0.05078,-1.999477 0.05078,-2.914062 0,-1.235127 -0.61932,-2.267861 -1.705078,-2.824219 l 0.05273,0.03125 c -0.140412,-0.09456 -0.121005,-0.08363 -0.119141,-0.07617 l 0.0078,0.03125 c -0.359605,-1.969038 -1.154881,-3.795514 -2.328125,-5.423828 l -0.02344,-0.0332 -0.02734,-0.0293 c -0.03023,-0.03023 -0.0194,-0.01559 -0.03711,-0.0332 0.1004,-0.312073 0.246896,-0.644406 0.126953,-0.880859 -0.17686,-0.348663 -0.43505,-0.538567 -0.597656,-0.701172 l -0.0039,-0.002 -0.002,-0.0039 C 30.626105,10.798575 27.116637,9.3756106 23.271484,9.5722656 Z m 0.05469,0.9843754 c 3.570174,-0.203672 6.7531,1.109717 9.671875,3.958984 0.206987,0.206987 0.377208,0.374611 0.414062,0.447266 0.03685,0.07265 0.08149,0.01785 -0.08398,0.230468 l 0.03906,-0.04492 c -0.09602,0.097 -0.184229,0.285751 -0.173828,0.453125 0.0104,0.167373 0.07958,0.271952 0.128907,0.33789 0.07514,0.100452 0.109713,0.12129 0.140625,0.146484 1.085606,1.510908 1.814979,3.188735 2.146484,5.003907 l 0.0039,0.01563 0.0039,0.01563 c 0.09402,0.376108 0.39322,0.570465 0.529297,0.662109 l 0.02344,0.01758 0.02734,0.01367 c 0.808287,0.414178 1.160156,0.996303 1.160156,1.933594 0,0.976699 0.0842,1.895421 -0.04102,2.761719 -0.185018,1.098372 -1.30064,1.85188 -2.345703,1.623046 -0.07472,-0.02017 -0.08992,-0.03333 -0.105469,-0.05664 -0.01646,-0.02468 -0.04297,-0.08882 -0.04297,-0.216797 0,-1.560755 0.04665,-3.136486 0,-4.726563 v -0.002 c -0.143703,-4.364496 -2.11302,-7.763073 -5.917969,-9.86914 v -0.002 C 22.552933,9.7687363 14.32844,13.716379 12.949219,20.927734 12.70305,22.183221 12.753906,23.460277 12.753906,24.625 c 0,1.13229 6.19e-4,2.234476 -0.04492,3.353516 v 0.0098 0.0098 c 0,0.08089 -0.0155,0.08982 -0.01953,0.09375 -0.004,0.0039 -0.02716,0.03125 -0.15039,0.03125 h -0.01367 -0.01367 c -0.756401,0.04024 -1.319377,-0.169221 -1.708985,-0.542969 -0.389607,-0.373748 -0.628906,-0.936611 -0.628906,-1.707031 l -0.0059,0.08203 c 0.05713,-0.343916 0.05273,-0.706212 0.05273,-1.167969 l -0.0039,0.05273 c 0.05748,-0.547781 -0.03043,-1.022123 0.04297,-1.445313 v -0.002 -0.0039 c 0.116275,-0.714152 0.487148,-1.220968 1.111328,-1.523438 l 0.002,-0.002 h 0.002 c 0.123149,-0.06126 0.269239,-0.15089 0.384766,-0.298828 0.115526,-0.147938 0.177403,-0.325982 0.208984,-0.5 v -0.002 c 0.309554,-1.768243 1.038314,-3.406337 2.107422,-4.875 l -0.0059,0.0059 c 0.06137,-0.08182 0.177967,-0.185665 0.232421,-0.43164 0.05446,-0.245976 -0.04914,-0.510829 -0.18164,-0.69336 l 0.01172,0.01563 c -0.01429,-0.0214 -0.0085,0.01251 0,-0.02148 0.008,-0.0319 0.04756,-0.109431 0.105468,-0.185547 1.518762,-1.694834 3.28211,-2.925251 5.38086,-3.611328 1.281324,-0.40446 2.516242,-0.641052 3.707031,-0.708984 z m 10.839844,4.910156 c 0.0096,0.02859 0.02266,0.02825 0.02539,0.07227 0.0039,0.06276 -0.03414,0.103857 -0.05859,0.162109 0.04953,-0.07753 9.98e-4,-0.152106 0.0332,-0.234375 z m -17.119141,8.017578 c -0.347039,-0.02411 -0.683162,0.03763 -0.982422,0.1875 -0.59852,0.299743 -1.006275,0.915933 -1.138672,1.669922 -0.287104,1.504806 0.01089,2.96302 0.855469,4.220703 v 0.002 c 0.639475,0.944607 1.605994,1.38896 2.662109,1.482422 l 0.03125,0.002 h 0.0332 c 0.2071,-0.0084 0.908835,0.0098 1.583985,0.0098 0.337575,0 0.674302,-0.0053 0.96875,-0.02344 0.289986,-0.01789 0.51061,-0.02765 0.761719,-0.126953 0.709367,-0.252885 1.324041,-0.807123 1.492187,-1.628906 0.113993,-0.557925 -0.143268,-1.060319 -0.488281,-1.53711 -0.344765,-0.476447 -0.820105,-0.954091 -1.355469,-1.439453 -1.115205,-1.013211 -2.50492,-2.057272 -3.396484,-2.49414 -0.334984,-0.189612 -0.686172,-0.300521 -1.027344,-0.324219 z m -0.535156,1.082031 c 0.274679,-0.137561 0.626256,-0.14592 1.080078,0.115235 l 0.01563,0.0098 0.01563,0.0059 c 0.666272,0.324284 2.115493,1.382386 3.175781,2.345703 0.509935,0.462243 0.946364,0.910686 1.21875,1.287109 0.272386,0.376424 0.337908,0.65432 0.318359,0.75 -0.09817,0.477323 -0.369151,0.720148 -0.855468,0.890625 l -0.01172,0.0039 -0.0098,0.0059 c 0.02275,-0.0092 -0.200864,0.04072 -0.458984,0.05664 -0.25812,0.01592 -0.581122,0.02148 -0.908203,0.02148 -0.630576,0 -1.229493,-0.02009 -1.566406,-0.0098 -0.85301,-0.07668 -1.445165,-0.3494 -1.916016,-1.044922 -0.710119,-1.058592 -0.945473,-2.209066 -0.701172,-3.480469 v -0.0039 l 0.002,-0.0039 c 0.08955,-0.509963 0.326884,-0.811658 0.601563,-0.949219 z m 12.93164,0.833985 c -1.013809,0.153818 -1.829464,0.606966 -2.607422,0.90625 l -0.0098,0.0039 -0.0078,0.0039 c -0.774557,0.332516 -1.482231,0.744069 -2.066406,1.294922 l -0.0059,0.0059 -0.0078,0.0059 c -0.481228,0.486739 -0.630492,1.173838 -0.410156,1.74414 0.218557,0.565698 0.739139,0.992829 1.419922,1.222657 0.222931,0.09644 0.442082,0.142029 0.666015,0.185546 l 0.01367,0.002 0.01367,0.002 c 0.628777,0.08673 1.250941,0.226964 1.953125,0.27539 h 0.0039 0.0039 c 0.981559,0.05121 1.831015,-0.28989 2.410156,-0.96289 0.695243,-0.797926 1.036094,-1.814601 0.988281,-2.863282 -0.02646,-0.608686 -0.287492,-1.150123 -0.726562,-1.486328 -0.437459,-0.33497 -1.025005,-0.449042 -1.63086,-0.339843 z m 0.173828,0.982421 c 0.383941,-0.07024 0.660466,0.0056 0.84961,0.150391 0.189144,0.144831 0.318129,0.37166 0.333984,0.736328 v 0.002 c 0.03683,0.80775 -0.214857,1.556897 -0.742187,2.16211 h -0.002 v 0.002 c -0.392817,0.457399 -0.853196,0.657607 -1.59961,0.61914 -0.597443,-0.04175 -1.187693,-0.170361 -1.855469,-0.263671 -0.225676,-0.04396 -0.414849,-0.09422 -0.472656,-0.121094 l -0.02734,-0.01172 -0.02734,-0.0098 c -0.471499,-0.156274 -0.728676,-0.422512 -0.814453,-0.644531 -0.08503,-0.220077 -0.06405,-0.416301 0.1875,-0.673828 0.468256,-0.439286 1.064687,-0.794689 1.759765,-1.09375 0.86136,-0.332484 1.602526,-0.733377 2.394531,-0.851562 h 0.0078 z m 4.427735,2.773438 c -0.21828,0.06796 -0.384294,0.202927 -0.503906,0.386719 l -0.03516,0.05469 -0.01953,0.0625 c -0.198471,0.606108 -0.779133,1.980881 -2.123047,3.248047 -1.343913,1.267166 -3.448254,2.447624 -6.792969,2.673828 -1.030231,0.07024 -1.737265,0.155205 -2.214843,0.259766 -0.238789,0.05228 -0.416011,0.101173 -0.587891,0.195312 -0.08594,0.04707 -0.179755,0.104878 -0.267578,0.236328 -0.08782,0.131451 -0.12461,0.379215 -0.05664,0.542969 0.13594,0.32751 0.326322,0.351919 0.488282,0.416016 0.161959,0.0641 0.342751,0.11212 0.558593,0.15625 0.431685,0.08826 0.993422,0.157078 1.646485,0.201172 1.306125,0.08819 2.969711,0.07624 4.554687,-0.121094 1.584977,-0.197332 3.088899,-0.558679 4.113281,-1.292969 l 0.0039,-0.0039 0.0039,-0.002 c 0.601024,-0.448913 1.301659,-0.934118 1.853516,-1.685547 0.551276,-0.750638 0.922179,-1.765176 0.898437,-3.162109 -5.12e-4,-0.336973 -0.07283,-0.711122 -0.199219,-1.074219 -0.121714,-0.349683 -0.282769,-0.681588 -0.601562,-0.931641 -0.208676,-0.181396 -0.508456,-0.225631 -0.71875,-0.160156 z m 0.232422,1.162109 c 0.05547,0.08913 0.09407,0.12039 0.142578,0.259766 0.09159,0.263135 0.144531,0.575283 0.144531,0.748047 v 0.0039 0.0059 c 0.02148,1.221798 -0.27394,1.969588 -0.705078,2.556641 -0.429242,0.584471 -1.023781,1.0116 -1.638672,1.470703 -3.7e-4,2.66e-4 -0.0016,-2.65e-4 -0.002,0 -0.757533,0.542409 -2.147609,0.926183 -3.650391,1.113281 -1.362849,0.169677 -2.768926,0.162782 -3.955078,0.103516 0.01217,-8.42e-4 0.01313,-0.0011 0.02539,-0.002 3.552474,-0.240255 5.909238,-1.526201 7.410156,-2.941406 1.33528,-1.259025 1.931418,-2.52536 2.228516,-3.31836 z"
     id="path7" />
</svg>
