<?xml version="1.0" encoding="UTF-8" standalone="no"?>
<!-- Generator: Gravit.io -->

<svg
   style="isolation:isolate"
   viewBox="0 0 48 48"
   width="48pt"
   height="48pt"
   version="1.1"
   id="svg9"
   sodipodi:docname="telegram.svg"
   inkscape:version="1.1.2 (0a00cf5339, 2022-02-04)"
   xmlns:inkscape="http://www.inkscape.org/namespaces/inkscape"
   xmlns:sodipodi="http://sodipodi.sourceforge.net/DTD/sodipodi-0.dtd"
   xmlns:xlink="http://www.w3.org/1999/xlink"
   xmlns="http://www.w3.org/2000/svg"
   xmlns:svg="http://www.w3.org/2000/svg">
  <defs
     id="defs13">
    <linearGradient
       inkscape:collect="always"
       xlink:href="#_lgradient_0"
       id="linearGradient872"
       x1="-12.025727"
       y1="6.1170783"
       x2="-0.085100174"
       y2="6.1170783"
       gradientUnits="userSpaceOnUse"
       gradientTransform="matrix(3.8358211,0,0,3.8371386,-0.00544341,-0.00268054)" />
    <linearGradient
       inkscape:collect="always"
       xlink:href="#_lgradient_0"
       id="linearGradient15"
       x1="-9.6850061"
       y1="45.161198"
       x2="11.98815"
       y2="21.735205"
       gradientUnits="userSpaceOnUse"
       gradientTransform="matrix(1.1147442,0,0,1.1150348,-0.01237238,-3.3277956)" />
    <linearGradient
       inkscape:collect="always"
       xlink:href="#_lgradient_0"
       id="linearGradient1064"
       x1="8.2040033"
       y1="23.661943"
       x2="32.516106"
       y2="23.661943"
       gradientUnits="userSpaceOnUse" />
  </defs>
  <sodipodi:namedview
     id="namedview11"
     pagecolor="#ffffff"
     bordercolor="#666666"
     borderopacity="1.0"
     inkscape:pageshadow="2"
     inkscape:pageopacity="0.0"
     inkscape:pagecheckerboard="0"
     inkscape:document-units="pt"
     showgrid="false"
     inkscape:zoom="7.2257474"
     inkscape:cx="32.038208"
     inkscape:cy="31.969011"
     inkscape:window-width="1600"
     inkscape:window-height="836"
     inkscape:window-x="0"
     inkscape:window-y="0"
     inkscape:window-maximized="1"
     inkscape:current-layer="svg9" />
  <linearGradient
     id="_lgradient_0"
     x1="0"
     y1="0.5"
     x2="0.9074880558539661"
     y2="0.9200778838291643"
     gradientTransform="matrix(26.122751,0,0,27.709516,7.8005673,11.323486)"
     gradientUnits="userSpaceOnUse">
    <stop
       offset="0%"
       stop-opacity="1"
       style="stop-color:rgb(0,196,255)"
       id="stop2" />
    <stop
       offset="83.88839793817618%"
       stop-opacity="1"
       style="stop-color:rgb(0,114,255)"
       id="stop4" />
  </linearGradient>
  <rect
     x="-46.783188"
     y="1.2253767"
     height="45.80014"
     rx="6.1837621"
     shape-rendering="crispEdges"
     id="rect5-6-7-3"
     ry="6.8055277"
     transform="matrix(0.00524063,-0.99998627,0.99998801,0.00489691,0,0)"
     style="isolation:isolate;fill:#0083ff;fill-opacity:0.13470298;stroke:url(#linearGradient872);stroke-width:2.0301;stroke-miterlimit:4;stroke-dasharray:none;stroke-opacity:1"
     width="45.801998" />
  <rect
     x="-15.686804"
     y="17.260084"
     height="33.345856"
     rx="6.7920032"
     shape-rendering="crispEdges"
     id="rect5-6-6-6-6"
     style="isolation:isolate;fill:#0083ff;fill-opacity:0.13470298;stroke:url(#linearGradient15);stroke-width:1.67233;stroke-miterlimit:4;stroke-dasharray:none;stroke-opacity:1"
     ry="7.4743071"
     transform="matrix(0.72446484,-0.68931175,0.68622417,0.72739012,0,0)"
     width="33.338203" />
  <path
     style="color:#000000;fill:url(#linearGradient1064);-inkscape-stroke:none"
     d="m 31.332031,10.427734 c -0.365207,0.03155 -0.75395,0.167136 -1.136719,0.384766 l -5.746093,3.269531 c -0.770129,0.445142 -1.037951,1.445883 -0.59375,2.216797 0.444277,0.771047 1.444734,1.038883 2.214843,0.59375 l 3.171875,-1.785156 c 0.175908,-0.09892 0.182328,-0.04284 0.119141,-0.08594 -0.06319,-0.0431 -0.0091,-0.05724 -0.03711,0.142579 l -2.470703,17.632812 c -0.02637,0.188412 -0.07793,0.20079 -0.07422,0.199219 0.0037,-0.0016 -0.04175,0.02643 -0.195313,-0.08594 l -3.824218,-2.796875 c -0.453958,-0.33154 -1.016909,-0.347458 -1.488282,-0.04102 l -0.002,0.002 -3.261719,2.126953 -1.207031,-4.414063 C 16.662025,27.280553 16.322677,26.899411 15.833984,26.705078 L 12.46875,25.365234 c -0.188675,-0.0751 -0.144795,-0.114877 -0.138672,-0.0293 0.0061,0.08558 -0.04341,0.0544 0.132813,-0.04687 l 8,-4.599609 c 0.769675,-0.44488 1.036666,-1.445187 0.591796,-2.214844 -0.44488,-0.769675 -1.443233,-1.036667 -2.21289,-0.591797 L 8.9375,23.583984 c -0.7681223,0.442184 -1.2544375,1.084851 -1.2324219,1.800782 0.022016,0.71593 0.5459569,1.330877 1.3398438,1.724609 L 14,29.566406 c 0.08439,0.04177 0.322152,0.353108 0.339844,0.445313 l 0.84375,4.392578 c 0.225436,1.174866 1.430636,1.870083 2.560547,1.478515 l 0.398437,-0.138671 3.455078,-2.373047 c 0.04689,-0.03215 0.30823,-0.03189 0.357422,0 l 4.384766,3.021484 c 0.736988,0.50743 1.555087,0.654289 2.232422,0.357422 0.677334,-0.296867 1.123867,-0.998917 1.25,-1.884766 l 3.15625,-22.158203 c 0.124134,-0.871812 -0.06483,-1.641875 -0.648438,-2.039062 -0.291802,-0.198594 -0.63284,-0.271781 -0.998047,-0.240235 z m 0.435547,1.066407 c 0.15539,0.105755 0.314679,0.412262 0.220703,1.072265 l -3.15625,22.158203 c -0.09198,0.645967 -0.360472,0.977172 -0.662109,1.109375 -0.301637,0.132204 -0.726204,0.104432 -1.263672,-0.265625 l -4.382813,-3.019531 c -0.463111,-0.318581 -1.027148,-0.319498 -1.490234,-0.002 L 17.6875,34.84375 17.416016,34.9375 c -0.62394,0.216224 -1.127516,-0.07415 -1.251954,-0.722656 L 15.320313,29.824219 C 15.221384,29.30863 14.914058,28.902895 14.443359,28.669922 L 9.4902344,26.212891 C 8.8980869,25.919212 8.7124988,25.596782 8.7050781,25.355469 8.6976575,25.114155 8.8624898,24.77911 9.4355469,24.449219 L 19.341797,18.75 c 0.301268,-0.174136 0.673531,-0.07469 0.847656,0.226562 0.173762,0.300621 0.07317,0.671104 -0.226562,0.845704 -6.46e-4,3.76e-4 6.47e-4,0.0016 0,0.002 l -7.998047,4.597656 c -0.360365,0.207107 -0.662215,0.548071 -0.63086,0.986328 0.03136,0.438257 0.379586,0.733057 0.765625,0.886719 l 3.365235,1.339844 c 0.08658,0.03443 0.346128,0.324872 0.371094,0.416015 l 1.240234,4.535156 c 0.07488,0.273361 0.272147,0.524527 0.546875,0.628907 0.274728,0.104379 0.588709,0.04891 0.826172,-0.105469 v -0.002 l 3.367187,-2.195313 c 0.04783,-0.0311 0.308456,-0.0251 0.353516,0.0078 l 3.824219,2.798828 c 0.346017,0.253202 0.788274,0.363251 1.175781,0.199219 0.387507,-0.164033 0.614416,-0.557996 0.673828,-0.982422 l 2.470703,-17.632813 c 0.05782,-0.413017 -0.02985,-0.861354 -0.390625,-1.107421 -0.360776,-0.246068 -0.808395,-0.163395 -1.171875,0.04101 l -3.179687,1.789063 -0.002,0.002 c -0.300815,0.173874 -0.672928,0.07473 -0.847656,-0.228516 -0.174804,-0.303374 -0.07423,-0.677699 0.226563,-0.851562 l 5.740234,-3.265625 c 0.579569,-0.329526 0.922735,-0.293255 1.078125,-0.1875 z"
     id="path7" />
</svg>
