<?xml version="1.0" encoding="UTF-8" standalone="no"?>
<!-- Generator: Gravit.io -->

<svg
   style="isolation:isolate"
   viewBox="0 0 48 48"
   width="48pt"
   height="48pt"
   version="1.1"
   id="svg30"
   sodipodi:docname="termius.svg"
   inkscape:version="1.1.2 (0a00cf5339, 2022-02-04)"
   xmlns:inkscape="http://www.inkscape.org/namespaces/inkscape"
   xmlns:sodipodi="http://sodipodi.sourceforge.net/DTD/sodipodi-0.dtd"
   xmlns:xlink="http://www.w3.org/1999/xlink"
   xmlns="http://www.w3.org/2000/svg"
   xmlns:svg="http://www.w3.org/2000/svg">
  <defs
     id="defs34">
    <linearGradient
       inkscape:collect="always"
       xlink:href="#_lgradient_3"
       id="linearGradient872"
       x1="-12.025727"
       y1="6.1170783"
       x2="-0.085100174"
       y2="6.1170783"
       gradientUnits="userSpaceOnUse"
       gradientTransform="matrix(3.8358211,0,0,3.8371386,-0.00544341,-0.00268054)" />
    <linearGradient
       inkscape:collect="always"
       xlink:href="#_lgradient_3"
       id="linearGradient15"
       x1="-9.6850061"
       y1="45.161198"
       x2="11.98815"
       y2="21.735205"
       gradientUnits="userSpaceOnUse"
       gradientTransform="matrix(1.1147442,0,0,1.1150348,-0.01237238,-3.3277956)" />
    <linearGradient
       inkscape:collect="always"
       xlink:href="#_lgradient_3"
       id="linearGradient1297"
       x1="9.0999947"
       y1="23.295132"
       x2="39.330009"
       y2="23.295132"
       gradientUnits="userSpaceOnUse" />
  </defs>
  <sodipodi:namedview
     id="namedview32"
     pagecolor="#ffffff"
     bordercolor="#666666"
     borderopacity="1.0"
     inkscape:pageshadow="2"
     inkscape:pageopacity="0.0"
     inkscape:pagecheckerboard="0"
     inkscape:document-units="pt"
     showgrid="false"
     inkscape:zoom="10.21875"
     inkscape:cx="31.95107"
     inkscape:cy="32"
     inkscape:window-width="1600"
     inkscape:window-height="836"
     inkscape:window-x="0"
     inkscape:window-y="0"
     inkscape:window-maximized="1"
     inkscape:current-layer="svg30" />
  <linearGradient
     id="_lgradient_0"
     x1="0"
     y1="0.5"
     x2="0.9074880558539661"
     y2="0.9200778838291643"
     gradientTransform="matrix(46.43,0,0,34.39,1,6.1)"
     gradientUnits="userSpaceOnUse">
    <stop
       offset="0%"
       stop-opacity="1"
       style="stop-color:rgb(78,84,200)"
       id="stop2" />
    <stop
       offset="83.88839793817618%"
       stop-opacity="1"
       style="stop-color:rgb(0,114,255)"
       id="stop4" />
  </linearGradient>
  <rect
     x="-46.783188"
     y="1.2253767"
     height="45.80014"
     rx="6.1837621"
     shape-rendering="crispEdges"
     id="rect5-6-7-3"
     ry="6.8055277"
     transform="matrix(0.00524063,-0.99998627,0.99998801,0.00489691,0,0)"
     style="isolation:isolate;fill:#008fff;fill-opacity:0.13470298;stroke:url(#linearGradient872);stroke-width:2.0301;stroke-miterlimit:4;stroke-dasharray:none;stroke-opacity:1"
     width="45.801998" />
  <rect
     x="-15.686804"
     y="17.260084"
     height="33.345856"
     rx="6.7920032"
     shape-rendering="crispEdges"
     id="rect5-6-6-6-6"
     style="isolation:isolate;fill:#008fff;fill-opacity:0.13470298;stroke:url(#linearGradient15);stroke-width:1.67233;stroke-miterlimit:4;stroke-dasharray:none;stroke-opacity:1"
     ry="7.4743071"
     transform="matrix(0.72446484,-0.68931175,0.68622417,0.72739012,0,0)"
     width="33.338203" />
  <linearGradient
     id="_lgradient_1"
     x1="0"
     y1="0.5"
     x2="0.9074880558539661"
     y2="0.9200778838291643"
     gradientTransform="matrix(10.19,0,0,10.29,15.14,20.53)"
     gradientUnits="userSpaceOnUse">
    <stop
       offset="0%"
       stop-opacity="1"
       style="stop-color:rgb(78,84,200)"
       id="stop9" />
    <stop
       offset="83.88839793817618%"
       stop-opacity="1"
       style="stop-color:rgb(0,114,255)"
       id="stop11" />
  </linearGradient>
  <linearGradient
     id="_lgradient_2"
     x1="0"
     y1="0.5"
     x2="0.9074880558539661"
     y2="0.9200778838291643"
     gradientTransform="matrix(9.69,0,0,4.061,24.31,28.72)"
     gradientUnits="userSpaceOnUse">
    <stop
       offset="0%"
       stop-opacity="1"
       style="stop-color:rgb(78,84,200)"
       id="stop16" />
    <stop
       offset="83.88839793817618%"
       stop-opacity="1"
       style="stop-color:rgb(0,114,255)"
       id="stop18" />
  </linearGradient>
  <linearGradient
     id="_lgradient_3"
     x1="0"
     y1="0.5"
     x2="0.9074880558539661"
     y2="0.9200778838291643"
     gradientTransform="matrix(2.6043516,0,0,2.6043516,22.912824,31.886151)"
     gradientUnits="userSpaceOnUse">
    <stop
       offset="0%"
       stop-opacity="1"
       style="stop-color:rgb(78,84,200)"
       id="stop23" />
    <stop
       offset="83.88839793817618%"
       stop-opacity="1"
       style="stop-color:rgb(0,114,255)"
       id="stop25" />
  </linearGradient>
  <path
     style="color:#000000;fill:url(#linearGradient1297);-inkscape-stroke:none"
     d="m 29.855469,11.599609 c -0.701354,1.54e-4 -1.394231,0.08324 -2.072266,0.25586 -1.213995,0.298829 -2.301176,0.926125 -3.277344,1.701172 -0.422105,-0.30008 -0.857043,-0.586362 -1.33789,-0.794922 -1.058108,-0.463354 -2.205444,-0.705586 -3.363282,-0.699219 h -0.0039 c -0.708145,3.02e-4 -1.412605,0.08313 -2.103515,0.255859 -1.815486,0.442363 -3.44395,1.456149 -4.638672,2.892579 -1.174414,1.390815 -1.827883,3.148842 -1.841797,4.964843 v 0.002 0.002 c 0,0.340342 0.0397,0.68265 0.08594,1.021485 -0.665489,0.621559 -1.265999,1.316614 -1.708984,2.115234 v 0.002 h -0.00195 c -0.6445798,1.178266 -0.9921875,2.498637 -0.9921875,3.847657 0,0.576547 0.06227,1.153261 0.1875,1.716796 l 0.00195,0.002 c 0.4041951,1.777065 1.4327515,3.355909 2.8867185,4.455078 h 0.002 l 0.002,0.002 c 1.446828,1.079929 3.200682,1.662298 5.009765,1.648437 0.344251,-1.55e-4 0.687441,-0.02125 1.03125,-0.0625 h 0.002 c 0.981087,-0.118483 1.686527,-1.022719 1.56836,-2.003906 -0.118239,-0.981745 -1.021394,-1.690681 -2.001954,-1.572266 l 0.0039,-0.002 c -0.210257,0.02404 -0.41347,0.03711 -0.615235,0.03711 h -0.002 c -1.025673,0.0059 -2.018876,-0.318362 -2.835937,-0.929688 -0.775883,-0.585639 -1.315716,-1.427184 -1.53711,-2.375 -1.38e-4,-5.93e-4 1.39e-4,-0.0014 0,-0.002 -0.06365,-0.30446 -0.09766,-0.604806 -0.09766,-0.908203 0,-0.740266 0.190703,-1.463565 0.548828,-2.115234 0.550506,-1.000381 1.539021,-1.826967 1.888672,-1.96875 0.254109,-0.103232 0.473767,-0.267885 0.597656,-0.527344 0.12389,-0.25946 0.0842,-0.638544 -0.115234,-0.871094 l 0.06445,0.09766 c 0,0 -0.194103,-0.390667 -0.273437,-0.771484 l -0.002,-0.0059 -0.002,-0.0059 c -0.06198,-0.264815 -0.08944,-0.529033 -0.08984,-0.804687 v -0.002 c 0.01207,-0.977955 0.359673,-1.919039 0.99414,-2.669922 l 0.002,-0.002 0.002,-0.002 c 0.70612,-0.848532 1.666642,-1.447983 2.734374,-1.708984 h 0.002 c 0.407275,-0.10034 0.829195,-0.148437 1.253906,-0.148437 h 0.002 0.002 c 0.657852,-0.0059 1.304084,0.129731 1.904297,0.394531 0.759893,0.332215 1.330451,0.876254 1.751953,1.693359 0.217722,0.422939 0.590981,0.746219 1.046875,0.765625 0.455895,0.01941 0.856358,-0.270811 1.109375,-0.673828 0.890168,-1.417996 1.890996,-2.214393 3.021484,-2.49414 h 0.002 0.002 c 0.394307,-0.100046 0.794477,-0.148438 1.205078,-0.148438 h 0.002 c 1.036134,-0.0059 2.034135,0.329762 2.851562,0.953125 0.799018,0.612385 1.358514,1.487248 1.580079,2.466797 0.07092,0.31973 0.111328,0.648405 0.111328,0.970703 -0.0032,0.56716 -0.110068,1.137275 -0.261719,1.607422 -0.15183,0.470703 -0.366085,0.847637 -0.482422,0.978515 -0.202849,0.228345 -0.314267,0.553877 -0.236328,0.863282 0.07794,0.309405 0.330372,0.543234 0.617187,0.648437 0.120033,0.04411 0.460137,0.256379 0.792969,0.570313 0.332832,0.313933 0.681472,0.730177 0.945313,1.1875 0.289601,0.518856 0.449218,1.104593 0.449218,1.697265 v 0.03906 c -0.0057,0.51554 -0.131738,1.027149 -0.365234,1.49414 -0.255391,0.497888 -0.609867,0.94153 -1.035156,1.302735 -0.488899,0.41098 -1.033859,0.723283 -1.628906,0.9375 -0.662932,0.23481 -1.354451,0.355469 -2.058594,0.355469 h -0.08008 -0.0098 c -0.273067,-0.0064 -0.541616,-0.03032 -0.800781,-0.07617 h -0.0039 c -0.969341,-0.180466 -1.913254,0.467117 -2.095704,1.4375 -0.182918,0.972873 0.466355,1.920896 1.439454,2.103515 0.477016,0.09119 0.95987,0.131833 1.439453,0.138672 h 0.0039 0.0957 0.0059 c 1.117237,0 2.222167,-0.191627 3.271485,-0.568359 1.002971,-0.352769 1.934495,-0.890787 2.742187,-1.574219 0.798868,-0.673827 1.452472,-1.493266 1.931641,-2.423828 l 0.002,-0.0039 0.002,-0.0039 c 0.475245,-0.957478 0.73403,-2.007594 0.748047,-3.080078 v -0.0039 -0.01563 -0.05273 -0.01367 -0.002 c -0.007,-1.217212 -0.322628,-2.415585 -0.925781,-3.47461 -0.351963,-0.612901 -0.811306,-1.154875 -1.310547,-1.65625 0.241542,-0.785063 0.407928,-1.590976 0.414062,-2.408203 v -0.002 -0.002 c 0,-0.59264 -0.07117,-1.18919 -0.203125,-1.765625 -0.403678,-1.806784 -1.432443,-3.411993 -2.90625,-4.53125 -1.447815,-1.107889 -3.219698,-1.703748 -5.041015,-1.697266 z m 0.002,1 h 0.002 c 1.602134,-0.0061 3.160638,0.517676 4.433594,1.492188 l 0.002,0.002 c 1.286116,0.976719 2.183177,2.37724 2.535156,3.955078 v 0.002 c 0.115313,0.50374 0.177583,1.027426 0.177734,1.541016 -0.0063,0.812631 -0.140667,1.616688 -0.408203,2.382812 l -0.109375,0.308594 0.240235,0.222656 c 0.514097,0.477808 0.95099,1.036952 1.304687,1.652344 0.516718,0.90726 0.788896,1.935803 0.794922,2.984375 v 0.0098 0.05273 0.0059 c -0.01201,0.919205 -0.234844,1.820455 -0.644531,2.646485 -2.86e-4,5.75e-4 2.85e-4,0.0014 0,0.002 -0.419022,0.811733 -0.988723,1.525526 -1.685547,2.113281 -0.715852,0.605721 -1.542552,1.083191 -2.427734,1.394531 l -0.002,0.002 c -0.94192,0.338599 -1.933487,0.509765 -2.9375,0.509765 h -0.0059 -0.08398 -0.0078 c -0.429243,-0.0065 -0.853798,-0.04349 -1.259765,-0.121094 h -0.002 c -0.442398,-0.08302 -0.725303,-0.495559 -0.642578,-0.935546 0.08294,-0.441127 0.495397,-0.723243 0.933594,-0.640625 l 0.002,0.002 h 0.002 c 0.322532,0.05734 0.64753,0.08481 0.96875,0.0918 h 0.0059 0.0059 0.08984 c 0.818752,0 1.625632,-0.1395 2.394531,-0.41211 l 0.002,-0.002 c 0.706283,-0.254262 1.359149,-0.628573 1.9375,-1.115234 v -0.002 h 0.002 c 0.524206,-0.445217 0.961874,-0.990911 1.279297,-1.611329 l 0.002,-0.0039 v -0.002 c 0.300396,-0.600792 0.463347,-1.260249 0.470703,-1.929687 v -0.002 -0.04883 c 0,-0.772531 -0.205561,-1.526636 -0.578125,-2.191406 l -0.002,-0.002 -0.002,-0.0039 c -0.322138,-0.558373 -0.728776,-1.040448 -1.126953,-1.416016 -0.380291,-0.358698 -0.729784,-0.603226 -1.082031,-0.744141 0.267817,-0.317637 0.482534,-0.742698 0.65625,-1.28125 0.181201,-0.561758 0.306978,-1.223332 0.310547,-1.912109 v -0.002 c 0,-0.406279 -0.04969,-0.806609 -0.134766,-1.189453 l -0.002,-0.002 C 34.992364,17.194241 34.30332,16.116225 33.318359,15.361328 32.326798,14.605172 31.111723,14.196859 29.857422,14.203125 h -0.0039 c -0.486592,3e-4 -0.970384,0.05869 -1.447266,0.179688 -1.429356,0.354545 -2.645174,1.365759 -3.626953,2.929687 -0.129171,0.205749 -0.208141,0.207483 -0.21875,0.207031 -0.01061,-4.51e-4 -0.09009,-0.0088 -0.201172,-0.224609 -0.51085,-0.990309 -1.270622,-1.727344 -2.238281,-2.150391 -0.726825,-0.320657 -1.511301,-0.485097 -2.310547,-0.478515 h -0.0039 c -0.498557,2.89e-4 -1.000276,0.05702 -1.490235,0.177734 -1.275473,0.312183 -2.422548,1.027906 -3.265625,2.041016 -0.782687,0.927891 -1.214141,2.095179 -1.228515,3.302734 v 0.002 0.0039 c 0,0.346594 0.03668,0.690495 0.117187,1.035157 1.5e-4,6.42e-4 -1.5e-4,0.0013 0,0.002 0.107866,0.503082 0.297567,0.862514 0.332031,0.929687 -0.0053,0.0025 2.59e-4,-5.32e-4 -0.0059,0.002 -0.787145,0.319188 -1.726202,1.211817 -2.386719,2.41211 -0.436202,0.793745 -0.673828,1.684162 -0.673828,2.597656 0,0.382817 0.04313,0.758382 0.121094,1.126953 v 0.0039 l 0.002,0.0059 c 0.273482,1.173088 0.944765,2.218147 1.912109,2.947265 v 0.002 c 0.992962,0.742935 2.201296,1.136033 3.441407,1.128907 0.239687,-1.52e-4 0.480416,-0.01505 0.724609,-0.04297 h 0.002 0.002 c 0.442717,-0.05346 0.835025,0.253779 0.888672,0.699219 0.05371,0.445995 -0.255076,0.839176 -0.697266,0.892578 -0.30598,0.03671 -0.61048,0.05469 -0.916015,0.05469 h -0.002 -0.002 c -1.588702,0.01217 -3.128045,-0.496829 -4.402344,-1.447265 l -0.002,-0.002 c -1.2664,-0.958192 -2.162812,-2.336332 -2.5136721,-3.878907 -0.108601,-0.490028 -0.1640625,-0.993133 -0.1640625,-1.496093 0,-1.176558 0.3032929,-2.330236 0.8691406,-3.365235 v -0.002 c 0.433962,-0.781986 1.00382,-1.483873 1.675781,-2.070312 l 0.210938,-0.183594 -0.04687,-0.277344 c -0.05999,-0.35396 -0.09158,-0.722347 -0.0918,-1.083984 v -0.002 c 0,-6.47e-4 0,-0.0013 0,-0.002 0.01302,-1.580397 0.583101,-3.113958 1.607422,-4.326171 l 0.002,-0.002 0.002,-0.002 c 1.057487,-1.271429 2.4992,-2.169191 4.107422,-2.560546 h 0.002 l 0.002,-0.002 c 0.61,-0.152499 1.233449,-0.224609 1.865234,-0.224609 h 0.002 c 1.015481,-0.0061 2.027895,0.206647 2.960937,0.615234 h 0.002 c 0.499565,0.216679 0.971205,0.501958 1.402344,0.835938 l 0.326172,0.251953 0.310547,-0.271484 c 0.922517,-0.80644 2.021429,-1.374206 3.214843,-1.667969 h 0.002 l 0.002,-0.002 c 0.596258,-0.152107 1.205184,-0.22461 1.830078,-0.22461 z m -10.761719,8.808594 c -0.355581,0.130449 -0.661941,0.394656 -0.832031,0.761719 -0.340242,0.734257 -0.01537,1.618805 0.71875,1.958984 l 1.201172,0.558594 -1.279297,0.958984 c -0.647889,0.482513 -0.779045,1.41473 -0.294922,2.0625 0.485051,0.649013 1.420128,0.785492 2.068359,0.298828 l 2.998047,-2.240234 c 0.527156,-0.393975 0.844406,-0.949257 0.785156,-1.521484 -0.05925,-0.572228 -0.483326,-1.048669 -1.080078,-1.326172 l -3.158203,-1.46875 c -0.367128,-0.17012 -0.771372,-0.173417 -1.126953,-0.04297 z m 0.707031,0.951172 3.15625,1.466797 c 0.380531,0.176956 0.49235,0.374098 0.507813,0.523437 0.01546,0.14934 -0.05444,0.363983 -0.390625,0.615235 l -3,2.24414 c -0.213808,0.160518 -0.503886,0.119279 -0.666016,-0.09766 -0.162482,-0.217405 -0.120359,-0.506708 0.0918,-0.664062 h 0.002 l 2.617188,-1.960938 -2.71875,-1.263672 c -0.243808,-0.112976 -0.345338,-0.389136 -0.232422,-0.632812 0.112976,-0.243808 0.389136,-0.343384 0.632812,-0.230469 z m 9.910157,4.375 c -0.36903,-0.124525 -0.785631,-0.115814 -1.166016,0.05078 l -0.0039,0.002 h -0.002 c -0.162155,0.07276 -0.336117,0.127587 -0.525391,0.173828 -0.17824,0.03389 -0.355638,0.05664 -0.513672,0.05664 -0.193494,0 -0.388795,-0.01818 -0.564453,-0.05078 h -0.002 c -0.238948,-0.04575 -0.467848,-0.11301 -0.695313,-0.201172 -0.771058,-0.303869 -1.667457,0.02172 -2.009765,0.775391 v 0.002 c -0.341518,0.754101 0.05604,1.645795 0.828125,1.949218 0.40716,0.16146 0.820919,0.281621 1.248047,0.365235 h 0.002 c 0.398315,0.07701 0.803399,0.1205 1.214843,0.113281 0.402829,-6.61e-4 0.79085,-0.05125 1.167969,-0.126953 h 0.0039 l 0.0039,-0.002 c 0.390815,-0.08558 0.775737,-0.212449 1.138672,-0.367188 l 0.002,-0.002 h 0.0039 c 0.758327,-0.334615 1.116833,-1.243882 0.746094,-1.984375 h -0.002 c -0.18622,-0.370954 -0.505971,-0.629381 -0.875,-0.753906 z M 25.875,27.695312 h 0.002 l 0.002,0.002 c 0.275887,0.106929 0.565104,0.19353 0.871094,0.251953 h 0.002 v 0.002 c 0.243169,0.0453 0.497511,0.06641 0.75,0.06641 0.245868,0 0.483652,-0.03088 0.708984,-0.07422 l 0.01172,-0.002 0.01172,-0.0039 c 0.236279,-0.05677 0.475005,-0.129971 0.712891,-0.236328 0.288783,-0.126477 0.629566,3.11e-4 0.748046,0.236328 0.117438,0.236914 0.02678,0.494424 -0.255859,0.619141 -0.304308,0.129352 -0.627562,0.236372 -0.945312,0.30664 -0.002,3.97e-4 -0.0039,-3.95e-4 -0.0059,0 -0.0014,3.04e-4 -0.0025,0.0017 -0.0039,0.002 -0.330381,0.06583 -0.64978,0.105469 -0.96875,0.105469 h -0.0039 -0.0059 C 27.176999,28.976473 26.84194,28.940992 26.5,28.875 h -0.002 c -0.370423,-0.07262 -0.724748,-0.174691 -1.072266,-0.3125 h -0.002 c -0.292582,-0.114318 -0.391831,-0.367561 -0.283203,-0.607422 0.108686,-0.239297 0.441558,-0.376463 0.734375,-0.259766 z m -1.660156,3.691407 c -0.989391,0 -1.802735,0.813343 -1.802735,1.802734 10e-7,0.989391 0.813344,1.800782 1.802735,1.800781 0.98939,10e-7 1.802734,-0.81139 1.802734,-1.800781 0,-0.989391 -0.813343,-1.802734 -1.802734,-1.802734 z m 0,1 c 0.448951,0 0.802734,0.353783 0.802734,0.802734 0,0.448951 -0.353783,0.800781 -0.802734,0.800781 -0.448951,0 -0.802734,-0.35183 -0.802735,-0.800781 0,-0.448951 0.353783,-0.802734 0.802735,-0.802734 z"
     id="circle28" />
</svg>
