<?xml version="1.0" encoding="UTF-8" standalone="no"?>
<!-- Generator: Gravit.io -->

<svg
   style="isolation:isolate"
   viewBox="0 0 48 48"
   width="48pt"
   height="48pt"
   version="1.1"
   id="svg9"
   sodipodi:docname="terraria.svg"
   inkscape:version="1.1.2 (0a00cf5339, 2022-02-04)"
   xmlns:inkscape="http://www.inkscape.org/namespaces/inkscape"
   xmlns:sodipodi="http://sodipodi.sourceforge.net/DTD/sodipodi-0.dtd"
   xmlns:xlink="http://www.w3.org/1999/xlink"
   xmlns="http://www.w3.org/2000/svg"
   xmlns:svg="http://www.w3.org/2000/svg">
  <defs
     id="defs13">
    <linearGradient
       inkscape:collect="always"
       xlink:href="#_lgradient_8"
       id="linearGradient872"
       x1="-12.025727"
       y1="6.1170783"
       x2="-0.085100174"
       y2="6.1170783"
       gradientUnits="userSpaceOnUse"
       gradientTransform="matrix(3.8358211,0,0,3.8371386,-0.00544341,-0.00268054)" />
    <linearGradient
       inkscape:collect="always"
       xlink:href="#_lgradient_8"
       id="linearGradient15"
       x1="-9.6850061"
       y1="45.161198"
       x2="11.98815"
       y2="21.735205"
       gradientUnits="userSpaceOnUse"
       gradientTransform="matrix(1.1147442,0,0,1.1150348,-0.01237238,-3.3277956)" />
    <linearGradient
       inkscape:collect="always"
       xlink:href="#_lgradient_8"
       id="linearGradient1121"
       x1="12.432625"
       y1="23.053003"
       x2="35.567368"
       y2="23.053003"
       gradientUnits="userSpaceOnUse" />
  </defs>
  <sodipodi:namedview
     id="namedview11"
     pagecolor="#ffffff"
     bordercolor="#666666"
     borderopacity="1.0"
     inkscape:pageshadow="2"
     inkscape:pageopacity="0.0"
     inkscape:pagecheckerboard="0"
     inkscape:document-units="pt"
     showgrid="false"
     inkscape:zoom="10.21875"
     inkscape:cx="31.95107"
     inkscape:cy="32"
     inkscape:window-width="1600"
     inkscape:window-height="836"
     inkscape:window-x="0"
     inkscape:window-y="0"
     inkscape:window-maximized="1"
     inkscape:current-layer="svg9" />
  <linearGradient
     id="_lgradient_8"
     x1="0.49563082904760913"
     y1="0.2018377240561094"
     x2="0.528518770398333"
     y2="0.9992152296747578"
     gradientTransform="matrix(23.134528,0,0,29.579703,12.432736,8.2632171)"
     gradientUnits="userSpaceOnUse">
    <stop
       offset="2.608695652173913%"
       stop-opacity="1"
       style="stop-color:rgb(179,255,171)"
       id="stop2" />
    <stop
       offset="98.69565217391305%"
       stop-opacity="1"
       style="stop-color:rgb(18,255,247)"
       id="stop4" />
  </linearGradient>
  <rect
     x="-46.783188"
     y="1.2253767"
     height="45.80014"
     rx="6.1837621"
     shape-rendering="crispEdges"
     id="rect5-6-7-3"
     ry="6.8055277"
     transform="matrix(0.00524063,-0.99998627,0.99998801,0.00489691,0,0)"
     style="isolation:isolate;fill:#00ffd0;fill-opacity:0.13470298;stroke:url(#linearGradient872);stroke-width:2.0301;stroke-miterlimit:4;stroke-dasharray:none;stroke-opacity:1"
     width="45.801998" />
  <rect
     x="-15.686804"
     y="17.260084"
     height="33.345856"
     rx="6.7920032"
     shape-rendering="crispEdges"
     id="rect5-6-6-6-6"
     style="isolation:isolate;fill:#00ffd0;fill-opacity:0.13470298;stroke:url(#linearGradient15);stroke-width:1.67233;stroke-miterlimit:4;stroke-dasharray:none;stroke-opacity:1"
     ry="7.4743071"
     transform="matrix(0.72446484,-0.68931175,0.68622417,0.72739012,0,0)"
     width="33.338203" />
  <path
     style="color:#000000;fill:url(#linearGradient1121);fill-rule:evenodd;-inkscape-stroke:none"
     d="m 23.648437,7.7636719 c -1.888814,-0.00905 -3.729946,0.6100945 -5.232421,1.7636719 -1.441936,1.1026972 -2.439083,2.6845932 -2.828125,4.4570312 l 0.02148,-0.01367 c -0.009,0.0059 -0.01645,0.01356 -0.02539,0.01953 -0.0018,0.0084 -0.008,0.01504 -0.0098,0.02344 l 0.0039,-0.01758 c -1.107937,0.741657 -2.016464,1.743871 -2.640625,2.923828 -0.660876,1.248015 -1.003272,2.637459 -1.003906,4.048828 -4e-6,6.52e-4 3e-6,0.0013 0,0.002 0,6.51e-4 0,0.0013 0,0.002 -0.0094,1.979736 0.673316,3.90164 1.921875,5.431641 l 0.002,0.002 c 0.599717,0.726993 1.322467,1.345105 2.142578,1.814453 5.39e-4,3.13e-4 0.0014,-3.13e-4 0.002,0 8.04e-4,4.6e-4 0.0011,0.0015 0.002,0.002 0.82919,0.481221 1.743393,0.790008 2.69336,0.917969 h 0.002 c 0.676778,0.09067 1.307363,-0.396209 1.398437,-1.072266 0.09114,-0.676544 -0.38926,-1.312493 -1.066406,-1.404297 h -0.002 C 18.402964,26.583056 17.796724,26.374963 17.25,26.058594 h -0.002 C 16.6924,25.739809 16.1961,25.319442 15.785156,24.822266 14.901338,23.734663 14.418146,22.377589 14.427734,20.980469 v -0.002 -0.002 c 0,-1.011883 0.244314,-2.002594 0.714844,-2.892578 0.434411,-0.822936 1.070313,-1.523275 1.849609,-2.041015 l 0.0098,-0.0059 0.783203,-0.578125 0.230469,-0.916015 0.002,-0.0078 c 0.254494,-1.203221 0.935203,-2.27648 1.917969,-3.027343 1.063775,-0.815241 2.372171,-1.257642 3.710937,-1.248047 h 0.0039 0.0039 c 1.288551,-0.0096 2.546249,0.395961 3.591797,1.15625 h 0.002 c 0.959418,0.690971 1.656117,1.692524 1.974609,2.830078 l 0.148438,0.541015 -0.132813,0.257813 0.242188,0.138672 0.07422,0.269531 0.263672,-0.07617 0.53125,0.304688 0.01953,0.0098 c 0.947643,0.446789 1.740868,1.161436 2.289062,2.056641 v 0.002 c 0.598753,0.967494 0.918863,2.087762 0.914063,3.224609 v 0.0039 0.002 c 0.0096,1.39802 -0.474474,2.755795 -1.359375,3.84375 -0.410602,0.49624 -0.90609,0.916048 -1.460938,1.234375 H 30.75 c -0.546724,0.316369 -1.152963,0.524461 -1.779297,0.605468 h -0.002 c -0.672382,0.09115 -1.169922,0.659482 -1.169922,1.337891 0,0.375655 0.207764,0.714343 0.490234,0.908203 0.282471,0.193861 0.634141,0.270826 0.998047,0.232422 h 0.0078 l 0.0078,-0.002 c 0.949967,-0.127961 1.86417,-0.436748 2.69336,-0.917969 L 32,28.220703 c 0.820111,-0.469348 1.542861,-1.08746 2.142578,-1.814453 l 0.002,-0.002 c 1.248974,-1.53051 1.931723,-3.453184 1.921875,-5.433594 0.0048,-1.597404 -0.438858,-3.167943 -1.279297,-4.527344 l -0.002,-0.002 c -0.763714,-1.243515 -1.87056,-2.224531 -3.164062,-2.882812 l 0.002,0.0098 c -0.0012,-0.0043 -0.0047,-0.0075 -0.0059,-0.01172 -0.06586,-0.03347 -0.116706,-0.08943 -0.183593,-0.121094 l 0.162109,0.07617 C 31.117835,11.856877 30.108593,10.403617 28.710937,9.3945313 27.240815,8.3262271 25.473592,7.7545786 23.654297,7.7636719 Z m 0,1 h 0.002 0.0039 c 1.608521,-0.00915 3.168214,0.4943837 4.46875,1.4394531 h 0.002 v 0.002 c 1.234306,0.890805 2.128859,2.175901 2.537109,3.642578 l 0.06641,0.232422 -0.478516,0.134766 -0.06445,-0.236328 v -0.002 c -0.379444,-1.355254 -1.208734,-2.546625 -2.353516,-3.371094 -1.215879,-0.8836857 -2.680412,-1.3560465 -4.18164,-1.3457034 -1.562076,-0.010318 -3.08402,0.5041764 -4.322266,1.4531254 -1.170822,0.894544 -1.984689,2.176184 -2.289063,3.615234 l -0.136718,0.539063 -0.484375,0.357421 0.02148,-0.01367 c -0.916799,0.609092 -1.666623,1.434314 -2.179687,2.406249 -0.546827,1.034294 -0.831721,2.185189 -0.832032,3.357422 -0.0112,1.632861 0.554443,3.214684 1.583985,4.480469 v 0.002 l 0.002,0.002 c 0.487143,0.589367 1.077417,1.087647 1.738281,1.466797 0.657569,0.380137 1.386484,0.629879 2.144531,0.728516 0.137762,0.01868 0.230276,0.137689 0.210938,0.28125 -0.0194,0.144048 -0.137262,0.233349 -0.275391,0.214844 -0.823967,-0.110989 -1.612984,-0.37931 -2.328125,-0.794922 h -0.002 l -0.002,-0.002 c -0.713293,-0.407682 -1.344885,-0.9461 -1.871094,-1.583985 -1.101978,-1.351366 -1.704445,-3.048124 -1.695312,-4.794922 v -0.002 c 0,-1.250356 0.303753,-2.481362 0.888672,-3.585937 0.554394,-1.048065 1.358671,-1.936341 2.345703,-2.587891 l 0.002,-0.002 0.302734,-0.201172 0.08008,-0.36914 h -0.002 c 0.333792,-1.554065 1.211305,-2.941652 2.472656,-3.90625 h 0.002 c 1.327998,-1.0196171 2.954058,-1.5657813 4.623046,-1.5566411 z m 7.136719,5.4726561 0.220703,0.103516 c 1.208384,0.572073 2.226091,1.481647 2.927735,2.625 l 0.002,0.002 c 0.743616,1.201975 1.135734,2.592136 1.130859,4.003906 v 0.002 0.002 c 0.0091,1.747715 -0.594208,3.445174 -1.697265,4.796875 C 32.843285,26.40843 32.212492,26.946292 31.5,27.353516 l -0.002,0.002 h -0.002 c -0.712088,0.413837 -1.498206,0.679166 -2.31836,0.791015 -0.149244,0.0139 -0.266556,-0.02231 -0.322265,-0.06055 -0.05675,-0.03895 -0.05664,-0.04959 -0.05664,-0.08398 0,-0.141696 0.162162,-0.328334 0.304688,-0.347656 0.758046,-0.09864 1.486962,-0.348378 2.144531,-0.728516 l 0.002,-0.002 c 0.659891,-0.378978 1.249774,-0.87619 1.736328,-1.464844 l 0.002,-0.002 v -0.002 c 1.029132,-1.26528 1.594724,-2.846348 1.583985,-4.478516 0.0049,-1.32412 -0.366757,-2.625145 -1.0625,-3.75 v -0.002 c -0.648795,-1.058926 -1.589938,-1.907136 -2.714844,-2.4375 l 0.03516,0.01758 -0.261719,-0.150391 z M 24,16.986328 c -0.44939,0 -0.840218,0.249196 -1.089844,0.582031 -0.210051,0.280069 -0.288411,0.648569 -0.324219,1.025391 l -2.292968,-1.052734 c -0.419344,-0.19274 -0.865628,-0.24519 -1.273438,-0.154297 -0.407809,0.09089 -0.794406,0.346521 -0.982422,0.755859 -0.188063,0.409442 -0.130411,0.86774 0.06641,1.236328 0.196817,0.368588 0.527783,0.672849 0.947265,0.865235 l 3.47461,1.597656 v 1.273437 L 20.365234,22.125 c -0.419344,-0.192739 -0.865598,-0.24517 -1.273437,-0.154297 -0.407839,0.09087 -0.794005,0.344863 -0.982422,0.753906 -0.188029,0.409367 -0.128464,0.869798 0.06836,1.238282 0.196823,0.368483 0.526126,0.672567 0.945313,0.865234 l 3.402344,1.5625 v 9.001953 h -3.632813 c -0.460164,0 -0.885915,0.137093 -1.21875,0.386719 -0.332835,0.249626 -0.580078,0.6385 -0.580078,1.08789 0,0.449391 0.247243,0.840218 0.580078,1.089844 0.332835,0.249627 0.758586,0.386719 1.21875,0.386719 h 10.214844 c 0.460164,0 0.885915,-0.137092 1.21875,-0.386719 0.332835,-0.249626 0.580078,-0.640453 0.580078,-1.089844 0,-0.44939 -0.247243,-0.838264 -0.580078,-1.08789 -0.332835,-0.249626 -0.758586,-0.386719 -1.21875,-0.386719 H 25.474609 V 24.054687 l 3.480469,-1.599609 c 0.419311,-0.192724 0.750494,-0.496618 0.947266,-0.865234 0.196771,-0.368617 0.25447,-0.826887 0.06641,-1.236328 -0.188126,-0.409577 -0.574504,-0.665224 -0.982422,-0.75586 -0.407918,-0.09063 -0.854161,-0.03646 -1.273437,0.15625 l -2.238282,1.027344 v -1.994141 c 0,-0.460163 -0.135139,-0.885914 -0.384765,-1.21875 C 24.840218,17.235524 24.44939,16.986328 24,16.986328 Z m 0,1 c 0.08868,0 0.185823,0.04399 0.289062,0.181641 0.10324,0.137653 0.185547,0.361875 0.185547,0.61914 v 3.554688 l 3.65625,-1.679688 c 0.232519,-0.10687 0.46969,-0.125437 0.638672,-0.08789 0.168983,0.03755 0.251696,0.109707 0.291016,0.195312 0.03938,0.08574 0.04051,0.196887 -0.04102,0.34961 -0.08152,0.152722 -0.249938,0.32088 -0.482422,0.427734 l -4.0625,1.867187 v 12.978516 h 4.632813 c 0.257265,0 0.481487,0.08231 0.61914,0.185547 0.137654,0.10324 0.179688,0.20038 0.179688,0.289062 0,0.08868 -0.04203,0.187776 -0.179688,0.291016 -0.137653,0.10324 -0.361875,0.185547 -0.61914,0.185547 H 18.892578 c -0.257265,0 -0.481487,-0.08231 -0.619141,-0.185547 -0.137653,-0.10324 -0.179687,-0.202333 -0.179687,-0.291016 0,-0.08868 0.04203,-0.185822 0.179687,-0.289062 0.137654,-0.10324 0.361876,-0.185547 0.619141,-0.185547 h 4.632813 V 25.75 l -3.984375,-1.832031 c -0.232609,-0.106912 -0.400949,-0.275204 -0.482422,-0.427735 -0.08147,-0.15253 -0.08043,-0.26184 -0.04102,-0.347656 0.03968,-0.08614 0.12407,-0.159632 0.292969,-0.197266 0.168899,-0.03763 0.404267,-0.01895 0.636719,0.08789 l 3.578125,1.642578 V 23.896484 21.201172 L 19.46875,19.335937 c -0.232312,-0.106544 -0.400943,-0.275145 -0.482422,-0.427734 -0.08148,-0.152588 -0.0804,-0.263868 -0.04102,-0.349609 0.03943,-0.08584 0.12225,-0.157698 0.291016,-0.195313 0.168766,-0.03761 0.406221,-0.01895 0.638672,0.08789 l 3.650391,1.675781 v -1.339844 c 0,-0.257265 0.08231,-0.481487 0.185546,-0.61914 C 23.814177,18.030316 23.911318,17.986328 24,17.986328 Z"
     id="path7" />
</svg>
