<?xml version="1.0" encoding="UTF-8" standalone="no"?>
<!-- Generator: Gravit.io -->

<svg
   style="isolation:isolate"
   viewBox="0 0 48 48"
   width="48pt"
   height="48pt"
   version="1.1"
   id="svg11"
   sodipodi:docname="thedarkmod.svg"
   inkscape:version="1.1.2 (0a00cf5339, 2022-02-04)"
   xmlns:inkscape="http://www.inkscape.org/namespaces/inkscape"
   xmlns:sodipodi="http://sodipodi.sourceforge.net/DTD/sodipodi-0.dtd"
   xmlns:xlink="http://www.w3.org/1999/xlink"
   xmlns="http://www.w3.org/2000/svg"
   xmlns:svg="http://www.w3.org/2000/svg">
  <defs
     id="defs15">
    <linearGradient
       inkscape:collect="always"
       xlink:href="#_lgradient_18"
       id="linearGradient872"
       x1="-12.025727"
       y1="6.1170783"
       x2="-0.085100174"
       y2="6.1170783"
       gradientUnits="userSpaceOnUse"
       gradientTransform="matrix(3.8358211,0,0,3.8371386,-0.00544341,-0.00268054)" />
    <linearGradient
       inkscape:collect="always"
       xlink:href="#_lgradient_18"
       id="linearGradient15"
       x1="-9.6850061"
       y1="45.161198"
       x2="11.98815"
       y2="21.735205"
       gradientUnits="userSpaceOnUse"
       gradientTransform="matrix(1.1147442,0,0,1.1150348,-0.01237238,-3.3277956)" />
    <linearGradient
       inkscape:collect="always"
       xlink:href="#_lgradient_18"
       id="linearGradient999"
       x1="9.9077368"
       y1="24"
       x2="38.092262"
       y2="24"
       gradientUnits="userSpaceOnUse" />
  </defs>
  <sodipodi:namedview
     id="namedview13"
     pagecolor="#ffffff"
     bordercolor="#666666"
     borderopacity="1.0"
     inkscape:pageshadow="2"
     inkscape:pageopacity="0.0"
     inkscape:pagecheckerboard="0"
     inkscape:document-units="pt"
     showgrid="false"
     inkscape:zoom="5.109375"
     inkscape:cx="32"
     inkscape:cy="32"
     inkscape:window-width="1056"
     inkscape:window-height="545"
     inkscape:window-x="279"
     inkscape:window-y="97"
     inkscape:window-maximized="0"
     inkscape:current-layer="svg11" />
  <linearGradient
     id="_lgradient_18"
     x1="0"
     y1="0.5"
     x2="1"
     y2="0.5"
     gradientTransform="matrix(28.184526,0,0,28.184526,9.9077373,9.9077373)"
     gradientUnits="userSpaceOnUse">
    <stop
       offset="0%"
       stop-opacity="1"
       style="stop-color:rgb(220,80,141)"
       id="stop2" />
    <stop
       offset="50.416666666666664%"
       stop-opacity="1"
       style="stop-color:rgb(245,139,123)"
       id="stop4" />
    <stop
       offset="97.91666666666666%"
       stop-opacity="1"
       style="stop-color:rgb(249,172,80)"
       id="stop6" />
  </linearGradient>
  <rect
     x="-46.783188"
     y="1.2253767"
     height="45.80014"
     rx="6.1837621"
     shape-rendering="crispEdges"
     id="rect5-6-7-3"
     ry="6.8055277"
     transform="matrix(0.00524063,-0.99998627,0.99998801,0.00489691,0,0)"
     style="isolation:isolate;fill:#ffc600;fill-opacity:0.13470298;stroke:url(#linearGradient872);stroke-width:2.0301;stroke-miterlimit:4;stroke-dasharray:none;stroke-opacity:1"
     width="45.801998" />
  <rect
     x="-15.686804"
     y="17.260084"
     height="33.345856"
     rx="6.7920032"
     shape-rendering="crispEdges"
     id="rect5-6-6-6-6"
     style="isolation:isolate;fill:#ffc600;fill-opacity:0.13470298;stroke:url(#linearGradient15);stroke-width:1.67233;stroke-miterlimit:4;stroke-dasharray:none;stroke-opacity:1"
     ry="7.4743071"
     transform="matrix(0.72446484,-0.68931175,0.68622417,0.72739012,0,0)"
     width="33.338203" />
  <path
     style="color:#000000;fill:url(#linearGradient999);fill-rule:evenodd;-inkscape-stroke:none"
     d="m 24.304687,9.6328125 -0.201171,1.9414065 c -0.291669,-0.0033 -0.583783,0.0024 -0.875,0.01953 l -0.304688,-1.9238281 -2.345703,0.3750001 0.03906,0.246094 0.265625,1.68164 c -0.281725,0.07283 -0.56007,0.155734 -0.835937,0.248047 l -0.794922,-1.783203 -2.169922,0.966797 0.798828,1.789062 c -0.253671,0.143918 -0.503008,0.295572 -0.746093,0.457032 l -1.232422,-1.521485 -1.84375,1.496094 1.224609,1.509766 c -0.207957,0.205449 -0.408472,0.416911 -0.601562,0.636718 l -1.576172,-1.142578 -1.394531,1.921875 1.583984,1.150391 c -0.147345,0.250024 -0.286257,0.505788 -0.416016,0.765625 l -1.826172,-0.699219 -0.851562,2.216797 1.826172,0.701172 c -0.07708,0.280199 -0.143813,0.563059 -0.201172,0.847656 l -1.9472657,-0.201172 -0.2460938,2.363281 1.9414065,0.201172 c -0.0033,0.291669 0.0024,0.583783 0.01953,0.875 l -1.9238281,0.304688 0.3750001,2.345703 1.927734,-0.304688 c 0.07283,0.281726 0.155734,0.560071 0.248047,0.835938 l -1.783203,0.794922 0.966797,2.169922 1.789062,-0.798828 c 0.143918,0.253671 0.295572,0.503008 0.457032,0.746093 l -1.521485,1.232422 1.496094,1.84375 1.509766,-1.224609 c 0.205449,0.207957 0.416911,0.408472 0.636718,0.601562 l -1.142578,1.576172 1.921875,1.394531 1.150391,-1.583984 c 0.250024,0.147345 0.505788,0.286257 0.765625,0.416016 l -0.699219,1.826172 2.216797,0.851562 0.701172,-1.826172 c 0.280199,0.07708 0.563059,0.143813 0.847656,0.201172 l -0.201172,1.947266 2.363281,0.246093 0.201172,-1.941406 c 0.291669,0.0033 0.583783,-0.0024 0.875,-0.01953 l 0.304688,1.923828 2.345703,-0.375 -0.304688,-1.927734 c 0.281726,-0.07283 0.560071,-0.155734 0.835938,-0.248047 l 0.794922,1.783203 2.169922,-0.966797 -0.798828,-1.789062 c 0.253671,-0.143918 0.503008,-0.295572 0.746093,-0.457032 l 1.232422,1.521485 1.84375,-1.496094 -1.224609,-1.509766 c 0.207957,-0.205449 0.408472,-0.416911 0.601562,-0.636718 l 1.576172,1.142578 1.394531,-1.921875 -1.583984,-1.150391 c 0.147345,-0.250024 0.286257,-0.505788 0.416016,-0.765625 l 1.826172,0.699219 0.851562,-2.216797 -1.826172,-0.701172 c 0.07708,-0.280199 0.143813,-0.563059 0.201172,-0.847656 l 1.947266,0.201172 0.246093,-2.363282 -1.941406,-0.201171 c 0.0033,-0.291669 -0.0024,-0.583783 -0.01953,-0.875 l 1.923828,-0.304688 -0.375,-2.345703 -1.927734,0.304687 c -0.07283,-0.281725 -0.155734,-0.56007 -0.248047,-0.835937 l 1.783203,-0.794922 -0.966797,-2.169922 -1.789062,0.798828 c -0.143918,-0.253671 -0.295572,-0.503008 -0.457032,-0.746093 l 1.521485,-1.232422 -1.496094,-1.84375 -1.509766,1.224609 c -0.205449,-0.207957 -0.416911,-0.408472 -0.636718,-0.601562 l 1.142578,-1.576172 -1.921875,-1.394531 -1.150391,1.583984 C 30.048804,13.147577 29.79304,13.008665 29.533203,12.878906 l 0.699219,-1.826172 -2.216797,-0.851562 -0.701172,1.826172 c -0.280199,-0.07708 -0.563059,-0.143813 -0.847656,-0.201172 l 0.201172,-1.9472657 z m 0.447266,0.5488285 1.367188,0.144531 -0.197266,1.894531 0.226562,0.04297 c 0.421441,0.07668 0.840163,0.175363 1.251954,0.296875 l 0.220703,0.06641 0.68164,-1.779297 1.283203,0.492188 -0.68164,1.779297 0.208984,0.09961 c 0.386479,0.184037 0.764383,0.38929 1.128906,0.613281 l 0.197266,0.121094 1.121094,-1.544922 1.113281,0.808594 -1.115234,1.537109 0.175781,0.150391 c 0.328005,0.277119 0.641021,0.571602 0.9375,0.882812 l 0.160156,0.167969 1.46875,-1.193359 0.867188,1.068359 -1.482422,1.201172 0.130859,0.191406 c 0.243487,0.352045 0.467543,0.717606 0.671875,1.09375 l 0.111328,0.203125 1.742188,-0.777344 0.560547,1.25586 -1.738282,0.77539 0.07813,0.216797 c 0.143636,0.404511 0.265888,0.815409 0.365235,1.232422 l 0.05469,0.226563 1.878907,-0.298828 0.216796,1.357421 -1.875,0.298829 0.01953,0.230468 c 0.03309,0.427528 0.04218,0.856177 0.0293,1.285157 l -0.0078,0.232421 1.894531,0.197266 -0.144531,1.367188 -1.894531,-0.197266 -0.04297,0.226562 c -0.07668,0.421441 -0.175363,0.840163 -0.296875,1.251954 l -0.06641,0.220703 1.779297,0.68164 -0.492188,1.283203 -1.779297,-0.68164 -0.09961,0.208984 c -0.184037,0.386479 -0.38929,0.764383 -0.613281,1.128906 l -0.121094,0.197266 1.544922,1.121094 -0.808594,1.113281 -1.537109,-1.115234 -0.150391,0.175781 c -0.277119,0.328005 -0.571602,0.641021 -0.882812,0.9375 l -0.167969,0.160156 1.193359,1.46875 -1.068359,0.867188 -1.201172,-1.482422 -0.191406,0.130859 c -0.352045,0.243487 -0.717606,0.467543 -1.09375,0.671875 l -0.203125,0.111328 0.777343,1.742188 -1.255859,0.560547 -0.775391,-1.738282 -0.216796,0.07813 c -0.404511,0.143636 -0.815409,0.265888 -1.232422,0.365235 l -0.226563,0.05469 0.298828,1.878907 -1.357422,0.216796 -0.298828,-1.875 -0.230468,0.01953 c -0.427528,0.03309 -0.856177,0.04218 -1.285157,0.0293 l -0.232422,-0.0078 -0.197265,1.894531 -1.367188,-0.144531 0.197266,-1.894531 -0.226563,-0.04297 c -0.42144,-0.07668 -0.840162,-0.175363 -1.251953,-0.296875 l -0.220703,-0.06641 -0.68164,1.779297 -1.283204,-0.492188 0.681641,-1.779297 -0.208984,-0.09961 C 18.50024,34.597213 18.122336,34.39196 17.757812,34.167969 l -0.197265,-0.121094 -1.121094,1.544922 -1.113281,-0.808594 1.115234,-1.537109 -0.175781,-0.150391 c -0.328005,-0.277119 -0.641021,-0.571602 -0.9375,-0.882812 l -0.160156,-0.167969 -1.46875,1.193359 -0.867188,-1.068359 1.482422,-1.201172 -0.130859,-0.191406 c -0.243487,-0.352045 -0.467543,-0.717606 -0.671875,-1.09375 l -0.111328,-0.203125 -1.742188,0.777343 -0.560547,-1.255859 1.738282,-0.775391 -0.07813,-0.216796 c -0.143636,-0.404511 -0.265888,-0.815409 -0.365235,-1.232422 l -0.05469,-0.226563 -1.878907,0.298828 -0.216796,-1.357422 1.875,-0.298828 -0.01953,-0.230468 c -0.03309,-0.427528 -0.04218,-0.856177 -0.0293,-1.285157 l 0.0078,-0.232422 -1.894531,-0.197265 0.144531,-1.367188 1.894531,0.197266 0.04297,-0.226563 c 0.07668,-0.42144 0.175363,-0.840162 0.296875,-1.251953 l 0.06641,-0.220703 -1.779297,-0.68164 0.492188,-1.283204 1.779297,0.681641 0.09961,-0.208984 c 0.184037,-0.386479 0.38929,-0.764383 0.613281,-1.128907 l 0.121094,-0.197265 -1.544922,-1.121094 0.808594,-1.113281 1.537109,1.115234 0.150391,-0.175781 c 0.277119,-0.328005 0.571602,-0.641021 0.882812,-0.9375 l 0.167969,-0.160156 -1.193359,-1.46875 1.068359,-0.867188 1.201172,1.482422 0.191406,-0.130859 c 0.352045,-0.243487 0.717606,-0.467543 1.09375,-0.671875 l 0.203125,-0.111328 -0.777344,-1.742188 1.25586,-0.560547 0.77539,1.738282 0.216797,-0.07813 c 0.404511,-0.143636 0.815409,-0.265888 1.232422,-0.365235 l 0.226563,-0.05469 -0.300782,-1.878907 1.359375,-0.216796 0.298829,1.875 0.230468,-0.01953 c 0.427528,-0.03309 0.856177,-0.04218 1.285157,-0.0293 l 0.232421,0.0078 z m -0.666016,3.25 c -0.580818,-0.0051 -1.165063,0.03851 -1.746093,0.130859 -0.156937,0.02454 -0.309378,0.05385 -0.460938,0.08203 l -0.07227,0.01367 -0.05469,0.04883 c -0.06646,0.06243 -0.130635,0.128913 -0.193359,0.199219 l -0.205078,0.228516 2.066406,1.195312 0.982422,-1.701172 0.335937,0.296875 -0.935547,1.625 2.064453,1.191406 0.0957,-0.291015 c 0.162197,-0.482447 0.179074,-1.002251 0.04883,-1.494141 -0.112827,-0.417223 -0.373845,-0.76631 -0.669922,-1.078125 l 0.148437,-0.255859 H 24.40625 l 0.107422,-0.1875 z m 1.777344,0.175781 0.251953,0.46875 c 0.06433,0.11956 0.122889,0.238184 0.173828,0.357422 l 0.08594,0.199219 0.910156,-0.244141 0.115235,0.423828 -0.910157,0.244141 0.02539,0.214843 c 0.02836,0.238448 0.02836,0.47835 0,0.716797 l -0.02539,0.214844 0.910157,0.244141 -0.115235,0.425781 -0.90625,-0.244141 -0.08594,0.197266 c -0.09554,0.220022 -0.214997,0.428561 -0.359375,0.61914 l -0.132813,0.173829 0.669922,0.666015 -0.3125,0.3125 -0.666016,-0.664062 -0.173828,0.126953 c -0.192383,0.142548 -0.399413,0.263749 -0.61914,0.357422 L 24.5,18.501953 l 0.244141,0.914063 -0.425782,0.113281 -0.103515,-0.384766 v -0.0957 h -0.02539 l -0.115234,-0.431641 -0.214844,0.02734 c -0.237733,0.02893 -0.478344,0.02776 -0.716797,0 l -0.214844,-0.02344 -0.117187,0.435547 h -0.03711 l 0.002,0.134765 -0.0918,0.337891 -0.423828,-0.113281 0.242187,-0.90625 -0.199219,-0.08594 C 22.083711,18.328475 21.876786,18.206799 21.685547,18.0625 l -0.171875,-0.130859 -0.669922,0.666015 -0.310547,-0.310547 0.666016,-0.667968 -0.128907,-0.171875 C 20.927333,17.255177 20.808573,17.04661 20.714844,16.826172 l -0.08594,-0.199219 -0.914062,0.244141 -0.113282,-0.423828 0.910157,-0.244141 -0.02539,-0.214844 c -0.02835,-0.237774 -0.02833,-0.477788 0,-0.714843 l 0.02539,-0.214844 -0.908203,-0.244141 0.113281,-0.423828 0.904297,0.240234 0.08594,-0.197265 c 0.0027,-0.0062 0.0035,-0.007 0.0039,-0.0078 l 0.214844,-0.382812 -0.439453,0.01172 c -0.07212,0.0019 -0.12292,0.02237 -0.142578,0.0293 l -0.765625,0.269532 0.05273,0.01367 -0.392578,0.197265 c -1.489575,0.751845 -2.794848,1.853213 -3.792968,3.228516 -1.646013,2.268879 -2.323511,5.099197 -1.882813,7.867187 0.864296,5.433911 5.733153,9.240141 11.119141,8.886719 l 0.390625,-0.02539 -0.189454,-0.34375 -0.253906,-0.46289 0.824219,-0.455078 -0.07617,-0.203125 c -0.0838,-0.223646 -0.140969,-0.455368 -0.169922,-0.69336 l -0.02539,-0.216797 -0.945313,-0.01758 0.0078,-0.439453 0.943359,0.01758 0.03516,-0.21289 c 0.03877,-0.236115 0.104077,-0.468347 0.197266,-0.689454 l 0.08398,-0.199218 -0.80664,-0.486328 0.228515,-0.376954 0.802735,0.484375 0.136718,-0.166015 c 0.152951,-0.184235 0.328022,-0.348699 0.519532,-0.492188 l 0.173828,-0.130859 -0.457032,-0.828125 0.386719,-0.212891 0.455078,0.824219 0.203125,-0.07422 c 0.223649,-0.08379 0.455365,-0.140965 0.69336,-0.169922 l 0.216797,-0.02734 0.01758,-0.94336 0.439453,0.0078 -0.01758,0.941406 0.21289,0.03516 c 0.23612,0.03877 0.466892,0.106575 0.6875,0.199219 l 0.199219,0.08398 0.488281,-0.80664 0.376953,0.228515 -0.484375,0.802735 0.166016,0.136719 c 0.184672,0.152832 0.348699,0.326067 0.492188,0.517578 l 0.130859,0.175781 0.828125,-0.457031 0.212891,0.386718 -0.824219,0.455079 0.07422,0.201171 c 0.04055,0.108905 0.07718,0.222927 0.113281,0.341797 l 0.123047,0.408203 0.294922,-0.30664 c 0.177437,-0.184142 0.340977,-0.382865 0.505859,-0.580078 l 0.0098,0.01953 0.208984,-0.271484 0.02344,-0.0293 c 0.07417,-0.09527 0.147359,-0.190653 0.21875,-0.289063 0.120081,-0.165672 0.234355,-0.333735 0.34375,-0.503906 l 0.05859,-0.09375 -0.310547,-1.164063 -0.195312,0.002 c -0.152042,0.0016 -0.303228,-0.01663 -0.449219,-0.05664 l -0.1875,-0.05078 -0.46875,0.816406 -0.382812,-0.220703 0.472656,-0.81836 -0.136719,-0.134765 C 31.191021,27.87624 31.097933,27.755176 31.023437,27.623047 l -0.0957,-0.169922 -0.912109,0.244141 -0.115234,-0.421875 0.916015,-0.248047 -0.0039,-0.19336 c -0.0022,-0.152193 0.01646,-0.300668 0.05664,-0.447265 l 0.05273,-0.1875 -0.818359,-0.470703 0.220703,-0.38086 0.818359,0.472656 0.136719,-0.138671 c 0.106186,-0.107811 0.226735,-0.200067 0.359375,-0.275391 l 0.167969,-0.0957 -0.246094,-0.91211 0.425781,-0.113281 0.244141,0.91211 0.195312,-0.002 c 0.152042,-0.0016 0.303228,0.01663 0.449219,0.05664 l 0.1875,0.05273 0.46875,-0.818359 0.382812,0.220703 -0.472656,0.81836 0.136719,0.136718 c 0.107808,0.106184 0.200895,0.227246 0.275391,0.359375 l 0.0957,0.167969 0.414062,-0.111328 0.0293,-0.154297 c 0.06487,-0.350643 -0.01548,-0.715887 0.01367,-1.072266 l 0.189453,-0.328125 -0.183594,-0.105468 c 0.02814,-0.693645 0.136239,-1.382535 0.02539,-2.078125 -0.440058,-2.768002 -1.962219,-5.248511 -4.230469,-6.894531 -0.713718,-0.517518 -1.499095,-0.901068 -2.304687,-1.222657 l 0.117187,-0.03125 -0.605469,-0.195312 -0.259765,-0.09375 0.0039,0.01563 c -0.252856,-0.07967 -0.509444,-0.152036 -0.773437,-0.205078 z m -2.232422,0.357422 -0.394531,0.68164 -0.972656,-0.5625 c 0.05112,-0.0089 0.10362,-0.01942 0.154297,-0.02734 0.403714,-0.06417 0.808939,-0.07701 1.21289,-0.0918 z m -3.138672,0.152344 0.01758,0.4375 c 0.02292,-0.0081 0.01349,-6e-4 -0.0098,0 l -0.207031,-0.34375 z m 4.578125,0.232421 c 0.185117,0.227243 0.381736,0.452623 0.458985,0.738282 0.07517,0.284974 0.01902,0.576831 -0.02734,0.865234 l -1.017578,-0.585937 z m -3.935546,0.167969 -0.09766,0.291016 c -0.161457,0.482996 -0.175899,1.0028 -0.04492,1.49414 0.13233,0.491905 0.405057,0.934502 0.78711,1.271485 l 0.230469,0.203125 1.191406,-2.06836 z m 6.77539,0.269531 c 0.694129,0.294737 1.381912,0.612908 2.001953,1.0625 2.1611,1.568265 3.611994,3.931201 4.03125,6.56836 0.09158,0.574672 -0.01324,1.142539 -0.02148,1.716797 l -0.572266,-0.330079 -0.542968,0.939454 c -0.06173,-0.01063 -0.123298,-0.01827 -0.185547,-0.02344 l -0.265625,-0.992187 h -0.22461 l -1.183593,0.314453 0.283203,1.052734 c -0.05059,0.03536 -0.09906,0.07363 -0.146485,0.113281 l -0.943359,-0.544922 -0.71875,1.246094 0.941406,0.544922 c -0.01053,0.0611 -0.02031,0.121814 -0.02539,0.183594 l -1.050782,0.283203 0.353516,1.310547 -0.261719,0.433594 c -0.122964,-0.04283 -0.248023,-0.07831 -0.375,-0.107422 l 0.01953,-1.035157 -1.402343,-0.02734 -0.451172,-0.445313 c 0.0584,-0.08335 0.113382,-0.168765 0.166015,-0.255859 l 0.941407,0.382812 0.541015,-1.333984 -0.9375,-0.382813 c 0.02216,-0.100522 0.04156,-0.201102 0.05664,-0.302734 l 1.013672,-0.0039 -0.0078,-1.441406 -1.015625,0.0078 c -0.01745,-0.100286 -0.03838,-0.199865 -0.0625,-0.298828 l 0.935547,-0.394531 -0.558594,-1.326172 -0.935546,0.394531 c -0.05445,-0.08648 -0.111706,-0.171325 -0.171875,-0.253906 l 0.71289,-0.722656 -1.023437,-1.011719 -0.712891,0.722656 c -0.08335,-0.0584 -0.168765,-0.113382 -0.255859,-0.166016 l 0.382812,-0.941406 -0.871094,-0.353515 0.05469,-0.134766 -0.195313,0.05273 -0.138671,-0.521484 c 0.116152,-0.05849 0.228903,-0.122559 0.33789,-0.193359 l 0.732422,0.732421 1.019531,-1.019531 -0.734375,-0.732422 c 0.07181,-0.108707 0.138032,-0.219992 0.197266,-0.335937 l 0.998047,0.269531 0.375,-1.394531 -1.001953,-0.265625 c 0.0073,-0.1312 0.0073,-0.261379 0,-0.392578 l 1.001953,-0.265625 z m -8.75,0.423829 0.830078,0.226562 c -0.0072,0.129795 -0.0072,0.258764 0,0.388672 l -1.001953,0.267578 0.375,1.390625 1.001953,-0.269531 c 0.05822,0.115905 0.122677,0.22915 0.19336,0.33789 l -0.732422,0.732422 1.017578,1.019531 0.734375,-0.730468 c 0.108476,0.07165 0.220126,0.137912 0.335937,0.197265 l -0.152343,0.564453 -1,0.421875 0.394531,0.935547 c -0.08658,0.05438 -0.171289,0.111703 -0.253906,0.171875 l -0.722657,-0.71289 -1.011718,1.023437 0.722656,0.712891 c -0.0584,0.08335 -0.113382,0.168765 -0.166016,0.255859 l -0.941406,-0.382812 -0.541016,1.333984 0.9375,0.382813 c -0.02218,0.100546 -0.04156,0.201024 -0.05664,0.302734 l -1.013672,0.0039 0.0078,1.441406 1.015625,-0.0078 c 0.01745,0.100275 0.03837,0.199953 0.0625,0.298828 l -0.935546,0.394531 0.558593,1.326172 0.935547,-0.394531 c 0.05445,0.08648 0.111706,0.171325 0.171875,0.253906 l -0.71289,0.722656 1.023437,1.009766 0.712891,-0.720703 c 0.08335,0.0584 0.168765,0.113382 0.255859,0.166016 l -0.382812,0.941406 1.333984,0.541015 0.382812,-0.9375 c 0.100547,0.02218 0.201025,0.04156 0.302735,0.05664 l 0.0039,1.013672 1.412109,-0.0078 -0.246093,0.40625 0.886718,0.535157 c -0.0431,0.12335 -0.0802,0.247791 -0.109375,0.375 l -1.035156,-0.01953 -0.02734,1.439454 1.03711,0.01953 c 0.02382,0.12823 0.0539,0.254125 0.0918,0.378906 l -0.90625,0.5 0.263672,0.478516 c -4.950488,0.103117 -9.356203,-3.384088 -10.15625,-8.414063 -0.41987,-2.637168 0.224694,-5.332417 1.792968,-7.49414 0.878548,-1.210544 2.024978,-2.168769 3.310547,-2.876953 z m 2.341797,0.0957 1.015625,0.585937 -0.585937,1.017578 c -0.18443,-0.227061 -0.380258,-0.450939 -0.457032,-0.736328 -0.07599,-0.285076 -0.01873,-0.577899 0.02734,-0.867187 z m 2.080078,0.623047 -0.125,0.216796 -1.068359,1.851563 0.289062,0.0957 c 0.482997,0.161456 1.002288,0.177805 1.494141,0.04687 h 0.002 c 0.491281,-0.132348 0.933977,-0.407201 1.271484,-0.789063 l 0.201172,-0.228515 z m 0.181641,0.683593 1.017578,0.585938 c -0.227169,0.184645 -0.451522,0.382013 -0.736328,0.458984 -0.285132,0.0759 -0.578321,0.01846 -0.867188,-0.02734 z m -0.04687,2.9375 0.0059,0.947266 0.22461,0.02148 c 0.224695,0.02182 0.4473,0.06313 0.664062,0.123047 l 0.214844,0.05859 0.353515,-0.869141 0.40625,0.166016 -0.355468,0.875 0.197265,0.107422 c 0.198696,0.106718 0.388321,0.228611 0.566407,0.367187 l 0.175781,0.136719 0.658203,-0.667969 0.3125,0.308594 -0.662109,0.669922 0.140625,0.173828 c 0.141535,0.175149 0.268674,0.362298 0.378906,0.558594 l 0.109375,0.195312 0.867187,-0.367187 0.171875,0.40625 -0.871093,0.365234 0.06445,0.214844 c 0.06425,0.21573 0.11091,0.438265 0.138672,0.662109 l 0.02734,0.220703 0.941407,-0.0078 0.002,0.439453 -0.947266,0.0059 -0.02148,0.22461 c -0.02182,0.224655 -0.06305,0.446415 -0.123047,0.664062 l -0.05859,0.214844 0.869141,0.353516 -0.166016,0.40625 -0.875,-0.355469 -0.107422,0.197265 c -0.106717,0.198696 -0.22861,0.388321 -0.367187,0.566407 l -0.136719,0.173828 0.667969,0.660156 -0.308594,0.3125 -0.0059,-0.0059 -0.664063,-0.65625 -0.173828,0.140625 c -0.175149,0.141535 -0.362663,0.269467 -0.558594,0.378906 l -0.195312,0.107422 0.154297,0.363281 -0.0098,0.0059 0.04883,0.08789 0.173828,0.412109 -0.40625,0.171875 -0.367187,-0.871093 -0.214844,0.06445 c -0.214953,0.06419 -0.436316,0.110913 -0.660156,0.138672 l -0.220703,0.02734 0.0078,0.941407 -0.439453,0.002 -0.0059,-0.947266 -0.22461,-0.02148 c -0.224695,-0.02182 -0.4473,-0.06313 -0.664062,-0.123047 l -0.214844,-0.05859 -0.353516,0.869141 -0.40625,-0.166016 0.357422,-0.875 -0.199219,-0.107422 c -0.198695,-0.106717 -0.388319,-0.228611 -0.566406,-0.367187 l -0.173828,-0.136719 -0.660156,0.667969 -0.3125,-0.308594 0.662109,-0.669922 -0.140625,-0.173828 C 20.299871,26.795554 20.172732,26.608405 20.0625,26.412109 l -0.109375,-0.195312 -0.867188,0.367187 -0.171875,-0.40625 0.871094,-0.367187 -0.06445,-0.214844 c -0.06419,-0.214954 -0.110913,-0.436316 -0.138672,-0.660156 l -0.02734,-0.220703 -0.941406,0.0078 -0.002,-0.439453 0.947266,-0.0059 0.02148,-0.22461 c 0.02182,-0.224695 0.06313,-0.4473 0.123047,-0.664062 l 0.05859,-0.214844 -0.869141,-0.353516 0.166016,-0.40625 0.875,0.357422 0.107422,-0.199218 c 0.106717,-0.198696 0.228611,-0.38832 0.367187,-0.566407 l 0.136719,-0.173828 -0.667969,-0.660156 0.308594,-0.3125 0.669922,0.662109 0.173828,-0.140625 c 0.175149,-0.141535 0.362663,-0.269467 0.558594,-0.378906 l 0.195312,-0.107422 -0.367187,-0.86914 0.404296,-0.171875 0.195313,0.46875 0.002,-0.0059 0.171875,0.408203 0.214844,-0.06445 c 0.214954,-0.06419 0.436316,-0.110913 0.660156,-0.138672 l 0.220703,-0.02734 -0.0078,-0.941407 z m -1.300781,0.423828 0.363281,0.09766 c -0.09964,0.01738 -0.198619,0.03852 -0.296875,0.0625 z m 2.164062,0.002 -0.05859,0.142579 c -0.09279,-0.02047 -0.185498,-0.03832 -0.279297,-0.05273 z m -1.054687,0.953125 -0.01953,0.002 h 0.01758 0.0098 c -0.04603,0 -0.06551,0.0074 -0.06641,0.0078 -0.28042,0.0064 -0.560425,0.03869 -0.832031,0.111328 l 0.230468,0.05469 -0.396484,0.285156 1.179687,2.791016 3.058594,-1.291016 -0.148437,-0.246094 c -0.384169,-0.638932 -0.961141,-1.139847 -1.646485,-1.43164 -0.433983,-0.184642 -0.90108,-0.281804 -1.373047,-0.283204 z m -1.53125,0.466797 -0.175782,0.0098 -0.06055,0.0039 -0.05273,0.03125 c -0.638933,0.384169 -1.139847,0.961142 -1.431641,1.646485 -0.184641,0.433983 -0.281803,0.90108 -0.283203,1.373046 v 0.01953 l 0.0039,0.01953 c 3e-4,0.0019 -0.0015,-0.008 -0.002,-0.02148 0.0028,0.298663 0.04172,0.597239 0.119141,0.886718 l 0.07422,0.277344 3.05664,-1.289062 z m 1.533203,0.03516 h 0.0059 0.01367 c 0.401472,0.0025 0.800284,0.08297 1.169922,0.240234 0.488533,0.207999 0.853282,0.601105 1.171875,1.021484 l -1.97461,0.833985 -0.857421,-2.03125 c 0.156319,-0.02569 0.311813,-0.06338 0.470703,-0.06445 z m -1.773438,0.679687 0.833985,1.974609 -2.03125,0.857422 c -0.02565,-0.15577 -0.06293,-0.310282 -0.06445,-0.46875 0,-0.0065 -0.0017,-0.0064 -0.002,-0.01172 v -0.0039 c 0.0017,-0.403573 0.08412,-0.804245 0.242188,-1.175781 0.207999,-0.488533 0.601105,-0.853282 1.021484,-1.171875 z m 5.121094,1.185547 -2.826172,1.193359 0.230469,0.152344 -0.382813,0.07617 v 0.376953 l 0.117188,-0.04883 1.095703,2.599609 0.246094,-0.148437 c 0.638932,-0.384169 1.139847,-0.961141 1.43164,-1.646485 0.184642,-0.433983 0.281804,-0.90108 0.283203,-1.373046 v -0.01367 l -0.002,-0.01953 v 0.01758 c -0.0027,-0.299315 -0.04155,-0.598567 -0.11914,-0.888672 z m -0.371094,0.699219 c 0.02576,0.156408 0.06302,0.311581 0.06445,0.470703 1.76e-4,0.01752 0,0.03528 0,0.0059 v 0.01367 c -0.0025,0.401472 -0.08297,0.800284 -0.240234,1.169922 -0.207999,0.488533 -0.601105,0.853282 -1.021484,1.171875 l -0.833985,-1.976563 z m -3.089844,0.761718 -2.955078,1.246094 0.0078,0.173828 0.002,0.0625 0.0332,0.05469 c 0.384169,0.638933 0.961142,1.139847 1.646484,1.43164 0.433984,0.184642 0.901081,0.281804 1.373047,0.283204 h 0.01953 l 0.01953,-0.0039 c 0.0019,-3e-4 -0.008,0.0015 -0.02148,0.002 0.298665,-0.0028 0.59724,-0.04172 0.886719,-0.11914 l 0.277344,-0.07422 z m -0.267578,0.654297 0.857422,2.03125 c -0.156408,0.02576 -0.311581,0.06302 -0.470703,0.06445 -0.0053,4.7e-5 -0.0053,0.0017 -0.0098,0.002 -0.0013,-4e-6 -0.0026,5e-6 -0.0039,0 -0.403573,-0.0017 -0.804246,-0.08412 -1.175781,-0.242188 -0.488533,-0.207999 -0.853282,-0.601105 -1.171875,-1.021484 z m 9.308594,0.216797 c -0.653659,0 -1.189453,0.53513 -1.189453,1.189453 0,0.653861 0.535593,1.189454 1.189453,1.189453 0.654324,0 1.189453,-0.535794 1.189453,-1.189453 0,-0.654122 -0.53533,-1.189453 -1.189453,-1.189453 z m 0,0.5 c 0.384321,0 0.689453,0.305133 0.689453,0.689453 0,0.38353 -0.305334,0.689453 -0.689453,0.689453 -0.383329,0 -0.689453,-0.306124 -0.689453,-0.689453 0,-0.384119 0.305923,-0.689453 0.689453,-0.689453 z m -1.744141,1.900391 c 0.03569,0.05126 0.07316,0.100466 0.113282,0.148437 l -0.06445,0.113282 -0.316407,-0.189454 z m -3.138671,0.05664 -0.0078,0.447266 c -0.127927,0.02381 -0.254415,0.05397 -0.378906,0.0918 l -0.05273,-0.09375 z m -2.994141,0.71875 0.134766,0.322266 -0.425782,0.707031 -0.0078,-0.966797 c 0.100275,-0.01745 0.199953,-0.03837 0.298828,-0.0625 z m 7.492187,0.09375 c 0.06173,0.01063 0.123298,0.01827 0.185547,0.02344 l 0.160157,0.599609 c -0.08007,0.121945 -0.16063,0.242506 -0.246094,0.361328 L 31.84375,29.291016 Z m -1.412109,0.439454 0.423828,0.24414 -0.199219,0.111328 c -0.08473,-0.0994 -0.174282,-0.193766 -0.269531,-0.283203 z m -4.771484,0.01758 c -0.08528,0.07483 -0.168397,0.151776 -0.246094,0.234375 l -0.126953,-0.07617 z m 2.380859,0.0332 c -0.509251,-0.009 -1.009389,0.132131 -1.439453,0.404297 l -0.259766,0.162109 1.654297,1.720703 1.71875,-1.654297 -0.25,-0.173828 c -0.419168,-0.289607 -0.915003,-0.44858 -1.423828,-0.458984 z m -0.0098,0.5 c 0.294621,0.006 0.559391,0.141124 0.824219,0.265625 l -0.845703,0.814453 -0.814453,-0.845703 c 0.270139,-0.114494 0.539999,-0.239609 0.835937,-0.234375 z m -2.003906,0.373047 -0.173828,0.25 c -0.289607,0.419167 -0.450533,0.915003 -0.460937,1.423828 -0.009,0.509252 0.131252,1.009789 0.404296,1.439453 l 0.164063,0.257812 1.71875,-1.652343 z m 3.992188,0.07617 -1.71875,1.654296 0.986328,1.025391 0.173828,-0.109375 c 0.359852,-0.229638 0.705,-0.480778 1.035156,-0.751953 l 0.0918,-0.07617 -0.002,-0.119141 c -0.0028,-0.483916 -0.14256,-0.956508 -0.402344,-1.365234 z m -3.859375,0.78125 0.8125,0.847656 -0.845703,0.8125 c -0.114137,-0.269284 -0.239598,-0.538686 -0.234375,-0.833985 0.006,-0.295456 0.142402,-0.560729 0.267578,-0.826171 z m 3.697265,0.07031 c 0.09226,0.217035 0.183068,0.434102 0.197266,0.669922 -0.225689,0.179853 -0.459505,0.347984 -0.699219,0.507812 l -0.347656,-0.361328 z m -1.873047,1.107422 -1.480468,1.423828 0.242187,0.419922 c 0.642906,-0.187996 1.264663,-0.43486 1.855469,-0.738281 l 0.298828,-0.154297 z m -0.01367,0.707031 0.07813,0.08203 c -0.09052,0.0426 -0.187466,0.07142 -0.279297,0.111329 z m -2.529297,0.640625 -0.726563,0.400391 0.146485,0.46875 c 0.189792,-0.01981 0.38008,-0.04547 0.570312,-0.07617 0.05092,-0.0076 0.100336,-0.01613 0.148438,-0.02539 l 0.429687,-0.08203 -0.291016,-0.328125 c -0.05172,-0.05862 -0.09946,-0.120891 -0.146484,-0.183594 z"
     id="path9" />
</svg>
