<?xml version="1.0" encoding="UTF-8" standalone="no"?>
<!-- Generator: Gravit.io -->

<svg
   style="isolation:isolate"
   viewBox="0 0 48 48"
   width="48pt"
   height="48pt"
   version="1.1"
   id="svg18"
   sodipodi:docname="thorium-browser.svg"
   inkscape:version="1.1.2 (0a00cf5339, 2022-02-04)"
   xmlns:inkscape="http://www.inkscape.org/namespaces/inkscape"
   xmlns:sodipodi="http://sodipodi.sourceforge.net/DTD/sodipodi-0.dtd"
   xmlns:xlink="http://www.w3.org/1999/xlink"
   xmlns="http://www.w3.org/2000/svg"
   xmlns:svg="http://www.w3.org/2000/svg">
  <defs
     id="defs22">
    <linearGradient
       inkscape:collect="always"
       xlink:href="#_lgradient_1"
       id="linearGradient872"
       x1="-12.025727"
       y1="6.1170783"
       x2="-0.085100174"
       y2="6.1170783"
       gradientUnits="userSpaceOnUse"
       gradientTransform="matrix(3.8358211,0,0,3.8371386,-0.00544341,-0.00268054)" />
    <linearGradient
       inkscape:collect="always"
       xlink:href="#_lgradient_1"
       id="linearGradient15"
       x1="-9.6850061"
       y1="45.161198"
       x2="11.98815"
       y2="21.735205"
       gradientUnits="userSpaceOnUse"
       gradientTransform="matrix(1.1147442,0,0,1.1150348,-0.01237238,-3.3277956)" />
    <linearGradient
       inkscape:collect="always"
       xlink:href="#_lgradient_0"
       id="linearGradient962"
       x1="9.8821859"
       y1="23.976768"
       x2="38.204418"
       y2="23.976768"
       gradientUnits="userSpaceOnUse" />
    <linearGradient
       inkscape:collect="always"
       xlink:href="#_lgradient_1"
       id="linearGradient1965"
       x1="17.816389"
       y1="23.990496"
       x2="47.93713"
       y2="24.101233"
       gradientUnits="userSpaceOnUse" />
  </defs>
  <sodipodi:namedview
     id="namedview20"
     pagecolor="#ffffff"
     bordercolor="#666666"
     borderopacity="1.0"
     inkscape:pageshadow="2"
     inkscape:pageopacity="0.0"
     inkscape:pagecheckerboard="0"
     inkscape:document-units="pt"
     showgrid="false"
     inkscape:zoom="7.2257474"
     inkscape:cx="11.002322"
     inkscape:cy="26.848434"
     inkscape:window-width="1600"
     inkscape:window-height="836"
     inkscape:window-x="0"
     inkscape:window-y="0"
     inkscape:window-maximized="1"
     inkscape:current-layer="svg18" />
  <linearGradient
     id="_lgradient_0"
     x1="0"
     y1="0.5"
     x2="1"
     y2="0.5"
     gradientTransform="matrix(28.321765,0,0,28.184745,9.8822315,9.8839475)"
     gradientUnits="userSpaceOnUse">
    <stop
       offset="0%"
       stop-opacity="1"
       style="stop-color:rgb(84,51,255)"
       id="stop2" />
    <stop
       offset="51.73913043478261%"
       stop-opacity="1"
       style="stop-color:rgb(32,189,255)"
       id="stop4" />
    <stop
       offset="98.26086956521739%"
       stop-opacity="1"
       style="stop-color:rgb(165,254,203)"
       id="stop6" />
  </linearGradient>
  <rect
     x="-46.783188"
     y="1.2253767"
     height="45.80014"
     rx="6.1837621"
     shape-rendering="crispEdges"
     id="rect5-6-7-3"
     ry="6.8055277"
     transform="matrix(0.00524063,-0.99998627,0.99998801,0.00489691,0,0)"
     style="isolation:isolate;fill:#0046ff;fill-opacity:0.13470298;stroke:url(#linearGradient872);stroke-width:2.0301;stroke-miterlimit:4;stroke-dasharray:none;stroke-opacity:1"
     width="45.801998" />
  <rect
     x="-15.686804"
     y="17.260084"
     height="33.345856"
     rx="6.7920032"
     shape-rendering="crispEdges"
     id="rect5-6-6-6-6"
     style="isolation:isolate;fill:#0046ff;fill-opacity:0.13470298;stroke:url(#linearGradient15);stroke-width:1.67233;stroke-miterlimit:4;stroke-dasharray:none;stroke-opacity:1"
     ry="7.4743071"
     transform="matrix(0.72446484,-0.68931175,0.68622417,0.72739012,0,0)"
     width="33.338203" />
  <path
     style="color:#000000;fill:url(#linearGradient962);-inkscape-stroke:none"
     d="m 24.029297,9.3847656 c -2.574606,0.023717 -5.121385,0.7234774 -7.369141,2.0585934 l -0.04102,0.02344 h -0.002 c -0.952174,0.565792 -1.787649,1.288731 -2.582031,2.050781 l -0.04492,-0.06055 -0.408203,0.414063 c -0.632537,0.638064 -1.184633,1.32541 -1.648437,2.037109 l -0.169922,0.261719 1.595703,2.662109 3.941406,6.587891 0.332031,0.558594 0.910157,-0.396485 c -0.146979,-0.505669 -0.226563,-1.039024 -0.226563,-1.591797 0,-0.798866 0.164511,-1.556462 0.460938,-2.246093 l 0.101562,-0.234375 -3.03125,-5.064454 c 0.738235,-0.803066 1.554505,-1.53359 2.492188,-2.089843 l 0.03711,-0.02149 h 0.002 c 2.521529,-1.501947 5.530124,-1.959882 8.378906,-1.285156 1.512942,0.358016 2.919103,1.021529 4.142579,1.931641 0.395828,0.294503 0.875514,0.372484 1.289062,0.283203 0.413548,-0.08928 0.769541,-0.325374 1.023438,-0.642578 0.253896,-0.317204 0.410999,-0.728969 0.371093,-1.171875 -0.0399,-0.442906 -0.295582,-0.887735 -0.734375,-1.210938 C 31.274208,11.078586 29.469592,10.2346 27.53125,9.7753906 26.375077,9.5031115 25.19937,9.3739869 24.029297,9.3847656 Z m 0.0078,1.0000004 c 1.090291,-0.01004 2.187342,0.109969 3.263672,0.363281 1.806076,0.427874 3.48847,1.215827 4.957031,2.296875 0.253984,0.187078 0.31675,0.34621 0.330079,0.494141 0.01333,0.14793 -0.04014,0.311973 -0.15625,0.457031 -0.116108,0.145058 -0.289735,0.255741 -0.453125,0.291015 -0.163391,0.03528 -0.308729,0.0184 -0.480469,-0.109375 -1.33147,-0.990446 -2.862987,-1.711875 -4.509766,-2.101562 -3.100943,-0.73445 -6.375632,-0.236895 -9.121094,1.398437 l -0.0332,0.01953 h -0.002 c -1.132925,0.671865 -2.146277,1.52715 -3.005859,2.521484 l -0.208984,0.240234 0.146484,0.326172 3.033203,5.06836 c -0.233874,0.620082 -0.366715,1.283575 -0.40625,1.974609 l -3.173828,-5.306641 -1.257813,-2.097656 c 0.380119,-0.552469 0.799496,-1.094523 1.292969,-1.597656 l 0.04687,-0.04883 C 15.135459,13.705147 16.08408,12.949058 17.125,12.330078 l 0.0039,-0.002 0.03906,-0.02344 0.002,-0.002 c 2.094426,-1.244042 4.467578,-1.895863 6.867187,-1.917968 z m 13.113282,6.982421 -0.306641,0.02148 h -2.787109 -7.675782 -1.68164 v 0.927734 l 0.404297,0.07813 c 1.405688,0.271566 2.627624,1.05966 3.460937,2.160156 l 0.150391,0.197266 h 6.113281 c 0.30969,1.046053 0.517755,2.122319 0.513672,3.212891 v 0.002 0.04102 c -0.0062,2.934107 -1.159875,5.751768 -3.201172,7.84961 -1.084307,1.114285 -2.373659,1.979903 -3.783203,2.5625 -0.456,0.188455 -0.770574,0.560159 -0.90625,0.960937 -0.135677,0.400778 -0.116508,0.826242 0.02539,1.207032 0.141899,0.380789 0.415793,0.728666 0.816407,0.921875 0.400614,0.193208 0.91327,0.202787 1.416015,-0.0078 1.80375,-0.75574 3.455164,-1.871721 4.84375,-3.298828 2.647511,-2.726997 4.140115,-6.384171 4.152344,-10.1875 v -0.04687 -0.002 c 0.0034,-1.0885 -0.18765,-2.15874 -0.425781,-3.214844 h 0.08203 l -0.160156,-0.623047 c -0.222852,-0.869919 -0.52945,-1.695352 -0.902344,-2.458984 z m -9.492188,1.021485 h 6.400391 2.445312 c 0.281785,0.616218 0.535655,1.261316 0.714844,1.951172 l 0.01172,0.04297 c 0.316732,1.164966 0.478561,2.370023 0.474609,3.582032 v 0.002 0.04687 c -0.0119,3.54306 -1.404445,6.951482 -3.871094,9.492187 -1.29371,1.329306 -2.83137,2.370182 -4.511718,3.074219 -0.291024,0.12191 -0.46182,0.09387 -0.595704,0.0293 -0.133883,-0.06457 -0.247584,-0.196891 -0.3125,-0.371094 -0.06492,-0.174202 -0.06923,-0.378754 -0.01563,-0.537109 0.05361,-0.158355 0.142048,-0.275677 0.339844,-0.357422 1.534017,-0.634044 2.939078,-1.576374 4.119141,-2.789063 2.222398,-2.28396 3.478224,-5.351234 3.484375,-8.546875 v -0.03906 -0.002 c 0.0047,-1.316339 -0.207691,-2.623215 -0.619141,-3.871094 l -0.113281,-0.34375 h -0.369141 -6.09375 c -0.431202,-0.52025 -0.920343,-0.993167 -1.488281,-1.363281 z m -17.628906,2.613281 c -0.2929955,0.250521 -0.4667031,0.598438 -0.5234376,1.03125 -0.254243,1.93955 -0.1189817,3.927663 0.4160156,5.845703 1.025967,3.659977 3.435127,6.789259 6.716797,8.712891 h 0.002 l 0.03906,0.02344 c 5.23e-4,3.06e-4 0.0014,-3.06e-4 0.002,0 l 0.002,0.002 c 0.935397,0.548022 1.95249,0.917611 2.980468,1.242188 l -0.04297,0.07227 0.630859,0.179687 c 0.86463,0.24502 1.730992,0.395511 2.578125,0.457031 l 0.3125,0.02148 1.558594,-2.683594 3.863281,-6.636719 0.550781,-0.947265 -0.808593,-0.580079 c -0.908322,1.037492 -2.182717,1.742362 -3.623047,1.910157 l -0.248047,0.0293 -3.027344,5.199218 c -1.059879,-0.25838 -2.093892,-0.619551 -3.03528,-1.171927 l -0.03516,-0.02148 h -0.002 c -2.533891,-1.480412 -4.387109,-3.892922 -5.173828,-6.712891 -0.418006,-1.49781 -0.408264,-3.038253 -0.314453,-4.560547 0.048,-0.778978 -0.141245,-0.892216 -0.423828,-1.214843 -0.288912,-0.329852 -0.736943,-0.559433 -1.17413,-0.593185 -0.426391,-0.03292 -0.895321,0.117994 -1.220363,0.395915 z m 1.083984,0.535156 c 0.19955,1.97e-4 0.423855,0.08913 0.564453,0.222657 0.140599,0.133524 0.212152,0.281021 0.179688,0.519531 -0.223463,1.644881 -0.113106,3.332872 0.341797,4.96289 0.856337,3.069516 2.873727,5.696614 5.632812,7.308594 l 0.03516,0.02148 c 1.136213,0.666692 2.372037,1.140107 3.658204,1.412109 l 0.332031,0.07031 0.201172,-0.302734 3.02539,-5.195312 c 0.678799,-0.110812 1.329549,-0.302826 1.923828,-0.601563 l -3.169921,5.449219 -1.228516,2.113281 c -0.670388,-0.06562 -1.350703,-0.169338 -2.033203,-0.359375 l -0.05664,-0.01563 C 19.352702,36.83035 18.231265,36.36503 17.18554,35.751941 l -0.002,-0.002 -0.03906,-0.02148 -0.0039,-0.002 c -3.055938,-1.792621 -5.300157,-4.707868 -6.255859,-8.117187 -0.498557,-1.787396 -0.623736,-3.640017 -0.386719,-5.447266 0.0358,-0.273703 0.127793,-0.408218 0.228516,-0.49414 0.100722,-0.08592 0.231485,-0.131012 0.386718,-0.13086 z"
     id="path9"
     sodipodi:nodetypes="sccccccccccccsccccccccsssccscccsssccccccccccccccccccccccccccccccsccccsssccccsccccccccccsccccsscccccsccccscasccccccccccccccccccccccsaaacscccccccccccccccccccscc" />
  <linearGradient
     id="_lgradient_1"
     x1="0"
     y1="0.5"
     x2="2.428571428571429"
     y2="0.5089285714285715"
     gradientTransform="matrix(12.402658,0,0,12.402658,17.816389,17.789165)"
     gradientUnits="userSpaceOnUse">
    <stop
       offset="0%"
       stop-opacity="1"
       style="stop-color:rgb(136,42,233)"
       id="stop11" />
    <stop
       offset="100%"
       stop-opacity="1"
       style="stop-color:rgb(52,236,235)"
       id="stop13" />
  </linearGradient>
  <path
     style="color:#000000;fill:url(#linearGradient1965);fill-rule:evenodd;-inkscape-stroke:none"
     d="m 24.017578,17.289062 c -3.693175,0 -6.701172,3.007997 -6.701172,6.701172 0,3.693175 3.007997,6.701172 6.701172,6.701172 3.693175,0 6.701172,-3.007997 6.701172,-6.701172 0,-3.693175 -3.007997,-6.701172 -6.701172,-6.701172 z m 0,1 c 3.151904,0 5.701172,2.549268 5.701172,5.701172 0,3.151905 -2.549268,5.701172 -5.701172,5.701172 -3.151904,0 -5.701172,-2.549267 -5.701172,-5.701172 0,-3.151904 2.549268,-5.701172 5.701172,-5.701172 z m 0,1.363282 c -1.149556,0 -2.254294,0.458232 -3.068359,1.265625 l -0.002,0.002 -0.002,0.002 c -0.807391,0.814064 -1.265624,1.918803 -1.265625,3.068359 0,1.149556 0.458234,2.254296 1.265625,3.06836 l 0.002,0.002 0.002,0.002 c 0.814065,0.807392 1.918802,1.267578 3.068359,1.267578 1.149557,0 2.254295,-0.460186 3.068359,-1.267578 l 0.002,-0.002 0.002,-0.002 c 0.807391,-0.814064 1.267578,-1.918804 1.267578,-3.06836 0,-1.149556 -0.460187,-2.254295 -1.267578,-3.068359 l -0.002,-0.002 -0.002,-0.002 c -0.814064,-0.807393 -1.918802,-1.265625 -3.068359,-1.265625 z m 0,1 c 0.881201,0 1.736453,0.35394 2.363281,0.974609 0.620669,0.626828 0.976563,1.482081 0.976563,2.363281 0,0.8812 -0.355894,1.736454 -0.976563,2.363282 -0.626829,0.620669 -1.48208,0.976562 -2.363281,0.976562 -0.880286,0 -1.734677,-0.355135 -2.361328,-0.974609 l -0.002,-0.002 c -6.51e-4,-6.44e-4 -0.0013,-0.0013 -0.002,-0.002 -0.619473,-0.626649 -0.972657,-1.481042 -0.972657,-2.361328 0,-0.880286 0.353184,-1.734678 0.972657,-2.361328 l 0.002,-0.002 c 6.44e-4,-6.5e-4 0.0013,-0.0013 0.002,-0.002 0.62665,-0.619474 1.481041,-0.972656 2.361328,-0.972656 z"
     id="path16" />
</svg>
