<?xml version="1.0" encoding="UTF-8" standalone="no"?>
<!-- Generator: Gravit.io -->

<svg
   style="isolation:isolate"
   viewBox="0 0 48 48"
   width="48pt"
   height="48pt"
   version="1.1"
   id="svg16"
   sodipodi:docname="tigervnc.svg"
   inkscape:version="1.1.2 (0a00cf5339, 2022-02-04)"
   xmlns:inkscape="http://www.inkscape.org/namespaces/inkscape"
   xmlns:sodipodi="http://sodipodi.sourceforge.net/DTD/sodipodi-0.dtd"
   xmlns:xlink="http://www.w3.org/1999/xlink"
   xmlns="http://www.w3.org/2000/svg"
   xmlns:svg="http://www.w3.org/2000/svg">
  <defs
     id="defs20">
    <linearGradient
       inkscape:collect="always"
       xlink:href="#_lgradient_0"
       id="linearGradient872"
       x1="-12.025727"
       y1="6.1170783"
       x2="-0.085100174"
       y2="6.1170783"
       gradientUnits="userSpaceOnUse"
       gradientTransform="matrix(3.8358211,0,0,3.8371386,-0.00544341,-0.00268054)" />
    <linearGradient
       inkscape:collect="always"
       xlink:href="#_lgradient_0"
       id="linearGradient15"
       x1="-9.6850061"
       y1="45.161198"
       x2="11.98815"
       y2="21.735205"
       gradientUnits="userSpaceOnUse"
       gradientTransform="matrix(1.1147442,0,0,1.1150348,-0.01237238,-3.3277956)" />
    <linearGradient
       inkscape:collect="always"
       xlink:href="#_lgradient_0"
       id="linearGradient1046"
       x1="12.706211"
       y1="24.506168"
       x2="34.945"
       y2="24.506168"
       gradientUnits="userSpaceOnUse" />
  </defs>
  <sodipodi:namedview
     id="namedview18"
     pagecolor="#ffffff"
     bordercolor="#666666"
     borderopacity="1.0"
     inkscape:pageshadow="2"
     inkscape:pageopacity="0.0"
     inkscape:pagecheckerboard="0"
     inkscape:document-units="pt"
     showgrid="false"
     inkscape:zoom="10.21875"
     inkscape:cx="31.95107"
     inkscape:cy="32"
     inkscape:window-width="1600"
     inkscape:window-height="836"
     inkscape:window-x="0"
     inkscape:window-y="0"
     inkscape:window-maximized="1"
     inkscape:current-layer="svg16" />
  <linearGradient
     id="_lgradient_0"
     x1="1.0310495514398024"
     y1="0.5088017763995604"
     x2="-0.06894743577291895"
     y2="0.49944911900952105"
     gradientTransform="matrix(-22.862676,0.64071302,-0.65822183,-23.494635,35.586265,35.932763)"
     gradientUnits="userSpaceOnUse">
    <stop
       offset="0%"
       stop-opacity="1"
       style="stop-color:rgb(255,224,49)"
       id="stop2" />
    <stop
       offset="98.69565217391305%"
       stop-opacity="1"
       style="stop-color:rgb(252,82,82)"
       id="stop4" />
  </linearGradient>
  <rect
     x="-46.783188"
     y="1.2253767"
     height="45.80014"
     rx="6.1837621"
     shape-rendering="crispEdges"
     id="rect5-6-7-3"
     ry="6.8055277"
     transform="matrix(0.00524063,-0.99998627,0.99998801,0.00489691,0,0)"
     style="isolation:isolate;fill:#ff6f00;fill-opacity:0.134703;stroke:url(#linearGradient872);stroke-width:2.0301;stroke-miterlimit:4;stroke-dasharray:none;stroke-opacity:1"
     width="45.801998" />
  <rect
     x="-15.686804"
     y="17.260084"
     height="33.345856"
     rx="6.7920032"
     shape-rendering="crispEdges"
     id="rect5-6-6-6-6"
     style="isolation:isolate;fill:#ff6f00;fill-opacity:0.134703;stroke:url(#linearGradient15);stroke-width:1.67233;stroke-miterlimit:4;stroke-dasharray:none;stroke-opacity:1"
     ry="7.4743071"
     transform="matrix(0.72446484,-0.68931175,0.68622417,0.72739012,0,0)"
     width="33.338203" />
  <path
     style="color:#000000;fill:url(#linearGradient1046);-inkscape-stroke:none"
     d="m 34.044922,12.382813 -0.291016,0.990234 c -0.330651,1.116916 -0.579873,2.050129 -0.632812,2.527344 -0.01321,0.116261 -0.109586,0.540226 -0.195313,0.802734 -0.108584,0.330315 -0.204787,0.695654 -0.230469,0.982422 -0.0077,0.08927 -0.09768,0.574455 -0.1875,0.921875 -0.0493,0.189587 -0.09416,0.371531 -0.126953,0.519531 -0.0164,0.074 -0.02878,0.13918 -0.03906,0.195313 -0.01029,0.05613 -0.02557,0.05551 -0.02148,0.197265 0.0044,0.159755 0.04074,0.226106 0.07617,0.304688 0.03202,0.07102 0.07285,0.137257 0.123047,0.205078 -0.01235,0.09209 -0.03211,0.200705 0.03125,0.357422 0.07236,0.178963 0.209936,0.277885 0.28711,0.328125 0.03159,0.02053 0.02858,0.0204 0.04883,0.03516 -0.0093,-0.01058 -0.0025,-0.0033 -0.09375,0.191406 v 0.002 c -0.109055,0.233342 -0.265785,0.609631 -0.367188,0.886719 -0.0864,0.235603 -0.416009,1.081402 -0.71875,1.841797 C 31.181645,24.992737 31.121544,25.187146 31,25.900391 v 0.002 c -0.03495,0.207218 -0.06496,0.404905 -0.08789,0.558593 -0.01147,0.07684 -0.02248,0.142262 -0.0293,0.195313 -0.0026,0.02058 -0.0014,0.05232 -0.0039,0.06445 -0.0028,0.01032 -0.0096,0.03337 -0.01953,0.06445 -0.02034,0.06389 -0.05321,0.160692 -0.09375,0.277344 -0.08108,0.233303 -0.194933,0.551987 -0.324219,0.904297 -0.258571,0.70462 -0.577555,1.544404 -0.80664,2.11914 -0.156256,0.391871 -0.240513,0.595014 -0.292969,0.806641 -0.05246,0.211627 -0.049,0.394693 -0.04297,0.609375 0.009,0.318723 -0.0055,0.425838 -0.125,0.904297 -0.148108,0.596275 -0.159722,0.809498 -0.09766,1.212891 0.04318,0.279988 0.0601,0.40345 0.06055,0.4375 4.45e-4,0.03405 -0.0052,0.04616 -0.04297,0.210937 -0.03876,0.171124 -0.07699,0.371886 -0.0957,0.505859 l -0.107422,0.763672 3.890625,-0.109375 0.121094,-0.30664 0.08984,-0.226563 c 0.174606,-0.441028 0.48024,-1.584403 0.673829,-2.419922 0.111626,-0.481999 0.261891,-0.932677 0.611328,-1.8125 0.235436,-0.592857 0.451364,-1.15743 0.609375,-1.589843 0.07901,-0.216207 0.144994,-0.400396 0.191406,-0.541016 0.02321,-0.07031 0.04172,-0.128207 0.05664,-0.181641 0.01479,-0.05299 0.04029,-0.03465 0.03516,-0.226562 -1.6e-5,-6.79e-4 -0.0026,0.05469 -0.0039,0.07031 0.003,-0.0142 0.0077,-0.0337 0.01367,-0.06055 0.01394,-0.06231 0.03521,-0.15159 0.06055,-0.259765 0.05068,-0.21635 0.119893,-0.505759 0.191407,-0.802735 l 0.01563,-0.06445 -0.363282,-12.941406 v -0.002 c -0.01194,-0.41116 -0.183495,-0.781498 -0.441406,-1.052734 z m -1.408203,0.15625 -4.19336,0.117187 -0.0918,0.552734 c -0.03179,0.186659 -0.05422,0.373231 0.0059,0.583985 0.06008,0.210753 0.194882,0.367243 0.320312,0.488281 0.07297,0.07027 0.0901,0.09843 0.08008,0.08008 -0.01002,-0.01835 -0.01091,-0.05943 -0.01367,-0.0078 -0.0055,0.103231 -0.09325,0.476187 -0.292969,1.179687 -0.22822,0.804268 -0.433959,1.565018 -0.582031,2.150391 -0.07404,0.292686 -0.133606,0.541992 -0.175782,0.734375 -0.02109,0.09619 -0.03847,0.177392 -0.05078,0.248047 -0.01231,0.07065 -0.02473,0.106162 -0.02148,0.222656 -0.0012,-0.04389 -0.01765,0.118765 -0.06445,0.261719 -0.0468,0.142953 -0.116615,0.302406 -0.166016,0.386718 -0.338278,0.578272 -0.486327,0.96286 -0.970703,2.527344 -0.283177,0.915131 -0.568713,1.831675 -0.621094,1.990234 -0.08931,0.2694 -0.1486,0.616469 -0.173828,0.9375 -0.03276,0.418575 -0.04973,0.466181 -0.402344,1.44336 -0.108328,0.29999 -0.209736,0.58899 -0.287109,0.814453 -0.03877,0.112972 -0.07087,0.21036 -0.0957,0.287109 -0.02483,0.07675 -0.03669,0.09735 -0.05664,0.199219 0.01068,-0.05434 -0.03054,0.100987 -0.08008,0.25 -0.05024,0.151128 -0.11801,0.343933 -0.1875,0.537109 -0.312225,0.869534 -0.461484,1.426398 -0.447266,1.925782 0.0036,0.133431 -5.93e-4,0.254502 0.0625,0.417968 0.06309,0.163467 0.18663,0.281246 0.267578,0.34961 0.0051,0.0043 -0.03013,-0.08549 -0.02734,-0.03125 0.0028,0.05424 -0.01488,0.231607 -0.08398,0.513672 -0.07279,0.297542 0.05644,0.522625 0.171875,0.675781 0.115435,0.153156 0.25404,0.273869 0.41211,0.396484 0.316139,0.245232 0.714592,0.480133 1.126953,0.689453 0.412361,0.209321 0.833576,0.388993 1.1875,0.507813 0.176962,0.05941 0.334359,0.105275 0.490234,0.128906 0.07794,0.01182 0.154965,0.02068 0.253906,0.01172 0.09894,-0.009 0.249737,-0.02694 0.398438,-0.189453 0.09714,-0.106357 0.186178,-0.287361 0.175781,-0.470703 -0.01044,-0.184011 -0.09965,-0.31916 -0.175781,-0.404297 -0.152253,-0.170273 -0.29456,-0.230862 -0.431641,-0.292969 -0.04828,-0.02187 -0.08326,-0.03092 -0.128906,-0.04883 0.02359,-0.09872 0.04503,-0.199217 0.06055,-0.291016 0.0175,-0.103509 0.03301,-0.168047 0.0293,-0.300781 0.0015,0.05393 0.006,-0.06407 0.01953,-0.171875 0.01351,-0.107809 0.03268,-0.243102 0.05469,-0.373047 0.05185,-0.309228 0.09872,-0.773735 0.113281,-1.103515 v -0.002 c 0.02449,-0.538705 0.161467,-1.152985 0.521484,-2.242187 v -0.002 c 0.125187,-0.379067 0.347772,-1.141555 0.50586,-1.738281 0.161808,-0.610098 0.401273,-1.36097 0.566406,-1.783204 0.08461,-0.215697 0.164562,-0.427101 0.226562,-0.597656 0.06145,-0.169041 0.09442,-0.226307 0.128907,-0.394531 v -0.0039 c -0.0073,0.03579 0.0065,-0.01612 0.02539,-0.07422 0.0198,-0.06085 0.04633,-0.144571 0.08008,-0.242188 0.06749,-0.195233 0.158594,-0.44877 0.253907,-0.708984 0.267105,-0.728167 0.380095,-1.089618 0.412109,-1.4375 0.01409,-0.152853 0.06903,-0.46834 0.105469,-0.605469 v -0.002 c 0.06723,-0.255917 0.133414,-0.683202 0.175781,-1.070312 0.04089,-0.370137 0.07084,-0.587256 0.09766,-0.710938 0.02682,-0.123681 0.03703,-0.143044 0.08398,-0.224609 0.236535,-0.409098 0.324683,-0.929309 0.34375,-1.496094 v -0.002 c 0.01094,-0.316722 0.04967,-0.564914 0.152343,-0.957031 v -0.002 c 0.170055,-0.650915 0.259762,-0.99524 0.310547,-1.257813 0.05079,-0.262573 0.05421,-0.45384 0.04883,-0.662109 v -0.002 c -0.0084,-0.312887 0.06825,-0.679624 0.142578,-0.835938 z m -5.242188,0.146484 -5.304687,0.148437 -0.25,0.720704 c -0.07841,0.226635 -0.235008,0.70348 -0.353516,1.076171 -0.190826,0.602029 -0.861945,2.311684 -1.169922,2.976563 -0.148366,0.319719 -0.06036,0.205516 -0.501953,0.554687 l -0.333984,0.265625 -0.160157,-0.0059 -0.515625,-0.02148 -0.478515,0.341796 c -0.196685,0.140294 -0.359826,0.253587 -0.494141,0.449219 -0.134314,0.195632 -0.194357,0.382428 -0.308594,0.69336 -0.08282,0.225343 -0.255995,0.617752 -0.351562,0.798828 -0.151688,0.288058 -0.456051,0.994551 -0.740234,1.695312 -0.276665,0.682224 -0.663651,1.571272 -0.835938,1.921875 -0.68596,1.398282 -1.027593,2.120884 -1.15039,2.5625 -0.0493,0.178588 -0.158774,0.578942 -0.244141,0.888672 -0.07692,0.278592 -0.237839,0.73786 -0.326172,0.943359 -0.305325,0.7101 -0.834524,2.196796 -1.158203,3.208985 l -0.02539,0.08203 0.06641,2.410156 c 0.02292,0.798831 0.641582,1.44689 1.416015,1.533203 l 0.03711,0.0039 1.589843,-0.05664 0.113282,-0.769531 c 0.02485,-0.171133 0.102433,-0.604317 0.166015,-0.923828 0.03641,-0.181473 0.06381,-0.357957 0.08203,-0.509766 0.01822,-0.151809 0.04527,-0.222862 0.01172,-0.427734 v -0.002 c 0.01525,0.09068 0.01045,-0.08086 0.173828,-0.533204 0.225651,-0.62602 0.477102,-1.604788 0.666016,-2.568359 0.0361,-0.183272 0.152061,-0.527961 0.310547,-0.875 v -0.002 c 0.07561,-0.16612 0.14405,-0.322023 0.195312,-0.445313 0.02563,-0.06164 0.04721,-0.113803 0.06445,-0.160156 0.0086,-0.02318 0.01533,-0.04424 0.02344,-0.07031 0.0081,-0.02608 0.03081,0.0019 0.02734,-0.181641 8.94e-4,0.07822 -0.0049,0.06788 0.002,0.04102 0.0078,-0.03069 0.02219,-0.08182 0.04102,-0.142578 0.03765,-0.121526 0.09296,-0.284334 0.152344,-0.451172 0.118773,-0.333677 0.27918,-0.723801 0.310547,-0.783203 0.09906,-0.188517 0.201912,-0.40337 0.263672,-0.56836 l 0.002,-0.002 c 0.01478,-0.03831 0.158571,-0.34399 0.275391,-0.564453 v -0.002 c 0.139945,-0.263498 0.335066,-0.686712 0.460937,-0.996094 0.104976,-0.258744 0.318924,-0.706189 0.443359,-0.931641 v -0.002 c 0.147004,-0.265595 0.321284,-0.600411 0.410157,-0.792968 v -0.002 c 0.04025,-0.0873 0.224699,-0.360883 0.429687,-0.589843 0.387529,-0.432928 0.550247,-0.683898 0.703125,-0.960938 -0.0098,0.196631 -0.02081,0.373028 -0.02734,0.585938 -0.02255,0.72817 0.0027,0.624863 -0.515625,1.5625 -0.490015,0.885756 -0.55715,1.041673 -0.68164,1.474609 -0.0386,0.134715 -0.176778,0.481872 -0.267578,0.662109 -0.300813,0.594432 -0.487173,0.992212 -0.601563,1.365235 -0.114389,0.373023 -0.140866,0.713011 -0.130859,1.091797 0.0016,0.06045 -0.02142,0.258591 -0.02734,0.283203 l 0.002,-0.002 c -0.04491,0.183445 -0.337819,1.398953 -0.6875,2.74414 -0.349681,1.345188 -0.767937,2.837467 -1.005859,3.421875 -0.06204,0.152548 -0.117866,0.297825 -0.160156,0.416016 -0.02115,0.05909 -0.04012,0.11062 -0.05469,0.158203 -0.0073,0.02379 -0.01288,0.0465 -0.01953,0.07422 -0.0066,0.02772 -0.02106,0.03615 -0.01758,0.15625 0.0015,0.05054 0.01632,0.02506 0.02148,0.05859 l -0.07227,0.160156 0.125,-0.0039 c 0.01464,0.01525 0.02482,0.08461 0.03516,0.09961 0.03257,0.04727 0.0622,0.08342 0.0957,0.121094 0.06702,0.07535 0.146957,0.151535 0.234375,0.228515 0.106124,0.09345 0.38761,0.163408 0.558594,0.08789 0.170983,-0.07552 0.218457,-0.169546 0.253906,-0.228516 0.0709,-0.117939 0.08413,-0.187494 0.105469,-0.269531 0.0061,-0.02336 0.0081,-0.05207 0.01367,-0.07617 l 1.960938,-0.05469 0.03125,0.01563 c 0.01274,0.0239 0.01793,0.03971 0.04492,0.07422 0.05232,0.06689 0.184351,0.216076 0.4375,0.203125 0.253149,-0.01295 0.378537,-0.183729 0.423828,-0.261718 0.04529,-0.07799 0.05642,-0.126258 0.06836,-0.171875 0.04615,-0.175053 0.06291,-0.34647 0.0918,-0.601563 0.02888,-0.255092 0.05745,-0.559643 0.08789,-0.859375 0.03044,-0.299731 0.06172,-0.595448 0.08984,-0.824219 0.01406,-0.114385 0.02756,-0.212281 0.03906,-0.28125 0.0115,-0.06897 0.03629,-0.132406 0.0078,-0.0625 0.264235,-0.646298 0.603863,-1.698087 0.792968,-2.455078 0.162208,-0.648828 0.817934,-2.993541 1.242188,-4.433593 v -0.002 c 0.144172,-0.487553 0.391002,-1.182369 0.515625,-1.464843 l 0.002,-0.002 c 0.189141,-0.426979 0.352936,-0.915263 0.488281,-1.449219 0.105017,-0.41211 0.336263,-1.250153 0.509766,-1.839844 0.177662,-0.602508 0.431088,-1.493064 0.566406,-1.992187 0.132056,-0.485103 0.318023,-1.123286 0.402344,-1.382813 0.178375,-0.548384 0.454578,-1.67422 0.916015,-3.68164 v -0.002 z m -6.996094,0.195312 -3.720703,0.105469 -0.259765,0.619141 c -0.08596,0.203921 -0.167471,0.42445 -0.210938,0.623047 -0.0251,0.11244 -0.0556,0.243463 -0.0625,0.271484 -0.03149,0.121222 -0.01621,0.274883 0.02344,0.376953 0.03965,0.10207 0.08891,0.1682 0.138672,0.230469 0.09952,0.124537 0.21818,0.241945 0.40625,0.419922 l 0.05078,0.04687 -0.0957,0.451172 c -0.08543,0.408301 -0.147799,0.610708 -0.117188,0.902343 0.01531,0.145818 0.115545,0.383608 0.300781,0.494141 0.185237,0.110533 0.321013,0.09638 0.414063,0.09375 0.177118,-0.0054 0.242581,-0.04297 0.335937,-0.08008 0.09336,-0.03711 0.187403,-0.08353 0.285157,-0.134766 0.195506,-0.102472 0.392243,-0.221074 0.558593,-0.359375 0.197401,-0.164253 0.355309,-0.371022 0.529297,-0.607422 0.173989,-0.2364 0.325532,-0.44983 0.423828,-0.685546 v -0.002 c 0.06751,-0.164127 0.179815,-0.461296 0.261719,-0.693359 0.06896,-0.19677 0.215499,-0.55663 0.302735,-0.742187 0.05229,-0.111525 0.104009,-0.224683 0.144531,-0.320313 0.04052,-0.09563 0.06265,-0.138078 0.09375,-0.253906 l 0.002,-0.002 z m -5.18164,0.146485 -1.474609,0.04101 h -0.002 c -0.866227,0.03393 -1.55768,0.767406 -1.533203,1.636719 l 0.296875,10.630859 -0.002,0.0059 0.0039,0.04492 v 0.02539 h 0.002 v 0.01172 l 0.996093,-0.04102 -0.01563,0.148438 c -0.02002,0.07193 0.01084,-0.0316 0.04297,-0.117188 0.03213,-0.08558 0.07873,-0.206128 0.134766,-0.351562 0.112076,-0.290868 0.265289,-0.68472 0.439453,-1.126953 0.833183,-2.115572 1.331591,-3.454151 1.623047,-4.482422 0.291455,-1.028271 0.371581,-1.76106 0.353515,-2.560547 -0.0066,-0.286337 -0.05822,-0.519977 -0.169922,-0.71875 0.0016,-0.0096 0.01588,-0.132306 0.0625,-0.390625 0.06004,-0.332905 0.112037,-0.786489 0.123047,-1.095703 v -0.002 l 0.0293,-0.8125 -0.515625,-0.236328 c -0.232204,-0.105298 -0.310177,-0.144908 -0.380859,-0.181641 z m 15.996094,0.550781 c -0.04519,0.23264 -0.133582,0.44749 -0.126954,0.693359 0.005,0.193886 0.006,0.242535 -0.0332,0.445313 -0.03922,0.202778 -0.127148,0.547606 -0.296875,1.197266 -0.11489,0.438769 -0.170366,0.790631 -0.183593,1.177734 -0.015,0.450092 -0.138316,0.909026 -0.208985,1.03125 h -0.002 c -0.07998,0.138935 -0.150004,0.311761 -0.193359,0.511719 -0.04335,0.199957 -0.0735,0.436635 -0.115235,0.814453 -0.03752,0.342787 -0.119364,0.815107 -0.148437,0.925781 -0.06077,0.229257 -0.112793,0.531212 -0.134766,0.769531 -0.01723,0.187232 -0.09512,0.475806 -0.355469,1.185547 -0.09728,0.265598 -0.187696,0.523744 -0.257812,0.726563 -0.03506,0.101409 -0.06504,0.187585 -0.08789,0.257812 -0.02285,0.07023 -0.03458,0.09705 -0.05273,0.183594 l -0.002,0.002 v 0.002 c 0.01897,-0.09353 -0.02965,0.09371 -0.08789,0.253906 -0.05823,0.160198 -0.137025,0.365875 -0.21875,0.574219 v 0.002 c -0.190513,0.48713 -0.429609,1.24228 -0.601562,1.890625 -0.152694,0.576365 -0.379287,1.351603 -0.488282,1.681641 -0.37177,1.124761 -0.539918,1.840211 -0.570312,2.513672 -0.01179,0.268692 -0.06158,0.743946 -0.101563,0.982422 -0.02436,0.144072 -0.04499,0.289906 -0.06055,0.414062 -0.01563,0.12473 -0.0291,0.191496 -0.02539,0.324219 -0.0015,-0.05449 -0.0047,0.03133 -0.01758,0.107422 -0.01287,0.07609 -0.03213,0.171016 -0.05273,0.253906 -0.01742,0.07068 -0.02864,0.132641 -0.04102,0.197266 -0.105278,-0.04869 -0.191529,-0.07348 -0.296875,-0.126954 -0.373689,-0.189688 -0.736695,-0.407884 -0.96875,-0.58789 -0.105096,-0.08152 -0.169004,-0.150635 -0.203125,-0.191406 0.05378,-0.237451 0.102261,-0.452818 0.0918,-0.65625 -0.01196,-0.23254 -0.143635,-0.481185 -0.306641,-0.638672 0.01144,0.03083 0.0066,0.02712 0.0039,-0.07227 v -0.002 c -0.0073,-0.252032 0.09058,-0.730376 0.388672,-1.560547 0.07222,-0.200771 0.141871,-0.399799 0.195313,-0.560547 0.05344,-0.160747 0.0831,-0.23096 0.111328,-0.371094 v -0.002 c -0.01229,0.06274 0.0055,-0.01461 0.02734,-0.08203 0.02181,-0.06742 0.05229,-0.16204 0.08984,-0.271484 0.07512,-0.218889 0.176213,-0.504521 0.283203,-0.800782 0.355396,-0.984899 0.420849,-1.240788 0.457032,-1.703125 0.01849,-0.235319 0.08963,-0.588889 0.126953,-0.701171 v -0.002 c 0.06909,-0.209126 0.343283,-1.091087 0.626953,-2.007812 0.481891,-1.556459 0.569359,-1.7892 0.878906,-2.318359 0.105443,-0.179962 0.186443,-0.37997 0.251953,-0.580079 0.06551,-0.200108 0.121985,-0.36453 0.115235,-0.601562 0.002,0.07231 -4.57e-4,0.02598 0.0078,-0.02148 0.0083,-0.04746 0.02184,-0.119586 0.04102,-0.207032 0.03834,-0.174891 0.09557,-0.416927 0.167969,-0.703125 0.144789,-0.572396 0.348303,-1.324948 0.574218,-2.121093 0.200257,-0.705411 0.313614,-1.056054 0.332032,-1.400391 0.0092,-0.172169 -0.02527,-0.369392 -0.109375,-0.523437 -0.06618,-0.121203 -0.138167,-0.186615 -0.207032,-0.253907 z m -16.976563,0.09766 c 0.002,0.0673 0.02116,0.205724 0.09375,0.324219 0.07299,0.119154 0.162617,0.188084 0.240235,0.238281 0.147889,0.09564 0.318899,0.167909 0.599609,0.294922 l -0.06641,-0.0293 -0.0059,0.146485 c -0.0077,0.219299 -0.05922,0.689752 -0.107422,0.957031 -0.04899,0.271456 -0.08077,0.402454 -0.08203,0.580078 -0.0013,0.177624 0.103762,0.398654 0.152344,0.472656 0.01048,0.01596 0.01544,-0.0073 0.02148,0.25586 0.0164,0.725966 -0.04276,1.305105 -0.314453,2.263671 -0.227433,0.802398 -0.727341,2.114216 -1.332031,3.673829 l -0.228516,-8.175782 c -0.0094,-0.335511 0.236953,-0.596242 0.572266,-0.609375 l 0.46875,-0.01367 z m 11.894531,0.04492 -0.08203,0.359375 c -0.459961,2.001 -0.747041,3.148274 -0.892578,3.595703 v 0.002 c -0.09843,0.302943 -0.279968,0.92992 -0.416016,1.429688 -0.131691,0.485746 -0.385845,1.378237 -0.560547,1.970703 -0.177768,0.60419 -0.407875,1.438792 -0.519531,1.876953 -0.123785,0.488349 -0.273806,0.926216 -0.435547,1.291016 v 0.002 c -0.166507,0.376833 -0.40285,1.054236 -0.560547,1.58789 -0.428221,1.453425 -1.075852,3.760442 -1.253906,4.472657 -0.173108,0.692957 -0.516564,1.754126 -0.748047,2.320312 v 0.002 c -0.05256,0.128999 -0.05282,0.182168 -0.06836,0.275391 -0.01554,0.09322 -0.02988,0.201842 -0.04492,0.324219 -0.03008,0.244753 -0.06123,0.542848 -0.0918,0.84375 -0.01042,0.102587 -0.01904,0.188455 -0.0293,0.289062 -1.51e-4,0 -0.0039,-4e-6 -0.0039,0 -6.04e-4,1.17e-4 -0.106825,0.03294 -0.107422,0.0332 -5.97e-4,2.62e-4 -0.06129,0.03176 -0.08594,0.04883 -0.197174,0.136523 -0.187472,0.229518 -0.205078,0.285157 l -0.01758,0.05469 -1.55664,0.04297 c 0.005,-0.04974 0.0089,-0.09969 0.01172,-0.128906 0.0018,-0.0186 0.0034,-0.03215 0.0039,-0.03711 2.64e-4,-0.0025 -5.4e-5,-0.0055 -0.002,0.0078 -4.75e-4,0.0033 -1.81e-4,0.0078 -0.002,0.01758 -0.0014,0.0076 -0.01242,0.04193 -0.01758,0.06055 0.0056,-0.02618 0.02344,-0.111328 0.02344,-0.111328 0,0 -0.0058,-7e-6 -0.0059,0 6.9e-5,-9.76e-4 -6.6e-5,-9.53e-4 0,-0.002 -0.002,-4.36e-4 -0.117517,-0.02482 -0.166016,-0.03516 0.271585,-0.794885 0.573023,-1.803327 0.863281,-2.919922 0.352587,-1.356363 0.650106,-2.599053 0.689453,-2.759765 v -0.002 c 0.04424,-0.183743 0.05755,-0.358148 0.05273,-0.541016 v -0.002 c -0.0085,-0.323869 0.0084,-0.505963 0.08984,-0.771484 0.08163,-0.266185 0.243172,-0.626186 0.53711,-1.207032 0.127803,-0.253687 0.262816,-0.5813 0.335937,-0.835937 v -0.002 c 0.120145,-0.417848 0.108032,-0.384107 0.595703,-1.265625 0.524561,-0.948936 0.617219,-1.259925 0.640625,-2.015625 0.01021,-0.332448 0.02975,-0.756942 0.04102,-0.904297 v -0.002 c 0.01142,-0.153152 0.03965,-0.250295 -0.01367,-0.449219 -0.02666,-0.09946 -0.09302,-0.21155 -0.154297,-0.277344 -0.06038,-0.06483 -0.104891,-0.09472 -0.140625,-0.121094 -0.197353,-0.147292 -0.332271,-0.200379 -0.597656,-0.193359 -0.194699,0.0055 -0.426388,0.105238 -0.568359,0.246094 -0.141971,0.140855 -0.225152,0.296024 -0.310547,0.478515 -0.105602,0.22654 -0.233306,0.401944 -0.677735,0.898438 h 0.002 c -0.253523,0.283171 -0.465484,0.561652 -0.59375,0.839844 -0.06197,0.134263 -0.241806,0.486365 -0.376954,0.730468 -0.157984,0.285964 -0.36621,0.725695 -0.49414,1.041016 -0.108243,0.265838 -0.308657,0.696665 -0.417969,0.902344 h -0.002 v 0.002 c -0.130925,0.246856 -0.256811,0.497145 -0.326172,0.679687 l -0.002,0.002 v 0.002 c -0.02041,0.0547 -0.131803,0.300765 -0.212891,0.455078 -0.117807,0.22348 -0.241623,0.559353 -0.367187,0.912109 -0.0629,0.176704 -0.122004,0.348188 -0.166016,0.490235 -0.02201,0.07102 -0.03985,0.134881 -0.05469,0.193359 -0.01447,0.05702 -0.03481,0.07123 -0.03125,0.224609 -0.0033,-0.176277 0.01454,-0.131272 0.01563,-0.134765 0.0011,-0.0035 -0.001,0.0046 -0.0059,0.01758 -0.0097,0.02597 -0.02813,0.07051 -0.05078,0.125 -0.04531,0.108975 -0.110068,0.25877 -0.181641,0.416015 -0.18184,0.398179 -0.319331,0.775361 -0.382812,1.097657 -0.18096,0.923001 -0.433724,1.89122 -0.625,2.421875 -0.172572,0.47781 -0.275576,0.701071 -0.21875,1.039062 -0.01714,-0.1034 -0.0034,0.02666 -0.01758,0.144531 -0.01433,0.119441 -0.03888,0.274976 -0.07031,0.431641 l -0.002,0.002 c -0.06651,0.334231 -0.141674,0.753635 -0.173828,0.97461 l 0.0078,-0.05469 -0.650391,0.02344 c -0.292645,-0.03549 -0.514678,-0.259137 -0.523437,-0.564454 l -0.0625,-2.230468 c 0.316061,-0.980148 0.836645,-2.435295 1.099609,-3.046875 0.122867,-0.285841 0.275346,-0.732578 0.369141,-1.072266 0.08534,-0.309643 0.196913,-0.708564 0.246093,-0.886719 0.05335,-0.191853 0.404073,-1.002589 1.083985,-2.388672 v -0.002 c 0.203176,-0.413631 0.580759,-1.28289 0.865234,-1.984375 0.277194,-0.683527 0.621338,-1.461279 0.697266,-1.605468 h -0.002 c 0.133141,-0.252269 0.302803,-0.633134 0.408204,-0.919922 0.113925,-0.310084 0.170368,-0.43917 0.193359,-0.472657 0.02299,-0.03349 0.05743,-0.06242 0.251953,-0.201171 l 0.199219,-0.142579 0.173828,0.0059 0.53125,0.02148 0.623047,-0.49414 c 0.452443,-0.357746 0.626647,-0.56993 0.789062,-0.919922 0.346415,-0.747862 0.988741,-2.38043 1.214844,-3.09375 0.115672,-0.363772 0.27419,-0.844073 0.345703,-1.050781 l 0.02344,-0.06836 z m -7.126953,0.201172 c -0.09978,0.223922 -0.213862,0.490226 -0.287109,0.699219 -0.07567,0.21441 -0.190417,0.518668 -0.242188,0.644531 -0.01242,0.02919 -0.155743,0.274191 -0.304687,0.476563 -0.149378,0.202961 -0.342369,0.41424 -0.363281,0.43164 -0.02946,0.02449 -0.109958,0.06776 -0.167969,0.105469 0.0061,-0.03164 0.0027,-0.01682 0.0098,-0.05078 l 0.208985,-0.998047 -0.457031,-0.429688 c -0.139586,-0.132095 -0.195325,-0.192875 -0.244141,-0.246093 0.0093,-0.04092 0.01567,-0.06583 0.02539,-0.109375 l 0.002,-0.002 c 0.0081,-0.03718 0.09066,-0.298263 0.154297,-0.449218 l 0.01172,-0.02734 z m 15.13086,2.007813 0.308593,10.970703 c -0.06564,0.272965 -0.13034,0.541814 -0.177734,0.74414 -0.02575,0.109933 -0.04718,0.203008 -0.0625,0.271485 -0.0077,0.03424 -0.01263,0.06184 -0.01758,0.08594 -0.0025,0.01205 -0.0054,0.02144 -0.0078,0.03516 -0.0012,0.0069 -0.0022,0.01506 -0.0039,0.02734 -0.0017,0.01228 -0.0039,0.0813 -0.0039,0.08203 -0.0028,-0.138517 0.0073,-0.09262 0,-0.06641 -0.0077,0.02775 -0.02262,0.07703 -0.04297,0.138672 -0.04069,0.123277 -0.102892,0.299606 -0.179687,0.509766 -0.153592,0.420319 -0.365279,0.979298 -0.597657,1.564453 -0.356386,0.89732 -0.532366,1.413671 -0.658203,1.957031 -0.177631,0.766646 -0.512381,1.933951 -0.607422,2.197266 l -2.015625,0.05469 c 9.11e-4,-0.0041 0.0011,-0.0078 0.002,-0.01172 h -0.002 c 0.03551,-0.154754 0.07052,-0.282426 0.06836,-0.447265 -0.0022,-0.164839 -0.02955,-0.299162 -0.07227,-0.576172 -0.06036,-0.392331 -0.0662,-0.230099 0.08008,-0.81836 v -0.002 c 0.126234,-0.505957 0.164918,-0.794147 0.154297,-1.171875 -0.006,-0.213736 -0.0095,-0.248251 0.01367,-0.341797 0.02319,-0.09355 0.09579,-0.284133 0.251953,-0.675781 0.235445,-0.590692 0.553242,-1.43467 0.814453,-2.146484 0.130606,-0.355907 0.247733,-0.677359 0.332031,-0.919922 0.04215,-0.121281 0.07639,-0.221713 0.101563,-0.300781 0.01259,-0.03953 0.02215,-0.07411 0.03125,-0.107422 0.009,-0.03297 0.03248,0.0073 0.02734,-0.185547 v -0.002 c 0.0012,0.05402 -7.7e-4,0.02464 0.0039,-0.01172 0.0054,-0.0419 0.01456,-0.103185 0.02539,-0.175781 0.02166,-0.145193 0.05195,-0.33756 0.08594,-0.539063 0.119202,-0.699496 0.126344,-0.709848 0.650391,-2.027343 0.304597,-0.765058 0.6267,-1.589565 0.728515,-1.867188 0.08664,-0.236743 0.245085,-0.620427 0.332032,-0.806641 v -0.002 c 0.130125,-0.277386 0.261053,-0.484729 0.207031,-0.828125 -0.02707,-0.172078 -0.126563,-0.33195 -0.22461,-0.43164 -0.07369,-0.07493 -0.147622,-0.123085 -0.222656,-0.173828 -0.01879,-0.164953 -0.04322,-0.339948 -0.126953,-0.460938 0.0069,-0.03525 0.01557,-0.07382 0.02734,-0.126953 0.02931,-0.132278 0.07269,-0.307684 0.11914,-0.486328 0.100585,-0.389045 0.190833,-0.80666 0.214844,-1.083985 0.0071,-0.07928 0.09765,-0.498558 0.183594,-0.759765 h 0.002 c 0.107768,-0.33 0.206279,-0.717405 0.238281,-1.003906 8.03e-4,-0.0072 0.01821,-0.07095 0.01953,-0.08008 z m -1.619141,4.048828 c -3.78e-4,0.0028 0.0023,0.0089 0.002,0.01172 -0.0021,9.8e-5 -0.0029,-0.01716 -0.0039,-0.0098 z M 18.451172,34.455078 c -10e-6,-3.4e-5 0.01216,0.126979 0.01563,0.160156 3.94e-4,-0.01705 0.0043,-0.0027 0.0039,-0.02539 v -0.0039 -0.0039 c -2.13e-4,-0.0066 -0.0019,-0.03116 -0.002,-0.03125 -8e-6,-8.5e-5 -0.01757,-0.09566 -0.01758,-0.0957 z"
     id="path7" />
  <linearGradient
     id="_lgradient_1"
     x1="0"
     y1="0.5"
     x2="1"
     y2="0.5"
     gradientTransform="matrix(46.5,0,0,45,0.75,1.5)"
     gradientUnits="userSpaceOnUse">
    <stop
       offset="0%"
       stop-opacity="1"
       style="stop-color:rgb(255,224,49)"
       id="stop9" />
    <stop
       offset="98.69565217391305%"
       stop-opacity="1"
       style="stop-color:rgb(252,82,82)"
       id="stop11" />
  </linearGradient>
</svg>
