<?xml version="1.0" encoding="UTF-8" standalone="no"?>
<svg
   viewBox="0 0 48 48"
   width="64"
   height="64"
   version="1.1"
   id="svg11"
   sodipodi:docname="tiled.svg"
   inkscape:version="1.1.2 (0a00cf5339, 2022-02-04)"
   xmlns:inkscape="http://www.inkscape.org/namespaces/inkscape"
   xmlns:sodipodi="http://sodipodi.sourceforge.net/DTD/sodipodi-0.dtd"
   xmlns:xlink="http://www.w3.org/1999/xlink"
   xmlns="http://www.w3.org/2000/svg"
   xmlns:svg="http://www.w3.org/2000/svg">
  <sodipodi:namedview
     id="namedview13"
     pagecolor="#ffffff"
     bordercolor="#666666"
     borderopacity="1.0"
     inkscape:pageshadow="2"
     inkscape:pageopacity="0.0"
     inkscape:pagecheckerboard="0"
     showgrid="false"
     inkscape:zoom="5.109375"
     inkscape:cx="32"
     inkscape:cy="32"
     inkscape:window-width="1056"
     inkscape:window-height="545"
     inkscape:window-x="363"
     inkscape:window-y="149"
     inkscape:window-maximized="0"
     inkscape:current-layer="svg11" />
  <defs
     id="defs7">
    <linearGradient
       id="A"
       x1="1.131"
       y1="24"
       x2="46.868"
       y2="24"
       gradientUnits="userSpaceOnUse"
       gradientTransform="matrix(0.58913465,0,0,0.58913465,9.8607685,12.855004)">
      <stop
         offset="0%"
         stop-color="#1a6cff"
         id="stop2" />
      <stop
         offset="100%"
         stop-color="#c522ff"
         id="stop4" />
    </linearGradient>
    <linearGradient
       inkscape:collect="always"
       xlink:href="#A"
       id="linearGradient872"
       x1="-12.025727"
       y1="6.1170783"
       x2="-0.085100174"
       y2="6.1170783"
       gradientUnits="userSpaceOnUse"
       gradientTransform="matrix(3.8358211,0,0,3.8371386,-0.00544341,-0.00268054)" />
    <linearGradient
       inkscape:collect="always"
       xlink:href="#A"
       id="linearGradient15"
       x1="-9.6850061"
       y1="45.161198"
       x2="11.98815"
       y2="21.735205"
       gradientUnits="userSpaceOnUse"
       gradientTransform="matrix(1.1147442,0,0,1.1150348,-0.01237238,-3.3277956)" />
    <linearGradient
       inkscape:collect="always"
       xlink:href="#A"
       id="linearGradient1024"
       x1="9.8584118"
       y1="25.970278"
       x2="38.141586"
       y2="25.970278"
       gradientUnits="userSpaceOnUse" />
  </defs>
  <rect
     x="-46.783188"
     y="1.2253767"
     height="45.80014"
     rx="6.1837621"
     shape-rendering="crispEdges"
     id="rect5-6-7-3"
     ry="6.8055277"
     transform="matrix(0.00524063,-0.99998627,0.99998801,0.00489691,0,0)"
     style="isolation:isolate;fill:#9900ff;fill-opacity:0.13470298;stroke:url(#linearGradient872);stroke-width:2.0301;stroke-miterlimit:4;stroke-dasharray:none;stroke-opacity:1"
     width="45.801998" />
  <rect
     x="-15.686804"
     y="17.260084"
     height="33.345856"
     rx="6.7920032"
     shape-rendering="crispEdges"
     id="rect5-6-6-6-6"
     style="isolation:isolate;fill:#9900ff;fill-opacity:0.13470298;stroke:url(#linearGradient15);stroke-width:1.67233;stroke-miterlimit:4;stroke-dasharray:none;stroke-opacity:1"
     ry="7.4743071"
     transform="matrix(0.72446484,-0.68931175,0.68622417,0.72739012,0,0)"
     width="33.338203" />
  <path
     style="color:#000000;fill:url(#linearGradient1024);-inkscape-stroke:none;paint-order:markers stroke fill"
     d="M 11.199219,13.929688 C 10.29428,13.89158 9.5225524,14.600924 9.484375,15.505859 v 0.0078 0.0098 6.490234 c 0,0.934747 0.764472,1.699219 1.699219,1.699219 h 6.146484 c 0.529417,0 0.951172,0.421754 0.951172,0.951171 v 3.283204 1.875 6.490234 c 0,0.934747 0.766425,1.701172 1.701172,1.701172 h 8.033203 c 0.934747,0 1.699219,-0.766425 1.699219,-1.701172 v -5.164063 -1.876953 -4.607422 c 0,-0.529417 0.421754,-0.951171 0.951172,-0.951171 h 6.15039 c 0.934747,0 1.699219,-0.764472 1.699219,-1.699219 v -6.384766 c 0,-0.934747 -0.764472,-1.699218 -1.699219,-1.699218 h -6.818359 -1.871094 -6.927734 -1.875 z m -0.03125,0.748046 0.0078,0.002 h 8.148438 1.875 6.927734 1.871094 6.818359 c 0.529417,0 0.949219,0.419801 0.949219,0.949218 v 6.384766 c 0,0.529417 -0.419802,0.949219 -0.949219,0.949219 h -6.15039 c -0.934747,0 -1.701172,0.766425 -1.701172,1.701171 v 4.607422 1.876953 5.164063 c 0,0.529417 -0.419802,0.951172 -0.949219,0.951172 h -8.033203 c -0.529417,0 -0.951172,-0.421755 -0.951172,-0.951172 v -6.490234 -1.875 -3.283204 c 0,-0.934746 -0.766425,-1.701171 -1.701172,-1.701171 h -6.146484 c -0.529417,0 -0.949219,-0.419802 -0.949219,-0.949219 v -6.480469 c 0.02351,-0.497644 0.435191,-0.876457 0.933594,-0.855469 z m 1.902344,1.138672 c -0.934747,0 -1.699219,0.764472 -1.699219,1.699219 V 20.125 c 0,0.934747 0.764472,1.701172 1.699219,1.701172 h 4.259765 c 0.934746,-1e-6 1.701172,-0.766426 1.701172,-1.701172 v -2.609375 c 0,-0.934746 -0.766426,-1.699218 -1.701172,-1.699219 z m 8.796874,0 c -0.934746,0 -1.699218,0.764472 -1.699218,1.699219 V 20.125 c 0,0.934747 0.764472,1.701172 1.699218,1.701172 h 4.259766 c 0.934747,0 1.701172,-0.766425 1.701172,-1.701172 v -2.609375 c 0,-0.934747 -0.766425,-1.699219 -1.701172,-1.699219 z m 8.802735,0 c -0.934746,10e-7 -1.701172,0.764473 -1.701172,1.699219 V 20.125 c 0,0.934746 0.766426,1.701171 1.701172,1.701172 h 4.259765 c 0.934747,0 1.699219,-0.766425 1.699219,-1.701172 v -2.609375 c 0,-0.934747 -0.764472,-1.699219 -1.699219,-1.699219 z m -17.599609,0.75 h 4.259765 c 0.529417,1e-6 0.951172,0.419802 0.951172,0.949219 V 20.125 c 0,0.529417 -0.421755,0.951171 -0.951172,0.951172 h -4.259765 c -0.529418,0 -0.949219,-0.421755 -0.949219,-0.951172 v -2.609375 c 0,-0.529417 0.419801,-0.949219 0.949219,-0.949219 z m 8.796874,0 h 4.259766 c 0.529417,0 0.951172,0.419802 0.951172,0.949219 V 20.125 c 0,0.529417 -0.421755,0.951172 -0.951172,0.951172 h -4.259766 c -0.529417,0 -0.949218,-0.421755 -0.949218,-0.951172 v -2.609375 c 0,-0.529417 0.419801,-0.949219 0.949218,-0.949219 z m 8.802735,0 h 4.259765 c 0.529418,0 0.949219,0.419802 0.949219,0.949219 V 20.125 c 0,0.529417 -0.419801,0.951172 -0.949219,0.951172 H 30.669922 C 30.140505,21.076171 29.71875,20.654417 29.71875,20.125 v -2.609375 c 0,-0.529417 0.421755,-0.949218 0.951172,-0.949219 z m -8.802735,6.400391 c -0.934746,0 -1.699218,0.764472 -1.699218,1.699219 v 2.611328 c 0,0.934747 0.764472,1.699218 1.699218,1.699218 h 4.259766 c 0.934747,10e-7 1.701172,-0.764471 1.701172,-1.699218 v -2.611328 c 0,-0.934747 -0.766425,-1.699219 -1.701172,-1.699219 z m 0,0.75 h 4.259766 c 0.529417,0 0.951172,0.419801 0.951172,0.949219 v 2.611328 c 0,0.529417 -0.421755,0.949219 -0.951172,0.949218 h -4.259766 c -0.529417,0 -0.949218,-0.419801 -0.949218,-0.949218 v -2.611328 c 0,-0.529418 0.419801,-0.949219 0.949218,-0.949219 z m 0,6.398437 c -0.934746,0 -1.699218,0.766425 -1.699218,1.701172 v 2.607422 c 0,0.934746 0.764472,1.701172 1.699218,1.701172 h 4.259766 c 0.934746,0 1.701171,-0.766426 1.701172,-1.701172 v -2.607422 c 0,-0.934747 -0.766425,-1.701172 -1.701172,-1.701172 z m 0,0.75 h 4.259766 c 0.529417,0 0.951172,0.421755 0.951172,0.951172 v 2.607422 c 0,0.529417 -0.421755,0.951172 -0.951172,0.951172 h -4.259766 c -0.529416,0 -0.949218,-0.421755 -0.949218,-0.951172 v -2.607422 c 0,-0.529417 0.419801,-0.951172 0.949218,-0.951172 z"
     id="path9" />
</svg>
