<?xml version="1.0" encoding="UTF-8" standalone="no"?>
<!-- Generator: Gravit.io -->

<svg
   style="isolation:isolate"
   viewBox="0 0 48 48"
   width="48pt"
   height="48pt"
   version="1.1"
   id="svg9"
   sodipodi:docname="timeshift.svg"
   inkscape:version="1.1.2 (0a00cf5339, 2022-02-04)"
   xmlns:inkscape="http://www.inkscape.org/namespaces/inkscape"
   xmlns:sodipodi="http://sodipodi.sourceforge.net/DTD/sodipodi-0.dtd"
   xmlns:xlink="http://www.w3.org/1999/xlink"
   xmlns="http://www.w3.org/2000/svg"
   xmlns:svg="http://www.w3.org/2000/svg">
  <defs
     id="defs13">
    <linearGradient
       inkscape:collect="always"
       xlink:href="#_lgradient_3"
       id="linearGradient872"
       x1="-12.025727"
       y1="6.1170783"
       x2="-0.085100174"
       y2="6.1170783"
       gradientUnits="userSpaceOnUse"
       gradientTransform="matrix(3.8358211,0,0,3.8371386,-0.00544341,-0.00268054)" />
    <linearGradient
       inkscape:collect="always"
       xlink:href="#_lgradient_3"
       id="linearGradient15"
       x1="-9.6850061"
       y1="45.161198"
       x2="11.98815"
       y2="21.735205"
       gradientUnits="userSpaceOnUse"
       gradientTransform="matrix(1.1147442,0,0,1.1150348,-0.01237238,-3.3277956)" />
    <linearGradient
       inkscape:collect="always"
       xlink:href="#_lgradient_3"
       id="linearGradient1386"
       x1="10.813221"
       y1="24.68021"
       x2="34.776581"
       y2="24.68021"
       gradientUnits="userSpaceOnUse" />
  </defs>
  <sodipodi:namedview
     id="namedview11"
     pagecolor="#ffffff"
     bordercolor="#666666"
     borderopacity="1.0"
     inkscape:pageshadow="2"
     inkscape:pageopacity="0.0"
     inkscape:pagecheckerboard="0"
     inkscape:document-units="pt"
     showgrid="false"
     inkscape:zoom="10.21875"
     inkscape:cx="31.95107"
     inkscape:cy="36.012232"
     inkscape:window-width="1600"
     inkscape:window-height="836"
     inkscape:window-x="0"
     inkscape:window-y="0"
     inkscape:window-maximized="1"
     inkscape:current-layer="svg9" />
  <linearGradient
     id="_lgradient_3"
     x1="0"
     y1="0.5"
     x2="0.9074880558539661"
     y2="0.9200778838291643"
     gradientTransform="matrix(48,0,0,48,-1.0019621,1.4549124)"
     gradientUnits="userSpaceOnUse">
    <stop
       offset="0%"
       stop-opacity="1"
       style="stop-color:rgb(255,65,108)"
       id="stop2" />
    <stop
       offset="84.34782608695653%"
       stop-opacity="1"
       style="stop-color:rgb(255,75,43)"
       id="stop4" />
  </linearGradient>
  <rect
     x="-46.783188"
     y="1.2253767"
     height="45.80014"
     rx="6.1837621"
     shape-rendering="crispEdges"
     id="rect5-6-7-3"
     ry="6.8055277"
     transform="matrix(0.00524063,-0.99998627,0.99998801,0.00489691,0,0)"
     style="isolation:isolate;fill:#ff2000;fill-opacity:0.13470298;stroke:url(#linearGradient872);stroke-width:2.0301;stroke-miterlimit:4;stroke-dasharray:none;stroke-opacity:1"
     width="45.801998" />
  <rect
     x="-15.686804"
     y="17.260084"
     height="33.345856"
     rx="6.7920032"
     shape-rendering="crispEdges"
     id="rect5-6-6-6-6"
     style="isolation:isolate;fill:#ff2000;fill-opacity:0.13470298;stroke:url(#linearGradient15);stroke-width:1.67233;stroke-miterlimit:4;stroke-dasharray:none;stroke-opacity:1"
     ry="7.4743071"
     transform="matrix(0.72446484,-0.68931175,0.68622417,0.72739012,0,0)"
     width="33.338203" />
  <path
     style="color:#000000;fill:url(#linearGradient1386);fill-rule:evenodd;-inkscape-stroke:none"
     d="m 34.568359,13.214844 c -0.179757,7.53e-4 -0.336267,0.04512 -0.509765,0.109375 -1.553297,0.57526 -2.481321,0.944421 -4.041016,0.871094 -2.947384,-0.216065 -5.668373,-0.65238 -8.792969,-0.957032 -2.586337,-0.251159 -5.206795,0.494944 -7.240234,1.740235 -2.033439,1.245291 -3.525051,3.001463 -3.667969,4.912109 l -0.002,0.01563 v 0.01758 c -0.0047,0.680782 -0.0298,1.419243 0.251953,2.085938 0.281754,0.666695 0.989179,1.175781 2.003907,1.175781 0.732705,0 1.290729,-0.301104 1.671875,-0.677735 0.381145,-0.37663 0.63178,-0.793543 0.953125,-1.152343 l 0.300781,-0.335938 -1.384766,-1.523437 c -0.250325,-0.275438 -0.417565,-0.576877 -0.519531,-0.833985 -0.101967,-0.257107 -0.132813,-0.4949 -0.132813,-0.517578 0,-0.264959 0.143563,-0.446142 0.570313,-0.640625 0.426749,-0.194482 1.087502,-0.3125 1.798828,-0.3125 0.895703,0 2.391303,0.164493 3.685547,0.376953 0.647122,0.10623 1.248344,0.224067 1.701172,0.335938 0.217587,0.05375 0.396129,0.107021 0.527343,0.152344 -0.09426,0.172648 -0.289554,0.437907 -0.585937,0.74414 -0.753868,0.777954 -1.44482,1.575109 -1.958984,2.275391 -0.257082,0.350141 -0.47017,0.67485 -0.626954,0.972656 -0.156783,0.297807 -0.273437,0.555866 -0.273437,0.876953 0,0.270552 0.09871,0.439869 0.208984,0.626953 0.110273,0.187085 0.25108,0.380856 0.419922,0.591797 0.337684,0.421883 0.78535,0.910345 1.269531,1.439453 0.946294,1.0341 2.018978,2.221248 2.652344,3.205078 0.09639,0.334551 0.02053,0.605008 -0.291015,0.876954 -0.324046,0.282852 -0.90246,0.509765 -1.636719,0.509765 -1.141237,0 -2.188722,0.315756 -3.857422,1.365235 -0.610664,0.384259 -1.237243,0.812814 -1.761719,1.199218 -0.524475,0.386405 -0.930971,0.707311 -1.175781,0.97461 -0.161474,0.176433 -0.284087,0.310562 -0.378906,0.425781 -0.04741,0.05761 -0.08775,0.108521 -0.128906,0.175781 -0.04115,0.06726 -0.118427,0.140404 -0.09766,0.376953 0.01038,0.118275 0.08724,0.276086 0.191407,0.361328 0.104161,0.08524 0.199142,0.107055 0.265625,0.117188 0.132965,0.02027 0.196616,0.0042 0.263671,-0.0078 0.134111,-0.02408 0.26225,-0.06394 0.435547,-0.113281 l 0.0098,-0.002 0.0078,-0.002 c 1.260008,-0.405444 2.304149,-0.769779 3.503907,-0.873047 1.107914,-0.03292 2.580909,0.24907 5.484375,1.273438 0.545469,0.192518 1.123596,0.369301 1.625,0.5 0.501403,0.130698 0.885493,0.221886 1.21875,0.222656 1.35308,0.0034 2.91389,-0.810205 4.220703,-1.654297 0.653406,-0.422046 1.231301,-0.857481 1.660156,-1.232422 0.214427,-0.18747 0.392133,-0.358023 0.529297,-0.517578 0.06858,-0.07978 0.127479,-0.156185 0.179687,-0.244141 0.05221,-0.08796 0.115235,-0.181066 0.115235,-0.376953 0,-0.228022 -0.0472,-0.478142 -0.226563,-0.683594 -0.17936,-0.205451 -0.455838,-0.290466 -0.691406,-0.292968 -0.471135,-0.005 -0.937571,0.188313 -1.589844,0.509765 -0.601011,0.296285 -1.856954,0.494141 -2.425781,0.494141 -0.471509,0 -1.344034,-0.261383 -2.080078,-0.601563 -0.368022,-0.170089 -0.70911,-0.357458 -0.966797,-0.52539 -0.186478,-0.121526 -0.248251,-0.189881 -0.3125,-0.25 0.02832,-0.0632 0.05146,-0.120765 0.109375,-0.216797 0.168751,-0.279806 0.453934,-0.657865 0.816406,-1.033203 0.906033,-0.938321 1.413914,-1.688421 1.423828,-2.541016 v -0.002 c 0.01,-0.958357 -0.604384,-1.803816 -1.759765,-2.982422 -1.131029,-1.154865 -1.794517,-1.991556 -2.101563,-2.611328 -0.307045,-0.619772 -0.302865,-0.978812 -0.123047,-1.447266 0.126183,-0.328892 0.249533,-0.530365 0.361328,-0.648437 0.111796,-0.118072 0.211648,-0.174693 0.40625,-0.21875 0.389206,-0.08811 1.150811,-0.02582 2.369141,0.08398 h 0.002 c 1.680797,0.151061 2.901594,-0.04472 3.945313,-0.52539 1.043718,-0.480675 1.882763,-1.216041 2.896484,-2.095703 0.873129,-0.757792 1.498228,-1.462382 1.806641,-2.039063 0.0771,-0.14417 0.136303,-0.282125 0.167968,-0.441406 0.03167,-0.159281 0.04046,-0.37829 -0.107421,-0.583984 -0.147877,-0.205695 -0.402274,-0.278097 -0.582032,-0.277344 z m -13.441406,1.019531 c 3.090508,0.301329 5.819935,0.739209 8.822266,0.958984 h 0.0059 0.0078 c 1.519885,0.073 2.612485,-0.28301 3.882812,-0.746093 -0.277035,0.380929 -0.590781,0.812147 -1.216797,1.355468 -1.013203,0.879214 -1.786585,1.539092 -2.660156,1.941407 -0.873571,0.402315 -1.874332,0.578164 -3.439453,0.4375 -1.209242,-0.108988 -1.990551,-0.22047 -2.679688,-0.06445 -0.344568,0.07801 -0.667002,0.248945 -0.912109,0.507813 -0.245107,0.258868 -0.416551,0.58283 -0.568359,0.978516 -0.261559,0.681399 -0.23654,1.447315 0.160156,2.248046 0.396695,0.800732 1.122105,1.68162 2.283203,2.867188 1.106437,1.128678 1.479807,1.773168 1.474609,2.273437 -0.0053,0.454486 -0.294469,0.981042 -1.142578,1.859375 -0.411357,0.425959 -0.734724,0.846853 -0.953125,1.208985 -0.1092,0.181066 -0.193679,0.344871 -0.25,0.509765 -0.05632,0.164895 -0.168199,0.348288 0.0332,0.666016 l 0.002,0.002 v 0.002 c 0.178323,0.277931 0.418291,0.440408 0.728516,0.642578 0.310225,0.202171 0.687113,0.407767 1.09375,0.595704 0.813274,0.375873 1.717411,0.693359 2.498047,0.693359 0.751514,0 1.986899,-0.162731 2.869141,-0.597656 0.449241,-0.221395 0.655248,-0.259415 0.849609,-0.304688 -0.0819,0.08283 -0.148464,0.15758 -0.267578,0.261719 -0.38153,0.333565 -0.929725,0.747165 -1.544922,1.144531 -1.230393,0.794732 -2.771779,1.496417 -3.675781,1.494141 -0.07686,-1.78e-4 -0.499076,-0.06898 -0.96875,-0.191406 -0.469675,-0.12243 -1.025724,-0.292053 -1.542969,-0.47461 -2.956857,-1.043204 -4.556938,-1.372986 -5.861328,-1.332031 h -0.01367 l -0.01367,0.002 c -0.92145,0.07764 -1.717483,0.37141 -2.539062,0.625 0.128222,-0.10095 0.156903,-0.141635 0.30664,-0.251953 0.50272,-0.370376 1.111726,-0.788524 1.699219,-1.158203 1.593321,-1.002071 2.351453,-1.212891 3.326172,-1.212891 0.932743,0 1.739765,-0.271275 2.294922,-0.755859 0.555156,-0.484584 0.834308,-1.247908 0.59375,-1.978516 l -0.01953,-0.05859 -0.03125,-0.05078 c -0.712477,-1.134518 -1.860196,-2.366267 -2.826171,-3.421875 -0.482988,-0.527804 -0.920563,-1.010765 -1.22461,-1.390625 -0.152023,-0.189929 -0.269915,-0.355972 -0.339844,-0.474609 -0.06993,-0.118638 -0.07031,-0.200024 -0.07031,-0.119141 0,0.0038 0.03673,-0.179417 0.158203,-0.410156 0.121475,-0.230739 0.311374,-0.524248 0.548828,-0.847656 0.474908,-0.646817 1.142656,-1.420164 1.871094,-2.171875 0.349029,-0.360629 0.608732,-0.687112 0.773437,-1.001953 0.08235,-0.157421 0.144736,-0.311103 0.16211,-0.5 0.01737,-0.188898 -0.04188,-0.453266 -0.226563,-0.619141 -0.173989,-0.15659 -0.307841,-0.192287 -0.488281,-0.255859 -0.18044,-0.06357 -0.394213,-0.124671 -0.640625,-0.185547 -0.492823,-0.121752 -1.113063,-0.242195 -1.779297,-0.351563 -1.332468,-0.218734 -2.834831,-0.390625 -3.847656,-0.390625 -0.807094,0 -1.571041,0.117681 -2.195312,0.398438 0.309134,-0.24906 0.513309,-0.53946 0.873046,-0.759766 1.855796,-1.136501 4.292258,-1.821344 6.621094,-1.595703 z m -8.382812,3.130859 c -0.15189,0.232826 -0.285157,0.479883 -0.285157,0.779297 0,0.251052 0.06262,0.530481 0.203125,0.884766 0.140507,0.354285 0.364494,0.759621 0.708985,1.138672 l 0.791015,0.871093 c -0.219951,0.280076 -0.446519,0.583377 -0.623046,0.757813 -0.258425,0.255363 -0.470147,0.388672 -0.96875,0.388672 -0.75078,0 -0.924776,-0.19235 -1.082032,-0.564453 -0.155078,-0.366952 -0.175828,-0.998116 -0.171875,-1.666016 0.06743,-0.861402 0.645039,-1.746731 1.427735,-2.589844 z"
     id="path7" />
</svg>
