<?xml version="1.0" encoding="UTF-8" standalone="no"?>
<!-- Generator: Gravit.io -->

<svg
   style="isolation:isolate"
   viewBox="0 0 48 48"
   width="48pt"
   height="48pt"
   version="1.1"
   id="svg20"
   sodipodi:docname="twitter.svg"
   inkscape:version="1.1.2 (0a00cf5339, 2022-02-04)"
   xmlns:inkscape="http://www.inkscape.org/namespaces/inkscape"
   xmlns:sodipodi="http://sodipodi.sourceforge.net/DTD/sodipodi-0.dtd"
   xmlns:xlink="http://www.w3.org/1999/xlink"
   xmlns="http://www.w3.org/2000/svg"
   xmlns:svg="http://www.w3.org/2000/svg">
  <defs
     id="defs24">
    <linearGradient
       inkscape:collect="always"
       xlink:href="#_lgradient_14"
       id="linearGradient872"
       x1="-12.025727"
       y1="6.1170783"
       x2="-0.085100174"
       y2="6.1170783"
       gradientUnits="userSpaceOnUse"
       gradientTransform="matrix(3.8358211,0,0,3.8371386,-0.00544341,-0.00268054)" />
    <linearGradient
       inkscape:collect="always"
       xlink:href="#_lgradient_14"
       id="linearGradient15"
       x1="-9.6850061"
       y1="45.161198"
       x2="11.98815"
       y2="21.735205"
       gradientUnits="userSpaceOnUse"
       gradientTransform="matrix(1.1147442,0,0,1.1150348,-0.01237238,-3.3277956)" />
    <linearGradient
       inkscape:collect="always"
       xlink:href="#_lgradient_14"
       id="linearGradient994"
       x1="9.5823278"
       y1="23.974545"
       x2="37.079754"
       y2="23.974545"
       gradientUnits="userSpaceOnUse"
       gradientTransform="translate(2.05e-4,-3.79e-4)" />
  </defs>
  <sodipodi:namedview
     id="namedview22"
     pagecolor="#ffffff"
     bordercolor="#666666"
     borderopacity="1.0"
     inkscape:pageshadow="2"
     inkscape:pageopacity="0.0"
     inkscape:pagecheckerboard="0"
     inkscape:document-units="pt"
     showgrid="false"
     inkscape:zoom="5.109375"
     inkscape:cx="32"
     inkscape:cy="32"
     inkscape:window-width="1056"
     inkscape:window-height="545"
     inkscape:window-x="232"
     inkscape:window-y="228"
     inkscape:window-maximized="0"
     inkscape:current-layer="svg20" />
  <linearGradient
     id="_lgradient_14"
     x1="-1.771963500651208"
     y1="0.41722408026755853"
     x2="2.2023804857359712"
     y2="0.43849705508035525"
     gradientTransform="matrix(6.3455768,0,0,7.5508008,23.397222,12.957114)"
     gradientUnits="userSpaceOnUse">
    <stop
       offset="0%"
       stop-opacity="1"
       style="stop-color:rgb(84,51,255)"
       id="stop2" />
    <stop
       offset="51.73913043478261%"
       stop-opacity="1"
       style="stop-color:rgb(32,189,255)"
       id="stop4" />
    <stop
       offset="98.26086956521739%"
       stop-opacity="1"
       style="stop-color:rgb(165,254,203)"
       id="stop6" />
  </linearGradient>
  <rect
     x="-46.783188"
     y="1.2253767"
     height="45.80014"
     rx="6.1837621"
     shape-rendering="crispEdges"
     id="rect5-6-7-3"
     ry="6.8055277"
     transform="matrix(0.00524063,-0.99998627,0.99998801,0.00489691,0,0)"
     style="isolation:isolate;fill:#00b2ff;fill-opacity:0.13470298;stroke:url(#linearGradient872);stroke-width:2.0301;stroke-miterlimit:4;stroke-dasharray:none;stroke-opacity:1"
     width="45.801998" />
  <rect
     x="-15.686804"
     y="17.260084"
     height="33.345856"
     rx="6.7920032"
     shape-rendering="crispEdges"
     id="rect5-6-6-6-6"
     style="isolation:isolate;fill:#00b2ff;fill-opacity:0.13470298;stroke:url(#linearGradient15);stroke-width:1.67233;stroke-miterlimit:4;stroke-dasharray:none;stroke-opacity:1"
     ry="7.4743071"
     transform="matrix(0.72446484,-0.68931175,0.68622417,0.72739012,0,0)"
     width="33.338203" />
  <linearGradient
     id="_lgradient_15"
     x1="0"
     y1="0.5"
     x2="1"
     y2="0.5"
     gradientTransform="matrix(29.313017,0,0,22.097456,8.2520576,12.9508)"
     gradientUnits="userSpaceOnUse">
    <stop
       offset="0%"
       stop-opacity="1"
       style="stop-color:rgb(84,51,255)"
       id="stop11" />
    <stop
       offset="51.73913043478261%"
       stop-opacity="1"
       style="stop-color:rgb(32,189,255)"
       id="stop13" />
    <stop
       offset="98.26086956521739%"
       stop-opacity="1"
       style="stop-color:rgb(165,254,203)"
       id="stop15" />
  </linearGradient>
  <path
     id="path14"
     style="color:#000000;isolation:isolate;fill:url(#linearGradient994);fill-rule:evenodd;stroke-width:0.999997;-inkscape-stroke:none;fill-opacity:1.0"
     d="m 23.91378,19.066027 c -0.755685,-0.0451 -1.507339,-0.148465 -2.25,-0.314941 -0.847907,-0.19518 -1.662378,-0.501636 -2.431641,-0.909669 l -0.0029,-0.0015 c -0.694041,-0.385002 -1.348015,-0.853134 -1.939453,-1.385742 l -0.0029,-0.0015 c -0.897419,-0.81744 -1.718936,-1.718824 -2.44043,-2.696777 L 14.629659,13.46 14.383565,13.732461 c -0.700131,0.767058 -1.180715,1.71997 -1.393066,2.748046 l -0.0015,0.0015 c -0.127953,0.561695 -0.196289,1.132958 -0.196289,1.715333 v 0.0015 0.0015 c 0.0064,0.611872 0.155115,1.217774 0.436524,1.760742 v 0.0015 c 0.09176,0.184989 0.207053,0.351064 0.316406,0.522949 -0.133177,0.06145 -0.292031,0.06908 -0.395508,0.175781 l -0.0015,0.0029 -0.0015,0.0015 c -0.202981,0.217351 -0.329029,0.505459 -0.336914,0.814453 v 0.0044 0.01465 0.06298 0.04687 0.0044 c 0.02521,0.831909 0.26031,1.637489 0.676758,2.34668 0.278696,0.486723 0.639981,0.91604 1.004883,1.338867 -0.148524,0.03422 -0.301508,0.04159 -0.445313,0.09961 l -0.212403,0.08789 0.02783,0.228515 c 0.131499,1.071843 0.576768,2.066538 1.271484,2.874024 0.450627,0.528314 0.974265,0.993582 1.54834,1.375488 0.110664,0.07526 0.235533,0.129691 0.350097,0.199219 -0.794517,0.320609 -1.62968,0.545699 -2.487304,0.556641 -1.700472,0 -3.360508,-0.496042 -4.798828,-1.435547 L 9.34,29.717063 c 0.02155,0.02908 0.05587,0.04291 0.07764,0.07177 1.803243,2.391556 4.348719,4.083554 7.229003,4.727051 1.384574,0.310369 2.79393,0.457725 4.214356,0.445312 2.216534,0.01781 4.410071,-0.460569 6.432129,-1.40039 v -0.0029 h 0.0015 c 1.809676,-0.855008 3.419624,-2.089539 4.743164,-3.62256 1.237716,-1.43813 2.214583,-3.09968 2.878418,-4.904296 0.640183,-1.712579 0.972298,-3.523552 0.984375,-5.354004 v -0.0015 -0.03076 -0.128906 l -0.0044,-0.03369 0.0044,-0.04248 v -0.06446 c 0,-0.09387 -0.0036,-0.186887 -0.0073,-0.279785 0.534389,-0.510686 1.034051,-1.067654 1.437011,-1.671387 L 37.90598,16.559825 36.956761,16.9817 c -0.412053,0.183209 -0.895372,0.292016 -1.385742,0.38379 -0.01454,-0.04145 -0.03046,-0.08123 -0.04687,-0.123048 0.541694,-0.467463 1.046177,-0.998961 1.278808,-1.72705 l 0.2417,-0.754394 -0.681153,0.404296 C 35.907453,15.436353 35.36015,15.632 34.799051,15.798107 34.669015,15.591908 34.539338,15.384852 34.3845,15.20045 29.836825,11.948681 25.988613,13.641077 23.913885,19.066052 Z m 10.010742,-3.479004 c 0.192561,0.229329 0.362798,0.470769 0.500976,0.723633 l 0.114258,0.206543 0.22998,-0.06299 c 0.31514,-0.08595 0.589583,-0.243162 0.890625,-0.360351 -0.217646,0.292025 -0.353899,0.631669 -0.65625,0.873047 l -0.186035,0.147949 0.102539,0.215332 c 0.06848,0.145443 0.120062,0.307289 0.172852,0.481934 l 0.07617,0.251953 0.260743,-0.04102 c 0.271321,-0.04353 0.517644,-0.14974 0.782226,-0.216796 -0.272489,0.326303 -0.515264,0.67047 -0.829101,0.962402 l -0.104005,0.09668 0.0074,0.140625 c 0.0069,0.123444 0.01172,0.246667 0.01172,0.36914 v 0.03515 l -0.0074,0.0791 0.0074,0.06298 v 0.09229 0.0293 c -0.01161,1.760337 -0.330937,3.501309 -0.946289,5.147461 -0.639077,1.737314 -1.581042,3.33799 -2.771484,4.721192 -1.270261,1.47101 -2.81249,2.655094 -4.543946,3.473144 -1.943494,0.902904 -4.048147,1.362661 -6.175781,1.344727 h -0.0015 -0.0044 c -1.374917,0.01201 -2.735495,-0.133283 -4.075195,-0.433594 -2.194876,-0.490366 -4.081399,-1.751655 -5.674805,-3.353027 1.10075,0.440785 2.246215,0.748535 3.439453,0.748535 h 0.0029 0.0015 c 1.041837,-0.01271 2.072233,-0.241697 3.021972,-0.673828 0.120841,-0.05433 0.224575,-0.09871 0.290039,-0.120118 l -0.106979,-0.585939 0.142089,0.02783 C 17.593647,29.829387 17.30069,29.65927 17.017288,29.466411 v -0.0015 h -0.0015 C 16.488356,29.11405 16.005993,28.686162 15.591959,28.20075 l -0.0015,-0.0015 c -0.558501,-0.648529 -0.865205,-1.460514 -1.019531,-2.308593 0.150803,-0.03883 0.296405,-0.09259 0.454102,-0.102539 l 0.65332,-0.04102 -0.455566,-0.46875 -0.05127,0.05713 0.04102,-0.06445 c 0.0015,0.0012 0.01131,0.0084 0.01025,0.0073 -0.0029,-0.003 -0.0044,-0.0058 -0.0073,-0.0088 -0.464243,-0.480166 -0.875132,-1.024595 -1.210011,-1.609863 v -0.0015 -0.0029 c -0.365195,-0.622005 -0.570991,-1.328061 -0.593159,-2.059488 v -0.03369 -0.06299 -0.0029 c 0.0039,-0.154249 0.06745,-0.303797 0.171387,-0.416015 0.107957,-0.110346 0.247265,-0.171923 0.389648,-0.175782 l 0.571289,-0.01611 -0.336914,-0.46289 c -0.167386,-0.230132 -0.31315,-0.471703 -0.442382,-0.732422 v -0.0015 l -0.0015,-0.0029 c -0.237259,-0.455984 -0.363108,-0.970596 -0.369106,-1.491192 v -0.0029 -0.0015 c 3.02e-4,-0.537212 0.0623,-1.061972 0.18164,-1.583496 l 0.0015,-0.0044 v -0.0015 c 0.166489,-0.807879 0.586883,-1.519928 1.089844,-2.154785 0.677816,0.872496 1.400786,1.707921 2.214844,2.449218 l 0.0029,0.0015 c 0.626961,0.564892 1.319729,1.061048 2.05664,1.469239 h 0.0015 l 0.0044,0.0015 c 0.816039,0.433285 1.681187,0.762158 2.583984,0.969726 h 0.0015 c 2.502284,0.425232 5.564905,0.05926 7.464843,1.959962 0.998535,1.029633 1.562989,2.433256 1.562989,3.895019 0,1.461763 -0.564453,2.865385 -1.562989,3.895019 -0.998535,1.029633 -2.352781,1.606934 -3.763183,1.606934 h -0.03955 l -0.105468,-0.0073 h -0.03955 l -0.130372,0.0058 -0.115722,-0.0044 -0.0015,-0.01319 -0.147948,0.0059 v 0.01172 l -0.01611,0.0015 h -4.064941 -0.0205 -0.0088 c -0.136727,-0.0036 -0.276365,-0.01424 -0.418946,-0.0249 l -0.104004,-0.0088 -0.08642,0.0586 c -0.600453,0.40522 -1.234224,0.756931 -1.894043,1.051757 h -0.0015 c -0.328138,0.148404 -0.659767,0.277986 -0.996093,0.383789 l -1.075195,0.338379 1.100097,0.2417 c 1.242496,0.273652 2.514482,0.403542 3.786622,0.391113 1.967881,0.01785 3.913104,-0.406527 5.704101,-1.236328 l 0.0015,-0.0015 c 1.577749,-0.750904 2.990532,-1.83224 4.142632,-3.169981 1.101903,-1.273565 1.967956,-2.751522 2.554688,-4.347656 v -0.0029 c 0.562922,-1.498598 0.853626,-3.083775 0.865722,-4.69336 v -0.0015 -0.09961 l -0.0059,-0.112792 0.0059,-0.104004 v -0.01025 c -0.0063,-1.089717 -0.391257,-2.140412 -1.089843,-2.958984 -2.86415,-2.915105 -6.381852,-0.0922 -7.144048,2.821288 l 0.04687,0.01319 c -0.322204,-0.07418 -0.642039,-0.121291 -0.956543,-0.130371 h -0.07177 -0.0015 c -0.157786,0.0017 -0.315627,-0.0053 -0.473144,-0.0088 1.906226,-5.653725 7.064462,-5.813026 9.490723,-3.498047 z m -1.350586,1.192384 c 0.603922,0.70765 0.941797,1.622999 0.947753,2.572265 v 0.0015 l -0.0059,0.106934 0.0059,0.128906 v 0.08642 c -0.01202,1.539528 -0.289901,3.055899 -0.827636,4.486817 v 0.0015 c -0.562189,1.529928 -1.392831,2.944046 -2.446289,4.161621 v 0.0029 c -0.04056,0.04711 -0.09353,0.07953 -0.134766,0.125977 0.616936,-0.981465 1.048828,-2.073144 1.048828,-3.259278 0,-1.616055 -0.620165,-3.16812 -1.72998,-4.3125 -1.036454,-0.680181 -2.143464,-1.286544 -3.228516,-1.587891 l 0.166992,0.04394 c 0.89773,-3.364126 4.678984,-4.788751 6.203614,-2.559143 z m -1.41504,-0.433595 c -0.821772,0 -1.486816,0.689008 -1.486816,1.520508 0,0.831969 0.66523,1.521973 1.486816,1.521972 0.821586,0 1.483887,-0.690003 1.483887,-1.521972 0,-0.8315 -0.662114,-1.520508 -1.483887,-1.520508 z m -16.359375,0.184571 -0.115722,0.555175 c -0.07528,0.362229 -0.112794,0.731546 -0.112794,1.100098 v 0.0015 0.0044 c 0.0068,0.321257 0.08137,0.635224 0.231446,0.925781 v 0.0015 c 0.173577,0.350952 0.397928,0.667761 0.65625,0.953613 h 0.0029 c 0.289451,0.317517 0.601791,0.608796 0.933106,0.874512 v 0.0015 c 0.872763,0.694523 1.874724,1.182747 2.881347,1.64502 -1.293015,0.233127 -2.611116,0.273195 -3.902343,-0.0058 l 0.07325,0.0249 c -0.08445,-0.04351 -0.161013,-0.03808 -0.172852,-0.03808 h -0.518555 l 0.256348,0.448242 c 0.308492,0.54077 0.690885,1.044898 1.144043,1.480957 6.51e-4,6.54e-4 0.0022,7.5e-4 0.0029,0.0015 6.64e-4,6.39e-4 7.5e-4,0.0023 0.0015,0.0029 0.45581,0.456947 0.953312,0.863366 1.486816,1.220216 l 0.0015,0.0015 c 0.0012,8.25e-4 0.0032,0.0021 0.0044,0.0029 1.054415,0.740169 2.295339,1.14141 3.571289,1.173339 0.288833,0.0072 0.564922,-0.07413 0.84961,-0.105468 -1.481496,0.648788 -3.057932,1.01738 -4.678712,0.725097 l -1.072194,-0.193374 0.820313,0.716309 c 0.167063,0.145764 0.336789,0.267296 0.505371,0.385253 l 0.0015,0.0015 0.0029,0.0029 c 0.456674,0.305447 0.9453,0.554289 1.458984,0.739746 0.471369,0.177342 0.966699,0.26766 1.463379,0.287109 h 0.0058 3.98584 0.02929 l 0.09375,-0.01025 0.246094,0.01171 0.0586,-0.0073 0.07471,-0.0059 0.181641,0.01172 h 0.0088 c 1.094954,-0.0066 2.150351,-0.461524 2.922363,-1.26416 0.772516,-0.796573 1.202636,-1.878634 1.202637,-3.005859 0,-1.127224 -0.431151,-2.209632 -1.202637,-3.011719 l -0.0015,-0.0015 c -0.777258,-0.794968 -1.831734,-1.24878 -2.926693,-1.255376 h -0.0044 l -0.210938,0.0059 -0.08936,-0.0059 h -0.04687 -0.0015 c -1.220116,0.01198 -2.428293,-0.121259 -3.621119,-0.385254 -0.997345,-0.232063 -1.966697,-0.592779 -2.871094,-1.07959 l -0.0029,-0.0029 c -0.826223,-0.45318 -1.593479,-0.994472 -2.291064,-1.630556 l -0.0015,-0.0029 -0.0015,-0.0015 c -0.316717,-0.279367 -0.619152,-0.577606 -0.918458,-0.886231 z m 16.359375,0.416015 c 0.485877,0 0.881836,0.404268 0.881836,0.919922 0,0.51641 -0.39577,0.919922 -0.881836,0.919922 -0.486065,0 -0.884766,-0.403512 -0.884766,-0.919922 0,-0.515654 0.398889,-0.919922 0.884766,-0.919922 z m -15.946289,0.84375 c 0.166286,0.162335 0.326266,0.329624 0.502442,0.484864 0.734082,0.668878 1.538377,1.238127 2.403808,1.712402 h 0.0029 c 0.95384,0.513698 1.974804,0.897013 3.024903,1.141113 h 0.0015 c 1.234695,0.273262 2.489232,0.410723 3.755859,0.398438 h 0.02637 l 0.09668,0.0058 0.225585,-0.0058 h 0.0015 c 0.929793,0.0061 1.828832,0.394255 2.496094,1.07666 0.66054,0.687778 1.032715,1.61873 1.032715,2.591308 0,0.973509 -0.372024,1.907115 -1.032715,2.588379 h -0.0015 c -0.660152,0.686365 -1.55832,1.072817 -2.487279,1.07959 l -0.190431,-0.01172 -0.139159,0.0073 -0.0249,0.0044 -0.238769,-0.01172 -0.101075,0.01172 h -3.978515 -0.0029 c -0.434886,-0.01818 -0.859826,-0.09654 -1.261256,-0.247564 l -0.0015,-0.0029 h -0.0029 c -0.38008,-0.136935 -0.732856,-0.336771 -1.081055,-0.547852 2.378757,0.160599 4.740944,-0.508683 6.550781,-2.135742 0.01911,-0.01172 0.04104,-0.01444 0.06006,-0.02637 l -0.0044,-0.0058 c 0.01419,-0.01295 0.03568,-0.01478 0.04981,-0.02783 l -0.363334,-0.47607 c -0.993891,0.623061 -2.133019,0.940165 -3.292968,0.911134 -1.161709,-0.02907 -2.2867,-0.393868 -3.244629,-1.067872 l -0.0044,-0.0015 -0.0015,-0.0029 c -0.50514,-0.337346 -0.976456,-0.719975 -1.406275,-1.151363 l -0.0015,-0.0029 -0.0029,-0.0029 c -0.253445,-0.243438 -0.43852,-0.548088 -0.644531,-0.83496 1.441355,0.215466 2.907543,0.195171 4.322753,-0.184571 L 21.15683,22.814605 20.283784,22.483551 C 19.023321,22.006588 17.836661,21.325912 16.771088,20.47818 h -0.0015 c -0.307317,-0.246759 -0.595983,-0.517701 -0.862645,-0.810102 -0.226954,-0.251141 -0.4193,-0.521602 -0.56543,-0.817383 l -0.0015,-0.0015 v -0.0044 c -0.108238,-0.208002 -0.16314,-0.427234 -0.168421,-0.664974 -1.5e-5,-6.54e-4 1.4e-5,-0.0023 0,-0.0029 2.09e-4,-0.129536 0.03035,-0.257563 0.04102,-0.386718 z m 8.789063,1.281739 0.241699,0.01025 c -0.08057,-0.0029 -0.161222,-0.0059 -0.241699,-0.01025 z m -8.833008,6.168457 c 0.0087,0.0045 0.0098,0.0062 0.01904,0.01319 l -0.09814,0.109863 z m 11.794922,5.702636 c -0.225666,0.126158 -0.427134,0.293167 -0.660645,0.404297 -1.712773,0.79326 -3.568742,1.200013 -5.447753,1.182129 l -0.0029,-0.0029 -0.0029,0.0029 c -0.830719,0.0081 -1.651133,-0.13807 -2.472657,-0.256348 0.623148,-0.284112 1.223613,-0.616218 1.797364,-0.996093 0.119158,0.0084 0.239475,0.01596 0.363281,0.01904 h 0.0044 0.03223 4.083984 l 0.06885,-0.0029 0.03662,0.0015 0.01025,-0.0015 0.150879,0.0059 0.140625,-0.0088 h 0.0073 l 0.106934,0.0058 h 0.05566 c 0.598542,0 1.166799,-0.174657 1.728516,-0.353028 z"
     sodipodi:nodetypes="cccccccccccscccccccccccccccccccccccccccccccccccccccsccccccccccccccccccccccccccscccccccccccccsccccccccccccccccccsccccccccccccccccsccccccccccccssscccccccccccccccccccccccccccccccccccccccccccccccccccsccccccssccssccccccccccsccccccccccccccccccccccccccccsccccccccccccccccssscsccccccccccccscccccccccccccccccccsccccccccccccccccscccccccccccccccccccccccccccscccscc" />
</svg>
