<?xml version="1.0" encoding="UTF-8" standalone="no"?>
<!-- Generator: Gravit.io -->

<svg
   style="isolation:isolate"
   viewBox="0 0 48 48"
   width="48pt"
   height="48pt"
   version="1.1"
   id="svg9"
   sodipodi:docname="umbrello.svg"
   inkscape:version="1.1.2 (0a00cf5339, 2022-02-04)"
   xmlns:inkscape="http://www.inkscape.org/namespaces/inkscape"
   xmlns:sodipodi="http://sodipodi.sourceforge.net/DTD/sodipodi-0.dtd"
   xmlns:xlink="http://www.w3.org/1999/xlink"
   xmlns="http://www.w3.org/2000/svg"
   xmlns:svg="http://www.w3.org/2000/svg">
  <defs
     id="defs13">
    <linearGradient
       inkscape:collect="always"
       xlink:href="#_lgradient_22"
       id="linearGradient872"
       x1="-12.025727"
       y1="6.1170783"
       x2="-0.085100174"
       y2="6.1170783"
       gradientUnits="userSpaceOnUse"
       gradientTransform="matrix(3.8358211,0,0,3.8371386,-0.00544341,-0.00268054)" />
    <linearGradient
       inkscape:collect="always"
       xlink:href="#_lgradient_22"
       id="linearGradient15"
       x1="-9.6850061"
       y1="45.161198"
       x2="11.98815"
       y2="21.735205"
       gradientUnits="userSpaceOnUse"
       gradientTransform="matrix(1.1147442,0,0,1.1150348,-0.01237238,-3.3277956)" />
    <linearGradient
       inkscape:collect="always"
       xlink:href="#_lgradient_22"
       id="linearGradient1184"
       x1="9.8799677"
       y1="24.752382"
       x2="38.120033"
       y2="24.752382"
       gradientUnits="userSpaceOnUse" />
  </defs>
  <sodipodi:namedview
     id="namedview11"
     pagecolor="#ffffff"
     bordercolor="#666666"
     borderopacity="1.0"
     inkscape:pageshadow="2"
     inkscape:pageopacity="0.0"
     inkscape:pagecheckerboard="0"
     inkscape:document-units="pt"
     showgrid="false"
     inkscape:zoom="10.21875"
     inkscape:cx="31.95107"
     inkscape:cy="32"
     inkscape:window-width="1600"
     inkscape:window-height="836"
     inkscape:window-x="0"
     inkscape:window-y="0"
     inkscape:window-maximized="1"
     inkscape:current-layer="svg9" />
  <linearGradient
     id="_lgradient_22"
     x1="0"
     y1="0.5"
     x2="1"
     y2="0.5"
     gradientTransform="matrix(28.240064,0,0,28.747743,9.8799679,10.378746)"
     gradientUnits="userSpaceOnUse">
    <stop
       offset="0%"
       stop-opacity="1"
       style="stop-color:rgb(255,153,102)"
       id="stop2" />
    <stop
       offset="98.26086956521739%"
       stop-opacity="1"
       style="stop-color:rgb(255,94,98)"
       id="stop4" />
  </linearGradient>
  <rect
     x="-46.783188"
     y="1.2253767"
     height="45.80014"
     rx="6.1837621"
     shape-rendering="crispEdges"
     id="rect5-6-7-3"
     ry="6.8055277"
     transform="matrix(0.00524063,-0.99998627,0.99998801,0.00489691,0,0)"
     style="isolation:isolate;fill:#ff0039;fill-opacity:0.13470298;stroke:url(#linearGradient872);stroke-width:2.0301;stroke-miterlimit:4;stroke-dasharray:none;stroke-opacity:1"
     width="45.801998" />
  <rect
     x="-15.686804"
     y="17.260084"
     height="33.345856"
     rx="6.7920032"
     shape-rendering="crispEdges"
     id="rect5-6-6-6-6"
     style="isolation:isolate;fill:#ff0039;fill-opacity:0.13470298;stroke:url(#linearGradient15);stroke-width:1.67233;stroke-miterlimit:4;stroke-dasharray:none;stroke-opacity:1"
     ry="7.4743071"
     transform="matrix(0.72446484,-0.68931175,0.68622417,0.72739012,0,0)"
     width="33.338203" />
  <path
     style="color:#000000;fill:url(#linearGradient1184);fill-rule:evenodd;-inkscape-stroke:none"
     d="m 23.998047,9.8789063 c -1.889059,-0.00618 -3.764856,0.2974237 -5.554688,0.8984377 -1.678335,0.557447 -3.238918,1.399865 -4.625,2.49414 -1.324874,1.037398 -2.414716,2.336464 -3.216796,3.820313 v 0.002 c -0.7962478,1.484529 -1.2139581,3.144179 -1.2207036,4.830078 v 0.0078 1.283203 c 0,0.812402 0.320839,1.594276 0.8964846,2.169922 0.575645,0.575643 1.357518,0.898437 2.169922,0.898437 h 2.566406 c 0.468361,0 0.915637,-0.184387 1.248047,-0.507812 0.182004,-0.176804 0.394554,-0.322067 0.615234,-0.417969 0.208447,-0.08355 0.429663,-0.126454 0.65625,-0.126953 0.333628,0.0059 0.654764,0.06044 0.966797,0.169922 l 0.0059,0.002 0.0039,0.002 c 0.360814,0.119277 0.72204,0.27251 1.003906,0.408203 0.280563,0.135066 0.522982,0.285645 0.501953,0.269531 0.493603,0.373562 1.160413,0.348993 1.625,-0.06055 -0.09635,0.08479 -0.0041,0.0067 0.06641,-0.0332 0.07054,-0.03989 0.170974,-0.09371 0.291016,-0.152344 0.240084,-0.117274 0.557171,-0.254985 0.873047,-0.353515 h 0.002 c 0.320455,-0.101479 0.674602,-0.147851 1.02539,-0.15625 -0.924997,0.06142 -1.68164,0.800709 -1.68164,1.740234 v 7.701172 c 0,0.425032 -0.141225,0.831417 -0.402344,1.166016 -0.07336,0.08413 -0.168917,0.127411 -0.265625,0.125 h -0.0078 -0.0059 c -0.178772,0 -0.345787,-0.07622 -0.46875,-0.210938 -0.117582,-0.142926 -0.212371,-0.313994 -0.277344,-0.503906 l -0.0059,-0.01758 -0.0078,-0.01953 c -0.0777,-0.179687 -0.12214,-0.372391 -0.126954,-0.570313 v -1.251953 c 10e-7,-0.979099 -0.804103,-1.783203 -1.783203,-1.783203 -0.979099,0 -1.783203,0.804104 -1.783203,1.783203 v 1.283203 0.03906 0.0059 c 0.01423,0.611951 0.141886,1.212186 0.367188,1.777344 0.205504,0.576505 0.508865,1.113684 0.90625,1.582031 l 0.002,0.002 0.002,0.0039 c 0.793506,0.909985 1.944199,1.439997 3.154297,1.447266 1.19239,0.01351 2.323208,-0.523774 3.078125,-1.447266 l 0.002,-0.002 0.002,-0.0039 c 0.770321,-0.968201 1.1875,-2.168733 1.1875,-3.404297 v -7.701172 c 0,-0.907769 -0.718521,-1.601446 -1.599609,-1.707031 0.288228,0.02155 0.576847,0.04375 0.851562,0.125 0.361069,0.109504 0.721948,0.257525 1.001953,0.388672 0.280006,0.131146 0.530098,0.290467 0.486328,0.255859 0.490303,0.387268 1.211374,0.313124 1.609375,-0.169922 l -0.0039,0.0039 c 6.62e-4,-7.83e-4 -0.04385,0.04473 -0.05078,0.05078 0.01197,-0.0087 0.03213,-0.0212 0.05859,-0.03906 0.05702,-0.03847 0.141799,-0.09207 0.24414,-0.152343 0.204254,-0.120292 0.48065,-0.264977 0.75586,-0.365235 h 0.002 c 0.260922,-0.08963 0.528749,-0.136282 0.800781,-0.136719 0.316454,0.0061 0.631268,0.05621 0.931641,0.154297 0.410376,0.134838 0.804459,0.315683 1.175781,0.539063 0.284786,0.177993 0.611893,0.269531 0.939453,0.269531 h 2.566406 c 0.812404,0 1.594277,-0.322794 2.169922,-0.898437 0.575646,-0.575646 0.896485,-1.357519 0.896485,-2.169922 v -1.283203 -0.0078 c -0.0067,-1.6859 -0.424456,-3.345549 -1.220704,-4.830078 v -0.002 c -0.80208,-1.483849 -1.891922,-2.782915 -3.216796,-3.820313 h -0.002 C 32.793946,12.177731 31.234426,11.334608 29.556641,10.777344 27.766806,10.176329 25.891005,9.872745 24.001953,9.8789063 Z m 0,0.9999997 H 24 h 0.002 c 1.780839,-0.0062 3.548731,0.280972 5.236328,0.847657 h 0.002 c 1.568643,0.520814 3.024045,1.306707 4.320313,2.330078 l 0.002,0.002 c 1.216226,0.952096 2.217017,2.144353 2.955078,3.509765 0.717883,1.339064 1.095472,2.836793 1.101563,4.359375 v 0.0039 1.283203 c 0,0.548253 -0.216432,1.075807 -0.603516,1.46289 -0.387084,0.387084 -0.914639,0.605469 -1.462891,0.605469 h -2.566406 c -0.147385,0 -0.284176,-0.03845 -0.410156,-0.117187 l -0.0039,-0.002 -0.002,-0.002 c -0.435615,-0.262752 -0.900754,-0.478998 -1.386718,-0.638672 -0.403231,-0.131966 -0.819823,-0.195886 -1.232422,-0.203125 h -0.0039 -0.0039 c -0.391434,0 -0.774302,0.06694 -1.138672,0.19336 l -0.0039,0.002 -0.0039,0.002 c -0.359621,0.130772 -0.681964,0.300918 -0.923828,0.443359 -0.120932,0.07122 -0.222179,0.135147 -0.296875,0.185547 -0.03735,0.0252 -0.06774,0.04537 -0.09375,0.06445 -0.013,0.0095 -0.02362,0.01855 -0.03711,0.0293 -0.0067,0.0054 -0.01505,0.01049 -0.02539,0.01953 -0.01035,0.009 -0.05403,0.05781 -0.05469,0.05859 l -0.002,0.002 -0.002,0.002 c -0.05209,0.06322 -0.151286,0.07364 -0.216797,0.02344 -0.181761,-0.143717 -0.367509,-0.230861 -0.683594,-0.378906 -0.316084,-0.148045 -0.712815,-0.311485 -1.134765,-0.439453 h -0.002 c -0.459374,-0.136377 -0.93054,-0.200002 -1.394532,-0.207032 h -0.0078 -0.0059 c -0.446604,0.0071 -0.904436,0.06987 -1.34375,0.208985 -0.38298,0.119607 -0.739152,0.274107 -1.013672,0.408203 -0.137488,0.06716 -0.252835,0.128278 -0.34375,0.179687 -0.09091,0.05141 -0.105932,0.04127 -0.234375,0.154297 -0.06678,0.05904 -0.290647,0.06716 -0.361328,0.01367 h -0.002 c -0.166094,-0.124945 -0.356179,-0.222008 -0.669921,-0.373047 -0.31149,-0.149954 -0.702752,-0.31816 -1.115235,-0.455078 -0.418417,-0.146813 -0.851947,-0.219309 -1.287109,-0.226562 h -0.0039 -0.0039 c -0.360449,0 -0.713199,0.07043 -1.041015,0.203125 l -0.0059,0.002 -0.0059,0.002 c -0.342754,0.148006 -0.653714,0.362491 -0.919922,0.621094 -0.142538,0.138686 -0.351651,0.224609 -0.550781,0.224609 h -2.566406 c -0.548252,0 -1.075807,-0.218385 -1.462891,-0.605469 -0.387084,-0.387083 -0.603516,-0.914638 -0.603516,-1.46289 v -1.283203 -0.0039 -0.002 c 0.0064,-1.521911 0.383987,-3.018931 1.101563,-4.357422 v -0.002 C 12.220414,16.201552 13.22167,15.01038 14.4375,14.058594 l 0.002,-0.002 c 1.296268,-1.023371 2.75167,-1.809264 4.320313,-2.330078 h 0.002 c 1.6876,-0.566686 3.455495,-0.853883 5.236328,-0.847657 z m 0,1.566407 c -1.613164,-0.0062 -3.212715,0.253719 -4.746094,0.771484 -1.388764,0.460907 -2.690872,1.160267 -3.839844,2.068359 -1.049673,0.819421 -1.91522,1.849828 -2.550781,3.019531 l -0.002,0.002 v 0.002 c -0.588911,1.116191 -0.905267,2.358589 -0.912109,3.621093 v 1.785157 h 0.5 2.261718 l 0.136719,-0.109375 c 0.315624,-0.2525 0.665526,-0.459903 1.039063,-0.615235 0.526661,-0.217533 1.097827,-0.327631 1.667968,-0.328125 0.610369,0.01242 1.203323,0.112685 1.773438,0.306641 l 0.002,0.002 h 0.002 c 0.419482,0.139828 0.827841,0.311519 1.226563,0.507813 l 0.220703,0.107421 0.220703,-0.107421 c 0.356318,-0.175139 0.731342,-0.326636 1.111328,-0.447266 0.58508,-0.183207 1.200171,-0.278701 1.814453,-0.279297 0.629441,0.006 1.251336,0.09708 1.845703,0.275391 0.400967,0.121626 0.780936,0.265855 1.15625,0.441406 l 0.238281,0.111328 0.226563,-0.132812 c 0.277127,-0.161658 0.577037,-0.294912 0.886719,-0.408204 8.22e-4,-3e-4 0.0011,-0.0017 0.002,-0.002 0.535869,-0.185469 1.09886,-0.284711 1.666015,-0.285156 0.584905,0.0059 1.171069,0.102012 1.726563,0.279297 0.490864,0.16399 0.966667,0.369459 1.416016,0.621094 l 0.113281,0.0625 h 2.851562 v -1.785157 c -0.0069,-1.262494 -0.323196,-2.504898 -0.912109,-3.621093 v -0.002 l -0.002,-0.002 C 34.503554,17.135799 33.63853,16.106251 32.589844,15.287109 31.440361,14.378215 30.137653,13.677983 28.748047,13.216797 27.214665,12.699031 25.615109,12.439118 24.001953,12.445313 Z m 0,1 H 24 h 0.002 c 1.504771,-0.0062 2.997143,0.235692 4.427734,0.71875 l 0.002,0.002 c 1.279744,0.42453 2.479189,1.069754 3.537109,1.90625 l 0.002,0.002 h 0.002 c 0.939967,0.733779 1.716052,1.65604 2.28711,2.707031 0.513135,0.974691 0.787004,2.055023 0.792968,3.152344 v 0.78125 h -1.623047 c -0.46853,-0.250842 -0.950735,-0.469256 -1.447265,-0.634766 l -0.0039,-0.002 h -0.002 c -0.651125,-0.207806 -1.335585,-0.319244 -2.021484,-0.326172 h -0.002 -0.0039 c -0.686806,0 -1.364286,0.118641 -2.00586,0.341797 l -0.0039,0.002 -0.0039,0.002 c -0.277082,0.101242 -0.546816,0.236632 -0.814453,0.376953 -0.347966,-0.151949 -0.696044,-0.295202 -1.0625,-0.40625 h -0.002 c -0.689272,-0.206781 -1.404669,-0.309564 -2.123047,-0.316406 h -0.002 -0.002 c -0.718774,0 -1.435265,0.110076 -2.11914,0.324219 l -0.002,0.002 c -0.351819,0.111689 -0.69281,0.258611 -1.027344,0.412109 -0.369083,-0.172563 -0.742258,-0.336499 -1.132813,-0.466797 -0.673185,-0.229021 -1.372315,-0.347547 -2.082031,-0.361328 h -0.0059 -0.0039 c -0.699375,0 -1.399637,0.13454 -2.052735,0.404297 -0.393726,0.163548 -0.753909,0.395793 -1.097656,0.648438 h -1.458984 v -0.78125 -0.002 c 0.0063,-1.096651 0.28013,-2.176264 0.792968,-3.150391 0.571058,-1.050991 1.347143,-1.973252 2.28711,-2.707031 h 0.002 l 0.002,-0.002 c 1.05792,-0.836496 2.257365,-1.48172 3.537109,-1.90625 l 0.002,-0.002 c 1.430596,-0.483059 2.922971,-0.724943 4.427735,-0.71875 z M 24,26.283203 c 0.438037,0 0.783203,0.345166 0.783203,0.783203 v 7.701172 c 0,1.008428 -0.338826,1.987924 -0.964844,2.777344 -3.33e-4,4.08e-4 -0.0016,-4.08e-4 -0.002,0 -0.566396,0.692127 -1.409778,1.091005 -2.294922,1.080078 h -0.002 c -0.917957,-0.0055 -1.794919,-0.40889 -2.40039,-1.099609 l -0.002,-0.002 C 18.799423,37.14841 18.553124,36.714664 18.386719,36.244141 l -0.0039,-0.0098 -0.0039,-0.0098 C 18.194869,35.764514 18.093424,35.27897 18.082031,34.789062 v -0.02148 -1.283203 c 0,-0.438037 0.345166,-0.783203 0.783203,-0.783203 0.438038,0 0.783204,0.345166 0.783203,0.783203 v 1.269531 0.0078 c 0.0078,0.320954 0.08274,0.632199 0.205079,0.921875 0.100354,0.287612 0.24299,0.570143 0.451171,0.818359 l 0.0059,0.0059 0.0059,0.0059 c 0.311667,0.348334 0.754244,0.541179 1.212891,0.542969 0.412001,0.0082 0.798218,-0.176256 1.05664,-0.484375 l 0.0059,-0.0059 0.0039,-0.0059 c 0.402821,-0.511273 0.621094,-1.14273 0.621094,-1.792969 v -7.701172 c 0,-0.438037 0.345166,-0.783203 0.783203,-0.783203 z"
     id="path7" />
</svg>
