<?xml version="1.0" encoding="UTF-8" standalone="no"?>
<!-- Generator: Gravit.io -->

<svg
   style="isolation:isolate"
   viewBox="0 0 48 48"
   width="48pt"
   height="48pt"
   version="1.1"
   id="svg43"
   sodipodi:docname="upscayl.svg"
   inkscape:version="1.1.2 (0a00cf5339, 2022-02-04)"
   xmlns:inkscape="http://www.inkscape.org/namespaces/inkscape"
   xmlns:sodipodi="http://sodipodi.sourceforge.net/DTD/sodipodi-0.dtd"
   xmlns:xlink="http://www.w3.org/1999/xlink"
   xmlns="http://www.w3.org/2000/svg"
   xmlns:svg="http://www.w3.org/2000/svg">
  <defs
     id="defs47">
    <linearGradient
       inkscape:collect="always"
       xlink:href="#_lgradient_9"
       id="linearGradient872"
       x1="-12.025727"
       y1="6.1170783"
       x2="-0.085100174"
       y2="6.1170783"
       gradientUnits="userSpaceOnUse"
       gradientTransform="matrix(3.8358211,0,0,3.8371386,-0.00544341,-0.00268054)" />
    <linearGradient
       inkscape:collect="always"
       xlink:href="#_lgradient_9"
       id="linearGradient15"
       x1="-9.6850061"
       y1="45.161198"
       x2="11.98815"
       y2="21.735205"
       gradientUnits="userSpaceOnUse"
       gradientTransform="matrix(1.1147442,0,0,1.1150348,-0.01237238,-3.3277956)" />
    <linearGradient
       inkscape:collect="always"
       xlink:href="#_lgradient_8"
       id="linearGradient986"
       x1="12.572245"
       y1="24"
       x2="35.427753"
       y2="24"
       gradientUnits="userSpaceOnUse" />
    <linearGradient
       inkscape:collect="always"
       xlink:href="#_lgradient_9"
       id="linearGradient1016"
       x1="19.664062"
       y1="32"
       x2="30.730469"
       y2="32"
       gradientUnits="userSpaceOnUse" />
    <linearGradient
       inkscape:collect="always"
       xlink:href="#_lgradient_10"
       id="linearGradient1264"
       x1="20.666672"
       y1="24"
       x2="27.333328"
       y2="24"
       gradientUnits="userSpaceOnUse" />
  </defs>
  <sodipodi:namedview
     id="namedview45"
     pagecolor="#ffffff"
     bordercolor="#666666"
     borderopacity="1.0"
     inkscape:pageshadow="2"
     inkscape:pageopacity="0.0"
     inkscape:pagecheckerboard="0"
     inkscape:document-units="pt"
     showgrid="false"
     inkscape:zoom="14.451495"
     inkscape:cx="32.00361"
     inkscape:cy="32.107405"
     inkscape:window-width="1600"
     inkscape:window-height="836"
     inkscape:window-x="0"
     inkscape:window-y="0"
     inkscape:window-maximized="1"
     inkscape:current-layer="svg43" />
  <linearGradient
     id="_lgradient_7"
     x1="0"
     y1="0.5"
     x2="1"
     y2="0.5"
     gradientTransform="matrix(15.237007,0,0,26.029887,17.397868,18.667619)"
     gradientUnits="userSpaceOnUse">
    <stop
       offset="0%"
       stop-opacity="1"
       style="stop-color:rgb(178,254,250)"
       id="stop2" />
    <stop
       offset="98.26086956521739%"
       stop-opacity="1"
       style="stop-color:#0ed2f7;stop-opacity:0.49849916"
       id="stop4" />
  </linearGradient>
  <rect
     x="-46.783188"
     y="1.2253767"
     height="45.80014"
     rx="6.1837621"
     shape-rendering="crispEdges"
     id="rect5-6-7-3"
     ry="6.8055277"
     transform="matrix(0.00524063,-0.99998627,0.99998801,0.00489691,0,0)"
     style="isolation:isolate;fill:#00a7ff;fill-opacity:0.13470298;stroke:url(#linearGradient872);stroke-width:2.0301;stroke-miterlimit:4;stroke-dasharray:none;stroke-opacity:1"
     width="45.801998" />
  <rect
     x="-15.686804"
     y="17.260084"
     height="33.345856"
     rx="6.7920032"
     shape-rendering="crispEdges"
     id="rect5-6-6-6-6"
     style="isolation:isolate;fill:#00a7ff;fill-opacity:0.13470298;stroke:url(#linearGradient15);stroke-width:1.67233;stroke-miterlimit:4;stroke-dasharray:none;stroke-opacity:1"
     ry="7.4743071"
     transform="matrix(0.72446484,-0.68931175,0.68622417,0.72739012,0,0)"
     width="33.338203" />
  <path
     id="path7"
     style="fill:url(#_lgradient_7);stroke-width:0.634873;stroke:url(#linearGradient1016)"
     d="M 21.794922 19.539062 C 20.653522 19.539062 19.722594 20.439909 19.669922 21.568359 L 25.318359 21.568359 L 25.318359 26.105469 L 30.730469 26.105469 L 30.730469 21.568359 L 25.363281 21.568359 L 25.363281 19.539062 L 21.794922 19.539062 z M 19.664062 26.285156 L 19.664062 31.091797 L 25.318359 31.091797 L 25.318359 35.626953 L 29.435547 35.626953 C 28.29881 34.821613 27.554688 33.497612 27.554688 32 C 27.554688 31.688824 27.589391 31.385006 27.650391 31.091797 L 25.363281 31.091797 L 25.363281 26.285156 L 19.664062 26.285156 z M 25.318359 35.626953 L 19.664062 35.626953 L 19.664062 38.908203 L 19.664062 39.251953 L 19.664062 40.162109 L 25.318359 40.162109 L 25.318359 35.626953 z M 25.318359 40.162109 L 25.318359 44.460938 L 29.097656 44.460938 L 30.548828 44.460938 L 30.730469 44.460938 L 30.730469 40.162109 L 25.318359 40.162109 z "
     transform="scale(0.75)" />
  <linearGradient
     id="_lgradient_8"
     x1="-0.03002421538064879"
     y1="0.060162329481530094"
     x2="0.9241760471357582"
     y2="0.9880816525642224"
     gradientTransform="matrix(48,0,0,48,0,0)"
     gradientUnits="userSpaceOnUse">
    <stop
       offset="1.3043478260869565%"
       stop-opacity="1"
       style="stop-color:rgb(223,87,255)"
       id="stop9" />
    <stop
       offset="52.083333333333336%"
       stop-opacity="1"
       style="stop-color:rgb(36,30,252)"
       id="stop11" />
    <stop
       offset="97.91666666666666%"
       stop-opacity="1"
       style="stop-color:rgb(14,175,254)"
       id="stop13" />
  </linearGradient>
  <path
     style="color:#000000;fill:url(#linearGradient986);-inkscape-stroke:none"
     d="m 15.232422,12.072266 c -1.73943,0 -3.160156,1.420726 -3.160156,3.160156 v 9.832031 4.117188 0.255859 0.785156 2.544922 c 0,1.73943 1.420726,3.160156 3.160156,3.160156 h 2.78125 3.810547 1.08789 9.855469 c 1.73943,0 3.160156,-1.420726 3.160156,-3.160156 v -9.3125 -1.041016 -4.636718 -2.544922 c 0,-1.73943 -1.420726,-3.160156 -3.160156,-3.160156 h -2.78125 c -0.09113,0 -0.181148,0.01929 -0.271484,0.03516 -0.09096,-0.01609 -0.181666,-0.03516 -0.273438,-0.03516 z m 0,1 h 14.208984 c 0.05348,0 0.102447,0.0067 0.142578,0.01758 l 0.13086,0.03516 0.128906,-0.03516 c 0.04011,-0.01086 0.0891,-0.01758 0.142578,-0.01758 h 2.78125 c 1.198451,0 2.160156,0.961705 2.160156,2.160156 v 2.544922 4.636718 1.041016 9.3125 c 0,1.198451 -0.961705,2.160156 -2.160156,2.160156 h -9.855469 -1.08789 -3.810547 -2.78125 c -1.198451,0 -2.160156,-0.961705 -2.160156,-2.160156 V 30.222656 29.4375 29.181641 25.064453 15.232422 c 0,-1.198451 0.961705,-2.160156 2.160156,-2.160156 z m 14.480469,1.029297 -0.128907,0.03516 c -0.04007,0.01085 -0.08908,0.01758 -0.142578,0.01758 h -4.990234 v 6.078125 C 24.299383,20.213983 24.156515,20.166016 24,20.166016 c -0.156515,0 -0.299383,0.04797 -0.451172,0.06641 v -6.078125 h -7.203125 c -1.151854,0 -2.097656,0.943586 -2.097656,2.095703 V 25.064453 29.181641 29.4375 30.222656 31.75 c 0,1.152117 0.945802,2.095703 2.097656,2.095703 h 1.667969 3.810547 1.08789 0.636719 v -6.078125 c 0.151789,0.01844 0.294657,0.06641 0.451172,0.06641 0.156515,0 0.299383,-0.04797 0.451172,-0.06641 v 6.078125 h 7.203125 c 1.151854,0 2.097656,-0.943586 2.097656,-2.095703 V 23.455078 22.414062 17.777344 16.25 c 0,-1.152117 -0.945802,-2.095703 -2.097656,-2.095703 h -1.667969 c -0.05344,0 -0.102446,-0.0067 -0.142578,-0.01758 z m 0.002,1.017578 c 0.09033,0.01586 0.180333,0.03516 0.271484,0.03516 h 1.667969 c 0.610876,0 1.097656,0.485092 1.097656,1.095703 v 1.527344 4.636718 1.041016 V 31.75 c 0,0.610611 -0.48678,1.095703 -1.097656,1.095703 h -6.203125 v -6.322266 l -0.642578,0.191407 c -0.256716,0.07653 -0.52691,0.11914 -0.808594,0.11914 -0.281685,0 -0.55188,-0.04261 -0.808594,-0.11914 l -0.642578,-0.191407 v 6.322266 h -0.724609 -3.810547 -1.667969 c -0.610876,0 -1.097656,-0.485092 -1.097656,-1.095703 V 30.222656 29.4375 29.181641 25.064453 16.25 c 0,-0.610611 0.48678,-1.095703 1.097656,-1.095703 h 6.203125 v 6.322265 l 0.642578,-0.191406 c 0.256716,-0.07653 0.52691,-0.11914 0.808594,-0.11914 0.281685,0 0.55188,0.04261 0.808594,0.11914 l 0.642578,0.191406 v -6.322265 h 3.990234 c 0.09177,0 0.18246,-0.01906 0.273438,-0.03516 z"
     id="path875" />
  <linearGradient
     id="_lgradient_9"
     x1="0"
     y1="0.5"
     x2="1"
     y2="0.5">
    <stop
       offset="0%"
       stop-opacity="1"
       style="stop-color:rgb(84,51,255)"
       id="stop18" />
    <stop
       offset="51.73913043478261%"
       stop-opacity="1"
       style="stop-color:rgb(32,189,255)"
       id="stop20" />
    <stop
       offset="98.26086956521739%"
       stop-opacity="1"
       style="stop-color:rgb(165,254,203)"
       id="stop22" />
  </linearGradient>
  <path
     d=""
     fill-rule="evenodd"
     fill="url(#_lgradient_9)"
     id="path25" />
  <linearGradient
     id="_lgradient_10"
     x1="0.09111179286287627"
     y1="0.2538432577817364"
     x2="0.8660625710365121"
     y2="0.857630994515282"
     gradientTransform="matrix(6.6661907,0,0,6.6661907,20.666905,20.666905)"
     gradientUnits="userSpaceOnUse">
    <stop
       offset="1.3043478260869565%"
       stop-opacity="1"
       style="stop-color:rgb(223,87,255)"
       id="stop27" />
    <stop
       offset="52.083333333333336%"
       stop-opacity="1"
       style="stop-color:rgb(36,30,252)"
       id="stop29" />
    <stop
       offset="97.91666666666666%"
       stop-opacity="1"
       style="stop-color:rgb(14,175,254)"
       id="stop31" />
  </linearGradient>
  <path
     style="color:#000000;fill:url(#linearGradient1264);-inkscape-stroke:none"
     d="m 24,20.166016 c -2.110121,0 -3.833984,1.723863 -3.833984,3.833984 0,2.110121 1.723863,3.833984 3.833984,3.833984 2.110121,0 3.833984,-1.723863 3.833984,-3.833984 0,-2.110121 -1.723863,-3.833984 -3.833984,-3.833984 z m 0,1 c 1.205275,0 2.040586,0.846849 2.451172,1.904296 l -2,-1.498046 v 1 3.855468 l 2,-1.498047 C 26.040586,25.987135 25.205275,26.833984 24,26.833984 c -1.205275,0 -2.040586,-0.846849 -2.451172,-1.904297 l 2,1.498047 v -4.855468 l -0.800781,0.599609 -1.199219,0.898437 C 21.959414,22.012865 22.794725,21.166016 24,21.166016 Z m -1.451172,2.404296 v 0.859375 L 21.976562,24 Z m 2.902344,0 L 26.023437,24 25.451172,24.429687 Z"
     id="path34" />
  <linearGradient
     id="_lgradient_11"
     x1="-0.046328006088279784"
     y1="0.15974072496964342"
     x2="0.8522006595636732"
     y2="0.5360722541542304"
     gradientTransform="matrix(12,0,0,6,18,21)"
     gradientUnits="userSpaceOnUse">
    <stop
       offset="3.0434782608695654%"
       stop-opacity="1"
       style="stop-color:rgb(198,255,221)"
       id="stop36" />
    <stop
       offset="98.26086956521739%"
       stop-opacity="1"
       style="stop-color:rgb(247,121,125)"
       id="stop38" />
  </linearGradient>
</svg>
