<?xml version="1.0" encoding="UTF-8" standalone="no"?>
<!-- Generator: Gravit.io -->

<svg
   style="isolation:isolate"
   viewBox="0 0 48 48"
   width="48pt"
   height="48pt"
   version="1.1"
   id="svg11"
   sodipodi:docname="usb-creator.svg"
   inkscape:version="1.1.2 (0a00cf5339, 2022-02-04)"
   xmlns:inkscape="http://www.inkscape.org/namespaces/inkscape"
   xmlns:sodipodi="http://sodipodi.sourceforge.net/DTD/sodipodi-0.dtd"
   xmlns:xlink="http://www.w3.org/1999/xlink"
   xmlns="http://www.w3.org/2000/svg"
   xmlns:svg="http://www.w3.org/2000/svg">
  <defs
     id="defs15">
    <linearGradient
       inkscape:collect="always"
       xlink:href="#_lgradient_10"
       id="linearGradient872"
       x1="-12.025727"
       y1="6.1170783"
       x2="-0.085100174"
       y2="6.1170783"
       gradientUnits="userSpaceOnUse"
       gradientTransform="matrix(3.8358211,0,0,3.8371386,-0.00544341,-0.00268054)" />
    <linearGradient
       inkscape:collect="always"
       xlink:href="#_lgradient_10"
       id="linearGradient15"
       x1="-9.6850061"
       y1="45.161198"
       x2="11.98815"
       y2="21.735205"
       gradientUnits="userSpaceOnUse"
       gradientTransform="matrix(1.1147442,0,0,1.1150348,-0.01237238,-3.3277956)" />
    <linearGradient
       inkscape:collect="always"
       xlink:href="#_lgradient_10"
       id="linearGradient1024"
       x1="13.828035"
       y1="22.53211"
       x2="34.171967"
       y2="22.53211"
       gradientUnits="userSpaceOnUse" />
  </defs>
  <sodipodi:namedview
     id="namedview13"
     pagecolor="#ffffff"
     bordercolor="#666666"
     borderopacity="1.0"
     inkscape:pageshadow="2"
     inkscape:pageopacity="0.0"
     inkscape:pagecheckerboard="0"
     inkscape:document-units="pt"
     showgrid="false"
     inkscape:zoom="5.109375"
     inkscape:cx="32"
     inkscape:cy="32"
     inkscape:window-width="1056"
     inkscape:window-height="545"
     inkscape:window-x="324"
     inkscape:window-y="118"
     inkscape:window-maximized="0"
     inkscape:current-layer="svg11" />
  <linearGradient
     id="_lgradient_10"
     x1="0.11845439189189191"
     y1="0.12238943488943493"
     x2="0.968327702702703"
     y2="0.9847717035217036"
     gradientTransform="matrix(20.343929,0,0,27.972903,13.828035,8.5456591)"
     gradientUnits="userSpaceOnUse">
    <stop
       offset="2.608695652173913%"
       stop-opacity="1"
       style="stop-color:rgb(198,255,221)"
       id="stop2" />
    <stop
       offset="51.73913043478261%"
       stop-opacity="1"
       style="stop-color:rgb(251,215,134)"
       id="stop4" />
    <stop
       offset="99.1304347826087%"
       stop-opacity="1"
       style="stop-color:rgb(247,121,125)"
       id="stop6" />
  </linearGradient>
  <rect
     x="-46.783188"
     y="1.2253767"
     height="45.80014"
     rx="6.1837621"
     shape-rendering="crispEdges"
     id="rect5-6-7-3"
     ry="6.8055277"
     transform="matrix(0.00524063,-0.99998627,0.99998801,0.00489691,0,0)"
     style="isolation:isolate;fill:#00aaff;fill-opacity:0.13470298;stroke:url(#linearGradient872);stroke-width:2.0301;stroke-miterlimit:4;stroke-dasharray:none;stroke-opacity:1"
     width="45.801998" />
  <rect
     x="-15.686804"
     y="17.260084"
     height="33.345856"
     rx="6.7920032"
     shape-rendering="crispEdges"
     id="rect5-6-6-6-6"
     style="isolation:isolate;fill:#00aaff;fill-opacity:0.13470298;stroke:url(#linearGradient15);stroke-width:1.67233;stroke-miterlimit:4;stroke-dasharray:none;stroke-opacity:1"
     ry="7.4743071"
     transform="matrix(0.72446484,-0.68931175,0.68622417,0.72739012,0,0)"
     width="33.338203" />
  <path
     style="color:#000000;fill:url(#linearGradient1024);fill-rule:evenodd;-inkscape-stroke:none"
     d="m 19.548828,8.0449219 c -2.025192,0 -3.677734,1.6544942 -3.677734,3.6796871 v 2.992188 c -1.441242,0.499807 -2.542969,1.760357 -2.542969,3.365234 v 5.720703 c 0,0.972396 0.799088,1.771485 1.771484,1.771485 0.972397,0 1.771485,-0.799089 1.771485,-1.771485 v -4.449218 c 0,-0.782266 0.623984,-1.408204 1.40625,-1.408204 h 11.445312 c 0.782266,0 1.40625,0.625938 1.40625,1.408204 v 0.634765 c 0,0.972396 0.799088,1.771485 1.771485,1.771485 0.972396,0 1.771484,-0.799089 1.771484,-1.771485 v -1.90625 c 0,-1.604877 -1.101727,-2.865427 -2.542969,-3.365234 v -2.992188 c 0,-2.0251929 -1.652542,-3.6796871 -3.677734,-3.6796871 z m 0,1 h 8.902344 c 1.48413,0 2.677734,1.1955561 2.677734,2.6796871 V 14.902344 15.375 l 0.400391,0.08203 c 1.220588,0.248292 2.142578,1.32547 2.142578,2.625 v 1.90625 c 0,0.431333 -0.34015,0.771485 -0.771484,0.771485 -0.431335,0 -0.771485,-0.340152 -0.771485,-0.771485 v -0.634765 c 0,-1.323329 -1.082922,-2.408204 -2.40625,-2.408204 H 18.277344 c -1.323328,0 -2.40625,1.084875 -2.40625,2.408204 v 4.449218 c 0,0.431333 -0.34015,0.771485 -0.771485,0.771485 -0.431334,0 -0.771484,-0.340152 -0.771484,-0.771485 v -5.720703 c 0,-1.29953 0.92199,-2.376708 2.142578,-2.625 L 16.871094,15.375 v -0.408203 -0.06445 -3.177735 c 0,-1.484131 1.193604,-2.6796871 2.677734,-2.6796871 z m 0.636719,1.5429691 c -0.972396,0 -1.771485,0.799088 -1.771485,1.771484 v 3.042969 h 0.5 10.671875 v -3.042969 c 0,-0.972396 -0.799088,-1.771484 -1.771484,-1.771484 z m 0,1 h 1.089844 v 0.136718 2.677735 h -1.861329 v -2.042969 c 0,-0.431333 0.340152,-0.771484 0.771485,-0.771484 z m 3.361328,0 h 0.90625 v 0.136718 2.677735 h -0.90625 z m 3.177734,0 h 1.089844 c 0.431333,0 0.771484,0.340151 0.771484,0.771484 v 2.042969 h -1.861328 z m -4.449218,0.636718 h 0.271484 v 1.542969 h -0.271484 z m 3.177734,0 h 0.271484 v 1.542969 h -0.271484 z m -2.6875,7.263672 c -0.611282,0 -1.117188,0.505905 -1.117188,1.117188 v 5.029297 h -1.607421 c -0.669346,0 -1.269414,0.210496 -1.511719,0.746093 -0.242305,0.535598 -0.0047,1.126321 0.4375,1.628907 l 3.298828,3.75 c 0.927503,1.05405 2.541247,1.05405 3.46875,0 l 3.298828,-3.75 c 0.442246,-0.502586 0.679805,-1.093309 0.4375,-1.628907 -0.242305,-0.535597 -0.842373,-0.746093 -1.511719,-0.746093 h -1.607422 v -2.175782 c 0,-0.611282 -0.505905,-1.117187 -1.117187,-1.117187 -0.611282,0 -1.117188,0.505905 -1.117188,1.117187 v 4.410157 h 1.890625 L 24,30.419922 21.992187,27.869141 h 1.890625 v -7.263672 c 0,-0.611283 -0.505905,-1.117188 -1.117187,-1.117188 z m 2.46875,0 c -0.611282,0 -1.117188,0.505905 -1.117188,1.117188 v 0.527343 c 0,0.611153 0.505284,1.117188 1.117188,1.117188 0.611904,0 1.117187,-0.506035 1.117187,-1.117188 v -0.527343 c 0,-0.611283 -0.505905,-1.117188 -1.117187,-1.117188 z m -2.46875,1 c 0.07024,0 0.117187,0.04695 0.117187,0.117188 v 6.263672 H 21.375 c -0.219924,0 -0.523325,0.0832 -0.666016,0.376953 -0.14269,0.293751 -0.02078,0.582913 0.115235,0.755859 l 2.529297,3.212891 c 0.15135,0.192441 0.392687,0.324219 0.646484,0.324218 0.253797,0 0.495134,-0.131777 0.646484,-0.324218 l 2.529297,-3.212891 C 27.3118,27.829006 27.433706,27.539843 27.291016,27.246094 27.148325,26.952345 26.844924,26.869141 26.625,26.869141 h -1.507813 v -3.410157 c 0,-0.07024 0.04695,-0.117187 0.117188,-0.117187 0.07024,0 0.117188,0.04695 0.117187,0.117187 v 3.175782 h 2.607422 c 0.466099,0 0.59084,0.134502 0.601563,0.158203 0.01072,0.0237 0.02864,0.206689 -0.279297,0.55664 l -3.296875,3.748047 c -0.572862,0.651022 -1.395888,0.651022 -1.96875,0 L 19.71875,27.349609 c -0.307936,-0.349951 -0.290019,-0.532939 -0.279297,-0.55664 0.01072,-0.0237 0.135464,-0.158203 0.601563,-0.158203 h 2.607421 v -6.029297 c 0,-0.07024 0.04695,-0.117188 0.117188,-0.117188 z m 2.46875,0 c 0.07024,0 0.117188,0.04695 0.117187,0.117188 v 0.527343 c 0,0.0691 -0.04757,0.117188 -0.117187,0.117188 -0.06962,0 -0.117188,-0.04809 -0.117188,-0.117188 v -0.527343 c 0,-0.07024 0.04695,-0.117188 0.117188,-0.117188 z m 7.666016,1.542969 c -0.972397,0 -1.771485,0.799088 -1.771485,1.771484 0,0.972396 0.799088,1.771485 1.771485,1.771485 0.972396,0 1.771484,-0.799089 1.771484,-1.771485 0,-0.972396 -0.799088,-1.771484 -1.771484,-1.771484 z m 0,1 c 0.431334,0 0.771484,0.34015 0.771484,0.771484 0,0.431333 -0.34015,0.771485 -0.771484,0.771485 -0.431335,0 -0.771485,-0.340152 -0.771485,-0.771485 0,-0.431334 0.34015,-0.771484 0.771485,-0.771484 z m -17.800782,2.814453 c -0.972396,0 -1.771484,0.799089 -1.771484,1.771484 0,0.972397 0.799088,1.771485 1.771484,1.771485 0.972397,0 1.771485,-0.799088 1.771485,-1.771485 0,-0.972395 -0.799088,-1.771484 -1.771485,-1.771484 z m 17.800782,0 c -0.972397,0 -1.771485,0.799089 -1.771485,1.771484 v 4.451172 c 0,0.782266 -0.623984,1.40625 -1.40625,1.40625 H 18.277344 c -0.782266,0 -1.40625,-0.623984 -1.40625,-1.40625 v -0.636718 c 0,-0.972397 -0.799088,-1.771485 -1.771485,-1.771485 -0.972396,0 -1.771484,0.799088 -1.771484,1.771485 v 1.908203 c 0,2.025193 1.652541,3.679687 3.677734,3.679687 h 13.988282 c 2.025193,0 3.677734,-1.654494 3.677734,-3.679687 v -5.722657 c 0,-0.972395 -0.799088,-1.771484 -1.771484,-1.771484 z m -17.800782,1 c 0.431335,0 0.771485,0.340152 0.771485,0.771484 0,0.431335 -0.34015,0.771485 -0.771485,0.771485 -0.431334,0 -0.771484,-0.34015 -0.771484,-0.771485 0,-0.431332 0.34015,-0.771484 0.771484,-0.771484 z m 17.800782,0 c 0.431334,0 0.771484,0.340152 0.771484,0.771484 v 5.722657 c 0,1.484131 -1.193603,2.679687 -2.677734,2.679687 H 17.005859 c -1.484131,0 -2.677734,-1.195556 -2.677734,-2.679687 v -1.908203 c 0,-0.431335 0.34015,-0.771485 0.771484,-0.771485 0.431335,0 0.771485,0.34015 0.771485,0.771485 v 0.636718 c 0,1.323329 1.082922,2.40625 2.40625,2.40625 h 11.445312 c 1.323328,0 2.40625,-1.082921 2.40625,-2.40625 v -4.451172 c 0,-0.431332 0.34015,-0.771484 0.771485,-0.771484 z"
     id="path9" />
</svg>
