<?xml version="1.0" encoding="UTF-8" standalone="no"?>
<!-- Generator: Gravit.io -->

<svg
   style="isolation:isolate"
   viewBox="0 0 48 48"
   width="48pt"
   height="48pt"
   version="1.1"
   id="svg9"
   sodipodi:docname="utilities-tweak-tool.svg"
   inkscape:version="1.1.2 (0a00cf5339, 2022-02-04)"
   xmlns:inkscape="http://www.inkscape.org/namespaces/inkscape"
   xmlns:sodipodi="http://sodipodi.sourceforge.net/DTD/sodipodi-0.dtd"
   xmlns:xlink="http://www.w3.org/1999/xlink"
   xmlns="http://www.w3.org/2000/svg"
   xmlns:svg="http://www.w3.org/2000/svg">
  <defs
     id="defs13">
    <linearGradient
       inkscape:collect="always"
       xlink:href="#_lgradient_12"
       id="linearGradient872"
       x1="-12.025727"
       y1="6.1170783"
       x2="-0.085100174"
       y2="6.1170783"
       gradientUnits="userSpaceOnUse"
       gradientTransform="matrix(3.8358211,0,0,3.8371386,-0.00544341,-0.00268054)" />
    <linearGradient
       inkscape:collect="always"
       xlink:href="#_lgradient_12"
       id="linearGradient15"
       x1="-9.6850061"
       y1="45.161198"
       x2="11.98815"
       y2="21.735205"
       gradientUnits="userSpaceOnUse"
       gradientTransform="matrix(1.1147442,0,0,1.1150348,-0.01237238,-3.3277956)" />
    <linearGradient
       inkscape:collect="always"
       xlink:href="#_lgradient_12"
       id="linearGradient1085"
       x1="11.769124"
       y1="24"
       x2="36.230877"
       y2="24"
       gradientUnits="userSpaceOnUse" />
  </defs>
  <sodipodi:namedview
     id="namedview11"
     pagecolor="#ffffff"
     bordercolor="#666666"
     borderopacity="1.0"
     inkscape:pageshadow="2"
     inkscape:pageopacity="0.0"
     inkscape:pagecheckerboard="0"
     inkscape:document-units="pt"
     showgrid="false"
     inkscape:zoom="10.21875"
     inkscape:cx="31.95107"
     inkscape:cy="32"
     inkscape:window-width="1600"
     inkscape:window-height="836"
     inkscape:window-x="0"
     inkscape:window-y="0"
     inkscape:window-maximized="1"
     inkscape:current-layer="svg9" />
  <linearGradient
     id="_lgradient_12"
     x1="0"
     y1="0.5"
     x2="0.9944444444444447"
     y2="0.47727272727272707"
     gradientTransform="matrix(24.461752,0,0,23.918158,11.769124,12.04092)"
     gradientUnits="userSpaceOnUse">
    <stop
       offset="0%"
       stop-opacity="1"
       style="stop-color:rgb(88,0,226)"
       id="stop2" />
    <stop
       offset="100%"
       stop-opacity="1"
       style="stop-color:rgb(255,0,230)"
       id="stop4" />
  </linearGradient>
  <rect
     x="-46.783188"
     y="1.2253767"
     height="45.80014"
     rx="6.1837621"
     shape-rendering="crispEdges"
     id="rect5-6-7-3"
     ry="6.8055277"
     transform="matrix(0.00524063,-0.99998627,0.99998801,0.00489691,0,0)"
     style="isolation:isolate;fill:#ef00ff;fill-opacity:0.13470298;stroke:url(#linearGradient872);stroke-width:2.0301;stroke-miterlimit:4;stroke-dasharray:none;stroke-opacity:1"
     width="45.801998" />
  <rect
     x="-15.686804"
     y="17.260084"
     height="33.345856"
     rx="6.7920032"
     shape-rendering="crispEdges"
     id="rect5-6-6-6-6"
     style="isolation:isolate;fill:#ef00ff;fill-opacity:0.13470298;stroke:url(#linearGradient15);stroke-width:1.67233;stroke-miterlimit:4;stroke-dasharray:none;stroke-opacity:1"
     ry="7.4743071"
     transform="matrix(0.72446484,-0.68931175,0.68622417,0.72739012,0,0)"
     width="33.338203" />
  <path
     style="color:#000000;fill:url(#linearGradient1085);fill-rule:evenodd;-inkscape-stroke:none"
     d="m 17.871094,11.541016 c -3.638213,0 -6.601563,2.963349 -6.601563,6.601562 v 11.714844 c 0,3.638213 2.96335,6.601562 6.601563,6.601562 h 3.789062 c 1.112524,0 2.025391,-0.912866 2.025391,-2.02539 V 19.650391 c 0,-0.836843 -0.618835,-1.585938 -1.453125,-1.585938 -0.834289,0 -1.451172,0.749095 -1.451172,1.585938 v 13.634765 h -2.533203 c -2.255513,0 -4.076172,-1.82066 -4.076172,-4.076172 V 18.791016 c 0,-2.255512 1.820659,-4.076172 4.076172,-4.076172 h 3.984375 c 0.834291,0 1.453125,-0.749095 1.453125,-1.585938 0,-0.836843 -0.618834,-1.58789 -1.453125,-1.58789 z m 8.46875,0 c -1.112524,0 -2.025391,0.912866 -2.025391,2.02539 v 14.783203 c 0,0.836843 0.618835,1.585938 1.453125,1.585938 0.834289,0 1.451172,-0.749095 1.451172,-1.585938 V 14.714844 h 2.533203 c 2.255513,0 4.076172,1.82066 4.076172,4.076172 v 10.417968 c 0,2.255512 -1.820659,4.076172 -4.076172,4.076172 h -3.984375 c -0.834291,0 -1.453125,0.749095 -1.453125,1.585938 0,0.836843 0.618834,1.58789 1.453125,1.58789 h 4.361328 c 3.638213,0 6.601563,-2.963349 6.601563,-6.601562 V 18.142578 c 0,-3.638213 -2.96335,-6.601562 -6.601563,-6.601562 z m -8.46875,1 h 4.361328 c 0.215934,0 0.453125,0.224478 0.453125,0.58789 0,0.363412 -0.237191,0.585938 -0.453125,0.585938 h -3.984375 c -2.79665,0 -5.076172,2.279522 -5.076172,5.076172 v 10.417968 c 0,2.79665 2.279522,5.076172 5.076172,5.076172 H 21.78125 V 19.650391 c 0,-0.363412 0.23524,-0.585938 0.451172,-0.585938 0.215935,0 0.453125,0.222526 0.453125,0.585938 v 14.783203 c 0,0.57153 -0.45386,1.02539 -1.025391,1.02539 h -3.789062 c -3.096917,0 -5.601563,-2.504646 -5.601563,-5.601562 V 18.142578 c 0,-3.096916 2.504646,-5.601562 5.601563,-5.601562 z m 8.46875,0 h 3.789062 c 3.096917,0 5.601563,2.504646 5.601563,5.601562 v 11.714844 c 0,3.096916 -2.504646,5.601562 -5.601563,5.601562 h -4.361328 c -0.215934,0 -0.453125,-0.224478 -0.453125,-0.58789 0,-0.363412 0.237191,-0.585938 0.453125,-0.585938 h 3.984375 c 2.79665,0 5.076172,-2.279522 5.076172,-5.076172 V 18.791016 c 0,-2.79665 -2.279522,-5.076172 -5.076172,-5.076172 H 26.21875 v 14.634765 c 0,0.363412 -0.23524,0.585938 -0.451172,0.585938 -0.215935,0 -0.453125,-0.222526 -0.453125,-0.585938 V 13.566406 c 0,-0.57153 0.45386,-1.02539 1.025391,-1.02539 z m -8.863282,4.435546 c -1.170723,0 -2.130859,0.960137 -2.130859,2.13086 0,1.170722 0.960136,2.130859 2.130859,2.130859 1.170723,0 2.13086,-0.960136 2.13086,-2.130859 0,-1.170724 -0.960137,-2.13086 -2.13086,-2.13086 z m 0,1 c 0.62966,0 1.13086,0.501199 1.13086,1.13086 0,0.629659 -0.5012,1.130859 -1.13086,1.130859 -0.629661,0 -1.130859,-0.501199 -1.130859,-1.130859 0,-0.629662 0.501198,-1.13086 1.130859,-1.13086 z m 13.046875,8.785157 c -1.170722,0 -2.130859,0.960136 -2.130859,2.130859 0,1.170724 0.960137,2.130859 2.130859,2.130859 1.170724,0 2.13086,-0.960136 2.13086,-2.130859 0,-1.170722 -0.960136,-2.130859 -2.13086,-2.130859 z m 0,1 c 0.629662,0 1.13086,0.501199 1.13086,1.130859 0,0.629662 -0.501198,1.130859 -1.13086,1.130859 -0.629659,0 -1.130859,-0.501198 -1.130859,-1.130859 0,-0.629659 0.5012,-1.130859 1.130859,-1.130859 z"
     id="path7" />
</svg>
