<?xml version="1.0" encoding="UTF-8" standalone="no"?>
<!-- Generator: Gravit.io -->

<svg
   style="isolation:isolate"
   viewBox="0 0 48 48"
   width="48pt"
   height="48pt"
   version="1.1"
   id="svg20"
   sodipodi:docname="utilities-system-monitor.svg"
   inkscape:version="1.1.2 (0a00cf5339, 2022-02-04)"
   xmlns:inkscape="http://www.inkscape.org/namespaces/inkscape"
   xmlns:sodipodi="http://sodipodi.sourceforge.net/DTD/sodipodi-0.dtd"
   xmlns:xlink="http://www.w3.org/1999/xlink"
   xmlns="http://www.w3.org/2000/svg"
   xmlns:svg="http://www.w3.org/2000/svg">
  <defs
     id="defs24">
    <linearGradient
       inkscape:collect="always"
       xlink:href="#_lgradient_16"
       id="linearGradient872"
       x1="-12.025727"
       y1="6.1170783"
       x2="-0.085100174"
       y2="6.1170783"
       gradientUnits="userSpaceOnUse"
       gradientTransform="matrix(3.8358211,0,0,3.8371386,-0.00544341,-0.00268054)" />
    <linearGradient
       inkscape:collect="always"
       xlink:href="#_lgradient_16"
       id="linearGradient15"
       x1="-9.6850061"
       y1="45.161198"
       x2="11.98815"
       y2="21.735205"
       gradientUnits="userSpaceOnUse"
       gradientTransform="matrix(1.1147442,0,0,1.1150348,-0.01237238,-3.3277956)" />
    <linearGradient
       inkscape:collect="always"
       xlink:href="#_lgradient_16"
       id="linearGradient943"
       x1="11.887846"
       y1="12.459899"
       x2="36.159199"
       y2="37.473782"
       gradientUnits="userSpaceOnUse" />
    <linearGradient
       inkscape:collect="always"
       xlink:href="#_lgradient_15"
       id="linearGradient1112"
       x1="11.716434"
       y1="23.63908"
       x2="36.283566"
       y2="23.63908"
       gradientUnits="userSpaceOnUse" />
  </defs>
  <sodipodi:namedview
     id="namedview22"
     pagecolor="#ffffff"
     bordercolor="#666666"
     borderopacity="1.0"
     inkscape:pageshadow="2"
     inkscape:pageopacity="0.0"
     inkscape:pagecheckerboard="0"
     inkscape:document-units="pt"
     showgrid="false"
     inkscape:zoom="5.109375"
     inkscape:cx="32"
     inkscape:cy="32"
     inkscape:window-width="1056"
     inkscape:window-height="545"
     inkscape:window-x="346"
     inkscape:window-y="106"
     inkscape:window-maximized="0"
     inkscape:current-layer="svg20" />
  <linearGradient
     id="_lgradient_15"
     x1="0"
     y1="0.5"
     x2="1"
     y2="0.5"
     gradientTransform="matrix(24.567132,0,0,18.491885,11.716434,14.352283)"
     gradientUnits="userSpaceOnUse">
    <stop
       offset="0%"
       stop-opacity="1"
       style="stop-color:rgb(135,154,242)"
       id="stop2" />
    <stop
       offset="47.91666666666667%"
       stop-opacity="1"
       style="stop-color:rgb(211,32,139)"
       id="stop4" />
    <stop
       offset="97.91666666666666%"
       stop-opacity="1"
       style="stop-color:rgb(253,160,0)"
       id="stop6" />
  </linearGradient>
  <rect
     x="-46.783188"
     y="1.2253767"
     height="45.80014"
     rx="6.1837621"
     shape-rendering="crispEdges"
     id="rect5-6-7-3"
     ry="6.8055277"
     transform="matrix(0.00524063,-0.99998627,0.99998801,0.00489691,0,0)"
     style="isolation:isolate;fill:#ff8900;fill-opacity:0.13470298;stroke:url(#linearGradient872);stroke-width:2.0301;stroke-miterlimit:4;stroke-dasharray:none;stroke-opacity:1"
     width="45.801998" />
  <rect
     x="-15.686804"
     y="17.260084"
     height="33.345856"
     rx="6.7920032"
     shape-rendering="crispEdges"
     id="rect5-6-6-6-6"
     style="isolation:isolate;fill:#ff8900;fill-opacity:0.13470298;stroke:url(#linearGradient15);stroke-width:1.67233;stroke-miterlimit:4;stroke-dasharray:none;stroke-opacity:1"
     ry="7.4743071"
     transform="matrix(0.72446484,-0.68931175,0.68622417,0.72739012,0,0)"
     width="33.338203" />
  <path
     style="color:#000000;fill:url(#linearGradient1112);-inkscape-stroke:none"
     d="m 25.333984,16.125 c -0.423593,-0.03244 -0.812416,0.184814 -1.115234,0.501953 -0.302818,0.317139 -0.559062,0.750152 -0.792969,1.308594 l -2.216797,5.292969 -0.830078,-3.119141 c -0.157996,-0.5928 -0.375157,-1.074214 -0.666015,-1.443359 -0.290859,-0.369146 -0.676652,-0.630129 -1.111329,-0.691407 -0.434676,-0.06128 -0.876241,0.08309 -1.257812,0.357422 -0.381571,0.274332 -0.723345,0.677161 -1.039063,1.203125 l -1.763671,2.941406 h -3.324219 v 3.046875 h 5.046875 l 1.662109,-2.771484 1.291016,4.837891 c 0.155962,0.584138 0.347912,1.046418 0.601562,1.40039 0.253651,0.353973 0.605374,0.622452 1.029297,0.644532 0.423924,0.02208 0.802747,-0.209433 1.091797,-0.535157 0.28905,-0.325724 0.528342,-0.76525 0.744141,-1.330078 l 2.185547,-5.716797 1.597656,6.914063 c 0.137752,0.596188 0.333624,1.081612 0.605469,1.457031 0.271845,0.375419 0.640893,0.649039 1.070312,0.716797 0.429419,0.06776 0.866019,-0.07808 1.240234,-0.351563 0.374216,-0.273486 0.710803,-0.674397 1.025391,-1.199218 l 2.4375,-4.066407 h 3.9375 v -3.046875 h -0.5 -5.160156 l -2.205078,3.669922 -1.97461,-7.941406 C 26.797199,17.617694 26.608418,17.150517 26.357422,16.791016 26.106426,16.431515 25.757578,16.157445 25.333984,16.125 Z m -0.07813,0.996094 c 0.04165,0.0032 0.137543,0.03356 0.283203,0.242187 0.145661,0.208629 0.306958,0.573109 0.433594,1.082031 l 2.558594,10.28711 3.158203,-5.25586 h 4.09375 v 1.046875 h -3.503906 l -2.728516,4.550782 c -0.266322,0.4443 -0.535156,0.743526 -0.757812,0.90625 -0.222657,0.162723 -0.37579,0.190549 -0.494141,0.171875 -0.118351,-0.01867 -0.254257,-0.09107 -0.416016,-0.314453 -0.161758,-0.223389 -0.32674,-0.590979 -0.443359,-1.095704 L 25.105469,18.630859 21.75,27.412109 c -0.187512,0.490791 -0.391057,0.836597 -0.558594,1.025391 -0.167537,0.188794 -0.259232,0.200874 -0.291015,0.199219 -0.03178,-0.0017 -0.122511,-0.02335 -0.269532,-0.228516 -0.14702,-0.205169 -0.313702,-0.568609 -0.449218,-1.076172 l -1.898438,-7.121094 -2.585937,4.3125 h -3.480469 v -1.046875 h 2.888672 l 2.05664,-3.427734 c 0.265704,-0.442645 0.53633,-0.739444 0.765625,-0.904297 0.229296,-0.164853 0.397561,-0.199085 0.535157,-0.179687 0.137596,0.0194 0.288109,0.09849 0.46289,0.320312 0.174781,0.221825 0.353358,0.583131 0.486328,1.082031 l 1.585938,5.951172 3.349609,-7.996093 c 0.202672,-0.483869 0.418021,-0.82182 0.59375,-1.00586 0.175729,-0.184039 0.272808,-0.198502 0.314453,-0.195312 z"
     id="path9" />
  <linearGradient
     id="_lgradient_16"
     x1="-0.014458464773922156"
     y1="0.009839246119734024"
     x2="1.0164565923220248"
     y2="1.0722930524759795"
     gradientTransform="matrix(23.543502,0,0,23.543502,12.228249,12.228249)"
     gradientUnits="userSpaceOnUse">
    <stop
       offset="0%"
       stop-opacity="1"
       style="stop-color:rgb(249,212,35)"
       id="stop11" />
    <stop
       offset="51.56237565086822%"
       stop-opacity="1"
       style="stop-color:rgb(255,78,80)"
       id="stop13" />
    <stop
       offset="99.1304347826087%"
       stop-opacity="1"
       style="stop-color:rgb(138,35,135)"
       id="stop15" />
  </linearGradient>
  <path
     style="color:#000000;fill:url(#linearGradient943);fill-rule:evenodd;-inkscape-stroke:none"
     d="m 16.322266,11.728516 c -1.217123,0 -2.387997,0.481747 -3.25,1.34375 -0.862003,0.862003 -1.34375,2.032877 -1.34375,3.25 v 3.583984 c 0,0.835575 0.687863,1.523437 1.523437,1.523437 0.835574,0 1.523438,-0.687863 1.523438,-1.523437 v -3.583984 c 0,-0.410448 0.163545,-0.804171 0.453125,-1.09375 0.289579,-0.28958 0.683302,-0.453125 1.09375,-0.453125 h 15.355468 c 0.410448,0 0.804171,0.163545 1.09375,0.453125 0.28958,0.289579 0.453125,0.683302 0.453125,1.09375 v 4.095703 c 0,0.835574 0.687863,1.523437 1.523438,1.523437 0.835575,0 1.523437,-0.687862 1.523437,-1.523437 v -4.095703 c 0,-1.217123 -0.481747,-2.387997 -1.34375,-3.25 -0.862003,-0.862003 -2.032877,-1.34375 -3.25,-1.34375 z m 0,1 h 15.355468 c 0.952972,0 1.869528,0.377339 2.542969,1.050781 0.673442,0.673441 1.050781,1.589997 1.050781,2.542969 v 4.095703 c 0,0.294512 -0.228925,0.523437 -0.523437,0.523437 -0.294512,0 -0.523438,-0.228925 -0.523438,-0.523437 v -4.095703 c 0,-0.6746 -0.267952,-1.32264 -0.746093,-1.800782 -0.478142,-0.478141 -1.126182,-0.746093 -1.800782,-0.746093 H 16.322266 c -0.6746,0 -1.32264,0.267952 -1.800782,0.746093 -0.478141,0.478142 -0.746093,1.126182 -0.746093,1.800782 v 3.583984 c 0,0.294513 -0.228925,0.523437 -0.523438,0.523437 -0.294512,0 -0.523437,-0.228925 -0.523437,-0.523437 v -3.583984 c 0,-0.952972 0.377339,-1.869528 1.050781,-2.542969 0.673441,-0.673442 1.589997,-1.050781 2.542969,-1.050781 z m 18.425781,13.330078 c -0.835575,0 -1.523438,0.687863 -1.523438,1.523437 v 4.095703 c 0,0.410448 -0.163545,0.804171 -0.453125,1.09375 -0.289579,0.28958 -0.683302,0.453125 -1.09375,0.453125 H 16.322266 c -0.410448,0 -0.804171,-0.163545 -1.09375,-0.453125 -0.28958,-0.289579 -0.453125,-0.683302 -0.453125,-1.09375 V 28.09375 c 0,-0.835574 -0.687864,-1.523437 -1.523438,-1.523438 -0.835574,0 -1.523437,0.687863 -1.523437,1.523438 v 3.583984 c 0,1.217123 0.481747,2.387997 1.34375,3.25 0.862003,0.862003 2.032877,1.34375 3.25,1.34375 h 15.355468 c 1.217123,0 2.387997,-0.481747 3.25,-1.34375 0.862003,-0.862003 1.34375,-2.032877 1.34375,-3.25 v -4.095703 c 0,-0.835575 -0.687862,-1.523437 -1.523437,-1.523437 z m 0,1 c 0.294512,0 0.523437,0.228925 0.523437,0.523437 v 4.095703 c 0,0.952972 -0.377339,1.869528 -1.050781,2.542969 -0.673441,0.673442 -1.589997,1.050781 -2.542969,1.050781 H 16.322266 c -0.952972,0 -1.869528,-0.377339 -2.542969,-1.050781 -0.673442,-0.673441 -1.050781,-1.589997 -1.050781,-2.542969 V 28.09375 c 0,-0.294512 0.228925,-0.523438 0.523437,-0.523438 0.294513,0 0.523438,0.228925 0.523438,0.523438 v 3.583984 c 0,0.6746 0.267952,1.32264 0.746093,1.800782 0.478142,0.478141 1.126182,0.746093 1.800782,0.746093 h 15.355468 c 0.6746,0 1.32264,-0.267952 1.800782,-0.746093 0.478141,-0.478142 0.746093,-1.126182 0.746093,-1.800782 v -4.095703 c 0,-0.294512 0.228926,-0.523437 0.523438,-0.523437 z"
     id="path18" />
</svg>
