<?xml version="1.0" encoding="UTF-8" standalone="no"?>
<!-- Generator: Gravit.io -->

<svg
   style="isolation:isolate"
   viewBox="0 0 48 48"
   width="48pt"
   height="48pt"
   version="1.1"
   id="svg9"
   sodipodi:docname="utox.svg"
   inkscape:version="1.1.2 (0a00cf5339, 2022-02-04)"
   xmlns:inkscape="http://www.inkscape.org/namespaces/inkscape"
   xmlns:sodipodi="http://sodipodi.sourceforge.net/DTD/sodipodi-0.dtd"
   xmlns:xlink="http://www.w3.org/1999/xlink"
   xmlns="http://www.w3.org/2000/svg"
   xmlns:svg="http://www.w3.org/2000/svg">
  <defs
     id="defs13">
    <linearGradient
       inkscape:collect="always"
       xlink:href="#_lgradient_2"
       id="linearGradient872"
       x1="-12.025727"
       y1="6.1170783"
       x2="-0.085100174"
       y2="6.1170783"
       gradientUnits="userSpaceOnUse"
       gradientTransform="matrix(3.8358211,0,0,3.8371386,-0.00544341,-0.00268054)" />
    <linearGradient
       id="_lgradient_21"
       x1="0"
       y1="0.5"
       x2="1"
       y2="0.5"
       gradientTransform="matrix(28.183272,0,0,28.298876,9.8766106,9.8505561)"
       gradientUnits="userSpaceOnUse">
      <stop
         offset="0%"
         stop-opacity="1"
         style="stop-color:rgb(255,224,49)"
         id="stop2-3" />
      <stop
         offset="98.69565217391305%"
         stop-opacity="1"
         style="stop-color:rgb(252,82,82)"
         id="stop4-6" />
    </linearGradient>
    <linearGradient
       inkscape:collect="always"
       xlink:href="#_lgradient_2"
       id="linearGradient15"
       x1="-9.6850061"
       y1="45.161198"
       x2="11.98815"
       y2="21.735205"
       gradientUnits="userSpaceOnUse"
       gradientTransform="matrix(1.1147442,0,0,1.1150348,-0.01237238,-3.3277956)" />
    <linearGradient
       inkscape:collect="always"
       xlink:href="#_lgradient_2"
       id="linearGradient986"
       x1="12.307089"
       y1="20.813425"
       x2="35.692883"
       y2="20.813425"
       gradientUnits="userSpaceOnUse" />
  </defs>
  <sodipodi:namedview
     id="namedview11"
     pagecolor="#ffffff"
     bordercolor="#666666"
     borderopacity="1.0"
     inkscape:pageshadow="2"
     inkscape:pageopacity="0.0"
     inkscape:pagecheckerboard="0"
     inkscape:document-units="pt"
     showgrid="false"
     inkscape:zoom="10.21875"
     inkscape:cx="31.95107"
     inkscape:cy="32"
     inkscape:window-width="1600"
     inkscape:window-height="836"
     inkscape:window-x="0"
     inkscape:window-y="0"
     inkscape:window-maximized="1"
     inkscape:current-layer="svg9" />
  <linearGradient
     id="_lgradient_2"
     x1="0.47427983539094654"
     y1="0.9973404255319147"
     x2="0.5231155909777572"
     y2="-0.044943441960678676"
     gradientTransform="matrix(23.385822,0,0,28.269898,12.307089,6.6784847)"
     gradientUnits="userSpaceOnUse">
    <stop
       offset="0%"
       stop-opacity="1"
       style="stop-color:rgb(249,106,219)"
       id="stop2" />
    <stop
       offset="98.75%"
       stop-opacity="1"
       style="stop-color:rgb(188,49,210)"
       id="stop4" />
  </linearGradient>
  <rect
     x="-46.783188"
     y="1.2253767"
     height="45.80014"
     rx="6.1837621"
     shape-rendering="crispEdges"
     id="rect5-6-7-3"
     ry="6.8055277"
     transform="matrix(0.00524063,-0.99998627,0.99998801,0.00489691,0,0)"
     style="isolation:isolate;fill:#ce00ff;fill-opacity:0.13470298;stroke:url(#linearGradient872);stroke-width:2.0301;stroke-miterlimit:4;stroke-dasharray:none;stroke-opacity:1"
     width="45.801998" />
  <rect
     x="-15.686804"
     y="17.260084"
     height="33.345856"
     rx="6.7920032"
     shape-rendering="crispEdges"
     id="rect5-6-6-6-6"
     style="isolation:isolate;fill:#ce00ff;fill-opacity:0.13470298;stroke:url(#linearGradient15);stroke-width:1.67233;stroke-miterlimit:4;stroke-dasharray:none;stroke-opacity:1"
     ry="7.4743071"
     transform="matrix(0.72446484,-0.68931175,0.68622417,0.72739012,0,0)"
     width="33.338203" />
  <path
     style="color:#000000;fill:url(#linearGradient986);fill-rule:evenodd;-inkscape-stroke:none"
     d="m 23.914062,6.1777344 c -1.218663,0.00638 -2.425717,0.2688396 -3.537109,0.7734375 h -0.002 c -1.187107,0.5430383 -2.259358,1.3009746 -3.167969,2.2285156 l -0.002,0.00195 -0.002,0.00195 c -0.414831,0.4349041 -0.744272,0.9459042 -0.966797,1.5097652 -0.232881,0.542061 -0.367389,1.131067 -0.380859,1.730469 l 0.146484,-0.341797 c -0.242093,0.242497 -0.152344,0.370953 -0.152344,0.376953 v 3.998047 h -1.292968 c -0.725906,0 -1.430205,0.285185 -1.947266,0.808594 -0.515321,0.515321 -0.802734,1.214622 -0.802734,1.941406 v 13.492188 c 0,0.725902 0.28664,1.424311 0.800781,1.939453 4.42e-4,4.48e-4 0.0015,-4.48e-4 0.002,0 4.42e-4,4.43e-4 -4.43e-4,0.0015 0,0.002 0.517061,0.523409 1.22136,0.808594 1.947266,0.808594 h 18.886718 c 0.726785,0 1.431989,-0.285927 1.949219,-0.810547 0.514141,-0.515142 0.800781,-1.213551 0.800781,-1.939453 V 19.207031 c 0,-0.725902 -0.28664,-1.424311 -0.800781,-1.939453 -0.515119,-0.522478 -1.216453,-0.810056 -1.947266,-0.810547 h -0.002 l -1.292968,-0.0039 -0.0059,-3.994141 v -0.0293 -0.0059 c -0.01354,-0.602515 -0.156833,-1.19248 -0.402344,-1.740234 -0.22386,-0.559426 -0.557786,-1.0714585 -0.988281,-1.5019534 l -0.002,-0.00195 -0.002,-0.00195 C 29.805282,8.2519114 28.697896,7.4983933 27.490234,6.9511719 l -0.002,-0.00195 C 26.365335,6.4451689 25.14794,6.1841021 23.917969,6.1777344 h -0.002 z m 0,1 c 1.091767,0.00565 2.17173,0.2392477 3.166016,0.6855468 1.101079,0.4992746 2.111609,1.1873849 2.970703,2.0292969 0.335208,0.3362589 0.597054,0.7361159 0.769531,1.1699219 l 0.0039,0.0098 0.0039,0.0098 c 0.196564,0.435629 0.305977,0.899151 0.316406,1.363282 v 0.01367 l 0.0078,4.992188 2.291015,0.0059 c 0.471487,0 0.91176,0.182485 1.238282,0.513672 v 0.002 h 0.002 c 0.326759,0.32676 0.509765,0.770217 0.509765,1.234375 v 13.492188 c 0,0.464158 -0.183006,0.907615 -0.509765,1.234375 h -0.002 v 0.002 c -0.324851,0.329491 -0.774123,0.513672 -1.238282,0.513672 H 14.556641 c -0.464159,0 -0.913431,-0.184181 -1.238282,-0.513672 v -0.002 h -0.002 c -0.326759,-0.32676 -0.509765,-0.770217 -0.509765,-1.234375 V 19.207031 c 0,-0.464158 0.183006,-0.907615 0.509765,-1.234375 h 0.002 v -0.002 c 0.324851,-0.329491 0.774123,-0.513672 1.238282,-0.513672 h 2.292968 v -0.5 -4.310547 l 0.0059,-0.201171 c 0.01051,-0.467875 0.115054,-0.933455 0.300781,-1.363282 l 0.0039,-0.0078 0.0039,-0.0078 c 0.173763,-0.442304 0.430224,-0.843068 0.757813,-1.1874997 l 0.002,-0.00195 c 6.28e-4,-6.591e-4 0.0013,-0.00129 0.002,-0.00195 C 18.748632,9.0359549 19.7182,8.3520839 20.791016,7.8613281 21.771625,7.4161084 22.83636,7.1839153 23.914062,7.1777344 Z m -0.002,0.8046875 c -0.960045,0.00649 -1.90772,0.2137863 -2.783203,0.609375 V 8.59375 C 20.145755,9.0406365 19.257618,9.6651962 18.5,10.435547 l -0.002,0.0039 -0.0039,0.0039 c -0.252289,0.266707 -0.44795,0.587785 -0.580079,0.9375 -0.156648,0.340518 -0.245412,0.704327 -0.259765,1.070313 v 0.0098 5.800781 h -3.097656 c -0.253625,0 -0.495071,0.102492 -0.671875,0.279297 -0.185242,0.18523 -0.273438,0.428938 -0.273438,0.666015 v 13.492188 c 0,0.237086 0.08822,0.480795 0.273438,0.666015 0.176803,0.176804 0.418241,0.279297 0.671875,0.279297 h 18.886718 c 0.253628,0 0.495072,-0.102494 0.671875,-0.279297 0.18524,-0.185228 0.273438,-0.428938 0.273438,-0.666015 V 19.207031 c 0,-0.236961 -0.08821,-0.486652 -0.273438,-0.671875 -0.184766,-0.184775 -0.433495,-0.273002 -0.669922,-0.273437 h -0.002 l -3.097656,-0.0098 -0.0059,-5.791015 v -0.0098 C 30.325508,12.08561 30.235229,11.725582 30.078125,11.390625 29.944221,11.043407 29.74391,10.73148 29.488281,10.46875 l -0.0039,-0.0059 -0.0039,-0.0039 C 28.686099,9.6836789 27.758483,9.0562808 26.75,8.5996094 v -0.00195 C 25.856719,8.196327 24.896649,7.9888743 23.919922,7.9824219 h -0.0039 z m 0.0039,1 c 0.837766,0.00606 1.656739,0.1838799 2.421875,0.5273437 0.901261,0.4081185 1.727749,0.9690164 2.435546,1.6582034 0.170895,0.176149 0.300248,0.373574 0.382813,0.59375 l 0.0078,0.02148 0.0078,0.01953 c 0.100855,0.210877 0.157556,0.441316 0.167969,0.679688 l 0.0078,6.765625 4.041016,0.01367 V 32.644531 H 14.611328 V 19.261719 h 4.042969 v -0.5 -6.279297 c 0.01042,-0.238869 0.06607,-0.477616 0.167969,-0.695313 l 0.0098,-0.01953 0.0078,-0.02148 c 0.08456,-0.230198 0.217935,-0.443 0.380859,-0.615235 0.67199,-0.681607 1.454449,-1.2331589 2.320313,-1.6269527 0.747356,-0.3376947 1.555966,-0.5154128 2.375,-0.5214844 z M 24,9.2617188 c -2.505396,0 -4.546875,2.0414782 -4.546875,4.5468752 0,2.505925 2.041569,4.546875 4.546875,4.546875 -0.01925,0 -0.05777,-0.05091 -0.0039,0.05273 0.05386,0.103641 0.111879,0.318626 0.142578,0.544922 0.0614,0.452591 0.03711,0.933594 0.03711,0.933594 l -0.03125,0.55664 0.556641,-0.0293 c 0.283338,-0.01466 0.433525,-0.129049 0.607422,-0.255859 0.173896,-0.12681 0.350774,-0.289608 0.539062,-0.486328 0.376578,-0.39344 0.792076,-0.92349 1.1875,-1.541016 0.790849,-1.23505 1.511719,-2.806464 1.511719,-4.322265 0,-2.505307 -2.040949,-4.5468753 -4.546875,-4.5468752 z m 0,1.0000002 c 1.965526,0 3.546875,1.581934 3.546875,3.546875 0,1.182468 -0.626664,2.648096 -1.353516,3.783203 -0.359943,0.562114 -0.741412,1.041989 -1.058593,1.375 -0.0068,-0.07394 0.0045,-0.07229 -0.0059,-0.148438 -0.03915,-0.288577 -0.09927,-0.58858 -0.246094,-0.871093 C 24.735986,17.664752 24.414722,17.355469 24,17.355469 c -1.964941,0 -3.546875,-1.581349 -3.546875,-3.546875 0,-1.964852 1.582024,-3.546875 3.546875,-3.546875 z m -0.5,11.816406 v 0.208984 c -1.117707,0.258747 -2.023437,1.122993 -2.023438,2.316407 0,0.761243 0.406366,1.356532 0.94336,1.818359 -0.0891,0.05709 -0.221462,0.0535 -0.298828,0.119141 -0.312168,0.264853 -0.549796,0.581839 -0.75,0.871093 -0.454549,0.655309 -0.570313,1.369848 -0.570313,1.78125 v 0.002 c 3.01e-4,0.116517 0.0014,0.232143 0.002,0.320313 2.66e-4,0.04408 0.0016,0.08022 0.002,0.107422 6.1e-5,0.0053 -6.3e-5,0.0091 0,0.01367 0.0011,-0.02761 -0.0039,-0.0072 -0.0039,0.06445 0,0.0069 0.0077,0.0107 0.0078,0.01758 0.0013,0.0098 0.0019,0.02143 0.002,0.02148 0,0 0.0057,-0.0019 0.0059,-0.002 6.45e-4,0.02185 0.02183,0.03503 0.02344,0.05664 -9.6e-4,2.83e-4 -0.01563,0.0039 -0.01563,0.0039 0,0 0.04297,0.101563 0.04297,0.101563 0,0 0.01925,0.02626 0.03906,0.05273 0.13569,0.673707 0.663186,1.220703 1.375,1.220703 h 3.439453 c 0.809251,0 1.478516,-0.664456 1.478516,-1.472656 0,0 -0.002,-0.002 -0.002,-0.002 l 0.002,-0.02148 v -0.484375 c 0,-0.22912 -0.05005,-0.480849 -0.148438,-0.792968 -0.09839,-0.31212 -0.247213,-0.661528 -0.482422,-0.978516 -0.197018,-0.265916 -0.412529,-0.580562 -0.705078,-0.853516 -0.07605,-0.07096 -0.217721,-0.07021 -0.308594,-0.132812 0.550213,-0.462089 0.96875,-1.062252 0.96875,-1.833985 C 26.523438,23.213639 25.387924,22.078125 24,22.078125 Z m 0.5,1.001953 h 0.0039 c 0.844984,0.0025 1.519532,0.675864 1.519531,1.521484 0,0.716966 -0.489928,1.306259 -1.152343,1.472657 l 0.121093,0.984375 h 0.183594 c 0.185037,0 0.320529,0.07109 0.503906,0.242187 0.183378,0.171094 0.376805,0.437165 0.583985,0.716797 0.141924,0.191269 0.258544,0.450466 0.332031,0.683594 0.07349,0.233128 0.103516,0.464473 0.103516,0.492187 v 0.464844 c 2.61e-4,0.01493 0,0.04888 0,0.04297 0,0.264852 -0.207498,0.472656 -0.478516,0.472656 H 22.28125 c -0.271549,0 -0.480469,-0.207644 -0.480469,-0.472656 0,0.04402 0.0016,0.03498 0.0039,-0.02148 l 0.02148,-0.521484 H 21.8125 c 0.007,-0.133643 0.121404,-0.801734 0.380859,-1.175781 v -0.002 c 0.181139,-0.261708 0.378432,-0.511623 0.574219,-0.677735 0.195787,-0.166112 0.36599,-0.24414 0.558594,-0.24414 h 0.18164 l 0.121094,-0.984375 c -0.662624,-0.16645 -1.152343,-0.75299 -1.152344,-1.470703 10e-7,-0.8472 0.676059,-1.523438 1.523438,-1.523438 z m -2.695313,6.578125 c 0,0 -0.375478,0.10948 -0.441406,0.128906 l -0.02148,-0.05273 c 0.05491,-0.0091 0.462891,-0.07617 0.46289,-0.07617 z"
     id="path7" />
</svg>
