<?xml version="1.0" encoding="UTF-8" standalone="no"?>
<!-- Generator: Gravit.io -->

<svg
   style="isolation:isolate"
   viewBox="0 0 48 48"
   width="48pt"
   height="48pt"
   version="1.1"
   id="svg16"
   sodipodi:docname="ventoy.svg"
   inkscape:version="1.1.2 (0a00cf5339, 2022-02-04)"
   xmlns:inkscape="http://www.inkscape.org/namespaces/inkscape"
   xmlns:sodipodi="http://sodipodi.sourceforge.net/DTD/sodipodi-0.dtd"
   xmlns:xlink="http://www.w3.org/1999/xlink"
   xmlns="http://www.w3.org/2000/svg"
   xmlns:svg="http://www.w3.org/2000/svg">
  <defs
     id="defs20">
    <linearGradient
       inkscape:collect="always"
       xlink:href="#_lgradient_9"
       id="linearGradient872"
       x1="-12.025727"
       y1="6.1170783"
       x2="-0.085100174"
       y2="6.1170783"
       gradientUnits="userSpaceOnUse"
       gradientTransform="matrix(3.8358211,0,0,3.8371386,-0.00544341,-0.00268054)" />
    <linearGradient
       inkscape:collect="always"
       xlink:href="#_lgradient_9"
       id="linearGradient15"
       x1="-9.6850061"
       y1="45.161198"
       x2="11.98815"
       y2="21.735205"
       gradientUnits="userSpaceOnUse"
       gradientTransform="matrix(1.1147442,0,0,1.1150348,-0.01237238,-3.3277956)" />
    <linearGradient
       inkscape:collect="always"
       xlink:href="#_lgradient_8"
       id="linearGradient975"
       x1="8.3649426"
       y1="24"
       x2="36.78006"
       y2="24"
       gradientUnits="userSpaceOnUse" />
    <linearGradient
       inkscape:collect="always"
       xlink:href="#_lgradient_9"
       id="linearGradient1005"
       x1="16.158468"
       y1="25.783129"
       x2="27.479694"
       y2="25.783129"
       gradientUnits="userSpaceOnUse" />
  </defs>
  <sodipodi:namedview
     id="namedview18"
     pagecolor="#ffffff"
     bordercolor="#666666"
     borderopacity="1.0"
     inkscape:pageshadow="2"
     inkscape:pageopacity="0.0"
     inkscape:pagecheckerboard="0"
     inkscape:document-units="pt"
     showgrid="false"
     inkscape:zoom="10.21875"
     inkscape:cx="32.04893"
     inkscape:cy="32"
     inkscape:window-width="1600"
     inkscape:window-height="836"
     inkscape:window-x="0"
     inkscape:window-y="0"
     inkscape:window-maximized="1"
     inkscape:current-layer="svg16" />
  <linearGradient
     id="_lgradient_8"
     x1="0.3440492173900802"
     y1="0.8168828664029211"
     x2="0.6465623928915836"
     y2="0.13335786255610216"
     gradientTransform="matrix(31.059158,27.274793,-26.840231,31.789551,20.46272,-5.5318553)"
     gradientUnits="userSpaceOnUse">
    <stop
       offset="0%"
       stop-opacity="1"
       style="stop-color:rgb(59,228,234)"
       id="stop2" />
    <stop
       offset="98.26086956521739%"
       stop-opacity="1"
       style="stop-color:rgb(26,147,237)"
       id="stop4" />
  </linearGradient>
  <rect
     x="-46.783188"
     y="1.2253767"
     height="45.80014"
     rx="6.1837621"
     shape-rendering="crispEdges"
     id="rect5-6-7-3"
     ry="6.8055277"
     transform="matrix(0.00524063,-0.99998627,0.99998801,0.00489691,0,0)"
     style="isolation:isolate;fill:#0093ff;fill-opacity:0.13470298;stroke:url(#linearGradient872);stroke-width:2.0301;stroke-miterlimit:4;stroke-dasharray:none;stroke-opacity:1"
     width="45.801998" />
  <rect
     x="-15.686804"
     y="17.260084"
     height="33.345856"
     rx="6.7920032"
     shape-rendering="crispEdges"
     id="rect5-6-6-6-6"
     style="isolation:isolate;fill:#0093ff;fill-opacity:0.13470298;stroke:url(#linearGradient15);stroke-width:1.67233;stroke-miterlimit:4;stroke-dasharray:none;stroke-opacity:1"
     ry="7.4743071"
     transform="matrix(0.72446484,-0.68931175,0.68622417,0.72739012,0,0)"
     width="33.338203" />
  <path
     style="color:#000000;fill:url(#linearGradient975);fill-rule:evenodd;-inkscape-stroke:none"
     d="M 28.0625,8.3125 C 27.123128,8.38259 26.209514,8.8141081 25.552734,9.5917969 L 23.605469,11.900391 C 22.191106,11.333762 20.538737,11.572616 19.5,12.802734 l -3.722656,4.408203 c -0.631023,0.746552 -0.548018,1.877422 0.185547,2.521485 0.733973,0.644529 1.867825,0.557183 2.498046,-0.189453 l 2.894532,-3.429688 c 0.508945,-0.602339 1.376486,-0.667074 1.96875,-0.146484 l 7.197265,6.320312 c 0.592348,0.520192 0.661295,1.430387 0.152344,2.033203 L 30.257812,24.8125 c -0.63008,0.746471 -0.548509,1.876883 0.185547,2.521484 0.733598,0.644091 1.867827,0.557184 2.498047,-0.189453 l 1.244141,-1.472656 c 1.043265,-1.23548 1.026714,-2.930026 0.257812,-4.267578 l 1.955078,-2.314453 c 1.313641,-1.555474 1.137342,-3.909073 -0.392578,-5.251953 L 30.732422,9.2050781 C 29.96751,8.5333143 29.001872,8.24241 28.0625,8.3125 Z m 0.07227,0.9863281 c 0.677881,-0.050586 1.375922,0.1650121 1.9375,0.6582032 l 5.273437,4.6308597 c 1.12306,0.985761 1.253386,2.713619 0.289063,3.855468 l -2.070313,2.453125 -0.300781,0.355469 0.242187,0.318359 c 0.762739,1.003969 0.760298,2.457196 -0.08398,3.457032 l -1.244141,1.470703 c -0.281978,0.334066 -0.748649,0.369831 -1.074218,0.08398 -0.326375,-0.286601 -0.36415,-0.790768 -0.08203,-1.125 L 31.4375,24.966797 c 0.858082,-1.016338 0.743073,-2.554393 -0.255859,-3.431641 L 23.984375,15.214844 C 22.985359,14.336727 21.449884,14.4532 20.591797,15.46875 l -2.894531,3.429687 c -0.28198,0.334067 -0.749715,0.368706 -1.076172,0.08203 -0.3256,-0.285874 -0.36252,-0.788895 -0.08008,-1.123047 l 3.722656,-4.410156 c 0.844385,-0.999959 2.229364,-1.214612 3.3125,-0.597657 l 0.361328,0.207032 0.267578,-0.31836 0.04297,-0.04883 2.068359,-2.451172 c 0.482203,-0.5709727 1.140478,-0.8888664 1.81836,-0.9394529 z m 0.134765,1.8574219 c -0.454195,0.03389 -0.895903,0.24041 -1.210937,0.613281 l -1.970703,2.335938 0.367187,0.322265 6.625,5.816407 1.982422,-2.34961 C 34.692297,17.148235 34.608211,16.019735 33.875,15.375 l -4.318359,-3.791016 c -0.367092,-0.322409 -0.832915,-0.461623 -1.28711,-0.427734 z m 0.628906,1.179688 0.34961,0.30664 -0.09766,0.115235 -1.738282,2.058593 -0.927734,-0.814453 1.337891,-1.585937 c 0.280863,-0.332428 0.748655,-0.36773 1.076171,-0.08008 z m 0.6875,1.455078 0.208985,0.183593 -1.007813,1.19336 -0.208984,-0.181641 z m 1.373047,0.355468 0.689453,0.603516 -0.09766,0.115234 -1.738281,2.058594 -0.6875,-0.603516 z m 1.027344,1.751954 0.208984,0.183593 -1.007812,1.19336 -0.208984,-0.181641 z m 1.248047,0.501953 c 0.139569,0.27973 0.277156,0.59756 0.06445,0.849609 l -1.326172,1.570312 -0.447265,-0.392578 z m -19.552734,4.111328 c -0.453977,0.03412 -0.896048,0.242096 -1.210938,0.615234 l -0.002,0.002 c -0.630593,0.746201 -0.545747,1.875747 0.1875,2.519531 0.733826,0.644398 1.866298,0.557919 2.496094,-0.1875 l 0.0039,-0.0039 v -0.002 c 5.67e-4,-6.73e-4 0.0014,-0.0013 0.002,-0.002 0.626398,-0.746149 0.543505,-1.870911 -0.189453,-2.513672 -0.366586,-0.322297 -0.833133,-0.461858 -1.287109,-0.427734 z m 0.626953,1.177734 v 0.002 c 0.326312,0.286157 0.363315,0.787779 0.08203,1.121094 l -0.002,0.0039 c -5.08e-4,6.02e-4 -0.0014,-5.99e-4 -0.002,0 -0.281296,0.331075 -0.746249,0.366365 -1.072266,0.08008 -0.325917,-0.286152 -0.363638,-0.787859 -0.08203,-1.121093 l 0.0039,-0.0039 c 0.281152,-0.333159 0.746273,-0.368639 1.072266,-0.08203 z m -3.107422,1.759766 c -0.45419,0.03442 -0.895827,0.241916 -1.2109376,0.615234 l -1.2441406,1.472656 c -1.3136408,1.555474 -1.1371892,3.910429 0.3925781,5.253907 l 9.1132811,8.003906 c 1.529825,1.343527 3.866128,1.168658 5.179688,-0.386719 l 3.722656,-4.410156 c 0.630558,-0.746876 0.549421,-1.875075 -0.183594,-2.519531 l -0.002,-0.002 c -0.733994,-0.644546 -1.86754,-0.556485 -2.498047,0.189454 l -2.894531,3.429687 c -0.508956,0.602823 -1.376445,0.666639 -1.96875,0.146484 L 12.410156,28.923828 C 11.817554,28.402942 11.74909,27.490747 12.257813,26.888672 l 0.416015,-0.492188 c 0.630081,-0.74647 0.548891,-1.875471 -0.185547,-2.519531 -0.366745,-0.322437 -0.832919,-0.462154 -1.287109,-0.427734 z m 0.626953,1.177734 v 0.002 c 0.325993,0.285878 0.36415,0.788815 0.08203,1.123047 l -0.416015,0.492188 c -0.858311,1.015813 -0.74282,2.551867 0.255859,3.429687 l 7.197266,6.320313 c 0.998974,0.877286 2.534501,0.762425 3.392578,-0.253907 L 25.234375,32.3125 c 0.28245,-0.334161 0.747869,-0.368965 1.074219,-0.08398 0.32615,0.286747 0.364938,0.789906 0.08203,1.125 l -3.722656,4.408203 c -0.964406,1.141946 -2.632703,1.267632 -3.75586,0.28125 L 9.7988281,30.039062 C 8.6756153,29.05263 8.5454415,27.325444 9.5097656,26.183594 l 1.2441404,-1.472657 c 0.281978,-0.334066 0.748544,-0.370313 1.074219,-0.08398 z m 16.333984,3.486328 c -0.453949,0.0342 -0.896039,0.240572 -1.210937,0.613281 l -0.002,0.0039 c -0.629648,0.746121 -0.546621,1.87575 0.1875,2.519531 0.733172,0.644596 1.866314,0.558778 2.496093,-0.1875 l 0.0039,-0.0039 c 0.630469,-0.746055 0.545197,-1.873401 -0.1875,-2.517578 -0.366913,-0.3222 -0.83316,-0.461935 -1.28711,-0.427735 z m 0.626953,1.177735 c 0.326469,0.287026 0.365717,0.789664 0.08398,1.123046 l -0.0039,0.0039 c -0.281152,0.333159 -0.746273,0.366687 -1.072266,0.08008 -0.326312,-0.286156 -0.365268,-0.789731 -0.08398,-1.123047 l 0.0039,-0.002 c 0.281137,-0.33275 0.74566,-0.368837 1.072265,-0.08203 z"
     id="path7" />
  <linearGradient
     id="_lgradient_9"
     x1="0"
     y1="0.5"
     x2="1"
     y2="0.5"
     gradientTransform="matrix(11.927021,-0.69681977,0.6892181,11.792724,15.551407,20.273915)"
     gradientUnits="userSpaceOnUse">
    <stop
       offset="0%"
       stop-opacity="1"
       style="stop-color:rgb(136,42,233)"
       id="stop9" />
    <stop
       offset="100%"
       stop-opacity="1"
       style="stop-color:rgb(52,236,235)"
       id="stop11" />
  </linearGradient>
  <path
     style="color:#000000;fill:url(#linearGradient1005);-inkscape-stroke:none"
     d="m 28.121094,18.810547 -2.292969,0.835937 -2.292969,0.835938 1.126953,0.943359 -4.18164,4.539063 -0.06055,-1.027344 0.58789,-0.667969 0.125,-0.136719 c 0.60617,-0.185462 1.079319,-0.691812 1.041016,-1.349609 -0.04484,-0.771038 -0.717404,-1.369049 -1.488281,-1.324219 -0.771145,0.0449 -1.369091,0.717655 -1.324219,1.488282 0.0048,0.08489 0.05097,0.153842 0.07031,0.234375 l -0.962891,1.072265 0.214844,3.664063 -0.845703,0.917968 c -0.141588,-0.02532 -0.27479,-0.07895 -0.423829,-0.07031 -1.021507,0.05943 -1.811394,0.947918 -1.751953,1.96875 0.06026,1.020973 0.947541,1.811366 1.96875,1.751953 1.02041,-0.05942 1.809188,-0.946321 1.75,-1.966797 v -0.002 c -0.0086,-0.148957 -0.07749,-0.274404 -0.11914,-0.412109 l 1.763672,-1.914063 3.591796,-0.208984 1.269532,-1.589844 0.388672,0.333984 1.910156,-2.21875 -2.101563,-1.80664 0.04297,-0.04687 1.148438,0.960937 0.421875,-2.402343 z m -1.285157,1.533203 -0.123046,0.697266 -0.123047,0.697265 -0.484375,-0.404297 0.002,-0.002 -0.601563,-0.503906 0.664063,-0.242188 z m -6.091796,2.113281 c 0.231276,-0.01345 0.4182,0.153651 0.43164,0.384766 0.01341,0.230283 -0.152651,0.418239 -0.382812,0.43164 -0.01185,5.98e-4 -0.02341,0.0015 -0.0332,0.002 l -0.205079,0.0098 -0.0098,0.01172 -0.132813,-0.228516 c -0.03058,-0.05294 -0.04897,-0.111216 -0.05273,-0.177734 v -0.002 c -0.01341,-0.230258 0.155025,-0.418263 0.384766,-0.431641 z m 5.326171,1.550781 0.705079,0.605469 -0.605469,0.703125 -0.347656,-0.298828 -0.07031,-0.06055 -0.285156,-0.246094 z m -1.970703,0.847657 0.339844,0.292968 -0.777344,0.976563 -0.773437,0.04492 z m -6.628906,4.908203 c 0.13263,-0.0077 0.258789,0.01593 0.375,0.0625 L 18.125,29.9375 l 0.152344,0.269531 c 0.06111,0.109432 0.09777,0.23348 0.105468,0.369141 0.02835,0.480019 -0.330288,0.884145 -0.810546,0.912109 -0.481385,0.02801 -0.883684,-0.330879 -0.91211,-0.8125 -0.02798,-0.480497 0.329458,-0.88412 0.810547,-0.912109 z"
     id="path14" />
</svg>
