<?xml version="1.0" encoding="UTF-8" standalone="no"?>
<!-- Generator: Gravit.io -->

<svg
   style="isolation:isolate"
   viewBox="0 0 48 48"
   width="48pt"
   height="48pt"
   version="1.1"
   id="svg9"
   sodipodi:docname="war-thunder.svg"
   inkscape:version="1.1.2 (0a00cf5339, 2022-02-04)"
   xmlns:inkscape="http://www.inkscape.org/namespaces/inkscape"
   xmlns:sodipodi="http://sodipodi.sourceforge.net/DTD/sodipodi-0.dtd"
   xmlns:xlink="http://www.w3.org/1999/xlink"
   xmlns="http://www.w3.org/2000/svg"
   xmlns:svg="http://www.w3.org/2000/svg">
  <defs
     id="defs13">
    <linearGradient
       inkscape:collect="always"
       xlink:href="#_lgradient_2"
       id="linearGradient872"
       x1="-12.025727"
       y1="6.1170783"
       x2="-0.085100174"
       y2="6.1170783"
       gradientUnits="userSpaceOnUse"
       gradientTransform="matrix(3.8358211,0,0,3.8371386,-0.00544341,-0.00268054)" />
    <linearGradient
       inkscape:collect="always"
       xlink:href="#_lgradient_2"
       id="linearGradient15"
       x1="-9.6850061"
       y1="45.161198"
       x2="11.98815"
       y2="21.735205"
       gradientUnits="userSpaceOnUse"
       gradientTransform="matrix(1.1147442,0,0,1.1150348,-0.01237238,-3.3277956)" />
    <linearGradient
       inkscape:collect="always"
       xlink:href="#_lgradient_2"
       id="linearGradient1233"
       gradientUnits="userSpaceOnUse"
       gradientTransform="matrix(27.029009,0,0,23.105443,9.7137107,12.638981)"
       x1="0"
       y1="0.5"
       x2="0.90748805"
       y2="0.92007786" />
  </defs>
  <sodipodi:namedview
     id="namedview11"
     pagecolor="#ffffff"
     bordercolor="#666666"
     borderopacity="1.0"
     inkscape:pageshadow="2"
     inkscape:pageopacity="0.0"
     inkscape:pagecheckerboard="0"
     inkscape:document-units="pt"
     showgrid="false"
     width="48pt"
     inkscape:zoom="3.8622047"
     inkscape:cx="38.449541"
     inkscape:cy="43.239551"
     inkscape:window-width="1600"
     inkscape:window-height="836"
     inkscape:window-x="0"
     inkscape:window-y="0"
     inkscape:window-maximized="1"
     inkscape:current-layer="svg9" />
  <linearGradient
     id="_lgradient_2"
     x1="0"
     y1="0.5"
     x2="0.90748805"
     y2="0.92007786"
     gradientTransform="matrix(25.338835,0,0,21.660617,11.330583,13.169692)"
     gradientUnits="userSpaceOnUse">
    <stop
       offset="1.6666666666666667%"
       stop-opacity="1"
       style="stop-color:rgb(242,231,63)"
       id="stop2" />
    <stop
       offset="84.58333333333333%"
       stop-opacity="1"
       style="stop-color:rgb(94,239,229)"
       id="stop4" />
  </linearGradient>
  <rect
     x="-46.783188"
     y="1.2253767"
     height="45.80014"
     rx="6.1837621"
     shape-rendering="crispEdges"
     id="rect5-6-7-3"
     ry="6.8055277"
     transform="matrix(0.00524063,-0.99998627,0.99998801,0.00489691,0,0)"
     style="isolation:isolate;fill:#00ffce;fill-opacity:0.13470298;stroke:url(#linearGradient872);stroke-width:2.0301;stroke-miterlimit:4;stroke-dasharray:none;stroke-opacity:1"
     width="45.801998" />
  <rect
     x="-15.686804"
     y="17.260084"
     height="33.345856"
     rx="6.7920032"
     shape-rendering="crispEdges"
     id="rect5-6-6-6-6"
     style="isolation:isolate;fill:#00ffce;fill-opacity:0.13470298;stroke:url(#linearGradient15);stroke-width:1.67233;stroke-miterlimit:4;stroke-dasharray:none;stroke-opacity:1"
     ry="7.4743071"
     transform="matrix(0.72446484,-0.68931175,0.68622417,0.72739012,0,0)"
     width="33.338203" />
  <path
     d="m 33.691058,16.047689 v 0.730436 l -0.0545,0.0067 -8.22859,1.028628 v 0 -3.208386 0 l 2.99063,0.427233 v 0 c 0.238247,0.03378 0.458839,-0.132312 0.492624,-0.370559 v 0 c 0.03378,-0.238248 -0.13231,-0.45884 -0.370558,-0.492626 v 0 l -3.051663,-0.435952 -0.08043,-0.01134 c -0.046,-0.263314 -0.171766,-0.508538 -0.364239,-0.699266 -0.244133,-0.246313 -0.577635,-0.383638 -0.924217,-0.383638 h -6.757252 c -0.346582,0 -0.680085,0.137325 -0.924217,0.383638 -0.246314,0.244133 -0.383638,0.577635 -0.383638,0.924218 v 4.795468 0.435952 h 0.435952 c -0.346582,0 -0.680085,0.137326 -0.924218,0.383638 -0.246313,0.244133 -0.383638,0.577636 -0.383638,0.924218 v 1.089879 0.435952 h 0.871904 v -0.435931 -1.089879 c 0,-0.115527 0.04577,-0.226696 0.128605,-0.307346 0.08065,-0.08283 0.191819,-0.128606 0.307347,-0.128606 h 11.988673 c 0.115529,0 0.226696,0.04577 0.307347,0.128606 0.08283,0.08065 0.128605,0.191819 0.128605,0.307346 v 1.089879 0.435952 0 H 16.035012 15.59906 c -0.0021,0 -0.0044,0 -0.0044,0 -0.263751,0.0021 -0.523142,0.03923 -0.778174,0.106808 -0.263751,0.06975 -0.518782,0.165661 -0.765096,0.283369 -0.246312,0.115527 -0.481726,0.255031 -0.701882,0.416334 -0.213617,0.152583 -0.405435,0.333502 -0.573277,0.53404 -0.0021,0.0021 -0.0021,0.0044 -0.0044,0.0044 l -1.870233,2.304005 -0.223207,0.274649 h -0.134273 v 0 c -0.220156,0 -0.431593,0.08719 -0.5863553,0.244133 -0.156943,0.154764 -0.244133,0.3662 -0.244133,0.586356 v 1.17271 c 0,0.220155 0.08719,0.431592 0.244133,0.586355 0.1547623,0.156943 0.3661993,0.244133 0.5863553,0.244133 h 0.401947 v 0 0 l 1.492263,3.675073 c 0.396717,0.974352 1.074621,1.8092 1.948704,2.397735 0.874083,0.588535 1.90293,0.90242 2.955753,0.90242 h 11.988673 c 1.057184,0 2.090389,-0.307346 2.975371,-0.887162 0.884983,-0.577636 1.580326,-1.401585 2.003199,-2.369398 l 1.628279,-3.719105 c 0.210565,-0.0065 0.411539,-0.09286 0.560198,-0.243696 0.156943,-0.154763 0.244133,-0.3662 0.244133,-0.586355 v -1.172682 c 0,-0.220156 -0.08719,-0.431593 -0.244133,-0.586356 C 36.343797,26.022701 36.13236,25.93551 35.912204,25.93551 h -0.150403 v 0 L 35.565623,25.673939 33.865411,23.40699 c 0,-0.0021 -0.0021,-0.0021 -0.0021,-0.0044 -0.161302,-0.207078 -0.348762,-0.394537 -0.555838,-0.553659 -0.215797,-0.167842 -0.446851,-0.311706 -0.690984,-0.433772 -0.241954,-0.122067 -0.496985,-0.220156 -0.758556,-0.292088 -0.252852,-0.06975 -0.514423,-0.108988 -0.778174,-0.111167 0,0 -0.0021,0 -0.0044,0 h -1.307856 v -0.435952 -1.089879 c 0,-0.346583 -0.137325,-0.680085 -0.383637,-0.924218 -0.244133,-0.246313 -0.577636,-0.383638 -0.924218,-0.383638 h -3.051663 v 0 0 -0.435952 -0.0521 l 8.32014,-1.039964 c 0.05145,0.199885 0.155635,0.383857 0.305166,0.531862 0.217977,0.220156 0.514423,0.342223 0.823949,0.342223 h 0.283369 c 0.309526,0 0.605972,-0.122067 0.823949,-0.342223 0.220156,-0.217976 0.342222,-0.514423 0.342222,-0.823948 v -1.809201 c 0,-0.309525 -0.122066,-0.605973 -0.342222,-0.823948 -0.217984,-0.220128 -0.51443,-0.342195 -0.823956,-0.342195 h -0.283369 v 0 0 c -0.309526,0 -0.605972,0.122067 -0.823949,0.342223 -0.127952,0.126643 -0.222771,0.27988 -0.279663,0.446633 l -2.811235,-0.56216 v 0 c -0.23585,-0.04687 -0.465379,0.106371 -0.512243,0.342222 v 0 c -0.04686,0.23585 0.106371,0.465379 0.342223,0.512243 v 0 z m 0.871904,-0.315848 v 1.626319 c 0,0.07629 0.03052,0.152582 0.08719,0.207077 0.0545,0.05667 0.130785,0.08719 0.207077,0.08719 h 0.283369 c 0.07629,0 0.152583,-0.03052 0.207076,-0.08719 0.05667,-0.0545 0.08719,-0.130786 0.08719,-0.207077 v -1.809201 c 0,-0.07629 -0.03052,-0.152582 -0.08719,-0.207077 -0.0545,-0.05667 -0.130785,-0.08719 -0.207076,-0.08719 h -0.283369 v 0 0 0 0 c -0.07629,0 -0.152583,0.03052 -0.207077,0.08719 -0.0042,0.0039 -0.0083,0.0081 -0.01199,0.01243 z m -10.026891,2.189133 v -3.974137 c 0,-0.115528 -0.04577,-0.226695 -0.128606,-0.307347 -0.08065,-0.08283 -0.191818,-0.128605 -0.307345,-0.128605 h -6.757253 c -0.115527,0 -0.226695,0.04577 -0.307346,0.128605 -0.08283,0.08065 -0.128606,0.191819 -0.128606,0.307347 v 4.795469 0.435952 h 7.629156 v 0 0 -0.435952 -0.40914 l -0.05013,-0.40609 z M 34.671949,25.93551 H 11.800612 l 1.647026,-2.027175 c 0.122067,-0.143864 0.259391,-0.27465 0.414155,-0.383638 0.176559,-0.130785 0.366199,-0.241953 0.564556,-0.335683 0.196179,-0.09591 0.403256,-0.172201 0.616873,-0.226695 0.18092,-0.05013 0.368379,-0.07629 0.558018,-0.07847 h 15.471927 c 0.18528,0.0021 0.370559,0.02833 0.551479,0.08065 0.207077,0.05667 0.409796,0.132966 0.603794,0.231054 0.191819,0.09591 0.374918,0.211437 0.54494,0.344403 0.150403,0.111167 0.283368,0.244133 0.396715,0.392356 z m -18.126656,2.833686 c -0.607934,0.115528 -1.172274,0.410885 -1.617599,0.854466 -0.581995,0.584175 -0.908959,1.373248 -0.908959,2.197197 v 0 0 0 0 0 0 c 0,0.823949 0.326964,1.613021 0.908959,2.197197 0.174599,0.173945 0.367726,0.32522 0.574584,0.451646 -0.218411,-0.09831 -0.428758,-0.216233 -0.629078,-0.351377 -0.728039,-0.490446 -1.294776,-1.187969 -1.626099,-2.003198 l -1.36017,-3.345931 v 0 z m 6.321301,0 v 0 c -0.607934,0.115528 -1.172275,0.410885 -1.6176,0.854466 -0.581995,0.584175 -0.908959,1.373248 -0.908959,2.197197 v 0 0 0 c 0,0.823949 0.326964,1.613021 0.908959,2.197197 0.445325,0.44358 1.009666,0.738938 1.6176,0.854465 h -5.162105 c 0.607935,-0.115527 1.172274,-0.410885 1.617599,-0.854465 0.581995,-0.584176 0.908959,-1.373248 0.908959,-2.197197 0,-0.823949 -0.326964,-1.613022 -0.908959,-2.197197 -0.445325,-0.443581 -1.009664,-0.738938 -1.617599,-0.854466 z m 6.321301,0 v 0 c -0.607936,0.115528 -1.172275,0.410885 -1.6176,0.854466 -0.581995,0.584175 -0.908959,1.373248 -0.908959,2.197197 v 0 0 c 0,0.823949 0.326964,1.613021 0.908959,2.197197 0.445325,0.44358 1.009664,0.738938 1.6176,0.854465 H 24.02579 c 0.607934,-0.115527 1.172274,-0.410885 1.617598,-0.854465 0.581996,-0.584176 0.90896,-1.373248 0.90896,-2.197197 0,-0.823949 -0.326964,-1.613022 -0.90896,-2.197197 -0.445324,-0.443581 -1.009664,-0.738938 -1.617598,-0.854466 z m 5.79794,0 v 0 l -1.473517,3.369908 c -0.344621,0.786674 -0.90678,1.462617 -1.616946,1.94587 0.02332,-0.02179 0.04643,-0.04425 0.06931,-0.06691 0.581995,-0.584176 0.90896,-1.373248 0.90896,-2.197197 0,-0.823949 -0.326965,-1.613021 -0.90896,-2.197197 -0.445325,-0.443581 -1.009664,-0.738938 -1.617599,-0.854465 h 4.638745 v 0 0 z M 10.592154,27.897293 h 25.278662 v -1.08988 H 10.585615 v 1.08988 h 0.0065 v 0 0 z m 5.60634,3.923566 c 0,-0.246313 0.09809,-0.481727 0.27029,-0.656108 0.17438,-0.1722 0.409794,-0.27029 0.656107,-0.27029 0.246313,0 0.481727,0.09809 0.656108,0.27029 0.1722,0.174381 0.27029,0.409795 0.27029,0.656108 0,0.246313 -0.09809,0.481727 -0.27029,0.656107 -0.174381,0.172201 -0.409795,0.27029 -0.656108,0.27029 -0.246313,0 -0.481727,-0.09809 -0.656107,-0.27029 -0.172201,-0.17438 -0.27029,-0.409794 -0.27029,-0.656107 v 0 0 0 0 0 z m 6.3213,0 c 0,-0.246313 0.09809,-0.481727 0.270291,-0.656108 0.17438,-0.1722 0.409794,-0.27029 0.656106,-0.27029 0.246314,0 0.481727,0.09809 0.656108,0.27029 0.172201,0.174381 0.270291,0.409795 0.270291,0.656108 0,0.246313 -0.09809,0.481727 -0.270291,0.656107 -0.174381,0.172201 -0.409794,0.27029 -0.656108,0.27029 -0.246312,0 -0.481726,-0.09809 -0.656106,-0.27029 -0.172201,-0.17438 -0.270291,-0.409794 -0.270291,-0.656107 v 0 0 0 0 z m 7.642234,0.839207 v 0 c 0.163701,-0.07694 0.359006,-0.0071 0.435952,0.155853 v 0 c 0.07694,0.163046 0.0067,0.357916 -0.156943,0.434861 v 0 c -0.211436,0.09809 -0.44031,0.150404 -0.673545,0.150404 -0.418513,0 -0.821769,-0.165662 -1.118216,-0.462109 -0.296448,-0.296447 -0.462109,-0.699703 -0.462109,-1.118216 0,-0.418514 0.165661,-0.821769 0.462109,-1.118217 0.296447,-0.296447 0.699703,-0.462108 1.118216,-0.462108 0.370559,0 0.730219,0.130785 1.013588,0.368379 v 0 c 0.138415,0.115528 0.156942,0.321514 0.04142,0.459929 v 0 c -0.115527,0.138415 -0.321515,0.156943 -0.45993,0.04142 v 0 c -0.167841,-0.139505 -0.377098,-0.215796 -0.595074,-0.215796 -0.246312,0 -0.481726,0.09809 -0.656107,0.270289 -0.172201,0.174382 -0.27029,0.409796 -0.27029,0.656108 0,0.246313 0.09809,0.481727 0.27247,0.656108 0.172201,0.172201 0.407615,0.270289 0.653927,0.270289 0.137325,0 0.27029,-0.03052 0.394536,-0.08719 v 0 0 0 0 0 0 z M 15.544566,31.820859 c 0,-0.418514 0.165662,-0.821769 0.462109,-1.118217 0.296448,-0.296447 0.699703,-0.462108 1.118216,-0.462108 0.418514,0 0.821769,0.165661 1.118217,0.462108 0.296447,0.296448 0.462108,0.699703 0.462108,1.118217 0,0.418513 -0.165661,0.821769 -0.462108,1.118216 -0.296448,0.296447 -0.699703,0.462109 -1.118217,0.462109 -0.418513,0 -0.821768,-0.165662 -1.118216,-0.462109 -0.296447,-0.296447 -0.462109,-0.699703 -0.462109,-1.118216 v 0 0 0 0 0 z m 6.3213,0 c 0,-0.418514 0.165663,-0.821769 0.462109,-1.118217 0.296447,-0.296447 0.699703,-0.462108 1.118216,-0.462108 0.418515,0 0.82177,0.165661 1.118217,0.462108 0.296447,0.296448 0.462109,0.699703 0.462109,1.118217 0,0.418513 -0.165662,0.821769 -0.462109,1.118216 -0.296447,0.296447 -0.699702,0.462109 -1.118217,0.462109 -0.418513,0 -0.821769,-0.165662 -1.118216,-0.462109 -0.296446,-0.296447 -0.462109,-0.699703 -0.462109,-1.118216 v 0 0 0 0 z m 5.667373,0 c 0,-0.592894 0.235414,-1.161812 0.653928,-1.580325 0.418514,-0.418513 0.98743,-0.653927 1.580325,-0.653927 0.592895,0 1.161811,0.235414 1.580325,0.653927 0.418514,0.418513 0.653928,0.987431 0.653928,1.580325 0,0.592894 -0.235414,1.161811 -0.653928,1.580325 -0.418514,0.418514 -0.98743,0.653928 -1.580325,0.653928 -0.592895,0 -1.161811,-0.235414 -1.580325,-0.653928 -0.418514,-0.418514 -0.653928,-0.987431 -0.653928,-1.580325 v 0 z m -12.642601,0 c 0,-0.592894 0.235414,-1.161812 0.653928,-1.580325 0.418514,-0.418513 0.987431,-0.653927 1.580325,-0.653927 0.592894,0 1.161812,0.235414 1.580325,0.653927 0.418513,0.418513 0.653928,0.987431 0.653928,1.580325 0,0.592894 -0.235415,1.161811 -0.653928,1.580325 -0.418513,0.418514 -0.987431,0.653928 -1.580325,0.653928 -0.592894,0 -1.161811,-0.235414 -1.580325,-0.653928 -0.418514,-0.418514 -0.653928,-0.987431 -0.653928,-1.580325 v 0 0 0 0 0 z m 6.321301,0 c 0,-0.592894 0.235414,-1.161812 0.653927,-1.580325 0.418514,-0.418513 0.987431,-0.653927 1.580325,-0.653927 0.592895,0 1.161812,0.235414 1.580326,0.653927 0.418513,0.418513 0.653927,0.987431 0.653927,1.580325 0,0.592894 -0.235414,1.161811 -0.653927,1.580325 -0.418514,0.418514 -0.987431,0.653928 -1.580326,0.653928 -0.592894,0 -1.161811,-0.235414 -1.580325,-0.653928 -0.418513,-0.418514 -0.653927,-0.987431 -0.653927,-1.580325 v 0 0 z"
     fill-rule="evenodd"
     fill="url(#_lgradient_2)"
     id="path7"
     style="fill:url(#linearGradient1233);stroke-width:0.217975" />
</svg>
