<?xml version="1.0" encoding="UTF-8" standalone="no"?>
<!-- Generator: Gravit.io -->

<svg
   style="isolation:isolate"
   viewBox="0 0 48 48"
   width="48pt"
   height="48pt"
   version="1.1"
   id="svg25"
   sodipodi:docname="waterfox.svg"
   inkscape:version="1.1.2 (0a00cf5339, 2022-02-04)"
   xmlns:inkscape="http://www.inkscape.org/namespaces/inkscape"
   xmlns:sodipodi="http://sodipodi.sourceforge.net/DTD/sodipodi-0.dtd"
   xmlns:xlink="http://www.w3.org/1999/xlink"
   xmlns="http://www.w3.org/2000/svg"
   xmlns:svg="http://www.w3.org/2000/svg">
  <defs
     id="defs29">
    <linearGradient
       inkscape:collect="always"
       xlink:href="#_lgradient_2"
       id="linearGradient872"
       x1="-12.025727"
       y1="6.1170783"
       x2="-0.085100174"
       y2="6.1170783"
       gradientUnits="userSpaceOnUse"
       gradientTransform="matrix(3.8358211,0,0,3.8371386,1.283255,-0.00943421)" />
    <linearGradient
       inkscape:collect="always"
       xlink:href="#_lgradient_2"
       id="linearGradient15"
       x1="-9.6850061"
       y1="45.161198"
       x2="11.98815"
       y2="21.735205"
       gradientUnits="userSpaceOnUse"
       gradientTransform="matrix(1.1147442,0,0,1.1150348,0.87198218,-4.2614319)" />
    <linearGradient
       inkscape:collect="always"
       xlink:href="#_lgradient_2"
       id="linearGradient936"
       x1="9.8742256"
       y1="22.091442"
       x2="31.114475"
       y2="22.091442"
       gradientUnits="userSpaceOnUse" />
    <linearGradient
       inkscape:collect="always"
       xlink:href="#_lgradient_1"
       id="linearGradient966"
       x1="24.02396"
       y1="27.59556"
       x2="34.598282"
       y2="27.59556"
       gradientUnits="userSpaceOnUse" />
    <linearGradient
       inkscape:collect="always"
       xlink:href="#_lgradient_0"
       id="linearGradient996"
       x1="26.926027"
       y1="25.30995"
       x2="38.186176"
       y2="25.30995"
       gradientUnits="userSpaceOnUse" />
  </defs>
  <sodipodi:namedview
     id="namedview27"
     pagecolor="#ffffff"
     bordercolor="#666666"
     borderopacity="1.0"
     inkscape:pageshadow="2"
     inkscape:pageopacity="0.0"
     inkscape:pagecheckerboard="0"
     inkscape:document-units="pt"
     showgrid="false"
     inkscape:zoom="3.6128737"
     inkscape:cx="31.969011"
     inkscape:cy="31.969011"
     inkscape:window-width="1056"
     inkscape:window-height="545"
     inkscape:window-x="297"
     inkscape:window-y="75"
     inkscape:window-maximized="0"
     inkscape:current-layer="svg25" />
  <linearGradient
     id="_lgradient_0"
     x1="0.8733201003194697"
     y1="0.026796497290999075"
     x2="0.4427798060522242"
     y2="0.67410317552501"
     gradientTransform="matrix(11.582538,0,0,18.016923,26.603816,16.302604)"
     gradientUnits="userSpaceOnUse">
    <stop
       offset="0%"
       stop-opacity="1"
       style="stop-color:rgb(211,0,220)"
       id="stop2" />
    <stop
       offset="100%"
       stop-opacity="1"
       style="stop-color:rgb(135,0,255)"
       id="stop4" />
  </linearGradient>
  <rect
     x="-45.494488"
     y="1.218623"
     height="45.80014"
     rx="6.1837621"
     shape-rendering="crispEdges"
     id="rect5-6-7-3"
     ry="6.8055277"
     transform="matrix(0.00524063,-0.99998627,0.99998801,0.00489691,0,0)"
     style="isolation:isolate;fill:#00afff;fill-opacity:0.13470298;stroke:url(#linearGradient872);stroke-width:2.0301;stroke-miterlimit:4;stroke-dasharray:none;stroke-opacity:1"
     width="45.801998" />
  <rect
     x="-14.802449"
     y="16.326448"
     height="33.345856"
     rx="6.7920032"
     shape-rendering="crispEdges"
     id="rect5-6-6-6-6"
     style="isolation:isolate;fill:#00afff;fill-opacity:0.13470298;stroke:url(#linearGradient15);stroke-width:1.67233;stroke-miterlimit:4;stroke-dasharray:none;stroke-opacity:1"
     ry="7.4743071"
     transform="matrix(0.72446484,-0.68931175,0.68622417,0.72739012,0,0)"
     width="33.338203" />
  <path
     style="color:#000000;fill:url(#linearGradient996);-inkscape-stroke:none"
     d="m 35.0625,15.802734 c -0.483365,-0.01209 -0.969715,0.0698 -1.429688,0.244141 l -0.002,0.002 h -0.002 c -0.914308,0.356804 -1.655298,1.061632 -2.05664,1.960938 h -0.002 l -2.541015,5.722656 -0.134766,0.205078 2.564453,4.556641 0.04102,0.04297 c 0.510003,0.544361 1.144234,0.778642 1.734375,0.748047 0.590141,-0.03059 1.118915,-0.276401 1.605469,-0.558594 l 0.140625,-0.08203 3.386718,-7.615234 h -0.002 c 0.402356,-0.901578 0.425596,-1.925369 0.07617,-2.839844 l -0.002,-0.002 C 38.083088,17.266886 37.377701,16.524335 36.478516,16.123047 36.091278,15.95023 35.676564,15.882764 35.261719,15.849609 l -0.07227,-0.04297 z m -0.02539,1 c 0.354208,0.0088 0.707243,0.08803 1.035157,0.234375 0.657061,0.293233 1.17193,0.835895 1.433593,1.509766 0.25539,0.668379 0.239821,1.420629 -0.05273,2.076172 l -3.238281,7.285156 c -0.373097,0.202248 -0.7384,0.36167 -1.033203,0.376953 -0.323118,0.01675 -0.593711,-0.07267 -0.929688,-0.421875 l -2.189453,-3.888672 0.002,-0.002 -0.02539,-0.05078 2.445313,-5.503906 c 0.293182,-0.656947 0.838525,-1.174314 1.505859,-1.435547 0.337349,-0.127593 0.692803,-0.188543 1.046875,-0.179688 z m -7.673828,15.457032 -0.886719,0.464843 c 0.0042,0.0086 0.01137,0.01491 0.01563,0.02344 h -0.002 l 0.09766,0.175781 c 0.11869,0.210784 0.25618,0.39952 0.40039,0.572266 0.0044,0.0052 0.0073,0.01239 0.01172,0.01758 9.36e-4,0.0011 0.001,0.0028 0.002,0.0039 l 0.761719,-0.648437 c -0.0012,-0.0014 -0.0028,-0.0025 -0.0039,-0.0039 -0.0081,-0.0094 -0.01158,-0.02176 -0.01953,-0.03125 -0.139574,-0.166643 -0.261524,-0.345735 -0.357422,-0.539062 -0.0021,-0.0042 -0.0057,-0.0075 -0.0078,-0.01172 z m 0.46875,0.689453 -0.734375,0.679687 c 0.02388,0.02609 0.04593,0.04722 0.0625,0.06445 6.87e-4,7.06e-4 0.0013,0.0012 0.002,0.002 L 27.880859,33 c -0.01883,-0.01959 -0.0341,-0.03506 -0.04492,-0.04687 -0.0013,-0.0014 -0.0025,-0.0024 -0.0039,-0.0039 z m 1.115235,0.724609 -0.320313,0.947266 c 0.0016,5.38e-4 0.0024,0.0014 0.0039,0.002 0.02114,0.0072 0.04122,0.01266 0.05664,0.01758 9.09e-4,2.85e-4 0.001,0.0017 0.002,0.002 L 28.990234,33.6875 c -7.44e-4,-2.37e-4 -0.0012,2.33e-4 -0.002,0 -0.0042,-0.0013 -0.01216,-0.0041 -0.01758,-0.0059 -0.0064,-0.0021 -0.01478,-0.0042 -0.01953,-0.0059 -0.0016,-5.24e-4 -0.0023,-0.0014 -0.0039,-0.002 z m 1.34375,0.103516 c 0.0031,-5.45e-4 -0.0095,0.002 -0.0098,0.002 -0.0015,-6.3e-5 -0.0056,4.17e-4 -0.02734,0.0039 -0.0046,7.34e-4 -4.01e-4,-9.22e-4 -0.0059,0 l 0.160156,0.988281 c -6e-4,9.4e-5 0.0059,-0.002 0.0059,-0.002 -0.0044,7.45e-4 0.01436,-0.0016 0.01758,-0.002 0.0054,-5.25e-4 0.0026,6.14e-4 0.0293,-0.0039 v -0.002 c 0.0014,-2.44e-4 4.84e-4,2.58e-4 0.002,0 l -0.169922,-0.984375 c 5.11e-4,-8.7e-5 -0.0024,7.4e-5 -0.002,0 z m -0.837891,0.01563 -0.132813,0.990234 c 0.04654,0.0063 0.08283,0.0089 0.109375,0.01172 l 0.103516,-0.994141 c -0.03649,-0.0038 -0.06182,-0.0056 -0.07813,-0.0078 -4.46e-4,-5.9e-5 -0.0015,5.8e-5 -0.002,0 z m 0.605469,0.01367 c -0.02612,0.0023 -0.04946,0.0045 -0.07227,0.0059 l 0.05664,0.998047 c 0.03637,-0.0021 0.07069,-0.0049 0.103515,-0.0078 z m -0.376953,0.0059 -0.05273,0.998047 c 0.02502,0.0013 0.06762,0.0048 0.126953,0.0059 l 0.01953,-0.998047 c -3.03e-4,-5e-6 -0.0016,8e-6 -0.002,0 -0.01352,-2.4e-4 -0.04403,-0.0034 -0.0918,-0.0059 z"
     id="path7" />
  <linearGradient
     id="_lgradient_1"
     x1="0.2965740078531071"
     y1="0.26680030109806574"
     x2="0.7374232051379354"
     y2="0.9545287350103075"
     gradientTransform="matrix(13.679504,0,0,16.233955,20.919037,18.084285)"
     gradientUnits="userSpaceOnUse">
    <stop
       offset="0%"
       stop-opacity="1"
       style="stop-color:rgb(0,198,255)"
       id="stop9" />
    <stop
       offset="98.69565217391305%"
       stop-opacity="1"
       style="stop-color:rgb(0,114,255)"
       id="stop11" />
  </linearGradient>
  <path
     style="color:#000000;fill:url(#linearGradient966);-inkscape-stroke:none"
     d="m 27.927734,20.076172 -0.5,0.46875 -0.03125,0.04492 c -0.328288,0.476911 -0.642675,0.959652 -0.945312,1.443359 l -0.111328,0.173828 -2.888672,5.138672 3.136719,5.578125 c 1.484151,2.635712 5.406464,2.451156 6.636718,-0.3125 l 2.458985,-5.53125 -1.335938,0.777344 c -0.42483,0.247168 -0.830118,0.409756 -1.162109,0.427734 -0.324516,0.01757 -0.596529,-0.07152 -0.933594,-0.421875 l -2.189453,-3.888672 0.01172,-0.01563 -0.148438,-0.263672 C 29.414667,22.784321 28.862319,21.705771 28.242187,20.625 Z m -0.15625,1.767578 c 0.392652,0.713325 0.776272,1.425241 1.134766,2.074219 l -0.01172,0.01953 2.564453,4.556641 0.04102,0.04297 c 0.511575,0.546044 1.146602,0.780088 1.738281,0.748047 0.160545,-0.0087 0.285478,-0.115466 0.4375,-0.152344 l -1.365234,3.072266 c -0.921403,2.069849 -3.740086,2.202393 -4.851563,0.228516 l -2.861328,-5.087891 2.601563,-4.625 0.09766,-0.154297 0.002,-0.002 c 0.151862,-0.242721 0.31539,-0.480198 0.472656,-0.720703 z"
     id="path14" />
  <linearGradient
     id="_lgradient_2"
     x1="0"
     y1="0.5"
     x2="1"
     y2="0.5"
     gradientTransform="matrix(21.24055,0,0,24.446804,9.8744138,9.8682195)"
     gradientUnits="userSpaceOnUse">
    <stop
       offset="0%"
       stop-opacity="1"
       style="stop-color:rgb(84,51,255)"
       id="stop16" />
    <stop
       offset="51.73913043478261%"
       stop-opacity="1"
       style="stop-color:rgb(32,189,255)"
       id="stop18" />
    <stop
       offset="98.26086956521739%"
       stop-opacity="1"
       style="stop-color:rgb(165,254,203)"
       id="stop20" />
  </linearGradient>
  <path
     style="color:#000000;fill:url(#linearGradient936);fill-rule:evenodd;-inkscape-stroke:none"
     d="m 29.800781,9.3691406 c -0.980885,0 -1.785156,0.8042704 -1.785156,1.7851564 0,0.980887 0.804271,1.787109 1.785156,1.787109 0.980887,0 1.78711,-0.806222 1.78711,-1.787109 0,-0.980886 -0.806223,-1.7851564 -1.78711,-1.7851564 z m -5.253906,0.6425784 c -0.51707,7.85e-4 -1.047082,0.146413 -1.560547,0.419922 -1.842094,0.982029 -2.796597,2.782771 -2.683594,4.998047 0.01406,0.278405 0.04236,0.560831 0.07813,0.804687 0.03577,0.243856 0.05081,0.408268 0.148438,0.623047 0.05912,0.130052 0.131333,0.241123 0.224609,0.341797 0.09328,0.100673 0.17766,0.246093 0.50586,0.246093 0.162415,0 0.212189,-0.03984 0.261718,-0.06445 0.04953,-0.02461 0.08526,-0.04763 0.121094,-0.07227 0.07166,-0.04926 0.13997,-0.104985 0.214844,-0.169922 0.149748,-0.129874 0.321964,-0.295575 0.49414,-0.480469 0.405979,-0.436382 0.703723,-0.654182 1.363282,-0.982422 0.921784,-0.458475 1.428695,-0.713253 1.791015,-0.9375 0.362321,-0.224247 0.580169,-0.434477 0.810547,-0.693359 0.469711,-0.527699 0.753721,-1.100456 0.767578,-1.695313 0.01386,-0.594856 -0.263927,-1.164619 -0.736328,-1.613281 -0.497278,-0.472491 -1.136123,-0.725393 -1.800781,-0.724609 z m 5.253906,0.357422 c 0.439826,0 0.78711,0.345334 0.78711,0.785156 0,0.439825 -0.347284,0.787109 -0.78711,0.787109 -0.439823,0 -0.785156,-0.347284 -0.785156,-0.787109 0,-0.439822 0.345333,-0.785156 0.785156,-0.785156 z m -5.251953,0.642578 c 0.423421,-5e-4 0.786493,0.140141 1.111328,0.449219 0.32161,0.305448 0.430559,0.576329 0.423828,0.865234 -0.0067,0.288905 -0.149485,0.643587 -0.513672,1.052734 -0.211663,0.237851 -0.299419,0.328808 -0.591796,0.509766 -0.292378,0.180958 -0.789892,0.435441 -1.708985,0.892578 -0.718684,0.357665 -1.180006,0.689701 -1.65039,1.195313 -0.08169,0.08773 -0.150034,0.146715 -0.226563,0.220703 -0.01191,-0.05462 -0.01221,-0.0442 -0.02148,-0.107422 -0.03051,-0.207997 -0.05604,-0.466872 -0.06836,-0.710938 -0.09804,-1.92203 0.614481,-3.24357 2.154297,-4.064453 0.392495,-0.209071 0.762104,-0.302234 1.091797,-0.302734 z m -6.166016,3.503906 c -0.12637,-0.0038 -0.257647,0.0079 -0.388671,0.03516 -0.577442,0.11965 -0.97675,0.567276 -1.234375,1.083985 -0.257626,0.516709 -0.382952,1.139516 -0.304688,1.763671 0.05324,0.425866 0.232395,0.860866 0.458984,1.267579 0.226899,0.407267 0.486761,0.772573 0.828125,1.021484 0.138026,0.100544 0.282871,0.181238 0.429688,0.240234 0.146817,0.059 0.265557,0.122929 0.521484,0.08398 h 0.002 c 0.09523,-0.01482 0.240207,-0.05705 0.361329,-0.160157 0.121122,-0.10311 0.188529,-0.235472 0.226562,-0.347656 0.07607,-0.224368 0.09188,-0.43778 0.125,-0.800781 0.03564,-0.387572 0.193767,-1.077917 0.310547,-1.380859 v -0.002 C 19.884709,16.89214 19.9927,16.57653 20.005859,16.242187 20.019041,15.907279 19.905999,15.596185 19.75,15.318359 v -0.002 c -0.281239,-0.499541 -0.809608,-0.781401 -1.367188,-0.798828 z m 9.96875,0.04102 c -0.685747,-0.01131 -1.462351,0.10338 -2.375,0.412109 -2.218029,0.734191 -3.591835,2.088213 -4.560546,3.183594 l -0.01172,0.01367 -0.01172,0.01563 c -1.133594,1.482128 -1.96063,3.169603 -2.759766,4.652343 l -2.144531,-4.824218 c -0.401385,-0.899404 -1.143865,-1.604581 -2.064453,-1.960938 h -0.002 c -0.914539,-0.349461 -1.938378,-0.328089 -2.839844,0.07422 -0.899403,0.401386 -1.6045803,1.143865 -1.9609372,2.064453 l -0.00195,0.002 c -0.3494495,0.914537 -0.3261354,1.938377 0.076172,2.839844 h -0.00195 l 2.6757816,6.019531 -0.02539,-0.01563 2.480469,5.578125 c 0.415235,0.933913 1.145592,1.589537 1.982422,1.919922 0.183562,0.08375 0.373395,0.141818 0.566406,0.179687 0.12892,0.03698 0.264206,0.06092 0.404297,0.06836 0.186834,0.02974 0.37599,0.03965 0.566406,0.02539 0.09651,0.0028 0.188761,0.0017 0.257812,-0.0039 h 0.0078 l 0.0078,-0.002 c 0.286553,-0.0316 0.568435,-0.09416 0.841797,-0.183594 l 0.01758,-0.0059 0.01758,-0.0078 c 0.01089,-0.0045 0.04712,-0.01938 0.07617,-0.03125 l 0.04492,-0.01758 c 0.04643,-0.0177 0.09287,-0.03498 0.132813,-0.05273 0.140133,-0.0622 0.277025,-0.134884 0.408203,-0.216797 l 0.0078,-0.0059 c 0.08175,-0.04707 0.169982,-0.108573 0.257813,-0.183594 0.201237,-0.136036 0.383912,-0.294221 0.541016,-0.478516 l -0.248047,0.15625 c 0.173339,-0.04765 0.352648,-0.243241 0.390625,-0.404297 l -0.126953,0.232422 c 0.21407,-0.22413 0.358015,-0.498856 0.503906,-0.769531 l 0.03125,-0.0039 5.683594,-10.103516 0.09961,-0.15625 0.002,-0.002 c 1.135462,-1.81483 2.426432,-3.597869 3.912109,-4.943359 0.280456,-0.248008 0.529077,-0.729876 0.328125,-1.22461 -0.25168,-0.617216 -0.649425,-1.046826 -1.099609,-1.310546 -0.450184,-0.263721 -0.931105,-0.376988 -1.398437,-0.47461 l -0.01758,-0.0039 -0.01758,-0.002 c -0.20811,-0.02823 -0.424952,-0.04531 -0.654297,-0.04883 z m -10,0.958984 c 0.224847,0.007 0.440536,0.138779 0.527344,0.292969 0.112875,0.201313 0.131926,0.266228 0.126953,0.392578 -0.005,0.126919 -0.06412,0.36094 -0.21875,0.759765 -0.176585,0.456952 -0.327026,1.128663 -0.375,1.650391 -0.01632,0.17882 -0.02474,0.196072 -0.03906,0.292969 -0.01373,-0.0089 -0.0287,-0.01447 -0.04102,-0.02344 -0.121909,-0.08889 -0.364682,-0.379607 -0.544922,-0.703125 -0.180239,-0.323517 -0.313685,-0.693716 -0.339843,-0.904297 -0.05042,-0.402128 0.04065,-0.853791 0.208984,-1.191406 0.168331,-0.337615 0.40424,-0.524393 0.541016,-0.552734 0.04913,-0.01023 0.100487,-0.01529 0.154296,-0.01367 z m 9.984375,0.04102 c 0.182803,0.0028 0.356023,0.01683 0.523438,0.03906 0.433077,0.09131 0.799716,0.189613 1.076172,0.351563 0.281887,0.165131 0.497024,0.383003 0.677734,0.826171 0.01102,0.02696 -4.34e-4,0.04104 -0.06445,0.09766 l -0.002,0.002 -0.002,0.002 c -1.598617,1.446623 -2.933126,3.30511 -4.09375,5.160156 l 0.002,-0.0059 -0.113281,0.177734 -5.447266,9.685547 -0.03516,0.0039 -0.113281,0.265625 c -0.117251,0.273765 -0.280493,0.519494 -0.476563,0.728516 l -0.04883,0.05664 -0.01563,0.01758 -0.0098,0.0098 c -0.101235,0.11682 -0.217762,0.219219 -0.347656,0.304688 l -0.0332,0.02344 -0.0293,0.02734 c -0.02583,0.02377 -0.06557,0.05309 -0.123047,0.08594 l -0.01172,0.0039 -0.0098,0.0078 c -0.09201,0.05841 -0.191678,0.11151 -0.296875,0.158203 -0.03921,0.01743 -0.07361,0.0305 -0.103516,0.04102 l -0.02148,0.0078 -0.02148,0.0098 c -0.0033,0.0015 -0.03167,0.01425 -0.05469,0.02344 -0.20861,0.06782 -0.421454,0.113199 -0.634766,0.136718 -0.06318,0.0047 -0.114437,0.0061 -0.144531,0.0039 l -0.03906,-0.002 -0.04102,0.0039 c -0.124414,0.01045 -0.249789,0.0027 -0.375,-0.01953 l -0.0332,-0.0059 h -0.0332 c -0.06451,-0.0026 -0.131995,-0.01449 -0.201172,-0.03516 l -0.02539,-0.0078 -0.02734,-0.0059 c -0.132258,-0.02427 -0.257938,-0.06348 -0.376953,-0.119141 l -0.01563,-0.0059 -0.01367,-0.0059 c -0.607559,-0.238165 -1.129592,-0.699086 -1.441406,-1.400391 l -1.171875,-2.634766 0.02539,0.01563 -3.984375,-8.96289 c -0.292606,-0.655656 -0.308104,-1.407851 -0.05273,-2.076172 0.261674,-0.673898 0.776746,-1.21858 1.433593,-1.511719 0.655653,-0.292605 1.407853,-0.30811 2.076172,-0.05273 0.673899,0.261674 1.218581,0.7787 1.511719,1.435547 l 2.941406,6.617187 0.486328,-0.86914 c 0.92787,-1.655842 1.93351,-3.735242 3.177735,-5.365235 0.928532,-1.048115 2.131194,-2.227813 4.111328,-2.882812 h 0.002 l 0.002,-0.002 c 0.822056,-0.278084 1.476539,-0.368656 2.039062,-0.359375 z"
     id="path23" />
</svg>
