<?xml version="1.0" encoding="UTF-8" standalone="no"?>
<!-- Generator: Gravit.io -->

<svg
   style="isolation:isolate"
   viewBox="0 0 48 48"
   width="48pt"
   height="48pt"
   version="1.1"
   id="svg20"
   sodipodi:docname="webex.svg"
   inkscape:version="1.1.2 (0a00cf5339, 2022-02-04)"
   xmlns:inkscape="http://www.inkscape.org/namespaces/inkscape"
   xmlns:sodipodi="http://sodipodi.sourceforge.net/DTD/sodipodi-0.dtd"
   xmlns:xlink="http://www.w3.org/1999/xlink"
   xmlns="http://www.w3.org/2000/svg"
   xmlns:svg="http://www.w3.org/2000/svg">
  <defs
     id="defs24">
    <linearGradient
       inkscape:collect="always"
       xlink:href="#_lgradient_3"
       id="linearGradient872"
       x1="-12.025727"
       y1="6.1170783"
       x2="-0.085100174"
       y2="6.1170783"
       gradientUnits="userSpaceOnUse"
       gradientTransform="matrix(3.8358211,0,0,3.8371386,-0.00544341,-0.00268054)" />
    <linearGradient
       inkscape:collect="always"
       xlink:href="#_lgradient_3"
       id="linearGradient15"
       x1="-9.6850061"
       y1="45.161198"
       x2="11.98815"
       y2="21.735205"
       gradientUnits="userSpaceOnUse"
       gradientTransform="matrix(1.1147442,0,0,1.1150348,-0.01237238,-3.3277956)" />
    <linearGradient
       inkscape:collect="always"
       xlink:href="#_lgradient_3"
       id="linearGradient889"
       x1="11.250077"
       y1="23.996786"
       x2="37.992947"
       y2="23.996786"
       gradientUnits="userSpaceOnUse" />
    <linearGradient
       inkscape:collect="always"
       xlink:href="#_lgradient_2"
       id="linearGradient999"
       x1="7.9886584"
       y1="24"
       x2="37.344627"
       y2="24"
       gradientUnits="userSpaceOnUse" />
  </defs>
  <sodipodi:namedview
     id="namedview22"
     pagecolor="#ffffff"
     bordercolor="#666666"
     borderopacity="1.0"
     inkscape:pageshadow="2"
     inkscape:pageopacity="0.0"
     inkscape:pagecheckerboard="0"
     inkscape:document-units="pt"
     showgrid="false"
     inkscape:zoom="10.21875"
     inkscape:cx="31.95107"
     inkscape:cy="32"
     inkscape:window-width="1600"
     inkscape:window-height="836"
     inkscape:window-x="0"
     inkscape:window-y="0"
     inkscape:window-maximized="1"
     inkscape:current-layer="svg20" />
  <linearGradient
     id="_lgradient_2"
     x1="-0.6638665264124907"
     y1="1.1578947368421053"
     x2="1.001170311540284"
     y2="0.21778875908403628"
     gradientTransform="matrix(29.355986,0,0,18.095932,7.9890235,14.952033)"
     gradientUnits="userSpaceOnUse">
    <stop
       offset="0%"
       stop-opacity="1"
       style="stop-color:rgb(84,51,255)"
       id="stop2" />
    <stop
       offset="51.73913043478261%"
       stop-opacity="1"
       style="stop-color:rgb(32,189,255)"
       id="stop4" />
    <stop
       offset="98.26086956521739%"
       stop-opacity="1"
       style="stop-color:rgb(165,254,203)"
       id="stop6" />
  </linearGradient>
  <rect
     x="-46.783188"
     y="1.2253767"
     height="45.80014"
     rx="6.1837621"
     shape-rendering="crispEdges"
     id="rect5-6-7-3"
     ry="6.8055277"
     transform="matrix(0.00524063,-0.99998627,0.99998801,0.00489691,0,0)"
     style="isolation:isolate;fill:#0089ff;fill-opacity:0.13470298;stroke:url(#linearGradient872);stroke-width:2.0301;stroke-miterlimit:4;stroke-dasharray:none;stroke-opacity:1"
     width="45.801998" />
  <rect
     x="-15.686804"
     y="17.260084"
     height="33.345856"
     rx="6.7920032"
     shape-rendering="crispEdges"
     id="rect5-6-6-6-6"
     style="isolation:isolate;fill:#0089ff;fill-opacity:0.13470298;stroke:url(#linearGradient15);stroke-width:1.67233;stroke-miterlimit:4;stroke-dasharray:none;stroke-opacity:1"
     ry="7.4743071"
     transform="matrix(0.72446484,-0.68931175,0.68622417,0.72739012,0,0)"
     width="33.338203" />
  <path
     style="color:#000000;fill:url(#linearGradient999);fill-rule:evenodd;-inkscape-stroke:none"
     d="m 32.796875,14.451172 c -0.664884,0 -1.321492,0.156616 -1.917969,0.451172 h -0.002 l -0.002,0.002 c -0.604376,0.30583 -1.137574,0.735035 -1.566406,1.265625 l -0.002,0.0039 -3.148438,3.988281 c -4.24e-4,5.22e-4 4.23e-4,0.0014 0,0.002 -0.6228,0.767923 -0.507014,1.910526 0.257813,2.53711 0.765637,0.626513 1.909571,0.515246 2.539062,-0.248047 l 0.0039,-0.0059 0.002,-0.0039 3.152344,-3.998047 c 0.0044,-0.0053 0.0084,-0.0086 0.01367,-0.01563 0.0011,-0.0014 8.38e-4,-0.0024 0.002,-0.0039 0.104893,-0.123487 0.225204,-0.22327 0.359375,-0.291015 0.09915,-0.04688 0.21058,-0.07422 0.308594,-0.07422 0.08851,0 0.201587,0.02737 0.300781,0.07422 0.147262,0.07429 0.267401,0.171472 0.361328,0.291015 l 0.150391,0.189453 h 0.0098 l 1.03125,1.236328 c 0.634356,0.761071 1.780979,0.867274 2.542968,0.234375 0.762785,-0.633559 0.868761,-1.782224 0.234375,-2.544921 l -1.169922,-1.396485 -0.002,-0.002 c -0.424359,-0.526135 -0.958383,-0.949627 -1.5625,-1.248047 h -0.002 c -0.588143,-0.286719 -1.235297,-0.443359 -1.894531,-0.443359 z m 0,1 c 0.501931,0 1.001432,0.119693 1.457031,0.341797 0.476897,0.236016 0.893116,0.56896 1.22461,0.980468 l 0.0039,0.002 1.177734,1.40625 h -0.002 c 0.288026,0.346281 0.242677,0.847222 -0.103516,1.134765 -0.346514,0.28781 -0.848421,0.24114 -1.136718,-0.105469 l -1.171875,-1.404296 0.01172,0.03516 c -0.01805,-0.0205 -0.02278,-0.02569 -0.04492,-0.05078 l 0.0332,0.01563 c -0.01742,-0.02217 -0.04621,-0.02951 -0.06445,-0.05078 -0.01904,-0.02152 -0.04662,-0.05452 -0.04687,-0.05469 -1.02e-4,-6.8e-5 -0.02503,-0.0079 -0.03125,-0.0098 -0.169106,-0.177448 -0.34845,-0.346099 -0.5625,-0.453125 l -0.002,-0.002 -0.0039,-0.002 c -0.226025,-0.108504 -0.475748,-0.173828 -0.738281,-0.173828 -0.265981,0 -0.520084,0.06534 -0.746094,0.173828 l -0.002,0.002 -0.0039,0.002 c -0.26569,0.132846 -0.492329,0.323402 -0.679688,0.544922 4.32e-4,-4.35e-4 -0.0037,0.0037 -0.0039,0.0039 l -0.002,0.002 c -0.0054,0.0064 -0.01424,0.0092 -0.01953,0.01563 l -0.113282,0.138672 v 0.0098 l -3.042968,3.863281 h -0.002 c -0.285341,0.344089 -0.786149,0.393047 -1.132813,0.109375 -0.344647,-0.283919 -0.395324,-0.785838 -0.113281,-1.132812 l 0.002,-0.0039 3.148437,-3.990234 0.002,-0.002 0.002,-0.002 c 0.340298,-0.419809 0.75947,-0.756744 1.236328,-0.998047 0.459273,-0.226071 0.962803,-0.345703 1.470703,-0.345703 z M 9.4199219,21.609375 C 8.9583983,21.576603 8.483551,21.718593 8.109375,22.042969 7.3615759,22.692018 7.2804593,23.839884 7.9296875,24.587891 l 6.3300785,7.308593 c 6.01e-4,7.14e-4 0.0013,0.0012 0.002,0.002 l 0.002,0.002 c 0.869664,1.027936 2.144904,1.63381 3.490234,1.648437 h 0.0059 0.0059 c 1.360473,-0.01463 2.647796,-0.628825 3.511719,-1.675781 l 0.0059,-0.0078 3.080078,-4.023437 c 0.644442,-0.753046 0.553962,-1.901263 -0.199219,-2.544922 -0.752821,-0.643353 -1.900715,-0.555505 -2.544921,0.197266 l -0.0078,0.01172 -0.0078,0.0098 -3.072266,4.019531 -0.01367,0.01172 -0.01367,0.01953 c -0.185936,0.224853 -0.458477,0.351592 -0.74414,0.365235 -0.274265,-0.01344 -0.544843,-0.143946 -0.730469,-0.359375 l -6.375,-7.347657 C 10.329847,21.850796 9.8814454,21.642147 9.4199219,21.609375 Z M 8.765625,22.798828 c 0.3397512,-0.294532 0.8403817,-0.259095 1.1347656,0.08008 l 6.3261714,7.298828 c 3.89e-4,5.22e-4 0.0016,0.0014 0.002,0.002 l 0.01758,0.01953 c 0.0048,0.0056 0.0061,0.0098 0.0098,0.01367 9.8e-4,0.0012 0.0029,7.93e-4 0.0039,0.002 0.371192,0.438284 0.908632,0.705209 1.484375,0.722656 l 0.01563,0.002 0.01563,-0.002 c 0.581741,-0.01737 1.126888,-0.285533 1.498046,-0.734375 l -0.03125,0.03516 0.04297,-0.04297 3.09375,-4.050781 h 0.002 c 0.292763,-0.340239 0.793545,-0.379494 1.134766,-0.08789 0.341448,0.291797 0.38021,0.793182 0.08789,1.134765 l -0.0098,0.0098 -3.087891,4.035156 -0.0039,0.002 c -0.674256,0.815078 -1.679741,1.295324 -2.742187,1.308594 -1.051137,-0.01327 -2.054855,-0.48746 -2.736328,-1.294922 l -0.002,-0.0039 -6.3359371,-7.314453 C 8.3914922,23.594799 8.4266251,23.093062 8.765625,22.798828 Z"
     id="path9" />
  <linearGradient
     id="_lgradient_3"
     x1="0"
     y1="0.5"
     x2="0.9074880558539661"
     y2="0.9200778838291643"
     gradientTransform="matrix(27.796239,0,0,17.84152,10.707979,15.075978)"
     gradientUnits="userSpaceOnUse">
    <stop
       offset="0%"
       stop-opacity="1"
       style="stop-color:rgb(78,84,200)"
       id="stop11" />
    <stop
       offset="83.88839793817618%"
       stop-opacity="1"
       style="stop-color:rgb(0,114,255)"
       id="stop13" />
  </linearGradient>
  <path
     style="color:#000000;fill:url(#linearGradient889);-inkscape-stroke:none"
     d="m 17.378906,14.576172 c -1.209885,0.022 -2.364776,0.526835 -3.201172,1.392578 l -2.896484,2.902344 c -0.702758,0.698217 -0.704872,1.849815 -0.0039,2.550781 0.700174,0.700122 1.850385,0.697781 2.548828,-0.0039 l 2.917969,-2.910157 0.02344,-0.02344 0.0039,-0.0039 c 0.165078,-0.173331 0.40559,-0.276684 0.646485,-0.289063 0.117104,0.007 0.218192,0.02852 0.300781,0.07617 l 0.002,0.002 0.0039,0.002 c 0.127604,0.07131 0.227118,0.1801 0.314453,0.292969 l 11.447266,12.980469 -0.04297,-0.05469 c 0.365264,0.555203 0.848678,1.030076 1.421875,1.382813 v 0.002 c 0.579603,0.353783 1.244131,0.542969 1.923828,0.542969 0.679699,0 1.337883,-0.190945 1.914063,-0.535157 h 0.002 l 0.002,-0.002 c 0.563451,-0.343923 1.047252,-0.805974 1.419922,-1.361328 l 0.0039,-0.0039 2.050782,-3.179688 -0.0098,0.01172 c 0.563446,-0.816057 0.359044,-1.949094 -0.457031,-2.511719 -0.814185,-0.561322 -1.944739,-0.356774 -2.50586,0.457032 l -0.0039,0.0059 -2.046875,3.167969 -0.02734,0.04297 -0.0039,0.0039 c -0.07877,0.116849 -0.174274,0.208606 -0.285156,0.277344 -0.02269,0.01174 -0.04117,0.01758 -0.05273,0.01758 -1.27e-4,0 -0.01987,-0.0076 -0.03906,-0.01563 -0.08954,-0.05921 -0.157013,-0.13788 -0.222656,-0.21875 -2.89e-4,-3.56e-4 2.88e-4,-0.0016 0,-0.002 l -0.09961,-0.111329 -11.363281,-12.894531 0.03906,0.05078 c -0.415615,-0.619776 -0.968549,-1.130034 -1.609375,-1.49414 h -0.002 c -0.644062,-0.362748 -1.367841,-0.546875 -2.103515,-0.546875 h -0.0059 z m 0.01367,1 c 0.567001,6.41e-4 1.117941,0.142669 1.607422,0.417969 0.507291,0.288233 0.945385,0.690485 1.273437,1.179687 l 0.01758,0.02734 11.332031,12.855469 0.0293,0.0332 -0.002,-0.0078 c 0.150935,0.217847 0.338237,0.414563 0.568359,0.5625 l 0.01172,0.0059 0.01172,0.0078 c 0.155843,0.08904 0.338293,0.150391 0.546875,0.150391 0.208946,0 0.3988,-0.06131 0.554688,-0.150391 l 0.0059,-0.0039 0.0059,-0.0039 c 0.248203,-0.150695 0.450112,-0.353226 0.603515,-0.582032 0.0061,-0.0083 0.0145,-0.02423 0.02148,-0.03516 l -0.002,0.0059 2.054687,-3.177734 c 0.252998,-0.366929 0.742817,-0.458534 1.113281,-0.203125 0.368574,0.254105 0.460322,0.748587 0.203125,1.121094 l -0.0059,0.0078 -2.046875,3.175782 c -0.291922,0.435022 -0.66781,0.793465 -1.107422,1.0625 -5.54e-4,3.31e-4 -0.0014,-3.31e-4 -0.002,0 -7.91e-4,4.83e-4 -0.0012,0.0015 -0.002,0.002 -0.427449,0.254484 -0.903429,0.390625 -1.396485,0.390625 -0.493875,0 -0.975787,-0.137718 -1.40039,-0.396485 h -0.002 c -0.443934,-0.273441 -0.820606,-0.646068 -1.107422,-1.082031 l -0.01953,-0.0293 -11.347657,-12.867187 c -0.0014,-0.002 -0.0025,-0.002 -0.0039,-0.0039 l -0.0098,-0.01172 0.0059,0.01563 c -0.17843,-0.260496 -0.407897,-0.484236 -0.685547,-0.640625 -5.78e-4,-3.34e-4 -0.0014,3.33e-4 -0.002,0 -0.250232,-0.143941 -0.523149,-0.208064 -0.785156,-0.216797 h -0.01758 -0.01758 c -0.510696,0.01761 -0.99628,0.234474 -1.349609,0.605469 l -0.0098,0.0098 -2.917968,2.910156 v 0.002 c -0.316791,0.319234 -0.816634,0.320061 -1.134766,0.002 -0.317989,-0.317989 -0.316932,-0.817942 0.002,-1.134766 l 0.002,-0.002 2.90625,-2.912109 0.002,-0.0039 c 0.650048,-0.672857 1.554649,-1.06778 2.496094,-1.085937 z m 16.566406,14.492187 -0.05859,0.07227 c 0.0033,-0.0033 0.02031,-0.01864 0.05469,-0.06445 0.0012,-0.0017 0.0026,-0.0061 0.0039,-0.0078 z m -2.335937,-0.01172 c 0.0024,0.0033 0.0056,0.01069 0.0078,0.01367 0.03447,0.04606 0.05264,0.06047 0.05664,0.06445 z"
     id="path16" />
</svg>
