<?xml version="1.0" encoding="UTF-8" standalone="no"?>
<!-- Generator: Gravit.io -->

<svg
   style="isolation:isolate"
   viewBox="0 0 48 48"
   width="48pt"
   height="48pt"
   version="1.1"
   id="svg23"
   sodipodi:docname="webstorm.svg"
   inkscape:version="1.1.2 (0a00cf5339, 2022-02-04)"
   xmlns:inkscape="http://www.inkscape.org/namespaces/inkscape"
   xmlns:sodipodi="http://sodipodi.sourceforge.net/DTD/sodipodi-0.dtd"
   xmlns:xlink="http://www.w3.org/1999/xlink"
   xmlns="http://www.w3.org/2000/svg"
   xmlns:svg="http://www.w3.org/2000/svg">
  <defs
     id="defs27">
    <linearGradient
       inkscape:collect="always"
       xlink:href="#_lgradient_89"
       id="linearGradient872"
       x1="-12.025727"
       y1="6.1170783"
       x2="-0.085100174"
       y2="6.1170783"
       gradientUnits="userSpaceOnUse"
       gradientTransform="matrix(3.8358211,0,0,3.8371386,-0.00544341,-0.00268054)" />
    <linearGradient
       inkscape:collect="always"
       xlink:href="#_lgradient_89"
       id="linearGradient15"
       x1="-9.6850061"
       y1="45.161198"
       x2="11.98815"
       y2="21.735205"
       gradientUnits="userSpaceOnUse"
       gradientTransform="matrix(1.1147442,0,0,1.1150348,-0.01237238,-3.3277956)" />
    <linearGradient
       inkscape:collect="always"
       xlink:href="#_lgradient_89"
       id="linearGradient1009"
       x1="16.509409"
       y1="24.513027"
       x2="31.981516"
       y2="24.513027"
       gradientUnits="userSpaceOnUse" />
    <linearGradient
       inkscape:collect="always"
       xlink:href="#_lgradient_87"
       id="linearGradient1039"
       x1="19.947283"
       y1="12.71399"
       x2="24.959621"
       y2="35.889225"
       gradientUnits="userSpaceOnUse" />
    <linearGradient
       inkscape:collect="always"
       xlink:href="#_lgradient_88"
       id="linearGradient1246"
       x1="23.113096"
       y1="15.663333"
       x2="32.212688"
       y2="30.307634"
       gradientUnits="userSpaceOnUse" />
  </defs>
  <sodipodi:namedview
     id="namedview25"
     pagecolor="#ffffff"
     bordercolor="#666666"
     borderopacity="1.0"
     inkscape:pageshadow="2"
     inkscape:pageopacity="0.0"
     inkscape:pagecheckerboard="0"
     inkscape:document-units="pt"
     showgrid="false"
     inkscape:zoom="10.21875"
     inkscape:cx="32.04893"
     inkscape:cy="32.097859"
     inkscape:window-width="1600"
     inkscape:window-height="836"
     inkscape:window-x="0"
     inkscape:window-y="0"
     inkscape:window-maximized="1"
     inkscape:current-layer="svg23" />
  <linearGradient
     id="_lgradient_87"
     x1="0.41703096539162116"
     y1="0.019248826291079567"
     x2="0.679538131811658"
     y2="0.9641320015277046"
     gradientTransform="matrix(19.0941,0,0,24.527092,11.984452,12.241872)"
     gradientUnits="userSpaceOnUse">
    <stop
       offset="28.000000000000004%"
       stop-opacity="1"
       style="stop-color:rgb(0,205,215)"
       id="stop2" />
    <stop
       offset="94%"
       stop-opacity="1"
       style="stop-color:rgb(32,134,215)"
       id="stop4" />
  </linearGradient>
  <rect
     x="-46.783188"
     y="1.2253767"
     height="45.80014"
     rx="6.1837621"
     shape-rendering="crispEdges"
     id="rect5-6-7-3"
     ry="6.8055277"
     transform="matrix(0.00524063,-0.99998627,0.99998801,0.00489691,0,0)"
     style="isolation:isolate;fill:#00c0ff;fill-opacity:0.13470298;stroke:url(#linearGradient872);stroke-width:2.0301;stroke-miterlimit:4;stroke-dasharray:none;stroke-opacity:1"
     width="45.801998" />
  <rect
     x="-15.686804"
     y="17.260084"
     height="33.345856"
     rx="6.7920032"
     shape-rendering="crispEdges"
     id="rect5-6-6-6-6"
     style="isolation:isolate;fill:#00c0ff;fill-opacity:0.13470298;stroke:url(#linearGradient15);stroke-width:1.67233;stroke-miterlimit:4;stroke-dasharray:none;stroke-opacity:1"
     ry="7.4743071"
     transform="matrix(0.72446484,-0.68931175,0.68622417,0.72739012,0,0)"
     width="33.338203" />
  <path
     style="color:#000000;fill:url(#linearGradient1039);-inkscape-stroke:none"
     d="m 18.179687,11.699219 -0.193359,0.07813 -6.542969,2.644531 2.53711,21.292969 15.9375,1.59375 1.361328,-4.769532 0.34375,-1.197265 -0.921875,0.335937 c -0.12939,0.04699 -0.26108,0.07227 -0.400391,0.07227 h -1.941406 l -0.654297,2.289062 -11,-1.095703 -1.976562,-16.578125 3.408203,-1.384765 3.423828,1.498047 0.925781,-0.539063 2.4375,-1.3125 z m -0.01563,1.083984 4.470704,1.941406 -0.638672,0.34375 -0.5,0.291016 -3.345703,-1.462891 -4.50586,1.830079 2.16211,18.130859 12.628906,1.259765 L 29.113281,32.75 h 1.066406 L 29.185547,36.230469 14.878906,34.798828 12.525391,15.0625 Z M 28.787109,30.25 28.650391,30.732422 28.458984,31.404297 H 29.25 l 0.0293,-0.214844 -0.150391,0.08398 0.101563,-0.724609 0.117187,0.15625 0.03906,-0.28125 z m 0.824219,0.755859 -0.02539,0.01367 0.01563,0.02148 z"
     id="path7" />
  <linearGradient
     id="_lgradient_88"
     x1="0.2248922413793103"
     y1="0.15127118644067816"
     x2="0.7442302428653794"
     y2="0.912763041938721"
     gradientTransform="matrix(17.521526,0,0,19.231067,19.17264,12.754227)"
     gradientUnits="userSpaceOnUse">
    <stop
       offset="14.000000000000002%"
       stop-opacity="1"
       style="stop-color:rgb(255,240,69)"
       id="stop9" />
    <stop
       offset="37%"
       stop-opacity="1"
       style="stop-color:rgb(0,205,215)"
       id="stop11" />
  </linearGradient>
  <path
     style="color:#000000;fill:url(#linearGradient1246);-inkscape-stroke:none"
     d="m 27.222656,12.251953 -0.115234,0.0625 -5.111328,2.753906 -3.796875,2.208985 h 6.083984 l 3.681641,-1.988281 4.1875,0.06055 1.570312,4.945313 -2.220703,2.857422 1.982422,4.576172 -2.001953,1.195312 v 1.644531 c 0,0.395263 -0.191691,0.737059 -0.488281,0.953125 l 0.542968,0.837891 0.777344,-0.449219 5.015625,-2.921875 -2.332031,-5.396484 2.089844,-2.699219 -2.714844,-8.546875 z m 0.248047,1.003906 6.167969,0.08008 2.33789,7.359374 -2.130859,2.75 2.212891,5.125 -3.638672,2.121094 c 0.0034,-0.04958 0.0625,-0.07266 0.0625,-0.123047 V 29.490234 L 34.75,28.136719 l -2.095703,-4.839844 2.18164,-2.802734 -1.949218,-6.134766 -5.167969,-0.07227 -3.689453,1.990235 H 21.90625 l 0.580078,-0.337891 z"
     id="path14" />
  <linearGradient
     id="_lgradient_89"
     x1="-0.10692995529061117"
     y1="-0.10581222056631889"
     x2="0.9921758569299555"
     y2="0.974664679582712"
     gradientTransform="matrix(15.472106,0,0,15.472106,16.509409,16.776974)"
     gradientUnits="userSpaceOnUse">
    <stop
       offset="28.000000000000004%"
       stop-opacity="1"
       style="stop-color:rgb(0,205,215)"
       id="stop16" />
    <stop
       offset="94%"
       stop-opacity="1"
       style="stop-color:rgb(32,134,215)"
       id="stop18" />
  </linearGradient>
  <path
     style="color:#000000;fill:url(#linearGradient1009);fill-rule:evenodd;-inkscape-stroke:none"
     d="m 18.191406,16.277344 c -1.198816,0 -2.18164,0.982824 -2.18164,2.18164 v 6.390625 c 0,0.641822 0.530054,1.171875 1.171875,1.171875 0.641821,0 1.173828,-0.530054 1.173828,-1.171875 v -4.144531 l 1.429687,4.941406 h 1.814453 l 0.544922,-1.935547 0.542969,1.935547 h 1.814453 l 0.355469,-1.230468 0.347656,0.291015 c 0.757892,0.637866 1.707962,1.004445 2.697266,1.041016 h 0.0078 0.0098 c 0.688843,0 1.321338,-0.186483 1.794922,-0.582031 0.264114,-0.220595 0.292379,-0.614702 0.421875,-0.945313 v 5.673828 c 0,0.286504 -0.223262,0.509766 -0.509766,0.509766 H 18.863281 c -0.138577,0 -0.155403,-0.159926 -0.246094,-0.246094 h 5.837891 v -2.363281 h -6.126953 v 0.5 0.0039 c -0.04014,-0.606968 -0.530344,-1.107422 -1.146484,-1.107422 -0.641822,0 -1.171875,0.532006 -1.171875,1.173828 v 2.203125 c 0,1.198817 0.982823,2.181641 2.18164,2.181641 h 12.109375 c 1.198818,0 2.181641,-0.982824 2.181641,-2.181641 v -6.667968 c 0,-0.641822 -0.532007,-1.171875 -1.173828,-1.171875 -0.404355,0 -0.704753,0.244142 -0.916016,0.560546 -0.04963,-0.514141 -0.206198,-0.999011 -0.558594,-1.30664 -0.145055,-0.126628 -0.372148,-0.162705 -0.544922,-0.253906 l 0.847657,-1.248047 v 0.18164 c 0,0.641823 0.530053,1.171875 1.171875,1.171875 0.641822,0 1.173828,-0.530053 1.173828,-1.171875 v -2.203125 c 0,-1.198816 -0.982823,-2.18164 -2.181641,-2.18164 z m 0,1 h 12.109375 c 0.657835,0 1.181641,0.523807 1.181641,1.18164 v 2.203125 c 0,0.10084 -0.07299,0.171875 -0.173828,0.171875 -0.100839,0 -0.171875,-0.07104 -0.171875,-0.171875 v -1.53125 c 0,-0.827486 -0.682279,-1.507812 -1.509766,-1.507812 H 18.863281 c -0.827487,0 -1.507812,0.680326 -1.507812,1.507812 v 5.71875 c 0,0.100839 -0.07299,0.171875 -0.173828,0.171875 -0.100839,0 -0.171875,-0.07104 -0.171875,-0.171875 v -6.390625 c 0,-0.657833 0.523807,-1.18164 1.18164,-1.18164 z m 0.671875,1.345703 h 10.763672 c 0.286504,0 0.509766,0.22131 0.509766,0.507812 v 0.583985 l -0.02734,-0.02148 c -0.682162,-0.537108 -1.526023,-0.827235 -2.394531,-0.824218 h -0.002 c -0.536376,3.31e-4 -0.981233,0.222939 -1.390625,0.478515 l 0.109375,-0.376953 h -2.384766 l -0.09766,0.373047 -0.398438,1.53125 -0.554687,-1.904297 h -1.707032 l -0.554687,1.900391 -0.494141,-1.900391 h -1.724609 c 0.08528,-0.157707 0.151511,-0.347656 0.347656,-0.347656 z m 8.851563,1.246094 h 0.002 c 0.477941,-0.0019 0.902208,0.229132 1.318359,0.453125 l -0.08984,0.130859 c -0.383319,-0.201064 -0.7617,-0.426745 -1.197265,-0.455078 l -0.01563,-0.002 h -0.01758 c -0.299054,0 -0.581943,0.06513 -0.81836,0.236328 -0.236416,0.171202 -0.398437,0.475388 -0.398437,0.777344 0,0.293885 0.19106,0.67596 0.474609,0.851562 0.283549,0.175602 0.608692,0.262232 1.09961,0.384766 l -0.0098,-0.002 c 0.533256,0.145542 0.909702,0.312765 1.115234,0.492187 0.205533,0.179422 0.292969,0.347714 0.292969,0.734375 0,0.437513 -0.143514,0.716448 -0.396484,0.927734 -0.25038,0.209124 -0.64227,0.342907 -1.142578,0.345704 -0.58741,-0.02324 -1.104164,-0.314511 -1.601563,-0.617188 l 0.08789,-0.107422 c 0.45472,0.289437 0.904835,0.59961 1.501953,0.59961 0.323031,0 0.623399,-0.05703 0.880859,-0.228516 0.257461,-0.171486 0.439453,-0.497306 0.439453,-0.818359 0,-0.265163 -0.174245,-0.624044 -0.439453,-0.800782 -0.263766,-0.175776 -0.580359,-0.274916 -1.05664,-0.398437 l -0.0059,-0.002 C 27.193099,22.221891 26.790897,22.0706 26.578125,21.900391 26.364306,21.729343 26.267578,21.569386 26.267578,21.111328 v -0.0332 c 0,-0.379578 0.135167,-0.652323 0.376953,-0.861328 0.241787,-0.209005 0.607234,-0.347656 1.070313,-0.347656 z m -8.529297,0.101562 h 0.28125 l 1.21289,4.662109 1.359375,-4.662109 h 0.207032 l 1.359375,4.662109 1.214843,-4.662109 h 0.28125 L 23.75,24.646484 h -0.304688 l -1.302734,-4.630859 -1.300781,4.630859 H 20.537109 Z M 27.695312,21 c 0.417994,0.0297 0.818883,0.179693 1.148438,0.4375 l 0.259766,0.205078 c -0.259151,-0.116973 -0.470508,-0.279536 -0.777344,-0.363281 l -0.0059,-0.002 -0.0059,-0.002 c -0.436045,-0.108838 -0.667341,-0.196019 -0.761719,-0.246094 0.03111,-0.01222 0.06053,-0.0257 0.142578,-0.0293 z m -2.099609,0.861328 c 0.118792,0.281736 0.136224,0.6418 0.359375,0.820313 0.0531,0.04248 0.133525,0.04492 0.189453,0.08203 l -1.261719,1.5625 z m 0.677734,0.957031 c 0.367702,0.215644 0.748929,0.394501 1.207032,0.519532 h 0.0039 l 0.0039,0.002 c 0.39307,0.101779 0.577602,0.182744 0.673828,0.234375 -0.05098,0.01948 -0.101239,0.04492 -0.242187,0.04492 -0.508956,0 -0.892794,-0.197737 -1.363281,-0.574219 z m 5.035157,0.910157 c 0.10084,0 0.173828,0.07104 0.173828,0.171875 v 6.667968 c 0,0.657834 -0.523806,1.181641 -1.181641,1.181641 H 18.191406 c -0.657833,0 -1.18164,-0.523807 -1.18164,-1.181641 v -2.203125 c 0,-0.100839 0.07104,-0.173828 0.171875,-0.173828 0.100839,0 0.173828,0.07299 0.173828,0.173828 v 1.529297 c 0,0.827487 0.680325,1.509766 1.507812,1.509766 h 10.763672 c 0.827487,0 1.509766,-0.682279 1.509766,-1.509766 v -5.99414 c 0,-0.100839 0.07104,-0.171875 0.171875,-0.171875 z m -11.980469,5.066406 h 4.126953 v 0.363281 h -4.126953 z"
     id="path21" />
</svg>
