<?xml version="1.0" encoding="UTF-8" standalone="no"?>
<!-- Generator: Gravit.io -->

<svg
   style="isolation:isolate"
   viewBox="0 0 48 48"
   width="48pt"
   height="48pt"
   version="1.1"
   id="svg9"
   sodipodi:docname="whatsapp.svg"
   inkscape:version="1.1.2 (0a00cf5339, 2022-02-04)"
   xmlns:inkscape="http://www.inkscape.org/namespaces/inkscape"
   xmlns:sodipodi="http://sodipodi.sourceforge.net/DTD/sodipodi-0.dtd"
   xmlns:xlink="http://www.w3.org/1999/xlink"
   xmlns="http://www.w3.org/2000/svg"
   xmlns:svg="http://www.w3.org/2000/svg">
  <defs
     id="defs13">
    <linearGradient
       inkscape:collect="always"
       xlink:href="#_lgradient_5"
       id="linearGradient872"
       x1="-12.025727"
       y1="6.1170783"
       x2="-0.085100174"
       y2="6.1170783"
       gradientUnits="userSpaceOnUse"
       gradientTransform="matrix(3.8358211,0,0,3.8371386,-0.00544341,-0.00268054)" />
    <linearGradient
       inkscape:collect="always"
       xlink:href="#_lgradient_5"
       id="linearGradient15"
       x1="-9.6850061"
       y1="45.161198"
       x2="11.98815"
       y2="21.735205"
       gradientUnits="userSpaceOnUse"
       gradientTransform="matrix(1.1147442,0,0,1.1150348,-0.01237238,-3.3277956)" />
    <linearGradient
       inkscape:collect="always"
       xlink:href="#_lgradient_5"
       id="linearGradient986"
       x1="13.226086"
       y1="22.125351"
       x2="37.724731"
       y2="22.125351"
       gradientUnits="userSpaceOnUse" />
  </defs>
  <sodipodi:namedview
     id="namedview11"
     pagecolor="#ffffff"
     bordercolor="#666666"
     borderopacity="1.0"
     inkscape:pageshadow="2"
     inkscape:pageopacity="0.0"
     inkscape:pagecheckerboard="0"
     inkscape:document-units="pt"
     showgrid="false"
     inkscape:zoom="10.21875"
     inkscape:cx="31.95107"
     inkscape:cy="32"
     inkscape:window-width="1600"
     inkscape:window-height="836"
     inkscape:window-x="0"
     inkscape:window-y="0"
     inkscape:window-maximized="1"
     inkscape:current-layer="svg9" />
  <linearGradient
     id="_lgradient_5"
     x1="0"
     y1="0.5"
     x2="1"
     y2="0.5"
     gradientTransform="matrix(24.498413,0,0,24.88859,13.226309,9.6811619)"
     gradientUnits="userSpaceOnUse">
    <stop
       offset="0%"
       stop-opacity="1"
       style="stop-color:rgb(67,233,123)"
       id="stop2" />
    <stop
       offset="97.82608695652173%"
       stop-opacity="1"
       style="stop-color:rgb(56,249,215)"
       id="stop4" />
  </linearGradient>
  <rect
     x="-46.783188"
     y="1.2253767"
     height="45.80014"
     rx="6.1837621"
     shape-rendering="crispEdges"
     id="rect5-6-7-3"
     ry="6.8055277"
     transform="matrix(0.00524063,-0.99998627,0.99998801,0.00489691,0,0)"
     style="isolation:isolate;fill:#00ffc4;fill-opacity:0.13470298;stroke:url(#linearGradient872);stroke-width:2.0301;stroke-miterlimit:4;stroke-dasharray:none;stroke-opacity:1"
     width="45.801998" />
  <rect
     x="-15.686804"
     y="17.260084"
     height="33.345856"
     rx="6.7920032"
     shape-rendering="crispEdges"
     id="rect5-6-6-6-6"
     style="isolation:isolate;fill:#00ffc4;fill-opacity:0.13470298;stroke:url(#linearGradient15);stroke-width:1.67233;stroke-miterlimit:4;stroke-dasharray:none;stroke-opacity:1"
     ry="7.4743071"
     transform="matrix(0.72446484,-0.68931175,0.68622417,0.72739012,0,0)"
     width="33.338203" />
  <path
     style="color:#000000;fill:url(#linearGradient986);fill-rule:evenodd;-inkscape-stroke:none"
     d="m 25.519531,9.1816406 c -3.352349,0 -6.566927,1.3357304 -8.939453,3.7011724 h -0.002 c -2.365522,2.372017 -3.701172,5.587648 -3.701172,8.939453 0,2.230171 0.591143,4.421749 1.712891,6.353515 l -0.0098,-0.01758 -1.722656,4.978516 c -0.203795,0.588435 -0.188806,1.194339 0.203125,1.589843 0.391931,0.395505 0.997721,0.417073 1.587891,0.21875 l 5.203124,-1.746093 0.101563,0.05078 v 0.002 c 1.753307,0.879606 3.685337,1.339844 5.646484,1.339844 0.501656,0 0.998331,-0.02887 1.494141,-0.08789 0.8892,-0.107388 1.53327,-0.928671 1.427734,-1.818359 -0.105416,-0.888748 -0.922646,-1.533845 -1.810547,-1.427735 h -0.002 c -0.372255,0.04308 -0.738043,0.06445 -1.109375,0.06445 -1.447481,0 -2.878674,-0.338991 -4.175781,-0.990235 l -0.02734,-0.01367 -1.582031,-0.564453 -0.953125,0.166016 -1.574219,0.378906 0.359375,-1.089844 0.578125,-1.476562 -0.605468,-1.291016 -0.01172,-0.01953 c -0.81526,-1.399278 -1.238281,-2.980664 -1.238281,-4.599609 0,-2.426599 0.961286,-4.752304 2.679687,-6.470703 1.717761,-1.7183 4.043433,-2.679688 6.470703,-2.679688 2.279097,0 4.474983,0.849532 6.164063,2.384766 0.704948,0.645181 1.815268,0.596284 2.460937,-0.109375 0.646911,-0.707017 0.595052,-1.820848 -0.113281,-2.466797 -2.326676,-2.119454 -5.360762,-3.2988284 -8.511719,-3.2988284 z m 0,1.0000004 c 2.901332,0 5.694538,1.086604 7.837891,3.039062 0.307441,0.282006 0.3292,0.744359 0.04883,1.050781 -0.28153,0.307688 -0.74307,0.32758 -1.048828,0.04687 l -0.002,-0.002 c -1.872425,-1.701879 -4.308139,-2.644531 -6.835938,-2.644531 -2.691543,0 -5.272743,1.067067 -7.177734,2.972656 -1.905488,1.905487 -2.972656,4.486656 -2.972656,7.177735 0,1.793975 0.470755,3.551508 1.375,5.103515 l -0.02148,-0.04102 0.414063,0.882812 -0.431641,1.101563 -0.933594,2.822265 3.292969,-0.792969 0.660156,-0.113281 1.306641,0.464844 -0.05664,-0.02344 c 1.436407,0.721183 3.021385,1.095704 4.625,1.095704 0.41064,0 0.816871,-0.02282 1.226563,-0.07031 h 0.002 c 0.351044,-0.04239 0.657265,0.197076 0.699219,0.550781 0.04192,0.353437 -0.202215,0.6647 -0.552735,0.707032 -0.456951,0.0544 -0.912552,0.08203 -1.375,0.08203 -1.803905,0 -3.580377,-0.424507 -5.195312,-1.234375 h -0.002 l -0.47461,-0.240235 -0.197265,0.06641 -5.400391,1.814453 c -0.386975,0.13004 -0.530574,0.05367 -0.558594,0.02539 -0.02802,-0.02828 -0.104344,-0.172719 0.0293,-0.558593 l 1.875,-5.414063 -0.220703,-0.376953 -0.002,-0.002 c -1.032462,-1.778911 -1.576172,-3.796627 -1.576172,-5.849609 0,-3.086125 1.230791,-6.047074 3.410156,-8.232422 2.18586,-2.178717 5.146258,-3.408203 8.232422,-3.408203 z m -3.845703,5.958984 c -0.205446,-0.004 -0.395423,-0.0073 -0.583984,0.01758 h -0.002 -0.002 c -0.558896,0.07912 -0.926262,0.432142 -1.140625,0.695313 -0.239223,0.290068 -0.521529,0.719553 -0.708984,1.287109 l -0.002,0.0078 -0.002,0.0078 c -0.01073,0.0364 -0.02412,0.07447 -0.03906,0.123047 v 0.0039 l -0.002,0.0039 c -0.212615,0.73685 -0.168951,1.515885 0.08008,2.226563 0.212898,0.607261 0.522974,1.331096 0.992188,2.097656 0.793728,1.304662 1.66792,2.121383 2.230469,2.634766 0.630578,0.581711 1.463476,1.34336 2.765625,1.96875 1.206215,0.579773 2.299568,0.793888 3.03125,0.882812 h 0.0059 l 0.0078,0.002 c 0.335965,0.03158 0.936819,0.03379 1.626954,-0.226562 h 0.002 l 0.0039,-0.002 c 0.311093,-0.120838 0.576477,-0.268579 0.800781,-0.433594 0.592903,-0.423322 1.019022,-1.063291 1.128906,-1.800781 l 0.0059,-0.03711 v -0.05078 l -0.0059,0.06836 c 0.01442,-0.104651 0.0024,-0.174172 0.0059,-0.267578 l 0.04883,-0.01367 -0.03906,-0.412109 v -0.0059 c -0.02853,-0.310252 -0.220019,-0.598716 -0.517578,-0.732422 -0.867549,-0.398353 -1.739129,-0.797509 -2.605468,-1.195313 h -0.002 c -0.294075,-0.13335 -0.652955,-0.06803 -0.875,0.19336 l -1.080078,1.216797 c -0.564864,-0.240961 -1.28225,-0.607433 -2.027343,-1.25 h -0.002 c -0.844406,-0.723846 -1.297145,-1.453184 -1.621093,-2.013672 0.242316,-0.21819 0.502359,-0.365302 0.669922,-0.88086 -0.0035,0.01141 -0.005,0.01839 -0.0078,0.02539 -0.01627,0.04103 -0.03169,0.06775 -0.04492,0.08789 -0.02646,0.04028 -0.05859,0.07227 -0.05859,0.07227 l 0.08203,-0.08398 0.03516,-0.111328 c 4.27e-4,-0.0013 -4.24e-4,-0.0026 0,-0.0039 l 0.02148,-0.0625 v -0.08008 c 0,-5.62e-4 -0.01184,0.107979 -0.01172,0.107422 5.1e-5,-2.34e-4 -0.0061,0.01858 -0.0098,0.03125 0.160651,-0.499641 0.124463,-1.023547 -0.04492,-1.488281 v -0.002 l -0.002,-0.002 c -0.118637,-0.315792 -0.294787,-0.778933 -0.46875,-1.19336 -0.08698,-0.207213 -0.173278,-0.402128 -0.253906,-0.566406 -0.08063,-0.164278 -0.113608,-0.27223 -0.273438,-0.435547 l -0.002,-0.002 -0.002,-0.002 c -0.04486,-0.04486 -0.08076,-0.07366 -0.08594,-0.07813 -0.223772,-0.201779 -0.507373,-0.307062 -0.792968,-0.322266 -0.08058,-0.0054 -0.152659,-0.0059 -0.21875,-0.0059 z m 13.679688,0.357422 c -0.843071,0.307013 -1.281831,1.253388 -0.972657,2.095703 h -0.002 c 0.382513,1.050564 0.578125,2.16138 0.578125,3.277344 0.0054,3.102866 -1.514142,6.016854 -4.05664,7.789062 -0.737347,0.513956 -0.924352,1.542989 -0.410157,2.279297 0.513549,0.735383 1.540781,0.915834 2.275391,0.400391 v 0.002 c 3.422742,-2.384117 5.464272,-6.298335 5.458984,-10.470703 0,-1.498223 -0.25948,-2.992437 -0.773437,-4.398438 -0.309163,-0.842283 -1.254786,-1.28155 -2.097656,-0.974609 z m -13.689454,0.640625 0.0059,0.002 h 0.0039 c 0.07089,0 0.127041,-7.17e-4 0.164063,0.002 h 0.0059 l 0.0059,0.002 c 0.07588,0.0038 0.135283,0.02989 0.175782,0.06641 l 0.0039,0.002 0.002,0.0039 c 0,0 0.02485,0.01945 0.03906,0.0332 -0.06881,-0.07031 0.02389,0.04335 0.08984,0.177734 0.06595,0.134381 0.146,0.315144 0.228516,0.511719 0.164455,0.391776 0.338926,0.845192 0.455078,1.154297 0.104227,0.285962 0.118001,0.581598 0.0332,0.841797 -0.0016,0.0052 -0.0024,0.0065 -0.0039,0.01172 -0.147812,0.457333 -0.486567,0.710057 -0.615235,0.796875 L 21.880859,21 l 0.21875,0.400391 c 0.344596,0.628378 0.965519,1.600938 2.023438,2.507812 0.881607,0.75994 1.754691,1.211164 2.402344,1.478516 0.325423,0.134756 0.705892,0.03892 0.933593,-0.220703 l 1.052735,-1.1875 c 0.790704,0.362842 1.583635,0.725504 2.373047,1.08789 0.0081,0.12618 0.01401,0.257684 -0.0078,0.416016 v 0.0078 c -0.06724,0.447908 -0.332601,0.860526 -0.720703,1.136719 l -0.0039,0.002 -0.002,0.002 c -0.146089,0.107785 -0.338054,0.215221 -0.572266,0.306641 -0.504842,0.190448 -0.944004,0.187555 -1.175781,0.166016 -0.658837,-0.08049 -1.633602,-0.27319 -2.710938,-0.791016 -1.169444,-0.561655 -1.89324,-1.225119 -2.521484,-1.804688 h -0.002 v -0.002 c -0.553541,-0.505162 -1.329169,-1.229892 -2.050782,-2.416015 -0.425699,-0.69547 -0.708049,-1.352053 -0.902343,-1.90625 -0.185159,-0.528406 -0.21223,-1.09668 -0.0625,-1.617188 1.8e-4,-6.27e-4 -1.81e-4,-0.0013 0,-0.002 0.01026,-0.03316 0.02085,-0.07019 0.0332,-0.111328 l 0.002,-0.0039 c 0.140362,-0.42242 0.35296,-0.745169 0.529297,-0.958985 l 0.002,-0.002 v -0.002 c 0.131766,-0.162007 0.314697,-0.310552 0.507812,-0.337891 0.07632,-0.0096 0.242351,-0.0136 0.4375,-0.0098 z m 14.03125,0.298828 c 0.334469,-0.121801 0.693426,0.04581 0.816407,0.380859 0.472389,1.292958 0.71289,2.670643 0.71289,4.052735 0.0055,3.845952 -1.875956,7.452565 -5.03125,9.65039 h -0.002 c -0.291874,0.204796 -0.679523,0.136806 -0.882812,-0.154297 -0.202642,-0.290175 -0.131882,-0.680435 0.164062,-0.886718 2.810563,-1.959059 4.489686,-5.17977 4.484375,-8.609375 0,-1.231906 -0.215877,-2.457941 -0.638672,-3.619141 V 18.25 c -0.12297,-0.335021 0.04268,-0.690772 0.376953,-0.8125 z"
     id="path7" />
</svg>
