<?xml version="1.0" encoding="UTF-8" standalone="no"?>
<!-- Generator: Gravit.io -->

<svg
   style="isolation:isolate"
   viewBox="0 0 48 48"
   width="48pt"
   height="48pt"
   version="1.1"
   id="svg16"
   sodipodi:docname="wire.svg"
   inkscape:version="1.1.2 (0a00cf5339, 2022-02-04)"
   xmlns:inkscape="http://www.inkscape.org/namespaces/inkscape"
   xmlns:sodipodi="http://sodipodi.sourceforge.net/DTD/sodipodi-0.dtd"
   xmlns:xlink="http://www.w3.org/1999/xlink"
   xmlns="http://www.w3.org/2000/svg"
   xmlns:svg="http://www.w3.org/2000/svg">
  <defs
     id="defs20">
    <linearGradient
       inkscape:collect="always"
       xlink:href="#_lgradient_4"
       id="linearGradient872"
       x1="-12.025727"
       y1="6.1170783"
       x2="-0.085100174"
       y2="6.1170783"
       gradientUnits="userSpaceOnUse"
       gradientTransform="matrix(3.8358211,0,0,3.8371386,-0.00544341,-0.00268054)" />
    <linearGradient
       inkscape:collect="always"
       xlink:href="#_lgradient_4"
       id="linearGradient15"
       x1="-9.6850061"
       y1="45.161198"
       x2="11.98815"
       y2="21.735205"
       gradientUnits="userSpaceOnUse"
       gradientTransform="matrix(1.1147442,0,0,1.1150348,-0.01237238,-3.3277956)" />
    <linearGradient
       inkscape:collect="always"
       xlink:href="#_lgradient_4"
       id="linearGradient997"
       x1="11.52762"
       y1="25.36372"
       x2="36.472378"
       y2="25.36372"
       gradientUnits="userSpaceOnUse" />
  </defs>
  <sodipodi:namedview
     id="namedview18"
     pagecolor="#ffffff"
     bordercolor="#666666"
     borderopacity="1.0"
     inkscape:pageshadow="2"
     inkscape:pageopacity="0.0"
     inkscape:pagecheckerboard="0"
     inkscape:document-units="pt"
     showgrid="false"
     height="48pt"
     inkscape:zoom="7.6640625"
     inkscape:cx="28.770642"
     inkscape:cy="37.577982"
     inkscape:window-width="1600"
     inkscape:window-height="836"
     inkscape:window-x="0"
     inkscape:window-y="0"
     inkscape:window-maximized="1"
     inkscape:current-layer="svg16" />
  <linearGradient
     id="_lgradient_4"
     x1="14.679318"
     y1="247.50301"
     x2="195.86299"
     y2="35.952406"
     gradientTransform="matrix(0.21987485,0,0,0.17826962,-1.3417397,-0.84132945)"
     gradientUnits="userSpaceOnUse">
    <stop
       offset="2.608695652173913%"
       stop-opacity="1"
       style="stop-color:rgb(237,184,212)"
       id="stop2" />
    <stop
       offset="98.69565217391305%"
       stop-opacity="1"
       style="stop-color:rgb(162,110,245)"
       id="stop4" />
  </linearGradient>
  <rect
     x="-46.783188"
     y="1.2253767"
     height="45.80014"
     rx="6.1837621"
     shape-rendering="crispEdges"
     id="rect5-6-7-3"
     ry="6.8055277"
     transform="matrix(0.00524063,-0.99998627,0.99998801,0.00489691,0,0)"
     style="isolation:isolate;fill:#b100ff;fill-opacity:0.13470298;stroke:url(#linearGradient872);stroke-width:2.0301;stroke-miterlimit:4;stroke-dasharray:none;stroke-opacity:1"
     width="45.801998" />
  <rect
     x="-15.686804"
     y="17.260084"
     height="33.345856"
     rx="6.7920032"
     shape-rendering="crispEdges"
     id="rect5-6-6-6-6"
     style="isolation:isolate;fill:#b100ff;fill-opacity:0.13470298;stroke:url(#linearGradient15);stroke-width:1.67233;stroke-miterlimit:4;stroke-dasharray:none;stroke-opacity:1"
     ry="7.4743071"
     transform="matrix(0.72446484,-0.68931175,0.68622417,0.72739012,0,0)"
     width="33.338203" />
  <path
     style="color:#000000;fill:url(#linearGradient997);-inkscape-stroke:none"
     d="m 24,14.75 c -1.743296,0 -2.912811,1.150536 -3.371094,2.185547 -0.435152,0.982765 -0.414062,1.90625 -0.414062,1.90625 v 10.052734 c 0,0 -0.01324,1.800753 1.082031,3.578125 0.0406,0.06589 0.08865,0.105313 0.132812,0.166016 -0.580673,0.170692 -1.129838,0.357422 -2.023437,0.357422 -3.053548,0 -4.116751,-1.042516 -4.759766,-2.085938 -0.629976,-1.022263 -0.638655,-2.011925 -0.638671,-2.013672 v -0.002 -13.914062 h -2.980469 v 13.916015 c -2.1e-5,0.0031 -0.01035,1.800325 1.083984,3.576172 1.103878,1.791264 3.437066,3.503906 7.294922,3.503906 1.908923,0 3.400505,-0.44677 4.59375,-1.085937 1.193245,0.639167 2.684827,1.085937 4.59375,1.085937 3.857856,0 6.191044,-1.712642 7.294922,-3.503906 1.09438,-1.775853 1.084005,-3.573086 1.083984,-3.576172 v -0.002 -13.914062 h -2.980469 v 13.914062 c 0,0 -0.0081,0.992463 -0.638671,2.015625 -0.643014,1.043421 -1.706218,2.085938 -4.759766,2.085938 -0.893599,0 -1.442763,-0.18673 -2.023438,-0.357422 0.04416,-0.0607 0.09221,-0.100131 0.132813,-0.166016 1.094381,-1.775852 1.082052,-3.573085 1.082031,-3.576172 v -0.002 -10.052734 c 0,0 0.02109,-0.923485 -0.414062,-1.90625 C 26.91281,15.900537 25.743296,14.75 24,14.75 Z m 0,1 c 1.298515,0 2.14334,0.881387 2.457031,1.589844 0.336825,0.760701 0.330078,1.484375 0.330078,1.484375 l -0.002,0.0059 v 10.068359 c 0,0 0.0028,1.529334 -0.933594,3.048829 -0.118589,0.192435 -0.340814,0.431843 -0.572265,0.699218 l -0.460938,0.53125 0.652344,0.259766 c 0.803358,0.320557 1.791371,0.558594 3.123047,0.558594 3.300782,0 4.841177,-1.312774 5.611328,-2.5625 0.782645,-1.269984 0.787109,-2.533203 0.787109,-2.533203 v -0.002 -12.917968 h 0.980469 v 12.917968 c 0,0 0.0028,1.529334 -0.933594,3.048829 -0.927842,1.505611 -2.877953,3.029296 -6.445312,3.029296 -1.872111,0 -3.272137,-0.434238 -4.34375,-1.052734 L 24,33.779297 23.75,33.923828 c -1.071613,0.618496 -2.471639,1.052735 -4.34375,1.052734 -3.567359,0 -5.51747,-1.523685 -6.445312,-3.029296 -0.936366,-1.519501 -0.933594,-3.048829 -0.933594,-3.048829 V 15.980469 h 0.980469 v 12.917968 0.002 c 0,0 0.0045,1.263221 0.787109,2.533203 0.770152,1.249726 2.310546,2.5625 5.611328,2.5625 1.331676,0 2.31969,-0.238037 3.123047,-0.558594 l 0.652344,-0.259766 -0.460938,-0.53125 C 22.489252,32.379108 22.267027,32.139701 22.148437,31.947266 21.212072,30.427765 21.214844,28.898438 21.214844,28.898437 V 18.830078 l -0.002,-0.0059 c 0,0 -0.0067,-0.723674 0.330078,-1.484375 C 21.856659,16.631388 22.701485,15.75 24,15.75 Z m 0,0.980469 c -0.448635,0 -0.813954,0.0877 -1.083984,0.302734 -0.27003,0.21503 -0.380502,0.486176 -0.476563,0.703125 -0.239682,0.54131 -0.246094,1.082031 -0.246094,1.082031 v 0.0078 10.072265 0.002 c 0,0 0.0064,1.263221 0.789063,2.533203 0.18039,0.292719 0.403673,0.573962 0.654297,0.839843 L 24,32.658203 24.363281,32.273437 c 0.250622,-0.265881 0.473907,-0.547124 0.654297,-0.839843 0.782644,-1.269984 0.789063,-2.533203 0.789063,-2.533203 v -0.002 -10.072265 -0.0078 c 0,0 -0.0064,-0.540721 -0.246094,-1.082031 -0.09606,-0.21695 -0.206533,-0.488095 -0.476563,-0.703125 C 24.813954,16.818174 24.448634,16.730469 24,16.730469 Z m 0,1 c 0.32705,0 0.419906,0.05326 0.460937,0.08594 0.04103,0.03268 0.09345,0.116219 0.185547,0.324219 0.136637,0.308587 0.160157,0.708984 0.160157,0.708984 v 10.044922 c 0,0 -0.01009,0.992463 -0.640625,2.015625 C 24.123346,30.979396 24.05132,31.052208 24,31.123047 23.94868,31.052208 23.876654,30.979396 23.833984,30.910156 23.204008,29.887893 23.193376,28.89823 23.193359,28.896484 v -0.002 -10.044922 c 0,0 0.02352,-0.400396 0.160157,-0.708984 0.0921,-0.208 0.144515,-0.291545 0.185546,-0.324219 0.04103,-0.03267 0.133887,-0.08594 0.460938,-0.08594 z"
     id="path7" />
  <linearGradient
     id="_lgradient_5"
     x1="0.22078557"
     y1="0.047239967"
     x2="0.9022491"
     y2="0.90614605"
     gradientTransform="matrix(0,-247.251,246.946,0,4.027,252.625)"
     gradientUnits="userSpaceOnUse">
    <stop
       offset="2.608695652173913%"
       stop-opacity="1"
       style="stop-color:rgb(237,184,212)"
       id="stop9" />
    <stop
       offset="98.69565217391305%"
       stop-opacity="1"
       style="stop-color:rgb(162,110,245)"
       id="stop11" />
  </linearGradient>
</svg>
