<?xml version="1.0" encoding="UTF-8" standalone="no"?>
<!-- Generator: Gravit.io -->

<svg
   style="isolation:isolate"
   viewBox="0 0 48 48"
   width="48pt"
   height="48pt"
   version="1.1"
   id="svg9"
   sodipodi:docname="wireshark.svg"
   inkscape:version="1.1.2 (0a00cf5339, 2022-02-04)"
   xmlns:inkscape="http://www.inkscape.org/namespaces/inkscape"
   xmlns:sodipodi="http://sodipodi.sourceforge.net/DTD/sodipodi-0.dtd"
   xmlns:xlink="http://www.w3.org/1999/xlink"
   xmlns="http://www.w3.org/2000/svg"
   xmlns:svg="http://www.w3.org/2000/svg">
  <defs
     id="defs13">
    <linearGradient
       inkscape:collect="always"
       xlink:href="#_lgradient_127"
       id="linearGradient872"
       x1="-12.025727"
       y1="6.1170783"
       x2="-0.085100174"
       y2="6.1170783"
       gradientUnits="userSpaceOnUse"
       gradientTransform="matrix(3.8358211,0,0,3.8371386,-0.00544341,-0.00268054)" />
    <linearGradient
       inkscape:collect="always"
       xlink:href="#_lgradient_127"
       id="linearGradient15"
       x1="-9.6850061"
       y1="45.161198"
       x2="11.98815"
       y2="21.735205"
       gradientUnits="userSpaceOnUse"
       gradientTransform="matrix(1.1147442,0,0,1.1150348,-0.01237238,-3.3277956)" />
    <linearGradient
       inkscape:collect="always"
       xlink:href="#_lgradient_127"
       id="linearGradient1004"
       x1="12.606913"
       y1="24"
       x2="35.393085"
       y2="24"
       gradientUnits="userSpaceOnUse" />
  </defs>
  <sodipodi:namedview
     id="namedview11"
     pagecolor="#ffffff"
     bordercolor="#666666"
     borderopacity="1.0"
     inkscape:pageshadow="2"
     inkscape:pageopacity="0.0"
     inkscape:pagecheckerboard="0"
     inkscape:document-units="pt"
     showgrid="false"
     inkscape:zoom="10.21875"
     inkscape:cx="31.95107"
     inkscape:cy="32"
     inkscape:window-width="1600"
     inkscape:window-height="836"
     inkscape:window-x="0"
     inkscape:window-y="0"
     inkscape:window-maximized="1"
     inkscape:current-layer="svg9" />
  <linearGradient
     id="_lgradient_127"
     x1="-0.000038208333333289435"
     y1="0.5000000833333331"
     x2="0.9999618333333335"
     y2="0.5000000833333331"
     gradientTransform="matrix(22.786173,0,0,22.786173,12.606914,12.606914)"
     gradientUnits="userSpaceOnUse">
    <stop
       offset="0%"
       stop-opacity="1"
       style="stop-color:rgb(0,198,255)"
       id="stop2" />
    <stop
       offset="98.69565217391305%"
       stop-opacity="1"
       style="stop-color:rgb(0,114,255)"
       id="stop4" />
  </linearGradient>
  <rect
     x="-46.783188"
     y="1.2253767"
     height="45.80014"
     rx="6.1837621"
     shape-rendering="crispEdges"
     id="rect5-6-7-3"
     ry="6.8055277"
     transform="matrix(0.00524063,-0.99998627,0.99998801,0.00489691,0,0)"
     style="isolation:isolate;fill:#0079ff;fill-opacity:0.13470298;stroke:url(#linearGradient872);stroke-width:2.0301;stroke-miterlimit:4;stroke-dasharray:none;stroke-opacity:1"
     width="45.801998" />
  <rect
     x="-15.686804"
     y="17.260084"
     height="33.345856"
     rx="6.7920032"
     shape-rendering="crispEdges"
     id="rect5-6-6-6-6"
     style="isolation:isolate;fill:#0079ff;fill-opacity:0.13470298;stroke:url(#linearGradient15);stroke-width:1.67233;stroke-miterlimit:4;stroke-dasharray:none;stroke-opacity:1"
     ry="7.4743071"
     transform="matrix(0.72446484,-0.68931175,0.68622417,0.72739012,0,0)"
     width="33.338203" />
  <path
     style="color:#000000;fill:url(#linearGradient1004);-inkscape-stroke:none"
     d="m 15.083984,12.107422 c -1.6377,0 -2.976562,1.338862 -2.976562,2.976562 v 11.03125 c 0,1.637701 1.338863,2.976563 2.976562,2.976563 H 21.25 c 0.431992,0 0.85121,-0.185547 1.136719,-0.521485 0.286417,-0.332568 0.40597,-0.773053 0.339843,-1.199218 -0.09527,-0.609741 -0.149306,-1.222815 -0.154296,-1.839844 v -0.002 c -6e-6,-6.51e-4 5e-6,-0.0013 0,-0.002 2.72e-4,-0.621146 0.06662,-1.24626 0.205078,-1.847657 0.122931,-0.519042 0.319517,-1.020577 0.583984,-1.490234 0.03729,-0.06629 0.100125,-0.116756 0.140625,-0.181641 0.02215,0.362084 0.01759,0.724187 0.06055,1.085938 0.08205,0.726446 0.221509,1.449623 0.421875,2.154297 0.178367,0.645268 0.428781,1.273501 0.75,1.863281 0.303809,0.559646 0.682548,1.078089 1.126953,1.533203 0.281674,0.289086 0.669287,0.447266 1.066406,0.447266 h 4.636719 c 0.684508,0 1.176035,-0.514879 1.347656,-1.148438 v 3.982422 c 0,0.549772 -0.436556,0.986328 -0.986328,0.986328 H 16.074219 c -0.328026,0 -0.618358,-0.08664 -0.791016,-0.191406 -0.172657,-0.104771 -0.195312,-0.185378 -0.195312,-0.210937 0,-0.500328 -0.128665,-0.961553 -0.373047,-1.328125 -0.244382,-0.366573 -0.640856,-0.658204 -1.117188,-0.658204 -0.476332,0 -0.872805,0.291631 -1.117187,0.658204 -0.244382,0.366572 -0.373047,0.827797 -0.373047,1.328125 v 0.40625 c 0,1.6377 1.338862,2.976562 2.976562,2.976562 h 17.832032 c 1.6377,0 2.976562,-1.338862 2.976562,-2.976562 V 15.083984 c 0,-1.6377 -1.338862,-2.976562 -2.976562,-2.976562 z m 0,1 h 17.832032 c 1.096637,0 1.976562,0.879925 1.976562,1.976562 v 17.832032 c 0,1.096637 -0.879925,1.976562 -1.976562,1.976562 H 15.083984 c -1.096637,0 -1.976562,-0.879925 -1.976562,-1.976562 v -0.40625 c 0,-0.319974 0.09083,-0.602059 0.205078,-0.773438 0.114252,-0.171378 0.21462,-0.212891 0.285156,-0.212891 0.07054,0 0.170904,0.04151 0.285157,0.212891 0.114252,0.171379 0.205078,0.453464 0.205078,0.773438 0,0.471773 0.310487,0.842787 0.675781,1.064453 0.365294,0.221665 0.81827,0.33789 1.310547,0.33789 h 15.851562 c 1.090833,0 1.986328,-0.895495 1.986328,-1.986328 V 16.074219 c 0,-1.090833 -0.895495,-1.986328 -1.986328,-1.986328 H 16.074219 c -1.090833,0 -1.986328,0.895495 -1.986328,1.986328 v 9.544922 c 0,0.817398 0.672835,1.492187 1.490234,1.492187 h 5.09375 l -0.03711,-0.535156 c -0.02404,-0.346158 -0.03809,-0.692967 -0.04297,-1.039063 v -0.002 c -0.0046,-0.775601 0.08515,-1.548133 0.259765,-2.308594 v -0.002 c 0.162263,-0.699265 0.426922,-1.377488 0.779297,-2.003906 l 0.002,-0.002 c 0.352278,-0.62058 0.79157,-1.185833 1.310547,-1.681641 0.869724,-0.827091 1.876711,-1.38382 2.621094,-1.673828 -0.07939,0.734754 -0.15375,1.702105 -0.158203,2.775391 v 0.002 c 0,0.741479 0.04174,1.487794 0.123047,2.224609 v 0.002 0.002 c 0.07223,0.624303 0.190294,1.23931 0.361328,1.845703 h 0.002 v 0.002 c 0.143377,0.504474 0.339826,0.991347 0.583984,1.453125 v 0.002 l 0.002,0.0039 c 0.144347,0.266488 0.314714,0.518706 0.501953,0.75 l 0.148437,0.185547 h 4.435547 c 0.276336,0 0.490234,0.213898 0.490234,0.490234 0,0.276337 -0.213898,0.490235 -0.490234,0.490235 h -4.636719 c -0.13786,0 -0.254815,-0.0492 -0.349609,-0.146485 h -0.002 c -0.377878,-0.386983 -0.701998,-0.829955 -0.962891,-1.310546 -0.283108,-0.519807 -0.507543,-1.081 -0.666015,-1.654297 v -0.002 c -0.185091,-0.650191 -0.314254,-1.322198 -0.390625,-2 v -0.002 -0.002 c -0.09143,-0.769876 -0.13086,-1.547171 -0.13086,-2.328125 v -1.185547 l -0.849609,0.828125 c -0.425024,0.414264 -0.793959,0.891083 -1.085938,1.410157 -0.31014,0.550766 -0.540988,1.139641 -0.685547,1.75 v 0.002 c -0.157868,0.684099 -0.232421,1.386174 -0.232421,2.080078 v 0.002 0.002 c 0.0052,0.669566 0.06335,1.333162 0.166015,1.990235 0.02224,0.147074 -0.01874,0.289887 -0.107422,0.392578 l -0.002,0.002 -0.002,0.002 c -0.0909,0.107647 -0.225939,0.169922 -0.376953,0.169922 h -6.166016 c -1.096637,0 -1.976562,-0.879924 -1.976562,-1.976563 v -11.03125 c 0,-1.096637 0.879925,-1.976562 1.976562,-1.976562 z m 0.990235,1.980469 h 15.851562 c 0.549772,0 0.986328,0.436556 0.986328,0.986328 v 11.185547 c -0.171421,-0.633852 -0.662938,-1.148438 -1.347656,-1.148438 h -3.931641 c -0.09606,-0.133252 -0.195905,-0.265474 -0.273437,-0.408203 l -0.002,-0.002 c -2.56e-4,-4.72e-4 2.55e-4,-0.0015 0,-0.002 -0.210623,-0.399 -0.380192,-0.820567 -0.503906,-1.25586 -0.155724,-0.552112 -0.263592,-1.113717 -0.330079,-1.6875 v -0.002 c -0.07692,-0.69779 -0.117045,-1.406355 -0.117187,-2.109375 v -0.002 c 0,-6.49e-4 0,-0.0013 0,-0.002 0.0051,-1.171574 0.08495,-2.359328 0.169922,-3.015625 0.0333,-0.256984 -0.03986,-0.560293 -0.267578,-0.75 -0.227172,-0.189249 -0.540764,-0.207639 -0.78711,-0.128906 h -0.002 c -0.967007,0.310322 -2.201446,1.054391 -3.265625,2.066406 l -0.002,0.002 c -0.589942,0.563606 -1.089806,1.206091 -1.490234,1.912109 l -0.002,0.002 C 20.360127,21.438399 20.061281,22.204756 19.876953,23 v 0.002 c -0.191511,0.833319 -0.290403,1.683261 -0.285156,2.541016 v 0.002 0.002 c 0.0026,0.18817 0.01545,0.376295 0.02344,0.564453 h -4.037109 c -0.276336,0 -0.490234,-0.215851 -0.490234,-0.492187 v -9.544922 c 0,-0.549772 0.436556,-0.986328 0.986328,-0.986328 z"
     id="path7" />
</svg>
