<?xml version="1.0" encoding="UTF-8" standalone="no"?>
<!-- Generator: Gravit.io -->

<svg
   style="isolation:isolate"
   viewBox="0 0 48 48"
   width="48pt"
   height="48pt"
   version="1.1"
   id="svg11"
   sodipodi:docname="words.svg"
   inkscape:version="1.1.2 (0a00cf5339, 2022-02-04)"
   xmlns:inkscape="http://www.inkscape.org/namespaces/inkscape"
   xmlns:sodipodi="http://sodipodi.sourceforge.net/DTD/sodipodi-0.dtd"
   xmlns:xlink="http://www.w3.org/1999/xlink"
   xmlns="http://www.w3.org/2000/svg"
   xmlns:svg="http://www.w3.org/2000/svg">
  <defs
     id="defs15">
    <linearGradient
       inkscape:collect="always"
       xlink:href="#_lgradient_44"
       id="linearGradient872"
       x1="-12.025727"
       y1="6.1170783"
       x2="-0.085100174"
       y2="6.1170783"
       gradientUnits="userSpaceOnUse"
       gradientTransform="matrix(3.8358211,0,0,3.8371386,-0.00544341,-0.00268054)" />
    <linearGradient
       inkscape:collect="always"
       xlink:href="#_lgradient_44"
       id="linearGradient15"
       x1="-9.6850061"
       y1="45.161198"
       x2="11.98815"
       y2="21.735205"
       gradientUnits="userSpaceOnUse"
       gradientTransform="matrix(1.1147442,0,0,1.1150348,-0.01237238,-3.3277956)" />
    <linearGradient
       inkscape:collect="always"
       xlink:href="#_lgradient_44"
       id="linearGradient862"
       x1="13.120663"
       y1="24.000025"
       x2="34.879337"
       y2="24.000025"
       gradientUnits="userSpaceOnUse" />
  </defs>
  <sodipodi:namedview
     id="namedview13"
     pagecolor="#ffffff"
     bordercolor="#666666"
     borderopacity="1.0"
     inkscape:pageshadow="2"
     inkscape:pageopacity="0.0"
     inkscape:pagecheckerboard="0"
     inkscape:document-units="pt"
     showgrid="false"
     inkscape:zoom="10.21875"
     inkscape:cx="31.95107"
     inkscape:cy="32"
     inkscape:window-width="1600"
     inkscape:window-height="836"
     inkscape:window-x="0"
     inkscape:window-y="0"
     inkscape:window-maximized="1"
     inkscape:current-layer="svg11" />
  <linearGradient
     id="_lgradient_44"
     x1="-0.014458464773922156"
     y1="0.009839246119734024"
     x2="1.0164565923220248"
     y2="1.0722930524759795"
     gradientTransform="matrix(21.758672,0,0,22.011681,13.120663,12.994153)"
     gradientUnits="userSpaceOnUse">
    <stop
       offset="1.3043478260869565%"
       stop-opacity="1"
       style="stop-color:rgb(254,172,94)"
       id="stop2" />
    <stop
       offset="53.04347826086957%"
       stop-opacity="1"
       style="stop-color:rgb(199,121,208)"
       id="stop4" />
    <stop
       offset="99.56521739130434%"
       stop-opacity="1"
       style="stop-color:rgb(75,192,200)"
       id="stop6" />
  </linearGradient>
  <rect
     x="-46.783188"
     y="1.2253767"
     height="45.80014"
     rx="6.1837621"
     shape-rendering="crispEdges"
     id="rect5-6-7-3"
     ry="6.8055277"
     transform="matrix(0.00524063,-0.99998627,0.99998801,0.00489691,0,0)"
     style="isolation:isolate;fill:#ff6f00;fill-opacity:0.134703;stroke:url(#linearGradient872);stroke-width:2.0301;stroke-miterlimit:4;stroke-dasharray:none;stroke-opacity:1"
     width="45.801998" />
  <rect
     x="-15.686804"
     y="17.260084"
     height="33.345856"
     rx="6.7920032"
     shape-rendering="crispEdges"
     id="rect5-6-6-6-6"
     style="isolation:isolate;fill:#ff6f00;fill-opacity:0.134703;stroke:url(#linearGradient15);stroke-width:1.67233;stroke-miterlimit:4;stroke-dasharray:none;stroke-opacity:1"
     ry="7.4743071"
     transform="matrix(0.72446484,-0.68931175,0.68622417,0.72739012,0,0)"
     width="33.338203" />
  <path
     style="color:#000000;fill:url(#linearGradient862);fill-rule:evenodd;-inkscape-stroke:none"
     d="m 14.638672,12.494141 c -1.108493,0 -2.017578,0.909085 -2.017578,2.017578 v 18.722656 c 0,1.108492 0.909086,2.017578 2.017578,2.017578 h 1.771484 c 0.689513,0 1.257813,-0.568301 1.257813,-1.257812 0,-0.689512 -0.568301,-1.259766 -1.257813,-1.259766 h -1.265625 c -0.0088,0 -0.0059,0.0029 -0.0059,-0.0059 V 15.017578 c 0,-0.0088 -0.0029,-0.0059 0.0059,-0.0059 h 18.976563 c 0.689512,0 1.257812,-0.568301 1.257812,-1.257813 0,-0.689512 -0.5683,-1.259765 -1.257812,-1.259765 z m 0,1 h 19.482422 c 0.148449,0 0.257812,0.111316 0.257812,0.259765 0,0.148449 -0.109363,0.257813 -0.257812,0.257813 H 15.144531 c -0.549851,0 -1.005859,0.456008 -1.005859,1.005859 v 17.710938 c 0,0.549851 0.456008,1.005859 1.005859,1.005859 h 1.265625 c 0.148452,0 0.257813,0.111316 0.257813,0.259766 0,0.148448 -0.109362,0.257812 -0.257813,0.257812 h -1.771484 c -0.56743,0 -1.017578,-0.450149 -1.017578,-1.017578 V 14.511719 c 0,-0.56743 0.450148,-1.017578 1.017578,-1.017578 z m 19.482422,2.542968 c -0.689512,0 -1.259766,0.568301 -1.259766,1.257813 v 15.433594 c 0,0.0088 0.0029,0.0059 -0.0059,0.0059 h -5.820313 c -0.689511,0 -1.257812,0.570254 -1.257812,1.259766 0,0.689511 0.568301,1.257812 1.257812,1.257812 h 6.326172 c 1.108492,0 2.017578,-0.909086 2.017578,-2.017578 V 17.294922 c 0,-0.689513 -0.568301,-1.257813 -1.257812,-1.257813 z m 0,1 c 0.14845,0 0.257812,0.109362 0.257812,0.257813 v 15.939453 c 0,0.567429 -0.450148,1.017578 -1.017578,1.017578 h -6.326172 c -0.148447,0 -0.257812,-0.109365 -0.257812,-0.257812 0,-0.148449 0.109364,-0.259766 0.257812,-0.259766 h 5.820313 c 0.549851,0 1.005859,-0.456008 1.005859,-1.005859 V 17.294922 c 0,-0.148452 0.111316,-0.257813 0.259766,-0.257813 z m -12.300782,1.507813 -4.898437,9.21875 c -0.10831,0.205406 -0.149755,0.444409 -0.107422,0.679687 1.03e-4,6.01e-4 -1.03e-4,0.0014 0,0.002 0.04174,0.241962 0.164045,0.449536 0.333984,0.603516 l 0.0039,0.002 0.002,0.002 c 0.376299,0.33149 0.727968,0.692825 1.052734,1.074219 0.247237,0.293864 0.473056,0.606345 0.677735,0.935547 0.176893,0.288679 0.330671,0.598735 0.458984,0.917969 0.175968,0.44849 0.219752,0.930221 0.257812,1.408203 l -0.363281,0.002 c -0.57805,0.0019 -1.053682,0.483193 -1.052734,1.060547 0.0019,0.579267 0.484535,1.055635 1.0625,1.054687 l 4.853515,-0.02148 c 0.578051,-0.0019 1.054637,-0.482812 1.052735,-1.060547 -0.001,-0.579724 -0.484534,-1.055635 -1.0625,-1.054687 l -0.330078,0.002 c 0.0154,-0.256354 0.01682,-0.513944 0.07422,-0.765625 h -0.002 c 0.09503,-0.410261 0.239067,-0.809477 0.427735,-1.183594 v -0.002 c 0.212471,-0.425412 0.473503,-0.827731 0.771484,-1.205078 0.346496,-0.437578 0.730964,-0.846777 1.146484,-1.22461 l 0.002,-0.002 0.002,-0.002 c 0.172022,-0.159455 0.283238,-0.371045 0.322265,-0.603516 0.04042,-0.232625 5.49e-4,-0.476539 -0.109375,-0.679687 l -1.640625,-3.023438 c -0.276598,-0.507573 -0.926024,-0.697521 -1.433593,-0.421875 -0.507573,0.276598 -0.699473,0.926026 -0.423829,1.433594 l 1.267579,2.333985 c -0.273116,0.284006 -0.5471,0.569078 -0.791016,0.876953 -0.38629,0.487032 -0.722417,1.011611 -1.001953,1.566406 v 0.002 c -0.266287,0.528771 -0.465774,1.087688 -0.597656,1.664063 h -0.002 c -0.07921,0.34677 -0.07737,0.699415 -0.101562,1.050781 -0.05729,-0.67263 -0.113698,-1.349795 -0.363281,-1.980469 h 0.002 c -0.171102,-0.434499 -0.380321,-0.852797 -0.626953,-1.251953 -0.258022,-0.420956 -0.54636,-0.817383 -0.861328,-1.191406 l -0.002,-0.002 C 19.611366,28.514612 19.382854,28.28749 19.15625,28.058594 L 20.447266,25.5625 20.5,26.634766 c 0.01436,0.459351 0.362149,0.77474 0.78125,0.904296 -0.355193,0.194452 -0.627516,0.517785 -0.59375,0.94336 v 0.002 c 0.04657,0.575933 0.560335,1.014482 1.136719,0.96875 0.576446,-0.04566 1.016362,-0.560305 0.970703,-1.136719 -0.03569,-0.441438 -0.377734,-0.729958 -0.78125,-0.853515 0.342993,-0.185345 0.61265,-0.486084 0.597656,-0.898438 v -0.01563 z m -0.669921,3.388672 0.0078,0.07617 -3.224609,6.236328 0.271484,0.259765 c 0.299901,0.285343 0.584304,0.586482 0.853516,0.902344 0.283467,0.336819 0.543126,0.692613 0.773437,1.068359 v 0.002 c 0.214853,0.347723 0.397163,0.713566 0.546875,1.09375 0.282712,0.714386 0.418978,1.4782 0.41211,2.248046 l -0.117188,0.378907 0.0078,-0.353516 v -0.002 c 0.01108,-0.762823 -0.128308,-1.520123 -0.40625,-2.228516 l -0.002,-0.002 v -0.002 C 20.125113,31.2416 19.946727,30.880105 19.736328,30.537109 l -0.002,-0.002 c -0.229203,-0.368648 -0.484038,-0.722455 -0.763672,-1.054687 l -0.002,-0.002 c -0.353118,-0.414691 -0.735921,-0.808109 -1.148438,-1.171875 l -0.0039,-0.0039 c -0.0097,-0.01075 -0.01666,-0.02392 -0.01758,-0.0293 v -0.002 -0.0039 c -0.0014,-0.0077 -3.67e-4,-0.0216 0.0078,-0.03711 z m 0.238281,2.410156 0.220703,2.259766 c -1.88e-4,0.03166 -0.01685,0.05344 -0.05273,0.05469 -0.03754,0.0013 -0.05551,-0.0185 -0.05664,-0.05469 l -0.002,-0.0039 z m 2.412109,0.791016 c 0.03186,-0.01628 0.05868,-0.0087 0.07617,0.02344 l 1.640625,3.021484 c 0.0082,0.01511 0.0086,0.01637 0.0059,0.03125 l -0.002,0.0039 v 0.0039 c -0.0019,0.01137 -0.01013,0.0263 -0.01758,0.0332 l 0.0039,-0.002 c -0.454826,0.413574 -0.876658,0.862404 -1.257812,1.34375 -0.336562,0.426204 -0.636835,0.88836 -0.882813,1.380859 -0.225694,0.448004 -0.393613,0.921672 -0.505859,1.40625 l -0.002,0.002 c -0.108028,0.473647 -0.155383,0.960403 -0.138672,1.447266 l 0.01758,0.544922 1.355469,-0.0059 c 0.03937,-6.5e-5 0.06048,0.01994 0.06055,0.05664 1.24e-4,0.03758 -0.0214,0.05848 -0.05664,0.05859 l -4.851562,0.02148 c -0.03937,6.5e-5 -0.06043,-0.02255 -0.06055,-0.05859 6.5e-4,-0.03765 0.02201,-0.05653 0.05664,-0.05664 l 1.375,-0.0059 h 0.05273 L 22.625,34.375 22.605469,33.832031 c -0.0134,-0.4966 0.03396,-0.990531 0.144531,-1.474609 0.114041,-0.498402 0.286018,-0.981566 0.515625,-1.4375 0.249352,-0.494889 0.549833,-0.962155 0.894531,-1.396485 0.297774,-0.375854 0.620525,-0.734697 0.962891,-1.068359 l 0.269531,-0.265625 -1.615234,-2.976562 c -0.01784,-0.03286 -0.0094,-0.06022 0.02344,-0.07813 z m -2.064453,3.208984 c 0.03533,-0.0029 0.0564,0.01545 0.06055,0.05078 0.0029,0.03688 -0.01394,0.05958 -0.05078,0.0625 h -0.002 c -0.03589,0.0028 -0.05753,-0.01538 -0.06055,-0.05273 -0.0028,-0.03589 0.01589,-0.05763 0.05273,-0.06055 z"
     id="path9" />
</svg>
