<?xml version="1.0" encoding="UTF-8" standalone="no"?>
<!-- Generator: Gravit.io -->

<svg
   style="isolation:isolate"
   viewBox="0 0 48 48"
   width="48pt"
   height="48pt"
   version="1.1"
   id="svg9"
   sodipodi:docname="wps-office-etmain.svg"
   inkscape:version="1.1.2 (0a00cf5339, 2022-02-04)"
   xmlns:inkscape="http://www.inkscape.org/namespaces/inkscape"
   xmlns:sodipodi="http://sodipodi.sourceforge.net/DTD/sodipodi-0.dtd"
   xmlns:xlink="http://www.w3.org/1999/xlink"
   xmlns="http://www.w3.org/2000/svg"
   xmlns:svg="http://www.w3.org/2000/svg">
  <defs
     id="defs13">
    <linearGradient
       inkscape:collect="always"
       xlink:href="#_lgradient_32"
       id="linearGradient872"
       x1="-12.025727"
       y1="6.1170783"
       x2="-0.085100174"
       y2="6.1170783"
       gradientUnits="userSpaceOnUse"
       gradientTransform="matrix(3.8358211,0,0,3.8371386,-0.00544341,-0.00268054)" />
    <linearGradient
       inkscape:collect="always"
       xlink:href="#_lgradient_32"
       id="linearGradient15"
       x1="-9.6850061"
       y1="45.161198"
       x2="11.98815"
       y2="21.735205"
       gradientUnits="userSpaceOnUse"
       gradientTransform="matrix(1.1147442,0,0,1.1150348,-0.01237238,-3.3277956)" />
    <linearGradient
       inkscape:collect="always"
       xlink:href="#_lgradient_32"
       id="linearGradient1299"
       x1="13.402087"
       y1="23.995008"
       x2="34.597916"
       y2="23.995008"
       gradientUnits="userSpaceOnUse" />
  </defs>
  <sodipodi:namedview
     id="namedview11"
     pagecolor="#ffffff"
     bordercolor="#666666"
     borderopacity="1.0"
     inkscape:pageshadow="2"
     inkscape:pageopacity="0.0"
     inkscape:pagecheckerboard="0"
     inkscape:document-units="pt"
     showgrid="false"
     inkscape:zoom="10.21875"
     inkscape:cx="31.95107"
     inkscape:cy="37.675841"
     inkscape:window-width="1600"
     inkscape:window-height="836"
     inkscape:window-x="0"
     inkscape:window-y="0"
     inkscape:window-maximized="1"
     inkscape:current-layer="svg9" />
  <linearGradient
     id="_lgradient_32"
     x1="0"
     y1="0.5"
     x2="1"
     y2="0.5"
     gradientTransform="matrix(37.060028,0,0,37.060028,5.4699862,5.4693981)"
     gradientUnits="userSpaceOnUse">
    <stop
       offset="0%"
       stop-opacity="1"
       style="stop-color:rgb(67,233,123)"
       id="stop2" />
    <stop
       offset="97.82608695652173%"
       stop-opacity="1"
       style="stop-color:rgb(56,249,215)"
       id="stop4" />
  </linearGradient>
  <rect
     x="-46.783188"
     y="1.2253767"
     height="45.80014"
     rx="6.1837621"
     shape-rendering="crispEdges"
     id="rect5-6-7-3"
     ry="6.8055277"
     transform="matrix(0.00524063,-0.99998627,0.99998801,0.00489691,0,0)"
     style="isolation:isolate;fill:#00ffba;fill-opacity:0.13470298;stroke:url(#linearGradient872);stroke-width:2.0301;stroke-miterlimit:4;stroke-dasharray:none;stroke-opacity:1"
     width="45.801998" />
  <rect
     x="-15.686804"
     y="17.260084"
     height="33.345856"
     rx="6.7920032"
     shape-rendering="crispEdges"
     id="rect5-6-6-6-6"
     style="isolation:isolate;fill:#00ffba;fill-opacity:0.13470298;stroke:url(#linearGradient15);stroke-width:1.67233;stroke-miterlimit:4;stroke-dasharray:none;stroke-opacity:1"
     ry="7.4743071"
     transform="matrix(0.72446484,-0.68931175,0.68622417,0.72739012,0,0)"
     width="33.338203" />
  <path
     style="color:#000000;fill:url(#linearGradient1299);fill-rule:evenodd;-inkscape-stroke:none"
     d="m 20.425781,12.019531 c -0.38628,0 -0.774096,0.03927 -1.152344,0.105469 -0.822771,0.12149 -1.621378,0.353444 -2.380859,0.695313 -1.080248,0.468426 -2.01354,1.221544 -2.724609,2.160156 l -0.0039,0.0039 -0.0039,0.0059 c -0.409999,0.572091 -0.725513,1.203023 -0.935547,1.88086 v 0.0039 l -0.002,0.0039 c -0.215106,0.729489 -0.328915,1.48428 -0.320312,2.257813 -0.0088,0.766215 0.104039,1.527915 0.320312,2.251953 l 0.002,0.0039 v 0.002 c 0.209642,0.676569 0.525625,1.316956 0.939454,1.884766 l 0.002,0.0039 0.002,0.0039 c 0.711069,0.938613 1.643219,1.689253 2.720703,2.166016 l 0.002,0.002 c 0.76336,0.335134 1.563887,0.567218 2.390625,0.697266 h 0.002 0.002 c 0.370274,0.05554 0.751178,0.09408 1.128906,0.103515 h -0.160156 l 0.0098,0.0078 h 7.173828 0.002 0.07227 c 0.163816,0 0.326912,0.01488 0.492187,0.04492 l 0.0098,0.002 0.0078,0.002 c 0.428988,0.06355 0.843518,0.183102 1.222657,0.359375 0.950945,0.511878 1.343057,1.329613 1.322265,2.171875 -0.02075,0.84052 -0.480892,1.689846 -1.335937,2.193359 -0.375731,0.173025 -0.784782,0.292624 -1.208985,0.355469 l -0.0098,0.002 -0.01172,0.002 c -0.152319,0.02902 -0.317134,0.04492 -0.470703,0.04492 h -12.34375 c -0.598235,0 -1.177425,0.238117 -1.599609,0.669922 -0.416941,0.418569 -0.666016,0.989248 -0.666016,1.59375 0,0.605396 0.249908,1.176968 0.667969,1.595703 0.42207,0.430953 1.000043,0.669922 1.597656,0.669922 h 12.353515 0.04102 0.0059 c 0.364996,-0.0091 0.745443,-0.0377 1.126954,-0.103516 0.0014,-2.08e-4 0.0025,-0.0017 0.0039,-0.002 0.827692,-0.121297 1.630829,-0.353054 2.394531,-0.697265 1.075228,-0.475765 2.008655,-1.218299 2.720703,-2.158203 l 0.0039,-0.0039 0.0039,-0.0059 c 0.411531,-0.574229 0.723951,-1.211863 0.933593,-1.878906 l 0.002,-0.0059 0.002,-0.0039 c 0.215615,-0.731217 0.32915,-1.493521 0.320312,-2.259766 0.0086,-0.765565 -0.104874,-1.527203 -0.320312,-2.257812 l -0.002,-0.0039 -0.002,-0.0059 c -0.209642,-0.667043 -0.522061,-1.304677 -0.933593,-1.878906 l -0.0039,-0.0059 -0.0039,-0.0039 c -0.712048,-0.939904 -1.645475,-1.682438 -2.720703,-2.158203 -0.763702,-0.34421 -1.566838,-0.575969 -2.394531,-0.697265 -0.0014,-2.38e-4 -0.0025,-0.0017 -0.0039,-0.002 -0.381546,-0.06583 -0.762005,-0.0944 -1.126954,-0.103516 h -0.0059 -6.919922 c -0.02652,-0.0024 -0.07926,-0.0071 -0.162109,-0.0078 h -0.0098 c -0.145289,-0.0039 -0.323377,-0.03649 -0.517578,-0.05859 -0.415461,-0.05386 -0.831438,-0.179455 -1.21875,-0.351563 -0.731689,-0.38204 -1.114565,-0.942042 -1.255859,-1.595703 -0.139304,-0.64445 -0.0095,-1.38734 0.347656,-2.072266 0.234653,-0.292295 0.535617,-0.536921 0.886719,-0.691406 h 0.002 l 0.002,-0.002 c 0.392102,-0.176046 0.814807,-0.30278 1.236328,-0.357422 l 0.01367,-0.002 L 20,16.59375 c 0.152353,-0.02902 0.317152,-0.04492 0.470703,-0.04492 h 12.34375 c 0.598235,0 1.177425,-0.238116 1.599609,-0.669922 0.416941,-0.418568 0.666016,-0.989248 0.666016,-1.59375 0,-0.606026 -0.248746,-1.177027 -0.662109,-1.601562 l -0.002,-0.0039 -0.0039,-0.002 C 33.990074,12.255699 33.414191,12.019531 32.814453,12.019531 H 20.460937 Z m 0,1 h 0.03516 12.353516 c 0.334699,0 0.657866,0.133477 0.888672,0.363282 0.238454,0.245864 0.376953,0.573905 0.376953,0.902343 0,0.329298 -0.140888,0.656514 -0.375,0.890625 l -0.002,0.002 -0.002,0.002 c -0.230506,0.236736 -0.551132,0.36914 -0.886719,0.36914 h -12.34375 c -0.212522,0 -0.43065,0.02072 -0.644531,0.06055 -0.524214,0.06975 -1.031302,0.222482 -1.498047,0.431641 -0.516035,0.227055 -0.972034,0.578616 -1.316406,1.027343 l -0.02539,0.03125 -0.01758,0.03711 c -0.472488,0.88068 -0.650868,1.871079 -0.451172,2.794922 0.199697,0.923842 0.798935,1.770697 1.78125,2.279296 l 0.01367,0.0059 0.01172,0.0059 c 0.472632,0.212203 0.986132,0.368605 1.517578,0.4375 h 0.0039 0.0039 c 0.143094,0.01598 0.368054,0.06119 0.628907,0.06641 h 0.0039 0.0059 c 0.0079,0 0.132813,0.0059 0.132813,0.0059 l 0.01953,0.002 h 6.919922 c 0.336506,0.0084 0.674446,0.03389 0.99414,0.08984 l 0.0078,0.002 h 0.0059 c 0.740186,0.108116 1.453712,0.315742 2.134766,0.623047 h 0.002 l 0.002,0.002 c 0.917631,0.406031 1.711091,1.040152 2.322266,1.845703 0.343844,0.481761 0.611507,1.021891 0.789062,1.585937 2.63e-4,8.34e-4 0.0017,0.0011 0.002,0.002 0.188231,0.641011 0.285453,1.302335 0.277344,1.960937 v 0.0059 0.0078 c 0.0081,0.658579 -0.08911,1.319914 -0.277344,1.960937 -2.09e-4,7.15e-4 -0.0017,0.0012 -0.002,0.002 -0.177555,0.564046 -0.445218,1.104176 -0.789062,1.585937 -0.611176,0.805551 -1.404636,1.439672 -2.322266,1.845703 l -0.002,0.002 h -0.002 c -0.681054,0.307305 -1.394579,0.51493 -2.134766,0.623047 h -0.0059 l -0.0078,0.002 c -0.31973,0.05595 -0.657681,0.08145 -0.99414,0.08984 h -0.02148 -12.353515 c -0.335588,0 -0.656213,-0.132405 -0.886719,-0.369141 l -0.002,-0.0039 -0.002,-0.002 c -0.234113,-0.234112 -0.375,-0.561328 -0.375,-0.890625 0,-0.329298 0.140888,-0.656514 0.375,-0.890625 l 0.002,-0.002 0.002,-0.002 c 0.230506,-0.236736 0.551132,-0.369141 0.886719,-0.369141 h 12.34375 c 0.213842,0 0.433233,-0.02215 0.648437,-0.0625 0.51569,-0.0773 1.026844,-0.218515 1.50586,-0.443359 l 0.01953,-0.0098 0.01953,-0.01172 c 1.160667,-0.673993 1.812348,-1.851959 1.841797,-3.044921 0.02945,-1.192962 -0.591513,-2.411792 -1.859375,-3.087891 l -0.0098,-0.0059 -0.01172,-0.0059 c -0.481639,-0.226076 -0.995102,-0.370279 -1.513672,-0.447265 h -0.002 c -0.182815,-0.03246 -0.366861,-0.04357 -0.550782,-0.04883 l -0.03125,-0.0098 h -0.07422 -6.833985 l -0.0098,-0.0078 h -0.228516 c -0.327543,-0.0082 -0.668897,-0.04162 -1.003906,-0.0918 h -0.002 c -0.742606,-0.116974 -1.457973,-0.325476 -2.140625,-0.625 h -0.002 c -0.915259,-0.405278 -1.710302,-1.04648 -2.322266,-1.853515 -5.65e-4,-7.46e-4 -0.0014,-0.0012 -0.002,-0.002 -0.341873,-0.470444 -0.607259,-1.008151 -0.785156,-1.580078 v -0.002 c -4.4e-4,-0.0014 -0.0015,-0.0025 -0.002,-0.0039 -0.187938,-0.631236 -0.285461,-1.29389 -0.277344,-1.953125 v -0.0078 -0.0059 c -0.0082,-0.670165 0.0896,-1.322852 0.279297,-1.966797 1.84e-4,-6.26e-4 -1.85e-4,-0.0013 0,-0.002 0.177154,-0.569503 0.44442,-1.097304 0.789062,-1.580078 0.612151,-0.806857 1.405743,-1.449966 2.318359,-1.845703 h 0.0039 l 0.0039,-0.002 c 0.681054,-0.307304 1.394579,-0.514929 2.134766,-0.623047 h 0.0059 l 0.0078,-0.002 c 0.327656,-0.05734 0.660846,-0.08984 0.980469,-0.08984 z"
     id="path7" />
</svg>
