<?xml version="1.0" encoding="UTF-8" standalone="no"?>
<!-- Generator: Gravit.io -->

<svg
   style="isolation:isolate"
   viewBox="0 0 48 48"
   width="48pt"
   height="48pt"
   version="1.1"
   id="svg9"
   sodipodi:docname="wps-office-wpsmain.svg"
   inkscape:version="1.1.2 (0a00cf5339, 2022-02-04)"
   xmlns:inkscape="http://www.inkscape.org/namespaces/inkscape"
   xmlns:sodipodi="http://sodipodi.sourceforge.net/DTD/sodipodi-0.dtd"
   xmlns:xlink="http://www.w3.org/1999/xlink"
   xmlns="http://www.w3.org/2000/svg"
   xmlns:svg="http://www.w3.org/2000/svg">
  <defs
     id="defs13">
    <linearGradient
       inkscape:collect="always"
       xlink:href="#_lgradient_33"
       id="linearGradient872"
       x1="-12.025727"
       y1="6.1170783"
       x2="-0.085100174"
       y2="6.1170783"
       gradientUnits="userSpaceOnUse"
       gradientTransform="matrix(3.8358211,0,0,3.8371386,-0.00544341,-0.00268054)" />
    <linearGradient
       inkscape:collect="always"
       xlink:href="#_lgradient_33"
       id="linearGradient15"
       x1="-9.6850061"
       y1="45.161198"
       x2="11.98815"
       y2="21.735205"
       gradientUnits="userSpaceOnUse"
       gradientTransform="matrix(1.1147442,0,0,1.1150348,-0.01237238,-3.3277956)" />
    <linearGradient
       inkscape:collect="always"
       xlink:href="#_lgradient_33"
       id="linearGradient1121"
       x1="11"
       y1="24.000017"
       x2="37"
       y2="24.000017"
       gradientUnits="userSpaceOnUse" />
  </defs>
  <sodipodi:namedview
     id="namedview11"
     pagecolor="#ffffff"
     bordercolor="#666666"
     borderopacity="1.0"
     inkscape:pageshadow="2"
     inkscape:pageopacity="0.0"
     inkscape:pagecheckerboard="0"
     inkscape:document-units="pt"
     showgrid="false"
     inkscape:zoom="10.21875"
     inkscape:cx="31.95107"
     inkscape:cy="32"
     inkscape:window-width="1600"
     inkscape:window-height="836"
     inkscape:window-x="0"
     inkscape:window-y="0"
     inkscape:window-maximized="1"
     inkscape:current-layer="svg9" />
  <linearGradient
     id="_lgradient_33"
     x1="0"
     y1="0.5"
     x2="0.9074880558539661"
     y2="0.9200778838291643"
     gradientTransform="matrix(42,0,0,42,3,3)"
     gradientUnits="userSpaceOnUse">
    <stop
       offset="0%"
       stop-opacity="1"
       style="stop-color:rgb(0,196,255)"
       id="stop2" />
    <stop
       offset="83.88839793817618%"
       stop-opacity="1"
       style="stop-color:rgb(0,114,255)"
       id="stop4" />
  </linearGradient>
  <rect
     x="-46.783188"
     y="1.2253767"
     height="45.80014"
     rx="6.1837621"
     shape-rendering="crispEdges"
     id="rect5-6-7-3"
     ry="6.8055277"
     transform="matrix(0.00524063,-0.99998627,0.99998801,0.00489691,0,0)"
     style="isolation:isolate;fill:#00b9ff;fill-opacity:0.13470298;stroke:url(#linearGradient872);stroke-width:2.0301;stroke-miterlimit:4;stroke-dasharray:none;stroke-opacity:1"
     width="45.801998" />
  <rect
     x="-15.686804"
     y="17.260084"
     height="33.345856"
     rx="6.7920032"
     shape-rendering="crispEdges"
     id="rect5-6-6-6-6"
     style="isolation:isolate;fill:#00b9ff;fill-opacity:0.13470298;stroke:url(#linearGradient15);stroke-width:1.67233;stroke-miterlimit:4;stroke-dasharray:none;stroke-opacity:1"
     ry="7.4743071"
     transform="matrix(0.72446484,-0.68931175,0.68622417,0.72739012,0,0)"
     width="33.338203" />
  <path
     style="color:#000000;fill:url(#linearGradient1121);fill-rule:evenodd;-inkscape-stroke:none"
     d="m 13.285156,13.628906 c -0.602477,0 -1.183782,0.240198 -1.609375,0.673828 C 11.241078,14.728914 11,15.310082 11,15.914063 V 31.09375 c 0,0.147801 0.0102,0.308709 0.04883,0.476562 3.13e-4,0.0014 -3.17e-4,0.0025 0,0.0039 0.09051,0.410341 0.243324,0.804981 0.457031,1.164062 0.570601,0.997736 1.625785,1.62219 2.775391,1.632813 h 0.0059 0.0059 c 0.658326,-0.01038 1.308575,-0.195918 1.876953,-0.546875 0.537994,-0.317115 1.02093,-0.702838 1.451172,-1.152344 l 0.01953,-0.02148 0.01758,-0.02344 c -0.0014,0.0019 0.0207,-0.02327 0.03711,-0.03906 l 0.02148,-0.01953 L 24,24.882812 l 6.283203,7.685547 0.02148,0.01953 c 0.0164,0.0158 0.03855,0.04099 0.03711,0.03906 l 0.01758,0.02344 0.01953,0.02148 c 0.430242,0.449506 0.913178,0.835229 1.451172,1.152344 0.568378,0.350957 1.218627,0.536498 1.876953,0.546875 h 0.0059 0.0059 c 1.149605,-0.01062 2.203787,-0.634689 2.773437,-1.632813 0.215161,-0.359613 0.368472,-0.753711 0.458985,-1.164062 v -0.0039 C 36.989798,31.402459 37,31.241551 37,31.09375 V 15.914063 c 0,-0.602037 -0.241127,-1.183045 -0.675781,-1.609375 -0.425641,-0.433987 -1.006637,-0.675782 -1.609375,-0.675782 -0.603361,0 -1.185264,0.241925 -1.611328,0.675782 -0.434192,0.426405 -0.673829,1.00672 -0.673829,1.609375 V 27.960937 L 24,17.662109 15.570313,27.960937 V 15.914063 c 0,-0.602655 -0.239637,-1.18297 -0.673829,-1.609375 -0.426064,-0.433857 -1.007967,-0.675782 -1.611328,-0.675782 z m 0,1 c 0.340512,0 0.6668,0.135717 0.902344,0.376953 l 0.0039,0.0039 0.0039,0.0039 c 0.240885,0.2352 0.374999,0.559174 0.375,0.900391 V 30.761719 L 15.457031,29.677734 24,19.240234 33.429687,30.761719 V 15.914063 c 0,-0.341217 0.134115,-0.665191 0.375,-0.900391 l 0.0039,-0.0039 0.0039,-0.0039 c 0.235544,-0.241236 0.561832,-0.376953 0.902344,-0.376953 0.340512,0 0.666527,0.134759 0.90039,0.375 l 0.0039,0.0059 0.0059,0.0039 C 35.866558,15.248836 36,15.572846 36,15.914063 V 31.09375 c 0,0.101 -0.0089,0.189303 -0.02344,0.251953 v 0.0039 l -0.002,0.0039 c -0.06925,0.316803 -0.184028,0.614286 -0.341797,0.876953 l -0.002,0.0039 -0.0039,0.0059 c -0.39364,0.692545 -1.116945,1.118639 -1.910156,1.128907 -0.480076,-0.0087 -0.954287,-0.142049 -1.365235,-0.396485 l -0.0039,-0.0039 -0.0059,-0.002 c -0.459537,-0.270208 -0.868106,-0.597538 -1.240235,-0.986328 -0.0224,-0.02633 -0.04347,-0.04918 -0.0625,-0.06836 L 24,23.304687 16.960937,31.912109 c -0.01903,0.01918 -0.0401,0.04203 -0.0625,0.06836 -0.372128,0.38879 -0.780697,0.71612 -1.240234,0.986328 l -0.0059,0.002 -0.0039,0.0039 c -0.410948,0.254436 -0.885159,0.387811 -1.365235,0.396485 -0.793212,-0.01027 -1.51743,-0.43597 -1.912109,-1.128907 l -0.002,-0.0059 -0.002,-0.0039 c -0.15725,-0.263203 -0.272551,-0.56015 -0.341797,-0.876953 l -0.002,-0.0039 v -0.0039 C 12.008855,31.283053 12,31.19475 12,31.09375 V 15.914063 c 0,-0.340512 0.135716,-0.664847 0.376953,-0.900391 l 0.0039,-0.0039 0.0039,-0.0059 c 0.233863,-0.240241 0.559878,-0.375 0.90039,-0.375 z"
     id="path7" />
</svg>
