<?xml version="1.0" encoding="UTF-8" standalone="no"?>
<!-- Generator: Gravit.io -->

<svg
   style="isolation:isolate"
   viewBox="0 0 48 48"
   width="48pt"
   height="48pt"
   version="1.1"
   id="svg9"
   sodipodi:docname="xchat.svg"
   inkscape:version="1.1.2 (0a00cf5339, 2022-02-04)"
   xmlns:inkscape="http://www.inkscape.org/namespaces/inkscape"
   xmlns:sodipodi="http://sodipodi.sourceforge.net/DTD/sodipodi-0.dtd"
   xmlns:xlink="http://www.w3.org/1999/xlink"
   xmlns="http://www.w3.org/2000/svg"
   xmlns:svg="http://www.w3.org/2000/svg">
  <defs
     id="defs13">
    <linearGradient
       inkscape:collect="always"
       xlink:href="#_lgradient_11"
       id="linearGradient872"
       x1="-12.025727"
       y1="6.1170783"
       x2="-0.085100174"
       y2="6.1170783"
       gradientUnits="userSpaceOnUse"
       gradientTransform="matrix(3.8358211,0,0,3.8371386,-0.00544341,-0.00268054)" />
    <linearGradient
       inkscape:collect="always"
       xlink:href="#_lgradient_11"
       id="linearGradient15"
       x1="-9.6850061"
       y1="45.161198"
       x2="11.98815"
       y2="21.735205"
       gradientUnits="userSpaceOnUse"
       gradientTransform="matrix(1.1147442,0,0,1.1150348,-0.01237238,-3.3277956)" />
    <linearGradient
       inkscape:collect="always"
       xlink:href="#_lgradient_11"
       id="linearGradient1220"
       x1="8.9623375"
       y1="24"
       x2="39.037663"
       y2="24"
       gradientUnits="userSpaceOnUse" />
  </defs>
  <sodipodi:namedview
     id="namedview11"
     pagecolor="#ffffff"
     bordercolor="#666666"
     borderopacity="1.0"
     inkscape:pageshadow="2"
     inkscape:pageopacity="0.0"
     inkscape:pagecheckerboard="0"
     inkscape:document-units="pt"
     showgrid="false"
     inkscape:zoom="10.21875"
     inkscape:cx="31.95107"
     inkscape:cy="32"
     inkscape:window-width="1600"
     inkscape:window-height="836"
     inkscape:window-x="0"
     inkscape:window-y="0"
     inkscape:window-maximized="1"
     inkscape:current-layer="svg9" />
  <linearGradient
     id="_lgradient_11"
     x1="0"
     y1="0.5"
     x2="1"
     y2="0.5"
     gradientTransform="matrix(30.075471,0,0,27.535637,8.9623473,10.232182)"
     gradientUnits="userSpaceOnUse">
    <stop
       offset="0%"
       stop-opacity="1"
       style="stop-color:rgb(255,229,59)"
       id="stop2" />
    <stop
       offset="98.69565217391305%"
       stop-opacity="1"
       style="stop-color:rgb(255,0,91)"
       id="stop4" />
  </linearGradient>
  <rect
     x="-46.783188"
     y="1.2253767"
     height="45.80014"
     rx="6.1837621"
     shape-rendering="crispEdges"
     id="rect5-6-7-3"
     ry="6.8055277"
     transform="matrix(0.00524063,-0.99998627,0.99998801,0.00489691,0,0)"
     style="isolation:isolate;fill:#ff0064;fill-opacity:0.13470298;stroke:url(#linearGradient872);stroke-width:2.0301;stroke-miterlimit:4;stroke-dasharray:none;stroke-opacity:1"
     width="45.801998" />
  <rect
     x="-15.686804"
     y="17.260084"
     height="33.345856"
     rx="6.7920032"
     shape-rendering="crispEdges"
     id="rect5-6-6-6-6"
     style="isolation:isolate;fill:#ff0064;fill-opacity:0.13470298;stroke:url(#linearGradient15);stroke-width:1.67233;stroke-miterlimit:4;stroke-dasharray:none;stroke-opacity:1"
     ry="7.4743071"
     transform="matrix(0.72446484,-0.68931175,0.68622417,0.72739012,0,0)"
     width="33.338203" />
  <path
     style="color:#000000;fill:url(#linearGradient1220);fill-rule:evenodd;-inkscape-stroke:none"
     d="m 20.394531,9.7324219 c -0.994324,0 -1.810547,0.8162231 -1.810547,1.8105471 0,0.994324 0.816223,1.8125 1.810547,1.8125 h 9.677735 c 0.119747,0 0.448498,0.201901 0.501953,0.308594 l 5.292968,10.576171 c 0.05994,0.119641 0.04709,0.557246 -0.02148,0.673828 l -4.439453,7.53711 -2.970703,-4.248047 c -0.571633,-0.814687 -1.710413,-1.015194 -2.525391,-0.443359 -0.814688,0.571632 -1.015195,1.710412 -0.443359,2.52539 l 4.634765,6.617188 c 0.382025,0.545292 0.935467,0.878663 1.517579,0.855468 0.582111,-0.02319 1.109864,-0.398793 1.447265,-0.972656 L 39.019531,26.65625 c 0.665199,-1.131391 0.720528,-2.757739 0.134766,-3.931641 L 33.679687,11.767578 C 33.086348,10.580098 31.714558,9.7324219 30.386719,9.7324219 Z m 0,1.0000001 h 9.992188 c 0.84354,0 2.021474,0.727986 2.398437,1.482422 l 5.47461,10.957031 h -0.002 c 0.38323,0.768014 0.333354,2.238796 -0.101562,2.978516 l -5.953125,10.126953 c -0.212283,0.36 -0.436332,0.473029 -0.623047,0.480468 -0.187083,0.0075 -0.419351,-0.08597 -0.660156,-0.429687 l -4.634766,-6.617188 c -0.260789,-0.371675 -0.172747,-0.871819 0.199219,-1.132812 0.371675,-0.260788 0.87182,-0.172747 1.132812,0.199219 L 30.65625,33.125 c 0.174299,0.249314 0.467264,0.440629 0.792969,0.427734 0.325705,-0.01289 0.60158,-0.226008 0.755859,-0.488281 l 4.501953,-7.642578 c 0.298564,-0.507559 0.318613,-1.102115 0.05469,-1.628906 L 31.46875,13.216797 c -0.270417,-0.539739 -0.792438,-0.861328 -1.396484,-0.861328 h -9.677735 c -0.453262,0 -0.810547,-0.359238 -0.810547,-0.8125 0,-0.453261 0.357285,-0.810547 0.810547,-0.810547 z m -4.714843,1.505859 c -0.582601,0.03836 -1.104745,0.422981 -1.431641,1.003907 L 8.9316406,22.689453 C 8.2867025,23.835569 8.2765567,25.460665 8.90625,26.615234 l 3.339844,6.121094 c 0.477815,0.870887 1.58478,1.195576 2.457031,0.720703 C 15.576444,32.982067 15.904577,31.874705 15.431641,31 l -3.271485,-6.001953 c -0.06364,-0.11691 -0.06088,-0.546686 0.0039,-0.66211 l 3.859374,-6.863281 6.175782,8.236328 c 0.401051,0.534736 0.971989,0.849176 1.558593,0.822266 0.586605,-0.02691 1.126038,-0.391537 1.476563,-0.960938 l 5.224609,-8.488281 c 0.521448,-0.848701 0.254435,-1.974051 -0.59375,-2.49414 -0.846975,-0.519346 -1.970248,-0.250837 -2.488281,0.595703 l -3.849609,6.257812 -6.298828,-8.394531 C 16.828354,12.51346 16.262288,12.199917 15.679688,12.238281 Z m 0.06445,0.996094 c 0.193969,-0.01277 0.434032,0.07684 0.685546,0.412109 l 6.345704,8.457032 c 0.184092,0.245827 0.480841,0.421185 0.800781,0.40625 0.319939,-0.01494 0.601042,-0.217208 0.761719,-0.478516 l 3.890625,-6.326172 h 0.002 c 0.234608,-0.383383 0.724444,-0.5009 1.111328,-0.263672 0.385672,0.236486 0.502731,0.728098 0.263672,1.117188 h 0.002 l -5.22461,8.486328 c -0.218544,0.355008 -0.458143,0.476523 -0.671875,0.486328 -0.213731,0.0098 -0.462921,-0.08858 -0.71289,-0.421875 l -6.242188,-8.326172 c -0.182805,-0.243556 -0.481041,-0.423673 -0.804687,-0.402344 -0.323647,0.02133 -0.59463,0.238543 -0.744141,0.503907 h -0.002 l -3.914062,6.960937 c -0.289238,0.515274 -0.29231,1.111828 -0.0098,1.630859 l 3.271484,6 c 0.215456,0.39849 0.07108,0.885514 -0.326171,1.101563 -0.39701,0.216141 -0.886387,0.07348 -1.103516,-0.322266 l -3.3378907,-6.11914 c -0.410104,-0.751943 -0.4002409,-2.211057 0.019531,-2.957032 l 5.3144535,-9.447265 c 0.205458,-0.36512 0.43103,-0.485274 0.625,-0.498047 z m 4.673828,14.316406 c -0.43527,0.162623 -0.809291,0.491046 -1.015625,0.94336 l -3.310547,7.27539 c -0.275498,0.606095 -0.278236,1.254086 0.03711,1.744141 0.315346,0.490055 0.906233,0.753906 1.572266,0.753906 h 7.939453 c 0.994324,0 1.810547,-0.816223 1.810547,-1.810547 0,-0.994324 -0.816223,-1.8125 -1.810547,-1.8125 h -5.052734 l 2.111328,-4.648437 c 0.412609,-0.904497 0.0088,-1.98586 -0.896485,-2.398438 -0.452373,-0.206361 -0.949496,-0.209497 -1.384765,-0.04687 z m 0.96875,0.955078 c 0.412448,0.187962 0.590274,0.664204 0.402343,1.076172 l -2.162109,4.759766 c -0.1261,0.276978 -0.141264,0.624352 0.03516,0.898437 0.176421,0.274086 0.500551,0.404297 0.804688,0.404297 h 5.173828 c 0.453262,0 0.810547,0.359238 0.810547,0.8125 0,0.453261 -0.357285,0.810547 -0.810547,0.810547 h -7.939453 c -0.419657,0 -0.630636,-0.136743 -0.732422,-0.294922 -0.101786,-0.158179 -0.138439,-0.407153 0.03516,-0.789062 h -0.002 L 20.3125,28.908203 c 0.187871,-0.411838 0.6625,-0.590159 1.074219,-0.402344 z"
     id="path7" />
</svg>
