<?xml version="1.0" encoding="UTF-8" standalone="no"?>
<!-- Generator: Gravit.io -->

<svg
   style="isolation:isolate"
   viewBox="0 0 48 48"
   width="48pt"
   height="48pt"
   version="1.1"
   id="svg16"
   sodipodi:docname="xfce4-session.svg"
   inkscape:version="1.1.2 (0a00cf5339, 2022-02-04)"
   xmlns:inkscape="http://www.inkscape.org/namespaces/inkscape"
   xmlns:sodipodi="http://sodipodi.sourceforge.net/DTD/sodipodi-0.dtd"
   xmlns:xlink="http://www.w3.org/1999/xlink"
   xmlns="http://www.w3.org/2000/svg"
   xmlns:svg="http://www.w3.org/2000/svg">
  <defs
     id="defs20">
    <linearGradient
       inkscape:collect="always"
       xlink:href="#_lgradient_13"
       id="linearGradient872"
       x1="-12.025727"
       y1="6.1170783"
       x2="-0.085100174"
       y2="6.1170783"
       gradientUnits="userSpaceOnUse"
       gradientTransform="matrix(3.8358211,0,0,3.8371386,-0.00544341,-0.00268054)" />
    <linearGradient
       inkscape:collect="always"
       xlink:href="#_lgradient_13"
       id="linearGradient15"
       x1="-9.6850061"
       y1="45.161198"
       x2="11.98815"
       y2="21.735205"
       gradientUnits="userSpaceOnUse"
       gradientTransform="matrix(1.1147442,0,0,1.1150348,-0.01237238,-3.3277956)" />
    <linearGradient
       inkscape:collect="always"
       xlink:href="#_lgradient_13"
       id="linearGradient885"
       x1="13.388472"
       y1="23.969009"
       x2="35.168118"
       y2="23.969009"
       gradientUnits="userSpaceOnUse" />
    <linearGradient
       inkscape:collect="always"
       xlink:href="#_lgradient_14"
       id="linearGradient915"
       x1="13.137536"
       y1="30.196486"
       x2="20.716169"
       y2="30.196486"
       gradientUnits="userSpaceOnUse" />
  </defs>
  <sodipodi:namedview
     id="namedview18"
     pagecolor="#ffffff"
     bordercolor="#666666"
     borderopacity="1.0"
     inkscape:pageshadow="2"
     inkscape:pageopacity="0.0"
     inkscape:pagecheckerboard="0"
     inkscape:document-units="pt"
     showgrid="false"
     inkscape:zoom="10.21875"
     inkscape:cx="31.95107"
     inkscape:cy="32"
     inkscape:window-width="1600"
     inkscape:window-height="836"
     inkscape:window-x="0"
     inkscape:window-y="0"
     inkscape:window-maximized="1"
     inkscape:current-layer="svg16" />
  <linearGradient
     id="_lgradient_13"
     x1="0.5015305984363674"
     y1="0.04094913008761841"
     x2="0.5010026669985528"
     y2="0.9058780462495262"
     gradientTransform="matrix(21.051392,22.586069,-22.581016,21.046845,25.043406,2.1523848)"
     gradientUnits="userSpaceOnUse">
    <stop
       offset="0%"
       stop-opacity="1"
       style="stop-color:rgb(22,181,228)"
       id="stop2" />
    <stop
       offset="98.26086956521739%"
       stop-opacity="1"
       style="stop-color:rgb(245,32,250)"
       id="stop4" />
  </linearGradient>
  <rect
     x="-46.783188"
     y="1.2253767"
     height="45.80014"
     rx="6.1837621"
     shape-rendering="crispEdges"
     id="rect5-6-7-3"
     ry="6.8055277"
     transform="matrix(0.00524063,-0.99998627,0.99998801,0.00489691,0,0)"
     style="isolation:isolate;fill:#f200ff;fill-opacity:0.13470298;stroke:url(#linearGradient872);stroke-width:2.0301;stroke-miterlimit:4;stroke-dasharray:none;stroke-opacity:1"
     width="45.801998" />
  <rect
     x="-15.686804"
     y="17.260084"
     height="33.345856"
     rx="6.7920032"
     shape-rendering="crispEdges"
     id="rect5-6-6-6-6"
     style="isolation:isolate;fill:#f200ff;fill-opacity:0.13470298;stroke:url(#linearGradient15);stroke-width:1.67233;stroke-miterlimit:4;stroke-dasharray:none;stroke-opacity:1"
     ry="7.4743071"
     transform="matrix(0.72446484,-0.68931175,0.68622417,0.72739012,0,0)"
     width="33.338203" />
  <path
     style="color:#000000;fill:url(#linearGradient885);fill-rule:evenodd;-inkscape-stroke:none"
     d="m 29.677734,12.521484 c -0.896341,-0.02442 -1.789027,0.01832 -2.675781,0.126954 -0.903607,0.113082 -1.794139,0.312059 -2.662109,0.591796 h -0.002 c -0.745124,0.244835 -1.464445,0.576569 -2.138672,0.980469 h -0.002 l -0.002,0.002 c -0.739045,0.449463 -1.420669,0.984424 -2.03125,1.597657 -0.0083,0.0081 -0.01826,0.01631 -0.02344,0.02148 l -0.134766,0.132812 0.01563,-0.294921 -4.013672,-0.142579 c -0.527245,-0.01815 -0.966386,0.251785 -1.189453,0.730469 l -1.822265,3.914063 c -0.22371,0.480065 -0.14295,0.993254 0.21875,1.380859 l 1.861328,1.996094 c -0.04239,0.09029 -0.08504,0.180994 -0.126953,0.271484 v 0.002 c -0.212345,0.462457 -0.123277,1.009839 0.224609,1.382813 l 6.890625,7.394531 c 0.361346,0.387394 0.922218,0.501255 1.402344,0.304687 h 0.002 l 0.002,-0.002 c 0.0942,-0.03929 0.187271,-0.07941 0.28125,-0.11914 l 0.03711,0.04102 2.074219,2.226563 h 0.002 c 0.367734,0.394136 0.907556,0.486664 1.386719,0.238281 h 0.002 l 3.607422,-1.871094 c 0.457027,-0.236908 0.717715,-0.650506 0.736328,-1.164062 l 0.138672,-3.986328 c 0.04739,-0.04034 0.09559,-0.08018 0.142578,-0.121094 0.331858,-0.287928 0.648046,-0.595639 0.945313,-0.916016 0.254791,-0.274265 0.485289,-0.56403 0.699218,-0.865234 0.458746,-0.647389 0.824955,-1.354459 1.089844,-2.099609 0.351229,-0.968223 0.611776,-1.972967 0.769531,-2.990235 v -0.002 c 0.127191,-0.804476 0.206417,-1.612246 0.246094,-2.423828 v -0.002 c 0.04711,-1.03852 0.05116,-2.084994 0.01172,-3.126953 v -0.0039 -0.0039 c -0.03854,-0.729845 -0.339848,-1.420894 -0.841797,-1.953125 -0.468665,-0.509992 -1.095822,-0.849555 -1.78125,-0.958984 h -0.0039 -0.0039 c -1.103542,-0.158824 -2.219504,-0.257173 -3.332032,-0.289063 z m -0.0293,1 c 1.071573,0.03072 2.148447,0.126322 3.212891,0.279297 0.464178,0.07472 0.8894,0.300007 1.205078,0.644532 l 0.002,0.0039 0.0039,0.0039 c 0.343358,0.362592 0.544281,0.829312 0.570312,1.322266 0.03806,1.011134 0.03403,2.028621 -0.01172,3.037109 -0.03814,0.778886 -0.115177,1.550594 -0.236328,2.316406 v 0.002 c -0.147491,0.951855 -0.390967,1.895713 -0.720703,2.804688 l -0.002,0.002 c -0.234304,0.659752 -0.558981,1.286616 -0.964844,1.859375 -0.192352,0.270824 -0.394008,0.523584 -0.615234,0.761719 v 0.002 c -0.274761,0.29612 -0.567321,0.579931 -0.869141,0.841797 -0.09873,0.08596 -0.195951,0.168494 -0.294922,0.25 l -0.173828,0.144531 -0.15625,4.431641 c -0.003,0.04593 -0.159244,0.290837 -0.197265,0.310546 l -3.607422,1.873047 c -0.01606,0.0083 -0.184996,-0.02201 -0.197266,-0.03516 l -2.074219,-2.224609 -0.515625,-0.554688 -0.324218,0.138672 c -0.197179,0.08465 -0.395564,0.169277 -0.59375,0.251953 -0.09999,0.04094 -0.219735,0.01797 -0.292969,-0.06055 l -6.890625,-7.394531 c -0.07255,-0.07778 -0.09023,-0.190743 -0.04687,-0.285156 0.08795,-0.189878 0.177791,-0.378354 0.267578,-0.566406 l 0.146484,-0.310547 -0.251953,-0.267578 -2.074218,-2.22461 c -0.01932,-0.0207 -0.05474,-0.250129 -0.04297,-0.27539 l 1.822265,-3.914063 c 0.01242,-0.02664 0.217413,-0.153398 0.248047,-0.152344 l 4.28125,0.150391 0.710938,0.02539 0.01563,-0.273438 c 0.52659,-0.513674 1.101347,-0.977292 1.732422,-1.361328 l 0.002,-0.002 c 0.610172,-0.365306 1.262183,-0.66401 1.933593,-0.884766 0.809102,-0.260764 1.634485,-0.445521 2.47461,-0.550781 0.836772,-0.102512 1.679019,-0.142104 2.52539,-0.119141 z m -0.01563,0.519532 c -0.816859,-0.02135 -1.634035,0.01438 -2.441406,0.111328 l -0.002,0.002 h -0.002 c -0.811683,0.101594 -1.606051,0.281983 -2.378906,0.529297 -0.640121,0.20637 -1.251726,0.492193 -1.822266,0.833984 -0.640231,0.384246 -1.224364,0.846878 -1.748047,1.371094 -0.747176,0.746136 -1.421924,1.553526 -2.02539,2.414062 -0.220612,0.312061 -0.431874,0.629199 -0.636719,0.951172 l -0.208985,0.328125 0.34961,0.371094 8.128906,8.722656 0.339844,-0.18164 c 0.755993,-0.404332 1.486446,-0.847535 2.195312,-1.330079 0.283393,-0.192748 0.555935,-0.392664 0.824219,-0.59375 l 0.0039,-0.002 0.0039,-0.002 c 0.221888,-0.172013 0.445233,-0.352382 0.666015,-0.550781 l 0.0098,-0.0078 c 0.29027,-0.249623 0.564371,-0.5183 0.820312,-0.792968 0.209201,-0.224495 0.402734,-0.465219 0.578125,-0.71875 l 0.002,-0.002 c 0.37384,-0.532826 0.680939,-1.114667 0.902344,-1.730469 0.315859,-0.880639 0.546523,-1.79007 0.69336,-2.712891 l 0.002,-0.002 v -0.002 c 0.11409,-0.748559 0.190747,-1.499469 0.228515,-2.255859 v -0.002 c 0.04563,-0.996226 0.04911,-1.992096 0.01172,-2.986328 v -0.0059 l -0.002,-0.0078 c -0.02349,-0.369962 -0.180258,-0.71807 -0.4375,-0.986329 -0.234383,-0.258306 -0.547383,-0.435633 -0.892578,-0.49414 h -0.0059 l -0.0059,-0.002 c -1.044965,-0.153626 -2.098297,-0.239877 -3.150391,-0.265625 z m -0.02539,0.998047 h 0.002 c 1.008724,0.02469 2.017784,0.109373 3.017578,0.255859 6.97e-4,1.02e-4 0.0013,0.0019 0.002,0.002 0.126795,0.02208 0.236592,0.0797 0.324219,0.177734 l 0.0059,0.0078 0.0078,0.0078 c 0.09779,0.100821 0.151495,0.226868 0.160156,0.363282 0.03585,0.962904 0.03434,1.92771 -0.0098,2.890625 -0.03605,0.720527 -0.109584,1.436101 -0.21875,2.152343 -0.137173,0.861348 -0.354075,1.708592 -0.648437,2.529297 -0.189631,0.527426 -0.457344,1.031992 -0.783203,1.496094 v 0.002 l -0.002,0.002 c -0.147605,0.213567 -0.311025,0.417207 -0.488282,0.607422 -0.238506,0.255958 -0.489042,0.500585 -0.748046,0.722656 l -0.0039,0.0039 -0.0059,0.0039 c -0.196551,0.177178 -0.403593,0.344621 -0.619141,0.511719 -0.258416,0.1936 -0.51678,0.382622 -0.78125,0.5625 -0.575752,0.391929 -1.173573,0.740851 -1.779297,1.078125 l -7.404296,-7.945313 c 0.130658,-0.197944 0.257761,-0.398333 0.394531,-0.591797 h 0.002 v -0.002 c 0.570912,-0.814114 1.208933,-1.575149 1.914062,-2.279297 v -0.002 C 22.415101,17.125436 22.934525,16.71438 23.5,16.375 c 0.510348,-0.305732 1.053343,-0.559559 1.613281,-0.740234 0.71725,-0.22952 1.451176,-0.394772 2.197266,-0.488282 0.758128,-0.09104 1.528022,-0.127514 2.296875,-0.107421 z m -1.65625,1.007812 c -1.098381,-0.03864 -2.212135,0.341229 -3.076172,1.146484 -1.727992,1.611005 -1.823401,4.334427 -0.212891,6.0625 1.610568,1.728137 4.334387,1.823438 6.0625,0.212891 1.728136,-1.610568 1.823438,-4.334385 0.212891,-6.0625 -0.805503,-0.863996 -1.887947,-1.320734 -2.986328,-1.359375 z m -0.03516,0.994141 c 0.840681,0.02958 1.669982,0.380744 2.291015,1.046875 1.241512,1.33214 1.168055,3.408899 -0.164062,4.65039 -1.33214,1.241512 -3.4089,1.168056 -4.650391,-0.164062 -1.241549,-1.33218 -1.168198,-3.408326 0.164063,-4.650391 0.666089,-0.620775 1.518694,-0.91239 2.359375,-0.882812 z m -11.802735,0.02148 -1.660156,3.605469 2.060547,2.208984 0.328125,-0.623047 c 0.179682,-0.342394 0.363594,-0.682733 0.552734,-1.021484 0.427035,-0.763803 0.892477,-1.508017 1.390625,-2.222656 v -0.002 c 0.246227,-0.349373 0.505808,-0.691737 0.775391,-1.02539 l 0.628906,-0.777344 -1,-0.03516 z m 11.783203,0.5 c -0.737836,-0.02905 -1.45149,0.241667 -1.986328,0.740234 -0.535177,0.49831 -0.85558,1.192558 -0.878906,1.929688 -0.03025,0.737123 0.237915,1.453023 0.740234,1.992187 0.499568,0.535252 1.194889,0.856744 1.933594,0.878907 0.732125,0.0254 1.448681,-0.241003 1.986328,-0.742188 0.537905,-0.501468 0.854478,-1.19772 0.88086,-1.929687 0.0298,-0.738768 -0.243029,-1.454763 -0.742188,-1.990235 -0.501707,-0.538508 -1.196692,-0.856593 -1.933594,-0.878906 z m -11.154297,0.521484 1.451172,0.05078 c -0.07401,0.100906 -0.154446,0.196483 -0.226562,0.298828 l -0.002,0.002 c -0.518212,0.743318 -1.000493,1.516475 -1.44336,2.308594 -0.079,0.14149 -0.154782,0.28538 -0.232422,0.427734 l -0.646484,-0.695313 z m 11.117188,0.476563 h 0.0039 0.002 c 0.469825,0.01376 0.909981,0.21431 1.234375,0.5625 0.320051,0.343334 0.491833,0.802256 0.472657,1.269531 v 0.002 c -0.01652,0.467003 -0.220579,0.917568 -0.5625,1.236328 -0.341156,0.31802 -0.804625,0.489176 -1.271485,0.472657 h -0.002 c -0.467321,-0.0137 -0.911759,-0.218933 -1.232422,-0.5625 -0.323536,-0.347996 -0.493855,-0.798619 -0.474609,-1.267579 v -0.0039 -0.002 c 0.01372,-0.46821 0.21895,-0.912538 0.5625,-1.232422 0.343334,-0.32005 0.800303,-0.493785 1.267578,-0.474609 z m -9.771484,2.476562 -0.332032,0.603516 C 17.329466,22.414259 16.924998,23.20046 16.544922,24 l -0.146485,0.306641 6.652344,7.136718 0.322266,-0.138672 c 0.804099,-0.344177 1.600234,-0.705869 2.386719,-1.08789 l 0.609375,-0.296875 -0.460938,-0.494141 z m 0.224609,1.707032 6.390625,6.855468 c -0.466529,0.21929 -0.933389,0.436611 -1.40625,0.642578 l -5.695313,-6.111328 c 0.22689,-0.467247 0.467023,-0.927804 0.710938,-1.386718 z m 11.90625,5.488281 -0.810547,0.537109 c -0.749082,0.495425 -1.52607,0.952324 -2.324219,1.363281 v -0.002 c -0.646027,0.332028 -1.2983,0.650936 -1.955078,0.957032 l -0.623047,0.291015 2.386719,2.560547 3.193359,-1.953125 z m -1.066406,1.84375 -0.04687,1.33789 -2.03711,1.246094 -0.902343,-0.966797 c 0.459681,-0.220842 0.920257,-0.438158 1.375,-0.671875 0.553515,-0.284998 1.079586,-0.620532 1.611328,-0.945312 z"
     id="path7" />
  <linearGradient
     id="_lgradient_14"
     x1="0.09159982195266622"
     y1="0.9584083631143544"
     x2="0.7671876378360556"
     y2="0.31659993802513386"
     gradientTransform="matrix(7.5788853,0,0,7.5788853,13.13741,26.407042)"
     gradientUnits="userSpaceOnUse">
    <stop
       offset="0%"
       stop-opacity="1"
       style="stop-color:rgb(255,229,59)"
       id="stop9" />
    <stop
       offset="98.69565217391305%"
       stop-opacity="1"
       style="stop-color:rgb(255,0,91)"
       id="stop11" />
  </linearGradient>
  <path
     style="color:#000000;fill:url(#linearGradient915);fill-rule:evenodd;-inkscape-stroke:none"
     d="m 15.916016,25.910156 c -0.32285,0 -0.645173,0.121736 -0.888672,0.365235 l -2.021485,2.021484 c -0.486997,0.486998 -0.486997,1.290346 0,1.777344 0.486998,0.486997 1.290347,0.486997 1.777344,0 l 2.021484,-2.019532 c 0.486998,-0.486997 0.486998,-1.292299 0,-1.779296 -0.243498,-0.243499 -0.565822,-0.365235 -0.888671,-0.365235 z m -0.181641,1.072266 c 0.104234,-0.104234 0.259047,-0.104234 0.363281,0 0.104234,0.104234 0.104234,0.259047 0,0.363281 l -2.021484,2.021484 c -0.104234,0.104234 -0.259048,0.104234 -0.363281,0 -0.104234,-0.104233 -0.104234,-0.259047 0,-0.363281 z m 2.203125,0.949219 c -0.32285,0 -0.645173,0.121735 -0.888672,0.365234 l -4.042969,4.042969 c -0.486997,0.486997 -0.486997,1.290346 0,1.777343 0.486998,0.486998 1.290347,0.486998 1.777344,0 l 4.042969,-4.042968 c 0.486996,-0.486998 0.486996,-1.290346 0,-1.777344 C 18.582673,28.053376 18.26035,27.931641 17.9375,27.931641 Z m -0.181641,1.072265 c 0.104232,-0.104232 0.259048,-0.104233 0.363282,0 0.104233,0.104234 0.104233,0.259048 0,0.363281 l -4.042969,4.042969 c -0.104234,0.104234 -0.259048,0.104234 -0.363281,0 -0.104234,-0.104234 -0.104234,-0.259047 0,-0.363281 z m 2.203125,0.949219 c -0.322849,0 -0.645173,0.121736 -0.888672,0.365234 l -2.021484,2.021485 c -0.486997,0.486997 -0.486997,1.290346 0,1.777343 0.486997,0.486999 1.290346,0.486999 1.777344,0 l 2.021484,-2.021484 c 0.486998,-0.486997 0.486998,-1.290346 0,-1.777344 -0.243499,-0.243498 -0.565822,-0.365234 -0.888672,-0.365234 z m -0.18164,1.072266 c 0.104234,-0.104234 0.259047,-0.104234 0.363281,0 0.104234,0.104233 0.104234,0.259047 0,0.363281 l -2.021484,2.021484 c -0.104234,0.104234 -0.25905,0.104233 -0.363282,0 -0.104233,-0.104234 -0.104233,-0.259047 0,-0.363281 z"
     id="path14" />
</svg>
