<?xml version="1.0" encoding="UTF-8" standalone="no"?>
<!-- Generator: Gravit.io -->

<svg
   style="isolation:isolate"
   viewBox="0 0 48 48"
   width="48pt"
   height="48pt"
   version="1.1"
   id="svg9"
   sodipodi:docname="yad.svg"
   inkscape:version="1.1.2 (0a00cf5339, 2022-02-04)"
   xmlns:inkscape="http://www.inkscape.org/namespaces/inkscape"
   xmlns:sodipodi="http://sodipodi.sourceforge.net/DTD/sodipodi-0.dtd"
   xmlns:xlink="http://www.w3.org/1999/xlink"
   xmlns="http://www.w3.org/2000/svg"
   xmlns:svg="http://www.w3.org/2000/svg">
  <defs
     id="defs13">
    <linearGradient
       inkscape:collect="always"
       xlink:href="#_lgradient_3"
       id="linearGradient872"
       x1="-12.025727"
       y1="6.1170783"
       x2="-0.085100174"
       y2="6.1170783"
       gradientUnits="userSpaceOnUse"
       gradientTransform="matrix(3.8358211,0,0,3.8371386,-0.00544341,-0.00268054)" />
    <linearGradient
       inkscape:collect="always"
       xlink:href="#_lgradient_3"
       id="linearGradient15"
       x1="-9.6850061"
       y1="45.161198"
       x2="11.98815"
       y2="21.735205"
       gradientUnits="userSpaceOnUse"
       gradientTransform="matrix(1.1147442,0,0,1.1150348,-0.01237238,-3.3277956)" />
    <linearGradient
       inkscape:collect="always"
       xlink:href="#_lgradient_3"
       id="linearGradient1193"
       x1="12.290551"
       y1="21.723583"
       x2="36.067081"
       y2="21.723583"
       gradientUnits="userSpaceOnUse" />
  </defs>
  <sodipodi:namedview
     id="namedview11"
     pagecolor="#ffffff"
     bordercolor="#666666"
     borderopacity="1.0"
     inkscape:pageshadow="2"
     inkscape:pageopacity="0.0"
     inkscape:pagecheckerboard="0"
     inkscape:document-units="pt"
     showgrid="false"
     inkscape:zoom="7.2257474"
     inkscape:cx="32.038208"
     inkscape:cy="31.969011"
     inkscape:window-width="1600"
     inkscape:window-height="836"
     inkscape:window-x="0"
     inkscape:window-y="0"
     inkscape:window-maximized="1"
     inkscape:current-layer="svg9" />
  <linearGradient
     id="_lgradient_3"
     x1="0.46629213694202787"
     y1="0.9740182936680462"
     x2="0.46629213694202765"
     y2="-0.2147254487048822"
     gradientTransform="matrix(23.776992,0,0,25.362302,12.290322,9.0428092)"
     gradientUnits="userSpaceOnUse">
    <stop
       offset="0%"
       stop-opacity="1"
       style="stop-color:rgb(165,248,106)"
       id="stop2" />
    <stop
       offset="97.91666666666666%"
       stop-opacity="1"
       style="stop-color:rgb(47,206,146)"
       id="stop4" />
  </linearGradient>
  <rect
     x="-46.783188"
     y="1.2253767"
     height="45.80014"
     rx="6.1837621"
     shape-rendering="crispEdges"
     id="rect5-6-7-3"
     ry="6.8055277"
     transform="matrix(0.00524063,-0.99998627,0.99998801,0.00489691,0,0)"
     style="isolation:isolate;fill:#64ff00;fill-opacity:0.13470298;stroke:url(#linearGradient872);stroke-width:2.0301;stroke-miterlimit:4;stroke-dasharray:none;stroke-opacity:1"
     width="45.801998" />
  <rect
     x="-15.686804"
     y="17.260084"
     height="33.345856"
     rx="6.7920032"
     shape-rendering="crispEdges"
     id="rect5-6-6-6-6"
     style="isolation:isolate;fill:#64ff00;fill-opacity:0.13470298;stroke:url(#linearGradient15);stroke-width:1.67233;stroke-miterlimit:4;stroke-dasharray:none;stroke-opacity:1"
     ry="7.4743071"
     transform="matrix(0.72446484,-0.68931175,0.68622417,0.72739012,0,0)"
     width="33.338203" />
  <path
     style="color:#000000;fill:url(#linearGradient1193);fill-rule:evenodd;-inkscape-stroke:none"
     d="m 19.652344,8.5429688 c -0.823102,-0.00743 -1.623664,0.2662755 -2.265625,0.7832031 -0.67899,0.5491073 -1.08413,1.3719291 -1.09961,2.2441411 v 0.0098 0.0078 c 0.01547,0.87179 0.420621,1.695034 1.09961,2.24414 0.586549,0.472309 1.322899,0.677609 2.070312,0.714844 v 3.90625 l -6.884765,10.445312 -0.002,0.0059 c -0.236671,0.381951 -0.424013,0.784857 -0.56836,1.210937 l -0.002,0.002 c -0.139092,0.416662 -0.202388,0.848118 -0.208984,1.273438 v 0.002 c -0.0076,0.509572 0.105902,1.008683 0.320312,1.466797 v 0.002 0.002 c 0.218854,0.460612 0.548381,0.860896 0.951172,1.173828 v 0.002 l 0.002,0.002 c 0.39909,0.305439 0.85592,0.529143 1.341797,0.660156 6.23e-4,1.73e-4 0.0013,-1.73e-4 0.002,0 0.498157,0.138643 1.013668,0.209574 1.535156,0.203125 h 16.470703 c 0.521504,0.0065 1.037004,-0.06448 1.535157,-0.203125 6.23e-4,-1.73e-4 0.0013,1.73e-4 0.002,0 0.485877,-0.131013 0.942707,-0.354717 1.341797,-0.660156 l 0.002,-0.002 v -0.002 c 0.40279,-0.312932 0.732318,-0.713216 0.951172,-1.173828 v -0.002 l 0.002,-0.002 c 0.214409,-0.458119 0.325922,-0.957241 0.318359,-1.466797 v -0.002 c -0.0066,-0.425359 -0.0699,-0.856793 -0.208984,-1.273438 v -0.002 c -0.144346,-0.426082 -0.33169,-0.828987 -0.56836,-1.210937 l -0.0039,-0.0059 -6.884765,-10.445312 v -3.90625 c 0.747421,-0.03723 1.483766,-0.242537 2.070312,-0.714844 0.67899,-0.549107 1.084126,-1.372356 1.099609,-2.24414 v -0.0078 -0.0098 C 32.054841,10.698095 31.649692,9.8752779 30.970703,9.3261719 30.328747,8.8092485 29.528196,8.5355154 28.705078,8.5429688 Z m -0.0098,1 h 0.002 9.06836 0.002 c 0.59645,-0.0054 1.166344,0.1902138 1.626953,0.5605472 0.446631,0.361196 0.711252,0.904953 0.724609,1.474609 -0.01281,0.568795 -0.27683,1.113027 -0.722656,1.474609 -4.94e-4,3.98e-4 -0.0015,-3.97e-4 -0.002,0 -4.76e-4,3.86e-4 4.76e-4,0.0016 0,0.002 -0.460514,0.370063 -1.030706,0.56593 -1.626953,0.560546 h -0.002 -0.8125 v 0.5 0.316407 4.322265 l 7.044921,10.689453 c 0.190731,0.310106 0.342999,0.638859 0.462891,0.992188 0.102423,0.306817 0.153019,0.635199 0.158203,0.970703 0.0052,0.352825 -0.07142,0.701976 -0.224609,1.029297 -0.148772,0.312535 -0.378364,0.593572 -0.660156,0.8125 -0.295209,0.225206 -0.634109,0.391819 -0.994141,0.488281 l -0.0039,0.002 h -0.002 c -0.412005,0.114822 -0.832847,0.171772 -1.259766,0.166016 h -0.0039 -16.478516 -0.0039 c -0.426934,0.0057 -0.847765,-0.0512 -1.259766,-0.166016 h -0.002 l -0.0039,-0.002 c -0.360032,-0.09646 -0.698932,-0.263075 -0.994141,-0.488281 -0.281792,-0.218928 -0.511384,-0.499965 -0.660156,-0.8125 v -0.002 c -0.152646,-0.326811 -0.229846,-0.675174 -0.224609,-1.027344 0.0052,-0.335543 0.05578,-0.663903 0.158203,-0.970703 0.119893,-0.35333 0.272161,-0.682083 0.46289,-0.992188 l 0.0039,-0.0078 c 0.0012,-0.002 0.0027,-0.0039 0.0039,-0.0059 l 7.037109,-10.675781 v -4.322265 -0.816407 h -0.8125 -0.002 c -0.596258,0.0054 -1.166442,-0.190486 -1.626953,-0.560546 l -0.002,-0.002 c -0.445827,-0.361583 -0.709852,-0.90582 -0.722656,-1.474609 0.01336,-0.569663 0.277979,-1.113415 0.724609,-1.474609 0.460604,-0.3703292 1.030486,-0.565933 1.626953,-0.5605472 z m -0.002,0.9023442 c -0.39012,-0.0094 -0.761525,0.12333 -1.056641,0.361328 -4.86e-4,3.83e-4 4.86e-4,0.0016 0,0.002 -0.233265,0.184409 -0.368446,0.452051 -0.392578,0.726562 l -0.0039,0.04492 0.0039,0.04297 c 0.02418,0.273906 0.157147,0.541612 0.390625,0.726562 0.295482,0.238828 0.666938,0.372719 1.058594,0.363282 h 2.001953 c 0.254631,0 0.451172,0.197011 0.451172,0.451172 0,0.218714 -0.149657,0.39316 -0.347656,0.439453 l -0.386719,0.08984 v 0.738282 4.554687 l -3.015625,4.589844 0.90625,0.01563 c 0.03252,5.92e-4 0.06242,0.002 0.08984,0.002 0.745433,0.01362 1.496467,-0.09688 2.21289,-0.322266 0.65069,-0.205168 1.242727,-0.545391 1.753907,-0.986328 l -0.05859,0.04492 c 0.75689,-0.478412 1.574422,-0.860446 2.427734,-1.132812 0.541826,-0.173585 1.102933,-0.286671 1.671875,-0.337891 l 0.832031,-0.07422 -0.458984,-0.697265 -0.722656,-1.101563 v -4.554687 -0.738282 l -0.386719,-0.08984 c -0.197993,-0.04629 -0.347656,-0.220739 -0.347656,-0.439453 0,-0.254161 0.196541,-0.451172 0.451172,-0.451172 h 2.001953 c 0.39163,0.0094 0.763106,-0.124454 1.058594,-0.363282 0.233483,-0.184948 0.366454,-0.452642 0.390625,-0.726562 l 0.0039,-0.04297 -0.0039,-0.04492 c -0.02414,-0.274491 -0.159311,-0.542149 -0.392579,-0.726562 -1.67e-4,-1.35e-4 1.68e-4,-0.0018 0,-0.002 -0.29511,-0.238 -0.666495,-0.37073 -1.05664,-0.361328 z m -0.02539,1 h 0.0059 0.01953 9.076172 0.01953 0.0059 c 0.132421,-0.0032 0.278656,0.05326 0.386719,0.134765 -0.108116,0.08056 -0.255047,0.13598 -0.386719,0.132813 h -0.0059 -0.01953 -2.001953 c -0.795831,0 -1.451172,0.655939 -1.451172,1.451172 0,0.517742 0.320834,0.911015 0.734375,1.167968 v 0.09961 4.855468 l 0.482422,0.734375 c -0.372008,0.06779 -0.749384,0.10928 -1.109375,0.22461 -0.934502,0.298281 -1.829251,0.71432 -2.658203,1.238281 l -0.03125,0.01953 -0.02734,0.02539 c -0.414252,0.357328 -0.887161,0.626621 -1.402344,0.789062 -0.317385,0.09985 -0.650339,0.0967 -0.978516,0.142578 l 2.085938,-3.173828 v -4.855468 -0.09766 c 0.414452,-0.256758 0.734375,-0.651495 0.734375,-1.169921 0,-0.795233 -0.655341,-1.451172 -1.451172,-1.451172 h -2.001953 -0.01953 -0.0059 c -0.132419,0.0032 -0.278464,-0.05338 -0.386718,-0.134766 0.108024,-0.08127 0.254481,-0.135993 0.386718,-0.132812 z m 8.369141,10.285156 c -0.690122,0.0069 -1.378834,0.115442 -2.037109,0.328125 -0.742589,0.233973 -1.446054,0.555592 -2.107422,0.96289 l -0.0293,0.01953 -0.02734,0.02148 c -0.577308,0.478061 -1.241065,0.840177 -1.958984,1.068359 -0.806801,0.250804 -1.648556,0.37678 -2.488282,0.365235 h -0.0039 -0.0039 c -0.406331,0 -0.813966,-0.02374 -1.222656,-0.06641 l -0.302735,-0.03125 -3.458984,5.263672 h -0.01563 l -0.144531,0.242188 c -3e-4,4.98e-4 3e-4,0.0015 0,0.002 l -0.06641,0.09961 v 0.04102 c -0.118044,0.21315 -0.232119,0.432192 -0.310547,0.667969 v 0.002 0.002 c -0.07138,0.221455 -0.113282,0.457292 -0.113282,0.699219 0,0.1977 0.03461,0.414298 0.138672,0.626953 0.08967,0.1893 0.221124,0.355565 0.386719,0.480469 4.65e-4,3.55e-4 0.0015,-3.55e-4 0.002,0 0.206828,0.157639 0.442911,0.277577 0.697266,0.345703 0.330769,0.09456 0.671312,0.137673 1.015625,0.130859 h 0.002 16.486328 0.002 c 0.343615,0.0068 0.683476,-0.03667 1.013672,-0.130859 5.73e-4,-1.53e-4 0.0014,1.53e-4 0.002,0 0.25436,-0.06813 0.49044,-0.188065 0.697266,-0.345703 4.65e-4,-3.55e-4 0.0015,3.55e-4 0.002,0 0.16559,-0.124904 0.29705,-0.291182 0.386719,-0.480469 0.104061,-0.212657 0.140625,-0.429251 0.140625,-0.626953 0,-0.241945 -0.04192,-0.477795 -0.113282,-0.699219 l -0.002,-0.002 v -0.002 c -0.07843,-0.235787 -0.192503,-0.454821 -0.310547,-0.667969 v -0.04102 l -0.06641,-0.09961 v -0.002 l -0.144531,-0.242188 h -0.01563 l -5.19336,-7.902343 h -0.269531 l 0.05273,0.0039 c -0.203585,-0.02158 -0.408179,-0.0332 -0.613282,-0.0332 h -0.0039 z m 0.0059,1 c 0.09356,0 0.187306,0.01006 0.28125,0.01563 l 5.050782,7.685547 -0.002,-0.0098 c -4.44e-4,-7.4e-4 -0.0015,-0.0012 -0.002,-0.002 l -0.0039,-0.01172 c 0.0039,0.0044 0.01147,0.01259 0.01758,0.01953 l -0.01172,-0.0059 c 0.115153,0.191504 0.21212,0.401536 0.28125,0.609375 0.04169,0.131293 0.06445,0.262984 0.06445,0.386719 0,0.07815 -0.01787,0.150966 -0.03711,0.189453 l -0.002,0.0039 -0.0039,0.0059 c -0.02281,0.04841 -0.05324,0.08348 -0.08789,0.109375 l -0.002,0.002 -0.002,0.002 c -0.108689,0.08299 -0.226719,0.140513 -0.351563,0.173828 l -0.0039,0.002 -0.0059,0.002 c -0.237438,0.06848 -0.477224,0.09866 -0.726563,0.09375 h -0.0039 -0.01758 -4.955078 c 0.558618,-0.06775 1.015625,-0.508777 1.015625,-1.083984 0,-0.620713 -0.5121,-1.134766 -1.132813,-1.134766 -0.620713,0 -1.134765,0.51456 -1.134765,1.134766 0,0.574831 0.458896,1.016298 1.017578,1.083984 H 21.125 c 1.60785,-0.07187 2.919922,-1.361604 2.919922,-2.986328 0,-1.670386 -1.366596,-3.037109 -3.03711,-3.037109 -1.670512,0 -3.035156,1.366596 -3.035156,3.037109 0,1.624848 1.310092,2.914467 2.917969,2.986328 h -4.955078 -0.01758 -0.0039 c -0.249294,0.0049 -0.489109,-0.02526 -0.726563,-0.09375 l -0.0059,-0.002 -0.0039,-0.002 c -0.124846,-0.03332 -0.242875,-0.09084 -0.351562,-0.173828 l -0.002,-0.002 -0.002,-0.002 c -0.03465,-0.02589 -0.06509,-0.06098 -0.08789,-0.109375 l -0.002,-0.0059 -0.0039,-0.0039 c -0.01924,-0.03849 -0.03516,-0.111306 -0.03516,-0.189453 0,-0.123753 0.02081,-0.255456 0.0625,-0.386719 l 0.002,-0.0039 c 2.07e-4,-6.46e-4 -2.09e-4,-0.0013 0,-0.002 0.06903,-0.205958 0.1652,-0.413768 0.279296,-0.603516 l -0.01172,0.0059 c 0.0061,-0.0069 0.01371,-0.01512 0.01758,-0.01953 l -0.0059,0.01367 -0.002,0.0098 3.279297,-4.990235 c 0.337429,0.02731 0.674896,0.05469 1.013672,0.05469 0.946139,0.01238 1.889682,-0.129359 2.792969,-0.410157 h 0.002 c 0.84023,-0.266638 1.621185,-0.690805 2.298828,-1.251953 l -0.05664,0.03906 C 24.957929,23.50804 25.58477,23.22118 26.25,23.011719 h 0.002 0.002 c 0.557671,-0.180178 1.146464,-0.274962 1.736328,-0.28125 z m -0.958984,1.345703 c -1.320495,0 -2.400391,1.082246 -2.400391,2.402344 0,1.320494 1.079896,2.402343 2.400391,2.402343 1.320494,0 2.402344,-1.081848 2.402344,-2.402343 0,-1.320098 -1.08185,-2.402344 -2.402344,-2.402344 z m 0,1 c 0.779358,0 1.402344,0.623658 1.402344,1.402344 0,0.779358 -0.622986,1.402343 -1.402344,1.402343 -0.779359,0 -1.400391,-0.622984 -1.400391,-1.402343 0,-0.778687 0.621032,-1.402344 1.400391,-1.402344 z m 0,0.269531 c -0.306509,0 -0.587352,0.125612 -0.792969,0.320313 l -0.0098,0.0098 -0.0098,0.0098 c -0.19445,0.205413 -0.320313,0.485521 -0.320313,0.792969 10e-7,0.307547 0.125848,0.589502 0.320313,0.794921 l 0.0098,0.0098 0.0098,0.0098 c 0.205618,0.194701 0.486461,0.320312 0.792969,0.320312 0.306397,0 0.58876,-0.126182 0.794922,-0.322265 l 0.0098,-0.0078 0.0078,-0.0098 c 0.195535,-0.205591 0.322266,-0.487364 0.322266,-0.794921 0,-0.307439 -0.126716,-0.589323 -0.322266,-0.794922 l -0.0078,-0.0078 -0.0098,-0.0098 C 27.620008,25.469927 27.337645,25.345703 27.03125,25.345703 Z m 0,1 c 0.03151,0 0.06316,0.01398 0.09375,0.03906 0.0255,0.03108 0.04102,0.06314 0.04102,0.09375 0,0.03145 -0.01551,0.06273 -0.04102,0.09375 -0.03062,0.02513 -0.06222,0.04102 -0.09375,0.04102 -0.03181,0 -0.06085,-0.01603 -0.0918,-0.04102 -0.02473,-0.03081 -0.04102,-0.06277 -0.04102,-0.09375 0,-0.03007 0.01641,-0.06098 0.04102,-0.0918 0.03095,-0.02499 0.05999,-0.04102 0.0918,-0.04102 z m -6.023438,0.632813 c 1.129293,0 2.03711,0.90769 2.03711,2.037109 0,1.129418 -0.907817,2.035156 -2.03711,2.035156 -1.12929,0 -2.035156,-0.905865 -2.035156,-2.035156 0,-1.129292 0.905866,-2.037109 2.035156,-2.037109 z m 0,0.267578 c -0.465032,0 -0.91414,0.186036 -1.24414,0.521484 -0.337515,0.33028 -0.523438,0.78151 -0.523438,1.248047 0,0.465295 0.187634,0.914092 0.523438,1.244141 0.330048,0.335802 0.778845,0.523437 1.24414,0.523437 0.4653,0 0.916045,-0.18763 1.246094,-0.523437 0.335807,-0.33005 0.523438,-0.778848 0.523438,-1.244141 0,-0.466535 -0.185921,-0.917766 -0.523438,-1.248047 -0.33,-0.335454 -0.781056,-0.521484 -1.246094,-0.521484 z m 0,1 c 0.20413,0 0.398537,0.08225 0.53711,0.224609 l 0.0039,0.0039 0.0059,0.0039 c 0.14236,0.138571 0.222657,0.332979 0.222657,0.537109 0,0.204128 -0.0803,0.396585 -0.222657,0.535156 l -0.0059,0.0039 -0.0039,0.0059 c -0.138574,0.142361 -0.332982,0.222656 -0.53711,0.222656 -0.204126,0 -0.396582,-0.08029 -0.535156,-0.222656 l -0.0039,-0.0059 -0.0059,-0.0039 c -0.14236,-0.138572 -0.222657,-0.33103 -0.222657,-0.535156 0,-0.204128 0.0803,-0.398537 0.222657,-0.537109 l 0.0059,-0.0039 0.0039,-0.0039 c 0.138573,-0.142361 0.331028,-0.224609 0.535156,-0.224609 z m 4.123047,0.269531 c -0.620713,0 -1.134765,0.512099 -1.134765,1.132812 0,0.620714 0.514561,1.134766 1.134765,1.134766 0.620205,0 1.132813,-0.514052 1.132813,-1.134766 0,-0.620713 -0.5121,-1.132812 -1.132813,-1.132812 z m 4.121094,0 c -0.620713,0 -1.134766,0.5121 -1.134766,1.132812 0,0.620713 0.514562,1.134766 1.134766,1.134766 0.620205,0 1.132813,-0.514053 1.132813,-1.134766 0,-0.620712 -0.5121,-1.132812 -1.132813,-1.132812 z m -4.121094,1 c 0.07924,0 0.132813,0.05357 0.132813,0.132812 0,0.07924 -0.05307,0.134766 -0.132813,0.134766 -0.07975,0 -0.134765,-0.05553 -0.134765,-0.134766 0,-0.07924 0.05553,-0.132812 0.134765,-0.132812 z m 4.121094,0 c 0.07924,0 0.132813,0.05357 0.132813,0.132812 0,0.07924 -0.05307,0.134766 -0.132813,0.134766 -0.07975,0 -0.134765,-0.05553 -0.134766,-0.134766 0,-0.07924 0.05553,-0.132812 0.134766,-0.132812 z m -1.902344,1.267578 c 0.07924,0 0.132813,0.05553 0.132813,0.134766 0,0.07924 -0.05358,0.132812 -0.132813,0.132812 -0.07924,0 -0.134765,-0.05307 -0.134765,-0.132812 0,-0.07975 0.05553,-0.134766 0.134765,-0.134766 z"
     id="path7" />
</svg>
