<?xml version="1.0" encoding="UTF-8" standalone="no"?>
<!-- Generator: Gravit.io -->

<svg
   style="isolation:isolate"
   viewBox="0 0 48 48"
   width="48pt"
   height="48pt"
   version="1.1"
   id="svg11"
   sodipodi:docname="yast-sound.svg"
   inkscape:version="1.1.2 (0a00cf5339, 2022-02-04)"
   xmlns:inkscape="http://www.inkscape.org/namespaces/inkscape"
   xmlns:sodipodi="http://sodipodi.sourceforge.net/DTD/sodipodi-0.dtd"
   xmlns:xlink="http://www.w3.org/1999/xlink"
   xmlns="http://www.w3.org/2000/svg"
   xmlns:svg="http://www.w3.org/2000/svg">
  <defs
     id="defs15">
    <linearGradient
       inkscape:collect="always"
       xlink:href="#_lgradient_24"
       id="linearGradient872"
       x1="-12.025727"
       y1="6.1170783"
       x2="-0.085100174"
       y2="6.1170783"
       gradientUnits="userSpaceOnUse"
       gradientTransform="matrix(3.8358211,0,0,3.8371386,-0.00544341,-0.00268054)" />
    <linearGradient
       inkscape:collect="always"
       xlink:href="#_lgradient_24"
       id="linearGradient15"
       x1="-9.6850061"
       y1="45.161198"
       x2="11.98815"
       y2="21.735205"
       gradientUnits="userSpaceOnUse"
       gradientTransform="matrix(1.1147442,0,0,1.1150348,-0.01237238,-3.3277956)" />
    <linearGradient
       inkscape:collect="always"
       xlink:href="#_lgradient_24"
       id="linearGradient862"
       x1="12.92137"
       y1="11.777969"
       x2="35.121658"
       y2="38.269978"
       gradientUnits="userSpaceOnUse"
       gradientTransform="matrix(0.97220279,0,0,0.97220279,0.66713313,0.66713313)" />
  </defs>
  <sodipodi:namedview
     id="namedview13"
     pagecolor="#ffffff"
     bordercolor="#666666"
     borderopacity="1.0"
     inkscape:pageshadow="2"
     inkscape:pageopacity="0.0"
     inkscape:pagecheckerboard="0"
     inkscape:document-units="pt"
     showgrid="false"
     inkscape:zoom="10.21875"
     inkscape:cx="31.95107"
     inkscape:cy="32"
     inkscape:window-width="1600"
     inkscape:window-height="836"
     inkscape:window-x="0"
     inkscape:window-y="0"
     inkscape:window-maximized="1"
     inkscape:current-layer="svg11" />
  <linearGradient
     id="_lgradient_24"
     x1="-0.014458464773922156"
     y1="0.009839246119734024"
     x2="1.0164565923220248"
     y2="1.0722930524759795"
     gradientTransform="matrix(21.534547,0,0,24.934739,13.232726,11.53263)"
     gradientUnits="userSpaceOnUse">
    <stop
       offset="1.3043478260869565%"
       stop-opacity="1"
       style="stop-color:rgb(254,172,94)"
       id="stop2" />
    <stop
       offset="53.04347826086957%"
       stop-opacity="1"
       style="stop-color:rgb(199,121,208)"
       id="stop4" />
    <stop
       offset="99.56521739130434%"
       stop-opacity="1"
       style="stop-color:rgb(75,192,200)"
       id="stop6" />
  </linearGradient>
  <rect
     x="-46.783188"
     y="1.2253767"
     height="45.80014"
     rx="6.1837621"
     shape-rendering="crispEdges"
     id="rect5-6-7-3"
     ry="6.8055277"
     transform="matrix(0.00524063,-0.99998627,0.99998801,0.00489691,0,0)"
     style="isolation:isolate;fill:#ff6f00;fill-opacity:0.134703;stroke:url(#linearGradient872);stroke-width:2.0301;stroke-miterlimit:4;stroke-dasharray:none;stroke-opacity:1"
     width="45.801998" />
  <rect
     x="-15.686804"
     y="17.260084"
     height="33.345856"
     rx="6.7920032"
     shape-rendering="crispEdges"
     id="rect5-6-6-6-6"
     style="isolation:isolate;fill:#ff6f00;fill-opacity:0.134703;stroke:url(#linearGradient15);stroke-width:1.67233;stroke-miterlimit:4;stroke-dasharray:none;stroke-opacity:1"
     ry="7.4743071"
     transform="matrix(0.72446484,-0.68931175,0.68622417,0.72739012,0,0)"
     width="33.338203" />
  <path
     style="color:#000000;fill:url(#linearGradient862);fill-rule:evenodd;-inkscape-stroke:none"
     d="m 16.287109,11.378906 c -1.791141,0 -3.255859,1.464719 -3.255859,3.25586 v 18.730468 c 0,1.791141 1.464718,3.25586 3.255859,3.25586 h 15.425782 c 1.791141,0 3.255859,-1.464719 3.255859,-3.25586 V 25.101562 C 34.96875,24.222788 34.24401,23.5 33.365234,23.5 c -0.878775,0 -1.601562,0.722788 -1.601562,1.601562 v 5.925782 c -0.236103,-0.21466 -0.536482,-0.365235 -0.876953,-0.365235 -0.726714,0 -1.326172,0.599459 -1.326172,1.326172 0,0.722029 0.59407,1.31265 1.314453,1.320313 -0.09532,0.02511 -0.159905,0.109375 -0.263672,0.109375 h -3.802734 c 0.623979,-0.307878 1.232436,-0.658467 1.732422,-1.158203 1.201342,-1.201942 1.880859,-2.839118 1.880859,-4.541016 v -0.04102 l -0.01172,-0.380859 v -0.002 c -0.02842,-0.712194 -0.637818,-1.274856 -1.349609,-1.25 h -0.002 c -0.711826,0.02574 -1.277341,0.63456 -1.25,1.345703 l 0.01367,0.341797 c -0.0069,1.013856 -0.408228,1.979465 -1.119141,2.691406 -3.93e-4,3.9e-4 -0.0016,-3.89e-4 -0.002,0 -3.9e-4,3.9e-4 3.89e-4,0.0016 0,0.002 -0.720378,0.71351 -1.688497,1.115235 -2.701172,1.115235 -1.013595,0 -1.986571,-0.401629 -2.699219,-1.119141 l -0.002,-0.002 v -0.002 c -0.717514,-0.712649 -1.121094,-1.685625 -1.121094,-2.699219 0,-1.013596 0.40358,-1.98657 1.121094,-2.699219 v -0.002 h 0.002 C 22.013429,24.300065 22.986405,23.896484 24,23.896484 c 1.063617,0 2.084498,0.448483 2.802734,1.228516 0.483913,0.523873 1.315783,0.55831 1.839844,0.07422 0.523328,-0.48431 0.555958,-1.316213 0.07227,-1.839844 -0.955345,-1.031904 -2.249154,-1.586813 -3.615235,-1.832031 0.517538,-0.171443 1.003622,-0.421864 1.396485,-0.810547 l 0.002,-0.002 0.002,-0.002 c 0.655181,-0.662225 1.029297,-1.559182 1.029297,-2.498047 0,-0.938865 -0.374116,-1.833869 -1.029297,-2.496094 l -0.002,-0.002 -0.002,-0.002 C 25.833869,15.059663 24.938865,14.685547 24,14.685547 c -0.615378,0 -1.221076,0.162269 -1.755859,0.464844 h -0.002 v 0.002 c -0.524954,0.302252 -0.710927,0.985932 -0.408203,1.511718 0.302253,0.524955 0.985933,0.710928 1.511719,0.408204 h 0.002 C 23.543228,16.959271 23.774607,16.896484 24,16.896484 c 0.351499,0 0.684854,0.139934 0.931641,0.386719 0.246784,0.246786 0.386718,0.580141 0.386718,0.931641 0,0.351497 -0.139933,0.684854 -0.386718,0.93164 C 24.684855,19.39327 24.351499,19.533203 24,19.533203 c -0.351499,0 -0.684856,-0.139934 -0.931641,-0.386719 -0.246785,-0.246786 -0.386718,-0.580143 -0.386718,-0.93164 0,-0.06732 0.0056,-0.133733 0.01367,-0.191407 0.09061,-0.598432 -0.333335,-1.169201 -0.93164,-1.257812 -0.599367,-0.08776 -1.167177,0.333096 -1.257813,0.931641 l -0.002,0.0078 v 0.0059 c -0.01988,0.159019 -0.0332,0.325732 -0.0332,0.503907 0,0.938865 0.374116,1.835822 1.029297,2.498047 l 0.002,0.002 0.002,0.002 c 0.386145,0.382037 0.86189,0.632204 1.369141,0.804687 -1.274101,0.233791 -2.487544,0.730192 -3.414063,1.65625 -1.201342,1.201942 -1.880859,2.839117 -1.880859,4.541016 0,1.701898 0.679517,3.339074 1.880859,4.541016 0.499986,0.499736 1.108443,0.850325 1.732422,1.158203 h -3.802734 c -0.103767,0 -0.168351,-0.08427 -0.263672,-0.109375 0.720383,-0.0077 1.314453,-0.598284 1.314453,-1.320313 0,-0.726713 -0.599458,-1.326172 -1.326172,-1.326172 -0.340471,0 -0.64085,0.150575 -0.876953,0.365235 V 16.972656 c 0.236103,0.21466 0.536482,0.365235 0.876953,0.365235 0.726714,0 1.326172,-0.599459 1.326172,-1.326172 0,-0.722029 -0.59407,-1.31265 -1.314453,-1.320313 0.09532,-0.02511 0.159905,-0.109375 0.263672,-0.109375 h 13.222656 c 0.103767,0 0.168351,0.08427 0.263672,0.109375 -0.720383,0.0077 -1.314453,0.598284 -1.314453,1.320313 0,0.726713 0.599458,1.326172 1.326172,1.326172 0.340471,0 0.64085,-0.150575 0.876953,-0.365235 v 1.517578 c 0,0.878776 0.722788,1.601563 1.601562,1.601563 0.878775,0 1.603516,-0.722787 1.603516,-1.601563 v -3.855468 c 0,-1.791141 -1.464718,-3.25586 -3.255859,-3.25586 z m 0,1 h 15.425782 c 1.250079,0 2.255859,1.005781 2.255859,2.25586 v 3.855468 c 0,0.337714 -0.265802,0.601563 -0.603516,0.601563 -0.337712,0 -0.601562,-0.263849 -0.601562,-0.601563 v -2.753906 c 0,-1.182897 -0.969447,-2.154297 -2.152344,-2.154297 H 17.388672 c -1.182897,0 -2.152344,0.9714 -2.152344,2.154297 v 16.527344 c 0,1.182897 0.969447,2.154297 2.152344,2.154297 h 13.222656 c 1.182897,0 2.152344,-0.9714 2.152344,-2.154297 v -7.16211 c 0,-0.337711 0.26385,-0.601562 0.601562,-0.601562 0.337714,0 0.603516,0.263851 0.603516,0.601562 v 8.263672 c 0,1.250079 -1.00578,2.25586 -2.255859,2.25586 H 16.287109 c -1.250079,0 -2.255859,-1.005781 -2.255859,-2.25586 V 14.634766 c 0,-1.250079 1.00578,-2.25586 2.255859,-2.25586 z m 0.826172,3.306641 c 0.185653,0 0.326172,0.14052 0.326172,0.326172 0,0.185653 -0.140518,0.326172 -0.326172,0.326172 -0.185652,0 -0.326172,-0.140519 -0.326172,-0.326172 0,-0.185652 0.140521,-0.326172 0.326172,-0.326172 z m 6.886719,0 c 0.672316,0 1.314077,0.267383 1.791016,0.738281 0.470898,0.476939 0.738281,1.1187 0.738281,1.791016 0,0.672317 -0.267382,1.316029 -0.738281,1.792968 -0.476939,0.470899 -1.1187,0.738282 -1.791016,0.738282 -0.672316,0 -1.314077,-0.267383 -1.791016,-0.738282 -0.470899,-0.476939 -0.738281,-1.120651 -0.738281,-1.792968 0,-0.120341 0.008,-0.240625 0.02344,-0.367188 5e-6,-4.4e-5 0.0019,4.5e-5 0.002,0 0.01028,-0.06189 0.05973,-0.09988 0.121093,-0.0918 0.06393,0.0095 0.09755,0.05338 0.08789,0.117188 v 0.002 0.002 c -0.01589,0.111245 -0.02344,0.224763 -0.02344,0.337891 0,0.618164 0.247709,1.206691 0.679687,1.638672 0.431979,0.431979 1.020506,0.679687 1.638672,0.679687 0.618166,0 1.206692,-0.247709 1.638672,-0.679687 0.431978,-0.431981 0.679687,-1.020508 0.679687,-1.638672 0,-0.618166 -0.247709,-1.206692 -0.679687,-1.638672 C 25.206693,16.144194 24.618166,15.896484 24,15.896484 c -0.404889,0 -0.80248,0.108408 -1.152344,0.310547 v -0.002 c -0.05601,0.03225 -0.115714,0.01777 -0.148437,-0.03906 -0.03186,-0.05533 -0.01413,-0.113537 0.04102,-0.146485 6.83e-4,-4.08e-4 -6.94e-4,-0.0016 0,-0.002 C 23.125699,15.80034 23.562304,15.685547 24,15.685547 Z m 6.886719,0 c 0.185651,0 0.326172,0.14052 0.326172,0.326172 0,0.185653 -0.14052,0.326172 -0.326172,0.326172 -0.185654,0 -0.326172,-0.140519 -0.326172,-0.326172 0,-0.185652 0.140519,-0.326172 0.326172,-0.326172 z M 24,17.164062 c -0.574653,0 -1.050781,0.47613 -1.050781,1.050782 0,0.574652 0.476128,1.050781 1.050781,1.050781 0.574653,0 1.050781,-0.476129 1.050781,-1.050781 0,-0.574652 -0.476128,-1.050782 -1.050781,-1.050782 z m 0,1 c 0.03359,0 0.05078,0.01719 0.05078,0.05078 0,0.03359 -0.01719,0.05078 -0.05078,0.05078 -0.03359,0 -0.05078,-0.01719 -0.05078,-0.05078 0,-0.03359 0.01719,-0.05078 0.05078,-0.05078 z m 9.365234,2.029297 c -0.878774,0 -1.601562,0.72474 -1.601562,1.603516 0,0.878775 0.722788,1.601562 1.601562,1.601562 0.878775,0 1.603516,-0.722787 1.603516,-1.601562 0,-0.878776 -0.724741,-1.603516 -1.603516,-1.603516 z m 0,1 c 0.337714,0 0.603516,0.265801 0.603516,0.603516 0,0.337712 -0.265802,0.601563 -0.603516,0.601562 -0.337712,0 -0.601562,-0.26385 -0.601562,-0.601562 0,-0.337715 0.26385,-0.603516 0.601562,-0.603516 z M 24,22.296875 c 1.512197,0 2.954039,0.631549 3.980469,1.740234 0.116837,0.126485 0.109195,0.310413 -0.01758,0.427735 -0.126055,0.11644 -0.309163,0.10867 -0.425782,-0.01758 C 26.628946,23.460965 25.344013,22.896484 24,22.896484 c -1.276868,0 -2.504914,0.508249 -3.40625,1.414063 -0.907776,0.901621 -1.416016,2.129863 -1.416016,3.408203 0,1.276499 0.506789,2.504985 1.41211,3.40625 6.48e-4,6.53e-4 0.0013,0.0013 0.002,0.002 6.52e-4,6.49e-4 0.0013,0.0013 0.002,0.002 0.901264,0.90532 2.129751,1.41211 3.40625,1.41211 1.278338,0 2.500443,-0.507807 3.40625,-1.40625 l 0.002,-0.002 c 0.900125,-0.900123 1.406699,-2.121614 1.414063,-3.398437 v -0.0098 l -0.01367,-0.371093 c -0.0068,-0.170631 0.115874,-0.304355 0.287109,-0.310547 0.171926,-0.006 0.30761,0.121445 0.314453,0.292968 l 0.01172,0.359375 v 0.02344 c 0,1.435185 -0.574433,2.820022 -1.587891,3.833984 -1.013961,1.013457 -2.398799,1.587891 -3.833984,1.587891 -1.435185,0 -2.820023,-0.574434 -3.833984,-1.587891 -1.013458,-1.013962 -1.587891,-2.398799 -1.587891,-3.833984 0,-1.435186 0.574433,-2.820022 1.587891,-3.833984 C 21.179977,22.871309 22.564815,22.296875 24,22.296875 Z m 0,2.71875 c -0.716078,0 -1.40462,0.283525 -1.912109,0.791016 -0.507492,0.507489 -0.791016,1.196031 -0.791016,1.912109 0,0.716076 0.283525,1.404619 0.791016,1.912109 0.507489,0.50749 1.196031,0.791016 1.912109,0.791016 0.716078,0 1.40462,-0.283526 1.912109,-0.791016 0.507491,-0.50749 0.791016,-1.196033 0.791016,-1.912109 0,-0.716078 -0.283524,-1.40462 -0.791016,-1.912109 C 25.40462,25.29915 24.716078,25.015625 24,25.015625 Z m 0,1 c 0.451927,0 0.88615,0.179118 1.205078,0.498047 0.318928,0.318926 0.498047,0.753149 0.498047,1.205078 0,0.451927 -0.179118,0.88615 -0.498047,1.205078 -0.318927,0.318928 -0.753151,0.498047 -1.205078,0.498047 -0.451927,0 -0.886151,-0.179119 -1.205078,-0.498047 -0.318929,-0.318928 -0.498047,-0.753151 -0.498047,-1.205078 0,-0.451929 0.179119,-0.886152 0.498047,-1.205078 C 23.11385,26.194743 23.548073,26.015625 24,26.015625 Z m 0,0.101562 c -0.421334,0 -0.827641,0.170467 -1.126953,0.47461 -0.304144,0.299313 -0.474609,0.705619 -0.47461,1.126953 10e-7,0.421333 0.170467,0.827641 0.47461,1.126953 0.299312,0.304141 0.705619,0.47461 1.126953,0.474609 0.421334,0 0.827641,-0.170468 1.126953,-0.474609 0.304143,-0.299312 0.474609,-0.70562 0.474609,-1.126953 0,-0.421334 -0.170465,-0.82764 -0.474609,-1.126953 C 24.827641,26.287654 24.421334,26.117188 24,26.117187 Z m 0,1 c 0.159925,0 0.310094,0.06304 0.417969,0.173829 l 0.0059,0.0039 0.0039,0.0059 c 0.110789,0.107873 0.173829,0.258042 0.173828,0.417969 0,0.159926 -0.06304,0.310094 -0.173828,0.417969 l -0.0039,0.0059 -0.0059,0.0039 C 24.310094,28.257274 24.159925,28.320312 24,28.320312 c -0.159925,0 -0.310094,-0.06304 -0.417969,-0.173828 l -0.0059,-0.0039 -0.0039,-0.0059 c -0.110791,-0.107875 -0.173828,-0.258043 -0.173829,-0.417969 0,-0.159927 0.06304,-0.310096 0.173829,-0.417969 l 0.0039,-0.0059 0.0059,-0.0039 C 23.689906,27.180225 23.840075,27.117187 24,27.117187 Z m -6.886719,4.544922 c 0.185654,0 0.326172,0.140519 0.326172,0.326172 0,0.185652 -0.140519,0.326172 -0.326172,0.326172 -0.185651,0 -0.326172,-0.14052 -0.326172,-0.326172 0,-0.185653 0.14052,-0.326172 0.326172,-0.326172 z m 13.773438,0 c 0.185652,0 0.326172,0.140519 0.326172,0.326172 0,0.185652 -0.140521,0.326172 -0.326172,0.326172 -0.185653,0 -0.326172,-0.14052 -0.326172,-0.326172 0,-0.185653 0.140518,-0.326172 0.326172,-0.326172 z"
     id="path9" />
</svg>
