<?xml version="1.0" encoding="UTF-8" standalone="no"?>
<!-- Generator: Gravit.io -->

<svg
   style="isolation:isolate"
   viewBox="0 0 48 48"
   width="48pt"
   height="48pt"
   version="1.1"
   id="svg9"
   sodipodi:docname="youtube.svg"
   inkscape:version="1.1.2 (0a00cf5339, 2022-02-04)"
   xmlns:inkscape="http://www.inkscape.org/namespaces/inkscape"
   xmlns:sodipodi="http://sodipodi.sourceforge.net/DTD/sodipodi-0.dtd"
   xmlns:xlink="http://www.w3.org/1999/xlink"
   xmlns="http://www.w3.org/2000/svg"
   xmlns:svg="http://www.w3.org/2000/svg">
  <defs
     id="defs13">
    <linearGradient
       inkscape:collect="always"
       xlink:href="#_lgradient_12"
       id="linearGradient872"
       x1="-12.025727"
       y1="6.1170783"
       x2="-0.085100174"
       y2="6.1170783"
       gradientUnits="userSpaceOnUse"
       gradientTransform="matrix(3.8358211,0,0,3.8371386,-0.00544341,-0.00268054)" />
    <linearGradient
       inkscape:collect="always"
       xlink:href="#_lgradient_12"
       id="linearGradient15"
       x1="-9.6850061"
       y1="45.161198"
       x2="11.98815"
       y2="21.735205"
       gradientUnits="userSpaceOnUse"
       gradientTransform="matrix(1.1147442,0,0,1.1150348,-0.01237238,-3.3277956)" />
    <linearGradient
       inkscape:collect="always"
       xlink:href="#_lgradient_12"
       id="linearGradient968"
       x1="11.782024"
       y1="24"
       x2="36.217976"
       y2="24"
       gradientUnits="userSpaceOnUse" />
  </defs>
  <sodipodi:namedview
     id="namedview11"
     pagecolor="#ffffff"
     bordercolor="#666666"
     borderopacity="1.0"
     inkscape:pageshadow="2"
     inkscape:pageopacity="0.0"
     inkscape:pagecheckerboard="0"
     inkscape:document-units="pt"
     showgrid="false"
     inkscape:zoom="10.21875"
     inkscape:cx="28.574924"
     inkscape:cy="32"
     inkscape:window-width="1600"
     inkscape:window-height="836"
     inkscape:window-x="0"
     inkscape:window-y="0"
     inkscape:window-maximized="1"
     inkscape:current-layer="svg9" />
  <linearGradient
     id="_lgradient_12"
     x1="0"
     y1="0.5"
     x2="0.9074880558539661"
     y2="0.9200778838291643"
     gradientTransform="matrix(24.435953,0,0,21.177652,11.782024,13.410914)"
     gradientUnits="userSpaceOnUse">
    <stop
       offset="0%"
       stop-opacity="1"
       style="stop-color:rgb(255,65,108)"
       id="stop2" />
    <stop
       offset="84.34782608695653%"
       stop-opacity="1"
       style="stop-color:rgb(255,75,43)"
       id="stop4" />
  </linearGradient>
  <rect
     x="-46.783188"
     y="1.2253767"
     height="45.80014"
     rx="6.1837621"
     shape-rendering="crispEdges"
     id="rect5-6-7-3"
     ry="6.8055277"
     transform="matrix(0.00524063,-0.99998627,0.99998801,0.00489691,0,0)"
     style="isolation:isolate;fill:#ff0300;fill-opacity:0.13470298;stroke:url(#linearGradient872);stroke-width:2.0301;stroke-miterlimit:4;stroke-dasharray:none;stroke-opacity:1"
     width="45.801998" />
  <rect
     x="-15.686804"
     y="17.260084"
     height="33.345856"
     rx="6.7920032"
     shape-rendering="crispEdges"
     id="rect5-6-6-6-6"
     style="isolation:isolate;fill:#ff0300;fill-opacity:0.13470298;stroke:url(#linearGradient15);stroke-width:1.67233;stroke-miterlimit:4;stroke-dasharray:none;stroke-opacity:1"
     ry="7.4743071"
     transform="matrix(0.72446484,-0.68931175,0.68622417,0.72739012,0,0)"
     width="33.338203" />
  <path
     style="color:#000000;fill:url(#linearGradient968);fill-rule:evenodd;-inkscape-stroke:none"
     d="m 15.041016,12.910156 c -0.995625,0 -1.955054,0.39571 -2.658203,1.105469 -0.707346,0.702428 -1.101563,1.660142 -1.101563,2.654297 v 8.144531 c 0,0.870058 0.715879,1.585938 1.585938,1.585938 0.870057,0 1.58789,-0.715879 1.58789,-1.585938 v -8.144531 c 0,-0.156263 0.05976,-0.302716 0.167969,-0.408203 l 0.0059,-0.0059 0.0039,-0.0039 c 0.104386,-0.107361 0.25194,-0.167969 0.408203,-0.167969 h 9.773437 c 0.870058,0 1.585938,-0.717832 1.585938,-1.58789 0,-0.870058 -0.71588,-1.585938 -1.585938,-1.585938 z m 14.660156,0 c -0.870058,0 -1.585938,0.71588 -1.585938,1.585938 0,0.870058 0.71588,1.58789 1.585938,1.58789 h 3.257812 c 0.156263,0 0.303817,0.06061 0.408203,0.167969 l 0.0039,0.0039 0.0059,0.0059 c 0.108213,0.105487 0.167969,0.25194 0.167969,0.408203 v 4.886719 c 0,0.870058 0.717832,1.585937 1.58789,1.585937 0.870059,0 1.585938,-0.71588 1.585938,-1.585937 v -4.886719 c 0,-0.994155 -0.394217,-1.951869 -1.101563,-2.654297 -0.703149,-0.709759 -1.662578,-1.105469 -2.658203,-1.105469 z m -14.660156,1 h 9.773437 c 0.328863,0 0.585938,0.257075 0.585938,0.585938 0,0.328862 -0.257075,0.58789 -0.585938,0.58789 h -9.773437 c -0.41706,0 -0.82071,0.1671 -1.117188,0.46875 -0.30082,0.296414 -0.46875,0.700128 -0.46875,1.117188 v 8.144531 c 0,0.328862 -0.259029,0.585938 -0.58789,0.585938 -0.328863,0 -0.585938,-0.257075 -0.585938,-0.585938 v -8.144531 c 0,-0.731528 0.290921,-1.434417 0.808594,-1.947266 l 0.002,-0.002 0.002,-0.002 c 0.51345,-0.518276 1.215738,-0.808594 1.947266,-0.808594 z m 14.660156,0 h 3.257812 c 0.731528,0 1.433816,0.290318 1.947266,0.808594 l 0.002,0.002 0.002,0.002 c 0.517673,0.512849 0.808594,1.215738 0.808594,1.947266 v 4.886719 c 0,0.328861 -0.257075,0.585937 -0.585938,0.585937 -0.32886,0 -0.58789,-0.257077 -0.58789,-0.585937 v -4.886719 c 0,-0.41706 -0.16793,-0.820774 -0.46875,-1.117188 -0.296478,-0.30165 -0.700128,-0.46875 -1.117188,-0.46875 h -3.257812 c -0.328863,0 -0.585938,-0.259028 -0.585938,-0.58789 0,-0.328863 0.257075,-0.585938 0.585938,-0.585938 z m -10.001953,4.328125 -0.269532,0.197266 c -0.014,0.01025 -0.04137,0.02927 -0.06055,0.04297 l -0.208985,0.148437 v 0.257813 c 0,0 -0.002,2.425403 0,4.855468 9.75e-4,1.215033 0.0027,2.430835 0.0059,3.345703 0.0016,0.457435 0.0035,0.839371 0.0059,1.109375 0.0012,0.135003 0.0025,0.242197 0.0039,0.31836 7.28e-4,0.03808 9.47e-4,0.06801 0.002,0.09375 5.03e-4,0.01287 0.0026,0.02416 0.0039,0.04102 6.42e-4,0.0084 9.86e-4,0.01644 0.0039,0.03711 0.0015,0.01033 0.0097,0.05037 0.0098,0.05078 1.01e-4,4.14e-4 0.103415,0.204958 0.103516,0.205078 l 0.275391,0.324219 8.724609,-5.220703 v -0.283203 c 0,-2.03e-4 -0.09155,-0.288713 -0.0918,-0.289063 -2.45e-4,-3.49e-4 -0.04228,-0.05189 -0.05469,-0.06445 -0.02482,-0.02513 -0.03683,-0.03487 -0.04687,-0.04297 -0.02009,-0.01619 -0.03063,-0.02257 -0.04297,-0.03125 -0.02467,-0.01735 -0.04994,-0.03573 -0.08203,-0.05664 -0.06418,-0.04182 -0.151996,-0.09612 -0.263672,-0.166016 -0.223353,-0.139791 -0.538896,-0.335989 -0.917969,-0.568359 -0.758145,-0.464741 -1.767921,-1.077182 -2.777344,-1.689453 -2.018844,-1.224544 -4.037109,-2.44336 -4.037109,-2.44336 z m 0.460937,1.447266 c 0.525042,0.316936 1.671053,1.008084 3.341797,2.021484 1.008752,0.611865 2.017953,1.226344 2.773438,1.689453 0.236529,0.144992 0.391463,0.240879 0.570312,0.351563 l -6.675781,3.996094 c -0.0012,-0.210738 -0.003,-0.387034 -0.0039,-0.660157 -0.0032,-0.913098 -0.0049,-2.129162 -0.0059,-3.34375 -0.0016,-2.028546 -2.54e-4,-3.441584 0,-4.054687 z m 14.972656,5.714844 c -0.870058,0 -1.58789,0.716164 -1.58789,1.585937 v 4.34375 c 0,0.156263 -0.05976,0.302716 -0.167969,0.408203 l -0.0059,0.0059 -0.0039,0.0039 c -0.104386,0.107361 -0.25194,0.167969 -0.408203,0.167969 H 15.041016 c -0.156263,0 -0.303817,-0.06061 -0.408203,-0.167969 l -0.0039,-0.0039 -0.0059,-0.0059 c -0.108213,-0.105487 -0.167969,-0.25194 -0.167969,-0.408203 v -1.085937 c 0,-0.870059 -0.717833,-1.585938 -1.58789,-1.585938 -0.870059,0 -1.585938,0.715879 -1.585938,1.585938 v 1.085937 c 0,0.994155 0.394217,1.951869 1.101563,2.654297 0.703149,0.709759 1.662578,1.105469 2.658203,1.105469 h 17.917968 c 0.995625,0 1.955054,-0.39571 2.658203,-1.105469 0.707346,-0.702428 1.101563,-1.660142 1.101563,-2.654297 v -4.34375 c 0,-0.869772 -0.715879,-1.585937 -1.585938,-1.585937 z m 0,1 c 0.328863,0 0.585938,0.257831 0.585938,0.585937 v 4.34375 c 0,0.731528 -0.290921,1.434417 -0.808594,1.947266 l -0.002,0.002 -0.002,0.002 c -0.51345,0.518276 -1.215738,0.808594 -1.947266,0.808594 H 15.041016 c -0.731528,0 -1.433816,-0.290318 -1.947266,-0.808594 l -0.002,-0.002 -0.002,-0.002 C 12.572171,32.764495 12.28125,32.061606 12.28125,31.330078 v -1.085937 c 0,-0.328863 0.257075,-0.585938 0.585938,-0.585938 0.328861,0 0.58789,0.257076 0.58789,0.585938 v 1.085937 c 0,0.41706 0.16793,0.820774 0.46875,1.117188 0.296478,0.30165 0.700128,0.46875 1.117188,0.46875 h 17.917968 c 0.41706,0 0.82071,-0.1671 1.117188,-0.46875 0.30082,-0.296414 0.46875,-0.700128 0.46875,-1.117188 v -4.34375 c 0,-0.328106 0.25903,-0.585937 0.58789,-0.585937 z"
     id="path7" />
</svg>
