<?xml version="1.0" encoding="UTF-8" standalone="no"?>
<!-- Generator: Gravit.io -->

<svg
   style="isolation:isolate"
   viewBox="0 0 48 48"
   width="48pt"
   height="48pt"
   version="1.1"
   id="svg11"
   sodipodi:docname="youtube-music.svg"
   inkscape:version="1.1.2 (0a00cf5339, 2022-02-04)"
   xmlns:inkscape="http://www.inkscape.org/namespaces/inkscape"
   xmlns:sodipodi="http://sodipodi.sourceforge.net/DTD/sodipodi-0.dtd"
   xmlns:xlink="http://www.w3.org/1999/xlink"
   xmlns="http://www.w3.org/2000/svg"
   xmlns:svg="http://www.w3.org/2000/svg">
  <defs
     id="defs15">
    <linearGradient
       inkscape:collect="always"
       xlink:href="#_lgradient_2"
       id="linearGradient872"
       x1="-12.025727"
       y1="6.1170783"
       x2="-0.085100174"
       y2="6.1170783"
       gradientUnits="userSpaceOnUse"
       gradientTransform="matrix(3.8358211,0,0,3.8371386,-0.00544341,-0.00268054)" />
    <linearGradient
       inkscape:collect="always"
       xlink:href="#_lgradient_2"
       id="linearGradient15"
       x1="-9.6850061"
       y1="45.161198"
       x2="11.98815"
       y2="21.735205"
       gradientUnits="userSpaceOnUse"
       gradientTransform="matrix(1.1147442,0,0,1.1150348,-0.01237238,-3.3277956)" />
    <linearGradient
       inkscape:collect="always"
       xlink:href="#_lgradient_2"
       id="linearGradient1333"
       x1="16.333334"
       y1="1.7560976"
       x2="48.418503"
       y2="48.611153"
       gradientUnits="userSpaceOnUse" />
  </defs>
  <sodipodi:namedview
     id="namedview13"
     pagecolor="#ffffff"
     bordercolor="#666666"
     borderopacity="1.0"
     inkscape:pageshadow="2"
     inkscape:pageopacity="0.0"
     inkscape:pagecheckerboard="0"
     inkscape:document-units="pt"
     showgrid="false"
     inkscape:zoom="5.109375"
     inkscape:cx="32"
     inkscape:cy="32"
     inkscape:window-width="1056"
     inkscape:window-height="545"
     inkscape:window-x="283"
     inkscape:window-y="75"
     inkscape:window-maximized="0"
     inkscape:current-layer="svg11" />
  <linearGradient
     id="_lgradient_2"
     x1="0.34027777777777773"
     y1="0.036585365853658625"
     x2="1.0087187958883996"
     y2="1.012732351993124"
     gradientTransform="matrix(48,0,0,48,0,0)"
     gradientUnits="userSpaceOnUse">
    <stop
       offset="0%"
       stop-opacity="1"
       style="stop-color:rgb(156,51,196)"
       id="stop2" />
    <stop
       offset="51.30434782608696%"
       stop-opacity="1"
       style="stop-color:rgb(255,25,80)"
       id="stop4" />
    <stop
       offset="98.69565217391305%"
       stop-opacity="1"
       style="stop-color:rgb(255,135,36)"
       id="stop6" />
  </linearGradient>
  <rect
     x="-46.783188"
     y="1.2253767"
     height="45.80014"
     rx="6.1837621"
     shape-rendering="crispEdges"
     id="rect5-6-7-3"
     ry="6.8055277"
     transform="matrix(0.00524063,-0.99998627,0.99998801,0.00489691,0,0)"
     style="isolation:isolate;fill:#ff0015;fill-opacity:0.13470298;stroke:url(#linearGradient872);stroke-width:2.0301;stroke-miterlimit:4;stroke-dasharray:none;stroke-opacity:1"
     width="45.801998" />
  <rect
     x="-15.686804"
     y="17.260084"
     height="33.345856"
     rx="6.7920032"
     shape-rendering="crispEdges"
     id="rect5-6-6-6-6"
     style="isolation:isolate;fill:#ff0015;fill-opacity:0.13470298;stroke:url(#linearGradient15);stroke-width:1.67233;stroke-miterlimit:4;stroke-dasharray:none;stroke-opacity:1"
     ry="7.4743071"
     transform="matrix(0.72446484,-0.68931175,0.68622417,0.72739012,0,0)"
     width="33.338203" />
  <path
     style="color:#000000;fill:url(#linearGradient1333);fill-rule:evenodd;-inkscape-stroke:none"
     d="m 24,10 c -7.721605,0 -14,6.278395 -14,14 0,7.721605 6.278395,14 14,14 7.721605,0 14,-6.278395 14,-14 0,-7.721605 -6.278395,-14 -14,-14 z m 0,1 c 7.18038,0 13,5.81962 13,13 0,7.18038 -5.81962,13 -13,13 -7.18038,0 -13,-5.81962 -13,-13 0,-7.18038 5.81962,-13 13,-13 z m 0,2 c -2.912171,0 -5.719116,1.160854 -7.773438,3.224609 C 14.161585,18.279105 13,21.086909 13,24 c 0,2.912171 1.160854,5.719116 3.224609,7.773437 3.89e-4,3.91e-4 0.0016,-3.9e-4 0.002,0 3.91e-4,3.89e-4 -3.9e-4,0.0016 0,0.002 C 18.280884,33.839146 21.087829,35 24,35 c 2.912171,0 5.719116,-1.160854 7.773437,-3.224609 l 0.002,-0.002 C 33.839146,29.719116 35,26.912171 35,24 35,21.087829 33.839146,18.280884 31.775391,16.226562 29.720895,14.161585 26.913091,13 24,13 Z m 0,1 c 2.646904,0 5.200905,1.058575 7.066406,2.933594 C 32.941425,18.799095 34,21.353096 34,24 34,26.646904 32.941425,29.200905 31.066406,31.066406 29.200905,32.941425 26.646904,34 24,34 21.353096,34 18.799095,32.941425 16.933594,31.066406 15.058575,29.200905 14,26.646904 14,24 14,21.353096 15.058575,18.799095 16.933594,16.933594 18.799095,15.058575 21.353096,14 24,14 Z m -4.5,3.117187 V 24 30.882812 L 25.257812,27.429687 30.972656,24 l -0.714844,-0.429688 -5,-3 z m 1,1.767579 4.242187,2.544921 L 29.025391,24 24.742187,26.570312 20.5,29.115234 V 24 Z"
     id="path9" />
</svg>
