<?xml version="1.0" encoding="UTF-8" standalone="no"?>
<!-- Generator: Gravit.io -->

<svg
   style="isolation:isolate"
   viewBox="0 0 48 48"
   width="48pt"
   height="48pt"
   version="1.1"
   id="svg9"
   sodipodi:docname="yuna.svg"
   inkscape:version="1.1.2 (0a00cf5339, 2022-02-04)"
   xmlns:inkscape="http://www.inkscape.org/namespaces/inkscape"
   xmlns:sodipodi="http://sodipodi.sourceforge.net/DTD/sodipodi-0.dtd"
   xmlns:xlink="http://www.w3.org/1999/xlink"
   xmlns="http://www.w3.org/2000/svg"
   xmlns:svg="http://www.w3.org/2000/svg">
  <defs
     id="defs13">
    <linearGradient
       inkscape:collect="always"
       xlink:href="#_lgradient_15"
       id="linearGradient872"
       x1="-12.025727"
       y1="6.1170783"
       x2="-0.085100174"
       y2="6.1170783"
       gradientUnits="userSpaceOnUse"
       gradientTransform="matrix(3.8358211,0,0,3.8371386,-0.00544341,-0.00268054)" />
    <linearGradient
       inkscape:collect="always"
       xlink:href="#_lgradient_15"
       id="linearGradient15"
       x1="-9.6850061"
       y1="45.161198"
       x2="11.98815"
       y2="21.735205"
       gradientUnits="userSpaceOnUse"
       gradientTransform="matrix(1.1147442,0,0,1.1150348,-0.01237238,-3.3277956)" />
    <linearGradient
       inkscape:collect="always"
       xlink:href="#_lgradient_15"
       id="linearGradient1058"
       x1="9.2144241"
       y1="23.365"
       x2="38.785576"
       y2="23.365"
       gradientUnits="userSpaceOnUse" />
  </defs>
  <sodipodi:namedview
     id="namedview11"
     pagecolor="#ffffff"
     bordercolor="#666666"
     borderopacity="1.0"
     inkscape:pageshadow="2"
     inkscape:pageopacity="0.0"
     inkscape:pagecheckerboard="0"
     inkscape:document-units="pt"
     showgrid="false"
     inkscape:zoom="10.21875"
     inkscape:cx="31.95107"
     inkscape:cy="32"
     inkscape:window-width="1600"
     inkscape:window-height="836"
     inkscape:window-x="0"
     inkscape:window-y="0"
     inkscape:window-maximized="1"
     inkscape:current-layer="svg9" />
  <linearGradient
     id="_lgradient_15"
     x1="0.6718099850460906"
     y1="0.020570018975650584"
     x2="0.4221494918345081"
     y2="0.9601645064179158"
     gradientTransform="matrix(29.571152,0,0,28.772102,9.2144239,8.978949)"
     gradientUnits="userSpaceOnUse">
    <stop
       offset="0%"
       stop-opacity="1"
       style="stop-color:rgb(26,108,255)"
       id="stop2" />
    <stop
       offset="100%"
       stop-opacity="1"
       style="stop-color:rgb(197,34,255)"
       id="stop4" />
  </linearGradient>
  <rect
     x="-46.783188"
     y="1.2253767"
     height="45.80014"
     rx="6.1837621"
     shape-rendering="crispEdges"
     id="rect5-6-7-3"
     ry="6.8055277"
     transform="matrix(0.00524063,-0.99998627,0.99998801,0.00489691,0,0)"
     style="isolation:isolate;fill:#db00ff;fill-opacity:0.13470298;stroke:url(#linearGradient872);stroke-width:2.0301;stroke-miterlimit:4;stroke-dasharray:none;stroke-opacity:1"
     width="45.801998" />
  <rect
     x="-15.686804"
     y="17.260084"
     height="33.345856"
     rx="6.7920032"
     shape-rendering="crispEdges"
     id="rect5-6-6-6-6"
     style="isolation:isolate;fill:#db00ff;fill-opacity:0.13470298;stroke:url(#linearGradient15);stroke-width:1.67233;stroke-miterlimit:4;stroke-dasharray:none;stroke-opacity:1"
     ry="7.4743071"
     transform="matrix(0.72446484,-0.68931175,0.68622417,0.72739012,0,0)"
     width="33.338203" />
  <path
     style="color:#000000;fill:url(#linearGradient1058);fill-rule:evenodd;-inkscape-stroke:none"
     d="m 24,8.4785156 c -4.052438,0 -7.942407,1.6129734 -10.810547,4.4746094 v 0.002 c -2.861636,2.86814 -4.4746092,6.756157 -4.4746092,10.808594 0,3.069978 0.9240217,6.070553 2.6542972,8.607422 1.729529,2.535776 4.180953,4.491828 7.035156,5.617187 0.897521,0.356561 1.927148,-0.08912 2.279297,-0.988281 0.351848,-0.898394 -0.09445,-1.928084 -0.992188,-2.28125 h -0.002 c -2.195711,-0.86297 -4.084912,-2.371572 -5.412109,-4.326172 v -0.002 c -1.334068,-1.955828 -2.046875,-4.260936 -2.046875,-6.626953 0,-3.120007 1.243854,-6.112818 3.447265,-8.322266 0.156068,-0.155789 0.328392,-0.289504 0.492188,-0.435547 l 3.09375,11.136719 c 0.395163,1.422184 1.738754,2.404827 3.191406,2.623047 v 7.726562 c 0,0.965139 0.794628,1.759766 1.759766,1.759766 0.965137,0 1.757812,-0.794627 1.757812,-1.759766 v -7.720703 c 1.459609,-0.212481 2.794267,-1.216736 3.154297,-2.658203 l 2.763672,-11.054687 c 0.143409,0.129624 0.295963,0.247644 0.433594,0.384765 2.202195,2.209259 3.445312,5.201227 3.445312,8.320313 0,2.269058 -0.659031,4.490675 -1.890625,6.398437 h 0.002 c -1.237755,1.907956 -2.994447,3.416312 -5.064453,4.345703 -0.881607,0.395414 -1.283106,1.445023 -0.886719,2.326172 0.395708,0.8797 1.442985,1.27954 2.322266,0.882813 2.6915,-1.209225 4.974059,-3.167228 6.574219,-5.644531 l 0.002,-0.002 c 1.6061,-2.471855 2.457031,-5.360965 2.457031,-8.30664 0,-4.052437 -1.612973,-7.940454 -4.474609,-10.808594 v -0.002 C 31.942407,10.091489 28.052438,8.4785156 24,8.4785156 Z m 0,1 c 3.787056,0 7.422351,1.5085094 10.103516,4.1835934 2.674411,2.681061 4.18164,6.315017 4.18164,10.101563 0,2.753759 -0.795782,5.454299 -2.296875,7.763672 h -0.002 c -1.495296,2.315886 -3.627327,4.146425 -6.144531,5.277343 h -0.002 c -0.384098,0.173303 -0.823724,0.0067 -0.998047,-0.380859 v -0.002 c -0.173644,-0.386003 -0.0065,-0.827337 0.382812,-1.001953 h 0.002 c 2.24612,-1.008463 4.150336,-2.646428 5.492188,-4.714844 1.335432,-2.06861 2.050781,-4.479085 2.050781,-6.941406 0,-3.385641 -1.348731,-6.6332 -3.738281,-9.029297 h -0.002 c -0.353941,-0.352632 -0.726086,-0.683633 -1.115235,-0.990234 l -0.607421,-0.478516 -0.1875,0.75 -2.960938,11.853516 c -0.273012,1.093069 -1.515894,2.064453 -2.642578,2.064453 h -0.542969 v 8.558593 c 0,0.424077 -0.333737,0.759766 -0.757812,0.759766 -0.424077,0 -0.759766,-0.335689 -0.759766,-0.759766 V 27.933594 H 22.9375 c -1.128495,0 -2.406943,-0.971553 -2.708984,-2.058594 L 16.71875,13.248047 16.130859,13.708984 c -0.404478,0.316122 -0.792668,0.658558 -1.160156,1.025391 h -0.002 c -2.38955,2.396097 -3.738281,5.643656 -3.738281,9.029297 0,2.566697 0.773826,5.070194 2.220703,7.191406 1.4408,2.121386 3.489506,3.756969 5.873047,4.693359 v 0.002 c 0.393646,0.154468 0.584767,0.588401 0.429687,0.984375 -0.154964,0.395678 -0.585669,0.582624 -0.980469,0.425781 l -0.002,-0.002 c -2.66886,-1.051739 -4.959009,-2.880926 -6.576171,-5.251953 -1.616926,-2.37068 -2.4804693,-5.173555 -2.4804692,-8.042969 0,-3.786546 1.5072292,-7.420502 4.1816402,-10.101563 C 16.577649,10.987025 20.212944,9.4785156 24,9.4785156 Z m 0,1.5175784 c -1.939081,0 -3.832753,0.442588 -5.546875,1.269531 l -0.376953,0.181641 3.4375,12.390625 c 0.255384,0.920247 1.122649,1.578125 2.078125,1.578125 H 24.8125 c 0.957287,0 1.815274,-0.671474 2.046875,-1.59961 L 29.943359,12.457031 29.578125,12.28125 C 27.855505,11.444493 25.950842,10.996094 24,10.996094 Z m 0,1 c 1.661858,0 3.274764,0.388103 4.765625,1.050781 l -2.876953,11.527344 c -0.104378,0.418293 -0.644247,0.841797 -1.076172,0.841797 h -1.220703 c -0.433737,0 -0.997454,-0.428331 -1.113281,-0.845704 L 19.277344,13.029297 C 20.756445,12.378734 22.353865,11.996094 24,11.996094 Z"
     id="path7" />
</svg>
