<?xml version="1.0" encoding="UTF-8" standalone="no"?>
<!-- Generator: Gravit.io -->

<svg
   style="isolation:isolate"
   viewBox="0 0 48 48"
   width="48pt"
   height="48pt"
   version="1.1"
   id="svg9"
   sodipodi:docname="zeal.svg"
   inkscape:version="1.1.2 (0a00cf5339, 2022-02-04)"
   xmlns:inkscape="http://www.inkscape.org/namespaces/inkscape"
   xmlns:sodipodi="http://sodipodi.sourceforge.net/DTD/sodipodi-0.dtd"
   xmlns:xlink="http://www.w3.org/1999/xlink"
   xmlns="http://www.w3.org/2000/svg"
   xmlns:svg="http://www.w3.org/2000/svg">
  <defs
     id="defs13">
    <linearGradient
       inkscape:collect="always"
       xlink:href="#_lgradient_67"
       id="linearGradient872"
       x1="-12.025727"
       y1="6.1170783"
       x2="-0.085100174"
       y2="6.1170783"
       gradientUnits="userSpaceOnUse"
       gradientTransform="matrix(3.8358211,0,0,3.8371386,-0.00544341,-0.00268054)" />
    <linearGradient
       inkscape:collect="always"
       xlink:href="#_lgradient_67"
       id="linearGradient15"
       x1="-9.6850061"
       y1="45.161198"
       x2="11.98815"
       y2="21.735205"
       gradientUnits="userSpaceOnUse"
       gradientTransform="matrix(1.1147442,0,0,1.1150348,-0.01237238,-3.3277956)" />
    <linearGradient
       inkscape:collect="always"
       xlink:href="#_lgradient_67"
       id="linearGradient986"
       x1="12.869792"
       y1="24"
       x2="35.130207"
       y2="24"
       gradientUnits="userSpaceOnUse" />
  </defs>
  <sodipodi:namedview
     id="namedview11"
     pagecolor="#ffffff"
     bordercolor="#666666"
     borderopacity="1.0"
     inkscape:pageshadow="2"
     inkscape:pageopacity="0.0"
     inkscape:pagecheckerboard="0"
     inkscape:document-units="pt"
     showgrid="false"
     inkscape:zoom="10.21875"
     inkscape:cx="31.95107"
     inkscape:cy="32"
     inkscape:window-width="1600"
     inkscape:window-height="836"
     inkscape:window-x="0"
     inkscape:window-y="0"
     inkscape:window-maximized="1"
     inkscape:current-layer="svg9" />
  <linearGradient
     id="_lgradient_67"
     x1="0"
     y1="0.5"
     x2="1"
     y2="0.5"
     gradientTransform="matrix(22.260417,0,0,22.778101,12.869791,12.610949)"
     gradientUnits="userSpaceOnUse">
    <stop
       offset="0%"
       stop-opacity="1"
       style="stop-color:rgb(255,229,59)"
       id="stop2" />
    <stop
       offset="98.69565217391305%"
       stop-opacity="1"
       style="stop-color:rgb(255,0,91)"
       id="stop4" />
  </linearGradient>
  <rect
     x="-46.783188"
     y="1.2253767"
     height="45.80014"
     rx="6.1837621"
     shape-rendering="crispEdges"
     id="rect5-6-7-3"
     ry="6.8055277"
     transform="matrix(0.00524063,-0.99998627,0.99998801,0.00489691,0,0)"
     style="isolation:isolate;fill:#ff003b;fill-opacity:0.13470298;stroke:url(#linearGradient872);stroke-width:2.0301;stroke-miterlimit:4;stroke-dasharray:none;stroke-opacity:1"
     width="45.801998" />
  <rect
     x="-15.686804"
     y="17.260084"
     height="33.345856"
     rx="6.7920032"
     shape-rendering="crispEdges"
     id="rect5-6-6-6-6"
     style="isolation:isolate;fill:#ff003b;fill-opacity:0.13470298;stroke:url(#linearGradient15);stroke-width:1.67233;stroke-miterlimit:4;stroke-dasharray:none;stroke-opacity:1"
     ry="7.4743071"
     transform="matrix(0.72446484,-0.68931175,0.68622417,0.72739012,0,0)"
     width="33.338203" />
  <path
     style="color:#000000;fill:url(#linearGradient986);fill-rule:evenodd;-inkscape-stroke:none"
     d="m 15.458984,12.111328 c -1.699337,0 -3.089843,1.388553 -3.089843,3.087891 v 3.123047 1 13.478515 c 0,1.699338 1.390506,3.087891 3.089843,3.087891 h 3.105469 1.035156 13.458985 c 1.413576,0 2.572265,-1.156736 2.572265,-2.570313 v -2.070312 c 0,-0.842054 -0.693102,-1.535156 -1.535156,-1.535156 -0.842054,0 -1.537109,0.693102 -1.537109,1.535156 v 1.035156 c 0,0.300991 -0.234165,0.535156 -0.535157,0.535156 H 19.599609 19.064453 V 15.181641 h 0.535156 12.423828 c 0.300992,0 0.535157,0.234165 0.535157,0.535156 v 10.353515 c 0,0.842055 0.695055,1.535157 1.537109,1.535157 0.842054,0 1.535156,-0.693102 1.535156,-1.535157 V 14.681641 c 0,-1.413577 -1.158689,-2.570313 -2.572265,-2.570313 H 19.599609 18.564453 Z m 0,1 h 3.105469 1.035156 13.458985 c 0.872513,0 1.572265,0.697799 1.572265,1.570313 v 11.388671 c 0,0.300993 -0.234165,0.535157 -0.535156,0.535157 -0.300991,0 -0.537109,-0.234164 -0.537109,-0.535157 V 15.716797 c 0,-0.842054 -0.693103,-1.535156 -1.535157,-1.535156 H 19.599609 18.064453 v 19.636718 h 1.535156 12.423828 c 0.842054,0 1.535157,-0.693102 1.535157,-1.535156 v -1.035156 c 0,-0.300993 0.236118,-0.535156 0.537109,-0.535156 0.300991,0 0.535156,0.234163 0.535156,0.535156 v 2.070312 c 0,0.872514 -0.699752,1.570313 -1.572265,1.570313 H 19.599609 18.564453 15.458984 c -1.158275,0 -2.089843,-0.929615 -2.089843,-2.087891 V 19.322266 h 1.072265 v 12.443359 c 0,1.127815 0.92492,2.052734 2.052735,2.052734 h 0.5 V 14.181641 h -0.5 c -1.127815,0 -2.052735,0.924919 -2.052735,2.052734 v 2.087891 h -1.072265 v -3.123047 c 0,-1.158276 0.931568,-2.087891 2.089843,-2.087891 z m 0.535157,2.275391 v 17.226562 c -0.311313,-0.1818 -0.552735,-0.457014 -0.552735,-0.847656 v -12.443359 -1 -2.087891 c 0,-0.390642 0.241422,-0.665856 0.552735,-0.847656 z m 5.175781,2.046875 v 2.427734 h 0.5 5.734375 l -6.06836,8.619141 v 2.085937 H 30.5625 v -2.427734 h -5.75 l 6.158203,-8.796875 v -1.908203 z m 1,1 h 7.800781 v 0.59375 L 22.890625,29.138672 H 29.5625 v 0.427734 h -7.226563 v -0.769531 l 6.996094,-9.935547 h -7.162109 z"
     id="path7" />
</svg>
