<?xml version="1.0" encoding="UTF-8" standalone="no"?>
<!-- Created with Inkscape (http://www.inkscape.org/) -->

<svg
   width="12.965mm"
   height="12.965mm"
   version="1.1"
   viewBox="0 0 12.965 12.965"
   id="svg37"
   sodipodi:docname="Zettlr.svg"
   inkscape:version="1.1.2 (0a00cf5339, 2022-02-04)"
   xmlns:inkscape="http://www.inkscape.org/namespaces/inkscape"
   xmlns:sodipodi="http://sodipodi.sourceforge.net/DTD/sodipodi-0.dtd"
   xmlns:xlink="http://www.w3.org/1999/xlink"
   xmlns="http://www.w3.org/2000/svg"
   xmlns:svg="http://www.w3.org/2000/svg">
  <sodipodi:namedview
     id="namedview39"
     pagecolor="#ffffff"
     bordercolor="#666666"
     borderopacity="1.0"
     inkscape:pageshadow="2"
     inkscape:pageopacity="0.0"
     inkscape:pagecheckerboard="0"
     inkscape:document-units="mm"
     showgrid="false"
     inkscape:zoom="13.34651"
     inkscape:cx="24.463325"
     inkscape:cy="24.500788"
     inkscape:window-width="1600"
     inkscape:window-height="836"
     inkscape:window-x="0"
     inkscape:window-y="0"
     inkscape:window-maximized="1"
     inkscape:current-layer="svg37" />
  <defs
     id="defs22">
    <linearGradient
       id="linearGradient32491"
       x1="5309.6"
       x2="5372.3"
       y1="5390.1"
       y2="5377.6"
       gradientTransform="matrix(.85507 0 0 .85507 380.34 350.72)"
       gradientUnits="userSpaceOnUse">
      <stop
         stop-color="#2ad183"
         offset="0"
         id="stop17" />
      <stop
         stop-color="#1db489"
         offset="1"
         id="stop19" />
    </linearGradient>
    <linearGradient
       inkscape:collect="always"
       xlink:href="#linearGradient32491"
       id="linearGradient872"
       x1="-12.025727"
       y1="6.1170783"
       x2="-0.085100174"
       y2="6.1170783"
       gradientUnits="userSpaceOnUse"
       gradientTransform="matrix(1.021396,0,0,1.007894,-0.09238034,0.17823556)" />
    <linearGradient
       inkscape:collect="always"
       xlink:href="#linearGradient32491"
       id="linearGradient15"
       x1="-9.6850061"
       y1="45.161198"
       x2="11.98815"
       y2="21.735205"
       gradientUnits="userSpaceOnUse"
       gradientTransform="matrix(0.29472683,0,0,0.29502082,0.06483497,-0.6904682)" />
    <linearGradient
       inkscape:collect="always"
       xlink:href="#linearGradient32491"
       id="linearGradient1309"
       x1="4.4890523"
       y1="6.4824204"
       x2="8.474494"
       y2="6.4824204"
       gradientUnits="userSpaceOnUse" />
  </defs>
  <rect
     x="-12.548279"
     y="0.50080705"
     height="12.030236"
     rx="1.6466017"
     shape-rendering="crispEdges"
     id="rect5-6-7-3"
     ry="1.7875952"
     transform="matrix(0.00516959,-0.99998664,0.99998768,0.00496421,0,0)"
     style="isolation:isolate;fill:#00ffb0;fill-opacity:0.13470298;stroke:url(#linearGradient872);stroke-width:0.536895;stroke-miterlimit:4;stroke-dasharray:none;stroke-opacity:1"
     width="12.196078" />
  <rect
     x="-4.0793223"
     y="4.7567635"
     height="8.822793"
     rx="1.7957354"
     shape-rendering="crispEdges"
     id="rect5-6-6-6-6"
     style="isolation:isolate;fill:#00ffb0;fill-opacity:0.13470298;stroke:url(#linearGradient15);stroke-width:0.44231;stroke-miterlimit:4;stroke-dasharray:none;stroke-opacity:1"
     ry="1.9775851"
     transform="matrix(0.71974735,-0.6942361,0.68125388,0.73204723,0,0)"
     width="8.8142757" />
  <path
     style="color:#000000;fill:url(#linearGradient1309);-inkscape-stroke:none"
     d="m 6.5878906,2.6328125 c -0.7145519,0 -1.1605634,0.0025 -1.4316406,0.00781 -0.1355386,0.00266 -0.2264659,0.00685 -0.2890625,0.011719 -0.031298,0.00244 -0.054483,0.00498 -0.078125,0.00977 -0.011821,0.00239 -0.023494,0.00425 -0.041016,0.011719 -0.00876,0.00373 -0.019583,0.00907 -0.033203,0.019531 -0.00681,0.00523 -0.021148,0.021082 -0.021484,0.021484 -3.361e-4,4.028e-4 -0.02132,0.036697 -0.021484,0.037109 l -0.00391,0.00586 -0.00195,0.00586 c -3.293e-4,0.00115 -0.00324,0.021571 -0.00391,0.027344 -6.7e-4,0.00577 -0.00158,0.010262 -0.00195,0.015625 -7.517e-4,0.010727 -0.00145,0.022858 -0.00195,0.037109 -0.00101,0.028503 -0.00145,0.06522 -0.00195,0.109375 -0.001,0.08831 -0.00133,0.2046656 0,0.328125 l 0.00977,0.5761719 1.5429688,0.023437 C 5.236327,4.702506 4.5978186,5.5647092 4.4140625,6.40625 c -0.071688,0.3297433 -0.081761,0.8141623 -0.013672,1.125 0.097137,0.4690897 0.3775576,0.8454839 0.7773438,1.0351563 0.333954,0.1562022 0.5038852,0.1885004 1.1445312,0.2070312 0.32838,0.00919 0.5088462,0.021831 0.5976563,0.044922 0.08881,0.023091 0.091273,0.03317 0.1464843,0.1171875 l 0.00195,0.00195 c 0.027767,0.040492 0.031875,0.052348 0.037109,0.076172 0.00523,0.023824 0.0091,0.068881 0.00781,0.1523437 v 0.00195 c 0,0.2360055 -0.076451,0.3986554 -0.3183593,0.6582031 h 0.00195 c -0.054512,0.057308 -0.1036309,0.1137599 -0.140625,0.1621094 -0.018497,0.024175 -0.033759,0.044955 -0.046875,0.066407 -0.00656,0.01072 -0.013551,0.02181 -0.019531,0.03516 -0.00598,0.01335 -0.015625,0.02547 -0.015625,0.06641 0,0.02431 0.00877,0.06454 0.03125,0.09375 0.022478,0.02921 0.051221,0.04442 0.072266,0.05273 0.04209,0.01664 0.073132,0.01816 0.1191406,0.02149 0.092016,0.0067 0.2392428,0.0078 0.5019531,0.0078 h 0.6484375 l 0.1386719,-0.158203 h 0.00195 C 8.1498662,10.099459 8.2394743,9.9686408 8.3027344,9.859375 8.7336103,9.1254753 8.7092316,8.3077446 8.1972656,7.828125 8.0548447,7.6955929 7.9083136,7.6020727 7.7167969,7.5507812 7.5252802,7.4994898 7.2935928,7.4857078 6.9550781,7.484375 6.7183719,7.484375 6.5784234,7.4724216 6.4882812,7.4472656 6.3981391,7.4221096 6.3485753,7.3876378 6.2636719,7.3027344 6.1016818,7.140747 6.0658229,7.0316631 6.0683594,6.6816406 v -0.00195 C 6.0708271,6.0859509 6.3656099,5.5068197 7.0507812,4.8242187 v -0.00195 C 7.4254608,4.4449994 7.7049257,4.2225237 8.171875,3.9199219 L 8.5,3.7070313 V 3.2011719 2.6328125 Z m 0,0.265625 H 8.2363281 V 3.2011719 3.5644531 L 8.0273438,3.6992188 C 7.5511427,4.0078161 7.2491093,4.2503209 6.8652344,4.6367187 6.1534479,5.345835 5.8055687,5.9977346 5.8027344,6.6796875 c -0.00274,0.3774634 0.071678,0.6087912 0.2734375,0.8105469 0.099604,0.099604 0.2033062,0.174787 0.3398437,0.2128906 0.1365375,0.038104 0.2960566,0.044922 0.5390625,0.044922 0.330988,0.0013 0.5428807,0.018293 0.6933594,0.058594 0.1504787,0.040301 0.2453203,0.099621 0.3691406,0.2148438 0.4052828,0.3796767 0.4428485,1.0472604 0.056641,1.7050781 -0.052719,0.091058 -0.1459927,0.2251926 -0.1894532,0.2773435 l -0.056641,0.0625 H 7.2988281 c -0.1939765,0 -0.2728508,-0.0013 -0.3574219,-0.0039 0.01671,-0.01898 0.028264,-0.03512 0.046875,-0.05469 C 7.2519445,9.7249234 7.3764769,9.4708779 7.3769531,9.1699219 v -0.00195 C 7.3782653,9.0813743 7.3789831,9.019611 7.3652344,8.9570313 7.3515508,8.8947478 7.3219521,8.8401885 7.2871094,8.7890625 l -0.00195,-0.00195 C 7.2192039,8.687489 7.1271232,8.5991067 6.9863281,8.5625 6.8445029,8.5256255 6.6587053,8.519021 6.328125,8.5097656 5.6941775,8.4914286 5.6093133,8.4749606 5.2910156,8.3261719 4.969039,8.173415 4.7425631,7.8765205 4.6601562,7.4765625 v -0.00195 C 4.6069956,7.2319231 4.6117684,6.7393649 4.671875,6.4628906 4.8440939,5.6741862 5.4641928,4.8095937 6.4804687,3.9804688 L 6.9160156,3.6269531 4.9257812,3.5976563 4.9199219,3.2792969 v -0.00195 c -0.00129,-0.1208492 -9.678e-4,-0.235179 0,-0.3203125 2.02e-4,-0.017771 -2.811e-4,-0.027917 0,-0.042969 0.053446,-0.00346 0.1241195,-0.0055 0.2421875,-0.00781 0.2666379,-0.00523 0.7117175,-0.00781 1.4257812,-0.00781 z"
     id="path29" />
</svg>
