<?xml version="1.0" encoding="UTF-8" standalone="no"?>
<svg
   width="47.285591"
   height="47.28569"
   version="1.1"
   id="svg63"
   sodipodi:docname="bookmarks.svg"
   inkscape:version="1.1.2 (0a00cf5339, 2022-02-04)"
   xmlns:inkscape="http://www.inkscape.org/namespaces/inkscape"
   xmlns:sodipodi="http://sodipodi.sourceforge.net/DTD/sodipodi-0.dtd"
   xmlns="http://www.w3.org/2000/svg"
   xmlns:svg="http://www.w3.org/2000/svg"
   xmlns:rdf="http://www.w3.org/1999/02/22-rdf-syntax-ns#"
   xmlns:cc="http://creativecommons.org/ns#"
   xmlns:dc="http://purl.org/dc/elements/1.1/">
  <path
     style="color:#000000;fill:#dc3545;-inkscape-stroke:none"
     d="m 32.921875,7.3652344 c -2.605395,8e-7 -5.210835,1.0103265 -7.193359,3.0332036 l -2.230469,2.277343 -2.212891,-2.257812 c -3.964924,-4.045818 -10.421754,-4.0457571 -14.3867185,0 -3.9651452,4.045455 -3.9651516,10.575677 0,14.621093 5.3009985,5.409015 10.6012575,10.819419 15.9023435,16.228516 l 0.716797,0.728516 16.597656,-16.976563 c 3.959929,-4.048784 3.964861,-10.575651 0,-14.621093 C 38.132622,8.3755748 35.52727,7.3652336 32.921875,7.3652344 Z m 0,1.9746094 c 2.078994,10e-7 4.158576,0.8193092 5.765625,2.4589842 3.213584,3.278898 3.209263,8.538993 -0.002,11.822266 L 23.515625,39.136719 C 18.452971,33.970928 13.388702,28.806312 8.3261719,23.640625 c -3.213814,-3.27887 -3.2138205,-8.543352 0,-11.822266 3.2138001,-3.2792865 8.3155481,-3.2793166 11.5292971,0 l 3.642578,3.714844 3.658203,-3.734375 c 1.606953,-1.63966 3.686631,-2.4589853 5.765625,-2.4589842 z"
     id="path2-3-3-3-3-3" />
  <style
     id="style1006" />
  <metadata
     id="metadata181">
    <rdf:RDF>
      <cc:Work
         rdf:about="">
        <dc:format>image/svg+xml</dc:format>
        <dc:type
           rdf:resource="http://purl.org/dc/dcmitype/StillImage" />
      </cc:Work>
    </rdf:RDF>
  </metadata>
  <sodipodi:namedview
     id="namedview65"
     pagecolor="#000000"
     bordercolor="#666666"
     borderopacity="1.0"
     inkscape:showpageshadow="2"
     inkscape:pageopacity="0.0"
     inkscape:pagecheckerboard="0"
     inkscape:deskcolor="#d1d1d1"
     showgrid="true"
     inkscape:zoom="11.136495"
     inkscape:cx="29.677201"
     inkscape:cy="22.448715"
     inkscape:window-width="1600"
     inkscape:window-height="836"
     inkscape:window-x="0"
     inkscape:window-y="0"
     inkscape:window-maximized="1"
     inkscape:current-layer="svg63"
     inkscape:document-rotation="0"
     inkscape:pageshadow="2">
    <inkscape:grid
       type="xygrid"
       id="grid468"
       originx="30.400758"
       originy="-11.147109"
       spacingy="1"
       spacingx="1"
       units="px"
       visible="false" />
  </sodipodi:namedview>
  <defs
     id="defs27" />
</svg>
