<?xml version="1.0" encoding="UTF-8" standalone="no"?>
<svg
   height="64"
   width="64"
   version="1.1"
   id="svg9"
   sodipodi:docname="application-vnd.stardivision.math.svg"
   inkscape:version="1.1.2 (0a00cf5339, 2022-02-04)"
   xmlns:inkscape="http://www.inkscape.org/namespaces/inkscape"
   xmlns:sodipodi="http://sodipodi.sourceforge.net/DTD/sodipodi-0.dtd"
   xmlns="http://www.w3.org/2000/svg"
   xmlns:svg="http://www.w3.org/2000/svg">
  <defs
     id="defs13" />
  <sodipodi:namedview
     id="namedview11"
     pagecolor="#ffffff"
     bordercolor="#666666"
     borderopacity="1.0"
     inkscape:pageshadow="2"
     inkscape:pageopacity="0.0"
     inkscape:pagecheckerboard="0"
     showgrid="false"
     inkscape:zoom="10.21875"
     inkscape:cx="31.95107"
     inkscape:cy="37.480122"
     inkscape:window-width="1600"
     inkscape:window-height="836"
     inkscape:window-x="0"
     inkscape:window-y="0"
     inkscape:window-maximized="1"
     inkscape:current-layer="svg9" />
  <path
     style="color:#000000;fill:#807f7f;fill-opacity:0.2;stroke-width:2;-inkscape-stroke:none"
     d="m 11.67,56.08 c 0,1.71 1.71,3.42 3.417,3.42 h 33.996 c 1.709,0 3.417,-1.71 3.417,-3.42 V 27.017 c 0,-1.71 0,-1.71 -1.708,-3.42 L 35.417,8.21 C 34.51,7.524 33.708,6.5 32,6.5 H 14.917 C 13.208,6.5 11.5,8.21 11.5,9.92 Z"
     id="path4635" />
  <path
     style="color:#000000;fill:#807f7f;-inkscape-stroke:none"
     d="M 14.917969,5.5 C 13.729942,5.5 12.657088,6.0628369 11.859375,6.8613281 11.061662,7.6598194 10.5,8.7319796 10.5,9.9199219 v 0.00195 l 0.169922,46.1621091 c 0.0012,1.186757 0.564341,2.257235 1.361328,3.054688 C 12.829121,59.93701 13.900473,60.5 15.087891,60.5 h 33.99414 c 1.188027,0 2.260881,-0.562837 3.058594,-1.361328 C 52.938338,58.340181 53.5,57.26802 53.5,56.080078 v -29.0625 c 0,-0.854999 0.0142,-1.492302 -0.318359,-2.158203 C 52.849079,24.193474 52.353999,23.745624 51.5,22.890625 L 36.076172,7.4550781 36.019531,7.4121094 C 35.26819,6.8438401 34.107686,5.5 32,5.5 Z m 0,2 H 32 c 1.274361,0 1.741373,0.6756979 2.746094,1.453125 l 15.33789,15.351562 c 0.852631,0.853699 1.214226,1.260262 1.308594,1.449219 C 51.487016,25.943004 51.5,26.162579 51.5,27.017578 v 29.0625 c 0,0.522056 -0.291855,1.160524 -0.775391,1.644531 C 50.241074,58.208617 49.603002,58.5 49.082031,58.5 h -33.99414 c -0.519581,0 -1.158701,-0.29123 -1.642578,-0.775391 -0.483878,-0.48416 -0.775391,-1.122865 -0.775391,-1.644531 v -0.002 -0.002 L 12.5,9.9199219 c 0,-0.522056 0.291855,-1.1605238 0.775391,-1.6445313 C 13.758926,7.7913831 14.396998,7.5 14.917969,7.5 Z"
     id="path4637" />
  <path
     fill="#807f7f"
     d="m 15,59 h 34 v 1 H 15 Z"
     id="path4-3" />
  <path
     style="color:#807f7f;fill:#807f7f;-inkscape-stroke:none"
     d="m 49.433594,28.759766 -0.498047,0.002 -20.123047,0.01172 -6.648438,18.222657 -4.001953,-6.935547 h -3.613281 v 3.824219 h 1.419922 l 6.400391,11.082031 8.787109,-22.38086 h 18.296875 z m -0.994141,1.001953 0.0098,1.824218 h -17.97461 l -8.277343,21.083985 -5.650391,-9.785156 h -0.998047 v -1.824219 h 2.037109 l 4.783204,8.291015 7.142578,-19.580078 z m -10.802734,4.648437 c -4.963312,0 -8.97461,4.011297 -8.97461,8.97461 -0.006,3.86512 2.298561,6.85324 5.314453,8.195312 2.741128,1.219802 6.068601,0.994929 8.810547,-0.984375 v 1.763672 h 3.824219 V 34.410156 h -3.824219 v 1.802735 c -1.510152,-1.0924 -3.26804,-1.799837 -5.148437,-1.802735 l -0.002,1 c 1.965732,0.003 3.859944,0.738233 5.314453,2.060547 l 0.835937,0.759766 v -2.820313 h 1.824219 v 15.949219 h -1.824219 v -2.814453 l -0.835937,0.755859 c -2.574021,2.326685 -5.879533,2.561762 -8.56836,1.365235 -2.688826,-1.196528 -4.726085,-3.809569 -4.720703,-7.279297 v -0.002 c 0,-4.426611 3.548001,-7.97461 7.97461,-7.97461 z m 0,2.826172 c -3.398325,0 -6.150391,2.750113 -6.150391,6.148438 0,3.398325 2.752066,6.15039 6.150391,6.15039 3.398326,0 6.15039,-2.752065 6.15039,-6.15039 0,-3.398325 -2.752064,-6.148438 -6.15039,-6.148438 z m 0,1 c 2.861624,0 5.15039,2.286815 5.15039,5.148438 0,2.861622 -2.288766,5.15039 -5.15039,5.15039 -2.861623,0 -5.150391,-2.288768 -5.150391,-5.15039 0,-2.861623 2.288768,-5.148438 5.150391,-5.148438 z"
     id="path6-6" />
</svg>
