<?xml version="1.0" encoding="UTF-8" standalone="no"?>
<svg
   height="64"
   width="64"
   version="1.1"
   id="svg9"
   sodipodi:docname="application-vnd.debian.binary-package.svg"
   inkscape:version="1.1.2 (0a00cf5339, 2022-02-04)"
   xmlns:inkscape="http://www.inkscape.org/namespaces/inkscape"
   xmlns:sodipodi="http://sodipodi.sourceforge.net/DTD/sodipodi-0.dtd"
   xmlns:xlink="http://www.w3.org/1999/xlink"
   xmlns="http://www.w3.org/2000/svg"
   xmlns:svg="http://www.w3.org/2000/svg">
  <defs
     id="defs13">
    <linearGradient
       inkscape:collect="always"
       id="linearGradient1579">
      <stop
         style="stop-color:#fe1952;stop-opacity:1;"
         offset="0"
         id="stop1575" />
      <stop
         style="stop-color:#fe19b7;stop-opacity:1"
         offset="1"
         id="stop1577" />
    </linearGradient>
    <linearGradient
       inkscape:collect="always"
       xlink:href="#linearGradient1579"
       id="linearGradient1581"
       x1="10.930189"
       y1="43.899239"
       x2="48.234951"
       y2="18.299534"
       gradientUnits="userSpaceOnUse" />
  </defs>
  <sodipodi:namedview
     id="namedview11"
     pagecolor="#ffffff"
     bordercolor="#666666"
     borderopacity="1.0"
     inkscape:pageshadow="2"
     inkscape:pageopacity="0.0"
     inkscape:pagecheckerboard="0"
     showgrid="false"
     inkscape:zoom="5.109375"
     inkscape:cx="27.889908"
     inkscape:cy="46.287462"
     inkscape:window-width="1056"
     inkscape:window-height="545"
     inkscape:window-x="224"
     inkscape:window-y="75"
     inkscape:window-maximized="0"
     inkscape:current-layer="svg9" />
  <path
     style="color:#000000;fill:#94e5ff;fill-opacity:0.2;stroke-width:2;-inkscape-stroke:none"
     d="m 11.67,56.08 c 0,1.71 1.71,3.42 3.417,3.42 h 33.996 c 1.709,0 3.417,-1.71 3.417,-3.42 V 27.017 c 0,-1.71 0,-1.71 -1.708,-3.42 L 35.417,8.21 C 34.51,7.524 33.708,6.5 32,6.5 H 14.917 C 13.208,6.5 11.5,8.21 11.5,9.92 Z"
     id="path6281" />
  <path
     id="path6"
     style="color:#000000;fill:url(#linearGradient1581);-inkscape-stroke:none;fill-opacity:1"
     d="m 30.876953,19.572266 c -0.236811,0 -0.320243,0.04943 -0.490234,0.103515 -0.169991,0.05409 -0.363761,0.125586 -0.550782,0.199219 -0.18702,0.07363 -0.365961,0.149369 -0.513671,0.220703 -0.07386,0.03567 -0.138911,0.068 -0.203125,0.107422 -0.03211,0.01971 -0.06263,0.04035 -0.103516,0.07422 -0.04088,0.03387 -0.107137,0.05553 -0.173828,0.240234 l 0.33789,0.123047 c -3.43e-4,4.73e-4 3.43e-4,0.0015 0,0.002 l -0.339843,-0.117187 c -0.0039,0.01111 -0.002,0.0362 -0.0059,0.04883 -0.04275,-0.02165 -0.08385,-0.06883 -0.121093,-0.07813 -0.192106,-0.04797 -0.301816,-0.01313 -0.416016,0.01563 -0.2284,0.05751 -0.472753,0.163681 -0.8125,0.328125 -0.162973,0.07803 -0.330497,0.147377 -0.451172,0.1875 -0.06056,0.02013 -0.109174,0.03131 -0.128906,0.03516 -0.01666,0.0032 0.01606,-0.0085 0.117187,0.01758 -0.230651,-0.06625 -0.32385,-0.0049 -0.40625,0.02539 -0.08437,0.03097 -0.154757,0.06795 -0.232422,0.111328 -0.155328,0.08676 -0.330793,0.201892 -0.53125,0.34375 -1.39807,1.040485 -2.723351,2.141037 -3.919921,3.46289 -0.06913,0.09009 -0.134466,0.154376 -0.154297,0.169922 -0.01151,0.009 0.09487,0.0036 0.152343,-0.0098 -0.200916,-0.01288 -0.402278,0.04862 -0.515625,0.144531 -0.127885,0.108211 -0.205565,0.227939 -0.27539,0.359375 v 0.002 c -0.0488,0.09256 -0.402864,0.669136 -0.71875,1.15625 -0.733354,1.130204 -1.008481,1.640033 -1.197266,2.271484 v 0.002 c -0.06784,0.227934 -0.193926,0.566117 -0.234375,0.65039 l -0.01563,0.0332 -0.0098,0.03516 c -0.133825,0.427854 -0.229545,0.865714 -0.285157,1.310546 v -0.0078 c -0.06668,0.465318 -0.138108,0.797048 -0.189453,0.949219 -0.02567,0.07608 -0.0588,0.10592 -0.0078,0.04883 0.02549,-0.02855 0.08571,-0.08786 0.199218,-0.115235 0.06644,-0.01602 0.122992,0.01206 0.1875,0.02734 -0.202624,-0.06362 -0.406097,-0.01184 -0.578125,0.171875 0.02499,-0.103392 0.09635,-0.168986 0.08203,-0.30664 -0.01302,-0.143624 -0.02014,-0.327083 -0.197266,-0.517579 -0.177821,-0.19124 -0.416873,-0.212547 -0.564453,-0.21289 -0.0626,-0.0032 -0.130558,-0.01498 -0.261719,0.01758 -0.139022,0.03451 -0.34037,0.19232 -0.40625,0.337891 -0.13176,0.29114 -0.07529,0.40818 -0.07227,0.664062 l 0.425781,-0.0059 c -6.52e-4,0.0011 -0.0013,8.66e-4 -0.002,0.002 l -0.423828,0.0039 c 0.0017,0.162341 0.01199,0.307494 0.0293,0.433594 0.0087,0.06305 0.01664,0.11825 0.03906,0.191406 0.01121,0.03658 0.02115,0.07638 0.06445,0.146484 0.02165,0.03505 0.05221,0.08188 0.117188,0.134766 0.03249,0.02644 0.07405,0.05374 0.128906,0.07617 0.02743,0.01122 0.09124,0.02723 0.0918,0.02734 5.58e-4,1.14e-4 0.101002,0.0098 0.101562,0.0098 0.289633,0 0.403795,-0.135089 0.498047,-0.230468 0.02841,-0.02875 0.04401,-0.06203 0.06836,-0.0918 -0.04109,0.231845 -0.08309,0.511468 -0.123046,0.832031 -0.01953,0.156683 -0.02662,0.340892 -0.04492,0.509766 -0.04509,-0.05967 -0.09672,-0.13388 -0.240235,-0.179688 -0.148115,-0.04761 -0.43771,0.0087 -0.564453,0.138672 -0.126743,0.12993 -0.144529,0.234757 -0.164062,0.318359 -0.03804,0.162799 -0.03899,0.307008 -0.03906,0.507813 -0.0074,0.265453 0.01317,0.530457 0.06445,0.791015 l 0.490235,-0.09766 -0.464844,0.179688 c 0.04284,0.111398 0.09957,0.199578 0.181641,0.279297 0.08207,0.07972 0.185099,0.18164 0.427734,0.18164 0.07031,0 0.09056,-0.04973 0.148437,-0.07422 -0.02003,0.4248 -0.04325,0.833631 -0.03125,1.06836 0.01616,0.316254 0.08675,0.558678 0.179688,0.791015 0.196365,0.575885 0.370468,1.158637 0.521484,1.748047 v 0.002 0.002 c 0.786615,2.981956 1.075534,3.899968 1.591797,5.054687 1.555473,3.485239 4.091046,6.287525 7.900391,8.771484 1.789348,1.166831 4.549727,2.26064 6.578125,2.597657 l 0.662109,0.109375 -0.01367,-0.105469 c 0.680104,0.05381 1.360894,0.104496 2.042969,0.07813 1.593156,-0.01803 2.083888,-0.06173 2.882813,-0.246094 0.304925,-0.0712 0.545653,-0.136535 0.734375,-0.205078 0.09436,-0.03427 0.173756,-0.0664 0.263671,-0.121094 0.04496,-0.02735 0.09477,-0.06001 0.154297,-0.125 0.05952,-0.06499 0.146485,-0.184412 0.146485,-0.367187 0,-0.11947 -0.06311,-0.323596 -0.195313,-0.439453 -0.132198,-0.115857 -0.257151,-0.136717 -0.345703,-0.148438 -0.177104,-0.02344 -0.302941,-0.0052 -0.494141,0.01172 -1.240865,0.108039 -1.998525,0.136579 -2.558593,0.06836 -0.560496,-0.06827 -0.947875,-0.220222 -1.552735,-0.544922 -0.457354,-0.246149 -0.727341,-0.390595 -0.982422,-0.466796 -0.784347,0.205695 -1.215424,0.09721 -1.726562,-0.587933 -0.119926,-0.03321 -0.212038,-0.03516 -0.310547,-0.03516 -0.142549,0 -0.419985,-0.08932 -0.984375,-0.457032 l 0.0098,0.0078 c -0.168483,-0.115723 -0.320243,-0.208785 -0.509766,-0.257813 -0.185435,-0.04797 -0.382314,-0.02528 -0.53125,0.01367 -0.01074,-0.0078 -0.08864,-0.05829 -0.251953,-0.199218 l -0.002,-0.002 c -0.289439,-0.251735 -0.468988,-0.424086 -0.548828,-0.517578 -0.08013,-0.09383 -0.03991,-0.05632 -0.03906,-0.0039 v -0.002 C 30.264605,51.513986 30.023962,51.208644 29.75964,51.152442 28.190512,50.664529 27.557873,49.147358 26.814406,48.373 h -0.002 l -0.002,-0.002 c -0.04993,-0.0396 -0.09638,-0.08364 -0.146485,-0.126953 0.03209,-0.0447 0.08563,-0.05696 0.101563,-0.109375 0.05164,-0.169898 0.01464,-0.300023 -0.01758,-0.386719 -0.06444,-0.173392 -0.144155,-0.262285 -0.244141,-0.38086 -0.09999,-0.118574 -0.224467,-0.25027 -0.380859,-0.408203 -0.30912,-0.31229 -0.578579,-0.541993 -0.865235,-0.697265 -0.286655,-0.155272 -0.613926,-0.223915 -0.917968,-0.167969 h -0.002 -0.0039 c -0.0084,0.0016 0.03015,0.03618 -0.128906,-0.09375 h -0.002 l -0.002,-0.002 c -0.157289,-0.126274 -0.362203,-0.356065 -0.484375,-0.53125 -0.03344,-0.04795 -0.04002,-0.06264 -0.05859,-0.0957 0.0025,-0.01201 0.02236,-0.01757 0.02344,-0.0293 0.01695,-0.185093 -0.0385,-0.279455 -0.07813,-0.353516 -0.07925,-0.148121 -0.167689,-0.238001 -0.283204,-0.353515 -0.138118,-0.138324 -0.227488,-0.318315 -0.255859,-0.511719 l -0.002,-0.0059 v -0.0059 c -0.05966,-0.342888 -0.203903,-0.666566 -0.419922,-0.939453 l -0.01758,-0.01953 -0.01758,-0.01953 c -0.218874,-0.224664 -0.391274,-0.511304 -0.585938,-1.125 -0.194663,-0.613695 -0.395892,-1.533346 -0.648437,-2.923828 -0.415339,-2.29482 -0.419895,-2.037108 -0.03711,-3.669922 0.132598,-0.565044 0.207518,-0.892899 0.22461,-1.167968 0.0085,-0.137535 0.02264,-0.280485 -0.0918,-0.476563 -0.01448,-0.02481 -0.04911,-0.01532 -0.06836,-0.03711 0.03746,-0.09921 0.04148,-0.112745 0.140625,-0.353516 0.357469,-0.867325 0.87991,-1.793484 1.40039,-2.53125 0.520089,-0.737209 1.101847,-1.287768 1.292969,-1.376953 0.48183,-0.222996 0.892578,-0.595233 0.892578,-1.166016 0,-0.0187 -0.02115,-0.04693 -0.02344,-0.06836 0.283168,-0.323384 0.57891,-0.588639 1.140625,-0.833984 0.229128,-0.09983 0.438225,-0.208659 0.611328,-0.316407 0.173103,-0.107747 0.301793,-0.141884 0.453125,-0.410156 v -0.002 c 0.02832,-0.05081 0.05345,-0.09449 0.08203,-0.166016 0.01429,-0.03576 0.03127,-0.07695 0.04102,-0.154296 0.0024,-0.01876 -0.01774,-0.06103 -0.01758,-0.08594 l 0.285157,-0.25 v -0.002 c 0.257414,-0.227402 0.573718,-0.453422 0.83789,-0.632813 0.189927,0.0785 0.360948,0.06678 0.46875,0.02344 0.121267,-0.04876 0.213058,-0.117377 0.294922,-0.210938 v -0.002 h 0.002 c -0.06228,0.07176 -0.0012,0.0036 0.08789,-0.04687 0.08914,-0.05046 0.218575,-0.11606 0.371094,-0.185547 0.305037,-0.138973 0.702189,-0.296776 1.099609,-0.43164 1.582281,-0.535798 3.943265,-0.657501 5.173828,-0.316406 1.545863,0.42925 3.230271,1.423569 4.554688,2.705078 h 0.002 c 0.928088,0.896382 1.491213,1.690392 1.810547,2.49414 l -0.0078,-0.02344 c 0.07899,0.234024 0.190493,0.455209 0.333985,0.65625 l 0.01172,0.01563 c 0.0029,0.0067 0.002,0.0041 0.0059,0.01367 0.02213,0.05531 0.05645,0.153781 0.09375,0.273437 0.07459,0.239313 0.165378,0.572285 0.253906,0.923828 0.177055,0.703088 0.34566,1.524871 0.369141,1.798828 0.02304,0.28371 0.04074,0.475507 0.0918,0.658204 0.02568,0.09188 0.05739,0.190964 0.152344,0.304687 0.01392,0.01667 0.04834,0.01542 0.06641,0.03125 0.0028,0.07211 0.0067,0.173858 -0.0039,0.421875 -0.01473,0.349046 -0.03708,0.523046 -0.05078,0.568359 -0.0137,0.04531 -0.0017,0.02909 -0.121094,0.148438 -0.141709,0.141708 -0.300967,0.302896 -0.365234,0.550781 -0.06427,0.247885 -0.02834,0.433338 0.002,0.708985 l 0.04297,0.388671 -0.46875,0.710938 c -0.17365,0.263539 -0.407393,0.563359 -0.621094,0.839844 -0.0012,1.1e-5 -0.0047,-0.002 -0.0059,-0.002 -0.311998,0 -0.333401,0.105479 -0.400391,0.160156 -0.06699,0.05468 -0.122749,0.111183 -0.181641,0.175781 -0.117783,0.129196 -0.24232,0.287545 -0.363281,0.464844 -0.365027,0.533713 -0.599244,0.740474 -1.082031,0.976562 -0.175832,0.08466 -0.524829,0.265526 -0.8125,0.419922 -0.632095,0.33605 -1.305532,0.494141 -2.19336,0.494141 -1.670274,0 -3.4894,-0.828058 -4.578125,-2.082031 -0.205621,-0.237828 -0.505885,-0.689488 -0.734375,-1.097657 -0.114244,-0.204084 -0.21427,-0.39845 -0.279296,-0.548828 -0.06503,-0.150378 -0.07813,-0.302898 -0.07813,-0.193359 0,-0.126931 -0.0158,-0.291038 -0.169922,-0.453125 -0.03217,-0.03383 -0.08823,-0.0059 -0.13086,-0.0293 -0.01395,-0.05353 -0.03607,-0.139577 -0.06641,-0.337891 l -0.002,-0.01367 -0.002,-0.01367 c -0.125853,-0.592501 -0.112912,-1.206624 0.03906,-1.792969 l 0.0039,-0.01367 0.002,-0.01563 c 0.237829,-1.202658 0.86684,-2.095206 2.11914,-2.939453 0.883875,-0.596757 1.34398,-0.720375 2.613282,-0.720703 0.926652,0.0059 1.068853,0.02065 1.433593,0.166015 0.222254,0.0968 0.454,0.171523 0.691407,0.220703 l 0.05469,0.01172 0.05664,-0.002 c 0.06151,-0.0014 0.14387,-2.79e-4 0.269531,-0.07031 0.125661,-0.07003 0.266267,-0.28652 0.267578,-0.451172 0.0026,-0.329305 -0.124741,-0.359471 -0.183594,-0.419922 -0.11748,-0.120452 -0.233694,-0.196829 -0.38454,-0.292518 C 37.788582,29.810848 37.38605,29.599041 37,29.451172 h -0.002 c -0.631793,-0.242589 -1.052029,-0.323667 -1.800781,-0.357422 -1.616773,-0.07043 -2.96261,0.446506 -4.154297,1.589844 -0.351153,0.336245 -0.680808,0.74346 -0.935547,1.130859 -0.12737,0.1937 -0.235721,0.380719 -0.31836,0.560547 -0.08264,0.179828 -0.152343,0.338463 -0.152343,0.572266 l 0.0098,-0.103516 c -0.01947,0.09383 -0.05668,0.182994 -0.111328,0.261719 l -0.0059,0.0078 -0.0039,0.0078 c -0.31418,0.488219 -0.442665,1.168729 -0.53125,1.917968 -0.08859,0.74924 -0.107729,1.513103 0.03516,2.101563 0.261729,1.081056 0.772524,1.880523 1.349609,2.654297 -0.07416,0.08213 -0.163158,0.161825 -0.179687,0.255859 -0.0495,0.281624 0.05345,0.386699 0.117187,0.490235 0.0054,0.0087 0.0179,0.01871 0.02344,0.02734 -0.118493,0.05367 -0.258684,0.105896 -0.294922,0.160157 -0.267872,0.548995 0.0475,0.927571 0.322258,1.345703 0.979762,0.589562 1.275168,1.21211 2.236423,0.822363 0.347501,0.192887 0.683426,0.411476 1.019531,0.539063 l 0.002,0.002 h 0.002 c 1.625807,0.603427 3.440363,0.863618 4.882813,0.630859 0.457479,-0.07418 0.989266,-0.252324 1.425781,-0.4375 0.218257,-0.09259 0.405819,-0.182507 0.564453,-0.285156 0.07932,-0.05132 0.15137,-0.09439 0.240234,-0.205078 0.04443,-0.05534 0.103783,-0.133016 0.125,-0.28125 0.01996,-0.139447 -0.05468,-0.328415 -0.15039,-0.435547 1.783857,-0.793166 3.321602,-2.061316 4.298828,-3.763672 l 0.002,-0.0039 c 0.06258,-0.107383 0.05067,-0.08407 0.101562,-0.160156 0.100065,0.0145 0.195034,0.09216 0.269532,0.06445 0.345368,-0.12846 0.428211,-0.376118 0.46875,-0.636719 0.04879,-0.317081 -0.01474,-0.520779 -0.09766,-0.769531 l -0.002,-0.0078 -0.0039,-0.0078 c -0.01523,-0.04095 0.0047,-0.08418 0,-0.126953 0.08119,0.01809 0.169042,0.04425 0.296875,-0.0059 0.16484,-0.06462 0.275419,-0.221267 0.3125,-0.322265 0.03708,-0.100999 0.03977,-0.167119 0.04102,-0.22461 0.0021,-0.09773 -0.0093,-0.17752 -0.02148,-0.265625 -0.01515,-0.337849 0.01254,-0.675302 0.08398,-1.005859 l 0.002,-0.0059 v -0.0059 c 0.03019,-0.156283 0.03747,-0.315244 0.06055,-0.472656 0.128617,-0.04912 0.261052,-0.110332 0.30664,-0.175781 0.12309,-0.176715 0.124909,-0.285737 0.142578,-0.423828 v -0.0039 c 0.0319,-0.241264 -0.0029,-0.435655 -0.04687,-0.675781 -0.0098,-0.05344 -0.02929,-0.105904 -0.04102,-0.160156 0.04498,-0.06873 0.131279,-0.139358 0.142578,-0.1875 0.04426,-0.188577 0.01578,-0.271255 -0.0039,-0.386719 -0.01959,-0.11492 -0.04878,-0.241595 -0.08984,-0.392578 v -0.002 c -0.08502,-0.315808 -0.103873,-0.592791 -0.06445,-1.09961 l -0.002,0.0039 c 0.03096,-0.377765 0.08431,-0.562255 -0.02539,-0.882813 -0.02742,-0.08014 -0.07379,-0.19061 -0.199219,-0.287109 -0.09747,-0.07499 -0.231809,-0.07894 -0.347656,-0.08008 -0.03438,-0.103162 -0.07729,-0.212989 -0.08008,-0.308594 v -0.002 c -0.431539,-1.173893 0.04031,-0.249514 0.914063,-0.646483 l 0.002,-0.0059 0.002,-0.0059 c 0.06864,-0.201333 0.02631,-0.347335 -0.01172,-0.464844 -0.03803,-0.117509 -0.09122,-0.225917 -0.162109,-0.359375 -0.141774,-0.266917 -0.362419,-0.626028 -0.705079,-1.164063 v -0.002 c -0.146646,-0.229407 -0.281316,-0.450322 -0.375,-0.615234 -0.04684,-0.08246 -0.08285,-0.151478 -0.103515,-0.193359 -0.0012,-0.0024 -8.66e-4,-0.0017 -0.002,-0.0039 0.08263,-0.132227 0.159719,-0.280663 0.152343,-0.355468 -0.02026,-0.205466 -0.07898,-0.276937 -0.142578,-0.388672 -0.06359,-0.111735 -0.144089,-0.231456 -0.246093,-0.367188 h -0.002 c -0.929491,-1.236661 -2.105824,-2.220971 -3.394531,-3.042969 0.0292,-0.06141 0.101801,-0.131326 0.121094,-0.189453 0.04258,-0.128296 0.06982,-0.261286 0.08984,-0.402343 0.03996,-0.281483 0.05331,-0.579239 -0.0039,-0.869141 v -0.002 c -0.319457,-0.940621 -0.844243,-0.755799 -1.216796,0.04688 -0.02025,0.154997 -0.03307,0.338845 -0.03711,0.552734 h -0.002 c -0.0025,0.159614 0.0068,0.243505 0.0098,0.355469 -0.677498,-0.350623 -1.314284,-0.777319 -2.050782,-1.003906 -0.401592,-0.132535 -0.627357,-0.216673 -0.904296,-0.226563 -0.06265,-0.0022 -0.143858,0.0027 -0.251954,0.04102 -0.0052,-0.0048 -0.01248,-0.0068 -0.01758,-0.01172 l 0.01172,0.01367 c -0.0094,0.0035 -0.01152,-2.16e-4 -0.02148,0.0039 -5.68e-4,-5.86e-4 -0.0014,5.84e-4 -0.002,0 -0.295163,-0.302985 -0.610063,-0.308776 -0.919922,-0.294922 -0.322938,0.01444 -0.661194,0.09008 -0.96875,0.259766 l -0.002,0.002 c -0.179184,0.100043 -0.137164,0.08921 -0.208985,0.0918 -0.07182,0.0026 -0.311127,-0.02541 -0.794922,-0.101563 -0.564112,-0.08874 -1.507716,-0.182681 -2.162109,-0.216796 h -0.002 c -0.500501,-0.02555 -0.782464,-0.03943 -1.00586,-0.02344 -0.109379,0.0078 -0.213573,0.01103 -0.367187,0.09766 0.0043,-0.03713 0.0227,-0.05429 0.01758,-0.09961 -0.01537,-0.13612 -0.108805,-0.283458 -0.201172,-0.355469 -0.184734,-0.144021 -0.293104,-0.11914 -0.376953,-0.11914 z m 1.113281,0.888671 c -0.0046,0.0018 -0.01486,0.01 -0.01953,0.01172 -0.0032,0.0015 -0.0065,4.09e-4 -0.0098,0.002 z m -0.791015,0.0918 c -0.0091,0.03459 -0.05664,0.07149 -0.05664,0.09766 0,-0.0264 0.01779,-0.03885 0.02344,-0.06445 0.01041,-0.0059 0.02279,-0.02651 0.0332,-0.0332 z m 5.960937,0.453125 0.01172,0.01563 0.01563,0.01367 c 0.158912,0.153167 0.341859,0.279871 0.541016,0.375 0.06122,0.03058 0.113492,0.05652 0.162109,0.07813 0.05145,0.02287 0.03068,0.06641 0.273437,0.06641 0.03034,0 0.06748,-7.72e-4 0.115235,-0.01172 0.02388,-0.0055 0.07767,-0.0252 0.07813,-0.02539 4.6e-4,-1.88e-4 0.08947,-0.04858 0.08984,-0.04883 3.03e-4,-2.04e-4 0.03472,-0.03758 0.06641,-0.07227 0.103954,0.0277 0.09325,0.01861 0.238281,0.06641 l 0.0039,0.002 0.0039,0.002 c 2.32245,0.714514 4.347151,2.147763 5.83789,4.0625 -0.07564,-0.04917 -0.140892,-0.107345 -0.287109,-0.111328 -0.204944,-0.0056 -0.401754,0.133695 -0.476563,0.226562 l 0.0332,-0.03711 c -0.0081,0.0082 -0.01792,0.01202 -0.0293,0.01367 l -0.91211,0.130859 0.539063,1.017578 h 0.002 c 0.06746,0.126047 0.130154,0.229673 0.208984,0.326172 0.03941,0.04825 0.06564,0.09596 0.1875,0.167969 0.06093,0.036 0.165392,0.09994 0.357422,0.06641 0.0077,-0.0013 0.008,-0.01184 0.01563,-0.01367 0.06867,0.07801 0.152531,0.1709 0.208984,0.314453 v 0.002 c 0.08224,0.20739 0.236453,0.502389 0.384766,0.765625 l -0.287109,0.259766 0.18164,0.298828 c 0.126217,0.208841 0.284249,0.396656 0.466797,0.558594 l 0.01172,0.01172 0.01367,0.0098 c -0.0095,-0.0074 -2.98e-4,-0.04961 0.0039,0.126953 v 0.002 c 0.0084,0.32325 0.09119,0.615614 0.216797,0.865234 0.0628,0.12481 0.125715,0.239924 0.269531,0.357422 0.03778,0.03087 0.117348,0.04714 0.175781,0.07422 9.04e-4,0.08305 0.0015,0.04116 -0.0078,0.154296 v 0.002 c 0.184505,0.889386 -0.170729,1.491124 -0.291019,2.211019 0.0063,0.01549 0.05668,0.0418 0.06641,0.0625 l -0.0098,0.373047 c -0.02517,0.406781 -0.07547,0.810691 -0.152344,1.210937 -0.06312,0.292051 -0.06681,0.590541 -0.07617,0.888672 -0.136647,0.01237 -0.281324,-0.0025 -0.361328,0.07422 -0.128853,0.123542 -0.147443,0.210316 -0.175781,0.287109 -0.02403,0.06511 -0.04356,0.133125 -0.06445,0.207032 -0.107168,0.295933 -0.07763,0.614288 0.0039,0.916015 -0.05609,0.03052 -0.135001,0.05797 -0.166016,0.08594 -0.216236,0.195017 -0.300312,0.378578 -0.5,0.722656 v 0.002 c -0.964497,1.682003 -2.49135,2.969333 -4.3125,3.634766 h -0.002 c -0.940312,0.347227 -1.931667,0.540351 -2.933593,0.570312 h -0.0059 l -1.128906,0.0625 -0.03125,0.263672 c -0.01901,-0.0773 -0.02457,-0.180165 -0.04883,-0.216797 -0.04174,-0.06303 -0.07634,-0.09468 -0.107422,-0.123047 -0.124343,-0.11347 -0.233257,-0.17183 -0.396484,-0.259765 -0.162807,-0.08771 -0.366775,-0.188058 -0.611329,-0.296875 h -0.002 c -2.918761,-1.307897 -3.975091,-2.448234 -4.566406,-4.890625 -0.08408,-0.346281 -0.09502,-1.076511 -0.01563,-1.748047 0.03953,-0.334322 0.115447,-0.474494 0.1875,-0.744141 -0.15987,0.69594 -0.193513,1.417638 -0.04492,2.117188 0.03771,0.245271 0.0656,0.417557 0.128906,0.585937 0.03313,0.08812 0.06994,0.193077 0.207032,0.306641 0.02113,0.01751 0.0592,-3.5e-5 0.08594,0.01367 0.03013,0.100648 0.04125,0.216369 0.08789,0.324219 0.08485,0.196229 0.197313,0.413922 0.324219,0.640625 0.253812,0.453404 0.55949,0.928113 0.849609,1.263671 h 0.002 c 1.300504,1.498832 3.343458,2.427735 5.333984,2.427735 1.011517,0 1.878656,-0.194809 2.66211,-0.611328 h 0.002 c 0.277897,-0.149187 0.642267,-0.337403 0.777344,-0.402344 h 0.002 l 0.002,-0.002 c 0.575379,-0.281367 0.993405,-0.678616 1.398437,-1.248047 0.037,0.0062 0.07594,0.01172 0.07617,0.01172 5.67e-4,-1.1e-5 0.08863,-0.0077 0.119141,-0.01563 0.03051,-0.0079 0.05319,-0.01724 0.07227,-0.02539 0.07632,-0.0326 0.100165,-0.05452 0.123046,-0.07227 0.09153,-0.07099 0.114829,-0.108164 0.167969,-0.167968 0.05314,-0.0598 0.114584,-0.130683 0.181641,-0.212891 0.268226,-0.328831 0.640671,-0.823437 0.910156,-1.232422 h 0.002 l 0.666016,-1.013672 -0.08203,-0.746093 c -0.02944,-0.267878 -0.02057,-0.373802 -0.02734,-0.347657 -0.0068,0.02615 -0.02654,0.03435 0.103515,-0.0957 0.143455,-0.143454 0.299684,-0.330252 0.371094,-0.566406 0.07141,-0.236154 0.07666,-0.455725 0.0918,-0.814453 0.0137,-0.321259 0.02357,-0.511354 -0.0039,-0.707031 -0.01374,-0.09784 -0.03075,-0.21692 -0.142578,-0.357422 -0.02604,-0.03272 -0.07174,-0.02499 -0.107422,-0.05078 -0.01233,-0.05661 -0.03517,-0.187006 -0.05469,-0.427734 v -0.002 c -0.03923,-0.457709 -0.210979,-1.228144 -0.394531,-1.957031 -0.09178,-0.364444 -0.185938,-0.708375 -0.269531,-0.976563 -0.0418,-0.134093 -0.08174,-0.249286 -0.121094,-0.347656 -0.01968,-0.04919 -0.03862,-0.09326 -0.06641,-0.144531 -0.02778,-0.05127 -0.01426,-0.112416 -0.212891,-0.232422 l 0.148438,0.136719 C 43.4567,29.342171 43.389476,29.209572 43.341918,29.068677 l -0.0039,-0.01172 -0.0059,-0.01367 c -0.385453,-0.970168 -1.051727,-1.882599 -2.046875,-2.84375 -1.44098,-1.394297 -3.237281,-2.466587 -4.982422,-2.951172 -1.570669,-0.435367 -3.957432,-0.27699 -5.761718,0.333984 -0.42981,0.145856 -0.85305,0.312817 -1.195313,0.46875 -0.131548,0.05993 -0.239483,0.115443 -0.345703,0.171875 -0.04701,-0.0183 -0.102477,-0.06209 -0.136719,-0.06641 -0.152707,-0.01923 -0.201765,0.01003 -0.25,0.02539 -0.192939,0.06143 -0.288327,0.133022 -0.453125,0.238281 -0.329596,0.210518 -0.76343,0.529968 -1.123047,0.847656 l -0.822265,0.71875 -0.03906,0.06641 c -0.01689,0.02814 -0.03893,0.06629 -0.05664,0.13086 -0.0089,0.03228 -0.01756,0.120494 -0.01758,0.121093 -4e-6,1.63e-4 0.0034,0.02718 0.0059,0.04492 -0.0874,0.04591 -0.158672,0.08987 -0.261719,0.134766 v 0.002 c -0.755052,0.329536 -1.308591,0.730144 -1.726562,1.285156 v 0.002 l -0.002,0.002 c -0.03945,0.05343 -0.07236,0.09898 -0.103515,0.148437 -0.03116,0.04946 -0.06795,0.08003 -0.09961,0.234375 -0.01107,0.05398 0.02273,0.170166 0.05469,0.277344 -0.04836,0.05723 -0.03549,0.07197 -0.154297,0.126953 h -0.002 c -0.606688,0.281758 -1.122428,0.908012 -1.6875,1.708984 -0.565072,0.800973 -1.115697,1.775176 -1.507813,2.726563 -0.166815,0.405123 -0.250673,0.547204 -0.296875,0.794922 -0.01155,0.06193 -0.0275,0.141977 0.0078,0.273437 0.02535,0.09438 0.121563,0.175199 0.207031,0.25 -0.01895,0.147125 -0.0609,0.387909 -0.173828,0.869141 -0.381732,1.628323 -0.385581,1.783896 0.0293,4.076172 0.255142,1.404779 0.456543,2.351498 0.677734,3.048828 0.221192,0.697329 0.476713,1.166789 0.822266,1.521484 l -0.0332,-0.03906 c 0.112618,0.142265 0.187646,0.309522 0.21875,0.488281 l -0.002,-0.01172 c 0.05953,0.405824 0.249245,0.780066 0.539062,1.070313 v 0.002 c 0.0098,0.0098 0.005,0.0044 0.01367,0.01367 -1.26e-4,0.0032 -0.0038,0.0086 -0.0039,0.01172 -0.0036,0.142132 0.02893,0.216217 0.05664,0.28711 0.05542,0.141787 0.128191,0.257711 0.216797,0.384765 0.17696,0.253745 0.413379,0.522297 0.679688,0.736329 3.82e-4,3.07e-4 -3.82e-4,0.0016 0,0.002 0.263646,0.21416 0.613844,0.360814 0.943359,0.298828 0.06926,-0.01274 0.118334,-0.01321 0.261719,0.06445 0.143385,0.07767 0.357634,0.245456 0.630859,0.521484 0.01395,0.01409 0.01795,0.01966 0.03125,0.0332 -8.55e-4,9.68e-4 -0.0011,9.75e-4 -0.002,0.002 -0.115009,0.131787 -0.13614,0.324789 -0.121094,0.423828 0.01505,0.09904 0.04114,0.147331 0.06055,0.185547 0.03882,0.07643 0.06775,0.114518 0.101563,0.164062 l 0.002,0.002 v 0.002 c 0.09003,0.12965 0.178504,0.211205 0.298828,0.326172 0.120325,0.114968 0.26195,0.239071 0.40625,0.353516 0.163563,0.133279 0.256013,0.22984 0.263672,0.240234 0.0078,0.0106 -0.04251,-0.161943 -0.01953,-0.232422 -0.09176,0.278603 0.0361,0.620293 0.21289,0.794922 0.657209,0.679946 1.367015,1.393558 2.19336,2.029297 0.09946,0.06765 0.182353,0.1204 0.279297,0.166016 0.04847,0.02281 0.09857,0.0459 0.185546,0.0625 0.02461,0.0047 0.09265,-0.03735 0.13086,-0.03516 0.04601,0.08467 0.05215,0.186235 0.113281,0.257813 0.15131,0.177182 0.351323,0.359657 0.654297,0.623047 v 0.002 c 0.195476,0.169103 0.327356,0.287702 0.53125,0.376953 0.203894,0.08925 0.468333,0.07451 0.626953,0.03125 0.05912,-0.01605 0.02545,-0.01076 0.0293,-0.0098 0.0038,9.95e-4 0.06814,0.02593 0.195312,0.113282 l 0.0039,0.002 0.0059,0.0039 c 0.487355,0.31752 0.838056,0.417267 1.207031,0.488281 -0.02288,0.106006 -0.0508,0.270492 0.06641,0.431641 0.13366,0.183779 0.292506,0.208813 0.375,0.222656 0.08249,0.01384 0.137113,0.01367 0.195312,0.01367 -0.04853,0 0.08052,0.01031 0.203125,0.03906 0.122603,0.02875 0.270609,0.07112 0.404297,0.115234 h 0.002 c 0.356691,0.117333 0.593311,0.189871 0.84375,0.203125 0.06261,0.0033 0.127662,0.0052 0.222656,-0.01758 0.03871,-0.0093 0.09432,-0.07998 0.146485,-0.107422 0.139557,0.06613 0.181738,0.07824 0.410156,0.201172 h 0.002 c 0.203403,0.10919 0.401779,0.120965 0.59375,0.205078 -0.570896,-0.006 -1.143409,0.0011 -1.710937,-0.06445 l -0.105469,-0.01172 c -1.817397,-0.327537 -4.469482,-1.371352 -6.0625,-2.410156 -3.692467,-2.407747 -6.060475,-5.041957 -7.533203,-8.341797 h -0.002 c -0.493136,-1.10299 -0.752882,-1.927485 -1.53711,-4.900391 l 0.002,0.002 c -0.159584,-0.622852 -0.344584,-1.239308 -0.552734,-1.847656 l -0.0039,-0.01172 -0.0039,-0.01172 c -0.08028,-0.200689 -0.09987,-0.246421 -0.111328,-0.470703 -0.01146,-0.224283 0.0038,-0.616266 0.04102,-1.335938 0.03499,-0.66777 0.108868,-1.466771 0.189453,-2.113281 0.04029,-0.323255 0.08344,-0.608568 0.121094,-0.816406 0.0087,-0.04778 0.01546,-0.07283 0.02344,-0.111329 0.07674,-0.04075 0.164006,-0.07901 0.205078,-0.125 0.124991,-0.139964 0.16261,-0.259042 0.208985,-0.396484 0.09275,-0.274883 0.161729,-0.633639 0.232422,-1.126953 l 0.002,-0.0039 v -0.0039 c 0.04821,-0.385663 0.130069,-0.765774 0.246094,-1.136718 0.09471,-0.210433 0.190955,-0.481534 0.265625,-0.732422 0.15751,-0.526844 0.355233,-0.90166 1.078125,-2.015625 0.323201,-0.498395 0.639263,-0.996474 0.763671,-1.232422 h -0.002 c 0.03171,-0.05969 0.06019,-0.08233 0.03906,-0.06445 -0.02112,0.01787 -0.137081,0.07962 -0.261719,0.05469 l -0.04687,-0.01172 c 0.320925,0.09724 0.514075,-0.05356 0.642578,-0.154297 0.128503,-0.100735 0.230851,-0.216422 0.333985,-0.351563 v -0.002 c 1.470792,-1.586838 2.084642,-1.866201 3.517614,-2.601517 0.02712,-0.02886 0.04865,-0.0581 0.07227,-0.08594 l 0.267578,-0.154297 0.002,-0.002 c 0.07554,-0.04282 0.414334,-0.189283 0.625,-0.257812 l -0.02734,-0.08398 0.0293,0.08594 c 0.133742,-0.04415 0.229289,-0.06359 0.257812,-0.06641 0.01946,-0.0019 -0.06746,-0.03589 -0.136719,-0.06641 0.0036,-8.87e-4 0.0063,-0.0011 0.0098,-0.002 0.108953,0.07045 0.22021,0.12189 0.298828,0.128906 0.100612,0.009 0.182871,0.0013 0.269531,-0.01172 0.171608,-0.02577 0.361326,-0.0778 0.597657,-0.154297 l 0.0059,-0.002 c 0.129167,-0.04066 0.228934,-0.07798 0.332031,-0.115235 0.0456,0.05953 0.06574,0.128027 0.126953,0.160156 0.748121,-0.02679 1.206865,-0.184746 1.935588,-0.460937 l -0.0078,0.0039 c 0.01108,-0.0039 0.293892,-0.07498 0.480469,-0.107422 l 0.248046,-0.04297 0.0039,-0.0078 0.125,-0.02148 -0.002,-0.0293 c 1.254937,-0.596608 2.923622,0.242874 4.046912,-0.341866 0.258976,-0.0093 0.479273,-0.118923 0.658203,-0.21875 0.12547,-0.06922 0.351268,-0.126806 0.529297,-0.134766 0.178029,-0.008 0.286514,0.104796 0.166015,-0.03125 z m -5.445312,0.23242 c 0.0011,-5.21e-4 0.0028,5.25e-4 0.0039,0 0.0022,0.0035 0.0039,0.007 0.0059,0.0098 0.02139,0.03062 0.04326,0.05579 0.06445,0.07617 0.04302,0.02367 -0.03646,0.09118 -0.05469,0.136771 z m -5.583985,1.453128 c -2.1e-4,-5.99e-4 0.02452,0.0881 0.02734,0.123047 0.0028,0.03495 4.38e-4,0.06395 -0.002,0.08789 -0.0016,0.01561 -0.0036,0.02106 -0.0059,0.0332 -0.002,0.01076 -0.0036,0.02071 -0.0059,0.0293 -0.758786,0.130858 -0.01294,-0.261269 -0.01354,-0.273437 z m 17.550782,3.962891 c -0.0013,0.0034 -0.0066,0.0064 -0.0078,0.0098 v -0.0039 c 7e-4,-0.002 0.007,-0.0038 0.0078,-0.0059 z m 0.93164,0.34375 c -0.01416,0.03823 -0.04963,0.106478 -0.125,0.160156 -0.03259,0.02321 -0.06358,0.01782 -0.09961,0.0293 0.08551,-0.07046 0.200716,-0.125054 0.224609,-0.189453 z m -19.949219,1.730469 -0.0098,0.0039 c -9.5e-5,3.5e-5 -0.01329,-4.18e-4 -0.01367,0 0.0042,-0.002 0.01905,-0.0022 0.02344,-0.0039 z m 21.208982,0.404293 c -30.582029,-19.4218753 -15.291015,-9.710938 0,0 z m -0.05664,1.013675 c -0.0021,0.002 -0.0077,0.0038 -0.0098,0.0059 l 0.0039,-0.0039 c 0.0012,-0.0011 0.0046,-8.4e-4 0.0059,-0.002 z m -12.230469,0.164063 c -0.252625,0.111214 -0.50844,0.200798 -0.767578,0.36914 0.243781,-0.136758 0.506847,-0.289842 0.767578,-0.36914 z m -0.941406,0.484375 c -1.295798,0.89638 -2.085846,2.000917 -2.40039,3.341797 0.04495,-0.13662 0.08902,-0.424771 0.121093,-0.47461 l -0.0098,0.01367 c 0.131325,-0.189199 0.224681,-0.401448 0.271484,-0.626953 l 0.0098,-0.05078 v -0.05078 c 0,0.05611 0.0075,-0.03885 0.06055,-0.154297 0.05306,-0.115452 0.139778,-0.268007 0.246093,-0.429688 0.212631,-0.323362 0.509053,-0.688992 0.791016,-0.958984 0.30085,-0.288784 0.608275,-0.420462 0.910156,-0.609375 z m 7.386719,1.630859 c -0.197775,-0.0411 -0.445988,0.0467 -0.574219,0.175781 -0.127746,0.128597 -0.179814,0.265749 -0.214844,0.400391 -1.32e-4,5.11e-4 1.33e-4,0.0014 0,0.002 -0.08181,0.316279 0.04387,0.674642 0.236329,0.923828 5.78e-4,7.55e-4 0.0014,0.0012 0.002,0.002 3.82e-4,4.94e-4 -3.83e-4,0.0015 0,0.002 l 0.002,-0.002 c 0.117137,0.152487 0.230645,0.279242 0.421875,0.365235 0.09634,0.04332 0.223162,0.07477 0.36914,0.05273 0.145979,-0.02204 0.293834,-0.111044 0.378907,-0.216797 0.170145,-0.211506 0.162708,-0.406057 0.146484,-0.578125 -0.01622,-0.172068 -0.06665,-0.342241 -0.146484,-0.52539 -0.112107,-0.256827 -0.225543,-0.519371 -0.621094,-0.601563 z m -21.550781,0.5 c 0.03096,0.01882 0.08626,0.006 0.126953,0.01953 -0.01793,-0.0054 -0.03486,0.02473 -0.05273,0.01758 z m 25.679687,0.320313 c 0.102751,0 0.260098,0.07943 0.314453,0.144531 0.0047,0.0056 6.3e-5,8.94e-4 0.0039,0.0059 -0.111623,-0.06935 -0.233401,-0.15039 -0.31836,-0.15039 z m -3.958984,0.123047 c 0.0021,2.52e-4 0.0038,-2.85e-4 0.0059,0 L 39.875,33.625 Z m -19.269531,0.101562 c -0.0592,0 -0.07953,-0.05197 0.113281,0.03906 0.01452,0.0069 0.02178,0.03402 0.03711,0.04492 -0.05468,-0.01585 -0.111456,-0.08398 -0.150391,-0.08398 z m 9.246093,0.806641 c -0.0013,0.0051 0.0013,0.01051 0,0.01563 -10e-4,0.005 -0.0049,0.0086 -0.0059,0.01367 z m 9.710938,0.576172 c -0.118591,0.06598 -0.158094,0.129584 -0.189453,0.175781 -0.04444,0.06546 -0.05404,0.107103 -0.07031,0.152344 -0.0541,0.008 -0.131607,-0.03424 -0.164062,-0.01758 -0.232748,0.119478 -0.246904,0.215803 -0.308594,0.320313 -0.06169,0.10451 -0.116449,0.223225 -0.169922,0.365234 -0.112718,0.300055 -0.197935,0.506447 -0.179687,0.794922 0.0086,0.136601 0.07075,0.299518 0.167968,0.421875 l -0.171875,0.923828 c -0.0034,-0.06515 0.02179,-0.105309 -0.05078,-0.208984 L 38.576176,37.5293 38.271488,37.57227 c -0.213675,0.03114 -0.421649,0.0997 -0.613281,0.199218 l 0.0332,-0.01758 c -0.179653,0.07699 -0.571407,0.201935 -0.763672,0.242188 -0.27063,0.05488 -0.485429,0.09707 -0.701172,0.345703 -0.107871,0.124315 -0.203043,0.408243 -0.103515,0.632812 0.09953,0.22457 0.262533,0.302694 0.392578,0.353516 l 0.201172,-0.517578 -0.173828,0.523437 c 0.17823,0.05943 0.216904,0.04528 0.345703,0.05664 0.128798,0.01136 0.282011,0.01953 0.441406,0.01953 0.252445,0.0034 0.453661,0.03098 0.710938,-0.09961 0.259356,-0.131643 0.3564,-0.322834 0.490234,-0.527344 0.07841,-0.120024 0.146942,-0.229863 0.201172,-0.332031 0.02712,-0.05108 0.05064,-0.09874 0.07422,-0.164063 0.01179,-0.03266 0.02623,-0.06697 0.03516,-0.132812 1.43e-4,-0.0011 -0.0021,-0.0048 -0.002,-0.0059 l 0.710937,-0.765625 c 0.04345,0.0121 0.08293,0.03111 0.13086,0.03906 0.130329,0.02162 0.30464,0.02145 0.470703,-0.06055 0.166062,-0.082 0.275185,-0.223834 0.335937,-0.341797 0.06075,-0.117962 0.09327,-0.226521 0.125,-0.345703 v -0.002 c 0.07744,-0.293185 0.112416,-0.612943 0.117188,-0.898438 0.0024,-0.142747 -0.0028,-0.272647 -0.02344,-0.402343 -0.0103,-0.06485 -0.02357,-0.129722 -0.05469,-0.208985 -0.0309,-0.0787 -0.07062,-0.195983 -0.246094,-0.300781 -0.146312,-0.08655 -0.399433,-0.07355 -0.517578,-0.0078 z m -8.78711,1.796879 c 0.02015,0.01669 0.0071,0.01022 0.01953,0.02344 -0.0099,-0.0024 -0.01302,-0.01563 -0.01953,-0.02344 z m -0.107421,0.861324 c 0.0076,-0.0021 0.0203,0.0065 0.02734,0.0039 l -0.002,0.002 c -0.0049,0.0017 -0.01952,-0.0072 -0.02539,-0.0059 z m -7.382813,7.917968 c -0.0041,0.04707 -0.0077,0.102946 -0.05078,0.175782 -0.05219,0.08832 -0.156491,0.170084 -0.246094,0.201172 0.122231,-0.04231 0.234075,-0.22039 0.296875,-0.376954 z M 14.917969,5.5 C 13.729942,5.5 12.657088,6.0628369 11.859375,6.8613281 11.061662,7.6598194 10.5,8.7319796 10.5,9.9199219 v 0.00195 l 0.169922,46.1621091 c 0.0012,1.186757 0.564341,2.257235 1.361328,3.054688 C 12.829121,59.93701 13.900473,60.5 15.087891,60.5 h 33.99414 c 1.188027,0 2.260881,-0.562837 3.058594,-1.361328 C 52.938338,58.340181 53.5,57.26802 53.5,56.080078 v -29.0625 c 0,-0.854999 0.0142,-1.492302 -0.318359,-2.158203 C 52.849079,24.193474 52.353999,23.745624 51.5,22.890625 L 36.076172,7.4550781 36.019531,7.4121094 C 35.26819,6.8438401 34.107686,5.5 32,5.5 Z m 0,2 H 32 c 1.274361,0 1.741373,0.6756979 2.746094,1.453125 l 15.33789,15.351562 c 0.852631,0.853699 1.214226,1.260262 1.308594,1.449219 C 51.487016,25.943004 51.5,26.162579 51.5,27.017578 v 29.0625 c 0,0.522056 -0.291855,1.160524 -0.775391,1.644531 C 50.241074,58.208617 49.603002,58.5 49.082031,58.5 h -33.99414 c -0.519581,0 -1.158701,-0.29123 -1.642578,-0.775391 -0.483878,-0.48416 -0.775391,-1.122865 -0.775391,-1.644531 v -0.002 -0.002 L 12.5,9.9199219 c 0,-0.522056 0.291855,-1.1605238 0.775391,-1.6445313 C 13.758926,7.7913831 14.396998,7.5 14.917969,7.5 Z"
     sodipodi:nodetypes="cssssscccccsccscccsccccsccccccccccscscccscsscccccssssssscscccsccccsscscccccccccccsssssscscccsccscccscccccccssscsccccccsccscccccccscccsccscsccsccscccccsccccscccccccccsscssccscsccccssscccscsscscccccccccccccsccsccccsscccccsccscccccccccssssccccsccccccsccccccsccccssccccsscccccsssccsccsscccsscccccccccccccscccccccccscccccccccccccccsscssccccccccccccssccccccccccccsscccccccccsccsccccccccssscccsccsscssccsccccccscsssscccccsscsscccssssccccccccscccsccccsccccccsscccscsscccsccccccccsssccssccsscccscscccsscsccsccccccsscsccccccccccccccccccscsccssccccccccsccsccccccccccccccccccccccccccccccccccccccccccccccsscssccccccccccccccsccccccsscsscsscssccssssccccccccccccccccsccscccccscssccccccccccsscccscscsssccsssccccscccccccccccsccsssssccssssssscccssssccsssssssscccss" />
</svg>
