<?xml version="1.0" encoding="UTF-8" standalone="no"?>
<svg
   height="64"
   width="64"
   version="1.1"
   id="svg9"
   sodipodi:docname="application-vnd.oasis.opendocument.web-template.svg"
   inkscape:version="1.1.2 (0a00cf5339, 2022-02-04)"
   xmlns:inkscape="http://www.inkscape.org/namespaces/inkscape"
   xmlns:sodipodi="http://sodipodi.sourceforge.net/DTD/sodipodi-0.dtd"
   xmlns="http://www.w3.org/2000/svg"
   xmlns:svg="http://www.w3.org/2000/svg">
  <defs
     id="defs13" />
  <sodipodi:namedview
     id="namedview11"
     pagecolor="#ffffff"
     bordercolor="#666666"
     borderopacity="1.0"
     inkscape:pageshadow="2"
     inkscape:pageopacity="0.0"
     inkscape:pagecheckerboard="0"
     showgrid="false"
     inkscape:zoom="10.21875"
     inkscape:cx="31.95107"
     inkscape:cy="32"
     inkscape:window-width="1600"
     inkscape:window-height="836"
     inkscape:window-x="0"
     inkscape:window-y="0"
     inkscape:window-maximized="1"
     inkscape:current-layer="svg9" />
  <path
     style="color:#000000;fill:#807f7f;fill-opacity:0.2;stroke-width:2;-inkscape-stroke:none"
     d="m 11.67,56.08 c 0,1.71 1.71,3.42 3.417,3.42 h 33.996 c 1.709,0 3.417,-1.71 3.417,-3.42 V 27.017 c 0,-1.71 0,-1.71 -1.708,-3.42 L 35.417,8.21 C 34.51,7.524 33.708,6.5 32,6.5 H 14.917 C 13.208,6.5 11.5,8.21 11.5,9.92 Z"
     id="path6569" />
  <path
     style="color:#000000;fill:#807f7f;-inkscape-stroke:none"
     d="M 14.917969,5.5 C 13.729942,5.5 12.657088,6.0628369 11.859375,6.8613281 11.061662,7.6598194 10.5,8.7319796 10.5,9.9199219 v 0.00195 l 0.169922,46.1621091 c 0.0012,1.186757 0.564341,2.257235 1.361328,3.054688 C 12.829121,59.93701 13.900473,60.5 15.087891,60.5 h 33.99414 c 1.188027,0 2.260881,-0.562837 3.058594,-1.361328 C 52.938338,58.340181 53.5,57.26802 53.5,56.080078 v -29.0625 c 0,-0.854999 0.0142,-1.492302 -0.318359,-2.158203 C 52.849079,24.193474 52.353999,23.745624 51.5,22.890625 L 36.076172,7.4550781 36.019531,7.4121094 C 35.26819,6.8438401 34.107686,5.5 32,5.5 Z m 0,2 H 32 c 1.274361,0 1.741373,0.6756979 2.746094,1.453125 l 15.33789,15.351562 c 0.852631,0.853699 1.214226,1.260262 1.308594,1.449219 C 51.487016,25.943004 51.5,26.162579 51.5,27.017578 v 29.0625 c 0,0.522056 -0.291855,1.160524 -0.775391,1.644531 C 50.241074,58.208617 49.603002,58.5 49.082031,58.5 h -33.99414 c -0.519581,0 -1.158701,-0.29123 -1.642578,-0.775391 -0.483878,-0.48416 -0.775391,-1.122865 -0.775391,-1.644531 v -0.002 -0.002 L 12.5,9.9199219 c 0,-0.522056 0.291855,-1.1605238 0.775391,-1.6445313 C 13.758926,7.7913831 14.396998,7.5 14.917969,7.5 Z"
     id="path6571" />
  <g
     transform="matrix(2.4251302,0,0,2.4251302,12.598958,19.725792)"
     id="g2522"
     style="fill:none;stroke:#807f7f;stroke-width:0.412349">
    <path
       style="color:#807f7f;fill:#807f7f;stroke:none;-inkscape-stroke:none"
       d="M 8,1.7929687 C 4.5748678,1.7929687 1.7929687,4.5748702 1.7929687,8 c 0,3.42513 2.7818991,6.207031 6.2070313,6.207031 3.425132,0 6.207031,-2.781901 6.207031,-6.207031 C 14.207031,4.5748702 11.425132,1.7929687 8,1.7929687 Z m 0,0.4140626 c 3.202283,0 5.792969,2.5906882 5.792969,5.7929687 0,3.20228 -2.590686,5.792969 -5.792969,5.792969 C 4.7977174,13.792969 2.2070313,11.20228 2.2070313,8 2.2070313,4.7977195 4.7977174,2.2070312 8,2.2070313 Z m -0.013672,0.5859375 -0.011719,0.00195 -0.00781,0.00195 c -0.3008049,0.00386 -0.6011493,0.036531 -0.8964844,0.09375 -0.00834,0.00162 -0.017057,2.948e-4 -0.025391,0.00195 -0.023327,-0.00429 -0.054503,-0.015035 -0.1171875,0.00586 l 0.025389,-0.0078 C 6.8950229,2.9016921 6.8506035,2.9161509 6.8183594,2.9238281 6.7307386,2.9440992 6.6573302,2.970862 6.59375,2.9882813 l -0.125,0.033203 -0.023437,0.1289062 c -0.00113,0.00619 6.447e-4,0.00417 0,0.00977 -0.030543,0.038596 -0.074426,0.08767 -0.066406,0.171875 0.00692,0.07318 0.061438,0.1598683 0.1132813,0.1953125 0.052233,0.03571 0.085756,0.041103 0.076172,0.037109 l 0.037109,0.015625 h 0.039063 c 0.069696,0.00122 0.1376291,-0.017789 0.203125,-0.041016 -0.00104,0.02303 -0.00244,0.025786 0,0.066406 v 0.00195 c 0.00441,0.061771 0.040005,0.1410689 0.091797,0.1855469 0.017583,0.0151 0.026913,0.012946 0.042969,0.021484 -0.0098,0.00527 -0.030635,0.00506 -0.037109,0.00977 -0.056139,0.04078 -0.051111,0.04101 -0.027344,0.027344 -0.028772,0.015472 -0.060469,0.025962 -0.091797,0.035156 -0.014695,6.948e-4 -0.054787,9.901e-4 -0.1113282,0.00195 -0.030712,5.231e-4 -0.07929,0.022562 -0.1191406,0.029297 -0.00442,-0.00115 -0.013121,-0.00647 -0.017578,-0.00781 C 6.55117,3.9020235 6.5264564,3.8969732 6.5,3.8925781 6.4505006,3.8843551 6.4095973,3.8747287 6.3300781,3.890625 6.1955869,3.9131805 6.0876991,4.0193975 6.0664062,4.1542969 l -0.023437,0.1542968 0.1386719,0.0625 c -1.488e-4,9.307e-4 -0.00181,0.00102 -0.00195,0.00195 -0.074454,0.00751 -0.1512003,0.020938 -0.1875,0.042969 -0.049532,0.030061 -0.082256,0.048633 -0.072266,0.044922 v 0.00195 c -0.020545,0.00773 -0.086482,0.018807 -0.1679688,0.048828 -0.071907,0.026492 -0.1670133,0.1117474 -0.2128906,0.2265625 -0.00915,0.0026 -0.00966,-2.895e-4 -0.021484,0.00391 h -0.00195 -0.00195 c -0.00475,0.00178 -0.031712,0.00839 -0.041016,0.00977 0.00275,-0.00763 0.011705,-0.00751 0.013672,-0.015625 L 5.5117187,4.625 5.4316406,4.5429687 C 5.3829747,4.4943028 5.3277597,4.4817896 5.296875,4.4785156 c -0.030885,-0.00327 -0.048665,-0.00131 -0.060547,0 -0.010313,0.00113 -0.00254,0.00161 -0.00586,0.00195 C 5.20713,4.4091656 5.175443,4.3324078 5.0546875,4.3007812 h -0.00195 -0.00195 c -0.034824,-0.00819 -0.0477,0.00639 -0.074219,0.011719 -0.010069,-0.00698 -0.020577,-0.00975 -0.033203,-0.015625 -0.00127,-0.00344 0.00131,-0.010483 0,-0.013672 -0.036302,-0.088532 -0.081677,-0.127082 -0.125,-0.1621094 L 4.703125,4.2636719 H 4.6738281 L 4.5527344,4.1269531 c -0.057692,0.051282 -0.098563,0.097738 -0.1367188,0.1367188 h -0.037109 l 0.019531,0.017578 c -0.00208,0.00204 -0.00578,0.00586 -0.00781,0.00781 l -0.00586,0.00586 H 4.1289062 l 0.125,0.125 -0.025391,0.025391 0.054687,0.048828 c 6.481e-4,-7.615e-4 -0.00303,0.00327 -0.00195,0.00195 4.557e-4,-5.548e-4 -0.017647,0.00595 -0.064453,0.064453 h -0.00195 V 4.5625 c 3.352e-4,-4.282e-4 -0.048337,0.055486 -0.085937,0.1230469 -0.0188,0.033781 -0.043054,0.068711 -0.046875,0.1484375 -0.00191,0.039863 0.00669,0.099468 0.044922,0.1523437 0.03823,0.052875 0.099159,0.082033 0.1445313,0.091797 l 0.00195,0.00195 h 0.00391 c 0.093269,0.016459 0.1308401,-0.011613 0.1621094,-0.027344 0.031269,-0.01573 0.054553,-0.031554 0.076172,-0.048828 0.00576,-0.0046 0.010162,-0.0109 0.015625,-0.015625 0.041008,0.050264 0.074617,0.1150367 0.1191406,0.125 0.072307,0.016181 0.1211814,0.00439 0.1660156,-0.00977 0.079959,-0.025494 0.1122381,-0.05694 0.1503907,-0.085937 l 0.099609,-0.00391 c -0.00121,0.00179 -0.00292,0.0043 -0.00391,0.00586 -0.036792,3.173e-4 -0.068954,-0.00816 -0.1191406,0.023437 l -0.091797,0.056641 -0.00391,0.1074218 c -0.0029,0.061892 0.00616,0.097116 0.00977,0.125 -0.02885,0.026607 -0.065396,0.060196 -0.083984,0.072266 -0.025755,0.00301 -0.07439,0.00839 -0.125,0.033203 v 0.00195 c -0.056247,0.028124 -0.079306,0.05153 -0.1015625,0.070312 -0.022256,0.018783 -0.040409,0.032372 -0.035156,0.029297 -0.038426,0.022416 -0.1058298,0.05195 -0.1777343,0.1152344 -0.03467,0.030514 -0.043787,0.099035 -0.070312,0.1503906 -0.017265,-0.010326 -0.024322,-0.023732 -0.052734,-0.033203 l -0.019531,-0.00586 -0.019531,-0.00391 c -0.026774,-0.00345 -0.056148,0.010397 -0.085937,0.017578 C 4.0595502,5.7657552 4.0314723,5.7474421 3.96875,5.734375 L 3.96094,5.732425 H 3.95508 C 3.894681,5.723915 3.8437982,5.727935 3.8164082,5.730475 c -0.02739,0.00253 -0.032497,0.00426 -0.048828,0.00195 l -0.066406,-0.00977 -0.058594,0.03125 C 3.5866602,5.783337 3.5771072,5.802877 3.5546892,5.828124 3.5354172,5.816819 3.5386092,5.806931 3.5078142,5.798827 L 3.4824232,5.792967 H 3.2910156 L 3.2363281,5.9140625 C 3.0998994,6.2173357 2.9971202,6.53551 2.921875,6.859375 2.913535,6.871463 2.891175,6.89864 2.878906,6.955078 v 0.00195 0.00195 c -0.01807,0.09035 -0.01407,0.1015998 0,0.03125 L 2.830078,7.2363217 h 0.25 c -0.022226,0 -0.016066,-0.00102 0.00977,0.00195 0.00852,9.798e-4 0.035782,-0.00982 0.050781,-0.00977 L 3.0644531,7.3125 2.8632813,7.2832031 C 2.8301264,7.5132779 2.796875,7.7446747 2.796875,8 v 0.00195 c 0.00361,0.3172154 0.038086,0.6340996 0.099609,0.9453125 l -0.00195,-0.00195 c 0.0098,0.051932 0.019939,0.1054788 0.033203,0.1640625 0.062712,0.28828 0.149566,0.5700796 0.2597656,0.84375 0.019255,0.048497 0.035871,0.072631 0.033203,0.066406 0.1246048,0.29602 0.2763214,0.578867 0.4550782,0.845703 l 0.00195,0.002 c -0.019657,-0.02873 -0.012802,-0.0013 0.033203,0.06445 0.1557254,0.229162 0.3280818,0.444349 0.5175781,0.646484 0.035802,0.03819 0.069934,0.07193 0.097656,0.09961 0.2390169,0.240417 0.4997205,0.456693 0.7792968,0.648438 l 0.00195,0.002 0.3242187,0.212891 0.082031,-0.259766 c 0.015655,-0.04957 0.00999,-0.07881 0.00781,-0.09766 l -0.00195,0.0078 c 0.00599,-0.03444 0.00507,-0.06245 0.00391,-0.07617 -0.00303,0.0371 0.014205,0.02348 0.029297,-0.08594 v -0.0039 -0.002 c 0.00834,-0.07645 -0.00329,-0.120946 -0.011719,-0.169922 -0.00843,-0.04898 -0.018846,-0.09411 -0.023437,-0.115235 v -0.002 c -0.014049,-0.06268 -0.038415,-0.09959 -0.050781,-0.121094 0.011925,-0.02257 0.028065,-0.03056 0.023437,-0.09766 -0.00279,-0.03772 -0.01702,-0.04592 -0.03125,-0.07226 -0.00105,-0.01774 -0.00142,-0.03501 0,-0.05274 0.0068,-0.08708 0.0012,-0.154684 0.00195,-0.201172 l -0.00195,0.0078 c 0.00252,-0.04782 0.00195,-0.09511 0.00195,-0.105469 0,-0.06301 -0.021012,-0.118171 -0.029297,-0.138672 0,0 -0.00195,0.002 -0.00195,0.002 -0.00195,-0.06305 0.018532,-0.141801 -0.00391,-0.273437 -0.00167,-0.0093 -0.00411,-0.0527 -0.00781,-0.09961 -0.00371,-0.04691 0.00665,-0.09187 -0.046875,-0.185546 v -0.002 h -0.00195 c -0.047836,-0.0815 -0.08766,-0.106577 -0.1328125,-0.142578 -0.045153,-0.036 -0.088234,-0.06572 -0.1308594,-0.08984 -0.06597,-0.0377 -0.1135412,-0.038 -0.1367187,-0.04102 -0.023178,-0.003 -0.023046,-0.0066 0.00195,0.0059 -0.030095,-0.01486 -0.085473,-0.04719 -0.1289062,-0.07813 -0.035491,-0.02528 -0.04597,-0.04128 -0.044922,-0.0332 C 4.8006136,9.991305 4.8118676,9.978453 4.7871036,9.91993 4.7499698,9.8321375 4.6924706,9.7951442 4.6640625,9.7734375 4.6356544,9.7517308 4.6320135,9.7411786 4.6445312,9.7597656 4.6085925,9.7023665 4.5776135,9.5837549 4.4902344,9.4492188 4.4769521,9.4288802 4.4563172,9.3560123 4.3769531,9.2675781 H 4.375 C 4.348545,9.2386031 4.343631,9.2384961 4.332031,9.2304691 c 0.00245,-0.00281 0.00327,-0.00272 0.00586,-0.00586 0.024146,-0.029304 0.060547,-0.083166 0.060547,-0.1621094 0,-0.079241 -0.032909,-0.099913 -0.058594,-0.1308594 0.010046,-0.014791 0.019789,-0.023337 0.039063,-0.064453 v -0.00195 h 0.00195 c 0.00728,-0.01617 0.012218,-0.02489 0.011719,-0.025391 0.0117,-0.00964 0.030898,-0.026349 0.052734,-0.052734 0.056858,-0.069042 0.044221,-0.083049 0.042969,-0.1015625 0.034617,-0.01581 0.1122087,-0.046233 0.1484375,-0.1503906 l 0.00586,-0.017578 0.00391,-0.019531 c 0.017145,-0.1135448 0.017145,-0.2282521 0,-0.3417969 l -0.00195,-0.00977 -0.00195,-0.00977 c -0.00312,-0.012489 -0.00776,-0.010986 -0.011719,-0.021484 0.00638,-0.0056 0.024299,-0.00875 0.029297,-0.013672 0.027288,-0.026894 0.04182,-0.049923 0.054687,-0.070312 0.025735,-0.040779 0.042381,-0.076118 0.048828,-0.087891 l 0.00391,-0.00781 0.00391,-0.00195 c 9.627e-4,-4.992e-4 0.017135,-0.00513 0.019531,-0.00586 0.00727,0.043434 0.011856,0.090385 0.058594,0.1308594 0.059784,0.051772 0.1443254,0.054992 0.1992187,0.042969 0.066459,-0.015244 0.1188418,-0.053082 0.1464844,-0.091797 0.014101,-0.01975 0.015813,-0.042166 0.023437,-0.0625 0.024017,0.013283 0.041128,0.028369 0.070312,0.035156 l 0.00391,0.00195 h 0.00391 c 0.064328,0.011913 0.088895,-0.00122 0.1113281,-0.00977 0.0055,0.00536 0.00628,0.00734 0.013672,0.013672 0.026944,0.02307 0.078539,0.0625 0.1640625,0.0625 h 0.00195 0.00195 c 0.083338,-0.00177 0.091079,-0.036227 0.1230469,-0.064453 l 0.035156,0.048828 0.066406,0.011719 c 0.013341,0.015968 0.025259,0.035962 0.037109,0.044922 0.047298,0.043356 0.077767,0.055888 0.1035156,0.070312 0.010422,0.017019 0.029395,0.054477 0.066406,0.097656 l 0.00781,0.00781 0.00781,0.00781 c 0.081046,0.077278 0.182647,0.1274941 0.2929687,0.1464844 0.1264027,0.022982 0.1915347,0.00937 0.1484375,0 l 0.013672,0.00195 0.013672,0.00195 c 0.036622,0.00301 0.072198,0.018497 0.099609,0.042969 l 0.00586,0.00391 0.00586,0.00586 c 0.032258,0.02439 0.019381,0.00699 0.015625,-0.00195 -0.00596,0.022191 -0.02121,0.038883 0.00781,0.1230469 0.028668,0.083397 0.053608,0.087494 0.078125,0.1054687 l -0.00977,0.033203 0.035156,0.072266 c 0.037733,0.078 0.09977,0.1108538 0.1308561,0.1269643 0.031086,0.01611 0.043507,0.023007 0.041016,0.021484 0.064194,0.039844 0.091055,0.036842 0.109375,0.039063 0.052511,0.026255 0.089137,0.023426 0.1191406,0.021484 0.014405,0.011459 0.036733,0.031271 0.089844,0.050781 h 0.00195 c 0.021284,0.00755 0.03066,0.010592 0.042969,0.013672 0.013581,0.031574 0.01788,0.06458 0.091797,0.1015625 0.073231,0.036615 0.099004,0.024128 0.1210938,0.023437 0.02209,-6.903e-4 0.037071,-7.535e-4 0.048828,-0.00195 0.023514,-0.0024 0.044248,0.00865 -0.011719,-0.00781 l 0.015625,0.00391 0.015625,0.00195 c 0.011797,0.00153 0.066869,0.033203 0.1835937,0.033203 h 0.046875 c -0.008,-6.506e-4 0.020614,0.00717 0.070312,0.042969 0.049698,0.035801 0.1119986,0.093735 0.2167969,0.1328125 h 0.00195 0.00195 c 0.022159,0.00779 0.021273,0.00736 0.035156,0.011719 0.00902,0.026922 0.015861,0.064048 0.015625,0.056641 0.00205,0.029349 0.00602,0.014141 -0.019531,0.041016 C 8.08672,9.55137 8.016047,9.600207 7.9492094,9.6992253 c -0.030528,0.045364 -0.037041,0.067861 -0.046875,0.089844 -0.010003,0.02236 -0.020673,0.040565 -0.015625,0.033203 v 0.00195 c -0.00101,0.00149 -0.00534,-0.00406 -0.054687,0.054687 -0.049001,0.058335 -0.078684,0.1657087 -0.074219,0.2578127 0.00245,0.04956 0.015916,0.07061 0.027344,0.09375 -0.00431,0.04284 -0.010611,0.08527 -0.021484,0.126953 v 0.002 l -0.00195,0.002 c -0.025805,0.109671 -0.0113,0.161632 -0.00195,0.107422 -0.00373,0.02235 -0.00264,0.03761 -0.00195,0.05664 0.00372,-0.0068 -0.0011,0.0059 0,0.002 -0.00929,0.01688 -0.025074,0.03707 -0.039063,0.0625 v 0.002 c -0.027821,0.05201 -0.043728,0.08532 -0.048828,0.09375 -0.05053,0.01696 -0.1181403,0.03832 -0.1816407,0.06055 h -0.00195 c 0.00266,-9.58e-4 -0.046553,0.0069 -0.1113281,0.03711 v 0.002 c -0.038527,0.01816 -0.1042668,0.04531 -0.171875,0.08789 -0.067267,0.04237 -0.1543508,0.101544 -0.1894531,0.230469 -0.030001,0.109094 8.895e-4,0.193849 0.013672,0.236328 0.00703,0.02336 0.00485,0.01511 0.00586,0.01953 -0.00392,0.0041 8.86e-5,4.48e-4 -0.00586,0.0059 -0.016911,0.01538 -0.03862,0.03216 -0.068359,0.06836 -0.00932,0.01119 -0.084913,0.06285 -0.1289063,0.1875 l -0.00195,0.002 v 0.002 c -0.00301,0.009 -0.00699,0.02046 -0.00977,0.03711 -5.532e-4,0.0033 4.906e-4,0.0065 0,0.01172 -0.00309,0.0059 -0.00663,0.0113 -0.00977,0.01758 l -0.00195,0.0039 -0.00195,0.0039 c -0.017992,0.04048 -0.00742,0.04301 -0.00781,0.06641 -0.00575,0.0077 -0.00906,0.0143 -0.021484,0.02734 -0.01886,0.0198 -0.05941,0.02841 0.00586,0.0098 0.009,-0.0025 -0.0023,0.0013 -0.042969,-0.0098 -0.040666,-0.01106 -0.099461,-0.04897 -0.2207031,-0.02539 l -0.203125,0.03906 0.039063,0.203125 c 0.015241,0.07773 0.064545,0.113445 0.1015625,0.144531 0.00145,0.0063 0.00393,0.01129 0.00586,0.01758 -0.00215,3.93e-4 -0.00368,-4.1e-4 -0.00586,0 0.015168,-0.0029 -0.028091,0.0027 -0.070312,0.0078 -0.021111,0.0025 -0.043875,0.0053 -0.074219,0.01367 -0.030343,0.0084 -0.076689,0.0098 -0.1367188,0.08984 l -0.00195,0.002 -0.00195,0.002 c -0.023983,0.03358 -0.01974,0.05409 -0.025391,0.08203 -0.026701,8.36e-4 -0.0399,-0.01061 -0.074219,0.0039 l -0.1132813,0.04687 -0.011719,0.121094 c -0.00997,0.09971 0.026362,0.140883 0.041016,0.164062 0.014654,0.02318 0.023123,0.03717 0.011719,0.01563 l 0.037109,0.06836 0.070312,0.02734 c 0.257172,0.100336 0.5347554,0.226888 0.8476563,0.291016 0.1556797,0.03157 0.3091009,0.04757 0.4550781,0.06445 0.1932653,0.02194 0.3887035,0.0332 0.5859375,0.0332 0.370187,0.0069 0.740335,-0.02756 1.1035157,-0.09961 h 0.00391 0.00195 c 0.6413263,-0.143694 1.2494709,-0.408857 1.7910159,-0.78125 0.279164,-0.191462 0.538615,-0.410397 0.777344,-0.650391 l 0.609375,-0.607422 -0.525391,0.125 c 0.0056,-0.02146 0.0097,-0.02811 0.01367,-0.05469 0.006,-0.04043 0.01052,-0.08959 -0.0078,-0.152344 -0.004,-0.01371 -0.02398,-0.02291 -0.03125,-0.03711 1.76e-4,-0.04055 0.0044,-0.08845 0.002,-0.115235 -0.0042,-0.04539 -0.0082,-0.0872 0,-0.193359 v -0.0039 -0.0039 c 0.006,-0.130816 -0.03151,-0.235206 -0.05664,-0.308593 -0.02244,-0.06553 -0.03143,-0.103733 -0.0332,-0.146485 0.01325,-0.01446 0.03637,-0.03701 0.07031,-0.07617 l 0.01367,-0.01367 0.0098,-0.01563 c 0.113347,-0.1916604 0.188568,-0.3462236 0.214844,-0.5468755 l 0.0059,-0.046875 -0.01172,-0.033203 c 0.0053,-0.029897 0.01653,-0.064178 -0.01172,-0.1269531 v -0.00195 c -0.04752,-0.1036255 -0.08881,-0.2145626 -0.1875,-0.328125 l -0.002,-0.00195 C 11.683484,8.9161366 11.632272,8.8759098 11.626953,8.8691406 l -0.002,-0.00195 v -0.00195 c 3.8e-5,4.55e-5 -0.0031,-0.00467 -0.0039,-0.00586 0.0041,-0.01037 0.0052,-0.010674 0.0098,-0.027344 h 0.002 v -0.00195 c 0.02328,-0.086154 0.0065,-0.1232918 0.0039,-0.1464843 7.64e-4,-0.00109 0.0012,-8.124e-4 0.002,-0.00195 0.02212,-0.031856 0.07746,-0.080352 0.0625,-0.2089843 v -0.00195 c -0.01369,-0.1149913 -0.06029,-0.1494611 -0.103516,-0.1933593 -0.04322,-0.043898 -0.0876,-0.085314 -0.177734,-0.1074219 -0.101151,-0.024565 -0.12987,-0.00858 -0.169922,-0.00195 -0.0052,-0.00756 0.0042,0.00361 -0.0039,-0.00977 -0.03252,-0.053508 -0.122571,-0.1608682 -0.251953,-0.1796875 h -0.002 c -0.230854,-0.032063 -0.416842,0.066469 -0.515625,0.109375 l 0.0098,-0.00391 c -0.01646,0.00606 -0.05312,0.010214 -0.09766,0.017578 5.77e-4,-3.61e-5 -0.0025,4.04e-5 -0.002,0 0.02767,-0.00216 -0.02371,-0.00931 -0.09766,-0.025391 l -0.01172,-0.00391 h -0.01367 c -0.131983,-0.010998 -0.213174,0.028617 -0.240234,0.033203 -0.1136221,0.018863 -0.1395446,0.045789 -0.1347661,0.052734 0.0022,1.649e-4 0.017003,0.00411 0.00195,-0.00781 -0.026588,-0.021068 -0.05753,-0.055324 -0.1113281,-0.097656 v -0.00195 c -0.056007,-0.043897 -0.079954,-0.05041 -0.09375,-0.060547 l -0.00195,-0.00195 c -0.041029,-0.031499 -0.068056,-0.036647 -0.091797,-0.044922 -0.0051,-0.026246 -0.00681,-0.059787 -0.03125,-0.1191407 v -0.00195 C 9.4921912,7.658212 9.3865355,7.6267698 9.359375,7.5996094 9.3248396,7.565074 9.3028753,7.551365 9.28125,7.5351562 9.28648,7.5131832 9.297503,7.5198462 9.294922,7.4824222 9.291632,7.4341562 9.269377,7.4317032 9.251953,7.4023442 c 0.011482,-0.016569 0.019698,-0.02086 0.033203,-0.0625 0.012268,-0.038847 0.00566,-0.048415 0.00391,-0.070312 -0.00595,0.019937 -0.00818,0.020857 0.013672,-0.013672 C 9.327717,7.2163982 9.366042,7.1301548 9.357425,7.0390633 9.353335,6.9981773 9.346347,6.9911263 9.337894,6.9726573 9.347134,6.9451393 9.358088,6.9188853 9.355472,6.8847663 9.349872,6.8276733 9.324643,6.8138243 9.298831,6.7812507 c 0.00325,0.034591 -0.00282,0.035996 0.033203,-0.029297 h 0.00195 V 6.75 C 9.357137,6.707001 9.357731,6.687625 9.361328,6.669922 9.38275,6.653792 9.426712,6.622158 9.458984,6.560547 l 0.00195,-0.00391 0.00195,-0.00391 C 9.502219,6.468813 9.519656,6.4205364 9.484368,6.478508 9.465092,6.510142 9.498408,6.476758 9.55468,6.414055 9.578848,6.387071 9.585565,6.371621 9.595696,6.353508 9.60982,6.350268 9.615963,6.351658 9.642571,6.339836 9.7736458,6.282126 9.8778295,6.1779421 9.9355398,6.0468673 l 0.025391,-0.056641 -0.00586,-0.033203 c 0.00758,-0.00911 0.013337,-0.011398 0.03125,-0.041016 l 0.00195,-0.00391 c 0.025389,-0.042924 0.034142,-0.069985 0.041016,-0.087891 0.0082,-0.00231 0.0079,-0.00177 0.03906,-0.011719 0.04409,-0.014094 0.117848,-0.058209 0.173829,-0.125 0.02268,0.00439 0.04367,0.019531 0.06836,0.019531 h 0.01367 l 0.01367,-0.00195 c 0.02123,-0.00299 0.03884,0.030256 0.179687,-0.00586 h 0.0039 l 0.0039,-0.00195 c 0.07956,-0.023573 0.0945,-0.047954 0.113281,-0.0625 0.01878,-0.014546 0.03574,-0.022731 0.0078,-0.00977 0.02321,-0.00961 0.0465,-0.020834 0.06836,-0.033203 l 0.01563,-0.00781 0.03711,-0.019531 0.0098,-0.00391 c 0.02299,-0.010008 0.04882,-0.02062 0.07226,-0.029297 0.02661,-0.00985 0.05785,-0.011719 0.02344,-0.011719 h 0.01563 l 0.01563,-0.00195 c 0.01043,-0.00153 0.08351,0.016824 0.212891,0.00195 h 0.222656 c -0.0201,0.044505 -0.0543,0.076936 -0.03711,0.1347657 l 0.0078,0.027344 0.01758,0.025391 c 0.0401,0.061454 0.09089,0.1141982 0.152344,0.1542969 l 0.01172,0.00586 0.0098,0.00586 c 0.111473,0.055736 0.151927,0.024779 0.177735,0.021484 0.02581,-0.00329 0.03937,0.00951 -0.01953,-0.00781 l -0.0098,-0.00391 c 0.02995,0.010696 0.06477,0.00973 0.0957,0.00977 0.02236,0.00509 0.04413,0.014856 0.06445,0.025391 0.0189,0.03924 0.06083,0.1136284 0.152344,0.1484375 0.06937,0.025011 0.101511,0.017084 0.121093,0.011719 0.0036,0.00131 0.02071,0.00858 0.05664,0.025391 0.03701,0.017322 0.101746,0.050671 0.203125,0.035156 0.05742,-0.00841 0.12832,-0.036375 0.171875,-0.087891 0.04513,-0.053383 0.05767,-0.1093198 0.0625,-0.1464843 0.0011,-0.00844 -7.97e-4,-0.00229 0,-0.00977 L 12.738281,5.8476562 12.623047,5.625 C 12.56999,5.5219184 12.514002,5.4645787 12.494141,5.4296875 12.415141,5.2916876 12.332016,5.1485436 12.232422,5.0078125 l -0.361328,-0.5117188 -0.0059,0.2636719 c -0.0066,-0.00669 -0.0027,-0.009 -0.04297,-0.03125 l -0.0059,-0.00391 c -0.03558,-0.020984 -0.06766,-0.047781 -0.0957,-0.078125 -9.7e-4,-0.00105 -0.0029,-8.935e-4 -0.0039,-0.00195 -0.0087,-0.013886 -0.02361,-0.043941 -0.06445,-0.087891 C 11.60477,4.505445 11.500622,4.4382124 11.382813,4.453125 l -0.09375,0.011719 -0.01758,0.025391 c -0.01622,0.00634 -0.03339,0.00939 -0.04883,0.017578 -0.03224,0.015832 -0.036,0.026212 -0.05078,0.041016 -0.0085,-5.819e-4 -0.0052,-0.00195 -0.01758,-0.00195 -0.03574,0 -0.09583,-0.016014 -0.193359,0.00391 -0.06029,0.011344 -0.116336,0.03923 -0.16211,0.080078 l -0.0039,0.00391 c 0.0032,-0.057283 0.0091,-0.11507 0,-0.171875 l -0.0039,-0.023437 -0.0078,-0.021484 c -0.0045,-0.010872 -0.01631,-0.01684 -0.02148,-0.027344 0.02602,-0.014883 0.07446,-0.024497 0.08594,-0.035156 0.02165,-0.020111 0.03397,-0.035469 0.04492,-0.048828 0.0082,-0.010019 0.01272,-0.017426 0.01758,-0.023437 l 0.07031,-0.046875 0.0078,-0.00391 c 0.0041,-0.00198 0.01335,-0.00706 0.02734,-0.013672 0.06018,-0.025075 0.08069,-0.054469 0.0918,-0.068359 0.01659,-0.015081 0.01448,-0.016644 0.0039,-0.00391 L 11.294922,3.9804688 11.089844,3.8300781 c -0.04428,-0.032067 -0.08199,-0.050614 -0.0957,-0.060547 l -0.382813,-0.2792969 0.01758,0.1484375 c -0.0067,-0.00616 -0.01361,-0.018797 -0.01953,-0.023437 -0.03618,-0.02838 -0.05837,-0.037779 -0.06836,-0.042969 -5.38e-4,-2.795e-4 -0.0035,-0.0017 -0.0039,-0.00195 l -0.002,-0.00195 c -0.0078,-0.00728 -0.0089,-0.011229 -0.01758,-0.017578 v -0.00781 -0.072266 L 10.408203,3.4121094 C 10.284295,3.3462217 10.162059,3.2780918 10.017578,3.2167969 9.7697331,3.112059 9.5060771,3.0228256 9.2382813,2.9570313 9.103816,2.9231731 8.9734844,2.8847758 8.8144531,2.859375 L 8.8125,2.8574219 C 8.7736533,2.8514455 8.7253735,2.8396931 8.6640625,2.828125 L 8.6445315,2.824215 H 8.5 C 8.3375033,2.807959 8.1765242,2.7929688 8,2.7929688 Z m 0.00781,0.4140625 h 0.011719 c 0.1596448,3.148e-4 0.3083687,0.012672 0.4726562,0.029297 h 0.011719 0.1054687 c 0.042448,0.00839 0.092082,0.019908 0.1523438,0.029297 0.1289685,0.020599 0.2451373,0.053702 0.3886719,0.089844 h 0.00195 c 0.2453694,0.060149 0.4893415,0.1432876 0.71875,0.2402343 0.00391,0.00166 0.00782,0.00418 0.011719,0.00586 -0.046272,0.026817 -0.1177037,0.084564 -0.1328125,0.1777344 -0.0052,0.032223 0.00621,0.067465 0.015625,0.1015625 -0.00585,0.018586 -0.011478,0.027456 -0.015625,0.050781 l -0.013672,0.078125 0.041016,0.066406 c 0.039035,0.063527 0.1253049,0.1206936 0.1992187,0.1289062 0.073913,0.00821 0.1226032,-0.010887 0.1582032,-0.025391 0.02679,-0.010915 0.01155,-0.00808 0.0293,-0.015625 l 0.01172,0.029297 c -0.01619,0.025986 -0.0465,0.04181 -0.05273,0.068359 l -0.01758,0.072266 0.0332,0.066406 c 0.03329,0.067767 0.09712,0.1105699 0.142578,0.1289063 0.01536,0.00619 0.0224,0.00445 0.03516,0.00781 C 10.253227,4.531537 10.191454,4.51615 10.105472,4.509763 10.057772,4.506223 10.001125,4.507153 9.9355501,4.529294 9.8699751,4.551438 9.800206,4.603844 9.7597688,4.6679658 l -0.035156,0.054687 0.00391,0.066406 c 0.00592,0.1005727 0.011729,0.1300972 0.00586,0.1542969 0.00798,-0.02782 0.00948,-0.02344 -0.011719,0.00195 -0.024389,0.029211 -0.093978,0.071092 -0.085937,0.21875 0.00498,0.078315 0.033687,0.112711 0.048828,0.1328125 0.00996,0.013228 0.01534,0.016751 0.021484,0.023437 -1.435e-4,0.024341 -0.010406,0.033308 0.00977,0.076172 l 0.00195,0.00391 0.00391,0.00391 c 0.014345,0.027034 0.055834,0.040673 0.087891,0.064453 -0.00474,0.0025 -0.00485,0.0011 -0.00977,0.00391 -0.084967,0.049019 -0.1193138,0.1214748 -0.1386719,0.1640625 -0.019358,0.042588 -0.029522,0.068036 -0.027344,0.064453 h -0.00195 v 0.00195 c -0.00206,0.0035 -0.017703,0.016681 -0.048828,0.068359 -0.031125,0.051679 -0.053724,0.1464012 -0.041016,0.2246093 l 0.015625,-0.1152343 c -0.016224,0.036847 -0.045184,0.065808 -0.082031,0.082031 h -0.00195 c 0.020814,-0.00925 0.013266,-0.00347 -0.00977,0.00195 -0.022267,0.00524 -0.064499,0.012377 -0.1171875,0.048828 -0.082172,0.05752 -0.081901,0.093078 -0.091797,0.1113281 -0.0099,0.01825 -0.014719,0.023448 -0.00586,0.013672 h -0.00195 c -0.012099,0.013482 -0.051999,0.024332 -0.1132813,0.1210937 l -0.00195,0.00195 v 0.00195 c -0.053255,0.08749 -0.04216,0.098717 -0.035156,0.095703 -0.018695,0.013772 -0.052644,0.035997 -0.085937,0.085937 l -0.00195,0.00195 c -0.042308,0.06509 -0.038489,0.089248 -0.042969,0.1074219 -0.00448,0.018174 -0.010317,0.026415 0.00391,0 -0.022625,0.040068 -0.1022309,0.1173872 -0.085937,0.2753906 8.34e-5,8.007e-4 -9.21e-5,0.00116 0,0.00195 0.00549,0.047529 0.028706,0.056397 0.050781,0.087891 -0.00756,0.022964 -0.022299,0.019907 -0.021484,0.050781 0.00124,0.047307 0.01486,0.070616 0.025391,0.095703 -0.013138,0.016413 -0.031417,0.031567 -0.048828,0.09375 -0.00753,0.027014 -0.00208,0.03607 -0.00195,0.056641 -4.648e-4,4.61e-5 0.00528,-0.010953 -0.00586,0.00586 -0.01857,0.028021 -0.058174,0.074738 -0.0625,0.1699219 v 0.00195 c -0.0023,0.071226 0.028697,0.1219322 0.050781,0.1503907 -0.00917,0.028873 -0.027826,0.030952 -0.015625,0.087891 0.027979,0.1333889 0.095521,0.1629078 0.1367187,0.1972656 0.041474,0.034588 0.080048,0.066376 0.076172,0.0625 0.086839,0.086839 0.1296838,0.1319444 0.1113281,0.087891 -0.00589,-0.014296 0.00329,0.021422 0.013672,0.066406 0.010381,0.044984 0.015063,0.110766 0.09375,0.1894531 h 0.00195 v 0.00195 c 0.060351,0.058269 0.1086269,0.067365 0.1328125,0.076172 0.024186,0.00881 0.028615,0.014774 0.00977,0 0.056387,0.043499 0.077113,0.049461 0.09375,0.0625 0.0072,0.00567 0.050463,0.050974 0.109375,0.097656 0.058912,0.046682 0.1472373,0.1112335 0.28125,0.1015625 l 0.013672,-0.00195 0.011719,-0.00195 c 0.1365426,-0.026773 0.1737546,-0.064544 0.1484376,-0.060547 h 0.002 c 0.09094,-0.015414 0.148701,-0.028298 0.136719,-0.029297 0.02573,0.00974 0.07349,0.038254 0.185547,0.03125 h 0.01563 l 0.01367,-0.00391 c 0.0246,-0.00492 0.09258,-0.00481 0.185547,-0.039063 l 0.0059,-0.00195 0.0059,-0.00195 c 0.09137,-0.039688 0.20762,-0.074307 0.271484,-0.074219 0.01666,0.032846 0.03753,0.094198 0.128907,0.1523438 l 0.04101,0.025391 0.04687,0.00586 c 0.07494,0.00852 0.07245,0.0015 0.103516,-0.00195 -0.01636,0.069869 -0.0093,0.1255755 -0.0059,0.15625 0.0034,0.031057 -0.0055,0.041342 0.0078,-0.00781 0.0042,-0.015367 2.54e-4,-0.0022 -0.0098,0.021484 -0.0097,0.023028 -0.03055,0.060711 -0.0293,0.1308594 0.0011,0.098879 0.02685,0.1153541 0.04492,0.1503906 0.0185,0.035874 0.03822,0.067335 0.06641,0.1015625 0.05845,0.072639 0.110127,0.1097333 0.128906,0.1308594 0.04163,0.048499 0.06743,0.1123856 0.111328,0.2089844 -0.0028,0.029342 -0.01111,0.048714 0.0039,0.09375 l -0.0098,-0.091797 c -0.01721,0.1313966 -0.05664,0.2096575 -0.15625,0.3789063 -0.01673,0.017134 -0.03707,0.036327 -0.06836,0.074219 -0.0386,0.046748 -0.08823,0.1280558 -0.08789,0.2324218 -0.0013,0.127811 0.03421,0.231536 0.05859,0.302734 0.02487,0.07261 0.03519,0.113066 0.0332,0.15625 l 0.002,-0.0078 c -0.0098,0.127838 -0.0048,0.211313 0,0.263672 0.0048,0.05236 0.0061,0.05558 0,0.09766 l -0.01953,0.146484 0.04102,0.02149 c -0.0047,0.01588 -0.0057,0.02385 -0.01172,0.04492 l -0.002,0.002 c -0.0095,0.02718 -0.0144,0.03737 -0.0293,0.06055 -0.01548,0.02408 -0.0479,0.07147 -0.06641,0.136718 l -0.04687,0.164063 c -0.169593,0.15431 -0.338091,0.311609 -0.527344,0.441406 -0.496946,0.341725 -1.0542166,0.584395 -1.6425778,0.716797 -0.3354,0.06654 -0.6776587,0.0965 -1.0195312,0.08984 h -0.00195 -0.00195 c -0.1827656,0 -0.3623281,-0.0092 -0.5390625,-0.0293 -0.1480224,-0.01712 -0.2896018,-0.03216 -0.4199219,-0.05859 -0.1326129,-0.02718 -0.2724044,-0.09154 -0.4082031,-0.142578 0.029386,-0.0042 0.054241,-0.0036 0.109375,-0.0293 l 0.013672,-0.0059 0.00977,-0.0078 c 0.080392,-0.05116 0.1014187,-0.09951 0.125,-0.154297 0.021441,-0.04981 0.032402,-0.109066 0.029297,-0.177734 0.085354,-0.03153 0.1235421,-0.06898 0.1601562,-0.107422 0.04114,-0.0432 0.072773,-0.07914 0.1035157,-0.140625 0.029187,-0.05837 0.012569,-0.05666 0.00977,-0.08008 0.00266,-0.0051 0.00291,-0.0079 0.00586,-0.01367 0.00695,-0.01348 0.00795,-0.0043 0.025391,-0.05664 l 0.00391,-0.0078 v -0.0059 c 0.00139,-0.0054 5.808e-4,-0.01712 0.00195,-0.02344 -0.00219,0.01076 0.00789,0.0011 0.052734,-0.05273 v -0.002 c -0.00674,0.0082 0.00825,-0.008 0.027344,-0.02539 0.01786,-0.01625 0.041632,-0.03438 0.070312,-0.07227 l 0.00195,-0.0039 c 0.01928,-0.02599 0.036937,-0.06101 0.044922,-0.08203 0.00184,-0.0032 0.010905,-0.02654 0.00391,-0.0059 l 0.013672,-0.02734 0.00781,-0.03516 c 0.017189,-0.104277 -0.013423,-0.182885 -0.025391,-0.222656 0.0025,-0.0019 -0.00147,0.0022 0.00195,0 0.029275,-0.01844 0.077129,-0.03996 0.125,-0.0625 -0.00478,0.0022 0.023512,-0.0045 0.076172,-0.02344 0.053836,-0.01884 0.1244849,-0.03983 0.1855469,-0.06055 l 0.00195,-0.002 h 0.00195 c 0.084824,-0.03068 0.1586555,-0.09683 0.1972657,-0.154297 0.037923,-0.05644 0.051695,-0.09728 0.068359,-0.128906 l 0.00195,-0.002 c 0.00791,-0.01422 0.02219,-0.03718 0.037109,-0.06445 0.015456,-0.02826 0.034073,-0.0488 0.046875,-0.123047 v -0.002 -0.002 c 0.0059,-0.03833 0.00268,-0.0824 0.00195,-0.08789 -7.264e-4,-0.0055 -7.889e-4,0.02231 -0.00195,0.0293 0.019347,-0.11221 0.00785,-0.121749 -0.00195,-0.08008 l -0.00195,0.0039 c 0.019249,-0.0738 0.031647,-0.148542 0.037109,-0.22461 v -0.0078 -0.0078 c 0,-0.05142 -0.01492,-0.0781 -0.027344,-0.105469 0.012619,-0.0099 0.024235,-0.01261 0.056641,-0.06055 H 8.226589 C 8.255637,10.012073 8.268077,9.9819162 8.279323,9.9567762 8.29057,9.9316362 8.306008,9.9074242 8.291042,9.9294322 8.305204,9.9084512 8.346937,9.8749592 8.4121358,9.8063853 8.4773338,9.7378113 8.5530527,9.6062304 8.5449483,9.4587291 v -0.00195 C 8.5401405,9.3853113 8.5242602,9.3317413 8.5,9.2695313 8.4878699,9.2384262 8.4722479,9.2072192 8.4511719,9.1738281 8.4302795,9.140728 8.409911,9.0984116 8.328125,9.0625 H 8.326175 C 8.2750012,9.0402513 8.2456203,9.0349922 8.2226563,9.0273438 L 8.21875,9.0253906 C 8.204047,9.019113 8.1617772,8.9886886 8.1015625,8.9453125 8.039511,8.9006132 7.9552205,8.8368224 7.8242187,8.8261719 h -0.00977 -0.070312 c 0.016938,0 -0.04033,-0.012524 -0.1054687,-0.023437 C 7.595052,8.7912719 7.583362,8.7966849 7.562496,8.7988249 7.550277,8.7774129 7.561356,8.7688279 7.517574,8.7382779 7.462042,8.6994049 7.432667,8.6974839 7.4101521,8.6914029 c -0.021354,-0.00577 -0.033178,-0.00987 -0.033203,-0.00977 H 7.375 c 0.011142,0.0045 0.017966,0.00867 -0.00781,-0.00977 C 7.338547,8.6513759 7.267937,8.6114379 7.1914087,8.6074099 h -0.00586 -0.00391 c -0.027011,0 -0.023962,0.00244 -0.03125,0.00391 -0.00121,4.237e-4 -0.02612,-0.00921 -0.017578,-0.00391 h -0.00195 c -0.00135,-8.265e-4 -6.324e-4,-0.00116 -0.00195,-0.00195 -0.00101,-0.00383 0.00118,-0.00796 0,-0.011719 -0.018862,-0.060145 -0.053884,-0.1021032 -0.078125,-0.1269531 -0.029089,-0.02982 -0.013756,-0.00518 -0.011719,0 0.00669,-0.020392 0.023439,-0.038842 -0.00977,-0.1289063 C 6.9840434,8.2133677 6.9086947,8.1830324 6.8730469,8.1582031 6.7822433,8.0788885 6.6687131,8.0296793 6.5488281,8.0175781 c -0.1031942,-0.016472 -0.1591554,-0.00266 -0.1445312,0 h -0.00195 -0.00195 C 6.3733153,8.0130503 6.3489684,7.998151 6.328125,7.9804687 6.3230474,7.97321 6.3191828,7.9657943 6.3066406,7.9453125 6.2898126,7.9178319 6.2615543,7.8685633 6.1933594,7.8261719 6.1719457,7.812684 6.1731381,7.8135945 6.1621094,7.8066406 L 6.203125,7.7207031 6.0214844,7.6289062 c -0.012931,-0.00647 -0.047866,0.00659 -0.070312,0.00195 -0.00815,-0.0078 -0.00547,-0.011351 -0.015625,-0.019531 -0.061895,-0.04985 -0.1728893,-0.078651 -0.2617188,-0.0625 h -0.00781 l -0.00586,0.00195 c -0.063742,0.015935 -0.05427,0.032489 -0.076172,0.052734 -0.025744,-0.020774 -0.03016,-0.03988 -0.083984,-0.050781 -0.066681,-0.013379 -0.091462,0.00133 -0.1210938,0.013672 -0.00964,-0.00777 -0.00949,-0.00828 -0.023437,-0.017578 l -0.00195,-0.00195 c 0.002,0.00131 -0.017976,-0.014172 -0.041016,-0.03125 -0.01152,-0.00854 -0.023652,-0.017963 -0.042969,-0.029297 -0.00966,-0.00567 -0.020762,-0.012377 -0.039063,-0.019531 -0.00915,-0.00358 -0.020182,-0.00649 -0.035156,-0.00977 -0.013531,-0.00296 -0.046857,-0.00369 -0.054687,-0.00391 -0.01067,3.477e-4 -0.011862,0.00634 -0.021484,0.00781 -0.035208,-0.024101 -0.071118,-0.054044 -0.1328125,-0.048828 -0.072531,0.00613 -0.1060457,0.041556 -0.1289062,0.064453 l -0.00391,0.00391 -0.00586,0.00391 c 0.00614,-0.00395 -0.012453,0.004 -0.00977,0.00195 0.011268,-0.00857 0.015237,-0.012148 -0.041016,0.00781 h -0.00195 -0.00195 C 4.7528725,7.5092494 4.6840606,7.5173357 4.5917969,7.5625 4.5231111,7.5933389 4.4783892,7.6545485 4.4375,7.7167969 4.342229,7.6896959 4.2407613,7.6897769 4.1855469,7.7070269 c -0.060344,0.018858 -0.077331,0.022965 -0.072266,0.023437 0.036729,2.286e-4 0.020019,0.00249 0.00195,-0.015625 -0.020293,-0.02035 -0.010043,-0.061629 -0.013672,0.013672 6.422e-4,-0.00511 0.02038,-0.082626 0.029297,-0.1777344 -0.00439,0.043925 -0.00748,0.027649 0.00781,0 0.01529,-0.027649 0.054253,-0.064457 0.056641,-0.171875 C 4.1966116,7.298363 4.1541461,7.2254561 4.1152344,7.1875 4.0763227,7.1495439 4.0390064,7.132738 4.0078125,7.1191406 3.9454247,7.0919459 3.8965712,7.0829253 3.8691406,7.078125 c -0.015667,-0.00283 -0.019035,0.00315 -0.033203,0.00195 0.00791,-0.03421 0.010663,-0.052971 0.00781,-0.072266 0.01722,-0.014787 0.051959,-0.026209 0.068359,-0.1328125 v -0.00391 -0.00391 C 3.9244687,6.7621328 3.8805084,6.7011582 3.8515625,6.6640625 3.8226166,6.6269668 3.7953033,6.6060689 3.7753906,6.5898437 l -0.068359,-0.056641 -0.085937,0.011719 c -0.050771,0.00612 -0.1123129,0.018819 -0.1738282,0.033203 0.035051,-0.1086853 0.066503,-0.2183156 0.109375,-0.3242188 0.1034341,-0.00458 0.2081334,-0.057619 0.2441407,-0.095703 0.016335,-0.017277 0.00716,-0.00893 0.013672,-0.015625 0.011131,-6.948e-4 0.031129,7.34e-4 0.039063,0 0.024033,-0.00222 0.027659,-0.00263 0.035156,-0.00195 -0.00918,-0.00148 0.00397,0.00134 0.029297,0.013672 0.019677,0.00958 0.059672,0.021834 0.097656,0.033203 -0.00348,0.029942 -0.019318,0.038665 -0.00781,0.082031 l 0.015625,0.052734 0.037109,0.039063 c 0.068183,0.069634 0.1315015,0.088137 0.1816406,0.1054688 0.050139,0.017332 0.092821,0.029871 0.1054687,0.035156 l 0.1152344,0.046875 0.097656,-0.080078 c 0.045353,-0.038138 0.07734,-0.098717 0.087891,-0.1484375 0.010551,-0.049721 0.00665,-0.086943 0.00195,-0.1152344 -0.00823,-0.049593 -0.016433,-0.068488 -0.017578,-0.068359 1.434e-4,-0.00466 0.00156,-0.0094 0.00195,-0.023437 5.384e-4,-0.019382 0.00204,-0.036685 -0.00391,-0.080078 -0.00531,-0.038238 -0.015004,-0.05134 -0.023437,-0.070312 0.014439,-0.01218 0.054916,-0.035452 0.1113281,-0.068359 0.046253,-0.027075 0.072756,-0.050642 0.09375,-0.068359 0.018894,-0.015945 0.029054,-0.023128 0.017578,-0.017578 0.018794,-0.00185 0.071468,-0.00351 0.1269531,-0.03125 l 0.00586,-0.00391 0.00391,-0.00195 C 5.0845454,5.7048635 5.1483878,5.6243453 5.1835937,5.5957031 L 5.2226562,5.5625 5.2441406,5.515625 c 0.025445,-0.061257 0.017204,-0.1014696 0.015625,-0.1445313 0.038867,-0.025953 0.08995,-0.049977 0.1054688,-0.070312 0.016135,-0.021143 0.011772,-0.016078 0.013672,-0.019531 0.0167,-0.00669 0.025877,-0.00614 0.052734,-0.027344 0.04369,-0.034192 0.064106,-0.065533 0.076172,-0.082031 7.39e-4,-0.00101 0.00524,-0.00306 0.00586,-0.00391 0.00321,-0.0022 0.00802,-0.00466 0.011719,-0.00586 -0.018942,0.00631 0.04995,-0.00263 0.1289063,-0.03125 -0.025504,0.00905 0.00972,-4.729e-4 0.039063,-0.00586 0.014671,-0.00269 0.029776,-0.00606 0.050781,-0.011719 0.010502,-0.00283 0.022028,-0.00648 0.039063,-0.013672 0.00852,-0.0036 0.018531,-0.00792 0.03125,-0.015625 0.011292,-0.00684 0.036251,-0.029138 0.042969,-0.035156 0.06241,-0.063646 0.062907,-0.1198486 0.064453,-0.1503906 1.951e-4,-0.00386 -6.9e-5,-0.00435 0,-0.00781 0.023859,-0.0066 0.060958,-0.017407 0.1054687,-0.03125 0.033191,0.029284 0.072499,0.057316 0.1113282,0.064453 0.098283,0.018064 0.1440396,-0.015267 0.1777343,-0.033203 0.033695,-0.017936 0.056774,-0.033798 0.072266,-0.044922 0.011619,-0.00834 0.00653,-0.00546 -0.00586,0 l 0.00195,-0.00195 c 0.045386,-0.019345 0.1547633,-0.056646 0.2382813,-0.087891 l 0.00391,-0.00195 c 0.016768,-0.00531 0.067245,-0.0114 0.1445313,-0.056641 0.039202,-0.022947 0.1022415,-0.070278 0.125,-0.1621094 0.00526,6.927e-4 0.014928,0.0074 0.019531,0.00781 0.04654,0.00415 0.071082,0.00462 0.082031,0.00586 l -0.056641,-0.015625 c 0.076752,0.03198 0.1135085,0.021482 0.140625,0.019531 0.025543,-0.00184 0.041587,-0.00377 0.03125,-0.00391 l -0.064453,-0.00977 c 0.033168,0.011056 0.038455,0.00346 0.060547,0.00391 0.00164,0.00221 0.00204,0.0035 0.00391,0.00586 h 0.00195 c 0.00498,0.00624 0.00299,0.00837 0.00977,0.015625 0.029945,0.032066 0.09851,0.078125 0.1777344,0.078125 0.057426,0 0.1471144,-0.025192 0.1992187,-0.09375 0.052104,-0.068558 0.051367,-0.1399854 0.044922,-0.1855469 -0.00379,-0.02676 -0.0184,-0.034573 -0.025391,-0.054687 0.0151,-0.038835 0.0428,-0.1173513 -0.00391,-0.2128906 C 7.5033595,4.067266 7.473537,4.0670373 7.4492187,4.046875 l -0.00195,-0.019531 c 0.023229,-0.036485 0.072116,-0.1121222 0.0625,-0.2050781 l -0.00195,-0.00391 v -0.00391 c -0.011031,-0.079424 -0.099876,-0.1673594 -0.125,-0.1816406 -0.025124,-0.014281 0.00495,0.00182 0.021484,0.023437 l 0.00391,0.00391 c 0.054877,0.075983 0.024296,0.051157 0.019531,0.029297 -0.00238,-0.01093 -0.00482,-0.025445 -0.011719,-0.046875 -0.00689,-0.02143 -0.00772,-0.052515 -0.064453,-0.1054687 l -0.00391,-0.00391 -0.00391,-0.00391 c -0.044833,-0.037936 -0.053968,-0.025982 -0.085937,-0.035156 0.00129,-0.028821 0.00626,-0.036563 0,-0.083984 v -0.00195 C 7.2524645,3.3692391 7.2396813,3.3290207 7.2265625,3.2871094 7.4803886,3.2422839 7.7362791,3.209136 7.9941406,3.2070313 Z M 5.8847656,3.28125 C 5.6895699,3.368889 5.4949129,3.455921 5.2988281,3.5761719 c 0.00127,-0.00197 -0.017403,0.00135 -0.066406,0.033203 l -0.019531,0.011719 -0.015625,0.015625 c 0.014438,-0.014438 0.010637,-0.010263 -0.00391,0.00195 -0.00727,0.00611 -0.018462,0.015971 -0.033203,0.033203 -0.00737,0.00862 -0.016282,0.019228 -0.025391,0.035156 -0.00455,0.00796 -0.00935,0.016474 -0.013672,0.027344 -0.00432,0.01087 -0.00964,0.038438 -0.00977,0.039063 l -0.019531,0.089844 c -0.00411,0.016902 -0.015625,0.025062 -0.015625,0.042969 0,0.1294232 0.050052,0.1627799 0.091797,0.2050781 0.04063,0.041168 0.083089,0.091042 0.203125,0.09375 0.08769,0.00358 0.1456359,-0.021254 0.1992188,-0.052734 0.05666,-0.033288 0.1134833,-0.07164 0.1523437,-0.1660156 V 3.984375 C 5.7434691,3.9335917 5.7339757,3.9186833 5.734375,3.8867188 5.8007789,3.8745444 5.8698668,3.8783305 5.9316406,3.84375 6.0485113,3.7783267 6.1458428,3.6519644 6.171875,3.5039063 L 5.96875,3.46875 Z m 0.7734375,0.6640625 c -0.018252,-0.00372 -0.020554,-0.011427 0.023437,0.00977 9.998e-4,4.817e-4 0.00283,0.00336 0.00391,0.00391 -0.00664,-0.00127 -0.023275,-0.012841 -0.027344,-0.013672 z m 0.5976563,0.1972656 0.033203,0.00977 c -0.013172,-0.00549 -0.010212,0.00132 -0.021484,-0.00195 -0.00568,-0.00181 -0.00565,-0.00637 -0.011719,-0.00781 z m -0.875,0.1660156 c -0.016167,0.012214 -0.060891,0.023872 -0.0625,0.025391 -0.00222,0.0021 0.00464,-0.00757 0.03125,-0.021484 0.00719,-0.00376 0.021319,-9.487e-4 0.03125,-0.00391 z M 10.59375,4.4414062 c 0.0036,-0.00123 0.0021,0.00136 0.0059,0 l -0.0078,0.00195 c 0.0013,-4.164e-4 6.83e-4,-0.00152 0.002,-0.00195 z M 4.2792969,4.6816406 c -0.00953,0.021295 -0.032788,0.022991 -0.039063,0.046875 0.013317,-0.049385 0.01832,-0.045148 0.021484,-0.044922 0.00135,-0.00101 0.015054,-3.319e-4 0.017578,-0.00195 z M 5.1875,4.7011716 5.25,4.7050816 5.271484,4.7441446 C 5.266004,4.7898026 5.218217,4.8274986 5.183593,4.8554727 5.170391,4.8490327 5.16223,4.8497927 5.148437,4.8378947 l -0.00586,-0.035156 0.017578,-0.013672 c 0.03315,-0.025691 0.011861,-0.056914 0.027344,-0.087891 z m 0.1347656,0.1054687 c -0.00234,9.347e-4 -0.00163,0.00292 -0.00391,0.00391 -0.012027,0.00671 -0.025718,0.00979 -0.037109,0.017578 z m 5.4101564,0.00977 c 2.42e-4,0.0032 -1.7e-5,0.013462 0,0.013672 6.5e-5,8.095e-4 -0.0013,-0.015274 -0.002,-0.00977 z M 5.1152344,4.9296875 c 0.014874,0.00112 0.031111,0.00807 0.046875,0.00781 -0.014169,0.00558 -0.025953,0.011052 -0.046875,0.027344 z m 5.0214846,0 c 0.04291,0.00735 0.08462,0.016611 0.160156,0.021484 l 0.0059,0.00195 h 0.06836 c 0.03084,3.352e-4 0.0827,0.00303 0.148437,-0.00391 -0.02523,0.021698 -0.05468,0.035588 -0.06836,0.1074219 v 0.00195 c -0.0045,0.025599 0.0015,0.00163 0,0.015625 -0.002,0.00158 -0.0044,0.00481 -0.0059,0.00586 -0.01058,0.00705 -0.0115,0.01353 -0.02149,0.023437 -0.0078,0.00775 -0.01129,0.010328 -0.01758,0.017578 -0.01553,0.010026 -0.03589,0.022411 -0.02344,0.019531 -0.0011,-0.00215 -0.04379,-0.00236 -0.113282,0 -0.02722,9.229e-4 -0.06932,0.012992 -0.109375,0.025391 -0.0218,-0.016067 -0.03456,-0.036401 -0.06836,-0.046875 0.01601,-0.023631 0.03069,-0.024902 0.04297,-0.072266 0.01322,-0.051508 0.0021,-0.076382 0.002,-0.1171875 z m 1.189453,0.013672 0.01172,0.013672 c 0.01728,-0.00701 0.04934,-0.016082 0.09375,-0.00391 0.0079,0.00217 0.01004,0.00997 0.01758,0.013672 l -0.103516,0.00195 0.0059,0.00586 c -0.0058,-0.00337 -0.01486,-0.00257 -0.01953,-0.00586 h -0.0059 c 7.69e-4,-2.894e-4 0.0011,-0.00165 0.002,-0.00195 -0.009,-0.00657 -0.03545,-0.00978 -0.03906,-0.013672 l -0.002,-0.00586 c 0.01494,-0.00306 0.02198,0.00299 0.03906,-0.00391 z m -0.220703,0.013672 c 0.01643,0.00121 0.0097,0.00195 0.04883,0.00195 -0.01959,0 -0.0027,9.473e-4 0.02734,0.00391 0.0035,3.4e-4 0.01351,-0.00231 0.01758,-0.00195 0.0014,0.00361 0.0023,0.00612 0.0039,0.00977 l -0.0625,0.00195 c 0.0014,0.078255 0.0035,0.1155898 0.0059,0.1054688 l -0.0078,0.029297 h -0.05664 l -0.01172,0.00195 c -0.02924,0.00336 -0.09329,0.00114 -0.148438,0 -5.43e-4,-0.00102 0.02007,-0.019884 0.01563,-0.017578 0.01781,-0.0086 0.09434,-0.020242 0.167969,-0.1347657 z m 0.351562,0 c 0.0041,0.00389 0.0095,0.00596 0.01367,0.00977 h -0.0098 z m 0.0078,0.023437 c 0.0069,0.00468 0.01153,0.00841 0.01758,0.013672 -0.0048,0.00208 -0.006,0.00207 -0.01172,0.00391 z m -0.191406,0.060547 c 0.03135,0.02556 0.05774,0.05853 0.09375,0.066406 h -0.06055 c -0.0046,-0.00543 -0.0144,-0.0084 -0.01758,-0.013672 -0.0334,-0.055315 -0.01454,-0.064443 -0.01953,-0.037109 z m -0.400391,0.066406 c -0.0039,0 -0.0041,0.00187 -0.0078,0.00195 -0.01069,0.00107 -0.0096,-0.00175 -0.02148,0 z m 0.884766,0.171875 0.0039,0.011719 c -5.41e-4,-0.00201 -0.0033,-0.00193 -0.0039,-0.00391 -0.0014,-0.00465 0.0017,-0.00274 0,-0.00781 z m -1.447266,0.013672 c 0.0076,0 0.0086,0.0034 0.01172,0.00391 -0.02594,0.00133 -0.0037,-0.00721 -0.04102,-0.00195 z m 1.738281,0.1992188 c 0.0286,0.048484 0.05904,0.092176 0.08789,0.1425781 0.01306,0.02294 0.01715,0.024678 0.0293,0.042969 -0.01855,-0.00365 -0.02518,-0.00199 -0.03906,-0.00195 -0.01571,-0.031716 -0.01761,-0.056746 -0.07031,-0.09375 l -0.0059,-0.00391 -0.0039,-0.00195 c -0.01966,-0.012207 -0.04372,-0.015274 -0.06445,-0.025391 l 0.05664,-0.044922 c 0.0044,-0.0036 0.0055,-0.0099 0.0098,-0.013672 z m 0.123047,0.1835937 0.01953,0.00391 c -0.0065,-0.00216 -0.0057,0.00163 -0.01172,0 -0.0039,-0.00101 -0.0037,-0.00295 -0.0078,-0.00391 z M 4.2207031,6.1425781 c -2.56e-5,0.00347 -6.08e-5,0.00581 0,0.00977 -0.010749,0.00532 -0.02375,0.00258 -0.037109,0.00586 0.012275,-0.00782 0.029261,-0.00946 0.037109,-0.015625 z M 3.53125,6.2636719 c 0.00403,3.944e-4 0.00164,0.00365 0.00586,0.00391 l -0.00977,-0.00195 c 0.00174,1.888e-4 0.00217,-0.0021 0.00391,-0.00195 z M 8.9824219,6.796875 c -0.00196,0.0022 -0.00882,0.034733 -0.015625,0.042969 0.00263,-0.00636 0.00139,-0.019093 0.00391,-0.023437 0.012068,-0.02082 0.015769,-0.024073 0.011719,-0.019531 z M 3.3222656,7.1972656 c -0.00394,0.012586 -0.00955,0.016933 -0.011719,0.033203 -0.00231,0.01734 0.00945,0.035184 0.011719,0.054687 -0.00386,-0.00146 -0.00792,-0.00227 -0.011719,-0.00391 0.00761,0.00322 -0.037129,-0.041284 -0.058594,-0.066406 0.023639,-0.00577 0.047088,-0.010275 0.070312,-0.017578 z m 0.1210938,0.1074219 0.011719,0.00195 c -0.00322,-0.00129 -0.00452,0.0011 -0.00781,0 -0.00144,-4.941e-4 -0.00247,-0.00146 -0.00391,-0.00195 z m 2.3183593,0.3769531 c -0.014277,0.020249 -0.046966,0.04888 -0.048828,0.052734 -0.00358,0.00741 0.00146,-0.016641 0.041016,-0.050781 0.00211,-0.00182 0.00551,-2.477e-4 0.00781,-0.00195 z m -2.5214843,0.00977 c 5.987e-4,1.605e-4 0.00135,-1.587e-4 0.00195,0 0.02668,0.0098 0.038419,0.00175 0.064453,0.00195 0.00315,2.42e-5 0.00477,5.8e-5 0.00781,0 0.043383,0.01483 0.099627,0.038792 0.1347657,0.054687 V 7.75 h 0.00195 c -0.022705,-0.00993 0.00546,0.00593 0.035156,0.035156 0.00784,0.00772 0.026495,0.020221 0.035156,0.029297 2.078e-4,0.023906 -0.00714,0.035591 0.00977,0.076172 l 0.00977,0.023437 0.015625,0.019531 c 0.026,0.035 0.071104,0.1017359 0.15625,0.1503907 h 0.00195 l 0.00195,0.00195 c -0.0027,-0.00148 0.034947,0.04212 0.1269531,0.089844 0.084999,0.043894 0.1676021,0.024956 0.1738281,0.023437 0.0065,-0.00159 -0.042687,0.00821 -0.085937,-0.00781 l 0.00586,0.00391 0.00586,0.00195 c -0.04093,-0.012403 -0.03306,-0.020683 -0.00195,0.00977 0.015553,0.015224 0.036552,0.038326 0.082031,0.0625 0.045479,0.024173 0.1275644,0.04169 0.1953125,0.021484 0.0075,-0.00223 0.011919,-0.012311 0.019531,-0.015625 0.00236,0.032681 0.00201,0.064957 0,0.097656 -0.030053,0.017181 -0.052835,0.021979 -0.085937,0.066406 -0.039275,0.053206 -0.037976,0.076788 -0.041016,0.099609 -0.014519,0.012356 -0.035558,0.030587 -0.056641,0.060547 l -0.00195,0.00195 -0.00195,0.00195 c -0.031114,0.04667 -0.038227,0.072579 -0.046875,0.091797 -0.00246,0.00438 -0.019484,0.02688 -0.046875,0.080078 -0.028182,0.054733 -0.054204,0.1610993 -0.023437,0.2558594 0.00801,0.024828 0.010953,0.015588 0.019531,0.03125 -0.024256,0.027746 -0.04853,0.026695 -0.058594,0.095703 -0.02195,0.1536514 0.03164,0.1944942 0.033203,0.2011719 0.027834,0.1182198 0.084562,0.1405814 0.1132812,0.1640625 0.028952,0.023671 0.054101,0.04865 0.029297,0.021484 -0.00831,-0.00867 0.024074,0.052122 0.074219,0.1289062 0.03752,0.057769 0.068762,0.177034 0.15625,0.3125 v 0.00195 l 0.00195,0.00195 c 0.039879,0.059214 0.074503,0.079226 0.097656,0.095704 -0.00321,0.02474 -0.015766,0.0313 0.00781,0.08789 v 0.002 l 0.00195,0.002 c 0.052658,0.118481 0.1235894,0.160675 0.1914063,0.208985 0.067817,0.04831 0.1346421,0.08619 0.1855469,0.111328 0.062999,0.0315 0.1078338,0.03242 0.1289062,0.03516 0.015566,0.0099 0.038822,0.02604 0.0625,0.04492 0.028847,0.023 0.055992,0.06089 0.035156,0.02539 -0.018227,-0.03243 -0.010326,-0.01814 -0.00781,0.01367 0.00279,0.03534 0.00334,0.08101 0.013672,0.138671 0.00679,0.04234 -0.00723,0.09727 -0.00195,0.222657 v 0.002 c 0.00332,0.05751 0.021645,0.102198 0.029297,0.121094 -3.14e-5,0.02935 0.00148,0.08508 0.00195,0.07617 v 0.0039 0.0039 c -0.00125,0.07751 0.0032,0.132905 0,0.173828 -0.00337,0.04222 -0.00337,0.08474 0,0.126953 v 0.002 0.002 c 0.00249,0.02578 0.01383,0.03082 0.023437,0.05274 -0.013727,0.01794 -0.032872,0.02276 -0.023437,0.105469 8.99e-5,8.09e-4 -9.52e-5,0.0011 0,0.002 0.00727,0.06142 0.030812,0.102505 0.046875,0.132812 C 4.932801,11.655577 4.7651873,11.53362 4.6191406,11.386719 c -0.034135,-0.03413 -0.066,-0.06441 -0.089844,-0.08984 C 4.3539193,11.1098 4.1928425,10.909431 4.0488281,10.697266 v -0.002 c 0.01731,0.02473 0.011396,0.002 -0.029297,-0.05859 l -0.00195,-0.002 C 3.8538472,10.390054 3.7137474,10.128837 3.5996094,9.8574219 3.5787848,9.8088313 3.5672818,9.7896519 3.5722656,9.8027344 l -0.00195,-0.00195 v -0.00195 C 3.4685598,9.5461349 3.3878884,9.2857369 3.3300781,9.0195313 v -0.00195 C 3.3193424,8.970162 3.3109827,8.9232085 3.3007813,8.8691406 v -0.00195 C 3.2442869,8.581413 3.2143679,8.2912822 3.2109375,8 V 7.99805 c 7.68e-5,-0.1028108 0.01942,-0.2055367 0.029297,-0.3066407 z m 1.7070312,0.025391 0.042969,0.095703 -0.046875,-0.091797 c 0.00186,-8.144e-4 0.00198,-0.00315 0.00391,-0.00391 z m -0.8828125,0.083984 0.011719,0.00391 c -0.00263,-9.743e-4 -0.00323,8.603e-4 -0.00586,0 -0.00361,-0.00121 -0.00209,-0.00276 -0.00586,-0.00391 z m 0.8203125,0.095703 0.00977,0.00586 c 0.041503,0.022255 0.094636,0.017829 0.1445313,0.015625 L 5.0917969,8.03125 C 5.0640659,8.04396 4.969149,8.057933 4.9003906,8.001953 4.8571926,7.966783 4.8634666,7.937847 4.8574216,7.90625 4.8671516,7.9035 4.8727096,7.90022 4.8847656,7.89648 Z m 0.2539063,0.00391 c 0.00334,0.00299 0.00103,0.00351 0.015625,0.015625 0.00143,0.00119 0.00619,0.00263 0.00781,0.00391 -0.011243,0.044306 -0.022586,0.086488 -0.064453,0.1074219 L 5.0429687,7.9179687 c 0.018099,-0.00106 0.037179,0.010406 0.052734,0.00586 0.022439,-0.00656 0.027309,-0.01497 0.042969,-0.023437 z M 4.3203125,9.2421875 c 0.00569,0.00965 0.00256,-0.00808 0.00977,0.023437 -0.00894,-0.038184 -0.00891,-0.00666 -0.011719,-0.021484 7.112e-4,-7.148e-4 0.00123,-0.00121 0.00195,-0.00195 z M 7.1875,11.576172 c -0.00651,-0.0085 0.00816,0.01225 0.00781,0.01172 -3.457e-4,-5.34e-4 0.031383,0.07894 0.03125,0.07813 -3.14e-5,-1.94e-4 -5.898e-4,0.0086 0,0.01758 -0.0067,-0.03826 -0.027534,-0.09235 -0.039063,-0.107422 z M 6.5195312,12.65625 c 2.319e-4,-4.41e-4 0.00173,4.42e-4 0.00195,0 l -0.00195,0.0039 c 9.514e-4,-0.0018 -8.958e-4,-0.0022 0,-0.0039 z"
       id="path6" />
  </g>
</svg>
