<?xml version="1.0" encoding="UTF-8" standalone="no"?>
<svg
   height="64"
   width="64"
   version="1.1"
   id="svg9"
   sodipodi:docname="application-x-lyx.svg"
   inkscape:version="1.1.2 (0a00cf5339, 2022-02-04)"
   xmlns:inkscape="http://www.inkscape.org/namespaces/inkscape"
   xmlns:sodipodi="http://sodipodi.sourceforge.net/DTD/sodipodi-0.dtd"
   xmlns:xlink="http://www.w3.org/1999/xlink"
   xmlns="http://www.w3.org/2000/svg"
   xmlns:svg="http://www.w3.org/2000/svg">
  <defs
     id="defs13">
    <linearGradient
       inkscape:collect="always"
       id="linearGradient6111">
      <stop
         style="stop-color:#19c5ff;stop-opacity:1;"
         offset="0"
         id="stop6107" />
      <stop
         style="stop-color:#ab19ff;stop-opacity:1"
         offset="1"
         id="stop6109" />
    </linearGradient>
    <linearGradient
       inkscape:collect="always"
       xlink:href="#linearGradient6111"
       id="linearGradient6113"
       x1="10.5"
       y1="33"
       x2="42.492283"
       y2="14.737331"
       gradientUnits="userSpaceOnUse" />
  </defs>
  <sodipodi:namedview
     id="namedview11"
     pagecolor="#ffffff"
     bordercolor="#666666"
     borderopacity="1.0"
     inkscape:pageshadow="2"
     inkscape:pageopacity="0.0"
     inkscape:pagecheckerboard="0"
     showgrid="false"
     inkscape:zoom="10.21875"
     inkscape:cx="31.95107"
     inkscape:cy="32"
     inkscape:window-width="1600"
     inkscape:window-height="836"
     inkscape:window-x="0"
     inkscape:window-y="0"
     inkscape:window-maximized="1"
     inkscape:current-layer="svg9" />
  <path
     style="color:#000000;fill:#19c5ff;fill-opacity:0.2;stroke-width:2;-inkscape-stroke:none"
     d="m 11.67,56.08 c 0,1.71 1.71,3.42 3.417,3.42 h 33.996 c 1.709,0 3.417,-1.71 3.417,-3.42 V 27.017 c 0,-1.71 0,-1.71 -1.708,-3.42 L 35.417,8.21 C 34.51,7.524 33.708,6.5 32,6.5 H 14.917 C 13.208,6.5 11.5,8.21 11.5,9.92 Z"
     id="path6784" />
  <path
     id="path6"
     style="color:#000000;fill:url(#linearGradient6113);-inkscape-stroke:none;fill-opacity:1"
     d="m 16.492187,23.949219 v 0.5 3.001953 h 31.013672 v -3.501953 z m 1,1 h 29.013672 v 1.501953 H 17.492187 Z m 9.65625,4.001953 0.01953,0.519531 0.05078,1.373047 8.433594,11.099609 -8.154297,9.757813 v -2.740235 h -11.00586 v 0.5 3.001954 H 26.861328 L 26.5,52.894531 v 2.06836 h 21.009766 v -7.945313 h -2.431641 v 0.5 c 0,0.739106 0.08514,1.304863 0.03906,1.691406 -0.04608,0.386544 -0.142037,0.620086 -0.666015,0.976563 -1.190817,0.813948 -2.852244,0.998047 -4.363281,0.998047 h -6.38086 L 40.470701,41.976562 33.63281,31.339844 h 3.28711 c 1.504391,0 3.275372,-0.05706 4.759765,0.289062 1.484394,0.346124 2.632707,1.021333 3.16211,2.585938 0.142274,0.418039 0.184877,1.557068 0.238281,2.224609 l 0.03711,0.460938 h 2.392579 v -7.945313 z m 1.039063,1 18.322266,0.0039 v 5.945313 h -0.486329 c -0.02714,-0.60965 -0.02094,-1.377247 -0.234375,-2.00586 v -0.002 C 45.14009,31.976774 43.580276,31.044638 41.90625,30.654297 40.231728,30.26384 38.394366,30.339844 36.919922,30.339844 h -5.117188 l 7.453125,11.599609 -7.52539,10.244141 h 8.357422 c 1.584799,0 3.445653,-0.160949 4.925781,-1.171875 0.696568,-0.473895 1.024231,-1.086023 1.095703,-1.685547 0.05171,-0.433786 0.0024,-0.867358 -0.02344,-1.308594 h 0.423829 v 5.945313 H 27.5 v -0.707032 l 9.431641,-11.283203 -8.72461,-11.482422 z m -11.695313,1.501953 v 0.5 3.001953 h 11.00586 v -3.501953 z m 1,1 h 9.00586 v 1.501953 h -9.00586 z m -1,4.001953 v 0.5 3.001953 h 13.50586 v -3.501953 z m 1,1 h 11.50586 v 1.501953 h -11.50586 z m -1,6.503906 v 0.5 3 h 13.50586 v -3.5 z m 1,1 h 11.50586 v 1.5 h -11.50586 z m 0,5.001953 h 9.00586 v 1.501954 h -9.00586 z M 14.917969,5.5 C 13.729942,5.5 12.657088,6.0628369 11.859375,6.8613281 11.061662,7.6598194 10.5,8.7319796 10.5,9.9199219 v 0.00195 l 0.169922,46.1621091 c 0.0012,1.186757 0.564341,2.257235 1.361328,3.054688 C 12.829121,59.93701 13.900473,60.5 15.087891,60.5 h 33.99414 c 1.188027,0 2.260881,-0.562837 3.058594,-1.361328 C 52.938338,58.340181 53.5,57.26802 53.5,56.080078 v -29.0625 c 0,-0.854999 0.0142,-1.492302 -0.318359,-2.158203 C 52.849079,24.193474 52.353999,23.745624 51.5,22.890625 L 36.076172,7.4550781 36.019531,7.4121094 C 35.26819,6.8438401 34.107686,5.5 32,5.5 Z m 0,2 H 32 c 1.274361,0 1.741373,0.6756979 2.746094,1.453125 l 15.33789,15.351562 c 0.852631,0.853699 1.214226,1.260262 1.308594,1.449219 C 51.487016,25.943004 51.5,26.162579 51.5,27.017578 v 29.0625 c 0,0.522056 -0.291855,1.160524 -0.775391,1.644531 C 50.241074,58.208617 49.603002,58.5 49.082031,58.5 h -33.99414 c -0.519581,0 -1.158701,-0.29123 -1.642578,-0.775391 -0.483878,-0.48416 -0.775391,-1.122865 -0.775391,-1.644531 v -0.002 -0.002 L 12.5,9.9199219 c 0,-0.522056 0.291855,-1.1605238 0.775391,-1.6445313 C 13.758926,7.7913831 14.396998,7.5 14.917969,7.5 Z" />
</svg>
