<?xml version="1.0" encoding="UTF-8" standalone="no"?>
<svg
   height="64"
   width="64"
   version="1.1"
   id="svg9"
   sodipodi:docname="application-x-blender.svg"
   inkscape:version="1.1.2 (0a00cf5339, 2022-02-04)"
   xmlns:inkscape="http://www.inkscape.org/namespaces/inkscape"
   xmlns:sodipodi="http://sodipodi.sourceforge.net/DTD/sodipodi-0.dtd"
   xmlns:xlink="http://www.w3.org/1999/xlink"
   xmlns="http://www.w3.org/2000/svg"
   xmlns:svg="http://www.w3.org/2000/svg">
  <defs
     id="defs13">
    <linearGradient
       inkscape:collect="always"
       id="linearGradient846">
      <stop
         style="stop-color:#fe8c19;stop-opacity:1;"
         offset="0"
         id="stop842" />
      <stop
         style="stop-color:#fecf19;stop-opacity:1"
         offset="1"
         id="stop844" />
    </linearGradient>
    <linearGradient
       inkscape:collect="always"
       xlink:href="#linearGradient846"
       id="linearGradient848"
       x1="10.5"
       y1="33"
       x2="46.171234"
       y2="14.095727"
       gradientUnits="userSpaceOnUse" />
  </defs>
  <sodipodi:namedview
     id="namedview11"
     pagecolor="#ffffff"
     bordercolor="#666666"
     borderopacity="1.0"
     inkscape:pageshadow="2"
     inkscape:pageopacity="0.0"
     inkscape:pagecheckerboard="0"
     showgrid="false"
     inkscape:zoom="5.109375"
     inkscape:cx="32"
     inkscape:cy="32"
     inkscape:window-width="1056"
     inkscape:window-height="545"
     inkscape:window-x="307"
     inkscape:window-y="62"
     inkscape:window-maximized="0"
     inkscape:current-layer="svg9" />
  <path
     style="color:#000000;fill:#fe8c19;fill-opacity:0.2;stroke-width:2;-inkscape-stroke:none"
     d="m 11.67,56.08 c 0,1.71 1.71,3.42 3.417,3.42 h 33.996 c 1.709,0 3.417,-1.71 3.417,-3.42 V 27.017 c 0,-1.71 0,-1.71 -1.708,-3.42 L 35.417,8.21 C 34.51,7.524 33.708,6.5 32,6.5 H 14.917 C 13.208,6.5 11.5,8.21 11.5,9.92 Z"
     id="path9457" />
  <path
     id="path6"
     style="color:#000000;fill:url(#linearGradient848);-inkscape-stroke:none;fill-opacity:1"
     d="m 30.404297,21.996094 -0.425781,0.0059 -0.0293,0.203125 c -0.274031,0.08471 -0.570897,0.122122 -0.777344,0.328125 -0.69144,0.691649 -0.69144,1.829836 0,2.521484 l 7.337891,7.337891 H 17.898437 c -0.978195,0 -1.781249,0.803054 -1.78125,1.78125 0,0.978196 0.803055,1.78125 1.78125,1.78125 H 28.980469 L 16.640625,48.300781 c -0.69144,0.691649 -0.69144,1.827883 0,2.519531 0.691648,0.69144 1.827883,0.69144 2.519531,0 l 7.289063,-7.289062 c 0.212495,5.747674 4.878704,10.373047 10.677734,10.373047 5.934027,0 10.755859,-4.81988 10.755859,-10.753906 v -0.002 C 47.879954,40.71335 46.999827,38.3847 45.486328,36.486328 l 0.05664,-0.115234 -0.587891,-0.585938 -0.0039,-0.0039 -0.0098,-0.0098 c -0.167486,-0.180232 -0.34008,-0.355113 -0.519531,-0.523437 l -0.01172,-0.01172 -12.71875,-12.720703 c -0.340761,-0.34002 -0.805782,-0.527072 -1.287109,-0.519531 z m 0.01367,1.017578 h 0.04297 c 0.194079,0.0084 0.384798,0.07131 0.523438,0.208984 l 12.736328,12.738281 0.0059,0.0059 c 0.17094,0.159846 0.335137,0.326323 0.494141,0.498047 l 0.0078,0.0059 0.09766,0.09961 0.214844,0.251954 c 1.508489,1.763977 2.339072,4.007101 2.341796,6.328125 0,5.393587 -4.362272,9.753906 -9.755859,9.753906 -5.392921,0 -9.752829,-4.359287 -9.753906,-9.751953 0,-6.66e-4 0,-0.0013 0,-0.002 0.005,-0.249877 0.01881,-0.49929 0.04297,-0.748047 l 0.134765,-1.386719 -9.097656,9.097656 c -0.309518,0.309424 -0.795951,0.309424 -1.105469,0 -0.309424,-0.309518 -0.309424,-0.795951 0,-1.105469 L 31.394531,34.955078 H 17.898437 c -0.437756,0 -0.78125,-0.343494 -0.78125,-0.78125 10e-7,-0.437756 0.343494,-0.78125 0.78125,-0.78125 h 19.228516 l -0.0059,-0.002 c 0.195305,0.0023 0.391121,0.0114 0.585937,0.02539 l 1.337891,0.0957 -9.166016,-9.164063 c -0.308879,-0.308972 -0.307789,-0.795874 0,-1.105469 0.143576,-0.143267 0.33626,-0.2252 0.539063,-0.228515 z m 6.710937,11.947265 -0.002,1 c 1.761916,0.0024 3.460491,0.651854 4.775391,1.824219 l 0.558593,0.558594 c 1.193244,1.319364 1.854743,3.033413 1.857422,4.8125 -0.0011,3.976714 -3.214436,7.189453 -7.191406,7.189453 -3.977635,0 -7.191406,-3.213771 -7.191406,-7.191406 0,-3.977636 3.213771,-7.191406 7.191406,-7.191406 v -0.002 -0.998046 c -4.518075,0 -8.191406,3.673331 -8.191406,8.191406 0,4.518075 3.673331,8.191406 8.191406,8.191406 4.518075,0 8.191406,-3.673331 8.191406,-8.191406 -0.0031,-2.028902 -0.758672,-3.984866 -2.121093,-5.488281 l -0.0078,-0.0098 -0.601562,-0.599609 -0.0098,-0.0098 c -1.498889,-1.340743 -3.438186,-2.083203 -5.449219,-2.085938 z m -0.002,5.128907 c -1.686171,0 -3.0625,1.378281 -3.0625,3.064453 0,1.686171 1.376329,3.064453 3.0625,3.064453 1.686172,0 3.064453,-1.378282 3.064453,-3.064453 0,-1.686172 -1.378281,-3.064453 -3.064453,-3.064453 z m 0,1 c 1.145732,0 2.064453,0.918721 2.064453,2.064453 0,1.145732 -0.918721,2.064453 -2.064453,2.064453 -1.145732,0 -2.0625,-0.918721 -2.0625,-2.064453 0,-1.145732 0.916768,-2.064453 2.0625,-2.064453 z M 14.917969,5.5 C 13.729942,5.5 12.657088,6.0628369 11.859375,6.8613281 11.061662,7.6598194 10.5,8.7319796 10.5,9.9199219 v 0.00195 l 0.169922,46.1621091 c 0.0012,1.186757 0.564341,2.257235 1.361328,3.054688 C 12.829121,59.93701 13.900473,60.5 15.087891,60.5 h 33.99414 c 1.188027,0 2.260881,-0.562837 3.058594,-1.361328 C 52.938338,58.340181 53.5,57.26802 53.5,56.080078 v -29.0625 c 0,-0.854999 0.0142,-1.492302 -0.318359,-2.158203 C 52.849079,24.193474 52.353999,23.745624 51.5,22.890625 L 36.076172,7.4550781 36.019531,7.4121094 C 35.26819,6.8438401 34.107686,5.5 32,5.5 Z m 0,2 H 32 c 1.274361,0 1.741373,0.6756979 2.746094,1.453125 l 15.33789,15.351562 c 0.852631,0.853699 1.214226,1.260262 1.308594,1.449219 C 51.487016,25.943004 51.5,26.162579 51.5,27.017578 v 29.0625 c 0,0.522056 -0.291855,1.160524 -0.775391,1.644531 C 50.241074,58.208617 49.603002,58.5 49.082031,58.5 h -33.99414 c -0.519581,0 -1.158701,-0.29123 -1.642578,-0.775391 -0.483878,-0.48416 -0.775391,-1.122865 -0.775391,-1.644531 v -0.002 -0.002 L 12.5,9.9199219 c 0,-0.522056 0.291855,-1.1605238 0.775391,-1.6445313 C 13.758926,7.7913831 14.396998,7.5 14.917969,7.5 Z" />
</svg>
