<?xml version="1.0" encoding="UTF-8" standalone="no"?>
<svg
   height="64"
   width="64"
   version="1.1"
   id="svg9"
   sodipodi:docname="application-x-skg.svg"
   inkscape:version="1.1.2 (0a00cf5339, 2022-02-04)"
   xmlns:inkscape="http://www.inkscape.org/namespaces/inkscape"
   xmlns:sodipodi="http://sodipodi.sourceforge.net/DTD/sodipodi-0.dtd"
   xmlns:xlink="http://www.w3.org/1999/xlink"
   xmlns="http://www.w3.org/2000/svg"
   xmlns:svg="http://www.w3.org/2000/svg">
  <defs
     id="defs13">
    <linearGradient
       inkscape:collect="always"
       id="linearGradient846">
      <stop
         style="stop-color:#fe8c19;stop-opacity:1;"
         offset="0"
         id="stop842" />
      <stop
         style="stop-color:#fe19d9;stop-opacity:1"
         offset="1"
         id="stop844" />
    </linearGradient>
    <linearGradient
       inkscape:collect="always"
       xlink:href="#linearGradient846"
       id="linearGradient848"
       x1="21.492188"
       y1="48.498047"
       x2="46.321465"
       y2="12.822218"
       gradientUnits="userSpaceOnUse" />
  </defs>
  <sodipodi:namedview
     id="namedview11"
     pagecolor="#ffffff"
     bordercolor="#666666"
     borderopacity="1.0"
     inkscape:pageshadow="2"
     inkscape:pageopacity="0.0"
     inkscape:pagecheckerboard="0"
     showgrid="false"
     inkscape:zoom="5.109375"
     inkscape:cx="32"
     inkscape:cy="32"
     inkscape:window-width="1056"
     inkscape:window-height="545"
     inkscape:window-x="329"
     inkscape:window-y="139"
     inkscape:window-maximized="0"
     inkscape:current-layer="svg9" />
  <path
     style="color:#000000;fill:#fe8c19;fill-opacity:0.2;stroke-width:2;-inkscape-stroke:none"
     d="m 11.67,56.08 c 0,1.71 1.71,3.42 3.417,3.42 h 33.996 c 1.709,0 3.417,-1.71 3.417,-3.42 V 27.017 c 0,-1.71 0,-1.71 -1.708,-3.42 L 35.417,8.21 C 34.51,7.524 33.708,6.5 32,6.5 H 14.917 C 13.208,6.5 11.5,8.21 11.5,9.92 Z"
     id="path10696" />
  <path
     id="path6"
     style="color:#807f7f;fill:url(#linearGradient848);-inkscape-stroke:none;fill-opacity:1"
     d="m 30.021484,17.830078 v 0.5 2.921875 c -2.325972,0.272047 -4.269583,0.876755 -5.728515,2.050781 -1.728172,1.377437 -2.59375,3.455597 -2.59375,6.03125 0,1.823007 0.560571,3.390432 1.691406,4.607422 1.130835,1.216991 2.79858,2.076914 4.972656,2.625 l 1.658203,0.453125 v 9.941406 C 27.653962,46.70218 25.426977,46.178853 23.345703,45.158203 l -0.494141,-0.240234 -1.359375,3.580078 0.353516,0.216797 c 0.994122,0.609603 2.313921,1.165785 3.912109,1.625 h 0.0039 0.002 c 1.289605,0.357761 2.736602,0.496781 4.257812,0.599609 v 3.396484 h 3.957032 V 50.90625 c 2.369353,-0.265998 4.374393,-1.000865 5.84375,-2.339844 1.694022,-1.532233 2.567243,-3.767873 2.570312,-6.564453 0,-2.269701 -0.631512,-4.059607 -1.898437,-5.34375 -1.255941,-1.28463 -3.100101,-2.171818 -5.414063,-2.724609 l -1.101562,-0.275391 v -8.638672 c 0.946203,0.09191 1.90858,0.202296 2.783203,0.451172 l 0.0039,0.002 h 0.0039 c 1.210129,0.325365 2.105839,0.744392 2.84375,1.15625 l 0.521485,0.291016 1.251953,-3.623047 -0.337891,-0.210938 c -1.867893,-1.164513 -4.253752,-1.829052 -7.070312,-2.035156 v -3.220703 h -2.71875 z m 1,1 h 0.238282 1.71875 v 3.121094 l 0.474609,0.02344 c 2.749404,0.139107 4.946572,0.793404 6.707031,1.806641 l -0.603515,1.751953 C 38.84912,25.169977 38.100126,24.796694 37.035156,24.509769 35.895178,24.185385 34.679976,24.022885 33.517578,23.93555 l -0.539062,-0.04102 v 10.544922 l 1.861328,0.464844 h 0.002 c 2.197563,0.524189 3.861415,1.354457 4.935547,2.453125 h 0.002 v 0.002 c 1.063069,1.076559 1.613281,2.552663 1.613281,4.642578 -0.0033,2.592591 -0.77505,4.498968 -2.240234,5.824219 h -0.002 c -1.375069,1.253577 -3.275639,1.986817 -5.710938,2.18164 l -0.460937,0.03711 v 3.291015 h -1.957032 v -3.300781 l -0.472656,-0.02734 C 28.86329,49.911078 27.350425,49.742917 26.03125,49.376953 24.658492,48.98217 23.605086,48.502511 22.744141,48.017578 l 0.673828,-1.773437 c 2.23007,1.009898 4.576361,1.581656 7.058593,1.802734 l 0.544922,0.04883 V 36.255859 l -2.408203,-0.658203 -0.0059,-0.002 c -2.05054,-0.516906 -3.526035,-1.306683 -4.482381,-2.33589 -0.956346,-1.029208 -1.425781,-2.302203 -1.425781,-3.925782 0,-2.359027 0.738018,-4.069388 2.216797,-5.248047 v -0.002 h 0.002 c 1.355743,-1.091744 3.213639,-1.702451 5.648437,-1.927734 l 0.455078,-0.04102 z m 0,5.134766 -0.55664,0.06445 c -0.07331,0.0084 -0.319927,-0.05537 -0.673828,0.0039 -10e-4,1.72e-4 -9.26e-4,-1.74e-4 -0.002,0 -1.527148,0.255851 -2.726331,0.788617 -3.544921,1.644531 -0.818952,0.856292 -1.216797,2.016698 -1.216797,3.376953 0,1.167817 0.37992,2.203512 1.173828,2.953125 l 0.0039,0.0039 0.0039,0.002 c 0.790657,0.717572 1.918205,1.245195 3.363282,1.595703 h 0.0039 l 1.445312,0.324219 z m -1.148437,0.5625 0.08398,0.492187 c 0.003,-5.1e-4 0.0568,-4.66e-4 0.06445,0 v 7.666016 l -0.214843,-0.04883 c -1.334052,-0.323579 -2.304188,-0.80183 -2.921875,-1.361328 -0.581079,-0.551386 -0.857422,-1.261366 -0.857422,-2.220704 0,-1.172171 0.314685,-2.032292 0.939453,-2.685546 0.624768,-0.653254 1.599369,-1.117185 2.988281,-1.34961 z m 3.105469,12.0625 v 0.695312 l 0.0039,10.908203 0.548828,-0.05273 c 1.744099,-0.168984 3.128724,-0.73321 4.064453,-1.75 0.935729,-1.01679 1.380859,-2.444349 1.380859,-4.203125 v -0.002 c -0.0031,-1.276092 -0.295329,-2.423836 -1.046875,-3.28125 -3.13e-4,-3.67e-4 -0.0016,3.67e-4 -0.002,0 -0.7481,-0.874928 -2.00181,-1.468594 -3.734375,-1.90625 l -0.03711,-0.01172 z m 1,1.390625 c 1.608584,0.411299 2.669919,0.963815 3.191406,1.574218 l 0.002,0.002 0.002,0.0039 c 0.54669,0.621238 0.79996,1.499478 0.802734,2.628906 -3.59e-4,1.591978 -0.388391,2.731508 -1.117187,3.523438 -0.630715,0.685353 -1.615476,1.092573 -2.876953,1.302734 z M 14.917969,5.5 C 13.729942,5.5 12.657088,6.0628369 11.859375,6.8613281 11.061662,7.6598194 10.5,8.7319796 10.5,9.9199219 v 0.00195 l 0.169922,46.1621091 c 0.0012,1.186757 0.564341,2.257235 1.361328,3.054688 C 12.829121,59.93701 13.900473,60.5 15.087891,60.5 h 33.99414 c 1.188027,0 2.260881,-0.562837 3.058594,-1.361328 C 52.938338,58.340181 53.5,57.26802 53.5,56.080078 v -29.0625 c 0,-0.854999 0.0142,-1.492302 -0.318359,-2.158203 C 52.849079,24.193474 52.353999,23.745624 51.5,22.890625 L 36.076172,7.4550781 36.019531,7.4121094 C 35.26819,6.8438401 34.107686,5.5 32,5.5 Z m 0,2 H 32 c 1.274361,0 1.741373,0.6756979 2.746094,1.453125 l 15.33789,15.351562 c 0.852631,0.853699 1.214226,1.260262 1.308594,1.449219 C 51.487016,25.943004 51.5,26.162579 51.5,27.017578 v 29.0625 c 0,0.522056 -0.291855,1.160524 -0.775391,1.644531 C 50.241074,58.208617 49.603002,58.5 49.082031,58.5 h -33.99414 c -0.519581,0 -1.158701,-0.29123 -1.642578,-0.775391 -0.483878,-0.48416 -0.775391,-1.122865 -0.775391,-1.644531 v -0.002 -0.002 L 12.5,9.9199219 c 0,-0.522056 0.291855,-1.1605238 0.775391,-1.6445313 C 13.758926,7.7913831 14.396998,7.5 14.917969,7.5 Z" />
</svg>
