<?xml version="1.0" encoding="UTF-8" standalone="no"?>
<svg
   height="64"
   width="64"
   version="1.1"
   id="svg9"
   sodipodi:docname="application-x-flash-video.svg"
   inkscape:version="1.1.2 (0a00cf5339, 2022-02-04)"
   xmlns:inkscape="http://www.inkscape.org/namespaces/inkscape"
   xmlns:sodipodi="http://sodipodi.sourceforge.net/DTD/sodipodi-0.dtd"
   xmlns:xlink="http://www.w3.org/1999/xlink"
   xmlns="http://www.w3.org/2000/svg"
   xmlns:svg="http://www.w3.org/2000/svg">
  <defs
     id="defs13">
    <linearGradient
       inkscape:collect="always"
       id="linearGradient954">
      <stop
         style="stop-color:#fe1952;stop-opacity:1;"
         offset="0"
         id="stop950" />
      <stop
         style="stop-color:#fe19ac;stop-opacity:1"
         offset="1"
         id="stop952" />
    </linearGradient>
    <linearGradient
       inkscape:collect="always"
       xlink:href="#linearGradient954"
       id="linearGradient848"
       x1="20.254007"
       y1="41.797455"
       x2="43.56826"
       y2="14.359544"
       gradientUnits="userSpaceOnUse" />
  </defs>
  <sodipodi:namedview
     id="namedview11"
     pagecolor="#ffffff"
     bordercolor="#666666"
     borderopacity="1.0"
     inkscape:pageshadow="2"
     inkscape:pageopacity="0.0"
     inkscape:pagecheckerboard="0"
     showgrid="false"
     inkscape:zoom="7.2257474"
     inkscape:cx="32.038208"
     inkscape:cy="32.038208"
     inkscape:window-width="1056"
     inkscape:window-height="545"
     inkscape:window-x="200"
     inkscape:window-y="75"
     inkscape:window-maximized="0"
     inkscape:current-layer="svg9" />
  <path
     style="color:#000000;fill:#fe1952;fill-opacity:0.2;stroke-width:2;-inkscape-stroke:none"
     d="m 11.67,56.08 c 0,1.71 1.71,3.42 3.417,3.42 h 33.996 c 1.709,0 3.417,-1.71 3.417,-3.42 V 27.017 c 0,-1.71 0,-1.71 -1.708,-3.42 L 35.417,8.21 C 34.51,7.524 33.708,6.5 32,6.5 H 14.917 C 13.208,6.5 11.5,8.21 11.5,9.92 Z"
     id="path6335" />
  <path
     id="path6"
     style="color:#807f7f;fill:url(#linearGradient848);-inkscape-stroke:none;fill-opacity:1"
     d="m 44.982422,21.992187 c 0,0 -3.028357,-0.230876 -6.5625,1.466797 -3.534143,1.697673 -7.601133,5.347673 -9.763672,12.927735 -1.677126,5.878233 -4.11978,8.42881 -6.083984,9.548828 -1.964204,1.120018 -3.427735,0.83789 -3.427735,0.83789 l -0.58789,-0.103515 v 7.291015 L 19,54.011719 c 0,0 2.770456,0.314156 6.087891,-1.126953 3.254911,-1.413949 7.04697,-4.582319 9.384765,-11.201172 h 8.38086 v -7.25 H 37.5625 c 0.202442,-0.536804 0.544151,-1.304948 1.287109,-2.246094 1.145317,-1.450837 3.006901,-2.895503 6.101563,-2.947266 l 0.492187,-0.0078 v -6.742188 h -0.5 z m -0.539063,1.021485 v 5.292969 c -3.105514,0.208652 -5.167898,1.727668 -6.378906,3.261718 -1.278238,1.619216 -1.703125,3.238282 -1.703125,3.238282 l -0.164062,0.626953 h 5.65625 v 5.25 h -8.064454 l -0.115234,0.339843 c -2.247081,6.654719 -5.898965,9.603044 -8.984375,10.94336 -2.666015,1.158129 -4.578184,1.082248 -5.132812,1.044922 v -5.253907 c 0.619269,0.03095 1.824399,0.0071 3.511718,-0.955078 2.22476,-1.268591 4.821977,-4.090062 6.548828,-10.142578 2.09567,-7.345671 5.932099,-10.711597 9.236329,-12.298828 2.878097,-1.382533 5.004443,-1.366903 5.589843,-1.347656 z M 14.917969,5.5 C 13.729942,5.5 12.657088,6.0628369 11.859375,6.8613281 11.061662,7.6598194 10.5,8.7319796 10.5,9.9199219 v 0.00195 l 0.169922,46.1621091 c 0.0012,1.186757 0.564341,2.257235 1.361328,3.054688 C 12.829121,59.93701 13.900473,60.5 15.087891,60.5 h 33.99414 c 1.188027,0 2.260881,-0.562837 3.058594,-1.361328 C 52.938338,58.340181 53.5,57.26802 53.5,56.080078 v -29.0625 c 0,-0.854999 0.0142,-1.492302 -0.318359,-2.158203 C 52.849079,24.193474 52.353999,23.745624 51.5,22.890625 L 36.076172,7.4550781 36.019531,7.4121094 C 35.26819,6.8438401 34.107686,5.5 32,5.5 Z m 0,2 H 32 c 1.274361,0 1.741373,0.6756979 2.746094,1.453125 l 15.33789,15.351562 c 0.852631,0.853699 1.214226,1.260262 1.308594,1.449219 C 51.487016,25.943004 51.5,26.162579 51.5,27.017578 v 29.0625 c 0,0.522056 -0.291855,1.160524 -0.775391,1.644531 C 50.241074,58.208617 49.603002,58.5 49.082031,58.5 h -33.99414 c -0.519581,0 -1.158701,-0.29123 -1.642578,-0.775391 -0.483878,-0.48416 -0.775391,-1.122865 -0.775391,-1.644531 v -0.002 -0.002 L 12.5,9.9199219 c 0,-0.522056 0.291855,-1.1605238 0.775391,-1.6445313 C 13.758926,7.7913831 14.396998,7.5 14.917969,7.5 Z" />
</svg>
