<?xml version="1.0" encoding="UTF-8" standalone="no"?>
<svg
   height="64"
   width="64"
   version="1.1"
   id="svg9"
   sodipodi:docname="application-vnd.apple.pkpass.svg"
   inkscape:version="1.1.2 (0a00cf5339, 2022-02-04)"
   xmlns:inkscape="http://www.inkscape.org/namespaces/inkscape"
   xmlns:sodipodi="http://sodipodi.sourceforge.net/DTD/sodipodi-0.dtd"
   xmlns:xlink="http://www.w3.org/1999/xlink"
   xmlns="http://www.w3.org/2000/svg"
   xmlns:svg="http://www.w3.org/2000/svg">
  <defs
     id="defs13">
    <linearGradient
       inkscape:collect="always"
       id="linearGradient846">
      <stop
         style="stop-color:#19c5ff;stop-opacity:1;"
         offset="0"
         id="stop842" />
      <stop
         style="stop-color:#e119ff;stop-opacity:1"
         offset="1"
         id="stop844" />
    </linearGradient>
    <linearGradient
       inkscape:collect="always"
       xlink:href="#linearGradient846"
       id="linearGradient848"
       x1="10.769956"
       y1="39.377911"
       x2="46.807713"
       y2="16.193281"
       gradientUnits="userSpaceOnUse" />
  </defs>
  <sodipodi:namedview
     id="namedview11"
     pagecolor="#ffffff"
     bordercolor="#666666"
     borderopacity="1.0"
     inkscape:pageshadow="2"
     inkscape:pageopacity="0.0"
     inkscape:pagecheckerboard="0"
     showgrid="false"
     inkscape:zoom="5.109375"
     inkscape:cx="32"
     inkscape:cy="32.391437"
     inkscape:window-width="1056"
     inkscape:window-height="545"
     inkscape:window-x="295"
     inkscape:window-y="83"
     inkscape:window-maximized="0"
     inkscape:current-layer="svg9" />
  <path
     style="color:#000000;fill:#19c5ff;fill-opacity:0.2;stroke-width:2;-inkscape-stroke:none"
     d="m 11.67,56.08 c 0,1.71 1.71,3.42 3.417,3.42 h 33.996 c 1.709,0 3.417,-1.71 3.417,-3.42 V 27.017 c 0,-1.71 0,-1.71 -1.708,-3.42 L 35.417,8.21 C 34.51,7.524 33.708,6.5 32,6.5 H 14.917 C 13.208,6.5 11.5,8.21 11.5,9.92 Z"
     id="path6897" />
  <path
     id="path6"
     style="color:#807f7f;fill:url(#linearGradient848);-inkscape-stroke:none;fill-opacity:1"
     d="m 18.367187,21.742187 v 0.5 10.00586 h -2.624999 v 18.884765 c 0,1.72461 1.416636,2.99784 3.08789,3.125 h 0.01953 29.408203 V 35.373047 c 0,-1.723407 -1.401593,-3.125 -3.125,-3.125 h -4.753906 v -10.50586 z m 1,1 h 20.011719 v 10.50586 h 5.753906 c 1.186705,0 2.125001,0.938295 2.125,2.125 V 53.257812 H 18.902344 c -1.225994,-0.0953 -2.160157,-0.94104 -2.160157,-2.125 V 33.248047 h 2.625 z m 1.626954,1.625 v 0.5 8.38086 h 3.376953 l 0.15039,-0.201172 c 1.144957,-1.525801 2.943277,-2.425167 4.84961,-2.425781 1.909376,0.0057 3.705291,0.903647 4.855468,2.427734 l 0.150391,0.199219 h 3.375 v -8.88086 z m 1,1 h 14.757812 v 6.88086 H 34.789062 C 33.447783,30.625608 31.490794,29.627399 29.375,29.621094 h -0.002 c -2.115493,0 -4.075733,1.001297 -5.414063,2.626953 h -1.964843 z m -3.626954,9.50586 v 0.5 16.259765 H 45.632812 V 48.005859 H 32 c -2.64176,0 -4.751953,-2.112147 -4.751953,-4.753906 C 27.248047,40.610193 29.35824,38.5 32,38.5 h 13.632812 v -3.626953 z m 1,1 H 44.632812 V 37.5 H 32 c -3.178462,0 -5.751953,2.573491 -5.751953,5.751953 0,3.178461 2.573491,5.753906 5.751953,5.753906 h 12.632812 v 1.626953 H 19.367187 Z m 15.259766,4.253906 c -1.000484,0 -1.814372,0.39273 -2.34375,0.988281 C 31.753825,41.710785 31.5,42.484229 31.5,43.251953 c 0,0.767725 0.253825,1.543121 0.783203,2.138672 0.529378,0.595551 1.343266,0.988281 2.34375,0.988281 1.000484,0 1.814372,-0.39273 2.34375,-0.988281 0.529379,-0.595551 0.78125,-1.370947 0.78125,-2.138672 0,-0.767724 -0.251871,-1.541168 -0.78125,-2.136719 -0.529378,-0.595551 -1.343266,-0.988281 -2.34375,-0.988281 z m 0,1 c 0.750484,0 1.249597,0.262975 1.595703,0.652344 0.346106,0.389369 0.529297,0.927154 0.529297,1.472656 0,0.545503 -0.183191,1.08524 -0.529297,1.474609 -0.346106,0.38937 -0.845219,0.652344 -1.595703,0.652344 -0.750484,0 -1.249597,-0.262974 -1.595703,-0.652344 C 32.685144,44.337193 32.5,43.797456 32.5,43.251953 c 0,-0.545502 0.185144,-1.083287 0.53125,-1.472656 0.346106,-0.389369 0.845219,-0.652344 1.595703,-0.652344 z M 14.917969,5.5 C 13.729942,5.5 12.657088,6.0628369 11.859375,6.8613281 11.061662,7.6598194 10.5,8.7319796 10.5,9.9199219 v 0.00195 l 0.169922,46.1621091 c 0.0012,1.186757 0.564341,2.257235 1.361328,3.054688 C 12.829121,59.93701 13.900473,60.5 15.087891,60.5 h 33.99414 c 1.188027,0 2.260881,-0.562837 3.058594,-1.361328 C 52.938338,58.340181 53.5,57.26802 53.5,56.080078 v -29.0625 c 0,-0.854999 0.0142,-1.492302 -0.318359,-2.158203 C 52.849079,24.193474 52.353999,23.745624 51.5,22.890625 L 36.076172,7.4550781 36.019531,7.4121094 C 35.26819,6.8438401 34.107686,5.5 32,5.5 Z m 0,2 H 32 c 1.274361,0 1.741373,0.6756979 2.746094,1.453125 l 15.33789,15.351562 c 0.852631,0.853699 1.214226,1.260262 1.308594,1.449219 C 51.487016,25.943004 51.5,26.162579 51.5,27.017578 v 29.0625 c 0,0.522056 -0.291855,1.160524 -0.775391,1.644531 C 50.241074,58.208617 49.603002,58.5 49.082031,58.5 h -33.99414 c -0.519581,0 -1.158701,-0.29123 -1.642578,-0.775391 -0.483878,-0.48416 -0.775391,-1.122865 -0.775391,-1.644531 v -0.002 -0.002 L 12.5,9.9199219 c 0,-0.522056 0.291855,-1.1605238 0.775391,-1.6445313 C 13.758926,7.7913831 14.396998,7.5 14.917969,7.5 Z" />
</svg>
