<?xml version="1.0" encoding="UTF-8" standalone="no"?>
<svg
   height="64"
   width="64"
   version="1.1"
   id="svg3"
   sodipodi:docname="application-x-msdownload.svg"
   inkscape:version="1.1.2 (0a00cf5339, 2022-02-04)"
   xmlns:inkscape="http://www.inkscape.org/namespaces/inkscape"
   xmlns:sodipodi="http://sodipodi.sourceforge.net/DTD/sodipodi-0.dtd"
   xmlns:xlink="http://www.w3.org/1999/xlink"
   xmlns="http://www.w3.org/2000/svg"
   xmlns:svg="http://www.w3.org/2000/svg">
  <defs
     id="defs3">
    <linearGradient
       inkscape:collect="always"
       id="linearGradient870">
      <stop
         style="stop-color:#19c5ff;stop-opacity:1;"
         offset="0"
         id="stop866" />
      <stop
         style="stop-color:#1fff34;stop-opacity:1"
         offset="1"
         id="stop868" />
    </linearGradient>
    <linearGradient
       inkscape:collect="always"
       xlink:href="#linearGradient870"
       id="linearGradient872"
       x1="10.5"
       y1="33"
       x2="43.670048"
       y2="15.550244"
       gradientUnits="userSpaceOnUse" />
  </defs>
  <sodipodi:namedview
     id="namedview3"
     pagecolor="#ffffff"
     bordercolor="#000000"
     borderopacity="0.25"
     inkscape:showpageshadow="2"
     inkscape:pageopacity="0.0"
     inkscape:pagecheckerboard="0"
     inkscape:deskcolor="#d1d1d1"
     inkscape:zoom="5.9921875"
     inkscape:cx="23.113429"
     inkscape:cy="37.966102"
     inkscape:window-width="1056"
     inkscape:window-height="545"
     inkscape:window-x="247"
     inkscape:window-y="87"
     inkscape:window-maximized="0"
     inkscape:current-layer="svg3"
     inkscape:pageshadow="2"
     showgrid="false"
     inkscape:snap-others="false"
     inkscape:snap-nodes="false" />
  <path
     style="color:#000000;fill:#19c5ff;fill-opacity:0.2;stroke-width:2;-inkscape-stroke:none"
     d="m 11.67,56.08 c 0,1.71 1.71,3.42 3.417,3.42 h 33.996 c 1.709,0 3.417,-1.71 3.417,-3.42 V 27.017 c 0,-1.71 0,-1.71 -1.708,-3.42 L 35.417,8.21 C 34.51,7.524 33.708,6.5 32,6.5 H 14.917 C 13.208,6.5 11.5,8.21 11.5,9.92 Z"
     id="path11957" />
  <g
     transform="matrix(2,0,0,2,-84.464146,-24.226858)"
     id="g2522" />
  <path
     id="path1233-1"
     style="color:#000000;fill:url(#linearGradient872);-inkscape-stroke:none;fill-opacity:1"
     d="m 29.498047,18.494141 c -0.492595,0 -0.887296,0.372751 -0.962891,0.830078 v 0.0059 l -0.326172,2.375 c -0.412353,0.199535 -0.802417,0.435406 -1.169922,0.705078 l -2.134765,-0.890625 -0.0059,-0.002 c -0.438578,-0.170098 -0.958626,0.01127 -1.193359,0.431641 l -1.892538,3.39649 c -0.234988,0.420501 -0.133965,0.94543 0.226562,1.251953 l 0.0039,0.0039 1.798828,1.462891 c -0.02331,0.238987 -0.05078,0.476483 -0.05078,0.730469 0,0.253871 0.02745,0.491367 0.05078,0.730469 l -1.794922,1.458984 c -0.37088,0.303059 -0.464623,0.833178 -0.236328,1.253906 v 0.002 l 1.894531,3.398438 c 0.233879,0.418941 0.757515,0.616616 1.207031,0.427734 l 2.126953,-0.888672 c 0.366515,0.267826 0.756432,0.504258 1.169922,0.705078 l 0.326172,2.375 v 0.0059 c 0.07498,0.458565 0.473191,0.830078 0.962891,0.830078 h 3.785156 c 0.492582,0 0.885334,-0.372733 0.960938,-0.830078 l 0.002,-0.0059 0.324218,-2.375 c 0.41234,-0.199536 0.802408,-0.435406 1.169922,-0.705078 l 2.134766,0.892578 0.0059,0.002 c 0.438488,0.169957 0.958621,-0.01326 1.19336,-0.433594 l 1.892578,-3.394531 v -0.002 c 0.233658,-0.420315 0.133119,-0.945883 -0.226563,-1.251953 l -0.0039,-0.002 -1.792969,-1.460937 c 0.02349,-0.239632 0.04883,-0.477747 0.04883,-0.732422 0,-0.254074 -0.02538,-0.493068 -0.04883,-0.732422 l 1.792969,-1.458984 h 0.002 c 0.370875,-0.303057 0.464533,-0.833187 0.236328,-1.253907 l -0.002,-0.002 -1.894531,-3.398437 C 38.844204,21.530411 38.322559,21.33258 37.873047,21.521484 l -2.128906,0.888672 c -0.366528,-0.267816 -0.756424,-0.50426 -1.169922,-0.705078 l -0.326172,-2.378906 -0.002,-0.0098 c -0.08224,-0.455287 -0.473038,-0.822265 -0.962891,-0.822265 z m 0.02148,1 h 3.744141 l 0.388672,2.855468 0.257812,0.113282 c 0.533544,0.231344 1.033735,0.535713 1.488281,0.896484 l 0.230469,0.183594 2.589844,-1.082032 1.876953,3.367188 c 0.0057,0.0105 0.0037,0.007 0.0078,0.002 l -2.207032,1.794922 0.0332,0.273437 c 0.03667,0.302955 0.0625,0.600963 0.0625,0.896485 0,0.295305 -0.02595,0.59313 -0.0625,0.896484 l -0.03125,0.273438 0.212891,0.173828 1.982422,1.615234 c 4.75e-4,8.18e-4 1.83e-4,0.0016 0,0.002 l -1.878906,3.371094 -2.591797,-1.082031 -0.230469,0.185547 c -0.45205,0.362665 -0.950938,0.664316 -1.486328,0.896484 l -0.257813,0.111328 -0.388671,2.855469 H 29.519511 L 29.130839,35.238375 28.873027,35.127047 C 28.339474,34.895682 27.839216,34.589362 27.384746,34.22861 l -0.230469,-0.183594 -2.589844,1.083984 -1.875,-3.367187 c -0.007,-0.01295 0.0022,-0.01173 -0.0098,-0.002 l 2.207032,-1.794922 -0.0332,-0.273438 c -0.03651,-0.303166 -0.0625,-0.600984 -0.0625,-0.896484 0,-0.295398 0.02608,-0.593072 0.0625,-0.896485 l 0.0332,-0.27539 -2.199219,-1.78711 c 10e-4,8.54e-4 -0.0024,-0.0031 -0.002,-0.0039 l 1.880859,-3.371094 2.589844,1.082032 0.230469,-0.185547 c 0.452039,-0.362667 0.950938,-0.662384 1.486328,-0.894531 l 0.257812,-0.113282 z m 1.876953,5.36914 c -2.110004,0 -3.8125,1.775212 -3.8125,3.931641 0,2.156416 1.702498,3.929687 3.8125,3.929687 2.109965,0 3.8125,-1.773267 3.8125,-3.929687 0,-2.156433 -1.702534,-3.931641 -3.8125,-3.931641 z m 0,1 c 1.551109,0 2.8125,1.296183 2.8125,2.931641 0,1.63544 -1.26139,2.929687 -2.8125,2.929687 -1.551162,0 -2.8125,-1.294243 -2.8125,-2.929687 0,-1.635462 1.26134,-2.931641 2.8125,-2.931641 z M 41.986324,36.486328 C 41.6125,36.273479 41.14593,36.390218 40.900387,36.714844 l -0.002,0.0039 -0.970703,1.351562 c -0.284171,-0.01393 -0.56725,-0.0067 -0.847656,0.02344 l -1.033203,-1.302734 -0.0059,-0.0059 c -0.25839,-0.306397 -0.733563,-0.401668 -1.091797,-0.175781 l -2.367188,1.496094 c -0.356867,0.224619 -0.485359,0.672016 -0.33789,1.048828 l 0.002,0.0039 0.638672,1.537109 c -0.08501,0.130697 -0.171713,0.253426 -0.25,0.402344 -0.07537,0.14329 -0.128368,0.282904 -0.1875,0.423828 l -1.570313,0.273438 c -0.414236,0.07236 -0.7083,0.450759 -0.699219,0.865234 l 0.06641,2.873047 v 0.0039 c 0.0142,0.406701 0.313561,0.769516 0.736328,0.822266 h 0.002 l 1.607422,0.195312 c 0.131343,0.269488 0.281296,0.529726 0.453125,0.779297 l -0.576172,1.589844 -0.002,0.0059 c -0.129186,0.385242 0.01852,0.820151 0.392578,1.029297 l 2.427734,1.371094 c 0.374151,0.214223 0.841953,0.0981 1.087891,-0.226562 l 0.0039,-0.0039 0.96875,-1.351562 c 0.285182,0.01405 0.568215,0.0068 0.849609,-0.02344 l 1.033204,1.302735 0.0039,0.0059 c 0.258423,0.306467 0.733561,0.40175 1.091797,0.175781 l 2.367187,-1.496093 c 0.357018,-0.224642 0.485066,-0.672221 0.337891,-1.048829 l -0.002,-0.0039 -0.636719,-1.537109 c 0.08487,-0.130514 0.17181,-0.253625 0.25,-0.402344 0.07529,-0.143173 0.12644,-0.282991 0.185547,-0.423828 l 1.574219,-0.271484 h 0.002 c 0.414461,-0.07227 0.706364,-0.450797 0.697265,-0.865235 l -0.06445,-2.873047 -0.002,-0.0039 c -0.01419,-0.406625 -0.313559,-0.769499 -0.736328,-0.822266 l -1.607422,-0.195312 c -0.13165,-0.27009 -0.282775,-0.531152 -0.455078,-0.78125 l 0.578125,-1.59375 0.0039,-0.01172 c 0.115672,-0.376635 -0.02439,-0.811371 -0.402344,-1.019531 L 41.988178,36.48637 Z m -0.365234,0.941406 2.207031,1.248047 -0.705078,1.94336 0.167969,0.216796 c 0.258633,0.337197 0.47103,0.705284 0.636718,1.09375 l 0.113282,0.265625 1.996093,0.240235 0.0625,2.628906 -1.986328,0.339844 -0.101562,0.267578 c -0.07795,0.204754 -0.159704,0.399189 -0.25586,0.582031 -0.09481,0.180333 -0.210614,0.359297 -0.335937,0.541016 l -0.154297,0.222656 0.103516,0.251953 0.689453,1.660156 -2.142578,1.355469 -1.273438,-1.605469 -0.291016,0.04883 c -0.400317,0.06696 -0.808212,0.07967 -1.216796,0.03516 l -0.289063,-0.03125 -1.191406,1.658203 -2.205078,-1.246094 0.705078,-1.943359 -0.166016,-0.216797 c -0.258645,-0.337203 -0.471126,-0.705354 -0.636719,-1.09375 l -0.113277,-0.26563 -1.996094,-0.240234 -0.0625,-2.628907 1.982422,-0.34375 0.09961,-0.265625 c 0.07798,-0.204808 0.161667,-0.401192 0.257812,-0.583984 0.09481,-0.180346 0.210636,-0.357441 0.335938,-0.539063 l 0.154297,-0.222656 -0.792969,-1.914062 2.142578,-1.353516 1.271484,1.605469 0.291016,-0.04883 c 0.400256,-0.06699 0.808175,-0.07969 1.216797,-0.03516 l 0.291015,0.03125 z m -25.609375,1.921875 v 0.5 6.695313 h 6.982422 v -7.195313 z m 7.976562,0 v 0.5 6.695313 h 6.982422 v -7.195313 z m -6.976562,1 h 4.982422 v 5.195313 h -4.982422 z m 7.976562,0 h 4.982422 v 5.195313 h -4.982422 z m 13.822266,0.675782 c -0.722004,0.219423 -1.363361,0.721005 -1.746094,1.447265 -0.765408,1.45262 -0.251579,3.275939 1.164063,4.076172 1.415784,0.800271 3.213144,0.249424 3.978515,-1.203125 0.765488,-1.45262 0.253597,-3.275963 -1.162109,-4.076172 -0.707871,-0.400149 -1.512372,-0.463564 -2.234375,-0.24414 z m 0.283203,0.945312 c 0.468455,-0.143028 0.990379,-0.09693 1.458984,0.167969 0.937321,0.529808 1.288294,1.75581 0.769532,2.740234 -0.518743,0.984489 -1.664298,1.328616 -2.601563,0.798828 -0.937274,-0.529821 -1.290193,-1.753857 -0.771484,-2.738281 0.259419,-0.492265 0.676076,-0.825721 1.144531,-0.96875 z m -23.082031,5.640625 v 0.5 6.695313 h 6.982422 v -7.195313 z m 7.976562,0 v 0.5 6.695313 h 6.982422 v -7.195313 z m -6.976562,1 h 4.982422 v 5.195313 h -4.982422 z m 7.976562,0 h 4.982422 v 5.195313 H 24.988277 Z M 14.917969,5.5 C 13.729942,5.5 12.657088,6.0628369 11.859375,6.8613281 11.061662,7.6598194 10.5,8.7319796 10.5,9.9199219 v 0.00195 l 0.169922,46.1621091 c 0.0012,1.186757 0.564341,2.257235 1.361328,3.054688 C 12.829121,59.93701 13.900473,60.5 15.087891,60.5 h 33.99414 c 1.188027,0 2.260881,-0.562837 3.058594,-1.361328 C 52.938338,58.340181 53.5,57.26802 53.5,56.080078 v -29.0625 c 0,-0.854999 0.0142,-1.492302 -0.318359,-2.158203 C 52.849079,24.193474 52.353999,23.745624 51.5,22.890625 L 36.076172,7.4550781 36.019531,7.4121094 C 35.26819,6.8438401 34.107686,5.5 32,5.5 Z m 0,2 H 32 c 1.274361,0 1.741373,0.6756979 2.746094,1.453125 l 15.33789,15.351562 c 0.852631,0.853699 1.214226,1.260262 1.308594,1.449219 C 51.487016,25.943004 51.5,26.162579 51.5,27.017578 v 29.0625 c 0,0.522056 -0.291855,1.160524 -0.775391,1.644531 C 50.241074,58.208617 49.603002,58.5 49.082031,58.5 h -33.99414 c -0.519581,0 -1.158701,-0.29123 -1.642578,-0.775391 -0.483878,-0.48416 -0.775391,-1.122865 -0.775391,-1.644531 v -0.002 -0.002 L 12.5,9.9199219 c 0,-0.522056 0.291855,-1.1605238 0.775391,-1.6445313 C 13.758926,7.7913831 14.396998,7.5 14.917969,7.5 Z" />
</svg>
