<?xml version="1.0" encoding="UTF-8" standalone="no"?>
<svg
   height="64"
   width="64"
   version="1.1"
   id="svg15"
   sodipodi:docname="application-x-designer.svg"
   inkscape:version="1.1.2 (0a00cf5339, 2022-02-04)"
   xmlns:inkscape="http://www.inkscape.org/namespaces/inkscape"
   xmlns:sodipodi="http://sodipodi.sourceforge.net/DTD/sodipodi-0.dtd"
   xmlns:xlink="http://www.w3.org/1999/xlink"
   xmlns="http://www.w3.org/2000/svg"
   xmlns:svg="http://www.w3.org/2000/svg">
  <defs
     id="defs19">
    <linearGradient
       inkscape:collect="always"
       id="linearGradient847">
      <stop
         style="stop-color:#19c5ff;stop-opacity:1;"
         offset="0"
         id="stop843" />
      <stop
         style="stop-color:#191bff;stop-opacity:0.99000001"
         offset="1"
         id="stop845" />
    </linearGradient>
    <linearGradient
       inkscape:collect="always"
       xlink:href="#linearGradient847"
       id="linearGradient849"
       x1="0.77284176"
       y1="6.3198434"
       x2="12.310319"
       y2="-0.2959404"
       gradientUnits="userSpaceOnUse" />
  </defs>
  <sodipodi:namedview
     id="namedview17"
     pagecolor="#ffffff"
     bordercolor="#666666"
     borderopacity="1.0"
     inkscape:pageshadow="2"
     inkscape:pageopacity="0.0"
     inkscape:pagecheckerboard="0"
     showgrid="false"
     inkscape:zoom="5.109375"
     inkscape:cx="29.847095"
     inkscape:cy="48.440367"
     inkscape:window-width="1056"
     inkscape:window-height="545"
     inkscape:window-x="189"
     inkscape:window-y="257"
     inkscape:window-maximized="0"
     inkscape:current-layer="svg15" />
  <path
     style="color:#000000;fill:#19c5ff;fill-opacity:0.2;stroke-width:2;-inkscape-stroke:none"
     d="m 11.67,56.08 c 0,1.71 1.71,3.42 3.417,3.42 h 33.996 c 1.709,0 3.417,-1.71 3.417,-3.42 V 27.017 c 0,-1.71 0,-1.71 -1.708,-3.42 L 35.417,8.21 C 34.51,7.524 33.708,6.5 32,6.5 H 14.917 C 13.208,6.5 11.5,8.21 11.5,9.92 Z"
     id="path4918" />
  <g
     fill="#19c5ff"
     id="g12"
     transform="matrix(2.9757675,0,0,2.9757675,8.2002026,14.193616)"
     style="fill:none;stroke:#19c5ff;stroke-width:0.336048">
    <path
       id="path10"
       style="color:#000000;fill:url(#linearGradient849);stroke:none;-inkscape-stroke:none;fill-opacity:1"
       d="m 4.7207031,9.1308594 c -0.2034161,0 -0.375,0.1676656 -0.375,0.3730469 v 0.00195 0.00195 c 0.00197,0.2037723 0.1712182,0.3711033 0.375,0.3710938 h 6.5156249 c 0.204578,9.955e-4 0.375963,-0.1684687 0.376953,-0.3730469 -9.8e-4,-0.2043313 -0.170668,-0.37402 -0.375,-0.375 z m 0,0.3359375 h 6.5175779 c 0.02287,8.712e-4 0.03895,0.015799 0.03906,0.039063 -1.11e-4,0.022964 -0.0161,0.037221 -0.03906,0.037109 H 4.7207031 c -0.022728,10e-7 -0.038106,-0.014778 -0.039063,-0.037109 v -0.00195 c 0,-0.022619 0.014479,-0.037109 0.039063,-0.037109 z M 7.9941406,2.5058594 c -0.9735992,0 -1.7421875,0.778069 -1.7421875,1.7324218 0,0.5635915 0.2700362,1.0682663 0.6894531,1.3847657 l -0.027344,-0.027344 c 0.017958,0.021549 0.025391,0.041203 0.025391,0.066406 0,0.00762 1.136e-4,0.00976 0,0.015625 l -3.171875,6.7246091 c -0.079271,0.16968 0.00908,0.342207 0.085937,0.505859 l -0.5,1.019531 0.2753907,0.1875 0.7929687,-0.859375 -0.1660156,0.04687 c 0.2906409,0.07627 0.5972675,-0.06469 0.7265625,-0.335937 L 7.9941406,6.5859375 11.005859,12.966797 c 0.127612,0.272219 0.433846,0.416295 0.72461,0.339844 l -0.166016,-0.04883 0.794922,0.859375 0.273438,-0.1875 -0.498047,-1.019532 c 0.07711,-0.163749 0.164739,-0.335832 0.08594,-0.505859 v -0.002 L 9.0488281,5.6796875 c -1.413e-4,-0.00615 0,-0.0086 0,-0.017578 0,-0.025267 0.00905,-0.046797 0.025391,-0.066406 L 9.046875,5.6230469 C 9.4673741,5.306566 9.7363281,4.8018727 9.7363281,4.2382812 9.733282,3.2808158 8.9516078,2.5034151 7.9941406,2.5058594 Z m 0,0.3359375 h 0.00195 c 0.7752766,-0.00198 1.4007814,0.6214655 1.4042969,1.3964843 0,0.4564076 -0.2171404,0.8597159 -0.5566406,1.1152344 l -0.015625,0.011719 -0.011719,0.015625 c -0.063659,0.07639 -0.1035157,0.174517 -0.1035157,0.28125 0,0.02 4.732e-4,0.045274 0.00391,0.076172 l 0.00195,0.027344 3.1972658,6.7792974 c 0.05014,0.108194 0.0286,0.23497 -0.05469,0.320312 l -0.08398,0.08399 0.04687,0.09375 -0.08203,-0.08789 -0.09766,0.02734 c -0.135973,0.03575 -0.274307,-0.0309 -0.333984,-0.158203 L 8.265625,6.3710937 8.2519531,6.3554687 C 8.196128,6.2851705 8.1077711,6.234375 8.0039063,6.234375 H 7.9882812 C 7.8898895,6.2340187 7.7971754,6.2781469 7.7363281,6.3554687 l -0.011719,0.015625 -3.046875,6.4511723 c -0.060781,0.127509 -0.2012618,0.192105 -0.3378907,0.15625 l -0.097656,-0.02539 -0.070312,0.07813 0.039063,-0.08203 -0.083984,-0.08594 C 4.0435324,12.778326 4.0218699,12.652802 4.0722674,12.544927 L 7.269533,5.7675831 7.273443,5.7402391 c 0.00351,-0.031577 0.00195,-0.058125 0.00195,-0.078125 0,-0.1087969 -0.041473,-0.2067994 -0.1035156,-0.28125 l -0.011721,-0.01563 -0.015625,-0.011719 C 6.805949,5.0980156 6.5878906,4.6946888 6.5878906,4.2382812 c 0,-0.7756454 0.609851,-1.3964843 1.40625,-1.3964843 z m 0,0.3320312 c -0.3420055,0 -0.6180341,0.1325442 -0.7988281,0.3359375 -0.180794,0.2033933 -0.2675781,0.4681304 -0.2675781,0.7304688 0,0.2623384 0.086784,0.5270754 0.2675781,0.7304687 0.180794,0.2033933 0.4568226,0.3378907 0.7988281,0.3378906 0.5902843,0 1.0722656,-0.4803047 1.0722657,-1.0683593 0,-0.5888719 -0.4822054,-1.0664063 -1.0722657,-1.0664063 z m 0,0.3359375 c 0.4099387,0 0.7363282,0.3233416 0.7363282,0.7304688 0,0.4059443 -0.3266135,0.7324218 -0.7363282,0.7324218 C 7.736147,4.9726563 7.5645181,4.8821532 7.4453125,4.7480469 7.3261069,4.6139405 7.2636719,4.4278955 7.2636719,4.2402344 c 0,-0.1876612 0.062435,-0.371753 0.1816406,-0.5058594 C 7.5645181,3.6002686 7.736147,3.5097656 7.9941406,3.5097656 Z M 7.9804687,1.828125 c -0.1334635,0 -0.2702159,0.043794 -0.3769531,0.1386719 -0.1067371,0.094877 -0.1757812,0.24389 -0.1757812,0.4140625 v 0.9414062 0.00195 C 7.4285227,3.6265508 7.6761836,3.8738373 7.9785156,3.8730469 8.2813925,3.8746295 8.5304633,3.6270987 8.53125,3.3242188 V 3.3222656 2.3808594 C 8.53125,2.2106869 8.4622059,2.0616743 8.3554688,1.9667969 8.2487316,1.8719194 8.1139323,1.828125 7.9804687,1.828125 Z m 0,0.3359375 c 0.058786,0 0.1148936,0.021398 0.1523438,0.054687 0.03745,0.033289 0.0625,0.075949 0.0625,0.1621094 v 0.9414062 c -3.142e-4,0.1209547 -0.09389,0.2154758 -0.2148438,0.2148438 h -0.00195 C 7.8577974,3.537425 7.7639867,3.4429839 7.7636719,3.3222656 V 2.3808594 c 0,-0.08616 0.02505,-0.1288203 0.0625,-0.1621094 0.03745,-0.033289 0.095511,-0.054687 0.1542968,-0.054687 z m -0.00977,6.3164063 c -0.2665328,0 -0.4863281,0.2202692 -0.4863281,0.4863281 v 1.0195312 c 0.00167,0.2653309 0.2209975,0.4821529 0.4863281,0.4804689 h 0.017578 c 0.264758,8.43e-4 0.4827052,-0.215719 0.4843796,-0.4804689 V 9.984375 8.9667969 c 0,-0.2663763 -0.2210755,-0.4863281 -0.4863282,-0.4863281 z m 0,0.3359375 h 0.015625 c 0.084747,0 0.1503907,0.064767 0.1503907,0.1503906 V 9.984375 c -5.282e-4,0.083513 -0.064924,0.14675 -0.1484376,0.146484 H 7.96875 C 7.8850341,10.131391 7.8208407,10.068091 7.8203125,9.984375 V 8.9667969 c 0,-0.081941 0.066924,-0.1503907 0.1503906,-0.1503906 z M 2.2574903,-2.9214702 c -0.3992338,0 -0.7597639,0.1891401 -1.0278336,0.4574713 -0.26806968,0.2683312 -0.45681494,0.6286282 -0.45681494,1.0278336 v 6.553e-4 l 0.0571019,15.512673 c 4.0326e-4,0.398807 0.18964554,0.758539 0.45747124,1.026521 0.2681228,0.268281 0.6281482,0.457473 1.0271774,0.457473 H 13.738247 c 0.399234,0 0.759764,-0.189141 1.027833,-0.457472 0.26807,-0.268331 0.456815,-0.628628 0.456815,-1.027833 V 4.3094637 c 0,-0.2873205 0.0048,-0.5014848 -0.106983,-0.7252593 C 15.004155,3.3604299 14.837784,3.2099309 14.5508,2.9226104 L 9.367657,-2.2644706 9.348623,-2.2789101 C 9.0961365,-2.4698757 8.7061517,-2.9214702 7.9978686,-2.9214702 Z m 0,0.6720955 h 5.7403783 c 0.4282461,0 0.5851845,0.2270668 0.9228187,0.4883194 l 5.1542637,5.1588581 c 0.286525,0.2868836 0.408038,0.4235082 0.43975,0.4870067 0.03174,0.063546 0.0361,0.1373337 0.0361,0.4246542 v 9.7663883 c 0,0.175435 -0.09808,0.389991 -0.260569,0.552641 -0.16249,0.162649 -0.376913,0.260568 -0.551984,0.260568 H 2.3145923 c -0.1746041,0 -0.3893789,-0.09787 -0.5519847,-0.260568 C 1.6000015,14.465792 1.5020392,14.251156 1.5020392,14.075852 v -6.72e-4 -6.72e-4 L 1.4449373,-1.4361653 c 0,-0.1754358 0.098077,-0.3899914 0.2605684,-0.5526411 0.1624908,-0.1626496 0.3769135,-0.2605683 0.5519846,-0.2605683 z" />
  </g>
</svg>
