<?xml version="1.0" encoding="UTF-8" standalone="no"?>
<svg
   height="64"
   width="64"
   version="1.1"
   id="svg9"
   sodipodi:docname="application-x-rdata.svg"
   inkscape:version="1.1.2 (0a00cf5339, 2022-02-04)"
   xmlns:inkscape="http://www.inkscape.org/namespaces/inkscape"
   xmlns:sodipodi="http://sodipodi.sourceforge.net/DTD/sodipodi-0.dtd"
   xmlns="http://www.w3.org/2000/svg"
   xmlns:svg="http://www.w3.org/2000/svg">
  <defs
     id="defs13" />
  <sodipodi:namedview
     id="namedview11"
     pagecolor="#ffffff"
     bordercolor="#666666"
     borderopacity="1.0"
     inkscape:pageshadow="2"
     inkscape:pageopacity="0.0"
     inkscape:pagecheckerboard="0"
     showgrid="false"
     inkscape:zoom="10.21875"
     inkscape:cx="31.95107"
     inkscape:cy="32"
     inkscape:window-width="1600"
     inkscape:window-height="836"
     inkscape:window-x="0"
     inkscape:window-y="0"
     inkscape:window-maximized="1"
     inkscape:current-layer="svg9" />
  <path
     style="color:#000000;fill:#e5e5e5;fill-opacity:0.2;stroke-width:2;-inkscape-stroke:none"
     d="m 11.67,56.08 c 0,1.71 1.71,3.42 3.417,3.42 h 33.996 c 1.709,0 3.417,-1.71 3.417,-3.42 V 27.017 c 0,-1.71 0,-1.71 -1.708,-3.42 L 35.417,8.21 C 34.51,7.524 33.708,6.5 32,6.5 H 14.917 C 13.208,6.5 11.5,8.21 11.5,9.92 Z"
     id="path1062" />
  <path
     style="color:#000000;fill:#e5e5e5;-inkscape-stroke:none"
     d="M 14.917969,5.5 C 13.729942,5.5 12.657088,6.0628369 11.859375,6.8613281 11.061662,7.6598194 10.5,8.7319796 10.5,9.9199219 v 0.00195 l 0.169922,46.1621091 c 0.0012,1.186757 0.564341,2.257235 1.361328,3.054688 C 12.829121,59.93701 13.900473,60.5 15.087891,60.5 h 33.99414 c 1.188027,0 2.260881,-0.562837 3.058594,-1.361328 C 52.938338,58.340181 53.5,57.26802 53.5,56.080078 v -29.0625 c 0,-0.854999 0.0142,-1.492302 -0.318359,-2.158203 C 52.849079,24.193474 52.353999,23.745624 51.5,22.890625 L 36.076172,7.4550781 36.019531,7.4121094 C 35.26819,6.8438401 34.107686,5.5 32,5.5 Z m 0,2 H 32 c 1.274361,0 1.741373,0.6756979 2.746094,1.453125 l 15.33789,15.351562 c 0.852631,0.853699 1.214226,1.260262 1.308594,1.449219 C 51.487016,25.943004 51.5,26.162579 51.5,27.017578 v 29.0625 c 0,0.522056 -0.291855,1.160524 -0.775391,1.644531 C 50.241074,58.208617 49.603002,58.5 49.082031,58.5 h -33.99414 c -0.519581,0 -1.158701,-0.29123 -1.642578,-0.775391 -0.483878,-0.48416 -0.775391,-1.122865 -0.775391,-1.644531 v -0.002 -0.002 L 12.5,9.9199219 c 0,-0.522056 0.291855,-1.1605238 0.775391,-1.6445313 C 13.758926,7.7913831 14.396998,7.5 14.917969,7.5 Z"
     id="path1064" />
  <path
     style="color:#000000;fill:#e5e5e5;-inkscape-stroke:none"
     d="m 16.933594,21.611328 v 0.5 32.267578 L 26.392578,54.375 V 41.945312 h 0.730469 c 0.223743,10e-7 0.316572,0.02137 0.443359,0.08203 0.126788,0.06066 0.300525,0.184692 0.570313,0.398437 l 0.002,0.002 c 0.213628,0.168157 0.666628,0.737236 1.005859,1.234375 0.339232,0.497139 0.597656,0.931641 0.597656,0.931641 l 0.0098,0.01563 6.808594,9.779297 10.503906,-0.0059 v -0.65039 l -0.07422,-0.121094 c -0.62818,-1.011708 -2.924674,-4.07632 -5.236328,-7.015625 -1.155826,-1.469652 -2.306777,-2.893571 -3.238281,-3.982422 -0.465752,-0.544425 -0.876726,-1.00447 -1.210938,-1.349609 -0.04085,-0.04218 -0.07079,-0.06673 -0.109375,-0.105469 0.710269,-0.30121 1.775535,-0.820438 3.0625,-1.943359 1.903811,-1.66114 3.800315,-4.418428 3.710938,-8.582032 -0.07908,-3.768338 -2.112901,-6.07718 -4.089844,-7.371093 -1.976943,-1.293914 -3.9375,-1.642578 -3.9375,-1.642578 l -0.04297,-0.0078 z m 1,1 h 17.859375 c 0.04299,0.0079 1.766006,0.327137 3.537109,1.486328 1.793256,1.17369 3.566816,3.13079 3.638672,6.554688 v 0.002 c 0.08275,3.854839 -1.624989,6.284808 -3.369141,7.80664 -1.744152,1.521833 -3.492187,2.080079 -3.492187,2.080079 l -1.326172,0.423828 1.292969,0.517578 c -0.0577,-0.02311 0.02882,0.01825 0.126953,0.103515 0.09813,0.08527 0.230115,0.21334 0.384765,0.373047 0.309302,0.319415 0.711918,0.767366 1.169922,1.302735 0.916009,1.070738 2.060535,2.488415 3.210938,3.951172 2.049735,2.606271 3.809361,4.997982 4.609375,6.169921 l -8.494141,0.0059 -6.480469,-9.306641 -0.0098,-0.01563 -0.0098,-0.01367 c -0.01581,-0.02643 -0.263767,-0.443779 -0.611328,-0.953125 -0.357848,-0.524421 -0.767893,-1.106001 -1.212891,-1.457031 -0.278367,-0.220542 -0.497282,-0.392 -0.759765,-0.517578 -0.262483,-0.125578 -0.555882,-0.179687 -0.875,-0.179688 H 25.392578 V 53.375 l -7.458984,0.0039 z m 7.542968,5.882813 v 0.501953 5.902343 l 6.486329,-0.0039 c 0,0 0.796125,0.0046 1.607421,-0.398437 0.811297,-0.403069 1.664063,-1.309848 1.664063,-2.847657 0,-1.563421 -0.861214,-2.458222 -1.681641,-2.828125 -0.820426,-0.369902 -1.617187,-0.318359 -1.617187,-0.318359 l 0.02734,-0.002 z m 1,1.001953 5.498047,0.0039 h 0.01367 c 0,0 0.58861,-0.02263 1.154297,0.232422 0.565687,0.255049 1.091797,0.683046 1.091797,1.916015 0,1.200326 -0.534558,1.667544 -1.109375,1.953125 -0.574817,0.285582 -1.164063,0.292969 -1.164063,0.292969 l -5.484375,0.0039 z"
     id="path6" />
</svg>
