<?xml version="1.0" encoding="UTF-8" standalone="no"?>
<svg
   height="64"
   width="64"
   version="1.1"
   id="svg9"
   sodipodi:docname="application-xhtml+xml.svg"
   inkscape:version="1.1.2 (0a00cf5339, 2022-02-04)"
   xmlns:inkscape="http://www.inkscape.org/namespaces/inkscape"
   xmlns:sodipodi="http://sodipodi.sourceforge.net/DTD/sodipodi-0.dtd"
   xmlns:xlink="http://www.w3.org/1999/xlink"
   xmlns="http://www.w3.org/2000/svg"
   xmlns:svg="http://www.w3.org/2000/svg">
  <defs
     id="defs13">
    <linearGradient
       inkscape:collect="always"
       id="linearGradient846">
      <stop
         style="stop-color:#ff19c5;stop-opacity:1;"
         offset="0"
         id="stop842" />
      <stop
         style="stop-color:#cb19ff;stop-opacity:1"
         offset="1"
         id="stop844" />
    </linearGradient>
    <linearGradient
       inkscape:collect="always"
       xlink:href="#linearGradient846"
       id="linearGradient848"
       x1="10.5"
       y1="33"
       x2="45.071499"
       y2="9.9433546"
       gradientUnits="userSpaceOnUse" />
  </defs>
  <sodipodi:namedview
     id="namedview11"
     pagecolor="#ffffff"
     bordercolor="#666666"
     borderopacity="1.0"
     inkscape:pageshadow="2"
     inkscape:pageopacity="0.0"
     inkscape:pagecheckerboard="0"
     showgrid="false"
     inkscape:zoom="10.21875"
     inkscape:cx="31.95107"
     inkscape:cy="37.382263"
     inkscape:window-width="1600"
     inkscape:window-height="836"
     inkscape:window-x="0"
     inkscape:window-y="0"
     inkscape:window-maximized="1"
     inkscape:current-layer="svg9" />
  <path
     style="color:#000000;fill:#ff19c5;fill-opacity:0.2;stroke-width:2;-inkscape-stroke:none"
     d="m 11.67,56.08 c 0,1.71 1.71,3.42 3.417,3.42 h 33.996 c 1.709,0 3.417,-1.71 3.417,-3.42 V 27.017 c 0,-1.71 0,-1.71 -1.708,-3.42 L 35.417,8.21 C 34.51,7.524 33.708,6.5 32,6.5 H 14.917 C 13.208,6.5 11.5,8.21 11.5,9.92 Z"
     id="path7137" />
  <path
     id="path6"
     style="color:#807f7f;fill:url(#linearGradient848);-inkscape-stroke:none;fill-opacity:1"
     d="M 31.996094,21.558594 C 22.920303,21.556321 15.550781,28.924215 15.550781,38 c 0,9.075785 7.369522,16.443679 16.445313,16.441406 9.072584,-0.0023 16.4375,-7.368828 16.4375,-16.441406 0,-9.072578 -7.364916,-16.439134 -16.4375,-16.441406 z m 0,1 c 8.532233,0.0021 15.4375,6.909178 15.4375,15.441406 0,8.532228 -6.905267,15.439269 -15.4375,15.441406 C 23.46083,53.443544 16.550781,46.535258 16.550781,38 c 0,-8.535258 6.910049,-15.443544 15.445313,-15.441406 z m -0.03125,1.658203 -0.03125,0.0039 0.03711,-0.002 c -0.831882,0.0068 -1.660398,0.093 -2.476562,0.253906 -0.0036,-6.67e-4 -0.01915,0.0028 -0.02344,0.002 -0.05666,-0.0107 -0.14771,-0.0367 -0.310547,0.01758 l 0.06445,-0.01758 c -0.150654,0.02869 -0.267539,0.06695 -0.355468,0.08789 -0.229822,0.05312 -0.426485,0.12107 -0.597657,0.167969 l -0.302734,0.08398 -0.05664,0.308594 c -0.0031,0.01698 0.0016,0.01221 0,0.02734 -0.07694,0.09334 -0.193383,0.224053 -0.173828,0.439453 0.0163,0.18337 0.150178,0.398056 0.279297,0.486328 0.129509,0.08854 0.213846,0.10424 0.193359,0.0957 l 0.08789,0.03516 0.0957,0.002 c 0.203227,0.0036 0.403882,-0.0403 0.591797,-0.117187 -0.0039,0.06421 -0.01,0.0971 -0.002,0.230469 v 0.002 0.002 c 0.01105,0.154668 0.0965,0.350916 0.224609,0.460937 0.08446,0.07254 0.144955,0.08186 0.210938,0.103516 -0.06773,0.02358 -0.160714,0.02955 -0.195313,0.05469 -0.130254,0.09462 -0.116026,0.09461 -0.07227,0.07031 -0.08451,0.04624 -0.175014,0.07901 -0.267578,0.105469 -0.04392,0.0026 -0.151832,0.0014 -0.300782,0.0039 -0.0859,0.0015 -0.215702,0.06072 -0.326172,0.08203 -0.01401,-0.0038 -0.03865,-0.0231 -0.05273,-0.02734 -0.06895,-0.0208 -0.136472,-0.03352 -0.205078,-0.04492 -0.129072,-0.02144 -0.233294,-0.04435 -0.433594,-0.0039 -0.335152,0.05818 -0.605043,0.321415 -0.658203,0.658203 l -0.05859,0.376954 0.345703,0.15625 c 0.01309,0.0059 0.01083,-0.0012 0.02344,0.0039 -0.0065,0.03076 -0.02274,0.04703 -0.02539,0.07813 -0.206916,0.01015 -0.406899,0.05594 -0.507812,0.117187 -0.128523,0.078 -0.215333,0.129033 -0.199219,0.123047 h -0.002 c -0.06152,0.02315 -0.235039,0.05339 -0.445313,0.13086 -0.194643,0.07171 -0.464538,0.284284 -0.568359,0.599609 -0.02322,0.0066 -0.02518,0.0032 -0.05469,0.01367 l -0.0059,0.002 h -0.0039 c -0.03511,0.01317 -0.129789,0.02833 -0.25,0.06055 0.03529,-0.05401 0.09679,-0.06478 0.113281,-0.132813 l 0.06445,-0.273437 -0.197265,-0.197266 c -0.118599,-0.118608 -0.254151,-0.1482 -0.330078,-0.15625 -0.07593,-0.008 -0.11635,-0.0014 -0.146485,0.002 -0.04711,0.0052 -0.0443,0.0055 -0.03516,0.0059 -0.05647,-0.189912 -0.146107,-0.395023 -0.464844,-0.478516 l -0.0059,-0.002 -0.0059,-0.002 c -0.08899,-0.02095 -0.122778,0.01664 -0.189453,0.03125 -0.03621,-0.02669 -0.074,-0.04092 -0.125,-0.06055 -0.0042,-0.01168 0.0024,-0.0343 -0.002,-0.04492 -0.09088,-0.221625 -0.207849,-0.320808 -0.318359,-0.410156 l -0.314453,0.388672 -0.332032,-0.373047 c -0.155241,0.137992 -0.268342,0.266981 -0.373046,0.373047 -0.01562,0.01583 -0.0418,0.04041 -0.05664,0.05469 l -0.0293,0.02734 h -0.580078 l 0.285156,0.285156 -0.06836,0.06445 0.134765,0.117188 c -0.02139,0.03579 -0.04625,0.07142 -0.0293,0.05078 -0.0042,0.0051 -0.05178,0.02225 -0.169922,0.169922 l -0.002,0.002 -0.002,0.002 c -0.0013,0.0016 -0.126052,0.146737 -0.222656,0.320313 -0.0483,0.08679 -0.109688,0.177801 -0.11914,0.375 -0.0047,0.0986 0.01375,0.243493 0.107421,0.373047 0.09367,0.129553 0.243149,0.204343 0.355469,0.228515 l 0.0098,0.002 0.0078,0.002 c 0.228164,0.04026 0.321601,-0.02872 0.400391,-0.06836 0.07879,-0.03964 0.135952,-0.08069 0.191406,-0.125 0.02464,-0.01969 0.04564,-0.04359 0.06836,-0.06445 0.101286,0.147473 0.207713,0.317887 0.332031,0.345703 0.179498,0.04016 0.302897,0.01228 0.416015,-0.02344 v -0.002 c 0.207675,-0.06621 0.294604,-0.150378 0.394532,-0.226562 l 0.36914,-0.01563 v -0.230469 c 0.0846,0.01088 0.169875,0.0502 0.267578,0.04492 0.0041,-2.22e-4 0.0095,-0.0037 0.01367,-0.0039 -5.66e-4,7.52e-4 -0.0034,0.0032 -0.0039,0.0039 -0.03589,0.04786 -0.03393,0.04369 -0.0332,0.04297 -0.04819,0.01462 -0.113196,0.02335 -0.21875,0.128906 -0.07137,0.07137 -0.07234,0.08566 -0.0918,0.117188 -0.09402,-0.002 -0.186655,-0.01971 -0.320312,0.06445 l -0.220704,0.138672 -0.01367,0.259765 c -0.008,0.170161 0.01925,0.276731 0.02734,0.353516 -0.08789,0.08082 -0.189065,0.172977 -0.248047,0.210937 -0.06277,0.0068 -0.195331,0.02379 -0.330078,0.08984 h -0.002 l -0.002,0.002 c -0.140583,0.07029 -0.200782,0.133815 -0.259766,0.183594 -0.05898,0.04978 -0.109562,0.08671 -0.101562,0.08203 v -0.002 c -0.104311,0.06085 -0.280561,0.140544 -0.464844,0.302734 -0.0996,0.08766 -0.127734,0.278391 -0.197265,0.429688 -0.05123,-0.03605 -0.08359,-0.07864 -0.175782,-0.109375 l -0.04687,-0.01563 -0.04687,-0.0059 c -0.07247,-0.0094 -0.151653,0.02126 -0.230468,0.04297 -0.07125,-0.03595 -0.15199,-0.08529 -0.314454,-0.11914 l -0.01563,-0.0039 -0.01563,-0.002 c -0.154707,-0.02179 -0.286377,-0.0087 -0.359375,-0.002 -0.073,0.0068 -0.09199,0.0088 -0.140625,0.002 l -0.160156,-0.02344 -0.142578,0.07617 c -0.155313,0.08174 -0.18947,0.146374 -0.246094,0.21289 -0.05204,-0.03458 -0.05022,-0.06358 -0.142578,-0.08789 l -0.0625,-0.01563 h -0.470703 l -0.132812,0.294922 c -0.36177,0.804192 -0.63472,1.645042 -0.833985,2.503906 -9.79e-4,0.0042 -0.0049,0.0075 -0.0059,0.01172 -0.02123,0.03099 -0.07687,0.09964 -0.107422,0.240234 v 0.0039 0.0039 c -0.04407,0.220958 -0.03347,0.24985 0,0.08203 l -0.119141,0.599609 h 0.609375 c -0.05147,0 -0.03587,-0.0016 0.0293,0.0059 0.03042,0.0035 0.117751,-0.02849 0.177735,-0.0332 l -0.25,0.275391 -0.490235,-0.07031 c -0.08758,0.610794 -0.1714,1.223865 -0.1714,1.898205 v 0.002 0.0039 c 0.0095,0.839859 0.09688,1.676033 0.259766,2.5 l -0.002,-0.0039 c 0.02574,0.136418 0.0517,0.275765 0.08594,0.427734 0.165381,0.761549 0.395009,1.509322 0.685547,2.232422 0.0016,0.0041 3.94e-4,0.0019 0.002,0.0059 5.37e-4,0.0013 0.0014,0.0026 0.002,0.0039 0.04891,0.123424 0.09047,0.184395 0.08594,0.173828 0.329882,0.783724 0.733769,1.535732 1.207031,2.242188 l 0.002,0.002 0.002,0.002 c -0.04301,-0.06286 -0.02339,0.01095 0.08008,0.162109 8e-4,0.0012 0.0012,0.0027 0.002,0.0039 0.0016,0.0023 3.51e-4,-3.35e-4 0.002,0.002 0.412377,0.606872 0.873179,1.181506 1.375,1.716796 0.09428,0.100565 0.185163,0.185208 0.259765,0.259766 0.632926,0.636631 1.324125,1.212956 2.064453,1.720703 l 0.0039,0.002 0.804687,0.53125 0.199219,-0.630859 c 0.04478,-0.141813 0.02755,-0.245794 0.02344,-0.283203 -0.0041,-0.03741 0.0028,-0.01838 -0.0039,0.0332 l -0.0039,0.02148 c 0.01559,-0.0896 0.01073,-0.168536 0.0078,-0.201172 -0.0066,0.0843 0.04047,0.04243 0.07813,-0.230468 l 0.002,-0.0078 v -0.0078 c 0.02092,-0.191758 -0.0072,-0.308967 -0.0293,-0.4375 -0.02212,-0.128534 -0.0502,-0.248126 -0.0625,-0.304688 v -0.002 c -0.0372,-0.16597 -0.105699,-0.271246 -0.136719,-0.326172 0.03192,-0.05619 0.07471,-0.08613 0.0625,-0.263672 v -0.002 c -0.0073,-0.09911 -0.04458,-0.123085 -0.08203,-0.189453 -0.003,-0.0495 -0.004,-0.09899 0,-0.148437 v -0.002 c 0.01766,-0.22607 -1.28e-4,-0.402358 0.002,-0.529296 l -0.002,0.01758 c 0.0065,-0.121491 0.002,-0.246391 0.002,-0.275391 0,-0.158783 -0.05437,-0.299549 -0.07617,-0.353516 -0.0218,-0.05397 -0.0088,-0.02411 -0.0078,-0.0078 -0.0059,-0.174812 0.05217,-0.378268 -0.0059,-0.71875 v -0.002 l -0.002,-0.002 c -0.0054,-0.03041 -0.01174,-0.144289 -0.02148,-0.267578 -0.0097,-0.12329 0.01539,-0.242577 -0.117188,-0.47461 l -0.002,-0.0039 -0.002,-0.002 c -0.119135,-0.202974 -0.225674,-0.267186 -0.34375,-0.361328 -0.118076,-0.09414 -0.230319,-0.172384 -0.339844,-0.234375 -0.164035,-0.09372 -0.284373,-0.09555 -0.345703,-0.103516 -0.06133,-0.008 -0.06599,-0.0203 -0.0098,0.0078 h -0.002 c -0.08237,-0.04068 -0.23139,-0.12477 -0.349609,-0.208985 -0.09837,-0.07008 -0.134343,-0.123364 -0.134766,-0.107422 0.0113,-0.06593 0.04162,-0.107962 -0.02344,-0.261718 -0.09262,-0.218908 -0.237959,-0.314137 -0.3125,-0.371094 -0.07454,-0.05696 -0.09098,-0.08431 -0.06445,-0.04492 -0.101591,-0.160834 -0.183134,-0.47663 -0.410157,-0.826172 h -0.002 c -0.03963,-0.06068 -0.09434,-0.251108 -0.294922,-0.474609 l -0.002,-0.002 -0.002,-0.002 c -0.09018,-0.09877 -0.119134,-0.108642 -0.150391,-0.128906 0.01768,-0.01785 0.02781,-0.02137 0.04883,-0.04687 0.06047,-0.07339 0.15039,-0.206393 0.15039,-0.40039 0,-0.209196 -0.08925,-0.271707 -0.15625,-0.347657 0.02545,-0.03736 0.055,-0.07345 0.109375,-0.189453 l 0.002,-0.0039 v -0.0039 c 0.01943,-0.04319 0.033,-0.06838 0.0332,-0.07227 0.02733,-0.02233 0.08599,-0.06947 0.146485,-0.142578 v -0.002 c 0.141492,-0.171837 0.112001,-0.210171 0.109375,-0.257813 0.07966,-0.0363 0.298107,-0.122929 0.392578,-0.394531 l 0.01563,-0.04492 0.0059,-0.04492 c 0.04484,-0.296941 0.04484,-0.599543 0,-0.896484 l -0.0039,-0.02344 -0.0059,-0.02344 c -0.0131,-0.05239 -0.03248,-0.05096 -0.05078,-0.08984 0.02787,-0.02188 0.09196,-0.03169 0.111329,-0.05078 0.06818,-0.0672 0.105585,-0.123351 0.138671,-0.175781 0.06617,-0.104861 0.110611,-0.199014 0.128907,-0.232422 l 0.0098,-0.01758 0.0078,-0.01758 0.01172,-0.0039 0.01367,-0.0078 c 0.007,-0.0036 0.07709,-0.02397 0.0957,-0.0293 0.01001,0.116558 0.03073,0.25342 0.162109,0.367187 0.144982,0.125549 0.351088,0.136162 0.486328,0.107422 0.164549,-0.03691 0.296633,-0.130482 0.365234,-0.226562 0.04566,-0.06395 0.05343,-0.13506 0.07227,-0.203125 0.06797,0.04256 0.12959,0.09164 0.222656,0.113281 l 0.0098,0.002 0.01172,0.002 c 0.175983,0.0326 0.249573,-0.0063 0.30664,-0.02734 0.01696,0.01724 0.02194,0.02552 0.04687,0.04687 0.06756,0.05784 0.192681,0.15625 0.402344,0.15625 h 0.0059 0.0039 c 0.2315,-0.0049 0.268792,-0.10236 0.347656,-0.181641 l 0.101562,0.142578 0.169922,0.02734 c 0.03765,0.04806 0.071,0.104795 0.105469,0.130859 0.06212,0.04697 0.04897,0.03742 0.0078,0 0.141255,0.12903 0.250729,0.175013 0.320312,0.21875 -0.06028,-0.03988 -0.06791,-0.0654 -0.04102,-0.02148 0.02843,0.04643 0.08116,0.145467 0.175782,0.255859 l 0.01758,0.01953 0.01758,0.01758 c 0.209055,0.199346 0.473119,0.330389 0.757812,0.378906 0.31628,0.0568 0.487937,0.0164 0.394532,-0.0039 l 0.0332,0.0078 0.0332,0.002 c 0.107646,0.0089 0.208491,0.05307 0.289062,0.125 l 0.01563,0.01367 0.01563,0.01172 c 0.09278,0.07015 0.07061,0.046 0.05859,0.01367 -0.01416,0.05943 -0.05419,0.114528 0.02148,0.333984 0.07664,0.219351 0.15435,0.243238 0.214843,0.285156 l -0.0293,0.0918 0.08594,0.175781 c 0.09325,0.192722 0.244859,0.277232 0.324219,0.31836 0.07936,0.04113 0.117099,0.05778 0.115234,0.05664 0.201068,0.122866 0.349022,0.12815 0.357422,0.13086 l -0.07031,-0.0293 c 0.13927,0.06964 0.242562,0.0591 0.316407,0.05273 0.03736,0.0296 0.09863,0.0849 0.234375,0.134766 h 0.002 l 0.002,0.002 c 0.05674,0.02013 0.08612,0.02498 0.119141,0.0332 0.03233,0.08137 0.04513,0.176496 0.248046,0.275391 7.98e-4,3.88e-4 -8.01e-4,0.0016 0,0.002 0.170815,0.08307 0.24015,0.05835 0.294922,0.05664 0.05589,-0.0017 0.09365,-0.0066 0.125,-0.0098 0.0627,-0.0064 0.120085,0.02119 -0.01172,-0.01758 l 0.03906,0.01172 0.03906,0.0059 c 0.04114,0.0053 0.184331,0.08594 0.478515,0.08594 h 0.13086 c -0.002,5.86e-4 0.074,0.02667 0.205078,0.121094 0.133471,0.09615 0.302493,0.245838 0.570312,0.345703 l 0.0039,0.002 0.0039,0.002 c 0.06753,0.02373 0.07326,0.02351 0.111328,0.03516 0.0016,0.0039 0.0023,0.0038 0.0039,0.0078 0.02913,0.07469 0.05064,0.189382 0.05078,0.177735 0.0058,0.104748 0.01252,0.06758 -0.0625,0.146484 -0.07502,0.0789 -0.26212,0.20495 -0.433593,0.458984 -0.07949,0.116892 -0.09242,0.172692 -0.119141,0.232422 -0.02672,0.05973 -0.05633,0.111446 -0.04687,0.09766 v 0.002 h -0.002 c -0.008,0.01185 -0.02451,0.0029 -0.148438,0.15039 -0.122462,0.145789 -0.194281,0.411117 -0.183593,0.648438 0.0054,0.129189 0.04288,0.187756 0.07227,0.246094 -0.01144,0.120697 -0.02798,0.240055 -0.05859,0.357421 l -0.002,0.0059 -0.002,0.0059 c -0.06445,0.273858 -0.02736,0.404027 -0.0059,0.279297 v 0.002 0.002 c -0.01074,0.06444 -0.0046,0.113328 -0.002,0.16211 0.0087,-0.04659 0.01141,-0.03871 -0.0098,0 -0.02541,0.04645 -0.06237,0.108069 -0.09961,0.175781 l -0.002,0.002 -0.002,0.002 c -0.07559,0.141313 -0.117185,0.236506 -0.132812,0.259766 -0.01563,0.02326 0.02337,-0.0061 -0.0098,0.0059 -0.136121,0.04599 -0.324388,0.10397 -0.496093,0.164063 h -0.002 -0.002 c 6.67e-4,-2.4e-4 -0.126962,0.02305 -0.291015,0.09961 l -0.002,0.002 c -0.10351,0.04878 -0.27204,0.120108 -0.447266,0.230469 -0.175226,0.110361 -0.3993,0.265421 -0.486328,0.591797 -0.07283,0.271244 0.0035,0.481936 0.03711,0.59375 0.02443,0.08119 0.02326,0.08 0.02539,0.08594 -0.0042,0.0031 -0.0073,0.0062 -0.03906,0.03516 -0.04443,0.04042 -0.100874,0.08582 -0.173828,0.173828 -0.02956,0.03547 -0.227033,0.170259 -0.33789,0.484375 l -0.002,0.0039 -0.002,0.0059 c -0.0053,0.01586 -0.0015,0.06724 -0.0078,0.0918 -0.01417,0.02735 -0.0313,0.05868 -0.04687,0.08984 l -0.0039,0.0098 -0.0059,0.0098 c -0.04794,0.107884 -0.01883,0.118367 -0.01758,0.177735 -0.0145,0.01899 -0.03065,0.04439 -0.06836,0.08398 -0.05269,0.05532 -0.160404,0.08266 -0.0078,0.03906 0.0083,-0.0025 -0.02841,0.0021 -0.136719,-0.02734 -0.109801,-0.02987 -0.265984,-0.123255 -0.568359,-0.06445 l -0.492187,0.0957 0.0957,0.492187 c 0.03961,0.201994 0.171763,0.299363 0.265625,0.375 0.0079,0.03655 0.02271,0.06559 0.03711,0.101563 -0.02461,0.004 -0.04254,0.0068 -0.06836,0.01172 0.03251,-0.0062 -0.08353,0.0063 -0.19336,0.01953 -0.05492,0.0066 -0.114907,0.01397 -0.191406,0.03516 -0.0765,0.02119 -0.191259,0.02324 -0.337891,0.21875 l -0.002,0.0039 -0.0039,0.0059 c -0.06808,0.09531 -0.05719,0.15996 -0.06836,0.236328 -0.07443,-0.0024 -0.118149,-0.03475 -0.21875,0.0078 l -0.273438,0.115235 -0.0293,0.294921 c -0.02445,0.244163 0.06638,0.34361 0.103516,0.402344 0.03713,0.05873 0.05983,0.09718 0.0332,0.04687 l 0.08789,0.164063 0.173828,0.06836 c 0.684844,0.267192 1.415837,0.600573 2.240234,0.769531 h 0.002 c 0.410689,0.08329 0.817016,0.126994 1.205078,0.171875 0.511555,0.05806 1.030392,0.08594 1.552735,0.08594 0.980297,0.01837 1.960132,-0.06896 2.921875,-0.259766 l 0.0059,-0.002 h 0.0059 c 1.697356,-0.380305 3.306841,-1.082967 4.740234,-2.068359 0.740328,-0.507748 1.431528,-1.084073 2.064453,-1.720703 l 1.496094,-1.496094 -1.3125,0.3125 c 0.02241,-0.07415 0.04307,-0.114254 0.05859,-0.21875 0.01537,-0.10351 0.0262,-0.230177 -0.01953,-0.386719 -0.01049,-0.0359 -0.06073,-0.06059 -0.08008,-0.09766 0.0015,-0.112202 0.0089,-0.238986 0.002,-0.314453 -0.01118,-0.121406 -0.02189,-0.238871 0,-0.523438 V 44.9968 44.989 c 0.01551,-0.337405 -0.07974,-0.605893 -0.146484,-0.800781 -0.06188,-0.180691 -0.09107,-0.297027 -0.09375,-0.423828 0.03457,-0.03986 0.107336,-0.106572 0.201172,-0.214844 l 0.0293,-0.03516 0.02344,-0.03906 c 0.30037,-0.507896 0.495634,-0.910013 0.564453,-1.435547 l 0.01563,-0.113281 -0.02734,-0.08203 c 0.01379,-0.07422 0.04452,-0.167156 -0.0293,-0.328125 v -0.002 c -0.12743,-0.277551 -0.233346,-0.567683 -0.490235,-0.863281 l -0.002,-0.002 -0.002,-0.002 c -0.156363,-0.17591 -0.29194,-0.282428 -0.3125,-0.308593 l -0.0039,-0.0059 -0.0039,-0.0039 c -0.0013,-0.0015 -0.01407,-0.02469 -0.02344,-0.03906 0.01259,-0.02948 0.02018,-0.03753 0.03516,-0.0918 v -0.002 c 0.05763,-0.213232 0.01668,-0.310518 0.0098,-0.373046 -0.002,-0.0179 -0.0015,-0.0049 -0.002,-0.01563 0.0066,-0.0092 0.008,-0.01044 0.01563,-0.02148 0.05727,-0.08247 0.195043,-0.208468 0.158203,-0.52539 v -0.002 C 41.74747,38.974081 41.631866,38.883591 41.521484,38.771484 41.411103,38.659378 41.296981,38.55512 41.072266,38.5 h -0.002 c -0.267836,-0.06505 -0.35725,-0.02449 -0.466796,-0.0078 -0.01431,-0.02103 0.01052,0.007 -0.02344,-0.04883 -0.08433,-0.138772 -0.310205,-0.403678 -0.636719,-0.451172 l -0.002,-0.002 h -0.002 c -0.593216,-0.08239 -1.083201,0.173093 -1.345703,0.28711 l 0.02539,-0.0098 c -0.05239,0.0193 -0.150132,0.02738 -0.277344,0.04883 0.05765,-0.0046 -0.08105,-0.02696 -0.271485,-0.06836 l -0.0332,-0.0078 -0.0332,-0.002 c -0.332967,-0.02776 -0.541234,0.07395 -0.621094,0.08789 -0.300226,0.04904 -0.388309,0.12891 -0.375,0.144531 0.01494,-6e-5 0.03656,0.0101 -0.01563,-0.03125 -0.07438,-0.05894 -0.161294,-0.155449 -0.298828,-0.263672 -0.146348,-0.114699 -0.208815,-0.134769 -0.25,-0.166015 l -0.002,-0.002 c -0.113832,-0.08848 -0.191236,-0.107535 -0.253906,-0.128906 -0.01576,-0.07222 -0.02412,-0.170458 -0.08984,-0.330078 v -0.002 c -0.171563,-0.411752 -0.444361,-0.497096 -0.523437,-0.576172 -0.09692,-0.09692 -0.165682,-0.140879 -0.226563,-0.1875 0.01782,-0.05782 0.04852,-0.04711 0.04102,-0.15625 -0.009,-0.132302 -0.06771,-0.144996 -0.117188,-0.220703 0.03101,-0.04275 0.05694,-0.06034 0.09375,-0.173828 v -0.002 c 0.03256,-0.10312 0.01547,-0.133098 0.0098,-0.1875 -0.01391,0.04834 -0.01642,0.04582 0.04102,-0.04492 0.06402,-0.101147 0.160382,-0.315439 0.138671,-0.544922 v -0.002 -0.002 c -0.01039,-0.103916 -0.03294,-0.123222 -0.05469,-0.169922 0.02699,-0.07155 0.05639,-0.144692 0.04883,-0.238281 -0.01506,-0.15145 -0.08449,-0.194558 -0.152344,-0.275391 0.01024,0.09057 -4.23e-4,0.07425 0.09766,-0.103516 l 0.002,-0.002 v -0.002 c 0.06001,-0.111468 0.06458,-0.166461 0.07422,-0.212891 3.63e-4,-2.72e-4 0.0016,-0.0017 0.002,-0.002 0.05204,-0.03919 0.175135,-0.127495 0.259765,-0.289062 l 0.0039,-0.0098 0.0059,-0.0098 c 0.09709,-0.207129 0.133185,-0.322905 0.05664,-0.199219 -0.04263,0.07036 0.05104,-0.01943 0.19336,-0.177735 0.06743,-0.0744 0.08846,-0.121137 0.115234,-0.169921 0.03669,-0.0078 0.06017,-0.009 0.132813,-0.04102 0.337327,-0.14852 0.607339,-0.416579 0.755859,-0.753906 l 0.05859,-0.136719 -0.01367,-0.08984 c 0.01807,-0.02058 0.03773,-0.04063 0.0918,-0.130859 v -0.002 c 0.07542,-0.124619 0.09957,-0.205645 0.11914,-0.253907 0.01976,-0.0054 0.03157,-0.0079 0.123047,-0.03711 0.122959,-0.03931 0.334031,-0.143407 0.476563,-0.339844 0.06077,0.01266 0.115671,0.05469 0.18164,0.05469 h 0.03516 l 0.03516,-0.0039 c 0.06792,-0.0096 0.118123,0.07819 0.46875,-0.01172 l 0.0098,-0.002 0.0078,-0.002 c 0.196065,-0.05809 0.239657,-0.123849 0.289063,-0.16211 0.04941,-0.03826 0.09377,-0.05923 0.0293,-0.0293 l -0.0293,0.01172 c 0.07162,-0.02791 0.140225,-0.06167 0.207031,-0.09961 l 0.03711,-0.01953 0.109375,-0.05273 0.0098,-0.0039 0.01172,-0.0059 c 0.06186,-0.02694 0.133724,-0.05779 0.199218,-0.08203 0.07267,-0.02689 0.15589,-0.03125 0.07813,-0.03125 h 0.03711 l 0.03711,-0.0039 c 0.04104,-0.006 0.232486,0.04034 0.566406,0.002 l -0.05859,0.002 h 0.708984 c -0.06428,0.114193 -0.15521,0.221394 -0.105469,0.388672 l 0.01953,0.07031 0.04102,0.06055 c 0.102916,0.157725 0.236807,0.293568 0.394531,0.396485 l 0.02344,0.01563 0.02539,0.01172 c 0.273588,0.136808 0.379232,0.06142 0.447266,0.05273 0.06803,-0.0087 0.107686,0.02134 -0.03125,-0.01953 l -0.02734,-0.0098 c 0.08026,0.02867 0.178116,0.02898 0.25586,0.02734 0.06155,0.01448 0.119735,0.04124 0.175781,0.07031 0.04287,0.09391 0.157394,0.302707 0.400391,0.392578 0.174643,0.0624 0.26171,0.04025 0.310546,0.02734 0.01511,0.0046 0.06822,0.02741 0.164063,0.07227 0.09682,0.04531 0.263425,0.128586 0.515625,0.08984 0.144124,-0.02073 0.315829,-0.09296 0.423828,-0.220704 0.111556,-0.131944 0.144062,-0.271544 0.15625,-0.365234 0.0058,-0.04485 -6.29e-4,-0.0207 0.002,-0.05469 L 44.513672,32.25 44.236328,31.712891 c -0.136781,-0.265745 -0.285064,-0.41791 -0.341797,-0.517579 -0.20989,-0.366642 -0.426608,-0.747727 -0.689453,-1.11914 l -0.878906,-1.240235 -0.01172,0.644532 c 0.06497,0.02475 -0.0081,-0.03632 -0.199219,-0.138672 l 0.01172,0.0059 C 42.021136,29.287647 41.926151,29.2106 41.84375,29.121135 41.82081,29.085445 41.77378,29.002734 41.666016,28.88676 41.544938,28.756463 41.283138,28.585762 40.988281,28.623088 l -0.226562,0.02734 -0.04492,0.06836 c -0.0477,0.01817 -0.09948,0.02443 -0.144531,0.04883 -0.08335,0.04243 -0.09897,0.0728 -0.134766,0.111328 -0.0245,-0.0022 -0.01898,-0.0059 -0.05859,-0.0059 -0.101567,0 -0.260027,-0.04072 -0.511719,0.01172 -0.149982,0.02903 -0.290274,0.09552 -0.404296,0.197265 l -0.08594,0.07813 c 0.01948,-0.182689 0.02918,-0.367107 0,-0.548828 l -0.0098,-0.05664 L 39.345703,28.5 c -0.01739,-0.04234 -0.06047,-0.06731 -0.08203,-0.107422 0.107183,-0.0381 0.229152,-0.0794 0.265625,-0.113281 0.05439,-0.05052 0.08664,-0.09011 0.115234,-0.125 0.02436,-0.02971 0.04128,-0.05195 0.05469,-0.06836 l 0.189453,-0.125 c 0.0074,-0.0044 0.05211,-0.02456 0.103515,-0.04883 0.0029,-0.0012 0.0011,-0.0027 0.0039,-0.0039 0.142867,-0.06158 0.195519,-0.136291 0.222656,-0.169922 0.03897,-0.03542 0.03457,-0.03811 0.0078,-0.0059 l 0.447266,-0.408203 -0.5,-0.361328 c -0.114102,-0.08263 -0.208039,-0.137047 -0.248047,-0.166016 l -0.933594,-0.673828 0.05469,0.43164 c -0.05176,-0.08162 -0.106672,-0.135633 -0.150391,-0.169921 -0.0904,-0.0709 -0.146287,-0.09305 -0.173828,-0.107422 -0.0336,-0.03378 -0.04218,-0.05479 -0.08398,-0.08008 v -0.0078 c -0.0013,-0.0015 0.01628,0.01402 0.0059,0 -5.78e-4,-7.78e-4 -0.0053,-0.005 -0.0059,-0.0059 v -0.189453 l -0.265625,-0.142579 c -0.329689,-0.17531 -0.654188,-0.355954 -1.035156,-0.517578 -0.657684,-0.277932 -1.356021,-0.515201 -2.066407,-0.689453 h -0.002 c -0.357667,-0.09011 -0.700802,-0.190991 -1.11914,-0.257812 h -0.002 -0.002 C 34.040241,24.370377 33.910966,24.337013 33.75,24.306641 l -0.04687,-0.0078 h -0.35938 c -0.439855,-0.04425 -0.872075,-0.08203 -1.347656,-0.08203 z m 0.01367,1.001953 h 0.0293 0.0078 c 0.425149,0.0011 0.822319,0.03211 1.257812,0.07617 l 0.02539,0.0039 h 0.314453 c 0.110497,0.02252 0.229137,0.05302 0.378906,0.07617 0.346136,0.05529 0.654862,0.144477 1.035157,0.240234 h 0.002 0.002 c 0.6546,0.160466 1.304292,0.382115 1.916016,0.640625 v -0.002 c 0.03525,0.01496 0.0707,0.03711 0.105468,0.05273 -0.0194,0.0085 -0.02021,0.006 -0.04297,0.01758 -0.113416,0.05792 -0.315618,0.222999 -0.355469,0.46875 -0.01394,0.08647 0.01696,0.182983 0.04492,0.271484 -0.01544,0.04853 -0.03192,0.07258 -0.04297,0.134766 l -0.03516,0.1875 0.09961,0.162109 c 0.09762,0.158869 0.312673,0.299932 0.496094,0.320313 0.18342,0.02038 0.307411,-0.02737 0.398437,-0.06445 0.127304,-0.05186 0.13453,-0.06201 0.150391,-0.07617 0.0035,0.02158 -0.02066,0.04582 -0.01367,0.06445 l 0.03711,0.09961 c -0.04606,0.06979 -0.125463,0.114576 -0.142578,0.1875 l -0.04102,0.173828 0.07813,0.160156 c 0.08235,0.167647 0.239779,0.276394 0.353515,0.322266 0.113737,0.04587 0.198506,0.05463 0.263672,0.0625 0.09333,0.01127 0.06901,0.0023 0.04883,-0.01172 0.01514,0.01608 0.02751,0.03393 0.03906,0.05273 4.88e-4,0.0052 -4.12e-4,0.01043 0,0.01563 -0.03647,-6.28e-4 -0.03702,4.89e-4 -0.08203,0 h -0.0039 -0.136718 c -0.141446,-0.0091 -0.331553,-0.05981 -0.578125,-0.07813 -0.123286,-0.0092 -0.270419,-0.01084 -0.435547,0.04492 -0.165129,0.05576 -0.33538,0.185722 -0.4375,0.347656 l -0.08594,0.136719 0.0098,0.160156 c 0.01561,0.265474 0.03281,0.349807 0.01367,0.425781 0.03111,-0.119964 0.0239,-0.05626 -0.04102,0.02148 -0.06444,0.07718 -0.241875,0.182413 -0.220703,0.548829 0.01167,0.193487 0.08491,0.273594 0.123047,0.324218 0.02911,0.03865 0.04552,0.056 0.0625,0.07422 -0.0019,0.0612 -0.027,0.08787 0.02539,0.199219 l 0.0059,0.01172 0.0059,0.0098 c 0.04733,0.0892 0.176017,0.1483 0.289063,0.210938 -0.03999,0.01672 -0.04925,0.0086 -0.0957,0.03516 h -0.002 c -0.212067,0.122355 -0.301575,0.30214 -0.351562,0.412109 -0.04999,0.10997 -0.07786,0.17856 -0.07617,0.175782 l -0.002,0.0039 v 0.002 c -0.0088,0.01499 -0.05035,0.04926 -0.128906,0.179687 -0.07855,0.130428 -0.133889,0.36943 -0.101563,0.56836 l 0.03516,-0.28125 c -0.04791,0.108814 -0.133373,0.196231 -0.242187,0.24414 h -0.002 c 0.04736,-0.02105 0.02073,-0.0082 -0.03906,0.0059 -0.05853,0.01377 -0.161849,0.03161 -0.294922,0.125 -0.0015,0.0011 -4.34e-4,8.8e-4 -0.002,0.002 -0.196979,0.139235 -0.200534,0.22739 -0.226562,0.275391 -0.02623,0.04837 -0.04156,0.06492 -0.02344,0.04492 v 0.002 c -0.03745,0.04173 -0.147761,0.0748 -0.300781,0.316406 l -0.002,0.0039 -0.002,0.0039 c -0.131876,0.216697 -0.106542,0.250804 -0.0918,0.25 -0.04584,0.03384 -0.142331,0.100216 -0.230469,0.232422 l -0.002,0.002 v 0.002 c -0.104095,0.160152 -0.09554,0.223293 -0.107422,0.271485 -0.01188,0.04819 -0.02895,0.0747 0.0039,0.01367 -0.06231,0.110796 -0.265754,0.306435 -0.222656,0.705078 0.01426,0.128178 0.0769,0.157674 0.136719,0.238281 -0.02176,0.06053 -0.05947,0.05646 -0.05664,0.140625 0.0043,0.124676 0.04099,0.191785 0.06836,0.253906 -0.03132,0.03876 -0.08575,0.09028 -0.132813,0.251953 -2.7e-4,9.27e-4 2.65e-4,10e-4 0,0.002 -0.02231,0.07787 -0.0098,0.108646 -0.0078,0.164062 -5.42e-4,-0.0027 0.0079,-0.02378 -0.02344,0.02344 -0.04828,0.07285 -0.145525,0.189849 -0.15625,0.425781 v 0.0039 0.002 c -0.0061,0.186024 0.08215,0.326332 0.136719,0.392578 -0.02492,0.07179 -0.07143,0.08188 -0.04102,0.226563 0.06925,0.32934 0.236436,0.410501 0.34375,0.5 0.10808,0.09014 0.209611,0.170548 0.205078,0.166015 0.223804,0.223802 0.345363,0.344886 0.306641,0.251954 -0.01097,-0.02599 0.0142,0.06545 0.04102,0.18164 0.02709,0.117379 0.03902,0.283174 0.234375,0.478516 l 0.0039,0.0039 0.002,0.0039 c 0.149711,0.144543 0.271954,0.168107 0.335938,0.191407 0.06398,0.0233 0.07657,0.03832 0.03516,0.0059 l 0.002,0.002 h 0.002 c 0.144837,0.111723 0.197157,0.125709 0.246094,0.164063 v -0.002 c 0.02453,0.0193 0.142147,0.140661 0.294922,0.261719 0.152775,0.121059 0.378607,0.284031 0.714843,0.259766 l 0.0293,-0.002 0.03125,-0.0059 c 0.342942,-0.06725 0.442717,-0.169717 0.394532,-0.162109 h 0.0039 l 0.002,-0.002 c 0.23304,-0.0395 0.38645,-0.07457 0.373047,-0.07617 h 0.002 c 0.07199,0.02593 0.203715,0.09969 0.486328,0.08203 l 0.03516,-0.002 0.0332,-0.0059 c 0.07124,-0.01425 0.249624,-0.01559 0.488282,-0.103516 l 0.01367,-0.0039 0.01367,-0.0059 c 0.247606,-0.107546 0.57815,-0.205545 0.761719,-0.199218 0.04332,0.08139 0.105633,0.258094 0.347656,0.412109 l 0.09766,0.06055 0.115234,0.01367 c 0.238123,0.02706 0.268992,0.0044 0.34375,-0.0078 -0.01015,0.02653 -0.01802,0.02198 -0.02734,0.0625 -0.04165,0.176758 -0.02456,0.315675 -0.01563,0.396485 0.009,0.08161 -0.01153,0.114929 0.01953,0 0.008,-0.02957 -0.0041,9.09e-4 -0.0293,0.06055 -0.02515,0.05944 -0.07131,0.155132 -0.06836,0.328125 0.0025,0.245084 0.06262,0.288254 0.109375,0.378906 0.04582,0.08883 0.09492,0.170674 0.16211,0.253906 0.0017,0.0022 0.0022,0.0018 0.0039,0.0039 0.0016,0.0019 0.0023,0.0039 0.0039,0.0059 0.148515,0.185087 0.28389,0.280173 0.339844,0.341797 0.119195,0.137155 0.189442,0.309992 0.308594,0.572265 -0.0089,0.07413 -0.03057,0.132902 0.0098,0.253906 l -0.02148,-0.222656 c -0.04649,0.355038 -0.156674,0.573796 -0.419922,1.021485 -0.04533,0.04715 -0.105355,0.10323 -0.189453,0.205078 -0.09935,0.120314 -0.225533,0.322196 -0.224609,0.583984 -0.0045,0.33262 0.08916,0.60081 0.154296,0.791016 0.0661,0.193009 0.09949,0.306757 0.09375,0.43164 -0.02361,0.324162 -0.01049,0.540607 0.002,0.675782 0.01273,0.1383 0.01873,0.154953 0.002,0.271484 l -0.05078,0.355469 0.117188,0.06055 c -0.01511,0.05166 -0.0257,0.08944 -0.04687,0.164062 -0.02702,0.07693 -0.04402,0.105806 -0.08398,0.167969 -0.04145,0.06448 -0.122847,0.185559 -0.169922,0.351562 l -0.121094,0.419922 0.02148,0.0098 C 40.074082,47.844418 39.610255,48.26942 39.091797,48.625 h -0.002 c -1.327831,0.913082 -2.818226,1.561415 -4.390625,1.914062 -6.95e-4,1.38e-4 -0.0013,0.0018 -0.002,0.002 -0.890727,0.17585 -1.797309,0.255943 -2.705079,0.238281 h -0.0039 -0.0059 c -0.486594,0 -0.966641,-0.02671 -1.4375,-0.08008 h -0.002 c -0.391658,-0.04529 -0.771064,-0.08773 -1.119141,-0.158203 h -0.002 c -0.411899,-0.08458 -0.838678,-0.274174 -1.259766,-0.4375 0.04543,-0.0072 0.08705,-0.0139 0.144532,-0.02344 0.08697,-0.01443 0.162722,-0.01514 0.314453,-0.08594 l 0.0293,-0.01367 0.02734,-0.01758 c 0.198809,-0.126501 0.252445,-0.2511 0.3125,-0.390625 0.0584,-0.135682 0.09764,-0.290507 0.08203,-0.480469 0.240326,-0.07998 0.329734,-0.188019 0.429687,-0.292969 0.10672,-0.112055 0.188405,-0.204933 0.265625,-0.359375 0.07628,-0.15251 0.03517,-0.15566 0.02539,-0.212891 0.0073,-0.01398 0.01148,-0.02148 0.01953,-0.03711 0.0183,-0.0355 0.02182,-0.01661 0.06445,-0.144531 l 0.0059,-0.01758 0.0039,-0.01563 c 0.0038,-0.01474 0.0042,-0.04506 0.0078,-0.0625 1.42e-4,0.0152 0.02831,-0.02108 0.142578,-0.158203 l 0.002,-0.002 c -0.01367,0.01664 0.02571,-0.02636 0.07617,-0.07227 0.0477,-0.04339 0.10857,-0.09234 0.181641,-0.189453 l 0.002,-0.0039 c 0.05424,-0.07126 0.109637,-0.175399 0.126953,-0.226562 0.01761,-0.05202 -0.0052,0.0033 -0.0078,0.0078 l 0.04492,-0.07813 0.01563,-0.08789 c 0.04342,-0.263427 -0.03061,-0.462382 -0.0625,-0.56836 -0.03189,-0.105977 -0.0144,-0.106212 -0.03125,-0.04492 v -0.002 -0.002 c -0.02327,0.08726 -0.03042,0.04847 0.05273,-0.0039 0.08277,-0.05213 0.212765,-0.112009 0.339844,-0.171875 -0.0045,0.0021 0.07633,-0.0165 0.205078,-0.0625 l 0.0039,-0.002 c 0.144011,-0.05026 0.330522,-0.107922 0.490234,-0.162109 h 0.0039 l 0.0059,-0.002 c 0.216602,-0.07834 0.401384,-0.243846 0.5,-0.390625 0.09685,-0.144143 0.136061,-0.25145 0.181641,-0.33789 l 0.0039,-0.0059 c 0.02168,-0.03901 0.05868,-0.102568 0.09766,-0.173828 0.04035,-0.07377 0.08947,-0.125175 0.121094,-0.308593 v -0.0059 l 0.002,-0.0039 c 0.01476,-0.09595 0.002,-0.205411 0,-0.220703 -0.002,-0.01529 2.9e-4,0.04904 -0.002,0.0625 0.04622,-0.27203 0.01588,-0.309159 -0.0059,-0.216797 l -0.0039,0.01172 c 0.0504,-0.193233 0.08335,-0.390659 0.09766,-0.589844 l 0.002,-0.01953 v -0.01758 c 0,-0.140257 -0.0481,-0.222875 -0.08008,-0.289063 0.02457,-0.01631 0.06909,-0.04418 0.160156,-0.177734 l 0.002,-0.002 c 0.07179,-0.105336 0.103349,-0.186096 0.132812,-0.251954 0.02974,-0.06647 0.06752,-0.128595 0.0332,-0.07813 v -0.002 c 0.04373,-0.06479 0.161334,-0.152598 0.330078,-0.330078 0.168744,-0.17748 0.358703,-0.51183 0.33789,-0.890625 v -0.0039 -0.002 c -0.01206,-0.180872 -0.05625,-0.319205 -0.11914,-0.480469 -0.03144,-0.08063 -0.06753,-0.161239 -0.121094,-0.246094 -0.05337,-0.08456 -0.105069,-0.192774 -0.308594,-0.28125 h -0.002 c -0.1324,-0.05797 -0.208955,-0.07017 -0.273437,-0.0918 l -0.002,-0.002 c -0.04644,-0.01785 -0.169706,-0.101818 -0.332031,-0.21875 -0.163429,-0.117727 -0.382898,-0.281605 -0.714844,-0.308593 l -0.01953,-0.002 h -0.1875 c 0.03151,0 -0.119791,-0.03415 -0.283203,-0.0625 -0.127181,-0.03544 -0.163283,-0.01901 -0.220703,-0.01172 -0.02875,-0.0575 -0.0029,-0.08469 -0.126953,-0.169922 -0.133165,-0.09188 -0.209866,-0.09965 -0.267578,-0.115235 -0.05508,-0.01488 -0.08963,-0.02431 -0.09375,-0.02539 0.03062,0.01125 0.03457,0.01946 -0.03906,-0.0332 -0.07363,-0.05267 -0.247255,-0.150041 -0.439453,-0.160157 l -0.01172,-0.002 h -0.01367 c -0.07378,0 -0.07125,0.0039 -0.08789,0.0078 -0.01757,-0.004 -0.09021,-0.02845 -0.06641,-0.01367 v -0.002 h -0.002 c -0.0149,-0.0091 -0.01394,-0.0061 -0.02734,-0.01367 -0.0038,-0.01662 0.0051,-0.03467 0,-0.05078 -0.04703,-0.14996 -0.133643,-0.253188 -0.195313,-0.316407 -0.086,-0.08816 -0.05634,-0.0431 -0.04492,-0.01367 0.01481,-0.05626 0.06118,-0.109575 -0.02734,-0.347657 -0.112588,-0.307812 -0.300979,-0.390268 -0.396485,-0.457031 -0.234785,-0.205342 -0.527627,-0.328788 -0.83789,-0.359375 -0.266125,-0.04312 -0.413027,-0.0083 -0.388672,-0.0039 h -0.002 -0.0039 c -0.0838,-0.01402 -0.159292,-0.05507 -0.222656,-0.111328 -0.01557,-0.0218 -0.02866,-0.04435 -0.0625,-0.09961 -0.04367,-0.07132 -0.114044,-0.195739 -0.28125,-0.300781 -0.08012,-0.05036 -0.09758,-0.06086 -0.123047,-0.07617 l 0.109375,-0.224609 -0.443359,-0.220703 c -0.03465,-0.01733 -0.124798,0.01331 -0.185547,0.002 -0.02324,-0.02297 -0.01886,-0.0325 -0.04883,-0.05664 -0.155461,-0.125208 -0.434539,-0.199224 -0.660156,-0.158203 l -0.01563,0.0039 -0.01563,0.0039 c -0.175511,0.04388 -0.161562,0.09039 -0.214844,0.146484 -0.06533,-0.05771 -0.08434,-0.112617 -0.230469,-0.142578 -0.182376,-0.03783 -0.253607,0.0046 -0.330078,0.03906 -0.02683,-0.02232 -0.02965,-0.02823 -0.07227,-0.05664 h -0.002 l -0.002,-0.002 c 0.0015,9.77e-4 -0.05327,-0.04145 -0.113281,-0.08594 -0.03001,-0.02224 -0.06279,-0.04574 -0.111328,-0.07422 -0.04597,-0.02697 -0.09362,-0.08858 -0.3125,-0.08203 -0.02687,8.1e-4 -0.03048,0.01582 -0.05469,0.01953 -0.08616,-0.06507 -0.190608,-0.146753 -0.355469,-0.132812 -0.20379,0.01723 -0.318037,0.132407 -0.365234,0.183594 -0.09439,0.102374 -0.105757,0.0707 0.04492,-0.01367 l -0.01367,0.0078 -0.01172,0.0078 c 0.07085,-0.04555 0.02962,-0.03123 -0.146484,0.03125 l -0.0059,0.002 -0.0039,0.002 c -0.11428,0.04306 -0.29325,0.06302 -0.535156,0.183594 -0.179075,0.08288 -0.303947,0.239425 -0.40625,0.40625 -0.253255,-0.08337 -0.524141,-0.07412 -0.673828,-0.02734 -0.15721,0.04913 -0.20811,0.06487 -0.205078,0.06641 0.10323,-4.06e-4 0.02836,-0.0027 -0.02734,-0.05859 -0.05946,-0.05963 -0.0444,-0.169094 -0.05273,0.0039 0.0025,-0.02493 0.05696,-0.231053 0.08008,-0.47461 -0.01007,0.100744 -0.01321,0.0538 0.02734,-0.01953 0.04055,-0.07334 0.136672,-0.165919 0.142578,-0.431641 v -0.002 -0.002 c 0.0033,-0.198947 -0.102187,-0.378001 -0.199219,-0.472656 -0.09703,-0.09466 -0.187971,-0.13913 -0.267578,-0.173828 -0.158419,-0.06905 -0.287989,-0.09103 -0.359375,-0.103516 h -0.002 c -0.05667,-0.01012 -0.07367,0.006 -0.123047,0.0039 0.05093,-0.136424 0.03074,-0.194434 0.01953,-0.257812 0.04242,-0.03968 0.138085,-0.07137 0.179688,-0.341797 v -0.0078 l 0.002,-0.0098 c 0.03045,-0.258731 -0.08307,-0.40817 -0.15625,-0.501953 -0.07318,-0.09378 -0.139997,-0.151468 -0.191407,-0.19336 l -0.166015,-0.134765 -0.210938,0.02539 c -0.161592,0.01947 -0.334273,0.03848 -0.533203,0.101563 0.09887,-0.313233 0.1874,-0.628928 0.310547,-0.933594 l -0.02344,-0.002 c 0.005,5.39e-4 0.0068,-0.0043 0.01172,-0.0039 0.0075,6.67e-4 0.0039,0.0054 0.01172,0.0059 0.0019,-0.0046 0.004,-0.0091 0.0059,-0.01367 0.281289,0.01283 0.554903,-0.152683 0.654297,-0.257812 0.05516,-0.05834 0.03955,-0.04615 0.05469,-0.0625 0.03509,-0.0019 0.09262,0.0042 0.117187,0.002 0.06702,-0.0062 0.08325,-0.0066 0.109375,-0.0039 -0.01421,-0.0014 0.01988,0.01082 0.08594,0.04297 0.06067,0.02953 0.156904,0.06811 0.289062,0.09766 -0.01383,0.08125 -0.05436,0.114384 -0.02148,0.238281 l 0.03516,0.126953 0.0918,0.0957 c 0.170797,0.174432 0.333866,0.222302 0.464844,0.267578 0.130978,0.04528 0.242815,0.07769 0.28125,0.09375 l 0.28125,0.117188 0.232422,-0.197266 c 0.112537,-0.09463 0.194511,-0.241805 0.220703,-0.365234 0.02619,-0.123429 0.01387,-0.219176 0.002,-0.291016 -0.02134,-0.128646 -0.03994,-0.183526 -0.04297,-0.185547 3.85e-4,-0.01159 8.65e-4,-0.02943 0.002,-0.06836 0.0014,-0.05181 0.0079,-0.09341 -0.0078,-0.205078 -0.01511,-0.108803 -0.04195,-0.153546 -0.06445,-0.201172 7.37e-4,-4.23e-4 -0.0084,-0.004 0.01367,-0.02344 0.04288,-0.03773 0.155895,-0.09956 0.30664,-0.1875 v -0.002 h 0.002 c 0.116931,-0.06844 0.184311,-0.132491 0.240235,-0.179687 0.05404,-0.04561 0.09782,-0.06918 0.06055,-0.05078 -0.0072,0.0018 -0.02421,0.0048 0.0039,0.002 0.04569,-0.0047 0.186264,-0.01599 0.330078,-0.08789 l 0.01172,-0.0059 0.0098,-0.0059 c 0.303164,-0.171527 0.471262,-0.380354 0.570313,-0.460937 l 0.09766,-0.08008 0.04883,-0.117188 c 0.06693,-0.161135 0.04844,-0.271324 0.04297,-0.384765 0.111868,-0.06766 0.24398,-0.136845 0.287109,-0.19336 0.04298,-0.05632 0.03461,-0.05178 0.03906,-0.06055 0.0421,-0.0157 0.07091,-0.01632 0.142578,-0.07227 l 0.002,-0.002 c 0.108839,-0.08593 0.163657,-0.167717 0.195313,-0.210938 l 0.02734,-0.01758 c 0.01228,-0.0084 0.02491,-0.01493 0.03906,-0.01953 l 0.002,-0.002 h 0.002 c -0.04044,0.01348 0.138717,-0.0088 0.349609,-0.08789 -0.03466,0.01319 0.02815,-0.0025 0.09961,-0.01563 0.03858,-0.0071 0.07959,-0.01496 0.132812,-0.0293 0.05142,-0.01385 0.110804,0.01779 0.28125,-0.160156 0.147428,-0.153251 0.154408,-0.292156 0.158203,-0.367188 0.0013,-0.02554 -0.0013,-0.03334 -0.002,-0.05273 0.07029,-0.02154 0.191606,-0.05437 0.332032,-0.09961 0.0834,0.08268 0.192125,0.158481 0.296875,0.177734 0.241341,0.04436 0.359789,-0.03651 0.445312,-0.08203 0.08552,-0.04553 0.144548,-0.0897 0.185547,-0.119141 0.041,-0.02944 0.104682,-0.0504 -0.0098,-0.0039 l 0.0039,-0.002 0.0039,-0.002 c 0.124605,-0.05311 0.415279,-0.155384 0.636719,-0.238282 l 0.0078,-0.002 c 0.04761,-0.01577 0.182945,-0.03373 0.378906,-0.148437 0.0999,-0.05848 0.258544,-0.174399 0.3125,-0.40625 0.0054,-0.02341 -0.01801,-0.03372 -0.01563,-0.05664 0.03542,0.0069 0.08563,0.04636 0.113282,0.04883 0.119034,0.01062 0.185023,0.0079 0.21875,0.01172 l -0.134766,-0.03516 c 0.188933,0.07873 0.281774,0.0519 0.351562,0.04687 0.06979,-0.005 0.123304,-0.0098 0.08984,-0.0098 l -0.158203,-0.02539 c 0.09259,0.03086 0.111399,0.01078 0.169922,0.0098 0.01766,0.02562 0.02061,0.03787 0.05273,0.07227 0.07436,0.07963 0.240986,0.193359 0.435547,0.193359 0.143205,0 0.360477,-0.06426 0.488281,-0.232422 0.127805,-0.168163 0.129332,-0.345523 0.113282,-0.458984 -0.0094,-0.06658 -0.04876,-0.08609 -0.06641,-0.136719 1.28e-4,-3.23e-4 -1.28e-4,-0.0016 0,-0.002 0.03681,-0.09341 0.118644,-0.307912 -0.0078,-0.558594 -0.03902,-0.07673 -0.118399,-0.08094 -0.185547,-0.132812 l -0.0059,-0.06641 c 0.05611,-0.0838 0.189446,-0.295639 0.164062,-0.541015 l -0.002,-0.0098 v -0.0078 c -0.02732,-0.196785 -0.24686,-0.414973 -0.310547,-0.451172 -0.06369,-0.0362 0.0078,0.0023 0.04492,0.05078 l 0.0078,0.01172 c 0.131605,0.182204 0.05746,0.114169 0.04492,0.05664 -0.0063,-0.02876 -0.01393,-0.0653 -0.03125,-0.11914 -0.01732,-0.05384 -0.0217,-0.130528 -0.160156,-0.259766 l -0.0098,-0.0078 -0.0078,-0.0078 c -0.122865,-0.103962 -0.156167,-0.07889 -0.240234,-0.09961 0.0046,-0.07838 0.01598,-0.114205 -0.002,-0.25 v -0.002 c -0.01608,-0.117137 -0.05181,-0.239807 -0.09766,-0.375 0.69329,-0.125387 1.39288,-0.209092 2.097657,-0.214844 z m -5.580079,0.289062 c -0.518789,0.232926 -1.035265,0.46 -1.552734,0.777344 5.94e-4,-0.0031 -0.0548,0.0087 -0.179687,0.08984 l -0.04297,0.02734 -0.03711,0.03711 c 0.03389,-0.03389 0.01915,-0.01913 -0.01758,0.01172 -0.03673,0.03085 -0.145816,0.04866 -0.201172,0.326172 l -0.04492,0.216797 v 0.0039 c -0.01387,0.0487 -0.04687,0.07422 -0.04687,0.126953 0,0.31793 0.126811,0.40471 0.232421,0.511719 0.102046,0.103396 0.209671,0.222045 0.5,0.230468 0.223987,0.01121 0.369334,-0.0495 0.507813,-0.130859 0.144359,-0.08481 0.288092,-0.185129 0.384766,-0.419922 h 0.002 v -0.002 c 0.05882,-0.143523 0.0353,-0.196224 0.0332,-0.28125 0.182535,-0.03049 0.371347,-0.0233 0.539062,-0.117187 0.300138,-0.168015 0.550348,-0.487044 0.617188,-0.867188 l -0.490235,-0.08594 z m 12.244141,1.048829 0.002,0.01367 c -3.51e-4,-0.0033 -0.0035,-0.0027 -0.0039,-0.0059 -3.38e-4,-0.0029 0.0023,-0.0049 0.002,-0.0078 z m 0.244141,0.447265 -0.02734,0.07813 c -0.0023,3.45e-4 -0.0054,0.0016 -0.0078,0.002 0.0048,-0.03289 0.03733,-0.04854 0.03516,-0.08008 z M 28.41992,27.271484 c -0.04639,-0.0095 -0.05442,-0.02724 0.05078,0.02344 9.83e-4,4.73e-4 0.0029,0.0034 0.0039,0.0039 -0.01245,-0.0022 -0.04634,-0.02564 -0.05469,-0.02734 z m 1.589844,0.525391 0.07617,0.02539 c -0.02594,-0.01081 -0.01999,0.0033 -0.04297,-0.0039 -0.01584,-0.0052 -0.01611,-0.01741 -0.0332,-0.02148 z m -2.306641,0.4375 c -0.03487,0.02731 -0.138266,0.05843 -0.142578,0.0625 -0.0064,0.0061 0.01086,-0.01765 0.07422,-0.05078 0.01587,-0.0083 0.04667,-0.005 0.06836,-0.01172 z M 38.875,28.498047 c 0.0071,-0.0024 0.0045,0.0026 0.01172,0 l -0.01758,0.0059 c 0.0039,-0.0012 0.0021,-0.0045 0.0059,-0.0059 z m -11.71875,0.0078 c 1.35e-4,0.0011 0.0018,8.43e-4 0.002,0.002 1.94e-4,0.0016 -0.0022,0.0023 -0.002,0.0039 z m -2.660156,0.679688 0.11914,0.0078 0.08203,0.148438 c -0.01223,0.101528 -0.113257,0.180005 -0.19336,0.25 -0.02889,-0.01769 -0.0453,-0.0082 -0.07422,-0.03711 l -0.0293,-0.105468 0.02148,-0.01758 c 0.09234,-0.07156 0.03638,-0.158671 0.07422,-0.246094 z m -2.361328,0.04102 c -0.01964,0.04812 -0.07071,0.05237 -0.08398,0.105469 v -0.0039 c 0.03028,-0.116792 0.03637,-0.09642 0.04492,-0.09766 0.0032,-0.0027 0.03285,-2.23e-4 0.03906,-0.0039 z m 2.761718,0.333985 c -0.0065,0.0026 -0.0054,0.007 -0.01172,0.0098 -0.02716,0.0155 -0.05812,0.02332 -0.08398,0.04102 z m 14.09375,0.08398 c -0.02432,0.03457 -0.117185,0.10742 -0.128906,0.119141 l -0.0039,0.0039 -0.002,0.002 c 0.0058,-0.006 -0.0062,0.0051 -0.05664,0.04492 -0.05047,0.03985 -0.19455,0.123029 -0.242187,0.373047 l -0.002,0.0039 v 0.0039 c -0.01564,0.08829 0.0016,0.02162 0,0.05664 -0.01339,0.01069 -0.02713,0.02342 -0.03516,0.0293 -0.0421,0.02807 -0.05392,0.0518 -0.08789,0.08984 -0.09761,0.05967 -0.149223,0.09497 -0.09766,0.08203 -0.01272,-0.0041 -0.127492,-0.008 -0.30664,-0.002 -0.0754,0.0026 -0.183973,0.02999 -0.294922,0.06836 -0.07162,-0.05696 -0.106277,-0.131041 -0.234375,-0.160156 h -0.002 -0.002 c 0.04731,-0.06222 0.09117,-0.07683 0.126953,-0.214844 v -0.002 c 0.03918,-0.152588 0.01187,-0.235693 0.0078,-0.353516 0.115961,0.01834 0.255284,0.05043 0.472656,0.06445 l 0.01563,0.002 h 0.177735 c 0.09331,0.001 0.231019,0.02029 0.427734,-0.0078 0.08392,-0.01199 0.164666,-0.14206 0.267578,-0.203125 z m 1.808594,0.189453 0.05078,0.06641 c -0.01638,-0.01263 -0.07109,-0.01976 -0.07813,-0.02734 l -0.01563,-0.03125 c 0.01761,-0.005 0.02435,-8.54e-4 0.04297,-0.0078 z m 0.359375,0.002 c 0.03638,0.03723 0.0822,0.06318 0.121094,0.09766 -0.0029,0.002 -0.0028,0.0039 -0.0059,0.0059 l -0.08008,0.002 z m -0.927734,0.03125 c 0.04473,0.0036 0.03667,0.0059 0.148437,0.0059 -0.04437,0 -0.0025,0.0042 0.07422,0.01172 0.01621,0.0016 0.05895,-0.013 0.08008,-0.01172 0.009,0.02801 0.0013,0.05123 0.01563,0.08008 l -0.160156,0.0039 c 0.0037,0.202577 0.0087,0.306309 0.01172,0.292969 l -0.0254,0.113209 h -0.189453 l -0.0293,0.0039 c -0.107394,0.01234 -0.275545,-0.01228 -0.5,0.002 0.05051,-0.0563 0.144679,-0.152871 0.121094,-0.140625 0.05328,-0.02636 0.260786,-0.02277 0.453125,-0.359375 z m 0.517578,0.25586 c 0.0728,0.05342 0.126676,0.132039 0.207031,0.148437 l 0.193359,0.04102 0.01172,-0.0078 0.0293,0.03906 c -0.02134,0.01632 -0.03622,0.0083 -0.05859,0.01953 h -0.214843 c -0.05295,-0.03504 -0.11366,-0.066 -0.138672,-0.107422 -0.07821,-0.129538 -0.03452,-0.144739 -0.04883,-0.06641 z m 0.951172,0.134765 c 6.21e-4,0.0019 0.02413,0.0139 0.02734,0.01758 -0.0097,0.0033 -0.01548,0.0019 -0.02539,0.0059 0.0011,-0.0073 -0.003,-0.01608 -0.002,-0.02344 z m -2.06836,0.105469 c -0.01243,0 -0.01368,0.0055 -0.02539,0.0059 -0.02309,0.0025 -0.02175,-0.0037 -0.04687,0 z m 2.46875,0.1875 c -0.0011,0.0031 -8.64e-4,0.0066 -0.002,0.0098 l -0.01953,-0.0059 z m -4.55664,0.02344 0.0039,0.02148 c -7.82e-4,-0.0044 -0.0031,-0.0015 -0.0039,-0.0059 -0.0019,-0.0099 0.0024,-0.0049 0,-0.01563 z m 4.394531,0.21289 0.0078,0.0293 c -9.68e-4,-0.0036 -0.0048,-0.0043 -0.0059,-0.0078 -0.0036,-0.01264 0.0027,-0.0076 -0.002,-0.02148 z m -3.804688,0.07031 c 0.02137,0 0.02408,0.0058 0.0293,0.0078 -0.06257,0.0037 -0.01361,-0.01379 -0.09766,-0.002 z m 4.621094,0.390625 c 0.08925,0.149736 0.181944,0.286947 0.271485,0.443359 0.06306,0.110548 0.09336,0.143636 0.146484,0.216797 -0.02689,-0.0095 -0.03556,-0.01693 -0.06641,-0.02539 -0.09109,-0.02843 -0.113177,-0.01187 -0.169922,-0.0098 -0.03769,-0.08206 -0.04691,-0.157731 -0.189453,-0.257813 l -0.01172,-0.0078 -0.01172,-0.0078 c -0.12073,-0.07497 -0.2579,-0.112443 -0.392572,-0.156276 l 0.1875,0.03516 0.179688,-0.144532 c 0.0273,-0.02213 0.03194,-0.06125 0.05664,-0.08594 z m -0.736328,0.03125 c 0.08309,0.02634 0.160566,0.119177 0.232422,0.132812 -0.03664,-0.01 -0.06818,-0.03342 -0.105469,-0.04102 l -0.05078,-0.01172 h -0.04883 c -0.0076,0 -0.0044,0.0018 -0.01172,0.002 -2.8e-5,-0.04634 -0.0092,-0.04932 -0.01563,-0.08203 z m 0.02539,0.113281 v 0.0098 c 4.35e-4,-0.0052 -0.0023,-0.0027 -0.002,-0.0078 1.04e-4,-0.0015 0.0019,-4.14e-4 0.002,-0.002 z m -20.03711,1.599609 c -1.12e-4,0.0027 1.14e-4,0.007 0,0.0098 -0.0093,0.0097 -0.01,0.01492 -0.05664,0.04102 -0.02627,0.0147 -0.06277,0.01054 -0.09766,0.01953 0.04909,-0.03261 0.14109,-0.05804 0.154297,-0.07031 z m 12.638672,1.839844 c -0.0057,0.0064 -0.02584,0.09157 -0.04492,0.115235 0.0077,-0.0201 0.0063,-0.05752 0.01367,-0.07031 0.02863,-0.04939 0.04202,-0.057 0.03125,-0.04492 z m -14.982422,0.900391 c -0.02794,0.04905 -0.06342,0.116076 -0.07813,0.226562 -0.0088,0.06589 0.02581,0.137377 0.04297,0.210938 -0.03771,-0.0097 -0.07556,-0.01972 -0.111328,-0.03516 0.01471,0.0057 -0.09811,-0.120982 -0.220703,-0.248047 0.09437,-0.02043 0.189317,-0.03869 0.28125,-0.06836 l 0.0039,-0.002 c 0.05044,-0.01616 0.03915,-0.05963 0.08203,-0.08398 z m -0.324218,0.126953 -0.05078,0.01758 c -0.0038,-0.0039 -0.0019,-0.0038 -0.0059,-0.0078 0.02384,-0.0094 0.03167,0.0041 0.05664,-0.0098 z m 1.308593,0.146484 -0.0039,0.01563 c 0.0022,-0.0056 -0.002,-0.0043 0,-0.0098 0.0017,-0.0047 0.0022,-9.32e-4 0.0039,-0.0059 z m 0.06641,0.589844 c -0.0061,0.02104 -0.01274,0.02628 -0.01758,0.05078 -0.01338,-0.01358 -0.04405,-0.02852 -0.05859,-0.04297 0.04208,-0.005 0.04965,-0.0053 0.07617,-0.0078 z m -1.408204,0.517578 c 0.02168,0.0066 0.04252,0.0157 0.06445,0.02148 0.0016,6.22e-4 0.0023,-6.02e-4 0.0039,0 0.07571,0.02805 0.110904,0.0095 0.18164,0.0078 7.6e-4,-1.8e-5 0.0012,2e-5 0.002,0 0.117728,0.04008 0.271611,0.103247 0.367187,0.146484 l 0.0039,0.002 h 0.002 c -0.04765,-0.02085 0.028,0.02338 0.107422,0.101562 0.0242,0.02382 0.07828,0.05986 0.105469,0.08789 -0.0018,0.06207 -0.02077,0.09821 0.02539,0.208984 l 0.02344,0.05664 0.03711,0.05078 c 0.06908,0.09298 0.186121,0.26121 0.402343,0.384766 l 0.0039,0.002 0.0039,0.002 c 0.0043,0.0023 0.09778,0.121574 0.335937,0.24414 0.209815,0.110833 0.412181,0.057 0.429688,0.05273 0.01814,-0.0044 -0.09745,0.02207 -0.199219,-0.01563 l 0.01563,0.0039 0.01367,0.0059 c -0.09161,-0.02776 -0.0692,-0.04014 0.01172,0.03906 0.04046,0.0396 0.09588,0.100038 0.208984,0.160156 0.113106,0.06012 0.314824,0.100766 0.482422,0.05078 0.04205,-0.01266 0.06974,-0.05893 0.111328,-0.08398 0.0143,0.124411 0.0091,0.248273 0,0.373047 -0.07909,0.04272 -0.148352,0.05899 -0.238281,0.179687 -0.106466,0.142871 -0.101849,0.210822 -0.109375,0.269532 -0.03669,0.03095 -0.09382,0.07668 -0.148438,0.154297 l -0.0039,0.0059 -0.0039,0.0059 c -0.07781,0.116697 -0.09999,0.185096 -0.123047,0.236328 -0.0099,0.01825 -0.05754,0.07809 -0.126953,0.212891 -0.07185,0.139544 -0.136101,0.407762 -0.05859,0.646484 0.02359,0.0724 0.03711,0.05019 0.0625,0.0918 -0.06743,0.06895 -0.136535,0.07491 -0.164062,0.263672 -0.05437,0.380717 0.08351,0.490507 0.08984,0.517578 0.06811,0.294455 0.206674,0.349183 0.28125,0.410157 0.07482,0.06117 0.143664,0.125724 0.08594,0.0625 -0.01318,-0.01374 0.07162,0.153177 0.201172,0.351562 0.105157,0.162984 0.186214,0.47835 0.412109,0.828125 l 0.002,0.0059 0.0039,0.0039 c 0.105935,0.157289 0.206366,0.216756 0.265625,0.259765 -0.01013,0.06199 -0.04217,0.0863 0.01953,0.234375 l 0.002,0.0059 0.002,0.0039 c 0.131874,0.296705 0.318741,0.41077 0.496094,0.537109 0.176514,0.125742 0.351756,0.223459 0.484375,0.289063 0.157178,0.07859 0.27189,0.08254 0.328125,0.08984 0.05344,0.0069 0.04181,0.01404 -0.01953,-0.01953 0.03129,0.01771 0.132409,0.08583 0.210938,0.148438 0.07691,0.06132 0.143166,0.153782 0.101562,0.08203 -0.05911,-0.103682 -0.019,-0.0374 -0.01172,0.05469 0.0075,0.09523 0.0087,0.217633 0.03516,0.365234 0.02009,0.122953 -0.01962,0.269081 -0.0059,0.595703 v 0.0059 0.0039 c 0.0089,0.154456 0.0627,0.281211 0.08008,0.324218 0.01738,0.04301 0.002,-8.57e-4 0.002,-0.02148 0,0.06664 -0.0011,0.243187 0,0.222656 v 0.0098 0.0078 c -0.0033,0.20251 0.0089,0.354745 0,0.46875 -0.0088,0.109627 -0.0088,0.220453 0,0.330079 l 0.002,0.0039 v 0.0039 c 0.0067,0.06905 0.03619,0.08545 0.0625,0.142578 -0.03653,0.04536 -0.08939,0.06031 -0.06055,0.28711 0.02223,0.180075 0.09661,0.318357 0.136719,0.390625 0.04088,0.07367 0.04088,0.08712 0.03711,0.07031 0.0027,0.01252 0.0066,0.03421 0.0098,0.04883 C 23.901863,47.836329 23.41289,47.46627 22.98078,47.03163 h -0.002 C 22.88882,46.94167 22.805274,46.862443 22.740498,46.793349 22.272841,46.2945 21.845227,45.759494 21.461201,45.193739 l -0.002,-0.0039 -0.002,-0.002 c 0.04043,0.05775 0.03367,0.0061 -0.08008,-0.160156 l 0.0039,0.0039 c -0.438395,-0.654408 -0.813798,-1.350082 -1.11914,-2.076172 v -0.002 l -0.002,-0.002 c -0.05259,-0.122719 -0.08447,-0.171436 -0.07422,-0.144531 l -0.002,-0.0039 -0.002,-0.0059 c -0.271346,-0.673861 -0.484508,-1.36823 -0.638672,-2.078125 v -0.002 -0.0039 c -0.02881,-0.127271 -0.05302,-0.253076 -0.08008,-0.396485 v -0.002 -0.002 C 19.312269,39.55059 19.231842,38.776593 19.222656,38 v -0.0039 c -7e-6,-6.49e-4 8e-6,-0.0013 0,-0.002 2.49e-4,-0.296064 0.05206,-0.590201 0.08203,-0.88086 z m 6.771485,0.07813 c -0.03115,0.0463 -0.108665,0.115445 -0.113281,0.125 -0.0093,0.01927 8.96e-4,-0.0373 0.0957,-0.11914 0.0048,-0.0042 0.01232,-0.0019 0.01758,-0.0059 z m -2.171875,0.09766 0.07227,0.158204 c -0.0035,-8.34e-4 -0.0044,-0.003 -0.0078,-0.0039 l -0.07422,-0.148437 c 0.004,-0.0017 0.0056,-0.0043 0.0098,-0.0059 z m 0.283203,0.220704 -0.02734,0.01563 c 0.01099,-0.0062 -2.87e-4,-0.0037 0.0098,-0.0098 0.0104,-0.0062 0.0068,0.0011 0.01758,-0.0059 z m -2.664063,0.0098 0.0293,0.0098 c -0.007,-0.0026 -0.0086,0.0023 -0.01563,0 -0.0085,-0.0028 -0.0048,-0.0071 -0.01367,-0.0098 z m 2.203125,0.15625 0.03906,0.02148 c 0.09903,0.05311 0.22461,0.03975 0.34375,0.03711 l 0.138672,0.302734 c -0.06447,0.02955 -0.29151,0.0664 -0.457031,-0.06836 -0.124511,-0.101371 -0.11628,-0.191616 -0.123047,-0.273438 0.02309,-0.0068 0.03201,-0.0111 0.05859,-0.01953 z m 0.669922,0.0039 c 0.0056,0.0044 0.0245,0.0209 0.05273,0.04492 -0.01214,0.145424 -0.06887,0.245376 -0.1875,0.304688 l -0.146485,-0.292969 c 0.05194,-0.0016 0.10618,0.02855 0.150391,0.01563 0.06777,-0.01981 0.087,-0.04612 0.130859,-0.07227 z m 16.414063,1.791016 c 7.77e-4,-1.68e-4 0.02329,-3.5e-5 0.02344,0 -0.0839,-0.02058 -0.04058,-0.01351 -0.02344,0.0039 6.48e-4,6.59e-4 -5.48e-4,-0.0047 0,-0.0039 z m -18.648438,1.816406 c 0.0067,-6.13e-4 0.0064,0.0025 0.02734,0.06641 -0.01625,-0.08024 -0.02448,-0.03903 -0.03125,-0.06055 0.0016,-0.0015 0.0022,-0.0043 0.0039,-0.0059 z m 10.232422,2.330078 c 9.91e-4,0.0057 0.0012,0.0016 0.002,0.0078 -0.0057,-0.105932 -0.01864,0.0078 -0.04492,0.03906 -0.0053,0.0063 0.03765,-0.04374 0.04297,-0.04687 z m -2.59375,3.914063 c -0.03178,-0.04156 0.0698,0.07902 0.0918,0.214844 0.003,0.01851 -0.0032,0.01356 -0.002,0.0293 -0.01972,-0.09124 -0.06335,-0.209494 -0.08984,-0.244141 z M 27.9375,48.695312 c -0.0028,0.0071 -0.0085,0.04646 -0.01367,0.06055 1.35e-4,-8.39e-4 -1.42e-4,-0.0031 0,-0.0039 0.01208,-0.06945 0.02333,-0.0814 0.01367,-0.05664 z M 14.917969,5.5 C 13.729942,5.5 12.657088,6.0628369 11.859375,6.8613281 11.061662,7.6598194 10.5,8.7319796 10.5,9.9199219 v 0.00195 l 0.169922,46.1621091 c 0.0012,1.186757 0.564341,2.257235 1.361328,3.054688 C 12.829121,59.93701 13.900473,60.5 15.087891,60.5 h 33.99414 c 1.188027,0 2.260881,-0.562837 3.058594,-1.361328 C 52.938338,58.340181 53.5,57.26802 53.5,56.080078 v -29.0625 c 0,-0.854999 0.0142,-1.492302 -0.318359,-2.158203 C 52.849079,24.193474 52.353999,23.745624 51.5,22.890625 L 36.076172,7.4550781 36.019531,7.4121094 C 35.26819,6.8438401 34.107686,5.5 32,5.5 Z m 0,2 H 32 c 1.274361,0 1.741373,0.6756979 2.746094,1.453125 l 15.33789,15.351562 c 0.852631,0.853699 1.214226,1.260262 1.308594,1.449219 C 51.487016,25.943004 51.5,26.162579 51.5,27.017578 v 29.0625 c 0,0.522056 -0.291855,1.160524 -0.775391,1.644531 C 50.241074,58.208617 49.603002,58.5 49.082031,58.5 h -33.99414 c -0.519581,0 -1.158701,-0.29123 -1.642578,-0.775391 -0.483878,-0.48416 -0.775391,-1.122865 -0.775391,-1.644531 v -0.002 -0.002 L 12.5,9.9199219 c 0,-0.522056 0.291855,-1.1605238 0.775391,-1.6445313 C 13.758926,7.7913831 14.396998,7.5 14.917969,7.5 Z" />
</svg>
