<?xml version="1.0" encoding="UTF-8" standalone="no"?>
<svg
   height="64"
   width="64"
   version="1.1"
   id="svg9"
   sodipodi:docname="application-x-sif.svg"
   inkscape:version="1.1.2 (0a00cf5339, 2022-02-04)"
   xmlns:inkscape="http://www.inkscape.org/namespaces/inkscape"
   xmlns:sodipodi="http://sodipodi.sourceforge.net/DTD/sodipodi-0.dtd"
   xmlns:xlink="http://www.w3.org/1999/xlink"
   xmlns="http://www.w3.org/2000/svg"
   xmlns:svg="http://www.w3.org/2000/svg">
  <defs
     id="defs13">
    <linearGradient
       inkscape:collect="always"
       id="linearGradient846">
      <stop
         style="stop-color:#19c5ff;stop-opacity:1;"
         offset="0"
         id="stop842" />
      <stop
         style="stop-color:#19ff95;stop-opacity:1"
         offset="1"
         id="stop844" />
    </linearGradient>
    <linearGradient
       inkscape:collect="always"
       xlink:href="#linearGradient846"
       id="linearGradient848"
       x1="10.5"
       y1="33"
       x2="44.397606"
       y2="9.1163397"
       gradientUnits="userSpaceOnUse" />
  </defs>
  <sodipodi:namedview
     id="namedview11"
     pagecolor="#ffffff"
     bordercolor="#666666"
     borderopacity="1.0"
     inkscape:pageshadow="2"
     inkscape:pageopacity="0.0"
     inkscape:pagecheckerboard="0"
     showgrid="false"
     inkscape:zoom="5.109375"
     inkscape:cx="32"
     inkscape:cy="32"
     inkscape:window-width="1056"
     inkscape:window-height="545"
     inkscape:window-x="39"
     inkscape:window-y="286"
     inkscape:window-maximized="0"
     inkscape:current-layer="svg9" />
  <path
     style="color:#000000;fill:#19c5ff;fill-opacity:0.2;stroke-width:2;-inkscape-stroke:none"
     d="m 11.67,56.08 c 0,1.71 1.71,3.42 3.417,3.42 h 33.996 c 1.709,0 3.417,-1.71 3.417,-3.42 V 27.017 c 0,-1.71 0,-1.71 -1.708,-3.42 L 35.417,8.21 C 34.51,7.524 33.708,6.5 32,6.5 H 14.917 C 13.208,6.5 11.5,8.21 11.5,9.92 Z"
     id="path6123" />
  <path
     id="path6"
     style="color:#807f7f;fill:url(#linearGradient848);fill-rule:evenodd;-inkscape-stroke:none;fill-opacity:1"
     d="m 29.580078,19.96875 -9.765625,0.0039 v 0.5 9.263672 h 2.921875 v 4.099609 c -1.72129,0.786994 -2.919043,2.425354 -2.921875,4.34375 v 0.002 c 0.0028,1.918338 1.200673,3.556722 2.921875,4.34375 v 3.738281 h -2.921875 v 9.763672 h 9.765625 v -4.814453 c 3.855495,3.052535 8.853556,4.807754 14.105469,4.814453 l 0.5,0.002 v -3.921875 h -0.5 c -7.536436,-7.54e-4 -14.083782,-4.134876 -16.246094,-10.029297 1.280685,-0.906951 2.138099,-2.308054 2.140625,-3.898438 v -0.002 c -0.0045,-1.626462 -0.899276,-3.052777 -2.228516,-3.951172 2.035818,-6.041286 8.659094,-10.328087 16.333985,-10.335937 h 0.5 V 19.96875 h -0.5 c -5.249271,0.0016 -10.246577,1.750849 -14.105469,4.796875 z m -1,1 v 5.869141 l 0.828125,-0.72461 c 3.627262,-3.176304 8.57986,-4.987086 13.777344,-5.101562 v 1.949218 c -7.942062,0.198034 -14.875328,4.670318 -16.917969,11.207032 l -0.123047,0.396484 0.367188,0.193359 c 1.269492,0.671051 2.06441,1.985961 2.068359,3.421875 -0.0029,1.406079 -0.765694,2.698469 -1.994141,3.382813 l -0.365234,0.203125 0.136719,0.394531 c 2.179093,6.378734 9.027025,10.691842 16.828125,10.878906 v 1.945313 c -5.200081,-0.120012 -10.154243,-1.9361 -13.777344,-5.119141 l -0.828125,-0.730468 v 5.892578 h -7.765625 v -7.763672 h 2.921875 V 41.953125 L 23.402344,41.833984 C 21.852202,41.285935 20.817697,39.82564 20.814453,38.181641 v -0.002 c 0.0032,-1.643999 1.037749,-3.104294 2.587891,-3.652343 L 23.736328,34.41011 V 28.736282 H 20.814453 V 20.97261 Z m -5.84375,1.923828 v 0.5 3.421875 h 3.921875 v -3.921875 z m 1,1 h 1.921875 v 1.921875 h -1.921875 z m -1,25.292969 v 0.5 3.421875 h 3.921875 v -3.921875 z m 1,1 h 1.921875 v 1.921875 H 23.736328 Z M 14.917969,5.5 C 13.729942,5.5 12.657088,6.0628369 11.859375,6.8613281 11.061662,7.6598194 10.5,8.7319796 10.5,9.9199219 v 0.00195 l 0.169922,46.1621091 c 0.0012,1.186757 0.564341,2.257235 1.361328,3.054688 C 12.829121,59.93701 13.900473,60.5 15.087891,60.5 h 33.99414 c 1.188027,0 2.260881,-0.562837 3.058594,-1.361328 C 52.938338,58.340181 53.5,57.26802 53.5,56.080078 v -29.0625 c 0,-0.854999 0.0142,-1.492302 -0.318359,-2.158203 C 52.849079,24.193474 52.353999,23.745624 51.5,22.890625 L 36.076172,7.4550781 36.019531,7.4121094 C 35.26819,6.8438401 34.107686,5.5 32,5.5 Z m 0,2 H 32 c 1.274361,0 1.741373,0.6756979 2.746094,1.453125 l 15.33789,15.351562 c 0.852631,0.853699 1.214226,1.260262 1.308594,1.449219 C 51.487016,25.943004 51.5,26.162579 51.5,27.017578 v 29.0625 c 0,0.522056 -0.291855,1.160524 -0.775391,1.644531 C 50.241074,58.208617 49.603002,58.5 49.082031,58.5 h -33.99414 c -0.519581,0 -1.158701,-0.29123 -1.642578,-0.775391 -0.483878,-0.48416 -0.775391,-1.122865 -0.775391,-1.644531 v -0.002 -0.002 L 12.5,9.9199219 c 0,-0.522056 0.291855,-1.1605238 0.775391,-1.6445313 C 13.758926,7.7913831 14.396998,7.5 14.917969,7.5 Z" />
</svg>
