<?xml version="1.0" encoding="UTF-8" standalone="no"?>
<svg
   height="64"
   width="64"
   version="1.1"
   id="svg9"
   sodipodi:docname="application-dicom.svg"
   inkscape:version="1.1.2 (0a00cf5339, 2022-02-04)"
   xmlns:inkscape="http://www.inkscape.org/namespaces/inkscape"
   xmlns:sodipodi="http://sodipodi.sourceforge.net/DTD/sodipodi-0.dtd"
   xmlns:xlink="http://www.w3.org/1999/xlink"
   xmlns="http://www.w3.org/2000/svg"
   xmlns:svg="http://www.w3.org/2000/svg">
  <defs
     id="defs13">
    <linearGradient
       inkscape:collect="always"
       id="linearGradient876">
      <stop
         style="stop-color:#00e0ff;stop-opacity:1;"
         offset="0"
         id="stop872" />
      <stop
         style="stop-color:#0067ff;stop-opacity:1"
         offset="1"
         id="stop874" />
    </linearGradient>
    <linearGradient
       inkscape:collect="always"
       xlink:href="#linearGradient876"
       id="linearGradient878"
       x1="10.5"
       y1="33"
       x2="47.543911"
       y2="17.218269"
       gradientUnits="userSpaceOnUse" />
  </defs>
  <sodipodi:namedview
     id="namedview11"
     pagecolor="#ffffff"
     bordercolor="#666666"
     borderopacity="1.0"
     inkscape:pageshadow="2"
     inkscape:pageopacity="0.0"
     inkscape:pagecheckerboard="0"
     showgrid="false"
     inkscape:zoom="10.21875"
     inkscape:cx="31.95107"
     inkscape:cy="32"
     inkscape:window-width="1600"
     inkscape:window-height="836"
     inkscape:window-x="0"
     inkscape:window-y="0"
     inkscape:window-maximized="1"
     inkscape:current-layer="svg9" />
  <path
     style="color:#000000;fill:#00ffe2;fill-opacity:0.2;stroke-width:2;-inkscape-stroke:none"
     d="m 11.67,56.08 c 0,1.71 1.71,3.42 3.417,3.42 h 33.996 c 1.709,0 3.417,-1.71 3.417,-3.42 V 27.017 c 0,-1.71 0,-1.71 -1.708,-3.42 L 35.417,8.21 C 34.51,7.524 33.708,6.5 32,6.5 H 14.917 C 13.208,6.5 11.5,8.21 11.5,9.92 Z"
     id="path4664" />
  <path
     id="path830"
     style="fill:url(#linearGradient878);fill-opacity:1;stroke-width:2.63022"
     d="m 42.962243,31.040749 a 0.58390914,0.58390914 0 0 0 -0.568127,0.599691 c 0,2.127849 -1.65441,3.853274 -3.690201,3.853274 -0.999484,0 -1.935843,-0.407684 -2.630221,-1.154667 a 0.5418256,0.5418256 0 0 0 -0.804848,0 0.61284157,0.61284157 0 0 0 -0.01052,0.841671 c 0.791697,0.844301 1.812223,1.357194 2.919546,1.483445 0.263022,1.814852 1.767509,3.21676 3.574471,3.21676 0.315626,0 0.568127,-0.270912 0.568127,-0.59969 a 0.5786487,0.5786487 0 0 0 -0.568127,-0.59443 h -0.0053 c -1.180969,0 -2.167302,-0.873234 -2.409283,-2.033161 2.3672,-0.323517 4.200464,-2.438215 4.200464,-5.000051 a 0.58916958,0.58916958 0 0 0 -0.573388,-0.59969 z m -20.686691,0.625993 a 0.58916958,0.58916958 0 0 0 -0.573388,0.599691 c 0,2.561835 1.838525,4.684424 4.205724,5.007941 -0.24198,1.159928 -1.233574,2.033161 -2.414543,2.033161 a 0.58916958,0.58916958 0 0 0 -0.573388,0.599691 c 0,0.328777 0.257761,0.59443 0.573388,0.59443 1.809592,0 3.308818,-1.394018 3.571841,-3.211501 1.107323,-0.12362 2.130479,-0.639143 2.919545,-1.483444 a 0.62073224,0.62073224 0 0 0 -0.01052,-0.846932 0.56023715,0.56023715 0 0 0 -0.804847,0 3.5823615,3.5823615 0 0 1 -2.630222,1.159928 c -2.033161,0 -3.6902,-1.730686 -3.6902,-3.858535 a 0.58390914,0.58390914 0 0 0 -0.568128,-0.59969 z m 7.30062,-12.078851 c -1.799071,0 -4.143479,1.069548 -6.28711,2.855468 -1.286179,0.578649 -2.195312,1.914289 -2.195312,3.46875 0,0.486591 0.08685,0.964373 0.257812,1.40625 -2.225166,0.449768 -3.904296,2.496498 -3.904296,4.953125 0,0.510263 0.07019,1.016039 0.214843,1.5 a 5.1552338,5.1552338 0 0 0 -1.433593,3.591797 c 0,1.062609 0.312367,2.046637 0.851562,2.859375 a 5.1631245,5.1631245 0 0 0 -0.851562,2.865235 c 0,1.835895 0.955018,3.521819 2.472656,4.408203 a 5.9706025,5.9706025 0 0 0 -0.03711,0.685547 c 0,2.477668 1.546162,4.663173 3.78711,5.410156 0.975812,1.746467 2.74835,2.818359 4.689453,2.818359 2.130479,0 3.979449,-1.284886 4.871094,-3.152344 0.891645,1.867458 2.736708,3.152344 4.867187,3.152344 1.941104,0 3.7195,-1.071892 4.695313,-2.818359 2.240948,-0.746983 3.787109,-2.935118 3.787109,-5.410156 0,-0.228829 -0.01667,-0.456718 -0.04297,-0.685547 a 5.1026294,5.1026294 0 0 0 2.472657,-4.408203 c 0,-1.036307 -0.291326,-2.020934 -0.851563,-2.865235 0.536565,-0.815368 0.851563,-1.799396 0.851563,-2.859375 0,-1.357195 -0.518277,-2.655438 -1.433594,-3.591797 0.144662,-0.486591 0.220703,-0.989737 0.220703,-1.5 0,-2.456627 -1.684989,-4.503357 -3.910156,-4.953125 0.170964,-0.441877 0.257812,-0.919659 0.257812,-1.40625 a 3.7875187,3.7875187 0 0 0 -2.193359,-3.46875 c -2.143631,-1.78592 -4.489991,-2.855468 -6.289063,-2.855468 -0.999484,0 -1.884554,0.518251 -2.43164,1.304687 a 2.9695199,2.9695199 0 0 0 -2.435546,-1.304687 z m -0.002,1.189453 0.002,0.002 c 1.028416,0 1.863281,0.879318 1.863281,1.955078 v 7.714844 a 2.9169155,2.9169155 0 0 0 -1.863281,-0.679688 0.58916958,0.58916958 0 0 0 -0.572266,0.59961 c 0,0.328778 0.256639,0.595703 0.572266,0.595703 1.028416,0 1.863281,0.873458 1.863281,1.949218 v 14.339844 a 5.418256,5.418256 0 0 0 -2.884765,-2.007812 0.57075803,0.57075803 0 0 0 -0.703126,0.421875 0.59706025,0.59706025 0 0 0 0.402344,0.728515 c 1.872717,0.526044 3.183594,2.306762 3.183594,4.332032 0,2.477669 -1.928999,4.49414 -4.298828,4.49414 a 4.2714795,4.2714795 0 0 1 -3.802734,-2.40625 0.5786487,0.5786487 0 0 0 -0.355469,-0.296875 c -1.872718,-0.526044 -3.177735,-2.30676 -3.177735,-4.332031 0,-0.302475 0.02679,-0.610988 0.08203,-0.908203 a 0.60232069,0.60232069 0 0 0 -0.326172,-0.662109 3.8690556,3.8690556 0 0 1 -2.19336,-3.525391 c 0,-0.691749 0.173853,-1.351638 0.5,-1.935547 0.852192,0.786436 1.967077,1.263672 3.1875,1.263672 0.315626,0 0.56836,-0.270832 0.56836,-0.59961 a 0.5786487,0.5786487 0 0 0 -0.56836,-0.595703 c -2.033162,0 -3.691406,-1.729572 -3.691406,-3.857421 0,-1.144147 0.484501,-2.226429 1.326172,-2.962891 a 0.61021135,0.61021135 0 0 0 0.160156,-0.677735 3.9795249,3.9795249 0 0 1 -0.267578,-1.453124 c 0,-2.12785 1.653662,-3.851563 3.689453,-3.851563 2.033161,0 3.691407,1.723714 3.691407,3.851563 0,0.328777 0.252733,0.599609 0.568359,0.599609 0.315627,0 0.572266,-0.270832 0.572265,-0.599609 0,-2.674936 -2.000456,-4.86487 -4.517578,-5.033204 a 2.6723049,2.6723049 0 0 1 -0.349609,-1.328125 c 0,-1.06261 0.6176,-1.978514 1.496094,-2.373047 0.03419,-0.02893 0.07,-0.03177 0.101562,-0.04492 a 2.3593086,2.3593086 0 0 1 0.873047,-0.169922 c 0.95477,0 1.812942,0.557495 2.228516,1.457031 a 0.55497671,0.55497671 0 0 0 0.757812,0.275391 0.60758113,0.60758113 0 0 0 0.267578,-0.794922 3.6823099,3.6823099 0 0 0 -2.419922,-2.027344 c 1.457143,-0.928468 2.89101,-1.457031 4.035157,-1.457031 z m 4.86914,0 v 0.002 c 1.144147,0 2.580645,0.530515 4.035157,1.458984 a 3.671789,3.671789 0 0 0 -2.416016,2.027344 0.60758113,0.60758113 0 0 0 0.263672,0.794922 0.54708604,0.54708604 0 0 0 0.757812,-0.279297 2.4539965,2.4539965 0 0 1 2.226563,-1.457031 2.4198036,2.4198036 0 0 1 0.875,0.166015 c 0.03156,0.02893 0.06736,0.03245 0.101562,0.04297 a 2.5933983,2.5933983 0 0 1 1.496094,2.376953 c 0,0.470809 -0.12341,0.922472 -0.349609,1.322266 -2.519752,0.168334 -4.517578,2.364127 -4.517578,5.039062 0,0.328778 0.256638,0.59961 0.572265,0.59961 0.315626,0 0.574219,-0.270832 0.574219,-0.59961 0,-2.127849 1.649756,-3.857422 3.685547,-3.857422 2.033161,0 3.689453,1.729573 3.689453,3.857422 0,0.497112 -0.0861,0.985623 -0.267578,1.451172 a 0.61284157,0.61284157 0 0 0 0.160156,0.679688 c 0.84167,0.736462 1.324219,1.81679 1.324219,2.960937 0,2.127849 -1.653662,3.859375 -3.689453,3.859375 a 0.5786487,0.5786487 0 0 0 -0.56836,0.59375 c 0,0.328778 0.252733,0.59961 0.56836,0.59961 1.223053,0 2.343798,-0.477914 3.193359,-1.261719 0.328778,0.586539 0.494141,1.243799 0.494141,1.935547 0,1.520268 -0.859837,2.904658 -2.19336,3.52539 a 0.60232069,0.60232069 0 0 0 -0.326172,0.66211 c 0.05786,0.294585 0.08594,0.601145 0.08594,0.90625 0,2.025271 -1.311553,3.805986 -3.181641,4.332031 a 0.5786487,0.5786487 0 0 0 -0.355468,0.298828 4.2714795,4.2714795 0 0 1 -3.802735,2.40625 c -2.369829,0 -4.298828,-2.018425 -4.298828,-4.496094 0,-0.170964 -0.0064,-0.330389 -0.01953,-0.496093 a 0.63914379,0.63914379 0 0 0 0.01953,-0.160157 V 30.369141 c 0,-1.07313 0.837495,-1.953125 1.863281,-1.953125 0.315627,0 0.572266,-0.264972 0.572266,-0.59375 a 0.58916958,0.58916958 0 0 0 -0.572266,-0.601563 c -0.702269,0 -1.350388,0.256222 -1.863281,0.679688 v -5.167969 c 0,-1.07576 0.837495,-1.955078 1.863281,-1.955078 z m -4.03e-4,19.808479 a 0.58390914,0.58390914 0 0 0 -0.568127,0.59969 0.5786487,0.5786487 0 0 0 0.568127,0.59443 c 2.033162,0 3.690201,1.730686 3.690201,3.858535 0,0.136771 -0.0079,0.276173 -0.02104,0.410314 -1.770139,0.749614 -3.019494,2.567096 -3.019494,4.684425 a 0.5786487,0.5786487 0 0 0 0.568128,0.59443 c 0.315626,0 0.573388,-0.265653 0.573388,-0.59443 0,-2.127849 1.654409,-3.858535 3.690201,-3.858535 0.315626,0 0.568128,-0.270913 0.568128,-0.599691 a 0.5786487,0.5786487 0 0 0 -0.568128,-0.59443 c -0.220939,0 -0.439247,0.03156 -0.649665,0.04998 v -0.08417 c 0,-2.785405 -2.167302,-5.050025 -4.829086,-5.050025 z m -6.691283,1.273027 c -2.664414,0 -4.829086,2.26462 -4.829086,5.050025 v 0.08417 a 4.7659611,4.7659611 0 0 0 -0.644404,-0.04734 0.58390914,0.58390914 0 0 0 -0.573389,0.59443 c 0,0.328778 0.257762,0.59969 0.573389,0.59969 2.033161,0 3.6902,1.730686 3.6902,3.858535 0,0.328778 0.252501,0.599691 0.568128,0.599691 0.315627,0 0.573388,-0.270913 0.573388,-0.599691 0,-2.117328 -1.254615,-3.932181 -3.024754,-4.684424 a 4.2215053,4.2215053 0 0 1 -0.02104,-0.405054 c 0,-2.127849 1.654409,-3.858535 3.690201,-3.858535 0.315626,0 0.573388,-0.270913 0.573388,-0.59969 a 0.58390914,0.58390914 0 0 0 -0.573388,-0.59443 M 14.917969,5.5 C 13.729942,5.5 12.657088,6.0628369 11.859375,6.8613281 11.061662,7.6598194 10.5,8.7319796 10.5,9.9199219 v 0.00195 l 0.169922,46.1621091 c 0.0012,1.186757 0.564341,2.257235 1.361328,3.054688 C 12.829121,59.93701 13.900473,60.5 15.087891,60.5 h 33.99414 c 1.188027,0 2.260881,-0.562837 3.058594,-1.361328 C 52.938338,58.340181 53.5,57.26802 53.5,56.080078 v -29.0625 c 0,-0.854999 0.0142,-1.492302 -0.318359,-2.158203 C 52.849079,24.193474 52.353999,23.745624 51.5,22.890625 L 36.076172,7.4550781 36.019531,7.4121094 C 35.26819,6.8438401 34.107686,5.5 32,5.5 Z m 0,2 H 32 c 1.274361,0 1.741373,0.6756979 2.746094,1.453125 l 15.33789,15.351562 c 0.852631,0.853699 1.214226,1.260262 1.308594,1.449219 C 51.487016,25.943004 51.5,26.162579 51.5,27.017578 v 29.0625 c 0,0.522056 -0.291855,1.160524 -0.775391,1.644531 C 50.241074,58.208617 49.603002,58.5 49.082031,58.5 h -33.99414 c -0.519581,0 -1.158701,-0.29123 -1.642578,-0.775391 -0.483878,-0.48416 -0.775391,-1.122865 -0.775391,-1.644531 v -0.002 -0.002 L 12.5,9.9199219 c 0,-0.522056 0.291855,-1.1605238 0.775391,-1.6445313 C 13.758926,7.7913831 14.396998,7.5 14.917969,7.5 Z" />
</svg>
