<?xml version="1.0" encoding="UTF-8" standalone="no"?>
<svg
   height="64"
   width="64"
   version="1.1"
   id="svg9"
   sodipodi:docname="application-x-trash.svg"
   inkscape:version="1.1.2 (0a00cf5339, 2022-02-04)"
   xmlns:inkscape="http://www.inkscape.org/namespaces/inkscape"
   xmlns:sodipodi="http://sodipodi.sourceforge.net/DTD/sodipodi-0.dtd"
   xmlns="http://www.w3.org/2000/svg"
   xmlns:svg="http://www.w3.org/2000/svg">
  <defs
     id="defs13" />
  <sodipodi:namedview
     id="namedview11"
     pagecolor="#ffffff"
     bordercolor="#666666"
     borderopacity="1.0"
     inkscape:pageshadow="2"
     inkscape:pageopacity="0.0"
     inkscape:pagecheckerboard="0"
     showgrid="false"
     inkscape:zoom="10.21875"
     inkscape:cx="31.95107"
     inkscape:cy="32"
     inkscape:window-width="1600"
     inkscape:window-height="836"
     inkscape:window-x="0"
     inkscape:window-y="0"
     inkscape:window-maximized="1"
     inkscape:current-layer="svg9" />
  <path
     style="color:#000000;fill:#e5e5e5;fill-opacity:0.2;stroke-width:2;-inkscape-stroke:none"
     d="m 11.67,56.08 c 0,1.71 1.71,3.42 3.417,3.42 h 33.996 c 1.709,0 3.417,-1.71 3.417,-3.42 V 27.017 c 0,-1.71 0,-1.71 -1.708,-3.42 L 35.417,8.21 C 34.51,7.524 33.708,6.5 32,6.5 H 14.917 C 13.208,6.5 11.5,8.21 11.5,9.92 Z"
     id="path1172" />
  <path
     style="color:#000000;fill:#e5e5e5;-inkscape-stroke:none"
     d="M 14.917969,5.5 C 13.729942,5.5 12.657088,6.0628369 11.859375,6.8613281 11.061662,7.6598194 10.5,8.7319796 10.5,9.9199219 v 0.00195 l 0.169922,46.1621091 c 0.0012,1.186757 0.564341,2.257235 1.361328,3.054688 C 12.829121,59.93701 13.900473,60.5 15.087891,60.5 h 33.99414 c 1.188027,0 2.260881,-0.562837 3.058594,-1.361328 C 52.938338,58.340181 53.5,57.26802 53.5,56.080078 v -29.0625 c 0,-0.854999 0.0142,-1.492302 -0.318359,-2.158203 C 52.849079,24.193474 52.353999,23.745624 51.5,22.890625 L 36.076172,7.4550781 36.019531,7.4121094 C 35.26819,6.8438401 34.107686,5.5 32,5.5 Z m 0,2 H 32 c 1.274361,0 1.741373,0.6756979 2.746094,1.453125 l 15.33789,15.351562 c 0.852631,0.853699 1.214226,1.260262 1.308594,1.449219 C 51.487016,25.943004 51.5,26.162579 51.5,27.017578 v 29.0625 c 0,0.522056 -0.291855,1.160524 -0.775391,1.644531 C 50.241074,58.208617 49.603002,58.5 49.082031,58.5 h -33.99414 c -0.519581,0 -1.158701,-0.29123 -1.642578,-0.775391 -0.483878,-0.48416 -0.775391,-1.122865 -0.775391,-1.644531 v -0.002 -0.002 L 12.5,9.9199219 c 0,-0.522056 0.291855,-1.1605238 0.775391,-1.6445313 C 13.758926,7.7913831 14.396998,7.5 14.917969,7.5 Z"
     id="path1174" />
  <path
     style="color:#000000;fill:#e5e5e5;-inkscape-stroke:none"
     d="m 29.242187,21.607422 -0.166015,0.802734 c -0.555048,-0.271312 -1.138977,-0.48456 -1.798828,-0.486328 h -0.002 c -1.449677,-0.0313 -2.795661,0.750483 -3.492188,2.021484 l -0.0039,-0.002 -0.0059,0.01172 -3.402343,5.867188 7.492187,4.353515 4.367188,-7.550781 2.085937,3.623047 -3.488281,1.978515 9.667969,0.136719 4.726562,-8.46875 -3.451172,2.03711 -1.861328,-3.173829 c -0.433138,-0.737688 -1.230264,-1.15039 -2.130859,-1.15039 z m 1.59961,1 h 6.9375 c 0.628729,0 1.006554,0.211694 1.267578,0.65625 l 2.369141,4.039062 1.132812,-0.669922 -2.634766,4.722657 -5.386718,-0.07617 1.158203,-0.65625 -3.957031,-6.878906 c -0.0023,-0.0042 -0.0055,-0.0076 -0.0078,-0.01172 -0.231388,-0.423162 -0.536804,-0.794146 -0.878906,-1.125 z m -3.587891,0.314453 h 0.0059 0.0059 c 1.265646,0 2.170298,0.530891 2.900391,1.767578 l 1.029296,1.728516 -3.697265,6.388672 -5.761719,-3.347657 2.908203,-5.015625 -0.447265,-0.257812 0.455078,0.246094 c 0.517009,-0.951703 1.518758,-1.533691 2.601562,-1.509766 z m 3.970703,1.095703 -0.228515,0.130859 c -0.0013,-0.0021 -0.0046,-0.0018 -0.0059,-0.0039 z m 13.574219,7.228516 -7.498047,4.279297 4.392578,7.59375 h -4.18164 v -4.017579 l -4.966797,8.296875 4.966797,8.298829 v -3.980469 h 3.548828 c 0.873227,0.02076 1.693663,-0.431186 2.140625,-1.181641 l 0.002,-0.0039 4.304687,-7.496094 -0.626953,-0.550781 c 1.092324,-0.770532 1.875,-2.016127 1.875,-3.341797 0,-0.718077 -0.203113,-1.397183 -0.552734,-2.015625 v -0.002 z m -0.367187,1.361328 2.90039,5.009765 c 0.278882,0.492853 0.423828,0.991371 0.423828,1.525391 0,1.029287 -0.714462,2.216568 -1.644531,2.746094 -0.541192,0.265366 -1.135426,0.404356 -1.738281,0.398437 h -0.002 -2.003907 l -3.697265,-6.392578 z m -20.863282,0.414062 -9.691406,0.179688 3.476563,1.972656 -1.830078,3.203125 c -7.09e-4,0.0012 -0.0012,0.0027 -0.002,0.0039 v 0.002 c -0.201547,0.347267 -0.310546,0.761784 -0.310546,1.181641 v 0.0059 l 0.002,0.0039 c 0.0068,0.397947 0.110073,0.788453 0.302734,1.136718 l 0.002,0.0039 4.341797,7.460937 0.789062,-0.273437 c 0.157836,2.112321 1.897098,3.820312 4.046875,3.820312 h 6.81836 v -8.671875 h -8.800781 l 2.064453,-3.568359 3.484375,1.998047 z m -0.582031,1.009766 2.660156,4.796875 -1.234375,-0.708984 -3.964843,6.851562 0.347656,0.201172 -0.351563,-0.195313 c -0.245047,0.44032 -0.305275,0.967427 -0.425781,1.482422 l -3.626953,-6.232422 c -0.1128,-0.203903 -0.173063,-0.433082 -0.177734,-0.666015 0.0012,-0.202203 0.09582,-0.544216 0.173828,-0.677735 l 0.002,-0.0039 2.330078,-4.082031 -1.169922,-0.664063 z m 13.525391,8.685547 v 1.402344 H 44.4375 c 0.0014,0 0.0025,10e-7 0.0039,0 0.501945,-3.36e-4 0.966063,-0.08541 1.410156,-0.208985 l -3.509765,6.113281 c -0.263141,0.441817 -0.741763,0.705585 -1.25586,0.69336 h -0.0059 -4.568359 v 1.363281 l -2.800782,-4.681641 z m -13.429688,1.333984 h 7.431641 v 6.671875 h -5.81836 c -1.70147,0 -3.105468,-1.407446 -3.105468,-3.109375 0,-0.409529 0.239211,-1.349331 0.521484,-1.830078 l 0.002,-0.0039 z"
     id="path6" />
</svg>
