<?xml version="1.0" encoding="UTF-8" standalone="no"?>
<svg
   height="64"
   width="64"
   version="1.1"
   id="svg9"
   sodipodi:docname="application-vnd.visio.svg"
   inkscape:version="1.1.2 (0a00cf5339, 2022-02-04)"
   xmlns:inkscape="http://www.inkscape.org/namespaces/inkscape"
   xmlns:sodipodi="http://sodipodi.sourceforge.net/DTD/sodipodi-0.dtd"
   xmlns:xlink="http://www.w3.org/1999/xlink"
   xmlns="http://www.w3.org/2000/svg"
   xmlns:svg="http://www.w3.org/2000/svg">
  <defs
     id="defs13">
    <linearGradient
       inkscape:collect="always"
       id="linearGradient847">
      <stop
         style="stop-color:#198cfe;stop-opacity:1;"
         offset="0"
         id="stop843" />
      <stop
         style="stop-color:#19fee4;stop-opacity:1"
         offset="1"
         id="stop845" />
    </linearGradient>
    <linearGradient
       inkscape:collect="always"
       xlink:href="#linearGradient847"
       id="linearGradient849"
       x1="0.36665101"
       y1="6.2247249"
       x2="13.810569"
       y2="0.67933923"
       gradientUnits="userSpaceOnUse" />
  </defs>
  <sodipodi:namedview
     id="namedview11"
     pagecolor="#ffffff"
     bordercolor="#666666"
     borderopacity="1.0"
     inkscape:pageshadow="2"
     inkscape:pageopacity="0.0"
     inkscape:pagecheckerboard="0"
     showgrid="false"
     inkscape:zoom="10.21875"
     inkscape:cx="31.95107"
     inkscape:cy="32"
     inkscape:window-width="1600"
     inkscape:window-height="836"
     inkscape:window-x="0"
     inkscape:window-y="0"
     inkscape:window-maximized="1"
     inkscape:current-layer="svg9" />
  <path
     style="color:#000000;fill:#198cfe;fill-opacity:0.2;stroke-width:2;-inkscape-stroke:none"
     d="m 11.67,56.08 c 0,1.71 1.71,3.42 3.417,3.42 h 33.996 c 1.709,0 3.417,-1.71 3.417,-3.42 V 27.017 c 0,-1.71 0,-1.71 -1.708,-3.42 L 35.417,8.21 C 34.51,7.524 33.708,6.5 32,6.5 H 14.917 C 13.208,6.5 11.5,8.21 11.5,9.92 Z"
     id="path11233" />
  <g
     transform="matrix(2.8166951,0,0,2.8166951,9.4672559,15.466848)"
     id="g2522"
     style="fill:none;stroke:#198cfe;stroke-width:0.355026">
    <path
       id="path6"
       style="color:#000000;fill:url(#linearGradient849);stroke:none;-inkscape-stroke:none;fill-opacity:1"
       d="m 11.689453,1.9375 -0.125,0.1269531 -1.5703124,1.5683594 H 5.1796875 c -0.2710165,-0.5898377 -0.8321256,-0.9990286 -1.4902344,-1 -0.9243613,0 -1.6777344,0.753373 -1.6777343,1.6777344 9.714e-4,0.6581087 0.4101623,1.2192179 1,1.4902343 v 7.1874998 h 2.9999999 v 1 h 3.3554688 v -1 H 12.367188 V 6.0039062 l 1.693359,-1.6933593 z m -0.002,0.5039063 1.871094,1.8691406 -1.546875,1.546875 V 12.632813 H 9.0117188 v 1 H 6.3671875 v -1 h -3 V 5.5957031 L 3.2480469,5.5546875 C 2.7197335,5.3679012 2.3680146,4.870907 2.3671875,4.3105469 c 0,-0.7324913 0.5897744,-1.3222656 1.3222656,-1.3222656 0.5603601,8.271e-4 1.0573544,0.352546 1.2441406,0.8808593 l 0.041016,0.1191407 h 5.1660153 z m 0.002,0.9101562 -0.125,0.125 -0.833984,0.8339844 0.958984,0.9570312 0.957031,-0.9570312 z m -7.9999999,0.28125 c -0.3720771,0 -0.6777344,0.3056572 -0.6777343,0.6777344 0,0.3720771 0.3056572,0.6777344 0.6777343,0.6777343 0.3720772,0 0.6777344,-0.3056572 0.6777344,-0.6777343 0,-0.3720772 -0.3056572,-0.6777344 -0.6777344,-0.6777344 z M 11.689453,3.8535156 12.144531,4.3105469 11.689453,4.765625 11.234375,4.3085937 Z M 3.6894531,3.9882813 c 0.1802071,0 0.3222656,0.1420585 0.3222656,0.3222656 0,0.180207 -0.1420585,0.3222656 -0.3222656,0.3222656 -0.180207,0 -0.3222656,-0.1420586 -0.3222656,-0.3222656 0,-0.1802071 0.1420586,-0.3222657 0.3222656,-0.3222656 z M 5.1015625,4.6328125 V 4.8105469 L 4.9335937,4.75 C 4.8003203,5.1255721 4.5044784,5.421414 4.1289062,5.5546875 l -0.1171875,0.041016 v 6.3925775 h 2.3554688 v -1 h 2.6445313 v 1 H 11.367188 V 5.8574219 L 10.140625,4.6328125 Z m 0.046875,0.3554687 h 4.8457031 l 1.0175784,1.015625 V 11.632813 H 9.3671875 v -1 H 6.0117187 v 1 H 4.3671875 V 5.7695312 c 0.3456142,-0.1652465 0.6160034,-0.4356357 0.78125,-0.78125 z m 1.8632812,6.6445318 v 0.177734 1.177734 h 1.3554688 v -1.355468 z m 0.3554688,0.355468 h 0.6445313 v 0.644532 H 7.3671875 Z M 1.9351449,-3.5384902 c -0.4217805,0 -0.8026716,0.1998217 -1.08588042,0.4833069 -0.28320886,0.2834851 -0.48261347,0.6641299 -0.48261347,1.0858803 v 6.923e-4 l 0.0603267,16.3887487 c 4.2603e-4,0.42133 0.20035573,0.801377 0.48330683,1.084494 C 1.1935495,15.788064 1.5739073,15.98794 1.9954716,15.98794 H 14.064275 c 0.421781,0 0.802672,-0.199822 1.085881,-0.483307 0.283208,-0.283485 0.482613,-0.66413 0.482613,-1.08588 V 4.1008095 c 0,-0.3035469 0.005,-0.529806 -0.113026,-0.7662182 C 15.401675,3.0981791 15.225909,2.9391807 14.922717,2.6356339 L 9.4468571,-2.8443866 9.4267481,-2.8596416 C 9.1600025,-3.061392 8.7479934,-3.5384902 7.9997101,-3.5384902 Z m 0,0.710052 h 6.0645652 c 0.4524312,0 0.6182326,0.2398903 0.9749347,0.5158972 l 5.4453502,5.4502036 c 0.302706,0.3030854 0.431081,0.4474258 0.464584,0.5145105 0.03353,0.067135 0.03814,0.1450895 0.03814,0.4486364 V 14.418753 c 0,0.185343 -0.103616,0.412016 -0.275284,0.583851 -0.171667,0.171835 -0.3982,0.275284 -0.583158,0.275284 H 1.9954716 c -0.1844648,0 -0.411369,-0.103394 -0.5831579,-0.275284 -0.1717893,-0.171889 -0.275284,-0.398646 -0.275284,-0.583851 v -7.1e-4 -7.1e-4 L 1.076703,-1.969303 c 0,-0.1853435 0.1036161,-0.4120161 0.275284,-0.5838514 0.1716675,-0.1718352 0.3981996,-0.2752838 0.5831579,-0.2752838 z" />
  </g>
</svg>
