<?xml version="1.0" encoding="UTF-8" standalone="no"?>
<svg
   height="64"
   width="64"
   version="1.1"
   id="svg9"
   sodipodi:docname="application-x-ruby.svg"
   inkscape:version="1.1.2 (0a00cf5339, 2022-02-04)"
   xmlns:inkscape="http://www.inkscape.org/namespaces/inkscape"
   xmlns:sodipodi="http://sodipodi.sourceforge.net/DTD/sodipodi-0.dtd"
   xmlns:xlink="http://www.w3.org/1999/xlink"
   xmlns="http://www.w3.org/2000/svg"
   xmlns:svg="http://www.w3.org/2000/svg">
  <defs
     id="defs13">
    <linearGradient
       inkscape:collect="always"
       id="linearGradient846">
      <stop
         style="stop-color:#ff0000;stop-opacity:1;"
         offset="0"
         id="stop842" />
      <stop
         style="stop-color:#ff0086;stop-opacity:0.99000001"
         offset="1"
         id="stop844" />
    </linearGradient>
    <linearGradient
       inkscape:collect="always"
       xlink:href="#linearGradient846"
       id="linearGradient848"
       x1="10.5"
       y1="33"
       x2="45.715122"
       y2="13.649532"
       gradientUnits="userSpaceOnUse" />
  </defs>
  <sodipodi:namedview
     id="namedview11"
     pagecolor="#ffffff"
     bordercolor="#666666"
     borderopacity="1.0"
     inkscape:pageshadow="2"
     inkscape:pageopacity="0.0"
     inkscape:pagecheckerboard="0"
     showgrid="false"
     inkscape:zoom="7.2257474"
     inkscape:cx="31.899814"
     inkscape:cy="31.969011"
     inkscape:window-width="1600"
     inkscape:window-height="836"
     inkscape:window-x="0"
     inkscape:window-y="0"
     inkscape:window-maximized="1"
     inkscape:current-layer="svg9" />
  <path
     style="color:#000000;fill:#ff0000;fill-opacity:0.2;stroke-width:2;-inkscape-stroke:none"
     d="m 11.67,56.08 c 0,1.71 1.71,3.42 3.417,3.42 h 33.996 c 1.709,0 3.417,-1.71 3.417,-3.42 V 27.017 c 0,-1.71 0,-1.71 -1.708,-3.42 L 35.417,8.21 C 34.51,7.524 33.708,6.5 32,6.5 H 14.917 C 13.208,6.5 11.5,8.21 11.5,9.92 Z"
     id="path2867" />
  <path
     id="path6"
     style="color:#000000;fill:url(#linearGradient848);-inkscape-stroke:none;fill-opacity:1"
     d="m 26.105469,21.314453 v 0.5 5.894531 h 3.697265 v -6.394531 z m 8.091797,0 v 0.5 5.894531 h 3.697265 v -6.394531 z m -7.091797,1 h 1.697265 v 4.394531 h -1.697265 z m 8.091797,0 h 1.697265 v 4.394531 h -1.697265 z m 9.773437,1.513672 -0.244141,0.412109 -2.667968,4.5 3.232422,1.847657 2.917968,-5.023438 z m -25.986328,0.169922 -0.421875,0.25 -2.714844,1.609375 3.021485,4.914062 1.884765,-1.117187 -5.621093,5.621094 L 32,54.955078 48.867187,35.275391 42.998047,29.40625 H 21.171875 l 0.833984,-0.494141 z m 26.357422,1.164062 1.482422,0.794922 -1.898438,3.269531 L 43.4375,28.375 Z m -26.69336,0.197266 1.97461,3.210937 -1.417969,0.839844 -1.974609,-3.210937 z m 2.767579,5.046875 H 42.583984 L 47.505859,35.328125 32,53.419922 16.494141,35.328125 Z m 0.769531,1.699219 -0.146485,0.146484 -3.550781,3.550781 h 12.666016 v -3.697265 z m 10.666015,0 v 0.5 3.197265 h 12.669922 l -3.699218,-3.697265 z m -10.251953,1 h 7.554688 v 1.697265 h -9.251953 z m 11.251953,0 h 7.556641 l 1.697266,1.697265 H 33.851562 Z M 20.542969,37.5 l 0.710937,0.826172 9.900391,11.505859 V 37.5 Z m 12.308593,0 V 38 49.832031 L 43.460937,37.5 Z m -10.128906,1 h 7.431641 v 8.636719 z m 11.128906,0 h 7.429688 l -7.429688,8.636719 z M 14.917969,5.5 C 13.729942,5.5 12.657088,6.0628369 11.859375,6.8613281 11.061662,7.6598194 10.5,8.7319796 10.5,9.9199219 v 0.00195 l 0.169922,46.1621091 c 0.0012,1.186757 0.564341,2.257235 1.361328,3.054688 C 12.829121,59.93701 13.900473,60.5 15.087891,60.5 h 33.99414 c 1.188027,0 2.260881,-0.562837 3.058594,-1.361328 C 52.938338,58.340181 53.5,57.26802 53.5,56.080078 v -29.0625 c 0,-0.854999 0.0142,-1.492302 -0.318359,-2.158203 C 52.849079,24.193474 52.353999,23.745624 51.5,22.890625 L 36.076172,7.4550781 36.019531,7.4121094 C 35.26819,6.8438401 34.107686,5.5 32,5.5 Z m 0,2 H 32 c 1.274361,0 1.741373,0.6756979 2.746094,1.453125 l 15.33789,15.351562 c 0.852631,0.853699 1.214226,1.260262 1.308594,1.449219 C 51.487016,25.943004 51.5,26.162579 51.5,27.017578 v 29.0625 c 0,0.522056 -0.291855,1.160524 -0.775391,1.644531 C 50.241074,58.208617 49.603002,58.5 49.082031,58.5 h -33.99414 c -0.519581,0 -1.158701,-0.29123 -1.642578,-0.775391 -0.483878,-0.48416 -0.775391,-1.122865 -0.775391,-1.644531 v -0.002 -0.002 L 12.5,9.9199219 c 0,-0.522056 0.291855,-1.1605238 0.775391,-1.6445313 C 13.758926,7.7913831 14.396998,7.5 14.917969,7.5 Z" />
</svg>
