<?xml version="1.0" encoding="UTF-8" standalone="no"?>
<svg
   height="64"
   width="64"
   version="1.1"
   id="svg11"
   sodipodi:docname="application-x-m4.svg"
   inkscape:version="1.1.2 (0a00cf5339, 2022-02-04)"
   xmlns:inkscape="http://www.inkscape.org/namespaces/inkscape"
   xmlns:sodipodi="http://sodipodi.sourceforge.net/DTD/sodipodi-0.dtd"
   xmlns="http://www.w3.org/2000/svg"
   xmlns:svg="http://www.w3.org/2000/svg">
  <defs
     id="defs15" />
  <sodipodi:namedview
     id="namedview13"
     pagecolor="#ffffff"
     bordercolor="#666666"
     borderopacity="1.0"
     inkscape:pageshadow="2"
     inkscape:pageopacity="0.0"
     inkscape:pagecheckerboard="0"
     showgrid="false"
     inkscape:zoom="10.21875"
     inkscape:cx="31.95107"
     inkscape:cy="33.565749"
     inkscape:window-width="1600"
     inkscape:window-height="836"
     inkscape:window-x="0"
     inkscape:window-y="0"
     inkscape:window-maximized="1"
     inkscape:current-layer="svg11" />
  <path
     style="color:#000000;fill:#e5e5e5;fill-opacity:0.2;stroke-width:2;-inkscape-stroke:none"
     d="m 11.67,56.08 c 0,1.71 1.71,3.42 3.417,3.42 h 33.996 c 1.709,0 3.417,-1.71 3.417,-3.42 V 27.017 c 0,-1.71 0,-1.71 -1.708,-3.42 L 35.417,8.21 C 34.51,7.524 33.708,6.5 32,6.5 H 14.917 C 13.208,6.5 11.5,8.21 11.5,9.92 Z"
     id="path3855" />
  <path
     style="color:#000000;fill:#e6e5e5;-inkscape-stroke:none"
     d="M 14.917969,5.5 C 13.729942,5.5 12.657088,6.0628369 11.859375,6.8613281 11.061662,7.6598194 10.5,8.7319796 10.5,9.9199219 v 0.00195 l 0.169922,46.1621091 c 0.0012,1.186757 0.564341,2.257235 1.361328,3.054688 C 12.829121,59.93701 13.900473,60.5 15.087891,60.5 h 33.99414 c 1.188027,0 2.260881,-0.562837 3.058594,-1.361328 C 52.938338,58.340181 53.5,57.26802 53.5,56.080078 v -29.0625 c 0,-0.854999 0.0142,-1.492302 -0.318359,-2.158203 C 52.849079,24.193474 52.353999,23.745624 51.5,22.890625 L 36.076172,7.4550781 36.019531,7.4121094 C 35.26819,6.8438401 34.107686,5.5 32,5.5 Z m 0,2 H 32 c 1.274361,0 1.741373,0.6756979 2.746094,1.453125 l 15.33789,15.351562 c 0.852631,0.853699 1.214226,1.260262 1.308594,1.449219 C 51.487016,25.943004 51.5,26.162579 51.5,27.017578 v 29.0625 c 0,0.522056 -0.291855,1.160524 -0.775391,1.644531 C 50.241074,58.208617 49.603002,58.5 49.082031,58.5 h -33.99414 c -0.519581,0 -1.158701,-0.29123 -1.642578,-0.775391 -0.483878,-0.48416 -0.775391,-1.122865 -0.775391,-1.644531 v -0.002 -0.002 L 12.5,9.9199219 c 0,-0.522056 0.291855,-1.1605238 0.775391,-1.6445313 C 13.758926,7.7913831 14.396998,7.5 14.917969,7.5 Z"
     id="path3857" />
  <g
     fill="#807f7f"
     id="g8"
     transform="matrix(3.0314468,0,0,3.0314468,7.7214893,11.637067)"
     style="fill:none;stroke:#e6e5e5;stroke-width:0.329875">
    <path
       style="color:#000000;fill:#e6e5e5;stroke:none;-inkscape-stroke:none"
       d="M 6.1210937,1.8398437 C 5.9525212,1.8409561 5.8082956,1.962843 5.7792969,2.1289063 l -0.00195,0.00391 -0.125,0.9003906 C 5.4832925,3.1109983 5.3211299,3.2040306 5.1699219,3.3125 L 4.3242187,2.9707031 C 4.1660831,2.9107209 3.9839578,2.9751793 3.8984375,3.1210938 L 3.1621094,4.3964844 c -0.085053,0.1478343 -0.048791,0.338263 0.083984,0.4453125 L 3.953125,5.3964844 C 3.943395,5.4904274 3.934423,5.5852086 3.933594,5.6796875 v 0.00195 c 0,0.097887 0.00973,0.190271 0.019531,0.2832031 L 3.2460938,6.5195312 C 3.1122689,6.6263974 3.0760122,6.8187538 3.1621094,6.9667969 l 0.7363281,1.2734375 c 0.084852,0.1479181 0.2669092,0.2123525 0.4257812,0.1503906 h 0.00195 l 0.8418,-0.3417969 c 0.1505345,0.1078627 0.3127055,0.2021348 0.484375,0.28125 l 0.125,0.9003907 0.00195,0.00195 c 0.028424,0.1629673 0.1692814,0.2910156 0.34375,0.2910156 h 1.4707031 0.00195 c 0.1691548,-0.00127 0.3155616,-0.1242213 0.34375,-0.2910156 v -0.00391 L 8.0664063,8.3300781 c 0.1705716,-0.078564 0.3309672,-0.1723514 0.4824218,-0.28125 l 0.84375,0.3417969 h 0.00195 C 9.5499354,8.448669 9.7321084,8.388355 9.8183562,8.2402344 L 10.554688,6.9667969 c 0.08505,-0.1478343 0.04879,-0.3382631 -0.08399,-0.4453125 v -0.00195 L 9.7636719,5.9648437 c 0.0098,-0.092701 0.019531,-0.1846301 0.019531,-0.2832031 0,-0.098056 -0.0097,-0.1920729 -0.019531,-0.2851562 L 10.472656,4.8417969 c 0.133825,-0.1068662 0.170082,-0.2992226 0.08399,-0.4472657 L 9.8203125,3.1210938 C 9.7354606,2.9731757 9.5534033,2.9087413 9.3945313,2.9707031 l -0.00195,0.00195 L 8.5488281,3.3125 C 8.3977269,3.2043763 8.2370569,3.1110773 8.0683594,3.0332031 L 7.9414062,2.1308594 7.9394531,2.1269531 C 7.9077651,1.9626582 7.7630108,1.8420996 7.5957031,1.8398437 H 6.1230469 Z m 0.00195,0.3281251 H 7.59375 c 0.011944,7.95e-4 0.019157,0.00942 0.021484,0.021484 l 0.1503906,1.0585938 0.085937,0.037109 C 8.060525,3.3729252 8.2579658,3.4866664 8.4375,3.625 L 8.511719,3.683594 9.5136721,3.2792971 c 0.00898,-0.0035 0.016686,-0.00251 0.021484,0.00586 v 0.00195 l 0.7363279,1.2734375 c 0.0051,0.00878 0.004,0.017098 -0.0039,0.023437 L 9.4160156,5.25 9.4277344,5.34375 c 0.014508,0.1141298 0.025391,0.2268869 0.025391,0.3378906 0,0.1120856 -0.010868,0.2236453 -0.025391,0.3378906 l -0.011719,0.091797 0.074219,0.058594 0.7734376,0.6074218 c 0.0082,0.00662 0.01112,0.014295 0.0059,0.023437 L 9.5332031,8.0742188 c -0.00575,0.00988 -0.012845,0.011769 -0.023437,0.00781 l -1,-0.4042969 -0.074219,0.058594 C 8.2569792,7.8744831 8.0606336,7.9876171 7.8496094,8.0761719 l -0.085937,0.037109 -0.1503907,1.0625 c -0.00189,0.011154 -0.010173,0.017493 -0.021484,0.017578 h -1.46875 c -0.00953,0 -0.017956,-0.00855 -0.019531,-0.017578 L 5.953125,8.1132813 5.8671875,8.0761719 C 5.6560482,7.9879626 5.4596218,7.8731742 5.28125,7.7363281 L 5.2070312,7.6796875 4.2050781,8.0839844 c -0.00898,0.0035 -0.016686,5.521e-4 -0.021484,-0.00781 L 3.4472656,6.8007812 c -0.00469,-0.00807 -0.00243,-0.015407 0.00391,-0.021484 L 4.3007812,6.1113281 4.2890625,6.0195312 C 4.2745545,5.9054015 4.2636719,5.7926443 4.2636719,5.6816406 4.2646642,5.5685312 4.2737464,5.455822 4.2890625,5.34375 L 4.3007812,5.25 3.453125,4.5839844 c -0.00821,-0.00662 -0.011119,-0.014295 -0.00586,-0.023437 l 0.7363287,-1.273438 c 0.00527,-0.00899 0.013692,-0.011509 0.023437,-0.00781 l 1,0.4042969 L 5.28125,3.625 C 5.4604617,3.4864827 5.6582246,3.3725541 5.8671875,3.2851563 l 0.085937,-0.037109 0.1503906,-1.0625 c 0.00183,-0.010487 0.00929,-0.016873 0.019531,-0.017578 z M 6.859375,4.2304687 c -0.4702337,0 -0.8431624,0.1817119 -1.0878906,0.4570313 -0.2447282,0.2753194 -0.3632813,0.6357382 -0.3632813,0.9941406 0,0.3584024 0.1185531,0.7188213 0.3632813,0.9941406 0.2447282,0.2753194 0.6176569,0.4589844 1.0878906,0.4589844 0.4702337,0 0.8451155,-0.183665 1.0898437,-0.4589844 C 8.193947,6.4004619 8.3125,6.040043 8.3125,5.6816406 8.3125,5.3232382 8.193947,4.9628194 7.9492187,4.6875 7.7044905,4.4121806 7.3296087,4.2304687 6.859375,4.2304687 Z m 0,0.3300782 c 0.387765,0 0.6575257,0.1383979 0.8417969,0.3457031 0.1842712,0.2073052 0.28125,0.4902937 0.28125,0.7753906 0,0.285097 -0.096979,0.5680855 -0.28125,0.7753906 C 7.5169007,6.6643364 7.24714,6.8046875 6.859375,6.8046875 6.47161,6.8046875 6.2018493,6.6643364 6.0175781,6.4570312 5.8333069,6.2497261 5.7382813,5.9667376 5.7382812,5.6816406 5.7382812,5.3965437 5.8333069,5.1135552 6.0175781,4.90625 6.2018493,4.6989448 6.47161,4.5605469 6.859375,4.5605469 Z m 4.101563,4.0234375 c -0.127795,-0.068198 -0.287502,-0.033856 -0.376954,0.080078 h -0.002 l -0.386718,0.5175781 c -0.120645,-0.00675 -0.2412751,-0.00201 -0.3613286,0.011719 l -0.4101563,-0.5 v -0.00195 C 9.329409,8.5810761 9.1655537,8.5542203 9.0410156,8.6289063 l -0.921875,0.5625 C 7.9942375,9.2680545 7.9436202,9.4272333 8,9.5625 l 0.2539063,0.59375 c -0.067455,0.101226 -0.1255558,0.206701 -0.1738282,0.318359 L 7.4453125,10.580078 C 7.3010577,10.606097 7.193852,10.73627 7.1972656,10.882813 l 0.027344,1.076171 c 0.00292,0.146258 0.1145309,0.270361 0.2597656,0.289063 L 8.125,12.322266 c 0.053761,0.108468 0.115528,0.212672 0.1875,0.3125 l -0.2265625,0.605468 v 0.002 c -0.046788,0.137091 0.011846,0.289385 0.1386719,0.359375 l 0.00195,0.002 0.9453125,0.515625 c 0.1272891,0.06869 0.2888404,0.03505 0.3789063,-0.07813 v -0.002 l 0.3847656,-0.517579 c 0.1219052,0.0072 0.2428482,0.0042 0.3632812,-0.0098 l 0.410156,0.5 h 0.002 c 0.09442,0.11033 0.258274,0.137186 0.382812,0.0625 l 0.919922,-0.560547 v -0.002 c 0.124903,-0.07665 0.177473,-0.235827 0.121094,-0.371094 l -0.25586,-0.591797 c 0.06741,-0.101463 0.124984,-0.208719 0.173828,-0.320312 L 12.689453,12.125 c 0.144255,-0.02602 0.251461,-0.156192 0.248047,-0.302734 l -0.02734,-1.076172 v -0.002 c -0.0038,-0.145327 -0.113605,-0.269547 -0.257812,-0.289063 h -0.002 l -0.640625,-0.07422 c -0.05403,-0.108834 -0.116445,-0.211981 -0.1875,-0.310546 l 0.226562,-0.6074224 0.002,-0.00391 C 12.095115,9.3222809 12.035335,9.1720158 11.91016,9.1015107 h -0.002 L 10.962891,8.5839844 Z m -0.132813,0.3027344 0.900391,0.4921875 -0.275391,0.7343747 0.05859,0.07422 c 0.100819,0.12701 0.1847,0.265631 0.25,0.414063 l 0.03711,0.08594 0.783203,0.0918 0.02539,1.023437 -0.779297,0.13086 -0.03516,0.08789 c -0.05711,0.150029 -0.133259,0.290707 -0.228516,0.419922 l -0.05664,0.07617 0.03711,0.08789 0.273437,0.638672 -0.873046,0.535156 -0.501954,-0.611328 -0.09375,0.01563 c -0.15806,0.0265 -0.318059,0.03111 -0.4804684,0.01367 l -0.09375,-0.0098 -0.4707031,0.630859 -0.8984375,-0.49414 0.2753906,-0.734375 -0.058594,-0.07227 c -0.101541,-0.127155 -0.1842518,-0.26785 -0.25,-0.416015 l -0.037109,-0.08594 -0.78125,-0.08984 -0.027344,-1.02539 0.7792969,-0.13086 0.033203,-0.08789 c 0.056061,-0.15016 0.1328134,-0.293299 0.2285156,-0.421875 l 0.058594,-0.07617 -0.3125,-0.7246096 L 9.1875,8.9257813 9.6894531,9.5371094 9.7832031,9.5214844 C 9.9425109,9.4953608 10.105087,9.49081 10.265625,9.5078125 l 0.09375,0.00977 z M 9.6972656,10.287109 c -0.2652877,0.0956 -0.4753253,0.294005 -0.6054687,0.533204 -0.1301434,0.239198 -0.1810394,0.524178 -0.1171875,0.798828 0.063852,0.27465 0.2502482,0.533265 0.5625,0.703125 v 0.002 c 0.3123674,0.169875 0.6311416,0.185537 0.8964846,0.08984 0.265343,-0.09569 0.475336,-0.295834 0.605469,-0.535157 0.130132,-0.239323 0.181097,-0.52213 0.117187,-0.796875 -0.06391,-0.274744 -0.248179,-0.535203 -0.560547,-0.705078 -0.312252,-0.169859 -0.6331496,-0.185439 -0.8984374,-0.08984 z m 0.1132813,0.310547 c 0.1796823,-0.06475 0.3871391,-0.0621 0.6269531,0.06836 0.239915,0.130473 0.355144,0.304117 0.398438,0.490234 0.04329,0.186117 0.0072,0.39148 -0.08789,0.566406 -0.09512,0.174927 -0.247999,0.31604 -0.427734,0.38086 -0.179736,0.06482 -0.3870388,0.06016 -0.6269536,-0.07031 -0.2398137,-0.130454 -0.355194,-0.302275 -0.3984375,-0.488281 -0.043244,-0.186006 -0.00722,-0.391605 0.087891,-0.566406 0.095106,-0.174802 0.248052,-0.316112 0.4277344,-0.38086 z m -0.484375,3.230469 c 5.999e-4,2.61e-4 0.00138,-3.09e-4 0.00195,0 v 0.002 z"
       id="path6" />
  </g>
</svg>
