<?xml version="1.0" encoding="UTF-8" standalone="no"?>
<svg
   height="64"
   width="64"
   version="1.1"
   id="svg9"
   sodipodi:docname="audio-x-generic.svg"
   inkscape:version="1.1.2 (0a00cf5339, 2022-02-04)"
   xmlns:inkscape="http://www.inkscape.org/namespaces/inkscape"
   xmlns:sodipodi="http://sodipodi.sourceforge.net/DTD/sodipodi-0.dtd"
   xmlns:xlink="http://www.w3.org/1999/xlink"
   xmlns="http://www.w3.org/2000/svg"
   xmlns:svg="http://www.w3.org/2000/svg">
  <defs
     id="defs13">
    <linearGradient
       inkscape:collect="always"
       id="linearGradient846">
      <stop
         style="stop-color:#e5e5e5;stop-opacity:1;"
         offset="0"
         id="stop842" />
      <stop
         style="stop-color:#949494;stop-opacity:1"
         offset="1"
         id="stop844" />
    </linearGradient>
    <linearGradient
       inkscape:collect="always"
       xlink:href="#linearGradient846"
       id="linearGradient848"
       x1="18.230453"
       y1="50.614616"
       x2="53.92131"
       y2="7.7961817"
       gradientUnits="userSpaceOnUse" />
  </defs>
  <sodipodi:namedview
     id="namedview11"
     pagecolor="#ffffff"
     bordercolor="#666666"
     borderopacity="1.0"
     inkscape:pageshadow="2"
     inkscape:pageopacity="0.0"
     inkscape:pagecheckerboard="0"
     showgrid="false"
     inkscape:zoom="10.21875"
     inkscape:cx="31.95107"
     inkscape:cy="32"
     inkscape:window-width="1600"
     inkscape:window-height="836"
     inkscape:window-x="0"
     inkscape:window-y="0"
     inkscape:window-maximized="1"
     inkscape:current-layer="svg9" />
  <path
     style="color:#000000;fill:#e5e5e5;fill-opacity:0.2;stroke-width:2;-inkscape-stroke:none"
     d="m 11.67,56.08 c 0,1.71 1.71,3.42 3.417,3.42 h 33.996 c 1.709,0 3.417,-1.71 3.417,-3.42 V 27.017 c 0,-1.71 0,-1.71 -1.708,-3.42 L 35.417,8.21 C 34.51,7.524 33.708,6.5 32,6.5 H 14.917 C 13.208,6.5 11.5,8.21 11.5,9.92 Z"
     id="path1334" />
  <path
     id="path6-3"
     style="color:#000000;fill:url(#linearGradient848);-inkscape-stroke:none;fill-opacity:1"
     d="m 24.445312,23.392578 v 0.5 18.828125 c -0.598771,-0.241819 -1.195339,-0.511045 -1.845703,-0.517578 h -0.0039 -0.002 c -2.296373,1.96e-4 -4.059226,1.40802 -4.806641,3.212891 -0.747414,1.80487 -0.4947,4.044362 1.128907,5.667968 1.623606,1.623607 3.863098,1.876321 5.667968,1.128907 1.804871,-0.747415 3.212695,-2.510268 3.212891,-4.806641 V 31.445312 h 15.458984 v 8.923829 c -0.598122,-0.241574 -1.194092,-0.510777 -1.84375,-0.517579 h -0.0039 -0.002 c -2.296624,-7.58e-4 -4.060555,1.406151 -4.808594,3.210938 -0.748038,1.804787 -0.496493,4.0458 1.126953,5.669922 1.623447,1.624121 3.864825,1.876195 5.669922,1.128906 1.805098,-0.747288 3.212695,-2.510016 3.212891,-4.806641 V 23.392578 Z m 1,1 h 20.16211 v 20.662109 c -1.62e-4,1.893621 -1.127101,3.274829 -2.595703,3.882813 -1.468603,0.607984 -3.241549,0.426976 -4.580078,-0.912109 -1.338529,-1.339086 -1.51875,-3.111729 -0.910157,-4.580079 0.60837,-1.467809 1.990266,-2.593546 3.882813,-2.59375 0.738142,0.0084 1.461503,0.211978 2.095703,0.589844 l 0.755859,0.451172 V 30.445312 H 26.796875 V 47.40625 c -1.61e-4,1.893401 -1.125336,3.274728 -2.59375,3.882812 -1.468414,0.608085 -3.241426,0.426543 -4.580078,-0.912109 -1.338652,-1.338652 -1.520194,-3.111664 -0.91211,-4.580078 0.607861,-1.467873 1.988532,-2.592761 3.88086,-2.59375 0.738736,0.0081 1.462946,0.211681 2.097656,0.589844 l 0.755859,0.451172 z m 1.351563,1.351563 v 0.5 2.849609 h 17.458984 v -3.349609 z m 1,1 H 43.255859 V 28.09375 H 27.796875 Z M 14.917969,5.5 C 13.729942,5.5 12.657088,6.0628369 11.859375,6.8613281 11.061662,7.6598194 10.5,8.7319796 10.5,9.9199219 v 0.00195 l 0.169922,46.1621091 c 0.0012,1.186757 0.564341,2.257235 1.361328,3.054688 C 12.829121,59.93701 13.900473,60.5 15.087891,60.5 h 33.99414 c 1.188027,0 2.260881,-0.562837 3.058594,-1.361328 C 52.938338,58.340181 53.5,57.26802 53.5,56.080078 v -29.0625 c 0,-0.854999 0.0142,-1.492302 -0.318359,-2.158203 C 52.849079,24.193474 52.353999,23.745624 51.5,22.890625 L 36.076172,7.4550781 36.019531,7.4121094 C 35.26819,6.8438401 34.107686,5.5 32,5.5 Z m 0,2 H 32 c 1.274361,0 1.741373,0.6756979 2.746094,1.453125 l 15.33789,15.351562 c 0.852631,0.853699 1.214226,1.260262 1.308594,1.449219 C 51.487016,25.943004 51.5,26.162579 51.5,27.017578 v 29.0625 c 0,0.522056 -0.291855,1.160524 -0.775391,1.644531 C 50.241074,58.208617 49.603002,58.5 49.082031,58.5 h -33.99414 c -0.519581,0 -1.158701,-0.29123 -1.642578,-0.775391 -0.483878,-0.48416 -0.775391,-1.122865 -0.775391,-1.644531 v -0.002 -0.002 L 12.5,9.9199219 c 0,-0.522056 0.291855,-1.1605238 0.775391,-1.6445313 C 13.758926,7.7913831 14.396998,7.5 14.917969,7.5 Z" />
</svg>
