<?xml version="1.0" encoding="UTF-8" standalone="no"?>
<svg
   height="64"
   width="64"
   version="1.1"
   id="svg3"
   sodipodi:docname="image-svg+xml.svg"
   inkscape:version="1.1.2 (0a00cf5339, 2022-02-04)"
   xmlns:inkscape="http://www.inkscape.org/namespaces/inkscape"
   xmlns:sodipodi="http://sodipodi.sourceforge.net/DTD/sodipodi-0.dtd"
   xmlns:xlink="http://www.w3.org/1999/xlink"
   xmlns="http://www.w3.org/2000/svg"
   xmlns:svg="http://www.w3.org/2000/svg">
  <defs
     id="defs3">
    <linearGradient
       inkscape:collect="always"
       id="linearGradient846">
      <stop
         style="stop-color:#ff9a00;stop-opacity:1;"
         offset="0"
         id="stop842" />
      <stop
         style="stop-color:#ff2d00;stop-opacity:1"
         offset="1"
         id="stop844" />
    </linearGradient>
    <linearGradient
       inkscape:collect="always"
       xlink:href="#linearGradient846"
       id="linearGradient848"
       x1="8.705162"
       y1="44.145664"
       x2="46.920834"
       y2="17.014826"
       gradientUnits="userSpaceOnUse" />
  </defs>
  <sodipodi:namedview
     id="namedview3"
     pagecolor="#ffffff"
     bordercolor="#000000"
     borderopacity="0.25"
     inkscape:showpageshadow="2"
     inkscape:pageopacity="0.0"
     inkscape:pagecheckerboard="0"
     inkscape:deskcolor="#d1d1d1"
     inkscape:zoom="5.9921875"
     inkscape:cx="31.791395"
     inkscape:cy="31.958279"
     inkscape:window-width="1056"
     inkscape:window-height="545"
     inkscape:window-x="279"
     inkscape:window-y="107"
     inkscape:window-maximized="0"
     inkscape:current-layer="svg3"
     inkscape:pageshadow="2"
     showgrid="false" />
  <path
     style="color:#000000;fill:#ff8000;fill-opacity:0.2;stroke-width:2;-inkscape-stroke:none"
     d="m 11.67,56.08 c 0,1.71 1.71,3.42 3.417,3.42 h 33.996 c 1.709,0 3.417,-1.71 3.417,-3.42 V 27.017 c 0,-1.71 0,-1.71 -1.708,-3.42 L 35.417,8.21 C 34.51,7.524 33.708,6.5 32,6.5 H 14.917 C 13.208,6.5 11.5,8.21 11.5,9.92 Z"
     id="path5520" />
  <path
     id="path3-3"
     style="color:#000000;fill:url(#linearGradient848);-inkscape-stroke:none;fill-opacity:1"
     d="m 29.578125,19.96875 -9.763672,0.0039 v 0.5 9.263672 h 2.921875 v 4.101563 c -1.7219,0.786765 -2.919043,2.424939 -2.921875,4.34375 0.0028,1.91881 1.199976,3.556985 2.921875,4.34375 v 3.738281 h -2.921875 v 9.765625 h 9.763672 v -4.816406 c 3.855592,3.053038 8.855101,4.809707 14.107422,4.816406 h 0.5 v -3.921875 h -0.5 c -7.536375,-7.54e-4 -14.083799,-4.134847 -16.246094,-10.029297 1.280135,-0.907012 2.136146,-2.308426 2.138672,-3.898438 v -0.002 c -0.0045,-1.626466 -0.897332,-3.052773 -2.226563,-3.951172 2.03584,-6.041266 8.659196,-10.328086 16.333985,-10.335937 h 0.5 V 19.96875 h -0.5 c -5.249901,0.0016 -10.24837,1.752056 -14.107422,4.798828 z m -1,1 v 5.871094 l 0.830078,-0.726563 c 3.627234,-3.176317 8.579902,-4.987086 13.777344,-5.101562 v 1.949218 c -7.942075,0.197975 -14.87533,4.670247 -16.917969,11.207032 l -0.125,0.396484 0.369141,0.193359 c 1.26948,0.671053 2.062457,1.985952 2.066406,3.421875 -0.0029,1.406087 -0.763753,2.698467 -1.992188,3.382813 l -0.365234,0.203125 0.134766,0.396484 c 2.179074,6.378759 9.029034,10.689888 16.830078,10.876953 v 1.947266 C 37.98488,54.866684 33.031674,53.048638 29.408203,49.865234 l -0.830078,-0.728515 v 5.892578 h -7.763672 v -7.765625 h 2.921875 v -5.310547 l -0.333984,-0.117188 c -1.550741,-0.548267 -2.585463,-2.00949 -2.587891,-3.654296 0.0024,-1.644807 1.03715,-3.106029 2.587891,-3.654297 l 0.333984,-0.117188 v -5.673828 h -2.921875 v -7.763672 z m -5.841797,1.925781 v 0.5 3.419922 h 3.921875 v -3.919922 z m 1,1 h 1.921875 v 1.919922 h -1.921875 z m -1,25.291016 v 0.5 3.421875 h 3.921875 v -3.921875 z m 1,1 h 1.921875 v 1.921875 H 23.736328 Z M 14.917969,5.5 C 13.729942,5.5 12.657088,6.062837 11.859375,6.861328 11.061662,7.659819 10.5,8.73198 10.5,9.919922 v 0.002 l 0.169922,46.162109 c 0.0012,1.186757 0.564341,2.257235 1.361328,3.054688 0.797871,0.798341 1.869223,1.361331 3.056641,1.361331 h 33.99414 c 1.188027,0 2.260881,-0.562837 3.058594,-1.361328 C 52.938338,58.340231 53.5,57.26807 53.5,56.080128 v -29.0625 c 0,-0.854999 0.0142,-1.492302 -0.318359,-2.158203 C 52.849079,24.193524 52.353999,23.745674 51.5,22.890675 L 36.076172,7.455128 36.019532,7.412158 C 35.268191,6.843889 34.107687,5.500049 32.000001,5.500049 Z m 0,2 H 32 c 1.274361,0 1.741373,0.675698 2.746094,1.453125 l 15.33789,15.351562 c 0.852631,0.853699 1.214226,1.260262 1.308594,1.449219 C 51.487018,25.943004 51.5,26.162579 51.5,27.017578 v 29.0625 c 0,0.522056 -0.291855,1.160524 -0.775391,1.644531 C 50.241074,58.208617 49.603002,58.5 49.082031,58.5 h -33.99414 c -0.519581,0 -1.158701,-0.29123 -1.642578,-0.775391 -0.483878,-0.48416 -0.775391,-1.122865 -0.775391,-1.644531 v -0.002 -0.002 L 12.5,9.919922 C 12.5,9.397866 12.791855,8.759398 13.275391,8.275391 13.758926,7.791383 14.396998,7.5 14.917969,7.5 Z" />
</svg>
