<?xml version="1.0" encoding="UTF-8" standalone="no"?>
<svg
   height="64"
   width="64"
   version="1.1"
   id="svg9"
   sodipodi:docname="image-x-vnd.trolltech.qpicture.svg"
   inkscape:version="1.1.2 (0a00cf5339, 2022-02-04)"
   xmlns:inkscape="http://www.inkscape.org/namespaces/inkscape"
   xmlns:sodipodi="http://sodipodi.sourceforge.net/DTD/sodipodi-0.dtd"
   xmlns:xlink="http://www.w3.org/1999/xlink"
   xmlns="http://www.w3.org/2000/svg"
   xmlns:svg="http://www.w3.org/2000/svg">
  <defs
     id="defs13">
    <linearGradient
       inkscape:collect="always"
       id="linearGradient846">
      <stop
         style="stop-color:#19fe8c;stop-opacity:1;"
         offset="0"
         id="stop842" />
      <stop
         style="stop-color:#209efe;stop-opacity:1"
         offset="1"
         id="stop844" />
    </linearGradient>
    <linearGradient
       inkscape:collect="always"
       xlink:href="#linearGradient846"
       id="linearGradient848"
       x1="8.7417336"
       y1="49.200722"
       x2="44.381844"
       y2="13.768753"
       gradientUnits="userSpaceOnUse" />
  </defs>
  <sodipodi:namedview
     id="namedview11"
     pagecolor="#ffffff"
     bordercolor="#666666"
     borderopacity="1.0"
     inkscape:pageshadow="2"
     inkscape:pageopacity="0.0"
     inkscape:pagecheckerboard="0"
     showgrid="false"
     inkscape:zoom="10.21875"
     inkscape:cx="31.95107"
     inkscape:cy="32"
     inkscape:window-width="1600"
     inkscape:window-height="836"
     inkscape:window-x="0"
     inkscape:window-y="0"
     inkscape:window-maximized="1"
     inkscape:current-layer="svg9" />
  <path
     style="color:#000000;fill:#19fe8c;fill-opacity:0.2;stroke-width:2;-inkscape-stroke:none"
     d="m 11.67,56.08 c 0,1.71 1.71,3.42 3.417,3.42 h 33.996 c 1.709,0 3.417,-1.71 3.417,-3.42 V 27.017 c 0,-1.71 0,-1.71 -1.708,-3.42 L 35.417,8.21 C 34.51,7.524 33.708,6.5 32,6.5 H 14.917 C 13.208,6.5 11.5,8.21 11.5,9.92 Z"
     id="path4919" />
  <path
     id="path6"
     style="color:#807f7f;fill:url(#linearGradient848);-inkscape-stroke:none;fill-opacity:1"
     d="m 29.578125,19.970703 -9.763672,0.002 v 0.5 9.263672 h 2.921875 v 4.101563 c -1.721137,0.787008 -2.919044,2.425463 -2.921875,4.34375 0.0028,1.918286 1.200738,3.556741 2.921875,4.34375 v 3.738281 h -2.921875 v 9.763672 h 9.763672 v -4.814453 c 3.855375,3.052611 8.853629,4.807754 14.105469,4.814453 l 0.501953,0.002 v -3.921875 h -0.5 C 36.149444,52.106668 29.60167,47.972374 27.439453,42.078125 c 1.280636,-0.906929 2.136146,-2.308097 2.138672,-3.898438 v -0.002 c -0.0045,-1.626418 -0.897374,-3.052799 -2.226563,-3.951172 2.036382,-6.040245 8.660125,-10.328088 16.333985,-10.335937 h 0.5 v -3.919922 h -0.5 c -5.249721,0.0016 -10.248502,1.7502 -14.107422,4.796875 z m -1,1 v 5.869141 l 0.830078,-0.726563 c 3.627098,-3.176206 8.580096,-4.985132 13.777344,-5.099609 v 1.947265 c -7.942566,0.197322 -14.875243,4.669955 -16.917969,11.207032 l -0.125,0.396484 0.369141,0.195313 c 1.26943,0.671027 2.062457,1.984051 2.066406,3.419921 -0.0029,1.406036 -0.763802,2.698493 -1.992188,3.382813 l -0.365234,0.203125 0.134766,0.396484 c 2.179017,6.378604 9.02923,10.689954 16.830078,10.876953 v 1.945313 C 37.985067,54.864735 33.031543,53.04853 29.408203,49.865234 l -0.830078,-0.730468 v 5.892578 h -7.763672 v -7.763672 h 2.921875 v -5.310547 l -0.333984,-0.117188 c -1.550679,-0.548247 -2.585463,-2.00955 -2.587891,-3.654296 0.0024,-1.644747 1.037212,-3.10605 2.587891,-3.654297 l 0.333984,-0.117188 v -5.673828 h -2.921875 v -7.763672 z m -5.841797,1.923828 v 0.5 3.421875 h 3.921875 v -3.921875 z m 1,1 h 1.921875 v 1.921875 h -1.921875 z m -1,25.291016 v 0.5 3.421875 h 3.921875 v -3.921875 z m 1,1 h 1.921875 v 1.921875 H 23.736328 Z M 14.917969,5.5 C 13.729942,5.5 12.657088,6.0628369 11.859375,6.8613281 11.061662,7.6598194 10.5,8.7319796 10.5,9.9199219 v 0.00195 l 0.169922,46.1621091 c 0.0012,1.186757 0.564341,2.257235 1.361328,3.054688 C 12.829121,59.93701 13.900473,60.5 15.087891,60.5 h 33.99414 c 1.188027,0 2.260881,-0.562837 3.058594,-1.361328 C 52.938338,58.340181 53.5,57.26802 53.5,56.080078 v -29.0625 c 0,-0.854999 0.0142,-1.492302 -0.318359,-2.158203 C 52.849079,24.193474 52.353999,23.745624 51.5,22.890625 L 36.076172,7.4550781 36.019531,7.4121094 C 35.26819,6.8438401 34.107686,5.5 32,5.5 Z m 0,2 H 32 c 1.274361,0 1.741373,0.6756979 2.746094,1.453125 l 15.33789,15.351562 c 0.852631,0.853699 1.214226,1.260262 1.308594,1.449219 C 51.487016,25.943004 51.5,26.162579 51.5,27.017578 v 29.0625 c 0,0.522056 -0.291855,1.160524 -0.775391,1.644531 C 50.241074,58.208617 49.603002,58.5 49.082031,58.5 h -33.99414 c -0.519581,0 -1.158701,-0.29123 -1.642578,-0.775391 -0.483878,-0.48416 -0.775391,-1.122865 -0.775391,-1.644531 v -0.002 -0.002 L 12.5,9.9199219 c 0,-0.522056 0.291855,-1.1605238 0.775391,-1.6445313 C 13.758926,7.7913831 14.396998,7.5 14.917969,7.5 Z" />
</svg>
