<?xml version="1.0" encoding="UTF-8" standalone="no"?>
<svg
   height="64"
   width="64"
   version="1.1"
   id="svg9"
   sodipodi:docname="image-x-krita.svg"
   inkscape:version="1.1.2 (0a00cf5339, 2022-02-04)"
   xmlns:inkscape="http://www.inkscape.org/namespaces/inkscape"
   xmlns:sodipodi="http://sodipodi.sourceforge.net/DTD/sodipodi-0.dtd"
   xmlns:xlink="http://www.w3.org/1999/xlink"
   xmlns="http://www.w3.org/2000/svg"
   xmlns:svg="http://www.w3.org/2000/svg">
  <defs
     id="defs13">
    <linearGradient
       inkscape:collect="always"
       xlink:href="#linearGradient7599"
       id="linearGradient7601"
       x1="17.08144"
       y1="13.337335"
       x2="48.513268"
       y2="55.458656"
       gradientUnits="userSpaceOnUse" />
    <linearGradient
       inkscape:collect="always"
       id="linearGradient7599">
      <stop
         style="stop-color:#ff00cd;stop-opacity:0.2"
         offset="0"
         id="stop7595" />
      <stop
         style="stop-color:#fffd00;stop-opacity:0.40000001"
         offset="1"
         id="stop7597" />
    </linearGradient>
  </defs>
  <sodipodi:namedview
     id="namedview11"
     pagecolor="#ffffff"
     bordercolor="#666666"
     borderopacity="1.0"
     inkscape:pageshadow="2"
     inkscape:pageopacity="0.0"
     inkscape:pagecheckerboard="0"
     showgrid="false"
     inkscape:zoom="20.4375"
     inkscape:cx="32.024465"
     inkscape:cy="38.899083"
     inkscape:window-width="1600"
     inkscape:window-height="836"
     inkscape:window-x="0"
     inkscape:window-y="0"
     inkscape:window-maximized="1"
     inkscape:current-layer="svg9" />
  <path
     style="color:#000000;fill:url(#linearGradient7601);fill-opacity:1;stroke-width:2;-inkscape-stroke:none"
     d="m 11.67,56.08 c 0,1.71 1.71,3.42 3.417,3.42 h 33.996 c 1.709,0 3.417,-1.71 3.417,-3.42 V 27.017 c 0,-1.71 0,-1.71 -1.708,-3.42 L 35.417,8.21 C 34.51,7.524 33.708,6.5 32,6.5 H 14.917 C 13.208,6.5 11.5,8.21 11.5,9.92 Z"
     id="path4752" />
  <path
     style="color:#000000;fill:#ff00cd;-inkscape-stroke:none"
     d="M 14.917969,5.5 C 13.729942,5.5 12.657088,6.0628369 11.859375,6.8613281 11.061662,7.6598194 10.5,8.7319796 10.5,9.9199219 v 0.00195 l 0.169922,46.1621091 c 0.0012,1.186757 0.564341,2.257235 1.361328,3.054688 C 12.829121,59.93701 13.900473,60.5 15.087891,60.5 h 33.99414 c 1.188027,0 2.260881,-0.562837 3.058594,-1.361328 C 52.938338,58.340181 53.5,57.26802 53.5,56.080078 v -29.0625 c 0,-0.854999 0.0142,-1.492302 -0.318359,-2.158203 C 52.849079,24.193474 52.353999,23.745624 51.5,22.890625 L 36.076172,7.4550781 36.019531,7.4121094 C 35.26819,6.8438401 34.107686,5.5 32,5.5 Z m 0,2 H 32 c 1.274361,0 1.741373,0.6756979 2.746094,1.453125 l 15.33789,15.351562 c 0.852631,0.853699 1.214226,1.260262 1.308594,1.449219 C 51.487016,25.943004 51.5,26.162579 51.5,27.017578 v 29.0625 c 0,0.522056 -0.291855,1.160524 -0.775391,1.644531 C 50.241074,58.208617 49.603002,58.5 49.082031,58.5 h -33.99414 c -0.519581,0 -1.158701,-0.29123 -1.642578,-0.775391 -0.483878,-0.48416 -0.775391,-1.122865 -0.775391,-1.644531 v -0.002 -0.002 L 12.5,9.9199219 c 0,-0.522056 0.291855,-1.1605238 0.775391,-1.6445313 C 13.758926,7.7913831 14.396998,7.5 14.917969,7.5 Z"
     id="path4754" />
  <path
     style="color:#000000;fill:#00cae8;-inkscape-stroke:none"
     d="m 19.243431,36.533968 c -0.259072,0.0012 -0.52332,0.115524 -0.697266,0.287109 -0.173945,0.171586 -0.273623,0.378236 -0.345703,0.595704 -0.144159,0.434934 -0.179687,0.946148 -0.179687,1.521484 v 0.01172 0.01172 c 0.112649,2.335416 1.548461,8.796875 8.523437,13.515625 3.013725,2.039524 7.160877,2.654307 10.566407,2.509766 1.702764,-0.07227 3.217678,-0.33448 4.341796,-0.742187 0.56206,-0.203854 1.028811,-0.440658 1.382813,-0.744141 0.354002,-0.303483 0.616891,-0.724501 0.580078,-1.199219 l -0.01172,-0.154297 -0.09766,-0.121093 C 42.032445,50.4445 40.366226,50.139575 39.214134,49.436312 38.638088,49.08468 38.16812,48.65985 37.805931,47.907015 37.443743,47.15418 37.197264,46.051637 37.184837,44.379671 l -0.0039,-0.501953 -0.501953,0.0059 c -1.095547,0.01245 -2.256387,-0.07241 -3.179688,-0.03906 -0.46165,0.01667 -0.862783,0.05204 -1.220703,0.195312 -0.178959,0.07164 -0.355712,0.175583 -0.492187,0.353516 -0.136476,0.177933 -0.202592,0.428305 -0.181641,0.650391 0.04133,0.433354 -0.01465,0.728475 -0.103515,0.914062 -0.08887,0.185587 -0.1979,0.282586 -0.382813,0.355469 -0.369826,0.145766 -1.097556,0.08932 -1.949219,-0.248047 -1.703325,-0.674729 -3.838724,-2.361373 -4.986328,-4.265625 l -0.0039,-0.0098 -0.0059,-0.0078 c -1.232224,-1.866343 -2.192008,-3.137431 -2.957032,-3.964844 -0.765023,-0.827413 -1.307436,-1.283634 -1.972656,-1.28125 z m 0.0039,1.001953 c 0.04768,-1.71e-4 0.536586,0.202176 1.236328,0.958985 0.699743,0.756808 1.637862,1.996644 2.853516,3.83789 l -0.0098,-0.01758 c 1.290055,2.140624 3.518895,3.904981 5.47461,4.679688 0.977857,0.387353 1.902587,0.555109 2.68164,0.248046 0.389527,-0.153531 0.727759,-0.452215 0.919922,-0.853515 0.185924,-0.38827 0.235887,-0.859357 0.191407,-1.394531 3.42e-4,6.53e-4 0.0013,-0.0052 0.05664,-0.02734 0.141382,-0.05659 0.468989,-0.110053 0.882813,-0.125 0.718556,-0.02595 1.73984,0.02777 2.740234,0.03516 0.06388,1.436931 0.235085,2.644305 0.628906,3.462891 0.449805,0.934951 1.102523,1.530139 1.789063,1.949218 1.299693,0.793362 2.621451,1.099615 3.642578,2.21875 -0.02436,0.0663 -0.01539,0.116683 -0.150391,0.232422 -0.210835,0.180747 -0.582622,0.386864 -1.072265,0.564453 -0.979287,0.355179 -2.421461,0.61469 -4.044922,0.683594 -3.246923,0.137809 -7.22998,-0.490359 -9.962891,-2.339844 -6.661683,-4.5068 -7.982482,-10.697736 -8.083984,-12.71875 6.28e-4,-0.51899 0.04936,-0.959221 0.128906,-1.199218 0.03956,-0.119338 0.08298,-0.180406 0.09766,-0.195313 z m 8.958985,3.894531 c -0.461518,0.03983 -0.986826,0.170775 -1.246094,0.615235 h -0.002 v 0.002 c -0.25935,0.448606 -0.153251,0.972453 0.08789,1.390625 0.241142,0.418172 0.630591,0.79048 1.125,1.076172 0.494285,0.285619 1.009541,0.437079 1.492188,0.4375 0.482647,4.21e-4 0.990621,-0.168573 1.25,-0.617188 0.259676,-0.449169 0.152123,-0.974823 -0.08984,-1.392578 -0.241967,-0.417754 -0.612308,-0.821874 -1.125,-1.072265 -0.465912,-0.227545 -0.975556,-0.484083 -1.492144,-0.439501 z m 0.439946,1.026735 c 0.281818,0.0168 0.701744,0.24669 0.701744,0.24669 0.358775,0.206242 0.628035,0.479599 0.759766,0.707031 0.131731,0.227433 -0.03571,0.380467 -0.05966,0.421895 -0.02425,0.04194 -0.119981,0.11937 -0.382813,0.119141 -0.262831,-2.29e-4 -0.63499,-0.0952 -0.994141,-0.302735 -0.359026,-0.207461 -0.626534,-0.483283 -0.757812,-0.710937 -0.130655,-0.226573 -0.113945,-0.346131 -0.08984,-0.388672 0.258176,-0.08302 0.562802,-0.15194 0.822759,-0.09241 z"
     id="path825"
     sodipodi:nodetypes="cssscccssscccsscccssscssscccsccssccsssccscsscsssccscsacccssscssacssssscccc" />
  <path
     style="fill:none;fill-opacity:1;stroke-width:1;stroke:#ff00cd;stroke-opacity:1;stroke-miterlimit:4;stroke-dasharray:none"
     d="m 16.906245,21.800624 c -0.07666,0 -0.135426,0 -0.173754,0.04599 -1.22394,1.22394 15.502389,16.578128 15.502389,16.578128 l 6.267902,5.963833 c -2.021162,4.714341 4.313175,4.790997 5.680206,7.182663 0.600472,1.047631 -0.130315,2.470877 -1.221385,2.544977 2.169364,0.715456 5.089956,-3.449517 4.210967,-5.8003 -1.047631,-2.808163 -2.110594,-4.024438 -4.103648,-4.877874 -0.822774,-0.352617 -2.915482,-0.380724 -3.646269,0.03066 l -5.807966,-6.421214 c 0,0 -14.332108,-15.042453 -16.705887,-15.249424"
     id="path6-3" />
</svg>
