<?xml version="1.0" encoding="UTF-8" standalone="no"?>
<svg
   height="64"
   width="64"
   version="1.1"
   id="svg9"
   sodipodi:docname="image-x-psd.svg"
   inkscape:version="1.1.2 (0a00cf5339, 2022-02-04)"
   xmlns:inkscape="http://www.inkscape.org/namespaces/inkscape"
   xmlns:sodipodi="http://sodipodi.sourceforge.net/DTD/sodipodi-0.dtd"
   xmlns:xlink="http://www.w3.org/1999/xlink"
   xmlns="http://www.w3.org/2000/svg"
   xmlns:svg="http://www.w3.org/2000/svg"
   xmlns:rdf="http://www.w3.org/1999/02/22-rdf-syntax-ns#"
   xmlns:cc="http://creativecommons.org/ns#"
   xmlns:dc="http://purl.org/dc/elements/1.1/">
  <defs
     id="defs13">
    <linearGradient
       inkscape:collect="always"
       id="linearGradient850">
      <stop
         style="stop-color:#33a9ff;stop-opacity:1;"
         offset="0"
         id="stop846" />
      <stop
         style="stop-color:#33ffa8;stop-opacity:1"
         offset="1"
         id="stop848" />
    </linearGradient>
    <linearGradient
       inkscape:collect="always"
       xlink:href="#linearGradient850"
       id="linearGradient852"
       x1="47.27515"
       y1="121.38515"
       x2="171.91266"
       y2="6.1387439"
       gradientUnits="userSpaceOnUse" />
  </defs>
  <sodipodi:namedview
     id="namedview11"
     pagecolor="#ffffff"
     bordercolor="#666666"
     borderopacity="1.0"
     inkscape:pageshadow="2"
     inkscape:pageopacity="0.0"
     inkscape:pagecheckerboard="0"
     showgrid="false"
     inkscape:zoom="5.109375"
     inkscape:cx="35.327217"
     inkscape:cy="32.097859"
     inkscape:window-width="1600"
     inkscape:window-height="836"
     inkscape:window-x="0"
     inkscape:window-y="0"
     inkscape:window-maximized="1"
     inkscape:current-layer="svg9" />
  <path
     style="color:#000000;fill:#001f38;fill-opacity:0.2;stroke-width:2;-inkscape-stroke:none"
     d="m 11.67,56.08 c 0,1.71 1.71,3.42 3.417,3.42 h 33.996 c 1.709,0 3.417,-1.71 3.417,-3.42 V 27.017 c 0,-1.71 0,-1.71 -1.708,-3.42 L 35.417,8.21 C 34.51,7.524 33.708,6.5 32,6.5 H 14.917 C 13.208,6.5 11.5,8.21 11.5,9.92 Z"
     id="path6526" />
  <metadata
     id="metadata990">
    <rdf:RDF>
      <cc:Work
         rdf:about="">
        <dc:description> SVG source for Photoshop icon - Adobe Inc., Public domain, via Wikimedia Commons</dc:description>
      </cc:Work>
    </rdf:RDF>
  </metadata>
  <g
     id="Outlined_Mnemonics_Logos"
     transform="matrix(0.23732,0,0,0.23732,2.0492253,15.637847)"
     style="fill:none;stroke:#33a9ff;stroke-width:4.21372">
    <g
       id="Ps">
      <path
         id="path1052"
         style="color:#000000;fill:url(#linearGradient852);stroke:none;-inkscape-stroke:none;fill-opacity:1"
         d="m 172.09961,82.193359 c -7.29895,0 -13.52065,1.120879 -18.61719,3.712891 -4.64728,2.168407 -8.64752,5.621975 -11.36914,9.976562 l -0.0117,0.01953 -0.0117,0.02148 c -2.37167,3.988732 -3.687,8.462938 -3.69336,13.142578 -0.10533,3.85147 0.77451,7.68573 2.51954,11.17578 l 0.0215,0.043 0.0234,0.043 c 2.0504,3.66914 4.85954,6.80549 8.21875,9.18945 l 0.0176,0.0117 0.0156,0.0117 c 4.54485,3.09876 9.41439,5.5849 14.68555,7.44531 l -0.0606,-0.0215 c 4.84879,1.88015 8.11915,3.46498 9.23438,4.3711 1.33324,1.08326 1.62109,1.76589 1.62109,2.36328 0,0.94165 -0.66022,1.93142 -1.4375,2.27148 l -0.0488,0.0215 -0.0488,0.0234 c -1.3254,0.66271 -3.74223,1.17774 -7.35742,1.17774 -3.82442,0 -7.64842,-0.48026 -11.26367,-1.43164 l -0.0352,-0.008 -0.0351,-0.008 c -4.20222,-0.95505 -8.08515,-2.47118 -11.79688,-4.66015 l 0.0996,0.0605 c -0.28485,-0.18989 -0.6741,-0.4255 -1.27344,-0.52539 -0.59933,-0.0999 -1.4103,0.0561 -1.96484,0.42578 -1.19898,0.79933 -1.33789,1.88416 -1.33789,2.65235 v 17.40039 l 0.0156,-0.26172 c -0.22597,1.80777 0.9024,3.28128 2.14649,3.99219 l 0.0723,0.041 0.0781,0.0371 c 3.36539,1.57753 7.02292,2.72711 10.70312,3.36133 4.63995,0.92639 9.27541,1.33789 13.99024,1.33789 7.39967,0 13.67718,-1.12797 18.89844,-3.35937 4.87783,-1.95485 9.09848,-5.31145 12.1289,-9.64063 l 0.0137,-0.0195 0.0137,-0.0195 c 2.82781,-4.24172 4.34348,-9.32322 4.24804,-14.44922 0.10271,-3.93574 -0.77427,-7.7751 -2.51758,-11.26172 l -0.0215,-0.043 -0.0234,-0.043 c -2.07434,-3.71198 -5.03093,-6.77287 -8.60742,-9.04882 l -0.008,-0.004 -0.008,-0.006 c -4.93383,-3.08364 -10.27936,-5.65497 -15.84961,-7.51172 l 0.14257,0.0547 c -2.34724,-0.97802 -4.68652,-2.05248 -6.91601,-3.21484 -1.09426,-0.59011 -2.05163,-1.33436 -2.72461,-2.14454 -0.38817,-0.53378 -0.5625,-1.02923 -0.5625,-1.29687 0,-0.41422 0.19676,-1.06543 0.46094,-1.51758 0.373,-0.51283 0.9715,-0.93618 1.80664,-1.1289 l 0.0312,-0.008 0.0312,-0.008 c 1.73109,-0.45555 3.64274,-0.71864 5.35937,-0.63281 l 0.0508,0.002 h 0.0527 c 3.61518,0 7.1622,0.47495 10.75586,1.25195 l 0.01,0.002 0.01,0.004 c 3.22874,0.66474 6.22832,1.69938 9.0332,3.19532 l 0.0254,0.0117 0.0254,0.0137 c 1.02815,0.51407 2.13791,0.40772 3.19922,0.17187 l 0.38281,-0.0859 0.32813,-0.21875 c 1.01918,-0.67945 1.4375,-1.64966 1.4375,-2.75195 V 89.599609 c 0,-0.751142 -0.16172,-1.310938 -0.26172,-1.710937 l -0.0566,-0.22461 -0.10352,-0.207031 c -0.45125,-0.902514 -1.01118,-1.661488 -2.37304,-2.001953 l 0.2832,0.09375 c -2.8528,-1.162254 -5.91691,-2.007759 -9.09961,-2.433594 -4.20134,-0.614338 -8.49575,-0.921875 -12.69531,-0.921875 z m 0,4.212891 c 3.99722,0 8.10012,0.294187 12.0957,0.878906 l 0.0137,0.002 0.0117,0.002 c 2.75789,0.367718 5.43276,1.10596 7.9336,2.111329 0.007,0.04527 0.0391,0.185107 0.0391,0.199218 V 104.6915 c -2.96063,-1.48372 -6.07289,-2.57403 -9.34766,-3.25 -3.78677,-0.81877 -7.62294,-1.33839 -11.58593,-1.34375 -2.25179,-0.106725 -4.50546,0.22194 -6.54883,0.75586 -1.73939,0.4052 -3.31138,1.37144 -4.33789,2.83789 l -0.0312,0.0449 -0.0293,0.0469 c -0.71747,1.14796 -1.11914,2.44822 -1.11914,3.81641 0,1.52425 0.63647,2.81803 1.42187,3.86523 l 0.0254,0.0352 0.0293,0.0332 c 1.12456,1.37446 2.54405,2.42186 4.03125,3.22266 l 0.0117,0.006 0.0117,0.006 c 2.36476,1.23379 4.8196,2.35777 7.26562,3.37695 l 0.0703,0.0293 0.0723,0.0254 c 5.2256,1.74187 10.27636,4.16875 14.93946,7.08203 3.00598,1.91392 5.43497,4.43872 7.1582,7.50391 1.43695,2.89013 2.15431,6.02099 2.06445,9.25586 l -0.002,0.0527 v 0.0508 c 0.0903,4.24475 -1.18459,8.52949 -3.53711,12.06641 -2.5651,3.65547 -6.13117,6.48997 -10.23828,8.13281 l -0.0234,0.01 -0.0234,0.01 c -4.57247,1.95963 -10.28608,3.0293 -17.27148,3.0293 -4.47786,0 -8.8327,-0.38724 -13.18555,-1.25781 l -0.0293,-0.006 -0.0293,-0.006 c -3.26894,-0.56039 -6.5535,-1.59619 -9.54883,-2.98828 v -15.50391 c 3.53381,1.86715 7.20198,3.32717 11.10937,4.2168 3.96918,1.03955 8.12762,1.55859 12.28516,1.55859 3.95852,0 6.92057,-0.48422 9.18945,-1.60547 2.39379,-1.07113 3.91602,-3.4616 3.91602,-6.10156 0,-2.20261 -1.31098,-4.11803 -3.17773,-5.63477 -2.08478,-1.69388 -5.41599,-3.10944 -10.36719,-5.02929 l -0.0293,-0.0117 -0.0312,-0.01 c -4.92098,-1.73681 -9.44412,-4.04862 -13.69336,-6.94336 -2.82182,-2.00562 -5.19482,-4.65254 -6.93945,-7.75976 -1.43581,-2.88928 -2.15173,-6.02732 -2.0625,-9.15039 l 0.002,-0.0293 v -0.0312 c 0,-3.898 1.07923,-7.60162 3.0918,-10.99609 2.27243,-3.628931 5.65552,-6.562661 9.58984,-8.392579 l 0.0352,-0.01758 0.0332,-0.01758 c 4.2962,-2.193803 9.85981,-3.269531 16.74219,-3.269531 z m 20.8418,18.60938 0.0508,0.0254 c -0.0176,-0.009 -0.0371,-0.0141 -0.0547,-0.0234 z m -50.53516,56.13476 0.0391,0.0195 c -0.15591,-0.0891 -0.0287,-0.0164 -0.0547,0.19141 l 0.0156,-0.13086 z M 86,57.392578 c -2.999997,0 -6.024193,1.51e-4 -9.167969,0.101563 -3.057677,0.09863 -5.95518,0.09911 -8.710937,0.201171 -2.651929,0.09822 -5.148574,0.09669 -7.609375,0.199219 h -0.002 -0.002 c -2.257635,0.09816 -3.807814,0.09766 -5.507812,0.09766 -0.751306,0 -1.735355,0.30011 -2.355469,1.015625 -0.620113,0.715516 -0.751953,1.540427 -0.751953,2.191407 V 164.09961 c 0,0.76213 0.178478,1.69366 0.873047,2.43164 0.694569,0.73798 1.682451,0.97656 2.433594,0.97656 h 19 H 74.75 l 0.148437,-0.0215 c 1.728937,-0.24699 3.149601,-1.94499 2.886719,-3.78516 L 77.806641,164 v -29.94727 c 0.655748,0.0125 1.59336,0.004 1.984375,0.043 1.221401,0.12214 2.808986,0.11133 5.208984,0.11133 8.354152,0 16.10936,-0.91268 23.22656,-3.5293 h 0.002 l 0.002,-0.002 c 6.88038,-2.54045 12.833,-6.9998 17.08398,-12.95117 4.29649,-6.01509 6.39258,-13.59876 6.39258,-22.525391 0,-4.749697 -0.85044,-9.301542 -2.42383,-13.707032 l -0.004,-0.01367 -0.004,-0.01367 c -1.70494,-4.582036 -4.3679,-8.737042 -7.78516,-12.154297 l -0.01,-0.0098 -0.01,-0.0098 C 117.44605,65.372271 112.58021,62.411978 107.29102,60.611328 101.38153,58.403816 94.349261,57.392578 86,57.392578 Z m 0,4.214844 c 8.028703,0 14.57851,0.984521 19.85938,2.964844 l 0.0312,0.01172 0.0312,0.0098 c 4.70137,1.598468 9.02762,4.233604 12.59765,7.707031 2.97494,2.978083 5.30736,6.616121 6.80078,10.625 1.42262,3.988916 2.17188,8.029247 2.17188,12.273438 0,8.273355 -1.90392,14.891275 -5.60742,20.076175 -3.74902,5.24862 -8.99563,9.18772 -15.11524,11.44727 -6.4819,2.38241 -13.725136,3.26953 -21.76953,3.26953 -2.399998,0 -4.012419,-0.01 -4.791016,-0.0879 -1.193726,-0.11938 -2.609767,-0.11133 -4.509765,-0.11133 H 73.59375 v 33.5 H 56.107422 V 62.1875 c 1.374797,-0.0031 2.69586,-1.88e-4 4.580078,-0.08203 2.339194,-0.09747 4.841778,-0.09744 7.589844,-0.199219 2.644237,-0.09793 5.54909,-0.09981 8.691406,-0.201172 3.056218,-0.09859 6.031253,-0.09766 9.03125,-0.09766 z m 0.648437,15.486328 c -2.576831,-2e-5 -4.884873,-0.0024 -6.859375,0.101562 h 0.216797 c -2.11894,-0.105947 -3.609243,-0.0087 -4.503906,0.119141 l -1.808594,0.257813 v 1.828125 35.560549 l 1.957032,0.14062 c 1.392887,0.0995 2.731781,0.20508 4.048828,0.20508 H 85 c 4.095373,0 8.190335,-0.631 12.089844,-1.88867 3.626526,-1.02491 6.760236,-3.16309 9.191406,-5.92578 l 0.0156,-0.0176 0.0156,-0.0195 c 2.48723,-2.96098 3.58456,-6.9188 3.58984,-11.623049 0.1059,-3.495158 -0.7924,-6.972675 -2.58984,-10.005859 l -0.0234,-0.04102 -0.0254,-0.03906 c -1.92203,-2.939572 -4.67443,-5.2385 -7.996092,-6.503907 -3.999199,-1.617153 -8.282104,-2.252868 -12.609375,-2.148437 z m 0.05078,4.212891 h 0.02734 0.02539 c 3.86124,-0.09418 7.565713,0.470844 10.957031,1.845703 l 0.02148,0.0098 0.02148,0.0078 c 2.453852,0.930772 4.481412,2.613787 5.953122,4.847656 1.38053,2.347036 2.07465,5.037373 1.98828,7.714844 v 0.0332 0.03516 c 0,4.074384 -0.89999,6.900446 -2.60156,8.931636 -1.96003,2.21795 -4.409103,3.86439 -7.162108,4.63867 l -0.04102,0.0117 -0.03906,0.0137 C 92.366844,110.52603 88.683908,111.09375 85,111.09375 h -5.300781 c -0.517792,0 -1.197541,-0.0603 -1.792969,-0.0937 V 81.445312 c 0.631838,-0.0245 0.927783,-0.08906 1.888672,-0.04102 l 0.107422,0.0059 0.107422,-0.0059 c 1.81088,-0.09531 4.089455,-0.09766 6.689453,-0.09766 z M 54.225281,-42.718047 c -5.006013,0 -9.526719,2.371637 -12.888058,5.736255 -3.361339,3.364619 -5.728026,7.882401 -5.728026,12.888057 v 0.0082 l 0.716004,194.514195 c 0.0051,5.00066 2.377975,9.51135 5.736255,12.8716 3.362005,3.36398 7.876382,5.73627 12.879829,5.73627 H 198.18307 c 5.00601,0 9.52672,-2.37164 12.88806,-5.73626 3.36134,-3.36462 5.72802,-7.8824 5.72802,-12.88806 V 47.950999 c 0,-3.602727 0.0598,-6.288143 -1.34147,-9.094063 -1.40133,-2.80592 -3.48746,-4.693035 -7.08597,-8.295761 l -64.99169,-65.041071 -0.23867,-0.181058 c -3.16594,-2.394528 -8.05598,-8.057093 -16.93718,-8.057093 z m 0,8.427439 h 71.978889 c 5.3698,0 7.33766,2.847202 11.57128,6.123062 l 64.62957,64.687182 c 3.59275,3.597248 5.11641,5.310391 5.51405,6.106603 0.39793,0.796806 0.45264,1.722033 0.45264,5.32476 V 170.41223 c 0,2.1998 -1.22979,4.89013 -3.26728,6.9296 -2.03748,2.03947 -4.72614,3.26728 -6.92136,3.26728 H 54.941285 c -2.189369,0 -4.882442,-1.22717 -6.921364,-3.26728 -2.038926,-2.04012 -3.26728,-4.73144 -3.26728,-6.9296 v -0.008 -0.008 L 44.036637,-24.093735 c 0,-2.199797 1.229795,-4.890122 3.26728,-6.929594 2.037482,-2.039472 4.726138,-3.267279 6.921364,-3.267279 z" />
    </g>
  </g>
</svg>
