<?xml version="1.0" encoding="UTF-8" standalone="no"?>
<svg
   height="64"
   width="64"
   version="1.1"
   id="svg9"
   sodipodi:docname="message-partial.svg"
   inkscape:version="1.1.2 (0a00cf5339, 2022-02-04)"
   xmlns:inkscape="http://www.inkscape.org/namespaces/inkscape"
   xmlns:sodipodi="http://sodipodi.sourceforge.net/DTD/sodipodi-0.dtd"
   xmlns:xlink="http://www.w3.org/1999/xlink"
   xmlns="http://www.w3.org/2000/svg"
   xmlns:svg="http://www.w3.org/2000/svg">
  <defs
     id="defs13">
    <linearGradient
       inkscape:collect="always"
       id="linearGradient847">
      <stop
         style="stop-color:#fe1952;stop-opacity:1;"
         offset="0"
         id="stop843" />
      <stop
         style="stop-color:#fe19ae;stop-opacity:0.99000001"
         offset="1"
         id="stop845" />
    </linearGradient>
    <linearGradient
       inkscape:collect="always"
       xlink:href="#linearGradient847"
       id="linearGradient849"
       x1="0.74914598"
       y1="9.771204"
       x2="11.366571"
       y2="-2.4842319"
       gradientUnits="userSpaceOnUse" />
  </defs>
  <sodipodi:namedview
     id="namedview11"
     pagecolor="#ffffff"
     bordercolor="#666666"
     borderopacity="1.0"
     inkscape:pageshadow="2"
     inkscape:pageopacity="0.0"
     inkscape:pagecheckerboard="0"
     showgrid="false"
     inkscape:zoom="10.21875"
     inkscape:cx="31.95107"
     inkscape:cy="32"
     inkscape:window-width="1600"
     inkscape:window-height="836"
     inkscape:window-x="0"
     inkscape:window-y="0"
     inkscape:window-maximized="1"
     inkscape:current-layer="svg9" />
  <path
     style="color:#000000;fill:#fe1952;fill-opacity:0.2;stroke-width:2;-inkscape-stroke:none"
     d="m 11.67,56.08 c 0,1.71 1.71,3.42 3.417,3.42 h 33.996 c 1.709,0 3.417,-1.71 3.417,-3.42 V 27.017 c 0,-1.71 0,-1.71 -1.708,-3.42 L 35.417,8.21 C 34.51,7.524 33.708,6.5 32,6.5 H 14.917 C 13.208,6.5 11.5,8.21 11.5,9.92 Z"
     id="path5483" />
  <g
     transform="matrix(2.8022093,0,0,2.8022093,9.5823259,19.055656)"
     id="g2522"
     style="fill:none;stroke:#fe1952;stroke-width:0.356861">
    <path
       id="path6"
       style="color:#807f7f;fill:url(#linearGradient849);stroke:none;-inkscape-stroke:none;fill-opacity:1"
       d="M 1.8222656,2.8222656 V 3 13.177734 h 6.1640625 v 0.002 H 14.177734 V 2.8242188 H 13.3125 L 7.8222656,2.8222656 V 3 4.1777344 h 4.0605474 l -1.341797,1.34375 -0.7031254,2.1015625 0.2968754,0.1835937 2.6875,-2.6875 V 10.271484 L 9.8125,7.6992187 9.359375,9.0585938 12.591797,11.824219 H 8.4375 L 8.078125,12.904297 V 11.822266 H 3.4082031 L 6.8964844,8.8359375 7.5273437,9.4667969 8.078125,10.068359 V 8.1386719 L 7.7617187,7.8222656 h -1.71875 L 3.1777344,10.269531 V 5.1171875 L 5.40625,7.3457031 5.8769531,5.9355469 4.1191406,4.1777344 h 2.34375 L 6.9140625,2.8222656 H 2.6875 Z M 2.1777344,3.1777344 H 2.6875 6.4179687 L 6.2050781,3.8222656 H 3.2578125 L 5.46875,6.03125 5.25,6.6835937 2.8222656,4.2558594 V 11.042969 L 6.1757812,8.1777344 h 1.4375 l 0.1074219,0.109375 V 9.1542969 L 6.9160156,8.3496094 2.8222656,11.855469 v 0.322265 h 4.8984375 v 0.644532 H 2.1777344 Z m 6,0 5.1347656,0.00195 h 0.509766 V 12.824219 H 8.4824219 L 8.6953125,12.179688 H 13.177734 V 11.857422 L 9.7734375,8.9433594 9.9824219,8.3144531 13.177734,11.044922 V 4.2578125 l -2.761718,2.7617187 0.435547,-1.3066406 1.892578,-1.890625 H 8.1777344 Z m -6.27365,-8.0152232 c -0.4239608,0 -0.8068209,0.2008547 -1.09149374,0.4858053 -0.28467288,0.2849507 -0.48510831,0.6675631 -0.48510831,1.0914937 v 6.959e-4 l 0.0606386,16.4734689 c 4.2823e-4,0.423508 0.20139145,0.80552 0.48580525,1.0901 0.2847293,0.284897 0.6670533,0.485807 1.0907968,0.485807 h 12.131192 c 0.423961,0 0.806821,-0.200855 1.091494,-0.485806 0.284673,-0.28495 0.485108,-0.667563 0.485108,-1.091493 V 2.8413017 c 0,-0.3051161 0.0051,-0.5325448 -0.11361,-0.7701791 C 15.440229,1.8334883 15.263554,1.673668 14.958795,1.3685519 L 9.4546279,-4.1397971 9.4344149,-4.155131 C 9.1662904,-4.3579243 8.7521514,-4.8374888 7.9999999,-4.8374888 Z m 0,0.7137226 h 6.0959155 c 0.4547701,0 0.6214286,0.2411304 0.9799746,0.518564 l 5.4734995,5.4783781 c 0.304271,0.3046521 0.43331,0.4497387 0.466986,0.5171702 0.0337,0.067482 0.03834,0.1458395 0.03834,0.4509556 V 13.212583 c 0,0.186301 -0.104152,0.414146 -0.276707,0.586869 -0.172555,0.172724 -0.400258,0.276707 -0.586173,0.276707 H 1.964723 c -0.1854183,0 -0.4134955,-0.103929 -0.5861725,-0.276707 -0.1726773,-0.172778 -0.276707,-0.400707 -0.276707,-0.586869 v -7.14e-4 -7.14e-4 L 1.0412049,-3.2601898 c 0,-0.1863015 0.1041518,-0.414146 0.276707,-0.5868695 0.172555,-0.1727236 0.4002582,-0.2767069 0.5861725,-0.2767069 z" />
  </g>
</svg>
