<?xml version="1.0" encoding="UTF-8" standalone="no"?>
<svg
   height="64"
   width="64"
   version="1.1"
   id="svg9"
   sodipodi:docname="text-x-qml.svg"
   inkscape:version="1.1.2 (0a00cf5339, 2022-02-04)"
   xmlns:inkscape="http://www.inkscape.org/namespaces/inkscape"
   xmlns:sodipodi="http://sodipodi.sourceforge.net/DTD/sodipodi-0.dtd"
   xmlns:xlink="http://www.w3.org/1999/xlink"
   xmlns="http://www.w3.org/2000/svg"
   xmlns:svg="http://www.w3.org/2000/svg">
  <defs
     id="defs13">
    <linearGradient
       inkscape:collect="always"
       id="linearGradient846">
      <stop
         style="stop-color:#00ff80;stop-opacity:1;"
         offset="0"
         id="stop842" />
      <stop
         style="stop-color:#3bff00;stop-opacity:1"
         offset="1"
         id="stop844" />
    </linearGradient>
    <linearGradient
       inkscape:collect="always"
       xlink:href="#linearGradient846"
       id="linearGradient848"
       x1="19.432613"
       y1="45.501068"
       x2="42.80014"
       y2="17.500902"
       gradientUnits="userSpaceOnUse" />
  </defs>
  <sodipodi:namedview
     id="namedview11"
     pagecolor="#ffffff"
     bordercolor="#666666"
     borderopacity="1.0"
     inkscape:pageshadow="2"
     inkscape:pageopacity="0.0"
     inkscape:pagecheckerboard="0"
     showgrid="false"
     inkscape:zoom="7.2257474"
     inkscape:cx="31.899814"
     inkscape:cy="31.969011"
     inkscape:window-width="1600"
     inkscape:window-height="836"
     inkscape:window-x="0"
     inkscape:window-y="0"
     inkscape:window-maximized="1"
     inkscape:current-layer="svg9" />
  <path
     style="color:#000000;fill:#00ff80;fill-opacity:0.2;stroke-width:2;-inkscape-stroke:none"
     d="m 11.67,56.08 c 0,1.71 1.71,3.42 3.417,3.42 h 33.996 c 1.709,0 3.417,-1.71 3.417,-3.42 V 27.017 c 0,-1.71 0,-1.71 -1.708,-3.42 L 35.417,8.21 C 34.51,7.524 33.708,6.5 32,6.5 H 14.917 C 13.208,6.5 11.5,8.21 11.5,9.92 Z"
     id="path8467" />
  <path
     id="path6"
     style="color:#000000;fill:url(#linearGradient848);-inkscape-stroke:none;fill-opacity:1"
     d="m 18.265625,23.765625 c -1.790036,0 -3.246094,1.45801 -3.246094,3.248047 v 21.972656 c 0,1.790037 1.456058,3.248047 3.246094,3.248047 h 27.46875 c 1.790036,0 3.246094,-1.45801 3.246094,-3.248047 V 27.013672 c 0,-1.790037 -1.456058,-3.248047 -3.246094,-3.248047 z m 0,1 h 27.46875 c 1.253333,0 2.246094,0.994712 2.246094,2.248047 v 21.972656 c 0,1.253335 -0.992761,2.248047 -2.246094,2.248047 h -27.46875 c -1.253333,0 -2.246094,-0.994712 -2.246094,-2.248047 V 27.013672 c 0,-1.253335 0.992761,-2.248047 2.246094,-2.248047 z m 15.107422,1.748047 C 32.790387,26.51345 32.291174,26.74883 31.970703,27.109375 31.650232,27.46992 31.5,27.93231 31.5,28.386719 c 0,0.454409 0.150336,0.914718 0.470703,1.27539 0.320367,0.360673 0.819684,0.597434 1.402344,0.597657 0.58266,2.22e-4 1.083826,-0.235158 1.404297,-0.595704 0.320471,-0.360545 0.46875,-0.822934 0.46875,-1.277343 0,-0.454409 -0.148384,-0.914718 -0.46875,-1.275391 -0.320367,-0.360672 -0.821637,-0.597434 -1.404297,-0.597656 z m 5.49414,0 c -0.582659,-2.22e-4 -1.083826,0.235158 -1.404296,0.595703 -0.320471,0.360545 -0.46875,0.822935 -0.46875,1.277344 0,0.454409 0.148383,0.914718 0.46875,1.27539 0.320366,0.360673 0.821637,0.597434 1.404296,0.597657 0.58266,2.22e-4 1.081873,-0.235158 1.402344,-0.595704 0.320471,-0.360545 0.470703,-0.822934 0.470703,-1.277343 0,-0.454409 -0.150336,-0.914718 -0.470703,-1.275391 -0.320366,-0.360672 -0.819684,-0.597434 -1.402344,-0.597656 z m 5.494141,0 c -0.58266,-2.22e-4 -1.083826,0.235158 -1.404297,0.595703 -0.320471,0.360545 -0.46875,0.822935 -0.46875,1.277344 0,0.454409 0.148384,0.914718 0.46875,1.27539 0.320367,0.360673 0.819684,0.597434 1.402344,0.597657 0.58266,2.22e-4 1.083826,-0.235158 1.404297,-0.595704 0.320471,-0.360545 0.46875,-0.822934 0.46875,-1.277343 0,-0.454409 -0.148383,-0.914718 -0.46875,-1.275391 -0.320367,-0.360672 -0.819684,-0.597434 -1.402344,-0.597656 z m -10.988281,1 c 0.332565,1.27e-4 0.519004,0.107206 0.65625,0.261719 0.137245,0.154512 0.216797,0.379056 0.216797,0.611328 0,0.232272 -0.07966,0.457037 -0.216797,0.611328 -0.137142,0.154291 -0.323685,0.261846 -0.65625,0.261719 -0.332565,-1.27e-4 -0.519005,-0.107206 -0.65625,-0.261719 C 32.579551,28.843534 32.5,28.618991 32.5,28.386719 c 0,-0.232272 0.07966,-0.458991 0.216797,-0.613282 0.137141,-0.15429 0.323685,-0.259892 0.65625,-0.259765 z m 5.49414,0 c 0.332565,1.27e-4 0.519005,0.107206 0.65625,0.261719 0.137246,0.154512 0.216797,0.379056 0.216797,0.611328 0,0.232272 -0.07966,0.457037 -0.216797,0.611328 -0.137141,0.154291 -0.323685,0.261846 -0.65625,0.261719 -0.332564,-1.27e-4 -0.519004,-0.107206 -0.65625,-0.261719 -0.137245,-0.154513 -0.216796,-0.379056 -0.216796,-0.611328 0,-0.232272 0.07966,-0.458991 0.216796,-0.613282 0.137142,-0.15429 0.323686,-0.259892 0.65625,-0.259765 z m 5.492188,0 c 0.332565,1.27e-4 0.519004,0.107206 0.65625,0.261719 0.137246,0.154512 0.216797,0.379056 0.216797,0.611328 0,0.232272 -0.07966,0.457037 -0.216797,0.611328 -0.137141,0.154291 -0.321732,0.261846 -0.654297,0.261719 -0.332565,-1.27e-4 -0.519004,-0.107206 -0.65625,-0.261719 -0.137245,-0.154513 -0.216797,-0.379056 -0.216797,-0.611328 0,-0.232272 0.07966,-0.458991 0.216797,-0.613282 0.137142,-0.15429 0.321732,-0.259892 0.654297,-0.259765 z m -26.59375,4.492187 v 0.5 16.980469 h 28.46875 V 32.005859 Z m 1,1 h 26.46875 V 48.486328 H 18.765625 Z M 14.917969,5.5 C 13.729942,5.5 12.657088,6.0628369 11.859375,6.8613281 11.061662,7.6598194 10.5,8.7319796 10.5,9.9199219 v 0.00195 l 0.169922,46.1621091 c 0.0012,1.186757 0.564341,2.257235 1.361328,3.054688 C 12.829121,59.93701 13.900473,60.5 15.087891,60.5 h 33.99414 c 1.188027,0 2.260881,-0.562837 3.058594,-1.361328 C 52.938338,58.340181 53.5,57.26802 53.5,56.080078 v -29.0625 c 0,-0.854999 0.0142,-1.492302 -0.318359,-2.158203 C 52.849079,24.193474 52.353999,23.745624 51.5,22.890625 L 36.076172,7.4550781 36.019531,7.4121094 C 35.26819,6.8438401 34.107686,5.5 32,5.5 Z m 0,2 H 32 c 1.274361,0 1.741373,0.6756979 2.746094,1.453125 l 15.33789,15.351562 c 0.852631,0.853699 1.214226,1.260262 1.308594,1.449219 C 51.487016,25.943004 51.5,26.162579 51.5,27.017578 v 29.0625 c 0,0.522056 -0.291855,1.160524 -0.775391,1.644531 C 50.241074,58.208617 49.603002,58.5 49.082031,58.5 h -33.99414 c -0.519581,0 -1.158701,-0.29123 -1.642578,-0.775391 -0.483878,-0.48416 -0.775391,-1.122865 -0.775391,-1.644531 v -0.002 -0.002 L 12.5,9.9199219 c 0,-0.522056 0.291855,-1.1605238 0.775391,-1.6445313 C 13.758926,7.7913831 14.396998,7.5 14.917969,7.5 Z" />
</svg>
