<?xml version="1.0" encoding="UTF-8" standalone="no"?>
<svg
   height="64"
   width="64"
   version="1.1"
   id="svg13"
   sodipodi:docname="text-x-nfo.svg"
   inkscape:version="1.1.2 (0a00cf5339, 2022-02-04)"
   xmlns:inkscape="http://www.inkscape.org/namespaces/inkscape"
   xmlns:sodipodi="http://sodipodi.sourceforge.net/DTD/sodipodi-0.dtd"
   xmlns:xlink="http://www.w3.org/1999/xlink"
   xmlns="http://www.w3.org/2000/svg"
   xmlns:svg="http://www.w3.org/2000/svg">
  <defs
     id="defs17">
    <linearGradient
       inkscape:collect="always"
       id="linearGradient856">
      <stop
         style="stop-color:#00ffa0;stop-opacity:1;"
         offset="0"
         id="stop852" />
      <stop
         style="stop-color:#00c4ff;stop-opacity:1"
         offset="1"
         id="stop854" />
    </linearGradient>
    <linearGradient
       inkscape:collect="always"
       xlink:href="#linearGradient856"
       id="linearGradient858"
       x1="3.6401637"
       y1="11.107029"
       x2="10.310225"
       y2="0.35223466"
       gradientUnits="userSpaceOnUse" />
  </defs>
  <sodipodi:namedview
     id="namedview15"
     pagecolor="#ffffff"
     bordercolor="#666666"
     borderopacity="1.0"
     inkscape:pageshadow="2"
     inkscape:pageopacity="0.0"
     inkscape:pagecheckerboard="0"
     showgrid="false"
     inkscape:zoom="10.21875"
     inkscape:cx="31.95107"
     inkscape:cy="32"
     inkscape:window-width="1600"
     inkscape:window-height="836"
     inkscape:window-x="0"
     inkscape:window-y="0"
     inkscape:window-maximized="1"
     inkscape:current-layer="svg13" />
  <path
     style="color:#000000;fill:#19c5ff;fill-opacity:0.2;stroke-width:2;-inkscape-stroke:none"
     d="m 11.67,56.08 c 0,1.71 1.71,3.42 3.417,3.42 h 33.996 c 1.709,0 3.417,-1.71 3.417,-3.42 V 27.017 c 0,-1.71 0,-1.71 -1.708,-3.42 L 35.417,8.21 C 34.51,7.524 33.708,6.5 32,6.5 H 14.917 C 13.208,6.5 11.5,8.21 11.5,9.92 Z"
     id="path7388" />
  <g
     fill="#19c5ff"
     id="g10"
     transform="matrix(2.4526083,0,0,2.4526083,12.379133,18.379133)"
     style="fill:url(#linearGradient858);stroke:#18c3ff;stroke-width:0.407729;stroke-opacity:0.996078;fill-opacity:1">
    <path
       id="path8"
       style="color:#000000;fill:url(#linearGradient858);fill-opacity:1.0;stroke:none;stroke-opacity:1;-inkscape-stroke:none"
       d="M 7.296875,3.796875 V 4 5.203125 h 1.40625 v -1.40625 z m 0.40625,0.40625 h 0.59375 v 0.59375 h -0.59375 z m -0.40625,1.59375 V 6 12.203125 h 1.40625 v -6.40625 z m 0.40625,0.40625 h 0.59375 v 5.59375 H 7.703125 Z M 8,1.796875 C 4.5761162,1.796875 1.796875,4.5761186 1.796875,8 c 0,3.423881 2.7792412,6.203125 6.203125,6.203125 3.423884,0 6.203125,-2.779244 6.203125,-6.203125 C 14.203125,4.5761186 11.423884,1.796875 8,1.796875 Z m 0,0.40625 c 3.203531,0 5.796875,2.5933461 5.796875,5.796875 0,3.203529 -2.593344,5.796875 -5.796875,5.796875 C 4.7964689,13.796875 2.203125,11.203529 2.203125,8 2.203125,4.7964711 4.7964689,2.203125 8,2.203125 Z m 0,0.59375 C 6.282203,2.7967032 4.9685324,3.4481955 4.0976562,4.4277344 3.2267801,5.4072732 2.7950514,6.7045731 2.7949219,8 c -1.296e-4,1.2954269 0.4301009,2.594506 1.3007812,3.574219 0.8706803,0.979713 2.1845467,1.630687 3.9023438,1.630859 2.8718751,2.87e-4 5.2047911,-2.331252 5.2050781,-5.2031249 C 13.203412,5.1300798 10.871875,2.7971622 8,2.796875 Z m 0,0.40625 c 2.651523,2.651e-4 4.79714,2.1473073 4.796875,4.7988281 C 12.79661,10.653474 10.64957,12.79714 7.9980469,12.796875 6.382182,12.796713 5.1963538,12.198374 4.4003906,11.302734 3.6044275,10.407095 3.2030045,9.2048206 3.203125,8 3.2032455,6.7951794 3.6062015,5.5927457 4.4023437,4.6972656 5.198486,3.8017855 6.3841352,3.2029634 8,3.203125 Z M 1.0351576,-5.2511985 c -0.48439334,0 -0.92182723,0.229485 -1.24707811,0.5550532 -0.32525088,0.3255682 -0.55425687,0.7627192 -0.55425687,1.247078 v 7.951e-4 l 0.0692822,18.8216392 c 4.8928e-4,0.483876 0.2300983,0.920341 0.55505317,1.245486 0.32531529,0.325507 0.76213678,0.555054 1.24628171,0.555054 H 14.964843 c 0.484393,0 0.921827,-0.229485 1.247078,-0.555053 0.325251,-0.325568 0.554257,-0.76272 0.554257,-1.247078 V 3.5221462 c 0,-0.3486081 0.0058,-0.6084551 -0.129804,-0.8799624 C 16.500778,2.3706766 16.29892,2.188075 15.950719,1.839467 l -6.2887444,-6.2935231 -0.023094,-0.01752 c -0.3063437,-0.2317 -0.779515,-0.7796228 -1.6388802,-0.7796228 z m 0,0.8154584 h 6.9648426 c 0.5195942,0 0.7100087,0.2755018 1.1196627,0.5924815 l 6.2537051,6.2592799 c 0.347643,0.348078 0.495076,0.5138457 0.533552,0.5908889 0.03851,0.077101 0.0438,0.1666279 0.0438,0.515236 V 15.371776 c 0,0.212857 -0.118997,0.473179 -0.316149,0.670523 -0.197151,0.197344 -0.457312,0.31615 -0.669727,0.31615 H 1.1044397 c -0.21184833,0 -0.47243621,-0.118743 -0.66972699,-0.31615 C 0.23742152,15.844893 0.11856316,15.584474 0.11856316,15.371776 v -8.16e-4 -8.15e-4 L 0.049281,-3.4490673 c 0,-0.2128575 0.11899781,-0.4731794 0.31614955,-0.6705234 0.19715133,-0.197344 0.45731192,-0.3161494 0.66972705,-0.3161494 z" />
  </g>
</svg>
