<?xml version="1.0" encoding="UTF-8" standalone="no"?>
<svg
   height="64"
   width="64"
   version="1.1"
   id="svg9"
   sodipodi:docname="text-x-java.svg"
   inkscape:version="1.1.2 (0a00cf5339, 2022-02-04)"
   xmlns:inkscape="http://www.inkscape.org/namespaces/inkscape"
   xmlns:sodipodi="http://sodipodi.sourceforge.net/DTD/sodipodi-0.dtd"
   xmlns:xlink="http://www.w3.org/1999/xlink"
   xmlns="http://www.w3.org/2000/svg"
   xmlns:svg="http://www.w3.org/2000/svg">
  <defs
     id="defs13">
    <linearGradient
       inkscape:collect="always"
       id="linearGradient959">
      <stop
         style="stop-color:#00adff;stop-opacity:1;"
         offset="0"
         id="stop955" />
      <stop
         style="stop-color:#002eff;stop-opacity:1"
         offset="1"
         id="stop957" />
    </linearGradient>
    <linearGradient
       inkscape:collect="always"
       xlink:href="#linearGradient959"
       id="linearGradient961"
       x1="17.03911"
       y1="46.684502"
       x2="39.688713"
       y2="20.173054"
       gradientUnits="userSpaceOnUse" />
  </defs>
  <sodipodi:namedview
     id="namedview11"
     pagecolor="#ffffff"
     bordercolor="#666666"
     borderopacity="1.0"
     inkscape:pageshadow="2"
     inkscape:pageopacity="0.0"
     inkscape:pagecheckerboard="0"
     showgrid="false"
     inkscape:zoom="10.21875"
     inkscape:cx="31.95107"
     inkscape:cy="32"
     inkscape:window-width="1600"
     inkscape:window-height="836"
     inkscape:window-x="0"
     inkscape:window-y="0"
     inkscape:window-maximized="1"
     inkscape:current-layer="svg9" />
  <path
     style="color:#000000;fill:#fe8c19;fill-opacity:0.2;stroke-width:2;-inkscape-stroke:none"
     d="m 11.67,56.08 c 0,1.71 1.71,3.42 3.417,3.42 h 33.996 c 1.709,0 3.417,-1.71 3.417,-3.42 V 27.017 c 0,-1.71 0,-1.71 -1.708,-3.42 L 35.417,8.21 C 34.51,7.524 33.708,6.5 32,6.5 H 14.917 C 13.208,6.5 11.5,8.21 11.5,9.92 Z"
     id="path9949" />
  <path
     id="path6518"
     style="color:#000000;fill:url(#linearGradient961);-inkscape-stroke:none;fill-opacity:1"
     d="m 42.941406,32.025391 -27.855468,0.0039 v 11.441406 c 0,2.572645 0.72294,4.765114 2.201171,6.308594 0.58105,0.606696 1.362939,1.014752 2.16211,1.398437 h -1.626953 v 3.736328 h 22.884765 v -3.736328 h -1.638672 c 1.890616,-0.908809 3.291651,-2.410092 4.166016,-4.470703 h 2.443359 c 0.684122,0 1.204816,0.0011 1.642578,-0.05273 0.437763,-0.05387 0.838567,-0.178493 1.121094,-0.488281 0.282527,-0.309789 0.378518,-0.708967 0.425781,-1.173829 0.04726,-0.464861 0.04688,-1.03121 0.04687,-1.777343 v -2.994141 c 10e-7,-2.486635 0.07482,-3.720168 -0.404296,-4.585937 -0.23956,-0.432885 -0.683694,-0.694161 -1.152344,-0.78711 -0.46865,-0.09295 -0.996253,-0.08594 -1.679688,-0.08594 h -2.236328 v -2.736328 z m -0.5,1 v 2.736328 h 3.236328 c 0.684352,0 1.183646,0.0068 1.484375,0.06641 0.30073,0.05965 0.37027,0.10405 0.472657,0.289062 0.204773,0.370025 0.279296,1.616881 0.279296,4.103516 v 2.994141 c 10e-7,0.746133 -0.0028,1.299837 -0.04102,1.675781 -0.03822,0.375944 -0.112455,0.536409 -0.171875,0.601562 -0.05942,0.06515 -0.170337,0.129117 -0.501953,0.169922 -0.331617,0.04081 -0.83782,0.04492 -1.521485,0.04492 h -3.078125 l -0.123047,0.31836 c -1.294903,3.343636 -3.59407,5.152343 -7.740234,5.152343 v 1 h 4.970703 v 1.736328 h -20.88476 v -1.736328 h 4.970703 v -1 c -2.622481,0 -4.519023,-0.769862 -5.783203,-2.089843 -1.264181,-1.319981 -1.923828,-3.230239 -1.923829,-5.617188 V 33.029297 Z m -24.61914,1.738281 v 0.5 8.207031 c 0,2.214309 1.043447,3.798693 2.65039,4.720703 1.606944,0.922011 3.734343,1.25 6.056641,1.25 H 32 c 2.322298,0 4.449697,-0.327989 6.056641,-1.25 1.606943,-0.92201 2.65039,-2.506394 2.65039,-4.720703 v -8.707031 z m 1,1 h 20.884765 v 7.707031 c 0,1.919141 -0.788653,3.071363 -2.148437,3.851563 -1.359785,0.780199 -3.334371,1.11914 -5.558594,1.11914 h -5.470703 c -2.224224,0 -4.200762,-0.338941 -5.560547,-1.11914 -1.359785,-0.7802 -2.146484,-1.932422 -2.146484,-3.851563 z M 42.441406,37.5 v 0.5 5.970703 h 3.736328 V 37.5 Z m 1,1 h 1.736328 v 4.470703 H 43.441406 Z M 14.917969,5.5 C 13.729942,5.5 12.657088,6.0628369 11.859375,6.8613281 11.061662,7.6598194 10.5,8.7319796 10.5,9.9199219 v 0.00195 l 0.169922,46.1621091 c 0.0012,1.186757 0.564341,2.257235 1.361328,3.054688 C 12.829121,59.93701 13.900473,60.5 15.087891,60.5 h 33.99414 c 1.188027,0 2.260881,-0.562837 3.058594,-1.361328 C 52.938338,58.340181 53.5,57.26802 53.5,56.080078 v -29.0625 c 0,-0.854999 0.0142,-1.492302 -0.318359,-2.158203 C 52.849079,24.193474 52.353999,23.745624 51.5,22.890625 L 36.076172,7.4550781 36.019531,7.4121094 C 35.26819,6.8438401 34.107686,5.5 32,5.5 Z m 0,2 H 32 c 1.274361,0 1.741373,0.6756979 2.746094,1.453125 l 15.33789,15.351562 c 0.852631,0.853699 1.214226,1.260262 1.308594,1.449219 C 51.487016,25.943004 51.5,26.162579 51.5,27.017578 v 29.0625 c 0,0.522056 -0.291855,1.160524 -0.775391,1.644531 C 50.241074,58.208617 49.603002,58.5 49.082031,58.5 h -33.99414 c -0.519581,0 -1.158701,-0.29123 -1.642578,-0.775391 -0.483878,-0.48416 -0.775391,-1.122865 -0.775391,-1.644531 v -0.002 -0.002 L 12.5,9.9199219 c 0,-0.522056 0.291855,-1.1605238 0.775391,-1.6445313 C 13.758926,7.7913831 14.396998,7.5 14.917969,7.5 Z" />
  <path
     id="path6-3"
     style="fill:none;fill-opacity:1;stroke-width:1;stroke:#fe3f01;stroke-opacity:1;stroke-miterlimit:4;stroke-dasharray:none"
     d="m 29.264425,21.586549 v 8.206726 H 32 v -8.206726 z m -5.47115,2.735575 v 5.471151 h 2.735575 v -5.471151 z m 10.9423,0 v 5.471151 H 37.47115 V 24.322124 Z M 18.322124,27.0577 v 2.735575 H 21.0577 V 27.0577 Z" />
</svg>
