<?xml version="1.0" encoding="UTF-8" standalone="no"?>
<svg
   height="64"
   width="64"
   version="1.1"
   id="svg9"
   sodipodi:docname="text-x-python.svg"
   inkscape:version="1.1.2 (0a00cf5339, 2022-02-04)"
   xmlns:inkscape="http://www.inkscape.org/namespaces/inkscape"
   xmlns:sodipodi="http://sodipodi.sourceforge.net/DTD/sodipodi-0.dtd"
   xmlns:xlink="http://www.w3.org/1999/xlink"
   xmlns="http://www.w3.org/2000/svg"
   xmlns:svg="http://www.w3.org/2000/svg">
  <defs
     id="defs13">
    <linearGradient
       inkscape:collect="always"
       id="linearGradient891">
      <stop
         style="stop-color:#fffe00;stop-opacity:1;"
         offset="0"
         id="stop887" />
      <stop
         style="stop-color:#ff9400;stop-opacity:1"
         offset="1"
         id="stop889" />
    </linearGradient>
    <linearGradient
       inkscape:collect="always"
       xlink:href="#linearGradient891"
       id="linearGradient849"
       x1="20.084812"
       y1="49.118675"
       x2="47.280239"
       y2="19.710516"
       gradientUnits="userSpaceOnUse" />
  </defs>
  <sodipodi:namedview
     id="namedview11"
     pagecolor="#ffffff"
     bordercolor="#666666"
     borderopacity="1.0"
     inkscape:pageshadow="2"
     inkscape:pageopacity="0.0"
     inkscape:pagecheckerboard="0"
     showgrid="false"
     inkscape:zoom="10.21875"
     inkscape:cx="31.95107"
     inkscape:cy="32"
     inkscape:window-width="1600"
     inkscape:window-height="836"
     inkscape:window-x="0"
     inkscape:window-y="0"
     inkscape:window-maximized="1"
     inkscape:current-layer="svg9" />
  <path
     style="color:#000000;fill:#fffe00;fill-opacity:0.2;stroke-width:2;-inkscape-stroke:none"
     d="m 11.67,56.08 c 0,1.71 1.71,3.42 3.417,3.42 h 33.996 c 1.709,0 3.417,-1.71 3.417,-3.42 V 27.017 c 0,-1.71 0,-1.71 -1.708,-3.42 L 35.417,8.21 C 34.51,7.524 33.708,6.5 32,6.5 H 14.917 C 13.208,6.5 11.5,8.21 11.5,9.92 Z"
     id="path6126" />
  <path
     id="path1014"
     style="color:#000000;fill:url(#linearGradient849);-inkscape-stroke:none;fill-opacity:1"
     d="m 42.013672,29.615234 v 0.5 2.628907 c 0,2.189609 -0.964232,4.125474 -2.464844,5.480468 -0.321794,0.289773 -0.667941,0.551775 -1.035156,0.78125 -4.42e-4,2.77e-4 -0.0015,-2.76e-4 -0.002,0 l -0.02148,0.01172 c -0.368587,0.22949 -0.756732,0.425403 -1.160156,0.585938 v 0.002 c -0.03063,0.01225 -0.102729,0.02969 -0.212891,0.06641 l -0.0078,0.002 -0.0059,0.002 c -0.3561,0.129722 -0.707202,0.242917 -1.0625,0.314453 l 0.002,-0.002 c -0.465744,0.09164 -0.939389,0.139506 -1.414063,0.140625 H 23.617187 v 8.384766 c 0,3.180547 2.575314,5.755859 5.75586,5.755859 h 5.257812 c 3.180547,0 5.75586,-2.575312 5.75586,-5.755859 v -0.5 h -7.884766 v -1.628906 h 10.013672 c 3.180546,0 5.755859,-2.575313 5.755859,-5.75586 v -5.257812 c 0,-3.180547 -2.575313,-5.75586 -5.755859,-5.75586 z m 1,1.09961 c 2.393806,0.257419 4.257812,2.189463 4.257812,4.65625 v 5.257812 c 0,2.643844 -2.112015,4.75586 -4.755859,4.75586 H 31.501953 v 3.628906 h 7.785156 c -0.258531,2.392604 -2.19031,4.255859 -4.65625,4.255859 h -5.257812 c -2.643844,0 -4.75586,-2.112014 -4.75586,-4.755859 v -7.384766 h 10.013672 c 0.538698,-0.0013 1.076905,-0.0542 1.605469,-0.158203 h 0.002 v -0.002 c 0.427945,-0.08616 0.827198,-0.215148 1.207031,-0.353516 l -0.01367,0.0059 c 0.04754,-0.01584 0.142465,-0.03706 0.269531,-0.08789 0.458641,-0.182506 0.899323,-0.405115 1.318359,-0.666016 l 0.0098,-0.0059 c 0.422121,-0.262676 0.820064,-0.561759 1.189453,-0.894531 h 0.002 c 1.695443,-1.530919 2.792969,-3.739084 2.792969,-6.222656 z m -3.994141,9.152343 -0.04102,0.02344 0.03125,-0.01563 z m -4.388672,9.460938 c -0.563055,0 -1.048711,0.228628 -1.359375,0.578125 -0.310664,0.349497 -0.455078,0.796675 -0.455078,1.236328 0,0.439653 0.144414,0.884878 0.455078,1.234375 0.310664,0.349497 0.79632,0.578125 1.359375,0.578125 0.563056,0 1.048711,-0.228628 1.359375,-0.578125 0.310664,-0.349497 0.455079,-0.794722 0.455078,-1.234375 10e-7,-0.439653 -0.144414,-0.886831 -0.455078,-1.236328 -0.310664,-0.349497 -0.796319,-0.578125 -1.359375,-0.578125 z m 0,1 c 0.313056,0 0.483937,0.09887 0.611328,0.242187 0.127392,0.143316 0.203125,0.354835 0.203125,0.572266 0,0.217431 -0.07573,0.426997 -0.203125,0.570313 -0.127391,0.143315 -0.298272,0.242187 -0.611328,0.242187 -0.313055,0 -0.483936,-0.09887 -0.611328,-0.242187 -0.127391,-0.143316 -0.203125,-0.352882 -0.203125,-0.570313 0,-0.217431 0.07573,-0.42895 0.203125,-0.572266 0.127392,-0.143315 0.298273,-0.242187 0.611328,-0.242187 z M 14.917969,5.5 C 13.729942,5.5 12.657088,6.0628369 11.859375,6.8613281 11.061662,7.6598194 10.5,8.7319796 10.5,9.9199219 v 0.00195 l 0.169922,46.1621091 c 0.0012,1.186757 0.564341,2.257235 1.361328,3.054688 C 12.829121,59.93701 13.900473,60.5 15.087891,60.5 h 33.99414 c 1.188027,0 2.260881,-0.562837 3.058594,-1.361328 C 52.938338,58.340181 53.5,57.26802 53.5,56.080078 v -29.0625 c 0,-0.854999 0.0142,-1.492302 -0.318359,-2.158203 C 52.849079,24.193474 52.353999,23.745624 51.5,22.890625 L 36.076172,7.4550781 36.019531,7.4121094 C 35.26819,6.8438401 34.107686,5.5 32,5.5 Z m 0,2 H 32 c 1.274361,0 1.741373,0.6756979 2.746094,1.453125 l 15.33789,15.351562 c 0.852631,0.853699 1.214226,1.260262 1.308594,1.449219 C 51.487016,25.943004 51.5,26.162579 51.5,27.017578 v 29.0625 c 0,0.522056 -0.291855,1.160524 -0.775391,1.644531 C 50.241074,58.208617 49.603002,58.5 49.082031,58.5 h -33.99414 c -0.519581,0 -1.158701,-0.29123 -1.642578,-0.775391 -0.483878,-0.48416 -0.775391,-1.122865 -0.775391,-1.644531 v -0.002 -0.002 L 12.5,9.9199219 c 0,-0.522056 0.291855,-1.1605238 0.775391,-1.6445313 C 13.758926,7.7913831 14.396998,7.5 14.917969,7.5 Z" />
  <path
     id="path6"
     style="fill:none;fill-opacity:1;stroke-width:1;stroke:#0088ff;stroke-opacity:1;stroke-miterlimit:4;stroke-dasharray:none"
     d="m 29.371355,22.229973 c -2.912198,0 -5.256675,2.344477 -5.256675,5.256676 h 7.885013 v 2.628338 H 21.486342 c -2.912198,0 -5.256676,2.344477 -5.256676,5.256675 v 5.256676 c 0,2.912198 2.344478,5.256675 5.256676,5.256675 v -2.628337 c 0,-2.336593 1.025052,-4.404068 2.628338,-5.847026 l 0.0051,-0.0051 a 7.9375803,7.9375803 0 0 1 1.119097,-0.841889 l 0.01027,-0.0051 a 7.8061634,7.8061634 0 0 1 1.239734,-0.626285 c 0.07885,-0.03154 0.162422,-0.05072 0.241272,-0.077 0.367968,-0.134045 0.742876,-0.254826 1.134499,-0.333676 0.488871,-0.09462 0.991457,-0.148871 1.50924,-0.148871 h 10.513351 v -7.885013 c 0,-2.912199 -2.344477,-5.256676 -5.256675,-5.256676 z m 0,1.314169 a 1.314169,1.314169 0 0 1 0,2.628338 1.314169,1.314169 0 0 1 0,-2.628338 z" />
</svg>
