<?xml version="1.0" encoding="UTF-8" standalone="no"?>
<svg
   height="64"
   width="64"
   version="1.1"
   id="svg9"
   sodipodi:docname="text-rust.svg"
   inkscape:version="1.1.2 (0a00cf5339, 2022-02-04)"
   xmlns:inkscape="http://www.inkscape.org/namespaces/inkscape"
   xmlns:sodipodi="http://sodipodi.sourceforge.net/DTD/sodipodi-0.dtd"
   xmlns:xlink="http://www.w3.org/1999/xlink"
   xmlns="http://www.w3.org/2000/svg"
   xmlns:svg="http://www.w3.org/2000/svg">
  <defs
     id="defs13">
    <linearGradient
       inkscape:collect="always"
       id="linearGradient846">
      <stop
         style="stop-color:#198cfe;stop-opacity:1;"
         offset="0"
         id="stop842" />
      <stop
         style="stop-color:#19f5fe;stop-opacity:1"
         offset="1"
         id="stop844" />
    </linearGradient>
    <linearGradient
       inkscape:collect="always"
       xlink:href="#linearGradient846"
       id="linearGradient848"
       x1="13.76412"
       y1="47.488152"
       x2="44.390175"
       y2="15.760345"
       gradientUnits="userSpaceOnUse" />
  </defs>
  <sodipodi:namedview
     id="namedview11"
     pagecolor="#ffffff"
     bordercolor="#666666"
     borderopacity="1.0"
     inkscape:pageshadow="2"
     inkscape:pageopacity="0.0"
     inkscape:pagecheckerboard="0"
     showgrid="false"
     inkscape:zoom="10.21875"
     inkscape:cx="31.95107"
     inkscape:cy="32"
     inkscape:window-width="1600"
     inkscape:window-height="836"
     inkscape:window-x="0"
     inkscape:window-y="0"
     inkscape:window-maximized="1"
     inkscape:current-layer="svg9" />
  <path
     style="color:#000000;fill:#198cfe;fill-opacity:0.2;stroke-width:2;-inkscape-stroke:none"
     d="m 11.67,56.08 c 0,1.71 1.71,3.42 3.417,3.42 h 33.996 c 1.709,0 3.417,-1.71 3.417,-3.42 V 27.017 c 0,-1.71 0,-1.71 -1.708,-3.42 L 35.417,8.21 C 34.51,7.524 33.708,6.5 32,6.5 H 14.917 C 13.208,6.5 11.5,8.21 11.5,9.92 Z"
     id="path5302" />
  <path
     id="path6"
     style="color:#000000;fill:url(#linearGradient848);-inkscape-stroke:none;fill-opacity:1"
     d="m 16.59375,24.681641 0.263672,0.427734 -0.703125,-0.166016 -0.369141,0.738282 h 0.316406 v 5.683593 h 5.132813 v 13.25586 h -5.132813 v 6.669922 l 0.498047,0.002 c 5.421902,0.0231 9.9579,0.02734 15.402344,0.02734 h 0.5 V 44.621094 H 27.367187 V 41.255859 L 33.25,41.300781 h 0.002 c 0.162108,10e-4 0.619164,0.02722 1.089844,0.324219 0.47068,0.296995 0.983487,0.857147 1.251953,2.085937 h 0.002 c 0.08311,0.37343 0.232413,1.257367 0.390625,2.136719 0.157236,0.873925 0.313954,1.7299 0.472656,2.234375 3.2e-4,0.0011 0.0016,0.0028 0.002,0.0039 0.162622,0.564855 0.523002,1.304992 1.025391,1.960938 0.503381,0.65724 1.15975,1.277344 2.021484,1.277344 h 0.002 0.002 c 2.539066,-0.02048 5.511906,0.0098 7.882812,0.0098 h 0.5 v -8.24414 l -0.779297,0.52539 c -0.271652,0.182613 -0.58429,0.293336 -0.910156,0.324219 l -0.0078,0.002 h -0.0098 c -0.342428,0.04446 -0.741818,-0.04299 -1.042969,-0.203125 -0.30115,-0.160133 -0.467015,-0.387005 -0.486328,-0.486328 l 0.0039,0.01758 c -0.50504,-3.250749 -1.473752,-4.330545 -2.707031,-5.46875 1.717875,-1.334014 3.462891,-3.202313 3.462891,-5.794922 0,-2.964663 -1.785886,-4.85162 -2.992188,-5.759765 v -0.002 c -0.850678,-0.63904 -1.739469,-1.025577 -2.480469,-1.25586 -0.740999,-0.230283 -1.30665,-0.30664 -1.638671,-0.30664 h -0.002 -0.002 c -7.255064,0.04105 -14.527808,0 -21.708984,0 z m 0.507812,1 c 7.01328,0.0018 14.112954,0.04011 21.205079,0 0.142832,0 0.689037,0.05886 1.341796,0.261718 0.65276,0.202861 1.437627,0.547052 2.175782,1.101563 1.057593,0.796193 2.59375,2.396769 2.59375,4.960937 0,2.319491 -1.710369,4.113531 -3.44336,5.369141 l -0.5,0.361328 0.458985,0.414063 c 1.446661,1.302252 2.204826,1.827223 2.740234,5.273437 l 0.002,0.0098 0.002,0.0078 c 0.10646,0.547505 0.51887,0.925929 0.996094,1.179688 0.47493,0.252538 1.050924,0.384347 1.634766,0.310547 0.209337,-0.0206 0.387074,-0.145281 0.585937,-0.208985 v 5.611328 c -2.279724,-0.0033 -4.996373,-0.02897 -7.386719,-0.0098 -0.318981,0 -0.810396,-0.341397 -1.226562,-0.884766 -0.416166,-0.543369 -0.748838,-1.240677 -0.861328,-1.632812 l -0.002,-0.0078 -0.002,-0.0059 C 37.303622,47.438823 37.127562,46.541752 36.970703,45.669922 36.813844,44.798092 36.669439,43.939513 36.570312,43.494141 36.255823,42.057843 35.567239,41.216094 34.875,40.779297 34.182289,40.342203 33.516655,40.30238 33.257812,40.300781 l -6.890625,-0.05273 v 5.373047 h 5.134766 v 4.699218 c -5.037524,-3.24e-4 -9.383359,-0.0068 -14.400391,-0.02734 v -4.671875 h 5.132813 v -15.25586 h -5.132813 z m 9.265625,4.683593 v 0.5 4.886719 l 7.855469,0.05273 h 0.002 c 0.694296,0 1.483967,-0.194881 2.15625,-0.597656 0.672283,-0.402774 1.253907,-1.076238 1.253907,-1.958984 0,-1.037426 -0.716528,-1.769626 -1.392579,-2.212891 -0.338025,-0.221632 -0.678028,-0.38082 -0.96289,-0.490234 -0.142431,-0.05471 -0.270588,-0.09699 -0.382813,-0.126953 -0.112225,-0.02996 -0.184963,-0.05273 -0.328125,-0.05273 z m 1,1 h 7.201172 c -0.06552,0 -2.95e-4,6.82e-4 0.07031,0.01953 0.07061,0.01885 0.170441,0.05044 0.283203,0.09375 0.225525,0.08662 0.506638,0.22088 0.771484,0.394531 0.529692,0.347302 0.941407,0.805624 0.941407,1.375 0,0.451977 -0.280963,0.808071 -0.767579,1.099609 -0.485541,0.290895 -1.14744,0.456306 -1.638671,0.457031 l -6.861329,-0.04492 z M 14.917969,5.5 C 13.729942,5.5 12.657088,6.0628369 11.859375,6.8613281 11.061662,7.6598194 10.5,8.7319796 10.5,9.9199219 v 0.00195 l 0.169922,46.1621091 c 0.0012,1.186757 0.564341,2.257235 1.361328,3.054688 C 12.829121,59.93701 13.900473,60.5 15.087891,60.5 h 33.99414 c 1.188027,0 2.260881,-0.562837 3.058594,-1.361328 C 52.938338,58.340181 53.5,57.26802 53.5,56.080078 v -29.0625 c 0,-0.854999 0.0142,-1.492302 -0.318359,-2.158203 C 52.849079,24.193474 52.353999,23.745624 51.5,22.890625 L 36.076172,7.4550781 36.019531,7.4121094 C 35.26819,6.8438401 34.107686,5.5 32,5.5 Z m 0,2 H 32 c 1.274361,0 1.741373,0.6756979 2.746094,1.453125 l 15.33789,15.351562 c 0.852631,0.853699 1.214226,1.260262 1.308594,1.449219 C 51.487016,25.943004 51.5,26.162579 51.5,27.017578 v 29.0625 c 0,0.522056 -0.291855,1.160524 -0.775391,1.644531 C 50.241074,58.208617 49.603002,58.5 49.082031,58.5 h -33.99414 c -0.519581,0 -1.158701,-0.29123 -1.642578,-0.775391 -0.483878,-0.48416 -0.775391,-1.122865 -0.775391,-1.644531 v -0.002 -0.002 L 12.5,9.9199219 c 0,-0.522056 0.291855,-1.1605238 0.775391,-1.6445313 C 13.758926,7.7913831 14.396998,7.5 14.917969,7.5 Z" />
</svg>
