<?xml version="1.0" encoding="UTF-8" standalone="no"?>
<svg
   height="64"
   width="64"
   version="1.1"
   id="svg3"
   sodipodi:docname="text-x-changelog.svg"
   inkscape:version="1.1.2 (0a00cf5339, 2022-02-04)"
   xmlns:inkscape="http://www.inkscape.org/namespaces/inkscape"
   xmlns:sodipodi="http://sodipodi.sourceforge.net/DTD/sodipodi-0.dtd"
   xmlns:xlink="http://www.w3.org/1999/xlink"
   xmlns="http://www.w3.org/2000/svg"
   xmlns:svg="http://www.w3.org/2000/svg">
  <defs
     id="defs3">
    <linearGradient
       inkscape:collect="always"
       xlink:href="#linearGradient3-2"
       id="linearGradient4-6"
       x1="18.425684"
       y1="11.138201"
       x2="47.493481"
       y2="53.443287"
       gradientUnits="userSpaceOnUse" />
    <linearGradient
       id="linearGradient3-2"
       inkscape:collect="always">
      <stop
         style="stop-color:#0065fd;stop-opacity:0.2"
         offset="0"
         id="stop3-9" />
      <stop
         style="stop-color:#0066ff;stop-opacity:0.40000001"
         offset="1"
         id="stop4-1" />
    </linearGradient>
  </defs>
  <sodipodi:namedview
     id="namedview3"
     pagecolor="#ffffff"
     bordercolor="#000000"
     borderopacity="0.25"
     inkscape:showpageshadow="2"
     inkscape:pageopacity="0.0"
     inkscape:pagecheckerboard="0"
     inkscape:deskcolor="#d1d1d1"
     inkscape:zoom="5.9921875"
     inkscape:cx="31.791395"
     inkscape:cy="49.063885"
     inkscape:window-width="1600"
     inkscape:window-height="836"
     inkscape:window-x="0"
     inkscape:window-y="0"
     inkscape:window-maximized="1"
     inkscape:current-layer="svg3"
     inkscape:pageshadow="2"
     showgrid="false" />
  <path
     style="color:#000000;fill:url(#linearGradient4-6);stroke-width:2;-inkscape-stroke:none"
     d="m 11.67,56.08 c 0,1.71 1.71,3.42 3.417,3.42 h 33.996 c 1.709,0 3.417,-1.71 3.417,-3.42 V 27.017 c 0,-1.71 0,-1.71 -1.708,-3.42 L 35.417,8.21 C 34.51,7.524 33.708,6.5 32,6.5 H 14.917 C 13.208,6.5 11.5,8.21 11.5,9.92 Z"
     id="path5500" />
  <path
     style="color:#000000;fill:#e6e5e5;-inkscape-stroke:none;fill-opacity:1"
     d="M 14.917969,5.5 C 13.729942,5.5 12.657088,6.0628369 11.859375,6.8613281 11.061662,7.6598194 10.5,8.7319796 10.5,9.9199219 v 0.00195 l 0.169922,46.1621091 c 0.0012,1.186757 0.564341,2.257235 1.361328,3.054688 C 12.829121,59.93701 13.900473,60.5 15.087891,60.5 h 33.99414 c 1.188027,0 2.260881,-0.562837 3.058594,-1.361328 C 52.938338,58.340181 53.5,57.26802 53.5,56.080078 v -29.0625 c 0,-0.854999 0.0142,-1.492302 -0.318359,-2.158203 C 52.849079,24.193474 52.353999,23.745624 51.5,22.890625 L 36.076172,7.4550781 36.019531,7.4121094 C 35.26819,6.8438401 34.107686,5.5 32,5.5 Z m 0,2 H 32 c 1.274361,0 1.741373,0.6756979 2.746094,1.453125 l 15.33789,15.351562 c 0.852631,0.853699 1.214226,1.260262 1.308594,1.449219 C 51.487016,25.943004 51.5,26.162579 51.5,27.017578 v 29.0625 c 0,0.522056 -0.291855,1.160524 -0.775391,1.644531 C 50.241074,58.208617 49.603002,58.5 49.082031,58.5 h -33.99414 c -0.519581,0 -1.158701,-0.29123 -1.642578,-0.775391 -0.483878,-0.48416 -0.775391,-1.122865 -0.775391,-1.644531 v -0.002 -0.002 L 12.5,9.9199219 c 0,-0.522056 0.291855,-1.1605238 0.775391,-1.6445313 C 13.758926,7.7913831 14.396998,7.5 14.917969,7.5 Z"
     id="path5502" />
  <g
     transform="matrix(2.4697598,0,0,2.6491775,11.165415,16.80658)"
     id="g2522"
     style="fill:none;stroke:#e6e5e5;stroke-width:0.390946">
    <path
       style="color:#000000;fill:#e6e5e5;stroke:none;-inkscape-stroke:none"
       d="M 1.8046875,1.8046875 V 2 3.1953125 H 14.195313 v -1.390625 z m 0.390625,0.390625 H 13.804688 v 0.609375 H 2.1953125 Z M 2.5,3.8046875 c -0.2155347,0 -0.4023263,0.088603 -0.5214844,0.2226562 C 1.8593576,4.1613966 1.8046875,4.3315617 1.8046875,4.5 c 0,0.1684383 0.05467,0.3386034 0.1738281,0.4726562 C 2.0976737,5.1067091 2.2844653,5.1953125 2.5,5.1953125 c 0.2155347,0 0.4023263,-0.088603 0.5214844,-0.2226563 C 3.1406424,4.8386034 3.1953125,4.6684383 3.1953125,4.5 c 0,-0.1684383 -0.05467,-0.3386034 -0.1738281,-0.4726563 C 2.9023263,3.8932909 2.7155347,3.8046875 2.5,3.8046875 Z m 1.3046875,0 V 4 5.1953125 H 13.195313 V 3.8046875 Z M 2.5,4.1953125 c 0.1177982,0 0.1810072,0.036397 0.2285156,0.089844 0.047508,0.053447 0.076172,0.1332823 0.076172,0.2148438 0,0.081562 -0.028663,0.1613968 -0.076172,0.2148437 C 2.6810072,4.7682907 2.6177982,4.8046875 2.5,4.8046875 c -0.1177982,0 -0.1810072,-0.036397 -0.2285156,-0.089844 C 2.223976,4.6613968 2.1953125,4.5815615 2.1953125,4.5 c 0,-0.081562 0.028663,-0.1613968 0.076172,-0.2148438 C 2.3189928,4.2317093 2.3822018,4.1953125 2.5,4.1953125 Z m 1.6953125,0 h 8.6093755 v 0.609375 H 4.1953125 Z m -0.390625,1.609375 V 6 7.1953125 h 4.390625 v -1.390625 z m 0.390625,0.390625 h 3.609375 v 0.609375 H 4.1953125 Z M 2.5,8.8046875 c -0.2155347,0 -0.4023263,0.088603 -0.5214844,0.2226563 C 1.8593576,9.1613966 1.8046875,9.3315617 1.8046875,9.5 c 0,0.1684383 0.05467,0.3386034 0.1738281,0.4726563 C 2.0976737,10.106709 2.2844653,10.195313 2.5,10.195313 c 0.2155347,0 0.4023263,-0.0886 0.5214844,-0.2226567 C 3.1406424,9.8386034 3.1953125,9.6684383 3.1953125,9.5 c 0,-0.1684383 -0.05467,-0.3386034 -0.1738281,-0.4726562 C 2.9023263,8.8932909 2.7155347,8.8046875 2.5,8.8046875 Z m 1.3046875,0 V 9 10.195313 H 13.195313 V 8.8046875 Z M 2.5,9.1953125 c 0.1177982,0 0.1810072,0.036397 0.2285156,0.089844 0.047508,0.053447 0.076172,0.1332822 0.076172,0.2148437 0,0.081561 -0.028663,0.1613968 -0.076172,0.2148438 C 2.6810072,9.7682907 2.6177982,9.8046875 2.5,9.8046875 c -0.1177982,0 -0.1810072,-0.036397 -0.2285156,-0.089844 C 2.223976,9.6613968 2.1953125,9.5815615 2.1953125,9.5 c 0,-0.081561 0.028663,-0.1613968 0.076172,-0.2148437 C 2.3189928,9.2317093 2.3822018,9.1953125 2.5,9.1953125 Z m 1.6953125,0 h 8.6093755 v 0.609375 H 4.1953125 Z M 3.8046875,10.804688 V 11 12.195313 h 8.3906255 v -1.390625 z m 0.390625,0.390625 h 7.6093755 v 0.609375 H 4.1953125 Z m -2.390625,1.609375 V 13 14.195313 H 14.195313 v -1.390625 z m 0.390625,0.390625 H 13.804688 v 0.609375 H 2.1953125 Z"
       id="path3" />
  </g>
</svg>
