<?xml version="1.0" encoding="UTF-8" standalone="no"?>
<svg
   height="64"
   width="64"
   version="1.1"
   id="svg9"
   sodipodi:docname="text-html.svg"
   inkscape:version="1.1.2 (0a00cf5339, 2022-02-04)"
   xmlns:inkscape="http://www.inkscape.org/namespaces/inkscape"
   xmlns:sodipodi="http://sodipodi.sourceforge.net/DTD/sodipodi-0.dtd"
   xmlns:xlink="http://www.w3.org/1999/xlink"
   xmlns="http://www.w3.org/2000/svg"
   xmlns:svg="http://www.w3.org/2000/svg">
  <defs
     id="defs13">
    <linearGradient
       inkscape:collect="always"
       id="linearGradient847">
      <stop
         style="stop-color:#ff8c19;stop-opacity:1;"
         offset="0"
         id="stop843" />
      <stop
         style="stop-color:#ff2619;stop-opacity:1"
         offset="1"
         id="stop845" />
    </linearGradient>
    <linearGradient
       inkscape:collect="always"
       xlink:href="#linearGradient847"
       id="linearGradient849"
       x1="11.634207"
       y1="44.424389"
       x2="49.582855"
       y2="19.763561"
       gradientUnits="userSpaceOnUse" />
  </defs>
  <sodipodi:namedview
     id="namedview11"
     pagecolor="#ffffff"
     bordercolor="#666666"
     borderopacity="1.0"
     inkscape:pageshadow="2"
     inkscape:pageopacity="0.0"
     inkscape:pagecheckerboard="0"
     showgrid="false"
     inkscape:zoom="10.21875"
     inkscape:cx="31.95107"
     inkscape:cy="32"
     inkscape:window-width="1600"
     inkscape:window-height="836"
     inkscape:window-x="0"
     inkscape:window-y="0"
     inkscape:window-maximized="1"
     inkscape:current-layer="svg9" />
  <path
     style="color:#000000;fill:#ff8c19;fill-opacity:0.2;stroke-width:2;-inkscape-stroke:none"
     d="m 11.67,56.08 c 0,1.71 1.71,3.42 3.417,3.42 h 33.996 c 1.709,0 3.417,-1.71 3.417,-3.42 V 27.017 c 0,-1.71 0,-1.71 -1.708,-3.42 L 35.417,8.21 C 34.51,7.524 33.708,6.5 32,6.5 H 14.917 C 13.208,6.5 11.5,8.21 11.5,9.92 Z"
     id="path8557" />
  <path
     style="stroke-width:2.65686"
     d="m 24.042719,37.582872 c 0.127529,-0.05845 0.103617,0.148784 0,0.164725 -0.0983,0.02657 -0.09565,-0.116901 0,-0.164725"
     id="path958" />
  <path
     id="path946"
     style="color:#000000;fill:url(#linearGradient849);-inkscape-stroke:none;fill-opacity:1"
     d="m 32,21.558594 c -9.074412,0 -16.441406,7.367 -16.441406,16.441406 0,9.074406 7.366994,16.441406 16.441406,16.441406 9.074412,0 16.441406,-7.367 16.441406,-16.441406 0,-9.074406 -7.366994,-16.441406 -16.441406,-16.441406 z m 0,1 c 8.533973,0 15.441406,6.907439 15.441406,15.441406 0,8.533967 -6.907433,15.441406 -15.441406,15.441406 -8.533973,0 -15.441406,-6.907439 -15.441406,-15.441406 0,-8.533967 6.907433,-15.441406 15.441406,-15.441406 z m -0.04492,1.65625 -0.04492,0.0078 -0.02148,0.0039 c -0.801914,0.01146 -1.601655,0.09138 -2.388672,0.246094 -0.05024,-0.0093 -0.15963,-0.04119 -0.335938,0.01758 -0.112515,0.02522 -0.216459,0.05302 -0.289062,0.07031 -0.23201,0.0536 -0.430191,0.123503 -0.599609,0.169922 l -0.302735,0.08398 -0.05664,0.308594 c -0.0029,0.01573 0.0016,0.01122 0,0.02539 -0.07715,0.0932 -0.193467,0.225124 -0.173829,0.441407 0.01638,0.184224 0.153586,0.400722 0.283204,0.488281 0.130006,0.08782 0.213753,0.101109 0.191406,0.0918 l 0.08789,0.03711 0.09375,0.002 c 0.202355,0.0036 0.402587,-0.04102 0.589844,-0.117187 -0.0039,0.06409 -0.01,0.09495 -0.002,0.228515 l 0.002,0.0039 v 0.002 c 0.01104,0.154511 0.0967,0.350834 0.22461,0.460937 0.08465,0.07286 0.144831,0.07985 0.210937,0.101563 -0.0694,0.02428 -0.164292,0.03287 -0.199219,0.05859 -0.137631,0.101378 -0.130683,0.103611 -0.07617,0.07227 -0.08234,0.04426 -0.169903,0.07596 -0.259765,0.101563 -0.04374,0.0026 -0.151924,0.0015 -0.300781,0.0039 -0.08573,0.0014 -0.215862,0.05889 -0.326172,0.08008 -0.01373,-0.0037 -0.03893,-0.02124 -0.05273,-0.02539 -0.06904,-0.02075 -0.13643,-0.03359 -0.205078,-0.04492 -0.12915,-0.02132 -0.233535,-0.04431 -0.433594,-0.0039 -0.335609,0.05801 -0.605228,0.320957 -0.658203,0.658203 l -0.05859,0.376954 0.345703,0.15625 c 0.01306,0.0059 0.01086,-0.0012 0.02344,0.0039 -0.0062,0.03009 -0.02279,0.04578 -0.02539,0.07617 -0.208426,0.0096 -0.408733,0.05747 -0.509766,0.11914 -0.128099,0.07819 -0.212102,0.129284 -0.195313,0.123047 h -0.002 c -0.06104,0.02297 -0.236765,0.05365 -0.447265,0.13086 -0.194853,0.07147 -0.464266,0.283715 -0.56836,0.599609 -0.02376,0.0067 -0.02624,0.0029 -0.05664,0.01367 l -0.0039,0.002 h -0.0039 c -0.03435,0.01288 -0.129345,0.02901 -0.248047,0.06055 0.03508,-0.05383 0.09491,-0.06509 0.111328,-0.132813 l 0.06641,-0.271484 -0.199219,-0.199219 c -0.210523,-0.210614 -0.376053,-0.162197 -0.451172,-0.15625 h -0.002 c -0.07922,0.0064 -0.08012,0.0071 -0.05859,0.0078 -0.05625,-0.190128 -0.146022,-0.39707 -0.464791,-0.48057 h -0.0059 l -0.0059,-0.002 c -0.08698,-0.02047 -0.12003,0.01561 -0.185547,0.0293 -0.03798,-0.0287 -0.07252,-0.04817 -0.128906,-0.06836 -0.0031,-0.0085 0.0013,-0.02531 -0.002,-0.0332 -0.09027,-0.221783 -0.206712,-0.321842 -0.318359,-0.412109 l -0.32995,-0.267537 -0.316406,0.283203 c -0.180252,0.160226 -0.315153,0.319483 -0.427735,0.427734 l -0.0293,0.02734 H 22.2207 l 0.06445,0.125 -0.236328,0.226562 0.134766,0.117188 c -0.02064,0.03431 -0.04562,0.07065 -0.0293,0.05078 -0.0056,0.0069 -0.05338,0.0223 -0.169922,0.167969 l -0.002,0.002 -0.002,0.002 c -0.0011,0.0014 -0.125934,0.146735 -0.222657,0.320313 -0.04836,0.08679 -0.109458,0.177913 -0.11914,0.375 -0.0048,0.09854 0.01381,0.243255 0.107422,0.373047 0.09362,0.129791 0.24303,0.204318 0.355468,0.228515 l 0.0098,0.002 0.0098,0.002 c 0.228377,0.0403 0.319642,-0.02866 0.398437,-0.06836 0.0788,-0.0397 0.137932,-0.08065 0.19336,-0.125 0.0248,-0.01984 0.04551,-0.04342 0.06836,-0.06445 0.0996,0.145025 0.200561,0.314768 0.324219,0.34375 0.180057,0.0422 0.305252,0.01472 0.419922,-0.02148 h 0.002 c 0.207916,-0.06629 0.296412,-0.152207 0.396484,-0.228516 l 0.367188,-0.01563 v -0.228516 c 0.08452,0.01091 0.169928,0.05013 0.267578,0.04492 0.0034,-1.82e-4 0.0083,-0.0018 0.01172,-0.002 -4.24e-4,5.73e-4 -0.0035,0.0014 -0.0039,0.002 -0.03789,0.05124 -0.03563,0.04523 -0.0332,0.04297 -0.04904,0.01478 -0.11216,0.02232 -0.216797,0.126953 -0.07005,0.07005 -0.07014,0.08361 -0.08984,0.115234 -0.09411,-0.0023 -0.187675,-0.02029 -0.322265,0.06445 l -0.220703,0.140625 -0.01367,0.259765 c -0.008,0.169241 0.01716,0.27479 0.02539,0.351563 -0.08842,0.08113 -0.188358,0.174888 -0.248046,0.21289 -0.06198,0.0071 -0.196049,0.02415 -0.330079,0.08984 l -0.002,0.002 c -0.138516,0.06926 -0.200752,0.132257 -0.259765,0.181641 -0.05901,0.04938 -0.107939,0.08576 -0.101563,0.08203 -0.104204,0.06079 -0.280498,0.138661 -0.464844,0.300781 -0.09963,0.08762 -0.12768,0.278374 -0.197265,0.429688 -0.05123,-0.03608 -0.08343,-0.07859 -0.175781,-0.109375 l -0.04687,-0.01563 -0.04687,-0.0059 c -0.07334,-0.0095 -0.153191,0.02273 -0.232422,0.04492 -0.07073,-0.03627 -0.150462,-0.08733 -0.3125,-0.121093 l -0.01563,-0.002 -0.01563,-0.0039 c -0.15477,-0.0218 -0.286244,-0.0068 -0.359375,0 -0.07313,0.0068 -0.09205,0.0088 -0.140625,0.002 l -0.160157,-0.02344 -0.142578,0.07422 c -0.154692,0.08142 -0.189393,0.146179 -0.246093,0.21289 -0.0518,-0.03414 -0.05122,-0.06189 -0.142579,-0.08594 l -0.0625,-0.01563 h -0.470703 l -0.130859,0.294922 c -0.361928,0.804206 -0.636533,1.644995 -0.835938,2.503906 -9.79e-4,0.0042 -0.0049,0.0075 -0.0059,0.01172 -0.02119,0.03091 -0.07502,0.100113 -0.105469,0.240234 l -0.002,0.0039 v 0.0039 c -0.04392,0.22018 -0.03332,0.249071 0,0.08203 l -0.11914,0.597656 h 0.609375 c -0.05147,0 -0.03788,-0.0017 0.02734,0.0059 0.02977,0.0035 0.115471,-0.02696 0.173828,-0.03125 l -0.478515,0.498047 -0.253906,-0.294922 c -5e-6,3.4e-5 5.6e-5,0.0052 0,0.0059 -2.07e-4,0.0023 -0.0013,0.01344 -0.002,0.02148 3.93e-4,-0.005 1.6e-5,-0.01769 0,-0.01758 l -0.03516,0.257812 0.01172,0.01172 C 18.30204,36.901419 18.226562,37.424177 18.226562,38 v 0.002 0.0039 c 0.0096,0.840023 0.09675,1.677844 0.259766,2.501953 0.02524,0.133997 0.05012,0.271554 0.08398,0.421875 0.165324,0.761596 0.395053,1.509267 0.685547,2.232422 0.0016,0.0041 3.98e-4,0.0019 0.002,0.0059 5.37e-4,0.0013 0.0014,0.0026 0.002,0.0039 0.04876,0.123055 0.09038,0.18419 0.08594,0.173828 0.329996,0.783792 0.733629,1.535698 1.207031,2.242188 l 0.002,0.002 0.002,0.002 c -0.046,-0.06722 -0.02615,0.0089 0.08008,0.164062 8.01e-4,0.0012 0.0012,0.0027 0.002,0.0039 0.0016,0.0023 3.27e-4,-3.7e-4 0.002,0.002 0.412296,0.606728 0.871349,1.179665 1.373047,1.714843 0.0943,0.10059 0.185161,0.187158 0.259765,0.261719 0.6328,0.636477 1.3243,1.211099 2.064454,1.71875 l 0.0039,0.0039 0.80664,0.529297 0.199219,-0.630859 c 0.04459,-0.141212 0.02756,-0.245911 0.02344,-0.283203 -0.0041,-0.03729 0.0028,-0.01815 -0.0039,0.0332 l -0.0039,0.02148 c 0.01537,-0.08834 0.0088,-0.16118 0.0059,-0.195312 -0.0098,0.09385 0.04152,0.04315 0.08008,-0.236328 v -0.0078 l 0.002,-0.0059 c 0.02088,-0.191409 -0.0073,-0.310881 -0.0293,-0.439453 -0.02202,-0.128573 -0.0501,-0.245703 -0.0625,-0.302735 v -0.002 -0.002 C 25.3221,47.773149 25.2528,47.665908 25.222656,47.611328 c 0.03184,-0.05656 0.07458,-0.08608 0.0625,-0.261719 v -0.002 c -0.0075,-0.100748 -0.04466,-0.125323 -0.08203,-0.191406 -0.0028,-0.04899 -0.0039,-0.0995 0,-0.148438 0.01699,-0.217518 0.0013,-0.383983 0.002,-0.509765 v -0.01953 c 0.0045,-0.113146 0,-0.230856 0,-0.257813 0,-0.160737 -0.05393,-0.30352 -0.07617,-0.357422 -0.02224,-0.0539 -0.0089,-0.02216 -0.0078,-0.0039 -0.0059,-0.174821 0.05021,-0.378302 -0.0078,-0.71875 v -0.002 -0.002 c -0.0054,-0.03008 -0.01379,-0.144266 -0.02344,-0.267578 -0.0096,-0.123313 0.01563,-0.242154 -0.117188,-0.47461 v -0.002 l -0.002,-0.0039 c -0.11852,-0.201924 -0.224038,-0.265264 -0.341797,-0.359375 -0.116988,-0.0935 -0.230698,-0.172393 -0.339844,-0.234375 -0.16338,-0.09333 -0.283904,-0.09708 -0.345703,-0.105469 -0.0618,-0.0084 -0.06712,-0.01989 -0.01172,0.0078 h -0.002 l -0.002,-0.002 c -0.08214,-0.04056 -0.22956,-0.122799 -0.347656,-0.207031 -0.09827,-0.07009 -0.134267,-0.123193 -0.134766,-0.107422 0.0112,-0.06618 0.04124,-0.108854 -0.02344,-0.261718 -0.0926,-0.21887 -0.237973,-0.314153 -0.3125,-0.371094 -0.0705,-0.05387 -0.08302,-0.07349 -0.0625,-0.04297 -0.101639,-0.159882 -0.184104,-0.475116 -0.412109,-0.826172 v -0.002 h -0.002 c -0.04014,-0.06146 -0.09508,-0.251931 -0.294921,-0.474609 l -0.002,-0.002 -0.002,-0.002 c -0.08908,-0.09756 -0.119077,-0.106685 -0.15039,-0.126953 0.0177,-0.01784 0.02779,-0.02137 0.04883,-0.04687 0.06055,-0.07338 0.15039,-0.208164 0.15039,-0.402343 3e-6,-0.210901 -0.0889,-0.273875 -0.15625,-0.34961 0.02598,-0.03813 0.05582,-0.07325 0.109375,-0.1875 l 0.002,-0.0039 v -0.0039 c 0.01969,-0.04375 0.0356,-0.06951 0.03516,-0.07227 0.02704,-0.02227 0.08403,-0.07142 0.144531,-0.144531 h 0.002 c 0.141274,-0.17158 0.110158,-0.209992 0.107422,-0.257813 0.08067,-0.03626 0.29836,-0.123655 0.392578,-0.394531 l 0.01563,-0.04297 0.0059,-0.04687 c 0.04502,-0.297521 0.04502,-0.598962 0,-0.896484 l -0.0039,-0.02344 -0.0059,-0.02344 c -0.01278,-0.0511 -0.03094,-0.04958 -0.04883,-0.08789 0.02732,-0.02153 0.09029,-0.03199 0.109375,-0.05078 0.06819,-0.06712 0.107486,-0.125314 0.140625,-0.177734 0.06628,-0.104842 0.110446,-0.198714 0.128906,-0.232422 l 0.0078,-0.01758 0.0098,-0.01758 0.0098,-0.0039 0.01367,-0.0078 c 0.02427,-0.01259 0.179654,-0.05566 0.330078,-0.103516 l 0.03711,0.02148 c 0.143797,0.07711 0.352901,0.09748 0.5,0.05469 0.06799,-0.01978 0.08689,-0.04608 0.13086,-0.07227 0.0081,0.0062 0.01576,0.01399 0.07227,0.06055 0.06311,0.052 0.194706,0.133624 0.333985,0.166016 l 0.01172,0.0039 0.0098,0.002 c 0.175623,0.03254 0.249607,-0.0083 0.306641,-0.0293 0.01716,0.01753 0.02141,0.027 0.04687,0.04883 0.06755,0.05791 0.192472,0.15625 0.402343,0.15625 h 0.0059 0.0039 c 0.232748,-0.005 0.270844,-0.101967 0.349609,-0.181641 l 0.09961,0.140625 0.169922,0.0293 c 0.03767,0.04811 0.07083,0.104716 0.105468,0.130859 0.06243,0.04711 0.04904,0.03748 0.0078,0 0.140513,0.128346 0.246413,0.172929 0.314453,0.214844 -0.03807,-0.02909 -0.05845,-0.05553 -0.03516,-0.01758 0.02847,0.04639 0.08327,0.145645 0.177734,0.255859 l 0.01563,0.01758 0.01758,0.01758 c 0.209224,0.19962 0.474749,0.332388 0.759766,0.38086 0.313136,0.05555 0.487257,0.01625 0.394531,-0.0039 l 0.03125,0.0078 0.0332,0.002 c 0.107695,0.0089 0.208483,0.053 0.289063,0.125 l 0.01563,0.01367 0.01758,0.01172 c 0.09124,0.06898 0.06722,0.04096 0.05664,0.01172 -0.01404,0.05954 -0.05456,0.113453 0.02148,0.333984 0.0759,0.220809 0.152289,0.244567 0.21289,0.287109 l -0.02734,0.0918 0.08594,0.177735 c 0.09366,0.19357 0.24482,0.275604 0.324219,0.316406 0.0794,0.0408 0.117984,0.05637 0.115234,0.05469 h -0.0039 c 0.205976,0.127838 0.35232,0.130537 0.359375,0.132813 l -0.06836,-0.0293 c 0.138981,0.06949 0.240613,0.05708 0.314453,0.05078 0.03745,0.02997 0.0992,0.08635 0.236328,0.136719 l 0.002,0.002 h 0.002 c 0.05929,0.02103 0.08955,0.02888 0.123047,0.03711 0.03287,0.0815 0.04365,0.175483 0.246094,0.273438 0.170781,0.08305 0.240148,0.06031 0.294922,0.05859 0.05589,-0.0017 0.09366,-0.0066 0.125,-0.0098 0.06268,-0.0064 0.120049,0.02118 -0.01172,-0.01758 l 0.03711,0.0098 0.03906,0.0059 c 0.04177,0.0054 0.185194,0.08594 0.478515,0.08594 h 0.128907 c -0.0023,5.6e-4 0.0759,0.02653 0.207031,0.121094 0.133516,0.09628 0.302283,0.247714 0.570312,0.347656 l 0.0039,0.002 0.0039,0.002 c 0.06834,0.02401 0.07317,0.02358 0.111328,0.03516 0.0013,0.0032 0.0026,0.0026 0.0039,0.0059 0.02918,0.07476 0.05065,0.189604 0.05078,0.177735 0.0058,0.104686 0.01258,0.06753 -0.0625,0.146484 -0.07508,0.07895 -0.262097,0.206868 -0.433594,0.460938 -0.07933,0.117161 -0.09296,0.173195 -0.119141,0.232421 -0.02636,0.05962 -0.05528,0.110817 -0.04492,0.0957 l -0.002,0.002 v 0.002 c -0.0076,0.01123 -0.0219,-7.22e-4 -0.146484,0.146484 -0.123125,0.145477 -0.198186,0.412954 -0.1875,0.650391 0.0055,0.131331 0.04305,0.192416 0.07227,0.25 -0.01143,0.119501 -0.02836,0.23923 -0.05859,0.355469 l -0.002,0.0039 v 0.0059 c -0.0645,0.274062 -0.02739,0.406164 -0.0059,0.28125 l -0.002,0.002 c -0.01071,0.06429 -0.0046,0.113238 -0.002,0.16211 0.0039,-0.02004 0.0086,-0.03544 -0.0098,-0.002 -0.02556,0.04651 -0.062,0.109354 -0.09961,0.177734 l -0.002,0.002 -0.002,0.002 c -0.07577,0.141654 -0.117158,0.236388 -0.132813,0.259766 -0.01565,0.02338 0.02301,-0.006 -0.0098,0.0059 -0.134537,0.04538 -0.323541,0.10172 -0.496094,0.16211 l -0.002,0.002 h -0.002 c 0.0024,-8.74e-4 -0.125563,0.02239 -0.291016,0.09961 h -0.002 c -0.103824,0.04893 -0.274053,0.11994 -0.449219,0.230469 -0.175166,0.110529 -0.397386,0.26757 -0.484375,0.59375 -0.07277,0.270989 0.0035,0.481962 0.03711,0.59375 0.02485,0.08278 0.02333,0.08102 0.02539,0.08594 -0.0035,0.0023 -0.0066,0.0056 -0.03906,0.03516 -0.04525,0.04117 -0.102915,0.0847 -0.177735,0.175781 -0.03054,0.03573 -0.223432,0.171119 -0.333984,0.484375 l -0.002,0.0039 -0.002,0.0039 c -0.0052,0.01569 -0.0015,0.06756 -0.0078,0.0918 -0.01409,0.02719 -0.03129,0.05868 -0.04687,0.08984 l -0.0059,0.0098 -0.0039,0.0098 c -0.04779,0.107512 -0.01881,0.11822 -0.01758,0.177735 -0.01449,0.01909 -0.0323,0.04579 -0.07031,0.08594 -0.05015,0.05297 -0.12901,0.07252 -0.0059,0.03711 0.0091,-0.0027 -0.02665,0.0024 -0.134765,-0.02734 -0.109625,-0.0302 -0.266674,-0.123501 -0.570313,-0.06445 l -0.492187,0.0957 0.09766,0.490234 c 0.03989,0.203422 0.171716,0.303657 0.265625,0.378906 0.0077,0.03511 0.02145,0.06297 0.03516,0.09766 -0.0246,0.004 -0.04254,0.0068 -0.06836,0.01172 h -0.002 c 0.02978,-0.0056 -0.08548,0.0077 -0.195313,0.02148 -0.05492,0.0069 -0.113255,0.01368 -0.189453,0.03516 -0.0762,0.02148 -0.190118,0.02432 -0.335937,0.21875 l -0.0039,0.0059 -0.002,0.0039 c -0.06802,0.09522 -0.05717,0.15995 -0.06836,0.236328 -0.07462,-0.0026 -0.119594,-0.03496 -0.220703,0.0078 l -0.273438,0.115235 -0.0293,0.294921 c -0.02492,0.248964 0.07158,0.350059 0.109375,0.408204 0.03779,0.05814 0.06053,0.09634 0.03125,0.04102 l 0.08594,0.164063 0.173828,0.06641 c 0.685057,0.267277 1.417996,0.602569 2.242188,0.771484 0.409345,0.08301 0.815769,0.12685 1.205078,0.171875 0.511799,0.05809 1.030605,0.08594 1.552734,0.08594 0.980308,0.01829 1.96014,-0.06887 2.921875,-0.259766 l 0.0059,-0.002 h 0.0059 c 1.698367,-0.380143 3.307989,-1.082441 4.742187,-2.068359 0.739397,-0.507132 1.43023,-1.083049 2.0625,-1.71875 l 0.002,-0.002 1.496094,-1.496094 -1.3125,0.3125 c 0.02238,-0.07408 0.04113,-0.114375 0.05664,-0.21875 0.01538,-0.103502 0.02621,-0.230172 -0.01953,-0.386719 -0.01054,-0.03608 -0.06059,-0.06041 -0.08008,-0.09766 0.0015,-0.112189 0.0089,-0.239025 0.002,-0.314453 -0.01118,-0.121342 -0.02189,-0.23691 0,-0.521485 l 0.002,-0.0078 v -0.0078 c 0.01552,-0.337499 -0.08163,-0.607838 -0.148438,-0.802734 -0.06192,-0.180639 -0.09105,-0.295194 -0.09375,-0.421875 0.0341,-0.03974 0.106667,-0.107753 0.201172,-0.216797 l 0.03125,-0.03516 0.02148,-0.03906 c 0.300246,-0.507688 0.497539,-0.90964 0.566407,-1.435547 l 0.01367,-0.113281 -0.0293,-0.08789 c 0.01367,-0.07541 0.04699,-0.164125 -0.02734,-0.324219 -0.127194,-0.277154 -0.233599,-0.567976 -0.490234,-0.863281 l -0.002,-0.002 -0.002,-0.002 C 41.753193,40.468518 41.615464,40.36145 41.597116,40.3381 l -0.0039,-0.0039 -0.002,-0.0059 c -8.63e-4,-10e-4 -0.016,-0.02259 -0.02539,-0.03711 0.01275,-0.02965 0.02172,-0.03795 0.03711,-0.09375 v -0.002 c 0.05759,-0.213063 0.01668,-0.308684 0.0098,-0.371093 -0.0019,-0.01725 -0.0015,-0.0051 -0.002,-0.01563 0.0066,-0.0092 0.0079,-0.01045 0.01563,-0.02148 0.05745,-0.08241 0.195139,-0.209595 0.158203,-0.527343 C 41.751392,38.976122 41.637721,38.88554 41.527344,38.773437 41.416966,38.661335 41.300826,38.555105 41.076172,38.5 h -0.002 c -0.266781,-0.06479 -0.355288,-0.02453 -0.464844,-0.0078 -0.01433,-0.02105 0.01077,0.0074 -0.02344,-0.04883 -0.08445,-0.138845 -0.311915,-0.403643 -0.638671,-0.451172 h -0.002 l -0.002,-0.002 c -0.593369,-0.08241 -1.083685,0.173304 -1.345703,0.28711 l 0.02734,-0.0098 c -0.05112,0.01883 -0.150576,0.02716 -0.279297,0.04883 0.05684,-0.0046 -0.08359,-0.02708 -0.273437,-0.06836 l -0.03125,-0.0078 -0.0332,-0.002 c -0.332038,-0.02768 -0.541063,0.07392 -0.621093,0.08789 -0.298618,0.04877 -0.386622,0.128776 -0.375,0.144531 0.01636,1.7e-5 0.03725,0.0087 -0.01563,-0.0332 -0.07431,-0.05884 -0.161438,-0.153608 -0.298828,-0.261719 -0.146442,-0.114768 -0.210207,-0.134416 -0.25,-0.164062 -0.115617,-0.09061 -0.194948,-0.111073 -0.257813,-0.132813 -0.01524,-0.07173 -0.02038,-0.168901 -0.08594,-0.328125 v -0.002 h -0.002 c -0.172183,-0.413236 -0.444361,-0.499049 -0.523437,-0.578125 -0.09699,-0.09699 -0.165748,-0.142893 -0.226563,-0.189453 0.0173,-0.05692 0.04599,-0.04809 0.03906,-0.154297 -0.0089,-0.130796 -0.06606,-0.14498 -0.115234,-0.220703 0.03047,-0.04259 0.05722,-0.06119 0.09375,-0.173828 v -0.002 -0.002 c 0.03199,-0.101297 0.01521,-0.128967 0.0098,-0.183594 -0.01539,0.05348 -0.01792,0.04769 0.04102,-0.04492 0.06428,-0.101017 0.160425,-0.316932 0.138672,-0.546875 v -0.002 c -0.01052,-0.105187 -0.03289,-0.127316 -0.05469,-0.173828 0.02646,-0.07089 0.05582,-0.142565 0.04883,-0.234375 -0.01513,-0.15243 -0.08611,-0.196551 -0.154297,-0.277344 0.01033,0.09159 9.35e-4,0.07728 0.09961,-0.101563 l 0.002,-0.002 v -0.0039 c 0.06037,-0.112127 0.06468,-0.166344 0.07422,-0.212891 3.62e-4,-2.73e-4 0.0016,-0.0017 0.002,-0.002 0.0521,-0.03924 0.17507,-0.127368 0.259765,-0.289062 l 0.0039,-0.0098 0.0059,-0.0098 c 0.0977,-0.208442 0.134185,-0.324496 0.05664,-0.199219 -0.04275,0.07055 0.051,-0.01939 0.193359,-0.177735 0.06714,-0.07408 0.08649,-0.121292 0.113281,-0.169921 0.0374,-0.0077 0.06107,-0.0074 0.136719,-0.04102 0.336649,-0.149154 0.604118,-0.41863 0.751953,-0.755859 l 0.06055,-0.134766 -0.01563,-0.0918 c 0.01853,-0.02114 0.03984,-0.03897 0.09375,-0.128906 v -0.002 c 0.07474,-0.123489 0.09955,-0.203571 0.119141,-0.251953 0.01942,-0.0053 0.0327,-0.0095 0.125,-0.03906 0.123012,-0.03936 0.33197,-0.143293 0.474609,-0.339844 0.06055,0.01258 0.115872,0.05469 0.181641,0.05469 h 0.03516 l 0.03516,-0.0059 c 0.06755,-0.0095 0.11892,0.08044 0.470703,-0.0098 l 0.0078,-0.002 0.0098,-0.0039 c 0.195741,-0.058 0.238111,-0.122027 0.28711,-0.160156 0.049,-0.03813 0.09398,-0.05933 0.0293,-0.0293 l -0.03125,0.01367 c 0.0714,-0.02756 0.140375,-0.06208 0.207031,-0.09961 l 0.03906,-0.01953 0.109375,-0.05273 c 0.06661,-0.02896 0.149784,-0.06656 0.222657,-0.09375 0.07287,-0.02718 0.157542,-0.03125 0.07813,-0.03125 h 0.03711 l 0.03516,-0.0059 c 0.0415,-0.0061 0.23082,0.0403 0.564453,0.002 l -0.05664,0.0039 h 0.708984 c -0.06439,0.114539 -0.154954,0.222196 -0.105469,0.388672 l 0.01953,0.07031 0.04102,0.06055 c 0.102991,0.157913 0.236619,0.291542 0.394532,0.394532 l 0.02344,0.01563 0.02734,0.01367 c 0.273529,0.136779 0.377295,0.06142 0.445312,0.05273 0.06802,-0.0087 0.107651,0.02132 -0.03125,-0.01953 l -0.02734,-0.0098 c 0.08057,0.02878 0.178267,0.02898 0.255859,0.02734 0.06277,0.01497 0.12078,0.04212 0.177734,0.07227 0.0435,0.09464 0.156772,0.30126 0.398438,0.390625 0.176835,0.064 0.26336,0.04034 0.3125,0.02734 0.01531,0.0046 0.06659,0.02756 0.162109,0.07227 0.09653,0.04518 0.262429,0.128394 0.513672,0.08984 0.143953,-0.02068 0.317695,-0.09332 0.425781,-0.220704 0.111633,-0.13156 0.143874,-0.269557 0.15625,-0.363281 0.0061,-0.04608 -6.67e-4,-0.02205 0.002,-0.05664 L 44.517578,32.25 44.242187,31.712891 c -0.137227,-0.266612 -0.287555,-0.418855 -0.34375,-0.517579 -0.209568,-0.366081 -0.426182,-0.74908 -0.689453,-1.121093 l -0.876953,-1.238282 -0.01367,0.644532 c 0.05985,0.02275 -0.01852,-0.03937 -0.189453,-0.132813 -0.105346,-0.05985 -0.199124,-0.135589 -0.28125,-0.224609 -0.01555,-0.02388 -0.05909,-0.08591 -0.111328,-0.154297 l 0.179688,-0.339844 -0.8125,-0.01367 h -0.0039 c -0.03093,-5e-4 -0.07127,9.23e-4 -0.109375,0.0059 l -0.240234,0.03125 -0.04297,0.07227 c -0.04413,0.01738 -0.09295,0.02023 -0.134765,0.04297 -0.08189,0.04203 -0.09714,0.0729 -0.132813,0.111328 -0.02412,-0.0021 -0.01833,-0.0059 -0.05664,-0.0059 -0.101569,0 -0.260218,-0.04068 -0.511718,0.01172 -0.148761,0.02905 -0.288933,0.09655 -0.402344,0.197265 l -0.08789,0.07813 c 0.01956,-0.182983 0.02925,-0.368768 0,-0.550781 l -0.0098,-0.05664 L 39.349609,28.5 c -0.01723,-0.04188 -0.05877,-0.06773 -0.08008,-0.107422 0.105964,-0.03818 0.229345,-0.07762 0.265625,-0.111328 0.05437,-0.05052 0.08465,-0.09204 0.113281,-0.126953 0.02591,-0.03159 0.04722,-0.05411 0.06055,-0.07031 l 0.185547,-0.123047 c 0.01093,-0.0066 0.05139,-0.02642 0.123047,-0.06055 l -0.02344,0.0098 c 0.153562,-0.06397 0.209587,-0.145471 0.236328,-0.177734 0.02674,-0.03226 0.02914,-0.03145 -0.0098,0.0039 l 0.455078,-0.414062 -0.498047,-0.359375 c -0.112811,-0.0817 -0.206742,-0.134155 -0.248047,-0.164063 l -0.93164,-0.675781 0.05469,0.43164 c -0.05289,-0.08356 -0.109969,-0.135521 -0.154297,-0.169921 -0.09052,-0.07025 -0.145573,-0.09376 -0.171875,-0.107422 -0.03349,-0.03361 -0.04265,-0.05507 -0.08398,-0.08008 v -0.0078 c 1.11e-4,2.9e-5 0.01799,0.01631 0.0059,0 -5.79e-4,-7.8e-4 -0.0053,-0.005 -0.0059,-0.0059 V 25.992185 L 38.376924,25.85156 c -0.330597,-0.175794 -0.655182,-0.356376 -1.035156,-0.517578 -0.656927,-0.277613 -1.354914,-0.513307 -2.064453,-0.6875 l -0.0039,-0.002 c -0.356977,-0.08999 -0.70357,-0.191122 -1.121093,-0.257812 h -0.002 c -0.106868,-0.01644 -0.23804,-0.04981 -0.398438,-0.08008 l -0.04492,-0.0078 H 33.347656 C 32.908941,24.254621 32.476733,24.214844 32,24.214844 Z m -5.666016,0.724609 -0.128906,0.683594 -0.0039,0.002 -0.002,0.0059 c -0.435424,0.196089 -0.869792,0.387593 -1.304688,0.654297 0.0025,-0.0044 -0.05239,0.0052 -0.179687,0.08789 l -0.04297,0.0293 -0.03711,0.03711 c 0.03389,-0.03389 0.01918,-0.01912 -0.01758,0.01172 -0.03675,0.03084 -0.146129,0.05023 -0.201172,0.326172 l -0.04492,0.216797 v 0.0039 c -0.01382,0.04862 -0.04687,0.0743 -0.04687,0.126953 0,0.318388 0.126817,0.404718 0.232422,0.511719 0.10204,0.103389 0.209296,0.222037 0.5,0.230468 0.224239,0.0112 0.369437,-0.04935 0.507812,-0.130859 0.144251,-0.08497 0.290251,-0.187581 0.386719,-0.421875 0.05836,-0.142414 0.03515,-0.194397 0.0332,-0.279297 0.181643,-0.03055 0.370385,-0.02393 0.537109,-0.117187 0.176847,-0.09892 0.250136,-0.324556 0.365235,-0.509766 l 0.01953,-0.0098 0.183594,-0.08203 0.429687,-0.191406 z m 5.746094,0.277344 c 0.418131,0.0019 0.810897,0.03644 1.242188,0.08008 l 0.02539,0.002 h 0.304688 c 0.11285,0.02267 0.235619,0.05252 0.388672,0.07617 0.34611,0.05528 0.654937,0.144496 1.035156,0.240234 h 0.002 l 0.002,0.002 c 0.654624,0.160473 1.304271,0.380152 1.916016,0.638672 0.03464,0.01469 0.06938,0.03549 0.103515,0.05078 -0.01793,0.0079 -0.0183,0.0051 -0.03906,0.01563 -0.113482,0.05747 -0.317474,0.224357 -0.357422,0.470703 -0.0037,0.0229 0.01201,0.0473 0.01172,0.07227 l -0.181641,0.195313 0.212891,-0.01758 c 0.0018,0.0065 -1.7e-5,0.01321 0.002,0.01953 -0.01552,0.04887 -0.03186,0.0742 -0.04297,0.136719 l -0.0332,0.1875 0.09961,0.162109 c 0.09762,0.158865 0.310824,0.299831 0.494141,0.320313 0.183318,0.02048 0.307363,-0.02744 0.398438,-0.06445 0.127765,-0.05193 0.136887,-0.06212 0.152343,-0.07617 0.0035,0.0217 -0.02264,0.04574 -0.01563,0.06445 l 0.03711,0.09961 c -0.04615,0.06984 -0.125454,0.114536 -0.142578,0.1875 l -0.04102,0.173828 0.07813,0.160156 c 0.08252,0.167981 0.239587,0.274595 0.353516,0.320313 0.113928,0.04572 0.200426,0.05474 0.265625,0.0625 0.09209,0.01096 0.06488,0.003 0.04687,-0.0098 0.01492,0.01586 0.02763,0.03226 0.03906,0.05078 5.62e-4,0.0059 -4.64e-4,0.01169 0,0.01758 -0.03646,-5.81e-4 -0.03696,4.9e-4 -0.08203,0 h -0.0039 -0.152344 c -0.140208,-0.01083 -0.321847,-0.06013 -0.5625,-0.07813 -0.123253,-0.0092 -0.270363,-0.0108 -0.435547,0.04492 -0.165184,0.05572 -0.337333,0.185726 -0.439453,0.347656 l -0.08398,0.136719 0.0078,0.160156 c 0.01569,0.26665 0.03519,0.35155 0.01563,0.427734 0.0312,-0.120345 0.02396,-0.05809 -0.04102,0.01953 -0.0645,0.07706 -0.241887,0.182109 -0.220703,0.548829 0.0117,0.194235 0.08482,0.275561 0.123047,0.326171 0.02906,0.03848 0.04549,0.05406 0.0625,0.07227 -0.0019,0.06138 -0.02681,0.08833 0.02539,0.199219 l 0.0059,0.01172 0.0059,0.0098 c 0.04732,0.08918 0.176023,0.148293 0.289063,0.210938 -0.03993,0.01671 -0.04933,0.0087 -0.0957,0.03516 h -0.002 c -0.211637,0.122104 -0.301454,0.302217 -0.351563,0.412109 -0.05011,0.109892 -0.07763,0.178176 -0.07617,0.175782 l -0.002,0.0039 -0.002,0.002 c -0.0085,0.0144 -0.04611,0.04752 -0.125,0.177734 -0.07889,0.130213 -0.137859,0.370989 -0.105469,0.570313 l 0.03711,-0.28125 c -0.04769,0.108783 -0.135545,0.196027 -0.244141,0.24414 0.04814,-0.0214 0.02274,-0.0081 -0.03711,0.0059 -0.05905,0.01377 -0.163477,0.02911 -0.298828,0.125 -0.1967,0.139034 -0.198399,0.227264 -0.22461,0.27539 -0.02641,0.0485 -0.04326,0.06659 -0.02539,0.04687 v 0.002 h -0.002 c -0.03742,0.0417 -0.145657,0.07456 -0.298828,0.316406 l -0.002,0.0039 -0.0039,0.0039 c -0.134899,0.221604 -0.107752,0.258521 -0.0918,0.253907 -0.04648,0.03429 -0.141102,0.09739 -0.228516,0.228515 l -0.002,0.002 -0.002,0.002 c -0.104693,0.161071 -0.09368,0.225208 -0.105469,0.273438 -0.01179,0.04823 -0.02936,0.07547 0.0039,0.01367 -0.06263,0.110425 -0.270937,0.303373 -0.22461,0.707031 1.17e-4,10e-4 -1.19e-4,9.38e-4 0,0.002 0.01518,0.126264 0.07761,0.154804 0.136719,0.234375 -0.02121,0.05996 -0.05746,0.05617 -0.05469,0.138672 0.0042,0.124025 0.03926,0.191879 0.06641,0.253906 -0.03162,0.03891 -0.08568,0.09006 -0.132813,0.251953 -2.69e-4,9.25e-4 2.65e-4,0.001 0,0.002 -0.02199,0.07674 -0.0097,0.106833 -0.0078,0.162109 -1.56e-4,-0.004 0.0084,-0.02156 -0.02344,0.02734 -0.04777,0.07335 -0.143664,0.189961 -0.154297,0.423828 v 0.0039 0.0039 c -0.006,0.182659 0.08181,0.319382 0.136719,0.386719 -0.02554,0.07185 -0.07188,0.08366 -0.04102,0.230469 0.06916,0.329031 0.236504,0.410581 0.34375,0.5 0.10801,0.09006 0.209614,0.168599 0.205078,0.164062 0.222266,0.222266 0.343486,0.342721 0.30664,0.251953 -0.01215,-0.02951 0.01431,0.06648 0.04102,0.183594 0.0267,0.117111 0.03906,0.283218 0.234375,0.478516 l 0.0039,0.0039 0.002,0.002 c 0.148615,0.143484 0.268017,0.167751 0.332032,0.191406 0.06401,0.02366 0.07937,0.0394 0.03906,0.0078 l 0.002,0.002 0.002,0.002 c 0.146365,0.112902 0.198579,0.122919 0.246094,0.160156 0.02468,0.01942 0.142145,0.140756 0.294922,0.261719 0.152777,0.120964 0.376921,0.282058 0.712891,0.257813 l 0.03125,-0.002 0.0293,-0.0059 c 0.3407,-0.06681 0.444699,-0.16746 0.398438,-0.160156 h 0.002 l 0.0039,-0.002 c 0.232861,-0.03947 0.383589,-0.07464 0.371094,-0.07617 h 0.002 c 0.07239,0.02593 0.204532,0.09964 0.486328,0.08203 l 0.0332,-0.002 0.0332,-0.0059 c 0.06973,-0.01395 0.249939,-0.01499 0.490234,-0.103516 l 0.01367,-0.0039 0.01367,-0.0059 c 0.248064,-0.107745 0.578365,-0.205524 0.761718,-0.199218 0.04342,0.0815 0.107459,0.258013 0.34961,0.412109 l 0.0957,0.0625 0.115234,0.01172 c 0.237243,0.02696 0.268664,0.0064 0.34375,-0.0059 -0.0099,0.02618 -0.01826,0.02104 -0.02734,0.06055 -0.04163,0.176662 -0.02261,0.315758 -0.01367,0.396485 0.009,0.08152 -0.01344,0.114759 0.01758,0 0.0079,-0.02897 -0.0042,0.0028 -0.0293,0.0625 -0.02503,0.05951 -0.0713,0.153865 -0.06836,0.326172 0.0024,0.241936 0.06103,0.286083 0.107421,0.376953 0.04563,0.08939 0.09567,0.171266 0.164063,0.255859 0.155282,0.197624 0.294126,0.290553 0.349609,0.351563 0.119505,0.137511 0.186918,0.310682 0.306641,0.574218 -0.0087,0.07408 -0.03029,0.131775 0.0098,0.251953 l -0.02148,-0.222656 c -0.0466,0.355844 -0.154577,0.574445 -0.419922,1.025391 -0.04563,0.04732 -0.106532,0.102514 -0.189453,0.203125 -0.09927,0.120453 -0.225529,0.320313 -0.224609,0.582031 -0.0045,0.332709 0.08909,0.6008 0.154297,0.791016 0.06616,0.193019 0.09949,0.306848 0.09375,0.43164 l 0.002,-0.01563 c -0.02593,0.33713 -0.01273,0.553155 0,0.691407 0.01273,0.138251 0.02069,0.156888 0.0039,0.273437 l -0.05273,0.353516 0.117187,0.06055 c -0.01511,0.05165 -0.0257,0.08943 -0.04687,0.164062 -0.02701,0.07691 -0.04395,0.105667 -0.08398,0.167969 -0.04153,0.06462 -0.12282,0.185464 -0.169922,0.351562 l -0.119141,0.421875 0.01953,0.0078 c -0.463133,0.424643 -0.926717,0.849388 -1.445313,1.205078 -1.32823,0.913073 -2.819785,1.561687 -4.392578,1.914062 -6.95e-4,1.38e-4 -0.0013,0.0018 -0.002,0.002 -0.890719,0.175932 -1.797298,0.255861 -2.705078,0.238281 h -0.0059 -0.0039 c -0.487475,0 -0.968218,-0.02464 -1.439453,-0.07813 -0.391807,-0.04532 -0.768627,-0.08908 -1.119141,-0.160156 -0.4126,-0.08456 -0.840034,-0.274089 -1.261718,-0.4375 0.04511,-0.0071 0.08737,-0.01406 0.144531,-0.02344 0.08725,-0.01431 0.161087,-0.01438 0.314453,-0.08594 l 0.0293,-0.01367 0.02734,-0.01758 c 0.199339,-0.126838 0.25491,-0.252978 0.314453,-0.392579 0.0579,-0.135737 0.09559,-0.289916 0.08008,-0.478515 0.241789,-0.08053 0.329962,-0.18764 0.429687,-0.292969 0.106477,-0.112459 0.188981,-0.20804 0.265625,-0.361328 0.07564,-0.151285 0.03493,-0.153423 0.02539,-0.210938 0.0072,-0.01392 0.01151,-0.02155 0.01953,-0.03711 0.01822,-0.03535 0.02203,-0.01727 0.06445,-0.144531 l 0.0059,-0.01563 0.0039,-0.01758 c 0.0039,-0.01516 0.0041,-0.04638 0.0078,-0.06445 0.0013,0.01326 0.02943,-0.01852 0.142579,-0.154297 v -0.002 l 0.002,-0.002 c -0.01371,0.01669 0.02565,-0.02434 0.07617,-0.07031 0.04903,-0.04461 0.109637,-0.09459 0.185546,-0.197266 0.05136,-0.06864 0.0979,-0.163614 0.117188,-0.216797 0.0035,-0.0061 0.02504,-0.06399 0.0078,-0.01172 l 0.03711,-0.06641 0.01563,-0.08789 c 0.04338,-0.263194 -0.03069,-0.462429 -0.0625,-0.56836 -0.03181,-0.10593 -0.01447,-0.10595 -0.03125,-0.04492 v -0.002 -0.002 c -0.02322,0.08706 -0.0304,0.04855 0.05273,-0.0039 0.08276,-0.05222 0.213074,-0.112153 0.339844,-0.171875 -0.0059,0.0028 0.07467,-0.01592 0.205078,-0.0625 l 0.0039,-0.002 c 0.142578,-0.04975 0.328944,-0.107386 0.490235,-0.162109 h 0.0059 l 0.0039,-0.002 c 0.216969,-0.07848 0.401614,-0.243707 0.5,-0.390625 0.09839,-0.146917 0.139101,-0.256915 0.185547,-0.34375 l -0.0039,0.0039 c 0.02084,-0.03789 0.06107,-0.102107 0.101562,-0.175782 0.04049,-0.07367 0.08926,-0.127831 0.121094,-0.3125 l 0.002,-0.0039 v -0.0039 c 0.01056,-0.06861 0.0035,-0.115319 0,-0.158203 l -0.002,0.002 c 0.04809,-0.279013 0.01612,-0.312146 -0.0059,-0.21875 0.04888,-0.190359 0.07985,-0.384022 0.09375,-0.580078 l 0.002,-0.01758 v -0.01758 c 0,-0.140678 -0.04637,-0.2252 -0.07813,-0.291016 0.02665,-0.01843 0.0692,-0.04391 0.158203,-0.173828 l 0.002,-0.0039 c 0.07175,-0.105709 0.103837,-0.188364 0.132813,-0.253907 0.02942,-0.06654 0.0688,-0.128512 0.0332,-0.07617 v -0.002 c 0.04371,-0.06475 0.161298,-0.152589 0.330078,-0.330078 0.16878,-0.177488 0.358708,-0.511764 0.337891,-0.890625 V 41.875 l -0.002,-0.002 c -0.01208,-0.181127 -0.05423,-0.319179 -0.117187,-0.480469 -0.03148,-0.08064 -0.06752,-0.161257 -0.121094,-0.246094 -0.05304,-0.08399 -0.10834,-0.191135 -0.308594,-0.279297 -0.136529,-0.06008 -0.213349,-0.07216 -0.277343,-0.09375 l -0.0039,-0.002 c -9.39e-4,-3.23e-4 -0.003,-0.0016 -0.0039,-0.002 -0.04786,-0.01951 -0.166272,-0.101494 -0.326172,-0.216797 -0.16344,-0.117855 -0.380687,-0.281587 -0.71289,-0.308593 l -0.02148,-0.002 h -0.185547 c 0.03078,0 -0.118707,-0.03429 -0.28125,-0.0625 -0.129799,-0.03657 -0.164666,-0.01918 -0.222656,-0.01172 -0.02874,-0.05732 -0.003,-0.08476 -0.126953,-0.169922 -0.134013,-0.09246 -0.209851,-0.09977 -0.267578,-0.115235 -0.05611,-0.01503 -0.09153,-0.02293 -0.09375,-0.02344 l -0.0039,-0.002 c 0.02485,0.0098 0.03423,0.0155 -0.0332,-0.0332 -0.07344,-0.05304 -0.247788,-0.15192 -0.441407,-0.16211 h -0.01172 -0.01367 c -0.0689,0 -0.06367,0.004 -0.08203,0.0078 -0.02374,-0.0061 -0.09889,-0.03215 -0.07227,-0.01563 h -0.002 -0.002 c -0.08122,-0.04963 -0.12124,-0.06533 -0.146485,-0.07617 -0.0409,-0.102361 -0.02502,-0.2539 -0.07227,-0.302734 -0.08262,-0.0854 -0.05347,-0.03697 -0.04492,-0.01367 0.01454,-0.05649 0.06166,-0.110244 -0.02734,-0.34961 -0.113262,-0.309688 -0.305285,-0.392045 -0.400391,-0.458984 -0.234258,-0.203821 -0.526994,-0.326936 -0.835937,-0.357422 -0.265602,-0.04297 -0.410913,-0.0083 -0.386719,-0.0039 h -0.0039 l -0.0039,-0.002 c -0.08329,-0.0139 -0.157536,-0.05372 -0.220704,-0.109375 -0.01578,-0.02188 -0.02987,-0.04325 -0.06445,-0.09961 -0.04406,-0.0718 -0.113776,-0.197416 -0.283203,-0.302734 -0.07979,-0.05017 -0.09621,-0.05951 -0.121094,-0.07422 l 0.109375,-0.222656 -0.443359,-0.222656 c -0.03478,-0.01739 -0.124715,0.01332 -0.185547,0.002 -0.0232,-0.02299 -0.01889,-0.03246 -0.04883,-0.05664 -0.155286,-0.125438 -0.434414,-0.199247 -0.660156,-0.158203 l -0.01563,0.0039 -0.01563,0.0039 C 25.62029,36.897176 25.635449,36.944092 25.582031,37 c -0.06534,-0.05779 -0.0842,-0.112584 -0.230469,-0.142578 -0.183605,-0.03813 -0.257514,0.0045 -0.333984,0.03906 -0.02646,-0.02185 -0.02874,-0.02893 -0.07031,-0.05664 l -0.002,-0.002 h -0.002 c 4.42e-4,2.89e-4 -0.05502,-0.04157 -0.115234,-0.08594 -0.03011,-0.02218 -0.06084,-0.04593 -0.109375,-0.07422 -0.04597,-0.02679 -0.09469,-0.08858 -0.3125,-0.08203 -0.02681,8.08e-4 -0.03051,0.01583 -0.05469,0.01953 -0.08611,-0.065 -0.191375,-0.146279 -0.355468,-0.132812 -0.202843,0.01665 -0.315728,0.130551 -0.363282,0.18164 -0.09511,0.102179 -0.106611,0.07203 0.04297,-0.01172 l -0.01367,0.0059 -0.01172,0.0098 c 0.06697,-0.04305 0.02249,-0.02744 -0.148438,0.0332 l -0.0039,0.002 h -0.0039 c -0.114115,0.043 -0.293447,0.06312 -0.535157,0.183594 -0.178438,0.0825 -0.301961,0.238388 -0.404297,0.404297 -0.254524,-0.08434 -0.525812,-0.07283 -0.675781,-0.02539 -0.158802,0.05023 -0.210597,0.06725 -0.205078,0.06836 0.117085,-2.06e-4 0.02988,-0.0012 -0.02734,-0.05859 -0.05733,-0.05749 -0.0442,-0.145052 -0.05078,0.002 0.0026,-0.02579 0.05508,-0.231765 0.07813,-0.47461 -0.01015,0.101521 -0.01335,0.05564 0.02734,-0.01758 0.0407,-0.07322 0.136654,-0.16704 0.142578,-0.433594 v -0.002 -0.002 c 0.0033,-0.198745 -0.102331,-0.375993 -0.199219,-0.470703 -0.09689,-0.09471 -0.188005,-0.141002 -0.267578,-0.175781 -0.157556,-0.06886 -0.285329,-0.0909 -0.357422,-0.103516 h -0.0039 c -0.05637,-0.0099 -0.07392,0.0059 -0.123047,0.0039 0.0508,-0.136137 0.0307,-0.192511 0.01953,-0.255859 0.04254,-0.03965 0.137891,-0.07205 0.179688,-0.34375 l 0.002,-0.0098 v -0.0078 c 0.03058,-0.259852 -0.08297,-0.410261 -0.15625,-0.503906 -0.07328,-0.09365 -0.140246,-0.149716 -0.191406,-0.191407 l -0.166016,-0.134765 -0.210937,0.02539 c -0.16005,0.01928 -0.33357,0.03777 -0.53125,0.09961 0.0988,-0.312635 0.187559,-0.627549 0.310546,-0.931641 l -0.02539,-0.0039 c 0.0042,4.59e-4 0.0055,-0.0043 0.0098,-0.0039 0.0099,9.69e-4 0.0053,0.0072 0.01563,0.0078 0.002,-0.005 0.0019,-0.01065 0.0039,-0.01563 0.281206,0.01275 0.555293,-0.152575 0.654297,-0.257812 0.05593,-0.05945 0.04026,-0.04672 0.05469,-0.0625 0.03487,-0.0019 0.09271,0.0042 0.117188,0.002 0.06473,-0.006 0.08056,-0.0062 0.105468,-0.0039 -0.02291,-0.0036 0.01915,0.0092 0.08789,0.04297 0.06103,0.03001 0.15742,0.07166 0.292969,0.101563 -0.01372,0.08109 -0.05438,0.114296 -0.02148,0.238281 l 0.0332,0.126953 0.0918,0.09375 c 0.171658,0.175309 0.335767,0.222819 0.466797,0.267578 0.131031,0.04476 0.242167,0.07628 0.279297,0.0918 l 0.28125,0.117188 0.234375,-0.195313 c 0.112409,-0.09452 0.19252,-0.241769 0.21875,-0.365234 0.02623,-0.123466 0.01584,-0.219185 0.0039,-0.291016 -0.02163,-0.130216 -0.0424,-0.18746 -0.04492,-0.1875 3.75e-4,-0.01277 8.95e-4,-0.02852 0.002,-0.06641 0.0015,-0.05236 0.0086,-0.09284 -0.0078,-0.207031 l 0.002,0.002 c -0.0153,-0.110176 -0.04326,-0.155012 -0.06641,-0.203125 0.0012,-2.39e-4 -0.0093,-0.003 0.01172,-0.02148 0.04291,-0.03773 0.15774,-0.101454 0.308593,-0.189453 0.115307,-0.06749 0.184377,-0.13099 0.240235,-0.177734 0.05401,-0.04519 0.09608,-0.07026 0.06055,-0.05273 -0.0034,0.0016 -0.03606,0.007 0.0098,0.002 0.04583,-0.005 0.182187,-0.01689 0.324219,-0.08789 l 0.01172,-0.0059 0.01172,-0.0059 c 0.302408,-0.171099 0.470444,-0.379689 0.570312,-0.460937 l 0.09766,-0.08008 0.04687,-0.117188 c 0.06693,-0.161117 0.04843,-0.271332 0.04297,-0.384765 0.112794,-0.06781 0.245709,-0.136574 0.289063,-0.19336 0.04301,-0.05633 0.03457,-0.05173 0.03906,-0.06055 0.04244,-0.01567 0.07226,-0.01584 0.144531,-0.07227 l 0.002,-0.002 c 0.110401,-0.08717 0.165948,-0.17151 0.197266,-0.214844 l 0.02148,-0.01367 c 0.01233,-0.0084 0.02487,-0.01496 0.03906,-0.01953 l 0.0039,-0.002 h 0.002 c -0.04153,0.01384 0.138071,-0.0086 0.34961,-0.08789 -0.03507,0.01334 0.02819,-0.0026 0.09961,-0.01563 0.03855,-0.007 0.07954,-0.015 0.132813,-0.0293 0.05146,-0.01381 0.110604,0.01798 0.28125,-0.160156 0.147599,-0.153427 0.154413,-0.292194 0.158203,-0.367188 0.0013,-0.02647 -0.0012,-0.03479 -0.002,-0.05469 0.07131,-0.02159 0.192677,-0.05197 0.333984,-0.09766 0.08319,0.08209 0.190664,0.158455 0.294922,0.177734 0.241376,0.04463 0.361725,-0.03652 0.447265,-0.08203 0.08554,-0.04551 0.142628,-0.08973 0.183594,-0.119141 0.04097,-0.02941 0.104554,-0.05035 -0.0098,-0.0039 l 0.0039,-0.002 h 0.0039 c 0.125118,-0.05333 0.415673,-0.157479 0.636719,-0.240235 l 0.0078,-0.002 c 0.04758,-0.01575 0.182942,-0.03179 0.378907,-0.146484 0.09991,-0.05848 0.258573,-0.176327 0.3125,-0.408203 0.0054,-0.02342 -0.01801,-0.03372 -0.01563,-0.05664 0.03538,0.0069 0.08569,0.0464 0.113281,0.04883 0.118976,0.01049 0.1853,0.006 0.21875,0.0098 l -0.134766,-0.03516 c 0.189151,0.07882 0.281742,0.05189 0.351563,0.04687 0.06982,-0.005 0.123299,-0.0078 0.08984,-0.0078 l -0.158203,-0.02539 c 0.09268,0.03089 0.111409,0.01079 0.169922,0.0098 0.01761,0.02549 0.02087,0.03815 0.05273,0.07227 0.07432,0.07958 0.240795,0.193359 0.435546,0.193359 0.143172,0 0.360444,-0.06427 0.488282,-0.232422 0.127838,-0.168155 0.129337,-0.345514 0.113281,-0.458984 -0.0095,-0.06713 -0.04855,-0.08774 -0.06641,-0.138672 0.03651,-0.09296 0.118837,-0.307529 -0.0078,-0.558594 -0.03902,-0.07672 -0.118309,-0.08092 -0.185547,-0.132812 l -0.0059,-0.06641 c 0.05533,-0.08309 0.189435,-0.295748 0.164062,-0.541015 l -0.002,-0.0098 v -0.0078 c -0.02702,-0.19462 -0.246839,-0.412948 -0.310547,-0.449219 -0.06371,-0.03627 0.0085,0.0011 0.04492,0.04883 l 0.0098,0.01172 c 0.129681,0.179541 0.05401,0.112306 0.04102,0.05469 -0.0065,-0.02881 -0.01372,-0.06578 -0.03125,-0.11914 -0.01752,-0.05336 -0.02077,-0.129532 -0.158204,-0.257813 l -0.0098,-0.0078 -0.0098,-0.0078 c -0.122288,-0.103474 -0.154406,-0.07875 -0.238281,-0.09961 0.0046,-0.07829 0.01598,-0.114273 -0.002,-0.25 v -0.002 c -0.01611,-0.117397 -0.05369,-0.239765 -0.09961,-0.375 0.693692,-0.125284 1.394456,-0.209325 2.09961,-0.214844 h 0.04297 z m 5.457031,0.80664 c -0.04726,0.02626 -0.06224,0.05521 -0.09961,0.0918 l -0.0098,-0.0098 z m 1.154297,0.533204 v 0.01367 c -2.17e-4,-0.002 -0.0017,-0.0019 -0.002,-0.0039 -4.03e-4,-0.0036 0.0024,-0.0062 0.002,-0.0098 z m 0.244141,0.445312 -0.0293,0.08203 c -0.0023,3.33e-4 -0.0055,-3.45e-4 -0.0078,0 0.0051,-0.0338 0.03935,-0.04961 0.03711,-0.08203 z m -9.654297,0.242188 c -0.0049,0.0043 -0.0107,0.01128 -0.01563,0.01563 4.5e-5,-5.1e-5 -3.7e-5,-0.0019 0,-0.002 z m -0.8125,0.02734 c -0.04644,-0.0093 -0.05457,-0.02872 0.05078,0.02148 0.0015,7.04e-4 0.0043,0.0051 0.0059,0.0059 -0.01297,-0.0023 -0.04802,-0.02562 -0.05664,-0.02734 z m 1.589844,0.525391 0.07617,0.02539 c -0.02596,-0.01082 -0.01998,0.0033 -0.04297,-0.0039 -0.01585,-0.0052 -0.0161,-0.01741 -0.0332,-0.02148 z m -7.003906,0.371094 c 0.03035,0.01355 0.07188,0.01928 0.08984,0.0332 -0.01071,2.66e-4 -0.03222,-0.0085 -0.04102,-0.0078 -0.196166,0.01609 -0.145672,0.0098 -0.01953,0.0098 h -0.06055 c 0.01211,-0.01414 0.01909,-0.02402 0.03125,-0.03516 z m 4.695312,0.06836 c -0.03459,0.02723 -0.138422,0.05658 -0.142578,0.06055 -0.0062,0.006 0.01192,-0.01701 0.07617,-0.05078 0.01558,-0.0082 0.04536,-0.0031 0.06641,-0.0098 z M 38.878906,28.5 c 0.0059,-0.0021 0.0037,0.0022 0.0098,0 l -0.01563,0.0059 c 0.0039,-0.0013 0.0021,-0.0045 0.0059,-0.0059 z m -15.166015,0.421875 c 0.0088,0.0048 0.01397,0.0087 0.02148,0.01367 l -0.0098,0.0078 z m 0.826171,0.130859 0.16211,0.291016 c -0.01187,0.09835 -0.109374,0.171543 -0.1875,0.242187 -0.03694,-0.02137 -0.03529,0.01356 -0.08008,-0.03125 l -0.03125,-0.107421 0.02344,-0.01758 c 0.141616,-0.109744 0.08913,-0.241409 0.113281,-0.376953 z m 16.363282,0.0059 c -0.02284,0.0076 -0.0089,0.02849 -0.0293,0.03711 -0.02173,0.01627 -0.06263,0.02392 -0.07422,0.03711 l -0.0039,-0.0078 z m -18.765625,0.167968 c -0.01939,0.04774 -0.06888,0.05287 -0.08203,0.105469 v -0.0039 c 0.03085,-0.118982 0.03866,-0.09716 0.04687,-0.09766 0.003,-0.0025 0.02971,-5.95e-4 0.03516,-0.0039 z m 2.763672,0.332032 c -0.0065,0.0026 -0.0054,0.007 -0.01172,0.0098 -0.02711,0.01539 -0.05816,0.02345 -0.08398,0.04102 z m 14.09375,0.08594 c -0.02431,0.03457 -0.117185,0.107419 -0.128907,0.119141 l -0.0039,0.0039 -0.002,0.002 c 0.0068,-0.0071 -0.0043,0.0036 -0.05469,0.04297 -0.05043,0.03936 -0.196117,0.122956 -0.24414,0.375 l -0.002,0.0039 v 0.002 c -0.01609,0.09082 0.0014,0.02355 0,0.05859 -0.01676,0.01341 -0.03736,0.02986 -0.04492,0.03516 l 0.0098,-0.0059 c -0.03949,0.02632 -0.04899,0.04949 -0.08203,0.08594 -0.110085,0.06683 -0.156504,0.0992 -0.103515,0.08594 -0.01084,-0.0042 -0.126555,-0.0098 -0.306641,-0.0039 -0.07586,0.0025 -0.184808,0.03129 -0.296875,0.07031 -0.07142,-0.05646 -0.105141,-0.131227 -0.232422,-0.160156 h -0.002 -0.002 c 0.04743,-0.06224 0.09112,-0.07663 0.126953,-0.214844 0.03908,-0.15221 0.0118,-0.235886 0.0078,-0.353515 0.115955,0.0184 0.255195,0.04847 0.472657,0.0625 l 0.01563,0.002 h 0.177734 c 0.09419,0.001 0.232896,0.02089 0.429688,-0.0078 0.0836,-0.0122 0.163391,-0.142431 0.265625,-0.203125 z m 1.242187,0.222656 c 0.04464,0.0036 0.03548,0.0059 0.146484,0.0059 -0.0047,0 0.01065,0.0019 0.0078,0.002 l 0.002,0.08203 c 0.0037,0.202595 0.0087,0.306077 0.01172,0.292969 l -0.02539,0.113281 H 40.1875 l -0.02734,0.0039 c -0.10799,0.01241 -0.274761,-0.01265 -0.5,0.002 0.05047,-0.05627 0.144642,-0.152852 0.121094,-0.140625 0.05132,-0.02533 0.259723,-0.02092 0.453125,-0.359375 z m 0.871094,0.08398 c 0.02694,0.0074 0.0338,0.03247 0.05859,0.04687 -0.01382,0.0022 -0.0022,0.0063 -0.01758,0.0078 -0.08724,0.009 -0.08537,-0.0306 -0.140625,-0.05078 0.03486,-0.0024 0.05233,-0.01692 0.09961,-0.0039 z M 40.751953,30.125 c 0.07297,0.05372 0.128312,0.131974 0.208984,0.148437 l 0.191407,0.03906 0.07031,-0.04297 -0.04297,0.08594 c -0.0057,0.004 -0.0189,0.0039 -0.02539,0.0078 h -0.234375 c -0.05283,-0.03483 -0.113571,-0.06605 -0.138672,-0.107422 -0.07849,-0.129353 -0.03458,-0.14441 -0.04883,-0.06641 z m 0.951172,0.134766 c 7.23e-4,0.0018 0.02251,0.01233 0.02539,0.01563 -0.009,0.0031 -0.01425,0.0021 -0.02344,0.0059 10e-4,-0.0068 -0.0029,-0.01472 -0.002,-0.02148 z m -2.066406,0.103515 c -0.01247,0 -0.01364,0.0055 -0.02539,0.0059 -0.0231,0.0025 -0.02171,-0.0037 -0.04687,0 z m 2.466797,0.1875 c -0.0011,0.0031 -8.64e-4,0.0066 -0.002,0.0098 l -0.01953,-0.0059 z m -4.556641,0.02344 0.0039,0.02344 c -7.81e-4,-0.0044 -0.0031,-0.0015 -0.0039,-0.0059 -0.002,-0.01106 0.0027,-0.0055 0,-0.01758 z m -0.988281,0.125 c -0.0012,0.0092 0.01258,0.0604 0.0098,0.07617 -0.0017,-0.0084 -2.77e-4,0.0036 -0.002,-0.0059 -0.0058,-0.05435 -0.0034,-0.102925 -0.0078,-0.07031 z m 5.382812,0.08789 0.0078,0.02734 c -9.71e-4,-0.0036 -0.0048,-0.0042 -0.0059,-0.0078 -0.0034,-0.01167 0.0023,-0.0068 -0.002,-0.01953 z m -3.804687,0.07031 c 0.02154,0 0.02402,0.0058 0.0293,0.0078 -0.06338,0.0036 -0.01424,-0.01398 -0.09961,-0.002 z m 2.833984,0.320312 c 7.28e-4,0.0054 0.0031,0.0045 0.0039,0.0098 1.42e-4,9.28e-4 -1.44e-4,0.001 0,0.002 -7.3e-5,7.4e-5 -0.0019,-7.4e-5 -0.002,0 z m 1.787109,0.07031 c 0.08936,0.150227 0.183658,0.286528 0.273438,0.443359 0.06419,0.112776 0.09277,0.145123 0.146484,0.21875 -0.02981,-0.01056 -0.0395,-0.01806 -0.07422,-0.02734 -0.08601,-0.0254 -0.109765,-0.01187 -0.164063,-0.0098 -0.03772,-0.08195 -0.04704,-0.157816 -0.189453,-0.257813 l -0.01172,-0.0059 -0.0098,-0.0078 c -0.119223,-0.07452 -0.255686,-0.112136 -0.388672,-0.15625 l 0.18164,0.0332 0.179688,-0.144532 c 0.0273,-0.02213 0.03194,-0.06125 0.05664,-0.08594 z m -0.738281,0.03125 c 0.07959,0.02533 0.153061,0.113524 0.222656,0.126953 -0.03204,-0.0085 -0.05925,-0.03038 -0.0918,-0.03711 l -0.05078,-0.0098 h -0.05078 c -0.0076,0 -0.0044,0.0018 -0.01172,0.002 -3.3e-5,-0.04661 -0.01112,-0.04924 -0.01758,-0.08203 z m 0.0293,0.113281 -0.002,0.0098 c 2.29e-4,-0.0028 -0.0022,-0.0012 -0.002,-0.0039 3.09e-4,-0.004 0.0037,-0.0018 0.0039,-0.0059 z m -20.039062,1.599609 c -9.1e-5,0.0022 9.2e-5,0.0056 0,0.0078 -0.0094,0.0099 -0.0093,0.0152 -0.05469,0.04102 -0.02593,0.01475 -0.06278,0.01029 -0.09766,0.01953 0.04792,-0.03235 0.138768,-0.05561 0.152344,-0.06836 z m 12.638671,1.839844 c -0.0053,0.0059 -0.02559,0.08624 -0.04297,0.107422 0.0069,-0.0174 0.007,-0.05101 0.01367,-0.0625 0.02885,-0.04976 0.04003,-0.05692 0.0293,-0.04492 z m -14.978515,0.894531 c -0.0281,0.04901 -0.06702,0.120109 -0.08203,0.234375 -0.0086,0.0655 0.02596,0.135857 0.04297,0.208985 -0.03635,-0.0093 -0.07286,-0.01858 -0.107422,-0.0332 l -0.002,-0.002 c 0.0069,0.003 -0.08163,-0.08577 -0.09961,-0.111329 -1.75e-4,-2.49e-4 1.78e-4,-0.0017 0,-0.002 l 0.0039,-0.02734 0.02148,-0.144532 c 0.04533,-0.01228 0.09201,-0.01875 0.136718,-0.0332 h -0.0059 c 0.0554,-0.01728 0.04541,-0.06283 0.0918,-0.08984 z m 0.980469,0.279297 -0.0039,0.01563 c 0.0022,-0.0056 -0.002,-0.0043 0,-0.0098 0.0018,-0.0048 0.0022,-9.14e-4 0.0039,-0.0059 z m -0.769532,0.189453 0.02539,0.0078 c -0.0024,-9.8e-4 -0.0034,9.33e-4 -0.0059,0 -0.0071,-0.0024 -0.01247,-0.0054 -0.01953,-0.0078 z m 0.835938,0.400391 c -0.0061,0.0211 -0.01272,0.02621 -0.01758,0.05078 -0.01344,-0.01361 -0.04399,-0.0285 -0.05859,-0.04297 0.04212,-0.005 0.04961,-0.0053 0.07617,-0.0078 z m -1.408203,0.515625 c 0.02491,0.0076 0.04899,0.01698 0.07422,0.02344 0.07641,0.02675 0.111939,0.01002 0.181641,0.0078 0.11464,0.03918 0.266977,0.102034 0.365234,0.146484 l 0.002,0.002 0.002,0.002 c -0.04718,-0.02064 0.02983,0.02347 0.109375,0.101562 0.02438,0.02394 0.07805,0.05972 0.105468,0.08789 -0.0016,0.06186 -0.0204,0.09715 0.02539,0.207031 l 0.02344,0.05664 0.03711,0.05078 c 0.06648,0.08948 0.181769,0.259839 0.400391,0.384766 l 0.0039,0.002 0.0039,0.002 c 0.0054,0.003 0.09832,0.123899 0.335938,0.246094 0.208347,0.109943 0.414668,0.05693 0.43164,0.05273 0.01759,-0.0043 -0.10038,0.01975 -0.201172,-0.01758 l 0.01367,0.0059 0.01563,0.0039 c -0.09192,-0.02786 -0.07099,-0.03824 0.0098,0.04102 0.04038,0.03963 0.09584,0.09986 0.208984,0.160156 0.113147,0.0603 0.314758,0.09883 0.482422,0.04883 0.04284,-0.01273 0.07106,-0.05852 0.113281,-0.08398 0.01417,0.123852 0.0091,0.248837 0,0.373047 -0.07934,0.0428 -0.148941,0.05783 -0.238281,0.177734 -0.106351,0.142716 -0.101953,0.21064 -0.109375,0.269532 -0.03628,0.03073 -0.09336,0.07994 -0.148437,0.158203 l -0.0039,0.0039 -0.0039,0.0059 c -0.07745,0.116161 -0.09811,0.185241 -0.121094,0.236328 l 0.002,-0.0078 c -0.0071,0.01524 -0.05888,0.0812 -0.130859,0.220703 -0.07198,0.139508 -0.136273,0.407233 -0.05859,0.646484 h -0.002 c 0.02422,0.07508 0.03835,0.05129 0.06445,0.09375 -0.06719,0.06902 -0.136653,0.07378 -0.164062,0.261719 v 0.002 c -0.0542,0.379532 0.08333,0.487782 0.08984,0.515625 0.06837,0.29302 0.206808,0.349275 0.28125,0.410157 0.07294,0.05965 0.13408,0.117837 0.08398,0.0625 -0.01246,-0.01294 0.07407,0.15395 0.203125,0.351562 0.104818,0.162465 0.185866,0.479766 0.412109,0.830078 l 0.002,0.0039 0.0039,0.0039 c 0.105565,0.156741 0.206238,0.216725 0.265625,0.259765 -0.0099,0.06227 -0.04158,0.08577 0.01953,0.232422 l 0.002,0.0059 0.002,0.0059 c 0.131727,0.296375 0.316905,0.408743 0.494141,0.535156 0.176402,0.125819 0.353479,0.225297 0.486328,0.291016 0.156362,0.07818 0.269466,0.08214 0.326172,0.08984 0.05075,0.0069 0.0348,0.0088 -0.01563,-0.01758 0.03099,0.01754 0.130857,0.08405 0.208984,0.146485 0.07653,0.06116 0.142652,0.154847 0.101563,0.08398 -0.05042,-0.08852 -0.01868,-0.03627 -0.01172,0.05273 0.0075,0.0953 0.0087,0.217309 0.03516,0.365234 0.0201,0.12299 -0.02157,0.271034 -0.0078,0.597656 v 0.0039 0.0039 c 0.0091,0.156405 0.06428,0.285089 0.08203,0.328125 0.01775,0.04304 0.002,-0.0028 0.002,-0.02539 0,0.06664 -0.0011,0.243278 0,0.222656 v 0.0098 0.0098 c -0.0033,0.202462 0.01087,0.352571 0.002,0.466796 -0.0088,0.109739 -0.0088,0.218387 0,0.328125 v 0.0059 0.0039 c 0.0069,0.0714 0.0374,0.08845 0.06445,0.146484 -0.03577,0.04556 -0.08633,0.06202 -0.06055,0.277344 0.0213,0.180976 0.09278,0.321238 0.132813,0.394531 0.04045,0.07406 0.04244,0.08735 0.03906,0.07227 0.0027,0.01234 0.0066,0.03438 0.0098,0.04883 -0.486912,-0.37095 -0.976257,-0.739372 -1.408203,-1.173828 l -0.002,-0.002 c -0.08996,-0.08996 -0.173527,-0.16921 -0.238281,-0.238281 -0.467546,-0.498748 -0.895347,-1.033986 -1.279297,-1.59961 l -0.002,-0.002 -0.002,-0.0039 c 0.04173,0.05961 0.02798,-8.4e-4 -0.07617,-0.15625 l -0.0039,-0.0059 c -0.436842,-0.652736 -0.810695,-1.346318 -1.115234,-2.070313 v -0.002 l -0.002,-0.002 c -0.0525,-0.122502 -0.08432,-0.171054 -0.07422,-0.144531 l -0.002,-0.0039 -0.002,-0.0059 C 19.914242,42.122962 19.700986,41.42869 19.546875,40.71875 v -0.002 -0.0039 c -0.0287,-0.126752 -0.05096,-0.250553 -0.07813,-0.394532 l -0.002,-0.0039 v -0.002 C 19.316055,39.550458 19.235816,38.776745 19.226562,38 v -0.0039 c -7e-6,-6.49e-4 8e-6,-0.0013 0,-0.002 2.54e-4,-0.296383 0.05159,-0.591424 0.08203,-0.882813 z m 6.773437,0.07813 c -0.03139,0.04609 -0.108592,0.11542 -0.113281,0.125 -0.0095,0.01932 0.0011,-0.03806 0.0957,-0.119141 0.0049,-0.0042 0.0123,-0.0019 0.01758,-0.0059 z m -1.892578,0.318359 -0.02539,0.01563 c 0.01221,-0.0068 6.65e-4,-0.003 0.01172,-0.0098 0.0083,-0.005 0.0052,-3.84e-4 0.01367,-0.0059 z m -2.662109,0.01172 0.0293,0.0098 c -0.007,-0.0026 -0.0087,0.0023 -0.01563,0 -0.0085,-0.0028 -0.0048,-0.0071 -0.01367,-0.0098 z m 6.908203,1.730469 0.0039,0.0059 0.002,0.0078 c -0.01598,-0.04154 9.11e-4,0.0077 -0.0059,-0.01367 z m 12.378906,0.222656 c 8.23e-4,-1.83e-4 0.02324,-1.7e-5 0.02344,0 -0.08384,-0.02056 -0.04055,-0.01543 -0.02344,0.002 3.27e-4,3.32e-4 -3.01e-4,-0.0023 0,-0.002 z m -11.289062,0.132813 c 0.02229,0.01485 0.04337,0.01594 0.08008,0.0918 l 0.0293,0.365234 c 0.05165,-0.16902 -0.0508,-0.297921 -0.109375,-0.457031 z m -7.359375,1.685547 c 0.0097,0.0018 0.0077,-0.03359 0.03516,0.08203 -0.02733,-0.11679 -0.03039,-0.04889 -0.03906,-0.07813 0.0013,-0.0012 0.0026,-0.0026 0.0039,-0.0039 z m 10.232421,2.324218 c 0.0013,0.0069 0.0011,0.0021 0.002,0.0098 -0.0062,-0.08386 -0.02119,0.01067 -0.04687,0.04102 -0.0057,0.0068 0.0387,-0.04693 0.04492,-0.05078 z m -2.595703,3.914063 c -0.03255,-0.04195 0.07139,0.08165 0.09375,0.21875 0.003,0.01869 -0.0032,0.01345 -0.002,0.0293 -0.01964,-0.09225 -0.06442,-0.212772 -0.0918,-0.248047 z M 14.917969,5.5 C 13.729942,5.5 12.657088,6.0628369 11.859375,6.8613281 11.061662,7.6598194 10.5,8.7319796 10.5,9.9199219 v 0.00195 l 0.169922,46.1621091 c 0.0012,1.186757 0.564341,2.257235 1.361328,3.054688 C 12.829121,59.93701 13.900473,60.5 15.087891,60.5 h 33.99414 c 1.188027,0 2.260881,-0.562837 3.058594,-1.361328 C 52.938338,58.340181 53.5,57.26802 53.5,56.080078 v -29.0625 c 0,-0.854999 0.0142,-1.492302 -0.318359,-2.158203 C 52.849079,24.193474 52.353999,23.745624 51.5,22.890625 L 36.076172,7.4550781 36.019531,7.4121094 C 35.26819,6.8438401 34.107686,5.5 32,5.5 Z m 0,2 H 32 c 1.274361,0 1.741373,0.6756979 2.746094,1.453125 l 15.33789,15.351562 c 0.852631,0.853699 1.214226,1.260262 1.308594,1.449219 C 51.487016,25.943004 51.5,26.162579 51.5,27.017578 v 29.0625 c 0,0.522056 -0.291855,1.160524 -0.775391,1.644531 C 50.241074,58.208617 49.603002,58.5 49.082031,58.5 h -33.99414 c -0.519581,0 -1.158701,-0.29123 -1.642578,-0.775391 -0.483878,-0.48416 -0.775391,-1.122865 -0.775391,-1.644531 v -0.002 -0.002 L 12.5,9.9199219 c 0,-0.522056 0.291855,-1.1605238 0.775391,-1.6445313 C 13.758926,7.7913831 14.396998,7.5 14.917969,7.5 Z" />
</svg>
