<?xml version="1.0" encoding="UTF-8" standalone="no"?>
<svg
   height="64"
   width="64"
   version="1.1"
   id="svg3"
   sodipodi:docname="text-x-sass.svg"
   inkscape:version="1.1.2 (0a00cf5339, 2022-02-04)"
   xmlns:inkscape="http://www.inkscape.org/namespaces/inkscape"
   xmlns:sodipodi="http://sodipodi.sourceforge.net/DTD/sodipodi-0.dtd"
   xmlns:xlink="http://www.w3.org/1999/xlink"
   xmlns="http://www.w3.org/2000/svg"
   xmlns:svg="http://www.w3.org/2000/svg">
  <defs
     id="defs3">
    <linearGradient
       id="linearGradient952"
       inkscape:collect="always">
      <stop
         style="stop-color:#ff6ea3;stop-opacity:1"
         offset="0"
         id="stop948" />
      <stop
         style="stop-color:#ffd4f0;stop-opacity:1"
         offset="1"
         id="stop950" />
    </linearGradient>
    <linearGradient
       id="linearGradient3"
       inkscape:collect="always">
      <stop
         style="stop-color:#ff00cc;stop-opacity:0.2"
         offset="0"
         id="stop3" />
      <stop
         style="stop-color:#0066ff;stop-opacity:0.40000001"
         offset="1"
         id="stop4" />
    </linearGradient>
    <linearGradient
       inkscape:collect="always"
       xlink:href="#linearGradient3"
       id="linearGradient4"
       x1="17.841591"
       y1="10.720991"
       x2="50.831161"
       y2="56.697521"
       gradientUnits="userSpaceOnUse" />
    <linearGradient
       inkscape:collect="always"
       xlink:href="#linearGradient952"
       id="linearGradient852"
       x1="18.369005"
       y1="45.904247"
       x2="39.919994"
       y2="15.158776"
       gradientUnits="userSpaceOnUse" />
  </defs>
  <sodipodi:namedview
     id="namedview3"
     pagecolor="#ffffff"
     bordercolor="#000000"
     borderopacity="0.25"
     inkscape:showpageshadow="2"
     inkscape:pageopacity="0.0"
     inkscape:pagecheckerboard="0"
     inkscape:deskcolor="#d1d1d1"
     inkscape:zoom="11.984375"
     inkscape:cx="31.833116"
     inkscape:cy="32.041721"
     inkscape:window-width="1600"
     inkscape:window-height="836"
     inkscape:window-x="0"
     inkscape:window-y="0"
     inkscape:window-maximized="1"
     inkscape:current-layer="svg3"
     inkscape:pageshadow="2"
     showgrid="false" />
  <path
     style="color:#000000;fill:url(#linearGradient4);stroke-width:2;-inkscape-stroke:none"
     d="m 11.67,56.08 c 0,1.71 1.71,3.42 3.417,3.42 h 33.996 c 1.709,0 3.417,-1.71 3.417,-3.42 V 27.017 c 0,-1.71 0,-1.71 -1.708,-3.42 L 35.417,8.21 C 34.51,7.524 33.708,6.5 32,6.5 H 14.917 C 13.208,6.5 11.5,8.21 11.5,9.92 Z"
     id="path5910" />
  <path
     id="path17"
     style="color:#000000;fill:url(#linearGradient852);-inkscape-stroke:none;fill-opacity:1"
     d="m 29.246094,22.867187 c -1.214462,0.09724 -2.479475,0.352798 -3.728516,0.775391 -2.927552,0.9928 -6.0964,2.534887 -8.417969,4.607422 -2.759064,2.452646 -3.31777,4.61143 -3.074218,5.783203 0.353291,1.741483 1.728784,3.074551 3.175781,4.171875 1.211514,0.918746 2.341981,1.604184 3.21289,2.230469 -0.545755,0.26744 -1.259622,0.610896 -2.154296,1.197265 -1.096514,0.718656 -2.217805,1.593271 -2.726563,2.664063 -0.531161,1.120569 -0.504289,2.150176 -0.205078,2.917969 0.299211,0.767792 0.813266,1.292992 1.419922,1.453125 2.511076,0.665634 5.049995,-0.520931 6.429687,-2.472657 h 0.002 c 0.692666,-0.987651 0.992057,-2.109976 1.042969,-3.128906 0.05091,-1.01893 -0.132078,-1.933626 -0.488281,-2.583984 l 0.0078,0.01563 0.19336,0.388672 0.283203,-0.158203 0.002,-0.002 c 0.117477,-0.06657 0.221566,-0.117954 0.337891,-0.18164 -0.08762,0.397921 -0.210569,0.701852 -0.25586,1.230469 -0.0549,0.662409 0.05657,1.374326 0.267578,2.019531 0.211012,0.645205 0.509352,1.223038 0.94336,1.615234 l 0.002,0.0039 h 0.002 c 0.431956,0.381249 0.951273,0.386719 1.173828,0.386719 0.507925,0 0.944607,-0.233762 1.238281,-0.541015 0.293285,-0.306846 0.483394,-0.667978 0.673829,-1.027344 v -0.002 c 0.01534,-0.0286 0.0141,-0.03175 0.0293,-0.06055 0.04612,0.168654 0.03994,0.343049 0.132813,0.501953 0.213623,0.365514 0.650013,0.671875 1.162109,0.671875 0.328411,0 0.536891,-0.186103 0.759766,-0.34375 v 0.621094 l 0.949219,-1.496094 0.002,-0.002 0.01172,-0.01953 c 0.05137,-0.07482 0.09375,-0.142579 0.09375,-0.142579 l 0.06641,-0.117187 v -0.01758 c 0.224382,-0.371972 0.636813,-1.071076 1.289062,-2.296875 0.591679,-1.108769 0.828216,-1.726057 1.150391,-2.47461 0.149148,0.490806 0.409018,0.9309 0.628906,1.355469 -0.04299,0.05597 -0.142578,0.185547 -0.142578,0.185547 l -0.179687,0.230469 0.002,0.0059 c -0.111361,0.135934 -0.218929,0.271065 -0.339844,0.410156 -0.345491,0.394364 -0.728304,0.819028 -1.042969,1.183594 -0.157607,0.182602 -0.298337,0.350222 -0.412109,0.496094 -0.113773,0.145872 -0.196354,0.239535 -0.271485,0.417969 -0.08743,0.20597 -0.147409,0.437259 -0.09961,0.691406 0.0478,0.254147 0.218612,0.48091 0.417969,0.625 l 0.002,0.002 0.0039,0.002 c 0.384476,0.270173 0.785206,0.248392 1.181641,0.21875 0.489466,-0.02503 0.969985,-0.128544 1.425781,-0.308594 0.37555,-0.128653 0.802756,-0.321722 1.222656,-0.613281 h 0.002 l 0.002,-0.002 c 0.441419,-0.311495 0.764453,-0.742688 0.988281,-1.234375 0.01503,0.07494 -0.0458,0.180642 -0.01953,0.251953 0.164361,0.446234 0.585048,0.726889 0.998046,0.808594 0.491307,0.09871 0.892819,-0.07527 1.214844,-0.207031 0.459868,-0.147063 0.896826,-0.358562 1.292969,-0.634766 l 0.002,-0.002 C 41.866991,42.4155 42.6897,41.606774 42.644991,40.449115 v -0.0078 -0.0078 c -0.01869,-0.263454 -0.119196,-0.510903 -0.185547,-0.765625 0.738318,-0.235595 1.568713,-0.427295 2.730469,-0.292969 h 0.002 c 2.858314,0.317068 3.150408,1.955284 3.091797,2.335937 -0.07903,0.514123 -0.544766,0.839519 -0.730469,0.953125 -0.105066,0.06067 -0.188047,0.101063 -0.298828,0.205079 -0.11346,0.10653 -0.224103,0.407586 -0.1875,0.585937 0.01853,0.08935 0.05544,0.199931 0.142578,0.300781 0.08896,0.102963 0.221083,0.170879 0.322266,0.195313 0.202365,0.04887 0.299563,0.01514 0.396484,0.002 l 0.0059,-0.002 h 0.0059 c 0.179924,-0.02836 0.3082,-0.08528 0.503906,-0.183594 0.195707,-0.09831 0.422002,-0.237731 0.646485,-0.431641 0.448233,-0.387186 0.892682,-1.018122 0.927734,-1.871093 v -0.002 c 0.09047,-2.023173 -1.821689,-3.975909 -4.875,-4.173829 v -0.103515 l -0.5,0.002 c -0.997501,0.0039 -1.961247,0.28123 -2.888672,0.640625 -0.232334,-0.447169 -0.481316,-0.917337 -0.501953,-1.068359 -0.06461,-0.493885 -0.129583,-0.689839 -0.0625,-1.183594 0.02839,-0.211935 0.123876,-0.535656 0.214844,-0.800781 0.04548,-0.132563 0.09073,-0.252497 0.125,-0.347657 0.01713,-0.04758 0.03008,-0.08955 0.04297,-0.128906 0.0064,-0.01968 0.01285,-0.03731 0.01953,-0.0625 0.0067,-0.02519 0.02148,-0.0346 0.02148,-0.148437 v -0.0332 l -0.0039,-0.03125 c -0.0147,-0.115281 -0.102296,-0.364319 -0.324219,-0.53125 -0.221497,-0.16661 -0.528071,-0.251824 -0.947265,-0.255859 h -0.002 c -0.387199,-0.0078 -0.745456,0.02584 -1.044921,0.09375 -0.150566,0.03414 -0.285092,0.07443 -0.416016,0.138672 -0.130924,0.06424 -0.293022,0.137354 -0.392578,0.392578 v 0.002 l -0.002,0.0039 c -0.130256,0.347455 -0.235363,0.703866 -0.314453,1.066407 v 0.0039 l -0.002,0.0039 c -0.0088,0.04414 -0.09986,0.298459 -0.242187,0.591797 -0.142326,0.293339 -0.333799,0.651791 -0.544922,1.027344 -0.26172,0.465556 -0.526465,0.882574 -0.796875,1.324219 -0.0081,-0.02884 -0.05584,-0.111981 -0.05859,-0.132813 -0.06597,-0.494819 -0.128794,-0.688621 -0.0625,-1.183594 0.02901,-0.213519 0.123961,-0.537421 0.214844,-0.802734 0.04544,-0.132657 0.09078,-0.252267 0.125,-0.347656 0.01711,-0.04769 0.03009,-0.08735 0.04297,-0.126953 0.0064,-0.0198 0.01288,-0.03912 0.01953,-0.06445 0.0067,-0.02534 0.02148,-0.03698 0.02148,-0.148437 v -0.02734 l -0.0039,-0.02539 c -0.01452,-0.13552 -0.102013,-0.376143 -0.324219,-0.542969 -0.221778,-0.166506 -0.528545,-0.250613 -0.947265,-0.253906 h -0.002 c -0.386912,-0.0083 -0.74406,0.02402 -1.042969,0.0918 -0.150565,0.03414 -0.285355,0.07664 -0.416016,0.140625 -0.130661,0.06398 -0.292213,0.133199 -0.392578,0.388672 -0.122536,0.311918 -0.166936,0.658061 -0.296875,1.007813 l -0.002,0.002 v 0.0039 c -0.0101,0.02845 -0.155317,0.36612 -0.341797,0.775391 -0.186479,0.409271 -0.42738,0.929844 -0.677734,1.466797 -0.311969,0.669102 -0.531191,1.131919 -0.78711,1.675781 0.08051,-0.284581 0.156071,-0.551434 0.210938,-0.744141 0.03068,-0.107749 0.05586,-0.19668 0.07422,-0.265625 0.0092,-0.03447 0.01675,-0.06442 0.02344,-0.09375 0.0033,-0.01466 0.0062,-0.02785 0.0098,-0.04883 0.0018,-0.01049 0.004,-0.02224 0.0059,-0.04102 0.0019,-0.01877 9.8e-5,-0.09851 0,-0.09961 l 0.002,0.04492 c 0,0.134019 -0.0053,0.07479 -0.002,0.05469 0.0033,-0.02011 0.0087,-0.05404 0.01172,-0.0957 0.006,-0.08333 0.004,-0.202137 -0.03711,-0.333984 -0.08215,-0.263693 -0.344952,-0.529777 -0.707032,-0.654297 -0.160472,-0.05557 -0.271481,0.0048 -0.416015,0.0059 0.01671,-0.203577 0.0597,-0.225183 0.03125,-0.472657 -0.03862,-0.335949 -0.1355,-0.711706 -0.402344,-1.027343 -0.266844,-0.315638 -0.712784,-0.521485 -1.230469,-0.521485 -0.679483,0 -1.339571,0.314567 -1.951172,0.730469 -0.557001,0.378773 -1.036252,0.865015 -1.416015,1.353516 -0.445784,0.231774 -1.347979,0.700983 -2.31836,1.208984 -0.281009,0.145659 -0.561361,0.291295 -0.83789,0.435547 -1.021367,-0.975089 -2.303889,-1.797918 -3.328125,-2.644531 -1.090236,-0.901168 -1.806344,-1.771168 -1.744141,-2.878907 0.02549,-0.450115 0.08981,-1.171203 0.9375,-2.238281 0.847685,-1.067078 2.506013,-2.447391 5.732422,-3.978516 2.617375,-1.241771 4.960819,-1.682659 6.701172,-1.634765 1.740352,0.04789 2.807672,0.641884 3.03125,1.107422 0.1943,0.407298 0.202187,0.9344 -0.01758,1.550781 -0.220042,0.617157 -0.670789,1.303442 -1.328125,1.951172 -1.314672,1.295459 -3.445975,2.431378 -6.121094,2.716797 -1.983294,0.212829 -2.974584,-0.56005 -3.103516,-0.695313 v -0.002 h -0.002 c -0.15315,-0.158991 -0.226663,-0.25652 -0.40625,-0.357422 -0.08979,-0.05045 -0.238862,-0.09501 -0.373047,-0.08203 -0.13117,0.01269 -0.21008,0.0575 -0.255859,0.08203 -0.151791,0.07905 -0.279687,0.23798 -0.328125,0.382813 -0.0487,0.145623 -0.04262,0.267261 -0.0293,0.365234 0.02637,0.194007 0.08852,0.32553 0.125,0.412109 0.133362,0.331674 0.390322,0.647306 0.775391,0.966797 0.386395,0.320592 0.90468,0.625264 1.550781,0.828125 1.191306,0.37274 3.732608,0.524572 6.84375,-0.621093 h 0.002 c 1.788864,-0.660626 3.360668,-1.891504 4.40625,-3.359375 1.045582,-1.467871 1.574912,-3.202134 1.138672,-4.832032 -0.460063,-1.718836 -2.146391,-2.784937 -4.236328,-3.210937 -1.044969,-0.213 -2.209366,-0.274974 -3.423828,-0.177735 z m 0.08203,1 c 1.130853,-0.09033 2.204418,-0.03498 3.142578,0.15625 1.87632,0.382458 3.141631,1.270043 3.46875,2.492188 0.337176,1.259771 -0.06427,2.697727 -0.986328,3.992187 -0.92206,1.294461 -2.353073,2.416105 -3.939453,3.001954 -2.910984,1.071958 -5.350611,0.870984 -6.199219,0.605468 -0.115437,-0.03624 -0.165272,-0.101239 -0.269531,-0.144531 0.591516,0.145978 1.217829,0.288546 2.123047,0.191406 2.896475,-0.309035 5.228852,-1.529922 6.71875,-2.998047 0.744949,-0.734062 1.281944,-1.530287 1.566406,-2.328125 0.284462,-0.797837 0.314127,-1.61901 -0.02148,-2.320312 h -0.002 c -0.522304,-1.08755 -1.972491,-1.618712 -3.904296,-1.671875 -1.931806,-0.05316 -4.413532,0.429231 -7.15625,1.730469 h -0.002 c -3.316334,1.5738 -5.105832,3.025995 -6.085937,4.259765 -0.980105,1.233771 -1.122771,2.280449 -1.152344,2.802735 -0.08797,1.566675 0.931387,2.738173 2.103516,3.707031 1.172129,0.968858 2.556157,1.81697 3.46875,2.744141 l 0.287109,0.302734 -0.273437,0.160156 -0.53711,-0.447265 C 20.715912,39.30335 19.178358,38.44992 17.804687,37.408203 16.431017,36.366487 15.27512,35.162079 15.005859,33.832031 h -0.002 v -0.002 c -0.114372,-0.550265 0.17751,-2.538511 2.759766,-4.833984 2.166138,-1.934181 5.23794,-3.444403 8.074219,-4.40625 1.170072,-0.395876 2.359381,-0.63233 3.490234,-0.722657 z m 10.992187,10.369141 h 0.0039 0.0039 c 0.15672,0.0014 0.143158,0.01377 0.195312,0.0293 -0.02215,0.0617 -0.03928,0.110233 -0.06445,0.183594 -0.09907,0.288749 -0.2129,0.644079 -0.259765,0.992187 -0.08538,0.628451 0.0027,1.007552 0.06055,1.451172 v 0.002 0.002 c 0.08311,0.60821 0.446058,1.126709 0.765625,1.730469 l 0.179687,0.339844 -0.01563,0.0059 0.201172,0.472656 c 0.141898,0.333127 0.227193,0.687773 0.253906,1.048829 0.02193,0.65403 -0.466262,1.184155 -1.09375,1.626953 -0.294982,0.20537 -0.622813,0.35527 -0.96289,0.470703 0.285244,-0.109265 0.619002,-0.240811 0.93164,-0.544922 0.365344,-0.355379 0.651575,-0.909322 0.658203,-1.615234 0.0095,-0.265306 -0.04641,-0.509818 -0.126953,-0.738282 l -0.240234,-0.679687 -0.208985,0.173828 -0.07813,-0.152344 c -0.238728,-0.467189 -0.484331,-0.917673 -0.589843,-1.261719 v -0.002 c -0.244261,-0.8072 -0.31836,-1.27539 -0.31836,-1.27539 L 39.375,34.994141 38.677734,36.345703 c -0.119641,0.231636 -0.281887,0.43808 -0.408203,0.666016 0.208262,-0.371691 0.400165,-0.732545 0.550781,-1.042969 0.156309,-0.322156 0.271724,-0.569558 0.324219,-0.832031 0.05899,-0.268491 0.14307,-0.531811 0.234375,-0.791016 0.03658,-0.01342 0.06666,-0.02602 0.132813,-0.04102 0.196958,-0.04466 0.493689,-0.07507 0.808593,-0.06836 z m -4.728515,0.992188 h 0.0039 0.0039 c 0.155602,0.0011 0.141218,0.01393 0.19336,0.0293 -0.02208,0.06166 -0.03934,0.110281 -0.06445,0.183594 -0.09903,0.289093 -0.212434,0.643792 -0.259766,0.992188 v 0.002 c -0.08389,0.626354 0.0033,1.005427 0.0625,1.449219 0.0627,0.471486 0.300768,0.871826 0.541016,1.318359 l 0.386718,0.716797 -0.0078,0.0098 v -0.01758 l -0.441406,0.550782 -0.09961,-0.207032 C 35.641978,39.697015 35.325791,39.162105 35.20508,38.763756 34.959839,37.95397 34.884768,37.484459 34.884768,37.484459 l -0.285157,-1.75 -0.671875,1.640625 c 0,0 -0.84448,2.063566 -1.708984,3.683594 h -0.002 v 0.002 c -0.293733,0.552024 -0.369185,0.658016 -0.576172,1.02539 0.130836,-0.247885 0.265622,-0.496739 0.4375,-0.865234 v -0.002 c 0.222792,-0.473118 0.761929,-1.615282 1.263672,-2.691406 0.25102,-0.538382 0.492949,-1.058531 0.68164,-1.472657 0.188692,-0.414125 0.311185,-0.683132 0.373047,-0.857421 0.147034,-0.398566 0.221683,-0.732829 0.253907,-0.857422 0.03668,-0.01347 0.06638,-0.0279 0.132812,-0.04297 0.196959,-0.04466 0.494237,-0.07562 0.808594,-0.06836 z m -6.369141,1.259765 c 0.28952,0 0.383305,0.06921 0.466797,0.167969 0.08349,0.09876 0.148933,0.277561 0.173828,0.494141 0.0038,0.03287 -0.0059,0.03699 -0.0039,0.07031 -0.0141,-0.03704 0.0073,-0.04994 -0.01758,-0.09375 l -0.0039,-0.0078 -0.0059,-0.0078 c -0.13258,-0.213234 -0.382043,-0.321363 -0.576172,-0.335937 -0.194128,-0.01457 -0.362264,0.02924 -0.529297,0.09375 -0.334065,0.129026 -0.670017,0.365344 -0.990234,0.705078 -0.442085,0.471127 -1.000115,1.391297 -1.304687,2.271484 -0.295236,0.852979 -0.380826,1.695101 -0.337891,2.369141 0.02147,0.33702 0.07302,0.630282 0.164062,0.882812 0.09105,0.25253 0.199319,0.542527 0.595704,0.644531 0.247669,0.0636 0.472908,-0.03868 0.603515,-0.136718 0.131411,-0.09864 0.220753,-0.209553 0.306641,-0.330078 0.171776,-0.24105 0.322496,-0.532774 0.470703,-0.851563 0.296415,-0.637577 0.572061,-1.377259 0.736328,-1.759766 0.123057,-0.285492 0.388622,-0.974158 0.613281,-1.662109 0.105146,-0.321977 0.194857,-0.634302 0.259766,-0.914062 l 0.916016,0.265625 c 0,0 7.57e-4,0.0053 -0.0098,0.02539 -0.0053,0.01004 -0.01119,0.02736 -0.05078,0.07031 -0.03959,0.04295 -0.140579,0.144531 -0.339844,0.144531 6.26e-4,0 0.07296,-0.004 0.101562,-0.0098 0.0286,-0.0058 0.05217,-0.01231 0.07227,-0.01953 0.04018,-0.01445 0.06567,-0.02926 0.08594,-0.04102 0.04053,-0.02351 0.06028,-0.03778 0.07422,-0.04883 0.02788,-0.0221 0.03564,-0.03109 0.04297,-0.03711 0.01466,-0.01203 0.01555,-0.01274 0.01758,-0.01367 0.0041,-0.0019 0.0093,-0.02742 0.160156,0.02539 h 0.002 c 0.131473,0.04521 0.08452,0.03192 0.06641,0.0059 -5.4e-5,-7.8e-5 5.4e-5,0.002 0,0.002 -0.0025,-4.5e-4 -0.0044,0.01048 -0.0059,0.05859 5e-5,-0.01307 -4.83e-4,-0.02449 0,-0.0293 0.0013,-0.01253 0.0031,-0.01679 0.0039,-0.02148 -0.0024,0.01013 -0.0074,0.0251 -0.01367,0.04883 -0.01511,0.05677 -0.03822,0.142204 -0.06836,0.248047 -0.06027,0.211685 -0.145238,0.505408 -0.238281,0.835937 -0.186085,0.661059 -0.406514,1.47074 -0.539062,2.126953 v 0.002 0.0039 c -0.06527,0.340513 -0.08078,0.634125 -0.07227,0.857422 0.0043,0.111648 0.01341,0.203876 0.0293,0.289062 0.0079,0.04259 0.01689,0.08102 0.03906,0.140625 0.01108,0.0298 0.02162,0.06338 0.06445,0.125 0.01071,0.01541 0.02336,0.03321 0.04102,0.05273 0.01766,0.01952 0.06975,0.06403 0.07031,0.06445 5.59e-4,4.23e-4 0.122502,0.06815 0.123047,0.06836 5.44e-4,2.13e-4 0.183065,0.03516 0.183593,0.03516 0.288205,0 0.33992,-0.11871 0.392578,-0.169922 0.0358,-0.03481 0.05541,-0.06249 0.07813,-0.0918 -0.03809,0.06387 -0.159338,0.287621 -0.1875,0.333985 l -0.06055,0.09961 -0.04297,0.06055 c -0.10407,0.146034 -0.274416,0.360987 -0.451172,0.519531 -0.176756,0.158545 -0.347996,0.228516 -0.400391,0.228516 -0.188733,0 -0.214442,-0.03335 -0.298828,-0.177734 -0.08439,-0.144387 -0.153306,-0.41951 -0.173828,-0.716797 -0.04104,-0.594575 0.07422,-1.232422 0.07422,-1.232422 l -0.953125,-0.28125 c 0,0 -0.406164,0.990845 -0.853516,1.824219 l -0.002,0.002 c -0.186008,0.351005 -0.353997,0.641536 -0.513672,0.808593 -0.159674,0.167058 -0.270158,0.230469 -0.515625,0.230469 -0.202224,0 -0.366404,-0.0092 -0.509765,-0.134765 -0.215188,-0.19581 -0.486585,-0.650913 -0.660157,-1.181641 -0.174131,-0.532438 -0.262868,-1.139801 -0.222656,-1.625 0.081,-0.945356 0.227749,-1.562402 0.427734,-2.080078 l 0.476563,-1.232422 -1.173828,0.609375 c -0.392072,0.203575 -0.843217,0.440778 -1.302735,0.701172 l -1.111328,0.621094 0.236328,0.476562 0.0059,0.0078 c 0.225735,0.412148 0.408183,1.193191 0.365234,2.052734 -0.04292,0.858962 -0.297056,1.798159 -0.861328,2.603516 -1.155452,1.634513 -3.296223,2.629202 -5.357422,2.082031 h -0.002 c -0.132969,-0.0351 -0.541744,-0.33526 -0.742187,-0.84961 -0.200444,-0.514349 -0.249739,-1.225129 0.177734,-2.126953 0.339747,-0.715071 1.338525,-1.579113 2.371094,-2.255859 0.935623,-0.613208 1.788165,-1.030055 2.279297,-1.265625 v 0.002 c -0.656118,0.393159 -1.654368,1.02575 -2.453125,1.746094 -0.692234,0.62301 -1.116679,1.36349 -1.28125,2.048828 -0.08229,0.342669 -0.102319,0.673421 -0.03125,0.986328 0.07087,0.312033 0.256485,0.622908 0.5625,0.792969 0.519394,0.29171 1.131117,0.218924 1.765625,0.0039 0.63474,-0.215096 1.300555,-0.616369 1.863281,-1.203125 4.16e-4,-4.34e-4 0.0015,4.35e-4 0.002,0 l 0.8067,-0.841978 L 22,44.736328 c 0.7018,-1.086111 1.074921,-2.336509 0.673828,-3.730469 l -0.171875,-0.601562 0.02539,0.02734 0.332031,-0.169922 c 0.375003,-0.191951 0.766083,-0.400648 1.138672,-0.59375 l 0.002,-0.002 c 0.983888,-0.515073 1.914912,-0.998489 2.353516,-1.226563 l 0.105468,-0.05469 0.06836,-0.0957 c 0.302592,-0.4199 0.793785,-0.893434 1.30664,-1.242187 0.512856,-0.348753 1.054456,-0.558594 1.388672,-0.558594 z m 9.701172,1.361328 c 0.03182,0.114961 0.01336,0.08288 0.05273,0.212891 v 0.002 h 0.002 c 0.123841,0.404863 0.332448,0.774279 0.523437,1.138672 -0.784093,0.694538 -1.376434,1.416242 -1.634766,2.03125 -0.04673,-0.411663 -0.166612,-0.792866 -0.314453,-1.154297 0.50458,-0.713319 0.93631,-1.473006 1.371094,-2.230469 z m -10.089844,0.136719 c -0.05407,0.213173 -0.115922,0.444028 -0.201172,0.705078 -0.213045,0.652386 -0.484125,1.353563 -0.580078,1.576172 v 0.002 c -0.186147,0.433459 -0.455117,1.148554 -0.726562,1.732422 -0.0708,0.152281 -0.130182,0.238682 -0.197266,0.361328 -0.0115,-0.07907 -0.0312,-0.118186 -0.03711,-0.210937 -0.03403,-0.534265 0.03655,-1.267845 0.283203,-1.980469 0.241073,-0.696679 0.846118,-1.652372 1.089844,-1.912109 0.139304,-0.147795 0.246231,-0.193132 0.36914,-0.273438 z m 15.705078,0.224609 h 0.109375 c 1.699029,-0.01074 2.848399,0.590378 3.558594,1.361329 -0.629394,-0.557148 -1.517976,-1.037107 -2.902344,-1.191407 h -0.0039 c -0.559263,-0.06441 -1.040162,-0.03263 -1.519531,-0.002 0.258314,-0.03351 0.496352,-0.162878 0.757812,-0.167969 z m -8.08789,1.748047 0.113281,0.246094 c 0.199501,0.440077 0.342266,0.87872 0.359375,1.283203 0.0329,0.749558 -0.268757,1.240503 -0.849609,1.650391 -0.329575,0.228443 -0.677446,0.386341 -0.982422,0.490234 l -0.01172,0.0039 -0.01172,0.0039 c -0.108953,0.04344 -0.229375,0.04197 -0.341797,0.07422 0.02148,-0.0098 0.04952,-0.01747 0.07031,-0.02734 l 0.285156,-0.134766 v -0.07813 c 0.217903,-0.141921 0.452005,-0.281273 0.707031,-0.550781 0.34218,-0.361611 0.66211,-0.872683 0.66211,-1.509766 z m 2.396484,1.572266 c -0.02997,0.0871 -0.09804,0.21458 -0.115234,0.292969 -0.02661,0.121285 -0.04185,0.24019 -0.01563,0.384765 0.02622,0.144575 0.124738,0.318669 0.255859,0.41211 l 0.13086,0.09375 h 0.07813 c -0.149316,0.03407 -0.344837,0.09043 -0.367188,0.08594 h -0.002 c -0.18061,-0.03536 -0.213378,-0.06379 -0.253906,-0.173828 -0.04053,-0.110033 -0.05837,-0.398335 0.121093,-0.890625 0.01657,-0.04546 0.143246,-0.151997 0.167969,-0.205078 z m -17.115234,0.455078 c 0.113801,1.103068 -0.14896,2.079132 -0.939453,2.900391 v 0.002 l -0.0059,0.0039 c -0.443462,0.460776 -0.985424,0.782883 -1.458984,0.943359 -0.47548,0.161128 -0.872881,0.118577 -0.955078,0.07227 l -0.002,-0.002 -0.002,-0.002 c -0.01783,-0.0098 -0.0447,-0.02592 -0.07031,-0.138672 -0.02561,-0.112753 -0.02741,-0.305197 0.02734,-0.533203 0.109503,-0.456013 0.431782,-1.04505 0.978515,-1.53711 0.704842,-0.635647 1.66449,-1.253009 2.294922,-1.630859 l 0.002,-0.002 c 0.02904,-0.01716 0.09459,-0.05518 0.13086,-0.07617 z m 9.335937,0.335938 c 0.09439,0.07651 0.268091,0.218177 0.292969,0.238281 -0.0017,1.76e-4 -0.123181,0.01272 -0.242187,0.02539 -0.03267,0.0035 -0.03352,0.0043 -0.06641,0.0078 -0.0015,-0.01856 -0.003,-0.02227 -0.0039,-0.04492 -10e-4,-0.02709 0.0096,-0.0849 0.0098,-0.117187 1.42e-4,-0.03015 0.0083,-0.07518 0.0098,-0.109375 z m -0.46289,0.04297 c 0.01088,0.0021 0.174354,0.03146 0.173828,0.03125 -5.44e-4,-2.12e-4 0.119699,0.06683 0.11914,0.06641 -5.58e-4,-4.24e-4 0.04989,0.04229 0.06641,0.06055 0.01651,0.01826 0.02757,0.0351 0.03711,0.04883 0.01007,0.01449 0.0074,0.01471 0.01367,0.02539 -0.101384,0.01079 -0.214844,0.02148 -0.214844,0.02148 0,0 -0.128432,-0.16612 -0.195312,-0.253907 z m 3.136718,0.94336 c -8.73e-4,0.04619 -0.01679,0.07692 0,0.134765 0.03508,0.120822 0.136139,0.235635 0.230469,0.294922 0.195255,0.120344 0.313742,0.07379 0.421875,0.04492 -0.152505,0.02812 -0.297732,0.09188 -0.453125,0.09961 h -0.0059 -0.0059 c -0.302427,0.02268 -0.555058,-0.05226 -0.539062,-0.04102 l 0.0059,0.0039 c -0.05344,-0.03863 -0.02486,-0.01598 -0.02148,0.002 0.0034,0.01793 -0.0037,-0.01654 0.03906,-0.117187 v -0.002 c -0.02007,0.04765 0.04313,-0.06891 0.138672,-0.191407 0.04777,-0.06125 0.125347,-0.151582 0.189453,-0.228515 z M 14.917969,5.5 C 13.729942,5.5 12.657088,6.0628369 11.859375,6.8613281 11.061662,7.6598194 10.5,8.7319796 10.5,9.9199219 v 0.00195 l 0.169922,46.1621091 c 0.0012,1.186757 0.564341,2.257235 1.361328,3.054688 C 12.829121,59.93701 13.900473,60.5 15.087891,60.5 h 33.99414 c 1.188027,0 2.260881,-0.562837 3.058594,-1.361328 C 52.938338,58.340181 53.5,57.26802 53.5,56.080078 v -29.0625 c 0,-0.854999 0.0142,-1.492302 -0.318359,-2.158203 C 52.849079,24.193474 52.353999,23.745624 51.5,22.890625 L 36.076172,7.4550781 36.019531,7.4121094 C 35.26819,6.8438401 34.107686,5.5 32,5.5 Z m 0,2 H 32 c 1.274361,0 1.741373,0.6756979 2.746094,1.453125 l 15.33789,15.351562 c 0.852631,0.853699 1.214226,1.260262 1.308594,1.449219 C 51.487016,25.943004 51.5,26.162579 51.5,27.017578 v 29.0625 c 0,0.522056 -0.291855,1.160524 -0.775391,1.644531 C 50.241074,58.208617 49.603002,58.5 49.082031,58.5 h -33.99414 c -0.519581,0 -1.158701,-0.29123 -1.642578,-0.775391 -0.483878,-0.48416 -0.775391,-1.122865 -0.775391,-1.644531 v -0.002 -0.002 L 12.5,9.9199219 c 0,-0.522056 0.291855,-1.1605238 0.775391,-1.6445313 C 13.758926,7.7913831 14.396998,7.5 14.917969,7.5 Z" />
</svg>
