<?xml version="1.0" encoding="UTF-8" standalone="no"?>
<svg
   width="22"
   height="22"
   version="1.1"
   id="svg4"
   sodipodi:docname="android-package-archive.svg"
   inkscape:version="1.1.2 (0a00cf5339, 2022-02-04)"
   xmlns:inkscape="http://www.inkscape.org/namespaces/inkscape"
   xmlns:sodipodi="http://sodipodi.sourceforge.net/DTD/sodipodi-0.dtd"
   xmlns="http://www.w3.org/2000/svg"
   xmlns:svg="http://www.w3.org/2000/svg">
  <defs
     id="defs8" />
  <sodipodi:namedview
     id="namedview6"
     pagecolor="#ffffff"
     bordercolor="#666666"
     borderopacity="1.0"
     inkscape:pageshadow="2"
     inkscape:pageopacity="0.0"
     inkscape:pagecheckerboard="0"
     showgrid="false"
     inkscape:zoom="29.727273"
     inkscape:cx="10.98318"
     inkscape:cy="11"
     inkscape:window-width="1600"
     inkscape:window-height="836"
     inkscape:window-x="0"
     inkscape:window-y="0"
     inkscape:window-maximized="1"
     inkscape:current-layer="svg4" />
  <path
     id="path825"
     style="fill:#9eff4b;fill-opacity:1"
     d="M 8,7 A 1,1 0 0 0 7,8 1,1 0 0 0 8,9 1,1 0 0 0 9,8 1,1 0 0 0 8,7 Z m 6,0 a 1,1 0 0 0 -1,1 1,1 0 0 0 1,1 1,1 0 0 0 1,-1 1,1 0 0 0 -1,-1 z m -3,6 v 1 h 1 v -1 z m 0,1 h -1 v 2 h 2 V 15 H 11 Z M 3.4980469,2.9960938 A 0.5,0.5 0 0 0 3.1503906,3.8535156 l 1.859375,1.859375 A 8,8 0 0 0 3,11 v 8 H 19 V 11 A 8,8 0 0 0 17.001953,5.7207031 l 1.859375,-1.859375 A 0.5,0.5 0 0 0 18.503906,3 0.5,0.5 0 0 0 18.152344,3.1542969 L 16.292969,5.015625 A 8,8 0 0 0 11,3 8,8 0 0 0 5.7148438,5.0039062 L 3.8574219,3.1464844 A 0.5,0.5 0 0 0 3.4980469,2.9960938 Z M 10.908203,4 A 7,7 0 0 1 11,4 7,7 0 0 1 15.587891,5.7207031 7,7 0 0 1 16.291016,6.4316406 7,7 0 0 1 18,11 H 4 A 7,7 0 0 1 5.7148438,6.4179688 7,7 0 0 1 6.3574219,5.7734375 7,7 0 0 1 6.4238281,5.7128906 7,7 0 0 1 10.908203,4 Z M 4,12 h 6 v 1 h 1 v -1 h 7 v 6 H 4 Z" />
</svg>
