<?xml version="1.0" encoding="UTF-8" standalone="no"?>
<svg
   width="22"
   height="22"
   version="1.1"
   id="svg4"
   sodipodi:docname="application-vnd.ms-access.svg"
   inkscape:version="1.1.2 (0a00cf5339, 2022-02-04)"
   xmlns:inkscape="http://www.inkscape.org/namespaces/inkscape"
   xmlns:sodipodi="http://sodipodi.sourceforge.net/DTD/sodipodi-0.dtd"
   xmlns="http://www.w3.org/2000/svg"
   xmlns:svg="http://www.w3.org/2000/svg">
  <defs
     id="defs8" />
  <sodipodi:namedview
     id="namedview6"
     pagecolor="#ffffff"
     bordercolor="#666666"
     borderopacity="1.0"
     inkscape:pageshadow="2"
     inkscape:pageopacity="0.0"
     inkscape:pagecheckerboard="0"
     showgrid="false"
     inkscape:zoom="29.727273"
     inkscape:cx="10.98318"
     inkscape:cy="11"
     inkscape:window-width="1600"
     inkscape:window-height="836"
     inkscape:window-x="0"
     inkscape:window-y="0"
     inkscape:window-maximized="1"
     inkscape:current-layer="svg4" />
  <path
     id="path2"
     d="M 11 3 C 6.582 3 3 4.1949688 3 5.6679688 L 3 16.332031 C 3 17.805031 6.582 19 11 19 C 15.418 19 19 17.805031 19 16.332031 L 19 5.6679688 C 19 4.1949688 15.418 3 11 3 z M 10.976562 3.984375 C 14.658563 3.984375 17.667969 4.9309688 17.667969 5.6679688 C 17.667969 6.4039687 14.682 7 11 7 C 7.318 7 4.3320313 6.4039688 4.3320312 5.6679688 C 4.3320312 4.9309687 7.2945635 4.0078125 10.976562 4.0078125 L 10.976562 3.984375 z M 4.0546875 6.9960938 C 5.5326875 7.7420938 8.291563 8.2392344 10.976562 8.2402344 C 13.659562 8.2402344 16.536578 7.8602344 18.017578 7.1152344 L 18.017578 10.976562 C 18.017578 11.712563 14.658564 12.542969 10.976562 12.542969 C 7.294563 12.542969 4.0546875 11.595375 4.0546875 10.859375 L 4.0546875 6.9960938 z M 4.0546875 12.376953 C 5.5326875 13.122953 8.316 13.666016 11 13.666016 C 13.683 13.666016 16.559063 13.216703 18.039062 12.470703 L 18.039062 16.332031 C 18.039062 17.068031 14.635125 17.96875 10.953125 17.96875 C 7.271125 17.96875 4.0527344 16.975281 4.0527344 16.238281 L 4.0546875 12.376953 z "
     style="fill:#ff2135;fill-opacity:1" />
</svg>
