<?xml version="1.0" encoding="UTF-8" standalone="no"?>
<svg
   version="1.1"
   viewBox="0 0 22 22"
   id="svg6"
   sodipodi:docname="application-x-audacity-project.svg"
   inkscape:version="1.1.2 (0a00cf5339, 2022-02-04)"
   xmlns:inkscape="http://www.inkscape.org/namespaces/inkscape"
   xmlns:sodipodi="http://sodipodi.sourceforge.net/DTD/sodipodi-0.dtd"
   xmlns="http://www.w3.org/2000/svg"
   xmlns:svg="http://www.w3.org/2000/svg">
  <defs
     id="defs10" />
  <sodipodi:namedview
     id="namedview8"
     pagecolor="#ffffff"
     bordercolor="#666666"
     borderopacity="1.0"
     inkscape:pageshadow="2"
     inkscape:pageopacity="0.0"
     inkscape:pagecheckerboard="0"
     showgrid="false"
     inkscape:zoom="29.727273"
     inkscape:cx="10.98318"
     inkscape:cy="11"
     inkscape:window-width="1600"
     inkscape:window-height="836"
     inkscape:window-x="0"
     inkscape:window-y="0"
     inkscape:window-maximized="1"
     inkscape:current-layer="svg6" />
  <path
     id="path2"
     style="fill:#0b78ff;fill-opacity:1"
     d="M 10.992188 2.5 A 8.242 8.242 0 0 0 8.4160156 2.9140625 C 5.8490156 3.7510625 3.9696719 5.793625 3.2636719 8.515625 C 3.0006719 9.522625 2.996 9.6171563 3 12.535156 C 3.004 14.980156 3.0090302 15.189922 3.0820312 15.544922 C 3.3420312 16.804922 4.1791875 17.79425 5.3671875 18.28125 C 5.4951875 18.33325 5.6266719 18.386734 5.7636719 18.427734 C 5.8156719 18.442734 5.8776875 18.451656 5.9296875 18.472656 C 6.0446875 18.518656 6.1424531 18.582047 6.1894531 18.623047 C 6.2194531 18.649047 6.2541094 18.661781 6.2871094 18.675781 C 6.2951094 18.705781 6.3061719 18.733953 6.3261719 18.751953 C 6.4101719 18.829953 6.4936875 18.831656 6.5546875 18.847656 C 6.6876875 18.904656 6.8422812 18.885672 6.9882812 18.888672 L 7.0507812 18.890625 C 7.2447812 18.892625 7.4194531 18.873984 7.5644531 18.833984 C 7.7094531 18.794984 7.8352031 18.743141 7.9082031 18.619141 C 7.9432031 18.558141 7.9325469 18.553344 7.9355469 18.527344 A 1.45 1.45 0 0 0 7.9453125 18.435547 C 7.9503125 18.363547 7.9530323 18.266437 7.9570312 18.148438 C 7.9607712 18.022437 7.9624437 17.82436 7.9648438 17.65625 C 8.3686338 18.88055 8.4706394 19.150741 8.4746094 18.994141 C 8.4776094 18.888141 8.9933437 14.95625 9.0273438 14.78125 C 9.0713438 14.55625 9.1942969 14.590563 9.2792969 14.851562 C 9.3192969 14.974562 9.6212187 16.202078 9.9492188 17.580078 L 9.9472656 17.580078 C 10.322266 19.154078 10.558031 20.052047 10.582031 19.998047 C 10.603031 19.950047 10.790094 18.590563 10.996094 16.976562 C 11.466094 13.296563 11.429844 13.5085 11.589844 13.5625 C 11.683844 13.5955 11.680859 13.585264 12.255859 16.365234 C 12.515859 17.618234 12.736094 18.663453 12.746094 18.689453 C 12.775094 18.763453 12.818625 18.503273 13.015625 17.070312 C 13.328625 14.795312 13.467578 13.902469 13.517578 13.855469 C 13.602578 13.776469 13.679078 13.904906 13.830078 14.378906 L 13.958984 14.777344 C 13.974684 15.737974 13.993354 16.815075 13.996094 17.296875 L 14.003906 18.650391 L 14.169922 18.771484 A 0.86 0.86 0 0 0 14.464844 18.908203 L 14.46875 18.908203 L 14.472656 18.910156 L 14.482422 18.912109 A 0.644 0.644 0 0 0 14.560547 18.923828 C 14.664547 18.935828 14.806594 18.941547 14.933594 18.935547 C 15.120594 18.928547 15.280109 18.89975 15.412109 18.84375 C 15.482109 18.81375 15.546656 18.772656 15.597656 18.722656 C 15.651656 18.689656 15.704672 18.652469 15.763672 18.605469 C 15.792672 18.579469 15.958641 18.514703 16.056641 18.470703 C 16.146641 18.430703 16.258234 18.412953 16.365234 18.376953 C 16.965234 18.176953 17.361851 17.927078 17.837891 17.455078 C 18.310891 16.987078 18.564391 16.594936 18.775391 16.003906 C 19.085391 14.950906 18.980328 13.785359 18.986328 12.693359 C 18.999328 9.5083594 18.940172 9.4435625 18.701172 8.4765625 A 7.663 7.663 0 0 0 16.570312 4.7578125 A 7.805 7.805 0 0 0 13.554688 2.9296875 A 8.219 8.219 0 0 0 10.994141 2.5 L 10.992188 2.5 z M 11.148438 3.8242188 C 11.564818 3.8242188 11.971902 3.8475781 12.232422 3.8925781 C 14.227422 4.2395781 15.978969 5.5550625 16.917969 7.4140625 C 17.324969 8.2190625 17.427203 8.9007031 17.533203 9.8457031 C 17.893203 11.862703 18.066145 11.836469 16.328125 11.230469 A 6.259 6.259 0 0 1 15.730469 11.011719 L 15.582031 10.896484 C 15.360031 10.724484 15.028844 10.69175 14.714844 10.71875 C 14.556844 10.73175 14.403484 10.763406 14.271484 10.816406 C 14.139484 10.868406 14.022031 10.9405 13.957031 11.0625 C 13.929031 11.1125 13.934641 11.130109 13.931641 11.162109 A 1.618 1.618 0 0 0 13.921875 11.285156 C 13.916875 11.385156 13.914062 11.527656 13.914062 11.722656 C 13.914062 11.886466 13.922561 12.272128 13.925781 12.517578 L 13.683594 11.78125 C 13.481594 11.16525 13.370703 10.893172 13.345703 10.951172 C 13.324703 10.998172 13.235484 11.628553 13.146484 12.351562 C 12.969484 13.787562 12.841828 14.700125 12.798828 14.828125 C 12.782828 14.874125 12.738172 14.910156 12.701172 14.910156 C 12.566172 14.910156 12.516719 14.737895 11.886719 12.046875 C 11.658719 11.078875 11.44325 10.169344 11.40625 10.027344 L 11.339844 9.7695312 L 11.269531 10.332031 C 11.057531 12.037031 10.514703 15.841641 10.470703 15.931641 C 10.409703 16.057641 10.333578 16.067078 10.267578 15.955078 C 10.197578 15.838078 9.6408425 13.713469 9.2578125 12.105469 C 9.0778125 11.350469 8.9145312 10.732422 8.8945312 10.732422 C 8.8755312 10.732422 8.8422187 10.927969 8.8242188 11.167969 C 8.7642187 11.920969 8.4214687 15.104578 8.3554688 15.517578 C 8.2924687 15.918578 8.2133281 16.025469 8.1113281 15.855469 C 8.0999171 15.836069 8.0298405 15.609833 7.9921875 15.501953 C 8.0002575 14.826383 8.003098 14.297141 8.015625 13.619141 C 8.040625 12.284141 8.0584834 11.668984 8.0214844 11.333984 C 8.0024844 11.166984 7.9668105 11.050703 7.8828125 10.970703 C 7.7988145 10.890703 7.7109063 10.873844 7.6289062 10.839844 C 7.3899063 10.742844 7.0730625 10.736438 6.7890625 10.773438 A 1.567 1.567 0 0 0 6.40625 10.867188 A 0.46 0.46 0 0 0 6.1855469 11.017578 A 3.964 3.964 0 0 1 5.7363281 11.189453 C 3.9603281 12.129453 4.0321719 11.641631 4.4511719 9.8066406 C 4.9311719 6.4656406 6.8507656 4.3755781 10.009766 3.8925781 C 10.306766 3.8475781 10.732038 3.8242187 11.148438 3.8242188 z " />
</svg>
