<?xml version="1.0" encoding="UTF-8" standalone="no"?>
<svg
   version="1.1"
   viewBox="0 0 22 22"
   id="svg4"
   sodipodi:docname="application-vnd.apple.pkpass.svg"
   inkscape:version="1.1.2 (0a00cf5339, 2022-02-04)"
   xmlns:inkscape="http://www.inkscape.org/namespaces/inkscape"
   xmlns:sodipodi="http://sodipodi.sourceforge.net/DTD/sodipodi-0.dtd"
   xmlns="http://www.w3.org/2000/svg"
   xmlns:svg="http://www.w3.org/2000/svg">
  <defs
     id="defs8" />
  <sodipodi:namedview
     id="namedview6"
     pagecolor="#ffffff"
     bordercolor="#666666"
     borderopacity="1.0"
     inkscape:pageshadow="2"
     inkscape:pageopacity="0.0"
     inkscape:pagecheckerboard="0"
     showgrid="false"
     inkscape:zoom="29.727273"
     inkscape:cx="10.98318"
     inkscape:cy="11"
     inkscape:window-width="1600"
     inkscape:window-height="836"
     inkscape:window-x="0"
     inkscape:window-y="0"
     inkscape:window-maximized="1"
     inkscape:current-layer="svg4" />
  <path
     id="path2"
     d="M 3 3 L 3 7 L 2 7 L 2 18 C 2 18.554 2.446 19 3 19 L 20 19 L 20 8 C 20 7.446 19.554 7 19 7 L 14 7 L 14 3 L 3 3 z M 4 4 L 13 4 L 13 7 L 10.492188 7 C 10.021706 6.37268 9.2842 6.00245 8.5 6 C 7.71379 6.0006144 6.9736531 6.37103 6.5019531 7 L 4 7 L 4 4 z M 3 8 L 19 8 L 19 11 L 12 11 C 10.892 11 10 11.892 10 13 C 10 14.108 10.892 15 12 15 L 19 15 L 19 18 L 3 18 L 3 8 z M 13 12 C 13.55228 12 14 12.44772 14 13 C 14 13.55228 13.55228 14 13 14 C 12.44772 14 12 13.55228 12 13 C 12 12.44772 12.44772 12 13 12 z "
     style="fill:#59daff;fill-opacity:1" />
</svg>
