<?xml version="1.0" encoding="UTF-8" standalone="no"?>
<svg
   width="22"
   height="22"
   version="1.1"
   id="svg10"
   sodipodi:docname="application-dicom.svg"
   inkscape:version="1.1.2 (0a00cf5339, 2022-02-04)"
   xmlns:inkscape="http://www.inkscape.org/namespaces/inkscape"
   xmlns:sodipodi="http://sodipodi.sourceforge.net/DTD/sodipodi-0.dtd"
   xmlns="http://www.w3.org/2000/svg"
   xmlns:svg="http://www.w3.org/2000/svg">
  <defs
     id="defs14" />
  <sodipodi:namedview
     id="namedview12"
     pagecolor="#ffffff"
     bordercolor="#666666"
     borderopacity="1.0"
     inkscape:pageshadow="2"
     inkscape:pageopacity="0.0"
     inkscape:pagecheckerboard="0"
     showgrid="false"
     inkscape:zoom="29.727273"
     inkscape:cx="10.98318"
     inkscape:cy="11"
     inkscape:window-width="1600"
     inkscape:window-height="836"
     inkscape:window-x="0"
     inkscape:window-y="0"
     inkscape:window-maximized="1"
     inkscape:current-layer="svg10" />
  <path
     id="path6"
     style="fill:#003db6;fill-opacity:1"
     d="m 15.935,11.33 c -0.6,0 -1.101,-0.426 -1.224,-0.993 a 2.465,2.465 0 0 0 2.13,-2.447 0.29,0.29 0 0 0 -0.29,-0.292 0.29,0.29 0 0 0 -0.288,0.292 1.88,1.88 0 0 1 -1.87,1.885 c -0.507,0 -0.981,-0.2 -1.336,-0.566 A 0.287,0.287 0 0 0 12.648,9.205 0.293,0.293 0 0 0 12.644,9.618 c 0.401,0.412 0.92,0.664 1.48,0.726 a 1.84,1.84 0 0 0 1.811,1.57 c 0.16,0 0.29,-0.13 0.29,-0.292 a 0.29,0.29 0 0 0 -0.29,-0.291 z m -0.925,3.422 c -0.112,0 -0.221,0.008 -0.329,0.022 v -0.042 c 0,-1.36 -1.097,-2.468 -2.447,-2.468 a 0.29,0.29 0 0 0 -0.29,0.291 c 0,0.161 0.13,0.292 0.29,0.292 a 1.88,1.88 0 0 1 1.859,2.085 2.472,2.472 0 0 0 -1.532,2.288 c 0,0.161 0.13,0.292 0.29,0.292 0.159,0 0.288,-0.13 0.288,-0.292 a 1.88,1.88 0 0 1 1.87,-1.885 c 0.16,0 0.29,-0.13 0.29,-0.292 a 0.29,0.29 0 0 0 -0.29,-0.291 z M 7.906,10.648 a 1.258,1.258 0 0 1 -1.224,0.993 0.29,0.29 0 0 0 -0.29,0.292 c 0,0.161 0.13,0.292 0.29,0.292 A 1.84,1.84 0 0 0 8.492,10.655 2.418,2.418 0 0 0 9.972,9.928 0.294,0.294 0 0 0 9.969,9.516 0.288,0.288 0 0 0 9.56,9.52 1.848,1.848 0 0 1 8.224,10.086 1.88,1.88 0 0 1 6.354,8.201 0.29,0.29 0 0 0 6.065,7.909 0.29,0.29 0 0 0 5.776,8.201 c 0,1.252 0.93,2.289 2.13,2.447 z M 9.13,13.177 A 0.29,0.29 0 0 0 8.84,12.886 c -1.349,0 -2.447,1.107 -2.447,2.468 v 0.042 a 2.444,2.444 0 0 0 -0.328,-0.022 0.29,0.29 0 0 0 -0.29,0.291 c 0,0.161 0.13,0.292 0.29,0.292 a 1.88,1.88 0 0 1 1.87,1.885 c 0,0.161 0.13,0.292 0.29,0.292 0.159,0 0.288,-0.13 0.288,-0.292 a 2.472,2.472 0 0 0 -1.532,-2.288 1.88,1.88 0 0 1 1.86,-2.085 c 0.16,0 0.289,-0.13 0.289,-0.292 z M 9.765625,2 c -0.912,0 -2.0995,0.5195781 -3.1875,1.3925781 A 1.85,1.85 0 0 0 5.5976562,5.7773438 2.467,2.467 0 0 0 3.7285156,8.9335938 2.472,2.472 0 0 0 3,10.689453 c 0,0.519 0.1596406,1.001391 0.4316406,1.400391 A 2.457,2.457 0 0 0 3,13.488281 c 0,0.898 0.4849063,1.720297 1.2539062,2.154297 A 2.78,2.78 0 0 0 6.1542969,18.623047 2.745,2.745 0 0 0 8.53125,20 c 1.08,0 2.014797,-0.630969 2.466797,-1.542969 A 2.757,2.757 0 0 0 13.466797,20 c 0.985,0 1.885859,-0.525906 2.380859,-1.378906 A 2.78,2.78 0 0 0 17.746094,15.642578 2.475,2.475 0 0 0 19,13.488281 c 0,-0.507 -0.149641,-0.98839 -0.431641,-1.40039 C 18.840359,11.689891 19,11.208453 19,10.689453 c 0,-0.664 -0.263516,-1.2928593 -0.728516,-1.7558592 a 2.467,2.467 0 0 0 -1.86914,-3.15625 1.856,1.856 0 0 0 -0.980469,-2.3847657 C 14.334875,2.5195781 13.146375,2 12.234375,2 11.727375,2 11.277,2.2507188 11,2.6367188 A 1.518,1.518 0 0 0 9.765625,2 Z m 2.46875,0.5820312 c 0.58,0 1.304969,0.2588907 2.042969,0.7128907 a 1.848,1.848 0 0 0 -1.22461,0.9902343 0.293,0.293 0 0 0 0.134766,0.390625 c 0.143,0.07 0.314766,0.00728 0.384766,-0.1367187 a 1.244,1.244 0 0 1 1.623046,-0.609375 1.266,1.266 0 0 1 0.582032,1.8085937 2.463,2.463 0 0 0 -2.291016,2.4628907 c 0,0.161 0.130063,0.2910156 0.289063,0.2910156 0.16,0 0.289062,-0.1300156 0.289062,-0.2910156 a 1.88,1.88 0 0 1 1.871094,-1.8847657 1.88,1.88 0 0 1 1.869141,1.8847657 c 0,0.243 -0.04472,0.4790312 -0.136719,0.7070312 A 0.293,0.293 0 0 0 17.75,9.2421875 c 0.427,0.36 0.671875,0.8872655 0.671875,1.4472655 a 1.88,1.88 0 0 1 -1.869141,1.884766 0.29,0.29 0 0 0 -0.291015,0.291015 c 0,0.161 0.131015,0.292969 0.291015,0.292969 0.619,0 1.185188,-0.234187 1.617188,-0.617187 a 1.888,1.888 0 0 1 -0.859375,2.669922 0.292,0.292 0 0 0 -0.166016,0.324218 2.195,2.195 0 0 1 -1.568359,2.560547 0.29,0.29 0 0 0 -0.179688,0.144531 2.172,2.172 0 0 1 -1.929687,1.177735 2.19,2.19 0 0 1 -2.177735,-2.197266 c 0,-0.082 -0.0038,-0.16414 -0.0098,-0.244141 a 0.287,0.287 0 0 0 0.0098,-0.07812 V 7.2675781 a 0.95,0.95 0 0 1 0.945313,-0.953125 c 0.16,0 0.289062,-0.1300156 0.289063,-0.2910156 A 0.29,0.29 0 0 0 12.232422,5.7324219 c -0.356,0 -0.683358,0.1240312 -0.94336,0.3320312 V 3.5351562 a 0.95,0.95 0 0 1 0.945313,-0.953125 z m -2.46875,0.00195 a 0.95,0.95 0 0 1 0.945313,0.9511718 V 7.3085938 A 1.507,1.507 0 0 0 9.765625,6.9765625 0.29,0.29 0 0 0 9.4765625,7.2675781 c 0,0.16 0.1310156,0.2910157 0.2910156,0.2910157 a 0.95,0.95 0 0 1 0.9433599,0.953125 V 15.519531 A 2.751,2.751 0 0 0 9.2480469,14.537109 0.29207215,0.29207215 0 0 0 9.0976562,15.101562 2.195,2.195 0 0 1 10.710938,17.220703 2.19,2.19 0 0 1 8.53125,19.417969 c -0.81,0 -1.5487344,-0.451735 -1.9277344,-1.177735 A 0.29,0.29 0 0 0 6.4238281,18.095703 2.195,2.195 0 0 1 4.8554688,15.535156 0.292,0.292 0 0 0 4.6894531,15.210938 1.888,1.888 0 0 1 3.8300781,12.541016 c 0.432,0.383 0.9981875,0.617187 1.6171875,0.617187 0.16,0 0.2910156,-0.130969 0.2910156,-0.292969 A 0.29,0.29 0 0 0 5.4472656,12.574219 1.88,1.88 0 0 1 3.578125,10.689453 c 0,-0.56 0.244875,-1.0872655 0.671875,-1.4472655 A 0.293,0.293 0 0 0 4.3320312,8.9082031 1.886,1.886 0 0 1 4.1953125,8.2011719 1.88,1.88 0 0 1 6.0644531,6.3144531 1.88,1.88 0 0 1 7.9355469,8.2011719 c 0,0.16 0.1300625,0.2910156 0.2890625,0.2910156 0.16,0 0.2890625,-0.1300156 0.2890625,-0.2910156 A 2.463,2.463 0 0 0 6.2226562,5.7382812 1.266,1.266 0 0 1 6.8554688,3.9101562 1.244,1.244 0 0 1 8.4277344,4.5390625 c 0.07,0.144 0.2407656,0.2057656 0.3847656,0.1347656 A 0.293,0.293 0 0 0 8.9472656,4.2832031 1.848,1.848 0 0 0 7.7226562,3.2949219 c 0.738,-0.453 1.4629688,-0.7109375 2.0429688,-0.7109375 z" />
</svg>
