<?xml version="1.0" encoding="UTF-8" standalone="no"?>
<svg
   width="22"
   height="22"
   version="1.1"
   id="svg4"
   sodipodi:docname="application-vnd.ms-infopath.svg"
   inkscape:version="1.1.2 (0a00cf5339, 2022-02-04)"
   xmlns:inkscape="http://www.inkscape.org/namespaces/inkscape"
   xmlns:sodipodi="http://sodipodi.sourceforge.net/DTD/sodipodi-0.dtd"
   xmlns="http://www.w3.org/2000/svg"
   xmlns:svg="http://www.w3.org/2000/svg">
  <defs
     id="defs8" />
  <sodipodi:namedview
     id="namedview6"
     pagecolor="#ffffff"
     bordercolor="#666666"
     borderopacity="1.0"
     inkscape:pageshadow="2"
     inkscape:pageopacity="0.0"
     inkscape:pagecheckerboard="0"
     showgrid="false"
     inkscape:zoom="14.863636"
     inkscape:cx="11"
     inkscape:cy="11"
     inkscape:window-width="1056"
     inkscape:window-height="545"
     inkscape:window-x="327"
     inkscape:window-y="125"
     inkscape:window-maximized="0"
     inkscape:current-layer="svg4" />
  <path
     id="path2"
     style="block-progression:tb;isolation:auto;mix-blend-mode:normal;text-decoration-color:#000;text-decoration-line:none;text-decoration-style:solid;text-indent:0;text-transform:none;white-space:normal;fill:#fe44db;fill-opacity:1"
     d="M 14 2 L 10 6 L 12 6 L 12 7 L 6 7 L 6 16 L 4 16 L 8 20 L 12 16 L 10 16 L 10 15 L 16 15 L 16 6 L 18 6 L 14 2 z M 14 3.4140625 L 15.585938 5 L 15 5 L 15 14 L 10 14 L 10 13 L 13 13 L 13 5 L 12.414062 5 L 14 3.4140625 z M 7 8 L 12 8 L 12 9 L 9 9 L 9 17 L 9.5859375 17 L 8 18.585938 L 6.4140625 17 L 7 17 L 7 8 z M 10 10 L 12 10 L 12 12 L 10 12 L 10 10 z " />
</svg>
