<?xml version="1.0" encoding="UTF-8" standalone="no"?>
<svg
   width="22"
   height="22"
   version="1.1"
   id="svg4"
   sodipodi:docname="application-msoutlook.svg"
   inkscape:version="1.1.2 (0a00cf5339, 2022-02-04)"
   xmlns:inkscape="http://www.inkscape.org/namespaces/inkscape"
   xmlns:sodipodi="http://sodipodi.sourceforge.net/DTD/sodipodi-0.dtd"
   xmlns="http://www.w3.org/2000/svg"
   xmlns:svg="http://www.w3.org/2000/svg">
  <defs
     id="defs8" />
  <sodipodi:namedview
     id="namedview6"
     pagecolor="#ffffff"
     bordercolor="#666666"
     borderopacity="1.0"
     inkscape:pageshadow="2"
     inkscape:pageopacity="0.0"
     inkscape:pagecheckerboard="0"
     showgrid="false"
     inkscape:zoom="29.727273"
     inkscape:cx="10.98318"
     inkscape:cy="11"
     inkscape:window-width="1600"
     inkscape:window-height="836"
     inkscape:window-x="0"
     inkscape:window-y="0"
     inkscape:window-maximized="1"
     inkscape:current-layer="svg4" />
  <path
     id="path2"
     style="isolation:auto;mix-blend-mode:normal;fill:#0b78ff;fill-opacity:1"
     d="M 2 3 C 1.446 3 1 3.446 1 4 L 1 18 C 1 18.554 1.446 19 2 19 L 20 19 C 20.554 19 21 18.554 21 18 L 21 4 C 21 3.446 20.554 3 20 3 L 2 3 z M 3 4 L 19 4 L 11 11.566406 L 3 4 z M 2 4.4550781 L 8.1425781 10.318359 L 2 16.183594 L 2 4.4550781 z M 20 4.4550781 L 20 16.181641 L 13.857422 10.318359 L 20 4.4550781 z M 8.9179688 11.050781 L 11 13.044922 L 13.037109 11.113281 L 20 17.509766 L 20 18 L 2 18 L 2 17.451172 L 8.9179688 11.050781 z " />
</svg>
