<?xml version="1.0" encoding="UTF-8" standalone="no"?>
<svg
   width="22"
   height="22"
   version="1.1"
   id="svg4"
   sodipodi:docname="application-x-perl.svg"
   inkscape:version="1.1.2 (0a00cf5339, 2022-02-04)"
   xmlns:inkscape="http://www.inkscape.org/namespaces/inkscape"
   xmlns:sodipodi="http://sodipodi.sourceforge.net/DTD/sodipodi-0.dtd"
   xmlns="http://www.w3.org/2000/svg"
   xmlns:svg="http://www.w3.org/2000/svg">
  <defs
     id="defs8" />
  <sodipodi:namedview
     id="namedview6"
     pagecolor="#ffffff"
     bordercolor="#666666"
     borderopacity="1.0"
     inkscape:pageshadow="2"
     inkscape:pageopacity="0.0"
     inkscape:pagecheckerboard="0"
     showgrid="false"
     inkscape:zoom="29.727273"
     inkscape:cx="10.98318"
     inkscape:cy="11"
     inkscape:window-width="1600"
     inkscape:window-height="836"
     inkscape:window-x="0"
     inkscape:window-y="0"
     inkscape:window-maximized="1"
     inkscape:current-layer="svg4" />
  <path
     id="path2"
     d="M 13.636719 3 C 13.179719 3.004 11.954766 3.4014062 11.509766 3.6914062 C 11.363766 3.7854063 11.021047 4.2221094 10.748047 4.6621094 C 10.476047 5.1001094 9.9690469 5.6298906 9.6230469 5.8378906 C 9.2410469 6.0668906 8.7791719 6.66175 8.4511719 7.34375 C 7.8651719 8.56175 7.5741406 8.4345312 7.9941406 7.1445312 C 8.3641406 6.0025312 8.1404688 4.6668437 7.4804688 4.0898438 C 6.8594688 3.5468437 6.3073125 3.4905938 5.9453125 3.9335938 C 5.8053125 4.1045938 5.4407656 4.2441406 5.1347656 4.2441406 C 4.3827656 4.2441406 3.7445625 4.9477656 4.1015625 5.3847656 A 0.977 0.977 0 0 0 4.7675781 5.6992188 C 5.1125781 5.6992187 5.1523438 5.7894844 5.0273438 6.2714844 C 4.9463438 6.5864844 4.8342969 7.385875 4.7792969 8.046875 C 4.6912969 9.126875 4.7408125 9.3294844 5.2578125 10.021484 C 6.3018125 11.422484 7.2210313 11.937109 7.9570312 11.537109 C 8.2970312 11.352109 8.344875 11.523375 8.546875 13.734375 C 8.800875 16.508375 8.6507656 17.350266 7.7597656 18.197266 C 7.2427656 18.688266 7.2113906 18.778328 7.5253906 18.861328 C 8.6653906 19.163328 8.7301406 19.098531 8.9941406 17.394531 C 9.5241406 13.974531 9.5885937 13.640609 9.8085938 13.224609 C 9.9325937 12.988609 10.033203 12.601234 10.033203 12.365234 C 10.033203 12.065234 10.166797 11.935547 10.466797 11.935547 C 10.923797 11.935547 10.925297 11.989328 10.529297 13.986328 C 10.404297 14.617328 10.471375 14.75975 11.234375 15.46875 C 12.213375 16.37875 12.284734 16.779578 11.552734 17.267578 C 11.141734 17.542578 11.0885 17.65425 11.3125 17.78125 C 11.7305 18.01925 12.488281 17.762812 12.488281 17.382812 C 12.488281 17.129813 12.581203 17.158625 12.908203 17.515625 C 13.140203 17.769625 13.416484 17.920516 13.521484 17.853516 C 13.817484 17.667516 13.751203 17.00875 13.408203 16.71875 C 12.968203 16.34875 13.022844 16.059891 13.714844 15.087891 C 14.203844 14.401891 14.328125 14.013781 14.328125 13.175781 C 14.328125 12.103781 14.813719 10.793094 15.136719 10.996094 C 15.234719 11.057094 15.374219 11.473922 15.449219 11.919922 C 15.523219 12.365922 15.712141 12.903281 15.869141 13.113281 C 16.209141 13.569281 16.272797 16.455016 15.966797 17.541016 C 15.763797 18.261016 15.979609 18.677578 16.474609 18.517578 C 16.668609 18.454578 16.787609 16.097609 16.724609 13.599609 C 16.674609 11.675609 16.789844 9.7658906 16.964844 9.5878906 C 17.216844 9.3318906 17.421453 11.288469 17.189453 11.730469 C 17.077453 11.941469 17.048094 12.27375 17.121094 12.46875 C 17.354094 13.08575 17.99 11.553516 18 10.353516 C 18.007 9.4785156 17.899531 9.1528594 17.394531 8.5058594 C 17.057531 8.0748594 16.78125 7.6134219 16.78125 7.4824219 C 16.78125 7.3514219 16.464172 6.7438594 16.076172 6.1308594 C 15.688172 5.5188594 15.312188 4.7507813 15.242188 4.4257812 C 15.093187 3.7367812 14.259719 2.987 13.636719 3 z M 12.943359 11.722656 C 13.056625 11.729098 13.124859 12.155031 13.205078 13.027344 C 13.319078 14.263344 13.280625 14.709469 13.015625 15.230469 L 13.015625 15.232422 C 12.617625 16.014422 12.490156 16.03425 11.910156 15.40625 C 11.368156 14.81825 11.359703 14.627187 11.845703 13.992188 C 12.054703 13.719188 12.349953 13.122063 12.501953 12.664062 C 12.709141 12.037813 12.843419 11.716973 12.943359 11.722656 z "
     style="fill:#59daff;fill-opacity:1" />
</svg>
