<?xml version="1.0" encoding="UTF-8" standalone="no"?>
<svg
   width="22"
   height="22"
   version="1.1"
   id="svg4"
   sodipodi:docname="application-x-font-afm.svg"
   inkscape:version="1.1.2 (0a00cf5339, 2022-02-04)"
   xmlns:inkscape="http://www.inkscape.org/namespaces/inkscape"
   xmlns:sodipodi="http://sodipodi.sourceforge.net/DTD/sodipodi-0.dtd"
   xmlns="http://www.w3.org/2000/svg"
   xmlns:svg="http://www.w3.org/2000/svg">
  <defs
     id="defs8" />
  <sodipodi:namedview
     id="namedview6"
     pagecolor="#ffffff"
     bordercolor="#666666"
     borderopacity="1.0"
     inkscape:pageshadow="2"
     inkscape:pageopacity="0.0"
     inkscape:pagecheckerboard="0"
     showgrid="false"
     inkscape:zoom="29.727273"
     inkscape:cx="10.98318"
     inkscape:cy="11"
     inkscape:window-width="1600"
     inkscape:window-height="836"
     inkscape:window-x="0"
     inkscape:window-y="0"
     inkscape:window-maximized="1"
     inkscape:current-layer="svg4" />
  <path
     id="path827"
     d="M 12.601562 3 C 10.594562 3 8.6163594 3.5695156 7.4433594 4.2285156 L 7.7832031 6.0859375 C 9.0492031 5.4869375 10.778516 5.0683594 12.353516 5.0683594 C 14.299516 5.0683594 15.009672 5.9969219 14.763672 7.7949219 L 14.484375 9.5019531 L 13.033203 9.6816406 C 9.2962031 10.250641 5.6524062 10.820937 5.0664062 14.835938 C 4.6334063 17.712937 6.3942344 19 8.7402344 19 A 6.49 6.49 0 0 0 13.496094 16.902344 L 13.558594 18.640625 L 15.318359 18.640625 L 16.925781 7.4042969 C 17.420781 3.9902969 15.412563 3 12.601562 3 z M 14.238281 11.179688 L 13.712891 14.894531 C 12.600891 16.242531 10.592625 17.082031 9.265625 17.082031 C 7.905625 17.082031 6.9795625 16.422141 7.2265625 14.744141 C 7.5365625 12.647141 8.8334062 11.958672 12.941406 11.388672 C 12.971406 11.388672 14.238281 11.179688 14.238281 11.179688 z "
     style="fill:#013db5;fill-opacity:1" />
</svg>
