<?xml version="1.0" encoding="UTF-8" standalone="no"?>
<svg
   width="22"
   height="22"
   version="1.1"
   id="svg4"
   sodipodi:docname="application-pdf.svg"
   inkscape:version="1.1.2 (0a00cf5339, 2022-02-04)"
   xmlns:inkscape="http://www.inkscape.org/namespaces/inkscape"
   xmlns:sodipodi="http://sodipodi.sourceforge.net/DTD/sodipodi-0.dtd"
   xmlns="http://www.w3.org/2000/svg"
   xmlns:svg="http://www.w3.org/2000/svg">
  <defs
     id="defs8" />
  <sodipodi:namedview
     id="namedview6"
     pagecolor="#ffffff"
     bordercolor="#666666"
     borderopacity="1.0"
     inkscape:pageshadow="2"
     inkscape:pageopacity="0.0"
     inkscape:pagecheckerboard="0"
     showgrid="false"
     inkscape:zoom="29.727273"
     inkscape:cx="10.98318"
     inkscape:cy="11"
     inkscape:window-width="1600"
     inkscape:window-height="836"
     inkscape:window-x="0"
     inkscape:window-y="0"
     inkscape:window-maximized="1"
     inkscape:current-layer="svg4" />
  <path
     id="path2"
     d="M 5.484,3 C 5.268,3.013 5.036,3 4.781,3.176 2.507,4.155 4.032,6.838 6.931,8.881 6.948,8.497 7.108,7.658 7.104,7.29 4.631,5.595 3.185,3.944 4.761,3.29 6.422,2.6 6.938,4.483 6.967,7.216 7.122,7.376 8.194,8.088 8.357,8.201 8.297,5.709 6.972,3.165 5.699,3.021 5.631,3.007 5.556,3.007 5.484,3.007 M 7.8,7.343 7.282,7.142 6.853,7.431 6.767,8.34 7.309,8.755 7.534,9.057 c 1.667,1.106 3.088,1.959 4.958,2.663 l 1.165,0.173 h 0.768 c 0.707,-0.417 0.285,-0.577 2.855,-0.898 l -2.896,0.224 C 12.151,10.353 9.872,9.109 7.798,7.753 m 5.097,3.627 c 0.335,0 2.948,-0.226 3.987,-0.323 1.029,-0.16 2.292,-0.208 2.054,0.995 0.272,-0.642 -0.348,-1.73 -1.23,-1.923 -1.364,-0.305 -3.528,0.53 -4.306,0.788 m 1.254,0.333 c -0.406,0.16 -1.332,0.276 -1.77,0.42 0.62,0.321 3.736,1.471 5.022,1.23 0.205,0 1.074,-0.624 1.095,-1.073 -0.067,0.818 -3.875,0.209 -4.347,-0.593 m 0.847,0.015 c -0.333,-0.16 -1.895,-0.153 -2.24,-0.281 -1.958,0.684 -4.59,2.291 -6.474,3.375 l -0.545,0.16 c -0.106,0.75 -0.567,1.007 -0.988,1.492 l 0.638,0.642 0.499,-0.818 c 2.206,-1.331 6.566,-3.482 9.109,-4.514 m -9.11,4.514 c -0.27,0.16 -0.527,0.32 -0.771,0.48 -0.566,1.606 -1.225,2.687 -1.855,2.64 0.973,0.465 3.068,-1.826 3.774,-3.981 M 3.764,18.939 C 2.281,18.057 5.421,16.45 6.124,15.983 6.283,15.534 5.849,14.791 5.99,14.261 c -2.214,1.38 -3.524,3.375 -2.78,4.32 0.178,0.225 0.367,0.337 0.556,0.353 m 2.155,-3.36 C 6.024,15.161 7.392,14.221 7.639,14.077 7.97,11.471 7.986,11.214 8.267,9.188 8.099,9.028 7.064,8.221 6.904,8.109 c -0.199,2.165 -0.572,5.098 -1.1,7.058"
     style="fill:#ff2136;fill-opacity:1" />
</svg>
