<?xml version="1.0" encoding="UTF-8" standalone="no"?>
<svg
   width="22"
   height="22"
   version="1.1"
   id="svg8"
   sodipodi:docname="application-octet-stream.svg"
   inkscape:version="1.1.2 (0a00cf5339, 2022-02-04)"
   xmlns:inkscape="http://www.inkscape.org/namespaces/inkscape"
   xmlns:sodipodi="http://sodipodi.sourceforge.net/DTD/sodipodi-0.dtd"
   xmlns="http://www.w3.org/2000/svg"
   xmlns:svg="http://www.w3.org/2000/svg">
  <defs
     id="defs12" />
  <sodipodi:namedview
     id="namedview10"
     pagecolor="#ffffff"
     bordercolor="#666666"
     borderopacity="1.0"
     inkscape:pageshadow="2"
     inkscape:pageopacity="0.0"
     inkscape:pagecheckerboard="0"
     showgrid="false"
     inkscape:zoom="29.727273"
     inkscape:cx="10.98318"
     inkscape:cy="11"
     inkscape:window-width="1600"
     inkscape:window-height="836"
     inkscape:window-x="0"
     inkscape:window-y="0"
     inkscape:window-maximized="1"
     inkscape:current-layer="svg8" />
  <g
     fill="#4c566a"
     id="g6"
     style="fill:#003db6;fill-opacity:1">
    <path
       d="M 3,3 V 19 H 19 V 3 Z M 4,7 H 18 V 18 H 4 Z"
       id="path2"
       style="fill:#003db6;fill-opacity:1" />
    <path
       d="M 11,8 C 10.166,8 9.388,8.256 8.84,8.735 A 2.48,2.48 0 0 0 8,10.625 H 9.714 C 9.714,10.229 9.85,9.972 10.052,9.796 10.254,9.619 10.547,9.5 11,9.5 c 0.452,0 0.745,0.12 0.947,0.296 0.202,0.176 0.338,0.433 0.338,0.829 0,0.344 -0.076,0.49 -0.18,0.62 -0.447,0.394 -0.987,0.731 -1.422,1.054 -0.49,0.322 -0.969,0.744 -0.969,1.326 V 14 h 1.714 v -0.375 c 0.61,-0.546 1.517,-1.022 2.083,-1.522 C 13.809,11.729 14,11.219 14,10.625 A 2.48,2.48 0 0 0 13.16,8.735 C 12.612,8.255 11.833,8 11,8 Z M 9.714,15.5 V 17 h 1.714 v -1.5 z"
       id="path4"
       style="fill:#003db6;fill-opacity:1" />
  </g>
</svg>
