<?xml version="1.0" encoding="UTF-8" standalone="no"?>
<svg
   width="22"
   height="22"
   version="1.1"
   id="svg4"
   sodipodi:docname="application-x-java-archive.svg"
   inkscape:version="1.1.2 (0a00cf5339, 2022-02-04)"
   xmlns:inkscape="http://www.inkscape.org/namespaces/inkscape"
   xmlns:sodipodi="http://sodipodi.sourceforge.net/DTD/sodipodi-0.dtd"
   xmlns="http://www.w3.org/2000/svg"
   xmlns:svg="http://www.w3.org/2000/svg">
  <defs
     id="defs8" />
  <sodipodi:namedview
     id="namedview6"
     pagecolor="#ffffff"
     bordercolor="#666666"
     borderopacity="1.0"
     inkscape:pageshadow="2"
     inkscape:pageopacity="0.0"
     inkscape:pagecheckerboard="0"
     showgrid="false"
     inkscape:zoom="29.727273"
     inkscape:cx="10.98318"
     inkscape:cy="11"
     inkscape:window-width="1600"
     inkscape:window-height="836"
     inkscape:window-x="0"
     inkscape:window-y="0"
     inkscape:window-maximized="1"
     inkscape:current-layer="svg4" />
  <path
     id="path2"
     d="M 8,3 V 7 H 9 V 3 Z m 2,1 v 3 h 1 V 4 Z M 6,5 V 7 H 7 V 5 Z m 6,0 v 2 h 1 V 5 Z M 4,6 V 7 H 5 V 6 Z m 10,0 v 1 h 1 V 6 Z M 3,8 v 6 a 4,3.99 0 0 0 0,0.0098 A 4,3.99 0 0 0 7,18 H 4 v 1 h 11 v -1 h -3 a 4,3.99 0 0 0 4,-3.990234 4,3.99 0 0 0 0,-0.002 4,3.99 0 0 0 0,-0.002 4,3.99 0 0 0 0,-0.002 4,3.99 0 0 0 0,-0.002 A 4,3.99 0 0 0 16,14 h 2 c 0.554,0 1,-0.446 1,-1 V 10 C 19,9.446 18.554,9 18,9 H 16 V 8 Z m 1,1 h 11 v 5 a 3,3 0 0 1 -3,3 H 7 A 3,3 0 0 1 4,14 Z m 12,1 h 2 v 3 h -2 z"
     style="fill:#ff4509;fill-opacity:1" />
</svg>
