<?xml version="1.0" encoding="UTF-8" standalone="no"?>
<svg
   width="22"
   height="22"
   version="1.1"
   id="svg4"
   sodipodi:docname="image-png.svg"
   inkscape:version="1.1.2 (0a00cf5339, 2022-02-04)"
   xmlns:inkscape="http://www.inkscape.org/namespaces/inkscape"
   xmlns:sodipodi="http://sodipodi.sourceforge.net/DTD/sodipodi-0.dtd"
   xmlns="http://www.w3.org/2000/svg"
   xmlns:svg="http://www.w3.org/2000/svg">
  <defs
     id="defs8" />
  <sodipodi:namedview
     id="namedview6"
     pagecolor="#ffffff"
     bordercolor="#666666"
     borderopacity="1.0"
     inkscape:pageshadow="2"
     inkscape:pageopacity="0.0"
     inkscape:pagecheckerboard="0"
     showgrid="false"
     inkscape:zoom="29.727273"
     inkscape:cx="10.98318"
     inkscape:cy="11"
     inkscape:window-width="1600"
     inkscape:window-height="836"
     inkscape:window-x="0"
     inkscape:window-y="0"
     inkscape:window-maximized="1"
     inkscape:current-layer="svg4" />
  <path
     id="path2"
     style="filter-blend-mode:normal;filter-gaussianBlur-deviation:0;isolation:auto;mix-blend-mode:normal;fill:#ff43db;fill-opacity:1"
     d="M 3 5 L 3 18 L 19 18 L 19 5 L 3 5 z M 4 6 L 5.9121094 6 A 1.5 1.5 0 0 1 6 6.5 A 1.5 1.5 0 0 1 4.5 8 A 1.5 1.5 0 0 1 4 7.9121094 L 4 6 z M 6.9472656 6 L 18 6 L 18 17 L 4 17 L 4 16.216797 L 6.3261719 13.917969 L 7.734375 12.513672 L 9.3007812 13.931641 L 10.400391 15 L 14 11.601562 L 17 14.492188 L 17 13 L 14 10 L 10.400391 13.599609 L 7.8007812 11 L 4 14.800781 L 4 8.9472656 A 2.5 2.5 0 0 0 4.5 9 A 2.5 2.5 0 0 0 7 6.5 A 2.5 2.5 0 0 0 6.9472656 6 z " />
</svg>
