<?xml version="1.0" encoding="UTF-8" standalone="no"?>
<svg
   width="22"
   height="22"
   version="1.1"
   id="svg4"
   sodipodi:docname="image-gif.svg"
   inkscape:version="1.1.2 (0a00cf5339, 2022-02-04)"
   xmlns:inkscape="http://www.inkscape.org/namespaces/inkscape"
   xmlns:sodipodi="http://sodipodi.sourceforge.net/DTD/sodipodi-0.dtd"
   xmlns="http://www.w3.org/2000/svg"
   xmlns:svg="http://www.w3.org/2000/svg">
  <defs
     id="defs8" />
  <sodipodi:namedview
     id="namedview6"
     pagecolor="#ffffff"
     bordercolor="#666666"
     borderopacity="1.0"
     inkscape:pageshadow="2"
     inkscape:pageopacity="0.0"
     inkscape:pagecheckerboard="0"
     showgrid="false"
     inkscape:zoom="29.727273"
     inkscape:cx="10.98318"
     inkscape:cy="11"
     inkscape:window-width="1600"
     inkscape:window-height="836"
     inkscape:window-x="0"
     inkscape:window-y="0"
     inkscape:window-maximized="1"
     inkscape:current-layer="svg4" />
  <path
     id="path829"
     d="M 7,5 A 2,2 0 0 0 5,7 2,2 0 0 0 7,9 2,2 0 0 0 9,7 2,2 0 0 0 7,5 Z M 3,3 v 12 l -2,2 h 2 v 2 h 16 v -2 h 2 L 19,14.714844 V 3 Z m 1,1 h 14 v 9.572266 L 14,9 10,13 9.5,13.5 9,13 7,11 4,14 Z M 13.951172,10.462891 19,16 H 12 L 11,15 10.207031,14.207031 11,13.416016 v -0.002 z M 7,12.414062 l 2,2 v 0.002 L 10.583984,16 H 3.4140625 Z M 4,17 h 14 v 1 H 4 Z"
     style="fill:#4cfffb;fill-opacity:1" />
</svg>
