<?xml version="1.0" encoding="UTF-8" standalone="no"?>
<svg
   width="22"
   height="22"
   version="1.1"
   id="svg4"
   sodipodi:docname="text-x-tex.svg"
   inkscape:version="1.1.2 (0a00cf5339, 2022-02-04)"
   xmlns:inkscape="http://www.inkscape.org/namespaces/inkscape"
   xmlns:sodipodi="http://sodipodi.sourceforge.net/DTD/sodipodi-0.dtd"
   xmlns="http://www.w3.org/2000/svg"
   xmlns:svg="http://www.w3.org/2000/svg">
  <defs
     id="defs8" />
  <sodipodi:namedview
     id="namedview6"
     pagecolor="#ffffff"
     bordercolor="#666666"
     borderopacity="1.0"
     inkscape:pageshadow="2"
     inkscape:pageopacity="0.0"
     inkscape:pagecheckerboard="0"
     showgrid="false"
     inkscape:zoom="29.727273"
     inkscape:cx="10.98318"
     inkscape:cy="11"
     inkscape:window-width="1600"
     inkscape:window-height="836"
     inkscape:window-x="0"
     inkscape:window-y="0"
     inkscape:window-maximized="1"
     inkscape:current-layer="svg4" />
  <path
     id="path2"
     d="M 3,3 V 4 H 19 V 3 Z M 9,5.666 V 6.691 L 13.287,12.334 9,17.463 V 19 h 10 v -4 h -0.564 c 0,0.74 0.001,1.496 -0.649,1.94 -0.712,0.486 -1.651,0.578 -2.476,0.578 h -3.93 l 3.808,-5.184 -3.808,-5.928 h 2.238 c 1.588,0 3.848,-0.143 4.477,1.713 0.107,0.317 0.178,1.548 0.205,1.881 H 19 V 5.666 Z M 3,7 V 8 H 8 V 7 Z m 0,3 v 1 h 7 v -1 z m 0,3 v 1 h 7 v -1 z m 0,3 v 1 h 5 v -1 z"
     style="fill:#ff43dc;fill-opacity:1" />
</svg>
