<?xml version="1.0" encoding="UTF-8" standalone="no"?>
<!-- Generator: Gravit.io -->

<svg
   style="isolation:isolate"
   viewBox="0 0 48 48"
   width="48pt"
   height="48pt"
   version="1.1"
   id="svg11"
   sodipodi:docname="preferences.svg"
   inkscape:version="1.1.2 (0a00cf5339, 2022-02-04)"
   xmlns:inkscape="http://www.inkscape.org/namespaces/inkscape"
   xmlns:sodipodi="http://sodipodi.sourceforge.net/DTD/sodipodi-0.dtd"
   xmlns:xlink="http://www.w3.org/1999/xlink"
   xmlns="http://www.w3.org/2000/svg"
   xmlns:svg="http://www.w3.org/2000/svg">
  <defs
     id="defs15">
    <linearGradient
       inkscape:collect="always"
       xlink:href="#_lgradient_0"
       id="linearGradient872"
       x1="-12.025727"
       y1="6.1170783"
       x2="-0.085100174"
       y2="6.1170783"
       gradientUnits="userSpaceOnUse"
       gradientTransform="matrix(3.8358211,0,0,3.8371327,-0.00549648,-0.00264265)" />
    <linearGradient
       inkscape:collect="always"
       xlink:href="#_lgradient_0"
       id="linearGradient15-3"
       x1="-9.6850061"
       y1="45.161198"
       x2="11.98815"
       y2="21.735205"
       gradientUnits="userSpaceOnUse"
       gradientTransform="matrix(1.1147442,0,0,1.1150348,-0.01213412,-3.3277404)" />
    <linearGradient
       inkscape:collect="always"
       xlink:href="#_lgradient_0"
       id="linearGradient1018"
       x1="24"
       y1="0.5"
       x2="24"
       y2="47.5"
       gradientUnits="userSpaceOnUse" />
  </defs>
  <sodipodi:namedview
     id="namedview13"
     pagecolor="#ffffff"
     bordercolor="#666666"
     borderopacity="1.0"
     inkscape:pageshadow="2"
     inkscape:pageopacity="0.0"
     inkscape:pagecheckerboard="0"
     inkscape:document-units="pt"
     showgrid="false"
     inkscape:zoom="10.21875"
     inkscape:cx="22.752294"
     inkscape:cy="20.550459"
     inkscape:window-width="1600"
     inkscape:window-height="836"
     inkscape:window-x="0"
     inkscape:window-y="0"
     inkscape:window-maximized="1"
     inkscape:current-layer="svg11" />
  <linearGradient
     id="_lgradient_0"
     x1="0"
     y1="0.5"
     x2="1"
     y2="0.5"
     gradientTransform="matrix(0,47,-47,0,47.5,0.5)"
     gradientUnits="userSpaceOnUse">
    <stop
       offset="0%"
       stop-opacity="1"
       style="stop-color:rgb(84,51,255)"
       id="stop2" />
    <stop
       offset="51.73913043478261%"
       stop-opacity="1"
       style="stop-color:rgb(32,189,255)"
       id="stop4" />
    <stop
       offset="98.26086956521739%"
       stop-opacity="1"
       style="stop-color:rgb(165,254,203)"
       id="stop6" />
  </linearGradient>
  <rect
     x="-46.783241"
     y="1.2254127"
     width="45.802109"
     height="45.800068"
     rx="6.1837621"
     shape-rendering="crispEdges"
     id="rect5-6-7-3"
     ry="6.8055172"
     transform="matrix(0.00524062,-0.99998627,0.99998801,0.00489692,0,0)"
     style="isolation:isolate;fill:#00ffd2;fill-opacity:0.136073;stroke:url(#linearGradient872);stroke-width:2.0301;stroke-miterlimit:4;stroke-dasharray:none;stroke-opacity:1" />
  <rect
     x="-15.686565"
     y="17.260139"
     width="33.338203"
     height="33.345856"
     rx="6.7920032"
     shape-rendering="crispEdges"
     id="rect5-6-6-6-6-3"
     style="isolation:isolate;fill:#00ffd2;fill-opacity:0.133333;stroke:url(#linearGradient15-3);stroke-width:1.67233;stroke-miterlimit:4;stroke-dasharray:none;stroke-opacity:1"
     ry="7.4743071"
     transform="matrix(0.72446484,-0.68931175,0.68622417,0.72739012,0,0)" />
  <path
     style="color:#000000;fill:url(#linearGradient1018);fill-rule:evenodd;-inkscape-stroke:none"
     d="m 28.273437,13.886719 c -1.635688,0 -3.027424,0.878156 -3.886718,2.136718 h -11.06836 c -1.451525,0 -2.636718,1.183241 -2.636718,2.634766 0,1.452298 1.185475,2.636719 2.636718,2.636719 h 11.06836 c 0.859337,1.259345 2.251225,2.136719 3.886718,2.136719 1.634672,0 3.024692,-0.877585 3.884766,-2.136719 h 2.523438 c 1.451243,0 2.636718,-1.184421 2.636718,-2.636719 0,-1.451525 -1.185193,-2.634766 -2.636718,-2.634766 h -2.523438 c -0.860031,-1.258351 -2.249898,-2.136718 -3.884766,-2.136718 z m 0,1 c 1.399679,0 2.615094,0.759217 3.267579,1.886718 l 0.144531,0.25 h 0.289062 2.707032 c 0.914472,0 1.636718,0.720293 1.636718,1.634766 0,0.9157 -0.721964,1.636719 -1.636718,1.636719 h -2.996094 l -0.144531,0.25 c -0.652475,1.128366 -1.867689,1.886719 -3.267579,1.886719 -1.401004,0 -2.616139,-0.758619 -3.267578,-1.886719 l -0.144531,-0.25 H 13.318359 c -0.914754,0 -1.636718,-0.721019 -1.636718,-1.636719 0,-0.914473 0.722246,-1.634766 1.636718,-1.634766 h 11.542969 l 0.144531,-0.25 c 0.651448,-1.127234 1.866785,-1.886718 3.267578,-1.886718 z m -8.546875,9.68164 c -1.634671,0 -3.024691,0.877585 -3.884765,2.136719 h -2.523438 c -1.451243,0 -2.636718,1.184421 -2.636718,2.636719 0,1.451525 1.185193,2.634766 2.636718,2.634765 h 2.523438 c 0.860031,1.258352 2.249898,2.136719 3.884765,2.136719 1.635689,0 3.027425,-0.878156 3.886719,-2.136719 h 11.06836 c 1.451525,10e-7 2.636718,-1.18324 2.636718,-2.634765 0,-1.452298 -1.185475,-2.636719 -2.636718,-2.636719 h -11.06836 c -0.859337,-1.259345 -2.251225,-2.136719 -3.886719,-2.136719 z m 0,1 c 1.401005,0 2.61614,0.758619 3.267579,1.886719 l 0.144531,0.25 h 11.542969 c 0.914754,0 1.636718,0.721019 1.636718,1.636719 0,0.914473 -0.722246,1.634766 -1.636718,1.634765 H 23.138672 l -0.144531,0.25 c -0.651448,1.127235 -1.866785,1.886719 -3.267579,1.886719 -1.399678,0 -2.615093,-0.759217 -3.267578,-1.886719 l -0.144531,-0.25 h -2.996094 c -0.914472,0 -1.636718,-0.720292 -1.636718,-1.634765 0,-0.9157 0.721964,-1.636719 1.636718,-1.636719 h 2.996094 l 0.144531,-0.25 c 0.652475,-1.128366 1.867689,-1.886719 3.267578,-1.886719 z"
     id="path9" />
</svg>
