<?xml version="1.0" encoding="UTF-8" standalone="no"?>
<!-- Generator: Gravit.io -->

<svg
   style="isolation:isolate"
   viewBox="0 0 48 48"
   width="48pt"
   height="48pt"
   version="1.1"
   id="svg9"
   sodipodi:docname="preferences-system-windows.svg"
   inkscape:version="1.1.2 (0a00cf5339, 2022-02-04)"
   xmlns:inkscape="http://www.inkscape.org/namespaces/inkscape"
   xmlns:sodipodi="http://sodipodi.sourceforge.net/DTD/sodipodi-0.dtd"
   xmlns:xlink="http://www.w3.org/1999/xlink"
   xmlns="http://www.w3.org/2000/svg"
   xmlns:svg="http://www.w3.org/2000/svg">
  <defs
     id="defs13">
    <linearGradient
       inkscape:collect="always"
       xlink:href="#_lgradient_7"
       id="linearGradient872"
       x1="-12.025727"
       y1="6.1170783"
       x2="-0.085100174"
       y2="6.1170783"
       gradientUnits="userSpaceOnUse"
       gradientTransform="matrix(3.8358211,0,0,3.8371327,-0.00549648,-0.00264265)" />
    <linearGradient
       inkscape:collect="always"
       xlink:href="#_lgradient_7"
       id="linearGradient15-3"
       x1="-9.6850061"
       y1="45.161198"
       x2="11.98815"
       y2="21.735205"
       gradientUnits="userSpaceOnUse"
       gradientTransform="matrix(1.1147442,0,0,1.1150348,-0.01213412,-3.3277404)" />
    <linearGradient
       inkscape:collect="always"
       xlink:href="#_lgradient_7"
       id="linearGradient953"
       x1="12.699516"
       y1="24"
       x2="35.300484"
       y2="24"
       gradientUnits="userSpaceOnUse"
       gradientTransform="matrix(0.96267584,0,0,0.96267584,0.89577979,0.89577979)" />
  </defs>
  <sodipodi:namedview
     id="namedview11"
     pagecolor="#ffffff"
     bordercolor="#666666"
     borderopacity="1.0"
     inkscape:pageshadow="2"
     inkscape:pageopacity="0.0"
     inkscape:pagecheckerboard="0"
     inkscape:document-units="pt"
     showgrid="false"
     inkscape:zoom="10.21875"
     inkscape:cx="31.95107"
     inkscape:cy="32"
     inkscape:window-width="1600"
     inkscape:window-height="836"
     inkscape:window-x="0"
     inkscape:window-y="0"
     inkscape:window-maximized="1"
     inkscape:current-layer="svg9" />
  <linearGradient
     id="_lgradient_7"
     x1="-0.02777777777777779"
     y1="0.9611111111111112"
     x2="1.0004916420845622"
     y2="0.4918387413962636"
     gradientTransform="matrix(22.600969,0,0,22.600969,12.699516,12.699516)"
     gradientUnits="userSpaceOnUse">
    <stop
       offset="0%"
       stop-opacity="1"
       style="stop-color:rgb(175,104,229)"
       id="stop2" />
    <stop
       offset="98.26086956521739%"
       stop-opacity="1"
       style="stop-color:rgb(250,172,128)"
       id="stop4" />
  </linearGradient>
  <rect
     x="-46.783241"
     y="1.2254127"
     width="45.802109"
     height="45.800068"
     rx="6.1837621"
     shape-rendering="crispEdges"
     id="rect5-6-7-3"
     ry="6.8055172"
     transform="matrix(0.00524062,-0.99998627,0.99998801,0.00489692,0,0)"
     style="isolation:isolate;fill:#ff6200;fill-opacity:0.13470298;stroke:url(#linearGradient872);stroke-width:2.0301;stroke-miterlimit:4;stroke-dasharray:none;stroke-opacity:1" />
  <rect
     x="-15.686565"
     y="17.260139"
     width="33.338203"
     height="33.345856"
     rx="6.7920032"
     shape-rendering="crispEdges"
     id="rect5-6-6-6-6-3"
     style="isolation:isolate;fill:#ff6200;fill-opacity:0.13470298;stroke:url(#linearGradient15-3);stroke-width:1.67233;stroke-miterlimit:4;stroke-dasharray:none;stroke-opacity:1"
     ry="7.4743071"
     transform="matrix(0.72446484,-0.68931175,0.68622417,0.72739012,0,0)" />
  <path
     style="color:#000000;fill:url(#linearGradient953);fill-rule:evenodd;-inkscape-stroke:none"
     d="m 14.638672,12.621094 c -1.10853,0 -2.017578,0.909048 -2.017578,2.017578 V 24 c 0,0.689301 0.569908,1.259766 1.259765,1.259766 0.689687,0 1.257813,-0.57008 1.257813,-1.259766 v -8.855469 c 0,-0.0096 -0.0037,-0.0059 0.0059,-0.0059 h 15.28711 c -0.368513,0.267673 -0.646485,0.639342 -0.646485,1.125 0,0.336863 0.167124,0.618291 0.361328,0.867187 H 17.421875 c -0.689301,0 -1.257812,0.568511 -1.257813,1.257813 10e-7,0.689474 0.568513,1.259765 1.257813,1.259765 h 15.179687 0.259766 0.5 0.5 v -0.105468 c 0.275769,-0.04356 0.572102,-0.05756 0.796875,-0.169922 0.365741,-0.18283 0.720703,-0.504307 0.720703,-0.984375 v -3.75 c 0,-1.10853 -0.909048,-2.017578 -2.017578,-2.017578 z m 0,1 h 18.722656 c 0.567273,0 1.017578,0.450305 1.017578,1.017578 v 3.75 c 0,-0.06087 0.01591,-0.0021 -0.167969,0.08984 -0.07568,0.03783 -0.236208,0.04173 -0.349609,0.07031 v -0.160156 -1.257813 -1.986328 c 0,-0.549357 -0.456502,-1.005859 -1.005859,-1.005859 H 15.144531 c -0.549357,0 -1.005859,0.456502 -1.005859,1.005859 V 24 c 0,0.147731 -0.110082,0.259766 -0.257813,0.259766 -0.148526,0 -0.259765,-0.11165 -0.259765,-0.259766 v -9.361328 c 0,-0.567273 0.450305,-1.017578 1.017578,-1.017578 z m 17.433594,1.517578 h 0.783203 c 0.0096,0 0.0059,-0.0037 0.0059,0.0059 v 1.986328 h -0.259766 -0.24414 c 0.194204,-0.248896 0.361328,-0.530324 0.361328,-0.867187 0,-0.485658 -0.277971,-0.857327 -0.646484,-1.125 z m -0.820313,0.658203 c 0.263249,0 0.466797,0.203548 0.466797,0.466797 0,0.26325 -0.203548,0.466797 -0.466797,0.466797 -0.26325,0 -0.466797,-0.203547 -0.466797,-0.466797 0,-0.263249 0.203547,-0.466797 0.466797,-0.466797 z m -13.830078,2.333984 h 15.179687 0.259766 v 0.257813 0.259765 H 32.601562 17.421875 c -0.148117,0 -0.257812,-0.110852 -0.257813,-0.259765 0,-0.148115 0.109697,-0.257813 0.257813,-0.257813 z m 6.046875,1.984375 c -0.590229,0 -1.101627,0.433333 -1.199219,1.015625 l -0.0957,0.552735 c -0.09262,0.03574 -0.183005,0.07586 -0.273437,0.117187 l -0.439454,-0.318359 c -0.207612,-0.149481 -0.456947,-0.226563 -0.708984,-0.226563 -0.321779,0 -0.633301,0.128321 -0.861328,0.361328 l 0.0039,-0.0059 -0.724609,0.722656 c -0.416808,0.41681 -0.474248,1.08436 -0.13086,1.566407 l 0.326172,0.457031 c -0.04053,0.09158 -0.07842,0.183702 -0.113281,0.277344 l -0.53125,0.08984 c -0.581399,0.09833 -1.013672,0.609588 -1.013672,1.199219 v 1.019531 c 0,0.589633 0.432269,1.100888 1.013672,1.199219 l 0.554688,0.0957 c 0.03571,0.09234 0.07407,0.183325 0.115234,0.273438 l -0.314453,0.4375 h -0.002 c -0.34177,0.479779 -0.288698,1.149007 0.130859,1.566406 l 0.722656,0.720703 c 0.226295,0.226296 0.537594,0.357422 0.859375,0.357422 0.252185,0 0.500537,-0.07929 0.705078,-0.226563 l 0.455079,-0.324218 c 0.08261,0.03648 0.165895,0.07161 0.25,0.103515 l 0.08984,0.541016 c 0.09769,0.582059 0.610943,1.015625 1.201172,1.015625 h 1.021485 c 0.590228,0 1.100875,-0.4345 1.199218,-1.015625 l 0.0918,-0.542969 c 0.09284,-0.03523 0.184825,-0.07271 0.275391,-0.113281 l 0.445312,0.318359 c 0.207102,0.149114 0.456796,0.226563 0.708985,0.226563 0.321779,0 0.63308,-0.129171 0.859375,-0.355469 l 0.720703,-0.722656 c 0.416811,-0.41681 0.474247,-1.082406 0.130859,-1.564453 l -0.320312,-0.449219 c 0.04091,-0.09064 0.07958,-0.182121 0.115234,-0.275391 l 0.541016,-0.08984 c 0.582368,-0.0976 1.015625,-0.611402 1.015625,-1.201172 V 25.90625 c 0.0081,-0.593537 -0.427394,-1.109425 -1.009766,-1.207031 l -0.542969,-0.0918 c -0.03505,-0.09218 -0.073,-0.183549 -0.113281,-0.273438 l 0.320313,-0.447265 v -0.002 c 0.3423,-0.480523 0.288536,-1.149141 -0.132813,-1.566407 L 28.09375,21.597656 c -0.226293,-0.226291 -0.537592,-0.357422 -0.859375,-0.357422 -0.252185,0 -0.500538,0.08124 -0.705078,0.228516 l -0.447266,0.318359 c -0.0998,-0.04505 -0.201778,-0.08645 -0.304687,-0.125 l -0.08984,-0.53125 c -0.09824,-0.581366 -0.60899,-1.015625 -1.199219,-1.015625 z m 10.650391,1.56836 c -0.689687,0 -1.257813,0.570079 -1.257813,1.259765 v 9.91211 c 0,0.0096 0.0037,0.0059 -0.0059,0.0059 H 15.144531 c -0.0096,0 -0.0059,0.0037 -0.0059,-0.0059 v -4.300782 c 0,-0.689857 -0.568511,-1.259765 -1.257813,-1.259765 -0.689473,0 -1.259765,0.570293 -1.259765,1.259765 v 4.806641 c 0,1.10853 0.909048,2.017578 2.017578,2.017578 h 18.722656 c 1.10853,0 2.017578,-0.909048 2.017578,-2.017578 V 22.943359 c 0,-0.689301 -0.569908,-1.259765 -1.259765,-1.259765 z m -10.277344,0.08398 H 24.125 l 0.107422,0.644531 c 0.0542,0.320341 0.293249,0.586007 0.613281,0.666016 0.319361,0.08027 0.622662,0.204152 0.90625,0.371094 v 0.002 c 0.275997,0.161992 0.632451,0.148093 0.896484,-0.03711 l 0.002,-0.002 0.537109,-0.384765 0.199219,0.199218 -0.382813,0.53711 c -0.194126,0.269277 -0.20494,0.6211 -0.04102,0.90039 l 0.002,0.002 v 0.002 c 0.163191,0.273793 0.284792,0.568901 0.365234,0.878906 0.08038,0.32148 0.34592,0.561181 0.671875,0.611328 h -0.0078 l 0.652343,0.109375 v 0.28125 l -0.654297,0.109375 h -0.002 c -0.319967,0.05434 -0.582068,0.294134 -0.662109,0.609375 -0.08042,0.310549 -0.201621,0.606358 -0.365234,0.880859 l -0.002,0.002 v 0.002 c -0.161085,0.275642 -0.149125,0.632177 0.03711,0.896484 l 0.386719,0.542969 -0.201172,0.199219 -0.53711,-0.38086 c -0.268379,-0.19258 -0.621646,-0.202667 -0.90039,-0.03906 h -0.002 -0.002 c -0.275631,0.163866 -0.571666,0.286865 -0.882812,0.367187 h 0.0039 c -0.320017,0.08001 -0.563119,0.342617 -0.613281,0.669922 l -0.109375,0.644531 h -0.279297 l -0.109375,-0.652343 v -0.002 c -0.05514,-0.318869 -0.295433,-0.58013 -0.609375,-0.660156 -0.300176,-0.07774 -0.594344,-0.198077 -0.869141,-0.355469 -0.130993,-0.07488 -0.26964,-0.109375 -0.412109,-0.109375 -0.164039,0 -0.333893,0.04598 -0.484375,0.15625 l -0.539062,0.384766 -0.201172,-0.201172 0.380859,-0.535156 h 0.002 c 0.188252,-0.267205 0.199791,-0.620063 0.03711,-0.898438 l -0.002,-0.0039 -0.002,-0.002 c -0.165132,-0.27494 -0.2898,-0.571567 -0.36914,-0.878906 l -0.002,-0.0039 v -0.0039 C 20.597406,26.979098 20.343534,26.7429 20.023437,26.6875 h -0.002 l -0.662109,-0.113281 v -0.28125 l 0.646484,-0.109375 c 0.319151,-0.0542 0.585058,-0.292414 0.666016,-0.611328 0.07841,-0.311952 0.198274,-0.612931 0.359375,-0.886719 0.164688,-0.280587 0.146837,-0.63448 -0.04102,-0.896485 v -0.002 l -0.388672,-0.544922 0.201172,-0.199218 0.535157,0.382812 h 0.002 c 0.266936,0.187237 0.619711,0.200705 0.898437,0.03711 l 0.002,-0.002 h 0.002 c 0.27534,-0.16495 0.571873,-0.291832 0.878907,-0.371093 l 0.0039,-0.002 h 0.0039 c 0.306681,-0.0842 0.54439,-0.339875 0.59961,-0.660157 z m 10.277344,0.916016 c 0.148526,0 0.259765,0.111649 0.259765,0.259765 v 10.417969 c 0,0.567273 -0.450305,1.017578 -1.017578,1.017578 H 14.638672 c -0.567273,0 -1.017578,-0.450305 -1.017578,-1.017578 v -4.806641 c 0,-0.14891 0.110855,-0.259765 0.259765,-0.259765 0.148116,0 0.257813,0.11124 0.257813,0.259765 v 4.300782 c 0,0.549357 0.456502,1.005859 1.005859,1.005859 h 17.710938 c 0.549357,0 1.005859,-0.456502 1.005859,-1.005859 v -9.91211 c 0,-0.14773 0.110082,-0.259765 0.257813,-0.259765 z M 24,23.408203 c -1.650127,0 -3,1.349367 -3,3 0,1.650633 1.349757,3 3,3 1.650633,0 3.001953,-1.349367 3.001953,-3 0,-1.650633 -1.351436,-3 -3.001953,-3 z m 0,1.652344 c 0.748499,0 1.347656,0.599158 1.347656,1.347656 0,0.748499 -0.599157,1.345703 -1.347656,1.345703 -0.747885,0 -1.345703,-0.597204 -1.345703,-1.345703 0,-0.748499 0.597818,-1.347656 1.345703,-1.347656 z m 5.167969,2.414062 h 0.0059 l -0.0059,0.002 c 5.55e-4,-8.5e-5 -5.55e-4,-0.0019 0,-0.002 z"
     id="path7" />
</svg>
