<?xml version="1.0" encoding="UTF-8" standalone="no"?>
<!-- Generator: Gravit.io -->

<svg
   style="isolation:isolate"
   viewBox="0 0 48 48"
   width="48pt"
   height="48pt"
   version="1.1"
   id="svg9"
   sodipodi:docname="preferences-system-windows-actions.svg"
   inkscape:version="1.1.2 (0a00cf5339, 2022-02-04)"
   xmlns:inkscape="http://www.inkscape.org/namespaces/inkscape"
   xmlns:sodipodi="http://sodipodi.sourceforge.net/DTD/sodipodi-0.dtd"
   xmlns:xlink="http://www.w3.org/1999/xlink"
   xmlns="http://www.w3.org/2000/svg"
   xmlns:svg="http://www.w3.org/2000/svg">
  <defs
     id="defs13">
    <linearGradient
       inkscape:collect="always"
       xlink:href="#_lgradient_8"
       id="linearGradient872"
       x1="-12.025727"
       y1="6.1170783"
       x2="-0.085100174"
       y2="6.1170783"
       gradientUnits="userSpaceOnUse"
       gradientTransform="matrix(3.8358211,0,0,3.8371327,-0.00549648,-0.00264265)" />
    <linearGradient
       inkscape:collect="always"
       xlink:href="#_lgradient_8"
       id="linearGradient15-3"
       x1="-9.6850061"
       y1="45.161198"
       x2="11.98815"
       y2="21.735205"
       gradientUnits="userSpaceOnUse"
       gradientTransform="matrix(1.1147442,0,0,1.1150348,-0.01213412,-3.3277404)" />
    <linearGradient
       inkscape:collect="always"
       xlink:href="#_lgradient_8"
       id="linearGradient863"
       x1="12.856588"
       y1="24"
       x2="35.143414"
       y2="24"
       gradientUnits="userSpaceOnUse" />
  </defs>
  <sodipodi:namedview
     id="namedview11"
     pagecolor="#ffffff"
     bordercolor="#666666"
     borderopacity="1.0"
     inkscape:pageshadow="2"
     inkscape:pageopacity="0.0"
     inkscape:pagecheckerboard="0"
     inkscape:document-units="pt"
     showgrid="false"
     inkscape:zoom="10.21875"
     inkscape:cx="31.95107"
     inkscape:cy="32"
     inkscape:window-width="1600"
     inkscape:window-height="836"
     inkscape:window-x="0"
     inkscape:window-y="0"
     inkscape:window-maximized="1"
     inkscape:current-layer="svg9" />
  <linearGradient
     id="_lgradient_8"
     x1="0"
     y1="0.5"
     x2="1"
     y2="0.5"
     gradientTransform="matrix(22.286825,0,0,22.286825,12.856587,12.856587)"
     gradientUnits="userSpaceOnUse">
    <stop
       offset="0%"
       stop-opacity="1"
       style="stop-color:rgb(132,250,176)"
       id="stop2" />
    <stop
       offset="98.69565217391305%"
       stop-opacity="1"
       style="stop-color:rgb(252,82,82)"
       id="stop4" />
  </linearGradient>
  <rect
     x="-46.783241"
     y="1.2254127"
     width="45.802109"
     height="45.800068"
     rx="6.1837621"
     shape-rendering="crispEdges"
     id="rect5-6-7-3"
     ry="6.8055172"
     transform="matrix(0.00524062,-0.99998627,0.99998801,0.00489692,0,0)"
     style="isolation:isolate;fill:#00ffd2;fill-opacity:0.136073;stroke:url(#linearGradient872);stroke-width:2.0301;stroke-miterlimit:4;stroke-dasharray:none;stroke-opacity:1" />
  <rect
     x="-15.686565"
     y="17.260139"
     width="33.338203"
     height="33.345856"
     rx="6.7920032"
     shape-rendering="crispEdges"
     id="rect5-6-6-6-6-3"
     style="isolation:isolate;fill:#00ffd2;fill-opacity:0.133333;stroke:url(#linearGradient15-3);stroke-width:1.67233;stroke-miterlimit:4;stroke-dasharray:none;stroke-opacity:1"
     ry="7.4743071"
     transform="matrix(0.72446484,-0.68931175,0.68622417,0.72739012,0,0)" />
  <path
     style="color:#000000;fill:url(#linearGradient863);fill-rule:evenodd;-inkscape-stroke:none"
     d="m 14.412109,12.357422 c -1.128918,0 -2.054687,0.925769 -2.054687,2.054687 V 24 c 0,0.699489 0.577286,1.277344 1.277344,1.277344 0.699874,0 1.277343,-0.577469 1.277343,-1.277344 v -9.070312 c 0,-0.01637 0.0012,-0.01758 0.01758,-0.01758 h 15.714843 c -0.399012,0.268717 -0.707031,0.651526 -0.707031,1.164063 0,0.349301 0.17037,0.643077 0.375,0.898437 H 17.261719 c -0.69949,0 -1.277344,0.577855 -1.277344,1.277344 0,0.699672 0.577854,1.277344 1.277344,1.277344 h 15.548828 0.277344 0.5 0.5 v -0.105469 c 0.285591,-0.04412 0.592413,-0.05795 0.824218,-0.173828 0.372428,-0.186173 0.730469,-0.512878 0.730469,-0.998047 v -3.839844 c 0,-1.128918 -0.925769,-2.054687 -2.054687,-2.054687 z m 0,1 h 19.175782 c 0.587662,0 1.054687,0.467025 1.054687,1.054687 v 3.839844 c 0,-0.05578 0.01283,0.0083 -0.177734,0.103516 -0.08189,0.04094 -0.25344,0.04411 -0.376953,0.07422 v -0.177734 -1.277344 -2.044921 c 0,-0.556158 -0.461421,-1.017579 -1.017579,-1.017579 H 14.929688 c -0.556158,0 -1.017579,0.461421 -1.017579,1.017579 V 24 c 0,0.15792 -0.119423,0.277344 -0.277343,0.277344 -0.158728,0 -0.277344,-0.119038 -0.277344,-0.277344 v -9.587891 c 0,-0.587662 0.467025,-1.054687 1.054687,-1.054687 z m 17.800782,1.554687 h 0.857421 c 0.01637,0 0.01758,0.0012 0.01758,0.01758 v 2.044921 h -0.277344 -0.265625 c 0.20463,-0.25536 0.375,-0.549136 0.375,-0.898437 0,-0.512701 -0.307805,-0.895379 -0.707031,-1.164063 z m -0.783204,0.673829 c 0.276239,0 0.490235,0.213994 0.490235,0.490234 0,0.276238 -0.213996,0.490234 -0.490235,0.490234 -0.276238,0 -0.492187,-0.213996 -0.492187,-0.490234 0,-0.27624 0.215949,-0.490234 0.492187,-0.490234 z m -14.167968,2.388671 h 15.548828 0.277344 v 0.277344 0.277344 H 32.810547 17.261719 c -0.158305,0 -0.277344,-0.118231 -0.277344,-0.277344 0,-0.158304 0.119039,-0.277344 0.277344,-0.277344 z m 2.771484,2.119141 v 12.566406 l 9.423828,-6.283203 -0.623047,-0.416016 z m 14.332031,1.546875 c -0.699874,0 -1.277343,0.577469 -1.277343,1.277344 v 10.152343 c 0,0.01637 -0.0012,0.01758 -0.01758,0.01758 H 14.929688 c -0.01637,0 -0.01758,-0.0012 -0.01758,-0.01758 v -4.40625 c 0,-0.700057 -0.577854,-1.277343 -1.277343,-1.277343 -0.699673,0 -1.277344,0.577671 -1.277344,1.277343 v 4.923829 c 0,1.128918 0.925769,2.054687 2.054687,2.054687 h 19.175782 c 1.128918,0 2.054687,-0.925769 2.054687,-2.054687 V 22.917969 c 0,-0.699489 -0.577286,-1.277344 -1.277344,-1.277344 z m -13.332031,0.322266 6.621094,4.414062 -6.621094,4.416016 z m 13.332031,0.677734 c 0.158728,0 0.277344,0.119038 0.277344,0.277344 v 10.669922 c 0,0.587662 -0.467025,1.054687 -1.054687,1.054687 H 14.412109 c -0.587662,0 -1.054687,-0.467025 -1.054687,-1.054687 v -4.923829 c 0,-0.159112 0.118231,-0.277343 0.277344,-0.277343 0.158306,0 0.277343,0.118616 0.277343,0.277343 v 4.40625 c 0,0.556158 0.461421,1.017579 1.017579,1.017579 h 18.140624 c 0.556158,0 1.017579,-0.461421 1.017579,-1.017579 V 22.917969 c 0,-0.157921 0.119423,-0.277344 0.277343,-0.277344 z m -12.845703,0.226562 v 7.019532 l 5.263672,-3.509766 -0.623047,-0.416016 z m 1,1.869141 2.460938,1.640625 -2.460938,1.642578 z"
     id="path7" />
</svg>
