<?xml version="1.0" encoding="UTF-8" standalone="no"?>
<!-- Generator: Gravit.io -->

<svg
   style="isolation:isolate"
   viewBox="0 0 48 48"
   width="48pt"
   height="48pt"
   version="1.1"
   id="svg9"
   sodipodi:docname="preferences-desktop-notification-bell.svg"
   inkscape:version="1.1.2 (0a00cf5339, 2022-02-04)"
   xmlns:inkscape="http://www.inkscape.org/namespaces/inkscape"
   xmlns:sodipodi="http://sodipodi.sourceforge.net/DTD/sodipodi-0.dtd"
   xmlns:xlink="http://www.w3.org/1999/xlink"
   xmlns="http://www.w3.org/2000/svg"
   xmlns:svg="http://www.w3.org/2000/svg">
  <defs
     id="defs13">
    <linearGradient
       inkscape:collect="always"
       xlink:href="#_lgradient_13"
       id="linearGradient872"
       x1="-12.025727"
       y1="6.1170783"
       x2="-0.085100174"
       y2="6.1170783"
       gradientUnits="userSpaceOnUse"
       gradientTransform="matrix(3.8358211,0,0,3.8371327,-0.00549648,-0.00264265)" />
    <linearGradient
       inkscape:collect="always"
       xlink:href="#_lgradient_13"
       id="linearGradient15-3"
       x1="-9.6850061"
       y1="45.161198"
       x2="11.98815"
       y2="21.735205"
       gradientUnits="userSpaceOnUse"
       gradientTransform="matrix(1.1147442,0,0,1.1150348,-0.01213412,-3.3277404)" />
    <linearGradient
       inkscape:collect="always"
       xlink:href="#_lgradient_13"
       id="linearGradient881"
       x1="10.623436"
       y1="21.815178"
       x2="37.376564"
       y2="21.815178"
       gradientUnits="userSpaceOnUse" />
  </defs>
  <sodipodi:namedview
     id="namedview11"
     pagecolor="#ffffff"
     bordercolor="#666666"
     borderopacity="1.0"
     inkscape:pageshadow="2"
     inkscape:pageopacity="0.0"
     inkscape:pagecheckerboard="0"
     inkscape:document-units="pt"
     showgrid="false"
     showguides="true"
     inkscape:zoom="10.21875"
     inkscape:cx="31.755352"
     inkscape:cy="32"
     inkscape:window-width="1600"
     inkscape:window-height="836"
     inkscape:window-x="0"
     inkscape:window-y="0"
     inkscape:window-maximized="1"
     inkscape:current-layer="svg9" />
  <linearGradient
     id="_lgradient_13"
     x1="0.40340909090909094"
     y1="0.06809513125420691"
     x2="0.4905303030303031"
     y2="0.9511006406900508"
     gradientTransform="matrix(26.753128,0,0,27.099702,10.623436,8.2653256)"
     gradientUnits="userSpaceOnUse">
    <stop
       offset="0%"
       stop-opacity="1"
       style="stop-color:rgb(247,242,6)"
       id="stop2" />
    <stop
       offset="97.82608695652173%"
       stop-opacity="1"
       style="stop-color:rgb(255,187,36)"
       id="stop4" />
  </linearGradient>
  <rect
     x="-46.783241"
     y="1.2254127"
     width="45.802109"
     height="45.800068"
     rx="6.1837621"
     shape-rendering="crispEdges"
     id="rect5-6-7-3"
     ry="6.8055172"
     transform="matrix(0.00524062,-0.99998627,0.99998801,0.00489692,0,0)"
     style="isolation:isolate;fill:#ffc600;fill-opacity:0.13470298;stroke:url(#linearGradient872);stroke-width:2.0301;stroke-miterlimit:4;stroke-dasharray:none;stroke-opacity:1" />
  <rect
     x="-15.686565"
     y="17.260139"
     width="33.338203"
     height="33.345856"
     rx="6.7920032"
     shape-rendering="crispEdges"
     id="rect5-6-6-6-6-3"
     style="isolation:isolate;fill:#ffc600;fill-opacity:0.13470298;stroke:url(#linearGradient15-3);stroke-width:1.67233;stroke-miterlimit:4;stroke-dasharray:none;stroke-opacity:1"
     ry="7.4743071"
     transform="matrix(0.72446484,-0.68931175,0.68622417,0.72739012,0,0)" />
  <path
     style="color:#000000;fill:url(#linearGradient881);fill-rule:evenodd;-inkscape-stroke:none"
     d="m 24,7.765625 c -1.27742,0 -2.324219,1.0467973 -2.324219,2.324219 0,0.08438 0.03208,0.159722 0.04102,0.242187 -0.6712,0.147742 -1.339988,0.313325 -1.970703,0.595703 l -0.002,0.002 c -1.340966,0.606628 -2.535244,1.488202 -3.511719,2.585937 -0.798424,0.894156 -1.244141,2.05675 -1.244141,3.261719 v 8.621093 h -1.933593 c -1.613051,0 -2.931641,1.31859 -2.931641,2.931641 v 1.216797 c 0,1.61305 1.31859,2.931641 2.931641,2.931641 h 5.828124 c 0.31614,0.702427 0.70623,1.379073 1.285157,1.90625 1.047013,0.953649 2.412944,1.480468 3.826172,1.480468 1.452405,0 2.847372,-0.553793 3.90625,-1.552734 0.544045,-0.512908 0.907539,-1.163437 1.208984,-1.833984 h 5.835937 c 1.613051,0 2.931641,-1.318591 2.931641,-2.931641 v -1.216797 c 0,-1.613051 -1.31859,-2.931641 -2.931641,-2.931641 h -1.933593 v -0.107421 c 0,-0.941791 -0.773053,-1.716797 -1.714844,-1.716797 -0.941791,0 -1.716797,0.775006 -1.716797,1.716797 v 0.607421 c 0,0.776582 0.307123,1.523919 0.857422,2.074219 0.5503,0.5503 1.297637,0.857422 2.074219,0.857422 h 1.824218 c 0.0651,0 0.109375,0.04232 0.109375,0.107422 0,0.0651 -0.04428,0.109375 -0.109375,0.109375 H 13.664063 c -0.0651,0 -0.109375,-0.04428 -0.109375,-0.109375 0,-0.0651 0.04428,-0.107422 0.109375,-0.107422 h 1.824218 c 0.776582,0 1.523919,-0.307122 2.074219,-0.857422 0.550299,-0.5503 0.857422,-1.297637 0.857422,-2.074219 v -9.121093 c 0,-0.365588 0.130801,-0.709934 0.373047,-0.97461 l 0.0039,-0.0039 0.002,-0.0039 c 0.650966,-0.735875 1.456306,-1.325103 2.353516,-1.734375 0.840554,-0.377967 1.755614,-0.575621 2.673828,-0.576172 0.960469,0.0057 1.901281,0.203793 2.78125,0.589844 0.980651,0.430111 1.862278,1.042602 2.607422,1.816406 l 0.002,0.002 0.002,0.002 c 0.230529,0.234878 0.361328,0.552291 0.361328,0.882813 v 1.216797 c 0,0.94179 0.775006,1.714843 1.716797,1.714843 0.941791,0 1.714844,-0.773053 1.714844,-1.714843 v -1.216797 c 0,-1.225926 -0.483201,-2.402259 -1.339844,-3.279297 -1.049147,-1.092809 -2.304956,-1.961486 -3.6875,-2.570313 l -0.002,-0.002 c -0.54949,-0.239713 -1.133577,-0.388247 -1.71875,-0.527343 0.01469,-0.104832 0.06055,-0.201277 0.06055,-0.308594 C 26.324219,8.8124223 25.27742,7.765625 24,7.765625 Z m 0,1 c 0.736358,0 1.324219,0.5878594 1.324219,1.324219 0,0.168767 -0.03051,0.323841 -0.08789,0.46289 L 25,11.123047 l 0.607422,0.113281 c 0.677554,0.124707 1.340689,0.330876 1.974609,0.607422 1.266123,0.557942 2.414999,1.352953 3.371094,2.349609 l 0.002,0.002 0.002,0.002 c 0.675582,0.691665 1.054688,1.617114 1.054688,2.580078 v 1.216797 c 0,0.400728 -0.314116,0.714843 -0.714844,0.714843 -0.400729,0 -0.716797,-0.314115 -0.716797,-0.714843 v -1.216797 c 0,-0.593051 -0.235277,-1.160379 -0.648437,-1.582031 -0.835085,-0.86638 -1.824412,-1.555766 -2.921875,-2.03711 -1.004908,-0.440862 -2.08308,-0.667351 -3.177735,-0.673828 h -0.002 c -1.062655,0 -2.117702,0.227804 -3.087891,0.664063 h -0.002 c -1.022302,0.465859 -1.940944,1.139088 -2.6875,1.982421 -0.412456,0.452358 -0.632812,1.040724 -0.632812,1.646485 v 9.121093 c 0,0.512431 -0.202715,1.005449 -0.564453,1.367188 -0.361738,0.361738 -0.854757,0.564453 -1.367188,0.564453 h -1.824218 c -0.606161,0 -1.109376,0.501262 -1.109375,1.107422 0,0.60616 0.503213,1.109375 1.109375,1.109375 h 20.671874 c 0.606162,0 1.109376,-0.503215 1.109375,-1.109375 0,-0.60616 -0.503214,-1.107422 -1.109375,-1.107422 h -1.824218 c -0.512431,0 -1.00545,-0.202715 -1.367188,-0.564453 -0.361738,-0.361739 -0.564453,-0.854757 -0.564453,-1.367188 v -0.607421 c 0,-0.400728 0.316068,-0.716797 0.716797,-0.716797 0.400728,0 0.714844,0.316069 0.714844,0.716797 v 1.107421 h 2.933593 c 1.071989,0 1.931641,0.859653 1.931641,1.931641 v 1.216797 c 0,1.071987 -0.859652,1.931641 -1.931641,1.931641 h -6.4375 l -0.11914,0.326171 c -0.24728,0.670953 -0.646653,1.282294 -1.173828,1.779297 h -0.002 c -0.874643,0.825135 -2.020167,1.28125 -3.21875,1.28125 -1.164801,0 -2.292112,-0.433447 -3.154297,-1.21875 -0.559433,-0.509425 -0.981343,-1.141496 -1.238282,-1.839843 l -0.121093,-0.328125 h -6.425781 c -1.071989,0 -1.931641,-0.859654 -1.931641,-1.931641 v -1.216797 c 0,-1.071988 0.859652,-1.931641 1.931641,-1.931641 h 2.933593 v -9.621093 c 0,-0.95869 0.354858,-1.886896 0.990235,-2.597656 h 0.002 c 0.883471,-0.993183 1.962112,-1.789307 3.173828,-2.337891 0.70574,-0.315968 1.445429,-0.542007 2.203125,-0.669922 l 0.583984,-0.09766 -0.193359,-0.558594 c -0.0461,-0.132208 -0.07227,-0.27494 -0.07227,-0.425781 0,-0.7363596 0.587861,-1.324219 1.324219,-1.324219 z m -1.416016,5.394531 -0.002,0.002 c -0.451415,0.06738 -0.893206,0.193255 -1.310547,0.375 l -0.002,0.002 h -0.002 c -0.426103,0.188602 -0.817531,0.454249 -1.148437,0.785156 -0.325892,0.325891 -0.597792,0.710446 -0.789063,1.142578 h -0.002 v 0.002 c -0.188316,0.430437 -0.315828,0.881899 -0.376953,1.34375 l -0.002,0.002 c -0.09818,0.768611 0.456255,1.483888 1.224609,1.582031 0.768611,0.09818 1.481935,-0.456255 1.580078,-1.224609 0.0247,-0.192674 0.07394,-0.379526 0.146485,-0.544922 0.05611,-0.11484 0.125336,-0.216228 0.205078,-0.296875 0.09333,-0.08824 0.19759,-0.157481 0.304687,-0.205078 l 0.002,-0.002 h 0.0039 c 0.178196,-0.08188 0.36525,-0.135989 0.558593,-0.160156 h 0.0039 0.0059 c 0.766741,-0.112868 1.308674,-0.835884 1.197266,-1.603516 -0.111015,-0.764973 -0.830182,-1.307908 -1.595704,-1.199219 z m 0.142578,0.990235 c 6.1e-4,-8.7e-5 0.0013,8.4e-5 0.002,0 0.227252,-0.0313 0.429285,0.119995 0.46289,0.351562 0.03331,0.229529 -0.120663,0.436427 -0.353515,0.470703 l 0.01172,-0.002 c -0.293076,0.03663 -0.579819,0.119282 -0.851562,0.244141 -0.217093,0.09741 -0.41452,0.232858 -0.585938,0.396484 l -0.0059,0.0039 -0.0039,0.0039 c -0.172582,0.172581 -0.305629,0.371097 -0.40625,0.580078 l -0.0039,0.0078 -0.002,0.0059 c -0.120304,0.270694 -0.192766,0.553195 -0.228515,0.832031 v 0.002 c -0.02954,0.231239 -0.231909,0.386927 -0.462891,0.357422 -0.230628,-0.02946 -0.385871,-0.230722 -0.357422,-0.460938 v -0.002 c 0.04833,-0.363822 0.151237,-0.723601 0.302735,-1.070312 v -0.002 c 0.137046,-0.309095 0.336765,-0.592625 0.582031,-0.837891 0.240637,-0.240637 0.53197,-0.438396 0.847656,-0.578125 0.334335,-0.145187 0.69207,-0.248567 1.052734,-0.302734 z m 8.570313,4.77539 c -0.941791,0 -1.716797,0.775006 -1.716797,1.716797 0,0.941791 0.775006,1.714844 1.716797,1.714844 0.941791,0 1.714844,-0.773053 1.714844,-1.714844 0,-0.941791 -0.773053,-1.716797 -1.714844,-1.716797 z m 0,1 c 0.400728,0 0.714844,0.316068 0.714844,0.716797 0,0.400728 -0.314116,0.714844 -0.714844,0.714844 -0.400729,0 -0.716797,-0.314116 -0.716797,-0.714844 0,-0.400729 0.316068,-0.716797 0.716797,-0.716797 z m -10.482422,10.552735 0.714844,0.826171 c 0.08621,0.09974 0.18097,0.196209 0.28125,0.28711 0.597331,0.539757 1.377605,0.841797 2.183594,0.841797 0.831745,0 1.629042,-0.317302 2.232421,-0.884766 0.08289,-0.07785 0.162591,-0.158114 0.236329,-0.244141 l 0.707031,-0.826171 h -1.087891 z"
     id="path7" />
</svg>
