<?xml version="1.0" encoding="UTF-8" standalone="no"?>
<!-- Generator: Gravit.io -->

<svg
   style="isolation:isolate"
   viewBox="0 0 48 48"
   width="48pt"
   height="48pt"
   version="1.1"
   id="svg11"
   sodipodi:docname="preferences-desktop-plasma-theme.svg"
   inkscape:version="1.1.2 (0a00cf5339, 2022-02-04)"
   xmlns:inkscape="http://www.inkscape.org/namespaces/inkscape"
   xmlns:sodipodi="http://sodipodi.sourceforge.net/DTD/sodipodi-0.dtd"
   xmlns:xlink="http://www.w3.org/1999/xlink"
   xmlns="http://www.w3.org/2000/svg"
   xmlns:svg="http://www.w3.org/2000/svg">
  <defs
     id="defs15">
    <linearGradient
       inkscape:collect="always"
       xlink:href="#_lgradient_0"
       id="linearGradient872"
       x1="-12.025727"
       y1="6.1170783"
       x2="-0.085100174"
       y2="6.1170783"
       gradientUnits="userSpaceOnUse"
       gradientTransform="matrix(3.8358211,0,0,3.8371327,-0.00549648,-0.00264265)" />
    <linearGradient
       inkscape:collect="always"
       xlink:href="#_lgradient_0"
       id="linearGradient15-3"
       x1="-9.6850061"
       y1="45.161198"
       x2="11.98815"
       y2="21.735205"
       gradientUnits="userSpaceOnUse"
       gradientTransform="matrix(1.1147442,0,0,1.1150348,-0.01213412,-3.3277404)" />
    <linearGradient
       inkscape:collect="always"
       xlink:href="#_lgradient_0"
       id="linearGradient865"
       x1="12.984796"
       y1="24"
       x2="35.015205"
       y2="24"
       gradientUnits="userSpaceOnUse" />
  </defs>
  <sodipodi:namedview
     id="namedview13"
     pagecolor="#ffffff"
     bordercolor="#666666"
     borderopacity="1.0"
     inkscape:pageshadow="2"
     inkscape:pageopacity="0.0"
     inkscape:pagecheckerboard="0"
     inkscape:document-units="pt"
     showgrid="false"
     inkscape:zoom="10.21875"
     inkscape:cx="31.95107"
     inkscape:cy="32"
     inkscape:window-width="1600"
     inkscape:window-height="836"
     inkscape:window-x="0"
     inkscape:window-y="0"
     inkscape:window-maximized="1"
     inkscape:current-layer="svg11" />
  <linearGradient
     id="_lgradient_0"
     x1="-0.09999999999999996"
     y1="1.1"
     x2="0.9883726647000989"
     y2="0.04272369714847657"
     gradientTransform="matrix(22.030408,0,0,22.030408,12.984796,12.984796)"
     gradientUnits="userSpaceOnUse">
    <stop
       offset="0%"
       stop-opacity="1"
       style="stop-color:rgb(84,51,255)"
       id="stop2" />
    <stop
       offset="51.73913043478261%"
       stop-opacity="1"
       style="stop-color:rgb(32,189,255)"
       id="stop4" />
    <stop
       offset="98.26086956521739%"
       stop-opacity="1"
       style="stop-color:rgb(165,254,203)"
       id="stop6" />
  </linearGradient>
  <rect
     x="-46.783241"
     y="1.2254127"
     width="45.802109"
     height="45.800068"
     rx="6.1837621"
     shape-rendering="crispEdges"
     id="rect5-6-7-3"
     ry="6.8055172"
     transform="matrix(0.00524062,-0.99998627,0.99998801,0.00489692,0,0)"
     style="isolation:isolate;fill:#00ffd2;fill-opacity:0.136073;stroke:url(#linearGradient872);stroke-width:2.0301;stroke-miterlimit:4;stroke-dasharray:none;stroke-opacity:1" />
  <rect
     x="-15.686565"
     y="17.260139"
     width="33.338203"
     height="33.345856"
     rx="6.7920032"
     shape-rendering="crispEdges"
     id="rect5-6-6-6-6-3"
     style="isolation:isolate;fill:#00ffd2;fill-opacity:0.133333;stroke:url(#linearGradient15-3);stroke-width:1.67233;stroke-miterlimit:4;stroke-dasharray:none;stroke-opacity:1"
     ry="7.4743071"
     transform="matrix(0.72446484,-0.68931175,0.68622417,0.72739012,0,0)" />
  <path
     style="color:#000000;fill:url(#linearGradient865);fill-rule:evenodd;-inkscape-stroke:none"
     d="m 14.521484,12.484375 c -1.119043,0 -2.037109,0.918066 -2.037109,2.037109 v 11.527344 c 0,0.694555 0.574414,1.269531 1.269531,1.269531 0.69494,0 1.267578,-0.574591 1.267578,-1.269531 V 15.033203 c 0,-0.01307 -0.0014,-0.01172 0.01172,-0.01172 h 17.933594 c 0.01307,0 0.01172,-0.0014 0.01172,0.01172 v 4.355469 c 0,0.695117 0.573023,1.269531 1.267578,1.269531 0.694732,0 1.269531,-0.574799 1.269531,-1.269531 v -4.867188 c 0,-1.119043 -0.918066,-2.037109 -2.037109,-2.037109 z m 0,1 h 18.957032 c 0.577785,0 1.037109,0.459324 1.037109,1.037109 v 4.867188 c 0,0.154171 -0.115359,0.269531 -0.269531,0.269531 -0.153369,0 -0.267578,-0.115745 -0.267578,-0.269531 v -4.355469 c 0,-0.552864 -0.458855,-1.011719 -1.011719,-1.011719 H 15.033203 c -0.552864,0 -1.011719,0.458855 -1.011719,1.011719 v 11.015625 c 0,0.152985 -0.114595,0.269531 -0.267578,0.269531 -0.153787,0 -0.269531,-0.116161 -0.269531,-0.269531 V 14.521484 c 0,-0.577785 0.459324,-1.037109 1.037109,-1.037109 z m 10.941407,2.636719 -0.353516,0.353515 -1.816406,1.816407 2.195312,2.195312 -2.195312,2.195313 2.169922,2.171875 2.550781,-2.548829 1.816406,-1.818359 -1.816406,-1.816406 z M 21.4375,16.328125 c -0.62286,0 -1.140625,0.515232 -1.140625,1.138672 0,0.62344 0.517765,1.140625 1.140625,1.140625 0.62298,0 1.140625,-0.517186 1.140625,-1.140625 0,-0.623439 -0.517645,-1.138672 -1.140625,-1.138672 z m 0,1 c 0.08689,0 0.140625,0.05224 0.140625,0.138672 0,0.08643 -0.05373,0.140625 -0.140625,0.140625 -0.08603,0 -0.140625,-0.0542 -0.140625,-0.140625 0,-0.08643 0.0546,-0.138672 0.140625,-0.138672 z m 4.025391,0.207031 1.84375,1.841797 1.109375,1.109375 -1.109375,1.111328 -1.84375,1.841797 -0.75586,-0.757812 2.195313,-2.195313 -2.195313,-2.195312 z m -5.625,2.634766 c -0.80048,0 -1.460938,0.660459 -1.460938,1.460937 0,0.800479 0.660459,1.460938 1.460938,1.460938 0.800478,0 1.458984,-0.660459 1.458984,-1.460938 0,-0.800478 -0.658505,-1.460937 -1.458984,-1.460937 z m 0,1 c 0.263833,0 0.458984,0.197105 0.458984,0.460937 0,0.263835 -0.19515,0.460938 -0.458984,0.460938 -0.263835,0 -0.460938,-0.197103 -0.460938,-0.460938 0,-0.263832 0.197104,-0.460937 0.460938,-0.460937 z m 14.408203,1.560547 c -0.694939,0 -1.267578,0.574591 -1.267578,1.269531 v 8.966797 c 0,0.01307 0.0014,0.01172 -0.01172,0.01172 h -7.697266 v -1.050782 h 5.390625 c 0.694555,0 1.267578,-0.573023 1.267578,-1.267578 0,-0.694732 -0.573023,-1.267578 -1.267578,-1.267578 h -15.36914 -0.269532 -0.5 -0.5 v 0.105469 c -0.280767,0.04386 -0.582191,0.05772 -0.810546,0.171875 -0.36919,0.184554 -0.726563,0.507535 -0.726563,0.990234 v 2.81836 c 0,1.119043 0.918066,2.037109 2.037109,2.037109 h 18.957032 c 1.119043,0 2.037109,-0.918066 2.037109,-2.037109 V 24 c 0,-0.694555 -0.574415,-1.269531 -1.269531,-1.269531 z m 0,1 c 0.153788,0 0.269531,0.116161 0.269531,0.269531 v 9.478516 c 0,0.577785 -0.459324,1.037109 -1.037109,1.037109 H 14.521484 c -0.577785,0 -1.037109,-0.459324 -1.037109,-1.037109 v -2.81836 c 0,0.05825 -0.0135,-0.0021 0.173828,-0.0957 0.07883,-0.0394 0.244775,-0.0429 0.363281,-0.07227 v 0.167969 0.767578 0.5 1.039063 c 0,0.552864 0.458855,1.011719 1.011719,1.011719 h 8.697266 v -3.050782 h -8.439453 -0.269532 v -0.535156 h 0.269532 15.36914 c 0.15337,0 0.267578,0.113406 0.267578,0.267578 0,0.15337 -0.114208,0.267578 -0.267578,0.267578 h -6.390625 v 3.050782 h 0.5 8.197266 c 0.552864,0 1.011719,-0.458855 1.011719,-1.011719 V 24 c 0,-0.152985 0.114594,-0.269531 0.267578,-0.269531 z m -11.527344,0.28125 c -0.977914,0 -1.78125,0.803107 -1.78125,1.78125 0,0.977839 0.803106,1.78125 1.78125,1.78125 0.977839,0 1.78125,-0.803411 1.78125,-1.78125 0,-0.978143 -0.803641,-1.78125 -1.78125,-1.78125 z m 0,1 c 0.441147,0 0.78125,0.339658 0.78125,0.78125 0,0.440917 -0.340333,0.78125 -0.78125,0.78125 -0.441593,0 -0.78125,-0.340333 -0.78125,-0.78125 0,-0.441592 0.339428,-0.78125 0.78125,-0.78125 z m -7.697266,6.916015 h 0.269532 7.439453 v 1.050782 h -7.697266 c -0.01307,0 -0.01172,0.0014 -0.01172,-0.01172 z"
     id="path9" />
</svg>
