<?xml version="1.0" encoding="UTF-8" standalone="no"?>
<!-- Generator: Gravit.io -->

<svg
   style="isolation:isolate"
   viewBox="0 0 48 48"
   width="48pt"
   height="48pt"
   version="1.1"
   id="svg11"
   sodipodi:docname="preferences-desktop-plasma.svg"
   inkscape:version="1.1.2 (0a00cf5339, 2022-02-04)"
   xmlns:inkscape="http://www.inkscape.org/namespaces/inkscape"
   xmlns:sodipodi="http://sodipodi.sourceforge.net/DTD/sodipodi-0.dtd"
   xmlns:xlink="http://www.w3.org/1999/xlink"
   xmlns="http://www.w3.org/2000/svg"
   xmlns:svg="http://www.w3.org/2000/svg">
  <defs
     id="defs15">
    <linearGradient
       inkscape:collect="always"
       xlink:href="#_lgradient_11"
       id="linearGradient872"
       x1="-12.025727"
       y1="6.1170783"
       x2="-0.085100174"
       y2="6.1170783"
       gradientUnits="userSpaceOnUse"
       gradientTransform="matrix(3.8358211,0,0,3.8371327,-0.00549648,-0.00264265)" />
    <linearGradient
       inkscape:collect="always"
       xlink:href="#_lgradient_11"
       id="linearGradient15-3"
       x1="-9.6850061"
       y1="45.161198"
       x2="11.98815"
       y2="21.735205"
       gradientUnits="userSpaceOnUse"
       gradientTransform="matrix(1.1147442,0,0,1.1150348,-0.01213412,-3.3277404)" />
    <linearGradient
       inkscape:collect="always"
       xlink:href="#_lgradient_11"
       id="linearGradient865"
       x1="12.83613"
       y1="24"
       x2="35.163872"
       y2="24"
       gradientUnits="userSpaceOnUse" />
  </defs>
  <sodipodi:namedview
     id="namedview13"
     pagecolor="#ffffff"
     bordercolor="#666666"
     borderopacity="1.0"
     inkscape:pageshadow="2"
     inkscape:pageopacity="0.0"
     inkscape:pagecheckerboard="0"
     inkscape:document-units="pt"
     showgrid="false"
     inkscape:zoom="10.21875"
     inkscape:cx="31.95107"
     inkscape:cy="32"
     inkscape:window-width="1600"
     inkscape:window-height="836"
     inkscape:window-x="0"
     inkscape:window-y="0"
     inkscape:window-maximized="1"
     inkscape:current-layer="svg11" />
  <linearGradient
     id="_lgradient_11"
     x1="-0.2861111111111111"
     y1="0.33888888888888896"
     x2="0.99048463356974"
     y2="0.9516548463356973"
     gradientTransform="matrix(22.32774,0,0,22.32774,12.83613,12.83613)"
     gradientUnits="userSpaceOnUse">
    <stop
       offset="0%"
       stop-opacity="1"
       style="stop-color:rgb(220,80,141)"
       id="stop2" />
    <stop
       offset="50.416666666666664%"
       stop-opacity="1"
       style="stop-color:rgb(245,139,123)"
       id="stop4" />
    <stop
       offset="97.91666666666666%"
       stop-opacity="1"
       style="stop-color:rgb(56,249,215)"
       id="stop6" />
  </linearGradient>
  <rect
     x="-46.783241"
     y="1.2254127"
     width="45.802109"
     height="45.800068"
     rx="6.1837621"
     shape-rendering="crispEdges"
     id="rect5-6-7-3"
     ry="6.8055172"
     transform="matrix(0.00524062,-0.99998627,0.99998801,0.00489692,0,0)"
     style="isolation:isolate;fill:#00ffd2;fill-opacity:0.136073;stroke:url(#linearGradient872);stroke-width:2.0301;stroke-miterlimit:4;stroke-dasharray:none;stroke-opacity:1" />
  <rect
     x="-15.686565"
     y="17.260139"
     width="33.338203"
     height="33.345856"
     rx="6.7920032"
     shape-rendering="crispEdges"
     id="rect5-6-6-6-6-3"
     style="isolation:isolate;fill:#00ffd2;fill-opacity:0.133333;stroke:url(#linearGradient15-3);stroke-width:1.67233;stroke-miterlimit:4;stroke-dasharray:none;stroke-opacity:1"
     ry="7.4743071"
     transform="matrix(0.72446484,-0.68931175,0.68622417,0.72739012,0,0)" />
  <path
     style="color:#000000;fill:url(#linearGradient865);fill-rule:evenodd;-inkscape-stroke:none"
     d="m 14.394531,12.335938 c -1.130494,0 -2.058594,0.928099 -2.058593,2.058593 v 11.681641 c 0,0.700277 0.578451,1.279297 1.279296,1.279297 0.700662,0 1.279297,-0.578635 1.279297,-1.279297 V 14.914063 c 0,-0.01689 0.0026,-0.01953 0.01953,-0.01953 h 18.171874 c 0.01689,0 0.01953,0.0026 0.01953,0.01953 v 4.412109 c 0,0.700845 0.57902,1.279297 1.279297,1.279297 0.700461,0 1.279296,-0.578836 1.279296,-1.279297 v -4.931641 c 0,-1.130494 -0.928099,-2.058593 -2.058593,-2.058593 z m 0,1 h 19.210938 c 0.589236,0 1.058593,0.469357 1.058593,1.058593 v 4.931641 c 0,0.1599 -0.119396,0.279297 -0.279296,0.279297 -0.159092,0 -0.279297,-0.119781 -0.279297,-0.279297 v -4.412109 c 0,-0.556684 -0.462848,-1.019532 -1.019532,-1.019532 H 14.914063 c -0.556684,0 -1.019532,0.462848 -1.019532,1.019532 v 11.162109 c 0,0.158707 -0.120589,0.279297 -0.279297,0.279297 -0.159515,0 -0.279297,-0.120205 -0.279296,-0.279297 V 14.394531 c 0,-0.589236 0.469357,-1.058593 1.058593,-1.058593 z m 11.089844,2.687499 -0.353516,0.353516 -1.83789,1.837891 2.224609,2.224609 -2.224609,2.224609 2.191406,2.191407 2.578125,-2.578125 1.837891,-1.837891 -1.837891,-1.837891 z m -4.080078,0.207032 c -0.627644,0 -1.150391,0.520208 -1.150391,1.148437 0,0.62823 0.522747,1.150391 1.150391,1.150391 0.62777,0 1.148437,-0.522161 1.148437,-1.150391 0,-0.628229 -0.520667,-1.148437 -1.148437,-1.148437 z m 0,1 c 0.09168,0 0.148437,0.05722 0.148437,0.148437 0,0.09122 -0.05676,0.150391 -0.148437,0.150391 -0.09081,0 -0.150391,-0.05917 -0.150391,-0.150391 0,-0.09122 0.05958,-0.148437 0.150391,-0.148437 z m 4.080078,0.207031 1.871094,1.871094 1.130859,1.130859 -1.130859,1.130859 -1.871094,1.871094 -0.777344,-0.777344 2.22461,-2.224609 -2.22461,-2.224609 z M 19.78125,20.125 c -0.807661,0 -1.474609,0.664995 -1.474609,1.472656 0,0.807661 0.666949,1.47461 1.474609,1.47461 0.80766,0 1.472656,-0.666949 1.472656,-1.47461 0,-0.807661 -0.664995,-1.472656 -1.472656,-1.472656 z m 0,1 c 0.271014,0 0.472656,0.20164 0.472656,0.472656 0,0.271016 -0.201641,0.47461 -0.472656,0.47461 -0.271016,0 -0.474609,-0.203594 -0.474609,-0.47461 0,-0.271016 0.203593,-0.472656 0.474609,-0.472656 z m 14.603516,1.595703 c -0.700662,0 -1.279297,0.578635 -1.279297,1.279297 v 9.085937 c 0,0.01689 -0.0026,0.01953 -0.01953,0.01953 h -7.80664 V 32.029297 H 30.75 c 0.700277,0 1.279297,-0.57902 1.279297,-1.279297 0,-0.700461 -0.57902,-1.279297 -1.279297,-1.279297 h -15.578125 -0.277344 -0.5 -0.5 v 0.105469 c -0.286378,0.04416 -0.593804,0.05962 -0.826172,0.175781 -0.372944,0.186431 -0.732422,0.512484 -0.732421,0.998047 v 2.855469 c 0,1.130494 0.928099,2.058594 2.058593,2.058593 h 19.210938 c 1.130494,0 2.058593,-0.928099 2.058593,-2.058593 V 24 c 0,-0.700277 -0.578451,-1.279297 -1.279296,-1.279297 z m 0,1 c 0.159515,0 0.279296,0.120205 0.279296,0.279297 v 9.605469 c 0,0.589236 -0.469357,1.058593 -1.058593,1.058593 H 14.394531 c -0.589236,0 -1.058593,-0.469357 -1.058593,-1.058593 V 30.75 c 0,0.05538 -0.01139,-0.008 0.179687,-0.103516 0.08239,-0.04119 0.25457,-0.04595 0.378906,-0.07617 V 30.75 v 0.779297 0.5 1.05664 c 0,0.556684 0.462848,1.019532 1.019532,1.019532 h 8.80664 V 31.029297 H 15.171875 14.894531 V 30.470703 H 15.171875 30.75 c 0.159092,0 0.279297,0.119397 0.279297,0.279297 0,0.159092 -0.120205,0.279297 -0.279297,0.279297 h -6.470703 v 3.076172 h 0.5 8.30664 c 0.556684,0 1.019532,-0.462848 1.019532,-1.019532 V 24 c 0,-0.158707 0.120589,-0.279297 0.279297,-0.279297 z m -11.683594,0.298828 c -0.987494,0 -1.796875,0.811104 -1.796875,1.798828 0,0.987414 0.809151,1.796875 1.796875,1.796875 0.987413,0 1.798828,-0.809461 1.798828,-1.796875 0,-0.987724 -0.811645,-1.798828 -1.798828,-1.798828 z m 0,1 c 0.450721,0 0.798828,0.347656 0.798828,0.798828 0,0.450492 -0.348337,0.796875 -0.798828,0.796875 -0.451173,0 -0.796875,-0.346383 -0.796875,-0.796875 0,-0.451172 0.345473,-0.798828 0.796875,-0.798828 z m -7.806641,7.009766 h 0.277344 7.548828 v 1.076172 h -7.80664 c -0.01689,0 -0.01953,-0.0026 -0.01953,-0.01953 z"
     id="path9" />
</svg>
