<?xml version="1.0" encoding="UTF-8" standalone="no"?>
<!-- Generator: Gravit.io -->

<svg
   style="isolation:isolate"
   viewBox="0 0 48 48"
   width="48pt"
   height="48pt"
   version="1.1"
   id="svg11"
   sodipodi:docname="preferences-desktop-theme.svg"
   inkscape:version="1.1.2 (0a00cf5339, 2022-02-04)"
   xmlns:inkscape="http://www.inkscape.org/namespaces/inkscape"
   xmlns:sodipodi="http://sodipodi.sourceforge.net/DTD/sodipodi-0.dtd"
   xmlns:xlink="http://www.w3.org/1999/xlink"
   xmlns="http://www.w3.org/2000/svg"
   xmlns:svg="http://www.w3.org/2000/svg">
  <defs
     id="defs15">
    <linearGradient
       inkscape:collect="always"
       xlink:href="#_lgradient_4"
       id="linearGradient872"
       x1="-12.025727"
       y1="6.1170783"
       x2="-0.085100174"
       y2="6.1170783"
       gradientUnits="userSpaceOnUse"
       gradientTransform="matrix(3.8358211,0,0,3.8371327,-0.00549648,-0.00264265)" />
    <linearGradient
       inkscape:collect="always"
       xlink:href="#_lgradient_4"
       id="linearGradient15-3"
       x1="-9.6850061"
       y1="45.161198"
       x2="11.98815"
       y2="21.735205"
       gradientUnits="userSpaceOnUse"
       gradientTransform="matrix(1.1147442,0,0,1.1150348,-0.01213412,-3.3277404)" />
    <linearGradient
       inkscape:collect="always"
       xlink:href="#_lgradient_4"
       id="linearGradient984"
       x1="11.347247"
       y1="21.159121"
       x2="41.105133"
       y2="21.159121"
       gradientUnits="userSpaceOnUse" />
  </defs>
  <sodipodi:namedview
     id="namedview13"
     pagecolor="#ffffff"
     bordercolor="#666666"
     borderopacity="1.0"
     inkscape:pageshadow="2"
     inkscape:pageopacity="0.0"
     inkscape:pagecheckerboard="0"
     inkscape:document-units="pt"
     showgrid="false"
     height="48pt"
     inkscape:zoom="7.5461538"
     inkscape:cx="42.604485"
     inkscape:cy="32.731906"
     inkscape:window-width="1600"
     inkscape:window-height="836"
     inkscape:window-x="0"
     inkscape:window-y="0"
     inkscape:window-maximized="1"
     inkscape:current-layer="svg11" />
  <linearGradient
     id="_lgradient_4"
     x1="0.52068692"
     y1="1.0823393"
     x2="0.48524934"
     y2="-0.011029466"
     gradientTransform="matrix(-26.849291,-30.935509,31.036568,-26.93748,23.443769,50.191646)"
     gradientUnits="userSpaceOnUse">
    <stop
       offset="0%"
       stop-opacity="1"
       style="stop-color:rgb(220,80,141)"
       id="stop2" />
    <stop
       offset="50.416666666666664%"
       stop-opacity="1"
       style="stop-color:rgb(245,139,123)"
       id="stop4" />
    <stop
       offset="97.91666666666666%"
       stop-opacity="1"
       style="stop-color:rgb(56,249,215)"
       id="stop6" />
  </linearGradient>
  <rect
     x="-46.783241"
     y="1.2254127"
     width="45.802109"
     height="45.800068"
     rx="6.1837621"
     shape-rendering="crispEdges"
     id="rect5-6-7-3"
     ry="6.8055172"
     transform="matrix(0.00524062,-0.99998627,0.99998801,0.00489692,0,0)"
     style="isolation:isolate;fill:#00ffd2;fill-opacity:0.136073;stroke:url(#linearGradient872);stroke-width:2.0301;stroke-miterlimit:4;stroke-dasharray:none;stroke-opacity:1" />
  <rect
     x="-15.686565"
     y="17.260139"
     width="33.338203"
     height="33.345856"
     rx="6.7920032"
     shape-rendering="crispEdges"
     id="rect5-6-6-6-6-3"
     style="isolation:isolate;fill:#00ffd2;fill-opacity:0.133333;stroke:url(#linearGradient15-3);stroke-width:1.67233;stroke-miterlimit:4;stroke-dasharray:none;stroke-opacity:1"
     ry="7.4743071"
     transform="matrix(0.72446484,-0.68931175,0.68622417,0.72739012,0,0)" />
  <path
     style="color:#000000;fill:url(#linearGradient984);fill-rule:evenodd;-inkscape-stroke:none"
     d="m 26.84375,6.4628906 c -0.77898,-0.059439 -1.544671,0.1996992 -2.128906,0.7070313 l -5.507813,4.7812501 -0.408203,0.353516 -0.203125,0.177734 -0.816406,0.707031 c -0.695813,0.603967 -1.122889,1.459483 -1.1875,2.376953 -0.0652,0.917246 0.238439,1.823778 0.841797,2.519531 l 3.035156,3.498047 -8.800781,7.638672 c -0.478893,0.415724 -0.771873,1.005999 -0.8125,1.638672 -0.04826,0.631712 0.15848,1.256065 0.574219,1.734375 l 2.125,2.447266 c 0.415166,0.478251 1.004334,0.77145 1.636718,0.8125 0.631685,0.04826 1.255913,-0.158871 1.734375,-0.574219 l 8.800781,-7.638672 3.03711,3.498047 c 0.603965,0.695256 1.460109,1.122322 2.376953,1.1875 0.917246,0.0646 1.824002,-0.237595 2.519531,-0.841797 l 0.816406,-0.707031 0.205079,-0.177735 0.40625,-0.353515 5.507812,-4.779297 c 0.583572,-0.50626 0.948217,-1.22802 1,-2.005859 0.05946,-0.778623 -0.199898,-1.544327 -0.707031,-2.128907 L 28.849609,7.4628906 c -0.506258,-0.5835725 -1.226462,-0.9482004 -2.003906,-1 z m -0.07422,0.9960938 h 0.0039 0.002 c 0.50814,0.032723 0.983207,0.2738214 1.318359,0.6601562 L 40.132812,21.988281 c 0.335241,0.386437 0.505916,0.890652 0.466797,1.398438 v 0.0039 0.0039 c -0.03273,0.5087 -0.271866,0.983205 -0.658203,1.31836 l -5.507812,4.779296 -0.408203,0.355469 -0.205079,0.175781 -0.814453,0.708985 c -0.49525,0.430221 -1.141941,0.6456 -1.794922,0.599609 -0.652432,-0.04638 -1.260948,-0.35018 -1.691406,-0.845703 l -3.691406,-4.253906 -9.556641,8.294922 c -0.279301,0.242458 -0.640877,0.360615 -1.005859,0.332031 h -0.0039 -0.0039 c -0.365046,-0.02299 -0.706586,-0.191202 -0.949219,-0.470703 L 12.185547,31.939453 C 11.94348,31.660954 11.822979,31.300504 11.851563,30.935547 v -0.0039 -0.0039 c 0.02298,-0.364493 0.193339,-0.706745 0.472656,-0.949218 l 9.55664,-8.294922 -3.691406,-4.251953 c -0.430113,-0.49598 -0.645955,-1.142893 -0.599609,-1.794922 0.04597,-0.652756 0.349784,-1.260948 0.845703,-1.691406 l 0.816406,-0.708985 0.203125,-0.177734 v 0.002 l 0.408203,-0.355469 5.507813,-4.7792968 c 0.385829,-0.335042 0.890058,-0.5059321 1.398437,-0.4667968 z M 26.728516,8.078125 C 26.38449,8.05356 26.041306,8.1652982 25.777344,8.3945313 l -5.06836,4.3984377 13.75586,15.849609 5.068359,-4.398437 c 0.262934,-0.228338 0.422919,-0.552336 0.447266,-0.896485 v -0.002 c 0.02402,-0.343398 -0.08761,-0.685751 -0.316407,-0.949219 l -0.68164,-0.787109 -2.824219,2.453125 c -0.133177,0.11552 -0.321586,0.100404 -0.4375,-0.03125 -0.116035,-0.13377 -0.104373,-0.32155 0.0293,-0.4375 l 2.826172,-2.453125 -1.363281,-1.570313 -2.826172,2.451172 c -0.13377,0.116035 -0.321711,0.104002 -0.4375,-0.0293 -0.116034,-0.133768 -0.102418,-0.321551 0.03125,-0.4375 l 2.824218,-2.453125 -1.363281,-1.570312 -2.824219,2.451172 c -0.132347,0.114962 -0.321752,0.100203 -0.4375,-0.03125 -0.116034,-0.133769 -0.104372,-0.32155 0.0293,-0.4375 l 2.826172,-2.451172 -1.363281,-1.572266 -2.826172,2.453125 c -0.132933,0.115472 -0.321886,0.101847 -0.4375,-0.03125 -0.116035,-0.13377 -0.102418,-0.321551 0.03125,-0.4375 l 2.826172,-2.453125 -1.365234,-1.570312 -2.824219,2.451172 c -0.132932,0.11547 -0.321887,0.103798 -0.4375,-0.0293 -0.116034,-0.133768 -0.104372,-0.32155 0.0293,-0.4375 h 0.002 l 2.824219,-2.453125 -1.363282,-1.572266 -2.826172,2.453125 c -0.132933,0.115473 -0.321886,0.101847 -0.4375,-0.03125 -0.116034,-0.13377 -0.102418,-0.321551 0.03125,-0.4375 l 2.826172,-2.453125 -1.365234,-1.5703122 -2.824219,2.4531252 c -0.132901,0.115447 -0.322466,0.101395 -0.4375,-0.03125 -0.116034,-0.133769 -0.10205,-0.321709 0.03125,-0.4375 L 27.953125,8.9023438 27.625,8.5253906 C 27.396265,8.261999 27.073574,8.102002 26.728516,8.078125 Z m 1.53125,2.703125 0.05469,0.0625 -2.070312,1.794922 c -0.542267,0.470383 -0.603112,1.307428 -0.132813,1.849609 h 0.002 c 0.470718,0.541899 1.305593,0.601723 1.847656,0.13086 l 2.070313,-1.796875 0.05273,0.06055 -2.070312,1.796875 c -0.542265,0.470383 -0.601159,1.305475 -0.13086,1.847656 0.470719,0.5419 1.305593,0.60172 1.847657,0.130859 l 2.070312,-1.796875 0.05273,0.06055 -2.070313,1.796875 c -0.542267,0.470383 -0.601158,1.307428 -0.130859,1.849609 0.470718,0.541899 1.307545,0.599768 1.849609,0.128907 l 2.070313,-1.794922 0.05273,0.06055 -2.070313,1.796875 c -0.54095,0.470609 -0.60075,1.305948 -0.130859,1.847656 0.470718,0.541899 1.305592,0.601718 1.847656,0.130859 l 2.070313,-1.796875 0.05273,0.06055 -2.070312,1.796875 c -0.542268,0.470383 -0.60116,1.305475 -0.13086,1.847656 0.470542,0.541697 1.307428,0.601158 1.84961,0.13086 l 2.070312,-1.796875 0.05273,0.06055 -2.070313,1.796875 c -0.542266,0.470383 -0.601158,1.307428 -0.130859,1.849609 0.470542,0.541697 1.305475,0.599204 1.847656,0.128906 l 2.070312,-1.794922 0.02734,0.0293 c 0.05393,0.0621 0.08015,0.141528 0.07422,0.22461 v 0.002 c -0.0056,0.08134 -0.0428,0.156518 -0.105469,0.210937 l -4.314453,3.744141 -12.445312,-14.337891 2.134765,-1.853515 c -0.227612,0.460245 -0.266882,0.997253 0.08789,1.40625 0.470343,0.542352 1.305604,0.601725 1.847656,0.130859 z m -8.019532,2.419922 -0.582031,0.503906 -0.816406,0.708985 c -0.368795,0.319838 -0.60002,0.773382 -0.634766,1.265625 -0.03472,0.492054 0.130698,0.974976 0.451172,1.343749 L 22.375,21.306641 c 0.213565,0.246121 0.189248,0.606722 -0.05664,0.820312 h -0.002 l -0.580078,0.503906 0.328125,0.378907 2.804688,3.232421 0.582031,-0.503906 c 0.246141,-0.213583 0.60545,-0.189025 0.818359,0.05664 l 3.71875,4.283203 c 0.319647,0.368573 0.774896,0.599989 1.267578,0.634766 0.492496,0.03476 0.97335,-0.129682 1.341797,-0.449219 l 0.816406,-0.708985 0.582032,-0.503906 z m -0.09961,1.410156 12.445312,14.339844 -0.642578,0.55664 c -0.170218,0.147623 -0.39369,0.224758 -0.617187,0.208985 -0.223311,-0.01576 -0.434521,-0.12288 -0.582031,-0.292969 l -3.71875,-4.283203 c -0.567912,-0.655286 -1.573708,-0.726397 -2.228516,-0.158203 l 0.171875,-0.150391 -1.884766,-2.173828 c 0.478493,-0.583079 0.556539,-1.418502 0.04687,-2.005859 l -3.71875,-4.283203 C 19.26447,16.199251 19.189275,15.973937 19.205078,15.75 c 0.01579,-0.223751 0.123098,-0.432757 0.292969,-0.580078 z m 1.535156,8.072266 -0.378906,0.328125 -8.566406,7.435547 c -0.144733,0.125174 -0.236927,0.312306 -0.25,0.527343 -0.01784,0.215952 0.04817,0.41675 0.173828,0.560547 l 2.125,2.447266 c 0.123588,0.141415 0.31263,0.236837 0.527344,0.25 0.215678,0.01764 0.414675,-0.05087 0.55664,-0.173828 h 0.002 l 8.94336,-7.763672 z m -0.09961,1.412109 1.822265,2.097656 -8.015624,6.958985 -1.822266,-2.101563 z m -0.02148,0.800781 c -0.291133,0.03721 -0.56389,0.169227 -0.800781,0.375 l -3.669922,3.185547 c -0.237094,0.205658 -0.406643,0.457099 -0.484375,0.740235 -0.07773,0.283135 -0.05458,0.63854 0.175782,0.904296 0.230857,0.265767 0.579961,0.337992 0.871093,0.300782 0.291133,-0.03721 0.563891,-0.167273 0.800782,-0.373047 l 3.671875,-3.1875 c 0.237096,-0.205658 0.404689,-0.457099 0.482421,-0.740235 0.07773,-0.283135 0.05458,-0.638539 -0.175781,-0.904296 -0.230856,-0.265768 -0.57996,-0.337992 -0.871094,-0.300782 z m 0.002,1.054688 c -0.02953,0.04714 -0.03936,0.08759 -0.09375,0.134765 l -3.671875,3.1875 c -0.05435,0.04721 -0.09557,0.05161 -0.146485,0.07422 0.02953,-0.04714 0.03936,-0.08759 0.09375,-0.134765 l 3.671875,-3.1875 c 0.05435,-0.04721 0.09557,-0.05161 0.146485,-0.07422 z m -5.738282,3.757812 c -0.335462,-0.02367 -0.680081,0.0793 -0.951171,0.314453 -0.541696,0.470543 -0.601157,1.307428 -0.13086,1.84961 0.470345,0.542348 1.305592,0.599766 1.847656,0.128906 0.540951,-0.470608 0.600749,-1.305946 0.13086,-1.847656 -0.235271,-0.270848 -0.561022,-0.421644 -0.896485,-0.445313 z m -0.296875,1.070313 c 0.133771,-0.116035 0.321709,-0.102051 0.4375,0.03125 0.116034,0.133768 0.102418,0.321552 -0.03125,0.4375 -0.132935,0.115473 -0.32051,0.101397 -0.435546,-0.03125 -0.116035,-0.13377 -0.104002,-0.321711 0.0293,-0.4375 z"
     id="path9" />
</svg>
