<?xml version="1.0" encoding="UTF-8" standalone="no"?>
<!-- Generator: Gravit.io -->

<svg
   style="isolation:isolate"
   viewBox="0 0 48 48"
   width="48pt"
   height="48pt"
   version="1.1"
   id="svg11"
   sodipodi:docname="preferences-desktop-icons.svg"
   inkscape:version="1.1.2 (0a00cf5339, 2022-02-04)"
   xmlns:inkscape="http://www.inkscape.org/namespaces/inkscape"
   xmlns:sodipodi="http://sodipodi.sourceforge.net/DTD/sodipodi-0.dtd"
   xmlns:xlink="http://www.w3.org/1999/xlink"
   xmlns="http://www.w3.org/2000/svg"
   xmlns:svg="http://www.w3.org/2000/svg">
  <defs
     id="defs15">
    <linearGradient
       inkscape:collect="always"
       xlink:href="#_lgradient_5"
       id="linearGradient872"
       x1="-12.025727"
       y1="6.1170783"
       x2="-0.085100174"
       y2="6.1170783"
       gradientUnits="userSpaceOnUse"
       gradientTransform="matrix(3.8358211,0,0,3.8371327,-0.00549648,-0.00264265)" />
    <linearGradient
       inkscape:collect="always"
       xlink:href="#_lgradient_5"
       id="linearGradient15-3"
       x1="-9.6850061"
       y1="45.161198"
       x2="11.98815"
       y2="21.735205"
       gradientUnits="userSpaceOnUse"
       gradientTransform="matrix(1.1147442,0,0,1.1150348,-0.01213412,-3.3277404)" />
    <linearGradient
       inkscape:collect="always"
       xlink:href="#_lgradient_5"
       id="linearGradient1153"
       x1="13.220785"
       y1="24"
       x2="34.779217"
       y2="24"
       gradientUnits="userSpaceOnUse" />
  </defs>
  <sodipodi:namedview
     id="namedview13"
     pagecolor="#ffffff"
     bordercolor="#666666"
     borderopacity="1.0"
     inkscape:pageshadow="2"
     inkscape:pageopacity="0.0"
     inkscape:pagecheckerboard="0"
     inkscape:document-units="pt"
     showgrid="false"
     inkscape:zoom="3.6128737"
     inkscape:cx="31.969011"
     inkscape:cy="31.969011"
     inkscape:window-width="1056"
     inkscape:window-height="545"
     inkscape:window-x="237"
     inkscape:window-y="62"
     inkscape:window-maximized="0"
     inkscape:current-layer="svg11" />
  <linearGradient
     id="_lgradient_5"
     x1="0"
     y1="1"
     x2="1.2744376217694582"
     y2="0.35467064984064756"
     gradientTransform="matrix(21.558431,0,0,21.558431,13.220784,13.220784)"
     gradientUnits="userSpaceOnUse">
    <stop
       offset="0%"
       stop-opacity="1"
       style="stop-color:rgb(198,255,221)"
       id="stop2" />
    <stop
       offset="50%"
       stop-opacity="1"
       style="stop-color:rgb(251,215,134)"
       id="stop4" />
    <stop
       offset="100%"
       stop-opacity="1"
       style="stop-color:rgb(247,121,125)"
       id="stop6" />
  </linearGradient>
  <rect
     x="-46.783241"
     y="1.2254127"
     width="45.802109"
     height="45.800068"
     rx="6.1837621"
     shape-rendering="crispEdges"
     id="rect5-6-7-3"
     ry="6.8055172"
     transform="matrix(0.00524062,-0.99998627,0.99998801,0.00489692,0,0)"
     style="isolation:isolate;fill:#ff31db;fill-opacity:0.13470298;stroke:url(#linearGradient872);stroke-width:2.0301;stroke-miterlimit:4;stroke-dasharray:none;stroke-opacity:1" />
  <rect
     x="-15.686565"
     y="17.260139"
     width="33.338203"
     height="33.345856"
     rx="6.7920032"
     shape-rendering="crispEdges"
     id="rect5-6-6-6-6-3"
     style="isolation:isolate;fill:#ff31db;fill-opacity:0.13470298;stroke:url(#linearGradient15-3);stroke-width:1.67233;stroke-miterlimit:4;stroke-dasharray:none;stroke-opacity:1"
     ry="7.4743071"
     transform="matrix(0.72446484,-0.68931175,0.68622417,0.72739012,0,0)" />
  <path
     style="color:#000000;fill:url(#linearGradient1153);fill-rule:evenodd;-inkscape-stroke:none"
     d="m 14.724609,12.720703 c -1.100866,0 -2.003906,0.90304 -2.003906,2.003906 V 24 c 0,0.685472 0.565929,1.251953 1.251953,1.251953 0.685858,0 1.251953,-0.566096 1.251953,-1.251953 v -8.773437 c 0,0 0.002,-0.002 0.002,-0.002 h 15.126953 c -0.35741,0.266905 -0.625,0.633621 -0.625,1.109375 0,0.332253 0.167044,0.609015 0.357421,0.855469 H 17.482422 c -0.685472,0 -1.251953,0.564528 -1.251953,1.25 0,0.685639 0.56648,1.253906 1.251953,1.253906 h 15.041015 0.251954 0.5 0.5 v -0.105468 c 0.272141,-0.04334 0.56494,-0.05691 0.787109,-0.167969 0.363228,-0.181574 0.716797,-0.502317 0.716797,-0.980469 v -3.714844 c 0,-1.100866 -0.90304,-2.003906 -2.003906,-2.003906 z m 0,1 h 18.550782 c 0.559609,0 1.003906,0.444297 1.003906,1.003906 v 3.714844 c 0,-0.06279 0.0173,-0.0047 -0.164063,0.08594 -0.0734,0.03669 -0.230131,0.04036 -0.339843,0.06836 v -0.154297 -1.25 -1.96289 c 0,-0.546803 -0.455151,-1.001954 -1.001954,-1.001954 H 15.226563 c -0.546803,0 -1.001954,0.455151 -1.001954,1.001954 V 24 c 0,0.143902 -0.108051,0.251953 -0.251953,0.251953 -0.144693,0 -0.251953,-0.107665 -0.251953,-0.251953 v -9.275391 c 0,-0.559609 0.444297,-1.003906 1.003906,-1.003906 z m 17.292969,1.503906 h 0.755859 c 0,0 0.002,0.002 0.002,0.002 v 1.96289 h -0.251954 -0.236328 c 0.190378,-0.246454 0.357422,-0.523216 0.357422,-0.855469 0,-0.476277 -0.268878,-0.842526 -0.626953,-1.109375 z m -0.832031,0.652344 c 0.258368,0 0.458984,0.198663 0.458984,0.457031 0,0.258369 -0.200616,0.458985 -0.458984,0.458985 -0.258369,0 -0.457031,-0.200616 -0.457031,-0.458985 0,-0.258368 0.198661,-0.457031 0.457031,-0.457031 z m -13.703125,2.3125 h 15.041015 0.251954 v 0.25 0.253906 H 32.523437 17.482422 c -0.144287,0 -0.251953,-0.108828 -0.251953,-0.253906 0,-0.144287 0.107665,-0.25 0.251953,-0.25 z m -0.273438,2.916016 c -0.53498,0 -0.978515,0.443535 -0.978515,0.978515 V 25.4375 c 0,0.534981 0.443535,0.978516 0.978515,0.978516 H 20.5625 c 0.534993,0 0.980469,-0.442931 0.980469,-0.978516 v -3.353516 c 0,-0.535584 -0.445476,-0.978515 -0.980469,-0.978515 z m 6.228516,0 c -0.534981,0 -0.978516,0.443535 -0.978516,0.978515 V 25.4375 c 0,0.534981 0.443535,0.978516 0.978516,0.978516 h 3.353516 c 0.534992,0 0.978515,-0.442931 0.978515,-0.978516 v -3.353516 c 0,-0.535584 -0.443523,-0.978515 -0.978515,-0.978515 z m 10.589844,0.595703 c -0.685857,0 -1.251953,0.566096 -1.251953,1.251953 v 9.820312 c 0,0 -0.002,0.002 -0.002,0.002 H 15.226563 c 0,0 -0.002,-0.002 -0.002,-0.002 v -4.261718 c 0,-0.686024 -0.56648,-1.251953 -1.251953,-1.251953 -0.685639,0 -1.251953,0.566314 -1.251953,1.251953 v 4.763672 c 0,1.100866 0.90304,2.003906 2.003906,2.003906 h 18.550782 c 1.100866,0 2.003906,-0.90304 2.003906,-2.003906 V 22.953125 c 0,-0.685472 -0.56593,-1.251953 -1.251953,-1.251953 z m -16.796875,0.404297 h 3.3125 v 3.310547 h -3.3125 z m 6.228515,0 h 3.310547 v 3.310547 h -3.310547 z m 10.56836,0.595703 c 0.144694,0 0.251953,0.107665 0.251953,0.251953 v 10.322266 c 0,0.559609 -0.444297,1.003906 -1.003906,1.003906 H 14.724609 c -0.559609,0 -1.003906,-0.444297 -1.003906,-1.003906 v -4.763672 c 0,-0.145079 0.106875,-0.251953 0.251953,-0.251953 0.144287,0 0.251953,0.107259 0.251953,0.251953 v 4.261718 c 0,0.546803 0.455151,1.001954 1.001954,1.001954 h 17.546874 c 0.546803,0 1.001954,-0.455151 1.001954,-1.001954 v -9.820312 c 0,-0.143902 0.10805,-0.251953 0.251953,-0.251953 z m -16.81836,4.630859 c -0.53498,0 -0.978515,0.445488 -0.978515,0.980469 v 3.353516 c 0,0.53498 0.443535,0.978515 0.978515,0.978515 H 20.5625 c 0.534993,0 0.980469,-0.442931 0.980469,-0.978515 V 28.3125 c 0,-0.535585 -0.445476,-0.980469 -0.980469,-0.980469 z m 0.02148,1 h 3.3125 v 3.3125 h -3.3125 z"
     id="path9" />
</svg>
