<?xml version="1.0" encoding="UTF-8" standalone="no"?>
<!-- Generator: Gravit.io -->

<svg
   style="isolation:isolate"
   viewBox="0 0 48 48"
   width="48pt"
   height="48pt"
   version="1.1"
   id="svg9"
   sodipodi:docname="preferences-desktop-wallpaper.svg"
   inkscape:version="1.1.2 (0a00cf5339, 2022-02-04)"
   xmlns:inkscape="http://www.inkscape.org/namespaces/inkscape"
   xmlns:sodipodi="http://sodipodi.sourceforge.net/DTD/sodipodi-0.dtd"
   xmlns:xlink="http://www.w3.org/1999/xlink"
   xmlns="http://www.w3.org/2000/svg"
   xmlns:svg="http://www.w3.org/2000/svg">
  <defs
     id="defs13">
    <linearGradient
       inkscape:collect="always"
       xlink:href="#_lgradient_11"
       id="linearGradient872"
       x1="-12.025727"
       y1="6.1170783"
       x2="-0.085100174"
       y2="6.1170783"
       gradientUnits="userSpaceOnUse"
       gradientTransform="matrix(3.8358211,0,0,3.8371327,-0.00549648,-0.00264265)" />
    <linearGradient
       inkscape:collect="always"
       xlink:href="#_lgradient_11"
       id="linearGradient15-3"
       x1="-9.6850061"
       y1="45.161198"
       x2="11.98815"
       y2="21.735205"
       gradientUnits="userSpaceOnUse"
       gradientTransform="matrix(1.1147442,0,0,1.1150348,-0.01213412,-3.3277404)" />
    <linearGradient
       inkscape:collect="always"
       xlink:href="#_lgradient_11"
       id="linearGradient1007"
       x1="12.273908"
       y1="24.639441"
       x2="35.726093"
       y2="24.639441"
       gradientUnits="userSpaceOnUse" />
  </defs>
  <sodipodi:namedview
     id="namedview11"
     pagecolor="#ffffff"
     bordercolor="#666666"
     borderopacity="1.0"
     inkscape:pageshadow="2"
     inkscape:pageopacity="0.0"
     inkscape:pagecheckerboard="0"
     inkscape:document-units="pt"
     showgrid="false"
     inkscape:zoom="10.21875"
     inkscape:cx="31.95107"
     inkscape:cy="32"
     inkscape:window-width="1600"
     inkscape:window-height="836"
     inkscape:window-x="0"
     inkscape:window-y="0"
     inkscape:window-maximized="1"
     inkscape:current-layer="svg9" />
  <linearGradient
     id="_lgradient_11"
     x1="0.22078557924020603"
     y1="0.04723996636961164"
     x2="0.9022490870014594"
     y2="0.9061460265379022"
     gradientTransform="matrix(23.452184,0,0,23.452184,12.273908,12.913349)"
     gradientUnits="userSpaceOnUse">
    <stop
       offset="2.608695652173913%"
       stop-opacity="1"
       style="stop-color:rgb(237,184,212)"
       id="stop2" />
    <stop
       offset="98.69565217391305%"
       stop-opacity="1"
       style="stop-color:rgb(162,110,245)"
       id="stop4" />
  </linearGradient>
  <rect
     x="-46.783241"
     y="1.2254127"
     width="45.802109"
     height="45.800068"
     rx="6.1837621"
     shape-rendering="crispEdges"
     id="rect5-6-7-3"
     ry="6.8055172"
     transform="matrix(0.00524062,-0.99998627,0.99998801,0.00489692,0,0)"
     style="isolation:isolate;fill:#9b00ff;fill-opacity:0.13470298;stroke:url(#linearGradient872);stroke-width:2.0301;stroke-miterlimit:4;stroke-dasharray:none;stroke-opacity:1" />
  <rect
     x="-15.686565"
     y="17.260139"
     width="33.338203"
     height="33.345856"
     rx="6.7920032"
     shape-rendering="crispEdges"
     id="rect5-6-6-6-6-3"
     style="isolation:isolate;fill:#9b00ff;fill-opacity:0.13470298;stroke:url(#linearGradient15-3);stroke-width:1.67233;stroke-miterlimit:4;stroke-dasharray:none;stroke-opacity:1"
     ry="7.4743071"
     transform="matrix(0.72446484,-0.68931175,0.68622417,0.72739012,0,0)" />
  <path
     style="color:#000000;fill:url(#linearGradient1007);fill-rule:evenodd;-inkscape-stroke:none"
     d="m 14.939453,12.414063 c -1.741621,0 -3.166015,1.422441 -3.166015,3.164062 v 12.259766 c 0,1.741621 1.424394,3.164062 3.166015,3.164062 h 4.830078 v 2.732422 h -2.699219 c -0.858967,0 -1.564453,0.705486 -1.564453,1.564453 0,0.858967 0.705486,1.566406 1.564453,1.566406 h 13.859375 c 0.858968,0 1.564454,-0.707439 1.564454,-1.566406 0,-0.858967 -0.705486,-1.564453 -1.564454,-1.564453 h -2.699218 v -2.732422 h 4.830078 c 1.741621,0 3.166015,-1.422441 3.166015,-3.164062 v -5.863282 c 0,-0.858967 -0.707439,-1.566406 -1.566406,-1.566406 -0.858967,0 -1.566406,0.707439 -1.566406,1.566406 v 5.863282 c 0,0.02369 -0.0095,0.0332 -0.0332,0.0332 H 14.939453 c -0.02369,0 -0.0332,-0.0095 -0.0332,-0.0332 V 15.578125 c 0,-0.02369 0.0095,-0.0332 0.0332,-0.0332 h 18.121094 c 0.02369,0 0.0332,0.0095 0.0332,0.0332 v 1.599609 c 0,0.858968 0.707439,1.566407 1.566406,1.566407 0.858967,0 1.566406,-0.707439 1.566406,-1.566407 v -1.599609 c 0,-1.741621 -1.424394,-3.164062 -3.166015,-3.164062 z m 0,1 h 18.121094 c 1.200559,0 2.166015,0.963502 2.166015,2.164062 v 1.599609 c 0,0.317906 -0.248501,0.566407 -0.566406,0.566407 -0.317906,0 -0.566406,-0.248501 -0.566406,-0.566407 v -1.599609 c 0,-0.564748 -0.468455,-1.033203 -1.033203,-1.033203 H 14.939453 c -0.564748,0 -1.033203,0.468455 -1.033203,1.033203 v 12.259766 c 0,0.564748 0.468454,1.033203 1.033203,1.033203 h 18.121094 c 0.564749,0 1.033203,-0.468455 1.033203,-1.033203 v -5.863282 c 0,-0.317905 0.2485,-0.566406 0.566406,-0.566406 0.317905,0 0.566406,0.248501 0.566406,0.566406 v 5.863282 c 0,1.200559 -0.965456,2.164062 -2.166015,2.164062 h -5.830078 v 4.732422 h 3.699218 c 0.317906,0 0.564454,0.246547 0.564454,0.564453 0,0.317905 -0.246548,0.566406 -0.564454,0.566406 H 17.070312 c -0.317905,0 -0.564453,-0.248501 -0.564453,-0.566406 0,-0.317906 0.246548,-0.564453 0.564453,-0.564453 h 3.699219 v -4.732422 h -0.5 -5.330078 c -1.200559,0 -2.166015,-0.963503 -2.166015,-2.164062 V 15.578125 c 0,-1.20056 0.965456,-2.164062 2.166015,-2.164062 z m 4.962891,2.730468 c -1.024636,0 -1.865235,0.840599 -1.865235,1.865235 v 7.375 c 0,1.024293 0.840363,1.867187 1.865235,1.867187 h 8.195312 c 1.024531,0 1.865235,-0.842894 1.865235,-1.867187 v -2.457032 c 0,-0.54633 -0.443236,-0.979596 -0.980469,-1.019531 l 0.253906,-0.144531 c 0.466175,-0.265842 0.726563,-0.715292 0.726563,-1.251953 v -2.501953 c 0,-1.024636 -0.840941,-1.865235 -1.865235,-1.865235 z m 0,1 h 8.195312 c 0.483041,0 0.865235,0.381471 0.865235,0.865235 v 2.501953 c 0,0.0667 -0.163467,0.350172 -0.220704,0.382812 h -0.002 l -3.037109,1.736328 c -0.141536,0.08077 -0.330383,-0.04809 -0.533203,-0.07031 0.245658,0.02667 0.499558,-0.01648 0.734375,-0.150391 l 2.476562,-1.416015 c 0.336382,-0.191437 0.490235,-0.456265 0.490235,-0.841797 v -1.595703 c 0,-0.72282 -0.597492,-1.320313 -1.320313,-1.320313 h -7.101562 c -0.722821,0 -1.320313,0.597493 -1.320313,1.320313 v 5.27539 l 0.820313,-0.685547 2.472656,-2.060547 c 0.256095,-0.213658 0.702238,-0.192586 0.9375,0.04297 l 1.083984,1.083985 v 0.002 c 0.191036,0.191034 0.426164,0.29866 0.669922,0.33789 -0.200741,-0.03201 -0.416406,0.04439 -0.53125,-0.07031 l -0.966797,-0.96875 c -0.403802,-0.402793 -1.041761,-0.431486 -1.480468,-0.06641 l -2.47461,2.0625 -0.53125,0.439453 v 0.890625 c 0,0.723033 0.597492,1.318359 1.320313,1.318359 h 7.101562 c 0.722821,0 1.320313,-0.595326 1.320313,-1.318359 v -1.91211 c 0,-0.03136 0.01356,-0.04687 0.04492,-0.04687 0.03136,0 0.04687,0.01552 0.04687,0.04687 v 2.457032 c 0,0.483039 -0.382431,0.867187 -0.865235,0.867187 h -8.195312 c -0.483529,0 -0.865235,-0.384148 -0.865235,-0.867187 v -7.375 c 0,-0.483764 0.38147,-0.865235 0.865235,-0.865235 z m 0.546875,1.091797 h 5.117187 c -0.394855,0.261773 -0.701172,0.636195 -0.701172,1.140625 0,0.798044 0.658652,1.455078 1.457032,1.455078 0.79838,0 1.455078,-0.656697 1.455078,-1.455078 0,-0.503151 -0.302248,-0.878596 -0.695313,-1.140625 h 0.46875 c 0.181155,0 0.320313,0.139159 0.320313,0.320313 v 1.578125 l -2.460938,1.40625 c -0.03506,0.01999 -0.231,-0.0064 -0.259765,-0.03516 L 24.066406,20.421875 C 23.449929,19.80463 22.451516,19.759162 21.78125,20.318359 l -1.652344,1.376953 v -3.138671 c 0,-0.181154 0.139158,-0.320313 0.320313,-0.320313 z m 5.873047,0.683594 c 0.256967,0 0.455078,0.200065 0.455078,0.457031 0,0.256968 -0.198112,0.455078 -0.455078,0.455078 -0.256967,0 -0.457032,-0.197773 -0.457032,-0.455078 0,-0.257303 0.200064,-0.457031 0.457032,-0.457031 z m -3.546875,3.294922 v 0.002 c 0.02501,-0.02081 0.109145,-0.01775 0.132812,0.0059 L 23.875,23.189453 c 0.611516,0.610753 1.573943,0.738732 2.324219,0.310547 l 1.882812,-1.076172 c -0.09555,0.157508 -0.210937,0.308658 -0.210937,0.503906 v 1.91211 c 0,0.182006 -0.139158,0.318359 -0.320313,0.318359 h -7.101562 c -0.181155,0 -0.320313,-0.136353 -0.320313,-0.318359 v -0.421875 l 0.169922,-0.138672 z m -0.875,7.787109 v 0.5 4.232422 h 4.199218 v -4.732422 z m 1,1 h 2.199218 v 2.732422 h -2.199218 z"
     id="path7" />
</svg>
