<?xml version="1.0" encoding="UTF-8" standalone="no"?>
<!-- Generator: Gravit.io -->

<svg
   style="isolation:isolate"
   viewBox="0 0 48 48"
   width="48pt"
   height="48pt"
   version="1.1"
   id="svg9"
   sodipodi:docname="preferences-system-login.svg"
   inkscape:version="1.1.2 (0a00cf5339, 2022-02-04)"
   xmlns:inkscape="http://www.inkscape.org/namespaces/inkscape"
   xmlns:sodipodi="http://sodipodi.sourceforge.net/DTD/sodipodi-0.dtd"
   xmlns:xlink="http://www.w3.org/1999/xlink"
   xmlns="http://www.w3.org/2000/svg"
   xmlns:svg="http://www.w3.org/2000/svg">
  <defs
     id="defs13">
    <linearGradient
       inkscape:collect="always"
       xlink:href="#_lgradient_10"
       id="linearGradient872"
       x1="-12.025727"
       y1="6.1170783"
       x2="-0.085100174"
       y2="6.1170783"
       gradientUnits="userSpaceOnUse"
       gradientTransform="matrix(3.8358211,0,0,3.8371327,-0.00549648,-0.00264265)" />
    <linearGradient
       inkscape:collect="always"
       xlink:href="#_lgradient_10"
       id="linearGradient15-3"
       x1="-9.6850061"
       y1="45.161198"
       x2="11.98815"
       y2="21.735205"
       gradientUnits="userSpaceOnUse"
       gradientTransform="matrix(1.1147442,0,0,1.1150348,-0.01213412,-3.3277404)" />
    <linearGradient
       inkscape:collect="always"
       xlink:href="#_lgradient_10"
       id="linearGradient1040"
       x1="10.469604"
       y1="24"
       x2="37.530396"
       y2="24"
       gradientUnits="userSpaceOnUse" />
  </defs>
  <sodipodi:namedview
     id="namedview11"
     pagecolor="#ffffff"
     bordercolor="#666666"
     borderopacity="1.0"
     inkscape:pageshadow="2"
     inkscape:pageopacity="0.0"
     inkscape:pagecheckerboard="0"
     inkscape:document-units="pt"
     showgrid="false"
     inkscape:zoom="10.21875"
     inkscape:cx="31.95107"
     inkscape:cy="32"
     inkscape:window-width="1600"
     inkscape:window-height="836"
     inkscape:window-x="0"
     inkscape:window-y="0"
     inkscape:window-maximized="1"
     inkscape:current-layer="svg9" />
  <linearGradient
     id="_lgradient_10"
     x1="0"
     y1="0.5"
     x2="1"
     y2="0.5"
     gradientTransform="matrix(66.148605,0,0,66.148605,-9.0743028,-1.5574159)"
     gradientUnits="userSpaceOnUse">
    <stop
       offset="0%"
       stop-opacity="1"
       style="stop-color:rgb(255,224,49)"
       id="stop2" />
    <stop
       offset="100%"
       stop-opacity="1"
       style="stop-color:rgb(250,0,117)"
       id="stop4" />
  </linearGradient>
  <rect
     x="-46.783241"
     y="1.2254127"
     width="45.802109"
     height="45.800068"
     rx="6.1837621"
     shape-rendering="crispEdges"
     id="rect5-6-7-3"
     ry="6.8055172"
     transform="matrix(0.00524062,-0.99998627,0.99998801,0.00489692,0,0)"
     style="isolation:isolate;fill:#ff008d;fill-opacity:0.13470298;stroke:url(#linearGradient872);stroke-width:2.0301;stroke-miterlimit:4;stroke-dasharray:none;stroke-opacity:1" />
  <rect
     x="-15.686565"
     y="17.260139"
     width="33.338203"
     height="33.345856"
     rx="6.7920032"
     shape-rendering="crispEdges"
     id="rect5-6-6-6-6-3"
     style="isolation:isolate;fill:#ff008d;fill-opacity:0.13470298;stroke:url(#linearGradient15-3);stroke-width:1.67233;stroke-miterlimit:4;stroke-dasharray:none;stroke-opacity:1"
     ry="7.4743071"
     transform="matrix(0.72446484,-0.68931175,0.68622417,0.72739012,0,0)" />
  <path
     style="color:#000000;fill:url(#linearGradient1040);fill-rule:evenodd;-inkscape-stroke:none"
     d="m 24,9.96875 c -3.721361,0 -7.290269,1.483232 -9.919922,4.111328 C 11.445422,16.710056 9.96875,20.279198 9.96875,24 c 0,3.720802 1.476672,7.289944 4.111328,9.919922 2.629978,2.634656 6.19912,4.111328 9.919922,4.111328 3.720802,0 7.289944,-1.476672 9.919922,-4.111328 C 36.554578,31.289944 38.03125,27.720802 38.03125,24 c 0,-2.774885 -0.824036,-5.491127 -2.367188,-7.802734 l -0.002,-0.002 c -0.333822,-0.493834 -1.018189,-0.62463 -1.511718,-0.291015 -0.492061,0.332623 -0.626817,1.015893 -0.292969,1.509765 1.302805,1.946501 1.996094,4.237806 1.996094,6.585938 0,3.145249 -1.246121,6.15823 -3.470704,8.382812 C 30.15823,34.607395 27.145249,35.853516 24,35.853516 c -3.145249,0 -6.15823,-1.246121 -8.382812,-3.470704 C 13.392605,30.15823 12.146484,27.145249 12.146484,24 c 0,-3.145249 1.246121,-6.15823 3.470704,-8.382812 C 17.84177,13.392605 20.854751,12.146484 24,12.146484 c 1.766244,0 3.510837,0.395097 5.101562,1.150391 0.537172,0.25619 1.192714,0.02336 1.449219,-0.511719 C 30.808044,12.2485 30.57746,11.594095 30.041016,11.337891 28.154807,10.433008 26.085508,9.96875 24,9.96875 Z m 0,1 c 1.937526,0 3.858468,0.430495 5.607422,1.269531 l 0.002,0.002 c 0.04496,0.02132 0.06295,0.06752 0.04102,0.113282 -0.02312,0.04823 -0.06804,0.06445 -0.117188,0.04101 h -0.002 C 27.806135,11.574984 25.916194,11.146484 24,11.146484 c -3.409469,0 -6.678015,1.351843 -9.089844,3.763672 -2.411829,2.411829 -3.763672,5.680375 -3.763672,9.089844 0,3.409469 1.351843,6.678015 3.763672,9.089844 2.411829,2.411829 5.680375,3.763672 9.089844,3.763672 3.409469,0 6.678015,-1.351843 9.089844,-3.763672 2.411829,-2.411829 3.763672,-5.680375 3.763672,-9.089844 0,-2.54598 -0.751662,-5.032387 -2.166016,-7.144531 h -0.002 v -0.002 c -0.02997,-0.04434 -0.02076,-0.0899 0.02539,-0.121094 0.04399,-0.02974 0.09099,-0.0192 0.121094,0.02344 4.68e-4,6.64e-4 0.0015,-6.79e-4 0.002,0 1.432594,2.14693 2.197266,4.667884 2.197266,7.244141 0,3.456314 -1.371605,6.77048 -3.818359,9.212891 C 30.77048,35.659645 27.456314,37.03125 24,37.03125 c -3.456314,0 -6.77048,-1.371605 -9.212891,-3.818359 C 12.340355,30.77048 10.96875,27.456314 10.96875,24 c 0,-3.456314 1.371605,-6.77048 3.818359,-9.212891 C 17.229845,12.34582 20.544244,10.96875 24,10.96875 Z m 0.121094,3.949219 c -0.609675,0 -1.113282,0.503607 -1.113282,1.113281 v 8.541016 c 0,0.60937 0.502132,1.115234 1.113282,1.115234 0.61115,0 1.115234,-0.505864 1.115234,-1.115234 V 16.03125 c 0,-0.609674 -0.505559,-1.113281 -1.115234,-1.113281 z m 0,1 c 0.06985,0 0.115234,0.04343 0.115234,0.113281 v 8.541016 c 0,0.06715 -0.04686,0.115234 -0.115234,0.115234 -0.06838,0 -0.113281,-0.04809 -0.113282,-0.115234 V 16.03125 c 0,-0.06985 0.04343,-0.113281 0.113282,-0.113281 z m -2.384766,1.789062 c -0.265552,-0.106125 -0.571302,-0.112712 -0.851562,0.0059 h -0.002 l -0.002,0.002 c -2.531046,1.09481 -4.317373,3.43421 -4.6875,6.169922 -0.05419,0.362888 -0.07422,0.722088 -0.07422,1.078125 0,1.904979 0.69048,3.74388 1.945312,5.18164 1.253744,1.431934 2.988066,2.363926 4.878906,2.619141 0.347264,0.0464 0.706116,0.07227 1.0625,0.07227 h 0.002 c 1.902488,-0.0064 3.741789,-0.694264 5.179688,-1.949218 1.431934,-1.253744 2.36579,-2.987971 2.621094,-4.873047 v -0.002 c 0.0461,-0.351345 0.07227,-0.706391 0.07227,-1.06836 0,-1.45771 -0.409362,-2.882998 -1.175781,-4.123047 v -0.002 c -0.76296,-1.241075 -1.858631,-2.244187 -3.158203,-2.90039 -0.543648,-0.275882 -1.221069,-0.05173 -1.496094,0.490234 -0.275879,0.543647 -0.05173,1.221069 0.490235,1.496094 h 0.002 c 1.897933,0.960018 3.107422,2.916727 3.107422,5.039062 0,0.261358 -0.01631,0.51582 -0.05078,0.769532 -0.186904,1.350714 -0.85429,2.593366 -1.880859,3.490234 l -0.002,0.002 c -1.0282,0.903989 -2.341871,1.396362 -3.710938,1.402344 -0.24764,0 -0.507778,-0.0233 -0.767578,-0.05859 h -0.002 c -1.35002,-0.18083 -2.592953,-0.847957 -3.490234,-1.875 -0.899194,-1.029031 -1.396485,-2.350313 -1.396485,-3.710937 0,-0.261359 0.01631,-0.515819 0.05078,-0.769532 0.265042,-1.960218 1.547601,-3.644929 3.367187,-4.429687 h 0.0039 l 0.002,-0.002 c 0.556006,-0.24568 0.813773,-0.90553 0.574219,-1.462891 -0.120508,-0.280283 -0.345775,-0.485671 -0.611328,-0.591797 z m -0.462891,0.925781 c 0.06489,-0.02745 0.127715,-0.0013 0.154297,0.06055 l 0.002,0.002 c 0.02662,0.06162 0.002,0.124693 -0.06055,0.152344 -2.138158,0.923831 -3.646931,2.903027 -3.958985,5.210938 -0.04069,0.29953 -0.06055,0.600386 -0.06055,0.904297 0,1.604032 0.584376,3.15814 1.642578,4.36914 1.057107,1.209981 2.520744,1.995931 4.111329,2.208985 0.293441,0.03987 0.596742,0.06641 0.902343,0.06641 h 0.002 c 1.606915,-0.0065 3.157801,-0.587339 4.369141,-1.652344 1.209317,-1.057027 1.993598,-2.518766 2.212891,-4.107422 0.04069,-0.29953 0.06055,-0.600387 0.06055,-0.904297 0,-2.502049 -1.422905,-4.801964 -3.65625,-5.93164 -0.06239,-0.03166 -0.08159,-0.08968 -0.05078,-0.150391 0.03166,-0.06239 0.08968,-0.08159 0.150391,-0.05078 h 0.002 c 1.135443,0.573329 2.0926,1.450657 2.757813,2.533203 v 0.002 c 0.670197,1.083813 1.027343,2.325835 1.027343,3.597656 0,0.314549 -0.02337,0.624352 -0.06445,0.9375 -0.223133,1.644129 -1.037493,3.15784 -2.287109,4.251953 -1.255657,1.095899 -2.860615,1.697051 -4.523438,1.703125 -0.308107,0 -0.624486,-0.02172 -0.929687,-0.0625 -1.651113,-0.222858 -3.165236,-1.037019 -4.259766,-2.287109 -1.096448,-1.256287 -1.697265,-2.859402 -1.697265,-4.523437 0,-0.320483 0.01747,-0.628085 0.0625,-0.929688 l 0.002,-0.0039 v -0.0039 c 0.320661,-2.38886 1.877884,-4.434116 4.089843,-5.392579 z"
     id="path7" />
</svg>
