<?xml version="1.0" encoding="UTF-8" standalone="no"?>
<svg
   width="47.285591"
   height="47.28569"
   version="1.1"
   id="svg63"
   sodipodi:docname="applications-graphics.svg"
   inkscape:version="1.1.2 (0a00cf5339, 2022-02-04)"
   xmlns:inkscape="http://www.inkscape.org/namespaces/inkscape"
   xmlns:sodipodi="http://sodipodi.sourceforge.net/DTD/sodipodi-0.dtd"
   xmlns:xlink="http://www.w3.org/1999/xlink"
   xmlns="http://www.w3.org/2000/svg"
   xmlns:svg="http://www.w3.org/2000/svg"
   xmlns:rdf="http://www.w3.org/1999/02/22-rdf-syntax-ns#"
   xmlns:cc="http://creativecommons.org/ns#"
   xmlns:dc="http://purl.org/dc/elements/1.1/">
  <style
     id="style1006" />
  <metadata
     id="metadata181">
    <rdf:RDF>
      <cc:Work
         rdf:about="">
        <dc:format>image/svg+xml</dc:format>
        <dc:type
           rdf:resource="http://purl.org/dc/dcmitype/StillImage" />
      </cc:Work>
    </rdf:RDF>
  </metadata>
  <sodipodi:namedview
     id="namedview65"
     pagecolor="#000000"
     bordercolor="#666666"
     borderopacity="1.0"
     inkscape:showpageshadow="2"
     inkscape:pageopacity="0.0"
     inkscape:pagecheckerboard="0"
     inkscape:deskcolor="#d1d1d1"
     showgrid="false"
     inkscape:zoom="9.1001748"
     inkscape:cx="13.46128"
     inkscape:cy="25.054464"
     inkscape:window-width="1600"
     inkscape:window-height="836"
     inkscape:window-x="0"
     inkscape:window-y="0"
     inkscape:window-maximized="1"
     inkscape:current-layer="svg63"
     inkscape:document-rotation="0"
     inkscape:pageshadow="2">
    <inkscape:grid
       type="xygrid"
       id="grid468"
       originx="30.400758"
       originy="-11.147109"
       spacingy="1"
       spacingx="1"
       units="px"
       visible="false" />
  </sodipodi:namedview>
  <defs
     id="defs27">
    <linearGradient
       inkscape:collect="always"
       xlink:href="#_lgradient_3"
       id="linearGradient1168"
       x1="15.183738"
       y1="18.227345"
       x2="37.961281"
       y2="18.227345"
       gradientUnits="userSpaceOnUse"
       gradientTransform="matrix(0.99787278,0,0,0.99787278,-0.30615158,-0.3061006)" />
    <linearGradient
       id="_lgradient_3"
       x1="0.082020581"
       y1="0.43349615"
       x2="0.96617138"
       y2="0.6698159"
       gradientTransform="matrix(24.53376,17.291628,-16.875266,23.943243,22.743769,-2.3900893)"
       gradientUnits="userSpaceOnUse">
      <stop
         offset="0%"
         stop-opacity="1"
         style="stop-color:rgb(249,212,35)"
         id="stop9-3" />
      <stop
         offset="51.56237565086822%"
         stop-opacity="1"
         style="stop-color:rgb(255,78,80)"
         id="stop11" />
      <stop
         offset="99.1304347826087%"
         stop-opacity="1"
         style="stop-color:rgb(138,35,135)"
         id="stop13" />
    </linearGradient>
    <linearGradient
       inkscape:collect="always"
       xlink:href="#_lgradient_2"
       id="linearGradient1138"
       x1="19.12192"
       y1="39.533867"
       x2="52.210365"
       y2="39.533867"
       gradientUnits="userSpaceOnUse"
       gradientTransform="matrix(0.74840458,0,0,0.74840458,-0.30615158,-0.3061006)" />
    <linearGradient
       id="_lgradient_2"
       x1="-3.8208334e-05"
       y1="0.50000006"
       x2="0.99996185"
       y2="0.50000006"
       gradientTransform="matrix(24.815621,0,0,12.940454,14.342038,22.724006)"
       gradientUnits="userSpaceOnUse">
      <stop
         offset="0%"
         stop-opacity="1"
         style="stop-color:rgb(211,0,220)"
         id="stop2-6" />
      <stop
         offset="100%"
         stop-opacity="1"
         style="stop-color:rgb(135,0,255)"
         id="stop4-75" />
    </linearGradient>
    <linearGradient
       inkscape:collect="always"
       xlink:href="#_lgradient_2"
       id="linearGradient15-3"
       x1="-9.6850061"
       y1="45.161198"
       x2="11.98815"
       y2="21.735205"
       gradientUnits="userSpaceOnUse"
       gradientTransform="matrix(1.1121549,0,0,1.112749,0.06003006,-3.7531912)" />
    <linearGradient
       inkscape:collect="always"
       xlink:href="#_lgradient_2"
       id="linearGradient872"
       x1="-12.025727"
       y1="6.1170783"
       x2="-0.085100174"
       y2="6.1170783"
       gradientUnits="userSpaceOnUse"
       gradientTransform="matrix(3.8370803,0,0,3.8189869,0.35833441,-0.24823586)" />
  </defs>
  <rect
     x="-46.434765"
     y="0.97401208"
     width="45.817142"
     height="45.583481"
     rx="6.185792"
     shape-rendering="crispEdges"
     id="rect5-6-7-3"
     ry="6.773334"
     transform="matrix(0.00521413,-0.99998641,0.99998789,0.0049218,0,0)"
     style="isolation:isolate;fill:#e300ff;fill-opacity:0.134703;stroke:url(#linearGradient872);stroke-width:2.02562;stroke-miterlimit:4;stroke-dasharray:none;stroke-opacity:1" />
  <rect
     x="-15.577992"
     y="16.792484"
     width="33.260765"
     height="33.277496"
     rx="6.7762265"
     shape-rendering="crispEdges"
     id="rect5-6-6-6-6-3"
     style="isolation:isolate;fill:#e300ff;fill-opacity:0.134703;stroke:url(#linearGradient15-3);stroke-width:1.66867;stroke-miterlimit:4;stroke-dasharray:none;stroke-opacity:1"
     ry="7.4589849"
     transform="matrix(0.7227175,-0.69114356,0.68438191,0.72912372,0,0)" />
  <path
     style="color:#000000;isolation:isolate;fill:url(#linearGradient1138);stroke-width:0.748405;-inkscape-stroke:none"
     d="m 36.678483,22.584555 -0.287961,0.407822 -1.520197,2.15751 0.644622,0.453136 -3.541766,5.026881 -9.347748,-6.588006 c -0.703432,-0.495991 -1.691052,-0.325205 -2.186745,0.378587 l -1.78477,2.533174 -0.0015,0.0015 c -0.237385,0.340264 -0.327791,0.758985 -0.257264,1.166459 0.04177,0.241335 0.239902,0.408547 0.385896,0.605155 -0.318322,-0.207334 -0.674759,-0.332068 -1.033441,-0.339121 -0.63482,-0.01248 -1.266573,0.28258 -1.657599,0.83757 l -2.389925,3.389747 c -0.335183,0.475842 -0.219647,1.148043 0.255803,1.483653 l 2.113657,1.488039 c 0.475463,0.334918 1.148138,0.220513 1.483654,-0.255803 l 2.388463,-3.388284 c 0.612525,-0.86937 0.399694,-2.06557 -0.441441,-2.704197 0.235539,0.07352 0.460584,0.203272 0.706014,0.160791 0.40577,-0.07023 0.777731,-0.297547 1.017362,-0.649007 l 0.878499,-1.242469 9.341901,6.588007 c 0.703628,0.495579 1.691193,0.325004 2.186745,-0.378588 l 5.349924,-7.586366 c 0.495331,-0.70328 0.326142,-1.690871 -0.377127,-2.186745 z m 0.239723,1.391565 1.109451,0.783486 c 0.261365,0.184287 0.322232,0.532756 0.137403,0.795179 l -5.349924,7.586367 c -0.18461,0.262113 -0.533107,0.323447 -0.79518,0.138865 l -10.157545,-7.163928 -1.460266,2.068345 -0.0029,0.0044 c -0.0812,0.119092 -0.212171,0.20201 -0.362508,0.228029 -0.14806,0.02563 -0.301149,-0.0097 -0.419516,-0.09501 l -0.0058,-0.0029 -0.0058,-0.0044 c -0.119093,-0.0812 -0.202009,-0.212169 -0.228029,-0.362509 -0.02554,-0.147556 0.01,-0.304624 0.09209,-0.423901 l 0.0015,-0.0015 c 2.72e-4,-3.92e-4 -2.72e-4,-0.001 0,-0.0015 L 21.25439,24.99634 c 0.184469,-0.261911 0.533982,-0.323035 0.79518,-0.138864 l 10.163393,7.163927 4.693607,-6.661093 -0.644622,-0.451674 z m -17.8857,5.155513 c 0.0025,0.0018 0.0062,-3.36e-4 0.0088,0.0015 0.0019,0.0013 0.001,0.0046 0.0029,0.0058 z m -1.305323,0.252879 c 0.188586,0.0037 0.375394,0.06117 0.543763,0.179793 h 0.0015 l 0.616848,0.434133 c 0.446592,0.314652 0.551801,0.92109 0.236801,1.368177 L 16.737628,34.7549 c -0.02381,0.03381 -0.05743,0.0405 -0.09209,0.01608 L 14.53188,33.282941 c -0.0336,-0.02372 -0.04023,-0.05781 -0.01608,-0.09209 l 2.389925,-3.389746 c 0.197164,-0.279838 0.506089,-0.422794 0.821491,-0.416592 z"
     id="path7" />
  <path
     style="color:#000000;isolation:isolate;fill:url(#linearGradient1168);fill-rule:evenodd;stroke-width:0.997873;-inkscape-stroke:none"
     d="M 19.978731,7.5774841 C 18.87751,7.7647542 17.898058,8.3877128 17.256019,9.2984249 L 15.11605,12.334921 v 0.002 c -0.641812,0.911246 -0.899908,2.042519 -0.705527,3.143689 0.186538,1.104044 0.810287,2.083847 1.722889,2.726609 l 13.157499,9.275149 c 0.910755,0.642064 2.042991,0.899887 3.143689,0.705527 1.104236,-0.185963 2.085319,-0.810471 2.728559,-1.722889 l 2.139969,-3.036496 c 0.64329,-0.912494 0.901181,-2.045359 0.705527,-3.147587 -0.186873,-1.102455 -0.809726,-2.082268 -1.720941,-2.72466 L 23.128267,8.2810625 C 22.215858,7.6384377 21.081308,7.3811603 19.978731,7.5774841 Z m 0.171509,0.982281 h 0.002 0.002 c 0.837382,-0.1491034 1.70209,0.046942 2.399182,0.5379158 L 35.71287,18.372831 c 0.697084,0.491432 1.172322,1.238672 1.313605,2.077602 v 0.002 0.0039 c 0.148704,0.83773 -0.04654,1.700225 -0.537915,2.397233 l -2.139969,3.036496 c -0.491432,0.697084 -1.240622,1.172322 -2.079552,1.313605 l -0.002,0.002 h -0.002 c -0.837413,0.149022 -1.702053,-0.04654 -2.399183,-0.538002 L 16.708358,17.392515 C 16.011457,16.901676 15.53458,16.152086 15.392803,15.312964 v -0.002 -0.002 c -0.148674,-0.837558 0.04688,-1.702006 0.537915,-2.399183 l 2.14192,-3.0365035 C 18.564072,9.1762872 19.311886,8.7010299 20.15024,8.5597651 Z m 0.255315,1.4617279 c -0.456195,0.07505 -0.860706,0.329419 -1.124556,0.703579 l -2.141918,3.038443 c -0.262674,0.373549 -0.367528,0.838787 -0.284549,1.294117 0.07499,0.456607 0.330817,0.863013 0.705527,1.126505 l 13.157498,9.2732 c 0.374055,0.263775 0.841646,0.368586 1.296066,0.286499 0.457113,-0.07508 0.861215,-0.331776 1.124555,-0.705528 l 2.141918,-3.036495 c 0.263787,-0.374061 0.36735,-0.841013 0.284551,-1.296065 -0.07449,-0.457281 -0.329674,-0.860886 -0.703579,-1.124556 L 21.70162,10.306043 c -0.373336,-0.26305 -0.8405,-0.3674378 -1.296065,-0.28455 z m 0.175408,0.978383 c 0.187749,-0.03513 0.38552,0.0099 0.545712,0.122785 l 13.159447,9.273201 c 0.160971,0.113514 0.266492,0.285799 0.296244,0.473599 l 0.002,0.0059 0.002,0.0078 c 0.03522,0.188276 -0.0096,0.383231 -0.122785,0.543763 l -2.139969,3.036496 v 0.002 c -0.112777,0.160058 -0.282608,0.266033 -0.471652,0.296243 l -0.0078,0.002 h -0.0059 c -0.187843,0.0349 -0.385171,-0.0076 -0.545711,-0.120837 L 18.133121,15.36764 C 17.972955,15.255013 17.86717,15.085558 17.836878,14.895989 l -0.002,-0.0078 v -0.0059 c -0.03503,-0.18691 0.0076,-0.384667 0.120837,-0.545711 l 2.139969,-3.036496 c 0.113334,-0.160717 0.284696,-0.267955 0.4736,-0.298193 h 0.0059 z"
     id="path16" />
</svg>
