<?xml version="1.0" encoding="UTF-8" standalone="no"?>
<svg
   width="47.285591"
   height="47.28569"
   version="1.1"
   viewBox="0 0 12.510734 12.51076"
   id="svg12"
   sodipodi:docname="applications-other.svg"
   inkscape:version="1.1.2 (0a00cf5339, 2022-02-04)"
   xmlns:inkscape="http://www.inkscape.org/namespaces/inkscape"
   xmlns:sodipodi="http://sodipodi.sourceforge.net/DTD/sodipodi-0.dtd"
   xmlns:xlink="http://www.w3.org/1999/xlink"
   xmlns="http://www.w3.org/2000/svg"
   xmlns:svg="http://www.w3.org/2000/svg"
   xmlns:rdf="http://www.w3.org/1999/02/22-rdf-syntax-ns#"
   xmlns:cc="http://creativecommons.org/ns#"
   xmlns:dc="http://purl.org/dc/elements/1.1/">
  <style
     id="style860" />
  <metadata
     id="metadata35">
    <rdf:RDF>
      <cc:Work
         rdf:about="">
        <dc:format>image/svg+xml</dc:format>
        <dc:type
           rdf:resource="http://purl.org/dc/dcmitype/StillImage" />
      </cc:Work>
    </rdf:RDF>
  </metadata>
  <defs
     id="defs16">
    <linearGradient
       inkscape:collect="always"
       xlink:href="#_lgradient_2"
       id="linearGradient1022"
       x1="11.616061"
       y1="21.938883"
       x2="36.383938"
       y2="21.938883"
       gradientUnits="userSpaceOnUse"
       gradientTransform="matrix(0.26463727,0,0,0.26463727,-0.09592752,-0.09591469)" />
    <linearGradient
       id="_lgradient_2"
       x1="0"
       y1="0.49999997"
       x2="1"
       y2="0.49999997"
       gradientTransform="matrix(24.767878,0,0,24.767878,11.616061,9.5549438)"
       gradientUnits="userSpaceOnUse">
      <stop
         offset="0%"
         stop-opacity="1"
         style="stop-color:rgb(255,143,195)"
         id="stop2-3" />
      <stop
         offset="100%"
         stop-opacity="1"
         style="stop-color:rgb(161,161,255)"
         id="stop4-6" />
    </linearGradient>
    <linearGradient
       inkscape:collect="always"
       xlink:href="#_lgradient_2"
       id="linearGradient15"
       x1="-9.6850061"
       y1="45.161198"
       x2="11.98815"
       y2="21.735205"
       gradientUnits="userSpaceOnUse"
       gradientTransform="matrix(0.29500286,0,0,0.29507977,-0.00723198,-1.0162708)" />
    <linearGradient
       inkscape:collect="always"
       xlink:href="#_lgradient_2"
       id="linearGradient872-7"
       x1="-12.025727"
       y1="6.1170783"
       x2="-0.085100174"
       y2="6.1170783"
       gradientUnits="userSpaceOnUse"
       gradientTransform="matrix(1.0151012,0,0,1.0154499,0.09400327,-0.09713823)" />
  </defs>
  <sodipodi:namedview
     id="namedview14"
     pagecolor="#000000"
     bordercolor="#666666"
     borderopacity="1.0"
     inkscape:showpageshadow="2"
     inkscape:pageopacity="0.0"
     inkscape:pagecheckerboard="0"
     inkscape:deskcolor="#d1d1d1"
     showgrid="false"
     inkscape:zoom="9.0252824"
     inkscape:cx="-0.055399929"
     inkscape:cy="29.805162"
     inkscape:window-width="1600"
     inkscape:window-height="836"
     inkscape:window-x="0"
     inkscape:window-y="0"
     inkscape:window-maximized="1"
     inkscape:current-layer="svg12"
     inkscape:document-rotation="0"
     inkscape:pageshadow="2">
    <inkscape:grid
       type="xygrid"
       id="grid244"
       originx="9.9594769"
       originy="-31.57929"
       spacingy="1"
       spacingx="1"
       units="px"
       visible="false" />
  </sodipodi:namedview>
  <rect
     x="-12.285131"
     y="0.2278515"
     height="12.120424"
     rx="1.636454"
     shape-rendering="crispEdges"
     id="rect5-6-7-3-5"
     ry="1.8009963"
     transform="matrix(0.00524064,-0.99998627,0.99998801,0.00489689,0,0)"
     style="isolation:isolate;fill:#ff00b2;fill-opacity:0.134703;stroke:url(#linearGradient872-7);stroke-width:0.53724;stroke-miterlimit:4;stroke-dasharray:none;stroke-opacity:1"
     width="12.120916" />
  <rect
     x="-4.1552706"
     y="4.4320498"
     height="8.8245564"
     rx="1.7974172"
     shape-rendering="crispEdges"
     id="rect5-6-6-6-6"
     style="isolation:isolate;fill:#ff00b2;fill-opacity:0.134703;stroke:url(#linearGradient15);stroke-width:0.442561;stroke-miterlimit:4;stroke-dasharray:none;stroke-opacity:1"
     ry="1.9779803"
     transform="matrix(0.72446485,-0.68931175,0.68622416,0.72739013,0,0)"
     width="8.8225307" />
  <path
     style="color:#000000;isolation:isolate;fill:url(#linearGradient1022);fill-rule:evenodd;stroke-width:0.264637;-inkscape-stroke:none"
     d="m 6.255367,2.3002931 c -0.1021196,0 -0.2044265,0.01196 -0.3023688,0.034113 -3.705e-4,7.95e-5 -6.616e-4,4.367e-4 -0.00103,5.16e-4 -0.1024575,0.021373 -0.1996443,0.056463 -0.2899642,0.099239 h -5.292e-4 l -5.293e-4,5.161e-4 c -0.094749,0.04597 -0.187187,0.1022089 -0.2708396,0.1705669 -1.932e-4,1.522e-4 -3.176e-4,3.705e-4 -5.293e-4,5.293e-4 -4.763e-4,3.97e-4 -0.00106,6.351e-4 -0.00156,0.00103 -0.09225,0.07282 -0.1768976,0.1548557 -0.2517156,0.2424117 l -0.00103,0.00103 -5.292e-4,0.00103 c -0.09635,0.1175442 -0.1699257,0.249559 -0.2201865,0.3907533 -6.16e-5,1.575e-4 6.17e-5,3.705e-4 0,5.293e-4 -0.054074,0.1380793 -0.085234,0.2859083 -0.088902,0.4352045 v 0.00156 0.00982 0.6595258 h -1.165024 c -0.4484763,0 -0.8151037,0.3666272 -0.8151037,0.8151035 v 3.1404999 c 0,0.4484763 0.3666274,0.8151037 0.8151037,0.8151037 h 5.1893712 c 0.4484763,0 0.8151037,-0.3666274 0.8151037,-0.8151037 V 7.8266636 c 0,-0.2223461 -0.1833968,-0.4057427 -0.4057429,-0.4057427 -0.2223459,0 -0.4052258,0.1833966 -0.4052258,0.4057427 v 0.2046802 c 0,0.1545379 -0.1230212,0.2775593 -0.277559,0.2775593 h -4.642466 c -0.1545379,0 -0.277559,-0.1230214 -0.277559,-0.2775593 V 5.1596161 h 1.169159 v 0.099756 c 0,0.2472466 0.2085209,0.4465754 0.4569129,0.4465754 0.248392,0 0.4563958,-0.1993288 0.4563958,-0.4465754 v -1.562497 c 0.00122,-0.048573 0.011628,-0.096253 0.031529,-0.1431728 l 0.00259,-0.00569 0.00206,-0.0062 c 0.013859,-0.043826 0.039086,-0.089035 0.068744,-0.1261163 0.03815,-0.043589 0.078122,-0.082935 0.1219814,-0.1173294 l 0.00156,-0.00156 0.00206,-0.00156 c 0.026143,-0.022121 0.058096,-0.04138 0.093553,-0.057889 l 0.00206,-0.00103 0.00156,-0.00103 c 0.026681,-0.013488 0.057731,-0.024511 0.088385,-0.031529 v 5.293e-4 c 0.031999,-0.00725 0.065781,-0.011372 0.1002726,-0.011372 0.034492,0 0.068274,0.00412 0.1002727,0.011372 v -5.293e-4 c 0.030655,0.00702 0.061704,0.018043 0.088385,0.031529 l 0.00156,0.00103 0.00206,0.00103 c 0.035454,0.016508 0.067409,0.035767 0.093554,0.057889 l 0.00206,0.00156 0.00156,0.00156 c 0.043859,0.034395 0.083831,0.073741 0.1219811,0.1173294 0.029657,0.037081 0.054883,0.082289 0.068744,0.1261163 l 0.00206,0.0062 0.00259,0.00569 c 0.019901,0.046924 0.030322,0.094606 0.031529,0.1431728 V 4.3486476 H 6.3918621 c -0.2223461,0 -0.4052258,0.18288 -0.4052258,0.4052258 0,0.2223459 0.1828797,0.4057427 0.4052258,0.4057427 h 0.3798992 v 0.099756 c 0,0.2472466 0.2080039,0.4465754 0.4563959,0.4465754 0.2483919,0 0.4569129,-0.1993288 0.4569129,-0.4465754 v -0.099756 h 1.169159 v 1.6426117 c 2e-7,0.2223461 0.1828799,0.4057427 0.4052258,0.4057427 0.2223461,0 0.4057429,-0.1833966 0.4057429,-0.4057427 V 5.1637511 c 0,-0.4484763 -0.3666274,-0.8151035 -0.8151037,-0.8151035 h -1.165024 v -0.6595258 -0.00982 -0.00156 C 7.6814022,3.5284441 7.6502428,3.3806145 7.5961684,3.2425353 7.5459045,3.1011803 7.4724287,2.9689273 7.3759819,2.8512651 l -5.292e-4,-0.00103 -0.00103,-0.00103 C 7.2996026,2.7616449 7.2149547,2.6796095 7.122705,2.6067892 l -0.00156,-0.00103 C 7.037323,2.537199 6.9447275,2.480752 6.8497671,2.4346792 l -5.292e-4,-5.16e-4 H 6.8487086 C 6.7584141,2.391387 6.6612276,2.3562963 6.5587694,2.3349234 6.4605087,2.3126165 6.3578499,2.3002931 6.255367,2.3002931 Z m 0,0.2646374 c 0.081891,0 0.1664023,0.00974 0.2460298,0.027911 l 0.00156,5.292e-4 0.00103,5.293e-4 c 0.078731,0.016339 0.1567137,0.043635 0.2315576,0.079081 0.079161,0.038495 0.1542394,0.085237 0.2191528,0.138521 l 0.00103,5.292e-4 0.00103,0.00103 c 0.07798,0.061367 0.150758,0.1319233 0.2145006,0.2062308 0.077718,0.094813 0.1369067,0.2000806 0.1772864,0.3147739 l 5.292e-4,0.00206 0.00103,0.00206 c 0.043036,0.1097649 0.067411,0.2289464 0.070294,0.3463025 v 0.00465 0.9241631 h 1.4296613 c 0.3052911,0 0.5504664,0.245175 0.5504664,0.5504662 v 1.6384767 c 0,0.079161 -0.061945,0.1411054 -0.1411056,0.1411054 -0.079161,0 -0.1405886,-0.061945 -0.1405886,-0.1411054 V 4.8950079 H 7.4204074 V 5.259401 c 0,0.099323 -0.082628,0.1819381 -0.1922756,0.1819381 -0.1096475,0 -0.1917586,-0.082616 -0.1917586,-0.1819381 V 4.8950079 H 6.3918367 c -0.079161,0 -0.1405886,-0.061944 -0.1405886,-0.1411054 0,-0.079161 0.061428,-0.1405885 0.1405886,-0.1405885 H 7.0363732 V 3.6917353 3.690174 C 7.034362,3.6093427 7.015443,3.5310619 6.9852029,3.4575824 6.960335,3.38122 6.9224228,3.3095586 6.8725254,3.2477336 l -0.00156,-0.00156 -0.00156,-0.00206 C 6.8212967,3.1887859 6.7680622,3.1376 6.7096901,3.0916314 6.6620729,3.0517821 6.6107465,3.0213133 6.559798,2.9975611 c -1.262e-4,-5.88e-5 -3.97e-4,5.87e-5 -5.293e-4,0 C 6.5126039,2.9744 6.4635923,2.9571044 6.4145452,2.9458743 6.3621547,2.9340053 6.3085239,2.9282997 6.2553495,2.9282997 c -0.053174,0 -0.1068052,0.00571 -0.159196,0.017575 -0.049048,0.011229 -0.098058,0.028526 -0.1447235,0.051687 -1.26e-4,5.87e-5 -3.97e-4,-5.88e-5 -5.293e-4,0 -0.050945,0.023751 -0.1022738,0.05422 -0.1498921,0.09407 C 5.7426365,3.1376 5.6894021,3.1887859 5.6412958,3.244108 l -0.00156,0.00206 -0.00156,0.00156 c -0.0499,0.06183 -0.087813,0.1334907 -0.1126805,0.2098544 -0.030241,0.073483 -0.049159,0.1517666 -0.05117,0.2325916 v 0.00156 1.5676657 c 0,0.099323 -0.082111,0.1819381 -0.1917586,0.1819381 -0.1096477,0 -0.1922756,-0.082616 -0.1922756,-0.1819381 V 4.8950079 H 3.3918575 v 3.136365 c 0,0.2977228 0.2444735,0.5421966 0.5421963,0.5421966 h 4.6425231 c 0.2977228,0 0.5421965,-0.2444738 0.5421963,-0.5421966 V 7.8266636 c 0,-0.079161 0.061428,-0.1411054 0.1405885,-0.1411054 0.079161,0 0.1411057,0.061944 0.1411057,0.1411054 V 8.304251 c 0,0.3052911 -0.2451753,0.5504664 -0.5504664,0.5504664 H 3.6606814 c -0.3052912,0 -0.5504665,-0.2451753 -0.5504665,-0.5504664 V 5.1637511 c 0,-0.3052912 0.2451753,-0.5504662 0.5504665,-0.5504662 H 5.0903427 V 4.4809663 3.6891218 3.6844695 c 0.00288,-0.1173566 0.027259,-0.2365376 0.070294,-0.3463025 l 0.00103,-0.00206 5.293e-4,-0.00206 C 5.202578,3.2193454 5.261767,3.114078 5.3394844,3.0192648 5.4032273,2.9449573 5.4760054,2.8744013 5.5539853,2.813034 l 0.00103,-0.00103 0.00103,-5.292e-4 C 5.6212463,2.7579548 5.6966841,2.7110317 5.7762317,2.672437 5.8507517,2.637229 5.928392,2.610135 6.0067556,2.593873 l 0.00103,-5.293e-4 0.00156,-5.293e-4 c 0.079613,-0.018139 0.1641232,-0.027882 0.2460137,-0.027882 z m 0,3.0128331 c -0.2001153,0 -0.36491,0.1647947 -0.36491,0.3649099 V 7.0803036 C 5.7488308,6.940595 5.5175617,6.940464 5.3766884,7.0813357 c -0.1414111,0.1414108 -0.1414111,0.3749418 0,0.5163529 l 0.5106674,0.5106671 c 0.097529,0.097346 0.2294889,0.1535102 0.3680112,0.1535102 0.1385222,0 0.2704825,-0.056164 0.3680112,-0.1535102 L 7.1340453,7.5976886 c 0.1414113,-0.1414111 0.1414113,-0.3749421 0,-0.5163529 C 6.9931722,6.9404622 6.7619031,6.9405932 6.6202769,7.0803036 V 5.9426735 c 0,-0.2001152 -0.1647947,-0.3649099 -0.3649099,-0.3649099 z m 0,0.2646373 c 0.056876,0 0.1002726,0.043397 0.1002726,0.1002726 V 7.7176042 L 6.5815118,7.491732 6.8053163,7.2684443 c 0.040156,-0.040156 0.1014662,-0.040156 0.1416222,0 0.040203,0.040203 0.040203,0.1019357 0,0.1421391 L 6.4367882,7.9207339 c -0.048582,0.048491 -0.1151156,0.076497 -0.1814212,0.076497 -0.066306,0 -0.132839,-0.028005 -0.1814213,-0.076497 L 5.5637954,7.4105834 c -0.040203,-0.040203 -0.040203,-0.1019359 0,-0.1421391 0.040156,-0.040156 0.1014659,-0.040156 0.1416222,0 L 6.1550943,7.7176042 V 5.9426735 c 0,-0.056876 0.043397,-0.1002726 0.1002727,-0.1002726 z"
     id="path7" />
</svg>
