<?xml version="1.0" encoding="UTF-8" standalone="no"?>
<!-- Generator: Gravit.io -->

<svg
   style="isolation:isolate"
   viewBox="0 0 48 48"
   width="48pt"
   height="48pt"
   version="1.1"
   id="svg25"
   sodipodi:docname="applications-utilities.svg"
   inkscape:version="1.1.2 (0a00cf5339, 2022-02-04)"
   xmlns:inkscape="http://www.inkscape.org/namespaces/inkscape"
   xmlns:sodipodi="http://sodipodi.sourceforge.net/DTD/sodipodi-0.dtd"
   xmlns:xlink="http://www.w3.org/1999/xlink"
   xmlns="http://www.w3.org/2000/svg"
   xmlns:svg="http://www.w3.org/2000/svg">
  <defs
     id="defs29">
    <inkscape:perspective
       sodipodi:type="inkscape:persp3d"
       inkscape:vp_x="0 : 24 : 1"
       inkscape:vp_y="0 : 1000 : 0"
       inkscape:vp_z="48 : 24 : 1"
       inkscape:persp3d-origin="24 : 16 : 1"
       id="perspective2051" />
    <linearGradient
       inkscape:collect="always"
       xlink:href="#_lgradient_0"
       id="linearGradient15"
       x1="-9.6850061"
       y1="45.161198"
       x2="11.98815"
       y2="21.735205"
       gradientUnits="userSpaceOnUse"
       gradientTransform="matrix(1.1147442,0,0,1.1150348,-0.01240999,-3.3277564)" />
    <linearGradient
       id="_lgradient_32"
       x1="0.51808703"
       y1="0.033331186"
       x2="0.50732738"
       y2="0.96818912"
       gradientTransform="matrix(-47,0,0,-44,47.5,46)"
       gradientUnits="userSpaceOnUse">
      <stop
         offset="0%"
         stop-opacity="1"
         style="stop-color:rgb(244,97,51)"
         id="stop4-3" />
      <stop
         offset="98.75%"
         stop-opacity="1"
         style="stop-color:rgb(240,80,129)"
         id="stop6" />
    </linearGradient>
    <linearGradient
       inkscape:collect="always"
       xlink:href="#_lgradient_0"
       id="linearGradient872"
       x1="-12.025727"
       y1="6.1170783"
       x2="-0.085100174"
       y2="6.1170783"
       gradientUnits="userSpaceOnUse"
       gradientTransform="matrix(3.8358211,0,0,3.8371386,-0.00549785,-0.0026806)" />
    <linearGradient
       inkscape:collect="always"
       xlink:href="#_lgradient_1"
       id="linearGradient1127"
       x1="1.92"
       y1="24"
       x2="46"
       y2="24"
       gradientUnits="userSpaceOnUse" />
  </defs>
  <sodipodi:namedview
     id="namedview27"
     pagecolor="#ffffff"
     bordercolor="#666666"
     borderopacity="1.0"
     inkscape:pageshadow="2"
     inkscape:pageopacity="0.0"
     inkscape:pagecheckerboard="0"
     inkscape:document-units="pt"
     showgrid="false"
     inkscape:zoom="10.21875"
     inkscape:cx="38.018349"
     inkscape:cy="32.04893"
     inkscape:window-width="1056"
     inkscape:window-height="545"
     inkscape:window-x="476"
     inkscape:window-y="211"
     inkscape:window-maximized="0"
     inkscape:current-layer="svg25" />
  <rect
     x="-46.783241"
     y="1.2253767"
     width="45.802109"
     height="45.80014"
     rx="6.1837621"
     shape-rendering="crispEdges"
     id="rect5-6-7-3"
     ry="6.8055277"
     transform="matrix(0.00524063,-0.99998627,0.99998801,0.00489691,0,0)"
     style="isolation:isolate;fill:#ff00fe;fill-opacity:0.13607298;stroke:url(#linearGradient872);stroke-width:2.0301;stroke-miterlimit:4;stroke-dasharray:none;stroke-opacity:1" />
  <rect
     x="-15.686841"
     y="17.260124"
     width="33.338203"
     height="33.345856"
     rx="6.7920032"
     shape-rendering="crispEdges"
     id="rect5-6-6-6-6"
     style="isolation:isolate;fill:#ff00fe;fill-opacity:0.13607298;stroke:url(#linearGradient15);stroke-width:1.67233;stroke-miterlimit:4;stroke-dasharray:none;stroke-opacity:1"
     ry="7.4743071"
     transform="matrix(0.72446484,-0.68931175,0.68622417,0.72739012,0,0)" />
  <linearGradient
     id="_lgradient_1"
     x1="0"
     y1="0.5"
     x2="1"
     y2="0.5"
     gradientTransform="matrix(43.6,0,0,23.49,1.92,10.42)"
     gradientUnits="userSpaceOnUse">
    <stop
       offset="0%"
       stop-opacity="1"
       style="stop-color:rgb(52,148,230)"
       id="stop11" />
    <stop
       offset="98.69565217391305%"
       stop-opacity="1"
       style="stop-color:rgb(236,110,173)"
       id="stop13" />
  </linearGradient>
  <g
     id="g955"
     transform="matrix(0.51521385,0,0,0.51521385,11.615476,11.634868)"
     style="fill:none;stroke:url(#linearGradient1127);stroke-width:1.94094;stroke-miterlimit:4;stroke-dasharray:none">
    <g
       id="g9"
       style="fill:none;stroke:url(#linearGradient1127);stroke-width:1.94094;stroke-miterlimit:4;stroke-dasharray:none">
      <linearGradient
         id="_lgradient_0"
         x1="0"
         y1="0.5"
         x2="1"
         y2="0.5"
         gradientTransform="matrix(38,0,0,23,7,20)"
         gradientUnits="userSpaceOnUse"
         style="stroke:url(#linearGradient1127)">
        <stop
           offset="0%"
           stop-opacity="1"
           style="stop-color:rgb(52, 148, 230);stroke:url(#linearGradient1127)"
           id="stop2" />
        <stop
           offset="98.69565217391305%"
           stop-opacity="1"
           style="stop-color:rgb(236, 110, 173);stroke:url(#linearGradient1127)"
           id="stop4" />
      </linearGradient>
    </g>
    <path
       style="color:#000000;fill:url(#linearGradient1127);stroke:none;-inkscape-stroke:none"
       d="M 7,1.0292969 C 3.7149181,1.0292969 1.0292969,3.7149181 1.0292969,7 v 34 c 0,3.285082 2.6856212,5.970703 5.9707031,5.970703 h 34 c 3.285082,0 5.970703,-2.685621 5.970703,-5.970703 v -4.269531 c 0,-1.629084 -1.341619,-2.970703 -2.970703,-2.970703 -1.629084,0 -2.970703,1.341619 -2.970703,2.970703 V 39 c 0,1.130914 -0.898383,2.029297 -2.029297,2.029297 H 9 c -0.9736299,0 -1.66114,-0.722001 -1.8652344,-1.628906 0.4047222,0.289967 0.8351539,0.570312 1.3652344,0.570312 1.3530839,0 2.470703,-1.117619 2.470703,-2.470703 0,-1.353084 -1.1176191,-2.470703 -2.470703,-2.470703 -0.5937568,0 -1.1008147,0.282845 -1.5292969,0.638672 V 33.332031 C 7.3991853,33.687858 7.9062432,33.970703 8.5,33.970703 c 1.3530839,0 2.470703,-1.117619 2.470703,-2.470703 0,-1.353084 -1.1176191,-2.470703 -2.470703,-2.470703 -0.5937568,0 -1.1008147,0.282845 -1.5292969,0.638672 V 28.332031 C 7.3991853,28.687858 7.9062432,28.970703 8.5,28.970703 c 1.3530839,0 2.470703,-1.117619 2.470703,-2.470703 0,-1.353084 -1.1176191,-2.470703 -2.470703,-2.470703 -0.5937568,0 -1.1008147,0.282845 -1.5292969,0.638672 v -0.892578 c 0.0306,-0.04579 0.1847008,-0.101351 0.2148438,-0.134766 0.090306,-0.100108 0.162186,-0.193112 0.2460937,-0.300781 0.3390354,-0.435045 0.8576874,-1.109916 1.625,-1.773438 0.041373,1.318249 1.1160044,2.404297 2.4433594,2.404297 1.240802,0 2.18512,-0.982277 2.349609,-2.181641 l 4.824219,7.933594 c 9.34e-4,0.0016 0.003,0.0023 0.0039,0.0039 l 0.0039,0.0078 c 0.909953,1.541265 2.178667,2.829299 3.693359,3.777344 l 0.0059,0.0039 0.0059,0.0039 c 1.450784,0.88163 3.112055,1.35018 4.80664,1.361328 h 0.0078 0.0059 c 1.375727,-0.01109 2.734654,-0.311304 3.982422,-0.890625 l 0.002,-0.002 h 0.002 c 0.71279,-0.335777 1.261356,-0.904246 1.884766,-1.373047 0.07066,1.292207 1.113629,2.355469 2.421875,2.355469 1.353084,0 2.470703,-1.117619 2.470703,-2.470703 0,-1.231706 -0.971449,-2.163816 -2.158203,-2.339844 0.861868,-0.950652 1.718622,-1.905362 2.535156,-2.898437 0.348801,0.943868 1.095035,1.708984 2.152344,1.708984 1.127875,0 1.938827,-0.848511 2.228516,-1.890625 0.411857,0.217508 0.777241,0.53125 1.271484,0.53125 1.629084,0 2.970703,-1.341619 2.970703,-2.970703 V 7 C 46.970703,3.7149181 44.285082,1.0292969 41,1.0292969 Z m 0,1.9414062 h 34 c 2.234913,0 4.029297,1.7943844 4.029297,4.0292969 v 17.640625 c 0,0.578914 -0.450383,1.029297 -1.029297,1.029297 -0.578914,0 -1.029297,-0.450383 -1.029297,-1.029297 V 9 C 42.970703,6.818917 41.181083,5.0292969 39,5.0292969 H 9 C 6.818917,5.0292969 5.0292969,6.818917 5.0292969,9 v 30 c 0,2.181083 1.7896201,3.970703 3.9707031,3.970703 h 30 c 2.181083,0 3.970703,-1.78962 3.970703,-3.970703 v -2.269531 c 0,-0.578914 0.450383,-1.029297 1.029297,-1.029297 0.578914,0 1.029297,0.450383 1.029297,1.029297 V 41 c 0,2.234913 -1.794384,4.029297 -4.029297,4.029297 H 7 C 4.7650875,45.029297 2.9707031,43.234913 2.9707031,41 V 7 C 2.9707031,4.7650875 4.7650875,2.9707031 7,2.9707031 Z m 2,4 h 30 c 1.130914,0 2.029297,0.8983833 2.029297,2.0292969 v 5.882813 l -0.22461,-0.05078 c -0.688902,1.445726 -1.485604,2.832632 -2.386718,4.150391 v 0.002 c -1.08508,1.598027 -2.240209,3.155948 -3.451172,4.642578 v 0.002 l -0.002,0.002 c -1.23279,1.52866 -2.526394,2.998303 -3.878907,4.419922 l -0.0039,0.0039 -0.0039,0.0059 c -0.564316,0.607724 -1.231211,1.09034 -1.982422,1.449219 -0.597132,0.277509 -1.230543,0.41759 -1.894531,0.427734 -0.798669,-0.01 -1.561625,-0.223102 -2.22461,-0.626953 -0.840378,-0.52471 -1.538737,-1.247119 -2.050781,-2.105469 -4.81e-4,-8.06e-4 -0.0015,-0.0011 -0.002,-0.002 -0.0053,-0.01006 -0.01944,-0.04282 -0.01953,-0.04297 -2.5e-5,-3.8e-5 -0.01064,-0.01053 -0.01172,-0.01172 l -5.132812,-8.443359 0.0078,0.01563 C 17.146001,17.658665 16.2983,16.740377 15.275297,16.047008 l -0.002,-0.002 h -0.0039 c -1.007242,-0.675445 -2.190006,-1.042821 -3.40039,-1.054688 h -0.0098 -0.0098 c -1.164231,0.01176 -2.3128991,0.340097 -3.302734,0.982422 -7.898e-4,5.06e-4 -0.00116,0.0014 -0.00195,0.002 -0.00124,8.05e-4 -0.00267,0.0011 -0.00391,0.002 -0.6346353,0.407229 -1.0752252,1.015753 -1.5703125,1.570312 V 9 C 6.9707031,7.8690864 7.8690864,6.9707031 9,6.9707031 Z m 2.859375,9.9628909 c 0.824492,0.01017 1.637166,0.259694 2.326172,0.720703 1.64e-4,1.1e-4 -1.64e-4,0.0018 0,0.002 0.776469,0.52654 1.427979,1.22556 1.90625,2.042969 l 0.0039,0.0078 5.023438,8.259766 0.136718,0.230469 c 0.0024,0.004 0.0074,0.0058 0.0098,0.0098 l 0.269531,0.44336 h 0.16211 c 0.625201,0.888314 1.3266,1.733605 2.259765,2.314453 l 0.0039,0.002 0.0039,0.002 c 0.973786,0.593772 2.087683,0.900388 3.224609,0.912109 h 0.01172 0.01172 c 0.929567,-0.01162 1.849424,-0.211895 2.707031,-0.611328 l 0.0039,-0.002 0.0039,-0.002 c 0.962952,-0.459082 1.831826,-1.090353 2.564453,-1.876953 l 0.002,-0.002 c 1.385825,-1.456739 2.712688,-2.963769 3.978515,-4.533203 l 0.002,-0.0039 c 1.24714,-1.531251 2.433465,-3.131943 3.546875,-4.771484 l 0.002,-0.0039 c 0.264168,-0.386422 0.452344,-0.817787 0.699219,-1.214844 l 0.0059,2.033203 c -1.077808,1.591809 -2.216959,3.137608 -3.439454,4.632813 l -0.002,0.002 -0.002,0.0039 c -1.271791,1.577415 -2.615459,3.098602 -4.011719,4.583984 h -0.002 c -0.826756,0.881268 -1.803326,1.597826 -2.90039,2.115235 -5.81e-4,2.69e-4 -0.0014,-2.7e-4 -0.002,0 -8.34e-4,3.93e-4 -0.0011,0.0016 -0.002,0.002 -0.989301,0.458638 -2.069251,0.695331 -3.169921,0.705078 -1.339859,-0.01061 -2.651771,-0.379664 -3.796875,-1.074219 -1.259208,-0.789159 -2.306072,-1.853255 -3.054688,-3.125 l -0.002,-0.0059 -5.214844,-8.576172 -0.07226,-0.07227 0.125,0.164063 c -0.0091,-0.01585 -0.02789,-0.02333 -0.03711,-0.03906 -4.72e-4,-8.06e-4 -0.0015,-0.0011 -0.002,-0.002 -0.391721,-0.667867 -0.91713,-1.240889 -1.554687,-1.677734 l -0.0078,-0.0059 -0.0078,-0.0039 C 13.071723,18.190679 12.48776,18.004642 11.8827,17.990235 l -0.148438,-0.0039 -0.144531,0.04102 c -1.7294639,0.499734 -2.9933541,1.364113 -3.933594,2.207031 0.0527,-0.34405 0.058956,-0.38339 0.1210937,-0.810547 0.4864713,-0.715407 1.0893622,-1.35071 1.8165193,-1.816417 l 0.00195,-0.002 0.00391,-0.002 c 0.66587,-0.433217 1.450143,-0.659791 2.259766,-0.669922 z m 3.283203,3.273437 c -0.02376,-0.03995 -0.03889,-0.06724 -0.08594,-0.123047 l -0.0059,-0.0059 c 0.05832,0.05967 0.06344,0.08285 0.0918,0.128906 z M 11.5,20.970703 c 0.302914,0 0.529297,0.226383 0.529297,0.529297 0,0.302914 -0.226383,0.529297 -0.529297,0.529297 -0.302914,0 -0.529297,-0.226383 -0.529297,-0.529297 0,-0.302914 0.226383,-0.529297 0.529297,-0.529297 z m 29.529297,2.767578 V 24.25 c -0.104655,-0.02647 -0.179822,-0.108671 -0.289063,-0.121094 0.09625,-0.130212 0.193797,-0.259716 0.289063,-0.390625 z M 13.5,24.029297 c -1.353084,0 -2.470703,1.117619 -2.470703,2.470703 0,1.353084 1.117619,2.470703 2.470703,2.470703 1.353084,0 2.470703,-1.117619 2.470703,-2.470703 0,-1.353084 -1.117619,-2.470703 -2.470703,-2.470703 z m -5,1.941406 c 0.3029145,0 0.5292969,0.226383 0.5292969,0.529297 0,0.302914 -0.2263824,0.529297 -0.5292969,0.529297 -0.3029145,0 -0.5292969,-0.226383 -0.5292969,-0.529297 0,-0.302914 0.2263824,-0.529297 0.5292969,-0.529297 z m 5,0 c 0.302914,0 0.529297,0.226383 0.529297,0.529297 0,0.302914 -0.226383,0.529297 -0.529297,0.529297 -0.302914,0 -0.529297,-0.226383 -0.529297,-0.529297 0,-0.302914 0.226383,-0.529297 0.529297,-0.529297 z m 27,0 c 0.302914,0 0.529297,0.226383 0.529297,0.529297 0,0.302914 -0.226383,0.529297 -0.529297,0.529297 -0.302914,0 -0.529297,-0.226383 -0.529297,-0.529297 0,-0.302914 0.226383,-0.529297 0.529297,-0.529297 z m -19.144531,2.330078 c 0.0389,0.06279 0.113794,0.09455 0.154297,0.15625 -0.0022,-0.0012 -0.01958,-0.0098 -0.01953,-0.0098 4.31e-4,3.35e-4 -0.07079,-0.07645 -0.134765,-0.146485 z M 15.5,29.029297 c -1.353084,0 -2.470703,1.117619 -2.470703,2.470703 0,1.353084 1.117619,2.470703 2.470703,2.470703 1.353084,0 2.470703,-1.117619 2.470703,-2.470703 0,-1.353084 -1.117619,-2.470703 -2.470703,-2.470703 z m 25,0 c -1.353084,0 -2.470703,1.117619 -2.470703,2.470703 0,1.353084 1.117619,2.470703 2.470703,2.470703 1.353084,0 2.470703,-1.117619 2.470703,-2.470703 0,-1.353084 -1.117619,-2.470703 -2.470703,-2.470703 z m -32,1.941406 c 0.3029145,0 0.5292969,0.226383 0.5292969,0.529297 0,0.302914 -0.2263824,0.529297 -0.5292969,0.529297 -0.3029145,0 -0.5292969,-0.226383 -0.5292969,-0.529297 0,-0.302914 0.2263824,-0.529297 0.5292969,-0.529297 z m 7,0 c 0.302914,0 0.529297,0.226383 0.529297,0.529297 0,0.302914 -0.226383,0.529297 -0.529297,0.529297 -0.302914,0 -0.529297,-0.226383 -0.529297,-0.529297 0,-0.302914 0.226383,-0.529297 0.529297,-0.529297 z m 25,0 c 0.302914,0 0.529297,0.226383 0.529297,0.529297 0,0.302914 -0.226383,0.529297 -0.529297,0.529297 -0.302914,0 -0.529297,-0.226383 -0.529297,-0.529297 0,-0.302914 0.226383,-0.529297 0.529297,-0.529297 z m -5,1 c 0.302914,0 0.529297,0.226383 0.529297,0.529297 0,0.302914 -0.226383,0.529297 -0.529297,0.529297 -0.302914,0 -0.529297,-0.226383 -0.529297,-0.529297 0,-0.302914 0.226383,-0.529297 0.529297,-0.529297 z m -22,3.058594 c -1.353084,0 -2.470703,1.117619 -2.470703,2.470703 0,1.353084 1.117619,2.470703 2.470703,2.470703 1.353084,0 2.470703,-1.117619 2.470703,-2.470703 0,-1.353084 -1.117619,-2.470703 -2.470703,-2.470703 z m 5,0 c -1.353084,0 -2.470703,1.117619 -2.470703,2.470703 0,1.353084 1.117619,2.470703 2.470703,2.470703 1.353084,0 2.470703,-1.117619 2.470703,-2.470703 0,-1.353084 -1.117619,-2.470703 -2.470703,-2.470703 z m 5,0 c -1.353084,0 -2.470703,1.117619 -2.470703,2.470703 0,1.353084 1.117619,2.470703 2.470703,2.470703 1.353084,0 2.470703,-1.117619 2.470703,-2.470703 0,-1.353084 -1.117619,-2.470703 -2.470703,-2.470703 z m 5,0 c -1.353084,0 -2.470703,1.117619 -2.470703,2.470703 0,1.353084 1.117619,2.470703 2.470703,2.470703 1.353084,0 2.470703,-1.117619 2.470703,-2.470703 0,-1.353084 -1.117619,-2.470703 -2.470703,-2.470703 z m 5,0 c -1.353084,0 -2.470703,1.117619 -2.470703,2.470703 0,1.353084 1.117619,2.470703 2.470703,2.470703 1.353084,0 2.470703,-1.117619 2.470703,-2.470703 0,-1.353084 -1.117619,-2.470703 -2.470703,-2.470703 z m 5,0 c -1.353084,0 -2.470703,1.117619 -2.470703,2.470703 0,1.353084 1.117619,2.470703 2.470703,2.470703 1.353084,0 2.470703,-1.117619 2.470703,-2.470703 0,-1.353084 -1.117619,-2.470703 -2.470703,-2.470703 z m -30,1.941406 c 0.3029145,0 0.5292969,0.226383 0.5292969,0.529297 0,0.302914 -0.2263824,0.529297 -0.5292969,0.529297 -0.3029145,0 -0.5292969,-0.226383 -0.5292969,-0.529297 0,-0.302914 0.2263824,-0.529297 0.5292969,-0.529297 z m 5,0 c 0.302914,0 0.529297,0.226383 0.529297,0.529297 0,0.302914 -0.226383,0.529297 -0.529297,0.529297 -0.302914,0 -0.529297,-0.226383 -0.529297,-0.529297 0,-0.302914 0.226383,-0.529297 0.529297,-0.529297 z m 5,0 c 0.302914,0 0.529297,0.226383 0.529297,0.529297 0,0.302914 -0.226383,0.529297 -0.529297,0.529297 -0.302914,0 -0.529297,-0.226383 -0.529297,-0.529297 0,-0.302914 0.226383,-0.529297 0.529297,-0.529297 z m 5,0 c 0.302914,0 0.529297,0.226383 0.529297,0.529297 0,0.302914 -0.226383,0.529297 -0.529297,0.529297 -0.302914,0 -0.529297,-0.226383 -0.529297,-0.529297 0,-0.302914 0.226383,-0.529297 0.529297,-0.529297 z m 5,0 c 0.302914,0 0.529297,0.226383 0.529297,0.529297 0,0.302914 -0.226383,0.529297 -0.529297,0.529297 -0.302914,0 -0.529297,-0.226383 -0.529297,-0.529297 0,-0.302914 0.226383,-0.529297 0.529297,-0.529297 z m 5,0 c 0.302914,0 0.529297,0.226383 0.529297,0.529297 0,0.302914 -0.226383,0.529297 -0.529297,0.529297 -0.302914,0 -0.529297,-0.226383 -0.529297,-0.529297 0,-0.302914 0.226383,-0.529297 0.529297,-0.529297 z m 5,0 c 0.302914,0 0.529297,0.226383 0.529297,0.529297 0,0.302914 -0.226383,0.529297 -0.529297,0.529297 -0.302914,0 -0.529297,-0.226383 -0.529297,-0.529297 0,-0.302914 0.226383,-0.529297 0.529297,-0.529297 z"
       id="path16" />
  </g>
  <linearGradient
     id="_lgradient_2"
     x1="0"
     y1="0.5"
     x2="1"
     y2="0.5"
     gradientTransform="matrix(44,0,0,44,2,2)"
     gradientUnits="userSpaceOnUse">
    <stop
       offset="0%"
       stop-opacity="1"
       style="stop-color:rgb(52,148,230)"
       id="stop18" />
    <stop
       offset="98.69565217391305%"
       stop-opacity="1"
       style="stop-color:rgb(236,110,173)"
       id="stop20" />
  </linearGradient>
</svg>
