<?xml version="1.0" encoding="UTF-8" standalone="no"?>
<svg
   width="47.285591"
   height="47.28569"
   version="1.1"
   viewBox="0 0 12.510734 12.51076"
   id="svg12"
   sodipodi:docname="applications-games.svg"
   inkscape:version="1.1.2 (0a00cf5339, 2022-02-04)"
   xmlns:inkscape="http://www.inkscape.org/namespaces/inkscape"
   xmlns:sodipodi="http://sodipodi.sourceforge.net/DTD/sodipodi-0.dtd"
   xmlns:xlink="http://www.w3.org/1999/xlink"
   xmlns="http://www.w3.org/2000/svg"
   xmlns:svg="http://www.w3.org/2000/svg"
   xmlns:rdf="http://www.w3.org/1999/02/22-rdf-syntax-ns#"
   xmlns:cc="http://creativecommons.org/ns#"
   xmlns:dc="http://purl.org/dc/elements/1.1/">
  <style
     id="style860" />
  <metadata
     id="metadata35">
    <rdf:RDF>
      <cc:Work
         rdf:about="">
        <dc:format>image/svg+xml</dc:format>
        <dc:type
           rdf:resource="http://purl.org/dc/dcmitype/StillImage" />
      </cc:Work>
    </rdf:RDF>
  </metadata>
  <defs
     id="defs16">
    <linearGradient
       inkscape:collect="always"
       xlink:href="#_lgradient_4"
       id="linearGradient1022"
       x1="10.089403"
       y1="22.812044"
       x2="37.910599"
       y2="22.812044"
       gradientUnits="userSpaceOnUse"
       gradientTransform="matrix(0.26455019,0,0,0.26554623,-0.0938376,-0.11772973)" />
    <linearGradient
       id="_lgradient_4"
       x1="0.5819639"
       y1="0.77831072"
       x2="0.27618945"
       y2="0.32136112"
       gradientTransform="matrix(27.821267,0,0,19.93329,10.089055,12.8454)"
       gradientUnits="userSpaceOnUse">
      <stop
         offset="0%"
         stop-opacity="1"
         style="stop-color:rgb(27,206,137)"
         id="stop2-3" />
      <stop
         offset="100%"
         stop-opacity="1"
         style="stop-color:rgb(78,142,213)"
         id="stop4-6" />
    </linearGradient>
    <linearGradient
       inkscape:collect="always"
       xlink:href="#_lgradient_4"
       id="linearGradient15"
       x1="-9.6850061"
       y1="45.161198"
       x2="11.98815"
       y2="21.735205"
       gradientUnits="userSpaceOnUse"
       gradientTransform="matrix(0.29543389,0,0,0.29557081,0.00897244,-1.0320785)" />
    <linearGradient
       inkscape:collect="always"
       xlink:href="#_lgradient_4"
       id="linearGradient872"
       x1="-12.025727"
       y1="6.1170783"
       x2="-0.085100174"
       y2="6.1170783"
       gradientUnits="userSpaceOnUse"
       gradientTransform="matrix(1.0185877,0,0,1.0151158,0.11582159,-0.09516013)" />
  </defs>
  <sodipodi:namedview
     id="namedview14"
     pagecolor="#000000"
     bordercolor="#666666"
     borderopacity="1.0"
     inkscape:showpageshadow="2"
     inkscape:pageopacity="0.0"
     inkscape:pagecheckerboard="0"
     inkscape:deskcolor="#d1d1d1"
     showgrid="false"
     inkscape:zoom="6.3818384"
     inkscape:cx="26.324703"
     inkscape:cy="21.545516"
     inkscape:window-width="1165"
     inkscape:window-height="545"
     inkscape:window-x="425"
     inkscape:window-y="125"
     inkscape:window-maximized="0"
     inkscape:current-layer="svg12"
     inkscape:document-rotation="0"
     inkscape:pageshadow="2">
    <inkscape:grid
       type="xygrid"
       id="grid244"
       originx="9.9594769"
       originy="-31.57929"
       spacingy="1"
       spacingx="1"
       units="px"
       visible="false" />
  </sodipodi:namedview>
  <rect
     x="-12.305831"
     y="0.22972269"
     height="12.116437"
     rx="1.6420745"
     shape-rendering="crispEdges"
     id="rect5-6-7-3-7"
     ry="1.8004038"
     transform="matrix(0.00522097,-0.99998637,0.99998792,0.00491536,0,0)"
     style="isolation:isolate;fill:#00ffdc;fill-opacity:0.134703;stroke:url(#linearGradient872);stroke-width:0.538073;stroke-miterlimit:4;stroke-dasharray:none;stroke-opacity:1"
     width="12.162546" />
  <rect
     x="-4.1451268"
     y="4.4253082"
     height="8.839241"
     rx="1.8000433"
     shape-rendering="crispEdges"
     id="rect5-6-6-6-6"
     style="isolation:isolate;fill:#00ffdc;fill-opacity:0.134703;stroke:url(#linearGradient15);stroke-width:0.443252;stroke-miterlimit:4;stroke-dasharray:none;stroke-opacity:1"
     ry="1.9812717"
     transform="matrix(0.72316984,-0.69067024,0.68485868,0.72867592,0,0)"
     width="8.8354216" />
  <path
     style="color:#000000;isolation:isolate;fill:url(#linearGradient1022);fill-rule:evenodd;stroke-width:0.265048;-inkscape-stroke:none"
     d="m 4.1012464,3.1606252 c -0.3956779,0 -0.8312625,0.2095159 -1.0375328,0.5196822 C 2.8730179,3.9675216 2.7164968,4.4517789 2.6875563,4.8259941 L 2.4452242,7.9549795 c -0.032052,0.414446 0.2906583,0.7644826 0.7047783,0.7644826 h 0.1679272 c 0.4110673,0 0.8098416,-0.2941591 0.9331595,-0.6877233 l 0.2738507,-0.873398 c 1.48e-5,-4.73e-5 0.03484,-0.025933 0.035136,-0.025933 h 1.0292656 c 0.20865,0 0.3808076,-0.1721805 0.3808076,-0.3817227 0,-0.209542 -0.1720516,-0.3822414 -0.3808076,-0.3822414 H 4.4727534 c -0.2739885,0 -0.5281046,0.1873976 -0.6102223,0.4496654 L 3.551478,7.8102767 c -0.020577,0.065865 -0.1274957,0.144702 -0.1963459,0.144702 h -0.080605 c -0.065882,0 -0.1000572,-0.03732 -0.094039,-0.1032104 L 3.4626056,4.7513084 C 3.4785183,4.5771422 3.5804161,4.2811596 3.6651518,4.1533108 3.7347214,4.048509 3.9676808,3.9245884 4.1182975,3.9245884 h 2.3628673 c 0.2086499,0 0.3808075,-0.1721807 0.3808075,-0.3817227 0,-0.2095418 -0.1720515,-0.3822413 -0.3808075,-0.3822413 z m 3.587962,0 c -0.2087561,0 -0.3802909,0.1728058 -0.3802909,0.3822413 0,0.2094358 0.1716409,0.3817227 0.3802909,0.3817227 h 0.7032281 c 0.1506166,0 0.383576,0.1239206 0.4531456,0.2287224 0.084736,0.1278491 0.1866333,0.4238319 0.2025462,0.5979976 l 0.282118,3.1004599 c 0.00602,0.06589 -0.028157,0.1032104 -0.094039,0.1032104 H 9.0042088 c -0.072348,0 -0.2036949,-0.083696 -0.2345817,-0.1493698 L 8.2358765,6.6697772 C 8.1497982,6.486507 7.9639294,6.3684443 7.7620628,6.3684443 H 6.6279073 c -0.208756,0 -0.3808075,0.1728058 -0.3808075,0.3822413 0,0.2094358 0.1721576,0.3817228 0.3808075,0.3817228 h 0.9775958 c 0.00369,0 0.055819,0.033552 0.057353,0.036824 l 0.4278274,0.9102221 c 0.173783,0.3701138 0.5979911,0.6400078 1.0054973,0.6400078 H 9.360731 c 0.41412,0 0.73683,-0.3500366 0.704779,-0.7644826 L 9.8231776,4.8259941 C 9.7942371,4.4517789 9.637716,3.9675216 9.4470203,3.6803074 9.24075,3.3701411 8.8051654,3.1606252 8.4094875,3.1606252 Z m -3.587962,0.2655462 h 2.3799184 c 0.065458,0 0.1162574,0.050991 0.1162574,0.1166951 0,0.065705 -0.050693,0.1161765 -0.1162574,0.1161765 H 4.1182975 c -0.2607045,0 -0.5322253,0.1345145 -0.6732596,0.3469735 C 3.3194987,4.1954293 3.220748,4.4904021 3.199089,4.7274517 L 2.9169708,7.8273928 c -0.019029,0.2083635 0.149224,0.3931329 0.3575563,0.3931329 h 0.080605 c 0.2053645,0 0.3875234,-0.1340849 0.449012,-0.3308955 L 4.1146805,6.8974623 C 4.1558273,6.766048 4.3354207,6.6339906 4.4727534,6.6339906 h 1.1165878 c 0.065458,0 0.1162574,0.050991 0.1162574,0.116695 0,0.065705 -0.050693,0.1161765 -0.1162574,0.1161765 H 4.5600756 c -0.136811,0 -0.2469475,0.080835 -0.2878017,0.2121258 L 3.9989398,7.9518676 C 3.9165972,8.2146609 3.5923976,8.4539159 3.3179297,8.4539159 H 3.1500025 c -0.2714158,0 -0.461756,-0.2070236 -0.4407449,-0.4787095 L 2.9515898,4.8467399 C 2.9757115,4.534824 3.1366993,4.0491981 3.2838276,3.8276027 3.4157114,3.6292904 3.8113885,3.4261714 4.1012464,3.4261714 Z m 3.587962,0 h 0.7202791 c 0.2898579,0 0.685535,0.203119 0.8174188,0.4014313 0.1471283,0.2215954 0.3081153,0.7072213 0.3322378,1.0191372 L 9.8014763,7.9752064 C 9.8224869,8.2468923 9.6321472,8.4539159 9.3607314,8.4539159 H 9.0961812 c -0.2780292,0 -0.6477075,-0.2355461 -0.7662654,-0.488045 L 7.9020885,7.0561676 C 7.8452864,6.9350488 7.7389224,6.8668621 7.6055031,6.8668621 H 6.6279073 c -0.065565,0 -0.1162573,-0.050365 -0.1162573,-0.1161765 0,-0.06581 0.050799,-0.116695 0.1162573,-0.116695 h 1.1341555 c 0.072347,0 0.2036576,0.083529 0.2345817,0.1493697 l 0.5337507,1.1358326 c 0.086116,0.1831069 0.2719467,0.3013328 0.4738136,0.3013328 h 0.2319981 c 0.2083322,0 0.3765869,-0.1847689 0.3575562,-0.3931329 L 9.3116449,4.7274517 C 9.2899862,4.4904015 9.1912352,4.1954291 9.0656961,4.0060165 8.9246617,3.7935575 8.6531409,3.659043 8.3924365,3.659043 H 7.6892084 c -0.065564,0 -0.1157408,-0.050365 -0.1157408,-0.1161765 0,-0.065811 0.050283,-0.1166951 0.1157408,-0.1166951 z M 4.404549,4.0817386 c -0.1379645,0 -0.2521494,0.1146151 -0.2521494,0.2530988 V 4.6123125 H 3.8764822 c -0.1379645,0 -0.2526664,0.1151331 -0.2526664,0.2536174 v 0.5673976 c 0,0.1384842 0.1149204,0.2530988 0.2526664,0.2530988 h 0.2759174 v 0.2769565 c 0,0.1384837 0.1141851,0.2536173 0.2521494,0.2536173 h 0.565786 c 0.1379775,0 0.2521494,-0.1151334 0.2521494,-0.2536173 V 5.6864263 H 5.4984021 C 5.6365436,5.6867715 5.7510682,5.5718112 5.7510682,5.4333275 V 4.8654112 c 0,-0.1384836 -0.1147019,-0.2536173 -0.2526661,-0.2536173 H 5.2224844 V 4.3348374 c 0,-0.1384842 -0.1141846,-0.2530988 -0.2521494,-0.2530988 z m 1.3465192,1.3515889 -0.038752,0.093875 0.038752,-0.038898 z M 7.8240668,4.2352576 c -0.2080169,0 -0.3792573,0.1718851 -0.3792573,0.3806854 0,0.076843 0.042437,0.1379712 0.082155,0.1981225 -0.059926,-0.039868 -0.1208245,-0.082465 -0.1973793,-0.082465 -0.2080171,0 -0.3792575,0.1718852 -0.3792575,0.3806852 0,0.2088003 0.1712404,0.3812041 0.3792575,0.3812041 0.076574,0 0.1374447,-0.043097 0.1973793,-0.082983 -0.039838,0.060212 -0.082155,0.1211531 -0.082155,0.1981225 0,0.2088003 0.1712404,0.3806854 0.3792573,0.3806854 0.2080171,0 0.3797742,-0.1718851 0.3797742,-0.3806854 0,-0.076988 -0.042816,-0.1379019 -0.082672,-0.1981225 0.059995,0.040006 0.1206801,0.082983 0.1973793,0.082983 0.2080171,0 0.3792576,-0.1724038 0.3792576,-0.3812041 0,-0.2088 -0.1712405,-0.3806852 -0.3792576,-0.3806852 -0.076681,0 -0.1373936,0.042477 -0.1973793,0.082465 0.039737,-0.06016 0.082672,-0.1212606 0.082672,-0.1981225 0,-0.2088003 -0.1717571,-0.3806854 -0.3797742,-0.3806854 z m 0,0.2655462 c 0.064879,0 0.115224,0.050016 0.115224,0.1151392 0,0.065123 -0.050345,0.1156579 -0.115224,0.1156579 -0.064879,0 -0.1147071,-0.050535 -0.1147071,-0.1156579 0,-0.065123 0.049828,-0.1151392 0.1147071,-0.1151392 z m -3.1668518,0.08817 h 0.060454 v 0.2769565 c 0,0.1384842 0.1147018,0.2530987 0.252666,0.2530987 H 5.2462527 V 5.179711 H 4.970335 c -0.1379647,0 -0.252666,0.1151331 -0.252666,0.2536173 V 5.710284 H 4.657215 V 5.4333275 c 0,-0.1384839 -0.1147013,-0.2536173 -0.252666,-0.2536173 H 4.1291482 V 5.1190286 H 4.404549 c 0.1379645,0 0.252666,-0.1151337 0.252666,-0.2536174 z m 2.9699894,0.3257091 c 0.059904,0.039825 0.1203529,0.082465 0.1968624,0.082465 0.076681,0 0.1373936,-0.042477 0.1973793,-0.082465 -0.039675,0.06013 -0.082155,0.1208061 -0.082155,0.1976036 0,0.076969 0.042317,0.1379109 0.082155,0.1981225 C 7.9614601,5.270421 7.9007474,5.227944 7.8240668,5.227944 c -0.076509,0 -0.1369584,0.04264 -0.1968624,0.082465 0.039838,-0.060212 0.082155,-0.1211531 0.082155,-0.1981225 0,-0.076798 -0.04248,-0.1374741 -0.082155,-0.1976036 z m -0.297619,0.082465 c 0.064879,0 0.1152241,0.050016 0.1152241,0.115139 0,0.065123 -0.050345,0.1156579 -0.1152241,0.1156579 -0.064879,0 -0.1147073,-0.050534 -0.1147073,-0.1156579 0,-0.065123 0.049828,-0.115139 0.1147073,-0.115139 z m 0.988963,0 c 0.064879,0 0.1147074,0.050016 0.1147074,0.115139 0,0.065123 -0.049828,0.1156579 -0.1147074,0.1156579 -0.064879,0 -0.1147074,-0.050534 -0.1147074,-0.1156579 0,-0.065123 0.049829,-0.115139 0.1147074,-0.115139 z M 7.8240668,5.4934902 c 0.064879,0 0.115224,0.050016 0.115224,0.1151393 0,0.065123 -0.050345,0.1151392 -0.115224,0.1151392 -0.064879,0 -0.1147071,-0.050016 -0.1147071,-0.1151392 0,-0.065123 0.049828,-0.1151393 0.1147071,-0.1151393 z"
     id="path7" />
</svg>
