<?xml version="1.0" encoding="UTF-8" standalone="no"?>
<svg
   width="47.285591"
   height="47.28569"
   version="1.1"
   id="svg63"
   sodipodi:docname="applications-education-mathematics.svg"
   inkscape:version="1.1.2 (0a00cf5339, 2022-02-04)"
   xmlns:inkscape="http://www.inkscape.org/namespaces/inkscape"
   xmlns:sodipodi="http://sodipodi.sourceforge.net/DTD/sodipodi-0.dtd"
   xmlns:xlink="http://www.w3.org/1999/xlink"
   xmlns="http://www.w3.org/2000/svg"
   xmlns:svg="http://www.w3.org/2000/svg"
   xmlns:rdf="http://www.w3.org/1999/02/22-rdf-syntax-ns#"
   xmlns:cc="http://creativecommons.org/ns#"
   xmlns:dc="http://purl.org/dc/elements/1.1/">
  <style
     id="style1006" />
  <metadata
     id="metadata181">
    <rdf:RDF>
      <cc:Work
         rdf:about="">
        <dc:format>image/svg+xml</dc:format>
        <dc:type
           rdf:resource="http://purl.org/dc/dcmitype/StillImage" />
      </cc:Work>
    </rdf:RDF>
  </metadata>
  <sodipodi:namedview
     id="namedview65"
     pagecolor="#000000"
     bordercolor="#666666"
     borderopacity="1.0"
     inkscape:showpageshadow="2"
     inkscape:pageopacity="0.0"
     inkscape:pagecheckerboard="0"
     inkscape:deskcolor="#d1d1d1"
     showgrid="true"
     inkscape:zoom="11.136495"
     inkscape:cx="28.420073"
     inkscape:cy="22.448715"
     inkscape:window-width="1600"
     inkscape:window-height="836"
     inkscape:window-x="0"
     inkscape:window-y="0"
     inkscape:window-maximized="1"
     inkscape:current-layer="svg63"
     inkscape:document-rotation="0"
     inkscape:pageshadow="2">
    <inkscape:grid
       type="xygrid"
       id="grid468"
       originx="30.400758"
       originy="-11.147109"
       spacingy="1"
       spacingx="1"
       units="px"
       visible="false" />
  </sodipodi:namedview>
  <defs
     id="defs27">
    <linearGradient
       inkscape:collect="always"
       id="linearGradient1013">
      <stop
         style="stop-color:#0268ff;stop-opacity:1"
         offset="0"
         id="stop1009" />
      <stop
         style="stop-color:#00ccff;stop-opacity:1"
         offset="1"
         id="stop1011" />
    </linearGradient>
    <linearGradient
       inkscape:collect="always"
       xlink:href="#linearGradient14"
       id="linearGradient15"
       x1="-9.6850061"
       y1="45.161198"
       x2="11.98815"
       y2="21.735205"
       gradientUnits="userSpaceOnUse"
       gradientTransform="matrix(1.0781779,0,0,1.0781779,-0.06975659,-2.6124475)" />
    <linearGradient
       id="linearGradient14"
       inkscape:collect="always">
      <stop
         style="stop-color:#0266ff;stop-opacity:1"
         offset="0"
         id="stop12" />
      <stop
         style="stop-color:#00ccff;stop-opacity:1"
         offset="1"
         id="stop13" />
    </linearGradient>
    <linearGradient
       inkscape:collect="always"
       xlink:href="#linearGradient1013"
       id="linearGradient1015"
       x1="-45.452461"
       y1="23.120121"
       x2="-0.32164383"
       y2="23.120121"
       gradientUnits="userSpaceOnUse" />
  </defs>
  <rect
     x="-46.092155"
     y="1.2096434"
     width="45.130817"
     height="45.11338"
     rx="6.0931306"
     shape-rendering="crispEdges"
     id="rect5-6-7"
     ry="6.7034807"
     transform="matrix(0.00523884,-0.99998628,0.999988,0.00489858,0,0)"
     style="fill:#0067ff;fill-opacity:0.15000001;stroke:url(#linearGradient1015);stroke-width:2;stroke-miterlimit:4;stroke-dasharray:none;stroke-opacity:1" />
  <rect
     x="-15.230034"
     y="17.294905"
     width="32.244629"
     height="32.243622"
     rx="6.5692091"
     shape-rendering="crispEdges"
     id="rect5-6-6-6"
     style="fill:#0066ff;fill-opacity:0.122146;stroke:url(#linearGradient15);stroke-width:1.61727;stroke-miterlimit:4;stroke-dasharray:none;stroke-opacity:1"
     ry="7.2272477"
     transform="matrix(0.72612648,-0.68756115,0.68797749,0.72573202,0,0)" />
  <path
     style="color:#000000;fill:#ffffff;-inkscape-stroke:none"
     d="m 23.25,18.865234 c -0.954236,0.0091 -1.719052,0.256029 -2.244141,0.769532 l -0.11914,0.115234 0.515625,1.298828 0.269531,-0.283203 c 0.362617,-0.379449 0.852564,-0.57355 1.53125,-0.580078 0.390059,-0.0035 0.649987,0.09318 0.835937,0.277344 l 0.002,0.002 c 0.180706,0.176366 0.276498,0.432876 0.287109,0.800781 l -0.09375,0.267578 v 0.002 c -0.06883,0.205557 -0.182378,0.468514 -0.341797,0.783203 l -0.002,0.002 c -0.15356,0.308279 -0.311022,0.554226 -0.46875,0.736329 l -2.695313,3.109375 0.148438,0.96875 0.246094,-0.03711 0.0039,0.25 4.738281,-0.04492 0.07422,-1.304687 -3.267578,0.03125 1.759765,-1.953125 c 0.169993,-0.187876 0.330529,-0.414798 0.484375,-0.679688 l 0.002,-0.0039 c 0.155337,-0.261037 0.279873,-0.503189 0.380859,-0.722656 v -0.002 h 0.002 c 0.10053,-0.219804 0.191597,-0.450008 0.279297,-0.691407 l 0.002,-0.002 c 0.08951,-0.235318 0.145612,-0.390641 0.175781,-0.486328 0.02699,-0.08431 0.0488,-0.152909 0.06445,-0.216797 l 0.0078,-0.0293 v -0.0332 c -0.0097,-0.696949 -0.25501,-1.289427 -0.726563,-1.714843 C 24.629156,19.064852 23.996285,18.858201 23.25,18.865234 Z m 14.398437,0.01367 -1.347656,0.01367 -3.425781,5.283203 0.01563,1.123047 3.480469,-0.0332 0.02734,1.9375 1.365235,-0.01367 -0.02734,-1.935547 0.625,-0.0059 -0.0039,-0.251953 0.25,0.02148 0.08398,-1.03125 -0.972656,0.0098 z m -25.953124,0.0957 c -0.954363,0.009 -1.7172154,0.256169 -2.242188,0.769532 L 9.3339844,19.859375 9.8476563,21.158203 10.117188,20.875 c 0.362499,-0.379458 0.854446,-0.573643 1.533203,-0.580078 0.39002,-0.0034 0.650095,0.0933 0.835937,0.277344 v 0.002 c 0.180821,0.176468 0.27658,0.432756 0.28711,0.800781 l -0.09375,0.267578 v 0.002 c -0.06897,0.205741 -0.182426,0.468795 -0.341797,0.783203 v 0.002 c -0.153627,0.308316 -0.313073,0.554352 -0.470703,0.736329 l -2.695313,3.109375 0.1484375,0.96875 0.2480469,-0.03906 0.00195,0.251953 4.7382815,-0.04492 0.07422,-1.304687 -3.265625,0.0293 1.757812,-1.951172 c 0.170256,-0.188338 0.330189,-0.416312 0.484375,-0.681641 l 0.002,-0.002 c 0.155667,-0.261797 0.281602,-0.504648 0.382813,-0.724609 0.100275,-0.219241 0.191812,-0.450695 0.279297,-0.691407 l 0.002,-0.0039 c 0.08913,-0.234154 0.147728,-0.389433 0.177734,-0.484375 v -0.002 c 0.0269,-0.08357 0.04707,-0.150633 0.0625,-0.212891 l 0.0078,-0.03125 v -0.0332 c -0.0098,-0.696986 -0.255105,-1.289453 -0.726563,-1.714843 -0.472403,-0.429362 -1.105335,-0.63594 -1.851562,-0.628907 z m 11.558593,0.390625 c 0.654283,-0.0062 1.142464,0.162495 1.511719,0.498047 v 0.002 c 0.364885,0.32863 0.544543,0.756124 0.556641,1.335938 -0.01044,0.03674 -0.02126,0.07305 -0.04102,0.134765 h -0.002 c -0.02066,0.06572 -0.07815,0.226783 -0.167969,0.462891 l -0.002,0.002 v 0.002 c -0.08443,0.232558 -0.171722,0.45289 -0.265625,0.658203 -0.09421,0.20475 -0.21197,0.4323 -0.359375,0.679688 l -0.002,0.002 c -0.141496,0.244071 -0.283632,0.444665 -0.423828,0.599609 l -2.521485,2.796875 3.871094,-0.03711 -0.01758,0.304688 -4.054688,0.03906 -0.08008,-0.527344 2.544922,-2.933593 c 0.194305,-0.224331 0.370275,-0.505164 0.53711,-0.839844 v -0.002 c 0.166463,-0.328749 0.289095,-0.610565 0.36914,-0.84961 v 0.0039 l 0.128906,-0.371094 v -0.04492 c -0.0067,-0.477202 -0.150961,-0.886546 -0.445312,-1.173828 -0.294474,-0.290839 -0.710475,-0.426158 -1.191406,-0.421875 -0.640924,0.0062 -1.12423,0.276937 -1.558594,0.607422 l -0.138672,-0.34961 c 0.407921,-0.343637 0.947564,-0.570414 1.751953,-0.578125 z m 13.900391,0.01953 0.07227,5.115234 0.921875,-0.0078 -0.01953,0.257813 -0.898437,0.0078 0.02539,1.9375 -0.363281,0.0039 -0.02734,-1.9375 -3.480468,0.0332 -0.0078,-0.47461 3.197266,-4.93164 z m -25.455078,0.08984 c 0.654288,-0.0062 1.14256,0.162524 1.511719,0.498047 h 0.002 c 0.364747,0.328551 0.542506,0.757971 0.554687,1.337891 -0.01052,0.03688 -0.02157,0.0724 -0.04101,0.132812 v 0.002 c -0.02087,0.06617 -0.08011,0.226998 -0.169922,0.462891 v 0.002 l -0.002,0.002 c -0.0844,0.232487 -0.171738,0.45293 -0.265625,0.658203 -0.09412,0.204418 -0.212327,0.430622 -0.359375,0.677735 v 0.002 l -0.002,0.002 c -0.141656,0.244048 -0.283597,0.442532 -0.423828,0.597656 v 0.002 l -2.519531,2.796875 3.869141,-0.03711 -0.01758,0.304688 -4.054688,0.03906 -0.080078,-0.527344 2.5449221,-2.935547 c 0.194046,-0.224017 0.370374,-0.503673 0.537109,-0.83789 l 0.002,-0.002 c 0.165519,-0.326758 0.287159,-0.607749 0.367188,-0.845703 l 0.002,-0.0039 0.126953,-0.367187 v -0.04492 c -0.0066,-0.477426 -0.150932,-0.886535 -0.445312,-1.173828 -0.294439,-0.290792 -0.710568,-0.426087 -1.191407,-0.421875 -0.640967,0.0061 -1.124281,0.274986 -1.558593,0.605469 L 9.9472656,20.052734 c 0.4078944,-0.344186 0.9468054,-0.57057 1.7519534,-0.578125 z m 24.642578,0.716797 -2.767578,4.34375 3.287109,-0.03125 -0.05859,-4.18164 -0.25,0.002 z M 18.173828,20.912109 16.96875,20.923828 17,23.136719 l -2.048828,0.01953 0.01563,1.210937 2.044922,-0.01953 0.03125,2.240235 1.205078,-0.01172 -0.03125,-2.240235 2.013672,-0.01953 -0.01758,-1.208984 -2.007813,0.01953 z m 18.140625,0.251953 0.03906,2.84375 -1.861329,0.01953 z m -18.632812,0.251954 0.02734,1.964843 0.25,-0.002 0.002,0.25 1.759766,-0.01758 0.002,0.208984 -2.011719,0.01953 0.0293,2.240234 -0.205078,0.002 -0.03125,-2.240234 -2.042968,0.01953 -0.002,-0.208984 2.048828,-0.01953 -0.03125,-2.214843 z m 14.429687,0.404296 -5.472656,0.05078 0.01367,1.003906 0.25,-0.0039 0.002,0.25 5.224609,-0.05078 z m -0.492187,0.503907 0.0039,0.251953 -4.47461,0.04297 -0.0039,-0.251954 z m 0.523437,1.708984 -5.46875,0.05078 0.01367,0.994141 0.25,-0.0039 0.002,0.25 5.220703,-0.04883 z m -0.492187,0.503906 0.002,0.242188 -4.46875,0.04297 -0.002,-0.242188 z m -10.892579,8.335938 v 0.25 1.628906 h 5.439454 v -1.878906 z m 6.175782,0 v 0.25 1.628906 h 5.439453 v -1.878906 z m -5.675782,0.5 h 4.439454 v 0.878906 h -4.439454 z m 6.175782,0 h 4.439453 v 0.878906 h -4.439453 z"
     id="rect4570-6-9-6-8"
     transform="matrix(0.99994045,0.01091315,-0.00859692,0.99996305,0,0)" />
</svg>
