<?xml version="1.0" encoding="UTF-8" standalone="no"?>
<svg
   width="47.285591"
   height="47.28569"
   version="1.1"
   id="svg63"
   sodipodi:docname="applications-multimedia.svg"
   inkscape:version="1.1.2 (0a00cf5339, 2022-02-04)"
   xmlns:inkscape="http://www.inkscape.org/namespaces/inkscape"
   xmlns:sodipodi="http://sodipodi.sourceforge.net/DTD/sodipodi-0.dtd"
   xmlns:xlink="http://www.w3.org/1999/xlink"
   xmlns="http://www.w3.org/2000/svg"
   xmlns:svg="http://www.w3.org/2000/svg"
   xmlns:rdf="http://www.w3.org/1999/02/22-rdf-syntax-ns#"
   xmlns:cc="http://creativecommons.org/ns#"
   xmlns:dc="http://purl.org/dc/elements/1.1/">
  <style
     id="style1006" />
  <metadata
     id="metadata181">
    <rdf:RDF>
      <cc:Work
         rdf:about="">
        <dc:format>image/svg+xml</dc:format>
        <dc:type
           rdf:resource="http://purl.org/dc/dcmitype/StillImage" />
      </cc:Work>
    </rdf:RDF>
  </metadata>
  <sodipodi:namedview
     id="namedview65"
     pagecolor="#000000"
     bordercolor="#666666"
     borderopacity="1.0"
     inkscape:showpageshadow="2"
     inkscape:pageopacity="0.0"
     inkscape:pagecheckerboard="0"
     inkscape:deskcolor="#d1d1d1"
     showgrid="false"
     inkscape:zoom="6.685334"
     inkscape:cx="24.306938"
     inkscape:cy="23.559032"
     inkscape:window-width="1056"
     inkscape:window-height="545"
     inkscape:window-x="189"
     inkscape:window-y="208"
     inkscape:window-maximized="0"
     inkscape:current-layer="svg63"
     inkscape:document-rotation="0"
     inkscape:pageshadow="2">
    <inkscape:grid
       type="xygrid"
       id="grid468"
       originx="30.400758"
       originy="-11.147109"
       spacingy="1"
       spacingx="1"
       units="px"
       visible="false" />
  </sodipodi:namedview>
  <defs
     id="defs27">
    <linearGradient
       inkscape:collect="always"
       xlink:href="#_lgradient_9"
       id="linearGradient1130"
       x1="14.919414"
       y1="23.85321"
       x2="38.060905"
       y2="23.85321"
       gradientUnits="userSpaceOnUse"
       gradientTransform="translate(-0.35720366,-0.35715588)" />
    <linearGradient
       id="_lgradient_9"
       x1="0"
       y1="0.5"
       x2="1"
       y2="0.5"
       gradientTransform="matrix(23.140905,0,0,24.741826,13.751504,11.629677)"
       gradientUnits="userSpaceOnUse">
      <stop
         offset="0%"
         stop-opacity="1"
         style="stop-color:rgb(255,224,49)"
         id="stop9-3" />
      <stop
         offset="98.69565217391305%"
         stop-opacity="1"
         style="stop-color:rgb(252,82,82)"
         id="stop11" />
    </linearGradient>
    <linearGradient
       inkscape:collect="always"
       xlink:href="#_lgradient_9"
       id="linearGradient15-6"
       x1="-9.6850061"
       y1="45.161198"
       x2="11.98815"
       y2="21.735205"
       gradientUnits="userSpaceOnUse"
       gradientTransform="matrix(1.1149933,0,0,1.115284,-0.02733275,-3.8410997)" />
    <linearGradient
       inkscape:collect="always"
       xlink:href="#_lgradient_9"
       id="linearGradient872"
       x1="-12.025727"
       y1="6.1170783"
       x2="-0.085100174"
       y2="6.1170783"
       gradientUnits="userSpaceOnUse"
       gradientTransform="matrix(3.8366785,0,0,3.8379962,0.35529651,-0.36714362)" />
  </defs>
  <rect
     x="-46.432903"
     y="0.86118811"
     height="45.810375"
     rx="6.1851444"
     shape-rendering="crispEdges"
     id="rect5-6-7-3"
     ry="6.8070488"
     transform="matrix(0.00524063,-0.99998627,0.99998801,0.00489691,0,0)"
     style="isolation:isolate;fill:#ffa500;fill-opacity:0.134703;stroke:url(#linearGradient872);stroke-width:2.03055;stroke-miterlimit:4;stroke-dasharray:none;stroke-opacity:1"
     width="45.812237" />
  <rect
     x="-15.705267"
     y="16.751381"
     height="33.35331"
     rx="6.7935209"
     shape-rendering="crispEdges"
     id="rect5-6-6-6-6"
     style="isolation:isolate;fill:#ffa500;fill-opacity:0.134703;stroke:url(#linearGradient15-6);stroke-width:1.6727;stroke-miterlimit:4;stroke-dasharray:none;stroke-opacity:1"
     ry="7.4759774"
     transform="matrix(0.72446484,-0.68931175,0.68622417,0.72739012,0,0)"
     width="33.345654" />
  <path
     style="color:#000000;isolation:isolate;fill:url(#linearGradient1130);fill-rule:evenodd;-inkscape-stroke:none"
     d="m 17.75803,10.633078 c -0.709876,-0.03483 -1.366185,0.117044 -1.927734,0.455079 -1.123097,0.676069 -1.767578,2.039933 -1.767578,3.785156 v 17.246093 c 0,1.745223 0.644481,3.109087 1.767578,3.785157 1.123097,0.676069 2.629625,0.606031 4.171875,-0.210938 l 14.919922,-7.898437 c 2.109825,-1.116712 3.28125,-2.662068 3.28125,-4.298828 0,-1.636761 -1.171425,-3.18407 -3.28125,-4.300782 L 20.002171,11.297141 C 19.231046,10.888656 18.467907,10.667909 17.75803,10.633078 Z m -0.03125,0.994141 c 0.535541,0.02834 1.14118,0.202176 1.806641,0.554688 l 14.919922,7.898437 c 1.91191,1.011957 2.75,2.25912 2.75,3.416016 0,1.156896 -0.83809,2.404058 -2.75,3.416015 l -14.919922,7.898438 c -1.330923,0.705023 -2.426071,0.694684 -3.1875,0.236328 -0.761429,-0.458357 -1.283203,-1.421642 -1.283203,-2.927735 V 14.873313 c 0,-1.506093 0.521774,-2.469378 1.283203,-2.927735 0.380715,-0.229178 0.845318,-0.3467 1.380859,-0.318359 z m 4.744141,6.828125 c -0.709858,-0.03464 -1.368168,0.116973 -1.929688,0.455078 -1.123039,0.67621 -1.767578,2.039933 -1.767578,3.785156 v 1.601563 c 0,1.745223 0.644539,3.108946 1.767578,3.785156 1.12304,0.67621 2.62961,0.607361 4.171875,-0.208984 l 2.230469,-1.179688 c 1.53547,-0.812747 2.419922,-1.959748 2.419922,-3.197265 0,-1.237518 -0.884452,-2.384519 -2.419922,-3.197266 l -2.230469,-1.181641 c -0.771132,-0.408172 -1.532329,-0.627467 -2.242187,-0.662109 z m -0.0332,0.992187 c 0.535559,0.0282 1.14314,0.202453 1.808594,0.554688 l 2.228515,1.179687 c 1.337703,0.708067 1.888672,1.557007 1.888672,2.314454 0,0.757447 -0.550969,1.604433 -1.888672,2.3125 l -2.228515,1.18164 c -1.330908,0.70447 -2.427967,0.692886 -3.189454,0.234375 -0.761486,-0.45851 -1.283203,-1.421641 -1.283203,-2.927734 v -1.601563 c 0,-1.506092 0.521717,-2.471177 1.283203,-2.929687 0.380744,-0.229255 0.845301,-0.346557 1.38086,-0.31836 z"
     id="path14" />
</svg>
