<?xml version="1.0" encoding="UTF-8" standalone="no"?>
<svg
   height="64"
   width="64"
   version="1.1"
   id="svg9"
   sodipodi:docname="android-package-archive.svg"
   inkscape:version="1.1.2 (0a00cf5339, 2022-02-04)"
   xmlns:inkscape="http://www.inkscape.org/namespaces/inkscape"
   xmlns:sodipodi="http://sodipodi.sourceforge.net/DTD/sodipodi-0.dtd"
   xmlns:xlink="http://www.w3.org/1999/xlink"
   xmlns="http://www.w3.org/2000/svg"
   xmlns:svg="http://www.w3.org/2000/svg">
  <defs
     id="defs13">
    <linearGradient
       inkscape:collect="always"
       id="linearGradient846">
      <stop
         style="stop-color:#01ff58;stop-opacity:1"
         offset="0"
         id="stop842" />
      <stop
         style="stop-color:#81ff01;stop-opacity:1"
         offset="1"
         id="stop844" />
    </linearGradient>
    <linearGradient
       inkscape:collect="always"
       xlink:href="#linearGradient846"
       id="linearGradient848"
       x1="10.5"
       y1="33"
       x2="47.462231"
       y2="14.628798"
       gradientUnits="userSpaceOnUse" />
  </defs>
  <sodipodi:namedview
     id="namedview11"
     pagecolor="#ffffff"
     bordercolor="#666666"
     borderopacity="1.0"
     inkscape:pageshadow="2"
     inkscape:pageopacity="0.0"
     inkscape:pagecheckerboard="0"
     showgrid="false"
     inkscape:zoom="5.109375"
     inkscape:cx="32"
     inkscape:cy="32"
     inkscape:window-width="1056"
     inkscape:window-height="545"
     inkscape:window-x="256"
     inkscape:window-y="64"
     inkscape:window-maximized="0"
     inkscape:current-layer="svg9" />
  <path
     style="color:#000000;fill:#1fff01;fill-opacity:0.2;stroke-width:2;-inkscape-stroke:none"
     d="m 11.67,56.08 c 0,1.71 1.71,3.42 3.417,3.42 h 33.996 c 1.709,0 3.417,-1.71 3.417,-3.42 V 27.017 c 0,-1.71 0,-1.71 -1.708,-3.42 L 35.417,8.21 C 34.51,7.524 33.708,6.5 32,6.5 H 14.917 C 13.208,6.5 11.5,8.21 11.5,9.92 Z"
     id="path843" />
  <path
     id="path827"
     style="color:#000000;fill:url(#linearGradient848);-inkscape-stroke:none;fill-opacity:1"
     d="m 21.304687,25.474609 -0.310546,0.002 c -0.6492,0.0026 -1.17423,0.416305 -1.384766,0.935547 -0.210536,0.519242 -0.122289,1.182746 0.341797,1.636719 l 2.283203,2.283203 C 20.511396,32.525653 19.503826,35.20143 19.5,38 v 12.5 h 25 V 38 c 6.39e-4,-2.794877 -1.001458,-5.467146 -2.716797,-7.662109 l 2.289063,-2.289063 c 0.471683,-0.46091 0.553307,-1.135943 0.332031,-1.658203 -0.221276,-0.52226 -0.76264,-0.93231 -1.421875,-0.914063 -0.388695,0.01004 -0.758747,0.171862 -1.03125,0.449219 l -2.298828,2.302735 C 37.462084,26.511315 34.792345,25.505396 32,25.5 c -2.790208,-0.0016 -5.458576,0.995712 -7.652344,2.705078 l -2.273437,-2.275391 c -0.180504,-0.183554 -0.442953,-0.213746 -0.685547,-0.285156 z m 21.705079,1.001953 c 0.250358,-0.0069 0.397299,0.12222 0.474609,0.304688 0.07731,0.182468 0.0678,0.377694 -0.111328,0.552734 l -0.002,0.002 -2.886719,2.884766 0.296875,0.351563 C 42.536811,32.648881 43.500622,35.280749 43.5,38 v 11.5 h -23 V 38 c 0.0037,-2.722898 0.973179,-5.354719 2.736328,-7.429688 l 0.298828,-0.351562 -2.882812,-2.882813 -0.002,-0.002 c -0.175212,-0.171394 -0.186651,-0.36397 -0.113282,-0.544922 0.07244,-0.178663 0.215624,-0.30442 0.455078,-0.308593 H 21 c 0.135264,-7.77e-4 0.264532,0.05199 0.359375,0.148437 l 0.002,0.002 2.869141,2.871094 0.351562,-0.294922 C 26.657762,27.457599 29.285379,26.498448 32,26.5 c 2.717682,0.0053 5.343696,0.972255 7.416016,2.730469 l 0.351562,0.298828 2.896484,-2.902344 0.002,-0.002 c 0.09099,-0.09262 0.213955,-0.145085 0.34375,-0.148438 z M 32,27.5 c -5.793062,0 -10.5,4.706938 -10.5,10.5 v 0.5 h 21 V 38 C 42.5,32.206938 37.793062,27.5 32,27.5 Z m 0,1 c 5.075172,0 9.124729,3.99403 9.398437,9 H 22.601562 c 0.273709,-5.00597 4.323266,-9 9.398438,-9 z m -4,3 c -1.374788,0 -2.5,1.125212 -2.5,2.5 0,1.374788 1.125212,2.5 2.5,2.5 1.374788,0 2.5,-1.125212 2.5,-2.5 0,-1.374788 -1.125212,-2.5 -2.5,-2.5 z m 8,0 c -1.374788,0 -2.5,1.125212 -2.5,2.5 0,1.374788 1.125212,2.5 2.5,2.5 1.374788,0 2.5,-1.125212 2.5,-2.5 0,-1.374788 -1.125212,-2.5 -2.5,-2.5 z m -8,1 c 0.834349,0 1.5,0.665651 1.5,1.5 0,0.834349 -0.665651,1.5 -1.5,1.5 -0.834349,0 -1.5,-0.665651 -1.5,-1.5 0,-0.834349 0.665651,-1.5 1.5,-1.5 z m 8,0 c 0.834349,0 1.5,0.665651 1.5,1.5 0,0.834349 -0.665651,1.5 -1.5,1.5 -0.834349,0 -1.5,-0.665651 -1.5,-1.5 0,-0.834349 0.665651,-1.5 1.5,-1.5 z m -14.5,7 v 0.5 8.5 h 21 v -9 h -9 v 4 h -1 v -2 h -2 v -2 z m 1,1 h 7 v 2 h 2 v 1 h -2 v 3 h 3 v -2 h 2 v -4 h 7 v 7 h -19 z m 8,4 h 1 v 1 h -1 z M 14.917969,5.5 C 13.729942,5.5 12.657088,6.0628369 11.859375,6.8613281 11.061662,7.6598194 10.5,8.7319796 10.5,9.9199219 v 0.00195 l 0.169922,46.1621091 c 0.0012,1.186757 0.564341,2.257235 1.361328,3.054688 C 12.829121,59.93701 13.900473,60.5 15.087891,60.5 h 33.99414 c 1.188027,0 2.260881,-0.562837 3.058594,-1.361328 C 52.938338,58.340181 53.5,57.26802 53.5,56.080078 v -29.0625 c 0,-0.854999 0.0142,-1.492302 -0.318359,-2.158203 C 52.849079,24.193474 52.353999,23.745624 51.5,22.890625 L 36.076172,7.4550781 36.019531,7.4121094 C 35.26819,6.8438401 34.107686,5.5 32,5.5 Z m 0,2 H 32 c 1.274361,0 1.741373,0.6756979 2.746094,1.453125 l 15.33789,15.351562 c 0.852631,0.853699 1.214226,1.260262 1.308594,1.449219 C 51.487016,25.943004 51.5,26.162579 51.5,27.017578 v 29.0625 c 0,0.522056 -0.291855,1.160524 -0.775391,1.644531 C 50.241074,58.208617 49.603002,58.5 49.082031,58.5 h -33.99414 c -0.519581,0 -1.158701,-0.29123 -1.642578,-0.775391 -0.483878,-0.48416 -0.775391,-1.122865 -0.775391,-1.644531 v -0.002 -0.002 L 12.5,9.9199219 c 0,-0.522056 0.291855,-1.1605238 0.775391,-1.6445313 C 13.758926,7.7913831 14.396998,7.5 14.917969,7.5 Z" />
</svg>
