<?xml version="1.0" encoding="UTF-8" standalone="no"?>
<svg
   height="64"
   width="64"
   version="1.1"
   id="svg3"
   sodipodi:docname="application-x-godot-resource.svg"
   inkscape:version="1.1.2 (0a00cf5339, 2022-02-04)"
   xmlns:inkscape="http://www.inkscape.org/namespaces/inkscape"
   xmlns:sodipodi="http://sodipodi.sourceforge.net/DTD/sodipodi-0.dtd"
   xmlns:xlink="http://www.w3.org/1999/xlink"
   xmlns="http://www.w3.org/2000/svg"
   xmlns:svg="http://www.w3.org/2000/svg">
  <defs
     id="defs3">
    <linearGradient
       inkscape:collect="always"
       xlink:href="#linearGradient3-6"
       id="linearGradient4-3"
       x1="15.755541"
       y1="10.720991"
       x2="49.996742"
       y2="56.697521"
       gradientUnits="userSpaceOnUse" />
    <linearGradient
       id="linearGradient3-6"
       inkscape:collect="always">
      <stop
         style="stop-color:#7100ff;stop-opacity:0.2"
         offset="0"
         id="stop3-7" />
      <stop
         style="stop-color:#00c9ff;stop-opacity:0.40000001"
         offset="1"
         id="stop4-5" />
    </linearGradient>
  </defs>
  <sodipodi:namedview
     id="namedview3"
     pagecolor="#ffffff"
     bordercolor="#000000"
     borderopacity="0.25"
     inkscape:showpageshadow="2"
     inkscape:pageopacity="0.0"
     inkscape:pagecheckerboard="0"
     inkscape:deskcolor="#d1d1d1"
     inkscape:zoom="11.984375"
     inkscape:cx="31.916558"
     inkscape:cy="45.142112"
     inkscape:window-width="1600"
     inkscape:window-height="836"
     inkscape:window-x="0"
     inkscape:window-y="0"
     inkscape:window-maximized="1"
     inkscape:current-layer="svg3"
     inkscape:pageshadow="2"
     showgrid="false" />
  <path
     style="color:#000000;fill:url(#linearGradient4-3);stroke-width:2;-inkscape-stroke:none"
     d="m 11.67,56.08 c 0,1.71 1.71,3.42 3.417,3.42 h 33.996 c 1.709,0 3.417,-1.71 3.417,-3.42 V 27.017 c 0,-1.71 0,-1.71 -1.708,-3.42 L 35.417,8.21 C 34.51,7.524 33.708,6.5 32,6.5 H 14.917 C 13.208,6.5 11.5,8.21 11.5,9.92 Z"
     id="path14761" />
  <path
     style="color:#000000;fill:#05c4ff;fill-opacity:0.990557;-inkscape-stroke:none"
     d="M 14.917969,5.5 C 13.729942,5.5 12.657088,6.0628369 11.859375,6.8613281 11.061662,7.6598194 10.5,8.7319796 10.5,9.9199219 v 0.00195 l 0.169922,46.1621091 c 0.0012,1.186757 0.564341,2.257235 1.361328,3.054688 C 12.829121,59.93701 13.900473,60.5 15.087891,60.5 h 33.99414 c 1.188027,0 2.260881,-0.562837 3.058594,-1.361328 C 52.938338,58.340181 53.5,57.26802 53.5,56.080078 v -29.0625 c 0,-0.854999 0.0142,-1.492302 -0.318359,-2.158203 C 52.849079,24.193474 52.353999,23.745624 51.5,22.890625 L 36.076172,7.4550781 36.019531,7.4121094 C 35.26819,6.8438401 34.107686,5.5 32,5.5 Z m 0,2 H 32 c 1.274361,0 1.741373,0.6756979 2.746094,1.453125 l 15.33789,15.351562 c 0.852631,0.853699 1.214226,1.260262 1.308594,1.449219 C 51.487016,25.943004 51.5,26.162579 51.5,27.017578 v 29.0625 c 0,0.522056 -0.291855,1.160524 -0.775391,1.644531 C 50.241074,58.208617 49.603002,58.5 49.082031,58.5 h -33.99414 c -0.519581,0 -1.158701,-0.29123 -1.642578,-0.775391 -0.483878,-0.48416 -0.775391,-1.122865 -0.775391,-1.644531 v -0.002 -0.002 L 12.5,9.9199219 c 0,-0.522056 0.291855,-1.1605238 0.775391,-1.6445313 C 13.758926,7.7913831 14.396998,7.5 14.917969,7.5 Z"
     id="path14763" />
  <g
     id="g1175-6-3"
     style="fill:none;stroke:#04c3ff;stroke-opacity:0.996078"
     transform="translate(-0.079758,7.061687)">
    <path
       style="color:#000000;fill:#04c3ff;fill-opacity:0.996078;stroke:none;stroke-opacity:1;-inkscape-stroke:none"
       d="m 34.585937,18.306641 -0.185546,0.310546 c -0.459942,0.773014 -0.862741,1.601361 -1.238282,2.416016 -0.219304,-0.02601 -0.435664,-0.04386 -0.652343,-0.05469 v -0.03906 h -0.494141 -0.0059 c -0.07811,0 -0.09445,0 -0.0098,0 0.08167,0 0.0779,0 -0.0098,0 h -0.0059 -0.494141 v 0.03906 c -0.216477,0.0108 -0.433387,0.0268 -0.652343,0.05273 -0.375153,-0.814195 -0.779757,-1.641287 -1.240235,-2.414063 l -0.144531,-0.24414 h -0.339844 l -0.05273,0.01172 c -1.299541,0.2889 -2.59844,0.694539 -3.826172,1.3125 l -0.283203,0.142578 0.0078,0.316406 c 0.02446,0.944679 0.09713,1.858975 0.208985,2.783203 -0.370526,0.224737 -0.760638,0.438376 -1.150391,0.75 -0.0014,0.0011 -0.0025,0.0029 -0.0039,0.0039 -0.0012,9.87e-4 -0.0027,9.65e-4 -0.0039,0.002 -0.326029,0.250608 -0.67047,0.533618 -1.007813,0.830079 -0.709121,-0.454808 -1.438664,-0.89657 -2.203125,-1.28125 l -0.335937,-0.169922 -0.25586,0.27539 c -0.940549,1.012225 -1.828276,2.114603 -2.558594,3.357422 l -0.154296,0.263672 0.164062,0.257813 c 0.524406,0.823166 1.084548,1.632836 1.623047,2.316406 v 5.777344 0.753906 1.18164 l 0.492187,0.0039 4.507813,0.433593 0.169922,2.417969 4.83789,0.345703 0.337891,-2.289062 h 4.746094 l 0.33789,2.289062 4.837891,-0.345703 0.169922,-2.417969 4.501953,-0.433593 0.496094,-0.0039 v -0.714843 l 0.002,-0.002 v -6.998047 c 0.605871,-0.777437 1.183747,-1.609732 1.625,-2.320313 l 0.160156,-0.255859 -0.152344,-0.259766 c -0.73004,-1.242943 -1.619957,-2.345249 -2.560447,-3.35741 l -0.25586,-0.27539 -0.333984,0.169922 c -0.764686,0.384905 -1.495448,0.826088 -2.205078,1.28125 -0.336991,-0.296327 -0.679153,-0.5793 -1.00586,-0.830079 l -0.0039,-0.002 c -0.391234,-0.313641 -0.782915,-0.528457 -1.154297,-0.753906 0.111569,-0.924141 0.184407,-1.838572 0.208985,-2.783203 l 0.0078,-0.316406 -0.283203,-0.142578 c -1.227823,-0.617941 -2.525975,-1.023596 -3.826172,-1.3125 z m -5.666015,1.175781 c 0.419844,0.736719 0.825402,1.507228 1.169922,2.277344 l 0.15625,0.351562 0.382812,-0.0625 c 0.444191,-0.07421 0.896462,-0.103696 1.361328,-0.109375 h 0.01367 0.0059 c 0.464043,0.0057 0.917344,0.03519 1.361328,0.109375 l 0.380859,0.0625 0.158203,-0.351562 c 0.34471,-0.770067 0.748443,-1.54046 1.167969,-2.277344 1.011836,0.243682 1.999826,0.564015 2.935547,1.003906 -0.03217,0.896804 -0.08177,1.767963 -0.199219,2.642578 l -0.04297,0.316406 0.269532,0.171875 c 0.482175,0.309509 0.94452,0.554013 1.322265,0.857422 l 0.0059,0.0039 0.0039,0.0039 c 0.443163,0.340445 0.865613,0.647058 1.222656,1.001953 l 0.289063,0.287109 0.339843,-0.224609 c 0.658811,-0.435754 1.362288,-0.830998 2.072266,-1.205078 0.738021,0.818167 1.423712,1.683689 2.005859,2.626953 -0.428103,0.6714 -0.925141,1.417653 -1.474609,2.109375 l -0.109375,0.136719 v 6.58789 l -0.002,0.002 v 0.5 l -4.107422,0.396485 c -0.476178,0.04621 -0.85526,0.436787 -0.888672,0.914062 l -0.109375,1.5625 -3.046875,0.216797 -0.205078,-1.382812 c -0.07084,-0.480321 -0.488864,-0.841797 -0.974609,-0.841797 h -4.769532 c -0.485743,0 -0.905715,0.361498 -0.976562,0.841797 l -0.203125,1.382812 -3.046875,-0.216797 -0.109375,-1.5625 c -0.03319,-0.477689 -0.41412,-0.868076 -0.890625,-0.914062 L 20.28125,36.304687 v -0.228515 -0.753906 -6.111329 l -0.111328,-0.136718 c -0.468224,-0.579957 -0.980759,-1.344438 -1.472656,-2.103516 0.582674,-0.944149 1.267342,-1.810187 2.005859,-2.628906 0.709939,0.374023 1.411529,0.769341 2.070312,1.205078 l 0.339844,0.224609 0.289063,-0.287109 c 0.356992,-0.354727 0.78167,-0.663145 1.224609,-1.003906 l 0.0039,-0.002 0.0039,-0.0039 c 0.378067,-0.303579 0.841579,-0.548206 1.324218,-0.857422 l 0.269532,-0.171875 -0.04297,-0.316406 c -0.117759,-0.874528 -0.16712,-1.74583 -0.199219,-2.642578 0.935078,-0.439619 1.922752,-0.760274 2.933594,-1.003906 z m -3.328125,9.675781 c -1.773885,0 -3.222656,1.448277 -3.222656,3.222656 0,1.775199 1.448616,3.22461 3.222656,3.22461 1.774654,0 3.224609,-1.449499 3.224609,-3.22461 0,-1.774291 -1.45011,-3.222656 -3.224609,-3.222656 z m 12.816406,0 c -1.774704,0 -3.224609,1.448356 -3.224609,3.222656 0,1.77512 1.44975,3.22461 3.224609,3.22461 1.773938,0 3.222656,-1.449449 3.222656,-3.22461 0,-1.774341 -1.448874,-3.222656 -3.222656,-3.222656 z m -12.816406,1 c 1.234566,0 2.224609,0.98888 2.224609,2.222656 0,1.234955 -0.990199,2.22461 -2.224609,2.22461 -1.233527,0 -2.222656,-0.989743 -2.222656,-2.22461 0,-1.233688 0.988974,-2.222656 2.222656,-2.222656 z m 12.816406,0 c 1.233535,0 2.222656,0.988931 2.222656,2.222656 0,1.234904 -0.989276,2.22461 -2.222656,2.22461 -1.234705,0 -2.224609,-0.989665 -2.224609,-2.22461 0,-1.233766 0.989749,-2.222656 2.224609,-2.222656 z M 32,30.751953 c -0.730172,0 -1.376953,0.559651 -1.376953,1.296875 v 2.507813 c 0,0.737345 0.646999,1.296875 1.376953,1.296875 0.729954,0 1.376953,-0.558909 1.376953,-1.296875 v -2.507813 c 0,-0.737845 -0.646781,-1.296875 -1.376953,-1.296875 z m 0,1 c 0.238383,0 0.376953,0.155577 0.376953,0.296875 v 2.507813 c 0,0.141926 -0.138352,0.296875 -0.376953,0.296875 -0.238601,0 -0.376953,-0.154327 -0.376953,-0.296875 v -2.507813 c 0,-0.141919 0.13857,-0.296875 0.376953,-0.296875 z"
       id="path84-6-5-2-5" />
    <path
       style="color:#000000;fill:#04c3ff;fill-opacity:0.996078;stroke:none;stroke-opacity:1;-inkscape-stroke:none"
       d="m 19.271484,37.185547 0.002,0.552734 c 0.0019,0.439509 0.0078,0.934075 0.0078,1.009766 0,2.357706 1.540536,4.135147 3.851562,5.240234 2.311027,1.105087 5.424365,1.626632 8.857422,1.638672 H 32 32.0098 c 3.433057,-0.01204 6.544891,-0.533565 8.855468,-1.638672 2.310578,-1.105106 3.851563,-2.882601 3.851563,-5.240234 0,-0.07676 0.0058,-0.569856 0.0078,-1.009766 l 0.002,-0.552734 -5.033203,0.486328 -0.0293,0.421875 -0.140625,1.994141 -4.791015,0.34375 -0.335938,-2.289063 h -4.792968 l -0.335938,2.289063 -4.791016,-0.34375 -0.169921,-2.416016 z m 1.00586,1.101562 3.091797,0.298828 0.109375,1.583985 c 0.03393,0.486625 0.42791,0.879154 0.914062,0.914062 l 4.814453,0.34375 c 0.511396,0.0375 0.972343,-0.333443 1.046875,-0.839843 l 0.212891,-1.445313 h 3.066406 l 0.212891,1.445313 c 0.07103,0.4829 0.490736,0.84375 0.974609,0.84375 0.0204,0 0.04404,-0.002 0.07031,-0.0039 l 4.816406,-0.34375 c 0.486158,-0.0349 0.880127,-0.42744 0.914062,-0.914062 l 0.109375,-1.583985 3.089844,-0.298828 c -0.0015,0.160731 -0.0039,0.4076 -0.0039,0.460938 0,1.93493 -1.180709,3.332307 -3.283203,4.33789 -2.102494,1.005584 -5.095391,1.529328 -8.427735,1.541016 H 32 31.9941 31.9921 c -3.331512,-0.0119 -6.325189,-0.53562 -8.427734,-1.541016 -2.102981,-1.005604 -3.283203,-2.403032 -3.283203,-4.33789 0,-0.05224 -0.0025,-0.300001 -0.0039,-0.460938 z"
       id="path88-5-2-9-6" />
    <path
       style="color:#000000;fill:#04c3ff;fill-opacity:0.996078;stroke:none;stroke-opacity:1;-inkscape-stroke:none"
       d="m 25.853516,30.234375 c -1.26887,0 -2.308594,1.03999 -2.308594,2.308594 0,1.268604 1.039975,2.30664 2.308594,2.30664 1.268983,0 2.30664,-1.038203 2.30664,-2.30664 0,-1.268437 -1.037407,-2.308594 -2.30664,-2.308594 z m 0,1 c 0.728816,0 1.30664,0.580479 1.30664,1.308594 0,0.728116 -0.577573,1.30664 -1.30664,1.30664 -0.728433,0 -1.308594,-0.578691 -1.308594,-1.30664 0,-0.727948 0.580411,-1.308594 1.308594,-1.308594 z"
       id="path96-2-7-1-2" />
    <path
       style="color:#000000;fill:#04c3ff;fill-opacity:0.996078;stroke:none;stroke-opacity:1;-inkscape-stroke:none"
       d="m 38.146484,30.234375 c -1.268687,0 -2.30664,1.04024 -2.30664,2.308594 0,1.268354 1.038204,2.30664 2.30664,2.30664 1.269167,0 2.308594,-1.038286 2.308594,-2.30664 0,-1.268354 -1.039177,-2.308594 -2.308594,-2.308594 z m 0,1 c 0.729136,0 1.308594,0.580395 1.308594,1.308594 0,0.7282 -0.579208,1.30664 -1.308594,1.30664 -0.728115,0 -1.30664,-0.57844 -1.30664,-1.30664 0,-0.728199 0.578775,-1.308594 1.30664,-1.308594 z"
       id="path108-9-6-2-9" />
  </g>
</svg>
