<?xml version="1.0" encoding="UTF-8" standalone="no"?>
<svg
   height="64"
   width="64"
   version="1.1"
   id="svg13"
   sodipodi:docname="application-x-python-bytecode.svg"
   inkscape:version="1.1.2 (0a00cf5339, 2022-02-04)"
   xmlns:inkscape="http://www.inkscape.org/namespaces/inkscape"
   xmlns:sodipodi="http://sodipodi.sourceforge.net/DTD/sodipodi-0.dtd"
   xmlns:xlink="http://www.w3.org/1999/xlink"
   xmlns="http://www.w3.org/2000/svg"
   xmlns:svg="http://www.w3.org/2000/svg">
  <defs
     id="defs17">
    <linearGradient
       inkscape:collect="always"
       id="linearGradient848">
      <stop
         style="stop-color:#fe8c19;stop-opacity:1;"
         offset="0"
         id="stop844" />
      <stop
         style="stop-color:#fbfe19;stop-opacity:1"
         offset="1"
         id="stop846" />
    </linearGradient>
    <linearGradient
       inkscape:collect="always"
       xlink:href="#linearGradient848"
       id="linearGradient850"
       x1="-0.66905247"
       y1="5.9839412"
       x2="13.373192"
       y2="-1.0338372"
       gradientUnits="userSpaceOnUse" />
  </defs>
  <sodipodi:namedview
     id="namedview15"
     pagecolor="#ffffff"
     bordercolor="#666666"
     borderopacity="1.0"
     inkscape:pageshadow="2"
     inkscape:pageopacity="0.0"
     inkscape:pagecheckerboard="0"
     showgrid="false"
     inkscape:zoom="10.21875"
     inkscape:cx="31.95107"
     inkscape:cy="32"
     inkscape:window-width="1600"
     inkscape:window-height="836"
     inkscape:window-x="0"
     inkscape:window-y="0"
     inkscape:window-maximized="1"
     inkscape:current-layer="svg13" />
  <path
     style="color:#000000;fill:#fe8c19;fill-opacity:0.2;stroke-width:2;-inkscape-stroke:none"
     d="m 11.67,56.08 c 0,1.71 1.71,3.42 3.417,3.42 h 33.996 c 1.709,0 3.417,-1.71 3.417,-3.42 V 27.017 c 0,-1.71 0,-1.71 -1.708,-3.42 L 35.417,8.21 C 34.51,7.524 33.708,6.5 32,6.5 H 14.917 C 13.208,6.5 11.5,8.21 11.5,9.92 Z"
     id="path5852" />
  <g
     fill="#fe8c19"
     id="g10"
     transform="matrix(2.4800865,0,0,2.4800865,12.159308,18.159308)"
     style="fill:none;stroke:#fe8c19;stroke-width:0.403212">
    <path
       id="path8"
       style="color:#000000;fill:url(#linearGradient850);stroke:none;-inkscape-stroke:none;fill-opacity:1"
       d="M 7.9980469,7.7988281 C 7.3374342,7.8048653 6.7227763,8.1390336 6.3574219,8.6894531 5.9753728,9.2589835 5.7988281,10.021435 5.7988281,11 c 0,0.980321 0.1757566,1.743682 0.5585938,2.3125 C 6.7476085,13.888384 7.3747986,14.201172 8,14.201172 h 0.00195 c 0.6606127,-0.006 1.2752706,-0.340206 1.640625,-0.890625 0.382206,-0.568674 0.558597,-1.331008 0.558597,-2.310547 0,-0.979539 -0.176391,-1.7418727 -0.5585939,-2.3105469 C 9.2772237,8.1390336 8.6625658,7.8048653 8.0019531,7.7988281 H 8 Z M 8,8.203125 c 0.5262062,0.00574 1.0155467,0.2704409 1.3066406,0.7089844 h 0.00195 C 9.6297559,9.3892906 9.7988281,10.068323 9.7988281,11 c 0,0.931677 -0.1690722,1.610709 -0.4902343,2.087891 h -0.00195 C 9.0153641,13.526709 8.5265832,13.793414 8,13.798828 c -0.4907975,0 -0.992781,-0.244823 -1.3085938,-0.710937 C 6.3702441,12.610709 6.2011719,11.931677 6.2011719,11 c 0,-0.930652 0.1689182,-1.6095677 0.4902343,-2.0878906 h 0.00195 C 6.9844533,8.4735659 7.4737938,8.2088613 8,8.203125 Z m 0,0.5957031 c -0.3096842,0 -0.5982406,0.1312127 -0.8125,0.4492188 C 6.9607291,9.5823623 6.7988281,10.144515 6.7988281,11 c 0,0.113859 0.00902,0.202515 0.013672,0.289063 l 0.02539,0.451171 2.148438,-2.1484371 -0.058594,-0.1269531 C 8.8972635,9.399141 8.8644187,9.3232991 8.8125,9.2480469 8.5980574,8.9297689 8.3088275,8.7988281 8,8.7988281 Z m 0,0.4023438 c 0.2311719,0 0.3129586,0.025763 0.4785156,0.2714844 l 0.00195,0.00195 v 0.00195 c 0.00347,0.00496 0.012923,0.024943 0.017578,0.033203 L 7.2519531,10.755859 C 7.2923384,10.162585 7.3913792,9.6640676 7.5214844,9.4726563 7.6872246,9.2266629 7.7676848,9.2011719 8,9.2011719 Z m 1.1640625,1.0566411 -0.3203125,0.320312 -1.8300781,1.830078 0.058594,0.126953 c 0.030471,0.0657 0.063316,0.141545 0.1152344,0.216797 0.2144426,0.318278 0.5036725,0.449219 0.8125,0.449219 0.3096842,0 0.5982406,-0.131213 0.8125,-0.449219 C 9.0392709,12.417638 9.2011719,11.855485 9.2011719,11 c 0,-0.113859 -0.00902,-0.203468 -0.013672,-0.291016 z M 8.7480469,11.244141 C 8.7076616,11.837415 8.6086208,12.335932 8.4785156,12.527344 8.3127754,12.773337 8.2323152,12.798828 8,12.798828 c -0.2311719,0 -0.3129586,-0.02576 -0.4785156,-0.271484 l -0.00195,-0.002 v -0.002 c -0.00347,-0.005 -0.012923,-0.02494 -0.017578,-0.0332 z M 7,1.7988281 C 5.7837987,1.7988281 4.7988281,2.7837987 4.7988281,4 v 0.2011719 h 3 V 4.7988281 H 4 C 2.7837987,4.7988281 1.7988281,5.7837987 1.7988281,7 v 2 c 0,1.216201 0.9849706,2.201172 2.2011719,2.201172 H 4.2011719 V 10 c 0,-0.8300368 0.3630447,-1.5607246 0.9335937,-2.0742188 l 0.00195,-0.00195 0.00195,-0.00195 C 5.2615619,7.8115422 5.3948708,7.7121576 5.5351562,7.625 L 5.5234372,7.62891 C 5.5303772,7.6257 5.5370272,7.62206 5.5390622,7.6211 5.539571,7.62086 5.5429422,7.61917 5.5429722,7.61915 5.6807282,7.53347 5.8237633,7.4615211 5.976566,7.4004 5.989353,7.39529 6.018397,7.38841 6.058597,7.375009 l 0.00195,-0.00195 H 6.0625 C 6.1978607,7.3247038 6.3340321,7.2810307 6.46875,7.2539062 L 6.4668,7.2558562 C 6.6418776,7.2219728 6.8192806,7.2011719 7.0019531,7.2011719 H 11.203125 V 4 c 0,-1.2162013 -0.984971,-2.2011719 -2.2011719,-2.2011719 z M 7,2.2011719 H 9.0019531 C 10.00175,2.2011719 10.800781,3.0002035 10.800781,4 V 6.7988281 H 7.0019531 c -0.2113271,0 -0.4144092,0.022434 -0.6113281,0.060547 h -0.00195 c -0.1632818,0.032876 -0.3182517,0.081156 -0.4628907,0.1328125 -0.020194,0.00651 -0.054012,0.014964 -0.099609,0.033203 -0.1566529,0.062661 -0.302015,0.1409453 -0.4453125,0.2265625 h -0.00977 l -0.044922,0.027344 -0.00391,0.00195 c -0.00155,9.627e-4 -0.00236,0.00294 -0.00391,0.00391 -4.42e-4,2.757e-4 -0.00151,-2.758e-4 -0.00195,0 l -0.039063,0.025391 -0.00391,0.00781 C 5.1313435,7.4104291 4.993097,7.5097722 4.8671778,7.6230456 l -0.00391,0.00391 C 4.2149951,8.2113853 3.7988281,9.0530292 3.7988281,10 v 0.716797 C 2.9105198,10.604205 2.2011719,9.9209588 2.2011719,9 V 7 C 2.2011719,6.0002035 3.0002035,5.2011719 4,5.2011719 H 8.2011719 V 3.7988281 H 5.2832031 C 5.3957949,2.9105198 6.0790412,2.2011719 7,2.2011719 Z m 0,0.097656 c -0.2170679,0 -0.4051086,0.087339 -0.5253906,0.2226563 C 6.3543273,2.6568018 6.2988281,2.8301989 6.2988281,3 c 0,0.1698011 0.055499,0.3431982 0.1757813,0.4785156 C 6.5948914,3.613833 6.7829321,3.7011719 7,3.7011719 c 0.2170679,0 0.4051086,-0.087339 0.5253906,-0.2226563 C 7.6456727,3.3431982 7.7011719,3.1698011 7.7011719,3 7.7011719,2.8301989 7.6456727,2.6568018 7.5253906,2.5214844 7.4051086,2.386167 7.2170679,2.2988281 7,2.2988279 Z m 0,0.4023438 c 0.116265,0 0.178225,0.037661 0.2246094,0.089844 0.046384,0.052182 0.074219,0.1287858 0.074219,0.2089844 0,0.080199 -0.027834,0.1568019 -0.074219,0.2089844 C 7.178225,3.2611668 7.116265,3.2988281 7,3.2988281 c -0.116265,0 -0.178225,-0.037661 -0.2246094,-0.089844 C 6.7290063,3.1568019 6.7011719,3.0801986 6.7011719,3 c 0,-0.080199 0.027834,-0.1568019 0.074219,-0.2089844 C 6.821775,2.7388332 6.883735,2.7011719 7,2.7011717 Z m 4.916016,5.0976562 -0.05859,0.058594 L 10.214844,9.5 l 0.992187,0.992188 0.591797,-0.5917974 v 2.8984374 h -1 v 1.402344 h 3.402344 v -1.402344 h -1 V 7.7988281 Z m 0.167968,0.4023438 h 0.714844 v 5.0000003 h 1 v 0.597656 h -2.597656 v -0.597656 h 1 V 8.9277344 L 11.207031,9.921875 10.785156,9.5 Z M 1.1123245,-5.1043816 c -0.47902643,0 -0.91161376,0.2269424 -1.23326101,0.5489034 -0.32164725,0.3219611 -0.54811596,0.7542687 -0.54811596,1.233261 v 7.862e-4 l 0.0685146,18.613104 c 4.8385e-4,0.478515 0.22754891,0.910144 0.54890343,1.231687 0.32171096,0.3219 0.75369266,0.548904 1.23247354,0.548904 H 14.887675 c 0.479027,0 0.911614,-0.226942 1.233262,-0.548903 0.321647,-0.321961 0.548115,-0.754269 0.548115,-1.233261 V 3.5717585 c 0,-0.3447457 0.0057,-0.6017137 -0.128366,-0.8702128 C 16.406593,2.4330466 16.206971,2.2524682 15.862629,1.9077226 L 9.6435604,-4.3160712 9.6207221,-4.3333967 C 9.3177726,-4.5625295 8.8498437,-5.1043816 8,-5.1043816 Z m 0,0.8064234 H 8 c 0.5138373,0 0.702142,0.2724494 1.1072573,0.5859171 L 15.291675,2.477889 c 0.343791,0.3442214 0.48959,0.5081524 0.52764,0.5843421 0.03808,0.076246 0.04331,0.1647817 0.04331,0.5095274 V 15.2901 c 0,0.210499 -0.117679,0.467937 -0.312647,0.663094 -0.194967,0.195158 -0.452245,0.312647 -0.662307,0.312647 H 1.1808391 c -0.20950121,0 -0.46720189,-0.117428 -0.66230678,-0.312647 C 0.32342703,15.757975 0.20588556,15.500442 0.20588556,15.2901 v -8.07e-4 -8.06e-4 L 0.13737102,-3.3222172 c 0,-0.2104991 0.11767936,-0.4679369 0.31264675,-0.6630944 0.19496699,-0.1951575 0.45224511,-0.3126466 0.66230673,-0.3126466 z" />
  </g>
</svg>
