<?xml version="1.0" encoding="UTF-8" standalone="no"?>
<svg
   height="64"
   width="64"
   version="1.1"
   id="svg9"
   sodipodi:docname="application-x-nzb.svg"
   inkscape:version="1.1.2 (0a00cf5339, 2022-02-04)"
   xmlns:inkscape="http://www.inkscape.org/namespaces/inkscape"
   xmlns:sodipodi="http://sodipodi.sourceforge.net/DTD/sodipodi-0.dtd"
   xmlns:xlink="http://www.w3.org/1999/xlink"
   xmlns="http://www.w3.org/2000/svg"
   xmlns:svg="http://www.w3.org/2000/svg">
  <defs
     id="defs13">
    <linearGradient
       inkscape:collect="always"
       id="linearGradient846">
      <stop
         style="stop-color:#19c5ff;stop-opacity:1;"
         offset="0"
         id="stop842" />
      <stop
         style="stop-color:#ff1925;stop-opacity:1"
         offset="1"
         id="stop844" />
    </linearGradient>
    <linearGradient
       inkscape:collect="always"
       xlink:href="#linearGradient846"
       id="linearGradient848"
       x1="10.5"
       y1="33"
       x2="43.614365"
       y2="12.929898"
       gradientUnits="userSpaceOnUse" />
  </defs>
  <sodipodi:namedview
     id="namedview11"
     pagecolor="#ffffff"
     bordercolor="#666666"
     borderopacity="1.0"
     inkscape:pageshadow="2"
     inkscape:pageopacity="0.0"
     inkscape:pagecheckerboard="0"
     showgrid="false"
     inkscape:zoom="10.21875"
     inkscape:cx="31.070336"
     inkscape:cy="32"
     inkscape:window-width="1600"
     inkscape:window-height="836"
     inkscape:window-x="0"
     inkscape:window-y="0"
     inkscape:window-maximized="1"
     inkscape:current-layer="svg9" />
  <path
     style="color:#000000;fill:#19c5ff;fill-opacity:0.2;stroke-width:2;-inkscape-stroke:none"
     d="m 11.67,56.08 c 0,1.71 1.71,3.42 3.417,3.42 h 33.996 c 1.709,0 3.417,-1.71 3.417,-3.42 V 27.017 c 0,-1.71 0,-1.71 -1.708,-3.42 L 35.417,8.21 C 34.51,7.524 33.708,6.5 32,6.5 H 14.917 C 13.208,6.5 11.5,8.21 11.5,9.92 Z"
     id="path7954" />
  <path
     id="path6"
     style="color:#000000;fill:url(#linearGradient848);-inkscape-stroke:none;fill-opacity:1"
     d="m 26.75,21.746094 v 1 c 3.368282,0 6.064453,2.69617 6.064453,6.064453 0,3.368282 -2.696171,6.064453 -6.064453,6.064453 -3.368282,0 -6.064453,-2.696171 -6.064453,-6.064453 v -0.002 c -0.0067,-3.357457 2.705043,-6.069235 6.0625,-6.0625 z m 0,0 c -3.899314,-0.0078 -7.072276,3.165139 -7.064453,7.064453 0,3.904984 3.159468,7.064453 7.064453,7.064453 3.904985,0 7.064453,-3.159469 7.064453,-7.064453 0,-3.904986 -3.159468,-7.064453 -7.064453,-7.064453 z m 0,2.625 c -2.450331,0 -4.439453,1.989121 -4.439453,4.439453 0,2.450331 1.989122,4.4375 4.439453,4.4375 2.450331,0 4.4375,-1.987169 4.4375,-4.4375 0,-2.450332 -1.987169,-4.439453 -4.4375,-4.439453 z m 0,1 c 1.913629,0 3.4375,1.525823 3.4375,3.439453 0,1.913629 -1.523871,3.4375 -3.4375,3.4375 -1.913629,0 -3.439453,-1.523871 -3.439453,-3.4375 0,-1.91363 1.525824,-3.439453 3.439453,-3.439453 z m 14.441406,1.626953 c -3.177658,0 -5.751953,2.572342 -5.751953,5.75 0,3.177658 2.574295,5.751953 5.751953,5.751953 3.177658,0 5.751953,-2.574295 5.751953,-5.751953 0,-3.177658 -2.574295,-5.75 -5.751953,-5.75 z m 0,1 c 2.640956,0 4.751953,2.109044 4.751953,4.75 0,2.640956 -2.110997,4.751953 -4.751953,4.751953 -2.640956,0 -4.751953,-2.110997 -4.751953,-4.751953 0,-2.640956 2.110997,-4.75 4.751953,-4.75 z m 0,1.625 c -1.723004,0 -3.125,1.401995 -3.125,3.125 0,1.723005 1.401996,3.126953 3.125,3.126953 1.723005,0 3.125,-1.403948 3.125,-3.126953 0,-1.723005 -1.401995,-3.125 -3.125,-3.125 z m 0,1 c 1.186303,0 2.125,0.938697 2.125,2.125 0,1.186302 -0.938697,2.126953 -2.125,2.126953 -1.186302,0 -2.125,-0.940651 -2.125,-2.126953 0,-1.186303 0.938698,-2.125 2.125,-2.125 z M 26.75,37.5 c -6.814693,0 -12.316406,5.509668 -12.316406,12.316406 v 4.4375 h 24.632812 v -4.4375 C 39.066406,43.001713 33.556738,37.5 26.75,37.5 Z m 0,1 c 6.269389,0 11.316406,5.039217 11.316406,11.316406 v 3.4375 H 15.433594 v -3.4375 C 15.433594,43.547017 20.472812,38.5 26.75,38.5 Z m 0,1.625 c -5.359638,0 -9.689453,4.331767 -9.689453,9.691406 v 1.8125 h 19.378906 v -1.8125 C 36.439453,44.456767 32.109638,40.125 26.75,40.125 Z m 14.439453,0 c -1.552606,3.85e-4 -2.985693,0.450296 -4.220703,1.171875 l -0.566406,0.332031 0.470703,0.457031 c 0.617175,0.601938 1.17621,1.25414 1.65625,1.962891 l 0.242187,0.355469 0.386719,-0.183594 c 2.997782,-1.429256 6.299954,0.589713 6.650391,3.78125 h -5.492188 l 0.119141,0.599609 c 0.164369,0.816788 0.253906,1.660732 0.253906,2.527344 v 0.5 h 8.876953 v -3.126953 c 0,-4.631645 -3.74361,-8.375876 -8.375,-8.376953 -6.66e-4,0 -0.0013,0 -0.002,0 z m -14.439453,1 c 4.822936,0 8.689453,3.868469 8.689453,8.691406 v 0.8125 H 18.060547 v -0.8125 c 0,-4.822937 3.866517,-8.691406 8.689453,-8.691406 z m 14.439453,0 c 6.68e-4,0 0.0013,0 0.002,0 4.094677,0.0011 7.375,3.282011 7.375,7.376953 v 2.126953 h -6.927734 c -0.02063,-0.552597 -0.0782,-1.093954 -0.16211,-1.626953 H 46.9395 v -0.498047 c 0.0026,-4.050238 -4.099565,-6.689669 -7.792969,-5.263672 -0.337829,-0.471251 -0.721038,-0.899872 -1.113281,-1.320312 0.965834,-0.470438 2.012247,-0.7946 3.15625,-0.794922 z M 14.917969,5.5 C 13.729942,5.5 12.657088,6.0628369 11.859375,6.8613281 11.061662,7.6598194 10.5,8.7319796 10.5,9.9199219 v 0.00195 l 0.169922,46.1621091 c 0.0012,1.186757 0.564341,2.257235 1.361328,3.054688 C 12.829121,59.93701 13.900473,60.5 15.087891,60.5 h 33.99414 c 1.188027,0 2.260881,-0.562837 3.058594,-1.361328 C 52.938338,58.340181 53.5,57.26802 53.5,56.080078 v -29.0625 c 0,-0.854999 0.0142,-1.492302 -0.318359,-2.158203 C 52.849079,24.193474 52.353999,23.745624 51.5,22.890625 L 36.076172,7.4550781 36.019531,7.4121094 C 35.26819,6.8438401 34.107686,5.5 32,5.5 Z m 0,2 H 32 c 1.274361,0 1.741373,0.6756979 2.746094,1.453125 l 15.33789,15.351562 c 0.852631,0.853699 1.214226,1.260262 1.308594,1.449219 C 51.487016,25.943004 51.5,26.162579 51.5,27.017578 v 29.0625 c 0,0.522056 -0.291855,1.160524 -0.775391,1.644531 C 50.241074,58.208617 49.603002,58.5 49.082031,58.5 h -33.99414 c -0.519581,0 -1.158701,-0.29123 -1.642578,-0.775391 -0.483878,-0.48416 -0.775391,-1.122865 -0.775391,-1.644531 v -0.002 -0.002 L 12.5,9.9199219 c 0,-0.522056 0.291855,-1.1605238 0.775391,-1.6445313 C 13.758926,7.7913831 14.396998,7.5 14.917969,7.5 Z" />
</svg>
