<?xml version="1.0" encoding="UTF-8" standalone="no"?>
<svg
   height="64"
   width="64"
   version="1.1"
   id="svg9"
   sodipodi:docname="application-x-xliff.svg"
   inkscape:version="1.1.2 (0a00cf5339, 2022-02-04)"
   xmlns:inkscape="http://www.inkscape.org/namespaces/inkscape"
   xmlns:sodipodi="http://sodipodi.sourceforge.net/DTD/sodipodi-0.dtd"
   xmlns="http://www.w3.org/2000/svg"
   xmlns:svg="http://www.w3.org/2000/svg">
  <defs
     id="defs13" />
  <sodipodi:namedview
     id="namedview11"
     pagecolor="#ffffff"
     bordercolor="#666666"
     borderopacity="1.0"
     inkscape:pageshadow="2"
     inkscape:pageopacity="0.0"
     inkscape:pagecheckerboard="0"
     showgrid="false"
     inkscape:zoom="10.21875"
     inkscape:cx="31.95107"
     inkscape:cy="32"
     inkscape:window-width="1600"
     inkscape:window-height="836"
     inkscape:window-x="0"
     inkscape:window-y="0"
     inkscape:window-maximized="1"
     inkscape:current-layer="svg9" />
  <path
     style="color:#000000;fill:#e5e5e5;fill-opacity:0.2;stroke-width:2;-inkscape-stroke:none"
     d="m 11.67,56.08 c 0,1.71 1.71,3.42 3.417,3.42 h 33.996 c 1.709,0 3.417,-1.71 3.417,-3.42 V 27.017 c 0,-1.71 0,-1.71 -1.708,-3.42 L 35.417,8.21 C 34.51,7.524 33.708,6.5 32,6.5 H 14.917 C 13.208,6.5 11.5,8.21 11.5,9.92 Z"
     id="path1053" />
  <path
     style="color:#000000;fill:#e5e5e5;-inkscape-stroke:none"
     d="M 14.917969,5.5 C 13.729942,5.5 12.657088,6.0628369 11.859375,6.8613281 11.061662,7.6598194 10.5,8.7319796 10.5,9.9199219 v 0.00195 l 0.169922,46.1621091 c 0.0012,1.186757 0.564341,2.257235 1.361328,3.054688 C 12.829121,59.93701 13.900473,60.5 15.087891,60.5 h 33.99414 c 1.188027,0 2.260881,-0.562837 3.058594,-1.361328 C 52.938338,58.340181 53.5,57.26802 53.5,56.080078 v -29.0625 c 0,-0.854999 0.0142,-1.492302 -0.318359,-2.158203 C 52.849079,24.193474 52.353999,23.745624 51.5,22.890625 L 36.076172,7.4550781 36.019531,7.4121094 C 35.26819,6.8438401 34.107686,5.5 32,5.5 Z m 0,2 H 32 c 1.274361,0 1.741373,0.6756979 2.746094,1.453125 l 15.33789,15.351562 c 0.852631,0.853699 1.214226,1.260262 1.308594,1.449219 C 51.487016,25.943004 51.5,26.162579 51.5,27.017578 v 29.0625 c 0,0.522056 -0.291855,1.160524 -0.775391,1.644531 C 50.241074,58.208617 49.603002,58.5 49.082031,58.5 h -33.99414 c -0.519581,0 -1.158701,-0.29123 -1.642578,-0.775391 -0.483878,-0.48416 -0.775391,-1.122865 -0.775391,-1.644531 v -0.002 -0.002 L 12.5,9.9199219 c 0,-0.522056 0.291855,-1.1605238 0.775391,-1.6445313 C 13.758926,7.7913831 14.396998,7.5 14.917969,7.5 Z"
     id="path1055" />
  <path
     style="color:#000000;fill:#e5e5e5;-inkscape-stroke:none"
     d="m 25.236328,22.744141 v 3.144531 H 14.228516 v 4.130859 h 17.287109 c -0.987191,2.582717 -2.397775,4.971083 -4.193359,7.074219 -1.225409,-1.432514 -2.339841,-2.961125 -3.199219,-4.640625 l -0.138672,-0.271484 h -4.222656 l 0.316406,0.703125 c 1.105471,2.469255 2.625752,4.794639 4.476562,6.921875 l -8.048828,7.9375 2.94336,2.943359 7.863281,-7.863281 5.089844,5.089843 1.572265,-4.246093 -0.228515,-0.226563 -3.685547,-3.642578 c 2.488957,-2.851033 4.374682,-6.166245 5.544922,-9.765625 h 4.783203 V 25.888672 H 29.380859 v -3.144531 z m 1,1 h 2.144531 v 3.144531 h 11.007813 v 2.144531 h -4.478516 l -0.107422,0.351563 c -1.157069,3.732417 -3.110316,7.170174 -5.722656,10.076171 -0.0022,0.0024 -0.0037,0.0054 -0.0059,0.0078 l -0.384766,0.382812 4.125,4.074219 -0.808594,2.177735 -4.693359,-4.69336 -7.863281,7.863281 -1.523438,-1.52539 7.986328,-7.875 -0.320312,-0.355469 C 23.84644,37.577723 22.464823,35.429291 21.375,33.181641 h 2.046875 c 0.969025,1.833179 2.128002,3.563321 3.517578,5.103515 l 0.371094,0.410156 0.371094,-0.410156 c 2.252264,-2.499124 3.980717,-5.424015 5.085937,-8.601562 L 33,29.019531 H 15.228516 v -2.130859 h 11.007812 z m 12.521484,11.580078 -0.123046,0.324218 -7.328125,19.548829 h 4.214843 l 1.759766,-4.720704 h 6.775391 l 1.779296,4.720704 h 4.212891 L 42.59375,35.324219 Z m 0.69336,1 h 2.449219 l 6.703125,17.873047 H 46.527344 L 44.75,49.476562 h -8.164063 l -1.759765,4.720704 H 32.75 Z m 1.222656,2.273437 -0.46875,1.25 -2.798828,7.484375 h 6.539062 z m 0,2.853516 1.828125,4.880859 h -3.654297 z"
     id="path6" />
</svg>
