<?xml version="1.0" encoding="UTF-8" standalone="no"?>
<svg
   height="64"
   width="64"
   version="1.1"
   id="svg9"
   sodipodi:docname="application-x-raw-disk-image.svg"
   inkscape:version="1.1.2 (0a00cf5339, 2022-02-04)"
   xmlns:inkscape="http://www.inkscape.org/namespaces/inkscape"
   xmlns:sodipodi="http://sodipodi.sourceforge.net/DTD/sodipodi-0.dtd"
   xmlns="http://www.w3.org/2000/svg"
   xmlns:svg="http://www.w3.org/2000/svg">
  <defs
     id="defs13" />
  <sodipodi:namedview
     id="namedview11"
     pagecolor="#ffffff"
     bordercolor="#666666"
     borderopacity="1.0"
     inkscape:pageshadow="2"
     inkscape:pageopacity="0.0"
     inkscape:pagecheckerboard="0"
     showgrid="false"
     inkscape:zoom="10.21875"
     inkscape:cx="31.95107"
     inkscape:cy="31.804281"
     inkscape:window-width="1600"
     inkscape:window-height="836"
     inkscape:window-x="0"
     inkscape:window-y="0"
     inkscape:window-maximized="1"
     inkscape:current-layer="svg9" />
  <path
     style="color:#000000;fill:#ffffff;fill-opacity:0.2;stroke-width:2;-inkscape-stroke:none"
     d="m 11.67,56.08 c 0,1.71 1.71,3.42 3.417,3.42 h 33.996 c 1.709,0 3.417,-1.71 3.417,-3.42 V 27.017 c 0,-1.71 0,-1.71 -1.708,-3.42 L 35.417,8.21 C 34.51,7.524 33.708,6.5 32,6.5 H 14.917 C 13.208,6.5 11.5,8.21 11.5,9.92 Z"
     id="path1760" />
  <path
     style="color:#000000;fill:#ffffff;-inkscape-stroke:none"
     d="M 14.917969,5.5 C 13.729942,5.5 12.657088,6.0628369 11.859375,6.8613281 11.061662,7.6598194 10.5,8.7319796 10.5,9.9199219 v 0.00195 l 0.169922,46.1621091 c 0.0012,1.186757 0.564341,2.257235 1.361328,3.054688 C 12.829121,59.93701 13.900473,60.5 15.087891,60.5 h 33.99414 c 1.188027,0 2.260881,-0.562837 3.058594,-1.361328 C 52.938338,58.340181 53.5,57.26802 53.5,56.080078 v -29.0625 c 0,-0.854999 0.0142,-1.492302 -0.318359,-2.158203 C 52.849079,24.193474 52.353999,23.745624 51.5,22.890625 L 36.076172,7.4550781 36.019531,7.4121094 C 35.26819,6.8438401 34.107686,5.5 32,5.5 Z m 0,2 H 32 c 1.274361,0 1.741373,0.6756979 2.746094,1.453125 l 15.33789,15.351562 c 0.852631,0.853699 1.214226,1.260262 1.308594,1.449219 C 51.487016,25.943004 51.5,26.162579 51.5,27.017578 v 29.0625 c 0,0.522056 -0.291855,1.160524 -0.775391,1.644531 C 50.241074,58.208617 49.603002,58.5 49.082031,58.5 h -33.99414 c -0.519581,0 -1.158701,-0.29123 -1.642578,-0.775391 -0.483878,-0.48416 -0.775391,-1.122865 -0.775391,-1.644531 v -0.002 -0.002 L 12.5,9.9199219 c 0,-0.522056 0.291855,-1.1605238 0.775391,-1.6445313 C 13.758926,7.7913831 14.396998,7.5 14.917969,7.5 Z"
     id="path1762" />
  <path
     style="color:#000000;fill:#ffffff;fill-rule:evenodd;-inkscape-stroke:none"
     d="m 32,21.048828 c -9.356208,0 -16.951172,7.59497 -16.951172,16.951172 0,9.356202 7.594964,16.951172 16.951172,16.951172 9.356208,0 16.951172,-7.59497 16.951172,-16.951172 0,-9.356202 -7.594964,-16.951172 -16.951172,-16.951172 z m 0,1 c 8.815769,0 15.951172,7.135409 15.951172,15.951172 0,8.815763 -7.135403,15.951172 -15.951172,15.951172 -8.815769,0 -15.951172,-7.135409 -15.951172,-15.951172 0,-8.815763 7.135403,-15.951172 15.951172,-15.951172 z m -0.002,1.742188 C 24.167365,23.807133 17.817189,30.169307 17.816406,38 c -7.83e-4,7.830693 6.349009,14.195208 14.179688,14.212891 7.854554,0.01774 14.243355,-6.35637 14.24414,-14.210938 7.86e-4,-7.854568 -6.38763,-14.227104 -14.242187,-14.210937 z m 0.0039,1 c 7.313356,-0.01505 13.239013,5.897571 13.238281,13.210937 C 45.239503,45.31532 39.3114,51.229406 31.998047,51.212891 24.707043,51.196426 18.815677,45.291018 18.816406,38 18.817135,30.708982 24.710946,24.806022 32.001953,24.791016 Z M 32,26.533203 c -6.327541,0 -11.466797,5.139256 -11.466797,11.466797 v 0.5 h 6.482422 V 38 c 0,-2.758441 2.225934,-4.984375 4.984375,-4.984375 h 0.5 v -6.482422 z m -0.5,1.101563 v 4.482421 C 28.619945,32.369433 26.369433,34.619945 26.117187,37.5 H 21.634766 C 21.901167,32.13484 26.13484,27.901167 31.5,27.634766 Z m 0.5,7.123046 c -1.78455,10e-7 -3.242187,1.457638 -3.242188,3.242188 10e-7,1.78455 1.457638,3.242187 3.242188,3.242187 1.78455,0 3.242187,-1.457637 3.242187,-3.242187 0,-1.78455 -1.457637,-3.242187 -3.242187,-3.242188 z m 0,1 c 1.24411,10e-7 2.242187,0.998078 2.242187,2.242188 0,1.24411 -0.998077,2.242187 -2.242187,2.242187 C 30.75589,40.242187 29.757813,39.24411 29.757812,38 29.757813,36.75589 30.75589,35.757813 32,35.757812 Z M 36.984375,37.5 V 38 c 0,2.758441 -2.225934,4.984375 -4.984375,4.984375 h -0.5 v 6.482422 H 32 c 6.327541,0 11.466797,-5.139256 11.466797,-11.466797 v -0.5 z m 0.898437,1 h 4.482422 C 42.098833,43.86516 37.86516,48.098833 32.5,48.365234 V 43.882812 C 35.380055,43.630567 37.630567,41.380055 37.882812,38.5 Z"
     id="path6-3" />
</svg>
