<?xml version="1.0" encoding="UTF-8" standalone="no"?>
<svg
   height="64"
   width="64"
   version="1.1"
   id="svg9"
   sodipodi:docname="application-msonenote.svg"
   inkscape:version="1.1.2 (0a00cf5339, 2022-02-04)"
   xmlns:inkscape="http://www.inkscape.org/namespaces/inkscape"
   xmlns:sodipodi="http://sodipodi.sourceforge.net/DTD/sodipodi-0.dtd"
   xmlns:xlink="http://www.w3.org/1999/xlink"
   xmlns="http://www.w3.org/2000/svg"
   xmlns:svg="http://www.w3.org/2000/svg">
  <defs
     id="defs13">
    <linearGradient
       inkscape:collect="always"
       id="linearGradient847">
      <stop
         style="stop-color:#fe198c;stop-opacity:1;"
         offset="0"
         id="stop843" />
      <stop
         style="stop-color:#fb19fe;stop-opacity:1"
         offset="1"
         id="stop845" />
    </linearGradient>
    <linearGradient
       inkscape:collect="always"
       xlink:href="#linearGradient847"
       id="linearGradient849"
       x1="-0.41164765"
       y1="6.0438028"
       x2="14.19736"
       y2="-0.89232081"
       gradientUnits="userSpaceOnUse" />
  </defs>
  <sodipodi:namedview
     id="namedview11"
     pagecolor="#ffffff"
     bordercolor="#666666"
     borderopacity="1.0"
     inkscape:pageshadow="2"
     inkscape:pageopacity="0.0"
     inkscape:pagecheckerboard="0"
     showgrid="false"
     inkscape:zoom="10.21875"
     inkscape:cx="31.95107"
     inkscape:cy="32"
     inkscape:window-width="1600"
     inkscape:window-height="836"
     inkscape:window-x="0"
     inkscape:window-y="0"
     inkscape:window-maximized="1"
     inkscape:current-layer="svg9" />
  <path
     style="color:#000000;fill:#fe198c;fill-opacity:0.2;stroke-width:2;-inkscape-stroke:none"
     d="m 11.67,56.08 c 0,1.71 1.71,3.42 3.417,3.42 h 33.996 c 1.709,0 3.417,-1.71 3.417,-3.42 V 27.017 c 0,-1.71 0,-1.71 -1.708,-3.42 L 35.417,8.21 C 34.51,7.524 33.708,6.5 32,6.5 H 14.917 C 13.208,6.5 11.5,8.21 11.5,9.92 Z"
     id="path4948" />
  <g
     transform="matrix(2.5559796,0,0,2.5559796,11.552163,17.552163)"
     id="g2522"
     style="fill:none;stroke:#fe198c;stroke-width:0.391239">
    <path
       id="path6"
       style="color:#000000;fill:url(#linearGradient849);stroke:none;-inkscape-stroke:none;fill-opacity:1"
       d="M 3,1.8046875 C 2.3410111,1.8046875 1.8046875,2.3410111 1.8046875,3 v 10 c 0,0.658989 0.5363236,1.195313 1.1953125,1.195313 h 8 c 0.582984,0 1.010602,-0.446861 1.115234,-1 H 13 c 0.658989,0 1.195313,-0.536324 1.195313,-1.195313 V 9.9980469 9.9960938 C 14.191079,9.8204405 14.124221,9.655746 14.044922,9.5 c 0.0793,-0.155746 0.146157,-0.3204405 0.150391,-0.4960937 v -0.00195 -2.0039062 -0.00195 C 14.191079,6.8204405 14.124221,6.655746 14.044922,6.5 14.124221,6.344254 14.191079,6.1795595 14.195313,6.0039062 V 6.0019531 4 C 14.195313,3.3410111 13.658989,2.8046875 13,2.8046875 h -0.884766 c -0.104632,-0.5531399 -0.53225,-1 -1.115234,-1 z m 0,0.390625 h 8 c 0.44901,0 0.804688,0.3556775 0.804688,0.8046875 V 3.1953125 H 13 c 0.44901,0 0.804688,0.3556775 0.804688,0.8046875 v 2 c -0.0041,0.1405043 -0.04567,0.2758594 -0.121094,0.3945312 L 13.617188,6.5 l 0.06641,0.1054687 c 0.07611,0.1197467 0.117675,0.2565942 0.121094,0.3984375 V 9 c -0.0041,0.1405043 -0.04567,0.2758594 -0.121094,0.3945313 L 13.617188,9.5 l 0.06641,0.1054688 c 0.07611,0.1197466 0.117675,0.2565941 0.121094,0.3984372 V 12 c 0,0.44901 -0.355678,0.804688 -0.804688,0.804688 H 11.804688 V 13 c 0,0.44901 -0.355678,0.804688 -0.804688,0.804688 H 3 C 2.55099,13.804688 2.1953125,13.44901 2.1953125,13 V 3 C 2.1953125,2.55099 2.55099,2.1953125 3,2.1953125 Z M 2.8046875,2.8046875 V 3 13.195313 H 11.195313 V 2.8046875 Z m 0.390625,0.390625 H 10.804688 V 12.804688 H 3.1953125 Z m 0.609375,0.609375 V 4 6.1953125 h 6.3906255 v -2.390625 z m 8.0000005,0 V 4 6.1953125 h 1.390625 v -2.390625 z m -7.6093755,0.390625 h 5.609375 v 1.609375 h -5.609375 z m 8.0000005,0 h 0.609375 v 1.609375 H 12.195313 Z M 3.8046875,6.8046875 V 7 8.1953125 h 6.3906255 v -1.390625 z m 8.0000005,0 V 7 9.1953125 h 1.390625 v -2.390625 z m -7.6093755,0.390625 h 5.609375 v 0.609375 h -5.609375 z m 8.0000005,0 h 0.609375 v 1.609375 H 12.195313 Z M 3.8046875,8.8046875 V 9 10.195313 H 10.195313 V 8.8046875 Z m 0.390625,0.390625 h 5.609375 v 0.609375 h -5.609375 z m 7.6093755,0.609375 V 10 12.195313 h 1.390625 V 9.8046875 Z m 0.390625,0.3906255 h 0.609375 v 1.609375 H 12.195313 Z M 3.8046875,10.804688 V 11 12.195313 h 6.3906255 v -1.390625 z m 0.390625,0.390625 h 5.609375 v 0.609375 H 4.1953125 Z M 1.316836,-4.7152814 c -0.46480299,0 -0.88454577,0.220204 -1.19664255,0.5326053 -0.31209678,0.3124012 -0.5318411,0.7318726 -0.5318411,1.1966424 v 7.63e-4 l 0.0664802,18.0604367 c 4.6949e-4,0.464307 0.22079246,0.88312 0.53260519,1.195115 0.3121586,0.312342 0.73131374,0.532606 1.19587846,0.532606 H 14.683164 c 0.464803,0 0.884546,-0.220204 1.196643,-0.532605 0.312096,-0.312401 0.531841,-0.731873 0.531841,-1.196643 V 3.7032436 c 0,-0.3345094 0.0056,-0.5838474 -0.124555,-0.8443741 C 16.156982,2.5983427 15.963287,2.4231261 15.629169,2.0886168 l -6.0344097,-6.0389945 -0.02216,-0.016811 C 9.2786449,-4.1895181 8.8246099,-4.7152814 8.0000001,-4.7152814 Z m 0,0.7824789 h 6.6831641 c 0.4985802,0 0.6812938,0.2643596 1.0743802,0.5685198 l 6.0007877,6.0061363 c 0.333583,0.3340007 0.475053,0.4930642 0.511973,0.5669917 0.03695,0.073983 0.04203,0.1598889 0.04203,0.4943983 V 15.073639 c 0,0.204249 -0.114185,0.454043 -0.303364,0.643406 -0.189178,0.189363 -0.438816,0.303363 -0.642641,0.303363 H 1.3833162 c -0.2032806,0 -0.45332951,-0.11394 -0.64264127,-0.303363 C 0.55136277,15.527622 0.43731139,15.277736 0.43731139,15.073639 v -7.82e-4 -7.82e-4 L 0.37083121,-2.9860337 c 0,-0.2042488 0.11418518,-0.4540426 0.30336353,-0.6434054 C 0.8633727,-3.818802 1.1130116,-3.9328025 1.316836,-3.9328025 Z" />
  </g>
</svg>
