<?xml version="1.0" encoding="UTF-8" standalone="no"?>
<svg
   height="64"
   width="64"
   version="1.1"
   id="svg9"
   sodipodi:docname="application-x-bittorrent.svg"
   inkscape:version="1.1.2 (0a00cf5339, 2022-02-04)"
   xmlns:inkscape="http://www.inkscape.org/namespaces/inkscape"
   xmlns:sodipodi="http://sodipodi.sourceforge.net/DTD/sodipodi-0.dtd"
   xmlns:xlink="http://www.w3.org/1999/xlink"
   xmlns="http://www.w3.org/2000/svg"
   xmlns:svg="http://www.w3.org/2000/svg">
  <defs
     id="defs13">
    <linearGradient
       inkscape:collect="always"
       id="linearGradient846">
      <stop
         style="stop-color:#19fefe;stop-opacity:1;"
         offset="0"
         id="stop842" />
      <stop
         style="stop-color:#19fe73;stop-opacity:1"
         offset="1"
         id="stop844" />
    </linearGradient>
    <linearGradient
       inkscape:collect="always"
       xlink:href="#linearGradient846"
       id="linearGradient848"
       x1="10.5"
       y1="33"
       x2="42.880997"
       y2="14.221935"
       gradientUnits="userSpaceOnUse" />
  </defs>
  <sodipodi:namedview
     id="namedview11"
     pagecolor="#ffffff"
     bordercolor="#666666"
     borderopacity="1.0"
     inkscape:pageshadow="2"
     inkscape:pageopacity="0.0"
     inkscape:pagecheckerboard="0"
     showgrid="false"
     inkscape:zoom="10.21875"
     inkscape:cx="31.95107"
     inkscape:cy="32"
     inkscape:window-width="1600"
     inkscape:window-height="836"
     inkscape:window-x="0"
     inkscape:window-y="0"
     inkscape:window-maximized="1"
     inkscape:current-layer="svg9" />
  <path
     style="color:#000000;fill:#19fefe;fill-opacity:0.2;stroke-width:2;-inkscape-stroke:none"
     d="m 11.67,56.08 c 0,1.71 1.71,3.42 3.417,3.42 h 33.996 c 1.709,0 3.417,-1.71 3.417,-3.42 V 27.017 c 0,-1.71 0,-1.71 -1.708,-3.42 L 35.417,8.21 C 34.51,7.524 33.708,6.5 32,6.5 H 14.917 C 13.208,6.5 11.5,8.21 11.5,9.92 Z"
     id="path6020" />
  <path
     id="path6"
     style="color:#807f7f;fill:url(#linearGradient848);-inkscape-stroke:none;fill-opacity:1"
     d="m 31.548828,19.386719 c -1.427161,5.102617 -4.096068,9.181588 -6.441406,12.728515 -2.345338,3.546927 -4.41211,6.559872 -4.41211,9.658203 0,6.017651 5.092604,10.882813 11.335938,10.882813 6.243334,0 11.335937,-4.865162 11.335937,-10.882813 0,-3.098331 -2.066771,-6.111276 -4.412109,-9.658203 -2.345338,-3.546927 -5.016199,-7.625898 -6.443359,-12.728515 l -0.480469,0.134765 z m 0.482422,1.433593 c 1.536656,4.689435 3.933946,8.585273 6.089844,11.845704 2.346862,3.549232 4.246093,6.470082 4.246093,9.107421 0,5.453691 -4.610369,9.882813 -10.335937,9.882813 -5.725568,0 -10.335937,-4.429122 -10.335938,-9.882813 0,-2.637339 1.899232,-5.558189 4.246094,-9.107421 2.155992,-3.260574 4.553205,-7.155984 6.089844,-11.845704 z m 7.84375,15.345704 -0.394531,0.30664 -0.484375,0.119141 c 0.179059,0.72663 0.271435,1.470472 0.27539,2.216797 -0.0011,5.451089 -4.611658,9.879825 -10.335937,9.880859 -0.780241,-0.0027 -1.556825,-0.0898 -2.316406,-0.259766 l -0.398438,0.894532 c 1.683003,1.197187 3.717164,1.844192 5.808594,1.847656 h 0.002 c 5.388259,0 9.787405,-4.201495 9.789062,-9.398438 v -0.002 c -0.0039,-2.022109 -0.687917,-3.98789 -1.945312,-5.605468 z m 0.373047,2.75 c 0.350508,0.914974 0.57034,1.871301 0.572265,2.857421 -0.0015,4.633042 -3.91855,8.398438 -8.789062,8.398438 -1.008724,-0.0017 -1.990137,-0.195625 -2.927734,-0.515625 6.121024,-0.09202 11.079996,-4.835206 11.144531,-10.740234 z M 14.917969,5.5 C 13.729942,5.5 12.657088,6.0628369 11.859375,6.8613281 11.061662,7.6598194 10.5,8.7319796 10.5,9.9199219 v 0.00195 l 0.169922,46.1621091 c 0.0012,1.186757 0.564341,2.257235 1.361328,3.054688 C 12.829121,59.93701 13.900473,60.5 15.087891,60.5 h 33.99414 c 1.188027,0 2.260881,-0.562837 3.058594,-1.361328 C 52.938338,58.340181 53.5,57.26802 53.5,56.080078 v -29.0625 c 0,-0.854999 0.0142,-1.492302 -0.318359,-2.158203 C 52.849079,24.193474 52.353999,23.745624 51.5,22.890625 L 36.076172,7.4550781 36.019531,7.4121094 C 35.26819,6.8438401 34.107686,5.5 32,5.5 Z m 0,2 H 32 c 1.274361,0 1.741373,0.6756979 2.746094,1.453125 l 15.33789,15.351562 c 0.852631,0.853699 1.214226,1.260262 1.308594,1.449219 C 51.487016,25.943004 51.5,26.162579 51.5,27.017578 v 29.0625 c 0,0.522056 -0.291855,1.160524 -0.775391,1.644531 C 50.241074,58.208617 49.603002,58.5 49.082031,58.5 h -33.99414 c -0.519581,0 -1.158701,-0.29123 -1.642578,-0.775391 -0.483878,-0.48416 -0.775391,-1.122865 -0.775391,-1.644531 v -0.002 -0.002 L 12.5,9.9199219 c 0,-0.522056 0.291855,-1.1605238 0.775391,-1.6445313 C 13.758926,7.7913831 14.396998,7.5 14.917969,7.5 Z" />
</svg>
