<?xml version="1.0" encoding="UTF-8" standalone="no"?>
<svg
   height="64"
   width="64"
   version="1.1"
   id="svg9"
   sodipodi:docname="application-epub+zip.svg"
   inkscape:version="1.1.2 (0a00cf5339, 2022-02-04)"
   xmlns:inkscape="http://www.inkscape.org/namespaces/inkscape"
   xmlns:sodipodi="http://sodipodi.sourceforge.net/DTD/sodipodi-0.dtd"
   xmlns:xlink="http://www.w3.org/1999/xlink"
   xmlns="http://www.w3.org/2000/svg"
   xmlns:svg="http://www.w3.org/2000/svg">
  <defs
     id="defs13">
    <linearGradient
       inkscape:collect="always"
       id="linearGradient846">
      <stop
         style="stop-color:#ffc519;stop-opacity:1;"
         offset="0"
         id="stop842" />
      <stop
         style="stop-color:#ff8219;stop-opacity:1"
         offset="1"
         id="stop844" />
    </linearGradient>
    <linearGradient
       inkscape:collect="always"
       xlink:href="#linearGradient846"
       id="linearGradient848"
       x1="10.5"
       y1="33"
       x2="49.327999"
       y2="13.408388"
       gradientUnits="userSpaceOnUse" />
  </defs>
  <sodipodi:namedview
     id="namedview11"
     pagecolor="#ffffff"
     bordercolor="#666666"
     borderopacity="1.0"
     inkscape:pageshadow="2"
     inkscape:pageopacity="0.0"
     inkscape:pagecheckerboard="0"
     showgrid="false"
     inkscape:zoom="5.109375"
     inkscape:cx="32"
     inkscape:cy="32"
     inkscape:window-width="1056"
     inkscape:window-height="545"
     inkscape:window-x="354"
     inkscape:window-y="71"
     inkscape:window-maximized="0"
     inkscape:current-layer="svg9" />
  <path
     style="color:#000000;fill:#ffcb01;fill-opacity:0.2;stroke-width:2;-inkscape-stroke:none"
     d="m 11.67,56.08 c 0,1.71 1.71,3.42 3.417,3.42 h 33.996 c 1.709,0 3.417,-1.71 3.417,-3.42 V 27.017 c 0,-1.71 0,-1.71 -1.708,-3.42 L 35.417,8.21 C 34.51,7.524 33.708,6.5 32,6.5 H 14.917 C 13.208,6.5 11.5,8.21 11.5,9.92 Z"
     id="path3651" />
  <path
     id="path6"
     style="color:#000000;fill:url(#linearGradient848);-inkscape-stroke:none;fill-opacity:1"
     d="m 31.929687,20.40625 c -0.626711,0 -1.253898,0.237447 -1.730468,0.710937 L 15.123047,36.193359 c -0.957093,0.953305 -0.958013,2.517987 0,3.470703 l 15.076172,15.074219 v 0.002 c 0.953141,0.946981 2.505843,0.946981 3.458984,0 l 0.002,-0.002 15.074219,-15.074219 c 0.958013,-0.952716 0.957093,-2.517398 0,-3.470703 v -0.002 L 46.197313,33.65425 31.933641,47.921828 21.935594,37.925734 31.933641,27.9355 l 2.863281,2.855469 -7.144531,7.134765 4.277343,4.277344 11.41211,-11.412109 -9.681641,-9.673829 h -0.002 c -0.476571,-0.473443 -1.101804,-0.71089 -1.728516,-0.71089 z m 0,0.994141 c 0.369747,0 0.7397,0.141936 1.025391,0.425781 l 8.972656,8.964844 -9.998047,9.998046 -2.861328,-2.863281 7.142578,-7.134765 -4.277343,-4.267579 -11.41211,11.402344 11.41211,11.410156 0.353515,-0.353515 13.910157,-13.914063 1.832031,1.832032 c 0.573877,0.570704 0.573877,1.483983 0,2.054687 L 32.953125,54.03125 c -0.571464,0.566306 -1.47791,0.567228 -2.048828,0 L 15.830078,38.955078 h -0.002 c -0.573877,-0.570704 -0.573877,-1.483983 0,-2.054687 h 0.002 L 30.904297,21.826172 c 0.285691,-0.283845 0.655644,-0.425781 1.02539,-0.425781 z M 14.917969,5.5 C 13.729942,5.5 12.657088,6.0628369 11.859375,6.8613281 11.061662,7.6598194 10.5,8.7319796 10.5,9.9199219 v 0.00195 l 0.169922,46.1621091 c 0.0012,1.186757 0.564341,2.257235 1.361328,3.054688 C 12.829121,59.93701 13.900473,60.5 15.087891,60.5 h 33.99414 c 1.188027,0 2.260881,-0.562837 3.058594,-1.361328 C 52.938338,58.340181 53.5,57.26802 53.5,56.080078 v -29.0625 c 0,-0.854999 0.0142,-1.492302 -0.318359,-2.158203 C 52.849079,24.193474 52.353999,23.745624 51.5,22.890625 L 36.076172,7.4550781 36.019531,7.4121094 C 35.26819,6.8438401 34.107686,5.5 32,5.5 Z m 0,2 H 32 c 1.274361,0 1.741373,0.6756979 2.746094,1.453125 l 15.33789,15.351562 c 0.852631,0.853699 1.214226,1.260262 1.308594,1.449219 C 51.487016,25.943004 51.5,26.162579 51.5,27.017578 v 29.0625 c 0,0.522056 -0.291855,1.160524 -0.775391,1.644531 C 50.241074,58.208617 49.603002,58.5 49.082031,58.5 h -33.99414 c -0.519581,0 -1.158701,-0.29123 -1.642578,-0.775391 -0.483878,-0.48416 -0.775391,-1.122865 -0.775391,-1.644531 v -0.002 -0.002 L 12.5,9.9199219 c 0,-0.522056 0.291855,-1.1605238 0.775391,-1.6445313 C 13.758926,7.7913831 14.396998,7.5 14.917969,7.5 Z" />
</svg>
