<?xml version="1.0" encoding="UTF-8" standalone="no"?>
<svg
   height="64"
   width="64"
   version="1.1"
   id="svg9"
   sodipodi:docname="application-x-fritzing-fz.svg"
   inkscape:version="1.1.2 (0a00cf5339, 2022-02-04)"
   xmlns:inkscape="http://www.inkscape.org/namespaces/inkscape"
   xmlns:sodipodi="http://sodipodi.sourceforge.net/DTD/sodipodi-0.dtd"
   xmlns:xlink="http://www.w3.org/1999/xlink"
   xmlns="http://www.w3.org/2000/svg"
   xmlns:svg="http://www.w3.org/2000/svg">
  <defs
     id="defs13">
    <linearGradient
       inkscape:collect="always"
       id="linearGradient854">
      <stop
         style="stop-color:#ffd901;stop-opacity:1"
         offset="0"
         id="stop850" />
      <stop
         style="stop-color:#fe1c00;stop-opacity:1"
         offset="1"
         id="stop852" />
    </linearGradient>
    <linearGradient
       id="_lgradient_25"
       x1="0"
       y1="0.5"
       x2="1"
       y2="0.5"
       gradientTransform="matrix(46,0,0,46,1,1)"
       gradientUnits="userSpaceOnUse">
      <stop
         offset="0%"
         stop-opacity="1"
         style="stop-color:rgb(255,224,49)"
         id="stop2" />
      <stop
         offset="98.69565217391305%"
         stop-opacity="1"
         style="stop-color:rgb(252,82,82)"
         id="stop4" />
    </linearGradient>
    <linearGradient
       inkscape:collect="always"
       xlink:href="#linearGradient854"
       id="linearGradient890"
       x1="29.953384"
       y1="63.716053"
       x2="29.446632"
       y2="3.7862236"
       gradientUnits="userSpaceOnUse" />
    <linearGradient
       inkscape:collect="always"
       xlink:href="#linearGradient854"
       id="linearGradient1097"
       x1="31.968153"
       y1="58.185986"
       x2="31.340012"
       y2="15.759022"
       gradientUnits="userSpaceOnUse"
       gradientTransform="translate(-2.1961666,-1.8795753)" />
  </defs>
  <sodipodi:namedview
     id="namedview11"
     pagecolor="#ffffff"
     bordercolor="#666666"
     borderopacity="1.0"
     inkscape:pageshadow="2"
     inkscape:pageopacity="0.0"
     inkscape:pagecheckerboard="0"
     showgrid="false"
     inkscape:zoom="5.109375"
     inkscape:cx="30.042813"
     inkscape:cy="24.562691"
     inkscape:window-width="1056"
     inkscape:window-height="545"
     inkscape:window-x="46"
     inkscape:window-y="107"
     inkscape:window-maximized="0"
     inkscape:current-layer="svg9" />
  <path
     style="color:#000000;fill:#ffcb01;fill-opacity:0.2;stroke-width:2;-inkscape-stroke:none"
     d="m 11.67,56.08 c 0,1.71 1.71,3.42 3.417,3.42 h 33.996 c 1.709,0 3.417,-1.71 3.417,-3.42 V 27.017 c 0,-1.71 0,-1.71 -1.708,-3.42 L 35.417,8.21 C 34.51,7.524 33.708,6.5 32,6.5 H 14.917 C 13.208,6.5 11.5,8.21 11.5,9.92 Z"
     id="path3651" />
  <path
     style="color:#000000;isolation:isolate;fill:url(#linearGradient1097);-inkscape-stroke:none"
     d="m 32.469849,15.868472 c -4.390927,0 -7.966797,3.57587 -7.966797,7.966797 v 3.767578 h -2.837891 c -1.372158,0 -2.496094,1.123935 -2.496094,2.496094 v 0.27539 c 0,1.372159 1.123936,2.496094 2.496094,2.496094 h 2.837891 v 9.207031 c -0.816549,0.342771 -1.604107,0.774497 -2.240235,1.416016 -6.54e-4,6.48e-4 -0.0013,0.0013 -0.002,0.002 -6.46e-4,6.53e-4 -0.0013,0.0013 -0.002,0.002 -1.298903,1.289176 -2.023437,3.049195 -2.023437,4.875 0,1.827067 0.724864,3.584201 2.023437,4.873047 6.49e-4,6.55e-4 0.0013,0.0013 0.002,0.002 6.54e-4,6.49e-4 0.0013,0.0013 0.002,0.002 1.289039,1.298765 3.047934,2.023438 4.875,2.023438 1.825803,0 3.584066,-0.724729 4.873047,-2.023438 l 0.002,-0.002 c 1.299806,-1.289023 2.025391,-3.047013 2.025391,-4.875 0,-1.825805 -0.724535,-3.585824 -2.023438,-4.875 l -0.002,-0.002 C 31.376277,42.853061 30.588009,42.42067 29.77063,42.07755 v -9.207125 h 2.83789 c 1.372157,0 2.496094,-1.123935 2.496094,-2.496094 v -0.27539 c 0,-1.372159 -1.123937,-2.496094 -2.496094,-2.496094 h -2.83789 v -2.701172 c 0,-2.084257 1.683044,-3.765625 3.767578,-3.765625 h 4.265625 c 1.448651,0 2.634766,-1.185054 2.634766,-2.632813 0,-1.448815 -1.185951,-2.634765 -2.634766,-2.634765 z m 0,1 h 5.333984 c 0.907531,0 1.634766,0.727235 1.634766,1.634765 0,0.905844 -0.727071,1.632813 -1.634766,1.632813 h -4.265625 c -2.625416,0 -4.767578,2.139933 -4.767578,4.765625 v 3.701172 h 3.83789 c 0.830571,0 1.496094,0.665521 1.496094,1.496094 v 0.27539 c 0,0.830573 -0.665523,1.496094 -1.496094,1.496094 h -3.83789 v 10.820312 l 0.333984,0.117188 c 0.822026,0.29087 1.575809,0.762859 2.199219,1.392578 l 0.002,0.002 0.002,0.002 c 1.10984,1.09974 1.730469,2.605105 1.730469,4.167969 0,1.564342 -0.620299,3.065948 -1.730469,4.166016 l -0.002,0.002 -0.002,0.002 c -1.099932,1.110033 -2.603153,1.730469 -4.166016,1.730469 -1.564342,0 -3.068094,-0.620494 -4.167968,-1.730469 l -0.002,-0.002 -0.002,-0.002 c -1.110169,-1.100068 -1.730468,-2.601674 -1.730468,-4.166016 0,-1.562864 0.620629,-3.068229 1.730468,-4.167969 l 0.002,-0.002 0.002,-0.002 c 0.623408,-0.629718 1.377193,-1.101708 2.199218,-1.392578 l 0.333985,-0.117188 V 31.870425 h -3.837891 c -0.830572,0 -1.496094,-0.665521 -1.496094,-1.496094 v -0.27539 c 0,-0.830573 0.665522,-1.496094 1.496094,-1.496094 h 3.837891 v -4.767578 c 0,-3.849427 3.117369,-6.966797 6.966797,-6.966797 z m -5.332032,28.871094 c -0.694886,0 -1.364629,0.276157 -1.855468,0.777343 -0.502146,0.490089 -0.779297,1.161631 -0.779297,1.855469 0,0.695506 0.275882,1.365094 0.777343,1.855469 0.490953,0.502045 1.161914,0.777344 1.857422,0.777344 0.694454,0 1.363314,-0.276059 1.853516,-0.777344 0.500907,-0.489817 0.779297,-1.158816 0.779297,-1.855469 0,-0.694988 -0.279653,-1.365936 -0.78125,-1.855469 -0.490086,-0.500429 -1.157731,-0.777343 -1.851563,-0.777343 z m 0,1 c 0.433585,0 0.8451,0.170766 1.144532,0.478515 l 0.0039,0.0039 0.0059,0.0059 c 0.306588,0.297267 0.478516,0.712097 0.478516,1.144531 0,0.434126 -0.172322,0.846666 -0.480469,1.146484 l -0.0039,0.0039 -0.0039,0.0039 c -0.299435,0.307751 -0.710947,0.478516 -1.144532,0.478516 -0.435276,0 -0.84975,-0.171532 -1.148437,-0.478516 l -0.0039,-0.0039 -0.0039,-0.0039 c -0.307573,-0.299259 -0.478515,-0.711208 -0.478515,-1.146484 0,-0.433586 0.17055,-0.847822 0.476562,-1.144531 l 0.0059,-0.0059 0.0039,-0.0039 c 0.298687,-0.306983 0.713161,-0.478515 1.148437,-0.478515 z"
     id="path836" />
  <path
     id="path3653"
     style="color:#000000;fill:url(#linearGradient890);-inkscape-stroke:none;fill-opacity:1.0"
     d="M 14.917969 5.5 C 13.729942 5.5 12.657088 6.0628369 11.859375 6.8613281 C 11.061662 7.6598194 10.5 8.7319796 10.5 9.9199219 L 10.5 9.921875 L 10.669922 56.083984 C 10.671122 57.270741 11.234263 58.341219 12.03125 59.138672 C 12.829121 59.937013 13.900473 60.5 15.087891 60.5 L 49.082031 60.5 C 50.270058 60.5 51.342912 59.937163 52.140625 59.138672 C 52.938338 58.340181 53.5 57.26802 53.5 56.080078 L 53.5 27.017578 C 53.5 26.162579 53.5142 25.525276 53.181641 24.859375 C 52.849079 24.193474 52.353999 23.745624 51.5 22.890625 L 36.076172 7.4550781 L 36.019531 7.4121094 C 35.26819 6.8438401 34.107686 5.5 32 5.5 L 14.917969 5.5 z M 14.917969 7.5 L 32 7.5 C 33.274361 7.5 33.741373 8.1756979 34.746094 8.953125 L 50.083984 24.304688 C 50.936615 25.158386 51.29821 25.564949 51.392578 25.753906 C 51.487016 25.943004 51.5 26.162579 51.5 27.017578 L 51.5 56.080078 C 51.5 56.602134 51.208145 57.240602 50.724609 57.724609 C 50.241074 58.208617 49.603002 58.5 49.082031 58.5 L 15.087891 58.5 C 14.56831 58.5 13.929189 58.20877 13.445312 57.724609 C 12.961434 57.240449 12.669922 56.601744 12.669922 56.080078 L 12.669922 56.078125 L 12.669922 56.076172 L 12.5 9.9199219 C 12.5 9.3978659 12.791855 8.7593981 13.275391 8.2753906 C 13.758926 7.7913831 14.396998 7.5 14.917969 7.5 z " />
</svg>
