<?xml version="1.0" encoding="UTF-8" standalone="no"?>
<svg
   height="64"
   width="64"
   version="1.1"
   id="svg3"
   sodipodi:docname="application-x-desktop.svg"
   inkscape:version="1.1.2 (0a00cf5339, 2022-02-04)"
   xmlns:inkscape="http://www.inkscape.org/namespaces/inkscape"
   xmlns:sodipodi="http://sodipodi.sourceforge.net/DTD/sodipodi-0.dtd"
   xmlns:xlink="http://www.w3.org/1999/xlink"
   xmlns="http://www.w3.org/2000/svg"
   xmlns:svg="http://www.w3.org/2000/svg">
  <defs
     id="defs3">
    <linearGradient
       inkscape:collect="always"
       id="linearGradient1157">
      <stop
         style="stop-color:#5300ff;stop-opacity:1;"
         offset="0"
         id="stop1153" />
      <stop
         style="stop-color:#ff00fb;stop-opacity:1"
         offset="1"
         id="stop1155" />
    </linearGradient>
    <linearGradient
       id="linearGradient3"
       inkscape:collect="always">
      <stop
         style="stop-color:#0049ff;stop-opacity:0.2"
         offset="0"
         id="stop3" />
      <stop
         style="stop-color:#2d00ff;stop-opacity:0.40000001"
         offset="1"
         id="stop4" />
    </linearGradient>
    <linearGradient
       inkscape:collect="always"
       xlink:href="#linearGradient3"
       id="linearGradient4"
       x1="17.424381"
       y1="11.972621"
       x2="47.159714"
       y2="55.195568"
       gradientUnits="userSpaceOnUse" />
    <linearGradient
       inkscape:collect="always"
       xlink:href="#linearGradient1157"
       id="linearGradient1159"
       x1="-1.2438474"
       y1="5.2500263"
       x2="13.877025"
       y2="-2.133163"
       gradientUnits="userSpaceOnUse" />
  </defs>
  <sodipodi:namedview
     id="namedview3"
     pagecolor="#ffffff"
     bordercolor="#000000"
     borderopacity="0.25"
     inkscape:showpageshadow="2"
     inkscape:pageopacity="0.0"
     inkscape:pagecheckerboard="0"
     inkscape:deskcolor="#d1d1d1"
     inkscape:zoom="5.9921875"
     inkscape:cx="31.791395"
     inkscape:cy="31.958279"
     inkscape:window-width="1056"
     inkscape:window-height="545"
     inkscape:window-x="367"
     inkscape:window-y="71"
     inkscape:window-maximized="0"
     inkscape:current-layer="svg3"
     inkscape:pageshadow="2"
     showgrid="false" />
  <path
     style="color:#000000;fill:url(#linearGradient4);stroke-width:2;-inkscape-stroke:none"
     d="m 11.67,56.08 c 0,1.71 1.71,3.42 3.417,3.42 h 33.996 c 1.709,0 3.417,-1.71 3.417,-3.42 V 27.017 c 0,-1.71 0,-1.71 -1.708,-3.42 L 35.417,8.21 C 34.51,7.524 33.708,6.5 32,6.5 H 14.917 C 13.208,6.5 11.5,8.21 11.5,9.92 Z"
     id="path5063" />
  <g
     transform="matrix(2.3258714,0,0,2.3258714,13.393029,20.789114)"
     id="g2522"
     style="fill:none;stroke:#5300ff;stroke-width:0.429946">
    <path
       id="path3"
       style="color:#000000;fill:url(#linearGradient1159);stroke:none;-inkscape-stroke:none;fill-opacity:1"
       d="M 1.7851562,1.7851562 V 2 14.214844 H 14.214844 V 1.7851562 Z M 2.2148438,2.2148438 H 13.785156 V 13.785156 H 2.2148438 Z M 2.7851563,2.7851563 V 3 11.214844 H 13.214844 V 2.7851563 Z M 3.2148438,3.2148438 H 12.785156 V 10.785156 H 3.2148438 Z M 3.7851563,3.7851563 V 4 7.2148437 H 7.2148437 V 4.7851562 H 6.0957031 L 5.1953125,3.7851563 Z m 0.4296874,0.4296874 h 0.7890625 l 0.9003907,1 H 6.7851562 V 6.7851562 H 4.2148437 Z M 2.7851563,11.785156 V 12 13.214844 h 1.4296874 v -1.429688 z m 1.9999999,0 V 12 13.214844 h 4.4296876 v -1.429688 z m 5.0000001,0 V 12 13.214844 h 1.4296877 v -1.429688 z m 1.9999997,0 V 12 13.214844 h 1.429688 v -1.429688 z m -8.5703122,0.429688 h 0.5703125 v 0.570312 H 3.2148438 Z m 1.9999999,0 h 3.5703126 v 0.570312 H 5.2148437 Z m 5.0000003,0 h 0.570312 v 0.570312 h -0.570312 z m 2,0 h 0.570312 v 0.570312 H 12.214844 Z M 0.65564244,-6.5734993 c -0.51078791,0 -0.97205761,0.2419897 -1.31503143,0.5852981 -0.34297381,0.3433085 -0.58445841,0.8042799 -0.58445841,1.3150314 v 8.383e-4 L -1.17079,15.1749 c 5.159e-4,0.510242 0.24263636,0.97049 0.58529804,1.313353 0.34304175,0.343243 0.80366567,0.585299 1.31419175,0.585299 H 15.344357 c 0.510788,0 0.972058,-0.24199 1.315032,-0.585298 0.342974,-0.343308 0.584458,-0.80428 0.584458,-1.315032 V 2.6779056 c 0,-0.3676037 0.0061,-0.6416099 -0.136877,-0.9279116 C 16.963986,1.4636923 16.751128,1.2711408 16.383954,0.90353706 L 9.7525353,-5.7329205 9.7281827,-5.7513948 C 9.4051464,-5.9957201 8.9061919,-6.5734993 7.9999999,-6.5734993 Z m 0,0.8598928 H 7.9999999 c 0.5479069,0 0.748697,0.2905138 1.1806732,0.6247658 l 6.5944699,6.6003486 c 0.366586,0.3670448 0.522053,0.5418451 0.562626,0.6230865 0.0406,0.081302 0.04618,0.1757075 0.04618,0.5433112 V 15.173222 c 0,0.224456 -0.125482,0.498963 -0.333376,0.707061 -0.207894,0.208097 -0.482231,0.333376 -0.706221,0.333376 H 0.72869979 c -0.22339197,0 -0.49817931,-0.125213 -0.70622047,-0.333376 -0.2080416,-0.208163 -0.33337656,-0.482772 -0.33337656,-0.707061 v -8.6e-4 -8.59e-4 l -0.0730573,-19.8446728 c 0,-0.2244561 0.125482,-0.4989631 0.33337656,-0.7070603 0.20789412,-0.2080973 0.48223087,-0.3333764 0.70622047,-0.3333764 z" />
  </g>
</svg>
