<?xml version="1.0" encoding="UTF-8" standalone="no"?>
<svg
   height="64"
   width="64"
   version="1.1"
   id="svg9"
   sodipodi:docname="application-xmind.svg"
   inkscape:version="1.1.2 (0a00cf5339, 2022-02-04)"
   xmlns:inkscape="http://www.inkscape.org/namespaces/inkscape"
   xmlns:sodipodi="http://sodipodi.sourceforge.net/DTD/sodipodi-0.dtd"
   xmlns:xlink="http://www.w3.org/1999/xlink"
   xmlns="http://www.w3.org/2000/svg"
   xmlns:svg="http://www.w3.org/2000/svg">
  <defs
     id="defs13">
    <linearGradient
       inkscape:collect="always"
       id="linearGradient846">
      <stop
         style="stop-color:#fe1919;stop-opacity:1;"
         offset="0"
         id="stop842" />
      <stop
         style="stop-color:#fe19cc;stop-opacity:0.99000001"
         offset="1"
         id="stop844" />
    </linearGradient>
    <linearGradient
       inkscape:collect="always"
       xlink:href="#linearGradient846"
       id="linearGradient848"
       x1="15.324259"
       y1="48.482422"
       x2="41.070671"
       y2="13.36749"
       gradientUnits="userSpaceOnUse" />
  </defs>
  <sodipodi:namedview
     id="namedview11"
     pagecolor="#ffffff"
     bordercolor="#666666"
     borderopacity="1.0"
     inkscape:pageshadow="2"
     inkscape:pageopacity="0.0"
     inkscape:pagecheckerboard="0"
     showgrid="false"
     inkscape:zoom="7.2257474"
     inkscape:cx="39.096302"
     inkscape:cy="26.294858"
     inkscape:window-width="1600"
     inkscape:window-height="836"
     inkscape:window-x="0"
     inkscape:window-y="0"
     inkscape:window-maximized="1"
     inkscape:current-layer="svg9" />
  <path
     style="color:#000000;fill:#fe1919;fill-opacity:0.2;stroke-width:2;-inkscape-stroke:none"
     d="m 11.67,56.08 c 0,1.71 1.71,3.42 3.417,3.42 h 33.996 c 1.709,0 3.417,-1.71 3.417,-3.42 V 27.017 c 0,-1.71 0,-1.71 -1.708,-3.42 L 35.417,8.21 C 34.51,7.524 33.708,6.5 32,6.5 H 14.917 C 13.208,6.5 11.5,8.21 11.5,9.92 Z"
     id="path7174" />
  <path
     id="path6"
     style="color:#000000;fill:url(#linearGradient848);-inkscape-stroke:none;fill-opacity:1"
     d="m 35.166016,29.001953 0.0098,0.433594 c 0.05643,2.440925 -1.200964,4.38958 -2.923828,4.669922 -0.861432,0.140171 -1.900558,-0.105295 -3.080078,-1.009766 -1.17952,-0.90447 -2.478262,-2.47252 -3.765625,-4.898437 l -0.164063,-0.308594 -10.835937,1.517578 0.160156,0.554687 c 0.815061,2.818504 2.724262,4.434816 4.814453,5.646485 1.864841,1.081034 3.813419,1.934827 5.482422,3.048828 -0.408956,0.325726 -0.8214,0.648317 -1.572265,0.900391 -1.015511,0.340918 -2.244709,0.649096 -3.441407,1.148437 -1.196697,0.499342 -2.373221,1.199851 -3.230468,2.345703 -0.857248,1.145853 -1.368501,2.719482 -1.310547,4.859375 l 0.01563,0.572266 9.423828,-1.552735 -0.0098,-0.433593 c -0.05338,-2.308925 2.132298,-4.567957 4.996094,-5.056641 2.863796,-0.488684 6.36408,0.723905 8.912109,5.521484 l 0.164063,0.308594 10.835937,-1.517578 -0.160156,-0.554687 c -0.819475,-2.83458 -2.825215,-4.415299 -5.001953,-5.591797 -2.022789,-1.093291 -4.171701,-1.923106 -5.882813,-3.109375 0.38093,-0.556098 0.850533,-0.935701 1.449219,-1.19336 0.737844,-0.317547 1.612817,-0.5019 2.44336,-0.851562 0.830542,-0.349662 1.638528,-0.916821 2.058593,-1.951172 0.451346,-2.060405 0.106524,-3.182859 -0.15326,-4.877628 z m 8.501953,-0.384766 c 0.279724,1.67333 0.23523,2.825642 -0.04102,3.50586 -0.306475,0.754652 -0.815626,1.10908 -1.521484,1.40625 -0.705859,0.297169 -1.587511,0.484613 -2.449219,0.855469 -0.861708,0.370855 -1.715485,0.966874 -2.232422,2.046875 l -0.175781,0.367187 0.322265,0.246094 c 1.939088,1.482397 4.361055,2.316106 6.439454,3.439453 1.894716,1.024069 3.387499,2.345349 4.205078,4.458984 l -8.900391,1.246094 c -2.691616,-4.790843 -6.546267,-6.280734 -9.748047,-5.734375 -3.105405,0.529913 -5.536857,2.877466 -5.738281,5.613281 l -7.457031,1.228516 c 0.0548,-1.607031 0.420561,-2.806703 1.048828,-3.646484 0.711653,-0.951242 1.709544,-1.562397 2.814453,-2.023438 1.104909,-0.461041 2.303721,-0.763407 3.375,-1.123047 1.071279,-0.35964 2.049024,-0.766118 2.626953,-1.589844 l 0.277344,-0.394531 -0.382813,-0.291015 c -1.928397,-1.465052 -4.257844,-2.332623 -6.248047,-3.486329 -1.815742,-1.052572 -3.250207,-2.399976 -4.05664,-4.52539 l 8.892578,-1.244141 c 1.272155,2.315645 2.569509,3.938913 3.84375,4.916016 1.339019,1.026776 2.673663,1.394473 3.849609,1.203125 2.221997,-0.36156 3.615183,-2.624875 3.712891,-5.234375 z M 14.917969,5.5 C 13.729942,5.5 12.657088,6.0628369 11.859375,6.8613281 11.061662,7.6598194 10.5,8.7319796 10.5,9.9199219 v 0.00195 l 0.169922,46.1621091 c 0.0012,1.186757 0.564341,2.257235 1.361328,3.054688 C 12.829121,59.93701 13.900473,60.5 15.087891,60.5 h 33.99414 c 1.188027,0 2.260881,-0.562837 3.058594,-1.361328 C 52.938338,58.340181 53.5,57.26802 53.5,56.080078 v -29.0625 c 0,-0.854999 0.0142,-1.492302 -0.318359,-2.158203 C 52.849079,24.193474 52.353999,23.745624 51.5,22.890625 L 36.076172,7.4550781 36.019531,7.4121094 C 35.26819,6.8438401 34.107686,5.5 32,5.5 Z m 0,2 H 32 c 1.274361,0 1.741373,0.6756979 2.746094,1.453125 l 15.33789,15.351562 c 0.852631,0.853699 1.214226,1.260262 1.308594,1.449219 C 51.487016,25.943004 51.5,26.162579 51.5,27.017578 v 29.0625 c 0,0.522056 -0.291855,1.160524 -0.775391,1.644531 C 50.241074,58.208617 49.603002,58.5 49.082031,58.5 h -33.99414 c -0.519581,0 -1.158701,-0.29123 -1.642578,-0.775391 -0.483878,-0.48416 -0.775391,-1.122865 -0.775391,-1.644531 v -0.002 -0.002 L 12.5,9.9199219 c 0,-0.522056 0.291855,-1.1605238 0.775391,-1.6445313 C 13.758926,7.7913831 14.396998,7.5 14.917969,7.5 Z" />
</svg>
