<?xml version="1.0" encoding="UTF-8" standalone="no"?>
<svg
   height="64"
   width="64"
   version="1.1"
   id="svg3"
   sodipodi:docname="application-relaxng.svg"
   inkscape:version="1.1.2 (0a00cf5339, 2022-02-04)"
   xmlns:inkscape="http://www.inkscape.org/namespaces/inkscape"
   xmlns:sodipodi="http://sodipodi.sourceforge.net/DTD/sodipodi-0.dtd"
   xmlns:xlink="http://www.w3.org/1999/xlink"
   xmlns="http://www.w3.org/2000/svg"
   xmlns:svg="http://www.w3.org/2000/svg">
  <defs
     id="defs3">
    <linearGradient
       inkscape:collect="always"
       id="linearGradient846">
      <stop
         style="stop-color:#19c5ff;stop-opacity:1;"
         offset="0"
         id="stop842" />
      <stop
         style="stop-color:#1948ff;stop-opacity:1"
         offset="1"
         id="stop844" />
    </linearGradient>
    <linearGradient
       inkscape:collect="always"
       xlink:href="#linearGradient846"
       id="linearGradient848"
       x1="10.5"
       y1="33"
       x2="43.255436"
       y2="14.47206"
       gradientUnits="userSpaceOnUse" />
  </defs>
  <sodipodi:namedview
     id="namedview3"
     pagecolor="#ffffff"
     bordercolor="#000000"
     borderopacity="0.25"
     inkscape:showpageshadow="2"
     inkscape:pageopacity="0.0"
     inkscape:pagecheckerboard="0"
     inkscape:deskcolor="#d1d1d1"
     inkscape:zoom="5.9921875"
     inkscape:cx="31.791395"
     inkscape:cy="31.958279"
     inkscape:window-width="1056"
     inkscape:window-height="545"
     inkscape:window-x="285"
     inkscape:window-y="61"
     inkscape:window-maximized="0"
     inkscape:current-layer="svg3"
     inkscape:pageshadow="2"
     showgrid="false" />
  <path
     style="color:#000000;fill:#19c5ff;fill-opacity:0.2;stroke-width:2;-inkscape-stroke:none"
     d="m 11.67,56.08 c 0,1.71 1.71,3.42 3.417,3.42 h 33.996 c 1.709,0 3.417,-1.71 3.417,-3.42 V 27.017 c 0,-1.71 0,-1.71 -1.708,-3.42 L 35.417,8.21 C 34.51,7.524 33.708,6.5 32,6.5 H 14.917 C 13.208,6.5 11.5,8.21 11.5,9.92 Z"
     id="path8557" />
  <path
     id="path3"
     style="color:#807f7f;fill:url(#linearGradient848);-inkscape-stroke:none;fill-opacity:1"
     d="M 32,21.558594 C 22.924133,21.556321 15.554688,28.924139 15.554688,38 15.554687,47.075861 22.924133,54.443679 32,54.441406 41.07266,54.439134 48.4375,47.072654 48.4375,38 48.4375,28.927346 41.07266,21.560866 32,21.558594 Z m 0,1 C 40.532309,22.560731 47.4375,29.467696 47.4375,38 47.4375,46.532304 40.532309,53.439269 32,53.441406 23.464661,53.443544 16.554687,46.535334 16.554687,38 16.554687,29.464666 23.464661,22.556456 32,22.558594 Z m -0.03125,1.65625 -0.03125,0.0039 -0.02148,0.0039 0.05859,-0.0039 c -0.831239,0.0068 -1.659054,0.09324 -2.474609,0.253906 -0.05021,-0.0093 -0.159772,-0.04114 -0.335938,0.01758 -0.113173,0.02542 -0.219031,0.05317 -0.291015,0.07031 -0.230077,0.05314 -0.426337,0.122983 -0.597656,0.169922 l -0.302735,0.08398 -0.05664,0.308594 c -0.0031,0.01714 0.0016,0.01208 0,0.02734 -0.07694,0.09334 -0.193384,0.224052 -0.173829,0.439453 0.0163,0.183371 0.150178,0.398056 0.279297,0.486328 0.12951,0.08854 0.213847,0.10424 0.19336,0.0957 l 0.08984,0.03516 0.09375,0.002 c 0.203228,0.0036 0.403881,-0.0403 0.591797,-0.117187 -0.0039,0.06421 -0.01,0.0971 -0.002,0.230469 v 0.002 0.002 c 0.01105,0.154668 0.0965,0.350915 0.22461,0.460937 0.08446,0.07254 0.144954,0.08186 0.210937,0.103516 -0.06773,0.02358 -0.160713,0.02955 -0.195312,0.05469 -0.130255,0.09462 -0.116028,0.09461 -0.07227,0.07031 -0.08451,0.04624 -0.175013,0.07901 -0.267578,0.105469 -0.04392,0.0026 -0.15183,0.0014 -0.300781,0.0039 -0.0859,0.0015 -0.215703,0.06072 -0.326172,0.08203 -0.01401,-0.0038 -0.03865,-0.0231 -0.05273,-0.02734 -0.06896,-0.0208 -0.136472,-0.03352 -0.205078,-0.04492 -0.129072,-0.02144 -0.233295,-0.04435 -0.433594,-0.0039 -0.335153,0.05818 -0.605044,0.321414 -0.658203,0.658203 l -0.05859,0.375 0.345703,0.158204 c 0.01309,0.0059 0.01083,-0.0012 0.02344,0.0039 -0.0065,0.03076 -0.02274,0.04703 -0.02539,0.07813 -0.206917,0.01015 -0.4069,0.05594 -0.507813,0.117187 -0.128523,0.078 -0.215333,0.129033 -0.199219,0.123047 h -0.002 c -0.06153,0.02315 -0.235039,0.05339 -0.445312,0.13086 -0.194643,0.07171 -0.464532,0.284291 -0.56836,0.599609 -0.02322,0.0066 -0.02518,0.0032 -0.05469,0.01367 l -0.0059,0.002 h -0.0039 c -0.03511,0.01317 -0.129787,0.02833 -0.25,0.06055 0.03529,-0.05401 0.09679,-0.06478 0.113281,-0.132813 l 0.06445,-0.273437 -0.197266,-0.197266 c -0.118599,-0.118608 -0.25415,-0.1482 -0.330078,-0.15625 -0.07593,-0.008 -0.11635,-0.0014 -0.146485,0.002 -0.04711,0.0052 -0.0443,0.0055 -0.03516,0.0059 -0.05647,-0.189913 -0.146104,-0.395023 -0.464844,-0.478516 l -0.0059,-0.002 -0.0059,-0.002 c -0.08796,-0.0207 -0.121293,0.01509 -0.1875,0.0293 -0.03658,-0.0271 -0.07515,-0.04069 -0.126953,-0.06055 -0.004,-0.01113 0.0022,-0.03281 -0.002,-0.04297 -0.09088,-0.221626 -0.207849,-0.320808 -0.318359,-0.410156 l -0.314453,0.388672 -0.332031,-0.373047 c -0.155241,0.137992 -0.268341,0.266979 -0.373047,0.373047 -0.01563,0.01583 -0.0418,0.04041 -0.05664,0.05469 l -0.0293,0.02734 H 21.83372 l 0.283203,0.285156 -0.06836,0.06445 0.134766,0.117188 c -0.0214,0.03579 -0.04625,0.07142 -0.0293,0.05078 -0.0042,0.0051 -0.05178,0.02225 -0.169922,0.169922 l -0.002,0.002 -0.002,0.002 c -0.0013,0.0016 -0.126052,0.146736 -0.222657,0.320313 -0.0483,0.08679 -0.109688,0.177801 -0.11914,0.375 -0.0047,0.0986 0.01375,0.243492 0.107422,0.373047 0.09367,0.129554 0.243148,0.204343 0.355468,0.228515 l 0.0098,0.002 0.0078,0.002 c 0.228163,0.04026 0.3216,-0.02872 0.40039,-0.06836 0.07879,-0.03964 0.135952,-0.08069 0.191406,-0.125 0.02537,-0.02027 0.04697,-0.04488 0.07031,-0.06641 0.101325,0.147063 0.205997,0.319893 0.330078,0.347656 0.179497,0.04016 0.302897,0.01228 0.416016,-0.02344 v -0.002 c 0.207676,-0.06621 0.294604,-0.150378 0.394531,-0.226562 l 0.369141,-0.01563 v -0.230469 c 0.0846,0.01088 0.169873,0.0502 0.267578,0.04492 0.0029,-1.56e-4 0.0069,-0.0018 0.0098,-0.002 -0.03706,0.04941 -0.03428,0.04794 -0.0332,0.04687 -0.04832,0.0147 -0.113607,0.02181 -0.21875,0.126953 -0.07137,0.07137 -0.07234,0.08566 -0.0918,0.117188 -0.09402,-0.002 -0.186668,-0.01969 -0.320312,0.06445 l -0.220703,0.138672 -0.01367,0.259765 c -0.008,0.170171 0.01925,0.276734 0.02734,0.353516 -0.0879,0.08082 -0.189065,0.172976 -0.248047,0.210937 -0.06277,0.0068 -0.195332,0.02379 -0.330078,0.08984 h -0.002 l -0.002,0.002 c -0.140585,0.07029 -0.200781,0.133815 -0.259765,0.183594 -0.05898,0.04978 -0.109564,0.08476 -0.101563,0.08008 -0.104312,0.06085 -0.280559,0.140543 -0.464844,0.302734 -0.0998,0.08784 -0.12771,0.277986 -0.197265,0.429688 -0.05124,-0.03606 -0.08359,-0.07864 -0.175781,-0.109375 l -0.04687,-0.01563 -0.04687,-0.0059 c -0.07247,-0.0094 -0.151655,0.02126 -0.230469,0.04297 -0.07125,-0.03595 -0.15199,-0.08529 -0.314453,-0.11914 l -0.01563,-0.0039 -0.01563,-0.002 c -0.154708,-0.02179 -0.286378,-0.0087 -0.359375,-0.002 -0.073,0.0068 -0.09199,0.0088 -0.140625,0.002 l -0.160157,-0.02344 -0.142578,0.07617 c -0.155314,0.08174 -0.189469,0.146373 -0.246093,0.21289 -0.05204,-0.03458 -0.05021,-0.06358 -0.142579,-0.08789 l -0.0625,-0.01563 H 19.52108 l -0.132812,0.294922 c -0.361772,0.804199 -0.634718,1.645035 -0.833985,2.503906 -9.79e-4,0.0042 -0.0049,0.0075 -0.0059,0.01172 -0.02123,0.03099 -0.07687,0.09964 -0.107422,0.240234 v 0.0039 0.0039 c -0.04407,0.220958 -0.03347,0.24985 0,0.08203 l -0.11914,0.597656 h 0.609375 c -0.05147,0 -0.03587,3.22e-4 0.0293,0.0078 0.03042,0.0035 0.117752,-0.02849 0.177735,-0.0332 l -0.251953,0.275391 -0.488282,-0.07031 C 18.310379,36.712595 18.226562,37.325655 18.226562,38 v 0.002 0.0039 c 0.0095,0.839867 0.09688,1.676026 0.259766,2.5 l -0.002,-0.0039 c 0.02574,0.136421 0.0517,0.275764 0.08594,0.427734 0.165383,0.761555 0.395007,1.509316 0.685547,2.232422 0.0016,0.0041 3.94e-4,0.0019 0.002,0.0059 5.37e-4,0.0013 0.0014,0.0026 0.002,0.0039 0.04891,0.123425 0.09047,0.184393 0.08594,0.173828 0.330007,0.784304 0.733446,1.53525 1.207031,2.242188 l 0.002,0.002 0.002,0.002 c -0.04301,-0.06286 -0.0234,0.01094 0.08008,0.162109 8e-4,0.0012 0.0012,0.0027 0.002,0.0039 0.0016,0.0023 3.51e-4,-3.35e-4 0.002,0.002 0.412381,0.606877 0.873176,1.181502 1.375,1.716796 0.09428,0.100562 0.185162,0.185207 0.259766,0.259766 0.63293,0.636636 1.324118,1.212952 2.064453,1.720703 l 0.0039,0.002 0.804687,0.533203 0.199219,-0.632812 c 0.04478,-0.141811 0.02755,-0.245794 0.02344,-0.283203 -0.0041,-0.03741 0.0028,-0.01838 -0.0039,0.0332 l -0.0039,0.02148 c 0.01559,-0.0896 0.01073,-0.168536 0.0078,-0.201172 -0.0066,0.08437 0.04047,0.04247 0.07813,-0.230468 l 0.002,-0.0078 v -0.0078 c 0.02092,-0.191757 -0.0072,-0.308966 -0.0293,-0.4375 -0.02212,-0.128535 -0.0502,-0.248125 -0.0625,-0.304688 v -0.002 c -0.0372,-0.165971 -0.105698,-0.271245 -0.136719,-0.326172 0.03192,-0.05619 0.07471,-0.08613 0.0625,-0.263672 v -0.002 c -0.0073,-0.09911 -0.04458,-0.123085 -0.08203,-0.189453 -0.003,-0.0495 -0.004,-0.09899 0,-0.148437 v -0.002 c 0.01766,-0.226071 -1.28e-4,-0.402357 0.002,-0.529296 l -0.002,0.01758 c 0.0065,-0.121492 0.002,-0.246391 0.002,-0.275391 0,-0.158783 -0.05437,-0.299548 -0.07617,-0.353516 -0.0218,-0.05397 -0.0088,-0.02411 -0.0078,-0.0078 -0.0059,-0.174815 0.05217,-0.378267 -0.0059,-0.71875 v -0.002 l -0.002,-0.002 c -0.0054,-0.03041 -0.01174,-0.144288 -0.02148,-0.267578 -0.0097,-0.123291 0.01539,-0.242577 -0.117188,-0.47461 l -0.002,-0.0039 -0.002,-0.002 c -0.119138,-0.202976 -0.225675,-0.267188 -0.34375,-0.361328 -0.117615,-0.09377 -0.228786,-0.172497 -0.337891,-0.234375 h -0.002 c -0.162749,-0.0923 -0.284689,-0.09559 -0.345703,-0.103516 -0.06133,-0.008 -0.06598,-0.0203 -0.0098,0.0078 h -0.002 c -0.08237,-0.04068 -0.231388,-0.124769 -0.349609,-0.208985 -0.09825,-0.06999 -0.134174,-0.121121 -0.134766,-0.105469 0.01151,-0.06587 0.0421,-0.108775 -0.02344,-0.263671 -0.09261,-0.218913 -0.237958,-0.314136 -0.3125,-0.371094 -0.07454,-0.05696 -0.09098,-0.08431 -0.06445,-0.04492 -0.101635,-0.160843 -0.183175,-0.476635 -0.410199,-0.82618 h -0.002 c -0.03963,-0.06068 -0.09434,-0.251108 -0.294921,-0.474609 l -0.002,-0.002 -0.002,-0.002 c -0.09017,-0.09876 -0.119133,-0.108639 -0.15039,-0.128906 0.01768,-0.01785 0.02781,-0.02137 0.04883,-0.04687 0.06047,-0.07339 0.15039,-0.206392 0.15039,-0.40039 0,-0.209195 -0.08925,-0.271705 -0.15625,-0.347657 0.02545,-0.03736 0.055,-0.07345 0.109375,-0.189453 l 0.002,-0.0039 v -0.0039 c 0.01943,-0.04318 0.033,-0.06838 0.0332,-0.07227 0.02734,-0.02233 0.08599,-0.06947 0.146484,-0.142578 v -0.002 c 0.141494,-0.171839 0.112001,-0.210171 0.109375,-0.257813 0.07966,-0.0363 0.298107,-0.122928 0.392578,-0.394531 l 0.01563,-0.04492 0.0059,-0.04492 c 0.04484,-0.296943 0.04484,-0.599541 0,-0.896484 l -0.0039,-0.02344 -0.0059,-0.02344 c -0.0131,-0.05239 -0.03248,-0.05096 -0.05078,-0.08984 0.02787,-0.02188 0.09196,-0.03169 0.111328,-0.05078 0.06818,-0.0672 0.107538,-0.12335 0.140625,-0.175781 0.06617,-0.104862 0.108656,-0.199011 0.126953,-0.232422 l 0.0098,-0.01758 0.0078,-0.01758 0.01172,-0.0039 0.01367,-0.0078 c 0.007,-0.0036 0.07709,-0.02397 0.0957,-0.0293 0.01001,0.116557 0.03073,0.253419 0.162109,0.367187 0.144982,0.125549 0.351088,0.136162 0.486328,0.107422 0.16455,-0.03691 0.296633,-0.130482 0.365235,-0.226562 0.04566,-0.06395 0.05343,-0.13506 0.07227,-0.203125 0.06797,0.04256 0.129591,0.09164 0.222657,0.113281 l 0.0098,0.002 0.01172,0.002 c 0.175981,0.0326 0.249574,-0.0063 0.306641,-0.02734 0.01696,0.01724 0.02194,0.02552 0.04687,0.04687 0.06756,0.05784 0.192678,0.15625 0.402343,0.15625 h 0.0059 0.0039 c 0.2315,-0.0049 0.268791,-0.102359 0.347656,-0.181641 l 0.101563,0.142578 0.169922,0.02734 c 0.03765,0.04806 0.071,0.104795 0.105468,0.130859 0.06212,0.04697 0.04898,0.03742 0.0078,0 0.141253,0.129028 0.250726,0.175011 0.320312,0.21875 -0.06028,-0.03988 -0.06791,-0.0654 -0.04102,-0.02148 0.02843,0.04643 0.08311,0.145466 0.177734,0.255859 l 0.01563,0.01953 0.01758,0.01758 c 0.20906,0.199337 0.47312,0.330396 0.757813,0.378906 0.316279,0.0568 0.487937,0.0164 0.394531,-0.0039 l 0.0332,0.0078 0.0332,0.002 c 0.107648,0.0089 0.20849,0.05307 0.289063,0.125 l 0.01563,0.01367 0.01563,0.01172 c 0.09278,0.07015 0.07061,0.046 0.05859,0.01367 -0.01416,0.05943 -0.05419,0.114527 0.02148,0.333984 0.07656,0.22065 0.154107,0.243032 0.214844,0.285156 l -0.0293,0.0918 0.08594,0.175781 c 0.09325,0.192721 0.244859,0.277232 0.324219,0.31836 0.07936,0.04113 0.1171,0.05778 0.115234,0.05664 0.201071,0.122865 0.349025,0.128151 0.357422,0.13086 l -0.07031,-0.0293 c 0.13927,0.06964 0.242561,0.0591 0.316406,0.05273 0.03736,0.0296 0.09863,0.0849 0.234375,0.134766 h 0.002 l 0.002,0.002 c 0.05674,0.02013 0.08612,0.02498 0.119141,0.0332 0.03233,0.08137 0.04513,0.176496 0.248047,0.275391 7.97e-4,3.88e-4 -8.02e-4,0.0016 0,0.002 0.170816,0.08307 0.24015,0.05835 0.294922,0.05664 0.05589,-0.0017 0.09365,-0.0066 0.125,-0.0098 0.0627,-0.0064 0.120085,0.02119 -0.01172,-0.01758 l 0.03906,0.01172 0.03906,0.0059 c 0.04114,0.0053 0.184332,0.08594 0.478515,0.08594 h 0.13086 c -0.002,5.86e-4 0.074,0.02667 0.205078,0.121094 0.133473,0.09615 0.302491,0.245838 0.570312,0.345703 l 0.0039,0.002 0.0059,0.002 c 0.06702,0.02355 0.07133,0.02351 0.109375,0.03516 0.0016,0.0039 0.0023,0.0038 0.0039,0.0078 0.02942,0.07545 0.0511,0.194213 0.05078,0.179688 0.0056,0.09865 0.01131,0.0669 -0.0625,0.144531 -0.07502,0.07891 -0.26212,0.204948 -0.433594,0.458984 h 0.002 c -0.07949,0.116895 -0.09437,0.17269 -0.121094,0.232422 -0.02672,0.05973 -0.05633,0.111447 -0.04687,0.09766 v 0.002 h -0.002 c -0.008,0.01185 -0.02256,0.0029 -0.146484,0.15039 -0.122465,0.14579 -0.196236,0.411113 -0.185547,0.648438 0.0055,0.131077 0.04284,0.192112 0.07227,0.25 -0.01153,0.119298 -0.02833,0.237486 -0.05859,0.353515 l -0.002,0.0059 -0.002,0.0059 c -0.06445,0.273858 -0.02736,0.404029 -0.0059,0.279297 v 0.002 0.002 c -0.01074,0.06444 -0.0046,0.113328 -0.002,0.16211 0.0087,-0.04659 0.01141,-0.03871 -0.0098,0 -0.02541,0.04645 -0.06237,0.108064 -0.09961,0.175781 l -0.002,0.002 -0.002,0.002 c -0.07559,0.141315 -0.117185,0.236506 -0.132813,0.259766 -0.01563,0.02326 0.02337,-0.0061 -0.0098,0.0059 -0.13602,0.04592 -0.324988,0.10418 -0.496094,0.164063 h -0.002 -0.002 c 6.59e-4,-2.38e-4 -0.126962,0.02305 -0.291016,0.09961 l -0.002,0.002 c -0.103513,0.04878 -0.272041,0.120108 -0.447266,0.230469 -0.175225,0.110361 -0.399291,0.265436 -0.486328,0.591797 -0.07283,0.271244 0.0035,0.481935 0.03711,0.59375 0.02443,0.08119 0.02326,0.08 0.02539,0.08594 -0.0042,0.0031 -0.0073,0.0062 -0.03906,0.03516 -0.04443,0.04042 -0.100875,0.08582 -0.173829,0.173828 -0.02956,0.03547 -0.227032,0.170254 -0.33789,0.484375 l -0.002,0.0039 -0.002,0.0059 c -0.0053,0.01587 -0.0015,0.06722 -0.0078,0.0918 -0.01417,0.02735 -0.0313,0.05868 -0.04687,0.08984 l -0.0039,0.0098 -0.0059,0.0098 c -0.04796,0.107889 -0.01883,0.118346 -0.01758,0.177735 -0.0145,0.01899 -0.03065,0.04439 -0.06836,0.08398 -0.05269,0.05533 -0.160405,0.08266 -0.0078,0.03906 0.0083,-0.0025 -0.02841,0.0021 -0.136718,-0.02734 -0.109802,-0.02987 -0.265984,-0.123255 -0.56836,-0.06445 l -0.492187,0.0957 0.09766,0.492187 c 0.03935,0.200704 0.167929,0.297044 0.261719,0.373047 0.008,0.03736 0.02433,0.06671 0.03906,0.103516 -0.02461,0.004 -0.04254,0.0068 -0.06836,0.01172 0.03251,-0.0061 -0.08353,0.0063 -0.193359,0.01953 -0.05492,0.0066 -0.114908,0.01397 -0.191407,0.03516 -0.0765,0.02119 -0.191257,0.02324 -0.33789,0.21875 l -0.002,0.0039 -0.0039,0.0059 c -0.06817,0.09544 -0.05722,0.159895 -0.06836,0.236328 -0.07423,-0.0023 -0.118584,-0.03457 -0.21875,0.0078 l -0.273438,0.115235 -0.0293,0.294921 c -0.02445,0.244163 0.06834,0.34361 0.105468,0.402344 0.03713,0.05873 0.05788,0.09718 0.03125,0.04687 l 0.08789,0.164063 0.173828,0.06836 c 0.684852,0.267197 1.41583,0.600572 2.240234,0.769531 h 0.002 c 0.410676,0.08328 0.817003,0.126993 1.205078,0.171875 0.511558,0.05806 1.030387,0.08594 1.552734,0.08594 0.980305,0.01837 1.960124,-0.06896 2.921875,-0.259766 l 0.0059,-0.002 h 0.0059 c 1.69737,-0.380308 3.30683,-1.082959 4.740234,-2.068359 0.740335,-0.507752 1.431523,-1.084067 2.064453,-1.720703 l 1.496094,-1.496094 -1.310547,0.3125 c 0.02239,-0.0741 0.04114,-0.114367 0.05664,-0.21875 0.01537,-0.10351 0.0262,-0.230177 -0.01953,-0.386719 -0.01049,-0.0359 -0.06074,-0.06059 -0.08008,-0.09766 0.0015,-0.112203 0.0089,-0.238985 0.002,-0.314453 -0.01118,-0.121407 -0.02189,-0.238868 0,-0.523438 v -0.0078 l 0.002,-0.0078 c 0.01551,-0.337406 -0.08169,-0.605891 -0.148438,-0.800781 -0.06188,-0.180692 -0.09108,-0.297025 -0.09375,-0.423828 0.03457,-0.03987 0.107336,-0.106573 0.201172,-0.214844 l 0.03125,-0.03516 0.02148,-0.03906 c 0.300372,-0.5079 0.497587,-0.910009 0.566407,-1.435547 l 0.01367,-0.113281 -0.0293,-0.08984 c 0.0134,-0.07555 0.04469,-0.163227 -0.02734,-0.320312 v -0.002 c -0.127431,-0.277553 -0.233343,-0.567681 -0.490234,-0.863281 l -0.002,-0.002 -0.002,-0.002 c -0.156364,-0.175909 -0.291942,-0.28243 -0.3125,-0.308593 l -0.0039,-0.0059 -0.0039,-0.0039 c -0.0013,-0.0015 -0.01407,-0.02469 -0.02344,-0.03906 0.01259,-0.02949 0.02018,-0.03751 0.03516,-0.0918 v -0.002 c 0.05763,-0.213231 0.01668,-0.310518 0.0098,-0.373046 -0.002,-0.0179 -0.0015,-0.0049 -0.002,-0.01563 0.0066,-0.0092 0.008,-0.01044 0.01563,-0.02148 0.05727,-0.08247 0.195043,-0.208468 0.158203,-0.52539 v -0.002 C 41.751377,38.97408 41.637726,38.883591 41.527344,38.771484 41.416962,38.659378 41.300889,38.555121 41.076172,38.5 h -0.002 c -0.267836,-0.06505 -0.357249,-0.02449 -0.466797,-0.0078 -0.01431,-0.02103 0.01052,0.007 -0.02344,-0.04883 -0.08434,-0.138773 -0.310204,-0.403678 -0.636718,-0.451172 l -0.002,-0.002 h -0.002 c -0.593219,-0.08239 -1.083199,0.173092 -1.345703,0.28711 l 0.02539,-0.0098 c -0.05239,0.0193 -0.15013,0.02738 -0.277344,0.04883 0.05459,-0.0049 -0.08231,-0.02723 -0.271484,-0.06836 l -0.0332,-0.0078 -0.03125,-0.002 c -0.332971,-0.02776 -0.543188,0.07395 -0.623047,0.08789 -0.30023,0.04904 -0.38831,0.12891 -0.375,0.144531 0.01494,-6e-5 0.03656,0.0101 -0.01563,-0.03125 -0.07438,-0.05894 -0.159341,-0.155448 -0.296875,-0.263672 h -0.002 c -0.14635,-0.1147 -0.208817,-0.13477 -0.25,-0.166015 l -0.002,-0.002 c -0.113832,-0.08848 -0.191235,-0.107534 -0.253906,-0.128906 -0.01576,-0.07222 -0.02412,-0.170459 -0.08984,-0.330078 v -0.002 c -0.171565,-0.411752 -0.44436,-0.497095 -0.523437,-0.576172 -0.09692,-0.09692 -0.165681,-0.14088 -0.226563,-0.1875 0.01782,-0.05782 0.04852,-0.04711 0.04102,-0.15625 -0.009,-0.132303 -0.06771,-0.144995 -0.117187,-0.220703 0.03101,-0.04275 0.05694,-0.06034 0.09375,-0.173828 l 0.002,-0.002 c 0.03257,-0.103157 0.01547,-0.133099 0.0098,-0.1875 -0.0127,0.04413 -0.01715,0.04389 0.03906,-0.04492 0.06402,-0.101147 0.160382,-0.315438 0.138672,-0.544922 v -0.002 -0.002 c -0.01028,-0.102834 -0.03309,-0.121242 -0.05469,-0.167969 0.02736,-0.07181 0.05645,-0.145806 0.04883,-0.240234 -0.01506,-0.151449 -0.08449,-0.194558 -0.152343,-0.275391 0.01024,0.09057 -4.25e-4,0.07425 0.09766,-0.103516 l 0.002,-0.002 v -0.002 c 0.06001,-0.111468 0.06458,-0.166461 0.07422,-0.212891 3.62e-4,-2.72e-4 0.0016,-0.0017 0.002,-0.002 0.05205,-0.03919 0.175136,-0.127493 0.259765,-0.289062 l 0.0059,-0.0098 0.0039,-0.0098 c 0.09597,-0.20475 0.127712,-0.313862 0.05469,-0.197266 -0.04792,0.0769 0.05073,-0.01888 0.195312,-0.179688 0.06743,-0.0744 0.08846,-0.121136 0.115234,-0.169921 0.03669,-0.0078 0.06017,-0.009 0.132813,-0.04102 0.337329,-0.148521 0.607338,-0.416577 0.755859,-0.753906 l 0.05859,-0.136719 -0.01367,-0.08984 c 0.01807,-0.02058 0.03773,-0.04063 0.0918,-0.130859 v -0.002 c 0.07494,-0.123834 0.09957,-0.20344 0.119141,-0.251953 0.01934,-0.0053 0.03274,-0.0096 0.125,-0.03906 0.122946,-0.03931 0.332077,-0.143448 0.474609,-0.339844 0.06077,0.01266 0.115672,0.05469 0.181641,0.05469 h 0.03516 l 0.03516,-0.0039 c 0.06793,-0.0096 0.118125,0.07819 0.46875,-0.01172 l 0.0098,-0.002 0.0078,-0.002 c 0.196069,-0.05809 0.239658,-0.123849 0.289063,-0.16211 0.04941,-0.03826 0.09377,-0.05923 0.0293,-0.0293 l -0.0293,0.01172 c 0.07162,-0.02791 0.140224,-0.06167 0.207031,-0.09961 l 0.03711,-0.01953 0.109375,-0.05273 0.0098,-0.0039 0.01172,-0.0059 c 0.06186,-0.02694 0.133723,-0.05779 0.199219,-0.08203 0.07267,-0.02689 0.157842,-0.03125 0.08008,-0.03125 h 0.03516 l 0.03711,-0.0059 c 0.04104,-0.006 0.232485,0.04229 0.566407,0.0039 l -0.05859,0.002 h 0.708984 c -0.06428,0.114179 -0.155194,0.221389 -0.105469,0.388672 l 0.01953,0.07031 0.04102,0.06055 c 0.102917,0.157726 0.236806,0.293569 0.394532,0.396485 l 0.02344,0.01563 0.02539,0.01172 c 0.27359,0.13681 0.37923,0.06142 0.447265,0.05273 0.06804,-0.0087 0.107687,0.02134 -0.03125,-0.01953 l -0.02734,-0.0098 c 0.08086,0.02888 0.180007,0.02918 0.257812,0.02734 0.06137,0.01445 0.11793,0.04135 0.173828,0.07031 0.04287,0.09391 0.157394,0.302707 0.400391,0.392578 0.175734,0.06279 0.263971,0.04012 0.3125,0.02734 0.01514,0.0046 0.06632,0.02743 0.162109,0.07227 0.09682,0.04531 0.263424,0.128586 0.515625,0.08984 0.144135,-0.02072 0.31777,-0.09295 0.425781,-0.220704 0.111556,-0.131944 0.14211,-0.271543 0.154297,-0.365234 0.0058,-0.04485 -6.29e-4,-0.0207 0.002,-0.05469 L 44.517578,32.25 44.240234,31.712891 c -0.136782,-0.265748 -0.285065,-0.417911 -0.341797,-0.517579 -0.209891,-0.366645 -0.426604,-0.747724 -0.689453,-1.11914 l -0.876953,-1.240235 -0.01367,0.644532 c 0.06497,0.02475 -0.0081,-0.03632 -0.199218,-0.138672 l 0.01172,0.0059 c -0.105818,-0.06005 -0.200801,-0.137096 -0.283203,-0.226562 -0.02297,-0.03573 -0.06806,-0.118452 -0.175781,-0.234375 -0.121078,-0.130298 -0.38483,-0.300998 -0.679688,-0.263672 l -0.226562,0.02734 -0.04492,0.06836 c -0.0477,0.01817 -0.09948,0.02443 -0.144531,0.04883 -0.08336,0.04244 -0.09898,0.0728 -0.134766,0.111328 -0.0245,-0.0022 -0.01897,-0.0059 -0.05859,-0.0059 -0.102344,0 -0.26048,-0.04262 -0.515625,0.01172 -0.14833,0.02952 -0.287469,0.0965 -0.40039,0.197265 l -0.08594,0.07813 c 0.01948,-0.182691 0.02918,-0.367106 0,-0.548828 l -0.0098,-0.05664 L 39.349609,28.5 c -0.01739,-0.04234 -0.06047,-0.06731 -0.08203,-0.107422 0.107183,-0.0381 0.229152,-0.0794 0.265625,-0.113281 0.05439,-0.05052 0.08664,-0.09011 0.115234,-0.125 0.02436,-0.02971 0.04128,-0.05195 0.05469,-0.06836 l 0.189453,-0.125 c 0.0074,-0.0044 0.05211,-0.02456 0.103516,-0.04883 0.0029,-0.0012 0.0011,-0.0027 0.0039,-0.0039 0.147849,-0.06373 0.204206,-0.144129 0.230469,-0.175781 0.02676,-0.03225 0.03116,-0.03152 -0.0078,0.0039 l 0.455078,-0.412109 -0.498047,-0.361328 c -0.114102,-0.08263 -0.209993,-0.137048 -0.25,-0.166016 l -0.933593,-0.673828 0.05469,0.43164 c -0.05176,-0.08162 -0.106672,-0.135633 -0.15039,-0.169921 -0.0904,-0.0709 -0.146288,-0.09305 -0.173829,-0.107422 -0.0336,-0.03378 -0.04218,-0.05479 -0.08398,-0.08008 v -0.0078 c -0.0013,-0.0015 0.01628,0.01402 0.0059,0 -5.78e-4,-7.78e-4 -0.0053,-0.005 -0.0059,-0.0059 V 25.994141 L 38.376953,25.851562 C 38.047261,25.67625 37.722769,25.495609 37.341797,25.333984 36.684108,25.056048 35.985782,24.818785 35.275391,24.644531 h -0.002 c -0.357668,-0.09011 -0.700796,-0.190991 -1.11914,-0.257812 h -0.002 -0.002 c -0.106245,-0.01634 -0.235518,-0.04971 -0.396485,-0.08008 l -0.04687,-0.0078 h -0.35924 c -0.439859,-0.04426 -0.872071,-0.084 -1.347656,-0.084 z m 0.05664,1.001953 c 0.422926,0.0014 0.818475,0.03427 1.251953,0.07813 l 0.02539,0.0039 h 0.314453 c 0.110498,0.02252 0.229137,0.05302 0.378907,0.07617 0.346138,0.05529 0.654858,0.144476 1.035156,0.240234 h 0.002 0.002 c 0.654607,0.160468 1.304288,0.382112 1.916016,0.640625 v -0.002 c 0.03525,0.01496 0.0707,0.03711 0.105469,0.05273 -0.01927,0.0085 -0.02039,0.006 -0.04297,0.01758 -0.113416,0.05792 -0.315618,0.222999 -0.355469,0.46875 -0.01395,0.08647 0.01696,0.18297 0.04492,0.271484 -0.01541,0.04847 -0.03193,0.07268 -0.04297,0.134766 l -0.0332,0.1875 0.09961,0.162109 c 0.09762,0.15887 0.31072,0.299931 0.494141,0.320313 0.183421,0.02038 0.307411,-0.02737 0.398438,-0.06445 0.129287,-0.05267 0.139233,-0.06471 0.152343,-0.07813 0.0035,0.0223 -0.02087,0.04722 -0.01367,0.06641 l 0.03711,0.09961 c -0.04641,0.07008 -0.12733,0.114209 -0.144531,0.1875 l -0.04102,0.173828 0.08008,0.160156 c 0.08235,0.167649 0.237825,0.27444 0.351563,0.320313 0.113737,0.04587 0.198505,0.05658 0.263671,0.06445 0.09333,0.01127 0.06901,0.0023 0.04883,-0.01172 0.01515,0.01608 0.0275,0.03393 0.03906,0.05273 4.88e-4,0.0052 -4.12e-4,0.01043 0,0.01563 -0.03647,-6.28e-4 -0.03702,4.89e-4 -0.08203,0 h -0.0039 -0.136719 c -0.141447,-0.0091 -0.331552,-0.05981 -0.578125,-0.07813 -0.123287,-0.0092 -0.268465,-0.01084 -0.433594,0.04492 -0.165129,0.05576 -0.337332,0.185722 -0.439453,0.347656 l -0.08594,0.136719 0.0098,0.160156 c 0.01562,0.265449 0.03281,0.349789 0.01367,0.425781 0.0311,-0.119965 0.0239,-0.05626 -0.04102,0.02148 -0.06444,0.07718 -0.241864,0.180482 -0.220703,0.546875 0.01083,0.196636 0.08463,0.275182 0.123047,0.326172 0.02911,0.03865 0.04552,0.056 0.0625,0.07422 -0.0019,0.06123 -0.02703,0.08786 0.02539,0.199219 l 0.0059,0.01172 0.0059,0.0098 c 0.04733,0.0892 0.176017,0.1483 0.289063,0.210938 -0.03999,0.01672 -0.04925,0.0086 -0.0957,0.03516 h -0.002 c -0.212071,0.122355 -0.301576,0.302139 -0.351563,0.412109 -0.04999,0.109971 -0.07786,0.178562 -0.07617,0.175782 l -0.002,0.0039 v 0.002 c -0.0088,0.01499 -0.0484,0.04926 -0.126953,0.179687 -0.07855,0.130428 -0.135842,0.369429 -0.103516,0.56836 l 0.03516,-0.28125 c -0.04791,0.108816 -0.133372,0.19623 -0.242188,0.24414 h -0.002 c 0.04736,-0.02105 0.02073,-0.0082 -0.03906,0.0059 -0.05853,0.01377 -0.161849,0.03161 -0.294922,0.125 -0.0015,0.0011 -4.3e-4,8.76e-4 -0.002,0.002 -0.196967,0.13923 -0.198583,0.227392 -0.22461,0.275391 -0.02623,0.04837 -0.04352,0.06492 -0.02539,0.04492 v 0.002 c -0.03745,0.04173 -0.147761,0.0748 -0.300782,0.316406 l -0.002,0.0039 -0.002,0.0039 c -0.131938,0.21674 -0.106553,0.25081 -0.0918,0.25 -0.04584,0.03384 -0.14233,0.100215 -0.230469,0.232422 l -0.002,0.002 v 0.002 c -0.104097,0.160154 -0.09554,0.223292 -0.107422,0.271485 -0.01188,0.04819 -0.02895,0.0747 0.0039,0.01367 -0.0623,0.110795 -0.265756,0.30643 -0.222657,0.705078 0.01426,0.128178 0.0769,0.157674 0.136719,0.238281 -0.02176,0.06053 -0.05947,0.05646 -0.05664,0.140625 0.0043,0.124676 0.04099,0.191785 0.06836,0.253906 -0.03132,0.03876 -0.08575,0.09028 -0.132813,0.251953 -2.7e-4,9.27e-4 2.66e-4,0.001 0,0.002 -0.02231,0.07787 -0.0098,0.108646 -0.0078,0.164062 -5.42e-4,-0.0027 0.0079,-0.02378 -0.02344,0.02344 -0.04828,0.07285 -0.145525,0.189848 -0.15625,0.425781 v 0.0039 0.002 c -0.0061,0.186026 0.08215,0.326333 0.136719,0.392578 -0.02492,0.07179 -0.07143,0.08188 -0.04102,0.226563 0.06923,0.329388 0.238383,0.410498 0.345703,0.5 0.108083,0.09014 0.207662,0.1686 0.203125,0.164062 0.223804,0.223805 0.345362,0.346837 0.30664,0.253907 -0.01097,-0.02599 0.0142,0.06545 0.04102,0.18164 0.02709,0.11738 0.03903,0.283174 0.234375,0.478516 l 0.0039,0.0039 0.0039,0.0039 c 0.149713,0.144544 0.270001,0.168107 0.333985,0.191407 0.06398,0.0233 0.07657,0.03832 0.03516,0.0059 l 0.002,0.002 h 0.002 c 0.144839,0.111725 0.197157,0.125709 0.246094,0.164063 v -0.002 c 0.02453,0.01931 0.142146,0.14066 0.294922,0.261719 0.152776,0.12106 0.378606,0.28403 0.714844,0.259766 l 0.0293,-0.002 0.03125,-0.0059 c 0.342946,-0.06725 0.442716,-0.169717 0.394531,-0.162109 h 0.0039 l 0.002,-0.002 c 0.23304,-0.0395 0.386446,-0.07457 0.373047,-0.07617 h 0.002 c 0.07199,0.02593 0.203716,0.09969 0.486328,0.08203 l 0.03516,-0.002 0.0332,-0.0059 c 0.07124,-0.01425 0.249622,-0.01559 0.488281,-0.103516 l 0.01367,-0.0039 0.01367,-0.0059 c 0.247023,-0.107293 0.575862,-0.206914 0.759765,-0.201171 0.04317,0.08067 0.10635,0.25926 0.34961,0.414062 l 0.09766,0.06055 0.115234,0.01367 c 0.238125,0.02706 0.268991,0.0044 0.34375,-0.0078 -0.01015,0.02653 -0.01802,0.02198 -0.02734,0.0625 -0.04165,0.176757 -0.02456,0.315674 -0.01563,0.396485 0.009,0.08161 -0.01153,0.114927 0.01953,0 0.008,-0.02951 -0.0021,9.54e-4 -0.02734,0.06055 -0.02515,0.05943 -0.07327,0.1551 -0.07031,0.328125 0.0025,0.245084 0.06262,0.288253 0.109375,0.378906 0.04582,0.08883 0.09491,0.170673 0.162109,0.253906 0.0017,0.0022 0.0022,0.0018 0.0039,0.0039 0.0016,0.0019 0.0023,0.0039 0.0039,0.0059 0.148517,0.18509 0.28389,0.280172 0.339844,0.341797 0.119197,0.137157 0.189441,0.30999 0.308594,0.572265 -0.0089,0.07413 -0.03057,0.132902 0.0098,0.253906 L 41.457125,41.9103 c -0.04664,0.356202 -0.154716,0.574649 -0.419922,1.025391 -0.0455,0.04712 -0.104663,0.100852 -0.1875,0.201172 -0.09935,0.120317 -0.227489,0.322191 -0.226562,0.583984 -0.0045,0.332622 0.08916,0.600808 0.154297,0.791016 0.0661,0.19301 0.09949,0.306756 0.09375,0.43164 l 0.002,-0.01563 c -0.02593,0.337135 -0.01273,0.553105 0,0.691407 0.01273,0.138301 0.01873,0.154951 0.002,0.271484 l -0.05078,0.355469 0.117187,0.06055 c -0.01511,0.05166 -0.0257,0.08944 -0.04687,0.164062 -0.02702,0.07693 -0.04402,0.105805 -0.08398,0.167969 -0.04145,0.06448 -0.122846,0.185557 -0.169922,0.351562 l -0.119141,0.419922 0.01953,0.0078 c -0.4633,0.424825 -0.926506,0.851212 -1.445313,1.207031 -1.327843,0.91309 -2.820164,1.561412 -4.392578,1.914062 -6.95e-4,1.38e-4 -0.0013,0.0018 -0.002,0.002 -0.890734,0.175852 -1.7973,0.255943 -2.705078,0.238281 h -0.0039 -0.0059 c -0.486598,0 -0.966636,-0.02671 -1.4375,-0.08008 h -0.002 c -0.392324,-0.04537 -0.772507,-0.08751 -1.121094,-0.158203 -0.412354,-0.08474 -0.840141,-0.273936 -1.261719,-0.4375 0.04576,-0.0073 0.08825,-0.01378 0.146485,-0.02344 0.08697,-0.01443 0.162723,-0.01514 0.314453,-0.08594 l 0.0293,-0.01367 0.02734,-0.01758 c 0.198811,-0.126502 0.252444,-0.2511 0.3125,-0.390625 0.0584,-0.135683 0.09764,-0.290506 0.08203,-0.480469 0.240329,-0.07998 0.329734,-0.188018 0.429687,-0.292969 0.106721,-0.112056 0.188405,-0.204935 0.265625,-0.359375 0.07555,-0.151109 0.03478,-0.153571 0.02539,-0.210937 0.0074,-0.01422 0.01129,-0.02308 0.01953,-0.03906 0.0183,-0.0355 0.02182,-0.01662 0.06445,-0.144531 l 0.0059,-0.01758 0.0039,-0.01563 c 0.0038,-0.01474 0.0042,-0.04506 0.0078,-0.0625 1.42e-4,0.0152 0.0283,-0.02107 0.142579,-0.158203 l 0.002,-0.002 c -0.01367,0.01664 0.02571,-0.02635 0.07617,-0.07227 0.0477,-0.04339 0.108569,-0.09234 0.18164,-0.189453 l 0.002,-0.0039 c 0.05223,-0.06861 0.101897,-0.165718 0.121094,-0.21875 l 0.04297,-0.07813 0.01563,-0.08789 c 0.04342,-0.263428 -0.03061,-0.462381 -0.0625,-0.56836 -0.03189,-0.105978 -0.0144,-0.106209 -0.03125,-0.04492 v -0.002 -0.002 c -0.02327,0.08724 -0.03042,0.04847 0.05273,-0.0039 0.08277,-0.05213 0.212766,-0.112009 0.339844,-0.171875 -0.0045,0.0021 0.07633,-0.01651 0.205078,-0.0625 l 0.0039,-0.002 c 0.144013,-0.05027 0.33052,-0.107921 0.490235,-0.162109 h 0.0039 l 0.0059,-0.002 c 0.216604,-0.07834 0.401384,-0.243845 0.5,-0.390625 0.09685,-0.144144 0.136062,-0.25145 0.181641,-0.33789 l 0.0039,-0.0059 c 0.02168,-0.03901 0.05868,-0.102567 0.09766,-0.173828 0.04035,-0.07377 0.08947,-0.125167 0.121094,-0.308593 v -0.0059 l 0.002,-0.0039 c 0.01476,-0.09595 0.002,-0.205411 0,-0.220703 -0.002,-0.01529 2.9e-4,0.04904 -0.002,0.0625 0.04622,-0.272032 0.01588,-0.309157 -0.0059,-0.216797 l -0.0039,0.01172 c 0.0504,-0.193234 0.08335,-0.390658 0.09766,-0.589844 l 0.002,-0.01953 v -0.01758 c 0,-0.140257 -0.0481,-0.222875 -0.08008,-0.289063 0.02457,-0.01631 0.06909,-0.04418 0.160156,-0.177734 l 0.002,-0.002 c 0.07179,-0.105337 0.103349,-0.186096 0.132813,-0.251954 0.02974,-0.06647 0.06753,-0.128598 0.0332,-0.07813 v -0.002 c 0.04373,-0.06479 0.161333,-0.152597 0.330078,-0.330078 0.168745,-0.177481 0.358704,-0.511828 0.337891,-0.890625 v -0.0039 -0.002 c -0.01206,-0.180873 -0.05625,-0.319204 -0.119141,-0.480469 -0.03144,-0.08063 -0.06753,-0.161238 -0.121094,-0.246094 -0.05337,-0.08456 -0.105067,-0.192774 -0.308594,-0.28125 h -0.002 c -0.132473,-0.05803 -0.208978,-0.07018 -0.273437,-0.0918 l -0.002,-0.002 c -0.04645,-0.01785 -0.169706,-0.101817 -0.332032,-0.21875 -0.16343,-0.117728 -0.382896,-0.281605 -0.714843,-0.308593 l -0.01953,-0.002 h -0.1875 c 0.03151,0 -0.119791,-0.03415 -0.283203,-0.0625 -0.127182,-0.03544 -0.163283,-0.01901 -0.220703,-0.01172 -0.02875,-0.0575 -0.0029,-0.08469 -0.126953,-0.169922 -0.133167,-0.09188 -0.209865,-0.09965 -0.267578,-0.115235 -0.0561,-0.01515 -0.09089,-0.02465 -0.09375,-0.02539 l -0.0039,-0.002 c 0.02365,0.0093 0.03238,0.01706 -0.03516,-0.03125 -0.07363,-0.05267 -0.247253,-0.150041 -0.439453,-0.160157 l -0.01172,-0.002 h -0.01367 c -0.07378,0 -0.07125,0.0039 -0.08789,0.0078 -0.01757,-0.004 -0.09021,-0.02844 -0.06641,-0.01367 v -0.002 h -0.002 c -0.0149,-0.0091 -0.01394,-0.0061 -0.02734,-0.01367 -0.0038,-0.01662 0.0051,-0.03467 0,-0.05078 -0.04703,-0.14996 -0.133643,-0.253188 -0.195313,-0.316407 -0.08257,-0.08465 -0.05148,-0.03667 -0.04297,-0.01367 0.01471,-0.05596 0.05923,-0.110798 -0.02734,-0.345704 -0.11234,-0.31124 -0.302493,-0.391915 -0.398438,-0.458984 -0.234786,-0.205344 -0.527624,-0.328788 -0.83789,-0.359375 -0.266125,-0.04312 -0.413023,-0.0083 -0.388672,-0.0039 h -0.002 -0.0039 c -0.0838,-0.01401 -0.159291,-0.05507 -0.222657,-0.111328 -0.01557,-0.0218 -0.02866,-0.04435 -0.0625,-0.09961 -0.04367,-0.07132 -0.114041,-0.19574 -0.28125,-0.300781 -0.08011,-0.05036 -0.09758,-0.06086 -0.123047,-0.07617 l 0.109375,-0.224609 -0.443359,-0.220703 c -0.03465,-0.01733 -0.124798,0.01331 -0.185547,0.002 -0.02324,-0.02297 -0.01886,-0.0325 -0.04883,-0.05664 -0.155461,-0.125209 -0.434537,-0.199225 -0.660156,-0.158203 l -0.01563,0.0039 -0.01563,0.0039 c -0.175588,0.04436 -0.161637,0.09087 -0.21492,0.146965 -0.06533,-0.05771 -0.08434,-0.112618 -0.230469,-0.142578 -0.182376,-0.03783 -0.253607,0.0046 -0.330078,0.03906 -0.02683,-0.02232 -0.02965,-0.02823 -0.07227,-0.05664 h -0.002 l -0.002,-0.002 c 0.0015,9.77e-4 -0.05326,-0.04145 -0.113281,-0.08594 -0.03001,-0.02224 -0.06279,-0.04574 -0.111328,-0.07422 -0.04598,-0.02698 -0.09362,-0.08858 -0.3125,-0.08203 -0.02687,8.1e-4 -0.03048,0.01582 -0.05469,0.01953 -0.08616,-0.06507 -0.190608,-0.146753 -0.355468,-0.132812 -0.203791,0.01723 -0.318038,0.132407 -0.365235,0.183594 -0.09439,0.102373 -0.105756,0.07069 0.04492,-0.01367 l -0.01367,0.0078 -0.01172,0.0078 c 0.07086,-0.04555 0.02962,-0.03123 -0.146485,0.03125 l -0.0059,0.002 -0.0039,0.002 c -0.114284,0.04306 -0.293249,0.06302 -0.535157,0.183594 -0.179073,0.08288 -0.303946,0.239427 -0.40625,0.40625 -0.253255,-0.08337 -0.52414,-0.07412 -0.673828,-0.02734 -0.157211,0.04913 -0.208108,0.06487 -0.205078,0.06641 0.10323,-4.07e-4 0.02836,-0.0027 -0.02734,-0.05859 -0.05947,-0.05963 -0.0444,-0.169093 -0.05273,0.0039 0.0025,-0.02494 0.05696,-0.231052 0.08008,-0.47461 -0.01007,0.100745 -0.01321,0.05381 0.02734,-0.01953 0.04056,-0.07334 0.136673,-0.16787 0.142578,-0.433594 v -0.002 c 0.0033,-0.198948 -0.102187,-0.378 -0.199219,-0.472656 -0.09703,-0.09466 -0.18797,-0.139129 -0.267578,-0.173828 -0.15842,-0.06905 -0.287985,-0.09103 -0.359375,-0.103516 h -0.002 c -0.05667,-0.01012 -0.07367,0.006 -0.123047,0.0039 0.05093,-0.136424 0.03074,-0.194434 0.01953,-0.257812 0.04242,-0.03968 0.138086,-0.07137 0.179688,-0.341797 v -0.0078 l 0.002,-0.0098 c 0.03045,-0.258731 -0.08307,-0.40817 -0.15625,-0.501953 -0.07318,-0.09378 -0.139996,-0.151467 -0.191406,-0.19336 l -0.166016,-0.134765 -0.210937,0.02539 c -0.161595,0.01947 -0.334273,0.03848 -0.533204,0.101563 0.09887,-0.313236 0.187399,-0.628926 0.310547,-0.933594 l -0.02344,-0.002 c 0.005,5.39e-4 0.0068,-0.0043 0.01172,-0.0039 0.0075,6.67e-4 0.0039,0.0054 0.01172,0.0059 0.0019,-0.0046 0.004,-0.0091 0.0059,-0.01367 0.281289,0.01283 0.554902,-0.152682 0.654297,-0.257812 0.05516,-0.05834 0.03955,-0.04615 0.05469,-0.0625 0.03509,-0.0019 0.09262,0.0042 0.117188,0.002 0.06702,-0.0062 0.08325,-0.0066 0.109375,-0.0039 -0.01421,-0.0014 0.01988,0.01082 0.08594,0.04297 0.06038,0.02939 0.15831,0.06809 0.289063,0.09766 -0.01383,0.08125 -0.05436,0.114383 -0.02148,0.238281 l 0.03516,0.126953 0.0918,0.0957 c 0.170798,0.174431 0.333866,0.222302 0.464844,0.267578 0.130979,0.04528 0.242815,0.07769 0.28125,0.09375 l 0.28125,0.117188 0.232422,-0.197266 c 0.112539,-0.09463 0.194511,-0.241804 0.220703,-0.365234 0.02619,-0.12343 0.01387,-0.219176 0.002,-0.291016 -0.02134,-0.128646 -0.03994,-0.183525 -0.04297,-0.185547 3.86e-4,-0.01159 8.65e-4,-0.02943 0.002,-0.06836 0.0014,-0.05181 0.0079,-0.09342 -0.0078,-0.205078 -0.01524,-0.109761 -0.04193,-0.155624 -0.06445,-0.203125 0.001,-3.2e-4 -0.0078,-0.0026 0.01367,-0.02148 0.04288,-0.03774 0.155895,-0.09956 0.30664,-0.1875 l 0.002,-0.002 c 0.116932,-0.06844 0.184309,-0.13249 0.240234,-0.179687 0.05404,-0.04561 0.09782,-0.06918 0.06055,-0.05078 -0.0072,0.0018 -0.02421,0.0048 0.0039,0.002 0.04569,-0.0047 0.186264,-0.01599 0.330078,-0.08789 l 0.01172,-0.0059 0.0098,-0.0059 c 0.303165,-0.171528 0.471261,-0.380353 0.570312,-0.460937 l 0.09766,-0.08008 0.04883,-0.117188 c 0.06694,-0.161142 0.04844,-0.271317 0.04297,-0.384765 0.111869,-0.06766 0.24398,-0.136845 0.28711,-0.19336 0.04299,-0.05633 0.03461,-0.05178 0.03906,-0.06055 0.0421,-0.0157 0.07091,-0.01632 0.142578,-0.07227 l 0.002,-0.002 c 0.108841,-0.08593 0.163656,-0.167716 0.195313,-0.210938 l 0.02734,-0.01758 c 0.01228,-0.0084 0.02491,-0.01493 0.03906,-0.01953 l 0.002,-0.002 h 0.002 c -0.04045,0.01348 0.138716,-0.0088 0.34961,-0.08789 -0.03466,0.01319 0.02815,-0.0025 0.09961,-0.01563 0.03858,-0.0071 0.07959,-0.01496 0.132813,-0.0293 0.05142,-0.01385 0.110761,0.0159 0.28125,-0.162109 0.145455,-0.152421 0.154424,-0.29054 0.158203,-0.365235 0.0013,-0.02554 -0.0013,-0.03334 -0.002,-0.05273 0.07029,-0.02154 0.191605,-0.05437 0.332031,-0.09961 0.0834,0.08268 0.192125,0.15848 0.296875,0.177734 0.241341,0.04436 0.359788,-0.03651 0.445312,-0.08203 0.08552,-0.04553 0.144548,-0.0897 0.185547,-0.119141 0.041,-0.02944 0.104683,-0.0504 -0.0098,-0.0039 l 0.0039,-0.002 0.0039,-0.002 c 0.124609,-0.05311 0.41528,-0.155386 0.636719,-0.238282 l 0.0078,-0.002 c 0.04761,-0.01577 0.182945,-0.03373 0.378907,-0.148437 0.0999,-0.05848 0.258544,-0.1744 0.3125,-0.40625 0.0054,-0.02341 -0.01801,-0.03372 -0.01563,-0.05664 0.03556,0.007 0.08554,0.04635 0.113281,0.04883 0.119035,0.01062 0.186975,0.0079 0.220703,0.01172 l -0.136719,-0.03516 c 0.188934,0.07873 0.281774,0.0519 0.351563,0.04687 0.06979,-0.005 0.123304,-0.0098 0.08984,-0.0098 l -0.158203,-0.02539 c 0.09259,0.03086 0.111399,0.01078 0.169922,0.0098 0.01766,0.02563 0.02061,0.03787 0.05273,0.07227 0.07436,0.07963 0.240984,0.193359 0.435546,0.193359 0.143206,0 0.360478,-0.06426 0.488282,-0.232422 0.127804,-0.168164 0.129332,-0.345523 0.113281,-0.458984 -0.0094,-0.06658 -0.04876,-0.08609 -0.06641,-0.136719 1.27e-4,-3.23e-4 -1.29e-4,-0.0016 0,-0.002 0.03681,-0.09341 0.118644,-0.307912 -0.0078,-0.558594 -0.03902,-0.07673 -0.118398,-0.08094 -0.185547,-0.132812 l -0.0059,-0.06641 c 0.05611,-0.0838 0.189447,-0.295638 0.164062,-0.541015 l -0.002,-0.0098 v -0.0078 c -0.02732,-0.196785 -0.24686,-0.414973 -0.310547,-0.451172 -0.06369,-0.0362 0.0078,0.0023 0.04492,0.05078 l 0.0078,0.01172 c 0.131607,0.182207 0.05746,0.11417 0.04492,0.05664 -0.0063,-0.02876 -0.01393,-0.0653 -0.03125,-0.11914 -0.01732,-0.05384 -0.0217,-0.130526 -0.160157,-0.259766 l -0.0098,-0.0078 -0.0078,-0.0078 c -0.122865,-0.103963 -0.156166,-0.07889 -0.240234,-0.09961 0.0046,-0.07838 0.01598,-0.114205 -0.002,-0.25 v -0.002 c -0.01608,-0.117138 -0.05182,-0.239806 -0.09766,-0.375 0.693295,-0.125388 1.392873,-0.209091 2.097656,-0.214844 h 0.0293 z m -5.623047,0.291015 c -0.518794,0.232928 -1.035261,0.459999 -1.552735,0.777344 5.05e-4,-0.0031 -0.05293,0.0087 -0.177734,0.08984 l -0.04492,0.02734 -0.03711,0.03711 c 0.03389,-0.03389 0.01915,-0.01913 -0.01758,0.01172 -0.03673,0.03085 -0.145817,0.04866 -0.201172,0.326172 l -0.04492,0.216797 v 0.0039 c -0.01387,0.0487 -0.04687,0.07422 -0.04687,0.126953 0,0.317929 0.126811,0.40471 0.232422,0.511719 0.102046,0.103396 0.209668,0.222045 0.5,0.230468 0.223989,0.01121 0.369332,-0.0495 0.507812,-0.130859 0.144361,-0.08481 0.288093,-0.185128 0.384766,-0.419922 h 0.002 v -0.002 c 0.05882,-0.143523 0.0353,-0.196224 0.0332,-0.28125 0.182536,-0.03049 0.371346,-0.0233 0.539063,-0.117187 0.300139,-0.168016 0.550348,-0.487041 0.617187,-0.867188 l -0.490234,-0.08594 z m 12.24414,1.048829 0.002,0.01367 c -3.51e-4,-0.0033 -0.0035,-0.0027 -0.0039,-0.0059 -3.38e-4,-0.0029 0.0023,-0.0049 0.002,-0.0078 z m 0.244141,0.447265 -0.02734,0.07813 c -0.0023,3.45e-4 -0.0054,0.0016 -0.0078,0.002 0.0048,-0.03289 0.03733,-0.04854 0.03516,-0.08008 z m -9.654297,0.240235 c -0.0049,0.0043 -0.0107,0.01128 -0.01563,0.01563 3.6e-5,-4.3e-5 -2.8e-5,-0.0019 0,-0.002 z m -0.8125,0.02734 c -0.04639,-0.0095 -0.05442,-0.02724 0.05078,0.02344 9.83e-4,4.73e-4 0.0029,0.0034 0.0039,0.0039 -0.01245,-0.0022 -0.04634,-0.02564 -0.05469,-0.02734 z m 1.589844,0.525391 0.07617,0.02539 c -0.02594,-0.01081 -0.01999,0.0033 -0.04297,-0.0039 -0.01584,-0.0052 -0.01611,-0.01741 -0.0332,-0.02148 z m -2.310547,0.439453 c -0.03289,0.02612 -0.134495,0.05465 -0.138672,0.05859 -0.0064,0.0061 0.01086,-0.0157 0.07422,-0.04883 0.01492,-0.0078 0.04431,-0.0033 0.06445,-0.0098 z m 11.175781,0.261719 c 0.0071,-0.0024 0.0045,0.0026 0.01172,0 l -0.01758,0.0059 c 0.0039,-0.0012 0.0021,-0.0045 0.0059,-0.0059 z m -11.71875,0.0078 c 1.36e-4,0.0011 0.0018,8.43e-4 0.002,0.002 1.94e-4,0.0016 -0.0022,0.0023 -0.002,0.0039 z M 24.5,29.185547 l 0.119141,0.0078 0.08203,0.148438 c -0.01217,0.10103 -0.11347,0.177891 -0.19336,0.248047 -0.02868,-0.01763 -0.04552,-0.0065 -0.07422,-0.03516 l -0.0293,-0.105468 0.02148,-0.01758 c 0.09234,-0.07156 0.03638,-0.15867 0.07422,-0.246094 z m -2.361328,0.04102 c -0.01964,0.04812 -0.07071,0.05237 -0.08398,0.105469 v -0.0039 c 0.03029,-0.116793 0.03637,-0.09642 0.04492,-0.09766 0.0032,-0.0026 0.03285,-2.23e-4 0.03906,-0.0039 z m 2.761719,0.333985 c -0.0065,0.0026 -0.0054,0.007 -0.01172,0.0098 -0.02716,0.0155 -0.05812,0.02332 -0.08398,0.04102 z m 14.09375,0.08398 c -0.02432,0.03457 -0.117185,0.107419 -0.128907,0.119141 l -0.0039,0.0039 -0.002,0.002 c 0.0058,-0.006 -0.0062,0.0051 -0.05664,0.04492 -0.05047,0.03985 -0.19455,0.123029 -0.242187,0.373047 l -0.002,0.0039 v 0.0039 c -0.01564,0.08829 0.0016,0.02162 0,0.05664 -0.01339,0.01069 -0.02713,0.02343 -0.03516,0.0293 -0.0458,0.03054 -0.06061,0.05745 -0.0957,0.09766 -0.07631,0.04746 -0.136739,0.08601 -0.08984,0.07422 -0.01272,-0.0041 -0.127492,-0.008 -0.306641,-0.002 -0.0754,0.0026 -0.183973,0.02999 -0.294922,0.06836 -0.07162,-0.05696 -0.106276,-0.131041 -0.234375,-0.160156 h -0.002 -0.002 c 0.04731,-0.06222 0.09117,-0.07683 0.126953,-0.214844 v -0.002 c 0.03918,-0.152581 0.01187,-0.235689 0.0078,-0.353516 0.115963,0.01834 0.255283,0.05043 0.472657,0.06445 l 0.01563,0.002 h 0.177734 c 0.09331,10e-4 0.231019,0.02029 0.427734,-0.0078 0.08392,-0.01199 0.164665,-0.14206 0.267579,-0.203125 z m 1.808593,0.189453 0.05078,0.06641 c -0.01638,-0.01263 -0.07109,-0.01976 -0.07813,-0.02734 l -0.01563,-0.0332 c 0.01751,-0.005 0.02446,0.0011 0.04297,-0.0059 z m 0.359375,0.002 c 0.03638,0.03723 0.0822,0.06318 0.121094,0.09766 -0.0029,0.002 -0.0028,0.0039 -0.0059,0.0059 l -0.08008,0.002 z m -0.925781,0.03125 c 0.04479,0.0036 0.03619,0.0059 0.146484,0.0059 -0.04439,0 -0.0025,0.0022 0.07422,0.0098 0.01584,0.0016 0.05759,-0.01299 0.07813,-0.01172 0.0091,0.02878 0.0028,0.05236 0.01758,0.08203 l -0.160156,0.0039 c 0.0037,0.202578 0.0087,0.306304 0.01172,0.292969 l -0.02539,0.113281 h -0.189453 l -0.0293,0.0039 c -0.107396,0.01235 -0.275543,-0.01228 -0.5,0.002 0.05051,-0.0563 0.144678,-0.152871 0.121094,-0.140625 0.05328,-0.02636 0.260785,-0.02276 0.453125,-0.359375 z m 0.515625,0.25586 c 0.0728,0.05342 0.126679,0.132039 0.207031,0.148437 l 0.19336,0.03906 0.0098,-0.0059 0.03125,0.03906 c -0.02134,0.01632 -0.03622,0.0083 -0.05859,0.01953 H 40.91996 c -0.05295,-0.03504 -0.11366,-0.066 -0.138672,-0.107422 -0.07821,-0.129537 -0.03452,-0.144741 -0.04883,-0.06641 z m 0.951172,0.134765 c 6.21e-4,0.0019 0.02413,0.0139 0.02734,0.01758 -0.0097,0.0033 -0.01549,0.0019 -0.02539,0.0059 0.0011,-0.0073 -0.003,-0.01608 -0.002,-0.02344 z m -2.066406,0.105469 c -0.01237,0 -0.01373,0.0055 -0.02539,0.0059 -0.02396,0.0025 -0.02266,-0.0038 -0.04883,0 z m 2.466797,0.185547 c -0.0013,0.0036 -6.57e-4,0.0079 -0.002,0.01172 l -0.01953,-0.0059 z m -4.556641,0.02539 0.0039,0.02148 c -7.81e-4,-0.0044 -0.0031,-0.0015 -0.0039,-0.0059 -0.0019,-0.0099 0.0024,-0.0049 0,-0.01563 z m 4.394531,0.21289 0.0078,0.0293 c -9.68e-4,-0.0036 -0.0048,-0.0043 -0.0059,-0.0078 -0.0036,-0.01264 0.0027,-0.0076 -0.002,-0.02148 z m -3.804687,0.07031 c 0.02137,0 0.02408,0.0058 0.0293,0.0078 -0.06257,0.0037 -0.01361,-0.01379 -0.09766,-0.002 z m 4.621093,0.390625 c 0.08936,0.149897 0.183796,0.286769 0.273438,0.443359 0.06279,0.109914 0.09163,0.143938 0.144531,0.216797 -0.02689,-0.0095 -0.03556,-0.01693 -0.06641,-0.02539 -0.09022,-0.02778 -0.113672,-0.01195 -0.169922,-0.0098 -0.03769,-0.08206 -0.04691,-0.15773 -0.189453,-0.257813 l -0.01172,-0.0078 -0.01172,-0.0078 C 42.607719,31.525874 42.47222,31.48899 42.339838,31.445347 l 0.18164,0.0332 0.179688,-0.144532 c 0.0273,-0.02213 0.03194,-0.06125 0.05664,-0.08594 z m -0.736328,0.03125 c 0.07986,0.02532 0.152958,0.115504 0.222657,0.128906 -0.03348,-0.0089 -0.06168,-0.03213 -0.0957,-0.03906 l -0.04883,-0.0098 h -0.05078 c -0.0076,0 -0.0044,0.0018 -0.01172,0.002 -2.8e-5,-0.04634 -0.0092,-0.04932 -0.01563,-0.08203 z m 0.02539,0.113281 v 0.0098 c 4.36e-4,-0.0052 -0.0023,-0.0027 -0.002,-0.0078 1.04e-4,-0.0015 0.0019,-4.14e-4 0.002,-0.002 z m -20.037109,1.599609 c -1.12e-4,0.0027 1.13e-4,0.007 0,0.0098 -0.0093,0.0097 -0.01,0.01492 -0.05664,0.04102 -0.02627,0.0147 -0.06277,0.01055 -0.09766,0.01953 0.04909,-0.03261 0.14109,-0.05804 0.154297,-0.07031 z m 12.638671,1.839844 c -0.0053,0.006 -0.02562,0.08631 -0.04297,0.107422 0.0069,-0.01733 0.0071,-0.05109 0.01367,-0.0625 0.02862,-0.04939 0.04007,-0.057 0.0293,-0.04492 z m -14.982421,0.900391 c -0.02794,0.04905 -0.06342,0.116076 -0.07813,0.226562 -0.0088,0.06589 0.02581,0.137377 0.04297,0.210938 -0.03771,-0.0097 -0.07556,-0.01972 -0.111328,-0.03516 0.01471,0.0057 -0.09811,-0.120981 -0.220703,-0.248047 0.09437,-0.02043 0.189317,-0.03869 0.28125,-0.06836 l 0.0039,-0.002 c 0.05044,-0.01616 0.03915,-0.05963 0.08203,-0.08398 z m -0.324219,0.126953 -0.05078,0.01758 c -0.0038,-0.0039 -0.0019,-0.0038 -0.0059,-0.0078 0.02384,-0.0094 0.03167,0.0041 0.05664,-0.0098 z m 1.308594,0.146484 -0.0039,0.01563 c 0.0022,-0.0056 -0.002,-0.0043 0,-0.0098 0.0017,-0.0047 0.0022,-9.32e-4 0.0039,-0.0059 z m 0.06641,0.589844 c -0.0061,0.02104 -0.01274,0.02628 -0.01758,0.05078 -0.01338,-0.01358 -0.04405,-0.02852 -0.05859,-0.04297 0.04208,-0.005 0.04965,-0.0053 0.07617,-0.0078 z m -1.408203,0.517578 c 0.02169,0.0066 0.04252,0.0157 0.06445,0.02148 0.0016,6.22e-4 0.0023,-6.02e-4 0.0039,0 0.07571,0.02805 0.110904,0.0095 0.181641,0.0078 7.59e-4,-1.8e-5 0.0012,2e-5 0.002,0 0.117728,0.04008 0.271611,0.103247 0.367187,0.146484 l 0.0039,0.002 h 0.002 c -0.04765,-0.02085 0.028,0.02338 0.107422,0.101562 0.0242,0.02382 0.07828,0.05986 0.105468,0.08789 -0.0018,0.06207 -0.02077,0.09821 0.02539,0.208984 l 0.02344,0.05664 0.03711,0.05078 c 0.06908,0.09298 0.186119,0.26121 0.402344,0.384766 l 0.0039,0.002 0.0039,0.002 c 0.0043,0.0023 0.09777,0.121573 0.335938,0.24414 0.209814,0.110833 0.412181,0.057 0.429687,0.05273 0.01814,-0.0044 -0.09745,0.02207 -0.199219,-0.01563 l 0.01563,0.0039 0.01367,0.0059 c -0.09161,-0.02776 -0.0692,-0.04014 0.01172,0.03906 0.04046,0.0396 0.09588,0.100038 0.208984,0.160156 0.113107,0.06012 0.314823,0.100768 0.482422,0.05078 0.04205,-0.01266 0.06974,-0.05893 0.111328,-0.08398 0.0143,0.124412 0.0091,0.248272 0,0.373047 -0.07909,0.04272 -0.148351,0.05899 -0.238281,0.179687 -0.106467,0.142873 -0.101849,0.210822 -0.109375,0.269532 -0.03669,0.03095 -0.09382,0.07668 -0.148437,0.154297 l -0.0039,0.0059 -0.0039,0.0059 c -0.07781,0.116701 -0.09999,0.18509 -0.123047,0.236328 -0.0099,0.01825 -0.05754,0.07809 -0.126953,0.212891 -0.07185,0.139545 -0.136102,0.40776 -0.05859,0.646484 0.02359,0.0724 0.03711,0.05019 0.0625,0.0918 -0.06743,0.06895 -0.136535,0.07491 -0.164062,0.263672 -0.05437,0.380718 0.08351,0.490505 0.08984,0.517578 0.06813,0.294416 0.208628,0.349183 0.283203,0.410157 0.07482,0.06117 0.141697,0.125708 0.08398,0.0625 -0.01318,-0.01374 0.07161,0.153174 0.201172,0.351562 0.105158,0.162985 0.186211,0.478347 0.412109,0.828125 l 0.002,0.0059 0.0039,0.0039 c 0.105935,0.157291 0.206364,0.216756 0.265625,0.259765 -0.01013,0.06199 -0.04217,0.0863 0.01953,0.234375 l 0.002,0.0059 0.002,0.0039 c 0.131875,0.296708 0.31874,0.410769 0.496094,0.537109 0.176516,0.125743 0.351756,0.223459 0.484375,0.289063 0.157179,0.07859 0.27189,0.08254 0.328125,0.08984 0.05624,0.0073 0.05151,0.02106 -0.01953,-0.01953 0.03131,0.01772 0.132405,0.08582 0.210937,0.148438 0.07691,0.06132 0.143168,0.153784 0.101563,0.08203 -0.05911,-0.103682 -0.019,-0.0374 -0.01172,0.05469 0.0075,0.09524 0.0087,0.217632 0.03516,0.365234 0.0201,0.122958 -0.01962,0.271026 -0.0059,0.597656 v 0.0039 0.0039 c 0.0089,0.154456 0.0627,0.281211 0.08008,0.324218 0.01738,0.04301 0.002,-8.58e-4 0.002,-0.02148 0,0.06664 -0.0011,0.243188 0,0.222656 v 0.0098 0.0078 c -0.0033,0.20251 0.0089,0.354744 0,0.46875 -0.0088,0.109627 -0.0088,0.220452 0,0.330079 l 0.002,0.0039 v 0.0039 c 0.0069,0.07099 0.03719,0.08831 0.06445,0.146484 -0.03629,0.04581 -0.09098,0.05926 -0.0625,0.283204 0.02223,0.180076 0.09661,0.318357 0.136719,0.390625 0.04088,0.07367 0.04088,0.08712 0.03711,0.07031 0.0027,0.01252 0.0066,0.03421 0.0098,0.04883 -0.487124,-0.371086 -0.976089,-0.741137 -1.408203,-1.175781 h -0.002 c -0.08996,-0.08996 -0.173502,-0.169184 -0.238281,-0.238281 -0.467662,-0.498853 -0.895269,-1.03385 -1.279297,-1.59961 l -0.002,-0.0039 -0.002,-0.002 c 0.04043,0.05776 0.03368,0.0061 -0.08008,-0.160156 l 0.0039,0.0039 c -0.438558,-0.654709 -0.813955,-1.35037 -1.1193,-2.076467 v -0.002 l -0.002,-0.002 c -0.05259,-0.122717 -0.08446,-0.171434 -0.07422,-0.144531 l -0.002,-0.0039 -0.002,-0.0059 C 19.914199,42.123008 19.70104,41.428651 19.546875,40.71875 v -0.002 -0.0039 c -0.02882,-0.127274 -0.05302,-0.253075 -0.08008,-0.396485 v -0.002 -0.002 C 19.316175,39.550583 19.235748,38.7766 19.226562,38 v -0.0039 c -7e-6,-6.49e-4 8e-6,-0.0013 0,-0.002 2.49e-4,-0.296067 0.05206,-0.590199 0.08203,-0.88086 z m 6.771484,0.07813 c -0.03115,0.0463 -0.108665,0.115446 -0.113281,0.125 -0.0093,0.01927 8.96e-4,-0.0373 0.0957,-0.11914 0.0048,-0.0042 0.01232,-0.0019 0.01758,-0.0059 z m -2.171875,0.09766 0.07227,0.158204 c -0.0035,-8.34e-4 -0.0044,-0.003 -0.0078,-0.0039 l -0.07422,-0.148437 c 0.004,-0.0017 0.0056,-0.0043 0.0098,-0.0059 z m 0.283203,0.220704 -0.02734,0.01563 c 0.01099,-0.0062 -2.86e-4,-0.0037 0.0098,-0.0098 0.0104,-0.0062 0.0068,0.0011 0.01758,-0.0059 z m -2.664062,0.0098 0.0293,0.0098 c -0.007,-0.0026 -0.0086,0.0023 -0.01563,0 -0.0085,-0.0028 -0.0048,-0.0071 -0.01367,-0.0098 z m 2.203125,0.15625 0.03906,0.02148 c 0.09903,0.05311 0.22461,0.03975 0.34375,0.03711 l 0.138672,0.302734 c -0.06447,0.02955 -0.291512,0.0664 -0.457031,-0.06836 -0.124509,-0.101371 -0.11628,-0.191617 -0.123047,-0.273438 0.02309,-0.0068 0.03201,-0.0111 0.05859,-0.01953 z m 0.669922,0.0039 c 0.0056,0.0044 0.0245,0.0209 0.05273,0.04492 -0.01214,0.145422 -0.06887,0.245375 -0.1875,0.304688 L 24.11914,37.736408 c 0.05194,-0.0016 0.106179,0.02855 0.15039,0.01563 0.06778,-0.01981 0.087,-0.04612 0.13086,-0.07227 z m 16.414062,1.791016 c 7.77e-4,-1.68e-4 0.02329,-3.6e-5 0.02344,0 -0.0839,-0.02058 -0.04059,-0.01351 -0.02344,0.0039 6.49e-4,6.59e-4 -5.48e-4,-0.0047 0,-0.0039 z m -18.648437,1.816406 c 0.0066,-6.17e-4 0.0064,0.0026 0.02734,0.06641 -0.01625,-0.08024 -0.02448,-0.03903 -0.03125,-0.06055 0.0016,-0.0015 0.0022,-0.0043 0.0039,-0.0059 z m 10.232421,2.330078 c 9.91e-4,0.0057 0.0012,0.0016 0.002,0.0078 -0.0057,-0.105934 -0.01864,0.0078 -0.04492,0.03906 -0.0053,0.0063 0.03765,-0.04374 0.04297,-0.04687 z m -2.59375,3.916016 c -0.03178,-0.04156 0.0698,0.07707 0.0918,0.212891 0.003,0.01851 -0.0032,0.01356 -0.002,0.0293 -0.01977,-0.09119 -0.06338,-0.207581 -0.08984,-0.242188 z m -1.863281,1.162109 c -0.0028,0.0071 -0.0085,0.04646 -0.01367,0.06055 1.35e-4,-8.39e-4 -1.42e-4,-0.0031 0,-0.0039 0.01208,-0.06945 0.02333,-0.0814 0.01367,-0.05664 z M 14.917969,5.5 C 13.729942,5.5 12.657088,6.0628369 11.859375,6.8613281 11.061662,7.6598194 10.5,8.7319796 10.5,9.9199219 v 0.00195 l 0.169922,46.1621091 c 0.0012,1.186757 0.564341,2.257235 1.361328,3.054688 C 12.829121,59.93701 13.900473,60.5 15.087891,60.5 h 33.99414 c 1.188027,0 2.260881,-0.562837 3.058594,-1.361328 C 52.938338,58.340181 53.5,57.26802 53.5,56.080078 v -29.0625 c 0,-0.854999 0.0142,-1.492302 -0.318359,-2.158203 C 52.849079,24.193474 52.353999,23.745624 51.5,22.890625 L 36.076172,7.4550781 36.019531,7.4121094 C 35.26819,6.8438401 34.107686,5.5 32,5.5 Z m 0,2 H 32 c 1.274361,0 1.741373,0.6756979 2.746094,1.453125 l 15.33789,15.351562 c 0.852631,0.853699 1.214226,1.260262 1.308594,1.449219 C 51.487016,25.943004 51.5,26.162579 51.5,27.017578 v 29.0625 c 0,0.522056 -0.291855,1.160524 -0.775391,1.644531 C 50.241074,58.208617 49.603002,58.5 49.082031,58.5 h -33.99414 c -0.519581,0 -1.158701,-0.29123 -1.642578,-0.775391 -0.483878,-0.48416 -0.775391,-1.122865 -0.775391,-1.644531 v -0.002 -0.002 L 12.5,9.9199219 c 0,-0.522056 0.291855,-1.1605238 0.775391,-1.6445313 C 13.758926,7.7913831 14.396998,7.5 14.917969,7.5 Z" />
</svg>
