<?xml version="1.0" encoding="UTF-8" standalone="no"?>
<svg
   height="64"
   width="64"
   version="1.1"
   id="svg9"
   sodipodi:docname="gnome-mime-application-pdf.svg"
   inkscape:version="1.1.2 (0a00cf5339, 2022-02-04)"
   xmlns:inkscape="http://www.inkscape.org/namespaces/inkscape"
   xmlns:sodipodi="http://sodipodi.sourceforge.net/DTD/sodipodi-0.dtd"
   xmlns:xlink="http://www.w3.org/1999/xlink"
   xmlns="http://www.w3.org/2000/svg"
   xmlns:svg="http://www.w3.org/2000/svg">
  <defs
     id="defs13">
    <linearGradient
       inkscape:collect="always"
       id="linearGradient846">
      <stop
         style="stop-color:#ff0000;stop-opacity:1;"
         offset="0"
         id="stop842" />
      <stop
         style="stop-color:#ff0058;stop-opacity:1"
         offset="1"
         id="stop844" />
    </linearGradient>
    <linearGradient
       inkscape:collect="always"
       xlink:href="#linearGradient846"
       id="linearGradient848"
       x1="10.5"
       y1="33"
       x2="43.390938"
       y2="11.284183"
       gradientUnits="userSpaceOnUse" />
  </defs>
  <sodipodi:namedview
     id="namedview11"
     pagecolor="#ffffff"
     bordercolor="#666666"
     borderopacity="1.0"
     inkscape:pageshadow="2"
     inkscape:pageopacity="0.0"
     inkscape:pagecheckerboard="0"
     showgrid="false"
     inkscape:zoom="5.109375"
     inkscape:cx="30.238532"
     inkscape:cy="31.804281"
     inkscape:window-width="1056"
     inkscape:window-height="545"
     inkscape:window-x="119"
     inkscape:window-y="83"
     inkscape:window-maximized="0"
     inkscape:current-layer="svg9"
     inkscape:snap-others="false"
     inkscape:object-nodes="false"
     inkscape:snap-nodes="false" />
  <path
     style="color:#000000;fill:#ff0000;fill-opacity:0.2;stroke-width:2;-inkscape-stroke:none"
     d="m 11.67,56.08 c 0,1.71 1.71,3.42 3.417,3.42 h 33.996 c 1.709,0 3.417,-1.71 3.417,-3.42 V 27.017 c 0,-1.71 0,-1.71 -1.708,-3.42 L 35.417,8.21 C 34.51,7.524 33.708,6.5 32,6.5 H 14.917 C 13.208,6.5 11.5,8.21 11.5,9.92 Z"
     id="path7063" />
  <path
     id="path10"
     style="color:#000000;fill:url(#linearGradient848);-inkscape-stroke:none;fill-opacity:1"
     d="m 24.199219,15.890625 c -0.47149,0.09331 -0.920778,0.304108 -1.292969,0.626953 -0.372188,0.322844 -0.653796,0.743832 -0.810547,1.210938 l -0.002,0.0039 -0.002,0.0039 c -0.402128,1.266396 -0.220055,3.067905 0.439453,5.080078 l 0.002,0.002 c 0.739716,2.214754 1.863289,4.338382 3.222656,6.236328 -0.159995,1.140175 -0.319617,2.275966 -0.515625,3.464844 -0.205831,1.248489 -0.451351,2.559002 -0.726562,3.978516 -0.223801,1.145229 -0.496001,2.301254 -0.816406,3.466797 -0.316337,1.150725 -0.551047,2.210186 -0.898438,3.273437 -2.347954,1.479977 -4.514323,3.191796 -6.476562,5.126953 l -0.0059,0.0059 -0.0059,0.0039 c -1.578892,1.651631 -2.50946,3.140981 -2.433594,4.546875 -0.02906,0.486827 0.119569,0.931822 0.304688,1.292969 l 0.01367,0.02734 0.01758,0.02734 c 0.236365,0.3453 0.544181,0.711768 0.990234,0.955078 l 0.0039,0.0039 0.0059,0.002 c 0.311004,0.16166 0.667155,0.310069 1.03125,0.410156 l 0.01172,0.0039 0.0098,0.002 c 0.550757,0.12481 1.119736,0.126532 1.630859,0.02539 1.990004,-0.393822 3.652076,-2.158172 5.054688,-4.511719 l 0.002,-0.0039 0.002,-0.0039 c 1.448681,-2.537713 2.617032,-5.223944 3.476563,-8.039063 0.718502,-0.425249 1.431096,-0.847986 2.144531,-1.220703 0.775295,-0.405029 1.601056,-0.819256 2.474609,-1.244141 l 0.002,-0.002 0.0039,-0.002 c 0.81592,-0.410687 1.783979,-0.852321 2.662109,-1.226562 0.802106,-0.341843 1.580462,-0.643971 2.363281,-0.980469 1.966048,1.187161 4.167354,2.006127 6.439453,2.357422 h 0.0059 l 0.0059,0.002 c 1.444755,0.183539 2.909077,0.153083 4.373047,-0.134766 0.908456,-0.127289 1.751552,-0.462885 2.515625,-1.054687 l 0.0078,-0.0059 0.0078,-0.0078 c 0.491064,-0.415695 0.764504,-0.98489 0.837891,-1.5625 0.07016,-0.552131 -0.0503,-1.090613 -0.248047,-1.566406 -0.119054,-0.531368 -0.457038,-0.929277 -0.822266,-1.173828 l -0.0078,-0.0059 -0.0078,-0.0039 c -0.879229,-0.5427 -1.929076,-0.882649 -2.996094,-0.896484 -1.426169,-0.0815 -2.854687,0.04456 -4.248047,0.320312 -0.94285,0.186588 -1.922977,0.432459 -2.847656,0.71875 -0.885771,0.269255 -1.849932,0.607002 -2.808594,0.976563 -0.670182,-0.423206 -1.361999,-0.91146 -2.066406,-1.421875 -0.734916,-0.532519 -1.461291,-1.182189 -2.255859,-1.882813 -0.0041,-0.0036 -0.0076,-0.0061 -0.01172,-0.0098 -0.512334,-0.512808 -1.05154,-1.000897 -1.539062,-1.527343 l -0.0059,-0.0059 -0.0059,-0.0078 c -0.461803,-0.463677 -0.895029,-0.915318 -1.259766,-1.365235 0.177616,-1.777173 0.325443,-3.51374 0.357422,-5.089843 v -0.0059 c 0.0624,-1.513583 -0.03412,-3.04982 -0.322266,-4.505859 -0.22348,-1.129257 -0.659613,-2.270248 -1.339843,-3.228516 -0.819321,-1.183578 -2.23956,-1.736251 -3.640625,-1.458984 z m 2.078125,1.431641 c 0.262958,0.175664 0.54731,0.317008 0.740234,0.595703 l 0.002,0.0039 0.002,0.002 c 0.580273,0.815868 0.977392,1.837267 1.177735,2.849609 0.270668,1.367717 0.362704,2.830255 0.302734,4.275391 v 0.0039 0.0059 c -0.03204,1.603169 -0.180903,3.394002 -0.369141,5.248047 l -0.01953,0.199218 0.123047,0.15625 c 0.0011,0.0014 0.0028,0.0025 0.0039,0.0039 l -0.07617,0.52539 c -0.126793,0.874893 -0.295744,1.819594 -0.425781,2.716797 -0.125905,0.868797 -0.299434,1.756652 -0.476562,2.652344 l -0.0039,0.01563 -0.002,0.01758 c -0.09393,0.739293 -0.286015,1.520099 -0.482422,2.318359 -0.232286,0.844204 -0.476317,1.647234 -0.71289,2.507813 L 25.816406,42.3125 c -0.01551,0.0092 -0.03137,0.01816 -0.04687,0.02734 l -0.167969,0.09961 -0.05664,0.1875 c -0.840846,2.810972 -2.006737,5.486525 -3.453125,8.021484 -1.333787,2.238061 -2.87294,3.740666 -4.390625,4.041016 -0.21972,0.04348 -0.477771,0.0013 -0.728516,-0.01172 1.155676,-0.244709 2.216188,-1.365216 3.275391,-3.076172 v -0.002 l 0.002,-0.002 c 1.321758,-2.166541 2.354148,-4.478916 3.158203,-6.894531 l 0.458984,-1.378906 -0.07031,0.04687 c 0.334035,-1.058665 0.575123,-2.085301 0.865234,-3.140625 0.327002,-1.189537 0.605138,-2.371663 0.833985,-3.542969 0.275956,-1.423361 0.52216,-2.742349 0.730468,-4.005859 0.208313,-1.26351 0.376938,-2.46446 0.544922,-3.66211 l 0.01367,-0.0918 0.179688,0.253907 0.142578,-1.306641 c 0.200164,-1.82676 0.281933,-3.47837 0.294922,-4.962891 v -0.002 c 0.02219,-1.193605 -0.06484,-2.414642 -0.25,-3.615234 -1.09e-4,-8.69e-4 -0.0018,-0.0011 -0.002,-0.002 -0.09105,-0.726422 -0.413806,-1.398239 -0.873047,-1.970703 z m -1.691407,0.271484 c 0.320838,-0.06349 0.693428,0.0538 0.875,0.242187 0.381781,0.435685 0.625137,0.987977 0.699219,1.582032 l 0.002,0.0078 v 0.0078 c 0.178427,1.151468 0.261503,2.320946 0.240235,3.458984 v 0.0039 0.002 c -0.0085,0.981803 -0.110297,2.149252 -0.195313,3.283204 -0.829814,-1.375965 -1.556104,-2.823719 -2.054687,-4.398438 v -0.002 C 23.683402,20.1546 23.627242,18.859942 23.841797,18.316406 l 0.002,-0.0078 0.0039,-0.0078 c 0.07142,-0.198707 0.190008,-0.38035 0.320313,-0.52539 0.06792,-0.07561 0.180159,-0.134578 0.417968,-0.181641 z m -1.673828,0.355469 c -6.37e-4,0.0016 6.35e-4,0.0042 0,0.0059 -0.0012,0.0034 -0.0047,0.0044 -0.0059,0.0078 z m 6.076172,14.43164 c 0.179713,0.197993 0.347968,0.39921 0.542969,0.603516 0.456554,0.478334 0.90258,0.904746 1.402344,1.367187 l 0.0059,0.0078 0.0078,0.0059 c 0.662095,0.568465 1.346338,1.195235 2.027343,1.738282 0.44481,0.354698 0.933721,0.72384 1.414063,1.089843 -0.507046,0.203244 -1.009426,0.397527 -1.533203,0.634766 -0.831613,0.322595 -1.666653,0.742806 -2.44336,1.095703 l -0.0059,0.0039 -0.0078,0.0039 c -0.692202,0.339487 -1.383967,0.678084 -2.076171,1.017578 -0.344496,0.168955 -0.63855,0.363673 -0.960938,0.554687 0.127608,-0.442018 0.254557,-0.880394 0.380859,-1.339844 l 0.002,-0.0059 0.002,-0.0059 c 0.196405,-0.798256 0.397941,-1.614935 0.501953,-2.433594 0.174869,-0.884277 0.351261,-1.776381 0.480469,-2.667969 0.07794,-0.537728 0.169238,-1.106767 0.259765,-1.669922 z m 17.166016,3 0.0098,0.002 h 0.01172 c 0.855792,0.01037 1.744205,0.294616 2.476563,0.744141 0.205769,0.139598 0.371685,0.340445 0.416015,0.564453 l 0.0098,0.05273 0.02344,0.05078 c 0.152655,0.347381 0.227023,0.752228 0.181641,1.109375 -0.04492,0.353591 -0.202384,0.67187 -0.486328,0.916015 -0.633157,0.487705 -1.283675,0.753309 -2.041016,0.857422 l -0.01367,0.002 -0.01563,0.002 c -0.125743,0.02488 -0.251211,-0.009 -0.376953,0.01172 0.09506,-0.05356 0.220117,-0.02208 0.310547,-0.08398 0.654032,-0.440122 1.098044,-1.176709 1.066406,-2.009766 -0.01151,-0.671012 -0.269648,-1.33954 -0.810546,-1.808593 l -0.002,-0.002 -0.002,-0.002 c -0.318593,-0.268728 -0.727044,-0.267996 -1.105468,-0.380859 0.115674,0.0038 0.232216,-0.03213 0.347656,-0.02539 z m -1.230469,0.710938 c 0.487562,-0.01377 0.950296,0.132217 1.337891,0.457031 0.312516,0.271726 0.460011,0.633125 0.466797,1.070313 v 0.0078 0.0059 c 0.01992,0.465889 -0.215402,0.871478 -0.628907,1.148438 l -0.002,0.002 -0.002,0.002 c -0.526983,0.360738 -1.187355,0.537273 -1.847656,0.494141 -1.291156,-0.08745 -2.56027,-0.32752 -3.759766,-0.722656 -0.724146,-0.272043 -1.441764,-0.642597 -2.160156,-0.990235 1.135236,-0.389817 2.271037,-0.77953 3.435547,-1.046875 h 0.0039 l 0.002,-0.002 c 1.01432,-0.249076 2.072652,-0.360609 3.154297,-0.425781 z M 21.599609,46.267578 c -0.655039,1.645429 -1.2843,3.304469 -2.203125,4.810547 -1.002247,1.617516 -2.060746,2.520802 -2.646484,2.636719 -0.03722,0.0074 -0.224889,0.0078 -0.347656,-0.0078 -0.05652,-0.0072 -0.152313,-0.03867 -0.28125,-0.125 -0.164198,-0.109947 -0.239927,-0.207083 -0.373047,-0.412109 l -0.01172,-0.01758 -0.01172,-0.01563 c -0.02869,-0.03705 -0.0752,-0.199945 -0.117187,-0.384766 0.02296,-0.725286 0.629621,-1.898672 1.96289,-3.226562 1.223081,-1.20427 2.636126,-2.222413 4.029297,-3.257813 z m -6.689453,7.447266 c 0.0043,0.0067 0.01319,0.01284 0.01758,0.01953 0.0037,0.0049 0.0021,0.0088 0.0059,0.01367 z M 14.917969,5.5 C 13.729942,5.5 12.657088,6.0628369 11.859375,6.8613281 11.061662,7.6598194 10.5,8.7319796 10.5,9.9199219 v 0.00195 l 0.169922,46.1621091 c 0.0012,1.186757 0.564341,2.257235 1.361328,3.054688 C 12.829121,59.93701 13.900473,60.5 15.087891,60.5 h 33.99414 c 1.188027,0 2.260881,-0.562837 3.058594,-1.361328 C 52.938338,58.340181 53.5,57.26802 53.5,56.080078 v -29.0625 c 0,-0.854999 0.0142,-1.492302 -0.318359,-2.158203 C 52.849079,24.193474 52.353999,23.745624 51.5,22.890625 L 36.076172,7.4550781 36.019531,7.4121094 C 35.26819,6.8438401 34.107686,5.5 32,5.5 Z m 0,2 H 32 c 1.274361,0 1.741373,0.6756979 2.746094,1.453125 l 15.33789,15.351562 c 0.852631,0.853699 1.214226,1.260262 1.308594,1.449219 C 51.487016,25.943004 51.5,26.162579 51.5,27.017578 v 29.0625 c 0,0.522056 -0.291855,1.160524 -0.775391,1.644531 C 50.241074,58.208617 49.603002,58.5 49.082031,58.5 h -33.99414 c -0.519581,0 -1.158701,-0.29123 -1.642578,-0.775391 -0.483878,-0.48416 -0.775391,-1.122865 -0.775391,-1.644531 v -0.002 -0.002 L 12.5,9.9199219 c 0,-0.522056 0.291855,-1.1605238 0.775391,-1.6445313 C 13.758926,7.7913831 14.396998,7.5 14.917969,7.5 Z" />
</svg>
