<?xml version="1.0" encoding="UTF-8" standalone="no"?>
<svg
   height="64"
   width="64"
   version="1.1"
   id="svg9"
   sodipodi:docname="application-msoutlook.svg"
   inkscape:version="1.1.2 (0a00cf5339, 2022-02-04)"
   xmlns:inkscape="http://www.inkscape.org/namespaces/inkscape"
   xmlns:sodipodi="http://sodipodi.sourceforge.net/DTD/sodipodi-0.dtd"
   xmlns:xlink="http://www.w3.org/1999/xlink"
   xmlns="http://www.w3.org/2000/svg"
   xmlns:svg="http://www.w3.org/2000/svg">
  <defs
     id="defs13">
    <linearGradient
       inkscape:collect="always"
       id="linearGradient984">
      <stop
         style="stop-color:#198cfe;stop-opacity:1;"
         offset="0"
         id="stop980" />
      <stop
         style="stop-color:#15e9fe;stop-opacity:1"
         offset="1"
         id="stop982" />
    </linearGradient>
    <linearGradient
       inkscape:collect="always"
       xlink:href="#linearGradient984"
       id="linearGradient986"
       x1="-0.80067607"
       y1="5.9533308"
       x2="14.026353"
       y2="-2.0235827"
       gradientUnits="userSpaceOnUse" />
  </defs>
  <sodipodi:namedview
     id="namedview11"
     pagecolor="#ffffff"
     bordercolor="#666666"
     borderopacity="1.0"
     inkscape:pageshadow="2"
     inkscape:pageopacity="0.0"
     inkscape:pagecheckerboard="0"
     showgrid="false"
     inkscape:zoom="10.21875"
     inkscape:cx="31.95107"
     inkscape:cy="32"
     inkscape:window-width="1600"
     inkscape:window-height="836"
     inkscape:window-x="0"
     inkscape:window-y="0"
     inkscape:window-maximized="1"
     inkscape:current-layer="svg9" />
  <path
     style="color:#000000;fill:#198cfe;fill-opacity:0.2;stroke-width:2;-inkscape-stroke:none"
     d="m 11.67,56.08 c 0,1.71 1.71,3.42 3.417,3.42 h 33.996 c 1.709,0 3.417,-1.71 3.417,-3.42 V 27.017 c 0,-1.71 0,-1.71 -1.708,-3.42 L 35.417,8.21 C 34.51,7.524 33.708,6.5 32,6.5 H 14.917 C 13.208,6.5 11.5,8.21 11.5,9.92 Z"
     id="path6745" />
  <g
     transform="matrix(2.4429942,0,0,2.4429942,12.456047,18.456047)"
     id="g2522"
     style="fill:none;stroke:#198cfe;stroke-width:0.409334">
    <path
       id="path6"
       style="color:#000000;fill:url(#linearGradient986);stroke:none;-inkscape-stroke:none;fill-opacity:1"
       d="M 2,2.7949219 C 1.3361553,2.7949219 0.79492187,3.3361553 0.79492187,4 v 8 c 0,0.663845 0.54123343,1.205078 1.20507813,1.205078 h 12 c 0.663845,0 1.205078,-0.541233 1.205078,-1.205078 V 4 C 15.205078,3.3361553 14.663845,2.7949219 14,2.7949219 Z m 0,0.4101562 h 12 c 0.444154,0 0.794922,0.3507677 0.794922,0.7949219 v 8 c 0,0.444154 -0.350768,0.794922 -0.794922,0.794922 H 2 C 1.5558458,12.794922 1.2050781,12.444154 1.2050781,12 V 4 C 1.2050781,3.5558458 1.5558458,3.2050781 2,3.2050781 Z M 1.7949219,3.7949219 V 4 l 0.00195,8.205078 H 2.2929688 L 6.2128906,7.6308594 2.3769531,3.7949219 Z m 1.4179687,0 L 3.5625,4.1445312 8,8.5820313 12.787109,3.7949219 Z m 10.4101564,0 -0.06055,0.060547 -3.7734375,3.7753906 3.9199215,4.5742185 h 0.496094 V 3.7949219 Z M 2.2050781,4.2050781 h 0.00391 L 5.6542969,7.6523437 2.2050781,11.675781 Z m 1.9960938,0 H 11.798828 L 8,8.0039063 Z m 9.5898441,0 h 0.0039 V 11.675781 L 10.345703,7.6523437 Z M 6.6347656,8.0488281 6.4921875,8.2167969 3.0722656,12.205078 H 12.933594 L 9.3730469,8.0488281 8.0039063,9.4179688 Z M 6.6582031,8.6503906 8.0039063,9.9960938 9.3496094,8.6503906 12.042969,11.794922 H 3.9609375 Z M 1.0077478,-5.3033474 c -0.48629957,0 -0.92545493,0.2303881 -1.25198579,0.5572375 -0.32653086,0.3268495 -0.55643808,0.7657208 -0.55643808,1.2519857 v 7.982e-4 l 0.0695548,18.89571 c 4.912e-4,0.485779 0.23100382,0.923962 0.55723751,1.250387 0.32659553,0.326788 0.76513607,0.557238 1.25118636,0.557238 H 14.992252 c 0.486299,0 0.925455,-0.230388 1.251986,-0.557237 0.32653,-0.326849 0.556438,-0.765721 0.556438,-1.251986 V 3.5045237 c 0,-0.34998 0.0058,-0.6108496 -0.130316,-0.8834254 C 16.534232,2.3485226 16.331579,2.1652024 15.982008,1.8152225 L 9.6685146,-4.503068 9.6453295,-4.5206565 C 9.3377803,-4.7532683 8.8627468,-5.3033474 7.9999998,-5.3033474 Z m 0,0.8186675 h 6.992252 c 0.5216389,0 0.7128027,0.276586 1.1240689,0.5948131 l 6.2783163,6.2839126 c 0.349011,0.3494478 0.497024,0.5158678 0.535652,0.5932143 0.03866,0.077404 0.04397,0.1672836 0.04397,0.5172636 V 15.400786 c 0,0.213695 -0.119466,0.475042 -0.317394,0.673162 -0.197927,0.198121 -0.459111,0.317394 -0.672362,0.317394 H 1.0773026 c -0.21268205,0 -0.47429544,-0.11921 -0.67236263,-0.317394 -0.1980676,-0.198183 -0.31739371,-0.459626 -0.31739371,-0.673162 v -8.19e-4 -8.18e-4 L 0.01799145,-3.4941242 c 0,-0.2136951 0.1194661,-0.4750415 0.31739371,-0.6731622 0.1979272,-0.1981206 0.45911161,-0.3173935 0.67236264,-0.3173935 z" />
  </g>
</svg>
