<?xml version="1.0" encoding="UTF-8" standalone="no"?>
<svg
   height="64"
   width="64"
   version="1.1"
   id="svg9"
   sodipodi:docname="application-atom+xml.svg"
   inkscape:version="1.1.2 (0a00cf5339, 2022-02-04)"
   xmlns:inkscape="http://www.inkscape.org/namespaces/inkscape"
   xmlns:sodipodi="http://sodipodi.sourceforge.net/DTD/sodipodi-0.dtd"
   xmlns:xlink="http://www.w3.org/1999/xlink"
   xmlns="http://www.w3.org/2000/svg"
   xmlns:svg="http://www.w3.org/2000/svg">
  <defs
     id="defs13">
    <linearGradient
       inkscape:collect="always"
       id="linearGradient869">
      <stop
         style="stop-color:#ff6d00;stop-opacity:1;"
         offset="0"
         id="stop865" />
      <stop
         style="stop-color:#ffd500;stop-opacity:1"
         offset="1"
         id="stop867" />
    </linearGradient>
    <linearGradient
       inkscape:collect="always"
       xlink:href="#linearGradient869"
       id="linearGradient871"
       x1="10.5"
       y1="33"
       x2="43.8694"
       y2="13.875621"
       gradientUnits="userSpaceOnUse" />
  </defs>
  <sodipodi:namedview
     id="namedview11"
     pagecolor="#ffffff"
     bordercolor="#666666"
     borderopacity="1.0"
     inkscape:pageshadow="2"
     inkscape:pageopacity="0.0"
     inkscape:pagecheckerboard="0"
     showgrid="false"
     inkscape:zoom="5.109375"
     inkscape:cx="32"
     inkscape:cy="32"
     inkscape:window-width="1056"
     inkscape:window-height="545"
     inkscape:window-x="360"
     inkscape:window-y="104"
     inkscape:window-maximized="0"
     inkscape:current-layer="svg9" />
  <path
     style="color:#000000;fill:#ff6400;fill-opacity:0.2;stroke-width:2;-inkscape-stroke:none"
     d="m 11.67,56.08 c 0,1.71 1.71,3.42 3.417,3.42 h 33.996 c 1.709,0 3.417,-1.71 3.417,-3.42 V 27.017 c 0,-1.71 0,-1.71 -1.708,-3.42 L 35.417,8.21 C 34.51,7.524 33.708,6.5 32,6.5 H 14.917 C 13.208,6.5 11.5,8.21 11.5,9.92 Z"
     id="path5586" />
  <path
     id="path6"
     style="color:#000000;fill:url(#linearGradient871);-inkscape-stroke:none;fill-opacity:1"
     d="m 16.220703,21.708984 v 0.503907 h -0.492187 v 5.763671 h 0.5 c 14.261824,0 25.810546,11.548723 25.810546,25.810547 v 0.5 h 6.263672 v -0.666015 c 0,-1.050296 -0.06977,-2.076288 -0.167968,-3.087891 v -0.002 c 0.0039,0.03667 0.01421,-0.01596 0,-0.164063 l -0.002,-0.0059 v -0.0059 c -0.118918,-1.006634 -0.285469,-2.00738 -0.5,-2.998047 0.02907,0.145384 0.05016,0.08464 0,-0.166016 v -0.002 l -0.002,-0.002 C 47.00902,44.162509 45.942726,41.247349 44.47061,38.53298 44.46231,38.48176 44.49931,38.50073 44.45108,38.413839 39.958083,30.140519 32.042934,24.270751 22.82022,22.378683 h -0.002 -0.002 c -0.250731,-0.05017 -0.309536,-0.02911 -0.164062,0 -0.991254,-0.214496 -1.992832,-0.382749 -3,-0.501953 h -0.0059 -0.0059 c -0.146348,-0.01404 -0.196194,-0.004 -0.162109,0 h -0.0039 c -1.021692,-0.103916 -2.038504,-0.159967 -3.083984,-0.167969 h -0.002 z m 0.507813,1.019532 c 0.893064,0.0164 1.770552,0.05319 2.648437,0.142578 h 0.002 c 0.141052,0.01353 0.182829,0.0042 0.15625,0 0.978193,0.115774 1.949424,0.27776 2.91211,0.486328 h 0.0039 l 0.0039,0.002 c 0.25072,0.05017 0.311507,0.02912 0.166016,0 8.923684,1.831285 16.580809,7.50579 20.935547,15.505859 0.0097,0.04539 -0.02236,0.02759 0.01172,0.0957 l 0.0039,0.0078 0.0039,0.0078 c 1.434514,2.63731 2.471701,5.471387 3.076172,8.41211 -0.02856,-0.138918 -0.04952,-0.08361 0,0.164062 v 0.0039 0.0039 c 0.208059,0.959329 0.370849,1.927531 0.486328,2.902344 -0.0038,-0.03935 -0.01437,0.01616 0,0.166015 0.08565,0.881945 0.133612,1.766308 0.146484,2.658203 H 42.988281 C 42.717923,38.891813 31.123835,27.297606 16.728516,27.027344 Z m -0.507813,9.503906 v 0.5 h -0.5 v 5.763672 h 0.5 c 8.448756,0 15.287109,6.838353 15.287109,15.287109 v 0.5 h 6.261719 v -0.5 c 0,-11.895521 -9.653307,-21.550782 -21.548828,-21.550781 z m 0.5,1.050781 c 10.947717,0.26753 19.730641,9.052252 19.998047,20 H 32.457031 C 32.191557,44.700511 25.303352,37.81252 16.720703,37.546875 Z m 4.773438,9.474609 c -3.225731,-0.07293 -5.891781,2.533214 -5.892578,5.759766 -7.98e-4,3.226552 2.662905,5.833058 5.888671,5.761719 3.125985,-0.06913 5.635947,-2.633019 5.636719,-5.759766 7.73e-4,-3.126747 -2.506862,-5.691041 -5.632812,-5.761719 z m -0.02344,1 c 2.593554,0.05864 4.656891,2.167504 4.65625,4.761719 -6.41e-4,2.594216 -2.06462,4.702408 -4.658203,4.759766 -2.677559,0.05922 -4.867849,-2.083508 -4.867188,-4.761719 6.62e-4,-2.678211 2.191612,-4.820304 4.869141,-4.759766 z M 14.917969,5.5 C 13.729942,5.5 12.657088,6.0628369 11.859375,6.8613281 11.061662,7.6598194 10.5,8.7319796 10.5,9.9199219 v 0.00195 l 0.169922,46.1621091 c 0.0012,1.186757 0.564341,2.257235 1.361328,3.054688 C 12.829121,59.93701 13.900473,60.5 15.087891,60.5 h 33.99414 c 1.188027,0 2.260881,-0.562837 3.058594,-1.361328 C 52.938338,58.340181 53.5,57.26802 53.5,56.080078 v -29.0625 c 0,-0.854999 0.0142,-1.492302 -0.318359,-2.158203 C 52.849079,24.193474 52.353999,23.745624 51.5,22.890625 L 36.076172,7.4550781 36.019531,7.4121094 C 35.26819,6.8438401 34.107686,5.5 32,5.5 Z m 0,2 H 32 c 1.274361,0 1.741373,0.6756979 2.746094,1.453125 l 15.33789,15.351562 c 0.852631,0.853699 1.214226,1.260262 1.308594,1.449219 C 51.487016,25.943004 51.5,26.162579 51.5,27.017578 v 29.0625 c 0,0.522056 -0.291855,1.160524 -0.775391,1.644531 C 50.241074,58.208617 49.603002,58.5 49.082031,58.5 h -33.99414 c -0.519581,0 -1.158701,-0.29123 -1.642578,-0.775391 -0.483878,-0.48416 -0.775391,-1.122865 -0.775391,-1.644531 v -0.002 -0.002 L 12.5,9.9199219 c 0,-0.522056 0.291855,-1.1605238 0.775391,-1.6445313 C 13.758926,7.7913831 14.396998,7.5 14.917969,7.5 Z" />
</svg>
