<?xml version="1.0" encoding="UTF-8" standalone="no"?>
<svg
   height="64"
   width="64"
   version="1.1"
   id="svg9"
   sodipodi:docname="application-x-kexiproject-shortcut.svg"
   inkscape:version="1.1.2 (0a00cf5339, 2022-02-04)"
   xmlns:inkscape="http://www.inkscape.org/namespaces/inkscape"
   xmlns:sodipodi="http://sodipodi.sourceforge.net/DTD/sodipodi-0.dtd"
   xmlns:xlink="http://www.w3.org/1999/xlink"
   xmlns="http://www.w3.org/2000/svg"
   xmlns:svg="http://www.w3.org/2000/svg">
  <defs
     id="defs13">
    <linearGradient
       inkscape:collect="always"
       id="linearGradient846">
      <stop
         style="stop-color:#ff19c5;stop-opacity:1;"
         offset="0"
         id="stop842" />
      <stop
         style="stop-color:#ff1948;stop-opacity:1"
         offset="1"
         id="stop844" />
    </linearGradient>
    <linearGradient
       inkscape:collect="always"
       xlink:href="#linearGradient846"
       id="linearGradient864"
       x1="10.5"
       y1="33"
       x2="42.620941"
       y2="9.408989"
       gradientUnits="userSpaceOnUse" />
  </defs>
  <sodipodi:namedview
     id="namedview11"
     pagecolor="#ffffff"
     bordercolor="#666666"
     borderopacity="1.0"
     inkscape:pageshadow="2"
     inkscape:pageopacity="0.0"
     inkscape:pagecheckerboard="0"
     showgrid="false"
     inkscape:zoom="10.21875"
     inkscape:cx="31.95107"
     inkscape:cy="32"
     inkscape:window-width="1600"
     inkscape:window-height="836"
     inkscape:window-x="0"
     inkscape:window-y="0"
     inkscape:window-maximized="1"
     inkscape:current-layer="svg9" />
  <path
     style="color:#000000;fill:#ff19c5;fill-opacity:0.2;stroke-width:2;-inkscape-stroke:none"
     d="m 11.67,56.08 c 0,1.71 1.71,3.42 3.417,3.42 h 33.996 c 1.709,0 3.417,-1.71 3.417,-3.42 V 27.017 c 0,-1.71 0,-1.71 -1.708,-3.42 L 35.417,8.21 C 34.51,7.524 33.708,6.5 32,6.5 H 14.917 C 13.208,6.5 11.5,8.21 11.5,9.92 Z"
     id="path7889" />
  <path
     id="path6"
     style="color:#000000;fill:url(#linearGradient864);-inkscape-stroke:none;fill-opacity:1"
     d="m 32,22.259766 c -4.253488,0 -8.103287,0.570236 -10.933594,1.513671 -1.415153,0.471718 -2.577223,1.034684 -3.417969,1.697266 -0.840745,0.662582 -1.388672,1.465067 -1.388671,2.369141 V 38 38.002 c 0.0024,0.79954 0.440441,1.526716 1.125,2.138672 0.684559,0.611956 1.631002,1.140256 2.796875,1.599609 2.224943,0.876628 5.288155,1.470938 8.779296,1.707032 v 4.21289 h -4.080078 v -2.541015 h -8.621093 v 8.621093 h 8.621093 v -2.541015 h 14.238282 v 2.541015 h 8.621093 v -8.621093 h -8.621093 v 2.541015 h -4.080079 v -4.210937 c 3.492546,-0.236189 6.556111,-0.829882 8.78125,-1.707032 1.165955,-0.459619 2.11461,-0.987266 2.798829,-1.599609 C 47.303359,39.530235 47.739002,38.799848 47.740234,38 V 37.5 H 44.199219 V 38 c 0,0.0065 9.55e-4,0.04837 -0.107422,0.154297 -0.108377,0.105925 -0.314004,0.245916 -0.603516,0.382812 -0.579023,0.273794 -1.480313,0.5445 -2.605469,0.769532 C 38.632501,39.756703 35.48002,40.039063 32,40.039062 c -3.48002,0 -6.632501,-0.282359 -8.882813,-0.732421 C 21.992032,39.081609 21.090742,38.810903 20.511719,38.537109 20.222207,38.400213 20.01658,38.260222 19.908203,38.154297 19.799826,38.048372 19.800781,38.006465 19.800781,38 V 31.308594 C 22.777271,32.622326 27.164535,33.418032 32,33.419922 h 0.5 V 29.880859 H 32 c -3.48002,0 -6.632501,-0.284312 -8.882813,-0.734375 -1.125155,-0.225031 -2.026445,-0.495738 -2.605468,-0.769531 -0.289512,-0.136896 -0.495139,-0.276888 -0.603516,-0.382812 -0.108377,-0.105925 -0.107422,-0.147833 -0.107422,-0.154297 0,-0.0065 -9.55e-4,-0.04837 0.107422,-0.154297 0.108377,-0.105925 0.314004,-0.245916 0.603516,-0.382813 0.579023,-0.273793 1.480313,-0.5445 2.605468,-0.769531 C 25.367499,26.083141 28.51998,25.800781 32,25.800781 h 0.5 v -3.541015 z m 2.039062,0 v 0.5 8.121093 h 3.541016 v -2.541015 h 0.769531 c 1.842409,0 3.310547,1.468137 3.310547,3.310547 0,1.842408 -1.468138,3.310547 -3.310547,3.310546 H 34.039062 V 38.5 h 4.310547 c 3.786285,0 6.84961,-3.063325 6.84961,-6.849609 0,-2.540921 -1.442158,-4.667055 -3.494141,-5.84961 h 0.955078 v -3.541015 z m 1,1 h 6.621094 v 1.541015 h -3.310547 v 1 c 3.249583,0 5.84961,2.600026 5.84961,5.84961 0,3.249582 -2.600027,5.849609 -5.84961,5.849609 h -3.310547 v -1.539063 h 3.310547 c 2.379111,0 4.310547,-1.931435 4.310547,-4.310546 0,-2.379112 -1.931436,-4.310547 -4.310547,-4.310547 h -1.769531 v 2.541015 H 35.039062 Z M 31.5,23.292969 v 1.548828 c -3.302984,0.02932 -6.361112,0.267535 -8.578125,0.710937 -1.173115,0.234623 -2.131592,0.511728 -2.837891,0.845703 -0.353149,0.166988 -0.645022,0.347492 -0.875,0.572266 -0.229977,0.224774 -0.408203,0.524901 -0.408203,0.869141 0,0.344239 0.178226,0.644366 0.408203,0.86914 0.229978,0.224774 0.521851,0.405278 0.875,0.572266 0.706299,0.333976 1.664776,0.61108 2.837891,0.845703 2.217016,0.443403 5.275137,0.683574 8.578125,0.712891 v 1.537109 c -4.85593,-0.06015 -9.382032,-0.874747 -11.974609,-2.183594 l -0.72461,-0.367187 V 38 c 0,0.344239 0.178226,0.644367 0.408203,0.869141 0.229978,0.224774 0.521851,0.405277 0.875,0.572265 0.706299,0.333976 1.664776,0.61108 2.837891,0.845703 2.346229,0.469246 5.544061,0.751953 9.078125,0.751953 3.534064,10e-7 6.731896,-0.282707 9.078125,-0.751953 1.173115,-0.234623 2.131592,-0.511727 2.837891,-0.845703 0.353149,-0.166988 0.645022,-0.347491 0.875,-0.572265 0.09772,-0.09551 0.104428,-0.248745 0.173828,-0.369141 h 1.492187 c -0.115261,0.29382 -0.15153,0.579377 -0.505859,0.896484 -0.552131,0.494131 -1.405673,0.985402 -2.498047,1.416016 -2.184748,0.861228 -5.317537,1.491131 -8.941406,1.695312 l -0.472657,0.02539 v 6.126953 h 6.080079 V 46.11914 h 6.621093 v 6.621093 H 40.119141 V 50.199219 H 23.880859 v 2.541015 h -6.621093 v -6.621093 h 6.621093 v 2.541015 h 6.080078 V 42.53125 L 29.488281,42.50391 C 25.865815,42.299804 22.73352,41.671315 20.548828,40.810547 19.456482,40.380163 18.603363,39.890461 18.050781,39.396484 17.498784,38.903031 17.261596,38.438532 17.259766,38 V 27.839844 c -10e-7,-0.498744 0.30617,-1.031029 1.007812,-1.583985 0.701642,-0.552955 1.77051,-1.085612 3.113281,-1.533203 C 23.951902,23.865642 27.547466,23.338846 31.5,23.292969 Z M 18.800781,47.660156 v 0.5 3.039063 h 3.539063 v -3.539063 z m 22.859375,0 v 0.5 3.039063 h 3.539063 v -3.539063 z m -21.859375,1 h 1.539063 v 1.539063 h -1.539063 z m 22.859375,0 h 1.539063 v 1.539063 H 42.660156 Z M 14.917969,5.5 C 13.729942,5.5 12.657088,6.0628369 11.859375,6.8613281 11.061662,7.6598194 10.5,8.7319796 10.5,9.9199219 v 0.00195 l 0.169922,46.1621091 c 0.0012,1.186757 0.564341,2.257235 1.361328,3.054688 C 12.829121,59.93701 13.900473,60.5 15.087891,60.5 h 33.99414 c 1.188027,0 2.260881,-0.562837 3.058594,-1.361328 C 52.938338,58.340181 53.5,57.26802 53.5,56.080078 v -29.0625 c 0,-0.854999 0.0142,-1.492302 -0.318359,-2.158203 C 52.849079,24.193474 52.353999,23.745624 51.5,22.890625 L 36.076172,7.4550781 36.019531,7.4121094 C 35.26819,6.8438401 34.107686,5.5 32,5.5 Z m 0,2 H 32 c 1.274361,0 1.741373,0.6756979 2.746094,1.453125 l 15.33789,15.351562 c 0.852631,0.853699 1.214226,1.260262 1.308594,1.449219 C 51.487016,25.943004 51.5,26.162579 51.5,27.017578 v 29.0625 c 0,0.522056 -0.291855,1.160524 -0.775391,1.644531 C 50.241074,58.208617 49.603002,58.5 49.082031,58.5 h -33.99414 c -0.519581,0 -1.158701,-0.29123 -1.642578,-0.775391 -0.483878,-0.48416 -0.775391,-1.122865 -0.775391,-1.644531 v -0.002 -0.002 L 12.5,9.9199219 c 0,-0.522056 0.291855,-1.1605238 0.775391,-1.6445313 C 13.758926,7.7913831 14.396998,7.5 14.917969,7.5 Z" />
</svg>
