<?xml version="1.0" encoding="UTF-8" standalone="no"?>
<svg
   height="64"
   width="64"
   version="1.1"
   id="svg9"
   sodipodi:docname="application-x-perl.svg"
   inkscape:version="1.1.2 (0a00cf5339, 2022-02-04)"
   xmlns:inkscape="http://www.inkscape.org/namespaces/inkscape"
   xmlns:sodipodi="http://sodipodi.sourceforge.net/DTD/sodipodi-0.dtd"
   xmlns:xlink="http://www.w3.org/1999/xlink"
   xmlns="http://www.w3.org/2000/svg"
   xmlns:svg="http://www.w3.org/2000/svg">
  <defs
     id="defs13">
    <linearGradient
       inkscape:collect="always"
       id="linearGradient847">
      <stop
         style="stop-color:#19c5ff;stop-opacity:1;"
         offset="0"
         id="stop843" />
      <stop
         style="stop-color:#19ff3f;stop-opacity:1"
         offset="1"
         id="stop845" />
    </linearGradient>
    <linearGradient
       inkscape:collect="always"
       xlink:href="#linearGradient847"
       id="linearGradient849"
       x1="0.69303526"
       y1="6.3021553"
       x2="12.319658"
       y2="-0.94107467"
       gradientUnits="userSpaceOnUse" />
  </defs>
  <sodipodi:namedview
     id="namedview11"
     pagecolor="#ffffff"
     bordercolor="#666666"
     borderopacity="1.0"
     inkscape:pageshadow="2"
     inkscape:pageopacity="0.0"
     inkscape:pagecheckerboard="0"
     showgrid="false"
     inkscape:zoom="5.109375"
     inkscape:cx="32"
     inkscape:cy="32"
     inkscape:window-width="1056"
     inkscape:window-height="545"
     inkscape:window-x="239"
     inkscape:window-y="96"
     inkscape:window-maximized="0"
     inkscape:current-layer="svg9" />
  <path
     style="color:#000000;fill:#19c5ff;fill-opacity:0.2;stroke-width:2;-inkscape-stroke:none"
     d="m 11.67,56.08 c 0,1.71 1.71,3.42 3.417,3.42 h 33.996 c 1.709,0 3.417,-1.71 3.417,-3.42 V 27.017 c 0,-1.71 0,-1.71 -1.708,-3.42 L 35.417,8.21 C 34.51,7.524 33.708,6.5 32,6.5 H 14.917 C 13.208,6.5 11.5,8.21 11.5,9.92 Z"
     id="path6394" />
  <g
     transform="matrix(2.9424901,0,0,2.9424901,8.4607506,14.45597)"
     id="g2522"
     style="fill:none;stroke:#19c5ff;stroke-width:0.339848">
    <path
       id="path6"
       style="color:#000000;fill:url(#linearGradient849);stroke:none;-inkscape-stroke:none;fill-opacity:1"
       d="M 10.005859,1.8339844 C 9.7845833,1.8362268 9.4696624,1.914854 9.1425781,2.0195313 8.8147864,2.1244349 8.4945682,2.2514849 8.2949219,2.3789063 8.1904014,2.4457617 8.1093153,2.5462655 8,2.6835938 7.8906847,2.820922 7.7715634,2.9881657 7.6640625,3.1582031 7.4738105,3.4591305 7.0810311,3.8557046 6.8632812,3.984375 6.5133326,4.1912175 6.1648931,4.6528883 5.9042969,5.1855469 5.8748496,5.245759 5.8572162,5.2617259 5.8300781,5.3125 5.8466028,5.2552785 5.8473342,5.2302338 5.8691406,5.1640625 6.1698586,4.2512447 6.0125812,3.1965442 5.4257812,2.6914063 5.1725785,2.4735341 4.9231617,2.3393708 4.6738281,2.3144531 4.4244946,2.2895354 4.181075,2.392381 4.0136719,2.59375 3.9920409,2.619828 3.9162759,2.673495 3.8222656,2.7089844 c -0.094011,0.03549 -0.2059001,0.058594 -0.296875,0.058594 -0.3390031,0 -0.6424404,0.1491448 -0.8359375,0.359375 -0.096749,0.1051152 -0.168153,0.2280047 -0.1914062,0.3652344 -0.023253,0.1372297 0.011264,0.2898925 0.109375,0.4082031 l 0.00391,0.00391 0.00391,0.00391 c 0.161978,0.1734651 0.3841185,0.2779878 0.6210937,0.2910156 h 0.00586 0.00391 c 0.041206,0 0.056615,0.00325 0.074219,0.00586 -0.00729,-0.00261 -2.034e-4,0.053468 -0.041016,0.2089844 -0.070256,0.2674265 -0.1516963,0.8573063 -0.1933594,1.3613281 -0.033785,0.4079361 -0.044753,0.6644188 0.013672,0.9023438 0.058425,0.2379249 0.1844991,0.4310013 0.3847656,0.6953125 0.4069095,0.5365895 0.7931336,0.911764 1.171875,1.1210937 0.3787414,0.2093298 0.7698073,0.2431831 1.1035156,0.064453 0.00739,-0.00396 0.00764,-0.00299 0.013672,-0.00586 -0.00336,2.42e-4 -0.011366,-0.014439 0.00586,0.048828 0.05109,0.1876461 0.1027602,0.6400332 0.1796875,1.46875 0.096072,1.035385 0.1128031,1.703249 0.029297,2.169922 -0.083506,0.466673 -0.2537784,0.735607 -0.5761718,1.03711 -0.1994886,0.18683 -0.3123809,0.273664 -0.3691407,0.43164 -0.01419,0.0395 -0.023032,0.09112 -0.00977,0.144532 0.013266,0.05341 0.046944,0.0977 0.080078,0.125 0.065709,0.05414 0.1244877,0.06861 0.1914063,0.08594 5.693e-4,1.48e-4 0.00138,-1.48e-4 0.00195,0 0.2182505,0.05693 0.3892164,0.100572 0.5449219,0.109375 0.1562421,0.0088 0.3145739,-0.0276 0.4257812,-0.136719 0.2224147,-0.218236 0.258591,-0.568178 0.359375,-1.208984 0.2019648,-1.281776 0.3139316,-1.98675 0.3964844,-2.402344 0.082553,-0.415594 0.1271953,-0.5263695 0.2050781,-0.6718752 0.113481,-0.211433 0.1933594,-0.4983285 0.1933594,-0.7246094 0,-0.086461 0.016677,-0.1126286 0.027344,-0.1230469 0.010666,-0.010418 0.041205,-0.029297 0.1308593,-0.029297 0.072107,0 0.093418,0.00872 0.09375,0.00586 0.00188,0.00854 0.00316,0.013039 0.00391,0.037109 0.00457,0.1469309 -0.065861,0.542332 -0.2167969,1.2910165 -0.049686,0.244808 -0.065756,0.446189 0.029297,0.642578 0.095053,0.196389 0.26722,0.360779 0.5605469,0.628906 0.3658606,0.334515 0.5362814,0.572964 0.5585937,0.697266 0.011156,0.06215 0.00276,0.09915 -0.039063,0.160156 -0.04182,0.06101 -0.1260588,0.139623 -0.2558593,0.224609 -0.1626191,0.107027 -0.2677045,0.167476 -0.3320313,0.302735 -0.032163,0.06763 -0.0301,0.177103 0.011719,0.24414 0.041818,0.06704 0.093764,0.09853 0.1484375,0.128906 0.2204544,0.123013 0.483381,0.111209 0.7050781,0.03711 0.1108485,-0.03705 0.2121488,-0.09244 0.2949219,-0.169922 0.049373,-0.04622 0.062761,-0.121073 0.089844,-0.1875 0.027416,0.02688 0.049274,0.04859 0.085937,0.08789 0.099792,0.107121 0.2083904,0.192432 0.3144531,0.25 0.053031,0.02878 0.1055669,0.05105 0.1640625,0.0625 0.058496,0.01145 0.1303896,0.0156 0.2031258,-0.0293 0.194267,-0.120015 0.240048,-0.350546 0.21875,-0.558594 -0.0213,-0.208048 -0.109901,-0.422649 -0.285157,-0.568359 -0.074194,-0.06179 -0.1175092,-0.113514 -0.1367188,-0.152344 -0.01921,-0.03883 -0.023361,-0.06803 -0.011719,-0.128906 0.023284,-0.121755 0.1495859,-0.353126 0.4101558,-0.712891 0.382683,-0.529395 0.5,-0.887094 0.5,-1.5332036 0,-0.3753304 0.09163,-0.8112919 0.207031,-1.1171875 0.05608,-0.1486655 0.120426,-0.2628308 0.167969,-0.3222657 0.0127,0.027914 0.02482,0.056383 0.03906,0.097656 0.03938,0.114145 0.07846,0.2670426 0.105468,0.4257812 0.06016,0.3598642 0.18699,0.7540156 0.351563,0.9707032 0.01418,0.018727 0.08519,0.2166673 0.121094,0.4707024 0.0359,0.254036 0.0589,0.576372 0.06641,0.914063 0.01502,0.675381 -0.03594,1.421395 -0.140625,1.787109 -0.08427,0.294135 -0.0964,0.543686 0.0078,0.740235 0.05211,0.09827 0.141431,0.178887 0.25,0.21289 0.10857,0.034 0.225677,0.02576 0.34375,-0.01172 h 0.002 v -0.002 c 0.08075,-0.02619 0.104583,-0.07373 0.123046,-0.107421 0.01846,-0.03369 0.03067,-0.06621 0.04102,-0.101563 0.0207,-0.0707 0.03585,-0.156418 0.05078,-0.261719 0.02985,-0.210601 0.0526,-0.495958 0.07031,-0.839843 0.03544,-0.687772 0.04609,-1.601828 0.02148,-2.5429689 -0.0069,-0.2701671 0.0085,-0.4852135 0.0098,-0.7460938 0.03139,0.064154 0.06357,0.1322982 0.144531,0.1621094 0.100558,0.037025 0.203173,-0.0062 0.263672,-0.054687 0.120998,-0.096981 0.194185,-0.2388994 0.271484,-0.421875 0.154599,-0.3659512 0.281424,-0.888715 0.285157,-1.3691407 0.0061,-0.6715205 -0.103098,-0.9966067 -0.498047,-1.4941406 h -0.002 c -0.124566,-0.155948 -0.238281,-0.317761 -0.31836,-0.4492187 -0.04004,-0.065729 -0.07024,-0.1236397 -0.08984,-0.1660157 -0.0196,-0.042376 -0.02148,-0.081109 -0.02148,-0.044922 0,-0.094435 -0.02639,-0.1324723 -0.05664,-0.203125 C 12.491237,5.0914567 12.450613,5.0087768 12.400391,4.9140625 12.299946,4.7246339 12.164161,4.4931262 12.013672,4.2597656 11.869708,4.0365248 11.725586,3.7806361 11.613281,3.5546875 11.500977,3.3287389 11.41981,3.1229038 11.400391,3.0351563 11.332411,2.7241342 11.123749,2.435912 10.869141,2.2128906 10.615015,1.9902923 10.313289,1.8281919 10.007813,1.8339844 Z m 0.0039,0.3398437 h 0.002 c 0.16893,-0.00356 0.421921,0.1082406 0.632812,0.2929688 0.210892,0.1847282 0.378808,0.4346476 0.423828,0.640625 v 0.00195 c 0.03458,0.1562522 0.122039,0.3598553 0.240235,0.5976563 0.118195,0.2378009 0.265932,0.5005693 0.417969,0.7363281 0.14551,0.2256389 0.278491,0.4505852 0.373046,0.6289062 0.04728,0.089161 0.085,0.1676685 0.109375,0.2246094 0.02438,0.056941 0.0293,0.113794 0.0293,0.068359 0,0.085187 0.0249,0.1273447 0.05274,0.1875 0.02783,0.060155 0.06466,0.1258227 0.109375,0.1992187 0.08942,0.1467921 0.210315,0.3192765 0.34375,0.4863281 h -0.002 c 0.375049,0.4724653 0.431648,0.6348656 0.425781,1.2773438 v 0.00195 c -0.0033,0.4205735 -0.123662,0.9207331 -0.257813,1.2382813 -0.02593,0.061381 -0.0403,0.066344 -0.06641,0.1113281 0.0047,-0.090694 -0.0066,-0.1768601 0.02539,-0.2363281 0.07377,-0.1379615 0.08605,-0.2982907 0.09375,-0.4902344 0.0077,-0.1919437 -2.29e-4,-0.407544 -0.02149,-0.6074219 -0.02126,-0.1998779 -0.05319,-0.3811933 -0.09961,-0.5195312 -0.02321,-0.069169 -0.04268,-0.1282988 -0.103516,-0.1894532 -0.03042,-0.030577 -0.08231,-0.064735 -0.15039,-0.066406 -0.06808,-0.00167 -0.126984,0.033233 -0.160157,0.066406 -0.067,0.067001 -0.0737,0.1180711 -0.0918,0.1835938 -0.01809,0.065523 -0.03304,0.1423934 -0.04687,0.234375 -0.02767,0.1839633 -0.04927,0.4242716 -0.06641,0.7050781 -0.03426,0.5616131 -0.04792,1.2848724 -0.0293,2.0117188 0.02439,0.9328572 0.01528,1.8398972 -0.01953,2.5156242 -0.01741,0.337864 -0.04106,0.617961 -0.06836,0.810547 -0.01278,0.09017 -0.02713,0.155684 -0.03906,0.199219 -0.03036,0.0032 -0.06974,0.01228 -0.08398,0.0078 -0.02384,-0.0075 -0.03571,-0.01673 -0.05273,-0.04883 -0.03404,-0.0642 -0.0512,-0.239463 0.01953,-0.486328 0.128317,-0.448285 0.169777,-1.192554 0.154297,-1.888672 -0.0077,-0.348059 -0.03165,-0.681552 -0.07031,-0.955078 C 11.994545,9.8397551 11.962974,9.6386004 11.847656,9.4863281 11.772229,9.387016 11.61239,8.9741977 11.560547,8.6640625 h -0.002 c -0.02999,-0.176261 -0.07202,-0.343864 -0.119141,-0.4804687 -0.02356,-0.068302 -0.04668,-0.1292315 -0.07422,-0.1816407 -0.02754,-0.052409 -0.0469,-0.099783 -0.123046,-0.1464844 -0.07375,-0.045566 -0.179065,-0.047713 -0.251954,-0.017578 -0.07289,0.030135 -0.122535,0.07818 -0.167968,0.1328125 -0.09087,0.1092644 -0.162715,0.2552607 -0.228516,0.4296875 -0.131603,0.3488537 -0.228516,0.8086593 -0.228516,1.2363282 0,0.6118901 -0.07223,0.8313801 -0.4355465,1.3339841 -0.2674292,0.369235 -0.4232841,0.609911 -0.46875,0.847656 -0.022733,0.118873 -0.00981,0.241019 0.041016,0.34375 0.050822,0.102732 0.12935,0.18401 0.2226563,0.261719 0.085744,0.07129 0.1528143,0.212845 0.1660156,0.341797 0.01166,0.1139 -0.022206,0.178514 -0.050781,0.208984 -0.012018,-0.0046 -0.018344,-0.0065 -0.035156,-0.01563 C 9.7412504,12.924552 9.6553325,12.858269 9.578125,12.775391 9.5136795,12.706305 9.4594079,12.6527 9.4101563,12.609375 9.3609046,12.56605 9.3223217,12.530321 9.25,12.507813 c -0.036161,-0.01126 -0.088959,-0.01664 -0.1425781,0.0039 -0.053619,0.02054 -0.092782,0.06367 -0.1113281,0.09961 -0.037092,0.07188 -0.033203,0.123558 -0.033203,0.181641 0,0.01381 -0.0074,0.03311 -0.042969,0.06641 -0.035571,0.0333 -0.096396,0.07113 -0.1699219,0.0957 -0.1237628,0.04137 -0.2597283,0.0231 -0.3632812,-0.0098 0.033534,-0.03032 0.036642,-0.0395 0.125,-0.09766 0.1496991,-0.09801 0.2676795,-0.194931 0.3496093,-0.314453 0.08193,-0.119522 0.1176407,-0.268135 0.091797,-0.412109 C 8.9014374,11.833145 8.6721542,11.580906 8.2910156,11.232422 8.0023431,10.968549 7.8590876,10.813439 7.8066406,10.705078 7.7541936,10.596717 7.7583739,10.507488 7.8046875,10.279297 7.955751,9.529982 8.0350255,9.157225 8.0273438,8.9101563 8.0254233,8.8483891 8.0192979,8.7906924 7.9960937,8.734375 7.9728896,8.6780576 7.9269547,8.6234262 7.875,8.5917969 7.7710907,8.5285382 7.6802584,8.5371094 7.5898437,8.5371094 c -0.1383456,0 -0.2723071,0.032372 -0.3691406,0.1269531 -0.096833,0.094582 -0.1289062,0.2276953 -0.1289062,0.3652344 0,0.1277187 -0.075825,0.4218864 -0.1523438,0.5644531 -0.089117,0.166494 -0.1530842,0.3367196 -0.2382812,0.765625 -0.085197,0.428905 -0.1983558,1.133794 -0.4003907,2.416016 -0.1002157,0.637192 -0.1913836,0.950517 -0.2617187,1.019531 -0.035168,0.03451 -0.063867,0.04495 -0.1679688,0.03906 -0.094341,-0.0053 -0.2494289,-0.04038 -0.4355468,-0.08789 0.034413,-0.04018 0.065384,-0.08621 0.2089843,-0.220703 0.3566059,-0.333498 0.5832409,-0.696534 0.6777344,-1.22461 0.094494,-0.528075 0.071538,-1.217105 -0.025391,-2.261718 C 6.2198025,9.208781 6.1770821,8.7675723 6.1074219,8.5117188 6.0725918,8.383792 6.03174,8.2712768 5.90625,8.2167969 5.843505,8.1895569 5.7760396,8.1945126 5.7265625,8.2070313 5.6770854,8.2195499 5.6374368,8.2375113 5.5996094,8.2578125 5.3713183,8.3800823 5.1318204,8.3694355 4.8203125,8.1972656 4.5088046,8.0250957 4.1459491,7.6823782 3.7558594,7.1679687 3.5621263,6.9122804 3.4715125,6.7679809 3.4296875,6.5976562 3.3878625,6.4273316 3.3925659,6.2037975 3.4257813,5.8027344 3.4661181,5.3147572 3.5536781,4.7065262 3.6074219,4.5019531 3.6566899,4.314216 3.7026097,4.1889488 3.6328125,4.0371094 3.5979139,3.9611897 3.5197486,3.9041798 3.4511719,3.8828125 3.3825951,3.8614452 3.3190584,3.859375 3.2460938,3.859375 h 0.00977 C 3.1078432,3.8512377 2.969119,3.7852064 2.8671875,3.6777344 2.8335605,3.634868 2.8252662,3.6002788 2.8339844,3.5488281 c 0.00912,-0.053833 0.043217,-0.1237715 0.1054687,-0.1914062 0.1245027,-0.1352694 0.3509412,-0.25 0.5859375,-0.25 0.1420249,0 0.2874798,-0.030818 0.4179688,-0.080078 C 4.0738483,2.9780839 4.1900216,2.9134685 4.2753906,2.810547 V 2.8125 C 4.3839872,2.6818693 4.4902558,2.6394646 4.6386719,2.6542969 4.7870879,2.6691292 4.9852814,2.7600913 5.2050781,2.9492188 5.6242772,3.31008 5.8082033,4.2594132 5.5449219,5.0585937 5.4630879,5.3069175 5.4160126,5.4996106 5.3964844,5.6484375 c -0.00976,0.074414 -0.01477,0.136585 -0.00586,0.1992187 0.00891,0.062634 0.033598,0.155076 0.1367187,0.1992188 C 5.6304636,6.091018 5.7168995,6.044165 5.7675775,6.005859 5.8182555,5.967554 5.8594225,5.920992 5.9042963,5.8613277 5.9940439,5.7419985 6.0942963,5.568492 6.2089844,5.3339844 6.4483877,4.844644 6.8050586,4.4145009 7.0371094,4.2773437 7.347359,4.0940144 7.7254243,3.6969157 7.9511719,3.3398438 8.0516708,3.1808815 8.1671437,3.0207028 8.2675781,2.8945313 8.3680126,2.7683597 8.4720362,2.6701601 8.4785156,2.6660156 8.618869,2.5764372 8.9348861,2.4433462 9.2460938,2.34375 9.5573014,2.2441538 9.8831159,2.1749199 10.009766,2.1738281 Z m 2.589843,5.3789063 c 8.12e-4,0.00722 0.0031,0.010313 0.0039,0.017578 0.01962,0.1844967 0.02832,0.3862409 0.02148,0.5566406 -0.0068,0.1703998 -0.04191,0.3162116 -0.05664,0.34375 h 0.002 c -0.03604,0.066985 -10e-4,0.1448426 -0.01953,0.21875 0.0062,-0.235922 -0.0024,-0.5209613 0.0098,-0.7207031 0.01031,-0.1689254 0.02522,-0.2840658 0.03906,-0.4160156 z M 9.40625,8.390625 C 9.358624,8.407458 9.329952,8.43437 9.306641,8.458984 9.260018,8.508212 9.231453,8.5606087 9.1992192,8.6269527 9.1347522,8.7596408 9.0655242,8.9463248 8.9804692,9.1992184 8.8725284,9.5211633 8.640999,9.9747185 8.5078129,10.144531 c -0.1909258,0.244962 -0.3151146,0.432067 -0.3046875,0.65625 0.010427,0.224184 0.1507788,0.398605 0.3632813,0.625 0.1131361,0.120287 0.2074292,0.212814 0.3007812,0.28125 0.093352,0.06844 0.2007039,0.120205 0.3222656,0.101563 0.1215618,-0.01864 0.2100474,-0.09857 0.28125,-0.191406 0.071203,-0.09284 0.1372912,-0.209628 0.2148438,-0.359375 C 9.7940065,11.047337 9.8612263,10.835905 9.884766,10.568359 9.908306,10.300814 9.891506,9.9769698 9.847657,9.5097652 9.8187345,9.2001769 9.7930281,8.9649041 9.7617188,8.7929688 9.7460641,8.7070011 9.7294256,8.6371936 9.7070313,8.5761719 9.6846369,8.5151501 9.6655738,8.4486339 9.5703125,8.4003906 9.5226819,8.376269 9.4538757,8.373792 9.40625,8.390625 Z m 0.033203,0.5566406 c 0.023652,0.1492195 0.045634,0.3295823 0.070312,0.59375 0.043152,0.4597944 0.055366,0.7683424 0.035156,0.9980474 -0.02021,0.229704 -0.068569,0.380975 -0.1621094,0.5625 -0.074447,0.143751 -0.1354996,0.248432 -0.1816406,0.308593 -0.046141,0.06016 -0.066687,0.06314 -0.0625,0.0625 0.00419,-6.42e-4 -0.013524,0.004 -0.072266,-0.03906 C 9.0076646,11.39053 8.9228168,11.308572 8.8144531,11.193359 8.613956,10.979755 8.5465416,10.861972 8.5429688,10.785156 8.5393959,10.70834 8.5953168,10.584554 8.7753906,10.353516 8.9622042,10.115328 9.1806753,9.6726481 9.3027344,9.3085938 9.3593016,9.1404029 9.397808,9.0507148 9.439453,8.9472656 Z M 2.1944741,-3.0436704 c -0.4037488,0 -0.7683563,0.1912791 -1.0394577,0.4626449 -0.27110131,0.2713659 -0.46198114,0.6357376 -0.46198114,1.0394577 v 6.627e-4 l 0.0577477,15.6881101 c 4.0782e-4,0.403317 0.19179028,0.767117 0.46264484,1.03813 0.2711551,0.271315 0.6352521,0.462646 1.038794,0.462646 H 13.80507 c 0.403748,0 0.768356,-0.191279 1.039457,-0.462645 0.271102,-0.271365 0.461981,-0.635737 0.461981,-1.039457 V 4.26904 c 0,-0.2905699 0.0048,-0.5071561 -0.108193,-0.7334614 C 15.085294,3.3092733 14.917042,3.1570723 14.626812,2.8665024 l -5.2417604,-5.245743 -0.019249,-0.014603 C 9.1104604,-2.5869687 8.7160651,-3.0436704 7.9997718,-3.0436704 Z m 0,0.6796964 h 5.8052977 c 0.4330893,0 0.5918025,0.2296348 0.9332552,0.493842 l 5.212554,5.2172009 c 0.289766,0.290128 0.412653,0.4282978 0.444724,0.4925145 0.03209,0.064265 0.03651,0.1388867 0.03651,0.4294566 v 9.876839 c 0,0.177419 -0.09919,0.394402 -0.263515,0.558891 -0.164329,0.164489 -0.381176,0.263515 -0.558227,0.263515 H 2.2522218 c -0.1765787,0 -0.3937824,-0.09897 -0.5582272,-0.263515 C 1.5295495,14.540229 1.4304794,14.323166 1.4304794,14.145879 v -6.8e-4 -6.8e-4 L 1.3727317,-1.5415678 c 0,-0.1774198 0.099186,-0.394402 0.2635152,-0.5588911 0.1643285,-0.164489 0.3811762,-0.2635151 0.5582272,-0.2635151 z" />
  </g>
</svg>
