<?xml version="1.0" encoding="UTF-8" standalone="no"?>
<svg
   height="64"
   width="64"
   version="1.1"
   id="svg13"
   sodipodi:docname="application-pgp-keys.svg"
   inkscape:version="1.1.2 (0a00cf5339, 2022-02-04)"
   xmlns:inkscape="http://www.inkscape.org/namespaces/inkscape"
   xmlns:sodipodi="http://sodipodi.sourceforge.net/DTD/sodipodi-0.dtd"
   xmlns:xlink="http://www.w3.org/1999/xlink"
   xmlns="http://www.w3.org/2000/svg"
   xmlns:svg="http://www.w3.org/2000/svg">
  <defs
     id="defs17">
    <linearGradient
       inkscape:collect="always"
       id="linearGradient847">
      <stop
         style="stop-color:#19fe8c;stop-opacity:1;"
         offset="0"
         id="stop843" />
      <stop
         style="stop-color:#15f9fe;stop-opacity:1"
         offset="1"
         id="stop845" />
    </linearGradient>
    <linearGradient
       inkscape:collect="always"
       xlink:href="#linearGradient847"
       id="linearGradient849"
       x1="10.5"
       y1="33"
       x2="42.674747"
       y2="12.769249"
       gradientUnits="userSpaceOnUse" />
  </defs>
  <sodipodi:namedview
     id="namedview15"
     pagecolor="#ffffff"
     bordercolor="#666666"
     borderopacity="1.0"
     inkscape:pageshadow="2"
     inkscape:pageopacity="0.0"
     inkscape:pagecheckerboard="0"
     showgrid="false"
     inkscape:zoom="10.21875"
     inkscape:cx="31.95107"
     inkscape:cy="32"
     inkscape:window-width="1600"
     inkscape:window-height="836"
     inkscape:window-x="0"
     inkscape:window-y="0"
     inkscape:window-maximized="1"
     inkscape:current-layer="svg13" />
  <path
     style="color:#000000;fill:#20cb76;fill-opacity:0.2;stroke-width:2;-inkscape-stroke:none"
     d="m 11.67,56.08 c 0,1.71 1.71,3.42 3.417,3.42 h 33.996 c 1.709,0 3.417,-1.71 3.417,-3.42 V 27.017 c 0,-1.71 0,-1.71 -1.708,-3.42 L 35.417,8.21 C 34.51,7.524 33.708,6.5 32,6.5 H 14.917 C 13.208,6.5 11.5,8.21 11.5,9.92 Z"
     id="path6403" />
  <path
     id="path6"
     style="color:#000000;fill:url(#linearGradient849);-inkscape-stroke:none;fill-opacity:1"
     d="m 37.644531,20.90625 v 0.0039 c -6.26801,0.0051 -11.360097,5.095678 -11.363281,11.365235 0,1.587821 0.363549,3.082845 0.951172,4.451171 l -1.785156,2.109375 -0.140625,1.78711 c -0.172402,0.0066 -0.364495,0.01452 -0.572266,0.02148 -0.503456,0.01687 -1.005859,0.03125 -1.005859,0.03125 l -0.152344,0.0059 -1.367188,0.988281 v 0.255859 c 0,0 0.0029,0.564242 0.0039,1.123047 5.18e-4,0.279403 3.86e-4,0.557999 0,0.763672 -1.94e-4,0.102836 -0.0014,0.186161 -0.002,0.242187 -2.52e-4,0.02615 2.34e-4,0.04489 0,0.05469 4.06e-4,-0.006 0.0079,-0.05922 0.0078,-0.05859 -3e-5,1.56e-4 0.01956,-0.0704 0.01953,-0.07031 -3.1e-5,8.8e-5 0.20511,-0.257832 0.205078,-0.257813 -3.1e-5,2e-5 0.685579,0.152393 0.685547,0.152344 -3.2e-5,-4.9e-5 0.06253,0.140744 0.0625,0.140625 l -0.982422,0.130859 v -0.484375 l -1.947265,0.0332 -1.201172,1.375 -0.01758,1.689454 c -0.182986,-0.0087 -0.23068,-0.0153 -0.476563,-0.01953 -0.258478,-0.0044 -0.524478,-0.0035 -0.755859,0.01172 -0.115691,0.0076 -0.222827,0.01855 -0.328125,0.03906 -0.105298,0.02051 -0.205422,0.0058 -0.390625,0.177734 l -0.158203,0.148437 v 0.0059 c -1.070183,0.991176 -1.892578,1.785156 -1.892578,1.785156 l -0.150391,0.146484 0.0059,6.009766 2.246094,-0.01367 h 0.0039 l -0.002,-0.511719 13.453125,-13.447265 c 0.803035,0.630709 1.65952,1.187211 2.595703,1.589844 1.362713,0.586882 2.856199,0.961646 4.455078,0.96289 6.371274,0.141396 11.625,-4.995785 11.625,-11.36914 0,-6.370559 -5.249691,-11.503892 -11.617187,-11.367188 -0.0041,8.9e-5 -0.0076,-0.002 -0.01172,-0.002 z m 0.01172,0.5 0.01172,0.5 c 5.824815,-0.131285 10.605469,4.542851 10.605468,10.369141 0,5.826289 -4.780653,10.500425 -10.605468,10.36914 h -0.0059 -0.0059 c -1.446096,0 -2.805003,-0.336766 -4.068359,-0.880859 -1.009327,-0.43409 -1.942064,-0.981861 -2.742188,-1.677735 l -0.353516,-0.304687 -14.279296,14.275391 -0.31836,0.002 -0.0039,-4.580078 c 0.107683,-0.104474 0.753603,-0.727997 1.816406,-1.708985 0.04033,-0.0064 0.09414,-0.01454 0.169922,-0.01953 0.181194,-0.01194 0.428567,-0.01395 0.671875,-0.0098 0.486616,0.0084 0.955078,0.03906 0.955078,0.03906 l 0.527344,0.03516 0.02539,-2.365234 0.666015,-0.761719 2.486328,-0.04297 v -0.466797 c 0.0013,-0.01875 0.0017,-0.0267 0.002,-0.03711 5.55e-4,-0.02082 -2.96e-4,-0.04549 0,-0.07617 5.94e-4,-0.06136 0.0018,-0.145901 0.002,-0.25 3.91e-4,-0.208197 5.19e-4,-0.487561 0,-0.767578 -8.01e-4,-0.431694 -0.0033,-0.691053 -0.0039,-0.867188 l 0.705078,-0.507812 c 0.120498,-0.0037 0.425277,-0.01299 0.853516,-0.02734 0.25282,-0.0085 0.506314,-0.01767 0.699219,-0.02539 0.09645,-0.0039 0.177588,-0.0085 0.238281,-0.01172 0.03035,-0.0016 0.05474,-0.0021 0.07813,-0.0039 0.01169,-9e-4 0.02315,-0.0017 0.04102,-0.0039 0.0089,-0.0011 0.01877,-0.0015 0.04102,-0.0059 0.01112,-0.0022 0.05041,-0.01356 0.05078,-0.01367 1.85e-4,-5.7e-5 0.05652,-0.02143 0.05664,-0.02148 1.26e-4,-5.6e-5 0.119076,-0.07221 0.119141,-0.07227 L 26.251991,41.351554 26.41996,39.23632 28.38285,36.916008 28.248047,36.625 c -0.614424,-1.323783 -0.966797,-2.79352 -0.966797,-4.349609 0.0029,-5.733333 4.641667,-10.368645 10.375,-10.367188 z m 2.0625,4.681641 c -1.298746,0.03585 -2.331776,0.562682 -3.007813,1.339843 -0.676036,0.777162 -1.003906,1.783459 -1.003906,2.783203 0,0.999745 0.32787,2.006042 1.003906,2.783204 0.676037,0.777161 1.709067,1.305942 3.007813,1.341796 1.367735,0.03776 2.462095,-0.469698 3.177734,-1.257812 0.71564,-0.788114 1.060547,-1.832041 1.060547,-2.867188 0,-1.035146 -0.344907,-2.07712 -1.060547,-2.865234 -0.715639,-0.788114 -1.809999,-1.295571 -3.177734,-1.257812 z m 0.02734,1 c 1.115627,-0.0308 1.884114,0.350371 2.410156,0.929687 0.526042,0.579316 0.800781,1.382413 0.800781,2.193359 0,0.810947 -0.274739,1.614044 -0.800781,2.19336 -0.526042,0.579316 -1.294529,0.96244 -2.410156,0.93164 -1.051234,-0.02902 -1.780344,-0.424457 -2.279297,-0.998046 -0.498953,-0.57359 -0.759766,-1.347322 -0.759766,-2.126954 0,-0.779631 0.260813,-1.553363 0.759766,-2.126953 0.498953,-0.573589 1.228063,-0.967072 2.279297,-0.996093 z M 14.917969,5.5 C 13.729942,5.5 12.657088,6.0628369 11.859375,6.8613281 11.061662,7.6598194 10.5,8.7319796 10.5,9.9199219 v 0.00195 l 0.169922,46.1621091 c 0.0012,1.186757 0.564341,2.257235 1.361328,3.054688 C 12.829121,59.93701 13.900473,60.5 15.087891,60.5 h 33.99414 c 1.188027,0 2.260881,-0.562837 3.058594,-1.361328 C 52.938338,58.340181 53.5,57.26802 53.5,56.080078 v -29.0625 c 0,-0.854999 0.0142,-1.492302 -0.318359,-2.158203 C 52.849079,24.193474 52.353999,23.745624 51.5,22.890625 L 36.076172,7.4550781 36.019531,7.4121094 C 35.26819,6.8438401 34.107686,5.5 32,5.5 Z m 0,2 H 32 c 1.274361,0 1.741373,0.6756979 2.746094,1.453125 l 15.33789,15.351562 c 0.852631,0.853699 1.214226,1.260262 1.308594,1.449219 C 51.487016,25.943004 51.5,26.162579 51.5,27.017578 v 29.0625 c 0,0.522056 -0.291855,1.160524 -0.775391,1.644531 C 50.241074,58.208617 49.603002,58.5 49.082031,58.5 h -33.99414 c -0.519581,0 -1.158701,-0.29123 -1.642578,-0.775391 -0.483878,-0.48416 -0.775391,-1.122865 -0.775391,-1.644531 v -0.002 -0.002 L 12.5,9.9199219 c 0,-0.522056 0.291855,-1.1605238 0.775391,-1.6445313 C 13.758926,7.7913831 14.396998,7.5 14.917969,7.5 Z" />
  <path
     opacity="0.525"
     d="m 39.737969,26.590683 a 3.6263928,3.6263928 0 1 0 -0.0028,7.252785 3.6263928,3.6263928 0 0 0 0.0028,-7.252785 m 0,2.070646 a 1.5543655,1.5543655 0 1 1 0,3.108731 1.5543655,1.5543655 0 0 1 0,-3.108731 m -9.215758,11.802686 -14.09144,14.085919 h 5.182138 L 33.907028,42.46564 A 10.938536,10.938536 0 0 1 30.51945,40.464015"
     id="path8"
     style="fill:#19fe8c;stroke-width:2.76086" />
</svg>
