<?xml version="1.0" encoding="UTF-8" standalone="no"?>
<svg
   height="64"
   width="64"
   version="1.1"
   id="svg9"
   sodipodi:docname="application-x-kvtml.svg"
   inkscape:version="1.1.2 (0a00cf5339, 2022-02-04)"
   xmlns:inkscape="http://www.inkscape.org/namespaces/inkscape"
   xmlns:sodipodi="http://sodipodi.sourceforge.net/DTD/sodipodi-0.dtd"
   xmlns="http://www.w3.org/2000/svg"
   xmlns:svg="http://www.w3.org/2000/svg">
  <defs
     id="defs13" />
  <sodipodi:namedview
     id="namedview11"
     pagecolor="#ffffff"
     bordercolor="#666666"
     borderopacity="1.0"
     inkscape:pageshadow="2"
     inkscape:pageopacity="0.0"
     inkscape:pagecheckerboard="0"
     showgrid="false"
     inkscape:zoom="10.21875"
     inkscape:cx="31.755352"
     inkscape:cy="32.097859"
     inkscape:window-width="1600"
     inkscape:window-height="836"
     inkscape:window-x="0"
     inkscape:window-y="0"
     inkscape:window-maximized="1"
     inkscape:current-layer="svg9" />
  <path
     style="color:#000000;fill:#e6e5e5;fill-opacity:0.2;stroke-width:2;-inkscape-stroke:none"
     d="m 11.67,56.08 c 0,1.71 1.71,3.42 3.417,3.42 h 33.996 c 1.709,0 3.417,-1.71 3.417,-3.42 V 27.017 c 0,-1.71 0,-1.71 -1.708,-3.42 L 35.417,8.21 C 34.51,7.524 33.708,6.5 32,6.5 H 14.917 C 13.208,6.5 11.5,8.21 11.5,9.92 Z"
     id="path5078" />
  <path
     style="color:#000000;fill:#e5e5e5;-inkscape-stroke:none"
     d="M 14.917969,5.5 C 13.729942,5.5 12.657088,6.0628369 11.859375,6.8613281 11.061662,7.6598194 10.5,8.7319796 10.5,9.9199219 v 0.00195 l 0.169922,46.1621091 c 0.0012,1.186757 0.564341,2.257235 1.361328,3.054688 C 12.829121,59.93701 13.900473,60.5 15.087891,60.5 h 33.99414 c 1.188027,0 2.260881,-0.562837 3.058594,-1.361328 C 52.938338,58.340181 53.5,57.26802 53.5,56.080078 v -29.0625 c 0,-0.854999 0.0142,-1.492302 -0.318359,-2.158203 C 52.849079,24.193474 52.353999,23.745624 51.5,22.890625 L 36.076172,7.4550781 36.019531,7.4121094 C 35.26819,6.8438401 34.107686,5.5 32,5.5 Z m 0,2 H 32 c 1.274361,0 1.741373,0.6756979 2.746094,1.453125 l 15.33789,15.351562 c 0.852631,0.853699 1.214226,1.260262 1.308594,1.449219 C 51.487016,25.943004 51.5,26.162579 51.5,27.017578 v 29.0625 c 0,0.522056 -0.291855,1.160524 -0.775391,1.644531 C 50.241074,58.208617 49.603002,58.5 49.082031,58.5 h -33.99414 c -0.519581,0 -1.158701,-0.29123 -1.642578,-0.775391 -0.483878,-0.48416 -0.775391,-1.122865 -0.775391,-1.644531 v -0.002 -0.002 L 12.5,9.9199219 c 0,-0.522056 0.291855,-1.1605238 0.775391,-1.6445313 C 13.758926,7.7913831 14.396998,7.5 14.917969,7.5 Z"
     id="path5080" />
  <path
     style="color:#000000;fill:#e5e5e5;fill-opacity:0.976471;-inkscape-stroke:none"
     d="m 16.257812,23.621094 v 0.5 30.982422 H 47.742187 V 23.621094 Z m 1,1 H 46.742187 V 54.103516 H 17.257812 Z m 1.541016,1.539062 v 0.5 25.904297 H 45.201172 V 26.160156 Z m 1,1 H 44.201172 V 51.564453 H 19.798828 Z m 1.539063,1.541016 v 0.5 5.580078 h 21.324218 v -6.080078 z m 1,1 H 41.662109 V 33.78125 H 22.337891 Z m -1,6.621094 v 0.5 3.041015 h 8.621093 v -3.541015 z m 12.703125,0 v 0.5 3.041015 h 8.621093 v -3.541015 z m -11.703125,1 h 6.621093 v 1.541015 h -6.621093 z m 12.703125,0 h 6.621093 v 1.541015 h -6.621093 z m -13.703125,4.080078 v 0.5 3.041015 h 8.621093 v -3.541015 z m 12.703125,0 v 0.5 3.041015 h 8.621093 v -3.541015 z m -11.703125,1 h 6.621093 v 1.541015 h -6.621093 z m 12.703125,0 h 6.621093 v 1.541015 h -6.621093 z m -13.703125,4.082031 v 0.5 3.039062 h 8.621093 v -3.539062 z m 12.703125,0 v 0.5 3.039062 h 8.621093 v -3.539062 z m -11.703125,1 h 6.621093 v 1.539062 h -6.621093 z m 12.703125,0 h 6.621093 v 1.539062 h -6.621093 z"
     id="path915" />
</svg>
