<?xml version="1.0" encoding="UTF-8" standalone="no"?>
<svg
   height="64"
   width="64"
   version="1.1"
   id="svg9"
   sodipodi:docname="application-x-ktheme.svg"
   inkscape:version="1.1.2 (0a00cf5339, 2022-02-04)"
   xmlns:inkscape="http://www.inkscape.org/namespaces/inkscape"
   xmlns:sodipodi="http://sodipodi.sourceforge.net/DTD/sodipodi-0.dtd"
   xmlns:xlink="http://www.w3.org/1999/xlink"
   xmlns="http://www.w3.org/2000/svg"
   xmlns:svg="http://www.w3.org/2000/svg">
  <defs
     id="defs13">
    <linearGradient
       inkscape:collect="always"
       id="linearGradient846">
      <stop
         style="stop-color:#ff19c5;stop-opacity:1;"
         offset="0"
         id="stop842" />
      <stop
         style="stop-color:#0597ff;stop-opacity:0.9921568"
         offset="0.56403232"
         id="stop1042" />
      <stop
         style="stop-color:#19ff25;stop-opacity:0.99000001"
         offset="1"
         id="stop844" />
    </linearGradient>
    <linearGradient
       inkscape:collect="always"
       xlink:href="#linearGradient846"
       id="linearGradient848"
       x1="10.5"
       y1="33"
       x2="43.459686"
       y2="10.243011"
       gradientUnits="userSpaceOnUse" />
  </defs>
  <sodipodi:namedview
     id="namedview11"
     pagecolor="#ffffff"
     bordercolor="#666666"
     borderopacity="1.0"
     inkscape:pageshadow="2"
     inkscape:pageopacity="0.0"
     inkscape:pagecheckerboard="0"
     showgrid="false"
     inkscape:zoom="5.109375"
     inkscape:cx="32"
     inkscape:cy="32"
     inkscape:window-width="1056"
     inkscape:window-height="545"
     inkscape:window-x="332"
     inkscape:window-y="80"
     inkscape:window-maximized="0"
     inkscape:current-layer="svg9" />
  <path
     style="color:#000000;fill:#ff19c5;fill-opacity:0.2;stroke-width:2;-inkscape-stroke:none"
     d="m 11.67,56.08 c 0,1.71 1.71,3.42 3.417,3.42 h 33.996 c 1.709,0 3.417,-1.71 3.417,-3.42 V 27.017 c 0,-1.71 0,-1.71 -1.708,-3.42 L 35.417,8.21 C 34.51,7.524 33.708,6.5 32,6.5 H 14.917 C 13.208,6.5 11.5,8.21 11.5,9.92 Z"
     id="path5614" />
  <path
     id="path6"
     style="color:#807f7f;fill:url(#linearGradient848);-inkscape-stroke:none;fill-opacity:1"
     d="m 37.433594,21.226562 -0.390625,0.314454 -5.585938,4.5 6.984375,8.658203 -6.5625,6.566406 5.476563,5.476562 11.382812,-11.382812 z m -13.46875,0.205079 c -1.749309,0 -3.177734,1.428425 -3.177735,3.177734 0,1.749309 1.428425,3.177734 3.177735,3.177734 1.74931,10e-7 3.179688,-1.428424 3.179687,-3.177734 0,-1.749309 -1.430378,-3.177735 -3.179687,-3.177734 z m 0,1 c 1.20887,-10e-7 2.179687,0.968864 2.179687,2.177734 0,1.20887 -0.970817,2.177735 -2.179687,2.177734 -1.20887,0 -2.177735,-0.968864 -2.177735,-2.177734 10e-7,-1.20887 0.968865,-2.177734 2.177735,-2.177734 z m 13.314453,0.203125 10.11914,12.65039 -10.042968,10.042969 -4.0625,-4.064453 6.492187,-6.492188 -6.919922,-8.580078 z m -17.330078,9.509765 c -2.488854,0 -4.517578,2.026771 -4.517578,4.515625 -1e-6,2.488855 2.028723,4.517578 4.517578,4.517578 2.488854,0 4.515625,-2.028723 4.515625,-4.517578 0,-2.488854 -2.026771,-4.515625 -4.515625,-4.515625 z m 0,1 c 1.948414,0 3.515625,1.567211 3.515625,3.515625 0,1.948415 -1.56721,3.517578 -3.515625,3.517578 -1.948415,0 -3.517579,-1.569163 -3.517578,-3.517578 0,-1.948414 1.569163,-3.515625 3.517578,-3.515625 z m 8.033203,12.390625 c -2.488855,0 -4.517578,2.026771 -4.517578,4.515625 0,2.488855 2.028723,4.517579 4.517578,4.517578 2.488854,0 4.517578,-2.028724 4.517578,-4.517578 0,-2.488854 -2.028724,-4.515625 -4.517578,-4.515625 z m 0,1 c 1.948414,0 3.517578,1.567211 3.517578,3.515625 0,1.948415 -1.569164,3.517578 -3.517578,3.517578 -1.948415,10e-7 -3.517578,-1.569163 -3.517578,-3.517578 0,-1.948415 1.569163,-3.515625 3.517578,-3.515625 z M 14.917969,5.5 C 13.729942,5.5 12.657088,6.0628369 11.859375,6.8613281 11.061662,7.6598194 10.5,8.7319796 10.5,9.9199219 v 0.00195 l 0.169922,46.1621091 c 0.0012,1.186757 0.564341,2.257235 1.361328,3.054688 C 12.829121,59.93701 13.900473,60.5 15.087891,60.5 h 33.99414 c 1.188027,0 2.260881,-0.562837 3.058594,-1.361328 C 52.938338,58.340181 53.5,57.26802 53.5,56.080078 v -29.0625 c 0,-0.854999 0.0142,-1.492302 -0.318359,-2.158203 C 52.849079,24.193474 52.353999,23.745624 51.5,22.890625 L 36.076172,7.4550781 36.019531,7.4121094 C 35.26819,6.8438401 34.107686,5.5 32,5.5 Z m 0,2 H 32 c 1.274361,0 1.741373,0.6756979 2.746094,1.453125 l 15.33789,15.351562 c 0.852631,0.853699 1.214226,1.260262 1.308594,1.449219 C 51.487016,25.943004 51.5,26.162579 51.5,27.017578 v 29.0625 c 0,0.522056 -0.291855,1.160524 -0.775391,1.644531 C 50.241074,58.208617 49.603002,58.5 49.082031,58.5 h -33.99414 c -0.519581,0 -1.158701,-0.29123 -1.642578,-0.775391 -0.483878,-0.48416 -0.775391,-1.122865 -0.775391,-1.644531 v -0.002 -0.002 L 12.5,9.9199219 c 0,-0.522056 0.291855,-1.1605238 0.775391,-1.6445313 C 13.758926,7.7913831 14.396998,7.5 14.917969,7.5 Z" />
</svg>
