<?xml version="1.0" encoding="UTF-8" standalone="no"?>
<svg
   height="64"
   width="64"
   version="1.1"
   id="svg3"
   sodipodi:docname="application-x-labplot2.svg"
   inkscape:version="1.1.2 (0a00cf5339, 2022-02-04)"
   xmlns:inkscape="http://www.inkscape.org/namespaces/inkscape"
   xmlns:sodipodi="http://sodipodi.sourceforge.net/DTD/sodipodi-0.dtd"
   xmlns="http://www.w3.org/2000/svg"
   xmlns:svg="http://www.w3.org/2000/svg">
  <defs
     id="defs3" />
  <sodipodi:namedview
     id="namedview3"
     pagecolor="#ffffff"
     bordercolor="#000000"
     borderopacity="0.25"
     inkscape:showpageshadow="2"
     inkscape:pageopacity="0.0"
     inkscape:pagecheckerboard="0"
     inkscape:deskcolor="#d1d1d1"
     inkscape:zoom="8.4742328"
     inkscape:cx="31.979296"
     inkscape:cy="31.979296"
     inkscape:window-width="1600"
     inkscape:window-height="836"
     inkscape:window-x="0"
     inkscape:window-y="0"
     inkscape:window-maximized="1"
     inkscape:current-layer="svg3"
     inkscape:pageshadow="2"
     showgrid="false" />
  <path
     style="color:#000000;fill:#e5e5e5;fill-opacity:0.2;stroke-width:2;-inkscape-stroke:none"
     d="m 11.67,56.08 c 0,1.71 1.71,3.42 3.417,3.42 h 33.996 c 1.709,0 3.417,-1.71 3.417,-3.42 V 27.017 c 0,-1.71 0,-1.71 -1.708,-3.42 L 35.417,8.21 C 34.51,7.524 33.708,6.5 32,6.5 H 14.917 C 13.208,6.5 11.5,8.21 11.5,9.92 Z"
     id="path9726" />
  <path
     style="color:#000000;fill:#d6d6d6;-inkscape-stroke:none"
     d="M 14.917969,5.5 C 13.729942,5.5 12.657088,6.0628369 11.859375,6.8613281 11.061662,7.6598194 10.5,8.7319796 10.5,9.9199219 v 0.00195 l 0.169922,46.1621091 c 0.0012,1.186757 0.564341,2.257235 1.361328,3.054688 C 12.829121,59.93701 13.900473,60.5 15.087891,60.5 h 33.99414 c 1.188027,0 2.260881,-0.562837 3.058594,-1.361328 C 52.938338,58.340181 53.5,57.26802 53.5,56.080078 v -29.0625 c 0,-0.854999 0.0142,-1.492302 -0.318359,-2.158203 C 52.849079,24.193474 52.353999,23.745624 51.5,22.890625 L 36.076172,7.4550781 36.019531,7.4121094 C 35.26819,6.8438401 34.107686,5.5 32,5.5 Z m 0,2 H 32 c 1.274361,0 1.741373,0.6756979 2.746094,1.453125 l 15.33789,15.351562 c 0.852631,0.853699 1.214226,1.260262 1.308594,1.449219 C 51.487016,25.943004 51.5,26.162579 51.5,27.017578 v 29.0625 c 0,0.522056 -0.291855,1.160524 -0.775391,1.644531 C 50.241074,58.208617 49.603002,58.5 49.082031,58.5 h -33.99414 c -0.519581,0 -1.158701,-0.29123 -1.642578,-0.775391 -0.483878,-0.48416 -0.775391,-1.122865 -0.775391,-1.644531 v -0.002 -0.002 L 12.5,9.9199219 c 0,-0.522056 0.291855,-1.1605238 0.775391,-1.6445313 C 13.758926,7.7913831 14.396998,7.5 14.917969,7.5 Z"
     id="path9728" />
  <path
     d="m 17.01896,37.190554 c 9.645377,0 11.429833,12.273445 15.684865,12.311791 4.255031,0.03287 6.172329,-12.34055 15.813597,-12.34055"
     id="path17"
     inkscape:connector-curvature="0"
     style="fill:none;stroke:#119bff;stroke-width:1.3695;stroke-opacity:1" />
  <path
     d="m 17.01896,35.86488 c 9.645377,0 11.606499,-8.355309 15.728689,-8.347092 4.0948,0.0096 6.128505,9.644007 15.769773,9.644007"
     id="path19"
     inkscape:connector-curvature="0"
     style="fill:none;stroke:#ff1f35;stroke-width:1.3695;stroke-opacity:1" />
  <path
     d="m 17.01896,35.86488 c 9.645377,0 10.230153,-13.714156 15.708146,-13.714156 5.477994,0 6.149048,15.009702 15.790316,15.009702"
     id="path21"
     inkscape:connector-curvature="0"
     style="fill:none;stroke:#d6d6d6;stroke-width:1.3695" />
  <g
     id="g29"
     style="fill:#d6d6d6"
     transform="matrix(1.3694983,0,0,1.3694983,-11.740505,-5.9664467)">
    <path
       d="m 20,20 h 1 v 23 h -1 z"
       id="path23"
       inkscape:connector-curvature="0"
       style="color:#000000" />
    <path
       d="m 20,31 h 24 v 1 H 20 Z"
       id="path25"
       inkscape:connector-curvature="0" />
    <path
       d="m 26,30 h 1 v 3 h -1 z m 6,0 h 1 v 3 h -1 z m 6,0 h 1 v 3 h -1 z"
       id="path27"
       inkscape:connector-curvature="0" />
  </g>
</svg>
