<?xml version="1.0" encoding="UTF-8" standalone="no"?>
<svg
   height="64"
   width="64"
   version="1.1"
   id="svg9"
   sodipodi:docname="application-vnd.ms-excel.svg"
   inkscape:version="1.1.2 (0a00cf5339, 2022-02-04)"
   xmlns:inkscape="http://www.inkscape.org/namespaces/inkscape"
   xmlns:sodipodi="http://sodipodi.sourceforge.net/DTD/sodipodi-0.dtd"
   xmlns:xlink="http://www.w3.org/1999/xlink"
   xmlns="http://www.w3.org/2000/svg"
   xmlns:svg="http://www.w3.org/2000/svg">
  <defs
     id="defs13">
    <linearGradient
       inkscape:collect="always"
       id="linearGradient846">
      <stop
         style="stop-color:#19fec5;stop-opacity:1;"
         offset="0"
         id="stop842" />
      <stop
         style="stop-color:#01f875;stop-opacity:1"
         offset="1"
         id="stop844" />
    </linearGradient>
    <linearGradient
       inkscape:collect="always"
       xlink:href="#linearGradient846"
       id="linearGradient848"
       x1="19.288145"
       y1="46.995491"
       x2="48.249432"
       y2="14.725024"
       gradientUnits="userSpaceOnUse" />
  </defs>
  <sodipodi:namedview
     id="namedview11"
     pagecolor="#ffffff"
     bordercolor="#666666"
     borderopacity="1.0"
     inkscape:pageshadow="2"
     inkscape:pageopacity="0.0"
     inkscape:pagecheckerboard="0"
     showgrid="false"
     inkscape:zoom="10.21875"
     inkscape:cx="31.95107"
     inkscape:cy="32"
     inkscape:window-width="1600"
     inkscape:window-height="836"
     inkscape:window-x="0"
     inkscape:window-y="0"
     inkscape:window-maximized="1"
     inkscape:current-layer="svg9" />
  <path
     style="color:#000000;fill:#19fec5;fill-opacity:0.2;stroke-width:2;-inkscape-stroke:none"
     d="m 11.67,56.08 c 0,1.71 1.71,3.42 3.417,3.42 h 33.996 c 1.709,0 3.417,-1.71 3.417,-3.42 V 27.017 c 0,-1.71 0,-1.71 -1.708,-3.42 L 35.417,8.21 C 34.51,7.524 33.708,6.5 32,6.5 H 14.917 C 13.208,6.5 11.5,8.21 11.5,9.92 Z"
     id="path5069" />
  <path
     id="path6-3"
     style="color:#807f7f;fill:url(#linearGradient848);-inkscape-stroke:none;fill-opacity:1"
     d="m 19.027344,23.652344 c -1.70573,0 -3.09375,1.389973 -3.09375,3.095703 v 25.945312 c 0,1.70573 1.38802,3.09375 3.09375,3.09375 h 25.945312 c 1.70573,0 3.09375,-1.38802 3.09375,-3.09375 V 26.748047 c 0,-1.70573 -1.38802,-3.095703 -3.09375,-3.095703 z m 0,1 h 25.945312 c 1.169028,0 2.09375,0.926675 2.09375,2.095703 v 25.945312 c 0,1.169028 -0.924722,2.09375 -2.09375,2.09375 H 19.027344 c -1.169028,0 -2.09375,-0.924722 -2.09375,-2.09375 V 26.748047 c 0,-1.169028 0.924722,-2.095703 2.09375,-2.095703 z m -0.5,1.595703 v 0.5 26.445312 H 45.472656 V 26.248047 Z m 1,1 H 44.472656 V 52.193359 H 19.527344 Z m 1.59375,1.59375 v 0.5 3.095703 h 6.189453 v -3.595703 z m 7.785156,0 v 0.5 3.095703 h 6.1875 v -3.595703 z m 7.783203,0 v 0.5 3.095703 h 6.189453 v -3.595703 z m -14.568359,1 h 4.189453 V 31.4375 h -4.189453 z m 7.785156,0 h 4.1875 V 31.4375 h -4.1875 z m 7.783203,0 h 4.189453 V 31.4375 h -4.189453 z m -16.568359,4.183594 v 0.5 3.095703 h 6.189453 v -3.595703 z m 7.785156,0 v 0.5 3.095703 h 6.1875 v -3.595703 z m 7.783203,0 v 0.5 3.095703 h 6.189453 v -3.595703 z m -14.568359,1 h 4.189453 v 1.595703 h -4.189453 z m 7.785156,0 h 4.1875 v 1.595703 h -4.1875 z m 7.783203,0 h 4.189453 v 1.595703 h -4.189453 z m -16.568359,4.185546 v 0.5 3.09375 h 6.189453 v -3.59375 z m 7.785156,0 v 0.5 3.09375 h 6.1875 v -3.59375 z m 7.783203,0 v 0.5 3.09375 h 6.189453 v -3.59375 z m -14.568359,1 h 4.189453 v 1.59375 h -4.189453 z m 7.785156,0 h 4.1875 v 1.59375 h -4.1875 z m 7.783203,0 h 4.189453 v 1.59375 h -4.189453 z m -16.568359,4.183594 v 0.5 3.09375 h 6.189453 v -3.59375 z m 7.785156,0 v 0.5 3.09375 h 6.1875 v -3.59375 z m 7.783203,0 v 0.5 3.09375 h 6.189453 v -3.59375 z m -14.568359,1 h 4.189453 v 1.59375 h -4.189453 z m 7.785156,0 h 4.1875 v 1.59375 h -4.1875 z m 7.783203,0 h 4.189453 v 1.59375 H 37.689453 Z M 14.917969,5.5 C 13.729942,5.5 12.657088,6.062837 11.859375,6.861328 11.061662,7.659819 10.5,8.73198 10.5,9.919922 v 0.002 l 0.169922,46.162109 c 0.0012,1.186757 0.564341,2.257235 1.361328,3.054688 0.797871,0.798341 1.869223,1.361331 3.056641,1.361331 h 33.99414 c 1.188027,0 2.260881,-0.562837 3.058594,-1.361328 C 52.938338,58.340231 53.5,57.26807 53.5,56.080128 v -29.0625 c 0,-0.854999 0.0142,-1.492302 -0.318359,-2.158203 C 52.849079,24.193524 52.353999,23.745674 51.5,22.890675 L 36.076172,7.455128 36.019532,7.412158 C 35.268191,6.843889 34.107687,5.500049 32.000001,5.500049 Z m 0,2 H 32 c 1.274361,0 1.741373,0.675698 2.746094,1.453125 l 15.33789,15.351562 c 0.852631,0.853699 1.214226,1.260262 1.308594,1.449219 C 51.487018,25.943004 51.5,26.162579 51.5,27.017578 v 29.0625 c 0,0.522056 -0.291855,1.160524 -0.775391,1.644531 C 50.241074,58.208617 49.603002,58.5 49.082031,58.5 h -33.99414 c -0.519581,0 -1.158701,-0.29123 -1.642578,-0.775391 -0.483878,-0.48416 -0.775391,-1.122865 -0.775391,-1.644531 v -0.002 -0.002 L 12.5,9.919922 C 12.5,9.397866 12.791855,8.759398 13.275391,8.275391 13.758926,7.791383 14.396998,7.5 14.917969,7.5 Z" />
</svg>
