<?xml version="1.0" encoding="UTF-8" standalone="no"?>
<svg
   height="64"
   width="64"
   version="1.1"
   id="svg3"
   sodipodi:docname="fonts-package.svg"
   inkscape:version="1.1.2 (0a00cf5339, 2022-02-04)"
   xmlns:inkscape="http://www.inkscape.org/namespaces/inkscape"
   xmlns:sodipodi="http://sodipodi.sourceforge.net/DTD/sodipodi-0.dtd"
   xmlns:xlink="http://www.w3.org/1999/xlink"
   xmlns="http://www.w3.org/2000/svg"
   xmlns:svg="http://www.w3.org/2000/svg">
  <defs
     id="defs3">
    <linearGradient
       inkscape:collect="always"
       xlink:href="#linearGradient3-6"
       id="linearGradient4-3"
       x1="18.258801"
       y1="11.805737"
       x2="50.747719"
       y2="57.365059"
       gradientUnits="userSpaceOnUse" />
    <linearGradient
       id="linearGradient3-6"
       inkscape:collect="always">
      <stop
         style="stop-color:#7100ff;stop-opacity:0.2"
         offset="0"
         id="stop3-7" />
      <stop
         style="stop-color:#0066ff;stop-opacity:0.40000001"
         offset="1"
         id="stop4-5" />
    </linearGradient>
  </defs>
  <sodipodi:namedview
     id="namedview3"
     pagecolor="#ffffff"
     bordercolor="#000000"
     borderopacity="0.25"
     inkscape:showpageshadow="2"
     inkscape:pageopacity="0.0"
     inkscape:pagecheckerboard="0"
     inkscape:deskcolor="#d1d1d1"
     inkscape:zoom="11.984375"
     inkscape:cx="31.916558"
     inkscape:cy="43.973924"
     inkscape:window-width="1600"
     inkscape:window-height="836"
     inkscape:window-x="0"
     inkscape:window-y="0"
     inkscape:window-maximized="1"
     inkscape:current-layer="svg3"
     inkscape:pageshadow="2"
     showgrid="false" />
  <path
     style="color:#000000;fill:url(#linearGradient4-3);stroke-width:2;-inkscape-stroke:none"
     d="m 11.67,56.08 c 0,1.71 1.71,3.42 3.417,3.42 h 33.996 c 1.709,0 3.417,-1.71 3.417,-3.42 V 27.017 c 0,-1.71 0,-1.71 -1.708,-3.42 L 35.417,8.21 C 34.51,7.524 33.708,6.5 32,6.5 H 14.917 C 13.208,6.5 11.5,8.21 11.5,9.92 Z"
     id="path2302" />
  <path
     style="color:#000000;fill:#e5e5e5;-inkscape-stroke:none"
     d="M 14.917969,5.5 C 13.729942,5.5 12.657088,6.0628369 11.859375,6.8613281 11.061662,7.6598194 10.5,8.7319796 10.5,9.9199219 v 0.00195 l 0.169922,46.1621091 c 0.0012,1.186757 0.564341,2.257235 1.361328,3.054688 C 12.829121,59.93701 13.900473,60.5 15.087891,60.5 h 33.99414 c 1.188027,0 2.260881,-0.562837 3.058594,-1.361328 C 52.938338,58.340181 53.5,57.26802 53.5,56.080078 v -29.0625 c 0,-0.854999 0.0142,-1.492302 -0.318359,-2.158203 C 52.849079,24.193474 52.353999,23.745624 51.5,22.890625 L 36.076172,7.4550781 36.019531,7.4121094 C 35.26819,6.8438401 34.107686,5.5 32,5.5 Z m 0,2 H 32 c 1.274361,0 1.741373,0.6756979 2.746094,1.453125 l 15.33789,15.351562 c 0.852631,0.853699 1.214226,1.260262 1.308594,1.449219 C 51.487016,25.943004 51.5,26.162579 51.5,27.017578 v 29.0625 c 0,0.522056 -0.291855,1.160524 -0.775391,1.644531 C 50.241074,58.208617 49.603002,58.5 49.082031,58.5 h -33.99414 c -0.519581,0 -1.158701,-0.29123 -1.642578,-0.775391 -0.483878,-0.48416 -0.775391,-1.122865 -0.775391,-1.644531 v -0.002 -0.002 L 12.5,9.9199219 c 0,-0.522056 0.291855,-1.1605238 0.775391,-1.6445313 C 13.758926,7.7913831 14.396998,7.5 14.917969,7.5 Z"
     id="path2304" />
  <path
     style="color:#000000;fill:#e5e5e5;-inkscape-stroke:none"
     d="m 35.109375,21.613281 c -3.996616,0 -7.882778,1.149525 -10.263672,2.527344 l -0.304687,0.175781 0.833984,4.705078 0.591797,-0.277343 c 2.712159,-1.276114 5.666942,-1.954616 8.664062,-1.990235 1.806972,0 2.918042,0.433859 3.550782,1.197266 0.63246,0.763069 0.862494,1.966201 0.632812,3.691406 -1.01e-4,7.63e-4 1.02e-4,0.0012 0,0.002 l -0.480469,3.03711 -2.453125,0.3125 H 35.875 c -3.628655,0.57039 -7.2559,1.136264 -10.179688,2.621093 -2.923311,1.484588 -5.121834,3.95946 -5.710937,8.115235 -0.434801,2.984888 0.239859,5.259057 1.679687,6.748047 1.439829,1.488989 3.578967,2.162109 5.953125,2.162109 2.731201,0 5.996882,-1.021671 8.765625,-3.619141 l 0.09961,2.902344 h 4.339844 L 44,31 v -0.002 c 0.493196,-3.515384 -0.277454,-5.938788 -1.957031,-7.414063 -1.679944,-1.475596 -4.144293,-1.970703 -6.933594,-1.970703 z m 0,1 c 2.668331,0 4.880387,0.497103 6.273437,1.720703 1.393051,1.223601 2.09304,3.208447 1.626954,6.527344 l -3.058594,22.0625 h -2.501953 l -0.144532,-4.228516 -0.828125,0.917969 c -2.715863,3.003665 -6.105979,4.027344 -8.859375,4.027344 -2.185553,0 -4.035096,-0.617195 -5.234375,-1.857422 -1.199278,-1.240227 -1.812,-3.13615 -1.408203,-5.908203 v -0.002 c 0.549231,-3.878451 2.459615,-5.988789 5.173828,-7.367188 2.710726,-1.376627 6.244557,-1.951991 9.867188,-2.521484 l 0.01367,-0.002 3.175781,-0.404297 0.599609,-3.796875 v -0.0059 c 0.249779,-1.873344 0.02895,-3.398182 -0.853515,-4.462891 -0.88247,-1.064709 -2.349545,-1.558594 -4.320313,-1.558594 h -0.0039 -0.002 c -2.928268,0.03398 -5.799277,0.709962 -8.480469,1.876953 l -0.486328,-2.746093 c 2.207921,-1.203103 5.788546,-2.271485 9.451172,-2.271485 z m 3.677734,15.285156 -0.583984,0.09961 c 0,0 -0.613082,0.10442 -1.234375,0.208984 -0.310647,0.05228 -0.623768,0.103528 -0.861328,0.142578 -0.11878,0.01953 -0.218419,0.03578 -0.289063,0.04687 -0.03028,0.0048 -0.05279,0.0091 -0.07031,0.01172 h -0.01367 l -0.03516,0.0059 c -4.00877,0.571908 -6.681953,1.194231 -8.5,2.275391 -1.818048,1.08116 -2.707457,2.678446 -3.019532,4.867188 -0.253641,1.775492 0.09683,3.133343 0.94336,4.015625 0.846527,0.882281 2.104588,1.234375 3.507812,1.234375 h 0.5 v -0.07227 c 2.755354,-0.176923 6.372836,-1.804367 8.527344,-4.494141 l 0.08789,-0.109375 1.041015,-7.605468 v -0.03516 z m -1.085937,1.199219 -0.904297,6.59375 c -2.056593,2.497508 -5.829198,4.111328 -8.166016,4.111328 h -0.02734 c -1.221655,-0.0051 -2.172319,-0.311569 -2.759766,-0.923828 -0.592402,-0.617423 -0.902109,-1.597344 -0.675781,-3.18164 0.286538,-2.009645 0.95642,-3.204947 2.542968,-4.148438 1.586549,-0.943491 4.163504,-1.578532 8.13086,-2.144531 2.83e-4,-4.2e-5 0.0016,3.9e-5 0.002,0 0.01206,-0.0015 0.02457,-0.0041 0.03711,-0.0059 0.02507,-0.0036 0.05423,-0.0078 0.0918,-0.01367 0.07514,-0.0118 0.176869,-0.02715 0.296875,-0.04687 0.240013,-0.03945 0.553947,-0.09214 0.865235,-0.144532 0.285146,-0.04799 0.342832,-0.05779 0.566406,-0.0957 z"
     id="path1613" />
</svg>
