<?xml version="1.0" encoding="UTF-8" standalone="no"?>
<svg
   height="64"
   width="64"
   version="1.1"
   id="svg9"
   sodipodi:docname="image-gif.svg"
   inkscape:version="1.1.2 (0a00cf5339, 2022-02-04)"
   xmlns:inkscape="http://www.inkscape.org/namespaces/inkscape"
   xmlns:sodipodi="http://sodipodi.sourceforge.net/DTD/sodipodi-0.dtd"
   xmlns:xlink="http://www.w3.org/1999/xlink"
   xmlns="http://www.w3.org/2000/svg"
   xmlns:svg="http://www.w3.org/2000/svg">
  <defs
     id="defs13">
    <linearGradient
       inkscape:collect="always"
       id="linearGradient846">
      <stop
         style="stop-color:#19fefe;stop-opacity:1;"
         offset="0"
         id="stop842" />
      <stop
         style="stop-color:#15fe86;stop-opacity:1"
         offset="1"
         id="stop844" />
    </linearGradient>
    <linearGradient
       inkscape:collect="always"
       xlink:href="#linearGradient846"
       id="linearGradient848"
       x1="10.5"
       y1="33"
       x2="40.218098"
       y2="13.11961"
       gradientUnits="userSpaceOnUse" />
  </defs>
  <sodipodi:namedview
     id="namedview11"
     pagecolor="#ffffff"
     bordercolor="#666666"
     borderopacity="1.0"
     inkscape:pageshadow="2"
     inkscape:pageopacity="0.0"
     inkscape:pagecheckerboard="0"
     showgrid="false"
     inkscape:zoom="10.21875"
     inkscape:cx="31.95107"
     inkscape:cy="32"
     inkscape:window-width="1600"
     inkscape:window-height="836"
     inkscape:window-x="0"
     inkscape:window-y="0"
     inkscape:window-maximized="1"
     inkscape:current-layer="svg9" />
  <path
     style="color:#000000;fill:#19fefe;fill-opacity:0.2;stroke-width:2;-inkscape-stroke:none"
     d="m 11.67,56.08 c 0,1.71 1.71,3.42 3.417,3.42 h 33.996 c 1.709,0 3.417,-1.71 3.417,-3.42 V 27.017 c 0,-1.71 0,-1.71 -1.708,-3.42 L 35.417,8.21 C 34.51,7.524 33.708,6.5 32,6.5 H 14.917 C 13.208,6.5 11.5,8.21 11.5,9.92 Z"
     id="path5635" />
  <path
     id="path6"
     style="color:#000000;fill:url(#linearGradient848);-inkscape-stroke:none;fill-opacity:1"
     d="m 17.078125,24.105469 v 0.5 V 46.5 l -2.447266,2.457031 v 0.726563 h 2.447266 v 4.914062 h 30.363281 v -7.367187 h 2.447266 V 46.5 L 47.441406,44.041016 V 24.105469 Z m 1,1 h 28.363281 v 19.349609 l 1.767578,1.775391 h -1.767578 v 7.367187 H 18.078125 v -4.914062 h -1.763672 l 1.763672,-1.771485 z m 1.445312,1.458984 v 0.5 18.398438 l 7.841797,-7.871094 1.21875,1.224609 6.125,-6.142578 L 44.994141,43 V 26.564453 Z m 1,1 h 23.470704 v 13.015625 l -9.066407,-9.101562 h -0.722656 v 0.285156 l -5.621094,5.636719 -1.001953,-1.00586 h -0.433594 l -6.625,6.648438 z m 4.394532,1.457031 c -1.625149,0 -2.947266,1.328295 -2.947266,2.957032 0,1.628737 1.322117,2.958984 2.947266,2.958984 1.625148,0 2.947265,-1.330247 2.947265,-2.958984 0,-1.628737 -1.322117,-2.957032 -2.947265,-2.957032 z m 0,1 c 1.086098,0 1.947265,0.862659 1.947265,1.957032 0,1.094372 -0.861167,1.958984 -1.947265,1.958984 -1.086099,0 -1.947266,-0.864612 -1.947266,-1.958984 0,-1.094373 0.861167,-1.957032 1.947266,-1.957032 z m 9.787109,4.714844 -0.353516,0.355469 -4.738281,4.759765 7.351563,7.373047 h 8.029297 v -2.160156 z m 0.002,1.416016 9.28711,9.324218 v 0.748047 h -6.613282 l -6.355468,-6.373047 z m -7.341797,3.5 -0.353515,0.355468 -7.19336,7.216797 H 34.90625 Z m 0,1.416015 5.132813,5.15625 H 22.226562 Z m -7.841797,7.615235 v 0.5 2.957031 h 25.470704 v -3.457031 h -5.894532 v 0.0039 h -2.738281 l -0.0039,-0.0039 z m 1,1 h 15.419922 l 0.0039,0.0039 h 4.152343 v -0.0039 h 3.894532 v 1.457031 H 20.523437 Z M 14.917969,5.5 C 13.729942,5.5 12.657088,6.0628369 11.859375,6.8613281 11.061662,7.6598194 10.5,8.7319796 10.5,9.9199219 v 0.00195 l 0.169922,46.1621091 c 0.0012,1.186757 0.564341,2.257235 1.361328,3.054688 C 12.829121,59.93701 13.900473,60.5 15.087891,60.5 h 33.99414 c 1.188027,0 2.260881,-0.562837 3.058594,-1.361328 C 52.938338,58.340181 53.5,57.26802 53.5,56.080078 v -29.0625 c 0,-0.854999 0.0142,-1.492302 -0.318359,-2.158203 C 52.849079,24.193474 52.353999,23.745624 51.5,22.890625 L 36.076172,7.4550781 36.019531,7.4121094 C 35.26819,6.8438401 34.107686,5.5 32,5.5 Z m 0,2 H 32 c 1.274361,0 1.741373,0.6756979 2.746094,1.453125 l 15.33789,15.351562 c 0.852631,0.853699 1.214226,1.260262 1.308594,1.449219 C 51.487016,25.943004 51.5,26.162579 51.5,27.017578 v 29.0625 c 0,0.522056 -0.291855,1.160524 -0.775391,1.644531 C 50.241074,58.208617 49.603002,58.5 49.082031,58.5 h -33.99414 c -0.519581,0 -1.158701,-0.29123 -1.642578,-0.775391 -0.483878,-0.48416 -0.775391,-1.122865 -0.775391,-1.644531 v -0.002 -0.002 L 12.5,9.9199219 c 0,-0.522056 0.291855,-1.1605238 0.775391,-1.6445313 C 13.758926,7.7913831 14.396998,7.5 14.917969,7.5 Z" />
</svg>
