<?xml version="1.0" encoding="UTF-8" standalone="no"?>
<svg
   height="64"
   width="64"
   version="1.1"
   id="svg9"
   sodipodi:docname="libreoffice-oasis-web-template.svg"
   inkscape:version="1.1.2 (0a00cf5339, 2022-02-04)"
   xmlns:inkscape="http://www.inkscape.org/namespaces/inkscape"
   xmlns:sodipodi="http://sodipodi.sourceforge.net/DTD/sodipodi-0.dtd"
   xmlns="http://www.w3.org/2000/svg"
   xmlns:svg="http://www.w3.org/2000/svg">
  <defs
     id="defs13" />
  <sodipodi:namedview
     id="namedview11"
     pagecolor="#ffffff"
     bordercolor="#666666"
     borderopacity="1.0"
     inkscape:pageshadow="2"
     inkscape:pageopacity="0.0"
     inkscape:pagecheckerboard="0"
     showgrid="false"
     inkscape:zoom="7.2257474"
     inkscape:cx="31.899814"
     inkscape:cy="43.04053"
     inkscape:window-width="1600"
     inkscape:window-height="836"
     inkscape:window-x="0"
     inkscape:window-y="0"
     inkscape:window-maximized="1"
     inkscape:current-layer="svg9" />
  <path
     style="color:#000000;fill:#808080;fill-opacity:0.2;stroke-width:2;-inkscape-stroke:none"
     d="m 11.67,56.08 c 0,1.71 1.71,3.42 3.417,3.42 h 33.996 c 1.709,0 3.417,-1.71 3.417,-3.42 V 27.017 c 0,-1.71 0,-1.71 -1.708,-3.42 L 35.417,8.21 C 34.51,7.524 33.708,6.5 32,6.5 H 14.917 C 13.208,6.5 11.5,8.21 11.5,9.92 Z"
     id="path1603" />
  <path
     style="color:#000000;fill:#808080;-inkscape-stroke:none;fill-opacity:1"
     d="M 14.917969,5.5 C 13.729942,5.5 12.657088,6.0628369 11.859375,6.8613281 11.061662,7.6598194 10.5,8.7319796 10.5,9.9199219 v 0.00195 l 0.169922,46.1621091 c 0.0012,1.186757 0.564341,2.257235 1.361328,3.054688 C 12.829121,59.93701 13.900473,60.5 15.087891,60.5 h 33.99414 c 1.188027,0 2.260881,-0.562837 3.058594,-1.361328 C 52.938338,58.340181 53.5,57.26802 53.5,56.080078 v -29.0625 c 0,-0.854999 0.0142,-1.492302 -0.318359,-2.158203 C 52.849079,24.193474 52.353999,23.745624 51.5,22.890625 L 36.076172,7.4550781 36.019531,7.4121094 C 35.26819,6.8438401 34.107686,5.5 32,5.5 Z m 0,2 H 32 c 1.274361,0 1.741373,0.6756979 2.746094,1.453125 l 15.33789,15.351562 c 0.852631,0.853699 1.214226,1.260262 1.308594,1.449219 C 51.487016,25.943004 51.5,26.162579 51.5,27.017578 v 29.0625 c 0,0.522056 -0.291855,1.160524 -0.775391,1.644531 C 50.241074,58.208617 49.603002,58.5 49.082031,58.5 h -33.99414 c -0.519581,0 -1.158701,-0.29123 -1.642578,-0.775391 -0.483878,-0.48416 -0.775391,-1.122865 -0.775391,-1.644531 v -0.002 -0.002 L 12.5,9.9199219 c 0,-0.522056 0.291855,-1.1605238 0.775391,-1.6445313 C 13.758926,7.7913831 14.396998,7.5 14.917969,7.5 Z"
     id="path1605" />
  <path
     style="stroke-width:2.65684"
     d="m 24.03879,37.582877 c 0.127526,-0.05845 0.103609,0.148783 0,0.164724 -0.0983,0.02658 -0.09565,-0.1169 0,-0.164724"
     id="path1330" />
  <path
     style="color:#000000;fill:#808080;-inkscape-stroke:none"
     d="m 31.996094,21.558594 c -9.074412,0 -16.441406,7.367 -16.441406,16.441406 0,9.074406 7.366994,16.441406 16.441406,16.441406 9.074412,0 16.441406,-7.367 16.441406,-16.441406 0,-9.074406 -7.366994,-16.441406 -16.441406,-16.441406 z m 0,1 c 8.533973,0 15.441406,6.907439 15.441406,15.441406 0,8.533967 -6.907433,15.441406 -15.441406,15.441406 -8.533973,0 -15.441406,-6.907439 -15.441407,-15.441406 0,-8.533967 6.907434,-15.441406 15.441407,-15.441406 z m -0.02344,1.658203 -0.02148,0.002 h 0.01953 c -0.830911,0.0065 -1.659313,0.09364 -2.474609,0.253906 -0.04995,-0.0093 -0.159263,-0.03989 -0.333985,0.01758 -0.116455,0.02642 -0.222306,0.0559 -0.291015,0.07227 -0.228771,0.05287 -0.427379,0.120788 -0.59961,0.167969 l -0.302734,0.08398 -0.05664,0.308594 c -0.0028,0.01567 0.0016,0.01127 0,0.02539 -0.0771,0.09312 -0.193304,0.225227 -0.173828,0.441407 0.01638,0.18423 0.151647,0.400732 0.28125,0.488281 0.129993,0.08781 0.213776,0.101122 0.191406,0.0918 l 0.08984,0.03711 0.09375,0.002 c 0.202354,0.0036 0.402587,-0.04102 0.589844,-0.117187 -0.0039,0.06409 -0.01,0.09495 -0.002,0.228515 l 0.002,0.0039 v 0.002 c 0.01104,0.154512 0.0967,0.350839 0.224609,0.460937 0.08465,0.07286 0.144834,0.07985 0.210938,0.101563 -0.0694,0.02428 -0.164292,0.03287 -0.199219,0.05859 -0.13763,0.101376 -0.130681,0.103611 -0.07617,0.07227 -0.08234,0.04426 -0.169904,0.07596 -0.259765,0.101563 -0.04372,0.0026 -0.151927,0.0015 -0.300782,0.0039 -0.08573,0.0014 -0.21586,0.05889 -0.326172,0.08008 -0.01372,-0.0036 -0.03893,-0.02124 -0.05273,-0.02539 -0.06903,-0.02075 -0.136431,-0.03359 -0.205078,-0.04492 -0.129151,-0.02133 -0.233497,-0.04434 -0.433594,-0.0039 -0.335612,0.058 -0.60523,0.320954 -0.658203,0.658203 l -0.05859,0.376954 0.345703,0.15625 c 0.01306,0.0059 0.01086,-0.0012 0.02344,0.0039 -0.0062,0.03009 -0.02279,0.04578 -0.02539,0.07617 -0.208386,0.0095 -0.408383,0.05757 -0.509765,0.11914 -0.128542,0.07806 -0.213499,0.129078 -0.197266,0.123047 h -0.002 c -0.06141,0.02311 -0.237052,0.05349 -0.447266,0.13086 -0.194564,0.07161 -0.462583,0.284495 -0.566406,0.599609 -0.02376,0.0067 -0.02624,0.0029 -0.05664,0.01367 l -0.0039,0.002 h -0.0039 c -0.03433,0.01287 -0.129309,0.02899 -0.248047,0.06055 0.03508,-0.05383 0.09491,-0.06509 0.111328,-0.132813 l 0.06641,-0.271484 -0.199218,-0.199219 C 24.926141,28.63697 24.760644,28.68546 24.685547,28.691406 h -0.002 c -0.07921,0.0064 -0.08012,0.0071 -0.05859,0.0078 -0.05631,-0.190022 -0.14607,-0.396963 -0.464844,-0.480469 h -0.0059 l -0.0059,-0.002 c -0.08965,-0.0211 -0.124682,0.01456 -0.191406,0.0293 -0.03619,-0.02633 -0.07266,-0.04129 -0.123047,-0.06055 -0.0038,-0.01063 0.002,-0.03127 -0.002,-0.04102 -0.09027,-0.22178 -0.206711,-0.321841 -0.318359,-0.412109 l -0.330078,-0.267578 -0.316407,0.283203 c -0.180251,0.160223 -0.31515,0.319478 -0.427734,0.427734 l -0.0293,0.02734 h -0.183594 l 0.06055,0.119141 -0.242187,0.232421 0.134765,0.117188 c -0.02064,0.03431 -0.04562,0.07065 -0.0293,0.05078 -0.0056,0.0068 -0.05336,0.02228 -0.169922,0.167969 l -0.002,0.002 -0.002,0.002 c -0.0011,0.0014 -0.125934,0.146734 -0.222656,0.320313 -0.04836,0.08679 -0.109459,0.177915 -0.11914,0.375 -0.0048,0.09854 0.01381,0.243256 0.107421,0.373047 0.09362,0.12979 0.24303,0.204317 0.355469,0.228515 l 0.0098,0.002 0.0098,0.002 c 0.228375,0.0403 0.319642,-0.02866 0.398438,-0.06836 0.0788,-0.0397 0.137932,-0.08065 0.193359,-0.125 0.0248,-0.01984 0.04551,-0.04342 0.06836,-0.06445 0.0996,0.145027 0.200565,0.314769 0.324218,0.34375 0.180052,0.0422 0.305277,0.0147 0.419922,-0.02148 h 0.002 c 0.207903,-0.06629 0.296396,-0.152196 0.396485,-0.228516 l 0.367187,-0.01563 v -0.228516 c 0.08452,0.01091 0.169929,0.05013 0.267578,0.04492 0.0034,-1.82e-4 0.0083,-0.0018 0.01172,-0.002 -4.25e-4,5.73e-4 -0.0035,0.0014 -0.0039,0.002 -0.03789,0.05124 -0.03564,0.04523 -0.0332,0.04297 -0.04905,0.01479 -0.112184,0.02234 -0.216797,0.126953 -0.07005,0.07005 -0.07014,0.08361 -0.08984,0.115234 -0.09412,-0.0023 -0.187661,-0.02031 -0.322265,0.06445 l -0.220704,0.140625 -0.01367,0.259765 c -0.008,0.169231 0.01716,0.274785 0.02539,0.351563 -0.08842,0.08113 -0.188366,0.174893 -0.248047,0.21289 -0.06197,0.0071 -0.196057,0.02416 -0.330078,0.08984 l -0.002,0.002 c -0.138511,0.06925 -0.200752,0.132257 -0.259766,0.181641 -0.05901,0.04938 -0.107914,0.08575 -0.101562,0.08203 -0.105027,0.06127 -0.28078,0.140071 -0.464844,0.302734 -0.09948,0.08791 -0.12788,0.278411 -0.197265,0.429688 -0.05141,-0.03589 -0.08464,-0.079 -0.175782,-0.109375 l -0.04687,-0.01563 -0.04687,-0.0059 c -0.07329,-0.0095 -0.153169,0.02088 -0.232422,0.04297 -0.07073,-0.03627 -0.150461,-0.08733 -0.3125,-0.121093 l -0.01563,-0.002 -0.01563,-0.002 c -0.154773,-0.02181 -0.286232,-0.0087 -0.359375,-0.002 -0.07314,0.0068 -0.09204,0.0088 -0.140625,0.002 l -0.160156,-0.02344 -0.142578,0.07422 c -0.154695,0.08142 -0.189394,0.146179 -0.246094,0.21289 -0.0518,-0.03413 -0.05124,-0.06189 -0.142578,-0.08594 l -0.0625,-0.01563 h -0.470703 l -0.130859,0.294922 c -0.361929,0.804206 -0.636534,1.644994 -0.835938,2.503906 -9.8e-4,0.0042 -0.0049,0.0075 -0.0059,0.01172 -0.02117,0.03089 -0.075,0.100137 -0.105469,0.240234 l -0.002,0.0039 v 0.0039 c -0.04487,0.224875 -0.03421,0.255532 0,0.08398 l -0.06836,0.345703 H 17.59375 l 0.763672,0.693359 0.01367,0.01367 C 18.298042,36.901929 18.222656,37.423589 18.222656,38 v 0.002 0.0039 c 0.0096,0.84001 0.09676,1.677855 0.259766,2.501953 0.02525,0.134016 0.05014,0.271593 0.08398,0.421875 0.165324,0.761597 0.395052,1.509267 0.685547,2.232422 0.0016,0.0041 3.98e-4,0.0019 0.002,0.0059 5.37e-4,0.0013 0.0014,0.0026 0.002,0.0039 0.04878,0.123096 0.09042,0.184303 0.08594,0.173828 0.329996,0.783792 0.733628,1.535698 1.207031,2.242188 l 0.002,0.002 0.002,0.002 c -0.04595,-0.06718 -0.0261,0.0089 0.08008,0.164062 8.01e-4,0.0012 0.0012,0.0027 0.002,0.0039 0.0016,0.0023 3.27e-4,-3.69e-4 0.002,0.002 0.412295,0.606729 0.871348,1.179665 1.373047,1.714843 0.09466,0.100971 0.186962,0.186963 0.261718,0.261719 0.632271,0.635702 1.323103,1.211619 2.0625,1.71875 l 0.0039,0.0039 0.80664,0.529297 0.199219,-0.630859 c 0.0446,-0.141238 0.02756,-0.245913 0.02344,-0.283203 -0.0041,-0.03729 0.0028,-0.01815 -0.0039,0.0332 l -0.0039,0.02148 c 0.01521,-0.08807 0.0088,-0.161334 0.0059,-0.195312 -0.0098,0.09414 0.0417,0.04393 0.08008,-0.236328 v -0.0078 -0.0059 c 0.02088,-0.191412 -0.0073,-0.310881 -0.0293,-0.439453 -0.02202,-0.128572 -0.04815,-0.245709 -0.06055,-0.302735 v -0.002 -0.002 c -0.03728,-0.166301 -0.106575,-0.273545 -0.136719,-0.328125 0.03184,-0.05656 0.07458,-0.08607 0.0625,-0.261719 v -0.002 c -0.0075,-0.100751 -0.04466,-0.125324 -0.08203,-0.191406 -0.0028,-0.04899 -0.0039,-0.0995 0,-0.148438 0.017,-0.217554 0.0013,-0.384001 0.002,-0.509765 v -0.01953 c 0.0045,-0.113142 0,-0.230843 0,-0.257813 0,-0.160743 -0.05393,-0.30352 -0.07617,-0.357422 -0.02224,-0.0539 -0.0089,-0.02216 -0.0078,-0.0039 -0.0059,-0.174992 0.0502,-0.37841 -0.0078,-0.71875 v -0.002 -0.002 c -0.0054,-0.03008 -0.01379,-0.144265 -0.02344,-0.267578 -0.0096,-0.123313 0.01565,-0.242142 -0.117187,-0.47461 v -0.002 l -0.002,-0.0039 c -0.119524,-0.203634 -0.225542,-0.267327 -0.34375,-0.361328 -0.117433,-0.09339 -0.231542,-0.170922 -0.339844,-0.232422 -0.162101,-0.09264 -0.282406,-0.09707 -0.34375,-0.105469 -0.06134,-0.0084 -0.06599,-0.01933 -0.01172,0.0078 h -0.002 l -0.002,-0.002 c -0.08214,-0.04056 -0.229559,-0.124752 -0.347656,-0.208984 -0.09815,-0.07001 -0.134104,-0.120963 -0.134766,-0.105469 0.01121,-0.06618 0.04126,-0.108834 -0.02344,-0.261718 -0.0926,-0.218867 -0.237974,-0.314153 -0.3125,-0.371094 -0.0705,-0.05387 -0.08302,-0.07349 -0.0625,-0.04297 -0.101638,-0.159878 -0.184105,-0.475117 -0.41211,-0.826172 v -0.002 h -0.002 c -0.04014,-0.06146 -0.09508,-0.251929 -0.294922,-0.474609 l -0.002,-0.002 -0.002,-0.002 C 22.241,41.300879 22.211,41.291752 22.179687,41.271484 c 0.0177,-0.01784 0.02779,-0.02137 0.04883,-0.04687 0.06055,-0.07338 0.15039,-0.208162 0.15039,-0.402343 0,-0.210901 -0.0889,-0.273877 -0.15625,-0.34961 0.02598,-0.03813 0.05582,-0.07325 0.109375,-0.1875 l 0.002,-0.0039 v -0.0039 c 0.01968,-0.04374 0.0356,-0.0695 0.03516,-0.07227 0.02704,-0.02227 0.08403,-0.07142 0.144531,-0.144531 h 0.002 c 0.141316,-0.171585 0.110158,-0.209976 0.107422,-0.257813 0.08067,-0.03626 0.29835,-0.123685 0.392578,-0.394531 l 0.01563,-0.04297 0.0059,-0.04687 c 0.04502,-0.297522 0.04502,-0.598962 0,-0.896484 l -0.0039,-0.02344 -0.0059,-0.02344 c -0.01277,-0.0511 -0.03094,-0.04958 -0.04883,-0.08789 0.02732,-0.02153 0.09029,-0.03199 0.109375,-0.05078 0.06819,-0.06712 0.107487,-0.125314 0.140625,-0.177734 0.06628,-0.10484 0.110451,-0.198726 0.128906,-0.232422 l 0.0078,-0.01758 0.0098,-0.01758 0.0098,-0.0039 0.01367,-0.0078 c 0.02424,-0.01257 0.17964,-0.05565 0.330079,-0.103516 l 0.03711,0.02148 c 0.143798,0.07711 0.352902,0.09748 0.5,0.05469 0.06798,-0.01978 0.08689,-0.04608 0.130859,-0.07227 0.0081,0.0062 0.01576,0.01399 0.07227,0.06055 0.06311,0.052 0.19474,0.133622 0.333984,0.166016 l 0.01172,0.0039 0.0098,0.002 c 0.175619,0.03251 0.249618,-0.0083 0.30664,-0.0293 0.01716,0.01753 0.02141,0.027 0.04687,0.04883 0.06754,0.05791 0.19246,0.15625 0.402344,0.15625 h 0.0059 0.0039 c 0.232743,-0.005 0.270842,-0.10197 0.349609,-0.181641 l 0.09961,0.140625 0.169922,0.0293 c 0.03769,0.04813 0.07083,0.10472 0.105469,0.130859 0.06243,0.04711 0.0491,0.03754 0.0078,0 0.140506,0.128336 0.24641,0.172927 0.314453,0.214844 -0.03807,-0.02909 -0.05845,-0.05553 -0.03516,-0.01758 0.02847,0.04639 0.08327,0.145649 0.177735,0.255859 l 0.01563,0.01758 0.01758,0.01758 c 0.209224,0.199622 0.474747,0.332389 0.759766,0.38086 0.313196,0.05558 0.487342,0.01628 0.394531,-0.0039 l 0.03125,0.0078 0.0332,0.002 c 0.107694,0.0089 0.208483,0.053 0.289062,0.125 l 0.01563,0.01367 0.01758,0.01172 c 0.09124,0.06899 0.06722,0.04096 0.05664,0.01172 -0.01404,0.05954 -0.05456,0.113454 0.02148,0.333984 0.0759,0.220809 0.152289,0.244568 0.21289,0.287109 l -0.02734,0.0918 0.08594,0.177735 c 0.09367,0.193593 0.244822,0.275606 0.324219,0.316406 0.0794,0.0408 0.118006,0.05638 0.115234,0.05469 h -0.0039 c 0.206002,0.127856 0.352383,0.130556 0.359375,0.132813 l -0.07031,-0.0293 c 0.139128,0.06961 0.242563,0.05709 0.316407,0.05078 0.03745,0.02996 0.09922,0.08634 0.236328,0.136719 l 0.002,0.002 h 0.002 c 0.05905,0.02096 0.08958,0.02693 0.123047,0.03516 0.03297,0.08234 0.04052,0.177816 0.242187,0.275391 0.171864,0.08364 0.242111,0.0603 0.296875,0.05859 0.05587,-0.0017 0.0934,-0.0066 0.125,-0.0098 0.06321,-0.0064 0.123025,0.0215 -0.0098,-0.01758 l 0.03711,0.0098 0.03906,0.0059 c 0.04171,0.0054 0.185163,0.08594 0.478515,0.08594 h 0.128906 c -0.0023,5.6e-4 0.0759,0.02653 0.207032,0.121094 0.133516,0.09628 0.302285,0.247714 0.570312,0.347656 l 0.0039,0.002 0.0039,0.002 c 0.06831,0.02399 0.07317,0.02358 0.111328,0.03516 0.0013,0.0032 0.0026,0.0026 0.0039,0.0059 0.02918,0.07474 0.05066,0.189864 0.05078,0.177735 0.0058,0.104683 0.01258,0.06753 -0.0625,0.146484 -0.07508,0.07895 -0.262098,0.206871 -0.433593,0.460938 -0.07935,0.117171 -0.09296,0.173193 -0.119141,0.232421 -0.02636,0.05962 -0.05529,0.11082 -0.04492,0.0957 l -0.002,0.002 v 0.002 c -0.0076,0.01123 -0.0219,-7.24e-4 -0.146484,0.146484 -0.123124,0.145479 -0.198186,0.412957 -0.1875,0.650391 0.0055,0.131335 0.04305,0.192415 0.07227,0.25 -0.01143,0.119501 -0.02836,0.23923 -0.05859,0.355469 l -0.002,0.0039 v 0.0059 c -0.06451,0.274104 -0.02742,0.404288 -0.0059,0.279297 v 0.002 l -0.002,0.002 c -0.0107,0.0642 -0.0046,0.113237 -0.002,0.16211 0.0039,-0.02004 0.0086,-0.03544 -0.0098,-0.002 -0.02556,0.04651 -0.062,0.109349 -0.09961,0.177734 l -0.002,0.002 -0.002,0.002 c -0.07577,0.141654 -0.117156,0.236388 -0.132812,0.259766 -0.01566,0.02338 0.023,-0.006 -0.0098,0.0059 -0.134562,0.04538 -0.323521,0.101703 -0.496093,0.16211 l -0.002,0.002 h -0.002 c 0.0024,-8.6e-4 -0.125623,0.02244 -0.291015,0.09961 h -0.002 c -0.10382,0.04893 -0.274051,0.121893 -0.449219,0.232422 -0.175168,0.110529 -0.397395,0.265599 -0.484375,0.591797 -0.07276,0.270995 0.0035,0.481966 0.03711,0.59375 0.02485,0.08277 0.02333,0.08102 0.02539,0.08594 -0.0034,0.0022 -0.0052,0.0045 -0.03711,0.0332 -0.04523,0.04069 -0.10349,0.08496 -0.179687,0.177735 -0.03135,0.03618 -0.223732,0.170022 -0.333984,0.482422 l -0.002,0.0039 -0.002,0.0039 c -0.0056,0.01695 -0.0015,0.0691 -0.0078,0.0957 -0.01391,0.02683 -0.0316,0.05539 -0.04687,0.08594 l -0.0059,0.01172 -0.0039,0.0098 c -0.0478,0.107521 -0.01881,0.118224 -0.01758,0.177735 -0.01449,0.01908 -0.03231,0.04579 -0.07031,0.08594 -0.05015,0.05297 -0.129047,0.07252 -0.0059,0.03711 0.0091,-0.0027 -0.02665,0.0024 -0.134765,-0.02734 -0.109624,-0.03019 -0.266688,-0.123483 -0.570313,-0.06445 l -0.492187,0.0957 0.09766,0.490234 c 0.03989,0.203426 0.17172,0.303662 0.265625,0.378906 0.0077,0.03511 0.02145,0.06297 0.03516,0.09766 -0.0246,0.004 -0.04254,0.0068 -0.06836,0.01172 h -0.002 c 0.03287,-0.0062 -0.08165,0.0064 -0.191407,0.01953 -0.05488,0.0066 -0.114852,0.01399 -0.191406,0.03516 -0.07655,0.02116 -0.191362,0.02339 -0.337891,0.21875 l -0.0039,0.0059 -0.002,0.0039 c -0.06866,0.09613 -0.05933,0.161701 -0.07031,0.238282 -0.07421,-0.0023 -0.118534,-0.03459 -0.21875,0.0078 l -0.273438,0.115235 -0.0293,0.294921 c -0.02492,0.248924 0.07158,0.350048 0.109375,0.408204 0.0378,0.05816 0.06051,0.09627 0.03125,0.04102 l 0.08594,0.164063 0.173828,0.06641 c 0.68505,0.267272 1.417999,0.60257 2.242187,0.771484 0.409344,0.08301 0.815774,0.12685 1.205078,0.171875 0.511783,0.05808 1.030603,0.08594 1.552735,0.08594 0.980308,0.01829 1.96014,-0.06887 2.921875,-0.259766 l 0.0059,-0.002 h 0.0059 c 1.698368,-0.38014 3.30799,-1.082438 4.742187,-2.068359 0.738728,-0.507251 1.428895,-1.083122 2.060547,-1.71875 l 0.0039,-0.0039 1.507813,-1.496093 -1.324219,0.314453 c 0.02238,-0.07408 0.04113,-0.114377 0.05664,-0.21875 0.01538,-0.1035 0.02621,-0.230169 -0.01953,-0.386719 -0.01054,-0.03608 -0.06059,-0.06041 -0.08008,-0.09766 0.0015,-0.112196 0.0089,-0.239026 0.002,-0.314453 -0.01118,-0.121342 -0.02189,-0.236918 0,-0.521485 l 0.002,-0.0078 v -0.0078 c 0.01552,-0.337469 -0.08163,-0.607823 -0.148437,-0.802734 -0.06192,-0.180654 -0.09103,-0.295155 -0.09375,-0.421875 0.0341,-0.03974 0.106667,-0.107754 0.201172,-0.216797 l 0.03125,-0.03516 0.02148,-0.03906 c 0.300243,-0.507685 0.497538,-0.909641 0.566406,-1.435547 l 0.01367,-0.113281 -0.0293,-0.08789 c 0.01367,-0.07543 0.04701,-0.164131 -0.02734,-0.324219 -0.127961,-0.278793 -0.23664,-0.569227 -0.492188,-0.863281 l -0.002,-0.002 -0.002,-0.002 c -0.15635,-0.175895 -0.291917,-0.282399 -0.3125,-0.308593 l -0.0039,-0.0039 -0.002,-0.0059 c -8.67e-4,-0.0011 -0.016,-0.02259 -0.02539,-0.03711 0.01274,-0.02964 0.02172,-0.03797 0.03711,-0.09375 v -0.002 c 0.05758,-0.21305 0.01668,-0.308679 0.0098,-0.371093 -0.0019,-0.01726 -0.0015,-0.0051 -0.002,-0.01563 0.0066,-0.0092 0.0079,-0.01045 0.01563,-0.02148 0.05746,-0.08242 0.195164,-0.209588 0.158203,-0.527343 C 41.747484,38.976127 41.633814,38.88554 41.523437,38.773437 41.413061,38.661335 41.296921,38.555105 41.072266,38.5 h -0.002 c -0.266794,-0.0648 -0.3553,-0.02453 -0.464843,-0.0078 -0.01434,-0.02105 0.01077,0.0074 -0.02344,-0.04883 -0.08445,-0.138844 -0.311916,-0.403643 -0.638672,-0.451172 h -0.002 l -0.002,-0.002 c -0.593362,-0.08241 -1.083663,0.173286 -1.345703,0.28711 l 0.02734,-0.0098 c -0.05113,0.01883 -0.150557,0.02715 -0.279297,0.04883 0.05687,-0.0046 -0.08363,-0.02708 -0.273438,-0.06836 l -0.03125,-0.0078 -0.0332,-0.002 c -0.332318,-0.02768 -0.542279,0.0738 -0.623047,0.08789 -0.298927,0.04883 -0.385342,0.128785 -0.373047,0.144531 0.01636,1.7e-5 0.03726,0.0087 -0.01563,-0.0332 -0.07431,-0.05884 -0.16144,-0.15361 -0.298828,-0.261719 -0.146461,-0.114799 -0.210224,-0.13443 -0.25,-0.164062 -0.115624,-0.09062 -0.194946,-0.111074 -0.257812,-0.132813 -0.01524,-0.07174 -0.02036,-0.168877 -0.08594,-0.328125 v -0.002 h -0.002 c -0.172184,-0.413244 -0.444367,-0.499054 -0.523437,-0.578125 -0.09699,-0.09699 -0.165747,-0.142893 -0.226563,-0.189453 0.0173,-0.05691 0.04599,-0.04807 0.03906,-0.154297 -0.0089,-0.130796 -0.06606,-0.144981 -0.115235,-0.220703 0.03048,-0.04259 0.05722,-0.06116 0.09375,-0.173828 v -0.002 -0.002 c 0.03199,-0.101294 0.0152,-0.128968 0.0098,-0.183594 -0.01539,0.05348 -0.01792,0.04769 0.04102,-0.04492 0.06428,-0.101018 0.160425,-0.316931 0.138671,-0.546875 v -0.002 C 35.54418,35.345956 35.521801,35.323868 35.5,35.277344 c 0.02647,-0.07089 0.05582,-0.142565 0.04883,-0.234375 -0.01513,-0.152424 -0.08612,-0.196552 -0.154297,-0.277344 0.01033,0.09159 9.34e-4,0.07729 0.09961,-0.101563 l 0.002,-0.002 v -0.0039 c 0.06041,-0.112179 0.06468,-0.166337 0.07422,-0.212891 3.63e-4,-2.73e-4 0.0016,-0.0017 0.002,-0.002 0.0521,-0.03924 0.175068,-0.127374 0.259765,-0.289062 l 0.0039,-0.0098 0.0059,-0.0098 c 0.09769,-0.208418 0.134137,-0.324452 0.05664,-0.199219 -0.04275,0.07055 0.051,-0.01939 0.19336,-0.177735 0.06715,-0.07409 0.08648,-0.121284 0.113281,-0.169921 0.03739,-0.0077 0.0611,-0.0074 0.136719,-0.04102 0.33665,-0.149153 0.604118,-0.418628 0.751953,-0.755859 l 0.06055,-0.134766 -0.01563,-0.0918 c 0.01853,-0.02114 0.03984,-0.03897 0.09375,-0.128906 v -0.002 c 0.07474,-0.123489 0.09955,-0.203571 0.11914,-0.251953 0.01943,-0.0053 0.03269,-0.0095 0.125,-0.03906 0.123014,-0.03936 0.331971,-0.143286 0.47461,-0.339844 0.06055,0.01258 0.115867,0.05469 0.18164,0.05469 h 0.03516 l 0.03516,-0.0059 c 0.06798,-0.0096 0.118333,0.08013 0.46875,-0.0098 l 0.0078,-0.002 0.0098,-0.0039 c 0.194562,-0.05765 0.237604,-0.122058 0.287109,-0.160156 0.04951,-0.0381 0.09442,-0.05863 0.03125,-0.0293 l -0.03125,0.01367 c 0.0714,-0.02756 0.140376,-0.06208 0.207032,-0.09961 l 0.03906,-0.01953 0.109375,-0.05273 c 0.06749,-0.02934 0.150346,-0.06663 0.222656,-0.09375 0.07231,-0.02712 0.155587,-0.03125 0.07617,-0.03125 h 0.03711 l 0.03516,-0.0059 c 0.04093,-0.006 0.232418,0.04036 0.566406,0.002 l -0.05664,0.0039 h 0.708984 c -0.06439,0.114553 -0.15497,0.222199 -0.105469,0.388672 l 0.01953,0.07031 0.04102,0.06055 c 0.10299,0.157914 0.236618,0.291542 0.394531,0.394532 l 0.02344,0.01563 0.02734,0.01367 c 0.273539,0.136747 0.377306,0.06142 0.445312,0.05273 0.06801,-0.0087 0.107698,0.02136 -0.03125,-0.01953 l -0.02734,-0.0098 c 0.08059,0.02879 0.178246,0.02898 0.25586,0.02734 0.06277,0.01497 0.12078,0.04212 0.177734,0.07227 0.0435,0.09463 0.156787,0.301249 0.398438,0.390625 0.176849,0.06401 0.263365,0.04034 0.3125,0.02734 0.01529,0.0046 0.06659,0.02756 0.162109,0.07227 0.09653,0.04518 0.262407,0.128414 0.513672,0.08984 0.143953,-0.02067 0.317689,-0.09332 0.425781,-0.220704 0.111638,-0.131562 0.143875,-0.269554 0.15625,-0.363281 0.0059,-0.04449 -6.77e-4,-0.02087 0.002,-0.05469 l 0.400391,-0.119141 -0.275391,-0.537109 c -0.136554,-0.2653 -0.286751,-0.419396 -0.34375,-0.519532 -0.209948,-0.366743 -0.426697,-0.747854 -0.689453,-1.11914 l -0.876953,-1.238281 -0.01367,0.642578 c 0.05985,0.02275 -0.01852,-0.03937 -0.189453,-0.132813 -0.105346,-0.05985 -0.199124,-0.135589 -0.28125,-0.224609 -0.02149,-0.033 -0.06204,-0.107275 -0.154297,-0.212891 -0.104455,-0.119576 -0.308263,-0.288842 -0.589844,-0.294922 -0.08758,-0.0021 -0.12491,0.0093 -0.113281,0.0078 l -0.208984,0.02734 -0.04883,0.06641 c -0.05286,0.01942 -0.110492,0.02377 -0.160157,0.05078 -0.08188,0.04203 -0.09714,0.0729 -0.132812,0.111328 -0.02412,-0.0021 -0.01833,-0.0059 -0.05664,-0.0059 -0.101556,0 -0.261181,-0.04092 -0.513672,0.01172 -0.148723,0.02936 -0.287205,0.09634 -0.40039,0.197265 l -0.08789,0.07813 c 0.01953,-0.182591 0.02907,-0.365237 0,-0.546875 l -0.0098,-0.05664 -0.02148,-0.05469 c -0.01749,-0.04296 -0.06026,-0.06869 -0.08203,-0.109375 0.107497,-0.0381 0.23107,-0.07741 0.267578,-0.111328 0.05437,-0.05052 0.08465,-0.09204 0.113281,-0.126953 0.02591,-0.03159 0.04721,-0.05411 0.06055,-0.07031 l 0.183594,-0.123047 c 0.0052,-0.0031 0.04982,-0.0255 0.103515,-0.05078 0.153388,-0.06396 0.207628,-0.145474 0.234375,-0.177734 0.02675,-0.03226 0.02899,-0.03135 -0.0098,0.0039 l 0.455078,-0.414062 -0.498047,-0.359375 c -0.116064,-0.08404 -0.21198,-0.136529 -0.25,-0.164063 l -0.931641,-0.675781 0.05273,0.429687 c -0.05204,-0.08081 -0.106849,-0.134178 -0.150391,-0.167968 -0.09052,-0.07025 -0.145573,-0.09376 -0.171875,-0.107422 -0.0335,-0.03362 -0.04264,-0.05507 -0.08398,-0.08008 v -0.0078 c 1.1e-4,2.8e-5 0.01799,0.01631 0.0059,0 -5.8e-4,-7.8e-4 -0.0053,-0.005 -0.0059,-0.0059 v -0.189453 l -0.265625,-0.140625 c -0.329256,-0.175081 -0.653738,-0.357717 -1.035156,-0.519532 -0.656922,-0.27761 -1.354919,-0.513308 -2.064454,-0.6875 l -0.0039,-0.002 c -0.356967,-0.08999 -0.703557,-0.19113 -1.121094,-0.257812 h -0.002 c -0.106887,-0.01644 -0.238084,-0.04981 -0.398437,-0.08008 l -0.04492,-0.0078 H 33.34375 c -0.440061,-0.04426 -0.872317,-0.08203 -1.347656,-0.08203 z m -5.6875,0.722656 -0.128906,0.683594 -0.0039,0.002 -0.002,0.0059 c -0.435424,0.196089 -0.869796,0.387595 -1.304688,0.654297 0.0025,-0.0044 -0.05237,0.0051 -0.179687,0.08789 l -0.04297,0.0293 -0.03711,0.03711 c 0.03393,-0.03393 0.01919,-0.01913 -0.01758,0.01172 -0.03677,0.03085 -0.14615,0.05023 -0.201172,0.326172 l -0.04492,0.216797 v 0.0039 c -0.01381,0.04862 -0.04687,0.0743 -0.04687,0.126953 0,0.31839 0.126817,0.404718 0.232421,0.511719 0.10204,0.103389 0.209295,0.222036 0.5,0.230468 0.224236,0.0112 0.369441,-0.04935 0.507813,-0.130859 0.144247,-0.08497 0.290246,-0.187611 0.386719,-0.421875 0.05837,-0.142413 0.03515,-0.194398 0.0332,-0.279297 0.181643,-0.03055 0.370385,-0.02393 0.537109,-0.117187 0.176846,-0.09892 0.250135,-0.324556 0.365235,-0.509766 l 0.01953,-0.0098 0.183594,-0.08203 0.429687,-0.191406 z m 5.726563,0.277344 c 0.42691,8.33e-4 0.825068,0.03589 1.261718,0.08008 l 0.02539,0.002 h 0.304688 c 0.112884,0.02269 0.23564,0.05252 0.388671,0.07617 0.346092,0.05527 0.654931,0.144495 1.035157,0.240234 h 0.002 l 0.002,0.002 c 0.654618,0.160471 1.304276,0.380155 1.916016,0.638672 0.03471,0.01473 0.06927,0.03735 0.103515,0.05273 -0.01855,0.0082 -0.0194,0.0046 -0.04102,0.01563 -0.113583,0.05812 -0.316047,0.225607 -0.355469,0.46875 -0.01379,0.08548 0.01744,0.18132 0.04492,0.269531 -0.01552,0.04888 -0.03186,0.07421 -0.04297,0.136719 l -0.0332,0.1875 0.09961,0.162109 c 0.09734,0.158409 0.310538,0.299725 0.494141,0.320313 0.183603,0.02059 0.307521,-0.02733 0.398437,-0.06445 0.129131,-0.05273 0.139562,-0.06482 0.152344,-0.07813 0.0035,0.0224 -0.02285,0.04715 -0.01563,0.06641 l 0.03711,0.09961 c -0.04615,0.06984 -0.125453,0.114534 -0.142578,0.1875 l -0.04102,0.173828 0.07813,0.160156 c 0.08252,0.167982 0.239588,0.274596 0.353515,0.320313 0.113928,0.04572 0.200427,0.05474 0.265625,0.0625 0.09577,0.0114 0.07403,0.0069 0.04883,-0.0098 0.0143,0.01545 0.02608,0.03286 0.03711,0.05078 6.18e-4,0.0065 -5e-4,0.01305 0,0.01953 -0.03646,-5.81e-4 -0.03695,-0.0015 -0.08203,-0.002 h -0.0039 -0.152343 c -0.140208,-0.01083 -0.321848,-0.06013 -0.5625,-0.07813 -0.123253,-0.0092 -0.270364,-0.0108 -0.435547,0.04492 -0.165184,0.05572 -0.337334,0.185725 -0.439453,0.347656 l -0.08398,0.136719 0.0078,0.160156 c 0.01569,0.26665 0.03518,0.351553 0.01563,0.427734 0.0312,-0.120377 0.02395,-0.05809 -0.04102,0.01953 -0.0645,0.07705 -0.241889,0.182092 -0.220703,0.548829 0.0117,0.194212 0.08482,0.275556 0.123047,0.326171 0.02906,0.03848 0.04549,0.05405 0.0625,0.07227 -0.0018,0.06136 -0.02675,0.08846 0.02539,0.199219 l 0.0059,0.01172 0.0059,0.0098 c 0.04732,0.08919 0.176018,0.148294 0.289063,0.210938 -0.03993,0.01671 -0.04933,0.0087 -0.0957,0.03516 h -0.002 c -0.211636,0.122104 -0.301453,0.302217 -0.351562,0.412109 -0.05011,0.109892 -0.07763,0.178176 -0.07617,0.175782 l -0.002,0.0039 -0.002,0.002 c -0.0085,0.0144 -0.04611,0.04752 -0.125,0.177734 -0.07889,0.130213 -0.13786,0.370988 -0.105469,0.570313 l 0.03711,-0.28125 c -0.04769,0.108782 -0.135545,0.196027 -0.24414,0.24414 0.04808,-0.02136 0.02275,-0.0081 -0.03711,0.0059 -0.05906,0.01377 -0.163502,0.02913 -0.298828,0.125 -0.19676,0.139066 -0.198403,0.227272 -0.224609,0.27539 -0.02641,0.04849 -0.04327,0.0666 -0.02539,0.04687 v 0.002 h -0.002 c -0.03742,0.0417 -0.145657,0.07456 -0.298828,0.316406 l -0.002,0.0039 -0.0039,0.0039 c -0.134839,0.221565 -0.107742,0.258516 -0.0918,0.253907 -0.04648,0.03429 -0.141104,0.0974 -0.228516,0.228515 l -0.002,0.002 -0.002,0.002 c -0.104799,0.161158 -0.09368,0.225206 -0.105469,0.273438 -0.01179,0.04823 -0.02941,0.07554 0.0039,0.01367 -0.06263,0.110422 -0.270939,0.303372 -0.224609,0.707031 1.16e-4,0.001 -1.19e-4,9.38e-4 0,0.002 0.01519,0.126256 0.07762,0.154814 0.136719,0.234375 -0.02121,0.05997 -0.05747,0.05617 -0.05469,0.138672 0.0042,0.12404 0.03926,0.191882 0.06641,0.253906 -0.03162,0.03891 -0.08568,0.09006 -0.132813,0.251953 -2.69e-4,9.24e-4 2.64e-4,0.001 0,0.002 -0.02197,0.07672 -0.0097,0.106853 -0.0078,0.162109 -1.5e-4,-0.004 0.0084,-0.02155 -0.02344,0.02734 -0.04776,0.07335 -0.143667,0.189939 -0.154297,0.423828 v 0.0039 0.0039 c -0.006,0.182658 0.08181,0.319381 0.136719,0.386719 -0.02554,0.07185 -0.07189,0.08365 -0.04102,0.230469 0.06916,0.329033 0.236505,0.410581 0.34375,0.5 0.108011,0.09006 0.209617,0.168601 0.205078,0.164062 0.222267,0.222268 0.34349,0.342729 0.306641,0.251953 -0.01216,-0.02954 0.01431,0.06649 0.04102,0.183594 0.0267,0.117107 0.03905,0.283208 0.234375,0.478516 l 0.0039,0.0039 0.002,0.002 c 0.148629,0.143517 0.268014,0.16775 0.332031,0.191406 0.06402,0.02366 0.07938,0.03941 0.03906,0.0078 l 0.002,0.002 0.002,0.002 c 0.146383,0.112916 0.198601,0.122931 0.246094,0.160156 0.02468,0.01942 0.142145,0.140756 0.294922,0.261719 0.152776,0.120963 0.376923,0.282055 0.71289,0.257813 l 0.03125,-0.002 0.0293,-0.0059 c 0.341534,-0.067 0.443381,-0.167561 0.396485,-0.160156 h 0.002 l 0.0039,-0.002 c 0.230963,-0.03916 0.382098,-0.07429 0.371094,-0.07617 0.07137,0.02533 0.206184,0.101759 0.490234,0.08398 l 0.0332,-0.0039 0.0332,-0.0059 c 0.0697,-0.01395 0.24995,-0.01501 0.490235,-0.103516 l 0.01367,-0.0039 0.01367,-0.0059 c 0.248042,-0.107743 0.578365,-0.205525 0.761719,-0.199218 0.04342,0.0815 0.10746,0.258013 0.34961,0.412109 l 0.0957,0.0625 0.115234,0.01172 c 0.237257,0.02697 0.268662,0.0064 0.34375,-0.0059 -0.0099,0.02618 -0.01825,0.02104 -0.02734,0.06055 -0.04162,0.176648 -0.02261,0.315762 -0.01367,0.396485 0.009,0.08152 -0.01344,0.114749 0.01758,0 0.0079,-0.02892 -0.0042,0.0027 -0.0293,0.0625 -0.02503,0.05951 -0.0713,0.153879 -0.06836,0.326172 0.0024,0.241983 0.06103,0.286089 0.107422,0.376953 0.04563,0.08938 0.09569,0.171275 0.164063,0.255859 0.153066,0.194793 0.290247,0.288336 0.347656,0.351563 0.120513,0.138671 0.18919,0.31183 0.308594,0.574218 -0.0087,0.07407 -0.03028,0.131774 0.0098,0.251953 l -0.02148,-0.222656 c -0.0466,0.355839 -0.15458,0.574447 -0.419922,1.025391 -0.04563,0.04732 -0.106532,0.102514 -0.189453,0.203125 -0.09927,0.120453 -0.22553,0.320312 -0.224609,0.582031 -0.0044,0.332664 0.08911,0.600813 0.154296,0.791016 0.06615,0.193005 0.09949,0.306821 0.09375,0.43164 l 0.002,-0.01563 c -0.02594,0.337133 -0.01274,0.553152 0,0.691407 0.01274,0.138254 0.02069,0.1569 0.0039,0.273437 l -0.05273,0.353516 0.117188,0.06055 c -0.01511,0.05165 -0.0257,0.08942 -0.04687,0.164062 -0.02701,0.0769 -0.04395,0.10567 -0.08398,0.167969 -0.04153,0.06462 -0.122819,0.185454 -0.169922,0.351562 l -0.119141,0.421875 0.01758,0.0078 c -0.462576,0.42449 -0.925375,0.849401 -1.443359,1.205078 -1.328229,0.913075 -2.819785,1.56169 -4.392578,1.914062 -6.95e-4,1.38e-4 -0.0013,0.0018 -0.002,0.002 -0.890719,0.175933 -1.797298,0.255862 -2.705079,0.238281 h -0.0059 -0.0039 c -0.487463,0 -0.968209,-0.02464 -1.439453,-0.07813 -0.391805,-0.04532 -0.768633,-0.08908 -1.119141,-0.160156 -0.412595,-0.08456 -0.840032,-0.274089 -1.261719,-0.4375 0.0451,-0.0071 0.08737,-0.01406 0.144532,-0.02344 0.08725,-0.01431 0.161069,-0.01437 0.314453,-0.08594 l 0.0293,-0.01367 0.02734,-0.01758 c 0.199294,-0.126832 0.254911,-0.252981 0.314453,-0.392579 0.05789,-0.135734 0.09559,-0.289916 0.08008,-0.478515 0.241822,-0.08052 0.32996,-0.187637 0.429687,-0.292969 0.106105,-0.112068 0.189209,-0.207023 0.265625,-0.359375 v -0.002 c 0.07339,-0.148156 0.03464,-0.151925 0.02539,-0.208984 0.0074,-0.01415 0.01132,-0.02314 0.01953,-0.03906 0.01823,-0.03535 0.02205,-0.01731 0.06445,-0.144531 l 0.0059,-0.01563 0.0039,-0.01758 c 0.0041,-0.0158 0.004,-0.04745 0.0078,-0.06641 0.0013,0.01326 0.02943,-0.01852 0.142578,-0.154296 v -0.002 l 0.002,-0.002 c -0.0151,0.01838 0.02367,-0.02289 0.07422,-0.06836 0.04905,-0.04413 0.110445,-0.09308 0.1875,-0.197266 0.05135,-0.06863 0.0979,-0.163633 0.117188,-0.216797 0.0035,-0.0061 0.02504,-0.06397 0.0078,-0.01172 l 0.03711,-0.06641 0.01563,-0.08789 c 0.04339,-0.263202 -0.03069,-0.462424 -0.0625,-0.56836 -0.03181,-0.105935 -0.01446,-0.105958 -0.03125,-0.04492 v -0.002 -0.002 c -0.02322,0.08708 -0.0304,0.04855 0.05273,-0.0039 0.08276,-0.05222 0.213071,-0.112151 0.339844,-0.171875 -0.0059,0.0027 0.07471,-0.01593 0.205078,-0.0625 l 0.0039,-0.002 c 0.142558,-0.04975 0.328967,-0.107405 0.490234,-0.162109 h 0.0059 l 0.0039,-0.002 c 0.216978,-0.07847 0.401613,-0.243705 0.5,-0.390625 0.09839,-0.146919 0.139102,-0.256916 0.185547,-0.34375 l -0.0039,0.0039 c 0.02084,-0.03789 0.06107,-0.102107 0.101562,-0.175782 0.04049,-0.07367 0.08926,-0.127823 0.121094,-0.3125 l 0.002,-0.0039 v -0.0039 c 0.01046,-0.06849 0.0035,-0.115512 0,-0.158203 l -0.002,0.0039 c 0.04814,-0.279091 0.01613,-0.314142 -0.0059,-0.220703 0.04888,-0.190359 0.07985,-0.384022 0.09375,-0.580078 l 0.002,-0.01758 v -0.01758 c 0,-0.14068 -0.04637,-0.225199 -0.07813,-0.291016 0.02664,-0.01842 0.0692,-0.04392 0.158203,-0.173828 l 0.002,-0.0039 c 0.07176,-0.105712 0.103838,-0.188365 0.132812,-0.253907 0.02942,-0.06654 0.0688,-0.128522 0.0332,-0.07617 v -0.002 c 0.04371,-0.06475 0.161298,-0.152589 0.330078,-0.330078 0.168779,-0.177489 0.358707,-0.511764 0.33789,-0.890625 v -0.002 l -0.002,-0.0039 c -0.01201,-0.181413 -0.05421,-0.319157 -0.117187,-0.480469 -0.03149,-0.08066 -0.06751,-0.161263 -0.121094,-0.246094 -0.05304,-0.08398 -0.108355,-0.191144 -0.308594,-0.279297 -0.13649,-0.06007 -0.213302,-0.07215 -0.277344,-0.09375 l -0.0039,-0.002 c -9.4e-4,-3.23e-4 -0.003,-0.0016 -0.0039,-0.002 -0.04786,-0.01951 -0.166272,-0.101494 -0.326172,-0.216797 -0.16344,-0.117855 -0.380688,-0.281586 -0.712891,-0.308593 l -0.02148,-0.002 h -0.185547 c 0.0308,0 -0.118679,-0.03429 -0.28125,-0.0625 -0.130362,-0.03675 -0.164696,-0.01923 -0.222656,-0.01172 -0.02899,-0.05781 -0.0033,-0.08497 -0.126953,-0.169922 -0.134035,-0.09246 -0.209864,-0.09977 -0.267578,-0.115235 -0.0561,-0.01503 -0.09155,-0.02293 -0.09375,-0.02344 l -0.0039,-0.002 c 0.02483,0.0098 0.03423,0.0155 -0.0332,-0.0332 -0.07344,-0.05304 -0.247799,-0.151919 -0.441406,-0.16211 h -0.01172 -0.01367 c -0.06891,0 -0.06366,0.004 -0.08203,0.0078 -0.02375,-0.0061 -0.09891,-0.03216 -0.07227,-0.01563 h -0.002 -0.002 c -0.08122,-0.04964 -0.121235,-0.06533 -0.146484,-0.07617 -0.0409,-0.102361 -0.02502,-0.2539 -0.07227,-0.302734 -0.08261,-0.0854 -0.05347,-0.03697 -0.04492,-0.01367 0.01454,-0.05649 0.06166,-0.110248 -0.02734,-0.34961 -0.113263,-0.309691 -0.305291,-0.392048 -0.400391,-0.458984 -0.234259,-0.203822 -0.526993,-0.326936 -0.835937,-0.357422 -0.265658,-0.04299 -0.410973,-0.0083 -0.386719,-0.0039 h -0.0039 l -0.0039,-0.002 c -0.08329,-0.0139 -0.157536,-0.05372 -0.220703,-0.109375 -0.01578,-0.02188 -0.02987,-0.04325 -0.06445,-0.09961 -0.04406,-0.0718 -0.113776,-0.197417 -0.283203,-0.302734 -0.08036,-0.05053 -0.09654,-0.06171 -0.121094,-0.07617 l 0.109375,-0.222656 -0.443359,-0.220703 c -0.03478,-0.01738 -0.124718,0.01332 -0.185547,0.002 -0.0232,-0.02299 -0.01889,-0.03246 -0.04883,-0.05664 -0.155288,-0.125436 -0.434413,-0.199247 -0.660156,-0.158203 l -0.01563,0.0039 -0.01563,0.0039 C 25.616404,36.89719 25.631533,36.944099 25.578125,37 c -0.06534,-0.05779 -0.0842,-0.112584 -0.230469,-0.142578 -0.183621,-0.03815 -0.257506,0.0045 -0.333984,0.03906 -0.02645,-0.02185 -0.02876,-0.02893 -0.07031,-0.05664 l -0.002,-0.002 h -0.002 c 4.39e-4,2.87e-4 -0.05502,-0.04157 -0.115234,-0.08594 -0.03011,-0.02218 -0.06084,-0.04593 -0.109375,-0.07422 -0.04597,-0.02679 -0.09469,-0.08858 -0.3125,-0.08203 -0.02681,8.08e-4 -0.03051,0.01583 -0.05469,0.01953 -0.08611,-0.065 -0.191377,-0.146281 -0.355469,-0.132812 -0.20284,0.01665 -0.315727,0.13055 -0.363281,0.18164 -0.09511,0.102182 -0.106616,0.07204 0.04297,-0.01172 l -0.01367,0.0059 -0.01172,0.0098 c 0.06703,-0.0431 0.02257,-0.02749 -0.148437,0.0332 l -0.0039,0.002 h -0.0039 c -0.114074,0.04299 -0.293407,0.06308 -0.535156,0.183594 -0.178439,0.0825 -0.301962,0.238387 -0.404297,0.404297 -0.254527,-0.08434 -0.525812,-0.07283 -0.675781,-0.02539 -0.158802,0.05023 -0.210603,0.06725 -0.205078,0.06836 0.117086,-2.06e-4 0.02988,-0.0012 -0.02734,-0.05859 -0.05733,-0.05749 -0.0442,-0.145053 -0.05078,0.002 0.0026,-0.02579 0.05508,-0.231763 0.07813,-0.47461 -0.01015,0.101491 -0.01335,0.05564 0.02734,-0.01758 0.0407,-0.07322 0.136652,-0.167056 0.142578,-0.433594 v -0.002 -0.002 c 0.0033,-0.198746 -0.102332,-0.375994 -0.199219,-0.470703 -0.09689,-0.09471 -0.188005,-0.141002 -0.267578,-0.175781 -0.157556,-0.06886 -0.285322,-0.0909 -0.357422,-0.103516 h -0.0039 c -0.05637,-0.0099 -0.07392,0.0059 -0.123047,0.0039 0.05082,-0.136153 0.03071,-0.192513 0.01953,-0.255859 0.04254,-0.03965 0.13789,-0.07208 0.179688,-0.34375 l 0.002,-0.0098 v -0.0078 c 0.03033,-0.259615 -0.08301,-0.410282 -0.15625,-0.503906 -0.07324,-0.09362 -0.140139,-0.149634 -0.191407,-0.191407 l -0.166015,-0.134765 -0.210938,0.02539 c -0.160041,0.01929 -0.333583,0.03778 -0.53125,0.09961 0.0988,-0.312635 0.18756,-0.627549 0.310547,-0.931641 l -0.02539,-0.0039 c 0.0042,4.59e-4 0.0055,-0.0043 0.0098,-0.0039 0.0099,9.69e-4 0.0053,0.0072 0.01563,0.0078 0.002,-0.005 0.0019,-0.01065 0.0039,-0.01563 0.281214,0.01277 0.555292,-0.152572 0.654297,-0.257812 0.05593,-0.05945 0.04026,-0.04672 0.05469,-0.0625 0.03487,-0.0019 0.09272,0.0042 0.117187,0.002 0.06472,-0.006 0.08057,-0.0062 0.105469,-0.0039 -0.02291,-0.0036 0.01915,0.0092 0.08789,0.04297 0.06103,0.03001 0.15742,0.07166 0.292968,0.101563 -0.01372,0.08109 -0.05438,0.114294 -0.02148,0.238281 l 0.0332,0.126953 0.0918,0.09375 c 0.171661,0.175319 0.335765,0.222819 0.466797,0.267578 0.131032,0.04476 0.242168,0.07628 0.279297,0.0918 l 0.28125,0.117188 0.234375,-0.195313 c 0.112407,-0.09452 0.192521,-0.241773 0.21875,-0.365234 0.02623,-0.123461 0.01584,-0.219187 0.0039,-0.291016 -0.02163,-0.130214 -0.04239,-0.187456 -0.04492,-0.1875 3.75e-4,-0.01277 8.95e-4,-0.02852 0.002,-0.06641 0.0015,-0.05237 0.0086,-0.09283 -0.0078,-0.207031 -0.01532,-0.106657 -0.04138,-0.15128 -0.06445,-0.199219 9.14e-4,-7.81e-4 -0.0086,-0.0037 0.01367,-0.02344 0.04319,-0.03817 0.156612,-0.101936 0.30664,-0.189453 0.115289,-0.06749 0.184379,-0.130993 0.240235,-0.177734 0.054,-0.04519 0.09608,-0.07026 0.06055,-0.05273 -0.0034,0.0016 -0.03607,0.007 0.0098,0.002 0.04584,-0.005 0.182198,-0.0169 0.324219,-0.08789 l 0.01172,-0.0059 0.01172,-0.0059 c 0.302421,-0.171098 0.47045,-0.379692 0.570313,-0.460937 l 0.09766,-0.08008 0.04687,-0.117188 c 0.06692,-0.161112 0.04843,-0.271339 0.04297,-0.384765 0.112779,-0.06781 0.24571,-0.136578 0.289062,-0.19336 0.043,-0.05633 0.03456,-0.05173 0.03906,-0.06055 0.04244,-0.01567 0.07226,-0.01585 0.144531,-0.07227 l 0.002,-0.002 c 0.110409,-0.08717 0.165945,-0.171506 0.197266,-0.214844 l 0.02148,-0.01367 c 0.01233,-0.0084 0.02487,-0.01496 0.03906,-0.01953 l 0.0039,-0.002 h 0.002 c -0.04161,0.01387 0.138051,-0.0086 0.349609,-0.08789 -0.03508,0.01334 0.02819,-0.0026 0.09961,-0.01563 0.03855,-0.007 0.07955,-0.01501 0.132812,-0.0293 0.05146,-0.0138 0.110578,0.01797 0.28125,-0.160156 0.147497,-0.15335 0.154391,-0.292198 0.158203,-0.367188 0.0013,-0.02647 -0.0012,-0.03478 -0.002,-0.05469 0.07117,-0.0216 0.192176,-0.05163 0.333985,-0.09766 0.08319,0.08209 0.190661,0.158458 0.294922,0.177734 0.24138,0.04463 0.361728,-0.03653 0.447265,-0.08203 0.08554,-0.04551 0.142631,-0.08973 0.183594,-0.119141 0.04096,-0.02941 0.1046,-0.05035 -0.0098,-0.0039 l 0.0039,-0.002 0.0039,-0.002 c 0.12507,-0.05332 0.415663,-0.155523 0.636719,-0.238282 l 0.0078,-0.002 c 0.04759,-0.01576 0.18294,-0.03179 0.378906,-0.146484 0.09991,-0.05848 0.258575,-0.176331 0.3125,-0.408203 0.0054,-0.02342 -0.01801,-0.03372 -0.01563,-0.05664 0.03538,0.0069 0.08569,0.0464 0.113282,0.04883 0.118976,0.01049 0.185276,0.006 0.21875,0.0098 l -0.136719,-0.03516 c 0.189186,0.07887 0.283686,0.05189 0.353515,0.04687 0.06983,-0.005 0.123329,-0.0078 0.08984,-0.0078 l -0.158203,-0.02539 c 0.0927,0.03091 0.111394,0.01079 0.169922,0.0098 0.01761,0.02549 0.02087,0.03815 0.05273,0.07227 0.07432,0.07958 0.2408,0.193359 0.435547,0.193359 0.143172,0 0.360445,-0.06426 0.488281,-0.232422 0.127837,-0.168158 0.129339,-0.345516 0.113282,-0.458984 -0.0095,-0.06713 -0.04855,-0.08774 -0.06641,-0.138672 0.03651,-0.09295 0.118845,-0.307512 -0.0078,-0.558594 -0.03948,-0.07764 -0.119298,-0.08258 -0.1875,-0.134765 l -0.0059,-0.0625 c 0.05593,-0.0831 0.191529,-0.296342 0.166015,-0.542969 l -0.002,-0.0098 v -0.0078 c -0.0275,-0.197928 -0.250839,-0.41551 -0.314453,-0.451172 -0.06361,-0.03566 0.009,0.0013 0.04687,0.05078 l 0.0098,0.01172 c 0.132207,0.183077 0.05541,0.116165 0.04297,0.05859 -0.0062,-0.02879 -0.01204,-0.0652 -0.0293,-0.119141 -0.01725,-0.05394 -0.02126,-0.132047 -0.160156,-0.261719 l -0.0098,-0.0078 -0.0098,-0.0078 c -0.122285,-0.10347 -0.154409,-0.07875 -0.238281,-0.09961 0.0046,-0.07829 0.01598,-0.114273 -0.002,-0.25 v -0.002 c -0.01612,-0.117397 -0.05369,-0.239766 -0.09961,-0.375 0.693691,-0.125284 1.394456,-0.209325 2.09961,-0.214844 H 32 Z m -5.542969,0.267578 c -0.0024,6.51e-4 -0.04678,0.01734 -0.06836,0.02539 v -0.002 c -9.5e-4,4.24e-4 0.07135,-0.02425 0.06836,-0.02344 z m 12.173828,1.072266 0.002,0.01367 c -3.47e-4,-0.0032 -0.0035,-0.0027 -0.0039,-0.0059 -3.39e-4,-0.0029 0.0023,-0.0049 0.002,-0.0078 z m 0.244141,0.447265 -0.02734,0.08008 c -0.0022,3.29e-4 -0.0055,-3.42e-4 -0.0078,0 0.0048,-0.03289 0.03732,-0.0485 0.03516,-0.08008 z m -9.654297,0.240235 c -0.0049,0.0043 -0.0107,0.01128 -0.01563,0.01563 4.5e-5,-5.1e-5 -3.7e-5,-0.0019 0,-0.002 z m -0.8125,0.02734 c -0.04639,-0.0094 -0.05353,-0.02775 0.05273,0.02344 0.0015,7.18e-4 0.0043,0.0051 0.0059,0.0059 -0.01369,-0.0025 -0.04965,-0.02749 -0.05859,-0.0293 z m 1.589844,0.525391 0.07617,0.02539 c -0.02597,-0.01082 -0.01998,0.0033 -0.04297,-0.0039 -0.01585,-0.0052 -0.0161,-0.01741 -0.0332,-0.02148 z m -2.308594,0.439453 c -0.03459,0.02723 -0.138418,0.05658 -0.142578,0.06055 -0.0063,0.006 0.01194,-0.01702 0.07617,-0.05078 0.01558,-0.0082 0.04536,-0.0031 0.06641,-0.0098 z M 38.875,28.5 c 0.0059,-0.0021 0.0037,0.0022 0.0098,0 l -0.01563,0.0059 c 0.0039,-0.0013 0.002,-0.0045 0.0059,-0.0059 z m -15.171875,0.417969 c 0.01163,0.006 0.01775,0.01118 0.02734,0.01758 l -0.01563,0.01172 -0.01367,-0.02734 c -5.8e-5,-6.29e-4 0.002,-0.0013 0.002,-0.002 z m 0.832031,0.134765 0.16211,0.291016 c -0.01187,0.09837 -0.109379,0.171552 -0.1875,0.242187 -0.03694,-0.02138 -0.03528,0.01358 -0.08008,-0.03125 l -0.03125,-0.107421 0.02344,-0.01758 c 0.09161,-0.07099 0.03435,-0.157463 0.07227,-0.24414 l 0.04883,0.0039 -0.03125,-0.0625 c 0.0084,-0.02683 0.01866,-0.04742 0.02344,-0.07422 z m 16.363281,0.0059 c -0.02285,0.0076 -0.0089,0.0285 -0.0293,0.03711 -0.04868,0.03641 -0.159026,0.07699 -0.166016,0.08398 z m -18.765625,0.167968 c -0.01939,0.04774 -0.06888,0.05287 -0.08203,0.105469 v -0.0039 c 0.03085,-0.118982 0.03866,-0.09716 0.04687,-0.09766 0.003,-0.0025 0.02971,-5.95e-4 0.03516,-0.0039 z m 2.763672,0.332032 c -0.0065,0.0026 -0.0054,0.007 -0.01172,0.0098 -0.02711,0.01539 -0.05816,0.02345 -0.08398,0.04102 z m 14.09375,0.08594 c -0.02431,0.03457 -0.117187,0.107422 -0.128906,0.119141 l -0.0039,0.0039 -0.002,0.002 c 0.0069,-0.0071 -0.0042,0.0036 -0.05469,0.04297 -0.05046,0.03938 -0.198328,0.122409 -0.246094,0.375 v 0.0039 0.002 c -0.01586,0.08956 0.0015,0.02335 0,0.05859 -0.01676,0.01341 -0.03736,0.02986 -0.04492,0.03516 l 0.0098,-0.0059 c -0.03949,0.02633 -0.049,0.0495 -0.08203,0.08594 -0.11007,0.06682 -0.156457,0.09919 -0.103516,0.08594 -0.01085,-0.0042 -0.126554,-0.0098 -0.30664,-0.0039 -0.07587,0.0025 -0.184809,0.03129 -0.296875,0.07031 -0.07141,-0.05646 -0.105159,-0.131219 -0.232422,-0.160156 h -0.002 -0.002 c 0.04743,-0.06225 0.09112,-0.07661 0.126953,-0.214844 0.03908,-0.152211 0.0118,-0.235886 0.0078,-0.353515 0.115955,0.0184 0.255196,0.04847 0.472656,0.0625 l 0.01563,0.002 h 0.177735 c 0.09419,0.001 0.232896,0.02089 0.429687,-0.0078 0.0836,-0.0122 0.163392,-0.142431 0.265625,-0.203125 z m 1.242188,0.222656 c 0.04525,0.0035 0.03618,0.0059 0.146484,0.0059 -0.0047,0 0.01065,0.0019 0.0078,0.002 l 0.002,0.08203 c 0.0037,0.202571 0.0087,0.306045 0.01172,0.292969 L 40.375,30.363281 h -0.191406 l -0.02734,0.0039 c -0.107336,0.01234 -0.275452,-0.01229 -0.5,0.002 0.05048,-0.05627 0.144646,-0.152854 0.121094,-0.140625 0.05125,-0.0253 0.259725,-0.02088 0.453125,-0.359375 z m 0.871094,0.08398 c 0.02694,0.0074 0.0338,0.03247 0.05859,0.04687 -0.01373,0.0022 -0.0023,0.0062 -0.01758,0.0078 -0.08721,0.0089 -0.08541,-0.03061 -0.140625,-0.05078 0.03486,-0.0024 0.05233,-0.01692 0.09961,-0.0039 z M 40.748047,30.125 c 0.07297,0.05372 0.128308,0.131974 0.208984,0.148437 l 0.191406,0.03906 0.07031,-0.04297 -0.04297,0.08594 c -0.0057,0.004 -0.0189,0.0039 -0.02539,0.0078 h -0.234375 c -0.05283,-0.03483 -0.113571,-0.06605 -0.138672,-0.107422 -0.07849,-0.12936 -0.03458,-0.144414 -0.04883,-0.06641 z m 0.951172,0.134766 c 7.22e-4,0.0018 0.02251,0.01233 0.02539,0.01563 -0.009,0.0031 -0.01425,0.0021 -0.02344,0.0059 0.001,-0.0067 -0.0029,-0.01472 -0.002,-0.02148 z m -2.06836,0.103515 c -0.01246,0 -0.01365,0.0055 -0.02539,0.0059 -0.02309,0.0025 -0.02175,-0.0037 -0.04687,0 z m -2.08789,0.212891 0.0039,0.02148 c -7.81e-4,-0.0044 -0.0031,-0.0015 -0.0039,-0.0059 -0.0019,-0.01 0.0024,-0.0048 0,-0.01563 z m 4.394531,0.210937 0.0078,0.02734 c -9.7e-4,-0.0036 -0.0048,-0.0042 -0.0059,-0.0078 -0.0034,-0.01166 0.0023,-0.0068 -0.002,-0.01953 z m -3.804688,0.07031 c 0.02154,0 0.02402,0.0058 0.0293,0.0078 -0.06322,0.0036 -0.0139,-0.01403 -0.09961,-0.002 z m 2.833985,0.320312 c 7.28e-4,0.0054 0.0031,0.0045 0.0039,0.0098 1.42e-4,9.28e-4 -1.44e-4,0.001 0,0.002 -7.4e-5,7.4e-5 -0.0019,-7.4e-5 -0.002,0 z m 1.787109,0.06836 c 0.08973,0.150417 0.183411,0.288052 0.273438,0.445312 0.06365,0.111812 0.09288,0.144839 0.146484,0.21875 -0.02981,-0.01056 -0.0395,-0.01806 -0.07422,-0.02734 -0.08603,-0.02542 -0.109753,-0.01187 -0.164062,-0.0098 -0.03772,-0.08195 -0.04704,-0.157821 -0.189453,-0.257813 l -0.01172,-0.0059 -0.0098,-0.0078 c -0.118707,-0.07419 -0.254355,-0.112191 -0.386718,-0.15625 l 0.177734,0.0332 0.177734,-0.144532 c 0.02834,-0.0228 0.03499,-0.06234 0.06055,-0.08789 z m -0.736328,0.0332 c 0.0763,0.02402 0.146021,0.110047 0.212891,0.123047 -0.02927,-0.0076 -0.0543,-0.02706 -0.08398,-0.0332 l -0.05078,-0.0098 h -0.05078 c -0.0076,0 -0.0044,0.0018 -0.01172,0.002 -3.4e-5,-0.04638 -0.0092,-0.04934 -0.01563,-0.08203 z m 0.02734,0.113281 -0.002,0.0098 c 2.29e-4,-0.0028 -0.0022,-0.0012 -0.002,-0.0039 3.08e-4,-0.004 0.0037,-0.0018 0.0039,-0.0059 z m -20.039063,1.603516 c -9.1e-5,0.0022 9.2e-5,0.0056 0,0.0078 -0.0084,0.009 -0.01069,0.01444 -0.05859,0.04102 -0.02578,0.0143 -0.06153,0.01071 -0.0957,0.01953 0.04879,-0.03229 0.14148,-0.0565 0.154297,-0.06836 z m 12.638672,1.835937 c -0.0053,0.0059 -0.02559,0.08623 -0.04297,0.107422 0.0069,-0.0174 0.007,-0.05101 0.01367,-0.0625 0.02886,-0.04977 0.04004,-0.05692 0.0293,-0.04492 z m -14.978515,0.894531 c -0.0281,0.04901 -0.06701,0.120121 -0.08203,0.234375 -0.0086,0.0655 0.02596,0.135857 0.04297,0.208985 -0.03779,-0.0097 -0.07548,-0.0217 -0.111328,-0.03711 0.0064,0.0025 -0.07957,-0.08572 -0.09766,-0.111328 l 0.0039,-0.03125 0.02148,-0.140625 c 0.0434,-0.01199 0.08803,-0.01922 0.13086,-0.0332 0.0554,-0.01728 0.04541,-0.06283 0.0918,-0.08984 z m 0.980468,0.279297 -0.0039,0.01563 c 0.0022,-0.0056 -0.002,-0.0043 0,-0.0098 0.0018,-0.0048 0.0022,-9.14e-4 0.0039,-0.0059 z m -0.769531,0.189453 0.02539,0.0078 c -0.0024,-9.8e-4 -0.0034,9.34e-4 -0.0059,0 -0.0071,-0.0025 -0.01244,-0.0054 -0.01953,-0.0078 z m 0.835938,0.400391 c -0.0061,0.02109 -0.01272,0.02621 -0.01758,0.05078 -0.01344,-0.01361 -0.04399,-0.0285 -0.05859,-0.04297 0.04212,-0.005 0.04961,-0.0053 0.07617,-0.0078 z m -1.408204,0.515625 c 0.02491,0.0076 0.04899,0.01698 0.07422,0.02344 0.07643,0.02677 0.11192,0.01002 0.181641,0.0078 0.114666,0.0392 0.26695,0.102031 0.365234,0.146484 l 0.002,0.002 0.002,0.002 c -0.04718,-0.02064 0.02983,0.02347 0.109375,0.101562 0.02438,0.02394 0.07805,0.05972 0.105469,0.08789 -0.0016,0.06186 -0.0204,0.09715 0.02539,0.207031 l 0.02344,0.05664 0.03516,0.05078 c 0.06648,0.08949 0.18373,0.259841 0.402343,0.384766 l 0.0039,0.002 0.0039,0.002 c 0.0038,0.0021 0.09546,0.123302 0.333984,0.246094 0.210504,0.111294 0.411975,0.05703 0.429688,0.05273 0.01836,-0.0045 -0.09508,0.02028 -0.197266,-0.01758 l 0.01367,0.0059 0.01563,0.0039 c -0.09195,-0.02786 -0.07099,-0.03824 0.0098,0.04102 0.04038,0.03963 0.09584,0.09986 0.208984,0.160156 0.113144,0.0603 0.314752,0.09884 0.482422,0.04883 0.04283,-0.01274 0.07106,-0.05852 0.113281,-0.08398 0.01417,0.123852 0.0091,0.248837 0,0.373047 -0.07934,0.04279 -0.148942,0.05784 -0.238281,0.177734 -0.10636,0.142716 -0.101952,0.210631 -0.109375,0.269532 -0.03628,0.03073 -0.09337,0.07995 -0.148438,0.158203 l -0.0039,0.0039 -0.0039,0.0059 c -0.07744,0.116145 -0.0981,0.185219 -0.121094,0.236328 l 0.002,-0.0078 c -0.0071,0.01524 -0.05889,0.0812 -0.130859,0.220703 -0.07197,0.139507 -0.136275,0.407232 -0.05859,0.646484 h -0.002 c 0.02422,0.07508 0.03835,0.05129 0.06445,0.09375 -0.06719,0.06902 -0.136653,0.07378 -0.164062,0.261719 v 0.002 c -0.05425,0.379567 0.08332,0.487755 0.08984,0.515625 0.06837,0.293019 0.206808,0.349275 0.28125,0.410157 0.07294,0.05966 0.134079,0.117834 0.08398,0.0625 -0.01246,-0.01295 0.07407,0.15395 0.203125,0.351562 0.104814,0.16246 0.185864,0.479766 0.412109,0.830078 l 0.002,0.0039 0.0039,0.0039 c 0.105565,0.156738 0.206239,0.216725 0.265625,0.259765 -0.0099,0.06227 -0.04158,0.08576 0.01953,0.232422 l 0.002,0.0059 0.002,0.0059 c 0.131724,0.296398 0.316902,0.408742 0.494141,0.535156 0.175883,0.125448 0.351668,0.225297 0.484375,0.291016 8.64e-4,4.32e-4 0.0011,-4.28e-4 0.002,0 6.28e-4,3.11e-4 0.0013,0.0016 0.002,0.002 0.152221,0.07481 0.266794,0.0803 0.322265,0.08789 0.05029,0.0069 0.0341,0.0084 -0.01563,-0.01758 0.03186,0.01803 0.132283,0.08394 0.210938,0.146485 0.07705,0.06127 0.143576,0.156421 0.101562,0.08398 -0.05043,-0.08853 -0.01868,-0.03627 -0.01172,0.05273 0.0075,0.09531 0.0087,0.217307 0.03516,0.365234 0.02012,0.123092 -0.02146,0.27121 -0.0078,0.597656 v 0.0039 0.0039 c 0.0091,0.156412 0.06428,0.285088 0.08203,0.328125 0.01776,0.04304 0.002,-0.0028 0.002,-0.02539 0,0.06665 -0.0011,0.243275 0,0.222656 v 0.0098 0.0098 c -0.0033,0.202481 0.01088,0.35261 0.002,0.466796 -0.0088,0.109739 -0.0088,0.218387 0,0.328125 v 0.0059 0.0039 c 0.0069,0.0714 0.0374,0.08845 0.06445,0.146484 -0.03576,0.04554 -0.08629,0.06206 -0.06055,0.277344 0.0213,0.180974 0.09278,0.321237 0.132813,0.394531 0.04045,0.07406 0.04244,0.08735 0.03906,0.07227 0.0027,0.01234 0.0066,0.03438 0.0098,0.04883 -0.486912,-0.37095 -0.976258,-0.739372 -1.408203,-1.173828 l -0.002,-0.002 c -0.08996,-0.08996 -0.173531,-0.169213 -0.238282,-0.238281 -0.467546,-0.498747 -0.895346,-1.033986 -1.279297,-1.59961 l -0.002,-0.002 -0.002,-0.0039 c 0.04338,0.06197 0.03667,0.0086 -0.08008,-0.162109 l 0.0039,0.0039 c -0.438526,-0.65444 -0.813693,-1.348065 -1.11914,-2.074219 v -0.002 l -0.002,-0.002 c -0.05253,-0.122642 -0.08435,-0.171118 -0.07422,-0.144531 l -0.002,-0.0039 -0.002,-0.0059 C 19.910335,42.122963 19.697079,41.42869 19.542969,40.71875 v -0.002 -0.0039 c -0.0287,-0.126789 -0.05096,-0.250577 -0.07813,-0.394532 l -0.002,-0.0039 v -0.002 C 19.312163,39.550469 19.231899,38.776732 19.222656,38 v -0.0039 c -7e-6,-6.49e-4 8e-6,-0.0013 0,-0.002 2.53e-4,-0.29605 0.05165,-0.591748 0.08203,-0.882813 z m 6.773438,0.07813 c -0.03139,0.04609 -0.108594,0.115423 -0.113281,0.125 -0.0095,0.01931 0.0011,-0.03806 0.0957,-0.119141 0.0049,-0.0042 0.0123,-0.0019 0.01758,-0.0059 z m -1.892578,0.318359 -0.02539,0.01563 c 0.01221,-0.0068 6.65e-4,-0.003 0.01172,-0.0098 0.0083,-0.005 0.0052,-3.82e-4 0.01367,-0.0059 z m -2.66211,0.01172 0.0293,0.0098 c -0.007,-0.0026 -0.0086,0.0023 -0.01563,0 -0.0085,-0.0028 -0.0048,-0.0071 -0.01367,-0.0098 z m 6.908204,1.730469 0.0039,0.0059 0.002,0.0078 c -0.01598,-0.04154 9.11e-4,0.0077 -0.0059,-0.01367 z m 12.378906,0.222656 c 8.21e-4,-1.83e-4 0.02324,-1.6e-5 0.02344,0 -0.08384,-0.02056 -0.04055,-0.01543 -0.02344,0.002 3.26e-4,3.32e-4 -3.01e-4,-0.0023 0,-0.002 z m -11.289063,0.134766 c 0.0225,0.01511 0.04367,0.01655 0.08008,0.0918 l 0.0293,0.363281 c 0.05144,-0.168337 -0.05126,-0.296319 -0.109375,-0.455078 z m -7.359375,1.683594 c 0.0097,0.0018 0.0077,-0.03359 0.03516,0.08203 -0.02734,-0.116774 -0.03039,-0.04891 -0.03906,-0.07813 0.0013,-0.0012 0.0026,-0.0026 0.0039,-0.0039 z m 10.232422,2.324218 c 0.0013,0.0069 0.0011,0.0021 0.002,0.0098 -0.0062,-0.08386 -0.02119,0.01067 -0.04687,0.04102 -0.0057,0.0068 0.0387,-0.04693 0.04492,-0.05078 z m -2.583984,3.929688 c -0.02826,-0.03963 0.06174,0.07333 0.08203,0.203125 0.0024,0.01548 -0.0031,0.01183 -0.002,0.02539 -0.01885,-0.08724 -0.05695,-0.196087 -0.08008,-0.228515 z"
     id="path1308" />
</svg>
