<?xml version="1.0" encoding="UTF-8" standalone="no"?>
<svg
   height="64"
   width="64"
   version="1.1"
   id="svg9"
   sodipodi:docname="podcast.svg"
   inkscape:version="1.1.2 (0a00cf5339, 2022-02-04)"
   xmlns:inkscape="http://www.inkscape.org/namespaces/inkscape"
   xmlns:sodipodi="http://sodipodi.sourceforge.net/DTD/sodipodi-0.dtd"
   xmlns:xlink="http://www.w3.org/1999/xlink"
   xmlns="http://www.w3.org/2000/svg"
   xmlns:svg="http://www.w3.org/2000/svg">
  <defs
     id="defs13">
    <linearGradient
       inkscape:collect="always"
       id="linearGradient847">
      <stop
         style="stop-color:#ff19c5;stop-opacity:1;"
         offset="0"
         id="stop843" />
      <stop
         style="stop-color:#a319ff;stop-opacity:1"
         offset="1"
         id="stop845" />
    </linearGradient>
    <linearGradient
       inkscape:collect="always"
       xlink:href="#linearGradient847"
       id="linearGradient849"
       x1="1.9512269"
       y1="10.622499"
       x2="12.783053"
       y2="-0.58677191"
       gradientUnits="userSpaceOnUse" />
  </defs>
  <sodipodi:namedview
     id="namedview11"
     pagecolor="#ffffff"
     bordercolor="#666666"
     borderopacity="1.0"
     inkscape:pageshadow="2"
     inkscape:pageopacity="0.0"
     inkscape:pagecheckerboard="0"
     showgrid="false"
     inkscape:zoom="10.21875"
     inkscape:cx="31.95107"
     inkscape:cy="32"
     inkscape:window-width="1600"
     inkscape:window-height="836"
     inkscape:window-x="0"
     inkscape:window-y="0"
     inkscape:window-maximized="1"
     inkscape:current-layer="svg9" />
  <path
     style="color:#000000;fill:#ff19c5;fill-opacity:0.2;stroke-width:2;-inkscape-stroke:none"
     d="m 11.67,56.08 c 0,1.71 1.71,3.42 3.417,3.42 h 33.996 c 1.709,0 3.417,-1.71 3.417,-3.42 V 27.017 c 0,-1.71 0,-1.71 -1.708,-3.42 L 35.417,8.21 C 34.51,7.524 33.708,6.5 32,6.5 H 14.917 C 13.208,6.5 11.5,8.21 11.5,9.92 Z"
     id="path4678" />
  <g
     transform="matrix(2.7827104,0,0,2.7827104,9.7383171,15.738317)"
     id="g2522"
     style="fill:none;stroke:#ff19c5;stroke-width:0.359362">
    <path
       id="path6"
       style="color:#000000;fill:url(#linearGradient849);stroke:none;-inkscape-stroke:none;fill-opacity:1"
       d="M 8,1.8203125 C 6.2415665,1.8203125 4.8203125,3.2415665 4.8203125,5 v 0.1796875 h 2 v 0.640625 h -2 v 2.359375 h 2 v 0.640625 h -1.890625 l 0.082031,0.2382813 C 5.5015129,10.465003 6.7555115,11.181641 8,11.181641 c 1.2444885,0 2.498487,-0.716638 2.988281,-2.1230472 l 0.08203,-0.2382813 H 9.1796875 V 8.1796875 H 11.179688 V 5.8203125 H 9.1796875 V 5.1796875 H 11.179688 V 5 C 11.179688,3.2415665 9.7584335,1.8203125 8,1.8203125 Z m 0,0.359375 c 1.495129,0 2.640096,1.1740289 2.746094,2.640625 H 8.8203125 v 1.359375 h 2.0000005 v 1.640625 H 8.8203125 v 1.359375 H 10.466797 C 9.9661676,10.237273 9.0150401,10.822266 8,10.822266 c -1.0150401,0 -1.9661676,-0.584993 -2.4667969,-1.6425785 h 1.6464844 v -1.359375 h -2 v -1.640625 h 2 V 4.8203125 H 5.2539062 C 5.359904,3.3537164 6.504871,2.1796875 8,2.1796875 Z m -5.1191406,6.640625 0.042969,0.2148438 C 3.3225887,10.996715 4.846351,12.493393 6.7773437,12.96875 L 5.5664062,14.179688 H 10.433594 L 9.2226563,12.96875 C 11.153935,12.493827 12.677896,10.997005 13.076172,9.0351563 l 0.04297,-0.2148438 H 11.720703 L 11.6875,8.9550781 C 11.258295,10.641748 9.7404233,11.82118 8,11.820313 6.2593824,11.82186 4.7410938,10.642105 4.3125,8.9550781 L 4.2792969,8.8203125 Z M 3.390625,9.1796875 H 4.0527344 C 4.5756409,10.936904 6.1533798,12.18133 8,12.179688 c 1.8463353,9.2e-4 3.423792,-1.243231 3.947266,-3.0000005 h 0.662109 C 12.151011,10.953921 10.77591,12.352518 8.9648438,12.716797 l -0.1445313,0.0293 v 0.328125 l 0.7460938,0.746094 H 6.4335937 l 0.7460938,-0.746094 v -0.328125 l -0.1445313,-0.0293 C 5.2243062,12.35206 3.8493916,10.953708 3.390625,9.1796875 Z M 1.8613694,-3.6792607 c -0.4269316,0 -0.8124744,0.2022621 -1.09914208,0.4892094 -0.28666763,0.2869473 -0.48850753,0.6722408 -0.48850753,1.099142 v 7.007e-4 l 0.0610635,16.5889016 c 4.3124e-4,0.426475 0.20280264,0.811164 0.48920937,1.097738 0.28672444,0.286894 0.67172744,0.489211 1.09844024,0.489211 H 14.13863 c 0.426932,0 0.812475,-0.202262 1.099142,-0.489209 0.286668,-0.286948 0.488508,-0.672241 0.488508,-1.099143 V 4.0533363 c 0,-0.3072541 0.0051,-0.5362765 -0.114406,-0.7755759 C 15.492364,3.038461 15.314451,2.8775208 15.007556,2.5702667 L 9.4648207,-2.9766802 9.4444661,-2.9921215 C 9.1744627,-3.1963358 8.7574219,-3.6792607 7.9999999,-3.6792607 Z m 0,0.7187237 h 6.1386305 c 0.4579567,0 0.625783,0.2428201 0.9868415,0.5221977 l 5.5118526,5.516766 c 0.306403,0.3067869 0.436347,0.4528901 0.470259,0.520794 0.03394,0.067955 0.0386,0.1468615 0.0386,0.4541156 V 14.49729 c 0,0.187608 -0.104881,0.417049 -0.278646,0.590982 -0.173764,0.173934 -0.403062,0.278646 -0.59028,0.278646 H 1.9224329 c -0.1867176,0 -0.416393,-0.104657 -0.5902799,-0.278646 C 1.1582657,14.914284 1.053507,14.684757 1.053507,14.49729 v -7.18e-4 -7.19e-4 L 0.99244352,-2.0909093 c 0,-0.187607 0.10488158,-0.417048 0.27864598,-0.5909819 0.173764,-0.1739338 0.4030628,-0.2786458 0.5902799,-0.2786458 z" />
  </g>
</svg>
