<?xml version="1.0" encoding="UTF-8" standalone="no"?>
<svg
   height="64"
   width="64"
   version="1.1"
   id="svg9"
   sodipodi:docname="text-x-csharp.svg"
   inkscape:version="1.1.2 (0a00cf5339, 2022-02-04)"
   xmlns:inkscape="http://www.inkscape.org/namespaces/inkscape"
   xmlns:sodipodi="http://sodipodi.sourceforge.net/DTD/sodipodi-0.dtd"
   xmlns="http://www.w3.org/2000/svg"
   xmlns:svg="http://www.w3.org/2000/svg">
  <defs
     id="defs13" />
  <sodipodi:namedview
     id="namedview11"
     pagecolor="#ffffff"
     bordercolor="#666666"
     borderopacity="1.0"
     inkscape:pageshadow="2"
     inkscape:pageopacity="0.0"
     inkscape:pagecheckerboard="0"
     showgrid="false"
     inkscape:zoom="5.109375"
     inkscape:cx="32"
     inkscape:cy="32"
     inkscape:window-width="1056"
     inkscape:window-height="545"
     inkscape:window-x="401"
     inkscape:window-y="224"
     inkscape:window-maximized="0"
     inkscape:current-layer="svg9" />
  <path
     style="color:#000000;fill:#e5e5e5;fill-opacity:0.2;stroke-width:2;-inkscape-stroke:none"
     d="m 11.67,56.08 c 0,1.71 1.71,3.42 3.417,3.42 h 33.996 c 1.709,0 3.417,-1.71 3.417,-3.42 V 27.017 c 0,-1.71 0,-1.71 -1.708,-3.42 L 35.417,8.21 C 34.51,7.524 33.708,6.5 32,6.5 H 14.917 C 13.208,6.5 11.5,8.21 11.5,9.92 Z"
     id="path1152" />
  <path
     style="color:#000000;fill:#e5e5e5;-inkscape-stroke:none"
     d="M 14.917969,5.5 C 13.729942,5.5 12.657088,6.0628369 11.859375,6.8613281 11.061662,7.6598194 10.5,8.7319796 10.5,9.9199219 v 0.00195 l 0.169922,46.1621091 c 0.0012,1.186757 0.564341,2.257235 1.361328,3.054688 C 12.829121,59.93701 13.900473,60.5 15.087891,60.5 h 33.99414 c 1.188027,0 2.260881,-0.562837 3.058594,-1.361328 C 52.938338,58.340181 53.5,57.26802 53.5,56.080078 v -29.0625 c 0,-0.854999 0.0142,-1.492302 -0.318359,-2.158203 C 52.849079,24.193474 52.353999,23.745624 51.5,22.890625 L 36.076172,7.4550781 36.019531,7.4121094 C 35.26819,6.8438401 34.107686,5.5 32,5.5 Z m 0,2 H 32 c 1.274361,0 1.741373,0.6756979 2.746094,1.453125 l 15.33789,15.351562 c 0.852631,0.853699 1.214226,1.260262 1.308594,1.449219 C 51.487016,25.943004 51.5,26.162579 51.5,27.017578 v 29.0625 c 0,0.522056 -0.291855,1.160524 -0.775391,1.644531 C 50.241074,58.208617 49.603002,58.5 49.082031,58.5 h -33.99414 c -0.519581,0 -1.158701,-0.29123 -1.642578,-0.775391 -0.483878,-0.48416 -0.775391,-1.122865 -0.775391,-1.644531 v -0.002 -0.002 L 12.5,9.9199219 c 0,-0.522056 0.291855,-1.1605238 0.775391,-1.6445313 C 13.758926,7.7913831 14.396998,7.5 14.917969,7.5 Z"
     id="path1154" />
  <path
     style="color:#000000;fill:#e5e5e5;-inkscape-stroke:none"
     d="m 29.491781,23.092 -0.11914,0.330078 -2.6875,7.439453 H 18.91561 l -1.296875,3.589844 h 7.769531 l -3.38086,9.361328 H 14.237875 L 12.941,47.402547 h 7.769531 l -2.80664,7.769531 h 3.654297 l 2.80664,-7.769531 h 9.294922 l -2.804687,7.769531 h 3.652343 l 2.806641,-7.769531 h 7.769531 l 1.296875,-3.589844 h -7.769531 l 0.257813,-0.716797 3.123046,-8.644531 h 7.769532 l 1.296875,-3.589844 H 43.288656 L 46.095297,23.092 H 42.441 l -2.80664,7.769531 H 30.339438 L 33.144125,23.092 Z m 0.703125,1 h 1.525391 l -2.806641,7.769531 H 40.337485 L 43.144125,24.092 h 1.525391 l -2.804688,7.769531 h 7.769532 l -0.574219,1.589844 h -7.771485 l -3.359375,9.304687 -0.742187,2.056641 h 7.769531 l -0.574219,1.589844 h -7.769531 l -2.80664,7.769531 h -1.527344 l 2.80664,-7.769531 H 23.661703 l -2.80664,7.769531 h -1.525391 l 2.804688,-7.769531 h -7.769532 l 0.574219,-1.589844 h 7.771484 l 4.101563,-11.361328 h -7.769531 l 0.574218,-1.589844 h 7.769532 z m -1.855468,9.359375 -0.119141,0.330078 -3.984375,11.03125 H 35.65975 l 4.103516,-11.361328 z m 0.703125,1 h 9.294922 l -3.38086,9.361328 h -9.294922 z"
     id="path6" />
</svg>
