<?xml version="1.0" encoding="UTF-8" standalone="no"?>
<svg
   height="64"
   width="64"
   version="1.1"
   id="svg9"
   sodipodi:docname="text-css.svg"
   inkscape:version="1.1.2 (0a00cf5339, 2022-02-04)"
   xmlns:inkscape="http://www.inkscape.org/namespaces/inkscape"
   xmlns:sodipodi="http://sodipodi.sourceforge.net/DTD/sodipodi-0.dtd"
   xmlns:xlink="http://www.w3.org/1999/xlink"
   xmlns="http://www.w3.org/2000/svg"
   xmlns:svg="http://www.w3.org/2000/svg">
  <defs
     id="defs13">
    <linearGradient
       inkscape:collect="always"
       id="linearGradient846">
      <stop
         style="stop-color:#ffc519;stop-opacity:1;"
         offset="0"
         id="stop842" />
      <stop
         style="stop-color:#ff9819;stop-opacity:1"
         offset="1"
         id="stop844" />
    </linearGradient>
    <linearGradient
       inkscape:collect="always"
       xlink:href="#linearGradient846"
       id="linearGradient848"
       x1="14.177217"
       y1="43.904728"
       x2="46.591423"
       y2="7.211884"
       gradientUnits="userSpaceOnUse" />
  </defs>
  <sodipodi:namedview
     id="namedview11"
     pagecolor="#ffffff"
     bordercolor="#666666"
     borderopacity="1.0"
     inkscape:pageshadow="2"
     inkscape:pageopacity="0.0"
     inkscape:pagecheckerboard="0"
     showgrid="false"
     inkscape:zoom="10.21875"
     inkscape:cx="31.95107"
     inkscape:cy="32"
     inkscape:window-width="1600"
     inkscape:window-height="836"
     inkscape:window-x="0"
     inkscape:window-y="0"
     inkscape:window-maximized="1"
     inkscape:current-layer="svg9" />
  <path
     style="color:#000000;fill:#ffc519;fill-opacity:0.2;stroke-width:2;-inkscape-stroke:none"
     d="m 11.67,56.08 c 0,1.71 1.71,3.42 3.417,3.42 h 33.996 c 1.709,0 3.417,-1.71 3.417,-3.42 V 27.017 c 0,-1.71 0,-1.71 -1.708,-3.42 L 35.417,8.21 C 34.51,7.524 33.708,6.5 32,6.5 H 14.917 C 13.208,6.5 11.5,8.21 11.5,9.92 Z"
     id="path6004" />
  <path
     id="path6"
     style="color:#807f7f;fill:url(#linearGradient848);-inkscape-stroke:none;fill-opacity:1"
     d="M 29.361328,23.017578 28.697266,23.25 c -3.214916,1.119524 -5.372763,4.154329 -5.373047,7.558594 v 0.958984 c 0,1.681682 -0.913096,3.122196 -2.267578,3.90625 l -0.25,0.144531 v 6.03125 l 0.25,0.144532 c 1.355207,0.784473 2.267578,2.220662 2.267578,3.902343 v 0.958985 c 2.84e-4,3.404265 2.158131,6.441023 5.373047,7.560547 l 0.664062,0.230468 V 50.904297 L 29.113281,50.759766 C 27.7588,49.975712 26.84375,48.535198 26.84375,46.853516 v -0.958985 c 0,-1.68974 -0.263874,-3.270945 -0.935547,-4.59375 -0.53872,-1.060965 -1.435872,-1.868889 -2.544922,-2.470703 1.139688,-0.613464 2.04635,-1.444748 2.578125,-2.519531 0.660247,-1.33444 0.901908,-2.908718 0.902344,-4.544922 v -0.958984 c 0,-1.681683 0.915049,-3.124148 2.269531,-3.908204 l 0.248047,-0.144531 z m 9.738281,0.236328 -0.162109,0.466797 h -0.501953 v 3.039063 l 0.25,0.144531 c 1.354482,0.784054 2.269531,2.224567 2.269531,3.90625 v 0.958984 0.002 c 0.0012,1.636144 0.24477,3.208764 0.90625,4.542969 0.532769,1.074594 1.438573,1.905792 2.578125,2.519531 -1.140169,0.613197 -2.047187,1.444735 -2.580078,2.519532 -0.661632,1.334457 -0.904248,2.908287 -0.904297,4.544921 v 0.960938 c 0,1.681682 -0.915049,3.122196 -2.269531,3.90625 l -0.25,0.144531 v 3.742188 l 0.664062,-0.232422 c 3.214916,-1.119524 5.372763,-4.154329 5.373047,-7.558594 v -0.958984 c 0,-1.681683 0.914324,-3.117869 2.269531,-3.902344 l 0.25,-0.144531 v -6.03125 l -0.25,-0.144532 C 45.387706,34.89568 44.472656,33.455166 44.472656,31.773484 V 30.8125 c -2.84e-4,-3.404265 -2.158131,-6.43907 -5.373047,-7.558594 z m -10.738281,1.294922 v 1.730469 c -1.481019,0.987997 -2.517578,2.609238 -2.517578,4.527344 v 0.958984 c -4.1e-4,1.5362 -0.23537,2.962745 -0.798828,4.101562 -0.563458,1.138818 -1.43219,2.001917 -2.810547,2.492188 l -0.427734,0.152344 v -2.21875 c 1.481019,-0.987997 2.517578,-2.607285 2.517578,-4.525391 v -0.958984 c 2.28e-4,-2.724316 1.618176,-5.108863 4.037109,-6.259766 z m 11.074219,0.0059 c 2.419515,1.150699 4.036881,3.533112 4.037109,6.257813 v 0.960937 c 0,1.91911 1.037217,3.539554 2.519531,4.527344 v 2.212891 l -0.421875,-0.150391 c -1.378038,-0.490892 -2.249823,-1.353329 -2.814453,-2.492187 -0.56463,-1.138858 -0.799667,-2.56578 -0.800781,-4.101563 v -0.958984 c 0,-1.918106 -1.038512,-3.537394 -2.519531,-4.525391 z m -17.628906,14.591797 0.423828,0.154297 c 1.340298,0.48432 2.212251,1.324835 2.785156,2.453125 0.572905,1.12829 0.828125,2.556363 0.828125,4.140625 v 0.958985 c 0,1.918105 1.036559,3.537394 2.517578,4.52539 v 1.736328 c -2.418933,-1.150903 -4.036881,-3.53545 -4.037109,-6.259765 v -0.958985 c 0,-1.918042 -1.037157,-3.534327 -2.517578,-4.521484 z m 24.185546,0.0098 v 2.222656 c -1.481635,0.986967 -2.519531,2.604451 -2.519531,4.523438 v 0.958984 c -2.28e-4,2.72481 -1.61743,5.109125 -4.037109,6.259766 v -1.736328 c 1.481019,-0.987997 2.519531,-2.607285 2.519531,-4.525391 v -0.960938 c 4.6e-5,-1.536007 0.236109,-2.962664 0.800781,-4.101562 0.564673,-1.138898 1.433857,-2.000229 2.8125,-2.490234 z M 17.007812,49.871094 v 0.5 4.076172 h 4.798829 v -4.576172 z m 1,1 h 2.798829 v 2.576172 H 18.007812 Z M 14.917969,5.5 C 13.729942,5.5 12.657088,6.0628369 11.859375,6.8613281 11.061662,7.6598194 10.5,8.7319796 10.5,9.9199219 v 0.00195 l 0.169922,46.1621091 c 0.0012,1.186757 0.564341,2.257235 1.361328,3.054688 C 12.829121,59.93701 13.900473,60.5 15.087891,60.5 h 33.99414 c 1.188027,0 2.260881,-0.562837 3.058594,-1.361328 C 52.938338,58.340181 53.5,57.26802 53.5,56.080078 v -29.0625 c 0,-0.854999 0.0142,-1.492302 -0.318359,-2.158203 C 52.849079,24.193474 52.353999,23.745624 51.5,22.890625 L 36.076172,7.4550781 36.019531,7.4121094 C 35.26819,6.8438401 34.107686,5.5 32,5.5 Z m 0,2 H 32 c 1.274361,0 1.741373,0.6756979 2.746094,1.453125 l 15.33789,15.351562 c 0.852631,0.853699 1.214226,1.260262 1.308594,1.449219 C 51.487016,25.943004 51.5,26.162579 51.5,27.017578 v 29.0625 c 0,0.522056 -0.291855,1.160524 -0.775391,1.644531 C 50.241074,58.208617 49.603002,58.5 49.082031,58.5 h -33.99414 c -0.519581,0 -1.158701,-0.29123 -1.642578,-0.775391 -0.483878,-0.48416 -0.775391,-1.122865 -0.775391,-1.644531 v -0.002 -0.002 L 12.5,9.9199219 c 0,-0.522056 0.291855,-1.1605238 0.775391,-1.6445313 C 13.758926,7.7913831 14.396998,7.5 14.917969,7.5 Z" />
</svg>
