<?xml version="1.0" encoding="UTF-8" standalone="no"?>
<svg
   height="64"
   width="64"
   version="1.1"
   id="svg9"
   sodipodi:docname="text-x-go.svg"
   inkscape:version="1.1.2 (0a00cf5339, 2022-02-04)"
   xmlns:inkscape="http://www.inkscape.org/namespaces/inkscape"
   xmlns:sodipodi="http://sodipodi.sourceforge.net/DTD/sodipodi-0.dtd"
   xmlns:xlink="http://www.w3.org/1999/xlink"
   xmlns="http://www.w3.org/2000/svg"
   xmlns:svg="http://www.w3.org/2000/svg">
  <defs
     id="defs13">
    <linearGradient
       inkscape:collect="always"
       id="linearGradient846">
      <stop
         style="stop-color:#00f5ff;stop-opacity:1;"
         offset="0"
         id="stop842" />
      <stop
         style="stop-color:#00ff33;stop-opacity:1"
         offset="1"
         id="stop844" />
    </linearGradient>
    <linearGradient
       inkscape:collect="always"
       xlink:href="#linearGradient846"
       id="linearGradient848"
       x1="17.856855"
       y1="49.365047"
       x2="44.81736"
       y2="21.740305"
       gradientUnits="userSpaceOnUse" />
  </defs>
  <sodipodi:namedview
     id="namedview11"
     pagecolor="#ffffff"
     bordercolor="#666666"
     borderopacity="1.0"
     inkscape:pageshadow="2"
     inkscape:pageopacity="0.0"
     inkscape:pagecheckerboard="0"
     showgrid="false"
     inkscape:zoom="10.21875"
     inkscape:cx="28.036697"
     inkscape:cy="32"
     inkscape:window-width="1600"
     inkscape:window-height="836"
     inkscape:window-x="0"
     inkscape:window-y="0"
     inkscape:window-maximized="1"
     inkscape:current-layer="svg9" />
  <path
     style="color:#000000;fill:#00f5ff;fill-opacity:0.2;stroke-width:2;-inkscape-stroke:none"
     d="m 11.67,56.08 c 0,1.71 1.71,3.42 3.417,3.42 h 33.996 c 1.709,0 3.417,-1.71 3.417,-3.42 V 27.017 c 0,-1.71 0,-1.71 -1.708,-3.42 L 35.417,8.21 C 34.51,7.524 33.708,6.5 32,6.5 H 14.917 C 13.208,6.5 11.5,8.21 11.5,9.92 Z"
     id="path5155" />
  <path
     id="path827"
     style="color:#000000;isolation:isolate;fill:url(#linearGradient848);-inkscape-stroke:none;fill-opacity:1"
     d="m 21.898437,23.833984 c -3.989298,0 -7.234374,3.245077 -7.234374,7.234375 0,3.989299 3.245076,7.234375 7.234374,7.234375 3.989298,0 7.234377,-3.245076 7.234375,-7.234375 0,-3.989297 -3.245077,-7.234375 -7.234375,-7.234375 z m 20.203125,0 c -3.989296,0 -7.234376,3.245077 -7.234375,7.234375 0,3.989299 3.245078,7.234375 7.234375,7.234375 3.989298,0 7.234374,-3.245076 7.234375,-7.234375 0,-3.989298 -3.245076,-7.234375 -7.234375,-7.234375 z m -20.203125,1 c 3.448777,0 6.234376,2.785599 6.234375,6.234375 10e-7,3.448778 -2.785598,6.234375 -6.234375,6.234375 -3.448777,0 -6.234374,-2.785597 -6.234374,-6.234375 0,-3.448776 2.785597,-6.234375 6.234374,-6.234375 z m 20.203125,0 c 3.448778,0 6.234375,2.785599 6.234375,6.234375 0,3.448778 -2.785598,6.234375 -6.234375,6.234375 -3.448776,0 -6.234375,-2.785597 -6.234375,-6.234375 0,-3.448776 2.7856,-6.234375 6.234375,-6.234375 z m -22.728515,3.208985 c -1.664542,0 -3.025391,1.360849 -3.025391,3.02539 0,1.664542 1.360849,3.025391 3.025391,3.025391 1.664542,0 3.02539,-1.360849 3.02539,-3.025391 0,-1.664541 -1.360849,-3.02539 -3.02539,-3.02539 z m 20.203125,0 c -1.664542,0 -3.025391,1.360849 -3.025391,3.02539 0,1.664542 1.360849,3.025391 3.025391,3.025391 1.664542,0 3.02539,-1.360849 3.02539,-3.025391 0,-1.664541 -1.360849,-3.02539 -3.02539,-3.02539 z m -20.203125,1 c 1.123474,0 2.02539,0.901917 2.02539,2.02539 0,1.123474 -0.901917,2.025391 -2.02539,2.025391 -1.123474,0 -2.025391,-0.901917 -2.025391,-2.025391 0,-1.123473 0.901917,-2.02539 2.025391,-2.02539 z m 20.203125,0 c 1.123474,0 2.02539,0.901917 2.02539,2.02539 0,1.123474 -0.901917,2.025391 -2.02539,2.025391 -1.123474,0 -2.025391,-0.901917 -2.025391,-2.025391 0,-1.123473 0.901917,-2.02539 2.025391,-2.02539 z m -7.667969,8.259765 c -0.647674,0.01547 -1.280569,0.192453 -1.841797,0.517578 -1.041512,0.60068 -1.636767,1.6773 -1.798828,2.84961 h -1.318359 c -2.133763,0 -3.867188,1.733425 -3.867188,3.867187 0,2.133762 1.733425,3.867188 3.867188,3.867188 h 1.183593 v 2.867187 c 0,1.201057 0.982537,2.183594 2.183594,2.183594 0.732225,0 1.286928,-0.423224 1.683594,-0.980469 0.396666,0.557245 0.951369,0.980469 1.683594,0.980469 1.201057,0 2.183594,-0.982537 2.183593,-2.183594 v -2.867187 h 1.183594 c 2.133763,0 3.867188,-1.733426 3.867188,-3.867188 0,-2.133762 -1.733425,-3.867187 -3.867188,-3.867187 h -1.318359 c -0.162061,-1.17231 -0.757316,-2.24893 -1.798828,-2.84961 -0.61454,-0.355581 -1.315067,-0.534997 -2.025391,-0.517578 z m 0.02539,1 c 0.525429,-0.01289 1.043778,0.118837 1.5,0.382813 v 0.002 c 0.733417,0.422989 1.149019,1.167185 1.300781,1.982422 h -5.46875 c 0.151762,-0.815237 0.567364,-1.559433 1.300781,-1.982422 v -0.002 c 0.415249,-0.240558 0.886863,-0.371341 1.367188,-0.382813 z m -4.984375,3.367188 h 1.183593 0.101563 c 0.256516,1.884455 1.812587,3.367187 3.765625,3.367187 1.953038,0 3.509109,-1.482732 3.765625,-3.367187 h 0.101562 1.183594 c 1.59706,0 2.867188,1.270128 2.867188,2.867187 0,1.597059 -1.270128,2.867188 -2.867188,2.867188 h -2.183594 v 3.867187 c 0,0.664356 -0.519238,1.183594 -1.183593,1.183594 C 33.01924,52.455078 32.5,51.935839 32.5,51.271484 h -1 c 0,0.664355 -0.51924,1.183594 -1.183594,1.183594 -0.664355,0 -1.183593,-0.519238 -1.183594,-1.183594 v -3.867187 h -2.183593 c -1.59706,0 -2.867188,-1.270129 -2.867188,-2.867188 0,-1.597059 1.270128,-2.867187 2.867187,-2.867187 z m 2.390625,0 h 5.320312 C 34.397052,42.983694 33.394368,44.037109 32,44.037109 c -1.394368,0 -2.397052,-1.053415 -2.660157,-2.367187 z M 14.917969,5.5 C 13.729942,5.5 12.657088,6.0628369 11.859375,6.8613281 11.061662,7.6598194 10.5,8.7319796 10.5,9.9199219 v 0.00195 l 0.169922,46.1621091 c 0.0012,1.186757 0.564341,2.257235 1.361328,3.054688 C 12.829121,59.93701 13.900473,60.5 15.087891,60.5 h 33.99414 c 1.188027,0 2.260881,-0.562837 3.058594,-1.361328 C 52.938338,58.340181 53.5,57.26802 53.5,56.080078 v -29.0625 c 0,-0.854999 0.0142,-1.492302 -0.318359,-2.158203 C 52.849079,24.193474 52.353999,23.745624 51.5,22.890625 L 36.076172,7.4550781 36.019531,7.4121094 C 35.26819,6.8438401 34.107686,5.5 32,5.5 Z m 0,2 H 32 c 1.274361,0 1.741373,0.6756979 2.746094,1.453125 l 15.33789,15.351562 c 0.852631,0.853699 1.214226,1.260262 1.308594,1.449219 C 51.487016,25.943004 51.5,26.162579 51.5,27.017578 v 29.0625 c 0,0.522056 -0.291855,1.160524 -0.775391,1.644531 C 50.241074,58.208617 49.603002,58.5 49.082031,58.5 h -33.99414 c -0.519581,0 -1.158701,-0.29123 -1.642578,-0.775391 -0.483878,-0.48416 -0.775391,-1.122865 -0.775391,-1.644531 v -0.002 -0.002 L 12.5,9.9199219 c 0,-0.522056 0.291855,-1.1605238 0.775391,-1.6445313 C 13.758926,7.7913831 14.396998,7.5 14.917969,7.5 Z" />
</svg>
