<?xml version="1.0" encoding="UTF-8" standalone="no"?>
<svg
   height="64"
   width="64"
   version="1.1"
   id="svg9"
   sodipodi:docname="text-x-r.svg"
   inkscape:version="1.1.2 (0a00cf5339, 2022-02-04)"
   xmlns:inkscape="http://www.inkscape.org/namespaces/inkscape"
   xmlns:sodipodi="http://sodipodi.sourceforge.net/DTD/sodipodi-0.dtd"
   xmlns:xlink="http://www.w3.org/1999/xlink"
   xmlns="http://www.w3.org/2000/svg"
   xmlns:svg="http://www.w3.org/2000/svg">
  <defs
     id="defs13">
    <linearGradient
       inkscape:collect="always"
       id="linearGradient891">
      <stop
         style="stop-color:#19c5ff;stop-opacity:1;"
         offset="0"
         id="stop887" />
      <stop
         style="stop-color:#19ffcf;stop-opacity:1"
         offset="1"
         id="stop889" />
    </linearGradient>
    <linearGradient
       inkscape:collect="always"
       xlink:href="#linearGradient891"
       id="linearGradient849"
       x1="3.3650818"
       y1="12.459772"
       x2="11.28286"
       y2="2.3409226"
       gradientUnits="userSpaceOnUse" />
  </defs>
  <sodipodi:namedview
     id="namedview11"
     pagecolor="#ffffff"
     bordercolor="#666666"
     borderopacity="1.0"
     inkscape:pageshadow="2"
     inkscape:pageopacity="0.0"
     inkscape:pagecheckerboard="0"
     showgrid="false"
     inkscape:zoom="10.21875"
     inkscape:cx="31.95107"
     inkscape:cy="32"
     inkscape:window-width="1600"
     inkscape:window-height="836"
     inkscape:window-x="0"
     inkscape:window-y="0"
     inkscape:window-maximized="1"
     inkscape:current-layer="svg9" />
  <path
     style="color:#000000;fill:#19c5ff;fill-opacity:0.2;stroke-width:2;-inkscape-stroke:none"
     d="m 11.67,56.08 c 0,1.71 1.71,3.42 3.417,3.42 h 33.996 c 1.709,0 3.417,-1.71 3.417,-3.42 V 27.017 c 0,-1.71 0,-1.71 -1.708,-3.42 L 35.417,8.21 C 34.51,7.524 33.708,6.5 32,6.5 H 14.917 C 13.208,6.5 11.5,8.21 11.5,9.92 Z"
     id="path5868" />
  <g
     transform="matrix(2.6481229,0,0,2.6480833,10.815341,16.814833)"
     id="g2522"
     style="fill:none;stroke:#19c5ff;stroke-width:0.377629">
    <path
       id="path6"
       style="color:#000000;fill:url(#linearGradient849);fill-rule:evenodd;stroke:none;-inkscape-stroke:none;fill-opacity:1"
       d="M 2.3105469,1.8105469 V 14.185547 l 3.5703125,-0.002 V 9.4902344 h 0.2773437 c 0.084693,0 0.1201576,0.00848 0.1679688,0.03125 0.047811,0.022767 0.1130598,0.06975 0.2148437,0.1503906 0.080625,0.063464 0.2525933,0.2788353 0.3808594,0.466797 0.1282661,0.187961 0.2265625,0.351562 0.2265625,0.351562 l 0.00195,0.0059 L 9.7207,14.189493 13.5,14.1875 v -0.193359 l 0.160156,-0.09961 C 13.422911,13.512425 12.556642,12.355947 11.683594,11.246094 11.24707,10.691167 10.810785,10.153325 10.458984,9.7421875 10.283084,9.5366187 10.128172,9.3627423 10.001953,9.2324219 9.9750616,9.2046564 9.9540407,9.1878833 9.9296875,9.1640625 10.127557,9.0902517 10.528756,8.9723541 11.117188,8.4589844 11.836208,7.8316842 12.553283,6.7910549 12.519531,5.21875 12.489666,3.7957155 11.721161,2.9222934 10.974609,2.4335938 10.228058,1.9448941 9.4882813,1.8144531 9.4882813,1.8144531 l -0.015625,-0.00391 z M 2.6875,2.1894531 h 6.7441406 c 0.00954,0.00175 0.6636204,0.1204421 1.3359374,0.5605469 0.677197,0.4432994 1.347865,1.1835997 1.375,2.4765625 0.03125,1.4556921 -0.614709,2.372567 -1.273437,2.9472656 -0.658728,0.5746987 -1.3183597,0.7871094 -1.3183597,0.7871094 l -0.5,0.1582031 0.4863281,0.1953125 c -0.021778,-0.00872 0.011767,0.00882 0.048828,0.041016 0.037061,0.032197 0.088078,0.08032 0.1464844,0.140625 0.1168126,0.1206089 0.2664786,0.2900379 0.4394532,0.4921875 0.345949,0.4042984 0.780369,0.9379114 1.214844,1.4902344 0.774214,0.984212 1.438198,1.887644 1.740234,2.330078 l -3.2089843,0.002 -2.4453126,-3.513672 -0.00391,-0.0078 -0.00391,-0.0039 C 7.4585417,10.274624 7.3635894,10.117994 7.2324219,9.9257813 7.0969383,9.7272432 6.9437654,9.507536 6.7753906,9.375 6.6701748,9.2916406 6.5874699,9.2269202 6.4882812,9.1796875 6.3890926,9.1324548 6.2785099,9.1113281 6.1582031,9.1113281 H 5.5039062 V 13.806641 H 2.6875 Z M 5.5371094,4.4101562 V 6.828125 h 2.4472656 0.00195 c 0,0 0.299065,0.00179 0.6054688,-0.1503906 C 8.8982007,6.5255567 9.2207031,6.1822914 9.2207031,5.6015625 9.2207031,5.0111613 8.895783,4.6728852 8.5859375,4.5332031 8.2810463,4.3957546 7.9937839,4.4154541 7.984375,4.4160156 v -0.00195 h -0.00977 z m 2.4472656,0.1914063 0.00977,0.1894531 c 0,0 0.2238461,-0.00843 0.4375,0.087891 0.213654,0.096318 0.4121094,0.2570585 0.4121094,0.7226563 0,0.4532701 -0.2028262,0.6304591 -0.4199219,0.7382812 -0.2171,0.1078218 -0.4394575,0.1093746 -0.4394575,0.1093746 l -2.0703125,0.00195 V 4.7890625 l 2.0703125,0.00195 z M 1.5492589,-4.2728388 c -0.4486298,0 -0.85376739,0.212545 -1.15500454,0.5140806 -0.30123715,0.3015355 -0.51333531,0.7064171 -0.51333531,1.1550217 v 7.364e-4 l 0.06416696,17.4322721 c 4.5315e-4,0.448157 0.21310982,0.852403 0.51407282,1.153547 0.30129681,0.301479 0.70586717,0.514082 1.15426707,0.514082 H 14.450496 c 0.44863,0 0.853768,-0.212545 1.155005,-0.514081 0.301237,-0.301535 0.513335,-0.706417 0.513335,-1.155022 V 3.8528792 c 0,-0.3228747 0.0054,-0.5635405 -0.120221,-0.8150057 C 15.873031,2.7864082 15.686076,2.6172859 15.363584,2.2944112 L 9.539146,-3.5345395 9.5177569,-3.5507658 C 9.234031,-3.7653623 8.7957946,-4.2728388 7.9998776,-4.2728388 Z m 0,0.7552633 h 6.4506187 c 0.4812318,0 0.6575877,0.2551649 1.0369964,0.5487459 l 5.791986,5.7972353 c 0.321975,0.3223838 0.458523,0.4759148 0.494159,0.547271 0.03566,0.071409 0.04056,0.1543278 0.04056,0.4772025 V 14.827798 c 0,0.197145 -0.110212,0.438251 -0.292808,0.621027 -0.182595,0.182777 -0.423548,0.292812 -0.62028,0.292812 H 1.6134259 c -0.1962073,0 -0.4375556,-0.109977 -0.62028015,-0.292812 -0.1827249,-0.182834 -0.29280779,-0.424029 -0.29280779,-0.621027 v -7.55e-4 -7.55e-4 L 0.636171,-2.6037365 c 0,-0.1971448 0.11021203,-0.4382505 0.29280779,-0.621027 C 1.1115742,-3.40754 1.3525267,-3.5175755 1.5492589,-3.5175755 Z" />
  </g>
</svg>
