<?xml version="1.0" encoding="UTF-8" standalone="no"?>
<svg
   height="64"
   width="64"
   version="1.1"
   id="svg12"
   sodipodi:docname="text-x-scala.svg"
   inkscape:version="1.1.2 (0a00cf5339, 2022-02-04)"
   xmlns:inkscape="http://www.inkscape.org/namespaces/inkscape"
   xmlns:sodipodi="http://sodipodi.sourceforge.net/DTD/sodipodi-0.dtd"
   xmlns:xlink="http://www.w3.org/1999/xlink"
   xmlns="http://www.w3.org/2000/svg"
   xmlns:svg="http://www.w3.org/2000/svg">
  <defs
     id="defs16">
    <linearGradient
       inkscape:collect="always"
       id="linearGradient892">
      <stop
         style="stop-color:#fe1952;stop-opacity:1;"
         offset="0"
         id="stop888" />
      <stop
         style="stop-color:#fe19d4;stop-opacity:1"
         offset="1"
         id="stop890" />
    </linearGradient>
    <linearGradient
       inkscape:collect="always"
       xlink:href="#linearGradient892"
       id="linearGradient850"
       x1="3.2443779"
       y1="11.523736"
       x2="12.651291"
       y2="0.15004975"
       gradientUnits="userSpaceOnUse" />
  </defs>
  <sodipodi:namedview
     id="namedview14"
     pagecolor="#ffffff"
     bordercolor="#666666"
     borderopacity="1.0"
     inkscape:pageshadow="2"
     inkscape:pageopacity="0.0"
     inkscape:pagecheckerboard="0"
     showgrid="false"
     inkscape:zoom="10.21875"
     inkscape:cx="31.95107"
     inkscape:cy="32"
     inkscape:window-width="1600"
     inkscape:window-height="836"
     inkscape:window-x="0"
     inkscape:window-y="0"
     inkscape:window-maximized="1"
     inkscape:current-layer="svg12" />
  <path
     style="color:#000000;fill:#fe1952;fill-opacity:0.2;stroke-width:2;-inkscape-stroke:none"
     d="m 11.67,56.08 c 0,1.71 1.71,3.42 3.417,3.42 h 33.996 c 1.709,0 3.417,-1.71 3.417,-3.42 V 27.017 c 0,-1.71 0,-1.71 -1.708,-3.42 L 35.417,8.21 C 34.51,7.524 33.708,6.5 32,6.5 H 14.917 C 13.208,6.5 11.5,8.21 11.5,9.92 Z"
     id="path5794" />
  <g
     fill="#fe1952"
     color="#807f7f"
     id="g9"
     transform="matrix(2.3673129,0,0,2.3673129,13.061497,20.618442)"
     style="fill:none;stroke:#fe1952;stroke-width:0.42242">
    <path
       id="use7"
       style="color:#807f7f;fill:url(#linearGradient850);stroke:none;-inkscape-stroke:none;fill-opacity:1"
       d="M 14.210938,1.6796875 13.916016,1.8066406 C 9.9532625,3.5036896 5.9892992,3.8528288 2.0039063,3.7890625 L 1.7890625,3.7851563 V 4 8.2265625 L 2.015625,8.2109375 C 5.7294741,7.9487248 9.2800349,7.9957139 14.074219,6.1972656 l 0.136719,-0.050781 z M 13.789063,2.2753906 V 5.8359375 C 9.2337842,7.5166652 5.8216733,7.527342 2.2109375,7.7714844 V 4.1992187 C 6.0569486,4.2462504 9.922175,3.8677325 13.789063,2.2753906 Z m 0.421875,5.4042969 -0.294922,0.1269531 C 9.9532625,9.5036896 5.9892992,9.8528288 2.0039063,9.7890625 L 1.7890625,9.7851563 V 10 14.226563 L 2.015625,14.210933 C 5.7294741,13.94872 9.2800349,13.995709 14.074219,12.197261 l 0.136719,-0.05078 z M 13.789063,8.2753906 V 11.835938 C 9.2337842,13.516665 5.8216733,13.527342 2.2109375,13.771484 V 10.199219 C 6.0569486,10.24625 9.922175,9.8677325 13.789063,8.2753906 Z M 0.78421066,-6.3863303 c -0.50184621,0 -0.95504106,0.2377535 -1.29201088,0.5750521 -0.33696981,0.3372986 -0.57422698,0.7902003 -0.57422698,1.2920108 v 8.237e-4 l 0.071778,19.4997917 c 5.069e-4,0.50131 0.23838886,0.953501 0.575052,1.290361 0.33703656,0.337235 0.78959693,0.575053 1.29118588,0.575053 H 15.215789 c 0.501846,0 0.955041,-0.237753 1.292011,-0.575052 0.33697,-0.337298 0.574227,-0.7902 0.574227,-1.29201 V 2.7031222 c 0,-0.3611686 0.006,-0.630378 -0.134481,-0.9116678 C 16.807065,1.5101645 16.597933,1.3209838 16.237187,0.95981524 L 9.7218559,-5.5604664 9.6979297,-5.5786173 C 9.3805483,-5.8186655 8.8903284,-6.3863303 7.9999999,-6.3863303 Z m 0,0.8448398 H 7.9999999 c 0.5383154,0 0.7355906,0.2854282 1.1600047,0.6138288 l 6.4790294,6.4848048 c 0.360168,0.3606194 0.512913,0.5323597 0.552776,0.6121789 0.03989,0.079879 0.04538,0.1726316 0.04538,0.5338002 V 14.9797 c 0,0.220526 -0.123285,0.490228 -0.32754,0.694682 -0.204255,0.204455 -0.473789,0.327541 -0.693858,0.327541 H 0.85598908 c -0.21948133,0 -0.48945832,-0.123022 -0.69385758,-0.327541 -0.20439968,-0.204519 -0.32754056,-0.47432 -0.32754056,-0.694682 v -8.45e-4 -8.45e-4 l -0.0717784,-19.4972774 c 0,-0.2205269 0.12328535,-0.4902283 0.32754056,-0.6946827 0.2042548,-0.2044544 0.47378908,-0.3275404 0.69385756,-0.3275404 z" />
  </g>
</svg>
