<?xml version="1.0" encoding="UTF-8" standalone="no"?>
<svg
   height="64"
   width="64"
   version="1.1"
   id="svg9"
   sodipodi:docname="text-x-bibtex.svg"
   inkscape:version="1.1.2 (0a00cf5339, 2022-02-04)"
   xmlns:inkscape="http://www.inkscape.org/namespaces/inkscape"
   xmlns:sodipodi="http://sodipodi.sourceforge.net/DTD/sodipodi-0.dtd"
   xmlns:xlink="http://www.w3.org/1999/xlink"
   xmlns="http://www.w3.org/2000/svg"
   xmlns:svg="http://www.w3.org/2000/svg">
  <defs
     id="defs13">
    <linearGradient
       inkscape:collect="always"
       id="linearGradient846">
      <stop
         style="stop-color:#ff19c5;stop-opacity:1;"
         offset="0"
         id="stop842" />
      <stop
         style="stop-color:#ff1952;stop-opacity:1"
         offset="1"
         id="stop844" />
    </linearGradient>
    <linearGradient
       inkscape:collect="always"
       xlink:href="#linearGradient846"
       id="linearGradient848"
       x1="17.828125"
       y1="44.853516"
       x2="42.927513"
       y2="15.893291"
       gradientUnits="userSpaceOnUse" />
  </defs>
  <sodipodi:namedview
     id="namedview11"
     pagecolor="#ffffff"
     bordercolor="#666666"
     borderopacity="1.0"
     inkscape:pageshadow="2"
     inkscape:pageopacity="0.0"
     inkscape:pagecheckerboard="0"
     showgrid="false"
     inkscape:zoom="10.21875"
     inkscape:cx="31.95107"
     inkscape:cy="32"
     inkscape:window-width="1600"
     inkscape:window-height="836"
     inkscape:window-x="0"
     inkscape:window-y="0"
     inkscape:window-maximized="1"
     inkscape:current-layer="svg9" />
  <path
     style="color:#000000;fill:#ff19c5;fill-opacity:0.2;stroke-width:2;-inkscape-stroke:none"
     d="m 11.67,56.08 c 0,1.71 1.71,3.42 3.417,3.42 h 33.996 c 1.709,0 3.417,-1.71 3.417,-3.42 V 27.017 c 0,-1.71 0,-1.71 -1.708,-3.42 L 35.417,8.21 C 34.51,7.524 33.708,6.5 32,6.5 H 14.917 C 13.208,6.5 11.5,8.21 11.5,9.92 Z"
     id="path5926" />
  <path
     id="path6"
     style="color:#000000;fill:url(#linearGradient848);-inkscape-stroke:none;fill-opacity:1"
     d="m 16.828125,24.291016 v 0.5 2.945312 h 30.34375 v -3.445312 z m 1,1 h 28.34375 v 1.445312 h -28.34375 z m 9.417969,3.890625 0.01953,0.517578 0.04883,1.347656 8.242188,10.845703 -7.947266,9.509766 v -2.658203 h -10.78125 v 0.5 2.945312 h 10.123047 l -0.339844,0.40625 v 2.039063 h 20.5625 V 46.84375 h -2.398437 v 0.5 c 0,0.72364 0.08383,1.276787 0.03906,1.652344 -0.04477,0.375556 -0.136105,0.60004 -0.646484,0.947265 -1.161056,0.793606 -2.783228,0.97461 -4.259766,0.97461 H 33.691405 L 40.294921,41.927734 33.61914,31.539062 h 3.191406 c 1.471201,0 3.201193,-0.05667 4.65039,0.28125 1.449198,0.337917 2.567707,0.995671 3.083985,2.521485 0.137759,0.404774 0.180133,1.518268 0.232422,2.171875 l 0.03711,0.460937 h 2.359375 v -7.791015 z m 1.037109,1 17.890625,0.002 v 5.791015 H 45.720703 C 45.694463,35.379107 45.701463,34.634484 45.492187,34.019578 44.856688,32.141415 43.326826,31.228 41.6875,30.84575 40.048174,30.4635 38.251801,30.53911 36.810547,30.539109 h -5.025391 l 7.296875,11.34961 -7.367187,10.029297 h 8.193359 c 1.550851,0 3.37165,-0.156911 4.822266,-1.148438 0.682969,-0.464643 1.00601,-1.067712 1.076172,-1.65625 0.05034,-0.422234 0.0038,-0.84248 -0.02148,-1.269531 h 0.388672 v 5.791016 h -18.5625 V 52.958984 L 36.835937,41.923828 28.302734,30.693359 Z m -11.455078,1.445312 v 0.5 2.945313 h 10.78125 v -3.445313 z m 1,1 h 8.78125 v 1.445313 h -8.78125 z m -1,3.890625 v 0.5 2.945313 h 13.226562 v -3.445313 z m 1,1 h 11.226562 v 1.445313 H 17.828125 Z m -1,6.335938 v 0.5 2.945312 h 13.226562 v -3.445312 z m 1,1 h 11.226562 v 1.445312 H 17.828125 Z m 0,4.890625 h 8.78125 v 1.445312 h -8.78125 z M 14.917969,5.5 C 13.729942,5.5 12.657088,6.0628369 11.859375,6.8613281 11.061662,7.6598194 10.5,8.7319796 10.5,9.9199219 v 0.00195 l 0.169922,46.1621091 c 0.0012,1.186757 0.564341,2.257235 1.361328,3.054688 C 12.829121,59.93701 13.900473,60.5 15.087891,60.5 h 33.99414 c 1.188027,0 2.260881,-0.562837 3.058594,-1.361328 C 52.938338,58.340181 53.5,57.26802 53.5,56.080078 v -29.0625 c 0,-0.854999 0.0142,-1.492302 -0.318359,-2.158203 C 52.849079,24.193474 52.353999,23.745624 51.5,22.890625 L 36.076172,7.4550781 36.019531,7.4121094 C 35.26819,6.8438401 34.107686,5.5 32,5.5 Z m 0,2 H 32 c 1.274361,0 1.741373,0.6756979 2.746094,1.453125 l 15.33789,15.351562 c 0.852631,0.853699 1.214226,1.260262 1.308594,1.449219 C 51.487016,25.943004 51.5,26.162579 51.5,27.017578 v 29.0625 c 0,0.522056 -0.291855,1.160524 -0.775391,1.644531 C 50.241074,58.208617 49.603002,58.5 49.082031,58.5 h -33.99414 c -0.519581,0 -1.158701,-0.29123 -1.642578,-0.775391 -0.483878,-0.48416 -0.775391,-1.122865 -0.775391,-1.644531 v -0.002 -0.002 L 12.5,9.9199219 c 0,-0.522056 0.291855,-1.1605238 0.775391,-1.6445313 C 13.758926,7.7913831 14.396998,7.5 14.917969,7.5 Z" />
</svg>
