<?xml version="1.0" encoding="UTF-8" standalone="no"?>
<svg
   height="64"
   width="64"
   version="1.1"
   id="svg9"
   sodipodi:docname="text-csv.svg"
   inkscape:version="1.1.2 (0a00cf5339, 2022-02-04)"
   xmlns:inkscape="http://www.inkscape.org/namespaces/inkscape"
   xmlns:sodipodi="http://sodipodi.sourceforge.net/DTD/sodipodi-0.dtd"
   xmlns="http://www.w3.org/2000/svg"
   xmlns:svg="http://www.w3.org/2000/svg">
  <defs
     id="defs13" />
  <sodipodi:namedview
     id="namedview11"
     pagecolor="#ffffff"
     bordercolor="#666666"
     borderopacity="1.0"
     inkscape:pageshadow="2"
     inkscape:pageopacity="0.0"
     inkscape:pagecheckerboard="0"
     showgrid="false"
     inkscape:zoom="10.21875"
     inkscape:cx="31.95107"
     inkscape:cy="32"
     inkscape:window-width="1600"
     inkscape:window-height="836"
     inkscape:window-x="0"
     inkscape:window-y="0"
     inkscape:window-maximized="1"
     inkscape:current-layer="svg9" />
  <path
     style="color:#000000;fill:#e5e5e5;fill-opacity:0.2;stroke-width:2;-inkscape-stroke:none"
     d="m 11.67,56.08 c 0,1.71 1.71,3.42 3.417,3.42 h 33.996 c 1.709,0 3.417,-1.71 3.417,-3.42 V 27.017 c 0,-1.71 0,-1.71 -1.708,-3.42 L 35.417,8.21 C 34.51,7.524 33.708,6.5 32,6.5 H 14.917 C 13.208,6.5 11.5,8.21 11.5,9.92 Z"
     id="path1184" />
  <path
     style="color:#000000;fill:#e5e5e5;-inkscape-stroke:none"
     d="M 14.917969,5.5 C 13.729942,5.5 12.657088,6.0628369 11.859375,6.8613281 11.061662,7.6598194 10.5,8.7319796 10.5,9.9199219 v 0.00195 l 0.169922,46.1621091 c 0.0012,1.186757 0.564341,2.257235 1.361328,3.054688 C 12.829121,59.93701 13.900473,60.5 15.087891,60.5 h 33.99414 c 1.188027,0 2.260881,-0.562837 3.058594,-1.361328 C 52.938338,58.340181 53.5,57.26802 53.5,56.080078 v -29.0625 c 0,-0.854999 0.0142,-1.492302 -0.318359,-2.158203 C 52.849079,24.193474 52.353999,23.745624 51.5,22.890625 L 36.076172,7.4550781 36.019531,7.4121094 C 35.26819,6.8438401 34.107686,5.5 32,5.5 Z m 0,2 H 32 c 1.274361,0 1.741373,0.6756979 2.746094,1.453125 l 15.33789,15.351562 c 0.852631,0.853699 1.214226,1.260262 1.308594,1.449219 C 51.487016,25.943004 51.5,26.162579 51.5,27.017578 v 29.0625 c 0,0.522056 -0.291855,1.160524 -0.775391,1.644531 C 50.241074,58.208617 49.603002,58.5 49.082031,58.5 h -33.99414 c -0.519581,0 -1.158701,-0.29123 -1.642578,-0.775391 -0.483878,-0.48416 -0.775391,-1.122865 -0.775391,-1.644531 v -0.002 -0.002 L 12.5,9.9199219 c 0,-0.522056 0.291855,-1.1605238 0.775391,-1.6445313 C 13.758926,7.7913831 14.396998,7.5 14.917969,7.5 Z"
     id="path1186" />
  <path
     style="color:#000000;fill:#e5e5e5;-inkscape-stroke:none"
     d="m 16.935547,23.634766 v 0.5 29.628906 h 17.992187 v -3.427735 h -7.283203 v -6.283203 h 7.283203 V 40.626953 H 27.644531 V 34.34375 h 8.710938 v 4.855469 H 39.78125 V 34.34375 h 3.855469 v 4.855469 h 3.427734 V 23.634766 H 19.863281 Z m 1,1 h 1.927734 26.201172 V 38.199219 H 44.636719 V 33.34375 H 38.78125 v 4.855469 H 37.355469 V 33.34375 H 26.644531 v 8.283203 h 7.283203 v 1.425781 h -7.283203 v 8.283203 h 7.283203 v 1.427735 H 17.935547 Z m 1.427734,1.427734 v 0.5 5.353516 H 44.636719 V 26.0625 Z m 1,1 h 23.273438 v 3.853516 H 20.363281 Z m -1,6.28125 v 0.5 7.783203 H 25.21875 V 33.34375 Z m 1,1 h 3.855469 v 6.283203 h -3.855469 z m 20.132813,6.283203 c -2.273076,0 -4.140625,1.766647 -4.140625,3.970703 0,1.97412 1.52388,3.527602 3.46875,3.841797 0.09369,0.509403 0.169945,1.022029 0.171875,1.537109 -0.0049,1.062748 -0.205373,2.115429 -0.591797,3.105469 l -0.578125,1.478516 1.320312,-0.88086 c 2.802899,-1.870298 4.485114,-4.937443 4.490235,-8.214843 v -0.867188 c 0,-2.204056 -1.86755,-3.970703 -4.140625,-3.970703 z m 0,1 c 1.761242,0 3.140625,1.329778 3.140625,2.970703 v 0.867188 c -0.0045,2.493479 -1.138713,4.813657 -3.019532,6.505859 0.145423,-0.663833 0.376054,-1.31176 0.378907,-1.994141 v -0.002 -0.002 c -0.0026,-0.68432 -0.07905,-1.366098 -0.22461,-2.035156 l -0.08203,-0.371094 -0.378906,-0.02148 c -1.672045,-0.09325 -2.955078,-1.367341 -2.955078,-2.947266 0,-1.640925 1.379382,-2.970703 3.140625,-2.970703 z m -21.132813,1.425781 v 0.5 7.783203 h 5.855469 v -8.283203 z m 1,1 h 3.855469 v 6.283203 h -3.855469 z"
     id="path960" />
</svg>
