<?xml version="1.0" encoding="UTF-8" standalone="no"?>
<svg
   height="64"
   width="64"
   version="1.1"
   id="svg9"
   sodipodi:docname="text-x-copying.svg"
   inkscape:version="1.1.2 (0a00cf5339, 2022-02-04)"
   xmlns:inkscape="http://www.inkscape.org/namespaces/inkscape"
   xmlns:sodipodi="http://sodipodi.sourceforge.net/DTD/sodipodi-0.dtd"
   xmlns:xlink="http://www.w3.org/1999/xlink"
   xmlns="http://www.w3.org/2000/svg"
   xmlns:svg="http://www.w3.org/2000/svg">
  <defs
     id="defs13">
    <linearGradient
       inkscape:collect="always"
       xlink:href="#linearGradient3"
       id="linearGradient4"
       x1="17.007172"
       y1="11.471969"
       x2="49.579529"
       y2="55.112125"
       gradientUnits="userSpaceOnUse" />
    <linearGradient
       id="linearGradient3"
       inkscape:collect="always">
      <stop
         style="stop-color:#3100ff;stop-opacity:0.2"
         offset="0"
         id="stop3" />
      <stop
         style="stop-color:#c200ff;stop-opacity:0.40000001"
         offset="1"
         id="stop4" />
    </linearGradient>
  </defs>
  <sodipodi:namedview
     id="namedview11"
     pagecolor="#ffffff"
     bordercolor="#666666"
     borderopacity="1.0"
     inkscape:pageshadow="2"
     inkscape:pageopacity="0.0"
     inkscape:pagecheckerboard="0"
     showgrid="false"
     inkscape:zoom="10.21875"
     inkscape:cx="31.95107"
     inkscape:cy="31.804281"
     inkscape:window-width="1600"
     inkscape:window-height="836"
     inkscape:window-x="0"
     inkscape:window-y="0"
     inkscape:window-maximized="1"
     inkscape:current-layer="svg9" />
  <path
     style="color:#000000;fill:url(#linearGradient4);stroke-width:2;-inkscape-stroke:none"
     d="m 11.67,56.08 c 0,1.71 1.71,3.42 3.417,3.42 h 33.996 c 1.709,0 3.417,-1.71 3.417,-3.42 V 27.017 c 0,-1.71 0,-1.71 -1.708,-3.42 L 35.417,8.21 C 34.51,7.524 33.708,6.5 32,6.5 H 14.917 C 13.208,6.5 11.5,8.21 11.5,9.92 Z"
     id="path1663" />
  <path
     style="color:#000000;fill:#e5e5e6;-inkscape-stroke:none"
     d="M 14.917969,5.5 C 13.729942,5.5 12.657088,6.0628369 11.859375,6.8613281 11.061662,7.6598194 10.5,8.7319796 10.5,9.9199219 v 0.00195 l 0.169922,46.1621091 c 0.0012,1.186757 0.564341,2.257235 1.361328,3.054688 C 12.829121,59.93701 13.900473,60.5 15.087891,60.5 h 33.99414 c 1.188027,0 2.260881,-0.562837 3.058594,-1.361328 C 52.938338,58.340181 53.5,57.26802 53.5,56.080078 v -29.0625 c 0,-0.854999 0.0142,-1.492302 -0.318359,-2.158203 C 52.849079,24.193474 52.353999,23.745624 51.5,22.890625 L 36.076172,7.4550781 36.019531,7.4121094 C 35.26819,6.8438401 34.107686,5.5 32,5.5 Z m 0,2 H 32 c 1.274361,0 1.741373,0.6756979 2.746094,1.453125 l 15.33789,15.351562 c 0.852631,0.853699 1.214226,1.260262 1.308594,1.449219 C 51.487016,25.943004 51.5,26.162579 51.5,27.017578 v 29.0625 c 0,0.522056 -0.291855,1.160524 -0.775391,1.644531 C 50.241074,58.208617 49.603002,58.5 49.082031,58.5 h -33.99414 c -0.519581,0 -1.158701,-0.29123 -1.642578,-0.775391 -0.483878,-0.48416 -0.775391,-1.122865 -0.775391,-1.644531 v -0.002 -0.002 L 12.5,9.9199219 c 0,-0.522056 0.291855,-1.1605238 0.775391,-1.6445313 C 13.758926,7.7913831 14.396998,7.5 14.917969,7.5 Z"
     id="path1665" />
  <path
     style="color:#000000;fill:#e5e5e6;-inkscape-stroke:none"
     d="m 32,20.548828 c -9.632247,0 -17.451172,7.818932 -17.451172,17.451172 0,9.63224 7.818925,17.451172 17.451172,17.451172 9.632247,0 17.451172,-7.818932 17.451172,-17.451172 0,-9.63224 -7.818925,-17.451172 -17.451172,-17.451172 z m 0,1 c 9.091807,0 16.451172,7.359371 16.451172,16.451172 0,9.091801 -7.359365,16.451172 -16.451172,16.451172 -9.091807,0 -16.451172,-7.359371 -16.451172,-16.451172 0,-9.091801 7.359365,-16.451172 16.451172,-16.451172 z m -0.002,1.824219 C 23.937759,23.389776 17.40315,29.939701 17.402344,38 c -8.06e-4,8.060299 6.533466,14.610566 14.59375,14.628906 8.085057,0.0184 14.659348,-6.54188 14.660156,-14.626953 8.08e-4,-8.085072 -6.573142,-14.645686 -14.658203,-14.628906 z m 0.0039,1 C 39.545807,24.35739 45.657004,30.458088 45.65625,38.001953 45.655496,45.545818 39.541898,51.646072 31.998047,51.628906 24.477432,51.611794 18.401592,45.52063 18.402344,38 18.403096,30.47937 24.481335,24.388656 32.001953,24.373047 Z M 32,29.023437 c -4.95123,10e-7 -8.976562,4.025333 -8.976563,8.976563 10e-7,4.95123 4.025333,8.976562 8.976563,8.976562 2.821051,-0.0045 5.478233,-1.336198 7.169922,-3.59375 L 39.46875,42.982422 36.412109,40.6875 36.111328,41.087891 C 35.140009,42.382987 33.618867,43.146008 32,43.148437 c -2.850454,10e-7 -5.150391,-2.299936 -5.150391,-5.15039 0,-2.850454 2.299937,-5.150391 5.150391,-5.150391 1.622043,6.08e-4 3.148679,0.764257 4.121094,2.0625 l 0.298828,0.400391 3.048828,-2.296875 -0.298828,-0.398438 C 37.477608,30.35881 34.820525,29.0272 32,29.023437 Z m 0,1 c 2.331835,0.0031 4.469572,1.106632 5.976562,2.863282 l -1.451171,1.09375 C 35.364818,32.679371 33.759799,31.848316 32,31.847656 c -3.390893,0 -6.150391,2.759497 -6.150391,6.150391 0,3.390893 2.759498,6.150391 6.150391,6.15039 1.756109,-0.0026 3.358657,-0.833125 4.517578,-2.130859 l 1.458984,1.09375 C 36.470003,44.868994 34.33233,45.972868 32,45.976562 27.58921,45.976562 24.023438,42.41079 24.023437,38 24.023438,33.58921 27.58921,30.023438 32,30.023437 Z"
     id="path833" />
</svg>
