<?xml version="1.0" encoding="UTF-8" standalone="no"?>
<svg
   height="64"
   width="64"
   version="1.1"
   id="svg13"
   sodipodi:docname="text-x-c++src.svg"
   inkscape:version="1.1.2 (0a00cf5339, 2022-02-04)"
   xmlns:inkscape="http://www.inkscape.org/namespaces/inkscape"
   xmlns:sodipodi="http://sodipodi.sourceforge.net/DTD/sodipodi-0.dtd"
   xmlns:xlink="http://www.w3.org/1999/xlink"
   xmlns="http://www.w3.org/2000/svg"
   xmlns:svg="http://www.w3.org/2000/svg">
  <defs
     id="defs17">
    <linearGradient
       inkscape:collect="always"
       id="linearGradient990">
      <stop
         style="stop-color:#0080ff;stop-opacity:1;"
         offset="0"
         id="stop986" />
      <stop
         style="stop-color:#00ffe8;stop-opacity:1"
         offset="1"
         id="stop988" />
    </linearGradient>
    <linearGradient
       inkscape:collect="always"
       xlink:href="#linearGradient990"
       id="linearGradient992"
       x1="12.123068"
       y1="47.498001"
       x2="45.597046"
       y2="14.312609"
       gradientUnits="userSpaceOnUse" />
  </defs>
  <sodipodi:namedview
     id="namedview15"
     pagecolor="#ffffff"
     bordercolor="#666666"
     borderopacity="1.0"
     inkscape:pageshadow="2"
     inkscape:pageopacity="0.0"
     inkscape:pagecheckerboard="0"
     showgrid="false"
     inkscape:zoom="10.21875"
     inkscape:cx="31.95107"
     inkscape:cy="32"
     inkscape:window-width="1600"
     inkscape:window-height="836"
     inkscape:window-x="0"
     inkscape:window-y="0"
     inkscape:window-maximized="1"
     inkscape:current-layer="svg13" />
  <path
     style="color:#000000;fill:#0080ff;fill-opacity:0.2;stroke-width:2;-inkscape-stroke:none"
     d="m 11.67,56.08 c 0,1.71 1.71,3.42 3.417,3.42 h 33.996 c 1.709,0 3.417,-1.71 3.417,-3.42 V 27.017 c 0,-1.71 0,-1.71 -1.708,-3.42 L 35.417,8.21 C 34.51,7.524 33.708,6.5 32,6.5 H 14.917 C 13.208,6.5 11.5,8.21 11.5,9.92 Z"
     id="path6619" />
  <path
     id="path8"
     style="color:#000000;fill:url(#linearGradient992);-inkscape-stroke:none;fill-opacity:1"
     d="m 26.78125,32.28125 c -6.03559,0 -10.939453,4.90191 -10.939453,10.9375 0,6.03559 4.903863,10.939453 10.939453,10.939453 2.899697,-0.0035 5.67988,-1.15878 7.728516,-3.210937 l 0.353515,-0.353516 -2.552734,-2.550781 -0.353516,0.353515 c -1.371877,1.374885 -3.233582,2.148823 -5.175781,2.152344 -4.053808,0 -7.330078,-3.27627 -7.330078,-7.330078 0,-4.053142 3.275239,-7.327048 7.328125,-7.328125 1.9434,0.0017 3.806351,0.775343 5.179687,2.150391 L 32.3125,38.394531 34.863281,35.84375 34.509766,35.490234 C 32.46113,33.438077 29.680947,32.28477 26.78125,32.28125 Z m -0.002,1 h 0.002 c 2.461087,0.0035 4.779597,0.992117 6.597656,2.632812 l -1.136719,1.136719 c -1.515897,-1.339834 -3.426064,-2.158365 -5.460937,-2.160156 -4.594247,0 -8.330078,3.733878 -8.330078,8.328125 0,4.594247 3.735831,8.330078 8.330078,8.330078 2.034267,-0.0031 3.944149,-0.82198 5.458984,-2.162109 l 1.138672,1.138672 c -1.818059,1.640695 -4.136569,2.629342 -6.597656,2.632812 -5.495151,0 -9.939453,-4.444302 -9.939453,-9.939453 0,-5.494485 4.44327,-9.936423 9.9375,-9.9375 z M 31.5,21.841797 v 0.5 2.109375 h -2.609375 v 3.609375 H 31.5 v 2.609375 h 3.609375 v -2.609375 h 2.609375 v -3.609375 h -2.609375 v -2.609375 z m 1,1 h 1.609375 v 2.609375 h 2.609375 v 1.609375 h -2.609375 v 2.609375 H 32.5 V 27.060547 H 29.890625 V 25.451172 H 32.5 Z m 9.439453,-1 v 0.5 2.109375 h -2.609375 v 3.609375 h 2.609375 v 2.609375 h 3.609375 v -2.609375 h 2.609375 v -3.609375 h -2.609375 v -2.609375 z m 1,1 h 1.609375 v 2.609375 h 2.609375 v 1.609375 h -2.609375 v 2.609375 h -1.609375 v -2.609375 h -2.609375 v -1.609375 h 2.609375 z M 14.917969,5.5 C 13.729942,5.5 12.657088,6.0628369 11.859375,6.8613281 11.061662,7.6598194 10.5,8.7319796 10.5,9.9199219 v 0.00195 l 0.169922,46.1621091 c 0.0012,1.186757 0.564341,2.257235 1.361328,3.054688 C 12.829121,59.93701 13.900473,60.5 15.087891,60.5 h 33.99414 c 1.188027,0 2.260881,-0.562837 3.058594,-1.361328 C 52.938338,58.340181 53.5,57.26802 53.5,56.080078 v -29.0625 c 0,-0.854999 0.0142,-1.492302 -0.318359,-2.158203 C 52.849079,24.193474 52.353999,23.745624 51.5,22.890625 L 36.076172,7.4550781 36.019531,7.4121094 C 35.26819,6.8438401 34.107686,5.5 32,5.5 Z m 0,2 H 32 c 1.274361,0 1.741373,0.6756979 2.746094,1.453125 l 15.33789,15.351562 c 0.852631,0.853699 1.214226,1.260262 1.308594,1.449219 C 51.487016,25.943004 51.5,26.162579 51.5,27.017578 v 29.0625 c 0,0.522056 -0.291855,1.160524 -0.775391,1.644531 C 50.241074,58.208617 49.603002,58.5 49.082031,58.5 h -33.99414 c -0.519581,0 -1.158701,-0.29123 -1.642578,-0.775391 -0.483878,-0.48416 -0.775391,-1.122865 -0.775391,-1.644531 v -0.002 -0.002 L 12.5,9.9199219 c 0,-0.522056 0.291855,-1.1605238 0.775391,-1.6445313 C 13.758926,7.7913831 14.396998,7.5 14.917969,7.5 Z" />
</svg>
