<?xml version="1.0" encoding="UTF-8" standalone="no"?>
<svg
   width="64"
   height="64"
   viewBox="0 0 64.000002 64.000002"
   fill="none"
   version="1.1"
   id="svg849"
   sodipodi:docname="folder-bookmarks.svg"
   inkscape:version="1.1.2 (0a00cf5339, 2022-02-04)"
   xmlns:inkscape="http://www.inkscape.org/namespaces/inkscape"
   xmlns:sodipodi="http://sodipodi.sourceforge.net/DTD/sodipodi-0.dtd"
   xmlns:xlink="http://www.w3.org/1999/xlink"
   xmlns="http://www.w3.org/2000/svg"
   xmlns:svg="http://www.w3.org/2000/svg"
   xmlns:rdf="http://www.w3.org/1999/02/22-rdf-syntax-ns#"
   xmlns:cc="http://creativecommons.org/ns#"
   xmlns:dc="http://purl.org/dc/elements/1.1/">
  <style
     id="style3436" />
  <metadata
     id="metadata2611">
    <rdf:RDF>
      <cc:Work
         rdf:about="">
        <dc:format>image/svg+xml</dc:format>
        <dc:type
           rdf:resource="http://purl.org/dc/dcmitype/StillImage" />
        <dc:title />
      </cc:Work>
    </rdf:RDF>
  </metadata>
  <sodipodi:namedview
     id="namedview849"
     pagecolor="#6a6a6a"
     bordercolor="#000000"
     borderopacity="0.25"
     inkscape:showpageshadow="2"
     inkscape:pageopacity="0"
     inkscape:pagecheckerboard="0"
     inkscape:deskcolor="#767676"
     inkscape:zoom="7.0264989"
     inkscape:cx="22.699783"
     inkscape:cy="31.238886"
     inkscape:window-width="1056"
     inkscape:window-height="545"
     inkscape:window-x="351"
     inkscape:window-y="99"
     inkscape:window-maximized="0"
     inkscape:current-layer="svg849"
     showgrid="true"
     showguides="false"
     inkscape:document-rotation="0"
     inkscape:pageshadow="2">
    <inkscape:grid
       id="grid1"
       units="px"
       originx="0"
       originy="0"
       spacingx="1"
       spacingy="1"
       empcolor="#0099e5"
       empopacity="0.30196078"
       color="#0099e5"
       opacity="0.14901961"
       empspacing="5"
       dotted="false"
       gridanglex="30"
       gridanglez="30"
       visible="true" />
  </sodipodi:namedview>
  <defs
     id="defs849">
    <radialGradient
       inkscape:collect="always"
       xlink:href="#linearGradient3447"
       id="radialGradient3453"
       cx="330.09338"
       cy="648.19318"
       fx="330.09338"
       fy="648.19318"
       r="68.479294"
       gradientTransform="matrix(0.27745634,0.33586795,-0.38426993,0.31744062,163.49463,-299.63063)"
       gradientUnits="userSpaceOnUse" />
    <linearGradient
       inkscape:collect="always"
       id="linearGradient3447">
      <stop
         style="stop-color:#ff1ea4;stop-opacity:1"
         offset="0"
         id="stop3443" />
      <stop
         style="stop-color:#ff2257;stop-opacity:1"
         offset="1"
         id="stop3445" />
    </linearGradient>
    <linearGradient
       inkscape:collect="always"
       xlink:href="#linearGradient3447"
       id="linearGradient3465"
       gradientUnits="userSpaceOnUse"
       x1="18.30422"
       y1="45.226242"
       x2="-2.6277542"
       y2="67.287506" />
    <linearGradient
       inkscape:collect="always"
       xlink:href="#linearGradient3447"
       id="linearGradient3739"
       x1="37.900002"
       y1="39.5"
       x2="51.900002"
       y2="39.5"
       gradientUnits="userSpaceOnUse" />
    <radialGradient
       inkscape:collect="always"
       xlink:href="#linearGradient3460-3"
       id="radialGradient3462-3"
       cx="365.91464"
       cy="652.53467"
       fx="365.91464"
       fy="652.53467"
       r="68.488464"
       gradientTransform="matrix(0.21773607,0.44762471,-0.41069158,0.19977087,203.31767,-269.14985)"
       gradientUnits="userSpaceOnUse" />
    <linearGradient
       inkscape:collect="always"
       id="linearGradient3460-3">
      <stop
         style="stop-color:#ff6bc5;stop-opacity:1"
         offset="0"
         id="stop3456-6" />
      <stop
         style="stop-color:#ff50e0;stop-opacity:0.41176471"
         offset="0.50388169"
         id="stop1054" />
      <stop
         style="stop-color:#ff4298;stop-opacity:0.07843138"
         offset="1"
         id="stop3458-7" />
    </linearGradient>
  </defs>
  <path
     fill-rule="evenodd"
     clip-rule="evenodd"
     d="M 0.02158279,15.790491 C -0.3054796,11.586415 3.1258721,8 7.476269,8 h 5.021342 9.833832 c 2.072173,0 4.051368,0.8336604 5.465212,2.301736 l 8.649398,8.981434 c 1.413844,1.468075 3.393039,2.301736 5.465213,2.301736 h 9.833831 4.778382 c 4.438704,0 7.899491,3.725887 7.434595,8.003773 L 61.794323,49.513208 C 61.393905,53.200604 58.185423,56 54.359728,56 H 10.08576 C 6.175028,56 2.9254295,53.079245 2.6310734,49.299925 Z"
     id="path475-6"
     style="fill:url(#radialGradient3462-3);fill-opacity:1;stroke-width:0.459975" />
  <path
     d="M 0.25472689,15.77328 C -0.06252311,11.70053 3.2618369,8.22642 7.4762669,8.22642 h 5.0213401 9.83384 c 2.00722,0 3.92474,0.80739 5.29467,2.22973 l 8.64893,8.98144 c 1.45823,1.51426 3.4991,2.37373 5.63622,2.37373 h 9.83383 4.77838 c 4.29994,0 7.6528,3.60951 7.20238,7.75381 l -2.16375,19.92453 c -0.38827,3.57193 -3.49629,6.28393 -7.20238,6.28393 h -44.27397 c -3.7883101,0 -6.9365201,-2.82974 -7.2215301,-6.49087 z"
     id="path476-6"
     style="stroke:url(#radialGradient3453);stroke-width:1;stroke-opacity:0.8;stroke-miterlimit:4;stroke-dasharray:none" />
  <rect
     x="7.1290851"
     y="13.700634"
     width="17.399538"
     height="4.1239581"
     rx="2.2763124"
     id="rect476-7"
     style="fill:#ff2c5e;fill-opacity:1;stroke-width:0.42673"
     ry="2.2763121" />
  <rect
     x="-8.4833736"
     y="45.766594"
     width="26.980455"
     height="26.941265"
     rx="6.0943475"
     shape-rendering="crispEdges"
     id="rect5-5-3"
     ry="6.7048149"
     transform="matrix(0.73510941,-0.67794849,0.69747994,0.71660431,0,0)"
     style="fill:#ff22a3;fill-opacity:0.09626711;stroke:url(#linearGradient3465);stroke-width:1.00018103;stroke-opacity:1;stroke-miterlimit:4;stroke-dasharray:none" />
  <path
     style="color:#000000;fill:url(#linearGradient3739);-inkscape-stroke:none"
     d="m 39.300781,30 c 0,0 -0.437506,-0.0081 -0.898437,0.189453 -0.460931,0.197542 -1.001953,0.715322 -1.001953,1.509766 v 17.621093 l 7.5,-3.857421 7.5,3.857421 V 31.699219 c 0,0 0.004,-0.426248 -0.244141,-0.851563 C 51.90815,30.422342 51.342856,30 50.5,30 Z m 0,1 H 50.5 c 0.557142,0 0.691069,0.176878 0.792969,0.351562 0.101899,0.174685 0.107422,0.347657 0.107422,0.347657 v 15.980468 l -6.5,-3.341796 -6.5,3.341796 V 31.699219 c 0,-0.405555 0.157415,-0.487386 0.396484,-0.589844 C 39.035944,31.006917 39.300781,31 39.300781,31 Z"
     id="path1-3-3" />
</svg>
