<?xml version="1.0" encoding="UTF-8" standalone="no"?>
<svg
   width="64"
   height="64"
   viewBox="0 0 64.000002 64.000002"
   fill="none"
   version="1.1"
   id="svg849"
   sodipodi:docname="folder-gdrive.svg"
   inkscape:version="1.1.2 (0a00cf5339, 2022-02-04)"
   xmlns:inkscape="http://www.inkscape.org/namespaces/inkscape"
   xmlns:sodipodi="http://sodipodi.sourceforge.net/DTD/sodipodi-0.dtd"
   xmlns:xlink="http://www.w3.org/1999/xlink"
   xmlns="http://www.w3.org/2000/svg"
   xmlns:svg="http://www.w3.org/2000/svg"
   xmlns:rdf="http://www.w3.org/1999/02/22-rdf-syntax-ns#"
   xmlns:cc="http://creativecommons.org/ns#"
   xmlns:dc="http://purl.org/dc/elements/1.1/">
  <style
     id="style3448" />
  <metadata
     id="metadata2623">
    <rdf:RDF>
      <cc:Work
         rdf:about="">
        <dc:format>image/svg+xml</dc:format>
        <dc:type
           rdf:resource="http://purl.org/dc/dcmitype/StillImage" />
        <dc:title />
      </cc:Work>
    </rdf:RDF>
  </metadata>
  <sodipodi:namedview
     id="namedview849"
     pagecolor="#6c6c6c"
     bordercolor="#000000"
     borderopacity="0.25"
     inkscape:showpageshadow="2"
     inkscape:pageopacity="0"
     inkscape:pagecheckerboard="0"
     inkscape:deskcolor="#767676"
     inkscape:zoom="7.0264988"
     inkscape:cx="29.815703"
     inkscape:cy="25.474992"
     inkscape:window-width="1600"
     inkscape:window-height="836"
     inkscape:window-x="0"
     inkscape:window-y="0"
     inkscape:window-maximized="1"
     inkscape:current-layer="svg849"
     showgrid="true"
     showguides="false"
     inkscape:document-rotation="0"
     inkscape:pageshadow="2">
    <inkscape:grid
       id="grid1"
       units="px"
       originx="0"
       originy="0"
       spacingx="1"
       spacingy="1"
       empcolor="#0099e5"
       empopacity="0.30196078"
       color="#0099e5"
       opacity="0.14901961"
       empspacing="5"
       dotted="false"
       gridanglex="30"
       gridanglez="30"
       visible="true" />
  </sodipodi:namedview>
  <defs
     id="defs849">
    <radialGradient
       inkscape:collect="always"
       xlink:href="#linearGradient3447"
       id="radialGradient3453"
       cx="330.09338"
       cy="648.19318"
       fx="330.09338"
       fy="648.19318"
       r="68.479294"
       gradientTransform="matrix(0.27745634,0.40888272,-0.41243821,0.27986899,181.75312,-299.37865)"
       gradientUnits="userSpaceOnUse" />
    <linearGradient
       inkscape:collect="always"
       id="linearGradient3447">
      <stop
         style="stop-color:#2ca1ff;stop-opacity:1"
         offset="0"
         id="stop3443" />
      <stop
         style="stop-color:#2aff17;stop-opacity:1"
         offset="1"
         id="stop3445" />
    </linearGradient>
    <linearGradient
       inkscape:collect="always"
       xlink:href="#linearGradient3447"
       id="linearGradient3469"
       x1="16.211023"
       y1="47.432365"
       x2="-1.9300216"
       y2="66.552132"
       gradientUnits="userSpaceOnUse" />
    <radialGradient
       inkscape:collect="always"
       xlink:href="#linearGradient3460-3"
       id="radialGradient3462-3"
       cx="365.91464"
       cy="652.53467"
       fx="365.91464"
       fy="652.53467"
       r="68.488464"
       gradientTransform="matrix(0.21773607,0.44762471,-0.41069158,0.19977087,203.31767,-269.14985)"
       gradientUnits="userSpaceOnUse" />
    <linearGradient
       inkscape:collect="always"
       id="linearGradient3460-3">
      <stop
         style="stop-color:#6be7ff;stop-opacity:1"
         offset="0"
         id="stop3456-6" />
      <stop
         style="stop-color:#60ff50;stop-opacity:0.41176471"
         offset="0.50388169"
         id="stop1054" />
      <stop
         style="stop-color:#fbff42;stop-opacity:0.07843138"
         offset="1"
         id="stop3458-7" />
    </linearGradient>
  </defs>
  <path
     fill-rule="evenodd"
     clip-rule="evenodd"
     d="M 0.02158279,15.790491 C -0.3054796,11.586415 3.1258721,8 7.476269,8 h 5.021342 9.833832 c 2.072173,0 4.051368,0.8336604 5.465212,2.301736 l 8.649398,8.981434 c 1.413844,1.468075 3.393039,2.301736 5.465213,2.301736 h 9.833831 4.778382 c 4.438704,0 7.899491,3.725887 7.434595,8.003773 L 61.794323,49.513208 C 61.393905,53.200604 58.185423,56 54.359728,56 H 10.08576 C 6.175028,56 2.9254295,53.079245 2.6310734,49.299925 Z"
     id="path475-6"
     style="fill:url(#radialGradient3462-3);fill-opacity:1;stroke-width:0.459975" />
  <path
     d="M 0.2547268,15.773284 C -0.06252314,11.70053 3.2618368,8.226416 7.476267,8.226416 h 5.02134 9.83384 c 2.00722,0 3.92474,0.807396 5.29467,2.229736 l 8.64893,8.981434 c 1.45823,1.514264 3.4991,2.373736 5.63622,2.373736 h 9.83383 4.77838 c 4.29994,0 7.6528,3.609509 7.20238,7.753811 l -2.16375,19.924527 c -0.38827,3.57193 -3.49629,6.28393 -7.20238,6.28393 h -44.27397 c -3.7883102,0 -6.9365202,-2.82974 -7.2215302,-6.49087 z"
     id="path476-6"
     style="stroke:url(#radialGradient3453);stroke-width:1;stroke-opacity:0.8;stroke-miterlimit:4;stroke-dasharray:none" />
  <rect
     x="7.1290808"
     y="13.700628"
     width="17.399538"
     height="4.1239581"
     rx="2.2763124"
     id="rect476-7"
     style="fill:#25ff5b;fill-opacity:1;stroke-width:0.42673"
     ry="2.2763121" />
  <rect
     x="-8.4833784"
     y="45.766655"
     width="26.980455"
     height="26.941265"
     rx="6.0943475"
     shape-rendering="crispEdges"
     id="rect5-5-3"
     ry="6.7048149"
     style="fill:#3cff50;fill-opacity:0.09803922;stroke:url(#linearGradient3469);stroke-width:1.00018103;stroke-opacity:0.734323;stroke-miterlimit:4;stroke-dasharray:none"
     transform="matrix(0.73510941,-0.67794849,0.69747994,0.71660431,0,0)" />
  <path
     style="color:#000000;fill:#33c0eb;-inkscape-stroke:none"
     d="m 41.689453,41.724609 -0.146484,0.234375 -3.705078,5.910157 h 14.078125 l 3.853515,-6.144532 z m 0.552734,1 h 11.720704 l -2.59961,4.144532 H 39.646484 Z"
     id="path3886" />
  <path
     style="color:#000000;fill:#5ef02b;-inkscape-stroke:none"
     d="m 41.130859,29.380859 -0.46289,0.751953 -6.490235,10.560547 3.513672,7.089844 6.777344,-11.972656 z m -0.07227,2.029297 2.273437,4.378906 L 37.75,45.650391 35.320312,40.746094 Z"
     id="path3884" />
  <path
     style="color:#000000;fill:#ffe100;-inkscape-stroke:none"
     d="m 41.269531,28.869141 0.408203,0.740234 6.517578,11.830078 h 7.517579 L 48.785156,28.869141 Z m 1.69336,1 h 5.232421 l 5.826172,10.570312 h -5.236328 z"
     id="path6-6-6-7-2-3" />
</svg>
