<?xml version="1.0" encoding="UTF-8" standalone="no"?>
<svg
   width="64"
   height="64"
   viewBox="0 0 64.000002 64.000002"
   fill="none"
   version="1.1"
   id="svg849"
   sodipodi:docname="network-workgroup.svg"
   inkscape:version="1.1.2 (0a00cf5339, 2022-02-04)"
   xmlns:inkscape="http://www.inkscape.org/namespaces/inkscape"
   xmlns:sodipodi="http://sodipodi.sourceforge.net/DTD/sodipodi-0.dtd"
   xmlns:xlink="http://www.w3.org/1999/xlink"
   xmlns="http://www.w3.org/2000/svg"
   xmlns:svg="http://www.w3.org/2000/svg"
   xmlns:rdf="http://www.w3.org/1999/02/22-rdf-syntax-ns#"
   xmlns:cc="http://creativecommons.org/ns#"
   xmlns:dc="http://purl.org/dc/elements/1.1/">
  <style
     id="style3453" />
  <metadata
     id="metadata2628">
    <rdf:RDF>
      <cc:Work
         rdf:about="">
        <dc:format>image/svg+xml</dc:format>
        <dc:type
           rdf:resource="http://purl.org/dc/dcmitype/StillImage" />
        <dc:title />
      </cc:Work>
    </rdf:RDF>
  </metadata>
  <sodipodi:namedview
     id="namedview849"
     pagecolor="#656565"
     bordercolor="#000000"
     borderopacity="0.25"
     inkscape:showpageshadow="2"
     inkscape:pageopacity="0"
     inkscape:pagecheckerboard="0"
     inkscape:deskcolor="#767676"
     inkscape:zoom="4.968485"
     inkscape:cx="37.536594"
     inkscape:cy="35.926445"
     inkscape:window-width="1056"
     inkscape:window-height="545"
     inkscape:window-x="309"
     inkscape:window-y="78"
     inkscape:window-maximized="0"
     inkscape:current-layer="svg849"
     showgrid="true"
     showguides="false"
     inkscape:document-rotation="0"
     inkscape:pageshadow="2">
    <inkscape:grid
       id="grid1"
       units="px"
       originx="0"
       originy="0"
       spacingx="1"
       spacingy="1"
       empcolor="#0099e5"
       empopacity="0.30196078"
       color="#0099e5"
       opacity="0.14901961"
       empspacing="5"
       dotted="false"
       gridanglex="30"
       gridanglez="30"
       visible="true" />
  </sodipodi:namedview>
  <defs
     id="defs849">
    <radialGradient
       inkscape:collect="always"
       xlink:href="#linearGradient3447"
       id="radialGradient3453"
       cx="330.09338"
       cy="648.19318"
       fx="330.09338"
       fy="648.19318"
       r="68.479294"
       gradientTransform="matrix(0.27745641,0.40888272,-0.41243818,0.27986904,181.75307,-299.37868)"
       gradientUnits="userSpaceOnUse" />
    <linearGradient
       inkscape:collect="always"
       id="linearGradient3447">
      <stop
         style="stop-color:#00eeb5;stop-opacity:1"
         offset="0"
         id="stop3443" />
      <stop
         style="stop-color:#11d5ff;stop-opacity:1"
         offset="1"
         id="stop3445" />
    </linearGradient>
    <linearGradient
       inkscape:collect="always"
       xlink:href="#linearGradient3447"
       id="linearGradient3463"
       x1="18.30422"
       y1="45.226242"
       x2="-6.1164165"
       y2="70.964386"
       gradientUnits="userSpaceOnUse"
       gradientTransform="translate(6.0848407e-6)" />
    <linearGradient
       inkscape:collect="always"
       xlink:href="#linearGradient3447"
       id="linearGradient3482"
       x1="36.742001"
       y1="38.432999"
       x2="53.742001"
       y2="38.432999"
       gradientUnits="userSpaceOnUse" />
    <radialGradient
       inkscape:collect="always"
       xlink:href="#linearGradient3460-3"
       id="radialGradient3462-3"
       cx="365.91464"
       cy="652.53467"
       fx="365.91464"
       fy="652.53467"
       r="68.488464"
       gradientTransform="matrix(0.21773607,0.44762471,-0.41069158,0.19977087,203.31767,-269.14985)"
       gradientUnits="userSpaceOnUse" />
    <linearGradient
       inkscape:collect="always"
       id="linearGradient3460-3">
      <stop
         style="stop-color:#6bffeb;stop-opacity:1"
         offset="0"
         id="stop3456-6" />
      <stop
         style="stop-color:#50ffe8;stop-opacity:0.41176471"
         offset="0.50388169"
         id="stop1054" />
      <stop
         style="stop-color:#42ebff;stop-opacity:0.07843138"
         offset="1"
         id="stop3458-7" />
    </linearGradient>
  </defs>
  <path
     fill-rule="evenodd"
     clip-rule="evenodd"
     d="M 0.02158279,15.790491 C -0.3054796,11.586415 3.1258721,8 7.476269,8 h 5.021342 9.833832 c 2.072173,0 4.051368,0.8336604 5.465212,2.301736 l 8.649398,8.981434 c 1.413844,1.468075 3.393039,2.301736 5.465213,2.301736 h 9.833831 4.778382 c 4.438704,0 7.899491,3.725887 7.434595,8.003773 L 61.794323,49.513208 C 61.393905,53.200604 58.185423,56 54.359728,56 H 10.08576 C 6.175028,56 2.9254295,53.079245 2.6310734,49.299925 Z"
     id="path475-6"
     style="fill:url(#radialGradient3462-3);fill-opacity:1;stroke-width:0.459975" />
  <path
     d="M 0.25472689,15.773284 C -0.06252311,11.70053 3.2618369,8.226416 7.4762669,8.226416 h 5.0213401 9.83384 c 2.00722,0 3.92474,0.807396 5.29467,2.229736 l 8.64893,8.981434 c 1.45823,1.514264 3.4991,2.373736 5.63622,2.373736 h 9.83383 4.77838 c 4.29994,0 7.6528,3.609508 7.20238,7.753808 l -2.16375,19.92453 c -0.38827,3.57193 -3.49629,6.28393 -7.20238,6.28393 h -44.27397 c -3.7883101,0 -6.9365201,-2.82974 -7.2215401,-6.49087 z"
     id="path476-6"
     style="stroke:url(#radialGradient3453);stroke-width:1;stroke-opacity:0.8;stroke-miterlimit:4;stroke-dasharray:none" />
  <rect
     x="7.1290846"
     y="13.700652"
     width="17.399538"
     height="4.1239581"
     rx="2.2763124"
     id="rect476-7"
     style="fill:#33d9d5;fill-opacity:1;stroke-width:0.42673"
     ry="2.2763121" />
  <rect
     x="-8.4833822"
     y="45.766571"
     width="26.980455"
     height="26.941265"
     rx="6.0943475"
     shape-rendering="crispEdges"
     id="rect5-5"
     ry="6.7048149"
     style="fill:#1affe4;fill-opacity:0.09844423;stroke:url(#linearGradient3463);stroke-width:1.00018103;stroke-opacity:0.734323;stroke-miterlimit:4;stroke-dasharray:none"
     transform="matrix(0.73510941,-0.67794849,0.69747994,0.71660431,0,0)" />
  <path
     id="ellipse22-8-5-5"
     style="fill:url(#linearGradient3482);fill-opacity:1.0;stroke-width:0.66415"
     d="m 52.065906,38.432545 a 0.74624586,0.73676014 0 0 1 -0.746246,0.73676 0.74624586,0.73676014 0 0 1 -0.746246,-0.73676 0.74624586,0.73676014 0 0 1 0.746246,-0.73676 0.74624586,0.73676014 0 0 1 0.746246,0.73676 z M 52.78446,40.87327 H 37.69955 c -0.52805,0 -0.95755,-0.431724 -0.95755,-0.962342 v -2.955873 c 0,-0.530612 0.4295,-0.962322 0.95755,-0.962322 h 15.0849 c 0.52805,0 0.95755,0.43171 0.95755,0.962322 v 2.955873 c 0,0.530618 -0.42949,0.962342 -0.95754,0.962342 z M 37.69955,36.700266 c -0.13337,0 -0.24193,0.114294 -0.24193,0.254789 v 2.955873 c 0,0.140521 0.10856,0.254804 0.24193,0.254804 h 15.0849 c 0.13332,0 0.24192,-0.114283 0.24192,-0.254804 v -2.955873 c 0,-0.140495 -0.1086,-0.254789 -0.24192,-0.254789 z m 14.366356,7.291792 a 0.74624586,0.73676074 0 0 1 -0.746246,0.736761 0.74624586,0.73676074 0 0 1 -0.746246,-0.736761 0.74624586,0.73676074 0 0 1 0.746246,-0.736761 0.74624586,0.73676074 0 0 1 0.746246,0.736761 z m 0.718554,2.440939 H 37.69955 c -0.52805,0 -0.95755,-0.431813 -0.95755,-0.962615 v -2.955681 c 0,-0.530636 0.4295,-0.962345 0.95755,-0.962345 h 15.0849 c 0.52805,0 0.95755,0.431709 0.95755,0.962345 v 2.955681 c 0,0.53081 -0.42949,0.962615 -0.95754,0.962615 z m -15.08491,-4.17315 c -0.13337,0 -0.24193,0.114322 -0.24193,0.254854 v 2.955681 c 0,0.140658 0.10856,0.255071 0.24193,0.255071 h 15.0849 c 0.13332,0 0.24192,-0.114413 0.24192,-0.255071 v -2.955681 c 0,-0.140532 -0.1086,-0.254854 -0.24192,-0.254854 z m 14.366356,-9.386781 a 0.74624586,0.73676014 0 0 1 -0.746246,0.73676 0.74624586,0.73676014 0 0 1 -0.746246,-0.73676 0.74624586,0.73676014 0 0 1 0.746246,-0.73676 0.74624586,0.73676014 0 0 1 0.746246,0.73676 z M 52.78446,35.31366 H 37.69955 c -0.52805,0 -0.95755,-0.431715 -0.95755,-0.962368 v -2.955833 c 0,-0.530779 0.4295,-0.962459 0.95755,-0.962459 h 15.0849 c 0.52805,0 0.95755,0.43168 0.95755,0.962342 v 2.95595 c 0,0.530653 -0.42949,0.962368 -0.95754,0.962368 z M 37.69955,31.140546 c -0.13337,0 -0.24193,0.114409 -0.24193,0.254913 v 2.955833 c 0,0.14053 0.10856,0.254855 0.24193,0.254855 h 15.0849 c 0.13332,0 0.24192,-0.114325 0.24192,-0.254855 v -2.95595 c 0,-0.140539 -0.1086,-0.254796 -0.24192,-0.254796 z" />
</svg>
