<?xml version="1.0" encoding="UTF-8" standalone="no"?>
<svg
   width="22"
   height="22"
   version="1.1"
   id="svg4"
   sodipodi:docname="application-vnd.iccprofile.svg"
   inkscape:version="1.1.2 (0a00cf5339, 2022-02-04)"
   xmlns:inkscape="http://www.inkscape.org/namespaces/inkscape"
   xmlns:sodipodi="http://sodipodi.sourceforge.net/DTD/sodipodi-0.dtd"
   xmlns="http://www.w3.org/2000/svg"
   xmlns:svg="http://www.w3.org/2000/svg">
  <defs
     id="defs8" />
  <sodipodi:namedview
     id="namedview6"
     pagecolor="#ffffff"
     bordercolor="#666666"
     borderopacity="1.0"
     inkscape:pageshadow="2"
     inkscape:pageopacity="0.0"
     inkscape:pagecheckerboard="0"
     showgrid="false"
     inkscape:zoom="29.727273"
     inkscape:cx="10.98318"
     inkscape:cy="11"
     inkscape:window-width="1600"
     inkscape:window-height="836"
     inkscape:window-x="0"
     inkscape:window-y="0"
     inkscape:window-maximized="1"
     inkscape:current-layer="svg4" />
  <path
     id="path2"
     d="M 11 3 C 10.027 6.405 7.6457031 9.3317812 6.5957031 11.675781 A 4.958 4.958 0 0 0 6 14 C 6 16.77 8.23 19 11 19 C 13.77 19 16 16.77 16 14 C 16 13.155 15.772297 12.372781 15.404297 11.675781 C 14.354297 9.3317813 11.973 6.405 11 3 z M 13.283203 10.716797 A 3.984 3.984 0 0 1 15 14 C 15 16.216 13.216 18 11 18 A 3.984 3.984 0 0 1 7.7167969 16.283203 C 8.3637969 16.733203 9.149 17 10 17 C 12.216 17 14 15.216 14 13 C 14 12.149 13.733203 11.363797 13.283203 10.716797 z "
     style="fill:#ffbb42;fill-opacity:1" />
</svg>
