<?xml version="1.0" encoding="UTF-8" standalone="no"?>
<svg
   width="22"
   height="22"
   version="1.1"
   id="svg4"
   sodipodi:docname="application-x-desktop.svg"
   inkscape:version="1.1.2 (0a00cf5339, 2022-02-04)"
   xmlns:inkscape="http://www.inkscape.org/namespaces/inkscape"
   xmlns:sodipodi="http://sodipodi.sourceforge.net/DTD/sodipodi-0.dtd"
   xmlns="http://www.w3.org/2000/svg"
   xmlns:svg="http://www.w3.org/2000/svg">
  <defs
     id="defs8" />
  <sodipodi:namedview
     id="namedview6"
     pagecolor="#ffffff"
     bordercolor="#666666"
     borderopacity="1.0"
     inkscape:pageshadow="2"
     inkscape:pageopacity="0.0"
     inkscape:pagecheckerboard="0"
     showgrid="false"
     inkscape:zoom="29.727273"
     inkscape:cx="10.98318"
     inkscape:cy="11"
     inkscape:window-width="1600"
     inkscape:window-height="836"
     inkscape:window-x="0"
     inkscape:window-y="0"
     inkscape:window-maximized="1"
     inkscape:current-layer="svg4" />
  <path
     id="path2"
     d="M 3,3 V 17 H 19 V 3 Z M 4,4 H 18 V 16 H 4 Z M 5,5 V 9 H 7 L 9,7 V 5 Z m 8.5,1 A 3.492,3.492 0 0 0 10,9.5 C 10,11.439 11.561,13 13.5,13 15.439,13 17,11.439 17,9.5 17,7.561 15.439,6 13.5,6 Z m 0,1 C 14.885,7 16,8.115 16,9.5 16,10.885 14.885,12 13.5,12 A 2.495,2.495 0 0 1 11,9.5 C 11,8.115 12.115,7 13.5,7 Z M 9,8 8,9 h 1 z m 4,0 v 2 h 2 V 9 H 14 V 8 Z m -8,4 v 2 h 2 l 1,1 v -1 h 0.236 v -2 z m -2,6 v 1 h 16 v -1 z"
     style="fill:#003db6;fill-opacity:1" />
</svg>
