<?xml version="1.0" encoding="UTF-8" standalone="no"?>
<svg
   width="22"
   height="22"
   version="1.1"
   id="svg12"
   sodipodi:docname="application-x-ms-shortcut.svg"
   inkscape:version="1.1.2 (0a00cf5339, 2022-02-04)"
   xmlns:inkscape="http://www.inkscape.org/namespaces/inkscape"
   xmlns:sodipodi="http://sodipodi.sourceforge.net/DTD/sodipodi-0.dtd"
   xmlns="http://www.w3.org/2000/svg"
   xmlns:svg="http://www.w3.org/2000/svg">
  <sodipodi:namedview
     id="namedview14"
     pagecolor="#ffffff"
     bordercolor="#666666"
     borderopacity="1.0"
     inkscape:pageshadow="2"
     inkscape:pageopacity="0.0"
     inkscape:pagecheckerboard="0"
     showgrid="false"
     inkscape:zoom="29.727273"
     inkscape:cx="10.98318"
     inkscape:cy="11"
     inkscape:window-width="1600"
     inkscape:window-height="836"
     inkscape:window-x="0"
     inkscape:window-y="0"
     inkscape:window-maximized="1"
     inkscape:current-layer="svg12" />
  <defs
     id="defs4">
    <style
       type="text/css"
       id="style2" />
  </defs>
  <path
     id="path856"
     d="m 11,6.9609375 c -1.662,0 -3,1.338 -3,3 0,1.6619995 1.338,3.0000005 3,3.0000005 1.662,0 3,-1.338001 3,-3.0000005 0,-1.662 -1.338,-3 -3,-3 z m 0,1 c 1.108,0 2,0.892 2,2 0,1.1080005 -0.892,2.0000005 -2,2.0000005 -1.108,0 -2,-0.892001 -2,-2.0000005 0,-1.108 0.892,-2 2,-2 z m -7,-3 v 1 H 3 v 8.0000005 h 1 v 1 h 14 v -1 h 1 V 5.9609375 h -1 v -1 z m 0.9082031,1 H 17.091797 c 0.15,0.425 0.483203,0.75625 0.908203,0.90625 v 6.1855465 a 1.49,1.49 0 0 0 -0.908203,0.908204 H 4.9082031 A 1.49,1.49 0 0 0 4,13.052734 V 6.8671875 a 1.49,1.49 0 0 0 0.9082031,-0.90625 z"
     style="fill:#00be47;fill-opacity:1" />
</svg>
