<?xml version="1.0" encoding="UTF-8" standalone="no"?>
<svg
   width="22"
   height="22"
   version="1.1"
   id="svg6"
   sodipodi:docname="application-vnd.ms-excel.template.macroenabled.12.svg"
   inkscape:version="1.1.2 (0a00cf5339, 2022-02-04)"
   xmlns:inkscape="http://www.inkscape.org/namespaces/inkscape"
   xmlns:sodipodi="http://sodipodi.sourceforge.net/DTD/sodipodi-0.dtd"
   xmlns="http://www.w3.org/2000/svg"
   xmlns:svg="http://www.w3.org/2000/svg">
  <defs
     id="defs10" />
  <sodipodi:namedview
     id="namedview8"
     pagecolor="#ffffff"
     bordercolor="#666666"
     borderopacity="1.0"
     inkscape:pageshadow="2"
     inkscape:pageopacity="0.0"
     inkscape:pagecheckerboard="0"
     showgrid="false"
     inkscape:zoom="29.727273"
     inkscape:cx="10.98318"
     inkscape:cy="11"
     inkscape:window-width="1600"
     inkscape:window-height="836"
     inkscape:window-x="0"
     inkscape:window-y="0"
     inkscape:window-maximized="1"
     inkscape:current-layer="svg6" />
  <path
     id="path4"
     d="M 4.3339844,3 C 3.5949844,3 3,3.5949844 3,4.3339844 V 17.666016 C 3,18.405016 3.5949844,19 4.3339844,19 H 17.666016 C 18.405016,19 19,18.405016 19,17.666016 V 4.3339844 C 19,3.5949844 18.405016,3 17.666016,3 Z M 4,4 H 18 V 18 H 4 Z M 5,5 V 6 H 8 V 5 Z m 4,0 v 1 h 4 V 5 Z m 5,0 v 1 h 3 V 5 Z M 5,7 V 8 H 8 V 7 Z m 4,0 v 1 h 4 V 7 Z m 5,0 v 1 h 3 V 7 Z M 5,9 v 1 H 8 V 9 Z m 4,0 v 1 h 4 V 9 Z m 5,0 v 1 h 3 V 9 Z m -9,2 v 1 h 3 v -1 z m 4,0 v 1 h 4 v -1 z m 5,0 v 1 h 3 v -1 z m -9,2 v 1 h 3 v -1 z m 4,0 v 1 h 4 v -1 z m 5,0 v 1 h 3 v -1 z m -9,2 v 1 h 3 v -1 z m 4,0 v 1 h 4 v -1 z m 5,0 v 1 h 3 V 15 Z M 4.334,3 C 3.595,3 3,3.595 3,4.334 V 17.666 C 3,18.405 3.595,19 4.334,19 H 17.666 C 18.405,19 19,18.405 19,17.666 V 4.334 C 19,3.595 18.405,3 17.666,3 Z M 4,4 H 18 V 18 H 4 Z M 5,5 V 6 H 8 V 5 Z m 4,0 v 1 h 4 V 5 Z m 5,0 v 1 h 3 V 5 Z M 5,7 V 8 H 8 V 7 Z m 4,0 v 1 h 4 V 7 Z m 5,0 v 1 h 3 V 7 Z M 5,9 v 1 H 8 V 9 Z m 4,0 v 1 h 4 V 9 Z m 5,0 v 1 h 3 V 9 Z m -9,2 v 1 h 3 v -1 z m 4,0 v 1 h 4 v -1 z m 5,0 v 1 h 3 v -1 z m -9,2 v 1 h 3 v -1 z m 4,0 v 1 h 4 v -1 z m 5,0 v 1 h 3 v -1 z m -9,2 v 1 h 3 v -1 z m 4,0 v 1 h 4 v -1 z m 5,0 v 1 h 3 v -1 z"
     style="fill:#006e38;fill-opacity:1" />
</svg>
