<?xml version="1.0" encoding="UTF-8" standalone="no"?>
<svg
   width="22"
   height="22"
   version="1.1"
   id="svg4"
   sodipodi:docname="application-x-kdenlivetitle.svg"
   inkscape:version="1.1.2 (0a00cf5339, 2022-02-04)"
   xmlns:inkscape="http://www.inkscape.org/namespaces/inkscape"
   xmlns:sodipodi="http://sodipodi.sourceforge.net/DTD/sodipodi-0.dtd"
   xmlns="http://www.w3.org/2000/svg"
   xmlns:svg="http://www.w3.org/2000/svg">
  <defs
     id="defs8" />
  <sodipodi:namedview
     id="namedview6"
     pagecolor="#ffffff"
     bordercolor="#666666"
     borderopacity="1.0"
     inkscape:pageshadow="2"
     inkscape:pageopacity="0.0"
     inkscape:pagecheckerboard="0"
     showgrid="false"
     inkscape:zoom="29.727273"
     inkscape:cx="10.98318"
     inkscape:cy="11"
     inkscape:window-width="1600"
     inkscape:window-height="836"
     inkscape:window-x="0"
     inkscape:window-y="0"
     inkscape:window-maximized="1"
     inkscape:current-layer="svg4" />
  <path
     id="path2"
     d="M 3 3.5 L 3 18.5 L 19 18.5 L 19 3.5 L 3 3.5 z M 4 4.5 L 5 4.5 L 5 5.5 L 4 5.5 L 4 4.5 z M 6 4.5 L 16 4.5 L 16 10 L 6 10 L 6 4.5 z M 17 4.5 L 18 4.5 L 18 5.5 L 17 5.5 L 17 4.5 z M 4 7.5 L 5 7.5 L 5 8.5 L 4 8.5 L 4 7.5 z M 17 7.5 L 18 7.5 L 18 8.5 L 17 8.5 L 17 7.5 z M 4 10.5 L 5 10.5 L 5 11.5 L 4 11.5 L 4 10.5 z M 17 10.5 L 18 10.5 L 18 11.5 L 17 11.5 L 17 10.5 z M 6 12 L 16 12 L 16 17.5 L 6 17.5 L 6 12 z M 4 13.5 L 5 13.5 L 5 14.5 L 4 14.5 L 4 13.5 z M 17 13.5 L 18 13.5 L 18 14.5 L 17 14.5 L 17 13.5 z M 4 16.5 L 5 16.5 L 5 17.5 L 4 17.5 L 4 16.5 z M 17 16.5 L 18 16.5 L 18 17.5 L 17 17.5 L 17 16.5 z "
     style="fill:#003db6;fill-opacity:1" />
</svg>
