<?xml version="1.0" encoding="UTF-8" standalone="no"?>
<svg
   width="22"
   height="22"
   version="1.1"
   id="svg10"
   sodipodi:docname="application-x-designer.svg"
   inkscape:version="1.1.2 (0a00cf5339, 2022-02-04)"
   xmlns:inkscape="http://www.inkscape.org/namespaces/inkscape"
   xmlns:sodipodi="http://sodipodi.sourceforge.net/DTD/sodipodi-0.dtd"
   xmlns="http://www.w3.org/2000/svg"
   xmlns:svg="http://www.w3.org/2000/svg">
  <defs
     id="defs14" />
  <sodipodi:namedview
     id="namedview12"
     pagecolor="#ffffff"
     bordercolor="#666666"
     borderopacity="1.0"
     inkscape:pageshadow="2"
     inkscape:pageopacity="0.0"
     inkscape:pagecheckerboard="0"
     showgrid="false"
     inkscape:zoom="29.727273"
     inkscape:cx="10.98318"
     inkscape:cy="11"
     inkscape:window-width="1600"
     inkscape:window-height="836"
     inkscape:window-x="0"
     inkscape:window-y="0"
     inkscape:window-maximized="1"
     inkscape:current-layer="svg10" />
  <path
     style="fill:#59daff;fill-opacity:1"
     d="m 11.435,13.675 c 0,0.232 -0.19,0.42 -0.423,0.42 h -0.023 a 0.422,0.422 0 0 1 -0.423,-0.42 v -1.358 c 0,-0.233 0.19,-0.422 0.423,-0.422 h 0.023 c 0.234,0 0.423,0.188 0.423,0.422 z"
     id="path860" />
  <path
     style="fill:#59daff;fill-opacity:1"
     d="m 11.514,4.786 c 0,0.283 -0.23,0.51 -0.513,0.51 A 0.511,0.511 0 0 1 10.487,4.786 V 3.53 c 0,-0.283 0.23,-0.511 0.514,-0.511 0.284,0 0.513,0.228 0.513,0.511 v 1.257 z"
     id="path2" />
  <path
     id="path4"
     style="fill:#59daff;fill-opacity:1"
     d="M 11.021484 3.921875 A 2.082 2.082 0 0 0 8.9199219 6.0117188 C 8.9199219 6.6917187 9.2449531 7.2947813 9.7519531 7.6757812 A 0.358 0.358 0 0 1 9.8378906 7.9101562 C 9.8378906 7.9361562 9.8389375 7.9613281 9.8359375 7.9863281 L 5.5859375 16.996094 A 0.604 0.604 0 0 0 5.7011719 17.675781 L 5.03125 19.035156 L 6.0917969 17.888672 A 0.613 0.613 0 0 0 6.8007812 17.558594 L 10.851562 8.9707031 A 0.202 0.202 0 0 1 11.011719 8.8945312 L 11.03125 8.8945312 C 11.09625 8.8945312 11.153453 8.9237031 11.189453 8.9707031 L 15.242188 17.558594 A 0.61 0.61 0 0 0 15.949219 17.888672 L 17.009766 19.035156 L 16.339844 17.675781 A 0.606 0.606 0 0 0 16.457031 16.996094 L 12.207031 7.9863281 C 12.204031 7.9623281 12.203125 7.9361562 12.203125 7.9101562 A 0.37 0.37 0 0 1 12.289062 7.6757812 A 2.08 2.08 0 0 0 13.121094 6.0097656 C 13.121094 4.8557656 12.181484 3.923875 11.021484 3.921875 z M 11.023438 4.8085938 C 11.690437 4.8085938 12.228516 5.3467656 12.228516 6.0097656 C 12.228516 6.6737656 11.689437 7.2128906 11.023438 7.2128906 A 1.2015 1.2015 0 0 1 11.023438 4.8085938 z " />
  <path
     style="fill:#59daff;fill-opacity:1"
     d="M 15.625,13.036 A 0.275,0.275 0 0 1 15.348,13.31 H 6.651 A 0.276,0.276 0 0 1 6.375,13.036 v -0.002 c 0,-0.152 0.124,-0.274 0.276,-0.274 h 8.697 a 0.277,0.277 0 0 1 0.277,0.276 z"
     id="path6" />
</svg>
