<?xml version="1.0" encoding="UTF-8" standalone="no"?>
<svg
   width="22"
   height="22"
   version="1.1"
   id="svg4"
   sodipodi:docname="application-vnd.ms-powerpoint.addin.macroenabled.12.svg"
   inkscape:version="1.1.2 (0a00cf5339, 2022-02-04)"
   xmlns:inkscape="http://www.inkscape.org/namespaces/inkscape"
   xmlns:sodipodi="http://sodipodi.sourceforge.net/DTD/sodipodi-0.dtd"
   xmlns="http://www.w3.org/2000/svg"
   xmlns:svg="http://www.w3.org/2000/svg">
  <defs
     id="defs8" />
  <sodipodi:namedview
     id="namedview6"
     pagecolor="#ffffff"
     bordercolor="#666666"
     borderopacity="1.0"
     inkscape:pageshadow="2"
     inkscape:pageopacity="0.0"
     inkscape:pagecheckerboard="0"
     showgrid="false"
     inkscape:zoom="29.727273"
     inkscape:cx="10.98318"
     inkscape:cy="11"
     inkscape:window-width="1600"
     inkscape:window-height="836"
     inkscape:window-x="0"
     inkscape:window-y="0"
     inkscape:window-maximized="1"
     inkscape:current-layer="svg4" />
  <path
     id="path829"
     d="m 12,5 v 5 h 5 A 5,5 0 0 0 12,5 Z m -1,1 a 5,5 0 0 0 -5,5 5,5 0 0 0 5,5 5,5 0 0 0 5,-5 H 11 Z M 10,7.1308594 V 12 h 4.867188 A 4,4 0 0 1 11,15 4,4 0 0 1 7,11 4,4 0 0 1 10,7.1308594 Z M 4.3339844,3 C 3.5949844,3 3,3.5949844 3,4.3339844 V 17.666016 C 3,18.405016 3.5949844,19 4.3339844,19 H 17.666016 C 18.405016,19 19,18.405016 19,17.666016 V 4.3339844 C 19,3.5949844 18.405016,3 17.666016,3 Z M 4,4 H 18 V 18 H 4 Z"
     style="fill:#ff6f41;fill-opacity:1" />
</svg>
