<?xml version="1.0" encoding="UTF-8" standalone="no"?>
<svg
   width="22"
   height="22"
   version="1.1"
   id="svg8"
   sodipodi:docname="application-x-blender.svg"
   inkscape:version="1.1.2 (0a00cf5339, 2022-02-04)"
   xmlns:inkscape="http://www.inkscape.org/namespaces/inkscape"
   xmlns:sodipodi="http://sodipodi.sourceforge.net/DTD/sodipodi-0.dtd"
   xmlns="http://www.w3.org/2000/svg"
   xmlns:svg="http://www.w3.org/2000/svg">
  <defs
     id="defs12" />
  <sodipodi:namedview
     id="namedview10"
     pagecolor="#ffffff"
     bordercolor="#666666"
     borderopacity="1.0"
     inkscape:pageshadow="2"
     inkscape:pageopacity="0.0"
     inkscape:pagecheckerboard="0"
     showgrid="false"
     inkscape:zoom="29.727273"
     inkscape:cx="10.98318"
     inkscape:cy="11"
     inkscape:window-width="1600"
     inkscape:window-height="836"
     inkscape:window-x="0"
     inkscape:window-y="0"
     inkscape:window-maximized="1"
     inkscape:current-layer="svg8" />
  <path
     id="circle4"
     style="fill:#ff6f41;fill-opacity:1"
     d="m 15,13.499986 a 1.5,1.5 0 0 1 -1.5,1.5 1.5,1.5 0 0 1 -1.5,-1.5 1.5,1.5 0 0 1 1.5,-1.5 1.5,1.5 0 0 1 1.5,1.5 z M 10.492188,3.0019531 a 0.5,0.5 0 0 0 -0.345704,0.1464844 0.5,0.5 0 0 0 0,0.7070313 l 4.216797,4.2167968 A 5.5,5.5 0 0 0 13.5,8.0039062 h -10 a 0.5,0.5 0 0 0 -0.5,0.5 0.5,0.5 0 0 0 0.5,0.5 h 6.84375 A 5.5,5.5 0 0 0 9.140625,10.15625 l -5.9941406,5.992188 a 0.5,0.5 0 0 0 0,0.707031 0.5,0.5 0 0 0 0.7070312,0 L 8.0703125,12.640625 A 5.5,5.5 0 0 0 8,13.501953 a 5.5,5.5 0 0 0 5.5,5.5 5.5,5.5 0 0 0 5.5,-5.5 5.5,5.5 0 0 0 -2.158203,-4.3632811 L 10.853516,3.1484375 A 0.5,0.5 0 0 0 10.492188,3.0019531 Z m 3.007812,6 a 4.5,4.5 0 0 1 4.5,4.4999999 4.5,4.5 0 0 1 -4.5,4.5 4.5,4.5 0 0 1 -4.5,-4.5 4.5,4.5 0 0 1 4.5,-4.4999999 z" />
</svg>
