<?xml version="1.0" encoding="UTF-8" standalone="no"?>
<svg
   width="22"
   height="22"
   version="1.1"
   id="svg4"
   sodipodi:docname="application-msonenote.svg"
   inkscape:version="1.1.2 (0a00cf5339, 2022-02-04)"
   xmlns:inkscape="http://www.inkscape.org/namespaces/inkscape"
   xmlns:sodipodi="http://sodipodi.sourceforge.net/DTD/sodipodi-0.dtd"
   xmlns="http://www.w3.org/2000/svg"
   xmlns:svg="http://www.w3.org/2000/svg">
  <defs
     id="defs8" />
  <sodipodi:namedview
     id="namedview6"
     pagecolor="#ffffff"
     bordercolor="#666666"
     borderopacity="1.0"
     inkscape:pageshadow="2"
     inkscape:pageopacity="0.0"
     inkscape:pagecheckerboard="0"
     showgrid="false"
     inkscape:zoom="29.727273"
     inkscape:cx="10.98318"
     inkscape:cy="11"
     inkscape:window-width="1600"
     inkscape:window-height="836"
     inkscape:window-x="0"
     inkscape:window-y="0"
     inkscape:window-maximized="1"
     inkscape:current-layer="svg4" />
  <path
     id="path829"
     d="m 5,5 v 3 h 9 V 5 Z m 0,5 v 1 h 9 v -1 z m 0,2 v 1 h 9 v -1 z m 0,2 v 1 h 9 v -1 z m 0,2 v 1 h 9 V 16 Z M 4,3 C 3.446,3 3,3.446 3,4 v 14 c 0,0.554 0.446,1 1,1 h 11 c 0.554,0 1,-0.446 1,-1 v -1 h 2 c 0.554,0 1,-0.446 1,-1 V 13 A 0.975,0.975 0 0 0 18.847656,12.5 0.975,0.975 0 0 0 19,12 V 9 A 0.975,0.975 0 0 0 18.847656,8.5 0.975,0.975 0 0 0 19,8 V 5 C 19,4.446 18.554,4 18,4 H 16 C 16,3.446 15.554,3 15,3 Z M 4,4 H 15 V 18 H 4 Z m 12,1 h 2 v 3 h -2 z m 0,4 h 2 v 3 h -2 z m 0,4 h 2 v 3 h -2 z"
     style="fill:#ff43dd;fill-opacity:1" />
</svg>
