<?xml version="1.0" encoding="UTF-8" standalone="no"?>
<svg
   width="22"
   height="22"
   version="1.1"
   id="svg4"
   sodipodi:docname="application-x-deb.svg"
   inkscape:version="1.1.2 (0a00cf5339, 2022-02-04)"
   xmlns:inkscape="http://www.inkscape.org/namespaces/inkscape"
   xmlns:sodipodi="http://sodipodi.sourceforge.net/DTD/sodipodi-0.dtd"
   xmlns="http://www.w3.org/2000/svg"
   xmlns:svg="http://www.w3.org/2000/svg">
  <defs
     id="defs8" />
  <sodipodi:namedview
     id="namedview6"
     pagecolor="#ffffff"
     bordercolor="#666666"
     borderopacity="1.0"
     inkscape:pageshadow="2"
     inkscape:pageopacity="0.0"
     inkscape:pagecheckerboard="0"
     showgrid="false"
     inkscape:zoom="29.727273"
     inkscape:cx="10.98318"
     inkscape:cy="11"
     inkscape:window-width="1600"
     inkscape:window-height="836"
     inkscape:window-x="0"
     inkscape:window-y="0"
     inkscape:window-maximized="1"
     inkscape:current-layer="svg4" />
  <path
     id="path2"
     d="M 13.08,3.001 A 0.817,0.817 0 0 0 12.739,3.09 C 12.575,3.18 12.575,3.18 12.134,3.112 11.892,3.074 11.459,3.032 11.172,3.017 10.718,2.994 10.65,2.999 10.65,3.053 c 0,0.043 -0.07,0.077 -0.215,0.106 A 2.017,2.017 0 0 0 10.048,3.288 C 9.952,3.334 9.864,3.363 9.851,3.349 9.837,3.339 9.854,3.324 9.887,3.323 9.937,3.323 9.936,3.317 9.883,3.282 9.83,3.248 9.834,3.235 9.905,3.248 10.009,3.258 10.14,3.208 10.14,3.158 10.14,3.112 9.911,3.106 9.764,3.144 9.706,3.158 9.675,3.19 9.688,3.223 9.703,3.259 9.658,3.284 9.552,3.302 9.465,3.315 9.326,3.342 9.244,3.362 9.1,3.395 9.099,3.394 9.192,3.333 9.245,3.298 9.286,3.255 9.286,3.235 9.286,3.167 9.155,3.198 8.856,3.341 8.692,3.42 8.526,3.477 8.486,3.464 8.338,3.419 6.746,4.724 6.408,5.167 6.331,5.269 6.256,5.329 6.211,5.315 6.165,5.306 6.115,5.35 6.069,5.436 6.029,5.51 5.878,5.753 5.731,5.976 5.399,6.483 5.29,6.684 5.211,6.946 A 2.93,2.93 0 0 1 5.091,7.273 C 5.059,7.34 5.005,7.59 4.971,7.827 4.907,8.261 4.843,8.453 4.773,8.411 4.753,8.403 4.726,8.407 4.715,8.423 4.659,8.511 4.553,9.348 4.52,9.967 c -0.034,0.652 -0.03,0.719 0.049,0.914 0.046,0.116 0.157,0.484 0.247,0.819 0.358,1.346 0.483,1.741 0.713,2.25 0.69,1.535 1.807,2.763 3.516,3.87 0.779,0.503 2.036,0.996 2.913,1.14 v -0.007 c 0.223,0.031 0.613,0.057 1.185,0.043 0.725,-0.008 0.914,-0.023 1.267,-0.104 0.269,-0.063 0.414,-0.116 0.414,-0.15 0,-0.05 -0.054,-0.051 -0.223,-0.036 -1.14,0.099 -1.43,0.064 -2.003,-0.242 -0.409,-0.219 -0.53,-0.255 -0.415,-0.122 0.077,0.089 -0.052,0.081 -0.362,-0.02 a 1.646,1.646 0 0 0 -0.35,-0.081 c -0.086,0 -0.093,-0.01 -0.056,-0.077 0.072,-0.128 0.052,-0.165 -0.086,-0.165 -0.14,0 -0.303,-0.07 -0.572,-0.243 -0.135,-0.092 -0.196,-0.105 -0.292,-0.079 -0.104,0.027 -0.148,0.009 -0.319,-0.138 C 9.876,17.306 9.801,17.221 9.799,17.137 9.797,17.061 9.712,17.043 9.646,17.103 9.621,17.126 9.446,17.007 9.184,16.791 8.952,16.598 8.784,16.441 8.81,16.427 8.9,16.399 8.863,16.304 8.744,16.261 8.552,16.191 8.465,16.107 8.495,16.018 8.515,15.955 8.475,15.898 8.31,15.766 A 1.898,1.898 0 0 1 8.035,15.507 C 7.977,15.422 7.979,15.42 8.097,15.436 8.281,15.462 8.254,15.386 7.977,15.11 7.711,14.843 7.537,14.75 7.367,14.781 7.289,14.796 7.217,14.771 7.119,14.692 6.927,14.538 6.717,14.239 6.784,14.216 6.818,14.204 6.789,14.146 6.7,14.057 A 0.641,0.641 0 0 1 6.517,13.699 0.696,0.696 0 0 0 6.372,13.377 C 6.115,13.115 5.981,12.693 5.75,11.429 5.56,10.391 5.559,10.414 5.733,9.676 5.853,9.17 5.859,9.076 5.772,9.076 5.689,9.076 5.686,9.088 5.838,8.721 6.179,7.898 6.817,7.001 7.18,6.834 7.343,6.758 7.455,6.63 7.455,6.514 7.455,6.481 7.425,6.482 7.388,6.496 7.336,6.516 7.341,6.496 7.407,6.409 7.572,6.19 7.78,6.037 8.101,5.899 8.293,5.816 8.449,5.719 8.479,5.667 8.526,5.585 8.521,5.578 8.435,5.6 8.383,5.614 8.348,5.625 8.357,5.612 8.365,5.606 8.521,5.472 8.704,5.312 9.008,5.046 9.479,4.746 9.337,4.91 9.305,4.946 9.3,4.983 9.323,4.997 9.345,5.009 9.385,4.992 9.413,4.959 9.476,4.887 9.848,4.72 10.224,4.593 c 0.772,-0.26 1.853,-0.322 2.49,-0.146 0.75,0.207 1.546,0.673 2.176,1.277 0.438,0.42 0.718,0.808 0.878,1.209 A 0.922,0.922 0 0 0 15.89,7.17 c 0.066,0.039 0.348,1.15 0.376,1.48 0.021,0.249 0.043,0.324 0.092,0.324 0.053,0 0.06,0.061 0.048,0.346 -0.013,0.319 -0.023,0.354 -0.142,0.473 -0.124,0.124 -0.128,0.14 -0.1,0.386 l 0.028,0.255 -0.26,0.391 c -0.23,0.349 -0.678,0.893 -0.488,0.594 0.058,-0.092 0.061,-0.113 0.012,-0.113 -0.032,0 -0.14,0.118 -0.24,0.263 -0.18,0.26 -0.335,0.398 -0.583,0.518 -0.07,0.034 -0.234,0.117 -0.364,0.186 -0.322,0.17 -0.673,0.25 -1.106,0.25 -0.835,0 -1.716,-0.396 -2.26,-1.02 -0.226,-0.258 -0.552,-0.837 -0.552,-0.98 0,-0.042 -0.02,-0.07 -0.058,-0.056 -0.045,0.017 -0.07,-0.05 -0.107,-0.28 -0.062,-0.4 -0.06,-0.512 0.02,-0.914 0.12,-0.6 0.455,-1.068 1.06,-1.474 0.428,-0.287 0.722,-0.364 1.322,-0.364 0.428,0.003 0.547,0.017 0.735,0.091 0.124,0.049 0.25,0.09 0.278,0.09 0.12,-0.003 -0.273,-0.254 -0.587,-0.373 -0.276,-0.105 -0.419,-0.131 -0.751,-0.146 -0.687,-0.03 -1.216,0.172 -1.725,0.657 -0.29,0.275 -0.57,0.7 -0.57,0.86 a 0.529,0.529 0 0 1 -0.087,0.2 c -0.189,0.29 -0.298,1.218 -0.195,1.641 0.282,1.154 0.847,1.761 2.21,2.366 0.43,0.19 0.556,0.303 0.234,0.21 -0.294,-0.085 -0.704,-0.252 -0.837,-0.342 -0.147,-0.1 -0.175,-0.104 -0.175,-0.024 0,0.042 -0.078,0.013 -0.263,-0.1 -0.145,-0.086 -0.28,-0.149 -0.301,-0.136 -0.11,0.065 0.602,0.534 1.082,0.714 0.708,0.261 1.512,0.371 2.111,0.275 0.352,-0.056 0.945,-0.306 0.878,-0.37 -0.028,-0.017 -0.083,-0.015 -0.165,0.014 -0.205,0.075 -0.658,0.155 -1.044,0.184 -0.295,0.023 -0.415,0.012 -0.619,-0.047 l -0.25,-0.073 0.51,-0.03 a 4.48,4.48 0 0 0 1.407,-0.271 c 0.854,-0.298 1.608,-0.928 2.085,-1.743 0.177,-0.301 0.235,-0.354 0.235,-0.21 0,0.116 0.102,0.079 0.12,-0.043 a 0.632,0.632 0 0 0 -0.034,-0.243 0.463,0.463 0 0 1 -0.002,-0.32 c 0.045,-0.16 0.056,-0.168 0.12,-0.115 0.16,0.13 0.18,0.123 0.154,-0.06 a 1.99,1.99 0 0 1 0.044,-0.514 c 0.037,-0.186 0.07,-0.45 0.074,-0.587 l 0.008,-0.25 0.024,0.234 c 0.026,0.24 0.1,0.318 0.125,0.13 0.013,-0.1 -0.036,-0.355 -0.099,-0.526 -0.03,-0.077 -0.027,-0.077 0.039,0 0.103,0.121 0.116,0.057 0.046,-0.201 A 1.559,1.559 0 0 1 17.367,7.803 c 0.026,-0.33 0.005,-0.394 -0.1,-0.293 -0.069,0.065 -0.195,-0.18 -0.2,-0.387 -0.003,-0.114 -0.03,-0.186 -0.09,-0.232 a 0.883,0.883 0 0 1 -0.169,-0.2 l -0.082,-0.136 0.12,0.09 c 0.067,0.05 0.13,0.086 0.14,0.072 C 16.998,6.707 16.95,6.603 16.88,6.484 16.811,6.365 16.73,6.204 16.7,6.126 16.605,5.886 16.395,5.716 16.35,5.845 16.342,5.868 16.293,5.808 16.242,5.712 L 16.147,5.538 16.242,5.524 a 0.253,0.253 0 0 0 0.142,-0.07 c 0.04,-0.05 0.091,-0.011 0.284,0.215 0.128,0.15 0.364,0.464 0.524,0.698 0.16,0.233 0.296,0.403 0.305,0.378 0.021,-0.06 -0.065,-0.222 -0.376,-0.704 -0.137,-0.215 -0.25,-0.412 -0.25,-0.44 A 0.609,0.609 0 0 0 16.801,5.423 L 16.73,5.295 16.822,5.372 c 0.16,0.136 0.149,0.035 -0.02,-0.188 -0.71,-0.938 -1.666,-1.605 -2.84,-1.98 -0.364,-0.118 -0.458,-0.12 -0.363,-0.011 0.05,0.058 0.04,0.058 -0.077,0 A 0.724,0.724 0 0 1 13.336,3.064 C 13.294,3.017 13.195,2.996 13.081,3.001 Z m -2.183,0.178 c 0.03,-0.015 0.068,-0.013 0.083,0 v 0.002 c 0.014,0.008 -0.012,0.022 -0.057,0.022 -0.05,-10e-4 -0.06,-0.01 -0.026,-0.024 z m 0.297,0.034 c 0.095,-0.013 0.233,-0.01 0.322,0.002 0.045,0.004 0.004,0.016 -0.163,0.015 -0.187,0 -0.259,-0.004 -0.159,-0.017 z m 0.617,0.043 a 0.278,0.278 0 0 1 0.149,0 C 12,3.261 11.968,3.274 11.885,3.274 11.804,3.274 11.77,3.27 11.811,3.256 Z M 10.779,3.27 c 0.047,-0.01 0.073,-0.004 0.06,0.016 -0.013,0.019 -0.05,0.038 -0.085,0.038 -0.088,0 -0.075,-0.028 0.025,-0.054 z m 1.355,0.03 c 0.031,-0.015 0.067,-0.014 0.08,0 V 3.304 C 12.229,3.312 12.204,3.326 12.159,3.326 12.109,3.325 12.1,3.313 12.134,3.3 Z m -1.61,0.033 h 0.148 l -0.17,0.03 v 0.004 a 2.185,2.185 0 0 0 -0.256,0.057 c -0.055,0.02 -0.048,0.01 0.02,-0.031 a 0.615,0.615 0 0 1 0.258,-0.06 z M 9.445,3.5 C 9.454,3.508 9.325,3.557 9.16,3.608 8.955,3.674 8.846,3.69 8.816,3.662 8.786,3.635 8.708,3.642 8.567,3.687 A 2.232,2.232 0 0 0 8.237,3.824 L 8.115,3.894 8.23,3.806 C 8.396,3.678 8.784,3.554 8.824,3.616 8.848,3.653 8.926,3.644 9.142,3.575 9.299,3.526 9.436,3.486 9.445,3.5 Z m 0.558,0.006 c 0.01,0.009 -0.085,0.043 -0.209,0.079 -0.249,0.069 -0.25,0.07 -0.25,0.045 0,-0.024 0.44,-0.143 0.46,-0.124 z M 8.087,3.891 c 0.012,0 -0.014,0.037 -0.056,0.081 A 0.333,0.333 0 0 1 7.933,4.053 c -0.012,0 0.014,-0.036 0.056,-0.08 A 0.335,0.335 0 0 1 8.087,3.891 Z M 7.583,4.297 C 7.585,4.299 7.573,4.316 7.547,4.347 7.491,4.417 7.455,4.436 7.455,4.403 7.455,4.395 7.49,4.363 7.531,4.333 7.565,4.307 7.581,4.294 7.583,4.297 Z m 6.849,4.306 C 14.392,8.595 14.359,8.626 14.34,8.7 c -0.02,0.07 0,0.138 0.066,0.223 h 0.002 c 0.161,0.208 0.26,0.086 0.145,-0.178 C 14.515,8.66 14.471,8.611 14.432,8.603 Z M 17.24,8.63 C 17.251,8.66 17.25,8.694 17.236,8.708 17.222,8.722 17.212,8.698 17.214,8.654 17.216,8.607 17.226,8.598 17.24,8.63 Z m -2.708,1.047 c -0.02,-0.013 -0.052,0.078 -0.068,0.2 -0.017,0.13 -0.062,0.258 -0.112,0.312 l -0.087,0.093 0.02,-0.1 c 0.011,-0.057 0.033,-0.163 0.05,-0.234 0.048,-0.202 -0.037,-0.16 -0.12,0.059 -0.096,0.255 -0.09,0.33 0.024,0.374 v 0.002 c 0.188,0.072 0.234,0.05 0.283,-0.139 0.058,-0.215 0.063,-0.536 0.01,-0.567 z m -0.821,1.254 c -0.009,-0.008 -0.102,0.02 -0.207,0.065 -0.105,0.044 -0.282,0.1 -0.394,0.122 -0.193,0.04 -0.267,0.125 -0.148,0.17 0.03,0.01 0.158,0.024 0.287,0.024 0.233,0.003 0.236,0.001 0.358,-0.182 0.067,-0.102 0.113,-0.186 0.104,-0.2 z m -3.449,0.911 c -0.09,0 -0.02,0.118 0.205,0.335 0.134,0.129 0.251,0.235 0.257,0.235 0.007,0 0.012,-0.023 0.012,-0.051 0,-0.06 -0.419,-0.519 -0.474,-0.519 z m -0.132,0.406 c -0.018,0 -0.034,0.053 -0.034,0.115 0,0.117 0.162,0.27 0.596,0.565 0.113,0.073 0.2,0.114 0.21,0.087 0.015,-0.045 -0.71,-0.767 -0.772,-0.767 z m 1.01,0.48 0.117,0.07 c 0.064,0.038 0.118,0.07 0.118,0.083 0,0.032 -0.036,0.014 -0.134,-0.067 z"
     style="fill:#ff2136;fill-opacity:1" />
</svg>
