<?xml version="1.0" encoding="UTF-8" standalone="no"?>
<svg
   width="22"
   height="22"
   version="1.1"
   id="svg4"
   sodipodi:docname="application-vnd.ms-publisher.svg"
   inkscape:version="1.1.2 (0a00cf5339, 2022-02-04)"
   xmlns:inkscape="http://www.inkscape.org/namespaces/inkscape"
   xmlns:sodipodi="http://sodipodi.sourceforge.net/DTD/sodipodi-0.dtd"
   xmlns="http://www.w3.org/2000/svg"
   xmlns:svg="http://www.w3.org/2000/svg">
  <defs
     id="defs8" />
  <sodipodi:namedview
     id="namedview6"
     pagecolor="#ffffff"
     bordercolor="#666666"
     borderopacity="1.0"
     inkscape:pageshadow="2"
     inkscape:pageopacity="0.0"
     inkscape:pagecheckerboard="0"
     showgrid="false"
     inkscape:zoom="14.863636"
     inkscape:cx="11"
     inkscape:cy="11"
     inkscape:window-width="1056"
     inkscape:window-height="545"
     inkscape:window-x="218"
     inkscape:window-y="59"
     inkscape:window-maximized="0"
     inkscape:current-layer="svg4" />
  <path
     id="path831"
     d="m 5,8 v 2 h 9 V 8 Z m 0,4 v 1 h 9 V 12 Z M 7,3 C 6.446,3 6,3.446 6,4 V 6 H 4 C 3.446,6 3,6.446 3,7 v 11 c 0,0.554 0.446,1 1,1 h 11 c 0.554,0 1,-0.446 1,-1 v -2 h 2 c 0.554,0 1,-0.446 1,-1 V 4 C 19,3.446 18.554,3 18,3 Z M 7,4 H 18 V 15 H 16 V 7 C 16,6.446 15.554,6 15,6 12,6 7,5.675 7,4 Z M 4,7 H 15 V 18 H 4 Z m 1,7 v 1 h 9 v -1 z m 0,2 v 1 h 9 v -1 z"
     style="fill:#9dff4b;fill-opacity:1" />
</svg>
