<?xml version="1.0" encoding="UTF-8" standalone="no"?>
<svg
   width="22"
   height="22"
   version="1.1"
   id="svg4"
   sodipodi:docname="application-x-krita.svg"
   inkscape:version="1.1.2 (0a00cf5339, 2022-02-04)"
   xmlns:inkscape="http://www.inkscape.org/namespaces/inkscape"
   xmlns:sodipodi="http://sodipodi.sourceforge.net/DTD/sodipodi-0.dtd"
   xmlns="http://www.w3.org/2000/svg"
   xmlns:svg="http://www.w3.org/2000/svg">
  <defs
     id="defs8" />
  <sodipodi:namedview
     id="namedview6"
     pagecolor="#ffffff"
     bordercolor="#666666"
     borderopacity="1.0"
     inkscape:pageshadow="2"
     inkscape:pageopacity="0.0"
     inkscape:pagecheckerboard="0"
     showgrid="false"
     inkscape:zoom="29.727273"
     inkscape:cx="10.98318"
     inkscape:cy="11"
     inkscape:window-width="1600"
     inkscape:window-height="836"
     inkscape:window-x="0"
     inkscape:window-y="0"
     inkscape:window-maximized="1"
     inkscape:current-layer="svg4" />
  <path
     id="path2"
     d="m 3.124,3.001 c -0.04,0 -0.07,0 -0.09,0.023 -0.64,0.604 8.088,8.187 8.088,8.187 l 3.27,2.945 c -1.054,2.328 2.251,2.366 2.964,3.547 0.314,0.517 -0.068,1.22 -0.637,1.257 1.132,0.353 2.656,-1.704 2.197,-2.865 -0.546,-1.386 -1.101,-1.987 -2.14,-2.408 -0.43,-0.175 -1.522,-0.189 -1.903,0.015 l -3.03,-3.171 c 0,0 -7.48,-7.429 -8.719,-7.531 m 1.379,7.362 c -0.29,0 -0.379,0.397 -0.379,0.94 0.055,1.072 0.772,4.202 4.333,6.482 2.999,1.92 8.486,1.226 8.397,0.136 -1.207,-1.418 -3.225,-0.534 -3.252,-3.93 -1.173,0.013 -2.437,-0.165 -2.39,0.303 0.197,1.959 -3.084,0.547 -4.356,-1.45 -1.277,-1.832 -1.981,-2.481 -2.353,-2.48 m 4.676,2.416 c -0.195,0 -0.351,0.06 -0.426,0.182 -0.148,0.242 0.092,0.637 0.538,0.88 0.445,0.244 0.926,0.244 1.074,0.002 C 10.513,13.6 10.272,13.205 9.827,12.963 9.604,12.842 9.179,12.964 9.179,12.78"
     style="fill:#ff21ae;fill-opacity:1" />
</svg>
