<?xml version="1.0" encoding="UTF-8" standalone="no"?>
<svg
   width="22"
   height="22"
   version="1.1"
   id="svg4"
   sodipodi:docname="text-x-python.svg"
   inkscape:version="1.1.2 (0a00cf5339, 2022-02-04)"
   xmlns:inkscape="http://www.inkscape.org/namespaces/inkscape"
   xmlns:sodipodi="http://sodipodi.sourceforge.net/DTD/sodipodi-0.dtd"
   xmlns="http://www.w3.org/2000/svg"
   xmlns:svg="http://www.w3.org/2000/svg">
  <defs
     id="defs8" />
  <sodipodi:namedview
     id="namedview6"
     pagecolor="#ffffff"
     bordercolor="#666666"
     borderopacity="1.0"
     inkscape:pageshadow="2"
     inkscape:pageopacity="0.0"
     inkscape:pagecheckerboard="0"
     showgrid="false"
     inkscape:zoom="29.727273"
     inkscape:cx="10.98318"
     inkscape:cy="11"
     inkscape:window-width="1600"
     inkscape:window-height="836"
     inkscape:window-x="0"
     inkscape:window-y="0"
     inkscape:window-maximized="1"
     inkscape:current-layer="svg4" />
  <path
     id="path2"
     d="M 9.6679688,3 A 2.66,2.66 0 0 0 7,5.6679688 h 4 V 7 H 5.6679688 A 2.66,2.66 0 0 0 3,9.6679688 V 12.332031 A 2.66,2.66 0 0 0 5.6679688,15 V 13.667969 C 5.6679688,12.482969 6.187,11.432172 7,10.701172 l 0.00391,-0.0039 c 0.1760001,-0.158 0.3654063,-0.299782 0.5664063,-0.425782 l 0.00586,-0.0039 c 0.198,-0.124 0.4069531,-0.229406 0.6269531,-0.3164061 0.04,-0.016 0.082047,-0.026016 0.1230469,-0.041016 0.186,-0.067 0.3752187,-0.1289687 0.5742187,-0.1679687 A 4.03,4.03 0 0 1 9.6679688,9.6679688 H 15 v -4 A 2.66,2.66 0 0 0 12.332031,3 Z m -0.035156,0.6679688 c 0.011413,-5.733e-4 0.023594,0 0.035156,0 A 0.665,0.665 0 1 1 9,4.3339844 C 9,3.9755469 9.2790068,3.6857393 9.6328125,3.6679688 Z M 16.332031,7 v 1.3320312 a 3.98,3.98 0 0 1 -1.335937,2.9707028 4.127,4.127 0 0 1 -0.566406,0.425782 l -0.0059,0.0039 c -0.198,0.124 -0.406953,0.229406 -0.626953,0.316406 -0.04,0.016 -0.08205,0.02602 -0.123047,0.04102 -0.186,0.067 -0.375219,0.128969 -0.574219,0.167968 a 4.03,4.03 0 0 1 -0.767578,0.07422 H 7 v 4 A 2.66,2.66 0 0 0 9.6679688,19 H 12.332031 A 2.66,2.66 0 0 0 15,16.332031 H 11 V 15 h 5.332031 A 2.66,2.66 0 0 0 19,12.332031 V 9.6679688 A 2.66,2.66 0 0 0 16.332031,7 Z m -4,10 C 12.702031,17 13,17.297969 13,17.667969 c 0,0.37 -0.297969,0.664062 -0.667969,0.664062 a 0.6665,0.6665 0 1 1 0,-1.332031 z"
     style="fill:#ffdf09;fill-opacity:1" />
</svg>
