<?xml version="1.0" encoding="UTF-8" standalone="no"?>
<svg
   width="22"
   height="22"
   version="1.1"
   id="svg8"
   sodipodi:docname="text-csv.svg"
   inkscape:version="1.1.2 (0a00cf5339, 2022-02-04)"
   xmlns:inkscape="http://www.inkscape.org/namespaces/inkscape"
   xmlns:sodipodi="http://sodipodi.sourceforge.net/DTD/sodipodi-0.dtd"
   xmlns="http://www.w3.org/2000/svg"
   xmlns:svg="http://www.w3.org/2000/svg">
  <defs
     id="defs12" />
  <sodipodi:namedview
     id="namedview10"
     pagecolor="#ffffff"
     bordercolor="#666666"
     borderopacity="1.0"
     inkscape:pageshadow="2"
     inkscape:pageopacity="0.0"
     inkscape:pagecheckerboard="0"
     showgrid="false"
     inkscape:zoom="29.727273"
     inkscape:cx="10.98318"
     inkscape:cy="10.98318"
     inkscape:window-width="1056"
     inkscape:window-height="545"
     inkscape:window-x="290"
     inkscape:window-y="439"
     inkscape:window-maximized="0"
     inkscape:current-layer="svg8" />
  <path
     d="M 3,3 V 19 H 14 V 9 h 4 v 4 h 1 V 3 Z M 4,4 H 18 V 8 H 4 Z m 0,5 h 4 v 4 H 4 Z m 5,0 h 4 v 4 H 9 Z m -5,5 h 4 v 4 H 4 Z m 5,0 h 4 v 4 H 9 Z"
     stroke-width="2"
     id="path2"
     style="fill:#9dff4b;fill-opacity:1" />
  <path
     d="m 16.5,14 c -0.831,0 -1.5,0.638 -1.5,1.43 0,0.763 0.623,1.376 1.412,1.42 0.058,0.261 0.087,0.528 0.088,0.795 A 3.773,3.773 0 0 1 16.242,19 c 1.1,-0.734 1.756,-1.933 1.758,-3.213 V 15.43 C 18,14.638 17.331,14 16.5,14 Z"
     id="path4"
     style="fill:#9dff4b;fill-opacity:1" />
</svg>
