<?xml version="1.0" encoding="UTF-8" standalone="no"?>
<svg
   width="47.285591"
   height="47.28569"
   version="1.1"
   id="svg63"
   sodipodi:docname="bookmarks.svg"
   inkscape:version="1.1.2 (0a00cf5339, 2022-02-04)"
   xmlns:inkscape="http://www.inkscape.org/namespaces/inkscape"
   xmlns:sodipodi="http://sodipodi.sourceforge.net/DTD/sodipodi-0.dtd"
   xmlns="http://www.w3.org/2000/svg"
   xmlns:svg="http://www.w3.org/2000/svg"
   xmlns:rdf="http://www.w3.org/1999/02/22-rdf-syntax-ns#"
   xmlns:cc="http://creativecommons.org/ns#"
   xmlns:dc="http://purl.org/dc/elements/1.1/">
  <path
     style="color:#000000;fill:#dc3545;-inkscape-stroke:none"
     d="m 32.330078,8.3789063 c -2.45804,8e-7 -4.917498,0.9536622 -6.787109,2.8613277 l -2.044922,2.087891 -2.029297,-2.070312 c -3.739107,-3.8153936 -9.831168,-3.8153356 -13.5703125,0 -3.7393191,3.815055 -3.7393255,9.974042 0,13.789062 4.9674955,5.068716 9.9347655,10.138238 14.9023435,15.207031 l 0.714844,0.728516 15.599609,-15.953125 c 3.734349,-3.818143 3.739051,-9.974019 0,-13.789063 C 37.245541,9.3325826 34.788118,8.3789054 32.330078,8.3789063 Z m 0,1.9746097 c 1.931639,10e-7 3.863291,0.762644 5.357422,2.287109 2.987775,3.048499 2.983684,7.937603 -0.002,10.990234 L 23.513672,38.125 C 18.784201,33.299181 14.055525,28.472205 9.3261719,23.646484 c -2.987988,-3.048473 -2.9879944,-7.939767 0,-10.988281 2.9879811,-3.0488651 7.7269111,-3.0488923 10.7148441,0 l 3.457031,3.527344 3.474609,-3.544922 c 1.49404,-1.52445 3.425783,-2.28711 5.357422,-2.287109 z"
     id="path2-3-3-3-3-3" />
  <style
     id="style1006" />
  <metadata
     id="metadata181">
    <rdf:RDF>
      <cc:Work
         rdf:about="">
        <dc:format>image/svg+xml</dc:format>
        <dc:type
           rdf:resource="http://purl.org/dc/dcmitype/StillImage" />
      </cc:Work>
    </rdf:RDF>
  </metadata>
  <sodipodi:namedview
     id="namedview65"
     pagecolor="#000000"
     bordercolor="#666666"
     borderopacity="1.0"
     inkscape:showpageshadow="2"
     inkscape:pageopacity="0.0"
     inkscape:pagecheckerboard="0"
     inkscape:deskcolor="#d1d1d1"
     showgrid="true"
     inkscape:zoom="11.136495"
     inkscape:cx="29.677201"
     inkscape:cy="22.448715"
     inkscape:window-width="1600"
     inkscape:window-height="836"
     inkscape:window-x="0"
     inkscape:window-y="0"
     inkscape:window-maximized="1"
     inkscape:current-layer="svg63"
     inkscape:document-rotation="0"
     inkscape:pageshadow="2">
    <inkscape:grid
       type="xygrid"
       id="grid468"
       originx="30.400758"
       originy="-11.147109"
       spacingy="1"
       spacingx="1"
       units="px"
       visible="false" />
  </sodipodi:namedview>
  <defs
     id="defs27" />
</svg>
